<?xml version="1.0" ?>
<svg xmlns="http://www.w3.org/2000/svg" version="1.1" width="638.64px" height="3000px" viewBox="12186.89 0 638.64 3000">
  <polygon points="12441.40,1257.96 12441.59,1282.29 12444.84,1275.23 12444.66,1250.96" fill="#f9c60a" stroke="#f9c60a" stroke-width="0.5" stroke-linecap="round" stroke-linejoin="round"/>
  <polygon points="12363.19,1250.96 12363.64,1275.23 12366.27,1282.29 12365.83,1257.96" fill="#f9c60a" stroke="#f9c60a" stroke-width="0.5" stroke-linecap="round" stroke-linejoin="round"/>
  <polygon points="12375.85,1238.12 12366.70,1244.01 12363.19,1250.96 12365.83,1257.96 12374.35,1263.96 12387.48,1267.98 12403.11,1269.38 12418.86,1267.98 12432.34,1263.96 12441.40,1257.96 12444.66,1250.96 12441.78,1244.01 12433.15,1238.12 12420.12,1234.22 12404.73,1232.86 12389.23,1234.22" fill="#f9c60a" stroke="#f9c60a" stroke-width="0.5" stroke-linecap="round" stroke-linejoin="round"/>
  <polygon points="12432.34,1263.96 12432.57,1288.33 12441.59,1282.29 12441.40,1257.96" fill="#f9c60a" stroke="#f9c60a" stroke-width="0.5" stroke-linecap="round" stroke-linejoin="round"/>
  <polygon points="12365.83,1257.96 12366.27,1282.29 12374.76,1288.33 12374.35,1263.96" fill="#f9c60a" stroke="#f9c60a" stroke-width="0.5" stroke-linecap="round" stroke-linejoin="round"/>
  <polygon points="12374.35,1263.96 12374.76,1288.33 12387.85,1292.38 12387.48,1267.98" fill="#f9c60a" stroke="#f9c60a" stroke-width="0.5" stroke-linecap="round" stroke-linejoin="round"/>
  <polygon points="12418.86,1267.98 12419.12,1292.38 12432.57,1288.33 12432.34,1263.96" fill="#f9c60a" stroke="#f9c60a" stroke-width="0.5" stroke-linecap="round" stroke-linejoin="round"/>
  <polygon points="12387.48,1267.98 12387.85,1292.38 12403.42,1293.79 12403.11,1269.38" fill="#f9c60a" stroke="#f9c60a" stroke-width="0.5" stroke-linecap="round" stroke-linejoin="round"/>
  <polygon points="12403.11,1269.38 12403.42,1293.79 12419.12,1292.38 12418.86,1267.98" fill="#f9c60a" stroke="#f9c60a" stroke-width="0.5" stroke-linecap="round" stroke-linejoin="round"/>
  <polygon points="12407.87,1373.09 12212.60,1463.83 12604.09,1668.88 12799.32,1562.11" fill="#f9c60a" stroke="#f9c60a" stroke-width="0.5" stroke-linecap="round" stroke-linejoin="round"/>
  <polygon points="12458.44,1294.91 12458.57,1319.52 12461.57,1326.86 12461.45,1302.19" fill="#f9c60a" stroke="#f9c60a" stroke-width="0.5" stroke-linecap="round" stroke-linejoin="round"/>
  <polygon points="12262.38,1294.91 12263.16,1319.52 12265.52,1326.86 12264.74,1302.19" fill="#f9c60a" stroke="#f9c60a" stroke-width="0.5" stroke-linecap="round" stroke-linejoin="round"/>
  <polygon points="12341.85,1302.19 12342.37,1326.86 12346.02,1319.52 12345.51,1294.91" fill="#f9c60a" stroke="#f9c60a" stroke-width="0.5" stroke-linecap="round" stroke-linejoin="round"/>
  <polygon points="12538.56,1302.19 12538.43,1326.86 12541.43,1319.52 12541.57,1294.91" fill="#f9c60a" stroke="#f9c60a" stroke-width="0.5" stroke-linecap="round" stroke-linejoin="round"/>
  <polygon points="12516.01,1312.62 12529.59,1308.44 12538.56,1302.19 12541.57,1294.91 12538.30,1287.67 12529.23,1281.54 12515.75,1277.47 12500.00,1276.06 12484.25,1277.47 12470.77,1281.54 12461.70,1287.67 12458.44,1294.91 12461.45,1302.19 12470.41,1308.44 12483.99,1312.62 12500.00,1314.08" fill="#f9c60a" stroke="#f9c60a" stroke-width="0.5" stroke-linecap="round" stroke-linejoin="round"/>
  <polygon points="12275.90,1281.54 12266.28,1287.67 12262.38,1294.91 12264.74,1302.19 12273.15,1308.44 12286.35,1312.62 12302.23,1314.08 12318.37,1312.62 12332.32,1308.44 12341.85,1302.19 12345.51,1294.91 12342.89,1287.67 12334.36,1281.54 12321.25,1277.47 12305.62,1276.06 12289.74,1277.47" fill="#f9c60a" stroke="#f9c60a" stroke-width="0.5" stroke-linecap="round" stroke-linejoin="round"/>
  <polygon points="12264.74,1302.19 12265.52,1326.86 12273.90,1333.16 12273.15,1308.44" fill="#f9c60a" stroke="#f9c60a" stroke-width="0.5" stroke-linecap="round" stroke-linejoin="round"/>
  <polygon points="12332.32,1308.44 12332.88,1333.16 12342.37,1326.86 12341.85,1302.19" fill="#f9c60a" stroke="#f9c60a" stroke-width="0.5" stroke-linecap="round" stroke-linejoin="round"/>
  <polygon points="12529.59,1308.44 12529.49,1333.16 12538.43,1326.86 12538.56,1302.19" fill="#f9c60a" stroke="#f9c60a" stroke-width="0.5" stroke-linecap="round" stroke-linejoin="round"/>
  <polygon points="12461.45,1302.19 12461.57,1326.86 12470.51,1333.16 12470.41,1308.44" fill="#f9c60a" stroke="#f9c60a" stroke-width="0.5" stroke-linecap="round" stroke-linejoin="round"/>
  <polygon points="12516.01,1312.62 12515.95,1337.37 12529.49,1333.16 12529.59,1308.44" fill="#f9c60a" stroke="#f9c60a" stroke-width="0.5" stroke-linecap="round" stroke-linejoin="round"/>
  <polygon points="12273.15,1308.44 12273.90,1333.16 12287.07,1337.37 12286.35,1312.62" fill="#f9c60a" stroke="#f9c60a" stroke-width="0.5" stroke-linecap="round" stroke-linejoin="round"/>
  <polygon points="12470.41,1308.44 12470.51,1333.16 12484.04,1337.37 12483.99,1312.62" fill="#f9c60a" stroke="#f9c60a" stroke-width="0.5" stroke-linecap="round" stroke-linejoin="round"/>
  <polygon points="12318.37,1312.62 12318.98,1337.37 12332.88,1333.16 12332.32,1308.44" fill="#f9c60a" stroke="#f9c60a" stroke-width="0.5" stroke-linecap="round" stroke-linejoin="round"/>
  <polygon points="12286.35,1312.62 12287.07,1337.37 12302.89,1338.84 12302.23,1314.08" fill="#f9c60a" stroke="#f9c60a" stroke-width="0.5" stroke-linecap="round" stroke-linejoin="round"/>
  <polygon points="12302.23,1314.08 12302.89,1338.84 12318.98,1337.37 12318.37,1312.62" fill="#f9c60a" stroke="#f9c60a" stroke-width="0.5" stroke-linecap="round" stroke-linejoin="round"/>
  <polygon points="12483.99,1312.62 12484.04,1337.37 12500.00,1338.84 12500.00,1314.08" fill="#f9c60a" stroke="#f9c60a" stroke-width="0.5" stroke-linecap="round" stroke-linejoin="round"/>
  <polygon points="12500.00,1314.08 12500.00,1338.84 12515.95,1337.37 12516.01,1312.62" fill="#f9c60a" stroke="#f9c60a" stroke-width="0.5" stroke-linecap="round" stroke-linejoin="round"/>
  <polygon points="12601.93,1815.18 12604.09,1668.88 12212.60,1463.83 12218.10,1602.63" fill="#f9c60a" stroke="#f9c60a" stroke-width="0.5" stroke-linecap="round" stroke-linejoin="round"/>
  <polygon points="12406.11,1232.67 12206.89,1319.52 12606.34,1516.25 12805.52,1413.72" fill="#f9c60a" stroke="#f9c60a" stroke-width="0.5" stroke-linecap="round" stroke-linejoin="round"/>
  <polygon points="12357.50,1340.67 12357.98,1365.64 12360.71,1373.29 12360.23,1348.27" fill="#f9c60a" stroke="#f9c60a" stroke-width="0.5" stroke-linecap="round" stroke-linejoin="round"/>
  <polygon points="12639.77,1348.27 12639.29,1373.29 12642.02,1365.64 12642.50,1340.67" fill="#f9c60a" stroke="#f9c60a" stroke-width="0.5" stroke-linecap="round" stroke-linejoin="round"/>
  <polygon points="12557.64,1340.67 12557.44,1365.64 12560.84,1373.29 12561.05,1348.27" fill="#f9c60a" stroke="#f9c60a" stroke-width="0.5" stroke-linecap="round" stroke-linejoin="round"/>
  <polygon points="12438.95,1348.27 12439.16,1373.29 12442.56,1365.64 12442.36,1340.67" fill="#f9c60a" stroke="#f9c60a" stroke-width="0.5" stroke-linecap="round" stroke-linejoin="round"/>
  <polygon points="12617.23,1359.14 12630.91,1354.78 12639.77,1348.27 12642.50,1340.67 12638.83,1333.13 12629.28,1326.74 12615.34,1322.51 12599.19,1321.04 12583.18,1322.51 12569.61,1326.74 12560.64,1333.13 12557.64,1340.67 12561.05,1348.27 12570.49,1354.78 12584.55,1359.14 12600.96,1360.66" fill="#f9c60a" stroke="#f9c60a" stroke-width="0.5" stroke-linecap="round" stroke-linejoin="round"/>
  <polygon points="12415.45,1359.14 12429.51,1354.78 12438.95,1348.27 12442.36,1340.67 12439.36,1333.13 12430.39,1326.74 12416.82,1322.51 12400.81,1321.04 12384.66,1322.51 12370.72,1326.74 12361.17,1333.13 12357.50,1340.67 12360.23,1348.27 12369.09,1354.78 12382.76,1359.14 12399.04,1360.66" fill="#f9c60a" stroke="#f9c60a" stroke-width="0.5" stroke-linecap="round" stroke-linejoin="round"/>
  <polygon points="12360.23,1348.27 12360.71,1373.29 12369.54,1379.85 12369.09,1354.78" fill="#f9c60a" stroke="#f9c60a" stroke-width="0.5" stroke-linecap="round" stroke-linejoin="round"/>
  <polygon points="12561.05,1348.27 12560.84,1373.29 12570.25,1379.85 12570.49,1354.78" fill="#f9c60a" stroke="#f9c60a" stroke-width="0.5" stroke-linecap="round" stroke-linejoin="round"/>
  <polygon points="12630.91,1354.78 12630.46,1379.85 12639.29,1373.29 12639.77,1348.27" fill="#f9c60a" stroke="#f9c60a" stroke-width="0.5" stroke-linecap="round" stroke-linejoin="round"/>
  <polygon points="12429.51,1354.78 12429.75,1379.85 12439.16,1373.29 12438.95,1348.27" fill="#f9c60a" stroke="#f9c60a" stroke-width="0.5" stroke-linecap="round" stroke-linejoin="round"/>
  <polygon points="12369.09,1354.78 12369.54,1379.85 12383.16,1384.25 12382.76,1359.14" fill="#f9c60a" stroke="#f9c60a" stroke-width="0.5" stroke-linecap="round" stroke-linejoin="round"/>
  <polygon points="12570.49,1354.78 12570.25,1379.85 12584.26,1384.25 12584.55,1359.14" fill="#f9c60a" stroke="#f9c60a" stroke-width="0.5" stroke-linecap="round" stroke-linejoin="round"/>
  <polygon points="12617.23,1359.14 12616.84,1384.25 12630.46,1379.85 12630.91,1354.78" fill="#f9c60a" stroke="#f9c60a" stroke-width="0.5" stroke-linecap="round" stroke-linejoin="round"/>
  <polygon points="12415.45,1359.14 12415.74,1384.25 12429.75,1379.85 12429.51,1354.78" fill="#f9c60a" stroke="#f9c60a" stroke-width="0.5" stroke-linecap="round" stroke-linejoin="round"/>
  <polygon points="12399.04,1360.66 12399.39,1385.78 12415.74,1384.25 12415.45,1359.14" fill="#f9c60a" stroke="#f9c60a" stroke-width="0.5" stroke-linecap="round" stroke-linejoin="round"/>
  <polygon points="12600.96,1360.66 12600.61,1385.78 12616.84,1384.25 12617.23,1359.14" fill="#f9c60a" stroke="#f9c60a" stroke-width="0.5" stroke-linecap="round" stroke-linejoin="round"/>
  <polygon points="12584.55,1359.14 12584.26,1384.25 12600.61,1385.78 12600.96,1360.66" fill="#f9c60a" stroke="#f9c60a" stroke-width="0.5" stroke-linecap="round" stroke-linejoin="round"/>
  <polygon points="12382.76,1359.14 12383.16,1384.25 12399.39,1385.78 12399.04,1360.66" fill="#f9c60a" stroke="#f9c60a" stroke-width="0.5" stroke-linecap="round" stroke-linejoin="round"/>
  <polygon points="12604.09,1668.88 12606.34,1516.25 12206.89,1319.52 12212.60,1463.83" fill="#f9c60a" stroke="#f9c60a" stroke-width="0.5" stroke-linecap="round" stroke-linejoin="round"/>
  <polygon points="12799.32,1562.11 12604.09,1668.88 12601.93,1815.18 12793.35,1704.58" fill="#f9c60a" stroke="#f9c60a" stroke-width="0.5" stroke-linecap="round" stroke-linejoin="round"/>
  <polygon points="12745.29,1396.31 12744.44,1421.70 12746.86,1413.72 12747.72,1388.39" fill="#f9c60a" stroke="#f9c60a" stroke-width="0.5" stroke-linecap="round" stroke-linejoin="round"/>
  <polygon points="12456.67,1388.39 12456.82,1413.72 12459.94,1421.70 12459.80,1396.31" fill="#f9c60a" stroke="#f9c60a" stroke-width="0.5" stroke-linecap="round" stroke-linejoin="round"/>
  <polygon points="12661.06,1388.39 12660.50,1413.72 12664.32,1421.70 12664.90,1396.31" fill="#f9c60a" stroke="#f9c60a" stroke-width="0.5" stroke-linecap="round" stroke-linejoin="round"/>
  <polygon points="12540.20,1396.31 12540.06,1421.70 12543.18,1413.72 12543.33,1388.39" fill="#f9c60a" stroke="#f9c60a" stroke-width="0.5" stroke-linecap="round" stroke-linejoin="round"/>
  <polygon points="12733.56,1373.86 12719.12,1369.44 12702.56,1367.91 12686.28,1369.44 12672.63,1373.86 12663.77,1380.52 12661.06,1388.39 12664.90,1396.31 12674.84,1403.10 12689.41,1407.65 12706.25,1409.23 12722.80,1407.65 12736.55,1403.10 12745.29,1396.31 12747.72,1388.39 12743.61,1380.52" fill="#f9c60a" stroke="#f9c60a" stroke-width="0.5" stroke-linecap="round" stroke-linejoin="round"/>
  <polygon points="12539.92,1380.52 12530.46,1373.86 12516.42,1369.44 12500.00,1367.91 12483.58,1369.44 12469.54,1373.86 12460.08,1380.52 12456.67,1388.39 12459.80,1396.31 12469.14,1403.10 12483.31,1407.65 12500.00,1409.23 12516.69,1407.65 12530.85,1403.10 12540.20,1396.31 12543.33,1388.39" fill="#f9c60a" stroke="#f9c60a" stroke-width="0.5" stroke-linecap="round" stroke-linejoin="round"/>
  <polygon points="12530.85,1403.10 12530.75,1428.54 12540.06,1421.70 12540.20,1396.31" fill="#f9c60a" stroke="#f9c60a" stroke-width="0.5" stroke-linecap="round" stroke-linejoin="round"/>
  <polygon points="12459.80,1396.31 12459.94,1421.70 12469.25,1428.54 12469.14,1403.10" fill="#f9c60a" stroke="#f9c60a" stroke-width="0.5" stroke-linecap="round" stroke-linejoin="round"/>
  <polygon points="12736.55,1403.10 12735.73,1428.54 12744.44,1421.70 12745.29,1396.31" fill="#f9c60a" stroke="#f9c60a" stroke-width="0.5" stroke-linecap="round" stroke-linejoin="round"/>
  <polygon points="12664.90,1396.31 12664.32,1421.70 12674.24,1428.54 12674.84,1403.10" fill="#f9c60a" stroke="#f9c60a" stroke-width="0.5" stroke-linecap="round" stroke-linejoin="round"/>
  <polygon points="12722.80,1407.65 12722.02,1433.12 12735.73,1428.54 12736.55,1403.10" fill="#f9c60a" stroke="#f9c60a" stroke-width="0.5" stroke-linecap="round" stroke-linejoin="round"/>
  <polygon points="12674.84,1403.10 12674.24,1428.54 12688.75,1433.12 12689.41,1407.65" fill="#f9c60a" stroke="#f9c60a" stroke-width="0.5" stroke-linecap="round" stroke-linejoin="round"/>
  <polygon points="12469.14,1403.10 12469.25,1428.54 12483.36,1433.12 12483.31,1407.65" fill="#f9c60a" stroke="#f9c60a" stroke-width="0.5" stroke-linecap="round" stroke-linejoin="round"/>
  <polygon points="12516.69,1407.65 12516.64,1433.12 12530.75,1428.54 12530.85,1403.10" fill="#f9c60a" stroke="#f9c60a" stroke-width="0.5" stroke-linecap="round" stroke-linejoin="round"/>
  <polygon points="12483.31,1407.65 12483.36,1433.12 12500.00,1434.72 12500.00,1409.23" fill="#f9c60a" stroke="#f9c60a" stroke-width="0.5" stroke-linecap="round" stroke-linejoin="round"/>
  <polygon points="12500.00,1409.23 12500.00,1434.72 12516.64,1433.12 12516.69,1407.65" fill="#f9c60a" stroke="#f9c60a" stroke-width="0.5" stroke-linecap="round" stroke-linejoin="round"/>
  <polygon points="12706.25,1409.23 12705.53,1434.72 12722.02,1433.12 12722.80,1407.65" fill="#f9c60a" stroke="#f9c60a" stroke-width="0.5" stroke-linecap="round" stroke-linejoin="round"/>
  <polygon points="12689.41,1407.65 12688.75,1433.12 12705.53,1434.72 12706.25,1409.23" fill="#f9c60a" stroke="#f9c60a" stroke-width="0.5" stroke-linecap="round" stroke-linejoin="round"/>
  <polygon points="12805.52,1413.72 12606.34,1516.25 12604.09,1668.88 12799.32,1562.11" fill="#f9c60a" stroke="#f9c60a" stroke-width="0.5" stroke-linecap="round" stroke-linejoin="round"/>
  <polygon points="12645.85,1446.44 12645.34,1472.20 12648.16,1463.87 12648.68,1438.17" fill="#f9c60a" stroke="#f9c60a" stroke-width="0.5" stroke-linecap="round" stroke-linejoin="round"/>
  <polygon points="12560.14,1438.17 12559.93,1463.87 12563.48,1472.20 12563.71,1446.44" fill="#f9c60a" stroke="#f9c60a" stroke-width="0.5" stroke-linecap="round" stroke-linejoin="round"/>
  <polygon points="12622.37,1458.28 12636.62,1453.53 12645.85,1446.44 12648.68,1438.17 12644.83,1429.96 12634.86,1423.01 12620.30,1418.40 12603.46,1416.80 12586.76,1418.40 12572.61,1423.01 12563.26,1429.96 12560.14,1438.17 12563.71,1446.44 12573.57,1453.53 12588.25,1458.28 12605.38,1459.94" fill="#f9c60a" stroke="#f9c60a" stroke-width="0.5" stroke-linecap="round" stroke-linejoin="round"/>
  <polygon points="12563.71,1446.44 12563.48,1472.20 12573.31,1479.35 12573.57,1453.53" fill="#f9c60a" stroke="#f9c60a" stroke-width="0.5" stroke-linecap="round" stroke-linejoin="round"/>
  <polygon points="12636.62,1453.53 12636.14,1479.35 12645.34,1472.20 12645.85,1446.44" fill="#f9c60a" stroke="#f9c60a" stroke-width="0.5" stroke-linecap="round" stroke-linejoin="round"/>
  <polygon points="12573.57,1453.53 12573.31,1479.35 12587.93,1484.13 12588.25,1458.28" fill="#f9c60a" stroke="#f9c60a" stroke-width="0.5" stroke-linecap="round" stroke-linejoin="round"/>
  <polygon points="12622.37,1458.28 12621.93,1484.13 12636.14,1479.35 12636.62,1453.53" fill="#f9c60a" stroke="#f9c60a" stroke-width="0.5" stroke-linecap="round" stroke-linejoin="round"/>
  <polygon points="12588.25,1458.28 12587.93,1484.13 12605.01,1485.80 12605.38,1459.94" fill="#f9c60a" stroke="#f9c60a" stroke-width="0.5" stroke-linecap="round" stroke-linejoin="round"/>
  <polygon points="12605.38,1459.94 12605.01,1485.80 12621.93,1484.13 12622.37,1458.28" fill="#f9c60a" stroke="#f9c60a" stroke-width="0.5" stroke-linecap="round" stroke-linejoin="round"/>
  <path d="M 12218.10 1602.63 L 12601.93 1815.18 L 12793.35 1704.58 L 12799.32 1562.11 L 12604.09 1668.88 L 12601.93 1815.18 L 12793.35 1704.58 L 12799.32 1562.11 L 12604.09 1668.88 L 12212.61 1463.83 L 12218.10 1602.63 L 12601.93 1815.18 L 12604.09 1668.88 L 12212.61 1463.83 L 12218.10 1602.63" stroke="black" stroke-width="4" fill="none" stroke-linecap="round" stroke-linejoin="round"/>
  <path d="M 12212.61 1463.83 L 12604.09 1668.88 L 12799.32 1562.11 L 12805.52 1413.72 L 12606.34 1516.25 L 12604.09 1668.88 L 12799.32 1562.11 L 12805.52 1413.72 L 12747.12 1387.25 L 12805.52 1413.72 L 12606.34 1516.25 L 12206.89 1319.52 L 12262.39 1295.32 L 12206.89 1319.52 L 12212.61 1463.83 L 12604.09 1668.88 L 12606.34 1516.25 L 12206.89 1319.52 L 12212.61 1463.83" stroke="black" stroke-width="4" fill="none" stroke-linecap="round" stroke-linejoin="round"/>
  <path d="M 12704.95 1368.13 L 12641.97 1339.58 L 12704.95 1368.13" stroke="black" stroke-width="4" fill="none" stroke-linecap="round" stroke-linejoin="round"/>
  <path d="M 12601.52 1321.25 L 12541.09 1293.86 L 12601.52 1321.25" stroke="black" stroke-width="4" fill="none" stroke-linecap="round" stroke-linejoin="round"/>
  <path d="M 12502.28 1276.26 L 12444.24 1249.96 L 12502.28 1276.26" stroke="black" stroke-width="4" fill="none" stroke-linecap="round" stroke-linejoin="round"/>
  <path d="M 12406.96 1233.05 L 12406.11 1232.67 L 12405.52 1232.93 L 12406.11 1232.67 L 12406.96 1233.05" stroke="black" stroke-width="4" fill="none" stroke-linecap="round" stroke-linejoin="round"/>
  <path d="M 12363.20 1251.38 L 12306.42 1276.13 L 12363.20 1251.38" stroke="black" stroke-width="4" fill="none" stroke-linecap="round" stroke-linejoin="round"/>
  <path d="M 12745.29 1396.31 L 12747.72 1388.39 L 12743.61 1380.52 L 12733.56 1373.86 L 12719.12 1369.44 L 12702.56 1367.91 L 12686.28 1369.44 L 12672.63 1373.86 L 12663.77 1380.52 L 12661.06 1388.39 L 12664.90 1396.31 L 12674.84 1403.10 L 12689.41 1407.65 L 12706.25 1409.23 L 12722.80 1407.65 L 12736.55 1403.10 L 12745.29 1396.31" stroke="black" stroke-width="4" fill="none" stroke-linecap="round" stroke-linejoin="round"/>
  <path d="M 12661.06 1388.39 L 12660.50 1413.72 L 12664.32 1421.70 L 12674.24 1428.54 L 12688.75 1433.12 L 12705.53 1434.72 L 12722.02 1433.12 L 12735.73 1428.54 L 12744.44 1421.70 L 12746.86 1413.72 L 12747.72 1388.39" stroke="black" stroke-width="4" fill="none" stroke-linecap="round" stroke-linejoin="round"/>
  <path d="M 12706.25 1409.23 L 12722.80 1407.65 L 12736.55 1403.10" stroke="black" stroke-width="4" fill="none" stroke-linecap="round" stroke-linejoin="round"/>
  <path d="M 12733.56 1373.86 L 12719.12 1369.44 L 12702.56 1367.91" stroke="black" stroke-width="4" fill="none" stroke-linecap="round" stroke-linejoin="round"/>
  <path d="M 12672.63 1373.86 L 12663.77 1380.52 L 12661.06 1388.39 L 12664.90 1396.31 L 12674.84 1403.10" stroke="black" stroke-width="4" fill="none" stroke-linecap="round" stroke-linejoin="round"/>
  <path d="M 12639.77 1348.27 L 12642.50 1340.67 L 12638.83 1333.13 L 12629.28 1326.74 L 12615.34 1322.51 L 12599.19 1321.04 L 12583.18 1322.51 L 12569.61 1326.74 L 12560.64 1333.13 L 12557.64 1340.67 L 12561.05 1348.27 L 12570.49 1354.78 L 12584.55 1359.14 L 12600.96 1360.66 L 12617.23 1359.14 L 12630.91 1354.78 L 12639.77 1348.27 L 12630.91 1354.78" stroke="black" stroke-width="4" fill="none" stroke-linecap="round" stroke-linejoin="round"/>
  <path d="M 12557.64 1340.67 L 12557.44 1365.64 L 12560.84 1373.29 L 12570.25 1379.85 L 12584.26 1384.25 L 12600.61 1385.78 L 12616.84 1384.25 L 12630.46 1379.85 L 12639.29 1373.29 L 12642.02 1365.64 L 12642.50 1340.67" stroke="black" stroke-width="4" fill="none" stroke-linecap="round" stroke-linejoin="round"/>
  <path d="M 12638.83 1333.13 L 12629.28 1326.74" stroke="black" stroke-width="4" fill="none" stroke-linecap="round" stroke-linejoin="round"/>
  <path d="M 12615.34 1322.51 L 12599.19 1321.04" stroke="black" stroke-width="4" fill="none" stroke-linecap="round" stroke-linejoin="round"/>
  <path d="M 12583.18 1322.51 L 12569.61 1326.74" stroke="black" stroke-width="4" fill="none" stroke-linecap="round" stroke-linejoin="round"/>
  <path d="M 12560.64 1333.13 L 12557.64 1340.67 L 12561.05 1348.27" stroke="black" stroke-width="4" fill="none" stroke-linecap="round" stroke-linejoin="round"/>
  <path d="M 12570.49 1354.78 L 12584.55 1359.14" stroke="black" stroke-width="4" fill="none" stroke-linecap="round" stroke-linejoin="round"/>
  <path d="M 12600.96 1360.66 L 12617.23 1359.14" stroke="black" stroke-width="4" fill="none" stroke-linecap="round" stroke-linejoin="round"/>
  <path d="M 12538.56 1302.19 L 12541.57 1294.91 L 12538.30 1287.67 L 12529.23 1281.54 L 12515.75 1277.47 L 12500.00 1276.06 L 12484.25 1277.47 L 12470.77 1281.54 L 12461.70 1287.67 L 12458.44 1294.91 L 12461.45 1302.19 L 12470.41 1308.44 L 12483.99 1312.62 L 12500.00 1314.08 L 12516.01 1312.62 L 12529.59 1308.44 L 12538.56 1302.19 L 12529.59 1308.44" stroke="black" stroke-width="4" fill="none" stroke-linecap="round" stroke-linejoin="round"/>
  <path d="M 12458.44 1294.91 L 12458.57 1319.52 L 12461.57 1326.86 L 12470.51 1333.16 L 12484.04 1337.37 L 12500.00 1338.84 L 12515.95 1337.37 L 12529.49 1333.16 L 12538.43 1326.86 L 12541.43 1319.52 L 12541.57 1294.91" stroke="black" stroke-width="4" fill="none" stroke-linecap="round" stroke-linejoin="round"/>
  <path d="M 12505.53 1301.02 L 12500.00 1300.52" stroke="black" stroke-width="4" fill="none" stroke-linecap="round" stroke-linejoin="round"/>
  <path d="M 12538.30 1287.67 L 12529.23 1281.54" stroke="black" stroke-width="4" fill="none" stroke-linecap="round" stroke-linejoin="round"/>
  <path d="M 12515.75 1277.47 L 12500.00 1276.06" stroke="black" stroke-width="4" fill="none" stroke-linecap="round" stroke-linejoin="round"/>
  <path d="M 12484.25 1277.47 L 12470.77 1281.54" stroke="black" stroke-width="4" fill="none" stroke-linecap="round" stroke-linejoin="round"/>
  <path d="M 12461.70 1287.67 L 12458.44 1294.91 L 12461.45 1302.19" stroke="black" stroke-width="4" fill="none" stroke-linecap="round" stroke-linejoin="round"/>
  <path d="M 12470.41 1308.44 L 12483.99 1312.62" stroke="black" stroke-width="4" fill="none" stroke-linecap="round" stroke-linejoin="round"/>
  <path d="M 12500.00 1314.08 L 12516.01 1312.62" stroke="black" stroke-width="4" fill="none" stroke-linecap="round" stroke-linejoin="round"/>
  <path d="M 12441.40 1257.96 L 12444.66 1250.96 L 12441.78 1244.01 L 12433.15 1238.12 L 12420.12 1234.22 L 12404.73 1232.86 L 12389.23 1234.22 L 12375.85 1238.12 L 12366.70 1244.01 L 12363.19 1250.96 L 12365.83 1257.96 L 12374.35 1263.96 L 12387.48 1267.98 L 12403.11 1269.38 L 12418.86 1267.98 L 12432.34 1263.96 L 12441.40 1257.96" stroke="black" stroke-width="4" fill="none" stroke-linecap="round" stroke-linejoin="round"/>
  <path d="M 12363.19 1250.96 L 12363.64 1275.23 L 12366.27 1282.29 L 12374.76 1288.33 L 12387.85 1292.38 L 12403.42 1293.79 L 12419.12 1292.38 L 12432.57 1288.33 L 12441.59 1282.29 L 12444.84 1275.23 L 12444.66 1250.96" stroke="black" stroke-width="4" fill="none" stroke-linecap="round" stroke-linejoin="round"/>
  <path d="M 12403.11 1269.38 L 12418.86 1267.98 L 12432.34 1263.96" stroke="black" stroke-width="4" fill="none" stroke-linecap="round" stroke-linejoin="round"/>
  <path d="M 12433.15 1238.12 L 12420.12 1234.22 L 12404.73 1232.86" stroke="black" stroke-width="4" fill="none" stroke-linecap="round" stroke-linejoin="round"/>
  <path d="M 12375.85 1238.12 L 12366.70 1244.01 L 12363.19 1250.96 L 12365.83 1257.96 L 12374.35 1263.96" stroke="black" stroke-width="4" fill="none" stroke-linecap="round" stroke-linejoin="round"/>
  <path d="M 12645.85 1446.44 L 12648.68 1438.17 L 12644.83 1429.96 L 12634.86 1423.01 L 12620.30 1418.40 L 12603.46 1416.80 L 12586.76 1418.40 L 12572.61 1423.01 L 12563.26 1429.96 L 12560.14 1438.17 L 12563.71 1446.44 L 12573.57 1453.53 L 12588.25 1458.28 L 12605.38 1459.94 L 12622.37 1458.28 L 12636.62 1453.53 L 12645.85 1446.44" stroke="black" stroke-width="4" fill="none" stroke-linecap="round" stroke-linejoin="round"/>
  <path d="M 12560.14 1438.17 L 12559.93 1463.87 L 12563.48 1472.20 L 12573.31 1479.35 L 12587.93 1484.13 L 12605.01 1485.80 L 12621.93 1484.13 L 12636.14 1479.35 L 12645.34 1472.20 L 12648.16 1463.87 L 12648.68 1438.17" stroke="black" stroke-width="4" fill="none" stroke-linecap="round" stroke-linejoin="round"/>
  <path d="M 12605.38 1459.94 L 12622.37 1458.28 L 12636.62 1453.53" stroke="black" stroke-width="4" fill="none" stroke-linecap="round" stroke-linejoin="round"/>
  <path d="M 12634.86 1423.01 L 12620.30 1418.40 L 12603.46 1416.80" stroke="black" stroke-width="4" fill="none" stroke-linecap="round" stroke-linejoin="round"/>
  <path d="M 12572.61 1423.01 L 12563.26 1429.96 L 12560.14 1438.17 L 12563.71 1446.44 L 12573.57 1453.53" stroke="black" stroke-width="4" fill="none" stroke-linecap="round" stroke-linejoin="round"/>
  <path d="M 12540.20 1396.31 L 12543.33 1388.39 L 12539.92 1380.52 L 12530.46 1373.86 L 12516.42 1369.44 L 12500.00 1367.91 L 12483.58 1369.44 L 12469.54 1373.86 L 12460.08 1380.52 L 12456.67 1388.39 L 12459.80 1396.31 L 12469.14 1403.10 L 12483.31 1407.65 L 12500.00 1409.23 L 12516.69 1407.65 L 12530.85 1403.10 L 12540.20 1396.31 L 12530.85 1403.10" stroke="black" stroke-width="4" fill="none" stroke-linecap="round" stroke-linejoin="round"/>
  <path d="M 12456.67 1388.39 L 12456.82 1413.72 L 12459.94 1421.70 L 12469.25 1428.54 L 12483.36 1433.12 L 12500.00 1434.72 L 12516.64 1433.12 L 12530.75 1428.54 L 12540.06 1421.70 L 12543.18 1413.72 L 12543.33 1388.39" stroke="black" stroke-width="4" fill="none" stroke-linecap="round" stroke-linejoin="round"/>
  <path d="M 12504.44 1393.51 L 12500.00 1393.09" stroke="black" stroke-width="4" fill="none" stroke-linecap="round" stroke-linejoin="round"/>
  <path d="M 12539.92 1380.52 L 12530.46 1373.86" stroke="black" stroke-width="4" fill="none" stroke-linecap="round" stroke-linejoin="round"/>
  <path d="M 12516.42 1369.44 L 12500.00 1367.91" stroke="black" stroke-width="4" fill="none" stroke-linecap="round" stroke-linejoin="round"/>
  <path d="M 12483.58 1369.44 L 12469.54 1373.86" stroke="black" stroke-width="4" fill="none" stroke-linecap="round" stroke-linejoin="round"/>
  <path d="M 12460.08 1380.52 L 12456.67 1388.39 L 12459.80 1396.31" stroke="black" stroke-width="4" fill="none" stroke-linecap="round" stroke-linejoin="round"/>
  <path d="M 12469.14 1403.10 L 12483.31 1407.65" stroke="black" stroke-width="4" fill="none" stroke-linecap="round" stroke-linejoin="round"/>
  <path d="M 12500.00 1409.23 L 12516.69 1407.65" stroke="black" stroke-width="4" fill="none" stroke-linecap="round" stroke-linejoin="round"/>
  <path d="M 12438.95 1348.27 L 12442.36 1340.67 L 12439.36 1333.13 L 12430.39 1326.74 L 12416.82 1322.51 L 12400.81 1321.04 L 12384.66 1322.51 L 12370.72 1326.74 L 12361.17 1333.13 L 12357.50 1340.67 L 12360.23 1348.27 L 12369.09 1354.78 L 12382.76 1359.14 L 12399.04 1360.66 L 12415.45 1359.14 L 12429.51 1354.78 L 12438.95 1348.27 L 12429.51 1354.78" stroke="black" stroke-width="4" fill="none" stroke-linecap="round" stroke-linejoin="round"/>
  <path d="M 12357.50 1340.67 L 12357.98 1365.64 L 12360.71 1373.29 L 12369.54 1379.85 L 12383.16 1384.25 L 12399.39 1385.78 L 12415.74 1384.25 L 12429.75 1379.85 L 12439.16 1373.29 L 12442.56 1365.64 L 12442.36 1340.67" stroke="black" stroke-width="4" fill="none" stroke-linecap="round" stroke-linejoin="round"/>
  <path d="M 12439.36 1333.13 L 12430.39 1326.74" stroke="black" stroke-width="4" fill="none" stroke-linecap="round" stroke-linejoin="round"/>
  <path d="M 12416.82 1322.51 L 12400.81 1321.04" stroke="black" stroke-width="4" fill="none" stroke-linecap="round" stroke-linejoin="round"/>
  <path d="M 12384.66 1322.51 L 12370.72 1326.74" stroke="black" stroke-width="4" fill="none" stroke-linecap="round" stroke-linejoin="round"/>
  <path d="M 12361.17 1333.13 L 12357.50 1340.67 L 12360.23 1348.27" stroke="black" stroke-width="4" fill="none" stroke-linecap="round" stroke-linejoin="round"/>
  <path d="M 12369.09 1354.78 L 12382.76 1359.14" stroke="black" stroke-width="4" fill="none" stroke-linecap="round" stroke-linejoin="round"/>
  <path d="M 12399.04 1360.66 L 12415.45 1359.14" stroke="black" stroke-width="4" fill="none" stroke-linecap="round" stroke-linejoin="round"/>
  <path d="M 12341.85 1302.19 L 12345.51 1294.91 L 12342.89 1287.67 L 12334.36 1281.54 L 12321.25 1277.47 L 12305.62 1276.06 L 12289.74 1277.47 L 12275.90 1281.54 L 12266.28 1287.67 L 12262.38 1294.91 L 12264.74 1302.19 L 12273.15 1308.44 L 12286.35 1312.62 L 12302.23 1314.08 L 12318.37 1312.62 L 12332.32 1308.44 L 12341.85 1302.19" stroke="black" stroke-width="4" fill="none" stroke-linecap="round" stroke-linejoin="round"/>
  <path d="M 12262.38 1294.91 L 12263.16 1319.52 L 12265.52 1326.86 L 12273.90 1333.16 L 12287.07 1337.37 L 12302.89 1338.84 L 12318.98 1337.37 L 12332.88 1333.16 L 12342.37 1326.86 L 12346.02 1319.52 L 12345.51 1294.91" stroke="black" stroke-width="4" fill="none" stroke-linecap="round" stroke-linejoin="round"/>
  <path d="M 12302.23 1314.08 L 12318.37 1312.62 L 12332.32 1308.44" stroke="black" stroke-width="4" fill="none" stroke-linecap="round" stroke-linejoin="round"/>
  <path d="M 12334.36 1281.54 L 12321.25 1277.47 L 12305.62 1276.06" stroke="black" stroke-width="4" fill="none" stroke-linecap="round" stroke-linejoin="round"/>
  <path d="M 12275.90 1281.54 L 12266.28 1287.67 L 12262.38 1294.91 L 12264.74 1302.19 L 12273.15 1308.44" stroke="black" stroke-width="4" fill="none" stroke-linecap="round" stroke-linejoin="round"/>
  <path d="M 12206.89 1319.52 L 12606.34 1516.25 L 12805.52 1413.72 L 12747.12 1387.25" stroke="black" stroke-width="4" fill="none" stroke-linecap="round" stroke-linejoin="round"/>
  <path d="M 12704.95 1368.13 L 12641.97 1339.58" stroke="black" stroke-width="4" fill="none" stroke-linecap="round" stroke-linejoin="round"/>
  <path d="M 12601.52 1321.25 L 12541.09 1293.86" stroke="black" stroke-width="4" fill="none" stroke-linecap="round" stroke-linejoin="round"/>
  <path d="M 12502.28 1276.26 L 12444.24 1249.96" stroke="black" stroke-width="4" fill="none" stroke-linecap="round" stroke-linejoin="round"/>
  <path d="M 12406.96 1233.05 L 12406.11 1232.67 L 12405.52 1232.93" stroke="black" stroke-width="4" fill="none" stroke-linecap="round" stroke-linejoin="round"/>
  <path d="M 12363.20 1251.38 L 12306.42 1276.13" stroke="black" stroke-width="4" fill="none" stroke-linecap="round" stroke-linejoin="round"/>
  <path d="M 12262.39 1295.32 L 12206.89 1319.52 L 12212.61 1463.83 L 12604.09 1668.88 L 12601.93 1815.18 L 12218.10 1602.63 L 12212.61 1463.83 L 12604.09 1668.88 L 12799.32 1562.11 L 12793.35 1704.58 L 12601.93 1815.18" stroke="black" stroke-width="4" fill="none" stroke-linecap="round" stroke-linejoin="round"/>
  <path d="M 12606.34 1516.25 L 12604.09 1668.88 L 12212.61 1463.83 L 12604.09 1668.88 L 12799.32 1562.11 L 12604.09 1668.88 L 12799.32 1562.11 L 12805.52 1413.72" stroke="black" stroke-width="4" fill="none" stroke-linecap="round" stroke-linejoin="round"/>
  <path d="M 12660.50 1413.72 L 12664.32 1421.70 L 12674.24 1428.54 L 12688.75 1433.12 L 12705.53 1434.72 L 12722.02 1433.12 L 12735.73 1428.54 L 12744.44 1421.70 L 12746.86 1413.72" stroke="black" stroke-width="4" fill="none" stroke-linecap="round" stroke-linejoin="round"/>
  <path d="M 12736.55 1403.10 L 12722.80 1407.65 L 12706.25 1409.23 L 12689.41 1407.65 L 12674.84 1403.10 L 12664.90 1396.31 L 12661.06 1388.39 L 12663.77 1380.52 L 12672.63 1373.86 L 12686.28 1369.44 L 12702.56 1367.91 L 12719.12 1369.44 L 12733.56 1373.86 L 12743.61 1380.52 L 12747.72 1388.39 L 12745.29 1396.31 L 12736.55 1403.10" stroke="black" stroke-width="4" fill="none" stroke-linecap="round" stroke-linejoin="round"/>
  <path d="M 12557.44 1365.64 L 12560.84 1373.29 L 12570.25 1379.85 L 12584.26 1384.25 L 12600.61 1385.78 L 12616.84 1384.25 L 12630.46 1379.85 L 12639.29 1373.29 L 12642.02 1365.64" stroke="black" stroke-width="4" fill="none" stroke-linecap="round" stroke-linejoin="round"/>
  <path d="M 12560.64 1333.13 L 12569.61 1326.74 L 12583.18 1322.51 L 12599.19 1321.04 L 12615.34 1322.51 L 12629.28 1326.74 L 12638.83 1333.13 L 12642.50 1340.67 L 12639.77 1348.27 L 12630.91 1354.78 L 12617.23 1359.14 L 12600.96 1360.66 L 12584.55 1359.14 L 12570.49 1354.78 L 12561.05 1348.27 L 12557.64 1340.67" stroke="black" stroke-width="4" fill="none" stroke-linecap="round" stroke-linejoin="round"/>
  <path d="M 12458.57 1319.52 L 12461.57 1326.86 L 12470.51 1333.16 L 12478.91 1335.77 L 12484.04 1337.37 L 12500.00 1338.84 L 12515.95 1337.37 L 12529.49 1333.16 L 12538.43 1326.86 L 12541.43 1319.52" stroke="black" stroke-width="4" fill="none" stroke-linecap="round" stroke-linejoin="round"/>
  <path d="M 12505.53 1301.02 L 12500.00 1300.52" stroke="black" stroke-width="4" fill="none" stroke-linecap="round" stroke-linejoin="round"/>
  <path d="M 12529.59 1308.44 L 12516.01 1312.62 L 12500.00 1314.08 L 12483.99 1312.62 L 12470.41 1308.44 L 12461.45 1302.19 L 12458.44 1294.91 L 12461.70 1287.67 L 12470.77 1281.54 L 12484.25 1277.47 L 12500.00 1276.06 L 12515.75 1277.47 L 12529.23 1281.54 L 12538.30 1287.67 L 12541.57 1294.91 L 12538.56 1302.19 L 12529.59 1308.44" stroke="black" stroke-width="4" fill="none" stroke-linecap="round" stroke-linejoin="round"/>
  <path d="M 12363.64 1275.23 L 12366.27 1282.29 L 12374.76 1288.33 L 12387.85 1292.38 L 12403.42 1293.79 L 12419.12 1292.38 L 12432.57 1288.33 L 12441.28 1282.49" stroke="black" stroke-width="4" fill="none" stroke-linecap="round" stroke-linejoin="round"/>
  <path d="M 12441.59 1282.29 L 12444.84 1275.23" stroke="black" stroke-width="4" fill="none" stroke-linecap="round" stroke-linejoin="round"/>
  <path d="M 12432.34 1263.96 L 12418.86 1267.98 L 12403.11 1269.38 L 12387.48 1267.98 L 12374.35 1263.96 L 12365.83 1257.96 L 12363.19 1250.96 L 12366.70 1244.01 L 12375.85 1238.12 L 12389.23 1234.22 L 12404.73 1232.86 L 12420.12 1234.22 L 12433.15 1238.12 L 12441.78 1244.01 L 12444.66 1250.96 L 12441.40 1257.96 L 12432.34 1263.96" stroke="black" stroke-width="4" fill="none" stroke-linecap="round" stroke-linejoin="round"/>
  <path d="M 12559.93 1463.87 L 12563.48 1472.20 L 12573.31 1479.35 L 12582.38 1482.32 L 12587.93 1484.13 L 12605.01 1485.80 L 12621.93 1484.13 L 12636.14 1479.35 L 12645.34 1472.20 L 12648.16 1463.87" stroke="black" stroke-width="4" fill="none" stroke-linecap="round" stroke-linejoin="round"/>
  <path d="M 12636.62 1453.53 L 12622.37 1458.28 L 12605.38 1459.94 L 12588.25 1458.28 L 12573.57 1453.53 L 12563.71 1446.44 L 12560.14 1438.17 L 12563.26 1429.96 L 12572.61 1423.01 L 12586.76 1418.40 L 12603.46 1416.80 L 12620.30 1418.40 L 12634.86 1423.01 L 12644.83 1429.96 L 12648.68 1438.17 L 12645.85 1446.44 L 12636.62 1453.53" stroke="black" stroke-width="4" fill="none" stroke-linecap="round" stroke-linejoin="round"/>
  <path d="M 12543.18 1413.72 L 12540.06 1421.70 L 12539.74 1421.93 L 12530.75 1428.54 L 12516.64 1433.12 L 12500.00 1434.72 L 12483.36 1433.12 L 12469.25 1428.54 L 12459.94 1421.70 L 12456.82 1413.72" stroke="black" stroke-width="4" fill="none" stroke-linecap="round" stroke-linejoin="round"/>
  <path d="M 12504.44 1393.51 L 12500.00 1393.09" stroke="black" stroke-width="4" fill="none" stroke-linecap="round" stroke-linejoin="round"/>
  <path d="M 12530.85 1403.10 L 12516.69 1407.65 L 12500.00 1409.23 L 12483.31 1407.65 L 12469.14 1403.10 L 12459.80 1396.31 L 12456.67 1388.39 L 12460.08 1380.52 L 12469.54 1373.86 L 12483.58 1369.44 L 12500.00 1367.91 L 12516.42 1369.44 L 12530.46 1373.86 L 12539.92 1380.52 L 12543.33 1388.39 L 12540.20 1396.31 L 12530.85 1403.10" stroke="black" stroke-width="4" fill="none" stroke-linecap="round" stroke-linejoin="round"/>
  <path d="M 12357.98 1365.64 L 12360.71 1373.29 L 12369.54 1379.85 L 12383.16 1384.25 L 12399.39 1385.78 L 12415.74 1384.25 L 12429.75 1379.85 L 12439.16 1373.29 L 12442.56 1365.64" stroke="black" stroke-width="4" fill="none" stroke-linecap="round" stroke-linejoin="round"/>
  <path d="M 12429.51 1354.78 L 12415.45 1359.14 L 12399.04 1360.66 L 12382.76 1359.14 L 12369.09 1354.78 L 12360.23 1348.27 L 12357.50 1340.67 L 12361.17 1333.13 L 12370.72 1326.74 L 12384.66 1322.51 L 12400.81 1321.04 L 12416.82 1322.51 L 12430.39 1326.74 L 12439.36 1333.13 L 12442.36 1340.67 L 12438.95 1348.27 L 12429.51 1354.78" stroke="black" stroke-width="4" fill="none" stroke-linecap="round" stroke-linejoin="round"/>
  <path d="M 12263.16 1319.52 L 12265.52 1326.86 L 12273.90 1333.16 L 12287.07 1337.37 L 12302.89 1338.84 L 12318.98 1337.37 L 12332.88 1333.16 L 12342.37 1326.86 L 12346.02 1319.52" stroke="black" stroke-width="4" fill="none" stroke-linecap="round" stroke-linejoin="round"/>
  <path d="M 12332.32 1308.44 L 12318.37 1312.62 L 12302.23 1314.08 L 12286.35 1312.62 L 12273.15 1308.44 L 12264.74 1302.19 L 12262.38 1294.91 L 12266.28 1287.67 L 12275.90 1281.54 L 12289.74 1277.47 L 12305.62 1276.06 L 12321.25 1277.47 L 12334.36 1281.54 L 12342.89 1287.67 L 12345.51 1294.91 L 12341.85 1302.19 L 12332.32 1308.44" stroke="black" stroke-width="4" fill="none" stroke-linecap="round" stroke-linejoin="round"/>
</svg>
