<?xml version="1.0" ?>
<svg xmlns="http://www.w3.org/2000/svg" version="1.1" width="720.12px" height="3000px" viewBox="12147.95 0 720.12 3000">
  <polygon points="12408.05,1778.74 12213.20,1885.42 12603.85,2126.40 12798.67,2000.92" fill="#f9c60a" stroke="#f9c60a" stroke-width="0.5" stroke-linecap="round" stroke-linejoin="round"/>
  <polygon points="12360.76,1533.95 12361.22,1557.71 12363.89,1565.82 12363.44,1542.01" fill="#f9c60a" stroke="#f9c60a" stroke-width="0.5" stroke-linecap="round" stroke-linejoin="round"/>
  <polygon points="12440.35,1542.01 12440.55,1565.82 12443.86,1557.71 12443.68,1533.95" fill="#f9c60a" stroke="#f9c60a" stroke-width="0.5" stroke-linecap="round" stroke-linejoin="round"/>
  <polygon points="12431.97,1519.17 12418.71,1514.67 12403.05,1513.11 12387.28,1514.67 12373.65,1519.17 12364.33,1525.95 12360.76,1533.95 12363.44,1542.01 12372.10,1548.92 12385.47,1553.54 12401.37,1555.16 12417.40,1553.54 12431.13,1548.92 12440.35,1542.01 12443.68,1533.95 12440.74,1525.95" fill="#f9c60a" stroke="#f9c60a" stroke-width="0.5" stroke-linecap="round" stroke-linejoin="round"/>
  <polygon points="12363.44,1542.01 12363.89,1565.82 12372.53,1572.77 12372.10,1548.92" fill="#f9c60a" stroke="#f9c60a" stroke-width="0.5" stroke-linecap="round" stroke-linejoin="round"/>
  <polygon points="12431.13,1548.92 12431.36,1572.77 12440.55,1565.82 12440.35,1542.01" fill="#f9c60a" stroke="#f9c60a" stroke-width="0.5" stroke-linecap="round" stroke-linejoin="round"/>
  <polygon points="12417.40,1553.54 12417.68,1577.43 12431.36,1572.77 12431.13,1548.92" fill="#f9c60a" stroke="#f9c60a" stroke-width="0.5" stroke-linecap="round" stroke-linejoin="round"/>
  <polygon points="12372.10,1548.92 12372.53,1572.77 12385.85,1577.43 12385.47,1553.54" fill="#f9c60a" stroke="#f9c60a" stroke-width="0.5" stroke-linecap="round" stroke-linejoin="round"/>
  <polygon points="12401.37,1555.16 12401.70,1579.05 12417.68,1577.43 12417.40,1553.54" fill="#f9c60a" stroke="#f9c60a" stroke-width="0.5" stroke-linecap="round" stroke-linejoin="round"/>
  <polygon points="12385.47,1553.54 12385.85,1577.43 12401.70,1579.05 12401.37,1555.16" fill="#f9c60a" stroke="#f9c60a" stroke-width="0.5" stroke-linecap="round" stroke-linejoin="round"/>
  <polygon points="12601.70,2262.90 12603.85,2126.40 12213.20,1885.42 12218.68,2015.88" fill="#f9c60a" stroke="#f9c60a" stroke-width="0.5" stroke-linecap="round" stroke-linejoin="round"/>
  <polygon points="12406.30,1646.35 12207.51,1749.78 12606.10,1984.01 12804.85,1861.94" fill="#f9c60a" stroke="#f9c60a" stroke-width="0.5" stroke-linecap="round" stroke-linejoin="round"/>
  <polygon points="12539.26,1592.96 12539.12,1617.09 12542.18,1608.64 12542.32,1584.56" fill="#f9c60a" stroke="#f9c60a" stroke-width="0.5" stroke-linecap="round" stroke-linejoin="round"/>
  <polygon points="12457.68,1584.56 12457.82,1608.64 12460.88,1617.09 12460.74,1592.96" fill="#f9c60a" stroke="#f9c60a" stroke-width="0.5" stroke-linecap="round" stroke-linejoin="round"/>
  <polygon points="12338.96,1592.96 12339.51,1617.09 12343.23,1608.64 12342.70,1584.56" fill="#f9c60a" stroke="#f9c60a" stroke-width="0.5" stroke-linecap="round" stroke-linejoin="round"/>
  <polygon points="12258.06,1584.56 12258.88,1608.64 12261.26,1617.09 12260.45,1592.96" fill="#f9c60a" stroke="#f9c60a" stroke-width="0.5" stroke-linecap="round" stroke-linejoin="round"/>
  <polygon points="12516.04,1564.47 12500.00,1562.85 12483.96,1564.47 12470.24,1569.16 12461.01,1576.22 12457.68,1584.56 12460.74,1592.96 12469.87,1600.16 12483.70,1604.98 12500.00,1606.66 12516.30,1604.98 12530.13,1600.16 12539.26,1592.96 12542.32,1584.56 12538.99,1576.22 12529.76,1569.16" fill="#f9c60a" stroke="#f9c60a" stroke-width="0.5" stroke-linecap="round" stroke-linejoin="round"/>
  <polygon points="12282.44,1604.98 12298.61,1606.66 12315.05,1604.98 12329.26,1600.16 12338.96,1592.96 12342.70,1584.56 12340.04,1576.22 12331.37,1569.16 12318.03,1564.47 12302.12,1562.85 12285.95,1564.47 12271.86,1569.16 12262.05,1576.22 12258.06,1584.56 12260.45,1592.96 12269.00,1600.16" fill="#f9c60a" stroke="#f9c60a" stroke-width="0.5" stroke-linecap="round" stroke-linejoin="round"/>
  <polygon points="12260.45,1592.96 12261.26,1617.09 12269.78,1624.33 12269.00,1600.16" fill="#f9c60a" stroke="#f9c60a" stroke-width="0.5" stroke-linecap="round" stroke-linejoin="round"/>
  <polygon points="12329.26,1600.16 12329.84,1624.33 12339.51,1617.09 12338.96,1592.96" fill="#f9c60a" stroke="#f9c60a" stroke-width="0.5" stroke-linecap="round" stroke-linejoin="round"/>
  <polygon points="12530.13,1600.16 12530.03,1624.33 12539.12,1617.09 12539.26,1592.96" fill="#f9c60a" stroke="#f9c60a" stroke-width="0.5" stroke-linecap="round" stroke-linejoin="round"/>
  <polygon points="12460.74,1592.96 12460.88,1617.09 12469.97,1624.33 12469.87,1600.16" fill="#f9c60a" stroke="#f9c60a" stroke-width="0.5" stroke-linecap="round" stroke-linejoin="round"/>
  <polygon points="12516.30,1604.98 12516.25,1629.19 12530.03,1624.33 12530.13,1600.16" fill="#f9c60a" stroke="#f9c60a" stroke-width="0.5" stroke-linecap="round" stroke-linejoin="round"/>
  <polygon points="12269.00,1600.16 12269.78,1624.33 12283.18,1629.19 12282.44,1604.98" fill="#f9c60a" stroke="#f9c60a" stroke-width="0.5" stroke-linecap="round" stroke-linejoin="round"/>
  <polygon points="12315.05,1604.98 12315.67,1629.19 12329.84,1624.33 12329.26,1600.16" fill="#f9c60a" stroke="#f9c60a" stroke-width="0.5" stroke-linecap="round" stroke-linejoin="round"/>
  <polygon points="12469.87,1600.16 12469.97,1624.33 12483.75,1629.19 12483.70,1604.98" fill="#f9c60a" stroke="#f9c60a" stroke-width="0.5" stroke-linecap="round" stroke-linejoin="round"/>
  <polygon points="12282.44,1604.98 12283.18,1629.19 12299.29,1630.88 12298.61,1606.66" fill="#f9c60a" stroke="#f9c60a" stroke-width="0.5" stroke-linecap="round" stroke-linejoin="round"/>
  <polygon points="12500.00,1606.66 12500.00,1630.88 12516.25,1629.19 12516.30,1604.98" fill="#f9c60a" stroke="#f9c60a" stroke-width="0.5" stroke-linecap="round" stroke-linejoin="round"/>
  <polygon points="12298.61,1606.66 12299.29,1630.88 12315.67,1629.19 12315.05,1604.98" fill="#f9c60a" stroke="#f9c60a" stroke-width="0.5" stroke-linecap="round" stroke-linejoin="round"/>
  <polygon points="12483.70,1604.98 12483.75,1629.19 12500.00,1630.88 12500.00,1606.66" fill="#f9c60a" stroke="#f9c60a" stroke-width="0.5" stroke-linecap="round" stroke-linejoin="round"/>
  <polygon points="12603.85,2126.40 12606.10,1984.01 12207.51,1749.78 12213.20,1885.42" fill="#f9c60a" stroke="#f9c60a" stroke-width="0.5" stroke-linecap="round" stroke-linejoin="round"/>
  <polygon points="12798.67,2000.92 12603.85,2126.40 12601.70,2262.90 12792.73,2134.38" fill="#f9c60a" stroke="#f9c60a" stroke-width="0.5" stroke-linecap="round" stroke-linejoin="round"/>
  <polygon points="12404.48,1508.80 12201.58,1608.64 12608.44,1835.32 12811.29,1717.09" fill="#f9c60a" stroke="#f9c60a" stroke-width="0.5" stroke-linecap="round" stroke-linejoin="round"/>
  <polygon points="12354.86,1637.31 12355.36,1661.72 12358.13,1670.53 12357.63,1646.07" fill="#f9c60a" stroke="#f9c60a" stroke-width="0.5" stroke-linecap="round" stroke-linejoin="round"/>
  <polygon points="12642.37,1646.07 12641.88,1670.53 12644.64,1661.72 12645.14,1637.31" fill="#f9c60a" stroke="#f9c60a" stroke-width="0.5" stroke-linecap="round" stroke-linejoin="round"/>
  <polygon points="12558.71,1637.31 12558.51,1661.72 12561.97,1670.53 12562.18,1646.07" fill="#f9c60a" stroke="#f9c60a" stroke-width="0.5" stroke-linecap="round" stroke-linejoin="round"/>
  <polygon points="12437.82,1646.07 12438.03,1670.53 12441.49,1661.72 12441.29,1637.31" fill="#f9c60a" stroke="#f9c60a" stroke-width="0.5" stroke-linecap="round" stroke-linejoin="round"/>
  <polygon points="12438.24,1628.62 12429.10,1621.26 12415.29,1616.37 12398.98,1614.68 12382.54,1616.37 12368.33,1621.26 12358.61,1628.62 12354.86,1637.31 12357.63,1646.07 12366.65,1653.58 12380.57,1658.61 12397.15,1660.36 12413.87,1658.61 12428.20,1653.58 12437.82,1646.07 12441.29,1637.31" fill="#f9c60a" stroke="#f9c60a" stroke-width="0.5" stroke-linecap="round" stroke-linejoin="round"/>
  <polygon points="12586.13,1658.61 12602.85,1660.36 12619.43,1658.61 12633.35,1653.58 12642.37,1646.07 12645.14,1637.31 12641.39,1628.62 12631.67,1621.26 12617.46,1616.37 12601.02,1614.68 12584.71,1616.37 12570.90,1621.26 12561.76,1628.62 12558.71,1637.31 12562.18,1646.07 12571.80,1653.58" fill="#f9c60a" stroke="#f9c60a" stroke-width="0.5" stroke-linecap="round" stroke-linejoin="round"/>
  <polygon points="12633.35,1653.58 12632.89,1678.09 12641.88,1670.53 12642.37,1646.07" fill="#f9c60a" stroke="#f9c60a" stroke-width="0.5" stroke-linecap="round" stroke-linejoin="round"/>
  <polygon points="12357.63,1646.07 12358.13,1670.53 12367.11,1678.09 12366.65,1653.58" fill="#f9c60a" stroke="#f9c60a" stroke-width="0.5" stroke-linecap="round" stroke-linejoin="round"/>
  <polygon points="12562.18,1646.07 12561.97,1670.53 12571.55,1678.09 12571.80,1653.58" fill="#f9c60a" stroke="#f9c60a" stroke-width="0.5" stroke-linecap="round" stroke-linejoin="round"/>
  <polygon points="12428.20,1653.58 12428.45,1678.09 12438.03,1670.53 12437.82,1646.07" fill="#f9c60a" stroke="#f9c60a" stroke-width="0.5" stroke-linecap="round" stroke-linejoin="round"/>
  <polygon points="12619.43,1658.61 12619.01,1683.15 12632.89,1678.09 12633.35,1653.58" fill="#f9c60a" stroke="#f9c60a" stroke-width="0.5" stroke-linecap="round" stroke-linejoin="round"/>
  <polygon points="12571.80,1653.58 12571.55,1678.09 12585.83,1683.15 12586.13,1658.61" fill="#f9c60a" stroke="#f9c60a" stroke-width="0.5" stroke-linecap="round" stroke-linejoin="round"/>
  <polygon points="12413.87,1658.61 12414.17,1683.15 12428.45,1678.09 12428.20,1653.58" fill="#f9c60a" stroke="#f9c60a" stroke-width="0.5" stroke-linecap="round" stroke-linejoin="round"/>
  <polygon points="12366.65,1653.58 12367.11,1678.09 12380.99,1683.15 12380.57,1658.61" fill="#f9c60a" stroke="#f9c60a" stroke-width="0.5" stroke-linecap="round" stroke-linejoin="round"/>
  <polygon points="12602.85,1660.36 12602.49,1684.91 12619.01,1683.15 12619.43,1658.61" fill="#f9c60a" stroke="#f9c60a" stroke-width="0.5" stroke-linecap="round" stroke-linejoin="round"/>
  <polygon points="12397.15,1660.36 12397.51,1684.91 12414.17,1683.15 12413.87,1658.61" fill="#f9c60a" stroke="#f9c60a" stroke-width="0.5" stroke-linecap="round" stroke-linejoin="round"/>
  <polygon points="12586.13,1658.61 12585.83,1683.15 12602.49,1684.91 12602.85,1660.36" fill="#f9c60a" stroke="#f9c60a" stroke-width="0.5" stroke-linecap="round" stroke-linejoin="round"/>
  <polygon points="12380.57,1658.61 12380.99,1683.15 12397.51,1684.91 12397.15,1660.36" fill="#f9c60a" stroke="#f9c60a" stroke-width="0.5" stroke-linecap="round" stroke-linejoin="round"/>
  <polygon points="12606.10,1984.01 12608.44,1835.32 12201.58,1608.64 12207.51,1749.78" fill="#f9c60a" stroke="#f9c60a" stroke-width="0.5" stroke-linecap="round" stroke-linejoin="round"/>
  <polygon points="12804.85,1861.94 12606.10,1984.01 12603.85,2126.40 12798.67,2000.92" fill="#f9c60a" stroke="#f9c60a" stroke-width="0.5" stroke-linecap="round" stroke-linejoin="round"/>
  <polygon points="12749.96,1701.49 12749.07,1726.29 12751.52,1717.09 12752.41,1692.35" fill="#f9c60a" stroke="#f9c60a" stroke-width="0.5" stroke-linecap="round" stroke-linejoin="round"/>
  <polygon points="12664.11,1692.35 12663.53,1717.09 12667.44,1726.29 12668.03,1701.49" fill="#f9c60a" stroke="#f9c60a" stroke-width="0.5" stroke-linecap="round" stroke-linejoin="round"/>
  <polygon points="12540.96,1701.49 12540.82,1726.29 12544.00,1717.09 12544.15,1692.35" fill="#f9c60a" stroke="#f9c60a" stroke-width="0.5" stroke-linecap="round" stroke-linejoin="round"/>
  <polygon points="12455.85,1692.35 12456.00,1717.09 12459.18,1726.29 12459.04,1701.49" fill="#f9c60a" stroke="#f9c60a" stroke-width="0.5" stroke-linecap="round" stroke-linejoin="round"/>
  <polygon points="12710.19,1716.41 12727.06,1714.58 12741.07,1709.33 12749.96,1701.49 12752.41,1692.35 12748.21,1683.27 12737.96,1675.59 12723.24,1670.50 12706.37,1668.73 12689.78,1670.50 12675.88,1675.59 12666.86,1683.27 12664.11,1692.35 12668.03,1701.49 12678.18,1709.33 12693.03,1714.58" fill="#f9c60a" stroke="#f9c60a" stroke-width="0.5" stroke-linecap="round" stroke-linejoin="round"/>
  <polygon points="12459.04,1701.49 12468.56,1709.33 12482.99,1714.58 12500.00,1716.41 12517.01,1714.58 12531.44,1709.33 12540.96,1701.49 12544.15,1692.35 12540.68,1683.27 12531.04,1675.59 12516.73,1670.50 12500.00,1668.73 12483.27,1670.50 12468.96,1675.59 12459.32,1683.27 12455.85,1692.35" fill="#f9c60a" stroke="#f9c60a" stroke-width="0.5" stroke-linecap="round" stroke-linejoin="round"/>
  <polygon points="12741.07,1709.33 12740.21,1734.17 12749.07,1726.29 12749.96,1701.49" fill="#f9c60a" stroke="#f9c60a" stroke-width="0.5" stroke-linecap="round" stroke-linejoin="round"/>
  <polygon points="12668.03,1701.49 12667.44,1726.29 12677.55,1734.17 12678.18,1709.33" fill="#f9c60a" stroke="#f9c60a" stroke-width="0.5" stroke-linecap="round" stroke-linejoin="round"/>
  <polygon points="12531.44,1709.33 12531.33,1734.17 12540.82,1726.29 12540.96,1701.49" fill="#f9c60a" stroke="#f9c60a" stroke-width="0.5" stroke-linecap="round" stroke-linejoin="round"/>
  <polygon points="12459.04,1701.49 12459.18,1726.29 12468.67,1734.17 12468.56,1709.33" fill="#f9c60a" stroke="#f9c60a" stroke-width="0.5" stroke-linecap="round" stroke-linejoin="round"/>
  <polygon points="12678.18,1709.33 12677.55,1734.17 12692.34,1739.45 12693.03,1714.58" fill="#f9c60a" stroke="#f9c60a" stroke-width="0.5" stroke-linecap="round" stroke-linejoin="round"/>
  <polygon points="12727.06,1714.58 12726.25,1739.45 12740.21,1734.17 12741.07,1709.33" fill="#f9c60a" stroke="#f9c60a" stroke-width="0.5" stroke-linecap="round" stroke-linejoin="round"/>
  <polygon points="12468.56,1709.33 12468.67,1734.17 12483.05,1739.45 12482.99,1714.58" fill="#f9c60a" stroke="#f9c60a" stroke-width="0.5" stroke-linecap="round" stroke-linejoin="round"/>
  <polygon points="12517.01,1714.58 12516.95,1739.45 12531.33,1734.17 12531.44,1709.33" fill="#f9c60a" stroke="#f9c60a" stroke-width="0.5" stroke-linecap="round" stroke-linejoin="round"/>
  <polygon points="12482.99,1714.58 12483.05,1739.45 12500.00,1741.30 12500.00,1716.41" fill="#f9c60a" stroke="#f9c60a" stroke-width="0.5" stroke-linecap="round" stroke-linejoin="round"/>
  <polygon points="12710.19,1716.41 12709.44,1741.30 12726.25,1739.45 12727.06,1714.58" fill="#f9c60a" stroke="#f9c60a" stroke-width="0.5" stroke-linecap="round" stroke-linejoin="round"/>
  <polygon points="12693.03,1714.58 12692.34,1739.45 12709.44,1741.30 12710.19,1716.41" fill="#f9c60a" stroke="#f9c60a" stroke-width="0.5" stroke-linecap="round" stroke-linejoin="round"/>
  <polygon points="12500.00,1716.41 12500.00,1741.30 12516.95,1739.45 12517.01,1714.58" fill="#f9c60a" stroke="#f9c60a" stroke-width="0.5" stroke-linecap="round" stroke-linejoin="round"/>
  <polygon points="12811.29,1717.09 12608.44,1835.32 12606.10,1984.01 12804.85,1861.94" fill="#f9c60a" stroke="#f9c60a" stroke-width="0.5" stroke-linecap="round" stroke-linejoin="round"/>
  <polygon points="12648.69,1759.37 12648.15,1784.51 12651.02,1774.90 12651.56,1749.82" fill="#f9c60a" stroke="#f9c60a" stroke-width="0.5" stroke-linecap="round" stroke-linejoin="round"/>
  <polygon points="12561.31,1749.82 12561.09,1774.90 12564.71,1784.51 12564.95,1759.37" fill="#f9c60a" stroke="#f9c60a" stroke-width="0.5" stroke-linecap="round" stroke-linejoin="round"/>
  <polygon points="12622.61,1726.99 12605.45,1725.15 12588.42,1726.99 12574.01,1732.32 12564.48,1740.34 12561.31,1749.82 12564.95,1759.37 12575.00,1767.56 12589.97,1773.05 12607.44,1774.97 12624.76,1773.05 12639.29,1767.56 12648.69,1759.37 12651.56,1749.82 12647.63,1740.34 12637.45,1732.32" fill="#f9c60a" stroke="#f9c60a" stroke-width="0.5" stroke-linecap="round" stroke-linejoin="round"/>
  <polygon points="12639.29,1767.56 12638.78,1792.75 12648.15,1784.51 12648.69,1759.37" fill="#f9c60a" stroke="#f9c60a" stroke-width="0.5" stroke-linecap="round" stroke-linejoin="round"/>
  <polygon points="12564.95,1759.37 12564.71,1784.51 12574.73,1792.75 12575.00,1767.56" fill="#f9c60a" stroke="#f9c60a" stroke-width="0.5" stroke-linecap="round" stroke-linejoin="round"/>
  <polygon points="12624.76,1773.05 12624.31,1798.27 12638.78,1792.75 12639.29,1767.56" fill="#f9c60a" stroke="#f9c60a" stroke-width="0.5" stroke-linecap="round" stroke-linejoin="round"/>
  <polygon points="12575.00,1767.56 12574.73,1792.75 12589.65,1798.27 12589.97,1773.05" fill="#f9c60a" stroke="#f9c60a" stroke-width="0.5" stroke-linecap="round" stroke-linejoin="round"/>
  <polygon points="12589.97,1773.05 12589.65,1798.27 12607.05,1800.19 12607.44,1774.97" fill="#f9c60a" stroke="#f9c60a" stroke-width="0.5" stroke-linecap="round" stroke-linejoin="round"/>
  <polygon points="12607.44,1774.97 12607.05,1800.19 12624.31,1798.27 12624.76,1773.05" fill="#f9c60a" stroke="#f9c60a" stroke-width="0.5" stroke-linecap="round" stroke-linejoin="round"/>
  <polygon points="12345.36,739.71 12345.93,769.00 12348.84,775.13 12348.28,745.75" fill="#f9c60a" stroke="#f9c60a" stroke-width="0.5" stroke-linecap="round" stroke-linejoin="round"/>
  <polygon points="12433.73,745.75 12433.98,775.13 12437.68,769.00 12437.45,739.71" fill="#f9c60a" stroke="#f9c60a" stroke-width="0.5" stroke-linecap="round" stroke-linejoin="round"/>
  <polygon points="12374.92,725.28 12359.78,728.64 12349.39,733.71 12345.36,739.71 12348.28,745.75 12357.87,750.93 12372.69,754.40 12390.36,755.61 12408.19,754.40 12423.47,750.93 12433.73,745.75 12437.45,739.71 12434.22,733.71 12424.50,728.64 12409.80,725.28 12392.44,724.11" fill="#f9c60a" stroke="#f9c60a" stroke-width="0.5" stroke-linecap="round" stroke-linejoin="round"/>
  <polygon points="12423.47,750.93 12423.75,780.38 12433.98,775.13 12433.73,745.75" fill="#f9c60a" stroke="#f9c60a" stroke-width="0.5" stroke-linecap="round" stroke-linejoin="round"/>
  <polygon points="12348.28,745.75 12348.84,775.13 12358.39,780.38 12357.87,750.93" fill="#f9c60a" stroke="#f9c60a" stroke-width="0.5" stroke-linecap="round" stroke-linejoin="round"/>
  <polygon points="12357.87,750.93 12358.39,780.38 12373.16,783.90 12372.69,754.40" fill="#f9c60a" stroke="#f9c60a" stroke-width="0.5" stroke-linecap="round" stroke-linejoin="round"/>
  <polygon points="12408.19,754.40 12408.53,783.90 12423.75,780.38 12423.47,750.93" fill="#f9c60a" stroke="#f9c60a" stroke-width="0.5" stroke-linecap="round" stroke-linejoin="round"/>
  <polygon points="12372.69,754.40 12373.16,783.90 12390.76,785.12 12390.36,755.61" fill="#f9c60a" stroke="#f9c60a" stroke-width="0.5" stroke-linecap="round" stroke-linejoin="round"/>
  <polygon points="12390.36,755.61 12390.76,785.12 12408.53,783.90 12408.19,754.40" fill="#f9c60a" stroke="#f9c60a" stroke-width="0.5" stroke-linecap="round" stroke-linejoin="round"/>
  <polygon points="12396.42,900.61 12175.27,981.88 12618.95,1168.54 12840.03,1070.81" fill="#f9c60a" stroke="#f9c60a" stroke-width="0.5" stroke-linecap="round" stroke-linejoin="round"/>
  <polygon points="12320.68,784.02 12321.35,813.94 12325.56,807.53 12324.90,777.70" fill="#f9c60a" stroke="#f9c60a" stroke-width="0.5" stroke-linecap="round" stroke-linejoin="round"/>
  <polygon points="12543.72,784.02 12543.55,813.94 12546.93,807.53 12547.11,777.70" fill="#f9c60a" stroke="#f9c60a" stroke-width="0.5" stroke-linecap="round" stroke-linejoin="round"/>
  <polygon points="12452.89,777.70 12453.07,807.53 12456.45,813.94 12456.29,784.02" fill="#f9c60a" stroke="#f9c60a" stroke-width="0.5" stroke-linecap="round" stroke-linejoin="round"/>
  <polygon points="12230.69,777.70 12231.70,807.53 12234.25,813.94 12233.25,784.02" fill="#f9c60a" stroke="#f9c60a" stroke-width="0.5" stroke-linecap="round" stroke-linejoin="round"/>
  <polygon points="12500.00,794.35 12518.16,793.08 12533.56,789.45 12543.72,784.02 12547.11,777.70 12543.39,771.43 12533.10,766.12 12517.84,762.60 12500.00,761.38 12482.16,762.60 12466.90,766.12 12456.61,771.43 12452.89,777.70 12456.29,784.02 12466.44,789.45 12481.84,793.08" fill="#f9c60a" stroke="#f9c60a" stroke-width="0.5" stroke-linecap="round" stroke-linejoin="round"/>
  <polygon points="12230.69,777.70 12233.25,784.02 12242.68,789.45 12257.61,793.08 12275.60,794.35 12293.93,793.08 12309.81,789.45 12320.68,784.02 12324.90,777.70 12322.02,771.43 12312.43,766.12 12297.63,762.60 12279.95,761.38 12261.95,762.60 12246.23,766.12 12235.24,771.43" fill="#f9c60a" stroke="#f9c60a" stroke-width="0.5" stroke-linecap="round" stroke-linejoin="round"/>
  <polygon points="12233.25,784.02 12234.25,813.94 12243.66,819.43 12242.68,789.45" fill="#f9c60a" stroke="#f9c60a" stroke-width="0.5" stroke-linecap="round" stroke-linejoin="round"/>
  <polygon points="12309.81,789.45 12310.53,819.43 12321.35,813.94 12320.68,784.02" fill="#f9c60a" stroke="#f9c60a" stroke-width="0.5" stroke-linecap="round" stroke-linejoin="round"/>
  <polygon points="12456.29,784.02 12456.45,813.94 12466.56,819.43 12466.44,789.45" fill="#f9c60a" stroke="#f9c60a" stroke-width="0.5" stroke-linecap="round" stroke-linejoin="round"/>
  <polygon points="12533.56,789.45 12533.44,819.43 12543.55,813.94 12543.72,784.02" fill="#f9c60a" stroke="#f9c60a" stroke-width="0.5" stroke-linecap="round" stroke-linejoin="round"/>
  <polygon points="12466.44,789.45 12466.56,819.43 12481.91,823.12 12481.84,793.08" fill="#f9c60a" stroke="#f9c60a" stroke-width="0.5" stroke-linecap="round" stroke-linejoin="round"/>
  <polygon points="12242.68,789.45 12243.66,819.43 12258.52,823.12 12257.61,793.08" fill="#f9c60a" stroke="#f9c60a" stroke-width="0.5" stroke-linecap="round" stroke-linejoin="round"/>
  <polygon points="12518.16,793.08 12518.09,823.12 12533.44,819.43 12533.56,789.45" fill="#f9c60a" stroke="#f9c60a" stroke-width="0.5" stroke-linecap="round" stroke-linejoin="round"/>
  <polygon points="12293.93,793.08 12294.71,823.12 12310.53,819.43 12309.81,789.45" fill="#f9c60a" stroke="#f9c60a" stroke-width="0.5" stroke-linecap="round" stroke-linejoin="round"/>
  <polygon points="12257.61,793.08 12258.52,823.12 12276.45,824.40 12275.60,794.35" fill="#f9c60a" stroke="#f9c60a" stroke-width="0.5" stroke-linecap="round" stroke-linejoin="round"/>
  <polygon points="12275.60,794.35 12276.45,824.40 12294.71,823.12 12293.93,793.08" fill="#f9c60a" stroke="#f9c60a" stroke-width="0.5" stroke-linecap="round" stroke-linejoin="round"/>
  <polygon points="12500.00,794.35 12500.00,824.40 12518.09,823.12 12518.16,793.08" fill="#f9c60a" stroke="#f9c60a" stroke-width="0.5" stroke-linecap="round" stroke-linejoin="round"/>
  <polygon points="12481.84,793.08 12481.91,823.12 12500.00,824.40 12500.00,794.35" fill="#f9c60a" stroke="#f9c60a" stroke-width="0.5" stroke-linecap="round" stroke-linejoin="round"/>
  <polygon points="12616.14,1347.06 12618.95,1168.54 12175.27,981.88 12182.27,1148.71" fill="#f9c60a" stroke="#f9c60a" stroke-width="0.5" stroke-linecap="round" stroke-linejoin="round"/>
  <polygon points="12394.18,732.17 12167.95,807.53 12621.90,981.15 12848.07,890.15" fill="#f9c60a" stroke="#f9c60a" stroke-width="0.5" stroke-linecap="round" stroke-linejoin="round"/>
  <polygon points="12338.05,817.49 12338.67,847.87 12341.70,854.58 12341.08,824.12" fill="#f9c60a" stroke="#f9c60a" stroke-width="0.5" stroke-linecap="round" stroke-linejoin="round"/>
  <polygon points="12430.59,824.12 12430.86,854.58 12434.74,847.87 12434.49,817.49" fill="#f9c60a" stroke="#f9c60a" stroke-width="0.5" stroke-linecap="round" stroke-linejoin="round"/>
  <polygon points="12565.51,817.49 12565.26,847.87 12569.14,854.58 12569.41,824.12" fill="#f9c60a" stroke="#f9c60a" stroke-width="0.5" stroke-linecap="round" stroke-linejoin="round"/>
  <polygon points="12658.92,824.12 12658.30,854.58 12661.33,847.87 12661.95,817.49" fill="#f9c60a" stroke="#f9c60a" stroke-width="0.5" stroke-linecap="round" stroke-linejoin="round"/>
  <polygon points="12580.18,829.80 12596.19,833.61 12614.88,834.94 12633.39,833.61 12648.90,829.80 12658.92,824.12 12661.95,817.49 12657.70,810.92 12646.80,805.36 12630.94,801.67 12612.60,800.39 12594.43,801.67 12579.05,805.36 12568.88,810.92 12565.51,817.49 12569.41,824.12" fill="#f9c60a" stroke="#f9c60a" stroke-width="0.5" stroke-linecap="round" stroke-linejoin="round"/>
  <polygon points="12351.10,829.80 12366.61,833.61 12385.12,834.94 12403.81,833.61 12419.82,829.80 12430.59,824.12 12434.49,817.49 12431.12,810.92 12420.95,805.36 12405.57,801.67 12387.40,800.39 12369.06,801.67 12353.20,805.36 12342.30,810.92 12338.05,817.49 12341.08,824.12" fill="#f9c60a" stroke="#f9c60a" stroke-width="0.5" stroke-linecap="round" stroke-linejoin="round"/>
  <polygon points="12569.41,824.12 12569.14,854.58 12579.87,860.34 12580.18,829.80" fill="#f9c60a" stroke="#f9c60a" stroke-width="0.5" stroke-linecap="round" stroke-linejoin="round"/>
  <polygon points="12341.08,824.12 12341.70,854.58 12351.68,860.34 12351.10,829.80" fill="#f9c60a" stroke="#f9c60a" stroke-width="0.5" stroke-linecap="round" stroke-linejoin="round"/>
  <polygon points="12419.82,829.80 12420.13,860.34 12430.86,854.58 12430.59,824.12" fill="#f9c60a" stroke="#f9c60a" stroke-width="0.5" stroke-linecap="round" stroke-linejoin="round"/>
  <polygon points="12648.90,829.80 12648.32,860.34 12658.30,854.58 12658.92,824.12" fill="#f9c60a" stroke="#f9c60a" stroke-width="0.5" stroke-linecap="round" stroke-linejoin="round"/>
  <polygon points="12633.39,833.61 12632.87,864.20 12648.32,860.34 12648.90,829.80" fill="#f9c60a" stroke="#f9c60a" stroke-width="0.5" stroke-linecap="round" stroke-linejoin="round"/>
  <polygon points="12351.10,829.80 12351.68,860.34 12367.13,864.20 12366.61,833.61" fill="#f9c60a" stroke="#f9c60a" stroke-width="0.5" stroke-linecap="round" stroke-linejoin="round"/>
  <polygon points="12580.18,829.80 12579.87,860.34 12595.82,864.20 12596.19,833.61" fill="#f9c60a" stroke="#f9c60a" stroke-width="0.5" stroke-linecap="round" stroke-linejoin="round"/>
  <polygon points="12403.81,833.61 12404.18,864.20 12420.13,860.34 12419.82,829.80" fill="#f9c60a" stroke="#f9c60a" stroke-width="0.5" stroke-linecap="round" stroke-linejoin="round"/>
  <polygon points="12385.12,834.94 12385.57,865.55 12404.18,864.20 12403.81,833.61" fill="#f9c60a" stroke="#f9c60a" stroke-width="0.5" stroke-linecap="round" stroke-linejoin="round"/>
  <polygon points="12614.88,834.94 12614.43,865.55 12632.87,864.20 12633.39,833.61" fill="#f9c60a" stroke="#f9c60a" stroke-width="0.5" stroke-linecap="round" stroke-linejoin="round"/>
  <polygon points="12366.61,833.61 12367.13,864.20 12385.57,865.55 12385.12,834.94" fill="#f9c60a" stroke="#f9c60a" stroke-width="0.5" stroke-linecap="round" stroke-linejoin="round"/>
  <polygon points="12596.19,833.61 12595.82,864.20 12614.43,865.55 12614.88,834.94" fill="#f9c60a" stroke="#f9c60a" stroke-width="0.5" stroke-linecap="round" stroke-linejoin="round"/>
  <polygon points="12618.95,1168.54 12621.90,981.15 12167.95,807.53 12175.27,981.88" fill="#f9c60a" stroke="#f9c60a" stroke-width="0.5" stroke-linecap="round" stroke-linejoin="round"/>
  <polygon points="12840.03,1070.81 12618.95,1168.54 12616.14,1347.06 12832.36,1243.32" fill="#f9c60a" stroke="#f9c60a" stroke-width="0.5" stroke-linecap="round" stroke-linejoin="round"/>
  <polygon points="12779.72,866.16 12778.61,897.20 12781.24,890.15 12782.35,859.21" fill="#f9c60a" stroke="#f9c60a" stroke-width="0.5" stroke-linecap="round" stroke-linejoin="round"/>
  <polygon points="12545.84,866.16 12545.66,897.20 12549.19,890.15 12549.39,859.21" fill="#f9c60a" stroke="#f9c60a" stroke-width="0.5" stroke-linecap="round" stroke-linejoin="round"/>
  <polygon points="12450.61,859.21 12450.81,890.15 12454.34,897.20 12454.16,866.16" fill="#f9c60a" stroke="#f9c60a" stroke-width="0.5" stroke-linecap="round" stroke-linejoin="round"/>
  <polygon points="12683.57,859.21 12682.85,890.15 12687.30,897.20 12688.04,866.16" fill="#f9c60a" stroke="#f9c60a" stroke-width="0.5" stroke-linecap="round" stroke-linejoin="round"/>
  <polygon points="12464.80,872.12 12480.95,876.12 12500.00,877.51 12519.05,876.12 12535.20,872.12 12545.84,866.16 12549.39,859.21 12545.48,852.32 12534.69,846.48 12518.69,842.62 12500.00,841.28 12481.31,842.62 12465.31,846.48 12454.52,852.32 12450.61,859.21 12454.16,866.16" fill="#f9c60a" stroke="#f9c60a" stroke-width="0.5" stroke-linecap="round" stroke-linejoin="round"/>
  <polygon points="12699.47,872.12 12716.14,876.12 12735.38,877.51 12754.25,876.12 12769.87,872.12 12779.72,866.16 12782.35,859.21 12777.53,852.32 12765.97,846.48 12749.46,842.62 12730.59,841.28 12712.08,842.62 12696.59,846.48 12686.57,852.32 12683.57,859.21 12688.04,866.16" fill="#f9c60a" stroke="#f9c60a" stroke-width="0.5" stroke-linecap="round" stroke-linejoin="round"/>
  <polygon points="12535.20,872.12 12535.06,903.24 12545.66,897.20 12545.84,866.16" fill="#f9c60a" stroke="#f9c60a" stroke-width="0.5" stroke-linecap="round" stroke-linejoin="round"/>
  <polygon points="12769.87,872.12 12768.80,903.24 12778.61,897.20 12779.72,866.16" fill="#f9c60a" stroke="#f9c60a" stroke-width="0.5" stroke-linecap="round" stroke-linejoin="round"/>
  <polygon points="12688.04,866.16 12687.30,897.20 12698.68,903.24 12699.47,872.12" fill="#f9c60a" stroke="#f9c60a" stroke-width="0.5" stroke-linecap="round" stroke-linejoin="round"/>
  <polygon points="12454.16,866.16 12454.34,897.20 12464.94,903.24 12464.80,872.12" fill="#f9c60a" stroke="#f9c60a" stroke-width="0.5" stroke-linecap="round" stroke-linejoin="round"/>
  <polygon points="12754.25,876.12 12753.23,907.29 12768.80,903.24 12769.87,872.12" fill="#f9c60a" stroke="#f9c60a" stroke-width="0.5" stroke-linecap="round" stroke-linejoin="round"/>
  <polygon points="12519.05,876.12 12518.98,907.29 12535.06,903.24 12535.20,872.12" fill="#f9c60a" stroke="#f9c60a" stroke-width="0.5" stroke-linecap="round" stroke-linejoin="round"/>
  <polygon points="12464.80,872.12 12464.94,903.24 12481.02,907.29 12480.95,876.12" fill="#f9c60a" stroke="#f9c60a" stroke-width="0.5" stroke-linecap="round" stroke-linejoin="round"/>
  <polygon points="12699.47,872.12 12698.68,903.24 12715.28,907.29 12716.14,876.12" fill="#f9c60a" stroke="#f9c60a" stroke-width="0.5" stroke-linecap="round" stroke-linejoin="round"/>
  <polygon points="12500.00,877.51 12500.00,908.70 12518.98,907.29 12519.05,876.12" fill="#f9c60a" stroke="#f9c60a" stroke-width="0.5" stroke-linecap="round" stroke-linejoin="round"/>
  <polygon points="12716.14,876.12 12715.28,907.29 12734.44,908.70 12735.38,877.51" fill="#f9c60a" stroke="#f9c60a" stroke-width="0.5" stroke-linecap="round" stroke-linejoin="round"/>
  <polygon points="12480.95,876.12 12481.02,907.29 12500.00,908.70 12500.00,877.51" fill="#f9c60a" stroke="#f9c60a" stroke-width="0.5" stroke-linecap="round" stroke-linejoin="round"/>
  <polygon points="12735.38,877.51 12734.44,908.70 12753.23,907.29 12754.25,876.12" fill="#f9c60a" stroke="#f9c60a" stroke-width="0.5" stroke-linecap="round" stroke-linejoin="round"/>
  <polygon points="12848.07,890.15 12621.90,981.15 12618.95,1168.54 12840.03,1070.81" fill="#f9c60a" stroke="#f9c60a" stroke-width="0.5" stroke-linecap="round" stroke-linejoin="round"/>
  <polygon points="12666.83,910.30 12666.16,941.92 12669.30,934.53 12669.98,903.00" fill="#f9c60a" stroke="#f9c60a" stroke-width="0.5" stroke-linecap="round" stroke-linejoin="round"/>
  <polygon points="12568.76,903.00 12568.48,934.53 12572.57,941.92 12572.87,910.30" fill="#f9c60a" stroke="#f9c60a" stroke-width="0.5" stroke-linecap="round" stroke-linejoin="round"/>
  <polygon points="12640.07,920.76 12656.35,916.56 12666.83,910.30 12669.98,903.00 12665.50,895.76 12654.04,889.63 12637.37,885.58 12618.13,884.17 12599.07,885.58 12582.94,889.63 12572.29,895.76 12568.76,903.00 12572.87,910.30 12584.19,916.56 12601.01,920.76 12620.64,922.23" fill="#f9c60a" stroke="#f9c60a" stroke-width="0.5" stroke-linecap="round" stroke-linejoin="round"/>
  <polygon points="12656.35,916.56 12655.71,948.27 12666.16,941.92 12666.83,910.30" fill="#f9c60a" stroke="#f9c60a" stroke-width="0.5" stroke-linecap="round" stroke-linejoin="round"/>
  <polygon points="12572.87,910.30 12572.57,941.92 12583.84,948.27 12584.19,916.56" fill="#f9c60a" stroke="#f9c60a" stroke-width="0.5" stroke-linecap="round" stroke-linejoin="round"/>
  <polygon points="12640.07,920.76 12639.50,952.53 12655.71,948.27 12656.35,916.56" fill="#f9c60a" stroke="#f9c60a" stroke-width="0.5" stroke-linecap="round" stroke-linejoin="round"/>
  <polygon points="12584.19,916.56 12583.84,948.27 12600.60,952.53 12601.01,920.76" fill="#f9c60a" stroke="#f9c60a" stroke-width="0.5" stroke-linecap="round" stroke-linejoin="round"/>
  <polygon points="12620.64,922.23 12620.15,954.01 12639.50,952.53 12640.07,920.76" fill="#f9c60a" stroke="#f9c60a" stroke-width="0.5" stroke-linecap="round" stroke-linejoin="round"/>
  <polygon points="12601.01,920.76 12600.60,952.53 12620.15,954.01 12620.64,922.23" fill="#f9c60a" stroke="#f9c60a" stroke-width="0.5" stroke-linecap="round" stroke-linejoin="round"/>
  <path d="M 12218.68 2015.88 L 12601.70 2262.90 L 12792.73 2134.38 L 12798.67 2000.92 L 12603.85 2126.40 L 12601.70 2262.90 L 12792.73 2134.38 L 12798.67 2000.92 L 12603.85 2126.40 L 12213.20 1885.42 L 12218.68 2015.88 L 12601.70 2262.90 L 12603.85 2126.40 L 12213.20 1885.42 L 12218.68 2015.88" stroke="black" stroke-width="4" fill="none" stroke-linecap="round" stroke-linejoin="round"/>
  <path d="M 12213.20 1885.42 L 12603.85 2126.40 L 12798.67 2000.92 L 12804.85 1861.94 L 12606.10 1984.01 L 12603.85 2126.40 L 12798.67 2000.92 L 12804.85 1861.94 L 12606.10 1984.01 L 12207.51 1749.78 L 12213.20 1885.42 L 12603.85 2126.40 L 12606.10 1984.01 L 12207.51 1749.78 L 12213.20 1885.42" stroke="black" stroke-width="4" fill="none" stroke-linecap="round" stroke-linejoin="round"/>
  <path d="M 12207.51 1749.78 L 12606.10 1984.01 L 12804.85 1861.94 L 12811.29 1717.09 L 12608.44 1835.32 L 12606.10 1984.01 L 12804.85 1861.94 L 12811.29 1717.09 L 12749.13 1685.27 L 12811.29 1717.09 L 12608.44 1835.32 L 12201.58 1608.64 L 12260.38 1579.71 L 12201.58 1608.64 L 12207.51 1749.78 L 12606.10 1984.01 L 12608.44 1835.32 L 12201.58 1608.64 L 12207.51 1749.78" stroke="black" stroke-width="4" fill="none" stroke-linecap="round" stroke-linejoin="round"/>
  <path d="M 12719.52 1670.11 L 12642.22 1630.53 L 12719.52 1670.11" stroke="black" stroke-width="4" fill="none" stroke-linecap="round" stroke-linejoin="round"/>
  <path d="M 12613.84 1616.00 L 12539.72 1578.05 L 12613.84 1616.00" stroke="black" stroke-width="4" fill="none" stroke-linecap="round" stroke-linejoin="round"/>
  <path d="M 12512.51 1564.12 L 12441.39 1527.70 L 12512.51 1564.12" stroke="black" stroke-width="4" fill="none" stroke-linecap="round" stroke-linejoin="round"/>
  <path d="M 12415.26 1514.33 L 12404.48 1508.80 L 12393.89 1514.02 L 12404.48 1508.80 L 12415.26 1514.33" stroke="black" stroke-width="4" fill="none" stroke-linecap="round" stroke-linejoin="round"/>
  <path d="M 12362.84 1529.29 L 12292.72 1563.79 L 12362.84 1529.29" stroke="black" stroke-width="4" fill="none" stroke-linecap="round" stroke-linejoin="round"/>
  <path d="M 12749.96 1701.49 L 12752.41 1692.35 L 12748.21 1683.27 L 12737.96 1675.59 L 12723.24 1670.50 L 12706.37 1668.73 L 12689.78 1670.50 L 12675.88 1675.59 L 12666.86 1683.27 L 12664.11 1692.35 L 12668.03 1701.49 L 12678.18 1709.33 L 12693.03 1714.58 L 12710.19 1716.41 L 12727.06 1714.58 L 12741.07 1709.33 L 12749.96 1701.49" stroke="black" stroke-width="4" fill="none" stroke-linecap="round" stroke-linejoin="round"/>
  <path d="M 12664.11 1692.35 L 12663.53 1717.09 L 12667.44 1726.29 L 12677.55 1734.17 L 12692.34 1739.45 L 12709.44 1741.30 L 12726.25 1739.45 L 12740.21 1734.17 L 12749.07 1726.29 L 12751.52 1717.09 L 12752.41 1692.35" stroke="black" stroke-width="4" fill="none" stroke-linecap="round" stroke-linejoin="round"/>
  <path d="M 12710.19 1716.41 L 12727.06 1714.58 L 12741.07 1709.33" stroke="black" stroke-width="4" fill="none" stroke-linecap="round" stroke-linejoin="round"/>
  <path d="M 12737.96 1675.59 L 12723.24 1670.50 L 12706.37 1668.73" stroke="black" stroke-width="4" fill="none" stroke-linecap="round" stroke-linejoin="round"/>
  <path d="M 12675.88 1675.59 L 12666.86 1683.27 L 12664.11 1692.35 L 12668.03 1701.49 L 12678.18 1709.33" stroke="black" stroke-width="4" fill="none" stroke-linecap="round" stroke-linejoin="round"/>
  <path d="M 12642.37 1646.07 L 12645.14 1637.31 L 12641.39 1628.62 L 12631.67 1621.26 L 12617.46 1616.37 L 12601.02 1614.68 L 12584.71 1616.37 L 12570.90 1621.26 L 12561.76 1628.62 L 12558.71 1637.31 L 12562.18 1646.07 L 12571.80 1653.58 L 12586.13 1658.61 L 12602.85 1660.36 L 12619.43 1658.61 L 12633.35 1653.58 L 12642.37 1646.07 L 12633.35 1653.58" stroke="black" stroke-width="4" fill="none" stroke-linecap="round" stroke-linejoin="round"/>
  <path d="M 12558.71 1637.31 L 12558.51 1661.72 L 12561.97 1670.53 L 12571.55 1678.09 L 12585.83 1683.15 L 12602.49 1684.91 L 12619.01 1683.15 L 12632.89 1678.09 L 12641.88 1670.53 L 12644.64 1661.72 L 12645.14 1637.31" stroke="black" stroke-width="4" fill="none" stroke-linecap="round" stroke-linejoin="round"/>
  <path d="M 12641.39 1628.62 L 12631.67 1621.26" stroke="black" stroke-width="4" fill="none" stroke-linecap="round" stroke-linejoin="round"/>
  <path d="M 12617.46 1616.37 L 12601.02 1614.68" stroke="black" stroke-width="4" fill="none" stroke-linecap="round" stroke-linejoin="round"/>
  <path d="M 12584.71 1616.37 L 12570.90 1621.26" stroke="black" stroke-width="4" fill="none" stroke-linecap="round" stroke-linejoin="round"/>
  <path d="M 12561.76 1628.62 L 12558.71 1637.31 L 12562.18 1646.07" stroke="black" stroke-width="4" fill="none" stroke-linecap="round" stroke-linejoin="round"/>
  <path d="M 12571.80 1653.58 L 12586.13 1658.61" stroke="black" stroke-width="4" fill="none" stroke-linecap="round" stroke-linejoin="round"/>
  <path d="M 12602.85 1660.36 L 12619.43 1658.61" stroke="black" stroke-width="4" fill="none" stroke-linecap="round" stroke-linejoin="round"/>
  <path d="M 12539.26 1592.96 L 12542.32 1584.56 L 12538.99 1576.22 L 12529.76 1569.16 L 12516.04 1564.47 L 12500.00 1562.85 L 12483.96 1564.47 L 12470.24 1569.16 L 12461.01 1576.22 L 12457.68 1584.56 L 12460.74 1592.96 L 12469.87 1600.16 L 12483.70 1604.98 L 12500.00 1606.66 L 12516.30 1604.98 L 12530.13 1600.16 L 12539.26 1592.96 L 12530.13 1600.16" stroke="black" stroke-width="4" fill="none" stroke-linecap="round" stroke-linejoin="round"/>
  <path d="M 12457.68 1584.56 L 12457.82 1608.64 L 12460.88 1617.09 L 12469.97 1624.33 L 12483.75 1629.19 L 12500.00 1630.88 L 12516.25 1629.19 L 12530.03 1624.33 L 12539.12 1617.09 L 12542.18 1608.64 L 12542.32 1584.56" stroke="black" stroke-width="4" fill="none" stroke-linecap="round" stroke-linejoin="round"/>
  <path d="M 12501.94 1586.99 L 12500.00 1586.79" stroke="black" stroke-width="4" fill="none" stroke-linecap="round" stroke-linejoin="round"/>
  <path d="M 12538.99 1576.22 L 12529.76 1569.16" stroke="black" stroke-width="4" fill="none" stroke-linecap="round" stroke-linejoin="round"/>
  <path d="M 12516.04 1564.47 L 12500.00 1562.85" stroke="black" stroke-width="4" fill="none" stroke-linecap="round" stroke-linejoin="round"/>
  <path d="M 12483.96 1564.47 L 12470.24 1569.16" stroke="black" stroke-width="4" fill="none" stroke-linecap="round" stroke-linejoin="round"/>
  <path d="M 12461.01 1576.22 L 12457.68 1584.56 L 12460.74 1592.96" stroke="black" stroke-width="4" fill="none" stroke-linecap="round" stroke-linejoin="round"/>
  <path d="M 12469.87 1600.16 L 12483.70 1604.98" stroke="black" stroke-width="4" fill="none" stroke-linecap="round" stroke-linejoin="round"/>
  <path d="M 12500.00 1606.66 L 12516.30 1604.98" stroke="black" stroke-width="4" fill="none" stroke-linecap="round" stroke-linejoin="round"/>
  <path d="M 12440.35 1542.01 L 12443.68 1533.95 L 12440.74 1525.95 L 12431.97 1519.17 L 12418.71 1514.67 L 12403.05 1513.11 L 12387.28 1514.67 L 12373.65 1519.17 L 12364.33 1525.95 L 12360.76 1533.95 L 12363.44 1542.01 L 12372.10 1548.92 L 12385.47 1553.54 L 12401.37 1555.16 L 12417.40 1553.54 L 12431.13 1548.92 L 12440.35 1542.01" stroke="black" stroke-width="4" fill="none" stroke-linecap="round" stroke-linejoin="round"/>
  <path d="M 12360.76 1533.95 L 12361.22 1557.71 L 12363.89 1565.82 L 12372.53 1572.77 L 12385.85 1577.43 L 12401.70 1579.05 L 12417.68 1577.43 L 12431.36 1572.77 L 12440.55 1565.82 L 12443.86 1557.71 L 12443.68 1533.95" stroke="black" stroke-width="4" fill="none" stroke-linecap="round" stroke-linejoin="round"/>
  <path d="M 12401.37 1555.16 L 12417.40 1553.54 L 12431.13 1548.92" stroke="black" stroke-width="4" fill="none" stroke-linecap="round" stroke-linejoin="round"/>
  <path d="M 12431.97 1519.17 L 12418.71 1514.67 L 12403.05 1513.11" stroke="black" stroke-width="4" fill="none" stroke-linecap="round" stroke-linejoin="round"/>
  <path d="M 12373.65 1519.17 L 12364.33 1525.95 L 12360.76 1533.95 L 12363.44 1542.01 L 12372.10 1548.92" stroke="black" stroke-width="4" fill="none" stroke-linecap="round" stroke-linejoin="round"/>
  <path d="M 12648.69 1759.37 L 12651.56 1749.82 L 12647.63 1740.34 L 12637.45 1732.32 L 12622.61 1726.99 L 12605.45 1725.15 L 12588.42 1726.99 L 12574.01 1732.32 L 12564.48 1740.34 L 12561.31 1749.82 L 12564.95 1759.37 L 12575.00 1767.56 L 12589.97 1773.05 L 12607.44 1774.97 L 12624.76 1773.05 L 12639.29 1767.56 L 12648.69 1759.37" stroke="black" stroke-width="4" fill="none" stroke-linecap="round" stroke-linejoin="round"/>
  <path d="M 12561.31 1749.82 L 12561.09 1774.90 L 12564.71 1784.51 L 12574.73 1792.75 L 12589.65 1798.27 L 12607.05 1800.19 L 12624.31 1798.27 L 12638.78 1792.75 L 12648.15 1784.51 L 12651.02 1774.90 L 12651.56 1749.82" stroke="black" stroke-width="4" fill="none" stroke-linecap="round" stroke-linejoin="round"/>
  <path d="M 12607.44 1774.97 L 12624.76 1773.05 L 12639.29 1767.56" stroke="black" stroke-width="4" fill="none" stroke-linecap="round" stroke-linejoin="round"/>
  <path d="M 12637.45 1732.32 L 12622.61 1726.99 L 12605.45 1725.15" stroke="black" stroke-width="4" fill="none" stroke-linecap="round" stroke-linejoin="round"/>
  <path d="M 12574.01 1732.32 L 12564.48 1740.34 L 12561.31 1749.82 L 12564.95 1759.37 L 12575.00 1767.56" stroke="black" stroke-width="4" fill="none" stroke-linecap="round" stroke-linejoin="round"/>
  <path d="M 12540.96 1701.49 L 12544.15 1692.35 L 12540.68 1683.27 L 12531.04 1675.59 L 12516.73 1670.50 L 12500.00 1668.73 L 12483.27 1670.50 L 12468.96 1675.59 L 12459.32 1683.27 L 12455.85 1692.35 L 12459.04 1701.49 L 12468.56 1709.33 L 12482.99 1714.58 L 12500.00 1716.41 L 12517.01 1714.58 L 12531.44 1709.33 L 12540.96 1701.49 L 12531.44 1709.33" stroke="black" stroke-width="4" fill="none" stroke-linecap="round" stroke-linejoin="round"/>
  <path d="M 12455.85 1692.35 L 12456.00 1717.09 L 12459.18 1726.29 L 12468.67 1734.17 L 12483.05 1739.45 L 12500.00 1741.30 L 12516.95 1739.45 L 12531.33 1734.17 L 12540.82 1726.29 L 12544.00 1717.09 L 12544.15 1692.35" stroke="black" stroke-width="4" fill="none" stroke-linecap="round" stroke-linejoin="round"/>
  <path d="M 12500.81 1693.41 L 12500.00 1693.33" stroke="black" stroke-width="4" fill="none" stroke-linecap="round" stroke-linejoin="round"/>
  <path d="M 12540.68 1683.27 L 12531.04 1675.59" stroke="black" stroke-width="4" fill="none" stroke-linecap="round" stroke-linejoin="round"/>
  <path d="M 12516.73 1670.50 L 12500.00 1668.73" stroke="black" stroke-width="4" fill="none" stroke-linecap="round" stroke-linejoin="round"/>
  <path d="M 12483.27 1670.50 L 12468.96 1675.59" stroke="black" stroke-width="4" fill="none" stroke-linecap="round" stroke-linejoin="round"/>
  <path d="M 12459.32 1683.27 L 12455.85 1692.35 L 12459.04 1701.49" stroke="black" stroke-width="4" fill="none" stroke-linecap="round" stroke-linejoin="round"/>
  <path d="M 12468.56 1709.33 L 12482.99 1714.58" stroke="black" stroke-width="4" fill="none" stroke-linecap="round" stroke-linejoin="round"/>
  <path d="M 12500.00 1716.41 L 12517.01 1714.58" stroke="black" stroke-width="4" fill="none" stroke-linecap="round" stroke-linejoin="round"/>
  <path d="M 12437.82 1646.07 L 12441.29 1637.31 L 12438.24 1628.62 L 12429.10 1621.26 L 12415.29 1616.37 L 12398.98 1614.68 L 12382.54 1616.37 L 12368.33 1621.26 L 12358.61 1628.62 L 12354.86 1637.31 L 12357.63 1646.07 L 12366.65 1653.58 L 12380.57 1658.61 L 12397.15 1660.36 L 12413.87 1658.61 L 12428.20 1653.58 L 12437.82 1646.07 L 12428.20 1653.58" stroke="black" stroke-width="4" fill="none" stroke-linecap="round" stroke-linejoin="round"/>
  <path d="M 12354.86 1637.31 L 12355.36 1661.72 L 12358.13 1670.53 L 12367.11 1678.09 L 12380.99 1683.15 L 12397.51 1684.91 L 12414.17 1683.15 L 12428.45 1678.09 L 12438.03 1670.53 L 12441.49 1661.72 L 12441.29 1637.31" stroke="black" stroke-width="4" fill="none" stroke-linecap="round" stroke-linejoin="round"/>
  <path d="M 12438.24 1628.62 L 12429.10 1621.26" stroke="black" stroke-width="4" fill="none" stroke-linecap="round" stroke-linejoin="round"/>
  <path d="M 12415.29 1616.37 L 12398.98 1614.68" stroke="black" stroke-width="4" fill="none" stroke-linecap="round" stroke-linejoin="round"/>
  <path d="M 12382.54 1616.37 L 12368.33 1621.26" stroke="black" stroke-width="4" fill="none" stroke-linecap="round" stroke-linejoin="round"/>
  <path d="M 12358.61 1628.62 L 12354.86 1637.31 L 12357.63 1646.07" stroke="black" stroke-width="4" fill="none" stroke-linecap="round" stroke-linejoin="round"/>
  <path d="M 12366.65 1653.58 L 12380.57 1658.61" stroke="black" stroke-width="4" fill="none" stroke-linecap="round" stroke-linejoin="round"/>
  <path d="M 12397.15 1660.36 L 12413.87 1658.61" stroke="black" stroke-width="4" fill="none" stroke-linecap="round" stroke-linejoin="round"/>
  <path d="M 12338.96 1592.96 L 12342.70 1584.56 L 12340.04 1576.22 L 12331.37 1569.16 L 12318.03 1564.47 L 12302.12 1562.85 L 12285.95 1564.47 L 12271.86 1569.16 L 12262.05 1576.22 L 12258.06 1584.56 L 12260.45 1592.96 L 12269.00 1600.16 L 12282.44 1604.98 L 12298.61 1606.66 L 12315.05 1604.98 L 12329.26 1600.16 L 12338.96 1592.96" stroke="black" stroke-width="4" fill="none" stroke-linecap="round" stroke-linejoin="round"/>
  <path d="M 12258.06 1584.56 L 12258.88 1608.64 L 12261.26 1617.09 L 12269.78 1624.33 L 12283.18 1629.19 L 12299.29 1630.88 L 12315.67 1629.19 L 12329.84 1624.33 L 12339.51 1617.09 L 12343.23 1608.64 L 12342.70 1584.56" stroke="black" stroke-width="4" fill="none" stroke-linecap="round" stroke-linejoin="round"/>
  <path d="M 12298.61 1606.66 L 12315.05 1604.98 L 12329.26 1600.16" stroke="black" stroke-width="4" fill="none" stroke-linecap="round" stroke-linejoin="round"/>
  <path d="M 12331.37 1569.16 L 12318.03 1564.47 L 12302.12 1562.85" stroke="black" stroke-width="4" fill="none" stroke-linecap="round" stroke-linejoin="round"/>
  <path d="M 12271.86 1569.16 L 12262.05 1576.22 L 12258.06 1584.56 L 12260.45 1592.96 L 12269.00 1600.16" stroke="black" stroke-width="4" fill="none" stroke-linecap="round" stroke-linejoin="round"/>
  <path d="M 12182.27 1148.71 L 12616.14 1347.06 L 12832.36 1243.32 L 12840.03 1070.81 L 12618.95 1168.54 L 12616.14 1347.06 L 12832.36 1243.32 L 12840.03 1070.81 L 12618.95 1168.54 L 12175.27 981.88 L 12182.27 1148.71 L 12616.14 1347.06 L 12618.95 1168.54 L 12175.27 981.88 L 12182.27 1148.71" stroke="black" stroke-width="4" fill="none" stroke-linecap="round" stroke-linejoin="round"/>
  <path d="M 12175.27 981.88 L 12618.95 1168.54 L 12840.03 1070.81 L 12848.07 890.15 L 12621.90 981.15 L 12618.95 1168.54 L 12840.03 1070.81 L 12848.07 890.15 L 12782.06 867.18 L 12848.07 890.15 L 12621.90 981.15 L 12167.95 807.53 L 12230.99 786.53 L 12167.95 807.53 L 12175.27 981.88 L 12618.95 1168.54 L 12621.90 981.15 L 12167.95 807.53 L 12175.27 981.88" stroke="black" stroke-width="4" fill="none" stroke-linecap="round" stroke-linejoin="round"/>
  <path d="M 12711.74 842.70 L 12661.79 825.32 L 12711.74 842.70" stroke="black" stroke-width="4" fill="none" stroke-linecap="round" stroke-linejoin="round"/>
  <path d="M 12594.09 801.75 L 12547.06 785.38 L 12594.09 801.75 L 12594.43 801.67 L 12579.05 805.36" stroke="black" stroke-width="4" fill="none" stroke-linecap="round" stroke-linejoin="round"/>
  <path d="M 12481.83 762.68 L 12437.51 747.25 L 12481.83 762.68 L 12482.16 762.60 L 12466.90 766.12" stroke="black" stroke-width="4" fill="none" stroke-linecap="round" stroke-linejoin="round"/>
  <path d="M 12345.53 748.38 L 12300.66 763.32 L 12345.53 748.38" stroke="black" stroke-width="4" fill="none" stroke-linecap="round" stroke-linejoin="round"/>
  <path d="M 12779.72 866.16 L 12782.35 859.21 L 12777.53 852.32 L 12765.97 846.48 L 12749.46 842.62 L 12730.59 841.28 L 12712.08 842.62 L 12696.59 846.48 L 12686.57 852.32 L 12683.57 859.21 L 12688.04 866.16 L 12699.47 872.12 L 12716.14 876.12 L 12735.38 877.51 L 12754.25 876.12 L 12769.87 872.12 L 12779.72 866.16" stroke="black" stroke-width="4" fill="none" stroke-linecap="round" stroke-linejoin="round"/>
  <path d="M 12683.57 859.21 L 12682.85 890.15 L 12687.30 897.20 L 12698.68 903.24 L 12715.28 907.29 L 12734.44 908.70 L 12753.23 907.29 L 12768.80 903.24 L 12778.61 897.20 L 12781.24 890.15 L 12782.35 859.21" stroke="black" stroke-width="4" fill="none" stroke-linecap="round" stroke-linejoin="round"/>
  <path d="M 12735.38 877.51 L 12754.25 876.12 L 12769.87 872.12" stroke="black" stroke-width="4" fill="none" stroke-linecap="round" stroke-linejoin="round"/>
  <path d="M 12765.97 846.48 L 12749.46 842.62 L 12730.59 841.28" stroke="black" stroke-width="4" fill="none" stroke-linecap="round" stroke-linejoin="round"/>
  <path d="M 12696.59 846.48 L 12686.57 852.32 L 12683.57 859.21 L 12688.04 866.16 L 12699.47 872.12" stroke="black" stroke-width="4" fill="none" stroke-linecap="round" stroke-linejoin="round"/>
  <path d="M 12658.92 824.12 L 12661.95 817.49 L 12657.70 810.92 L 12646.80 805.36 L 12630.94 801.67 L 12612.60 800.39 L 12594.43 801.67 L 12579.05 805.36 L 12568.88 810.92 L 12565.51 817.49 L 12569.41 824.12 L 12580.18 829.80 L 12596.19 833.61 L 12614.88 834.94 L 12633.39 833.61 L 12648.90 829.80 L 12658.92 824.12 L 12648.90 829.80" stroke="black" stroke-width="4" fill="none" stroke-linecap="round" stroke-linejoin="round"/>
  <path d="M 12565.51 817.49 L 12565.26 847.87 L 12569.14 854.58 L 12579.87 860.34 L 12595.82 864.20 L 12614.43 865.55 L 12632.87 864.20 L 12648.32 860.34 L 12658.30 854.58 L 12661.33 847.87 L 12661.95 817.49" stroke="black" stroke-width="4" fill="none" stroke-linecap="round" stroke-linejoin="round"/>
  <path d="M 12657.70 810.92 L 12646.80 805.36" stroke="black" stroke-width="4" fill="none" stroke-linecap="round" stroke-linejoin="round"/>
  <path d="M 12630.94 801.67 L 12612.60 800.39" stroke="black" stroke-width="4" fill="none" stroke-linecap="round" stroke-linejoin="round"/>
  <path d="M 12568.88 810.92 L 12565.51 817.49 L 12569.41 824.12" stroke="black" stroke-width="4" fill="none" stroke-linecap="round" stroke-linejoin="round"/>
  <path d="M 12580.18 829.80 L 12596.19 833.61" stroke="black" stroke-width="4" fill="none" stroke-linecap="round" stroke-linejoin="round"/>
  <path d="M 12614.88 834.94 L 12633.39 833.61" stroke="black" stroke-width="4" fill="none" stroke-linecap="round" stroke-linejoin="round"/>
  <path d="M 12543.72 784.02 L 12547.11 777.70 L 12543.39 771.43 L 12533.10 766.12 L 12517.84 762.60 L 12500.00 761.38 L 12482.16 762.60 L 12466.90 766.12 L 12456.61 771.43 L 12452.89 777.70 L 12456.29 784.02 L 12466.44 789.45 L 12481.84 793.08 L 12500.00 794.35 L 12518.16 793.08 L 12533.56 789.45 L 12543.72 784.02 L 12533.56 789.45" stroke="black" stroke-width="4" fill="none" stroke-linecap="round" stroke-linejoin="round"/>
  <path d="M 12452.89 777.70 L 12453.07 807.53 L 12456.45 813.94 L 12466.56 819.43 L 12481.91 823.12 L 12500.00 824.40 L 12518.09 823.12 L 12533.44 819.43 L 12543.55 813.94 L 12546.93 807.53 L 12547.11 777.70" stroke="black" stroke-width="4" fill="none" stroke-linecap="round" stroke-linejoin="round"/>
  <path d="M 12517.09 792.17 L 12500.00 790.98" stroke="black" stroke-width="4" fill="none" stroke-linecap="round" stroke-linejoin="round"/>
  <path d="M 12543.39 771.43 L 12533.10 766.12" stroke="black" stroke-width="4" fill="none" stroke-linecap="round" stroke-linejoin="round"/>
  <path d="M 12517.84 762.60 L 12500.00 761.38" stroke="black" stroke-width="4" fill="none" stroke-linecap="round" stroke-linejoin="round"/>
  <path d="M 12456.61 771.43 L 12452.89 777.70 L 12456.29 784.02" stroke="black" stroke-width="4" fill="none" stroke-linecap="round" stroke-linejoin="round"/>
  <path d="M 12466.44 789.45 L 12481.84 793.08" stroke="black" stroke-width="4" fill="none" stroke-linecap="round" stroke-linejoin="round"/>
  <path d="M 12500.00 794.35 L 12518.16 793.08" stroke="black" stroke-width="4" fill="none" stroke-linecap="round" stroke-linejoin="round"/>
  <path d="M 12433.73 745.75 L 12437.45 739.71 L 12434.22 733.71 L 12424.50 728.64 L 12409.80 725.28 L 12392.44 724.11 L 12374.92 725.28 L 12359.78 728.64 L 12349.39 733.72 L 12345.36 739.71 L 12348.28 745.75 L 12357.87 750.93 L 12372.69 754.40 L 12390.36 755.61 L 12408.19 754.40 L 12423.47 750.93 L 12433.73 745.75" stroke="black" stroke-width="4" fill="none" stroke-linecap="round" stroke-linejoin="round"/>
  <path d="M 12345.36 739.71 L 12345.93 769.00 L 12348.84 775.13 L 12358.39 780.38 L 12373.16 783.90 L 12390.76 785.12 L 12408.53 783.90 L 12423.75 780.38 L 12433.98 775.13 L 12437.68 769.00 L 12437.45 739.71" stroke="black" stroke-width="4" fill="none" stroke-linecap="round" stroke-linejoin="round"/>
  <path d="M 12390.36 755.61 L 12408.19 754.40 L 12423.47 750.93" stroke="black" stroke-width="4" fill="none" stroke-linecap="round" stroke-linejoin="round"/>
  <path d="M 12424.50 728.64 L 12409.80 725.28 L 12392.44 724.11" stroke="black" stroke-width="4" fill="none" stroke-linecap="round" stroke-linejoin="round"/>
  <path d="M 12359.78 728.64 L 12349.39 733.72 L 12345.36 739.71 L 12348.28 745.75 L 12357.87 750.93" stroke="black" stroke-width="4" fill="none" stroke-linecap="round" stroke-linejoin="round"/>
  <path d="M 12666.83 910.30 L 12669.98 903.00 L 12665.50 895.76 L 12654.04 889.63 L 12637.37 885.58 L 12618.13 884.17 L 12599.07 885.58 L 12582.94 889.63 L 12572.29 895.76 L 12568.76 903.00 L 12572.87 910.30 L 12584.19 916.56 L 12601.01 920.76 L 12620.64 922.23 L 12640.07 920.76 L 12656.35 916.56 L 12666.83 910.30" stroke="black" stroke-width="4" fill="none" stroke-linecap="round" stroke-linejoin="round"/>
  <path d="M 12568.76 903.00 L 12568.48 934.53 L 12572.57 941.92 L 12583.84 948.27 L 12600.60 952.53 L 12620.15 954.01 L 12639.50 952.53 L 12655.71 948.27 L 12666.16 941.92 L 12669.30 934.53 L 12669.98 903.00" stroke="black" stroke-width="4" fill="none" stroke-linecap="round" stroke-linejoin="round"/>
  <path d="M 12620.64 922.23 L 12640.07 920.76 L 12656.35 916.56" stroke="black" stroke-width="4" fill="none" stroke-linecap="round" stroke-linejoin="round"/>
  <path d="M 12654.04 889.63 L 12637.37 885.58 L 12618.13 884.17" stroke="black" stroke-width="4" fill="none" stroke-linecap="round" stroke-linejoin="round"/>
  <path d="M 12582.94 889.63 L 12572.29 895.76 L 12568.76 903.00 L 12572.87 910.30 L 12584.19 916.56" stroke="black" stroke-width="4" fill="none" stroke-linecap="round" stroke-linejoin="round"/>
  <path d="M 12545.84 866.16 L 12549.39 859.21 L 12545.48 852.32 L 12534.69 846.48 L 12518.69 842.62 L 12500.00 841.28 L 12481.31 842.62 L 12465.31 846.48 L 12454.52 852.32 L 12450.61 859.21 L 12454.16 866.16 L 12464.80 872.12 L 12480.95 876.12 L 12500.00 877.51 L 12519.05 876.12 L 12535.20 872.12 L 12545.84 866.16 L 12535.20 872.12" stroke="black" stroke-width="4" fill="none" stroke-linecap="round" stroke-linejoin="round"/>
  <path d="M 12450.61 859.21 L 12450.81 890.15 L 12454.34 897.20 L 12464.94 903.24 L 12481.02 907.29 L 12500.00 908.70 L 12518.98 907.29 L 12535.06 903.24 L 12545.66 897.20 L 12549.19 890.15 L 12549.39 859.21" stroke="black" stroke-width="4" fill="none" stroke-linecap="round" stroke-linejoin="round"/>
  <path d="M 12515.67 873.12 L 12500.00 871.98" stroke="black" stroke-width="4" fill="none" stroke-linecap="round" stroke-linejoin="round"/>
  <path d="M 12545.48 852.32 L 12534.69 846.48" stroke="black" stroke-width="4" fill="none" stroke-linecap="round" stroke-linejoin="round"/>
  <path d="M 12518.69 842.62 L 12500.00 841.28" stroke="black" stroke-width="4" fill="none" stroke-linecap="round" stroke-linejoin="round"/>
  <path d="M 12481.31 842.62 L 12465.31 846.48" stroke="black" stroke-width="4" fill="none" stroke-linecap="round" stroke-linejoin="round"/>
  <path d="M 12454.52 852.32 L 12450.61 859.21 L 12454.16 866.16" stroke="black" stroke-width="4" fill="none" stroke-linecap="round" stroke-linejoin="round"/>
  <path d="M 12464.80 872.12 L 12480.95 876.12" stroke="black" stroke-width="4" fill="none" stroke-linecap="round" stroke-linejoin="round"/>
  <path d="M 12500.00 877.51 L 12519.05 876.12" stroke="black" stroke-width="4" fill="none" stroke-linecap="round" stroke-linejoin="round"/>
  <path d="M 12430.59 824.12 L 12434.49 817.49 L 12431.12 810.92 L 12420.95 805.36 L 12405.57 801.67 L 12387.40 800.39 L 12369.06 801.67 L 12353.20 805.36 L 12342.30 810.92 L 12338.05 817.49 L 12341.08 824.12 L 12351.10 829.80 L 12366.61 833.61 L 12385.12 834.94 L 12403.81 833.61 L 12419.82 829.80 L 12430.59 824.12 L 12419.82 829.80" stroke="black" stroke-width="4" fill="none" stroke-linecap="round" stroke-linejoin="round"/>
  <path d="M 12338.05 817.49 L 12338.67 847.87 L 12341.70 854.58 L 12351.68 860.34 L 12367.13 864.20 L 12385.57 865.55 L 12404.18 864.20 L 12420.13 860.34 L 12430.86 854.58 L 12434.74 847.87 L 12434.49 817.49" stroke="black" stroke-width="4" fill="none" stroke-linecap="round" stroke-linejoin="round"/>
  <path d="M 12431.12 810.92 L 12420.95 805.36" stroke="black" stroke-width="4" fill="none" stroke-linecap="round" stroke-linejoin="round"/>
  <path d="M 12405.57 801.67 L 12387.40 800.39" stroke="black" stroke-width="4" fill="none" stroke-linecap="round" stroke-linejoin="round"/>
  <path d="M 12369.06 801.67 L 12353.20 805.36" stroke="black" stroke-width="4" fill="none" stroke-linecap="round" stroke-linejoin="round"/>
  <path d="M 12342.30 810.92 L 12338.05 817.49 L 12341.08 824.12" stroke="black" stroke-width="4" fill="none" stroke-linecap="round" stroke-linejoin="round"/>
  <path d="M 12351.10 829.80 L 12366.61 833.61" stroke="black" stroke-width="4" fill="none" stroke-linecap="round" stroke-linejoin="round"/>
  <path d="M 12385.12 834.94 L 12403.81 833.61" stroke="black" stroke-width="4" fill="none" stroke-linecap="round" stroke-linejoin="round"/>
  <path d="M 12320.68 784.02 L 12324.90 777.70 L 12322.02 771.43 L 12312.43 766.12 L 12297.63 762.60 L 12279.95 761.38 L 12261.95 762.60 L 12246.23 766.12 L 12235.24 771.43 L 12230.69 777.70 L 12233.25 784.02 L 12242.68 789.45 L 12257.61 793.08 L 12275.60 794.35 L 12293.93 793.08 L 12309.81 789.45 L 12320.68 784.02" stroke="black" stroke-width="4" fill="none" stroke-linecap="round" stroke-linejoin="round"/>
  <path d="M 12230.69 777.70 L 12231.70 807.53 L 12234.25 813.94 L 12243.66 819.43 L 12258.52 823.12 L 12276.45 824.40 L 12294.71 823.12 L 12310.53 819.43 L 12321.35 813.94 L 12325.56 807.53 L 12324.90 777.70" stroke="black" stroke-width="4" fill="none" stroke-linecap="round" stroke-linejoin="round"/>
  <path d="M 12275.60 794.35 L 12293.93 793.08 L 12309.81 789.45" stroke="black" stroke-width="4" fill="none" stroke-linecap="round" stroke-linejoin="round"/>
  <path d="M 12312.43 766.12 L 12297.63 762.60 L 12279.95 761.38" stroke="black" stroke-width="4" fill="none" stroke-linecap="round" stroke-linejoin="round"/>
  <path d="M 12246.23 766.12 L 12235.24 771.43 L 12230.69 777.70 L 12233.25 784.02 L 12242.68 789.45" stroke="black" stroke-width="4" fill="none" stroke-linecap="round" stroke-linejoin="round"/>
  <path d="M 12811.29 1717.09 L 12749.13 1685.27" stroke="black" stroke-width="4" fill="none" stroke-linecap="round" stroke-linejoin="round"/>
  <path d="M 12719.52 1670.11 L 12642.22 1630.53" stroke="black" stroke-width="4" fill="none" stroke-linecap="round" stroke-linejoin="round"/>
  <path d="M 12613.84 1616.00 L 12539.72 1578.05" stroke="black" stroke-width="4" fill="none" stroke-linecap="round" stroke-linejoin="round"/>
  <path d="M 12512.51 1564.12 L 12441.39 1527.70" stroke="black" stroke-width="4" fill="none" stroke-linecap="round" stroke-linejoin="round"/>
  <path d="M 12415.26 1514.33 L 12404.48 1508.80 L 12393.89 1514.02" stroke="black" stroke-width="4" fill="none" stroke-linecap="round" stroke-linejoin="round"/>
  <path d="M 12362.84 1529.29 L 12292.72 1563.79" stroke="black" stroke-width="4" fill="none" stroke-linecap="round" stroke-linejoin="round"/>
  <path d="M 12260.38 1579.71 L 12201.58 1608.64 L 12608.44 1835.32 L 12811.29 1717.09 L 12804.85 1861.94 L 12606.10 1984.01 L 12804.85 1861.94 L 12606.10 1984.01 L 12207.51 1749.78 L 12606.10 1984.01 L 12603.85 2126.40 L 12213.20 1885.42 L 12207.51 1749.78 L 12606.10 1984.01 L 12804.85 1861.94 L 12798.67 2000.92 L 12603.85 2126.40 L 12798.67 2000.92 L 12603.85 2126.40 L 12213.20 1885.42 L 12603.85 2126.40 L 12601.70 2262.90 L 12218.68 2015.88 L 12213.20 1885.42 L 12603.85 2126.40 L 12798.67 2000.92 L 12792.73 2134.38 L 12601.70 2262.90" stroke="black" stroke-width="4" fill="none" stroke-linecap="round" stroke-linejoin="round"/>
  <path d="M 12201.58 1608.64 L 12207.51 1749.78 L 12606.10 1984.01 L 12608.44 1835.32" stroke="black" stroke-width="4" fill="none" stroke-linecap="round" stroke-linejoin="round"/>
  <path d="M 12663.53 1717.09 L 12667.44 1726.29 L 12677.55 1734.17 L 12692.34 1739.45 L 12709.44 1741.30 L 12726.25 1739.45 L 12740.21 1734.17 L 12749.07 1726.29 L 12751.52 1717.09" stroke="black" stroke-width="4" fill="none" stroke-linecap="round" stroke-linejoin="round"/>
  <path d="M 12741.07 1709.33 L 12727.06 1714.58 L 12710.19 1716.41 L 12693.03 1714.58 L 12678.18 1709.33 L 12668.03 1701.49 L 12664.11 1692.35 L 12666.86 1683.27 L 12675.88 1675.59 L 12689.78 1670.50 L 12706.37 1668.73 L 12723.24 1670.50 L 12737.96 1675.59 L 12748.21 1683.27 L 12752.41 1692.35 L 12749.96 1701.49 L 12741.07 1709.33" stroke="black" stroke-width="4" fill="none" stroke-linecap="round" stroke-linejoin="round"/>
  <path d="M 12558.51 1661.72 L 12561.97 1670.53 L 12571.55 1678.09 L 12585.83 1683.15 L 12602.49 1684.91 L 12619.01 1683.15 L 12632.89 1678.09 L 12641.88 1670.53 L 12644.64 1661.72" stroke="black" stroke-width="4" fill="none" stroke-linecap="round" stroke-linejoin="round"/>
  <path d="M 12561.76 1628.62 L 12570.90 1621.26 L 12584.71 1616.37 L 12601.02 1614.68 L 12617.46 1616.37 L 12631.67 1621.26 L 12641.39 1628.62 L 12645.14 1637.31 L 12642.37 1646.07 L 12633.35 1653.58 L 12619.43 1658.61 L 12602.85 1660.36 L 12586.13 1658.61 L 12571.80 1653.58 L 12562.18 1646.07 L 12558.71 1637.31" stroke="black" stroke-width="4" fill="none" stroke-linecap="round" stroke-linejoin="round"/>
  <path d="M 12457.82 1608.64 L 12460.88 1617.09 L 12469.97 1624.33 L 12478.53 1627.34 L 12483.75 1629.19 L 12500.00 1630.88 L 12516.25 1629.19 L 12530.03 1624.33 L 12539.12 1617.09 L 12542.18 1608.64" stroke="black" stroke-width="4" fill="none" stroke-linecap="round" stroke-linejoin="round"/>
  <path d="M 12501.94 1586.99 L 12500.00 1586.79" stroke="black" stroke-width="4" fill="none" stroke-linecap="round" stroke-linejoin="round"/>
  <path d="M 12530.13 1600.16 L 12516.30 1604.98 L 12500.00 1606.66 L 12483.70 1604.98 L 12469.87 1600.16 L 12460.74 1592.96 L 12457.68 1584.56 L 12461.01 1576.22 L 12470.24 1569.16 L 12483.96 1564.47 L 12500.00 1562.85 L 12516.04 1564.47 L 12529.76 1569.16 L 12538.99 1576.22 L 12542.32 1584.56 L 12539.26 1592.96 L 12530.13 1600.16" stroke="black" stroke-width="4" fill="none" stroke-linecap="round" stroke-linejoin="round"/>
  <path d="M 12361.22 1557.71 L 12363.89 1565.82 L 12372.53 1572.77 L 12385.85 1577.43 L 12401.70 1579.05 L 12417.68 1577.43 L 12431.36 1572.77 L 12440.24 1566.06" stroke="black" stroke-width="4" fill="none" stroke-linecap="round" stroke-linejoin="round"/>
  <path d="M 12440.55 1565.82 L 12443.86 1557.71" stroke="black" stroke-width="4" fill="none" stroke-linecap="round" stroke-linejoin="round"/>
  <path d="M 12431.13 1548.92 L 12417.40 1553.54 L 12401.37 1555.16 L 12385.47 1553.54 L 12372.10 1548.92 L 12363.44 1542.01 L 12360.76 1533.95 L 12364.33 1525.95 L 12373.65 1519.17 L 12387.28 1514.67 L 12403.05 1513.11 L 12418.71 1514.67 L 12431.97 1519.17 L 12440.74 1525.95 L 12443.68 1533.95 L 12440.35 1542.01 L 12431.13 1548.92" stroke="black" stroke-width="4" fill="none" stroke-linecap="round" stroke-linejoin="round"/>
  <path d="M 12583.99 1796.17 L 12589.65 1798.27 L 12607.05 1800.19 L 12624.31 1798.27 L 12638.78 1792.75 L 12648.15 1784.51 L 12651.02 1774.90" stroke="black" stroke-width="4" fill="none" stroke-linecap="round" stroke-linejoin="round"/>
  <path d="M 12561.09 1774.90 L 12564.71 1784.51 L 12574.73 1792.75" stroke="black" stroke-width="4" fill="none" stroke-linecap="round" stroke-linejoin="round"/>
  <path d="M 12639.29 1767.56 L 12624.76 1773.05 L 12607.44 1774.97 L 12589.97 1773.05 L 12575.00 1767.56 L 12564.95 1759.37 L 12561.31 1749.82 L 12564.48 1740.34 L 12574.01 1732.32 L 12588.42 1726.99 L 12605.45 1725.15 L 12622.61 1726.99 L 12637.45 1732.32 L 12647.63 1740.34 L 12651.56 1749.82 L 12648.69 1759.37 L 12639.29 1767.56" stroke="black" stroke-width="4" fill="none" stroke-linecap="round" stroke-linejoin="round"/>
  <path d="M 12544.00 1717.09 L 12540.82 1726.29 L 12540.50 1726.55 L 12531.33 1734.17 L 12516.95 1739.45 L 12500.00 1741.30 L 12483.05 1739.45 L 12468.67 1734.17 L 12459.18 1726.29 L 12456.00 1717.09" stroke="black" stroke-width="4" fill="none" stroke-linecap="round" stroke-linejoin="round"/>
  <path d="M 12500.81 1693.41 L 12500.00 1693.33" stroke="black" stroke-width="4" fill="none" stroke-linecap="round" stroke-linejoin="round"/>
  <path d="M 12458.94 1684.29 L 12459.32 1683.27 L 12468.96 1675.59 L 12483.27 1670.50 L 12500.00 1668.73 L 12516.73 1670.50 L 12531.04 1675.59 L 12540.68 1683.27 L 12544.15 1692.35 L 12540.96 1701.49 L 12531.44 1709.33 L 12517.01 1714.58 L 12500.00 1716.41 L 12482.99 1714.58 L 12468.56 1709.33 L 12459.04 1701.49 L 12455.85 1692.35" stroke="black" stroke-width="4" fill="none" stroke-linecap="round" stroke-linejoin="round"/>
  <path d="M 12355.36 1661.72 L 12358.13 1670.53 L 12367.11 1678.09 L 12380.99 1683.15 L 12397.51 1684.91 L 12414.17 1683.15 L 12428.45 1678.09 L 12438.03 1670.53 L 12441.49 1661.72" stroke="black" stroke-width="4" fill="none" stroke-linecap="round" stroke-linejoin="round"/>
  <path d="M 12357.34 1631.56 L 12358.61 1628.62 L 12368.33 1621.26 L 12382.54 1616.37 L 12398.98 1614.68 L 12415.29 1616.37 L 12429.10 1621.26 L 12438.24 1628.62 L 12441.29 1637.31 L 12437.82 1646.07 L 12428.20 1653.58 L 12413.87 1658.61 L 12397.15 1660.36 L 12380.57 1658.61 L 12366.65 1653.58 L 12357.63 1646.07 L 12354.86 1637.31" stroke="black" stroke-width="4" fill="none" stroke-linecap="round" stroke-linejoin="round"/>
  <path d="M 12258.88 1608.64 L 12261.26 1617.09 L 12269.78 1624.33 L 12283.18 1629.19 L 12299.29 1630.88 L 12315.67 1629.19 L 12329.84 1624.33 L 12339.51 1617.09 L 12343.23 1608.64" stroke="black" stroke-width="4" fill="none" stroke-linecap="round" stroke-linejoin="round"/>
  <path d="M 12329.26 1600.16 L 12315.05 1604.98 L 12298.61 1606.66 L 12282.44 1604.98 L 12269.00 1600.16 L 12260.45 1592.96 L 12258.06 1584.56 L 12262.05 1576.22 L 12271.86 1569.16 L 12285.95 1564.47 L 12302.12 1562.85 L 12318.03 1564.47 L 12331.37 1569.16 L 12340.04 1576.22 L 12342.70 1584.56 L 12338.96 1592.96 L 12329.26 1600.16" stroke="black" stroke-width="4" fill="none" stroke-linecap="round" stroke-linejoin="round"/>
  <path d="M 12167.95 807.53 L 12621.90 981.15 L 12848.07 890.15 L 12782.06 867.18" stroke="black" stroke-width="4" fill="none" stroke-linecap="round" stroke-linejoin="round"/>
  <path d="M 12711.74 842.70 L 12661.79 825.32" stroke="black" stroke-width="4" fill="none" stroke-linecap="round" stroke-linejoin="round"/>
  <path d="M 12594.09 801.75 L 12547.06 785.38" stroke="black" stroke-width="4" fill="none" stroke-linecap="round" stroke-linejoin="round"/>
  <path d="M 12481.83 762.68 L 12437.51 747.25" stroke="black" stroke-width="4" fill="none" stroke-linecap="round" stroke-linejoin="round"/>
  <path d="M 12345.53 748.38 L 12300.66 763.32" stroke="black" stroke-width="4" fill="none" stroke-linecap="round" stroke-linejoin="round"/>
  <path d="M 12230.99 786.53 L 12167.95 807.53 L 12175.27 981.88 L 12618.95 1168.54 L 12616.14 1347.06 L 12182.27 1148.71 L 12175.27 981.88 L 12618.95 1168.54 L 12840.03 1070.81 L 12832.36 1243.32 L 12616.14 1347.06" stroke="black" stroke-width="4" fill="none" stroke-linecap="round" stroke-linejoin="round"/>
  <path d="M 12621.90 981.15 L 12618.95 1168.54 L 12175.27 981.88 L 12618.95 1168.54 L 12840.03 1070.81 L 12618.95 1168.54 L 12840.03 1070.81 L 12848.07 890.15" stroke="black" stroke-width="4" fill="none" stroke-linecap="round" stroke-linejoin="round"/>
  <path d="M 12682.85 890.15 L 12687.30 897.20 L 12698.68 903.24 L 12715.28 907.29 L 12734.44 908.70 L 12753.23 907.29 L 12768.80 903.24 L 12778.61 897.20 L 12781.24 890.15" stroke="black" stroke-width="4" fill="none" stroke-linecap="round" stroke-linejoin="round"/>
  <path d="M 12769.87 872.12 L 12754.25 876.12 L 12735.38 877.51 L 12716.14 876.12 L 12699.47 872.12 L 12688.04 866.16 L 12683.57 859.21 L 12686.57 852.32 L 12696.59 846.48 L 12712.08 842.62 L 12730.59 841.28 L 12749.46 842.62 L 12765.97 846.48 L 12777.53 852.32 L 12782.35 859.21 L 12779.72 866.16 L 12769.87 872.12" stroke="black" stroke-width="4" fill="none" stroke-linecap="round" stroke-linejoin="round"/>
  <path d="M 12565.26 847.87 L 12569.14 854.58 L 12579.87 860.34 L 12595.82 864.20 L 12614.43 865.55 L 12632.87 864.20 L 12648.32 860.34 L 12658.30 854.58 L 12661.33 847.87" stroke="black" stroke-width="4" fill="none" stroke-linecap="round" stroke-linejoin="round"/>
  <path d="M 12568.88 810.92 L 12579.05 805.36 L 12594.43 801.67 L 12612.60 800.39 L 12630.94 801.67 L 12646.80 805.36 L 12657.70 810.92 L 12661.95 817.49 L 12658.92 824.12 L 12648.90 829.80 L 12633.39 833.61 L 12614.88 834.94 L 12596.19 833.61 L 12580.18 829.80 L 12569.41 824.12 L 12565.51 817.49" stroke="black" stroke-width="4" fill="none" stroke-linecap="round" stroke-linejoin="round"/>
  <path d="M 12453.07 807.53 L 12456.45 813.94 L 12466.56 819.43 L 12476.09 821.72 L 12481.91 823.12 L 12500.00 824.40 L 12518.09 823.12 L 12533.44 819.43 L 12543.55 813.94 L 12546.93 807.53" stroke="black" stroke-width="4" fill="none" stroke-linecap="round" stroke-linejoin="round"/>
  <path d="M 12517.09 792.17 L 12500.00 790.98" stroke="black" stroke-width="4" fill="none" stroke-linecap="round" stroke-linejoin="round"/>
  <path d="M 12533.56 789.45 L 12518.16 793.08 L 12500.00 794.35 L 12481.84 793.08 L 12466.44 789.45 L 12456.29 784.02 L 12452.89 777.70 L 12456.61 771.43 L 12466.90 766.12 L 12482.16 762.60 L 12500.00 761.38 L 12517.84 762.60 L 12533.10 766.12 L 12543.39 771.43 L 12547.11 777.70 L 12543.72 784.02 L 12533.56 789.45" stroke="black" stroke-width="4" fill="none" stroke-linecap="round" stroke-linejoin="round"/>
  <path d="M 12433.98 775.13 L 12437.68 769.00" stroke="black" stroke-width="4" fill="none" stroke-linecap="round" stroke-linejoin="round"/>
  <path d="M 12345.93 769.00 L 12348.84 775.13 L 12358.39 780.38 L 12373.16 783.90 L 12390.76 785.12 L 12408.53 783.90 L 12423.75 780.38" stroke="black" stroke-width="4" fill="none" stroke-linecap="round" stroke-linejoin="round"/>
  <path d="M 12423.47 750.93 L 12408.19 754.40 L 12390.36 755.61 L 12372.69 754.40 L 12357.87 750.93 L 12348.28 745.75 L 12345.36 739.71 L 12349.39 733.72 L 12359.78 728.64 L 12374.92 725.28 L 12392.44 724.11 L 12409.80 725.28 L 12424.50 728.64 L 12434.22 733.71 L 12437.45 739.71 L 12433.73 745.75 L 12423.47 750.93" stroke="black" stroke-width="4" fill="none" stroke-linecap="round" stroke-linejoin="round"/>
  <path d="M 12600.60 952.53 L 12620.15 954.01 L 12639.50 952.53 L 12655.71 948.27 L 12666.16 941.92 L 12669.30 934.53" stroke="black" stroke-width="4" fill="none" stroke-linecap="round" stroke-linejoin="round"/>
  <path d="M 12568.48 934.53 L 12572.57 941.92 L 12583.84 948.27" stroke="black" stroke-width="4" fill="none" stroke-linecap="round" stroke-linejoin="round"/>
  <path d="M 12656.35 916.56 L 12640.07 920.76 L 12620.64 922.23 L 12601.01 920.76 L 12584.19 916.56 L 12572.87 910.30 L 12568.76 903.00 L 12572.29 895.76 L 12582.94 889.63 L 12599.07 885.58 L 12618.13 884.17 L 12637.37 885.58 L 12654.04 889.63 L 12665.50 895.76 L 12669.98 903.00 L 12666.83 910.30 L 12656.35 916.56" stroke="black" stroke-width="4" fill="none" stroke-linecap="round" stroke-linejoin="round"/>
  <path d="M 12549.19 890.15 L 12545.66 897.20 L 12545.30 897.40 L 12535.06 903.24 L 12518.98 907.29 L 12500.00 908.70 L 12481.02 907.29 L 12464.94 903.24 L 12454.34 897.20 L 12450.81 890.15" stroke="black" stroke-width="4" fill="none" stroke-linecap="round" stroke-linejoin="round"/>
  <path d="M 12515.67 873.12 L 12500.00 871.98" stroke="black" stroke-width="4" fill="none" stroke-linecap="round" stroke-linejoin="round"/>
  <path d="M 12454.08 853.08 L 12454.52 852.32 L 12465.31 846.48 L 12481.31 842.62 L 12500.00 841.28 L 12518.69 842.62 L 12534.69 846.48 L 12545.48 852.32 L 12549.39 859.21 L 12545.84 866.16 L 12535.20 872.12 L 12519.05 876.12 L 12500.00 877.51 L 12480.95 876.12 L 12464.80 872.12 L 12454.16 866.16 L 12450.61 859.21" stroke="black" stroke-width="4" fill="none" stroke-linecap="round" stroke-linejoin="round"/>
  <path d="M 12338.67 847.87 L 12341.70 854.58 L 12351.68 860.34 L 12367.13 864.20 L 12385.57 865.55 L 12404.18 864.20 L 12420.13 860.34 L 12430.86 854.58 L 12434.74 847.87" stroke="black" stroke-width="4" fill="none" stroke-linecap="round" stroke-linejoin="round"/>
  <path d="M 12419.82 829.80 L 12403.81 833.61 L 12385.12 834.94 L 12366.61 833.61 L 12351.10 829.80 L 12341.08 824.12 L 12338.05 817.49 L 12342.30 810.92 L 12353.20 805.36 L 12369.06 801.67 L 12387.40 800.39 L 12405.57 801.67 L 12420.95 805.36 L 12431.12 810.92 L 12434.49 817.49 L 12430.59 824.12 L 12419.82 829.80" stroke="black" stroke-width="4" fill="none" stroke-linecap="round" stroke-linejoin="round"/>
  <path d="M 12231.70 807.53 L 12234.25 813.94 L 12243.66 819.43 L 12258.52 823.12 L 12276.45 824.40 L 12294.71 823.12 L 12310.53 819.43 L 12321.35 813.94 L 12325.56 807.53" stroke="black" stroke-width="4" fill="none" stroke-linecap="round" stroke-linejoin="round"/>
  <path d="M 12309.81 789.45 L 12293.93 793.08 L 12275.60 794.35 L 12257.61 793.08 L 12242.68 789.45 L 12233.25 784.02 L 12230.69 777.70 L 12235.24 771.43 L 12246.23 766.12 L 12261.95 762.60 L 12279.95 761.38 L 12297.63 762.60 L 12312.43 766.12 L 12322.02 771.43 L 12324.90 777.70 L 12320.68 784.02 L 12309.81 789.45" stroke="black" stroke-width="4" fill="none" stroke-linecap="round" stroke-linejoin="round"/>
</svg>
