<svg width="390.0" height="210.0" xmlns="http://www.w3.org/2000/svg" xmlns:xlink="http://www.w3.org/1999/xlink">
<svg x="0.0" y="0.0" width="120.0" height="210.0" viewBox="-60.0 -60 120 210" xmlns="http://www.w3.org/2000/svg" xmlns:xlink="http://www.w3.org/1999/xlink">
<defs>
</defs>
<circle cx="0" cy="0" r="50" fill="white" stroke="red" stroke-width="10" />
<text x="0" y="25" font-size="20" fill="black" text-anchor="middle" dominant-baseline="middle" font-family="sans-serif">km/h</text>
<text x="0" y="-10" font-size="50" fill="black" text-anchor="middle" dominant-baseline="middle" font-family="sans-serif" font-weight="bold">900</text>
<svg x="-40.0" y="65" width="80" height="80" viewBox="0 0 36 36" xmlns="http://www.w3.org/2000/svg"><path fill="#66757F" d="M30 23.828c-.391.392-1.023.392-1.414 0l-1.414-1.414c-.392-.391-.392-1.024 0-1.414L30 18.172c.391-.391 1.023-.391 1.414 0l1.414 1.414c.392.391.392 1.024 0 1.414L30 23.828zm-15-15c-.391.392-1.023.392-1.414 0l-1.414-1.414c-.392-.391-.392-1.023 0-1.414L15 3.172c.391-.391 1.023-.391 1.414 0l1.414 1.414c.392.391.392 1.023 0 1.414L15 8.828z"/><path fill="#55ACEE" d="M2 22c2 0 11 1 11 1s1 9 1 11-2 2-3 1-4-6-4-6-5-3-6-4-1-3 1-3zM4 6.039C7 6 29 7 29 7s.924 22 .962 25c.038 3-2.763 4.002-3.862.001S21 15 21 15 7.045 10.583 3.995 9.898C0 9 .999 6.077 4 6.039z"/><path fill="#CCD6DD" d="M27 3c2-2 7-3 8-2s0 6-2 8-19 18-19 18-6.5 4.5-8 3 3-8 3-8S25 5 27 3z"/><path fill="#66757F" d="M14 22s.5.5-4 5-5 4-5 4-.5-.5 4-5 5-4 5-4zM29 4c1.657 0 3 1.343 3 3h.805c.114-.315.195-.645.195-1 0-1.657-1.343-3-3-3-.355 0-.685.081-1 .195V4z"/></svg>
</svg>
<svg x="135.0" y="0.0" width="120.0" height="210.0" viewBox="-60.0 -60 120 210" xmlns="http://www.w3.org/2000/svg" xmlns:xlink="http://www.w3.org/1999/xlink">
<defs>
</defs>
<circle cx="0" cy="0" r="50" fill="white" stroke="red" stroke-width="10" />
<text x="0" y="25" font-size="20" fill="black" text-anchor="middle" dominant-baseline="middle" font-family="sans-serif">km/h</text>
<text x="0" y="-10" font-size="20" fill="black" text-anchor="middle" dominant-baseline="middle" font-family="sans-serif" font-weight="bold">28000</text>
<svg x="-40.0" y="65" width="80" height="80" viewBox="0 0 36 36" xmlns="http://www.w3.org/2000/svg"><path fill="#A0041E" d="M1 17l8-7 16 1 1 16-7 8s.001-5.999-6-12-12-6-12-6z"/><path fill="#FFAC33" d="M.973 35s-.036-7.979 2.985-11S15 21.187 15 21.187 14.999 29 11.999 32c-3 3-11.026 3-11.026 3z"/><circle fill="#FFCC4D" cx="8.999" cy="27" r="4"/><path fill="#55ACEE" d="M35.999 0s-10 0-22 10c-6 5-6 14-4 16s11 2 16-4c10-12 10-22 10-22z"/><path d="M26.999 5c-1.623 0-3.013.971-3.641 2.36.502-.227 1.055-.36 1.641-.36 2.209 0 4 1.791 4 4 0 .586-.133 1.139-.359 1.64 1.389-.627 2.359-2.017 2.359-3.64 0-2.209-1.791-4-4-4z"/><path fill="#A0041E" d="M8 28s0-4 1-5 13.001-10.999 14-10-9.001 13-10.001 14S8 28 8 28z"/></svg>
</svg>
<svg x="270.0" y="0.0" width="120.0" height="210.0" viewBox="-60.0 -60 120 210" xmlns="http://www.w3.org/2000/svg" xmlns:xlink="http://www.w3.org/1999/xlink">
<defs>
</defs>
<circle cx="0" cy="0" r="50" fill="white" stroke="red" stroke-width="10" />
<text x="0" y="25" font-size="20" fill="black" text-anchor="middle" dominant-baseline="middle" font-family="sans-serif">km/h</text>
<text x="0" y="-10" font-size="50" fill="black" text-anchor="middle" dominant-baseline="middle" font-family="sans-serif" font-weight="bold">60</text>
<svg x="-40.0" y="65" width="80" height="80" viewBox="0 0 36 36" xmlns="http://www.w3.org/2000/svg"><path fill="#CCD6DD" d="M21.377 15.449c.089.816-.83 1.495-2.053 1.515-1.223.02-2.095-.635-1.947-1.463l.356-2c.147-.829.938-1.5 1.767-1.5.828 0 1.572.662 1.661 1.478l.216 1.97z"/><path fill="#FFCC4D" d="M32.246 21h-.135l-.444-3c-.327-2.209-1.864-4-3.433-4H16.162c-1.569 0-3.574 1.791-4.478 4l-1.228 3H6.911c-2.073 0-4.104 1.791-4.538 4l-.588 3c-.001.008 0 .015-.002.021C.782 28.132 0 28.97 0 30c0 1.104.896 2 2 2h30c2.209 0 4-1.791 4-4v-3c0-2.209-1.681-4-3.754-4z"/><circle fill="#292F33" cx="10" cy="31" r="4"/><circle fill="#CCD6DD" cx="10" cy="31" r="2"/><circle fill="#292F33" cx="27" cy="31" r="4"/><circle fill="#CCD6DD" cx="27" cy="31" r="2"/><path fill="#F4900C" d="M2.373 25l-.196 1H36v-1c0-.348-.055-.679-.133-1H2.702c-.141.321-.261.652-.329 1z"/><path d="M24 21h5.92c-.014-.416-.064-.908-.156-1.5-.395-2.5-.552-3.5-3.437-3.5H24v5zm-2-5h-5c-1.594 0-3.236 1.567-3.847 3.5-.194.599-.353 1.088-.472 1.5H22v-5z" fill="#55ACEE"/></svg>
</svg>
</svg>