<?xml version="1.0" encoding="UTF-8"?>
<svg xmlns="http://www.w3.org/2000/svg" xmlns:xlink="http://www.w3.org/1999/xlink"
     width="636" height="308" viewBox="0 0 636 308">
<defs>
</defs>
<g transform="translate(0,0)">
<rect x="0" y="0" width="48" height="48" fill="pink" stroke="black" stroke-width="2" />
<text x="24.0" y="24.0" font-size="28" fill="black" font-family="Comic Sans MS" text-anchor="middle" dominant-baseline="central">6</text>
</g>
<g transform="translate(48,0)">
<rect x="0" y="0" width="48" height="48" fill="pink" stroke="black" stroke-width="2" />
<text x="24.0" y="24.0" font-size="28" fill="black" font-family="Comic Sans MS" text-anchor="middle" dominant-baseline="central">1</text>
</g>
<g transform="translate(96,0)">
<rect x="0" y="0" width="48" height="48" fill="pink" stroke="black" stroke-width="2" />
<text x="24.0" y="24.0" font-size="28" fill="black" font-family="Comic Sans MS" text-anchor="middle" dominant-baseline="central">8</text>
</g>
<g transform="translate(0,48)">
<rect x="0" y="0" width="48" height="48" fill="white" stroke="black" stroke-width="2" />
<text x="24.0" y="24.0" font-size="28" fill="black" font-family="Comic Sans MS" text-anchor="middle" dominant-baseline="central">7</text>
</g>
<g transform="translate(48,48)">
<rect x="0" y="0" width="48" height="48" fill="white" stroke="black" stroke-width="2" />
<text x="24.0" y="24.0" font-size="28" fill="black" font-family="Comic Sans MS" text-anchor="middle" dominant-baseline="central">5</text>
</g>
<g transform="translate(96,48)">
<rect x="0" y="0" width="48" height="48" fill="white" stroke="black" stroke-width="2" />
<text x="24.0" y="24.0" font-size="28" fill="black" font-family="Comic Sans MS" text-anchor="middle" dominant-baseline="central">3</text>
</g>
<g transform="translate(0,96)">
<rect x="0" y="0" width="48" height="48" fill="white" stroke="black" stroke-width="2" />
<text x="24.0" y="24.0" font-size="28" fill="black" font-family="Comic Sans MS" text-anchor="middle" dominant-baseline="central">2</text>
</g>
<g transform="translate(48,96)">
<rect x="0" y="0" width="48" height="48" fill="white" stroke="black" stroke-width="2" />
<text x="24.0" y="24.0" font-size="28" fill="black" font-family="Comic Sans MS" text-anchor="middle" dominant-baseline="central">9</text>
</g>
<g transform="translate(96,96)">
<rect x="0" y="0" width="48" height="48" fill="white" stroke="black" stroke-width="2" />
<text x="24.0" y="24.0" font-size="28" fill="black" font-family="Comic Sans MS" text-anchor="middle" dominant-baseline="central">4</text>
</g>
<g transform="translate(164,0)">
<rect x="0" y="0" width="48" height="48" fill="white" stroke="black" stroke-width="2" />
<text x="24.0" y="24.0" font-size="28" fill="black" font-family="Comic Sans MS" text-anchor="middle" dominant-baseline="central">6</text>
</g>
<g transform="translate(212,0)">
<rect x="0" y="0" width="48" height="48" fill="white" stroke="black" stroke-width="2" />
<text x="24.0" y="24.0" font-size="28" fill="black" font-family="Comic Sans MS" text-anchor="middle" dominant-baseline="central">1</text>
</g>
<g transform="translate(260,0)">
<rect x="0" y="0" width="48" height="48" fill="white" stroke="black" stroke-width="2" />
<text x="24.0" y="24.0" font-size="28" fill="black" font-family="Comic Sans MS" text-anchor="middle" dominant-baseline="central">8</text>
</g>
<g transform="translate(164,48)">
<rect x="0" y="0" width="48" height="48" fill="pink" stroke="black" stroke-width="2" />
<text x="24.0" y="24.0" font-size="28" fill="black" font-family="Comic Sans MS" text-anchor="middle" dominant-baseline="central">7</text>
</g>
<g transform="translate(212,48)">
<rect x="0" y="0" width="48" height="48" fill="pink" stroke="black" stroke-width="2" />
<text x="24.0" y="24.0" font-size="28" fill="black" font-family="Comic Sans MS" text-anchor="middle" dominant-baseline="central">5</text>
</g>
<g transform="translate(260,48)">
<rect x="0" y="0" width="48" height="48" fill="pink" stroke="black" stroke-width="2" />
<text x="24.0" y="24.0" font-size="28" fill="black" font-family="Comic Sans MS" text-anchor="middle" dominant-baseline="central">3</text>
</g>
<g transform="translate(164,96)">
<rect x="0" y="0" width="48" height="48" fill="white" stroke="black" stroke-width="2" />
<text x="24.0" y="24.0" font-size="28" fill="black" font-family="Comic Sans MS" text-anchor="middle" dominant-baseline="central">2</text>
</g>
<g transform="translate(212,96)">
<rect x="0" y="0" width="48" height="48" fill="white" stroke="black" stroke-width="2" />
<text x="24.0" y="24.0" font-size="28" fill="black" font-family="Comic Sans MS" text-anchor="middle" dominant-baseline="central">9</text>
</g>
<g transform="translate(260,96)">
<rect x="0" y="0" width="48" height="48" fill="white" stroke="black" stroke-width="2" />
<text x="24.0" y="24.0" font-size="28" fill="black" font-family="Comic Sans MS" text-anchor="middle" dominant-baseline="central">4</text>
</g>
<g transform="translate(328,0)">
<rect x="0" y="0" width="48" height="48" fill="white" stroke="black" stroke-width="2" />
<text x="24.0" y="24.0" font-size="28" fill="black" font-family="Comic Sans MS" text-anchor="middle" dominant-baseline="central">6</text>
</g>
<g transform="translate(376,0)">
<rect x="0" y="0" width="48" height="48" fill="white" stroke="black" stroke-width="2" />
<text x="24.0" y="24.0" font-size="28" fill="black" font-family="Comic Sans MS" text-anchor="middle" dominant-baseline="central">1</text>
</g>
<g transform="translate(424,0)">
<rect x="0" y="0" width="48" height="48" fill="white" stroke="black" stroke-width="2" />
<text x="24.0" y="24.0" font-size="28" fill="black" font-family="Comic Sans MS" text-anchor="middle" dominant-baseline="central">8</text>
</g>
<g transform="translate(328,48)">
<rect x="0" y="0" width="48" height="48" fill="white" stroke="black" stroke-width="2" />
<text x="24.0" y="24.0" font-size="28" fill="black" font-family="Comic Sans MS" text-anchor="middle" dominant-baseline="central">7</text>
</g>
<g transform="translate(376,48)">
<rect x="0" y="0" width="48" height="48" fill="white" stroke="black" stroke-width="2" />
<text x="24.0" y="24.0" font-size="28" fill="black" font-family="Comic Sans MS" text-anchor="middle" dominant-baseline="central">5</text>
</g>
<g transform="translate(424,48)">
<rect x="0" y="0" width="48" height="48" fill="white" stroke="black" stroke-width="2" />
<text x="24.0" y="24.0" font-size="28" fill="black" font-family="Comic Sans MS" text-anchor="middle" dominant-baseline="central">3</text>
</g>
<g transform="translate(328,96)">
<rect x="0" y="0" width="48" height="48" fill="pink" stroke="black" stroke-width="2" />
<text x="24.0" y="24.0" font-size="28" fill="black" font-family="Comic Sans MS" text-anchor="middle" dominant-baseline="central">2</text>
</g>
<g transform="translate(376,96)">
<rect x="0" y="0" width="48" height="48" fill="pink" stroke="black" stroke-width="2" />
<text x="24.0" y="24.0" font-size="28" fill="black" font-family="Comic Sans MS" text-anchor="middle" dominant-baseline="central">9</text>
</g>
<g transform="translate(424,96)">
<rect x="0" y="0" width="48" height="48" fill="pink" stroke="black" stroke-width="2" />
<text x="24.0" y="24.0" font-size="28" fill="black" font-family="Comic Sans MS" text-anchor="middle" dominant-baseline="central">4</text>
</g>
<g transform="translate(492,0)">
<rect x="0" y="0" width="48" height="48" fill="pink" stroke="black" stroke-width="2" />
<text x="24.0" y="24.0" font-size="28" fill="black" font-family="Comic Sans MS" text-anchor="middle" dominant-baseline="central">6</text>
</g>
<g transform="translate(540,0)">
<rect x="0" y="0" width="48" height="48" fill="white" stroke="black" stroke-width="2" />
<text x="24.0" y="24.0" font-size="28" fill="black" font-family="Comic Sans MS" text-anchor="middle" dominant-baseline="central">1</text>
</g>
<g transform="translate(588,0)">
<rect x="0" y="0" width="48" height="48" fill="white" stroke="black" stroke-width="2" />
<text x="24.0" y="24.0" font-size="28" fill="black" font-family="Comic Sans MS" text-anchor="middle" dominant-baseline="central">8</text>
</g>
<g transform="translate(492,48)">
<rect x="0" y="0" width="48" height="48" fill="pink" stroke="black" stroke-width="2" />
<text x="24.0" y="24.0" font-size="28" fill="black" font-family="Comic Sans MS" text-anchor="middle" dominant-baseline="central">7</text>
</g>
<g transform="translate(540,48)">
<rect x="0" y="0" width="48" height="48" fill="white" stroke="black" stroke-width="2" />
<text x="24.0" y="24.0" font-size="28" fill="black" font-family="Comic Sans MS" text-anchor="middle" dominant-baseline="central">5</text>
</g>
<g transform="translate(588,48)">
<rect x="0" y="0" width="48" height="48" fill="white" stroke="black" stroke-width="2" />
<text x="24.0" y="24.0" font-size="28" fill="black" font-family="Comic Sans MS" text-anchor="middle" dominant-baseline="central">3</text>
</g>
<g transform="translate(492,96)">
<rect x="0" y="0" width="48" height="48" fill="pink" stroke="black" stroke-width="2" />
<text x="24.0" y="24.0" font-size="28" fill="black" font-family="Comic Sans MS" text-anchor="middle" dominant-baseline="central">2</text>
</g>
<g transform="translate(540,96)">
<rect x="0" y="0" width="48" height="48" fill="white" stroke="black" stroke-width="2" />
<text x="24.0" y="24.0" font-size="28" fill="black" font-family="Comic Sans MS" text-anchor="middle" dominant-baseline="central">9</text>
</g>
<g transform="translate(588,96)">
<rect x="0" y="0" width="48" height="48" fill="white" stroke="black" stroke-width="2" />
<text x="24.0" y="24.0" font-size="28" fill="black" font-family="Comic Sans MS" text-anchor="middle" dominant-baseline="central">4</text>
</g>
<g transform="translate(0,164)">
<rect x="0" y="0" width="48" height="48" fill="white" stroke="black" stroke-width="2" />
<text x="24.0" y="24.0" font-size="28" fill="black" font-family="Comic Sans MS" text-anchor="middle" dominant-baseline="central">6</text>
</g>
<g transform="translate(48,164)">
<rect x="0" y="0" width="48" height="48" fill="pink" stroke="black" stroke-width="2" />
<text x="24.0" y="24.0" font-size="28" fill="black" font-family="Comic Sans MS" text-anchor="middle" dominant-baseline="central">1</text>
</g>
<g transform="translate(96,164)">
<rect x="0" y="0" width="48" height="48" fill="white" stroke="black" stroke-width="2" />
<text x="24.0" y="24.0" font-size="28" fill="black" font-family="Comic Sans MS" text-anchor="middle" dominant-baseline="central">8</text>
</g>
<g transform="translate(0,212)">
<rect x="0" y="0" width="48" height="48" fill="white" stroke="black" stroke-width="2" />
<text x="24.0" y="24.0" font-size="28" fill="black" font-family="Comic Sans MS" text-anchor="middle" dominant-baseline="central">7</text>
</g>
<g transform="translate(48,212)">
<rect x="0" y="0" width="48" height="48" fill="pink" stroke="black" stroke-width="2" />
<text x="24.0" y="24.0" font-size="28" fill="black" font-family="Comic Sans MS" text-anchor="middle" dominant-baseline="central">5</text>
</g>
<g transform="translate(96,212)">
<rect x="0" y="0" width="48" height="48" fill="white" stroke="black" stroke-width="2" />
<text x="24.0" y="24.0" font-size="28" fill="black" font-family="Comic Sans MS" text-anchor="middle" dominant-baseline="central">3</text>
</g>
<g transform="translate(0,260)">
<rect x="0" y="0" width="48" height="48" fill="white" stroke="black" stroke-width="2" />
<text x="24.0" y="24.0" font-size="28" fill="black" font-family="Comic Sans MS" text-anchor="middle" dominant-baseline="central">2</text>
</g>
<g transform="translate(48,260)">
<rect x="0" y="0" width="48" height="48" fill="pink" stroke="black" stroke-width="2" />
<text x="24.0" y="24.0" font-size="28" fill="black" font-family="Comic Sans MS" text-anchor="middle" dominant-baseline="central">9</text>
</g>
<g transform="translate(96,260)">
<rect x="0" y="0" width="48" height="48" fill="white" stroke="black" stroke-width="2" />
<text x="24.0" y="24.0" font-size="28" fill="black" font-family="Comic Sans MS" text-anchor="middle" dominant-baseline="central">4</text>
</g>
<g transform="translate(164,164)">
<rect x="0" y="0" width="48" height="48" fill="white" stroke="black" stroke-width="2" />
<text x="24.0" y="24.0" font-size="28" fill="black" font-family="Comic Sans MS" text-anchor="middle" dominant-baseline="central">6</text>
</g>
<g transform="translate(212,164)">
<rect x="0" y="0" width="48" height="48" fill="white" stroke="black" stroke-width="2" />
<text x="24.0" y="24.0" font-size="28" fill="black" font-family="Comic Sans MS" text-anchor="middle" dominant-baseline="central">1</text>
</g>
<g transform="translate(260,164)">
<rect x="0" y="0" width="48" height="48" fill="pink" stroke="black" stroke-width="2" />
<text x="24.0" y="24.0" font-size="28" fill="black" font-family="Comic Sans MS" text-anchor="middle" dominant-baseline="central">8</text>
</g>
<g transform="translate(164,212)">
<rect x="0" y="0" width="48" height="48" fill="white" stroke="black" stroke-width="2" />
<text x="24.0" y="24.0" font-size="28" fill="black" font-family="Comic Sans MS" text-anchor="middle" dominant-baseline="central">7</text>
</g>
<g transform="translate(212,212)">
<rect x="0" y="0" width="48" height="48" fill="white" stroke="black" stroke-width="2" />
<text x="24.0" y="24.0" font-size="28" fill="black" font-family="Comic Sans MS" text-anchor="middle" dominant-baseline="central">5</text>
</g>
<g transform="translate(260,212)">
<rect x="0" y="0" width="48" height="48" fill="pink" stroke="black" stroke-width="2" />
<text x="24.0" y="24.0" font-size="28" fill="black" font-family="Comic Sans MS" text-anchor="middle" dominant-baseline="central">3</text>
</g>
<g transform="translate(164,260)">
<rect x="0" y="0" width="48" height="48" fill="white" stroke="black" stroke-width="2" />
<text x="24.0" y="24.0" font-size="28" fill="black" font-family="Comic Sans MS" text-anchor="middle" dominant-baseline="central">2</text>
</g>
<g transform="translate(212,260)">
<rect x="0" y="0" width="48" height="48" fill="white" stroke="black" stroke-width="2" />
<text x="24.0" y="24.0" font-size="28" fill="black" font-family="Comic Sans MS" text-anchor="middle" dominant-baseline="central">9</text>
</g>
<g transform="translate(260,260)">
<rect x="0" y="0" width="48" height="48" fill="pink" stroke="black" stroke-width="2" />
<text x="24.0" y="24.0" font-size="28" fill="black" font-family="Comic Sans MS" text-anchor="middle" dominant-baseline="central">4</text>
</g>
<g transform="translate(328,164)">
<rect x="0" y="0" width="48" height="48" fill="pink" stroke="black" stroke-width="2" />
<text x="24.0" y="24.0" font-size="28" fill="black" font-family="Comic Sans MS" text-anchor="middle" dominant-baseline="central">6</text>
</g>
<g transform="translate(376,164)">
<rect x="0" y="0" width="48" height="48" fill="white" stroke="black" stroke-width="2" />
<text x="24.0" y="24.0" font-size="28" fill="black" font-family="Comic Sans MS" text-anchor="middle" dominant-baseline="central">1</text>
</g>
<g transform="translate(424,164)">
<rect x="0" y="0" width="48" height="48" fill="white" stroke="black" stroke-width="2" />
<text x="24.0" y="24.0" font-size="28" fill="black" font-family="Comic Sans MS" text-anchor="middle" dominant-baseline="central">8</text>
</g>
<g transform="translate(328,212)">
<rect x="0" y="0" width="48" height="48" fill="white" stroke="black" stroke-width="2" />
<text x="24.0" y="24.0" font-size="28" fill="black" font-family="Comic Sans MS" text-anchor="middle" dominant-baseline="central">7</text>
</g>
<g transform="translate(376,212)">
<rect x="0" y="0" width="48" height="48" fill="pink" stroke="black" stroke-width="2" />
<text x="24.0" y="24.0" font-size="28" fill="black" font-family="Comic Sans MS" text-anchor="middle" dominant-baseline="central">5</text>
</g>
<g transform="translate(424,212)">
<rect x="0" y="0" width="48" height="48" fill="white" stroke="black" stroke-width="2" />
<text x="24.0" y="24.0" font-size="28" fill="black" font-family="Comic Sans MS" text-anchor="middle" dominant-baseline="central">3</text>
</g>
<g transform="translate(328,260)">
<rect x="0" y="0" width="48" height="48" fill="white" stroke="black" stroke-width="2" />
<text x="24.0" y="24.0" font-size="28" fill="black" font-family="Comic Sans MS" text-anchor="middle" dominant-baseline="central">2</text>
</g>
<g transform="translate(376,260)">
<rect x="0" y="0" width="48" height="48" fill="white" stroke="black" stroke-width="2" />
<text x="24.0" y="24.0" font-size="28" fill="black" font-family="Comic Sans MS" text-anchor="middle" dominant-baseline="central">9</text>
</g>
<g transform="translate(424,260)">
<rect x="0" y="0" width="48" height="48" fill="pink" stroke="black" stroke-width="2" />
<text x="24.0" y="24.0" font-size="28" fill="black" font-family="Comic Sans MS" text-anchor="middle" dominant-baseline="central">4</text>
</g>
<g transform="translate(492,164)">
<rect x="0" y="0" width="48" height="48" fill="white" stroke="black" stroke-width="2" />
<text x="24.0" y="24.0" font-size="28" fill="black" font-family="Comic Sans MS" text-anchor="middle" dominant-baseline="central">6</text>
</g>
<g transform="translate(540,164)">
<rect x="0" y="0" width="48" height="48" fill="white" stroke="black" stroke-width="2" />
<text x="24.0" y="24.0" font-size="28" fill="black" font-family="Comic Sans MS" text-anchor="middle" dominant-baseline="central">1</text>
</g>
<g transform="translate(588,164)">
<rect x="0" y="0" width="48" height="48" fill="pink" stroke="black" stroke-width="2" />
<text x="24.0" y="24.0" font-size="28" fill="black" font-family="Comic Sans MS" text-anchor="middle" dominant-baseline="central">8</text>
</g>
<g transform="translate(492,212)">
<rect x="0" y="0" width="48" height="48" fill="white" stroke="black" stroke-width="2" />
<text x="24.0" y="24.0" font-size="28" fill="black" font-family="Comic Sans MS" text-anchor="middle" dominant-baseline="central">7</text>
</g>
<g transform="translate(540,212)">
<rect x="0" y="0" width="48" height="48" fill="pink" stroke="black" stroke-width="2" />
<text x="24.0" y="24.0" font-size="28" fill="black" font-family="Comic Sans MS" text-anchor="middle" dominant-baseline="central">5</text>
</g>
<g transform="translate(588,212)">
<rect x="0" y="0" width="48" height="48" fill="white" stroke="black" stroke-width="2" />
<text x="24.0" y="24.0" font-size="28" fill="black" font-family="Comic Sans MS" text-anchor="middle" dominant-baseline="central">3</text>
</g>
<g transform="translate(492,260)">
<rect x="0" y="0" width="48" height="48" fill="pink" stroke="black" stroke-width="2" />
<text x="24.0" y="24.0" font-size="28" fill="black" font-family="Comic Sans MS" text-anchor="middle" dominant-baseline="central">2</text>
</g>
<g transform="translate(540,260)">
<rect x="0" y="0" width="48" height="48" fill="white" stroke="black" stroke-width="2" />
<text x="24.0" y="24.0" font-size="28" fill="black" font-family="Comic Sans MS" text-anchor="middle" dominant-baseline="central">9</text>
</g>
<g transform="translate(588,260)">
<rect x="0" y="0" width="48" height="48" fill="white" stroke="black" stroke-width="2" />
<text x="24.0" y="24.0" font-size="28" fill="black" font-family="Comic Sans MS" text-anchor="middle" dominant-baseline="central">4</text>
</g>
</svg>