<svg width="390.0" height="210.0" xmlns="http://www.w3.org/2000/svg" xmlns:xlink="http://www.w3.org/1999/xlink">
<svg x="0.0" y="0.0" width="120.0" height="210.0" viewBox="-60.0 -60 120 210" xmlns="http://www.w3.org/2000/svg" xmlns:xlink="http://www.w3.org/1999/xlink">
<defs>
</defs>
<circle cx="0" cy="0" r="50" fill="white" stroke="red" stroke-width="10" />
<text x="0" y="25" font-size="20" fill="black" text-anchor="middle" dominant-baseline="middle" font-family="sans-serif">km/h</text>
<text x="0" y="-10" font-size="50" fill="black" text-anchor="middle" dominant-baseline="middle" font-family="sans-serif" font-weight="bold">350</text>
<svg x="-40.0" y="65" width="80" height="80" viewBox="0 0 36 36" xmlns="http://www.w3.org/2000/svg"><path fill="#939598" d="M0 34h36v2H0z"/><path fill="#D1D3D4" d="M3 35h33V6H21c-4 0-5 2-5 2l-4 6S0 19 0 24c0 4 6 6 6 6l-3 5z"/><path fill="#231F20" d="M14 35l2-3h20v3z"/><path d="M0 23.999c0 4 6 6 6 6V17.125C3 19 0 21.499 0 23.999zM6 30v-.001V30z" fill="#3B88C3"/><path fill="#269" d="M6 30l-3 5h33v-5z"/><path fill="#3B88C3" d="M20 30l4-6h12v6z"/><path fill="#55ACEE" d="M26 8H16l-4 6h-.001 10.843c.477 0 1.108-.448 1.412-1l2.197-4c.303-.552.102-1-.451-1z"/><path fill="#3B88C3" d="M25.902 10l.549-1c.303-.552.102-1-.451-1H16l-1.333 2h11.235z"/></svg>
</svg>
<svg x="135.0" y="0.0" width="120.0" height="210.0" viewBox="-60.0 -60 120 210" xmlns="http://www.w3.org/2000/svg" xmlns:xlink="http://www.w3.org/1999/xlink">
<defs>
</defs>
<circle cx="0" cy="0" r="50" fill="white" stroke="red" stroke-width="10" />
<text x="0" y="25" font-size="20" fill="black" text-anchor="middle" dominant-baseline="middle" font-family="sans-serif">km/h</text>
<text x="0" y="-10" font-size="50" fill="black" text-anchor="middle" dominant-baseline="middle" font-family="sans-serif" font-weight="bold">62</text>
<svg x="-40.0" y="65" width="80" height="80" viewBox="0 0 36 36" xmlns="http://www.w3.org/2000/svg"><path fill="#AF7E57" d="M10 5c-1 1 0 2 0 3s2 0 2 0 1-1 2 1 4 1 3-1-4-1-4-3-3 0-3 0z"/><path fill="#9B6A49" d="M19 16s-3 2-3 3 4 4 5 5 3 1 2-1-4-7-4-7z"/><path fill="#60352A" d="M14.347 2.901c-.745-.684-2.861-1.006-3.922.248-.899.018-1.073.91-.906 1.372.133.369 1.086.286 1.46.963.128-.213.099-.592.026-.783.353.229.369 1.007 1.634 1.272 1.223.256 1.217 1.294 1.217 1.294s.541-.397.863-.957c.614-1.071.448-2.654-.372-3.409z"/><path fill="#C63900" d="M20.634 23.021s1.173.789 1.962-.385c.789-1.174 1.365 1.771 1.365 1.771s-2.559 2.539-4.521 2.924c-1.962.385-1.173-.789-.385-1.962l1.579-2.348z"/><path fill="#292F33" d="M7 22c-3.866 0-7 3.134-7 7s3.134 7 7 7 7-3.134 7-7-3.133-7-7-7zm0 12c-2.761 0-5-2.238-5-5s2.239-5 5-5 5 2.238 5 5-2.238 5-5 5zm22-12c-3.865 0-7 3.134-7 7s3.135 7 7 7c3.867 0 7-3.134 7-7s-3.133-7-7-7zm0 12c-2.761 0-5-2.238-5-5s2.239-5 5-5c2.762 0 5 2.238 5 5s-2.238 5-5 5z"/><g fill="#AAB8C2"><path d="M22 20c0-.553-.484-1-1.083-1H10.083C9.485 19 9 19.447 9 20c0 .553.485 1 1.083 1h10.833c.6 0 1.084-.447 1.084-1zm8 9c0-.553-.447-1-1-1H18c-.552 0-1 .447-1 1 0 .553.448 1 1 1h11c.553 0 1-.447 1-1z"/><path d="M21.224 17l-4.166 11.664c-.185.519.086 1.092.606 1.277.111.04.224.059.336.059.411 0 .796-.255.942-.664L23.348 17h-2.124z"/><path d="M29.001 30c-.33 0-.654-.164-.845-.463l-7-11c-.297-.466-.159-1.084.307-1.381.467-.297 1.084-.159 1.381.307l7 11c.297.466.159 1.084-.307 1.381-.167.105-.352.156-.536.156zM19 25.734l-8.387-6.524c-.435-.34-1.063-.26-1.403.176-.339.437-.26 1.064.176 1.403l9 7c.182.143.398.211.613.211H19v-2.266z"/><path d="M7 30c-.104 0-.211-.017-.316-.052-.524-.174-.807-.74-.632-1.265l2.772-8.316-3.423-2.568c-.442-.331-.531-.958-.2-1.4.331-.44.957-.531 1.4-.2l4.577 3.433-3.228 9.684c-.141.419-.532.684-.95.684z"/></g><path fill="#292F33" d="M26.383 19c-.03 0-.059-.002-.089-.006l-5.672-.708c-.372-.046-.644-.374-.62-.748.023-.374.333-.665.707-.665.041 0 4.067-.018 5.989-1.299.25-.167.582-.157.824.026.239.185.337.501.241.788l-.709 2.127c-.096.293-.369.485-.671.485zM11 18H6c-.552 0-1-.448-1-1s.448-1 1-1h5c.552 0 1 .448 1 1s-.448 1-1 1z"/><path fill="#C63900" d="M21.999 13L18 16l3 3z"/><path fill="#AF7E57" d="M19.999 17s-2 3-2 4 1 4 1 7 2 3 2 2 1.581-5.419 0-7c-1-1 2-4 2-4l-3-2zm-4.314-3.703l-2.75-.784c-.447 1.956-3.023 4.486-3.935 4.486-1 0-2 0-2 1s0 1 2 1 4-2 5-3c.65-.65 1.309-1.757 1.685-2.702z"/><path fill="#DD551F" d="M21.999 13l-3 4 4 3s5-5 5-7-3-3-3-3l-3 3z"/><path fill="#FA743E" d="M20.999 6.999c-3-1-5.585-.414-7 1-1 1-1 2-1 4 0 .176-.03.362-.073.55l2.744.784c.202-.509.33-.984.33-1.334 0-1 1-1 2 0s2 2 3 2 6-4 6-4c-3.001-1-4.103-2.368-6.001-3z"/><path fill="#DD551F" d="M19 29s1 1 2 0 1 2 1 2-3 2-5 2-1-1 0-2l2-2zM11 2c2-1 6 0 4 2-1 1-7 2-7 2 0-1 1-3 3-4z"/></svg>
</svg>
<svg x="270.0" y="0.0" width="120.0" height="210.0" viewBox="-60.0 -60 120 210" xmlns="http://www.w3.org/2000/svg" xmlns:xlink="http://www.w3.org/1999/xlink">
<defs>
</defs>
<circle cx="0" cy="0" r="50" fill="white" stroke="red" stroke-width="10" />
<text x="0" y="25" font-size="20" fill="black" text-anchor="middle" dominant-baseline="middle" font-family="sans-serif">km/h</text>
<text x="0" y="-10" font-size="20" fill="black" text-anchor="middle" dominant-baseline="middle" font-family="sans-serif" font-weight="bold">96000</text>
<svg x="-40.0" y="65" width="80" height="80" viewBox="0 0 36 36" xmlns="http://www.w3.org/2000/svg"><path fill="#5DADEC" d="M33.662.049c-1.148-.077-5.869-.75-17.522 6.665C4.488 14.129-1.646 26.609 3.604 33.329c1.104 1.413 5.518 4.283 10.682.53 3.247-2.359 4.242-7.52 7.15-14.434 1.986-4.723 6.444-13.594 12.668-17.611 1.942-.97.22-1.72-.442-1.765z"/><path fill="#8CCAF7" d="M16.625 13.651c-.265-1.059.971-4.281 1.324-5.164-6.437 2.929-12.509 11.616-12.47 13.18.006.227.139.305.42.193 5.398-2.166 8.882 1.07 9.807 3.751.095.274.214.414.339.44.171.036.352-.15.494-.557C18.565 19.675 23.112 9.055 27.835 5c-2.648 1.28-10.106 6.797-11.21 8.651z"/><path fill="#BDDDF4" d="M14.242 12.989c-1.737.827-7.275 6.192-8.762 8.678.006.227.139.305.42.193 5.398-2.166 8.882 1.07 9.807 3.751.095.274.214.414.339.44.057-2.328-.092-7.616 2.213-11.561-4.061 3.707-5.076 3.618-4.017-1.501z"/><path fill="#F5F8FA" d="M8.725 23.663c-2.925 0-5.297 2.371-5.297 5.297 0 2.925 2.372 5.296 5.297 5.296s5.296-2.371 5.296-5.296c0-2.926-2.371-5.297-5.296-5.297z"/></svg>
</svg>
</svg>