<?xml version="1.0" encoding="UTF-8"?>
<svg xmlns="http://www.w3.org/2000/svg" xmlns:xlink="http://www.w3.org/1999/xlink"
     width="478.0" height="210" viewBox="0 0 478.0 210">
<defs>
</defs>
<g>
<g transform="translate(19.0, 10)">
<rect x="0" y="0" width="40" height="60" rx="4" ry="4" fill="white" stroke="black" stroke-width="1" />
<rect x="4" y="4" width="32" height="52" rx="2" ry="2" fill="#cc0000" stroke="none" />
<path d="M20.0,9 L31,30.0 L20.0,51 L9,30.0 Z" fill="#ff6666" />
</g>
<g transform="translate(69.0, 10)">
<rect x="0" y="0" width="40" height="60" rx="4" ry="4" fill="white" stroke="black" stroke-width="1" />
<rect x="4" y="4" width="32" height="52" rx="2" ry="2" fill="#cc0000" stroke="none" />
<path d="M20.0,9 L31,30.0 L20.0,51 L9,30.0 Z" fill="#ff6666" />
</g>
<g transform="translate(119.0, 10)">
<rect x="0" y="0" width="40" height="60" rx="4" ry="4" fill="white" stroke="black" stroke-width="1" />
<rect x="4" y="4" width="32" height="52" rx="2" ry="2" fill="#cc0000" stroke="none" />
<path d="M20.0,9 L31,30.0 L20.0,51 L9,30.0 Z" fill="#ff6666" />
</g>
<g transform="translate(169.0, 10)">
<rect x="0" y="0" width="40" height="60" rx="4" ry="4" fill="white" stroke="black" stroke-width="1" />
<rect x="4" y="4" width="32" height="52" rx="2" ry="2" fill="#cc0000" stroke="none" />
<path d="M20.0,9 L31,30.0 L20.0,51 L9,30.0 Z" fill="#ff6666" />
</g>
<g transform="translate(219.0, 10)">
<rect x="0" y="0" width="40" height="60" rx="4" ry="4" fill="white" stroke="black" stroke-width="1" />
<rect x="4" y="4" width="32" height="52" rx="2" ry="2" fill="#cc0000" stroke="none" />
<path d="M20.0,9 L31,30.0 L20.0,51 L9,30.0 Z" fill="#ff6666" />
</g>
<g transform="translate(269.0, 10)">
<rect x="0" y="0" width="40" height="60" rx="4" ry="4" fill="white" stroke="black" stroke-width="1" />
<rect x="4" y="4" width="32" height="52" rx="2" ry="2" fill="#cc0000" stroke="none" />
<path d="M20.0,9 L31,30.0 L20.0,51 L9,30.0 Z" fill="#ff6666" />
</g>
<g transform="translate(319.0, 10)">
<rect x="0" y="0" width="40" height="60" rx="4" ry="4" fill="white" stroke="black" stroke-width="1" />
<rect x="4" y="4" width="32" height="52" rx="2" ry="2" fill="#cc0000" stroke="none" />
<path d="M20.0,9 L31,30.0 L20.0,51 L9,30.0 Z" fill="#ff6666" />
</g>
<g transform="translate(369.0, 10)">
<rect x="0" y="0" width="40" height="60" rx="4" ry="4" fill="white" stroke="black" stroke-width="1" />
<rect x="4" y="4" width="32" height="52" rx="2" ry="2" fill="#cc0000" stroke="none" />
<path d="M20.0,9 L31,30.0 L20.0,51 L9,30.0 Z" fill="#ff6666" />
</g>
<g transform="translate(419.0, 10)">
<rect x="0" y="0" width="40" height="60" rx="4" ry="4" fill="white" stroke="black" stroke-width="1" />
<rect x="4" y="4" width="32" height="52" rx="2" ry="2" fill="#cc0000" stroke="none" />
<path d="M20.0,9 L31,30.0 L20.0,51 L9,30.0 Z" fill="#ff6666" />
</g>
<g transform="translate(10.0, 100)">
<g>
<svg x="10.0" y="10" width="80" height="80" viewBox="0 0 36 36" xmlns="http://www.w3.org/2000/svg"><path fill="#BF6952" d="M6.513.886c0 .984.649 3.926 1.153 5.047s-.505.35-1.442-.771-1.657-2.244-1.225-3.435S6.513-.446 6.513.886z"/><path fill="#D99E82" d="M.314 10.699c-.004.961 1.22 2.097 2.883 1.682 1.333-.332 3.234-1.359 3.316-.561.082.798-1.179 3.471-.629 6.276.93 4.74 2.379 8.873 7.201 10.095 0 0 .723 2.775 1.479 3.986.694 1.111 1.029 2.022.45 2.215-.579.193-3.472.386-4.694.579C9.099 35.164 8.906 36 10.256 36H17.2c.707 0 .643-.643.193-1.607s.805-2.643.598-5.332c.414.14 1.395.067 1.974.838.579.772 3.729 5.976 8.809 5.976s6.43-3.826 6.815-4.855c.386-1.029-.45-1.029-1.093-.193s-2.761 1.931-5.722 1.508c-3.151-.45-3.822-4.465-4.658-6.909-.836-2.443-2.74-6.968-7.044-9.487-3.177-1.859-5.483-1.31-5.363-3.356.178-3.033.325-5.21-1.099-6.892-1.15-1.357-3.851-1.264-5.418-.319-.697.42-1.117 1.595-1.778 2.103C1.428 8.998.317 9.848.314 10.699z"/><path fill="#D79E84" d="M6.042 22.625c-.259.531-.006 1.019-.158 1.355-.225.497-1.254.804-1.35-.032-.097-.836-.021-1.948.45-2.572.322-.427 3.279-2.797 3.408-2.893.129-.096-.354-2.893-.354-2.893s.096-1.125 1.447-.868c1.35.257 1.318 1.415 1.318 2.636s.225 2.443-.386 2.733-4.117 2.003-4.375 2.534z"/><path fill="#292F33" d="M6.657 7.405c0 .465-.387.841-.865.841s-.865-.377-.865-.841.387-.561.865-.561.865.096.865.561z"/><path fill="#D99E82" d="M9.973.255c.912-.665 1.009 1.963.793 2.804S8.891 6.073 8.891 6.073s-1.297.631-1.297-.911S9.108.886 9.973.255z"/><path fill="#BF6952" d="M10.062 2.09c.58.346-1.307 3.303-1.766 3.055-.459-.247.988-3.519 1.766-3.055z"/><path fill="#292F33" d="M.314 10.139c.869-.528 1.081.911.793 1.402-.289.49-1.37-1.052-.793-1.402z"/><path fill="#BF6952" d="M7.274 22.34c-.125 0-.244-.073-.297-.195-.071-.164.004-.354.168-.426 1.066-.464 1.99-1.182 2.367-1.533.15-.182.523-1.447.777-2.511.042-.174.219-.278.39-.24.174.042.281.216.24.39-.223.931-.645 2.536-.966 2.835-.546.508-1.546 1.216-2.55 1.652-.042.019-.086.028-.129.028z"/></svg>
<rect x="100.0" y="32.0" width="36.0" height="36.0" fill="none" stroke="black" stroke-width="2" />
</g>
</g>
<g transform="translate(166.0, 100)">
<g>
<svg x="10.0" y="10" width="80" height="80" viewBox="0 0 36 36" xmlns="http://www.w3.org/2000/svg"><path fill="#6D6E71" d="M28.688 20.312C28.688 26.217 23.904 31 18 31c-5.903 0-10.688-4.783-10.688-10.688 0-5.903 4.786-10.689 10.688-10.689 5.904.001 10.688 4.786 10.688 10.689z"/><path fill="#662113" d="M26 33.5H10c-1.665 0-2.479-1.339-2.763-2.31l-2.664-.056c-.153-.003-.297-.077-.389-.2-.092-.122-.123-.281-.083-.43l.594-2.216-2.446-.651c-.152-.041-.276-.15-.335-.296s-.046-.311.035-.445l1.199-1.993-2.156-1.192c-.139-.077-.233-.216-.254-.374-.02-.157.036-.315.151-.426l1.729-1.647-1.729-1.646c-.115-.11-.171-.268-.151-.426.021-.158.115-.297.254-.374l2.156-1.194-1.2-1.994c-.081-.135-.094-.3-.035-.445.059-.146.183-.255.335-.296l2.446-.65-.594-2.218c-.04-.148-.009-.307.083-.43s.236-.196.39-.2l2.575-.053.058-2.302c.004-.149.074-.289.192-.381.118-.092.271-.127.416-.094l2.521.561.717-2.234c.045-.139.148-.251.282-.308.136-.056.288-.051.417.014l2.284 1.139 1.341-2.009c.08-.119.208-.199.35-.218.145-.019.287.024.394.119L18 7.258l1.88-1.636c.109-.094.251-.137.395-.118.143.019.269.099.35.218l1.34 2.009 2.286-1.139c.13-.065.283-.069.417-.014.135.057.237.169.282.308l.716 2.234 2.521-.561c.146-.032.298.002.416.094s.188.232.192.381l.058 2.302 2.574.053c.153.003.297.077.389.2.093.123.123.282.083.43l-.595 2.217 2.449.65c.152.04.276.15.336.296.059.146.046.311-.035.445l-1.201 1.994 2.155 1.194c.14.077.233.216.254.374s-.036.316-.151.426l-1.729 1.646 1.729 1.647c.115.11.172.269.151.426-.021.158-.114.297-.254.374L32.854 24.9l1.2 1.993c.081.135.094.3.035.445-.06.146-.184.255-.335.296l-2.45.651.595 2.216c.04.148.01.307-.082.43-.093.123-.236.197-.39.2l-2.663.056c-.285.974-1.099 2.313-2.764 2.313z"/><path fill="#8A4B38" d="M16.188 28.824c-.022 0-.044-.001-.066-.004-.143-.019-.27-.099-.35-.219l-1.058-1.585-1.805.899c-.131.064-.283.07-.418.014-.134-.057-.237-.169-.282-.309l-.564-1.757-1.99.442c-.148.031-.299-.003-.417-.095s-.188-.231-.192-.381l-.045-1.804-2.029-.043c-.153-.003-.297-.077-.389-.2-.092-.122-.123-.281-.083-.43l.464-1.732-1.92-.51c-.152-.041-.276-.15-.335-.296s-.046-.311.035-.445l.937-1.557-1.688-.934c-.14-.077-.234-.216-.254-.374-.02-.158.036-.316.151-.426l1.352-1.289-1.352-1.287c-.115-.11-.171-.268-.151-.426.021-.158.115-.297.254-.374l1.689-.935-.937-1.558c-.081-.135-.094-.3-.035-.445.059-.146.183-.255.335-.296l1.922-.511-.466-1.732c-.04-.148-.009-.307.083-.43s.236-.196.39-.2l2.029-.042.045-1.805c.004-.149.074-.289.192-.381.117-.092.27-.127.416-.094l1.99.442.564-1.756c.045-.139.148-.251.282-.308.136-.055.287-.051.418.014l1.805.899 1.058-1.584c.08-.119.207-.199.35-.218.144-.021.287.024.395.119L18 4.172l1.484-1.291c.109-.095.253-.138.395-.119.143.019.269.099.35.218l1.057 1.583 1.807-.9c.13-.064.283-.069.417-.013.135.057.237.169.282.308l.562 1.756 1.991-.442c.146-.033.3.002.416.094.118.092.188.232.192.382l.045 1.804 2.028.042c.153.003.297.077.389.2.093.123.123.282.083.43l-.465 1.734 1.924.511c.152.041.276.15.336.296.059.146.046.311-.035.445l-.938 1.558 1.689.935c.14.077.233.216.254.374.021.158-.036.316-.151.426l-1.353 1.287 1.353 1.289c.115.11.172.268.151.426-.021.158-.115.296-.254.374l-1.688.934.938 1.557c.081.135.094.3.035.445-.06.145-.184.255-.335.296l-1.925.512.465 1.732c.04.148.01.307-.082.43-.093.123-.236.197-.39.2l-2.028.043-.045 1.804c-.004.149-.074.289-.192.381-.117.092-.271.126-.416.095l-1.991-.442-.562 1.757c-.045.139-.147.252-.282.309-.134.058-.284.053-.417-.014l-1.806-.899-1.058 1.585c-.08.12-.207.199-.35.219-.142.018-.286-.024-.395-.119L18 27.407l-1.483 1.294c-.092.08-.209.123-.329.123z"/><path fill="#8A4B38" d="M13.5 27.052h9c3.521 0 6.5 2.575 6.5 4.5 0 1.65-1.35 2-3 2H10c-1.65 0-3-.35-3-2 0-1.925 2.99-4.5 6.5-4.5z"/><path fill="#D99E82" d="M26.222 22.779c0 4.088-3.68 7.398-8.222 7.398s-8.222-3.31-8.222-7.398c0-4.087 3.68-7.4 8.222-7.4s8.222 3.313 8.222 7.4z"/><path fill="#E6E7E8" d="M21.289 26.479c0 2.043-1.473 3.699-3.289 3.699s-3.289-1.656-3.289-3.699S16.183 22.78 18 22.78s3.289 1.655 3.289 3.699z"/><path fill="#231F20" d="M19.645 27.711c0 .908-.736 1.645-1.645 1.645s-1.645-.736-1.645-1.645c0-.908.736-1.642 1.645-1.642s1.645.734 1.645 1.642zm-4.934-6.166c0 .682-.552 1.234-1.233 1.234s-1.233-.553-1.233-1.234c0-.68.552-1.232 1.233-1.232.681-.001 1.233.552 1.233 1.232zm9.044 0c0 .682-.552 1.234-1.232 1.234-.682 0-1.233-.553-1.233-1.234 0-.68.552-1.232 1.233-1.232.68-.001 1.232.552 1.232 1.232z"/><path fill="#C1694F" d="M11.422 17.846s4.111-1.644 4.933 0C17.178 19.49 18 19.49 18 19.49v-4.934c0 .001-6.578.001-6.578 3.29zm13.155 0s-4.11-1.644-4.933 0C18.822 19.49 18 19.49 18 19.49v-4.934c0 .001 6.577.001 6.577 3.29z"/><path fill="#D99E82" d="M12.245 18.256c0 1.136-.92 2.056-2.055 2.056-1.136 0-2.056-.92-2.056-2.056 0-1.135.92-2.055 2.056-2.055 1.135 0 2.055.92 2.055 2.055zm15.621 0c0 1.136-.92 2.056-2.056 2.056-1.135 0-2.056-.92-2.056-2.056 0-1.135.921-2.055 2.056-2.055 1.136 0 2.056.92 2.056 2.055zM11 35c-2 0-2-4 2-4s4.062 4 2 4h-4zm10 0c-2 0-2-4 2-4s4.062 4 2 4h-4z"/></svg>
<rect x="100.0" y="32.0" width="36.0" height="36.0" fill="none" stroke="black" stroke-width="2" />
</g>
</g>
<g transform="translate(322.0, 100)">
<g>
<svg x="10.0" y="10" width="80" height="80" viewBox="0 0 36 36" xmlns="http://www.w3.org/2000/svg"><path fill="#99AAB5" d="M13 15.689c1.945-.886 7.032-.006 8.304-.048 3.861-.127 6.58-1.305 10.332 0C35.388 16.946 36 20.327 36 24c0 .816-.465-.9-1.008-1.662 0 0 .451 3.643-.854 6.253-.664 1.328-1.631 2.557-1.631 3.753-.001 1.197.493 1.78.493 2.656 0 .892-1 .98-2 .98-.926 0-3 .02-3-.98 0-1.423.385-2.394-.312-2.083-1.729.771-6.146.5-7.771-.167-.766-.314-.43 1.598-.428 1.932C19.499 35.795 19 36 17 36c-1.741 0-3-.012-3-1s.919-2.179.281-3.781C13 28 11 31 7.999 31 5.031 31 13 15.689 13 15.689z"/><path fill="#9AAAB4" d="M3.29 20s3.045-.326 3.915-1.305c.87-.979 2.556-3.535 5.275-3.535s3.045 1.577 4.024 2.066c.978.49 2.91 3.653 1.496 5.774s-6 8-10 8c-4.84 0-5.485-.764-6.281-1.375-.792-.607-1.051-2.042-.344-2.531 0 0-1.312-1-1.131-3.287.185-2.331.707-2.61.707-2.61s.109-.924.653-1.359C2.148 19.402 3.29 20 3.29 20z"/><path fill="#F5F8FA" d="M2.691 29.65c.629.132.992-.253.777-1.4-.657.047-1.663-.816-1.663-.816-.327 1.268.012 2.032.886 2.216z"/><path fill="#67757F" d="M4.601 28.918c-1.148 0-2.333-.432-3.327-1.279-.157-.135-.176-.371-.042-.528.135-.157.372-.177.529-.042 1.306 1.115 3.371 1.657 5.039.354.497-.388.958-1.104 1.446-1.861.912-1.416 1.945-3.033 3.602-2.862.207.02.357.203.337.409-.02.205-.205.353-.409.337-1.212-.127-2.066 1.226-2.9 2.522-.523.812-1.017 1.58-1.614 2.047-.774.604-1.705.903-2.661.903z"/><path fill="#66757F" d="M1.813 20.74c.611-.543 1.694.891 1.318 1.374-.535.687-2.308-.494-1.318-1.374z"/><circle fill="#292F33" cx="10" cy="18.5" r="1"/><path fill="#9AAAB4" d="M8.238 14.889c.095-1.09 1.794-.653 2.175.979s-.42 1.168-.653.598c-.489-1.197-1.631-.327-1.522-1.577zm4.062.598c.258-.84 1.142-1.958 2.338-2.066 1.196-.109 1.523.979 1.088 1.468-.435.489-.979.163-1.305.109s-1.088.489-1.414.979c-.326.489-.924.217-.707-.49z"/></svg>
<rect x="100.0" y="32.0" width="36.0" height="36.0" fill="none" stroke="black" stroke-width="2" />
</g>
</g>
</g>
</svg>