<?xml version="1.0" ?>
<svg xmlns="http://www.w3.org/2000/svg" version="1.1" width="489.09px" height="3000px" viewBox="1255.46 0 489.09 3000">
  <polygon points="1500.00,1832.85 1306.43,1943.02 1500.00,2062.43 1693.57,1943.02" fill="#60afff" stroke="#60afff" stroke-width="0.5" stroke-linecap="round" stroke-linejoin="round"/>
  <polygon points="1693.57,1943.02 1500.00,2062.43 1500.00,2196.33 1689.82,2073.95" fill="#60afff" stroke="#60afff" stroke-width="0.5" stroke-linecap="round" stroke-linejoin="round"/>
  <polygon points="1500.00,2196.33 1500.00,2062.43 1306.43,1943.02 1310.18,2073.95" fill="#60afff" stroke="#60afff" stroke-width="0.5" stroke-linecap="round" stroke-linejoin="round"/>
  <polygon points="1500.00,1699.90 1302.54,1806.83 1500.00,1922.91 1697.46,1806.83" fill="#e2f999" stroke="#e2f999" stroke-width="0.5" stroke-linecap="round" stroke-linejoin="round"/>
  <polygon points="1500.00,2062.43 1500.00,1922.91 1302.54,1806.83 1306.43,1943.02" fill="#e2f999" stroke="#e2f999" stroke-width="0.5" stroke-linecap="round" stroke-linejoin="round"/>
  <polygon points="1697.46,1806.83 1500.00,1922.91 1500.00,2062.43 1693.57,1943.02" fill="#e2f999" stroke="#e2f999" stroke-width="0.5" stroke-linecap="round" stroke-linejoin="round"/>
  <polygon points="1500.00,1561.71 1298.49,1665.05 1500.00,1777.42 1701.51,1665.05" fill="#77c9d8" stroke="#77c9d8" stroke-width="0.5" stroke-linecap="round" stroke-linejoin="round"/>
  <polygon points="1701.51,1665.05 1500.00,1777.42 1500.00,1922.91 1697.46,1806.83" fill="#77c9d8" stroke="#77c9d8" stroke-width="0.5" stroke-linecap="round" stroke-linejoin="round"/>
  <polygon points="1500.00,1922.91 1500.00,1777.42 1298.49,1665.05 1302.54,1806.83" fill="#77c9d8" stroke="#77c9d8" stroke-width="0.5" stroke-linecap="round" stroke-linejoin="round"/>
  <polygon points="1500.00,1417.97 1294.27,1517.32 1500.00,1625.56 1705.73,1517.32" fill="#f4a8ba" stroke="#f4a8ba" stroke-width="0.5" stroke-linecap="round" stroke-linejoin="round"/>
  <polygon points="1705.73,1517.32 1500.00,1625.56 1500.00,1777.42 1701.51,1665.05" fill="#f4a8ba" stroke="#f4a8ba" stroke-width="0.5" stroke-linecap="round" stroke-linejoin="round"/>
  <polygon points="1500.00,1777.42 1500.00,1625.56 1294.27,1517.32 1298.49,1665.05" fill="#f4a8ba" stroke="#f4a8ba" stroke-width="0.5" stroke-linecap="round" stroke-linejoin="round"/>
  <polygon points="1500.00,1268.33 1289.87,1363.28 1500.00,1466.90 1710.13,1363.28" fill="#f45b3f" stroke="#f45b3f" stroke-width="0.5" stroke-linecap="round" stroke-linejoin="round"/>
  <polygon points="1500.00,1625.56 1500.00,1466.90 1289.87,1363.28 1294.27,1517.32" fill="#f45b3f" stroke="#f45b3f" stroke-width="0.5" stroke-linecap="round" stroke-linejoin="round"/>
  <polygon points="1710.13,1363.28 1500.00,1466.90 1500.00,1625.56 1705.73,1517.32" fill="#f45b3f" stroke="#f45b3f" stroke-width="0.5" stroke-linecap="round" stroke-linejoin="round"/>
  <polygon points="1500.00,1112.43 1285.27,1202.50 1500.00,1300.98 1714.73,1202.50" fill="#d3359e" stroke="#d3359e" stroke-width="0.5" stroke-linecap="round" stroke-linejoin="round"/>
  <polygon points="1500.00,1466.90 1500.00,1300.98 1285.27,1202.50 1289.87,1363.28" fill="#d3359e" stroke="#d3359e" stroke-width="0.5" stroke-linecap="round" stroke-linejoin="round"/>
  <polygon points="1714.73,1202.50 1500.00,1300.98 1500.00,1466.90 1710.13,1363.28" fill="#d3359e" stroke="#d3359e" stroke-width="0.5" stroke-linecap="round" stroke-linejoin="round"/>
  <polygon points="1513.30,807.16 1513.36,766.73 1500.00,765.82 1500.00,806.23" fill="#f7ad63" stroke="#f7ad63" stroke-width="0.5" stroke-linecap="round" stroke-linejoin="round"/>
  <polygon points="1500.00,806.23 1500.00,765.82 1486.64,766.73 1486.70,807.16" fill="#f7ad63" stroke="#f7ad63" stroke-width="0.5" stroke-linecap="round" stroke-linejoin="round"/>
  <polygon points="1486.70,807.16 1486.64,766.73 1475.32,769.36 1475.44,809.85" fill="#f7ad63" stroke="#f7ad63" stroke-width="0.5" stroke-linecap="round" stroke-linejoin="round"/>
  <polygon points="1524.56,809.85 1524.69,769.36 1513.36,766.73 1513.30,807.16" fill="#f7ad63" stroke="#f7ad63" stroke-width="0.5" stroke-linecap="round" stroke-linejoin="round"/>
  <polygon points="1475.44,809.85 1475.32,769.36 1467.67,773.30 1467.83,813.86" fill="#f7ad63" stroke="#f7ad63" stroke-width="0.5" stroke-linecap="round" stroke-linejoin="round"/>
  <polygon points="1532.17,813.86 1532.33,773.30 1524.69,769.36 1524.56,809.85" fill="#f7ad63" stroke="#f7ad63" stroke-width="0.5" stroke-linecap="round" stroke-linejoin="round"/>
  <polygon points="1500.00,949.87 1280.47,1034.53 1500.00,1127.29 1719.53,1034.53" fill="#f4f4f4" stroke="#f4f4f4" stroke-width="0.5" stroke-linecap="round" stroke-linejoin="round"/>
  <polygon points="1467.83,813.86 1467.67,773.30 1464.93,778.00 1465.11,818.65" fill="#f7ad63" stroke="#f7ad63" stroke-width="0.5" stroke-linecap="round" stroke-linejoin="round"/>
  <polygon points="1534.89,818.65 1535.07,778.00 1532.33,773.30 1532.17,813.86" fill="#f7ad63" stroke="#f7ad63" stroke-width="0.5" stroke-linecap="round" stroke-linejoin="round"/>
  <polygon points="1456.93,771.75 1453.19,778.00 1456.61,784.29 1467.49,782.72 1464.93,778.00 1467.67,773.30 1475.32,769.36 1486.64,766.73 1467.14,766.50" fill="#f7ad63" stroke="#f7ad63" stroke-width="0.5" stroke-linecap="round" stroke-linejoin="round"/>
  <polygon points="1546.81,778.00 1543.39,784.29 1543.17,825.06 1546.57,818.65" fill="#f7ad63" stroke="#f7ad63" stroke-width="0.5" stroke-linecap="round" stroke-linejoin="round"/>
  <polygon points="1456.61,784.29 1453.19,778.00 1453.43,818.65 1456.83,825.06" fill="#f7ad63" stroke="#f7ad63" stroke-width="0.5" stroke-linecap="round" stroke-linejoin="round"/>
  <polygon points="1517.76,763.01 1500.00,761.77 1482.24,763.01 1467.14,766.50 1486.64,766.73 1500.00,765.82 1513.36,766.73 1524.69,769.36 1532.33,773.30 1535.07,778.00 1532.51,782.72 1524.94,786.73 1513.55,789.42 1500.00,790.36 1486.46,789.42 1475.06,786.73 1467.49,782.72 1456.61,784.29 1466.69,789.66 1481.92,793.26 1500.00,794.54 1518.08,793.26 1533.31,789.66 1543.39,784.29 1546.81,778.00 1543.07,771.75 1532.86,766.50" fill="#f7ad63" stroke="#f7ad63" stroke-width="0.5" stroke-linecap="round" stroke-linejoin="round"/>
  <polygon points="1466.69,789.66 1456.61,784.29 1456.83,825.06 1466.86,830.52" fill="#f7ad63" stroke="#f7ad63" stroke-width="0.5" stroke-linecap="round" stroke-linejoin="round"/>
  <polygon points="1543.39,784.29 1533.31,789.66 1533.14,830.52 1543.17,825.06" fill="#f7ad63" stroke="#f7ad63" stroke-width="0.5" stroke-linecap="round" stroke-linejoin="round"/>
  <polygon points="1533.31,789.66 1518.08,793.26 1517.99,834.20 1533.14,830.52" fill="#f7ad63" stroke="#f7ad63" stroke-width="0.5" stroke-linecap="round" stroke-linejoin="round"/>
  <polygon points="1481.92,793.26 1466.69,789.66 1466.86,830.52 1482.01,834.20" fill="#f7ad63" stroke="#f7ad63" stroke-width="0.5" stroke-linecap="round" stroke-linejoin="round"/>
  <polygon points="1500.00,794.54 1481.92,793.26 1482.01,834.20 1500.00,835.50" fill="#f7ad63" stroke="#f7ad63" stroke-width="0.5" stroke-linecap="round" stroke-linejoin="round"/>
  <polygon points="1518.08,793.26 1500.00,794.54 1500.00,835.50 1517.99,834.20" fill="#f7ad63" stroke="#f7ad63" stroke-width="0.5" stroke-linecap="round" stroke-linejoin="round"/>
  <polygon points="1719.53,1034.53 1500.00,1127.29 1500.00,1300.98 1714.73,1202.50" fill="#f4f4f4" stroke="#f4f4f4" stroke-width="0.5" stroke-linecap="round" stroke-linejoin="round"/>
  <polygon points="1500.00,1300.98 1500.00,1127.29 1280.47,1034.53 1285.27,1202.50" fill="#f4f4f4" stroke="#f4f4f4" stroke-width="0.5" stroke-linecap="round" stroke-linejoin="round"/>
  <polygon points="1625.11,846.86 1625.77,805.69 1612.03,804.73 1611.45,845.89" fill="#f7ad63" stroke="#f7ad63" stroke-width="0.5" stroke-linecap="round" stroke-linejoin="round"/>
  <polygon points="1611.45,845.89 1612.03,804.73 1598.42,805.69 1597.90,846.86" fill="#f7ad63" stroke="#f7ad63" stroke-width="0.5" stroke-linecap="round" stroke-linejoin="round"/>
  <polygon points="1388.55,845.89 1387.97,804.73 1374.23,805.69 1374.89,846.86" fill="#f7ad63" stroke="#f7ad63" stroke-width="0.5" stroke-linecap="round" stroke-linejoin="round"/>
  <polygon points="1402.10,846.86 1401.58,805.69 1387.97,804.73 1388.55,845.89" fill="#f7ad63" stroke="#f7ad63" stroke-width="0.5" stroke-linecap="round" stroke-linejoin="round"/>
  <polygon points="1636.82,849.67 1637.53,808.45 1625.77,805.69 1625.11,846.86" fill="#f7ad63" stroke="#f7ad63" stroke-width="0.5" stroke-linecap="round" stroke-linejoin="round"/>
  <polygon points="1374.89,846.86 1374.23,805.69 1362.47,808.45 1363.18,849.67" fill="#f7ad63" stroke="#f7ad63" stroke-width="0.5" stroke-linecap="round" stroke-linejoin="round"/>
  <polygon points="1413.44,849.67 1412.99,808.45 1401.58,805.69 1402.10,846.86" fill="#f7ad63" stroke="#f7ad63" stroke-width="0.5" stroke-linecap="round" stroke-linejoin="round"/>
  <polygon points="1597.90,846.86 1598.42,805.69 1587.01,808.45 1586.56,849.67" fill="#f7ad63" stroke="#f7ad63" stroke-width="0.5" stroke-linecap="round" stroke-linejoin="round"/>
  <polygon points="1586.56,849.67 1587.01,808.45 1579.45,812.58 1579.04,853.87" fill="#f7ad63" stroke="#f7ad63" stroke-width="0.5" stroke-linecap="round" stroke-linejoin="round"/>
  <polygon points="1420.96,853.87 1420.55,812.58 1412.99,808.45 1413.44,849.67" fill="#f7ad63" stroke="#f7ad63" stroke-width="0.5" stroke-linecap="round" stroke-linejoin="round"/>
  <polygon points="1363.18,849.67 1362.47,808.45 1354.37,812.58 1355.13,853.87" fill="#f7ad63" stroke="#f7ad63" stroke-width="0.5" stroke-linecap="round" stroke-linejoin="round"/>
  <polygon points="1644.87,853.87 1645.63,812.58 1637.53,808.45 1636.82,849.67" fill="#f7ad63" stroke="#f7ad63" stroke-width="0.5" stroke-linecap="round" stroke-linejoin="round"/>
  <polygon points="1500.00,780.20 1275.46,858.88 1500.00,945.27 1724.54,858.88" fill="#f7ad63" stroke="#f7ad63" stroke-width="0.5" stroke-linecap="round" stroke-linejoin="round"/>
  <polygon points="1423.43,858.88 1423.03,817.49 1420.55,812.58 1420.96,853.87" fill="#f7ad63" stroke="#f7ad63" stroke-width="0.5" stroke-linecap="round" stroke-linejoin="round"/>
  <polygon points="1579.04,853.87 1579.45,812.58 1576.97,817.49 1576.57,858.88" fill="#f7ad63" stroke="#f7ad63" stroke-width="0.5" stroke-linecap="round" stroke-linejoin="round"/>
  <polygon points="1355.13,853.87 1354.37,812.58 1351.25,817.49 1352.03,858.88" fill="#f7ad63" stroke="#f7ad63" stroke-width="0.5" stroke-linecap="round" stroke-linejoin="round"/>
  <polygon points="1647.98,858.88 1648.75,817.49 1645.63,812.58 1644.87,853.87" fill="#f7ad63" stroke="#f7ad63" stroke-width="0.5" stroke-linecap="round" stroke-linejoin="round"/>
  <polygon points="1342.29,824.09 1352.24,829.71 1367.58,833.49 1361.01,826.64 1353.54,822.44 1351.25,817.49 1354.37,812.58 1362.47,808.45 1374.23,805.69 1387.97,804.73 1401.58,805.69 1412.99,808.45 1421.55,805.45 1406.34,801.79 1388.25,800.50 1369.99,801.79 1354.30,805.45 1343.49,810.95 1339.23,817.49" fill="#f7ad63" stroke="#f7ad63" stroke-width="0.5" stroke-linecap="round" stroke-linejoin="round"/>
  <polygon points="1630.01,801.79 1611.75,800.50 1593.66,801.79 1578.45,805.45 1568.36,810.95 1564.95,817.49 1568.88,824.09 1579.56,829.71 1595.40,833.49 1587.93,826.64 1579.91,822.44 1576.97,817.49 1579.45,812.58 1587.01,808.45 1598.42,805.69 1612.03,804.73 1625.77,805.69 1637.53,808.45 1645.63,812.58 1648.75,817.49 1646.46,822.44 1638.99,826.64 1627.51,829.46 1632.42,833.49 1647.76,829.71 1657.71,824.09 1660.77,817.49 1656.51,810.95 1645.70,805.45" fill="#f7ad63" stroke="#f7ad63" stroke-width="0.5" stroke-linecap="round" stroke-linejoin="round"/>
  <polygon points="1342.29,824.09 1339.23,817.49 1340.07,858.88 1343.12,865.60" fill="#f7ad63" stroke="#f7ad63" stroke-width="0.5" stroke-linecap="round" stroke-linejoin="round"/>
  <polygon points="1435.05,817.49 1431.12,824.09 1431.48,865.60 1435.39,858.88" fill="#f7ad63" stroke="#f7ad63" stroke-width="0.5" stroke-linecap="round" stroke-linejoin="round"/>
  <polygon points="1568.88,824.09 1564.95,817.49 1564.61,858.88 1568.52,865.60" fill="#f7ad63" stroke="#f7ad63" stroke-width="0.5" stroke-linecap="round" stroke-linejoin="round"/>
  <polygon points="1660.77,817.49 1657.71,824.09 1656.88,865.60 1659.93,858.88" fill="#f7ad63" stroke="#f7ad63" stroke-width="0.5" stroke-linecap="round" stroke-linejoin="round"/>
  <polygon points="1431.12,824.09 1420.44,829.71 1420.86,871.32 1431.48,865.60" fill="#f7ad63" stroke="#f7ad63" stroke-width="0.5" stroke-linecap="round" stroke-linejoin="round"/>
  <polygon points="1579.56,829.71 1568.88,824.09 1568.52,865.60 1579.14,871.32" fill="#f7ad63" stroke="#f7ad63" stroke-width="0.5" stroke-linecap="round" stroke-linejoin="round"/>
  <polygon points="1352.24,829.71 1342.29,824.09 1343.12,865.60 1353.02,871.32" fill="#f7ad63" stroke="#f7ad63" stroke-width="0.5" stroke-linecap="round" stroke-linejoin="round"/>
  <polygon points="1657.71,824.09 1647.76,829.71 1646.98,871.32 1656.88,865.60" fill="#f7ad63" stroke="#f7ad63" stroke-width="0.5" stroke-linecap="round" stroke-linejoin="round"/>
  <polygon points="1431.64,810.95 1421.55,805.45 1412.99,808.45 1420.55,812.58 1423.03,817.49 1420.09,822.44 1412.07,826.64 1400.22,829.46 1386.29,830.44 1372.49,829.46 1361.01,826.64 1367.58,833.49 1386.00,834.82 1404.60,833.49 1420.44,829.71 1431.12,824.09 1435.05,817.49" fill="#f7ad63" stroke="#f7ad63" stroke-width="0.5" stroke-linecap="round" stroke-linejoin="round"/>
  <polygon points="1647.76,829.71 1632.42,833.49 1631.72,875.17 1646.98,871.32" fill="#f7ad63" stroke="#f7ad63" stroke-width="0.5" stroke-linecap="round" stroke-linejoin="round"/>
  <polygon points="1367.58,833.49 1352.24,829.71 1353.02,871.32 1368.28,875.17" fill="#f7ad63" stroke="#f7ad63" stroke-width="0.5" stroke-linecap="round" stroke-linejoin="round"/>
  <polygon points="1595.40,833.49 1579.56,829.71 1579.14,871.32 1594.90,875.17" fill="#f7ad63" stroke="#f7ad63" stroke-width="0.5" stroke-linecap="round" stroke-linejoin="round"/>
  <polygon points="1420.44,829.71 1404.60,833.49 1405.10,875.17 1420.86,871.32" fill="#f7ad63" stroke="#f7ad63" stroke-width="0.5" stroke-linecap="round" stroke-linejoin="round"/>
  <polygon points="1500.00,1127.29 1500.00,945.27 1275.46,858.88 1280.47,1034.53" fill="#f7ad63" stroke="#f7ad63" stroke-width="0.5" stroke-linecap="round" stroke-linejoin="round"/>
  <polygon points="1724.54,858.88 1500.00,945.27 1500.00,1127.29 1719.53,1034.53" fill="#f7ad63" stroke="#f7ad63" stroke-width="0.5" stroke-linecap="round" stroke-linejoin="round"/>
  <polygon points="1386.00,834.82 1367.58,833.49 1368.28,875.17 1386.60,876.54" fill="#f7ad63" stroke="#f7ad63" stroke-width="0.5" stroke-linecap="round" stroke-linejoin="round"/>
  <polygon points="1614.00,834.82 1595.40,833.49 1594.90,875.17 1613.40,876.54" fill="#f7ad63" stroke="#f7ad63" stroke-width="0.5" stroke-linecap="round" stroke-linejoin="round"/>
  <polygon points="1404.60,833.49 1386.00,834.82 1386.60,876.54 1405.10,875.17" fill="#f7ad63" stroke="#f7ad63" stroke-width="0.5" stroke-linecap="round" stroke-linejoin="round"/>
  <polygon points="1632.42,833.49 1614.00,834.82 1613.40,876.54 1631.72,875.17" fill="#f7ad63" stroke="#f7ad63" stroke-width="0.5" stroke-linecap="round" stroke-linejoin="round"/>
  <polygon points="1595.40,833.49 1614.00,834.82 1632.42,833.49 1627.51,829.46 1613.71,830.44 1599.78,829.46 1587.93,826.64" fill="#f7ad63" stroke="#f7ad63" stroke-width="0.5" stroke-linecap="round" stroke-linejoin="round"/>
  <polygon points="1513.93,888.44 1514.00,846.51 1500.00,845.51 1500.00,887.42" fill="#f7ad63" stroke="#f7ad63" stroke-width="0.5" stroke-linecap="round" stroke-linejoin="round"/>
  <polygon points="1500.00,887.42 1500.00,845.51 1486.00,846.51 1486.07,888.44" fill="#f7ad63" stroke="#f7ad63" stroke-width="0.5" stroke-linecap="round" stroke-linejoin="round"/>
  <polygon points="1486.07,888.44 1486.00,846.51 1474.14,849.40 1474.27,891.38" fill="#f7ad63" stroke="#f7ad63" stroke-width="0.5" stroke-linecap="round" stroke-linejoin="round"/>
  <polygon points="1525.73,891.38 1525.86,849.40 1514.00,846.51 1513.93,888.44" fill="#f7ad63" stroke="#f7ad63" stroke-width="0.5" stroke-linecap="round" stroke-linejoin="round"/>
  <polygon points="1474.27,891.38 1474.14,849.40 1466.12,853.73 1466.30,895.79" fill="#f7ad63" stroke="#f7ad63" stroke-width="0.5" stroke-linecap="round" stroke-linejoin="round"/>
  <polygon points="1533.70,895.79 1533.88,853.73 1525.86,849.40 1525.73,891.38" fill="#f7ad63" stroke="#f7ad63" stroke-width="0.5" stroke-linecap="round" stroke-linejoin="round"/>
  <polygon points="1466.30,895.79 1466.12,853.73 1463.25,858.89 1463.44,901.04" fill="#f7ad63" stroke="#f7ad63" stroke-width="0.5" stroke-linecap="round" stroke-linejoin="round"/>
  <polygon points="1536.56,901.04 1536.75,858.89 1533.88,853.73 1533.70,895.79" fill="#f7ad63" stroke="#f7ad63" stroke-width="0.5" stroke-linecap="round" stroke-linejoin="round"/>
  <polygon points="1465.58,846.26 1454.87,852.02 1450.94,858.89 1454.52,865.80 1465.08,871.69 1465.92,864.07 1463.25,858.89 1466.12,853.73 1474.14,849.40 1486.00,846.51" fill="#f7ad63" stroke="#f7ad63" stroke-width="0.5" stroke-linecap="round" stroke-linejoin="round"/>
  <polygon points="1549.06,858.89 1545.48,865.80 1545.24,908.08 1548.80,901.04" fill="#f7ad63" stroke="#f7ad63" stroke-width="0.5" stroke-linecap="round" stroke-linejoin="round"/>
  <polygon points="1454.52,865.80 1450.94,858.89 1451.20,901.04 1454.76,908.08" fill="#f7ad63" stroke="#f7ad63" stroke-width="0.5" stroke-linecap="round" stroke-linejoin="round"/>
  <polygon points="1518.96,875.66 1534.92,871.69 1545.48,865.80 1549.06,858.89 1545.13,852.02 1534.42,846.26 1518.61,842.42 1500.00,841.07 1481.39,842.42 1465.58,846.26 1486.00,846.51 1500.00,845.51 1514.00,846.51 1525.86,849.40 1533.88,853.73 1536.75,858.89 1534.08,864.07 1526.15,868.47 1514.20,871.44 1500.00,872.47 1485.80,871.44 1473.85,868.47 1465.92,864.07 1465.08,871.69 1481.04,875.66 1500.00,877.06" fill="#f7ad63" stroke="#f7ad63" stroke-width="0.5" stroke-linecap="round" stroke-linejoin="round"/>
  <polygon points="1465.08,871.69 1454.52,865.80 1454.76,908.08 1465.26,914.09" fill="#f7ad63" stroke="#f7ad63" stroke-width="0.5" stroke-linecap="round" stroke-linejoin="round"/>
  <polygon points="1545.48,865.80 1534.92,871.69 1534.74,914.09 1545.24,908.08" fill="#f7ad63" stroke="#f7ad63" stroke-width="0.5" stroke-linecap="round" stroke-linejoin="round"/>
  <polygon points="1534.92,871.69 1518.96,875.66 1518.86,918.12 1534.74,914.09" fill="#f7ad63" stroke="#f7ad63" stroke-width="0.5" stroke-linecap="round" stroke-linejoin="round"/>
  <polygon points="1481.04,875.66 1465.08,871.69 1465.26,914.09 1481.14,918.12" fill="#f7ad63" stroke="#f7ad63" stroke-width="0.5" stroke-linecap="round" stroke-linejoin="round"/>
  <polygon points="1518.96,875.66 1500.00,877.06 1500.00,919.55 1518.86,918.12" fill="#f7ad63" stroke="#f7ad63" stroke-width="0.5" stroke-linecap="round" stroke-linejoin="round"/>
  <polygon points="1500.00,877.06 1481.04,875.66 1481.14,918.12 1500.00,919.55" fill="#f7ad63" stroke="#f7ad63" stroke-width="0.5" stroke-linecap="round" stroke-linejoin="round"/>
  <path d="M 1310.18 2073.95 L 1500.00 2196.33 L 1689.82 2073.95 L 1693.57 1943.02 L 1500.00 2062.43 L 1500.00 2196.33 L 1689.82 2073.95 L 1693.57 1943.02 L 1500.00 2062.43 L 1306.43 1943.02 L 1310.18 2073.95 L 1500.00 2196.33 L 1500.00 2062.43 L 1306.43 1943.02 L 1310.18 2073.95" stroke="black" stroke-width="4" fill="none" stroke-linecap="round" stroke-linejoin="round"/>
  <path d="M 1306.43 1943.02 L 1500.00 2062.43 L 1693.57 1943.02 L 1697.46 1806.83 L 1500.00 1922.91 L 1500.00 2062.43 L 1693.57 1943.02 L 1697.46 1806.83 L 1500.00 1922.91 L 1302.54 1806.83 L 1306.43 1943.02 L 1500.00 2062.43 L 1500.00 1922.91 L 1302.54 1806.83 L 1306.43 1943.02" stroke="black" stroke-width="4" fill="none" stroke-linecap="round" stroke-linejoin="round"/>
  <path d="M 1302.54 1806.83 L 1500.00 1922.91 L 1697.46 1806.83 L 1701.51 1665.05 L 1500.00 1777.42 L 1500.00 1922.91 L 1697.46 1806.83 L 1701.51 1665.05 L 1500.00 1777.42 L 1298.49 1665.05 L 1302.54 1806.83 L 1500.00 1922.91 L 1500.00 1777.42 L 1298.49 1665.05 L 1302.54 1806.83" stroke="black" stroke-width="4" fill="none" stroke-linecap="round" stroke-linejoin="round"/>
  <path d="M 1298.49 1665.05 L 1500.00 1777.42 L 1701.51 1665.05 L 1705.73 1517.32 L 1500.00 1625.56 L 1500.00 1777.42 L 1701.51 1665.05 L 1705.73 1517.32 L 1500.00 1625.56 L 1294.27 1517.32 L 1298.49 1665.05 L 1500.00 1777.42 L 1500.00 1625.56 L 1294.27 1517.32 L 1298.49 1665.05" stroke="black" stroke-width="4" fill="none" stroke-linecap="round" stroke-linejoin="round"/>
  <path d="M 1294.27 1517.32 L 1500.00 1625.56 L 1705.73 1517.32 L 1710.13 1363.28 L 1500.00 1466.90 L 1500.00 1625.56 L 1705.73 1517.32 L 1710.13 1363.28 L 1500.00 1466.90 L 1289.87 1363.28 L 1294.27 1517.32 L 1500.00 1625.56 L 1500.00 1466.90 L 1289.87 1363.28 L 1294.27 1517.32" stroke="black" stroke-width="4" fill="none" stroke-linecap="round" stroke-linejoin="round"/>
  <path d="M 1289.87 1363.28 L 1500.00 1466.90 L 1710.13 1363.28 L 1714.73 1202.50 L 1500.00 1300.98 L 1500.00 1466.90 L 1710.13 1363.28 L 1714.73 1202.50 L 1500.00 1300.98 L 1285.27 1202.50 L 1289.87 1363.28 L 1500.00 1466.90 L 1500.00 1300.98 L 1285.27 1202.50 L 1289.87 1363.28" stroke="black" stroke-width="4" fill="none" stroke-linecap="round" stroke-linejoin="round"/>
  <path d="M 1285.27 1202.50 L 1500.00 1300.98 L 1714.73 1202.50 L 1719.53 1034.53 L 1500.00 1127.29 L 1500.00 1300.98 L 1714.73 1202.50 L 1719.53 1034.53 L 1500.00 1127.29 L 1280.47 1034.53 L 1285.27 1202.50 L 1500.00 1300.98 L 1500.00 1127.29 L 1280.47 1034.53 L 1285.27 1202.50" stroke="black" stroke-width="4" fill="none" stroke-linecap="round" stroke-linejoin="round"/>
  <path d="M 1280.47 1034.53 L 1500.00 1127.29 L 1719.53 1034.53 L 1724.54 858.88 L 1500.00 945.27 L 1500.00 1127.29 L 1719.53 1034.53 L 1724.54 858.88 L 1660.39 836.40 L 1724.54 858.88 L 1500.00 945.27 L 1275.46 858.88 L 1339.61 836.40 L 1275.46 858.88 L 1280.47 1034.53 L 1500.00 1127.29 L 1500.00 945.27 L 1275.46 858.88 L 1280.47 1034.53" stroke="black" stroke-width="4" fill="none" stroke-linecap="round" stroke-linejoin="round"/>
  <path d="M 1575.95 806.82 L 1546.70 796.57 L 1575.95 806.82" stroke="black" stroke-width="4" fill="none" stroke-linecap="round" stroke-linejoin="round"/>
  <path d="M 1453.30 796.57 L 1424.05 806.82 L 1453.30 796.57" stroke="black" stroke-width="4" fill="none" stroke-linecap="round" stroke-linejoin="round"/>
  <path d="M 1500.00 765.82 L 1513.36 766.73" stroke="black" stroke-width="4" fill="none" stroke-linecap="round" stroke-linejoin="round"/>
  <path d="M 1524.69 769.36 L 1532.33 773.30" stroke="black" stroke-width="4" fill="none" stroke-linecap="round" stroke-linejoin="round"/>
  <path d="M 1500.00 761.77 L 1517.76 763.01 L 1532.86 766.50" stroke="black" stroke-width="4" fill="none" stroke-linecap="round" stroke-linejoin="round"/>
  <path d="M 1486.64 766.73 L 1475.32 769.36" stroke="black" stroke-width="4" fill="none" stroke-linecap="round" stroke-linejoin="round"/>
  <path d="M 1467.14 766.50 L 1456.93 771.75 L 1453.19 778.00 L 1456.61 784.29 L 1466.69 789.66" stroke="black" stroke-width="4" fill="none" stroke-linecap="round" stroke-linejoin="round"/>
  <path d="M 1467.67 773.30 L 1464.93 778.00" stroke="black" stroke-width="4" fill="none" stroke-linecap="round" stroke-linejoin="round"/>
  <path d="M 1475.06 786.73 L 1486.46 789.42 L 1500.00 790.36" stroke="black" stroke-width="4" fill="none" stroke-linecap="round" stroke-linejoin="round"/>
  <path d="M 1500.00 794.54 L 1518.08 793.26 L 1533.31 789.66" stroke="black" stroke-width="4" fill="none" stroke-linecap="round" stroke-linejoin="round"/>
  <path d="M 1524.94 786.73 L 1532.51 782.72 L 1535.07 778.00" stroke="black" stroke-width="4" fill="none" stroke-linecap="round" stroke-linejoin="round"/>
  <path d="M 1532.51 782.72 L 1535.07 778.00 L 1532.33 773.30 L 1524.69 769.36 L 1513.36 766.73 L 1500.00 765.82 L 1486.64 766.73 L 1475.32 769.36 L 1467.67 773.30 L 1464.93 778.00 L 1467.49 782.72 L 1475.06 786.73 L 1486.46 789.42 L 1500.00 790.36 L 1513.55 789.42 L 1524.94 786.73 L 1532.51 782.72" stroke="black" stroke-width="4" fill="none" stroke-linecap="round" stroke-linejoin="round"/>
  <path d="M 1453.19 778.00 L 1456.61 784.29 L 1466.69 789.66 L 1481.92 793.26 L 1500.00 794.54 L 1518.08 793.26 L 1533.31 789.66 L 1543.39 784.29 L 1546.81 778.00 L 1543.07 771.75 L 1532.86 766.50 L 1517.76 763.01 L 1500.00 761.77 L 1482.24 763.01 L 1467.14 766.50 L 1456.93 771.75 L 1453.19 778.00 L 1453.43 818.65 L 1456.83 825.06 L 1466.86 830.52 L 1482.01 834.20 L 1500.00 835.50 L 1517.99 834.20 L 1533.14 830.52 L 1543.17 825.06 L 1546.57 818.65 L 1546.81 778.00" stroke="black" stroke-width="4" fill="none" stroke-linecap="round" stroke-linejoin="round"/>
  <path d="M 1587.01 808.45 L 1598.42 805.69 L 1612.03 804.73 L 1625.77 805.69" stroke="black" stroke-width="4" fill="none" stroke-linecap="round" stroke-linejoin="round"/>
  <path d="M 1637.53 808.45 L 1645.63 812.58" stroke="black" stroke-width="4" fill="none" stroke-linecap="round" stroke-linejoin="round"/>
  <path d="M 1611.75 800.50 L 1630.01 801.79 L 1645.70 805.45" stroke="black" stroke-width="4" fill="none" stroke-linecap="round" stroke-linejoin="round"/>
  <path d="M 1578.45 805.45 L 1568.36 810.95 L 1564.95 817.49 L 1568.88 824.09 L 1579.56 829.71" stroke="black" stroke-width="4" fill="none" stroke-linecap="round" stroke-linejoin="round"/>
  <path d="M 1587.93 826.64 L 1599.78 829.46 L 1613.71 830.44 L 1627.51 829.46" stroke="black" stroke-width="4" fill="none" stroke-linecap="round" stroke-linejoin="round"/>
  <path d="M 1614.00 834.82 L 1632.42 833.49 L 1647.76 829.71" stroke="black" stroke-width="4" fill="none" stroke-linecap="round" stroke-linejoin="round"/>
  <path d="M 1638.99 826.64 L 1646.46 822.44 L 1648.75 817.49 L 1645.63 812.58 L 1637.53 808.45 L 1625.77 805.69 L 1612.03 804.73 L 1598.42 805.69 L 1587.01 808.45 L 1579.45 812.58 L 1576.97 817.49 L 1579.91 822.44 L 1587.93 826.64 L 1599.78 829.46 L 1613.71 830.44 L 1627.51 829.46 L 1638.99 826.64 L 1646.46 822.44" stroke="black" stroke-width="4" fill="none" stroke-linecap="round" stroke-linejoin="round"/>
  <path d="M 1564.95 817.49 L 1568.88 824.09 L 1579.56 829.71 L 1595.40 833.49 L 1614.00 834.82 L 1632.42 833.49 L 1647.76 829.71 L 1657.71 824.09 L 1660.77 817.49 L 1656.51 810.95 L 1645.70 805.45 L 1630.01 801.79 L 1611.75 800.50 L 1593.66 801.79 L 1578.45 805.45 L 1568.36 810.95 L 1564.95 817.49 L 1564.61 858.88 L 1568.52 865.60 L 1579.14 871.32 L 1594.90 875.17 L 1613.40 876.54 L 1631.72 875.17 L 1646.98 871.32 L 1656.88 865.60 L 1659.93 858.88 L 1660.77 817.49" stroke="black" stroke-width="4" fill="none" stroke-linecap="round" stroke-linejoin="round"/>
  <path d="M 1412.99 808.45 L 1420.55 812.58 L 1423.03 817.49 L 1420.09 822.44 L 1412.07 826.64" stroke="black" stroke-width="4" fill="none" stroke-linecap="round" stroke-linejoin="round"/>
  <path d="M 1388.25 800.50 L 1406.34 801.79 L 1421.55 805.45" stroke="black" stroke-width="4" fill="none" stroke-linecap="round" stroke-linejoin="round"/>
  <path d="M 1374.23 805.69 L 1362.47 808.45" stroke="black" stroke-width="4" fill="none" stroke-linecap="round" stroke-linejoin="round"/>
  <path d="M 1354.30 805.45 L 1343.49 810.95 L 1339.23 817.49 L 1342.29 824.09 L 1352.24 829.71" stroke="black" stroke-width="4" fill="none" stroke-linecap="round" stroke-linejoin="round"/>
  <path d="M 1354.37 812.58 L 1351.25 817.49 L 1353.54 822.44" stroke="black" stroke-width="4" fill="none" stroke-linecap="round" stroke-linejoin="round"/>
  <path d="M 1361.01 826.64 L 1372.49 829.46" stroke="black" stroke-width="4" fill="none" stroke-linecap="round" stroke-linejoin="round"/>
  <path d="M 1386.00 834.82 L 1404.60 833.49 L 1420.44 829.71" stroke="black" stroke-width="4" fill="none" stroke-linecap="round" stroke-linejoin="round"/>
  <path d="M 1420.09 822.44 L 1423.03 817.49 L 1420.55 812.58 L 1412.99 808.45 L 1401.58 805.69 L 1387.97 804.73 L 1374.23 805.69 L 1362.47 808.45 L 1354.37 812.58 L 1351.25 817.49 L 1353.54 822.44 L 1361.01 826.64 L 1372.49 829.46 L 1386.29 830.44 L 1400.22 829.46 L 1412.07 826.64 L 1420.09 822.44" stroke="black" stroke-width="4" fill="none" stroke-linecap="round" stroke-linejoin="round"/>
  <path d="M 1339.23 817.49 L 1342.29 824.09 L 1352.24 829.71 L 1367.58 833.49 L 1386.00 834.82 L 1404.60 833.49 L 1420.44 829.71 L 1431.12 824.09 L 1435.05 817.49 L 1431.64 810.95 L 1421.55 805.45 L 1406.34 801.79 L 1388.25 800.50 L 1369.99 801.79 L 1354.30 805.45 L 1343.49 810.95 L 1339.23 817.49 L 1340.07 858.88 L 1343.12 865.60 L 1353.02 871.32 L 1368.28 875.17 L 1386.60 876.54 L 1405.10 875.17 L 1420.86 871.32 L 1431.48 865.60 L 1435.39 858.88 L 1435.05 817.49" stroke="black" stroke-width="4" fill="none" stroke-linecap="round" stroke-linejoin="round"/>
  <path d="M 1525.86 849.40 L 1533.88 853.73 L 1536.75 858.89" stroke="black" stroke-width="4" fill="none" stroke-linecap="round" stroke-linejoin="round"/>
  <path d="M 1500.00 841.07 L 1518.61 842.43 L 1534.42 846.26" stroke="black" stroke-width="4" fill="none" stroke-linecap="round" stroke-linejoin="round"/>
  <path d="M 1500.00 845.51 L 1486.00 846.51 L 1474.14 849.40" stroke="black" stroke-width="4" fill="none" stroke-linecap="round" stroke-linejoin="round"/>
  <path d="M 1465.58 846.26 L 1454.87 852.02 L 1450.94 858.89 L 1454.52 865.80 L 1465.08 871.69" stroke="black" stroke-width="4" fill="none" stroke-linecap="round" stroke-linejoin="round"/>
  <path d="M 1463.25 858.89 L 1465.92 864.07" stroke="black" stroke-width="4" fill="none" stroke-linecap="round" stroke-linejoin="round"/>
  <path d="M 1473.85 868.47 L 1485.80 871.44" stroke="black" stroke-width="4" fill="none" stroke-linecap="round" stroke-linejoin="round"/>
  <path d="M 1500.00 872.47 L 1514.20 871.44" stroke="black" stroke-width="4" fill="none" stroke-linecap="round" stroke-linejoin="round"/>
  <path d="M 1500.00 877.06 L 1518.96 875.66 L 1534.92 871.69" stroke="black" stroke-width="4" fill="none" stroke-linecap="round" stroke-linejoin="round"/>
  <path d="M 1526.15 868.47 L 1534.08 864.07 L 1536.75 858.89 L 1533.88 853.73 L 1525.86 849.40 L 1514.00 846.51 L 1500.00 845.51 L 1486.00 846.51 L 1474.14 849.40 L 1466.12 853.73 L 1463.25 858.89 L 1465.92 864.07 L 1473.85 868.47 L 1485.80 871.44 L 1500.00 872.47 L 1514.20 871.44 L 1526.15 868.47 L 1534.08 864.07" stroke="black" stroke-width="4" fill="none" stroke-linecap="round" stroke-linejoin="round"/>
  <path d="M 1450.94 858.89 L 1454.52 865.80 L 1465.08 871.69 L 1481.04 875.66 L 1500.00 877.06 L 1518.96 875.66 L 1534.92 871.69 L 1545.48 865.80 L 1549.06 858.89 L 1545.13 852.02 L 1534.42 846.26 L 1518.61 842.43 L 1500.00 841.07 L 1481.39 842.43 L 1465.58 846.26 L 1454.87 852.02 L 1450.94 858.89 L 1451.20 901.04 L 1454.76 908.08 L 1465.26 914.09 L 1481.14 918.12 L 1500.00 919.55 L 1518.86 918.12 L 1534.74 914.09 L 1545.24 908.08 L 1548.80 901.04 L 1549.06 858.89" stroke="black" stroke-width="4" fill="none" stroke-linecap="round" stroke-linejoin="round"/>
  <path d="M 1532.55 773.68 L 1532.33 773.30 L 1524.69 769.36 L 1513.36 766.73 L 1500.00 765.82 L 1486.64 766.73 L 1475.32 769.36 L 1467.67 773.30 L 1464.93 778.00 L 1467.49 782.72 L 1475.06 786.73 L 1486.46 789.42 L 1500.00 790.36 L 1513.55 789.42 L 1524.94 786.73 L 1532.51 782.72 L 1535.07 778.00" stroke="black" stroke-width="4" fill="none" stroke-linecap="round" stroke-linejoin="round"/>
  <path d="M 1543.39 784.29 L 1546.81 778.00 L 1543.07 771.75 L 1532.86 766.50 L 1517.76 763.01 L 1500.00 761.77 L 1482.24 763.01 L 1467.14 766.50 L 1456.93 771.75 L 1453.19 778.00 L 1456.61 784.29 L 1466.69 789.66 L 1481.92 793.26 L 1500.00 794.54 L 1518.08 793.26 L 1533.31 789.66 L 1543.39 784.29" stroke="black" stroke-width="4" fill="none" stroke-linecap="round" stroke-linejoin="round"/>
  <path d="M 1646.62 814.13 L 1645.63 812.58 L 1637.53 808.45 L 1625.77 805.69 L 1612.03 804.73 L 1598.42 805.69 L 1587.01 808.45 L 1579.45 812.58 L 1576.97 817.49 L 1579.91 822.44 L 1587.93 826.64 L 1599.78 829.46 L 1613.71 830.44 L 1627.51 829.46 L 1638.99 826.64 L 1646.46 822.44 L 1648.75 817.49" stroke="black" stroke-width="4" fill="none" stroke-linecap="round" stroke-linejoin="round"/>
  <path d="M 1657.71 824.09 L 1660.77 817.49 L 1656.51 810.95 L 1645.70 805.45 L 1630.01 801.79 L 1611.75 800.50 L 1593.66 801.79 L 1578.45 805.45 L 1568.36 810.95 L 1564.95 817.49 L 1568.88 824.09 L 1579.56 829.71 L 1595.40 833.49 L 1614.00 834.82 L 1632.42 833.49 L 1647.76 829.71 L 1657.71 824.09" stroke="black" stroke-width="4" fill="none" stroke-linecap="round" stroke-linejoin="round"/>
  <path d="M 1420.09 822.44 L 1423.03 817.49 L 1420.55 812.58 L 1412.99 808.45 L 1401.58 805.69 L 1387.97 804.73 L 1374.23 805.69 L 1362.47 808.45 L 1354.37 812.58 L 1351.25 817.49 L 1353.54 822.44 L 1361.01 826.64 L 1372.49 829.46 L 1386.29 830.44 L 1400.22 829.46 L 1412.07 826.64 L 1420.09 822.44" stroke="black" stroke-width="4" fill="none" stroke-linecap="round" stroke-linejoin="round"/>
  <path d="M 1431.12 824.09 L 1435.05 817.49 L 1431.64 810.95 L 1421.55 805.45 L 1406.34 801.79 L 1388.25 800.50 L 1369.99 801.79 L 1354.30 805.45 L 1343.49 810.95 L 1339.23 817.49 L 1342.29 824.09 L 1352.24 829.71 L 1367.58 833.49 L 1386.00 834.82 L 1404.60 833.49 L 1420.44 829.71 L 1431.12 824.09" stroke="black" stroke-width="4" fill="none" stroke-linecap="round" stroke-linejoin="round"/>
  <path d="M 1534.08 864.07 L 1536.75 858.89 L 1533.88 853.73 L 1525.86 849.40 L 1514.00 846.51 L 1500.00 845.51 L 1486.00 846.51 L 1474.14 849.40 L 1466.12 853.73 L 1463.25 858.89 L 1465.92 864.07 L 1473.85 868.47 L 1485.80 871.44 L 1500.00 872.47 L 1514.20 871.44 L 1526.15 868.47 L 1534.08 864.07" stroke="black" stroke-width="4" fill="none" stroke-linecap="round" stroke-linejoin="round"/>
  <path d="M 1545.56 852.77 L 1545.13 852.02 L 1534.42 846.26 L 1518.61 842.43 L 1500.00 841.07 L 1481.39 842.43 L 1465.58 846.26 L 1454.87 852.02 L 1450.94 858.89 L 1454.52 865.80 L 1465.08 871.69 L 1481.04 875.66 L 1500.00 877.06 L 1518.96 875.66 L 1534.92 871.69 L 1545.48 865.80 L 1549.06 858.89" stroke="black" stroke-width="4" fill="none" stroke-linecap="round" stroke-linejoin="round"/>
  <path d="M 1724.54 858.88 L 1660.39 836.40" stroke="black" stroke-width="4" fill="none" stroke-linecap="round" stroke-linejoin="round"/>
  <path d="M 1575.95 806.82 L 1546.70 796.57" stroke="black" stroke-width="4" fill="none" stroke-linecap="round" stroke-linejoin="round"/>
  <path d="M 1453.30 796.57 L 1424.05 806.82" stroke="black" stroke-width="4" fill="none" stroke-linecap="round" stroke-linejoin="round"/>
  <path d="M 1339.61 836.40 L 1275.46 858.88 L 1500.00 945.27 L 1724.54 858.88 L 1719.53 1034.53 L 1500.00 1127.29 L 1719.53 1034.53 L 1500.00 1127.29 L 1280.47 1034.53 L 1500.00 1127.29 L 1500.00 1300.98 L 1285.27 1202.50 L 1500.00 1300.98 L 1714.73 1202.50 L 1500.00 1300.98 L 1714.73 1202.50 L 1719.53 1034.53 L 1500.00 1127.29 L 1280.47 1034.53 L 1285.27 1202.50 L 1500.00 1300.98 L 1500.00 1466.90 L 1289.87 1363.28 L 1285.27 1202.50 L 1500.00 1300.98 L 1714.73 1202.50 L 1710.13 1363.28 L 1500.00 1466.90 L 1710.13 1363.28 L 1500.00 1466.90 L 1289.87 1363.28 L 1500.00 1466.90 L 1500.00 1625.56 L 1294.27 1517.32 L 1289.87 1363.28 L 1500.00 1466.90 L 1710.13 1363.28 L 1705.73 1517.32 L 1500.00 1625.56 L 1705.73 1517.32 L 1500.00 1625.56 L 1294.27 1517.32 L 1500.00 1625.56 L 1500.00 1777.42 L 1298.49 1665.05 L 1500.00 1777.42 L 1701.51 1665.05 L 1500.00 1777.42 L 1701.51 1665.05 L 1705.73 1517.32 L 1500.00 1625.56 L 1294.27 1517.32 L 1298.49 1665.05 L 1500.00 1777.42 L 1500.00 1922.91 L 1302.54 1806.83 L 1298.49 1665.05 L 1500.00 1777.42 L 1701.51 1665.05 L 1697.46 1806.83 L 1500.00 1922.91 L 1697.46 1806.83 L 1500.00 1922.91 L 1302.54 1806.83 L 1500.00 1922.91 L 1500.00 2062.43 L 1306.43 1943.02 L 1500.00 2062.43 L 1693.57 1943.02 L 1500.00 2062.43 L 1693.57 1943.02 L 1697.46 1806.83 L 1500.00 1922.91 L 1302.54 1806.83 L 1306.43 1943.02 L 1500.00 2062.43 L 1500.00 2196.33 L 1310.18 2073.95 L 1306.43 1943.02 L 1500.00 2062.43 L 1693.57 1943.02 L 1689.82 2073.95 L 1500.00 2196.33" stroke="black" stroke-width="4" fill="none" stroke-linecap="round" stroke-linejoin="round"/>
  <path d="M 1500.00 945.27 L 1500.00 1127.29 L 1280.47 1034.53 L 1275.46 858.88" stroke="black" stroke-width="4" fill="none" stroke-linecap="round" stroke-linejoin="round"/>
  <path d="M 1546.57 818.65 L 1543.17 825.06 L 1533.14 830.52 L 1517.99 834.20 L 1500.00 835.50" stroke="black" stroke-width="4" fill="none" stroke-linecap="round" stroke-linejoin="round"/>
  <path d="M 1659.93 858.88 L 1656.88 865.60 L 1646.98 871.32 L 1631.72 875.17 L 1613.40 876.54 L 1594.90 875.17 L 1579.14 871.32 L 1568.52 865.60 L 1564.61 858.88" stroke="black" stroke-width="4" fill="none" stroke-linecap="round" stroke-linejoin="round"/>
  <path d="M 1548.80 901.04 L 1545.24 908.08 L 1534.74 914.09 L 1518.86 918.12 L 1500.00 919.55" stroke="black" stroke-width="4" fill="none" stroke-linecap="round" stroke-linejoin="round"/>
  <path d="M 1435.39 858.88 L 1431.48 865.60 L 1420.86 871.32 L 1405.10 875.17 L 1386.60 876.54 L 1368.28 875.17 L 1353.02 871.32 L 1343.12 865.60 L 1340.07 858.88 L 1342.90 854.43" stroke="black" stroke-width="4" fill="none" stroke-linecap="round" stroke-linejoin="round"/>
  <path d="M 1482.01 834.20 L 1466.86 830.52 L 1456.83 825.06 L 1453.43 818.65" stroke="black" stroke-width="4" fill="none" stroke-linecap="round" stroke-linejoin="round"/>
  <path d="M 1481.14 918.12 L 1465.26 914.09 L 1454.76 908.08 L 1451.20 901.04" stroke="black" stroke-width="4" fill="none" stroke-linecap="round" stroke-linejoin="round"/>
</svg>
