<?xml version="1.0" ?>
<svg xmlns="http://www.w3.org/2000/svg" version="1.1" width="589.92px" height="3000px" viewBox="1210.27 0 589.92 3000">
  <polygon points="1446.02,1342.28 1446.18,1364.44 1449.16,1357.69 1449.01,1335.58" fill="#e2f999" stroke="#e2f999" stroke-width="0.5" stroke-linecap="round" stroke-linejoin="round"/>
  <polygon points="1373.94,1335.58 1374.32,1357.69 1376.78,1364.44 1376.41,1342.28" fill="#e2f999" stroke="#e2f999" stroke-width="0.5" stroke-linecap="round" stroke-linejoin="round"/>
  <polygon points="1396.39,1351.86 1410.78,1353.20 1425.28,1351.86 1437.69,1348.02 1446.02,1342.28 1449.01,1335.58 1446.34,1328.92 1438.37,1323.28 1426.35,1319.53 1412.16,1318.23 1397.87,1319.53 1385.55,1323.28 1377.14,1328.92 1373.94,1335.58 1376.41,1342.28 1384.28,1348.02" fill="#e2f999" stroke="#e2f999" stroke-width="0.5" stroke-linecap="round" stroke-linejoin="round"/>
  <polygon points="1376.41,1342.28 1376.78,1364.44 1384.63,1370.22 1384.28,1348.02" fill="#e2f999" stroke="#e2f999" stroke-width="0.5" stroke-linecap="round" stroke-linejoin="round"/>
  <polygon points="1437.69,1348.02 1437.88,1370.22 1446.18,1364.44 1446.02,1342.28" fill="#e2f999" stroke="#e2f999" stroke-width="0.5" stroke-linecap="round" stroke-linejoin="round"/>
  <polygon points="1384.28,1348.02 1384.63,1370.22 1396.70,1374.09 1396.39,1351.86" fill="#e2f999" stroke="#e2f999" stroke-width="0.5" stroke-linecap="round" stroke-linejoin="round"/>
  <polygon points="1425.28,1351.86 1425.50,1374.09 1437.88,1370.22 1437.69,1348.02" fill="#e2f999" stroke="#e2f999" stroke-width="0.5" stroke-linecap="round" stroke-linejoin="round"/>
  <polygon points="1410.78,1353.20 1411.05,1375.44 1425.50,1374.09 1425.28,1351.86" fill="#e2f999" stroke="#e2f999" stroke-width="0.5" stroke-linecap="round" stroke-linejoin="round"/>
  <polygon points="1396.39,1351.86 1396.70,1374.09 1411.05,1375.44 1410.78,1353.20" fill="#e2f999" stroke="#e2f999" stroke-width="0.5" stroke-linecap="round" stroke-linejoin="round"/>
  <polygon points="1535.46,1384.55 1535.35,1406.99 1538.12,1399.99 1538.24,1377.59" fill="#e2f999" stroke="#e2f999" stroke-width="0.5" stroke-linecap="round" stroke-linejoin="round"/>
  <polygon points="1461.76,1377.59 1461.88,1399.99 1464.65,1406.99 1464.54,1384.55" fill="#e2f999" stroke="#e2f999" stroke-width="0.5" stroke-linecap="round" stroke-linejoin="round"/>
  <polygon points="1281.39,1377.59 1282.06,1399.99 1284.29,1406.99 1283.62,1384.55" fill="#e2f999" stroke="#e2f999" stroke-width="0.5" stroke-linecap="round" stroke-linejoin="round"/>
  <polygon points="1354.54,1384.55 1354.99,1406.99 1358.30,1399.99 1357.87,1377.59" fill="#e2f999" stroke="#e2f999" stroke-width="0.5" stroke-linecap="round" stroke-linejoin="round"/>
  <polygon points="1485.28,1394.49 1500.00,1395.88 1514.72,1394.49 1527.21,1390.50 1535.46,1384.55 1538.24,1377.59 1535.24,1370.68 1526.90,1364.82 1514.50,1360.94 1500.00,1359.59 1485.50,1360.94 1473.10,1364.82 1464.76,1370.68 1461.76,1377.59 1464.54,1384.55 1472.79,1390.50" fill="#e2f999" stroke="#e2f999" stroke-width="0.5" stroke-linecap="round" stroke-linejoin="round"/>
  <polygon points="1291.40,1390.50 1303.58,1394.49 1318.19,1395.88 1333.02,1394.49 1345.82,1390.50 1354.54,1384.55 1357.87,1377.59 1355.42,1370.68 1347.55,1364.82 1335.45,1360.94 1321.05,1359.59 1306.45,1360.94 1293.74,1364.82 1284.93,1370.68 1281.39,1377.59 1283.62,1384.55" fill="#e2f999" stroke="#e2f999" stroke-width="0.5" stroke-linecap="round" stroke-linejoin="round"/>
  <polygon points="1283.62,1384.55 1284.29,1406.99 1292.04,1412.99 1291.40,1390.50" fill="#e2f999" stroke="#e2f999" stroke-width="0.5" stroke-linecap="round" stroke-linejoin="round"/>
  <polygon points="1464.54,1384.55 1464.65,1406.99 1472.88,1412.99 1472.79,1390.50" fill="#e2f999" stroke="#e2f999" stroke-width="0.5" stroke-linecap="round" stroke-linejoin="round"/>
  <polygon points="1527.21,1390.50 1527.12,1412.99 1535.35,1406.99 1535.46,1384.55" fill="#e2f999" stroke="#e2f999" stroke-width="0.5" stroke-linecap="round" stroke-linejoin="round"/>
  <polygon points="1345.82,1390.50 1346.29,1412.99 1354.99,1406.99 1354.54,1384.55" fill="#e2f999" stroke="#e2f999" stroke-width="0.5" stroke-linecap="round" stroke-linejoin="round"/>
  <polygon points="1291.40,1390.50 1292.04,1412.99 1304.18,1417.00 1303.58,1394.49" fill="#e2f999" stroke="#e2f999" stroke-width="0.5" stroke-linecap="round" stroke-linejoin="round"/>
  <polygon points="1472.79,1390.50 1472.88,1412.99 1485.33,1417.00 1485.28,1394.49" fill="#e2f999" stroke="#e2f999" stroke-width="0.5" stroke-linecap="round" stroke-linejoin="round"/>
  <polygon points="1514.72,1394.49 1514.67,1417.00 1527.12,1412.99 1527.21,1390.50" fill="#e2f999" stroke="#e2f999" stroke-width="0.5" stroke-linecap="round" stroke-linejoin="round"/>
  <polygon points="1333.02,1394.49 1333.53,1417.00 1346.29,1412.99 1345.82,1390.50" fill="#e2f999" stroke="#e2f999" stroke-width="0.5" stroke-linecap="round" stroke-linejoin="round"/>
  <polygon points="1500.00,1395.88 1500.00,1418.40 1514.67,1417.00 1514.72,1394.49" fill="#e2f999" stroke="#e2f999" stroke-width="0.5" stroke-linecap="round" stroke-linejoin="round"/>
  <polygon points="1303.58,1394.49 1304.18,1417.00 1318.75,1418.40 1318.19,1395.88" fill="#e2f999" stroke="#e2f999" stroke-width="0.5" stroke-linecap="round" stroke-linejoin="round"/>
  <polygon points="1318.19,1395.88 1318.75,1418.40 1333.53,1417.00 1333.02,1394.49" fill="#e2f999" stroke="#e2f999" stroke-width="0.5" stroke-linecap="round" stroke-linejoin="round"/>
  <polygon points="1485.28,1394.49 1485.33,1417.00 1500.00,1418.40 1500.00,1395.88" fill="#e2f999" stroke="#e2f999" stroke-width="0.5" stroke-linecap="round" stroke-linejoin="round"/>
  <polygon points="1413.33,1316.92 1230.27,1399.99 1597.17,1586.25 1780.20,1489.50" fill="#e2f999" stroke="#e2f999" stroke-width="0.5" stroke-linecap="round" stroke-linejoin="round"/>
  <polygon points="1552.94,1421.21 1552.77,1443.89 1555.88,1451.17 1556.05,1428.43" fill="#e2f999" stroke="#e2f999" stroke-width="0.5" stroke-linecap="round" stroke-linejoin="round"/>
  <polygon points="1628.33,1428.43 1627.93,1451.17 1630.47,1443.89 1630.87,1421.21" fill="#e2f999" stroke="#e2f999" stroke-width="0.5" stroke-linecap="round" stroke-linejoin="round"/>
  <polygon points="1443.95,1428.43 1444.12,1451.17 1447.23,1443.89 1447.06,1421.21" fill="#e2f999" stroke="#e2f999" stroke-width="0.5" stroke-linecap="round" stroke-linejoin="round"/>
  <polygon points="1369.13,1421.21 1369.53,1443.89 1372.07,1451.17 1371.67,1428.43" fill="#e2f999" stroke="#e2f999" stroke-width="0.5" stroke-linecap="round" stroke-linejoin="round"/>
  <polygon points="1392.40,1438.76 1407.34,1440.21 1422.40,1438.76 1435.29,1434.62 1443.95,1428.43 1447.06,1421.21 1444.29,1414.03 1436.03,1407.95 1423.55,1403.91 1408.83,1402.51 1394.00,1403.91 1381.20,1407.95 1372.46,1414.03 1369.13,1421.21 1371.67,1428.43 1379.83,1434.62" fill="#e2f999" stroke="#e2f999" stroke-width="0.5" stroke-linecap="round" stroke-linejoin="round"/>
  <polygon points="1552.94,1421.21 1556.05,1428.43 1564.71,1434.62 1577.60,1438.76 1592.66,1440.21 1607.60,1438.76 1620.17,1434.62 1628.33,1428.43 1630.87,1421.21 1627.54,1414.03 1618.80,1407.95 1606.00,1403.91 1591.17,1402.51 1576.45,1403.91 1563.97,1407.95 1555.71,1414.03" fill="#e2f999" stroke="#e2f999" stroke-width="0.5" stroke-linecap="round" stroke-linejoin="round"/>
  <polygon points="1620.17,1434.62 1619.79,1457.39 1627.93,1451.17 1628.33,1428.43" fill="#e2f999" stroke="#e2f999" stroke-width="0.5" stroke-linecap="round" stroke-linejoin="round"/>
  <polygon points="1556.05,1428.43 1555.88,1451.17 1564.50,1457.39 1564.71,1434.62" fill="#e2f999" stroke="#e2f999" stroke-width="0.5" stroke-linecap="round" stroke-linejoin="round"/>
  <polygon points="1435.29,1434.62 1435.50,1457.39 1444.12,1451.17 1443.95,1428.43" fill="#e2f999" stroke="#e2f999" stroke-width="0.5" stroke-linecap="round" stroke-linejoin="round"/>
  <polygon points="1371.67,1428.43 1372.07,1451.17 1380.21,1457.39 1379.83,1434.62" fill="#e2f999" stroke="#e2f999" stroke-width="0.5" stroke-linecap="round" stroke-linejoin="round"/>
  <polygon points="1564.71,1434.62 1564.50,1457.39 1577.36,1461.57 1577.60,1438.76" fill="#e2f999" stroke="#e2f999" stroke-width="0.5" stroke-linecap="round" stroke-linejoin="round"/>
  <polygon points="1607.60,1438.76 1607.26,1461.57 1619.79,1457.39 1620.17,1434.62" fill="#e2f999" stroke="#e2f999" stroke-width="0.5" stroke-linecap="round" stroke-linejoin="round"/>
  <polygon points="1422.40,1438.76 1422.64,1461.57 1435.50,1457.39 1435.29,1434.62" fill="#e2f999" stroke="#e2f999" stroke-width="0.5" stroke-linecap="round" stroke-linejoin="round"/>
  <polygon points="1379.83,1434.62 1380.21,1457.39 1392.74,1461.57 1392.40,1438.76" fill="#e2f999" stroke="#e2f999" stroke-width="0.5" stroke-linecap="round" stroke-linejoin="round"/>
  <polygon points="1407.34,1440.21 1407.63,1463.02 1422.64,1461.57 1422.40,1438.76" fill="#e2f999" stroke="#e2f999" stroke-width="0.5" stroke-linecap="round" stroke-linejoin="round"/>
  <polygon points="1592.66,1440.21 1592.37,1463.02 1607.26,1461.57 1607.60,1438.76" fill="#e2f999" stroke="#e2f999" stroke-width="0.5" stroke-linecap="round" stroke-linejoin="round"/>
  <polygon points="1577.60,1438.76 1577.36,1461.57 1592.37,1463.02 1592.66,1440.21" fill="#e2f999" stroke="#e2f999" stroke-width="0.5" stroke-linecap="round" stroke-linejoin="round"/>
  <polygon points="1392.40,1438.76 1392.74,1461.57 1407.63,1463.02 1407.34,1440.21" fill="#e2f999" stroke="#e2f999" stroke-width="0.5" stroke-linecap="round" stroke-linejoin="round"/>
  <polygon points="1595.29,1724.62 1597.17,1586.25 1230.27,1399.99 1235.12,1531.55" fill="#e2f999" stroke="#e2f999" stroke-width="0.5" stroke-linecap="round" stroke-linejoin="round"/>
  <polygon points="1536.85,1474.03 1536.73,1497.06 1539.60,1489.50 1539.73,1466.52" fill="#e2f999" stroke="#e2f999" stroke-width="0.5" stroke-linecap="round" stroke-linejoin="round"/>
  <polygon points="1460.27,1466.52 1460.40,1489.50 1463.27,1497.06 1463.15,1474.03" fill="#e2f999" stroke="#e2f999" stroke-width="0.5" stroke-linecap="round" stroke-linejoin="round"/>
  <polygon points="1724.83,1474.03 1724.12,1497.06 1726.40,1489.50 1727.12,1466.52" fill="#e2f999" stroke="#e2f999" stroke-width="0.5" stroke-linecap="round" stroke-linejoin="round"/>
  <polygon points="1647.67,1466.52 1647.20,1489.50 1650.66,1497.06 1651.14,1474.03" fill="#e2f999" stroke="#e2f999" stroke-width="0.5" stroke-linecap="round" stroke-linejoin="round"/>
  <polygon points="1688.95,1486.27 1704.13,1484.77 1716.77,1480.46 1724.83,1474.03 1727.12,1466.52 1723.42,1459.06 1714.25,1452.74 1701.04,1448.55 1685.86,1447.09 1670.91,1448.55 1658.36,1452.74 1650.19,1459.06 1647.67,1466.52 1651.14,1474.03 1660.22,1480.46 1673.54,1484.77" fill="#e2f999" stroke="#e2f999" stroke-width="0.5" stroke-linecap="round" stroke-linejoin="round"/>
  <polygon points="1484.70,1484.77 1500.00,1486.27 1515.30,1484.77 1528.27,1480.46 1536.85,1474.03 1539.73,1466.52 1536.61,1459.06 1527.95,1452.74 1515.06,1448.55 1500.00,1447.09 1484.94,1448.55 1472.05,1452.74 1463.39,1459.06 1460.27,1466.52 1463.15,1474.03 1471.73,1480.46" fill="#e2f999" stroke="#e2f999" stroke-width="0.5" stroke-linecap="round" stroke-linejoin="round"/>
  <polygon points="1716.77,1480.46 1716.08,1503.54 1724.12,1497.06 1724.83,1474.03" fill="#e2f999" stroke="#e2f999" stroke-width="0.5" stroke-linecap="round" stroke-linejoin="round"/>
  <polygon points="1528.27,1480.46 1528.18,1503.54 1536.73,1497.06 1536.85,1474.03" fill="#e2f999" stroke="#e2f999" stroke-width="0.5" stroke-linecap="round" stroke-linejoin="round"/>
  <polygon points="1463.15,1474.03 1463.27,1497.06 1471.82,1503.54 1471.73,1480.46" fill="#e2f999" stroke="#e2f999" stroke-width="0.5" stroke-linecap="round" stroke-linejoin="round"/>
  <polygon points="1651.14,1474.03 1650.66,1497.06 1659.71,1503.54 1660.22,1480.46" fill="#e2f999" stroke="#e2f999" stroke-width="0.5" stroke-linecap="round" stroke-linejoin="round"/>
  <polygon points="1471.73,1480.46 1471.82,1503.54 1484.75,1507.87 1484.70,1484.77" fill="#e2f999" stroke="#e2f999" stroke-width="0.5" stroke-linecap="round" stroke-linejoin="round"/>
  <polygon points="1515.30,1484.77 1515.25,1507.87 1528.18,1503.54 1528.27,1480.46" fill="#e2f999" stroke="#e2f999" stroke-width="0.5" stroke-linecap="round" stroke-linejoin="round"/>
  <polygon points="1660.22,1480.46 1659.71,1503.54 1672.98,1507.87 1673.54,1484.77" fill="#e2f999" stroke="#e2f999" stroke-width="0.5" stroke-linecap="round" stroke-linejoin="round"/>
  <polygon points="1704.13,1484.77 1703.48,1507.87 1716.08,1503.54 1716.77,1480.46" fill="#e2f999" stroke="#e2f999" stroke-width="0.5" stroke-linecap="round" stroke-linejoin="round"/>
  <polygon points="1688.95,1486.27 1688.35,1509.38 1703.48,1507.87 1704.13,1484.77" fill="#e2f999" stroke="#e2f999" stroke-width="0.5" stroke-linecap="round" stroke-linejoin="round"/>
  <polygon points="1500.00,1486.27 1500.00,1509.38 1515.25,1507.87 1515.30,1484.77" fill="#e2f999" stroke="#e2f999" stroke-width="0.5" stroke-linecap="round" stroke-linejoin="round"/>
  <polygon points="1673.54,1484.77 1672.98,1507.87 1688.35,1509.38 1688.95,1486.27" fill="#e2f999" stroke="#e2f999" stroke-width="0.5" stroke-linecap="round" stroke-linejoin="round"/>
  <polygon points="1484.70,1484.77 1484.75,1507.87 1500.00,1509.38 1500.00,1486.27" fill="#e2f999" stroke="#e2f999" stroke-width="0.5" stroke-linecap="round" stroke-linejoin="round"/>
  <polygon points="1780.20,1489.50 1597.17,1586.25 1595.29,1724.62 1774.97,1624.41" fill="#e2f999" stroke="#e2f999" stroke-width="0.5" stroke-linecap="round" stroke-linejoin="round"/>
  <polygon points="1555.04,1513.63 1554.86,1536.92 1558.10,1544.78 1558.29,1521.44" fill="#e2f999" stroke="#e2f999" stroke-width="0.5" stroke-linecap="round" stroke-linejoin="round"/>
  <polygon points="1633.44,1521.44 1633.01,1544.78 1635.63,1536.92 1636.07,1513.63" fill="#e2f999" stroke="#e2f999" stroke-width="0.5" stroke-linecap="round" stroke-linejoin="round"/>
  <polygon points="1558.29,1521.44 1567.29,1528.14 1580.71,1532.62 1596.37,1534.18 1611.91,1532.62 1624.97,1528.14 1633.44,1521.44 1636.07,1513.63 1632.59,1505.88 1623.49,1499.30 1610.18,1494.94 1594.76,1493.43 1579.46,1494.94 1566.49,1499.30 1557.91,1505.88 1555.04,1513.63" fill="#e2f999" stroke="#e2f999" stroke-width="0.5" stroke-linecap="round" stroke-linejoin="round"/>
  <polygon points="1558.29,1521.44 1558.10,1544.78 1567.07,1551.51 1567.29,1528.14" fill="#e2f999" stroke="#e2f999" stroke-width="0.5" stroke-linecap="round" stroke-linejoin="round"/>
  <polygon points="1624.97,1528.14 1624.56,1551.51 1633.01,1544.78 1633.44,1521.44" fill="#e2f999" stroke="#e2f999" stroke-width="0.5" stroke-linecap="round" stroke-linejoin="round"/>
  <polygon points="1567.29,1528.14 1567.07,1551.51 1580.44,1556.02 1580.71,1532.62" fill="#e2f999" stroke="#e2f999" stroke-width="0.5" stroke-linecap="round" stroke-linejoin="round"/>
  <polygon points="1611.91,1532.62 1611.54,1556.02 1624.56,1551.51 1624.97,1528.14" fill="#e2f999" stroke="#e2f999" stroke-width="0.5" stroke-linecap="round" stroke-linejoin="round"/>
  <polygon points="1596.37,1534.18 1596.05,1557.60 1611.54,1556.02 1611.91,1532.62" fill="#e2f999" stroke="#e2f999" stroke-width="0.5" stroke-linecap="round" stroke-linejoin="round"/>
  <polygon points="1580.71,1532.62 1580.44,1556.02 1596.05,1557.60 1596.37,1534.18" fill="#e2f999" stroke="#e2f999" stroke-width="0.5" stroke-linecap="round" stroke-linejoin="round"/>
  <path d="M 1235.12 1531.55 L 1595.29 1724.62 L 1774.97 1624.41 L 1780.20 1489.50 L 1597.17 1586.25 L 1595.29 1724.62 L 1774.97 1624.41 L 1780.20 1489.50 L 1725.83 1463.93 L 1780.20 1489.50 L 1597.17 1586.25 L 1230.27 1399.99 L 1281.93 1376.55 L 1230.27 1399.99 L 1235.12 1531.55 L 1595.29 1724.62 L 1597.17 1586.25 L 1230.27 1399.99 L 1235.12 1531.55" stroke="black" stroke-width="4" fill="none" stroke-linecap="round" stroke-linejoin="round"/>
  <path d="M 1691.11 1447.60 L 1629.72 1418.72 L 1691.11 1447.60" stroke="black" stroke-width="4" fill="none" stroke-linecap="round" stroke-linejoin="round"/>
  <path d="M 1596.30 1403.00 L 1537.20 1375.19 L 1596.30 1403.00" stroke="black" stroke-width="4" fill="none" stroke-linecap="round" stroke-linejoin="round"/>
  <path d="M 1505.02 1360.06 L 1448.08 1333.27 L 1505.02 1360.06" stroke="black" stroke-width="4" fill="none" stroke-linecap="round" stroke-linejoin="round"/>
  <path d="M 1417.07 1318.68 L 1413.33 1316.92 L 1410.01 1318.43 L 1413.33 1316.92 L 1417.07 1318.68" stroke="black" stroke-width="4" fill="none" stroke-linecap="round" stroke-linejoin="round"/>
  <path d="M 1374.42 1334.58 L 1318.86 1359.79 L 1374.42 1334.58" stroke="black" stroke-width="4" fill="none" stroke-linecap="round" stroke-linejoin="round"/>
  <path d="M 1724.83 1474.03 L 1727.12 1466.52 L 1723.42 1459.06 L 1714.25 1452.74 L 1701.04 1448.55 L 1685.86 1447.09 L 1670.91 1448.55 L 1658.36 1452.74 L 1650.19 1459.06 L 1647.67 1466.52 L 1651.14 1474.03 L 1660.22 1480.46 L 1673.54 1484.77 L 1688.95 1486.27 L 1704.13 1484.77 L 1716.77 1480.46 L 1724.83 1474.03" stroke="black" stroke-width="4" fill="none" stroke-linecap="round" stroke-linejoin="round"/>
  <path d="M 1647.67 1466.52 L 1647.20 1489.50 L 1650.66 1497.06 L 1659.71 1503.54 L 1672.98 1507.87 L 1688.35 1509.38 L 1703.48 1507.87 L 1716.08 1503.54 L 1724.12 1497.06 L 1726.40 1489.50 L 1727.12 1466.52" stroke="black" stroke-width="4" fill="none" stroke-linecap="round" stroke-linejoin="round"/>
  <path d="M 1688.95 1486.27 L 1704.13 1484.77 L 1716.77 1480.46" stroke="black" stroke-width="4" fill="none" stroke-linecap="round" stroke-linejoin="round"/>
  <path d="M 1714.25 1452.74 L 1701.04 1448.55 L 1685.86 1447.09" stroke="black" stroke-width="4" fill="none" stroke-linecap="round" stroke-linejoin="round"/>
  <path d="M 1658.36 1452.74 L 1650.19 1459.06 L 1647.67 1466.52 L 1651.14 1474.03 L 1660.22 1480.46" stroke="black" stroke-width="4" fill="none" stroke-linecap="round" stroke-linejoin="round"/>
  <path d="M 1628.33 1428.43 L 1630.87 1421.21 L 1627.54 1414.03 L 1618.80 1407.95 L 1606.00 1403.91 L 1591.17 1402.51 L 1576.45 1403.91 L 1563.97 1407.95 L 1555.71 1414.03 L 1552.94 1421.21 L 1556.05 1428.43 L 1564.71 1434.62 L 1577.60 1438.76 L 1592.66 1440.21 L 1607.60 1438.76 L 1620.17 1434.62 L 1628.33 1428.43 L 1620.17 1434.62" stroke="black" stroke-width="4" fill="none" stroke-linecap="round" stroke-linejoin="round"/>
  <path d="M 1552.94 1421.21 L 1552.77 1443.89 L 1555.88 1451.17 L 1564.50 1457.39 L 1577.36 1461.57 L 1592.37 1463.02 L 1607.26 1461.57 L 1619.79 1457.39 L 1627.93 1451.17 L 1630.47 1443.89 L 1630.87 1421.21" stroke="black" stroke-width="4" fill="none" stroke-linecap="round" stroke-linejoin="round"/>
  <path d="M 1627.54 1414.03 L 1618.80 1407.95" stroke="black" stroke-width="4" fill="none" stroke-linecap="round" stroke-linejoin="round"/>
  <path d="M 1606.00 1403.91 L 1591.17 1402.51" stroke="black" stroke-width="4" fill="none" stroke-linecap="round" stroke-linejoin="round"/>
  <path d="M 1576.45 1403.91 L 1563.97 1407.95" stroke="black" stroke-width="4" fill="none" stroke-linecap="round" stroke-linejoin="round"/>
  <path d="M 1555.71 1414.03 L 1552.94 1421.21 L 1556.05 1428.43" stroke="black" stroke-width="4" fill="none" stroke-linecap="round" stroke-linejoin="round"/>
  <path d="M 1564.71 1434.62 L 1577.60 1438.76" stroke="black" stroke-width="4" fill="none" stroke-linecap="round" stroke-linejoin="round"/>
  <path d="M 1592.66 1440.21 L 1607.60 1438.76" stroke="black" stroke-width="4" fill="none" stroke-linecap="round" stroke-linejoin="round"/>
  <path d="M 1535.46 1384.55 L 1538.24 1377.59 L 1535.24 1370.68 L 1526.90 1364.82 L 1514.50 1360.94 L 1500.00 1359.59 L 1485.50 1360.94 L 1473.10 1364.82 L 1464.76 1370.68 L 1461.76 1377.59 L 1464.54 1384.55 L 1472.79 1390.50 L 1485.28 1394.49 L 1500.00 1395.88 L 1514.72 1394.49 L 1527.21 1390.50 L 1535.46 1384.55 L 1527.21 1390.50" stroke="black" stroke-width="4" fill="none" stroke-linecap="round" stroke-linejoin="round"/>
  <path d="M 1461.76 1377.59 L 1461.88 1399.99 L 1464.65 1406.99 L 1472.88 1412.99 L 1485.33 1417.00 L 1500.00 1418.40 L 1514.67 1417.00 L 1527.12 1412.99 L 1535.35 1406.99 L 1538.12 1399.99 L 1538.24 1377.59" stroke="black" stroke-width="4" fill="none" stroke-linecap="round" stroke-linejoin="round"/>
  <path d="M 1504.05 1382.24 L 1500.00 1381.86" stroke="black" stroke-width="4" fill="none" stroke-linecap="round" stroke-linejoin="round"/>
  <path d="M 1535.24 1370.68 L 1526.90 1364.82" stroke="black" stroke-width="4" fill="none" stroke-linecap="round" stroke-linejoin="round"/>
  <path d="M 1514.50 1360.94 L 1500.00 1359.59" stroke="black" stroke-width="4" fill="none" stroke-linecap="round" stroke-linejoin="round"/>
  <path d="M 1485.50 1360.94 L 1473.10 1364.82" stroke="black" stroke-width="4" fill="none" stroke-linecap="round" stroke-linejoin="round"/>
  <path d="M 1464.76 1370.68 L 1461.76 1377.59 L 1464.54 1384.55" stroke="black" stroke-width="4" fill="none" stroke-linecap="round" stroke-linejoin="round"/>
  <path d="M 1472.79 1390.50 L 1485.28 1394.49" stroke="black" stroke-width="4" fill="none" stroke-linecap="round" stroke-linejoin="round"/>
  <path d="M 1500.00 1395.88 L 1514.72 1394.49" stroke="black" stroke-width="4" fill="none" stroke-linecap="round" stroke-linejoin="round"/>
  <path d="M 1446.02 1342.28 L 1449.01 1335.58 L 1446.34 1328.92 L 1438.37 1323.28 L 1426.35 1319.53 L 1412.16 1318.23 L 1397.87 1319.53 L 1385.55 1323.28 L 1377.14 1328.92 L 1373.94 1335.58 L 1376.41 1342.28 L 1384.28 1348.02 L 1396.39 1351.86 L 1410.78 1353.20 L 1425.28 1351.86 L 1437.69 1348.02 L 1446.02 1342.28" stroke="black" stroke-width="4" fill="none" stroke-linecap="round" stroke-linejoin="round"/>
  <path d="M 1373.94 1335.58 L 1374.32 1357.69 L 1376.78 1364.44 L 1384.63 1370.22 L 1396.70 1374.09 L 1411.05 1375.44 L 1425.50 1374.09 L 1437.88 1370.22 L 1446.18 1364.44 L 1449.16 1357.69 L 1449.01 1335.58" stroke="black" stroke-width="4" fill="none" stroke-linecap="round" stroke-linejoin="round"/>
  <path d="M 1410.78 1353.20 L 1425.28 1351.86 L 1437.69 1348.02" stroke="black" stroke-width="4" fill="none" stroke-linecap="round" stroke-linejoin="round"/>
  <path d="M 1438.37 1323.28 L 1426.35 1319.53 L 1412.16 1318.23" stroke="black" stroke-width="4" fill="none" stroke-linecap="round" stroke-linejoin="round"/>
  <path d="M 1385.55 1323.28 L 1377.14 1328.92 L 1373.94 1335.58 L 1376.41 1342.28 L 1384.28 1348.02" stroke="black" stroke-width="4" fill="none" stroke-linecap="round" stroke-linejoin="round"/>
  <path d="M 1633.44 1521.44 L 1636.07 1513.63 L 1632.59 1505.88 L 1623.49 1499.30 L 1610.18 1494.94 L 1594.76 1493.43 L 1579.46 1494.94 L 1566.49 1499.30 L 1557.91 1505.88 L 1555.04 1513.63 L 1558.29 1521.44 L 1567.29 1528.14 L 1580.71 1532.62 L 1596.37 1534.18 L 1611.91 1532.62 L 1624.97 1528.14 L 1633.44 1521.44" stroke="black" stroke-width="4" fill="none" stroke-linecap="round" stroke-linejoin="round"/>
  <path d="M 1555.04 1513.63 L 1554.86 1536.92 L 1558.10 1544.78 L 1567.07 1551.51 L 1580.44 1556.02 L 1596.05 1557.60 L 1611.54 1556.02 L 1624.56 1551.51 L 1633.01 1544.78 L 1635.63 1536.92 L 1636.07 1513.63" stroke="black" stroke-width="4" fill="none" stroke-linecap="round" stroke-linejoin="round"/>
  <path d="M 1596.37 1534.18 L 1611.91 1532.62 L 1624.97 1528.14" stroke="black" stroke-width="4" fill="none" stroke-linecap="round" stroke-linejoin="round"/>
  <path d="M 1623.49 1499.30 L 1610.18 1494.94 L 1594.76 1493.43" stroke="black" stroke-width="4" fill="none" stroke-linecap="round" stroke-linejoin="round"/>
  <path d="M 1566.49 1499.30 L 1557.91 1505.88 L 1555.04 1513.63 L 1558.29 1521.44 L 1567.29 1528.14" stroke="black" stroke-width="4" fill="none" stroke-linecap="round" stroke-linejoin="round"/>
  <path d="M 1536.85 1474.03 L 1539.73 1466.52 L 1536.61 1459.06 L 1527.95 1452.74 L 1515.06 1448.55 L 1500.00 1447.09 L 1484.94 1448.55 L 1472.05 1452.74 L 1463.39 1459.06 L 1460.27 1466.52 L 1463.15 1474.03 L 1471.73 1480.46 L 1484.70 1484.77 L 1500.00 1486.27 L 1515.30 1484.77 L 1528.27 1480.46 L 1536.85 1474.03 L 1528.27 1480.46" stroke="black" stroke-width="4" fill="none" stroke-linecap="round" stroke-linejoin="round"/>
  <path d="M 1460.27 1466.52 L 1460.40 1489.50 L 1463.27 1497.06 L 1471.82 1503.54 L 1484.75 1507.87 L 1500.00 1509.38 L 1515.25 1507.87 L 1528.18 1503.54 L 1536.73 1497.06 L 1539.60 1489.50 L 1539.73 1466.52" stroke="black" stroke-width="4" fill="none" stroke-linecap="round" stroke-linejoin="round"/>
  <path d="M 1536.61 1459.06 L 1527.95 1452.74" stroke="black" stroke-width="4" fill="none" stroke-linecap="round" stroke-linejoin="round"/>
  <path d="M 1515.06 1448.55 L 1500.00 1447.09" stroke="black" stroke-width="4" fill="none" stroke-linecap="round" stroke-linejoin="round"/>
  <path d="M 1484.94 1448.55 L 1472.05 1452.74" stroke="black" stroke-width="4" fill="none" stroke-linecap="round" stroke-linejoin="round"/>
  <path d="M 1463.39 1459.06 L 1460.27 1466.52 L 1463.15 1474.03" stroke="black" stroke-width="4" fill="none" stroke-linecap="round" stroke-linejoin="round"/>
  <path d="M 1471.73 1480.46 L 1484.70 1484.77" stroke="black" stroke-width="4" fill="none" stroke-linecap="round" stroke-linejoin="round"/>
  <path d="M 1500.00 1486.27 L 1515.30 1484.77" stroke="black" stroke-width="4" fill="none" stroke-linecap="round" stroke-linejoin="round"/>
  <path d="M 1443.95 1428.43 L 1447.06 1421.21 L 1444.29 1414.03 L 1436.03 1407.95 L 1423.55 1403.91 L 1408.83 1402.51 L 1394.00 1403.91 L 1381.20 1407.95 L 1372.46 1414.03 L 1369.13 1421.21 L 1371.67 1428.43 L 1379.83 1434.62 L 1392.40 1438.76 L 1407.34 1440.21 L 1422.40 1438.76 L 1435.29 1434.62 L 1443.95 1428.43 L 1435.29 1434.62" stroke="black" stroke-width="4" fill="none" stroke-linecap="round" stroke-linejoin="round"/>
  <path d="M 1369.13 1421.21 L 1369.53 1443.89 L 1372.07 1451.17 L 1380.21 1457.39 L 1392.74 1461.57 L 1407.63 1463.02 L 1422.64 1461.57 L 1435.50 1457.39 L 1444.12 1451.17 L 1447.23 1443.89 L 1447.06 1421.21" stroke="black" stroke-width="4" fill="none" stroke-linecap="round" stroke-linejoin="round"/>
  <path d="M 1444.29 1414.03 L 1436.03 1407.95" stroke="black" stroke-width="4" fill="none" stroke-linecap="round" stroke-linejoin="round"/>
  <path d="M 1423.55 1403.91 L 1408.83 1402.51" stroke="black" stroke-width="4" fill="none" stroke-linecap="round" stroke-linejoin="round"/>
  <path d="M 1394.00 1403.91 L 1381.20 1407.95" stroke="black" stroke-width="4" fill="none" stroke-linecap="round" stroke-linejoin="round"/>
  <path d="M 1372.46 1414.03 L 1369.13 1421.21 L 1371.67 1428.43" stroke="black" stroke-width="4" fill="none" stroke-linecap="round" stroke-linejoin="round"/>
  <path d="M 1379.83 1434.62 L 1392.40 1438.76" stroke="black" stroke-width="4" fill="none" stroke-linecap="round" stroke-linejoin="round"/>
  <path d="M 1407.34 1440.21 L 1422.40 1438.76" stroke="black" stroke-width="4" fill="none" stroke-linecap="round" stroke-linejoin="round"/>
  <path d="M 1354.54 1384.55 L 1357.87 1377.59 L 1355.42 1370.68 L 1347.55 1364.82 L 1335.45 1360.94 L 1321.05 1359.59 L 1306.45 1360.94 L 1293.74 1364.82 L 1284.93 1370.68 L 1281.39 1377.59 L 1283.62 1384.55 L 1291.40 1390.50 L 1303.58 1394.49 L 1318.19 1395.88 L 1333.02 1394.49 L 1345.82 1390.50 L 1354.54 1384.55" stroke="black" stroke-width="4" fill="none" stroke-linecap="round" stroke-linejoin="round"/>
  <path d="M 1281.39 1377.59 L 1282.06 1399.99 L 1284.29 1406.99 L 1292.04 1412.99 L 1304.18 1417.00 L 1318.75 1418.40 L 1333.53 1417.00 L 1346.29 1412.99 L 1354.99 1406.99 L 1358.30 1399.99 L 1357.87 1377.59" stroke="black" stroke-width="4" fill="none" stroke-linecap="round" stroke-linejoin="round"/>
  <path d="M 1318.19 1395.88 L 1333.02 1394.49 L 1345.82 1390.50" stroke="black" stroke-width="4" fill="none" stroke-linecap="round" stroke-linejoin="round"/>
  <path d="M 1347.55 1364.82 L 1335.45 1360.94 L 1321.05 1359.59" stroke="black" stroke-width="4" fill="none" stroke-linecap="round" stroke-linejoin="round"/>
  <path d="M 1293.74 1364.82 L 1284.93 1370.68 L 1281.39 1377.59 L 1283.62 1384.55 L 1291.40 1390.50" stroke="black" stroke-width="4" fill="none" stroke-linecap="round" stroke-linejoin="round"/>
  <path d="M 1780.20 1489.50 L 1725.83 1463.93" stroke="black" stroke-width="4" fill="none" stroke-linecap="round" stroke-linejoin="round"/>
  <path d="M 1691.11 1447.60 L 1629.72 1418.72" stroke="black" stroke-width="4" fill="none" stroke-linecap="round" stroke-linejoin="round"/>
  <path d="M 1596.30 1403.00 L 1537.20 1375.19" stroke="black" stroke-width="4" fill="none" stroke-linecap="round" stroke-linejoin="round"/>
  <path d="M 1505.02 1360.06 L 1448.08 1333.27" stroke="black" stroke-width="4" fill="none" stroke-linecap="round" stroke-linejoin="round"/>
  <path d="M 1417.07 1318.68 L 1413.33 1316.92 L 1410.01 1318.43" stroke="black" stroke-width="4" fill="none" stroke-linecap="round" stroke-linejoin="round"/>
  <path d="M 1374.42 1334.58 L 1318.86 1359.79" stroke="black" stroke-width="4" fill="none" stroke-linecap="round" stroke-linejoin="round"/>
  <path d="M 1281.93 1376.55 L 1230.27 1399.99 L 1597.17 1586.25 L 1780.20 1489.50 L 1774.97 1624.41 L 1595.29 1724.62 L 1235.12 1531.55 L 1230.27 1399.99" stroke="black" stroke-width="4" fill="none" stroke-linecap="round" stroke-linejoin="round"/>
  <path d="M 1647.20 1489.50 L 1650.66 1497.06 L 1659.71 1503.54 L 1672.98 1507.87 L 1688.35 1509.38 L 1703.48 1507.87 L 1716.08 1503.54 L 1724.12 1497.06 L 1726.40 1489.50" stroke="black" stroke-width="4" fill="none" stroke-linecap="round" stroke-linejoin="round"/>
  <path d="M 1716.77 1480.46 L 1704.13 1484.77 L 1688.95 1486.27 L 1673.54 1484.77 L 1660.22 1480.46 L 1651.14 1474.03 L 1647.67 1466.52 L 1650.19 1459.06 L 1658.36 1452.74 L 1670.91 1448.55 L 1685.86 1447.09 L 1701.04 1448.55 L 1714.25 1452.74 L 1723.42 1459.06 L 1727.12 1466.52 L 1724.83 1474.03 L 1716.77 1480.46" stroke="black" stroke-width="4" fill="none" stroke-linecap="round" stroke-linejoin="round"/>
  <path d="M 1552.77 1443.89 L 1555.88 1451.17 L 1564.50 1457.39 L 1577.36 1461.57 L 1592.37 1463.02 L 1607.26 1461.57 L 1619.79 1457.39 L 1627.93 1451.17 L 1630.47 1443.89" stroke="black" stroke-width="4" fill="none" stroke-linecap="round" stroke-linejoin="round"/>
  <path d="M 1620.17 1434.62 L 1607.60 1438.76 L 1592.66 1440.21 L 1577.60 1438.76 L 1564.71 1434.62 L 1556.05 1428.43 L 1552.94 1421.21 L 1555.71 1414.03 L 1563.97 1407.95 L 1576.45 1403.91 L 1591.17 1402.51 L 1606.00 1403.91 L 1618.80 1407.95 L 1627.54 1414.03 L 1630.87 1421.21 L 1628.33 1428.43 L 1620.17 1434.62" stroke="black" stroke-width="4" fill="none" stroke-linecap="round" stroke-linejoin="round"/>
  <path d="M 1485.33 1417.00 L 1500.00 1418.40 L 1514.67 1417.00 L 1527.12 1412.99 L 1535.35 1406.99 L 1538.12 1399.99" stroke="black" stroke-width="4" fill="none" stroke-linecap="round" stroke-linejoin="round"/>
  <path d="M 1504.05 1382.24 L 1500.00 1381.86" stroke="black" stroke-width="4" fill="none" stroke-linecap="round" stroke-linejoin="round"/>
  <path d="M 1461.88 1399.99 L 1464.65 1406.99 L 1472.88 1412.99" stroke="black" stroke-width="4" fill="none" stroke-linecap="round" stroke-linejoin="round"/>
  <path d="M 1527.21 1390.50 L 1514.72 1394.49 L 1500.00 1395.88 L 1485.28 1394.49 L 1472.79 1390.50 L 1464.54 1384.55 L 1461.76 1377.59 L 1464.76 1370.68 L 1473.10 1364.82 L 1485.50 1360.94 L 1500.00 1359.59 L 1514.50 1360.94 L 1526.90 1364.82 L 1535.24 1370.68 L 1538.24 1377.59 L 1535.46 1384.55 L 1527.21 1390.50" stroke="black" stroke-width="4" fill="none" stroke-linecap="round" stroke-linejoin="round"/>
  <path d="M 1446.18 1364.44 L 1449.16 1357.69" stroke="black" stroke-width="4" fill="none" stroke-linecap="round" stroke-linejoin="round"/>
  <path d="M 1374.32 1357.69 L 1376.78 1364.44 L 1384.63 1370.22 L 1396.70 1374.09 L 1411.05 1375.44 L 1425.50 1374.09 L 1437.88 1370.22" stroke="black" stroke-width="4" fill="none" stroke-linecap="round" stroke-linejoin="round"/>
  <path d="M 1376.21 1330.85 L 1377.14 1328.92 L 1385.55 1323.28 L 1397.87 1319.53 L 1412.16 1318.23 L 1426.35 1319.53 L 1438.37 1323.28 L 1446.34 1328.92 L 1449.01 1335.58 L 1446.02 1342.28 L 1437.69 1348.02 L 1425.28 1351.86 L 1410.78 1353.20 L 1396.39 1351.86 L 1384.28 1348.02 L 1376.41 1342.28 L 1373.94 1335.58" stroke="black" stroke-width="4" fill="none" stroke-linecap="round" stroke-linejoin="round"/>
  <path d="M 1580.44 1556.02 L 1596.05 1557.60 L 1611.54 1556.02 L 1624.56 1551.51 L 1633.01 1544.78 L 1635.63 1536.92" stroke="black" stroke-width="4" fill="none" stroke-linecap="round" stroke-linejoin="round"/>
  <path d="M 1554.86 1536.92 L 1558.10 1544.78 L 1567.07 1551.51" stroke="black" stroke-width="4" fill="none" stroke-linecap="round" stroke-linejoin="round"/>
  <path d="M 1624.97 1528.14 L 1611.91 1532.62 L 1596.37 1534.18 L 1580.71 1532.62 L 1567.29 1528.14 L 1558.29 1521.44 L 1555.04 1513.63 L 1557.91 1505.88 L 1566.49 1499.30 L 1579.46 1494.94 L 1594.76 1493.43 L 1610.18 1494.94 L 1623.49 1499.30 L 1632.59 1505.88 L 1636.07 1513.63 L 1633.44 1521.44 L 1624.97 1528.14" stroke="black" stroke-width="4" fill="none" stroke-linecap="round" stroke-linejoin="round"/>
  <path d="M 1536.73 1497.06 L 1539.60 1489.50" stroke="black" stroke-width="4" fill="none" stroke-linecap="round" stroke-linejoin="round"/>
  <path d="M 1460.40 1489.50 L 1463.27 1497.06 L 1471.82 1503.54 L 1484.75 1507.87 L 1500.00 1509.38 L 1515.25 1507.87 L 1528.18 1503.54" stroke="black" stroke-width="4" fill="none" stroke-linecap="round" stroke-linejoin="round"/>
  <path d="M 1528.27 1480.46 L 1515.30 1484.77 L 1500.00 1486.27 L 1484.70 1484.77 L 1471.73 1480.46 L 1463.15 1474.03 L 1460.27 1466.52 L 1463.39 1459.06 L 1472.05 1452.74 L 1484.94 1448.55 L 1500.00 1447.09 L 1515.06 1448.55 L 1527.95 1452.74 L 1536.61 1459.06 L 1539.73 1466.52 L 1536.85 1474.03 L 1528.27 1480.46" stroke="black" stroke-width="4" fill="none" stroke-linecap="round" stroke-linejoin="round"/>
  <path d="M 1369.53 1443.89 L 1372.07 1451.17 L 1380.21 1457.39 L 1392.74 1461.57 L 1407.63 1463.02 L 1422.64 1461.57 L 1435.50 1457.39 L 1444.12 1451.17 L 1447.23 1443.89" stroke="black" stroke-width="4" fill="none" stroke-linecap="round" stroke-linejoin="round"/>
  <path d="M 1371.45 1416.20 L 1372.46 1414.03 L 1381.20 1407.95 L 1394.00 1403.91 L 1408.83 1402.51 L 1423.55 1403.91 L 1436.03 1407.95 L 1444.29 1414.03 L 1447.06 1421.21 L 1443.95 1428.43 L 1435.29 1434.62 L 1422.40 1438.76 L 1407.34 1440.21 L 1392.40 1438.76 L 1379.83 1434.62 L 1371.67 1428.43 L 1369.13 1421.21" stroke="black" stroke-width="4" fill="none" stroke-linecap="round" stroke-linejoin="round"/>
  <path d="M 1282.06 1399.99 L 1284.29 1406.99 L 1292.04 1412.99 L 1304.18 1417.00 L 1318.75 1418.40 L 1333.53 1417.00 L 1346.29 1412.99 L 1354.99 1406.99 L 1358.30 1399.99" stroke="black" stroke-width="4" fill="none" stroke-linecap="round" stroke-linejoin="round"/>
  <path d="M 1345.82 1390.50 L 1333.02 1394.49 L 1318.19 1395.88 L 1303.58 1394.49 L 1291.40 1390.50 L 1283.62 1384.55 L 1281.39 1377.59 L 1284.93 1370.68 L 1293.74 1364.82 L 1306.45 1360.94 L 1321.05 1359.59 L 1335.45 1360.94 L 1347.55 1364.82 L 1355.42 1370.68 L 1357.87 1377.59 L 1354.54 1384.55 L 1345.82 1390.50" stroke="black" stroke-width="4" fill="none" stroke-linecap="round" stroke-linejoin="round"/>
  <path d="M 1597.17 1586.25 L 1595.29 1724.62" stroke="black" stroke-width="4" fill="none" stroke-linecap="round" stroke-linejoin="round"/>
</svg>
