<?xml version="1.0" ?>
<svg xmlns="http://www.w3.org/2000/svg" version="1.1" width="638.64px" height="3000px" viewBox="1186.89 0 638.64 3000">
  <polygon points="1441.40,1257.96 1441.59,1282.29 1444.84,1275.23 1444.66,1250.96" fill="#77c9d8" stroke="#77c9d8" stroke-width="0.5" stroke-linecap="round" stroke-linejoin="round"/>
  <polygon points="1363.19,1250.96 1363.64,1275.23 1366.27,1282.29 1365.83,1257.96" fill="#77c9d8" stroke="#77c9d8" stroke-width="0.5" stroke-linecap="round" stroke-linejoin="round"/>
  <polygon points="1375.85,1238.12 1366.70,1244.01 1363.19,1250.96 1365.83,1257.96 1374.35,1263.96 1387.48,1267.98 1403.11,1269.38 1418.86,1267.98 1432.34,1263.96 1441.40,1257.96 1444.66,1250.96 1441.78,1244.01 1433.15,1238.12 1420.12,1234.22 1404.73,1232.86 1389.23,1234.22" fill="#77c9d8" stroke="#77c9d8" stroke-width="0.5" stroke-linecap="round" stroke-linejoin="round"/>
  <polygon points="1432.34,1263.96 1432.57,1288.33 1441.59,1282.29 1441.40,1257.96" fill="#77c9d8" stroke="#77c9d8" stroke-width="0.5" stroke-linecap="round" stroke-linejoin="round"/>
  <polygon points="1365.83,1257.96 1366.27,1282.29 1374.76,1288.33 1374.35,1263.96" fill="#77c9d8" stroke="#77c9d8" stroke-width="0.5" stroke-linecap="round" stroke-linejoin="round"/>
  <polygon points="1374.35,1263.96 1374.76,1288.33 1387.85,1292.38 1387.48,1267.98" fill="#77c9d8" stroke="#77c9d8" stroke-width="0.5" stroke-linecap="round" stroke-linejoin="round"/>
  <polygon points="1418.86,1267.98 1419.12,1292.38 1432.57,1288.33 1432.34,1263.96" fill="#77c9d8" stroke="#77c9d8" stroke-width="0.5" stroke-linecap="round" stroke-linejoin="round"/>
  <polygon points="1387.48,1267.98 1387.85,1292.38 1403.43,1293.79 1403.11,1269.38" fill="#77c9d8" stroke="#77c9d8" stroke-width="0.5" stroke-linecap="round" stroke-linejoin="round"/>
  <polygon points="1403.11,1269.38 1403.43,1293.79 1419.12,1292.38 1418.86,1267.98" fill="#77c9d8" stroke="#77c9d8" stroke-width="0.5" stroke-linecap="round" stroke-linejoin="round"/>
  <polygon points="1407.87,1373.09 1212.60,1463.83 1604.09,1668.88 1799.31,1562.11" fill="#e2f999" stroke="#e2f999" stroke-width="0.5" stroke-linecap="round" stroke-linejoin="round"/>
  <polygon points="1458.44,1294.91 1458.57,1319.52 1461.57,1326.86 1461.45,1302.19" fill="#77c9d8" stroke="#77c9d8" stroke-width="0.5" stroke-linecap="round" stroke-linejoin="round"/>
  <polygon points="1262.38,1294.91 1263.16,1319.52 1265.52,1326.86 1264.74,1302.19" fill="#77c9d8" stroke="#77c9d8" stroke-width="0.5" stroke-linecap="round" stroke-linejoin="round"/>
  <polygon points="1341.85,1302.19 1342.37,1326.86 1346.02,1319.52 1345.51,1294.91" fill="#77c9d8" stroke="#77c9d8" stroke-width="0.5" stroke-linecap="round" stroke-linejoin="round"/>
  <polygon points="1538.55,1302.19 1538.43,1326.86 1541.43,1319.52 1541.56,1294.91" fill="#77c9d8" stroke="#77c9d8" stroke-width="0.5" stroke-linecap="round" stroke-linejoin="round"/>
  <polygon points="1516.01,1312.62 1529.59,1308.44 1538.55,1302.19 1541.56,1294.91 1538.30,1287.67 1529.23,1281.54 1515.75,1277.47 1500.00,1276.06 1484.25,1277.47 1470.77,1281.54 1461.70,1287.67 1458.44,1294.91 1461.45,1302.19 1470.41,1308.44 1483.99,1312.62 1500.00,1314.08" fill="#77c9d8" stroke="#77c9d8" stroke-width="0.5" stroke-linecap="round" stroke-linejoin="round"/>
  <polygon points="1275.90,1281.54 1266.28,1287.67 1262.38,1294.91 1264.74,1302.19 1273.15,1308.44 1286.35,1312.62 1302.23,1314.08 1318.37,1312.62 1332.32,1308.44 1341.85,1302.19 1345.51,1294.91 1342.89,1287.67 1334.36,1281.54 1321.25,1277.47 1305.62,1276.06 1289.74,1277.47" fill="#77c9d8" stroke="#77c9d8" stroke-width="0.5" stroke-linecap="round" stroke-linejoin="round"/>
  <polygon points="1264.74,1302.19 1265.52,1326.86 1273.90,1333.16 1273.15,1308.44" fill="#77c9d8" stroke="#77c9d8" stroke-width="0.5" stroke-linecap="round" stroke-linejoin="round"/>
  <polygon points="1332.32,1308.44 1332.88,1333.16 1342.37,1326.86 1341.85,1302.19" fill="#77c9d8" stroke="#77c9d8" stroke-width="0.5" stroke-linecap="round" stroke-linejoin="round"/>
  <polygon points="1529.59,1308.44 1529.49,1333.16 1538.43,1326.86 1538.55,1302.19" fill="#77c9d8" stroke="#77c9d8" stroke-width="0.5" stroke-linecap="round" stroke-linejoin="round"/>
  <polygon points="1461.45,1302.19 1461.57,1326.86 1470.51,1333.16 1470.41,1308.44" fill="#77c9d8" stroke="#77c9d8" stroke-width="0.5" stroke-linecap="round" stroke-linejoin="round"/>
  <polygon points="1516.01,1312.62 1515.96,1337.37 1529.49,1333.16 1529.59,1308.44" fill="#77c9d8" stroke="#77c9d8" stroke-width="0.5" stroke-linecap="round" stroke-linejoin="round"/>
  <polygon points="1273.15,1308.44 1273.90,1333.16 1287.07,1337.37 1286.35,1312.62" fill="#77c9d8" stroke="#77c9d8" stroke-width="0.5" stroke-linecap="round" stroke-linejoin="round"/>
  <polygon points="1470.41,1308.44 1470.51,1333.16 1484.04,1337.37 1483.99,1312.62" fill="#77c9d8" stroke="#77c9d8" stroke-width="0.5" stroke-linecap="round" stroke-linejoin="round"/>
  <polygon points="1318.37,1312.62 1318.98,1337.37 1332.88,1333.16 1332.32,1308.44" fill="#77c9d8" stroke="#77c9d8" stroke-width="0.5" stroke-linecap="round" stroke-linejoin="round"/>
  <polygon points="1286.35,1312.62 1287.07,1337.37 1302.89,1338.84 1302.23,1314.08" fill="#77c9d8" stroke="#77c9d8" stroke-width="0.5" stroke-linecap="round" stroke-linejoin="round"/>
  <polygon points="1302.23,1314.08 1302.89,1338.84 1318.98,1337.37 1318.37,1312.62" fill="#77c9d8" stroke="#77c9d8" stroke-width="0.5" stroke-linecap="round" stroke-linejoin="round"/>
  <polygon points="1483.99,1312.62 1484.04,1337.37 1500.00,1338.84 1500.00,1314.08" fill="#77c9d8" stroke="#77c9d8" stroke-width="0.5" stroke-linecap="round" stroke-linejoin="round"/>
  <polygon points="1500.00,1314.08 1500.00,1338.84 1515.96,1337.37 1516.01,1312.62" fill="#77c9d8" stroke="#77c9d8" stroke-width="0.5" stroke-linecap="round" stroke-linejoin="round"/>
  <polygon points="1601.93,1815.18 1604.09,1668.88 1212.60,1463.83 1218.10,1602.63" fill="#e2f999" stroke="#e2f999" stroke-width="0.5" stroke-linecap="round" stroke-linejoin="round"/>
  <polygon points="1406.11,1232.67 1206.89,1319.52 1606.34,1516.25 1805.52,1413.72" fill="#77c9d8" stroke="#77c9d8" stroke-width="0.5" stroke-linecap="round" stroke-linejoin="round"/>
  <polygon points="1357.50,1340.67 1357.98,1365.64 1360.71,1373.29 1360.23,1348.27" fill="#77c9d8" stroke="#77c9d8" stroke-width="0.5" stroke-linecap="round" stroke-linejoin="round"/>
  <polygon points="1639.77,1348.27 1639.29,1373.29 1642.02,1365.64 1642.50,1340.67" fill="#77c9d8" stroke="#77c9d8" stroke-width="0.5" stroke-linecap="round" stroke-linejoin="round"/>
  <polygon points="1557.64,1340.67 1557.44,1365.64 1560.84,1373.29 1561.05,1348.27" fill="#77c9d8" stroke="#77c9d8" stroke-width="0.5" stroke-linecap="round" stroke-linejoin="round"/>
  <polygon points="1438.95,1348.27 1439.16,1373.29 1442.56,1365.64 1442.36,1340.67" fill="#77c9d8" stroke="#77c9d8" stroke-width="0.5" stroke-linecap="round" stroke-linejoin="round"/>
  <polygon points="1617.24,1359.14 1630.91,1354.78 1639.77,1348.27 1642.50,1340.67 1638.83,1333.13 1629.28,1326.74 1615.34,1322.51 1599.19,1321.04 1583.18,1322.51 1569.61,1326.74 1560.64,1333.13 1557.64,1340.67 1561.05,1348.27 1570.49,1354.78 1584.55,1359.14 1600.96,1360.66" fill="#77c9d8" stroke="#77c9d8" stroke-width="0.5" stroke-linecap="round" stroke-linejoin="round"/>
  <polygon points="1415.45,1359.14 1429.51,1354.78 1438.95,1348.27 1442.36,1340.67 1439.36,1333.13 1430.39,1326.74 1416.82,1322.51 1400.81,1321.04 1384.66,1322.51 1370.72,1326.74 1361.17,1333.13 1357.50,1340.67 1360.23,1348.27 1369.09,1354.78 1382.76,1359.14 1399.04,1360.66" fill="#77c9d8" stroke="#77c9d8" stroke-width="0.5" stroke-linecap="round" stroke-linejoin="round"/>
  <polygon points="1360.23,1348.27 1360.71,1373.29 1369.54,1379.85 1369.09,1354.78" fill="#77c9d8" stroke="#77c9d8" stroke-width="0.5" stroke-linecap="round" stroke-linejoin="round"/>
  <polygon points="1561.05,1348.27 1560.84,1373.29 1570.25,1379.85 1570.49,1354.78" fill="#77c9d8" stroke="#77c9d8" stroke-width="0.5" stroke-linecap="round" stroke-linejoin="round"/>
  <polygon points="1630.91,1354.78 1630.46,1379.85 1639.29,1373.29 1639.77,1348.27" fill="#77c9d8" stroke="#77c9d8" stroke-width="0.5" stroke-linecap="round" stroke-linejoin="round"/>
  <polygon points="1429.51,1354.78 1429.75,1379.85 1439.16,1373.29 1438.95,1348.27" fill="#77c9d8" stroke="#77c9d8" stroke-width="0.5" stroke-linecap="round" stroke-linejoin="round"/>
  <polygon points="1369.09,1354.78 1369.54,1379.85 1383.16,1384.25 1382.76,1359.14" fill="#77c9d8" stroke="#77c9d8" stroke-width="0.5" stroke-linecap="round" stroke-linejoin="round"/>
  <polygon points="1570.49,1354.78 1570.25,1379.85 1584.26,1384.25 1584.55,1359.14" fill="#77c9d8" stroke="#77c9d8" stroke-width="0.5" stroke-linecap="round" stroke-linejoin="round"/>
  <polygon points="1617.24,1359.14 1616.84,1384.25 1630.46,1379.85 1630.91,1354.78" fill="#77c9d8" stroke="#77c9d8" stroke-width="0.5" stroke-linecap="round" stroke-linejoin="round"/>
  <polygon points="1415.45,1359.14 1415.74,1384.25 1429.75,1379.85 1429.51,1354.78" fill="#77c9d8" stroke="#77c9d8" stroke-width="0.5" stroke-linecap="round" stroke-linejoin="round"/>
  <polygon points="1399.04,1360.66 1399.39,1385.78 1415.74,1384.25 1415.45,1359.14" fill="#77c9d8" stroke="#77c9d8" stroke-width="0.5" stroke-linecap="round" stroke-linejoin="round"/>
  <polygon points="1600.96,1360.66 1600.61,1385.78 1616.84,1384.25 1617.24,1359.14" fill="#77c9d8" stroke="#77c9d8" stroke-width="0.5" stroke-linecap="round" stroke-linejoin="round"/>
  <polygon points="1584.55,1359.14 1584.26,1384.25 1600.61,1385.78 1600.96,1360.66" fill="#77c9d8" stroke="#77c9d8" stroke-width="0.5" stroke-linecap="round" stroke-linejoin="round"/>
  <polygon points="1382.76,1359.14 1383.16,1384.25 1399.39,1385.78 1399.04,1360.66" fill="#77c9d8" stroke="#77c9d8" stroke-width="0.5" stroke-linecap="round" stroke-linejoin="round"/>
  <polygon points="1604.09,1668.88 1606.34,1516.25 1206.89,1319.52 1212.60,1463.83" fill="#77c9d8" stroke="#77c9d8" stroke-width="0.5" stroke-linecap="round" stroke-linejoin="round"/>
  <polygon points="1799.31,1562.11 1604.09,1668.88 1601.93,1815.18 1793.35,1704.58" fill="#e2f999" stroke="#e2f999" stroke-width="0.5" stroke-linecap="round" stroke-linejoin="round"/>
  <polygon points="1745.29,1396.31 1744.44,1421.70 1746.86,1413.72 1747.72,1388.39" fill="#77c9d8" stroke="#77c9d8" stroke-width="0.5" stroke-linecap="round" stroke-linejoin="round"/>
  <polygon points="1456.67,1388.39 1456.82,1413.72 1459.94,1421.70 1459.80,1396.31" fill="#77c9d8" stroke="#77c9d8" stroke-width="0.5" stroke-linecap="round" stroke-linejoin="round"/>
  <polygon points="1661.06,1388.39 1660.50,1413.72 1664.32,1421.70 1664.90,1396.31" fill="#77c9d8" stroke="#77c9d8" stroke-width="0.5" stroke-linecap="round" stroke-linejoin="round"/>
  <polygon points="1540.20,1396.31 1540.06,1421.70 1543.18,1413.72 1543.33,1388.39" fill="#77c9d8" stroke="#77c9d8" stroke-width="0.5" stroke-linecap="round" stroke-linejoin="round"/>
  <polygon points="1733.56,1373.86 1719.12,1369.44 1702.56,1367.91 1686.28,1369.44 1672.63,1373.86 1663.76,1380.52 1661.06,1388.39 1664.90,1396.31 1674.84,1403.10 1689.41,1407.65 1706.25,1409.23 1722.80,1407.65 1736.55,1403.10 1745.29,1396.31 1747.72,1388.39 1743.61,1380.52" fill="#77c9d8" stroke="#77c9d8" stroke-width="0.5" stroke-linecap="round" stroke-linejoin="round"/>
  <polygon points="1539.92,1380.52 1530.46,1373.86 1516.42,1369.44 1500.00,1367.91 1483.58,1369.44 1469.54,1373.86 1460.08,1380.52 1456.67,1388.39 1459.80,1396.31 1469.15,1403.10 1483.31,1407.65 1500.00,1409.23 1516.69,1407.65 1530.85,1403.10 1540.20,1396.31 1543.33,1388.39" fill="#77c9d8" stroke="#77c9d8" stroke-width="0.5" stroke-linecap="round" stroke-linejoin="round"/>
  <polygon points="1530.85,1403.10 1530.75,1428.54 1540.06,1421.70 1540.20,1396.31" fill="#77c9d8" stroke="#77c9d8" stroke-width="0.5" stroke-linecap="round" stroke-linejoin="round"/>
  <polygon points="1459.80,1396.31 1459.94,1421.70 1469.25,1428.54 1469.15,1403.10" fill="#77c9d8" stroke="#77c9d8" stroke-width="0.5" stroke-linecap="round" stroke-linejoin="round"/>
  <polygon points="1736.55,1403.10 1735.73,1428.54 1744.44,1421.70 1745.29,1396.31" fill="#77c9d8" stroke="#77c9d8" stroke-width="0.5" stroke-linecap="round" stroke-linejoin="round"/>
  <polygon points="1664.90,1396.31 1664.32,1421.70 1674.24,1428.54 1674.84,1403.10" fill="#77c9d8" stroke="#77c9d8" stroke-width="0.5" stroke-linecap="round" stroke-linejoin="round"/>
  <polygon points="1722.80,1407.65 1722.02,1433.12 1735.73,1428.54 1736.55,1403.10" fill="#77c9d8" stroke="#77c9d8" stroke-width="0.5" stroke-linecap="round" stroke-linejoin="round"/>
  <polygon points="1674.84,1403.10 1674.24,1428.54 1688.75,1433.12 1689.41,1407.65" fill="#77c9d8" stroke="#77c9d8" stroke-width="0.5" stroke-linecap="round" stroke-linejoin="round"/>
  <polygon points="1469.15,1403.10 1469.25,1428.54 1483.36,1433.12 1483.31,1407.65" fill="#77c9d8" stroke="#77c9d8" stroke-width="0.5" stroke-linecap="round" stroke-linejoin="round"/>
  <polygon points="1516.69,1407.65 1516.64,1433.12 1530.75,1428.54 1530.85,1403.10" fill="#77c9d8" stroke="#77c9d8" stroke-width="0.5" stroke-linecap="round" stroke-linejoin="round"/>
  <polygon points="1483.31,1407.65 1483.36,1433.12 1500.00,1434.72 1500.00,1409.23" fill="#77c9d8" stroke="#77c9d8" stroke-width="0.5" stroke-linecap="round" stroke-linejoin="round"/>
  <polygon points="1500.00,1409.23 1500.00,1434.72 1516.64,1433.12 1516.69,1407.65" fill="#77c9d8" stroke="#77c9d8" stroke-width="0.5" stroke-linecap="round" stroke-linejoin="round"/>
  <polygon points="1706.25,1409.23 1705.53,1434.72 1722.02,1433.12 1722.80,1407.65" fill="#77c9d8" stroke="#77c9d8" stroke-width="0.5" stroke-linecap="round" stroke-linejoin="round"/>
  <polygon points="1689.41,1407.65 1688.75,1433.12 1705.53,1434.72 1706.25,1409.23" fill="#77c9d8" stroke="#77c9d8" stroke-width="0.5" stroke-linecap="round" stroke-linejoin="round"/>
  <polygon points="1805.52,1413.72 1606.34,1516.25 1604.09,1668.88 1799.31,1562.11" fill="#77c9d8" stroke="#77c9d8" stroke-width="0.5" stroke-linecap="round" stroke-linejoin="round"/>
  <polygon points="1645.85,1446.44 1645.34,1472.20 1648.16,1463.87 1648.68,1438.17" fill="#77c9d8" stroke="#77c9d8" stroke-width="0.5" stroke-linecap="round" stroke-linejoin="round"/>
  <polygon points="1560.14,1438.17 1559.93,1463.87 1563.48,1472.20 1563.71,1446.44" fill="#77c9d8" stroke="#77c9d8" stroke-width="0.5" stroke-linecap="round" stroke-linejoin="round"/>
  <polygon points="1622.37,1458.28 1636.62,1453.53 1645.85,1446.44 1648.68,1438.17 1644.83,1429.96 1634.86,1423.01 1620.30,1418.40 1603.46,1416.80 1586.76,1418.40 1572.62,1423.01 1563.26,1429.96 1560.14,1438.17 1563.71,1446.44 1573.57,1453.53 1588.25,1458.28 1605.38,1459.94" fill="#77c9d8" stroke="#77c9d8" stroke-width="0.5" stroke-linecap="round" stroke-linejoin="round"/>
  <polygon points="1563.71,1446.44 1563.48,1472.20 1573.31,1479.35 1573.57,1453.53" fill="#77c9d8" stroke="#77c9d8" stroke-width="0.5" stroke-linecap="round" stroke-linejoin="round"/>
  <polygon points="1636.62,1453.53 1636.14,1479.35 1645.34,1472.20 1645.85,1446.44" fill="#77c9d8" stroke="#77c9d8" stroke-width="0.5" stroke-linecap="round" stroke-linejoin="round"/>
  <polygon points="1573.57,1453.53 1573.31,1479.35 1587.93,1484.13 1588.25,1458.28" fill="#77c9d8" stroke="#77c9d8" stroke-width="0.5" stroke-linecap="round" stroke-linejoin="round"/>
  <polygon points="1622.37,1458.28 1621.93,1484.13 1636.14,1479.35 1636.62,1453.53" fill="#77c9d8" stroke="#77c9d8" stroke-width="0.5" stroke-linecap="round" stroke-linejoin="round"/>
  <polygon points="1588.25,1458.28 1587.93,1484.13 1605.01,1485.80 1605.38,1459.94" fill="#77c9d8" stroke="#77c9d8" stroke-width="0.5" stroke-linecap="round" stroke-linejoin="round"/>
  <polygon points="1605.38,1459.94 1605.01,1485.80 1621.93,1484.13 1622.37,1458.28" fill="#77c9d8" stroke="#77c9d8" stroke-width="0.5" stroke-linecap="round" stroke-linejoin="round"/>
  <path d="M 1218.10 1602.63 L 1601.93 1815.18 L 1793.35 1704.58 L 1799.31 1562.11 L 1604.09 1668.88 L 1601.93 1815.18 L 1793.35 1704.58 L 1799.31 1562.11 L 1604.09 1668.88 L 1212.60 1463.83 L 1218.10 1602.63 L 1601.93 1815.18 L 1604.09 1668.88 L 1212.60 1463.83 L 1218.10 1602.63" stroke="black" stroke-width="4" fill="none" stroke-linecap="round" stroke-linejoin="round"/>
  <path d="M 1212.60 1463.83 L 1604.09 1668.88 L 1799.31 1562.11 L 1805.52 1413.72 L 1606.34 1516.25 L 1604.09 1668.88 L 1799.31 1562.11 L 1805.52 1413.72 L 1747.12 1387.25 L 1805.52 1413.72 L 1606.34 1516.25 L 1206.89 1319.52 L 1262.39 1295.32 L 1206.89 1319.52 L 1212.60 1463.83 L 1604.09 1668.88 L 1606.34 1516.25 L 1206.89 1319.52 L 1212.60 1463.83" stroke="black" stroke-width="4" fill="none" stroke-linecap="round" stroke-linejoin="round"/>
  <path d="M 1704.95 1368.13 L 1641.97 1339.58 L 1704.95 1368.13" stroke="black" stroke-width="4" fill="none" stroke-linecap="round" stroke-linejoin="round"/>
  <path d="M 1601.53 1321.25 L 1541.09 1293.86 L 1601.53 1321.25" stroke="black" stroke-width="4" fill="none" stroke-linecap="round" stroke-linejoin="round"/>
  <path d="M 1502.27 1276.26 L 1444.24 1249.96 L 1502.27 1276.26" stroke="black" stroke-width="4" fill="none" stroke-linecap="round" stroke-linejoin="round"/>
  <path d="M 1406.96 1233.05 L 1406.11 1232.67 L 1405.52 1232.93 L 1406.11 1232.67 L 1406.96 1233.05" stroke="black" stroke-width="4" fill="none" stroke-linecap="round" stroke-linejoin="round"/>
  <path d="M 1363.20 1251.38 L 1306.42 1276.13 L 1363.20 1251.38" stroke="black" stroke-width="4" fill="none" stroke-linecap="round" stroke-linejoin="round"/>
  <path d="M 1745.29 1396.31 L 1747.72 1388.39 L 1743.61 1380.52 L 1733.56 1373.86 L 1719.12 1369.44 L 1702.56 1367.91 L 1686.28 1369.44 L 1672.63 1373.86 L 1663.76 1380.52 L 1661.06 1388.39 L 1664.90 1396.31 L 1674.84 1403.10 L 1689.41 1407.65 L 1706.25 1409.23 L 1722.80 1407.65 L 1736.55 1403.10 L 1745.29 1396.31" stroke="black" stroke-width="4" fill="none" stroke-linecap="round" stroke-linejoin="round"/>
  <path d="M 1661.06 1388.39 L 1660.50 1413.72 L 1664.32 1421.70 L 1674.24 1428.54 L 1688.75 1433.12 L 1705.53 1434.72 L 1722.02 1433.12 L 1735.73 1428.54 L 1744.44 1421.70 L 1746.86 1413.72 L 1747.72 1388.39" stroke="black" stroke-width="4" fill="none" stroke-linecap="round" stroke-linejoin="round"/>
  <path d="M 1706.25 1409.23 L 1722.80 1407.65 L 1736.55 1403.10" stroke="black" stroke-width="4" fill="none" stroke-linecap="round" stroke-linejoin="round"/>
  <path d="M 1733.56 1373.86 L 1719.12 1369.44 L 1702.56 1367.91" stroke="black" stroke-width="4" fill="none" stroke-linecap="round" stroke-linejoin="round"/>
  <path d="M 1672.63 1373.86 L 1663.76 1380.52 L 1661.06 1388.39 L 1664.90 1396.31 L 1674.84 1403.10" stroke="black" stroke-width="4" fill="none" stroke-linecap="round" stroke-linejoin="round"/>
  <path d="M 1639.77 1348.27 L 1642.50 1340.67 L 1638.83 1333.13 L 1629.28 1326.74 L 1615.34 1322.51 L 1599.19 1321.04 L 1583.18 1322.51 L 1569.61 1326.74 L 1560.64 1333.13 L 1557.64 1340.67 L 1561.05 1348.27 L 1570.49 1354.78 L 1584.55 1359.14 L 1600.96 1360.66 L 1617.24 1359.14 L 1630.91 1354.78 L 1639.77 1348.27 L 1630.91 1354.78" stroke="black" stroke-width="4" fill="none" stroke-linecap="round" stroke-linejoin="round"/>
  <path d="M 1557.64 1340.67 L 1557.44 1365.64 L 1560.84 1373.29 L 1570.25 1379.85 L 1584.26 1384.25 L 1600.61 1385.78 L 1616.84 1384.25 L 1630.46 1379.85 L 1639.29 1373.29 L 1642.02 1365.64 L 1642.50 1340.67" stroke="black" stroke-width="4" fill="none" stroke-linecap="round" stroke-linejoin="round"/>
  <path d="M 1638.83 1333.13 L 1629.28 1326.74" stroke="black" stroke-width="4" fill="none" stroke-linecap="round" stroke-linejoin="round"/>
  <path d="M 1615.34 1322.51 L 1599.19 1321.04" stroke="black" stroke-width="4" fill="none" stroke-linecap="round" stroke-linejoin="round"/>
  <path d="M 1583.18 1322.51 L 1569.61 1326.74" stroke="black" stroke-width="4" fill="none" stroke-linecap="round" stroke-linejoin="round"/>
  <path d="M 1560.64 1333.13 L 1557.64 1340.67 L 1561.05 1348.27" stroke="black" stroke-width="4" fill="none" stroke-linecap="round" stroke-linejoin="round"/>
  <path d="M 1570.49 1354.78 L 1584.55 1359.14" stroke="black" stroke-width="4" fill="none" stroke-linecap="round" stroke-linejoin="round"/>
  <path d="M 1600.96 1360.66 L 1617.24 1359.14" stroke="black" stroke-width="4" fill="none" stroke-linecap="round" stroke-linejoin="round"/>
  <path d="M 1538.55 1302.19 L 1541.56 1294.91 L 1538.30 1287.67 L 1529.23 1281.54 L 1515.75 1277.47 L 1500.00 1276.06 L 1484.25 1277.47 L 1470.77 1281.54 L 1461.70 1287.67 L 1458.44 1294.91 L 1461.45 1302.19 L 1470.41 1308.44 L 1483.99 1312.62 L 1500.00 1314.08 L 1516.01 1312.62 L 1529.59 1308.44 L 1538.55 1302.19 L 1529.59 1308.44" stroke="black" stroke-width="4" fill="none" stroke-linecap="round" stroke-linejoin="round"/>
  <path d="M 1458.44 1294.91 L 1458.57 1319.52 L 1461.57 1326.86 L 1470.51 1333.16 L 1484.04 1337.37 L 1500.00 1338.84 L 1515.96 1337.37 L 1529.49 1333.16 L 1538.43 1326.86 L 1541.43 1319.52 L 1541.56 1294.91" stroke="black" stroke-width="4" fill="none" stroke-linecap="round" stroke-linejoin="round"/>
  <path d="M 1505.53 1301.02 L 1500.00 1300.52" stroke="black" stroke-width="4" fill="none" stroke-linecap="round" stroke-linejoin="round"/>
  <path d="M 1538.30 1287.67 L 1529.23 1281.54" stroke="black" stroke-width="4" fill="none" stroke-linecap="round" stroke-linejoin="round"/>
  <path d="M 1515.75 1277.47 L 1500.00 1276.06" stroke="black" stroke-width="4" fill="none" stroke-linecap="round" stroke-linejoin="round"/>
  <path d="M 1484.25 1277.47 L 1470.77 1281.54" stroke="black" stroke-width="4" fill="none" stroke-linecap="round" stroke-linejoin="round"/>
  <path d="M 1461.70 1287.67 L 1458.44 1294.91 L 1461.45 1302.19" stroke="black" stroke-width="4" fill="none" stroke-linecap="round" stroke-linejoin="round"/>
  <path d="M 1470.41 1308.44 L 1483.99 1312.62" stroke="black" stroke-width="4" fill="none" stroke-linecap="round" stroke-linejoin="round"/>
  <path d="M 1500.00 1314.08 L 1516.01 1312.62" stroke="black" stroke-width="4" fill="none" stroke-linecap="round" stroke-linejoin="round"/>
  <path d="M 1441.40 1257.96 L 1444.66 1250.96 L 1441.78 1244.01 L 1433.15 1238.12 L 1420.12 1234.22 L 1404.73 1232.86 L 1389.23 1234.22 L 1375.85 1238.12 L 1366.70 1244.01 L 1363.19 1250.96 L 1365.83 1257.96 L 1374.35 1263.96 L 1387.48 1267.98 L 1403.11 1269.38 L 1418.86 1267.98 L 1432.34 1263.96 L 1441.40 1257.96" stroke="black" stroke-width="4" fill="none" stroke-linecap="round" stroke-linejoin="round"/>
  <path d="M 1363.19 1250.96 L 1363.64 1275.23 L 1366.27 1282.29 L 1374.76 1288.33 L 1387.85 1292.38 L 1403.43 1293.79 L 1419.12 1292.38 L 1432.57 1288.33 L 1441.59 1282.29 L 1444.84 1275.23 L 1444.66 1250.96" stroke="black" stroke-width="4" fill="none" stroke-linecap="round" stroke-linejoin="round"/>
  <path d="M 1403.11 1269.38 L 1418.86 1267.98 L 1432.34 1263.96" stroke="black" stroke-width="4" fill="none" stroke-linecap="round" stroke-linejoin="round"/>
  <path d="M 1433.15 1238.12 L 1420.12 1234.22 L 1404.73 1232.86" stroke="black" stroke-width="4" fill="none" stroke-linecap="round" stroke-linejoin="round"/>
  <path d="M 1375.85 1238.12 L 1366.70 1244.01 L 1363.19 1250.96 L 1365.83 1257.96 L 1374.35 1263.96" stroke="black" stroke-width="4" fill="none" stroke-linecap="round" stroke-linejoin="round"/>
  <path d="M 1645.85 1446.44 L 1648.68 1438.17 L 1644.83 1429.96 L 1634.86 1423.01 L 1620.30 1418.40 L 1603.46 1416.80 L 1586.76 1418.40 L 1572.62 1423.01 L 1563.26 1429.96 L 1560.14 1438.17 L 1563.71 1446.44 L 1573.57 1453.53 L 1588.25 1458.28 L 1605.38 1459.94 L 1622.37 1458.28 L 1636.62 1453.53 L 1645.85 1446.44" stroke="black" stroke-width="4" fill="none" stroke-linecap="round" stroke-linejoin="round"/>
  <path d="M 1560.14 1438.17 L 1559.93 1463.87 L 1563.48 1472.20 L 1573.31 1479.35 L 1587.93 1484.13 L 1605.01 1485.80 L 1621.93 1484.13 L 1636.14 1479.35 L 1645.34 1472.20 L 1648.16 1463.87 L 1648.68 1438.17" stroke="black" stroke-width="4" fill="none" stroke-linecap="round" stroke-linejoin="round"/>
  <path d="M 1605.38 1459.94 L 1622.37 1458.28 L 1636.62 1453.53" stroke="black" stroke-width="4" fill="none" stroke-linecap="round" stroke-linejoin="round"/>
  <path d="M 1634.86 1423.01 L 1620.30 1418.40 L 1603.46 1416.80" stroke="black" stroke-width="4" fill="none" stroke-linecap="round" stroke-linejoin="round"/>
  <path d="M 1572.62 1423.01 L 1563.26 1429.96 L 1560.14 1438.17 L 1563.71 1446.44 L 1573.57 1453.53" stroke="black" stroke-width="4" fill="none" stroke-linecap="round" stroke-linejoin="round"/>
  <path d="M 1540.20 1396.31 L 1543.33 1388.39 L 1539.92 1380.52 L 1530.46 1373.86 L 1516.42 1369.44 L 1500.00 1367.91 L 1483.58 1369.44 L 1469.54 1373.86 L 1460.08 1380.52 L 1456.67 1388.39 L 1459.80 1396.31 L 1469.15 1403.10 L 1483.31 1407.65 L 1500.00 1409.23 L 1516.69 1407.65 L 1530.85 1403.10 L 1540.20 1396.31 L 1530.85 1403.10" stroke="black" stroke-width="4" fill="none" stroke-linecap="round" stroke-linejoin="round"/>
  <path d="M 1456.67 1388.39 L 1456.82 1413.72 L 1459.94 1421.70 L 1469.25 1428.54 L 1483.36 1433.12 L 1500.00 1434.72 L 1516.64 1433.12 L 1530.75 1428.54 L 1540.06 1421.70 L 1543.18 1413.72 L 1543.33 1388.39" stroke="black" stroke-width="4" fill="none" stroke-linecap="round" stroke-linejoin="round"/>
  <path d="M 1504.44 1393.51 L 1500.00 1393.09" stroke="black" stroke-width="4" fill="none" stroke-linecap="round" stroke-linejoin="round"/>
  <path d="M 1539.92 1380.52 L 1530.46 1373.86" stroke="black" stroke-width="4" fill="none" stroke-linecap="round" stroke-linejoin="round"/>
  <path d="M 1516.42 1369.44 L 1500.00 1367.91" stroke="black" stroke-width="4" fill="none" stroke-linecap="round" stroke-linejoin="round"/>
  <path d="M 1483.58 1369.44 L 1469.54 1373.86" stroke="black" stroke-width="4" fill="none" stroke-linecap="round" stroke-linejoin="round"/>
  <path d="M 1460.08 1380.52 L 1456.67 1388.39 L 1459.80 1396.31" stroke="black" stroke-width="4" fill="none" stroke-linecap="round" stroke-linejoin="round"/>
  <path d="M 1469.15 1403.10 L 1483.31 1407.65" stroke="black" stroke-width="4" fill="none" stroke-linecap="round" stroke-linejoin="round"/>
  <path d="M 1500.00 1409.23 L 1516.69 1407.65" stroke="black" stroke-width="4" fill="none" stroke-linecap="round" stroke-linejoin="round"/>
  <path d="M 1438.95 1348.27 L 1442.36 1340.67 L 1439.36 1333.13 L 1430.39 1326.74 L 1416.82 1322.51 L 1400.81 1321.04 L 1384.66 1322.51 L 1370.72 1326.74 L 1361.17 1333.13 L 1357.50 1340.67 L 1360.23 1348.27 L 1369.09 1354.78 L 1382.76 1359.14 L 1399.04 1360.66 L 1415.45 1359.14 L 1429.51 1354.78 L 1438.95 1348.27 L 1429.51 1354.78" stroke="black" stroke-width="4" fill="none" stroke-linecap="round" stroke-linejoin="round"/>
  <path d="M 1357.50 1340.67 L 1357.98 1365.64 L 1360.71 1373.29 L 1369.54 1379.85 L 1383.16 1384.25 L 1399.39 1385.78 L 1415.74 1384.25 L 1429.75 1379.85 L 1439.16 1373.29 L 1442.56 1365.64 L 1442.36 1340.67" stroke="black" stroke-width="4" fill="none" stroke-linecap="round" stroke-linejoin="round"/>
  <path d="M 1439.36 1333.13 L 1430.39 1326.74" stroke="black" stroke-width="4" fill="none" stroke-linecap="round" stroke-linejoin="round"/>
  <path d="M 1416.82 1322.51 L 1400.81 1321.04" stroke="black" stroke-width="4" fill="none" stroke-linecap="round" stroke-linejoin="round"/>
  <path d="M 1384.66 1322.51 L 1370.72 1326.74" stroke="black" stroke-width="4" fill="none" stroke-linecap="round" stroke-linejoin="round"/>
  <path d="M 1361.17 1333.13 L 1357.50 1340.67 L 1360.23 1348.27" stroke="black" stroke-width="4" fill="none" stroke-linecap="round" stroke-linejoin="round"/>
  <path d="M 1369.09 1354.78 L 1382.76 1359.14" stroke="black" stroke-width="4" fill="none" stroke-linecap="round" stroke-linejoin="round"/>
  <path d="M 1399.04 1360.66 L 1415.45 1359.14" stroke="black" stroke-width="4" fill="none" stroke-linecap="round" stroke-linejoin="round"/>
  <path d="M 1341.85 1302.19 L 1345.51 1294.91 L 1342.89 1287.67 L 1334.36 1281.54 L 1321.25 1277.47 L 1305.62 1276.06 L 1289.74 1277.47 L 1275.90 1281.54 L 1266.28 1287.67 L 1262.38 1294.91 L 1264.74 1302.19 L 1273.15 1308.44 L 1286.35 1312.62 L 1302.23 1314.08 L 1318.37 1312.62 L 1332.32 1308.44 L 1341.85 1302.19" stroke="black" stroke-width="4" fill="none" stroke-linecap="round" stroke-linejoin="round"/>
  <path d="M 1262.38 1294.91 L 1263.16 1319.52 L 1265.52 1326.86 L 1273.90 1333.16 L 1287.07 1337.37 L 1302.89 1338.84 L 1318.98 1337.37 L 1332.88 1333.16 L 1342.37 1326.86 L 1346.02 1319.52 L 1345.51 1294.91" stroke="black" stroke-width="4" fill="none" stroke-linecap="round" stroke-linejoin="round"/>
  <path d="M 1302.23 1314.08 L 1318.37 1312.62 L 1332.32 1308.44" stroke="black" stroke-width="4" fill="none" stroke-linecap="round" stroke-linejoin="round"/>
  <path d="M 1334.36 1281.54 L 1321.25 1277.47 L 1305.62 1276.06" stroke="black" stroke-width="4" fill="none" stroke-linecap="round" stroke-linejoin="round"/>
  <path d="M 1275.90 1281.54 L 1266.28 1287.67 L 1262.38 1294.91 L 1264.74 1302.19 L 1273.15 1308.44" stroke="black" stroke-width="4" fill="none" stroke-linecap="round" stroke-linejoin="round"/>
  <path d="M 1206.89 1319.52 L 1606.34 1516.25 L 1805.52 1413.72 L 1747.12 1387.25" stroke="black" stroke-width="4" fill="none" stroke-linecap="round" stroke-linejoin="round"/>
  <path d="M 1704.95 1368.13 L 1641.97 1339.58" stroke="black" stroke-width="4" fill="none" stroke-linecap="round" stroke-linejoin="round"/>
  <path d="M 1601.53 1321.25 L 1541.09 1293.86" stroke="black" stroke-width="4" fill="none" stroke-linecap="round" stroke-linejoin="round"/>
  <path d="M 1502.27 1276.26 L 1444.24 1249.96" stroke="black" stroke-width="4" fill="none" stroke-linecap="round" stroke-linejoin="round"/>
  <path d="M 1406.96 1233.05 L 1406.11 1232.67 L 1405.52 1232.93" stroke="black" stroke-width="4" fill="none" stroke-linecap="round" stroke-linejoin="round"/>
  <path d="M 1363.20 1251.38 L 1306.42 1276.13" stroke="black" stroke-width="4" fill="none" stroke-linecap="round" stroke-linejoin="round"/>
  <path d="M 1262.39 1295.32 L 1206.89 1319.52 L 1212.60 1463.83 L 1604.09 1668.88 L 1601.93 1815.18 L 1218.10 1602.63 L 1212.60 1463.83 L 1604.09 1668.88 L 1799.31 1562.11 L 1793.35 1704.58 L 1601.93 1815.18" stroke="black" stroke-width="4" fill="none" stroke-linecap="round" stroke-linejoin="round"/>
  <path d="M 1606.34 1516.25 L 1604.09 1668.88 L 1212.60 1463.83 L 1604.09 1668.88 L 1799.31 1562.11 L 1604.09 1668.88 L 1799.31 1562.11 L 1805.52 1413.72" stroke="black" stroke-width="4" fill="none" stroke-linecap="round" stroke-linejoin="round"/>
  <path d="M 1660.50 1413.72 L 1664.32 1421.70 L 1674.24 1428.54 L 1688.75 1433.12 L 1705.53 1434.72 L 1722.02 1433.12 L 1735.73 1428.54 L 1744.44 1421.70 L 1746.86 1413.72" stroke="black" stroke-width="4" fill="none" stroke-linecap="round" stroke-linejoin="round"/>
  <path d="M 1736.55 1403.10 L 1722.80 1407.65 L 1706.25 1409.23 L 1689.41 1407.65 L 1674.84 1403.10 L 1664.90 1396.31 L 1661.06 1388.39 L 1663.76 1380.52 L 1672.63 1373.86 L 1686.28 1369.44 L 1702.56 1367.91 L 1719.12 1369.44 L 1733.56 1373.86 L 1743.61 1380.52 L 1747.72 1388.39 L 1745.29 1396.31 L 1736.55 1403.10" stroke="black" stroke-width="4" fill="none" stroke-linecap="round" stroke-linejoin="round"/>
  <path d="M 1557.44 1365.64 L 1560.84 1373.29 L 1570.25 1379.85 L 1584.26 1384.25 L 1600.61 1385.78 L 1616.84 1384.25 L 1630.46 1379.85 L 1639.29 1373.29 L 1642.02 1365.64" stroke="black" stroke-width="4" fill="none" stroke-linecap="round" stroke-linejoin="round"/>
  <path d="M 1630.91 1354.78 L 1617.24 1359.14 L 1600.96 1360.66 L 1584.55 1359.14 L 1570.49 1354.78 L 1561.05 1348.27 L 1557.64 1340.67 L 1560.64 1333.13 L 1569.61 1326.74 L 1583.18 1322.51 L 1599.19 1321.04 L 1615.34 1322.51 L 1629.28 1326.74 L 1638.83 1333.13 L 1642.50 1340.67 L 1639.77 1348.27 L 1630.91 1354.78" stroke="black" stroke-width="4" fill="none" stroke-linecap="round" stroke-linejoin="round"/>
  <path d="M 1458.57 1319.52 L 1461.57 1326.86 L 1470.51 1333.16 L 1478.91 1335.77 L 1484.04 1337.37 L 1500.00 1338.84 L 1515.96 1337.37 L 1529.49 1333.16 L 1538.43 1326.86 L 1541.43 1319.52" stroke="black" stroke-width="4" fill="none" stroke-linecap="round" stroke-linejoin="round"/>
  <path d="M 1505.53 1301.02 L 1500.00 1300.52" stroke="black" stroke-width="4" fill="none" stroke-linecap="round" stroke-linejoin="round"/>
  <path d="M 1529.59 1308.44 L 1516.01 1312.62 L 1500.00 1314.08 L 1483.99 1312.62 L 1470.41 1308.44 L 1461.45 1302.19 L 1458.44 1294.91 L 1461.70 1287.67 L 1470.77 1281.54 L 1484.25 1277.47 L 1500.00 1276.06 L 1515.75 1277.47 L 1529.23 1281.54 L 1538.30 1287.67 L 1541.56 1294.91 L 1538.55 1302.19 L 1529.59 1308.44" stroke="black" stroke-width="4" fill="none" stroke-linecap="round" stroke-linejoin="round"/>
  <path d="M 1363.64 1275.23 L 1366.27 1282.29 L 1374.76 1288.33 L 1387.85 1292.38 L 1403.43 1293.79 L 1419.12 1292.38 L 1432.57 1288.33 L 1441.29 1282.49" stroke="black" stroke-width="4" fill="none" stroke-linecap="round" stroke-linejoin="round"/>
  <path d="M 1441.59 1282.29 L 1444.84 1275.23" stroke="black" stroke-width="4" fill="none" stroke-linecap="round" stroke-linejoin="round"/>
  <path d="M 1432.34 1263.96 L 1418.86 1267.98 L 1403.11 1269.38 L 1387.48 1267.98 L 1374.35 1263.96 L 1365.83 1257.96 L 1363.19 1250.96 L 1366.70 1244.01 L 1375.85 1238.12 L 1389.23 1234.22 L 1404.73 1232.86 L 1420.12 1234.22 L 1433.15 1238.12 L 1441.78 1244.01 L 1444.66 1250.96 L 1441.40 1257.96 L 1432.34 1263.96" stroke="black" stroke-width="4" fill="none" stroke-linecap="round" stroke-linejoin="round"/>
  <path d="M 1559.93 1463.87 L 1563.48 1472.20 L 1573.31 1479.35 L 1582.38 1482.32 L 1587.93 1484.13 L 1605.01 1485.80 L 1621.93 1484.13 L 1636.14 1479.35 L 1645.34 1472.20 L 1648.16 1463.87" stroke="black" stroke-width="4" fill="none" stroke-linecap="round" stroke-linejoin="round"/>
  <path d="M 1636.62 1453.53 L 1622.37 1458.28 L 1605.38 1459.94 L 1588.25 1458.28 L 1573.57 1453.53 L 1563.71 1446.44 L 1560.14 1438.17 L 1563.26 1429.96 L 1572.62 1423.01 L 1586.76 1418.40 L 1603.46 1416.80 L 1620.30 1418.40 L 1634.86 1423.01 L 1644.83 1429.96 L 1648.68 1438.17 L 1645.85 1446.44 L 1636.62 1453.53" stroke="black" stroke-width="4" fill="none" stroke-linecap="round" stroke-linejoin="round"/>
  <path d="M 1543.18 1413.72 L 1540.06 1421.70 L 1539.74 1421.93 L 1530.75 1428.54 L 1516.64 1433.12 L 1500.00 1434.72 L 1483.36 1433.12 L 1469.25 1428.54 L 1459.94 1421.70 L 1456.82 1413.72" stroke="black" stroke-width="4" fill="none" stroke-linecap="round" stroke-linejoin="round"/>
  <path d="M 1504.44 1393.51 L 1500.00 1393.09" stroke="black" stroke-width="4" fill="none" stroke-linecap="round" stroke-linejoin="round"/>
  <path d="M 1459.72 1381.35 L 1460.08 1380.52 L 1469.54 1373.86 L 1483.58 1369.44 L 1500.00 1367.91 L 1516.42 1369.44 L 1530.46 1373.86 L 1539.92 1380.52 L 1543.33 1388.39 L 1540.20 1396.31 L 1530.85 1403.10 L 1516.69 1407.65 L 1500.00 1409.23 L 1483.31 1407.65 L 1469.15 1403.10 L 1459.80 1396.31 L 1456.67 1388.39" stroke="black" stroke-width="4" fill="none" stroke-linecap="round" stroke-linejoin="round"/>
  <path d="M 1357.98 1365.64 L 1360.71 1373.29 L 1369.54 1379.85 L 1383.16 1384.25 L 1399.39 1385.78 L 1415.74 1384.25 L 1429.75 1379.85 L 1439.16 1373.29 L 1442.56 1365.64" stroke="black" stroke-width="4" fill="none" stroke-linecap="round" stroke-linejoin="round"/>
  <path d="M 1429.51 1354.78 L 1415.45 1359.14 L 1399.04 1360.66 L 1382.76 1359.14 L 1369.09 1354.78 L 1360.23 1348.27 L 1357.50 1340.67 L 1361.17 1333.13 L 1370.72 1326.74 L 1384.66 1322.51 L 1400.81 1321.04 L 1416.82 1322.51 L 1430.39 1326.74 L 1439.36 1333.13 L 1442.36 1340.67 L 1438.95 1348.27 L 1429.51 1354.78" stroke="black" stroke-width="4" fill="none" stroke-linecap="round" stroke-linejoin="round"/>
  <path d="M 1263.16 1319.52 L 1265.52 1326.86 L 1273.90 1333.16 L 1287.07 1337.37 L 1302.89 1338.84 L 1318.98 1337.37 L 1332.88 1333.16 L 1342.37 1326.86 L 1346.02 1319.52" stroke="black" stroke-width="4" fill="none" stroke-linecap="round" stroke-linejoin="round"/>
  <path d="M 1332.32 1308.44 L 1318.37 1312.62 L 1302.23 1314.08 L 1286.35 1312.62 L 1273.15 1308.44 L 1264.74 1302.19 L 1262.38 1294.91 L 1266.28 1287.67 L 1275.90 1281.54 L 1289.74 1277.47 L 1305.62 1276.06 L 1321.25 1277.47 L 1334.36 1281.54 L 1342.89 1287.67 L 1345.51 1294.91 L 1341.85 1302.19 L 1332.32 1308.44" stroke="black" stroke-width="4" fill="none" stroke-linecap="round" stroke-linejoin="round"/>
</svg>
