<?xml version="1.0" ?>
<svg xmlns="http://www.w3.org/2000/svg" version="1.1" width="688.96px" height="3000px" viewBox="1162.81 0 688.96 3000">
  <polygon points="1441.61,1611.70 1441.80,1634.78 1445.04,1626.62 1444.86,1603.58" fill="#e2f999" stroke="#e2f999" stroke-width="0.5" stroke-linecap="round" stroke-linejoin="round"/>
  <polygon points="1363.69,1603.58 1364.13,1626.62 1366.75,1634.78 1366.32,1611.70" fill="#e2f999" stroke="#e2f999" stroke-width="0.5" stroke-linecap="round" stroke-linejoin="round"/>
  <polygon points="1433.39,1588.69 1420.40,1584.16 1405.08,1582.59 1389.63,1584.16 1376.30,1588.69 1367.18,1595.52 1363.69,1603.58 1366.32,1611.70 1374.81,1618.65 1387.89,1623.31 1403.46,1624.93 1419.15,1623.31 1432.59,1618.65 1441.61,1611.70 1444.86,1603.58 1441.99,1595.52" fill="#e2f999" stroke="#e2f999" stroke-width="0.5" stroke-linecap="round" stroke-linejoin="round"/>
  <polygon points="1432.59,1618.65 1432.81,1641.77 1441.80,1634.78 1441.61,1611.70" fill="#e2f999" stroke="#e2f999" stroke-width="0.5" stroke-linecap="round" stroke-linejoin="round"/>
  <polygon points="1366.32,1611.70 1366.75,1634.78 1375.22,1641.77 1374.81,1618.65" fill="#e2f999" stroke="#e2f999" stroke-width="0.5" stroke-linecap="round" stroke-linejoin="round"/>
  <polygon points="1374.81,1618.65 1375.22,1641.77 1388.26,1646.46 1387.89,1623.31" fill="#e2f999" stroke="#e2f999" stroke-width="0.5" stroke-linecap="round" stroke-linejoin="round"/>
  <polygon points="1419.15,1623.31 1419.42,1646.46 1432.81,1641.77 1432.59,1618.65" fill="#e2f999" stroke="#e2f999" stroke-width="0.5" stroke-linecap="round" stroke-linejoin="round"/>
  <polygon points="1387.89,1623.31 1388.26,1646.46 1403.78,1648.09 1403.46,1624.93" fill="#e2f999" stroke="#e2f999" stroke-width="0.5" stroke-linecap="round" stroke-linejoin="round"/>
  <polygon points="1403.46,1624.93 1403.78,1648.09 1419.42,1646.46 1419.15,1623.31" fill="#e2f999" stroke="#e2f999" stroke-width="0.5" stroke-linecap="round" stroke-linejoin="round"/>
  <polygon points="1342.43,1662.97 1342.95,1686.35 1346.58,1677.85 1346.07,1654.52" fill="#e2f999" stroke="#e2f999" stroke-width="0.5" stroke-linecap="round" stroke-linejoin="round"/>
  <polygon points="1458.59,1654.52 1458.73,1677.85 1461.71,1686.35 1461.59,1662.97" fill="#e2f999" stroke="#e2f999" stroke-width="0.5" stroke-linecap="round" stroke-linejoin="round"/>
  <polygon points="1538.41,1662.97 1538.29,1686.35 1541.27,1677.85 1541.41,1654.52" fill="#e2f999" stroke="#e2f999" stroke-width="0.5" stroke-linecap="round" stroke-linejoin="round"/>
  <polygon points="1263.25,1654.52 1264.03,1677.85 1266.38,1686.35 1265.61,1662.97" fill="#e2f999" stroke="#e2f999" stroke-width="0.5" stroke-linecap="round" stroke-linejoin="round"/>
  <polygon points="1515.95,1675.05 1529.48,1670.21 1538.41,1662.97 1541.41,1654.52 1538.16,1646.13 1529.12,1639.02 1515.70,1634.31 1500.00,1632.67 1484.30,1634.31 1470.88,1639.02 1461.84,1646.13 1458.59,1654.52 1461.59,1662.97 1470.52,1670.21 1484.05,1675.05 1500.00,1676.75" fill="#e2f999" stroke="#e2f999" stroke-width="0.5" stroke-linecap="round" stroke-linejoin="round"/>
  <polygon points="1287.15,1675.05 1302.97,1676.75 1319.05,1675.05 1332.95,1670.21 1342.43,1662.97 1346.07,1654.52 1343.46,1646.13 1334.97,1639.02 1321.90,1634.31 1306.33,1632.67 1290.51,1634.31 1276.72,1639.02 1267.14,1646.13 1263.25,1654.52 1265.61,1662.97 1273.99,1670.21" fill="#e2f999" stroke="#e2f999" stroke-width="0.5" stroke-linecap="round" stroke-linejoin="round"/>
  <polygon points="1265.61,1662.97 1266.38,1686.35 1274.74,1693.63 1273.99,1670.21" fill="#e2f999" stroke="#e2f999" stroke-width="0.5" stroke-linecap="round" stroke-linejoin="round"/>
  <polygon points="1332.95,1670.21 1333.50,1693.63 1342.95,1686.35 1342.43,1662.97" fill="#e2f999" stroke="#e2f999" stroke-width="0.5" stroke-linecap="round" stroke-linejoin="round"/>
  <polygon points="1529.48,1670.21 1529.38,1693.63 1538.29,1686.35 1538.41,1662.97" fill="#e2f999" stroke="#e2f999" stroke-width="0.5" stroke-linecap="round" stroke-linejoin="round"/>
  <polygon points="1461.59,1662.97 1461.71,1686.35 1470.62,1693.63 1470.52,1670.21" fill="#e2f999" stroke="#e2f999" stroke-width="0.5" stroke-linecap="round" stroke-linejoin="round"/>
  <polygon points="1515.95,1675.05 1515.90,1698.51 1529.38,1693.63 1529.48,1670.21" fill="#e2f999" stroke="#e2f999" stroke-width="0.5" stroke-linecap="round" stroke-linejoin="round"/>
  <polygon points="1470.52,1670.21 1470.62,1693.63 1484.10,1698.51 1484.05,1675.05" fill="#e2f999" stroke="#e2f999" stroke-width="0.5" stroke-linecap="round" stroke-linejoin="round"/>
  <polygon points="1273.99,1670.21 1274.74,1693.63 1287.86,1698.51 1287.15,1675.05" fill="#e2f999" stroke="#e2f999" stroke-width="0.5" stroke-linecap="round" stroke-linejoin="round"/>
  <polygon points="1319.05,1675.05 1319.65,1698.51 1333.50,1693.63 1332.95,1670.21" fill="#e2f999" stroke="#e2f999" stroke-width="0.5" stroke-linecap="round" stroke-linejoin="round"/>
  <polygon points="1287.15,1675.05 1287.86,1698.51 1303.62,1700.21 1302.97,1676.75" fill="#e2f999" stroke="#e2f999" stroke-width="0.5" stroke-linecap="round" stroke-linejoin="round"/>
  <polygon points="1302.97,1676.75 1303.62,1700.21 1319.65,1698.51 1319.05,1675.05" fill="#e2f999" stroke="#e2f999" stroke-width="0.5" stroke-linecap="round" stroke-linejoin="round"/>
  <polygon points="1500.00,1676.75 1500.00,1700.21 1515.90,1698.51 1515.95,1675.05" fill="#e2f999" stroke="#e2f999" stroke-width="0.5" stroke-linecap="round" stroke-linejoin="round"/>
  <polygon points="1484.05,1675.05 1484.10,1698.51 1500.00,1700.21 1500.00,1676.75" fill="#e2f999" stroke="#e2f999" stroke-width="0.5" stroke-linecap="round" stroke-linejoin="round"/>
  <polygon points="1406.44,1577.38 1207.96,1677.85 1605.92,1905.35 1804.35,1786.80" fill="#e2f999" stroke="#e2f999" stroke-width="0.5" stroke-linecap="round" stroke-linejoin="round"/>
  <polygon points="1358.04,1707.57 1358.52,1731.20 1361.23,1740.05 1360.76,1716.37" fill="#e2f999" stroke="#e2f999" stroke-width="0.5" stroke-linecap="round" stroke-linejoin="round"/>
  <polygon points="1439.18,1716.37 1439.39,1740.05 1442.77,1731.20 1442.58,1707.57" fill="#e2f999" stroke="#e2f999" stroke-width="0.5" stroke-linecap="round" stroke-linejoin="round"/>
  <polygon points="1639.24,1716.37 1638.77,1740.05 1641.48,1731.20 1641.96,1707.57" fill="#e2f999" stroke="#e2f999" stroke-width="0.5" stroke-linecap="round" stroke-linejoin="round"/>
  <polygon points="1557.42,1707.57 1557.23,1731.20 1560.61,1740.05 1560.82,1716.37" fill="#e2f999" stroke="#e2f999" stroke-width="0.5" stroke-linecap="round" stroke-linejoin="round"/>
  <polygon points="1584.23,1728.97 1600.58,1730.73 1616.79,1728.97 1630.41,1723.91 1639.24,1716.37 1641.96,1707.57 1638.31,1698.82 1628.80,1691.42 1614.91,1686.51 1598.82,1684.81 1582.87,1686.51 1569.35,1691.42 1560.41,1698.82 1557.42,1707.57 1560.82,1716.37 1570.22,1723.91" fill="#e2f999" stroke="#e2f999" stroke-width="0.5" stroke-linecap="round" stroke-linejoin="round"/>
  <polygon points="1430.65,1691.42 1417.13,1686.51 1401.18,1684.81 1385.09,1686.51 1371.20,1691.42 1361.69,1698.82 1358.04,1707.57 1360.76,1716.37 1369.59,1723.91 1383.21,1728.97 1399.42,1730.73 1415.77,1728.97 1429.78,1723.91 1439.18,1716.37 1442.58,1707.57 1439.59,1698.82" fill="#e2f999" stroke="#e2f999" stroke-width="0.5" stroke-linecap="round" stroke-linejoin="round"/>
  <polygon points="1560.82,1716.37 1560.61,1740.05 1569.98,1747.64 1570.22,1723.91" fill="#e2f999" stroke="#e2f999" stroke-width="0.5" stroke-linecap="round" stroke-linejoin="round"/>
  <polygon points="1630.41,1723.91 1629.97,1747.64 1638.77,1740.05 1639.24,1716.37" fill="#e2f999" stroke="#e2f999" stroke-width="0.5" stroke-linecap="round" stroke-linejoin="round"/>
  <polygon points="1360.76,1716.37 1361.23,1740.05 1370.03,1747.64 1369.59,1723.91" fill="#e2f999" stroke="#e2f999" stroke-width="0.5" stroke-linecap="round" stroke-linejoin="round"/>
  <polygon points="1429.78,1723.91 1430.02,1747.64 1439.39,1740.05 1439.18,1716.37" fill="#e2f999" stroke="#e2f999" stroke-width="0.5" stroke-linecap="round" stroke-linejoin="round"/>
  <polygon points="1570.22,1723.91 1569.98,1747.64 1583.94,1752.72 1584.23,1728.97" fill="#e2f999" stroke="#e2f999" stroke-width="0.5" stroke-linecap="round" stroke-linejoin="round"/>
  <polygon points="1415.77,1728.97 1416.06,1752.72 1430.02,1747.64 1429.78,1723.91" fill="#e2f999" stroke="#e2f999" stroke-width="0.5" stroke-linecap="round" stroke-linejoin="round"/>
  <polygon points="1616.79,1728.97 1616.39,1752.72 1629.97,1747.64 1630.41,1723.91" fill="#e2f999" stroke="#e2f999" stroke-width="0.5" stroke-linecap="round" stroke-linejoin="round"/>
  <polygon points="1369.59,1723.91 1370.03,1747.64 1383.61,1752.72 1383.21,1728.97" fill="#e2f999" stroke="#e2f999" stroke-width="0.5" stroke-linecap="round" stroke-linejoin="round"/>
  <polygon points="1600.58,1730.73 1600.23,1754.50 1616.39,1752.72 1616.79,1728.97" fill="#e2f999" stroke="#e2f999" stroke-width="0.5" stroke-linecap="round" stroke-linejoin="round"/>
  <polygon points="1383.21,1728.97 1383.61,1752.72 1399.77,1754.50 1399.42,1730.73" fill="#e2f999" stroke="#e2f999" stroke-width="0.5" stroke-linecap="round" stroke-linejoin="round"/>
  <polygon points="1399.42,1730.73 1399.77,1754.50 1416.06,1752.72 1415.77,1728.97" fill="#e2f999" stroke="#e2f999" stroke-width="0.5" stroke-linecap="round" stroke-linejoin="round"/>
  <polygon points="1584.23,1728.97 1583.94,1752.72 1600.23,1754.50 1600.58,1730.73" fill="#e2f999" stroke="#e2f999" stroke-width="0.5" stroke-linecap="round" stroke-linejoin="round"/>
  <polygon points="1603.68,2049.17 1605.92,1905.35 1207.96,1677.85 1213.64,1814.68" fill="#e2f999" stroke="#e2f999" stroke-width="0.5" stroke-linecap="round" stroke-linejoin="round"/>
  <polygon points="1744.35,1772.04 1743.50,1796.03 1745.92,1786.80 1746.77,1762.86" fill="#e2f999" stroke="#e2f999" stroke-width="0.5" stroke-linecap="round" stroke-linejoin="round"/>
  <polygon points="1540.04,1772.04 1539.91,1796.03 1543.02,1786.80 1543.16,1762.86" fill="#e2f999" stroke="#e2f999" stroke-width="0.5" stroke-linecap="round" stroke-linejoin="round"/>
  <polygon points="1456.84,1762.86 1456.98,1786.80 1460.09,1796.03 1459.96,1772.04" fill="#e2f999" stroke="#e2f999" stroke-width="0.5" stroke-linecap="round" stroke-linejoin="round"/>
  <polygon points="1660.44,1762.86 1659.89,1786.80 1663.69,1796.03 1664.26,1772.04" fill="#e2f999" stroke="#e2f999" stroke-width="0.5" stroke-linecap="round" stroke-linejoin="round"/>
  <polygon points="1530.35,1746.03 1516.36,1740.91 1500.00,1739.13 1483.64,1740.91 1469.65,1746.03 1460.23,1753.74 1456.84,1762.86 1459.96,1772.04 1469.26,1779.91 1483.37,1785.18 1500.00,1787.02 1516.63,1785.18 1530.74,1779.91 1540.04,1772.04 1543.16,1762.86 1539.77,1753.74" fill="#e2f999" stroke="#e2f999" stroke-width="0.5" stroke-linecap="round" stroke-linejoin="round"/>
  <polygon points="1718.28,1740.91 1701.79,1739.13 1685.57,1740.91 1671.97,1746.03 1663.14,1753.74 1660.44,1762.86 1664.26,1772.04 1674.17,1779.91 1688.68,1785.18 1705.45,1787.02 1721.94,1785.18 1735.64,1779.91 1744.35,1772.04 1746.77,1762.86 1742.68,1753.74 1732.67,1746.03" fill="#e2f999" stroke="#e2f999" stroke-width="0.5" stroke-linecap="round" stroke-linejoin="round"/>
  <polygon points="1735.64,1779.91 1734.82,1803.94 1743.50,1796.03 1744.35,1772.04" fill="#e2f999" stroke="#e2f999" stroke-width="0.5" stroke-linecap="round" stroke-linejoin="round"/>
  <polygon points="1459.96,1772.04 1460.09,1796.03 1469.37,1803.94 1469.26,1779.91" fill="#e2f999" stroke="#e2f999" stroke-width="0.5" stroke-linecap="round" stroke-linejoin="round"/>
  <polygon points="1530.74,1779.91 1530.63,1803.94 1539.91,1796.03 1540.04,1772.04" fill="#e2f999" stroke="#e2f999" stroke-width="0.5" stroke-linecap="round" stroke-linejoin="round"/>
  <polygon points="1664.26,1772.04 1663.69,1796.03 1673.57,1803.94 1674.17,1779.91" fill="#e2f999" stroke="#e2f999" stroke-width="0.5" stroke-linecap="round" stroke-linejoin="round"/>
  <polygon points="1674.17,1779.91 1673.57,1803.94 1688.02,1809.24 1688.68,1785.18" fill="#e2f999" stroke="#e2f999" stroke-width="0.5" stroke-linecap="round" stroke-linejoin="round"/>
  <polygon points="1516.63,1785.18 1516.57,1809.24 1530.63,1803.94 1530.74,1779.91" fill="#e2f999" stroke="#e2f999" stroke-width="0.5" stroke-linecap="round" stroke-linejoin="round"/>
  <polygon points="1721.94,1785.18 1721.17,1809.24 1734.82,1803.94 1735.64,1779.91" fill="#e2f999" stroke="#e2f999" stroke-width="0.5" stroke-linecap="round" stroke-linejoin="round"/>
  <polygon points="1469.26,1779.91 1469.37,1803.94 1483.43,1809.24 1483.37,1785.18" fill="#e2f999" stroke="#e2f999" stroke-width="0.5" stroke-linecap="round" stroke-linejoin="round"/>
  <polygon points="1705.45,1787.02 1704.73,1811.09 1721.17,1809.24 1721.94,1785.18" fill="#e2f999" stroke="#e2f999" stroke-width="0.5" stroke-linecap="round" stroke-linejoin="round"/>
  <polygon points="1500.00,1787.02 1500.00,1811.09 1516.57,1809.24 1516.63,1785.18" fill="#e2f999" stroke="#e2f999" stroke-width="0.5" stroke-linecap="round" stroke-linejoin="round"/>
  <polygon points="1483.37,1785.18 1483.43,1809.24 1500.00,1811.09 1500.00,1787.02" fill="#e2f999" stroke="#e2f999" stroke-width="0.5" stroke-linecap="round" stroke-linejoin="round"/>
  <polygon points="1688.68,1785.18 1688.02,1809.24 1704.73,1811.09 1705.45,1787.02" fill="#e2f999" stroke="#e2f999" stroke-width="0.5" stroke-linecap="round" stroke-linejoin="round"/>
  <polygon points="1804.35,1786.80 1605.92,1905.35 1603.68,2049.17 1798.19,1927.08" fill="#e2f999" stroke="#e2f999" stroke-width="0.5" stroke-linecap="round" stroke-linejoin="round"/>
  <polygon points="1352.16,1002.00 1352.68,1029.09 1355.49,1035.85 1354.97,1008.69" fill="#77c9d8" stroke="#77c9d8" stroke-width="0.5" stroke-linecap="round" stroke-linejoin="round"/>
  <polygon points="1436.66,1008.69 1436.88,1035.85 1440.41,1029.09 1440.20,1002.00" fill="#77c9d8" stroke="#77c9d8" stroke-width="0.5" stroke-linecap="round" stroke-linejoin="round"/>
  <polygon points="1378.33,1018.28 1395.22,1019.62 1412.26,1018.28 1426.85,1014.43 1436.66,1008.69 1440.20,1002.00 1437.10,995.36 1427.79,989.73 1413.73,986.00 1397.12,984.71 1380.37,986.00 1365.90,989.73 1355.98,995.36 1352.16,1002.00 1354.97,1008.69 1364.15,1014.43" fill="#77c9d8" stroke="#77c9d8" stroke-width="0.5" stroke-linecap="round" stroke-linejoin="round"/>
  <polygon points="1645.28,1830.12 1644.77,1854.43 1647.58,1844.80 1648.10,1820.54" fill="#e2f999" stroke="#e2f999" stroke-width="0.5" stroke-linecap="round" stroke-linejoin="round"/>
  <polygon points="1559.91,1820.54 1559.69,1844.80 1563.23,1854.43 1563.46,1830.12" fill="#e2f999" stroke="#e2f999" stroke-width="0.5" stroke-linecap="round" stroke-linejoin="round"/>
  <polygon points="1573.28,1838.34 1587.90,1843.84 1604.96,1845.76 1621.88,1843.84 1636.09,1838.34 1645.28,1830.12 1648.10,1820.54 1644.27,1811.03 1634.33,1802.98 1619.84,1797.64 1603.06,1795.78 1586.42,1797.64 1572.33,1802.98 1563.01,1811.03 1559.91,1820.54 1563.46,1830.12" fill="#e2f999" stroke="#e2f999" stroke-width="0.5" stroke-linecap="round" stroke-linejoin="round"/>
  <polygon points="1426.85,1014.43 1427.11,1041.65 1436.88,1035.85 1436.66,1008.69" fill="#77c9d8" stroke="#77c9d8" stroke-width="0.5" stroke-linecap="round" stroke-linejoin="round"/>
  <polygon points="1354.97,1008.69 1355.49,1035.85 1364.63,1041.65 1364.15,1014.43" fill="#77c9d8" stroke="#77c9d8" stroke-width="0.5" stroke-linecap="round" stroke-linejoin="round"/>
  <polygon points="1636.09,1838.34 1635.60,1862.69 1644.77,1854.43 1645.28,1830.12" fill="#e2f999" stroke="#e2f999" stroke-width="0.5" stroke-linecap="round" stroke-linejoin="round"/>
  <polygon points="1563.46,1830.12 1563.23,1854.43 1573.02,1862.69 1573.28,1838.34" fill="#e2f999" stroke="#e2f999" stroke-width="0.5" stroke-linecap="round" stroke-linejoin="round"/>
  <polygon points="1412.26,1018.28 1412.57,1045.54 1427.11,1041.65 1426.85,1014.43" fill="#77c9d8" stroke="#77c9d8" stroke-width="0.5" stroke-linecap="round" stroke-linejoin="round"/>
  <polygon points="1364.15,1014.43 1364.63,1041.65 1378.76,1045.54 1378.33,1018.28" fill="#77c9d8" stroke="#77c9d8" stroke-width="0.5" stroke-linecap="round" stroke-linejoin="round"/>
  <polygon points="1395.22,1019.62 1395.59,1046.89 1412.57,1045.54 1412.26,1018.28" fill="#77c9d8" stroke="#77c9d8" stroke-width="0.5" stroke-linecap="round" stroke-linejoin="round"/>
  <polygon points="1378.33,1018.28 1378.76,1045.54 1395.59,1046.89 1395.22,1019.62" fill="#77c9d8" stroke="#77c9d8" stroke-width="0.5" stroke-linecap="round" stroke-linejoin="round"/>
  <polygon points="1621.88,1843.84 1621.45,1868.22 1635.60,1862.69 1636.09,1838.34" fill="#e2f999" stroke="#e2f999" stroke-width="0.5" stroke-linecap="round" stroke-linejoin="round"/>
  <polygon points="1573.28,1838.34 1573.02,1862.69 1587.59,1868.22 1587.90,1843.84" fill="#e2f999" stroke="#e2f999" stroke-width="0.5" stroke-linecap="round" stroke-linejoin="round"/>
  <polygon points="1587.90,1843.84 1587.59,1868.22 1604.59,1870.15 1604.96,1845.76" fill="#e2f999" stroke="#e2f999" stroke-width="0.5" stroke-linecap="round" stroke-linejoin="round"/>
  <polygon points="1604.96,1845.76 1604.59,1870.15 1621.45,1868.22 1621.88,1843.84" fill="#e2f999" stroke="#e2f999" stroke-width="0.5" stroke-linecap="round" stroke-linejoin="round"/>
  <polygon points="1328.76,1051.06 1329.38,1078.67 1333.37,1071.61 1332.77,1044.07" fill="#77c9d8" stroke="#77c9d8" stroke-width="0.5" stroke-linecap="round" stroke-linejoin="round"/>
  <polygon points="1242.79,1044.07 1243.71,1071.61 1246.19,1078.67 1245.27,1051.06" fill="#77c9d8" stroke="#77c9d8" stroke-width="0.5" stroke-linecap="round" stroke-linejoin="round"/>
  <polygon points="1541.74,1051.06 1541.59,1078.67 1544.83,1071.61 1544.99,1044.07" fill="#77c9d8" stroke="#77c9d8" stroke-width="0.5" stroke-linecap="round" stroke-linejoin="round"/>
  <polygon points="1455.01,1044.07 1455.17,1071.61 1458.41,1078.67 1458.26,1051.06" fill="#77c9d8" stroke="#77c9d8" stroke-width="0.5" stroke-linecap="round" stroke-linejoin="round"/>
  <polygon points="1303.27,1061.08 1318.41,1057.06 1328.76,1051.06 1332.77,1044.07 1329.98,1037.13 1320.80,1031.26 1306.64,1027.36 1289.74,1026.01 1272.56,1027.36 1257.55,1031.26 1247.09,1037.13 1242.79,1044.07 1245.27,1051.06 1254.32,1057.06 1268.59,1061.08 1285.78,1062.48" fill="#77c9d8" stroke="#77c9d8" stroke-width="0.5" stroke-linecap="round" stroke-linejoin="round"/>
  <polygon points="1531.62,1031.26 1517.04,1027.36 1500.00,1026.01 1482.96,1027.36 1468.38,1031.26 1458.55,1037.13 1455.01,1044.07 1458.26,1051.06 1467.95,1057.06 1482.66,1061.08 1500.00,1062.48 1517.34,1061.08 1532.05,1057.06 1541.74,1051.06 1544.99,1044.07 1541.45,1037.13" fill="#77c9d8" stroke="#77c9d8" stroke-width="0.5" stroke-linecap="round" stroke-linejoin="round"/>
  <polygon points="1245.27,1051.06 1246.19,1078.67 1255.21,1084.73 1254.32,1057.06" fill="#77c9d8" stroke="#77c9d8" stroke-width="0.5" stroke-linecap="round" stroke-linejoin="round"/>
  <polygon points="1318.41,1057.06 1319.07,1084.73 1329.38,1078.67 1328.76,1051.06" fill="#77c9d8" stroke="#77c9d8" stroke-width="0.5" stroke-linecap="round" stroke-linejoin="round"/>
  <polygon points="1532.05,1057.06 1531.93,1084.73 1541.59,1078.67 1541.74,1051.06" fill="#77c9d8" stroke="#77c9d8" stroke-width="0.5" stroke-linecap="round" stroke-linejoin="round"/>
  <polygon points="1458.26,1051.06 1458.41,1078.67 1468.07,1084.73 1467.95,1057.06" fill="#77c9d8" stroke="#77c9d8" stroke-width="0.5" stroke-linecap="round" stroke-linejoin="round"/>
  <polygon points="1254.32,1057.06 1255.21,1084.73 1269.43,1088.79 1268.59,1061.08" fill="#77c9d8" stroke="#77c9d8" stroke-width="0.5" stroke-linecap="round" stroke-linejoin="round"/>
  <polygon points="1517.34,1061.08 1517.28,1088.79 1531.93,1084.73 1532.05,1057.06" fill="#77c9d8" stroke="#77c9d8" stroke-width="0.5" stroke-linecap="round" stroke-linejoin="round"/>
  <polygon points="1303.27,1061.08 1303.98,1088.79 1319.07,1084.73 1318.41,1057.06" fill="#77c9d8" stroke="#77c9d8" stroke-width="0.5" stroke-linecap="round" stroke-linejoin="round"/>
  <polygon points="1467.95,1057.06 1468.07,1084.73 1482.72,1088.79 1482.66,1061.08" fill="#77c9d8" stroke="#77c9d8" stroke-width="0.5" stroke-linecap="round" stroke-linejoin="round"/>
  <polygon points="1268.59,1061.08 1269.43,1088.79 1286.55,1090.20 1285.78,1062.48" fill="#77c9d8" stroke="#77c9d8" stroke-width="0.5" stroke-linecap="round" stroke-linejoin="round"/>
  <polygon points="1285.78,1062.48 1286.55,1090.20 1303.98,1088.79 1303.27,1061.08" fill="#77c9d8" stroke="#77c9d8" stroke-width="0.5" stroke-linecap="round" stroke-linejoin="round"/>
  <polygon points="1482.66,1061.08 1482.72,1088.79 1500.00,1090.20 1500.00,1062.48" fill="#77c9d8" stroke="#77c9d8" stroke-width="0.5" stroke-linecap="round" stroke-linejoin="round"/>
  <polygon points="1500.00,1062.48 1500.00,1090.20 1517.28,1088.79 1517.34,1061.08" fill="#77c9d8" stroke="#77c9d8" stroke-width="0.5" stroke-linecap="round" stroke-linejoin="round"/>
  <polygon points="1398.72,988.36 1182.81,1071.61 1615.92,1262.16 1831.77,1162.50" fill="#77c9d8" stroke="#77c9d8" stroke-width="0.5" stroke-linecap="round" stroke-linejoin="round"/>
  <polygon points="1651.59,1095.35 1651.03,1123.42 1653.94,1116.03 1654.51,1088.04" fill="#77c9d8" stroke="#77c9d8" stroke-width="0.5" stroke-linecap="round" stroke-linejoin="round"/>
  <polygon points="1433.79,1095.35 1434.03,1123.42 1437.73,1116.03 1437.50,1088.04" fill="#77c9d8" stroke="#77c9d8" stroke-width="0.5" stroke-linecap="round" stroke-linejoin="round"/>
  <polygon points="1345.49,1088.04 1346.06,1116.03 1348.97,1123.42 1348.41,1095.35" fill="#77c9d8" stroke="#77c9d8" stroke-width="0.5" stroke-linecap="round" stroke-linejoin="round"/>
  <polygon points="1562.50,1088.04 1562.27,1116.03 1565.97,1123.42 1566.21,1095.35" fill="#77c9d8" stroke="#77c9d8" stroke-width="0.5" stroke-linecap="round" stroke-linejoin="round"/>
  <polygon points="1424.56,1074.65 1409.87,1070.57 1392.52,1069.16 1375.02,1070.57 1359.89,1074.65 1349.51,1080.79 1345.49,1088.04 1348.41,1095.35 1357.98,1101.62 1372.79,1105.83 1390.45,1107.29 1408.26,1105.83 1423.53,1101.62 1433.79,1095.35 1437.50,1088.04 1434.27,1080.79" fill="#77c9d8" stroke="#77c9d8" stroke-width="0.5" stroke-linecap="round" stroke-linejoin="round"/>
  <polygon points="1609.55,1107.29 1627.21,1105.83 1642.02,1101.62 1651.59,1095.35 1654.51,1088.04 1650.49,1080.79 1640.11,1074.65 1624.98,1070.57 1607.48,1069.16 1590.13,1070.57 1575.44,1074.65 1565.73,1080.79 1562.50,1088.04 1566.21,1095.35 1576.47,1101.62 1591.74,1105.83" fill="#77c9d8" stroke="#77c9d8" stroke-width="0.5" stroke-linecap="round" stroke-linejoin="round"/>
  <polygon points="1348.41,1095.35 1348.97,1123.42 1358.51,1129.76 1357.98,1101.62" fill="#77c9d8" stroke="#77c9d8" stroke-width="0.5" stroke-linecap="round" stroke-linejoin="round"/>
  <polygon points="1642.02,1101.62 1641.49,1129.76 1651.03,1123.42 1651.59,1095.35" fill="#77c9d8" stroke="#77c9d8" stroke-width="0.5" stroke-linecap="round" stroke-linejoin="round"/>
  <polygon points="1423.53,1101.62 1423.81,1129.76 1434.03,1123.42 1433.79,1095.35" fill="#77c9d8" stroke="#77c9d8" stroke-width="0.5" stroke-linecap="round" stroke-linejoin="round"/>
  <polygon points="1566.21,1095.35 1565.97,1123.42 1576.19,1129.76 1576.47,1101.62" fill="#77c9d8" stroke="#77c9d8" stroke-width="0.5" stroke-linecap="round" stroke-linejoin="round"/>
  <polygon points="1576.47,1101.62 1576.19,1129.76 1591.40,1134.00 1591.74,1105.83" fill="#77c9d8" stroke="#77c9d8" stroke-width="0.5" stroke-linecap="round" stroke-linejoin="round"/>
  <polygon points="1357.98,1101.62 1358.51,1129.76 1373.27,1134.00 1372.79,1105.83" fill="#77c9d8" stroke="#77c9d8" stroke-width="0.5" stroke-linecap="round" stroke-linejoin="round"/>
  <polygon points="1408.26,1105.83 1408.60,1134.00 1423.81,1129.76 1423.53,1101.62" fill="#77c9d8" stroke="#77c9d8" stroke-width="0.5" stroke-linecap="round" stroke-linejoin="round"/>
  <polygon points="1627.21,1105.83 1626.74,1134.00 1641.49,1129.76 1642.02,1101.62" fill="#77c9d8" stroke="#77c9d8" stroke-width="0.5" stroke-linecap="round" stroke-linejoin="round"/>
  <polygon points="1390.45,1107.29 1390.85,1135.48 1408.60,1134.00 1408.26,1105.83" fill="#77c9d8" stroke="#77c9d8" stroke-width="0.5" stroke-linecap="round" stroke-linejoin="round"/>
  <polygon points="1372.79,1105.83 1373.27,1134.00 1390.85,1135.48 1390.45,1107.29" fill="#77c9d8" stroke="#77c9d8" stroke-width="0.5" stroke-linecap="round" stroke-linejoin="round"/>
  <polygon points="1591.74,1105.83 1591.40,1134.00 1609.15,1135.48 1609.55,1107.29" fill="#77c9d8" stroke="#77c9d8" stroke-width="0.5" stroke-linecap="round" stroke-linejoin="round"/>
  <polygon points="1609.55,1107.29 1609.15,1135.48 1626.74,1134.00 1627.21,1105.83" fill="#77c9d8" stroke="#77c9d8" stroke-width="0.5" stroke-linecap="round" stroke-linejoin="round"/>
  <polygon points="1613.25,1434.08 1615.92,1262.16 1182.81,1071.61 1189.50,1232.75" fill="#77c9d8" stroke="#77c9d8" stroke-width="0.5" stroke-linecap="round" stroke-linejoin="round"/>
  <polygon points="1543.68,1141.69 1543.51,1170.23 1546.89,1162.50 1547.07,1134.04" fill="#77c9d8" stroke="#77c9d8" stroke-width="0.5" stroke-linecap="round" stroke-linejoin="round"/>
  <polygon points="1766.53,1141.69 1765.52,1170.23 1768.07,1162.50 1769.08,1134.04" fill="#77c9d8" stroke="#77c9d8" stroke-width="0.5" stroke-linecap="round" stroke-linejoin="round"/>
  <polygon points="1452.93,1134.04 1453.11,1162.50 1456.49,1170.23 1456.32,1141.69" fill="#77c9d8" stroke="#77c9d8" stroke-width="0.5" stroke-linecap="round" stroke-linejoin="round"/>
  <polygon points="1674.95,1134.04 1674.29,1162.50 1678.49,1170.23 1679.17,1141.69" fill="#77c9d8" stroke="#77c9d8" stroke-width="0.5" stroke-linecap="round" stroke-linejoin="round"/>
  <polygon points="1500.00,1114.28 1482.18,1115.76 1466.93,1120.02 1456.65,1126.45 1452.93,1134.04 1456.32,1141.69 1466.47,1148.26 1481.85,1152.66 1500.00,1154.19 1518.15,1152.66 1533.53,1148.26 1543.68,1141.69 1547.07,1134.04 1543.35,1126.45 1533.07,1120.02 1517.82,1115.76" fill="#77c9d8" stroke="#77c9d8" stroke-width="0.5" stroke-linecap="round" stroke-linejoin="round"/>
  <polygon points="1679.17,1141.69 1690.03,1148.26 1705.89,1152.66 1724.21,1154.19 1742.19,1152.66 1757.10,1148.26 1766.53,1141.69 1769.08,1134.04 1764.54,1126.45 1753.56,1120.02 1737.85,1115.76 1719.86,1114.28 1702.20,1115.76 1687.42,1120.02 1677.83,1126.45 1674.95,1134.04" fill="#77c9d8" stroke="#77c9d8" stroke-width="0.5" stroke-linecap="round" stroke-linejoin="round"/>
  <polygon points="1456.32,1141.69 1456.49,1170.23 1466.59,1176.86 1466.47,1148.26" fill="#77c9d8" stroke="#77c9d8" stroke-width="0.5" stroke-linecap="round" stroke-linejoin="round"/>
  <polygon points="1533.53,1148.26 1533.41,1176.86 1543.51,1170.23 1543.68,1141.69" fill="#77c9d8" stroke="#77c9d8" stroke-width="0.5" stroke-linecap="round" stroke-linejoin="round"/>
  <polygon points="1679.17,1141.69 1678.49,1170.23 1689.31,1176.86 1690.03,1148.26" fill="#77c9d8" stroke="#77c9d8" stroke-width="0.5" stroke-linecap="round" stroke-linejoin="round"/>
  <polygon points="1757.10,1148.26 1756.12,1176.86 1765.52,1170.23 1766.53,1141.69" fill="#77c9d8" stroke="#77c9d8" stroke-width="0.5" stroke-linecap="round" stroke-linejoin="round"/>
  <polygon points="1518.15,1152.66 1518.08,1181.31 1533.41,1176.86 1533.53,1148.26" fill="#77c9d8" stroke="#77c9d8" stroke-width="0.5" stroke-linecap="round" stroke-linejoin="round"/>
  <polygon points="1690.03,1148.26 1689.31,1176.86 1705.11,1181.31 1705.89,1152.66" fill="#77c9d8" stroke="#77c9d8" stroke-width="0.5" stroke-linecap="round" stroke-linejoin="round"/>
  <polygon points="1466.47,1148.26 1466.59,1176.86 1481.92,1181.31 1481.85,1152.66" fill="#77c9d8" stroke="#77c9d8" stroke-width="0.5" stroke-linecap="round" stroke-linejoin="round"/>
  <polygon points="1742.19,1152.66 1741.27,1181.31 1756.12,1176.86 1757.10,1148.26" fill="#77c9d8" stroke="#77c9d8" stroke-width="0.5" stroke-linecap="round" stroke-linejoin="round"/>
  <polygon points="1481.85,1152.66 1481.92,1181.31 1500.00,1182.86 1500.00,1154.19" fill="#77c9d8" stroke="#77c9d8" stroke-width="0.5" stroke-linecap="round" stroke-linejoin="round"/>
  <polygon points="1500.00,1154.19 1500.00,1182.86 1518.08,1181.31 1518.15,1152.66" fill="#77c9d8" stroke="#77c9d8" stroke-width="0.5" stroke-linecap="round" stroke-linejoin="round"/>
  <polygon points="1705.89,1152.66 1705.11,1181.31 1723.36,1182.86 1724.21,1154.19" fill="#77c9d8" stroke="#77c9d8" stroke-width="0.5" stroke-linecap="round" stroke-linejoin="round"/>
  <polygon points="1724.21,1154.19 1723.36,1182.86 1741.27,1181.31 1742.19,1152.66" fill="#77c9d8" stroke="#77c9d8" stroke-width="0.5" stroke-linecap="round" stroke-linejoin="round"/>
  <polygon points="1831.77,1162.50 1615.92,1262.16 1613.25,1434.08 1824.46,1328.89" fill="#77c9d8" stroke="#77c9d8" stroke-width="0.5" stroke-linecap="round" stroke-linejoin="round"/>
  <polygon points="1658.78,1190.23 1658.17,1219.26 1661.19,1211.16 1661.81,1182.21" fill="#77c9d8" stroke="#77c9d8" stroke-width="0.5" stroke-linecap="round" stroke-linejoin="round"/>
  <polygon points="1565.45,1182.21 1565.20,1211.16 1569.08,1219.26 1569.35,1190.23" fill="#77c9d8" stroke="#77c9d8" stroke-width="0.5" stroke-linecap="round" stroke-linejoin="round"/>
  <polygon points="1614.78,1203.33 1633.27,1201.72 1648.77,1197.11 1658.78,1190.23 1661.81,1182.21 1657.57,1174.26 1646.68,1167.52 1630.83,1163.06 1612.50,1161.51 1594.35,1163.06 1578.98,1167.52 1568.82,1174.26 1565.45,1182.21 1569.35,1190.23 1580.11,1197.11 1596.11,1201.72" fill="#77c9d8" stroke="#77c9d8" stroke-width="0.5" stroke-linecap="round" stroke-linejoin="round"/>
  <polygon points="1569.35,1190.23 1569.08,1219.26 1579.80,1226.21 1580.11,1197.11" fill="#77c9d8" stroke="#77c9d8" stroke-width="0.5" stroke-linecap="round" stroke-linejoin="round"/>
  <polygon points="1648.77,1197.11 1648.20,1226.21 1658.17,1219.26 1658.78,1190.23" fill="#77c9d8" stroke="#77c9d8" stroke-width="0.5" stroke-linecap="round" stroke-linejoin="round"/>
  <polygon points="1633.27,1201.72 1632.75,1230.86 1648.20,1226.21 1648.77,1197.11" fill="#77c9d8" stroke="#77c9d8" stroke-width="0.5" stroke-linecap="round" stroke-linejoin="round"/>
  <polygon points="1580.11,1197.11 1579.80,1226.21 1595.74,1230.86 1596.11,1201.72" fill="#77c9d8" stroke="#77c9d8" stroke-width="0.5" stroke-linecap="round" stroke-linejoin="round"/>
  <polygon points="1614.78,1203.33 1614.33,1232.49 1632.75,1230.86 1633.27,1201.72" fill="#77c9d8" stroke="#77c9d8" stroke-width="0.5" stroke-linecap="round" stroke-linejoin="round"/>
  <polygon points="1596.11,1201.72 1595.74,1230.86 1614.33,1232.49 1614.78,1203.33" fill="#77c9d8" stroke="#77c9d8" stroke-width="0.5" stroke-linecap="round" stroke-linejoin="round"/>
  <path d="M 1213.64 1814.68 L 1603.68 2049.17 L 1798.19 1927.08 L 1804.35 1786.80 L 1605.92 1905.35 L 1603.68 2049.17 L 1798.19 1927.08 L 1804.35 1786.80 L 1743.03 1754.53 L 1804.35 1786.80 L 1605.92 1905.35 L 1207.96 1677.85 L 1266.07 1648.44 L 1207.96 1677.85 L 1213.64 1814.68 L 1603.68 2049.17 L 1605.92 1905.35 L 1207.96 1677.85 L 1213.64 1814.68" stroke="black" stroke-width="4" fill="none" stroke-linecap="round" stroke-linejoin="round"/>
  <path d="M 1716.86 1740.75 L 1638.62 1699.58 L 1716.86 1740.75" stroke="black" stroke-width="4" fill="none" stroke-linecap="round" stroke-linejoin="round"/>
  <path d="M 1613.52 1686.36 L 1538.44 1646.85 L 1613.52 1686.36" stroke="black" stroke-width="4" fill="none" stroke-linecap="round" stroke-linejoin="round"/>
  <path d="M 1514.34 1634.17 L 1442.23 1596.21 L 1514.34 1634.17" stroke="black" stroke-width="4" fill="none" stroke-linecap="round" stroke-linejoin="round"/>
  <path d="M 1419.08 1584.03 L 1406.44 1577.38 L 1393.89 1583.73 L 1406.44 1577.38 L 1419.08 1584.03" stroke="black" stroke-width="4" fill="none" stroke-linecap="round" stroke-linejoin="round"/>
  <path d="M 1366.22 1597.74 L 1294.87 1633.86 L 1366.22 1597.74" stroke="black" stroke-width="4" fill="none" stroke-linecap="round" stroke-linejoin="round"/>
  <path d="M 1744.35 1772.04 L 1746.77 1762.86 L 1742.68 1753.74 L 1732.67 1746.03 L 1718.28 1740.91 L 1701.79 1739.13 L 1685.57 1740.91 L 1671.97 1746.03 L 1663.14 1753.74 L 1660.44 1762.86 L 1664.26 1772.04 L 1674.17 1779.91 L 1688.68 1785.18 L 1705.45 1787.02 L 1721.94 1785.18 L 1735.64 1779.91 L 1744.35 1772.04" stroke="black" stroke-width="4" fill="none" stroke-linecap="round" stroke-linejoin="round"/>
  <path d="M 1660.44 1762.86 L 1659.89 1786.80 L 1663.69 1796.03 L 1673.56 1803.94 L 1688.02 1809.24 L 1704.73 1811.09 L 1721.17 1809.24 L 1734.82 1803.94 L 1743.50 1796.03 L 1745.92 1786.80 L 1746.77 1762.86" stroke="black" stroke-width="4" fill="none" stroke-linecap="round" stroke-linejoin="round"/>
  <path d="M 1705.45 1787.02 L 1721.94 1785.18 L 1735.64 1779.91" stroke="black" stroke-width="4" fill="none" stroke-linecap="round" stroke-linejoin="round"/>
  <path d="M 1732.67 1746.03 L 1718.28 1740.91 L 1701.79 1739.13" stroke="black" stroke-width="4" fill="none" stroke-linecap="round" stroke-linejoin="round"/>
  <path d="M 1671.97 1746.03 L 1663.14 1753.74 L 1660.44 1762.86 L 1664.26 1772.04 L 1674.17 1779.91" stroke="black" stroke-width="4" fill="none" stroke-linecap="round" stroke-linejoin="round"/>
  <path d="M 1639.24 1716.37 L 1641.96 1707.57 L 1638.31 1698.82 L 1628.80 1691.42 L 1614.91 1686.51 L 1598.82 1684.81 L 1582.87 1686.51 L 1569.35 1691.42 L 1560.41 1698.82 L 1557.42 1707.57 L 1560.82 1716.37 L 1570.22 1723.91 L 1584.23 1728.97 L 1600.58 1730.73 L 1616.79 1728.97 L 1630.41 1723.91 L 1639.24 1716.37 L 1630.41 1723.91" stroke="black" stroke-width="4" fill="none" stroke-linecap="round" stroke-linejoin="round"/>
  <path d="M 1557.42 1707.57 L 1557.23 1731.20 L 1560.61 1740.05 L 1569.98 1747.64 L 1583.94 1752.72 L 1600.23 1754.50 L 1616.39 1752.72 L 1629.97 1747.64 L 1638.77 1740.05 L 1641.48 1731.20 L 1641.96 1707.57" stroke="black" stroke-width="4" fill="none" stroke-linecap="round" stroke-linejoin="round"/>
  <path d="M 1638.31 1698.82 L 1628.80 1691.42" stroke="black" stroke-width="4" fill="none" stroke-linecap="round" stroke-linejoin="round"/>
  <path d="M 1614.91 1686.51 L 1598.82 1684.81" stroke="black" stroke-width="4" fill="none" stroke-linecap="round" stroke-linejoin="round"/>
  <path d="M 1582.87 1686.51 L 1569.35 1691.42" stroke="black" stroke-width="4" fill="none" stroke-linecap="round" stroke-linejoin="round"/>
  <path d="M 1560.41 1698.82 L 1557.42 1707.57 L 1560.82 1716.37" stroke="black" stroke-width="4" fill="none" stroke-linecap="round" stroke-linejoin="round"/>
  <path d="M 1570.22 1723.91 L 1584.23 1728.97" stroke="black" stroke-width="4" fill="none" stroke-linecap="round" stroke-linejoin="round"/>
  <path d="M 1600.58 1730.73 L 1616.79 1728.97" stroke="black" stroke-width="4" fill="none" stroke-linecap="round" stroke-linejoin="round"/>
  <path d="M 1538.41 1662.97 L 1541.41 1654.52 L 1538.16 1646.13 L 1529.12 1639.02 L 1515.70 1634.31 L 1500.00 1632.67 L 1484.30 1634.31 L 1470.88 1639.02 L 1461.84 1646.13 L 1458.59 1654.52 L 1461.59 1662.97 L 1470.52 1670.21 L 1484.05 1675.05 L 1500.00 1676.75 L 1515.95 1675.05 L 1529.48 1670.21 L 1538.41 1662.97 L 1529.48 1670.21" stroke="black" stroke-width="4" fill="none" stroke-linecap="round" stroke-linejoin="round"/>
  <path d="M 1458.59 1654.52 L 1458.73 1677.85 L 1461.71 1686.35 L 1470.62 1693.63 L 1484.10 1698.51 L 1500.00 1700.21 L 1515.90 1698.51 L 1529.38 1693.63 L 1538.29 1686.35 L 1541.27 1677.85 L 1541.41 1654.52" stroke="black" stroke-width="4" fill="none" stroke-linecap="round" stroke-linejoin="round"/>
  <path d="M 1538.16 1646.13 L 1529.12 1639.02" stroke="black" stroke-width="4" fill="none" stroke-linecap="round" stroke-linejoin="round"/>
  <path d="M 1515.70 1634.31 L 1500.00 1632.67" stroke="black" stroke-width="4" fill="none" stroke-linecap="round" stroke-linejoin="round"/>
  <path d="M 1484.30 1634.31 L 1470.88 1639.02" stroke="black" stroke-width="4" fill="none" stroke-linecap="round" stroke-linejoin="round"/>
  <path d="M 1461.84 1646.13 L 1458.59 1654.52 L 1461.59 1662.97" stroke="black" stroke-width="4" fill="none" stroke-linecap="round" stroke-linejoin="round"/>
  <path d="M 1470.52 1670.21 L 1484.05 1675.05" stroke="black" stroke-width="4" fill="none" stroke-linecap="round" stroke-linejoin="round"/>
  <path d="M 1500.00 1676.75 L 1515.95 1675.05" stroke="black" stroke-width="4" fill="none" stroke-linecap="round" stroke-linejoin="round"/>
  <path d="M 1441.61 1611.70 L 1444.86 1603.58 L 1441.99 1595.52 L 1433.39 1588.69 L 1420.40 1584.16 L 1405.08 1582.59 L 1389.63 1584.16 L 1376.30 1588.69 L 1367.18 1595.52 L 1363.69 1603.58 L 1366.32 1611.70 L 1374.81 1618.65 L 1387.89 1623.31 L 1403.46 1624.93 L 1419.15 1623.31 L 1432.59 1618.65 L 1441.61 1611.70" stroke="black" stroke-width="4" fill="none" stroke-linecap="round" stroke-linejoin="round"/>
  <path d="M 1363.69 1603.58 L 1364.13 1626.62 L 1366.75 1634.78 L 1375.22 1641.77 L 1388.26 1646.46 L 1403.78 1648.09 L 1419.42 1646.46 L 1432.81 1641.77 L 1441.80 1634.78 L 1445.04 1626.62 L 1444.86 1603.58" stroke="black" stroke-width="4" fill="none" stroke-linecap="round" stroke-linejoin="round"/>
  <path d="M 1403.46 1624.93 L 1419.15 1623.31 L 1432.59 1618.65" stroke="black" stroke-width="4" fill="none" stroke-linecap="round" stroke-linejoin="round"/>
  <path d="M 1433.39 1588.69 L 1420.40 1584.16 L 1405.08 1582.59" stroke="black" stroke-width="4" fill="none" stroke-linecap="round" stroke-linejoin="round"/>
  <path d="M 1376.30 1588.69 L 1367.18 1595.52 L 1363.69 1603.58 L 1366.32 1611.70 L 1374.81 1618.65" stroke="black" stroke-width="4" fill="none" stroke-linecap="round" stroke-linejoin="round"/>
  <path d="M 1645.28 1830.12 L 1648.10 1820.54 L 1644.27 1811.03 L 1634.33 1802.98 L 1619.84 1797.64 L 1603.06 1795.78 L 1586.42 1797.64 L 1572.33 1802.98 L 1563.01 1811.03 L 1559.91 1820.54 L 1563.46 1830.12 L 1573.28 1838.34 L 1587.90 1843.84 L 1604.96 1845.76 L 1621.88 1843.84 L 1636.09 1838.34 L 1645.28 1830.12" stroke="black" stroke-width="4" fill="none" stroke-linecap="round" stroke-linejoin="round"/>
  <path d="M 1559.91 1820.54 L 1559.69 1844.80 L 1563.23 1854.43 L 1573.02 1862.69 L 1587.59 1868.22 L 1604.59 1870.15 L 1621.45 1868.22 L 1635.60 1862.69 L 1644.77 1854.43 L 1647.58 1844.80 L 1648.10 1820.54" stroke="black" stroke-width="4" fill="none" stroke-linecap="round" stroke-linejoin="round"/>
  <path d="M 1604.96 1845.76 L 1621.88 1843.84 L 1636.09 1838.34" stroke="black" stroke-width="4" fill="none" stroke-linecap="round" stroke-linejoin="round"/>
  <path d="M 1634.33 1802.98 L 1619.84 1797.64 L 1603.06 1795.78" stroke="black" stroke-width="4" fill="none" stroke-linecap="round" stroke-linejoin="round"/>
  <path d="M 1572.33 1802.98 L 1563.01 1811.03 L 1559.91 1820.54 L 1563.46 1830.12 L 1573.28 1838.34" stroke="black" stroke-width="4" fill="none" stroke-linecap="round" stroke-linejoin="round"/>
  <path d="M 1540.04 1772.04 L 1543.16 1762.86 L 1539.77 1753.74 L 1530.35 1746.03 L 1516.36 1740.91 L 1500.00 1739.13 L 1483.64 1740.91 L 1469.65 1746.03 L 1460.23 1753.74 L 1456.84 1762.86 L 1459.96 1772.04 L 1469.26 1779.91 L 1483.37 1785.18 L 1500.00 1787.02 L 1516.63 1785.18 L 1530.74 1779.91 L 1540.04 1772.04 L 1530.74 1779.91" stroke="black" stroke-width="4" fill="none" stroke-linecap="round" stroke-linejoin="round"/>
  <path d="M 1456.84 1762.86 L 1456.98 1786.80 L 1460.09 1796.03 L 1469.37 1803.94 L 1483.43 1809.24 L 1500.00 1811.09 L 1516.57 1809.24 L 1530.63 1803.94 L 1539.91 1796.03 L 1543.02 1786.80 L 1543.16 1762.86" stroke="black" stroke-width="4" fill="none" stroke-linecap="round" stroke-linejoin="round"/>
  <path d="M 1539.77 1753.74 L 1530.35 1746.03" stroke="black" stroke-width="4" fill="none" stroke-linecap="round" stroke-linejoin="round"/>
  <path d="M 1516.36 1740.91 L 1500.00 1739.13" stroke="black" stroke-width="4" fill="none" stroke-linecap="round" stroke-linejoin="round"/>
  <path d="M 1483.64 1740.91 L 1469.65 1746.03" stroke="black" stroke-width="4" fill="none" stroke-linecap="round" stroke-linejoin="round"/>
  <path d="M 1460.23 1753.74 L 1456.84 1762.86 L 1459.96 1772.04" stroke="black" stroke-width="4" fill="none" stroke-linecap="round" stroke-linejoin="round"/>
  <path d="M 1469.26 1779.91 L 1483.37 1785.18" stroke="black" stroke-width="4" fill="none" stroke-linecap="round" stroke-linejoin="round"/>
  <path d="M 1500.00 1787.02 L 1516.63 1785.18" stroke="black" stroke-width="4" fill="none" stroke-linecap="round" stroke-linejoin="round"/>
  <path d="M 1439.18 1716.37 L 1442.58 1707.57 L 1439.59 1698.82 L 1430.65 1691.42 L 1417.13 1686.51 L 1401.18 1684.81 L 1385.09 1686.51 L 1371.20 1691.42 L 1361.69 1698.82 L 1358.04 1707.57 L 1360.76 1716.37 L 1369.59 1723.91 L 1383.21 1728.97 L 1399.42 1730.73 L 1415.77 1728.97 L 1429.78 1723.91 L 1439.18 1716.37 L 1429.78 1723.91" stroke="black" stroke-width="4" fill="none" stroke-linecap="round" stroke-linejoin="round"/>
  <path d="M 1358.04 1707.57 L 1358.52 1731.20 L 1361.23 1740.05 L 1370.03 1747.64 L 1383.61 1752.72 L 1399.77 1754.50 L 1416.06 1752.72 L 1430.02 1747.64 L 1439.39 1740.05 L 1442.77 1731.20 L 1442.58 1707.57" stroke="black" stroke-width="4" fill="none" stroke-linecap="round" stroke-linejoin="round"/>
  <path d="M 1439.59 1698.82 L 1430.65 1691.42" stroke="black" stroke-width="4" fill="none" stroke-linecap="round" stroke-linejoin="round"/>
  <path d="M 1417.13 1686.51 L 1401.18 1684.81" stroke="black" stroke-width="4" fill="none" stroke-linecap="round" stroke-linejoin="round"/>
  <path d="M 1385.09 1686.51 L 1371.20 1691.42" stroke="black" stroke-width="4" fill="none" stroke-linecap="round" stroke-linejoin="round"/>
  <path d="M 1361.69 1698.82 L 1358.04 1707.57 L 1360.76 1716.37" stroke="black" stroke-width="4" fill="none" stroke-linecap="round" stroke-linejoin="round"/>
  <path d="M 1369.59 1723.91 L 1383.21 1728.97" stroke="black" stroke-width="4" fill="none" stroke-linecap="round" stroke-linejoin="round"/>
  <path d="M 1399.42 1730.73 L 1415.77 1728.97" stroke="black" stroke-width="4" fill="none" stroke-linecap="round" stroke-linejoin="round"/>
  <path d="M 1342.43 1662.97 L 1346.07 1654.52 L 1343.46 1646.13 L 1334.97 1639.02 L 1321.90 1634.31 L 1306.33 1632.67 L 1290.51 1634.31 L 1276.72 1639.02 L 1267.14 1646.13 L 1263.25 1654.52 L 1265.61 1662.97 L 1273.99 1670.21 L 1287.15 1675.05 L 1302.97 1676.75 L 1319.05 1675.05 L 1332.95 1670.21 L 1342.43 1662.97" stroke="black" stroke-width="4" fill="none" stroke-linecap="round" stroke-linejoin="round"/>
  <path d="M 1263.25 1654.52 L 1264.03 1677.85 L 1266.38 1686.35 L 1274.74 1693.63 L 1287.86 1698.51 L 1303.62 1700.21 L 1319.65 1698.51 L 1333.50 1693.63 L 1342.95 1686.35 L 1346.58 1677.85 L 1346.07 1654.52" stroke="black" stroke-width="4" fill="none" stroke-linecap="round" stroke-linejoin="round"/>
  <path d="M 1302.97 1676.75 L 1319.05 1675.05 L 1332.95 1670.21" stroke="black" stroke-width="4" fill="none" stroke-linecap="round" stroke-linejoin="round"/>
  <path d="M 1334.97 1639.02 L 1321.90 1634.31 L 1306.33 1632.67" stroke="black" stroke-width="4" fill="none" stroke-linecap="round" stroke-linejoin="round"/>
  <path d="M 1276.72 1639.02 L 1267.14 1646.13 L 1263.25 1654.52 L 1265.61 1662.97 L 1273.99 1670.21" stroke="black" stroke-width="4" fill="none" stroke-linecap="round" stroke-linejoin="round"/>
  <path d="M 1189.50 1232.75 L 1613.25 1434.08 L 1824.46 1328.89 L 1831.77 1162.50 L 1615.92 1262.16 L 1613.25 1434.08 L 1824.46 1328.89 L 1831.77 1162.50 L 1768.97 1137.25 L 1831.77 1162.50 L 1615.92 1262.16 L 1182.81 1071.61 L 1242.93 1048.43 L 1182.81 1071.61 L 1189.50 1232.75 L 1613.25 1434.08 L 1615.92 1262.16 L 1182.81 1071.61 L 1189.50 1232.75" stroke="black" stroke-width="4" fill="none" stroke-linecap="round" stroke-linejoin="round"/>
  <path d="M 1713.23 1114.84 L 1654.45 1091.20 L 1713.23 1114.84" stroke="black" stroke-width="4" fill="none" stroke-linecap="round" stroke-linejoin="round"/>
  <path d="M 1600.96 1069.69 L 1544.97 1047.18 L 1600.96 1069.69" stroke="black" stroke-width="4" fill="none" stroke-linecap="round" stroke-linejoin="round"/>
  <path d="M 1493.60 1026.52 L 1440.22 1005.05 L 1493.60 1026.52" stroke="black" stroke-width="4" fill="none" stroke-linecap="round" stroke-linejoin="round"/>
  <path d="M 1352.24 1006.29 L 1299.13 1026.76 L 1352.24 1006.29" stroke="black" stroke-width="4" fill="none" stroke-linecap="round" stroke-linejoin="round"/>
  <path d="M 1766.53 1141.69 L 1769.08 1134.04 L 1764.54 1126.45 L 1753.56 1120.02 L 1737.85 1115.76 L 1719.86 1114.28 L 1702.20 1115.76 L 1687.42 1120.02 L 1677.83 1126.45 L 1674.95 1134.04 L 1679.17 1141.69 L 1690.03 1148.26 L 1705.89 1152.66 L 1724.21 1154.19 L 1742.19 1152.66 L 1757.10 1148.26 L 1766.53 1141.69" stroke="black" stroke-width="4" fill="none" stroke-linecap="round" stroke-linejoin="round"/>
  <path d="M 1674.95 1134.04 L 1674.29 1162.50 L 1678.49 1170.23 L 1689.31 1176.86 L 1705.11 1181.31 L 1723.36 1182.86 L 1741.27 1181.31 L 1756.12 1176.86 L 1765.52 1170.23 L 1768.07 1162.50 L 1769.08 1134.04" stroke="black" stroke-width="4" fill="none" stroke-linecap="round" stroke-linejoin="round"/>
  <path d="M 1724.21 1154.19 L 1742.19 1152.66 L 1757.10 1148.26" stroke="black" stroke-width="4" fill="none" stroke-linecap="round" stroke-linejoin="round"/>
  <path d="M 1753.56 1120.02 L 1737.85 1115.76 L 1719.86 1114.28" stroke="black" stroke-width="4" fill="none" stroke-linecap="round" stroke-linejoin="round"/>
  <path d="M 1687.42 1120.02 L 1677.83 1126.45 L 1674.95 1134.04 L 1679.17 1141.69 L 1690.03 1148.26" stroke="black" stroke-width="4" fill="none" stroke-linecap="round" stroke-linejoin="round"/>
  <path d="M 1651.59 1095.35 L 1654.51 1088.04 L 1650.49 1080.79 L 1640.11 1074.65 L 1624.98 1070.57 L 1607.48 1069.16 L 1590.13 1070.57 L 1575.44 1074.65 L 1565.73 1080.79 L 1562.50 1088.04 L 1566.21 1095.35 L 1576.47 1101.62 L 1591.74 1105.83 L 1609.55 1107.29 L 1627.21 1105.83 L 1642.02 1101.62 L 1651.59 1095.35 L 1642.02 1101.62" stroke="black" stroke-width="4" fill="none" stroke-linecap="round" stroke-linejoin="round"/>
  <path d="M 1562.50 1088.04 L 1562.27 1116.03 L 1565.97 1123.42 L 1576.19 1129.76 L 1591.40 1134.00 L 1609.15 1135.48 L 1626.74 1134.00 L 1641.49 1129.76 L 1651.03 1123.42 L 1653.94 1116.04 L 1654.51 1088.04" stroke="black" stroke-width="4" fill="none" stroke-linecap="round" stroke-linejoin="round"/>
  <path d="M 1650.49 1080.79 L 1640.11 1074.65" stroke="black" stroke-width="4" fill="none" stroke-linecap="round" stroke-linejoin="round"/>
  <path d="M 1624.98 1070.57 L 1607.48 1069.16" stroke="black" stroke-width="4" fill="none" stroke-linecap="round" stroke-linejoin="round"/>
  <path d="M 1590.13 1070.57 L 1575.44 1074.65" stroke="black" stroke-width="4" fill="none" stroke-linecap="round" stroke-linejoin="round"/>
  <path d="M 1565.73 1080.79 L 1562.50 1088.04 L 1566.21 1095.35" stroke="black" stroke-width="4" fill="none" stroke-linecap="round" stroke-linejoin="round"/>
  <path d="M 1576.47 1101.62 L 1591.74 1105.83" stroke="black" stroke-width="4" fill="none" stroke-linecap="round" stroke-linejoin="round"/>
  <path d="M 1609.55 1107.29 L 1627.21 1105.83" stroke="black" stroke-width="4" fill="none" stroke-linecap="round" stroke-linejoin="round"/>
  <path d="M 1541.74 1051.06 L 1544.99 1044.07 L 1541.45 1037.13 L 1531.62 1031.26 L 1517.04 1027.36 L 1500.00 1026.01 L 1482.96 1027.36 L 1468.38 1031.26 L 1458.55 1037.13 L 1455.01 1044.07 L 1458.26 1051.06 L 1467.95 1057.06 L 1482.66 1061.08 L 1500.00 1062.48 L 1517.34 1061.08 L 1532.05 1057.06 L 1541.74 1051.06 L 1532.05 1057.06" stroke="black" stroke-width="4" fill="none" stroke-linecap="round" stroke-linejoin="round"/>
  <path d="M 1455.01 1044.07 L 1455.17 1071.61 L 1458.41 1078.67 L 1468.07 1084.73 L 1482.72 1088.79 L 1500.00 1090.20 L 1517.28 1088.79 L 1531.93 1084.73 L 1541.59 1078.67 L 1544.83 1071.61 L 1544.99 1044.07" stroke="black" stroke-width="4" fill="none" stroke-linecap="round" stroke-linejoin="round"/>
  <path d="M 1541.45 1037.13 L 1531.62 1031.26" stroke="black" stroke-width="4" fill="none" stroke-linecap="round" stroke-linejoin="round"/>
  <path d="M 1517.04 1027.36 L 1500.00 1026.01" stroke="black" stroke-width="4" fill="none" stroke-linecap="round" stroke-linejoin="round"/>
  <path d="M 1482.96 1027.36 L 1468.38 1031.26" stroke="black" stroke-width="4" fill="none" stroke-linecap="round" stroke-linejoin="round"/>
  <path d="M 1458.55 1037.13 L 1455.01 1044.07 L 1458.26 1051.06" stroke="black" stroke-width="4" fill="none" stroke-linecap="round" stroke-linejoin="round"/>
  <path d="M 1467.95 1057.06 L 1482.66 1061.08" stroke="black" stroke-width="4" fill="none" stroke-linecap="round" stroke-linejoin="round"/>
  <path d="M 1500.00 1062.48 L 1517.34 1061.08" stroke="black" stroke-width="4" fill="none" stroke-linecap="round" stroke-linejoin="round"/>
  <path d="M 1436.66 1008.69 L 1440.20 1002.00 L 1437.10 995.36 L 1427.79 989.73 L 1413.73 986.00 L 1397.12 984.71 L 1380.37 986.00 L 1365.90 989.73 L 1355.98 995.36 L 1352.16 1002.00 L 1354.97 1008.69 L 1364.15 1014.43 L 1378.33 1018.28 L 1395.22 1019.62 L 1412.26 1018.28 L 1426.85 1014.43 L 1436.66 1008.69" stroke="black" stroke-width="4" fill="none" stroke-linecap="round" stroke-linejoin="round"/>
  <path d="M 1352.16 1002.00 L 1352.68 1029.09 L 1355.49 1035.85 L 1364.63 1041.65 L 1378.76 1045.54 L 1395.59 1046.89 L 1412.57 1045.54 L 1427.11 1041.65 L 1436.88 1035.85 L 1440.41 1029.09 L 1440.20 1002.00" stroke="black" stroke-width="4" fill="none" stroke-linecap="round" stroke-linejoin="round"/>
  <path d="M 1395.22 1019.62 L 1412.26 1018.28 L 1426.85 1014.43" stroke="black" stroke-width="4" fill="none" stroke-linecap="round" stroke-linejoin="round"/>
  <path d="M 1427.79 989.73 L 1413.73 986.00 L 1397.12 984.71" stroke="black" stroke-width="4" fill="none" stroke-linecap="round" stroke-linejoin="round"/>
  <path d="M 1365.90 989.73 L 1355.98 995.36 L 1352.16 1002.00 L 1354.97 1008.69 L 1364.15 1014.43" stroke="black" stroke-width="4" fill="none" stroke-linecap="round" stroke-linejoin="round"/>
  <path d="M 1658.78 1190.23 L 1661.81 1182.21 L 1657.57 1174.26 L 1646.68 1167.52 L 1630.83 1163.06 L 1612.50 1161.51 L 1594.35 1163.06 L 1578.98 1167.52 L 1568.82 1174.26 L 1565.45 1182.21 L 1569.35 1190.23 L 1580.11 1197.11 L 1596.11 1201.72 L 1614.78 1203.33 L 1633.27 1201.72 L 1648.77 1197.11 L 1658.78 1190.23" stroke="black" stroke-width="4" fill="none" stroke-linecap="round" stroke-linejoin="round"/>
  <path d="M 1565.45 1182.21 L 1565.20 1211.16 L 1569.08 1219.26 L 1579.80 1226.21 L 1595.74 1230.86 L 1614.33 1232.49 L 1632.75 1230.86 L 1648.20 1226.21 L 1658.17 1219.26 L 1661.19 1211.16 L 1661.81 1182.21" stroke="black" stroke-width="4" fill="none" stroke-linecap="round" stroke-linejoin="round"/>
  <path d="M 1614.78 1203.33 L 1633.27 1201.72 L 1648.77 1197.11" stroke="black" stroke-width="4" fill="none" stroke-linecap="round" stroke-linejoin="round"/>
  <path d="M 1646.68 1167.52 L 1630.83 1163.06 L 1612.50 1161.51" stroke="black" stroke-width="4" fill="none" stroke-linecap="round" stroke-linejoin="round"/>
  <path d="M 1578.98 1167.52 L 1568.82 1174.26 L 1565.45 1182.21 L 1569.35 1190.23 L 1580.11 1197.11" stroke="black" stroke-width="4" fill="none" stroke-linecap="round" stroke-linejoin="round"/>
  <path d="M 1543.68 1141.69 L 1547.07 1134.04 L 1543.35 1126.45 L 1533.07 1120.02 L 1517.82 1115.76 L 1500.00 1114.28 L 1482.18 1115.76 L 1466.93 1120.02 L 1456.65 1126.45 L 1452.93 1134.04 L 1456.32 1141.69 L 1466.47 1148.26 L 1481.85 1152.66 L 1500.00 1154.19 L 1518.15 1152.66 L 1533.53 1148.26 L 1543.68 1141.69 L 1533.53 1148.26" stroke="black" stroke-width="4" fill="none" stroke-linecap="round" stroke-linejoin="round"/>
  <path d="M 1452.93 1134.04 L 1453.11 1162.50 L 1456.49 1170.23 L 1466.59 1176.86 L 1481.92 1181.31 L 1500.00 1182.86 L 1518.08 1181.31 L 1533.41 1176.86 L 1543.51 1170.23 L 1546.89 1162.50 L 1547.07 1134.04" stroke="black" stroke-width="4" fill="none" stroke-linecap="round" stroke-linejoin="round"/>
  <path d="M 1543.35 1126.45 L 1533.07 1120.02" stroke="black" stroke-width="4" fill="none" stroke-linecap="round" stroke-linejoin="round"/>
  <path d="M 1517.82 1115.76 L 1500.00 1114.28" stroke="black" stroke-width="4" fill="none" stroke-linecap="round" stroke-linejoin="round"/>
  <path d="M 1482.18 1115.76 L 1466.93 1120.02" stroke="black" stroke-width="4" fill="none" stroke-linecap="round" stroke-linejoin="round"/>
  <path d="M 1456.65 1126.45 L 1452.93 1134.04 L 1456.32 1141.69" stroke="black" stroke-width="4" fill="none" stroke-linecap="round" stroke-linejoin="round"/>
  <path d="M 1466.47 1148.26 L 1481.85 1152.66" stroke="black" stroke-width="4" fill="none" stroke-linecap="round" stroke-linejoin="round"/>
  <path d="M 1500.00 1154.19 L 1518.15 1152.66" stroke="black" stroke-width="4" fill="none" stroke-linecap="round" stroke-linejoin="round"/>
  <path d="M 1433.79 1095.35 L 1437.50 1088.04 L 1434.27 1080.79 L 1424.56 1074.65 L 1409.87 1070.57 L 1392.52 1069.16 L 1375.02 1070.57 L 1359.89 1074.65 L 1349.51 1080.79 L 1345.49 1088.04 L 1348.41 1095.35 L 1357.98 1101.62 L 1372.79 1105.83 L 1390.45 1107.29 L 1408.26 1105.83 L 1423.53 1101.62 L 1433.79 1095.35 L 1423.53 1101.62" stroke="black" stroke-width="4" fill="none" stroke-linecap="round" stroke-linejoin="round"/>
  <path d="M 1345.49 1088.04 L 1346.06 1116.03 L 1348.97 1123.42 L 1358.51 1129.76 L 1373.27 1134.00 L 1390.85 1135.48 L 1408.60 1134.00 L 1423.81 1129.76 L 1434.03 1123.42 L 1437.73 1116.03 L 1437.50 1088.04" stroke="black" stroke-width="4" fill="none" stroke-linecap="round" stroke-linejoin="round"/>
  <path d="M 1434.27 1080.79 L 1424.56 1074.65" stroke="black" stroke-width="4" fill="none" stroke-linecap="round" stroke-linejoin="round"/>
  <path d="M 1409.87 1070.57 L 1392.52 1069.16" stroke="black" stroke-width="4" fill="none" stroke-linecap="round" stroke-linejoin="round"/>
  <path d="M 1375.02 1070.57 L 1359.89 1074.65" stroke="black" stroke-width="4" fill="none" stroke-linecap="round" stroke-linejoin="round"/>
  <path d="M 1349.51 1080.79 L 1345.49 1088.04 L 1348.41 1095.35" stroke="black" stroke-width="4" fill="none" stroke-linecap="round" stroke-linejoin="round"/>
  <path d="M 1357.98 1101.62 L 1372.79 1105.83" stroke="black" stroke-width="4" fill="none" stroke-linecap="round" stroke-linejoin="round"/>
  <path d="M 1390.45 1107.29 L 1408.26 1105.83" stroke="black" stroke-width="4" fill="none" stroke-linecap="round" stroke-linejoin="round"/>
  <path d="M 1328.76 1051.06 L 1332.77 1044.07 L 1329.98 1037.13 L 1320.80 1031.26 L 1306.64 1027.36 L 1289.74 1026.01 L 1272.56 1027.36 L 1257.55 1031.26 L 1247.09 1037.13 L 1242.79 1044.07 L 1245.27 1051.06 L 1254.32 1057.06 L 1268.59 1061.08 L 1285.78 1062.48 L 1303.27 1061.08 L 1318.41 1057.06 L 1328.76 1051.06" stroke="black" stroke-width="4" fill="none" stroke-linecap="round" stroke-linejoin="round"/>
  <path d="M 1242.79 1044.07 L 1243.71 1071.61 L 1246.19 1078.67 L 1255.21 1084.73 L 1269.43 1088.79 L 1286.55 1090.20 L 1303.98 1088.79 L 1319.07 1084.73 L 1329.38 1078.67 L 1333.37 1071.61 L 1332.77 1044.07" stroke="black" stroke-width="4" fill="none" stroke-linecap="round" stroke-linejoin="round"/>
  <path d="M 1285.78 1062.48 L 1303.27 1061.08 L 1318.41 1057.06" stroke="black" stroke-width="4" fill="none" stroke-linecap="round" stroke-linejoin="round"/>
  <path d="M 1320.80 1031.26 L 1306.64 1027.36 L 1289.74 1026.01" stroke="black" stroke-width="4" fill="none" stroke-linecap="round" stroke-linejoin="round"/>
  <path d="M 1257.55 1031.26 L 1247.09 1037.13 L 1242.79 1044.07 L 1245.27 1051.06 L 1254.32 1057.06" stroke="black" stroke-width="4" fill="none" stroke-linecap="round" stroke-linejoin="round"/>
  <path d="M 1804.35 1786.80 L 1743.03 1754.53" stroke="black" stroke-width="4" fill="none" stroke-linecap="round" stroke-linejoin="round"/>
  <path d="M 1716.86 1740.75 L 1638.62 1699.58" stroke="black" stroke-width="4" fill="none" stroke-linecap="round" stroke-linejoin="round"/>
  <path d="M 1613.52 1686.36 L 1538.44 1646.85" stroke="black" stroke-width="4" fill="none" stroke-linecap="round" stroke-linejoin="round"/>
  <path d="M 1514.34 1634.17 L 1442.23 1596.21" stroke="black" stroke-width="4" fill="none" stroke-linecap="round" stroke-linejoin="round"/>
  <path d="M 1419.08 1584.03 L 1406.44 1577.38 L 1393.89 1583.73" stroke="black" stroke-width="4" fill="none" stroke-linecap="round" stroke-linejoin="round"/>
  <path d="M 1366.22 1597.74 L 1294.87 1633.86" stroke="black" stroke-width="4" fill="none" stroke-linecap="round" stroke-linejoin="round"/>
  <path d="M 1266.07 1648.44 L 1207.96 1677.85 L 1605.92 1905.35 L 1804.35 1786.80 L 1798.19 1927.08 L 1603.68 2049.17 L 1213.64 1814.68 L 1207.96 1677.85" stroke="black" stroke-width="4" fill="none" stroke-linecap="round" stroke-linejoin="round"/>
  <path d="M 1659.89 1786.80 L 1663.69 1796.03 L 1673.56 1803.94 L 1688.02 1809.24 L 1704.73 1811.09 L 1721.17 1809.24 L 1734.82 1803.94 L 1743.50 1796.03 L 1745.92 1786.80" stroke="black" stroke-width="4" fill="none" stroke-linecap="round" stroke-linejoin="round"/>
  <path d="M 1735.64 1779.91 L 1721.94 1785.18 L 1705.45 1787.02 L 1688.68 1785.18 L 1674.17 1779.91 L 1664.26 1772.04 L 1660.44 1762.86 L 1663.14 1753.74 L 1671.97 1746.03 L 1685.57 1740.91 L 1701.79 1739.13 L 1718.28 1740.91 L 1732.67 1746.03 L 1742.68 1753.74 L 1746.77 1762.86 L 1744.35 1772.04 L 1735.64 1779.91" stroke="black" stroke-width="4" fill="none" stroke-linecap="round" stroke-linejoin="round"/>
  <path d="M 1557.23 1731.20 L 1560.61 1740.05 L 1569.98 1747.64 L 1583.94 1752.72 L 1600.23 1754.50 L 1616.39 1752.72 L 1629.97 1747.64 L 1638.77 1740.05 L 1641.48 1731.20" stroke="black" stroke-width="4" fill="none" stroke-linecap="round" stroke-linejoin="round"/>
  <path d="M 1630.41 1723.91 L 1616.79 1728.97 L 1600.58 1730.73 L 1584.23 1728.97 L 1570.22 1723.91 L 1560.82 1716.37 L 1557.42 1707.57 L 1560.41 1698.82 L 1569.35 1691.42 L 1582.87 1686.51 L 1598.82 1684.81 L 1614.91 1686.51 L 1628.80 1691.42 L 1638.31 1698.82 L 1641.96 1707.57 L 1639.24 1716.37 L 1630.41 1723.91" stroke="black" stroke-width="4" fill="none" stroke-linecap="round" stroke-linejoin="round"/>
  <path d="M 1484.10 1698.51 L 1500.00 1700.21 L 1515.90 1698.51 L 1529.38 1693.63 L 1538.29 1686.35 L 1541.27 1677.85" stroke="black" stroke-width="4" fill="none" stroke-linecap="round" stroke-linejoin="round"/>
  <path d="M 1458.73 1677.85 L 1461.71 1686.35 L 1470.62 1693.63" stroke="black" stroke-width="4" fill="none" stroke-linecap="round" stroke-linejoin="round"/>
  <path d="M 1529.48 1670.21 L 1515.95 1675.05 L 1500.00 1676.75 L 1484.05 1675.05 L 1470.52 1670.21 L 1461.59 1662.97 L 1458.59 1654.52 L 1461.84 1646.13 L 1470.88 1639.02 L 1484.30 1634.31 L 1500.00 1632.67 L 1515.70 1634.31 L 1529.12 1639.02 L 1538.16 1646.13 L 1541.41 1654.52 L 1538.41 1662.97 L 1529.48 1670.21" stroke="black" stroke-width="4" fill="none" stroke-linecap="round" stroke-linejoin="round"/>
  <path d="M 1441.80 1634.78 L 1445.04 1626.62" stroke="black" stroke-width="4" fill="none" stroke-linecap="round" stroke-linejoin="round"/>
  <path d="M 1364.13 1626.62 L 1366.75 1634.78 L 1375.22 1641.77 L 1388.26 1646.46 L 1403.78 1648.09 L 1419.42 1646.46 L 1432.81 1641.77" stroke="black" stroke-width="4" fill="none" stroke-linecap="round" stroke-linejoin="round"/>
  <path d="M 1432.59 1618.65 L 1419.15 1623.31 L 1403.46 1624.93 L 1387.89 1623.31 L 1374.81 1618.65 L 1366.32 1611.70 L 1363.69 1603.58 L 1367.18 1595.52 L 1376.30 1588.69 L 1389.63 1584.16 L 1405.08 1582.59 L 1420.40 1584.16 L 1433.39 1588.69 L 1441.99 1595.52 L 1444.86 1603.58 L 1441.61 1611.70 L 1432.59 1618.65" stroke="black" stroke-width="4" fill="none" stroke-linecap="round" stroke-linejoin="round"/>
  <path d="M 1587.59 1868.22 L 1604.59 1870.15 L 1621.45 1868.22 L 1635.60 1862.69 L 1644.77 1854.43 L 1647.58 1844.80" stroke="black" stroke-width="4" fill="none" stroke-linecap="round" stroke-linejoin="round"/>
  <path d="M 1559.69 1844.80 L 1563.23 1854.43 L 1573.02 1862.69" stroke="black" stroke-width="4" fill="none" stroke-linecap="round" stroke-linejoin="round"/>
  <path d="M 1636.09 1838.34 L 1621.88 1843.84 L 1604.96 1845.76 L 1587.90 1843.84 L 1573.28 1838.34 L 1563.46 1830.12 L 1559.91 1820.54 L 1563.01 1811.03 L 1572.33 1802.98 L 1586.42 1797.64 L 1603.06 1795.78 L 1619.84 1797.64 L 1634.33 1802.98 L 1644.27 1811.03 L 1648.10 1820.54 L 1645.28 1830.12 L 1636.09 1838.34" stroke="black" stroke-width="4" fill="none" stroke-linecap="round" stroke-linejoin="round"/>
  <path d="M 1539.91 1796.03 L 1543.02 1786.80" stroke="black" stroke-width="4" fill="none" stroke-linecap="round" stroke-linejoin="round"/>
  <path d="M 1456.98 1786.80 L 1460.09 1796.03 L 1469.37 1803.94 L 1483.43 1809.24 L 1500.00 1811.09 L 1516.57 1809.24 L 1530.63 1803.94" stroke="black" stroke-width="4" fill="none" stroke-linecap="round" stroke-linejoin="round"/>
  <path d="M 1530.74 1779.91 L 1516.63 1785.18 L 1500.00 1787.02 L 1483.37 1785.18 L 1469.26 1779.91 L 1459.96 1772.04 L 1456.84 1762.86 L 1460.23 1753.74 L 1469.65 1746.03 L 1483.64 1740.91 L 1500.00 1739.13 L 1516.36 1740.91 L 1530.35 1746.03 L 1539.77 1753.74 L 1543.16 1762.86 L 1540.04 1772.04 L 1530.74 1779.91" stroke="black" stroke-width="4" fill="none" stroke-linecap="round" stroke-linejoin="round"/>
  <path d="M 1358.52 1731.20 L 1361.23 1740.05 L 1370.03 1747.64 L 1383.61 1752.72 L 1399.77 1754.50 L 1416.06 1752.72 L 1430.02 1747.64 L 1439.39 1740.05 L 1442.77 1731.20" stroke="black" stroke-width="4" fill="none" stroke-linecap="round" stroke-linejoin="round"/>
  <path d="M 1429.78 1723.91 L 1415.77 1728.97 L 1399.42 1730.73 L 1383.21 1728.97 L 1369.59 1723.91 L 1360.76 1716.37 L 1358.04 1707.57 L 1361.69 1698.82 L 1371.20 1691.42 L 1385.09 1686.51 L 1401.18 1684.81 L 1417.13 1686.51 L 1430.65 1691.42 L 1439.59 1698.82 L 1442.58 1707.57 L 1439.18 1716.37 L 1429.78 1723.91" stroke="black" stroke-width="4" fill="none" stroke-linecap="round" stroke-linejoin="round"/>
  <path d="M 1264.03 1677.85 L 1266.38 1686.35 L 1274.74 1693.63 L 1287.86 1698.51 L 1303.62 1700.21 L 1319.65 1698.51 L 1333.50 1693.63 L 1342.95 1686.35 L 1346.58 1677.85" stroke="black" stroke-width="4" fill="none" stroke-linecap="round" stroke-linejoin="round"/>
  <path d="M 1332.95 1670.21 L 1319.05 1675.05 L 1302.97 1676.75 L 1287.15 1675.05 L 1273.99 1670.21 L 1265.61 1662.97 L 1263.25 1654.52 L 1267.14 1646.13 L 1276.72 1639.02 L 1290.51 1634.31 L 1306.33 1632.67 L 1321.90 1634.31 L 1334.97 1639.02 L 1343.46 1646.13 L 1346.07 1654.52 L 1342.43 1662.97 L 1332.95 1670.21" stroke="black" stroke-width="4" fill="none" stroke-linecap="round" stroke-linejoin="round"/>
  <path d="M 1605.92 1905.35 L 1603.68 2049.17" stroke="black" stroke-width="4" fill="none" stroke-linecap="round" stroke-linejoin="round"/>
  <path d="M 1831.77 1162.50 L 1768.97 1137.25" stroke="black" stroke-width="4" fill="none" stroke-linecap="round" stroke-linejoin="round"/>
  <path d="M 1713.23 1114.84 L 1654.45 1091.20" stroke="black" stroke-width="4" fill="none" stroke-linecap="round" stroke-linejoin="round"/>
  <path d="M 1600.96 1069.69 L 1544.97 1047.18" stroke="black" stroke-width="4" fill="none" stroke-linecap="round" stroke-linejoin="round"/>
  <path d="M 1493.60 1026.52 L 1440.22 1005.05" stroke="black" stroke-width="4" fill="none" stroke-linecap="round" stroke-linejoin="round"/>
  <path d="M 1352.24 1006.29 L 1299.13 1026.76" stroke="black" stroke-width="4" fill="none" stroke-linecap="round" stroke-linejoin="round"/>
  <path d="M 1242.93 1048.43 L 1182.81 1071.61 L 1615.92 1262.16 L 1831.77 1162.50 L 1824.46 1328.89 L 1613.25 1434.08 L 1189.50 1232.75 L 1182.81 1071.61" stroke="black" stroke-width="4" fill="none" stroke-linecap="round" stroke-linejoin="round"/>
  <path d="M 1674.29 1162.50 L 1678.49 1170.23 L 1689.31 1176.86 L 1705.11 1181.31 L 1723.36 1182.86 L 1741.27 1181.31 L 1756.12 1176.86 L 1765.52 1170.23 L 1768.07 1162.50" stroke="black" stroke-width="4" fill="none" stroke-linecap="round" stroke-linejoin="round"/>
  <path d="M 1757.10 1148.26 L 1742.19 1152.66 L 1724.21 1154.19 L 1705.89 1152.66 L 1690.03 1148.26 L 1679.17 1141.69 L 1674.95 1134.04 L 1677.83 1126.45 L 1687.42 1120.02 L 1702.20 1115.76 L 1719.86 1114.28 L 1737.85 1115.76 L 1753.56 1120.02 L 1764.54 1126.45 L 1769.08 1134.04 L 1766.53 1141.69 L 1757.10 1148.26" stroke="black" stroke-width="4" fill="none" stroke-linecap="round" stroke-linejoin="round"/>
  <path d="M 1562.27 1116.03 L 1565.97 1123.42 L 1576.19 1129.76 L 1591.40 1134.00 L 1609.15 1135.48 L 1626.74 1134.00 L 1641.49 1129.76 L 1651.03 1123.42 L 1653.94 1116.04" stroke="black" stroke-width="4" fill="none" stroke-linecap="round" stroke-linejoin="round"/>
  <path d="M 1642.02 1101.62 L 1627.21 1105.83 L 1609.55 1107.29 L 1591.74 1105.83 L 1576.47 1101.62 L 1566.21 1095.35 L 1562.50 1088.04 L 1565.73 1080.79 L 1575.44 1074.65 L 1590.13 1070.57 L 1607.48 1069.16 L 1624.98 1070.57 L 1640.11 1074.65 L 1650.49 1080.79 L 1654.51 1088.04 L 1651.59 1095.35 L 1642.02 1101.62" stroke="black" stroke-width="4" fill="none" stroke-linecap="round" stroke-linejoin="round"/>
  <path d="M 1482.72 1088.79 L 1500.00 1090.20 L 1517.28 1088.79 L 1531.93 1084.73 L 1541.59 1078.67 L 1544.83 1071.61" stroke="black" stroke-width="4" fill="none" stroke-linecap="round" stroke-linejoin="round"/>
  <path d="M 1455.17 1071.61 L 1458.41 1078.67 L 1468.07 1084.73 L 1477.16 1087.25" stroke="black" stroke-width="4" fill="none" stroke-linecap="round" stroke-linejoin="round"/>
  <path d="M 1458.18 1037.86 L 1458.55 1037.13 L 1468.38 1031.26 L 1482.96 1027.36 L 1500.00 1026.01 L 1517.04 1027.36 L 1531.62 1031.26 L 1541.45 1037.13 L 1544.99 1044.07 L 1541.74 1051.06 L 1532.05 1057.06 L 1517.34 1061.08 L 1500.00 1062.48 L 1482.66 1061.08 L 1467.95 1057.06 L 1458.26 1051.06 L 1455.01 1044.07" stroke="black" stroke-width="4" fill="none" stroke-linecap="round" stroke-linejoin="round"/>
  <path d="M 1436.88 1035.85 L 1440.41 1029.09" stroke="black" stroke-width="4" fill="none" stroke-linecap="round" stroke-linejoin="round"/>
  <path d="M 1352.68 1029.09 L 1355.49 1035.85 L 1364.63 1041.65 L 1378.76 1045.54 L 1395.59 1046.89 L 1412.57 1045.54 L 1427.11 1041.65" stroke="black" stroke-width="4" fill="none" stroke-linecap="round" stroke-linejoin="round"/>
  <path d="M 1426.85 1014.43 L 1412.26 1018.28 L 1395.22 1019.62 L 1378.33 1018.28 L 1364.15 1014.43 L 1354.97 1008.69 L 1352.16 1002.00 L 1355.98 995.36 L 1365.90 989.73 L 1380.37 986.00 L 1397.12 984.71 L 1413.73 986.00 L 1427.79 989.73 L 1437.10 995.36 L 1440.20 1002.00 L 1436.66 1008.69 L 1426.85 1014.43" stroke="black" stroke-width="4" fill="none" stroke-linecap="round" stroke-linejoin="round"/>
  <path d="M 1595.74 1230.86 L 1614.33 1232.49 L 1632.75 1230.86 L 1648.20 1226.21 L 1658.17 1219.26 L 1661.19 1211.16" stroke="black" stroke-width="4" fill="none" stroke-linecap="round" stroke-linejoin="round"/>
  <path d="M 1565.20 1211.16 L 1569.08 1219.26 L 1579.80 1226.21" stroke="black" stroke-width="4" fill="none" stroke-linecap="round" stroke-linejoin="round"/>
  <path d="M 1648.77 1197.11 L 1633.27 1201.72 L 1614.78 1203.33 L 1596.11 1201.72 L 1580.11 1197.11 L 1569.35 1190.23 L 1565.45 1182.21 L 1568.82 1174.26 L 1578.98 1167.52 L 1594.35 1163.06 L 1612.50 1161.51 L 1630.83 1163.06 L 1646.68 1167.52 L 1657.57 1174.26 L 1661.81 1182.21 L 1658.78 1190.23 L 1648.77 1197.11" stroke="black" stroke-width="4" fill="none" stroke-linecap="round" stroke-linejoin="round"/>
  <path d="M 1546.89 1162.50 L 1543.51 1170.23 L 1543.17 1170.46 L 1533.41 1176.86 L 1518.08 1181.31 L 1500.00 1182.86 L 1481.92 1181.31 L 1466.59 1176.86 L 1456.49 1170.23 L 1453.11 1162.50" stroke="black" stroke-width="4" fill="none" stroke-linecap="round" stroke-linejoin="round"/>
  <path d="M 1533.53 1148.26 L 1518.15 1152.66 L 1500.00 1154.19 L 1481.85 1152.66 L 1466.47 1148.26 L 1456.32 1141.69 L 1452.93 1134.04 L 1456.65 1126.45 L 1466.93 1120.02 L 1482.18 1115.76 L 1500.00 1114.28 L 1517.82 1115.76 L 1533.07 1120.02 L 1543.35 1126.45 L 1547.07 1134.04 L 1543.68 1141.69 L 1533.53 1148.26" stroke="black" stroke-width="4" fill="none" stroke-linecap="round" stroke-linejoin="round"/>
  <path d="M 1346.06 1116.03 L 1348.97 1123.42 L 1358.51 1129.76 L 1373.27 1134.00 L 1390.85 1135.48 L 1408.60 1134.00 L 1423.81 1129.76 L 1434.03 1123.42 L 1437.73 1116.03" stroke="black" stroke-width="4" fill="none" stroke-linecap="round" stroke-linejoin="round"/>
  <path d="M 1423.53 1101.62 L 1408.26 1105.83 L 1390.45 1107.29 L 1372.79 1105.83 L 1357.98 1101.62 L 1348.41 1095.35 L 1345.49 1088.04 L 1349.51 1080.79 L 1359.89 1074.65 L 1375.02 1070.57 L 1392.52 1069.16 L 1409.87 1070.57 L 1424.56 1074.65 L 1434.27 1080.79 L 1437.50 1088.04 L 1433.79 1095.35 L 1423.53 1101.62" stroke="black" stroke-width="4" fill="none" stroke-linecap="round" stroke-linejoin="round"/>
  <path d="M 1243.71 1071.61 L 1246.19 1078.67 L 1255.21 1084.73 L 1269.43 1088.79 L 1286.55 1090.20 L 1303.98 1088.79 L 1319.07 1084.73 L 1329.38 1078.67 L 1333.37 1071.61" stroke="black" stroke-width="4" fill="none" stroke-linecap="round" stroke-linejoin="round"/>
  <path d="M 1318.41 1057.06 L 1303.27 1061.08 L 1285.78 1062.48 L 1268.59 1061.08 L 1254.32 1057.06 L 1245.27 1051.06 L 1242.79 1044.07 L 1247.09 1037.13 L 1257.55 1031.26 L 1272.56 1027.36 L 1289.74 1026.01 L 1306.64 1027.36 L 1320.80 1031.26 L 1329.98 1037.13 L 1332.77 1044.07 L 1328.76 1051.06 L 1318.41 1057.06" stroke="black" stroke-width="4" fill="none" stroke-linecap="round" stroke-linejoin="round"/>
  <path d="M 1615.92 1262.16 L 1613.25 1434.08" stroke="black" stroke-width="4" fill="none" stroke-linecap="round" stroke-linejoin="round"/>
</svg>
