<?xml version="1.0" encoding="UTF-8"?>
<svg xmlns="http://www.w3.org/2000/svg" xmlns:xlink="http://www.w3.org/1999/xlink"
     width="634.0" height="220" viewBox="0 0 634.0 220">
<defs>
</defs>
<g>
<g transform="translate(10.0, 10)">
<g>
<g transform="translate(38.0, 10)">
<rect x="0" y="0" width="40" height="60" rx="4" ry="4" fill="white" stroke="black" stroke-width="1" />
<rect x="4" y="4" width="32" height="52" rx="2" ry="2" fill="#cc0000" stroke="none" />
<path d="M20.0,9 L31,30.0 L20.0,51 L9,30.0 Z" fill="#ff6666" />
</g>
<g transform="translate(53.0, 25)">
<rect x="0" y="0" width="40" height="60" rx="4" ry="4" fill="white" stroke="black" stroke-width="1" />
<rect x="4" y="4" width="32" height="52" rx="2" ry="2" fill="#cc0000" stroke="none" />
<path d="M20.0,9 L31,30.0 L20.0,51 L9,30.0 Z" fill="#ff6666" />
</g>
<g transform="translate(68.0, 40)">
<rect x="0" y="0" width="40" height="60" rx="4" ry="4" fill="white" stroke="black" stroke-width="1" />
<rect x="4" y="4" width="32" height="52" rx="2" ry="2" fill="#cc0000" stroke="none" />
<path d="M20.0,9 L31,30.0 L20.0,51 L9,30.0 Z" fill="#ff6666" />
</g>
<svg x="10.0" y="110" width="80" height="80" viewBox="0 0 36 36" xmlns="http://www.w3.org/2000/svg"><path fill="#0B0200" d="M21.906 1.262c-2.02-.654-6.772-.475-7.96 1.069-3.089.059-6.713 2.851-7.188 6.535-.47 3.645.578 5.338.951 8.079.422 3.106 2.168 4.099 3.564 4.515C13.281 24.114 15.415 24 19 24c7 0 10.334-4.684 10.629-12.639.178-4.812-2.645-8.456-7.723-10.099z"/><path fill="#7C533E" d="M25.909 11.701c-.677-.938-1.545-1.693-3.446-1.96.713.327 1.396 1.455 1.485 2.079.089.624.178 1.129-.386.505-2.26-2.499-4.722-1.515-7.162-3.041-1.704-1.066-2.223-2.246-2.223-2.246s-.208 1.574-2.792 3.178c-.749.465-1.643 1.5-2.139 3.03C8.889 14.345 9 15.325 9 17c0 4.889 4.029 9 9 9s9-4.147 9-9c0-3.041-.319-4.229-1.091-5.299z"/><path fill="#FA743E" d="M32 6.625L29 5l-2 1.625s3 7.25 3 11.125S26.5 27 26.5 27h-17S6 21.625 6 17.75 9 6.625 9 6.625L7 5 4 6.625S0 13.75 0 17.75 5.5 36 5.5 36h25S36 21.75 36 17.75 32 6.625 32 6.625z"/><path fill="#7C533E" d="M15 22v6c0 1.657 1.343 3 3 3s3-1.343 3-3v-6h-6zm4.24-19.604c.042-.521.593-.727 1.146-.708 0 0 5.456.311 7.521 1.271C30.522 4.174 32 6.625 32 6.625h-5S25.917 5.104 25.062 4.5c-.881-.623-4.222-1.215-4.719-1.312s-1.145-.271-1.103-.792zm-2.48 0c-.042-.521-.593-.727-1.146-.708 0 0-5.456.311-7.521 1.271C5.478 4.174 4 6.625 4 6.625h5s1.083-1.521 1.938-2.125c.881-.623 4.222-1.215 4.719-1.312.496-.098 1.145-.271 1.103-.792z"/><path fill="#3D2E24" d="M22 21h-8s1 2 4 2 4-2 4-2zm-3-1.5h-2c-.276 0-.5-.224-.5-.5s.224-.5.5-.5h2c.276 0 .5.224.5.5s-.224.5-.5.5z"/><path d="M14 16c-.552 0-1-.448-1-1v-1c0-.552.448-1 1-1s1 .448 1 1v1c0 .552-.448 1-1 1zm8 0c-.552 0-1-.448-1-1v-1c0-.552.448-1 1-1s1 .448 1 1v1c0 .552-.448 1-1 1z"/></svg>
<rect x="100.0" y="132.0" width="36.0" height="36.0" fill="none" stroke="black" stroke-width="2" />
<text x="118.0" y="150.0" font-size="24" font-family="Comic Sans MS, Comic Sans, cursive" dominant-baseline="middle" fill="black" text-anchor="middle">3</text>
</g>
</g>
<g transform="translate(166.0, 10)">
<g>
<g transform="translate(38.0, 10)">
<rect x="0" y="0" width="40" height="60" rx="4" ry="4" fill="white" stroke="black" stroke-width="1" />
<rect x="4" y="4" width="32" height="52" rx="2" ry="2" fill="#cc0000" stroke="none" />
<path d="M20.0,9 L31,30.0 L20.0,51 L9,30.0 Z" fill="#ff6666" />
</g>
<g transform="translate(53.0, 25)">
<rect x="0" y="0" width="40" height="60" rx="4" ry="4" fill="white" stroke="black" stroke-width="1" />
<rect x="4" y="4" width="32" height="52" rx="2" ry="2" fill="#cc0000" stroke="none" />
<path d="M20.0,9 L31,30.0 L20.0,51 L9,30.0 Z" fill="#ff6666" />
</g>
<g transform="translate(68.0, 40)">
<rect x="0" y="0" width="40" height="60" rx="4" ry="4" fill="white" stroke="black" stroke-width="1" />
<rect x="4" y="4" width="32" height="52" rx="2" ry="2" fill="#cc0000" stroke="none" />
<path d="M20.0,9 L31,30.0 L20.0,51 L9,30.0 Z" fill="#ff6666" />
</g>
<svg x="10.0" y="110" width="80" height="80" viewBox="0 0 36 36" xmlns="http://www.w3.org/2000/svg"><path fill="#963B22" d="M21.906 1.262c-2.02-.654-6.772-.475-7.96 1.069-3.089.059-6.713 2.851-7.188 6.535-.47 3.645.578 5.338.951 8.079.422 3.106 2.168 4.099 3.564 4.515C13.281 24.114 15.415 24 19 24c7 0 10.334-4.684 10.629-12.639.178-4.812-2.645-8.456-7.723-10.099z"/><path fill="#FA743E" d="M27 21H9c-2.209 0-4 1.791-4 4v11h26V25c0-2.209-1.791-4-4-4z"/><path fill="#D4AB88" d="M25.904 11.734c-.677-.938-1.545-1.693-3.446-1.96.713.327 1.396 1.455 1.485 2.079.089.624.178 1.129-.386.505-2.261-2.499-4.723-1.515-7.163-3.041-1.703-1.067-2.222-2.247-2.222-2.247s-.208 1.574-2.792 3.178c-.749.465-1.643 1.501-2.139 3.03-.356 1.099-.246 2.079-.246 3.754 0 4.889 4.029 9 9 9s9-4.147 9-9c0-3.041-.318-4.229-1.091-5.298z"/><path fill="#DD551F" d="M10 27h1v9h-1z"/><path fill="#B78B60" d="M4.702 26.495l-.283-.059h-.511c0-.058.023-.112.035-.169-.348-.215-.546-.625-.458-1.048.112-.542.643-.89 1.186-.779l2.091.433h1.676c.863 0 1.562.7 1.562 1.564V28H6.253s-1.481-.669-1.551-1.505z"/><path fill="#D4AB88" d="M0 25.655c0-.432.35-.782.781-.782l4.69.782h3.747c.432 0 .781.351.781.781V28H5L.781 26.437S0 26.087 0 25.655z"/><path fill="#FA743E" d="M4 36h6v-8H5z"/><path fill="#DD551F" d="M25 27h1v9h-1z"/><path fill="#B78B60" d="M31.298 26.495l.283-.059h.511c0-.058-.023-.112-.035-.169.348-.215.546-.625.458-1.048-.112-.542-.642-.89-1.185-.779l-2.091.433h-1.676c-.863 0-1.562.7-1.562 1.564V28h3.747c-.001 0 1.48-.669 1.55-1.505z"/><path fill="#D4AB88" d="M36 25.655c0-.432-.35-.782-.781-.782l-4.691.782h-3.747c-.432 0-.781.351-.781.781V28h5l4.219-1.563s.781-.35.781-.782z"/><path fill="#FA743E" d="M32 36h-6v-8h5z"/><path fill="#C1694F" d="M19 19.5h-2c-.276 0-.5-.224-.5-.5s.224-.5.5-.5h2c.276 0 .5.224.5.5s-.224.5-.5.5zm1.5 3.5H20c-.276 0-.5-.224-.5-.5s.224-.5.5-.5h.5c.276 0 .5.224.5.5s-.224.5-.5.5z"/><path fill="#662113" d="M14 16c-.552 0-1-.448-1-1v-1c0-.552.448-1 1-1s1 .448 1 1v1c0 .552-.448 1-1 1zm8 0c-.553 0-1-.448-1-1v-1c0-.552.447-1 1-1s1 .448 1 1v1c0 .552-.447 1-1 1z"/></svg>
<rect x="100.0" y="132.0" width="36.0" height="36.0" fill="none" stroke="black" stroke-width="2" />
<text x="118.0" y="150.0" font-size="24" font-family="Comic Sans MS, Comic Sans, cursive" dominant-baseline="middle" fill="black" text-anchor="middle">3</text>
</g>
</g>
<g transform="translate(322.0, 10)">
<g>
<g transform="translate(38.0, 10)">
<rect x="0" y="0" width="40" height="60" rx="4" ry="4" fill="white" stroke="black" stroke-width="1" />
<rect x="4" y="4" width="32" height="52" rx="2" ry="2" fill="#cc0000" stroke="none" />
<path d="M20.0,9 L31,30.0 L20.0,51 L9,30.0 Z" fill="#ff6666" />
</g>
<g transform="translate(53.0, 25)">
<rect x="0" y="0" width="40" height="60" rx="4" ry="4" fill="white" stroke="black" stroke-width="1" />
<rect x="4" y="4" width="32" height="52" rx="2" ry="2" fill="#cc0000" stroke="none" />
<path d="M20.0,9 L31,30.0 L20.0,51 L9,30.0 Z" fill="#ff6666" />
</g>
<g transform="translate(68.0, 40)">
<rect x="0" y="0" width="40" height="60" rx="4" ry="4" fill="white" stroke="black" stroke-width="1" />
<rect x="4" y="4" width="32" height="52" rx="2" ry="2" fill="#cc0000" stroke="none" />
<path d="M20.0,9 L31,30.0 L20.0,51 L9,30.0 Z" fill="#ff6666" />
</g>
<svg x="10.0" y="110" width="80" height="80" viewBox="0 0 36 36" xmlns="http://www.w3.org/2000/svg"><path fill="#CE9E5D" d="M31 36v-3.5c0-3.313-3.687-5.5-7-5.5H12c-3.313 0-7 2.187-7 5.5V36h26z"/><path fill="#FFF35F" d="M5 33h26v3H5z"/><path fill="#CCD6DD" d="M5.122 34h26v1h-26z"/><path fill="#A0041E" d="M32 13.656c0 3.59-6.268 6.5-14 6.5s-14-2.91-14-6.5 6.268-2.5 14-2.5 14-1.09 14 2.5z"/><path fill="#292F33" d="M17.945 5.069c4.105 0 10.948 2.053 10.948 10.948s0 10.948-2.053 10.948-4.79-2.053-8.895-2.053-6.784 2.053-8.895 2.053c-2.287 0-2.053-8.211-2.053-10.948 0-8.895 6.842-10.948 10.948-10.948zM14 27h8s-1.018 5-4 5-4-5-4-5z"/><path fill="#F7DECE" d="M14.328 27.02c1.467 1.065 2.964.98 3.672.98s2.194.084 3.66-.98v-3.205h-7.332v3.205z"/><path fill="#EEC2AD" d="M14.321 25.179c1.023 1.155 2.291 1.468 3.669 1.468 1.378 0 2.646-.313 3.669-1.468v-2.936H14.32v2.936z"/><path fill="#F7DECE" d="M9.734 15.717c0-5.834 3.676-10.563 8.211-10.563 4.534 0 8.211 4.729 8.211 10.563 0 5.833-3.676 10.285-8.211 10.285-4.535.001-8.211-4.451-8.211-10.285z"/><path fill="#DF1F32" d="M17.945 23.543c-1.606 0-2.446-.794-2.536-.885-.267-.267-.267-.7 0-.967.265-.265.693-.267.961-.007.035.032.551.49 1.576.49 1.039 0 1.556-.472 1.577-.492.273-.255.703-.248.964.02.259.269.26.692-.004.956-.092.092-.933.885-2.538.885z"/><path fill="#292F33" d="M7.725 19c-.021-1-.044-.224-.044-.465 0-3.421 2.053.494 2.053-1.943 0-2.438 1.368-2.683 2.737-4.051.684-.684 2.053-2.025 2.053-2.025s3.421 2.066 6.158 2.066 5.474 1.376 5.474 4.113 2.053-1.584 2.053 1.837c0 .243-.023-.531-.039.469h.718c.006-2 .006-1.924.006-3.202 0-8.895-6.842-12.207-10.948-12.207S6.997 6.848 6.997 15.743c0 .793-.02 1.257.008 3.257h.72z"/><path fill="#662113" d="M14.609 17.886c-.465 0-.846-.381-.846-.846v-.846c0-.465.381-.846.846-.846.465 0 .846.381.846.846v.846c-.001.466-.381.846-.846.846zm6.764 0c-.465 0-.846-.381-.846-.846v-.846c0-.465.381-.846.846-.846.465 0 .846.381.846.846v.846c0 .466-.381.846-.846.846z"/><path fill="#C1694F" d="M18.836 20.5h-1.691c-.233 0-.423-.19-.423-.423v-.154c0-.233.19-.423.423-.423h1.691c.233 0 .423.19.423.423v.154c0 .233-.19.423-.423.423z"/><path fill="#292F33" d="M27 36v-9c0-.55-.45-1-1-1h-1c-.55 0-1 .45-1 1v9h3zm-15 0v-9c0-.55-.45-1-1-1h-1c-.55 0-1 .45-1 1v9h3z"/><path fill="#DF1F32" d="M28.853 10.857c-.86-.173-1.093-4.028-3.084-6.859C23.894 1.335 20.304 0 17.997 0S12.1 1.335 10.226 3.998c-1.992 2.831-2.224 6.686-3.084 6.859-3.317.665-3.161 2.386-3.14 2.782.123-.466.438-1.578 3.902-1.64 3.404-.06 6.58.806 10.094.806s6.69-.866 10.094-.806c3.464.061 3.778 1.173 3.902 1.64.02-.396.176-2.117-3.141-2.782z"/><path fill="#EA596E" d="M18 0c-2.094 0-5 3.593-5 5.054V9s.109 1 .92 1h8.159C22.891 10 23 9 23 9V5.054C23 3.593 20.094 0 18 0z"/><path fill="#CE9E5D" d="M23.883 25c-.406-.378-2.474.364-3.019 1-.545.636-.638 1.737-1.01 3-.319 1.083-1.577 2.506-1.931 2.893-.353-.387-1.604-1.81-1.923-2.893-.372-1.263-.455-2.364-1-3s-2.594-1.378-3-1 .015 1.463 0 2 0 9 0 9h12s.015-8.463 0-9 .289-1.622-.117-2z"/></svg>
<rect x="100.0" y="132.0" width="36.0" height="36.0" fill="none" stroke="black" stroke-width="2" />
<text x="118.0" y="150.0" font-size="24" font-family="Comic Sans MS, Comic Sans, cursive" dominant-baseline="middle" fill="black" text-anchor="middle">3</text>
</g>
</g>
<g transform="translate(478.0, 10)">
<g>
<g transform="translate(38.0, 10)">
<rect x="0" y="0" width="40" height="60" rx="4" ry="4" fill="white" stroke="black" stroke-width="1" />
<rect x="4" y="4" width="32" height="52" rx="2" ry="2" fill="#cc0000" stroke="none" />
<path d="M20.0,9 L31,30.0 L20.0,51 L9,30.0 Z" fill="#ff6666" />
</g>
<g transform="translate(53.0, 25)">
<rect x="0" y="0" width="40" height="60" rx="4" ry="4" fill="white" stroke="black" stroke-width="1" />
<rect x="4" y="4" width="32" height="52" rx="2" ry="2" fill="#cc0000" stroke="none" />
<path d="M20.0,9 L31,30.0 L20.0,51 L9,30.0 Z" fill="#ff6666" />
</g>
<g transform="translate(68.0, 40)">
<rect x="0" y="0" width="40" height="60" rx="4" ry="4" fill="white" stroke="black" stroke-width="1" />
<rect x="4" y="4" width="32" height="52" rx="2" ry="2" fill="#cc0000" stroke="none" />
<path d="M20.0,9 L31,30.0 L20.0,51 L9,30.0 Z" fill="#ff6666" />
</g>
<svg x="10.0" y="110" width="80" height="80" viewBox="0 0 36 36" xmlns="http://www.w3.org/2000/svg"><path fill="#963B22" d="M8.115 16.988c0 2.848 2.876 7.967 9.795 7.967s9.665-4.837 9.665-9.055c0-1.127-4.043-3.61-9.575-3.61s-9.885 2.625-9.885 4.698z"/><path fill="#A0041E" d="M29.627 28.35C26.627 26.351 18 31 18 31s-8.627-4.649-11.627-2.65C3.373 30.35 1 36 1 36h34s-2.373-5.65-5.373-7.65z"/><path fill="#55ACEE" d="M28 29H8c-3 0-4 7-4 7h28s-1-7-4-7z"/><path fill="#DD2E44" d="M24.056 36c-1.211-1.194-3.466-2-6.056-2s-4.845.806-6.056 2h12.112z"/><path fill="#D4AB88" d="M14.33 30.02c1.466 1.065 3.666.98 3.666.98s2.201.085 3.667-.98v-5.664H14.33v5.664z"/><path fill="#DD2E44" d="M14.375 27.875c-.572-.82-1.601-.914-2.667-.914-1 0-1.708.768-1.708.768s-1.5-.764-3.068-.021C5.124 28.565 4 30.683 4 30.683S6 29 8 29s3 3 3 3c2-1 7-1 7-1-1 0-2.906-2.094-3.625-3.125zm14.693-.167c-1.568-.743-3.068.021-3.068.021s-.708-.768-1.708-.768c-1.066 0-2.095.094-2.667.914C20.906 28.906 19 31 18 31c0 0 5 0 7 1 0 0 1-3 3-3s4 1.683 4 1.683-1.124-2.118-2.932-2.975z"/><path fill="#CC9B7A" d="M14.264 25.179c1.022 1.155 2.29 1.468 3.668 1.468 1.379 0 2.647-.312 3.67-1.468v-2.936h-7.338v2.936z"/><path fill="#D4AB88" d="M9.675 15.718c0 5.833 3.676 10.285 8.211 10.285 4.533 0 8.209-4.452 8.209-10.285 0-5.834-3.676-10.563-8.209-10.563-4.534-.001-8.211 4.729-8.211 10.563"/><path fill="#963B22" d="M13.556 5.93S11 4 8 6s-1 6-1 6-2 1-2 3 2 3 2 3-1 1-1 2 2 2.001 2 3.001-2 2-2 2 4 0 4-2S8 15 14 11c0 0 3 1 5 1s7 1 7 4v7.001c0 1 2 2 3 2 0 0-1.077-.962-1.077-1.962s2.482-2.962 2.482-4.962S29 15 29 15s2-3 1-5-3.557-2.372-3.557-2.372-.048-3.136-3.048-4.136-5.877 1.001-5.877 1.001-1.524-1.306-2.786-.784c-1.307.541-1.176 2.221-1.176 2.221z"/><path fill="#269" d="M24.523 13c-2.796 0-4.66.857-6.523.857S14.272 13 11.477 13c-2.796 0-.932 4.903 0 5.76s4.66-.857 6.523-.857 5.591 1.714 6.523.857 2.796-5.76 0-5.76z"/><path fill="#88C9F9" d="M14.5 17.269c-.465 0-.846-.381-.846-.847v-.845c0-.465.381-.846.846-.846.466 0 .847.381.847.846v.845c-.001.466-.382.847-.847.847m7 0c-.465 0-.846-.381-.846-.847v-.845c0-.465.381-.846.846-.846.465 0 .846.381.846.846v.845c0 .466-.381.847-.846.847"/><path fill="#DF1F32" d="M17.887 23.543c-1.606 0-2.447-.794-2.537-.885-.268-.267-.268-.7 0-.967.266-.265.692-.267.961-.007.035.032.551.491 1.576.491 1.038 0 1.555-.473 1.576-.492.273-.256.703-.248.963.02.26.269.26.691-.004.955-.09.091-.93.885-2.535.885"/><path fill="#C1694F" d="M18.777 20.5h-1.69c-.233 0-.423-.19-.423-.423v-.153c0-.233.189-.424.423-.424h1.69c.233 0 .424.19.424.424v.153c0 .233-.19.423-.424.423"/></svg>
<rect x="100.0" y="132.0" width="36.0" height="36.0" fill="none" stroke="black" stroke-width="2" />
<text x="118.0" y="150.0" font-size="24" font-family="Comic Sans MS, Comic Sans, cursive" dominant-baseline="middle" fill="black" text-anchor="middle">3</text>
</g>
</g>
</g>
</svg>