<?xml version="1.0" encoding="UTF-8"?>
<svg xmlns="http://www.w3.org/2000/svg" xmlns:xlink="http://www.w3.org/1999/xlink"
     width="478.0" height="210" viewBox="0 0 478.0 210">
<defs>
</defs>
<g>
<g transform="translate(19.0, 10)">
<rect x="0" y="0" width="40" height="60" rx="4" ry="4" fill="white" stroke="black" stroke-width="1" />
<rect x="4" y="4" width="32" height="52" rx="2" ry="2" fill="#cc0000" stroke="none" />
<path d="M20.0,9 L31,30.0 L20.0,51 L9,30.0 Z" fill="#ff6666" />
</g>
<g transform="translate(69.0, 10)">
<rect x="0" y="0" width="40" height="60" rx="4" ry="4" fill="white" stroke="black" stroke-width="1" />
<rect x="4" y="4" width="32" height="52" rx="2" ry="2" fill="#cc0000" stroke="none" />
<path d="M20.0,9 L31,30.0 L20.0,51 L9,30.0 Z" fill="#ff6666" />
</g>
<g transform="translate(119.0, 10)">
<rect x="0" y="0" width="40" height="60" rx="4" ry="4" fill="white" stroke="black" stroke-width="1" />
<rect x="4" y="4" width="32" height="52" rx="2" ry="2" fill="#cc0000" stroke="none" />
<path d="M20.0,9 L31,30.0 L20.0,51 L9,30.0 Z" fill="#ff6666" />
</g>
<g transform="translate(169.0, 10)">
<rect x="0" y="0" width="40" height="60" rx="4" ry="4" fill="white" stroke="black" stroke-width="1" />
<rect x="4" y="4" width="32" height="52" rx="2" ry="2" fill="#cc0000" stroke="none" />
<path d="M20.0,9 L31,30.0 L20.0,51 L9,30.0 Z" fill="#ff6666" />
</g>
<g transform="translate(219.0, 10)">
<rect x="0" y="0" width="40" height="60" rx="4" ry="4" fill="white" stroke="black" stroke-width="1" />
<rect x="4" y="4" width="32" height="52" rx="2" ry="2" fill="#cc0000" stroke="none" />
<path d="M20.0,9 L31,30.0 L20.0,51 L9,30.0 Z" fill="#ff6666" />
</g>
<g transform="translate(269.0, 10)">
<rect x="0" y="0" width="40" height="60" rx="4" ry="4" fill="white" stroke="black" stroke-width="1" />
<rect x="4" y="4" width="32" height="52" rx="2" ry="2" fill="#cc0000" stroke="none" />
<path d="M20.0,9 L31,30.0 L20.0,51 L9,30.0 Z" fill="#ff6666" />
</g>
<g transform="translate(319.0, 10)">
<rect x="0" y="0" width="40" height="60" rx="4" ry="4" fill="white" stroke="black" stroke-width="1" />
<rect x="4" y="4" width="32" height="52" rx="2" ry="2" fill="#cc0000" stroke="none" />
<path d="M20.0,9 L31,30.0 L20.0,51 L9,30.0 Z" fill="#ff6666" />
</g>
<g transform="translate(369.0, 10)">
<rect x="0" y="0" width="40" height="60" rx="4" ry="4" fill="white" stroke="black" stroke-width="1" />
<rect x="4" y="4" width="32" height="52" rx="2" ry="2" fill="#cc0000" stroke="none" />
<path d="M20.0,9 L31,30.0 L20.0,51 L9,30.0 Z" fill="#ff6666" />
</g>
<g transform="translate(419.0, 10)">
<rect x="0" y="0" width="40" height="60" rx="4" ry="4" fill="white" stroke="black" stroke-width="1" />
<rect x="4" y="4" width="32" height="52" rx="2" ry="2" fill="#cc0000" stroke="none" />
<path d="M20.0,9 L31,30.0 L20.0,51 L9,30.0 Z" fill="#ff6666" />
</g>
<g transform="translate(10.0, 100)">
<g>
<svg x="10.0" y="10" width="80" height="80" viewBox="0 0 36 36" xmlns="http://www.w3.org/2000/svg"><path fill="#BF6952" d="M6.513.886c0 .984.649 3.926 1.153 5.047s-.505.35-1.442-.771-1.657-2.244-1.225-3.435S6.513-.446 6.513.886z"/><path fill="#D99E82" d="M.314 10.699c-.004.961 1.22 2.097 2.883 1.682 1.333-.332 3.234-1.359 3.316-.561.082.798-1.179 3.471-.629 6.276.93 4.74 2.379 8.873 7.201 10.095 0 0 .723 2.775 1.479 3.986.694 1.111 1.029 2.022.45 2.215-.579.193-3.472.386-4.694.579C9.099 35.164 8.906 36 10.256 36H17.2c.707 0 .643-.643.193-1.607s.805-2.643.598-5.332c.414.14 1.395.067 1.974.838.579.772 3.729 5.976 8.809 5.976s6.43-3.826 6.815-4.855c.386-1.029-.45-1.029-1.093-.193s-2.761 1.931-5.722 1.508c-3.151-.45-3.822-4.465-4.658-6.909-.836-2.443-2.74-6.968-7.044-9.487-3.177-1.859-5.483-1.31-5.363-3.356.178-3.033.325-5.21-1.099-6.892-1.15-1.357-3.851-1.264-5.418-.319-.697.42-1.117 1.595-1.778 2.103C1.428 8.998.317 9.848.314 10.699z"/><path fill="#D79E84" d="M6.042 22.625c-.259.531-.006 1.019-.158 1.355-.225.497-1.254.804-1.35-.032-.097-.836-.021-1.948.45-2.572.322-.427 3.279-2.797 3.408-2.893.129-.096-.354-2.893-.354-2.893s.096-1.125 1.447-.868c1.35.257 1.318 1.415 1.318 2.636s.225 2.443-.386 2.733-4.117 2.003-4.375 2.534z"/><path fill="#292F33" d="M6.657 7.405c0 .465-.387.841-.865.841s-.865-.377-.865-.841.387-.561.865-.561.865.096.865.561z"/><path fill="#D99E82" d="M9.973.255c.912-.665 1.009 1.963.793 2.804S8.891 6.073 8.891 6.073s-1.297.631-1.297-.911S9.108.886 9.973.255z"/><path fill="#BF6952" d="M10.062 2.09c.58.346-1.307 3.303-1.766 3.055-.459-.247.988-3.519 1.766-3.055z"/><path fill="#292F33" d="M.314 10.139c.869-.528 1.081.911.793 1.402-.289.49-1.37-1.052-.793-1.402z"/><path fill="#BF6952" d="M7.274 22.34c-.125 0-.244-.073-.297-.195-.071-.164.004-.354.168-.426 1.066-.464 1.99-1.182 2.367-1.533.15-.182.523-1.447.777-2.511.042-.174.219-.278.39-.24.174.042.281.216.24.39-.223.931-.645 2.536-.966 2.835-.546.508-1.546 1.216-2.55 1.652-.042.019-.086.028-.129.028z"/></svg>
<rect x="100.0" y="32.0" width="36.0" height="36.0" fill="none" stroke="black" stroke-width="2" />
</g>
</g>
<g transform="translate(166.0, 100)">
<g>
<svg x="10.0" y="10" width="80" height="80" viewBox="0 0 36 36" xmlns="http://www.w3.org/2000/svg"><path fill="#E26000" d="M36 32c0-12-2-28-18-28S0 20 0 32h8v-5c0-1 1-1 1 0 0 7 4 6 4 6l2 2 1-1c0-.552 1.448-1 2-1s2 .448 2 1l1 1 2-2s4 1 4-6c0-1 1-1 1 0v5h8z"/><circle fill="#E26000" cx="18" cy="13.5" r="11.5"/><path fill="#D9B981" d="M32 31c-3 0-4 1-4 1v1c0 .552.448 1 1 1s1-.448 1-1c0 .552.448 1 1 1s1-.448 1-1c0 .552.448 1 1 1s1-.448 1-1c0 .552.448 1 1 1s1-.448 1-1v-1s-1-1-4-1zM4 31c-3 0-4 1-4 1v1c0 .552.448 1 1 1s1-.448 1-1c0 .552.448 1 1 1s1-.448 1-1c0 .552.448 1 1 1s1-.448 1-1c0 .552.448 1 1 1s1-.448 1-1v-1s-1-1-4-1z"/><path fill="#C45400" d="M6.5 19.607C6.5 25.051 14.167 27 18 27s11.5-1.949 11.5-7.393c0-2.366-.974-4.536-2.595-6.235.023-.244.04-.491.04-.747C26.944 7.862 24.9 4 18 4s-8.944 3.862-8.944 8.625c0 .256.017.503.04.747C7.474 15.071 6.5 17.241 6.5 19.607z"/><path fill="#D9B981" d="M8 17.571C8 22.305 14.667 24 18 24s10-1.695 10-6.429c0-2.057-.847-3.944-2.257-5.422.02-.212.035-.427.035-.65C25.778 7.358 24 4 18 4s-7.778 3.358-7.778 7.5c0 .223.015.438.035.65C8.847 13.627 8 15.514 8 17.571z"/><circle fill="#292F33" cx="16" cy="11" r="1"/><circle fill="#292F33" cx="20" cy="11" r="1"/><path fill="#FFE8B6" d="M12.67 11.073c-.042 0-.084-.005-.127-.016-.267-.07-.427-.343-.357-.61.488-1.867 2.405-2.988 4.271-2.503.267.07.427.343.357.61-.07.267-.343.424-.61.357-1.332-.347-2.702.455-3.05 1.788-.059.225-.262.374-.484.374zm10.66 0c-.223 0-.425-.149-.483-.374-.169-.646-.579-1.188-1.155-1.525-.576-.339-1.249-.432-1.896-.262-.269.069-.54-.091-.609-.357-.07-.268.09-.541.357-.61.901-.236 1.846-.106 2.653.367.807.473 1.381 1.231 1.616 2.136.07.267-.09.54-.357.61-.042.009-.085.015-.126.015z"/><path fill="#C09154" d="M13 5l2 3 1-1 2 3 2-3 1 1 2-3s-2-1-5-1-5 1-5 1z"/><path fill="#E26000" d="M13 5l2 2 1-2 2 3 2-3 1 2 2-2s-2-2-5-2-5 2-5 2z"/><circle fill="#C09154" cx="17.5" cy="13.5" r=".5"/><circle fill="#C09154" cx="18.5" cy="13.5" r=".5"/><path fill="#292F33" d="M18 21c-3.665 0-5.286-1.579-5.354-1.646-.195-.195-.195-.512 0-.707.195-.194.51-.195.705-.002C13.365 18.658 14.783 20 18 20c3.218 0 4.635-1.342 4.648-1.356.197-.191.514-.189.706.006.193.195.193.509-.001.703C23.286 19.421 21.665 21 18 21z"/><path fill="#D9B981" d="M17.295 33c-.235 2.224-5 4-6 2-.247-.494-2.341-4.936-2.535-5.453-.194-.517.068-1.094.586-1.287s1.094.068 1.287.586c-.194-.517.068-1.094.586-1.287.517-.194 1.094.068 1.287.586-.194-.517.068-1.094.586-1.287.517-.194 1.094.068 1.287.586-.194-.517.068-1.094.586-1.287s1.094.068 1.287.586c.193.514 1.148 5.263 1.043 6.257zm1.41 0c.235 2.224 5 4 6 2 .247-.494 2.341-4.936 2.535-5.453.194-.517-.068-1.094-.586-1.287s-1.094.068-1.287.586c.194-.517-.068-1.094-.586-1.287-.517-.194-1.094.068-1.287.586.194-.517-.068-1.094-.586-1.287-.517-.194-1.094.068-1.287.586.194-.517-.068-1.094-.586-1.287s-1.094.068-1.287.586c-.193.514-1.148 5.263-1.043 6.257z"/></svg>
<rect x="100.0" y="32.0" width="36.0" height="36.0" fill="none" stroke="black" stroke-width="2" />
</g>
</g>
<g transform="translate(322.0, 100)">
<g>
<svg x="10.0" y="10" width="80" height="80" viewBox="0 0 36 36" xmlns="http://www.w3.org/2000/svg"><path fill="#99AAB5" d="M13 15.689c1.945-.886 7.032-.006 8.304-.048 3.861-.127 6.58-1.305 10.332 0C35.388 16.946 36 20.327 36 24c0 .816-.465-.9-1.008-1.662 0 0 .451 3.643-.854 6.253-.664 1.328-1.631 2.557-1.631 3.753-.001 1.197.493 1.78.493 2.656 0 .892-1 .98-2 .98-.926 0-3 .02-3-.98 0-1.423.385-2.394-.312-2.083-1.729.771-6.146.5-7.771-.167-.766-.314-.43 1.598-.428 1.932C19.499 35.795 19 36 17 36c-1.741 0-3-.012-3-1s.919-2.179.281-3.781C13 28 11 31 7.999 31 5.031 31 13 15.689 13 15.689z"/><path fill="#9AAAB4" d="M3.29 20s3.045-.326 3.915-1.305c.87-.979 2.556-3.535 5.275-3.535s3.045 1.577 4.024 2.066c.978.49 2.91 3.653 1.496 5.774s-6 8-10 8c-4.84 0-5.485-.764-6.281-1.375-.792-.607-1.051-2.042-.344-2.531 0 0-1.312-1-1.131-3.287.185-2.331.707-2.61.707-2.61s.109-.924.653-1.359C2.148 19.402 3.29 20 3.29 20z"/><path fill="#F5F8FA" d="M2.691 29.65c.629.132.992-.253.777-1.4-.657.047-1.663-.816-1.663-.816-.327 1.268.012 2.032.886 2.216z"/><path fill="#67757F" d="M4.601 28.918c-1.148 0-2.333-.432-3.327-1.279-.157-.135-.176-.371-.042-.528.135-.157.372-.177.529-.042 1.306 1.115 3.371 1.657 5.039.354.497-.388.958-1.104 1.446-1.861.912-1.416 1.945-3.033 3.602-2.862.207.02.357.203.337.409-.02.205-.205.353-.409.337-1.212-.127-2.066 1.226-2.9 2.522-.523.812-1.017 1.58-1.614 2.047-.774.604-1.705.903-2.661.903z"/><path fill="#66757F" d="M1.813 20.74c.611-.543 1.694.891 1.318 1.374-.535.687-2.308-.494-1.318-1.374z"/><circle fill="#292F33" cx="10" cy="18.5" r="1"/><path fill="#9AAAB4" d="M8.238 14.889c.095-1.09 1.794-.653 2.175.979s-.42 1.168-.653.598c-.489-1.197-1.631-.327-1.522-1.577zm4.062.598c.258-.84 1.142-1.958 2.338-2.066 1.196-.109 1.523.979 1.088 1.468-.435.489-.979.163-1.305.109s-1.088.489-1.414.979c-.326.489-.924.217-.707-.49z"/></svg>
<rect x="100.0" y="32.0" width="36.0" height="36.0" fill="none" stroke="black" stroke-width="2" />
</g>
</g>
</g>
</svg>