<?xml version="1.0" encoding="UTF-8"?>
<svg xmlns="http://www.w3.org/2000/svg" xmlns:xlink="http://www.w3.org/1999/xlink"
     width="670.0" height="340.0" viewBox="0 0 670.0 340.0">
<defs>
</defs>
<rect x="0" y="0" width="220" height="340" fill="#8B4513" rx="10" ry="10" />
<rect x="20" y="20" width="180" height="300" fill="white" rx="5" ry="5" />
<rect x="20" y="100" width="180" height="20" fill="#5D4037" />
<path d="M170.0,20 L170.0,320" stroke="black" stroke-width="4" />
<circle cx="170.0" cy="40" r="20" fill="#d32f2f" stroke="black" />
<circle cx="170.0" cy="140" r="20" fill="#d32f2f" stroke="black" />
<circle cx="170.0" cy="180" r="20" fill="#d32f2f" stroke="black" />
<circle cx="170.0" cy="220" r="20" fill="#d32f2f" stroke="black" />
<circle cx="170.0" cy="300" r="20" fill="#d32f2f" stroke="black" />
<path d="M110.0,20 L110.0,320" stroke="black" stroke-width="4" />
<circle cx="110.0" cy="40" r="20" fill="#d32f2f" stroke="black" />
<circle cx="110.0" cy="140" r="20" fill="#d32f2f" stroke="black" />
<circle cx="110.0" cy="180" r="20" fill="#d32f2f" stroke="black" />
<circle cx="110.0" cy="300" r="20" fill="#d32f2f" stroke="black" />
<circle cx="110.0" cy="260" r="20" fill="#d32f2f" stroke="black" />
<path d="M50.0,20 L50.0,320" stroke="black" stroke-width="4" />
<circle cx="50.0" cy="40" r="20" fill="#d32f2f" stroke="black" />
<circle cx="50.0" cy="140" r="20" fill="#d32f2f" stroke="black" />
<circle cx="50.0" cy="300" r="20" fill="#d32f2f" stroke="black" />
<circle cx="50.0" cy="260" r="20" fill="#d32f2f" stroke="black" />
<circle cx="50.0" cy="220" r="20" fill="#d32f2f" stroke="black" />
<rect x="235.0" y="140.0" width="60" height="60" fill="white" stroke="black" stroke-width="2" />
<text x="265.0" y="170.0" font-size="30" font-family="Chalkboard SE" fill="black" text-anchor="middle" dominant-baseline="middle">100</text>
<text x="310.0" y="170.0" font-size="30" font-family="Chalkboard SE" fill="black" text-anchor="middle" dominant-baseline="middle">+</text>
<rect x="325.0" y="140.0" width="60" height="60" fill="white" stroke="black" stroke-width="2" />
<text x="355.0" y="170.0" font-size="30" font-family="Chalkboard SE" fill="black" text-anchor="middle" dominant-baseline="middle">20</text>
<text x="400.0" y="170.0" font-size="30" font-family="Chalkboard SE" fill="black" text-anchor="middle" dominant-baseline="middle">+</text>
<rect x="415.0" y="140.0" width="60" height="60" fill="white" stroke="black" stroke-width="2" />
<text x="445.0" y="170.0" font-size="30" font-family="Chalkboard SE" fill="black" text-anchor="middle" dominant-baseline="middle">3</text>
<text x="490.0" y="170.0" font-size="30" font-family="Chalkboard SE" fill="black" text-anchor="middle" dominant-baseline="middle">=</text>
<rect x="505.0" y="140.0" width="60" height="60" fill="white" stroke="black" stroke-width="2" />
<text x="535.0" y="170.0" font-size="30" font-family="Chalkboard SE" fill="black" text-anchor="middle" dominant-baseline="middle">123</text>
</svg>