<?xml version="1.0" encoding="UTF-8" standalone="no"?>
<!-- Created with Inkscape (http://www.inkscape.org/) -->

<svg
   version="1.1"
   id="svg1"
   width="154.70132"
   height="212.54533"
   viewBox="0 0 154.70132 212.54533"
   xmlns="http://www.w3.org/2000/svg"
   xmlns:svg="http://www.w3.org/2000/svg">
  <defs
     id="defs1" />
  <g
     id="g1">
    <path
       id="path1"
       d="m 6.4211641,-4.5949844 c 0,-1.1835937 -0.070312,-2.34375 -0.5859375,-3.4335937 -0.5859375,-1.1953125 -1.6171875,-1.5117188 -2.3203125,-1.5117188 -0.8320313,0 -1.8515625,0.421875 -2.3789063,1.6054688 -0.41015624,0.9023437 -0.55078124,1.7929687 -0.55078124,3.3398437 0,1.3945313 0.10546875,2.4375 0.62109374,3.4570313 0.5625,1.08984373 1.546875,1.44140623 2.296875,1.44140623 1.2421875,0 1.9570313,-0.75 2.3789063,-1.58203123 0.515625,-1.078125 0.5390625,-2.484375 0.5390625,-3.3164063 z M 3.5031953,0.01048438 c -0.46875,0 -1.3945312,-0.2578125 -1.6640625,-1.81640628 -0.1640625,-0.8671875 -0.1640625,-1.9570312 -0.1640625,-2.953125 0,-1.1835937 0,-2.2382812 0.234375,-3.09375 0.2460938,-0.9609375 0.9726563,-1.3945312 1.59375,-1.3945312 0.5390625,0 1.3710938,0.328125 1.640625,1.5585937 0.1875,0.8203125 0.1875,1.9453125 0.1875,2.9296875 0,0.9609375 0,2.0507813 -0.1523437,2.9179688 -0.2695313,1.58203123 -1.1835938,1.85156248 -1.6757813,1.85156248 z m 0,0"
       style="fill:#000000;fill-opacity:1;fill-rule:nonzero;stroke:none"
       aria-label="0"
       transform="matrix(1.3333333,0,0,1.3333333,9.7626667,21.181333)" />
    <path
       id="path2"
       d="m 4.1360078,-9.2002891 c 0,-0.328125 0,-0.3398437 -0.2929687,-0.3398437 -0.3398438,0.3867187 -1.0664063,0.9140625 -2.5429688,0.9140625 v 0.421875 c 0.3398438,0 1.0546875,0 1.8398438,-0.375 v 7.4765625 c 0,0.51562499 -0.046875,0.69140624 -1.3007813,0.69140624 H 1.3938203 v 0.41015625 c 0.3867188,-0.0234375 1.78125,-0.0234375 2.25,-0.0234375 0.46875,0 1.8515625,0 2.2382813,0.0234375 V -0.41122656 H 5.4367891 c -1.265625,0 -1.3007813,-0.17578125 -1.3007813,-0.69140624 z m 0,0"
       style="fill:#000000;fill-opacity:1;fill-rule:nonzero;stroke:none"
       aria-label="1"
       transform="matrix(1.3333333,0,0,1.3333333,9.7626667,49.005333)" />
    <path
       id="path3"
       d="m 9.6797969,-4.6534141 c 0.1992187,0 0.4570311,0 0.4570311,-0.2578125 0,-0.2695312 -0.2343749,-0.2695312 -0.4570311,-0.2695312 H 1.2305781 c -0.1992187,0 -0.45703122,0 -0.45703122,0.2578125 0,0.2695312 0.24609372,0.2695312 0.45703122,0.2695312 z m 0,2.671875 c 0.1992187,0 0.4570311,0 0.4570311,-0.2578125 0,-0.2695312 -0.2343749,-0.2695312 -0.4570311,-0.2695312 H 1.2305781 c -0.1992187,0 -0.45703122,0 -0.45703122,0.2578125 0,0.2695312 0.24609372,0.2695312 0.45703122,0.2695312 z m 0,0"
       style="fill:#000000;fill-opacity:1;fill-rule:nonzero;stroke:none"
       aria-label="="
       transform="matrix(1.3333333,0,0,1.3333333,30.882667,49.005333)" />
    <path
       id="path4"
       d="m 6.4205391,-4.5948203 c 0,-1.1835938 -0.070312,-2.34375 -0.5859375,-3.4335938 -0.5859375,-1.1953125 -1.6171875,-1.5117187 -2.3203125,-1.5117187 -0.8320313,0 -1.8515625,0.421875 -2.3789063,1.6054687 -0.41015624,0.9023438 -0.55078124,1.7929688 -0.55078124,3.3398438 0,1.3945312 0.10546875,2.4375 0.62109374,3.4570312 0.5625,1.08984379 1.546875,1.44140629 2.296875,1.44140629 1.2421875,0 1.9570313,-0.75 2.3789063,-1.58203129 0.515625,-1.078125 0.5390625,-2.484375 0.5390625,-3.3164062 z M 3.5025703,0.01064844 c -0.46875,0 -1.3945312,-0.2578125 -1.6640625,-1.81640624 -0.1640625,-0.8671875 -0.1640625,-1.9570313 -0.1640625,-2.953125 0,-1.1835938 0,-2.2382813 0.234375,-3.09375 0.2460938,-0.9609375 0.9726563,-1.3945313 1.59375,-1.3945313 0.5390625,0 1.3710938,0.328125 1.640625,1.5585938 0.1875,0.8203125 0.1875,1.9453125 0.1875,2.9296875 0,0.9609375 0,2.0507812 -0.1523437,2.9179687 -0.2695313,1.58203129 -1.1835938,1.85156254 -1.6757813,1.85156254 z m 0,0"
       style="fill:#ff0000;fill-opacity:1;fill-rule:nonzero;stroke:none"
       aria-label="0"
       transform="matrix(1.3333333,0,0,1.3333333,73.576,49.005333)" />
    <path
       id="path5"
       d="m 5.7175547,-3.3174766 h 3.9609375 c 0.1992187,0 0.4570308,0 0.4570308,-0.2578125 0,-0.2695312 -0.2343746,-0.2695312 -0.4570308,-0.2695312 H 5.7175547 v -3.9609375 c 0,-0.1992188 0,-0.4570313 -0.2578125,-0.4570313 -0.2695313,0 -0.2695313,0.2460938 -0.2695313,0.4570313 v 3.9609375 H 1.2292734 c -0.1992187,0 -0.45703121,0 -0.45703121,0.2578125 0,0.2695312 0.24609371,0.2695312 0.45703121,0.2695312 h 3.9609375 v 3.96093754 c 0,0.19921875 0,0.45703126 0.2578125,0.45703126 0.2695313,0 0.2695313,-0.24609376 0.2695313,-0.45703126 z m 0,0"
       style="fill:#000000;fill-opacity:1;fill-rule:nonzero;stroke:none"
       aria-label="+"
       transform="matrix(1.3333333,0,0,1.3333333,111.068,49.005333)" />
    <path
       id="path6"
       d="m 4.138,-9.2002891 c 0,-0.328125 0,-0.3398437 -0.2929687,-0.3398437 -0.3398438,0.3867187 -1.0664063,0.9140625 -2.5429688,0.9140625 v 0.421875 c 0.3398438,0 1.0546875,0 1.8398438,-0.375 v 7.4765625 c 0,0.51562499 -0.046875,0.69140624 -1.3007813,0.69140624 H 1.3958125 v 0.41015625 c 0.3867188,-0.0234375 1.78125,-0.0234375 2.25,-0.0234375 0.46875,0 1.8515625,0 2.2382813,0.0234375 V -0.41122656 H 5.4387813 C 4.1731563,-0.41122656 4.138,-0.58700781 4.138,-1.1026328 Z m 0,0"
       style="fill:#0000ff;fill-opacity:1;fill-rule:nonzero;stroke:none"
       aria-label="1"
       transform="matrix(1.3333333,0,0,1.3333333,136.48267,49.005333)" />
    <path
       id="path7"
       d="M 6.3156953,-2.4142656 H 5.9992891 c -0.046875,0.2460937 -0.1640625,1.03125 -0.3046875,1.265625 -0.1054688,0.1289062 -0.9140625,0.1289062 -1.3476563,0.1289062 H 1.6867891 c 0.3867187,-0.328125 1.265625,-1.2421875 1.640625,-1.59375 2.1796875,-2.0039062 2.9882812,-2.7539062 2.9882812,-4.171875 0,-1.6523437 -1.3125,-2.7539062 -2.9765625,-2.7539062 -1.6640625,0 -2.63671874,1.4179687 -2.63671874,2.6484375 0,0.7382812 0.63281254,0.7382812 0.67968754,0.7382812 0.2929687,0 0.6679687,-0.2109375 0.6679687,-0.6796875 0,-0.3984375 -0.2695312,-0.6679687 -0.6679687,-0.6679687 -0.140625,0 -0.1640625,0 -0.2109375,0.011719 0.28125,-0.9726562 1.0546875,-1.6289062 1.9804687,-1.6289062 1.21875,0 1.96875,1.0078125 1.96875,2.3320312 0,1.21875 -0.703125,2.2851563 -1.5234375,3.1992188 L 0.70241406,-0.34004687 V -2.03125e-4 H 5.9406953 Z m 0,0"
       style="fill:#000000;fill-opacity:1;fill-rule:nonzero;stroke:none"
       aria-label="2"
       transform="matrix(1.3333333,0,0,1.3333333,9.7626667,78.289333)" />
    <path
       id="path8"
       d="m 9.6797969,-4.6525469 c 0.1992187,0 0.4570311,0 0.4570311,-0.2578125 0,-0.2695312 -0.2343749,-0.2695312 -0.4570311,-0.2695312 H 1.2305781 c -0.1992187,0 -0.45703122,0 -0.45703122,0.2578125 0,0.2695312 0.24609372,0.2695312 0.45703122,0.2695312 z m 0,2.671875 c 0.1992187,0 0.4570311,0 0.4570311,-0.2578125 0,-0.2695312 -0.2343749,-0.2695312 -0.4570311,-0.2695312 H 1.2305781 c -0.1992187,0 -0.45703122,0 -0.45703122,0.2578125 0,0.2695312 0.24609372,0.2695312 0.45703122,0.2695312 z m 0,0"
       style="fill:#000000;fill-opacity:1;fill-rule:nonzero;stroke:none"
       aria-label="="
       transform="matrix(1.3333333,0,0,1.3333333,30.882667,78.289333)" />
    <path
       id="path9"
       d="m 4.1353828,-9.1994219 c 0,-0.328125 0,-0.3398437 -0.2929687,-0.3398437 -0.3398438,0.3867187 -1.0664063,0.9140625 -2.5429688,0.9140625 v 0.421875 c 0.3398438,0 1.0546875,0 1.8398438,-0.375 v 7.4765625 c 0,0.51562498 -0.046875,0.69140623 -1.3007813,0.69140623 H 1.3931953 v 0.410156245 c 0.3867188,-0.023437495 1.78125,-0.023437495 2.25,-0.023437495 0.46875,0 1.8515625,0 2.2382813,0.023437495 V -0.41035937 H 5.4361641 c -1.265625,0 -1.3007813,-0.17578125 -1.3007813,-0.69140623 z m 0,0"
       style="fill:#ff0000;fill-opacity:1;fill-rule:nonzero;stroke:none"
       aria-label="1"
       transform="matrix(1.3333333,0,0,1.3333333,73.576,78.289333)" />
    <path
       id="path10"
       d="m 5.7175547,-3.3166094 h 3.9609375 c 0.1992187,0 0.4570308,0 0.4570308,-0.2578125 0,-0.2695312 -0.2343746,-0.2695312 -0.4570308,-0.2695312 H 5.7175547 v -3.9609375 c 0,-0.1992188 0,-0.4570313 -0.2578125,-0.4570313 -0.2695313,0 -0.2695313,0.2460938 -0.2695313,0.4570313 v 3.9609375 H 1.2292734 c -0.1992187,0 -0.45703121,0 -0.45703121,0.2578125 0,0.2695312 0.24609371,0.2695312 0.45703121,0.2695312 h 3.9609375 v 3.96093753 c 0,0.19921875 0,0.45703127 0.2578125,0.45703127 0.2695313,0 0.2695313,-0.24609377 0.2695313,-0.45703127 z m 0,0"
       style="fill:#000000;fill-opacity:1;fill-rule:nonzero;stroke:none"
       aria-label="+"
       transform="matrix(1.3333333,0,0,1.3333333,111.068,78.289333)" />
    <path
       id="path11"
       d="m 4.138,-9.1994219 c 0,-0.328125 0,-0.3398437 -0.2929687,-0.3398437 -0.3398438,0.3867187 -1.0664063,0.9140625 -2.5429688,0.9140625 v 0.421875 c 0.3398438,0 1.0546875,0 1.8398438,-0.375 v 7.4765625 c 0,0.51562498 -0.046875,0.69140623 -1.3007813,0.69140623 H 1.3958125 v 0.410156245 c 0.3867188,-0.023437495 1.78125,-0.023437495 2.25,-0.023437495 0.46875,0 1.8515625,0 2.2382813,0.023437495 V -0.41035937 H 5.4387813 C 4.1731563,-0.41035937 4.138,-0.58614062 4.138,-1.1017656 Z m 0,0"
       style="fill:#0000ff;fill-opacity:1;fill-rule:nonzero;stroke:none"
       aria-label="1"
       transform="matrix(1.3333333,0,0,1.3333333,136.48267,78.289333)" />
    <path
       id="path12"
       d="m 2.6360078,-5.1448672 c -0.2460937,0.011719 -0.2929687,0.023437 -0.2929687,0.1523438 0,0.140625 0.070312,0.140625 0.328125,0.140625 h 0.65625 c 1.21875,0 1.7695312,1.0078125 1.7695312,2.3789062 0,1.88671876 -0.984375,2.39062501 -1.6875,2.39062501 -0.6796875,0 -1.8632812,-0.328125 -2.2734375,-1.27734371 0.4570313,0.070312 0.8671875,-0.1875 0.8671875,-0.703125 0,-0.421875 -0.2929687,-0.703125 -0.703125,-0.703125 -0.33984374,0 -0.71484374,0.1992187 -0.71484374,0.7382812 0,1.27734376 1.27734374,2.33203126 2.87109374,2.33203126 1.7109375,0 2.9648438,-1.31249996 2.9648438,-2.75390626 0,-1.3242187 -1.0546875,-2.3554687 -2.4375,-2.6015625 1.2539062,-0.3515625 2.0507812,-1.40625 2.0507812,-2.5195312 0,-1.1367188 -1.171875,-1.96875 -2.5664062,-1.96875 -1.4296875,0 -2.49609379,0.8789062 -2.49609379,1.921875 0,0.5742187 0.44531249,0.6914062 0.66796879,0.6914062 0.2929687,0 0.6445312,-0.2226562 0.6445312,-0.6445312 0,-0.4570313 -0.3515625,-0.6679688 -0.6679687,-0.6679688 -0.082031,0 -0.1054688,0 -0.1523438,0.023437 0.5390625,-0.984375 1.8867188,-0.984375 1.96875,-0.984375 0.46875,0 1.3945313,0.2226563 1.3945313,1.6289063 0,0.2695312 -0.035156,1.078125 -0.4570313,1.6875 -0.421875,0.6328125 -0.9140625,0.6796875 -1.3007812,0.6914062 z m 0,0"
       style="fill:#000000;fill-opacity:1;fill-rule:nonzero;stroke:none"
       aria-label="3"
       transform="matrix(1.3333333,0,0,1.3333333,9.7626667,107.57467)" />
    <path
       id="path13"
       d="m 9.6797969,-4.6526797 c 0.1992187,0 0.4570311,0 0.4570311,-0.2578125 0,-0.2695312 -0.2343749,-0.2695312 -0.4570311,-0.2695312 H 1.2305781 c -0.1992187,0 -0.45703122,0 -0.45703122,0.2578125 0,0.2695312 0.24609372,0.2695312 0.45703122,0.2695312 z m 0,2.671875 c 0.1992187,0 0.4570311,0 0.4570311,-0.2578125 0,-0.2695312 -0.2343749,-0.2695312 -0.4570311,-0.2695312 H 1.2305781 c -0.1992187,0 -0.45703122,0 -0.45703122,0.2578125 0,0.2695312 0.24609372,0.2695312 0.45703122,0.2695312 z m 0,0"
       style="fill:#000000;fill-opacity:1;fill-rule:nonzero;stroke:none"
       aria-label="="
       transform="matrix(1.3333333,0,0,1.3333333,30.882667,107.57467)" />
    <path
       id="path14"
       d="M 6.3150703,-2.4143984 H 5.9986641 c -0.046875,0.2460937 -0.1640625,1.03125 -0.3046875,1.265625 -0.1054688,0.1289062 -0.9140625,0.1289062 -1.3476563,0.1289062 H 1.6861641 c 0.3867187,-0.328125 1.265625,-1.2421875 1.640625,-1.59375 2.1796875,-2.0039062 2.9882812,-2.7539062 2.9882812,-4.171875 0,-1.6523437 -1.3125,-2.7539062 -2.9765625,-2.7539062 -1.6640625,0 -2.63671874,1.4179687 -2.63671874,2.6484375 0,0.7382812 0.63281254,0.7382812 0.67968754,0.7382812 0.2929687,0 0.6679687,-0.2109375 0.6679687,-0.6796875 0,-0.3984375 -0.2695312,-0.6679687 -0.6679687,-0.6679687 -0.140625,0 -0.1640625,0 -0.2109375,0.011719 0.28125,-0.9726562 1.0546875,-1.6289062 1.9804687,-1.6289062 1.21875,0 1.96875,1.0078125 1.96875,2.3320312 0,1.21875 -0.703125,2.2851563 -1.5234375,3.1992188 L 0.70178906,-0.34017969 V -3.359375e-4 H 5.9400703 Z m 0,0"
       style="fill:#ff0000;fill-opacity:1;fill-rule:nonzero;stroke:none"
       aria-label="2"
       transform="matrix(1.3333333,0,0,1.3333333,73.576,107.57467)" />
    <path
       id="path15"
       d="m 5.7175547,-3.3167422 h 3.9609375 c 0.1992187,0 0.4570308,0 0.4570308,-0.2578125 0,-0.2695312 -0.2343746,-0.2695312 -0.4570308,-0.2695312 H 5.7175547 v -3.9609375 c 0,-0.1992188 0,-0.4570313 -0.2578125,-0.4570313 -0.2695313,0 -0.2695313,0.2460938 -0.2695313,0.4570313 v 3.9609375 H 1.2292734 c -0.1992187,0 -0.45703121,0 -0.45703121,0.2578125 0,0.2695312 0.24609371,0.2695312 0.45703121,0.2695312 h 3.9609375 v 3.96093751 c 0,0.19921875 0,0.45703129 0.2578125,0.45703129 0.2695313,0 0.2695313,-0.24609379 0.2695313,-0.45703129 z m 0,0"
       style="fill:#000000;fill-opacity:1;fill-rule:nonzero;stroke:none"
       aria-label="+"
       transform="matrix(1.3333333,0,0,1.3333333,111.068,107.57467)" />
    <path
       id="path16"
       d="m 4.138,-9.1995547 c 0,-0.328125 0,-0.3398437 -0.2929687,-0.3398437 -0.3398438,0.3867187 -1.0664063,0.9140625 -2.5429688,0.9140625 v 0.421875 c 0.3398438,0 1.0546875,0 1.8398438,-0.375 v 7.4765625 c 0,0.51562496 -0.046875,0.69140621 -1.3007813,0.69140621 H 1.3958125 v 0.4101562525 c 0.3867188,-0.0234375025 1.78125,-0.0234375025 2.25,-0.0234375025 0.46875,0 1.8515625,0 2.2382813,0.0234375025 V -0.41049219 H 5.4387813 C 4.1731563,-0.41049219 4.138,-0.58627344 4.138,-1.1018984 Z m 0,0"
       style="fill:#0000ff;fill-opacity:1;fill-rule:nonzero;stroke:none"
       aria-label="1"
       transform="matrix(1.3333333,0,0,1.3333333,136.48267,107.57467)" />
    <path
       id="path17"
       d="m 5.1789766,-9.3393125 c 0,-0.2695312 0,-0.3398437 -0.1992188,-0.3398437 -0.1171875,0 -0.1640625,0 -0.28125,0.1640625 l -4.31249999,6.703125 v 0.421875 H 4.1594453 v 1.3007812 c 0,0.52734375 -0.023437,0.6796875 -1.078125,0.6796875 h -0.28125 V 5.3125e-4 c 0.328125,-0.0234375 1.4648438,-0.0234375 1.8632813,-0.0234375 0.3984375,0 1.546875,0 1.875,0.0234375 V -0.409625 h -0.28125 c -1.03125,0 -1.078125,-0.15234375 -1.078125,-0.6796875 v -1.3007812 h 1.4414062 v -0.421875 H 5.1789766 Z m -0.9492188,1.125 v 5.4023438 H 0.74928906 Z m 0,0"
       style="fill:#000000;fill-opacity:1;fill-rule:nonzero;stroke:none"
       aria-label="4"
       transform="matrix(1.3333333,0,0,1.3333333,9.7626667,136.85867)" />
    <path
       id="path18"
       d="m 9.6797969,-4.6518125 c 0.1992187,0 0.4570311,0 0.4570311,-0.2578125 0,-0.2695312 -0.2343749,-0.2695312 -0.4570311,-0.2695312 H 1.2305781 c -0.1992187,0 -0.45703123,0 -0.45703123,0.2578125 0,0.2695312 0.24609373,0.2695312 0.45703123,0.2695312 z m 0,2.671875 c 0.1992187,0 0.4570311,0 0.4570311,-0.2578125 0,-0.2695312 -0.2343749,-0.2695312 -0.4570311,-0.2695312 H 1.2305781 c -0.1992187,0 -0.45703123,0 -0.45703123,0.2578125 0,0.2695312 0.24609373,0.2695312 0.45703123,0.2695312 z m 0,0"
       style="fill:#000000;fill-opacity:1;fill-rule:nonzero;stroke:none"
       aria-label="="
       transform="matrix(1.3333333,0,0,1.3333333,30.882667,136.85867)" />
    <path
       id="path19"
       d="m 2.6353828,-5.144 c -0.2460937,0.011719 -0.2929687,0.023437 -0.2929687,0.1523438 0,0.140625 0.070312,0.140625 0.328125,0.140625 h 0.65625 c 1.21875,0 1.7695312,1.0078125 1.7695312,2.3789062 0,1.88671875 -0.984375,2.390625 -1.6875,2.390625 -0.6796875,0 -1.8632812,-0.328125 -2.2734375,-1.2773437 0.4570313,0.070312 0.8671875,-0.1875 0.8671875,-0.703125 0,-0.421875 -0.2929687,-0.703125 -0.703125,-0.703125 -0.33984374,0 -0.71484374,0.1992187 -0.71484374,0.7382812 0,1.27734375 1.27734374,2.33203125 2.87109374,2.33203125 1.7109375,0 2.9648438,-1.31249995 2.9648438,-2.75390625 0,-1.3242187 -1.0546875,-2.3554687 -2.4375,-2.6015625 1.2539062,-0.3515625 2.0507812,-1.40625 2.0507812,-2.5195312 0,-1.1367188 -1.171875,-1.96875 -2.5664062,-1.96875 -1.4296875,0 -2.49609379,0.8789062 -2.49609379,1.921875 0,0.5742187 0.44531249,0.6914062 0.66796879,0.6914062 0.2929687,0 0.6445312,-0.2226562 0.6445312,-0.6445312 0,-0.4570313 -0.3515625,-0.6679688 -0.6679687,-0.6679688 -0.082031,0 -0.1054688,0 -0.1523438,0.023437 0.5390625,-0.984375 1.8867188,-0.984375 1.96875,-0.984375 0.46875,0 1.3945313,0.2226563 1.3945313,1.6289063 0,0.2695312 -0.035156,1.078125 -0.4570313,1.6875 -0.421875,0.6328125 -0.9140625,0.6796875 -1.3007812,0.6914062 z m 0,0"
       style="fill:#ff0000;fill-opacity:1;fill-rule:nonzero;stroke:none"
       aria-label="3"
       transform="matrix(1.3333333,0,0,1.3333333,73.576,136.85867)" />
    <path
       id="path20"
       d="m 5.7175547,-3.315875 h 3.9609375 c 0.1992187,0 0.4570308,0 0.4570308,-0.2578125 0,-0.2695312 -0.2343746,-0.2695312 -0.4570308,-0.2695312 H 5.7175547 v -3.9609375 c 0,-0.1992188 0,-0.4570313 -0.2578125,-0.4570313 -0.2695313,0 -0.2695313,0.2460938 -0.2695313,0.4570313 v 3.9609375 H 1.2292734 c -0.1992187,0 -0.45703121,0 -0.45703121,0.2578125 0,0.2695312 0.24609371,0.2695312 0.45703121,0.2695312 h 3.9609375 v 3.9609375 c 0,0.19921875 0,0.4570313 0.2578125,0.4570313 0.2695313,0 0.2695313,-0.2460938 0.2695313,-0.4570313 z m 0,0"
       style="fill:#000000;fill-opacity:1;fill-rule:nonzero;stroke:none"
       aria-label="+"
       transform="matrix(1.3333333,0,0,1.3333333,111.068,136.85867)" />
    <path
       id="path21"
       d="m 4.138,-9.1986875 c 0,-0.328125 0,-0.3398437 -0.2929687,-0.3398437 -0.3398438,0.3867187 -1.0664063,0.9140625 -2.5429688,0.9140625 v 0.421875 c 0.3398438,0 1.0546875,0 1.8398438,-0.375 v 7.4765625 c 0,0.51562495 -0.046875,0.6914062 -1.3007813,0.6914062 H 1.3958125 V 5.3125e-4 c 0.3867188,-0.0234375 1.78125,-0.0234375 2.25,-0.0234375 0.46875,0 1.8515625,0 2.2382813,0.0234375 V -0.409625 H 5.4387813 C 4.1731563,-0.409625 4.138,-0.58540625 4.138,-1.1010312 Z m 0,0"
       style="fill:#0000ff;fill-opacity:1;fill-rule:nonzero;stroke:none"
       aria-label="1"
       transform="matrix(1.3333333,0,0,1.3333333,136.48267,136.85867)" />
    <path
       id="path22"
       d="m 2.6365312,-0.70179687 c 0,-0.38671873 -0.328125,-0.69140623 -0.6914062,-0.69140623 -0.4101563,0 -0.703125,0.328125 -0.703125,0.69140623 0,0.43359375 0.3632812,0.703125 0.6914062,0.703125 0.3867188,0 0.703125,-0.3046875 0.703125,-0.703125 z m 0,3.98437497 c 0,-0.3867187 -0.328125,-0.6914062 -0.6914062,-0.6914062 -0.4101563,0 -0.703125,0.328125 -0.703125,0.6914062 0,0.4335938 0.3632812,0.703125 0.6914062,0.703125 0.3867188,0 0.703125,-0.3046875 0.703125,-0.703125 z m 0,3.984375 c 0,-0.3867187 -0.328125,-0.6914062 -0.6914062,-0.6914062 -0.4101563,0 -0.703125,0.328125 -0.703125,0.6914062 0,0.4335938 0.3632812,0.703125 0.6914062,0.703125 0.3867188,0 0.703125,-0.3046875 0.703125,-0.703125 z m 0,0"
       style="fill:#000000;fill-opacity:1;fill-rule:nonzero;stroke:none"
       aria-label=".&#10;.&#10;."
       transform="matrix(1.3333333,0,0,1.3333333,11.844,163.64667)" />
    <path
       id="path23"
       d="m 2.6359062,-0.70179687 c 0,-0.38671873 -0.328125,-0.69140623 -0.6914062,-0.69140623 -0.4101563,0 -0.703125,0.328125 -0.703125,0.69140623 0,0.43359375 0.3632812,0.703125 0.6914062,0.703125 0.3867188,0 0.703125,-0.3046875 0.703125,-0.703125 z m 0,3.98437497 c 0,-0.3867187 -0.328125,-0.6914062 -0.6914062,-0.6914062 -0.4101563,0 -0.703125,0.328125 -0.703125,0.6914062 0,0.4335938 0.3632812,0.703125 0.6914062,0.703125 0.3867188,0 0.703125,-0.3046875 0.703125,-0.703125 z m 0,3.984375 c 0,-0.3867187 -0.328125,-0.6914062 -0.6914062,-0.6914062 -0.4101563,0 -0.703125,0.328125 -0.703125,0.6914062 0,0.4335938 0.3632812,0.703125 0.6914062,0.703125 0.3867188,0 0.703125,-0.3046875 0.703125,-0.703125 z m 0,0"
       style="fill:#000000;fill-opacity:1;fill-rule:nonzero;stroke:none"
       aria-label=".&#10;.&#10;."
       transform="matrix(1.3333333,0,0,1.3333333,75.657333,163.64667)" />
    <path
       id="path24"
       d="m 2.6355937,-0.70179687 c 0,-0.38671873 -0.328125,-0.69140623 -0.6914062,-0.69140623 -0.4101563,0 -0.703125,0.328125 -0.703125,0.69140623 0,0.43359375 0.3632812,0.703125 0.6914062,0.703125 0.3867188,0 0.703125,-0.3046875 0.703125,-0.703125 z m 0,3.98437497 c 0,-0.3867187 -0.328125,-0.6914062 -0.6914062,-0.6914062 -0.4101563,0 -0.703125,0.328125 -0.703125,0.6914062 0,0.4335938 0.3632812,0.703125 0.6914062,0.703125 0.3867188,0 0.703125,-0.3046875 0.703125,-0.703125 z m 0,3.984375 c 0,-0.3867187 -0.328125,-0.6914062 -0.6914062,-0.6914062 -0.4101563,0 -0.703125,0.328125 -0.703125,0.6914062 0,0.4335938 0.3632812,0.703125 0.6914062,0.703125 0.3867188,0 0.703125,-0.3046875 0.703125,-0.703125 z m 0,0"
       style="fill:#000000;fill-opacity:1;fill-rule:nonzero;stroke:none"
       aria-label=".&#10;.&#10;."
       transform="matrix(1.3333333,0,0,1.3333333,138.564,163.64667)" />
    <path
       id="path25"
       d="m 2.9537266,-4.2057891 c 0.035156,-0.082031 0.3867187,-0.796875 0.9140625,-1.2539062 0.375,-0.3515625 0.8671875,-0.5742188 1.4296875,-0.5742188 0.5742187,0 0.7734375,0.421875 0.7734375,0.9960938 0,0.8203125 -0.5859375,2.4609375 -0.8789063,3.234375 -0.1289062,0.3398437 -0.1992187,0.5273437 -0.1992187,0.7851562 0,0.64453129 0.4453125,1.16015629 1.1367187,1.16015629 1.3242188,0 1.828125,-2.10937499 1.828125,-2.19140629 0,-0.070312 -0.058594,-0.1289062 -0.140625,-0.1289062 -0.1289062,0 -0.140625,0.046875 -0.2109375,0.28125 -0.328125,1.18359374 -0.8789062,1.75781249 -1.4414062,1.75781249 -0.140625,0 -0.375,-0.0117188 -0.375,-0.48046875 0,-0.3515625 0.1640625,-0.78515624 0.2460937,-0.98437504 0.2929688,-0.7851562 0.890625,-2.390625 0.890625,-3.2109375 0,-0.8671875 -0.5039062,-1.5117187 -1.59375,-1.5117187 -1.2773437,0 -1.9453125,0.9023437 -2.203125,1.265625 -0.046875,-0.8203125 -0.6328125,-1.265625 -1.265625,-1.265625 -0.4570312,0 -0.7734375,0.2695312 -1.01953124,0.7617187 -0.2578125,0.515625 -0.45703125,1.3828125 -0.45703125,1.4296875 0,0.058594 0.0585938,0.140625 0.1640625,0.140625 0.10546875,0 0.12890625,-0.023437 0.2109375,-0.3515625 0.22265625,-0.8789062 0.48046879,-1.6875 1.05468749,-1.6875 0.3398438,0 0.4453125,0.2226563 0.4453125,0.65625 0,0.3164063 -0.140625,0.8789063 -0.234375,1.3242188 l -0.4101562,1.546875 c -0.058594,0.2695312 -0.2109375,0.9140625 -0.28125,1.171875 -0.1054688,0.37499999 -0.2578125,1.05468749 -0.2578125,1.12499999 0,0.19921875 0.1523437,0.3515625 0.375,0.3515625 0.1640625,0 0.3632812,-0.08203125 0.4804687,-0.29296875 0.035156,-0.0820313 0.1640625,-0.57421875 0.234375,-0.86718754 l 0.3164063,-1.2890625 z m 0,0"
       style="fill:#000000;fill-opacity:1;fill-rule:nonzero;stroke:none"
       aria-label="n"
       transform="matrix(1.3333333,0,0,1.3333333,8.8546667,202.096)" />
    <path
       id="path26"
       d="m 9.6797969,-4.6511016 c 0.1992187,0 0.4570311,0 0.4570311,-0.2578125 0,-0.2695312 -0.2343749,-0.2695312 -0.4570311,-0.2695312 H 1.2305781 c -0.1992187,0 -0.45703123,0 -0.45703123,0.2578125 0,0.2695312 0.24609373,0.2695312 0.45703123,0.2695312 z m 0,2.671875 c 0.1992187,0 0.4570311,0 0.4570311,-0.2578125 0,-0.2695312 -0.2343749,-0.2695312 -0.4570311,-0.2695312 H 1.2305781 c -0.1992187,0 -0.45703123,0 -0.45703123,0.2578125 0,0.2695312 0.24609373,0.2695312 0.45703123,0.2695312 z m 0,0"
       style="fill:#000000;fill-opacity:1;fill-rule:nonzero;stroke:none"
       aria-label="="
       transform="matrix(1.3333333,0,0,1.3333333,30.882667,202.096)" />
    <g
       id="g26"
       aria-label="n−1"
       transform="matrix(1.3333333,0,0,1.3333333,56.297333,202.096)">
      <path
         id="path27"
         d="m 2.9527812,-4.2057891 c 0.035156,-0.082031 0.3867188,-0.796875 0.9140625,-1.2539062 0.375,-0.3515625 0.8671875,-0.5742188 1.4296875,-0.5742188 0.5742188,0 0.7734375,0.421875 0.7734375,0.9960938 0,0.8203125 -0.5859375,2.4609375 -0.8789062,3.234375 -0.1289063,0.3398437 -0.1992188,0.5273437 -0.1992188,0.7851562 0,0.64453129 0.4453125,1.16015629 1.1367188,1.16015629 1.3242187,0 1.828125,-2.10937499 1.828125,-2.19140629 0,-0.070312 -0.058594,-0.1289062 -0.140625,-0.1289062 -0.1289063,0 -0.140625,0.046875 -0.2109375,0.28125 -0.328125,1.18359374 -0.8789063,1.75781249 -1.4414063,1.75781249 -0.140625,0 -0.375,-0.0117188 -0.375,-0.48046875 0,-0.3515625 0.1640625,-0.78515624 0.2460938,-0.98437504 0.2929687,-0.7851562 0.890625,-2.390625 0.890625,-3.2109375 0,-0.8671875 -0.5039063,-1.5117187 -1.59375,-1.5117187 -1.2773438,0 -1.9453125,0.9023437 -2.203125,1.265625 -0.046875,-0.8203125 -0.6328125,-1.265625 -1.265625,-1.265625 -0.4570313,0 -0.7734375,0.2695312 -1.01953125,0.7617187 -0.2578125,0.515625 -0.45703125,1.3828125 -0.45703125,1.4296875 0,0.058594 0.0585938,0.140625 0.1640625,0.140625 0.10546875,0 0.12890625,-0.023437 0.2109375,-0.3515625 0.22265625,-0.8789062 0.4804687,-1.6875 1.0546875,-1.6875 0.3398437,0 0.4453125,0.2226563 0.4453125,0.65625 0,0.3164063 -0.140625,0.8789063 -0.234375,1.3242188 l -0.4101563,1.546875 c -0.058594,0.2695312 -0.2109375,0.9140625 -0.28125,1.171875 -0.1054687,0.37499999 -0.2578125,1.05468749 -0.2578125,1.12499999 0,0.19921875 0.1523438,0.3515625 0.375,0.3515625 0.1640625,0 0.3632813,-0.08203125 0.4804688,-0.29296875 0.035156,-0.0820313 0.1640625,-0.57421875 0.234375,-0.86718754 l 0.3164062,-1.2890625 z m 0,0"
         style="fill:#ff0000;fill-opacity:1;fill-rule:nonzero;stroke:none" />
      <path
         id="path28"
         d="m 21.026023,-3.3034453 c 0.234375,0 0.492188,0 0.492188,-0.28125 0,-0.28125 -0.257813,-0.28125 -0.492188,-0.28125 h -7.769531 c -0.234375,0 -0.492187,0 -0.492187,0.28125 0,0.28125 0.257812,0.28125 0.492187,0.28125 z m 0,0"
         style="fill:#ff0000;fill-opacity:1;fill-rule:nonzero;stroke:none" />
      <path
         id="path29"
         d="m 30.049461,-9.1979766 c 0,-0.328125 0,-0.3398437 -0.292969,-0.3398437 -0.339844,0.3867187 -1.066406,0.9140625 -2.542969,0.9140625 v 0.421875 c 0.339844,0 1.054688,0 1.839844,-0.375 v 7.4765625 c 0,0.51562499 -0.04687,0.69140624 -1.300781,0.69140624 h -0.445313 v 0.41015625 c 0.386719,-0.0234375 1.78125,-0.0234375 2.25,-0.0234375 0.46875,0 1.851563,0 2.238282,0.0234375 v -0.41015625 h -0.445313 c -1.265625,0 -1.300781,-0.17578125 -1.300781,-0.69140624 z m 0,0"
         style="fill:#ff0000;fill-opacity:1;fill-rule:nonzero;stroke:none" />
    </g>
    <path
       id="path30"
       d="m 5.7175547,-3.3151641 h 3.9609375 c 0.1992187,0 0.4570308,0 0.4570308,-0.2578125 0,-0.2695312 -0.2343746,-0.2695312 -0.4570308,-0.2695312 H 5.7175547 v -3.9609375 c 0,-0.1992188 0,-0.4570313 -0.2578125,-0.4570313 -0.2695313,0 -0.2695313,0.2460938 -0.2695313,0.4570313 v 3.9609375 H 1.2292734 c -0.1992187,0 -0.45703121,0 -0.45703121,0.2578125 0,0.2695312 0.24609371,0.2695312 0.45703121,0.2695312 h 3.9609375 v 3.96093754 c 0,0.19921875 0,0.45703126 0.2578125,0.45703126 0.2695313,0 0.2695313,-0.24609376 0.2695313,-0.45703126 z m 0,0"
       style="fill:#000000;fill-opacity:1;fill-rule:nonzero;stroke:none"
       aria-label="+"
       transform="matrix(1.3333333,0,0,1.3333333,111.068,202.096)" />
    <path
       id="path31"
       d="m 4.138,-9.1979766 c 0,-0.328125 0,-0.3398437 -0.2929687,-0.3398437 -0.3398438,0.3867187 -1.0664063,0.9140625 -2.5429688,0.9140625 v 0.421875 c 0.3398438,0 1.0546875,0 1.8398438,-0.375 v 7.4765625 c 0,0.51562499 -0.046875,0.69140624 -1.3007813,0.69140624 H 1.3958125 v 0.41015625 c 0.3867188,-0.0234375 1.78125,-0.0234375 2.25,-0.0234375 0.46875,0 1.8515625,0 2.2382813,0.0234375 V -0.40891406 H 5.4387813 C 4.1731563,-0.40891406 4.138,-0.58469531 4.138,-1.1003203 Z m 0,0"
       style="fill:#0000ff;fill-opacity:1;fill-rule:nonzero;stroke:none"
       aria-label="1"
       transform="matrix(1.3333333,0,0,1.3333333,136.48267,202.096)" />
    <path
       id="path32"
       d="M -38.32213,64.57993 -10.00356,52.23207"
       style="fill:none;stroke:#808080;stroke-width:0.3985;stroke-linecap:butt;stroke-linejoin:miter;stroke-miterlimit:10;stroke-dasharray:none;stroke-opacity:1"
       transform="matrix(1.3333333,0,0,-1.3333333,77.350667,106.272)" />
    <path
       id="path33"
       d="M 1.99252,0 -1.19551,1.59401 0,0 -1.19551,-1.59401"
       style="fill:#808080;fill-opacity:1;fill-rule:nonzero;stroke:none"
       transform="matrix(1.2221333,0.53289333,0.53289333,-1.2221333,64.012573,36.62924)" />
    <path
       id="path34"
       d="M -38.33763,43.51628 -9.97253,30.49861"
       style="fill:none;stroke:#808080;stroke-width:0.3985;stroke-linecap:butt;stroke-linejoin:miter;stroke-miterlimit:10;stroke-dasharray:none;stroke-opacity:1"
       transform="matrix(1.3333333,0,0,-1.3333333,77.350667,106.272)" />
    <path
       id="path35"
       d="M 1.99252,0 -1.19551,1.59401 0,0 -1.19551,-1.59401"
       style="fill:#808080;fill-opacity:1;fill-rule:nonzero;stroke:none"
       transform="matrix(1.2117467,0.55610667,0.55610667,-1.2117467,64.053933,65.607187)" />
    <path
       id="path36"
       d="M -38.33763,21.55249 -9.97253,8.53482"
       style="fill:none;stroke:#808080;stroke-width:0.3985;stroke-linecap:butt;stroke-linejoin:miter;stroke-miterlimit:10;stroke-dasharray:none;stroke-opacity:1"
       transform="matrix(1.3333333,0,0,-1.3333333,77.350667,106.272)" />
    <path
       id="path37"
       d="M 1.99252,0 -1.19551,1.59401 0,0 -1.19551,-1.59401"
       style="fill:#808080;fill-opacity:1;fill-rule:nonzero;stroke:none"
       transform="matrix(1.2117467,0.55610667,0.55610667,-1.2117467,64.053933,94.89224)" />
    <path
       id="path38"
       d="m -38.33763,-0.41129 28.3651,-13.01767"
       style="fill:none;stroke:#808080;stroke-width:0.3985;stroke-linecap:butt;stroke-linejoin:miter;stroke-miterlimit:10;stroke-dasharray:none;stroke-opacity:1"
       transform="matrix(1.3333333,0,0,-1.3333333,77.350667,106.272)" />
    <path
       id="path39"
       d="M 1.99252,0 -1.19551,1.59401 0,0 -1.19551,-1.59401"
       style="fill:#808080;fill-opacity:1;fill-rule:nonzero;stroke:none"
       transform="matrix(1.2117467,0.55610667,0.55610667,-1.2117467,64.053933,124.17728)" />
  </g>
</svg>
