<?xml version="1.0" encoding="UTF-8" standalone="no"?>
<!-- Created with Inkscape (http://www.inkscape.org/) -->

<svg
   version="1.1"
   id="svg1"
   width="415.97733"
   height="50.770668"
   viewBox="0 0 415.97733 50.770668"
   xmlns="http://www.w3.org/2000/svg"
   xmlns:svg="http://www.w3.org/2000/svg">
  <defs
     id="defs1" />
  <g
     id="g1">
    <path
       id="path1"
       d="m 6.4231406,-4.5935938 c 0,-1.1835937 -0.070312,-2.34375 -0.5859375,-3.4335937 C 5.2512656,-9.2225 4.2200156,-9.5389063 3.5168906,-9.5389063 c -0.8320312,0 -1.8515625,0.421875 -2.3789062,1.6054688 -0.41015627,0.9023437 -0.55078127,1.7929687 -0.55078127,3.3398437 0,1.3945313 0.10546875,2.4375 0.62109377,3.4570313 0.5625,1.08984375 1.546875,1.44140625 2.296875,1.44140625 1.2421875,0 1.9570312,-0.75 2.3789062,-1.58203125 0.515625,-1.078125 0.5390625,-2.484375 0.5390625,-3.3164063 z M 3.5051719,0.011875 c -0.46875,0 -1.3945313,-0.2578125 -1.6640625,-1.8164063 -0.1640625,-0.8671875 -0.1640625,-1.9570312 -0.1640625,-2.953125 0,-1.1835937 0,-2.2382812 0.234375,-3.09375 0.2460937,-0.9609375 0.9726562,-1.3945312 1.59375,-1.3945312 0.5390625,0 1.3710937,0.328125 1.640625,1.5585937 0.1875,0.8203125 0.1875,1.9453125 0.1875,2.9296875 0,0.9609375 0,2.0507813 -0.1523438,2.9179688 C 4.9114219,-0.25765625 3.9973594,0.011875 3.5051719,0.011875 Z m 0,0"
       style="fill:#000000;fill-opacity:1;fill-rule:nonzero;stroke:none"
       aria-label="0"
       transform="matrix(1.3333333,0,0,1.3333333,4.428,45.546667)" />
    <path
       id="path2"
       d="m 4.1375391,-9.1990625 c 0,-0.328125 0,-0.3398438 -0.2929688,-0.3398438 -0.3398437,0.3867188 -1.0664062,0.9140625 -2.5429687,0.9140625 v 0.421875 c 0.3398437,0 1.0546875,0 1.8398437,-0.375 v 7.4765625 C 3.1414453,-0.58578125 3.0945703,-0.41 1.8406641,-0.41 H 1.3953516 V 1.5625e-4 c 0.3867187,-0.0234375 1.78125,-0.0234375 2.25,-0.0234375 0.46875,0 1.8515625,0 2.2382812,0.0234375 V -0.41 H 5.4383203 c -1.265625,0 -1.3007812,-0.17578125 -1.3007812,-0.6914063 z m 0,0"
       style="fill:#000000;fill-opacity:1;fill-rule:nonzero;stroke:none"
       aria-label="1"
       transform="matrix(1.3333333,0,0,1.3333333,61.12,45.546667)" />
    <path
       id="path3"
       d="M 6.3157813,-2.4139063 H 5.999375 C 5.9525,-2.1678125 5.8353125,-1.3826563 5.6946875,-1.1482813 5.5892188,-1.019375 4.780625,-1.019375 4.3470313,-1.019375 H 1.686875 C 2.0735938,-1.3475 2.9525,-2.2615625 3.3275,-2.613125 5.5071875,-4.6170313 6.3157813,-5.3670313 6.3157813,-6.785 c 0,-1.6523438 -1.3125,-2.7539063 -2.9765625,-2.7539063 -1.6640625,0 -2.6367188,1.4179688 -2.6367188,2.6484375 0,0.7382813 0.6328125,0.7382813 0.6796875,0.7382813 0.2929688,0 0.6679688,-0.2109375 0.6679688,-0.6796875 0,-0.3984375 -0.2695313,-0.6679688 -0.6679688,-0.6679688 -0.140625,0 -0.1640625,0 -0.2109375,0.011719 0.28125,-0.9726563 1.0546875,-1.6289063 1.9804688,-1.6289063 1.21875,0 1.96875,1.0078125 1.96875,2.3320313 0,1.21875 -0.703125,2.2851562 -1.5234375,3.1992187 L 0.7025,-0.3396875 V 1.5625e-4 h 5.2382813 z m 0,0"
       style="fill:#000000;fill-opacity:1;fill-rule:nonzero;stroke:none"
       aria-label="2"
       transform="matrix(1.3333333,0,0,1.3333333,117.81333,45.546667)" />
    <path
       id="path4"
       d="m 2.6375781,-5.144375 c -0.2460937,0.011719 -0.2929687,0.023437 -0.2929687,0.1523437 0,0.140625 0.070312,0.140625 0.328125,0.140625 h 0.65625 c 1.21875,0 1.7695312,1.0078125 1.7695312,2.3789063 0,1.88671875 -0.984375,2.390625 -1.6875,2.390625 -0.6796875,0 -1.8632812,-0.328125 -2.2734375,-1.2773438 0.4570313,0.070312 0.8671875,-0.1875 0.8671875,-0.703125 0,-0.421875 -0.2929687,-0.703125 -0.703125,-0.703125 -0.33984372,0 -0.71484372,0.1992188 -0.71484372,0.7382813 0,1.27734375 1.27734372,2.33203125 2.87109372,2.33203125 1.7109375,0 2.9648438,-1.31250005 2.9648438,-2.75390625 0,-1.3242188 -1.0546875,-2.3554688 -2.4375,-2.6015625 1.2539062,-0.3515625 2.0507812,-1.40625 2.0507812,-2.5195313 0,-1.1367187 -1.171875,-1.96875 -2.5664062,-1.96875 -1.4296875,0 -2.49609377,0.8789063 -2.49609377,1.921875 0,0.5742188 0.44531247,0.6914063 0.66796877,0.6914063 0.2929687,0 0.6445312,-0.2226563 0.6445312,-0.6445313 0,-0.4570312 -0.3515625,-0.6679687 -0.6679687,-0.6679687 -0.082031,0 -0.1054688,0 -0.1523438,0.023437 0.5390625,-0.984375 1.8867188,-0.984375 1.96875,-0.984375 0.46875,0 1.3945313,0.2226562 1.3945313,1.6289062 0,0.2695313 -0.035156,1.078125 -0.4570313,1.6875 -0.421875,0.6328125 -0.9140625,0.6796875 -1.3007812,0.6914063 z m 0,0"
       style="fill:#000000;fill-opacity:1;fill-rule:nonzero;stroke:none"
       aria-label="3"
       transform="matrix(1.3333333,0,0,1.3333333,174.50667,45.546667)" />
    <path
       id="path5"
       d="m 5.1801016,-9.3396875 c 0,-0.2695313 0,-0.3398438 -0.1992188,-0.3398438 -0.1171875,0 -0.1640625,0 -0.28125,0.1640625 l -4.31249999,6.703125 v 0.421875 H 4.1605703 v 1.3007813 c 0,0.52734375 -0.023437,0.6796875 -1.078125,0.6796875 h -0.28125 V 1.5625e-4 c 0.328125,-0.0234375 1.4648438,-0.0234375 1.8632813,-0.0234375 0.3984375,0 1.546875,0 1.875,0.0234375 V -0.41 h -0.28125 c -1.03125,0 -1.078125,-0.15234375 -1.078125,-0.6796875 v -1.3007813 h 1.4414062 v -0.421875 H 5.1801016 Z m -0.9492188,1.125 v 5.4023437 H 0.75041406 Z m 0,0"
       style="fill:#000000;fill-opacity:1;fill-rule:nonzero;stroke:none"
       aria-label="4"
       transform="matrix(1.3333333,0,0,1.3333333,231.19867,45.546667)" />
    <path
       id="path6"
       d="m 2.6362422,-0.69103125 c 0,-0.41015625 -0.3398438,-0.70312505 -0.6914063,-0.70312505 -0.4101562,0 -0.703125,0.3515625 -0.703125,0.6914063 0,0.421875 0.3515625,0.703125 0.6914063,0.703125 0.421875,0 0.703125,-0.33984375 0.703125,-0.69140625 z m 6.2988281,0 c 0,-0.41015625 -0.3398437,-0.70312505 -0.6914062,-0.70312505 -0.4101563,0 -0.703125,0.3515625 -0.703125,0.6914063 0,0.421875 0.3515625,0.703125 0.6914062,0.703125 0.421875,0 0.703125,-0.33984375 0.703125,-0.69140625 z m 6.2841797,0 c 0,-0.41015625 -0.339844,-0.70312505 -0.691406,-0.70312505 -0.410157,0 -0.703125,0.3515625 -0.703125,0.6914063 0,0.421875 0.351562,0.703125 0.691406,0.703125 0.421875,0 0.703125,-0.33984375 0.703125,-0.69140625 z m 0,0"
       style="fill:#000000;fill-opacity:1;fill-rule:nonzero;stroke:none"
       aria-label="..."
       transform="matrix(1.3333333,0,0,1.3333333,281.58267,40.312)" />
    <g
       id="g6"
       aria-label="n−1"
       transform="matrix(1.3333333,0,0,1.3333333,327.30533,44.749333)">
      <path
         id="path7"
         d="m 2.9526406,-4.2065313 c 0.035156,-0.082031 0.3867188,-0.796875 0.9140625,-1.2539062 0.375,-0.3515625 0.8671875,-0.5742188 1.4296875,-0.5742188 0.5742188,0 0.7734375,0.421875 0.7734375,0.9960938 0,0.8203125 -0.5859375,2.4609375 -0.8789062,3.234375 -0.1289063,0.3398437 -0.1992188,0.5273437 -0.1992188,0.7851562 0,0.6445313 0.4453125,1.1601563 1.1367188,1.1601563 1.3242187,0 1.828125,-2.109375 1.828125,-2.1914063 0,-0.070312 -0.058594,-0.1289062 -0.140625,-0.1289062 -0.1289063,0 -0.140625,0.046875 -0.2109375,0.28125 -0.328125,1.18359375 -0.8789063,1.7578125 -1.4414063,1.7578125 -0.140625,0 -0.375,-0.0117188 -0.375,-0.48046875 0,-0.3515625 0.1640625,-0.78515625 0.2460938,-0.98437505 0.2929687,-0.7851562 0.890625,-2.390625 0.890625,-3.2109375 0,-0.8671875 -0.5039063,-1.5117187 -1.59375,-1.5117187 -1.2773438,0 -1.9453125,0.9023437 -2.203125,1.265625 -0.046875,-0.8203125 -0.6328125,-1.265625 -1.265625,-1.265625 -0.4570313,0 -0.7734375,0.2695312 -1.01953127,0.7617187 -0.2578125,0.515625 -0.45703125,1.3828125 -0.45703125,1.4296875 0,0.058594 0.0585938,0.140625 0.1640625,0.140625 0.10546875,0 0.12890625,-0.023437 0.2109375,-0.3515625 0.22265625,-0.8789062 0.48046872,-1.6875 1.05468752,-1.6875 0.3398437,0 0.4453125,0.2226563 0.4453125,0.65625 0,0.3164063 -0.140625,0.8789063 -0.234375,1.3242188 l -0.4101563,1.546875 c -0.058594,0.2695312 -0.2109375,0.9140625 -0.28125,1.171875 -0.1054687,0.375 -0.2578125,1.0546875 -0.2578125,1.125 0,0.19921875 0.1523438,0.3515625 0.375,0.3515625 0.1640625,0 0.3632813,-0.08203125 0.4804688,-0.29296875 0.035156,-0.0820313 0.1640625,-0.57421875 0.234375,-0.86718755 l 0.3164062,-1.2890625 z m 0,0"
         style="fill:#000000;fill-opacity:1;fill-rule:nonzero;stroke:none" />
      <path
         id="path8"
         d="m 21.025883,-3.3041875 c 0.234375,0 0.492187,0 0.492187,-0.28125 0,-0.28125 -0.257812,-0.28125 -0.492187,-0.28125 h -7.769531 c -0.234375,0 -0.492188,0 -0.492188,0.28125 0,0.28125 0.257813,0.28125 0.492188,0.28125 z m 0,0"
         style="fill:#000000;fill-opacity:1;fill-rule:nonzero;stroke:none" />
      <path
         id="path9"
         d="m 30.04932,-9.1987188 c 0,-0.328125 0,-0.3398437 -0.292968,-0.3398437 C 29.416508,-9.1518438 28.689945,-8.6245 27.213383,-8.6245 v 0.421875 c 0.339844,0 1.054687,0 1.839844,-0.375 v 7.4765625 c 0,0.515625 -0.04687,0.69140625 -1.300782,0.69140625 H 27.307133 V 5e-4 c 0.386719,-0.0234375 1.78125,-0.0234375 2.25,-0.0234375 0.46875,0 1.851562,0 2.238281,0.0234375 v -0.41015625 h -0.445312 c -1.265625,0 -1.300782,-0.17578125 -1.300782,-0.69140625 z m 0,0"
         style="fill:#000000;fill-opacity:1;fill-rule:nonzero;stroke:none" />
    </g>
    <path
       id="path10"
       d="m 2.9544453,-4.2070312 c 0.035156,-0.082031 0.3867188,-0.796875 0.9140625,-1.2539063 0.375,-0.3515625 0.8671875,-0.5742187 1.4296875,-0.5742187 0.5742188,0 0.7734375,0.421875 0.7734375,0.9960937 0,0.8203125 -0.5859375,2.4609375 -0.8789062,3.234375 -0.1289063,0.3398438 -0.1992188,0.5273438 -0.1992188,0.7851563 0,0.6445312 0.4453125,1.1601562 1.1367188,1.1601562 1.3242187,0 1.828125,-2.109375 1.828125,-2.1914063 0,-0.070312 -0.058594,-0.1289062 -0.140625,-0.1289062 -0.1289063,0 -0.140625,0.046875 -0.2109375,0.28125 -0.328125,1.18359375 -0.8789063,1.7578125 -1.4414063,1.7578125 -0.140625,0 -0.375,-0.0117188 -0.375,-0.48046875 0,-0.3515625 0.1640625,-0.78515625 0.2460938,-0.98437495 0.2929687,-0.7851563 0.890625,-2.3906251 0.890625,-3.2109375 0,-0.8671875 -0.5039063,-1.5117188 -1.59375,-1.5117188 -1.2773438,0 -1.9453125,0.9023438 -2.203125,1.265625 -0.046875,-0.8203125 -0.6328125,-1.265625 -1.265625,-1.265625 -0.4570313,0 -0.7734375,0.2695313 -1.01953129,0.7617188 -0.2578125,0.515625 -0.45703125,1.3828125 -0.45703125,1.4296875 0,0.058594 0.0585938,0.1406249 0.1640625,0.1406249 0.10546875,0 0.12890625,-0.023437 0.2109375,-0.3515624 0.22265625,-0.8789063 0.48046874,-1.6875 1.05468754,-1.6875 0.3398437,0 0.4453125,0.2226562 0.4453125,0.65625 0,0.3164062 -0.140625,0.8789062 -0.234375,1.3242187 l -0.4101563,1.546875 c -0.058594,0.2695312 -0.2109375,0.9140625 -0.28125,1.171875 -0.1054687,0.375 -0.2578125,1.0546875 -0.2578125,1.125 0,0.19921875 0.1523438,0.3515625 0.375,0.3515625 0.1640625,0 0.3632813,-0.08203125 0.4804688,-0.29296875 0.035156,-0.0820313 0.1640625,-0.57421875 0.234375,-0.86718745 l 0.3164062,-1.2890626 z m 0,0"
       style="fill:#000000;fill-opacity:1;fill-rule:nonzero;stroke:none"
       aria-label="n"
       transform="matrix(1.3333333,0,0,1.3333333,400.36933,43.5)" />
    <path
       id="path11"
       d="m 4.70067,8.14252 c 6.45803,11.1846 26.66084,11.1846 31.8237,2.24316"
       style="fill:none;stroke:#0000ff;stroke-width:0.79701;stroke-linecap:butt;stroke-linejoin:miter;stroke-miterlimit:10;stroke-dasharray:none;stroke-opacity:1"
       transform="matrix(1.3333333,0,0,-1.3333333,9.1093333,39.382667)" />
    <path
       id="path12"
       d="M 2.59026,0 -1.55415,2.0722 0,0 -1.55415,-2.0722"
       style="fill:#0000ff;fill-opacity:1;fill-rule:nonzero;stroke:none"
       transform="matrix(0.66669333,1.1546667,1.1546667,-0.66669333,57.808467,25.535093)" />
    <path
       id="path13"
       d="m 3.4683906,-1.8036797 h 2.34375 c 0.1171875,0 0.2929688,0 0.2929688,-0.1875 0,-0.1875 -0.1757813,-0.1875 -0.2929688,-0.1875 h -2.34375 v -2.34375 c 0,-0.1171875 0,-0.2929687 -0.1757812,-0.2929687 -0.1875,0 -0.1875,0.1757812 -0.1875,0.2929687 v 2.34375 H 0.76135938 c -0.1171875,0 -0.29296875,0 -0.29296875,0.1875 0,0.1875 0.17578125,0.1875 0.29296875,0.1875 H 3.1051094 v 2.34375001 c 0,0.1171875 0,0.29296875 0.1875,0.29296875 0.1757812,0 0.1757812,-0.17578125 0.1757812,-0.29296875 z m 5.625,-3.2695312 c 0,-0.2226563 -0.023437,-0.2226563 -0.234375,-0.2226563 -0.328125,0.3164063 -0.75,0.5039063 -1.5117187,0.5039063 v 0.2695312 c 0.2226562,0 0.6445312,0 1.1132812,-0.2226562 v 4.08984371 c 0,0.29296875 -0.023437,0.3984375 -0.7851562,0.3984375 h -0.28125 v 0.2578125 c 0.328125,-0.0234375 1.0195312,-0.0234375 1.3710937,-0.0234375 0.3632813,0 1.0546875,0 1.3828124,0.0234375 v -0.2578125 H 9.8668281 c -0.75,0 -0.7734375,-0.10546875 -0.7734375,-0.3984375 z m 0,0"
       style="fill:#0000ff;fill-opacity:1;fill-rule:nonzero;stroke:none"
       aria-label="+1"
       transform="matrix(1.3333333,0,0,1.3333333,30.242667,11.276)" />
    <path
       id="path14"
       d="m 47.2209,8.14252 c 6.45802,11.1846 26.66083,11.1846 31.8237,2.24316"
       style="fill:none;stroke:#0000ff;stroke-width:0.79701;stroke-linecap:butt;stroke-linejoin:miter;stroke-miterlimit:10;stroke-dasharray:none;stroke-opacity:1"
       transform="matrix(1.3333333,0,0,-1.3333333,9.1093333,39.382667)" />
    <path
       id="path15"
       d="M 2.59026,0 -1.55415,2.0722 0,0 -1.55415,-2.0722"
       style="fill:#0000ff;fill-opacity:1;fill-rule:nonzero;stroke:none"
       transform="matrix(0.66669333,1.1546667,1.1546667,-0.66669333,114.50212,25.535093)" />
    <path
       id="path16"
       d="m 3.4679453,-1.8036797 h 2.34375 c 0.1171875,0 0.2929688,0 0.2929688,-0.1875 0,-0.1875 -0.1757813,-0.1875 -0.2929688,-0.1875 h -2.34375 v -2.34375 c 0,-0.1171875 0,-0.2929687 -0.1757812,-0.2929687 -0.1875,0 -0.1875,0.1757812 -0.1875,0.2929687 v 2.34375 H 0.76091406 c -0.1171875,0 -0.29296875,0 -0.29296875,0.1875 0,0.1875 0.17578125,0.1875 0.29296875,0.1875 H 3.1046641 v 2.34375001 c 0,0.1171875 0,0.29296875 0.1875,0.29296875 0.1757812,0 0.1757812,-0.17578125 0.1757812,-0.29296875 z m 5.625,-3.2695312 c 0,-0.2226563 -0.023437,-0.2226563 -0.234375,-0.2226563 -0.328125,0.3164063 -0.75,0.5039063 -1.5117187,0.5039063 v 0.2695312 c 0.2226562,0 0.6445312,0 1.1132812,-0.2226562 v 4.08984371 c 0,0.29296875 -0.023437,0.3984375 -0.7851562,0.3984375 h -0.28125 v 0.2578125 c 0.328125,-0.0234375 1.0195312,-0.0234375 1.3710937,-0.0234375 0.3632813,0 1.0546875,0 1.3828127,0.0234375 v -0.2578125 H 9.8663828 c -0.75,0 -0.7734375,-0.10546875 -0.7734375,-0.3984375 z m 0,0"
       style="fill:#0000ff;fill-opacity:1;fill-rule:nonzero;stroke:none"
       aria-label="+1"
       transform="matrix(1.3333333,0,0,1.3333333,86.934667,11.276)" />
    <path
       id="path17"
       d="m 89.74112,8.14252 c 6.45802,11.1846 26.66083,11.1846 31.8237,2.24316"
       style="fill:none;stroke:#0000ff;stroke-width:0.79701;stroke-linecap:butt;stroke-linejoin:miter;stroke-miterlimit:10;stroke-dasharray:none;stroke-opacity:1"
       transform="matrix(1.3333333,0,0,-1.3333333,9.1093333,39.382667)" />
    <path
       id="path18"
       d="M 2.59026,0 -1.55415,2.0722 0,0 -1.55415,-2.0722"
       style="fill:#0000ff;fill-opacity:1;fill-rule:nonzero;stroke:none"
       transform="matrix(0.66669333,1.1546667,1.1546667,-0.66669333,171.19573,25.535093)" />
    <path
       id="path19"
       d="m 3.4694297,-1.8036797 h 2.34375 c 0.1171875,0 0.2929687,0 0.2929687,-0.1875 0,-0.1875 -0.1757812,-0.1875 -0.2929687,-0.1875 h -2.34375 v -2.34375 c 0,-0.1171875 0,-0.2929687 -0.1757813,-0.2929687 -0.1875,0 -0.1875,0.1757812 -0.1875,0.2929687 v 2.34375 H 0.76239844 c -0.1171875,0 -0.29296875,0 -0.29296875,0.1875 0,0.1875 0.17578125,0.1875 0.29296875,0.1875 H 3.1061484 v 2.34375001 c 0,0.1171875 0,0.29296875 0.1875,0.29296875 0.1757813,0 0.1757813,-0.17578125 0.1757813,-0.29296875 z m 5.625,-3.2695312 c 0,-0.2226563 -0.023437,-0.2226563 -0.234375,-0.2226563 -0.328125,0.3164063 -0.75,0.5039063 -1.5117188,0.5039063 v 0.2695312 c 0.2226563,0 0.6445313,0 1.1132813,-0.2226562 v 4.08984371 c 0,0.29296875 -0.023437,0.3984375 -0.7851563,0.3984375 h -0.28125 v 0.2578125 c 0.328125,-0.0234375 1.0195313,-0.0234375 1.3710938,-0.0234375 0.3632812,0 1.0546875,0 1.3828123,0.0234375 v -0.2578125 H 9.8678672 c -0.75,0 -0.7734375,-0.10546875 -0.7734375,-0.3984375 z m 0,0"
       style="fill:#0000ff;fill-opacity:1;fill-rule:nonzero;stroke:none"
       aria-label="+1"
       transform="matrix(1.3333333,0,0,1.3333333,143.628,11.276)" />
    <path
       id="path20"
       d="m 132.26134,8.14252 c 6.45802,11.1846 26.66084,11.1846 31.8237,2.24316"
       style="fill:none;stroke:#0000ff;stroke-width:0.79701;stroke-linecap:butt;stroke-linejoin:miter;stroke-miterlimit:10;stroke-dasharray:none;stroke-opacity:1"
       transform="matrix(1.3333333,0,0,-1.3333333,9.1093333,39.382667)" />
    <path
       id="path21"
       d="M 2.59026,0 -1.55415,2.0722 0,0 -1.55415,-2.0722"
       style="fill:#0000ff;fill-opacity:1;fill-rule:nonzero;stroke:none"
       transform="matrix(0.66669333,1.1546667,1.1546667,-0.66669333,227.88936,25.535093)" />
    <path
       id="path22"
       d="m 3.4679844,-1.8036797 h 2.34375 c 0.1171875,0 0.2929687,0 0.2929687,-0.1875 0,-0.1875 -0.1757812,-0.1875 -0.2929687,-0.1875 h -2.34375 v -2.34375 c 0,-0.1171875 0,-0.2929687 -0.1757813,-0.2929687 -0.1875,0 -0.1875,0.1757812 -0.1875,0.2929687 v 2.34375 H 0.76095313 c -0.1171875,0 -0.29296875,0 -0.29296875,0.1875 0,0.1875 0.17578125,0.1875 0.29296875,0.1875 H 3.1047031 v 2.34375001 c 0,0.1171875 0,0.29296875 0.1875,0.29296875 0.1757813,0 0.1757813,-0.17578125 0.1757813,-0.29296875 z m 5.625,-3.2695312 c 0,-0.2226563 -0.023437,-0.2226563 -0.234375,-0.2226563 -0.328125,0.3164063 -0.75,0.5039063 -1.5117188,0.5039063 v 0.2695312 c 0.2226563,0 0.6445313,0 1.1132813,-0.2226562 v 4.08984371 c 0,0.29296875 -0.023437,0.3984375 -0.7851563,0.3984375 h -0.28125 v 0.2578125 c 0.328125,-0.0234375 1.0195313,-0.0234375 1.3710938,-0.0234375 0.3632812,0 1.0546875,0 1.3828126,0.0234375 v -0.2578125 H 9.8664219 c -0.75,0 -0.7734375,-0.10546875 -0.7734375,-0.3984375 z m 0,0"
       style="fill:#0000ff;fill-opacity:1;fill-rule:nonzero;stroke:none"
       aria-label="+1"
       transform="matrix(1.3333333,0,0,1.3333333,200.32133,11.276)" />
    <path
       id="path23"
       d="m 174.78131,8.14252 c 6.9543,12.04374 28.43144,8.11842 34.08999,-1.68213"
       style="fill:none;stroke:#0000ff;stroke-width:0.79701;stroke-linecap:butt;stroke-linejoin:miter;stroke-miterlimit:10;stroke-dasharray:none;stroke-opacity:1"
       transform="matrix(1.3333333,0,0,-1.3333333,9.1093333,39.382667)" />
    <path
       id="path24"
       d="M 2.59026,0 -1.55415,2.0722 0,0 -1.55415,-2.0722"
       style="fill:#0000ff;fill-opacity:1;fill-rule:nonzero;stroke:none"
       transform="matrix(0.66666667,1.15468,1.15468,-0.66666667,287.6044,30.7688)" />
    <path
       id="path25"
       d="m 3.4673281,-1.8033203 h 2.34375 c 0.1171875,0 0.2929688,0 0.2929688,-0.1875 0,-0.1875 -0.1757813,-0.1875 -0.2929688,-0.1875 h -2.34375 v -2.34375 c 0,-0.1171875 0,-0.2929688 -0.1757812,-0.2929688 -0.1875,0 -0.1875,0.1757813 -0.1875,0.2929688 v 2.34375 H 0.76029687 c -0.1171875,0 -0.29296875,0 -0.29296875,0.1875 0,0.1875 0.17578125,0.1875 0.29296875,0.1875 H 3.1040469 v 2.34374999 c 0,0.1171875 0,0.29296875 0.1875,0.29296875 0.1757812,0 0.1757812,-0.17578125 0.1757812,-0.29296875 z m 5.6279297,-3.2695313 c 0,-0.2226562 -0.023437,-0.2226562 -0.234375,-0.2226562 -0.328125,0.3164062 -0.75,0.5039062 -1.5117187,0.5039062 v 0.2695313 c 0.2226562,0 0.6445312,0 1.1132812,-0.2226563 v 4.08984379 c 0,0.29296875 -0.023437,0.3984375 -0.7851562,0.3984375 h -0.28125 v 0.2578125 c 0.328125,-0.0234375 1.0195312,-0.0234375 1.3710937,-0.0234375 0.3632813,0 1.0546875,0 1.3828122,0.0234375 v -0.2578125 H 9.8686953 c -0.75,0 -0.7734375,-0.10546875 -0.7734375,-0.3984375 z m 0,0"
       style="fill:#0000ff;fill-opacity:1;fill-rule:nonzero;stroke:none"
       aria-label="+1"
       transform="matrix(1.3333333,0,0,1.3333333,258.52533,13.033333)" />
    <path
       id="path26"
       d="m 215.03545,4.21721 c 6.9133,11.9732 28.12671,16.49631 33.7447,6.76628"
       style="fill:none;stroke:#0000ff;stroke-width:0.79701;stroke-linecap:butt;stroke-linejoin:miter;stroke-miterlimit:10;stroke-dasharray:none;stroke-opacity:1"
       transform="matrix(1.3333333,0,0,-1.3333333,9.1093333,39.382667)" />
    <path
       id="path27"
       d="M 2.59026,0 -1.55415,2.0722 0,0 -1.55415,-2.0722"
       style="fill:#0000ff;fill-opacity:1;fill-rule:nonzero;stroke:none"
       transform="matrix(0.66666667,1.15468,1.15468,-0.66666667,340.8162,24.738)" />
    <path
       id="path28"
       d="m 3.4683828,-1.8034141 h 2.34375 c 0.1171875,0 0.2929688,0 0.2929688,-0.1875 0,-0.1875 -0.1757813,-0.1875 -0.2929688,-0.1875 h -2.34375 v -2.34375 c 0,-0.1171875 0,-0.2929687 -0.1757812,-0.2929687 -0.1875,0 -0.1875,0.1757812 -0.1875,0.2929687 v 2.34375 H 0.76135156 c -0.1171875,0 -0.29296875,0 -0.29296875,0.1875 0,0.1875 0.17578125,0.1875 0.29296875,0.1875 H 3.1051016 v 2.34375004 c 0,0.1171875 0,0.29296875 0.1875,0.29296875 0.1757812,0 0.1757812,-0.17578125 0.1757812,-0.29296875 z m 5.625,-3.2695312 c 0,-0.2226563 -0.023437,-0.2226563 -0.234375,-0.2226563 -0.328125,0.3164063 -0.75,0.5039063 -1.5117187,0.5039063 v 0.2695312 c 0.2226562,0 0.6445312,0 1.1132812,-0.2226562 v 4.08984374 c 0,0.29296875 -0.023437,0.3984375 -0.7851562,0.3984375 h -0.28125 v 0.2578125 c 0.328125,-0.0234375 1.0195312,-0.0234375 1.3710937,-0.0234375 0.3632813,0 1.0546875,0 1.3828122,0.0234375 v -0.2578125 H 9.8668203 c -0.75,0 -0.7734375,-0.10546875 -0.7734375,-0.3984375 z m 0,0"
       style="fill:#0000ff;fill-opacity:1;fill-rule:nonzero;stroke:none"
       aria-label="+1"
       transform="matrix(1.3333333,0,0,1.3333333,311.96533,12.705333)" />
    <path
       id="path29"
       d="m 260.16605,8.7403 c 6.59022,11.41162 27.07156,9.27958 32.36538,0.11113"
       style="fill:none;stroke:#0000ff;stroke-width:0.79701;stroke-linecap:butt;stroke-linejoin:miter;stroke-miterlimit:10;stroke-dasharray:none;stroke-opacity:1"
       transform="matrix(1.3333333,0,0,-1.3333333,9.1093333,39.382667)" />
    <path
       id="path30"
       d="M 2.59026,0 -1.55415,2.0722 0,0 -1.55415,-2.0722"
       style="fill:#0000ff;fill-opacity:1;fill-rule:nonzero;stroke:none"
       transform="matrix(0.66669333,1.1546667,1.1546667,-0.66669333,399.15123,27.58076)" />
    <path
       id="path31"
       d="m 3.4678125,-1.8057813 h 2.34375 c 0.1171875,0 0.2929688,0 0.2929688,-0.1875 0,-0.1875 -0.1757813,-0.1875 -0.2929688,-0.1875 h -2.34375 v -2.34375 c 0,-0.1171875 0,-0.2929687 -0.1757812,-0.2929687 -0.1875,0 -0.1875,0.1757812 -0.1875,0.2929687 v 2.34375 H 0.76078125 c -0.1171875,0 -0.29296875,0 -0.29296875,0.1875 0,0.1875 0.17578125,0.1875 0.29296875,0.1875 H 3.1045313 v 2.34375005 c 0,0.1171875 0,0.29296875 0.1875,0.29296875 0.1757812,0 0.1757812,-0.17578125 0.1757812,-0.29296875 z m 5.6279297,-3.2695312 c 0,-0.2226563 -0.023437,-0.2226563 -0.234375,-0.2226563 -0.328125,0.3164063 -0.75,0.5039063 -1.5117188,0.5039063 v 0.2695312 c 0.2226563,0 0.6445313,0 1.1132813,-0.2226562 v 4.08984375 c 0,0.29296875 -0.023437,0.3984375 -0.7851563,0.3984375 h -0.28125 v 0.2578125 c 0.328125,-0.0234375 1.0195313,-0.0234375 1.3710938,-0.0234375 0.3632812,0 1.0546875,0 1.3828128,0.0234375 v -0.2578125 H 9.8691797 c -0.75,0 -0.7734375,-0.10546875 -0.7734375,-0.3984375 z m 0,0"
       style="fill:#0000ff;fill-opacity:1;fill-rule:nonzero;stroke:none"
       aria-label="+1"
       transform="matrix(1.3333333,0,0,1.3333333,371.22,11.673333)" />
  </g>
</svg>
