<?xml version="1.0" encoding="UTF-8" standalone="no"?>
<svg id="svg2" xmlns:rdf="http://www.w3.org/1999/02/22-rdf-syntax-ns#" xmlns="http://www.w3.org/2000/svg" height="1872pt" width="1652pt" version="1.1" xmlns:cc="http://creativecommons.org/ns#" xmlns:dc="http://purl.org/dc/elements/1.1/" viewBox="0 0 1652 1872">
<g id="g4337" transform="translate(-5600)">
<path id="rect4334" d="m5631.4 10.272c-0.2376 0.04953-0.6104 0.40812-1.1656 1.2281-20.63 61.08-28.82 128.14-14.3 191.53 28.53 98.5 107.17 183.21 206.79 211.44 3.7296 43.78 11.97 87.27 13.14 131.2-10.79 66.23-35.55 129.62-46.21 195.84-40.85 18.98-58.11 71.781-39.26 112.09 9.84 22.03 27.941 39.15 47.57 52.55 2.66 2.48 5.7296 4.5203 9.1096 5.8703 7.04 59.68 35.31 120.26 86.95 153.79 7.1816 2.34 5.0104 10.72 6.7504 16.32 7.04 40.17 42.879 72.7 83.659 75.5 31.43 1.82 66.19-2.84 90.67-24.5 16.5-15.6 27.221-37.31 28.761-60.05-2.1096-4.97 6.8392-13.079 9.2392-6.1891 31.92 58.86 77.031 109.27 129.01 151.12 5.5896 40.43 15.66 80.361 30.3 118.54 15.13 33.89 18.17 71.85 19.579 108.5 0.7304 52.8-5.4296 108.57-33.5 154.48-10.24 5.82-17.5 15.77-27.3 21.83-60.42 9.87-108.87 61.441-120.17 120.81-0.5888 14.72 16.62 19.62 28.31 20.57 30.91 1.43 61.34-5.6406 91.391-11.991-14.47 24.08-31.26 53.719-19.68 82.209 14.21 24.57 46.86 25.381 71.97 28.141 89.85 4.24 169.12-76.539 169.96-165.16 4.3-57.86-20.88-113.33-14.27-171.22 4.9-71.66 15.93-146.3 53.79-208.7 110.6 20.57 225.45-6.5803 321.5-62.82 27.4 35.85 35.91 83.95 34 128.57 3.1304 44.9-0.32 97.67-36.74 129.52-24.85 21.43-47.37 45.56-70.48 68.6-41.78 15.46-78.47 52.15-81.71 98.28 1.14 9.55-1.1104 22.77 7.4096 29.58 51.43 15.16 107.29-0.4097 151.07-29.18 27.4-16.5 56.99-40.13 60.97-74.08 6.4696-74.15 43.359-140.43 76.53-205.43 3.78-5.11 5.3696-13.829 10.85-16.859 12.51 57.59 4.7696 121-27.91 170.81-18.28 29.75-48.56 51.191-61.83 84.161-3.2 9.61-13.24 14.28-18.4 22.62-16.58 23.74-30.38 52.53-26.78 82.18 1.3304 26.07 22.881 49.67 49.49 50.67 41.48 1.69 79.97-17.31 116.54-34.62 26.05-11.67 50.071-33.76 54.961-62.98 8.7504-33.69-2.5712-67.99-1.0312-102.02-2.2096-49.11 8.3112-97.35 16.631-145.43 7.2-42.26 23.61-82.08 37.75-122.32 8.68-37.8-22.63-67.94-48.021-90.62-25.64-60.79 8.3896-126.28 44.26-175.06 17.83-23.51 36.069-47.88 44.77-76.47-0.24 37.01-11.84 75.919-15.83 113.79-6.3696 35.56-9.2592 71.88-8.2704 108-29.81 73.47 2.8904 163.78 69.75 205.09 4.0696 1.86 2.7504-2.1197 2.2704-4.9297 13.62 10.4 30.16 15.12 46.88 17.45 1.4096-0.76-1.3408-1.7306-0.3208-3.0406 1.94 0.35 0.4808-2.3903-0.8096-2.5203l-0.34-0.6797c-6.3304-30.63 4.3704-64.29-12.58-92.4 1.8704-1.22 18.7 8.5103 14.27 1.2703-1.52-4.5-2.7008-9.2106-5.1408-13.291-7.24-29.24-19.34-57.949-38.95-81.139-13.514-17.36-35.286-28.188-57.318-27.92-0.7096 0.01-1.4216 0.028-2.1328 0.059 0.3104-1.48 0.4304-2.9887 0.3704-4.4687 1.6496-41.16 5.7408-83.5 19.141-123.05 18.97-65.39 26.949-135.22 13.818-202.51-15.4-72.83-60.509-135-111.39-187.61-25.15-23.27-43.691-52.831-70.561-74.441-21.36-20.02-50.67-30.94-79.93-29.52-68.65 3.17-132.7 31.61-200.44 40.57-87.8 10.96-180.71 0.12062-259.97-40.909 2.6-2.38 6.6296-3.3203 8.4096-6.5203-36.37 2.71-46.31-52.791-85.43-42.641-9.6688-20.02-30.179-30.769-50.979-35.589-11.62-27.29-35.9-47.491-62.38-59.641-6.1096-15.33-17.19-29.49-29.1-39.27 87.07-43.76 153.97-130.12 167.39-227.5 3.56-53.54-5.4808-108.19-25.87-157.86-0.98 1.43-1.7088 3.0797-1.8192 4.8297-2.28 0.62-4.44 1.6609-6.3 3.1109-64.05 24.6-106.4 85.48-127.17 148.8-13.54 43.56-31.16 86.18-57 123.98-4.54 8.52-7.8088-4.5206-10.57-7.5906 8.7704-7.57 12.8-21.18 4.78-30.85-12.71-12.19-30.89-15.82-47.8-17.72 29.19-19.69 65.341-28.2 91.79-51.75 7.42-5.61 5.9792-17.909-2.8608-20.759-34.99-14.86-74.76-1.1903-103.81 20.23 8.9488-12.32 20.39-24.899 20.59-41.009-0.7704-9.23-11.181-13.701-19.461-12.261-23.56-0.4-39.88 20.37-49.16 38.85-8.8896-26.33-23.41-52.02-46.179-68.68-11.58-9.15-31.03-8.7494-39.721 4.0906-11.03 14.98-5.4296 34.63-0.1704 50.75-23.63-17.12-49.95-34.581-79.92-36.561-17.48-0.97-43.109 13.32-33.539 33.87 17.45 24.53 48.149 33.59 74.969 44.27-38.44-3.47-99.449-9.69-122.96 33.1-9.08 22.58 15.81 39.05 35.27 41.4-5.6704 7.46-9.9104 16.84-16.69 23.1-26.57-35.31-47.98-74.93-59.51-117.75-21.82-65.48-62.21-132.01-129.57-157.41-3.88-2.74-8.3496-4.4303-12.859-5.8203 0.4048-1.3575 0.8984-3.997 0.184-3.8484zm210.9 296.08v0.002c-0.072 0.0637-0.1496 0.12001-0.228 0.17031 0.08-0.0505 0.1552-0.10808 0.228-0.17187zm343.32 75.489c0.016 0.11646 0.072 0.21111 0.1176 0.29063-0.048-0.078-0.09-0.17243-0.1176-0.28594zm-364.47 6.6281c0 1.0192 0.064 2.09 0.1472 3.1938-0.09-1.1037-0.148-2.1745-0.1472-3.1938z" fill="#897d71"/>
<path id="path4" d="m5631.4 10.272c-0.2381 0.04953-0.6106 0.40812-1.1656 1.2281-20.63 61.08-28.82 128.14-14.3 191.53 28.53 98.5 107.17 183.21 206.79 211.44 3.73 43.78 11.971 87.27 13.141 131.2-10.79 66.23-35.551 129.62-46.211 195.84-40.85 18.98-58.109 71.781-39.259 112.09 9.84 22.03 27.94 39.15 47.57 52.55 4.82-1.48-3.4606-4.0694-4.1906-5.9094-35.58-26.57-53.541-79.761-27.891-118.98 11.44-19.75 31.171-40.029 56.161-36.089 6.22 1.41 12.159 3.86 18.339 5.45-2.94-4.55-11.12-6.2706-13.1-10.291 44.98-58.4 122.25-93.3 195.89-84.47 58.44 7.62 115.48 37.371 150.89 85.061 6.74 5.49-2.6509 9.5597-5.4109 13.78 16.16-9.63 37.5-10.249 52.33 2.2906 22.7 20.74 37.661 53.189 30.191 84.169-5.71 26.95-25.39 47.99-46.28 64.67 23.19-11.43 42.099-31.859 52.409-55.489 17.87-40.95-2.6203-96.711-46.87-109.91-6.45-55.24-20.21-109.36-34.93-162.95-5.93-20.37-7.0697-41.849-3.6797-62.789 4.23 6.24 7.6303 13.05 12.17 19.08 7.76-7.01 13.869-15.51 20.209-23.7-5.86 46.04 25.34 90.6 69.45 103.18-11.6-14.93-15.44-34.641-14.32-53.191 12.15 45.14 47.99 87.531 96.6 92.741-10.22-17.83-14.429-37.93-17.909-57.97 16.33 23.79 50.01 36.66 76.97 28.57-19.48-8-27.28-29.24-32.38-48.05 14.27 10.2 31.51 16.611 49.05 11.641 4.92-1.42 9.6991-3.5009 14.889-3.7609 83.62 43.94 181.6 58.921 274.88 45.241 54.95-7.39 107.63-26.231 162.59-33.491 32.6-4.06 69.619-0.78 93.959 23.85 41.32 35.55 72.631 81.19 100.56 127.6 33.07 58.51 57.55 123.36 62.37 190.84 3.61 34.52-11.171 67.39-30.991 94.68-25.74 35.36-51.25 72.34-63 115.03-8.11 30.63-10.03 66.78 7.6703 94.4 25.17 20.81 56.32 51.61 44.32 87.6-36.36 96.56-61.961 199.83-50.611 303.7-24.94-12.96-52.299-22.01-80.609-22.62-11.34 0.72-22.69 1.56-33.85 3.75-19.72 4.7-38.141 13.73-54.711 25.32 12.53-30.05 39.061-50.409 57.841-76.139 51.02-67.97 55.791-163.81 20.941-239.92-26.4-48.9-63.7-91.6-106-127.2-60.38-45.95-106.8-109.34-134.36-179.89-1.32-2.55-1.3709-6.2997-3.8109-7.9297 7.16 33.26 22.67 64.03 39.38 93.43 15.33 24.12 32.06 47.43 51.6 68.35 16.34 17.81 35.671 32.501 53.491 48.741 4.89 4.03-4.3397 5.6994-6.5797 8.0094-105.52 66.21-232.9 91.051-356.2 85.211-1.04-5.29 2.96-10.26 4.4-15.25 6.35-24.79 6.3303-52.23-4.2297-75.85-8.13-17.13-20.721-32.611-36.911-42.611 24.83 22.75 43.781 55.29 38.741 90.12-0.35 32.77-24.431 57.44-35.461 86.72-24.82 60.64-37.429 126.43-37.159 191.93-0.7 41.2 13.541 80.6 16.841 121.38 2.46 41.14-4.35 85.31-29.65 118.95 11.84-42.24-20.201-84.44-61.211-93.05-13.69-3.65-28.009-2.4891-41.859-0.4891-11.53 3.49-22.871 7.4594-33.911 12.259 8.1-45.86 58.77-69.539 63.35-116.54 6.13-33.88 8.2912-68.36 10.381-102.67 1.9-68.92-0.2203-144.3-40.07-203.58-21.53-38.17-41.61-77.131-63.12-115.29-1.81-3.15-3.2394-6.5103-4.7594-9.7703-1.9-2.53-3.89-4.9291-5.75-7.4391 10.68 30.29 26.58 58.45 38.93 88.05-18.95-13.53-34.811-30.821-50.791-47.611-30.92-32.19-56.599-68.87-86.509-101.95-6.46-9.52-18.21-19.249-21.77-28.239 16.28-12.29 30.69-27.051 42.08-44.011 16.13-25.85 29.96-54.009 35.58-84.139 3.69-14.36 4.9603-29.141 7.2703-43.741-4.5-12 21.731-12.77 2.1906-11.23 2.97-12.84 3.7997-31.151 17.88-36.461 11.22 2.2 6.3406 16.92 3.9906 24.8 5.82-4.55 5.25-15.04 5.3-22.15-6.82-10.98-20.541-2.48-23.281 7.05-13.63 31.07-11.38 66.261-22.9 97.981-11.14 30.85-26.81 60.599-49.38 84.639-20.45 21.5-48.219 33.23-74.739 45.25-25.52 11.79-54.961 16.541-82.411 9.0109-23.59-5.56-45.089-17.67-66.389-28.9-10.67-5.4-20.561-12.361-29.141-20.691-27.15-26.18-45.72-60.14-57.9-95.57-10.96-31.43-9.1203-66.87-25.37-96.48-3.65-8.48-19.8-11.531-20.77 0.45936-2.83 17.43 12.94 28.83 25.6 36.95 2.11 9.3 3.1106 18.821 4.4906 28.261 7.04 59.68 35.31 120.26 86.95 153.79 7.18 2.34 5.01 10.72 6.75 16.32 7.04 40.17 42.879 72.7 83.659 75.5 31.43 1.82 66.19-2.84 90.67-24.5 16.5-15.6 27.221-37.31 28.761-60.05-2.11-4.97 6.8391-13.079 9.2391-6.1891 31.92 58.86 77.031 109.27 129.01 151.12 5.59 40.43 15.66 80.361 30.3 118.54 15.13 33.89 18.17 71.85 19.58 108.5 0.73 52.8-5.43 108.57-33.5 154.48-10.24 5.82-17.5 15.77-27.3 21.83-60.42 9.87-108.87 61.441-120.17 120.81-0.59 14.72 16.619 19.62 28.309 20.57 30.91 1.43 61.341-5.6406 91.391-11.991-14.47 24.08-31.26 53.719-19.68 82.209 14.21 24.57 46.86 25.381 71.97 28.141 89.85 4.24 169.12-76.539 169.96-165.16 4.3-57.86-20.88-113.33-14.27-171.22 4.9-71.66 15.931-146.3 53.791-208.7 110.6 20.57 225.45-6.5803 321.5-62.82 27.4 35.85 35.91 83.95 34 128.57 3.13 44.9-0.3206 97.67-36.741 129.52-24.85 21.43-47.37 45.56-70.48 68.6-41.78 15.46-78.469 52.15-81.709 98.28 1.14 9.55-1.1106 22.77 7.4094 29.58 51.43 15.16 107.29-0.4097 151.07-29.18 27.4-16.5 56.99-40.13 60.97-74.08 6.47-74.15 43.36-140.43 76.53-205.43 3.78-5.11 5.37-13.829 10.85-16.859 12.51 57.59 4.7691 121-27.911 170.81-18.28 29.75-48.56 51.191-61.83 84.161-3.2 9.61-13.24 14.28-18.4 22.62-16.58 23.74-30.38 52.53-26.78 82.18 1.33 26.07 22.881 49.67 49.491 50.67 41.48 1.69 79.969-17.31 116.54-34.62 26.05-11.67 50.071-33.76 54.961-62.98 8.75-33.69-2.5712-67.99-1.0312-102.02-2.21-49.11 8.3112-97.35 16.631-145.43 7.2-42.26 23.61-82.08 37.75-122.32 8.68-37.8-22.63-67.94-48.02-90.62-25.64-60.79 8.3894-126.28 44.259-175.06 17.83-23.51 36.07-47.88 44.77-76.47-0.24 37.01-11.84 75.919-15.83 113.79-1.72 33.38-7.1 69.581-3.6 100.93-0.51-60.71 8.5594-121 20.559-180.36 17.95-103.4-15.31-208.35-68.52-296.4 27.54 32.64 48.671 70.45 65.231 109.73 30.29 69.08 26.909 147.6 12.809 220.2-11.2 48.11-25.81 97.581-18.8 147.38 1.65-41.16 5.7406-83.5 19.141-123.05 18.97-65.39 26.949-135.22 13.819-202.51-15.4-72.83-60.509-135-111.39-187.61-25.15-23.27-43.691-52.831-70.561-74.441-21.36-20.02-50.67-30.94-79.93-29.52-68.65 3.17-132.7 31.61-200.44 40.57-87.8 10.96-180.71 0.12062-259.97-40.909 2.6-2.38 6.6294-3.3203 8.4094-6.5203-36.37 2.71-46.31-52.791-85.43-42.641-9.67-20.02-30.18-30.769-50.98-35.589-11.62-27.29-35.9-47.491-62.38-59.641-6.11-15.33-17.19-29.49-29.1-39.27 87.07-43.76 153.97-130.12 167.39-227.5 3.56-53.54-5.4803-108.19-25.87-157.86-0.98 1.43-1.7088 3.0797-1.8188 4.8297 21.1 65.15 24.63 138.63 1.7297 204.07-29.52 87.4-98.89 163.21-187.92 191.11 0.94-10.36 2.3506-20.67 2.7406-31.08 0.53-9.57 1.4388-19.12 1.9188-28.7-0.58-12.85-1.7694-25.75-5.3594-38.15-1.89-5.45-6.7397-12.4-0.5797-16.92 26.73-33.11 49.68-70.299 62.3-111.16 16.86-66.35 53.349-133.05 117.09-164.24 0.48-0.27 1.4309-0.80969 1.9109-1.0797l-0.1297-0.73906c-64.05 24.6-106.4 85.48-127.17 148.8-13.54 43.56-31.16 86.18-57 123.98-4.54 8.52-7.8103-4.5206-10.57-7.5906 8.77-7.57 12.8-21.18 4.7797-30.85-12.71-12.19-30.89-15.82-47.8-17.72 29.19-19.69 65.341-28.2 91.791-51.75 7.42-5.61 5.9791-17.909-2.8609-20.759-34.99-14.86-74.759-1.1903-103.81 20.23 8.95-12.32 20.391-24.899 20.591-41.009-0.77-9.23-11.181-13.701-19.461-12.261-23.56-0.4-39.879 20.37-49.159 38.85-8.89-26.33-23.41-52.02-46.18-68.68-11.58-9.15-31.03-8.7494-39.72 4.0906-11.03 14.98-5.4303 34.63-0.1703 50.75-23.63-17.12-49.95-34.581-79.92-36.561-17.48-0.97-43.109 13.32-33.539 33.87 17.45 24.53 48.149 33.59 74.969 44.27-38.44-3.47-99.449-9.69-122.96 33.1-9.08 22.58 15.81 39.05 35.27 41.4-5.67 7.46-9.9106 16.84-16.691 23.1-26.57-35.31-47.979-74.93-59.509-117.75-21.8-65.5-62.2-132.03-129.6-157.43 41.85 21.6 74.47 58.41 93.92 101.03 14.83 28.28 21.23 59.749 32.67 89.339 13.72 33.9 36.729 62.98 61.119 89.82-1.15 2.69-2.49 5.3003-3.8 7.9203-7.23 12.73-5.25 33.88-9.85 42.42 2.77 7.24 2.27 18.95 2.75 28.12 0.11 2.49 0.1803 4.9791 0.2203 7.4891l0.041 0.9c-0.5 7.7 3.2494 19.34 0.7594 25.03-86.31-27.57-152.92-101.06-184.13-184.8-24.52-64.18-21.6-135.01-8.4797-201.37 0.46-3.1 0.98-6.1912 1.5-9.2812 0.11-0.61 0.3203-1.8291 0.4203-2.4391 0.405-1.3575 0.8988-3.997 0.1844-3.8484zm732.42 20.808c-5.32 3.59-9.8503 8.1609-14.17 12.861-24.34 33.02-41.66 70.699-54.08 109.66-20.43 69.46-41.39 144.99-100.3 192.55 35.37-24.28 60.36-60.95 76.7-100.15 29.26-63.75 38.13-136.23 77.9-195.09 4.59-6.64 8.92-13.5 13.95-19.83zm-720.5 4.4c-0.5542-0.01144-1.0562 0.32969-1.425 1.2609 34.76 37.29 50.66 87.389 65.18 135.16 21.45 64.84 45.77 136.98 105.97 175.46-56.16-42.35-77.801-112.07-96.961-176.48-13.22-48.36-34.19-96.149-69.23-132.76-0.8456-0.88688-2.3151-2.6155-3.5344-2.6406zm343.47 73.003c37.21-0.33376 58.076 41.096 73.206 69.367 13.01-15.76 27.949-34.609 49.489-39.409 5.64-1.63 12.361 3.2997 10.491 9.6797-1.75 16.02-7.1794 33.32-18.909 44.98 28.06-12.99 59.509-23.37 90.689-20.02 10.65 2.68 0.67 14.14-4.8 16.97-27.17 16.58-63.43 25.211-80.02 54.741 19.08 4.56 43.941 0.14907 59.961 15.389 6.8 6.28 0.05 16.34-6.9797 18.8-19.38 8.15-42.52 6.1106-60.8-4.0094-2.97-1.21-3.1903-4.5909-4.1703-7.2109-5.72 33.16-18.54 87-61.17 94.27 3.82 4.89 9.1694 7.8306 15.009 9.5406-16.6 3.66-27.58-12.65-32.15-26.2-3.55-12.62-10.95-26.701-4.1297-39.561-0.05-1.33 0.06-2.64 0.1203-3.95-17.35 29.4-39.61 56.19-66.78 77.02-11.23 7.78-23.411 16.79-37.811 16.13 0.79 4.37 1.9912 8.6806 2.8812 13.041-20.39-7.94-14.55-34.32-9.8203-50.95 8.98-21.86 20.45-43.17 37.15-60.18-18.63 9.04-25.08 32.71-42.88 43.47-16.02 11.37-36.47 24.559-56.67 17.619-0.45 5.2 0.7691 10.26 2.3391 15.15-13.12-6.83-10.199-25.949-6.3891-37.469 11.45-27.7 34.67-53.37 62.15-64.87 11.52-2.72 24.359-4.0897 34.139-11.33-31.66 1.27-68.509 8.54-97.889-9.45-9.41-4.74-15.85-18.62-4.8297-25.87 37.88-29.66 91.01-21.731 134.85-20.791-32.69-13.18-67.971-28.039-88.261-58.489-5.32-7.17 0.041-13.561 7.4109-14.831 31.27-6.29 60.669 11.861 87.719 24.941 13.17 4.19 11.95 21.261 22.02 28.941-7.85-23.52-22.75-52.501-6.95-75.411 0.5989-0.0266 1.1937-0.0416 1.7844-0.0469zm-102.8 164.69c-14.89 9.27-30.15 18.79-41.28 32.62-1.17 2.06-4.46 0.79876-3.5-1.5812 4.4-11.16 10.8-21.62 18.2-31.03 8.86 0.54 17.73 0.80062 26.58-0.009zm212.8 7.0594c18.08 10.07 39.221 17.06 59.941 11.92 22.61 32.01 17.61 73.7 15.15 110.73-2.34 48.66-9.7809 97.08-9.7109 145.8 9.61 51.09 25.98 100.61 36.75 151.48-23.17-30.38-54.66-53.79-87.9-71.3-34.91-14.56-71.749-26.839-109.91-27.669-54.82 3.14-109.23 22.33-153.23 54.4-14.27 13.83-30.751 27.059-44.131 42.159 9.76-45.37 25.96-89.03 38.27-133.72 6.13-21.47 3.1303-43.8 1.5703-65.65-3.68-41.09-6.3997-82.34-11.03-123.3 6.62 4.64 14.739 4.7197 22.489 3.8797 13.71-4.41 27.13-13.919 39.07-22.959-6.31 17.28-11.62 43.19 5.9703 55.87 17.89 11.9 40.48 0.24031 54.2-12.58 23.84-20.82 42.839-47.641 54.109-77.261 1.39 22.73 7.9103 54.98 35.17 58.9 29.38 1.4 45.74-29.099 50.6-54.209 2.04-15.39 3.7903-30.901 2.6203-46.491zm125.71 119.45c1.6383-0.0115 3.126 0.66593 4.3438 2.525 20.17 15.26 26.931 42.121 26.591 66.311 4.97 40.7-10.84 81.079-3.3203 121.64-18.52-28.26-23.05-63.029-28.55-95.739-2.18-13.51-10.151-31.23-26.291-30.58 7.56 21.13-0.5797 44.979-8.5297 64.989-12.12-37.28 8.5203-77.959 2.2703-116.56 6.48-2.83 13.259-4.9506 19.959-7.1906 4.1687-0.83375 9.3399-5.366 13.526-5.3953zm37.353 41.545c10.26 4.57 18.921 12.341 26.261 20.691 10.78 8.25 18.319 20.75 24.109 33 5.16 45.08 10.8 90.25 21.48 134.43 1.57 3.5-2.2888 2.3397-3.9188 0.87969-36.4-26.95-51.981-72.96-57.841-116.17-1.27-18.52-11.139-35.469-7.9094-54.389-0.02-6.22-1.1712-12.331-2.1812-18.441zm-197.74 39.28c-21.4 2.67-25.65 35.23-7.9703 45.55 9.56 6.07 23.36 0.98124 27.75-9.1688 8.65-14.39-2.2897-36.581-19.78-36.381zm-120.87 0.15c-25.24 3.81-30.211 49.481-1.1906 51.941 29.26-1.31 25.521-45.961 1.1906-51.941zm-16 16.4c1.51 7.71 3.5006 18.281 12.491 20.341 7.88 2.42 12.239-5.1697 16.459-10.18-1.78 7.86-6.53 17.97-16 17.58-12.38-1.94-16.55-17.161-12.95-27.741zm121.61 1.2609c2.99 5.57 3.78 17.279 12.85 19.109 8.15 2.42 12.601-4.83 16.491-10.25-1.5 7.13-7.5497 14.95-15.68 13.73-10.11-2.14-13.501-13.579-13.661-22.589zm276.13 2.8203c13 4.87 27.649 11.8 31.159 26.73 10.35 30.42 21.319 60.93 38.809 88.1-25.55-6.67-45.029-29.18-51.609-54.33-4.47-16.14-11.301-31.64-14.941-47.97-1.47-4.1-2.7788-8.2397-3.4188-12.53zm50.88 35.039c30.98 2.8 46.42 39.811 78.08 40.691-32.53 8.42-66.12-9.9806-78.08-40.691zm-372.12 70.828c18.635 0.14593 37.208 2.9875 55.203 9.0625 19.9 5.09 39.52 12.4 57.15 22.93 34.53 18.33 69.31 42.73 88.05 77.85 0.85 7.66 2.5106 15.27 2.4406 23.02-7.62-0.49-14.851 2.2294-22.291 2.8594-40.06-57.27-108.76-90.37-177.72-94.15-57.08 1.08-112.83 24.14-155.78 61.33-8.48 9.93-18.81 19.321-27.05 29.961-8.59-1.78-17.55-2.9309-26.08-0.11093-0.72-33.45 27.42-56.4 50.68-75.88 43.035-33.495 99.492-57.31 155.4-56.872zm-6.3594 118.75c-24.071 0.33076-47.664 7.2753-65.388 24.292 37.17-15.97 80.47-21.871 119.83-10.941 6.88 1.47 13.401 4.2103 20.191 6.0203-7.91-5.56-17.55-7.8903-26.28-11.87-15.19-4.8588-31.884-7.7279-48.353-7.5016zm-3.9 18.2c-0.2125 0.0314-0.4106 0.3325-0.5656 1.05-4.73 72.4 3.51 144.58 8 216.74 1.09 4.54-0.3588 11.33 2.0812 14.13 0.95-23.75 1.1597-47.49 2.3797-71.22 0.05-52.73 0.8797-105.78-10.37-157.6-0.12-0.855-0.8875-3.1942-1.525-3.1zm-207.02 100.23c12.8 2.33 13.1 20.92 16.42 30.83-12.91-1.5-25.65-19.83-16.42-30.83zm281.7 176.95c-31.76 29.23-81.8 30.42-117.6 8.2-3.72-2.15-15.969-13.079-10.519-4.4094 30.56 38.54 92.14 34.89 125.03 1.1297 1.03-1.65 2.0691-3.2803 3.0891-4.9203zm36.12 48.22c-3.19 32.1-25.38 63.139-57.28 71.659-21.38 5.67-44.889 7.9406-66.359 1.9906-34.52-5.12-64.021-31.509-74.281-64.809-0.62-1.95-1.1091-3.9309-1.4891-5.9109 32.73 15.32 66.849 32.821 104.11 30.811 34.68-0.17 65-19.551 95.3-33.741zm1037.7 133.45c-0.7107 0.01-1.4219 0.028-2.1328 0.059-1.66 1.68-11.67 1.3012-7.0703 5.2312-4.35-2.97-10.599 6.5188-8.5094-3.1812-29.81 73.47 2.89 163.78 69.75 205.09 4.07 1.86 2.7503-2.1197 2.2703-4.9297 13.62 10.4 30.16 15.12 46.88 17.45 1.41-0.76-1.3403-1.7306-0.3203-3.0406-12.35-3.04-25.299-9.3-31.039-21.3-16.29-30.28-26.061-65.029-51.461-89.509-19.55-27.3-40.91-65.76-25.22-98.68-0.19-0.56-0.5491-1.6806-0.7391-2.2406 23.65-4.22 43.98 12.849 58.77 29.109 19.8 20.64 32.54 46.581 43.13 72.841 0.64 0.7 1.2894 1.4194 1.9594 2.1594-7.24-29.24-19.34-57.949-38.95-81.139-13.514-17.36-35.286-28.188-57.317-27.92zm-278.82 19.42c43.94 43.08 91.29 90.99 103.48 153.7-22.19 28.09-41.59 59.289-58.58 91.139-19.22 41.1-28.871 86.13-32.531 131.15-21.95-21.9-54.089-31.32-84.609-29.48-4.06 0.23-7.9797 0.8797-11.98 1.2797-10.45 2.04-20.901 4.2603-30.891 8.0703 24.6-25.5 52.68-47.489 79.75-70.289 24.67-25.11 34.1-61.081 35.65-95.361 1.48-40.7 0.84-83.9-18.7-120.77-6.4-14.27-16.3-27.699-25.62-40.619 15.16-8.85 29.931-18.36 44.031-28.82zm-613.31 0.059c11.86 10.04 29.36 15.46 34.12 31.77 13.54 32.47 35.33 61.629 42.38 96.609 19.43 75.05 16.68 153.61 9.4703 230.14-1.03 17.34-5.6803 35.559-16.82 49.009-13.76-6.68-29.45-8.8694-44.13-10.559-6.43-0.06-12.85 0.01-19.25-0.4-4.04-0.45-23.261 4.5703-12.591-2.9797 27.6-16.23 39.4-48.181 48.6-77.261 15.36-59.92 18.381-123.84 4.0109-184.22-10.94-28.45-24.211-56.061-33.111-85.291-4.84-15.43-9.1997-31.02-12.68-46.82zm946.2 72.841c4.26 9.71 12.851 17.509 21.911 22.939 4.4 2.34 10.29 4.1309 9.65 10.461 4.79 29.14 2.1991 60.109 14.089 87.759-6.33-30.63 4.3703-64.29-12.58-92.4 1.87-1.22 18.7 8.5103 14.27 1.2703-17.84-5.36-28.541-25.24-47.341-30.03zm-400.11 283.31c4.13 34.2-8.4706 70.14-34.141 93.35-20.74 19.68-51.839 30.731-78.659 30.591-4.11-1.67-11.491-0.8097-10.691-7.0797-6.29-45.36 30.47-83.14 68.95-100.55 16.32-8.04 35.581-15.541 54.541-16.311zm180.33 39.52c12.403-0.042 24.779 1.6213 36.644 5.15 19.65 34.13 6.5797 77.709-18.27 105.51-30.8 31.92-74.831 64.17-121.71 51.57-20.65-6.75-30.379-30.719-27.919-51.009 5.91-41.64 32.249-80.3 71.239-97.52 18.594-8.8187 39.345-13.629 60.017-13.7zm-711.36 8.75c-0.61 2.11-3.7212 2.2606-5.4812 3.2906 0.55 51.4-33.099 101.56-78.039 125.33-13.7 2.71-29.111 3.4797-42.711-0.4203-7.01-0.49-15.609-3.4797-17.539-11.08 16.58-64.47 77.86-112.69 143.77-117.12zm57.609 77.467c18.062 0.071 36.069 4.0546 52.37 12.183-6.51 58.78-48.16 111.79-104.15 131.35-13.82 8.27-31.56 1.7897-42.45-7.6203-16.43-15.93-12.59-41.389-4.7297-60.559 11.78-27.22 29.589-56.08 57.489-68.53 13.339-4.5675 27.422-6.879 41.47-6.8234z" fill="#523e3d"/>
<path id="path8" d="m5630.8 16.559c-0.52 3.09-1.04 6.1812-1.5 9.2812 4 33.88-1.9097 68.339 2.4203 102.39 0.72-31.71-0.9803-63.62 3.2297-95.15 0.54 0.2 1.6303 0.60094 2.1703 0.81094 1.68 0.8 3.2497 1.8 4.7797 2.85 1.18-2.98 3.7294 0.08969 4.9594 1.3797 35.04 36.61 56.01 84.399 69.23 132.76 19.16 64.41 40.801 134.13 96.961 176.48 1.68 1.05 3.3691 2.1009 5.0891 3.1109 4.6-8.54 2.62-29.69 9.85-42.42-39.16-21.78-63.53-61.881-77.98-103.09-13.29-36.29-20.03-75.289-40.15-108.84-18.68-33.08-48.009-58.421-79.059-79.561zm736.09 2.5766c-1.0337 0.0077-2.354 0.44406-3.9859 1.4437-0.48 0.27-1.4309 0.80969-1.9109 1.0797-47.71 38.29-76.839 97.141-99.159 154.19-17.77 45.19-38.03 93.779-80.23 121.21-6.16 4.52-1.3103 11.47 0.5797 16.92 15.59 4.42 28.86-6.5594 38.57-17.209 40.73-48.1 56.739-110.6 78.689-168.3 12.25-30.33 23.25-63.9 50.22-84.53 4.32-4.7 8.8503-9.2709 14.17-12.861 1.33-0.74 2.8006-1.2091 4.2406-1.7391 2.5391-4.7891 2.5077-10.232-1.1844-10.205zm-484.5 115.05c-7.23 3.14 0.04 10.939 3.3703 14.119 21.09 19.25 46.73 33.761 74.1 41.931-26.14-17.92-47.76-44.56-77.47-56.05zm-245.4 41.82c7.15 60.64 42.65 114.6 86.4 155.64 28.07 25 60.58 47.19 97.82 55.33l-0.041-0.9c-91.88-32.24-164.88-114.3-184.18-210.07zm310.36 30.517c-7.2471 0.11211-15.364 1.2391-21.739 1.0641-31.02 1.98-63.861 3.1294-91.941 17.959-4.49 2.35-12.05 8.45-8.6297 14.3 11.2 6.39 23.869-2.1894 34.309-6.5594 31.88-11.99 67.681-17.2 99.541-25.37-3.1575-1.1625-7.1924-1.461-11.541-1.3938zm-50.489 64.294c-27.48 11.5-50.7 37.17-62.15 64.87-3.81 11.52-6.7309 30.639 6.3891 37.469-1.57-4.89-2.7891-9.95-2.3391-15.15 3.29-36.71 32.31-63.869 58.1-87.189zm54.38 14.25c-4.44 3.82-8.6297 7.89-12.93 11.85-16.7 17.01-28.17 38.32-37.15 60.18-4.73 16.63-10.57 43.01 9.8203 50.95-0.89-4.36-2.0912-8.6706-2.8812-13.041-5.21-41.33 21.301-77.559 43.141-109.94zm61.33 20.739c-6.82 12.86 0.5797 26.941 4.1297 39.561 4.57 13.55 15.55 29.86 32.15 26.2-5.84-1.71-11.189-4.6506-15.009-9.5406-13.62-15.54-18.45-36.3-21.27-56.22zm-4.1203 16.22c-11.27 29.62-30.269 56.441-54.109 77.261-13.72 12.82-36.31 24.48-54.2 12.58-17.59-12.68-12.28-38.59-5.9703-55.87-11.94 9.04-25.36 18.549-39.07 22.959 1.25 33.89 2.9709 67.821 7.4609 101.49 7.53 59.04-11.21 116.6-14.63 175.14 44-32.07 98.41-51.26 153.23-54.4 38.16 0.83 74.999 13.109 109.91 27.669-10.54-45.44-10.969-92.779-3.9594-138.79 7.92-54.41 9.1494-111.89-12.891-163.35-4.86 25.11-21.22 55.609-50.6 54.209-27.26-3.92-33.78-36.17-35.17-58.9zm214.1 77.655c-4.1866 0.0293-9.3578 4.5616-13.526 5.3953 20.18 16.43 32.46 41.24 35 66.97 1.95-24.35-2.3597-49.871-17.13-69.841-1.2178-1.8591-2.7055-2.5365-4.3438-2.525zm37.353 41.545c1.01 6.11 2.1612 12.221 2.1812 18.441 27.49 17.6 38.699 52.589 47.069 80.989-0.28-27.75-9.2791-54.809-22.989-78.739-7.34-8.35-16.001-16.121-26.261-20.691zm-197.74 39.28c17.49-0.2 28.43 21.991 19.78 36.381-4.39 10.15-18.19 15.239-27.75 9.1688-17.68-10.32-13.43-42.88 7.9703-45.55zm-120.87 0.15c24.33 5.98 28.069 50.631-1.1906 51.941-29.02-2.46-24.049-48.131 1.1906-51.941zm-16 16.4c-3.6 10.58 0.57 25.801 12.95 27.741 9.47 0.39 14.22-9.7197 16-17.58-4.22 5.01-8.5794 12.6-16.459 10.18-8.99-2.06-10.981-12.631-12.491-20.341zm121.61 1.2609c0.16 9.01 3.5509 20.449 13.661 22.589 8.13 1.22 14.18-6.5997 15.68-13.73-3.89 5.42-8.3406 12.67-16.491 10.25-9.07-1.83-9.86-13.539-12.85-19.109zm276.13 2.8203c0.64 4.29 1.9488 8.4297 3.4188 12.53 10.21 2.42 19.481 7.85 27.741 14.2-3.51-14.93-18.159-21.86-31.159-26.73zm-321.24 105.87c-55.905-0.43782-112.36 23.377-155.4 56.872 1.2 15.32 0.79 30.73 2.45 46.03 42.95-37.19 98.7-60.25 155.78-61.33 68.96 3.78 137.66 36.88 177.72 94.15 7.44-0.63 14.671-3.3494 22.291-2.8594 0.07-7.75-1.5906-15.36-2.4406-23.02-11.21 12.46-27.72-2.54-38.23-8.8-26.5-13.78-41.39-41.45-49.82-69.05-17.63-10.53-37.25-17.84-57.15-22.93-17.995-6.075-36.568-8.9166-55.203-9.0625zm924.88 37.033c-1.1499 0.001-2.286 0.0191-3.4063 0.05-70.38 8.05-131.57 46.68-196.65 71.48-31.75 12.22-63.741 25.83-98.111 27.97-33.2 1.83-65.11-9.2806-96-19.991-27.64-10.73-55.429-24.461-85.989-22.191-32.39 2.4-58.95 24.021-81.2 45.911-43.91 50.04-80.88 108.3-96.25 173.74-10.09 39.07-10.26 79.871-20.02 118.99-8.52 38.55-16.599 78.89-8.1094 118.18 1.52 3.26 2.9494 6.6203 4.7594 9.7703 47.37 61.65 104.69 128.26 113.07 210.34 10.02 91.67 4.3491 188.03-36.161 272.27-6.44 13.65-14.319 27.551-13.539 43.211 13.85-2 28.169-3.1609 41.859 0.4891 18.57-3.16 39.05-13.99 42.1-34.38 5.73-37.46-1.9803-75.32-2.0203-112.95-2.46-63.2 15.08-125.43 41.72-182.25 19.69-35.94 38.73-75.25 35.28-117.45-0.69-48.38-28.299-90.829-59.759-125.46 20.97 15.98 36.869 37.32 54.209 56.88 99.96 30.99 225.42 11.189 290.8-77.041-16.71-29.4-32.22-60.17-39.38-93.43 2.44 1.63 2.4909 5.3797 3.8109 7.9297 0.32-0.16 0.9794-0.4688 1.3094-0.6188 21.94 41.99 49.03 81.489 81.4 116.16 39.43 42.28 90.751 71.489 128.84 115.16 27.21 29.85 50.819 64.54 60.869 104.12 7.05 25.82 4.23 52.941 3.2 79.311-3.66 45.12-12.259 91.789-38.139 129.89-9.87 16.55-18.48 34.42-21.25 53.68 11.16-2.19 22.51-3.03 33.85-3.75 18.91-12.45 37.44-27.509 46.28-49.039 22.19-50.62 2.9194-108.5 23.509-159.52 9.71-25.76 28.66-49.77 24.27-78.98-7.65-53-65.05-85.97-62.43-142.3 5.42-47.71 39.651-85.13 57.541-128.32 37.19-76.11 21.15-165.83-7.9-241.88-13.52-35.97-32.511-70.8-35.141-109.85-2.7222-41.772-51.58-56.171-87.223-56.13zm152.33 77.039c53.21 88.05 86.47 193 68.52 296.4-12 59.36-21.069 119.65-20.559 180.36-3.5-31.35 1.88-67.551 3.6-100.93-6.37 35.56-9.2603 71.88-8.2703 108-2.09 9.7 4.1594 0.2112 8.5094 3.1812-4.6-3.93 5.4103-3.5512 7.0703-5.2312 0.31-1.48 0.4303-2.9888 0.3703-4.4688-7.01-49.8 7.6-99.271 18.8-147.38 14.1-72.6 17.481-151.12-12.809-220.2-16.56-39.28-37.691-77.09-65.231-109.73zm59.973 486.03c-2.157 0.04-4.3453 0.2482-6.5625 0.6438 0.19 0.56 0.5491 1.6806 0.7391 2.2406 45.57 17.44 79.06 57.389 99.9 100.39 0.32-0.17 0.9509-0.5097 1.2609-0.6797-10.59-26.26-23.33-52.201-43.13-72.841-13.403-14.736-31.357-30.136-52.208-29.753zm-866.65 74.664c2.97 17.96 12.2 33.89 17.98 50.97 27.89 82.15 32.99 177.42-10.2 255.32-6.2 12.3-14.229 23.871-26.459 30.791 6.4 0.41 12.82 0.34 19.25 0.4 12.25-4.73 18.859-18.97 25.959-29.45 22.7-45.69 22.751-98.42 20.591-148.2-2.91-55.71-13.56-113.87-47.12-159.83zm574.1 10.239c17.15 24.64 24.551 54.39 24.541 84.17 0.74 41.93-0.4006 89.47-28.091 123.65-23.85 21.43-54.669 38.09-65.909 70.18 4-0.4 7.9197-1.0497 11.98-1.2797 18.13 1.4 35.29-7.0594 49.67-17.159 18.08-19.67 26.41-45.73 35.77-70.25 12.49-38.49 23.319-77.821 27.939-118.11 1.68-18.54 2.6097-40.599-11.42-55.059-11.91-11.39-29-13.401-44.48-16.141zm369.56 26.05c11.53 32.09-2.2303 72.92 24.08 98.9l-0.3406-0.6797c-11.89-27.65-9.2991-58.619-14.089-87.759 0.64-6.33-5.25-8.1209-9.65-10.461zm-476.56 276.68c-38.48 17.41-75.24 55.19-68.95 100.55-0.8 6.27 6.5806 5.4097 10.691 7.0797 4.71-2.21 2.28-9.1403 4.15-13.07 5.8-36.93 28.249-69.389 54.109-94.559zm-476.6 32c-65.91 4.43-127.19 52.65-143.77 117.12 1.93 7.6 10.529 10.59 17.539 11.08 18.18-57.38 64.34-104.36 120.75-124.91 1.76-1.03 4.8712-1.1806 5.4812-3.2906zm651.34 4.95c-38.99 17.22-65.329 55.88-71.239 97.52-2.46 20.29 7.2688 44.259 27.919 51.009-16.38-53.09 13.23-106.88 43.32-148.53zm-635.2 79.341c-27.9 12.45-45.709 41.31-57.489 68.53-7.86 19.17-11.7 44.629 4.7297 60.559-0.88-48.14 26.439-90.859 52.759-129.09z" fill="#aba299"/>
<path id="path14" d="m6361 21.659c-63.74 31.19-100.23 97.891-117.09 164.24-12.62 40.86-35.57 78.049-62.3 111.16 42.2-27.43 62.46-76.019 80.23-121.21 22.32-57.05 51.449-115.9 99.159-154.19zm-731.69 4.1812c-13.12 66.36-16.04 137.19 8.4797 201.37 31.21 83.74 97.82 157.23 184.13 184.8 2.49-5.69-1.2594-17.33-0.7594-25.03-37.24-8.14-69.75-30.33-97.82-55.33-43.75-41.04-79.25-95.001-86.4-155.64-2.98-15.76-4.4694-31.77-5.2094-47.78-4.33-34.05 1.5797-68.509-2.4203-102.39zm254.7 247.33c-8.85 0.81-17.72 0.54938-26.58 0.009-7.4 9.41-13.8 19.87-18.2 31.03-0.96 2.38 2.33 3.6412 3.5 1.5812 11.13-13.83 26.39-23.35 41.28-32.62zm-51.43 101.91c4.63 40.96 7.3497 82.21 11.03 123.3 1.56 21.85 4.5597 44.18-1.5703 65.65-12.31 44.69-28.51 88.35-38.27 133.72 13.38-15.1 29.861-28.329 44.131-42.159 3.42-58.54 22.16-116.1 14.63-175.14-4.49-33.67-6.2109-67.601-7.4609-101.49-7.75 0.84-15.869 0.76031-22.489-3.8797zm614.01 208.15c-5.19 0.26-9.9691 2.3409-14.889 3.7609 60.76 41.82 135.05 59.589 207.98 62.309 114.13 7.34 224.34-36.21 338.34-30.47-24.34-24.63-61.359-27.91-93.959-23.85-54.96 7.26-107.64 26.101-162.59 33.491-93.28 13.68-191.26-1.3006-274.88-45.241zm-423.4 72.63c-0.53 0.3-1.5794 0.91031-2.1094 1.2203 17.04 20.23 32.86 49.35 22.65 76.18 8.73 3.98 18.37 6.3103 26.28 11.87-6.79-1.81-13.311-4.5503-20.191-6.0203 33.54 21.41 64.54 49.47 80.03 87.02 29.54 68.78 11.15 151-34.2 208.53-27.62 36.31-73.93 55.561-119.08 53.331 27.45 7.53 56.891 2.7791 82.411-9.0109 26.52-12.02 54.289-23.75 74.739-45.25 22.57-24.04 38.24-53.789 49.38-84.639 11.52-31.72 9.27-66.911 22.9-97.981 2.74-9.53 16.461-18.03 23.281-7.05 7.14 19.96-12.761 37.291-29.361 45.041-2.31 14.6-3.5803 29.381-7.2703 43.741 5.7 2.28 1.0409-24.081 12.261-27.011 20.89-16.68 40.57-37.72 46.28-64.67 7.47-30.98-7.4906-63.429-30.191-84.169-14.83-12.54-36.17-11.921-52.33-2.2906 2.76-4.22 12.151-8.2897 5.4109-13.78-35.41-47.69-92.451-77.441-150.89-85.061zm-176.85 8.0203c-23.26 19.48-51.4 42.43-50.68 75.88 8.53-2.82 17.49-1.6691 26.08 0.11093 8.24-10.64 18.57-20.031 27.05-29.961-1.66-15.3-1.25-30.71-2.45-46.03zm-31.167 80.8c-21.729 0.34774-38.906 18.681-49.273 36.58 7.05-0.96 10.231-10.159 17.981-10.589 17.64-3.15 26.399 17.35 28.569 31.9 10.67 81.02 20.881 166.91 68.591 235.83 8.58 8.33 18.471 15.291 29.141 20.691-53.44-64.76-63.32-153.4-69.67-234.68-1-26.31 0.29-60.659-18.45-79.239-2.3428-0.36937-4.6396-0.5266-6.8875-0.49062zm175.7 0.32c-7.88 0.59-6.96 12.34-9 17.92-3.8 71.65 8.6609 142.82 15.161 214 2.56-3.6 0.7191-10.54 1.8391-15.18-4.49-72.16-12.73-144.34-8-216.74zm2.0906 2.05c11.25 51.82 10.42 104.87 10.37 157.6 1.12 4.24-0.7906 10.511 1.5594 13.241 3.93-46 6.4306-92.39-0.6094-138.22-2.2-10.67-1.1-26.72-11.3-32.62zm87.17 259.15c-37.23 28-87.941 34.9-131.61 23.13 35.8 22.22 85.84 21.03 117.6-8.2-1.02 1.64-2.0591 3.2703-3.0891 4.9203 5.48-2.04 13.07-12.83 17.1-19.85zm638.78 9.2906c-0.33 0.15-0.9894 0.4588-1.3094 0.6188 27.56 70.55 73.979 133.94 134.36 179.89 42.34 35.62 79.561 78.25 105.94 127.07 34.85 76.11 30.079 171.95-20.941 239.92-18.78 25.73-45.311 46.089-57.841 76.139 16.57-11.59 34.991-20.62 54.711-25.32 2.77-19.26 11.38-37.13 21.25-53.68 25.88-38.1 34.479-84.769 38.139-129.89 1.03-26.37 3.85-53.491-3.2-79.311-10.05-39.58-33.659-74.27-60.869-104.12-38.09-43.67-89.411-72.879-128.84-115.16-32.37-34.67-59.46-74.169-81.4-116.16zm-561.87 1.4891c-11.39 16.96-25.8 31.721-42.08 44.011 32.11 12.3 64.241 30.13 82.941 60.08 11.07 22.15 20.509 45.959 25.339 70.109 15.98 16.79 31.841 34.081 50.791 47.611-12.35-29.6-28.25-57.76-38.93-88.05-21.7-46.85-48.181-91.631-78.061-133.76zm-54.8 52.37c-30.3 14.19-60.62 33.571-95.3 33.741-37.26 2.01-71.379-15.491-104.11-30.811 0.38 1.98 0.8691 3.9609 1.4891 5.9109 26.62 30.71 75.94 41.079 115.9 30.189-5.29 18.7-24.599 28.53-41.619 34.62 21.47 5.95 44.979 3.6794 66.359-1.9906 31.9-8.52 54.09-39.559 57.28-71.659zm143.37 98.6c21.51 38.16 41.59 77.121 63.12 115.29 39.85 59.28 41.97 134.66 40.07 203.58-2.09 34.31-4.2512 68.79-10.381 102.67-4.58 47-55.25 70.679-63.35 116.54 11.04-4.8 22.381-8.7694 33.911-12.259-0.78-15.66 7.0991-29.561 13.539-43.211 40.51-84.24 46.181-180.6 36.161-272.27-8.38-82.08-65.7-148.69-113.07-210.34zm559.16 2.0094c-11.9 7.77-21.97 18.13-34.5 24.97-7.71 41.26-41.589 73.96-79.339 90.03-59.74 26.44-128.2 25.571-191.05 11.711-1.44 4.99-5.44 9.96-4.4 15.25 123.3 5.84 250.68-19.001 356.2-85.211 2.24-2.31 11.47-3.9794 6.5797-8.0094-17.82-16.24-37.151-30.931-53.491-48.741zm-544.3 99.141c8.9 29.23 22.171 56.841 33.111 85.291 14.37 60.38 11.349 124.3-4.0109 184.22-9.2 29.08-21 61.031-48.6 77.261-10.67 7.55 8.5506 2.5297 12.591 2.9797 12.23-6.92 20.259-18.491 26.459-30.791 43.19-77.9 38.09-173.17 10.2-255.32-5.78-17.08-15.01-33.01-17.98-50.97-3.95-3.35-6.3803-12.69-11.77-12.67zm582.22 22.559c19.54 36.87 20.18 80.07 18.7 120.77-1.55 34.28-10.98 70.251-35.65 95.361-27.07 22.8-55.15 44.789-79.75 70.289 9.99-3.81 20.441-6.0303 30.891-8.0703 11.24-32.09 42.059-48.75 65.909-70.18 27.69-34.18 28.831-81.72 28.091-123.65 0.01-29.78-7.3906-59.53-24.541-84.17-1.23-0.15-2.45-0.23-3.65-0.35z" fill="#f3dad0"/>
<path id="path18" d="m6368.1 29.341c-1.44 0.53-2.9106 0.99906-4.2406 1.7391-5.03 6.33-9.36 13.19-13.95 19.83-22.93 46.6-33.169 97.831-43.709 148.31-8.27 44.96-28.611 86.899-55.061 123.91-8.25 12.51-20.19 24.181-22.07 39.761 40.3-21.61 74.881-53.98 98.981-92.85 43.99-71.13 53.97-159.32 40.05-240.7zm-733.12 3.7391c-4.21 31.53-2.5097 63.44-3.2297 95.15 0.74 16.01 2.2294 32.02 5.2094 47.78 19.3 95.77 92.3 177.83 184.18 210.07-0.04-2.51-0.1103-4.9991-0.2203-7.4891-0.63-2.08-1.1688-4.5512-3.5688-5.1812-29.7-13.87-55.5-35.93-73.4-63.41-55.7-83.86-49.8-192.86-106.9-276.11-0.54-0.21-1.6303-0.61094-2.1703-0.81094z" fill="#f79d9f"/>
<path id="path24" d="m5637.1 33.891c57.1 83.249 51.2 192.25 106.9 276.11 17.9 27.48 43.651 49.539 73.341 63.409 2.4 0.63 2.9388 3.1012 3.5688 5.1812-0.48-9.17 0.02-20.88-2.75-28.12-1.72-1.01-3.4091-2.0609-5.0891-3.1109-60.2-38.48-84.5-110.62-106-175.46-14.52-47.77-30.42-97.869-65.18-135.16-1.53-1.05-3.0997-2.05-4.7797-2.85zm712.8 17.018c-39.8 58.861-48.6 131.34-77.9 195.09-16.34 39.2-41.33 75.87-76.7 100.15-2.59 1.99-5.1806 3.9597-7.7406 5.9797-0.48 9.58-1.3888 19.13-1.9188 28.7-0.73 3.48 3.6297 0.25062 5.3797 0.0406 12.68-5.92 26.349-10.2 38.039-17.98 1.88-15.58 13.82-27.251 22.07-39.761 26.45-37.01 46.791-78.949 55.061-123.91 10.54-50.48 20.779-101.71 43.709-148.31z" fill="#dd7b61"/>
<path id="path32" d="m5986.8 108.48c-0.5907 0.005-1.1855 0.0203-1.7844 0.0469-15.8 22.91-0.9 51.891 6.95 75.411-10.07-7.68-8.8503-24.751-22.02-28.941-27.05-13.08-56.449-31.231-87.719-24.941-7.37 1.27-12.731 7.6612-7.4109 14.831 20.29 30.45 55.571 45.309 88.261 58.489-43.84-0.94-96.97-8.8694-134.85 20.791-11.02 7.25-4.5803 21.13 4.8297 25.87 29.38 17.99 66.229 10.72 97.889 9.45-9.78 7.24-22.619 8.6097-34.139 11.33-25.79 23.32-54.81 50.479-58.1 87.189 20.2 6.94 40.65-6.2488 56.67-17.619 17.8-10.76 24.25-34.43 42.88-43.47 4.3-3.96 8.4897-8.03 12.93-11.85-21.84 32.38-48.351 68.609-43.141 109.94 14.4 0.66 26.581-8.3497 37.811-16.13 27.17-20.83 49.43-47.62 66.78-77.02-0.06 1.31-0.1703 2.62-0.1203 3.95 2.82 19.92 7.6503 40.68 21.27 56.22 42.63-7.27 55.45-61.11 61.17-94.27 0.98 2.62 1.2003 6.0009 4.1703 7.2109 18.28 10.12 41.42 12.159 60.8 4.0094 7.03-2.46 13.78-12.52 6.9797-18.8-16.02-15.24-40.881-10.829-59.961-15.389 16.59-29.53 52.85-38.161 80.02-54.741 5.47-2.83 15.45-14.29 4.8-16.97-31.18-3.35-62.629 7.0303-90.689 20.02 11.73-11.66 17.159-28.96 18.909-44.98 1.87-6.38-4.8506-11.31-10.491-9.6797-21.54 4.8-36.479 23.649-49.489 39.409-15.13-28.271-35.997-69.701-73.206-69.367zm-104.45 25.708c29.71 11.49 51.33 38.13 77.47 56.05-27.37-8.17-53.01-22.681-74.1-41.931-3.33-3.18-10.6-10.979-3.3703-14.119zm64.95 72.336c4.3482-0.0673 8.3831 0.23126 11.541 1.3938-31.86 8.17-67.661 13.38-99.541 25.37-10.44 4.37-23.109 12.949-34.309 6.5594-3.42-5.85 4.1397-11.95 8.6297-14.3 28.08-14.83 60.921-15.979 91.941-17.959 6.375 0.175 14.492-0.95195 21.739-1.0641zm279.4 195.68c14.77 19.97 19.08 45.491 17.13 69.841-2.54-25.73-14.82-50.54-35-66.97-6.7 2.24-13.479 4.3606-19.959 7.1906 6.25 38.6-14.39 79.279-2.2703 116.56 7.95-20.01 16.09-43.859 8.5297-64.989 16.14-0.65 24.111 17.07 26.291 30.58 5.5 32.71 10.03 67.479 28.55 95.739-7.52-40.56 8.2903-80.939 3.3203-121.64 0.34-24.19-6.4206-51.051-26.591-66.311zm35.191 57.461c-3.23 18.92 6.6394 35.869 7.9094 54.389 5.86 43.21 21.441 89.22 57.841 116.17 1.63 1.46 5.4888 2.6203 3.9188-0.87969-10.68-44.18-16.32-89.35-21.48-134.43-5.79-12.25-13.329-24.75-24.109-33 13.71 23.93 22.709 50.989 22.989 78.739-8.37-28.4-19.579-63.389-47.069-80.989zm64.369 54c3.64 16.33 10.471 31.83 14.941 47.97 6.58 25.15 26.059 47.66 51.609 54.33-17.49-27.17-28.459-57.68-38.809-88.1-8.26-6.35-17.531-11.78-27.741-14.2zm47.461 22.509c11.96 30.71 45.55 49.111 78.08 40.691-31.66-0.88-47.1-37.891-78.08-40.691zm759.24 673.81c-15.69 32.92 5.6703 71.38 25.22 98.68 25.4 24.48 35.171 59.229 51.461 89.509 5.74 12 18.689 18.26 31.039 21.3 1.94 0.35 0.4806-2.3903-0.8094-2.5203-26.31-25.98-12.55-66.81-24.08-98.9-9.06-5.43-17.651-13.229-21.911-22.939 18.8 4.79 29.501 24.67 47.341 30.03-1.52-4.5-2.7006-9.2106-5.1406-13.291-0.67-0.74-1.3194-1.4594-1.9594-2.1594-0.31 0.17-0.9409 0.5097-1.2609 0.6797-20.84-43-54.33-82.949-99.9-100.39zm-339.19 368.44c-18.96 0.77-38.221 8.2709-54.541 16.311-25.86 25.17-48.309 57.629-54.109 94.559-1.87 3.93 0.56 10.86-4.15 13.07 26.82 0.14 57.919-10.911 78.659-30.591 25.67-23.21 38.271-59.15 34.141-93.35zm180.33 39.52c-20.672 0.071-41.424 4.8813-60.017 13.7-30.09 41.65-59.7 95.44-43.32 148.53 46.88 12.6 90.911-19.65 121.71-51.57 24.85-27.8 37.92-71.379 18.27-105.51-11.865-3.5287-24.24-5.1924-36.644-5.15zm-716.84 12.041c-56.41 20.55-102.57 67.529-120.75 124.91 13.6 3.9 29.011 3.1303 42.711 0.4203 44.94-23.77 78.589-73.93 78.039-125.33zm63.091 74.177c-14.048-0.056-28.131 2.2559-41.47 6.8234-26.32 38.23-53.639 80.949-52.759 129.09 10.89 9.41 28.63 15.89 42.45 7.6203 55.99-19.56 97.64-72.57 104.15-131.35-16.301-8.1282-34.308-12.111-52.37-12.183z" fill="#755956"/>
<path id="path86" d="m5999 654.51c-65.91 0.4399-131.58 33.811-171.64 85.823 1.98 4.02 10.16 5.7406 13.1 10.291-6.18-1.59-12.119-4.04-18.339-5.45 18.74 18.58 17.45 52.929 18.45 79.239 6.35 81.28 16.23 169.92 69.67 234.68 21.3 11.23 42.799 23.34 66.389 28.9 45.15 2.23 91.46-17.021 119.08-53.331 45.35-57.53 63.74-139.75 34.2-208.53-15.49-37.55-46.49-65.61-80.03-87.02-39.36-10.93-82.66-5.0294-119.83 10.941 29.85-28.66 76.351-28.751 113.74-16.791 10.21-26.83-5.61-55.95-22.65-76.18 0.53-0.31 1.5794-0.92031 2.1094-1.2203-8.0544-0.96579-16.153-1.4072-24.247-1.3531zm-7.5 89.44c0.6375-0.0942 1.405 2.245 1.525 3.1 10.21 5.9 9.0903 21.95 11.32 32.62 7.04 45.83 4.5394 92.22 0.6094 138.22-2.35-2.73-0.4394-9.0006-1.5594-13.241-1.22 23.73-1.4297 47.47-2.3797 71.22-2.44-2.8-0.9912-9.5897-2.0812-14.13-1.12 4.64 0.7209 11.58-1.8391 15.18-6.5-71.18-18.961-142.35-15.161-214 2.04-5.58 1.12-17.33 9-17.92 0.155-0.7175 0.3531-1.0186 0.5656-1.05zm-204.38 26.4c-1.0337 0.0193-2.1007 0.12344-3.2032 0.32031-7.75 0.43-10.931 9.6291-17.981 10.589-25.65 39.22-7.6894 92.411 27.891 118.98 0.73 1.84 9.0106 4.4294 4.1906 5.9094 2.66 2.48 5.7294 4.5203 9.1094 5.8703-1.38-9.44-2.3806-18.961-4.4906-28.261-12.66-8.12-28.43-19.52-25.6-36.95 0.97-11.99 17.12-8.9394 20.77-0.45936 16.25 29.61 14.41 65.05 25.37 96.48 12.18 35.43 30.75 69.39 57.9 95.57-47.71-68.92-57.921-154.81-68.591-235.83-2.0344-13.641-9.8604-32.51-25.366-32.22zm293.08 235.85c-4.03 7.02-11.62 17.81-17.1 19.85-32.89 33.76-94.47 37.41-125.03-1.1297-5.45-8.67 6.7988 2.2594 10.519 4.4094 43.67 11.77 94.381 4.8703 131.61-23.13zm34.8 54.8c3.56 8.99 15.31 18.719 21.77 28.239 29.91 33.08 55.589 69.76 86.509 101.95-4.83-24.15-14.269-47.959-25.339-70.109-18.7-29.95-50.831-47.78-82.941-60.08zm-210.64 17.2c10.26 33.3 39.761 59.689 74.281 64.809 17.02-6.09 36.329-15.92 41.619-34.62-39.96 10.89-89.28 0.5209-115.9-30.189zm865.95 116.74c-53.29 41.14-121.86 64-189.36 57.1-30.82-2.69-58.719-16.599-85.259-31.209 10.56 23.62 10.58 51.06 4.2297 75.85 62.85 13.86 131.31 14.729 191.05-11.711 37.75-16.07 71.629-48.77 79.339-90.03z" fill="#fff7f2"/>
<path id="path106" d="m6220 841.41c-14.08 5.31-14.91 23.621-17.88 36.461 19.54-1.54-6.6906-0.77032-2.1906 11.23 16.6-7.75 36.501-25.081 29.361-45.041-0.05 7.11 0.52 17.6-5.3 22.15 2.35-7.88 7.2294-22.6-3.9906-24.8zm-435.54 2.7703c-9.23 11 3.5103 29.33 16.42 30.83-3.32-9.91-3.6203-28.5-16.42-30.83z" fill="#7b3e2e"/>
</g>
</svg>
