<?xml version="1.0" encoding="UTF-8" standalone="no"?>
<!-- Created with Inkscape (http://www.inkscape.org/) -->

<svg
   xmlns:dc="http://purl.org/dc/elements/1.1/"
   xmlns:cc="http://creativecommons.org/ns#"
   xmlns:rdf="http://www.w3.org/1999/02/22-rdf-syntax-ns#"
   xmlns:svg="http://www.w3.org/2000/svg"
   xmlns="http://www.w3.org/2000/svg"
   xmlns:sodipodi="http://sodipodi.sourceforge.net/DTD/sodipodi-0.dtd"
   xmlns:inkscape="http://www.inkscape.org/namespaces/inkscape"
   width="58.115913mm"
   height="43.547092mm"
   viewBox="0 0 205.92253 154.30072"
   id="svg2"
   version="1.1"
   inkscape:version="0.91 r13725"
   sodipodi:docname="an orange octopus.svg">
  <defs
     id="defs4">
    <clipPath
       id="clipEmfPath1"
       clipPathUnits="userSpaceOnUse">
      <path
         inkscape:connector-curvature="0"
         id="path3341"
         d="m 170.039,78.768 1185.271,0 0,820.188 -1185.271,0 z" />
    </clipPath>
    <pattern
       y="0"
       x="0"
       height="6"
       width="6"
       patternUnits="userSpaceOnUse"
       id="EMFhbasepattern" />
    <clipPath
       id="clipEmfPath1-7"
       clipPathUnits="userSpaceOnUse">
      <path
         inkscape:connector-curvature="0"
         id="path3422"
         d="m 0,21.2549 736.418,0 0,552.6261 -736.418,0 z" />
    </clipPath>
    <pattern
       y="0"
       x="0"
       height="6"
       width="6"
       patternUnits="userSpaceOnUse"
       id="EMFhbasepattern-2" />
  </defs>
  <sodipodi:namedview
     id="base"
     pagecolor="#ffffff"
     bordercolor="#666666"
     borderopacity="1.0"
     inkscape:pageopacity="0.0"
     inkscape:pageshadow="2"
     inkscape:zoom="0.35"
     inkscape:cx="144.45567"
     inkscape:cy="240.69197"
     inkscape:document-units="px"
     inkscape:current-layer="layer1"
     showgrid="false"
     fit-margin-top="0"
     fit-margin-left="0"
     fit-margin-right="0"
     fit-margin-bottom="0"
     inkscape:window-width="1366"
     inkscape:window-height="706"
     inkscape:window-x="-8"
     inkscape:window-y="-8"
     inkscape:window-maximized="1" />
  <metadata
     id="metadata7">
    <rdf:RDF>
      <cc:Work
         rdf:about="">
        <dc:format>image/svg+xml</dc:format>
        <dc:type
           rdf:resource="http://purl.org/dc/dcmitype/StillImage" />
        <dc:title></dc:title>
      </cc:Work>
    </rdf:RDF>
  </metadata>
  <g
     inkscape:label="Layer 1"
     inkscape:groupmode="layer"
     id="layer1"
     transform="translate(-230.54433,-618.75343)">
    <path
       inkscape:connector-curvature="0"
       id="path3425"
       d="m 342.15025,655.45786 c -3.52863,-2.09493 -7.07926,-4.19015 -10.0347,-6.61613 -2.95514,-2.4257 -5.62356,-4.91773 -7.69648,-7.96121 -2.0732,-3.0655 -3.83737,-7.71881 -4.69759,-10.32115 -0.88222,-2.60231 0.48514,-5.97653 -0.57347,-5.27081 -1.03632,0.7057 -5.60155,4.98413 -5.6896,9.48306 -0.0883,4.52101 3.48431,12.68073 5.13842,17.53269 1.6541,4.82967 4.34453,6.08669 4.78564,11.51185 0.44111,5.42544 -5.22676,22.47279 -2.09522,21.08341 3.10953,-1.38938 16.51819,-23.31071 20.863,-29.44171 z"
       style="fill:#ff3300;fill-opacity:1;fill-rule:evenodd;stroke:none" />
    <path
       inkscape:connector-curvature="0"
       id="path3427"
       d="m 342.15025,655.45786 c -3.52863,-2.09493 -7.07926,-4.19015 -10.0347,-6.61613 -2.95514,-2.4257 -5.62356,-4.91773 -7.69648,-7.96121 -2.0732,-3.0655 -3.83737,-7.71881 -4.69759,-10.32115 -0.88222,-2.60231 0.48514,-5.97653 -0.57347,-5.27081 -1.03632,0.7057 -5.60155,4.98413 -5.6896,9.48306 -0.0883,4.52101 3.48431,12.68073 5.13842,17.53269 1.6541,4.82967 4.34453,6.08669 4.78564,11.51185 0.44111,5.42544 -5.22676,22.47279 -2.09522,21.08341 3.10953,-1.38938 16.51819,-23.31071 20.863,-29.44171"
       style="fill:none;stroke:#000000;stroke-width:0.94830716px;stroke-linecap:butt;stroke-linejoin:round;stroke-miterlimit:4;stroke-dasharray:none;stroke-opacity:1" />
    <path
       inkscape:connector-curvature="0"
       id="path3429"
       d="m 321.72837,681.67969 c -4.23418,0.55147 -16.18742,1.36737 -25.44996,3.35224 -9.24052,1.96285 -22.53883,7.32169 -30.03691,8.49065 -7.49836,1.16869 -9.65956,0.4191 -14.99655,-1.49972 -5.31493,-1.91855 -14.70979,-10.14476 -16.91516,-10.05643 -2.22742,0.11035 -0.59546,6.41773 3.57268,10.65191 4.16816,4.23418 12.04132,13.40866 21.48018,14.73172 9.41691,1.34536 25.84704,-7.38773 35.06527,-6.77023 9.19649,0.63952 18.94417,5.64558 22.00966,7.34371 z"
       style="fill:#ff3300;fill-opacity:1;fill-rule:evenodd;stroke:none" />
    <path
       inkscape:connector-curvature="0"
       id="path3431"
       d="m 321.72837,681.67969 c -4.23418,0.55147 -16.18742,1.36737 -25.44996,3.35224 -9.24052,1.96285 -22.53883,7.32169 -30.03691,8.49065 -7.49836,1.16869 -9.65956,0.4191 -14.99655,-1.49972 -5.31493,-1.91855 -14.70979,-10.14476 -16.91516,-10.05643 -2.22742,0.11035 -0.59546,6.41773 3.57268,10.65191 4.16816,4.23418 12.04132,13.40866 21.48018,14.73172 9.41691,1.34536 25.84704,-7.38773 35.06527,-6.77023 9.19649,0.63952 18.94417,5.64558 22.00966,7.34371"
       style="fill:none;stroke:#000000;stroke-width:0.94830716px;stroke-linecap:butt;stroke-linejoin:round;stroke-miterlimit:4;stroke-dasharray:none;stroke-opacity:1" />
    <path
       transform="matrix(0.28222222,0,0,0.28222222,229.38977,611.72555)"
       inkscape:connector-curvature="0"
       id="path3433"
       d="M 419.08,36.8834 C 487.924,3.36014 597.324,47.589 564.035,229.427 c 43.291,24.694 92.053,9.299 109.713,-11.799 17.738,-21.099 -7.971,-104.712 -3.517,-114.714 4.376,-10.0021 24.147,30.241 30.007,54.7 5.861,24.381 23.209,68.219 5.314,91.818 -17.973,23.521 -85.957,36.18 -112.995,49.386 -27.037,13.206 -46.495,1.172 -49.386,30.007 -2.969,28.835 39.384,104.399 31.726,143.002 -7.658,38.524 -67.906,84.394 -77.674,88.223 -9.69,3.829 18.833,-41.806 19.458,-65.327 0.547,-23.521 5.001,-58.529 -15.941,-75.877 -20.865,-17.348 -82.519,-37.04 -109.4,-28.21 -26.882,8.83 -38.525,60.561 -51.887,81.191 -12.816,18.988 -14.222,27.506 -28.523,42.822 -14.3,15.238 -30.944,40.791 -57.278,48.917 -26.334,8.205 -78.221,8.831 -100.57,0 -22.427,-8.83 -31.804,-30.006 -33.602,-52.902 -1.719,-22.974 8.284,-32.117 17.661,-40.635 9.455,-8.517 27.975,-11.487 38.837,-10.549 10.94,0.86 29.46,12.581 26.49,15.863 -2.969,3.204 -31.804,-8.83 -44.151,3.517 -12.346,12.346 -17.894,28.522 -14.065,38.837 3.829,10.314 19.067,24.693 37.039,22.974 17.973,-1.798 52.044,-7.111 70.642,-33.602 18.519,-26.412 46.416,-104.086 40.556,-125.263 -5.861,-21.177 -44.385,-10.627 -75.877,-1.797 -31.492,8.83 -82.128,29.147 -112.995,54.7 C 72.751,460.34 47.4327,515.04 31.2571,533.56 15.0816,552.079 2.42243,565.051 6.564,545.906 c 4.0634,-19.067 21.7237,-90.255 49.3863,-127.06 27.6626,-36.805 87.6767,-67.359 116.5107,-93.537 28.835,-26.178 60.327,-41.494 56.498,-63.53 -3.829,-22.115 -62.671,-46.808 -79.472,-68.844 -16.722,-22.115 -25.005,-42.354 -21.176,-63.53 3.829,-21.255 38.837,-61.8114 44.15,-63.6087 5.314,-1.7191 -17.973,32.3511 -12.346,52.9807 5.548,20.63 17.66,55.638 45.87,70.641 28.287,15.004 88.067,44.776 123.543,19.38 35.555,-25.397 20.708,-138.3913 89.552,-171.9146 z"
       clip-path="url(#clipEmfPath1-7)"
       style="fill:#ff3300;fill-opacity:1;fill-rule:evenodd;stroke:none" />
    <path
       transform="matrix(0.28222222,0,0,0.28222222,229.38977,611.72555)"
       inkscape:connector-curvature="0"
       id="path3435"
       d="M 419.08,36.8834 C 487.924,3.36014 597.324,47.589 564.035,229.427 c 43.291,24.694 92.053,9.299 109.713,-11.799 17.738,-21.099 -7.971,-104.712 -3.517,-114.714 4.376,-10.0021 24.147,30.241 30.007,54.7 5.861,24.381 23.209,68.219 5.314,91.818 -17.973,23.521 -85.957,36.18 -112.995,49.386 -27.037,13.206 -46.495,1.172 -49.386,30.007 -2.969,28.835 39.384,104.399 31.726,143.002 -7.658,38.524 -67.906,84.394 -77.674,88.223 -9.69,3.829 18.833,-41.806 19.458,-65.327 0.547,-23.521 5.001,-58.529 -15.941,-75.877 -20.865,-17.348 -82.519,-37.04 -109.4,-28.21 -26.882,8.83 -38.525,60.561 -51.887,81.191 -12.816,18.988 -14.222,27.506 -28.523,42.822 -14.3,15.238 -30.944,40.791 -57.278,48.917 -26.334,8.205 -78.221,8.831 -100.57,0 -22.427,-8.83 -31.804,-30.006 -33.602,-52.902 -1.719,-22.974 8.284,-32.117 17.661,-40.635 9.455,-8.517 27.975,-11.487 38.837,-10.549 10.94,0.86 29.46,12.581 26.49,15.863 -2.969,3.204 -31.804,-8.83 -44.151,3.517 -12.346,12.346 -17.894,28.522 -14.065,38.837 3.829,10.314 19.067,24.693 37.039,22.974 17.973,-1.798 52.044,-7.111 70.642,-33.602 18.519,-26.412 46.416,-104.086 40.556,-125.263 -5.861,-21.177 -44.385,-10.627 -75.877,-1.797 -31.492,8.83 -82.128,29.147 -112.995,54.7 C 72.751,460.34 47.4327,515.04 31.2571,533.56 15.0816,552.079 2.42243,565.051 6.564,545.906 c 4.0634,-19.067 21.7237,-90.255 49.3863,-127.06 27.6626,-36.805 87.6767,-67.359 116.5107,-93.537 28.835,-26.178 60.327,-41.494 56.498,-63.53 -3.829,-22.115 -62.671,-46.808 -79.472,-68.844 -16.722,-22.115 -25.005,-42.354 -21.176,-63.53 3.829,-21.255 38.837,-61.8114 44.15,-63.6087 5.314,-1.7191 -17.973,32.3511 -12.346,52.9807 5.548,20.63 17.66,55.638 45.87,70.641 28.287,15.004 88.067,44.776 123.543,19.38 35.555,-25.397 20.708,-138.3913 89.552,-171.9146"
       clip-path="url(#clipEmfPath1-7)"
       style="fill:none;stroke:#000000;stroke-width:3.36014342px;stroke-linecap:butt;stroke-linejoin:round;stroke-miterlimit:4;stroke-dasharray:none;stroke-opacity:1" />
    <path
       inkscape:connector-curvature="0"
       id="path3437"
       d="m 374.70119,709.00417 c 1.58807,0.17639 5.97662,-0.33077 9.46122,1.49973 3.48432,1.83049 7.47607,6.96891 11.46782,9.46093 3.99175,2.49202 7.47607,4.56523 12.46039,5.49148 4.96203,0.90424 12.76887,1.14667 17.42243,0 4.65328,-1.16897 10.62962,-5.73391 10.47524,-6.99093 -0.17639,-1.235 -7.98322,0.17639 -11.46782,-0.48542 -3.48431,-0.66153 -5.13842,-0.57319 -9.46093,-3.48432 -4.32252,-2.91112 -12.28401,-9.79198 -16.45215,-13.96012 -4.14612,-4.14612 -6.70419,-8.66704 -8.46864,-10.96066 z"
       style="fill:#ff3300;fill-opacity:1;fill-rule:evenodd;stroke:none" />
    <path
       transform="matrix(0.28222222,0,0,0.28222222,229.38977,611.72555)"
       inkscape:connector-curvature="0"
       id="path3439"
       d="m 514.883,344.688 c 5.627,0.625 21.177,-1.172 33.524,5.314 12.346,6.486 26.49,24.693 40.634,33.523 14.144,8.83 26.49,16.176 44.151,19.458 17.582,3.204 45.244,4.063 61.733,0 16.488,-4.142 37.664,-20.317 37.117,-24.771 -0.625,-4.376 -28.287,0.625 -40.634,-1.72 -12.346,-2.344 -18.207,-2.031 -33.523,-12.346 -15.316,-10.315 -43.526,-34.696 -58.295,-49.465 -14.691,-14.691 -23.755,-30.71 -30.007,-38.837"
       clip-path="url(#clipEmfPath1-7)"
       style="fill:none;stroke:#000000;stroke-width:3.36014342px;stroke-linecap:butt;stroke-linejoin:round;stroke-miterlimit:4;stroke-dasharray:none;stroke-opacity:1" />
    <path
       inkscape:connector-curvature="0"
       id="path3441"
       d="m 353.37535,646.26165 c -2.11694,-0.68382 -4.6973,1.38938 -5.7339,4.63127 -1.05862,3.24188 -0.17639,6.41745 1.94084,7.12329 2.11695,0.68354 4.6973,-1.38938 5.73391,-4.63127 1.05861,-3.24189 0.17639,-6.41773 -1.94085,-7.12329 z"
       style="fill:#ffffff;fill-opacity:1;fill-rule:evenodd;stroke:none" />
    <path
       inkscape:connector-curvature="0"
       id="path3443"
       d="m 353.37535,646.26165 c -2.11694,-0.68382 -4.6973,1.38938 -5.7339,4.63127 -1.05862,3.24188 -0.17639,6.41745 1.94084,7.12329 2.11695,0.68354 4.6973,-1.38938 5.73391,-4.63127 1.05861,-3.24189 0.17639,-6.41773 -1.94085,-7.12329"
       style="fill:none;stroke:#000000;stroke-width:0.94830716px;stroke-linecap:butt;stroke-linejoin:round;stroke-miterlimit:4;stroke-dasharray:none;stroke-opacity:1" />
    <path
       inkscape:connector-curvature="0"
       id="path3445"
       d="m 352.82417,651.48841 c -1.10264,-0.35306 -2.44799,0.72757 -2.99945,2.40368 -0.55118,1.69813 -0.0881,3.37425 1.01459,3.72703 1.12465,0.35306 2.47,-0.72757 3.02118,-2.4257 0.55147,-1.67612 0.0883,-3.35224 -1.03632,-3.70501 z"
       style="fill:#000000;fill-opacity:1;fill-rule:evenodd;stroke:none" />
    <path
       inkscape:connector-curvature="0"
       id="path3447"
       d="m 352.82417,651.48841 c -1.10264,-0.35306 -2.44799,0.72757 -2.99945,2.40368 -0.55118,1.69813 -0.0881,3.37425 1.01459,3.72703 1.12465,0.35306 2.47,-0.72757 3.02118,-2.4257 0.55147,-1.67612 0.0883,-3.35224 -1.03632,-3.70501"
       style="fill:none;stroke:#000000;stroke-width:0.94830716px;stroke-linecap:butt;stroke-linejoin:round;stroke-miterlimit:4;stroke-dasharray:none;stroke-opacity:1" />
    <path
       inkscape:connector-curvature="0"
       id="path3449"
       d="m 339.50357,640.50545 c -1.98459,-0.66148 -4.38856,1.27931 -5.38085,4.32251 -0.97056,3.04349 -0.15438,6.02065 1.83021,6.66045 1.98487,0.63951 4.41085,-1.30133 5.38113,-4.32252 0.99258,-3.04348 0.17639,-6.02065 -1.83049,-6.66044 z"
       style="fill:#ffffff;fill-opacity:1;fill-rule:evenodd;stroke:none" />
    <path
       inkscape:connector-curvature="0"
       id="path3451"
       d="m 339.50357,640.50545 c -1.98459,-0.66148 -4.38856,1.27931 -5.38085,4.32251 -0.97056,3.04349 -0.15438,6.02065 1.83021,6.66045 1.98487,0.63951 4.41085,-1.30133 5.38113,-4.32252 0.99258,-3.04348 0.17639,-6.02065 -1.83049,-6.66044"
       style="fill:none;stroke:#000000;stroke-width:0.94830716px;stroke-linecap:butt;stroke-linejoin:round;stroke-miterlimit:4;stroke-dasharray:none;stroke-opacity:1" />
    <path
       inkscape:connector-curvature="0"
       id="path3453"
       d="m 338.70968,645.13671 c -1.03632,-0.33076 -2.29362,0.68383 -2.80078,2.27161 -0.52916,1.58778 -0.0881,3.13154 0.94827,3.4846 1.0366,0.33076 2.29362,-0.68383 2.80077,-2.27161 0.52945,-1.58778 0.0883,-3.15355 -0.94826,-3.4846 z"
       style="fill:#000000;fill-opacity:1;fill-rule:evenodd;stroke:none" />
    <path
       inkscape:connector-curvature="0"
       id="path3455"
       d="m 338.70968,645.13671 c -1.03632,-0.33076 -2.29362,0.68383 -2.80078,2.27161 -0.52916,1.58778 -0.0881,3.13154 0.94827,3.4846 1.0366,0.33076 2.29362,-0.68383 2.80077,-2.27161 0.52945,-1.58778 0.0883,-3.15355 -0.94826,-3.4846"
       style="fill:none;stroke:#000000;stroke-width:0.94830716px;stroke-linecap:butt;stroke-linejoin:round;stroke-miterlimit:4;stroke-dasharray:none;stroke-opacity:1" />
    <path
       inkscape:connector-curvature="0"
       id="path3457"
       d="m 332.20389,663.66178 c 0.66153,2.09522 1.34535,4.19044 3.35224,4.94002 1.98486,0.77188 7.21162,-0.33077 8.64503,-0.39681"
       style="fill:none;stroke:#000000;stroke-width:0.94830716px;stroke-linecap:butt;stroke-linejoin:round;stroke-miterlimit:4;stroke-dasharray:none;stroke-opacity:1" />
    <path
       inkscape:connector-curvature="0"
       id="path3459"
       d="m 300.02773,716.37016 c 1.56577,-0.11034 5.82197,-0.44111 9.3726,-1.01458 3.55064,-0.5732 8.93177,-2.00689 11.88692,-2.4257 2.97745,-0.39709 4.45488,-0.19869 5.91058,0"
       style="fill:none;stroke:#000000;stroke-width:0.94830716px;stroke-linecap:butt;stroke-linejoin:round;stroke-miterlimit:4;stroke-dasharray:none;stroke-opacity:1" />
  </g>
</svg>
