<?xml version="1.0" encoding="UTF-8" standalone="no"?>
<!-- Created with Inkscape (http://www.inkscape.org/) -->

<svg
   xmlns:dc="http://purl.org/dc/elements/1.1/"
   xmlns:cc="http://creativecommons.org/ns#"
   xmlns:rdf="http://www.w3.org/1999/02/22-rdf-syntax-ns#"
   xmlns:svg="http://www.w3.org/2000/svg"
   xmlns="http://www.w3.org/2000/svg"
   xmlns:sodipodi="http://sodipodi.sourceforge.net/DTD/sodipodi-0.dtd"
   xmlns:inkscape="http://www.inkscape.org/namespaces/inkscape"
   version="1.1"
   id="svg7054"
   xml:space="preserve"
   width="800"
   height="800"
   viewBox="0 0 800 800"
   sodipodi:docname="orca-animal-publicdomainvectors.org.svg"
   inkscape:version="0.92.4 (5da689c313, 2019-01-14)"><metadata
     id="metadata7060"><rdf:RDF><cc:Work
         rdf:about=""><dc:format>image/svg+xml</dc:format><dc:type
           rdf:resource="http://purl.org/dc/dcmitype/StillImage" /><dc:title></dc:title></cc:Work></rdf:RDF></metadata><defs
     id="defs7058"><clipPath
       clipPathUnits="userSpaceOnUse"
       id="clipPath7070"><path
         d="M 0,600 H 600 V 0 H 0 Z"
         id="path7068"
         inkscape:connector-curvature="0" /></clipPath></defs><sodipodi:namedview
     pagecolor="#ffffff"
     bordercolor="#666666"
     borderopacity="1"
     objecttolerance="10"
     gridtolerance="10"
     guidetolerance="10"
     inkscape:pageopacity="0"
     inkscape:pageshadow="2"
     inkscape:window-width="1920"
     inkscape:window-height="1018"
     id="namedview7056"
     showgrid="false"
     inkscape:zoom="1.0098992"
     inkscape:cx="410.16949"
     inkscape:cy="389.83051"
     inkscape:window-x="-8"
     inkscape:window-y="-8"
     inkscape:window-maximized="1"
     inkscape:current-layer="g7062" /><g
     id="g7062"
     inkscape:groupmode="layer"
     inkscape:label="orca-animal-publicdomainvectors.org"
     transform="matrix(1.3333333,0,0,-1.3333333,0,800)"><g
       id="g7064"><g
         id="g7066"
         clip-path="url(#clipPath7070)"><path
           d="m 486.134,495.567 c 16.795,-5.671 14.179,-12 2.4,-20.069 -11.779,-8.07 -44.555,-31.629 -45.426,-24.431 -0.873,7.199 1.077,29.735 -12.23,28.862 -17.59,-1.154 40.311,42.523 87.648,26.926 -28.685,1.101 -49.187,-5.618 -32.392,-11.288 M 421.156,456.71 c -0.138,-2.338 -0.383,-4.993 -0.973,-7.818 -1.045,-5.685 -3.127,-12.136 -6.101,-18.715 -1.561,-3.249 -3.169,-6.633 -5.195,-9.844 -1.972,-3.244 -4.137,-6.443 -6.498,-9.5 -2.353,-3.066 -4.991,-5.907 -7.629,-8.649 -2.712,-2.678 -5.542,-5.15 -8.454,-7.321 -2.853,-2.245 -5.867,-4.075 -8.75,-5.716 -1.447,-0.816 -2.911,-1.509 -4.304,-2.209 -1.425,-0.643 -2.835,-1.187 -4.162,-1.746 -2.713,-1.009 -5.231,-1.812 -7.514,-2.325 -2.24,-0.648 -4.289,-0.831 -5.918,-1.144 -1.647,-0.235 -2.967,-0.265 -3.848,-0.354 -0.886,-0.069 -1.355,-0.104 -1.355,-0.104 0,0 1.806,0.536 4.974,1.474 1.541,0.586 3.452,1.118 5.535,2.036 2.116,0.815 4.411,1.937 6.894,3.159 2.449,1.305 5.028,2.821 7.665,4.552 2.61,1.782 5.285,3.758 7.907,5.981 2.68,2.156 5.151,4.721 7.718,7.253 2.459,2.643 4.911,5.378 7.109,8.324 4.592,5.742 8.428,12.064 11.695,18.152 1.547,3.087 3.037,6.088 4.247,9.025 1.188,2.939 2.274,5.745 3.079,8.397 1.674,5.29 2.49,9.872 2.622,13.12 0.093,1.629 0.029,2.883 -0.083,3.777 -0.129,0.88 -0.195,1.348 -0.195,1.348 0,0 0.164,-0.444 0.467,-1.278 0.177,-0.409 0.296,-0.944 0.449,-1.583 0.183,-0.641 0.312,-1.386 0.4,-2.219 0.246,-1.672 0.309,-3.723 0.218,-6.073 m 21.174,85.565 c 17.014,-3.272 38.568,-11.698 35.297,-18.24 -5.174,-10.349 -74.603,-22.579 -90.636,-6.219 -16.032,16.362 32.335,28.882 55.339,24.459 M 249.239,318.551 c 0,0 5.945,22.363 1.504,30.592 -3.073,5.69 -15.707,6.016 -22.117,-6.271 -6.546,-12.542 -4.108,-27.021 -8.834,-38.064 -12.609,-29.451 -45.483,-30.759 -40.723,16.034 2.321,22.819 13.996,52.461 38.54,67.619 40.668,25.121 92.185,-7.743 106.581,11.89 3.055,-8.07 -51.72,-40.901 -74.951,-81.8 M 188.888,144.182 c -0.13,-1.36 -0.505,-2.979 -1.128,-4.776 -0.643,-1.793 -1.571,-3.777 -2.973,-5.671 -2.694,-3.884 -6.854,-7.582 -11.618,-10.881 -4.764,-3.331 -10.123,-6.348 -15.337,-9.502 -2.61,-1.571 -5.208,-3.149 -7.669,-4.818 -2.445,-1.696 -4.858,-3.354 -6.99,-5.191 -2.169,-1.802 -4.127,-3.689 -5.847,-5.601 -1.679,-1.949 -3.181,-3.883 -4.279,-5.845 -0.613,-0.95 -1.089,-1.918 -1.53,-2.845 -0.492,-0.908 -0.888,-1.802 -1.196,-2.668 -0.737,-1.699 -1.111,-3.268 -1.487,-4.549 -0.339,-1.285 -0.495,-2.325 -0.658,-3.027 -0.145,-0.704 -0.221,-1.08 -0.221,-1.08 0,0 0.028,0.381 0.079,1.099 0.082,0.709 0.068,1.78 0.301,3.111 0.254,1.322 0.482,2.958 1.064,4.762 0.231,0.921 0.549,1.876 0.963,2.859 0.368,1.004 0.827,2.026 1.397,3.051 1.025,2.112 2.467,4.222 4.1,6.355 1.676,2.099 3.593,4.209 5.806,6.119 4.345,3.933 9.573,7.315 14.822,10.508 5.288,3.138 10.628,6.1 15.4,9.171 2.359,1.568 4.638,3.088 6.607,4.749 2.006,1.625 3.732,3.349 5.118,5.103 0.709,0.868 1.324,1.744 1.847,2.618 0.597,0.837 0.989,1.724 1.403,2.54 0.762,1.656 1.276,3.194 1.524,4.484 0.343,1.275 0.423,2.343 0.513,3.054 0.088,0.71 0.134,1.092 0.134,1.092 0,0 0.003,-0.384 0.009,-1.102 -0.013,-0.721 0.085,-1.771 -0.154,-3.119 m 40.763,422.584 c -3.149,1.536 -6.187,3.186 -9.255,4.52 -6.05,2.844 -11.84,5.196 -16.872,7.035 -2.532,0.863 -4.831,1.74 -6.914,2.374 -2.067,0.701 -3.891,1.207 -5.402,1.611 -1.501,0.439 -2.718,0.684 -3.534,0.879 -0.82,0.189 -1.259,0.291 -1.259,0.291 0,0 0.447,-0.052 1.28,-0.151 0.836,-0.117 2.068,-0.188 3.611,-0.523 3.109,-0.555 7.511,-1.514 12.682,-3.088 2.578,-0.802 5.363,-1.712 8.277,-2.757 2.904,-1.074 5.984,-2.181 9.067,-3.572 3.13,-1.285 6.269,-2.822 9.467,-4.371 3.141,-1.654 6.357,-3.305 9.463,-5.149 3.092,-1.867 6.185,-3.732 9.087,-5.796 2.994,-1.927 5.716,-4.141 8.387,-6.226 2.725,-2.017 5.017,-4.394 7.35,-6.432 2.251,-2.139 4.203,-4.346 6.093,-6.277 1.827,-1.995 3.285,-4.021 4.662,-5.728 1.415,-1.679 2.376,-3.352 3.254,-4.658 1.683,-2.654 2.644,-4.169 2.644,-4.169 0,0 -1.112,1.407 -3.06,3.87 -0.975,1.225 -2.049,2.791 -3.594,4.34 -1.508,1.572 -3.099,3.437 -4.978,5.334 -1.964,1.814 -3.985,3.885 -6.306,5.877 -2.407,1.895 -4.772,4.087 -7.486,6.029 -2.67,1.999 -5.434,4.051 -8.38,5.947 -2.872,2.007 -5.939,3.814 -8.997,5.633 -3.042,1.843 -6.201,3.497 -9.287,5.157 m 289.421,-41.314 c -11.767,15.686 -29.566,22.343 -59.767,27.376 -41.23,6.871 -116.487,2.944 -171.455,-21.27 -41.446,47.989 -104.604,60.452 -110.923,57.916 9.161,-13.414 51.044,-46.789 56.933,-90.635 -24.541,-19.632 -113.54,-109.941 -49.408,-331.132 13.526,-47.987 -61.574,-38.599 -60.503,-94.569 0.182,-9.69 3.854,5.668 16.56,9.507 30.031,9.082 62.067,-3.143 62.602,12.276 14.408,-15.906 67.719,15.165 87.314,-7.056 0.567,30.652 -50.491,42.042 -72.925,52.848 -11.315,5.453 -19.523,16.743 -18.651,32.667 18.324,138.299 120.847,208.538 133.064,217.701 -4.798,3.926 10.47,45.371 20.94,44.934 -7.416,-11.778 -21.621,-74.166 10.469,-62.387 61.548,22.592 69.805,75.476 66.75,98.161 0,0 7.963,0.546 5.019,-32.829 54.535,21.378 83.981,54.644 83.109,56.824 -0.872,2.18 -22.25,1.746 -24.865,5.236 -2.621,3.489 36.316,-1.246 37.517,8.725 0.984,8.181 -6.545,8.726 -11.78,15.707"
           style="fill:#110f0d;fill-opacity:1;fill-rule:nonzero;stroke:none"
           id="path7072"
           inkscape:connector-curvature="0" /></g></g></g></svg>