<?xml version="1.0" encoding="UTF-8"?>
<!DOCTYPE svg PUBLIC "-//W3C//DTD SVG 1.1//EN" "http://www.w3.org/Graphics/SVG/1.1/DTD/svg11.dtd">
<svg version="1.1" xmlns="http://www.w3.org/2000/svg" xmlns:xlink="http://www.w3.org/1999/xlink" x="0" y="0" width="528" height="605" viewBox="0, 0, 528, 605">
  <g id="Layer_1">
    <path d="M363.886,161.925 C365.563,162.343 367.237,162.773 368.909,163.222 C394.802,170.161 420.208,180.877 443.55,196.209 C468.452,212.569 462.53,237.085 431.878,227.589 C422.54,224.695 413.171,222.127 403.698,219.903 L420.526,235.829 C451.208,264.865 472.96,299.688 483.347,337.27 C493.323,373.37 492.823,411.988 479.702,450.453 C476.304,460.418 474.854,470.006 475.56,479.382 C476.263,488.72 479.11,497.917 484.302,507.145 L520.841,572.061 C523.028,575.943 523.718,580.276 523.026,584.381 C521.563,593.044 514.071,599.677 505.294,600.065 C501.114,600.251 496.89,599.036 493.304,596.391 L484.585,589.96 C464.683,575.28 444.552,563.949 423.298,555.615 C402.04,547.279 379.579,541.907 355.021,539.146 L326.212,535.911 C317.19,534.896 310.247,527.699 309.567,518.645 C308.886,509.579 314.675,501.437 323.454,499.083 L396.347,479.549 C410.833,475.668 419.915,461.76 417.677,446.934 L414.749,427.551 C410.847,401.708 397.755,380.99 376.058,366.408 C356.497,353.266 334.552,348.282 311.282,352.322 C288.681,356.246 266.177,356.304 245.165,351.194 C225.875,346.505 207.897,337.491 192.307,323.167 L187.599,318.843 C179.035,325.034 171.871,331.34 165.472,338.232 C158.211,346.051 151.884,354.67 145.579,364.764 C140.474,372.93 131.692,377.652 122.158,374.689 C112.903,371.813 107.293,362.892 107.29,353.374 C107.285,334.881 108.252,317.182 110.633,300.641 C112.842,285.312 116.27,270.972 121.268,257.902 L108.82,246.467 C69.437,210.284 61.631,190.211 49.103,157.98 C44.943,147.281 40.905,137.257 35.999,126.886 C22.183,97.678 -7.558,34.813 11.136,15.738 C22.014,4.637 46.225,2.995 70.257,4.698 C89.854,6.085 109.252,9.449 128.453,13.514 C167.042,21.689 202.102,29.117 231.353,56.801 L239.059,64.095 C248.241,49.004 262.663,36.657 278.688,27.204 C301.278,13.874 327.241,6.211 346.001,4.745 C361.163,3.558 374.261,16.334 371.603,31.703 L360.313,96.928 C357.835,111.259 357.333,124.878 358.868,138.248 C359.847,146.812 361.606,154.518 363.886,161.925" fill="#0A0B09"/>
    <path d="M129.561,265.522 C125.633,276.755 122.842,289.015 120.958,302.093 C118.655,318.091 117.718,335.308 117.725,353.365 C117.727,358.295 120.334,363.216 125.234,364.739 C130.119,366.257 134.226,363.282 136.744,359.251 C143.406,348.587 150.114,339.458 157.841,331.135 C164.287,324.191 171.409,317.835 179.766,311.647 L129.561,265.522" fill="#90918D"/>
    <path d="M129.561,265.522 C125.633,276.755 122.842,289.015 120.958,302.093 C118.655,318.091 117.718,335.308 117.725,353.365 C117.727,358.295 120.334,363.216 125.234,364.739 C130.119,366.257 134.226,363.282 136.744,359.251 C120.399,312.665 122.867,285.267 129.561,265.522" fill="#C7C7C2"/>
    <path d="M336.702,156.5 C341.872,157.289 347.046,158.211 352.214,159.274 C350.519,152.694 349.292,146.099 348.528,139.437 C346.884,125.089 347.417,110.503 350.067,95.176 L361.356,29.951 C362.849,21.305 355.233,14.481 346.827,15.138 C329.382,16.501 305.153,23.679 283.964,36.183 C268.587,45.252 254.905,57.085 246.817,71.436 L336.702,156.5" fill="#90918D"/>
    <path d="M359.376,41.388 L361.356,29.951 C362.849,21.305 355.233,14.481 346.827,15.138 C329.382,16.501 305.153,23.679 283.964,36.183 C268.587,45.252 254.905,57.085 246.817,71.436 L248.345,72.881 C264.356,77.607 285.938,76.891 308.896,69.627 C328.862,63.311 346.454,53.122 359.376,41.388" fill="#BCBCB7"/>
    <path d="M469.835,447.116 C482.253,410.72 482.726,374.181 473.286,340.027 C463.403,304.275 442.661,271.101 413.376,243.385 L384.306,215.873 C376.517,214.463 368.628,213.289 360.599,212.361 C335.907,209.507 309.927,208.99 281.54,211.138 C264.683,212.413 253.044,199.599 252.356,183.608 C251.589,165.743 264.175,153.245 282.233,152.918 C294.347,152.699 306.759,153.142 319.29,154.344 L224.202,64.357 C197.079,38.686 163.391,31.55 126.318,23.695 C107.578,19.726 88.643,16.436 69.516,15.081 C48.051,13.559 26.843,14.605 18.589,23.026 C4.975,36.92 32.6,95.318 45.434,122.45 C50.441,133.032 54.56,143.289 58.804,154.205 C70.791,185.042 78.257,204.246 115.871,238.803 L199.358,315.504 C213.596,328.585 230.004,336.814 247.599,341.092 C267.149,345.846 288.237,345.765 309.526,342.069 C335.528,337.555 359.991,343.092 381.849,357.779 C406.001,374.009 420.728,397.214 425.071,425.991 L428.001,445.374 C431.024,465.407 418.589,484.38 399.022,489.622 L326.13,509.156 C322.183,510.214 319.659,513.785 319.968,517.857 C320.272,521.943 323.296,525.091 327.37,525.548 L356.179,528.783 C381.624,531.645 404.958,537.234 427.114,545.923 C449.278,554.613 470.19,566.37 490.782,581.559 L499.501,587.99 C501.124,589.188 503.003,589.74 504.837,589.657 C508.739,589.484 512.097,586.526 512.745,582.674 C513.054,580.845 512.739,578.9 511.751,577.145 L475.212,512.229 C469.249,501.637 465.976,491.011 465.159,480.17 C464.347,469.364 465.983,458.411 469.835,447.116" fill="#C7C7C2"/>
    <path d="M287.333,210.734 C285.413,210.856 283.483,210.99 281.54,211.138 C264.683,212.413 253.044,199.599 252.356,183.608 C252.298,182.235 252.317,180.893 252.413,179.586 L141.803,80.922 C87.832,32.78 15.178,45.878 33.033,95.415 C37.51,105.697 42.002,115.192 45.434,122.45 C50.441,133.032 54.56,143.289 58.804,154.205 C70.791,185.042 78.257,204.246 115.871,238.803 L199.358,315.504 C213.596,328.585 230.004,336.814 247.599,341.092 C267.149,345.846 288.237,345.765 309.526,342.069 C335.528,337.555 359.991,343.092 381.849,357.779 C406.001,374.009 420.728,397.214 425.071,425.991 L428.001,445.374 C428.366,447.804 428.503,450.216 428.433,452.591 C471.46,422.831 448.021,354.069 375.444,289.331 L287.333,210.734" fill="#E5E5E0"/>
    <path d="M272.601,154.373 C275.579,153.481 278.806,152.979 282.233,152.918 C294.347,152.699 306.759,153.142 319.29,154.344 L224.202,64.357 C197.079,38.686 163.391,31.55 126.318,23.695 C107.578,19.726 88.643,16.436 69.516,15.081 C63.192,14.632 56.889,14.407 50.934,14.528 C97.841,19.162 143.503,27.626 182.796,67.466 C212.015,97.091 242.267,125.771 272.601,154.373 z M469.835,447.116 C482.253,410.72 482.726,374.181 473.286,340.027 C463.403,304.275 442.661,271.101 413.376,243.385 L384.306,215.873 C376.517,214.463 368.628,213.289 360.599,212.361 C351.091,211.262 341.392,210.51 331.437,210.123 C375.327,252.279 418.087,295.459 456.763,342.351 C481.948,372.889 472.026,416.957 467.458,455.154 C468.122,452.492 468.917,449.814 469.835,447.116" fill="#797A76"/>
    <path d="M280.753,200.738 C309.853,198.536 336.487,199.067 361.798,201.993 C387.093,204.917 411.099,210.245 434.952,217.638 C455.38,223.966 450.487,213.208 437.851,204.908 C415.505,190.228 391.118,179.952 366.224,173.28 C338.196,165.77 309.55,162.832 282.442,163.322 C270.479,163.539 262.251,171.206 262.765,183.151 C263.194,193.154 270.013,201.551 280.753,200.738" fill="#90918D"/>
    <path d="M280.753,200.738 C309.853,198.536 336.487,199.067 361.798,201.993 C387.093,204.917 411.099,210.245 434.952,217.638 C444.149,220.486 448.212,219.872 448.747,217.578 L448.765,217.508 L448.769,217.474 C395.919,188.345 332.339,179.954 262.765,183.151 C263.194,193.154 270.013,201.551 280.753,200.738" fill="#C7C7C2"/>
    <path d="M182.649,48.356 C189.768,53.214 193.012,60.858 189.894,65.43 C186.775,70.002 178.473,69.768 171.355,64.911 C164.234,60.052 160.992,52.409 164.11,47.838 C167.229,43.266 175.531,43.498 182.649,48.356" fill="#0A0B09"/>
    <path d="M181.569,48.997 C184.723,51.15 186.16,54.537 184.779,56.563 C183.397,58.589 179.717,58.487 176.563,56.334 C173.407,54.18 171.97,50.793 173.351,48.767 C174.734,46.742 178.414,46.844 181.569,48.997" fill="#FFFFFE"/>
    <path d="M155.154,121.743 C161.619,123.967 158.24,133.8 151.772,131.575 C134.91,125.769 101.323,117.874 84.699,127.786 C74.713,133.739 75.548,144.821 78.518,154.538 C80.512,161.101 70.534,164.133 68.541,157.57 C64.058,142.906 64.836,127.53 79.39,118.853 C99.421,106.908 134.694,114.695 155.154,121.743" fill="#0A0B09"/>
    <path d="M248.46,127.481 C249.843,136.696 248.665,144.852 245.255,152.082 C241.812,159.384 236.04,165.85 228.289,171.599 C226.554,172.885 226.191,175.338 227.477,177.074 C228.763,178.81 231.216,179.173 232.952,177.886 C241.702,171.395 248.284,163.957 252.315,155.408 C256.382,146.788 257.798,137.14 256.173,126.316 C255.851,124.187 253.862,122.72 251.733,123.042 C249.604,123.363 248.136,125.351 248.46,127.481 z M233.612,112.122 C235.266,123.126 233.853,132.871 229.778,141.516 C225.667,150.233 218.792,157.939 209.57,164.782 C207.833,166.069 207.468,168.52 208.756,170.257 C210.044,171.993 212.496,172.356 214.231,171.069 C224.456,163.484 232.141,154.804 236.838,144.843 C241.569,134.808 243.22,123.57 241.323,110.957 C241.003,108.827 239.016,107.36 236.887,107.682 C234.755,108.004 233.292,109.992 233.612,112.122 z M217.624,95.964 C217.299,93.834 218.767,91.846 220.896,91.524 C223.026,91.204 225.013,92.669 225.335,94.799 C227.404,108.572 225.603,120.841 220.44,131.795 C215.308,142.675 206.908,152.16 195.728,160.454 C193.993,161.74 191.54,161.377 190.253,159.641 C188.965,157.905 189.329,155.453 191.066,154.166 C201.244,146.615 208.833,138.104 213.378,128.469 C217.887,118.905 219.449,108.129 217.624,95.964" fill="#0A0B09"/>
    <path d="M276.446,60.456 C274.228,62.283 270.948,61.965 269.122,59.747 C267.294,57.529 267.61,54.249 269.831,52.422 C277.483,46.086 285.636,40.482 294.448,35.861 C303.317,31.209 312.782,27.585 322.995,25.25 C325.802,24.609 328.597,26.366 329.237,29.174 C329.878,31.981 328.12,34.778 325.312,35.418 C315.931,37.563 307.298,40.859 299.263,45.073 C291.171,49.317 283.608,54.526 276.446,60.456" fill="#FFFFFE"/>
    <path d="M336.89,20.307 C339.981,19.84 342.868,21.969 343.335,25.062 C343.802,28.154 341.673,31.04 338.579,31.506 C335.489,31.974 332.603,29.846 332.134,26.753 C331.669,23.661 333.796,20.775 336.89,20.307" fill="#FFFFFE"/>
    <path d="M227.904,91.18 C225.795,89.22 225.677,85.923 227.637,83.816 C229.597,81.708 232.892,81.589 235,83.55 L277.265,122.71 C279.372,124.67 279.491,127.968 277.532,130.075 C275.571,132.182 272.274,132.301 270.169,130.341 L227.904,91.18" fill="#FFFFFE"/>
    <path d="M289.29,134.273 C290.675,137.078 289.524,140.475 286.72,141.859 C283.917,143.244 280.521,142.093 279.136,139.289 C277.749,136.484 278.899,133.088 281.706,131.703 C284.509,130.317 287.905,131.469 289.29,134.273" fill="#FFFFFE"/>
    <path d="M317.593,188.064 C314.712,188.066 312.374,185.733 312.372,182.851 C312.368,179.97 314.702,177.633 317.585,177.629 C327.62,177.641 337.556,178.288 347.384,179.588 C357.149,180.881 366.724,182.822 376.091,185.426 C378.86,186.192 380.485,189.061 379.72,191.83 C378.952,194.599 376.087,196.223 373.317,195.457 C364.388,192.975 355.284,191.129 346.013,189.901 C336.8,188.683 327.323,188.076 317.593,188.064" fill="#FFFFFE"/>
    <path d="M391.896,187.782 C394.646,189.274 395.665,192.711 394.173,195.46 C392.681,198.21 389.243,199.23 386.493,197.739 C383.745,196.248 382.724,192.811 384.216,190.061 C385.708,187.311 389.146,186.291 391.896,187.782" fill="#FFFFFE"/>
    <path d="M91.967,28.86 C94.634,29.926 95.931,32.953 94.864,35.621 C93.799,38.286 90.771,39.584 88.105,38.518 C74.98,33.274 58.221,30.486 45.79,31.452 C41.251,31.805 37.441,32.637 34.841,34.014 C33.163,34.902 32.13,35.981 32.021,37.245 C31.923,38.36 32.308,39.828 33.267,41.689 C34.575,44.247 33.562,47.383 31.002,48.692 C28.445,50 25.309,48.987 23.999,46.43 C22.105,42.751 21.386,39.387 21.654,36.334 C22.105,31.158 25.14,27.372 29.986,24.806 C33.913,22.727 39.092,21.514 44.962,21.058 C58.833,19.98 77.451,23.06 91.967,28.86" fill="#FFFFFE"/>
    <path d="M38.287,61.314 C35.366,62.434 32.091,60.973 30.972,58.052 C29.852,55.132 31.314,51.856 34.234,50.738 C37.157,49.619 40.43,51.08 41.549,54 C42.668,56.921 41.208,60.196 38.287,61.314" fill="#FFFFFE"/>
    <path d="M128.243,291.457 C128.915,288.667 131.723,286.95 134.51,287.623 C137.302,288.295 139.018,291.102 138.345,293.891 C136.816,300.196 135.583,306.536 134.651,312.906 C133.746,319.112 133.133,325.463 132.82,331.953 C132.687,334.832 130.243,337.057 127.363,336.922 C124.484,336.789 122.259,334.345 122.394,331.465 C122.708,324.899 123.367,318.211 124.36,311.407 C125.331,304.769 126.625,298.116 128.243,291.457" fill="#FFFFFE"/>
    <path d="M119.687,347.197 C120.241,350.275 123.184,352.322 126.262,351.769 C129.341,351.217 131.388,348.272 130.834,345.194 C130.282,342.116 127.338,340.068 124.259,340.621 C121.182,341.175 119.133,344.119 119.687,347.197" fill="#FFFFFE"/>
  </g>
</svg>
