<?xml version="1.0" encoding="UTF-8" standalone="no"?>
<!-- Created with Inkscape (http://www.inkscape.org/) -->

<svg
   xmlns:dc="http://purl.org/dc/elements/1.1/"
   xmlns:cc="http://creativecommons.org/ns#"
   xmlns:rdf="http://www.w3.org/1999/02/22-rdf-syntax-ns#"
   xmlns:svg="http://www.w3.org/2000/svg"
   xmlns="http://www.w3.org/2000/svg"
   xmlns:sodipodi="http://sodipodi.sourceforge.net/DTD/sodipodi-0.dtd"
   xmlns:inkscape="http://www.inkscape.org/namespaces/inkscape"
   width="297mm"
   height="210mm"
   viewBox="0 0 1052.3622 744.09448"
   id="svg2"
   version="1.1"
   inkscape:version="0.91 r13725"
   sodipodi:docname="Toy sub 01.svg">
  <defs
     id="defs4" />
  <sodipodi:namedview
     id="base"
     pagecolor="#ffffff"
     bordercolor="#666666"
     borderopacity="1.0"
     inkscape:pageopacity="0.0"
     inkscape:pageshadow="2"
     inkscape:zoom="0.7"
     inkscape:cx="314.5112"
     inkscape:cy="267.76269"
     inkscape:document-units="px"
     inkscape:current-layer="g4262"
     showgrid="false"
     inkscape:window-width="1920"
     inkscape:window-height="1017"
     inkscape:window-x="-8"
     inkscape:window-y="-8"
     inkscape:window-maximized="1" />
  <metadata
     id="metadata7">
    <rdf:RDF>
      <cc:Work
         rdf:about="">
        <dc:format>image/svg+xml</dc:format>
        <dc:type
           rdf:resource="http://purl.org/dc/dcmitype/StillImage" />
        <dc:title></dc:title>
      </cc:Work>
    </rdf:RDF>
  </metadata>
  <g
     inkscape:groupmode="layer"
     id="layer3"
     inkscape:label="vectorizado 1"
     style="display:inline">
    <g
       id="g4262"
       transform="matrix(2.0221915,0,0,2.0221915,-640.17147,-411.38064)">
      <path
         sodipodi:nodetypes="ccccccc"
         inkscape:connector-curvature="0"
         id="path4209"
         d="m 737.08909,417.81583 26.59196,-17.16391 29.9764,-0.72523 c 28.22995,14.66763 21.15479,97.68032 2.6592,95.73109 l -25.1415,0 -32.15211,-15.47169 z"
         style="display:inline;fill:#af010d;fill-opacity:1;fill-rule:evenodd;stroke:#000000;stroke-width:5.74357224;stroke-linecap:butt;stroke-linejoin:miter;stroke-miterlimit:4;stroke-dasharray:none;stroke-opacity:1" />
      <path
         sodipodi:nodetypes="cssccssccccccccscc"
         inkscape:connector-curvature="0"
         id="path4151"
         d="m 570.02744,290.58393 c -7.36369,-0.0605 -15.60936,-0.96842 -24.02129,1.2265 -7.94614,2.07338 -19.03741,11.58375 -24.20013,17.19659 -14.10615,15.33598 -22.56888,33.25829 -26.57029,47.93088 -25.09184,1.77341 -55.23703,3.6704 -77.67096,11.69093 -40.11643,15.63056 -58.14756,52.47832 -58.14806,79.7388 -4.6e-4,24.74193 16.39042,50.40957 50.30486,66.00247 30.71787,14.1232 76.68025,19.37351 121.87517,19.37333 40.38661,-0.03 96.87141,-3.71452 127.81131,-16.58568 l 37.91468,-15.79482 44.79313,-22.91633 c 4.44085,-35.81293 2.56213,-41.58814 -4.22915,-59.74474 l -56.41489,-27.19597 -39.57868,-15.81725 c -2.15172,-0.99447 -12.12657,-3.02511 -12.12657,-3.02511 -4.91551,-25.11933 -20.51382,-74.52808 -20.51382,-74.52808 -5.67598,-7.65504 -23.02518,-7.41846 -39.22531,-7.55153 z"
         style="display:inline;opacity:1;fill:#1253a3;fill-opacity:1;fill-rule:nonzero;stroke:#000000;stroke-width:5.74357224;stroke-linejoin:round;stroke-miterlimit:4;stroke-dasharray:none;stroke-dashoffset:0" />
      <path
         sodipodi:nodetypes="cc"
         inkscape:connector-curvature="0"
         id="path4213"
         d="m 764.12461,401.21117 c 12.6836,35.04629 11.43198,73.13653 7.69228,93.33304"
         style="display:inline;fill:none;fill-rule:evenodd;stroke:#000000;stroke-width:5.74357224;stroke-linecap:butt;stroke-linejoin:miter;stroke-miterlimit:4;stroke-dasharray:none;stroke-opacity:1" />
      <path
         sodipodi:nodetypes="cc"
         inkscape:connector-curvature="0"
         id="path4239"
         d="m 360.9336,438.36417 c 129.81333,22.68574 256.97745,23.71435 382.92435,7.73585"
         style="display:inline;fill:none;fill-rule:evenodd;stroke:#000000;stroke-width:0.95726204px;stroke-linecap:butt;stroke-linejoin:miter;stroke-opacity:1" />
      <path
         inkscape:connector-curvature="0"
         id="path4241"
         d="m 513.46531,530.3933 c -36.08789,-1.30061 -65.02605,-5.57133 -88.29867,-13.03117 -34.64526,-11.10523 -57.18984,-32.06627 -63.03814,-58.61034 -0.89533,-4.06375 -1.17964,-18.1318 -0.38184,-18.89462 0.26076,-0.24933 2.07584,-0.13825 4.3453,0.26588 30.42515,5.41815 76.5762,11.00727 115.21917,13.95363 51.98971,3.964 113.1146,4.48934 167.59151,1.44037 29.23753,-1.63637 78.34559,-6.02228 92.27642,-8.24133 l 1.90366,-0.30324 -0.28782,6.94427 c -0.15831,3.81935 -0.66229,10.45263 -1.11995,14.74062 l -0.83214,7.79634 -22.46342,11.37566 c -19.51211,9.88106 -25.08776,12.45246 -42.438,19.57177 -21.92702,8.99729 -27.20274,10.86587 -37.81235,13.39254 -29.56245,7.04023 -82.52267,11.1184 -124.66373,9.59962 z"
         style="display:inline;opacity:1;fill:#ffcc00;fill-opacity:1;fill-rule:nonzero;stroke:#000000;stroke-width:2.88256574;stroke-linejoin:round;stroke-miterlimit:4;stroke-dasharray:none;stroke-dashoffset:0" />
      <circle
         r="28.944098"
         cy="442.2366"
         cx="459.06567"
         id="path4147"
         style="opacity:1;fill:#ff6600;fill-opacity:1;fill-rule:nonzero;stroke:#000000;stroke-width:3.00771737;stroke-miterlimit:4;stroke-dasharray:none;stroke-dashoffset:0" />
      <circle
         r="17.493544"
         cy="442.2366"
         cx="459.06567"
         id="path4149"
         style="opacity:1;fill:#5599ff;fill-opacity:1;fill-rule:nonzero;stroke:#000000;stroke-width:3.00771737;stroke-miterlimit:4;stroke-dasharray:none;stroke-dashoffset:0" />
      <circle
         style="opacity:1;fill:#ff6600;fill-opacity:1;fill-rule:nonzero;stroke:#000000;stroke-width:3.00771737;stroke-miterlimit:4;stroke-dasharray:none;stroke-dashoffset:0"
         id="circle4186"
         cx="546.92865"
         cy="442.2366"
         r="28.944098" />
      <circle
         style="opacity:1;fill:#80b3ff;fill-opacity:1;fill-rule:nonzero;stroke:#000000;stroke-width:3.00771737;stroke-miterlimit:4;stroke-dasharray:none;stroke-dashoffset:0"
         id="circle4188"
         cx="546.92865"
         cy="442.2366"
         r="17.493544" />
      <circle
         r="28.944098"
         cy="442.2366"
         cx="634.79163"
         id="circle4192"
         style="opacity:1;fill:#ff6600;fill-opacity:1;fill-rule:nonzero;stroke:#000000;stroke-width:3.00771737;stroke-miterlimit:4;stroke-dasharray:none;stroke-dashoffset:0" />
      <circle
         r="17.493544"
         cy="442.2366"
         cx="634.79163"
         id="circle4194"
         style="opacity:1;fill:#80b3ff;fill-opacity:1;fill-rule:nonzero;stroke:#000000;stroke-width:3.00771737;stroke-miterlimit:4;stroke-dasharray:none;stroke-dashoffset:0" />
      <path
         sodipodi:nodetypes="csssssscc"
         inkscape:connector-curvature="0"
         id="path4233"
         d="m 579.91003,266.64251 c 0,0 -3.39425,-2.16102 -4.10122,-3.91336 -2.44237,-6.05388 -2.16238,-13.76002 0.82024,-19.56679 0.99683,-1.94068 3.09069,-3.32828 5.15582,-4.03195 5.435,-1.8519 11.81914,-1.81643 17.2251,0.11859 1.41948,0.50809 2.81052,1.51328 3.51533,2.84608 3.09652,5.8556 3.26075,13.38126 1.64049,19.80397 -0.47298,1.87486 -3.1638,4.86205 -3.1638,4.86205 l -21.32632,-0.47435"
         style="display:inline;fill:#ff5b14;fill-opacity:1;fill-rule:evenodd;stroke:#000000;stroke-width:2.80068541;stroke-linecap:butt;stroke-linejoin:miter;stroke-miterlimit:4;stroke-dasharray:none;stroke-opacity:1" />
      <path
         sodipodi:nodetypes="ccccc"
         inkscape:connector-curvature="0"
         id="path4231"
         d="m 580.35593,289.37604 c 0,-0.46788 -0.22687,-22.92615 -0.22687,-22.92615 6.82387,-3.23902 13.55616,-4.02279 20.07863,0.81879 l -0.22688,24.91465 z"
         style="display:inline;fill:#f0ca1b;fill-opacity:1;fill-rule:evenodd;stroke:#000000;stroke-width:2.73679519;stroke-linecap:butt;stroke-linejoin:miter;stroke-miterlimit:4;stroke-dasharray:none;stroke-opacity:1" />
      <path
         sodipodi:nodetypes="csssccsscc"
         inkscape:connector-curvature="0"
         id="path4227"
         d="m 517.30481,256.03286 c 0,0 20.51884,-1.30765 27.961,-0.23564 6.34077,0.91337 15.90427,7.34553 20.20711,16.73106 3.63683,7.93279 3.15595,7.22833 3.5245,10.13289 0.2175,1.71427 0.0831,5.60085 0.0831,5.60085 l -24.20154,1.44248 c 0,0 -0.19265,-6.25656 -1.72784,-8.22157 -1.18816,-1.52083 -3.41147,-1.82646 -5.33541,-1.92562 -6.92086,-0.35673 -19.57104,-0.19521 -19.57104,-0.19521 0.20143,-7.9829 -0.0348,-15.79024 -0.93985,-23.32924 z"
         style="fill:#f0ca1b;fill-opacity:1;fill-rule:evenodd;stroke:#000000;stroke-width:2.79530811;stroke-linecap:butt;stroke-linejoin:miter;stroke-miterlimit:4;stroke-dasharray:none;stroke-opacity:1" />
      <path
         sodipodi:nodetypes="scsssss"
         inkscape:connector-curvature="0"
         id="path4229"
         d="m 489.16819,251.04068 25.12812,-0.68376 c 0,0 1.63707,0.49461 1.88033,1.19658 3.24165,9.35442 2.61961,22.81406 1.36752,31.19649 -0.0954,0.63882 -0.83387,1.09791 -1.45298,1.28204 -5.24492,1.55986 -15.2083,2.41 -16.66662,0.68376 -7.45956,-8.83 -14.96811,-33.54689 -10.25637,-33.67511 z"
         style="fill:#ff5b14;fill-opacity:1;fill-rule:evenodd;stroke:#000000;stroke-width:2.87178612;stroke-linecap:butt;stroke-linejoin:miter;stroke-miterlimit:4;stroke-dasharray:none;stroke-opacity:1" />
      <g
         style="stroke-width:4.44789982;stroke-miterlimit:4;stroke-dasharray:none"
         transform="matrix(0.64564991,0,0,0.64564991,253.59306,130.93601)"
         id="g4247">
        <circle
           r="30.236338"
           cy="301.30518"
           cx="491.93774"
           id="circle4243"
           style="opacity:1;fill:#ff6600;fill-opacity:1;fill-rule:nonzero;stroke:#000000;stroke-width:4.44789982;stroke-miterlimit:4;stroke-dasharray:none;stroke-dashoffset:0" />
        <circle
           r="18.274561"
           cy="301.30518"
           cx="491.93774"
           id="circle4245"
           style="opacity:1;fill:#ffcc00;fill-opacity:1;fill-rule:nonzero;stroke:#000000;stroke-width:4.44789982;stroke-miterlimit:4;stroke-dasharray:none;stroke-dashoffset:0" />
      </g>
    </g>
  </g>
</svg>
