<?xml version="1.0"?>
<svg width="417.152" height="400.985" xmlns:rdf="http://www.w3.org/1999/02/22-rdf-syntax-ns#" xmlns="http://www.w3.org/2000/svg" xmlns:cc="http://web.resource.org/cc/" xmlns:xlink="http://www.w3.org/1999/xlink" xmlns:dc="http://purl.org/dc/elements/1.1/" xmlns:svg="http://www.w3.org/2000/svg" id="Layer_1" xml:space="preserve" overflow="visible" viewBox="0 0 417.152 400.985" version="1.1" enable-background="new 0 0 417.152 400.985">
<g clip-rule="evenodd" fill-rule="evenodd">
	<path d="m179.73 16.799c-3.221 6.777-10.61 9.387-15.998 13.998-15.591-9.321-36.824-8.241-46.994 2-0.593 0.597-1.097 2.835-2 4-2.168 2.795-1.502 2.016-3 6.999-1.037 3.452-3.744 11.999-3 19.998 0.5 5.366 4.776 11.339 4 16.998-0.579 4.219-5.664 7.301-6.999 10.999-8.495-3.503-9.941-14.056-15.998-19.998-7.24-33.794 7.427-61.367 34.996-66.992 19.98-4.077 39.55 3.809 54.99 11.998z" fill="#80561B"/>
	<path d="m359.71 91.79c-5.864-1.134-6.448-7.549-9.998-10.999 3.556-10.624 6.396-24.808 2.999-35.996-1.297-4.272-5.712-6.589-4.999-10.999-9.192-10.58-36.385-13.982-47.994-3-6.906-3.425-12.639-8.025-17.998-12.998 13.99-11.779 41.602-17.469 64.992-10.999 2.398 3.753 6.341 4.808 10.999 7.999 3.927 2.69 2.525 2.274 5.999 5.999 9.378 10.058 12.565 26.951 8.999 45.994-0.44 2.348 0.433 4.864 0 6-2.95 7.712-10.11 12.82-13 18.999z" fill="#80561B"/>
	<path d="m294.72 32.797c12.982 2.997 22.74 11.851 30.996 19.998 8.243 8.134 17.904 17.152 20.997 29.996 4.442 3.557 6.486 9.512 10.999 12.999 3.177 16.943 2.158 33.844 0 51.994-1.948 16.379-3.955 31.155-10.999 43.994-5.909 10.771-15.871 17.979-21.997 25.997-10.882-0.814-16.459 9.959-27.997 11.998-10.079 1.781-30.062-3.26-46.994-2-7.641 0.569-15.137 2.675-21.997 2-8.817-0.867-17.646-5.071-26.996-5.999-12.731-1.263-26.39 2.092-36.996 0-4.417-0.871-10.177-5.065-14.998-7.999-13.098-7.971-29.417-18.137-39.995-25.997-10.68-26.438-15.874-64.456-4-90.989 1.924-4.299 5.299-6.835 7.999-10.999 2.991-4.613 4.248-9.547 6.999-13.999 2.456-3.973 5.63-7.025 8.999-10.999 6.206-7.318 12.494-15.576 19.998-20.997 6.706-4.845 15.375-7.521 21.997-11.999 5.305-3.587 8.341-7.69 12.999-11.999 7.244-2.717 16.91-1.652 25.997-3 16.562-2.456 51.32-3.213 65.992 3 8.19 3.48 13.03 10.883 18.99 15.008zm-25 14.998c7.325-21.031-13.697-27.817-33.996-25.997-9.01 0.808-16.578 4.796-24.997 4-3.788-0.359-6.082-2.361-9.999-2 1.007 3.008-2.228 1.772-4 2-16.19 42.509 52.84 38.979 73 21.997zm21 78.995c-0.273 0.134 6.543-6.963 5.999-6 1.767-3.132 2.635-9.715 2-12.998-1.571-8.126-12.183-12.894-18.997-11.999-25.91 3.4-12.48 42.519 11 30.999zm-126.99-13c0.835 9.758 12.131 17.082 20.998 14.998 16.453-3.867 15.851-36.724-7.999-31.996-9.91 1.961-13.72 8.516-13 16.996zm88.99 14c-10.345-1.7-21.983-0.891-32.996 0-10.022 0.811-21.018 1.877-29.997 4.999-14.862 5.168-29.181 16.986-33.996 27.997-4.721 10.796-1.077 28.17 4 34.996 5.068 6.813 9.022 9.825 17.998 14.999 4.761 2.744 11.859 7.587 15.998 8.999 2.376 0.811 5.601 0 8.999 0.999 2.287 0.673 4.65 2.438 6.999 3 9.411 2.253 21.767 2.929 31.996 2 7.858-0.714 18.892-2.98 26.997-5.999 4.98-1.855 10.007-6.192 14.998-8.999 6.218-3.497 11.838-5.7 14.998-8.999 9.59-10.009 15.378-17.512 9.999-38.995-9.25-17.45-29.71-30.7-56-35.01z" fill="#80561B"/>
	<path d="m256.72 26.798c-5.182 2.407-8.771 0.229-13.999 1-10.389 1.532-20.395 9.462-28.996 9.999-4.326 0.27-15.838 0.568-14.998-8.999 19.74 9.674 36.53-5.602 58-2z" fill="#EEE1C5"/>
	<path d="m158.74 31.797c-21.696 10.505-41.232 42.757-44.994 42.995-1.167-4.94-1.913-8.895-2-13.998-0.139-8.166 1.078-15.153 5-21.998 2.502-4.366 10.645-10.19 12.999-10.999 0.86-0.295 8.023-0.979 8.999-1 1.86-0.039 15.25 0.279 19.99 5z" fill="#EEE1C5"/>
	<path d="m348.71 73.792c-7.021-6.707-12.738-14.759-19.998-21.997-2.279-2.272-3.725-5.036-5.999-6.999-6.083-5.25-14.02-7.429-18.997-13.999 32.2-16.157 58.11 15.995 45 42.995z" fill="#EEE1C5"/>
	<path d="m196.73 38.796c5.388-0.557 13.077 2.575 21.998 1 9.146-1.615 21.47-11.016 34.996-9.999 4.7 0.354 15.308 3.1 14.998 9.999-0.409 9.119-6.533 9.909-16.998 12.999-2.383 0.704-4.877 2.691-6.999 3-20.76 3.019-47.77-1.376-48-16.999z" fill="#EEE1C5"/>
	<path d="m361.71 253.77c-12.653-10.01-22.154-23.173-32.996-34.995 8.862-10.803 17.862-21.467 24.997-33.996 6.632-23.557 12.757-57.352 6.999-88.989 15.913-1.517 31.604 2.077 39.995 10.999 0.882 0.938 3.517 4.258 4 5 15.604 23.948 4.817 65.968-4 92.988-6.343 8.822-10.326 18.626-16.998 26.997-6.46 8.1-14.82 14.54-21.99 21.99zm3-112.99c1.815 10.224 10.569 16.549 16.998 19.998 19.884 0.786 32.353-12.952 28.996-31.996-1.572-8.922-8.833-15.026-14.998-19.997-6.012 0.654-14.648-1.317-18.998 1-8.49 3.04-14.26 18.29-12 31z" fill="#80561B"/>
	<path d="m291.72 105.79c-0.055 4.611 0.443 9.775-1 12.999-9.424 7.766-22.526 1.535-19.997-9.999 1.85-8.42 15.02-10.778 21-3z" fill="#D59F0F"/>
	<path d="m187.73 102.79c14.195 20.078-20.821 27.205-17.998 6.999 1.04-7.42 8.32-9.72 18-7z" fill="#D59F0F"/>
	<path d="m381.71 113.79c19.747-5.567 28.701 13.048 23.997 31.996-4.873 4.791-8.775 9.946-15.998 9.999-18.5 0.13-25.47-33.29-8-42z" fill="#EEE1C5"/>
	<path d="m308.72 162.78c5.463 22.664-0.409 28.986-9.999 38.995-3.16 3.299-8.78 5.502-14.998 8.999-4.991 2.807-10.018 7.144-14.998 8.999-8.105 3.019-19.139 5.285-26.997 5.999-10.229 0.929-22.585 0.253-31.996-2-2.349-0.562-4.712-2.327-6.999-3-3.398-0.999-6.623-0.188-8.999-0.999-4.139-1.412-11.237-6.255-15.998-8.999-8.975-5.174-12.93-8.186-17.998-14.999-5.077-6.825-8.72-24.2-4-34.996 4.815-11.011 19.134-22.828 33.996-27.997 8.979-3.122 19.975-4.188 29.997-4.999 11.012-0.891 22.651-1.7 32.996 0 26.29 4.32 46.75 17.57 56 35zm-141.99 37c4.319 4.587 15.938 10.962 21.998 13.998 6.201 3.107 9.717 3.301 16.998 5 5.918 1.381 11.016 3.549 17.998 3.999 23.439 1.513 40.552-4.678 52.993-10.998 12.183-6.19 23.392-12.878 27.996-23.998 3.386-8.174 2.654-17.558 0-23.997-2.33-5.655-9.859-14.066-10.998-14.998-4.334-3.543-3.696-3.269-8.999-5.999-9.778-5.036-17.2-8.64-27.996-10.999-7.831-1.711-18.276-3-25.997-3-18.462 0-35.238 5.925-45.994 10.999-14.17 6.684-22.369 13.216-27.997 25.997-1.43 16.53 2.57 26.1 10 34z"/>
	<path d="m156.74 165.78c5.627-12.78 13.826-19.312 27.997-25.997 10.756-5.074 27.532-10.999 45.994-10.999 7.721 0 18.166 1.289 25.997 3 10.796 2.359 18.218 5.963 27.996 10.999 5.303 2.73 4.665 2.456 8.999 5.999 1.139 0.932 8.668 9.343 10.998 14.998 2.654 6.439 3.386 15.823 0 23.997-4.604 11.12-15.813 17.807-27.996 23.998-12.441 6.32-29.554 12.511-52.993 10.998-6.982-0.45-12.08-2.618-17.998-3.999-7.28-1.699-10.797-1.893-16.998-5-6.06-3.036-17.679-9.411-21.998-13.998-7.44-7.9-11.44-17.47-10-34zm103.98 8c1.306-1.413 3.808-1.761 4-2 0.819-1.021 3.977-9.716 3.999-9.999 2.521-31.759-71.667-31.852-74.991-4-1.164 9.753 4.208 12.9 9.999 16.998 7.575 5.361 15.367 7.853 25.997 8.999v23.997c-10.496 5.703-23.696 2.662-33.996-2 3.162 8.503 15.105 8.226 26.997 7.999 3.435-0.898 4.345-4.32 8.999-3.999 8.384 5.352 27.885 6.062 35.995-4-5.978 1.05-16.912 6.537-25.997 5-2.885-0.488-5.716-2.139-7.998-4-0.013-6.091-0.493-17.785 0-23.997 11.47 0.34 22.64-4.27 27-9z" fill="#EEE1C5"/>
	<path d="m233.73 182.78c-0.493 6.212-0.013 17.906 0 23.997 2.282 1.861 5.113 3.512 7.998 4 9.085 1.537 20.02-3.95 25.997-5-8.11 10.062-27.611 9.352-35.995 4-4.654-0.321-5.564 3.101-8.999 3.999-11.892 0.227-23.834 0.504-26.997-7.999 10.299 4.662 23.5 7.703 33.996 2v-23.997c-10.629-1.146-18.422-3.638-25.997-8.999-5.791-4.098-11.163-7.245-9.999-16.998 3.323-27.852 77.511-27.759 74.991 4-0.022 0.283-3.18 8.978-3.999 9.999-0.192 0.239-2.694 0.587-4 2-4.37 4.73-15.54 9.34-27 9z"/>
	<path d="m131.74 208.78c-10.724 19.605-24.118 36.541-32.996 57.993-18.114-4.789-46.583-13.562-65.992-19.998-10.276-3.407-18.423-7.639-22.998-13.998-15.459-21.495 1.445-51.43 26.997-52.994 5.723-0.35 13.047 0.479 18.998 2 17.119 4.375 38.032 6.794 54.993 11.999 5.07 6.92 14.4 9.59 21 15zm-124.99 3.99c-1.426 23.759 27.658 35.904 46.994 20.998 5.595-9.529 6.749-17.305 5-30.996-6.868-7.275-16.851-17.893-31.996-12.999-11.698 3.29-19.309 11.53-19.998 23z" fill="#80561B"/>
	<path d="m26.751 189.78c15.146-4.894 25.128 5.723 31.996 12.999 1.749 13.691 0.595 21.467-5 30.996-19.336 14.906-48.42 2.761-46.994-20.998 0.69-11.48 8.301-19.72 19.998-23zm8.999 5c-8.067-0.694-18.38 4.139-20.998 11.999-4.821 14.478 4.296 29.994 24.997 26.997 10.64-4.181 16.774-16.069 11.999-29.996-4.867-3.45-8.987-8.4-15.998-9z"/>
	<path d="m51.749 203.78c4.775 13.927-1.358 25.815-11.999 29.996-20.701 2.997-29.818-12.52-24.997-26.997 2.618-7.86 12.931-12.693 20.998-11.999 7.01 0.6 11.13 5.55 15.998 9z" fill="#EEE1C5"/>
	<path d="m134.74 210.78c8.365 4.966 17.592 9.07 24.997 14.998-13.015 18.647-28.738 34.587-41.995 52.993-14.139 1.75-20.943-14.496-9.999-20.997 5.87-18.79 18.6-30.73 27-46.99z" fill="#B4D5F0"/>
	<path d="m297.72 232.77c4.324-2.627 8.192-4.065 11.999-5.999 4.011-2.038 9.208-7.987 14.998-6.999 2.667 0.455 4.996 5.477 7.999 8.998 3.276 3.844 7.676 8.445 11.998 12.999 5.18 5.457 13.386 9.615 12.999 16.998-0.285 5.421-8.41 10.998-11.999 10.998-4.378 0-8.096-5.328-12.998-8.999-2.137-1.6-4.841-2.43-6.999-3.999-9.78-7.11-19.84-16.32-28-24z" fill="#B4D5F0"/>
	<path d="m172.21 226.93c18.142-3.398 40.818 4.451 54.52 6.104-3.389 5.654-9.322 8.7-19.627 7.323-12.99-1.73-26.9-8.27-34.89-13.42z" fill="#B4D5F0"/>
	<path d="m230.73 234.77c5.994 4.517 5.596 4.951 12.998 6.999 4.453 1.231 14.533 4.03 23.997 2.999 4.287-0.467 8.904-1.656 12.999-2.999 5.901-1.936 11.149-6.202 13.998-6 3.525 0.252 7.683 5.249 11.998 8.999 12.139 10.547 22.92 18.322 35.996 26.997 1.552 9.534 3.465 23.747 0.999 33.995-62.897-0.368-144.8 0.757-221.97-1.999-2.715-5.285-1.983-14.015-2-21.997 14.021-18.643 28.548-36.778 43.995-53.994 1.163 0.163 1.779-0.221 2-0.999 13.48 11.66 48.27 26.08 64.97 8z" fill="#B4D5F0"/>
	<path d="m288.72 232.61c-12.351 10.326-40.507 14.744-53.993 2.835 12.17-8.64 39.21-5.53 53.99-2.83z" fill="#B4D5F0"/>
	<path d="m345.71 307.76c3.7 6.633 1.334 19.33 2 28.997-20.189-1.167-42.047-1.883-60.992 2.999-2.011 0.519-4.002 2.479-5.999 3-2.984 0.778-5.516 0.222-7.999 1-15.754 4.938-27.854 15.007-38.995 22.997 1.012-5.975-1.406-11.603 0-15.998 0.82-2.566 5.801-6.258 8.998-8.999 5.062-4.338 17.164-9.694 25.997-11.999 3.826-0.998 9.012 0.581 10.999-2.999-20.232-1.232-35.794 10.865-48.994 19.997-11.99-13.34-27.791-22.869-49.994-25.996 2.281 4.384 10.584 2.747 12.998 6.999 16.633 3.364 27.083 12.911 36.996 22.997v16.998c-24.687-22.975-59.791-35.531-110.99-31.996-0.522-8.273-2.386-20.102 0-27.997 72.86-0.01 153.28-0.05 225.96 0z" fill="#fff"/>
	<path d="m230.73 371.76v24.997c-49.01-0.651-100.63 1.312-147.98-1-7.434-14.26 0.027-30.019 8.999-38.995 4.473-4.476 9.818-8.476 15.998-11.998 15.781-8.995 49.265-7.341 69.991-2 20.74 5.34 39.01 16.44 52.99 29z" fill="#80561B"/>
	<path d="m379.71 396.75h-144.98c-2.217-6.448-0.418-16.913-0.999-24.997 6.298-4.75 13.734-13.963 23.996-18.998 2.504-1.228 5.896-0.761 8.999-1.999 2.972-1.187 5.359-4.19 7.999-5 5.251-1.609 11.982-1.662 17.998-2.999 11.99-2.665 35.67-7.614 53.993-4 10.208 2.014 23.868 13.754 29.996 20.998 5.94 7.05 17.1 27.16 2.99 37z" fill="#80561B"/>
	<path d="m365.71 91.79c37.194-0.482 54.525 23.385 50.993 62.992-3.217 36.072-17.457 66.327-35.995 86.989-7.1 7.912-19.032 13.772-22.997 24.997-1.772 4.227-7.466 4.533-9.999 7.998 2.56 11.19-0.308 20.676 1 29.997 0.58 4.137 3.407 8.132 3.999 11.998 1.02 6.662-1.665 11.938 0 18.998 13.326 8.688 30.888 17.326 35.996 36.995 2.471 9.515 1.646 16.28-3 24.997-23.995 3.571-53.323 1.999-81.989 1.999h-83.99c-38.353 0-81.618 0.527-104.99 1-16.16 0.328-32.504 1.047-36.996-3.999-6.391-7.181-1.858-24.647 2-31.996 7.271-13.85 23.355-23.12 36.996-28.996-4.799-16.268 1.731-36.437-1-50.994-7.789-3.876-15.394-7.936-19.998-14.998-18.351-3.594-37.646-11.247-55.993-16.998-6.45-2.021-13.826-2.604-18.998-4.999-8.229-3.811-12.436-12.227-17.998-17.998-9.507-24.632 7.006-50.455 27.997-53.993 7.895-1.331 17.029 1.304 26.997 3 15.807 2.689 31.51 4.672 44.995 8.999 0.238-7.32-4.953-14.356-7-23.997-4.721-22.234-1.572-51.368 6-67.991-10.523-13.361-21.119-24.918-17.985-50.993 1.791-14.9 11.461-29.515 22.997-36.996 19.267-12.494 56.381-8.232 76.99 7 22.392-5.597 51.692-9.174 78.99-4 2.537 0.481 10.087 3.553 14.998 3 5.462-0.615 9.838-5.603 15.998-7.999 16.236-6.317 41.911-9.034 58.992 0 5.01 2.649 12.909 10.499 16.998 15.998 5.754 7.738 8.793 19.008 10.999 32.996-2.18 15.149-8.08 26.589-15 36.995zm-240.97-86.989c-27.568 5.625-42.235 33.197-34.996 66.992 6.057 5.942 7.503 16.494 15.998 19.998 1.335-3.698 6.42-6.78 6.999-10.999 0.777-5.659-3.5-11.632-4-16.998-0.745-7.999 1.962-16.546 3-19.998 1.498-4.983 0.832-4.204 3-6.999 0.903-1.164 1.407-3.403 2-4 10.17-10.241 31.403-11.321 46.994-2 5.388-4.611 12.777-7.221 15.998-13.998-15.44-8.189-35.01-16.075-54.99-11.998zm247.97 67.991c0.433-1.135-0.44-3.651 0-6 3.566-19.043 0.379-35.937-8.999-45.994-3.474-3.725-2.072-3.309-5.999-5.999-4.658-3.191-8.601-4.246-10.999-7.999-23.391-6.47-51.002-0.781-64.992 10.999 5.359 4.973 11.092 9.573 17.998 12.998 11.609-10.982 38.802-7.58 47.994 3-0.713 4.41 3.702 6.727 4.999 10.999 3.397 11.188 0.557 25.372-2.999 35.996 3.55 3.449 4.134 9.864 9.998 10.999 2.89-6.18 10.05-11.288 13-18.999zm-96.99-54.993c-14.672-6.212-49.43-5.455-65.992-3-9.087 1.347-18.753 0.283-25.997 3-4.657 4.308-7.694 8.412-12.999 11.999-6.622 4.477-15.292 7.153-21.997 11.999-7.504 5.421-13.792 13.679-19.998 20.997-3.369 3.973-6.543 7.026-8.999 10.999-2.751 4.452-4.008 9.386-6.999 13.999-2.7 4.163-6.075 6.699-7.999 10.999-11.874 26.533-6.681 64.551 4 90.989 10.578 7.86 26.897 18.026 39.995 25.997 4.821 2.934 10.581 7.128 14.998 7.999 10.605 2.092 24.264-1.263 36.996 0 9.35 0.928 18.179 5.132 26.996 5.999 6.86 0.675 14.356-1.431 21.997-2 16.932-1.26 36.915 3.781 46.994 2 11.538-2.039 17.115-12.812 27.997-11.998 6.126-8.019 16.088-15.226 21.997-25.997 7.044-12.839 9.051-27.615 10.999-43.994 2.158-18.15 3.177-35.05 0-51.994-4.513-3.486-6.557-9.441-10.999-12.999-3.093-12.844-12.754-21.862-20.997-29.996-8.256-8.146-18.014-17.001-30.996-19.998-5.95-4.131-10.79-11.534-18.99-15.004zm-136.98 8.999c-0.975 0.021-8.138 0.705-8.999 1-2.354 0.808-10.497 6.633-12.999 10.999-3.922 6.844-5.139 13.832-5 21.998 0.087 5.104 0.833 9.058 2 13.998 3.762-0.237 24.161-33.117 44.994-42.995-4.73-4.722-18.12-5.04-19.99-5zm164.98 3.999c4.978 6.569 12.914 8.749 18.997 13.999 2.274 1.963 3.72 4.727 5.999 6.999 7.26 7.238 12.978 15.29 19.998 21.997 13.1-27-12.81-59.152-45-42.995zm79.99 200.97c6.672-8.371 10.655-18.175 16.998-26.997 8.817-27.02 19.604-69.04 4-92.988-0.483-0.741-3.118-4.062-4-5-8.392-8.922-24.082-12.516-39.995-10.999 5.758 31.637-0.367 65.432-6.999 88.989-7.135 12.529-16.135 23.193-24.997 33.996 10.842 11.822 20.343 24.985 32.996 34.995 7.16-7.44 15.52-13.88 21.99-21.99zm-272.97-37.99c-16.961-5.205-37.875-7.623-54.993-11.999-5.95-1.521-13.275-2.35-18.998-2-25.552 1.564-42.457 31.499-26.997 52.994 4.574 6.359 12.722 10.591 22.998 13.998 19.409 6.436 47.877 15.209 65.992 19.998 8.877-21.452 22.272-38.388 32.996-57.993-6.6-5.41-15.93-8.08-21-15zm-3 63.99c-10.944 6.501-4.14 22.747 9.999 20.997 13.257-18.406 28.98-34.346 41.995-52.993-7.405-5.928-16.632-10.032-24.997-14.998-8.4 16.26-21.13 28.2-27 46.99zm217.97-1c2.158 1.569 4.862 2.399 6.999 3.999 4.902 3.671 8.62 8.999 12.998 8.999 3.589 0 11.714-5.577 11.999-10.998 0.387-7.383-7.819-11.541-12.999-16.998-4.322-4.554-8.722-9.155-11.998-12.999-3.003-3.521-5.332-8.543-7.999-8.998-5.79-0.988-10.987 4.961-14.998 6.999-3.807 1.934-7.675 3.372-11.999 5.999 8.17 7.68 18.23 16.89 28 24zm-118.88-16.42c10.448 1.377 16.463-1.669 19.899-7.323-13.891-1.652-36.881-9.502-55.274-6.104 8.1 5.15 22.2 11.69 35.37 13.42zm-41.1-13.58c-0.221 0.778-0.837 1.162-2 0.999-15.447 17.216-29.974 35.352-43.995 53.994 0.017 7.982-0.715 16.712 2 21.997 77.171 2.756 159.07 1.631 221.97 1.999 2.466-10.248 0.553-24.461-0.999-33.995-13.076-8.675-23.857-16.45-35.996-26.997-4.315-3.75-8.473-8.747-11.998-8.999-2.849-0.202-8.097 4.064-13.998 6-4.095 1.343-8.712 2.532-12.999 2.999-9.464 1.031-19.544-1.768-23.997-2.999-7.402-2.048-7.004-2.482-12.998-6.999-16.68 18.09-51.47 3.67-64.98-7.99zm68.99 8.67c13.486 11.909 41.643 7.491 53.993-2.835-14.77-2.69-41.81-5.8-53.99 2.84zm-114.98 72.32c-2.386 7.896-0.522 19.724 0 27.997 51.195-3.535 86.3 9.021 110.99 31.996v-16.998c-9.912-10.086-20.362-19.633-36.996-22.997-2.414-4.252-10.717-2.615-12.998-6.999 22.203 3.127 38.004 12.656 49.994 25.996 13.2-9.132 28.762-21.229 48.994-19.997-1.987 3.58-7.173 2.001-10.999 2.999-8.833 2.305-20.936 7.661-25.997 11.999-3.197 2.741-8.178 6.433-8.998 8.999-1.406 4.396 1.012 10.023 0 15.998 11.142-7.99 23.241-18.06 38.995-22.997 2.483-0.778 5.015-0.222 7.999-1 1.997-0.521 3.988-2.481 5.999-3 18.945-4.882 40.803-4.166 60.992-2.999-0.666-9.667 1.7-22.364-2-28.997-72.66-0.05-153.08-0.01-225.95 0zm57.99 35c-20.727-5.341-54.21-6.995-69.991 2-6.18 3.522-11.525 7.522-15.998 11.998-8.971 8.977-16.433 24.735-8.999 38.995 47.349 2.312 98.972 0.349 147.98 1v-24.997c-13.97-12.56-32.24-23.66-52.99-29zm198.98 17c-6.128-7.244-19.788-18.984-29.996-20.998-18.323-3.614-42.003 1.335-53.993 4-6.016 1.337-12.747 1.39-17.998 2.999-2.64 0.81-5.027 3.813-7.999 5-3.103 1.238-6.495 0.771-8.999 1.999-10.262 5.035-17.698 14.248-23.996 18.998 0.581 8.084-1.218 18.549 0.999 24.997h144.98c14.12-9.85 2.96-29.96-2.99-37z"/>
	<path d="m196.73 25.798c1.772-0.228 5.007 1.008 4-2 3.917-0.361 6.21 1.641 9.999 2 8.418 0.797 15.987-3.192 24.997-4 20.299-1.82 41.321 4.965 33.996 25.997-20.17 16.982-89.2 20.512-73-21.997zm2 3c-0.84 9.567 10.672 9.269 14.998 8.999 8.601-0.537 18.607-8.467 28.996-9.999 5.229-0.771 8.817 1.407 13.999-1-21.48-3.602-38.27 11.674-58 2zm45.99 26.996c2.122-0.309 4.616-2.296 6.999-3 10.465-3.09 16.589-3.88 16.998-12.999 0.31-6.899-10.298-9.645-14.998-9.999-13.525-1.018-25.85 8.384-34.996 9.999-8.92 1.575-16.61-1.557-21.998-1 0.24 15.624 27.25 20.019 48 16.999z"/>
	<path d="m176.73 96.79c23.85-4.728 24.452 28.128 7.999 31.996-8.867 2.084-20.163-5.24-20.998-14.998-0.72-8.48 3.09-15.035 13-17zm-7 13c-2.823 20.206 32.193 13.079 17.998-6.999-9.68-2.72-16.96-0.42-18 7z"/>
	<path d="m376.71 109.79c4.35-2.316 12.986-0.346 18.998-1 6.165 4.971 13.426 11.075 14.998 19.997 3.356 19.044-9.112 32.782-28.996 31.996-6.429-3.448-15.183-9.774-16.998-19.998-2.26-12.72 3.51-27.97 12-31zm13 45.99c7.223-0.052 11.125-5.208 15.998-9.999 4.704-18.948-4.25-37.563-23.997-31.996-17.47 8.72-10.5 42.14 8 42z"/>
	<path d="m279.72 95.79c6.814-0.895 17.426 3.872 18.997 11.999 0.635 3.283-0.233 9.866-2 12.998 0.544-0.964-6.272 6.134-5.999 6-23.48 11.52-36.91-27.599-11-31zm-9 13c-2.529 11.533 10.573 17.765 19.997 9.999 1.443-3.223 0.945-8.387 1-12.999-5.98-7.778-19.15-5.42-21 3z"/>
</g>
<metadata><rdf:RDF><cc:Work><dc:format>image/svg+xml</dc:format><dc:type rdf:resource="http://purl.org/dc/dcmitype/StillImage"/><cc:license rdf:resource="http://creativecommons.org/licenses/publicdomain/"/><dc:publisher><cc:Agent rdf:about="http://openclipart.org/"><dc:title>Openclipart</dc:title></cc:Agent></dc:publisher><dc:title>teddy bear</dc:title><dc:date>2007-01-03T20:16:24</dc:date><dc:description>a teddy bear from a U.S. patent drawing</dc:description><dc:source>http://openclipart.org/detail/2770/teddy-bear-by-johnny_automatic</dc:source><dc:creator><cc:Agent><dc:title>johnny_automatic</dc:title></cc:Agent></dc:creator><dc:subject><rdf:Bag><rdf:li>bear</rdf:li><rdf:li>clip art</rdf:li><rdf:li>clipart</rdf:li><rdf:li>doll</rdf:li><rdf:li>externalsource</rdf:li><rdf:li>image</rdf:li><rdf:li>media</rdf:li><rdf:li>png</rdf:li><rdf:li>public domain</rdf:li><rdf:li>svg</rdf:li><rdf:li>teddy</rdf:li><rdf:li>teddy bear</rdf:li><rdf:li>toy</rdf:li><rdf:li>uspto</rdf:li></rdf:Bag></dc:subject></cc:Work><cc:License rdf:about="http://creativecommons.org/licenses/publicdomain/"><cc:permits rdf:resource="http://creativecommons.org/ns#Reproduction"/><cc:permits rdf:resource="http://creativecommons.org/ns#Distribution"/><cc:permits rdf:resource="http://creativecommons.org/ns#DerivativeWorks"/></cc:License></rdf:RDF></metadata></svg>
