<?xml version="1.0" encoding="UTF-8" standalone="no"?>
<!-- Created with Inkscape (http://www.inkscape.org/) -->

<svg
   xmlns:dc="http://purl.org/dc/elements/1.1/"
   xmlns:cc="http://creativecommons.org/ns#"
   xmlns:rdf="http://www.w3.org/1999/02/22-rdf-syntax-ns#"
   xmlns:svg="http://www.w3.org/2000/svg"
   xmlns="http://www.w3.org/2000/svg"
   xmlns:xlink="http://www.w3.org/1999/xlink"
   xmlns:sodipodi="http://sodipodi.sourceforge.net/DTD/sodipodi-0.dtd"
   xmlns:inkscape="http://www.inkscape.org/namespaces/inkscape"
   width="70.53849mm"
   height="46.224968mm"
   viewBox="0 0 70.538489 46.224968"
   version="1.1"
   id="svg3073"
   inkscape:version="0.92+devel unknown"
   sodipodi:docname="train.svg">
  <defs
     id="defs3067">
    <clipPath
       clipPathUnits="userSpaceOnUse"
       id="clipPath1402">
      <path
         sodipodi:nodetypes="cscccccc"
         inkscape:connector-curvature="0"
         id="path1404"
         d="m 165.44141,191.32227 c -14.34615,0.15172 -27.77809,6.21988 -32.82813,26.6582 -1.28189,5.188 0.0556,9.80469 2.65072,13.26106 2.59516,3.45637 3.16827,9.305 6.67741,11.64519 10.98185,5.88964 24.60554,6.46728 32.23242,-3.33594 3.17832,-4.21102 4.44531,-15.18945 4.44531,-15.18945 -0.19611,-10.78688 1.00327,-19.32348 -3.15982,-26.48702 -2.3322,-3.85157 -3.58284,-6.62014 -10.01791,-6.55204 z"
         style="opacity:1;fill:#b5582d;fill-opacity:1;stroke:none;stroke-width:1.53018379px;stroke-linecap:butt;stroke-linejoin:miter;stroke-opacity:1" />
    </clipPath>
    <clipPath
       clipPathUnits="userSpaceOnUse"
       id="clipPath6870">
      <path
         inkscape:connector-curvature="0"
         id="path6872"
         d="m 632.34548,497.62018 -123.44922,95.59961 18.67578,1.7871 c 0,0 0.12839,-0.0624 0.13672,-0.0664 l 26.2793,2.875 c 0,0 0.27745,-0.14992 0.29296,-0.1582 l 33.86329,-0.29688 c 2.50977,0.0903 12.05012,0.42056 17.16406,0.21289 2.69179,-0.29716 5.69612,-1.30433 7.80273,-2.8418 1.93112,-1.84657 3.87494,-4.13169 4.76563,-6.77343 1.59265,-4.78221 2.38429,-14.12193 2.50781,-15.66992 l 5.68945,-30.5625 c 0.004,-0.005 0.14649,-0.1543 0.14649,-0.1543 l 3.88281,-27.58203 c 10e-4,-0.002 0.043,-0.0586 0.043,-0.0586 z"
         style="fill:#008000;fill-opacity:1;stroke:none;stroke-width:0.36372256px;stroke-linecap:butt;stroke-linejoin:miter;stroke-opacity:1" />
    </clipPath>
    <clipPath
       clipPathUnits="userSpaceOnUse"
       id="clipPath6486">
      <path
         style="opacity:1;fill:url(#linearGradient6490);fill-opacity:1;stroke:none;stroke-width:2.71706223;stroke-miterlimit:4;stroke-dasharray:none;stroke-opacity:1"
         d="m 605.08546,475.76539 c 6.67607,10.56158 -12.79452,30.8701 -43.01578,55.90757 -30.22128,25.0375 -58.30695,37.65564 -64.00645,31.19824 -4.73906,-5.36928 13.76082,-30.95831 43.98211,-55.99584 30.22125,-25.03749 59.29737,-37.03109 63.04012,-31.10997 z"
         id="path6488"
         inkscape:connector-curvature="0"
         sodipodi:nodetypes="sssss" />
    </clipPath>
    <clipPath
       clipPathUnits="userSpaceOnUse"
       id="clipPath6528">
      <path
         sodipodi:nodetypes="sssss"
         inkscape:connector-curvature="0"
         id="path6530"
         d="m 606.27176,477.17328 c 4.70407,8.76487 -11.90688,23.79074 -37.32272,41.96376 -25.41585,18.17303 -48.43314,26.60442 -52.5939,21.15401 -3.45965,-4.53196 12.67922,-23.80612 38.09506,-41.97916 25.41583,-18.17305 49.18433,-26.05244 51.82156,-21.13861 z"
         style="opacity:1;fill:url(#linearGradient6532);fill-opacity:1;stroke:none;stroke-width:2.16314507;stroke-miterlimit:4;stroke-dasharray:none;stroke-opacity:1" />
    </clipPath>
    <clipPath
       clipPathUnits="userSpaceOnUse"
       id="clipPath6538">
      <path
         sodipodi:nodetypes="sssss"
         inkscape:connector-curvature="0"
         id="path6540"
         d="m 606.45515,483.15867 c 5.72023,16.59527 -27.45551,38.0805 -76.85674,62.56257 -49.40131,24.48212 -91.87498,32.6722 -97.58425,22.00375 -4.7472,-8.87073 28.80521,-37.8893 78.20654,-62.37147 49.40122,-24.48209 93.02761,-31.49863 96.23445,-22.19485 z"
         style="opacity:1;fill:url(#linearGradient6542);fill-opacity:1;stroke:none;stroke-width:3.8171351;stroke-miterlimit:4;stroke-dasharray:none;stroke-opacity:1" />
    </clipPath>
    <clipPath
       clipPathUnits="userSpaceOnUse"
       id="clipPath6844">
      <path
         sodipodi:nodetypes="sssss"
         inkscape:connector-curvature="0"
         id="path6846"
         d="m 637.81958,473.36275 c 7.70109,15.64998 -15.23572,41.59392 -65.98762,74.25799 -52.4524,33.75853 -88.52672,40.59309 -95.4807,30.78479 -5.78214,-8.15554 10.49362,-38.86151 66.13615,-76.05616 45.54639,-30.44582 91.01478,-37.76044 95.33217,-28.98662 z"
         style="opacity:1;fill:url(#linearGradient6848);fill-opacity:1;stroke:none;stroke-width:3.79292917;stroke-miterlimit:4;stroke-dasharray:none;stroke-opacity:1" />
    </clipPath>
    <filter
       inkscape:collect="always"
       style="color-interpolation-filters:sRGB"
       id="filter6994"
       x="-0.012204598"
       width="1.0244092"
       y="-0.71581829"
       height="2.4316366">
      <feGaussianBlur
         inkscape:collect="always"
         stdDeviation="1.2108632"
         id="feGaussianBlur6996" />
    </filter>
    <filter
       inkscape:collect="always"
       style="color-interpolation-filters:sRGB"
       id="filter7871"
       x="-0.030257134"
       width="1.0605143"
       y="-0.044433586"
       height="1.0888672">
      <feGaussianBlur
         inkscape:collect="always"
         stdDeviation="2.5849805"
         id="feGaussianBlur7873" />
    </filter>
    <linearGradient
       inkscape:collect="always"
       xlink:href="#linearGradient6484"
       id="linearGradient6488"
       x1="-848.15033"
       y1="1018.9473"
       x2="-814.43286"
       y2="1019.9901"
       gradientUnits="userSpaceOnUse"
       gradientTransform="matrix(1.3099516,0,0,1.3099516,1678.5336,-813.72731)" />
    <linearGradient
       inkscape:collect="always"
       id="linearGradient6484">
      <stop
         style="stop-color:#cd2328;stop-opacity:1"
         offset="0"
         id="stop6480" />
      <stop
         id="stop6496"
         offset="0.2833184"
         style="stop-color:#db1821;stop-opacity:1;" />
      <stop
         style="stop-color:#ce1d23;stop-opacity:1"
         offset="1"
         id="stop6482" />
    </linearGradient>
    <linearGradient
       inkscape:collect="always"
       xlink:href="#linearGradient6529"
       id="linearGradient6531"
       x1="-838.04596"
       y1="1024.859"
       x2="-832.07019"
       y2="1024.4061"
       gradientUnits="userSpaceOnUse"
       spreadMethod="reflect"
       gradientTransform="translate(1706.0324,-686.12171)" />
    <linearGradient
       inkscape:collect="always"
       id="linearGradient6529">
      <stop
         style="stop-color:#ffffff;stop-opacity:1;"
         offset="0"
         id="stop6525" />
      <stop
         style="stop-color:#ffffff;stop-opacity:0;"
         offset="1"
         id="stop6527" />
    </linearGradient>
    <filter
       inkscape:collect="always"
       style="color-interpolation-filters:sRGB"
       id="filter6563"
       x="-0.03862679"
       width="1.0772536"
       y="-0.017408088"
       height="1.0348161">
      <feGaussianBlur
         inkscape:collect="always"
         stdDeviation="0.2069633"
         id="feGaussianBlur6565" />
    </filter>
    <radialGradient
       inkscape:collect="always"
       xlink:href="#linearGradient6472"
       id="radialGradient7718"
       gradientUnits="userSpaceOnUse"
       gradientTransform="matrix(2.735573,0.07447172,-0.09795766,3.5982866,2943.2476,-3059.393)"
       cx="-817.06897"
       cy="1019.6542"
       fx="-817.06897"
       fy="1019.6542"
       r="40.210579" />
    <linearGradient
       inkscape:collect="always"
       id="linearGradient6472">
      <stop
         style="stop-color:#f6c729;stop-opacity:1"
         offset="0"
         id="stop6468" />
      <stop
         style="stop-color:#d9a809;stop-opacity:1"
         offset="1"
         id="stop6470" />
    </linearGradient>
    <linearGradient
       inkscape:collect="always"
       xlink:href="#linearGradient6508"
       id="linearGradient6510"
       x1="-755.68799"
       y1="1029.3754"
       x2="-759.164"
       y2="1007.4764"
       gradientUnits="userSpaceOnUse"
       gradientTransform="matrix(1.3099516,0,0,1.3099516,1678.7612,-813.72601)" />
    <linearGradient
       inkscape:collect="always"
       id="linearGradient6508">
      <stop
         style="stop-color:#9aa71e;stop-opacity:1;"
         offset="0"
         id="stop6504" />
      <stop
         style="stop-color:#879537;stop-opacity:1"
         offset="1"
         id="stop6506" />
    </linearGradient>
    <linearGradient
       inkscape:collect="always"
       xlink:href="#linearGradient6529"
       id="linearGradient6533"
       x1="-839.10864"
       y1="1003.2222"
       x2="-832.9707"
       y2="1003.041"
       gradientUnits="userSpaceOnUse"
       spreadMethod="reflect"
       gradientTransform="translate(1706.0324,-686.12171)" />
    <filter
       inkscape:collect="always"
       style="color-interpolation-filters:sRGB"
       id="filter6555"
       x="-0.078198083"
       width="1.1563962"
       y="-0.066712297"
       height="1.1334246">
      <feGaussianBlur
         inkscape:collect="always"
         stdDeviation="0.4006635"
         id="feGaussianBlur6557" />
    </filter>
    <filter
       inkscape:collect="always"
       style="color-interpolation-filters:sRGB"
       id="filter6593"
       x="-0.031298079"
       width="1.0625962"
       y="-0.72333336"
       height="2.4466667">
      <feGaussianBlur
         inkscape:collect="always"
         stdDeviation="0.98270848"
         id="feGaussianBlur6595" />
    </filter>
    <linearGradient
       inkscape:collect="always"
       xlink:href="#linearGradient6529"
       id="linearGradient6611"
       x1="-746.60645"
       y1="1033.2268"
       x2="-726.46234"
       y2="1033.2268"
       gradientUnits="userSpaceOnUse"
       spreadMethod="reflect"
       gradientTransform="matrix(1.3099516,0,0,1.3099516,1678.5336,-813.72731)" />
    <linearGradient
       inkscape:collect="always"
       xlink:href="#linearGradient6999"
       id="linearGradient7001"
       x1="876.02258"
       y1="390.67444"
       x2="878.29657"
       y2="414.46417"
       gradientUnits="userSpaceOnUse"
       gradientTransform="matrix(1.3099516,0,0,1.3099516,-556.28631,85.059019)" />
    <linearGradient
       inkscape:collect="always"
       id="linearGradient6999">
      <stop
         style="stop-color:#d61a22;stop-opacity:1;"
         offset="0"
         id="stop6995" />
      <stop
         style="stop-color:#ce1d23;stop-opacity:1"
         offset="1"
         id="stop6997" />
    </linearGradient>
    <linearGradient
       inkscape:collect="always"
       xlink:href="#linearGradient6632"
       id="linearGradient6634"
       x1="-829.00085"
       y1="996.42004"
       x2="-800.2489"
       y2="996.6684"
       gradientUnits="userSpaceOnUse"
       spreadMethod="reflect"
       gradientTransform="matrix(1.3099516,0,0,1.3099516,1678.5336,-813.72731)" />
    <linearGradient
       inkscape:collect="always"
       id="linearGradient6632">
      <stop
         style="stop-color:#ec9276;stop-opacity:1;"
         offset="0"
         id="stop6628" />
      <stop
         style="stop-color:#ec9276;stop-opacity:0;"
         offset="1"
         id="stop6630" />
    </linearGradient>
    <linearGradient
       inkscape:collect="always"
       xlink:href="#linearGradient6999"
       id="linearGradient7003"
       x1="966.35516"
       y1="393.76956"
       x2="974.06305"
       y2="413.36115"
       gradientUnits="userSpaceOnUse"
       gradientTransform="matrix(1.3099516,0,0,1.3099516,-556.28631,85.059019)" />
    <linearGradient
       inkscape:collect="always"
       xlink:href="#linearGradient7780"
       id="linearGradient7782"
       x1="613.96869"
       y1="626.98187"
       x2="647.89789"
       y2="625.14874"
       gradientUnits="userSpaceOnUse"
       spreadMethod="reflect"
       gradientTransform="translate(-26.770672,-41.901921)" />
    <linearGradient
       inkscape:collect="always"
       id="linearGradient7780">
      <stop
         style="stop-color:#ffffff;stop-opacity:0.7"
         offset="0"
         id="stop7776" />
      <stop
         style="stop-color:#ffffff;stop-opacity:0;"
         offset="1"
         id="stop7778" />
    </linearGradient>
    <linearGradient
       inkscape:collect="always"
       xlink:href="#linearGradient7780"
       id="linearGradient7786"
       gradientUnits="userSpaceOnUse"
       x1="613.96869"
       y1="626.98187"
       x2="647.89789"
       y2="625.14874"
       spreadMethod="reflect"
       gradientTransform="translate(98.963478,-41.901921)" />
    <radialGradient
       inkscape:collect="always"
       xlink:href="#linearGradient6529"
       id="radialGradient7816"
       cx="615.35168"
       cy="644.38403"
       fx="615.35168"
       fy="644.38403"
       r="27.046223"
       gradientTransform="matrix(1,0,0,1.0252101,-26.770672,-58.146886)"
       gradientUnits="userSpaceOnUse" />
    <radialGradient
       inkscape:collect="always"
       xlink:href="#linearGradient6529"
       id="radialGradient7820"
       gradientUnits="userSpaceOnUse"
       gradientTransform="matrix(1,0,0,1.0252101,99.153138,-58.146886)"
       cx="615.35168"
       cy="644.38403"
       fx="615.35168"
       fy="644.38403"
       r="27.046223" />
    <linearGradient
       inkscape:collect="always"
       xlink:href="#linearGradient6484"
       id="linearGradient11880"
       gradientUnits="userSpaceOnUse"
       gradientTransform="matrix(1.3099516,0,0,1.3099516,1678.5336,-813.72731)"
       x1="-848.15033"
       y1="1018.9473"
       x2="-814.43286"
       y2="1019.9901" />
  </defs>
  <sodipodi:namedview
     id="base"
     pagecolor="#ffffff"
     bordercolor="#666666"
     borderopacity="1.0"
     inkscape:pageopacity="0.0"
     inkscape:pageshadow="2"
     inkscape:zoom="0.35"
     inkscape:cx="-186.39134"
     inkscape:cy="87.150062"
     inkscape:document-units="mm"
     inkscape:current-layer="layer1"
     inkscape:document-rotation="0"
     showgrid="false"
     fit-margin-top="3"
     fit-margin-right="3"
     fit-margin-bottom="3"
     fit-margin-left="3"
     inkscape:window-width="1600"
     inkscape:window-height="836"
     inkscape:window-x="0"
     inkscape:window-y="0"
     inkscape:window-maximized="1" />
  <metadata
     id="metadata3070">
    <rdf:RDF>
      <cc:Work
         rdf:about="">
        <dc:format>image/svg+xml</dc:format>
        <dc:type
           rdf:resource="http://purl.org/dc/dcmitype/StillImage" />
        <dc:title></dc:title>
      </cc:Work>
    </rdf:RDF>
  </metadata>
  <g
     inkscape:label="Ebene 1"
     inkscape:groupmode="layer"
     id="layer1"
     transform="translate(-20.211876,-125.66681)">
    <g
       id="g7023"
       transform="matrix(0.26458333,0,0,0.26458333,-60.23512,-5.0371053)">
      <ellipse
         ry="2.0298948"
         rx="119.05643"
         cy="651.26129"
         cx="437.35272"
         id="path6988"
         style="opacity:0.15;fill:#1a1a1a;fill-opacity:1;stroke:none;stroke-width:31.61275101;stroke-linecap:round;stroke-linejoin:round;stroke-miterlimit:4;stroke-dasharray:none;filter:url(#filter6994)" />
      <g
         transform="translate(-209.73822,20.954096)"
         id="g7898">
        <path
           inkscape:connector-curvature="0"
           style="opacity:0.3;fill:#000000;fill-opacity:1;stroke:none;stroke-width:0.51023769;stroke-miterlimit:4;stroke-dasharray:none;stroke-opacity:1;filter:url(#filter7871)"
           d="m 655.10547,490.58789 c -2.93772,0 -5.30469,2.36487 -5.30469,5.30273 v 9.69141 h 12.03711 v 6.13086 5.10938 14.41796 15.73438 h -53.66406 l 9.33203,-37.32617 h 0.002 c 1.83173,0 3.30469,-2.36295 3.30469,-5.30078 v -10.96094 -2.61914 -0.002 h -56.20898 v 0.002 2.61914 10.96094 c 0,2.93783 1.47685,5.30078 3.30859,5.30078 h 0.01 l 10.17968,37.32617 h -21.27539 v 45.9375 H 543.262 v 2.66406 1.67578 6.09375 0.48633 0.82422 1.54883 1.67773 1.45703 0.89454 h 19.36719 a 27.046223,27.72806 0 0 0 25.95117,19.97656 27.046223,27.72806 0 0 0 25.95117,-19.97656 h 73.92969 a 27.046223,27.72806 0 0 0 25.95117,19.97656 27.046223,27.72806 0 0 0 0.0527,-0.002 27.046223,27.72806 0 0 0 0.0391,0.002 27.046223,27.72806 0 0 0 25.94921,-19.97656 h 7.84766 v -0.0547 c 0,0 0.002,0 0.002,0 v -1.52735 c 0,0 -0.002,0 -0.002,0 v -1.25586 c 0,0 0.002,0 0.002,0 v -1.30273 c 0,0 -0.002,0 -0.002,0 v -1.64844 c 0,0 0.002,0 0.002,0 v -1.16601 c 0,0 -0.002,0 -0.002,0 v -4.9043 c 0,0 0.002,0 0.002,0 v -1.4668 c 0,0 -0.002,0 -0.002,0 v -1.13672 c 0,0 0.002,0 0.002,0 v -1.5996 c 0,0 -0.002,0 -0.002,0 v -1.25977 h -8.43359 a 27.046223,27.72806 0 0 0 -14.39844,-15.75586 v -4.60352 -2.43164 -5.42187 -2.5332 V 545.69336 545 v -1.18555 -0.002 h -37.70508 c 4.1e-4,-0.003 0.002,-0.005 0.002,-0.008 -0.43863,-0.0131 -0.86929,-0.0439 -1.29296,-0.10157 -0.003,0.0195 -0.005,0.0391 -0.008,0.0586 -3.55438,-0.3357 -6.58204,-2.43266 -8.19922,-5.41602 -0.16069,-0.29651 -0.30744,-0.60095 -0.43945,-0.91406 -0.13201,-0.31304 -0.24996,-0.63497 -0.35156,-0.96289 -0.10141,-0.32737 -0.18647,-0.66149 -0.25586,-1.00195 0,0 0,-0.002 0,-0.002 -0.0693,-0.34048 -0.12261,-0.68721 -0.1582,-1.03906 0,0 0,-0.002 0,-0.002 -0.0355,-0.35187 -0.0546,-0.71075 -0.0547,-1.07227 v -10.04101 c 0,-3.75565 1.96704,-7.02717 4.92383,-8.8711 0.71043,-0.33014 1.47142,-0.59455 2.23242,-0.88672 0.033,-0.0679 0.0684,-0.1334 0.10156,-0.20117 1.00981,-0.32267 2.08552,-0.5 3.20508,-0.5 h 38 v -0.002 h 0.002 v -1.39258 h -0.002 v -5.33398 -0.54102 h 14.47852 v -9.69141 c 0,-2.93786 -2.36309,-5.30273 -5.30079,-5.30273 z"
           id="path7822" />
        <path
           id="path1923"
           d="m 567.91125,509.64812 c -1.83174,0 -3.30705,-2.36341 -3.30705,-5.30124 v -13.58031 h 56.20862 v 13.58031 c 0,2.93783 -1.47371,5.30124 -3.30544,5.30124 z"
           style="opacity:1;fill:url(#linearGradient11880);fill-opacity:1;stroke:none;stroke-width:0.51023769;stroke-miterlimit:4;stroke-dasharray:none;stroke-opacity:1"
           inkscape:connector-curvature="0"
           sodipodi:nodetypes="ssccsss" />
        <path
           style="opacity:1;fill:url(#linearGradient6488);fill-opacity:1;stroke:none;stroke-width:1.30995166px;stroke-linecap:butt;stroke-linejoin:miter;stroke-opacity:1"
           d="m 567.78568,509.14889 10.60549,38.88684 29.34184,0.70698 9.89846,-39.59382 z"
           id="path1926"
           inkscape:connector-curvature="0" />
        <path
           style="opacity:0.6;fill:url(#linearGradient6531);fill-opacity:1;stroke:none;stroke-width:1px;stroke-linecap:butt;stroke-linejoin:miter;stroke-opacity:1;filter:url(#filter6563)"
           d="m 861.19351,324.65179 11.36843,0.072 1.49083,28.4614 h -5.66248 z"
           id="path6523"
           inkscape:connector-curvature="0"
           sodipodi:nodetypes="ccccc"
           transform="matrix(1.3099516,0,0,1.3099516,-556.28632,85.059019)" />
        <rect
           style="opacity:1;fill:url(#radialGradient7718);fill-opacity:1;stroke:none;stroke-width:0.80129582;stroke-miterlimit:4;stroke-dasharray:none;stroke-opacity:1"
           id="rect1916"
           width="105.34783"
           height="47.37117"
           x="556.82666"
           y="546.9751"
           ry="0" />
        <path
           style="opacity:1;fill:#f5c110;fill-opacity:1;stroke:none;stroke-width:0.64616692;stroke-miterlimit:4;stroke-dasharray:none;stroke-opacity:1"
           d="m 655.10538,490.5888 c -2.93772,0 -5.30377,2.36341 -5.30377,5.30128 v 9.69155 h 90.14607 v -9.69155 c 0,-2.93787 -2.3634,-5.30128 -5.3011,-5.30128 z"
           id="rect1918"
           inkscape:connector-curvature="0" />
        <path
           style="opacity:1;fill:url(#linearGradient6510);fill-opacity:1;stroke:none;stroke-width:0.85232544;stroke-miterlimit:4;stroke-dasharray:none;stroke-opacity:1"
           d="M 661.83707,505.27773 V 594.009 h 63.63241 v -50.19524 h -38.00142 c -5.79511,0 -10.46169,-4.66658 -10.46169,-10.46167 V 523.31 c 0,-5.79523 4.66658,-10.45918 10.46169,-10.45918 h 38.00142 v -7.57309 z"
           id="rect1914"
           inkscape:connector-curvature="0" />
        <g
           id="g7806"
           transform="translate(47.918358,-174.64791)">
          <rect
             style="opacity:1;fill:#dcc38b;fill-opacity:1;stroke:none;stroke-width:0.67599636;stroke-miterlimit:4;stroke-dasharray:none;stroke-opacity:1"
             id="rect7790"
             width="205.03938"
             height="17.322292"
             x="495.34366"
             y="767.56073"
             ry="0" />
          <path
             inkscape:connector-curvature="0"
             id="path2740"
             d="m 554.05765,767.56075 c 4.92046,0.34387 9.84243,0.66389 14.78125,0.83985 8.60066,0.36566 17.21102,0.77198 25.83008,0.82422 5.90516,0.0535 2.94645,-9.7e-4 8.86328,0.11523 1.17449,0 7.68578,10e-4 8.77734,0.0332 1.52817,0 3.05582,0.0488 4.58399,0.0488 1.49859,-3.1e-4 2.99403,-0.033 4.49218,-0.0488 9.46988,-0.0913 18.94492,-0.18036 28.41211,-0.35742 1.57974,0 3.15858,-0.0375 4.73829,-0.0312 6.54622,0.0346 13.0851,0.28573 19.63086,0.34961 4.05826,0.0567 8.1211,0.0727 12.17578,0.22071 4.26088,0.15422 3.6047,0.16463 7.65625,0.4375 1.00278,0.0692 2.0026,0.13354 3.00586,0.19335 1.12568,0.0811 2.2522,0.15754 3.3789,0.23438 v -1.59961 c -0.19902,-0.006 -0.39874,-0.0137 -0.59765,-0.0195 -1.04225,-0.0439 -2.08141,-0.10645 -3.125,-0.13477 -2.75468,-0.0724 -5.512,-0.0841 -8.26758,-0.14062 -3.98966,-0.0819 -7.97397,-0.19522 -11.96094,-0.32617 -5.1068,-0.14485 -10.22077,-0.24047 -15.33203,-0.20899 -3.20161,0.0315 -6.40281,0.10661 -9.60352,0.16016 -9.43715,0.1511 -18.87267,0.28808 -28.3125,0.3164 -1.46454,-0.002 -2.93,-0.002 -4.39453,0 -1.56269,9.3e-4 -3.12525,0.0315 -4.6875,0 -8.81538,-0.0474 -7e-5,-0.0663 -8.55664,-0.12304 -10.40811,-0.0724 1.04078,0.10705 -8.95312,-0.0723 -7.4352,-0.0791 -14.85726,-0.34925 -22.27344,-0.71094 z m -58.71484,2.66407 v 1.67578 c 3.51363,0.0589 7.02777,0.12459 10.53906,0.23242 5.09737,0.0598 10.19468,0.12619 15.29297,0.0664 5.74377,0 11.48668,-0.0535 17.23047,0 6.52514,0 13.05174,0.19514 19.56836,0.41797 1.99753,0.0567 5.16566,0.13839 7.14257,0.22656 4.7513,0.21716 9.49285,0.55273 14.24414,0.76953 8.14208,0.3795 16.2679,0.88143 24.40235,1.33203 2.80264,0.14486 5.60183,0.32638 8.40625,0.45508 1.39505,0.063 2.79652,0.0981 4.19336,0.14844 4.33529,0.1511 8.66881,0.35402 13.01172,0.3496 0.72532,0.002 1.45391,0 2.17968,0 l 0.002,0.0313 c 0.72577,0 1.44806,0.002 2.17383,0 1.41026,-0.0315 2.81958,-0.0655 4.22851,-0.10938 6.40545,-0.19506 12.80311,-0.49253 19.1875,-0.9082 1.79715,-0.0913 3.59588,-0.18611 5.39258,-0.27735 1.78324,-0.11 3.56306,-0.23595 5.34765,-0.33203 6.74077,-0.36941 13.49419,-0.59337 20.23047,-1.00781 4.08405,-0.11703 8.17759,-0.28876 12.26758,-0.27149 v -1.46679 c -3.45486,0.251 -6.91438,0.47122 -10.36914,0.72461 -5.09332,0.33386 -10.18131,0.70775 -15.27734,1.02148 -5.41429,0.33326 -10.8393,0.56854 -16.25586,0.88477 -9.05118,0.47485 -18.12635,0.60649 -27.19727,0.73047 -8.50922,-0.10064 -17.00055,-0.54348 -25.48242,-1.00196 -4.22994,-0.12279 -8.43009,-0.48128 -12.64258,-0.75 -3.81529,-0.2423 -7.62641,-0.47975 -11.43945,-0.74218 -7.08191,-0.48052 -14.19373,-0.74243 -21.29492,-1.05079 -3.26033,-0.0913 -6.51659,-0.2867 -9.77735,-0.36914 -3.18771,-0.0788 -6.37435,-0.10151 -9.5625,-0.17382 -5.68327,-0.0439 -11.3675,-0.0759 -17.05078,-0.0918 -5.03954,0 -10.07689,-0.0357 -15.11328,-0.15235 -4.52567,-0.14679 -9.04898,-0.27272 -13.57812,-0.36132 z m 184.97656,7.375 c -1.79177,0.0315 -3.58412,0.0761 -5.375,0.11718 -7.25492,0.16671 -14.51068,0.18358 -21.76563,0.35157 -18.31126,0.42639 5.80143,-0.0421 -12.85547,0.30078 -12.38143,0.35494 -24.77018,0.63347 -37.16015,0.77539 -11.75969,0.10384 -23.51873,0.11677 -35.2793,0.12305 -5.75411,-0.002 -11.50249,-0.0391 -17.2539,-0.16797 -1.76039,-0.0408 -3.52387,-0.11257 -5.28516,-0.14063 -3.94394,-0.063 -7.88524,-0.0568 -11.83008,-0.0977 -5.93477,-0.14148 -11.87685,-0.11044 -17.8125,-0.22071 -5.07137,-0.0944 -10.14571,-0.28599 -15.21484,-0.42383 -1.71604,-0.0602 -3.43023,-0.14905 -5.14453,-0.22265 v 0.48633 c 1.49305,0.0334 2.98515,0.0475 4.47851,0.0684 1.67701,0.0378 3.35576,0.0931 5.03321,0.11523 3.58623,0.0439 7.17114,0 10.75781,0 5.93744,0.0376 11.87551,0.15386 17.8125,0.23242 3.84444,0.0785 7.68788,0.1869 11.5332,0.24024 1.83122,0.0315 3.66442,0.0312 5.49609,0.0312 5.78144,0.0474 11.56097,0.20469 17.34375,0.12304 11.76014,0 23.52353,-6.7e-4 35.28321,-0.11718 12.38996,-0.14173 24.77089,-0.41846 37.15234,-0.77344 11.38851,-0.2109 22.78609,-0.33445 34.17774,-0.42383 8.43031,0.12279 16.88768,0.19483 25.2539,1.01367 0.23077,0.0336 0.48269,0.0709 0.71875,0.10352 v -1.16602 c -5.11681,-0.22619 -10.24159,-0.23543 -15.36719,-0.27734 -1.56584,0 -3.13097,-0.0577 -4.69726,-0.0449 z m -184.73633,1.58398 -0.24023,0.1211 v 1.54882 c 4.3444,0.0488 8.68652,0.16586 13.02734,0.29883 5.09781,0.0598 10.19665,0.12827 15.29492,0.0684 5.74379,0 11.48474,-0.0535 17.22852,0 6.52514,0.002 13.04589,0.18901 19.5625,0.41211 1.99798,0.0567 5.17499,0.13841 7.15234,0.22656 4.7513,0.21716 9.48893,0.55694 14.24024,0.77344 8.14206,0.37949 16.2694,0.88339 24.40429,1.33398 2.80264,0.14487 5.60423,0.32605 8.40821,0.45508 1.39548,0.063 2.79695,0.1011 4.19336,0.14844 3.25181,0.11333 6.50007,0.2518 9.7539,0.3125 h 10.04492 c 0.60386,-0.0159 1.20839,-0.0281 1.8125,-0.0469 6.40545,-0.19506 12.80312,-0.49448 19.1875,-0.91015 1.79714,-0.0913 3.58957,-0.18879 5.38672,-0.2832 1.78326,-0.10999 3.56697,-0.23595 5.35156,-0.33204 6.74076,-0.36909 13.49615,-0.59339 20.23243,-1.00781 3.2497,-0.0931 6.50511,-0.2159 9.75976,-0.25781 v -1.30273 c -2.62796,0.18916 -5.25631,0.37182 -7.88281,0.56445 -5.09335,0.33416 -10.18177,0.70775 -15.27734,1.02148 -5.41476,0.33326 -10.83931,0.5682 -16.25586,0.88477 -9.05118,0.47452 -18.12051,0.60646 -27.19141,0.73047 -8.50922,-0.0976 -17.00053,-0.54379 -25.48242,-1.00196 -4.22949,-0.12279 -8.43358,-0.48127 -12.64649,-0.75 -3.81529,-0.24232 -7.63226,-0.4794 -11.44531,-0.74218 -7.08235,-0.48052 -14.18593,-0.75021 -21.28711,-1.0586 -3.26032,-0.0913 -6.51808,-0.27855 -9.7793,-0.36133 -3.18769,-0.0785 -6.37974,-0.10151 -9.56835,-0.17382 -5.68327,-0.0439 -11.35926,-0.082 -17.04297,-0.0977 -5.03955,0 -10.07687,-0.032 -15.11328,-0.14844 -4.56212,-0.1511 -9.1257,-0.27257 -13.69141,-0.36133 -0.71276,-0.0315 -1.42396,-0.0453 -2.13672,-0.0644 z m 11.36719,3.09961 c -1.131,0 -5.44929,0.067 -6.64844,0.0859 -1.65435,0 -3.30632,0.10076 -4.95898,0.16211 v 1.45703 c 0.78725,-0.0477 1.57435,-0.10197 2.35937,-0.15039 8.50966,-0.44715 17.04196,-0.33205 25.56641,-0.29492 5.87424,0.11959 11.753,0.17884 17.625,0.34961 0.73922,0.0315 12.08404,0.45586 12.78515,0.47851 2.3548,0.0754 4.71265,0.1355 7.06836,0.19531 2.64516,0.0983 5.289,0.21241 7.9336,0.31641 h 8.09179 c -0.52804,-0.0201 -1.05587,-0.0405 -1.58398,-0.0606 -2.30459,-0.0882 -4.61293,-0.1445 -6.91797,-0.23242 -2.33957,-0.0913 -4.67501,-0.20506 -7.01367,-0.30273 -6.48256,-0.33199 -12.97225,-0.59472 -19.45703,-0.89649 -2.01367,-0.0944 -4.02015,-0.21823 -6.03516,-0.29687 -3.68305,-0.14486 -7.37478,-0.15984 -11.05469,-0.34961 -1.67522,-0.0723 -3.35124,-0.16128 -5.02734,-0.21485 -1.65772,-0.0535 -7.07728,-0.12868 -8.79688,-0.16015 -1.31389,-0.0315 -2.62163,-0.0744 -3.93554,-0.084 z m 193.43359,1.01758 c -5.09866,0.29216 -10.18855,0.64274 -15.28906,0.92773 -4.04251,0.22748 -8.08651,0.46201 -12.13281,0.6543 h 22.36132 c 1.6859,-0.0375 3.37203,-0.058 5.06055,-0.0547 z"
             style="opacity:1;fill:#ba984d;fill-opacity:1;stroke:none;stroke-width:0.91527253;stroke-miterlimit:4;stroke-dasharray:none;stroke-opacity:1" />
        </g>
        <path
           style="color:#000000;font-style:normal;font-variant:normal;font-weight:normal;font-stretch:normal;font-size:medium;line-height:normal;font-family:sans-serif;font-variant-ligatures:normal;font-variant-position:normal;font-variant-caps:normal;font-variant-numeric:normal;font-variant-alternates:normal;font-feature-settings:normal;text-indent:0;text-align:start;text-decoration:none;text-decoration-line:none;text-decoration-style:solid;text-decoration-color:#000000;letter-spacing:normal;word-spacing:normal;text-transform:none;writing-mode:lr-tb;direction:ltr;text-orientation:mixed;dominant-baseline:auto;baseline-shift:baseline;text-anchor:start;white-space:normal;shape-padding:0;clip-rule:nonzero;display:inline;overflow:visible;visibility:visible;opacity:0.76000001;isolation:auto;mix-blend-mode:normal;color-interpolation:sRGB;color-interpolation-filters:linearRGB;solid-color:#000000;solid-opacity:1;vector-effect:none;fill:#a9b315;fill-opacity:1;fill-rule:evenodd;stroke:none;stroke-width:0.84290463;stroke-linecap:butt;stroke-linejoin:miter;stroke-miterlimit:4;stroke-dasharray:none;stroke-dashoffset:0;stroke-opacity:1;color-rendering:auto;image-rendering:auto;shape-rendering:auto;text-rendering:auto;enable-background:accumulate"
           d="m 664.4416,505.27642 c -0.93693,2.10457 -1.79498,4.25669 -2.6046,6.4371 v 5.10933 c 0.28304,0 0.56835,-0.14213 0.68317,-0.48101 1.2262,-3.69223 2.63133,-7.29001 4.21383,-10.76872 0.0447,-0.0982 0.0511,-0.19846 0.0511,-0.2967 z m 6.94119,0 c -2.75154,5.38443 -6.36001,10.80867 -8.10024,16.7607 -0.86536,2.95997 -1.20414,6.06455 -1.44555,9.20293 v 17.18801 c 0.34197,0.001 0.68452,-0.21247 0.71898,-0.66008 0.90331,-14.93555 4.69893,-29.55317 11.16014,-42.16669 0.0539,-0.10611 0.0688,-0.21706 0.0688,-0.32487 z m 7.24821,0 c -14.54585,25.40376 -16.89315,60.57819 -4.65134,88.73376 h 2.32822 c 7.1e-4,-0.0982 -0.007,-0.19806 -0.0489,-0.2967 -9.36175,-20.97861 -10.91922,-46.22518 -4.48247,-68.07151 2.09674,-7.11657 5.61733,-13.87264 9.23615,-20.0023 0.0688,-0.11659 0.0972,-0.24169 0.0972,-0.36325 z m 7.64479,0 c -2.35078,3.47045 -4.61496,6.69294 -6.39937,10.6072 1.1023,-1.24995 2.70019,-1.72167 4.2861,-2.33053 1.35953,-2.79714 2.86222,-5.4591 4.55663,-7.86482 0.0912,-0.12969 0.1234,-0.27208 0.12277,-0.41185 z m 8.33048,0 c -1.9905,2.35293 -3.80073,4.89398 -5.44706,7.57309 h 2.70942 c 1.62753,-2.54851 3.41464,-4.94101 5.34216,-7.0947 0.12879,-0.14396 0.16496,-0.31203 0.16376,-0.47839 z m 9.70947,0 c -0.73338,0.61214 -1.4635,1.24406 -2.17979,1.92903 -1.79958,1.72088 -3.40052,3.61521 -4.83558,5.64406 h 2.77849 c 1.08911,-1.35462 2.2456,-2.64021 3.48981,-3.83004 1.20571,-1.15288 2.44681,-2.20805 3.71237,-3.17257 0.19857,-0.15182 0.25283,-0.3622 0.25077,-0.57048 z m 14.43504,0 c -4.37813,1.52557 -8.59828,4.03714 -12.45475,7.57309 h 3.58705 c 4.85424,-3.81301 10.1775,-6.02381 15.5864,-6.72634 v -0.84675 z m 6.6982,6.17354 c -0.028,0 -0.057,0.0131 -0.084,0.0131 -1.8136,0.2688 -3.6109,0.74378 -5.3806,1.38671 h 5.4855 v -1.39183 h -0.021 z m -48.46332,11.56661 c -8.09534,22.42703 -6.9285,49.2864 3.94803,70.99361 h 2.40751 c 0,-0.11003 -0.0156,-0.22387 -0.0716,-0.33259 -4.38057,-8.4712 -5.61195,-17.19063 -6.7468,-26.61351 -0.6119,-5.08104 -2.82076,-10.15553 -2.86807,-15.38931 -0.0589,-6.52055 1.60399,-12.87027 3.30025,-19.08429 v -8.97775 c 0,-0.20147 0.0199,-0.39757 0.0305,-0.59616 z m 2.12064,16.78192 c -3.24514,18.01812 -0.5731,37.14813 8.40779,53.00667 0.23779,0.4201 0.4792,0.81152 0.71891,1.20502 h 2.48942 c 0,-0.12837 -0.0298,-0.25884 -0.10489,-0.38119 -0.42899,-0.69179 -0.84955,-1.38934 -1.25365,-2.103 -3.06966,-5.42045 -3.68808,-9.47121 -5.13236,-15.80902 -1.44037,-6.32078 -3.71165,-14.9269 -3.72002,-21.28161 -0.007,-4.13682 2.10674,-7.37306 2.06979,-11.47229 0,-0.20344 -0.19091,0.0969 -0.18964,-0.10742 -1.30463,-0.77195 -2.42743,-1.81323 -3.28514,-3.05729 z m 7.3665,3.90392 c -2.36361,15.31098 -1.70342,31.28413 5.91014,44.6535 1.14975,2.01889 2.4041,3.89147 3.72512,5.65427 h 2.64297 c 0,-0.15483 -0.0305,-0.31058 -0.14071,-0.45023 -1.57278,-1.98366 -3.04451,-4.14023 -4.38014,-6.48583 -7.34498,-12.89778 -8.78806,-28.42739 -6.46532,-43.26927 -0.43864,-0.0131 -0.86839,-0.0445 -1.29206,-0.10218 z m 6.02269,0.11003 c -3.32812,14.26066 -2.65588,27.17626 4.75622,40.09684 2.25936,3.93823 4.93616,7.3052 7.89046,10.1009 h 3.03437 c 0.007,-0.19767 -0.044,-0.39692 -0.22255,-0.55005 -3.34358,-2.85805 -6.36057,-6.48334 -8.86014,-10.84037 -6.5829,-11.47505 -7.58961,-25.66221 -5.04529,-38.80732 z m 4.24965,0 c -2.32532,11.97872 -0.71941,25.13339 5.37798,35.65532 4.11419,7.09941 9.81713,12.03884 16.08786,14.54242 h 7.1663 c 0,-0.325 -0.1902,-0.65078 -0.6089,-0.71117 -7.97276,-1.06159 -15.67166,-6.26026 -20.81078,-15.1285 -5.78684,-9.98589 -8.39101,-22.61867 -6.1225,-34.06896 0.0191,-0.0969 0.044,-0.19244 0.0638,-0.28911 z m 6.18391,0 c -2.48737,10.3536 -1.34138,22.02239 4.06292,31.21118 4.4968,7.64566 11.29321,12.19669 18.39301,13.04069 0.03,0 0.055,-0.0131 0.085,-0.0131 v -2.39983 c -6.3598,-0.7992 -13.47339,-3.94295 -17.61276,-10.98106 -5.18444,-8.81493 -5.76676,-20.62611 -2.86806,-30.85814 z m 7.29686,0 c -3.35904,8.50447 -3.25118,18.64625 1.64001,26.76703 3.34132,5.54778 8.28486,8.93465 13.49346,9.74028 0.038,0 0.073,-0.0131 0.1101,-0.0131 v -2.40494 c -4.4809,-0.75833 -8.80513,-3.70992 -11.78702,-8.66062 -4.44567,-7.38118 -4.91977,-17.29018 -2.12099,-25.42891 z m 6.42185,0 c -0.58381,1.8173 -1.01841,3.73572 -1.46606,5.38574 -1.64888,6.07752 -1.80533,11.6004 1.56329,16.94998 2.17309,3.45094 5.26529,5.66515 8.56839,6.40397 0.054,0.0131 0.1035,1.3e-4 0.1561,0 v -2.43062 c -2.6181,-0.66938 -5.1218,-2.47253 -6.9336,-5.34984 -3.82579,-6.07568 -3.55786,-14.85905 -0.1484,-20.95923 z m 7.45542,0 c -0.502,0.3867 -0.9892,0.8144 -1.443,1.33052 -1.6895,1.92105 -1.8009,5.79051 -2.1517,8.49674 -0.4235,3.26702 -0.7544,5.42726 1.136,8.10782 0.9599,1.36103 2.1988,2.35162 3.5486,2.91162 0.092,0.038 0.1848,0.0406 0.2764,0.0406 v -2.53292 c -0.7743,-0.42154 -1.503,-1.04836 -2.1006,-1.89576 -2.6871,-3.81026 -2.0667,-10.13051 0.8571,-13.45517 0.3909,-0.44447 0.8113,-0.80208 1.2435,-1.12316 v -1.88056 z M 661.837,561.02088 v 13.28383 c 1.17173,6.75005 2.96146,13.37015 5.40103,19.70547 h 2.29496 c 5e-4,-0.0878 0,-0.17697 -0.0333,-0.26605 -3.98696,-10.12449 -6.26796,-21.02957 -6.94375,-32.0477 -0.0234,-0.37779 -0.33538,-0.67306 -0.71388,-0.67555 z m 0,31.16769 v 1.82161 h 1.09507 c 5e-4,-0.0799 0.007,-0.16126 -0.0234,-0.24299 -0.13348,-0.37793 -0.26978,-0.74078 -0.39148,-1.09761 -0.0998,-0.29199 -0.3751,-0.4801 -0.68055,-0.48101 z"
           id="path2733"
           inkscape:connector-curvature="0"
           sodipodi:nodetypes="ccccccccsccccccccccscccccccccccccccccccccccccccccccccccccccccccsccccccccsccccccccccccccccccccccccccccccccccccccccccccccccccccccccccscccccccccccccccccccccccc" />
        <path
           style="opacity:0.6;fill:url(#linearGradient6533);fill-opacity:1;stroke:none;stroke-width:0.56144226;stroke-miterlimit:4;stroke-dasharray:none;stroke-opacity:1;filter:url(#filter6555)"
           d="m 860.76478,309.71227 v 11.76172 c 0,0.9341 0.13697,1.8244 0.375,2.6523 h 11.54883 c 0.23798,-0.8278 0.37305,-1.7183 0.37305,-2.6523 v -11.76172 z"
           id="rect6518"
           inkscape:connector-curvature="0"
           transform="matrix(1.3099516,0,0,1.3099516,-556.28632,85.059019)" />
        <ellipse
           style="opacity:0.6;fill:#ffffff;fill-opacity:1;stroke:none;stroke-width:0.5;stroke-miterlimit:4;stroke-dasharray:none;stroke-opacity:1;filter:url(#filter6593)"
           id="path6567"
           cx="889.43323"
           cy="357.01501"
           rx="37.67804"
           ry="1.6302998"
           transform="matrix(1.3099516,0,0,1.3099516,-556.28632,85.059019)" />
        <path
           style="opacity:1;fill:url(#linearGradient6611);fill-opacity:1;stroke:none;stroke-width:0.85232544;stroke-miterlimit:4;stroke-dasharray:none;stroke-opacity:1"
           d="m 677.00644,533.3534 v 1.18446 c 0,5.79509 4.66651,10.46179 10.46169,10.46179 h 38.00135 v -1.18721 h -38.00135 c -5.79518,0 -10.46169,-4.66394 -10.46169,-10.45904 z"
           id="path6597"
           inkscape:connector-curvature="0"
           sodipodi:nodetypes="cssccsc" />
        <ellipse
           ry="1.6302998"
           rx="37.67804"
           cy="998.25763"
           cx="-751.91138"
           id="ellipse6613"
           style="opacity:0.6;fill:#ffffff;fill-opacity:1;stroke:none;stroke-width:0.5;stroke-miterlimit:4;stroke-dasharray:none;stroke-opacity:1;filter:url(#filter6593)"
           transform="matrix(1.1144383,0,0,1.3967339,1532.133,-900.35831)" />
        <ellipse
           ry="1.6302998"
           rx="37.67804"
           cy="389.02621"
           cx="921.0946"
           id="ellipse7005"
           style="opacity:0.6;fill:#ffffff;fill-opacity:1;stroke:none;stroke-width:0.5;stroke-miterlimit:4;stroke-dasharray:none;stroke-opacity:1;filter:url(#filter6593)"
           transform="matrix(1.3318609,0,0,0.69187938,-576.92516,325.89819)" />
        <ellipse
           style="opacity:1;fill:url(#linearGradient7001);fill-opacity:1;stroke:none;stroke-width:0.73431742;stroke-miterlimit:4;stroke-dasharray:none;stroke-opacity:1"
           id="path6615"
           cx="588.58099"
           cy="602.48212"
           rx="27.046223"
           ry="27.72806" />
        <path
           style="opacity:1;fill:url(#linearGradient6634);fill-opacity:1;stroke:none;stroke-width:0.51023769;stroke-miterlimit:4;stroke-dasharray:none;stroke-opacity:1"
           d="m 564.60388,490.7671 v 2.61991 h 56.20767 v -2.61991 z"
           id="path6621"
           inkscape:connector-curvature="0" />
        <ellipse
           ry="27.72806"
           rx="27.046223"
           cy="602.48212"
           cx="714.4115"
           id="ellipse6636"
           style="opacity:1;fill:url(#linearGradient7003);fill-opacity:1;stroke:none;stroke-width:0.73431742;stroke-miterlimit:4;stroke-dasharray:none;stroke-opacity:1" />
        <path
           style="opacity:1;fill:url(#linearGradient7782);fill-opacity:1;stroke:none;stroke-width:0.73431742;stroke-miterlimit:4;stroke-dasharray:none;stroke-opacity:1"
           d="m 588.58089,574.75433 a 27.046223,27.72806 0 0 0 -27.04687,27.72852 27.046223,27.72806 0 0 0 0.041,1.17187 27.046223,27.72806 0 0 1 27.00586,-26.90039 27.046223,27.72806 0 0 1 27.00586,26.5625 27.046223,27.72806 0 0 0 0.041,-0.83398 27.046223,27.72806 0 0 0 -27.04688,-27.72852 z"
           id="ellipse7769"
           inkscape:connector-curvature="0" />
        <path
           id="path7784"
           d="m 714.31504,574.75433 a 27.046223,27.72806 0 0 0 -27.04687,27.72852 27.046223,27.72806 0 0 0 0.041,1.17187 27.046223,27.72806 0 0 1 27.00586,-26.90039 27.046223,27.72806 0 0 1 27.00586,26.5625 27.046223,27.72806 0 0 0 0.041,-0.83398 27.046223,27.72806 0 0 0 -27.04688,-27.72852 z"
           style="opacity:1;fill:url(#linearGradient7786);fill-opacity:1;stroke:none;stroke-width:0.73431742;stroke-miterlimit:4;stroke-dasharray:none;stroke-opacity:1"
           inkscape:connector-curvature="0" />
        <ellipse
           ry="27.72806"
           rx="27.046223"
           cy="602.48212"
           cx="588.58099"
           id="ellipse7808"
           style="opacity:0.3;fill:url(#radialGradient7816);fill-opacity:1;stroke:none;stroke-width:0.73431742;stroke-miterlimit:4;stroke-dasharray:none;stroke-opacity:1" />
        <ellipse
           style="opacity:0.3;fill:url(#radialGradient7820);fill-opacity:1;stroke:none;stroke-width:0.73431742;stroke-miterlimit:4;stroke-dasharray:none;stroke-opacity:1"
           id="ellipse7818"
           cx="714.50482"
           cy="602.48212"
           rx="27.046223"
           ry="27.72806" />
      </g>
    </g>
  </g>
</svg>
