<?xml version="1.0" encoding="UTF-8" standalone="no"?>
<!-- Created with Inkscape (http://www.inkscape.org/) -->

<svg
   xmlns:dc="http://purl.org/dc/elements/1.1/"
   xmlns:cc="http://creativecommons.org/ns#"
   xmlns:rdf="http://www.w3.org/1999/02/22-rdf-syntax-ns#"
   xmlns:svg="http://www.w3.org/2000/svg"
   xmlns="http://www.w3.org/2000/svg"
   xmlns:sodipodi="http://sodipodi.sourceforge.net/DTD/sodipodi-0.dtd"
   xmlns:inkscape="http://www.inkscape.org/namespaces/inkscape"
   width="975.00464"
   height="629.55499"
   id="svg2"
   version="1.1"
   inkscape:version="0.48.1 "
   sodipodi:docname="wale.svg">
  <title
     id="title3876">wale</title>
  <defs
     id="defs4">
    <inkscape:path-effect
       effect="spiro"
       id="path-effect3016"
       is_visible="true" />
    <inkscape:path-effect
       effect="spiro"
       id="path-effect3924"
       is_visible="true" />
    <inkscape:path-effect
       effect="spiro"
       id="path-effect3095"
       is_visible="true" />
    <clipPath
       id="clipPath16"
       clipPathUnits="userSpaceOnUse">
      <path
         id="path18"
         d="M 0,580 650,580 650,0 0,0 0,580 z"
         inkscape:connector-curvature="0" />
    </clipPath>
  </defs>
  <sodipodi:namedview
     id="base"
     pagecolor="#ffffff"
     bordercolor="#666666"
     borderopacity="1.0"
     inkscape:pageopacity="0.0"
     inkscape:pageshadow="2"
     inkscape:zoom="0.35"
     inkscape:cx="926.22172"
     inkscape:cy="-71.311343"
     inkscape:document-units="px"
     inkscape:current-layer="layer1"
     showgrid="false"
     inkscape:window-width="1920"
     inkscape:window-height="1058"
     inkscape:window-x="1912"
     inkscape:window-y="-8"
     inkscape:window-maximized="1"
     fit-margin-top="0"
     fit-margin-left="0"
     fit-margin-right="0"
     fit-margin-bottom="0" />
  <metadata
     id="metadata7">
    <rdf:RDF>
      <cc:Work
         rdf:about="">
        <dc:format>image/svg+xml</dc:format>
        <dc:type
           rdf:resource="http://purl.org/dc/dcmitype/StillImage" />
        <dc:title>wale</dc:title>
        <dc:date>2015</dc:date>
        <dc:creator>
          <cc:Agent>
            <dc:title>arking</dc:title>
          </cc:Agent>
        </dc:creator>
        <dc:subject>
          <rdf:Bag>
            <rdf:li>wale ocean blue</rdf:li>
          </rdf:Bag>
        </dc:subject>
      </cc:Work>
    </rdf:RDF>
  </metadata>
  <g
     inkscape:label="Ebene 1"
     inkscape:groupmode="layer"
     id="layer1"
     transform="translate(1851.936,168.50411)">
    <g
       id="g3862"
       transform="matrix(0.58872945,0,0,0.58872945,-1488.3269,-47.433684)">
      <path
         sodipodi:nodetypes="ccccccc"
         inkscape:connector-curvature="0"
         id="path3093"
         d="m -597.14287,320.93361 c -127.7507,565.44313 937.90705,845.44959 1368.57143,-8.57143 127.308,26.76368 210.7832,-18.19887 254.28574,-128.57142 -67.27174,-30.9131 -133.39364,-66.42565 -222.85714,-8.57143 21.5788,-76.50663 -31.7426,-141.49014 -108.5714,-202.85715 -67.1758,83.97977 -83.01771,176.06488 -5.7143,282.85715 C -56.135871,373.83774 -598.43707,46.16669 -597.14287,320.93361"
         style="fill:#00ccff;stroke:#000000;stroke-width:20;stroke-linecap:butt;stroke-linejoin:miter;stroke-miterlimit:4;stroke-opacity:1;stroke-dasharray:none" />
      <path
         sodipodi:nodetypes="ccccc"
         inkscape:connector-curvature="0"
         id="path3093-4"
         d="m -589.00787,320.25268 c -127.7507,565.44311 929.33558,831.16392 1360,-22.85716 63.63118,47.98929 204.56384,-0.88764 248.57137,-111.42856 C 945.24076,162.13981 889.37888,110.65303 793.8493,194.5384 603.47686,629.5277 -320.75627,981.21026 -589.00787,320.25268"
         style="fill:#00aad4;stroke:none" />
      <path
         transform="translate(-397.14287,31.42857)"
         d="m 191.42857,538.07648 c 0,25.2473 -20.46699,45.71428 -45.71429,45.71428 -25.2473,0 -45.714288,-20.46698 -45.714288,-45.71428 0,-25.24731 20.466988,-45.71429 45.714288,-45.71429 25.2473,0 45.71429,20.46698 45.71429,45.71429 z"
         sodipodi:ry="45.714287"
         sodipodi:rx="45.714287"
         sodipodi:cy="538.07648"
         sodipodi:cx="145.71428"
         id="path3866"
         style="fill:#ffffff;fill-opacity:1;stroke:none"
         sodipodi:type="arc" />
      <path
         transform="matrix(0.71875,0,0,0.71875,-357.58927,184.19114)"
         d="m 191.42857,538.07648 c 0,25.2473 -20.46699,45.71428 -45.71429,45.71428 -25.2473,0 -45.714288,-20.46698 -45.714288,-45.71428 0,-25.24731 20.466988,-45.71429 45.714288,-45.71429 25.2473,0 45.71429,20.46698 45.71429,45.71429 z"
         sodipodi:ry="45.714287"
         sodipodi:rx="45.714287"
         sodipodi:cy="538.07648"
         sodipodi:cx="145.71428"
         id="path3866-6"
         style="fill:#000000;fill-opacity:1;stroke:none"
         sodipodi:type="arc" />
      <path
         transform="matrix(0.28125001,0,0,0.28125001,-275.26787,409.5996)"
         d="m 191.42857,538.07648 c 0,25.2473 -20.46699,45.71428 -45.71429,45.71428 -25.2473,0 -45.714288,-20.46698 -45.714288,-45.71428 0,-25.24731 20.466988,-45.71429 45.714288,-45.71429 25.2473,0 45.71429,20.46698 45.71429,45.71429 z"
         sodipodi:ry="45.714287"
         sodipodi:rx="45.714287"
         sodipodi:cy="538.07648"
         sodipodi:cx="145.71428"
         id="path3866-6-7"
         style="fill:#ffffff;fill-opacity:1;stroke:none"
         sodipodi:type="arc" />
      <path
         sodipodi:nodetypes="cc"
         inkscape:connector-curvature="0"
         id="path3922"
         d="m -477.14287,692.36218 c 114.2715,30.45956 187.872,2.04106 257.1429,-20"
         style="fill:none;stroke:#000000;stroke-width:20;stroke-linecap:round;stroke-linejoin:miter;stroke-miterlimit:4;stroke-opacity:1;stroke-dasharray:none;marker-start:none;marker-end:none" />
      <g
         id="g3855">
        <path
           style="fill:#00ccff;stroke:none"
           d="m -231.21595,171.65086 c -1.53909,-339.71778 -303.95219,-236.30832 -226.30861,-193.782774 -9.28016,14.342056 189.30422,-22.413428 226.30861,193.782774"
           id="path3014"
           inkscape:connector-curvature="0"
           sodipodi:nodetypes="ccc" />
        <path
           style="fill:#00ccff;stroke:none"
           d="M -229.8761,169.03813 C -225.30519,-170.65238 76.172974,-64.548094 -1.8470536,-22.717183 7.3047515,-8.2928729 -190.9437,-46.819203 -229.8761,169.03813"
           id="path3014-6"
           inkscape:connector-curvature="0"
           sodipodi:nodetypes="ccc" />
        <path
           style="fill:#00ccff;stroke:none"
           d="M -203.75113,-9.6879423 C -185.24868,-208.32982 -13.706886,-132.1701 -61.328776,-111.31734 c 4.685417,8.87039 -109.574234,-22.91958 -142.422354,101.6293977"
           id="path3014-6-0"
           inkscape:connector-curvature="0"
           sodipodi:nodetypes="ccc" />
        <path
           style="fill:#00ccff;stroke:none"
           d="M -241.9805,-8.4836832 C -237.63973,-207.93818 -416.76718,-151.90025 -371.84311,-125.7371 c -5.66931,8.27622 111.47671,-10.23543 129.86261,117.2534168"
           id="path3014-6-0-4"
           inkscape:connector-curvature="0"
           sodipodi:nodetypes="ccc" />
      </g>
    </g>
  </g>
</svg>
