<svg width="390.0" height="210.0" xmlns="http://www.w3.org/2000/svg" xmlns:xlink="http://www.w3.org/1999/xlink">
<svg x="0.0" y="0.0" width="120.0" height="210.0" viewBox="-60.0 -60 120 210" xmlns="http://www.w3.org/2000/svg" xmlns:xlink="http://www.w3.org/1999/xlink">
<defs>
</defs>
<circle cx="0" cy="0" r="50" fill="white" stroke="red" stroke-width="10" />
<text x="0" y="25" font-size="20" fill="black" text-anchor="middle" dominant-baseline="middle" font-family="sans-serif">km/h</text>
<text x="0" y="-10" font-size="50" fill="black" text-anchor="middle" dominant-baseline="middle" font-family="sans-serif" font-weight="bold">1</text>
<svg x="-40.0" y="65" width="80" height="80" viewBox="0 0 36 36" xmlns="http://www.w3.org/2000/svg"><path fill="#6D6E71" d="M28.688 20.312C28.688 26.217 23.904 31 18 31c-5.903 0-10.688-4.783-10.688-10.688 0-5.903 4.786-10.689 10.688-10.689 5.904.001 10.688 4.786 10.688 10.689z"/><path fill="#662113" d="M26 33.5H10c-1.665 0-2.479-1.339-2.763-2.31l-2.664-.056c-.153-.003-.297-.077-.389-.2-.092-.122-.123-.281-.083-.43l.594-2.216-2.446-.651c-.152-.041-.276-.15-.335-.296s-.046-.311.035-.445l1.199-1.993-2.156-1.192c-.139-.077-.233-.216-.254-.374-.02-.157.036-.315.151-.426l1.729-1.647-1.729-1.646c-.115-.11-.171-.268-.151-.426.021-.158.115-.297.254-.374l2.156-1.194-1.2-1.994c-.081-.135-.094-.3-.035-.445.059-.146.183-.255.335-.296l2.446-.65-.594-2.218c-.04-.148-.009-.307.083-.43s.236-.196.39-.2l2.575-.053.058-2.302c.004-.149.074-.289.192-.381.118-.092.271-.127.416-.094l2.521.561.717-2.234c.045-.139.148-.251.282-.308.136-.056.288-.051.417.014l2.284 1.139 1.341-2.009c.08-.119.208-.199.35-.218.145-.019.287.024.394.119L18 7.258l1.88-1.636c.109-.094.251-.137.395-.118.143.019.269.099.35.218l1.34 2.009 2.286-1.139c.13-.065.283-.069.417-.014.135.057.237.169.282.308l.716 2.234 2.521-.561c.146-.032.298.002.416.094s.188.232.192.381l.058 2.302 2.574.053c.153.003.297.077.389.2.093.123.123.282.083.43l-.595 2.217 2.449.65c.152.04.276.15.336.296.059.146.046.311-.035.445l-1.201 1.994 2.155 1.194c.14.077.233.216.254.374s-.036.316-.151.426l-1.729 1.646 1.729 1.647c.115.11.172.269.151.426-.021.158-.114.297-.254.374L32.854 24.9l1.2 1.993c.081.135.094.3.035.445-.06.146-.184.255-.335.296l-2.45.651.595 2.216c.04.148.01.307-.082.43-.093.123-.236.197-.39.2l-2.663.056c-.285.974-1.099 2.313-2.764 2.313z"/><path fill="#8A4B38" d="M16.188 28.824c-.022 0-.044-.001-.066-.004-.143-.019-.27-.099-.35-.219l-1.058-1.585-1.805.899c-.131.064-.283.07-.418.014-.134-.057-.237-.169-.282-.309l-.564-1.757-1.99.442c-.148.031-.299-.003-.417-.095s-.188-.231-.192-.381l-.045-1.804-2.029-.043c-.153-.003-.297-.077-.389-.2-.092-.122-.123-.281-.083-.43l.464-1.732-1.92-.51c-.152-.041-.276-.15-.335-.296s-.046-.311.035-.445l.937-1.557-1.688-.934c-.14-.077-.234-.216-.254-.374-.02-.158.036-.316.151-.426l1.352-1.289-1.352-1.287c-.115-.11-.171-.268-.151-.426.021-.158.115-.297.254-.374l1.689-.935-.937-1.558c-.081-.135-.094-.3-.035-.445.059-.146.183-.255.335-.296l1.922-.511-.466-1.732c-.04-.148-.009-.307.083-.43s.236-.196.39-.2l2.029-.042.045-1.805c.004-.149.074-.289.192-.381.117-.092.27-.127.416-.094l1.99.442.564-1.756c.045-.139.148-.251.282-.308.136-.055.287-.051.418.014l1.805.899 1.058-1.584c.08-.119.207-.199.35-.218.144-.021.287.024.395.119L18 4.172l1.484-1.291c.109-.095.253-.138.395-.119.143.019.269.099.35.218l1.057 1.583 1.807-.9c.13-.064.283-.069.417-.013.135.057.237.169.282.308l.562 1.756 1.991-.442c.146-.033.3.002.416.094.118.092.188.232.192.382l.045 1.804 2.028.042c.153.003.297.077.389.2.093.123.123.282.083.43l-.465 1.734 1.924.511c.152.041.276.15.336.296.059.146.046.311-.035.445l-.938 1.558 1.689.935c.14.077.233.216.254.374.021.158-.036.316-.151.426l-1.353 1.287 1.353 1.289c.115.11.172.268.151.426-.021.158-.115.296-.254.374l-1.688.934.938 1.557c.081.135.094.3.035.445-.06.145-.184.255-.335.296l-1.925.512.465 1.732c.04.148.01.307-.082.43-.093.123-.236.197-.39.2l-2.028.043-.045 1.804c-.004.149-.074.289-.192.381-.117.092-.271.126-.416.095l-1.991-.442-.562 1.757c-.045.139-.147.252-.282.309-.134.058-.284.053-.417-.014l-1.806-.899-1.058 1.585c-.08.12-.207.199-.35.219-.142.018-.286-.024-.395-.119L18 27.407l-1.483 1.294c-.092.08-.209.123-.329.123z"/><path fill="#8A4B38" d="M13.5 27.052h9c3.521 0 6.5 2.575 6.5 4.5 0 1.65-1.35 2-3 2H10c-1.65 0-3-.35-3-2 0-1.925 2.99-4.5 6.5-4.5z"/><path fill="#D99E82" d="M26.222 22.779c0 4.088-3.68 7.398-8.222 7.398s-8.222-3.31-8.222-7.398c0-4.087 3.68-7.4 8.222-7.4s8.222 3.313 8.222 7.4z"/><path fill="#E6E7E8" d="M21.289 26.479c0 2.043-1.473 3.699-3.289 3.699s-3.289-1.656-3.289-3.699S16.183 22.78 18 22.78s3.289 1.655 3.289 3.699z"/><path fill="#231F20" d="M19.645 27.711c0 .908-.736 1.645-1.645 1.645s-1.645-.736-1.645-1.645c0-.908.736-1.642 1.645-1.642s1.645.734 1.645 1.642zm-4.934-6.166c0 .682-.552 1.234-1.233 1.234s-1.233-.553-1.233-1.234c0-.68.552-1.232 1.233-1.232.681-.001 1.233.552 1.233 1.232zm9.044 0c0 .682-.552 1.234-1.232 1.234-.682 0-1.233-.553-1.233-1.234 0-.68.552-1.232 1.233-1.232.68-.001 1.232.552 1.232 1.232z"/><path fill="#C1694F" d="M11.422 17.846s4.111-1.644 4.933 0C17.178 19.49 18 19.49 18 19.49v-4.934c0 .001-6.578.001-6.578 3.29zm13.155 0s-4.11-1.644-4.933 0C18.822 19.49 18 19.49 18 19.49v-4.934c0 .001 6.577.001 6.577 3.29z"/><path fill="#D99E82" d="M12.245 18.256c0 1.136-.92 2.056-2.055 2.056-1.136 0-2.056-.92-2.056-2.056 0-1.135.92-2.055 2.056-2.055 1.135 0 2.055.92 2.055 2.055zm15.621 0c0 1.136-.92 2.056-2.056 2.056-1.135 0-2.056-.92-2.056-2.056 0-1.135.921-2.055 2.056-2.055 1.136 0 2.056.92 2.056 2.055zM11 35c-2 0-2-4 2-4s4.062 4 2 4h-4zm10 0c-2 0-2-4 2-4s4.062 4 2 4h-4z"/></svg>
</svg>
<svg x="135.0" y="0.0" width="120.0" height="210.0" viewBox="-60.0 -60 120 210" xmlns="http://www.w3.org/2000/svg" xmlns:xlink="http://www.w3.org/1999/xlink">
<defs>
</defs>
<circle cx="0" cy="0" r="50" fill="white" stroke="red" stroke-width="10" />
<text x="0" y="25" font-size="20" fill="black" text-anchor="middle" dominant-baseline="middle" font-family="sans-serif">km/h</text>
<text x="0" y="-10" font-size="50" fill="black" text-anchor="middle" dominant-baseline="middle" font-family="sans-serif" font-weight="bold">10</text>
<svg x="-40.0" y="65" width="80" height="80" viewBox="0 0 36 36" xmlns="http://www.w3.org/2000/svg"><path fill="#FFDC5D" d="M13.483 21.579c-.58.32-2.256 1.279-3.282 2.204-.596.537-.518.928-.329 1.871l.017.085c.186.932 2.106 7.039 2.483 8.232l1.168-.291c.014-.621.043-2.801-.18-4.205-.074-.47-.149-1.036-.217-1.549-.07-.532-.138-1.035-.184-1.273-.077-.396.05-.65.411-.825.772-.374 1.437-.671 1.764-.814l-1.651-3.435zm10.673 5.408c-.533-.065-1.037-.128-1.278-.143-.403-.025-.618-.212-.695-.606-.168-.842-.288-1.56-.345-1.912l-3.74.733c.164.643.671 2.505 1.308 3.732.369.711.767.734 1.726.789l.088.005c.95.057 7.342-.266 8.593-.33l.013-1.205c-.597-.169-2.699-.746-4.114-.885-.476-.044-1.042-.114-1.556-.178z"/><path fill="#8899A6" d="M28.11 29.77l-.166-.306c-.021-.049.003-.106.054-.123.16-.055.483-.203.596-.262-.098.224-.21.582-.335.69-.048.041-.124.059-.149.001z"/><path fill="#BE1931" d="M30.53 27.396c-.13-.104-.427-.155-.613-.173-.129-.013-.464-.023-.746-.007-.127.007-.272.023-.331.04-.185.054-.266.131-.31.185-.053.065-.058.134-.046.169.049.143.284.39.386.625.034.078.054.155.047.226-.025.258-.354.633-.6.911-.148.167-.266.299-.271.35-.005.055.01.102.035.148v.002c.067.123.214.251.314.587.065.217.369 1.205.369 1.205.073.252.17.313.211.449.085.277.235 1.021.309 1.256.074.235.253.336.39.355.138.019.217-.013.217-.013s.322-.145.535-1.352c.154-.872.018-1.007-.098-2.317-.114-1.312.202-2.646.202-2.646z"/><path fill="#DD2E44" d="M30.261 29.344c-.219-.09-.72-.42-.86-.775-.127-.321-.213-1.188-.229-1.353.269-.024.682-.006.815.006.175.017.377.031.498.134l.046.04c-.001 0-.215 1.376-.27 1.948z"/><path fill="#CCD6DD" d="M28.337 30.337c-.075 0-.146-.042-.181-.115-.048-.1-.005-.219.095-.266l.319-.151c.104-.048.22-.004.267.095.047.1.005.219-.095.266l-.319.151c-.028.014-.058.02-.086.02zm.204.584c-.085 0-.163-.054-.19-.139-.034-.105.024-.218.13-.251l.354-.113c.1-.035.217.024.251.13.034.105-.024.218-.13.251l-.354.113c-.02.006-.04.009-.061.009zm.172.595c-.094 0-.177-.065-.196-.16-.021-.108.048-.214.156-.236l.332-.068c.114-.023.214.048.236.156.021.108-.048.214-.156.236l-.332.068c-.014.002-.027.004-.04.004zm2.59-3.873c-.006-.027-.025-.128-.095-.252-.023-.042-.077-.055-.131-.061-.067-.009-.56-.08-.569.02 0 0-.002.148-.072.25-.07.102-.118.352-.136.539-.018.186-.098.887-.08 1.379.018.492.17 1.383.178 1.68.007.297 0 .759-.063 1.101-.063.342-.131.646-.183.834-.067.242-.157.439-.26.578 0 0 .389-.026.687-.602.235-.454.367-.891.416-1.317.004-.032.105-1.168.154-1.736.035-.415.095-1.078.095-1.078.075-.786.093-1.185.059-1.335z"/><path fill="#8899A6" d="M11.438 32.516l.246-.246c.041-.034.102-.027.134.017.098.138.332.406.421.497-.243-.03-.618-.036-.757-.125-.054-.035-.093-.103-.044-.143z"/><path fill="#BE1931" d="M14.401 34.162c.063-.154.027-.453-.008-.637-.025-.127-.11-.452-.205-.717-.043-.119-.099-.254-.132-.306-.104-.162-.201-.217-.266-.244-.077-.033-.145-.018-.175.004-.123.088-.294.383-.489.548-.065.055-.133.095-.204.109-.254.049-.707-.159-1.044-.317-.202-.094-.362-.17-.412-.16-.054.011-.095.038-.132.075l-.002.001h.001c-.099.099-.18.277-.474.468-.189.123-1.051.696-1.051.696-.221.141-.252.252-.37.33-.242.16-.912.515-1.117.653-.204.138-.251.338-.23.475s.074.204.074.204.23.268 1.448.129c.88-.1.97-.269 2.194-.752s2.594-.559 2.594-.559z"/><path fill="#DD2E44" d="M12.457 34.457c.024-.236.198-.809.499-1.045.271-.212 1.079-.542 1.232-.604.1.251.2.652.225.783.033.173.078.37.013.516l-.025.056c0-.001-1.38.184-1.944.294z"/><path fill="#CCD6DD" d="M11.385 33.301c-.055 0-.109-.022-.149-.067L11 32.971c-.073-.082-.066-.209.016-.282.083-.073.207-.067.283.016l.235.263c.073.082.066.209-.016.282-.039.034-.085.051-.133.051zm-.529.406c-.063 0-.127-.031-.165-.088l-.209-.308c-.062-.092-.039-.216.053-.278.089-.061.216-.039.277.053l.209.308c.062.092.039.216-.053.278-.033.024-.072.035-.112.035zm-.57.325c-.071 0-.141-.038-.177-.106l-.159-.299c-.052-.098-.015-.219.083-.271.094-.052.218-.016.271.083l.159.299c.052.098.015.219-.083.271-.029.016-.062.023-.094.023zm4.098.941c.024-.013.116-.06.215-.162.033-.034.031-.089.022-.143-.011-.067-.083-.559-.181-.54 0 0-.143.04-.26.002-.117-.038-.371-.013-.555.022-.184.036-.878.158-1.345.315-.467.157-1.277.556-1.56.648-.283.091-.728.215-1.074.252-.346.037-.657.058-.851.062-.251.004-.466-.025-.628-.085 0 0 .136.366.772.488.502.097.959.099 1.381.025.032-.006 1.15-.231 1.708-.346.408-.084 1.06-.215 1.06-.215.774-.151 1.162-.247 1.296-.323z"/><path fill="#A0041E" d="M13.084 21.466c.738-.382 3.176-1.588 4.842-1.76.152-.016 1.526 3.904 1.341 3.963-.763.246-2.681.897-4.134 1.668-.154.082-.338.044-.433-.09-.431-.605-1.549-2.257-1.798-3.436-.029-.138.048-.276.182-.345z"/><path fill="#BE1931" d="M17.882 25.364c-.196-.795-.794-3.411-.586-5.049.019-.15 3.69-.685 3.69-.685.175-.021.6 3.084 1.005 4.655.043.166-.033.334-.181.395-.667.275-2.474.969-3.643.937-.136-.004-.249-.11-.285-.253z"/><path fill="#FFDC5D" d="M14.801 11.245c-.114.64.259 1.431 1.738 1.741 1.479.31 2.554.273 3.324.218.653-.047.563.952.711 1.998.148 1.05.241 2.419.182 2.633-.1.361-.722.479-.439 1.123.283.643.329.995.942.79.613-.205 1.222-.427 1.396-.759.174-.332-.43-1.065-.439-1.463-.007-.294.293-3.972.275-4.405-.022-.528-.035-1.251-.884-1.582-.849-.331-4.108-1.174-4.972-1.342-.912-.177-1.683.199-1.834 1.048z"/><path fill="#FFDC5D" d="M16.495 6.612c.31-.401.546-.872.661-1.455.409-2.083-.794-4.073-2.688-4.444-1.893-.372-4.483 1.029-4.425 3.151.057 2.107 1.229 5.214 2.993 4.69.466-.138.932-.29 1.375-.474.189.224.325 1.081.247 1.815-.2 1.87 2.381 2.065 2.579.192.157-1.482-.768-2.424-.742-3.475z"/><path fill="#FFAC33" d="M21.903 2.733c-1.311-.014-2.496-1.36-3.845-.501-.264.168-.456.337-.604.503-.234-.711-.636-1.367-1.299-1.798C15.507.515 14.712.2 13.961.285 9.384.801 9.632 4.111 9.98 4.421c.348.31 1.299-.572 2.002-.669.328-.046 1.041-.053 1.419.49.306.44.411 1.33.411 1.33s.012-1.012.041-1.368c.027-.332.356-.714.801-.222.387.428.19 1.268-.079 1.356-.207.068.129.575.648.961.946.704 1.681.428 1.786.389.106-.039.465-.118.648-1.333.026-.169.044-.35.055-.537.374.324.987.709 1.827.715.929.007 2.619-.466 3.586-1.621.744-.889 1.05-2.355 1.05-2.355-.395.738-1.283 1.187-2.272 1.176z"/><path fill="#DD2E44" d="M19.624 10.939c-.728-1.703-1.783-2.597-3.229-2.114-1.285.43-1.922 1.151-2.301 1.96-.184.393-.901 1.933-.466 2.933.851 1.956 2.243 5.863 2.488 7.059 0 0 .322.326 2.403.064 1.823-.23 2.732-.404 2.732-.404-.277-2.594-.452-6.747-1.627-9.498z"/><path fill="#FFDC5D" d="M17.202 11.067c-.577-.372-1.499-.331-2.404.983-.905 1.314-1.308 2.376-1.568 3.148-.221.655-1.157.16-2.236-.122-1.083-.284-2.455-.752-2.639-.897-.311-.245-.172-.898-.914-.886-.742.013-1.103-.086-1.153.595-.05.681-.083 1.364.17 1.669.253.305 1.212.016 1.604.169.289.113 3.749 1.905 4.178 2.064.524.194 1.233.476 1.901-.216.668-.692 2.819-3.522 3.335-4.296.543-.814.491-1.718-.274-2.211z"/></svg>
</svg>
<svg x="270.0" y="0.0" width="120.0" height="210.0" viewBox="-60.0 -60 120 210" xmlns="http://www.w3.org/2000/svg" xmlns:xlink="http://www.w3.org/1999/xlink">
<defs>
</defs>
<circle cx="0" cy="0" r="50" fill="white" stroke="red" stroke-width="10" />
<text x="0" y="25" font-size="20" fill="black" text-anchor="middle" dominant-baseline="middle" font-family="sans-serif">km/h</text>
<text x="0" y="-10" font-size="50" fill="black" text-anchor="middle" dominant-baseline="middle" font-family="sans-serif" font-weight="bold">100</text>
<svg x="-40.0" y="65" width="80" height="80" viewBox="0 0 36 36" xmlns="http://www.w3.org/2000/svg"><path fill="#FFCC4D" d="M32.855 16.484c-.259-.171-.543-.328-.855-.484-2-1-5 0-9 0-2 0-4.901-3-10-3-.801 0-2.256.635-4.341.89C8.62 12.837 8.044 12 7.333 12 6.597 12 6 12.895 6 14c0 .051.007.1.01.15C3.19 14.916 0 18.589 0 20.375 0 22.375 2 24 2 24s1 0 3-2c1.581-1.581 5-1 5-1l1 12s-1 1-2 1-1 2-1 2h6l1-9h3c2 0 7-1 7-1 2 3 4 4 4 4v3l-2 1c-2 1-1 2-1 2h6s1-8 2-13v5c0 .553.447 1 1 1s1-.447 1-1v-7c0-2.666-1.357-3.928-3.145-4.516z"/><circle fill="#292F33" cx="4" cy="17" r="1"/><path fill="#292F33" d="M0 20s0 2 1 2c0-2 1-2 1-2s-1-1-2 0z"/><g fill="#F4900C"><circle cx="10.5" cy="16.5" r="2"/><circle cx="17.5" cy="16.5" r="2"/><circle cx="14.5" cy="21.5" r="2"/><circle cx="21.5" cy="23.5" r="2"/><circle cx="24.5" cy="18.5" r="2"/><circle cx="28.5" cy="23.5" r="2"/><circle cx="31.5" cy="18.5" r="2"/></g><g fill="#FFAC33"><circle cx="10.5" cy="16.5" r="1"/><circle cx="17.5" cy="16.5" r="1"/><circle cx="14.5" cy="21.5" r="1"/><circle cx="21.5" cy="23.5" r="1"/><circle cx="24.5" cy="18.5" r="1"/><circle cx="28.5" cy="23.5" r="1"/><circle cx="31.5" cy="18.5" r="1"/></g></svg>
</svg>
</svg>