<svg width="1370.0" height="222.0" xmlns="http://www.w3.org/2000/svg" xmlns:xlink="http://www.w3.org/1999/xlink">
<svg x="0.0" y="0.0" width="1370.0" height="48.0" xmlns="http://www.w3.org/2000/svg" xmlns:xlink="http://www.w3.org/1999/xlink">
<svg x="0.0" y="0.0" width="128.0" height="48.0" viewBox="0 0 128 48" xmlns="http://www.w3.org/2000/svg" xmlns:xlink="http://www.w3.org/1999/xlink">
<defs>
</defs>
<g>
<rect x="4" y="4" width="40" height="40" fill="none" stroke="black" stroke-width="1" />
<text x="24.0" y="24.0" font-size="20" fill="blue" font-family="Comic Sans MS" text-anchor="middle" dominant-baseline="central">0</text>
<rect x="44" y="4" width="40" height="40" fill="none" stroke="black" stroke-width="1" />
<text x="64.0" y="24.0" font-size="20" fill="red" font-family="Comic Sans MS" text-anchor="middle" dominant-baseline="central">8</text>
<rect x="84" y="4" width="40" height="40" fill="none" stroke="black" stroke-width="1" />
<text x="104.0" y="24.0" font-size="20" fill="black" font-family="Comic Sans MS" text-anchor="middle" dominant-baseline="central">0</text>
</g>
</svg>
<svg x="138.0" y="0.0" width="128.0" height="48.0" viewBox="0 0 128 48" xmlns="http://www.w3.org/2000/svg" xmlns:xlink="http://www.w3.org/1999/xlink">
<defs>
</defs>
<g>
<rect x="4" y="4" width="40" height="40" fill="none" stroke="black" stroke-width="1" />
<text x="24.0" y="24.0" font-size="20" fill="blue" font-family="Comic Sans MS" text-anchor="middle" dominant-baseline="central">0</text>
<rect x="44" y="4" width="40" height="40" fill="none" stroke="black" stroke-width="1" />
<text x="64.0" y="24.0" font-size="20" fill="red" font-family="Comic Sans MS" text-anchor="middle" dominant-baseline="central">8</text>
<rect x="84" y="4" width="40" height="40" fill="none" stroke="black" stroke-width="1" />
<text x="104.0" y="24.0" font-size="20" fill="black" font-family="Comic Sans MS" text-anchor="middle" dominant-baseline="central">1</text>
</g>
</svg>
<svg x="276.0" y="0.0" width="128.0" height="48.0" viewBox="0 0 128 48" xmlns="http://www.w3.org/2000/svg" xmlns:xlink="http://www.w3.org/1999/xlink">
<defs>
</defs>
<g>
<rect x="4" y="4" width="40" height="40" fill="none" stroke="black" stroke-width="1" />
<text x="24.0" y="24.0" font-size="20" fill="blue" font-family="Comic Sans MS" text-anchor="middle" dominant-baseline="central">0</text>
<rect x="44" y="4" width="40" height="40" fill="none" stroke="black" stroke-width="1" />
<text x="64.0" y="24.0" font-size="20" fill="red" font-family="Comic Sans MS" text-anchor="middle" dominant-baseline="central">8</text>
<rect x="84" y="4" width="40" height="40" fill="none" stroke="black" stroke-width="1" />
<text x="104.0" y="24.0" font-size="20" fill="black" font-family="Comic Sans MS" text-anchor="middle" dominant-baseline="central">2</text>
</g>
</svg>
<svg x="414.0" y="0.0" width="128.0" height="48.0" viewBox="0 0 128 48" xmlns="http://www.w3.org/2000/svg" xmlns:xlink="http://www.w3.org/1999/xlink">
<defs>
</defs>
<g>
<rect x="4" y="4" width="40" height="40" fill="none" stroke="black" stroke-width="1" />
<text x="24.0" y="24.0" font-size="20" fill="blue" font-family="Comic Sans MS" text-anchor="middle" dominant-baseline="central">0</text>
<rect x="44" y="4" width="40" height="40" fill="none" stroke="black" stroke-width="1" />
<text x="64.0" y="24.0" font-size="20" fill="red" font-family="Comic Sans MS" text-anchor="middle" dominant-baseline="central">8</text>
<rect x="84" y="4" width="40" height="40" fill="none" stroke="black" stroke-width="1" />
<text x="104.0" y="24.0" font-size="20" fill="black" font-family="Comic Sans MS" text-anchor="middle" dominant-baseline="central">3</text>
</g>
</svg>
<svg x="552.0" y="0.0" width="128.0" height="48.0" viewBox="0 0 128 48" xmlns="http://www.w3.org/2000/svg" xmlns:xlink="http://www.w3.org/1999/xlink">
<defs>
</defs>
<g>
<rect x="4" y="4" width="40" height="40" fill="none" stroke="black" stroke-width="1" />
<text x="24.0" y="24.0" font-size="20" fill="blue" font-family="Comic Sans MS" text-anchor="middle" dominant-baseline="central">0</text>
<rect x="44" y="4" width="40" height="40" fill="none" stroke="black" stroke-width="1" />
<text x="64.0" y="24.0" font-size="20" fill="red" font-family="Comic Sans MS" text-anchor="middle" dominant-baseline="central">8</text>
<rect x="84" y="4" width="40" height="40" fill="none" stroke="black" stroke-width="1" />
<text x="104.0" y="24.0" font-size="20" fill="black" font-family="Comic Sans MS" text-anchor="middle" dominant-baseline="central">4</text>
</g>
</svg>
<svg x="690.0" y="0.0" width="128.0" height="48.0" viewBox="0 0 128 48" xmlns="http://www.w3.org/2000/svg" xmlns:xlink="http://www.w3.org/1999/xlink">
<defs>
</defs>
<g>
<rect x="4" y="4" width="40" height="40" fill="none" stroke="black" stroke-width="1" />
<text x="24.0" y="24.0" font-size="20" fill="blue" font-family="Comic Sans MS" text-anchor="middle" dominant-baseline="central">0</text>
<rect x="44" y="4" width="40" height="40" fill="none" stroke="black" stroke-width="1" />
<text x="64.0" y="24.0" font-size="20" fill="red" font-family="Comic Sans MS" text-anchor="middle" dominant-baseline="central">8</text>
<rect x="84" y="4" width="40" height="40" fill="none" stroke="black" stroke-width="1" />
<text x="104.0" y="24.0" font-size="20" fill="black" font-family="Comic Sans MS" text-anchor="middle" dominant-baseline="central">5</text>
</g>
</svg>
<svg x="828.0" y="0.0" width="128.0" height="48.0" viewBox="0 0 128 48" xmlns="http://www.w3.org/2000/svg" xmlns:xlink="http://www.w3.org/1999/xlink">
<defs>
</defs>
<g>
<rect x="4" y="4" width="40" height="40" fill="none" stroke="black" stroke-width="1" />
<text x="24.0" y="24.0" font-size="20" fill="blue" font-family="Comic Sans MS" text-anchor="middle" dominant-baseline="central">0</text>
<rect x="44" y="4" width="40" height="40" fill="none" stroke="black" stroke-width="1" />
<text x="64.0" y="24.0" font-size="20" fill="red" font-family="Comic Sans MS" text-anchor="middle" dominant-baseline="central">8</text>
<rect x="84" y="4" width="40" height="40" fill="none" stroke="black" stroke-width="1" />
<text x="104.0" y="24.0" font-size="20" fill="black" font-family="Comic Sans MS" text-anchor="middle" dominant-baseline="central">6</text>
</g>
</svg>
<svg x="966.0" y="0.0" width="128.0" height="48.0" viewBox="0 0 128 48" xmlns="http://www.w3.org/2000/svg" xmlns:xlink="http://www.w3.org/1999/xlink">
<defs>
</defs>
<g>
<rect x="4" y="4" width="40" height="40" fill="none" stroke="black" stroke-width="1" />
<text x="24.0" y="24.0" font-size="20" fill="blue" font-family="Comic Sans MS" text-anchor="middle" dominant-baseline="central">0</text>
<rect x="44" y="4" width="40" height="40" fill="none" stroke="black" stroke-width="1" />
<text x="64.0" y="24.0" font-size="20" fill="red" font-family="Comic Sans MS" text-anchor="middle" dominant-baseline="central">8</text>
<rect x="84" y="4" width="40" height="40" fill="none" stroke="black" stroke-width="1" />
<text x="104.0" y="24.0" font-size="20" fill="black" font-family="Comic Sans MS" text-anchor="middle" dominant-baseline="central">7</text>
</g>
</svg>
<svg x="1104.0" y="0.0" width="128.0" height="48.0" viewBox="0 0 128 48" xmlns="http://www.w3.org/2000/svg" xmlns:xlink="http://www.w3.org/1999/xlink">
<defs>
</defs>
<g>
<rect x="4" y="4" width="40" height="40" fill="none" stroke="black" stroke-width="1" />
<text x="24.0" y="24.0" font-size="20" fill="blue" font-family="Comic Sans MS" text-anchor="middle" dominant-baseline="central">0</text>
<rect x="44" y="4" width="40" height="40" fill="none" stroke="black" stroke-width="1" />
<text x="64.0" y="24.0" font-size="20" fill="red" font-family="Comic Sans MS" text-anchor="middle" dominant-baseline="central">8</text>
<rect x="84" y="4" width="40" height="40" fill="none" stroke="black" stroke-width="1" />
<text x="104.0" y="24.0" font-size="20" fill="black" font-family="Comic Sans MS" text-anchor="middle" dominant-baseline="central">8</text>
</g>
</svg>
<svg x="1242.0" y="0.0" width="128.0" height="48.0" viewBox="0 0 128 48" xmlns="http://www.w3.org/2000/svg" xmlns:xlink="http://www.w3.org/1999/xlink">
<defs>
</defs>
<g>
<rect x="4" y="4" width="40" height="40" fill="none" stroke="black" stroke-width="1" />
<text x="24.0" y="24.0" font-size="20" fill="blue" font-family="Comic Sans MS" text-anchor="middle" dominant-baseline="central">0</text>
<rect x="44" y="4" width="40" height="40" fill="none" stroke="black" stroke-width="1" />
<text x="64.0" y="24.0" font-size="20" fill="red" font-family="Comic Sans MS" text-anchor="middle" dominant-baseline="central">8</text>
<rect x="84" y="4" width="40" height="40" fill="none" stroke="black" stroke-width="1" />
<text x="104.0" y="24.0" font-size="20" fill="black" font-family="Comic Sans MS" text-anchor="middle" dominant-baseline="central">9</text>
</g>
</svg>
</svg>
<svg x="0.0" y="58.0" width="1370.0" height="48.0" xmlns="http://www.w3.org/2000/svg" xmlns:xlink="http://www.w3.org/1999/xlink">
<svg x="0.0" y="0.0" width="128.0" height="48.0" viewBox="0 0 128 48" xmlns="http://www.w3.org/2000/svg" xmlns:xlink="http://www.w3.org/1999/xlink">
<defs>
</defs>
<g>
<rect x="4" y="4" width="40" height="40" fill="none" stroke="black" stroke-width="1" />
<text x="24.0" y="24.0" font-size="20" fill="blue" font-family="Comic Sans MS" text-anchor="middle" dominant-baseline="central">0</text>
<rect x="44" y="4" width="40" height="40" fill="none" stroke="black" stroke-width="1" />
<text x="64.0" y="24.0" font-size="20" fill="red" font-family="Comic Sans MS" text-anchor="middle" dominant-baseline="central">9</text>
<rect x="84" y="4" width="40" height="40" fill="none" stroke="black" stroke-width="1" />
<text x="104.0" y="24.0" font-size="20" fill="black" font-family="Comic Sans MS" text-anchor="middle" dominant-baseline="central">0</text>
</g>
</svg>
<svg x="138.0" y="0.0" width="128.0" height="48.0" viewBox="0 0 128 48" xmlns="http://www.w3.org/2000/svg" xmlns:xlink="http://www.w3.org/1999/xlink">
<defs>
</defs>
<g>
<rect x="4" y="4" width="40" height="40" fill="none" stroke="black" stroke-width="1" />
<text x="24.0" y="24.0" font-size="20" fill="blue" font-family="Comic Sans MS" text-anchor="middle" dominant-baseline="central">0</text>
<rect x="44" y="4" width="40" height="40" fill="none" stroke="black" stroke-width="1" />
<text x="64.0" y="24.0" font-size="20" fill="red" font-family="Comic Sans MS" text-anchor="middle" dominant-baseline="central">9</text>
<rect x="84" y="4" width="40" height="40" fill="none" stroke="black" stroke-width="1" />
<text x="104.0" y="24.0" font-size="20" fill="black" font-family="Comic Sans MS" text-anchor="middle" dominant-baseline="central">1</text>
</g>
</svg>
<svg x="276.0" y="0.0" width="128.0" height="48.0" viewBox="0 0 128 48" xmlns="http://www.w3.org/2000/svg" xmlns:xlink="http://www.w3.org/1999/xlink">
<defs>
</defs>
<g>
<rect x="4" y="4" width="40" height="40" fill="none" stroke="black" stroke-width="1" />
<text x="24.0" y="24.0" font-size="20" fill="blue" font-family="Comic Sans MS" text-anchor="middle" dominant-baseline="central">0</text>
<rect x="44" y="4" width="40" height="40" fill="none" stroke="black" stroke-width="1" />
<text x="64.0" y="24.0" font-size="20" fill="red" font-family="Comic Sans MS" text-anchor="middle" dominant-baseline="central">9</text>
<rect x="84" y="4" width="40" height="40" fill="none" stroke="black" stroke-width="1" />
<text x="104.0" y="24.0" font-size="20" fill="black" font-family="Comic Sans MS" text-anchor="middle" dominant-baseline="central">2</text>
</g>
</svg>
<svg x="414.0" y="0.0" width="128.0" height="48.0" viewBox="0 0 128 48" xmlns="http://www.w3.org/2000/svg" xmlns:xlink="http://www.w3.org/1999/xlink">
<defs>
</defs>
<g>
<rect x="4" y="4" width="40" height="40" fill="none" stroke="black" stroke-width="1" />
<text x="24.0" y="24.0" font-size="20" fill="blue" font-family="Comic Sans MS" text-anchor="middle" dominant-baseline="central">0</text>
<rect x="44" y="4" width="40" height="40" fill="none" stroke="black" stroke-width="1" />
<text x="64.0" y="24.0" font-size="20" fill="red" font-family="Comic Sans MS" text-anchor="middle" dominant-baseline="central">9</text>
<rect x="84" y="4" width="40" height="40" fill="none" stroke="black" stroke-width="1" />
<text x="104.0" y="24.0" font-size="20" fill="black" font-family="Comic Sans MS" text-anchor="middle" dominant-baseline="central">3</text>
</g>
</svg>
<svg x="552.0" y="0.0" width="128.0" height="48.0" viewBox="0 0 128 48" xmlns="http://www.w3.org/2000/svg" xmlns:xlink="http://www.w3.org/1999/xlink">
<defs>
</defs>
<g>
<rect x="4" y="4" width="40" height="40" fill="none" stroke="black" stroke-width="1" />
<text x="24.0" y="24.0" font-size="20" fill="blue" font-family="Comic Sans MS" text-anchor="middle" dominant-baseline="central">0</text>
<rect x="44" y="4" width="40" height="40" fill="none" stroke="black" stroke-width="1" />
<text x="64.0" y="24.0" font-size="20" fill="red" font-family="Comic Sans MS" text-anchor="middle" dominant-baseline="central">9</text>
<rect x="84" y="4" width="40" height="40" fill="none" stroke="black" stroke-width="1" />
<text x="104.0" y="24.0" font-size="20" fill="black" font-family="Comic Sans MS" text-anchor="middle" dominant-baseline="central">4</text>
</g>
</svg>
<svg x="690.0" y="0.0" width="128.0" height="48.0" viewBox="0 0 128 48" xmlns="http://www.w3.org/2000/svg" xmlns:xlink="http://www.w3.org/1999/xlink">
<defs>
</defs>
<g>
<rect x="4" y="4" width="40" height="40" fill="none" stroke="black" stroke-width="1" />
<text x="24.0" y="24.0" font-size="20" fill="blue" font-family="Comic Sans MS" text-anchor="middle" dominant-baseline="central">0</text>
<rect x="44" y="4" width="40" height="40" fill="none" stroke="black" stroke-width="1" />
<text x="64.0" y="24.0" font-size="20" fill="red" font-family="Comic Sans MS" text-anchor="middle" dominant-baseline="central">9</text>
<rect x="84" y="4" width="40" height="40" fill="none" stroke="black" stroke-width="1" />
<text x="104.0" y="24.0" font-size="20" fill="black" font-family="Comic Sans MS" text-anchor="middle" dominant-baseline="central">5</text>
</g>
</svg>
<svg x="828.0" y="0.0" width="128.0" height="48.0" viewBox="0 0 128 48" xmlns="http://www.w3.org/2000/svg" xmlns:xlink="http://www.w3.org/1999/xlink">
<defs>
</defs>
<g>
<rect x="4" y="4" width="40" height="40" fill="none" stroke="black" stroke-width="1" />
<text x="24.0" y="24.0" font-size="20" fill="blue" font-family="Comic Sans MS" text-anchor="middle" dominant-baseline="central">0</text>
<rect x="44" y="4" width="40" height="40" fill="none" stroke="black" stroke-width="1" />
<text x="64.0" y="24.0" font-size="20" fill="red" font-family="Comic Sans MS" text-anchor="middle" dominant-baseline="central">9</text>
<rect x="84" y="4" width="40" height="40" fill="none" stroke="black" stroke-width="1" />
<text x="104.0" y="24.0" font-size="20" fill="black" font-family="Comic Sans MS" text-anchor="middle" dominant-baseline="central">6</text>
</g>
</svg>
<svg x="966.0" y="0.0" width="128.0" height="48.0" viewBox="0 0 128 48" xmlns="http://www.w3.org/2000/svg" xmlns:xlink="http://www.w3.org/1999/xlink">
<defs>
</defs>
<g>
<rect x="4" y="4" width="40" height="40" fill="none" stroke="black" stroke-width="1" />
<text x="24.0" y="24.0" font-size="20" fill="blue" font-family="Comic Sans MS" text-anchor="middle" dominant-baseline="central">0</text>
<rect x="44" y="4" width="40" height="40" fill="none" stroke="black" stroke-width="1" />
<text x="64.0" y="24.0" font-size="20" fill="red" font-family="Comic Sans MS" text-anchor="middle" dominant-baseline="central">9</text>
<rect x="84" y="4" width="40" height="40" fill="none" stroke="black" stroke-width="1" />
<text x="104.0" y="24.0" font-size="20" fill="black" font-family="Comic Sans MS" text-anchor="middle" dominant-baseline="central">7</text>
</g>
</svg>
<svg x="1104.0" y="0.0" width="128.0" height="48.0" viewBox="0 0 128 48" xmlns="http://www.w3.org/2000/svg" xmlns:xlink="http://www.w3.org/1999/xlink">
<defs>
</defs>
<g>
<rect x="4" y="4" width="40" height="40" fill="none" stroke="black" stroke-width="1" />
<text x="24.0" y="24.0" font-size="20" fill="blue" font-family="Comic Sans MS" text-anchor="middle" dominant-baseline="central">0</text>
<rect x="44" y="4" width="40" height="40" fill="none" stroke="black" stroke-width="1" />
<text x="64.0" y="24.0" font-size="20" fill="red" font-family="Comic Sans MS" text-anchor="middle" dominant-baseline="central">9</text>
<rect x="84" y="4" width="40" height="40" fill="none" stroke="black" stroke-width="1" />
<text x="104.0" y="24.0" font-size="20" fill="black" font-family="Comic Sans MS" text-anchor="middle" dominant-baseline="central">8</text>
</g>
</svg>
<svg x="1242.0" y="0.0" width="128.0" height="48.0" viewBox="0 0 128 48" xmlns="http://www.w3.org/2000/svg" xmlns:xlink="http://www.w3.org/1999/xlink">
<defs>
</defs>
<g>
<rect x="4" y="4" width="40" height="40" fill="none" stroke="black" stroke-width="1" />
<text x="24.0" y="24.0" font-size="20" fill="blue" font-family="Comic Sans MS" text-anchor="middle" dominant-baseline="central">0</text>
<rect x="44" y="4" width="40" height="40" fill="none" stroke="black" stroke-width="1" />
<text x="64.0" y="24.0" font-size="20" fill="red" font-family="Comic Sans MS" text-anchor="middle" dominant-baseline="central">9</text>
<rect x="84" y="4" width="40" height="40" fill="none" stroke="black" stroke-width="1" />
<text x="104.0" y="24.0" font-size="20" fill="black" font-family="Comic Sans MS" text-anchor="middle" dominant-baseline="central">9</text>
</g>
</svg>
</svg>
<svg x="0.0" y="116.0" width="1370.0" height="48.0" xmlns="http://www.w3.org/2000/svg" xmlns:xlink="http://www.w3.org/1999/xlink">
<svg x="0.0" y="0.0" width="128.0" height="48.0" viewBox="0 0 128 48" xmlns="http://www.w3.org/2000/svg" xmlns:xlink="http://www.w3.org/1999/xlink">
<defs>
</defs>
<g>
<rect x="4" y="4" width="40" height="40" fill="none" stroke="black" stroke-width="1" />
<text x="24.0" y="24.0" font-size="20" fill="blue" font-family="Comic Sans MS" text-anchor="middle" dominant-baseline="central">1</text>
<rect x="44" y="4" width="40" height="40" fill="none" stroke="black" stroke-width="1" />
<text x="64.0" y="24.0" font-size="20" fill="red" font-family="Comic Sans MS" text-anchor="middle" dominant-baseline="central">0</text>
<rect x="84" y="4" width="40" height="40" fill="none" stroke="black" stroke-width="1" />
<text x="104.0" y="24.0" font-size="20" fill="black" font-family="Comic Sans MS" text-anchor="middle" dominant-baseline="central">0</text>
</g>
</svg>
<svg x="138.0" y="0.0" width="128.0" height="48.0" viewBox="0 0 128 48" xmlns="http://www.w3.org/2000/svg" xmlns:xlink="http://www.w3.org/1999/xlink">
<defs>
</defs>
<g>
<rect x="4" y="4" width="40" height="40" fill="none" stroke="black" stroke-width="1" />
<text x="24.0" y="24.0" font-size="20" fill="blue" font-family="Comic Sans MS" text-anchor="middle" dominant-baseline="central">1</text>
<rect x="44" y="4" width="40" height="40" fill="none" stroke="black" stroke-width="1" />
<text x="64.0" y="24.0" font-size="20" fill="red" font-family="Comic Sans MS" text-anchor="middle" dominant-baseline="central">0</text>
<rect x="84" y="4" width="40" height="40" fill="none" stroke="black" stroke-width="1" />
<text x="104.0" y="24.0" font-size="20" fill="black" font-family="Comic Sans MS" text-anchor="middle" dominant-baseline="central">1</text>
</g>
</svg>
<svg x="276.0" y="0.0" width="128.0" height="48.0" viewBox="0 0 128 48" xmlns="http://www.w3.org/2000/svg" xmlns:xlink="http://www.w3.org/1999/xlink">
<defs>
</defs>
<g>
<rect x="4" y="4" width="40" height="40" fill="none" stroke="black" stroke-width="1" />
<text x="24.0" y="24.0" font-size="20" fill="blue" font-family="Comic Sans MS" text-anchor="middle" dominant-baseline="central">1</text>
<rect x="44" y="4" width="40" height="40" fill="none" stroke="black" stroke-width="1" />
<text x="64.0" y="24.0" font-size="20" fill="red" font-family="Comic Sans MS" text-anchor="middle" dominant-baseline="central">0</text>
<rect x="84" y="4" width="40" height="40" fill="none" stroke="black" stroke-width="1" />
<text x="104.0" y="24.0" font-size="20" fill="black" font-family="Comic Sans MS" text-anchor="middle" dominant-baseline="central">2</text>
</g>
</svg>
<svg x="414.0" y="0.0" width="128.0" height="48.0" viewBox="0 0 128 48" xmlns="http://www.w3.org/2000/svg" xmlns:xlink="http://www.w3.org/1999/xlink">
<defs>
</defs>
<g>
<rect x="4" y="4" width="40" height="40" fill="none" stroke="black" stroke-width="1" />
<text x="24.0" y="24.0" font-size="20" fill="blue" font-family="Comic Sans MS" text-anchor="middle" dominant-baseline="central">1</text>
<rect x="44" y="4" width="40" height="40" fill="none" stroke="black" stroke-width="1" />
<text x="64.0" y="24.0" font-size="20" fill="red" font-family="Comic Sans MS" text-anchor="middle" dominant-baseline="central">0</text>
<rect x="84" y="4" width="40" height="40" fill="none" stroke="black" stroke-width="1" />
<text x="104.0" y="24.0" font-size="20" fill="black" font-family="Comic Sans MS" text-anchor="middle" dominant-baseline="central">3</text>
</g>
</svg>
<svg x="552.0" y="0.0" width="128.0" height="48.0" viewBox="0 0 128 48" xmlns="http://www.w3.org/2000/svg" xmlns:xlink="http://www.w3.org/1999/xlink">
<defs>
</defs>
<g>
<rect x="4" y="4" width="40" height="40" fill="none" stroke="black" stroke-width="1" />
<text x="24.0" y="24.0" font-size="20" fill="blue" font-family="Comic Sans MS" text-anchor="middle" dominant-baseline="central">1</text>
<rect x="44" y="4" width="40" height="40" fill="none" stroke="black" stroke-width="1" />
<text x="64.0" y="24.0" font-size="20" fill="red" font-family="Comic Sans MS" text-anchor="middle" dominant-baseline="central">0</text>
<rect x="84" y="4" width="40" height="40" fill="none" stroke="black" stroke-width="1" />
<text x="104.0" y="24.0" font-size="20" fill="black" font-family="Comic Sans MS" text-anchor="middle" dominant-baseline="central">4</text>
</g>
</svg>
<svg x="690.0" y="0.0" width="128.0" height="48.0" viewBox="0 0 128 48" xmlns="http://www.w3.org/2000/svg" xmlns:xlink="http://www.w3.org/1999/xlink">
<defs>
</defs>
<g>
<rect x="4" y="4" width="40" height="40" fill="none" stroke="black" stroke-width="1" />
<text x="24.0" y="24.0" font-size="20" fill="blue" font-family="Comic Sans MS" text-anchor="middle" dominant-baseline="central">1</text>
<rect x="44" y="4" width="40" height="40" fill="none" stroke="black" stroke-width="1" />
<text x="64.0" y="24.0" font-size="20" fill="red" font-family="Comic Sans MS" text-anchor="middle" dominant-baseline="central">0</text>
<rect x="84" y="4" width="40" height="40" fill="none" stroke="black" stroke-width="1" />
<text x="104.0" y="24.0" font-size="20" fill="black" font-family="Comic Sans MS" text-anchor="middle" dominant-baseline="central">5</text>
</g>
</svg>
<svg x="828.0" y="0.0" width="128.0" height="48.0" viewBox="0 0 128 48" xmlns="http://www.w3.org/2000/svg" xmlns:xlink="http://www.w3.org/1999/xlink">
<defs>
</defs>
<g>
<rect x="4" y="4" width="40" height="40" fill="none" stroke="black" stroke-width="1" />
<text x="24.0" y="24.0" font-size="20" fill="blue" font-family="Comic Sans MS" text-anchor="middle" dominant-baseline="central">1</text>
<rect x="44" y="4" width="40" height="40" fill="none" stroke="black" stroke-width="1" />
<text x="64.0" y="24.0" font-size="20" fill="red" font-family="Comic Sans MS" text-anchor="middle" dominant-baseline="central">0</text>
<rect x="84" y="4" width="40" height="40" fill="none" stroke="black" stroke-width="1" />
<text x="104.0" y="24.0" font-size="20" fill="black" font-family="Comic Sans MS" text-anchor="middle" dominant-baseline="central">6</text>
</g>
</svg>
<svg x="966.0" y="0.0" width="128.0" height="48.0" viewBox="0 0 128 48" xmlns="http://www.w3.org/2000/svg" xmlns:xlink="http://www.w3.org/1999/xlink">
<defs>
</defs>
<g>
<rect x="4" y="4" width="40" height="40" fill="none" stroke="black" stroke-width="1" />
<text x="24.0" y="24.0" font-size="20" fill="blue" font-family="Comic Sans MS" text-anchor="middle" dominant-baseline="central">1</text>
<rect x="44" y="4" width="40" height="40" fill="none" stroke="black" stroke-width="1" />
<text x="64.0" y="24.0" font-size="20" fill="red" font-family="Comic Sans MS" text-anchor="middle" dominant-baseline="central">0</text>
<rect x="84" y="4" width="40" height="40" fill="none" stroke="black" stroke-width="1" />
<text x="104.0" y="24.0" font-size="20" fill="black" font-family="Comic Sans MS" text-anchor="middle" dominant-baseline="central">7</text>
</g>
</svg>
<svg x="1104.0" y="0.0" width="128.0" height="48.0" viewBox="0 0 128 48" xmlns="http://www.w3.org/2000/svg" xmlns:xlink="http://www.w3.org/1999/xlink">
<defs>
</defs>
<g>
<rect x="4" y="4" width="40" height="40" fill="none" stroke="black" stroke-width="1" />
<text x="24.0" y="24.0" font-size="20" fill="blue" font-family="Comic Sans MS" text-anchor="middle" dominant-baseline="central">1</text>
<rect x="44" y="4" width="40" height="40" fill="none" stroke="black" stroke-width="1" />
<text x="64.0" y="24.0" font-size="20" fill="red" font-family="Comic Sans MS" text-anchor="middle" dominant-baseline="central">0</text>
<rect x="84" y="4" width="40" height="40" fill="none" stroke="black" stroke-width="1" />
<text x="104.0" y="24.0" font-size="20" fill="black" font-family="Comic Sans MS" text-anchor="middle" dominant-baseline="central">8</text>
</g>
</svg>
<svg x="1242.0" y="0.0" width="128.0" height="48.0" viewBox="0 0 128 48" xmlns="http://www.w3.org/2000/svg" xmlns:xlink="http://www.w3.org/1999/xlink">
<defs>
</defs>
<g>
<rect x="4" y="4" width="40" height="40" fill="none" stroke="black" stroke-width="1" />
<text x="24.0" y="24.0" font-size="20" fill="blue" font-family="Comic Sans MS" text-anchor="middle" dominant-baseline="central">1</text>
<rect x="44" y="4" width="40" height="40" fill="none" stroke="black" stroke-width="1" />
<text x="64.0" y="24.0" font-size="20" fill="red" font-family="Comic Sans MS" text-anchor="middle" dominant-baseline="central">0</text>
<rect x="84" y="4" width="40" height="40" fill="none" stroke="black" stroke-width="1" />
<text x="104.0" y="24.0" font-size="20" fill="black" font-family="Comic Sans MS" text-anchor="middle" dominant-baseline="central">9</text>
</g>
</svg>
</svg>
<svg x="0.0" y="174.0" width="1370.0" height="48.0" xmlns="http://www.w3.org/2000/svg" xmlns:xlink="http://www.w3.org/1999/xlink">
<svg x="0.0" y="0.0" width="128.0" height="48.0" viewBox="0 0 128 48" xmlns="http://www.w3.org/2000/svg" xmlns:xlink="http://www.w3.org/1999/xlink">
<defs>
</defs>
<g>
<rect x="4" y="4" width="40" height="40" fill="none" stroke="black" stroke-width="1" />
<text x="24.0" y="24.0" font-size="20" fill="blue" font-family="Comic Sans MS" text-anchor="middle" dominant-baseline="central">1</text>
<rect x="44" y="4" width="40" height="40" fill="none" stroke="black" stroke-width="1" />
<text x="64.0" y="24.0" font-size="20" fill="red" font-family="Comic Sans MS" text-anchor="middle" dominant-baseline="central">1</text>
<rect x="84" y="4" width="40" height="40" fill="none" stroke="black" stroke-width="1" />
<text x="104.0" y="24.0" font-size="20" fill="black" font-family="Comic Sans MS" text-anchor="middle" dominant-baseline="central">0</text>
</g>
</svg>
<svg x="138.0" y="0.0" width="128.0" height="48.0" viewBox="0 0 128 48" xmlns="http://www.w3.org/2000/svg" xmlns:xlink="http://www.w3.org/1999/xlink">
<defs>
</defs>
<g>
<rect x="4" y="4" width="40" height="40" fill="none" stroke="black" stroke-width="1" />
<text x="24.0" y="24.0" font-size="20" fill="blue" font-family="Comic Sans MS" text-anchor="middle" dominant-baseline="central">1</text>
<rect x="44" y="4" width="40" height="40" fill="none" stroke="black" stroke-width="1" />
<text x="64.0" y="24.0" font-size="20" fill="red" font-family="Comic Sans MS" text-anchor="middle" dominant-baseline="central">1</text>
<rect x="84" y="4" width="40" height="40" fill="none" stroke="black" stroke-width="1" />
<text x="104.0" y="24.0" font-size="20" fill="black" font-family="Comic Sans MS" text-anchor="middle" dominant-baseline="central">1</text>
</g>
</svg>
<svg x="276.0" y="0.0" width="128.0" height="48.0" viewBox="0 0 128 48" xmlns="http://www.w3.org/2000/svg" xmlns:xlink="http://www.w3.org/1999/xlink">
<defs>
</defs>
<g>
<rect x="4" y="4" width="40" height="40" fill="none" stroke="black" stroke-width="1" />
<text x="24.0" y="24.0" font-size="20" fill="blue" font-family="Comic Sans MS" text-anchor="middle" dominant-baseline="central">1</text>
<rect x="44" y="4" width="40" height="40" fill="none" stroke="black" stroke-width="1" />
<text x="64.0" y="24.0" font-size="20" fill="red" font-family="Comic Sans MS" text-anchor="middle" dominant-baseline="central">1</text>
<rect x="84" y="4" width="40" height="40" fill="none" stroke="black" stroke-width="1" />
<text x="104.0" y="24.0" font-size="20" fill="black" font-family="Comic Sans MS" text-anchor="middle" dominant-baseline="central">2</text>
</g>
</svg>
<svg x="414.0" y="0.0" width="128.0" height="48.0" viewBox="0 0 128 48" xmlns="http://www.w3.org/2000/svg" xmlns:xlink="http://www.w3.org/1999/xlink">
<defs>
</defs>
<g>
<rect x="4" y="4" width="40" height="40" fill="none" stroke="black" stroke-width="1" />
<text x="24.0" y="24.0" font-size="20" fill="blue" font-family="Comic Sans MS" text-anchor="middle" dominant-baseline="central">1</text>
<rect x="44" y="4" width="40" height="40" fill="none" stroke="black" stroke-width="1" />
<text x="64.0" y="24.0" font-size="20" fill="red" font-family="Comic Sans MS" text-anchor="middle" dominant-baseline="central">1</text>
<rect x="84" y="4" width="40" height="40" fill="none" stroke="black" stroke-width="1" />
<text x="104.0" y="24.0" font-size="20" fill="black" font-family="Comic Sans MS" text-anchor="middle" dominant-baseline="central">3</text>
</g>
</svg>
<svg x="552.0" y="0.0" width="128.0" height="48.0" viewBox="0 0 128 48" xmlns="http://www.w3.org/2000/svg" xmlns:xlink="http://www.w3.org/1999/xlink">
<defs>
</defs>
<g>
<rect x="4" y="4" width="40" height="40" fill="none" stroke="black" stroke-width="1" />
<text x="24.0" y="24.0" font-size="20" fill="blue" font-family="Comic Sans MS" text-anchor="middle" dominant-baseline="central">1</text>
<rect x="44" y="4" width="40" height="40" fill="none" stroke="black" stroke-width="1" />
<text x="64.0" y="24.0" font-size="20" fill="red" font-family="Comic Sans MS" text-anchor="middle" dominant-baseline="central">1</text>
<rect x="84" y="4" width="40" height="40" fill="none" stroke="black" stroke-width="1" />
<text x="104.0" y="24.0" font-size="20" fill="black" font-family="Comic Sans MS" text-anchor="middle" dominant-baseline="central">4</text>
</g>
</svg>
<svg x="690.0" y="0.0" width="128.0" height="48.0" viewBox="0 0 128 48" xmlns="http://www.w3.org/2000/svg" xmlns:xlink="http://www.w3.org/1999/xlink">
<defs>
</defs>
<g>
<rect x="4" y="4" width="40" height="40" fill="none" stroke="black" stroke-width="1" />
<text x="24.0" y="24.0" font-size="20" fill="blue" font-family="Comic Sans MS" text-anchor="middle" dominant-baseline="central">1</text>
<rect x="44" y="4" width="40" height="40" fill="none" stroke="black" stroke-width="1" />
<text x="64.0" y="24.0" font-size="20" fill="red" font-family="Comic Sans MS" text-anchor="middle" dominant-baseline="central">1</text>
<rect x="84" y="4" width="40" height="40" fill="none" stroke="black" stroke-width="1" />
<text x="104.0" y="24.0" font-size="20" fill="black" font-family="Comic Sans MS" text-anchor="middle" dominant-baseline="central">5</text>
</g>
</svg>
<svg x="828.0" y="0.0" width="128.0" height="48.0" viewBox="0 0 128 48" xmlns="http://www.w3.org/2000/svg" xmlns:xlink="http://www.w3.org/1999/xlink">
<defs>
</defs>
<g>
<rect x="4" y="4" width="40" height="40" fill="none" stroke="black" stroke-width="1" />
<text x="24.0" y="24.0" font-size="20" fill="blue" font-family="Comic Sans MS" text-anchor="middle" dominant-baseline="central">1</text>
<rect x="44" y="4" width="40" height="40" fill="none" stroke="black" stroke-width="1" />
<text x="64.0" y="24.0" font-size="20" fill="red" font-family="Comic Sans MS" text-anchor="middle" dominant-baseline="central">1</text>
<rect x="84" y="4" width="40" height="40" fill="none" stroke="black" stroke-width="1" />
<text x="104.0" y="24.0" font-size="20" fill="black" font-family="Comic Sans MS" text-anchor="middle" dominant-baseline="central">6</text>
</g>
</svg>
<svg x="966.0" y="0.0" width="128.0" height="48.0" viewBox="0 0 128 48" xmlns="http://www.w3.org/2000/svg" xmlns:xlink="http://www.w3.org/1999/xlink">
<defs>
</defs>
<g>
<rect x="4" y="4" width="40" height="40" fill="none" stroke="black" stroke-width="1" />
<text x="24.0" y="24.0" font-size="20" fill="blue" font-family="Comic Sans MS" text-anchor="middle" dominant-baseline="central">1</text>
<rect x="44" y="4" width="40" height="40" fill="none" stroke="black" stroke-width="1" />
<text x="64.0" y="24.0" font-size="20" fill="red" font-family="Comic Sans MS" text-anchor="middle" dominant-baseline="central">1</text>
<rect x="84" y="4" width="40" height="40" fill="none" stroke="black" stroke-width="1" />
<text x="104.0" y="24.0" font-size="20" fill="black" font-family="Comic Sans MS" text-anchor="middle" dominant-baseline="central">7</text>
</g>
</svg>
<svg x="1104.0" y="0.0" width="128.0" height="48.0" viewBox="0 0 128 48" xmlns="http://www.w3.org/2000/svg" xmlns:xlink="http://www.w3.org/1999/xlink">
<defs>
</defs>
<g>
<rect x="4" y="4" width="40" height="40" fill="none" stroke="black" stroke-width="1" />
<text x="24.0" y="24.0" font-size="20" fill="blue" font-family="Comic Sans MS" text-anchor="middle" dominant-baseline="central">1</text>
<rect x="44" y="4" width="40" height="40" fill="none" stroke="black" stroke-width="1" />
<text x="64.0" y="24.0" font-size="20" fill="red" font-family="Comic Sans MS" text-anchor="middle" dominant-baseline="central">1</text>
<rect x="84" y="4" width="40" height="40" fill="none" stroke="black" stroke-width="1" />
<text x="104.0" y="24.0" font-size="20" fill="black" font-family="Comic Sans MS" text-anchor="middle" dominant-baseline="central">8</text>
</g>
</svg>
<svg x="1242.0" y="0.0" width="128.0" height="48.0" viewBox="0 0 128 48" xmlns="http://www.w3.org/2000/svg" xmlns:xlink="http://www.w3.org/1999/xlink">
<defs>
</defs>
<g>
<rect x="4" y="4" width="40" height="40" fill="none" stroke="black" stroke-width="1" />
<text x="24.0" y="24.0" font-size="20" fill="blue" font-family="Comic Sans MS" text-anchor="middle" dominant-baseline="central">1</text>
<rect x="44" y="4" width="40" height="40" fill="none" stroke="black" stroke-width="1" />
<text x="64.0" y="24.0" font-size="20" fill="red" font-family="Comic Sans MS" text-anchor="middle" dominant-baseline="central">1</text>
<rect x="84" y="4" width="40" height="40" fill="none" stroke="black" stroke-width="1" />
<text x="104.0" y="24.0" font-size="20" fill="black" font-family="Comic Sans MS" text-anchor="middle" dominant-baseline="central">9</text>
</g>
</svg>
</svg>
</svg>