<?xml version="1.0" encoding="UTF-8"?>
<svg xmlns="http://www.w3.org/2000/svg" xmlns:xlink="http://www.w3.org/1999/xlink"
     width="1674" height="610" viewBox="0 0 1674 610">
<defs>
</defs>
<g>
<g>
<g>
<rect x="0" y="400" width="104" height="200" fill="white" stroke="#333333" stroke-width="1" />
<g>
<rect x="12.0" y="430.0" width="40" height="40" fill="none" stroke="black" stroke-width="1" />
<text x="32.0" y="450.0" font-size="20" fill="black" font-family="Comic Sans MS" text-anchor="middle" dominant-baseline="central"> </text>
<rect x="52.0" y="430.0" width="40" height="40" fill="none" stroke="black" stroke-width="1" />
<text x="72.0" y="450.0" font-size="20" fill="black" font-family="Comic Sans MS" text-anchor="middle" dominant-baseline="central">0</text>
</g>
<rect x="26.0" y="480.0" width="52.0" height="120.0" fill="#DEB887" stroke="none" />
<rect x="29.0" y="483.0" width="46.0" height="114.0" fill="white" stroke="none" />
</g>
<g>
<rect x="104" y="400" width="104" height="200" fill="white" stroke="#333333" stroke-width="1" />
<g>
<rect x="116.0" y="430.0" width="40" height="40" fill="none" stroke="black" stroke-width="1" />
<text x="136.0" y="450.0" font-size="20" fill="black" font-family="Comic Sans MS" text-anchor="middle" dominant-baseline="central"> </text>
<rect x="156.0" y="430.0" width="40" height="40" fill="none" stroke="black" stroke-width="1" />
<text x="176.0" y="450.0" font-size="20" fill="black" font-family="Comic Sans MS" text-anchor="middle" dominant-baseline="central">1</text>
</g>
<rect x="130.0" y="480.0" width="52.0" height="120.0" fill="#DEB887" stroke="none" />
<rect x="133.0" y="483.0" width="46.0" height="114.0" fill="white" stroke="none" />
</g>
<g>
<rect x="208" y="400" width="104" height="200" fill="white" stroke="#333333" stroke-width="1" />
<g>
<rect x="220.0" y="430.0" width="40" height="40" fill="none" stroke="black" stroke-width="1" />
<text x="240.0" y="450.0" font-size="20" fill="black" font-family="Comic Sans MS" text-anchor="middle" dominant-baseline="central"> </text>
<rect x="260.0" y="430.0" width="40" height="40" fill="none" stroke="black" stroke-width="1" />
<text x="280.0" y="450.0" font-size="20" fill="black" font-family="Comic Sans MS" text-anchor="middle" dominant-baseline="central">2</text>
</g>
<rect x="234.0" y="480.0" width="52.0" height="120.0" fill="#DEB887" stroke="none" />
<rect x="237.0" y="483.0" width="46.0" height="114.0" fill="white" stroke="none" />
</g>
<g>
<rect x="312" y="400" width="104" height="200" fill="white" stroke="#333333" stroke-width="1" />
<g>
<rect x="324.0" y="430.0" width="40" height="40" fill="none" stroke="black" stroke-width="1" />
<text x="344.0" y="450.0" font-size="20" fill="black" font-family="Comic Sans MS" text-anchor="middle" dominant-baseline="central"> </text>
<rect x="364.0" y="430.0" width="40" height="40" fill="none" stroke="black" stroke-width="1" />
<text x="384.0" y="450.0" font-size="20" fill="black" font-family="Comic Sans MS" text-anchor="middle" dominant-baseline="central">3</text>
</g>
<rect x="338.0" y="480.0" width="52.0" height="120.0" fill="#DEB887" stroke="none" />
<rect x="341.0" y="483.0" width="46.0" height="114.0" fill="white" stroke="none" />
</g>
<g>
<rect x="416" y="400" width="104" height="200" fill="white" stroke="#333333" stroke-width="1" />
<g>
<rect x="428.0" y="430.0" width="40" height="40" fill="none" stroke="black" stroke-width="1" />
<text x="448.0" y="450.0" font-size="20" fill="black" font-family="Comic Sans MS" text-anchor="middle" dominant-baseline="central"> </text>
<rect x="468.0" y="430.0" width="40" height="40" fill="none" stroke="black" stroke-width="1" />
<text x="488.0" y="450.0" font-size="20" fill="black" font-family="Comic Sans MS" text-anchor="middle" dominant-baseline="central">4</text>
</g>
<rect x="442.0" y="480.0" width="52.0" height="120.0" fill="#DEB887" stroke="none" />
<rect x="445.0" y="483.0" width="46.0" height="114.0" fill="white" stroke="none" />
</g>
<g>
<rect x="520" y="400" width="104" height="200" fill="white" stroke="#333333" stroke-width="1" />
<g>
<rect x="532.0" y="430.0" width="40" height="40" fill="none" stroke="black" stroke-width="1" />
<text x="552.0" y="450.0" font-size="20" fill="black" font-family="Comic Sans MS" text-anchor="middle" dominant-baseline="central"> </text>
<rect x="572.0" y="430.0" width="40" height="40" fill="none" stroke="black" stroke-width="1" />
<text x="592.0" y="450.0" font-size="20" fill="black" font-family="Comic Sans MS" text-anchor="middle" dominant-baseline="central">5</text>
</g>
<rect x="546.0" y="480.0" width="52.0" height="120.0" fill="#DEB887" stroke="none" />
<rect x="549.0" y="483.0" width="46.0" height="114.0" fill="white" stroke="none" />
</g>
<g>
<rect x="624" y="400" width="104" height="200" fill="white" stroke="#333333" stroke-width="1" />
<g>
<rect x="636.0" y="430.0" width="40" height="40" fill="none" stroke="black" stroke-width="1" />
<text x="656.0" y="450.0" font-size="20" fill="black" font-family="Comic Sans MS" text-anchor="middle" dominant-baseline="central"> </text>
<rect x="676.0" y="430.0" width="40" height="40" fill="none" stroke="black" stroke-width="1" />
<text x="696.0" y="450.0" font-size="20" fill="black" font-family="Comic Sans MS" text-anchor="middle" dominant-baseline="central">6</text>
</g>
<rect x="650.0" y="480.0" width="52.0" height="120.0" fill="#DEB887" stroke="none" />
<rect x="653.0" y="483.0" width="46.0" height="114.0" fill="white" stroke="none" />
</g>
<g>
<rect x="728" y="400" width="104" height="200" fill="white" stroke="#333333" stroke-width="1" />
<g>
<rect x="740.0" y="430.0" width="40" height="40" fill="none" stroke="black" stroke-width="1" />
<text x="760.0" y="450.0" font-size="20" fill="black" font-family="Comic Sans MS" text-anchor="middle" dominant-baseline="central"> </text>
<rect x="780.0" y="430.0" width="40" height="40" fill="none" stroke="black" stroke-width="1" />
<text x="800.0" y="450.0" font-size="20" fill="black" font-family="Comic Sans MS" text-anchor="middle" dominant-baseline="central">7</text>
</g>
<rect x="754.0" y="480.0" width="52.0" height="120.0" fill="#DEB887" stroke="none" />
<rect x="757.0" y="483.0" width="46.0" height="114.0" fill="white" stroke="none" />
</g>
<g>
<rect x="832" y="400" width="104" height="200" fill="white" stroke="#333333" stroke-width="1" />
<g>
<rect x="844.0" y="430.0" width="40" height="40" fill="none" stroke="black" stroke-width="1" />
<text x="864.0" y="450.0" font-size="20" fill="black" font-family="Comic Sans MS" text-anchor="middle" dominant-baseline="central"> </text>
<rect x="884.0" y="430.0" width="40" height="40" fill="none" stroke="black" stroke-width="1" />
<text x="904.0" y="450.0" font-size="20" fill="black" font-family="Comic Sans MS" text-anchor="middle" dominant-baseline="central">8</text>
</g>
<rect x="858.0" y="480.0" width="52.0" height="120.0" fill="#DEB887" stroke="none" />
<rect x="861.0" y="483.0" width="46.0" height="114.0" fill="white" stroke="none" />
</g>
<g>
<rect x="936" y="400" width="104" height="200" fill="white" stroke="#333333" stroke-width="1" />
<g>
<rect x="948.0" y="430.0" width="40" height="40" fill="none" stroke="black" stroke-width="1" />
<text x="968.0" y="450.0" font-size="20" fill="black" font-family="Comic Sans MS" text-anchor="middle" dominant-baseline="central"> </text>
<rect x="988.0" y="430.0" width="40" height="40" fill="none" stroke="black" stroke-width="1" />
<text x="1008.0" y="450.0" font-size="20" fill="black" font-family="Comic Sans MS" text-anchor="middle" dominant-baseline="central">9</text>
</g>
<rect x="962.0" y="480.0" width="52.0" height="120.0" fill="#DEB887" stroke="none" />
<rect x="965.0" y="483.0" width="46.0" height="114.0" fill="white" stroke="none" />
</g>
<g>
<rect x="1040" y="400" width="104" height="200" fill="white" stroke="#333333" stroke-width="1" />
<g>
<rect x="1052.0" y="430.0" width="40" height="40" fill="none" stroke="black" stroke-width="1" />
<text x="1072.0" y="450.0" font-size="20" fill="black" font-family="Comic Sans MS" text-anchor="middle" dominant-baseline="central"> </text>
<rect x="1092.0" y="430.0" width="40" height="40" fill="none" stroke="black" stroke-width="1" />
<text x="1112.0" y="450.0" font-size="20" fill="black" font-family="Comic Sans MS" text-anchor="middle" dominant-baseline="central">A</text>
</g>
<rect x="1066.0" y="480.0" width="52.0" height="120.0" fill="#DEB887" stroke="none" />
<rect x="1069.0" y="483.0" width="46.0" height="114.0" fill="white" stroke="none" />
</g>
<g>
<rect x="1144" y="400" width="104" height="200" fill="white" stroke="#333333" stroke-width="1" />
<g>
<rect x="1156.0" y="430.0" width="40" height="40" fill="none" stroke="black" stroke-width="1" />
<text x="1176.0" y="450.0" font-size="20" fill="black" font-family="Comic Sans MS" text-anchor="middle" dominant-baseline="central"> </text>
<rect x="1196.0" y="430.0" width="40" height="40" fill="none" stroke="black" stroke-width="1" />
<text x="1216.0" y="450.0" font-size="20" fill="black" font-family="Comic Sans MS" text-anchor="middle" dominant-baseline="central">B</text>
</g>
<rect x="1170.0" y="480.0" width="52.0" height="120.0" fill="#DEB887" stroke="none" />
<rect x="1173.0" y="483.0" width="46.0" height="114.0" fill="white" stroke="none" />
</g>
<g>
<rect x="1248" y="400" width="104" height="200" fill="white" stroke="#333333" stroke-width="1" />
<g>
<rect x="1260.0" y="430.0" width="40" height="40" fill="none" stroke="black" stroke-width="1" />
<text x="1280.0" y="450.0" font-size="20" fill="black" font-family="Comic Sans MS" text-anchor="middle" dominant-baseline="central"> </text>
<rect x="1300.0" y="430.0" width="40" height="40" fill="none" stroke="black" stroke-width="1" />
<text x="1320.0" y="450.0" font-size="20" fill="black" font-family="Comic Sans MS" text-anchor="middle" dominant-baseline="central">C</text>
</g>
<rect x="1274.0" y="480.0" width="52.0" height="120.0" fill="#DEB887" stroke="none" />
<rect x="1277.0" y="483.0" width="46.0" height="114.0" fill="white" stroke="none" />
</g>
<g>
<rect x="1352" y="400" width="104" height="200" fill="white" stroke="#333333" stroke-width="1" />
<g>
<rect x="1364.0" y="430.0" width="40" height="40" fill="none" stroke="black" stroke-width="1" />
<text x="1384.0" y="450.0" font-size="20" fill="black" font-family="Comic Sans MS" text-anchor="middle" dominant-baseline="central"> </text>
<rect x="1404.0" y="430.0" width="40" height="40" fill="none" stroke="black" stroke-width="1" />
<text x="1424.0" y="450.0" font-size="20" fill="black" font-family="Comic Sans MS" text-anchor="middle" dominant-baseline="central">D</text>
</g>
<rect x="1378.0" y="480.0" width="52.0" height="120.0" fill="#DEB887" stroke="none" />
<rect x="1381.0" y="483.0" width="46.0" height="114.0" fill="white" stroke="none" />
</g>
<g>
<rect x="1456" y="400" width="104" height="200" fill="white" stroke="#333333" stroke-width="1" />
<g>
<rect x="1468.0" y="430.0" width="40" height="40" fill="none" stroke="black" stroke-width="1" />
<text x="1488.0" y="450.0" font-size="20" fill="black" font-family="Comic Sans MS" text-anchor="middle" dominant-baseline="central"> </text>
<rect x="1508.0" y="430.0" width="40" height="40" fill="none" stroke="black" stroke-width="1" />
<text x="1528.0" y="450.0" font-size="20" fill="black" font-family="Comic Sans MS" text-anchor="middle" dominant-baseline="central">E</text>
</g>
<rect x="1482.0" y="480.0" width="52.0" height="120.0" fill="#DEB887" stroke="none" />
<rect x="1485.0" y="483.0" width="46.0" height="114.0" fill="white" stroke="none" />
</g>
<g>
<rect x="1560" y="400" width="104" height="200" fill="white" stroke="#333333" stroke-width="1" />
<g>
<rect x="1572.0" y="430.0" width="40" height="40" fill="none" stroke="black" stroke-width="1" />
<text x="1592.0" y="450.0" font-size="20" fill="black" font-family="Comic Sans MS" text-anchor="middle" dominant-baseline="central"> </text>
<rect x="1612.0" y="430.0" width="40" height="40" fill="none" stroke="black" stroke-width="1" />
<text x="1632.0" y="450.0" font-size="20" fill="black" font-family="Comic Sans MS" text-anchor="middle" dominant-baseline="central">F</text>
</g>
<rect x="1586.0" y="480.0" width="52.0" height="120.0" fill="#DEB887" stroke="none" />
<rect x="1589.0" y="483.0" width="46.0" height="114.0" fill="white" stroke="none" />
</g>
</g>
<g>
<g>
<rect x="0" y="200" width="104" height="200" fill="white" stroke="#333333" stroke-width="1" />
<g>
<rect x="12.0" y="230.0" width="40" height="40" fill="none" stroke="black" stroke-width="1" />
<text x="32.0" y="250.0" font-size="20" fill="red" font-family="Comic Sans MS" text-anchor="middle" dominant-baseline="central">1</text>
<rect x="52.0" y="230.0" width="40" height="40" fill="none" stroke="black" stroke-width="1" />
<text x="72.0" y="250.0" font-size="20" fill="black" font-family="Comic Sans MS" text-anchor="middle" dominant-baseline="central">0</text>
</g>
<rect x="26.0" y="280.0" width="52.0" height="120.0" fill="#DEB887" stroke="none" />
<rect x="29.0" y="283.0" width="46.0" height="114.0" fill="white" stroke="none" />
</g>
<g>
<rect x="104" y="200" width="104" height="200" fill="white" stroke="#333333" stroke-width="1" />
<g>
<rect x="116.0" y="230.0" width="40" height="40" fill="none" stroke="black" stroke-width="1" />
<text x="136.0" y="250.0" font-size="20" fill="red" font-family="Comic Sans MS" text-anchor="middle" dominant-baseline="central">1</text>
<rect x="156.0" y="230.0" width="40" height="40" fill="none" stroke="black" stroke-width="1" />
<text x="176.0" y="250.0" font-size="20" fill="black" font-family="Comic Sans MS" text-anchor="middle" dominant-baseline="central">1</text>
</g>
<rect x="130.0" y="280.0" width="52.0" height="120.0" fill="#DEB887" stroke="none" />
<rect x="133.0" y="283.0" width="46.0" height="114.0" fill="white" stroke="none" />
</g>
<g>
<rect x="208" y="200" width="104" height="200" fill="white" stroke="#333333" stroke-width="1" />
<g>
<rect x="220.0" y="230.0" width="40" height="40" fill="none" stroke="black" stroke-width="1" />
<text x="240.0" y="250.0" font-size="20" fill="red" font-family="Comic Sans MS" text-anchor="middle" dominant-baseline="central">1</text>
<rect x="260.0" y="230.0" width="40" height="40" fill="none" stroke="black" stroke-width="1" />
<text x="280.0" y="250.0" font-size="20" fill="black" font-family="Comic Sans MS" text-anchor="middle" dominant-baseline="central">2</text>
</g>
<rect x="234.0" y="280.0" width="52.0" height="120.0" fill="#DEB887" stroke="none" />
<rect x="237.0" y="283.0" width="46.0" height="114.0" fill="white" stroke="none" />
</g>
<g>
<rect x="312" y="200" width="104" height="200" fill="white" stroke="#333333" stroke-width="1" />
<g>
<rect x="324.0" y="230.0" width="40" height="40" fill="none" stroke="black" stroke-width="1" />
<text x="344.0" y="250.0" font-size="20" fill="red" font-family="Comic Sans MS" text-anchor="middle" dominant-baseline="central">1</text>
<rect x="364.0" y="230.0" width="40" height="40" fill="none" stroke="black" stroke-width="1" />
<text x="384.0" y="250.0" font-size="20" fill="black" font-family="Comic Sans MS" text-anchor="middle" dominant-baseline="central">3</text>
</g>
<rect x="338.0" y="280.0" width="52.0" height="120.0" fill="#DEB887" stroke="none" />
<rect x="341.0" y="283.0" width="46.0" height="114.0" fill="white" stroke="none" />
</g>
<g>
<rect x="416" y="200" width="104" height="200" fill="white" stroke="#333333" stroke-width="1" />
<g>
<rect x="428.0" y="230.0" width="40" height="40" fill="none" stroke="black" stroke-width="1" />
<text x="448.0" y="250.0" font-size="20" fill="red" font-family="Comic Sans MS" text-anchor="middle" dominant-baseline="central">1</text>
<rect x="468.0" y="230.0" width="40" height="40" fill="none" stroke="black" stroke-width="1" />
<text x="488.0" y="250.0" font-size="20" fill="black" font-family="Comic Sans MS" text-anchor="middle" dominant-baseline="central">4</text>
</g>
<rect x="442.0" y="280.0" width="52.0" height="120.0" fill="#DEB887" stroke="none" />
<rect x="445.0" y="283.0" width="46.0" height="114.0" fill="white" stroke="none" />
</g>
<g>
<rect x="520" y="200" width="104" height="200" fill="white" stroke="#333333" stroke-width="1" />
<g>
<rect x="532.0" y="230.0" width="40" height="40" fill="none" stroke="black" stroke-width="1" />
<text x="552.0" y="250.0" font-size="20" fill="red" font-family="Comic Sans MS" text-anchor="middle" dominant-baseline="central">1</text>
<rect x="572.0" y="230.0" width="40" height="40" fill="none" stroke="black" stroke-width="1" />
<text x="592.0" y="250.0" font-size="20" fill="black" font-family="Comic Sans MS" text-anchor="middle" dominant-baseline="central">5</text>
</g>
<rect x="546.0" y="280.0" width="52.0" height="120.0" fill="#DEB887" stroke="none" />
<rect x="549.0" y="283.0" width="46.0" height="114.0" fill="white" stroke="none" />
</g>
<g>
<rect x="624" y="200" width="104" height="200" fill="white" stroke="#333333" stroke-width="1" />
<g>
<rect x="636.0" y="230.0" width="40" height="40" fill="none" stroke="black" stroke-width="1" />
<text x="656.0" y="250.0" font-size="20" fill="red" font-family="Comic Sans MS" text-anchor="middle" dominant-baseline="central">1</text>
<rect x="676.0" y="230.0" width="40" height="40" fill="none" stroke="black" stroke-width="1" />
<text x="696.0" y="250.0" font-size="20" fill="black" font-family="Comic Sans MS" text-anchor="middle" dominant-baseline="central">6</text>
</g>
<rect x="650.0" y="280.0" width="52.0" height="120.0" fill="#DEB887" stroke="none" />
<rect x="653.0" y="283.0" width="46.0" height="114.0" fill="white" stroke="none" />
</g>
<g>
<rect x="728" y="200" width="104" height="200" fill="white" stroke="#333333" stroke-width="1" />
<g>
<rect x="740.0" y="230.0" width="40" height="40" fill="none" stroke="black" stroke-width="1" />
<text x="760.0" y="250.0" font-size="20" fill="red" font-family="Comic Sans MS" text-anchor="middle" dominant-baseline="central">1</text>
<rect x="780.0" y="230.0" width="40" height="40" fill="none" stroke="black" stroke-width="1" />
<text x="800.0" y="250.0" font-size="20" fill="black" font-family="Comic Sans MS" text-anchor="middle" dominant-baseline="central">7</text>
</g>
<rect x="754.0" y="280.0" width="52.0" height="120.0" fill="#DEB887" stroke="none" />
<rect x="757.0" y="283.0" width="46.0" height="114.0" fill="white" stroke="none" />
</g>
<g>
<rect x="832" y="200" width="104" height="200" fill="white" stroke="#333333" stroke-width="1" />
<g>
<rect x="844.0" y="230.0" width="40" height="40" fill="none" stroke="black" stroke-width="1" />
<text x="864.0" y="250.0" font-size="20" fill="red" font-family="Comic Sans MS" text-anchor="middle" dominant-baseline="central">1</text>
<rect x="884.0" y="230.0" width="40" height="40" fill="none" stroke="black" stroke-width="1" />
<text x="904.0" y="250.0" font-size="20" fill="black" font-family="Comic Sans MS" text-anchor="middle" dominant-baseline="central">8</text>
</g>
<rect x="858.0" y="280.0" width="52.0" height="120.0" fill="#DEB887" stroke="none" />
<rect x="861.0" y="283.0" width="46.0" height="114.0" fill="white" stroke="none" />
</g>
<g>
<rect x="936" y="200" width="104" height="200" fill="white" stroke="#333333" stroke-width="1" />
<g>
<rect x="948.0" y="230.0" width="40" height="40" fill="none" stroke="black" stroke-width="1" />
<text x="968.0" y="250.0" font-size="20" fill="red" font-family="Comic Sans MS" text-anchor="middle" dominant-baseline="central">1</text>
<rect x="988.0" y="230.0" width="40" height="40" fill="none" stroke="black" stroke-width="1" />
<text x="1008.0" y="250.0" font-size="20" fill="black" font-family="Comic Sans MS" text-anchor="middle" dominant-baseline="central">9</text>
</g>
<rect x="962.0" y="280.0" width="52.0" height="120.0" fill="#DEB887" stroke="none" />
<rect x="965.0" y="283.0" width="46.0" height="114.0" fill="white" stroke="none" />
</g>
<g>
<rect x="1040" y="200" width="104" height="200" fill="white" stroke="#333333" stroke-width="1" />
<g>
<rect x="1052.0" y="230.0" width="40" height="40" fill="none" stroke="black" stroke-width="1" />
<text x="1072.0" y="250.0" font-size="20" fill="red" font-family="Comic Sans MS" text-anchor="middle" dominant-baseline="central">1</text>
<rect x="1092.0" y="230.0" width="40" height="40" fill="none" stroke="black" stroke-width="1" />
<text x="1112.0" y="250.0" font-size="20" fill="black" font-family="Comic Sans MS" text-anchor="middle" dominant-baseline="central">A</text>
</g>
<rect x="1066.0" y="280.0" width="52.0" height="120.0" fill="#DEB887" stroke="none" />
<rect x="1069.0" y="283.0" width="46.0" height="114.0" fill="white" stroke="none" />
</g>
<g>
<rect x="1144" y="200" width="104" height="200" fill="white" stroke="#333333" stroke-width="1" />
<g>
<rect x="1156.0" y="230.0" width="40" height="40" fill="none" stroke="black" stroke-width="1" />
<text x="1176.0" y="250.0" font-size="20" fill="red" font-family="Comic Sans MS" text-anchor="middle" dominant-baseline="central">1</text>
<rect x="1196.0" y="230.0" width="40" height="40" fill="none" stroke="black" stroke-width="1" />
<text x="1216.0" y="250.0" font-size="20" fill="black" font-family="Comic Sans MS" text-anchor="middle" dominant-baseline="central">B</text>
</g>
<rect x="1170.0" y="280.0" width="52.0" height="120.0" fill="#DEB887" stroke="none" />
<rect x="1173.0" y="283.0" width="46.0" height="114.0" fill="white" stroke="none" />
</g>
<g>
<rect x="1248" y="200" width="104" height="200" fill="white" stroke="#333333" stroke-width="1" />
<g>
<rect x="1260.0" y="230.0" width="40" height="40" fill="none" stroke="black" stroke-width="1" />
<text x="1280.0" y="250.0" font-size="20" fill="red" font-family="Comic Sans MS" text-anchor="middle" dominant-baseline="central">1</text>
<rect x="1300.0" y="230.0" width="40" height="40" fill="none" stroke="black" stroke-width="1" />
<text x="1320.0" y="250.0" font-size="20" fill="black" font-family="Comic Sans MS" text-anchor="middle" dominant-baseline="central">C</text>
</g>
<rect x="1274.0" y="280.0" width="52.0" height="120.0" fill="#DEB887" stroke="none" />
<rect x="1277.0" y="283.0" width="46.0" height="114.0" fill="white" stroke="none" />
</g>
<g>
<rect x="1352" y="200" width="104" height="200" fill="white" stroke="#333333" stroke-width="1" />
<g>
<rect x="1364.0" y="230.0" width="40" height="40" fill="none" stroke="black" stroke-width="1" />
<text x="1384.0" y="250.0" font-size="20" fill="red" font-family="Comic Sans MS" text-anchor="middle" dominant-baseline="central">1</text>
<rect x="1404.0" y="230.0" width="40" height="40" fill="none" stroke="black" stroke-width="1" />
<text x="1424.0" y="250.0" font-size="20" fill="black" font-family="Comic Sans MS" text-anchor="middle" dominant-baseline="central">D</text>
</g>
<rect x="1378.0" y="280.0" width="52.0" height="120.0" fill="#DEB887" stroke="none" />
<rect x="1381.0" y="283.0" width="46.0" height="114.0" fill="white" stroke="none" />
</g>
<g>
<rect x="1456" y="200" width="104" height="200" fill="white" stroke="#333333" stroke-width="1" />
<g>
<rect x="1468.0" y="230.0" width="40" height="40" fill="none" stroke="black" stroke-width="1" />
<text x="1488.0" y="250.0" font-size="20" fill="red" font-family="Comic Sans MS" text-anchor="middle" dominant-baseline="central">1</text>
<rect x="1508.0" y="230.0" width="40" height="40" fill="none" stroke="black" stroke-width="1" />
<text x="1528.0" y="250.0" font-size="20" fill="black" font-family="Comic Sans MS" text-anchor="middle" dominant-baseline="central">E</text>
</g>
<rect x="1482.0" y="280.0" width="52.0" height="120.0" fill="#DEB887" stroke="none" />
<rect x="1485.0" y="283.0" width="46.0" height="114.0" fill="white" stroke="none" />
</g>
<g>
<rect x="1560" y="200" width="104" height="200" fill="white" stroke="#333333" stroke-width="1" />
<g>
<rect x="1572.0" y="230.0" width="40" height="40" fill="none" stroke="black" stroke-width="1" />
<text x="1592.0" y="250.0" font-size="20" fill="red" font-family="Comic Sans MS" text-anchor="middle" dominant-baseline="central">1</text>
<rect x="1612.0" y="230.0" width="40" height="40" fill="none" stroke="black" stroke-width="1" />
<text x="1632.0" y="250.0" font-size="20" fill="black" font-family="Comic Sans MS" text-anchor="middle" dominant-baseline="central">F</text>
</g>
<rect x="1586.0" y="280.0" width="52.0" height="120.0" fill="#DEB887" stroke="none" />
<rect x="1589.0" y="283.0" width="46.0" height="114.0" fill="white" stroke="none" />
</g>
</g>
<g>
<g>
<rect x="0" y="0" width="104" height="200" fill="white" stroke="#333333" stroke-width="1" />
<g>
<rect x="12.0" y="30.0" width="40" height="40" fill="none" stroke="black" stroke-width="1" />
<text x="32.0" y="50.0" font-size="20" fill="red" font-family="Comic Sans MS" text-anchor="middle" dominant-baseline="central">2</text>
<rect x="52.0" y="30.0" width="40" height="40" fill="none" stroke="black" stroke-width="1" />
<text x="72.0" y="50.0" font-size="20" fill="black" font-family="Comic Sans MS" text-anchor="middle" dominant-baseline="central">0</text>
</g>
<rect x="26.0" y="80.0" width="52.0" height="120.0" fill="#DEB887" stroke="none" />
<rect x="29.0" y="83.0" width="46.0" height="114.0" fill="white" stroke="none" />
</g>
<g>
<rect x="104" y="0" width="104" height="200" fill="white" stroke="#333333" stroke-width="1" />
<g>
<rect x="116.0" y="30.0" width="40" height="40" fill="none" stroke="black" stroke-width="1" />
<text x="136.0" y="50.0" font-size="20" fill="red" font-family="Comic Sans MS" text-anchor="middle" dominant-baseline="central">2</text>
<rect x="156.0" y="30.0" width="40" height="40" fill="none" stroke="black" stroke-width="1" />
<text x="176.0" y="50.0" font-size="20" fill="black" font-family="Comic Sans MS" text-anchor="middle" dominant-baseline="central">1</text>
</g>
<rect x="130.0" y="80.0" width="52.0" height="120.0" fill="#DEB887" stroke="none" />
<rect x="133.0" y="83.0" width="46.0" height="114.0" fill="white" stroke="none" />
</g>
<g>
<rect x="208" y="0" width="104" height="200" fill="white" stroke="#333333" stroke-width="1" />
<g>
<rect x="220.0" y="30.0" width="40" height="40" fill="none" stroke="black" stroke-width="1" />
<text x="240.0" y="50.0" font-size="20" fill="red" font-family="Comic Sans MS" text-anchor="middle" dominant-baseline="central">2</text>
<rect x="260.0" y="30.0" width="40" height="40" fill="none" stroke="black" stroke-width="1" />
<text x="280.0" y="50.0" font-size="20" fill="black" font-family="Comic Sans MS" text-anchor="middle" dominant-baseline="central">2</text>
</g>
<rect x="234.0" y="80.0" width="52.0" height="120.0" fill="#DEB887" stroke="none" />
<rect x="237.0" y="83.0" width="46.0" height="114.0" fill="white" stroke="none" />
</g>
<g>
<rect x="312" y="0" width="104" height="200" fill="white" stroke="#333333" stroke-width="1" />
<g>
<rect x="324.0" y="30.0" width="40" height="40" fill="none" stroke="black" stroke-width="1" />
<text x="344.0" y="50.0" font-size="20" fill="red" font-family="Comic Sans MS" text-anchor="middle" dominant-baseline="central">2</text>
<rect x="364.0" y="30.0" width="40" height="40" fill="none" stroke="black" stroke-width="1" />
<text x="384.0" y="50.0" font-size="20" fill="black" font-family="Comic Sans MS" text-anchor="middle" dominant-baseline="central">3</text>
</g>
<rect x="338.0" y="80.0" width="52.0" height="120.0" fill="#DEB887" stroke="none" />
<rect x="341.0" y="83.0" width="46.0" height="114.0" fill="white" stroke="none" />
</g>
<g>
<rect x="416" y="0" width="104" height="200" fill="white" stroke="#333333" stroke-width="1" />
<g>
<rect x="428.0" y="30.0" width="40" height="40" fill="none" stroke="black" stroke-width="1" />
<text x="448.0" y="50.0" font-size="20" fill="red" font-family="Comic Sans MS" text-anchor="middle" dominant-baseline="central">2</text>
<rect x="468.0" y="30.0" width="40" height="40" fill="none" stroke="black" stroke-width="1" />
<text x="488.0" y="50.0" font-size="20" fill="black" font-family="Comic Sans MS" text-anchor="middle" dominant-baseline="central">4</text>
</g>
<rect x="442.0" y="80.0" width="52.0" height="120.0" fill="#DEB887" stroke="none" />
<rect x="445.0" y="83.0" width="46.0" height="114.0" fill="white" stroke="none" />
</g>
<g>
<rect x="520" y="0" width="104" height="200" fill="white" stroke="#333333" stroke-width="1" />
<g>
<rect x="532.0" y="30.0" width="40" height="40" fill="none" stroke="black" stroke-width="1" />
<text x="552.0" y="50.0" font-size="20" fill="red" font-family="Comic Sans MS" text-anchor="middle" dominant-baseline="central">2</text>
<rect x="572.0" y="30.0" width="40" height="40" fill="none" stroke="black" stroke-width="1" />
<text x="592.0" y="50.0" font-size="20" fill="black" font-family="Comic Sans MS" text-anchor="middle" dominant-baseline="central">5</text>
</g>
<rect x="546.0" y="80.0" width="52.0" height="120.0" fill="#DEB887" stroke="none" />
<rect x="549.0" y="83.0" width="46.0" height="114.0" fill="white" stroke="none" />
</g>
<g>
<rect x="624" y="0" width="104" height="200" fill="white" stroke="#333333" stroke-width="1" />
<g>
<rect x="636.0" y="30.0" width="40" height="40" fill="none" stroke="black" stroke-width="1" />
<text x="656.0" y="50.0" font-size="20" fill="red" font-family="Comic Sans MS" text-anchor="middle" dominant-baseline="central">2</text>
<rect x="676.0" y="30.0" width="40" height="40" fill="none" stroke="black" stroke-width="1" />
<text x="696.0" y="50.0" font-size="20" fill="black" font-family="Comic Sans MS" text-anchor="middle" dominant-baseline="central">6</text>
</g>
<rect x="650.0" y="80.0" width="52.0" height="120.0" fill="#DEB887" stroke="none" />
<rect x="653.0" y="83.0" width="46.0" height="114.0" fill="white" stroke="none" />
</g>
<g>
<rect x="728" y="0" width="104" height="200" fill="white" stroke="#333333" stroke-width="1" />
<g>
<rect x="740.0" y="30.0" width="40" height="40" fill="none" stroke="black" stroke-width="1" />
<text x="760.0" y="50.0" font-size="20" fill="red" font-family="Comic Sans MS" text-anchor="middle" dominant-baseline="central">2</text>
<rect x="780.0" y="30.0" width="40" height="40" fill="none" stroke="black" stroke-width="1" />
<text x="800.0" y="50.0" font-size="20" fill="black" font-family="Comic Sans MS" text-anchor="middle" dominant-baseline="central">7</text>
</g>
<rect x="754.0" y="80.0" width="52.0" height="120.0" fill="#DEB887" stroke="none" />
<rect x="757.0" y="83.0" width="46.0" height="114.0" fill="white" stroke="none" />
</g>
<g>
<rect x="832" y="0" width="104" height="200" fill="white" stroke="#333333" stroke-width="1" />
<g>
<rect x="844.0" y="30.0" width="40" height="40" fill="none" stroke="black" stroke-width="1" />
<text x="864.0" y="50.0" font-size="20" fill="red" font-family="Comic Sans MS" text-anchor="middle" dominant-baseline="central">2</text>
<rect x="884.0" y="30.0" width="40" height="40" fill="none" stroke="black" stroke-width="1" />
<text x="904.0" y="50.0" font-size="20" fill="black" font-family="Comic Sans MS" text-anchor="middle" dominant-baseline="central">8</text>
</g>
<rect x="858.0" y="80.0" width="52.0" height="120.0" fill="#DEB887" stroke="none" />
<rect x="861.0" y="83.0" width="46.0" height="114.0" fill="white" stroke="none" />
</g>
<g>
<rect x="936" y="0" width="104" height="200" fill="white" stroke="#333333" stroke-width="1" />
<g>
<rect x="948.0" y="30.0" width="40" height="40" fill="none" stroke="black" stroke-width="1" />
<text x="968.0" y="50.0" font-size="20" fill="red" font-family="Comic Sans MS" text-anchor="middle" dominant-baseline="central">2</text>
<rect x="988.0" y="30.0" width="40" height="40" fill="none" stroke="black" stroke-width="1" />
<text x="1008.0" y="50.0" font-size="20" fill="black" font-family="Comic Sans MS" text-anchor="middle" dominant-baseline="central">9</text>
</g>
<rect x="962.0" y="80.0" width="52.0" height="120.0" fill="#DEB887" stroke="none" />
<rect x="965.0" y="83.0" width="46.0" height="114.0" fill="white" stroke="none" />
</g>
<g>
<rect x="1040" y="0" width="104" height="200" fill="white" stroke="#333333" stroke-width="1" />
<g>
<rect x="1052.0" y="30.0" width="40" height="40" fill="none" stroke="black" stroke-width="1" />
<text x="1072.0" y="50.0" font-size="20" fill="red" font-family="Comic Sans MS" text-anchor="middle" dominant-baseline="central">2</text>
<rect x="1092.0" y="30.0" width="40" height="40" fill="none" stroke="black" stroke-width="1" />
<text x="1112.0" y="50.0" font-size="20" fill="black" font-family="Comic Sans MS" text-anchor="middle" dominant-baseline="central">A</text>
</g>
<rect x="1066.0" y="80.0" width="52.0" height="120.0" fill="#DEB887" stroke="none" />
<rect x="1069.0" y="83.0" width="46.0" height="114.0" fill="white" stroke="none" />
</g>
<g>
<rect x="1144" y="0" width="104" height="200" fill="white" stroke="#333333" stroke-width="1" />
<g>
<rect x="1156.0" y="30.0" width="40" height="40" fill="none" stroke="black" stroke-width="1" />
<text x="1176.0" y="50.0" font-size="20" fill="red" font-family="Comic Sans MS" text-anchor="middle" dominant-baseline="central">2</text>
<rect x="1196.0" y="30.0" width="40" height="40" fill="none" stroke="black" stroke-width="1" />
<text x="1216.0" y="50.0" font-size="20" fill="black" font-family="Comic Sans MS" text-anchor="middle" dominant-baseline="central">B</text>
</g>
<rect x="1170.0" y="80.0" width="52.0" height="120.0" fill="#DEB887" stroke="none" />
<rect x="1173.0" y="83.0" width="46.0" height="114.0" fill="white" stroke="none" />
</g>
<g>
<rect x="1248" y="0" width="104" height="200" fill="white" stroke="#333333" stroke-width="1" />
<g>
<rect x="1260.0" y="30.0" width="40" height="40" fill="none" stroke="black" stroke-width="1" />
<text x="1280.0" y="50.0" font-size="20" fill="red" font-family="Comic Sans MS" text-anchor="middle" dominant-baseline="central">2</text>
<rect x="1300.0" y="30.0" width="40" height="40" fill="none" stroke="black" stroke-width="1" />
<text x="1320.0" y="50.0" font-size="20" fill="black" font-family="Comic Sans MS" text-anchor="middle" dominant-baseline="central">C</text>
</g>
<rect x="1274.0" y="80.0" width="52.0" height="120.0" fill="#DEB887" stroke="none" />
<rect x="1277.0" y="83.0" width="46.0" height="114.0" fill="white" stroke="none" />
</g>
<g>
<rect x="1352" y="0" width="104" height="200" fill="white" stroke="#333333" stroke-width="1" />
<g>
<rect x="1364.0" y="30.0" width="40" height="40" fill="none" stroke="black" stroke-width="1" />
<text x="1384.0" y="50.0" font-size="20" fill="red" font-family="Comic Sans MS" text-anchor="middle" dominant-baseline="central">2</text>
<rect x="1404.0" y="30.0" width="40" height="40" fill="none" stroke="black" stroke-width="1" />
<text x="1424.0" y="50.0" font-size="20" fill="black" font-family="Comic Sans MS" text-anchor="middle" dominant-baseline="central">D</text>
</g>
<rect x="1378.0" y="80.0" width="52.0" height="120.0" fill="#DEB887" stroke="none" />
<rect x="1381.0" y="83.0" width="46.0" height="114.0" fill="white" stroke="none" />
</g>
<g>
<rect x="1456" y="0" width="104" height="200" fill="white" stroke="#333333" stroke-width="1" />
<g>
<rect x="1468.0" y="30.0" width="40" height="40" fill="none" stroke="black" stroke-width="1" />
<text x="1488.0" y="50.0" font-size="20" fill="red" font-family="Comic Sans MS" text-anchor="middle" dominant-baseline="central">2</text>
<rect x="1508.0" y="30.0" width="40" height="40" fill="none" stroke="black" stroke-width="1" />
<text x="1528.0" y="50.0" font-size="20" fill="black" font-family="Comic Sans MS" text-anchor="middle" dominant-baseline="central">E</text>
</g>
<rect x="1482.0" y="80.0" width="52.0" height="120.0" fill="#DEB887" stroke="none" />
<rect x="1485.0" y="83.0" width="46.0" height="114.0" fill="white" stroke="none" />
</g>
<g>
<rect x="1560" y="0" width="104" height="200" fill="white" stroke="#333333" stroke-width="1" />
<g>
<rect x="1572.0" y="30.0" width="40" height="40" fill="none" stroke="black" stroke-width="1" />
<text x="1592.0" y="50.0" font-size="20" fill="red" font-family="Comic Sans MS" text-anchor="middle" dominant-baseline="central">2</text>
<rect x="1612.0" y="30.0" width="40" height="40" fill="none" stroke="black" stroke-width="1" />
<text x="1632.0" y="50.0" font-size="20" fill="black" font-family="Comic Sans MS" text-anchor="middle" dominant-baseline="central">F</text>
</g>
<rect x="1586.0" y="80.0" width="52.0" height="120.0" fill="#DEB887" stroke="none" />
<rect x="1589.0" y="83.0" width="46.0" height="114.0" fill="white" stroke="none" />
</g>
</g>
</g>
</svg>