<?xml version="1.0" encoding="UTF-8"?>
<svg xmlns="http://www.w3.org/2000/svg" xmlns:xlink="http://www.w3.org/1999/xlink"
     width="298" height="610" viewBox="0 0 298 610">
<defs>
</defs>
<g>
<g>
<g>
<rect x="0" y="400" width="144" height="200" fill="white" stroke="#333333" stroke-width="1" />
<g>
<rect x="12.0" y="430.0" width="40" height="40" fill="none" stroke="black" stroke-width="1" />
<text x="32.0" y="450.0" font-size="20" fill="black" font-family="Comic Sans MS" text-anchor="middle" dominant-baseline="central"> </text>
<rect x="52.0" y="430.0" width="40" height="40" fill="none" stroke="black" stroke-width="1" />
<text x="72.0" y="450.0" font-size="20" fill="black" font-family="Comic Sans MS" text-anchor="middle" dominant-baseline="central"> </text>
<rect x="92.0" y="430.0" width="40" height="40" fill="none" stroke="black" stroke-width="1" />
<text x="112.0" y="450.0" font-size="20" fill="black" font-family="Comic Sans MS" text-anchor="middle" dominant-baseline="central">0</text>
</g>
<rect x="36.0" y="480.0" width="72.0" height="120.0" fill="#DEB887" stroke="none" />
<rect x="39.0" y="483.0" width="66.0" height="114.0" fill="white" stroke="none" />
</g>
<g>
<rect x="144" y="400" width="144" height="200" fill="white" stroke="#333333" stroke-width="1" />
<g>
<rect x="156.0" y="430.0" width="40" height="40" fill="none" stroke="black" stroke-width="1" />
<text x="176.0" y="450.0" font-size="20" fill="black" font-family="Comic Sans MS" text-anchor="middle" dominant-baseline="central"> </text>
<rect x="196.0" y="430.0" width="40" height="40" fill="none" stroke="black" stroke-width="1" />
<text x="216.0" y="450.0" font-size="20" fill="black" font-family="Comic Sans MS" text-anchor="middle" dominant-baseline="central"> </text>
<rect x="236.0" y="430.0" width="40" height="40" fill="none" stroke="black" stroke-width="1" />
<text x="256.0" y="450.0" font-size="20" fill="black" font-family="Comic Sans MS" text-anchor="middle" dominant-baseline="central">1</text>
</g>
<rect x="180.0" y="480.0" width="72.0" height="120.0" fill="#DEB887" stroke="none" />
<rect x="183.0" y="483.0" width="66.0" height="114.0" fill="white" stroke="none" />
</g>
</g>
<g>
<g>
<rect x="0" y="200" width="144" height="200" fill="white" stroke="#333333" stroke-width="1" />
<g>
<rect x="12.0" y="230.0" width="40" height="40" fill="none" stroke="black" stroke-width="1" />
<text x="32.0" y="250.0" font-size="20" fill="black" font-family="Comic Sans MS" text-anchor="middle" dominant-baseline="central"> </text>
<rect x="52.0" y="230.0" width="40" height="40" fill="none" stroke="black" stroke-width="1" />
<text x="72.0" y="250.0" font-size="20" fill="red" font-family="Comic Sans MS" text-anchor="middle" dominant-baseline="central">1</text>
<rect x="92.0" y="230.0" width="40" height="40" fill="none" stroke="black" stroke-width="1" />
<text x="112.0" y="250.0" font-size="20" fill="black" font-family="Comic Sans MS" text-anchor="middle" dominant-baseline="central">0</text>
</g>
<rect x="36.0" y="280.0" width="72.0" height="120.0" fill="#DEB887" stroke="none" />
<rect x="39.0" y="283.0" width="66.0" height="114.0" fill="white" stroke="none" />
</g>
<g>
<rect x="144" y="200" width="144" height="200" fill="white" stroke="#333333" stroke-width="1" />
<g>
<rect x="156.0" y="230.0" width="40" height="40" fill="none" stroke="black" stroke-width="1" />
<text x="176.0" y="250.0" font-size="20" fill="black" font-family="Comic Sans MS" text-anchor="middle" dominant-baseline="central"> </text>
<rect x="196.0" y="230.0" width="40" height="40" fill="none" stroke="black" stroke-width="1" />
<text x="216.0" y="250.0" font-size="20" fill="red" font-family="Comic Sans MS" text-anchor="middle" dominant-baseline="central">1</text>
<rect x="236.0" y="230.0" width="40" height="40" fill="none" stroke="black" stroke-width="1" />
<text x="256.0" y="250.0" font-size="20" fill="black" font-family="Comic Sans MS" text-anchor="middle" dominant-baseline="central">1</text>
</g>
<rect x="180.0" y="280.0" width="72.0" height="120.0" fill="#DEB887" stroke="none" />
<rect x="183.0" y="283.0" width="66.0" height="114.0" fill="white" stroke="none" />
</g>
</g>
<g>
<g>
<rect x="0" y="0" width="144" height="200" fill="white" stroke="#333333" stroke-width="1" />
<g>
<rect x="12.0" y="30.0" width="40" height="40" fill="none" stroke="black" stroke-width="1" />
<text x="32.0" y="50.0" font-size="20" fill="blue" font-family="Comic Sans MS" text-anchor="middle" dominant-baseline="central">1</text>
<rect x="52.0" y="30.0" width="40" height="40" fill="none" stroke="black" stroke-width="1" />
<text x="72.0" y="50.0" font-size="20" fill="red" font-family="Comic Sans MS" text-anchor="middle" dominant-baseline="central">0</text>
<rect x="92.0" y="30.0" width="40" height="40" fill="none" stroke="black" stroke-width="1" />
<text x="112.0" y="50.0" font-size="20" fill="black" font-family="Comic Sans MS" text-anchor="middle" dominant-baseline="central">0</text>
</g>
<rect x="36.0" y="80.0" width="72.0" height="120.0" fill="#DEB887" stroke="none" />
<rect x="39.0" y="83.0" width="66.0" height="114.0" fill="white" stroke="none" />
</g>
<g>
<rect x="144" y="0" width="144" height="200" fill="white" stroke="#333333" stroke-width="1" />
<g>
<rect x="156.0" y="30.0" width="40" height="40" fill="none" stroke="black" stroke-width="1" />
<text x="176.0" y="50.0" font-size="20" fill="blue" font-family="Comic Sans MS" text-anchor="middle" dominant-baseline="central">1</text>
<rect x="196.0" y="30.0" width="40" height="40" fill="none" stroke="black" stroke-width="1" />
<text x="216.0" y="50.0" font-size="20" fill="red" font-family="Comic Sans MS" text-anchor="middle" dominant-baseline="central">0</text>
<rect x="236.0" y="30.0" width="40" height="40" fill="none" stroke="black" stroke-width="1" />
<text x="256.0" y="50.0" font-size="20" fill="black" font-family="Comic Sans MS" text-anchor="middle" dominant-baseline="central">1</text>
</g>
<rect x="180.0" y="80.0" width="72.0" height="120.0" fill="#DEB887" stroke="none" />
<rect x="183.0" y="83.0" width="66.0" height="114.0" fill="white" stroke="none" />
</g>
</g>
</g>
</svg>