<svg width="614.0" height="280.0" xmlns="http://www.w3.org/2000/svg" xmlns:xlink="http://www.w3.org/1999/xlink">
<svg x="0.0" y="0.0" width="280.0" height="280.0" viewBox="0 0 280 280" xmlns="http://www.w3.org/2000/svg" xmlns:xlink="http://www.w3.org/1999/xlink">
<defs>
</defs>
<g>
<rect x="50" y="30" width="200" height="200" fill="mediumpurple" opacity="0.25" />
<path d="M90,230 L90,30" stroke="#999" stroke-width="0.5" />
<path d="M130,230 L130,30" stroke="#999" stroke-width="0.5" />
<path d="M170,230 L170,30" stroke="#999" stroke-width="0.5" />
<path d="M210,230 L210,30" stroke="#999" stroke-width="0.5" />
<path d="M50,190 L250,190" stroke="#999" stroke-width="0.5" />
<path d="M50,150 L250,150" stroke="#999" stroke-width="0.5" />
<path d="M50,110 L250,110" stroke="#999" stroke-width="0.5" />
<path d="M50,70 L250,70" stroke="#999" stroke-width="0.5" />
<rect x="50" y="30" width="200" height="200" fill="none" stroke="black" stroke-width="1.5" />
<text x="150.0" y="250" font-size="14" text-anchor="middle" dominant-baseline="auto" font-family="sans-serif" fill="black" font-style="normal">5</text>
<text x="30" y="130.0" font-size="14" text-anchor="middle" dominant-baseline="central" font-family="sans-serif" fill="black" font-style="normal">5</text>
</g>
</svg>
<text x="307.0" y="140.0" font-size="40" text-anchor="middle" dominant-baseline="central" font-family="sans-serif">=</text>
<svg x="334.0" y="0.0" width="280.0" height="280.0" viewBox="0 0 280 280" xmlns="http://www.w3.org/2000/svg" xmlns:xlink="http://www.w3.org/1999/xlink">
<defs>
</defs>
<g>
<rect x="50" y="30" width="200" height="200" fill="white" opacity="0.25" />
<rect x="50" y="190" width="40" height="40" fill="orange" opacity="0.35" />
<rect x="50" y="150" width="40" height="40" fill="orange" opacity="0.35" />
<rect x="50" y="110" width="40" height="40" fill="orange" opacity="0.35" />
<rect x="50" y="70" width="40" height="40" fill="orange" opacity="0.35" />
<rect x="90" y="190" width="40" height="40" fill="orange" opacity="0.35" />
<rect x="90" y="150" width="40" height="40" fill="orange" opacity="0.35" />
<rect x="90" y="110" width="40" height="40" fill="orange" opacity="0.35" />
<rect x="90" y="70" width="40" height="40" fill="orange" opacity="0.35" />
<rect x="130" y="190" width="40" height="40" fill="orange" opacity="0.35" />
<rect x="130" y="150" width="40" height="40" fill="orange" opacity="0.35" />
<rect x="130" y="110" width="40" height="40" fill="orange" opacity="0.35" />
<rect x="130" y="70" width="40" height="40" fill="orange" opacity="0.35" />
<rect x="170" y="190" width="40" height="40" fill="orange" opacity="0.35" />
<rect x="170" y="150" width="40" height="40" fill="orange" opacity="0.35" />
<rect x="170" y="110" width="40" height="40" fill="orange" opacity="0.35" />
<rect x="170" y="70" width="40" height="40" fill="orange" opacity="0.35" />
<rect x="210" y="190" width="40" height="40" fill="skyblue" opacity="0.35" />
<rect x="210" y="150" width="40" height="40" fill="skyblue" opacity="0.35" />
<rect x="210" y="110" width="40" height="40" fill="skyblue" opacity="0.35" />
<rect x="210" y="70" width="40" height="40" fill="skyblue" opacity="0.35" />
<rect x="210" y="30" width="40" height="40" fill="skyblue" opacity="0.35" />
<rect x="50" y="30" width="40" height="40" fill="skyblue" opacity="0.35" />
<rect x="90" y="30" width="40" height="40" fill="skyblue" opacity="0.35" />
<rect x="130" y="30" width="40" height="40" fill="skyblue" opacity="0.35" />
<rect x="170" y="30" width="40" height="40" fill="skyblue" opacity="0.35" />
<path d="M90,230 L90,30" stroke="#999" stroke-width="0.5" />
<path d="M130,230 L130,30" stroke="#999" stroke-width="0.5" />
<path d="M170,230 L170,30" stroke="#999" stroke-width="0.5" />
<path d="M210,230 L210,30" stroke="#999" stroke-width="0.5" />
<path d="M50,190 L250,190" stroke="#999" stroke-width="0.5" />
<path d="M50,150 L250,150" stroke="#999" stroke-width="0.5" />
<path d="M50,110 L250,110" stroke="#999" stroke-width="0.5" />
<path d="M50,70 L250,70" stroke="#999" stroke-width="0.5" />
<rect x="50" y="30" width="200" height="200" fill="none" stroke="black" stroke-width="1.5" />
<text x="150.0" y="250" font-size="14" text-anchor="middle" dominant-baseline="auto" font-family="sans-serif" fill="black" font-style="normal">5</text>
<text x="30" y="130.0" font-size="14" text-anchor="middle" dominant-baseline="central" font-family="sans-serif" fill="black" font-style="normal">5</text>
</g>
</svg>
</svg>