<svg width="1045.0" height="240.0" xmlns="http://www.w3.org/2000/svg" xmlns:xlink="http://www.w3.org/1999/xlink">
<svg x="0.0" y="20.0" width="240.0" height="200.0" viewBox="0 0 240.0 200.0" xmlns="http://www.w3.org/2000/svg" xmlns:xlink="http://www.w3.org/1999/xlink">
<defs>
</defs>
<g>
<path d="M50.0,150.0 L210.0,150.0 L50.0,30.0 Z" fill="none" stroke="black" stroke-width="1.7999999999999998" />
<path d="M60.0,150.0 L60.0,140.0 L50.0,140.0" fill="none" stroke="black" stroke-width="1.5" />
<text x="130.0" y="170.0" font-size="14" text-anchor="middle" dominant-baseline="auto" font-family="sans-serif" fill="black" font-style="normal">4</text>
<text x="30.0" y="90.0" font-size="14" text-anchor="middle" dominant-baseline="central" font-family="sans-serif" fill="black" font-style="normal">3</text>
</g>
</svg>
<svg x="255.0" y="0.0" width="280.0" height="240.0" viewBox="0 0 280.0 240.0" xmlns="http://www.w3.org/2000/svg" xmlns:xlink="http://www.w3.org/1999/xlink">
<defs>
</defs>
<g>
<path d="M50.0,190.0 L250.0,190.0 L50.0,30.0 Z" fill="none" stroke="black" stroke-width="1.7999999999999998" />
<path d="M60.0,190.0 L60.0,180.0 L50.0,180.0" fill="none" stroke="black" stroke-width="1.5" />
<text x="150.0" y="210.0" font-size="14" text-anchor="middle" dominant-baseline="auto" font-family="sans-serif" fill="black" font-style="normal">5</text>
<text x="30.0" y="110.0" font-size="14" text-anchor="middle" dominant-baseline="central" font-family="sans-serif" fill="black" font-style="normal">4</text>
</g>
</svg>
<svg x="550.0" y="40.0" width="200.0" height="160.0" viewBox="0 0 200.0 160.0" xmlns="http://www.w3.org/2000/svg" xmlns:xlink="http://www.w3.org/1999/xlink">
<defs>
</defs>
<g>
<path d="M50.0,110.0 L170.0,110.0 L50.0,30.0 Z" fill="none" stroke="black" stroke-width="1.7999999999999998" />
<path d="M60.0,110.0 L60.0,100.0 L50.0,100.0" fill="none" stroke="black" stroke-width="1.5" />
<text x="110.0" y="130.0" font-size="14" text-anchor="middle" dominant-baseline="auto" font-family="sans-serif" fill="black" font-style="normal">3</text>
<text x="30.0" y="70.0" font-size="14" text-anchor="middle" dominant-baseline="central" font-family="sans-serif" fill="black" font-style="normal">2</text>
</g>
</svg>
<svg x="765.0" y="0.0" width="280.0" height="240.0" viewBox="0 0 280.0 240.0" xmlns="http://www.w3.org/2000/svg" xmlns:xlink="http://www.w3.org/1999/xlink">
<defs>
</defs>
<g>
<path d="M50.0,190.0 L250.0,190.0 L50.0,30.0 Z" fill="none" stroke="black" stroke-width="1.7999999999999998" />
<path d="M60.0,190.0 L60.0,180.0 L50.0,180.0" fill="none" stroke="black" stroke-width="1.5" />
<text x="150.0" y="210.0" font-size="14" text-anchor="middle" dominant-baseline="auto" font-family="sans-serif" fill="black" font-style="normal">5</text>
<text x="30.0" y="110.0" font-size="14" text-anchor="middle" dominant-baseline="central" font-family="sans-serif" fill="black" font-style="normal">4</text>
</g>
</svg>
</svg>