<?xml version="1.0" encoding="UTF-8"?>
<svg xmlns="http://www.w3.org/2000/svg" xmlns:xlink="http://www.w3.org/1999/xlink"
     width="820" height="460" viewBox="0 0 820 460">
<defs>
</defs>
<g>
<g transform="translate(0,50)">
<g>
<g>
<rect x="0" y="200" width="80" height="200" fill="white" stroke="#333333" stroke-width="1" />
<g>
<rect x="20.0" y="230.0" width="40" height="40" fill="none" stroke="black" stroke-width="1" />
<text x="40.0" y="250.0" font-size="20" fill="black" font-family="Comic Sans MS" text-anchor="middle" dominant-baseline="central">0</text>
</g>
<rect x="20.0" y="280.0" width="40.0" height="120.0" fill="#6B4226" stroke="#4A2E14" stroke-width="1.5" />
<rect x="23.0" y="283.0" width="34.0" height="114.0" fill="#DEB887" stroke="none" />
<rect x="26.4" y="287.56" width="27.2" height="50.16" fill="#C9A96E" stroke="#A08050" stroke-width="1" rx="2" ry="2" />
<rect x="26.4" y="342.28" width="27.2" height="50.16" fill="#C9A96E" stroke="#A08050" stroke-width="1" rx="2" ry="2" />
<circle cx="49.6" cy="340.0" r="2" fill="#DAA520" stroke="#B8860B" stroke-width="1" />
<circle cx="49.2" cy="339.6" r="0.6" fill="#FFE4B5" stroke="none" />
</g>
<g>
<rect x="80" y="200" width="80" height="200" fill="white" stroke="#333333" stroke-width="1" />
<g>
<rect x="100.0" y="230.0" width="40" height="40" fill="none" stroke="black" stroke-width="1" />
<text x="120.0" y="250.0" font-size="20" fill="black" font-family="Comic Sans MS" text-anchor="middle" dominant-baseline="central">1</text>
</g>
<rect x="100.0" y="280.0" width="40.0" height="120.0" fill="#6B4226" stroke="#4A2E14" stroke-width="1.5" />
<rect x="103.0" y="283.0" width="34.0" height="114.0" fill="#DEB887" stroke="none" />
<rect x="106.4" y="287.56" width="27.2" height="50.16" fill="#C9A96E" stroke="#A08050" stroke-width="1" rx="2" ry="2" />
<rect x="106.4" y="342.28" width="27.2" height="50.16" fill="#C9A96E" stroke="#A08050" stroke-width="1" rx="2" ry="2" />
<circle cx="129.6" cy="340.0" r="2" fill="#DAA520" stroke="#B8860B" stroke-width="1" />
<circle cx="129.2" cy="339.6" r="0.6" fill="#FFE4B5" stroke="none" />
</g>
<g>
<rect x="160" y="200" width="80" height="200" fill="white" stroke="#333333" stroke-width="1" />
<g>
<rect x="180.0" y="230.0" width="40" height="40" fill="none" stroke="black" stroke-width="1" />
<text x="200.0" y="250.0" font-size="20" fill="black" font-family="Comic Sans MS" text-anchor="middle" dominant-baseline="central">2</text>
</g>
<rect x="180.0" y="280.0" width="40.0" height="120.0" fill="#6B4226" stroke="#4A2E14" stroke-width="1.5" />
<rect x="183.0" y="283.0" width="34.0" height="114.0" fill="#DEB887" stroke="none" />
<rect x="186.4" y="287.56" width="27.2" height="50.16" fill="#C9A96E" stroke="#A08050" stroke-width="1" rx="2" ry="2" />
<rect x="186.4" y="342.28" width="27.2" height="50.16" fill="#C9A96E" stroke="#A08050" stroke-width="1" rx="2" ry="2" />
<circle cx="209.6" cy="340.0" r="2" fill="#DAA520" stroke="#B8860B" stroke-width="1" />
<circle cx="209.2" cy="339.6" r="0.6" fill="#FFE4B5" stroke="none" />
</g>
<g>
<rect x="240" y="200" width="80" height="200" fill="white" stroke="#333333" stroke-width="1" />
<g>
<rect x="260.0" y="230.0" width="40" height="40" fill="none" stroke="black" stroke-width="1" />
<text x="280.0" y="250.0" font-size="20" fill="black" font-family="Comic Sans MS" text-anchor="middle" dominant-baseline="central">3</text>
</g>
<rect x="260.0" y="280.0" width="40.0" height="120.0" fill="#6B4226" stroke="#4A2E14" stroke-width="1.5" />
<rect x="263.0" y="283.0" width="34.0" height="114.0" fill="#DEB887" stroke="none" />
<rect x="266.4" y="287.56" width="27.2" height="50.16" fill="#C9A96E" stroke="#A08050" stroke-width="1" rx="2" ry="2" />
<rect x="266.4" y="342.28" width="27.2" height="50.16" fill="#C9A96E" stroke="#A08050" stroke-width="1" rx="2" ry="2" />
<circle cx="289.6" cy="340.0" r="2" fill="#DAA520" stroke="#B8860B" stroke-width="1" />
<circle cx="289.20000000000005" cy="339.6" r="0.6" fill="#FFE4B5" stroke="none" />
</g>
<g>
<rect x="320" y="200" width="80" height="200" fill="white" stroke="#333333" stroke-width="1" />
<g>
<rect x="340.0" y="230.0" width="40" height="40" fill="none" stroke="black" stroke-width="1" />
<text x="360.0" y="250.0" font-size="20" fill="black" font-family="Comic Sans MS" text-anchor="middle" dominant-baseline="central">4</text>
</g>
<rect x="340.0" y="280.0" width="40.0" height="120.0" fill="#6B4226" stroke="#4A2E14" stroke-width="1.5" />
<rect x="343.0" y="283.0" width="34.0" height="114.0" fill="#DEB887" stroke="none" />
<rect x="346.4" y="287.56" width="27.2" height="50.16" fill="#C9A96E" stroke="#A08050" stroke-width="1" rx="2" ry="2" />
<rect x="346.4" y="342.28" width="27.2" height="50.16" fill="#C9A96E" stroke="#A08050" stroke-width="1" rx="2" ry="2" />
<circle cx="369.6" cy="340.0" r="2" fill="#DAA520" stroke="#B8860B" stroke-width="1" />
<circle cx="369.20000000000005" cy="339.6" r="0.6" fill="#FFE4B5" stroke="none" />
</g>
<g>
<rect x="400" y="200" width="80" height="200" fill="white" stroke="#333333" stroke-width="1" />
<g>
<rect x="420.0" y="230.0" width="40" height="40" fill="none" stroke="black" stroke-width="1" />
<text x="440.0" y="250.0" font-size="20" fill="black" font-family="Comic Sans MS" text-anchor="middle" dominant-baseline="central">5</text>
</g>
<rect x="420.0" y="280.0" width="40.0" height="120.0" fill="#6B4226" stroke="#4A2E14" stroke-width="1.5" />
<rect x="423.0" y="283.0" width="34.0" height="114.0" fill="#DEB887" stroke="none" />
<rect x="426.4" y="287.56" width="27.2" height="50.16" fill="#C9A96E" stroke="#A08050" stroke-width="1" rx="2" ry="2" />
<rect x="426.4" y="342.28" width="27.2" height="50.16" fill="#C9A96E" stroke="#A08050" stroke-width="1" rx="2" ry="2" />
<circle cx="449.6" cy="340.0" r="2" fill="#DAA520" stroke="#B8860B" stroke-width="1" />
<circle cx="449.20000000000005" cy="339.6" r="0.6" fill="#FFE4B5" stroke="none" />
</g>
<g>
<rect x="480" y="200" width="80" height="200" fill="white" stroke="#333333" stroke-width="1" />
<g>
<rect x="500.0" y="230.0" width="40" height="40" fill="none" stroke="black" stroke-width="1" />
<text x="520.0" y="250.0" font-size="20" fill="black" font-family="Comic Sans MS" text-anchor="middle" dominant-baseline="central">6</text>
</g>
<rect x="500.0" y="280.0" width="40.0" height="120.0" fill="#6B4226" stroke="#4A2E14" stroke-width="1.5" />
<rect x="503.0" y="283.0" width="34.0" height="114.0" fill="#DEB887" stroke="none" />
<rect x="506.4" y="287.56" width="27.2" height="50.16" fill="#C9A96E" stroke="#A08050" stroke-width="1" rx="2" ry="2" />
<rect x="506.4" y="342.28" width="27.2" height="50.16" fill="#C9A96E" stroke="#A08050" stroke-width="1" rx="2" ry="2" />
<circle cx="529.6" cy="340.0" r="2" fill="#DAA520" stroke="#B8860B" stroke-width="1" />
<circle cx="529.2" cy="339.6" r="0.6" fill="#FFE4B5" stroke="none" />
</g>
<g>
<rect x="560" y="200" width="80" height="200" fill="white" stroke="#333333" stroke-width="1" />
<g>
<rect x="580.0" y="230.0" width="40" height="40" fill="none" stroke="black" stroke-width="1" />
<text x="600.0" y="250.0" font-size="20" fill="black" font-family="Comic Sans MS" text-anchor="middle" dominant-baseline="central">7</text>
</g>
<rect x="580.0" y="280.0" width="40.0" height="120.0" fill="#6B4226" stroke="#4A2E14" stroke-width="1.5" />
<rect x="583.0" y="283.0" width="34.0" height="114.0" fill="#DEB887" stroke="none" />
<rect x="586.4" y="287.56" width="27.2" height="50.16" fill="#C9A96E" stroke="#A08050" stroke-width="1" rx="2" ry="2" />
<rect x="586.4" y="342.28" width="27.2" height="50.16" fill="#C9A96E" stroke="#A08050" stroke-width="1" rx="2" ry="2" />
<circle cx="609.6" cy="340.0" r="2" fill="#DAA520" stroke="#B8860B" stroke-width="1" />
<circle cx="609.2" cy="339.6" r="0.6" fill="#FFE4B5" stroke="none" />
</g>
<g>
<rect x="640" y="200" width="80" height="200" fill="white" stroke="#333333" stroke-width="1" />
<g>
<rect x="660.0" y="230.0" width="40" height="40" fill="none" stroke="black" stroke-width="1" />
<text x="680.0" y="250.0" font-size="20" fill="black" font-family="Comic Sans MS" text-anchor="middle" dominant-baseline="central">8</text>
</g>
<rect x="660.0" y="280.0" width="40.0" height="120.0" fill="#6B4226" stroke="#4A2E14" stroke-width="1.5" />
<rect x="663.0" y="283.0" width="34.0" height="114.0" fill="#DEB887" stroke="none" />
<rect x="666.4" y="287.56" width="27.2" height="50.16" fill="#C9A96E" stroke="#A08050" stroke-width="1" rx="2" ry="2" />
<rect x="666.4" y="342.28" width="27.2" height="50.16" fill="#C9A96E" stroke="#A08050" stroke-width="1" rx="2" ry="2" />
<circle cx="689.6" cy="340.0" r="2" fill="#DAA520" stroke="#B8860B" stroke-width="1" />
<circle cx="689.2" cy="339.6" r="0.6" fill="#FFE4B5" stroke="none" />
</g>
<g>
<rect x="720" y="200" width="80" height="200" fill="white" stroke="#333333" stroke-width="1" />
<g>
<rect x="740.0" y="230.0" width="40" height="40" fill="none" stroke="black" stroke-width="1" />
<text x="760.0" y="250.0" font-size="20" fill="black" font-family="Comic Sans MS" text-anchor="middle" dominant-baseline="central">9</text>
</g>
<rect x="740.0" y="280.0" width="40.0" height="120.0" fill="#6B4226" stroke="#4A2E14" stroke-width="1.5" />
<rect x="743.0" y="283.0" width="34.0" height="114.0" fill="#DEB887" stroke="none" />
<rect x="746.4" y="287.56" width="27.2" height="50.16" fill="#C9A96E" stroke="#A08050" stroke-width="1" rx="2" ry="2" />
<rect x="746.4" y="342.28" width="27.2" height="50.16" fill="#C9A96E" stroke="#A08050" stroke-width="1" rx="2" ry="2" />
<circle cx="769.6" cy="340.0" r="2" fill="#DAA520" stroke="#B8860B" stroke-width="1" />
<circle cx="769.2" cy="339.6" r="0.6" fill="#FFE4B5" stroke="none" />
</g>
</g>
<g>
<g>
<rect x="0" y="0" width="80" height="200" fill="white" stroke="#333333" stroke-width="1" />
<g>
<rect x="20.0" y="30.0" width="40" height="40" fill="none" stroke="black" stroke-width="1" />
<text x="40.0" y="50.0" font-size="20" fill="black" font-family="Comic Sans MS" text-anchor="middle" dominant-baseline="central">0</text>
</g>
<rect x="20.0" y="80.0" width="40.0" height="120.0" fill="#6B4226" stroke="#4A2E14" stroke-width="1.5" />
<rect x="23.0" y="83.0" width="34.0" height="114.0" fill="#DEB887" stroke="none" />
<rect x="26.4" y="87.56" width="27.2" height="50.16" fill="#C9A96E" stroke="#A08050" stroke-width="1" rx="2" ry="2" />
<rect x="26.4" y="142.28" width="27.2" height="50.16" fill="#C9A96E" stroke="#A08050" stroke-width="1" rx="2" ry="2" />
<circle cx="49.6" cy="140.0" r="2" fill="#DAA520" stroke="#B8860B" stroke-width="1" />
<circle cx="49.2" cy="139.6" r="0.6" fill="#FFE4B5" stroke="none" />
</g>
<g>
<rect x="80" y="0" width="80" height="200" fill="white" stroke="#333333" stroke-width="1" />
<g>
<rect x="100.0" y="30.0" width="40" height="40" fill="none" stroke="black" stroke-width="1" />
<text x="120.0" y="50.0" font-size="20" fill="black" font-family="Comic Sans MS" text-anchor="middle" dominant-baseline="central">1</text>
</g>
<rect x="100.0" y="80.0" width="40.0" height="120.0" fill="#6B4226" stroke="#4A2E14" stroke-width="1.5" />
<rect x="103.0" y="83.0" width="34.0" height="114.0" fill="#DEB887" stroke="none" />
<rect x="106.4" y="87.56" width="27.2" height="50.16" fill="#C9A96E" stroke="#A08050" stroke-width="1" rx="2" ry="2" />
<rect x="106.4" y="142.28" width="27.2" height="50.16" fill="#C9A96E" stroke="#A08050" stroke-width="1" rx="2" ry="2" />
<circle cx="129.6" cy="140.0" r="2" fill="#DAA520" stroke="#B8860B" stroke-width="1" />
<circle cx="129.2" cy="139.6" r="0.6" fill="#FFE4B5" stroke="none" />
</g>
<g>
<rect x="160" y="0" width="80" height="200" fill="white" stroke="#333333" stroke-width="1" />
<g>
<rect x="180.0" y="30.0" width="40" height="40" fill="none" stroke="black" stroke-width="1" />
<text x="200.0" y="50.0" font-size="20" fill="black" font-family="Comic Sans MS" text-anchor="middle" dominant-baseline="central">2</text>
</g>
<rect x="180.0" y="80.0" width="40.0" height="120.0" fill="#6B4226" stroke="#4A2E14" stroke-width="1.5" />
<rect x="183.0" y="83.0" width="34.0" height="114.0" fill="#DEB887" stroke="none" />
<rect x="186.4" y="87.56" width="27.2" height="50.16" fill="#C9A96E" stroke="#A08050" stroke-width="1" rx="2" ry="2" />
<rect x="186.4" y="142.28" width="27.2" height="50.16" fill="#C9A96E" stroke="#A08050" stroke-width="1" rx="2" ry="2" />
<circle cx="209.6" cy="140.0" r="2" fill="#DAA520" stroke="#B8860B" stroke-width="1" />
<circle cx="209.2" cy="139.6" r="0.6" fill="#FFE4B5" stroke="none" />
</g>
<g>
<rect x="240" y="0" width="80" height="200" fill="white" stroke="#333333" stroke-width="1" />
<g>
<rect x="260.0" y="30.0" width="40" height="40" fill="none" stroke="black" stroke-width="1" />
<text x="280.0" y="50.0" font-size="20" fill="black" font-family="Comic Sans MS" text-anchor="middle" dominant-baseline="central">3</text>
</g>
<rect x="260.0" y="80.0" width="40.0" height="120.0" fill="#6B4226" stroke="#4A2E14" stroke-width="1.5" />
<rect x="263.0" y="83.0" width="34.0" height="114.0" fill="#DEB887" stroke="none" />
<rect x="266.4" y="87.56" width="27.2" height="50.16" fill="#C9A96E" stroke="#A08050" stroke-width="1" rx="2" ry="2" />
<rect x="266.4" y="142.28" width="27.2" height="50.16" fill="#C9A96E" stroke="#A08050" stroke-width="1" rx="2" ry="2" />
<circle cx="289.6" cy="140.0" r="2" fill="#DAA520" stroke="#B8860B" stroke-width="1" />
<circle cx="289.20000000000005" cy="139.6" r="0.6" fill="#FFE4B5" stroke="none" />
</g>
<g>
<rect x="320" y="0" width="80" height="200" fill="white" stroke="#333333" stroke-width="1" />
<g>
<rect x="340.0" y="30.0" width="40" height="40" fill="none" stroke="black" stroke-width="1" />
<text x="360.0" y="50.0" font-size="20" fill="black" font-family="Comic Sans MS" text-anchor="middle" dominant-baseline="central">4</text>
</g>
<rect x="340.0" y="80.0" width="40.0" height="120.0" fill="#6B4226" stroke="#4A2E14" stroke-width="1.5" />
<rect x="343.0" y="83.0" width="34.0" height="114.0" fill="#DEB887" stroke="none" />
<rect x="346.4" y="87.56" width="27.2" height="50.16" fill="#C9A96E" stroke="#A08050" stroke-width="1" rx="2" ry="2" />
<rect x="346.4" y="142.28" width="27.2" height="50.16" fill="#C9A96E" stroke="#A08050" stroke-width="1" rx="2" ry="2" />
<circle cx="369.6" cy="140.0" r="2" fill="#DAA520" stroke="#B8860B" stroke-width="1" />
<circle cx="369.20000000000005" cy="139.6" r="0.6" fill="#FFE4B5" stroke="none" />
</g>
<g>
<rect x="400" y="0" width="80" height="200" fill="white" stroke="#333333" stroke-width="1" />
<g>
<rect x="420.0" y="30.0" width="40" height="40" fill="none" stroke="black" stroke-width="1" />
<text x="440.0" y="50.0" font-size="20" fill="black" font-family="Comic Sans MS" text-anchor="middle" dominant-baseline="central">5</text>
</g>
<rect x="420.0" y="80.0" width="40.0" height="120.0" fill="#6B4226" stroke="#4A2E14" stroke-width="1.5" />
<rect x="423.0" y="83.0" width="34.0" height="114.0" fill="#DEB887" stroke="none" />
<rect x="426.4" y="87.56" width="27.2" height="50.16" fill="#C9A96E" stroke="#A08050" stroke-width="1" rx="2" ry="2" />
<rect x="426.4" y="142.28" width="27.2" height="50.16" fill="#C9A96E" stroke="#A08050" stroke-width="1" rx="2" ry="2" />
<circle cx="449.6" cy="140.0" r="2" fill="#DAA520" stroke="#B8860B" stroke-width="1" />
<circle cx="449.20000000000005" cy="139.6" r="0.6" fill="#FFE4B5" stroke="none" />
</g>
<g>
<rect x="480" y="0" width="80" height="200" fill="white" stroke="#333333" stroke-width="1" />
<g>
<rect x="500.0" y="30.0" width="40" height="40" fill="none" stroke="black" stroke-width="1" />
<text x="520.0" y="50.0" font-size="20" fill="black" font-family="Comic Sans MS" text-anchor="middle" dominant-baseline="central">6</text>
</g>
<rect x="500.0" y="80.0" width="40.0" height="120.0" fill="#6B4226" stroke="#4A2E14" stroke-width="1.5" />
<rect x="503.0" y="83.0" width="34.0" height="114.0" fill="#DEB887" stroke="none" />
<rect x="506.4" y="87.56" width="27.2" height="50.16" fill="#C9A96E" stroke="#A08050" stroke-width="1" rx="2" ry="2" />
<rect x="506.4" y="142.28" width="27.2" height="50.16" fill="#C9A96E" stroke="#A08050" stroke-width="1" rx="2" ry="2" />
<circle cx="529.6" cy="140.0" r="2" fill="#DAA520" stroke="#B8860B" stroke-width="1" />
<circle cx="529.2" cy="139.6" r="0.6" fill="#FFE4B5" stroke="none" />
</g>
<g>
<rect x="560" y="0" width="80" height="200" fill="white" stroke="#333333" stroke-width="1" />
<g>
<rect x="580.0" y="30.0" width="40" height="40" fill="none" stroke="black" stroke-width="1" />
<text x="600.0" y="50.0" font-size="20" fill="black" font-family="Comic Sans MS" text-anchor="middle" dominant-baseline="central">7</text>
</g>
<rect x="580.0" y="80.0" width="40.0" height="120.0" fill="#6B4226" stroke="#4A2E14" stroke-width="1.5" />
<rect x="583.0" y="83.0" width="34.0" height="114.0" fill="#DEB887" stroke="none" />
<rect x="586.4" y="87.56" width="27.2" height="50.16" fill="#C9A96E" stroke="#A08050" stroke-width="1" rx="2" ry="2" />
<rect x="586.4" y="142.28" width="27.2" height="50.16" fill="#C9A96E" stroke="#A08050" stroke-width="1" rx="2" ry="2" />
<circle cx="609.6" cy="140.0" r="2" fill="#DAA520" stroke="#B8860B" stroke-width="1" />
<circle cx="609.2" cy="139.6" r="0.6" fill="#FFE4B5" stroke="none" />
</g>
<g>
<rect x="640" y="0" width="80" height="200" fill="white" stroke="#333333" stroke-width="1" />
<g>
<rect x="660.0" y="30.0" width="40" height="40" fill="none" stroke="black" stroke-width="1" />
<text x="680.0" y="50.0" font-size="20" fill="black" font-family="Comic Sans MS" text-anchor="middle" dominant-baseline="central">8</text>
</g>
<rect x="660.0" y="80.0" width="40.0" height="120.0" fill="#6B4226" stroke="#4A2E14" stroke-width="1.5" />
<rect x="663.0" y="83.0" width="34.0" height="114.0" fill="#DEB887" stroke="none" />
<rect x="666.4" y="87.56" width="27.2" height="50.16" fill="#C9A96E" stroke="#A08050" stroke-width="1" rx="2" ry="2" />
<rect x="666.4" y="142.28" width="27.2" height="50.16" fill="#C9A96E" stroke="#A08050" stroke-width="1" rx="2" ry="2" />
<circle cx="689.6" cy="140.0" r="2" fill="#DAA520" stroke="#B8860B" stroke-width="1" />
<circle cx="689.2" cy="139.6" r="0.6" fill="#FFE4B5" stroke="none" />
</g>
<g>
<rect x="720" y="0" width="80" height="200" fill="white" stroke="#333333" stroke-width="1" />
<g>
<rect x="740.0" y="30.0" width="40" height="40" fill="none" stroke="black" stroke-width="1" />
<text x="760.0" y="50.0" font-size="20" fill="black" font-family="Comic Sans MS" text-anchor="middle" dominant-baseline="central">9</text>
</g>
<rect x="740.0" y="80.0" width="40.0" height="120.0" fill="#6B4226" stroke="#4A2E14" stroke-width="1.5" />
<rect x="743.0" y="83.0" width="34.0" height="114.0" fill="#DEB887" stroke="none" />
<rect x="746.4" y="87.56" width="27.2" height="50.16" fill="#C9A96E" stroke="#A08050" stroke-width="1" rx="2" ry="2" />
<rect x="746.4" y="142.28" width="27.2" height="50.16" fill="#C9A96E" stroke="#A08050" stroke-width="1" rx="2" ry="2" />
<circle cx="769.6" cy="140.0" r="2" fill="#DAA520" stroke="#B8860B" stroke-width="1" />
<circle cx="769.2" cy="139.6" r="0.6" fill="#FFE4B5" stroke="none" />
</g>
</g>
</g>
<path d="M-10,50 L400.0,3 L810,50 Z" fill="#CC4444" stroke="#8B0000" stroke-width="2" />
</g>
</svg>