<svg width="822.0" height="48.0" xmlns="http://www.w3.org/2000/svg" xmlns:xlink="http://www.w3.org/1999/xlink">
<svg x="0.0" y="0.0" width="168.0" height="48.0" viewBox="0 0 168 48" xmlns="http://www.w3.org/2000/svg" xmlns:xlink="http://www.w3.org/1999/xlink">
<defs>
</defs>
<g>
<rect x="4" y="4" width="40" height="40" fill="none" stroke="black" stroke-width="1" />
<text x="24.0" y="24.0" font-size="20" fill="green" font-family="Comic Sans MS" text-anchor="middle" dominant-baseline="central">3</text>
<rect x="44" y="4" width="40" height="40" fill="none" stroke="black" stroke-width="1" />
<text x="64.0" y="24.0" font-size="20" fill="black" font-family="Comic Sans MS" text-anchor="middle" dominant-baseline="central">0</text>
<rect x="84" y="4" width="40" height="40" fill="none" stroke="black" stroke-width="1" />
<text x="104.0" y="24.0" font-size="20" fill="black" font-family="Comic Sans MS" text-anchor="middle" dominant-baseline="central">0</text>
<rect x="124" y="4" width="40" height="40" fill="none" stroke="black" stroke-width="1" />
<text x="144.0" y="24.0" font-size="20" fill="black" font-family="Comic Sans MS" text-anchor="middle" dominant-baseline="central">0</text>
</g>
</svg>
<svg x="218.0" y="0.0" width="168.0" height="48.0" viewBox="0 0 168 48" xmlns="http://www.w3.org/2000/svg" xmlns:xlink="http://www.w3.org/1999/xlink">
<defs>
</defs>
<g>
<rect x="4" y="4" width="40" height="40" fill="none" stroke="black" stroke-width="1" />
<text x="24.0" y="24.0" font-size="20" fill="black" font-family="Comic Sans MS" text-anchor="middle" dominant-baseline="central"> </text>
<rect x="44" y="4" width="40" height="40" fill="none" stroke="black" stroke-width="1" />
<text x="64.0" y="24.0" font-size="20" fill="blue" font-family="Comic Sans MS" text-anchor="middle" dominant-baseline="central">3</text>
<rect x="84" y="4" width="40" height="40" fill="none" stroke="black" stroke-width="1" />
<text x="104.0" y="24.0" font-size="20" fill="black" font-family="Comic Sans MS" text-anchor="middle" dominant-baseline="central">0</text>
<rect x="124" y="4" width="40" height="40" fill="none" stroke="black" stroke-width="1" />
<text x="144.0" y="24.0" font-size="20" fill="black" font-family="Comic Sans MS" text-anchor="middle" dominant-baseline="central">0</text>
</g>
</svg>
<svg x="436.0" y="0.0" width="168.0" height="48.0" viewBox="0 0 168 48" xmlns="http://www.w3.org/2000/svg" xmlns:xlink="http://www.w3.org/1999/xlink">
<defs>
</defs>
<g>
<rect x="4" y="4" width="40" height="40" fill="none" stroke="black" stroke-width="1" />
<text x="24.0" y="24.0" font-size="20" fill="black" font-family="Comic Sans MS" text-anchor="middle" dominant-baseline="central"> </text>
<rect x="44" y="4" width="40" height="40" fill="none" stroke="black" stroke-width="1" />
<text x="64.0" y="24.0" font-size="20" fill="black" font-family="Comic Sans MS" text-anchor="middle" dominant-baseline="central"> </text>
<rect x="84" y="4" width="40" height="40" fill="none" stroke="black" stroke-width="1" />
<text x="104.0" y="24.0" font-size="20" fill="red" font-family="Comic Sans MS" text-anchor="middle" dominant-baseline="central">3</text>
<rect x="124" y="4" width="40" height="40" fill="none" stroke="black" stroke-width="1" />
<text x="144.0" y="24.0" font-size="20" fill="black" font-family="Comic Sans MS" text-anchor="middle" dominant-baseline="central">0</text>
</g>
</svg>
<svg x="654.0" y="0.0" width="168.0" height="48.0" viewBox="0 0 168 48" xmlns="http://www.w3.org/2000/svg" xmlns:xlink="http://www.w3.org/1999/xlink">
<defs>
</defs>
<g>
<rect x="4" y="4" width="40" height="40" fill="none" stroke="black" stroke-width="1" />
<text x="24.0" y="24.0" font-size="20" fill="black" font-family="Comic Sans MS" text-anchor="middle" dominant-baseline="central"> </text>
<rect x="44" y="4" width="40" height="40" fill="none" stroke="black" stroke-width="1" />
<text x="64.0" y="24.0" font-size="20" fill="black" font-family="Comic Sans MS" text-anchor="middle" dominant-baseline="central"> </text>
<rect x="84" y="4" width="40" height="40" fill="none" stroke="black" stroke-width="1" />
<text x="104.0" y="24.0" font-size="20" fill="black" font-family="Comic Sans MS" text-anchor="middle" dominant-baseline="central"> </text>
<rect x="124" y="4" width="40" height="40" fill="none" stroke="black" stroke-width="1" />
<text x="144.0" y="24.0" font-size="20" fill="black" font-family="Comic Sans MS" text-anchor="middle" dominant-baseline="central">3</text>
</g>
</svg>
</svg>