<?xml version="1.0" encoding="UTF-8"?>
<svg xmlns="http://www.w3.org/2000/svg" xmlns:xlink="http://www.w3.org/1999/xlink"
     width="1050" height="1010" viewBox="0 0 1050 1010">
<defs>
</defs>
<g>
<g>
<g>
<rect x="0" y="800" width="104" height="200" fill="white" stroke="#333333" stroke-width="1" />
<g>
<rect x="12.0" y="830.0" width="40" height="40" fill="none" stroke="black" stroke-width="1" />
<text x="32.0" y="850.0" font-size="20" fill="black" font-family="Comic Sans MS" text-anchor="middle" dominant-baseline="central"> </text>
<rect x="52.0" y="830.0" width="40" height="40" fill="none" stroke="black" stroke-width="1" />
<text x="72.0" y="850.0" font-size="20" fill="black" font-family="Comic Sans MS" text-anchor="middle" dominant-baseline="central">0</text>
</g>
<rect x="26.0" y="880.0" width="52.0" height="120.0" fill="#DEB887" stroke="none" />
<rect x="29.0" y="883.0" width="46.0" height="114.0" fill="white" stroke="none" />
</g>
<g>
<rect x="104" y="800" width="104" height="200" fill="white" stroke="#333333" stroke-width="1" />
<g>
<rect x="116.0" y="830.0" width="40" height="40" fill="none" stroke="black" stroke-width="1" />
<text x="136.0" y="850.0" font-size="20" fill="black" font-family="Comic Sans MS" text-anchor="middle" dominant-baseline="central"> </text>
<rect x="156.0" y="830.0" width="40" height="40" fill="none" stroke="black" stroke-width="1" />
<text x="176.0" y="850.0" font-size="20" fill="black" font-family="Comic Sans MS" text-anchor="middle" dominant-baseline="central">1</text>
</g>
<rect x="130.0" y="880.0" width="52.0" height="120.0" fill="#DEB887" stroke="none" />
<rect x="133.0" y="883.0" width="46.0" height="114.0" fill="white" stroke="none" />
</g>
<g>
<rect x="208" y="800" width="104" height="200" fill="white" stroke="#333333" stroke-width="1" />
<g>
<rect x="220.0" y="830.0" width="40" height="40" fill="none" stroke="black" stroke-width="1" />
<text x="240.0" y="850.0" font-size="20" fill="black" font-family="Comic Sans MS" text-anchor="middle" dominant-baseline="central"> </text>
<rect x="260.0" y="830.0" width="40" height="40" fill="none" stroke="black" stroke-width="1" />
<text x="280.0" y="850.0" font-size="20" fill="black" font-family="Comic Sans MS" text-anchor="middle" dominant-baseline="central">2</text>
</g>
<rect x="234.0" y="880.0" width="52.0" height="120.0" fill="#DEB887" stroke="none" />
<rect x="237.0" y="883.0" width="46.0" height="114.0" fill="white" stroke="none" />
</g>
<g>
<rect x="312" y="800" width="104" height="200" fill="white" stroke="#333333" stroke-width="1" />
<g>
<rect x="324.0" y="830.0" width="40" height="40" fill="none" stroke="black" stroke-width="1" />
<text x="344.0" y="850.0" font-size="20" fill="black" font-family="Comic Sans MS" text-anchor="middle" dominant-baseline="central"> </text>
<rect x="364.0" y="830.0" width="40" height="40" fill="none" stroke="black" stroke-width="1" />
<text x="384.0" y="850.0" font-size="20" fill="black" font-family="Comic Sans MS" text-anchor="middle" dominant-baseline="central">3</text>
</g>
<rect x="338.0" y="880.0" width="52.0" height="120.0" fill="#DEB887" stroke="none" />
<rect x="341.0" y="883.0" width="46.0" height="114.0" fill="white" stroke="none" />
</g>
<g>
<rect x="416" y="800" width="104" height="200" fill="white" stroke="#333333" stroke-width="1" />
<g>
<rect x="428.0" y="830.0" width="40" height="40" fill="none" stroke="black" stroke-width="1" />
<text x="448.0" y="850.0" font-size="20" fill="black" font-family="Comic Sans MS" text-anchor="middle" dominant-baseline="central"> </text>
<rect x="468.0" y="830.0" width="40" height="40" fill="none" stroke="black" stroke-width="1" />
<text x="488.0" y="850.0" font-size="20" fill="black" font-family="Comic Sans MS" text-anchor="middle" dominant-baseline="central">4</text>
</g>
<rect x="442.0" y="880.0" width="52.0" height="120.0" fill="#DEB887" stroke="none" />
<rect x="445.0" y="883.0" width="46.0" height="114.0" fill="white" stroke="none" />
</g>
<g>
<rect x="520" y="800" width="104" height="200" fill="white" stroke="#333333" stroke-width="1" />
<g>
<rect x="532.0" y="830.0" width="40" height="40" fill="none" stroke="black" stroke-width="1" />
<text x="552.0" y="850.0" font-size="20" fill="black" font-family="Comic Sans MS" text-anchor="middle" dominant-baseline="central"> </text>
<rect x="572.0" y="830.0" width="40" height="40" fill="none" stroke="black" stroke-width="1" />
<text x="592.0" y="850.0" font-size="20" fill="black" font-family="Comic Sans MS" text-anchor="middle" dominant-baseline="central">5</text>
</g>
<rect x="546.0" y="880.0" width="52.0" height="120.0" fill="#DEB887" stroke="none" />
<rect x="549.0" y="883.0" width="46.0" height="114.0" fill="white" stroke="none" />
</g>
<g>
<rect x="624" y="800" width="104" height="200" fill="white" stroke="#333333" stroke-width="1" />
<g>
<rect x="636.0" y="830.0" width="40" height="40" fill="none" stroke="black" stroke-width="1" />
<text x="656.0" y="850.0" font-size="20" fill="black" font-family="Comic Sans MS" text-anchor="middle" dominant-baseline="central"> </text>
<rect x="676.0" y="830.0" width="40" height="40" fill="none" stroke="black" stroke-width="1" />
<text x="696.0" y="850.0" font-size="20" fill="black" font-family="Comic Sans MS" text-anchor="middle" dominant-baseline="central">6</text>
</g>
<rect x="650.0" y="880.0" width="52.0" height="120.0" fill="#DEB887" stroke="none" />
<rect x="653.0" y="883.0" width="46.0" height="114.0" fill="white" stroke="none" />
</g>
<g>
<rect x="728" y="800" width="104" height="200" fill="white" stroke="#333333" stroke-width="1" />
<g>
<rect x="740.0" y="830.0" width="40" height="40" fill="none" stroke="black" stroke-width="1" />
<text x="760.0" y="850.0" font-size="20" fill="black" font-family="Comic Sans MS" text-anchor="middle" dominant-baseline="central"> </text>
<rect x="780.0" y="830.0" width="40" height="40" fill="none" stroke="black" stroke-width="1" />
<text x="800.0" y="850.0" font-size="20" fill="black" font-family="Comic Sans MS" text-anchor="middle" dominant-baseline="central">7</text>
</g>
<rect x="754.0" y="880.0" width="52.0" height="120.0" fill="#DEB887" stroke="none" />
<rect x="757.0" y="883.0" width="46.0" height="114.0" fill="white" stroke="none" />
</g>
<g>
<rect x="832" y="800" width="104" height="200" fill="white" stroke="#333333" stroke-width="1" />
<g>
<rect x="844.0" y="830.0" width="40" height="40" fill="none" stroke="black" stroke-width="1" />
<text x="864.0" y="850.0" font-size="20" fill="black" font-family="Comic Sans MS" text-anchor="middle" dominant-baseline="central"> </text>
<rect x="884.0" y="830.0" width="40" height="40" fill="none" stroke="black" stroke-width="1" />
<text x="904.0" y="850.0" font-size="20" fill="black" font-family="Comic Sans MS" text-anchor="middle" dominant-baseline="central">8</text>
</g>
<rect x="858.0" y="880.0" width="52.0" height="120.0" fill="#DEB887" stroke="none" />
<rect x="861.0" y="883.0" width="46.0" height="114.0" fill="white" stroke="none" />
</g>
<g>
<rect x="936" y="800" width="104" height="200" fill="white" stroke="#333333" stroke-width="1" />
<g>
<rect x="948.0" y="830.0" width="40" height="40" fill="none" stroke="black" stroke-width="1" />
<text x="968.0" y="850.0" font-size="20" fill="black" font-family="Comic Sans MS" text-anchor="middle" dominant-baseline="central"> </text>
<rect x="988.0" y="830.0" width="40" height="40" fill="none" stroke="black" stroke-width="1" />
<text x="1008.0" y="850.0" font-size="20" fill="black" font-family="Comic Sans MS" text-anchor="middle" dominant-baseline="central">9</text>
</g>
<rect x="962.0" y="880.0" width="52.0" height="120.0" fill="#DEB887" stroke="none" />
<rect x="965.0" y="883.0" width="46.0" height="114.0" fill="white" stroke="none" />
</g>
</g>
<g>
<g>
<rect x="0" y="600" width="104" height="200" fill="white" stroke="#333333" stroke-width="1" />
<g>
<rect x="12.0" y="630.0" width="40" height="40" fill="none" stroke="black" stroke-width="1" />
<text x="32.0" y="650.0" font-size="20" fill="red" font-family="Comic Sans MS" text-anchor="middle" dominant-baseline="central">1</text>
<rect x="52.0" y="630.0" width="40" height="40" fill="none" stroke="black" stroke-width="1" />
<text x="72.0" y="650.0" font-size="20" fill="black" font-family="Comic Sans MS" text-anchor="middle" dominant-baseline="central">0</text>
</g>
<rect x="26.0" y="680.0" width="52.0" height="120.0" fill="#DEB887" stroke="none" />
<rect x="29.0" y="683.0" width="46.0" height="114.0" fill="white" stroke="none" />
</g>
<g>
<rect x="104" y="600" width="104" height="200" fill="white" stroke="#333333" stroke-width="1" />
<g>
<rect x="116.0" y="630.0" width="40" height="40" fill="none" stroke="black" stroke-width="1" />
<text x="136.0" y="650.0" font-size="20" fill="red" font-family="Comic Sans MS" text-anchor="middle" dominant-baseline="central">1</text>
<rect x="156.0" y="630.0" width="40" height="40" fill="none" stroke="black" stroke-width="1" />
<text x="176.0" y="650.0" font-size="20" fill="black" font-family="Comic Sans MS" text-anchor="middle" dominant-baseline="central">1</text>
</g>
<rect x="130.0" y="680.0" width="52.0" height="120.0" fill="#DEB887" stroke="none" />
<rect x="133.0" y="683.0" width="46.0" height="114.0" fill="white" stroke="none" />
</g>
<g>
<rect x="208" y="600" width="104" height="200" fill="white" stroke="#333333" stroke-width="1" />
<g>
<rect x="220.0" y="630.0" width="40" height="40" fill="none" stroke="black" stroke-width="1" />
<text x="240.0" y="650.0" font-size="20" fill="red" font-family="Comic Sans MS" text-anchor="middle" dominant-baseline="central">1</text>
<rect x="260.0" y="630.0" width="40" height="40" fill="none" stroke="black" stroke-width="1" />
<text x="280.0" y="650.0" font-size="20" fill="black" font-family="Comic Sans MS" text-anchor="middle" dominant-baseline="central">2</text>
</g>
<rect x="234.0" y="680.0" width="52.0" height="120.0" fill="#DEB887" stroke="none" />
<rect x="237.0" y="683.0" width="46.0" height="114.0" fill="white" stroke="none" />
</g>
<g>
<rect x="312" y="600" width="104" height="200" fill="white" stroke="#333333" stroke-width="1" />
<g>
<rect x="324.0" y="630.0" width="40" height="40" fill="none" stroke="black" stroke-width="1" />
<text x="344.0" y="650.0" font-size="20" fill="red" font-family="Comic Sans MS" text-anchor="middle" dominant-baseline="central">1</text>
<rect x="364.0" y="630.0" width="40" height="40" fill="none" stroke="black" stroke-width="1" />
<text x="384.0" y="650.0" font-size="20" fill="black" font-family="Comic Sans MS" text-anchor="middle" dominant-baseline="central">3</text>
</g>
<rect x="338.0" y="680.0" width="52.0" height="120.0" fill="#DEB887" stroke="none" />
<rect x="341.0" y="683.0" width="46.0" height="114.0" fill="white" stroke="none" />
</g>
<g>
<rect x="416" y="600" width="104" height="200" fill="white" stroke="#333333" stroke-width="1" />
<g>
<rect x="428.0" y="630.0" width="40" height="40" fill="none" stroke="black" stroke-width="1" />
<text x="448.0" y="650.0" font-size="20" fill="red" font-family="Comic Sans MS" text-anchor="middle" dominant-baseline="central">1</text>
<rect x="468.0" y="630.0" width="40" height="40" fill="none" stroke="black" stroke-width="1" />
<text x="488.0" y="650.0" font-size="20" fill="black" font-family="Comic Sans MS" text-anchor="middle" dominant-baseline="central">4</text>
</g>
<rect x="442.0" y="680.0" width="52.0" height="120.0" fill="#DEB887" stroke="none" />
<rect x="445.0" y="683.0" width="46.0" height="114.0" fill="white" stroke="none" />
</g>
<g>
<rect x="520" y="600" width="104" height="200" fill="white" stroke="#333333" stroke-width="1" />
<g>
<rect x="532.0" y="630.0" width="40" height="40" fill="none" stroke="black" stroke-width="1" />
<text x="552.0" y="650.0" font-size="20" fill="red" font-family="Comic Sans MS" text-anchor="middle" dominant-baseline="central">1</text>
<rect x="572.0" y="630.0" width="40" height="40" fill="none" stroke="black" stroke-width="1" />
<text x="592.0" y="650.0" font-size="20" fill="black" font-family="Comic Sans MS" text-anchor="middle" dominant-baseline="central">5</text>
</g>
<rect x="546.0" y="680.0" width="52.0" height="120.0" fill="#DEB887" stroke="none" />
<rect x="549.0" y="683.0" width="46.0" height="114.0" fill="white" stroke="none" />
</g>
<g>
<rect x="624" y="600" width="104" height="200" fill="white" stroke="#333333" stroke-width="1" />
<g>
<rect x="636.0" y="630.0" width="40" height="40" fill="none" stroke="black" stroke-width="1" />
<text x="656.0" y="650.0" font-size="20" fill="red" font-family="Comic Sans MS" text-anchor="middle" dominant-baseline="central">1</text>
<rect x="676.0" y="630.0" width="40" height="40" fill="none" stroke="black" stroke-width="1" />
<text x="696.0" y="650.0" font-size="20" fill="black" font-family="Comic Sans MS" text-anchor="middle" dominant-baseline="central">6</text>
</g>
<rect x="650.0" y="680.0" width="52.0" height="120.0" fill="#DEB887" stroke="none" />
<rect x="653.0" y="683.0" width="46.0" height="114.0" fill="white" stroke="none" />
</g>
<g>
<rect x="728" y="600" width="104" height="200" fill="white" stroke="#333333" stroke-width="1" />
<g>
<rect x="740.0" y="630.0" width="40" height="40" fill="none" stroke="black" stroke-width="1" />
<text x="760.0" y="650.0" font-size="20" fill="red" font-family="Comic Sans MS" text-anchor="middle" dominant-baseline="central">1</text>
<rect x="780.0" y="630.0" width="40" height="40" fill="none" stroke="black" stroke-width="1" />
<text x="800.0" y="650.0" font-size="20" fill="black" font-family="Comic Sans MS" text-anchor="middle" dominant-baseline="central">7</text>
</g>
<rect x="754.0" y="680.0" width="52.0" height="120.0" fill="#DEB887" stroke="none" />
<rect x="757.0" y="683.0" width="46.0" height="114.0" fill="white" stroke="none" />
</g>
<g>
<rect x="832" y="600" width="104" height="200" fill="white" stroke="#333333" stroke-width="1" />
<g>
<rect x="844.0" y="630.0" width="40" height="40" fill="none" stroke="black" stroke-width="1" />
<text x="864.0" y="650.0" font-size="20" fill="red" font-family="Comic Sans MS" text-anchor="middle" dominant-baseline="central">1</text>
<rect x="884.0" y="630.0" width="40" height="40" fill="none" stroke="black" stroke-width="1" />
<text x="904.0" y="650.0" font-size="20" fill="black" font-family="Comic Sans MS" text-anchor="middle" dominant-baseline="central">8</text>
</g>
<rect x="858.0" y="680.0" width="52.0" height="120.0" fill="#DEB887" stroke="none" />
<rect x="861.0" y="683.0" width="46.0" height="114.0" fill="white" stroke="none" />
</g>
<g>
<rect x="936" y="600" width="104" height="200" fill="white" stroke="#333333" stroke-width="1" />
<g>
<rect x="948.0" y="630.0" width="40" height="40" fill="none" stroke="black" stroke-width="1" />
<text x="968.0" y="650.0" font-size="20" fill="red" font-family="Comic Sans MS" text-anchor="middle" dominant-baseline="central">1</text>
<rect x="988.0" y="630.0" width="40" height="40" fill="none" stroke="black" stroke-width="1" />
<text x="1008.0" y="650.0" font-size="20" fill="black" font-family="Comic Sans MS" text-anchor="middle" dominant-baseline="central">9</text>
</g>
<rect x="962.0" y="680.0" width="52.0" height="120.0" fill="#DEB887" stroke="none" />
<rect x="965.0" y="683.0" width="46.0" height="114.0" fill="white" stroke="none" />
</g>
</g>
<g>
<g>
<rect x="0" y="400" width="104" height="200" fill="white" stroke="#333333" stroke-width="1" />
<g>
<rect x="12.0" y="430.0" width="40" height="40" fill="none" stroke="black" stroke-width="1" />
<text x="32.0" y="450.0" font-size="20" fill="red" font-family="Comic Sans MS" text-anchor="middle" dominant-baseline="central">2</text>
<rect x="52.0" y="430.0" width="40" height="40" fill="none" stroke="black" stroke-width="1" />
<text x="72.0" y="450.0" font-size="20" fill="black" font-family="Comic Sans MS" text-anchor="middle" dominant-baseline="central">0</text>
</g>
<rect x="26.0" y="480.0" width="52.0" height="120.0" fill="#DEB887" stroke="none" />
<rect x="29.0" y="483.0" width="46.0" height="114.0" fill="white" stroke="none" />
</g>
<g>
<rect x="104" y="400" width="104" height="200" fill="white" stroke="#333333" stroke-width="1" />
<g>
<rect x="116.0" y="430.0" width="40" height="40" fill="none" stroke="black" stroke-width="1" />
<text x="136.0" y="450.0" font-size="20" fill="red" font-family="Comic Sans MS" text-anchor="middle" dominant-baseline="central">2</text>
<rect x="156.0" y="430.0" width="40" height="40" fill="none" stroke="black" stroke-width="1" />
<text x="176.0" y="450.0" font-size="20" fill="black" font-family="Comic Sans MS" text-anchor="middle" dominant-baseline="central">1</text>
</g>
<rect x="130.0" y="480.0" width="52.0" height="120.0" fill="#DEB887" stroke="none" />
<rect x="133.0" y="483.0" width="46.0" height="114.0" fill="white" stroke="none" />
</g>
<g>
<rect x="208" y="400" width="104" height="200" fill="white" stroke="#333333" stroke-width="1" />
<g>
<rect x="220.0" y="430.0" width="40" height="40" fill="none" stroke="black" stroke-width="1" />
<text x="240.0" y="450.0" font-size="20" fill="red" font-family="Comic Sans MS" text-anchor="middle" dominant-baseline="central">2</text>
<rect x="260.0" y="430.0" width="40" height="40" fill="none" stroke="black" stroke-width="1" />
<text x="280.0" y="450.0" font-size="20" fill="black" font-family="Comic Sans MS" text-anchor="middle" dominant-baseline="central">2</text>
</g>
<rect x="234.0" y="480.0" width="52.0" height="120.0" fill="#DEB887" stroke="none" />
<rect x="237.0" y="483.0" width="46.0" height="114.0" fill="white" stroke="none" />
</g>
<g>
<rect x="312" y="400" width="104" height="200" fill="white" stroke="#333333" stroke-width="1" />
<g>
<rect x="324.0" y="430.0" width="40" height="40" fill="none" stroke="black" stroke-width="1" />
<text x="344.0" y="450.0" font-size="20" fill="red" font-family="Comic Sans MS" text-anchor="middle" dominant-baseline="central">2</text>
<rect x="364.0" y="430.0" width="40" height="40" fill="none" stroke="black" stroke-width="1" />
<text x="384.0" y="450.0" font-size="20" fill="black" font-family="Comic Sans MS" text-anchor="middle" dominant-baseline="central">3</text>
</g>
<rect x="338.0" y="480.0" width="52.0" height="120.0" fill="#DEB887" stroke="none" />
<rect x="341.0" y="483.0" width="46.0" height="114.0" fill="white" stroke="none" />
</g>
<g>
<rect x="416" y="400" width="104" height="200" fill="white" stroke="#333333" stroke-width="1" />
<g>
<rect x="428.0" y="430.0" width="40" height="40" fill="none" stroke="black" stroke-width="1" />
<text x="448.0" y="450.0" font-size="20" fill="red" font-family="Comic Sans MS" text-anchor="middle" dominant-baseline="central">2</text>
<rect x="468.0" y="430.0" width="40" height="40" fill="none" stroke="black" stroke-width="1" />
<text x="488.0" y="450.0" font-size="20" fill="black" font-family="Comic Sans MS" text-anchor="middle" dominant-baseline="central">4</text>
</g>
<rect x="442.0" y="480.0" width="52.0" height="120.0" fill="#DEB887" stroke="none" />
<rect x="445.0" y="483.0" width="46.0" height="114.0" fill="white" stroke="none" />
</g>
<g>
<rect x="520" y="400" width="104" height="200" fill="white" stroke="#333333" stroke-width="1" />
<g>
<rect x="532.0" y="430.0" width="40" height="40" fill="none" stroke="black" stroke-width="1" />
<text x="552.0" y="450.0" font-size="20" fill="red" font-family="Comic Sans MS" text-anchor="middle" dominant-baseline="central">2</text>
<rect x="572.0" y="430.0" width="40" height="40" fill="none" stroke="black" stroke-width="1" />
<text x="592.0" y="450.0" font-size="20" fill="black" font-family="Comic Sans MS" text-anchor="middle" dominant-baseline="central">5</text>
</g>
<rect x="546.0" y="480.0" width="52.0" height="120.0" fill="#DEB887" stroke="none" />
<rect x="549.0" y="483.0" width="46.0" height="114.0" fill="white" stroke="none" />
</g>
<g>
<rect x="624" y="400" width="104" height="200" fill="white" stroke="#333333" stroke-width="1" />
<g>
<rect x="636.0" y="430.0" width="40" height="40" fill="none" stroke="black" stroke-width="1" />
<text x="656.0" y="450.0" font-size="20" fill="red" font-family="Comic Sans MS" text-anchor="middle" dominant-baseline="central">2</text>
<rect x="676.0" y="430.0" width="40" height="40" fill="none" stroke="black" stroke-width="1" />
<text x="696.0" y="450.0" font-size="20" fill="black" font-family="Comic Sans MS" text-anchor="middle" dominant-baseline="central">6</text>
</g>
<rect x="650.0" y="480.0" width="52.0" height="120.0" fill="#DEB887" stroke="none" />
<rect x="653.0" y="483.0" width="46.0" height="114.0" fill="white" stroke="none" />
</g>
<g>
<rect x="728" y="400" width="104" height="200" fill="white" stroke="#333333" stroke-width="1" />
<g>
<rect x="740.0" y="430.0" width="40" height="40" fill="none" stroke="black" stroke-width="1" />
<text x="760.0" y="450.0" font-size="20" fill="red" font-family="Comic Sans MS" text-anchor="middle" dominant-baseline="central">2</text>
<rect x="780.0" y="430.0" width="40" height="40" fill="none" stroke="black" stroke-width="1" />
<text x="800.0" y="450.0" font-size="20" fill="black" font-family="Comic Sans MS" text-anchor="middle" dominant-baseline="central">7</text>
</g>
<rect x="754.0" y="480.0" width="52.0" height="120.0" fill="#DEB887" stroke="none" />
<rect x="757.0" y="483.0" width="46.0" height="114.0" fill="white" stroke="none" />
</g>
<g>
<rect x="832" y="400" width="104" height="200" fill="white" stroke="#333333" stroke-width="1" />
<g>
<rect x="844.0" y="430.0" width="40" height="40" fill="none" stroke="black" stroke-width="1" />
<text x="864.0" y="450.0" font-size="20" fill="red" font-family="Comic Sans MS" text-anchor="middle" dominant-baseline="central">2</text>
<rect x="884.0" y="430.0" width="40" height="40" fill="none" stroke="black" stroke-width="1" />
<text x="904.0" y="450.0" font-size="20" fill="black" font-family="Comic Sans MS" text-anchor="middle" dominant-baseline="central">8</text>
</g>
<rect x="858.0" y="480.0" width="52.0" height="120.0" fill="#DEB887" stroke="none" />
<rect x="861.0" y="483.0" width="46.0" height="114.0" fill="white" stroke="none" />
</g>
<g>
<rect x="936" y="400" width="104" height="200" fill="white" stroke="#333333" stroke-width="1" />
<g>
<rect x="948.0" y="430.0" width="40" height="40" fill="none" stroke="black" stroke-width="1" />
<text x="968.0" y="450.0" font-size="20" fill="red" font-family="Comic Sans MS" text-anchor="middle" dominant-baseline="central">2</text>
<rect x="988.0" y="430.0" width="40" height="40" fill="none" stroke="black" stroke-width="1" />
<text x="1008.0" y="450.0" font-size="20" fill="black" font-family="Comic Sans MS" text-anchor="middle" dominant-baseline="central">9</text>
</g>
<rect x="962.0" y="480.0" width="52.0" height="120.0" fill="#DEB887" stroke="none" />
<rect x="965.0" y="483.0" width="46.0" height="114.0" fill="white" stroke="none" />
</g>
</g>
<g>
<g>
<rect x="0" y="200" width="104" height="200" fill="white" stroke="#333333" stroke-width="1" />
<g>
<rect x="12.0" y="230.0" width="40" height="40" fill="none" stroke="black" stroke-width="1" />
<text x="32.0" y="250.0" font-size="20" fill="red" font-family="Comic Sans MS" text-anchor="middle" dominant-baseline="central">3</text>
<rect x="52.0" y="230.0" width="40" height="40" fill="none" stroke="black" stroke-width="1" />
<text x="72.0" y="250.0" font-size="20" fill="black" font-family="Comic Sans MS" text-anchor="middle" dominant-baseline="central">0</text>
</g>
<rect x="26.0" y="280.0" width="52.0" height="120.0" fill="#DEB887" stroke="none" />
<rect x="29.0" y="283.0" width="46.0" height="114.0" fill="white" stroke="none" />
</g>
<g>
<rect x="104" y="200" width="104" height="200" fill="white" stroke="#333333" stroke-width="1" />
<g>
<rect x="116.0" y="230.0" width="40" height="40" fill="none" stroke="black" stroke-width="1" />
<text x="136.0" y="250.0" font-size="20" fill="red" font-family="Comic Sans MS" text-anchor="middle" dominant-baseline="central">3</text>
<rect x="156.0" y="230.0" width="40" height="40" fill="none" stroke="black" stroke-width="1" />
<text x="176.0" y="250.0" font-size="20" fill="black" font-family="Comic Sans MS" text-anchor="middle" dominant-baseline="central">1</text>
</g>
<rect x="130.0" y="280.0" width="52.0" height="120.0" fill="#DEB887" stroke="none" />
<rect x="133.0" y="283.0" width="46.0" height="114.0" fill="white" stroke="none" />
</g>
<g>
<rect x="208" y="200" width="104" height="200" fill="white" stroke="#333333" stroke-width="1" />
<g>
<rect x="220.0" y="230.0" width="40" height="40" fill="none" stroke="black" stroke-width="1" />
<text x="240.0" y="250.0" font-size="20" fill="red" font-family="Comic Sans MS" text-anchor="middle" dominant-baseline="central">3</text>
<rect x="260.0" y="230.0" width="40" height="40" fill="none" stroke="black" stroke-width="1" />
<text x="280.0" y="250.0" font-size="20" fill="black" font-family="Comic Sans MS" text-anchor="middle" dominant-baseline="central">2</text>
</g>
<rect x="234.0" y="280.0" width="52.0" height="120.0" fill="#DEB887" stroke="none" />
<rect x="237.0" y="283.0" width="46.0" height="114.0" fill="white" stroke="none" />
</g>
<g>
<rect x="312" y="200" width="104" height="200" fill="white" stroke="#333333" stroke-width="1" />
<g>
<rect x="324.0" y="230.0" width="40" height="40" fill="none" stroke="black" stroke-width="1" />
<text x="344.0" y="250.0" font-size="20" fill="red" font-family="Comic Sans MS" text-anchor="middle" dominant-baseline="central">3</text>
<rect x="364.0" y="230.0" width="40" height="40" fill="none" stroke="black" stroke-width="1" />
<text x="384.0" y="250.0" font-size="20" fill="black" font-family="Comic Sans MS" text-anchor="middle" dominant-baseline="central">3</text>
</g>
<rect x="338.0" y="280.0" width="52.0" height="120.0" fill="#DEB887" stroke="none" />
<rect x="341.0" y="283.0" width="46.0" height="114.0" fill="white" stroke="none" />
</g>
<g>
<rect x="416" y="200" width="104" height="200" fill="white" stroke="#333333" stroke-width="1" />
<g>
<rect x="428.0" y="230.0" width="40" height="40" fill="none" stroke="black" stroke-width="1" />
<text x="448.0" y="250.0" font-size="20" fill="red" font-family="Comic Sans MS" text-anchor="middle" dominant-baseline="central">3</text>
<rect x="468.0" y="230.0" width="40" height="40" fill="none" stroke="black" stroke-width="1" />
<text x="488.0" y="250.0" font-size="20" fill="black" font-family="Comic Sans MS" text-anchor="middle" dominant-baseline="central">4</text>
</g>
<rect x="442.0" y="280.0" width="52.0" height="120.0" fill="#DEB887" stroke="none" />
<rect x="445.0" y="283.0" width="46.0" height="114.0" fill="white" stroke="none" />
</g>
<g>
<rect x="520" y="200" width="104" height="200" fill="white" stroke="#333333" stroke-width="1" />
<g>
<rect x="532.0" y="230.0" width="40" height="40" fill="none" stroke="black" stroke-width="1" />
<text x="552.0" y="250.0" font-size="20" fill="red" font-family="Comic Sans MS" text-anchor="middle" dominant-baseline="central">3</text>
<rect x="572.0" y="230.0" width="40" height="40" fill="none" stroke="black" stroke-width="1" />
<text x="592.0" y="250.0" font-size="20" fill="black" font-family="Comic Sans MS" text-anchor="middle" dominant-baseline="central">5</text>
</g>
<rect x="546.0" y="280.0" width="52.0" height="120.0" fill="#DEB887" stroke="none" />
<rect x="549.0" y="283.0" width="46.0" height="114.0" fill="white" stroke="none" />
</g>
<g>
<rect x="624" y="200" width="104" height="200" fill="white" stroke="#333333" stroke-width="1" />
<g>
<rect x="636.0" y="230.0" width="40" height="40" fill="none" stroke="black" stroke-width="1" />
<text x="656.0" y="250.0" font-size="20" fill="red" font-family="Comic Sans MS" text-anchor="middle" dominant-baseline="central">3</text>
<rect x="676.0" y="230.0" width="40" height="40" fill="none" stroke="black" stroke-width="1" />
<text x="696.0" y="250.0" font-size="20" fill="black" font-family="Comic Sans MS" text-anchor="middle" dominant-baseline="central">6</text>
</g>
<rect x="650.0" y="280.0" width="52.0" height="120.0" fill="#DEB887" stroke="none" />
<rect x="653.0" y="283.0" width="46.0" height="114.0" fill="white" stroke="none" />
</g>
<g>
<rect x="728" y="200" width="104" height="200" fill="white" stroke="#333333" stroke-width="1" />
<g>
<rect x="740.0" y="230.0" width="40" height="40" fill="none" stroke="black" stroke-width="1" />
<text x="760.0" y="250.0" font-size="20" fill="red" font-family="Comic Sans MS" text-anchor="middle" dominant-baseline="central">3</text>
<rect x="780.0" y="230.0" width="40" height="40" fill="none" stroke="black" stroke-width="1" />
<text x="800.0" y="250.0" font-size="20" fill="black" font-family="Comic Sans MS" text-anchor="middle" dominant-baseline="central">7</text>
</g>
<rect x="754.0" y="280.0" width="52.0" height="120.0" fill="#DEB887" stroke="none" />
<rect x="757.0" y="283.0" width="46.0" height="114.0" fill="white" stroke="none" />
</g>
<g>
<rect x="832" y="200" width="104" height="200" fill="white" stroke="#333333" stroke-width="1" />
<g>
<rect x="844.0" y="230.0" width="40" height="40" fill="none" stroke="black" stroke-width="1" />
<text x="864.0" y="250.0" font-size="20" fill="red" font-family="Comic Sans MS" text-anchor="middle" dominant-baseline="central">3</text>
<rect x="884.0" y="230.0" width="40" height="40" fill="none" stroke="black" stroke-width="1" />
<text x="904.0" y="250.0" font-size="20" fill="black" font-family="Comic Sans MS" text-anchor="middle" dominant-baseline="central">8</text>
</g>
<rect x="858.0" y="280.0" width="52.0" height="120.0" fill="#DEB887" stroke="none" />
<rect x="861.0" y="283.0" width="46.0" height="114.0" fill="white" stroke="none" />
</g>
<g>
<rect x="936" y="200" width="104" height="200" fill="white" stroke="#333333" stroke-width="1" />
<g>
<rect x="948.0" y="230.0" width="40" height="40" fill="none" stroke="black" stroke-width="1" />
<text x="968.0" y="250.0" font-size="20" fill="red" font-family="Comic Sans MS" text-anchor="middle" dominant-baseline="central">3</text>
<rect x="988.0" y="230.0" width="40" height="40" fill="none" stroke="black" stroke-width="1" />
<text x="1008.0" y="250.0" font-size="20" fill="black" font-family="Comic Sans MS" text-anchor="middle" dominant-baseline="central">9</text>
</g>
<rect x="962.0" y="280.0" width="52.0" height="120.0" fill="#DEB887" stroke="none" />
<rect x="965.0" y="283.0" width="46.0" height="114.0" fill="white" stroke="none" />
</g>
</g>
<g>
<g>
<rect x="0" y="0" width="104" height="200" fill="white" stroke="#333333" stroke-width="1" />
<g>
<rect x="12.0" y="30.0" width="40" height="40" fill="none" stroke="black" stroke-width="1" />
<text x="32.0" y="50.0" font-size="20" fill="red" font-family="Comic Sans MS" text-anchor="middle" dominant-baseline="central">4</text>
<rect x="52.0" y="30.0" width="40" height="40" fill="none" stroke="black" stroke-width="1" />
<text x="72.0" y="50.0" font-size="20" fill="black" font-family="Comic Sans MS" text-anchor="middle" dominant-baseline="central">0</text>
</g>
<rect x="26.0" y="80.0" width="52.0" height="120.0" fill="#DEB887" stroke="none" />
<rect x="29.0" y="83.0" width="46.0" height="114.0" fill="white" stroke="none" />
</g>
<g>
<rect x="104" y="0" width="104" height="200" fill="white" stroke="#333333" stroke-width="1" />
<g>
<rect x="116.0" y="30.0" width="40" height="40" fill="none" stroke="black" stroke-width="1" />
<text x="136.0" y="50.0" font-size="20" fill="red" font-family="Comic Sans MS" text-anchor="middle" dominant-baseline="central">4</text>
<rect x="156.0" y="30.0" width="40" height="40" fill="none" stroke="black" stroke-width="1" />
<text x="176.0" y="50.0" font-size="20" fill="black" font-family="Comic Sans MS" text-anchor="middle" dominant-baseline="central">1</text>
</g>
<rect x="130.0" y="80.0" width="52.0" height="120.0" fill="#DEB887" stroke="none" />
<rect x="133.0" y="83.0" width="46.0" height="114.0" fill="white" stroke="none" />
</g>
<g>
<rect x="208" y="0" width="104" height="200" fill="white" stroke="#333333" stroke-width="1" />
<g>
<rect x="220.0" y="30.0" width="40" height="40" fill="none" stroke="black" stroke-width="1" />
<text x="240.0" y="50.0" font-size="20" fill="red" font-family="Comic Sans MS" text-anchor="middle" dominant-baseline="central">4</text>
<rect x="260.0" y="30.0" width="40" height="40" fill="none" stroke="black" stroke-width="1" />
<text x="280.0" y="50.0" font-size="20" fill="black" font-family="Comic Sans MS" text-anchor="middle" dominant-baseline="central">2</text>
</g>
<rect x="234.0" y="80.0" width="52.0" height="120.0" fill="#DEB887" stroke="none" />
<rect x="237.0" y="83.0" width="46.0" height="114.0" fill="white" stroke="none" />
</g>
<g>
<rect x="312" y="0" width="104" height="200" fill="white" stroke="#333333" stroke-width="1" />
<g>
<rect x="324.0" y="30.0" width="40" height="40" fill="none" stroke="black" stroke-width="1" />
<text x="344.0" y="50.0" font-size="20" fill="red" font-family="Comic Sans MS" text-anchor="middle" dominant-baseline="central">4</text>
<rect x="364.0" y="30.0" width="40" height="40" fill="none" stroke="black" stroke-width="1" />
<text x="384.0" y="50.0" font-size="20" fill="black" font-family="Comic Sans MS" text-anchor="middle" dominant-baseline="central">3</text>
</g>
<rect x="338.0" y="80.0" width="52.0" height="120.0" fill="#DEB887" stroke="none" />
<rect x="341.0" y="83.0" width="46.0" height="114.0" fill="white" stroke="none" />
</g>
<g>
<rect x="416" y="0" width="104" height="200" fill="white" stroke="#333333" stroke-width="1" />
<g>
<rect x="428.0" y="30.0" width="40" height="40" fill="none" stroke="black" stroke-width="1" />
<text x="448.0" y="50.0" font-size="20" fill="red" font-family="Comic Sans MS" text-anchor="middle" dominant-baseline="central">4</text>
<rect x="468.0" y="30.0" width="40" height="40" fill="none" stroke="black" stroke-width="1" />
<text x="488.0" y="50.0" font-size="20" fill="black" font-family="Comic Sans MS" text-anchor="middle" dominant-baseline="central">4</text>
</g>
<rect x="442.0" y="80.0" width="52.0" height="120.0" fill="#DEB887" stroke="none" />
<rect x="445.0" y="83.0" width="46.0" height="114.0" fill="white" stroke="none" />
</g>
<g>
<rect x="520" y="0" width="104" height="200" fill="white" stroke="#333333" stroke-width="1" />
<g>
<rect x="532.0" y="30.0" width="40" height="40" fill="none" stroke="black" stroke-width="1" />
<text x="552.0" y="50.0" font-size="20" fill="red" font-family="Comic Sans MS" text-anchor="middle" dominant-baseline="central">4</text>
<rect x="572.0" y="30.0" width="40" height="40" fill="none" stroke="black" stroke-width="1" />
<text x="592.0" y="50.0" font-size="20" fill="black" font-family="Comic Sans MS" text-anchor="middle" dominant-baseline="central">5</text>
</g>
<rect x="546.0" y="80.0" width="52.0" height="120.0" fill="#DEB887" stroke="none" />
<rect x="549.0" y="83.0" width="46.0" height="114.0" fill="white" stroke="none" />
</g>
<g>
<rect x="624" y="0" width="104" height="200" fill="white" stroke="#333333" stroke-width="1" />
<g>
<rect x="636.0" y="30.0" width="40" height="40" fill="none" stroke="black" stroke-width="1" />
<text x="656.0" y="50.0" font-size="20" fill="red" font-family="Comic Sans MS" text-anchor="middle" dominant-baseline="central">4</text>
<rect x="676.0" y="30.0" width="40" height="40" fill="none" stroke="black" stroke-width="1" />
<text x="696.0" y="50.0" font-size="20" fill="black" font-family="Comic Sans MS" text-anchor="middle" dominant-baseline="central">6</text>
</g>
<rect x="650.0" y="80.0" width="52.0" height="120.0" fill="#DEB887" stroke="none" />
<rect x="653.0" y="83.0" width="46.0" height="114.0" fill="white" stroke="none" />
</g>
<g>
<rect x="728" y="0" width="104" height="200" fill="white" stroke="#333333" stroke-width="1" />
<g>
<rect x="740.0" y="30.0" width="40" height="40" fill="none" stroke="black" stroke-width="1" />
<text x="760.0" y="50.0" font-size="20" fill="red" font-family="Comic Sans MS" text-anchor="middle" dominant-baseline="central">4</text>
<rect x="780.0" y="30.0" width="40" height="40" fill="none" stroke="black" stroke-width="1" />
<text x="800.0" y="50.0" font-size="20" fill="black" font-family="Comic Sans MS" text-anchor="middle" dominant-baseline="central">7</text>
</g>
<rect x="754.0" y="80.0" width="52.0" height="120.0" fill="#DEB887" stroke="none" />
<rect x="757.0" y="83.0" width="46.0" height="114.0" fill="white" stroke="none" />
</g>
<g>
<rect x="832" y="0" width="104" height="200" fill="white" stroke="#333333" stroke-width="1" />
<g>
<rect x="844.0" y="30.0" width="40" height="40" fill="none" stroke="black" stroke-width="1" />
<text x="864.0" y="50.0" font-size="20" fill="red" font-family="Comic Sans MS" text-anchor="middle" dominant-baseline="central">4</text>
<rect x="884.0" y="30.0" width="40" height="40" fill="none" stroke="black" stroke-width="1" />
<text x="904.0" y="50.0" font-size="20" fill="black" font-family="Comic Sans MS" text-anchor="middle" dominant-baseline="central">8</text>
</g>
<rect x="858.0" y="80.0" width="52.0" height="120.0" fill="#DEB887" stroke="none" />
<rect x="861.0" y="83.0" width="46.0" height="114.0" fill="white" stroke="none" />
</g>
<g>
<rect x="936" y="0" width="104" height="200" fill="white" stroke="#333333" stroke-width="1" />
<g>
<rect x="948.0" y="30.0" width="40" height="40" fill="none" stroke="black" stroke-width="1" />
<text x="968.0" y="50.0" font-size="20" fill="red" font-family="Comic Sans MS" text-anchor="middle" dominant-baseline="central">4</text>
<rect x="988.0" y="30.0" width="40" height="40" fill="none" stroke="black" stroke-width="1" />
<text x="1008.0" y="50.0" font-size="20" fill="black" font-family="Comic Sans MS" text-anchor="middle" dominant-baseline="central">9</text>
</g>
<rect x="962.0" y="80.0" width="52.0" height="120.0" fill="#DEB887" stroke="none" />
<rect x="965.0" y="83.0" width="46.0" height="114.0" fill="white" stroke="none" />
</g>
</g>
<g>
<path d="M403.52,800 L403.52,1000" stroke="red" stroke-width="4" />
<path d="M397.28,800 L409.76,800" stroke="red" stroke-width="4" />
<path d="M397.28,1000 L409.76,1000" stroke="red" stroke-width="4" />
<path d="M428.47999999999996,800 L428.47999999999996,1000" stroke="red" stroke-width="4" />
<path d="M422.23999999999995,800 L434.71999999999997,800" stroke="red" stroke-width="4" />
<path d="M422.23999999999995,1000 L434.71999999999997,1000" stroke="red" stroke-width="4" />
<path d="M403.52,833.3333333333334 L428.47999999999996,833.3333333333334" stroke="red" stroke-width="3" />
<path d="M403.52,866.6666666666666 L428.47999999999996,866.6666666666666" stroke="red" stroke-width="3" />
<path d="M403.52,900.0 L428.47999999999996,900.0" stroke="red" stroke-width="3" />
<path d="M403.52,933.3333333333334 L428.47999999999996,933.3333333333334" stroke="red" stroke-width="3" />
<path d="M403.52,966.6666666666667 L428.47999999999996,966.6666666666667" stroke="red" stroke-width="3" />
</g>
<g>
<path d="M403.52,600 L403.52,800" stroke="red" stroke-width="4" />
<path d="M397.28,600 L409.76,600" stroke="red" stroke-width="4" />
<path d="M397.28,800 L409.76,800" stroke="red" stroke-width="4" />
<path d="M428.47999999999996,600 L428.47999999999996,800" stroke="red" stroke-width="4" />
<path d="M422.23999999999995,600 L434.71999999999997,600" stroke="red" stroke-width="4" />
<path d="M422.23999999999995,800 L434.71999999999997,800" stroke="red" stroke-width="4" />
<path d="M403.52,633.3333333333334 L428.47999999999996,633.3333333333334" stroke="red" stroke-width="3" />
<path d="M403.52,666.6666666666666 L428.47999999999996,666.6666666666666" stroke="red" stroke-width="3" />
<path d="M403.52,700.0 L428.47999999999996,700.0" stroke="red" stroke-width="3" />
<path d="M403.52,733.3333333333334 L428.47999999999996,733.3333333333334" stroke="red" stroke-width="3" />
<path d="M403.52,766.6666666666667 L428.47999999999996,766.6666666666667" stroke="red" stroke-width="3" />
</g>
<g>
<path d="M403.52,400 L403.52,600" stroke="red" stroke-width="4" />
<path d="M397.28,400 L409.76,400" stroke="red" stroke-width="4" />
<path d="M397.28,600 L409.76,600" stroke="red" stroke-width="4" />
<path d="M428.47999999999996,400 L428.47999999999996,600" stroke="red" stroke-width="4" />
<path d="M422.23999999999995,400 L434.71999999999997,400" stroke="red" stroke-width="4" />
<path d="M422.23999999999995,600 L434.71999999999997,600" stroke="red" stroke-width="4" />
<path d="M403.52,433.3333333333333 L428.47999999999996,433.3333333333333" stroke="red" stroke-width="3" />
<path d="M403.52,466.6666666666667 L428.47999999999996,466.6666666666667" stroke="red" stroke-width="3" />
<path d="M403.52,500.0 L428.47999999999996,500.0" stroke="red" stroke-width="3" />
<path d="M403.52,533.3333333333334 L428.47999999999996,533.3333333333334" stroke="red" stroke-width="3" />
<path d="M403.52,566.6666666666667 L428.47999999999996,566.6666666666667" stroke="red" stroke-width="3" />
</g>
<g>
<path d="M403.52,200 L403.52,400" stroke="red" stroke-width="4" />
<path d="M397.28,200 L409.76,200" stroke="red" stroke-width="4" />
<path d="M397.28,400 L409.76,400" stroke="red" stroke-width="4" />
<path d="M428.47999999999996,200 L428.47999999999996,400" stroke="red" stroke-width="4" />
<path d="M422.23999999999995,200 L434.71999999999997,200" stroke="red" stroke-width="4" />
<path d="M422.23999999999995,400 L434.71999999999997,400" stroke="red" stroke-width="4" />
<path d="M403.52,233.33333333333334 L428.47999999999996,233.33333333333334" stroke="red" stroke-width="3" />
<path d="M403.52,266.6666666666667 L428.47999999999996,266.6666666666667" stroke="red" stroke-width="3" />
<path d="M403.52,300.0 L428.47999999999996,300.0" stroke="red" stroke-width="3" />
<path d="M403.52,333.33333333333337 L428.47999999999996,333.33333333333337" stroke="red" stroke-width="3" />
<path d="M403.52,366.6666666666667 L428.47999999999996,366.6666666666667" stroke="red" stroke-width="3" />
</g>
</g>
</svg>