<svg width="970.0" height="106.0" xmlns="http://www.w3.org/2000/svg" xmlns:xlink="http://www.w3.org/1999/xlink">
<svg x="0.0" y="0.0" width="970.0" height="48.0" xmlns="http://www.w3.org/2000/svg" xmlns:xlink="http://www.w3.org/1999/xlink">
<svg x="0.0" y="0.0" width="88.0" height="48.0" viewBox="0 0 88 48" xmlns="http://www.w3.org/2000/svg" xmlns:xlink="http://www.w3.org/1999/xlink">
<defs>
</defs>
<g>
<rect x="4" y="4" width="40" height="40" fill="none" stroke="black" stroke-width="1" />
<text x="24.0" y="24.0" font-size="20" fill="red" font-family="Comic Sans MS" text-anchor="middle" dominant-baseline="central">8</text>
<rect x="44" y="4" width="40" height="40" fill="none" stroke="black" stroke-width="1" />
<text x="64.0" y="24.0" font-size="20" fill="black" font-family="Comic Sans MS" text-anchor="middle" dominant-baseline="central">0</text>
</g>
</svg>
<svg x="98.0" y="0.0" width="88.0" height="48.0" viewBox="0 0 88 48" xmlns="http://www.w3.org/2000/svg" xmlns:xlink="http://www.w3.org/1999/xlink">
<defs>
</defs>
<g>
<rect x="4" y="4" width="40" height="40" fill="none" stroke="black" stroke-width="1" />
<text x="24.0" y="24.0" font-size="20" fill="red" font-family="Comic Sans MS" text-anchor="middle" dominant-baseline="central">8</text>
<rect x="44" y="4" width="40" height="40" fill="none" stroke="black" stroke-width="1" />
<text x="64.0" y="24.0" font-size="20" fill="black" font-family="Comic Sans MS" text-anchor="middle" dominant-baseline="central">1</text>
</g>
</svg>
<svg x="196.0" y="0.0" width="88.0" height="48.0" viewBox="0 0 88 48" xmlns="http://www.w3.org/2000/svg" xmlns:xlink="http://www.w3.org/1999/xlink">
<defs>
</defs>
<g>
<rect x="4" y="4" width="40" height="40" fill="none" stroke="black" stroke-width="1" />
<text x="24.0" y="24.0" font-size="20" fill="red" font-family="Comic Sans MS" text-anchor="middle" dominant-baseline="central">8</text>
<rect x="44" y="4" width="40" height="40" fill="none" stroke="black" stroke-width="1" />
<text x="64.0" y="24.0" font-size="20" fill="black" font-family="Comic Sans MS" text-anchor="middle" dominant-baseline="central">2</text>
</g>
</svg>
<svg x="294.0" y="0.0" width="88.0" height="48.0" viewBox="0 0 88 48" xmlns="http://www.w3.org/2000/svg" xmlns:xlink="http://www.w3.org/1999/xlink">
<defs>
</defs>
<g>
<rect x="4" y="4" width="40" height="40" fill="none" stroke="black" stroke-width="1" />
<text x="24.0" y="24.0" font-size="20" fill="red" font-family="Comic Sans MS" text-anchor="middle" dominant-baseline="central">8</text>
<rect x="44" y="4" width="40" height="40" fill="none" stroke="black" stroke-width="1" />
<text x="64.0" y="24.0" font-size="20" fill="black" font-family="Comic Sans MS" text-anchor="middle" dominant-baseline="central">3</text>
</g>
</svg>
<svg x="392.0" y="0.0" width="88.0" height="48.0" viewBox="0 0 88 48" xmlns="http://www.w3.org/2000/svg" xmlns:xlink="http://www.w3.org/1999/xlink">
<defs>
</defs>
<g>
<rect x="4" y="4" width="40" height="40" fill="none" stroke="black" stroke-width="1" />
<text x="24.0" y="24.0" font-size="20" fill="red" font-family="Comic Sans MS" text-anchor="middle" dominant-baseline="central">8</text>
<rect x="44" y="4" width="40" height="40" fill="none" stroke="black" stroke-width="1" />
<text x="64.0" y="24.0" font-size="20" fill="black" font-family="Comic Sans MS" text-anchor="middle" dominant-baseline="central">4</text>
</g>
</svg>
<svg x="490.0" y="0.0" width="88.0" height="48.0" viewBox="0 0 88 48" xmlns="http://www.w3.org/2000/svg" xmlns:xlink="http://www.w3.org/1999/xlink">
<defs>
</defs>
<g>
<rect x="4" y="4" width="40" height="40" fill="none" stroke="black" stroke-width="1" />
<text x="24.0" y="24.0" font-size="20" fill="red" font-family="Comic Sans MS" text-anchor="middle" dominant-baseline="central">8</text>
<rect x="44" y="4" width="40" height="40" fill="none" stroke="black" stroke-width="1" />
<text x="64.0" y="24.0" font-size="20" fill="black" font-family="Comic Sans MS" text-anchor="middle" dominant-baseline="central">5</text>
</g>
</svg>
<svg x="588.0" y="0.0" width="88.0" height="48.0" viewBox="0 0 88 48" xmlns="http://www.w3.org/2000/svg" xmlns:xlink="http://www.w3.org/1999/xlink">
<defs>
</defs>
<g>
<rect x="4" y="4" width="40" height="40" fill="none" stroke="black" stroke-width="1" />
<text x="24.0" y="24.0" font-size="20" fill="red" font-family="Comic Sans MS" text-anchor="middle" dominant-baseline="central">8</text>
<rect x="44" y="4" width="40" height="40" fill="none" stroke="black" stroke-width="1" />
<text x="64.0" y="24.0" font-size="20" fill="black" font-family="Comic Sans MS" text-anchor="middle" dominant-baseline="central">6</text>
</g>
</svg>
<svg x="686.0" y="0.0" width="88.0" height="48.0" viewBox="0 0 88 48" xmlns="http://www.w3.org/2000/svg" xmlns:xlink="http://www.w3.org/1999/xlink">
<defs>
</defs>
<g>
<rect x="4" y="4" width="40" height="40" fill="none" stroke="black" stroke-width="1" />
<text x="24.0" y="24.0" font-size="20" fill="red" font-family="Comic Sans MS" text-anchor="middle" dominant-baseline="central">8</text>
<rect x="44" y="4" width="40" height="40" fill="none" stroke="black" stroke-width="1" />
<text x="64.0" y="24.0" font-size="20" fill="black" font-family="Comic Sans MS" text-anchor="middle" dominant-baseline="central">7</text>
</g>
</svg>
<svg x="784.0" y="0.0" width="88.0" height="48.0" viewBox="0 0 88 48" xmlns="http://www.w3.org/2000/svg" xmlns:xlink="http://www.w3.org/1999/xlink">
<defs>
</defs>
<g>
<rect x="4" y="4" width="40" height="40" fill="none" stroke="black" stroke-width="1" />
<text x="24.0" y="24.0" font-size="20" fill="red" font-family="Comic Sans MS" text-anchor="middle" dominant-baseline="central">8</text>
<rect x="44" y="4" width="40" height="40" fill="none" stroke="black" stroke-width="1" />
<text x="64.0" y="24.0" font-size="20" fill="black" font-family="Comic Sans MS" text-anchor="middle" dominant-baseline="central">8</text>
</g>
</svg>
<svg x="882.0" y="0.0" width="88.0" height="48.0" viewBox="0 0 88 48" xmlns="http://www.w3.org/2000/svg" xmlns:xlink="http://www.w3.org/1999/xlink">
<defs>
</defs>
<g>
<rect x="4" y="4" width="40" height="40" fill="none" stroke="black" stroke-width="1" />
<text x="24.0" y="24.0" font-size="20" fill="red" font-family="Comic Sans MS" text-anchor="middle" dominant-baseline="central">8</text>
<rect x="44" y="4" width="40" height="40" fill="none" stroke="black" stroke-width="1" />
<text x="64.0" y="24.0" font-size="20" fill="black" font-family="Comic Sans MS" text-anchor="middle" dominant-baseline="central">9</text>
</g>
</svg>
</svg>
<svg x="0.0" y="58.0" width="970.0" height="48.0" xmlns="http://www.w3.org/2000/svg" xmlns:xlink="http://www.w3.org/1999/xlink">
<svg x="0.0" y="0.0" width="88.0" height="48.0" viewBox="0 0 88 48" xmlns="http://www.w3.org/2000/svg" xmlns:xlink="http://www.w3.org/1999/xlink">
<defs>
</defs>
<g>
<rect x="4" y="4" width="40" height="40" fill="none" stroke="black" stroke-width="1" />
<text x="24.0" y="24.0" font-size="20" fill="red" font-family="Comic Sans MS" text-anchor="middle" dominant-baseline="central">9</text>
<rect x="44" y="4" width="40" height="40" fill="none" stroke="black" stroke-width="1" />
<text x="64.0" y="24.0" font-size="20" fill="black" font-family="Comic Sans MS" text-anchor="middle" dominant-baseline="central">0</text>
</g>
</svg>
<svg x="98.0" y="0.0" width="88.0" height="48.0" viewBox="0 0 88 48" xmlns="http://www.w3.org/2000/svg" xmlns:xlink="http://www.w3.org/1999/xlink">
<defs>
</defs>
<g>
<rect x="4" y="4" width="40" height="40" fill="none" stroke="black" stroke-width="1" />
<text x="24.0" y="24.0" font-size="20" fill="red" font-family="Comic Sans MS" text-anchor="middle" dominant-baseline="central">9</text>
<rect x="44" y="4" width="40" height="40" fill="none" stroke="black" stroke-width="1" />
<text x="64.0" y="24.0" font-size="20" fill="black" font-family="Comic Sans MS" text-anchor="middle" dominant-baseline="central">1</text>
</g>
</svg>
<svg x="196.0" y="0.0" width="88.0" height="48.0" viewBox="0 0 88 48" xmlns="http://www.w3.org/2000/svg" xmlns:xlink="http://www.w3.org/1999/xlink">
<defs>
</defs>
<g>
<rect x="4" y="4" width="40" height="40" fill="none" stroke="black" stroke-width="1" />
<text x="24.0" y="24.0" font-size="20" fill="red" font-family="Comic Sans MS" text-anchor="middle" dominant-baseline="central">9</text>
<rect x="44" y="4" width="40" height="40" fill="none" stroke="black" stroke-width="1" />
<text x="64.0" y="24.0" font-size="20" fill="black" font-family="Comic Sans MS" text-anchor="middle" dominant-baseline="central">2</text>
</g>
</svg>
<svg x="294.0" y="0.0" width="88.0" height="48.0" viewBox="0 0 88 48" xmlns="http://www.w3.org/2000/svg" xmlns:xlink="http://www.w3.org/1999/xlink">
<defs>
</defs>
<g>
<rect x="4" y="4" width="40" height="40" fill="none" stroke="black" stroke-width="1" />
<text x="24.0" y="24.0" font-size="20" fill="red" font-family="Comic Sans MS" text-anchor="middle" dominant-baseline="central">9</text>
<rect x="44" y="4" width="40" height="40" fill="none" stroke="black" stroke-width="1" />
<text x="64.0" y="24.0" font-size="20" fill="black" font-family="Comic Sans MS" text-anchor="middle" dominant-baseline="central">3</text>
</g>
</svg>
<svg x="392.0" y="0.0" width="88.0" height="48.0" viewBox="0 0 88 48" xmlns="http://www.w3.org/2000/svg" xmlns:xlink="http://www.w3.org/1999/xlink">
<defs>
</defs>
<g>
<rect x="4" y="4" width="40" height="40" fill="none" stroke="black" stroke-width="1" />
<text x="24.0" y="24.0" font-size="20" fill="red" font-family="Comic Sans MS" text-anchor="middle" dominant-baseline="central">9</text>
<rect x="44" y="4" width="40" height="40" fill="none" stroke="black" stroke-width="1" />
<text x="64.0" y="24.0" font-size="20" fill="black" font-family="Comic Sans MS" text-anchor="middle" dominant-baseline="central">4</text>
</g>
</svg>
<svg x="490.0" y="0.0" width="88.0" height="48.0" viewBox="0 0 88 48" xmlns="http://www.w3.org/2000/svg" xmlns:xlink="http://www.w3.org/1999/xlink">
<defs>
</defs>
<g>
<rect x="4" y="4" width="40" height="40" fill="none" stroke="black" stroke-width="1" />
<text x="24.0" y="24.0" font-size="20" fill="red" font-family="Comic Sans MS" text-anchor="middle" dominant-baseline="central">9</text>
<rect x="44" y="4" width="40" height="40" fill="none" stroke="black" stroke-width="1" />
<text x="64.0" y="24.0" font-size="20" fill="black" font-family="Comic Sans MS" text-anchor="middle" dominant-baseline="central">5</text>
</g>
</svg>
<svg x="588.0" y="0.0" width="88.0" height="48.0" viewBox="0 0 88 48" xmlns="http://www.w3.org/2000/svg" xmlns:xlink="http://www.w3.org/1999/xlink">
<defs>
</defs>
<g>
<rect x="4" y="4" width="40" height="40" fill="none" stroke="black" stroke-width="1" />
<text x="24.0" y="24.0" font-size="20" fill="red" font-family="Comic Sans MS" text-anchor="middle" dominant-baseline="central">9</text>
<rect x="44" y="4" width="40" height="40" fill="none" stroke="black" stroke-width="1" />
<text x="64.0" y="24.0" font-size="20" fill="black" font-family="Comic Sans MS" text-anchor="middle" dominant-baseline="central">6</text>
</g>
</svg>
<svg x="686.0" y="0.0" width="88.0" height="48.0" viewBox="0 0 88 48" xmlns="http://www.w3.org/2000/svg" xmlns:xlink="http://www.w3.org/1999/xlink">
<defs>
</defs>
<g>
<rect x="4" y="4" width="40" height="40" fill="none" stroke="black" stroke-width="1" />
<text x="24.0" y="24.0" font-size="20" fill="red" font-family="Comic Sans MS" text-anchor="middle" dominant-baseline="central">9</text>
<rect x="44" y="4" width="40" height="40" fill="none" stroke="black" stroke-width="1" />
<text x="64.0" y="24.0" font-size="20" fill="black" font-family="Comic Sans MS" text-anchor="middle" dominant-baseline="central">7</text>
</g>
</svg>
<svg x="784.0" y="0.0" width="88.0" height="48.0" viewBox="0 0 88 48" xmlns="http://www.w3.org/2000/svg" xmlns:xlink="http://www.w3.org/1999/xlink">
<defs>
</defs>
<g>
<rect x="4" y="4" width="40" height="40" fill="none" stroke="black" stroke-width="1" />
<text x="24.0" y="24.0" font-size="20" fill="red" font-family="Comic Sans MS" text-anchor="middle" dominant-baseline="central">9</text>
<rect x="44" y="4" width="40" height="40" fill="none" stroke="black" stroke-width="1" />
<text x="64.0" y="24.0" font-size="20" fill="black" font-family="Comic Sans MS" text-anchor="middle" dominant-baseline="central">8</text>
</g>
</svg>
<svg x="882.0" y="0.0" width="88.0" height="48.0" viewBox="0 0 88 48" xmlns="http://www.w3.org/2000/svg" xmlns:xlink="http://www.w3.org/1999/xlink">
<defs>
</defs>
<g>
<rect x="4" y="4" width="40" height="40" fill="none" stroke="black" stroke-width="1" />
<text x="24.0" y="24.0" font-size="20" fill="red" font-family="Comic Sans MS" text-anchor="middle" dominant-baseline="central">9</text>
<rect x="44" y="4" width="40" height="40" fill="none" stroke="black" stroke-width="1" />
<text x="64.0" y="24.0" font-size="20" fill="black" font-family="Comic Sans MS" text-anchor="middle" dominant-baseline="central">9</text>
</g>
</svg>
</svg>
</svg>