<?xml version="1.0" encoding="utf-8"?>
<svg width="1676.959" height="1655.665" version="1.1" id="Layer_1" xmlns="http://www.w3.org/2000/svg" xmlns:xlink="http://www.w3.org/1999/xlink" x="0px" y="0px"
	 viewBox="0 0 1676.959 1655.665" enable-background="new 0 0 1676.959 1655.665" xml:space="preserve">
<g>
	<path fill="#020304" stroke="#020304" stroke-width="0.1388" d="M821.842,28.054c22.972-0.37,46.032-0.518,68.944,1.554
		c12.611,0.222,25.31,0.488,37.728,2.96c12.093,1.169,24.348,1.421,36.189,4.44c149.773,21.669,292.457,87.786,407.226,186.273
		c9.384,7.341,17.258,16.341,26.465,23.86c11.071,10.139,21.255,21.166,32.044,31.586c9.71,11.456,20.381,22.069,30.091,33.554
		c9.206,11.959,19.597,23.001,28.255,35.405c33.924,44.818,63.246,93.144,86.78,144.194c7.8,15.245,13.425,31.438,20.411,47.053
		c5.358,15.452,11.086,30.772,16.192,46.313c8.289,28.566,16.429,57.236,21.773,86.513c0.844,7.993,3.656,15.6,4.5,23.593
		c1.495,13.351,4.855,26.479,5.299,39.963c2.057,13.706,3.138,27.56,3.36,41.429c1.347,21.195,2.117,42.42,1.391,63.645
		c0.4,13.854-1.806,27.589-1.791,41.429c0.133,14.268-3.582,28.137-4.544,42.302c-0.252,9.769-3.537,19.108-4.381,28.818
		c-4.352,25.355-8.999,50.739-16.222,75.471c-3.819,12.64-6.216,25.695-11.278,37.95c-9.843,29.839-21.299,59.131-34.176,87.786
		c-43.042,92.478-103.209,177.112-177.378,247.21c-10.391,10.879-22.32,20.115-33.332,30.343
		c-7.652,7.267-16.474,13.129-24.511,19.952c-46.875,37.225-97.91,69.211-151.846,95.142c-13.099,5.58-25.562,12.625-39.016,17.391
		c-14.49,5.95-28.788,12.433-43.871,16.799c-27.723,10.154-56.097,18.398-84.826,25.088c-8.851,3.167-18.309,3.582-27.338,5.98
		c-13.617,1.924-26.894,5.654-40.659,6.542c-10.257,2.486-20.81,3.508-31.319,4.159c-12.67,2.057-25.503,3.167-38.35,3.33
		c-20.233,1.258-40.481,2.146-60.759,1.569c-19.168,0.518-38.217-2.235-57.37-2.117c-14.831-1.924-29.602-4.026-44.537-4.973
		c-10.183-3.123-20.914-3.33-31.26-5.639c-12.389-1.88-24.57-4.87-36.914-7.001c-32.178-8.155-64.341-16.636-95.468-28.27
		c-54.143-19.967-106.598-44.818-155.398-75.708c-25.073-15.941-49.199-33.362-72.822-51.39
		c-14.268-12.359-29.366-23.815-42.79-37.136c-12.477-10.124-23.297-22.069-34.709-33.362c-6.083-5.314-10.894-11.811-16.37-17.672
		c-13.558-13.706-25.207-29.07-37.477-43.886c-12.122-16.045-24.688-31.793-35.523-48.755
		c-16.711-24.392-31.364-50.102-45.292-76.137c-5.684-9.591-9.798-19.967-14.727-29.928c-3.256-7.075-7.031-13.928-9.695-21.255
		c-5.121-13.454-11.471-26.405-15.926-40.097c-2.383-7.815-5.595-15.334-8.318-23.016c-6.986-21.417-13.114-43.116-18.368-65.022
		c-4.13-13.543-6.039-27.634-8.555-41.532c-2.057-7.771-3.005-15.749-3.922-23.726c-3.493-17.391-4.5-35.123-6.764-52.678
		c-2.22-37.018-3.878-74.228-0.844-111.261c0.474-12.921,0.104-26.006,3.034-38.69c0.918-8.822,1.954-17.599,2.501-26.45
		c2.96-10.686,3.626-21.758,5.994-32.548c4.041-27.264,12.048-53.699,18.916-80.341c15.704-52.9,37.033-104.097,63.053-152.749
		c11.53-20.84,23.904-41.192,36.663-61.321c17.155-25.414,35.523-50.013,55.179-73.562c19.138-22.675,38.912-44.922,60.744-65.051
		c12.241-12.995,26.376-23.948,39.608-35.893c14.032-11.131,27.516-22.972,42.228-33.229c28.507-21.062,58.583-39.949,89.444-57.355
		c15.26-7.889,30.106-16.651,45.884-23.49c9.473-4.218,18.664-9.044,28.196-13.129c12.241-4.174,23.949-9.724,36.071-14.209
		c21.225-7.238,42.228-15.23,64.06-20.514c13.765-4.278,27.96-6.927,41.784-10.968c14.283-3.005,28.759-5.077,42.953-8.466
		c12.389-0.888,24.452-4.1,36.796-5.254c5.743-1.377,11.752-0.296,17.465-1.88C780.754,29.194,801.357,29.52,821.842,28.054
		 M799.226,33.131c-17.406,0.089-34.502,3.878-51.819,5.328c-25.192,2.413-50.176,6.365-74.865,11.885
		c-15.526,2.235-30.372,7.297-45.543,11.042c-26.849,7.001-53.092,16.045-78.994,25.917c-7.267,2.901-15.023,4.529-21.906,8.318
		c9.636,2.309,16.962,9.532,23.327,16.666c0.725,10.109-0.385,20.307-1.066,30.402c-4.396,4.322-10.775,5.906-16.045,8.955
		c-9.118,5.018-18.99,8.437-28.152,13.292c-1.125,8.881,3.641,17.599,2.649,26.494c-2.398,5.684-5.994,10.775-8.614,16.355
		c-1.613,2.753-2.709,6.083-5.284,8.111c-5.639,1.761-12.403,0.814-17.007,5.136c-9.843,7.371-18.279,16.296-26.154,25.68
		c-2.013,2.028,0,4.618,1.11,6.513c5.491,8.407,10.775,16.962,16.962,24.881c6.823,0.266,13.647-0.03,20.47-0.133
		c1.761,4.144,3.523,8.452,3.685,13.01c-4.174,8.984-11.367,16.237-15.452,25.295c5.491-0.651,10.997-1.406,16.385-2.797
		c5.743-1.332,9.917-5.772,14.416-9.28c16.148-12.862,29.247-28.936,43.841-43.442c4.041-4.115,9.517-6.305,13.869-10.035
		c1.672-3.463,1.199-7.519,1.761-11.234c0.385-7.223,1.88-14.313,3.982-21.21c11.16-1.998,22.394-3.597,33.688-4.662
		c6.912-0.518,12.699-4.603,18.279-8.318c-1.332-5.24-2.649-10.479-3.804-15.763c5.343-4.278,10.213-10.331,17.465-11.086
		c6.912-1.036,13.884-1.613,20.855-2.146c8.229-0.281,15.29-5.195,21.625-9.961c2.043-5.55,0.266-12.033,1.051-17.939
		c8.91-1.821,17.702-4.218,26.628-6.054c11.723-2.546,23.86-1.495,35.715-3.064c5.55-2.472,8.392-8.91,14.061-11.16
		c10.731-1.095,21.491,0.947,32.252,0.873c1.761,5.328,2.679,10.864,4.085,16.281c7.904,2.427,15.423,6.143,23.652,7.445
		c7.031,1.066,14.032,2.457,21.151,3.034c10.598,0.873,20.87-2.487,31.29-3.774c7.312-0.503,12.566-6.098,18.827-9.177
		c4.174-2.339,9.088-1.939,13.691-2.22c8.392-0.178,16.829-1.895,25.207-0.429c5.477,0.932,10.953,1.88,16.415,2.99
		c5.269,1.021,9.665,4.396,14.816,5.772c5.787-0.784,11.323-2.945,16.77-5.032c6.527-2.501,8.54-10.346,14.653-13.499
		c3.301-1.85,7.578-4.884,11.116-1.732c23.874,16.207,47.468,32.844,72.186,47.778c7.771,4.085,10.405,13.173,16.681,18.798
		c5.388,2.916,11.308,4.736,16.785,7.504c-0.71,5.536-2.472,10.835-3.582,16.281c7.43,0.326,14.934,0.725,22.35-0.089
		c3.123-1.821,4.13-5.92,6.291-8.748c2.087,0.192,4.218,0.37,6.35,0.488c3.789,1.554,7.933,2.472,11.397,4.766
		c2.25,5.713,3.804,11.767,4.455,17.865l-0.725,1.08c-10.701,2.531-21.595,4.233-32.43,5.995
		c-9.902,1.465-17.761,8.17-26.243,12.892c2.753,5.254,6.764,9.68,9.976,14.668c3.256,4.958,6.616,10.316,12.226,12.892
		c18.975,9.798,38.143,19.212,57.148,28.922c5.151,3.005,9.532,7.09,14.179,10.79c5.358,4.248,8.244,10.627,11.767,16.311
		c3.404,5.506,6.557,11.175,10.035,16.637c2.797,4.81,8.274,6.764,12.951,9.251c6.424,3.079,12.463,7.267,19.552,8.748
		c5.328,1.214,10.716,2.383,16.193,2.738c4.5-3.893,4.662-10.908,8.925-15.068c6.498-4.115,14.402-5.476,20.574-10.183
		c-7.963-6.661-18.916-8.733-25.976-16.592c-10.731-11.042-21.935-21.861-35.39-29.528c-6.054-2.279-12.566-3.079-18.442-5.846
		c5.402-5.684,12.522-9.325,18.043-14.905c-3.079-4.485-7.504-7.874-10.257-12.581c3.256-3.227,6.305-6.646,9.488-9.961
		c12.137,7.741,24.526,15.216,37.536,21.417c6.128,3.064,13.469,3.745,19.005,7.83c3.345,9.132,4.189,18.975,7.341,28.137
		c4.633,8.407,10.909,15.808,15.926,24.008c3.715,6.231,9.547,11.663,10.346,19.227c1.969,14.742,3.671,29.617,7.948,43.93
		c1.273,3.848,1.273,8.748,5.018,11.19c7.504,6.231,18.398,9.399,22.113,19.271c4.958,10.968,11.723,21.047,16.725,31.956
		c0.696,12.418-2.176,24.896-1.214,37.358c1.51,5.299,5.047,9.724,7.948,14.328c6.261,0.118,12.685-0.444,18.813,1.243
		c7.919,2.176,15.867,4.278,23.904,6.069c0.696,8.629,2.413,17.362,1.614,25.991c-3.922,5.832-10.198,9.65-14.017,15.571
		c-0.888,7.045-0.222,14.18-0.222,21.269c4.855,4.5,10.109,8.555,14.875,13.173c4.722,4.588,2.161,11.826,3.33,17.643
		c2.324,3.108,6.083,4.722,9.28,6.838c6.572,3.774,12.685,8.407,19.582,11.634c6.631-3.049,12.478-8.155,17.614-13.336
		c3.863-10.568,5.21-21.95,8.866-32.592c1.628-4.411,5.817-8.2,4.958-13.247c-4.426-6.912-13.425-9.917-16.548-17.909
		c-5.847-12.995-13.277-25.133-20.811-37.195c-4.514-6.424-2.028-14.668-2.635-21.95c0.4-7.637-2.916-14.624-5.669-21.536
		c-3.597-8.526-4.544-17.821-6.394-26.82c10.583-1.081,21.24-0.681,31.882-1.051c1.317-3.774,2.546-7.578,3.73-11.397
		c-6.35-4.085-13.617-6.305-20.396-9.517c-4.81-2.324-10.405-3.582-14.105-7.682c5.373-2.871,10.731-5.906,16.533-7.874
		c6.291-1.628,13.04,0.755,19.271-1.391c4.307-1.48,8.496-3.286,12.803-4.825c0.71-5.254,1.006-10.553,0.725-15.852
		c-6.735-4.84-14.727-7.919-20.84-13.573c-2.413-5.343-3.745-11.116-5.477-16.711c-3.108-10.435,0.044-21.299-0.548-31.911
		c-2.827-9.058-7.341-17.51-10.449-26.465c-1.332-3.982-1.687-8.6-5.092-11.501c-12.241-12.433-23.667-25.651-36.603-37.388
		c-8.17-8.126-17.036-15.512-25.132-23.697c-7.711-7.711-16.074-14.712-24.984-20.973c-13.01-9.636-25.799-19.567-38.838-29.144
		c-12.507-8.229-25.014-16.459-37.521-24.674c-25.961-18.043-55.149-30.609-82.621-46.091
		c-21.935-9.872-44.137-19.168-66.191-28.759c-10.716-4.144-21.995-6.498-32.918-10.006c-16.607-5.225-33.214-10.479-49.999-15.127
		c-9.858-3.271-19.982-5.698-30.298-6.912c-19.301-3.7-38.75-6.616-58.139-9.769c-11.723-2.531-23.638-3.996-35.597-4.707
		c-22.143-2.723-44.537-1.983-66.694-4.485C834.823,33.575,817.002,33.102,799.226,33.131 M432.792,143.904
		c-39.223,22.838-76.567,48.918-111.305,78.121c-61.499,50.665-114.28,111.394-158.551,177.511
		c-6.749,10.968-13.691,21.817-20.307,32.844c-7.016,13.203-15.526,25.591-21.684,39.253
		c-10.124,18.916-18.561,38.646-27.397,58.169c-5.654,16.385-13.499,31.985-18.146,48.726c-3.626,12.374-8.688,24.289-11.767,36.84
		c-5.965,22.039-11.353,44.241-16.474,66.502c-2.635,16.415-5.151,32.859-7.785,49.288c-1.169,13.795-3.064,27.515-4.574,41.266
		c0.252,13.81-1.776,27.501-1.377,41.31c0.089,22.202-0.666,44.433,1.081,66.591c-0.696,12.019,2.709,23.682,3.079,35.641
		c0.636,13.928,4.352,27.471,5.388,41.355c3.819,23.312,8.318,46.52,14.712,69.27c3.019,15.038,8.126,29.499,12.433,44.196
		c8.067,25.517,18.028,50.369,28.3,75.057c20.529,46.535,45.706,90.998,74.435,132.959c35.997,50.872,76.952,98.458,123.901,139.546
		c10.479,9.784,21.699,18.738,32.622,28.019c45.336,35.582,93.677,67.612,145.644,92.7c30.254,15.275,61.81,27.752,93.544,39.593
		c13.469,4.189,26.894,8.57,40.348,12.833c34.324,9.118,68.855,17.806,104.156,22.187c7.016,0.829,13.854,2.901,20.944,3.242
		c9.103,0.799,18.309,0.947,27.264,2.931c9.828,2.057,19.922,0.503,29.839,1.628c11.989,1.776,24.141,0.755,36.233,1.036
		c16.814-0.296,33.732,0.858,50.472-1.258c9.932-0.311,19.922,0.059,29.75-1.821c11.915-2.028,24.629-0.429,36.041-4.721
		c-0.962-4.485-2.516-8.881-2.664-13.469c1.835-7.46,6.883-13.721,8.481-21.24c0.178-6.009-1.125-11.93-1.584-17.895
		c-6.483-0.518-12.921-1.317-19.404-1.613c-3.686-6.794-9.488-12.033-14.268-18.013c-7.06-8.703-14.934-16.696-23.12-24.304
		c-2.664-2.294-4.781-5.521-8.215-6.675c-9.132-13.987-24.6-21.314-38.439-29.677c-10.435-5.98-19.671-13.721-29.188-21.003
		c-2.679-1.628-2.013-5.018-2.161-7.608c0.044-10.42,0.03-20.825-0.34-31.216c3.197-5.24,6.335-10.538,8.792-16.178
		c1.613-3.064,2.649-7.179,6.409-8.244c6.883-2.59,13.958-4.588,20.825-7.223c7.327-1.865,7.978-10.672,10.982-16.415
		c3.182-14.772-0.622-30.713,4.278-45.292c-7.637-1.969-15.526-2.354-23.342-2.975c-7.489,0.059-14.653,2.886-22.157,2.753
		c-8.348,0.814-15.689-3.848-23.43-6.039c-12.596-5.21-25.784-9.058-37.965-15.127c-4.722-7.075-7.119-15.408-11.086-22.897
		c-3.493-6.379-4.796-14.224-10.435-19.212c-4.633-4.263-9.384-8.377-14.032-12.611c-6.572-6.009-14.461-10.228-21.699-15.305
		c-8.866-6.276-19.419-9.251-29.188-13.735c-11.027-4.278-21.654-9.665-33.051-12.936c-19.39-6.379-38.986-12.27-57.636-20.633
		c-3.241-1.525-5.832-4.056-8.466-6.379c-8.348-7.445-16.4-15.216-24.836-22.527c-5.343-4.574-9.858-10.42-16.577-13.04
		c-7.889-3.878-16.267-7.016-23.549-11.959c-5.639-6.883-10.746-14.357-15.008-22.157c0.533-7.563,6.72-14.313,4.633-22.128
		c-2.161-8.54-3.597-17.377-7.134-25.488c-7.327-14.416-14.579-28.892-21.669-43.412c-6.157-19.123-9.044-39.179-15.985-58.05
		c-0.932-1.983-1.451-4.396-3.286-5.728c-2.635-0.015-5.24,0.326-7.83,0.562c-1.08,7.386,2.013,14.372,3.464,21.462
		c2.398,12.566,3.612,25.502,8.363,37.477c1.895,5.032,3.049,10.42,5.876,15.053c4.855,6.883,11.649,12.27,15.689,19.745
		c-6.276-0.785-12.418-2.768-18.013-5.684c-5.328-3.967-9.162-9.532-14.017-14.032c-3.626-3.449-6.838-7.445-8.333-12.27
		c-5.062-15.142-11.308-29.898-15.438-45.336c-8.333-30.165-17.702-60.019-26.272-90.125c-1.377-7.312,0.089-14.712,1.14-21.965
		c0.444-6.009,1.08-11.989,1.613-17.984c0.71-24.94,5.817-49.436,9.636-74.006c8.141-19.36,16.163-38.942,27.486-56.718
		c6.291-12.433,16.4-22.143,24.703-33.155c-2.176-9.798-5.24-19.567-5.18-29.706c-0.592-16.222,2.087-32.326,2.694-48.518
		c5.55-20.81,13.143-41.147,17.347-62.328c2.413-8.97,4.514-18.013,6.335-27.101c0.71-8.333-0.814-16.666-1.095-24.984
		c-0.222-9.221-5.343-17.214-7.83-25.873c-1.687-7.297-9.65-9.71-15.63-12.537c-11.056-8.17-24.925-10.731-37.462-15.793
		c-8.984-2.871-16.933-8.673-26.154-10.612c-2.102-1.776-5.121-2.901-5.994-5.713c-2.131-6.365-4.47-12.714-5.713-19.33
		c1.006-0.104,3.005-0.326,4.011-0.429c4.263,4.796,9.458,8.718,14.757,12.3c5.151,2.265,10.938,2.827,16.518,2.99
		c2.694-9.784,6.054-19.375,10.686-28.418c2.694-4.929,3.967-11.249,9.103-14.357c4.796-3.064,9.34-6.513,14.12-9.621
		c2.457-1.658,5.536-0.681,8.259-0.37c7.682,1.569,15.305,3.582,23.149,4.278c6.646-8.215,7.948-19.197,14.002-27.664
		c6.143,0.977,12.359-0.844,18.487,0.252c3.375,0.503,6.705,1.391,10.154,1.451c4.707-1.436,8.422-5.373,13.499-5.861
		c6.409-0.725,12.877-0.503,19.33-0.651c7.445-0.281,14.032,3.774,20.559,6.794c0.725,3.034,1.599,6.054,2.842,8.94
		c0.636,6.187,2.25,12.211,3.7,18.25c1.924,8.348-0.444,17.066,1.599,25.399c2.738,5.314,6.675,9.917,10.05,14.831
		c4.352,6.749,9.547,13.898,16.888,17.48c3.685,5.121,8.925,8.762,13.454,13.069c12.477,11.367,26.287,21.092,39.445,31.645
		c10.42,7.771,20.307,16.252,30.949,23.741c1.732-5.047,2.383-10.39,2.709-15.704c-5.521-6.838-14.727-10.065-20.13-17.081
		c-1.776-5.92-1.717-12.315-4.233-18.013c-4.87-5.95-11.797-9.828-16.755-15.689l0.059-0.932c4.603-5.106,9.739-9.872,15.26-13.987
		c8.022-1.169,16.193-1.347,24.304-1.747c2.487,3.315,4.84,6.72,7.208,10.109l0.844,0.385c1.776,4.189,3.848,8.496,7.356,11.545
		c5.166,4.011,11.959,5.462,16.814,9.902c2.309,3.937,3.286,8.496,5.092,12.685c6.394,12.936,1.983,27.752,4.455,41.473
		c2.087,3.049,5.61,4.692,8.496,6.927c3.863-3.153,8.185-5.98,11.071-10.124c2.827-8.718,3.182-17.998,4.396-27.012
		c5.047-1.066,10.302-1.406,15.438-0.71c2.427,0.207,2.013,3.049,2.368,4.751c1.391,11.012,1.273,22.32,4.633,33.007
		c0.622,2.975,4.204,2.99,6.527,3.908c4.381,0.962,8.614,2.812,13.129,3.227c5.98-1.628,11.871-3.715,17.584-6.157
		c-5.195-3.656-12.181-4.899-15.926-10.39c-6.083-7.948-12.537-15.615-18.235-23.83c4.544-5.817,10.198-10.642,15.63-15.63
		c2.664-2.857,6.942-1.258,10.228-0.577c7.445,2.398,15.379,3.434,22.379,7.09c12.581,6.498,25.014,13.306,37.773,19.478
		c4.973,3.123,10.479,5.373,15.29,8.762c6.912,9.251,7.623,22.794,17.569,29.824c8.422,6.542,19.73,8.111,28.063,14.772
		c5.491,8.022,9.221,17.199,15.112,24.999c-4.1,4.929-8.777,9.384-12.522,14.579c-2.575,6.957-3.33,14.446-5.121,21.639
		c-6.957,1.169-13.81,3.774-20.914,3.419c-5.062-1.391-9.621-4.085-14.431-6.083c-8.141-3.789-17.007-5.506-25.532-8.17
		c-8.866-2.265-18.087-2.62-26.923-5.092c0.607-1.924,1.613-3.715,3.375-4.81c6.231-4.603,12.492-9.162,18.413-14.18
		c1.155-1.199,2.99-2.294,2.96-4.203c0.77-7.771,1.347-15.63,0.932-23.445c-1.613-3.745-4.263-6.883-6.453-10.257
		c-1.909-2.546-3.419-5.846-6.72-6.779c-10.464-3.804-21.255-6.646-31.941-9.769c3.908,5.032,8.851,9.132,12.684,14.209
		c1.658,1.954-0.681,3.996-1.643,5.639c-5.077,6.217-9.473,13.262-16.415,17.613c-9.384,7.356-19.834,13.499-27.915,22.394
		c-10.982,11.116-23.978,20.988-30.668,35.552c-3.952,5.743-9.369,11.234-9.887,18.561c-0.622,5.61-0.266,11.293-1.11,16.888
		c-0.622,4.677-1.658,9.502-0.666,14.209c2.635,4.766,5.832,9.192,8.866,13.736c1.362,2.797,4.84,2.561,7.445,3.241
		c5.565,2.22,11.649,2.59,17.406,4.204c8.703,1.939,16.755,5.861,24.822,9.532c1.391,1.066,4.159,1.332,4.174,3.538
		c0.725,7.608,1.451,15.216,2.472,22.794c2.265,4.736,5.802,8.747,8.289,13.38c4.115,8.067,11.737,13.351,18.62,18.886
		c1.554-5.595,2.738-11.279,3.508-17.021c1.08-10.331,3.508-20.47,4.352-30.831c-0.192-7.637,6.29-12.803,9.325-19.242
		c-2.975-4.514-7.43-7.859-10.198-12.463c-1.628-9.828-1.421-19.804-1.998-29.706c-1.332-10.953-1.362-22.024-0.71-33.022
		c0.429-0.37,1.303-1.11,1.732-1.495c5.565-0.636,10.701-3.301,16.222-3.878c12.241,4.5,23.889,10.494,36.159,14.964
		c10.494,3.123,13.706,15.023,21.773,21.299c12.078,4.899,25.399,3.671,37.995,6.024c3.671,1.539,6.586,4.381,9.784,6.734
		c10.834,8.422,22.024,16.385,32.74,24.97c7.445,6.883,13.247,15.305,20.144,22.735c7.075,6.986,9.044,17.066,12.625,25.991
		c2.339,4.174-2.279,8.037-1.687,12.181c-3.227,3.671-3.745,10.006-8.984,11.515c-5.92,2.383-11.722,5.047-17.628,7.445
		c-8.17,3.286-17.747,0.977-25.399,5.743c-7.593,4.322-15.941,7.401-22.986,12.596c-4.914,4.529-9.473,9.428-13.928,14.402
		c-2.057,1.687-1.169,4.352-0.888,6.601c12.137-3.7,21.625-12.211,31.364-19.908c5.565,1.362,11.367,2.191,16.622,4.648
		c3.049,5.136,1.243,11.767,3.552,17.199c10.612,4.855,21.802-1.066,32.785-0.4c4.1,4.677,5.477,11.441,7.593,17.303
		c-10.553,6.764-21.58,12.759-32.578,18.768c-8.969,3.256-13.513,11.915-20.381,17.821c-4.544-2.413-8.999-5.018-13.765-6.942
		c-4.796,0.77-9.354,3.286-13.395,5.935c-4.292,5.713-7.697,12.063-11.752,17.939c-4.588,6.438-6.438,14.224-9.65,21.343
		c-4.751,1.85-11.012,2.102-13.721,7.09c-3.493,5.328-7.179,10.524-10.79,15.749c-4.174,6.927-5.639,15.053-8.762,22.453
		c-1.747,5.417-5.166,10.464-5.136,16.326c0.03,9.147-1.243,18.235-1.362,27.382c-6.646,5.669-13.04,11.634-19.908,17.036
		c-8.496,6.823-18.176,12.196-25.961,19.848c-3.73-0.03-5.18,4.07-6.897,6.69c-3.256,6.986-9.236,12.833-10.109,20.796
		c-1.229,6.75-3.434,13.543-2.561,20.5c2.25,7.031,7.045,12.996,9.029,20.145c0.932,3.449,1.791,6.942,3.034,10.331
		c-0.799,5.18,1.465,10.316,1.288,15.571c-5.61,1.835-11.353,3.241-16.933,5.121c-12.137-14.476-21.314-31.127-32.622-46.209
		c-3.315-3.049-7.963-4.041-11.974-5.876c-5.299-1.791-10.094-5.314-15.808-5.536c-7.46-0.37-14.786-2.235-22.246-2.191
		c-3.937,1.081-7.327,3.449-10.938,5.255c-5.195,2.842-11.205,3.582-16.992,4.218c-4.322,0.71-7.993-2.191-11.604-4.041
		c-6.246-4.144-13.987-4.307-21.121-5.61c-5.565-1.125-10.997,0.829-16.37,1.969c-6.72,1.48-13.617,2.309-20.1,4.648
		c-2.102,0.725-2.723,3.227-3.967,4.84c-2.117,1.377-3.227,3.863-4.81,5.787c-5.18,7.563-11.515,14.372-15.926,22.439
		c-2.368,7.001-1.791,14.579-3.404,21.758c-2.117,9.739,1.658,19.39,1.495,29.158c0.37,2.59-0.488,5.876,1.791,7.785
		c4.544,4.411,9.932,7.83,14.712,11.989c5.817,4.618,11.012,10.524,18.339,12.788c5.491,1.746,10.79,4.233,16.459,5.402
		c5.773-0.489,11.441-2.531,16.666-4.988c3.671-4.44,5.521-10.109,9.132-14.594c4.722-3.33,10.657-4.233,16-6.217
		c3.863-1.006,8.17-4.026,11.915-1.066c5.21,3.182,10.938,5.773,15.482,9.902c0.03,5.254-1.273,10.405-1.613,15.63
		c-1.687,4.307-1.613,8.955-2.324,13.454c-1.732,6.616-6.409,11.945-8.585,18.398c-0.592,4.514,1.14,8.955,2.368,13.247
		c6.424,0.059,12.862,0.133,19.286-0.488c9.591-1.288,18.605,2.99,27.767,5.047c10.509,2.146,18.96,9.354,26.909,16.089
		c0.089,4.796-0.548,9.576-0.74,14.372c-0.296,7.253-3.523,13.913-5.758,20.707c-3.819,6.276-0.252,13.898,4.026,18.916
		c7.09,5.847,14.742,11.071,22.365,16.193c10.479,3.182,21.654,2.206,32.37,4.085c5.388,0.681,10.583,2.368,15.956,3.182
		c6.009-4.47,10.287-10.982,16.415-15.393c7.741-5.565,14.046-13.351,23.09-16.918c4.81-2.013,9.517-4.248,14.224-6.498
		c2.945-1.317,6.246-3.286,9.502-1.628c11.427,4.041,22.735,8.54,34.428,11.811c7.312-1.924,13.321-7.282,20.766-8.718
		c15.763-0.34,31.526-1.199,47.305-1.199c14.091-1.155,27.382-6.823,41.429-8.363c4.085,0.444,7.741,2.516,11.723,3.493
		c5.032,3.182,10.746,4.988,16.163,7.386c10.494,4.381,20.944,9.65,32.504,10.405c8.451,1.717,16.932,3.375,25.428,4.914
		c18.753,0.474,37.551-0.429,56.334-0.074c3.182,0.059,5.536,2.59,8.2,4.07c0.119,1.554,0.918,2.916,1.998,4.07
		c5.95,6.883,11.945,13.75,17.85,20.692c3.227,3.774,6.113,8.022,10.479,10.627c14.535-1.554,29.01-3.671,43.486-5.758
		c16.222-4.07,32.607-7.445,48.815-11.604c11.367-2.901,21.047-12.048,33.244-11.19c4.5,1.687,8.881,3.834,12.611,6.942
		c4.603,3.789,10.006,6.705,13.854,11.338c-1.554,5.047-5.654,8.807-8.23,13.351c-9.562,14.431-19.922,28.344-29.736,42.613
		c-4.411,9.28-7.119,19.316-11.545,28.64c-4.159,7.623-2.753,16.503-3.049,24.822c8.881-5.684,15.674-13.913,23.978-20.352
		c34.398-31.749,66.857-65.747,95.364-102.928c21.24-26.687,39.934-55.253,57.813-84.249c6.986-13.217,15.083-25.843,21.595-39.327
		c13.884-25.562,25.369-52.352,35.76-79.497c5.077-12.152,9.517-24.54,13.307-37.151c11.515-30.994,18.368-63.438,25.591-95.631
		c2.872-19.197,6.513-38.306,8.511-57.621c-5.328,1.88-11.412,3.493-14.727,8.451c-9.695,14.638-19.242,29.38-28.315,44.404
		c-9.991-0.044-19.331-4.115-29.099-5.61c-4.796-0.207-7.045-5.047-11.042-6.705c-4.707-7.845-11.871-13.75-17.747-20.633
		c-5.136-5.373-7.49-12.522-10.598-19.079c-3.049-6.365-5.802-12.862-8.822-19.227c-7.238-14.194-10.657-29.869-15.926-44.818
		c-5.358-15.038-4.203-31.453-8.348-46.683c-1.258-12.699-0.533-25.458-0.622-38.172c0.252-14.046-0.651-28.152,1.169-42.124
		c0.296-5.92,1.554-12.285-1.273-17.821c-9.103-19.982-17.821-40.259-23.652-61.44c1.613-10.879,4.988-21.787,11.071-31.068
		c5.476-7.563,3.7-17.791,1.465-26.198c-4.929,11.708-5.965,24.674-10.509,36.515c-4.766,6.054-11.752,10.006-17.791,14.698
		c-2.383,2.294-4.914-0.207-7.045-1.421c-8.422-5.417-17.362-10.08-25.414-16.03c-3.064-5.21-1.658-11.811-3.123-17.539
		c-3.759-4.692-8.896-7.993-13.262-12.048c-1.776-1.761-4.44-3.286-4.159-6.143c-0.34-6.809-0.592-13.691,0.133-20.485
		c2.279-4.781,6.882-7.919,10.376-11.782c1.88-2.205,4.855-4.248,4.381-7.534c-0.207-5.965-0.281-12.004-1.465-17.865
		c-0.4-0.385-1.184-1.155-1.584-1.525c-6.853-2.694-14.224-3.671-21.284-5.698c-6.083-1.821-12.477-0.533-18.664-1.288
		c-2.945-2.871-4.662-6.675-6.838-10.08c-1.406-2.516-3.463-4.973-3.182-8.022c0.059-7.682-0.326-15.452,1.302-23.016
		c0.873-5.654,1.806-12.048-1.746-17.007c-5.817-9.266-10.198-19.301-15.497-28.862c-3.064-6.291-9.932-8.984-15.26-12.921
		c-3.301-2.457-7.845-4.307-8.984-8.644c-1.939-6.572-3.049-13.351-5.166-19.863l-1.125-0.34c0.651-10.228-3.123-20.041-3.745-30.18
		c-0.015-6.409-4.485-11.219-7.741-16.281c-4.825-7.46-10.006-14.683-14.994-22.039c-7.164-9.784-6.217-22.661-10.849-33.51
		c-19.093-5.698-36.041-16.341-52.973-26.553c-1.954,2.235-7.356,4.944-4.381,8.348c2.427,3.804,8.363,6.276,8.259,11.116
		c-4.737,4.796-10.642,8.2-15.763,12.522c5.432,2.176,11.723,2.279,16.577,5.817c3.182,2.235,6.261,4.633,9.488,6.823
		c9.103,5.98,16.089,14.446,24.037,21.773c7.741,8.274,19.39,10.746,28.33,17.347c0.636,1.169,0.784,2.546,1.243,3.804
		c-7.415,1.983-14.254,5.624-21.269,8.614c-7.711,2.945-6.675,13.469-12.729,18.057c-5.98-0.414-11.708-2.339-17.554-3.463
		c-8.348-1.465-15.408-6.365-22.912-9.961c-4.278-2.353-9.295-4.278-11.811-8.748c-5.595-9.221-11.027-18.546-16.755-27.678
		c-3.079-4.796-8.215-7.623-12.433-11.279c-7.519-6.483-17.199-9.369-25.724-14.18c-12.936-6.986-26.361-12.981-39.253-20.041
		c-4.885-2.413-7.623-7.282-10.524-11.619c-4.041-6.202-8.792-11.885-12.818-18.087c4.381-3.537,9.458-6.098,13.721-9.784
		c4.574-0.71,8.17-4.337,12.833-5.032c11.071-2.309,22.261-4.144,33.495-5.624c0.03-5.254-0.962-10.746-3.819-15.216
		c-3.996-2.25-8.6-2.975-13.01-3.967c-1.613,3.108-2.871,6.572-5.417,9.073c-9.591,0.459-19.227,0.178-28.818,0.207
		c0.918-6.143,3.493-11.9,4.13-18.102c-5.18-2.309-10.731-3.952-15.497-7.09c-6.231-5.669-9.206-14.476-16.844-18.709
		c-24.289-14.875-47.704-31.097-71.179-47.216c-2.738-2.191-5.994,0.4-8.407,1.821c-6.098,3.626-8.17,12.107-15.453,13.928
		c-5.802,1.702-11.412,4.174-17.421,5.032c-5.669-1.554-10.583-5.151-16.415-6.157c-9.236-1.835-18.561-4.396-28.048-3.315
		c-7.164,0.888-14.402,0.696-21.551,1.451c-7.874,3.167-13.928,10.642-22.868,10.997c-11.915,0.962-23.652,5.639-35.686,3.197
		c-9.517-2.102-19.538-1.895-28.655-5.624c-4.899-1.924-10.109-3.241-14.609-6.054c-1.658-4.722-2.013-9.784-3.167-14.638
		c-8.126-1.184-16.355-1.154-24.54-1.199c-8.259-1.006-11.871,8.17-18.383,11.367c-13.425,1.85-27.338-0.015-40.407,4.085
		c-6.868,1.495-13.765,2.857-20.485,4.87c-0.044,5.21,0.355,10.435-0.178,15.63c-4.07,4.618-9.902,7.253-15.142,10.302
		c-10.435,3.641-21.802,2.427-32.518,4.588c-5.062,1.821-8.866,5.832-13.025,9.058c1.643,5.225,3.123,10.494,4.144,15.867
		c-6.305,4.337-12.877,9.251-20.796,9.784c-10.686,1.362-21.417,2.324-31.971,4.485c-3.138,8.185-3.375,17.021-3.789,25.665
		l0.918,1.184c-1.599,4.041-4.692,7.075-8.57,8.94c-7.327,3.715-12.315,10.361-17.954,16.104
		c-11.693,11.486-22.157,24.333-35.345,34.22c-4.529,3.389-8.555,8.007-14.298,9.28c-7.83,1.954-15.778,3.523-23.815,4.233
		c4.707-10.997,13.336-19.819,18.043-30.787c-0.459-2.871-1.362-5.639-2.161-8.422c-6.217-0.178-12.463,0.385-18.664-0.118
		c-5.817-3.73-8.555-10.686-12.966-15.852c-3.345-5.743-7.223-11.175-10.213-17.11c7.341-8.674,14.461-17.717,23.49-24.733
		c4.529-3.404,8.229-8.97,14.446-9.118c3.167-0.71,6.735-0.414,9.606-2.117c3.626-5.95,6.379-12.403,9.946-18.398
		c3.301-4.988,0.992-11.071-0.414-16.281c-0.266-4.884-0.829-9.739-1.184-14.609c15.171-6.897,30.431-13.662,45.07-21.669
		c-0.355-9.28,0.932-18.472,1.184-27.723c-6.794-6.631-14.032-14.594-24.2-15.068C491.582,111.474,461.728,126.971,432.792,143.904
		 M1447.209,305.503c1.924,8.555,7.001,15.941,9.325,24.348c0.918,6.853-0.814,13.736-0.696,20.618
		c-0.518,7.386,2.057,14.431,4.189,21.388c1.095,3.064,1.969,6.646,5.018,8.437c6.039,4.07,12.596,7.341,18.546,11.575
		c0.015,6.276,0.444,12.655-0.829,18.842c-5.639,3.863-12.685,5.373-19.182,7.282c-8.777,0.044-18.857-0.977-25.354,6.291
		c7.534,3.789,15.334,7.045,23.09,10.376c2.842,1.214,5.639,2.635,8.111,4.544c-1.85,5.121-3.36,10.346-5.032,15.541
		c-10.139,0.622-20.307-0.074-30.431,0.873c0.266,12.64,6.113,24.096,10.183,35.789c3.493,10.553-2.649,23.105,4.426,32.563
		c6.394,10.124,12.981,20.174,17.688,31.245c3.256,8.096,10.198,13.691,16.888,18.886c5.684-9.147,1.939-19.863,2.205-29.854
		c-1.48-16.666,0.932-33.303,2.057-49.91c1.554-2.324,4.988-2.161,7.282-3.641c6.927,0.207,13.573,2.205,20.292,3.76
		c-0.518-10.094,0.207-20.337-1.983-30.254c-2.679-5.462-7.105-9.813-10.627-14.698c-7.001-8.155-12.448-17.436-17.85-26.687
		c3.76-0.947,7.608-1.451,11.5-1.776c2.368-4.44,6.838-9.118,4.973-14.505c-2.265-8.673-6.231-17.258-5.121-26.435
		c0.015-5.669,2.427-12.27-1.747-17.051c-7.549-9.754-14.402-20.041-22.483-29.351
		C1463.401,324.39,1456.607,313.703,1447.209,305.503 M516.893,342.817c-7.919-2.324-16.607-2.783-24.437,0.03
		c-3.552,8.866-6.439,18.294-12.433,25.917c-10.435,1.48-20.544-4.81-31.068-4.174c-7.371,5.092-17.036,8.866-20.396,17.865
		c-3.138,6.838-6.809,13.469-8.984,20.707c-1.569,5.136-3.079,10.331-5.447,15.186c-6.098-1.243-12.359-1.658-18.309-3.493
		c-4.633-2.353-7.963-6.69-12.833-8.703c1.214,4.544,1.569,10.124,5.21,13.454c14.476,7.519,29.706,13.543,45.218,18.59
		c11.368,3.478,21.225,10.228,31.749,15.526c3.759,1.673,5.018,5.832,6.779,9.206c1.791,8.081,6.498,15.364,7.045,23.756
		c0.799,11.56,3.034,23.43-0.015,34.842c-3.685,15.482-6.661,31.157-11.441,46.357c-3.33,10.568-6.187,21.284-9.606,31.837
		c-2.072,6.024-1.332,12.477-2.146,18.709c-1.45,13.262-2.561,26.627-1.465,39.963c0.77,8.407,4.426,16.355,4.588,24.851
		c-3.301,5.506-8.052,9.961-11.974,14.994c-8.703,9.576-14.091,21.491-20.958,32.326c-6.661,12.507-11.649,25.813-17.539,38.676
		c-4.574,14.609-4.929,30.15-8.215,45.055c-2.117,9.058-1.317,18.428-2.457,27.604c-0.992,14.268-3.982,28.537-2.975,42.864
		c7.83,29.706,17.525,58.909,25.591,88.556c4.144,16.281,10.938,31.719,16.163,47.66c1.643,5.624,6.439,9.325,10.198,13.513
		c5.166,5.388,10.035,12.137,18.013,13.203c-3.197-6.453-9.798-10.672-11.989-17.673c-2.783-8.614-6.749-16.918-8.037-25.947
		c-2.339-13.232-4.81-26.435-7.815-39.519c-0.044-2.057-1.421-4.781,0.355-6.394c4.07-1.747,8.526-2.309,12.788-3.493
		c2.398,3.271,3.612,7.164,4.899,10.982c6.498,18.191,9.162,37.477,15.26,55.801c7.149,15.29,15.156,30.195,22.498,45.395
		c2.886,7.963,4.352,16.37,6.631,24.526c2.102,7.208-2.694,13.617-4.366,20.337c-0.785,2.531,1.539,4.529,2.679,6.557
		c3.908,5.032,6.764,10.864,11.101,15.571c11.515,7.401,25.917,10.42,35.449,20.766c11.797,10.376,22.986,21.491,35.138,31.423
		c22.646,10.953,47.231,16.977,70.809,25.547c14.846,6.438,30.017,12.196,44.744,18.946c11.634,7.297,23.638,14.387,33.51,24.082
		c4.204,4.13,9.325,7.401,12.877,12.167c6.513,12.463,11.19,25.976,18.265,38.098c15.911,7.371,32.681,12.922,49.184,18.901
		c7.978,3.019,16.489,0.266,24.629-0.563c7.83-1.539,15.675,0.622,23.534,0.814c3.967,0.548,8.836-0.222,11.811,3.094
		c-5.95,7.726-3.256,17.895-4.337,26.864c-1.066,8.348,1.214,17.436-3.094,25.118c-2.265,4.041-3.478,8.984-6.927,12.196
		c-8.54,4.396-18.428,5.551-26.835,10.213c-4.248,6.735-7.386,14.18-10.997,21.299c-1.554,8.511,0.044,17.303-0.503,25.932
		c0.355,3.493-1.199,8.126,2.279,10.479c4.011,3.449,8.437,6.409,12.596,9.695c12.64,10.02,27.575,16.563,40.6,25.991
		c11.234,9.917,21.521,20.87,32.267,31.334c9.887,9.443,17.539,20.914,27.146,30.609c6.098,3.064,13.232,0.888,19.7,2.427
		c1.184,5.817,1.228,11.812,1.806,17.717c0.755,7.652-4.337,14.076-7.016,20.855c-3.227,5.521,0.636,11.53,1.924,17.051
		c12.537-0.844,24.674-4.352,37.062-6.217c14.653-3.093,29.366-5.876,44.004-9.117c17.258-4.485,34.25-9.917,51.271-15.231
		c11.589-3.878,23.756-5.98,34.931-11.056c14.831-6.646,30.061-12.33,44.907-18.946c10.124-4.707,20.958-7.859,30.579-13.617
		c27.634-15.378,55.475-30.417,83.05-45.913c22.646-16.193,44.966-32.888,67.464-49.318c3.952-2.886,8.57-5.151,11.604-9.103
		c2.176-9.206-0.844-19.227,3.301-28.034c3.612-8.333,6.897-16.814,10.124-25.31c3.079-8.511,9.517-15.082,14.49-22.468
		c7.282-10.982,15.556-21.269,22.38-32.548c0.681-1.465,1.954-2.931,1.672-4.648c-4.189-4.352-9.414-7.504-14.224-11.086
		c-4.662-3.508-11.19-5.388-16.74-2.96c-10.509,4.485-20.781,9.872-32.074,12.152c-14.061,3.123-28.019,6.661-42.124,9.591
		c-9.636,1.672-19.449,2.146-29.07,3.922c-5.965,0.666-12.27,2.827-18.043,0.163c-3.907-5.906-8.792-11.027-13.395-16.37
		c-6.587-6.912-11.826-15.127-19.079-21.358c-19.108-0.903-38.32,0.474-57.444-0.311c-11.323-1.672-22.572-3.848-33.836-5.876
		c-8.037-1.273-15.097-5.58-22.661-8.303c-9.932-3.76-19.286-9.088-29.514-11.959c-12.137,2.102-23.978,5.684-36.056,8.052
		c-16.074,1.051-32.237-0.207-48.296,1.021c-9.206,0.622-16.489,7.09-25.088,9.606c-11.649-3.671-23.075-8.126-34.679-11.93
		c-3.834-1.376-7.445,1.066-10.82,2.531c-6.853,3.493-14.594,5.506-20.441,10.716c-5.506,4.722-11.441,8.91-16.799,13.795
		c-4.544,4.485-8.762,9.34-13.78,13.336c-15.438-3.626-31.216-5.269-47.023-6.246c-4.44-0.133-7.43-3.982-10.909-6.217
		c-5.787-4.633-12.418-8.141-17.835-13.203c-2.649-4.204-4.204-9.103-5.077-13.958c1.539-8.052,5.491-15.423,7.312-23.401
		c1.08-5.698,0.844-11.53,0.71-17.288c-4.292-2.605-8.244-5.684-12.374-8.481c-6.172-4.322-13.869-5.047-20.825-7.371
		c-12.833-4.884-26.701-0.607-39.948-2.709c-1.436-5.18-3.508-10.45-2.931-15.926c2.146-7.341,7.993-13.218,8.955-20.988
		c1.11-8.303,3.094-16.474,3.656-24.837c-5.21-3.345-10.183-7.193-15.941-9.502c-7.238,1.525-14.328,4.144-21.018,7.267
		c-4.914,4.248-6.542,11.042-10.849,15.808c-5.832,2.353-11.959,4.633-18.235,5.225c-10.361-3.153-21.758-5.462-29.854-13.188
		c-6.927-5.935-14.18-11.456-21.136-17.332c-2.575-1.909-3.064-5.195-3.375-8.141c-1.095-11.456-2.368-22.986-2.205-34.413
		c2.709-6.942,1.687-14.772,4.751-21.551c6.335-9.739,13.78-18.694,20.47-28.182c1.747-2.191,3.241-5.032,6.187-5.743
		c8.792-2.546,17.88-3.878,26.805-5.891c7.267-1.835,14.653,0.326,21.876,1.288c5.802,0.533,10.464,4.218,15.512,6.749
		c3.404,2.028,7.504,0.962,11.219,0.607c7.741-0.755,13.484-6.661,20.677-8.955c3.73-0.577,7.489,0.503,11.219,0.814
		c7.475,1.11,15.497,0.37,22.35,4.115c6.054,3.064,12.699,4.84,18.635,8.126c5.077,4.884,8.244,11.397,12.448,17.021
		c6.157,10.08,13.513,19.331,20.041,29.173c4.603-1.066,9.206-2.22,13.528-4.189c-2.279-9.28-2.413-19.212-6.838-27.871
		c-2.516-5.536-6.054-10.686-7.43-16.636c0.385-7.06,2.309-13.913,3.301-20.9c1.243-9.932,10.42-16.444,12.566-26.006
		c7.415-4.1,13.839-9.68,20.751-14.52c10.391-7.164,20.263-15.216,29.247-24.052c1.288-10.494,0.252-21.329,2.487-31.719
		c3.863-10.42,7.637-20.884,11.723-31.216c3.952-7.105,9.044-13.543,13.632-20.263c2.723-4.292,8.289-4.47,12.374-6.823
		c2.235-2.561,2.931-6.039,4.292-9.088c3.153-8.955,9.34-16.326,14.031-24.466c3.641-7.341,12.107-9.991,19.301-12.433
		c4.648,1.954,8.955,4.662,13.588,6.735c3.375-3.508,6.246-7.475,9.68-10.938c4.618-4.13,10.583-6.246,15.896-9.31
		c8.067-4.603,16.015-9.414,24.111-13.958c-1.776-4.352-3.597-8.703-5.595-12.936c-11.545,1.125-23.638,4.899-34.724-0.488
		c-1.036-5.565-0.222-11.604-2.353-16.859c-4.159-1.717-8.555-2.857-12.996-3.478c-3.434,1.08-5.876,3.996-8.673,6.143
		c-7.282,6.601-16.281,10.968-25.562,13.987c-1.229-3.301-3.182-6.927-1.895-10.494c2.265-3.108,5.254-5.58,7.919-8.333
		c4.5-4.366,8.274-9.798,14.239-12.315c6.661-3.049,13.055-6.616,19.478-10.124c4.618-2.635,10.08-2.383,15.186-3.005
		c7.06-0.355,13.291-4.026,19.774-6.439c3.878-1.747,8.984-2.783,10.509-7.341c1.939-5.462,6.853-11.145,4.085-17.11
		c-3.02-7.534-4.677-16.015-10.465-22.069c-5.314-6.054-10.538-12.181-15.674-18.383c-5.18-6.335-12.315-10.479-18.62-15.512
		c-6.912-5.447-14.15-10.479-21.003-16.015c-2.975-2.235-5.95-5.062-9.872-5.24c-12.048-0.992-24.289-1.88-35.908-5.328
		c-6.261-5.595-9.65-13.884-16.296-19.034c-11.811-5.758-24.259-10.124-36.189-15.645c-5.92-3.301-12.033,1.406-17.835,2.738
		c-0.666,18.546,0.192,37.092,1.554,55.593c-0.444,7.756,9.325,10.672,10.894,17.495c-2.161,6.365-8.274,11.012-8.851,17.984
		c-0.548,7.267-2.442,14.328-3.315,21.565c-1.066,11.219-4.455,22.054-5.536,33.288c-5.728-2.738-9.902-7.697-14.742-11.649
		c-6.113-4.973-9.547-12.211-13.958-18.561c-1.924-3.064-4.426-6.098-4.411-9.887c-0.311-6.823-0.74-13.647-2.176-20.322
		c-9.384-3.552-18.072-9.162-28.152-10.598c-7.549-1.732-15.245-3.034-22.557-5.536c-3.286-3.538-5.595-7.859-8.688-11.545
		c-2.605-4.026-4.618-8.644-3.389-13.528c1.761-9.014,1.391-18.235,2.339-27.323c0.829-6.305,5.876-10.805,8.881-16.104
		c4.574-7.134,8.614-14.786,14.949-20.574c8.067-7.711,16.015-15.571,24.082-23.282c7.726-6.113,15.6-12.048,23.638-17.776
		c6.157-4.574,9.946-11.441,14.89-17.169c-3.656-5.21-8.2-9.665-12.625-14.194c-5.994,1.88-11.678,4.692-17.747,6.246
		c-7.149-1.525-14.313-3.582-21.107-6.305c-2.723-3.463-2.427-8.644-3.848-12.803c-1.273-8.614-1.11-17.421-3.019-25.947
		c-3.715,0.059-7.415,0.207-11.101,0.503c-1.599,8.452-2.413,17.095-4.633,25.414c-3.863,4.707-8.377,9.399-13.839,12.152
		c-4.307-2.279-8.526-5.092-11.56-8.94c-1.939-11.249,0.533-22.853-1.628-34.072c-2.22-6.468-4.485-12.966-7.253-19.227
		c-5.062-4.707-12.403-5.935-17.525-10.553c-5.299-6.32-8.303-14.357-14.106-20.292c-5.432-0.104-10.835,0.71-16.252,0.77
		c-2.25,0.222-4.855-0.148-6.513,1.673c-3.967,3.286-7.845,6.72-11.131,10.701c5.269,4.736,11.205,8.866,15.704,14.387
		c2.487,5.654,1.983,12.167,4.204,17.924c6.231,6.527,14.298,10.953,20.958,17.021c-1.495,7.371-2.191,14.875-4.085,22.172
		c-2.886-1.391-5.565-3.123-8.037-5.136c-18.561-14.505-37.284-28.818-55.815-43.382c-10.672-9.014-21.003-18.442-31.512-27.663
		c-6.735-5.847-10.642-14.017-16.059-20.959c-2.324-3.345-5.58-6.587-5.595-10.923c-0.577-8.333,0.859-16.844-1.288-25.029
		c-1.021-4.056-2.117-8.111-2.931-12.211c-0.488-3.641-1.273-7.238-2.265-10.76c-2.442-1.081-4.855-2.205-7.297-3.241
		c-8.555-4.174-18.309-2.353-27.441-2.516C529.607,336.201,524.471,345.304,516.893,342.817 M1498.717,381.596
		c-0.814,9.813,5.195,18.501,5.906,28.122c-0.77,5.047-3.996,9.28-6.187,13.78c-2.812,0.37-5.639,0.725-8.392,1.154
		c4.751,12.078,13.884,21.61,21.714,31.734c1.835,2.561,4.351,4.958,4.722,8.259c1.421,11.16,1.14,22.453,1.554,33.688
		c-8.866-1.14-18.664-6.971-27.175-2.324c-3.863,20.751-3.597,42.169-1.747,63.172c0.903,7.149-2.131,13.884-3.345,20.796
		c-1.391,8.866,0.859,17.717,0.932,26.598c0.059,5.269-3.611,9.488-5.979,13.898c-3.982,6.246-5.625,13.543-7.564,20.589
		c-2.62,7.386,2.383,14.342,4.263,21.284c3.597,12.463,9.266,24.141,14.446,35.997c2.679,6.039,6.217,12.226,5.24,19.108
		c-1.717,24.659-1.081,49.377-1.347,74.08c-0.266,11.9,3.153,23.43,4.174,35.212c0.932,10.272,2.931,20.455,6.498,30.165
		c4.129,11.323,6.616,23.238,11.737,34.206c5.358,11.382,10.539,22.868,15.823,34.309c3.286,7.578,9.946,12.818,15.216,18.96
		c4.707,4.662,8.629,10.124,13.721,14.402c4.144,1.761,8.688,2.427,13.158,3.019c5.166,2.457,10.938,2.857,16.489,3.982
		c2.131-2.694,4.174-5.491,5.935-8.451c6.779-11.782,14.831-22.779,21.876-34.398c3.36-6.69,11.574-7.253,17.451-10.686
		c2.516-1.125,2.072-4.352,2.679-6.587c3.449-27.545,3.685-55.327,4.411-83.035c0.459-9.917-1.273-19.73-1.155-29.632
		c0.385-18.753-1.673-37.447-4.381-55.978c-1.169-17.406-3.908-34.605-7.282-51.701c-3.73-19.049-6.453-38.365-12.27-56.925
		c-1.199-3.005-1.021-7.075-3.271-9.369c-0.474-6.113-2.398-11.945-4.1-17.791c-5.921-21.373-13.809-42.109-21.166-63.024
		c-7.519-18.383-15.882-36.396-23.948-54.543c-5.965-12.137-12.536-23.963-18.487-36.1c-5.55-11.782-13.321-22.276-19.908-33.451
		c-8.733-14.594-18.176-28.744-28.374-42.346C1499.516,374.951,1498.835,378.251,1498.717,381.596 M789.516,470.33
		c4.13,6.35,9.369,11.885,13.795,18.028c2.501,3.404,5.121,7.016,9.177,8.673c9.044,4.144,18.131,8.407,27.871,10.716
		c6.039,1.85,12.389,2.901,18.161,5.565c3.256,3.197,5.462,7.282,8.126,10.968c1.82,2.975,4.381,5.935,4.263,9.65
		c-0.015,8.363-0.829,16.711-0.829,25.088c-6.942,6.601-15.216,11.575-22.379,17.88c6.971,2.191,14.387,2.205,21.417,4.248
		c11.93,3.375,24.022,6.557,35.123,12.211c7.119,4.248,15.438,0.681,22.764-1.051c2.161-6.187,2.901-12.729,4.662-19.005
		c2.975-5.388,7.785-9.488,11.575-14.283c-4.455-7.889-8.259-16.326-13.898-23.416c-10.464-7.016-24.2-9.103-32.533-19.227
		c-3.612-5.166-5.447-11.293-8.111-16.962c-1.599-3.212-2.635-7.193-6.009-8.999c-15.882-8.999-32.355-16.888-48.43-25.532
		c-6.883-3.863-14.668-5.476-22.232-7.415c-2.679-0.488-5.462-1.51-8.155-0.77C798.56,460.65,793.942,465.445,789.516,470.33z"/>
	<path fill="#01000D" stroke="#01000D" stroke-width="0.1388" d="M912.44,326.033c9.177-3.774,19.212-1.451,28.818-1.554
		c5.92,0.37,12.388-0.666,17.746,2.487c10.479,6.187,20.026,14.12,31.305,18.886c9.65,3.419,19.493,6.276,29.277,9.325
		c10.213,2.871,17.466,11.116,26.198,16.666c13.691,8.688,23.993,21.373,35.937,32.104c2.812,2.842,6.75,5.624,6.513,10.109
		c0.37,8.925,0.222,17.865,0.044,26.805c-5.255,5.195-11.175,9.71-16.163,15.171c-3.108,3.005-2.472,7.637-2.783,11.545
		c-0.015,11.308-1.376,22.572-1.214,33.88c0.251,12.389-3.715,24.511-2.916,36.899c1.776,4.884,4.81,9.206,7.667,13.528
		c2.975,5.18,9.502,5.639,14.52,7.8c7.312,2.945,15.393,4.574,21.787,9.428c-2.191,1.036-4.366,2.028-6.601,2.901
		c-19.167,6.113-37.936,13.824-57.651,17.998c-8.866-2.294-16.444-7.815-23.993-12.788c-4.737-3.271-9.872-5.906-14.579-9.192
		c-6.305-3.908-4.544-12.566-8.229-18.206c-5.018-4.855-12.048-6.705-17.539-10.879c-3.76-11.382-3.582-23.638-5.758-35.375
		c-1.155-5.314-0.607-11.811-5.314-15.512c-7.815-7.149-15.571-14.372-23.505-21.373c-8.925-7.238-18.131-14.15-27.205-21.195
		c-9.162-7.282-22.039-8.392-30.046-17.303c-5.373-5.935-11.93-10.805-16.725-17.214c-3.671-7.445-4.796-15.852-8.022-23.49
		c-4.5,3.848-9.014,8.141-10.879,13.943c-3.863,12.048-6.453,24.511-11.086,36.322c-7.711-3.863-14.905-8.644-22.276-13.099
		c-6.068-3.523-9.547-9.858-13.454-15.408c-1.51-2.857-4.529-5.802-3.36-9.266c1.998-6.779,4.84-13.277,7.519-19.804
		c1.391-3.656,3.863-7.43,2.753-11.501c-1.229-5.018-2.99-9.902-4.07-14.964c7.578-3.893,15.556-6.971,23.046-11.086
		c9.014-3.138,18.753-1.969,28.107-1.747c0.785,4.115,1.673,8.215,2.694,12.285c3.937-0.296,8.126,0.237,11.9-1.199
		c6.69-5.062,9.68-13.839,16.888-18.309C898.513,330.725,905.587,328.682,912.44,326.033 M906.328,331.716
		c-4.914,1.969-10.228,3.123-14.742,5.921c-5.669,4.81-8.526,12.241-14.52,16.711c-5.388,1.85-11.234,1.969-16.859,1.821
		c-1.88-3.715-1.155-8.377-2.96-12.226c-7.889,0.37-16.311-1.465-23.697,2.161c-6.868,3.093-13.676,6.276-20.633,9.132
		c0.622,6.971,6.261,13.869,2.871,20.781c-3.597,8.6-7.697,17.036-10.331,26.006c5.284,7.341,9.34,16.267,17.48,20.944
		c5.832,3.449,11.501,7.208,17.554,10.287c3.789-11.678,6.276-23.771,10.612-35.257c3.745-6.246,8.54-12.122,14.328-16.607
		c3.774,8.807,5.077,18.472,8.836,27.249c5.047,6.231,11.382,11.308,16.77,17.273c6.942,7.948,18.176,9.014,26.539,14.875
		c8.022,5.728,15.556,12.107,23.49,17.954c10.272,7.356,18.798,16.755,28.344,24.984c2.59,2.694,6.468,4.958,6.853,9.044
		c1.332,10.686,3.508,21.255,4.367,32.015c0.444,3.937,0.844,7.993,2.412,11.693c5.24,5.018,13.203,6.276,18.25,11.545
		c1.954,4.81,2.161,10.168,4.203,14.964c3.39,3.73,8.111,5.846,12.285,8.57c8.969,5.299,17.184,12.285,27.264,15.438
		c16.074-3.389,31.364-9.858,47.053-14.698c3.242-1.066,6.69-1.865,9.488-3.982c-8.6-3.641-17.688-6.024-26.183-9.902
		c-3.478-1.451-5.062-5.092-7.06-7.993c-2.191-3.671-4.958-7.06-6.498-11.071c-0.192-7.445,1.199-14.846,1.969-22.231
		c2.265-12.019,0.4-24.304,1.85-36.411c0.977-7.608,0.178-15.319,0.932-22.942c5.225-7.534,13.869-12.241,18.65-20.041
		c0.459-8.303,0.429-16.696-0.104-24.999c-5.536-7.711-13.573-13.336-19.893-20.426c-9.532-10.464-21.684-17.835-32.8-26.391
		c-3.774-2.783-7.563-5.684-12.033-7.223c-11.856-4.011-24.333-6.35-35.671-11.797c-7.415-4.307-14.564-9.044-21.817-13.602
		c-4.011-2.353-7.697-6.216-12.685-5.906c-9.429-0.044-18.857-0.148-28.27-0.178C916.392,327.084,911.464,330.014,906.328,331.716z"
		/>
	<path fill="#000807" stroke="#000807" stroke-width="0.1388" d="M1249.997,403.473c3.567-1.717,7.223-3.375,11.116-4.322
		c8.111,4.337,12.655,13.321,20.914,17.613c11.353,5.772,23.342,10.198,35.02,15.304c10.76,4.692,22.32,8.333,31.586,15.808
		c3.819,5.151,3.952,12.241,2.827,18.339c-1.376,6.705-1.273,13.573-1.465,20.381c-1.998-0.089-3.952-0.207-5.891-0.34
		c-5.698-2.087-11.397-4.159-16.947-6.557c-11.619-5.284-22.542-12.374-35.064-15.378c1.066,8.481,9.502,12.27,14.964,17.717
		c6.468,5.284,9.858,13.188,11.9,21.092c-7.223,0.03-15.66,1.066-21.477-4.13c-5.299-4.588-10.864-8.851-16.089-13.499
		c-3.227-2.709-4.485-6.823-5.639-10.686c-2.531-8.836-4.647-17.791-7.504-26.539c-2.975-9.014-9.621-16.059-14.402-24.082
		c-3.508-5.447-5.861-11.486-8.244-17.465C1247.022,405.619,1248.487,404.524,1249.997,403.473 M1249.435,407.277
		c3.685,13.306,13.647,23.327,20.011,35.242c4.307,11.56,7.06,23.667,10.568,35.493c1.421,4.529,5.861,6.986,9.192,10.006
		c4.751,3.538,8.807,8.037,13.957,11.027c3.626,0.77,7.386,0.488,11.101,0.562c-2.398-12.196-13.958-18.309-22.068-26.405
		c-3.789-3.33-2.738-8.94-3.182-13.425c20.529,4.544,37.166,19.493,58.065,22.912c0.015-6.794,0.444-13.573,1.88-20.204
		c0.281-5.032,0.059-11.693-5.077-14.254c-4.958-3.241-10.302-5.817-15.719-8.111c-15.571-6.601-31.305-12.833-46.624-19.967
		c-8.526-3.671-12.951-12.611-20.574-17.436C1256.85,403.443,1253.194,405.619,1249.435,407.277z"/>
	<path fill="#030B1E" stroke="#030B1E" stroke-width="0.1388" d="M1135.184,415.506c5.728-2.013,11.456-4.529,17.569-5.077
		c7.756,3.389,14.017,9.502,20.737,14.564c-1.687,6.572-3.789,13.025-5.254,19.641c-1.732,6.054-2.783,12.699-7.208,17.48
		c-4.766,5.284-9.458,10.642-13.602,16.429c-2.072,2.013-4.233,3.908-6.379,5.832c-6.335-2.546-13.129-4.455-18.664-8.57
		c-4.129-4.411-7.312-9.71-9.784-15.186c-2.723-8.881-2.235-18.354-3.685-27.486c4.085-0.888,8.289-1.761,12.004-3.774
		C1126.436,425.541,1128.405,417.697,1135.184,415.506 M1136.783,418.526c-5.699,1.865-7.919,7.963-11.752,12.004
		c-3.108,3.671-9.058,2.605-12.255,5.92c0.607,7.475,1.643,14.934,2.842,22.335c1.88,5.432,5.106,10.479,8.955,14.757
		c4.87,3.256,10.538,5.106,16.074,6.927c3.848-4.144,7.637-8.363,11.219-12.773c4.026-4.988,9.073-9.502,10.879-15.882
		c2.546-8.526,4.899-17.11,6.912-25.769c-5.491-4.218-10.849-8.688-16.918-12.033
		C1147.173,414.337,1141.933,416.601,1136.783,418.526z"/>
	<path fill="#000803" stroke="#000803" stroke-width="0.1388" d="M1031.546,730.077c1.939-4.899,3.626-9.887,5.506-14.801
		c15.275,14.89,32.311,27.752,48.666,41.414c7.001,5.388,11.56,13.691,12.877,22.379c-12.403,0.192-24.822-0.03-37.225,0.4
		c-6.868-8.836-15.186-16.444-21.787-25.443C1035.72,746.58,1030.199,738.913,1031.546,730.077 M1037.866,720.515
		c-1.584,6.172-4.633,12.951-1.835,19.227c2.457,5.654,4.588,11.678,8.955,16.207c4.781,5.077,9.177,10.524,13.854,15.719
		c1.88,1.865,3.686,4.529,6.749,4.159c9.488,0.104,19.005,0.237,28.492-0.37c-1.658-5.358-3.774-10.879-8.244-14.52
		C1069.807,747.512,1053.259,734.68,1037.866,720.515z"/>
	<g>
		
			<radialGradient id="SVGID_1_" cx="864.3513" cy="756.0728" r="782.3116" gradientTransform="matrix(1 0 0 -1 0 1658.6133)" gradientUnits="userSpaceOnUse">
			<stop  offset="0" style="stop-color:#2765F2"/>
			<stop  offset="1" style="stop-color:#0102B4"/>
		</radialGradient>
		<path fill="url(#SVGID_1_)" d="M1433.962,455.617c0.266,12.64,6.113,24.096,10.183,35.789c3.493,10.553-2.649,23.105,4.426,32.563
			c6.394,10.124,12.981,20.174,17.688,31.245c3.256,8.096,10.198,13.691,16.888,18.886c5.684-9.147,1.939-19.863,2.205-29.854
			c-1.48-16.666,0.932-33.303,2.057-49.91c1.554-2.324,4.988-2.161,7.282-3.641c6.927,0.207,13.573,2.205,20.292,3.76
			c-0.518-10.095,0.207-20.337-1.983-30.254c-2.679-5.462-7.105-9.813-10.627-14.698c-7.001-8.155-12.448-17.436-17.85-26.686
			c3.76-0.947,7.608-1.451,11.5-1.776c2.368-4.44,6.838-9.117,4.973-14.505c-2.265-8.673-6.231-17.258-5.121-26.435
			c0.015-5.669,2.427-12.27-1.747-17.051c-7.549-9.754-14.402-20.041-22.483-29.351c-8.244-9.31-15.038-19.996-24.437-28.196
			c1.924,8.555,7.001,15.941,9.325,24.348c0.918,6.853-0.814,13.735-0.696,20.618c-0.518,7.386,2.057,14.431,4.189,21.388
			c1.095,3.064,1.969,6.646,5.018,8.437c6.039,4.07,12.596,7.342,18.546,11.575c0.015,6.276,0.444,12.655-0.829,18.842
			c-5.639,3.863-12.685,5.373-19.182,7.282c-8.777,0.044-18.857-0.977-25.354,6.29c7.534,3.789,15.334,7.045,23.09,10.376
			c2.842,1.214,5.639,2.634,8.111,4.544c-1.85,5.121-3.36,10.346-5.032,15.541C1454.254,455.366,1444.086,454.67,1433.962,455.617z"
			/>
		
			<radialGradient id="SVGID_2_" cx="864.3513" cy="756.0728" r="782.3116" gradientTransform="matrix(1 0 0 -1 0 1658.6133)" gradientUnits="userSpaceOnUse">
			<stop  offset="0" style="stop-color:#2765F2"/>
			<stop  offset="1" style="stop-color:#0102B4"/>
		</radialGradient>
		<path fill="url(#SVGID_2_)" d="M1623.314,924.387c-9.695,14.638-19.242,29.38-28.315,44.404c-9.991-0.044-19.33-4.115-29.099-5.61
			c-4.796-0.207-7.045-5.047-11.042-6.705c-4.707-7.845-11.871-13.75-17.747-20.633c-5.136-5.373-7.49-12.522-10.598-19.079
			c-3.049-6.365-5.802-12.862-8.822-19.227c-7.238-14.194-10.657-29.869-15.926-44.818c-5.358-15.038-4.203-31.453-8.348-46.683
			c-1.258-12.699-0.533-25.458-0.622-38.172c0.252-14.046-0.651-28.152,1.169-42.124c0.296-5.92,1.554-12.285-1.273-17.821
			c-9.103-19.982-17.821-40.259-23.652-61.44c1.613-10.879,4.988-21.787,11.071-31.068c5.476-7.564,3.7-17.791,1.465-26.198
			c-4.929,11.708-5.965,24.674-10.509,36.514c-4.766,6.054-11.752,10.006-17.791,14.698c-2.383,2.294-4.914-0.207-7.045-1.421
			c-8.422-5.417-17.362-10.08-25.414-16.03c-3.064-5.21-1.658-11.811-3.123-17.539c-3.759-4.692-8.896-7.993-13.262-12.048
			c-1.776-1.761-4.44-3.286-4.159-6.142c-0.34-6.809-0.592-13.691,0.133-20.485c2.279-4.781,6.882-7.919,10.376-11.782
			c1.88-2.205,4.855-4.248,4.381-7.534c-0.207-5.965-0.281-12.004-1.465-17.865c-0.4-0.385-1.184-1.154-1.584-1.525
			c-6.853-2.694-14.224-3.671-21.284-5.698c-6.083-1.821-12.477-0.533-18.664-1.288c-2.945-2.872-4.662-6.675-6.838-10.08
			c-1.406-2.516-3.464-4.973-3.182-8.022c0.059-7.682-0.326-15.453,1.302-23.016c0.873-5.654,1.806-12.048-1.746-17.007
			c-5.817-9.266-10.198-19.301-15.497-28.862c-3.064-6.291-9.932-8.984-15.26-12.921c-3.301-2.457-7.845-4.307-8.984-8.644
			c-1.939-6.572-3.049-13.351-5.166-19.863l-1.125-0.34c0.651-10.228-3.123-20.041-3.745-30.18
			c-0.015-6.409-4.485-11.219-7.741-16.281c-4.825-7.46-10.006-14.683-14.994-22.039c-7.164-9.784-6.217-22.661-10.849-33.51
			c-19.094-5.698-36.041-16.34-52.974-26.554c-1.954,2.235-7.356,4.944-4.381,8.348c2.427,3.804,8.363,6.276,8.259,11.116
			c-4.736,4.796-10.642,8.2-15.763,12.522c5.432,2.176,11.723,2.279,16.577,5.817c3.182,2.235,6.261,4.633,9.488,6.824
			c9.103,5.98,16.089,14.446,24.037,21.773c7.741,8.274,19.39,10.746,28.33,17.347c0.637,1.169,0.785,2.546,1.243,3.804
			c-7.415,1.983-14.254,5.624-21.269,8.614c-7.711,2.945-6.675,13.469-12.729,18.057c-5.98-0.414-11.708-2.339-17.554-3.463
			c-8.348-1.465-15.408-6.365-22.912-9.961c-4.278-2.354-9.295-4.278-11.811-8.748c-5.595-9.221-11.027-18.546-16.755-27.678
			c-3.078-4.796-8.214-7.622-12.433-11.278c-7.519-6.483-17.199-9.369-25.725-14.18c-12.936-6.986-26.361-12.981-39.253-20.041
			c-4.884-2.412-7.623-7.282-10.524-11.619c-4.041-6.202-8.792-11.885-12.818-18.087c4.381-3.537,9.458-6.098,13.721-9.784
			c4.573-0.71,8.17-4.337,12.833-5.032c11.071-2.309,22.261-4.144,33.495-5.624c0.03-5.254-0.962-10.746-3.819-15.216
			c-3.996-2.25-8.6-2.975-13.01-3.967c-1.613,3.108-2.871,6.572-5.417,9.073c-9.591,0.459-19.227,0.178-28.818,0.207
			c0.918-6.143,3.493-11.9,4.13-18.102c-5.18-2.309-10.731-3.952-15.497-7.09c-6.231-5.669-9.207-14.476-16.844-18.709
			c-24.289-14.875-47.704-31.097-71.179-47.216c-2.738-2.191-5.994,0.4-8.407,1.821c-6.098,3.626-8.17,12.107-15.453,13.928
			c-5.802,1.702-11.412,4.174-17.421,5.033c-5.669-1.554-10.583-5.151-16.415-6.158c-9.236-1.835-18.561-4.396-28.048-3.315
			c-7.164,0.888-14.402,0.696-21.551,1.451c-7.874,3.168-13.928,10.642-22.868,10.998c-11.915,0.962-23.652,5.639-35.686,3.197
			c-9.517-2.102-19.538-1.895-28.655-5.624c-4.899-1.924-10.109-3.241-14.609-6.054c-1.658-4.722-2.013-9.784-3.167-14.638
			c-8.126-1.184-16.355-1.154-24.541-1.199c-8.259-1.006-11.871,8.17-18.383,11.367c-13.425,1.85-27.338-0.015-40.407,4.085
			c-6.868,1.495-13.765,2.857-20.485,4.87c-0.044,5.21,0.355,10.435-0.178,15.63c-4.07,4.618-9.902,7.253-15.142,10.302
			c-10.435,3.641-21.802,2.428-32.518,4.589c-5.062,1.821-8.866,5.832-13.025,9.058c1.643,5.225,3.123,10.494,4.144,15.867
			c-6.305,4.337-12.877,9.251-20.796,9.784c-10.686,1.362-21.417,2.324-31.971,4.485c-3.138,8.185-3.375,17.021-3.789,25.665
			l0.918,1.184c-1.599,4.041-4.692,7.075-8.57,8.94c-7.327,3.715-12.314,10.361-17.954,16.104
			c-11.693,11.486-22.157,24.333-35.346,34.22c-4.529,3.389-8.555,8.008-14.298,9.28c-7.83,1.954-15.778,3.523-23.815,4.233
			c4.707-10.997,13.336-19.819,18.043-30.787c-0.459-2.871-1.362-5.639-2.161-8.422c-6.217-0.178-12.462,0.385-18.664-0.119
			c-5.817-3.73-8.555-10.686-12.966-15.852c-3.345-5.743-7.223-11.175-10.213-17.11c7.341-8.674,14.461-17.717,23.49-24.733
			c4.529-3.404,8.229-8.97,14.446-9.118c3.167-0.71,6.735-0.414,9.606-2.117c3.626-5.95,6.379-12.403,9.946-18.398
			c3.301-4.988,0.992-11.071-0.414-16.281c-0.266-4.884-0.829-9.739-1.184-14.609c15.171-6.897,30.431-13.662,45.07-21.669
			c-0.355-9.28,0.932-18.472,1.184-27.723c-6.794-6.631-14.032-14.594-24.2-15.068c-30.935,12.921-60.789,28.418-89.725,45.351
			c-39.223,22.838-76.567,48.918-111.305,78.121c-61.499,50.665-114.28,111.394-158.551,177.511
			c-6.749,10.968-13.691,21.817-20.307,32.844c-7.016,13.203-15.526,25.591-21.684,39.253
			c-10.124,18.916-18.561,38.646-27.397,58.169c-5.654,16.385-13.499,31.986-18.146,48.726c-3.626,12.374-8.688,24.289-11.767,36.84
			c-5.965,22.039-11.353,44.241-16.474,66.502c-2.635,16.415-5.151,32.859-7.785,49.288c-1.169,13.795-3.064,27.516-4.574,41.266
			c0.252,13.81-1.776,27.501-1.377,41.31c0.089,22.202-0.666,44.433,1.081,66.591c-0.696,12.019,2.709,23.682,3.079,35.641
			c0.636,13.928,4.351,27.471,5.388,41.355c3.819,23.312,8.318,46.52,14.712,69.27c3.019,15.038,8.126,29.499,12.433,44.197
			c8.067,25.517,18.028,50.369,28.3,75.057c20.529,46.535,45.706,90.998,74.435,132.959
			c35.997,50.872,76.952,98.458,123.901,139.546c10.479,9.784,21.699,18.738,32.622,28.019
			c45.336,35.582,93.677,67.612,145.644,92.7c30.254,15.275,61.81,27.752,93.544,39.593c13.469,4.189,26.894,8.57,40.348,12.833
			c34.324,9.118,68.855,17.806,104.156,22.187c7.016,0.829,13.854,2.901,20.944,3.242c9.103,0.799,18.309,0.947,27.264,2.931
			c9.828,2.057,19.923,0.503,29.839,1.628c11.989,1.776,24.141,0.755,36.233,1.036c16.814-0.296,33.732,0.858,50.472-1.258
			c9.932-0.311,19.923,0.059,29.75-1.821c11.915-2.028,24.629-0.429,36.041-4.722c-0.962-4.485-2.516-8.881-2.664-13.469
			c1.835-7.46,6.883-13.721,8.481-21.24c0.178-6.009-1.125-11.93-1.584-17.895c-6.483-0.518-12.921-1.317-19.404-1.613
			c-3.685-6.794-9.488-12.033-14.268-18.013c-7.06-8.703-14.934-16.696-23.119-24.304c-2.664-2.294-4.781-5.521-8.215-6.675
			c-9.132-13.987-24.6-21.314-38.439-29.676c-10.435-5.98-19.671-13.721-29.188-21.003c-2.679-1.628-2.013-5.018-2.161-7.608
			c0.044-10.42,0.029-20.825-0.341-31.216c3.197-5.24,6.335-10.538,8.792-16.178c1.613-3.064,2.649-7.178,6.409-8.244
			c6.883-2.59,13.958-4.588,20.825-7.223c7.327-1.865,7.978-10.672,10.982-16.415c3.182-14.772-0.622-30.713,4.278-45.292
			c-7.637-1.969-15.526-2.353-23.342-2.975c-7.49,0.059-14.653,2.886-22.157,2.753c-8.348,0.814-15.689-3.848-23.43-6.039
			c-12.596-5.21-25.784-9.058-37.965-15.127c-4.722-7.075-7.12-15.408-11.086-22.897c-3.493-6.379-4.796-14.224-10.435-19.212
			c-4.633-4.263-9.384-8.377-14.031-12.611c-6.572-6.009-14.461-10.228-21.699-15.305c-8.866-6.276-19.419-9.251-29.188-13.736
			c-11.027-4.278-21.654-9.665-33.051-12.936c-19.39-6.379-38.987-12.27-57.636-20.633c-3.242-1.525-5.832-4.056-8.466-6.379
			c-8.348-7.445-16.4-15.216-24.836-22.527c-5.343-4.574-9.858-10.42-16.578-13.04c-7.889-3.878-16.267-7.016-23.549-11.959
			c-5.639-6.883-10.746-14.357-15.008-22.157c0.533-7.563,6.72-14.313,4.633-22.128c-2.161-8.54-3.596-17.377-7.134-25.488
			c-7.327-14.416-14.579-28.892-21.669-43.412c-6.157-19.123-9.044-39.179-15.985-58.05c-0.932-1.983-1.451-4.396-3.286-5.728
			c-2.635-0.015-5.24,0.326-7.83,0.562c-1.08,7.386,2.013,14.372,3.464,21.462c2.398,12.566,3.612,25.502,8.363,37.477
			c1.895,5.032,3.049,10.42,5.876,15.053c4.855,6.883,11.649,12.27,15.689,19.745c-6.276-0.784-12.418-2.768-18.013-5.684
			c-5.328-3.967-9.162-9.532-14.017-14.031c-3.626-3.449-6.838-7.445-8.333-12.27c-5.062-15.142-11.308-29.898-15.438-45.336
			c-8.333-30.165-17.702-60.019-26.272-90.125c-1.377-7.312,0.089-14.712,1.14-21.965c0.444-6.009,1.08-11.989,1.613-17.984
			c0.71-24.94,5.817-49.436,9.636-74.006c8.141-19.36,16.163-38.942,27.486-56.718c6.291-12.433,16.4-22.143,24.703-33.155
			c-2.176-9.799-5.24-19.567-5.18-29.706c-0.592-16.222,2.087-32.326,2.694-48.518c5.55-20.811,13.143-41.147,17.347-62.328
			c2.413-8.969,4.514-18.013,6.335-27.101c0.71-8.333-0.814-16.666-1.095-24.985c-0.222-9.221-5.343-17.214-7.83-25.873
			c-1.687-7.297-9.65-9.709-15.63-12.537c-11.056-8.17-24.925-10.731-37.462-15.793c-8.984-2.872-16.933-8.674-26.154-10.613
			c-2.102-1.776-5.121-2.901-5.994-5.713c-2.131-6.365-4.47-12.714-5.713-19.331c1.006-0.103,3.005-0.326,4.011-0.429
			c4.263,4.796,9.458,8.718,14.757,12.3c5.151,2.265,10.938,2.827,16.518,2.99c2.694-9.784,6.054-19.375,10.686-28.418
			c2.694-4.929,3.967-11.249,9.103-14.357c4.796-3.064,9.34-6.513,14.12-9.621c2.457-1.658,5.536-0.681,8.259-0.37
			c7.682,1.569,15.305,3.582,23.149,4.278c6.646-8.215,7.948-19.197,14.002-27.663c6.143,0.977,12.359-0.844,18.487,0.251
			c3.375,0.503,6.705,1.391,10.154,1.451c4.707-1.436,8.422-5.373,13.498-5.861c6.409-0.725,12.877-0.503,19.331-0.651
			c7.445-0.281,14.031,3.774,20.559,6.794c0.725,3.034,1.599,6.054,2.842,8.94c0.636,6.187,2.25,12.211,3.7,18.25
			c1.924,8.348-0.444,17.066,1.598,25.399c2.738,5.314,6.675,9.917,10.05,14.831c4.352,6.749,9.547,13.898,16.888,17.48
			c3.685,5.121,8.925,8.762,13.454,13.07c12.478,11.367,26.287,21.092,39.445,31.645c10.42,7.771,20.307,16.252,30.949,23.741
			c1.732-5.047,2.383-10.39,2.709-15.704c-5.521-6.838-14.727-10.065-20.13-17.081c-1.776-5.92-1.717-12.314-4.233-18.013
			c-4.87-5.95-11.797-9.828-16.755-15.689l0.059-0.933c4.603-5.106,9.739-9.872,15.26-13.987c8.023-1.169,16.193-1.347,24.304-1.746
			c2.486,3.315,4.84,6.72,7.208,10.109l0.844,0.385c1.776,4.189,3.848,8.496,7.356,11.545c5.166,4.011,11.959,5.462,16.814,9.902
			c2.309,3.937,3.286,8.496,5.092,12.684c6.394,12.936,1.983,27.752,4.455,41.473c2.087,3.049,5.61,4.692,8.496,6.927
			c3.863-3.153,8.185-5.98,11.071-10.124c2.827-8.718,3.182-17.999,4.396-27.012c5.047-1.066,10.302-1.406,15.438-0.711
			c2.428,0.207,2.013,3.049,2.368,4.751c1.391,11.012,1.273,22.32,4.633,33.007c0.622,2.975,4.204,2.99,6.527,3.908
			c4.381,0.962,8.614,2.812,13.128,3.227c5.98-1.628,11.871-3.715,17.584-6.157c-5.195-3.656-12.181-4.899-15.926-10.39
			c-6.083-7.948-12.537-15.615-18.235-23.83c4.544-5.816,10.198-10.642,15.63-15.63c2.664-2.857,6.942-1.258,10.227-0.577
			c7.445,2.398,15.379,3.434,22.38,7.09c12.581,6.498,25.014,13.306,37.773,19.478c4.973,3.123,10.479,5.373,15.289,8.762
			c6.913,9.251,7.623,22.794,17.569,29.824c8.422,6.542,19.73,8.111,28.063,14.772c5.491,8.022,9.221,17.199,15.112,24.999
			c-4.1,4.929-8.777,9.384-12.522,14.579c-2.575,6.957-3.33,14.446-5.121,21.64c-6.957,1.169-13.81,3.774-20.914,3.419
			c-5.062-1.391-9.621-4.085-14.431-6.083c-8.141-3.789-17.007-5.506-25.532-8.17c-8.866-2.265-18.087-2.62-26.923-5.091
			c0.607-1.924,1.613-3.715,3.375-4.81c6.231-4.603,12.492-9.162,18.413-14.18c1.155-1.199,2.99-2.294,2.96-4.204
			c0.77-7.771,1.347-15.63,0.933-23.445c-1.613-3.745-4.263-6.883-6.453-10.257c-1.909-2.546-3.419-5.847-6.72-6.779
			c-10.464-3.804-21.254-6.646-31.941-9.769c3.907,5.033,8.851,9.132,12.684,14.209c1.658,1.954-0.681,3.996-1.643,5.639
			c-5.077,6.217-9.473,13.262-16.415,17.613c-9.384,7.356-19.833,13.499-27.915,22.394c-10.982,11.116-23.978,20.988-30.668,35.552
			c-3.952,5.743-9.369,11.234-9.887,18.561c-0.622,5.61-0.266,11.293-1.11,16.888c-0.622,4.677-1.658,9.502-0.666,14.209
			c2.635,4.766,5.831,9.192,8.866,13.736c1.362,2.797,4.84,2.561,7.445,3.241c5.565,2.22,11.649,2.59,17.406,4.204
			c8.703,1.939,16.755,5.861,24.822,9.532c1.391,1.066,4.159,1.332,4.174,3.538c0.725,7.608,1.45,15.216,2.472,22.794
			c2.265,4.736,5.802,8.747,8.289,13.38c4.115,8.067,11.738,13.351,18.62,18.886c1.554-5.595,2.738-11.279,3.508-17.021
			c1.08-10.331,3.508-20.47,4.351-30.831c-0.192-7.637,6.291-12.803,9.325-19.242c-2.975-4.514-7.43-7.859-10.198-12.462
			c-1.628-9.828-1.421-19.804-1.998-29.706c-1.332-10.953-1.362-22.024-0.711-33.021c0.429-0.37,1.302-1.11,1.732-1.495
			c5.565-0.637,10.701-3.301,16.222-3.878c12.241,4.5,23.889,10.494,36.159,14.964c10.494,3.123,13.706,15.023,21.773,21.299
			c12.078,4.899,25.399,3.671,37.995,6.024c3.671,1.539,6.586,4.381,9.784,6.734c10.834,8.422,22.024,16.385,32.74,24.97
			c7.445,6.882,13.247,15.304,20.144,22.735c7.075,6.986,9.044,17.066,12.625,25.991c2.339,4.174-2.279,8.037-1.687,12.181
			c-3.227,3.671-3.745,10.006-8.984,11.515c-5.921,2.383-11.722,5.047-17.628,7.445c-8.17,3.286-17.747,0.977-25.399,5.743
			c-7.593,4.322-15.941,7.401-22.986,12.596c-4.914,4.529-9.473,9.428-13.928,14.402c-2.057,1.687-1.169,4.352-0.888,6.601
			c12.137-3.7,21.625-12.211,31.364-19.907c5.565,1.362,11.367,2.19,16.622,4.647c3.049,5.136,1.243,11.767,3.552,17.199
			c10.612,4.855,21.802-1.066,32.784-0.4c4.1,4.677,5.477,11.441,7.593,17.303c-10.553,6.764-21.58,12.759-32.578,18.768
			c-8.969,3.256-13.513,11.915-20.381,17.821c-4.544-2.413-8.999-5.018-13.765-6.942c-4.796,0.77-9.354,3.286-13.395,5.935
			c-4.292,5.713-7.697,12.063-11.752,17.939c-4.588,6.438-6.438,14.224-9.65,21.343c-4.751,1.85-11.012,2.102-13.721,7.09
			c-3.493,5.328-7.179,10.524-10.79,15.748c-4.174,6.927-5.639,15.053-8.762,22.453c-1.747,5.417-5.166,10.464-5.136,16.326
			c0.03,9.147-1.243,18.235-1.362,27.382c-6.646,5.669-13.04,11.634-19.908,17.036c-8.496,6.823-18.176,12.196-25.961,19.848
			c-3.73-0.03-5.18,4.07-6.897,6.69c-3.256,6.986-9.236,12.833-10.109,20.796c-1.229,6.75-3.434,13.543-2.561,20.5
			c2.25,7.031,7.045,12.995,9.029,20.144c0.932,3.449,1.791,6.942,3.034,10.331c-0.799,5.18,1.465,10.316,1.288,15.571
			c-5.61,1.835-11.353,3.241-16.933,5.121c-12.137-14.476-21.314-31.127-32.622-46.209c-3.315-3.049-7.963-4.041-11.974-5.876
			c-5.299-1.791-10.095-5.314-15.808-5.536c-7.46-0.37-14.786-2.235-22.246-2.191c-3.937,1.08-7.327,3.449-10.938,5.254
			c-5.195,2.842-11.204,3.582-16.992,4.218c-4.322,0.71-7.993-2.191-11.604-4.041c-6.246-4.144-13.987-4.307-21.121-5.61
			c-5.565-1.125-10.997,0.829-16.37,1.969c-6.72,1.48-13.617,2.309-20.1,4.648c-2.102,0.725-2.724,3.227-3.967,4.84
			c-2.116,1.377-3.227,3.863-4.81,5.787c-5.18,7.563-11.515,14.372-15.926,22.439c-2.368,7.001-1.791,14.579-3.404,21.758
			c-2.116,9.739,1.658,19.39,1.495,29.158c0.37,2.59-0.488,5.876,1.791,7.786c4.544,4.411,9.932,7.83,14.713,11.989
			c5.817,4.618,11.012,10.524,18.339,12.788c5.491,1.747,10.79,4.233,16.459,5.402c5.772-0.488,11.441-2.531,16.666-4.988
			c3.671-4.44,5.521-10.109,9.132-14.594c4.721-3.33,10.657-4.233,16-6.216c3.863-1.006,8.17-4.026,11.915-1.066
			c5.21,3.182,10.938,5.772,15.482,9.902c0.029,5.254-1.273,10.405-1.613,15.63c-1.687,4.307-1.613,8.955-2.324,13.454
			c-1.732,6.616-6.409,11.945-8.585,18.398c-0.592,4.514,1.14,8.955,2.368,13.247c6.424,0.059,12.862,0.133,19.286-0.488
			c9.591-1.288,18.605,2.99,27.767,5.047c10.509,2.146,18.961,9.354,26.908,16.089c0.089,4.796-0.547,9.576-0.74,14.372
			c-0.296,7.253-3.523,13.913-5.758,20.707c-3.819,6.276-0.252,13.898,4.026,18.916c7.09,5.847,14.742,11.071,22.365,16.193
			c10.479,3.182,21.654,2.206,32.37,4.085c5.388,0.681,10.583,2.368,15.956,3.182c6.009-4.47,10.287-10.983,16.415-15.393
			c7.741-5.565,14.046-13.351,23.09-16.918c4.81-2.013,9.517-4.248,14.224-6.498c2.945-1.317,6.246-3.286,9.502-1.628
			c11.426,4.041,22.735,8.54,34.428,11.811c7.312-1.924,13.321-7.282,20.766-8.718c15.763-0.34,31.526-1.199,47.305-1.199
			c14.091-1.155,27.382-6.823,41.429-8.363c4.085,0.444,7.741,2.516,11.723,3.493c5.032,3.182,10.746,4.988,16.163,7.386
			c10.494,4.381,20.944,9.65,32.504,10.405c8.451,1.717,16.932,3.375,25.428,4.914c18.753,0.474,37.551-0.429,56.333-0.074
			c3.182,0.059,5.536,2.59,8.2,4.07c0.119,1.554,0.918,2.916,1.998,4.07c5.95,6.883,11.944,13.75,17.85,20.692
			c3.227,3.774,6.113,8.022,10.479,10.627c14.535-1.554,29.01-3.671,43.486-5.758c16.222-4.07,32.607-7.445,48.815-11.604
			c11.367-2.901,21.047-12.048,33.244-11.19c4.5,1.687,8.881,3.833,12.611,6.942c4.603,3.789,10.006,6.705,13.854,11.338
			c-1.554,5.047-5.654,8.807-8.23,13.351c-9.562,14.431-19.922,28.344-29.736,42.613c-4.411,9.28-7.119,19.316-11.545,28.64
			c-4.159,7.623-2.753,16.503-3.049,24.822c8.881-5.684,15.674-13.913,23.978-20.352c34.398-31.749,66.857-65.747,95.364-102.928
			c21.24-26.687,39.934-55.253,57.813-84.249c6.986-13.218,15.083-25.843,21.595-39.327c13.884-25.562,25.369-52.352,35.76-79.497
			c5.077-12.152,9.517-24.541,13.307-37.151c11.515-30.994,18.368-63.438,25.591-95.631c2.872-19.197,6.513-38.306,8.511-57.621
			C1632.712,917.815,1626.629,919.429,1623.314,924.387z M497.37,163.737C497.37,163.737,497.37,163.737,497.37,163.737
			c-0.031,0.792-0.036,1.584-0.021,2.376C497.334,165.321,497.338,164.529,497.37,163.737z M211.783,456.503
			c1.468-2.703,3.021-5.359,4.749-7.916C214.803,451.144,213.251,453.8,211.783,456.503z M294.367,342.309
			c0.764-0.98,1.57-1.93,2.432-2.837C295.936,340.379,295.131,341.329,294.367,342.309z M370.864,268.367
			c0.414-0.685,0.885-1.298,1.399-1.854C371.748,267.069,371.278,267.683,370.864,268.367z M439.982,217.57
			c1.436-1.047,2.927-2.014,4.533-2.813C442.909,215.557,441.417,216.523,439.982,217.57z M840.498,633.82
			c0.162-3.241,0.199-6.485,0.188-9.73C840.697,627.335,840.66,630.579,840.498,633.82z M840.586,609.489
			c0.025-3.244,0.12-6.485,0.364-9.723C840.706,603.004,840.611,606.246,840.586,609.489z M906.387,1184.385
			c-2.723,1.732-6.098,1.317-9.117,1.717c-6.616,0.326-12.981,2.561-19.597,2.635c-11.19-5.891-20.1-15.541-31.778-20.677
			c-6.365-2.931-12.67-5.965-18.99-8.969c-6.142-2.96-13.158-2.649-19.641-4.396c-10.568-2.857-21.95-1.983-32.044-6.616
			c5.743-3.493,12.078-5.802,18.161-8.614c3.005-1.702,6.379-0.444,9.502,0.178c17.658,4.514,35.405,8.747,52.693,14.594
			c9.887,3.597,20.618,2.783,30.875,4.292c9.192,2.812,17.732,7.415,26.583,11.13
			C912.278,1175.061,909.584,1180.049,906.387,1184.385z M965.873,1202.088c-15.438,2.294-30.653-2.22-44.788-8.007
			c-0.933-0.385-2.783-1.155-3.715-1.539c0.03-4.84,0.355-9.68,0.71-14.49c11.086-3.493,22.705-4.544,33.998-7.149
			c6.276-1.747,12.27,1.821,18.324,2.99c0.414,3.197,0.622,6.409,0.873,9.65c3.967,2.487,8.052,4.81,12.226,6.971
			c3.315,1.806,7.134,3.523,8.644,7.297C983.323,1198.876,974.591,1200.489,965.873,1202.088z M1061.37,779.468
			c-6.868-8.836-15.186-16.444-21.787-25.443c-3.863-7.445-9.384-15.112-8.037-23.948c1.939-4.899,3.626-9.887,5.506-14.801
			c15.275,14.89,32.311,27.752,48.666,41.414c7.001,5.388,11.56,13.691,12.877,22.38
			C1086.192,779.261,1073.774,779.039,1061.37,779.468z M1102.577,572.014c-19.168,6.113-37.936,13.825-57.651,17.998
			c-8.866-2.294-16.444-7.815-23.993-12.788c-4.737-3.271-9.872-5.906-14.579-9.192c-6.305-3.908-4.544-12.566-8.229-18.206
			c-5.018-4.855-12.048-6.705-17.539-10.879c-3.76-11.382-3.582-23.638-5.758-35.375c-1.155-5.314-0.607-11.811-5.314-15.512
			c-7.815-7.149-15.571-14.372-23.505-21.373c-8.925-7.238-18.131-14.15-27.204-21.195c-9.162-7.282-22.039-8.392-30.047-17.303
			c-5.373-5.935-11.93-10.805-16.725-17.214c-3.671-7.445-4.796-15.852-8.022-23.49c-4.5,3.848-9.014,8.141-10.879,13.943
			c-3.863,12.048-6.453,24.511-11.086,36.322c-7.711-3.863-14.905-8.644-22.276-13.099c-6.068-3.523-9.547-9.858-13.454-15.408
			c-1.51-2.857-4.529-5.802-3.36-9.266c1.998-6.779,4.84-13.277,7.519-19.804c1.391-3.656,3.863-7.43,2.753-11.501
			c-1.229-5.018-2.99-9.902-4.07-14.964c7.578-3.893,15.556-6.971,23.046-11.086c9.014-3.138,18.753-1.969,28.108-1.746
			c0.784,4.115,1.673,8.215,2.694,12.285c3.937-0.296,8.126,0.237,11.9-1.199c6.69-5.062,9.68-13.839,16.888-18.309
			c6.72-2.931,13.795-4.973,20.648-7.622c9.177-3.774,19.212-1.451,28.818-1.554c5.92,0.37,12.389-0.666,17.747,2.487
			c10.479,6.187,20.026,14.12,31.305,18.886c9.65,3.419,19.493,6.276,29.277,9.325c10.213,2.872,17.466,11.116,26.198,16.666
			c13.691,8.688,23.993,21.373,35.938,32.104c2.812,2.842,6.749,5.624,6.513,10.109c0.37,8.925,0.222,17.865,0.044,26.805
			c-5.255,5.195-11.175,9.71-16.163,15.171c-3.108,3.005-2.472,7.637-2.783,11.545c-0.015,11.308-1.376,22.572-1.214,33.88
			c0.251,12.389-3.715,24.511-2.916,36.899c1.776,4.884,4.81,9.206,7.667,13.528c2.975,5.18,9.502,5.639,14.52,7.8
			c7.312,2.945,15.393,4.574,21.788,9.428C1106.988,570.149,1104.812,571.141,1102.577,572.014z M1168.235,444.635
			c-1.732,6.054-2.783,12.699-7.208,17.48c-4.766,5.284-9.458,10.642-13.602,16.43c-2.072,2.013-4.233,3.907-6.379,5.832
			c-6.335-2.546-13.129-4.455-18.664-8.57c-4.129-4.411-7.312-9.709-9.784-15.186c-2.723-8.881-2.235-18.353-3.685-27.486
			c4.085-0.888,8.289-1.761,12.004-3.774c5.521-3.819,7.49-11.664,14.268-13.854c5.728-2.013,11.456-4.529,17.569-5.077
			c7.756,3.389,14.017,9.502,20.737,14.564C1171.802,431.565,1169.701,438.019,1168.235,444.635z M1351.459,466.215
			c-1.376,6.705-1.273,13.573-1.465,20.381c-1.998-0.089-3.952-0.207-5.891-0.34c-5.698-2.087-11.397-4.159-16.947-6.557
			c-11.619-5.284-22.542-12.374-35.064-15.379c1.066,8.481,9.502,12.27,14.964,17.717c6.468,5.284,9.858,13.188,11.9,21.092
			c-7.223,0.03-15.66,1.066-21.477-4.129c-5.299-4.588-10.864-8.851-16.089-13.499c-3.227-2.709-4.485-6.823-5.639-10.686
			c-2.531-8.836-4.647-17.791-7.504-26.539c-2.975-9.014-9.621-16.059-14.402-24.081c-3.508-5.447-5.861-11.486-8.244-17.465
			c1.421-1.11,2.886-2.205,4.396-3.256c3.567-1.717,7.223-3.375,11.116-4.322c8.111,4.337,12.655,13.321,20.914,17.614
			c11.353,5.772,23.342,10.198,35.02,15.304c10.76,4.692,22.32,8.333,31.586,15.808
			C1352.451,453.027,1352.584,460.117,1351.459,466.215z"/>
	</g>
	<path fill="#000301" stroke="#000301" stroke-width="0.1388" d="M793.379,1139.464c3.005-1.702,6.379-0.444,9.502,0.178
		c17.658,4.514,35.404,8.747,52.692,14.594c9.887,3.597,20.618,2.783,30.875,4.292c9.192,2.812,17.732,7.415,26.583,11.131
		c-0.755,5.402-3.449,10.39-6.646,14.727c-2.723,1.732-6.098,1.317-9.117,1.717c-6.616,0.326-12.981,2.561-19.597,2.635
		c-11.19-5.891-20.1-15.541-31.778-20.677c-6.365-2.931-12.67-5.965-18.99-8.97c-6.143-2.96-13.158-2.649-19.641-4.396
		c-10.568-2.857-21.95-1.983-32.045-6.616C780.961,1144.585,787.296,1142.276,793.379,1139.464 M784.203,1147.826
		c11.308,1.214,22.379,3.937,33.643,5.491c5.817,0.755,11.264,3.034,16.385,5.817c7.415,4.011,15.571,6.631,22.527,11.486
		c5.817,4.011,11.412,8.333,17.214,12.403c1.969,1.303,4.085,2.931,6.646,2.368c7.859-0.844,15.586-2.575,23.46-3.241
		c2.131-3.212,3.878-6.661,5.299-10.242c-7.859-3.907-15.734-7.993-24.111-10.627c-10.435-1.214-21.284-0.296-31.275-4.159
		c-18.487-6.365-37.403-11.308-56.526-15.319C792.536,1142.187,788.317,1145.354,784.203,1147.826z"/>
	<path fill="#000304" stroke="#000304" stroke-width="0.1388" d="M918.08,1178.05c11.086-3.493,22.705-4.544,33.998-7.149
		c6.276-1.746,12.27,1.821,18.324,2.99c0.414,3.197,0.622,6.409,0.873,9.651c3.967,2.487,8.052,4.81,12.226,6.971
		c3.315,1.806,7.134,3.523,8.644,7.297c-8.821,1.066-17.554,2.679-26.272,4.278c-15.438,2.294-30.653-2.22-44.788-8.007
		c-0.932-0.385-2.783-1.155-3.715-1.539C917.399,1187.701,917.724,1182.861,918.08,1178.05 M951.027,1174.276
		c-9.784,2.635-19.923,3.434-29.78,5.698c-0.252,3.241-0.518,6.483-0.799,9.739c6.823,3.73,14.239,6.246,21.743,8.215
		c13.987,3.464,28.566,0.962,42.287-2.531c-5.092-4.5-11.974-6.305-16.903-10.953c-0.459-2.176,0.104-4.396,0.311-6.542
		C962.972,1174.542,956.948,1172.47,951.027,1174.276z"/>
	
		<radialGradient id="SVGID_3_" cx="797.8955" cy="823.5369" r="862.7618" gradientTransform="matrix(1 0 0 -1 0 1658.6133)" gradientUnits="userSpaceOnUse">
		<stop  offset="0" style="stop-color:#00D900"/>
		<stop  offset="1" style="stop-color:#009A00"/>
	</radialGradient>
	<path fill="url(#SVGID_3_)" d="M1477.107,591.715c-3.656,10.642-5.003,22.024-8.866,32.592
		c-5.136,5.18-10.983,10.287-17.614,13.336c-6.897-3.227-13.01-7.86-19.582-11.634c-3.197-2.116-6.956-3.73-9.28-6.838
		c-1.169-5.817,1.391-13.055-3.33-17.643c-4.766-4.618-10.021-8.674-14.875-13.173c0-7.09-0.666-14.224,0.222-21.269
		c3.819-5.921,10.095-9.739,14.017-15.571c0.799-8.629-0.918-17.362-1.614-25.991c-8.037-1.791-15.985-3.893-23.904-6.069
		c-6.128-1.687-12.552-1.125-18.813-1.243c-2.901-4.603-6.438-9.029-7.948-14.328c-0.962-12.462,1.909-24.94,1.214-37.358
		c-5.003-10.908-11.767-20.988-16.725-31.956c-3.715-9.872-14.609-13.04-22.113-19.271c-3.745-2.442-3.745-7.342-5.018-11.19
		c-4.278-14.313-5.98-29.188-7.948-43.93c-0.799-7.564-6.631-12.995-10.346-19.227c-5.018-8.2-11.293-15.6-15.926-24.008
		c-3.153-9.162-3.996-19.005-7.341-28.137c-5.536-4.085-12.877-4.766-19.005-7.83c-13.01-6.202-25.399-13.676-37.536-21.418
		c-3.182,3.316-6.231,6.735-9.488,9.961c2.753,4.707,7.179,8.096,10.257,12.581c-5.521,5.58-12.64,9.221-18.043,14.905
		c5.876,2.768,12.389,3.567,18.442,5.846c13.454,7.667,24.659,18.487,35.39,29.529c7.06,7.859,18.013,9.932,25.976,16.592
		c-6.172,4.707-14.076,6.069-20.574,10.183c-4.263,4.159-4.426,11.175-8.925,15.068c-5.476-0.355-10.864-1.525-16.193-2.738
		c-7.09-1.48-13.129-5.669-19.552-8.747c-4.677-2.487-10.154-4.44-12.951-9.251c-3.478-5.462-6.631-11.131-10.035-16.637
		c-3.523-5.684-6.409-12.063-11.767-16.311c-4.647-3.7-9.029-7.785-14.179-10.79c-19.005-9.71-38.172-19.123-57.148-28.922
		c-5.61-2.575-8.97-7.933-12.226-12.892c-3.212-4.988-7.223-9.414-9.976-14.668c8.481-4.722,16.341-11.427,26.243-12.892
		c10.835-1.761,21.728-3.463,32.43-5.994l0.725-1.081c-0.651-6.098-2.205-12.152-4.455-17.865
		c-3.463-2.294-7.608-3.212-11.397-4.766c-2.131-0.119-4.263-0.296-6.35-0.489c-2.161,2.827-3.167,6.927-6.291,8.748
		c-7.415,0.814-14.92,0.414-22.35,0.089c1.11-5.447,2.871-10.746,3.582-16.281c-5.476-2.768-11.397-4.588-16.785-7.504
		c-6.276-5.624-8.91-14.713-16.681-18.798c-24.718-14.934-48.311-31.571-72.186-47.778c-3.538-3.153-7.815-0.118-11.116,1.732
		c-6.113,3.153-8.126,10.997-14.653,13.499c-5.447,2.087-10.983,4.248-16.77,5.032c-5.151-1.377-9.547-4.751-14.816-5.772
		c-5.462-1.11-10.938-2.057-16.415-2.99c-8.377-1.465-16.814,0.252-25.207,0.429c-4.603,0.281-9.517-0.118-13.691,2.22
		c-6.261,3.079-11.515,8.674-18.827,9.177c-10.42,1.288-20.692,4.648-31.29,3.774c-7.119-0.577-14.12-1.969-21.151-3.034
		c-8.23-1.303-15.749-5.018-23.652-7.445c-1.406-5.417-2.324-10.953-4.085-16.281c-10.761,0.074-21.521-1.969-32.252-0.873
		c-5.669,2.25-8.511,8.688-14.061,11.16c-11.856,1.569-23.993,0.518-35.715,3.064c-8.925,1.835-17.717,4.233-26.628,6.054
		c-0.784,5.906,0.992,12.389-1.051,17.939c-6.335,4.766-13.395,9.68-21.625,9.961c-6.971,0.533-13.943,1.11-20.855,2.146
		c-7.253,0.755-12.122,6.809-17.465,11.086c1.155,5.284,2.472,10.524,3.804,15.763c-5.58,3.715-11.367,7.8-18.28,8.318
		c-11.293,1.066-22.527,2.664-33.688,4.662c-2.102,6.897-3.596,13.987-3.981,21.21c-0.562,3.715-0.089,7.771-1.761,11.234
		c-4.351,3.73-9.828,5.92-13.869,10.035c-14.594,14.505-27.693,30.58-43.841,43.442c-4.5,3.508-8.674,7.948-14.416,9.28
		c-5.388,1.391-10.894,2.146-16.385,2.797c4.085-9.058,11.279-16.311,15.452-25.295c-0.163-4.559-1.924-8.866-3.685-13.01
		c-6.823,0.103-13.647,0.4-20.47,0.133c-6.187-7.919-11.471-16.474-16.962-24.881c-1.11-1.895-3.123-4.485-1.11-6.513
		c7.874-9.384,16.311-18.309,26.154-25.68c4.603-4.322,11.367-3.375,17.007-5.136c2.575-2.028,3.671-5.358,5.284-8.111
		c2.62-5.58,6.217-10.672,8.614-16.355c0.992-8.896-3.774-17.614-2.649-26.494c9.162-4.855,19.034-8.274,28.152-13.291
		c5.27-3.049,11.649-4.633,16.045-8.955c0.681-10.094,1.791-20.293,1.066-30.402c-6.365-7.134-13.691-14.357-23.327-16.666
		c6.883-3.789,14.638-5.418,21.906-8.318c25.902-9.872,52.145-18.916,78.994-25.917c15.171-3.745,30.017-8.807,45.543-11.042
		c24.689-5.521,49.673-9.473,74.865-11.885c17.317-1.451,34.413-5.24,51.819-5.328c17.776-0.029,35.597,0.444,53.284-1.554
		c22.157,2.501,44.552,1.761,66.694,4.485c11.959,0.71,23.874,2.176,35.597,4.707c19.39,3.153,38.838,6.069,58.139,9.769
		c10.316,1.214,20.44,3.641,30.298,6.912c16.785,4.647,33.392,9.902,49.999,15.127c10.923,3.508,22.202,5.861,32.918,10.006
		c22.054,9.591,44.256,18.886,66.191,28.759c27.471,15.482,56.659,28.048,82.621,46.091c12.507,8.215,25.014,16.444,37.521,24.674
		c13.04,9.576,25.828,19.508,38.838,29.143c8.91,6.261,17.273,13.262,24.984,20.973c8.096,8.185,16.962,15.571,25.132,23.697
		c12.936,11.738,24.363,24.955,36.603,37.388c3.404,2.901,3.76,7.519,5.092,11.5c3.108,8.955,7.622,17.406,10.449,26.465
		c0.592,10.612-2.561,21.477,0.548,31.911c1.732,5.595,3.064,11.367,5.477,16.711c6.113,5.654,14.105,8.733,20.84,13.573
		c0.281,5.299-0.015,10.598-0.725,15.852c-4.307,1.539-8.496,3.345-12.803,4.825c-6.231,2.146-12.981-0.237-19.271,1.391
		c-5.802,1.969-11.16,5.003-16.533,7.874c3.7,4.1,9.295,5.358,14.105,7.682c6.779,3.212,14.046,5.432,20.396,9.517
		c-1.184,3.819-2.413,7.623-3.73,11.397c-10.642,0.37-21.299-0.03-31.882,1.051c1.85,8.999,2.797,18.294,6.394,26.82
		c2.753,6.912,6.068,13.898,5.669,21.536c0.607,7.282-1.88,15.526,2.635,21.95c7.534,12.063,14.964,24.2,20.811,37.195
		c3.123,7.993,12.122,10.997,16.548,17.91C1482.924,583.515,1478.735,587.304,1477.107,591.715z M1348.958,462.485
		c0.281-5.032,0.059-11.693-5.077-14.253c-4.958-3.242-10.302-5.817-15.719-8.111c-15.571-6.601-31.305-12.833-46.624-19.967
		c-8.526-3.671-12.951-12.611-20.574-17.436c-4.115,0.725-7.771,2.901-11.53,4.559c3.685,13.306,13.647,23.327,20.011,35.242
		c4.307,11.56,7.06,23.667,10.568,35.493c1.421,4.529,5.861,6.986,9.192,10.006c4.751,3.538,8.807,8.037,13.957,11.027
		c3.626,0.77,7.386,0.488,11.101,0.562c-2.398-12.196-13.958-18.309-22.068-26.406c-3.789-3.33-2.738-8.94-3.182-13.425
		c20.529,4.544,37.166,19.493,58.065,22.912C1347.093,475.895,1347.522,469.116,1348.958,462.485z M1643.769,792.997
		c0.385-18.753-1.673-37.447-4.381-55.978c-1.169-17.406-3.908-34.605-7.282-51.701c-3.73-19.049-6.453-38.365-12.27-56.925
		c-1.199-3.005-1.021-7.075-3.271-9.369c-0.474-6.113-2.398-11.944-4.1-17.791c-5.921-21.373-13.809-42.109-21.166-63.024
		c-7.519-18.383-15.882-36.396-23.948-54.543c-5.965-12.137-12.536-23.963-18.487-36.1c-5.55-11.782-13.321-22.276-19.908-33.451
		c-8.733-14.594-18.176-28.744-28.374-42.346c-1.066,3.182-1.746,6.483-1.865,9.828c-0.814,9.813,5.195,18.502,5.906,28.122
		c-0.77,5.047-3.996,9.28-6.187,13.78c-2.812,0.37-5.639,0.725-8.392,1.155c4.751,12.078,13.884,21.61,21.714,31.734
		c1.835,2.561,4.351,4.958,4.722,8.259c1.421,11.16,1.14,22.454,1.554,33.688c-8.866-1.14-18.664-6.971-27.175-2.324
		c-3.863,20.751-3.597,42.169-1.747,63.172c0.903,7.149-2.131,13.883-3.345,20.796c-1.391,8.866,0.859,17.717,0.932,26.598
		c0.059,5.269-3.611,9.487-5.979,13.898c-3.982,6.246-5.625,13.543-7.564,20.589c-2.62,7.386,2.383,14.343,4.263,21.284
		c3.597,12.463,9.266,24.141,14.446,35.997c2.679,6.039,6.217,12.226,5.24,19.108c-1.717,24.659-1.081,49.377-1.347,74.08
		c-0.266,11.9,3.153,23.43,4.174,35.212c0.932,10.272,2.931,20.455,6.498,30.165c4.129,11.323,6.616,23.238,11.737,34.206
		c5.358,11.382,10.539,22.868,15.823,34.309c3.286,7.578,9.946,12.818,15.216,18.96c4.707,4.662,8.629,10.124,13.721,14.402
		c4.144,1.761,8.688,2.427,13.158,3.019c5.166,2.457,10.938,2.857,16.489,3.982c2.131-2.694,4.174-5.491,5.935-8.452
		c6.779-11.782,14.831-22.779,21.876-34.398c3.36-6.69,11.574-7.253,17.451-10.686c2.516-1.125,2.072-4.352,2.679-6.587
		c3.449-27.545,3.685-55.327,4.411-83.035C1645.382,812.712,1643.651,802.899,1643.769,792.997z M805.457,402.022
		c5.284,7.342,9.34,16.267,17.48,20.944c5.831,3.449,11.501,7.208,17.554,10.287c3.789-11.678,6.276-23.771,10.612-35.256
		c3.745-6.246,8.54-12.122,14.327-16.607c3.774,8.807,5.077,18.472,8.836,27.249c5.047,6.231,11.382,11.308,16.77,17.273
		c6.942,7.948,18.176,9.014,26.538,14.875c8.022,5.728,15.556,12.107,23.49,17.954c10.272,7.356,18.798,16.755,28.344,24.985
		c2.59,2.694,6.468,4.958,6.853,9.043c1.332,10.687,3.508,21.255,4.367,32.015c0.444,3.937,0.844,7.992,2.412,11.693
		c5.24,5.018,13.203,6.276,18.25,11.545c1.954,4.81,2.161,10.168,4.203,14.964c3.39,3.73,8.111,5.847,12.285,8.57
		c8.969,5.299,17.184,12.285,27.264,15.438c16.074-3.389,31.364-9.858,47.053-14.698c3.242-1.066,6.69-1.865,9.488-3.982
		c-8.6-3.641-17.688-6.024-26.183-9.902c-3.478-1.451-5.062-5.091-7.06-7.993c-2.191-3.671-4.958-7.06-6.498-11.071
		c-0.192-7.445,1.199-14.846,1.969-22.231c2.265-12.019,0.4-24.304,1.85-36.411c0.977-7.608,0.178-15.319,0.932-22.942
		c5.225-7.534,13.869-12.241,18.65-20.041c0.459-8.303,0.429-16.696-0.104-24.999c-5.536-7.712-13.573-13.336-19.893-20.426
		c-9.532-10.465-21.684-17.835-32.8-26.391c-3.774-2.783-7.563-5.684-12.033-7.223c-11.856-4.011-24.333-6.35-35.671-11.797
		c-7.415-4.307-14.564-9.044-21.817-13.602c-4.011-2.353-7.697-6.216-12.685-5.906c-9.429-0.044-18.857-0.148-28.271-0.177
		c-5.58-0.119-10.509,2.812-15.645,4.514c-4.914,1.969-10.228,3.123-14.742,5.921c-5.669,4.81-8.526,12.241-14.52,16.711
		c-5.388,1.85-11.234,1.969-16.859,1.821c-1.88-3.715-1.155-8.378-2.96-12.226c-7.889,0.37-16.311-1.465-23.697,2.161
		c-6.868,3.093-13.676,6.276-20.633,9.132c0.622,6.971,6.261,13.869,2.871,20.781C812.192,384.616,808.092,393.053,805.457,402.022z
		 M1140.646,480.469c3.848-4.144,7.637-8.363,11.219-12.773c4.026-4.988,9.073-9.502,10.879-15.882
		c2.546-8.526,4.899-17.11,6.912-25.769c-5.491-4.218-10.849-8.688-16.918-12.034c-5.565,0.326-10.805,2.59-15.956,4.514
		c-5.699,1.865-7.919,7.963-11.752,12.004c-3.108,3.671-9.058,2.605-12.255,5.921c0.607,7.474,1.643,14.934,2.842,22.335
		c1.88,5.432,5.106,10.479,8.955,14.757C1129.441,476.798,1135.11,478.648,1140.646,480.469z M789.516,470.33
		c4.13,6.35,9.369,11.885,13.795,18.028c2.501,3.404,5.121,7.016,9.177,8.674c9.044,4.144,18.131,8.407,27.871,10.716
		c6.039,1.85,12.388,2.901,18.161,5.565c3.256,3.197,5.461,7.282,8.126,10.968c1.821,2.975,4.381,5.935,4.263,9.65
		c-0.015,8.363-0.829,16.711-0.829,25.088c-6.942,6.602-15.216,11.575-22.379,17.88c6.971,2.191,14.387,2.205,21.417,4.248
		c11.93,3.375,24.022,6.557,35.123,12.211c7.12,4.248,15.438,0.681,22.764-1.051c2.161-6.187,2.901-12.729,4.662-19.004
		c2.975-5.388,7.785-9.488,11.575-14.283c-4.455-7.889-8.259-16.326-13.898-23.415c-10.464-7.016-24.2-9.103-32.533-19.227
		c-3.611-5.166-5.447-11.293-8.111-16.962c-1.599-3.212-2.635-7.193-6.009-8.999c-15.882-8.999-32.355-16.888-48.43-25.532
		c-6.883-3.863-14.668-5.477-22.232-7.416c-2.679-0.489-5.462-1.51-8.155-0.77C798.56,460.65,793.942,465.445,789.516,470.33z
		 M1085.837,760.937c-16.03-13.425-32.578-26.257-47.971-40.422c-1.584,6.172-4.633,12.951-1.835,19.227
		c2.457,5.654,4.588,11.678,8.955,16.207c4.781,5.077,9.177,10.524,13.854,15.719c1.88,1.865,3.686,4.529,6.749,4.159
		c9.488,0.104,19.005,0.237,28.492-0.37C1092.423,770.099,1090.307,764.578,1085.837,760.937z M853.99,1157.121
		c-18.487-6.365-37.403-11.308-56.526-15.319c-4.929,0.385-9.147,3.552-13.262,6.024c11.308,1.214,22.379,3.937,33.643,5.491
		c5.817,0.755,11.264,3.034,16.385,5.817c7.415,4.011,15.571,6.631,22.527,11.486c5.817,4.011,11.412,8.333,17.214,12.403
		c1.969,1.302,4.085,2.931,6.646,2.368c7.86-0.844,15.586-2.575,23.46-3.241c2.131-3.212,3.878-6.661,5.298-10.242
		c-7.859-3.908-15.734-7.993-24.111-10.627C874.831,1160.067,863.981,1160.985,853.99,1157.121z M951.027,1174.276
		c-9.784,2.635-19.923,3.434-29.78,5.698c-0.252,3.241-0.518,6.483-0.799,9.739c6.823,3.73,14.239,6.246,21.743,8.215
		c13.987,3.464,28.566,0.962,42.287-2.531c-5.092-4.5-11.974-6.305-16.903-10.953c-0.459-2.176,0.104-4.396,0.311-6.542
		C962.972,1174.542,956.948,1172.47,951.027,1174.276z M1404.152,1323.369c0.281,1.717-0.992,3.182-1.673,4.648
		c-6.823,11.278-15.097,21.565-22.379,32.548c-4.973,7.386-11.412,13.958-14.49,22.468c-3.227,8.496-6.513,16.977-10.124,25.31
		c-4.144,8.807-1.125,18.827-3.301,28.033c-3.034,3.952-7.652,6.217-11.604,9.103c-22.498,16.429-44.818,33.125-67.464,49.318
		c-27.575,15.497-55.416,30.535-83.05,45.913c-9.621,5.758-20.455,8.91-30.579,13.617c-14.846,6.616-30.076,12.3-44.907,18.946
		c-11.175,5.077-23.342,7.179-34.931,11.057c-17.021,5.314-34.013,10.746-51.271,15.23c-14.638,3.241-29.351,6.024-44.004,9.117
		c-12.389,1.865-24.526,5.373-37.062,6.217c-1.288-5.521-5.151-11.53-1.924-17.051c2.679-6.779,7.771-13.203,7.016-20.855
		c-0.577-5.906-0.622-11.9-1.806-17.717c-6.468-1.539-13.602,0.637-19.701-2.427c-9.606-9.695-17.258-21.166-27.146-30.609
		c-10.746-10.464-21.033-21.417-32.267-31.334c-13.025-9.428-27.96-15.97-40.6-25.991c-4.159-3.286-8.585-6.246-12.596-9.695
		c-3.478-2.353-1.924-6.986-2.279-10.479c0.547-8.629-1.051-17.421,0.503-25.932c3.612-7.119,6.75-14.564,10.997-21.299
		c8.407-4.662,18.294-5.817,26.835-10.213c3.449-3.212,4.662-8.156,6.927-12.196c4.307-7.682,2.028-16.77,3.094-25.118
		c1.081-8.969-1.613-19.138,4.337-26.864v0c-2.975-3.315-7.845-2.546-11.811-3.094c-7.859-0.192-15.704-2.353-23.534-0.814
		c-8.141,0.829-16.651,3.582-24.629,0.563c-16.503-5.98-33.273-11.53-49.184-18.901c-7.075-12.122-11.752-25.636-18.265-38.098
		c-3.552-4.766-8.674-8.037-12.877-12.167c-9.872-9.695-21.876-16.785-33.51-24.082c-14.727-6.749-29.898-12.507-44.744-18.945
		c-23.578-8.57-48.163-14.594-70.809-25.547c-12.152-9.932-23.342-21.047-35.138-31.423c-9.532-10.346-23.933-13.366-35.449-20.766
		c-4.337-4.707-7.193-10.538-11.101-15.571c-1.14-2.028-3.464-4.026-2.679-6.557c1.673-6.72,6.468-13.129,4.366-20.337
		c-2.279-8.156-3.745-16.563-6.631-24.526c-7.341-15.201-15.349-30.106-22.498-45.395c-6.098-18.324-8.762-37.61-15.26-55.801
		c-1.288-3.819-2.501-7.711-4.899-10.982c-4.263,1.184-8.718,1.747-12.788,3.493c-1.776,1.613-0.4,4.337-0.355,6.394
		c3.005,13.084,5.476,26.287,7.815,39.519c1.288,9.029,5.254,17.332,8.037,25.947c2.191,7.001,8.792,11.219,11.989,17.673
		c-7.978-1.066-12.847-7.815-18.013-13.203c-3.759-4.189-8.555-7.889-10.198-13.513c-5.225-15.941-12.019-31.379-16.163-47.66
		c-8.067-29.647-17.761-58.85-25.591-88.556c-1.006-14.328,1.983-28.596,2.975-42.864c1.14-9.177,0.34-18.546,2.457-27.604
		c3.286-14.905,3.641-30.446,8.215-45.055c5.891-12.862,10.879-26.169,17.539-38.675c6.868-10.835,12.255-22.75,20.958-32.326
		c3.922-5.032,8.673-9.487,11.974-14.994c-0.163-8.496-3.819-16.444-4.588-24.851c-1.095-13.336,0.015-26.701,1.465-39.963
		c0.814-6.232,0.074-12.685,2.146-18.709c3.419-10.553,6.276-21.269,9.606-31.837c4.781-15.201,7.756-30.875,11.441-46.357
		c3.049-11.412,0.814-23.282,0.015-34.842c-0.548-8.392-5.254-15.675-7.045-23.756c-1.761-3.375-3.019-7.534-6.779-9.206
		c-10.524-5.299-20.381-12.048-31.749-15.526c-15.512-5.047-30.742-11.071-45.218-18.59c-3.641-3.33-3.996-8.91-5.21-13.454
		c4.87,2.013,8.2,6.35,12.833,8.703c5.95,1.835,12.211,2.25,18.309,3.493c2.368-4.855,3.878-10.05,5.447-15.186
		c2.176-7.238,5.846-13.869,8.984-20.707c3.36-8.999,13.025-12.773,20.396-17.865c10.524-0.637,20.633,5.654,31.068,4.174
		c5.994-7.623,8.881-17.051,12.433-25.917c7.83-2.812,16.518-2.353,24.437-0.03c7.578,2.487,12.714-6.616,20.263-6.098
		c9.132,0.163,18.886-1.658,27.441,2.516c2.442,1.036,4.855,2.161,7.297,3.242c0.992,3.523,1.776,7.119,2.265,10.76v0
		c0.814,4.1,1.909,8.155,2.931,12.211c2.146,8.185,0.711,16.696,1.288,25.029c0.015,4.337,3.271,7.578,5.595,10.923
		c5.417,6.942,9.325,15.112,16.059,20.959c10.509,9.221,20.84,18.65,31.512,27.664c18.531,14.564,37.255,28.877,55.815,43.382
		c2.472,2.013,5.151,3.745,8.037,5.136c1.895-7.297,2.59-14.801,4.085-22.172c-6.661-6.069-14.727-10.494-20.958-17.021
		c-2.22-5.758-1.717-12.27-4.204-17.924c-4.499-5.521-10.435-9.65-15.704-14.387c3.286-3.981,7.164-7.415,11.131-10.701
		c1.658-1.821,4.263-1.451,6.512-1.673c5.418-0.059,10.82-0.873,16.252-0.77c5.802,5.935,8.807,13.973,14.105,20.293
		c5.121,4.618,12.463,5.846,17.525,10.553c2.768,6.261,5.032,12.759,7.252,19.227c2.161,11.219-0.311,22.824,1.628,34.072
		c3.034,3.848,7.252,6.661,11.56,8.94c5.461-2.753,9.976-7.445,13.839-12.152c2.22-8.318,3.034-16.962,4.633-25.414
		c3.685-0.296,7.386-0.444,11.101-0.503c1.909,8.526,1.746,17.332,3.019,25.947c1.421,4.159,1.125,9.339,3.848,12.803
		c6.794,2.724,13.958,4.781,21.107,6.305c6.069-1.554,11.752-4.366,17.747-6.246c4.426,4.529,8.97,8.984,12.625,14.194
		c-4.944,5.728-8.733,12.596-14.89,17.169c-8.037,5.728-15.911,11.664-23.638,17.776c-8.067,7.711-16.015,15.571-24.082,23.282
		c-6.335,5.787-10.376,13.44-14.949,20.574c-3.005,5.299-8.052,9.798-8.881,16.104c-0.947,9.088-0.577,18.309-2.339,27.323
		c-1.229,4.884,0.784,9.502,3.389,13.528c3.094,3.685,5.402,8.007,8.688,11.545c7.312,2.501,15.009,3.804,22.558,5.536
		c10.079,1.436,18.768,7.045,28.152,10.598c1.436,6.675,1.865,13.499,2.176,20.322c-0.015,3.789,2.487,6.823,4.411,9.887
		c4.411,6.35,7.845,13.588,13.958,18.561c4.84,3.952,9.014,8.91,14.742,11.649c1.08-11.234,4.47-22.069,5.536-33.288
		c0.873-7.238,2.768-14.298,3.315-21.565c0.577-6.971,6.69-11.619,8.851-17.984c-1.569-6.823-11.338-9.739-10.894-17.495
		c-1.362-18.502-2.22-37.047-1.554-55.594c5.802-1.332,11.915-6.039,17.835-2.738c11.93,5.521,24.378,9.887,36.189,15.645
		c6.646,5.151,10.035,13.44,16.296,19.034c11.619,3.448,23.859,4.337,35.908,5.328c3.922,0.178,6.897,3.005,9.872,5.24
		c6.853,5.536,14.091,10.568,21.003,16.015c6.305,5.032,13.44,9.177,18.62,15.512c5.136,6.202,10.361,12.329,15.674,18.383
		c5.787,6.054,7.445,14.535,10.465,22.069c2.768,5.965-2.146,11.649-4.085,17.11c-1.525,4.559-6.631,5.595-10.509,7.342
		c-6.483,2.413-12.714,6.083-19.774,6.439c-5.106,0.622-10.568,0.37-15.186,3.005c-6.424,3.508-12.818,7.075-19.478,10.124
		c-5.965,2.516-9.739,7.948-14.239,12.315c-2.664,2.753-5.654,5.225-7.919,8.333c-1.288,3.567,0.666,7.193,1.894,10.494
		c9.28-3.019,18.28-7.386,25.562-13.987c2.797-2.146,5.24-5.062,8.673-6.143c4.44,0.622,8.836,1.761,12.996,3.478
		c2.131,5.254,1.317,11.293,2.353,16.859c11.086,5.388,23.179,1.613,34.724,0.488c1.998,4.233,3.819,8.585,5.595,12.936
		c-8.096,4.544-16.044,9.354-24.111,13.958c-5.314,3.064-11.279,5.18-15.896,9.31c-3.434,3.464-6.305,7.43-9.68,10.938
		c-4.633-2.072-8.94-4.781-13.588-6.735c-7.193,2.442-15.66,5.092-19.301,12.433c-4.692,8.141-10.879,15.512-14.032,24.466
		c-1.362,3.049-2.057,6.527-4.292,9.088c-4.085,2.353-9.65,2.531-12.374,6.823c-4.589,6.72-9.68,13.158-13.632,20.263
		c-4.085,10.331-7.859,20.796-11.723,31.216c-2.235,10.391-1.199,21.225-2.486,31.719c-8.984,8.836-18.857,16.888-29.247,24.052
		c-6.912,4.84-13.336,10.42-20.751,14.52c-2.146,9.562-11.323,16.074-12.566,26.006c-0.992,6.986-2.916,13.839-3.301,20.899
		c1.376,5.95,4.914,11.101,7.43,16.637c4.426,8.659,4.559,18.59,6.838,27.871c-4.322,1.969-8.925,3.123-13.528,4.189
		c-6.527-9.843-13.884-19.094-20.041-29.173c-4.204-5.624-7.371-12.137-12.448-17.021c-5.935-3.286-12.581-5.062-18.635-8.126
		c-6.853-3.745-14.875-3.005-22.35-4.115c-3.73-0.311-7.489-1.391-11.219-0.814c-7.194,2.294-12.936,8.2-20.677,8.955
		c-3.715,0.355-7.815,1.421-11.219-0.607c-5.047-2.531-9.71-6.217-15.512-6.749c-7.223-0.962-14.609-3.123-21.876-1.288
		c-8.925,2.013-18.013,3.345-26.805,5.891c-2.945,0.71-4.44,3.552-6.187,5.743c-6.69,9.488-14.135,18.442-20.47,28.182
		c-3.064,6.779-2.043,14.609-4.751,21.551c-0.163,11.427,1.11,22.957,2.205,34.413c0.311,2.945,0.799,6.231,3.375,8.141
		c6.957,5.876,14.209,11.397,21.136,17.332c8.096,7.726,19.493,10.035,29.854,13.188c6.276-0.592,12.403-2.871,18.235-5.225
		c4.307-4.766,5.935-11.56,10.849-15.808c6.69-3.123,13.78-5.743,21.018-7.267c5.758,2.309,10.731,6.157,15.941,9.502
		c-0.562,8.363-2.546,16.533-3.656,24.837c-0.962,7.771-6.809,13.647-8.955,20.988c-0.577,5.476,1.495,10.746,2.931,15.926
		c13.247,2.102,27.116-2.176,39.948,2.709c6.957,2.324,14.653,3.049,20.826,7.371c4.129,2.797,8.081,5.876,12.374,8.481
		c0.133,5.758,0.37,11.589-0.71,17.288c-1.82,7.978-5.773,15.349-7.312,23.401c0.873,4.855,2.427,9.754,5.077,13.958
		c5.417,5.062,12.048,8.57,17.835,13.203c3.478,2.235,6.468,6.083,10.909,6.217c15.808,0.977,31.586,2.62,47.024,6.246
		c5.017-3.996,9.236-8.851,13.78-13.336c5.358-4.884,11.293-9.073,16.799-13.795c5.846-5.21,13.588-7.223,20.441-10.716
		c3.375-1.465,6.986-3.908,10.82-2.531c11.604,3.804,23.031,8.259,34.679,11.93c8.599-2.516,15.882-8.984,25.088-9.606
		c16.059-1.229,32.222,0.03,48.296-1.021c12.078-2.368,23.919-5.95,36.056-8.052c10.228,2.871,19.582,8.2,29.514,11.959
		c7.563,2.724,14.624,7.031,22.661,8.303c11.264,2.028,22.513,4.204,33.836,5.876c19.123,0.785,38.335-0.592,57.444,0.311
		c7.253,6.231,12.492,14.446,19.079,21.358c4.603,5.343,9.488,10.464,13.395,16.37c5.772,2.664,12.078,0.503,18.043-0.163
		c9.621-1.776,19.434-2.25,29.07-3.922c14.106-2.931,28.063-6.468,42.124-9.591c11.293-2.279,21.566-7.667,32.074-12.152
		c5.551-2.427,12.078-0.548,16.74,2.96C1394.738,1315.865,1399.963,1319.017,1404.152,1323.369z M871.665,1324.869
		c-0.515,1.207-0.908,2.498-1.156,3.887v0C870.756,1327.367,871.15,1326.077,871.665,1324.869z"/>
</g>
</svg>
