<?xml version="1.0" encoding="utf-8" standalone="no"?>
<!DOCTYPE svg PUBLIC "-//W3C//DTD SVG 1.1//EN"
  "http://www.w3.org/Graphics/SVG/1.1/DTD/svg11.dtd">
<svg xmlns:xlink="http://www.w3.org/1999/xlink" width="684pt" height="381.33375pt" viewBox="0 0 684 381.33375" xmlns="http://www.w3.org/2000/svg" version="1.1">
 <metadata>
  <rdf:RDF xmlns:dc="http://purl.org/dc/elements/1.1/" xmlns:cc="http://creativecommons.org/ns#" xmlns:rdf="http://www.w3.org/1999/02/22-rdf-syntax-ns#">
   <cc:Work>
    <dc:type rdf:resource="http://purl.org/dc/dcmitype/StillImage"/>
    <dc:date>2025-12-22T21:32:01.691030</dc:date>
    <dc:format>image/svg+xml</dc:format>
    <dc:creator>
     <cc:Agent>
      <dc:title>Matplotlib v3.10.8, https://matplotlib.org/</dc:title>
     </cc:Agent>
    </dc:creator>
   </cc:Work>
  </rdf:RDF>
 </metadata>
 <defs>
  <style type="text/css">*{stroke-linejoin: round; stroke-linecap: butt}</style>
 </defs>
 <g id="figure_1">
  <g id="patch_1">
   <path d="M 0 381.33375 
L 684 381.33375 
L 684 0 
L 0 0 
z
" style="fill: #ffffff"/>
  </g>
  <g id="axes_1">
   <g id="line2d_1">
    <path d="M 15.428571 324.72 
L 317.828571 324.72 
L 166.628571 22.32 
L 15.428571 324.72 
" clip-path="url(#p3c33fec388)" style="fill: none; stroke: #000000; stroke-linecap: square"/>
   </g>
   <g id="line2d_2">
    <defs>
     <path id="me94580e29f" d="M 0 -10 
L -2.24514 -3.09017 
L -9.510565 -3.09017 
L -3.632713 1.18034 
L -5.877853 8.09017 
L -0 3.81966 
L 5.877853 8.09017 
L 3.632713 1.18034 
L 9.510565 -3.09017 
L 2.24514 -3.09017 
z
" style="stroke: #ffa500; stroke-linejoin: bevel"/>
    </defs>
    <g clip-path="url(#p3c33fec388)">
     <use xlink:href="#me94580e29f" x="15.428571" y="324.72" style="fill: #ffa500; stroke: #ffa500; stroke-linejoin: bevel"/>
     <use xlink:href="#me94580e29f" x="91.028571" y="324.72" style="fill: #ffa500; stroke: #ffa500; stroke-linejoin: bevel"/>
     <use xlink:href="#me94580e29f" x="166.628571" y="324.72" style="fill: #ffa500; stroke: #ffa500; stroke-linejoin: bevel"/>
     <use xlink:href="#me94580e29f" x="242.228571" y="324.72" style="fill: #ffa500; stroke: #ffa500; stroke-linejoin: bevel"/>
     <use xlink:href="#me94580e29f" x="317.828571" y="324.72" style="fill: #ffa500; stroke: #ffa500; stroke-linejoin: bevel"/>
    </g>
   </g>
   <g id="line2d_3">
    <g clip-path="url(#p3c33fec388)">
     <use xlink:href="#me94580e29f" x="53.228571" y="249.12" style="fill: #ffa500; stroke: #ffa500; stroke-linejoin: bevel"/>
     <use xlink:href="#me94580e29f" x="128.828571" y="249.12" style="fill: #ffa500; stroke: #ffa500; stroke-linejoin: bevel"/>
     <use xlink:href="#me94580e29f" x="204.428571" y="249.12" style="fill: #ffa500; stroke: #ffa500; stroke-linejoin: bevel"/>
     <use xlink:href="#me94580e29f" x="280.028571" y="249.12" style="fill: #ffa500; stroke: #ffa500; stroke-linejoin: bevel"/>
    </g>
   </g>
   <g id="line2d_4">
    <g clip-path="url(#p3c33fec388)">
     <use xlink:href="#me94580e29f" x="91.028571" y="173.52" style="fill: #ffa500; stroke: #ffa500; stroke-linejoin: bevel"/>
     <use xlink:href="#me94580e29f" x="166.628571" y="173.52" style="fill: #ffa500; stroke: #ffa500; stroke-linejoin: bevel"/>
     <use xlink:href="#me94580e29f" x="242.228571" y="173.52" style="fill: #ffa500; stroke: #ffa500; stroke-linejoin: bevel"/>
    </g>
   </g>
   <g id="line2d_5">
    <g clip-path="url(#p3c33fec388)">
     <use xlink:href="#me94580e29f" x="128.828571" y="97.92" style="fill: #ffa500; stroke: #ffa500; stroke-linejoin: bevel"/>
     <use xlink:href="#me94580e29f" x="204.428571" y="97.92" style="fill: #ffa500; stroke: #ffa500; stroke-linejoin: bevel"/>
    </g>
   </g>
   <g id="line2d_6">
    <g clip-path="url(#p3c33fec388)">
     <use xlink:href="#me94580e29f" x="166.628571" y="22.32" style="fill: #ffa500; stroke: #ffa500; stroke-linejoin: bevel"/>
    </g>
   </g>
   <g id="text_1">
    <!-- $T_{5}=15$ -->
    <g transform="translate(145.088571 371.638125) scale(0.12 -0.12)">
     <defs>
      <path id="DejaVuSans-Oblique-54" d="M 378 4666 
L 4325 4666 
L 4225 4134 
L 2559 4134 
L 1759 0 
L 1125 0 
L 1925 4134 
L 275 4134 
L 378 4666 
z
" transform="scale(0.015625)"/>
      <path id="DejaVuSans-35" d="M 691 4666 
L 3169 4666 
L 3169 4134 
L 1269 4134 
L 1269 2991 
Q 1406 3038 1543 3061 
Q 1681 3084 1819 3084 
Q 2600 3084 3056 2656 
Q 3513 2228 3513 1497 
Q 3513 744 3044 326 
Q 2575 -91 1722 -91 
Q 1428 -91 1123 -41 
Q 819 9 494 109 
L 494 744 
Q 775 591 1075 516 
Q 1375 441 1709 441 
Q 2250 441 2565 725 
Q 2881 1009 2881 1497 
Q 2881 1984 2565 2268 
Q 2250 2553 1709 2553 
Q 1456 2553 1204 2497 
Q 953 2441 691 2322 
L 691 4666 
z
" transform="scale(0.015625)"/>
      <path id="DejaVuSans-3d" d="M 678 2906 
L 4684 2906 
L 4684 2381 
L 678 2381 
L 678 2906 
z
M 678 1631 
L 4684 1631 
L 4684 1100 
L 678 1100 
L 678 1631 
z
" transform="scale(0.015625)"/>
      <path id="DejaVuSans-31" d="M 794 531 
L 1825 531 
L 1825 4091 
L 703 3866 
L 703 4441 
L 1819 4666 
L 2450 4666 
L 2450 531 
L 3481 531 
L 3481 0 
L 794 0 
L 794 531 
z
" transform="scale(0.015625)"/>
     </defs>
     <use xlink:href="#DejaVuSans-Oblique-54" transform="translate(0 0.09375)"/>
     <use xlink:href="#DejaVuSans-35" transform="translate(61.083984 -16.3125) scale(0.7)"/>
     <use xlink:href="#DejaVuSans-3d" transform="translate(127.836914 0.09375)"/>
     <use xlink:href="#DejaVuSans-31" transform="translate(231.108398 0.09375)"/>
     <use xlink:href="#DejaVuSans-35" transform="translate(294.731445 0.09375)"/>
    </g>
   </g>
  </g>
  <g id="axes_2">
   <g id="line2d_7">
    <path d="M 517.371429 35.678562 
L 553.605195 62.003934 
L 539.765128 104.599281 
L 494.977729 104.599281 
L 481.137662 62.003934 
L 517.371429 35.678562 
" clip-path="url(#p077f611f5e)" style="fill: none; stroke: #000000; stroke-linecap: square"/>
   </g>
   <g id="line2d_8">
    <path d="M 517.371429 35.678562 
L 589.838961 88.329306 
L 562.158827 173.52 
L 472.58403 173.52 
L 444.903896 88.329306 
L 517.371429 35.678562 
" clip-path="url(#p077f611f5e)" style="fill: none; stroke: #000000; stroke-linecap: square"/>
   </g>
   <g id="line2d_9">
    <path d="M 517.371429 35.678562 
L 626.072727 114.654678 
L 584.552526 242.440719 
L 450.190331 242.440719 
L 408.67013 114.654678 
L 517.371429 35.678562 
" clip-path="url(#p077f611f5e)" style="fill: none; stroke: #000000; stroke-linecap: square"/>
   </g>
   <g id="line2d_10">
    <path d="M 517.371429 35.678562 
L 662.306494 140.980051 
L 606.946225 311.361438 
L 427.796632 311.361438 
L 372.436364 140.980051 
L 517.371429 35.678562 
" clip-path="url(#p077f611f5e)" style="fill: none; stroke: #000000; stroke-linecap: square"/>
   </g>
   <g id="line2d_11">
    <defs>
     <path id="md82c6a5de2" d="M 0 5 
C 1.326016 5 2.597899 4.473168 3.535534 3.535534 
C 4.473168 2.597899 5 1.326016 5 0 
C 5 -1.326016 4.473168 -2.597899 3.535534 -3.535534 
C 2.597899 -4.473168 1.326016 -5 0 -5 
C -1.326016 -5 -2.597899 -4.473168 -3.535534 -3.535534 
C -4.473168 -2.597899 -5 -1.326016 -5 0 
C -5 1.326016 -4.473168 2.597899 -3.535534 3.535534 
C -2.597899 4.473168 -1.326016 5 0 5 
z
" style="stroke: #008000"/>
    </defs>
    <g clip-path="url(#p077f611f5e)">
     <use xlink:href="#md82c6a5de2" x="517.371429" y="35.678562" style="fill: #008000; stroke: #008000"/>
    </g>
   </g>
   <g id="line2d_12">
    <g clip-path="url(#p077f611f5e)">
     <use xlink:href="#md82c6a5de2" x="553.605195" y="62.003934" style="fill: #008000; stroke: #008000"/>
     <use xlink:href="#md82c6a5de2" x="539.765128" y="104.599281" style="fill: #008000; stroke: #008000"/>
    </g>
   </g>
   <g id="line2d_13">
    <g clip-path="url(#p077f611f5e)">
     <use xlink:href="#md82c6a5de2" x="494.977729" y="104.599281" style="fill: #008000; stroke: #008000"/>
    </g>
   </g>
   <g id="line2d_14">
    <g clip-path="url(#p077f611f5e)">
     <use xlink:href="#md82c6a5de2" x="481.137662" y="62.003934" style="fill: #008000; stroke: #008000"/>
    </g>
   </g>
   <g id="line2d_15">
    <g clip-path="url(#p077f611f5e)">
     <use xlink:href="#md82c6a5de2" x="589.838961" y="88.329306" style="fill: #008000; stroke: #008000"/>
     <use xlink:href="#md82c6a5de2" x="575.998894" y="130.924653" style="fill: #008000; stroke: #008000"/>
     <use xlink:href="#md82c6a5de2" x="562.158827" y="173.52" style="fill: #008000; stroke: #008000"/>
    </g>
   </g>
   <g id="line2d_16">
    <g clip-path="url(#p077f611f5e)">
     <use xlink:href="#md82c6a5de2" x="517.371429" y="173.52" style="fill: #008000; stroke: #008000"/>
     <use xlink:href="#md82c6a5de2" x="472.58403" y="173.52" style="fill: #008000; stroke: #008000"/>
    </g>
   </g>
   <g id="line2d_17">
    <g clip-path="url(#p077f611f5e)">
     <use xlink:href="#md82c6a5de2" x="458.743963" y="130.924653" style="fill: #008000; stroke: #008000"/>
     <use xlink:href="#md82c6a5de2" x="444.903896" y="88.329306" style="fill: #008000; stroke: #008000"/>
    </g>
   </g>
   <g id="line2d_18">
    <g clip-path="url(#p077f611f5e)">
     <use xlink:href="#md82c6a5de2" x="626.072727" y="114.654678" style="fill: #008000; stroke: #008000"/>
     <use xlink:href="#md82c6a5de2" x="612.23266" y="157.250025" style="fill: #008000; stroke: #008000"/>
     <use xlink:href="#md82c6a5de2" x="598.392593" y="199.845372" style="fill: #008000; stroke: #008000"/>
     <use xlink:href="#md82c6a5de2" x="584.552526" y="242.440719" style="fill: #008000; stroke: #008000"/>
    </g>
   </g>
   <g id="line2d_19">
    <g clip-path="url(#p077f611f5e)">
     <use xlink:href="#md82c6a5de2" x="539.765128" y="242.440719" style="fill: #008000; stroke: #008000"/>
     <use xlink:href="#md82c6a5de2" x="494.977729" y="242.440719" style="fill: #008000; stroke: #008000"/>
     <use xlink:href="#md82c6a5de2" x="450.190331" y="242.440719" style="fill: #008000; stroke: #008000"/>
    </g>
   </g>
   <g id="line2d_20">
    <g clip-path="url(#p077f611f5e)">
     <use xlink:href="#md82c6a5de2" x="436.350264" y="199.845372" style="fill: #008000; stroke: #008000"/>
     <use xlink:href="#md82c6a5de2" x="422.510197" y="157.250025" style="fill: #008000; stroke: #008000"/>
     <use xlink:href="#md82c6a5de2" x="408.67013" y="114.654678" style="fill: #008000; stroke: #008000"/>
    </g>
   </g>
   <g id="line2d_21">
    <g clip-path="url(#p077f611f5e)">
     <use xlink:href="#md82c6a5de2" x="662.306494" y="140.980051" style="fill: #008000; stroke: #008000"/>
     <use xlink:href="#md82c6a5de2" x="648.466426" y="183.575397" style="fill: #008000; stroke: #008000"/>
     <use xlink:href="#md82c6a5de2" x="634.626359" y="226.170744" style="fill: #008000; stroke: #008000"/>
     <use xlink:href="#md82c6a5de2" x="620.786292" y="268.766091" style="fill: #008000; stroke: #008000"/>
     <use xlink:href="#md82c6a5de2" x="606.946225" y="311.361438" style="fill: #008000; stroke: #008000"/>
    </g>
   </g>
   <g id="line2d_22">
    <g clip-path="url(#p077f611f5e)">
     <use xlink:href="#md82c6a5de2" x="562.158827" y="311.361438" style="fill: #008000; stroke: #008000"/>
     <use xlink:href="#md82c6a5de2" x="517.371429" y="311.361438" style="fill: #008000; stroke: #008000"/>
     <use xlink:href="#md82c6a5de2" x="472.58403" y="311.361438" style="fill: #008000; stroke: #008000"/>
     <use xlink:href="#md82c6a5de2" x="427.796632" y="311.361438" style="fill: #008000; stroke: #008000"/>
    </g>
   </g>
   <g id="line2d_23">
    <g clip-path="url(#p077f611f5e)">
     <use xlink:href="#md82c6a5de2" x="413.956565" y="268.766091" style="fill: #008000; stroke: #008000"/>
     <use xlink:href="#md82c6a5de2" x="400.116498" y="226.170744" style="fill: #008000; stroke: #008000"/>
     <use xlink:href="#md82c6a5de2" x="386.276431" y="183.575397" style="fill: #008000; stroke: #008000"/>
     <use xlink:href="#md82c6a5de2" x="372.436364" y="140.980051" style="fill: #008000; stroke: #008000"/>
    </g>
   </g>
   <g id="text_2">
    <!-- $P_{5}=35$ -->
    <g transform="translate(495.891429 365.266961) scale(0.12 -0.12)">
     <defs>
      <path id="DejaVuSans-Oblique-50" d="M 1081 4666 
L 2541 4666 
Q 3178 4666 3512 4369 
Q 3847 4072 3847 3500 
Q 3847 2731 3353 2303 
Q 2859 1875 1966 1875 
L 1172 1875 
L 806 0 
L 172 0 
L 1081 4666 
z
M 1613 4147 
L 1275 2394 
L 2069 2394 
Q 2606 2394 2893 2669 
Q 3181 2944 3181 3456 
Q 3181 3784 2986 3965 
Q 2791 4147 2438 4147 
L 1613 4147 
z
" transform="scale(0.015625)"/>
      <path id="DejaVuSans-33" d="M 2597 2516 
Q 3050 2419 3304 2112 
Q 3559 1806 3559 1356 
Q 3559 666 3084 287 
Q 2609 -91 1734 -91 
Q 1441 -91 1130 -33 
Q 819 25 488 141 
L 488 750 
Q 750 597 1062 519 
Q 1375 441 1716 441 
Q 2309 441 2620 675 
Q 2931 909 2931 1356 
Q 2931 1769 2642 2001 
Q 2353 2234 1838 2234 
L 1294 2234 
L 1294 2753 
L 1863 2753 
Q 2328 2753 2575 2939 
Q 2822 3125 2822 3475 
Q 2822 3834 2567 4026 
Q 2313 4219 1838 4219 
Q 1578 4219 1281 4162 
Q 984 4106 628 3988 
L 628 4550 
Q 988 4650 1302 4700 
Q 1616 4750 1894 4750 
Q 2613 4750 3031 4423 
Q 3450 4097 3450 3541 
Q 3450 3153 3228 2886 
Q 3006 2619 2597 2516 
z
" transform="scale(0.015625)"/>
     </defs>
     <use xlink:href="#DejaVuSans-Oblique-50" transform="translate(0 0.78125)"/>
     <use xlink:href="#DejaVuSans-35" transform="translate(60.302734 -15.625) scale(0.7)"/>
     <use xlink:href="#DejaVuSans-3d" transform="translate(127.055664 0.78125)"/>
     <use xlink:href="#DejaVuSans-33" transform="translate(230.327148 0.78125)"/>
     <use xlink:href="#DejaVuSans-35" transform="translate(293.950195 0.78125)"/>
    </g>
   </g>
  </g>
 </g>
 <defs>
  <clipPath id="p3c33fec388">
   <rect x="7.2" y="7.2" width="318.857143" height="332.64"/>
  </clipPath>
  <clipPath id="p077f611f5e">
   <rect x="357.942857" y="7.2" width="318.857143" height="332.64"/>
  </clipPath>
 </defs>
</svg>
