<?xml version="1.0" encoding="UTF-8" standalone="no"?>
<!-- Created with Inkscape (http://www.inkscape.org/) -->
<svg width="210mm" height="130mm" viewBox="0 0 210 130" version="1.1" id="svg381" xmlns="http://www.w3.org/2000/svg" xmlns:svg="http://www.w3.org/2000/svg">
  <defs id="defs378"/>
  <g id="layer1">
    <path style="fill:#000000;stroke-width:0.264583" d="m 140.8697,62.100302 c -1.25862,-2.5081 -1.33459,-2.59866 -2.08727,-2.48818 -1.14678,0.16831 -3.59294,-0.40867 -4.5947,-1.08376 -2.01905,-1.36064 -2.67801,-4.23381 -1.40219,-6.11383 l 0.66868,-0.98535 -0.67396,-0.53014 c -1.50326,-1.18247 -2.00861,-3.85074 -0.98852,-5.21944 0.97837,-1.31271 2.07484,-1.72346 4.90397,-1.83709 1.43412,-0.0576 2.71845,0.006 2.85408,0.14187 0.13563,0.13563 0.1767,0.59635 0.0913,1.02382 l -0.15534,0.77721 h -2.38385 c -2.2838,0 -2.41067,0.0312 -3.02297,0.74236 -0.84249,0.97858 -0.80705,1.83947 0.11835,2.87517 0.75233,0.84201 0.77295,0.84733 3.04271,0.78477 2.22741,-0.0614 2.28513,-0.0476 2.28119,0.54549 -0.007,0.97877 -0.30138,1.18114 -1.96476,1.34853 -1.83876,0.18503 -2.81918,0.80865 -3.16455,2.01289 -0.52915,1.84505 1.09965,3.46475 3.48423,3.46475 0.99716,0 1.01199,-0.0147 0.90862,-0.90012 -0.13136,-1.12522 0.65514,-2.0103 1.78639,-2.0103 2.42861,0 3.54414,2.39976 1.85084,3.98155 -0.80539,0.75234 -0.8063,0.75649 -0.35911,1.6275 0.24659,0.48028 0.84609,1.49755 1.33223,2.26059 l 0.88389,1.38734 -0.95397,0.3986 c -0.52469,0.21922 -0.99788,0.39859 -1.05154,0.39859 -0.0537,0 -0.68534,-1.17127 -1.40372,-2.60282 z" id="path954"/>
    <path style="fill:#000000;stroke-width:0.264583" d="m 120.12739,61.594262 c -0.70577,-1.41882 -1.56221,-3.26429 -1.90318,-4.10104 -0.6003,-1.4731 -0.65158,-1.52135 -1.61659,-1.52135 -5.075,0 -7.77082,-3.33976 -6.84276,-8.47728 0.35784,-1.98093 1.25322,-4.22339 1.68548,-4.22125 0.16398,8.2e-4 0.72366,0.11968 1.24372,0.26415 l 0.94557,0.26268 -0.79434,1.65408 c -1.0254,2.13522 -1.26146,5.11693 -0.51776,6.53987 0.6015,1.15086 1.73251,1.81505 3.26173,1.91547 l 1.18631,0.0779 0.029,-1.03906 c 0.0398,-1.42392 0.88137,-2.11091 2.34544,-1.91454 1.32173,0.17729 1.99117,0.95141 1.99117,2.30256 0,0.976 -0.35674,1.57081 -1.23782,2.06389 -0.36169,0.20241 -0.25269,0.58276 0.80981,2.82572 0.67527,1.4255 1.57226,3.1517 1.99331,3.836 l 0.76554,1.24417 -0.90981,0.43386 c -0.5004,0.23863 -0.96422,0.43386 -1.03072,0.43386 -0.0665,0 -0.69835,-1.16086 -1.40412,-2.57969 z" id="path960"/>
    <path id="path940" style="fill:#000000;stroke-width:0.225179" d="m 32.137324,71.262411 c -2.024403,0.182225 -4.163755,1.855616 -4.345345,4.307584 -0.164208,1.955442 1.169807,3.66398 2.748337,4.20261 1.142059,0.449623 2.364311,0.396122 3.550879,0.298345 0.03308,3.373551 -0.08727,6.759108 0.141189,10.124061 0.169633,1.067032 1.851919,1.065532 1.896651,-0.100044 0.239877,-2.652225 0.127393,-5.330533 0.190317,-7.99378 -0.03006,-2.555052 0.144917,-5.141536 -0.235531,-7.671164 -0.334787,-1.853969 -1.896326,-3.270485 -3.562182,-3.186028 -0.128105,0.0061 -0.25621,0.01228 -0.384315,0.01842 z m 0.510267,2.290994 c 1.165792,0.282027 1.428735,1.86993 1.441137,3.026791 -0.01012,0.411558 0.114262,1.064563 -0.39946,1.106114 -1.250085,0.468392 -3.005384,0.105641 -3.570406,-1.396237 -0.239411,-1.237151 0.800182,-2.27592 1.738937,-2.63573 0.254209,-0.09129 0.523671,-0.140401 0.789792,-0.100938 z"/>
    <path id="path946" style="fill:#000000;stroke-width:0.264583" d="m 197.06661,42.8891 c -0.26032,0.0011 -0.53007,0.01508 -0.80874,0.04186 -3.93346,0.377952 -5.56128,4.95513 -2.94504,8.281149 0.276,0.350869 2.45225,2.255343 4.83588,4.231783 5.38172,4.46238 5.72057,4.925033 4.84364,6.606833 -0.40046,0.76802 -0.39067,0.808972 0.33228,1.387512 0.40977,0.327938 0.8246,0.596588 0.9219,0.597379 0.52266,0.0039 1.27848,-1.880925 1.27848,-3.188435 0,-1.925161 -0.52558,-2.605148 -4.41317,-5.706629 l -3.23753,-2.582788 0.91261,-0.313677 c 2.2732,-0.781489 3.12539,-2.003097 3.12539,-4.478795 0,-3.127147 -1.77395,-4.888606 -4.8457,-4.876189 z m 0.009,1.844331 c 0.59784,0.01115 1.15497,0.314717 1.76216,0.921909 0.87396,0.874001 0.92475,1.016521 0.80409,2.272213 -0.0915,0.95269 -0.31576,1.526534 -0.77515,1.985925 -0.89848,0.89848 -2.2491,1.057812 -3.31504,0.390673 -1.75576,-1.098899 -1.74838,-3.99806 0.0129,-5.072041 0.5565,-0.339333 1.04603,-0.507352 1.51102,-0.498679 z"/>
    <path id="path956" style="fill:#000000;stroke-width:0.264583" d="m 89.855264,44.540887 c -0.503896,0.01257 -0.523483,0.351972 -0.523483,1.388544 0,1.875131 0.84683,3.520003 3.061829,5.946923 l 1.756999,1.925465 -0.69505,0.852144 c -2.129119,2.61004 -2.709602,4.171423 -2.215368,5.961393 0.308615,1.117711 1.516883,2.328291 2.683038,2.68769 1.12038,0.345282 3.36032,0.151773 4.3863,-0.378788 2.522431,-1.304398 2.465441,-4.781198 -0.13022,-7.948866 l -0.95602,-1.167371 1.86449,-2.154391 c 2.281141,-2.635461 2.944001,-3.931481 2.944001,-5.755722 0,-1.473358 -0.0449,-1.508037 -1.55443,-1.206127 -0.765131,0.153019 -0.827001,0.24679 -0.829401,1.256771 -0.003,1.299901 -0.99613,3.117175 -2.76572,5.060156 l -1.20458,1.322917 -1.44694,-1.557528 c -1.724574,-1.856391 -2.517678,-3.381806 -2.517678,-4.843116 0,-0.99123 -0.06373,-1.08658 -0.826823,-1.2392 -0.472885,-0.09458 -0.8019,-0.156609 -1.030944,-0.150894 z m 5.679755,11.059271 c 0.28137,0.0083 0.57026,0.316669 1.04852,0.8754 1.59668,1.86536 1.79954,3.981937 0.45113,4.703588 -0.28844,0.154361 -0.99969,0.280604 -1.58078,0.280604 -2.118904,0 -2.788157,-2.125882 -1.35186,-4.294312 0.72193,-1.089901 1.07123,-1.575895 1.43299,-1.56528 z"/>
    <path id="path968" style="fill:#000000;stroke-width:0.264583" d="m 13.829096,48.774525 c -3.8709326,0.01351 -6.3380703,2.714332 -5.9489904,6.512782 0.245895,2.400589 1.7254868,4.305494 3.8814164,4.996593 2.202574,0.706062 5.101968,0.03924 6.542237,-1.504818 1.935671,-2.075148 1.869682,-6.137621 -0.133842,-8.248591 -1.169928,-1.23267 -2.479328,-1.761966 -4.340821,-1.755966 z m 0.13746,1.908929 c 2.064181,0.01561 3.475348,1.511216 3.463871,3.747575 -0.0084,1.639969 -0.634693,2.915012 -1.773018,3.60908 -0.963254,0.58733 -2.646263,0.670954 -3.616834,0.179835 -1.096677,-0.554919 -1.860351,-1.957578 -1.860351,-3.41788 0,-2.338268 1.3005,-3.923739 3.364652,-4.101557 0.143187,-0.01234 0.284068,-0.0181 0.42168,-0.01705 z"/>
    <path style="fill:#000000;stroke-width:0.264583" d="m 157.22187,59.651156 c -3.56504,-1.33451 -5.35536,-5.25185 -6.46098,-14.13715 -0.13983,-1.12368 -0.0986,-1.38906 0.21578,-1.38906 0.21375,0 0.7607,-0.0744 1.21545,-0.16536 0.8165,-0.1633 0.82683,-0.15207 0.82683,0.89975 0,1.66918 0.97802,6.9686 1.58592,8.59338 1.13642,3.03735 2.63559,4.43057 4.76752,4.43057 2.43884,0 3.30957,-1.46825 3.11752,-5.25687 -0.17398,-3.43221 -1.33729,-5.32647 -3.27112,-5.32647 -1.53858,0 -2.28014,1.80304 -1.18994,2.89324 0.50482,0.50482 2.08608,1.07116 2.99878,1.07404 0.37622,10e-4 0.43394,0.14425 0.29415,0.72908 -0.0957,0.40018 -0.22401,0.8169 -0.28524,0.92604 -0.32851,0.58558 -3.22578,-0.22932 -4.26489,-1.19957 -1.36835,-1.27767 -1.75926,-3.17 -0.9701,-4.69607 0.90019,-1.74078 3.99907,-2.23896 5.9395,-0.95484 3.74326,2.47717 4.23768,10.76041 0.77891,13.04932 -1.24339,0.82283 -3.82567,1.08114 -5.29809,0.52997 z" id="path966"/>
    <path style="fill:#000000;stroke-width:0.264583" d="m 176.19718,61.838436 c -3.61806,-0.73802 -5.21583,-4.13112 -3.58993,-7.62378 0.74899,-1.60894 1.14631,-2.14131 5.50336,-7.37394 l 3.13626,-3.76651 0.9131,0.69645 c 0.903,0.68876 0.9076,0.7026 0.41561,1.25298 -1.73491,1.94081 -6.73218,8.1837 -7.42377,9.27422 -0.65624,1.03479 -0.82936,1.59581 -0.82936,2.68766 0,1.21138 0.0979,1.46226 0.80154,2.05434 1.55056,1.30472 4.2275,1.18429 7.17011,-0.32257 l 1.48936,-0.76267 0.42887,0.89935 c 0.23588,0.49464 0.42887,1.00572 0.42887,1.13573 0,0.41654 -4.04586,1.80086 -5.68854,1.94637 -0.87313,0.0773 -2.11309,0.0334 -2.75548,-0.0976 z" id="path964"/>
    <path style="fill:#000000;stroke-width:0.264583" d="m 35.084339,65.087189 c -0.755195,-0.60421 -0.759095,-0.62131 -0.301064,-1.32035 0.331967,-0.50664 0.415091,-0.96912 0.292057,-1.62494 -0.144494,-0.77023 -0.694118,-1.35036 -3.439096,-3.62998 -1.796915,-1.49228 -3.21274,-2.85494 -3.14628,-3.02813 0.06646,-0.1732 0.797034,-0.76343 1.623494,-1.31164 4.499825,-2.9848 6.254203,-6.23041 3.998339,-7.39697 -1.052158,-0.54409 -2.266344,-0.48468 -2.892555,0.14153 -0.948444,0.94845 -0.584139,2.18719 0.866137,2.94511 l 0.733846,0.38351 -0.789474,0.75637 -0.789475,0.75636 -0.936836,-0.71456 c -1.740744,-1.32773 -2.203411,-3.21482 -1.194083,-4.87031 0.661278,-1.08463 1.93005,-1.63785 3.755032,-1.63732 2.638674,7.8e-4 4.44027,1.58817 4.44027,3.91234 0,2.12859 -1.253337,3.91373 -4.608283,6.56364 l -1.036404,0.81861 2.37209,1.89934 c 1.30465,1.04463 2.597602,2.28109 2.873224,2.74768 0.660556,1.11823 0.653619,3.02064 -0.01519,4.1658 -0.662633,1.13459 -0.8767,1.18721 -1.805747,0.44391 z" id="path962"/>
    <path style="fill:#000000;stroke-width:0.264583" d="m 76.168205,63.577173 -1.731804,-2.30909 -1.626256,-0.0112 c -1.697109,-0.0117 -2.528843,-0.43955 -2.85554,-1.46889 -0.15985,-0.50365 0.270357,-1.55224 0.775116,-1.88927 0.577561,-0.38565 1.831305,-0.18927 3.05957,0.47924 1.195229,0.65052 1.296654,0.6633 2.215925,0.2792 1.262462,-0.52749 1.954572,-1.88105 1.59784,-3.1249 -0.377285,-1.31552 -1.680948,-2.06937 -3.578633,-2.06937 -1.349978,0 -1.548373,-0.065 -1.548373,-0.50753 0,-0.27914 -0.07227,-0.69586 -0.160599,-0.92604 -0.126733,-0.33026 0.02669,-0.41882 0.727604,-0.41999 1.393531,-0.002 2.81936,-0.49455 3.261653,-1.12601 0.579263,-0.82702 0.519237,-2.39099 -0.113755,-2.96384 -0.975103,-0.88245 -3.583876,-0.76158 -5.983597,0.27724 -0.156374,0.0677 -0.416041,-0.30611 -0.577035,-0.83068 -0.289224,-0.94238 -0.281096,-0.95888 0.681194,-1.38282 0.557636,-0.24568 1.93517,-0.47098 3.222868,-0.52711 1.965328,-0.0857 2.395601,-0.0197 3.411712,0.52294 1.290032,0.68896 2.147883,1.99235 2.138728,3.2495 -0.0074,1.02033 -0.862888,2.91442 -1.469636,3.25397 -0.414893,0.23219 -0.373451,0.3101 0.369268,0.69417 1.524553,0.78838 2.347368,2.7287 1.885112,4.44539 -0.329938,1.2253 -1.54957,2.67203 -2.6298,3.11947 -0.437232,0.18111 -0.794967,0.41163 -0.794967,0.51227 0,0.10064 0.368239,0.53268 0.818309,0.96009 0.450069,0.42741 1.187577,1.24017 1.638906,1.80613 l 0.820597,1.02902 -0.77901,0.62331 c -0.428456,0.34282 -0.838542,0.62119 -0.911302,0.6186 -0.07276,-0.003 -0.911603,-1.04379 -1.864095,-2.31379 z" id="path952"/>
    <path style="fill:#000000;stroke-width:0.264583" d="m 56.588236,63.151372 c -0.59867,-0.85346 -1.706221,-2.28221 -2.461228,-3.175 -1.337024,-1.58102 -1.40652,-1.62325 -2.671405,-1.62325 -2.046142,0 -2.840318,-0.56934 -2.84733,-2.04121 -0.0069,-1.45293 1.903212,-1.898 3.612351,-0.84169 l 0.900737,0.55669 0.874144,-0.59898 c 1.340562,-0.91856 2.094235,-2.20525 2.209787,-3.7726 0.249655,-3.3863 -2.41867,-4.9637 -6.191261,-3.66 l -1.368319,0.47284 -0.285327,-0.62622 c -0.510209,-1.11979 -0.348369,-1.36197 1.213541,-1.81603 1.051817,-0.30577 2.120117,-0.39977 3.581757,-0.31516 1.763834,0.10211 2.250006,0.23864 3.173921,0.89136 1.568632,1.1082 2.196901,2.46497 2.194705,4.73954 -0.0016,1.55314 -0.127712,2.07993 -0.781947,3.26373 -0.452644,0.81903 -1.260131,1.75634 -1.923481,2.23272 l -1.143325,0.82108 1.156964,1.20686 c 1.371693,1.43085 3.619619,4.36726 3.619619,4.72821 0,0.27586 -1.156774,1.10886 -1.539856,1.10886 -0.129556,0 -0.725377,-0.69829 -1.324047,-1.55175 z" id="path950"/>
    <path style="fill:#000000;stroke-width:0.230142" d="m 183.9397,87.880446 c -0.54115,-0.35247 -0.4505,-1.07947 0.28118,-2.255 0.35695,-0.57348 0.62095,-1.268 0.58666,-1.54337 -0.15976,-1.28299 -2.41662,-1.40182 -5.25856,-0.27686 -2.09216,0.82815 -3.18598,0.97846 -4.61248,0.63381 -1.66743,-0.40287 -2.80687,-1.588 -3.00498,-3.1255 -0.20267,-1.57287 0.43411,-5.35625 1.28483,-7.63378 l 0.7112,-1.90399 h -0.92032 c -1.22871,0 -1.59519,-0.19433 -1.59519,-0.84588 0,-1.11898 0.13791,-1.14034 7.36179,-1.14034 7.38659,0 7.6845,0.0496 7.53827,1.2553 l -0.0736,0.60678 -5.16648,0.0664 -5.16649,0.0664 -0.56558,1.1232 c -1.11371,2.21173 -2.05895,6.79475 -1.72285,8.35326 0.16532,0.76659 1.36849,1.43899 2.57488,1.43899 0.50903,0 1.68176,-0.2957 2.60606,-0.65712 2.17542,-0.85061 5.22557,-1.08699 6.22953,-0.48277 0.37048,0.22296 0.83055,0.68419 1.0224,1.02495 0.96561,1.71514 -0.80099,6.14814 -2.11028,5.29539 z" id="path944"/>
    <path style="fill:#000000;stroke-width:0.231185" d="m 123.17014,88.271714 c -1.23947,-1.067974 -4.32493,-2.791314 -5.44891,-3.043424 -0.44181,-0.0991 -0.8116,0.04866 -1.44796,0.578594 -1.1022,0.917868 -3.06353,1.542848 -3.70784,1.181499 -0.60169,-0.337432 -0.59666,-1.283762 0.01,-1.91969 0.65436,-0.685695 2.20734,-1.387571 3.0839,-1.393796 0.58944,-0.0045 0.85751,-0.185921 1.37202,-0.930203 0.67403,-0.975059 2.20801,-4.455995 2.04085,-4.631165 -0.0538,-0.05644 -0.55131,0.06878 -1.1054,0.278327 -1.50941,0.570767 -3.42351,0.53989 -4.20842,-0.06789 -1.42279,-1.101705 -2.40892,-4.349037 -2.28497,-7.52442 0.0631,-1.61613 0.0884,-1.684234 0.62528,-1.684234 0.54832,0 0.5647,0.05483 0.81799,2.737289 0.28239,2.99042 0.8448,4.727185 1.68301,5.197272 0.72146,0.404606 2.3955,0.173452 3.87126,-0.534524 l 1.26463,-0.606697 0.34253,-1.621748 c 0.1884,-0.891955 0.4135,-2.313963 0.50022,-3.160007 0.0867,-0.846052 0.26043,-1.671389 0.38601,-1.83409 0.30827,-0.399364 0.99912,-0.374891 1.15135,0.04079 0.1929,0.526769 -0.47041,4.987013 -1.11115,7.471593 -0.44578,1.728626 -1.86857,5.299911 -2.73844,6.873653 -0.0387,0.07013 0.51522,0.334373 1.23104,0.587279 1.30856,0.462333 4.78478,2.728211 5.55661,3.621929 0.22781,0.263773 0.37884,0.673879 0.33564,0.911347 -0.13963,0.76726 -0.93643,0.577825 -2.21945,-0.527673 z" id="path938"/>
    <path id="path936" style="fill:#000000;stroke-width:0.24683" d="m 195.73828,68.134836 c -1.76591,0.02565 -3.65694,1.295071 -3.69568,3.193248 -0.0875,2.340803 1.49175,4.301902 3.05908,5.865822 -0.0155,0.294095 -0.83859,0.389223 -1.13684,0.638196 -1.52909,0.739226 -2.25806,2.612101 -1.73437,4.208984 0.67635,2.471648 2.70488,4.259447 4.86638,5.471777 1.92358,1.107799 4.0011,1.98929 6.16487,2.491113 1.05888,0.05042 1.35887,-1.70609 0.31931,-2.01705 -1.37381,-0.516768 -2.81998,-0.865024 -4.12476,-1.567188 -1.66436,-0.864981 -3.60163,-1.761609 -4.39126,-3.580978 -0.29411,-0.872913 -0.3458,-2.052949 0.54437,-2.602362 1.01769,-0.93487 2.68994,-1.191164 3.82226,-0.310546 0.6484,0.33809 1.64436,1.051027 2.23828,0.273437 0.42756,-0.652967 -0.26848,-1.141741 -0.75781,-1.457031 -2.13104,-1.464211 -4.6012,-2.724818 -5.94417,-5.033267 -0.58683,-1.082732 -0.34636,-2.714314 0.94087,-3.154586 1.94357,-0.743586 4.14729,-0.02859 5.67502,1.279808 0.39835,0.381348 1.23447,0.646917 1.46695,-0.03531 -0.0489,-0.991114 -1.08967,-1.547486 -1.82617,-2.044922 -1.67124,-0.888342 -3.56122,-1.673559 -5.48633,-1.61914 z"/>
    <path id="path819" style="fill:#000000;stroke-width:0.191267" d="m 197.63766,94.591055 c -0.75399,0.372499 -1.03148,1.337215 -1.42936,2.060513 -1.1259,2.640085 -1.80164,5.471192 -2.42064,8.286252 -0.38752,1.79377 -0.52656,3.97464 0.7301,5.42935 0.76203,0.93237 2.0002,1.01099 3.0656,0.80826 1.74466,-0.27437 3.57816,-0.82037 5.30887,-0.10695 0.57984,0.15268 0.80052,0.81046 1.2933,1.07701 0.74604,0.15245 0.95179,-0.858 1.15297,-1.42464 0.30268,-0.67563 0.2557,-1.57311 -0.37719,-2.01351 -1.04244,-0.92014 -2.3654,-1.68104 -3.76226,-1.41586 -1.28952,0.22356 -2.54947,0.65495 -3.86813,0.6818 -0.56886,0.0274 -1.28638,0.18432 -1.63557,-0.4414 -0.80872,-1.2027 -0.7274,-2.78689 -0.34072,-4.1402 0.56502,-2.1992 1.2669,-4.423652 2.51604,-6.295949 0.23458,-0.538607 0.64709,-0.07968 0.95083,0.116883 1.24682,0.993675 2.59679,2.244514 4.25057,2.159031 1.02547,-0.255751 1.25473,-1.555021 1.47315,-2.487977 0.20725,-0.714621 0.20231,-1.589991 -0.41601,-2.077699 -0.45794,-0.52175 -1.24077,-0.109694 -1.3227,0.543727 -0.15342,0.702617 -0.22562,1.576542 -0.84947,1.996501 -1.53469,-0.210801 -2.58352,-1.599065 -3.75593,-2.540946 -0.16777,-0.108854 -0.35667,-0.345114 -0.56345,-0.214196 z"/>
    <path d="m 27.541714,32.473219 h 4.26838 V 12.887692 l -4.64349,1.238067 v -3.163948 l 4.617618,-1.2380658 h 2.612774 V 32.473219 h 4.268378 v 2.92321 h -11.12366 z" id="path2420" style="font-size:30.5429px;line-height:1.25;stroke-width:2.86338"/>
    <path d="m 50.554491,32.937494 h 9.118815 v 2.92321 H 47.411411 v -2.92321 q 1.487466,-2.04625 4.048495,-5.48533 2.573963,-3.45627 3.233622,-4.4536 1.254646,-1.87429 1.746156,-3.16394 0.504445,-1.30685 0.504445,-2.56211 0,-2.046252 -1.086497,-3.335904 -1.073563,-1.289653 -2.806784,-1.289653 -1.228776,0 -2.599832,0.567448 -1.358122,0.567446 -2.91026,1.719535 v -3.507854 q 1.578007,-0.842573 2.949063,-1.272457 1.371056,-0.4298838 2.509291,-0.4298838 3.000801,0 4.78576,1.9946618 1.78496,1.994663 1.78496,5.330567 0,1.58197 -0.452707,3.00919 -0.439773,1.41002 -1.616811,3.3359 -0.323363,0.49866 -2.056584,2.88882 -1.733221,2.37296 -4.889237,6.65461 z" id="path2422" style="font-size:30.5429px;line-height:1.25;stroke-width:2.86338"/>
    <path d="m 76.542201,22.018434 q 1.875501,0.53305 2.923195,2.2182 1.060628,1.68515 1.060628,4.16128 0,3.80018 -1.966043,5.88081 -1.966042,2.08064 -5.587698,2.08064 -1.215842,0 -2.509291,-0.32671 -1.280514,-0.30951 -2.65157,-0.94574 v -3.3531 q 1.086497,0.84257 2.379946,1.27245 1.293449,0.42989 2.703308,0.42989 2.457553,0 3.738067,-1.28965 1.293448,-1.28965 1.293448,-3.74859 0,-2.26979 -1.202907,-3.54225 -1.189973,-1.28965 -3.324164,-1.28965 h -2.2506 v -2.85443 h 2.354077 q 1.927238,0 2.949063,-1.01453 1.021825,-1.03172 1.021825,-2.957598 0,-1.977469 -1.060628,-3.026386 -1.047694,-1.066113 -3.013737,-1.066113 -1.073562,0 -2.302338,0.309517 -1.228776,0.309516 -2.703308,0.96294 v -3.095165 q 1.487466,-0.550252 2.780915,-0.8253768 1.306383,-0.275127 2.457553,-0.275127 2.974932,0 4.708153,1.8055128 1.733222,1.788319 1.733222,4.849095 0,2.132221 -0.918349,3.611031 -0.918349,1.4616 -2.612767,2.02905 z" id="path2424" style="font-size:30.5429px;line-height:1.25;stroke-width:2.86338"/>
    <path d="m 96.476572,12.75013 -6.596589,13.704709 h 6.596589 z M 95.791044,9.7237452 h 3.285359 V 26.454839 h 2.755047 v 2.88882 h -2.755047 v 6.05277 h -2.599831 v -6.05277 h -8.717846 v -3.3531 z" id="path2426" style="font-size:30.5429px;line-height:1.25;stroke-width:2.86338"/>
    <path d="m 109.98897,9.7237452 h 10.25705 v 2.9232118 h -7.86417 v 6.293502 q 0.56912,-0.25793 1.13824,-0.3783 0.56912,-0.13756 1.13823,-0.13756 3.23363,0 5.12206,2.35577 1.88844,2.35576 1.88844,6.37948 0,4.14408 -1.94017,6.44826 -1.94018,2.28698 -5.4713,2.28698 -1.21584,0 -2.48342,-0.27513 -1.25464,-0.27511 -2.59983,-0.82537 v -3.49066 q 1.1641,0.84257 2.40581,1.25527 1.24172,0.41268 2.62571,0.41268 2.23766,0 3.54405,-1.56478 1.30638,-1.56478 1.30638,-4.24725 0,-2.68248 -1.30638,-4.24726 -1.30639,-1.56478 -3.54405,-1.56478 -1.0477,0 -2.09539,0.30952 -1.03476,0.30952 -2.12126,0.96294 z" id="path2428" style="font-size:30.5429px;line-height:1.25;stroke-width:2.86338"/>
    <path d="m 136.27419,21.640135 q -1.75909,0 -2.79385,1.59917 -1.02182,1.59917 -1.02182,4.38482 0,2.76845 1.02182,4.38482 1.03476,1.59916 2.79385,1.59916 1.75909,0 2.78091,-1.59916 1.03476,-1.61637 1.03476,-4.38482 0,-2.78565 -1.03476,-4.38482 -1.02182,-1.59917 -2.78091,-1.59917 z m 5.18673,-10.884668 v 3.163947 q -0.98302,-0.619033 -1.99191,-0.945745 -0.99596,-0.326712 -1.97898,-0.326712 -2.5869,0 -3.95795,2.321374 -1.35812,2.321374 -1.55214,7.015714 0.76313,-1.496 1.9143,-2.28699 1.15117,-0.80818 2.53516,-0.80818 2.91026,0 4.59175,2.35577 1.69441,2.33857 1.69441,6.37948 0,3.95493 -1.75909,6.34509 -1.75909,2.39015 -4.68228,2.39015 -3.35003,0 -5.12206,-3.40468 -1.77202,-3.42188 -1.77202,-9.90453 0,-6.08716 2.17299,-9.698188 2.17299,-3.6282218 5.83345,-3.6282218 0.98303,0 1.97898,0.257931 1.00889,0.2579298 2.09539,0.7737908 z" id="path2430" style="font-size:30.5429px;line-height:1.25;stroke-width:2.86338"/>
    <path d="m 150.46563,9.7237452 h 12.41711 v 1.4788018 l -7.01049,24.193882 h -2.72918 l 6.59659,-22.749472 h -9.27403 z" id="path2432" style="font-size:30.5429px;line-height:1.25;stroke-width:2.86338"/>
    <path d="m 177.30057,23.669184 q -1.86257,0 -2.93613,1.32405 -1.06063,1.32404 -1.06063,3.64541 0,2.32138 1.06063,3.64542 1.07356,1.32404 2.93613,1.32404 1.86256,0 2.93612,-1.32404 1.07357,-1.34124 1.07357,-3.64542 0,-2.32137 -1.07357,-3.64541 -1.06062,-1.32405 -2.93612,-1.32405 z m -2.61277,-1.4788 q -1.68148,-0.550249 -2.6257,-2.080639 -0.93129,-1.530381 -0.93129,-3.731391 0,-3.077973 1.64268,-4.866291 1.65562,-1.7883178 4.52708,-1.7883178 2.88439,0 4.52707,1.7883178 1.64268,1.788318 1.64268,4.866291 0,2.20101 -0.94422,3.731391 -0.93128,1.53039 -2.59983,2.080639 1.88843,0.584641 2.93613,2.28699 1.06062,1.70234 1.06062,4.16127 0,3.7314 -1.72028,5.72606 -1.70736,1.99466 -4.90217,1.99466 -3.19482,0 -4.91511,-1.99466 -1.70735,-1.99466 -1.70735,-5.72606 0,-2.45893 1.06063,-4.16127 1.06062,-1.70235 2.94906,-2.28699 z m -0.95715,-5.485319 q 0,1.994659 0.93128,3.11236 0.94422,1.1177 2.63864,1.1177 1.68148,0 2.6257,-1.1177 0.95715,-1.1177 0.95715,-3.11236 0,-1.994663 -0.95715,-3.112363 -0.94422,-1.117699 -2.6257,-1.117699 -1.69442,0 -2.63864,1.117699 -0.93128,1.1177 -0.93128,3.112363 z" id="path2434" style="font-size:30.5429px;line-height:1.25;stroke-width:2.86338"/>
    <path d="m 192.50738,35.327644 v -3.16395 q 0.98303,0.61904 1.99192,0.94575 1.00889,0.32671 1.97897,0.32671 2.5869,0 3.94502,-2.30418 1.37106,-2.32137 1.56508,-7.0329 -0.75021,1.4788 -1.90138,2.26979 -1.15116,0.79098 -2.54809,0.79098 -2.89732,0 -4.59174,-2.32137 -1.68149,-2.33857 -1.68149,-6.37948 0,-3.954938 1.75909,-6.345093 1.75909,-2.3901558 4.68229,-2.3901558 3.35003,0 5.10912,3.4218778 1.77203,3.404683 1.77203,9.904531 0,6.06996 -2.173,9.69819 -2.16006,3.61102 -5.82052,3.61102 -0.98302,0 -1.99191,-0.25792 -1.00889,-0.25794 -2.09539,-0.7738 z m 5.19967,-10.88467 q 1.75909,0 2.78091,-1.59916 1.03476,-1.59917 1.03476,-4.38482 0,-2.768457 -1.03476,-4.367626 -1.02182,-1.616365 -2.78091,-1.616365 -1.75909,0 -2.79385,1.616365 -1.02182,1.599169 -1.02182,4.367626 0,2.78565 1.02182,4.38482 1.03476,1.59916 2.79385,1.59916 z" id="path2436" style="font-size:30.5429px;line-height:1.25;stroke-width:2.86338"/>
    <path d="m 12.289622,12.475003 q -2.017779,0 -3.0396045,2.648087 -1.00889,2.630894 -1.00889,7.927063 0,5.278981 1.00889,7.927061 1.0218255,2.63089 3.0396045,2.63089 2.030715,0 3.039605,-2.63089 1.021824,-2.64808 1.021824,-7.927061 0,-5.296169 -1.021824,-7.927063 -1.00889,-2.648087 -3.039605,-2.648087 z m 0,-2.7512578 q 3.246557,0 4.95391,3.4218778 1.720287,3.404683 1.720287,9.90453 0,6.48265 -1.720287,9.904531 -1.707353,3.40468 -4.95391,3.40468 -3.2465565,0 -4.9668435,-3.40468 -1.707353,-3.421881 -1.707353,-9.904531 0,-6.499847 1.707353,-9.90453 1.720287,-3.4218778 4.9668435,-3.4218778 z" id="path2438" style="font-size:30.5429px;line-height:1.25;stroke-width:2.86338"/>
  </g>
</svg>