<?xml version="1.0" encoding="UTF-8" standalone="no"?>
<!-- Created with Inkscape (http://www.inkscape.org/) -->

<svg
   xmlns:dc="http://purl.org/dc/elements/1.1/"
   xmlns:cc="http://creativecommons.org/ns#"
   xmlns:rdf="http://www.w3.org/1999/02/22-rdf-syntax-ns#"
   xmlns:svg="http://www.w3.org/2000/svg"
   xmlns="http://www.w3.org/2000/svg"
   xmlns:sodipodi="http://sodipodi.sourceforge.net/DTD/sodipodi-0.dtd"
   xmlns:inkscape="http://www.inkscape.org/namespaces/inkscape"
   width="210.78636mm"
   height="180.29311mm"
   viewBox="0 0 746.88081 638.83384"
   id="svg6502"
   version="1.1"
   inkscape:version="0.91 r13725"
   sodipodi:docname="pirate_ship3.svg">
  <defs
     id="defs6504" />
  <sodipodi:namedview
     id="base"
     pagecolor="#ffffff"
     bordercolor="#666666"
     borderopacity="1.0"
     inkscape:pageopacity="0.0"
     inkscape:pageshadow="2"
     inkscape:zoom="0.35"
     inkscape:cx="631.29757"
     inkscape:cy="-6.2973647"
     inkscape:document-units="px"
     inkscape:current-layer="layer1"
     showgrid="false"
     fit-margin-top="0"
     fit-margin-left="0"
     fit-margin-right="0"
     fit-margin-bottom="0"
     inkscape:window-width="1855"
     inkscape:window-height="1056"
     inkscape:window-x="65"
     inkscape:window-y="24"
     inkscape:window-maximized="1" />
  <metadata
     id="metadata6507">
    <rdf:RDF>
      <cc:Work
         rdf:about="">
        <dc:format>image/svg+xml</dc:format>
        <dc:type
           rdf:resource="http://purl.org/dc/dcmitype/StillImage" />
        <dc:title></dc:title>
      </cc:Work>
    </rdf:RDF>
  </metadata>
  <g
     inkscape:label="Layer 1"
     inkscape:groupmode="layer"
     id="layer1"
     transform="translate(750.58329,112.76901)">
    <g
       transform="translate(-1709.5226,-593.65496)"
       id="g295">
      <path
         style="fill:#5f4426;stroke:#5f4426;stroke-width:0.30000001"
         inkscape:connector-curvature="0"
         d="m 1378.2,481.04 c 2.4301,0.07 4.8601,0.22 7.3,0.41 -0.16,2.98 -0.3101,5.96 -0.74,8.92 -0.87,8.52 -1.5701,17.07 -2.09,25.61 0,8.95 -1.3301,17.85 -1.6801,26.8 -2.61,-0.05 -5.2,-0.0601 -7.79,-0.1 1.6102,-20.55 3.3801,-41.09 5.0001,-61.64 z"
         id="path297" />
      <path
         style="fill:#3e3b36;stroke:#3e3b36;stroke-width:0.30000001"
         inkscape:connector-curvature="0"
         d="m 1382.67,515.98 c 0.5199,-8.54 1.22,-17.09 2.09,-25.61 7.17,4.08 13.46,9.75 21.3099,12.62 4.6901,2.03 9.8401,2.23 14.87,2.66 9.3701,1.34 18.6101,4.56 26.3701,10.06 5.0299,3.58 9.3999,8.94 9.4399,15.41 -3.75,-3.1 -7.59,-6.87 -12.84,-6.71 -8.7101,0.04 -17.0901,3.2 -25.8201,3.21 -12.7998,0.7 -25.0898,-4.45 -35.4198,-11.64 z"
         id="path299" />
      <path
         style="fill:#b8b1a1;stroke:#b8b1a1;stroke-width:0.30000001"
         inkscape:connector-curvature="0"
         d="m 1324.92,544.1 c 16.01,-1.92 32.1799,-1.62 48.2799,-1.42 2.5901,0.04 5.1801,0.05 7.79,0.1 7.6801,0.55 15.41,0.3 23.08,1.12 -5.58,7.43 -11.11,15.05 -14.5299,23.7599 -4.36,10.36 -5.9601,22.61 -1.24,33.13 1.83,4.55 5.1,8.2401 7.9399,12.17 -3.65,0.27 -7.29,0.29 -10.92,0.47 -0.9099,0.03 -1.7799,0.09 -2.6399,0.15 -2.28,-0.15 -4.54,-0.37 -6.79,-0.54 -0.11,1.83 -0.36,3.75 0.52,5.46 -0.3401,0.24 -1.02,0.74 -1.35,0.99 0.05,-2.13 0.1499,-4.25 0.2599,-6.37 -2.63,-0.14 -5.25,-0.26 -7.86,-0.38 -16.87,-0.86 -33.6599,-3.25 -50.08,-7.23 -0.55,-0.99 -1.0699,-1.97 -1.59,-2.94 4.84,-3.21 9.71,-6.35 14.5299,-9.58 1.9901,1.23 3.9301,2.57 5.8201,3.97 -0.3,-2.36 -0.62,-4.7 -1.03,-7.03 17.99,-11.98 36.09,-23.8 54.15,-35.67 4.02,-2.96 8.79,-5 12.1799,-8.76 -4.2699,1.28 -7.62,4.33 -11.34,6.63 -18.6,12.13 -37.0499,24.52 -55.75,36.51 -4.23,-8.55 -11.98,-15.22 -21.0499,-18.17 0.9199,-3.84 1.6599,-7.74 2.9299,-11.49 0.6801,-2.18 1.64,-4.37 1.34,-6.71 0.5601,-0.59 1.13,-1.19 1.6901,-1.8 0.22,-0.45 0.66,-1.36 0.88,-1.81 1.1401,-1.8299 2.2902,-4.4699 4.7801,-4.5599 z"
         id="path301" />
      <path
         style="fill:#473b2e;stroke:#473b2e;stroke-width:0.30000001"
         inkscape:connector-curvature="0"
         d="m 1390.1,552.13 c 3.72,-2.3 7.0701,-5.35 11.34,-6.63 -3.3899,3.76 -8.1599,5.8 -12.1799,8.76 -18.0601,11.87 -36.16,23.69 -54.15,35.67 0.41,2.33 0.73,4.67 1.03,7.03 -1.89,-1.4 -3.83,-2.7401 -5.8201,-3.97 -4.8199,3.23 -9.6899,6.37 -14.5299,9.58 -14.64,9.7 -29.4,19.24 -44,29.02 -10.13,6.55 -20.24,13.1299 -30.23,19.89 -10.77,6.88 -21.3501,14.03 -32.0701,20.96 -18.78,12.42 -37.5699,24.82 -56.4399,37.08 -27.9801,18.61 -56.16,36.91 -84.16,55.47 l -0.28,-0.54 c 0.04,-0.3 0.12,-0.91 0.15,-1.21 28.99,-18.68 57.6799,-37.82 86.51,-56.75 16.78,-11.02 33.63,-21.94 50.2999,-33.14 11.12,-7.05 21.9901,-14.47 33.05,-21.61 11.63,-7.65 23.23,-15.35 34.89,-22.96 14.04,-9.25 28.0699,-18.48 42.13,-27.7 4.3099,-2.87 8.7,-5.63 12.86,-8.73 1.95,-1.23 3.89,-2.48 5.85,-3.71 18.7,-11.99 37.15,-24.38 55.75,-36.51 z"
         id="path303" />
      <path
         style="fill:#3e3b36;stroke:#3e3b36;stroke-width:0.30000001"
         inkscape:connector-curvature="0"
         d="m 1291.65,571.78 c 9.51,-7.6801 18.8199,-15.63 28.49,-23.1201 -0.22,0.45 -0.66,1.36 -0.88,1.81 -0.5601,0.61 -1.13,1.21 -1.6901,1.8 -7.5599,6.34 -15.3199,12.45 -22.87,18.8 5.99,-1.9 12.53,-2.73 18.6001,-0.6 9.0699,2.95 16.8199,9.6201 21.0499,18.17 -1.96,1.23 -3.9,2.48 -5.85,3.71 -4.95,-0.28 -9.8,0.7401 -14.39,2.48 -7.85,2.85 -15.78,5.88 -24.21,6.31 -4.65,0.22 -9.17,-0.98 -13.41,-2.74 -2.86,-1.6801 -5.59,-3.57 -7.91,-5.94 -0.36,-0.36 -0.6899,-0.72 -1,-1.07 -1.5499,-1.78 -3.0599,-3.58 -4.5199,-5.41 -3.0701,-3.51 -3,-8.45 -2.53,-12.8 0.59,-4.61 0.61,-9.29 1.6799,-13.83 0.8,-0.11 2.39,-0.33 3.1901,-0.44 -0.04,0.6801 -0.11,2.05 -0.14,2.73 5.23,5.56 11.85,10.7 19.75,11.24 2.2,-0.0599 4.84,0.5501 6.64,-1.0999 z"
         id="path305" />
      <path
         style="fill:#5e4426;stroke:#5e4426;stroke-width:0.30000001"
         inkscape:connector-curvature="0"
         d="m 1255.36,554.09 c 3.36,0.59 6.7001,1.33 10.08,1.8799 -0.01,0.7401 -0.03,2.2 -0.04,2.94 -0.8,0.11 -2.39,0.33 -3.1901,0.44 -1.0699,4.54 -1.09,9.22 -1.6799,13.83 -0.47,4.35 -0.54,9.29 2.53,12.8 -0.2201,3.05 -0.4501,6.1 -0.63,9.17 1.87,-1.03 3.5599,-2.34 5.1499,-3.76 0.3101,0.35 0.64,0.71 1,1.07 -1.7999,1.4 -3.5699,2.82 -5.2899,4.3 -3.8501,-0.25 -7.6901,-0.6 -11.51,-1.03 1.24,-13.8799 2.35,-27.7599 3.58,-41.6399 z"
         id="path307" />
      <path
         style="fill:#b7b1a0;stroke:#b7b1a0;stroke-width:0.30000001"
         inkscape:connector-curvature="0"
         d="m 1314.11,594.83 c 4.59,-1.74 9.4401,-2.76 14.39,-2.48 -4.16,3.1 -8.55,5.86 -12.86,8.73 -0.52,-2.09 -1.02,-4.17 -1.53,-6.25 z"
         id="path309" />
      <path
         style="fill:#b8b1a1;stroke:#b8b1a1;stroke-width:0.30000001"
         inkscape:connector-curvature="0"
         d="m 1226.02,596.98 c 8.47,-1.69 17.1699,-1.38 25.76,-1.25 3.8199,0.43 7.6599,0.78 11.51,1.03 4.39,0.53 8.76,1.34 13.2,1.64 4.24,1.7599 8.76,2.96 13.41,2.74 -5.0601,4.33 -8.73,10.04 -12.0701,15.73 -1.8999,3.76 -4.2899,7.57 -4.3199,11.91 -11.66,7.61 -23.26,15.31 -34.89,22.96 -5.9399,-1.93 -12.48,-2.64 -18.55,-0.92 -1.8099,0.38 -4.0299,1.18 -5.5099,-0.37 -3.05,-2.66 -3.2301,-6.96 -4.1801,-10.59 -0.1,-0.26 -0.3101,-0.79 -0.41,-1.06 l -0.14,-0.33 c 0.99,-3.74 0.5,-7.66 1.1001,-11.45 1.23,-8.87 3.5299,-17.94 8.9299,-25.25 1.63,-2 3.41,-4.38 6.16,-4.79 z"
         id="path311" />
      <path
         style="fill:#5f4428;stroke:#5f4428;stroke-width:0.30000001"
         inkscape:connector-curvature="0"
         d="m 1367.46,612.74 c 2.61,0.12 5.23,0.24 7.86,0.38 -0.11,2.12 -0.21,4.24 -0.2599,6.37 0.33,-0.25 1.0099,-0.75 1.35,-0.99 2.12,-1.6 4.1599,-3.3 6.27,-4.92 0.86,-0.06 1.73,-0.12 2.6399,-0.15 -3.37,2.65 -6.99,4.99 -10.1,7.94 -0.51,1.67 -0.5499,3.41 -0.75,5.14 -2.71,0.22 -5.4299,0.22 -8.11,-0.15 0.3,-4.55 0.75,-9.08 1.1,-13.62 z"
         id="path313" />
      <path
         style="fill:#3e3b36;stroke:#3e3b36;stroke-width:0.30000001"
         inkscape:connector-curvature="0"
         d="m 1332.9301,627.02 c 11.09,-1.19 22.2899,-0.91 33.4299,-0.66 2.6801,0.37 5.4,0.37 8.11,0.15 24.5801,1.29 49.27,2.64 73.55,7 4.61,1.2 10.16,1.42 13.58,5.17 -8.45,3.91 -14.88,11.98 -16.35,21.23 -0.89,5.57 -0.95,11.63 1.01,16.96 24.13,10.36 48.39,20.45 72.5599,30.76 -0.03,0.34 -0.09,1.02 -0.11,1.35 -24.1499,-10.06 -48.1599,-20.42 -72.3099,-30.47 2.34,9.35 6.89,17.94 11.7999,26.17 1.2101,1.89 2.16,4.37 4.67,4.79 17.86,5.34 35.77,10.55 53.59,16.02 -0.6599,0.13 -2,0.37 -2.6599,0.49 -17.28,-4.96 -34.42,-10.37 -51.7101,-15.27 1.55,2.71 3.0901,5.53 5.38,7.73 0.26,0.89 0.6,1.8 1.17,2.58 4,5.69 8.0499,11.36 12.46,16.76 6.3101,7.66 13.09,15.18 21.61,20.45 58.8301,38.56 117.7101,77.06 176.5601,115.59 2.66,1.89 5.9399,3.2 7.79,6.05 -7.4801,-3.55 -14.01,-8.8 -21.04,-13.14 -50.3301,-32.95 -100.67,-65.9 -151.01,-98.84 -6.12,-3.87 -11.96,-8.2 -18.29,-11.7 -7.01,-2.58 -14.22,-4.63 -21.36,-6.8 -0.27,0.14 -0.8199,0.43 -1.09,0.58 -15.8201,8.8 -31.8301,17.29 -47.75,25.91 -0.4501,-0.12 -1.36,-0.38 -1.8201,-0.51 16.12,-8.84 32.4301,-17.34 48.4401,-26.38 -26.53,-7.4 -53.9401,-12.19 -81.52,-12.67 0.9301,12.27 2.61,24.49 3.33,36.76 -0.2899,2.39 -0.6399,4.79 -0.63,7.21 -0.58,-2.59 0.3,-6.49 -3.0499,-7.49 0.03,2.29 0.1699,4.6 0.3099,6.9 -0.34,0.4 -1.0199,1.19 -1.36,1.59 -0.23,-2.84 -0.46,-5.66 -0.76,-8.48 -0.5699,-0.32 -1.72,-0.98 -2.2899,-1.3 l -0.04,-0.68 c 0.54,-0.07 1.63,-0.2 2.17,-0.27 -1.03,-11.64 -1.6001,-23.32 -2.9701,-34.91 -2,1.16 -1.0199,3.58 -1.13,5.4 0.88,9.65 0.91,19.35 1.88,29 -0.48,-0.08 -1.4399,-0.24 -1.9099,-0.32 -0.3501,-11.05 -1.3201,-22.06 -1.74,-33.1 -1.12,-0.12 -2.2201,-0.23 -3.3,-0.33 -0.39,10.62 0.6,21.23 0.63,31.86 -0.77,-1.77 -1.35,-3.6 -1.72,-5.47 -0.26,-6.21 -0.3501,-12.42 -0.6001,-18.62 -0.1599,-2.76 0.1201,-5.67 -1.2,-8.18 l -1.52,0.64 c -1.4099,1.3799 -0.83,3.54 -1.11,5.3 l -1.59,0.03 c -0.03,-1.7 -0.05,-3.39 -0.05,-5.07 -2.25,0.22 -4.48,0.46 -6.71,0.63 -2.97,0.03 -5.96,0.44 -8.6,1.85 -0.01,-0.14 -0.03,-0.41 -0.04,-0.54 -0.25,0.46 -0.74,1.39 -0.98,1.86 -1.3201,0.41 -2.03,-2.03 -2.9401,-2.35 -0.23,1.61 -0.37,3.23 -0.4099,4.87 -0.51,0.11 -1.52,0.33 -2.02,0.44 0.1799,-1.22 0.53,-3.65 0.71,-4.87 -0.4,0.18 -1.2,0.53 -1.6,0.71 -0.76,3.03 -1.97,6.38 -1.28,9.48 l 1.26,0.95 c 0.16,-1.69 0.28,-3.38 0.36,-5.06 0.86,-0.03 1.73,-0.05 2.62,-0.06 -1.24,2.36 -2.2899,5.71 -0.14,7.95 0.9301,-3.83 1.38,-7.76 1.9601,-11.64 2.5,4.29 -0.38,9.26 -0.01,13.87 l -0.1901,0.62 c -0.5,-0.37 -1.49,-1.12 -1.99,-1.5 -0.45,-0.24 -1.36,-0.72 -1.8199,-0.96 0.2899,2.05 -1.89,6.23 1.65,6.14 0.05,-0.87 0.1499,-2.59 0.2,-3.45 l 1.09,0.07 c 0.03,1.59 0.11,3.19 0.24,4.8 l 0.01,0.11 c -0.1699,0.55 -0.49,1.65 -0.6599,2.2 -0.41,0.1 -1.2401,0.29 -1.65,0.38 0.01,-0.67 0.03,-2.02 0.04,-2.69 l -1.0599,-0.63 -0.71,0.47 c -1.05,5.07 -1.5701,10.22 -2.6101,15.29 -0.4099,0.21 -1.24,0.61 -1.6499,0.82 0.59,-5.95 2.3199,-11.78 2.35,-17.76 l -1.65,0.14 c -1.6799,6.69 -2.39,13.59 -3.99,20.31 -0.29,-1.15 -0.5699,-2.3 -0.84,-3.43 0.83,-5.97 2.15,-11.85 3.13,-17.79 -1.3401,-0.36 -2.66,-0.71 -3.9701,-1.05 -1.5299,6.36 -2.6399,12.82 -4.1699,19.19 -0.28,-0.56 -0.8201,-1.69 -1.09,-2.2599 1.0499,-6.1 2.7999,-12.08 3.5,-18.2401 -0.4801,0.19 -1.42,0.55 -1.89,0.73 -2.41,7.85 -4.01,15.93 -6.37,23.79 -0.07,0.08 -0.2101,0.24 -0.29,0.32 -0.33,-0.18 -1.01,-0.56 -1.34,-0.75 3.24,-10.82 5.48,-21.92 8.63,-32.76 0.46,-1.78 0.7799,-3.6 0.98,-5.41 -2.3101,3.83 -2.9,8.39 -3.75,12.71 -2.02,4.77 -2.9,9.9 -4.48,14.81 -0.24,-0.5699 -0.7301,-1.72 -0.9701,-2.3 1.01,-4.23 2.3301,-8.38 3.26,-12.62 -4.1599,-1.12 -8.13,-2.82 -12.2999,-3.82 -0.6801,0.17 -2.05,0.52 -2.73,0.69 -11.9401,-7.42 -22.6001,-18 -27.38,-31.47 -2.29,-6.36 -2.8,-13.24 -2.02,-19.92 -2.49,-2.22 -5.0601,-4.33 -7.6,-6.47 -6.6801,5.03 -13.3,10.15 -19.9401,15.24 0.05,-0.49 0.13,-1.48 0.1801,-1.97 6.34,-4.63 12.5399,-9.45 18.73,-14.3 -1.48,-1.16 -2.9401,-2.3199 -4.47,-3.37 0.34,-0.31 1.0199,-0.92 1.36,-1.23 1.24,1.26 2.4299,2.65 4.0199,3.53 3.04,-1.38 5.39,-3.85 8.1101,-5.75 2.2799,-1.88 5.23,-3.31 6.38,-6.22 2.35,-5.39 5.0099,-10.64 7.61,-15.91 -6.3101,-1.81 -12.5901,-3.76 -18.88,-5.6 -1.5,-0.94 -6.66,-0.57 -4.3101,-3.11 7.76,3.19 16.01,5.09 24.0701,7.44 5.4299,-9.93 11.83,-19.36 19.22,-27.94 2.7899,-2.88 5.2298,-7.08 9.7899,-6.98 m 40.5999,16.6 c -4.42,3.44 -9.0601,7.57 -10.05,13.38 -1.4399,8.52 2.7001,16.49 5.4301,24.31 2.09,0.73 4.2,1.44 6.3199,2.16 1.64,-1.6299 3.54,-3.14 6.02,-2.99 -0.01,1.58 0.05,3.19 0.1,4.78 4.34,0.86 8.76,3.47 13.1801,1.48 -0.09,0.57 -0.28,1.72 -0.37,2.3 1.65,0.45 3.2899,0.89 4.97,1.34 5.71,-10.72 9.5599,-23.25 6.84,-35.41 -1.59,-7.4399 -7.09,-14.49 -14.87,-15.86 -6.2201,-1.86 -12.6801,0.69 -17.5701,4.51 m -49.66,28.42 c 1.5,3.02 4.05,5.32 6.7,7.35 13.26,9.87 28.8601,15.78 43.55,23.01 -5.55,2.09 -11.1,4.16 -16.7,6.09 -6.5601,2.09 -13.04,4.91 -19.99,5.3 -2.16,-3.16 -4.8601,-5.95 -8.05,-8.07 -1.73,-1.18 -3.9301,-2.28 -6.01,-1.34 -1.66,3.6 -0.95,8.05 0.7,11.59 0.4901,1.21 1.4401,3.14 -0.36,3.72 -6.7899,2.61 -14.49,1.29 -21.27,3.85 -1.4199,1.1 0.75,2.15 1.65,2.51 3.8101,1.67 7.9,2.71 12,3.39 4.76,0.66 8.5901,-2.71 12.87,-4.07 3.3201,-1.1 5.79,1.75 8.29,3.39 2.05,1.46 5.26,1.47 6.9301,-0.62 1.7999,-1.96 1.5199,-4.75 1.5499,-7.2 13.46,-5.24 27.3301,-9.45 41.12,-13.64 14.28,5.19 28.5,10.76 43.3101,14.32 -3.2201,3.62 -8.7001,3.86 -11.9501,7.46 3.05,2.14 6.99,2.99 10.67,2.35 3.61,-0.66 6.29,-3.34 9.28,-5.24 1.4399,1.74 2.5499,4.05 4.87,4.81 4.76,1.79 10.25,2.04 15,0.02 -0.1801,-1.32 -0.75,-2.48 -1.8201,-3.25 -3.5,-3.05 -7.37,-5.62 -11.09,-8.36 2.39,-1.12 5.39,-2.05 6.46,-4.75 1.0601,-2.83 -0.5199,-5.64 -2.2699,-7.77 -2.51,1.99 -3.66,5.85 -7.26,6.12 -3.3,0.55 -6.77,2.22 -10.0801,0.92 -11.02,-3.42 -22.01,-6.94 -32.84,-10.88 4.64,-2.39 9.9301,-3.69 14.0699,-6.97 -4.9199,-1.15 -9.6799,-3.85 -14.7899,-3.5 -1.02,-1.94 -3.35,-1.93 -5.2201,-2.16 -0.59,1.45 -0.4199,3.7 -2.59,3.79 0.67,-2.06 1.37,-4.21 -0.89,-5.63 -0.21,1.42 -0.39,2.85 -0.52,4.29 -0.59,-0.12 -1.7799,-0.35 -2.3799,-0.47 0.09,-1.7401 1.1899,-4.04 -1.03,-4.9 -1.76,0.73 -1.1,2.83 -1.51,4.26 -3.13,0.3 -1.11,-3.29 -1.46,-4.91 -0.9301,-0.27 -1.8501,-0.52 -2.7401,-0.7599 -3.4299,-0.92 -6.8099,-1.9901 -10.25,-2.81 0.4701,2.46 1.3101,5.9 -0.8099,7.79 C 1353.77,685.24 1339.03,678.1 1323.87,672.04 m 78.99,19.1 c 3.79,2.12 8.3201,2.52 12.33,4.22 7.39,-4.27 14.15,-9.88 18.8701,-17.06 -10.3901,4.31 -20.7901,8.58 -31.2001,12.84 m -120.6701,1.08 c 2.1101,2.03 4.3601,3.92 6.6801,5.73 0.89,-4.81 2.89,-9.29 4.1801,-13.98 -3.6601,2.7 -7.1801,5.58 -10.8602,8.25 m 105.9902,44.07 c 1.2699,11.78 1.5499,23.66 3.12,35.41 0.48,0.21 1.4199,0.64 1.8899,0.85 -0.6499,-12.11 -2.22,-24.16 -3.33,-36.24 l -1.6799,-0.02 m -48.8401,12.23 c -0.23,2.25 -2.2999,4.99 -0.23,6.94 1.77,-4.14 2.38,-8.67 2.8201,-13.12 0.2,-0.57 0.61,-1.71 0.8199,-2.28 -2.79,1.75 -2.39,5.68 -3.41,8.46 m 5.31,-8.59 c -0.3201,1.38 -0.64,2.76 -0.9,4.16 0.86,0.97 1.74,1.94 2.63,2.92 1.63,-2.15 1.47,-5.01 2.03,-7.51 -0.94,0.11 -2.82,0.32 -3.76,0.43 m -23.5899,8.99 c 4.1299,1.34 8.2699,2.64 12.3799,4.07 1.17,-3.66 2.17,-7.37 3.02,-11.11 -5.37,1.63 -11.2799,2.98 -15.3999,7.04 m 20.1999,6.58 c 1.39,0.4 2.8,0.78 4.24,1.16 0.02,-0.93 0.06,-2.79 0.07,-3.71 0.5601,-0.15 1.6901,-0.45 2.25,-0.6 -1.12,2.31 -0.97,4.31 0.4601,6.02 0.95,-2.72 2.8199,-6.4 0.2,-8.77 l 0.15,1.61 c -1.0699,0.02 -2.12,0.05 -3.15,0.1 3.8,-2.15 -0.8199,-3.84 -1.87,-5.5 -1.0401,3.16 -1.62,6.44 -2.35,9.69 z"
         id="path315" />
      <path
         style="fill:#b8b1a1;stroke:#b8b1a1;stroke-width:0.30000001"
         inkscape:connector-curvature="0"
         d="m 1241.5601,651.48 c 9.99,-6.76 20.1,-13.34 30.23,-19.89 0.1899,4.3799 -0.01,8.93 1.64,13.09 1.2899,3.76 3.9199,6.81 6.4199,9.82 -2.35,2.54 2.8101,2.17 4.3101,3.11 0.22,1.37 0.46,2.75 0.71,4.14 -9.03,0.17 -17.58,-3.25 -26.22,-5.4 -0.3301,0.36 -0.99,1.08 -1.3301,1.44 -1.21,-3.97 -6.7999,-2.99 -9.8899,-4.58 -0.5801,3.63 -1,7.3 -1.39,10.97 0.1699,-3.66 0.26,-7.31 0.39,-10.96 -1.6401,-0.58 -3.2701,-1.16 -4.87,-1.74 z"
         id="path317" />
      <path
         style="fill:#291809;stroke:#291809;stroke-width:0.30000001"
         inkscape:connector-curvature="0"
         d="m 1209.97,638.8 c 0.1,0.27 0.3101,0.8 0.41,1.06 -50.72,41.23 -101.27,82.68 -151.9,124.03 -0.39,0.39 -1.1699,1.17 -1.5599,1.56 -0.42,-0.48 -0.8201,-0.95 -1.2101,-1.42 5.1001,-2.77 9.16,-7.16 13.8,-10.64 46.85,-38.16 93.49,-76.58 140.46,-114.59 z"
         id="path319" />
      <path
         style="fill:#fefefd;stroke:#fefefd;stroke-width:0.30000001"
         inkscape:connector-curvature="0"
         d="m 1373.53,643.62 c 4.89,-3.82 11.35,-6.37 17.5699,-4.51 7.78,1.37 13.28,8.42 14.87,15.86 2.72,12.16 -1.13,24.69 -6.84,35.41 -1.6801,-0.45 -3.3199,-0.89 -4.97,-1.34 0.09,-0.58 0.2799,-1.73 0.37,-2.3 -4.42,1.99 -8.8401,-0.62 -13.1801,-1.48 -0.05,-1.59 -0.11,-3.2 -0.1,-4.78 -2.48,-0.15 -4.38,1.36 -6.02,2.99 -2.12,-0.72 -4.23,-1.43 -6.3199,-2.16 -2.73,-7.82 -6.87,-15.79 -5.4301,-24.31 0.9902,-5.81 5.6302,-9.94 10.0502,-13.38 m 23.57,4.45 c 2.61,3.05 6.74,5.55 6.99,9.96 0.5601,4.98 -3.51,8.95 -3.11,13.91 l 0.84,0.02 c -0.1499,-4.31 2.92,-7.79 3.1901,-12 0.6899,-5.21 -3.3001,-10.05 -7.9101,-11.89 m -11.25,11.91 c 0.17,1.44 -0.2899,3.44 1.24,4.34 -0.25,-4.54 0.3101,-9.03 0.8101,-13.52 -1.9501,2.63 -2.0601,6.04 -2.0501,9.18 m 3.7101,0.95 c 0.25,2.66 3.9099,4.43 6.4299,3.58 2.21,-1 3.9,-3.17 4.45,-5.53 0.26,-2.4 -1.7,-4.12 -2.8899,-5.95 -3.0301,2.17 -6.3801,4.42 -7.99,7.9 m -17.0501,-5.29 c -3.08,2.13 -1.6801,7.42 1.35,8.96 3.72,0.09 6.41,-3.03 9.3201,-4.94 -1.9401,-3.65 -6.8101,-5.62 -10.6701,-4.02 m 13.69,14.38 c 0.17,3.14 3.0701,5.16 5.79,6.12 -0.6,-3.9 -3.0599,-7.16 -4.01,-10.95 -0.9199,1.46 -2.07,2.98 -1.78,4.83 m -2.5199,10.23 c -0.79,1.3 -1.63,3.09 -0.66,4.54 1.6,0.25 2.66,-1.14 3.9199,-1.85 0.4501,1.22 1.3301,1.85 2.64,1.88 0.05,-0.7 0.15,-2.1 0.2001,-2.8 -1.39,0.29 -2.76,0.59 -4.12,0.9 0.1299,-1.48 -1.1201,-1.92 -1.98,-2.67 m 8.3898,2.09 c -0.7899,2.86 2.26,1.98 4.01,2.0099 0.37,-0.58 1.1001,-1.74 1.4701,-2.3199 -1.85,0.09 -3.66,0.2 -5.4801,0.31 z"
         id="path321" />
      <path
         style="fill:#c8c8c8;stroke:#c8c8c8;stroke-width:0.30000001"
         inkscape:connector-curvature="0"
         d="m 1397.1,648.07 c 4.61,1.84 8.6,6.68 7.91,11.89 -0.27,4.21 -3.34,7.69 -3.1901,12 l -0.84,-0.02 c -0.4,-4.96 3.67,-8.93 3.11,-13.91 -0.2499,-4.41 -4.3799,-6.91 -6.9899,-9.96 z"
         id="path323" />
      <path
         style="fill:#d2d2d2;stroke:#d2d2d2;stroke-width:0.30000001"
         inkscape:connector-curvature="0"
         d="m 1385.85,659.98 c -0.01,-3.14 0.1,-6.55 2.05,-9.18 -0.5,4.49 -1.0601,8.98 -0.8101,13.52 -1.5298,-0.9 -1.0699,-2.9 -1.2399,-4.34 z"
         id="path325" />
      <path
         style="fill:#3d3a36;stroke:#3d3a36;stroke-width:0.30000001"
         inkscape:connector-curvature="0"
         d="m 1389.5601,660.93 c 1.61,-3.48 4.96,-5.73 7.99,-7.9 1.1899,1.83 3.1499,3.55 2.8899,5.95 -0.5499,2.36 -2.24,4.53 -4.45,5.53 -2.52,0.85 -6.1799,-0.92 -6.4299,-3.58 z"
         id="path327" />
      <path
         style="fill:#5f4425;stroke:#5f4425;stroke-width:0.30000001"
         inkscape:connector-curvature="0"
         d="m 1246.04,664.18 c 0.39,-3.67 0.8099,-7.34 1.39,-10.97 3.09,1.59 8.6799,0.61 9.8899,4.58 -0.74,7.18 -1.1,14.39 -1.8199,21.57 -3.53,-0.84 -7.03,-1.75 -10.53,-2.62 0.37,-4.19 0.66,-8.38 1.07,-12.56 z"
         id="path329" />
      <path
         style="fill:#3c3b36;stroke:#3c3b36;stroke-width:0.30000001"
         inkscape:connector-curvature="0"
         d="m 1372.51,655.64 c 3.86,-1.6 8.73,0.37 10.67,4.02 -2.91,1.91 -5.6001,5.03 -9.3201,4.94 -3.0299,-1.54 -4.4298,-6.83 -1.3499,-8.96 z"
         id="path331" />
      <path
         style="fill:#3c3b39;stroke:#3c3b39;stroke-width:0.30000001"
         inkscape:connector-curvature="0"
         d="m 1386.2,670.02 c -0.2899,-1.85 0.8601,-3.37 1.78,-4.83 0.9501,3.79 3.41,7.05 4.01,10.95 -2.72,-0.96 -5.62,-2.98 -5.79,-6.12 z"
         id="path333" />
      <path
         style="fill:#b8b1a1;stroke:#b8b1a1;stroke-width:0.30000001"
         inkscape:connector-curvature="0"
         d="m 1153.05,709.52 c 18.87,-12.26 37.6599,-24.66 56.4399,-37.08 5.79,1.01 11.7,0.78 17.53,1.6 6,0.75 11.99,1.64 17.95,2.7 3.5,0.87 7,1.78 10.53,2.62 5.59,1.52 11.04,3.52 16.5699,5.24 1.8601,0.4901 3.53,1.54 4.8501,2.96 -0.3401,0.31 -1.02,0.92 -1.36,1.23 -0.4,-0.2599 -1.2201,-0.77 -1.63,-1.03 -8.3301,1.94 -12.8601,10.64 -12.63,18.7 -0.05,0.49 -0.13,1.48 -0.1801,1.97 -0.9399,9.94 1.1901,19.98 3.79,29.53 0.1599,0.32 0.48,0.97 0.64,1.29 0.2799,0.24 0.85,0.71 1.13,0.94 -1.13,2.99 0.3899,6.01 1.2699,8.85 4.4601,13.07 10.1901,26.08 19.63,36.38 1.8501,2.05 3.9,3.94 6.2301,5.46 0.4299,0.24 1.2899,0.74 1.71,0.99 1.84,1.3 3.6699,2.62 5.59,3.85 -0.71,0.3 -2.13,0.92 -2.84,1.22 -0.86,-0.37 -1.72,-0.7 -2.5801,-0.98 -9.0099,-1.28 -18.1499,-2.17 -27.2599,-2.32 -3.6101,-1.18 -7.39,-1.04 -11.1001,-0.67 -3.5699,-1.18 -7.2699,-1.93 -11.0299,-1.49 -3.51,-1.24 -7.28,-1.01 -10.91,-1.47 -23.24,-2.31 -46.52,-4.28 -69.75,-6.65 -1.16,-3.54 -2.05,-7.18 -3.63,-10.55 -0.14,-0.3 -0.41,-0.9 -0.54,-1.2 0.07,-2.97 -0.85,-5.82 -1.51,-8.67 -4.2899,-17.41 -6.37,-35.39 -5.46,-53.32 l -1.4498,-0.1 z"
         id="path335" />
      <path
         style="fill:#fefefd;stroke:#fefefd;stroke-width:0.30000001"
         inkscape:connector-curvature="0"
         d="m 1323.87,672.04 c 15.16,6.06 29.9,13.2 45.14,19.03 2.12,-1.89 1.28,-5.33 0.8099,-7.79 3.4401,0.8199 6.8201,1.89 10.25,2.81 l 0.07,1.27 c -0.87,0.04 -2.6,0.13 -3.47,0.17 0.74,0.99 1.47,1.99 2.3999,2.87 2.4601,1.06 5.1101,1.53 7.7401,2 0.6,0.12 1.7899,0.35 2.3799,0.47 0.13,-1.44 0.3101,-2.87 0.52,-4.29 2.26,1.42 1.5601,3.57 0.89,5.63 2.17,-0.09 2,-2.34 2.59,-3.79 1.8701,0.23 4.2001,0.22 5.2201,2.16 5.11,-0.35 9.87,2.35 14.7899,3.5 -4.1399,3.28 -9.4299,4.58 -14.0699,6.97 10.83,3.94 21.8199,7.46 32.84,10.88 3.3101,1.3 6.78,-0.37 10.0801,-0.92 3.6,-0.27 4.75,-4.13 7.26,-6.12 1.75,2.13 3.33,4.94 2.2699,7.77 -1.0699,2.7 -4.0699,3.63 -6.46,4.75 3.72,2.7401 7.59,5.31 11.09,8.36 1.0701,0.77 1.64,1.93 1.8201,3.25 -4.75,2.02 -10.24,1.77 -15,-0.02 -2.3201,-0.76 -3.4301,-3.07 -4.87,-4.81 -2.99,1.9 -5.67,4.58 -9.28,5.24 -3.6801,0.64 -7.62,-0.21 -10.67,-2.35 3.25,-3.6 8.73,-3.84 11.9501,-7.46 -14.8101,-3.56 -29.03,-9.13 -43.3101,-14.32 -13.7899,4.19 -27.66,8.4 -41.12,13.64 -0.03,2.45 0.25,5.24 -1.5499,7.2 -1.67,2.09 -4.88,2.08 -6.9301,0.62 -2.5,-1.64 -4.97,-4.49 -8.29,-3.39 -4.2799,1.36 -8.11,4.73 -12.87,4.07 -4.1,-0.68 -8.1899,-1.72 -12,-3.39 -0.9,-0.36 -3.0699,-1.41 -1.65,-2.51 6.78,-2.56 14.4801,-1.24 21.27,-3.85 1.8,-0.58 0.8501,-2.51 0.36,-3.72 -1.6499,-3.54 -2.36,-7.99 -0.7,-11.59 2.08,-0.94 4.28,0.16 6.01,1.34 3.1899,2.1201 5.89,4.91 8.05,8.07 6.95,-0.39 13.4299,-3.21 19.99,-5.3 5.6,-1.93 11.1499,-4 16.7,-6.09 -14.6899,-7.23 -30.29,-13.14 -43.55,-23.01 -2.6501,-2.03 -5.2001,-4.33 -6.7001,-7.35 z"
         id="path337" />
      <path
         style="fill:#b8b0a0;stroke:#b8b0a0;stroke-width:0.30000001"
         inkscape:connector-curvature="0"
         d="m 1175.95,674.76 c 9.8201,-0.99 19.76,-2.55 29.62,-1.41 -16.6699,11.2 -33.5199,22.12 -50.2999,33.14 0.78,-7.72 3.12,-15.41 7.35,-21.96 3.1998,-4.53 7.2099,-9.76 13.3299,-9.77 z"
         id="path339" />
      <path
         style="fill:#5f4425;stroke:#5f4425;stroke-width:0.30000001"
         inkscape:connector-curvature="0"
         d="m 1518.8199,707.63 c 1.03,-10.7 1.77,-21.42 2.77,-32.13 3.42,0.29 6.8301,0.67 10.27,0.96 -0.3199,5.6 -0.98,11.17 -1.41,16.77 -0.63,7.59 -1.5499,15.15 -2.08,22.76 -0.36,4.28 -1.09,8.55 -0.97,12.86 11.91,3.09 23.61,6.96 35.4399,10.35 7.89,2.37 15.8,4.67 23.6901,7.05 5.51,1.64 10.99,3.41 16.5699,4.83 1.1901,-11.03 2.26,-22.07 3.55,-33.09 3.2899,0.3 6.61,0.6 9.9399,0.81 -0.09,4.81 -0.75,9.59 -1.0499,14.39 -1.0601,7.93 -1.2101,15.94 -1.91,23.9 -0.34,2.5699 -0.63,5.15 -0.83,7.75 -0.62,4.61 -0.9401,9.2599 -1.55,13.87 -3.7,-0.07 -7.38,-0.07 -11.0601,-0.06 0.8401,-8.7 1.9701,-17.38 2.66,-26.1 -5.73,-1.63 -11.4199,-3.36 -17.1,-5.11 -10.17,-2.87 -20.27,-5.96 -30.37,-9.05 -9.52,-2.62 -18.86,-5.87 -28.4401,-8.23 -0.1799,2.1801 -0.34,4.36 -0.48,6.56 -3.13,-0.27 -6.27,-0.45 -9.36,-0.96 -0.1,-0.45 -0.3199,-1.33 -0.4299,-1.78 0.1799,-2.33 0.37,-4.65 0.5499,-6.97 -1.15,-0.35 -2.2999,-0.7 -3.4199,-1.03 0.6599,-0.12 2,-0.36 2.6599,-0.49 l 0.9601,-0.13 c 0.36,-5.47 0.98,-10.91 1.2899,-16.38 0.02,-0.33 0.08,-1.01 0.1103,-1.35 z"
         id="path341" />
      <path
         style="fill:#fefefd;stroke:#fefefd;stroke-width:0.30000001"
         inkscape:connector-curvature="0"
         d="m 1402.86,691.14 c 10.41,-4.26 20.8101,-8.53 31.2001,-12.84 -4.7201,7.18 -11.4801,12.79 -18.8701,17.06 -4.0099,-1.7 -8.54,-2.1 -12.33,-4.22 z"
         id="path343" />
      <path
         style="fill:#3e3f39;stroke:#3e3f39;stroke-width:0.30000001"
         inkscape:connector-curvature="0"
         d="m 1383.6801,680.25 c 0.86,0.75 2.11,1.19 1.98,2.67 1.36,-0.31 2.73,-0.61 4.12,-0.9 -0.05,0.7 -0.15,2.1 -0.2001,2.8 -1.3099,-0.03 -2.1899,-0.66 -2.64,-1.88 -1.2599,0.71 -2.3199,2.1 -3.9199,1.85 -0.9701,-1.45 -0.1301,-3.24 0.66,-4.54 z"
         id="path345" />
      <path
         style="fill:#3e3b36;stroke:#3e3b36;stroke-width:0.30000001"
         inkscape:connector-curvature="0"
         d="m 1392.0699,682.34 c 1.8201,-0.11 3.63,-0.22 5.4801,-0.31 -0.37,0.58 -1.1001,1.74 -1.4701,2.3199 -1.7499,-0.0299 -4.7999,0.8501 -4.01,-2.0099 z"
         id="path347" />
      <path
         style="fill:#cfcbc6;stroke:#cfcbc6;stroke-width:0.30000001"
         inkscape:connector-curvature="0"
         d="m 1380.0699,686.09 c 0.89,0.24 1.8101,0.49 2.7401,0.7599 0.35,1.62 -1.67,5.21 1.46,4.91 0.41,-1.43 -0.25,-3.53 1.51,-4.26 2.22,0.86 1.12,3.16 1.03,4.9 -2.63,-0.47 -5.28,-0.94 -7.7401,-2 l 1.04,-0.3 c 0.01,-0.68 0.02,-2.05 0.03,-2.74 l -0.07,-1.2699 z"
         id="path349" />
      <path
         style="fill:#3e3b36;stroke:#3e3b36;stroke-width:0.30000001"
         inkscape:connector-curvature="0"
         d="m 1376.67,687.53 c 0.87,-0.04 2.6,-0.13 3.47,-0.17 -0.01,0.69 -0.02,2.06 -0.03,2.74 l -1.04,0.3 c -0.93,-0.88 -1.66,-1.88 -2.4,-2.87 z"
         id="path351" />
      <path
         style="fill:#3e3b36;stroke:#3e3b36;stroke-width:0.30000001"
         inkscape:connector-curvature="0"
         d="m 1528.37,715.99 c 0.53,-7.61 1.45,-15.17 2.08,-22.76 5.5601,4.23 11.53,8.66 18.6901,9.51 4.79,0.75 9.14,-2.11 13.91,-1.95 9.3999,0.2401 18.3199,4.66 25.2799,10.81 4.5901,4.25 8.89,9.85 8.6001,16.45 -3.4801,-4.04 -8.3401,-7.43 -13.92,-6.98 -7.9,0.42 -15.5601,2.78 -23.47,3.3 1.74,1.5 4,2.14 6.08,3.05 6.52,2.71 13,5.54 19.54,8.22 1.13,0.52 2.64,0.85 3.0299,2.29 -3.9399,-0.7 -7.4099,-2.82 -11.1,-4.21 -7.4099,-3 -14.6599,-6.4 -22.12,-9.23 -9.38,-0.75 -18.61,-3.48 -26.6,-8.5 z"
         id="path353" />
      <path
         style="fill:#291809;stroke:#291809;stroke-width:0.30000001"
         inkscape:connector-curvature="0"
         d="m 1468.64,721.02 c -0.5701,-0.78 -0.91,-1.69 -1.17,-2.58 5.7001,3.37 10.8301,7.66 16.6901,10.76 -0.15,0.46 -0.4501,1.37 -0.6,1.82 -4.9301,-3.4 -9.9001,-6.75 -14.9201,-10 z"
         id="path355" />
      <path
         style="fill:#b8b1a1;stroke:#b8b1a1;stroke-width:0.30000001"
         inkscape:connector-curvature="0"
         d="m 1484.16,729.2 c 9.99,3.79 20.6899,4.78 31.1699,6.5 0.3301,-0.43 1,-1.29 1.3401,-1.72 0.11,0.45 0.33,1.33 0.4299,1.78 3.09,0.51 6.23,0.69 9.36,0.96 9.61,0.8101 19.25,2.44 28.92,1.67 10.1,3.09 20.2,6.18 30.37,9.05 -8.51,8.8 -14.91,19.69 -18.7,31.32 11.0399,0.11 22.09,-0.18 33.1399,-0.11 3.6801,-0.01 7.3601,-0.01 11.0601,0.06 0.61,-4.61 0.9301,-9.26 1.55,-13.87 -0.06,4.62 -0.41,9.23 -0.66,13.85 19.95,-0.19 39.91,-0.03 59.87,0.1 5.8099,-0.06 11.7,0.6 17.47,-0.53 3.0801,0.95 6.15,2.04 9.34,2.66 2.05,-1.18 4.3601,-1.59 6.63,-0.72 -9.85,11.53 -18.71,24.22 -23.5399,38.73 -5.23,14.86 -5.63,31.76 0.74,46.34 2.47,6.15 6.26,11.6 10.09,16.96 -10.67,2.87 -21.73,3.72 -32.6899,4.68 -18.9401,1.42 -37.9501,1.58 -56.9401,1.4 -0.24,0.39 -0.74,1.18 -0.99,1.58 -0.06,-0.4 -0.17,-1.2 -0.23,-1.6 -4.34,-0.2 -8.67,-0.18 -12.98,-0.32 -0.12,0.55 -0.35,1.63 -0.4601,2.1801 -0.11,-0.52 -0.34,-1.54 -0.45,-2.05 -15.04,-0.85 -30.12,-1.21 -45.17,-2.03 0.2101,3.39 0.5,6.79 1.16,10.13 0.86,4.82 2.58,9.44 4.78,13.8 4.5499,9.22 11.98,16.65 20.1899,22.69 -10.5,-1.46 -21.02,-2.73 -31.5399,-3.9 -15.4601,-1.46 -31.15,-3.16 -46.5701,-0.47 -12.95,2.3 -25.73,5.63 -38.7999,7.16 -16.14,-6.15 -31.2001,-15.52 -43.79,-27.37 -0.21,-1.6 -0.4,-3.18 -0.5701,-4.76 -0.02,-0.38 -0.07,-1.14 -0.1,-1.52 -1.6799,-17.56 -3.5,-35.12 -5.09,-52.7 -0.52,-3.39 1.99,-5.58 4.52,-7.25 2.83,-2.12 5.7,-4.18 8.7,-6.05 0.29,-0.16 0.86,-0.5 1.15,-0.66 6.49,-3.23 12.8,-7.72 20.39,-7.52 0.11,-0.01 0.34,-0.05 0.46,-0.06 0.91,-0.19 2.74,-0.55 3.66,-0.73 4.88,-0.3 9.77,-0.52 14.65,-0.97 4.12,-0.42 8.4199,0.11 12.4,-1.33 0.87,-0.08 1.7999,-0.13 2.7,-0.22 3.52,1.09 7.22,0.53 10.84,0.53 9.04,-0.13 18.1,-0.13 27.14,0.23 2.9301,0.11 5.88,0.2401 8.83,0.17 0.1001,-0.27 0.28,-0.8 0.3701,-1.06 1.22,1.35 3.0099,1.23 4.7,1.28 0.12,-6.82 0.76,-13.6 1.92,-20.31 -1.5901,-0.19 -3.16,-0.37 -4.7101,-0.52 -3.0399,-0.3199 -6.08,-0.5099 -9.11,-0.68 -0.25,1.37 -0.47,2.77 -0.64,4.18 -0.05,-1.47 -0.09,-2.93 -0.13,-4.3799 -3,-0.38 -6.0299,-0.5 -9.02,-0.19 -1.61,-0.58 -3.1699,-1.3 -4.74,-1.91 -0.3099,0.24 -0.9199,0.72 -1.23,0.96 -0.46,0.02 -1.36,0.06 -1.8099,0.08 -4.4,-0.85 -8.8301,-0.37 -13.23,0.1 0.07,-0.31 0.21,-0.91 0.2899,-1.21 -7.03,-0.42 -14.09,-0.34 -21.09,-1.13 0.45,-1.54 0.95,-3.05 1.46,-4.56 0.12,-0.34 0.35,-1 0.4601,-1.34 1.3099,-3.64 2.5699,-7.3 3.86,-10.95 0.14,-0.39 0.4199,-1.16 0.5599,-1.55 3.75,-10.58 7.3101,-21.23 11.0601,-31.81 -0.66,-0.08 -1.98,-0.23 -2.64,-0.3 0.27,-0.15 0.8199,-0.4399 1.09,-0.58 7.14,2.17 14.35,4.22 21.36,6.8 6.3301,3.5 12.17,7.83 18.29,11.7 50.34,32.94 100.6799,65.89 151.01,98.84 7.03,4.34 13.5599,9.59 21.04,13.14 -1.8501,-2.85 -5.13,-4.16 -7.79,-6.05 -58.85,-38.53 -117.73,-77.03 -176.5601,-115.59 -8.52,-5.27 -15.2999,-12.79 -21.61,-20.45 0.86,-2.2401 1.7001,-4.4901 2.4601,-6.76 0.1501,-0.4502 0.4501,-1.3602 0.6001,-1.8202 z"
         id="path357" />
      <path
         style="fill:#3e3b36;stroke:#3e3b36;stroke-width:0.30000001"
         inkscape:connector-curvature="0"
         d="m 1613.63,757.09 c 0.7,-7.96 0.85,-15.97 1.91,-23.9 4.3999,4.55 9.64,9.39 16.4199,9.31 6.2101,0.28 10.78,-5.24 16.9601,-5.16 7.5299,-0.38 14.09,4.5699 18.5299,10.23 4.26,5.63 7.5601,12.37 7.8201,19.54 -4.47,-4.04 -9.64,-9.17 -16.28,-7.55 -5.4299,1.3 -11.24,1.42 -16.4399,3.34 13.4099,4.19 26.9199,8.08 40.3899,12.1 7.4701,2 14.78,5.47 22.7101,4.58 0.01,0.17 0.02,0.5 0.02,0.67 l -0.2201,-0.05 c -2.2699,-0.87 -4.58,-0.46 -6.63,0.72 -3.1899,-0.62 -6.2599,-1.71 -9.34,-2.66 -16.9199,-4.79 -33.71,-9.98 -50.5599,-14.96 -3.25,-0.96 -6.67,-0.88 -9.9701,-1.44 -5.33,-0.78 -10.43,-2.58 -15.32,-4.77 z"
         id="path359" />
      <path
         style="fill:#604425;stroke:#604425;stroke-width:0.30000001"
         inkscape:connector-curvature="0"
         d="m 1357.66,739.27 c 2.64,-1.41 5.63,-1.82 8.6,-1.85 -0.52,8.25 -1.12,16.49 -1.8101,24.74 1.9301,1.29 4.0801,2.22 6.3101,2.95 0.04,0.98 0.1,2.96 0.14,3.95 -2.09,-1.72 -4.14,-3.39 -6.3101,-4.97 -1.11,7.7 -1.2999,15.5 -2.01,23.24 1.4701,-0.03 2.9501,-0.04 4.4601,-0.04 -0.29,0.32 -0.87,0.96 -1.16,1.27 -0.84,0.06 -2.52,0.18 -3.36,0.23 -0.3,3.68 -0.64,7.35 -0.79,11.04 3.0801,1.9 6,4.19 9.5,5.3 -0.01,0.34 -0.05,1 -0.07,1.34 -3.5901,1.4 -7.3401,2.83 -10.25,5.4301 -0.14,0.65 -0.4301,1.97 -0.5701,2.62 1.4701,-0.07 2.9501,-0.14 4.4501,-0.2 2.1,-0.01 4.21,0.08 6.35,0.18 -0.07,3.21 -0.23,6.43 -0.38,9.64 0.04,-3.04 0.07,-6.08 0.14,-9.11 -3.51,0.29 -7.01,0.62 -10.48,1.09 -0.86,11.67 -1.7001,23.34 -2.62,35 0.1399,0.37 0.4299,1.12 0.58,1.49 -1.13,3.65 -1.51,7.53 -1.01,11.34 l 0.25,1.08 c -1.16,0.5099 -0.96,1.83 -1.09,2.87 -0.47,7.15 -1.2001,14.28 -1.4,21.44 -0.4301,4.81 -1.03,9.61 -1.1,14.46 4.75,0.1 9.5,0.11 14.25,0.27 l -0.08,0.95 c -4.9399,0.04 -9.88,-0.18 -14.7999,0.17 0.07,4.83 -0.26,9.67 -0.9,14.46 -1.0601,7.5 0.26,15.36 -2.24,22.63 -2.8,1.31 -6.11,0.55 -9.1,0.64 -0.2001,-2.97 -0.38,-5.95 0.06,-8.89 1.3101,-9.59 1.38,-19.3 2.54,-28.9 -13.35,-0.52 -26.77,0.84 -40.0701,-0.42 13.3,-0.91 26.66,-0.43 39.9901,-0.85 0.3099,-4.9 0.6799,-9.79 1.1699,-14.67 0.73,-9.11 1.62,-18.21 2.14,-27.33 -2.2,-0.79 -4.38,-1.61 -6.55,-2.41 0.4701,-0.12 1.41,-0.38 1.88,-0.51 1.62,0.38 3.27,0.8 4.91,1.22 0.39,-4.81 0.74,-9.62 1.24,-14.42 -0.3199,-0.44 -0.95,-1.31 -1.27,-1.75 l -0.11,-1.43 c 0.4,0.08 1.2001,0.25 1.6,0.34 0.5901,-8.64 1.4801,-17.25 2.02,-25.88 -1.77,0.93 -3.48,1.93 -5.23,2.87 -1.21,0.5 -2.51,0.75 -3.79,0.8 0.92,-0.78 1.6901,-1.73 2.3601,-2.73 1.98,-1.66 4.48,-2.26 6.98,-2.68 0.25,-6.69 1.21,-13.34 1.36,-20.03 -1.05,-0.56 -2.0701,-1.13 -3.0701,-1.72 0.05,-0.35 0.13,-1.04 0.1801,-1.39 0.78,0.45 2.34,1.34 3.11,1.79 0.12,-1.56 0.25,-3.11 0.39,-4.66 -0.79,0.02 -2.36,0.05 -3.15,0.06 l 0.17,-1.08 c 1.04,-0.24 2.12,-0.46 3.21,-0.66 0.4501,-8.56 1.63,-17.08 1.92,-25.64 -0.2001,-0.31 -0.61,-0.93 -0.8101,-1.24 l -0.01,-0.11 c 1.64,-1.05 1.75,-2.9 1.88,-4.65 -0.5299,-0.04 -1.59,-0.11 -2.12,-0.15 l -1.09,-0.07 c -0.01,-0.44 -0.02,-1.3 -0.03,-1.73 0.5,0.38 1.49,1.13 1.99,1.5 l 0.1901,-0.62 c 1.6,-4.56 2.4399,-10.07 -0.05,-14.44 l 2.75,0.99 c -0.04,-0.5401 -0.14,-1.6201 -0.19,-2.1601 m 3.8,62.63 c -0.22,2.63 -0.4399,5.28 -0.11,7.93 2.29,-1.41 4.8101,-2.5 6.8201,-4.33 -2.1801,-1.33 -4.2101,-2.98 -6.7101,-3.6 z"
         id="path361" />
      <path
         style="fill:#291809;stroke:#291809;stroke-width:0.30000001"
         inkscape:connector-curvature="0"
         d="m 1375.72,736.53 1.52,-0.64 c 0.23,11.03 -1.03,22.14 0.25,33.13 -0.34,0 -1.01,0 -1.35,-0.01 -0.28,-0.22 -0.85,-0.66 -1.13,-0.88 0.63,-10.52 0.53,-21.07 0.71,-31.6 z"
         id="path363" />
      <path
         style="fill:#0f0b07;stroke:#0f0b07;stroke-width:0.30000001"
         inkscape:connector-curvature="0"
         d="m 1264.91,737.96 c 20.6599,13.24 41.2899,26.5099 61.99,39.68 0.99,-3.61 2.03,-7.21 2.9299,-10.84 0.24,0.58 0.7301,1.73 0.9701,2.3 -0.99,3.28 -2.01,6.58 -2.4601,10 l 1.0801,0.65 c 0.33,0.19 1.01,0.57 1.34,0.75 0.08,-0.08 0.22,-0.24 0.29,-0.32 0.7799,0.33 2.36,0.98 3.1499,1.31 0.7201,-2.49 1.1001,-5.06 1.6101,-7.59 0.2699,0.5699 0.8099,1.7 1.09,2.2599 -0.55,2.26 -1.01,4.54 -1.4301,6.84 1.1801,0.96 2.74,1.67 3.4601,3.13 -1.3,-0.43 -2.4701,-1.07 -3.51,-1.93 -0.53,1.74 -0.92,3.52 -1.1001,5.34 1.78,-0.33 3.6001,-0.67 5.41,-1.02 -0.02,-0.62 -0.04,-1.86 -0.05,-2.48 1.0099,-3.35 1.74,-6.77 2.23,-10.23 0.27,1.13 0.5499,2.28 0.84,3.43 -0.47,2.61 -0.95,5.21 -1.38,7.83 0.6801,0.38 2.05,1.15 2.73,1.53 0.74,-4.0099 1.3,-8.04 1.9401,-12.05 0.4099,-0.21 1.24,-0.61 1.6499,-0.82 -0.74,4.28 -1.4199,8.57 -2.0699,12.87 0.67,-0.1 2.02,-0.31 2.6901,-0.41 1.6599,-8.21 2.46,-16.6 3.72,-24.9 0.4099,-0.09 1.24,-0.28 1.65,-0.38 -1.42,8.41 -2.4801,16.89 -3.66,25.34 l -0.17,1.08 c -0.15,0.92 -0.27,1.86 -0.35,2.81 -0.05,0.35 -0.13,1.04 -0.1801,1.39 -1.2999,7.3 -2.0199,14.6899 -3.33,21.99 1.66,-0.11 3.34,-0.19 5.04,-0.24 -2.5,0.42 -5,1.02 -6.98,2.68 -1.64,-0.65 -3.67,0.23 -3.5901,2.18 0.3101,0.14 0.9301,0.41 1.23,0.55 1.28,-0.05 2.5801,-0.3 3.79,-0.8 -0.72,5.52 -1.6699,11.01 -2.3199,16.54 -0.7201,2.89 2.3099,4.29 3.9299,6.13 l 0.11,1.43 c -1.45,-1.42 -3,-2.77 -4.5299,-4.08 -0.9501,6.1201 -1.78,12.26 -2.65,18.39 0.5699,0.16 1.73,0.48 2.2999,0.64 -0.47,0.13 -1.4099,0.39 -1.88,0.51 l -0.6299,0.15 c -1.3101,9.7 -2.76,19.37 -4.0901,29.07 -0.36,-0.07 -1.0699,-0.19 -1.4299,-0.26 1.33,-9.87 2.83,-19.71 4.1499,-29.58 -1.2799,-0.43 -2.5499,-0.86 -3.8099,-1.28 -1.9,10.36 -3.3101,20.81 -5.12,31.19 -0.39,0.05 -1.17,0.15 -1.5601,0.2 1.79,-10.69 3.7001,-21.38 5.05,-32.13 -1.4399,-0.27 -2.86,-0.54 -4.26,-0.8 -2.1,10.86 -3.85,21.79 -6.09,32.63 -0.36,0.03 -1.0701,0.08 -1.42,0.11 2.01,-11.27 4.3101,-22.49 6.0701,-33.8 -2.25,-0.53 -4.4701,-1.14 -6.67,-1.73 -2.39,11.89 -5.12,23.7 -7.39,35.61 -0.72,-0.02 -1.4299,-0.03 -2.1,0 l 0.63,-0.37 c 2.46,-11.94 4.98,-23.86 7.5,-35.78 -2.12,-0.71 -4.24,-1.38 -6.36,-2.05 -3.2001,12.15 -6.29,24.33 -9.42,36.51 -0.2,0.43 -0.59,1.31 -0.78,1.75 -0.33,0.04 -0.99,0.11 -1.3199,0.15 3.52,-12.85 6.65,-25.81 10.11,-38.69 l -2.05,-0.4 c 0.8501,-0.6 1.7201,-1.19 2.62,-1.75 0.7401,-3.04 1.52,-6.07 2.05,-9.15 0.41,0.75 0.84,1.53 1.28,2.31 -0.9601,2.8 -1.6801,5.69 -2.04,8.64 2.05,0.39 4.1,0.94 6.12,1.55 1.39,-6.7 2.97,-13.36 4.12,-20.1 -2.24,1.26 -4.48,2.49 -6.7899,3.57 -0.3501,1.68 -0.67,3.38 -0.9701,5.09 -0.5699,-1.34 -1.11,-2.7 -1.5699,-4.05 -0.59,0.48 -1.78,1.44 -2.38,1.92 -1.0601,3.88 -2.21,7.74 -2.96,11.7 -4,13 -7.4,26.19 -10.87,39.34 -0.41,0 -1.2201,-0.01 -1.63,-0.01 3.6799,-13.4 7.35,-26.8 11,-40.2 -3.2201,-1.04 -6.4401,-2.05 -9.5701,-3.26 -2,0.98 -3.96,2 -5.92,3.02 -21.3199,11.35 -42.47,23.01 -63.74,34.42 -3.36,1.76 -6.51,4.08 -10.2799,4.88 25.09,-14.12 50.63,-27.45 75.86,-41.34 0.39,-0.16 1.1599,-0.4901 1.5499,-0.65 -0.2699,-0.24 -0.83,-0.73 -1.1,-0.97 0.4401,-0.14 1.3301,-0.43 1.77,-0.58 0.49,-0.04 1.48,-0.13 1.97,-0.18 4.2001,-2.23 8.37,-4.51 12.5901,-6.72 0.8999,-3.27 1.8199,-6.54 2.5399,-9.86 0.47,-0.19 1.41,-0.58 1.88,-0.78 -0.83,3 -1.65,6 -2.54,8.98 0.9401,-0.18 1.9,-0.35 2.8701,-0.51 0.7799,-2.92 1.49,-5.86 2.3799,-8.75 0.14,-0.19 0.4301,-0.58 0.5801,-0.78 0.27,-0.09 0.8199,-0.26 1.1,-0.35 -0.72,2.79 -1.41,5.58 -2.02,8.4 2.23,-1.29 4.48,-2.54 6.77,-3.73 0.35,-2.04 0.74,-4.06 1.16,-6.07 l 0.97,-0.17 c 0.65,0.39 1.3101,0.82 1.97,1.28 0.49,0.37 1.47,1.1 1.9601,1.47 3.87,-0.44 3.08,-5.2 3.88,-7.94 -1.8701,0.01 -3.7301,0.01 -5.5601,0.01 -0.3199,0.72 -0.95,2.14 -1.27,2.85 -0.46,-0.15 -0.89,-0.28 -1.3099,-0.4 2.1599,-10.28 4.3099,-20.57 6.49,-30.84 -1.38,0.07 -2.74,0.16 -4.0801,0.26 -2.21,9.28 -4.76,18.48 -7.1,27.73 0.5701,0.53 1.71,1.59 2.28,2.12 -1.0601,-0.3 -2.13,-0.59 -3.16,-0.86 -0.53,-0.8 -1.0499,-1.58 -1.58,-2.33 -1.0601,-0.06 -1.84,0.45 -2.34,1.53 -0.14,-0.03 -0.42,-0.1 -0.5701,-0.14 0.04,-0.87 0.11,-2.61 0.14,-3.48 -6.4399,-6.7 -13.48,-12.81 -20.3101,-19.11 0.8601,0.28 1.7201,0.61 2.5801,0.98 6.29,5.46 12.23,11.32 18.1699,17.15 3.1801,-7.51 4.4901,-15.6801 6.91,-23.46 -9.2899,0.03 -18.53,1.28 -27.83,1.24 -0.42,-0.25 -1.28,-0.75 -1.71,-0.99 10.6799,-0.7 21.6399,0.18 32.0299,-2.59 -2.86,8.64 -5.2,17.46 -7.4199,26.28 0.1799,0.31 0.5499,0.94 0.73,1.25 0.2999,-0.01 0.9,-0.02 1.21,-0.02 2.58,-9.54 4.87,-19.17 7.3101,-28.72 0.22,-2.35 3.0599,-5.83 0.21,-7.43 -0.83,2.81 -1.52,5.65 -2.1801,8.5099 -1.5299,-3.11 0.05,-6.35 0.9301,-9.3799 -19.92,-12.96 -40.11,-25.51 -59.95,-38.59 -0.28,-0.23 -0.8501,-0.7 -1.13,-0.94 -0.1602,-0.3199 -0.4803,-0.9699 -0.6402,-1.2899 m 65.86,43.43 c -0.74,2.62 -1.41,5.27 -2.0801,7.92 0.9401,0.01 2.8201,0.04 3.77,0.06 0.61,-2.12 1.0701,-4.27 1.28,-6.46 -0.7499,-0.38 -2.2299,-1.14 -2.9699,-1.52 m 16.08,7.88 c -1.55,2.97 3.37,0.26 0,0 m -5.93,0.5 c -1.77,9.19 -3.6001,18.4 -4.9501,27.67 0.9501,-0.24 2.85,-0.71 3.8,-0.94 1.11,-9.05 2.97,-17.99 4.1,-27.03 -0.7399,0.07 -2.2099,0.22 -2.9499,0.3 m -7.03,0.42 c -1.89,9.24 -3.92,18.45 -5.79,27.69 2.04,-0.17 4.13,-0.32 6.2101,-0.49 1.6699,-9.08 3.2799,-18.17 5.0399,-27.23 -1.84,-0.03 -3.6601,-0.01 -5.46,0.03 m 11.23,1.15 c -1.22,8.49 -2.77,16.92 -3.99,25.41 0.8,-0.1 2.42,-0.3 3.22,-0.4 1.09,-4.7599 1.39,-9.67 2.23,-14.48 0.36,-3.41 1.3401,-6.79 1,-10.23 -0.61,-0.07 -1.85,-0.22 -2.46,-0.3 m -9.59,27.27 c -0.3201,1.74 -0.67,3.47 -0.97,5.24 3.0699,-0.12 4.97,-2.36 5.0099,-5.4 -1.2699,-1.21 -2.7099,-0.33 -4.0399,0.16 m 5.18,3.26 c -1.58,3.85 -1.48,8.2 -2.4199,12.24 1.01,1.04 2.0399,2.08 3.08,3.13 1.11,-5.39 1.62,-10.88 2.51,-16.3 -0.7901,0.23 -2.3801,0.7 -3.1701,0.93 m -6.24,3.7 c -0.61,1.37 -0.65,2.9 -0.85,4.39 1.11,0.93 2.21,1.87 3.37,2.79 0.5701,-3.08 1.0601,-6.17 1.47,-9.27 -1.37,0.66 -2.74,1.26 -3.99,2.09 m -7.59,3.11 c 1.48,-0.18 2.12,-2.83 0.33,-3.05 -1.2799,0.18 -1.79,2.86 -0.33,3.05 m -1.4,1.87 c -1.5599,7.21 -3.37,14.4 -4.36,21.72 2.15,0.57 4.28,1.19 6.47,1.74 1.38,-7.34 2.6801,-14.7 4.0701,-22.03 0.22,-1.22 -0.05,-2.45 -0.12,-3.64 -2.2601,-0.14 -4.3502,0.81 -6.0601,2.21 m 7.8301,0.6 c -1.3201,8.04 -3.4,15.99 -4.0901,24.12 1.05,0.12 3.13,0.35 4.17,0.46 1.02,-7.31 2.5,-14.56 3.3099,-21.89 -1.1499,-0.9 -2.2799,-1.81 -3.3898,-2.69 m 4.7399,4.66 c -1.04,6.46 -2.15,12.91 -3.1101,19.38 -0.5599,1.99 2.17,2.28 3.51,2.53 1.41,-6.3 1.76,-12.78 2.9501,-19.12 -1,-1.08 -2.1,-2.05 -3.35,-2.79 m -38.82,9.35 c 2.9,0.73 5.67,1.94 8.64,2.44 0.6901,-2.92 1.5,-5.81 2.1,-8.74 -3.43,2.31 -7.87,3.38 -10.74,6.3 z"
         id="path365" />
      <path
         style="fill:#b7b1a1;stroke:#b7b1a1;stroke-width:0.30000001"
         inkscape:connector-curvature="0"
         d="m 1562.84,739.2 c 10.42,0.49 20.85,0.01 31.2201,-1.18 -2.55,2.71 -5.2001,5.33 -7.53,8.23 -7.8901,-2.38 -15.8001,-4.68 -23.6901,-7.05 z"
         id="path367" />
      <path
         style="fill:#11100e;stroke:#11100e;stroke-width:0.30000001"
         inkscape:connector-curvature="0"
         d="m 1373.02,741.86 1.59,-0.03 c -0.42,9.52 -0.5699,19.04 -0.4399,28.56 0.4299,0.1 1.2899,0.29 1.71,0.39 1.28,1.18 2.08,2.8199 3.5,3.93 0.1,-2.16 -0.04,-4.31 -0.88,-6.3 0.42,-1.8799 0.63,-3.81 0.54,-5.72 0.37,1.87 0.95,3.7 1.72,5.47 0.3099,0.23 0.91,0.71 1.21,0.94 0.8,0.16 2.4,0.47 3.2001,0.63 0.47,0.08 1.4299,0.24 1.9099,0.32 l 0.05,0.78 0.04,0.68 c 0.4199,4.25 -1.3501,9.88 3.0699,12.59 -0.01,-0.7 -0.02,-2.11 -0.02,-2.81 0.3401,-0.4 1.02,-1.19 1.36,-1.59 0.3501,2.58 -0.37,6.27 2.9601,7.13 0.05,-2.19 -0.06,-4.37 -0.2201,-6.54 -0.01,-2.42 0.3401,-4.82 0.63,-7.21 3.9701,1.31 7.9301,2.67 11.9701,3.8 -0.5601,0.15 -1.66,0.44 -2.2201,0.59 -3.1399,-1.14 -6.3199,-2.14 -9.48,-3.17 0.28,3.79 0.67,7.57 1.01,11.36 1.35,-0.02 2.73,-0.04 4.13,-0.03 0.3,0.24 0.89,0.73 1.1801,0.97 -1.6801,0.03 -3.3501,0.07 -5,0.14 -0.01,0.77 0,1.56 0.02,2.36 0.4399,0.32 1.33,0.97 1.7699,1.29 -0.1499,0.38 -0.4399,1.13 -0.59,1.5 l -0.99,-0.48 c 0.8101,6.46 1.26,12.96 1.95,19.44 1.9701,-0.16 3.9701,-0.31 5.9601,-0.53 0.33,0.29 1,0.87 1.33,1.17 -2.24,0.1 -4.47,0.16 -6.6799,0.19 -0.3,4.31 0.01,8.71 1.0499,12.92 5.33,3.75 10.9501,7.13 16.51,10.57 -0.29,0.16 -0.86,0.5 -1.15,0.66 -5.14,-3.33 -10.3099,-6.61 -15.46,-9.9 0.51,7.75 1.53,15.46 2.24,23.2 1.59,17.58 3.41,35.14 5.09,52.7 -0.38,0.38 -1.14,1.14 -1.52,1.52 -1.62,-19.87 -3.87,-39.68 -5.59,-59.54 -0.65,-6.31 -1.34,-12.62 -1.89,-18.93 -0.87,-0.52 -2.61,-1.55 -3.48,-2.06 0.49,8.79 1.42,17.56 1.9401,26.36 1.36,15.44 2.61,30.89 3.7,46.36 -0.23,0.51 -0.6899,1.54 -0.92,2.05 l -0.45,-0.47 c -1.13,-14.52 -2.22,-29.04 -3.46,-43.55 -0.66,-10.2 -1.5801,-20.37 -2.37,-30.55 0.09,-2.15 -2.53,-2.71 -3.79,-3.91 0.6,13.42 1.4399,26.84 2.21,40.25 0.06,1.18 0.12,2.36 0.1901,3.56 0,3.25 -0.01,6.63 -1.42,9.64 -0.11,-18.24 -1.63,-36.45 -2.76,-54.65 -1.91,-1.1 -3.85,-2.21 -5.76,-3.2599 0.47,19.19 1.17,38.37 1.7001,57.56 l -1.37,-0.87 c -0.09,-1.1801 -0.15,-2.33 -0.2001,-3.4901 -0.63,-18.03 -1.09,-36.06 -1.75,-54.09 -1.51,0.24 -2.99,0.49 -4.47,0.73 -0.29,14.62 -0.39,29.24 -0.71,43.86 -0.42,-2.54 -0.9601,-5.05 -1.26,-7.6 0.2999,-19.24 0.24,-38.49 0.73,-57.73 -0.59,-6.65 0.7999,-13.29 0.17,-19.94 -0.28,-0.4 -0.8501,-1.18 -1.13,-1.58 -0.4501,5.36 -0.66,10.75 -0.41,16.13 -1.0701,6.86 -0.16,13.78 -0.3101,20.66 -1.1499,1.35 -1.4099,3.07 -1.1799,4.79 0.38,5.66 -0.08,11.32 0.04,16.99 -0.24,11.7 -1.0099,23.41 -0.7999,35.11 l 0.29,0.05 c -0.03,0.54 -0.1001,1.63 -0.14,2.18 l -0.03,0.52 c -0.39,0.37 -1.17,1.1 -1.5601,1.47 -0.12,-7.16 0.2301,-14.31 0.2301,-21.47 0.21,-7.93 0.4399,-15.86 0.7,-23.79 0.15,-3.21 0.3099,-6.43 0.38,-9.64 -2.14,-0.1 -4.25,-0.19 -6.35,-0.18 2.0699,-0.2 4.1699,-0.46 6.27,-0.71 0.03,-2.39 0.04,-4.77 0.1,-7.14 0.02,-0.34 0.06,-1 0.07,-1.34 0.26,-5.63 0.38,-11.27 0.55,-16.89 -2,0.08 -3.9501,0.18 -5.9,0.32 0.29,-0.31 0.87,-0.95 1.16,-1.27 1.5499,-0.01 3.11,-0.02 4.7,-0.02 0.13,-5.45 0.54,-10.89 0.4301,-16.33 -0.66,-1.59 -0.77,-3.3 -0.74,-4.98 1.4199,-1.64 1.0499,-3.91 1.2,-5.9 0.1097,-6.07 0.3797,-12.14 0.3897,-18.2 m 7.73,28.19 c -0.47,3.89 0.5,8.53 5.14,9.2 -0.14,-2.83 -0.3,-5.65 -0.5601,-8.46 -1.5399,-0.26 -3.0699,-0.51 -4.5799,-0.74 m -4.0699,4.04 c -0.09,4.21 -0.13,8.42 -0.1901,12.64 0.83,-0.02 2.5,-0.07 3.34,-0.09 -0.83,-4.1 1.8,-10.53 -3.1499,-12.55 m 4.5098,3.49 c -0.08,2.98 -0.03,5.98 0.05,8.97 1.6801,-0.06 3.38,-0.11 5.09,-0.16 -0.09,-1.5 -0.23,-2.98 -0.4399,-4.45 -1.16,-1.82 -3.2001,-2.9 -4.7001,-4.36 m 6.4201,5.59 c 1.5701,3.78 -0.35,7.8 0.8201,11.65 0.73,-0.15 2.1799,-0.47 2.8999,-0.62 -0.9099,-2.38 1.0901,-6.91 -2.5299,-7.25 0.45,-0.42 1.36,-1.26 1.8099,-1.68 -1.02,-0.71 -2.02,-1.41 -3,-2.1 m 4.68,3.84 c 0.03,1.91 0.14,3.83 0.2999,5.75 0.8,-0.35 2.39,-1.07 3.1901,-1.42 -0.7101,-1.82 -1.8,-3.37 -3.49,-4.33 m -15.7299,0.71 c -0.1901,4.7 -0.3201,9.41 -0.17,14.13 1.28,-0.81 2.65,-1.56 3.97,-2.36 -0.33,-3.93 -0.42,-7.86 -0.54,-11.79 -0.8101,0 -2.4401,0.01 -3.26,0.02 m 4.7899,-0.11 c 0.07,3.72 0.17,7.45 0.38,11.17 1.66,-0.89 3.3301,-1.77 5.04,-2.61 -0.04,-2.9 -0.21,-5.8 -0.39,-8.68 -1.6999,0.02 -3.37,0.06 -5.03,0.12 m 11.3,6.1 c 0.58,5.89 0.9299,11.8 1.51,17.69 0.77,-0.02 2.2899,-0.08 3.0499,-0.1 -0.4299,-6.08 -1.21,-12.12 -1.64,-18.2 -0.7299,0.16 -2.1899,0.46 -2.9199,0.61 m -4.12,2.12 c -0.1901,5.32 0.58,10.63 0.71,15.95 0.86,-0.05 2.5701,-0.16 3.42,-0.21 -0.4401,-5.47 -0.9301,-10.93 -1.25,-16.41 -0.7201,0.17 -2.16,0.5 -2.88,0.67 m -6.8499,4.09 c 0.1399,4.2 0.33,8.41 0.47,12.62 1.86,-0.11 3.71,-0.23 5.61,-0.32 -0.5,-5 0.03,-10.1899 -1.3101,-15.04 -1.49,1.09 -3.07,2.05 -4.7699,2.74 m -5.4501,2.91 c -0.28,3.47 0.72,6.97 -0.09,10.42 l 2.6899,0.07 -0.97,-2.94 c 0.7001,0.37 2.08,1.1 2.78,1.47 -0.17,-3.5699 -0.25,-7.14 -0.35,-10.7 -1.4099,0.48 -2.7298,1.06 -4.0599,1.68 m 13.16,9.88 c -0.42,3.0099 0.26,6.85 3.95,7.06 -0.25,-2.37 -0.45,-4.72 -0.6,-7.08 -0.84,0.01 -2.52,0.02 -3.35,0.02 m 4.83,-0.21 c 0.74,3.62 -1.0599,9.95 4.17,10.59 -0.3,-3.61 -0.63,-7.2 -1.01,-10.79 -0.79,0.05 -2.37,0.15 -3.16,0.2 m -9.22,1.31 c 0.03,1.17 0.75,1.88 2.16,2.15 2.07,-0.86 -0.81,-3.65 -2.16,-2.15 z"
         id="path369" />
      <path
         style="fill:#3e3b36;stroke:#3e3b36;stroke-width:0.30000001"
         inkscape:connector-curvature="0"
         d="m 1015.35,745.41 c 7.81,-2.5 15.8201,1.71 21.66,6.69 4.76,4.34 9.37,9.47 11.09,15.82 -5.12,-2.79 -11.38,-6.4 -17.11,-2.98 -11.4,6.24 -23.32,11.68 -35.94,14.93 -6.61,-6.87 -13.35,-13.67 -19.33,-21.11 8.7,1.4 18.23,1.69 26.05,-3.02 5.19,-2.61 7.82,-8.67 13.58,-10.33 z"
         id="path371" />
      <path
         style="fill:#604425;stroke:#604425;stroke-width:0.30000001"
         inkscape:connector-curvature="0"
         d="m 959.15,756.7 c 2.5699,-2.46 5.19,-4.87 7.86,-7.22 2.88,3.11 5.8,6.19 8.71,9.28 5.98,7.44 12.72,14.24 19.33,21.11 6.46,6.3 12.34,13.17 18.58,19.69 -2.4,2.66 -4.75,5.37 -7.15,8.03 -15.82,-16.93 -31.53,-33.95 -47.33,-50.89 z"
         id="path373" />
      <path
         style="fill:#b9ac9f;stroke:#b9ac9f;stroke-width:0.30000001"
         inkscape:connector-curvature="0"
         d="m 1354.09,755.8 c 0.53,0.04 1.5901,0.11 2.12,0.15 -0.13,1.75 -0.24,3.6 -1.88,4.65 -0.13,-1.61 -0.21,-3.21 -0.24,-4.8 z"
         id="path375" />
      <path
         style="fill:#b8b1a1;stroke:#b8b1a1;stroke-width:0.30000001"
         inkscape:connector-curvature="0"
         d="m 1060.2,765.18 c 2.26,-1.2 4.52,-2.43 6.79,-3.62 0.4401,0.42 1.33,1.26 1.77,1.68 -0.03,0.3 -0.11,0.91 -0.15,1.21 l 0.28,0.54 c 10.26,18.56 20.4,37.43 33.86,53.93 0.17,0.24 0.51,0.71 0.6801,0.95 8.3099,12.03 18.3899,22.79 29.0599,32.76 4.61,4.06 9.2,8.2 14.37,11.56 -1.97,-23.31 4.73,-46.66 16.5,-66.66 3.48,-0.1801 6.97,-0.28 10.48,-0.23 7.92,-0.19 15.86,0.26 23.79,-0.22 12.11,1.89 24.36,2.85 36.52,4.36 0.1,-1.88 0.22,-3.74 0.34,-5.61 -1.9,-0.11 -3.77,-0.23 -5.63,-0.26 2.04,-0.17 4.08,-0.43 6.15,-0.63 -0.1,2.28 -0.17,4.56 -0.22,6.86 3.45,0.54 6.9099,1.05 10.38,1.53 0.08,-0.61 0.23,-1.82 0.3099,-2.43 0.06,0.6 0.1901,1.8 0.26,2.41 23.51,4.35 47.01,9.03 70.12,15.24 0.15,0.04 0.4301,0.11 0.5701,0.14 0.5,-1.08 1.2799,-1.59 2.34,-1.53 0.53,0.75 1.0499,1.53 1.58,2.33 1.03,0.27 2.1,0.56 3.16,0.86 0.78,0.23 1.58,0.48 2.41,0.73 0.4199,0.12 0.85,0.25 1.3099,0.4 1.23,0.38 2.49,0.77 3.75,1.18 -0.9199,0.81 -1.88,1.59 -2.76,2.4301 -0.6599,-0.46 -1.3199,-0.89 -1.97,-1.28 l -0.97,0.17 c -2,0.4 -3.97,0.86 -5.91,1.4 -0.28,0.09 -0.83,0.26 -1.1,0.35 -0.15,0.2 -0.4401,0.59 -0.5801,0.78 -0.9199,0.06 -1.8199,0.16 -2.71,0.28 -0.47,0.2 -1.41,0.59 -1.88,0.78 -7.33,2.92 -13.46,8.23 -17.91,14.68 0.2001,0.52 0.6001,1.56 0.8101,2.08 -0.4399,0.15 -1.33,0.44 -1.77,0.58 -0.11,0.41 -0.34,1.22 -0.45,1.6201 -25.23,13.89 -50.77,27.22 -75.86,41.34 3.7699,-0.8 6.9199,-3.12 10.2799,-4.88 21.27,-11.41 42.42,-23.07 63.74,-34.42 -4.4299,13.11 -3.1399,27.3 -0.06,40.56 1.05,5.28 2.28,10.54 3.87,15.69 2.87,8.76 6.28,17.8 12.84,24.51 2.53,2.78 6.12,4.09 9.62,5.19 -2.24,1.26 -4.6499,2.26 -7.2,2.56 -11.58,1.62 -23.28,0.85 -34.9,0.41 -23.9,-1.46 -47.73,-4.13 -71.3099,-8.25 -8.12,-1.57 -16.3201,-3.06 -24.1001,-5.9 -3.51,-1.2 -5.37,-4.64 -8.0399,-6.95 -2.74,-2.36 -4.63,-5.64 -7.5701,-7.72 -15.21,2.17 -30.5,3.87 -45.86,4.56 -22.22,0.27 -44.76,-1 -66.21,-7.28 -5.25,-1.39 -10.2001,-3.63 -15.4,-5.14 -13.96,-6.58 -27.1,-15.56 -36.55,-27.92 -7.24,-9.24 -11.48,-21.2 -9.97,-32.99 1.4901,-12.09 7.81,-23 15.38,-32.31 2.4,-2.66 4.75,-5.3701 7.15,-8.03 6.11,-5.93 12.52,-11.55 19.34,-16.66 2.67,-1.94 4.75,-4.72 7.8301,-6.08 3.9399,-1.69 7.1499,-4.58 10.58,-7.09 3.1899,-0.9802 5.9301,-2.9302 8.82,-4.5502 z"
         id="path377" />
      <path
         style="fill:#4b3722;stroke:#4b3722;stroke-width:0.30000001"
         inkscape:connector-curvature="0"
         d="m 1040.8,776.82 c 4.72,-3.98 9.45,-7.97 14.4099,-11.66 -0.11,0.56 -0.34,1.6801 -0.45,2.2401 -1.1801,0.7 -2.3,1.49 -3.38,2.33 -3.4299,2.5099 -6.6399,5.3999 -10.5799,7.0899 z"
         id="path379" />
      <path
         style="fill:#291809;stroke:#291809;stroke-width:0.30000001"
         inkscape:connector-curvature="0"
         d="m 1102.75,818.92 c 19.49,-15.86 39.27,-31.38 58.72,-47.31 0.13,0.3 0.4,0.9 0.54,1.2 -19.58,15.62 -39.14,31.26 -58.58,47.06 -0.17,-0.24 -0.51,-0.71 -0.68,-0.95 z"
         id="path381" />
      <path
         style="fill:#584b3f;stroke:#584b3f;stroke-width:0.30000001"
         inkscape:connector-curvature="0"
         d="m 1416.08,779.62 c 3.1001,-0.8 5.6801,-2.98 8.62,-4.25 0.4601,0.13 1.37,0.39 1.8201,0.51 -2.6901,1.47 -5.35,2.98 -7.88,4.7 4.65,1.43 9.27,3.8 14.28,3.24 10.98,-0.63 21.96,-1.14 32.9299,-1.74 -0.14,0.39 -0.4199,1.16 -0.5599,1.55 -10.5801,0.64 -21.2101,0.74 -31.75,1.83 9.2899,3.06 18.61,6.0099 27.89,9.12 -0.1101,0.34 -0.3401,1 -0.4601,1.34 -10.0599,-3.25 -20.11,-6.55 -30.1599,-9.82 -2.3201,-0.81 -4.8,-0.47 -7.17,-0.36 -0.63,-3.38 -4.61,-3.17 -7.14,-4.32 -1.99,1.03 -3.9301,2.13 -5.79,3.35 4.0801,0.01 8.16,-0.26 12.25,-0.51 l -0.1,1.55 c -5.15,0.36 -10.34,0.25 -15.45,0.85 -3.04,0.9301 -5.66,2.82 -8.4401,4.29 6.97,5.93 13.97,11.82 20.9501,17.73 20.13,-1.94 40.24,-4.13 60.39,-5.86 4.3999,-0.47 8.83,-0.95 13.23,-0.1 -23.89,2.71 -47.8501,4.71 -71.76,7.29 6.2999,5.89 13.13,11.16 19.6,16.85 -0.92,0.18 -2.75,0.54 -3.66,0.73 -0.12,0.01 -0.35,0.05 -0.46,0.06 0.3099,-0.27 0.9299,-0.81 1.24,-1.08 -4.73,-4.65 -10.08,-8.59 -15.01,-13.01 -1.42,-1.13 -2.6899,-2.58 -4.4,-3.21 -4.4,0.04 -8.72,0.96 -13.1,1.14 -0.33,-0.3 -1,-0.88 -1.33,-1.17 4.36,-0.61 8.74,-0.98 13.13,-1.39 -6.5701,-5.81 -13.3101,-11.43 -20.05,-17.04 0.15,-0.37 0.4401,-1.12 0.59,-1.5 1.01,-1.38 2.53,-2.25 3.92,-3.22 l -0.71,-0.57 c -0.29,-0.24 -0.88,-0.73 -1.1801,-0.97 5.15,0.23 9.77,-2.01 13.9401,-4.8 -3.2101,-1.13 -6.42,-2.19 -9.6001,-3.36 0.5601,-0.15 1.66,-0.4399 2.2201,-0.59 3.0699,0.82 6.0198,2.12 9.1599,2.74 z"
         id="path383" />
      <path
         style="fill:#b3a59d;stroke:#b3a59d;stroke-width:0.30000001"
         inkscape:connector-curvature="0"
         d="m 1346.85,789.27 c 3.37,0.26 -1.55,2.97 0,0 z"
         id="path385" />
      <path
         style="fill:#5f4427;stroke:#5f4427;stroke-width:0.30000001"
         inkscape:connector-curvature="0"
         d="m 1235.39,790.01 c 3.63,0.46 7.4,0.23 10.91,1.47 0.07,0.6 0.23,1.79 0.3099,2.39 -0.45,2.32 -0.92,4.65 -1.13,7.03 -0.08,0.61 -0.23,1.8199 -0.3099,2.43 -3.4701,-0.48 -6.9301,-0.99 -10.38,-1.53 0.05,-2.3 0.12,-4.58 0.22,-6.86 -2.0701,0.2 -4.11,0.46 -6.15,0.63 -10.41,0.56 -20.8199,1.11 -31.23,1.51 -7.9301,0.48 -15.87,0.03 -23.79,0.22 20.37,-1.77 40.8301,-2.17 61.23,-3.49 0.09,-1.28 0.2,-2.54 0.32,-3.8 z"
         id="path387" />
      <path
         style="fill:#4b3722;stroke:#4b3722;stroke-width:0.30000001"
         inkscape:connector-curvature="0"
         d="m 1257.33,792.97 c 3.7101,-0.37 7.49,-0.5099 11.1001,0.67 -7.15,0.07 -14.27,0.78 -21.4,0.99 l 0.22,-1.42 c 3.3499,0 6.7199,-0.02 10.0799,-0.24 z"
         id="path389" />
      <path
         style="fill:#4b3722;stroke:#4b3722;stroke-width:0.30000001"
         inkscape:connector-curvature="0"
         d="m 1495.35,802.64 c 0.3101,-0.24 0.92,-0.72 1.23,-0.96 1.5701,0.61 3.13,1.33 4.74,1.91 -10.11,6.84 -20.12,13.84 -30.1899,20.75 -0.9,0.09 -1.83,0.14 -2.7,0.22 10.2899,-6.86 20.25,-14.22 30.6699,-20.88 -1.26,-0.4 -2.51,-0.78 -3.75,-1.04 z"
         id="path391" />
      <path
         style="fill:#5e4426;stroke:#5e4426;stroke-width:0.30000001"
         inkscape:connector-curvature="0"
         d="m 1511.11,803.98 c 3.03,0.17 6.0701,0.36 9.11,0.68 -0.71,6.51 -1.02,13.06 -1.9099,19.55 -0.09,0.2599 -0.27,0.79 -0.3701,1.06 -2.95,0.07 -5.8999,-0.06 -8.83,-0.17 0.33,-5.66 0.9,-11.3 1.36,-16.94 0.17,-1.41 0.39,-2.81 0.64,-4.18 z"
         id="path393" />
      <path
         style="fill:#6b4445;stroke:#6b4445;stroke-width:0.30000001"
         inkscape:connector-curvature="0"
         d="m 1372.03,813.08 c -0.23,-1.72 0.03,-3.44 1.1799,-4.79 -0.23,1.95 -0.4299,3.96 0.4701,5.8 -2.4301,4.91 -0.92,10.69 -1.6101,15.98 -0.1199,-5.67 0.3401,-11.33 -0.04,-16.99 z"
         id="path395" />
      <path
         style="fill:#d8d1c6;stroke:#d8d1c6;stroke-width:0.30000001"
         inkscape:connector-curvature="0"
         d="m 1326.88,828.68 c -1.46,-0.19 -0.95,-2.87 0.33,-3.05 1.79,0.22 1.15,2.87 -0.33,3.05 z"
         id="path397" />
      <path
         style="fill:#b6b0a4;stroke:#b6b0a4;stroke-width:0.30000001"
         inkscape:connector-curvature="0"
         d="m 1400.48,843.81 c 1.72,19.86 3.97,39.67 5.59,59.54 -0.05,0.57 -0.1499,1.71 -0.2,2.28 -1.5699,-1.49 -3.12,-2.99 -4.63,-4.52 -0.17,-1.87 -0.35,-3.73 -0.49,-5.57 -1.09,-15.47 -2.34,-30.92 -3.7,-46.36 0.45,0.24 1.36,0.73 1.8199,0.97 1.1601,-1.93 1.8901,-4.06 1.6101,-6.34 z"
         id="path399" />
      <path
         style="fill:#ded5c4;stroke:#ded5c4;stroke-width:0.30000001"
         inkscape:connector-curvature="0"
         d="m 1293.78,846.53 c 0.11,-0.4 0.34,-1.21 0.45,-1.6201 0.27,0.2401 0.8301,0.73 1.1,0.97 -0.3901,0.1601 -1.16,0.4901 -1.55,0.6501 z"
         id="path401" />
      <path
         style="fill:#533e2c;stroke:#533e2c;stroke-width:0.30000001"
         inkscape:connector-curvature="0"
         d="m 1369.52,863.06 c 0.29,-5.04 0.29,-10.09 0.54,-15.13 0,7.16 -0.3501,14.31 -0.2301,21.47 0.39,-0.37 1.17,-1.1 1.5601,-1.47 l 0.49,-0.19 c -0.11,-0.08 -0.34,-0.25 -0.46,-0.33 0.04,-0.55 0.11,-1.64 0.14,-2.18 l 0.45,0.04 c 0.75,0.35 1.52,0.72 2.3099,1.09 -1.36,14.15 0.15,28.44 -1.36,42.59 -0.1599,13.02 -0.2,26.04 -0.37,39.06 0.05,2.29 -0.4,4.91 1.38,6.74 -1.73,-0.02 -3.47,0.01 -5.1699,0.06 0.1799,-16.85 0.6499,-33.7 1.24,-50.54 0.7,-0.08 2.09,-0.26 2.7799,-0.35 0.08,-4.6 0.12,-9.2 0.12,-13.8 -0.6599,-0.07 -1.96,-0.22 -2.62,-0.29 -0.04,-1.95 -0.4099,-3.86 -1.35,-5.55 -0.1,-5.1201 0.1801,-10.2401 0.25,-15.36 -3.89,-1.24 -7.83,-2.34 -11.6,-3.89 l -0.25,-1.08 c 4.17,0.91 8.17,2.44 12.28,3.62 -0.11,-0.63 -0.34,-1.9 -0.4501,-2.53 -3.23,-3.71 -7.0499,-6.9 -10.74,-10.14 0.48,-0.41 0.9701,-0.81 1.48,-1.19 2.8302,3.46 6.3102,6.31 9.5802,9.35 m 1.56,6.45 c -0.1899,6.64 -0.4399,13.29 -0.74,19.94 0.8,0.01 2.38,0.02 3.17,0.03 0.05,-6.15 0.3199,-12.31 0.2,-18.45 -0.66,-0.38 -1.97,-1.14 -2.63,-1.52 z"
         id="path403" />
      <path
         style="fill:#191b1a;stroke:#191b1a;stroke-width:0.30000001"
         inkscape:connector-curvature="0"
         d="m 1374.16,850.75 c 0.2999,2.55 0.84,5.06 1.26,7.6 0.12,3.56 -0.3201,7.14 0.1899,10.69 1.0701,1.15 2.65,1.52 4.17,1.84 -0.25,1 -0.47,2.02 -0.6901,3.05 -1.1799,-1.16 -2.45,-2.3 -3.62,-3.39 -0.4,6.09 -0.3199,12.2 -0.35,18.3 0.01,5.11 -0.08,10.23 -0.04,15.35 -0.37,16.85 -0.3999,33.72 -1.11,50.56 -1.78,-1.83 -1.33,-4.45 -1.38,-6.74 0.17,-13.02 0.2101,-26.04 0.37,-39.06 1.51,-14.15 0,-28.44 1.36,-42.59 -0.7899,-0.37 -1.5599,-0.74 -2.3099,-1.09 0.47,-0.26 1.4,-0.76 1.87,-1.01 -0.08,-4.51 0.1101,-9.01 0.2801,-13.51 z"
         id="path405" />
      <path
         style="fill:#b8b0a1;stroke:#b8b0a1;stroke-width:0.30000001"
         inkscape:connector-curvature="0"
         d="m 1395.92,853.57 c 1.24,14.51 2.33,29.03 3.46,43.55 -2.3101,-2.05 -3.99,-4.65 -5.48,-7.31 -0.9401,-8.94 -0.9501,-17.94 -1.74,-26.89 -0.07,-1.2 -0.13,-2.38 -0.1901,-3.56 1.2901,-1.94 2.6,-3.88 3.9501,-5.79 z"
         id="path407" />
      <path
         style="fill:#291809;stroke:#291809;stroke-width:0.30000001"
         inkscape:connector-curvature="0"
         d="m 1392.16,862.92 c 0.7899,8.95 0.7999,17.95 1.74,26.89 0.36,4.82 0.24,9.67 0.89,14.47 0.76,6.05 0.1899,12.17 0.9399,18.22 0.9301,6.81 0.27,13.72 1.26,20.53 0.1901,3.93 0.95,8.05 -0.14,11.89 -0.25,-0.15 -0.74,-0.45 -0.98,-0.6 -1.2,-16.7 -1.92,-33.4 -2.98,-50.1 -0.06,-4.83 -0.67,-9.6299 -0.76,-14.46 0.6,-3.4 -1.63,-6 -4.3199,-7.66 -4.1201,0.32 -3.6801,4.56 -3.26,7.56 0.3899,4.81 0.4099,9.64 0.5699,14.47 0.33,6.98 0.15,13.98 0.4301,20.97 0.9099,9.77 0.9199,19.61 0.7,29.41 -0.24,0.06 -0.73,0.2 -0.97,0.26 -1.29,-5.81 -0.27,-11.88 -0.77,-17.79 -1.01,-10.91 -0.8,-21.88 -1.34,-32.81 -0.13,-4.84 -0.25,-9.67 -0.25,-14.5 -0.02,-1.44 -0.02,-2.87 0,-4.29 0.07,-4.39 -0.26,-8.76 -0.3301,-13.14 l -0.04,-0.9 1.37,0.87 c 2.1599,0.86 4.4099,1.53 6.51,2.59 -2.1901,0.02 -4.3101,-0.43 -6.3501,-1.11 0.01,0.81 0.03,2.44 0.04,3.26 1.04,0.99 2.05,2.03 3.22,2.92 1.24,-0.35 2.4601,-0.78 3.67,-1.31 -0.4401,0.65 -1.3101,1.94 -1.75,2.59 0.1799,1.28 1.5699,1.99 2.34,2.98 0.05,-3.89 -0.74,-7.7 -0.86,-11.57 1.4101,-3.01 1.4201,-6.39 1.4201,-9.64 m -7.89,16.49 c -0.59,1.3 -0.3,2.2401 0.88,2.82 2.05,-0.32 0.81,-3.86 -0.88,-2.82 z"
         id="path409" />
      <path
         style="fill:#ded4cb;stroke:#ded4cb;stroke-width:0.30000001"
         inkscape:connector-curvature="0"
         d="m 1371.42,867.41 c 0.12,0.08 0.35,0.25 0.46,0.33 l -0.49,0.19 0.03,-0.52 z"
         id="path411" />
      <path
         style="fill:#89817a;stroke:#89817a;stroke-width:0.30000001"
         inkscape:connector-curvature="0"
         d="m 1382.35,867.85 c 0.05,1.16 0.11,2.31 0.2001,3.4901 l 0.04,0.9 c 0.07,4.38 0.4,8.75 0.3301,13.14 -1.29,0.8 -2.5601,1.61 -3.78,2.48 l 0,-1.09 -1.17,-0.01 c 1.61,-1.22 3.2101,-2.46 4.8401,-3.67 0.1299,-3.55 -0.67,-7.03 -3.7201,-9.16 0.2201,-1.03 0.4401,-2.05 0.6901,-3.05 0.58,0.1 1.74,0.3 2.3199,0.4 0.07,-0.8601 0.1899,-2.5701 0.2499,-3.4301 z"
         id="path413" />
      <path
         style="fill:#1d0c04;stroke:#1d0c04;stroke-width:0.30000001"
         inkscape:connector-curvature="0"
         d="m 1368.97,884.28 c 0.9401,1.6899 1.3101,3.6 1.35,5.55 -0.04,4.81 -0.2899,9.62 -0.2799,14.44 -0.5901,16.84 -1.0601,33.69 -1.24,50.54 l 0.03,0.91 c -0.49,-0.02 -1.46,-0.05 -1.95,-0.06 -0.24,-10.22 0.95,-20.4 0.83,-30.62 0.15,-6.68 0.13,-13.36 0.49,-20.02 l 0.08,-0.95 c 0.4,-4.86 0.37,-9.74 0.51,-14.6 0.04,-1.74 0.1,-3.48 0.1799,-5.19 z"
         id="path415" />
      <path
         style="fill:#795c38;stroke:#795c38;stroke-width:0.30000001"
         inkscape:connector-curvature="0"
         d="m 1302.71,888.89 c 0.1901,-0.44 0.5801,-1.32 0.78,-1.75 l -0.4299,1.72 c 2.6799,0.02 5.3799,0.04 8.08,-0.03 0.67,-0.03 1.38,-0.02 2.1,0 2.65,0.05 5.3101,0.07 7.99,-0.08 0.35,-0.03 1.0601,-0.08 1.42,-0.11 1.74,0.26 3.51,0.5 5.2999,0.3 0.39,-0.05 1.17,-0.15 1.5601,-0.2 1.58,0.17 3.3199,0.66 4.78,-0.33 0.36,0.07 1.0699,0.19 1.4299,0.26 3,0.58 6.0701,0.53 9.13,0.52 -0.49,4.88 -0.86,9.77 -1.1699,14.67 -13.3301,0.42 -26.6901,-0.06 -39.9901,0.85 -2.6599,-0.04 -5.3099,0.01 -7.9399,0.11 -1.59,-5.15 -2.8199,-10.41 -3.87,-15.69 1.5,-0.07 3.01,-0.11 4.55,-0.12 0.4099,0 1.22,0.01 1.63,0.01 0.83,0.01 2.5,0.02 3.33,0.02 0.3299,-0.04 0.9899,-0.11 1.3199,-0.15 z"
         id="path417" />
      <path
         style="fill:#775c3b;stroke:#775c3b;stroke-width:0.30000001"
         inkscape:connector-curvature="0"
         d="m 1375.12,888.84 c 0.9301,-0.71 1.87,-1.42 2.85,-2.08 l 1.17,0.01 0,1.09 c -0.74,0.54 -1.46,1.1 -2.16,1.68 1.97,0.02 3.9501,0.07 5.9401,0.13 0,4.83 0.12,9.66 0.25,14.5 -2.7101,0.01 -5.4,0.02 -8.0901,0.02 -0.04,-5.12 0.05,-10.24 0.04,-15.35 z"
         id="path419" />
      <path
         style="fill:#604424;stroke:#604424;stroke-width:0.30000001"
         inkscape:connector-curvature="0"
         d="m 1588.91,887.97 c 4.3099,0.14 8.64,0.1201 12.98,0.32 0.06,0.4 0.17,1.2 0.23,1.6 -0.25,4.05 -0.72,8.08 -0.92,12.14 -0.34,3.91 -0.7699,7.81 -1,11.73 0.4801,0.19 1.4501,0.58 1.9301,0.77 -0.45,0.23 -1.35,0.67 -1.8101,0.89 -0.8099,2.89 0.2301,7.32 -3.37,8.58 -4.1699,1.58 -8.5299,2.68 -12.38,5 0.1801,-5.74 1.41,-11.39 1.4901,-17.13 0.1799,-4.01 0.9099,-7.95 1.3099,-11.93 0.29,-3.27 0.62,-6.54 1.08,-9.79 0.1101,-0.55 0.34,-1.63 0.46,-2.18 z"
         id="path421" />
      <path
         style="fill:#785c39;stroke:#785c39;stroke-width:0.30000001"
         inkscape:connector-curvature="0"
         d="m 1355.13,889.34 c 4.55,-0.1 9.1,-0.07 13.66,0.1299 -0.14,4.86 -0.11,9.7401 -0.51,14.6 -4.75,-0.16 -9.5,-0.17 -14.25,-0.27 0.07,-4.8499 0.67,-9.6499 1.1,-14.4599 z"
         id="path423" />
      <path
         style="fill:#725d40;stroke:#725d40;stroke-width:0.30000001"
         inkscape:connector-curvature="0"
         d="m 1370.3199,889.83 c 0.66,0.07 1.9601,0.22 2.62,0.29 0,4.6 -0.04,9.2 -0.12,13.8 -0.6899,0.09 -2.08,0.27 -2.7799,0.35 -0.01,-4.82 0.24,-9.63 0.2799,-14.44 z"
         id="path425" />
      <path
         style="fill:#765d38;stroke:#765d38;stroke-width:0.30000001"
         inkscape:connector-curvature="0"
         d="m 1384.55,889.66 c 2.51,0 5.0399,0.04 7.58,0.1 0.09,4.83 0.7,9.63 0.76,14.46 -2.6,-0.04 -5.1901,-0.0699 -7.77,-0.09 -0.16,-4.83 -0.1801,-9.66 -0.57,-14.47 z"
         id="path427" />
      <path
         style="fill:#745d3e;stroke:#745d3e;stroke-width:0.30000001"
         inkscape:connector-curvature="0"
         d="m 1393.9,889.81 c 1.49,2.66 3.1699,5.26 5.48,7.31 l 0.45,0.47 c -0.1899,2.15 -0.13,4.3199 0.03,6.48 -1.71,0.06 -3.4,0.13 -5.0699,0.21 -0.6501,-4.8 -0.5301,-9.65 -0.8901,-14.47 z"
         id="path429" />
      <path
         style="fill:#1a0a02;stroke:#1a0a02;stroke-width:0.30000001"
         inkscape:connector-curvature="0"
         d="m 1399.83,897.59 c 0.2301,-0.51 0.6901,-1.54 0.92,-2.05 0.14,1.84 0.3199,3.7 0.49,5.57 1.2,11.97 1.86,23.99 2.9301,35.97 0.2899,6.17 1.26,12.29 1.21,18.48 l -0.8199,0.01 -0.8201,-0.4 c -0.76,-17.07 -2.59,-34.07 -3.88,-51.1 -0.1601,-2.16 -0.2201,-4.33 -0.03,-6.48 z"
         id="path431" />
      <path
         style="fill:#785c39;stroke:#785c39;stroke-width:0.30000001"
         inkscape:connector-curvature="0"
         d="m 1543.99,896.2 c 14.49,0.85 28.91,2.65 43.38,3.74 -0.4,3.98 -1.13,7.92 -1.3099,11.93 -6.3401,-1.09 -12.76,-1.63 -19.17,-2.07 -5.98,-0.4 -11.9501,-1.39 -17.9501,-1 l -0.1699,1.2 c -2.2002,-4.36 -3.9201,-8.98 -4.7801,-13.8 z"
         id="path433" />
      <path
         style="fill:#795d38;stroke:#795d38;stroke-width:0.30000001"
         inkscape:connector-curvature="0"
         d="m 979.49,913.79 c 18.33,-8.02 38.52,-10.11 58.13,-12.98 5.2,1.51 10.15,3.75 15.4,5.14 21.45,6.28 43.99,7.55 66.21,7.28 -7.0699,1 -14.24,-0.18 -21.2999,0.84 -12.7201,1.9 -25.6101,3.13 -37.9901,6.75 -1.9399,0.22 -3.45,2.57 -2.0399,4.23 2.2999,2.96 6.0599,4.15 9.4399,5.45 11.6801,3.91 23.8301,6.18 35.98,8.09 21.39,3.73 43,6.06 64.6101,8.15 52.25,4.89 104.6899,7.5 157.1399,8.52 13.9301,0.33 27.89,-0.27 41.8101,0.4 0.49,0.01 1.46,0.04 1.95,0.06 11.65,-0.17 23.29,0.1201 34.91,-0.55 l 0.8201,0.4 0.8199,-0.01 c 1.87,-0.21 3.74,-0.51 5.65,-0.63 0.49,-0.03 1.47,-0.08 1.96,-0.1 9.33,-0.59 18.7,-0.46 28.04,-0.97 23.35,-1.15 46.6799,-2.96 69.9,-5.67 21.72,-2.88 43.5399,-6.12 64.49,-12.75 10.6499,-3.45 21.35,-7.66 29.99,-14.99 0.99,-0.93 1.7799,-2.05 2.6,-3.13 -1.9301,-1.02 -3.86,-2.02 -5.88,-2.79 -0.48,-0.19 -1.45,-0.58 -1.9301,-0.77 0.2301,-3.92 0.66,-7.82 1,-11.73 11.64,1.54 23.41,3.3 34.4701,7.37 2.39,1.19 6.0699,2.31 6.1799,5.5099 -3.08,4.26 0.05,9.6801 -2.0699,14.32 -0.53,-3.04 -0.98,-6.13 -2.02,-9.04 -0.4,-0.1 -1.1901,-0.31 -1.58,-0.41 -3.03,3.14 -5.1001,7.12 -8.4901,9.9399 -15.2999,13.88 -35.0299,21.2 -54.34,27.55 -43.91,13.15 -89.88,17.41 -135.48,19.37 -25.9301,1.08 -51.9,0.6 -77.84,0.54 -108.7001,-2.77 -216.8401,-15.86 -324.3101,-31.81 -1.59,-0.13 -3.15,0.01 -4.71,0.08 -11.95,-1.67 -23.96,-3.5 -35.79,-5.78 C 987.53,932.95 982.11,923.62 979.49,913.79 Z"
         id="path435" />
      <path
         style="fill:#533d26;stroke:#533d26;stroke-width:0.30000001"
         inkscape:connector-curvature="0"
         d="m 1401.24,901.11 c 1.51,1.53 3.0601,3.03 4.63,4.52 0.05,-0.57 0.15,-1.71 0.2,-2.28 0.38,-0.38 1.14,-1.14 1.52,-1.52 0.03,0.38 0.08,1.14 0.1,1.52 -1.87,4.5 -0.6599,9.36 -0.25,14.02 1.15,12.52 2.55,25.02 3.5901,37.56 -1.91,0.12 -3.78,0.42 -5.65,0.63 0.05,-6.19 -0.92,-12.31 -1.21,-18.48 -1.0701,-11.98 -1.7302,-24 -2.9301,-35.97 z"
         id="path437" />
      <path
         style="fill:#563d25;stroke:#563d25;stroke-width:0.30000001"
         inkscape:connector-curvature="0"
         d="m 1375.08,904.19 c 2.6901,0 5.38,-0.01 8.0901,-0.02 0.5399,10.93 0.33,21.9 1.34,32.81 0.5,5.91 -0.52,11.98 0.77,17.79 0.24,-0.06 0.73,-0.2 0.97,-0.26 0.22,-9.8 0.21,-19.64 -0.7,-29.41 -0.28,-6.99 -0.1001,-13.99 -0.4301,-20.97 2.58,0.02 5.17,0.05 7.77,0.09 1.0599,16.7 1.78,33.4 2.98,50.1 0.24,0.15 0.73,0.45 0.98,0.6 1.09,-3.84 0.3301,-7.96 0.14,-11.89 -0.99,-6.8101 -0.33,-13.72 -1.26,-20.53 -0.75,-6.05 -0.1799,-12.17 -0.9399,-18.22 1.6699,-0.08 3.36,-0.15 5.0699,-0.21 1.29,17.03 3.12,34.03 3.88,51.1 -11.62,0.67 -23.26,0.38 -34.91,0.55 l -0.03,-0.91 c 1.7,-0.05 3.4399,-0.08 5.1699,-0.06 0.7101,-16.84 0.74,-33.71 1.11,-50.56 z"
         id="path439" />
      <path
         style="fill:#1e0e05;stroke:#1e0e05;stroke-width:0.30000001"
         inkscape:connector-curvature="0"
         d="m 1407.4399,917.37 c -0.4099,-4.66 -1.62,-9.52 0.25,-14.02 0.17,1.58 0.3601,3.16 0.5701,4.76 1.74,15.55 2.87,31.17 4.73,46.72 -0.49,0.02 -1.47,0.07 -1.96,0.1 -1.04,-12.54 -2.44,-25.04 -3.5901,-37.56 z"
         id="path441" />
      <path
         style="fill:#573d24;stroke:#573d24;stroke-width:0.30000001"
         inkscape:connector-curvature="0"
         d="m 1295.75,904.82 c 2.63,-0.1 5.28,-0.15 7.9399,-0.11 13.3,1.2599 26.7201,-0.1 40.0701,0.42 -1.16,9.6 -1.23,19.31 -2.54,28.9 -0.4399,2.9399 -0.26,5.92 -0.06,8.89 2.99,-0.09 6.2999,0.67 9.1,-0.64 2.5,-7.27 1.1799,-15.13 2.24,-22.63 0.64,-4.79 0.97,-9.63 0.9,-14.46 4.9199,-0.35 9.86,-0.13 14.7999,-0.17 -0.36,6.66 -0.34,13.34 -0.49,20.02 0.12,10.22 -1.0699,20.4 -0.83,30.62 -13.92,-0.67 -27.88,-0.0699 -41.8101,-0.4 -52.45,-1.02 -104.8899,-3.63 -157.1399,-8.52 -21.6101,-2.09 -43.2201,-4.42 -64.6101,-8.15 -12.1499,-1.91 -24.2999,-4.1801 -35.98,-8.09 -3.38,-1.3 -7.14,-2.49 -9.4399,-5.45 -1.41,-1.66 0.1,-4.01 2.0399,-4.23 12.38,-3.62 25.27,-4.85 37.9901,-6.75 7.0599,-1.02 14.23,0.16 21.2999,-0.84 15.36,-0.69 30.65,-2.39 45.86,-4.56 2.9401,2.08 4.8301,5.36 7.5701,7.72 2.6699,2.31 4.5299,5.75 8.0399,6.95 7.78,2.84 15.9801,4.33 24.1001,5.9 23.58,4.12 47.4099,6.79 71.3099,8.25 11.62,0.44 23.3201,1.21 34.9,-0.41 2.55,-0.3 4.96,-1.3 7.2,-2.56 -3.5,-1.1 -7.09,-2.41 -9.62,-5.19 -6.5599,-6.71 -9.9699,-15.75 -12.8399,-24.51 z"
         id="path443" />
      <path
         style="fill:#573d24;stroke:#573d24;stroke-width:0.30000001"
         inkscape:connector-curvature="0"
         d="m 1408.26,908.11 c 12.59,11.85 27.65,21.22 43.79,27.37 13.0699,-1.53 25.85,-4.86 38.7999,-7.16 15.42,-2.69 31.11,-0.99 46.5701,0.47 10.5199,1.17 21.0399,2.44 31.5399,3.9 -8.21,-6.04 -15.64,-13.47 -20.1899,-22.69 l 0.1699,-1.2 c 6,-0.39 11.9701,0.6 17.9501,1 6.41,0.44 12.83,0.98 19.17,2.07 -0.08,5.74 -1.3101,11.39 -1.4901,17.13 3.8501,-2.32 8.2101,-3.42 12.38,-5 3.6001,-1.26 2.5601,-5.69 3.37,-8.58 0.4601,-0.22 1.3601,-0.66 1.8101,-0.89 2.02,0.77 3.95,1.77 5.88,2.79 -0.8201,1.08 -1.61,2.2 -2.6,3.13 -8.64,7.33 -19.3401,11.54 -29.99,14.99 -20.9501,6.63 -42.77,9.87 -64.49,12.75 -23.2201,2.71 -46.55,4.52 -69.9,5.67 -9.3401,0.51 -18.7101,0.38 -28.04,0.97 -1.86,-15.55 -2.99,-31.17 -4.73,-46.72 z"
         id="path445" />
      <path
         style="fill:#98702b;stroke:#98702b;stroke-width:0.30000001"
         inkscape:connector-curvature="0"
         d="m 1627.6899,929.72 c 3.39,-2.8199 5.4601,-6.8 8.4901,-9.9399 0.3899,0.1 1.1799,0.31 1.58,0.41 1.04,2.91 1.49,6 2.02,9.04 -0.36,18.19 -4.5901,36.1 -9.36,53.58 l -0.07,-0.22 c -0.12,-0.44 -0.37,-1.3 -0.5,-1.7401 -11.34,15.47 -29.63,23.2401 -46.99,29.86 -19.89,6.83 -40.49,11.41 -61.22,14.8 -45.83,7.23 -92.28,9.67 -138.62,10.29 -90.89,1.01 -181.66,-5.3401 -272.12,-13.6201 1.4399,6.95 9.0599,9.56 14.8099,12.1301 19.74,7.1499 40.7101,9.8799 61.38,12.98 49.6901,6.6 99.8201,8.6 149.87,10.2899 25.6901,0.15 51.38,0.2101 77.0601,-0.03 13.29,-0.9701 26.65,-0.5 39.9299,-1.6801 23.3,-0.95 46.5601,-2.77 69.74,-5.3 23.89,-2.7799 47.8601,-6.1499 70.9701,-13.0299 6.7,-1.8301 12.86,-5.1801 19.5299,-7.11 -5.99,16.2699 -13.8999,31.87 -23.11,46.5599 -6.6599,10.29 -14.2999,20.38 -24.5599,27.3201 -6.23,4.5 -14.04,5.3899 -21.5,5.1799 -79.97,4.0601 -159.92,9.77 -240.03,10.08 -25.73,0 -51.54,-0.22 -77.1,-3.38 -18.75,-2.08 -36.36,-9.5499 -53.0601,-17.9399 -31.0199,-16.08 -59.14,-37.54 -83.49,-62.54 -14.95,-15.34 -28.4,-32.16 -39.8099,-50.3 -7.88,-12.73 -15.3,-25.9 -20.52,-39.96 1.5599,-0.07 3.12,-0.21 4.71,-0.08 107.47,15.95 215.61,29.04 324.3101,31.81 25.9399,0.06 51.9099,0.54 77.84,-0.54 45.6,-1.96 91.5699,-6.22 135.48,-19.37 19.31,-6.35 39.04,-13.67 54.3399,-27.55 m -52.3599,43.74 c -6.6699,1.57 -10.86,8.89 -10.01,15.47 1.2401,4.04 3.2101,8.53 7.3201,10.38 3.73,1.86 8.3099,2.02 12.23,0.64 3.39,-2.19 6.98,-4.87 8.0601,-8.99 1.6699,-4.71 -0.28,-9.87 -3.1101,-13.69 -3.4701,-4.2 -9.4801,-4.78 -14.4901,-3.81 m -39.04,8.97 c -5.3101,1.82 -10.04,6.72 -10.12,12.56 -1.13,9.42 9.47,18.04 18.46,14.49 5.26,-1.17 7.99,-6.22 9.97,-10.76 0.39,-4.2 -1.0599,-8.5699 -3.4399,-12 -4.0101,-3.41 -9.5401,-6.26 -14.8701,-4.29 m -35.95,7 c -5.9099,0.3 -10.5599,5.15 -12,10.65 -0.35,2.84 -0.03,5.71 0.14,8.56 2.91,3.42 5.77,7.58 10.52,8.44 3.3199,0.33 6.91,0.26 10.02,-1.09 2.5699,-1.96 5.28,-4.17 6.77,-7.08 0.6699,-4.72 1.59,-10.7 -2.4,-14.24 -3.01,-3.93 -8.1,-6.29 -13.05,-5.24 m -296.01,1.05 c -5.9399,1.03 -10.88,5.9 -11.87,11.86 -2.0699,9.95 9.8301,19.61 19.12,15.25 4.65,-1.36 7.4701,-5.9301 8.8101,-10.32 1.49,-5.38 -1.67,-10.6 -5.2001,-14.39 -3.2501,-1.9 -7.06,-3.47 -10.86,-2.4 m 34.05,2.04 c -8.13,1.33 -13.3101,10.76 -10.37,18.39 1.54,3.5 3.77,7.25 7.67,8.46 4.7899,1.56 10.72,1.5 14.5699,-2.19 4.21,-2.79 5.16,-8.18 5.22,-12.87 0.08,-4.75 -4.26,-7.56 -7.3199,-10.48 -2.93,-1.51 -6.55,-2.06 -9.77,-1.31 m 223.89,-0.07 c -6.25,1.31 -11.5801,6.98 -11.4401,13.57 -0.99,6.22 3.8401,11.6 9.25,13.83 3.9801,1.2401 8.0601,-0.52 11.86,-1.66 4.17,-1.06 6.05,-5.43 6.75,-9.28 0.5901,-4.65 -0.5399,-10.11 -4.49,-13.04 -3.4299,-2.41 -7.6599,-4.33 -11.9299,-3.42 m -185.99,2.98 c -6.22,1.65 -12.35,6.65 -12.15,13.59 -0.59,8.51 8.11,16.13 16.47,14.6 6.67,-1.27 12.09,-7.76 11.74,-14.63 -0.29,-7.95 -8.0299,-14.87 -16.06,-13.56 m 73.05,1.07 c -7.84,1.34 -12.33,10.04 -10.11,17.41 0.76,4.53 4.8201,7.21 8.47,9.4 3.8401,1.32 8.2201,0.96 11.91,-0.73 4.47,-2.92 7.78,-8.11 7.16,-13.6 -0.15,-4.82 -3.3201,-8.93 -7.15,-11.55 -3.16,-1.49 -6.91,-1.68 -10.28,-0.93 m 73.03,-0.09 c -9.0699,3.14 -12.01,15.84 -5.66,22.86 4.42,3.74 11.2001,6.23 16.64,3.14 6.3301,-2.3799 9.1901,-10.09 7.52,-16.35 -0.73,-4.18 -4.02,-7.34 -7.49,-9.43 -3.53,-1.2 -7.46,-1.29 -11.01,-0.22 m -110.98,0.96 c -4.46,0.87 -7.35,4.85 -9.15,8.72 -0.9,3.17 -0.72,6.61 -0.16,9.83 1.3101,2.51 3.4401,4.54 5.3,6.67 4.38,2.97 10.15,2.57 14.92,0.79 3.3099,-2.17 6.35,-5.24 6.7999,-9.37 3.2401,-9.95 -8.1598,-19.85 -17.7099,-16.64 m 74.99,0 c -3.41,1.29 -6.95,2.94 -8.6801,6.36 -3.0099,3.66 -2.1299,8.61 -1.0499,12.82 1.61,2.54 3.86,4.7 6.13,6.7 4.38,2.47 10.04,2.02 14.48,-0.07 3.49,-3.13 6.84,-7.26 6.87,-12.18 0.23,-4.29 -2.67,-7.86 -4.99,-11.17 -3.6,-2.43 -8.52,-3.89 -12.76,-2.46 z"
         id="path447" />
      <path
         style="fill:#877c69;stroke:#877c69;stroke-width:0.30000001"
         inkscape:connector-curvature="0"
         d="m 1575.33,973.46 c 5.01,-0.97 11.02,-0.39 14.49,3.81 2.8301,3.82 4.78,8.98 3.1101,13.69 -1.0801,4.12 -4.67,6.8 -8.0601,8.99 -3.92,1.38 -8.5,1.22 -12.23,-0.64 -4.11,-1.85 -6.08,-6.34 -7.3201,-10.38 -0.8499,-6.58 3.3401,-13.9 10.0101,-15.47 z"
         id="path449" />
      <path
         style="fill:#6f4f25;stroke:#6f4f25;stroke-width:0.30000001"
         inkscape:connector-curvature="0"
         d="m 1582.86,1010.71 c 17.36,-6.62 35.65,-14.39 46.99,-29.86 0.13,0.44 0.38,1.3 0.5,1.7401 -4.21,16.25 -9.8099,32.1299 -15.9,47.77 l -0.26,0.07 c -6.6699,1.9299 -12.83,5.2799 -19.5299,7.11 -23.11,6.88 -47.0801,10.25 -70.9701,13.0299 -23.1799,2.53 -46.4399,4.3501 -69.74,5.3 -13.2799,1.1801 -26.6399,0.71 -39.9299,1.6801 -25.6801,0.24 -51.37,0.1799 -77.0601,0.03 -50.0499,-1.6899 -100.1799,-3.6899 -149.87,-10.2899 -20.6699,-3.1001 -41.64,-5.8301 -61.38,-12.98 -5.75,-2.5701 -13.37,-5.1801 -14.8099,-12.1301 90.46,8.28 181.23,14.6301 272.12,13.6201 46.34,-0.62 92.79,-3.0601 138.62,-10.29 20.7299,-3.3902 41.3299,-7.9702 61.2199,-14.8002 z"
         id="path451" />
      <path
         style="fill:#877c6a;stroke:#877c6a;stroke-width:0.30000001"
         inkscape:connector-curvature="0"
         d="m 1536.29,982.43 c 5.33,-1.97 10.86,0.88 14.87,4.29 2.38,3.4301 3.83,7.8 3.4399,12 -1.98,4.54 -4.71,9.59 -9.97,10.76 -8.99,3.55 -19.59,-5.07 -18.46,-14.49 0.08,-5.84 4.8101,-10.74 10.1201,-12.56 z"
         id="path453" />
      <path
         style="fill:#877b69;stroke:#877b69;stroke-width:0.30000001"
         inkscape:connector-curvature="0"
         d="m 1500.34,989.43 c 4.9501,-1.05 10.04,1.31 13.05,5.24 3.99,3.54 3.0699,9.52 2.4,14.24 -1.49,2.91 -4.2001,5.1201 -6.77,7.08 -3.11,1.35 -6.7001,1.42 -10.02,1.09 -4.75,-0.86 -7.61,-5.02 -10.52,-8.44 -0.1699,-2.85 -0.49,-5.72 -0.14,-8.56 1.44,-5.5 6.0901,-10.35 12,-10.65 z"
         id="path455" />
      <path
         style="fill:#877b6a;stroke:#877b6a;stroke-width:0.30000001"
         inkscape:connector-curvature="0"
         d="m 1204.33,990.48 c 3.8,-1.07 7.61,0.5 10.86,2.4 3.53,3.79 6.6901,9.01 5.2001,14.39 -1.34,4.39 -4.16,8.96 -8.8101,10.32 -9.2899,4.36 -21.1899,-5.3 -19.12,-15.25 0.99,-5.96 5.93,-10.83 11.87,-11.86 z"
         id="path457" />
      <path
         style="fill:#877c69;stroke:#877c69;stroke-width:0.30000001"
         inkscape:connector-curvature="0"
         d="m 1238.38,992.52 c 3.22,-0.75 6.84,-0.2 9.77,1.31 3.0599,2.92 7.4,5.73 7.3199,10.48 -0.06,4.69 -1.01,10.08 -5.22,12.87 -3.85,3.69 -9.78,3.75 -14.5699,2.19 -3.9,-1.21 -6.13,-4.96 -7.67,-8.46 -2.9401,-7.63 2.24,-17.06 10.37,-18.39 z"
         id="path459" />
      <path
         style="fill:#877b6a;stroke:#877b6a;stroke-width:0.30000001"
         inkscape:connector-curvature="0"
         d="m 1462.27,992.45 c 4.27,-0.91 8.5,1.01 11.9299,3.42 3.9501,2.93 5.0801,8.39 4.49,13.04 -0.7,3.85 -2.58,8.22 -6.75,9.28 -3.7999,1.14 -7.8799,2.9 -11.86,1.66 -5.4099,-2.23 -10.24,-7.61 -9.25,-13.83 -0.14,-6.59 5.1901,-12.26 11.4401,-13.57 z"
         id="path461" />
      <path
         style="fill:#877c69;stroke:#877c69;stroke-width:0.30000001"
         inkscape:connector-curvature="0"
         d="m 1276.28,995.43 c 8.03,-1.31 15.77,5.61 16.0599,13.56 0.35,6.87 -5.0699,13.36 -11.74,14.63 -8.36,1.53 -17.0599,-6.09 -16.47,-14.6 -0.1998,-6.94 5.9302,-11.94 12.1501,-13.59 z"
         id="path463" />
      <path
         style="fill:#877c6a;stroke:#877c6a;stroke-width:0.30000001"
         inkscape:connector-curvature="0"
         d="m 1349.33,996.5 c 3.37,-0.75 7.12,-0.56 10.28,0.93 3.83,2.62 7,6.73 7.15,11.55 0.62,5.49 -2.6901,10.68 -7.16,13.6 -3.6899,1.69 -8.0699,2.05 -11.91,0.73 -3.6499,-2.19 -7.71,-4.87 -8.47,-9.4 -2.22,-7.37 2.27,-16.07 10.11,-17.41 z"
         id="path465" />
      <path
         style="fill:#877c6a;stroke:#877c6a;stroke-width:0.30000001"
         inkscape:connector-curvature="0"
         d="m 1422.36,996.41 c 3.55,-1.0699 7.48,-0.98 11.01,0.22 3.47,2.09 6.76,5.25 7.49,9.43 1.67,6.26 -1.1899,13.97 -7.52,16.35 -5.4399,3.09 -12.22,0.6 -16.64,-3.14 -6.35,-7.02 -3.41,-19.72 5.66,-22.86 z"
         id="path467" />
      <path
         style="fill:#877c6a;stroke:#877c6a;stroke-width:0.30000001"
         inkscape:connector-curvature="0"
         d="m 1311.38,997.37 c 9.55,-3.21 20.95,6.69 17.71,16.64 -0.45,4.13 -3.49,7.2 -6.7999,9.37 -4.77,1.78 -10.54,2.1801 -14.92,-0.79 -1.86,-2.13 -3.99,-4.16 -5.3,-6.67 -0.5599,-3.22 -0.74,-6.66 0.16,-9.83 1.7999,-3.87 4.6899,-7.85 9.1499,-8.72 z"
         id="path469" />
      <path
         style="fill:#877c69;stroke:#877c69;stroke-width:0.30000001"
         inkscape:connector-curvature="0"
         d="m 1386.37,997.37 c 4.24,-1.43 9.16,0.03 12.76,2.46 2.3199,3.31 5.22,6.88 4.99,11.17 -0.03,4.92 -3.38,9.05 -6.87,12.18 -4.4399,2.09 -10.1,2.54 -14.48,0.07 -2.27,-2 -4.52,-4.16 -6.13,-6.7 -1.08,-4.21 -1.96,-9.16 1.0499,-12.82 1.7301,-3.42 5.2701,-5.07 8.6801,-6.36 z"
         id="path471" />
    </g>
  </g>
</svg>
