<?xml version="1.0" encoding="UTF-8" standalone="no"?>
<!-- Created with Inkscape (http://www.inkscape.org/) -->

<svg
   id="svg2"
   sodipodi:docname="Poker.svg"
   inkscape:export-filename="/home/victormc/Imágenes/INKSCAPE/PNGs/NaipeEspadas_RehobothFeb2011.png"
   viewBox="0 0 1056 816"
   inkscape:export-xdpi="90"
   version="1.1"
   inkscape:export-ydpi="90"
   inkscape:version="1.4.3 (0d15f75, 2025-12-25)"
   width="1126.4"
   height="870.40002"
   xmlns:inkscape="http://www.inkscape.org/namespaces/inkscape"
   xmlns:sodipodi="http://sodipodi.sourceforge.net/DTD/sodipodi-0.dtd"
   xmlns="http://www.w3.org/2000/svg"
   xmlns:svg="http://www.w3.org/2000/svg"
   xmlns:rdf="http://www.w3.org/1999/02/22-rdf-syntax-ns#"
   xmlns:cc="http://creativecommons.org/ns#"
   xmlns:dc="http://purl.org/dc/elements/1.1/">
  <defs
     id="defs4">
    <filter
       id="filter5151"
       inkscape:collect="always"
       x="-0.044442457"
       y="-0.031825882"
       width="1.0888849"
       height="1.0636518">
      <feGaussianBlur
         id="feGaussianBlur5153"
         stdDeviation="7.198743"
         inkscape:collect="always" />
    </filter>
  </defs>
  <sodipodi:namedview
     id="base"
     bordercolor="#666666"
     inkscape:pageshadow="2"
     inkscape:guide-bbox="true"
     pagecolor="#ffffff"
     inkscape:window-height="776"
     inkscape:window-maximized="0"
     inkscape:zoom="1.979899"
     inkscape:window-x="0"
     showgrid="false"
     borderopacity="1.0"
     inkscape:current-layer="g3915"
     inkscape:cx="324.29125"
     inkscape:cy="691.47306"
     showguides="true"
     inkscape:window-y="30"
     inkscape:window-width="1440"
     inkscape:pageopacity="0.0"
     inkscape:document-units="px"
     inkscape:showpageshadow="2"
     inkscape:pagecheckerboard="0"
     inkscape:deskcolor="#d1d1d1"
     inkscape:rotation="4" />
  <g
     id="layer2"
     inkscape:label="Espadas"
     inkscape:groupmode="layer">
    <g
       id="g3206"
       inkscape:export-ydpi="90"
       inkscape:export-xdpi="90"
       inkscape:export-filename="/home/victormc/Imágenes/INKSCAPE/NaipeEspadas_RehobothFeb2011.png"
       transform="translate(-28.284,12.122)">
      <g
         id="g5177"
         transform="matrix(1.3435,0,0,1.3435,158.36,-205.11)">
        <rect
           id="rect5175"
           ry="30"
           style="opacity:0.7;fill:#808080;stroke:#808080;filter:url(#filter5151)"
           rx="30"
           transform="matrix(0.47804,-0.11813,0.11813,0.47804,217.7,51.133)"
           height="558.57001"
           width="400"
           y="254.60001"
           x="-437.45001" />
        <g
           id="g4117"
           transform="matrix(0.49242,0,0,0.49242,12.758,127.87)">
          <rect
             id="rect4119"
             style="fill:#ffffff;stroke:#000000"
             transform="rotate(-13.628)"
             rx="30"
             ry="30"
             height="558.57001"
             width="400"
             y="181.49001"
             x="33.479" />
          <g
             id="g4121">
            <path
               id="path4123"
               d="m 291.37,238.57 c 0,0 -25.583,33.14 -26.453,52.286 -0.37346,8.2173 3.0306,16.937 9.2985,22.778 5.8702,5.4706 14.729,5.8067 20.34,1.0258 4.2448,-3.617 7.9859,-13.871 7.9859,-13.871 0,0 3.7586,11.518 3.2895,17.274 -0.31724,3.8924 -4.0399,10.593 -4.0399,10.593 l 11.125,-2.697 11.125,-2.697 c 0,0 -7.2699,-3.9342 -9.5652,-7.4641 -3.1092,-4.7816 -4.5423,-16.801 -4.5423,-16.801 0,0 6.5631,5.951 11.807,8.236 5.7982,2.5264 16.333,-2.6033 19.582,-8.9102 3.8845,-7.5407 1.3526,-17.338 -2.7782,-24.462 -9.6748,-16.686 -47.174,-35.291 -47.174,-35.291 z"
               sodipodi:nodetypes="casscacccacssac"
               style="fill:#000000;stroke:#000000;stroke-width:0.94122px"
               inkscape:connector-curvature="0" />
            <path
               id="path4125"
               sodipodi:nodetypes="casscacccacssac"
               style="fill:#000000;stroke:#000000;stroke-width:0.94122px"
               inkscape:connector-curvature="0"
               d="m 191.65,209.24 c 0,0 -25.583,33.14 -26.453,52.286 -0.37347,8.2173 3.0306,16.937 9.2985,22.778 5.8702,5.4706 14.729,5.8067 20.34,1.0258 4.2448,-3.617 7.9859,-13.871 7.9859,-13.871 0,0 3.7586,11.518 3.2895,17.274 -0.31724,3.8924 -4.0399,10.593 -4.0399,10.593 l 11.125,-2.697 11.125,-2.697 c 0,0 -7.2699,-3.9342 -9.5652,-7.4641 -3.1092,-4.7816 -4.5423,-16.801 -4.5423,-16.801 0,0 6.5631,5.951 11.807,8.236 5.7982,2.5264 16.333,-2.6033 19.582,-8.9102 3.8845,-7.5407 1.3526,-17.338 -2.7782,-24.462 -9.6748,-16.686 -47.174,-35.291 -47.174,-35.291 z" />
            <path
               id="path4127"
               d="m 368.53,166.36 c 0,0 -25.583,33.14 -26.453,52.286 -0.37346,8.2173 3.0306,16.937 9.2985,22.778 5.8702,5.4706 14.729,5.8067 20.34,1.0258 4.2448,-3.617 7.9859,-13.871 7.9859,-13.871 0,0 3.7586,11.518 3.2895,17.274 -0.31723,3.8924 -4.0399,10.593 -4.0399,10.593 l 11.125,-2.697 11.125,-2.697 c 0,0 -7.2699,-3.9342 -9.5652,-7.4641 -3.1092,-4.7815 -4.5423,-16.801 -4.5423,-16.801 0,0 6.5631,5.951 11.807,8.236 5.7982,2.5264 16.333,-2.6033 19.582,-8.9102 3.8845,-7.5407 1.3526,-17.338 -2.7782,-24.462 -9.6748,-16.686 -47.174,-35.291 -47.174,-35.291 z"
               sodipodi:nodetypes="casscacccacssac"
               style="fill:#000000;stroke:#000000;stroke-width:0.94122px"
               inkscape:connector-curvature="0" />
            <path
               id="path4129"
               d="m 217.1,314.2 c 0,0 -25.583,33.14 -26.453,52.286 -0.37346,8.2173 3.0306,16.937 9.2985,22.778 5.8702,5.4706 14.729,5.8067 20.34,1.0258 4.2448,-3.617 7.9859,-13.871 7.9859,-13.871 0,0 3.7586,11.518 3.2895,17.274 -0.31723,3.8924 -4.0399,10.593 -4.0399,10.593 l 11.125,-2.697 11.125,-2.697 c 0,0 -7.2699,-3.9342 -9.5652,-7.4641 -3.1092,-4.7816 -4.5423,-16.801 -4.5423,-16.801 0,0 6.5631,5.951 11.807,8.236 5.7982,2.5264 16.333,-2.6033 19.582,-8.9102 3.8845,-7.5407 1.3526,-17.338 -2.7782,-24.462 -9.6748,-16.686 -47.174,-35.291 -47.174,-35.291 z"
               sodipodi:nodetypes="casscacccacssac"
               style="fill:#000000;stroke:#000000;stroke-width:0.94122px"
               inkscape:connector-curvature="0" />
            <path
               id="path4131"
               sodipodi:nodetypes="casscacccacssac"
               style="fill:#000000;stroke:#000000;stroke-width:0.94122px"
               inkscape:connector-curvature="0"
               d="m 393.97,271.32 c 0,0 -25.583,33.14 -26.453,52.286 -0.37347,8.2173 3.0306,16.937 9.2985,22.778 5.8702,5.4706 14.729,5.8067 20.34,1.0258 4.2448,-3.617 7.9859,-13.871 7.9859,-13.871 0,0 3.7586,11.518 3.2895,17.274 -0.31724,3.8924 -4.0399,10.593 -4.0399,10.593 l 11.125,-2.697 11.125,-2.697 c 0,0 -7.2699,-3.9342 -9.5652,-7.4641 -3.1092,-4.7815 -4.5423,-16.801 -4.5423,-16.801 0,0 6.5631,5.951 11.807,8.236 5.7982,2.5264 16.333,-2.6033 19.582,-8.9102 3.8844,-7.5407 1.3526,-17.338 -2.7782,-24.462 -9.6748,-16.686 -47.174,-35.291 -47.174,-35.291 z" />
            <path
               id="path4133"
               d="m 139.14,264.41 c 0,0 -8.96,11.607 -9.2647,18.312 -0.1308,2.8779 1.0614,5.9318 3.2566,7.9776 2.0559,1.9159 5.1586,2.0337 7.1236,0.35927 1.4867,-1.2668 2.7969,-4.8579 2.7969,-4.8579 0,0 1.3164,4.034 1.1521,6.0499 -0.11111,1.3632 -1.4149,3.7099 -1.4149,3.7099 l 3.8962,-0.94456 3.8962,-0.94456 c 0,0 -2.5461,-1.3779 -3.35,-2.6141 -1.0889,-1.6746 -1.5908,-5.8841 -1.5908,-5.8841 0,0 2.2986,2.0842 4.1353,2.8845 2.0307,0.88481 5.7203,-0.91173 6.8582,-3.1206 1.3605,-2.641 0.47371,-6.0722 -0.973,-8.5674 -3.3884,-5.844 -16.522,-12.36 -16.522,-12.36 z"
               sodipodi:nodetypes="casscacccacssac"
               style="fill:#000000;stroke:#000000;stroke-width:0.32964px"
               inkscape:connector-curvature="0" />
            <text
               id="text4135"
               style="line-height:0%;font-family:sans-serif;letter-spacing:0px;word-spacing:0px;fill:#000000"
               transform="matrix(0.71453,-0.17322,0.32046,1.3218,0,0)"
               xml:space="preserve"
               y="198.20413"
               x="57.194176">               <tspan
   id="tspan4137"
   y="198.20413"
   x="57.194176"
   sodipodi:role="line"
   style="font-size:54.405px;line-height:1.25;font-family:sans-serif">10</tspan>            </text>
            <path
               id="path4139"
               sodipodi:nodetypes="casscacccacssac"
               style="fill:#000000;stroke:#000000;stroke-width:0.94122px"
               inkscape:connector-curvature="0"
               d="m 366.02,542.16 c 0,0 25.583,-33.14 26.453,-52.286 0.37347,-8.2173 -3.0306,-16.937 -9.2985,-22.778 -5.8702,-5.4706 -14.729,-5.8067 -20.34,-1.0258 -4.2448,3.617 -7.9859,13.871 -7.9859,13.871 0,0 -3.7586,-11.518 -3.2895,-17.274 0.31724,-3.8924 4.0399,-10.593 4.0399,-10.593 l -11.125,2.697 -11.125,2.697 c 0,0 7.2699,3.9342 9.5652,7.4641 3.1092,4.7816 4.5423,16.801 4.5423,16.801 0,0 -6.5631,-5.951 -11.807,-8.236 -5.7982,-2.5264 -16.333,2.6033 -19.582,8.9102 -3.8844,7.5407 -1.3526,17.338 2.7782,24.462 9.6748,16.686 47.174,35.291 47.174,35.291 z" />
            <path
               id="path4141"
               d="m 465.74,571.5 c 0,0 25.583,-33.14 26.453,-52.286 0.37347,-8.2173 -3.0306,-16.937 -9.2985,-22.778 -5.8702,-5.4706 -14.729,-5.8067 -20.34,-1.0258 -4.2448,3.617 -7.9859,13.871 -7.9859,13.871 0,0 -3.7586,-11.518 -3.2894,-17.274 0.31723,-3.8924 4.0399,-10.593 4.0399,-10.593 l -11.125,2.697 -11.125,2.697 c 0,0 7.2699,3.9342 9.5652,7.4641 3.1092,4.7816 4.5423,16.801 4.5423,16.801 0,0 -6.5631,-5.951 -11.807,-8.236 -5.7982,-2.5264 -16.333,2.6032 -19.582,8.9102 -3.8845,7.5407 -1.3526,17.338 2.7782,24.462 9.6748,16.686 47.174,35.291 47.174,35.291 z"
               sodipodi:nodetypes="casscacccacssac"
               style="fill:#000000;stroke:#000000;stroke-width:0.94122px"
               inkscape:connector-curvature="0" />
            <path
               id="path4143"
               sodipodi:nodetypes="casscacccacssac"
               style="fill:#000000;stroke:#000000;stroke-width:0.94122px"
               inkscape:connector-curvature="0"
               d="m 288.86,614.38 c 0,0 25.583,-33.14 26.453,-52.286 0.37346,-8.2173 -3.0306,-16.937 -9.2985,-22.778 -5.8702,-5.4706 -14.729,-5.8067 -20.34,-1.0258 -4.2448,3.617 -7.9859,13.871 -7.9859,13.871 0,0 -3.7586,-11.518 -3.2895,-17.274 0.31723,-3.8924 4.0399,-10.593 4.0399,-10.593 l -11.125,2.697 -11.125,2.697 c 0,0 7.2699,3.9342 9.5652,7.4641 3.1092,4.7816 4.5423,16.801 4.5423,16.801 0,0 -6.5631,-5.951 -11.807,-8.236 -5.7982,-2.5264 -16.333,2.6033 -19.582,8.9102 -3.8845,7.5407 -1.3526,17.338 2.7782,24.462 9.6748,16.686 47.174,35.291 47.174,35.291 z" />
            <path
               id="path4145"
               sodipodi:nodetypes="casscacccacssac"
               style="fill:#000000;stroke:#000000;stroke-width:0.94122px"
               inkscape:connector-curvature="0"
               d="m 440.29,466.54 c 0,0 25.583,-33.14 26.453,-52.286 0.37347,-8.2173 -3.0306,-16.937 -9.2985,-22.778 -5.8702,-5.4706 -14.729,-5.8067 -20.34,-1.0258 -4.2448,3.617 -7.9859,13.871 -7.9859,13.871 0,0 -3.7586,-11.518 -3.2895,-17.274 0.31724,-3.8924 4.0399,-10.593 4.0399,-10.593 l -11.125,2.697 -11.125,2.697 c 0,0 7.2699,3.9342 9.5652,7.4641 3.1092,4.7816 4.5423,16.801 4.5423,16.801 0,0 -6.5631,-5.951 -11.807,-8.236 -5.7982,-2.5264 -16.333,2.6032 -19.582,8.9102 -3.8845,7.5407 -1.3526,17.338 2.7782,24.462 9.6748,16.686 47.174,35.291 47.174,35.291 z" />
            <path
               id="path4147"
               d="m 263.41,509.42 c 0,0 25.583,-33.14 26.453,-52.286 0.37346,-8.2173 -3.0306,-16.937 -9.2985,-22.778 -5.8702,-5.4706 -14.729,-5.8067 -20.34,-1.0258 -4.2448,3.617 -7.9859,13.871 -7.9859,13.871 0,0 -3.7586,-11.518 -3.2895,-17.274 0.31723,-3.8924 4.0399,-10.593 4.0399,-10.593 l -11.125,2.697 -11.125,2.697 c 0,0 7.2699,3.9342 9.5652,7.4641 3.1092,4.7816 4.5423,16.801 4.5423,16.801 0,0 -6.5631,-5.951 -11.807,-8.236 -5.7982,-2.5264 -16.333,2.6033 -19.582,8.9102 -3.8845,7.5407 -1.3526,17.338 2.7782,24.462 9.6748,16.686 47.174,35.291 47.174,35.291 z"
               sodipodi:nodetypes="casscacccacssac"
               style="fill:#000000;stroke:#000000;stroke-width:0.94122px"
               inkscape:connector-curvature="0" />
            <path
               id="path4149"
               sodipodi:nodetypes="casscacccacssac"
               style="fill:#000000;stroke:#000000;stroke-width:0.32964px"
               inkscape:connector-curvature="0"
               d="m 518.25,516.33 c 0,0 8.96,-11.607 9.2647,-18.312 0.13081,-2.8779 -1.0614,-5.9318 -3.2566,-7.9775 -2.0559,-1.916 -5.1586,-2.0337 -7.1236,-0.35927 -1.4867,1.2668 -2.7969,4.8579 -2.7969,4.8579 0,0 -1.3164,-4.034 -1.1521,-6.0499 0.11111,-1.3632 1.4149,-3.7099 1.4149,-3.7099 l -3.8962,0.94456 -3.8962,0.94456 c 0,0 2.5461,1.3779 3.35,2.6141 1.0889,1.6746 1.5908,5.8841 1.5908,5.8841 0,0 -2.2986,-2.0842 -4.1353,-2.8845 -2.0307,-0.88481 -5.7203,0.91173 -6.8582,3.1206 -1.3604,2.641 -0.47371,6.0722 0.973,8.5674 3.3884,5.844 16.522,12.36 16.522,12.36 z" />
            <text
               id="text4151"
               style="line-height:0%;font-family:sans-serif;letter-spacing:0px;word-spacing:0px;fill:#000000"
               xml:space="preserve"
               transform="matrix(-0.71453,0.17322,-0.32046,-1.3218,0,0)"
               y="-473.52795"
               x="-561.57343">               <tspan
   id="tspan4153"
   sodipodi:role="line"
   x="-561.57343"
   y="-473.52795"
   style="font-size:54.405px;line-height:1.25;font-family:sans-serif">10</tspan>            </text>
          </g>
        </g>
        <rect
           id="rect5173"
           style="opacity:0.7;fill:#808080;stroke:#808080;filter:url(#filter5151)"
           transform="matrix(0.48877,-0.059838,0.059838,0.48877,306.52,55.306)"
           rx="30"
           ry="30"
           height="558.57001"
           width="400"
           y="254.60001"
           x="-437.45001" />
        <g
           id="g4185"
           transform="matrix(0.49242,0,0,0.49242,23.601,142.59)">
          <g
             id="g4043"
             transform="translate(-299.01,56.772)">
            <rect
               id="rect3011"
               style="fill:#ffffff;stroke:#000000"
               transform="rotate(-5.455)"
               rx="30"
               ry="30"
               height="558.57001"
               width="400"
               y="89.183998"
               x="489.54999" />
            <g
               id="g4026"
               style="fill:#ff0000;stroke:#ff0000">
              <path
                 id="path3015"
                 d="m 605.19,99.111 c 0,0 -30.034,29.167 -33.617,47.995 -1.5378,8.0808 0.59218,17.196 5.9661,23.869 5.033,6.2495 13.754,7.8415 19.988,3.9068 4.7159,-2.9769 9.8765,-12.595 9.8765,-12.595 0,0 2.083,11.936 0.80049,17.566 -0.86734,3.8078 -5.5047,9.9108 -5.5047,9.9108 l 11.395,-1.0882 11.395,-1.0882 c 0,0 -6.6368,-4.9277 -8.407,-8.748 -2.3979,-5.175 -2.1079,-17.276 -2.1079,-17.276 0,0 5.6505,6.8235 10.517,9.8308 5.3802,3.325 16.537,-0.25501 20.65,-6.0361 4.9169,-6.9119 3.8035,-16.969 0.7274,-24.609 -7.2045,-17.892 -41.678,-41.639 -41.678,-41.639 z"
                 sodipodi:nodetypes="casscacccacssac"
                 style="fill:#ff0000;stroke:#ff0000;stroke-width:0.94122px"
                 inkscape:connector-curvature="0" />
              <path
                 id="path3017"
                 sodipodi:nodetypes="casscacccacssac"
                 style="fill:#ff0000;stroke:#ff0000;stroke-width:0.94122px"
                 inkscape:connector-curvature="0"
                 d="m 786.37,81.81 c 0,0 -30.034,29.167 -33.617,47.995 -1.5378,8.0808 0.59218,17.196 5.9661,23.869 5.033,6.2495 13.754,7.8415 19.988,3.9068 4.7159,-2.9769 9.8765,-12.595 9.8765,-12.595 0,0 2.083,11.936 0.80049,17.566 -0.86734,3.8078 -5.5047,9.9108 -5.5047,9.9108 l 11.395,-1.0882 11.395,-1.0882 c 0,0 -6.6368,-4.9277 -8.407,-8.748 -2.3979,-5.175 -2.1079,-17.276 -2.1079,-17.276 0,0 5.6505,6.8235 10.517,9.8308 5.3802,3.325 16.537,-0.25501 20.65,-6.0361 4.9169,-6.9119 3.8035,-16.969 0.72739,-24.609 -7.2045,-17.892 -41.678,-41.639 -41.678,-41.639 z" />
              <path
                 id="path3019"
                 sodipodi:nodetypes="casscacccacssac"
                 style="fill:#ff0000;stroke:#ff0000;stroke-width:0.94122px"
                 inkscape:connector-curvature="0"
                 d="m 615.46,206.62 c 0,0 -30.034,29.167 -33.617,47.995 -1.5378,8.0808 0.59217,17.196 5.9661,23.869 5.033,6.2495 13.754,7.8415 19.988,3.9068 4.7159,-2.9769 9.8765,-12.595 9.8765,-12.595 0,0 2.083,11.936 0.80048,17.566 -0.86733,3.8078 -5.5047,9.9108 -5.5047,9.9108 l 11.395,-1.0882 11.395,-1.0882 c 0,0 -6.6368,-4.9277 -8.407,-8.748 -2.3979,-5.175 -2.1079,-17.276 -2.1079,-17.276 0,0 5.6505,6.8235 10.517,9.8308 5.3802,3.325 16.537,-0.25501 20.65,-6.0361 4.9169,-6.9119 3.8035,-16.969 0.7274,-24.609 -7.2045,-17.892 -41.678,-41.639 -41.678,-41.639 z" />
              <path
                 id="path3021"
                 d="m 796.64,189.32 c 0,0 -30.034,29.167 -33.617,47.995 -1.5378,8.0808 0.59218,17.196 5.9661,23.869 5.033,6.2495 13.754,7.8415 19.988,3.9068 4.7159,-2.9769 9.8765,-12.595 9.8765,-12.595 0,0 2.083,11.936 0.80048,17.566 -0.86733,3.8078 -5.5047,9.9108 -5.5047,9.9108 l 11.395,-1.0882 11.395,-1.0882 c 0,0 -6.6368,-4.9277 -8.407,-8.748 -2.3979,-5.175 -2.1079,-17.276 -2.1079,-17.276 0,0 5.6505,6.8235 10.517,9.8308 5.3802,3.325 16.537,-0.25501 20.65,-6.0361 4.9169,-6.9119 3.8035,-16.969 0.7274,-24.609 -7.2045,-17.892 -41.678,-41.639 -41.678,-41.639 z"
                 sodipodi:nodetypes="casscacccacssac"
                 style="fill:#ff0000;stroke:#ff0000;stroke-width:0.94122px"
                 inkscape:connector-curvature="0" />
              <path
                 id="path3023"
                 sodipodi:nodetypes="casscacccacssac"
                 style="fill:#ff0000;stroke:#ff0000;stroke-width:0.32964px"
                 inkscape:connector-curvature="0"
                 d="m 545.38,146.25 c 0,0 -10.519,10.215 -11.774,16.809 -0.53858,2.8301 0.20739,6.0224 2.0895,8.3595 1.7627,2.1887 4.8172,2.7463 7.0002,1.3683 1.6516,-1.0426 3.459,-4.411 3.459,-4.411 0,0 0.72953,4.1802 0.28035,6.1522 -0.30377,1.3336 -1.9279,3.471 -1.9279,3.471 l 3.9909,-0.38111 3.9909,-0.38111 c 0,0 -2.3244,-1.7258 -2.9444,-3.0638 -0.83982,-1.8124 -0.73825,-6.0504 -0.73825,-6.0504 0,0 1.979,2.3898 3.6832,3.443 1.8843,1.1645 5.7918,-0.0893 7.2322,-2.114 1.7221,-2.4207 1.3321,-5.9432 0.25475,-8.6187 -2.5232,-6.2663 -14.597,-14.583 -14.597,-14.583 z" />
              <text
                 id="text3025"
                 style="line-height:0%;font-family:sans-serif;letter-spacing:0px;word-spacing:0px;fill:#ff0000;stroke:#ff0000"
                 xml:space="preserve"
                 transform="matrix(0.7319,-0.069893,0.1293,1.354,0,0)"
                 y="130.33638"
                 x="704.71802">                 <tspan
   id="tspan3027"
   sodipodi:role="line"
   x="704.71802"
   y="130.33638"
   style="font-size:54.405px;line-height:1.25;font-family:sans-serif">9</tspan>              </text>
              <path
                 id="path3031"
                 sodipodi:nodetypes="casscacccacssac"
                 style="fill:#ff0000;stroke:#ff0000;stroke-width:0.94122px"
                 inkscape:connector-curvature="0"
                 d="m 825,496.65 c 0,0 30.034,-29.167 33.617,-47.995 1.5378,-8.0808 -0.59217,-17.196 -5.9661,-23.869 -5.033,-6.2495 -13.754,-7.8415 -19.988,-3.9068 -4.7159,2.9769 -9.8765,12.595 -9.8765,12.595 0,0 -2.083,-11.936 -0.80048,-17.566 0.86733,-3.8078 5.5047,-9.9108 5.5047,-9.9108 l -11.395,1.0882 -11.395,1.0882 c 0,0 6.6368,4.9277 8.407,8.748 2.3979,5.175 2.1079,17.276 2.1079,17.276 0,0 -5.6505,-6.8235 -10.517,-9.8308 -5.3802,-3.325 -16.537,0.25501 -20.65,6.0361 -4.9169,6.9119 -3.8035,16.969 -0.7274,24.609 7.2045,17.892 41.678,41.639 41.678,41.639 z" />
              <path
                 id="path3033"
                 d="m 643.83,513.95 c 0,0 30.034,-29.167 33.617,-47.995 1.5378,-8.0808 -0.59217,-17.196 -5.9661,-23.869 -5.033,-6.2495 -13.754,-7.8415 -19.988,-3.9068 -4.7159,2.9769 -9.8765,12.595 -9.8765,12.595 0,0 -2.083,-11.936 -0.80048,-17.566 0.86733,-3.8078 5.5047,-9.9108 5.5047,-9.9108 l -11.395,1.0882 -11.395,1.0882 c 0,0 6.6368,4.9277 8.407,8.748 2.3979,5.175 2.1079,17.276 2.1079,17.276 0,0 -5.6505,-6.8235 -10.517,-9.8308 -5.3802,-3.325 -16.537,0.25501 -20.65,6.0361 -4.9169,6.9119 -3.8035,16.969 -0.7274,24.609 7.2045,17.892 41.678,41.639 41.678,41.639 z"
                 sodipodi:nodetypes="casscacccacssac"
                 style="fill:#ff0000;stroke:#ff0000;stroke-width:0.94122px"
                 inkscape:connector-curvature="0" />
              <path
                 id="path3035"
                 d="m 814.73,389.14 c 0,0 30.034,-29.167 33.617,-47.995 1.5378,-8.0808 -0.59218,-17.196 -5.9661,-23.869 -5.033,-6.2495 -13.754,-7.8415 -19.988,-3.9068 -4.7159,2.9769 -9.8765,12.595 -9.8765,12.595 0,0 -2.083,-11.936 -0.80049,-17.566 0.86734,-3.8078 5.5047,-9.9108 5.5047,-9.9108 l -11.395,1.0882 -11.395,1.0882 c 0,0 6.6368,4.9277 8.407,8.748 2.3979,5.175 2.1079,17.276 2.1079,17.276 0,0 -5.6505,-6.8235 -10.517,-9.8308 -5.3802,-3.325 -16.537,0.25501 -20.65,6.0361 -4.9169,6.9119 -3.8035,16.969 -0.7274,24.609 7.2045,17.892 41.678,41.639 41.678,41.639 z"
                 sodipodi:nodetypes="casscacccacssac"
                 style="fill:#ff0000;stroke:#ff0000;stroke-width:0.94122px"
                 inkscape:connector-curvature="0" />
              <path
                 id="path3037"
                 sodipodi:nodetypes="casscacccacssac"
                 style="fill:#ff0000;stroke:#ff0000;stroke-width:0.94122px"
                 inkscape:connector-curvature="0"
                 d="m 633.56,406.44 c 0,0 30.034,-29.167 33.617,-47.995 1.5378,-8.0808 -0.59218,-17.196 -5.9661,-23.869 -5.033,-6.2495 -13.754,-7.8415 -19.988,-3.9068 -4.7159,2.9769 -9.8765,12.595 -9.8765,12.595 0,0 -2.083,-11.936 -0.80049,-17.566 0.86734,-3.8078 5.5047,-9.9108 5.5047,-9.9108 l -11.395,1.0882 -11.395,1.0882 c 0,0 6.6368,4.9277 8.407,8.748 2.3979,5.175 2.1079,17.276 2.1079,17.276 0,0 -5.6505,-6.8235 -10.517,-9.8308 -5.3802,-3.325 -16.537,0.25501 -20.65,6.0361 -4.9169,6.9119 -3.8035,16.969 -0.72739,24.609 7.2045,17.892 41.678,41.639 41.678,41.639 z" />
              <path
                 id="path3039"
                 d="m 884.82,449.51 c 0,0 10.519,-10.215 11.774,-16.809 0.53858,-2.8301 -0.20739,-6.0224 -2.0895,-8.3595 -1.7627,-2.1887 -4.8172,-2.7463 -7.0002,-1.3683 -1.6516,1.0426 -3.459,4.411 -3.459,4.411 0,0 -0.72953,-4.1802 -0.28036,-6.1522 0.30377,-1.3336 1.9279,-3.4711 1.9279,-3.4711 l -3.9909,0.38112 -3.9909,0.38111 c 0,0 2.3244,1.7258 2.9444,3.0638 0.83982,1.8124 0.73825,6.0505 0.73825,6.0505 0,0 -1.979,-2.3898 -3.6832,-3.443 -1.8843,-1.1645 -5.7918,0.0893 -7.2322,2.114 -1.722,2.4207 -1.3321,5.9432 -0.25475,8.6187 2.5232,6.2663 14.597,14.583 14.597,14.583 z"
                 sodipodi:nodetypes="casscacccacssac"
                 style="fill:#ff0000;stroke:#ff0000;stroke-width:0.32964px"
                 inkscape:connector-curvature="0" />
              <text
                 id="text3041"
                 style="line-height:0%;font-family:sans-serif;letter-spacing:0px;word-spacing:0px;fill:#ff0000;stroke:#ff0000"
                 transform="matrix(-0.7319,0.069893,-0.1293,-1.354,0,0)"
                 xml:space="preserve"
                 y="-405.66022"
                 x="-1154.6921">                 <tspan
   id="tspan3043"
   y="-405.66022"
   x="-1154.6921"
   sodipodi:role="line"
   style="font-size:54.405px;line-height:1.25;font-family:sans-serif">9</tspan>              </text>
              <path
                 id="path3013"
                 sodipodi:nodetypes="casscacccacssac"
                 style="fill:#ff0000;stroke:#ff0000;stroke-width:0.94122px"
                 inkscape:connector-curvature="0"
                 d="m 710.69,257.07 c 0,0 -30.034,29.167 -33.617,47.995 -1.5378,8.0808 0.59217,17.196 5.9661,23.869 5.033,6.2495 13.754,7.8415 19.988,3.9068 4.7159,-2.9769 9.8765,-12.595 9.8765,-12.595 0,0 2.083,11.936 0.80048,17.566 -0.86733,3.8078 -5.5047,9.9108 -5.5047,9.9108 l 11.395,-1.0882 11.395,-1.0882 c 0,0 -6.6368,-4.9277 -8.407,-8.748 -2.3979,-5.175 -2.1079,-17.276 -2.1079,-17.276 0,0 5.6505,6.8235 10.517,9.8308 5.3802,3.325 16.537,-0.25501 20.65,-6.0361 4.9169,-6.9119 3.8035,-16.969 0.72739,-24.609 -7.2045,-17.892 -41.678,-41.639 -41.678,-41.639 z" />
            </g>
          </g>
        </g>
        <rect
           id="rect5171"
           ry="30"
           style="opacity:0.7;fill:#808080;stroke:#808080;filter:url(#filter5151)"
           rx="30"
           transform="matrix(0.49242,7.4102e-4,-7.4102e-4,0.49242,379.13,67.742)"
           height="558.57001"
           width="400"
           y="254.60001"
           x="-437.45001" />
        <g
           id="g4309"
           transform="matrix(0.49242,0,0,0.49242,23.601,142.59)">
          <rect
             id="rect4209"
             style="fill:#ffffff;stroke:#000000"
             transform="rotate(0.086224)"
             rx="30"
             ry="30"
             height="558.57001"
             width="400"
             y="84.123001"
             x="301.76999" />
          <g
             id="g4293"
             transform="matrix(0.9999,-0.013944,0.013944,0.9999,0.92094,6.9415)">
            <path
               id="path4213"
               d="m 407.99,150.42 c 0,0 -33.072,25.672 -38.712,43.989 -2.4208,7.8615 -1.3104,17.156 3.2938,24.382 4.3121,6.7671 12.804,9.3125 19.434,6.0902 5.0158,-2.4379 11.207,-11.427 11.207,-11.427 0,0 0.75222,12.093 -1.1443,17.547 -1.2825,3.6887 -6.5655,9.2424 -6.5655,9.2424 l 11.446,0.17684 11.446,0.17684 c 0,0 -6.052,-5.6304 -7.3896,-9.6229 -1.8118,-5.4081 -0.18724,-17.403 -0.18724,-17.403 0,0 4.8624,7.4057 9.3668,10.932 4.9801,3.8988 16.464,1.5728 21.19,-3.7188 5.6502,-6.3266 5.6541,-16.446 3.4405,-24.378 -5.1846,-18.578 -36.825,-45.986 -36.825,-45.986 z"
               sodipodi:nodetypes="casscacccacssac"
               style="fill:#000000;stroke:#000000;stroke-width:0.94122px"
               inkscape:connector-curvature="0" />
            <path
               id="path4215"
               sodipodi:nodetypes="casscacccacssac"
               style="fill:#000000;stroke:#000000;stroke-width:0.94122px"
               inkscape:connector-curvature="0"
               d="m 589.97,153.23 c 0,0 -33.072,25.672 -38.712,43.989 -2.4208,7.8615 -1.3104,17.156 3.2938,24.382 4.312,6.7671 12.804,9.3125 19.434,6.0902 5.0158,-2.4379 11.207,-11.427 11.207,-11.427 0,0 0.75222,12.093 -1.1443,17.547 -1.2825,3.6887 -6.5655,9.2424 -6.5655,9.2424 l 11.446,0.17684 11.446,0.17684 c 0,0 -6.052,-5.6305 -7.3896,-9.6229 -1.8118,-5.4081 -0.18725,-17.403 -0.18725,-17.403 0,0 4.8624,7.4057 9.3668,10.932 4.9801,3.8988 16.464,1.5728 21.19,-3.7188 5.6502,-6.3266 5.6542,-16.446 3.4405,-24.378 -5.1846,-18.578 -36.825,-45.986 -36.825,-45.986 z" />
            <path
               id="path4217"
               sodipodi:nodetypes="casscacccacssac"
               style="fill:#000000;stroke:#000000;stroke-width:0.94122px"
               inkscape:connector-curvature="0"
               d="m 406.33,258.41 c 0,0 -33.072,25.672 -38.712,43.989 -2.4208,7.8615 -1.3104,17.156 3.2938,24.382 4.312,6.767 12.804,9.3125 19.434,6.0901 5.0158,-2.4379 11.207,-11.427 11.207,-11.427 0,0 0.75222,12.093 -1.1443,17.547 -1.2825,3.6887 -6.5655,9.2424 -6.5655,9.2424 l 11.446,0.17684 11.446,0.17684 c 0,0 -6.052,-5.6304 -7.3896,-9.6229 -1.8118,-5.4081 -0.18726,-17.403 -0.18726,-17.403 0,0 4.8624,7.4057 9.3668,10.932 4.9801,3.8988 16.464,1.5728 21.19,-3.7188 5.6502,-6.3266 5.6542,-16.446 3.4405,-24.378 -5.1846,-18.578 -36.825,-45.986 -36.825,-45.986 z" />
            <path
               id="path4219"
               d="m 588.3,261.22 c 0,0 -33.072,25.672 -38.712,43.989 -2.4208,7.8615 -1.3104,17.156 3.2938,24.382 4.3121,6.767 12.804,9.3125 19.434,6.0901 5.0158,-2.4379 11.207,-11.427 11.207,-11.427 0,0 0.75221,12.093 -1.1443,17.547 -1.2825,3.6888 -6.5655,9.2424 -6.5655,9.2424 l 11.446,0.17684 11.446,0.17684 c 0,0 -6.052,-5.6305 -7.3896,-9.6229 -1.8118,-5.4081 -0.18724,-17.403 -0.18724,-17.403 0,0 4.8624,7.4057 9.3668,10.932 4.9801,3.8988 16.464,1.5728 21.19,-3.7188 5.6502,-6.3266 5.6541,-16.446 3.4405,-24.378 -5.1846,-18.578 -36.825,-45.986 -36.825,-45.986 z"
               sodipodi:nodetypes="casscacccacssac"
               style="fill:#000000;stroke:#000000;stroke-width:0.94122px"
               inkscape:connector-curvature="0" />
            <path
               id="path4221"
               sodipodi:nodetypes="casscacccacssac"
               style="fill:#000000;stroke:#000000;stroke-width:0.32964px"
               inkscape:connector-curvature="0"
               d="m 343.34,190.67 c 0,0 -11.583,8.991 -13.558,15.406 -0.84782,2.7533 -0.45894,6.0085 1.1536,8.5391 1.5102,2.37 4.4844,3.2615 6.8063,2.133 1.7567,-0.85382 3.925,-4.002 3.925,-4.002 0,0 0.26344,4.2352 -0.40076,6.1455 -0.44918,1.2919 -2.2994,3.2369 -2.2994,3.2369 l 4.0086,0.0619 4.0086,0.0619 c 0,0 -2.1196,-1.972 -2.588,-3.3702 -0.63454,-1.8941 -0.0656,-6.095 -0.0656,-6.095 0,0 1.7029,2.5937 3.2805,3.8287 1.7442,1.3655 5.7663,0.55085 7.4214,-1.3024 1.9788,-2.2158 1.9802,-5.7597 1.205,-8.5378 -1.8158,-6.5067 -12.897,-16.106 -12.897,-16.106 z" />
            <text
               id="text4223"
               style="line-height:0%;font-family:sans-serif;letter-spacing:0px;word-spacing:0px;fill:#000000;stroke:#000000"
               xml:space="preserve"
               transform="matrix(0.73514,0.011358,-0.021012,1.36,0,0)"
               y="121.4451"
               x="456.13779">               <tspan
   id="tspan4225"
   sodipodi:role="line"
   x="456.13779"
   style="font-size:54.405px;line-height:1.25;font-family:sans-serif;fill:#000000;stroke:#000000"
   y="121.4451">8</tspan>            </text>
            <path
               id="path4227"
               sodipodi:nodetypes="casscacccacssac"
               style="fill:#000000;stroke:#000000;stroke-width:0.94122px"
               inkscape:connector-curvature="0"
               d="m 582.56,569.8 c 0,0 33.072,-25.672 38.712,-43.989 2.4208,-7.8615 1.3104,-17.156 -3.2938,-24.382 -4.3121,-6.767 -12.804,-9.3125 -19.434,-6.0901 -5.0158,2.4379 -11.207,11.427 -11.207,11.427 0,0 -0.75221,-12.093 1.1443,-17.547 1.2825,-3.6887 6.5655,-9.2423 6.5655,-9.2423 l -11.446,-0.17684 -11.446,-0.17684 c 0,0 6.052,5.6305 7.3896,9.6229 1.8118,5.4081 0.18724,17.403 0.18724,17.403 0,0 -4.8624,-7.4058 -9.3668,-10.932 -4.9801,-3.8988 -16.464,-1.5728 -21.19,3.7188 -5.6502,6.3266 -5.6542,16.446 -3.4405,24.378 5.1846,18.578 36.825,45.986 36.825,45.986 z" />
            <path
               id="path4229"
               d="m 400.58,566.99 c 0,0 33.072,-25.672 38.712,-43.989 2.4208,-7.8615 1.3104,-17.156 -3.2938,-24.382 -4.312,-6.767 -12.804,-9.3125 -19.434,-6.0901 -5.0158,2.4379 -11.207,11.427 -11.207,11.427 0,0 -0.75222,-12.093 1.1443,-17.547 1.2825,-3.6887 6.5655,-9.2423 6.5655,-9.2423 l -11.446,-0.17684 -11.446,-0.17684 c 0,0 6.052,5.6304 7.3896,9.6229 1.8118,5.4081 0.18726,17.403 0.18726,17.403 0,0 -4.8624,-7.4057 -9.3668,-10.932 -4.9801,-3.8988 -16.464,-1.5728 -21.19,3.7188 -5.6502,6.3266 -5.6542,16.446 -3.4405,24.378 5.1846,18.578 36.825,45.986 36.825,45.986 z"
               sodipodi:nodetypes="casscacccacssac"
               style="fill:#000000;stroke:#000000;stroke-width:0.94122px"
               inkscape:connector-curvature="0" />
            <path
               id="path4231"
               d="m 584.22,461.82 c 0,0 33.072,-25.672 38.712,-43.989 2.4208,-7.8615 1.3104,-17.156 -3.2938,-24.382 -4.3121,-6.7671 -12.804,-9.3125 -19.434,-6.0902 -5.0158,2.4379 -11.207,11.427 -11.207,11.427 0,0 -0.75222,-12.093 1.1443,-17.547 1.2825,-3.6887 6.5655,-9.2424 6.5655,-9.2424 l -11.446,-0.17684 -11.446,-0.17684 c 0,0 6.052,5.6305 7.3896,9.623 1.8118,5.4081 0.18725,17.403 0.18725,17.403 0,0 -4.8624,-7.4057 -9.3668,-10.932 -4.9801,-3.8988 -16.464,-1.5728 -21.19,3.7188 -5.6502,6.3266 -5.6542,16.446 -3.4405,24.378 5.1846,18.578 36.825,45.986 36.825,45.986 z"
               sodipodi:nodetypes="casscacccacssac"
               style="fill:#000000;stroke:#000000;stroke-width:0.94122px"
               inkscape:connector-curvature="0" />
            <path
               id="path4233"
               sodipodi:nodetypes="casscacccacssac"
               style="fill:#000000;stroke:#000000;stroke-width:0.94122px"
               inkscape:connector-curvature="0"
               d="m 402.25,459.01 c 0,0 33.072,-25.672 38.712,-43.989 2.4208,-7.8615 1.3104,-17.156 -3.2938,-24.382 -4.3121,-6.7671 -12.804,-9.3125 -19.434,-6.0902 -5.0158,2.4379 -11.207,11.427 -11.207,11.427 0,0 -0.75221,-12.093 1.1443,-17.547 1.2825,-3.6887 6.5655,-9.2424 6.5655,-9.2424 l -11.446,-0.17684 -11.446,-0.17684 c 0,0 6.052,5.6304 7.3896,9.6229 1.8118,5.4081 0.18725,17.403 0.18725,17.403 0,0 -4.8624,-7.4057 -9.3668,-10.932 -4.9801,-3.8988 -16.464,-1.5728 -21.19,3.7188 -5.6501,6.3266 -5.6541,16.446 -3.4405,24.378 5.1846,18.578 36.825,45.986 36.825,45.986 z" />
            <path
               id="path4235"
               d="m 647.21,529.56 c 0,0 11.583,-8.991 13.558,-15.406 0.84782,-2.7533 0.45894,-6.0085 -1.1536,-8.5391 -1.5102,-2.37 -4.4844,-3.2615 -6.8063,-2.1329 -1.7567,0.85381 -3.925,4.002 -3.925,4.002 0,0 -0.26344,-4.2352 0.40075,-6.1455 0.44918,-1.2919 2.2994,-3.2369 2.2994,-3.2369 l -4.0086,-0.0619 -4.0086,-0.0619 c 0,0 2.1196,1.9719 2.588,3.3702 0.63454,1.8941 0.0656,6.095 0.0656,6.095 0,0 -1.7029,-2.5937 -3.2805,-3.8287 -1.7442,-1.3655 -5.7663,-0.55085 -7.4214,1.3024 -1.9788,2.2158 -1.9802,5.7597 -1.205,8.5378 1.8158,6.5066 12.897,16.106 12.897,16.106 z"
               sodipodi:nodetypes="casscacccacssac"
               style="fill:#000000;stroke:#000000;stroke-width:0.32964px"
               inkscape:connector-curvature="0" />
            <text
               id="text4237"
               style="line-height:0%;font-family:sans-serif;letter-spacing:0px;word-spacing:0px;fill:#000000;stroke:#000000"
               transform="matrix(-0.73514,-0.011358,0.021012,-1.36,0,0)"
               xml:space="preserve"
               y="-396.76892"
               x="-906.11194">               <tspan
   id="tspan4239"
   y="-396.76892"
   x="-906.11194"
   style="font-size:54.405px;line-height:1.25;font-family:sans-serif;fill:#000000;stroke:#000000"
   sodipodi:role="line">8</tspan>            </text>
          </g>
        </g>
        <rect
           id="rect5169"
           style="opacity:0.7;fill:#808080;stroke:#808080;filter:url(#filter5151)"
           transform="matrix(0.49242,7.4102e-4,-7.4102e-4,0.49242,412.61,94.333)"
           rx="30"
           ry="30"
           height="558.57001"
           width="400"
           y="254.60001"
           x="-437.45001" />
        <g
           id="g4513"
           transform="matrix(0.49242,0,0,0.49242,3.2012,156.94)">
          <rect
             id="rect4515"
             style="fill:#ffffff;stroke:#000000"
             transform="rotate(0.086224)"
             rx="30"
             ry="30"
             height="558.57001"
             width="400"
             y="106.18"
             x="410.89999" />
          <g
             id="g4517">
            <path
               id="path4519"
               d="m 520.07,173.88 c 0,0 -32.71,26.131 -38.095,44.524 -2.3109,7.8945 -1.071,17.173 3.6334,24.333 4.406,6.7063 12.933,9.133 19.517,5.8186 4.9813,-2.5076 11.047,-11.582 11.047,-11.582 0,0 0.92077,12.081 -0.89948,17.562 -1.231,3.7063 -6.436,9.333 -6.436,9.333 l 11.447,0.0172 11.447,0.0172 c 0,0 -6.13,-5.5455 -7.523,-9.519 -1.887,-5.3823 -0.42988,-17.399 -0.42988,-17.399 0,0 4.9652,7.3372 9.5183,10.8 5.034,3.829 16.485,1.3431 21.136,-4.0139 5.5614,-6.4048 5.4243,-16.523 3.1003,-24.424 -5.4432,-18.504 -37.463,-45.469 -37.463,-45.469 z"
               sodipodi:nodetypes="casscacccacssac"
               style="fill:#ff0000;stroke:#ff0000;stroke-width:0.94122px"
               inkscape:connector-curvature="0" />
            <path
               id="path4521"
               sodipodi:nodetypes="casscacccacssac"
               style="fill:#ff0000;stroke:#ff0000;stroke-width:0.94122px"
               inkscape:connector-curvature="0"
               d="m 702.07,174.16 c 0,0 -32.71,26.131 -38.095,44.524 -2.3109,7.8945 -1.071,17.173 3.6334,24.333 4.406,6.7063 12.933,9.133 19.517,5.8186 4.9813,-2.5076 11.047,-11.582 11.047,-11.582 0,0 0.92077,12.081 -0.89948,17.562 -1.231,3.7063 -6.436,9.333 -6.436,9.333 l 11.447,0.0172 11.447,0.0172 c 0,0 -6.13,-5.5455 -7.523,-9.519 -1.887,-5.3823 -0.4299,-17.399 -0.4299,-17.399 0,0 4.9652,7.3372 9.5183,10.8 5.034,3.8289 16.485,1.3431 21.136,-4.0139 5.5614,-6.4048 5.4243,-16.523 3.1002,-24.424 -5.4431,-18.504 -37.463,-45.469 -37.463,-45.469 z" />
            <path
               id="path4523"
               d="m 610.45,341.38 c 0,0 -32.71,26.131 -38.095,44.524 -2.3109,7.8945 -1.071,17.173 3.6334,24.333 4.406,6.7063 12.933,9.133 19.517,5.8186 4.9813,-2.5076 11.047,-11.582 11.047,-11.582 0,0 0.92076,12.081 -0.89949,17.562 -1.231,3.7063 -6.436,9.333 -6.436,9.333 l 11.447,0.0172 11.447,0.0172 c 0,0 -6.13,-5.5455 -7.523,-9.519 -1.887,-5.3824 -0.42988,-17.399 -0.42988,-17.399 0,0 4.9652,7.3372 9.5183,10.8 5.034,3.8289 16.485,1.3431 21.136,-4.0139 5.5614,-6.4048 5.4243,-16.523 3.1002,-24.424 -5.4432,-18.504 -37.463,-45.469 -37.463,-45.469 z"
               sodipodi:nodetypes="casscacccacssac"
               style="fill:#ff0000;stroke:#ff0000;stroke-width:0.94122px"
               inkscape:connector-curvature="0" />
            <path
               id="path4525"
               sodipodi:nodetypes="casscacccacssac"
               style="fill:#ff0000;stroke:#ff0000;stroke-width:0.32964px"
               inkscape:connector-curvature="0"
               d="m 455.98,215.03 c 0,0 -11.456,9.1516 -13.342,15.594 -0.80934,2.7649 -0.37511,6.0143 1.2725,8.5222 1.5431,2.3487 4.5294,3.1986 6.8354,2.0378 1.7446,-0.87823 3.8688,-4.0564 3.8688,-4.0564 0,0 0.32247,4.2311 -0.31503,6.1505 -0.43112,1.298 -2.254,3.2687 -2.254,3.2687 l 4.009,0.006 4.009,0.006 c 0,0 -2.1469,-1.9422 -2.6348,-3.3338 -0.66089,-1.885 -0.15058,-6.0935 -0.15058,-6.0935 0,0 1.7389,2.5697 3.3336,3.7826 1.7631,1.341 5.7734,0.4704 7.4025,-1.4058 1.9478,-2.2432 1.8997,-5.7868 1.0858,-8.5538 -1.9063,-6.4807 -13.12,-15.924 -13.12,-15.924 z" />
            <text
               id="text4527"
               style="line-height:0%;font-family:sans-serif;letter-spacing:0px;word-spacing:0px;fill:#ff0000;stroke:#ff0000"
               xml:space="preserve"
               transform="matrix(0.73522,0.0011064,-0.0020468,1.3601,0,0)"
               y="142.76607"
               x="605.83514">               <tspan
   id="tspan4529"
   sodipodi:role="line"
   x="605.83514"
   style="font-size:54.405px;line-height:1.25;font-family:sans-serif;fill:#ff0000;stroke:#ff0000"
   y="142.76607">7</tspan>            </text>
            <path
               id="path4531"
               sodipodi:nodetypes="casscacccacssac"
               style="fill:#ff0000;stroke:#ff0000;stroke-width:0.94122px"
               inkscape:connector-curvature="0"
               d="m 700.46,590.79 c 0,0 32.71,-26.131 38.095,-44.524 2.3109,-7.8945 1.071,-17.173 -3.6334,-24.333 -4.406,-6.7063 -12.933,-9.133 -19.517,-5.8186 -4.9813,2.5076 -11.047,11.582 -11.047,11.582 0,0 -0.92075,-12.081 0.8995,-17.562 1.231,-3.7062 6.436,-9.333 6.436,-9.333 l -11.447,-0.0172 -11.447,-0.0172 c 0,0 6.13,5.5455 7.523,9.519 1.887,5.3823 0.42989,17.399 0.42989,17.399 0,0 -4.9652,-7.3372 -9.5183,-10.8 -5.034,-3.829 -16.485,-1.3431 -21.136,4.0139 -5.5614,6.4048 -5.4243,16.523 -3.1003,24.424 5.4432,18.504 37.463,45.469 37.463,45.469 z" />
            <path
               id="path4533"
               d="m 518.46,590.52 c 0,0 32.71,-26.131 38.095,-44.524 2.3109,-7.8945 1.071,-17.173 -3.6334,-24.333 -4.406,-6.7063 -12.933,-9.133 -19.517,-5.8186 -4.9813,2.5076 -11.047,11.582 -11.047,11.582 0,0 -0.92077,-12.081 0.89949,-17.562 1.231,-3.7063 6.436,-9.333 6.436,-9.333 l -11.447,-0.0172 -11.447,-0.0172 c 0,0 6.13,5.5455 7.523,9.519 1.887,5.3823 0.4299,17.399 0.4299,17.399 0,0 -4.9652,-7.3372 -9.5183,-10.8 -5.034,-3.829 -16.485,-1.3431 -21.136,4.0139 -5.5614,6.4048 -5.4243,16.523 -3.1003,24.424 5.4432,18.504 37.463,45.469 37.463,45.469 z"
               sodipodi:nodetypes="casscacccacssac"
               style="fill:#ff0000;stroke:#ff0000;stroke-width:0.94122px"
               inkscape:connector-curvature="0" />
            <path
               id="path4535"
               d="m 700.63,431.4 c 0,0 32.71,-26.131 38.095,-44.524 2.3109,-7.8945 1.071,-17.173 -3.6334,-24.333 -4.406,-6.7063 -12.933,-9.133 -19.517,-5.8186 -4.9813,2.5076 -11.047,11.582 -11.047,11.582 0,0 -0.92077,-12.081 0.89948,-17.562 1.231,-3.7062 6.436,-9.333 6.436,-9.333 l -11.447,-0.0172 -11.447,-0.0172 c 0,0 6.13,5.5455 7.523,9.519 1.887,5.3823 0.4299,17.399 0.4299,17.399 0,0 -4.9652,-7.3372 -9.5183,-10.8 -5.034,-3.829 -16.485,-1.3431 -21.136,4.0139 -5.5614,6.4048 -5.4243,16.523 -3.1003,24.424 5.4432,18.504 37.463,45.469 37.463,45.469 z"
               sodipodi:nodetypes="casscacccacssac"
               style="fill:#ff0000;stroke:#ff0000;stroke-width:0.94122px"
               inkscape:connector-curvature="0" />
            <path
               id="path4537"
               sodipodi:nodetypes="casscacccacssac"
               style="fill:#ff0000;stroke:#ff0000;stroke-width:0.94122px"
               inkscape:connector-curvature="0"
               d="m 518.63,431.4 c 0,0 32.71,-26.131 38.095,-44.524 2.3109,-7.8945 1.071,-17.173 -3.6334,-24.333 -4.406,-6.7063 -12.933,-9.133 -19.517,-5.8186 -4.9813,2.5076 -11.047,11.582 -11.047,11.582 0,0 -0.92075,-12.081 0.89948,-17.562 1.231,-3.7063 6.436,-9.333 6.436,-9.333 l -11.447,-0.0172 -11.447,-0.0172 c 0,0 6.13,5.5455 7.523,9.519 1.887,5.3823 0.42989,17.399 0.42989,17.399 0,0 -4.9652,-7.3372 -9.5183,-10.8 -5.034,-3.8289 -16.485,-1.3431 -21.136,4.0139 -5.5614,6.4048 -5.4243,16.523 -3.1002,24.424 5.4431,18.504 37.463,45.469 37.463,45.469 z" />
            <path
               id="path4539"
               d="m 764.55,549.65 c 0,0 11.456,-9.1516 13.342,-15.594 0.80935,-2.7649 0.37511,-6.0143 -1.2725,-8.5222 -1.5431,-2.3487 -4.5294,-3.1986 -6.8354,-2.0378 -1.7446,0.87822 -3.8688,4.0564 -3.8688,4.0564 0,0 -0.32247,-4.2311 0.31502,-6.1505 0.43112,-1.298 2.254,-3.2687 2.254,-3.2687 l -4.009,-0.006 -4.009,-0.006 c 0,0 2.1469,1.9422 2.6348,3.3338 0.66088,1.8851 0.15058,6.0935 0.15058,6.0935 0,0 -1.7389,-2.5697 -3.3336,-3.7826 -1.763,-1.341 -5.7734,-0.47039 -7.4025,1.4058 -1.9478,2.2431 -1.8997,5.7868 -1.0858,8.5538 1.9063,6.4807 13.12,15.924 13.12,15.924 z"
               sodipodi:nodetypes="casscacccacssac"
               style="fill:#ff0000;stroke:#ff0000;stroke-width:0.32964px"
               inkscape:connector-curvature="0" />
            <text
               id="text4541"
               style="line-height:0%;font-family:sans-serif;letter-spacing:0px;word-spacing:0px;fill:#ff0000;stroke:#ff0000"
               transform="matrix(-0.73522,-0.0011064,0.0020468,-1.3601,0,0)"
               xml:space="preserve"
               y="-418.0899"
               x="-1055.8093">               <tspan
   id="tspan4543"
   y="-418.0899"
   x="-1055.8093"
   style="font-size:54.405px;line-height:1.25;font-family:sans-serif;fill:#ff0000;stroke:#ff0000"
   sodipodi:role="line">7</tspan>            </text>
          </g>
        </g>
        <rect
           id="rect5167"
           ry="30"
           style="opacity:0.7;fill:#808080;stroke:#808080;filter:url(#filter5151)"
           rx="30"
           transform="matrix(0.49242,7.4102e-4,-7.4102e-4,0.49242,442.16,114.03)"
           height="558.57001"
           width="400"
           y="254.60001"
           x="-437.45001" />
        <g
           id="g4497"
           transform="matrix(0.49242,0,0,0.49242,51.739,162.29)">
          <rect
             id="rect4425"
             style="fill:#ffffff;stroke:#000000"
             transform="rotate(0.086224)"
             rx="30"
             ry="30"
             height="558.57001"
             width="400"
             y="131.95"
             x="373.79999" />
          <g
             id="g4483">
            <path
               id="path4429"
               d="m 482.93,199.6 c 0,0 -32.71,26.131 -38.095,44.524 -2.3109,7.8945 -1.071,17.173 3.6334,24.333 4.406,6.7063 12.933,9.133 19.517,5.8186 4.9813,-2.5076 11.047,-11.582 11.047,-11.582 0,0 0.92077,12.081 -0.89948,17.562 -1.231,3.7063 -6.436,9.333 -6.436,9.333 l 11.447,0.0172 11.447,0.0172 c 0,0 -6.13,-5.5455 -7.523,-9.519 -1.887,-5.3823 -0.42988,-17.399 -0.42988,-17.399 0,0 4.9652,7.3372 9.5183,10.8 5.034,3.829 16.485,1.3431 21.136,-4.0139 5.5614,-6.4048 5.4243,-16.523 3.1003,-24.424 -5.4432,-18.504 -37.463,-45.469 -37.463,-45.469 z"
               sodipodi:nodetypes="casscacccacssac"
               style="fill:#000000;stroke:#000000;stroke-width:0.94122px"
               inkscape:connector-curvature="0" />
            <path
               id="path4431"
               sodipodi:nodetypes="casscacccacssac"
               style="fill:#000000;stroke:#000000;stroke-width:0.94122px"
               inkscape:connector-curvature="0"
               d="m 664.93,199.87 c 0,0 -32.71,26.131 -38.095,44.524 -2.3109,7.8945 -1.071,17.173 3.6334,24.333 4.406,6.7063 12.933,9.133 19.517,5.8186 4.9813,-2.5076 11.047,-11.582 11.047,-11.582 0,0 0.92077,12.081 -0.89948,17.562 -1.231,3.7063 -6.436,9.333 -6.436,9.333 l 11.447,0.0172 11.447,0.0172 c 0,0 -6.13,-5.5455 -7.523,-9.519 -1.887,-5.3823 -0.4299,-17.399 -0.4299,-17.399 0,0 4.9652,7.3372 9.5183,10.8 5.034,3.8289 16.485,1.3431 21.136,-4.0139 5.5614,-6.4048 5.4243,-16.523 3.1002,-24.424 -5.4431,-18.504 -37.463,-45.469 -37.463,-45.469 z" />
            <path
               id="path4435"
               sodipodi:nodetypes="casscacccacssac"
               style="fill:#000000;stroke:#000000;stroke-width:0.32964px"
               inkscape:connector-curvature="0"
               d="m 418.84,240.74 c 0,0 -11.456,9.1516 -13.342,15.594 -0.80934,2.7649 -0.37511,6.0143 1.2725,8.5222 1.5431,2.3487 4.5294,3.1986 6.8354,2.0378 1.7446,-0.87823 3.8688,-4.0564 3.8688,-4.0564 0,0 0.32247,4.2311 -0.31503,6.1505 -0.43112,1.298 -2.254,3.2687 -2.254,3.2687 l 4.009,0.006 4.009,0.006 c 0,0 -2.1469,-1.9422 -2.6348,-3.3338 -0.66089,-1.885 -0.15058,-6.0935 -0.15058,-6.0935 0,0 1.7389,2.5697 3.3336,3.7826 1.7631,1.341 5.7734,0.4704 7.4025,-1.4058 1.9478,-2.2432 1.8997,-5.7868 1.0858,-8.5538 -1.9063,-6.4807 -13.12,-15.924 -13.12,-15.924 z" />
            <text
               id="text4437"
               style="line-height:0%;font-family:sans-serif;letter-spacing:0px;word-spacing:0px;fill:#000000;stroke:#000000"
               xml:space="preserve"
               transform="matrix(0.73522,0.0011064,-0.0020468,1.3601,0,0)"
               y="161.71292"
               x="555.36877">               <tspan
   id="tspan4439"
   sodipodi:role="line"
   x="555.36877"
   style="font-size:54.405px;line-height:1.25;font-family:sans-serif;fill:#000000;stroke:#000000"
   y="161.71292">6</tspan>            </text>
            <path
               id="path4441"
               sodipodi:nodetypes="casscacccacssac"
               style="fill:#000000;stroke:#000000;stroke-width:0.94122px"
               inkscape:connector-curvature="0"
               d="m 663.32,616.5 c 0,0 32.71,-26.131 38.095,-44.524 2.3109,-7.8945 1.071,-17.173 -3.6334,-24.333 -4.406,-6.7063 -12.933,-9.133 -19.517,-5.8186 -4.9813,2.5076 -11.047,11.582 -11.047,11.582 0,0 -0.92075,-12.081 0.8995,-17.562 1.231,-3.7062 6.436,-9.333 6.436,-9.333 l -11.447,-0.0172 -11.447,-0.0172 c 0,0 6.13,5.5455 7.523,9.519 1.887,5.3823 0.42989,17.399 0.42989,17.399 0,0 -4.9652,-7.3372 -9.5183,-10.8 -5.034,-3.829 -16.485,-1.3431 -21.136,4.0139 -5.5614,6.4048 -5.4243,16.523 -3.1003,24.424 5.4432,18.504 37.463,45.469 37.463,45.469 z" />
            <path
               id="path4443"
               d="m 481.32,616.23 c 0,0 32.71,-26.131 38.095,-44.524 2.3109,-7.8945 1.071,-17.173 -3.6334,-24.333 -4.406,-6.7063 -12.933,-9.133 -19.517,-5.8186 -4.9813,2.5076 -11.047,11.582 -11.047,11.582 0,0 -0.92077,-12.081 0.89949,-17.562 1.231,-3.7063 6.436,-9.333 6.436,-9.333 l -11.447,-0.0172 -11.447,-0.0172 c 0,0 6.13,5.5455 7.523,9.519 1.887,5.3823 0.4299,17.399 0.4299,17.399 0,0 -4.9652,-7.3372 -9.5183,-10.8 -5.034,-3.829 -16.485,-1.3431 -21.136,4.0139 -5.5614,6.4048 -5.4243,16.523 -3.1003,24.424 5.4432,18.504 37.463,45.469 37.463,45.469 z"
               sodipodi:nodetypes="casscacccacssac"
               style="fill:#000000;stroke:#000000;stroke-width:0.94122px"
               inkscape:connector-curvature="0" />
            <path
               id="path4445"
               d="m 663.48,457.11 c 0,0 32.71,-26.131 38.095,-44.524 2.3109,-7.8945 1.071,-17.173 -3.6334,-24.333 -4.406,-6.7063 -12.933,-9.133 -19.517,-5.8186 -4.9813,2.5076 -11.047,11.582 -11.047,11.582 0,0 -0.92077,-12.081 0.89948,-17.562 1.231,-3.7062 6.436,-9.333 6.436,-9.333 l -11.447,-0.0172 -11.447,-0.0172 c 0,0 6.13,5.5455 7.523,9.519 1.887,5.3823 0.4299,17.399 0.4299,17.399 0,0 -4.9652,-7.3372 -9.5183,-10.8 -5.034,-3.829 -16.485,-1.3431 -21.136,4.0139 -5.5614,6.4048 -5.4243,16.523 -3.1003,24.424 5.4432,18.504 37.463,45.469 37.463,45.469 z"
               sodipodi:nodetypes="casscacccacssac"
               style="fill:#000000;stroke:#000000;stroke-width:0.94122px"
               inkscape:connector-curvature="0" />
            <path
               id="path4447"
               sodipodi:nodetypes="casscacccacssac"
               style="fill:#000000;stroke:#000000;stroke-width:0.94122px"
               inkscape:connector-curvature="0"
               d="m 481.48,457.11 c 0,0 32.71,-26.131 38.095,-44.524 2.3109,-7.8945 1.071,-17.173 -3.6334,-24.333 -4.406,-6.7063 -12.933,-9.133 -19.517,-5.8186 -4.9813,2.5076 -11.047,11.582 -11.047,11.582 0,0 -0.92075,-12.081 0.89948,-17.562 1.231,-3.7063 6.436,-9.333 6.436,-9.333 l -11.447,-0.0172 -11.447,-0.0172 c 0,0 6.13,5.5455 7.523,9.519 1.887,5.3823 0.42989,17.399 0.42989,17.399 0,0 -4.9652,-7.3372 -9.5183,-10.8 -5.034,-3.8289 -16.485,-1.3431 -21.136,4.0139 -5.5614,6.4048 -5.4243,16.523 -3.1002,24.424 5.4431,18.504 37.463,45.469 37.463,45.469 z" />
            <path
               id="path4449"
               d="m 727.41,575.36 c 0,0 11.456,-9.1516 13.342,-15.594 0.80935,-2.7649 0.37511,-6.0143 -1.2725,-8.5222 -1.5431,-2.3487 -4.5294,-3.1986 -6.8354,-2.0378 -1.7446,0.87822 -3.8688,4.0564 -3.8688,4.0564 0,0 -0.32247,-4.2311 0.31502,-6.1505 0.43112,-1.298 2.254,-3.2687 2.254,-3.2687 l -4.009,-0.006 -4.009,-0.006 c 0,0 2.1469,1.9422 2.6348,3.3338 0.66088,1.8851 0.15058,6.0935 0.15058,6.0935 0,0 -1.7389,-2.5697 -3.3336,-3.7826 -1.763,-1.341 -5.7734,-0.47039 -7.4025,1.4058 -1.9478,2.2431 -1.8997,5.7868 -1.0858,8.5538 1.9063,6.4807 13.12,15.924 13.12,15.924 z"
               sodipodi:nodetypes="casscacccacssac"
               style="fill:#000000;stroke:#000000;stroke-width:0.32964px"
               inkscape:connector-curvature="0" />
            <text
               id="text4451"
               style="line-height:0%;font-family:sans-serif;letter-spacing:0px;word-spacing:0px;fill:#000000;stroke:#000000"
               transform="matrix(-0.73522,-0.0011064,0.0020468,-1.3601,0,0)"
               xml:space="preserve"
               y="-437.03674"
               x="-1005.343">               <tspan
   id="tspan4453"
   y="-437.03674"
   x="-1005.343"
   style="font-size:54.405px;line-height:1.25;font-family:sans-serif;fill:#000000;stroke:#000000"
   sodipodi:role="line">6</tspan>            </text>
          </g>
        </g>
        <rect
           id="rect5165"
           style="opacity:0.7;fill:#808080;stroke:#808080;filter:url(#filter5151)"
           transform="matrix(0.49242,7.4102e-4,-7.4102e-4,0.49242,483.52,143.57)"
           rx="30"
           ry="30"
           height="558.57001"
           width="400"
           y="254.60001"
           x="-437.45001" />
        <g
           id="g4648"
           transform="matrix(0.49242,0,0,0.49242,16.567,144)">
          <rect
             id="rect4577"
             style="fill:#ffffff;stroke:#000000"
             transform="rotate(0.086224)"
             rx="30"
             ry="30"
             height="558.57001"
             width="400"
             y="236.00999"
             x="528.23999" />
          <g
             id="g4635">
            <path
               id="path4581"
               d="m 637.21,303.88 c 0,0 -32.71,26.131 -38.095,44.524 -2.3109,7.8945 -1.071,17.173 3.6334,24.333 4.406,6.7063 12.933,9.133 19.517,5.8186 4.9813,-2.5076 11.047,-11.582 11.047,-11.582 0,0 0.92077,12.081 -0.89948,17.562 -1.231,3.7063 -6.436,9.333 -6.436,9.333 l 11.447,0.0172 11.447,0.0172 c 0,0 -6.13,-5.5455 -7.523,-9.519 -1.887,-5.3823 -0.42988,-17.399 -0.42988,-17.399 0,0 4.9652,7.3372 9.5183,10.8 5.034,3.829 16.485,1.3431 21.136,-4.0139 5.5614,-6.4048 5.4243,-16.523 3.1003,-24.424 -5.4432,-18.504 -37.463,-45.469 -37.463,-45.469 z"
               sodipodi:nodetypes="casscacccacssac"
               style="fill:#ff0000;stroke:#ff0000;stroke-width:0.94122px"
               inkscape:connector-curvature="0" />
            <path
               id="path4583"
               sodipodi:nodetypes="casscacccacssac"
               style="fill:#ff0000;stroke:#ff0000;stroke-width:0.94122px"
               inkscape:connector-curvature="0"
               d="m 819.21,304.16 c 0,0 -32.71,26.131 -38.095,44.524 -2.3109,7.8945 -1.071,17.173 3.6334,24.333 4.406,6.7063 12.933,9.133 19.517,5.8186 4.9813,-2.5076 11.047,-11.582 11.047,-11.582 0,0 0.92077,12.081 -0.89948,17.562 -1.231,3.7063 -6.436,9.333 -6.436,9.333 l 11.447,0.0172 11.447,0.0172 c 0,0 -6.13,-5.5455 -7.523,-9.519 -1.887,-5.3823 -0.4299,-17.399 -0.4299,-17.399 0,0 4.9652,7.3372 9.5183,10.8 5.034,3.8289 16.485,1.3431 21.136,-4.0139 5.5614,-6.4048 5.4243,-16.523 3.1002,-24.424 -5.4431,-18.504 -37.463,-45.469 -37.463,-45.469 z" />
            <path
               id="path4585"
               d="m 727.59,471.38 c 0,0 -32.71,26.131 -38.095,44.524 -2.3109,7.8945 -1.071,17.173 3.6334,24.333 4.406,6.7063 12.933,9.133 19.517,5.8186 4.9813,-2.5076 11.047,-11.582 11.047,-11.582 0,0 0.92076,12.081 -0.89949,17.562 -1.231,3.7063 -6.436,9.333 -6.436,9.333 l 11.447,0.0172 11.447,0.0172 c 0,0 -6.13,-5.5455 -7.523,-9.519 -1.887,-5.3824 -0.42988,-17.399 -0.42988,-17.399 0,0 4.9652,7.3372 9.5183,10.8 5.034,3.8289 16.485,1.3431 21.136,-4.0139 5.5614,-6.4048 5.4243,-16.523 3.1002,-24.424 -5.4432,-18.504 -37.463,-45.469 -37.463,-45.469 z"
               sodipodi:nodetypes="casscacccacssac"
               style="fill:#ff0000;stroke:#ff0000;stroke-width:0.94122px"
               inkscape:connector-curvature="0" />
            <path
               id="path4587"
               sodipodi:nodetypes="casscacccacssac"
               style="fill:#ff0000;stroke:#ff0000;stroke-width:0.32964px"
               inkscape:connector-curvature="0"
               d="m 573.12,345.03 c 0,0 -11.456,9.1516 -13.342,15.594 -0.80934,2.7649 -0.37511,6.0143 1.2725,8.5222 1.5431,2.3487 4.5294,3.1986 6.8354,2.0378 1.7446,-0.87823 3.8688,-4.0564 3.8688,-4.0564 0,0 0.32247,4.2311 -0.31503,6.1505 -0.43112,1.298 -2.254,3.2687 -2.254,3.2687 l 4.009,0.006 4.009,0.006 c 0,0 -2.1469,-1.9422 -2.6348,-3.3338 -0.66089,-1.885 -0.15058,-6.0935 -0.15058,-6.0935 0,0 1.7389,2.5697 3.3336,3.7826 1.7631,1.341 5.7734,0.4704 7.4025,-1.4058 1.9478,-2.2432 1.8997,-5.7868 1.0858,-8.5538 -1.9063,-6.4807 -13.12,-15.924 -13.12,-15.924 z" />
            <text
               id="text4589"
               style="line-height:0%;font-family:sans-serif;letter-spacing:0px;word-spacing:0px;fill:#ff0000;stroke:#ff0000"
               xml:space="preserve"
               transform="matrix(0.73522,0.0011064,-0.0020468,1.3601,0,0)"
               y="238.21556"
               x="765.43036">               <tspan
   id="tspan4591"
   sodipodi:role="line"
   x="765.43036"
   style="font-size:54.405px;line-height:1.25;font-family:sans-serif;fill:#ff0000;stroke:#ff0000"
   y="238.21556">5</tspan>            </text>
            <path
               id="path4593"
               sodipodi:nodetypes="casscacccacssac"
               style="fill:#ff0000;stroke:#ff0000;stroke-width:0.94122px"
               inkscape:connector-curvature="0"
               d="m 817.61,720.79 c 0,0 32.71,-26.131 38.095,-44.524 2.3109,-7.8945 1.071,-17.173 -3.6334,-24.333 -4.406,-6.7063 -12.933,-9.133 -19.517,-5.8186 -4.9813,2.5076 -11.047,11.582 -11.047,11.582 0,0 -0.92075,-12.081 0.8995,-17.562 1.231,-3.7062 6.436,-9.333 6.436,-9.333 l -11.447,-0.0172 -11.447,-0.0172 c 0,0 6.13,5.5455 7.523,9.519 1.887,5.3823 0.42989,17.399 0.42989,17.399 0,0 -4.9652,-7.3372 -9.5183,-10.8 -5.034,-3.829 -16.485,-1.3431 -21.136,4.0139 -5.5614,6.4048 -5.4243,16.523 -3.1003,24.424 5.4432,18.504 37.463,45.469 37.463,45.469 z" />
            <path
               id="path4595"
               d="m 635.61,720.52 c 0,0 32.71,-26.131 38.095,-44.524 2.3109,-7.8945 1.071,-17.173 -3.6334,-24.333 -4.406,-6.7063 -12.933,-9.133 -19.517,-5.8186 -4.9813,2.5076 -11.047,11.582 -11.047,11.582 0,0 -0.92077,-12.081 0.89949,-17.562 1.231,-3.7063 6.436,-9.333 6.436,-9.333 l -11.447,-0.0172 -11.447,-0.0172 c 0,0 6.13,5.5455 7.523,9.519 1.887,5.3823 0.4299,17.399 0.4299,17.399 0,0 -4.9652,-7.3372 -9.5183,-10.8 -5.034,-3.829 -16.485,-1.3431 -21.136,4.0139 -5.5614,6.4048 -5.4243,16.523 -3.1003,24.424 5.4432,18.504 37.463,45.469 37.463,45.469 z"
               sodipodi:nodetypes="casscacccacssac"
               style="fill:#ff0000;stroke:#ff0000;stroke-width:0.94122px"
               inkscape:connector-curvature="0" />
            <path
               id="path4601"
               d="m 881.7,679.65 c 0,0 11.456,-9.1516 13.342,-15.594 0.80935,-2.7649 0.37511,-6.0143 -1.2725,-8.5222 -1.5431,-2.3487 -4.5294,-3.1986 -6.8354,-2.0378 -1.7446,0.87822 -3.8688,4.0564 -3.8688,4.0564 0,0 -0.32247,-4.2311 0.31502,-6.1505 0.43112,-1.298 2.254,-3.2687 2.254,-3.2687 l -4.009,-0.006 -4.009,-0.006 c 0,0 2.1469,1.9422 2.6348,3.3338 0.66088,1.8851 0.15058,6.0935 0.15058,6.0935 0,0 -1.7389,-2.5697 -3.3336,-3.7826 -1.763,-1.341 -5.7734,-0.47039 -7.4025,1.4058 -1.9478,2.2431 -1.8997,5.7868 -1.0858,8.5538 1.9063,6.4807 13.12,15.924 13.12,15.924 z"
               sodipodi:nodetypes="casscacccacssac"
               style="fill:#ff0000;stroke:#ff0000;stroke-width:0.32964px"
               inkscape:connector-curvature="0" />
            <text
               id="text4603"
               style="line-height:0%;font-family:sans-serif;letter-spacing:0px;word-spacing:0px;fill:#ff0000;stroke:#ff0000"
               transform="matrix(-0.73522,-0.0011064,0.0020468,-1.3601,0,0)"
               xml:space="preserve"
               y="-513.53943"
               x="-1215.4045">               <tspan
   id="tspan4605"
   y="-513.53943"
   x="-1215.4045"
   style="font-size:54.405px;line-height:1.25;font-family:sans-serif;fill:#ff0000;stroke:#ff0000"
   sodipodi:role="line">5</tspan>            </text>
          </g>
        </g>
        <rect
           id="rect5163"
           ry="30"
           style="opacity:0.7;fill:#808080;stroke:#808080;filter:url(#filter5151)"
           rx="30"
           transform="matrix(0.49242,7.4102e-4,-7.4102e-4,0.49242,515.03,181)"
           height="558.57001"
           width="400"
           y="254.60001"
           x="-437.45001" />
        <g
           id="g4731"
           transform="matrix(0.49242,0,0,0.49242,23.601,142.59)">
          <rect
             id="rect4665"
             style="fill:#ffffff;stroke:#000000"
             transform="rotate(0.086224)"
             rx="30"
             ry="30"
             height="558.57001"
             width="400"
             y="310.20999"
             x="582.64001" />
          <g
             id="g4719">
            <path
               id="path4669"
               d="m 691.5,378.17 c 0,0 -32.71,26.131 -38.095,44.524 -2.3109,7.8945 -1.071,17.173 3.6334,24.333 4.406,6.7063 12.933,9.133 19.517,5.8186 4.9813,-2.5076 11.047,-11.582 11.047,-11.582 0,0 0.92077,12.081 -0.89948,17.562 -1.231,3.7063 -6.436,9.333 -6.436,9.333 l 11.447,0.0172 11.447,0.0172 c 0,0 -6.13,-5.5455 -7.523,-9.519 -1.887,-5.3823 -0.42988,-17.399 -0.42988,-17.399 0,0 4.9652,7.3372 9.5183,10.8 5.034,3.829 16.485,1.3431 21.136,-4.0139 5.5614,-6.4048 5.4243,-16.523 3.1003,-24.424 -5.4432,-18.504 -37.463,-45.469 -37.463,-45.469 z"
               sodipodi:nodetypes="casscacccacssac"
               style="fill:#000000;stroke:#000000;stroke-width:0.94122px"
               inkscape:connector-curvature="0" />
            <path
               id="path4671"
               sodipodi:nodetypes="casscacccacssac"
               style="fill:#000000;stroke:#000000;stroke-width:0.94122px"
               inkscape:connector-curvature="0"
               d="m 873.5,378.44 c 0,0 -32.71,26.131 -38.095,44.524 -2.3109,7.8945 -1.071,17.173 3.6334,24.333 4.406,6.7063 12.933,9.133 19.517,5.8186 4.9813,-2.5076 11.047,-11.582 11.047,-11.582 0,0 0.92077,12.081 -0.89948,17.562 -1.231,3.7063 -6.436,9.333 -6.436,9.333 l 11.447,0.0172 11.447,0.0172 c 0,0 -6.13,-5.5455 -7.523,-9.519 -1.887,-5.3823 -0.4299,-17.399 -0.4299,-17.399 0,0 4.9652,7.3372 9.5183,10.8 5.034,3.8289 16.485,1.3431 21.136,-4.0139 5.5614,-6.4048 5.4243,-16.523 3.1002,-24.424 -5.4431,-18.504 -37.463,-45.469 -37.463,-45.469 z" />
            <path
               id="path4673"
               sodipodi:nodetypes="casscacccacssac"
               style="fill:#000000;stroke:#000000;stroke-width:0.32964px"
               inkscape:connector-curvature="0"
               d="m 627.41,419.31 c 0,0 -11.456,9.1516 -13.342,15.594 -0.80934,2.7649 -0.37511,6.0143 1.2725,8.5222 1.5431,2.3487 4.5294,3.1986 6.8354,2.0378 1.7446,-0.87823 3.8688,-4.0564 3.8688,-4.0564 0,0 0.32247,4.2311 -0.31503,6.1505 -0.43112,1.298 -2.254,3.2687 -2.254,3.2687 l 4.009,0.006 4.009,0.006 c 0,0 -2.1469,-1.9422 -2.6348,-3.3338 -0.66089,-1.885 -0.15058,-6.0935 -0.15058,-6.0935 0,0 1.7389,2.5697 3.3336,3.7826 1.7631,1.341 5.7734,0.4704 7.4025,-1.4058 1.9478,-2.2432 1.8997,-5.7868 1.0858,-8.5538 -1.9063,-6.4807 -13.12,-15.924 -13.12,-15.924 z" />
            <text
               id="text4675"
               style="line-height:0%;font-family:sans-serif;letter-spacing:0px;word-spacing:0px;fill:#000000;stroke:#000000"
               xml:space="preserve"
               transform="matrix(0.73522,0.0011064,-0.0020468,1.3601,0,0)"
               y="292.77213"
               x="839.41791">               <tspan
   id="tspan4677"
   sodipodi:role="line"
   x="839.41791"
   style="font-size:54.405px;line-height:1.25;font-family:sans-serif;fill:#000000;stroke:#000000"
   y="292.77213">4</tspan>            </text>
            <path
               id="path4679"
               sodipodi:nodetypes="casscacccacssac"
               style="fill:#000000;stroke:#000000;stroke-width:0.94122px"
               inkscape:connector-curvature="0"
               d="m 871.89,795.08 c 0,0 32.71,-26.131 38.095,-44.524 2.3109,-7.8945 1.071,-17.173 -3.6334,-24.333 -4.406,-6.7063 -12.933,-9.133 -19.517,-5.8186 -4.9813,2.5076 -11.047,11.582 -11.047,11.582 0,0 -0.92075,-12.081 0.8995,-17.562 1.231,-3.7062 6.436,-9.333 6.436,-9.333 l -11.447,-0.0172 -11.447,-0.0172 c 0,0 6.13,5.5455 7.523,9.519 1.887,5.3823 0.42989,17.399 0.42989,17.399 0,0 -4.9652,-7.3372 -9.5183,-10.8 -5.034,-3.829 -16.485,-1.3431 -21.136,4.0139 -5.5614,6.4048 -5.4243,16.523 -3.1003,24.424 5.4432,18.504 37.463,45.469 37.463,45.469 z" />
            <path
               id="path4681"
               d="m 689.89,794.8 c 0,0 32.71,-26.131 38.095,-44.524 2.3109,-7.8945 1.071,-17.173 -3.6334,-24.333 -4.406,-6.7063 -12.933,-9.133 -19.517,-5.8186 -4.9813,2.5076 -11.047,11.582 -11.047,11.582 0,0 -0.92077,-12.081 0.89949,-17.562 1.231,-3.7063 6.436,-9.333 6.436,-9.333 l -11.447,-0.0172 -11.447,-0.0172 c 0,0 6.13,5.5455 7.523,9.519 1.887,5.3823 0.4299,17.399 0.4299,17.399 0,0 -4.9652,-7.3372 -9.5183,-10.8 -5.034,-3.829 -16.485,-1.3431 -21.136,4.0139 -5.5614,6.4048 -5.4243,16.523 -3.1003,24.424 5.4432,18.504 37.463,45.469 37.463,45.469 z"
               sodipodi:nodetypes="casscacccacssac"
               style="fill:#000000;stroke:#000000;stroke-width:0.94122px"
               inkscape:connector-curvature="0" />
            <path
               id="path4687"
               d="m 935.98,753.93 c 0,0 11.456,-9.1516 13.342,-15.594 0.80935,-2.7649 0.37511,-6.0143 -1.2725,-8.5222 -1.5431,-2.3487 -4.5294,-3.1986 -6.8354,-2.0378 -1.7446,0.87822 -3.8688,4.0564 -3.8688,4.0564 0,0 -0.32247,-4.2311 0.31502,-6.1505 0.43112,-1.298 2.254,-3.2687 2.254,-3.2687 l -4.009,-0.006 -4.009,-0.006 c 0,0 2.1469,1.9422 2.6348,3.3338 0.66088,1.8851 0.15058,6.0935 0.15058,6.0935 0,0 -1.7389,-2.5697 -3.3336,-3.7826 -1.763,-1.341 -5.7734,-0.47039 -7.4025,1.4058 -1.9478,2.2431 -1.8997,5.7868 -1.0858,8.5538 1.9063,6.4807 13.12,15.924 13.12,15.924 z"
               sodipodi:nodetypes="casscacccacssac"
               style="fill:#000000;stroke:#000000;stroke-width:0.32964px"
               inkscape:connector-curvature="0" />
            <text
               id="text4689"
               style="line-height:0%;font-family:sans-serif;letter-spacing:0px;word-spacing:0px;fill:#000000;stroke:#000000"
               transform="matrix(-0.73522,-0.0011064,0.0020468,-1.3601,0,0)"
               xml:space="preserve"
               y="-568.09595"
               x="-1289.3921">               <tspan
   id="tspan4691"
   y="-568.09595"
   x="-1289.3921"
   style="font-size:54.405px;line-height:1.25;font-family:sans-serif;fill:#000000;stroke:#000000"
   sodipodi:role="line">4</tspan>            </text>
          </g>
        </g>
        <rect
           id="rect5161"
           style="opacity:0.7;fill:#808080;stroke:#808080;filter:url(#filter5151)"
           transform="matrix(0.49242,7.4102e-4,-7.4102e-4,0.49242,554.43,212.51)"
           rx="30"
           ry="30"
           height="558.57001"
           width="400"
           y="254.60001"
           x="-437.45001" />
        <g
           id="g4816"
           transform="matrix(0.49242,0,0,0.49242,23.601,142.59)">
          <rect
             id="rect4747"
             style="fill:#ffffff;stroke:#000000"
             transform="rotate(0.086224)"
             rx="30"
             ry="30"
             height="558.57001"
             width="400"
             y="372.95001"
             x="662.72998" />
          <g
             id="g4805">
            <path
               id="path4751"
               d="m 771.5,441.03 c 0,0 -32.71,26.131 -38.095,44.524 -2.3109,7.8945 -1.071,17.173 3.6334,24.333 4.406,6.7063 12.933,9.133 19.517,5.8186 4.9813,-2.5076 11.047,-11.582 11.047,-11.582 0,0 0.92077,12.081 -0.89948,17.562 -1.231,3.7063 -6.436,9.333 -6.436,9.333 l 11.447,0.0172 11.447,0.0172 c 0,0 -6.13,-5.5455 -7.523,-9.519 -1.887,-5.3823 -0.42988,-17.399 -0.42988,-17.399 0,0 4.9652,7.3372 9.5183,10.8 5.034,3.829 16.485,1.3431 21.136,-4.0139 5.5614,-6.4048 5.4243,-16.523 3.1003,-24.424 -5.4432,-18.504 -37.463,-45.469 -37.463,-45.469 z"
               sodipodi:nodetypes="casscacccacssac"
               style="fill:#ff0000;stroke:#ff0000;stroke-width:0.94122px"
               inkscape:connector-curvature="0" />
            <path
               id="path4755"
               d="m 861.88,608.52 c 0,0 -32.71,26.131 -38.095,44.524 -2.3109,7.8945 -1.071,17.173 3.6334,24.333 4.406,6.7063 12.933,9.133 19.517,5.8186 4.9813,-2.5076 11.047,-11.582 11.047,-11.582 0,0 0.92076,12.081 -0.89949,17.562 -1.231,3.7063 -6.436,9.333 -6.436,9.333 l 11.447,0.0172 11.447,0.0172 c 0,0 -6.13,-5.5455 -7.523,-9.519 -1.887,-5.3824 -0.42988,-17.399 -0.42988,-17.399 0,0 4.9652,7.3372 9.5183,10.8 5.034,3.8289 16.485,1.3431 21.136,-4.0139 5.5614,-6.4048 5.4243,-16.523 3.1002,-24.424 -5.4432,-18.504 -37.463,-45.469 -37.463,-45.469 z"
               sodipodi:nodetypes="casscacccacssac"
               style="fill:#ff0000;stroke:#ff0000;stroke-width:0.94122px"
               inkscape:connector-curvature="0" />
            <path
               id="path4757"
               sodipodi:nodetypes="casscacccacssac"
               style="fill:#ff0000;stroke:#ff0000;stroke-width:0.32964px"
               inkscape:connector-curvature="0"
               d="m 707.41,482.17 c 0,0 -11.456,9.1516 -13.342,15.594 -0.80934,2.7649 -0.37511,6.0143 1.2725,8.5222 1.5431,2.3487 4.5294,3.1986 6.8354,2.0378 1.7446,-0.87823 3.8688,-4.0564 3.8688,-4.0564 0,0 0.32247,4.2311 -0.31503,6.1505 -0.43112,1.298 -2.254,3.2687 -2.254,3.2687 l 4.009,0.006 4.009,0.006 c 0,0 -2.1469,-1.9422 -2.6348,-3.3338 -0.66089,-1.885 -0.15058,-6.0935 -0.15058,-6.0935 0,0 1.7389,2.5697 3.3336,3.7826 1.7631,1.341 5.7734,0.4704 7.4025,-1.4058 1.9478,-2.2432 1.8997,-5.7868 1.0858,-8.5538 -1.9063,-6.4807 -13.12,-15.924 -13.12,-15.924 z" />
            <text
               id="text4759"
               style="line-height:0%;font-family:sans-serif;letter-spacing:0px;word-spacing:0px;fill:#ff0000;stroke:#ff0000"
               xml:space="preserve"
               transform="matrix(0.73522,0.0011064,-0.0020468,1.3601,0,0)"
               y="338.89767"
               x="948.35669">               <tspan
   id="tspan4761"
   sodipodi:role="line"
   x="948.35669"
   style="font-size:54.405px;line-height:1.25;font-family:sans-serif;fill:#ff0000;stroke:#ff0000"
   y="338.89767">3</tspan>            </text>
            <path
               id="path4763"
               sodipodi:nodetypes="casscacccacssac"
               style="fill:#ff0000;stroke:#ff0000;stroke-width:0.94122px"
               inkscape:connector-curvature="0"
               d="m 951.89,857.93 c 0,0 32.71,-26.131 38.095,-44.524 2.3109,-7.8945 1.071,-17.173 -3.6334,-24.333 -4.406,-6.7063 -12.933,-9.133 -19.517,-5.8186 -4.9813,2.5076 -11.047,11.582 -11.047,11.582 0,0 -0.92075,-12.081 0.8995,-17.562 1.231,-3.7062 6.436,-9.333 6.436,-9.333 l -11.447,-0.0172 -11.447,-0.0172 c 0,0 6.13,5.5455 7.523,9.519 1.887,5.3823 0.42989,17.399 0.42989,17.399 0,0 -4.9652,-7.3372 -9.5183,-10.8 -5.034,-3.829 -16.485,-1.3431 -21.136,4.0139 -5.5614,6.4048 -5.4243,16.523 -3.1003,24.424 5.4432,18.504 37.463,45.469 37.463,45.469 z" />
            <path
               id="path4771"
               d="m 1016,816.79 c 0,0 11.456,-9.1516 13.342,-15.594 0.8093,-2.7649 0.3751,-6.0143 -1.2726,-8.5222 -1.5431,-2.3487 -4.5294,-3.1986 -6.8354,-2.0378 -1.7446,0.87822 -3.8688,4.0564 -3.8688,4.0564 0,0 -0.3224,-4.2311 0.315,-6.1505 0.4312,-1.298 2.2541,-3.2687 2.2541,-3.2687 l -4.009,-0.006 -4.0091,-0.006 c 0,0 2.1469,1.9422 2.6348,3.3338 0.6609,1.8851 0.1506,6.0935 0.1506,6.0935 0,0 -1.739,-2.5697 -3.3336,-3.7826 -1.7631,-1.341 -5.7734,-0.47039 -7.4025,1.4058 -1.9478,2.2431 -1.8997,5.7868 -1.0858,8.5538 1.9063,6.4807 13.12,15.924 13.12,15.924 z"
               sodipodi:nodetypes="casscacccacssac"
               style="fill:#ff0000;stroke:#ff0000;stroke-width:0.32964px"
               inkscape:connector-curvature="0" />
            <text
               id="text4773"
               style="line-height:0%;font-family:sans-serif;letter-spacing:0px;word-spacing:0px;fill:#ff0000;stroke:#ff0000"
               transform="matrix(-0.73522,-0.0011064,0.0020468,-1.3601,0,0)"
               xml:space="preserve"
               y="-614.2215"
               x="-1398.3308">               <tspan
   id="tspan4775"
   y="-614.2215"
   x="-1398.3308"
   style="font-size:54.405px;line-height:1.25;font-family:sans-serif;fill:#ff0000;stroke:#ff0000"
   sodipodi:role="line">3</tspan>            </text>
          </g>
        </g>
        <rect
           id="rect5159"
           ry="30"
           style="opacity:0.7;fill:#808080;stroke:#808080;filter:url(#filter5151)"
           rx="30"
           transform="matrix(0.49242,7.4102e-4,-7.4102e-4,0.49242,587.91,246)"
           height="558.57001"
           width="400"
           y="254.60001"
           x="-437.45001" />
        <g
           id="g4895"
           transform="matrix(0.49242,0,0,0.49242,23.601,142.59)">
          <rect
             id="rect4831"
             style="fill:#ffffff;stroke:#000000"
             transform="rotate(0.086224)"
             rx="30"
             ry="30"
             height="558.57001"
             width="400"
             y="441.42001"
             x="728.54999" />
          <g
             id="g4885">
            <path
               id="path4835"
               d="m 837.21,509.6 c 0,0 -32.71,26.131 -38.095,44.524 -2.3109,7.8945 -1.071,17.173 3.6334,24.333 4.406,6.7063 12.933,9.133 19.517,5.8186 4.9813,-2.5076 11.047,-11.582 11.047,-11.582 0,0 0.92077,12.081 -0.89948,17.562 -1.231,3.7063 -6.436,9.333 -6.436,9.333 l 11.447,0.0172 11.447,0.0172 c 0,0 -6.13,-5.5455 -7.523,-9.519 -1.887,-5.3823 -0.42988,-17.399 -0.42988,-17.399 0,0 4.9652,7.3372 9.5183,10.8 5.034,3.829 16.485,1.3431 21.136,-4.0139 5.5614,-6.4048 5.4243,-16.523 3.1003,-24.424 -5.4432,-18.504 -37.463,-45.469 -37.463,-45.469 z"
               sodipodi:nodetypes="casscacccacssac"
               style="fill:#000000;stroke:#000000;stroke-width:0.94122px"
               inkscape:connector-curvature="0" />
            <path
               id="path4839"
               sodipodi:nodetypes="casscacccacssac"
               style="fill:#000000;stroke:#000000;stroke-width:0.32964px"
               inkscape:connector-curvature="0"
               d="m 773.12,550.74 c 0,0 -11.456,9.1516 -13.342,15.594 -0.80934,2.7649 -0.37511,6.0143 1.2725,8.5222 1.5431,2.3487 4.5294,3.1986 6.8354,2.0378 1.7446,-0.87823 3.8688,-4.0564 3.8688,-4.0564 0,0 0.32247,4.2311 -0.31503,6.1505 -0.43112,1.298 -2.254,3.2687 -2.254,3.2687 l 4.009,0.006 4.009,0.006 c 0,0 -2.1469,-1.9422 -2.6348,-3.3338 -0.66089,-1.885 -0.15058,-6.0935 -0.15058,-6.0935 0,0 1.7389,2.5697 3.3336,3.7826 1.7631,1.341 5.7734,0.4704 7.4025,-1.4058 1.9478,-2.2432 1.8997,-5.7868 1.0858,-8.5538 -1.9063,-6.4807 -13.12,-15.924 -13.12,-15.924 z" />
            <text
               id="text4841"
               style="line-height:0%;font-family:sans-serif;letter-spacing:0px;word-spacing:0px;fill:#000000;stroke:#000000"
               xml:space="preserve"
               transform="matrix(0.73522,0.0011064,-0.0020468,1.3601,0,0)"
               y="389.24033"
               x="1037.8768">               <tspan
   id="tspan4843"
   sodipodi:role="line"
   x="1037.8768"
   style="font-size:54.405px;line-height:1.25;font-family:sans-serif;fill:#000000;stroke:#000000"
   y="389.24033">2</tspan>            </text>
            <path
               id="path4845"
               sodipodi:nodetypes="casscacccacssac"
               style="fill:#000000;stroke:#000000;stroke-width:0.94122px"
               inkscape:connector-curvature="0"
               d="m 1017.6,926.5 c 0,0 32.71,-26.131 38.095,-44.524 2.3109,-7.8945 1.0711,-17.173 -3.6334,-24.333 -4.406,-6.7063 -12.933,-9.133 -19.517,-5.8186 -4.9814,2.5076 -11.047,11.582 -11.047,11.582 0,0 -0.9207,-12.081 0.8995,-17.562 1.231,-3.7062 6.436,-9.333 6.436,-9.333 l -11.447,-0.0172 -11.447,-0.0172 c 0,0 6.1299,5.5455 7.523,9.519 1.887,5.3823 0.4299,17.399 0.4299,17.399 0,0 -4.9652,-7.3372 -9.5183,-10.8 -5.034,-3.829 -16.485,-1.3431 -21.136,4.0139 -5.5614,6.4048 -5.4243,16.523 -3.1003,24.424 5.4432,18.504 37.463,45.469 37.463,45.469 z" />
            <path
               id="path4853"
               d="m 1081.7,885.36 c 0,0 11.456,-9.1516 13.342,-15.594 0.8093,-2.7649 0.3751,-6.0143 -1.2726,-8.5222 -1.5431,-2.3487 -4.5294,-3.1986 -6.8353,-2.0378 -1.7447,0.87822 -3.8689,4.0564 -3.8689,4.0564 0,0 -0.3224,-4.2311 0.3151,-6.1505 0.4311,-1.298 2.254,-3.2687 2.254,-3.2687 l -4.009,-0.006 -4.0091,-0.006 c 0,0 2.1469,1.9422 2.6348,3.3338 0.6609,1.8851 0.1506,6.0935 0.1506,6.0935 0,0 -1.7389,-2.5697 -3.3336,-3.7826 -1.763,-1.341 -5.7734,-0.47039 -7.4025,1.4058 -1.9478,2.2431 -1.8997,5.7868 -1.0858,8.5538 1.9064,6.4807 13.12,15.924 13.12,15.924 z"
               sodipodi:nodetypes="casscacccacssac"
               style="fill:#000000;stroke:#000000;stroke-width:0.32964px"
               inkscape:connector-curvature="0" />
            <text
               id="text4855"
               style="line-height:0%;font-family:sans-serif;letter-spacing:0px;word-spacing:0px;fill:#000000;stroke:#000000"
               transform="matrix(-0.73522,-0.0011064,0.0020468,-1.3601,0,0)"
               xml:space="preserve"
               y="-664.56415"
               x="-1487.8511">               <tspan
   id="tspan4857"
   y="-664.56415"
   x="-1487.8511"
   style="font-size:54.405px;line-height:1.25;font-family:sans-serif;fill:#000000;stroke:#000000"
   sodipodi:role="line">2</tspan>            </text>
          </g>
        </g>
        <rect
           id="rect5157"
           style="opacity:0.7;fill:#808080;stroke:#808080;filter:url(#filter5151)"
           transform="matrix(0.49242,7.4102e-4,-7.4102e-4,0.49242,617.46,275.54)"
           rx="30"
           ry="30"
           height="558.57001"
           width="400"
           y="254.60001"
           x="-437.45001" />
        <g
           id="g5084"
           transform="matrix(0.49242,0,0,0.49242,23.601,142.59)">
          <rect
             id="rect4909"
             style="fill:#ffffff;stroke:#000000"
             transform="rotate(0.086224)"
             rx="30"
             ry="30"
             height="558.57001"
             width="400"
             y="501.32999"
             x="788.64001" />
          <g
             id="g5067">
            <g
               id="g5051">
              <g
                 id="g5036">
                <g
                   id="g5022">
                  <g
                     id="g5009">
                    <g
                       id="g4997">
                      <g
                         id="g4986">
                        <g
                           id="g4976">
                          <g
                             id="g4967">
                            <path
                               id="path4917"
                               d="m 987.59,737.09 c 0,0 -32.71,26.131 -38.095,44.524 -2.3109,7.8945 -1.071,17.173 3.6334,24.333 4.406,6.7063 12.933,9.133 19.517,5.8186 4.9813,-2.5076 11.047,-11.582 11.047,-11.582 0,0 0.92076,12.081 -0.89949,17.562 -1.231,3.7063 -6.436,9.333 -6.436,9.333 l 11.447,0.0172 11.447,0.0172 c 0,0 -6.13,-5.5455 -7.523,-9.519 -1.887,-5.3824 -0.42988,-17.399 -0.42988,-17.399 0,0 4.9652,7.3372 9.51827,10.8 5.034,3.8289 16.485,1.3431 21.136,-4.0139 5.5613,-6.4048 5.4242,-16.523 3.1002,-24.424 -5.4431,-18.504 -37.46297,-45.469 -37.46297,-45.469 z"
                               sodipodi:nodetypes="casscacccacssac"
                               style="fill:#ff0000;stroke:#ff0000;stroke-width:0.94122px"
                               inkscape:connector-curvature="0" />
                            <path
                               id="path4919"
                               sodipodi:nodetypes="casscacccacssac"
                               style="fill:#ff0000;stroke:#ff0000;stroke-width:0.32964px"
                               inkscape:connector-curvature="0"
                               d="m 833.12,610.74 c 0,0 -11.456,9.1516 -13.342,15.594 -0.80934,2.7649 -0.37511,6.0143 1.2725,8.5222 1.5431,2.3487 4.5294,3.1986 6.8354,2.0378 1.7446,-0.87823 3.8688,-4.0564 3.8688,-4.0564 0,0 0.32247,4.2311 -0.31503,6.1505 -0.43112,1.298 -2.254,3.2687 -2.254,3.2687 l 4.009,0.006 4.009,0.006 c 0,0 -2.1469,-1.9422 -2.6348,-3.3338 -0.66089,-1.885 -0.15058,-6.0935 -0.15058,-6.0935 0,0 1.7389,2.5697 3.3336,3.7826 1.7631,1.341 5.7734,0.4704 7.4025,-1.4058 1.9478,-2.2432 1.8997,-5.7868 1.0858,-8.5538 -1.9063,-6.4807 -13.12,-15.924 -13.12,-15.924 z" />
                            <text
                               id="text4921"
                               style="line-height:0%;font-family:sans-serif;letter-spacing:0px;word-spacing:0px;fill:#ff0000;stroke:#ff0000"
                               xml:space="preserve"
                               transform="matrix(0.73522,0.0011064,-0.0020468,1.3601,0,0)"
                               y="433.28738"
                               x="1119.6072">                               <tspan
   id="tspan4923"
   sodipodi:role="line"
   x="1119.6072"
   style="font-size:54.405px;line-height:1.25;font-family:sans-serif;fill:#ff0000;stroke:#ff0000"
   y="433.28738">A</tspan>                            </text>
                            <path
                               id="path4933"
                               d="m 1141.7,945.36 c 0,0 11.456,-9.1516 13.342,-15.594 0.8094,-2.7649 0.3751,-6.0143 -1.2725,-8.5222 -1.5431,-2.3487 -4.5294,-3.1986 -6.8354,-2.0378 -1.7446,0.87822 -3.8688,4.0564 -3.8688,4.0564 0,0 -0.3225,-4.2311 0.315,-6.1505 0.4312,-1.298 2.2541,-3.2687 2.2541,-3.2687 l -4.0091,-0.006 -4.009,-0.006 c 0,0 2.1469,1.9422 2.6348,3.3338 0.6609,1.8851 0.1506,6.0935 0.1506,6.0935 0,0 -1.739,-2.5697 -3.3336,-3.7826 -1.7631,-1.341 -5.7734,-0.47039 -7.4025,1.4058 -1.9478,2.2431 -1.8997,5.7868 -1.0858,8.5538 1.9063,6.4807 13.12,15.924 13.12,15.924 z"
                               sodipodi:nodetypes="casscacccacssac"
                               style="fill:#ff0000;stroke:#ff0000;stroke-width:0.32964px"
                               inkscape:connector-curvature="0" />
                            <text
                               id="text4935"
                               style="line-height:0%;font-family:sans-serif;letter-spacing:0px;word-spacing:0px;fill:#ff0000;stroke:#ff0000"
                               transform="matrix(-0.73522,-0.0011064,0.0020468,-1.3601,0,0)"
                               xml:space="preserve"
                               y="-708.61121"
                               x="-1569.5814">                               <tspan
   id="tspan4937"
   y="-708.61121"
   x="-1569.5814"
   style="font-size:54.405px;line-height:1.25;font-family:sans-serif;fill:#ff0000;stroke:#ff0000"
   sodipodi:role="line">A</tspan>                            </text>
                          </g>
                        </g>
                      </g>
                    </g>
                  </g>
                </g>
              </g>
            </g>
          </g>
        </g>
      </g>
      <g
         id="g3915"
         transform="matrix(0.54415,0,0,0.54415,84.19,-0.78061)" />
    </g>
  </g>
  <metadata
     id="metadata1">
    <rdf:RDF>
      <cc:Work>
        <dc:format>image/svg+xml</dc:format>
        <dc:type
           rdf:resource="http://purl.org/dc/dcmitype/StillImage" />
        <cc:license
           rdf:resource="http://creativecommons.org/licenses/publicdomain/" />
        <dc:publisher>
          <cc:Agent
             rdf:about="http://openclipart.org/">
            <dc:title>Openclipart</dc:title>
          </cc:Agent>
        </dc:publisher>
        <dc:title>Escalera de Poker</dc:title>
        <dc:date>2011-06-02T05:44:35</dc:date>
        <dc:description>Es una escalera de naipes o cartas de poker, pueden ser utilizadas para fines personales o comerciales.</dc:description>
        <dc:source>https://openclipart.org/detail/141889/escalera-de-poker-by-latinbooker</dc:source>
        <dc:creator>
          <cc:Agent>
            <dc:title>latinbooker</dc:title>
          </cc:Agent>
        </dc:creator>
        <dc:subject>
          <rdf:Bag>
            <rdf:li>baraja</rdf:li>
            <rdf:li>cards</rdf:li>
            <rdf:li>cartas</rdf:li>
            <rdf:li>jackpot</rdf:li>
            <rdf:li>latinbooker</rdf:li>
            <rdf:li>lucky</rdf:li>
            <rdf:li>naipe</rdf:li>
            <rdf:li>poker</rdf:li>
            <rdf:li>rehoboth</rdf:li>
            <rdf:li>suerte</rdf:li>
          </rdf:Bag>
        </dc:subject>
      </cc:Work>
      <cc:License
         rdf:about="http://creativecommons.org/licenses/publicdomain/">
        <cc:permits
           rdf:resource="http://creativecommons.org/ns#Reproduction" />
        <cc:permits
           rdf:resource="http://creativecommons.org/ns#Distribution" />
        <cc:permits
           rdf:resource="http://creativecommons.org/ns#DerivativeWorks" />
      </cc:License>
    </rdf:RDF>
  </metadata>
</svg>
