<?xml version="1.0" encoding="UTF-8"?>
<!DOCTYPE svg PUBLIC "-//W3C//DTD SVG 1.1//EN" "http://www.w3.org/Graphics/SVG/1.1/DTD/svg11.dtd">
<svg version="1.1" xmlns="http://www.w3.org/2000/svg" xmlns:xlink="http://www.w3.org/1999/xlink" x="0" y="0" width="1054" height="622" viewBox="0, 0, 1054, 622">
  <g id="Layer_1">
    <path d="M417.669,593.572 C470.673,595.142 476.806,604.556 504.298,585.318 C518.032,566.08 477.692,510.162 487.79,476.697 C504.556,421.126 491.29,404.08 487.321,345.603 C486.337,331.216 504.556,309.525 490.853,306.939 C438.024,296.947 409.399,415.279 398.407,457.439 C387.407,499.595 414.814,557.505 417.669,593.572" fill="#92A67E"/>
    <path d="M417.669,593.572 C470.673,595.142 476.806,604.556 504.298,585.318 C518.032,566.08 477.692,510.162 487.79,476.697 C504.556,421.126 491.29,404.08 487.321,345.603 C486.337,331.216 504.556,309.525 490.853,306.939 C438.024,296.947 409.399,415.279 398.407,457.439 C387.407,499.595 414.814,557.505 417.669,593.572 z" fill-opacity="0" stroke="#1A1919" stroke-width="7.087" stroke-linecap="round" stroke-linejoin="round"/>
    <path d="M434.489,605.923 C406.677,608.392 409.61,568.923 426.638,571.47 C438.29,573.208 448.888,604.642 434.489,605.923" fill="#FFFFFE"/>
    <path d="M434.489,605.923 C406.677,608.392 409.61,568.923 426.638,571.47 C438.29,573.208 448.888,604.642 434.489,605.923 z" fill-opacity="0" stroke="#1A1919" stroke-width="7.087" stroke-linecap="round" stroke-linejoin="round"/>
    <path d="M455.446,605.923 C437.196,604.134 434.087,566.775 456.743,570.181 C479.774,573.65 468.532,607.205 455.446,605.923" fill="#FFFFFE"/>
    <path d="M455.446,605.923 C437.196,604.134 434.087,566.775 456.743,570.181 C479.774,573.65 468.532,607.205 455.446,605.923 z" fill-opacity="0" stroke="#1A1919" stroke-width="7.087" stroke-linecap="round" stroke-linejoin="round"/>
    <path d="M482.946,604.642 C463.302,603.376 465.505,568.08 488.173,571.47 C505.196,574.009 493.474,605.318 482.946,604.642" fill="#FFFFFE"/>
    <path d="M482.946,604.642 C463.302,603.376 465.505,568.08 488.173,571.47 C505.196,574.009 493.474,605.318 482.946,604.642 z" fill-opacity="0" stroke="#1A1919" stroke-width="7.087" stroke-linecap="round" stroke-linejoin="round"/>
    <path d="M467.001,531.423 C476.064,526.783 489.774,546.47 475.556,556.373 C466.247,562.845 456.298,536.9 467.001,531.423" fill="#45523E"/>
    <path d="M423.368,509.603 C434.423,506.751 447.564,536.412 426.54,538.353 C413.931,539.525 410.31,512.974 423.368,509.603" fill="#45523E"/>
    <path d="M300.759,476.314 C319.177,488.861 344.583,491.763 368.173,491.138 C418.946,489.771 859.685,479.712 881.845,468.443 C897.517,432.076 916.247,393.845 925.567,363.931 C962.481,373.111 909.138,322.232 901.673,313.072 C891.579,300.669 850.72,302.142 836.931,300.767 C722.13,289.244 605.688,287.232 490.407,288.384 C438.103,288.912 385.431,289.9 333.411,295.759 C318.024,297.486 309.919,326.822 295.29,332.31 C265.231,343.58 238.923,335.072 218.298,326.822 C218.29,335.134 247.169,414.83 218.298,439.576 C263.669,460.201 287.157,445.416 289.802,454.693 C294.064,469.634 290.087,469.04 300.759,476.314" fill="#879A74"/>
    <path d="M738.044,413.443 C724.946,427.595 701.56,496.673 692.673,517.947 C680.567,546.919 686.208,569.458 687.575,596.275 C698.954,602.681 765.532,603.197 773.786,588.064 C778.306,579.771 775.595,548.58 778.825,523.455 C781.532,502.455 788.923,490.455 806.399,454.626" fill="#92A67E"/>
    <path d="M738.044,413.443 C724.946,427.595 701.56,496.673 692.673,517.947 C680.567,546.919 686.208,569.458 687.575,596.275 C698.954,602.681 765.532,603.197 773.786,588.064 C778.306,579.771 775.595,548.58 778.825,523.455 C781.532,502.455 788.923,490.455 806.399,454.626" fill-opacity="0" stroke="#1A1919" stroke-width="7.087" stroke-linecap="round" stroke-linejoin="round"/>
    <path d="M771.04,458.755 C799.478,476.587 849.946,480.486 874.657,453.775 C884.528,443.111 906.415,413.978 905.13,396.947 C903.419,374.439 904.45,343.416 885.407,336.462 C861.403,327.689 814.333,335.15 786.571,346.439 C776.989,350.337 760.61,360.369 752.911,366.634 C740.243,376.947 737.614,393.072 736.579,411.275 C735.173,435.853 751.978,446.802 771.04,458.755" fill="#869873"/>
    <path d="M546.79,307.505 C495.681,307.505 439.259,317.205 388.806,311.509 C362.806,308.58 335.349,283.611 316.224,314.107 C407.821,358.47 439.958,399.927 443.321,435.447 C445.954,463.287 428.649,474.08 396.353,480.142 C369.298,485.212 303.083,475.54 286.583,485.853 C413.458,544.158 819.462,511.908 879.665,471.189 C825.923,476.705 781.423,463.13 780.657,417.103 C780.075,382.142 851.376,325.447 896.376,301.392 C781.95,295.033 662.302,307.505 546.79,307.505" fill="#FACC62"/>
    <path d="M546.79,307.505 C495.681,307.505 439.259,317.205 388.806,311.509 C362.806,308.58 335.349,283.611 316.228,314.107 C356.196,333.47 405.634,340.134 421.782,381.822 C452.954,429.486 474.646,438.482 501.704,437.884 C519.661,437.494 533.864,425.486 552.345,424.654 C590.349,422.935 630.564,457.486 669.524,444.537 C683.923,439.751 691.118,430.564 708.103,429.603 C720.919,428.873 734.02,429.603 746.86,429.603 C764.985,429.603 765.274,424.431 777.911,409.322 C786.556,398.978 803.837,368.326 824.478,347.447 C842.61,329.119 892.165,329.353 896.376,301.392 C781.95,295.033 662.302,307.505 546.79,307.505" fill="#EABB55"/>
    <path d="M546.79,307.505 C495.681,307.505 439.259,317.205 388.806,311.509 C362.806,308.58 335.349,283.611 316.224,314.107 C407.821,358.47 438.134,390.767 441.493,426.283 C444.474,457.806 425.454,476.88 381.001,481.267 C353.321,484.009 293.919,464.771 285.673,486.775 C412.548,545.072 821.29,509.166 881.497,468.443 C827.751,473.962 779.587,466.802 778.825,420.775 C778.251,385.814 839.274,335.072 896.376,301.392 C781.95,295.033 662.302,307.505 546.79,307.505 z M456.165,515.201 C516.673,504.185 506.638,370.33 487.329,351.111 M713.298,355.697 C674.7,370.564 701.814,479.888 722.907,504.185 M597.341,362.115 C599.165,400.603 604.673,483.845 604.673,512.439" fill-opacity="0" stroke="#1A1919" stroke-width="7.087" stroke-linecap="round" stroke-linejoin="round"/>
    <path d="M1050.44,365.787 C1025.51,389.47 980.716,397.486 947.696,395.916 C931.47,395.134 915.349,391.763 902.446,381.322 C883.267,365.806 906.782,353.275 922.302,351.58 C940.79,349.548 954.864,361.619 985.235,369.029 C1003.63,373.509 1034.74,380.697 1050.44,365.787" fill="#879A74"/>
    <path d="M1050.44,365.787 C1019.08,395.572 974.548,388.978 948.415,377.701 C938.384,373.384 912.181,352.798 930.556,347.447 C944.306,361.205 972.61,365.943 985.235,369.029 C1003.63,373.509 1034.74,380.697 1050.44,365.787" fill="#92A67E"/>
    <g>
      <path d="M908.603,323.611 C922.614,344.939 984.165,387.779 1050.44,365.787 C1019.64,395.044 940.661,401.556 907.161,385.955 M322.79,344.681 C298.161,341.79 271.501,342.037 255.415,339.197 C232.048,335.072 208.673,326.822 174.282,313.072 C152.86,317.751 146.431,371.736 149.47,391.705 C154.36,423.9 195.583,433.923 224.243,440.025 C255.899,446.763 288.415,446.439 305.829,470.279" fill-opacity="0" stroke="#1A1919" stroke-width="7.087" stroke-linecap="round" stroke-linejoin="round"/>
      <path d="M126.169,473.951 C194.243,476.697 278.493,406.166 224.958,337.388 C208.099,315.728 189.333,303.521 161.899,299.314 C126.157,293.822 57.926,305.24 24.411,343.326 C-5.843,377.701 -1.703,420.33 27.172,482.205 C75.047,482.205 65.782,471.517 126.169,473.951" fill="#92A67E"/>
      <path d="M227.923,341.939 C210.048,313.072 188.61,303.416 161.907,299.314 C126.169,293.822 57.926,305.228 24.411,343.326 C-5.843,377.701 -1.703,420.33 27.172,482.205 C75.047,482.205 65.782,471.517 126.169,473.951 C160.544,475.337 201.794,467.064 241.657,406.58" fill-opacity="0" stroke="#1A1919" stroke-width="7.087" stroke-linecap="round" stroke-linejoin="round"/>
    </g>
    <path d="M51.922,340.564 C60.598,345.65 56.262,363.884 47.797,361.189 C37.094,357.779 42.446,335.005 51.922,340.564" fill="#1A1919"/>
    <path d="M102.782,339.197 C114.282,340.357 112.419,361.205 100.036,361.189 C93.723,361.177 89.047,337.818 102.782,339.197" fill="#1A1919"/>
    <path d="M909.009,492.283 C917.638,464.08 926.622,435.904 929.282,406.345 C930.368,394.29 932.564,369.283 919.06,361.646 C907.47,355.083 873.962,366.021 864.54,372.193 C819.071,401.986 808.513,447.83 806.337,501.439 C805.22,528.99 809.782,560.376 815.505,602.283 C828.251,607.701 897.548,607.33 911.286,597.689 C927.782,575.689 895.603,536.126 909.009,492.283" fill="#92A67E"/>
    <path d="M367.829,519.603 C370.7,505.345 376.13,490.65 384.751,478.822 C390.368,471.126 410.544,454.837 414.923,446.439 C424.079,428.884 409.243,408.677 392.915,399.681 C370.243,387.212 322.927,398.54 307.81,418.111 C290.642,440.318 280.478,470.837 273.985,497.72 C266.755,527.65 268.591,575.525 271.938,603.111 C298.138,601.111 350.392,608.97 357.169,603.197 C370.817,597.427 361.899,549.029 367.829,519.603" fill="#92A67E"/>
    <path d="M703.985,611.431 C676.181,613.892 679.11,574.431 696.142,576.97 C707.79,578.716 718.392,610.15 703.985,611.431" fill="#FFFFFE"/>
    <path d="M703.985,611.431 C676.181,613.892 679.11,574.431 696.142,576.97 C707.79,578.716 718.392,610.15 703.985,611.431 z" fill-opacity="0" stroke="#1A1919" stroke-width="7.087" stroke-linecap="round" stroke-linejoin="round"/>
    <path d="M724.946,611.431 C706.696,609.642 703.587,572.271 726.247,575.689 C749.27,579.158 738.028,612.712 724.946,611.431" fill="#FFFFFE"/>
    <path d="M724.946,611.431 C706.696,609.642 703.587,572.271 726.247,575.689 C749.27,579.158 738.028,612.712 724.946,611.431 z" fill-opacity="0" stroke="#1A1919" stroke-width="7.087" stroke-linecap="round" stroke-linejoin="round"/>
    <path d="M752.446,610.15 C732.798,608.884 735.009,573.587 757.669,576.97 C774.696,579.517 762.978,610.826 752.446,610.15" fill="#FFFFFE"/>
    <path d="M752.446,610.15 C732.798,608.884 735.009,573.587 757.669,576.97 C774.696,579.517 762.978,610.826 752.446,610.15 z" fill-opacity="0" stroke="#1A1919" stroke-width="7.087" stroke-linecap="round" stroke-linejoin="round"/>
    <path d="M226.54,315.814 C445.173,398.326 749.673,373.873 954.509,329.322 C914.177,289.72 896.423,179.716 846.442,112.08 C792.77,39.446 688.372,2.618 588.384,4.278 C478.696,6.103 375.466,48.825 325.462,116.462 C281.247,176.283 263.63,267.974 226.54,315.814" fill="#B9B75F"/>
    <path d="M225.181,311.685 C286.353,347.447 343.868,366.998 419.04,373.58 C596.017,389.08 810.548,366.673 953.181,329.603 C936.501,310.775 956.157,347.818 925.505,285.111 C889.634,313.033 802.235,312.427 747.653,323.619 C689.333,335.572 645.431,334.642 600.993,338.287 C559.399,341.697 476.11,332.876 393.825,321.783 C338.138,314.283 287.235,305.943 256.325,272.271 C230.517,328.376 262.274,267.728 225.181,311.685" fill="#ABA75C"/>
    <path d="M486.755,19.13 C486.755,19.13 489.47,159.912 492.681,181.369 C516.899,199.509 565.79,235.279 591.079,254.517 C617.419,236.908 648.064,210.505 683.528,180.81 C681.931,154.404 671.188,15.274 671.188,15.274" fill-opacity="0" stroke="#1A1919" stroke-width="7.087"/>
    <path d="M591.599,256.705 L597.462,374.939 M493.212,185.759 L369.548,255.33 C369.548,255.33 318.688,203.552 291.181,189.326 M683.528,180.81 L810.95,245.181 L881.931,182.47 M809.353,245.181 C822.243,253.423 835.915,328.189 840.755,352.935 M369.548,255.33 C359.868,273.462 347.302,349.654 348.923,361.189" fill-opacity="0" stroke="#1A1919" stroke-width="7.087" stroke-linecap="round" stroke-linejoin="round"/>
    <path d="M326.923,339.197 C338.282,315.103 345.642,277.986 348.923,259.447 C332.431,238.822 307.673,225.064 285.134,206.123 C279.657,213.65 276.97,213.65 276.532,222.603 C318.474,252.322 324.114,255.65 331.04,263.572 C333.532,274.33 322.79,310.306 320.052,319.939 C307.673,313.072 269.165,292.037 250.61,283.509 C247.368,294.509 247.868,291.072 242.36,296.568 C268.493,313.072 289.79,322.701 326.923,339.197" fill="#001F12"/>
    <path d="M592.399,226.197 C618.509,211.072 646.036,190.4 662.603,168.181 C659.505,139.412 659.411,44.755 649.661,7.571 C639.161,7.571 641.064,3.724 630.31,6.478 C638.915,53.778 644.071,146.72 643.251,158.279 C639.009,169.685 615.438,188.974 591.618,200.072 C574.435,194.587 554.239,183.544 527.356,160.458 C527.356,153.662 523.188,52.626 526.013,9.763 C516.306,8.669 519.942,12.751 507.048,16.071 C502.731,53.446 507.751,148.38 510.989,169.275 C533.564,190.173 577.165,218.99 592.399,226.197" fill="#001F12"/>
    <path d="M367.938,233.064 C393.747,225.357 451.13,192.201 472.239,174.228 C476.524,145.623 464.181,64.208 464.181,25.712 C451.263,27.907 451.013,29.024 442.407,35.614 C451.286,77.685 453.978,152.048 454.501,162.669 C447.521,172.568 396.989,204.462 371.181,208.876 C352.368,199.513 319.853,167.341 306.931,148.634 C300.493,157.439 305.06,153.29 296.458,166.501 C308.528,183.279 355.048,222.064 367.938,233.064" fill="#001F12"/>
    <path d="M856.938,326.009 C841.665,293.65 835.505,261.744 833.552,250.658 C854.517,227.017 870.634,215.458 892.134,196.22 C897.618,203.759 896.47,205.564 898.064,215.458 C881.052,225.064 860.466,243.275 853.54,251.197 C851.052,261.958 856.485,295.29 867.419,310.345 C883.251,311.666 913.884,302.361 932.438,293.833 C935.681,304.83 935.681,295.212 938.892,309.525 C930.204,310.845 881.677,326.009 856.938,326.009" fill="#001F12"/>
    <path d="M808.806,220.97 C785.868,212.005 723.419,180.537 703.435,164.861 C698.024,136.458 699.899,59.837 698.384,21.368 C711.384,23.036 711.677,24.138 720.532,30.368 C720.169,72.435 722.899,141.037 722.79,151.673 C730.153,161.279 788.923,196.201 806.806,196.201 C825.231,186.072 848.161,156.962 860.329,137.736 C867.106,146.267 862.392,142.302 871.501,155.158 C859.048,176.955 821.259,209.451 808.806,220.97" fill="#001F12"/>
    <path d="M573.337,272.681 C560.427,257.83 527.083,233.064 489.45,212.166 C470.114,220.384 412.048,252.818 392.673,269.341 C384.61,284.173 375.466,317.74 375.466,339.224 C386.767,347.466 536.208,361.775 573.317,351.869 C579.673,327.205 574.161,280.955 573.337,272.681 z M555.31,334.275 C524.661,341.697 435.954,335.904 398.064,326.009 C398.064,312.798 402.353,295.748 408.81,279.244 C426.54,267.689 464.724,242.935 487.302,233.064 C516.337,248.47 547.278,264.158 556.13,278.169 C557.224,305.669 558.552,316.111 555.31,334.275" fill="#001F12"/>
    <path d="M618.509,348.56 C655.806,357.673 803.329,338.978 814.462,330.501 C814.024,309.04 804.204,275.669 795.845,261.001 C776.149,244.888 715.364,217.033 695.868,209.216 C657.47,224.9 626.587,253.587 613.97,268.705 C613.317,276.998 611.657,324.029 618.509,348.56 z M632.692,276.556 C641.267,262.369 668.259,240.337 697.087,229.83 C715.407,237.4 749.509,250.279 779.919,271.244 C786.704,287.611 791.337,304.564 791.61,317.767 C753.923,328.462 665.349,336.126 634.556,329.341 C630.946,311.255 629.423,301.126 632.692,276.556" fill="#001F12"/>
    <path d="M225.181,313.072 C280.181,339.197 310.7,357.662 351.665,363.951 C564.724,396.634 782.435,373.736 954.509,329.322 C914.177,289.72 899.665,183.005 849.685,115.365 C796.013,42.735 688.372,2.618 588.384,4.278 C478.696,6.103 375.466,48.825 325.462,116.462 C281.247,176.283 270.349,280.083 225.181,313.072 z" fill-opacity="0" stroke="#1A1919" stroke-width="7.087" stroke-linecap="round" stroke-linejoin="round"/>
    <path d="M3.786,407.935 C6.547,443.677 15.282,474.81 35.422,495.931 C42.301,473.806 43.235,465.525 60.544,453.697 C73.59,444.79 98.489,446.814 94.54,423.072" fill="#92A67E"/>
    <path d="M3.786,407.935 C6.547,443.677 15.282,474.81 35.422,495.931 C42.301,473.806 43.235,465.525 60.544,453.697 C73.59,444.79 98.489,446.814 94.54,423.072" fill-opacity="0" stroke="#1A1919" stroke-width="7.087" stroke-linecap="round" stroke-linejoin="round"/>
    <path d="M291.458,530.298 C302.564,529.126 303.571,556.431 289.438,557.79 C277.118,558.978 278.333,531.673 291.458,530.298" fill="#505E48"/>
    <path d="M357.161,464.341 C372.29,463.455 372.302,491.49 357.165,490.455 C340.388,489.302 339.278,465.384 357.161,464.341" fill="#45523E"/>
    <path d="M300.782,461.556 C315.915,460.396 306.286,489.068 292.536,491.814 C286.985,492.923 282.907,462.947 300.782,461.556" fill="#45523E"/>
    <path d="M345.271,540.005 C354.786,539.283 359.704,558.834 343.825,561.986 C333.435,564.056 334.009,540.853 345.271,540.005" fill="#45523E"/>
    <path d="M163.747,350.251 C169.774,349.79 179.161,358.65 178.415,365.33 C177.032,377.701 169.103,380.669 163.278,381.822 C152.888,383.892 152.493,351.099 163.747,350.251" fill="#505E48"/>
    <path d="M888.298,439.615 C901.188,435.357 908.669,461.634 892.243,466.931 C877.899,471.548 873.056,444.634 888.298,439.615" fill="#45523E"/>
    <path d="M837.04,524.81 C852.2,525.572 846.368,561.08 831.536,557.806 C815.087,554.185 819.134,523.912 837.04,524.81" fill="#45523E"/>
    <path d="M831.532,468.431 C845.985,463.806 847.188,496.072 829.157,497.517 C823.517,497.962 814.446,473.892 831.532,468.431" fill="#45523E"/>
    <path d="M878.005,522.962 C888.384,519.537 899.763,543.22 883.056,551.439 C872.118,556.814 865.739,527.017 878.005,522.962" fill="#505E48"/>
    <path d="M328.11,498.404 C337.173,493.775 350.884,513.462 336.665,523.365 C327.36,529.837 317.403,503.884 328.11,498.404" fill="#505E48"/>
    <path d="M174.298,343.345 C165.392,337.181 160.622,320.306 167.235,316.931 C176.298,312.29 206.392,330.681 192.173,340.58 C188.618,343.064 179.821,347.166 174.298,343.345" fill="#45523E"/>
    <path d="M122.048,329.564 C111.896,324.869 107.392,315.994 113.618,312.798 C118.688,310.201 141.767,307.408 148.181,314.447 C153.251,320.017 151.692,326.58 145.415,330.955 C141.524,333.658 129.333,332.947 122.048,329.564" fill="#505E48"/>
    <path d="M702.849,529.197 C713.028,529.197 716.259,552.962 699.087,555.306 C687.849,556.83 690.821,529.197 702.849,529.197" fill="#45523E"/>
    <path d="M873.341,481.048 C883.524,481.06 886.751,504.83 869.579,507.166 C858.345,508.689 861.314,481.048 873.341,481.048" fill="#505E48"/>
    <path d="M754.704,515.408 C765.837,517.896 764.06,550.29 744.45,542.455 C732.681,537.759 741.536,512.466 754.704,515.408" fill="#45523E"/>
    <g>
      <path d="M234.79,442.322 C247.165,435.423 262.282,425.826 266.403,410.697 M318.575,404.908 C304.493,418.56 284.392,454.603 273.985,497.72 C266.755,527.65 268.591,575.525 271.938,603.111 C298.138,601.111 350.392,608.97 357.169,603.197 C370.817,597.427 361.899,549.029 367.829,519.603 C372.814,494.869 385.571,470.876 413.931,445.708" fill-opacity="0" stroke="#1A1919" stroke-width="7.087" stroke-linecap="round" stroke-linejoin="round"/>
      <path d="M289.786,618.314 C260.583,620.97 263.665,578.455 281.544,581.197 C293.774,583.072 304.907,616.939 289.786,618.314" fill="#FFFFFE"/>
      <path d="M289.786,618.314 C260.583,620.97 263.665,578.455 281.544,581.197 C293.774,583.072 304.907,616.939 289.786,618.314 z" fill-opacity="0" stroke="#1A1919" stroke-width="7.087" stroke-linecap="round" stroke-linejoin="round"/>
    </g>
    <path d="M311.798,618.314 C292.634,616.392 289.368,576.138 313.161,579.81 C337.341,583.548 325.532,619.705 311.798,618.314" fill="#FFFFFE"/>
    <path d="M311.798,618.314 C292.634,616.392 289.368,576.138 313.161,579.81 C337.341,583.548 325.532,619.705 311.798,618.314 z" fill-opacity="0" stroke="#1A1919" stroke-width="7.087" stroke-linecap="round" stroke-linejoin="round"/>
    <path d="M340.673,616.939 C320.048,615.572 322.36,577.544 346.157,581.197 C364.04,583.939 351.728,617.673 340.673,616.939" fill="#FFFFFE"/>
    <g>
      <path d="M340.673,616.939 C320.048,615.572 322.36,577.544 346.157,581.197 C364.04,583.939 351.728,617.673 340.673,616.939 z M832.001,409.783 C819.126,424.587 807.188,480.376 806.337,501.439 C805.22,528.99 809.782,560.376 815.505,602.283 C828.251,607.701 897.548,607.33 911.286,597.689 C927.782,575.689 895.603,536.126 909.009,492.283 C913.017,479.197 938.345,407.935 927.337,365.775" fill-opacity="0" stroke="#1A1919" stroke-width="7.087" stroke-linecap="round" stroke-linejoin="round"/>
      <path d="M837.04,618.337 C807.837,620.994 810.915,578.47 828.798,581.216 C841.032,583.091 852.165,616.958 837.04,618.337" fill="#FFFFFE"/>
      <path d="M837.04,618.337 C807.837,620.994 810.915,578.47 828.798,581.216 C841.032,583.091 852.165,616.958 837.04,618.337 z" fill-opacity="0" stroke="#1A1919" stroke-width="7.087" stroke-linecap="round" stroke-linejoin="round"/>
    </g>
    <path d="M859.048,618.337 C839.892,616.412 836.618,576.158 860.411,579.83 C884.591,583.572 872.79,619.72 859.048,618.337" fill="#FFFFFE"/>
    <path d="M859.048,618.337 C839.892,616.412 836.618,576.158 860.411,579.83 C884.591,583.572 872.79,619.72 859.048,618.337 z" fill-opacity="0" stroke="#1A1919" stroke-width="7.087" stroke-linecap="round" stroke-linejoin="round"/>
    <path d="M887.927,616.958 C867.653,612.916 869.618,577.564 893.415,581.216 C911.298,583.962 901.673,619.705 887.927,616.958" fill="#FFFFFE"/>
    <path d="M887.927,616.958 C867.653,612.916 869.618,577.564 893.415,581.216 C911.298,583.962 901.673,619.705 887.927,616.958 z" fill-opacity="0" stroke="#1A1919" stroke-width="7.087" stroke-linecap="round" stroke-linejoin="round"/>
  </g>
</svg>
