<?xml version="1.0" encoding="UTF-8" standalone="no"?>
<!-- Created with Inkscape (http://www.inkscape.org/) -->

<svg
   width="60.598301"
   height="46.125256"
   id="svg14114"
   version="1.1"
   inkscape:version="1.4.3 (0d15f75, 2025-12-25)"
   sodipodi:docname="train_backward_red.svg"
   viewBox="0 0 56.810905 43.242428"
   xmlns:inkscape="http://www.inkscape.org/namespaces/inkscape"
   xmlns:sodipodi="http://sodipodi.sourceforge.net/DTD/sodipodi-0.dtd"
   xmlns="http://www.w3.org/2000/svg"
   xmlns:svg="http://www.w3.org/2000/svg"
   xmlns:rdf="http://www.w3.org/1999/02/22-rdf-syntax-ns#"
   xmlns:cc="http://creativecommons.org/ns#"
   xmlns:dc="http://purl.org/dc/elements/1.1/">
  <title
     id="title14219">Locomotive outlines</title>
  <defs
     id="defs14116" />
  <sodipodi:namedview
     id="base"
     pagecolor="#ffffff"
     bordercolor="#666666"
     borderopacity="1.0"
     inkscape:pageopacity="0.0"
     inkscape:pageshadow="2"
     inkscape:zoom="10.96849"
     inkscape:cx="28.992141"
     inkscape:cy="20.969159"
     inkscape:document-units="px"
     inkscape:current-layer="layer1"
     showgrid="false"
     fit-margin-top="10"
     fit-margin-right="10"
     fit-margin-bottom="10"
     fit-margin-left="10"
     inkscape:window-width="1258"
     inkscape:window-height="657"
     inkscape:window-x="182"
     inkscape:window-y="126"
     inkscape:window-maximized="0"
     inkscape:showpageshadow="2"
     inkscape:pagecheckerboard="0"
     inkscape:deskcolor="#d1d1d1" />
  <metadata
     id="metadata14119">
    <rdf:RDF>
      <cc:Work
         rdf:about="">
        <dc:format>image/svg+xml</dc:format>
        <dc:type
           rdf:resource="http://purl.org/dc/dcmitype/StillImage" />
        <cc:license
           rdf:resource="http://creativecommons.org/licenses/publicdomain/" />
        <dc:title>Locomotive outlines</dc:title>
        <dc:date>2015-07-01</dc:date>
        <dc:creator>
          <cc:Agent>
            <dc:title>m1981</dc:title>
          </cc:Agent>
        </dc:creator>
        <dc:subject>
          <rdf:Bag>
            <rdf:li>locomotive</rdf:li>
            <rdf:li>train</rdf:li>
            <rdf:li>toy</rdf:li>
            <rdf:li>outlines</rdf:li>
          </rdf:Bag>
        </dc:subject>
      </cc:Work>
      <cc:License
         rdf:about="http://creativecommons.org/licenses/publicdomain/">
        <cc:permits
           rdf:resource="http://creativecommons.org/ns#Reproduction" />
        <cc:permits
           rdf:resource="http://creativecommons.org/ns#Distribution" />
        <cc:permits
           rdf:resource="http://creativecommons.org/ns#DerivativeWorks" />
      </cc:License>
    </rdf:RDF>
  </metadata>
  <g
     inkscape:label="Calque 1"
     inkscape:groupmode="layer"
     id="layer1"
     transform="translate(-346.58899,-510.7335)">
    <g
       id="g13192"
       transform="translate(253.99529,323.45256)"
       style="fill:none;stroke:#000000;stroke-width:0.8;stroke-miterlimit:4;stroke-dasharray:none">
      <path
         inkscape:connector-curvature="0"
         id="path13195"
         d="m 112.39034,197.69109 -1.375,1.375 c -0.191,0.188 -0.191,0.4995 0,0.6875 l 1.4063,1.40625 h 0.0625 v 5.0625 l 3.9688,0.0312 v -5.09375 h 0.0624 l 1.4063,-1.40625 c 0.191,-0.188 0.191,-0.4995 0,-0.6875 l -1.4063,-1.375 h -4.125 z"
         style="color:#000000;display:inline;overflow:visible;visibility:visible;fill:none;stroke:#000000;stroke-width:0.8;stroke-linecap:round;stroke-linejoin:round;stroke-miterlimit:4;stroke-dasharray:none;stroke-dashoffset:0;stroke-opacity:1;marker:none;enable-background:accumulate" />
      <path
         sodipodi:nodetypes="cccccssssccc"
         inkscape:connector-curvature="0"
         id="path13197"
         d="m 115.32793,217.14915 h -1.57031 m -3.96846,-3.9008 h 11.79872 m 8.53693,0 h 3.83671 c 0.54026,0 0.9752,0.43494 0.9752,0.9752 v 1.9504 c 0,0.54026 -0.43494,0.9752 -0.9752,0.9752 h -3.7039 m -8.91406,0 h -1.88281"
         style="color:#000000;display:inline;overflow:visible;visibility:visible;fill:none;stroke:#000000;stroke-width:0.8;stroke-linecap:round;stroke-linejoin:round;stroke-miterlimit:4;stroke-dasharray:none;stroke-dashoffset:0;stroke-opacity:1;marker:none;enable-background:accumulate" />
      <path
         sodipodi:nodetypes="csssc"
         inkscape:connector-curvature="0"
         id="path13199"
         d="m 121.42168,213.24836 h -11.32556 c -0.74837,0 -1.35085,-1.56197 -1.35085,-3.50219 0,-1.94021 0.60248,-3.50219 1.35085,-3.50219 h 12.21619"
         style="color:#000000;display:inline;overflow:visible;visibility:visible;fill:none;stroke:#000000;stroke-width:0.8;stroke-linecap:round;stroke-linejoin:round;stroke-miterlimit:4;stroke-dasharray:none;stroke-dashoffset:0;stroke-opacity:1;marker:none;enable-background:accumulate" />
      <path
         sodipodi:nodetypes="csssssssc"
         inkscape:connector-curvature="0"
         id="path13201"
         d="m 130.65594,200.98797 3.422,-0.54688 c 0.5334,-0.0853 0.9687,-0.42849 0.9687,-0.96875 v -0.8125 c 0,-0.54026 -0.4285,-0.96875 -0.9687,-0.96875 h -11.7813 c -0.5403,0 -0.9687,0.42849 -0.9687,0.96875 v 1.46875 c 0,0.54026 0.4284,0.96875 0.9687,0.96875"
         style="color:#000000;display:inline;overflow:visible;visibility:visible;fill:none;stroke:#000000;stroke-width:0.8;stroke-linecap:round;stroke-linejoin:round;stroke-miterlimit:4;stroke-dasharray:none;stroke-dashoffset:0;stroke-opacity:1;marker:none;enable-background:accumulate" />
      <path
         sodipodi:nodetypes="ccccccsssssssss"
         inkscape:connector-curvature="0"
         id="path13203"
         style="color:#000000;display:inline;overflow:visible;visibility:visible;fill:none;stroke:#000000;stroke-width:0.8;stroke-linecap:round;stroke-linejoin:round;stroke-miterlimit:4;stroke-dasharray:none;stroke-dashoffset:0;stroke-opacity:1;marker:none;enable-background:accumulate"
         d="m 134.25441,212.56279 v -4.84268 c 0,0 -3.62392,0.30793 -3.62392,-3.11569 v -3.46222 c -1.25901,-1.43178 -7.1857,-1.51198 -8.33189,0 v 11.0567 m 2.24759,-9.67775 h 3.91934 c 0.23892,0 0.42665,0.18771 0.42665,0.42665 v 3.87157 c 0,0.23892 -0.18773,0.43422 -0.42665,0.43422 h -3.91934 c -0.23892,0 -0.42666,-0.1953 -0.42666,-0.43422 v -3.87157 c 0,-0.23894 0.18774,-0.42665 0.42666,-0.42665 z" />
      <g
         transform="matrix(0.87481441,0,0,0.87481441,17.66803,26.670841)"
         id="g13205"
         style="fill:none;stroke:#000000;stroke-width:0.91448;stroke-miterlimit:4;stroke-dasharray:none">
        <path
           sodipodi:open="true"
           sodipodi:end="5.4977867"
           sodipodi:start="5.7595865"
           sodipodi:cx="94"
           sodipodi:cy="110"
           transform="matrix(0.39017011,0,0,0.39017011,86.982137,172.75903)"
           d="m 106.12436,103 a 14,14 0 0 1 -4.34638,18.64057 14,14 0 0 1 -18.884925,-3.11791 14,14 0 0 1 1.8761,-19.048414 14,14 0 0 1 19.130335,0.626254"
           sodipodi:type="arc"
           style="color:#000000;display:inline;overflow:visible;visibility:visible;fill:none;stroke:#000000;stroke-width:2.3438;stroke-linecap:round;stroke-linejoin:round;stroke-miterlimit:4;stroke-dasharray:none;stroke-dashoffset:0;stroke-opacity:1;marker:none;enable-background:accumulate"
           sodipodi:ry="14"
           sodipodi:rx="14"
           id="path13207"
           sodipodi:arc-type="arc" />
        <path
           sodipodi:open="true"
           sodipodi:end="0.52359879"
           sodipodi:start="1.8325957"
           sodipodi:cx="94"
           sodipodi:cy="110"
           transform="matrix(0.08954474,0,0,0.08954474,115.24055,205.82718)"
           d="M 90.376534,123.52296 A 14,14 0 0 1 80.029975,110.91564 14,14 0 0 1 88.642432,97.065687 14,14 0 0 1 104.52576,100.76916 14,14 0 0 1 106.12436,117"
           sodipodi:type="arc"
           style="color:#000000;display:inline;overflow:visible;visibility:visible;fill:none;stroke:#000000;stroke-width:10.2125;stroke-linecap:round;stroke-linejoin:round;stroke-miterlimit:4;stroke-dasharray:none;stroke-dashoffset:0;stroke-opacity:1;marker:none;enable-background:accumulate"
           sodipodi:ry="14"
           sodipodi:rx="14"
           id="path13209"
           sodipodi:arc-type="arc" />
        <path
           sodipodi:open="true"
           sodipodi:end="2.4742059"
           sodipodi:start="4.4595058"
           sodipodi:cx="94"
           sodipodi:cy="110"
           transform="matrix(0.24715883,0,0,0.24657135,100.3308,188.57727)"
           d="m 90.497249,96.445269 a 14,14 0 0 1 16.445881,8.218491 14,14 0 0 1 -5.8751,17.42106 14,14 0 0 1 -18.064215,-3.41972"
           sodipodi:type="arc"
           style="color:#000000;display:inline;overflow:visible;visibility:visible;fill:none;stroke:#000000;stroke-width:3.70437;stroke-linecap:round;stroke-linejoin:round;stroke-miterlimit:4;stroke-dasharray:none;stroke-dashoffset:0;stroke-opacity:1;marker:none;enable-background:accumulate"
           sodipodi:ry="14"
           sodipodi:rx="14"
           id="path13211"
           sodipodi:arc-type="arc" />
      </g>
      <path
         sodipodi:open="true"
         sodipodi:end="2.8797933"
         sodipodi:start="3.403392"
         id="path13213"
         sodipodi:rx="14"
         sodipodi:ry="14"
         style="color:#000000;display:inline;overflow:visible;visibility:visible;fill:none;stroke:#000000;stroke-width:5.10681;stroke-linecap:round;stroke-linejoin:round;stroke-miterlimit:4;stroke-dasharray:none;stroke-dashoffset:0;stroke-opacity:1;marker:none;enable-background:accumulate"
         sodipodi:type="arc"
         d="M 80.477038,106.37653 A 14,14 0 0 1 95.827366,96.119772 14,14 0 0 1 108,110 14,14 0 0 1 95.827366,123.88023 14,14 0 0 1 80.477038,113.62347"
         transform="matrix(0.15869278,0,0,0.15464073,96.686631,200.90657)"
         sodipodi:cy="110"
         sodipodi:cx="94"
         sodipodi:arc-type="arc" />
      <path
         sodipodi:open="true"
         sodipodi:end="5.3545348"
         sodipodi:start="0"
         id="path13215"
         sodipodi:rx="14"
         sodipodi:ry="14"
         style="color:#000000;display:inline;overflow:visible;visibility:visible;fill:none;stroke:#000000;stroke-width:5.10681;stroke-linecap:round;stroke-linejoin:round;stroke-miterlimit:4;stroke-dasharray:none;stroke-dashoffset:0;stroke-opacity:1;marker:none;enable-background:accumulate"
         sodipodi:type="arc"
         d="M 108,110 A 14,14 0 0 1 97.221157,123.6244 14,14 0 0 1 81.482265,116.26947 14,14 0 0 1 85.018615,99.2606 14,14 0 0 1 102.38481,98.788626"
         transform="matrix(0.15869278,0,0,0.15464073,102.4408,200.90657)"
         sodipodi:cy="110"
         sodipodi:cx="94"
         sodipodi:arc-type="arc" />
      <path
         sodipodi:open="true"
         sodipodi:end="0.52359879"
         sodipodi:start="2.3561945"
         id="path13217"
         sodipodi:rx="14"
         sodipodi:ry="14"
         style="color:#000000;display:inline;overflow:visible;visibility:visible;fill:none;stroke:#000000;stroke-width:16.1128;stroke-linecap:round;stroke-linejoin:round;stroke-miterlimit:4;stroke-dasharray:none;stroke-dashoffset:0;stroke-opacity:1;marker:none;enable-background:accumulate"
         sodipodi:type="arc"
         d="M 84.100505,119.89949 A 14,14 0 0 1 83.275378,101.00097 14,14 0 0 1 102.03007,98.531871 14,14 0 0 1 106.12436,117"
         transform="matrix(0.05040213,0,0,0.04890891,112.62,212.53702)"
         sodipodi:cy="110"
         sodipodi:cx="94"
         sodipodi:arc-type="arc" />
      <path
         sodipodi:nodetypes="cscc"
         inkscape:connector-curvature="0"
         id="path13219"
         d="m 108.94908,211.90284 -5.22079,5.35139 c -0.49245,0.50476 -0.72233,1.1635 -0.72233,1.82224 h 6.67711"
         style="color:#000000;display:inline;overflow:visible;visibility:visible;fill:none;stroke:#000000;stroke-width:0.8;stroke-linecap:round;stroke-linejoin:round;stroke-miterlimit:4;stroke-dasharray:none;stroke-dashoffset:0;stroke-opacity:1;marker:none;enable-background:accumulate" />
      <path
         inkscape:connector-curvature="0"
         id="path13221"
         d="m 109.11272,212.07323 h 3.9062"
         style="color:#000000;display:inline;overflow:visible;visibility:visible;fill:none;stroke:#000000;stroke-width:0.8;stroke-linecap:round;stroke-linejoin:round;stroke-miterlimit:4;stroke-dasharray:none;stroke-dashoffset:0;stroke-opacity:1;marker:none;enable-background:accumulate" />
      <path
         inkscape:connector-curvature="0"
         id="path13223"
         d="m 109.08865,210.91866 h 1.58194"
         style="color:#000000;display:inline;overflow:visible;visibility:visible;fill:none;stroke:#000000;stroke-width:0.8;stroke-linecap:round;stroke-linejoin:round;stroke-miterlimit:4;stroke-dasharray:none;stroke-dashoffset:0;stroke-opacity:1;marker:none;enable-background:accumulate" />
      <path
         inkscape:connector-curvature="0"
         id="path13225"
         d="m 108.77841,209.76409 h 0.61066"
         style="color:#000000;display:inline;overflow:visible;visibility:visible;fill:none;stroke:#000000;stroke-width:0.8;stroke-linecap:round;stroke-linejoin:round;stroke-miterlimit:4;stroke-dasharray:none;stroke-dashoffset:0;stroke-opacity:1;marker:none;enable-background:accumulate" />
      <path
         style="color:#000000;display:inline;overflow:visible;visibility:visible;fill:none;stroke:#000000;stroke-width:0.8;stroke-linecap:round;stroke-linejoin:round;stroke-miterlimit:4;stroke-dasharray:none;stroke-dashoffset:0;stroke-opacity:1;marker:none;enable-background:accumulate"
         d="m 104.90455,217.92896 3.5688,-3.5688"
         id="path13227"
         inkscape:connector-curvature="0" />
      <path
         inkscape:connector-curvature="0"
         id="path13229"
         d="m 106.7828,217.92896 2.11039,-2.11039"
         style="color:#000000;display:inline;overflow:visible;visibility:visible;fill:none;stroke:#000000;stroke-width:0.8;stroke-linecap:round;stroke-linejoin:round;stroke-miterlimit:4;stroke-dasharray:none;stroke-dashoffset:0;stroke-opacity:1;marker:none;enable-background:accumulate" />
      <path
         sodipodi:nodetypes="ccccc"
         inkscape:connector-curvature="0"
         style="color:#000000;display:inline;overflow:visible;visibility:visible;fill:none;stroke:#000000;stroke-width:0.8;stroke-linecap:round;stroke-linejoin:round;stroke-miterlimit:4;stroke-dasharray:none;stroke-dashoffset:0;stroke-opacity:1;marker:none;enable-background:accumulate"
         d="m 113.23644,198.68323 v 3e-5 l -0.41028,0.6008 c -0.057,0.0821 -0.057,0.21825 0,0.30039 l 0.41961,0.61446"
         id="path13231" />
      <path
         id="path13233"
         d="m 115.92011,198.6676 v 3e-5 l 0.51427,0.6008 c 0.0715,0.0821 0.0715,0.21825 0,0.30039 l -0.52597,0.61446"
         style="color:#000000;display:inline;overflow:visible;visibility:visible;fill:none;stroke:#000000;stroke-width:0.8;stroke-linecap:round;stroke-linejoin:round;stroke-miterlimit:4;stroke-dasharray:none;stroke-dashoffset:0;stroke-opacity:1;marker:none;enable-background:accumulate"
         inkscape:connector-curvature="0"
         sodipodi:nodetypes="ccccc" />
      <path
         sodipodi:nodetypes="ccccc"
         inkscape:connector-curvature="0"
         style="color:#000000;display:inline;overflow:visible;visibility:visible;fill:none;stroke:#000000;stroke-width:0.8;stroke-linecap:round;stroke-linejoin:round;stroke-miterlimit:4;stroke-dasharray:none;stroke-dashoffset:0;stroke-opacity:1;marker:none;enable-background:accumulate"
         d="m 114.55018,198.6676 v 3e-5 l 0.0498,0.6008 c 0.007,0.0821 0.007,0.21825 0,0.30039 l -0.051,0.61446"
         id="path13235" />
      <path
         style="color:#000000;display:inline;overflow:visible;visibility:visible;fill:none;stroke:#000000;stroke-width:0.8;stroke-linecap:round;stroke-linejoin:round;stroke-miterlimit:4;stroke-dasharray:none;stroke-dashoffset:0;stroke-opacity:1;marker:none;enable-background:accumulate"
         d="m 109.03814,208.60949 h 0.83378"
         id="path13237"
         inkscape:connector-curvature="0" />
      <path
         inkscape:connector-curvature="0"
         id="path13239"
         d="m 109.30749,207.45494 h 2.02981"
         style="color:#000000;display:inline;overflow:visible;visibility:visible;fill:none;stroke:#000000;stroke-width:0.8;stroke-linecap:round;stroke-linejoin:round;stroke-miterlimit:4;stroke-dasharray:none;stroke-dashoffset:0;stroke-opacity:1;marker:none;enable-background:accumulate" />
      <path
         style="color:#000000;display:inline;overflow:visible;visibility:visible;fill:none;stroke:#000000;stroke-width:0.8;stroke-linecap:round;stroke-linejoin:round;stroke-miterlimit:4;stroke-dasharray:none;stroke-dashoffset:0;stroke-opacity:1;marker:none;enable-background:accumulate"
         d="m 117.85723,207.45494 h 4.14152"
         id="path13241"
         inkscape:connector-curvature="0" />
      <path
         inkscape:connector-curvature="0"
         id="path13243"
         d="m 120.2579,208.60949 h 1.74085"
         style="color:#000000;display:inline;overflow:visible;visibility:visible;fill:none;stroke:#000000;stroke-width:0.8;stroke-linecap:round;stroke-linejoin:round;stroke-miterlimit:4;stroke-dasharray:none;stroke-dashoffset:0;stroke-opacity:1;marker:none;enable-background:accumulate" />
      <path
         style="color:#000000;display:inline;overflow:visible;visibility:visible;fill:none;stroke:#000000;stroke-width:0.8;stroke-linecap:round;stroke-linejoin:round;stroke-miterlimit:4;stroke-dasharray:none;stroke-dashoffset:0;stroke-opacity:1;marker:none;enable-background:accumulate"
         d="m 121.47182,209.76409 h 0.52693"
         id="path13245"
         inkscape:connector-curvature="0" />
      <path
         style="color:#000000;display:inline;overflow:visible;visibility:visible;fill:none;stroke:#000000;stroke-width:0.8;stroke-linecap:round;stroke-linejoin:round;stroke-miterlimit:4;stroke-dasharray:none;stroke-dashoffset:0;stroke-opacity:1;marker:none;enable-background:accumulate"
         d="m 121.47141,210.91865 h 0.52734"
         id="path13247"
         inkscape:connector-curvature="0" />
      <path
         style="color:#000000;display:inline;overflow:visible;visibility:visible;fill:none;stroke:#000000;stroke-width:0.8;stroke-linecap:round;stroke-linejoin:round;stroke-miterlimit:4;stroke-dasharray:none;stroke-dashoffset:0;stroke-opacity:1;marker:none;enable-background:accumulate"
         d="m 120.79583,212.07323 h 1.20292"
         id="path13249"
         inkscape:connector-curvature="0" />
      <path
         style="color:#000000;display:inline;overflow:visible;visibility:visible;fill:none;stroke:#000000;stroke-width:0.8;stroke-linecap:round;stroke-linejoin:round;stroke-miterlimit:4;stroke-dasharray:none;stroke-dashoffset:0;stroke-opacity:1;marker:none;enable-background:accumulate"
         d="m 110.13038,215.02332 -0.28702,-0.64106"
         id="path13251"
         inkscape:connector-curvature="0" />
      <path
         sodipodi:cx="94"
         sodipodi:cy="110"
         transform="matrix(0.05040213,0,0,0.04890891,106.86595,212.53702)"
         d="M 108,110 A 14,14 0 0 1 99.357568,122.93431 14,14 0 0 1 84.100505,119.89949 14,14 0 0 1 81.065687,104.64243 14,14 0 0 1 94,96"
         sodipodi:type="arc"
         style="color:#000000;display:inline;overflow:visible;visibility:visible;fill:none;stroke:#000000;stroke-width:16.1128;stroke-linecap:round;stroke-linejoin:round;stroke-miterlimit:4;stroke-dasharray:none;stroke-dashoffset:0;stroke-opacity:1;marker:none;enable-background:accumulate"
         sodipodi:ry="14"
         sodipodi:rx="14"
         id="path13253"
         sodipodi:start="0"
         sodipodi:end="4.712389"
         sodipodi:open="true"
         sodipodi:arc-type="arc" />
      <path
         style="color:#000000;display:inline;overflow:visible;visibility:visible;fill:none;stroke:#000000;stroke-width:0.8;stroke-linecap:round;stroke-linejoin:round;stroke-miterlimit:4;stroke-dasharray:none;stroke-dashoffset:0;stroke-opacity:1;marker:none;enable-background:accumulate"
         d="m 108.41798,217.92896 0.0775,-0.0775"
         id="path13255"
         inkscape:connector-curvature="0" />
      <path
         style="color:#000000;display:inline;overflow:visible;visibility:visible;fill:none;stroke:#000000;stroke-width:0.8;stroke-linecap:round;stroke-linejoin:round;stroke-miterlimit:4;stroke-dasharray:none;stroke-dashoffset:0;stroke-opacity:1;marker:none;enable-background:accumulate"
         d="m 108.77841,209.76409 h 0.61066"
         id="path13257"
         inkscape:connector-curvature="0" />
      <path
         style="color:#000000;display:inline;overflow:visible;visibility:visible;fill:none;stroke:#000000;stroke-width:0.8;stroke-linecap:round;stroke-linejoin:round;stroke-miterlimit:4;stroke-dasharray:none;stroke-dashoffset:0;stroke-opacity:1;marker:none;enable-background:accumulate"
         d="m 113.61525,201.38663 h 1.2832"
         id="path13259"
         inkscape:connector-curvature="0" />
      <path
         sodipodi:nodetypes="cssccc"
         inkscape:connector-curvature="0"
         id="path13261"
         d="m 138.68226,214.41494 c 0.42828,0.42828 0.42828,1.12267 0,1.55095 -0.42828,0.42828 -1.12267,0.42829 -1.55095,0 -0.14554,-0.14553 -0.24594,-0.32775 -0.29222,-0.52492 -0.0294,-0.10988 -0.15359,-0.12443 -0.45374,-0.12443 l -1.30988,-0.0156"
         style="color:#000000;display:inline;overflow:visible;visibility:visible;fill:none;stroke:#000000;stroke-width:0.8;stroke-linecap:round;stroke-linejoin:round;stroke-miterlimit:4;stroke-dasharray:none;stroke-dashoffset:0;stroke-opacity:1;marker:none;enable-background:accumulate" />
      <path
         inkscape:connector-curvature="0"
         id="path13263"
         d="m 132.81665,212.07323 h 1.20292"
         style="color:#000000;display:inline;overflow:visible;visibility:visible;fill:none;stroke:#000000;stroke-width:0.8;stroke-linecap:round;stroke-linejoin:round;stroke-miterlimit:4;stroke-dasharray:none;stroke-dashoffset:0;stroke-opacity:1;marker:none;enable-background:accumulate" />
      <path
         style="color:#000000;display:inline;overflow:visible;visibility:visible;fill:none;stroke:#000000;stroke-width:0.8;stroke-linecap:round;stroke-linejoin:round;stroke-miterlimit:4;stroke-dasharray:none;stroke-dashoffset:0;stroke-opacity:1;marker:none;enable-background:accumulate"
         d="m 132.81665,210.91865 h 1.20292"
         id="path13265"
         inkscape:connector-curvature="0" />
      <path
         inkscape:connector-curvature="0"
         id="path13267"
         d="m 132.81665,209.76409 h 1.20292"
         style="color:#000000;display:inline;overflow:visible;visibility:visible;fill:none;stroke:#000000;stroke-width:0.8;stroke-linecap:round;stroke-linejoin:round;stroke-miterlimit:4;stroke-dasharray:none;stroke-dashoffset:0;stroke-opacity:1;marker:none;enable-background:accumulate" />
      <path
         style="color:#000000;display:inline;overflow:visible;visibility:visible;fill:none;stroke:#000000;stroke-width:0.8;stroke-linecap:round;stroke-linejoin:round;stroke-miterlimit:4;stroke-dasharray:none;stroke-dashoffset:0;stroke-opacity:1;marker:none;enable-background:accumulate"
         d="m 132.81665,208.60949 h 1.20292"
         id="path13269"
         inkscape:connector-curvature="0" />
      <path
         inkscape:connector-curvature="0"
         id="path13271"
         d="m 113.6631,203.48419 v 2.44319"
         style="color:#000000;display:inline;overflow:visible;visibility:visible;fill:none;stroke:#000000;stroke-width:0.8;stroke-linecap:round;stroke-linejoin:round;stroke-miterlimit:4;stroke-dasharray:none;stroke-dashoffset:0;stroke-opacity:1;marker:none;enable-background:accumulate" />
      <path
         inkscape:connector-curvature="0"
         id="path13273"
         d="m 132.62872,200.01163 h 2.12371"
         style="color:#000000;display:inline;overflow:visible;visibility:visible;fill:none;stroke:#000000;stroke-width:0.8;stroke-linecap:round;stroke-linejoin:round;stroke-miterlimit:4;stroke-dasharray:none;stroke-dashoffset:0;stroke-opacity:1;marker:none;enable-background:accumulate" />
      <path
         style="color:#000000;display:inline;overflow:visible;visibility:visible;fill:none;stroke:#000000;stroke-width:0.8;stroke-linecap:round;stroke-linejoin:round;stroke-miterlimit:4;stroke-dasharray:none;stroke-dashoffset:0;stroke-opacity:1;marker:none;enable-background:accumulate"
         d="m 133.88578,198.72257 h 1.07834"
         id="path13275"
         inkscape:connector-curvature="0" />
      <path
         inkscape:connector-curvature="0"
         id="path13277"
         d="m 126.1905,208.3751 h 1.98645"
         style="color:#000000;display:inline;overflow:visible;visibility:visible;fill:none;stroke:#000000;stroke-width:0.8;stroke-linecap:round;stroke-linejoin:round;stroke-miterlimit:4;stroke-dasharray:none;stroke-dashoffset:0;stroke-opacity:1;marker:none;enable-background:accumulate" />
      <path
         inkscape:connector-curvature="0"
         id="path13281"
         d="m 114.34547,209.76409 h 0.76198"
         style="color:#000000;display:inline;overflow:visible;visibility:visible;fill:none;stroke:#000000;stroke-width:0.8;stroke-linecap:round;stroke-linejoin:round;stroke-miterlimit:4;stroke-dasharray:none;stroke-dashoffset:0;stroke-opacity:1;marker:none;enable-background:accumulate" />
      <path
         style="color:#000000;display:inline;overflow:visible;visibility:visible;fill:none;stroke:#000000;stroke-width:0.8;stroke-linecap:round;stroke-linejoin:round;stroke-miterlimit:4;stroke-dasharray:none;stroke-dashoffset:0;stroke-opacity:1;marker:none;enable-background:accumulate"
         d="m 114.73221,208.60949 h 0.52693"
         id="path13287"
         inkscape:connector-curvature="0" />
      <path
         inkscape:connector-curvature="0"
         id="path13289"
         d="m 114.90214,210.91866 h 0.14019"
         style="color:#000000;display:inline;overflow:visible;visibility:visible;fill:none;stroke:#000000;stroke-width:0.8;stroke-linecap:round;stroke-linejoin:round;stroke-miterlimit:4;stroke-dasharray:none;stroke-dashoffset:0;stroke-opacity:1;marker:none;enable-background:accumulate" />
    </g>
    <path
       style="fill:#ff0000;stroke-width:0.182341"
       d="m 18.602721,27.084019 c -0.06638,-0.107408 0.621589,-0.196147 1.767058,-0.227925 1.736857,-0.04819 1.875763,-0.07904 1.875763,-0.41672 0,-0.338861 -0.15492,-0.371767 -2.188086,-0.464761 -1.203447,-0.05504 -1.859873,-0.11784 -1.458724,-0.139547 0.904946,-0.04897 1.240277,-0.250286 1.155862,-0.693925 -0.05235,-0.275095 -0.255635,-0.353776 -1.0289,-0.398226 l -0.963667,-0.0554 0.418353,-0.354871 0.418352,-0.354872 -0.430466,-0.364681 -0.430467,-0.364681 h 0.567222 c 0.482315,0 0.567222,-0.06772 0.567222,-0.452377 0,-0.337947 -0.12684,-0.487849 -0.501437,-0.592607 -0.395591,-0.110629 -0.232012,-0.159474 0.774948,-0.231399 1.124433,-0.08032 1.276383,-0.134585 1.276383,-0.455852 0,-0.311617 -0.139987,-0.372724 -0.962057,-0.41996 -0.546161,-0.03138 -0.915931,-0.129915 -0.855356,-0.227926 0.148989,-0.24107 12.484333,-0.231491 12.484333,0.0097 0,0.111751 -0.874809,0.18234 -2.259748,0.18234 -1.641535,0 -2.282679,0.06236 -2.343566,0.227926 -0.220088,0.598479 0.06479,0.683645 2.384838,0.712958 1.270305,0.01605 2.02246,0.05871 1.671455,0.09481 -1.26273,0.129847 -1.458724,0.223901 -1.458724,0.700018 0,0.42782 0.05692,0.453005 1.048457,0.463935 0.813454,0.009 0.9565,0.04852 0.638192,0.176465 -0.532151,0.213899 -0.540433,0.86962 -0.01344,1.064565 l 0.39682,0.146794 -0.39682,0.103771 c -0.535942,0.140152 -0.5271,0.826659 0.01344,1.043932 0.343393,0.138027 0.283951,0.166791 -0.364681,0.176465 -0.701968,0.01047 -0.774947,0.05449 -0.774947,0.467409 0,0.386895 0.08438,0.455851 0.557783,0.455851 0.325423,0 0.510837,0.07596 0.44509,0.182341 -0.15026,0.243126 -11.880325,0.249418 -12.030485,0.0065 z m 5.720556,-1.533236 c 0.305958,-0.368656 0.0459,-0.843644 -0.461901,-0.843644 -0.520375,0 -0.748384,0.437651 -0.428693,0.822855 0.281125,0.338735 0.620155,0.346649 0.890594,0.02079 z m 0.110351,-1.573006 c 0,-0.4061 -0.08476,-0.461979 -0.776615,-0.512002 -0.571846,-0.04134 -0.805358,0.01875 -0.885626,0.227926 -0.226079,0.589153 0.06975,0.855068 0.885626,0.796078 0.691856,-0.05002 0.776615,-0.105902 0.776615,-0.512002 z m 0.208463,-1.005195 c 0.145752,-0.379823 -0.259028,-0.81821 -0.755484,-0.81821 -0.496457,0 -0.901236,0.438387 -0.755484,0.81821 0.06708,0.174797 0.343805,0.275833 0.755484,0.275833 0.411679,0 0.688408,-0.101036 0.755484,-0.275833 z"
       id="path1"
       transform="matrix(0.93749999,0,0,0.93749999,346.58899,510.7335)" />
    <path
       style="fill:#ff0000;stroke-width:0.182341"
       d="m 34.370006,34.39378 c -0.943163,-0.308815 -1.619703,-0.764238 -2.324158,-1.564542 -2.514335,-2.856435 -0.468957,-7.372304 3.346587,-7.388732 1.183151,-0.0051 1.986012,0.262383 2.878626,0.959031 0.529383,0.41316 0.780613,0.508054 0.992021,0.374701 0.466102,-0.29401 0.442801,-0.550069 -0.09573,-1.052002 -1.011251,-0.94253 -2.010933,-1.289083 -3.702124,-1.283391 -1.45899,0.0049 -1.806491,0.09059 -3.14824,0.776266 -0.07679,0.03924 -0.117819,-2.25392 -0.09117,-5.095919 l 0.04845,-5.16727 0.729363,-0.363108 c 1.017817,-0.506713 4.646854,-0.526169 6.062822,-0.0325 l 0.957287,0.33375 0.001,2.036677 c 0.0016,3.107717 0.408655,4.134443 1.93167,4.871722 0.52658,0.254913 0.755721,0.454423 0.618978,0.538935 -0.469518,0.290178 -0.103653,0.817406 0.64106,0.923796 l 0.727596,0.103944 -0.729362,0.0784 c -0.63552,0.06831 -0.729362,0.137047 -0.729362,0.534247 0,0.392942 0.100655,0.470196 0.729362,0.559796 l 0.729362,0.103945 -0.727845,0.0784 c -0.530983,0.05719 -0.745438,0.171123 -0.792889,0.421227 -0.07914,0.417149 0.245584,0.644966 0.973713,0.683124 0.466934,0.02447 0.440238,0.0449 -0.182341,0.139548 -0.570841,0.08678 -0.729362,0.19014 -0.729362,0.475561 0,0.284059 0.141089,0.377633 0.638192,0.423267 0.351005,0.03222 0.716142,0.134788 0.811415,0.227925 0.106878,0.104482 -0.534997,0.16934 -1.675888,0.16934 -1.036053,0 -1.898664,-0.08018 -1.961805,-0.18234 -0.170616,-0.276063 -0.767752,-0.218207 -0.884367,0.08569 -0.05657,0.147415 0.06675,0.651435 0.274037,1.120046 0.909732,2.056599 -0.116705,4.652254 -2.275153,5.753412 -0.796218,0.4062 -2.3387,0.58727 -3.041764,0.35707 z m 2.740798,-1.162222 c 2.127979,-1.076303 2.642867,-3.901132 1.043163,-5.723095 -0.305132,-0.347526 -0.768252,-0.741052 -1.029155,-0.874501 -1.18665,-0.60696 -3.027136,-0.495567 -3.027136,0.183212 0,0.297657 0.172897,0.368108 1.127607,0.45947 1.820801,0.174244 2.791843,1.120075 2.790831,2.71837 -0.0015,2.302625 -2.81994,3.510367 -4.431412,1.898894 -0.542965,-0.542964 -1.102893,-0.52126 -1.1841,0.0459 -0.05887,0.411143 0.734372,1.149146 1.611352,1.499147 0.817738,0.326357 2.230498,0.231806 3.09885,-0.207397 z m -1.495536,-2.018264 c 0.03468,-0.180085 -0.148205,-0.523218 -0.406415,-0.762518 -0.648466,-0.600978 -0.265265,-1.373851 0.529887,-1.068723 0.294006,0.112821 0.33034,0.246112 0.279045,1.023659 -0.03814,0.578188 0.399786,0.8456 0.81732,0.499077 0.392059,-0.325379 0.340731,-1.501548 -0.08939,-2.048357 -0.448015,-0.569558 -1.192958,-0.726289 -1.94954,-0.410169 -0.690616,0.288558 -0.972011,0.75515 -0.972011,1.611725 0,1.069356 1.607919,2.106504 1.791103,1.155306 z m 2.676239,-8.694241 c 0,-0.442528 -0.04138,-0.457409 -1.415899,-0.509156 -1.146222,-0.04315 -1.436624,7.02e-4 -1.524709,0.230248 -0.22992,0.599164 0.281412,0.843716 1.647119,0.787758 1.244029,-0.05097 1.293489,-0.07043 1.293489,-0.50885 z m 0.719023,-1.134615 c 0.218798,-0.312377 0.28385,-0.909014 0.28385,-2.603365 0,-3.107482 0.101771,-3.008619 -3.097104,-3.008619 -2.056337,0 -2.582993,0.05359 -2.815938,0.286535 -0.42052,0.42052 -0.42052,5.023647 0,5.444167 0.232945,0.232945 0.759601,0.286535 2.815938,0.286535 2.40711,0 2.543128,-0.01959 2.813254,-0.405253 z"
       id="path2"
       transform="matrix(0.93749999,0,0,0.93749999,346.58899,510.7335)" />
    <path
       style="fill:#ff0000;stroke-width:0.0911703"
       d="m 21.652936,17.164514 v -2.573847 l -0.841284,-0.844796 -0.841283,-0.844796 0.679454,-0.684019 0.679453,-0.684019 h 1.960426 1.960425 l 0.706954,0.702808 0.706955,0.702808 -0.864486,0.879901 -0.864485,0.879901 v 2.519952 2.519953 h -1.002873 -1.002873 v -1.349319 c 0,-1.447342 -0.03511,-1.568129 -0.455851,-1.568129 -0.420739,0 -0.455851,0.120787 -0.455851,1.568129 0,1.288539 -0.0082,1.349319 -0.182341,1.349319 -0.178034,0 -0.18234,-0.06078 -0.18234,-2.573846 z m 2.461597,-1.802326 c 0.100287,-0.100287 0.18234,-0.24388 0.18234,-0.319096 0,-0.07522 -0.08205,-0.218808 -0.18234,-0.319096 -0.155328,-0.155327 -0.303901,-0.18234 -1.002873,-0.18234 -0.698972,0 -0.847546,0.02701 -1.002873,0.18234 -0.100287,0.100288 -0.182341,0.243881 -0.182341,0.319096 0,0.07522 0.08205,0.218809 0.182341,0.319096 0.155327,0.155327 0.303901,0.182341 1.002873,0.182341 0.698972,0 0.847545,-0.02701 1.002873,-0.182341 z m -1.817412,-1.188421 c 0.233599,-0.125018 0.224996,-0.468744 -0.02249,-0.898769 l -0.198842,-0.345496 0.198842,-0.279247 c 0.351472,-0.493597 0.222695,-0.934877 -0.272821,-0.934877 -0.203237,0 -0.315946,0.09369 -0.574373,0.477427 -0.477632,0.709244 -0.422648,1.110444 0.256312,1.870207 0.202277,0.22635 0.348165,0.252693 0.613377,0.110755 z m 1.412513,-0.0349 c 0.150295,-0.109792 0.181489,-0.264407 0.206933,-1.025665 0.03816,-1.141708 -0.04985,-1.397821 -0.480347,-1.397821 -0.211749,0 -0.344889,0.05336 -0.398117,0.159548 -0.04398,0.08775 -0.07526,0.604579 -0.06949,1.148507 0.0091,0.8625 0.03284,1.00531 0.18536,1.116835 0.220401,0.161161 0.33352,0.160875 0.555665,-0.0014 z m 1.429116,0.01532 c 0.08105,-0.06268 0.294026,-0.292207 0.473277,-0.510062 0.452948,-0.550497 0.439895,-0.861099 -0.06156,-1.464822 -0.344978,-0.415331 -0.422288,-0.463852 -0.704909,-0.442414 -0.250893,0.01903 -0.335165,0.07481 -0.402017,0.266107 -0.07113,0.203535 -0.04012,0.298167 0.194979,0.595002 l 0.27956,0.352974 -0.262564,0.316701 c -0.316219,0.381417 -0.337815,0.667355 -0.06484,0.858552 0.245164,0.171719 0.354945,0.17732 0.54808,0.02796 z"
       id="path3"
       transform="matrix(0.93749999,0,0,0.93749999,346.58899,510.7335)" />
    <path
       style="fill:#ff0000;stroke-width:0.0911703"
       d="m 19.510435,34.335095 c -0.44873,-0.207755 -0.810408,-0.583063 -1.000557,-1.038262 -0.172336,-0.412559 -0.481136,-0.588438 -0.765731,-0.436128 -0.117216,0.06273 -0.193873,0.192611 -0.193873,0.328476 v 0.224718 h -2.963033 c -1.629668,0 -2.961878,-0.03077 -2.960465,-0.06838 0.01256,-0.334457 0.756225,-1.199357 3.045737,-3.542274 2.402236,-2.458272 2.648409,-2.684443 2.754063,-2.530287 0.06381,0.09311 0.228188,0.323137 0.365276,0.511175 l 0.249251,0.341889 h 6.081996 6.081995 l -0.130479,0.433059 c -0.142062,0.471495 -0.183003,1.726863 -0.0788,2.416011 l 0.06548,0.433059 h -0.812651 c -0.5105,0 -0.853327,0.04068 -0.922054,0.109404 -0.133198,0.133199 -0.143853,0.54904 -0.01731,0.675583 0.112664,0.112664 -0.02482,0.917387 -0.22182,1.298338 -0.186896,0.361416 -0.701939,0.793568 -1.10388,0.926221 -1.149561,0.379389 -2.434242,-0.529857 -2.434242,-1.722861 0,-1.396286 1.474394,-2.255294 2.756147,-1.605781 0.540452,0.273868 0.653217,0.280837 0.859313,0.0531 0.335219,-0.370413 -0.05831,-0.880583 -0.848589,-1.1001 -0.495182,-0.137548 -1.473472,-0.111258 -1.954115,0.05251 -0.455361,0.155157 -1.292136,0.840782 -1.385623,1.135331 -0.04701,0.148112 -0.140441,0.178248 -0.552627,0.178248 -0.488567,0 -0.504641,-0.0087 -1.065106,-0.577719 -0.665621,-0.675757 -1.148653,-0.881005 -2.073363,-0.881005 -0.806822,0 -1.361321,0.203668 -1.918586,0.704697 -0.945382,0.849979 -1.12045,1.926236 -0.297978,1.831865 0.197321,-0.02264 0.294729,-0.113035 0.424634,-0.394061 0.475966,-1.029672 1.536882,-1.491722 2.501428,-1.089422 0.830889,0.346553 1.315928,1.252225 1.109561,2.071786 -0.28421,1.128696 -1.550247,1.744046 -2.594006,1.260801 z m 1.318446,-0.600279 c 0.393844,-0.203665 0.641714,-0.571838 0.641714,-0.95317 0,-0.400243 -0.130934,-0.552961 -0.474085,-0.552961 -0.218809,0 -0.255277,-0.03647 -0.255277,-0.255276 0,-0.338487 -0.152078,-0.474086 -0.531702,-0.474086 -0.727771,0 -1.301344,0.745759 -1.11262,1.446627 0.08878,0.329694 0.454025,0.758269 0.73262,0.859643 0.264908,0.09639 0.741327,0.06265 0.99935,-0.07078 z m 5.382567,-0.229747 c 0.220987,-0.220987 0.22809,-0.349963 0.0345,-0.626355 -0.133291,-0.1903 -0.133987,-0.224931 -0.0071,-0.351849 0.07916,-0.07916 0.207212,-0.115278 0.292578,-0.08252 0.120914,0.0464 0.139701,0.129895 0.09233,0.410306 -0.06825,0.403989 0.100789,0.650418 0.446167,0.650418 0.273214,0 0.481631,-0.244183 0.544716,-0.638192 0.07321,-0.457271 -0.119561,-0.915127 -0.491513,-1.167384 -0.26485,-0.179622 -0.403017,-0.209669 -0.812761,-0.176751 -0.430527,0.03459 -0.533891,0.08356 -0.808194,0.382871 -0.295924,0.322908 -0.312043,0.373191 -0.272501,0.850026 0.03388,0.40859 0.0899,0.547994 0.28905,0.719293 0.302449,0.260155 0.456005,0.266836 0.692703,0.03014 z M 15.38392,31.157435 c 1.901098,-1.893059 1.990174,-1.997344 1.964901,-2.300388 -0.02118,-0.253987 -0.07724,-0.335182 -0.280459,-0.406223 -0.244792,-0.08557 -0.326695,-0.01632 -2.262241,1.912914 -1.10454,1.100937 -2.049597,2.07625 -2.100127,2.167364 -0.135561,0.244439 0.129518,0.609286 0.442677,0.609286 0.195875,0 0.635833,-0.390299 2.235249,-1.982953 z m 1.234828,0.764519 c 1.13431,-1.13431 1.216398,-1.239632 1.188943,-1.525456 -0.02324,-0.241935 -0.08384,-0.326018 -0.28586,-0.396632 -0.246214,-0.08606 -0.30851,-0.03713 -1.572687,1.23536 -0.723975,0.728734 -1.316318,1.391044 -1.316318,1.471799 0,0.221931 0.257121,0.433363 0.527011,0.433363 0.187079,0 0.511028,-0.270552 1.458911,-1.218434 z m 0.718868,0.980003 c 0.139988,-0.213649 0.142259,-0.263399 0.02185,-0.478644 -0.233874,-0.418067 -0.803082,-0.313942 -0.929651,0.17006 -0.130658,0.499638 0.61626,0.753534 0.907803,0.308584 z m 1.777002,-3.084588 c 0.14421,-0.316507 -0.219625,-1.214026 -0.541796,-1.336515 -0.282805,-0.107522 -0.657867,0.109274 -0.657867,0.380266 0,0.179242 0.295274,0.837375 0.478048,1.065516 0.164598,0.205455 0.608869,0.138183 0.721615,-0.109267 z"
       id="path4"
       transform="matrix(0.93749999,0,0,0.93749999,346.58899,510.7335)" />
    <path
       style="fill:#ff0000;stroke-width:0.0911703"
       d="m 40.88986,31.32358 c 0,-0.04651 0.04205,-0.386869 0.09343,-0.756341 0.08816,-0.63387 0.04651,-1.250312 -0.145294,-2.15045 l -0.06432,-0.301842 1.798555,0.02833 c 2.270911,0.03577 2.146774,-0.05895 2.146774,1.638055 0,1.13049 -0.0093,1.188511 -0.223781,1.403039 -0.221506,0.221506 -0.240972,0.223781 -1.914575,0.223781 -0.978491,0 -1.690794,-0.03563 -1.690794,-0.08457 z"
       id="path5"
       transform="matrix(0.93749999,0,0,0.93749999,346.58899,510.7335)" />
    <path
       style="fill:#ff0000;stroke-width:0.0911703"
       d="m 31.315346,14.084168 c -0.157942,-0.157942 -0.180704,-0.30525 -0.180704,-1.169447 0,-0.889324 0.01929,-1.006206 0.191875,-1.16242 0.184228,-0.166756 0.443529,-0.174659 6.505837,-0.198282 3.866532,-0.01507 6.398452,0.0092 6.531931,0.0626 0.19815,0.07927 0.186881,0.08773 -0.123918,0.09298 -0.427889,0.0072 -0.743895,0.287008 -0.655402,0.580257 0.09506,0.315011 0.182184,0.364478 0.720571,0.409125 0.417892,0.03466 0.504645,0.07125 0.504645,0.2129 0,0.158112 -0.08571,0.171051 -1.133116,0.171051 -1.250432,0 -1.454865,0.07812 -1.401809,0.535691 0.02724,0.234917 0.01225,0.241766 -0.826813,0.377693 l -0.854555,0.138437 -0.512998,-0.252128 c -0.955551,-0.469634 -1.811817,-0.631369 -3.612788,-0.682397 -2.256543,-0.06394 -3.692863,0.196562 -4.644477,0.842345 -0.326586,0.221627 -0.328121,0.221753 -0.508279,0.04159 z"
       id="path6"
       transform="matrix(0.93749999,0,0,0.93749999,346.58899,510.7335)" />
  </g>
</svg>
