<?xml version="1.0" encoding="UTF-8" standalone="no"?>
<!-- Created with Inkscape (http://www.inkscape.org/) -->

<svg
   width="60.598301"
   height="46.125256"
   id="svg14114"
   version="1.1"
   inkscape:version="1.4.3 (0d15f75, 2025-12-25)"
   sodipodi:docname="train_forward_white.svg"
   viewBox="0 0 56.810905 43.242428"
   xmlns:inkscape="http://www.inkscape.org/namespaces/inkscape"
   xmlns:sodipodi="http://sodipodi.sourceforge.net/DTD/sodipodi-0.dtd"
   xmlns="http://www.w3.org/2000/svg"
   xmlns:svg="http://www.w3.org/2000/svg"
   xmlns:rdf="http://www.w3.org/1999/02/22-rdf-syntax-ns#"
   xmlns:cc="http://creativecommons.org/ns#"
   xmlns:dc="http://purl.org/dc/elements/1.1/">
  <title
     id="title14219">Locomotive outlines</title>
  <defs
     id="defs14116" />
  <sodipodi:namedview
     id="base"
     pagecolor="#ffffff"
     bordercolor="#666666"
     borderopacity="1.0"
     inkscape:pageopacity="0.0"
     inkscape:pageshadow="2"
     inkscape:zoom="10.96849"
     inkscape:cx="29.903844"
     inkscape:cy="18.781073"
     inkscape:document-units="px"
     inkscape:current-layer="layer1"
     showgrid="false"
     fit-margin-top="10"
     fit-margin-right="10"
     fit-margin-bottom="10"
     fit-margin-left="10"
     inkscape:window-width="1258"
     inkscape:window-height="657"
     inkscape:window-x="182"
     inkscape:window-y="98"
     inkscape:window-maximized="0"
     inkscape:showpageshadow="2"
     inkscape:pagecheckerboard="0"
     inkscape:deskcolor="#d1d1d1" />
  <metadata
     id="metadata14119">
    <rdf:RDF>
      <cc:Work
         rdf:about="">
        <dc:format>image/svg+xml</dc:format>
        <dc:type
           rdf:resource="http://purl.org/dc/dcmitype/StillImage" />
        <cc:license
           rdf:resource="http://creativecommons.org/licenses/publicdomain/" />
        <dc:title>Locomotive outlines</dc:title>
        <dc:date>2015-07-01</dc:date>
        <dc:creator>
          <cc:Agent>
            <dc:title>m1981</dc:title>
          </cc:Agent>
        </dc:creator>
        <dc:subject>
          <rdf:Bag>
            <rdf:li>locomotive</rdf:li>
            <rdf:li>train</rdf:li>
            <rdf:li>toy</rdf:li>
            <rdf:li>outlines</rdf:li>
          </rdf:Bag>
        </dc:subject>
      </cc:Work>
      <cc:License
         rdf:about="http://creativecommons.org/licenses/publicdomain/">
        <cc:permits
           rdf:resource="http://creativecommons.org/ns#Reproduction" />
        <cc:permits
           rdf:resource="http://creativecommons.org/ns#Distribution" />
        <cc:permits
           rdf:resource="http://creativecommons.org/ns#DerivativeWorks" />
      </cc:License>
    </rdf:RDF>
  </metadata>
  <g
     inkscape:label="Calque 1"
     inkscape:groupmode="layer"
     id="layer1"
     transform="translate(-346.58899,-510.7335)">
    <g
       id="g13192"
       transform="matrix(-1,0,0,1,496.00221,323.45256)"
       style="fill:none;stroke:#000000;stroke-width:0.8;stroke-miterlimit:4;stroke-dasharray:none">
      <path
         inkscape:connector-curvature="0"
         id="path13195"
         d="m 112.39034,197.69109 -1.375,1.375 c -0.191,0.188 -0.191,0.4995 0,0.6875 l 1.4063,1.40625 h 0.0625 v 5.0625 l 3.9688,0.0312 v -5.09375 h 0.0624 l 1.4063,-1.40625 c 0.191,-0.188 0.191,-0.4995 0,-0.6875 l -1.4063,-1.375 h -4.125 z"
         style="color:#000000;display:inline;overflow:visible;visibility:visible;fill:none;stroke:#000000;stroke-width:0.8;stroke-linecap:round;stroke-linejoin:round;stroke-miterlimit:4;stroke-dasharray:none;stroke-dashoffset:0;stroke-opacity:1;marker:none;enable-background:accumulate" />
      <path
         sodipodi:nodetypes="cccccssssccc"
         inkscape:connector-curvature="0"
         id="path13197"
         d="m 115.32793,217.14915 h -1.57031 m -3.96846,-3.9008 h 11.79872 m 8.53693,0 h 3.83671 c 0.54026,0 0.9752,0.43494 0.9752,0.9752 v 1.9504 c 0,0.54026 -0.43494,0.9752 -0.9752,0.9752 h -3.7039 m -8.91406,0 h -1.88281"
         style="color:#000000;display:inline;overflow:visible;visibility:visible;fill:none;stroke:#000000;stroke-width:0.8;stroke-linecap:round;stroke-linejoin:round;stroke-miterlimit:4;stroke-dasharray:none;stroke-dashoffset:0;stroke-opacity:1;marker:none;enable-background:accumulate" />
      <path
         sodipodi:nodetypes="csssc"
         inkscape:connector-curvature="0"
         id="path13199"
         d="m 121.42168,213.24836 h -11.32556 c -0.74837,0 -1.35085,-1.56197 -1.35085,-3.50219 0,-1.94021 0.60248,-3.50219 1.35085,-3.50219 h 12.21619"
         style="color:#000000;display:inline;overflow:visible;visibility:visible;fill:none;stroke:#000000;stroke-width:0.8;stroke-linecap:round;stroke-linejoin:round;stroke-miterlimit:4;stroke-dasharray:none;stroke-dashoffset:0;stroke-opacity:1;marker:none;enable-background:accumulate" />
      <path
         sodipodi:nodetypes="csssssssc"
         inkscape:connector-curvature="0"
         id="path13201"
         d="m 130.65594,200.98797 3.422,-0.54688 c 0.5334,-0.0853 0.9687,-0.42849 0.9687,-0.96875 v -0.8125 c 0,-0.54026 -0.4285,-0.96875 -0.9687,-0.96875 h -11.7813 c -0.5403,0 -0.9687,0.42849 -0.9687,0.96875 v 1.46875 c 0,0.54026 0.4284,0.96875 0.9687,0.96875"
         style="color:#000000;display:inline;overflow:visible;visibility:visible;fill:none;stroke:#000000;stroke-width:0.8;stroke-linecap:round;stroke-linejoin:round;stroke-miterlimit:4;stroke-dasharray:none;stroke-dashoffset:0;stroke-opacity:1;marker:none;enable-background:accumulate" />
      <path
         sodipodi:nodetypes="ccccccsssssssss"
         inkscape:connector-curvature="0"
         id="path13203"
         style="color:#000000;display:inline;overflow:visible;visibility:visible;fill:none;stroke:#000000;stroke-width:0.8;stroke-linecap:round;stroke-linejoin:round;stroke-miterlimit:4;stroke-dasharray:none;stroke-dashoffset:0;stroke-opacity:1;marker:none;enable-background:accumulate"
         d="m 134.25441,212.56279 v -4.84268 c 0,0 -3.62392,0.30793 -3.62392,-3.11569 v -3.46222 c -1.25901,-1.43178 -7.1857,-1.51198 -8.33189,0 v 11.0567 m 2.24759,-9.67775 h 3.91934 c 0.23892,0 0.42665,0.18771 0.42665,0.42665 v 3.87157 c 0,0.23892 -0.18773,0.43422 -0.42665,0.43422 h -3.91934 c -0.23892,0 -0.42666,-0.1953 -0.42666,-0.43422 v -3.87157 c 0,-0.23894 0.18774,-0.42665 0.42666,-0.42665 z" />
      <g
         transform="matrix(0.87481441,0,0,0.87481441,17.66803,26.670841)"
         id="g13205"
         style="fill:none;stroke:#000000;stroke-width:0.91448;stroke-miterlimit:4;stroke-dasharray:none">
        <path
           sodipodi:open="true"
           sodipodi:end="5.4977867"
           sodipodi:start="5.7595865"
           sodipodi:cx="94"
           sodipodi:cy="110"
           transform="matrix(0.39017011,0,0,0.39017011,86.982137,172.75903)"
           d="m 106.12436,103 a 14,14 0 0 1 -4.34638,18.64057 14,14 0 0 1 -18.884925,-3.11791 14,14 0 0 1 1.8761,-19.048414 14,14 0 0 1 19.130335,0.626254"
           sodipodi:type="arc"
           style="color:#000000;display:inline;overflow:visible;visibility:visible;fill:none;stroke:#000000;stroke-width:2.3438;stroke-linecap:round;stroke-linejoin:round;stroke-miterlimit:4;stroke-dasharray:none;stroke-dashoffset:0;stroke-opacity:1;marker:none;enable-background:accumulate"
           sodipodi:ry="14"
           sodipodi:rx="14"
           id="path13207"
           sodipodi:arc-type="arc" />
        <path
           sodipodi:open="true"
           sodipodi:end="0.52359879"
           sodipodi:start="1.8325957"
           sodipodi:cx="94"
           sodipodi:cy="110"
           transform="matrix(0.08954474,0,0,0.08954474,115.24055,205.82718)"
           d="M 90.376534,123.52296 A 14,14 0 0 1 80.029975,110.91564 14,14 0 0 1 88.642432,97.065687 14,14 0 0 1 104.52576,100.76916 14,14 0 0 1 106.12436,117"
           sodipodi:type="arc"
           style="color:#000000;display:inline;overflow:visible;visibility:visible;fill:none;stroke:#000000;stroke-width:10.2125;stroke-linecap:round;stroke-linejoin:round;stroke-miterlimit:4;stroke-dasharray:none;stroke-dashoffset:0;stroke-opacity:1;marker:none;enable-background:accumulate"
           sodipodi:ry="14"
           sodipodi:rx="14"
           id="path13209"
           sodipodi:arc-type="arc" />
        <path
           sodipodi:open="true"
           sodipodi:end="2.4742059"
           sodipodi:start="4.4595058"
           sodipodi:cx="94"
           sodipodi:cy="110"
           transform="matrix(0.24715883,0,0,0.24657135,100.3308,188.57727)"
           d="m 90.497249,96.445269 a 14,14 0 0 1 16.445881,8.218491 14,14 0 0 1 -5.8751,17.42106 14,14 0 0 1 -18.064215,-3.41972"
           sodipodi:type="arc"
           style="color:#000000;display:inline;overflow:visible;visibility:visible;fill:none;stroke:#000000;stroke-width:3.70437;stroke-linecap:round;stroke-linejoin:round;stroke-miterlimit:4;stroke-dasharray:none;stroke-dashoffset:0;stroke-opacity:1;marker:none;enable-background:accumulate"
           sodipodi:ry="14"
           sodipodi:rx="14"
           id="path13211"
           sodipodi:arc-type="arc" />
      </g>
      <path
         sodipodi:open="true"
         sodipodi:end="2.8797933"
         sodipodi:start="3.403392"
         id="path13213"
         sodipodi:rx="14"
         sodipodi:ry="14"
         style="color:#000000;display:inline;overflow:visible;visibility:visible;fill:none;stroke:#000000;stroke-width:5.10681;stroke-linecap:round;stroke-linejoin:round;stroke-miterlimit:4;stroke-dasharray:none;stroke-dashoffset:0;stroke-opacity:1;marker:none;enable-background:accumulate"
         sodipodi:type="arc"
         d="M 80.477038,106.37653 A 14,14 0 0 1 95.827366,96.119772 14,14 0 0 1 108,110 14,14 0 0 1 95.827366,123.88023 14,14 0 0 1 80.477038,113.62347"
         transform="matrix(0.15869278,0,0,0.15464073,96.686631,200.90657)"
         sodipodi:cy="110"
         sodipodi:cx="94"
         sodipodi:arc-type="arc" />
      <path
         sodipodi:open="true"
         sodipodi:end="5.3545348"
         sodipodi:start="0"
         id="path13215"
         sodipodi:rx="14"
         sodipodi:ry="14"
         style="color:#000000;display:inline;overflow:visible;visibility:visible;fill:none;stroke:#000000;stroke-width:5.10681;stroke-linecap:round;stroke-linejoin:round;stroke-miterlimit:4;stroke-dasharray:none;stroke-dashoffset:0;stroke-opacity:1;marker:none;enable-background:accumulate"
         sodipodi:type="arc"
         d="M 108,110 A 14,14 0 0 1 97.221157,123.6244 14,14 0 0 1 81.482265,116.26947 14,14 0 0 1 85.018615,99.2606 14,14 0 0 1 102.38481,98.788626"
         transform="matrix(0.15869278,0,0,0.15464073,102.4408,200.90657)"
         sodipodi:cy="110"
         sodipodi:cx="94"
         sodipodi:arc-type="arc" />
      <path
         sodipodi:open="true"
         sodipodi:end="0.52359879"
         sodipodi:start="2.3561945"
         id="path13217"
         sodipodi:rx="14"
         sodipodi:ry="14"
         style="color:#000000;display:inline;overflow:visible;visibility:visible;fill:none;stroke:#000000;stroke-width:16.1128;stroke-linecap:round;stroke-linejoin:round;stroke-miterlimit:4;stroke-dasharray:none;stroke-dashoffset:0;stroke-opacity:1;marker:none;enable-background:accumulate"
         sodipodi:type="arc"
         d="M 84.100505,119.89949 A 14,14 0 0 1 83.275378,101.00097 14,14 0 0 1 102.03007,98.531871 14,14 0 0 1 106.12436,117"
         transform="matrix(0.05040213,0,0,0.04890891,112.62,212.53702)"
         sodipodi:cy="110"
         sodipodi:cx="94"
         sodipodi:arc-type="arc" />
      <path
         sodipodi:nodetypes="cscc"
         inkscape:connector-curvature="0"
         id="path13219"
         d="m 108.94908,211.90284 -5.22079,5.35139 c -0.49245,0.50476 -0.72233,1.1635 -0.72233,1.82224 h 6.67711"
         style="color:#000000;display:inline;overflow:visible;visibility:visible;fill:none;stroke:#000000;stroke-width:0.8;stroke-linecap:round;stroke-linejoin:round;stroke-miterlimit:4;stroke-dasharray:none;stroke-dashoffset:0;stroke-opacity:1;marker:none;enable-background:accumulate" />
      <path
         inkscape:connector-curvature="0"
         id="path13221"
         d="m 109.11272,212.07323 h 3.9062"
         style="color:#000000;display:inline;overflow:visible;visibility:visible;fill:none;stroke:#000000;stroke-width:0.8;stroke-linecap:round;stroke-linejoin:round;stroke-miterlimit:4;stroke-dasharray:none;stroke-dashoffset:0;stroke-opacity:1;marker:none;enable-background:accumulate" />
      <path
         inkscape:connector-curvature="0"
         id="path13223"
         d="m 109.08865,210.91866 h 1.58194"
         style="color:#000000;display:inline;overflow:visible;visibility:visible;fill:none;stroke:#000000;stroke-width:0.8;stroke-linecap:round;stroke-linejoin:round;stroke-miterlimit:4;stroke-dasharray:none;stroke-dashoffset:0;stroke-opacity:1;marker:none;enable-background:accumulate" />
      <path
         inkscape:connector-curvature="0"
         id="path13225"
         d="m 108.77841,209.76409 h 0.61066"
         style="color:#000000;display:inline;overflow:visible;visibility:visible;fill:none;stroke:#000000;stroke-width:0.8;stroke-linecap:round;stroke-linejoin:round;stroke-miterlimit:4;stroke-dasharray:none;stroke-dashoffset:0;stroke-opacity:1;marker:none;enable-background:accumulate" />
      <path
         style="color:#000000;display:inline;overflow:visible;visibility:visible;fill:none;stroke:#000000;stroke-width:0.8;stroke-linecap:round;stroke-linejoin:round;stroke-miterlimit:4;stroke-dasharray:none;stroke-dashoffset:0;stroke-opacity:1;marker:none;enable-background:accumulate"
         d="m 104.90455,217.92896 3.5688,-3.5688"
         id="path13227"
         inkscape:connector-curvature="0" />
      <path
         inkscape:connector-curvature="0"
         id="path13229"
         d="m 106.7828,217.92896 2.11039,-2.11039"
         style="color:#000000;display:inline;overflow:visible;visibility:visible;fill:none;stroke:#000000;stroke-width:0.8;stroke-linecap:round;stroke-linejoin:round;stroke-miterlimit:4;stroke-dasharray:none;stroke-dashoffset:0;stroke-opacity:1;marker:none;enable-background:accumulate" />
      <path
         sodipodi:nodetypes="ccccc"
         inkscape:connector-curvature="0"
         style="color:#000000;display:inline;overflow:visible;visibility:visible;fill:none;stroke:#000000;stroke-width:0.8;stroke-linecap:round;stroke-linejoin:round;stroke-miterlimit:4;stroke-dasharray:none;stroke-dashoffset:0;stroke-opacity:1;marker:none;enable-background:accumulate"
         d="m 113.23644,198.68323 v 3e-5 l -0.41028,0.6008 c -0.057,0.0821 -0.057,0.21825 0,0.30039 l 0.41961,0.61446"
         id="path13231" />
      <path
         id="path13233"
         d="m 115.92011,198.6676 v 3e-5 l 0.51427,0.6008 c 0.0715,0.0821 0.0715,0.21825 0,0.30039 l -0.52597,0.61446"
         style="color:#000000;display:inline;overflow:visible;visibility:visible;fill:none;stroke:#000000;stroke-width:0.8;stroke-linecap:round;stroke-linejoin:round;stroke-miterlimit:4;stroke-dasharray:none;stroke-dashoffset:0;stroke-opacity:1;marker:none;enable-background:accumulate"
         inkscape:connector-curvature="0"
         sodipodi:nodetypes="ccccc" />
      <path
         sodipodi:nodetypes="ccccc"
         inkscape:connector-curvature="0"
         style="color:#000000;display:inline;overflow:visible;visibility:visible;fill:none;stroke:#000000;stroke-width:0.8;stroke-linecap:round;stroke-linejoin:round;stroke-miterlimit:4;stroke-dasharray:none;stroke-dashoffset:0;stroke-opacity:1;marker:none;enable-background:accumulate"
         d="m 114.55018,198.6676 v 3e-5 l 0.0498,0.6008 c 0.007,0.0821 0.007,0.21825 0,0.30039 l -0.051,0.61446"
         id="path13235" />
      <path
         style="color:#000000;display:inline;overflow:visible;visibility:visible;fill:none;stroke:#000000;stroke-width:0.8;stroke-linecap:round;stroke-linejoin:round;stroke-miterlimit:4;stroke-dasharray:none;stroke-dashoffset:0;stroke-opacity:1;marker:none;enable-background:accumulate"
         d="m 109.03814,208.60949 h 0.83378"
         id="path13237"
         inkscape:connector-curvature="0" />
      <path
         inkscape:connector-curvature="0"
         id="path13239"
         d="m 109.30749,207.45494 h 2.02981"
         style="color:#000000;display:inline;overflow:visible;visibility:visible;fill:none;stroke:#000000;stroke-width:0.8;stroke-linecap:round;stroke-linejoin:round;stroke-miterlimit:4;stroke-dasharray:none;stroke-dashoffset:0;stroke-opacity:1;marker:none;enable-background:accumulate" />
      <path
         style="color:#000000;display:inline;overflow:visible;visibility:visible;fill:none;stroke:#000000;stroke-width:0.8;stroke-linecap:round;stroke-linejoin:round;stroke-miterlimit:4;stroke-dasharray:none;stroke-dashoffset:0;stroke-opacity:1;marker:none;enable-background:accumulate"
         d="m 117.85723,207.45494 h 4.14152"
         id="path13241"
         inkscape:connector-curvature="0" />
      <path
         inkscape:connector-curvature="0"
         id="path13243"
         d="m 120.2579,208.60949 h 1.74085"
         style="color:#000000;display:inline;overflow:visible;visibility:visible;fill:none;stroke:#000000;stroke-width:0.8;stroke-linecap:round;stroke-linejoin:round;stroke-miterlimit:4;stroke-dasharray:none;stroke-dashoffset:0;stroke-opacity:1;marker:none;enable-background:accumulate" />
      <path
         style="color:#000000;display:inline;overflow:visible;visibility:visible;fill:none;stroke:#000000;stroke-width:0.8;stroke-linecap:round;stroke-linejoin:round;stroke-miterlimit:4;stroke-dasharray:none;stroke-dashoffset:0;stroke-opacity:1;marker:none;enable-background:accumulate"
         d="m 121.47182,209.76409 h 0.52693"
         id="path13245"
         inkscape:connector-curvature="0" />
      <path
         style="color:#000000;display:inline;overflow:visible;visibility:visible;fill:none;stroke:#000000;stroke-width:0.8;stroke-linecap:round;stroke-linejoin:round;stroke-miterlimit:4;stroke-dasharray:none;stroke-dashoffset:0;stroke-opacity:1;marker:none;enable-background:accumulate"
         d="m 121.47141,210.91865 h 0.52734"
         id="path13247"
         inkscape:connector-curvature="0" />
      <path
         style="color:#000000;display:inline;overflow:visible;visibility:visible;fill:none;stroke:#000000;stroke-width:0.8;stroke-linecap:round;stroke-linejoin:round;stroke-miterlimit:4;stroke-dasharray:none;stroke-dashoffset:0;stroke-opacity:1;marker:none;enable-background:accumulate"
         d="m 120.79583,212.07323 h 1.20292"
         id="path13249"
         inkscape:connector-curvature="0" />
      <path
         style="color:#000000;display:inline;overflow:visible;visibility:visible;fill:none;stroke:#000000;stroke-width:0.8;stroke-linecap:round;stroke-linejoin:round;stroke-miterlimit:4;stroke-dasharray:none;stroke-dashoffset:0;stroke-opacity:1;marker:none;enable-background:accumulate"
         d="m 110.13038,215.02332 -0.28702,-0.64106"
         id="path13251"
         inkscape:connector-curvature="0" />
      <path
         sodipodi:cx="94"
         sodipodi:cy="110"
         transform="matrix(0.05040213,0,0,0.04890891,106.86595,212.53702)"
         d="M 108,110 A 14,14 0 0 1 99.357568,122.93431 14,14 0 0 1 84.100505,119.89949 14,14 0 0 1 81.065687,104.64243 14,14 0 0 1 94,96"
         sodipodi:type="arc"
         style="color:#000000;display:inline;overflow:visible;visibility:visible;fill:none;stroke:#000000;stroke-width:16.1128;stroke-linecap:round;stroke-linejoin:round;stroke-miterlimit:4;stroke-dasharray:none;stroke-dashoffset:0;stroke-opacity:1;marker:none;enable-background:accumulate"
         sodipodi:ry="14"
         sodipodi:rx="14"
         id="path13253"
         sodipodi:start="0"
         sodipodi:end="4.712389"
         sodipodi:open="true"
         sodipodi:arc-type="arc" />
      <path
         style="color:#000000;display:inline;overflow:visible;visibility:visible;fill:none;stroke:#000000;stroke-width:0.8;stroke-linecap:round;stroke-linejoin:round;stroke-miterlimit:4;stroke-dasharray:none;stroke-dashoffset:0;stroke-opacity:1;marker:none;enable-background:accumulate"
         d="m 108.41798,217.92896 0.0775,-0.0775"
         id="path13255"
         inkscape:connector-curvature="0" />
      <path
         style="color:#000000;display:inline;overflow:visible;visibility:visible;fill:none;stroke:#000000;stroke-width:0.8;stroke-linecap:round;stroke-linejoin:round;stroke-miterlimit:4;stroke-dasharray:none;stroke-dashoffset:0;stroke-opacity:1;marker:none;enable-background:accumulate"
         d="m 108.77841,209.76409 h 0.61066"
         id="path13257"
         inkscape:connector-curvature="0" />
      <path
         style="color:#000000;display:inline;overflow:visible;visibility:visible;fill:none;stroke:#000000;stroke-width:0.8;stroke-linecap:round;stroke-linejoin:round;stroke-miterlimit:4;stroke-dasharray:none;stroke-dashoffset:0;stroke-opacity:1;marker:none;enable-background:accumulate"
         d="m 113.61525,201.38663 h 1.2832"
         id="path13259"
         inkscape:connector-curvature="0" />
      <path
         sodipodi:nodetypes="cssccc"
         inkscape:connector-curvature="0"
         id="path13261"
         d="m 138.68226,214.41494 c 0.42828,0.42828 0.42828,1.12267 0,1.55095 -0.42828,0.42828 -1.12267,0.42829 -1.55095,0 -0.14554,-0.14553 -0.24594,-0.32775 -0.29222,-0.52492 -0.0294,-0.10988 -0.15359,-0.12443 -0.45374,-0.12443 l -1.30988,-0.0156"
         style="color:#000000;display:inline;overflow:visible;visibility:visible;fill:none;stroke:#000000;stroke-width:0.8;stroke-linecap:round;stroke-linejoin:round;stroke-miterlimit:4;stroke-dasharray:none;stroke-dashoffset:0;stroke-opacity:1;marker:none;enable-background:accumulate" />
      <path
         inkscape:connector-curvature="0"
         id="path13263"
         d="m 132.81665,212.07323 h 1.20292"
         style="color:#000000;display:inline;overflow:visible;visibility:visible;fill:none;stroke:#000000;stroke-width:0.8;stroke-linecap:round;stroke-linejoin:round;stroke-miterlimit:4;stroke-dasharray:none;stroke-dashoffset:0;stroke-opacity:1;marker:none;enable-background:accumulate" />
      <path
         style="color:#000000;display:inline;overflow:visible;visibility:visible;fill:none;stroke:#000000;stroke-width:0.8;stroke-linecap:round;stroke-linejoin:round;stroke-miterlimit:4;stroke-dasharray:none;stroke-dashoffset:0;stroke-opacity:1;marker:none;enable-background:accumulate"
         d="m 132.81665,210.91865 h 1.20292"
         id="path13265"
         inkscape:connector-curvature="0" />
      <path
         inkscape:connector-curvature="0"
         id="path13267"
         d="m 132.81665,209.76409 h 1.20292"
         style="color:#000000;display:inline;overflow:visible;visibility:visible;fill:none;stroke:#000000;stroke-width:0.8;stroke-linecap:round;stroke-linejoin:round;stroke-miterlimit:4;stroke-dasharray:none;stroke-dashoffset:0;stroke-opacity:1;marker:none;enable-background:accumulate" />
      <path
         style="color:#000000;display:inline;overflow:visible;visibility:visible;fill:none;stroke:#000000;stroke-width:0.8;stroke-linecap:round;stroke-linejoin:round;stroke-miterlimit:4;stroke-dasharray:none;stroke-dashoffset:0;stroke-opacity:1;marker:none;enable-background:accumulate"
         d="m 132.81665,208.60949 h 1.20292"
         id="path13269"
         inkscape:connector-curvature="0" />
      <path
         inkscape:connector-curvature="0"
         id="path13271"
         d="m 113.6631,203.48419 v 2.44319"
         style="color:#000000;display:inline;overflow:visible;visibility:visible;fill:none;stroke:#000000;stroke-width:0.8;stroke-linecap:round;stroke-linejoin:round;stroke-miterlimit:4;stroke-dasharray:none;stroke-dashoffset:0;stroke-opacity:1;marker:none;enable-background:accumulate" />
      <path
         inkscape:connector-curvature="0"
         id="path13273"
         d="m 132.62872,200.01163 h 2.12371"
         style="color:#000000;display:inline;overflow:visible;visibility:visible;fill:none;stroke:#000000;stroke-width:0.8;stroke-linecap:round;stroke-linejoin:round;stroke-miterlimit:4;stroke-dasharray:none;stroke-dashoffset:0;stroke-opacity:1;marker:none;enable-background:accumulate" />
      <path
         style="color:#000000;display:inline;overflow:visible;visibility:visible;fill:none;stroke:#000000;stroke-width:0.8;stroke-linecap:round;stroke-linejoin:round;stroke-miterlimit:4;stroke-dasharray:none;stroke-dashoffset:0;stroke-opacity:1;marker:none;enable-background:accumulate"
         d="m 133.88578,198.72257 h 1.07834"
         id="path13275"
         inkscape:connector-curvature="0" />
      <path
         inkscape:connector-curvature="0"
         id="path13277"
         d="m 126.1905,208.3751 h 1.98645"
         style="color:#000000;display:inline;overflow:visible;visibility:visible;fill:none;stroke:#000000;stroke-width:0.8;stroke-linecap:round;stroke-linejoin:round;stroke-miterlimit:4;stroke-dasharray:none;stroke-dashoffset:0;stroke-opacity:1;marker:none;enable-background:accumulate" />
      <path
         inkscape:connector-curvature="0"
         id="path13281"
         d="m 114.34547,209.76409 h 0.76198"
         style="color:#000000;display:inline;overflow:visible;visibility:visible;fill:none;stroke:#000000;stroke-width:0.8;stroke-linecap:round;stroke-linejoin:round;stroke-miterlimit:4;stroke-dasharray:none;stroke-dashoffset:0;stroke-opacity:1;marker:none;enable-background:accumulate" />
      <path
         style="color:#000000;display:inline;overflow:visible;visibility:visible;fill:none;stroke:#000000;stroke-width:0.8;stroke-linecap:round;stroke-linejoin:round;stroke-miterlimit:4;stroke-dasharray:none;stroke-dashoffset:0;stroke-opacity:1;marker:none;enable-background:accumulate"
         d="m 114.73221,208.60949 h 0.52693"
         id="path13287"
         inkscape:connector-curvature="0" />
      <path
         inkscape:connector-curvature="0"
         id="path13289"
         d="m 114.90214,210.91866 h 0.14019"
         style="color:#000000;display:inline;overflow:visible;visibility:visible;fill:none;stroke:#000000;stroke-width:0.8;stroke-linecap:round;stroke-linejoin:round;stroke-miterlimit:4;stroke-dasharray:none;stroke-dashoffset:0;stroke-opacity:1;marker:none;enable-background:accumulate" />
    </g>
    <path
       style="fill:#ff0000;stroke-width:0.182341"
       d="m 23.729806,34.255953 c -1.289654,-0.396101 -2.555818,-1.716924 -2.951874,-3.079307 -0.332572,-1.144009 -0.267644,-2.05694 0.218849,-3.077125 0.163694,-0.34327 0.247533,-0.754665 0.186309,-0.914211 -0.12311,-0.320821 -0.766207,-0.394276 -0.943293,-0.107744 -0.149127,0.241291 -3.55564,0.241291 -3.55564,0 0,-0.100287 0.328213,-0.182341 0.729362,-0.182341 0.656426,0 0.729362,-0.04558 0.729362,-0.455851 0,-0.410676 -0.0768,-0.458415 -0.774947,-0.481726 l -0.774947,-0.02587 0.729362,-0.110881 c 0.626857,-0.0953 0.729362,-0.174945 0.729362,-0.566731 0,-0.3972 -0.09384,-0.465938 -0.729362,-0.534247 l -0.729362,-0.0784 0.729362,-0.103945 c 0.628707,-0.0896 0.729362,-0.166854 0.729362,-0.559796 0,-0.391786 -0.102505,-0.471434 -0.729362,-0.566731 l -0.729362,-0.110881 0.774947,-0.02587 c 0.69815,-0.02331 0.774947,-0.07105 0.774947,-0.481726 0,-0.250718 -0.102567,-0.459478 -0.227926,-0.46391 -0.125359,-0.0044 0.100287,-0.178303 0.501437,-0.386379 1.762585,-0.914253 2.087493,-1.640131 2.092911,-4.675765 l 0.004,-2.243924 0.866117,-0.393163 c 1.1887,-0.539595 4.787292,-0.582416 6.108407,-0.07269 l 0.866117,0.334177 v 5.160428 5.160428 l -1.129786,-0.456341 c -0.944797,-0.381621 -1.34039,-0.442582 -2.416012,-0.372311 -1.81723,0.118721 -3.747822,1.150304 -3.747822,2.002593 0,0.545237 0.482688,0.577143 1.140521,0.07539 0.929119,-0.708673 1.842467,-1.024599 2.962141,-1.024599 1.256808,0 2.160858,0.364361 3.075939,1.239702 0.967616,0.925593 1.382524,1.893761 1.387398,3.237424 0.0074,2.044071 -1.270199,3.803504 -3.174464,4.371626 -1.097489,0.327429 -1.577414,0.322263 -2.722058,-0.0293 z m 3.074249,-0.95876 c 0.929636,-0.429054 1.597683,-1.142071 1.444371,-1.541598 -0.163384,-0.425772 -0.57527,-0.375143 -1.195786,0.146987 -1.15094,0.968452 -2.721189,0.953169 -3.664554,-0.03567 -0.946252,-0.991863 -1.099148,-2.051002 -0.460198,-3.18786 0.518001,-0.921659 1.463224,-1.419146 2.696372,-1.419146 0.852524,0 0.9267,-0.03363 0.873381,-0.395983 -0.08712,-0.592069 -0.899069,-0.792361 -2.111849,-0.520953 -1.870222,0.418537 -3.182263,2.348499 -2.866632,4.216706 0.405756,2.401646 3.047603,3.770094 5.284895,2.737517 z m -0.914753,-1.842295 c 0.560343,-0.213042 1.079434,-1.297928 0.901225,-1.883535 -0.645516,-2.121212 -3.682544,-1.445214 -3.274678,0.728896 0.06455,0.344093 0.236965,0.671518 0.38314,0.727611 0.433683,0.166419 0.804214,-0.277588 0.693522,-0.831047 -0.173503,-0.867518 0.840221,-1.263652 1.152333,-0.450299 0.0789,0.2056 -0.04276,0.434775 -0.368816,0.694762 -0.536401,0.427711 -0.596594,0.64713 -0.26774,0.975984 0.262569,0.262568 0.197608,0.259439 0.781014,0.03763 z m -0.726311,-8.935845 c 0,-0.442528 -0.04138,-0.457409 -1.4159,-0.509156 -1.141467,-0.04297 -1.436816,0.0012 -1.523817,0.227926 -0.263086,0.68559 0.0462,0.846015 1.523817,0.790386 1.374518,-0.05175 1.4159,-0.06663 1.4159,-0.509156 z m 2.060447,-0.948171 c 0.304909,-0.304908 0.304909,-5.27471 0,-5.579619 -0.304908,-0.304909 -5.274711,-0.304909 -5.579619,0 -0.304909,0.304909 -0.304909,5.274711 0,5.579619 0.304908,0.304909 5.274711,0.304909 5.579619,0 z"
       id="path1"
       transform="matrix(0.93749999,0,0,0.93749999,346.58899,510.7335)" />
    <path
       style="fill:#ff0000;stroke-width:0.182341"
       d="m 29.995014,27.089677 c 0,-0.09363 0.225646,-0.196192 0.501436,-0.227925 0.360644,-0.0415 0.501437,-0.160091 0.501437,-0.422378 0,-0.301163 -0.140794,-0.374731 -0.808353,-0.422383 -0.768414,-0.05485 -0.786432,-0.06863 -0.364681,-0.278895 0.586726,-0.292515 0.579849,-0.885465 -0.01218,-1.050145 -0.406524,-0.11308 -0.413567,-0.128768 -0.06509,-0.144977 0.405774,-0.01887 0.69509,-0.465765 0.502878,-0.77677 -0.06073,-0.09826 -0.286644,-0.249766 -0.502028,-0.336668 -0.290613,-0.117256 -0.119737,-0.160986 0.662573,-0.169563 0.764998,-0.0084 1.083217,-0.08722 1.160028,-0.287391 0.188464,-0.49113 -0.297899,-0.816363 -1.279248,-0.855437 -0.514228,-0.02048 0.131731,-0.08202 1.435466,-0.136755 2.21569,-0.09303 2.370427,-0.123334 2.370427,-0.46421 0,-0.342944 -0.138572,-0.367723 -2.324842,-0.415714 -1.345532,-0.02954 -2.324841,-0.125546 -2.324841,-0.227925 0,-0.245018 12.521196,-0.239635 12.672665,0.0054 0.06987,0.113043 -0.265114,0.18234 -0.881433,0.18234 -0.982837,0 -1.259746,0.174953 -1.082257,0.683777 0.05215,0.14952 0.497667,0.232878 1.295108,0.242321 1.049731,0.01243 1.145784,0.03985 0.703924,0.20095 -0.710783,0.259146 -0.618359,0.928668 0.146999,1.06487 0.429274,0.07639 0.478335,0.124475 0.227925,0.223376 -0.41168,0.162594 -0.41168,0.794789 0,1.03457 0.246986,0.143856 0.107174,0.18711 -0.618683,0.191401 -0.694315,0.0041 -0.96733,0.08255 -1.051604,0.302167 -0.175797,0.45812 0.21079,0.77105 1.046297,0.846945 0.41841,0.03801 -0.20338,0.08344 -1.381755,0.100961 l -2.142501,0.03186 v 0.455851 0.455851 l 1.96016,0.0028 c 1.332932,0.0019 1.87264,0.05935 1.68665,0.179548 -0.359695,0.232452 -12.034474,0.244202 -12.034474,0.01211 z m 7.083636,-1.449892 c 0.406346,-0.257512 0.172451,-0.841475 -0.337037,-0.841475 -0.296308,0 -0.473489,0.117518 -0.51688,0.342831 -0.05682,0.295032 0.22705,0.654457 0.51688,0.654457 0.05014,0 0.20181,-0.07012 0.337037,-0.155813 z m 0.665836,-1.662008 c 0,-0.391295 -0.09259,-0.463612 -0.653799,-0.510656 -0.801861,-0.06722 -1.261804,0.343516 -0.888444,0.793387 0.151801,0.182909 0.465477,0.263381 0.888444,0.227925 0.56121,-0.04704 0.653799,-0.11936 0.653799,-0.510656 z m -0.302672,-1.163364 c 0.118299,-0.623539 -0.807465,-0.891409 -1.317621,-0.381253 -0.455717,0.455717 -0.161131,0.842511 0.59352,0.779294 0.474433,-0.03974 0.67728,-0.151248 0.724101,-0.398041 z"
       id="path2"
       transform="matrix(0.93749999,0,0,0.93749999,346.58899,510.7335)" />
    <path
       style="fill:#ff0000;stroke-width:0.182341"
       d="m 33.003633,27.083328 c -1.50431,-0.05331 -2.543352,-0.152657 -2.308983,-0.220764 0.658348,-0.191316 0.446661,-0.773807 -0.307543,-0.846253 -0.594,-0.05706 -0.600357,-0.0666 -0.280111,-0.420466 0.266526,-0.294507 0.287351,-0.426665 0.111584,-0.708112 -0.151781,-0.24304 -0.157829,-0.38204 -0.02032,-0.467025 0.107677,-0.06655 0.159188,-0.312401 0.114468,-0.546339 -0.08775,-0.459012 0.147594,-0.625954 0.882413,-0.625954 0.348773,0 0.440938,-0.09528 0.440938,-0.455851 0,-0.250718 -0.09573,-0.455851 -0.212731,-0.455851 -0.117002,0 -0.156328,-0.0564 -0.08739,-0.125339 0.06894,-0.06894 0.718525,-0.171503 1.443529,-0.227926 1.162435,-0.09046 1.318191,-0.145677 1.318191,-0.467268 0,-0.332691 -0.151951,-0.372678 -1.732235,-0.455851 l -1.732235,-0.09117 2.461597,-0.102157 c 2.755872,-0.114368 8.64885,0.02687 7.658301,0.183552 -0.481792,0.07621 -0.638192,0.189887 -0.638192,0.463872 0,0.28749 0.174193,0.394751 0.838042,0.516033 0.757187,0.138334 0.829945,0.195459 0.754124,0.592093 -0.05582,0.291982 0.01465,0.47681 0.210416,0.551933 0.19041,0.07307 0.294334,0.330167 0.294334,0.728156 0,0.522942 -0.0752,0.631689 -0.501436,0.725084 -0.944463,0.206948 -1.001651,0.252078 -0.912226,0.719874 0.08352,0.436891 0.05128,0.453583 -0.875966,0.453583 -1.242539,0 -1.539522,0.125196 -1.539522,0.649 0,0.396108 0.08403,0.432415 1.139628,0.49238 0.63027,0.0358 0.147952,0.08044 -1.07913,0.09987 -1.220317,0.01932 -2.328036,0.05824 -2.461597,0.08648 -0.133561,0.02824 -1.473637,0.0077 -2.977946,-0.04558 z m 4.193831,-1.829167 c 0,-0.334181 -0.109721,-0.471432 -0.411081,-0.514225 -0.44803,-0.06362 -0.702496,0.327411 -0.520945,0.800524 0.0659,0.171729 0.27437,0.26294 0.520945,0.227926 0.30136,-0.04279 0.411081,-0.180045 0.411081,-0.514225 z m 0.547022,-1.276384 c 0,-0.4061 -0.08476,-0.461979 -0.776616,-0.512002 -0.815878,-0.05899 -1.111705,0.206925 -0.885625,0.796079 0.08027,0.209174 0.313779,0.269271 0.885625,0.227925 0.691856,-0.05002 0.776616,-0.105902 0.776616,-0.512002 z m -0.364681,-1.276383 c 0,-0.375876 -0.0987,-0.465483 -0.562553,-0.510748 -0.629924,-0.06147 -1.092577,0.338185 -0.918036,0.793031 0.07914,0.206229 0.302829,0.270986 0.795346,0.230247 0.594251,-0.04915 0.685243,-0.117211 0.685243,-0.51253 z"
       id="path3"
       transform="matrix(0.93749999,0,0,0.93749999,346.58899,510.7335)" />
    <path
       style="fill:#ff0000;stroke-width:0.182341"
       d="m 33.518831,34.287468 c -0.782397,-0.340326 -1.179686,-0.997385 -1.128419,-1.866248 0.05705,-0.966861 -0.100741,-1.149691 -0.99302,-1.150605 l -0.764186,-7.83e-4 v -1.54913 -1.549129 l 5.958417,1.8e-5 5.958418,1.8e-5 0.398264,-0.501436 0.398263,-0.501437 2.704035,2.826278 c 1.487219,1.554453 2.742206,2.969871 2.788858,3.145374 0.07818,0.294082 -0.142534,0.319096 -2.815553,0.319096 -2.553837,0 -2.900377,-0.03535 -2.900377,-0.295838 0,-0.230156 0.05559,-0.249699 0.250399,-0.08802 0.343296,0.284911 0.843644,0.05882 0.843644,-0.381217 0,-0.3363 0.03894,-0.328619 0.561012,0.110678 0.635505,0.534743 0.737373,0.559463 1.043584,0.253252 0.352341,-0.352341 0.28096,-0.481634 -0.996319,-1.804666 -1.335244,-1.383073 -2.067001,-1.664266 -2.067001,-0.794291 0,0.459658 -0.0044,0.461044 -0.438243,0.136755 -0.422898,-0.316137 -0.426589,-0.338565 -0.105415,-0.640536 0.487517,-0.458369 0.627514,-1.048915 0.321261,-1.355169 -0.142933,-0.142933 -0.390121,-0.2099 -0.549307,-0.148814 -0.296227,0.113673 -0.598107,0.888849 -0.521159,1.338248 0.03288,0.192006 -0.108949,0.222207 -0.605788,0.129 -0.906895,-0.170135 -1.945083,0.154606 -2.565905,0.802606 -0.667514,0.696735 -1.242569,0.699893 -2.027023,0.01113 -1.169928,-1.027211 -2.9216,-1.144747 -3.810655,-0.255692 -0.611675,0.611675 0.0666,0.85859 1.414563,0.514946 1.033727,-0.263534 2.141072,0.656969 2.141072,1.77981 0,0.603365 -0.494856,1.231652 -1.203187,1.527612 -0.715127,0.298799 -0.573168,0.300098 -1.290233,-0.01181 z m 1.800583,-1.108841 c 0.454882,-0.998358 -0.435659,-1.938834 -1.567014,-1.654882 -0.965822,0.242406 -1.139265,1.935739 -0.198272,1.935739 0.360975,0 0.452377,-0.0921 0.452377,-0.455851 0,-0.250719 0.08758,-0.455852 0.194628,-0.455852 0.111358,0 0.145329,0.155328 0.0794,0.363049 -0.256309,0.807559 0.682665,1.049602 1.03888,0.267797 z m 12.535297,-0.163339 c 0.316545,-0.381414 0.102689,-0.674502 -2.050658,-2.810408 -1.314436,-1.30379 -2.007966,-1.866731 -2.243811,-1.821311 -0.806382,0.155295 -0.476575,0.73359 1.606186,2.816352 1.142472,1.142472 2.165814,2.077222 2.274093,2.077222 0.108278,0 0.294664,-0.117835 0.41419,-0.261855 z"
       id="path4"
       transform="matrix(0.93749999,0,0,0.93749999,346.58899,510.7335)" />
    <path
       style="fill:#ff0000;stroke-width:0.182341"
       d="m 16.076355,31.149837 c -0.214391,-0.214391 -0.132806,-2.529365 0.09725,-2.759419 0.139171,-0.139171 0.843102,-0.218809 1.934084,-0.218809 1.489194,0 1.700687,0.03802 1.604597,0.288424 -0.06087,0.158633 -0.110679,0.856086 -0.110679,1.549894 v 1.261471 H 17.89976 c -0.936014,0 -1.756547,-0.0547 -1.823405,-0.121561 z"
       id="path5"
       transform="matrix(0.93749999,0,0,0.93749999,346.58899,510.7335)" />
    <path
       style="fill:#ff0000;stroke-width:0.0911703"
       d="m 28.778549,14.028666 c -0.914578,-0.629004 -2.37543,-0.890893 -4.618431,-0.82795 -1.817025,0.05099 -2.728274,0.221058 -3.669351,0.684824 l -0.524481,0.258465 -0.820532,-0.143063 c -0.774351,-0.135011 -0.818837,-0.155032 -0.790414,-0.355715 0.01656,-0.116958 -0.04108,-0.291321 -0.128093,-0.387473 -0.139668,-0.154331 -0.290132,-0.174822 -1.28371,-0.174822 -1.064717,0 -1.125498,-0.0098 -1.125498,-0.182341 0,-0.153922 0.06078,-0.18234 0.389981,-0.18234 0.502601,0 0.795233,-0.202016 0.795233,-0.548984 0,-0.307452 -0.204628,-0.451059 -0.654991,-0.459668 -0.285114,-0.0055 -0.289907,-0.01074 -0.08433,-0.09298 0.133494,-0.05341 2.671811,-0.07767 6.549549,-0.0626 l 6.331579,0.0246 0.174258,0.215234 c 0.14548,0.179688 0.174258,0.365118 0.174258,1.122829 0,1.255241 -0.155381,1.496881 -0.715029,1.111981 z"
       id="path6"
       transform="matrix(0.93749999,0,0,0.93749999,346.58899,510.7335)" />
    <path
       style="fill:#ff0000;stroke-width:0.0911703"
       d="m 35.601985,17.164514 v -2.573847 l -0.843325,-0.849788 -0.843325,-0.849789 0.729362,-0.675409 0.729362,-0.67541 1.916714,-0.0036 1.916715,-0.0036 0.706585,0.710755 0.706586,0.710754 -0.84548,0.816347 -0.84548,0.816348 -0.0268,2.57556 c -0.0227,2.18182 -0.04709,2.575559 -0.159547,2.575559 -0.11009,0 -0.132753,-0.224572 -0.132753,-1.315456 0,-1.416481 -0.05671,-1.601992 -0.489714,-1.601992 -0.383345,0 -0.421988,0.1436 -0.421988,1.568129 v 1.349319 h -1.048458 -1.048458 z m 2.832271,-1.714363 c 0.121725,-0.06514 0.176347,-0.19123 0.176347,-0.407059 0,-0.419743 -0.181386,-0.501436 -1.113348,-0.501436 -0.851229,0 -1.165908,0.135338 -1.165908,0.501436 0,0.366098 0.314679,0.501437 1.165908,0.501437 0.41836,0 0.840011,-0.04247 0.937001,-0.09438 z m -2.37642,-1.364347 c 0.243295,-0.243294 0.230834,-0.358331 -0.08465,-0.781444 l -0.266988,-0.358076 0.205322,-0.273565 c 0.27558,-0.367175 0.31874,-0.509289 0.228441,-0.752208 -0.05885,-0.158312 -0.147986,-0.205133 -0.39053,-0.205133 -0.269027,0 -0.367904,0.06735 -0.686715,0.467761 -0.493491,0.619798 -0.494511,0.904995 -0.0054,1.519252 0.493059,0.619256 0.68945,0.694513 1.00055,0.383413 z m 1.405482,0.06246 c 0.141516,-0.10348 0.163949,-0.264677 0.163949,-1.178114 0,-0.582028 -0.02733,-1.102453 -0.06073,-1.156502 -0.0334,-0.05405 -0.200462,-0.09827 -0.371242,-0.09827 -0.428486,0 -0.499263,0.180094 -0.499263,1.27039 0,0.796136 0.02415,0.941849 0.18234,1.100036 0.212783,0.212784 0.358142,0.228304 0.58495,0.06246 z m 1.582284,-0.222006 c 0.586945,-0.748825 0.614089,-1.052021 0.155186,-1.733452 -0.258427,-0.383742 -0.371136,-0.477427 -0.574373,-0.477427 -0.13907,0 -0.302086,0.04923 -0.362259,0.109404 -0.166325,0.166325 -0.130904,0.568035 0.07294,0.827176 0.225923,0.287215 0.22576,0.296265 -0.0114,0.629319 -0.237447,0.333464 -0.249497,0.703949 -0.02816,0.865795 0.270811,0.198021 0.464612,0.140815 0.748066,-0.220815 z"
       id="path7"
       transform="matrix(0.93749999,0,0,0.93749999,346.58899,510.7335)" />
    <path
       style="fill:#ff0000;stroke-width:0.0911703"
       d="m 39.567891,34.335095 c -0.918823,-0.425401 -1.354434,-1.415697 -0.998036,-2.268886 0.421654,-1.009408 1.580652,-1.479189 2.54793,-1.032762 0.436728,0.201563 0.687981,0.462939 0.973667,1.012898 0.164771,0.317191 0.271073,0.416931 0.468565,0.439646 0.566067,0.06511 0.667843,-0.389705 0.254823,-1.138735 -0.234592,-0.425443 -0.244234,-0.475235 -0.09935,-0.513122 0.110641,-0.02893 0.410552,0.209309 0.966123,0.767467 0.626002,0.628915 0.762842,0.809425 0.613606,0.809425 -0.105638,0 -0.243142,-0.06154 -0.305566,-0.136756 -0.285406,-0.343893 -0.876537,-0.02931 -0.78692,0.41878 0.06053,0.302636 -0.08691,0.381972 -0.369387,0.198771 -0.265671,-0.1723 -0.548461,-0.02178 -0.717026,0.381654 -0.431153,1.031895 -1.579438,1.510247 -2.548424,1.06162 z m 1.318446,-0.600279 c 0.436994,-0.225978 0.641714,-0.565389 0.641714,-1.063913 0,-0.375785 -0.04651,-0.495652 -0.299435,-0.771635 -0.235425,-0.256894 -0.387233,-0.336637 -0.710155,-0.373035 -0.486643,-0.05485 -0.673568,0.100802 -0.613396,0.51078 0.0373,0.25412 0.02609,0.263751 -0.254076,0.218287 -0.244657,-0.0397 -0.319556,-0.0072 -0.453212,0.196808 -0.153359,0.234055 -0.152775,0.261967 0.01383,0.661184 0.278747,0.66794 1.039214,0.950163 1.674732,0.621524 z"
       id="path8"
       transform="matrix(0.93749999,0,0,0.93749999,346.58899,510.7335)" />
  </g>
</svg>
