<?xml version="1.0" encoding="UTF-8"?>
<svg xmlns="http://www.w3.org/2000/svg" xmlns:xlink="http://www.w3.org/1999/xlink"
     width="760" height="340" viewBox="0 0 760 340">
<defs>
</defs>
<rect x="0" y="0" width="760" height="340" fill="#8B4513" rx="10" ry="10" />
<rect x="20" y="20" width="720" height="300" fill="white" rx="5" ry="5" />
<rect x="20" y="100" width="720" height="20" fill="#5D4037" />
<path d="M710.0,20 L710.0,320" stroke="black" stroke-width="4" />
<circle cx="710.0" cy="40" r="20" fill="#d32f2f" stroke="black" />
<circle cx="710.0" cy="300" r="20" fill="#d32f2f" stroke="black" />
<circle cx="710.0" cy="260" r="20" fill="#d32f2f" stroke="black" />
<circle cx="710.0" cy="220" r="20" fill="#d32f2f" stroke="black" />
<circle cx="710.0" cy="180" r="20" fill="#d32f2f" stroke="black" />
<path d="M650.0,20 L650.0,320" stroke="black" stroke-width="4" />
<circle cx="650.0" cy="40" r="20" fill="#d32f2f" stroke="black" />
<circle cx="650.0" cy="300" r="20" fill="#d32f2f" stroke="black" />
<circle cx="650.0" cy="260" r="20" fill="#d32f2f" stroke="black" />
<circle cx="650.0" cy="220" r="20" fill="#d32f2f" stroke="black" />
<circle cx="650.0" cy="180" r="20" fill="#d32f2f" stroke="black" />
<path d="M590.0,20 L590.0,320" stroke="black" stroke-width="4" />
<circle cx="590.0" cy="40" r="20" fill="#d32f2f" stroke="black" />
<circle cx="590.0" cy="300" r="20" fill="#d32f2f" stroke="black" />
<circle cx="590.0" cy="260" r="20" fill="#d32f2f" stroke="black" />
<circle cx="590.0" cy="220" r="20" fill="#d32f2f" stroke="black" />
<circle cx="590.0" cy="180" r="20" fill="#d32f2f" stroke="black" />
<path d="M530.0,20 L530.0,320" stroke="black" stroke-width="4" />
<circle cx="530.0" cy="40" r="20" fill="#d32f2f" stroke="black" />
<circle cx="530.0" cy="300" r="20" fill="#d32f2f" stroke="black" />
<circle cx="530.0" cy="260" r="20" fill="#d32f2f" stroke="black" />
<circle cx="530.0" cy="220" r="20" fill="#d32f2f" stroke="black" />
<circle cx="530.0" cy="180" r="20" fill="#d32f2f" stroke="black" />
<path d="M470.0,20 L470.0,320" stroke="black" stroke-width="4" />
<circle cx="470.0" cy="40" r="20" fill="#d32f2f" stroke="black" />
<circle cx="470.0" cy="300" r="20" fill="#d32f2f" stroke="black" />
<circle cx="470.0" cy="260" r="20" fill="#d32f2f" stroke="black" />
<circle cx="470.0" cy="220" r="20" fill="#d32f2f" stroke="black" />
<circle cx="470.0" cy="180" r="20" fill="#d32f2f" stroke="black" />
<path d="M410.0,20 L410.0,320" stroke="black" stroke-width="4" />
<circle cx="410.0" cy="40" r="20" fill="#d32f2f" stroke="black" />
<circle cx="410.0" cy="300" r="20" fill="#d32f2f" stroke="black" />
<circle cx="410.0" cy="260" r="20" fill="#d32f2f" stroke="black" />
<circle cx="410.0" cy="220" r="20" fill="#d32f2f" stroke="black" />
<circle cx="410.0" cy="180" r="20" fill="#d32f2f" stroke="black" />
<path d="M350.0,20 L350.0,320" stroke="black" stroke-width="4" />
<circle cx="350.0" cy="40" r="20" fill="#d32f2f" stroke="black" />
<circle cx="350.0" cy="300" r="20" fill="#d32f2f" stroke="black" />
<circle cx="350.0" cy="260" r="20" fill="#d32f2f" stroke="black" />
<circle cx="350.0" cy="220" r="20" fill="#d32f2f" stroke="black" />
<circle cx="350.0" cy="180" r="20" fill="#d32f2f" stroke="black" />
<path d="M290.0,20 L290.0,320" stroke="black" stroke-width="4" />
<circle cx="290.0" cy="40" r="20" fill="#d32f2f" stroke="black" />
<circle cx="290.0" cy="300" r="20" fill="#d32f2f" stroke="black" />
<circle cx="290.0" cy="260" r="20" fill="#d32f2f" stroke="black" />
<circle cx="290.0" cy="220" r="20" fill="#d32f2f" stroke="black" />
<circle cx="290.0" cy="180" r="20" fill="#d32f2f" stroke="black" />
<path d="M230.0,20 L230.0,320" stroke="black" stroke-width="4" />
<circle cx="230.0" cy="40" r="20" fill="#d32f2f" stroke="black" />
<circle cx="230.0" cy="300" r="20" fill="#d32f2f" stroke="black" />
<circle cx="230.0" cy="260" r="20" fill="#d32f2f" stroke="black" />
<circle cx="230.0" cy="220" r="20" fill="#d32f2f" stroke="black" />
<circle cx="230.0" cy="180" r="20" fill="#d32f2f" stroke="black" />
<path d="M170.0,20 L170.0,320" stroke="black" stroke-width="4" />
<circle cx="170.0" cy="40" r="20" fill="#d32f2f" stroke="black" />
<circle cx="170.0" cy="300" r="20" fill="#d32f2f" stroke="black" />
<circle cx="170.0" cy="260" r="20" fill="#d32f2f" stroke="black" />
<circle cx="170.0" cy="220" r="20" fill="#d32f2f" stroke="black" />
<circle cx="170.0" cy="180" r="20" fill="#d32f2f" stroke="black" />
<path d="M110.0,20 L110.0,320" stroke="black" stroke-width="4" />
<circle cx="110.0" cy="40" r="20" fill="#d32f2f" stroke="black" />
<circle cx="110.0" cy="300" r="20" fill="#d32f2f" stroke="black" />
<circle cx="110.0" cy="260" r="20" fill="#d32f2f" stroke="black" />
<circle cx="110.0" cy="220" r="20" fill="#d32f2f" stroke="black" />
<circle cx="110.0" cy="180" r="20" fill="#d32f2f" stroke="black" />
<path d="M50.0,20 L50.0,320" stroke="black" stroke-width="4" />
<circle cx="50.0" cy="40" r="20" fill="#d32f2f" stroke="black" />
<circle cx="50.0" cy="300" r="20" fill="#d32f2f" stroke="black" />
<circle cx="50.0" cy="260" r="20" fill="#d32f2f" stroke="black" />
<circle cx="50.0" cy="220" r="20" fill="#d32f2f" stroke="black" />
<circle cx="50.0" cy="180" r="20" fill="#d32f2f" stroke="black" />
</svg>