<?xml version="1.0" ?>
<svg xmlns="http://www.w3.org/2000/svg" version="1.1" width="567.22px" height="590.23px" viewBox="12216.39 1205.46 567.22 590.23">
  <polygon points="12397.79,1232.76 12395.61,1232.13 12395.61,1255.61 12397.79,1256.18" fill="#f9c60a" stroke="#f9c60a" stroke-width="0.5" stroke-linecap="round" stroke-linejoin="round"/>
  <polygon points="12312.61,1232.76 12310.23,1232.13 12310.23,1255.61 12312.61,1256.18" fill="#f9c60a" stroke="#f9c60a" stroke-width="0.5" stroke-linecap="round" stroke-linejoin="round"/>
  <polygon points="12482.96,1232.76 12480.98,1232.13 12480.98,1255.61 12482.96,1256.18" fill="#f9c60a" stroke="#f9c60a" stroke-width="0.5" stroke-linecap="round" stroke-linejoin="round"/>
  <polygon points="12604.39,1232.13 12602.21,1232.76 12602.21,1256.18 12604.39,1255.61" fill="#f9c60a" stroke="#f9c60a" stroke-width="0.5" stroke-linecap="round" stroke-linejoin="round"/>
  <polygon points="12519.02,1232.13 12517.04,1232.76 12517.04,1256.18 12519.02,1255.61" fill="#f9c60a" stroke="#f9c60a" stroke-width="0.5" stroke-linecap="round" stroke-linejoin="round"/>
  <polygon points="12568.14,1232.76 12566.36,1232.13 12566.36,1255.61 12568.14,1256.18" fill="#f9c60a" stroke="#f9c60a" stroke-width="0.5" stroke-linecap="round" stroke-linejoin="round"/>
  <polygon points="12689.77,1232.13 12687.39,1232.76 12687.39,1256.18 12689.77,1255.61" fill="#f9c60a" stroke="#f9c60a" stroke-width="0.5" stroke-linecap="round" stroke-linejoin="round"/>
  <polygon points="12433.64,1232.13 12431.86,1232.76 12431.86,1256.18 12433.64,1255.61" fill="#f9c60a" stroke="#f9c60a" stroke-width="0.5" stroke-linecap="round" stroke-linejoin="round"/>
  <polygon points="12480.98,1232.13 12475.38,1231.60 12475.38,1255.12 12480.98,1255.61" fill="#f9c60a" stroke="#f9c60a" stroke-width="0.5" stroke-linecap="round" stroke-linejoin="round"/>
  <polygon points="12610.16,1231.60 12604.39,1232.13 12604.39,1255.61 12610.16,1255.12" fill="#f9c60a" stroke="#f9c60a" stroke-width="0.5" stroke-linecap="round" stroke-linejoin="round"/>
  <polygon points="12395.61,1232.13 12389.84,1231.60 12389.84,1255.12 12395.61,1255.61" fill="#f9c60a" stroke="#f9c60a" stroke-width="0.5" stroke-linecap="round" stroke-linejoin="round"/>
  <polygon points="12310.23,1232.13 12304.29,1231.60 12304.29,1255.12 12310.23,1255.61" fill="#f9c60a" stroke="#f9c60a" stroke-width="0.5" stroke-linecap="round" stroke-linejoin="round"/>
  <polygon points="12524.62,1231.60 12519.02,1232.13 12519.02,1255.61 12524.62,1255.12" fill="#f9c60a" stroke="#f9c60a" stroke-width="0.5" stroke-linecap="round" stroke-linejoin="round"/>
  <polygon points="12695.71,1231.60 12689.77,1232.13 12689.77,1255.61 12695.71,1255.12" fill="#f9c60a" stroke="#f9c60a" stroke-width="0.5" stroke-linecap="round" stroke-linejoin="round"/>
  <polygon points="12584.31,1764.54 12587.87,1775.69 12412.13,1775.69 12421.08,1775.11 12578.92,1775.11 12576.04,1765.07 12423.96,1765.07 12415.69,1764.54" fill="#f9c60a" stroke="#f9c60a" stroke-width="0.5" stroke-linecap="round" stroke-linejoin="round"/>
  <polygon points="12245.71,1775.11 12236.39,1775.69 12247.06,1764.54 12254.99,1765.07" fill="#f9c60a" stroke="#f9c60a" stroke-width="0.5" stroke-linecap="round" stroke-linejoin="round"/>
  <polygon points="12592.93,1765.07 12584.31,1764.54 12752.94,1764.54 12763.61,1775.69 12587.87,1775.69 12596.45,1775.11 12754.29,1775.11 12745.01,1765.07" fill="#f9c60a" stroke="#f9c60a" stroke-width="0.5" stroke-linecap="round" stroke-linejoin="round"/>
  <polygon points="12596.45,1775.11 12587.87,1775.69 12584.31,1764.54 12592.93,1765.07" fill="#f9c60a" stroke="#f9c60a" stroke-width="0.5" stroke-linecap="round" stroke-linejoin="round"/>
  <polygon points="12415.69,1764.54 12412.13,1775.69 12236.39,1775.69 12245.71,1775.11 12403.55,1775.11 12407.07,1765.07 12254.99,1765.07 12247.06,1764.54" fill="#f9c60a" stroke="#f9c60a" stroke-width="0.5" stroke-linecap="round" stroke-linejoin="round"/>
  <polygon points="12421.08,1775.11 12412.13,1775.69 12415.69,1764.54 12423.96,1765.07" fill="#f9c60a" stroke="#f9c60a" stroke-width="0.5" stroke-linecap="round" stroke-linejoin="round"/>
  <polygon points="12743.47,1227.18 12742.07,1226.53 12742.07,1250.50 12743.47,1251.10" fill="#f9c60a" stroke="#f9c60a" stroke-width="0.5" stroke-linecap="round" stroke-linejoin="round"/>
  <polygon points="12656.52,1227.18 12654.91,1226.53 12654.91,1250.50 12656.52,1251.10" fill="#f9c60a" stroke="#f9c60a" stroke-width="0.5" stroke-linecap="round" stroke-linejoin="round"/>
  <polygon points="12308.70,1227.18 12306.26,1226.53 12306.26,1250.50 12308.70,1251.10" fill="#f9c60a" stroke="#f9c60a" stroke-width="0.5" stroke-linecap="round" stroke-linejoin="round"/>
  <polygon points="12693.74,1226.53 12691.30,1227.18 12691.30,1251.10 12693.74,1250.50" fill="#f9c60a" stroke="#f9c60a" stroke-width="0.5" stroke-linecap="round" stroke-linejoin="round"/>
  <polygon points="12257.93,1226.53 12256.53,1227.18 12256.53,1251.10 12257.93,1250.50" fill="#f9c60a" stroke="#f9c60a" stroke-width="0.5" stroke-linecap="round" stroke-linejoin="round"/>
  <polygon points="12395.66,1227.18 12393.42,1226.53 12393.42,1250.50 12395.66,1251.10" fill="#f9c60a" stroke="#f9c60a" stroke-width="0.5" stroke-linecap="round" stroke-linejoin="round"/>
  <polygon points="12345.09,1226.53 12343.48,1227.18 12343.48,1251.10 12345.09,1250.50" fill="#f9c60a" stroke="#f9c60a" stroke-width="0.5" stroke-linecap="round" stroke-linejoin="round"/>
  <polygon points="12519.41,1226.53 12517.39,1227.18 12517.39,1251.10 12519.41,1250.50" fill="#f9c60a" stroke="#f9c60a" stroke-width="0.5" stroke-linecap="round" stroke-linejoin="round"/>
  <polygon points="12569.56,1227.18 12567.75,1226.53 12567.75,1250.50 12569.56,1251.10" fill="#f9c60a" stroke="#f9c60a" stroke-width="0.5" stroke-linecap="round" stroke-linejoin="round"/>
  <polygon points="12606.58,1226.53 12604.34,1227.18 12604.34,1251.10 12606.58,1250.50" fill="#f9c60a" stroke="#f9c60a" stroke-width="0.5" stroke-linecap="round" stroke-linejoin="round"/>
  <polygon points="12482.61,1227.18 12480.58,1226.53 12480.58,1250.50 12482.61,1251.10" fill="#f9c60a" stroke="#f9c60a" stroke-width="0.5" stroke-linecap="round" stroke-linejoin="round"/>
  <polygon points="12432.25,1226.53 12430.44,1227.18 12430.44,1251.10 12432.25,1250.50" fill="#f9c60a" stroke="#f9c60a" stroke-width="0.5" stroke-linecap="round" stroke-linejoin="round"/>
  <polygon points="12306.26,1226.53 12300.19,1225.97 12300.19,1249.99 12306.26,1250.50" fill="#f9c60a" stroke="#f9c60a" stroke-width="0.5" stroke-linecap="round" stroke-linejoin="round"/>
  <polygon points="12567.75,1226.53 12562.21,1225.97 12562.21,1249.99 12567.75,1250.50" fill="#f9c60a" stroke="#f9c60a" stroke-width="0.5" stroke-linecap="round" stroke-linejoin="round"/>
  <polygon points="12699.81,1225.97 12693.74,1226.53 12693.74,1250.50 12699.81,1249.99" fill="#f9c60a" stroke="#f9c60a" stroke-width="0.5" stroke-linecap="round" stroke-linejoin="round"/>
  <polygon points="12525.13,1225.97 12519.41,1226.53 12519.41,1250.50 12525.13,1249.99" fill="#f9c60a" stroke="#f9c60a" stroke-width="0.5" stroke-linecap="round" stroke-linejoin="round"/>
  <polygon points="12612.47,1225.97 12606.58,1226.53 12606.58,1250.50 12612.47,1249.99" fill="#f9c60a" stroke="#f9c60a" stroke-width="0.5" stroke-linecap="round" stroke-linejoin="round"/>
  <polygon points="12742.07,1226.53 12736.89,1225.97 12736.89,1249.99 12742.07,1250.50" fill="#f9c60a" stroke="#f9c60a" stroke-width="0.5" stroke-linecap="round" stroke-linejoin="round"/>
  <polygon points="12393.42,1226.53 12387.53,1225.97 12387.53,1249.99 12393.42,1250.50" fill="#f9c60a" stroke="#f9c60a" stroke-width="0.5" stroke-linecap="round" stroke-linejoin="round"/>
  <polygon points="12350.45,1225.97 12345.09,1226.53 12345.09,1250.50 12350.45,1249.99" fill="#f9c60a" stroke="#f9c60a" stroke-width="0.5" stroke-linecap="round" stroke-linejoin="round"/>
  <polygon points="12263.11,1225.97 12257.93,1226.53 12257.93,1250.50 12263.11,1249.99" fill="#f9c60a" stroke="#f9c60a" stroke-width="0.5" stroke-linecap="round" stroke-linejoin="round"/>
  <polygon points="12437.79,1225.97 12432.25,1226.53 12432.25,1250.50 12437.79,1249.99" fill="#f9c60a" stroke="#f9c60a" stroke-width="0.5" stroke-linecap="round" stroke-linejoin="round"/>
  <polygon points="12480.58,1226.53 12474.87,1225.97 12474.87,1249.99 12480.58,1250.50" fill="#f9c60a" stroke="#f9c60a" stroke-width="0.5" stroke-linecap="round" stroke-linejoin="round"/>
  <polygon points="12654.91,1226.53 12649.55,1225.97 12649.55,1249.99 12654.91,1250.50" fill="#f9c60a" stroke="#f9c60a" stroke-width="0.5" stroke-linecap="round" stroke-linejoin="round"/>
  <polygon points="12358.77,1225.60 12350.45,1225.97 12350.45,1249.99 12358.77,1249.65" fill="#f9c60a" stroke="#f9c60a" stroke-width="0.5" stroke-linecap="round" stroke-linejoin="round"/>
  <polygon points="12621.15,1225.60 12612.47,1225.97 12612.47,1249.99 12621.15,1249.65" fill="#f9c60a" stroke="#f9c60a" stroke-width="0.5" stroke-linecap="round" stroke-linejoin="round"/>
  <polygon points="12387.53,1225.97 12378.85,1225.60 12378.85,1249.65 12387.53,1249.99" fill="#f9c60a" stroke="#f9c60a" stroke-width="0.5" stroke-linecap="round" stroke-linejoin="round"/>
  <polygon points="12271.31,1225.60 12263.11,1225.97 12263.11,1249.99 12271.31,1249.65" fill="#f9c60a" stroke="#f9c60a" stroke-width="0.5" stroke-linecap="round" stroke-linejoin="round"/>
  <polygon points="12300.19,1225.97 12291.39,1225.60 12291.39,1249.65 12300.19,1249.99" fill="#f9c60a" stroke="#f9c60a" stroke-width="0.5" stroke-linecap="round" stroke-linejoin="round"/>
  <polygon points="12736.89,1225.97 12728.69,1225.60 12728.69,1249.65 12736.89,1249.99" fill="#f9c60a" stroke="#f9c60a" stroke-width="0.5" stroke-linecap="round" stroke-linejoin="round"/>
  <polygon points="12474.87,1225.97 12466.31,1225.60 12466.31,1249.65 12474.87,1249.99" fill="#f9c60a" stroke="#f9c60a" stroke-width="0.5" stroke-linecap="round" stroke-linejoin="round"/>
  <polygon points="12446.23,1225.60 12437.79,1225.97 12437.79,1249.99 12446.23,1249.65" fill="#f9c60a" stroke="#f9c60a" stroke-width="0.5" stroke-linecap="round" stroke-linejoin="round"/>
  <polygon points="12562.21,1225.97 12553.77,1225.60 12553.77,1249.65 12562.21,1249.99" fill="#f9c60a" stroke="#f9c60a" stroke-width="0.5" stroke-linecap="round" stroke-linejoin="round"/>
  <polygon points="12533.69,1225.60 12525.13,1225.97 12525.13,1249.99 12533.69,1249.65" fill="#f9c60a" stroke="#f9c60a" stroke-width="0.5" stroke-linecap="round" stroke-linejoin="round"/>
  <polygon points="12649.55,1225.97 12641.23,1225.60 12641.23,1249.65 12649.55,1249.99" fill="#f9c60a" stroke="#f9c60a" stroke-width="0.5" stroke-linecap="round" stroke-linejoin="round"/>
  <polygon points="12708.61,1225.60 12699.81,1225.97 12699.81,1249.99 12708.61,1249.65" fill="#f9c60a" stroke="#f9c60a" stroke-width="0.5" stroke-linecap="round" stroke-linejoin="round"/>
  <polygon points="12718.75,1225.46 12708.61,1225.60 12708.61,1249.65 12718.75,1249.53" fill="#f9c60a" stroke="#f9c60a" stroke-width="0.5" stroke-linecap="round" stroke-linejoin="round"/>
  <polygon points="12291.39,1225.60 12281.25,1225.46 12281.25,1249.53 12291.39,1249.65" fill="#f9c60a" stroke="#f9c60a" stroke-width="0.5" stroke-linecap="round" stroke-linejoin="round"/>
  <polygon points="12728.69,1225.60 12718.75,1225.46 12718.75,1249.53 12728.69,1249.65" fill="#f9c60a" stroke="#f9c60a" stroke-width="0.5" stroke-linecap="round" stroke-linejoin="round"/>
  <polygon points="12368.75,1225.46 12358.77,1225.60 12358.77,1249.65 12368.75,1249.53" fill="#f9c60a" stroke="#f9c60a" stroke-width="0.5" stroke-linecap="round" stroke-linejoin="round"/>
  <polygon points="12378.85,1225.60 12368.75,1225.46 12368.75,1249.53 12378.85,1249.65" fill="#f9c60a" stroke="#f9c60a" stroke-width="0.5" stroke-linecap="round" stroke-linejoin="round"/>
  <polygon points="12641.23,1225.60 12631.25,1225.46 12631.25,1249.53 12641.23,1249.65" fill="#f9c60a" stroke="#f9c60a" stroke-width="0.5" stroke-linecap="round" stroke-linejoin="round"/>
  <polygon points="12281.25,1225.46 12271.31,1225.60 12271.31,1249.65 12281.25,1249.53" fill="#f9c60a" stroke="#f9c60a" stroke-width="0.5" stroke-linecap="round" stroke-linejoin="round"/>
  <polygon points="12466.31,1225.60 12456.25,1225.46 12456.25,1249.53 12466.31,1249.65" fill="#f9c60a" stroke="#f9c60a" stroke-width="0.5" stroke-linecap="round" stroke-linejoin="round"/>
  <polygon points="12631.25,1225.46 12621.15,1225.60 12621.15,1249.65 12631.25,1249.53" fill="#f9c60a" stroke="#f9c60a" stroke-width="0.5" stroke-linecap="round" stroke-linejoin="round"/>
  <polygon points="12456.25,1225.46 12446.23,1225.60 12446.23,1249.65 12456.25,1249.53" fill="#f9c60a" stroke="#f9c60a" stroke-width="0.5" stroke-linecap="round" stroke-linejoin="round"/>
  <polygon points="12543.75,1225.46 12533.69,1225.60 12533.69,1249.65 12543.75,1249.53" fill="#f9c60a" stroke="#f9c60a" stroke-width="0.5" stroke-linecap="round" stroke-linejoin="round"/>
  <polygon points="12553.77,1225.60 12543.75,1225.46 12543.75,1249.53 12553.77,1249.65" fill="#f9c60a" stroke="#f9c60a" stroke-width="0.5" stroke-linecap="round" stroke-linejoin="round"/>
  <polygon points="12587.87,1775.69 12587.87,1670.25 12412.13,1670.25 12412.13,1775.69" fill="#f9c60a" stroke="#f9c60a" stroke-width="0.5" stroke-linecap="round" stroke-linejoin="round"/>
  <polygon points="12763.61,1775.69 12763.61,1670.25 12587.87,1670.25 12587.87,1775.69" fill="#f9c60a" stroke="#f9c60a" stroke-width="0.5" stroke-linecap="round" stroke-linejoin="round"/>
  <polygon points="12412.13,1670.25 12412.13,1564.81 12236.39,1564.81 12236.39,1670.25" fill="#f9c60a" stroke="#f9c60a" stroke-width="0.5" stroke-linecap="round" stroke-linejoin="round"/>
  <polygon points="12587.87,1670.25 12587.87,1564.81 12412.13,1564.81 12412.13,1670.25" fill="#f9c60a" stroke="#f9c60a" stroke-width="0.5" stroke-linecap="round" stroke-linejoin="round"/>
  <polygon points="12412.13,1564.81 12412.13,1459.36 12236.39,1459.36 12236.39,1564.81" fill="#f9c60a" stroke="#f9c60a" stroke-width="0.5" stroke-linecap="round" stroke-linejoin="round"/>
  <polygon points="12587.87,1564.81 12587.87,1459.36 12412.13,1459.36 12412.13,1564.81" fill="#f9c60a" stroke="#f9c60a" stroke-width="0.5" stroke-linecap="round" stroke-linejoin="round"/>
  <polygon points="12763.61,1670.25 12763.61,1564.81 12587.87,1564.81 12587.87,1670.25" fill="#f9c60a" stroke="#f9c60a" stroke-width="0.5" stroke-linecap="round" stroke-linejoin="round"/>
  <polygon points="12763.61,1459.36 12763.61,1353.92 12587.87,1353.92 12587.87,1459.36" fill="#f9c60a" stroke="#f9c60a" stroke-width="0.5" stroke-linecap="round" stroke-linejoin="round"/>
  <polygon points="12412.13,1459.36 12412.13,1353.92 12236.39,1353.92 12236.39,1459.36" fill="#f9c60a" stroke="#f9c60a" stroke-width="0.5" stroke-linecap="round" stroke-linejoin="round"/>
  <polygon points="12763.61,1564.81 12763.61,1459.36 12587.87,1459.36 12587.87,1564.81" fill="#f9c60a" stroke="#f9c60a" stroke-width="0.5" stroke-linecap="round" stroke-linejoin="round"/>
  <polygon points="12412.13,1775.69 12412.13,1670.25 12236.39,1670.25 12236.39,1775.69" fill="#f9c60a" stroke="#f9c60a" stroke-width="0.5" stroke-linecap="round" stroke-linejoin="round"/>
  <polygon points="12587.87,1459.36 12587.87,1353.92 12412.13,1353.92 12412.13,1459.36" fill="#f9c60a" stroke="#f9c60a" stroke-width="0.5" stroke-linecap="round" stroke-linejoin="round"/>
  <polygon points="12412.13,1353.92 12412.13,1248.47 12236.39,1248.47 12236.39,1353.92" fill="#f9c60a" stroke="#f9c60a" stroke-width="0.5" stroke-linecap="round" stroke-linejoin="round"/>
  <polygon points="12587.87,1353.92 12587.87,1248.47 12412.13,1248.47 12412.13,1353.92" fill="#f9c60a" stroke="#f9c60a" stroke-width="0.5" stroke-linecap="round" stroke-linejoin="round"/>
  <polygon points="12763.61,1353.92 12763.61,1248.47 12587.87,1248.47 12587.87,1353.92" fill="#f9c60a" stroke="#f9c60a" stroke-width="0.5" stroke-linecap="round" stroke-linejoin="round"/>
  <path d="M 12236.39 1775.69 L 12412.13 1775.69 L 12412.13 1670.25 L 12236.39 1670.25 L 12236.39 1775.69 L 12412.13 1775.69 L 12412.13 1670.25 L 12236.39 1670.25 L 12236.39 1775.69" stroke="black" stroke-width="4" fill="none" stroke-linecap="round" stroke-linejoin="round"/>
  <path d="M 12412.13 1775.69 L 12587.87 1775.69 L 12587.87 1670.25 L 12412.13 1670.25 L 12412.13 1775.69 L 12587.87 1775.69 L 12587.87 1670.25 L 12412.13 1670.25 L 12412.13 1775.69" stroke="black" stroke-width="4" fill="none" stroke-linecap="round" stroke-linejoin="round"/>
  <path d="M 12587.87 1775.69 L 12763.61 1775.69 L 12763.61 1670.25 L 12587.87 1670.25 L 12587.87 1775.69 L 12763.61 1775.69 L 12763.61 1670.25 L 12587.87 1670.25 L 12587.87 1775.69" stroke="black" stroke-width="4" fill="none" stroke-linecap="round" stroke-linejoin="round"/>
  <path d="M 12236.39 1564.81 L 12236.39 1670.25 L 12412.13 1670.25 L 12412.13 1564.81 L 12412.13 1670.25 L 12587.87 1670.25 L 12587.87 1564.81 L 12587.87 1670.25 L 12763.61 1670.25 L 12763.61 1564.81 L 12587.87 1564.81 L 12412.13 1564.81 L 12236.39 1564.81 L 12412.13 1564.81 L 12412.13 1459.36 L 12236.39 1459.36 L 12236.39 1564.81 L 12412.13 1564.81 L 12412.13 1459.36 L 12236.39 1459.36 L 12236.39 1564.81" stroke="black" stroke-width="4" fill="none" stroke-linecap="round" stroke-linejoin="round"/>
  <path d="M 12236.39 1670.25 L 12412.13 1670.25 L 12412.13 1564.81 L 12236.39 1564.81 L 12236.39 1670.25" stroke="black" stroke-width="4" fill="none" stroke-linecap="round" stroke-linejoin="round"/>
  <path d="M 12412.13 1670.25 L 12587.87 1670.25 L 12587.87 1564.81 L 12412.13 1564.81 L 12412.13 1670.25" stroke="black" stroke-width="4" fill="none" stroke-linecap="round" stroke-linejoin="round"/>
  <path d="M 12587.87 1670.25 L 12763.61 1670.25 L 12763.61 1564.81 L 12587.87 1564.81 L 12587.87 1670.25" stroke="black" stroke-width="4" fill="none" stroke-linecap="round" stroke-linejoin="round"/>
  <path d="M 12412.13 1564.81 L 12587.87 1564.81 L 12587.87 1459.36 L 12412.13 1459.36 L 12412.13 1564.81 L 12587.87 1564.81 L 12587.87 1459.36 L 12412.13 1459.36 L 12412.13 1564.81" stroke="black" stroke-width="4" fill="none" stroke-linecap="round" stroke-linejoin="round"/>
  <path d="M 12587.87 1564.81 L 12763.61 1564.81 L 12763.61 1459.36 L 12587.87 1459.36 L 12587.87 1564.81 L 12763.61 1564.81 L 12763.61 1459.36 L 12587.87 1459.36 L 12587.87 1564.81" stroke="black" stroke-width="4" fill="none" stroke-linecap="round" stroke-linejoin="round"/>
  <path d="M 12236.39 1459.36 L 12412.13 1459.36 L 12412.13 1353.92 L 12236.39 1353.92 L 12236.39 1459.36 L 12412.13 1459.36 L 12412.13 1353.92 L 12236.39 1353.92 L 12236.39 1459.36" stroke="black" stroke-width="4" fill="none" stroke-linecap="round" stroke-linejoin="round"/>
  <path d="M 12412.13 1459.36 L 12587.87 1459.36 L 12587.87 1353.92 L 12412.13 1353.92 L 12412.13 1459.36 L 12587.87 1459.36 L 12587.87 1353.92 L 12412.13 1353.92 L 12412.13 1459.36" stroke="black" stroke-width="4" fill="none" stroke-linecap="round" stroke-linejoin="round"/>
  <path d="M 12587.87 1459.36 L 12763.61 1459.36 L 12763.61 1353.92 L 12587.87 1353.92 L 12587.87 1459.36 L 12763.61 1459.36 L 12763.61 1353.92 L 12587.87 1353.92 L 12587.87 1459.36" stroke="black" stroke-width="4" fill="none" stroke-linecap="round" stroke-linejoin="round"/>
  <path d="M 12236.39 1353.92 L 12412.13 1353.92 L 12412.13 1248.47 L 12236.39 1248.47 L 12236.39 1353.92 L 12412.13 1353.92 L 12412.13 1248.47 L 12236.39 1248.47 L 12236.39 1353.92" stroke="black" stroke-width="4" fill="none" stroke-linecap="round" stroke-linejoin="round"/>
  <path d="M 12312.61 1248.47 L 12312.61 1232.76 L 12310.23 1232.13 L 12308.70 1231.99 L 12310.23 1232.13 L 12312.61 1232.76" stroke="black" stroke-width="4" fill="none" stroke-linecap="round" stroke-linejoin="round"/>
  <path d="M 12397.79 1248.47 L 12397.79 1232.76 L 12395.66 1232.15 L 12397.79 1232.76" stroke="black" stroke-width="4" fill="none" stroke-linecap="round" stroke-linejoin="round"/>
  <path d="M 12263.11 1225.97 L 12271.31 1225.60 L 12281.25 1225.46" stroke="black" stroke-width="4" fill="none" stroke-linecap="round" stroke-linejoin="round"/>
  <path d="M 12300.19 1225.97 L 12306.26 1226.53 L 12308.70 1227.18" stroke="black" stroke-width="4" fill="none" stroke-linecap="round" stroke-linejoin="round"/>
  <path d="M 12256.53 1248.47 L 12256.53 1227.18 L 12257.93 1226.53 L 12263.11 1225.97 L 12271.31 1225.60 L 12281.25 1225.46 L 12291.39 1225.60 L 12300.19 1225.97 L 12306.26 1226.53 L 12308.70 1227.18 L 12308.70 1248.47" stroke="black" stroke-width="4" fill="none" stroke-linecap="round" stroke-linejoin="round"/>
  <path d="M 12350.45 1225.97 L 12358.77 1225.60 L 12368.75 1225.46" stroke="black" stroke-width="4" fill="none" stroke-linecap="round" stroke-linejoin="round"/>
  <path d="M 12387.53 1225.97 L 12393.42 1226.53 L 12395.66 1227.18" stroke="black" stroke-width="4" fill="none" stroke-linecap="round" stroke-linejoin="round"/>
  <path d="M 12343.48 1248.47 L 12343.48 1227.18 L 12345.09 1226.53 L 12350.45 1225.97 L 12358.77 1225.60 L 12368.75 1225.46 L 12378.85 1225.60 L 12387.53 1225.97 L 12393.42 1226.53 L 12395.66 1227.18 L 12395.66 1248.47" stroke="black" stroke-width="4" fill="none" stroke-linecap="round" stroke-linejoin="round"/>
  <path d="M 12412.13 1353.92 L 12587.87 1353.92 L 12587.87 1248.47 L 12412.13 1248.47 L 12412.13 1353.92 L 12587.87 1353.92 L 12587.87 1248.47 L 12412.13 1248.47 L 12412.13 1353.92" stroke="black" stroke-width="4" fill="none" stroke-linecap="round" stroke-linejoin="round"/>
  <path d="M 12430.44 1248.47 L 12430.44 1227.18 L 12432.25 1226.53 L 12437.79 1225.97 L 12446.23 1225.60 L 12456.25 1225.46 L 12466.31 1225.60 L 12474.87 1225.97 L 12480.58 1226.53 L 12482.61 1227.18 L 12482.61 1248.47 L 12482.96 1248.47 L 12482.96 1232.76 L 12482.61 1232.65 L 12482.96 1232.76" stroke="black" stroke-width="4" fill="none" stroke-linecap="round" stroke-linejoin="round"/>
  <path d="M 12569.56 1248.47 L 12569.56 1227.18 L 12567.75 1226.53 L 12562.21 1225.97 L 12553.77 1225.60 L 12543.75 1225.46 L 12533.69 1225.60 L 12525.13 1225.97 L 12519.41 1226.53 L 12517.39 1227.18 L 12517.39 1248.47 L 12517.04 1248.47 L 12517.04 1232.76 L 12517.39 1232.65" stroke="black" stroke-width="4" fill="none" stroke-linecap="round" stroke-linejoin="round"/>
  <path d="M 12446.23 1225.60 L 12456.25 1225.46" stroke="black" stroke-width="4" fill="none" stroke-linecap="round" stroke-linejoin="round"/>
  <path d="M 12466.31 1225.60 L 12474.87 1225.97 L 12480.58 1226.53 L 12482.61 1227.18" stroke="black" stroke-width="4" fill="none" stroke-linecap="round" stroke-linejoin="round"/>
  <path d="M 12533.69 1225.60 L 12543.75 1225.46" stroke="black" stroke-width="4" fill="none" stroke-linecap="round" stroke-linejoin="round"/>
  <path d="M 12553.77 1225.60 L 12562.21 1225.97 L 12567.75 1226.53 L 12569.56 1227.18" stroke="black" stroke-width="4" fill="none" stroke-linecap="round" stroke-linejoin="round"/>
  <path d="M 12587.87 1353.92 L 12763.61 1353.92 L 12763.61 1248.47 L 12587.87 1248.47 L 12587.87 1353.92 L 12763.61 1353.92 L 12763.61 1248.47 L 12587.87 1248.47 L 12587.87 1353.92" stroke="black" stroke-width="4" fill="none" stroke-linecap="round" stroke-linejoin="round"/>
  <path d="M 12602.21 1248.47 L 12602.21 1232.76 L 12604.34 1232.15" stroke="black" stroke-width="4" fill="none" stroke-linecap="round" stroke-linejoin="round"/>
  <path d="M 12687.39 1248.47 L 12687.39 1232.76 L 12689.77 1232.13 L 12691.30 1231.99" stroke="black" stroke-width="4" fill="none" stroke-linecap="round" stroke-linejoin="round"/>
  <path d="M 12612.47 1225.97 L 12621.15 1225.60 L 12631.25 1225.46" stroke="black" stroke-width="4" fill="none" stroke-linecap="round" stroke-linejoin="round"/>
  <path d="M 12649.55 1225.97 L 12654.91 1226.53 L 12656.52 1227.18" stroke="black" stroke-width="4" fill="none" stroke-linecap="round" stroke-linejoin="round"/>
  <path d="M 12604.34 1248.47 L 12604.34 1227.18 L 12606.58 1226.53 L 12612.47 1225.97 L 12621.15 1225.60 L 12631.25 1225.46 L 12641.23 1225.60 L 12649.55 1225.97 L 12654.91 1226.53 L 12656.52 1227.18 L 12656.52 1248.47" stroke="black" stroke-width="4" fill="none" stroke-linecap="round" stroke-linejoin="round"/>
  <path d="M 12699.81 1225.97 L 12708.61 1225.60 L 12718.75 1225.46" stroke="black" stroke-width="4" fill="none" stroke-linecap="round" stroke-linejoin="round"/>
  <path d="M 12736.89 1225.97 L 12742.07 1226.53 L 12743.47 1227.18" stroke="black" stroke-width="4" fill="none" stroke-linecap="round" stroke-linejoin="round"/>
  <path d="M 12691.30 1248.47 L 12691.30 1227.18 L 12693.74 1226.53 L 12699.81 1225.97 L 12708.61 1225.60 L 12718.75 1225.46 L 12728.69 1225.60 L 12736.89 1225.97 L 12742.07 1226.53 L 12743.47 1227.18 L 12743.47 1248.47" stroke="black" stroke-width="4" fill="none" stroke-linecap="round" stroke-linejoin="round"/>
  <path d="M 12763.61 1564.81 L 12587.87 1564.81 L 12587.87 1459.36 L 12763.61 1459.36 L 12763.61 1564.81 L 12587.87 1564.81 L 12412.13 1564.81 L 12236.39 1564.81 L 12236.39 1670.25 L 12236.39 1775.69 L 12412.13 1775.69 L 12412.13 1670.25 L 12236.39 1670.25 L 12412.13 1670.25 L 12412.13 1775.69 L 12412.13 1670.25 L 12412.13 1775.69 L 12587.87 1775.69 L 12587.87 1670.25 L 12412.13 1670.25 L 12236.39 1670.25 L 12412.13 1670.25 L 12412.13 1564.81 L 12412.13 1670.25 L 12587.87 1670.25 L 12587.87 1775.69 L 12587.87 1670.25 L 12587.87 1775.69 L 12763.61 1775.69 L 12763.61 1670.25 L 12587.87 1670.25 L 12412.13 1670.25 L 12412.13 1564.81 L 12412.13 1670.25 L 12587.87 1670.25 L 12587.87 1564.81 L 12587.87 1670.25 L 12763.61 1670.25 L 12587.87 1670.25 L 12587.87 1564.81 L 12587.87 1670.25 L 12763.61 1670.25 L 12763.61 1564.81 L 12587.87 1564.81 L 12763.61 1564.81" stroke="black" stroke-width="4" fill="none" stroke-linecap="round" stroke-linejoin="round"/>
  <path d="M 12763.61 1459.36 L 12587.87 1459.36 L 12763.61 1459.36 L 12763.61 1353.92 L 12587.87 1353.92 L 12587.87 1459.36 L 12587.87 1353.92 L 12587.87 1459.36 L 12587.87 1353.92 L 12412.13 1353.92 L 12412.13 1459.36 L 12412.13 1353.92 L 12412.13 1459.36 L 12412.13 1353.92 L 12236.39 1353.92 L 12236.39 1459.36 L 12412.13 1459.36 L 12587.87 1459.36 L 12763.61 1459.36" stroke="black" stroke-width="4" fill="none" stroke-linecap="round" stroke-linejoin="round"/>
  <path d="M 12587.87 1564.81 L 12587.87 1459.36 L 12412.13 1459.36 L 12587.87 1459.36 L 12587.87 1564.81 L 12412.13 1564.81 L 12412.13 1459.36 L 12412.13 1564.81 L 12587.87 1564.81 L 12587.87 1459.36 L 12412.13 1459.36 L 12412.13 1564.81 L 12236.39 1564.81 L 12412.13 1564.81 L 12412.13 1459.36 L 12236.39 1459.36 L 12412.13 1459.36 L 12236.39 1459.36 L 12236.39 1564.81 L 12412.13 1564.81 L 12587.87 1564.81" stroke="black" stroke-width="4" fill="none" stroke-linecap="round" stroke-linejoin="round"/>
  <path d="M 12412.13 1353.92 L 12587.87 1353.92 L 12587.87 1248.47 L 12412.13 1248.47 L 12412.13 1353.92 L 12412.13 1248.47 L 12412.13 1353.92 L 12587.87 1353.92 L 12412.13 1353.92 L 12236.39 1353.92 L 12412.13 1353.92 L 12412.13 1248.47 L 12236.39 1248.47 L 12236.39 1353.92 L 12412.13 1353.92" stroke="black" stroke-width="4" fill="none" stroke-linecap="round" stroke-linejoin="round"/>
  <path d="M 12587.87 1353.92 L 12763.61 1353.92 L 12763.61 1248.47 L 12587.87 1248.47 L 12587.87 1353.92 L 12587.87 1248.47 L 12587.87 1353.92 L 12763.61 1353.92 L 12587.87 1353.92" stroke="black" stroke-width="4" fill="none" stroke-linecap="round" stroke-linejoin="round"/>
  <path d="M 12308.70 1231.99 L 12310.23 1232.13 L 12312.61 1232.76" stroke="black" stroke-width="4" fill="none" stroke-linecap="round" stroke-linejoin="round"/>
  <path d="M 12395.66 1232.15 L 12397.79 1232.76" stroke="black" stroke-width="4" fill="none" stroke-linecap="round" stroke-linejoin="round"/>
  <path d="M 12256.53 1227.18 L 12257.93 1226.53 L 12263.11 1225.97 L 12271.31 1225.60 L 12281.25 1225.46 L 12291.39 1225.60 L 12300.19 1225.97 L 12306.26 1226.53 L 12308.70 1227.18" stroke="black" stroke-width="4" fill="none" stroke-linecap="round" stroke-linejoin="round"/>
  <path d="M 12343.48 1227.18 L 12345.09 1226.53 L 12350.45 1225.97 L 12358.77 1225.60 L 12368.75 1225.46 L 12378.85 1225.60 L 12387.53 1225.97 L 12393.42 1226.53 L 12395.66 1227.18" stroke="black" stroke-width="4" fill="none" stroke-linecap="round" stroke-linejoin="round"/>
  <path d="M 12482.61 1232.65 L 12482.96 1232.76" stroke="black" stroke-width="4" fill="none" stroke-linecap="round" stroke-linejoin="round"/>
  <path d="M 12517.04 1232.76 L 12517.39 1232.65" stroke="black" stroke-width="4" fill="none" stroke-linecap="round" stroke-linejoin="round"/>
  <path d="M 12430.44 1227.18 L 12432.25 1226.53 L 12437.79 1225.97 L 12446.23 1225.60 L 12456.25 1225.46 L 12466.31 1225.60 L 12474.87 1225.97 L 12480.58 1226.53 L 12482.61 1227.18" stroke="black" stroke-width="4" fill="none" stroke-linecap="round" stroke-linejoin="round"/>
  <path d="M 12517.39 1227.18 L 12519.41 1226.53 L 12525.13 1225.97 L 12533.69 1225.60 L 12543.75 1225.46 L 12553.77 1225.60 L 12562.21 1225.97 L 12567.75 1226.53 L 12569.56 1227.18" stroke="black" stroke-width="4" fill="none" stroke-linecap="round" stroke-linejoin="round"/>
  <path d="M 12602.21 1232.76 L 12604.34 1232.15" stroke="black" stroke-width="4" fill="none" stroke-linecap="round" stroke-linejoin="round"/>
  <path d="M 12687.39 1232.76 L 12689.77 1232.13 L 12691.30 1231.99" stroke="black" stroke-width="4" fill="none" stroke-linecap="round" stroke-linejoin="round"/>
  <path d="M 12604.34 1227.18 L 12606.58 1226.53 L 12612.47 1225.97 L 12621.15 1225.60 L 12631.25 1225.46 L 12641.23 1225.60 L 12649.55 1225.97 L 12654.91 1226.53 L 12656.52 1227.18" stroke="black" stroke-width="4" fill="none" stroke-linecap="round" stroke-linejoin="round"/>
  <path d="M 12691.30 1227.18 L 12693.74 1226.53 L 12699.81 1225.97 L 12708.61 1225.60 L 12718.75 1225.46 L 12728.69 1225.60 L 12736.89 1225.97 L 12742.07 1226.53 L 12743.47 1227.18" stroke="black" stroke-width="4" fill="none" stroke-linecap="round" stroke-linejoin="round"/>
</svg>
