<?xml version="1.0" ?>
<svg xmlns="http://www.w3.org/2000/svg" version="1.1" width="505.06px" height="3000px" viewBox="1184.99 0 505.06 3000">
  <polygon points="1498.03,1321.94 1498.03,1297.73 1489.49,1296.95 1489.52,1321.16" fill="#60afff" stroke="#60afff" stroke-width="0.5" stroke-linecap="round" stroke-linejoin="round"/>
  <polygon points="1489.52,1321.16 1489.49,1296.95 1480.94,1297.73 1481.00,1321.94" fill="#60afff" stroke="#60afff" stroke-width="0.5" stroke-linecap="round" stroke-linejoin="round"/>
  <polygon points="1481.00,1321.94 1480.94,1297.73 1473.69,1299.95 1473.77,1324.18" fill="#60afff" stroke="#60afff" stroke-width="0.5" stroke-linecap="round" stroke-linejoin="round"/>
  <polygon points="1505.28,1324.18 1505.29,1299.95 1498.03,1297.73 1498.03,1321.94" fill="#60afff" stroke="#60afff" stroke-width="0.5" stroke-linecap="round" stroke-linejoin="round"/>
  <polygon points="1473.77,1324.18 1473.69,1299.95 1468.78,1303.28 1468.88,1327.53" fill="#60afff" stroke="#60afff" stroke-width="0.5" stroke-linecap="round" stroke-linejoin="round"/>
  <polygon points="1510.10,1327.53 1510.14,1303.28 1505.29,1299.95 1505.28,1324.18" fill="#60afff" stroke="#60afff" stroke-width="0.5" stroke-linecap="round" stroke-linejoin="round"/>
  <polygon points="1511.83,1331.50 1511.86,1307.22 1510.14,1303.28 1510.10,1327.53" fill="#60afff" stroke="#60afff" stroke-width="0.5" stroke-linecap="round" stroke-linejoin="round"/>
  <polygon points="1468.88,1327.53 1468.78,1303.28 1467.01,1307.22 1467.12,1331.50" fill="#60afff" stroke="#60afff" stroke-width="0.5" stroke-linecap="round" stroke-linejoin="round"/>
  <polygon points="1519.33,1307.22 1517.10,1312.49 1517.05,1336.81 1519.27,1331.50" fill="#60afff" stroke="#60afff" stroke-width="0.5" stroke-linecap="round" stroke-linejoin="round"/>
  <polygon points="1461.72,1312.49 1459.54,1307.22 1459.68,1331.50 1461.85,1336.81" fill="#60afff" stroke="#60afff" stroke-width="0.5" stroke-linecap="round" stroke-linejoin="round"/>
  <polygon points="1489.50,1293.55 1478.13,1294.58 1468.46,1297.54 1461.91,1301.97 1459.54,1307.22 1461.72,1312.49 1468.18,1316.98 1477.88,1319.99 1489.37,1321.05 1500.88,1319.99 1498.01,1316.79 1489.39,1317.58 1480.78,1316.79 1473.51,1314.53 1468.67,1311.17 1467.01,1307.22 1468.78,1303.28 1473.69,1299.95 1480.94,1297.73 1489.49,1296.95 1498.03,1297.73 1505.29,1299.95 1500.87,1294.58" fill="#60afff" stroke="#60afff" stroke-width="0.5" stroke-linecap="round" stroke-linejoin="round"/>
  <polygon points="1510.64,1316.98 1517.10,1312.49 1519.33,1307.22 1517.02,1301.97 1510.55,1297.54 1500.87,1294.58 1505.29,1299.95 1510.14,1303.28 1511.86,1307.22 1510.17,1311.17 1505.33,1314.53 1498.01,1316.79 1500.88,1319.99" fill="#60afff" stroke="#60afff" stroke-width="0.5" stroke-linecap="round" stroke-linejoin="round"/>
  <polygon points="1468.18,1316.98 1461.72,1312.49 1461.85,1336.81 1468.28,1341.34" fill="#60afff" stroke="#60afff" stroke-width="0.5" stroke-linecap="round" stroke-linejoin="round"/>
  <polygon points="1517.10,1312.49 1510.64,1316.98 1510.61,1341.34 1517.05,1336.81" fill="#60afff" stroke="#60afff" stroke-width="0.5" stroke-linecap="round" stroke-linejoin="round"/>
  <polygon points="1510.64,1316.98 1500.88,1319.99 1500.87,1344.38 1510.61,1341.34" fill="#60afff" stroke="#60afff" stroke-width="0.5" stroke-linecap="round" stroke-linejoin="round"/>
  <polygon points="1477.88,1319.99 1468.18,1316.98 1468.28,1341.34 1477.95,1344.38" fill="#60afff" stroke="#60afff" stroke-width="0.5" stroke-linecap="round" stroke-linejoin="round"/>
  <polygon points="1500.88,1319.99 1489.37,1321.05 1489.41,1345.45 1500.87,1344.38" fill="#60afff" stroke="#60afff" stroke-width="0.5" stroke-linecap="round" stroke-linejoin="round"/>
  <polygon points="1489.37,1321.05 1477.88,1319.99 1477.95,1344.38 1489.41,1345.45" fill="#60afff" stroke="#60afff" stroke-width="0.5" stroke-linecap="round" stroke-linejoin="round"/>
  <polygon points="1418.43,1353.99 1418.15,1329.53 1409.46,1330.34 1409.76,1354.80" fill="#60afff" stroke="#60afff" stroke-width="0.5" stroke-linecap="round" stroke-linejoin="round"/>
  <polygon points="1427.04,1354.80 1426.79,1330.34 1418.15,1329.53 1418.43,1353.99" fill="#60afff" stroke="#60afff" stroke-width="0.5" stroke-linecap="round" stroke-linejoin="round"/>
  <polygon points="1568.97,1354.80 1569.20,1330.34 1560.51,1329.53 1560.31,1353.99" fill="#60afff" stroke="#60afff" stroke-width="0.5" stroke-linecap="round" stroke-linejoin="round"/>
  <polygon points="1560.31,1353.99 1560.51,1329.53 1551.86,1330.34 1551.69,1354.80" fill="#60afff" stroke="#60afff" stroke-width="0.5" stroke-linecap="round" stroke-linejoin="round"/>
  <polygon points="1434.32,1357.10 1434.10,1332.62 1426.79,1330.34 1427.04,1354.80" fill="#60afff" stroke="#60afff" stroke-width="0.5" stroke-linecap="round" stroke-linejoin="round"/>
  <polygon points="1576.39,1357.10 1576.65,1332.62 1569.20,1330.34 1568.97,1354.80" fill="#60afff" stroke="#60afff" stroke-width="0.5" stroke-linecap="round" stroke-linejoin="round"/>
  <polygon points="1551.69,1354.80 1551.86,1330.34 1544.57,1332.62 1544.43,1357.10" fill="#60afff" stroke="#60afff" stroke-width="0.5" stroke-linecap="round" stroke-linejoin="round"/>
  <polygon points="1409.76,1354.80 1409.46,1330.34 1402.02,1332.62 1402.35,1357.10" fill="#60afff" stroke="#60afff" stroke-width="0.5" stroke-linecap="round" stroke-linejoin="round"/>
  <polygon points="1560.41,1326.03 1548.91,1327.10 1539.18,1330.14 1544.57,1332.62 1551.86,1330.34 1560.51,1329.53 1569.20,1330.34" fill="#60afff" stroke="#60afff" stroke-width="0.5" stroke-linecap="round" stroke-linejoin="round"/>
  <polygon points="1402.35,1357.10 1402.02,1332.62 1396.93,1336.05 1397.27,1360.56" fill="#60afff" stroke="#60afff" stroke-width="0.5" stroke-linecap="round" stroke-linejoin="round"/>
  <polygon points="1544.43,1357.10 1544.57,1332.62 1539.70,1336.05 1539.57,1360.56" fill="#60afff" stroke="#60afff" stroke-width="0.5" stroke-linecap="round" stroke-linejoin="round"/>
  <polygon points="1439.11,1360.56 1438.90,1336.05 1434.10,1332.62 1434.32,1357.10" fill="#60afff" stroke="#60afff" stroke-width="0.5" stroke-linecap="round" stroke-linejoin="round"/>
  <polygon points="1581.40,1360.56 1581.67,1336.05 1576.65,1332.62 1576.39,1357.10" fill="#60afff" stroke="#60afff" stroke-width="0.5" stroke-linecap="round" stroke-linejoin="round"/>
  <polygon points="1489.64,1299.32 1346.78,1364.65 1489.01,1433.97 1631.89,1364.65" fill="#60afff" stroke="#60afff" stroke-width="0.5" stroke-linecap="round" stroke-linejoin="round"/>
  <polygon points="1583.28,1364.65 1583.56,1340.11 1581.67,1336.05 1581.40,1360.56" fill="#60afff" stroke="#60afff" stroke-width="0.5" stroke-linecap="round" stroke-linejoin="round"/>
  <polygon points="1440.72,1364.65 1440.53,1340.11 1438.90,1336.05 1439.11,1360.56" fill="#60afff" stroke="#60afff" stroke-width="0.5" stroke-linecap="round" stroke-linejoin="round"/>
  <polygon points="1539.57,1360.56 1539.70,1336.05 1538.04,1340.11 1537.91,1364.65" fill="#60afff" stroke="#60afff" stroke-width="0.5" stroke-linecap="round" stroke-linejoin="round"/>
  <polygon points="1397.27,1360.56 1396.93,1336.05 1395.01,1340.11 1395.36,1364.65" fill="#60afff" stroke="#60afff" stroke-width="0.5" stroke-linecap="round" stroke-linejoin="round"/>
  <polygon points="1532.84,1345.54 1530.46,1340.11 1530.35,1364.65 1532.73,1370.12" fill="#60afff" stroke="#60afff" stroke-width="0.5" stroke-linecap="round" stroke-linejoin="round"/>
  <polygon points="1591.14,1340.11 1589.04,1345.54 1588.75,1370.12 1590.83,1364.65" fill="#60afff" stroke="#60afff" stroke-width="0.5" stroke-linecap="round" stroke-linejoin="round"/>
  <polygon points="1389.47,1345.54 1387.43,1340.11 1387.80,1364.65 1389.84,1370.12" fill="#60afff" stroke="#60afff" stroke-width="0.5" stroke-linecap="round" stroke-linejoin="round"/>
  <polygon points="1448.11,1340.11 1445.67,1345.54 1445.85,1370.12 1448.28,1364.65" fill="#60afff" stroke="#60afff" stroke-width="0.5" stroke-linecap="round" stroke-linejoin="round"/>
  <polygon points="1405.61,1353.27 1417.25,1354.36 1428.96,1353.27 1438.97,1350.17 1445.67,1345.54 1448.11,1340.11 1445.93,1334.70 1439.51,1330.14 1429.78,1327.10 1418.28,1326.03 1406.71,1327.10 1396.79,1330.14 1390.00,1334.70 1387.43,1340.11 1395.01,1340.11 1396.93,1336.05 1402.02,1332.62 1409.46,1330.34 1418.15,1329.53 1426.79,1330.34 1434.10,1332.62 1438.90,1336.05 1440.53,1340.11 1438.68,1344.18 1433.65,1347.64 1426.15,1349.96 1417.38,1350.78 1408.66,1349.96 1401.37,1347.64 1395.87,1350.17" fill="#60afff" stroke="#60afff" stroke-width="0.5" stroke-linecap="round" stroke-linejoin="round"/>
  <polygon points="1588.62,1334.70 1581.90,1330.14 1571.98,1327.10 1560.41,1326.03 1569.20,1330.34 1576.65,1332.62 1581.67,1336.05 1583.56,1340.11 1581.97,1344.18 1577.16,1347.64 1569.81,1349.96 1561.08,1350.78 1552.32,1349.96 1544.87,1347.64 1539.84,1344.18 1538.04,1340.11 1539.70,1336.05 1544.57,1332.62 1539.18,1330.14 1532.68,1334.70 1530.46,1340.11 1532.84,1345.54 1539.54,1350.17 1549.48,1353.27 1561.18,1354.36 1572.82,1353.27 1582.64,1350.17 1589.04,1345.54 1591.14,1340.11" fill="#60afff" stroke="#60afff" stroke-width="0.5" stroke-linecap="round" stroke-linejoin="round"/>
  <polygon points="1445.67,1345.54 1438.97,1350.17 1439.17,1374.78 1445.85,1370.12" fill="#60afff" stroke="#60afff" stroke-width="0.5" stroke-linecap="round" stroke-linejoin="round"/>
  <polygon points="1395.87,1350.17 1389.47,1345.54 1389.84,1370.12 1396.22,1374.78" fill="#60afff" stroke="#60afff" stroke-width="0.5" stroke-linecap="round" stroke-linejoin="round"/>
  <polygon points="1539.54,1350.17 1532.84,1345.54 1532.73,1370.12 1539.40,1374.78" fill="#60afff" stroke="#60afff" stroke-width="0.5" stroke-linecap="round" stroke-linejoin="round"/>
  <polygon points="1589.04,1345.54 1582.64,1350.17 1582.36,1374.78 1588.75,1370.12" fill="#60afff" stroke="#60afff" stroke-width="0.5" stroke-linecap="round" stroke-linejoin="round"/>
  <polygon points="1389.47,1345.54 1395.87,1350.17 1401.37,1347.64 1396.56,1344.18 1395.01,1340.11 1387.43,1340.11" fill="#60afff" stroke="#60afff" stroke-width="0.5" stroke-linecap="round" stroke-linejoin="round"/>
  <polygon points="1438.97,1350.17 1428.96,1353.27 1429.19,1377.91 1439.17,1374.78" fill="#60afff" stroke="#60afff" stroke-width="0.5" stroke-linecap="round" stroke-linejoin="round"/>
  <polygon points="1549.48,1353.27 1539.54,1350.17 1539.40,1374.78 1549.32,1377.91" fill="#60afff" stroke="#60afff" stroke-width="0.5" stroke-linecap="round" stroke-linejoin="round"/>
  <polygon points="1405.61,1353.27 1395.87,1350.17 1396.22,1374.78 1405.93,1377.91" fill="#60afff" stroke="#60afff" stroke-width="0.5" stroke-linecap="round" stroke-linejoin="round"/>
  <polygon points="1582.64,1350.17 1572.82,1353.27 1572.58,1377.91 1582.36,1374.78" fill="#60afff" stroke="#60afff" stroke-width="0.5" stroke-linecap="round" stroke-linejoin="round"/>
  <polygon points="1489.17,1541.30 1489.01,1433.97 1346.78,1364.65 1348.98,1469.84" fill="#60afff" stroke="#60afff" stroke-width="0.5" stroke-linecap="round" stroke-linejoin="round"/>
  <polygon points="1631.89,1364.65 1489.01,1433.97 1489.17,1541.30 1630.00,1469.84" fill="#60afff" stroke="#60afff" stroke-width="0.5" stroke-linecap="round" stroke-linejoin="round"/>
  <polygon points="1572.82,1353.27 1561.18,1354.36 1560.98,1379.00 1572.58,1377.91" fill="#60afff" stroke="#60afff" stroke-width="0.5" stroke-linecap="round" stroke-linejoin="round"/>
  <polygon points="1417.25,1354.36 1405.61,1353.27 1405.93,1377.91 1417.52,1379.00" fill="#60afff" stroke="#60afff" stroke-width="0.5" stroke-linecap="round" stroke-linejoin="round"/>
  <polygon points="1561.18,1354.36 1549.48,1353.27 1549.32,1377.91 1560.98,1379.00" fill="#60afff" stroke="#60afff" stroke-width="0.5" stroke-linecap="round" stroke-linejoin="round"/>
  <polygon points="1428.96,1353.27 1417.25,1354.36 1417.52,1379.00 1429.19,1377.91" fill="#60afff" stroke="#60afff" stroke-width="0.5" stroke-linecap="round" stroke-linejoin="round"/>
  <polygon points="1497.97,1388.64 1497.97,1363.92 1489.17,1363.10 1489.21,1387.81" fill="#60afff" stroke="#60afff" stroke-width="0.5" stroke-linecap="round" stroke-linejoin="round"/>
  <polygon points="1489.21,1387.81 1489.17,1363.10 1480.37,1363.92 1480.43,1388.64" fill="#60afff" stroke="#60afff" stroke-width="0.5" stroke-linecap="round" stroke-linejoin="round"/>
  <polygon points="1480.43,1388.64 1480.37,1363.92 1472.90,1366.28 1472.99,1391.01" fill="#60afff" stroke="#60afff" stroke-width="0.5" stroke-linecap="round" stroke-linejoin="round"/>
  <polygon points="1505.43,1391.01 1505.45,1366.28 1497.97,1363.92 1497.97,1388.64" fill="#60afff" stroke="#60afff" stroke-width="0.5" stroke-linecap="round" stroke-linejoin="round"/>
  <polygon points="1472.99,1391.01 1472.90,1366.28 1467.84,1369.81 1467.95,1394.57" fill="#60afff" stroke="#60afff" stroke-width="0.5" stroke-linecap="round" stroke-linejoin="round"/>
  <polygon points="1510.41,1394.57 1510.44,1369.81 1505.45,1366.28 1505.43,1391.01" fill="#60afff" stroke="#60afff" stroke-width="0.5" stroke-linecap="round" stroke-linejoin="round"/>
  <polygon points="1467.95,1394.57 1467.84,1369.81 1466.02,1373.99 1466.13,1398.78" fill="#60afff" stroke="#60afff" stroke-width="0.5" stroke-linecap="round" stroke-linejoin="round"/>
  <polygon points="1512.18,1398.78 1512.22,1373.99 1510.44,1369.81 1510.41,1394.57" fill="#60afff" stroke="#60afff" stroke-width="0.5" stroke-linecap="round" stroke-linejoin="round"/>
  <polygon points="1355.56,1430.12 1355.07,1405.43 1346.17,1406.27 1346.69,1430.97" fill="#e2f999" stroke="#e2f999" stroke-width="0.5" stroke-linecap="round" stroke-linejoin="round"/>
  <polygon points="1364.32,1430.97 1363.86,1406.27 1355.07,1405.43 1355.56,1430.12" fill="#e2f999" stroke="#e2f999" stroke-width="0.5" stroke-linecap="round" stroke-linejoin="round"/>
  <polygon points="1346.69,1430.97 1346.17,1406.27 1338.50,1408.67 1339.05,1433.39" fill="#e2f999" stroke="#e2f999" stroke-width="0.5" stroke-linecap="round" stroke-linejoin="round"/>
  <polygon points="1371.66,1433.39 1371.22,1408.67 1363.86,1406.27 1364.32,1430.97" fill="#e2f999" stroke="#e2f999" stroke-width="0.5" stroke-linecap="round" stroke-linejoin="round"/>
  <polygon points="1519.92,1373.99 1517.62,1379.59 1517.56,1404.42 1519.85,1398.78" fill="#60afff" stroke="#60afff" stroke-width="0.5" stroke-linecap="round" stroke-linejoin="round"/>
  <polygon points="1460.57,1379.59 1458.32,1373.99 1458.46,1398.78 1460.70,1404.42" fill="#60afff" stroke="#60afff" stroke-width="0.5" stroke-linecap="round" stroke-linejoin="round"/>
  <polygon points="1519.92,1373.99 1517.53,1368.42 1512.22,1373.99 1510.48,1378.19" fill="#60afff" stroke="#60afff" stroke-width="0.5" stroke-linecap="round" stroke-linejoin="round"/>
  <polygon points="1517.62,1379.59 1519.92,1373.99 1510.48,1378.19 1505.49,1381.76 1497.95,1384.15 1489.07,1384.99 1480.19,1384.15 1472.71,1381.76 1467.72,1378.19 1466.02,1373.99 1467.84,1369.81 1472.90,1366.28 1480.37,1363.92 1489.17,1363.10 1497.97,1363.92 1505.45,1366.28 1510.44,1369.81 1512.22,1373.99 1517.53,1368.42 1510.87,1363.72 1500.89,1360.59 1489.19,1359.49 1477.48,1360.59 1467.51,1363.72 1460.76,1368.42 1458.32,1373.99 1460.57,1379.59 1467.21,1384.36 1477.21,1387.55 1489.05,1388.68 1500.90,1387.55 1510.97,1384.36" fill="#60afff" stroke="#60afff" stroke-width="0.5" stroke-linecap="round" stroke-linejoin="round"/>
  <polygon points="1339.05,1433.39 1338.50,1408.67 1333.23,1412.30 1333.79,1437.04" fill="#e2f999" stroke="#e2f999" stroke-width="0.5" stroke-linecap="round" stroke-linejoin="round"/>
  <polygon points="1376.47,1437.04 1376.05,1412.30 1371.22,1408.67 1371.66,1433.39" fill="#e2f999" stroke="#e2f999" stroke-width="0.5" stroke-linecap="round" stroke-linejoin="round"/>
  <polygon points="1467.21,1384.36 1460.57,1379.59 1460.70,1404.42 1467.32,1409.23" fill="#60afff" stroke="#60afff" stroke-width="0.5" stroke-linecap="round" stroke-linejoin="round"/>
  <polygon points="1517.62,1379.59 1510.97,1384.36 1510.93,1409.23 1517.56,1404.42" fill="#60afff" stroke="#60afff" stroke-width="0.5" stroke-linecap="round" stroke-linejoin="round"/>
  <polygon points="1333.79,1437.04 1333.23,1412.30 1331.17,1416.57 1331.74,1441.34" fill="#e2f999" stroke="#e2f999" stroke-width="0.5" stroke-linecap="round" stroke-linejoin="round"/>
  <polygon points="1378.00,1441.35 1377.59,1416.58 1376.05,1412.30 1376.47,1437.04" fill="#e2f999" stroke="#e2f999" stroke-width="0.5" stroke-linecap="round" stroke-linejoin="round"/>
  <polygon points="1510.97,1384.36 1500.90,1387.55 1500.90,1412.45 1510.93,1409.23" fill="#60afff" stroke="#60afff" stroke-width="0.5" stroke-linecap="round" stroke-linejoin="round"/>
  <polygon points="1477.21,1387.55 1467.21,1384.36 1467.32,1409.23 1477.28,1412.45" fill="#60afff" stroke="#60afff" stroke-width="0.5" stroke-linecap="round" stroke-linejoin="round"/>
  <polygon points="1323.42,1416.58 1325.34,1422.31 1332.61,1420.87 1331.17,1416.57 1333.23,1412.30 1338.50,1408.67 1346.17,1406.27 1355.07,1405.43 1363.86,1406.27 1371.22,1408.67 1376.05,1412.30 1377.59,1416.58 1375.59,1420.87 1370.34,1424.52 1362.64,1426.98 1353.68,1427.83 1353.43,1431.62 1365.42,1430.46 1375.69,1427.18 1382.68,1422.31 1385.32,1416.58 1383.27,1410.87 1376.82,1406.05 1367.02,1402.85 1355.30,1401.74 1343.46,1402.86 1333.24,1406.05 1326.22,1410.87" fill="#e2f999" stroke="#e2f999" stroke-width="0.5" stroke-linecap="round" stroke-linejoin="round"/>
  <polygon points="1489.05,1388.68 1477.21,1387.55 1477.28,1412.45 1489.09,1413.58" fill="#60afff" stroke="#60afff" stroke-width="0.5" stroke-linecap="round" stroke-linejoin="round"/>
  <polygon points="1500.90,1387.55 1489.05,1388.68 1489.09,1413.58 1500.90,1412.45" fill="#60afff" stroke="#60afff" stroke-width="0.5" stroke-linecap="round" stroke-linejoin="round"/>
  <polygon points="1325.34,1422.31 1323.42,1416.58 1324.02,1441.35 1325.93,1447.12" fill="#e2f999" stroke="#e2f999" stroke-width="0.5" stroke-linecap="round" stroke-linejoin="round"/>
  <polygon points="1385.32,1416.58 1382.68,1422.31 1383.08,1447.12 1385.71,1441.35" fill="#e2f999" stroke="#e2f999" stroke-width="0.5" stroke-linecap="round" stroke-linejoin="round"/>
  <polygon points="1382.68,1422.31 1375.69,1427.18 1376.11,1452.03 1383.08,1447.12" fill="#e2f999" stroke="#e2f999" stroke-width="0.5" stroke-linecap="round" stroke-linejoin="round"/>
  <polygon points="1331.72,1427.18 1325.34,1422.31 1325.93,1447.12 1332.29,1452.03" fill="#e2f999" stroke="#e2f999" stroke-width="0.5" stroke-linecap="round" stroke-linejoin="round"/>
  <polygon points="1375.69,1427.18 1365.42,1430.46 1365.88,1455.33 1376.11,1452.03" fill="#e2f999" stroke="#e2f999" stroke-width="0.5" stroke-linecap="round" stroke-linejoin="round"/>
  <polygon points="1341.59,1430.47 1331.72,1427.18 1332.29,1452.03 1342.13,1455.34" fill="#e2f999" stroke="#e2f999" stroke-width="0.5" stroke-linecap="round" stroke-linejoin="round"/>
  <polygon points="1341.59,1430.47 1353.43,1431.62 1353.68,1427.83 1344.79,1426.98 1337.40,1424.52 1332.61,1420.87 1325.34,1422.31 1331.72,1427.18" fill="#e2f999" stroke="#e2f999" stroke-width="0.5" stroke-linecap="round" stroke-linejoin="round"/>
  <polygon points="1365.42,1430.46 1353.43,1431.62 1353.93,1456.50 1365.88,1455.33" fill="#e2f999" stroke="#e2f999" stroke-width="0.5" stroke-linecap="round" stroke-linejoin="round"/>
  <polygon points="1353.43,1431.62 1341.59,1430.47 1342.13,1455.34 1353.93,1456.50" fill="#e2f999" stroke="#e2f999" stroke-width="0.5" stroke-linecap="round" stroke-linejoin="round"/>
  <polygon points="1288.75,1466.66 1288.02,1441.71 1279.13,1440.84 1279.89,1465.78" fill="#e2f999" stroke="#e2f999" stroke-width="0.5" stroke-linecap="round" stroke-linejoin="round"/>
  <polygon points="1435.74,1466.66 1435.52,1441.71 1426.57,1440.84 1426.82,1465.78" fill="#e2f999" stroke="#e2f999" stroke-width="0.5" stroke-linecap="round" stroke-linejoin="round"/>
  <polygon points="1426.82,1465.78 1426.57,1440.84 1417.56,1441.71 1417.84,1466.66" fill="#e2f999" stroke="#e2f999" stroke-width="0.5" stroke-linecap="round" stroke-linejoin="round"/>
  <polygon points="1279.89,1465.78 1279.13,1440.84 1270.07,1441.71 1270.86,1466.66" fill="#e2f999" stroke="#e2f999" stroke-width="0.5" stroke-linecap="round" stroke-linejoin="round"/>
  <polygon points="1296.13,1469.16 1295.42,1444.19 1288.02,1441.71 1288.75,1466.66" fill="#e2f999" stroke="#e2f999" stroke-width="0.5" stroke-linecap="round" stroke-linejoin="round"/>
  <polygon points="1417.84,1466.66 1417.56,1441.71 1409.85,1444.19 1410.16,1469.16" fill="#e2f999" stroke="#e2f999" stroke-width="0.5" stroke-linecap="round" stroke-linejoin="round"/>
  <polygon points="1270.86,1466.66 1270.07,1441.71 1262.20,1444.19 1263.02,1469.16" fill="#e2f999" stroke="#e2f999" stroke-width="0.5" stroke-linecap="round" stroke-linejoin="round"/>
  <polygon points="1443.27,1469.16 1443.07,1444.19 1435.52,1441.71 1435.74,1466.66" fill="#e2f999" stroke="#e2f999" stroke-width="0.5" stroke-linecap="round" stroke-linejoin="round"/>
  <polygon points="1291.34,1438.18 1279.49,1437.03 1279.13,1440.84 1288.02,1441.71 1295.42,1444.19 1301.19,1441.48" fill="#e2f999" stroke="#e2f999" stroke-width="0.5" stroke-linecap="round" stroke-linejoin="round"/>
  <polygon points="1300.89,1472.92 1300.20,1447.92 1295.42,1444.19 1296.13,1469.16" fill="#e2f999" stroke="#e2f999" stroke-width="0.5" stroke-linecap="round" stroke-linejoin="round"/>
  <polygon points="1263.02,1469.16 1262.20,1444.19 1256.72,1447.92 1257.56,1472.92" fill="#e2f999" stroke="#e2f999" stroke-width="0.5" stroke-linecap="round" stroke-linejoin="round"/>
  <polygon points="1410.16,1469.16 1409.85,1444.19 1404.61,1447.92 1404.93,1472.92" fill="#e2f999" stroke="#e2f999" stroke-width="0.5" stroke-linecap="round" stroke-linejoin="round"/>
  <polygon points="1448.26,1472.92 1448.08,1447.92 1443.07,1444.19 1443.27,1469.16" fill="#e2f999" stroke="#e2f999" stroke-width="0.5" stroke-linecap="round" stroke-linejoin="round"/>
  <polygon points="1357.02,1406.40 1204.99,1477.35 1347.97,1552.80 1500.29,1477.35" fill="#e2f999" stroke="#e2f999" stroke-width="0.5" stroke-linecap="round" stroke-linejoin="round"/>
  <polygon points="1257.56,1472.92 1256.72,1447.92 1254.49,1452.33 1255.33,1477.35" fill="#e2f999" stroke="#e2f999" stroke-width="0.5" stroke-linecap="round" stroke-linejoin="round"/>
  <polygon points="1404.93,1472.92 1404.61,1447.92 1402.65,1452.33 1402.98,1477.35" fill="#e2f999" stroke="#e2f999" stroke-width="0.5" stroke-linecap="round" stroke-linejoin="round"/>
  <polygon points="1449.96,1477.36 1449.78,1452.33 1448.08,1447.92 1448.26,1472.92" fill="#e2f999" stroke="#e2f999" stroke-width="0.5" stroke-linecap="round" stroke-linejoin="round"/>
  <polygon points="1302.31,1477.36 1301.62,1452.33 1300.20,1447.92 1300.89,1472.92" fill="#e2f999" stroke="#e2f999" stroke-width="0.5" stroke-linecap="round" stroke-linejoin="round"/>
  <polygon points="1309.47,1452.33 1306.60,1458.24 1307.27,1483.31 1310.13,1477.36" fill="#e2f999" stroke="#e2f999" stroke-width="0.5" stroke-linecap="round" stroke-linejoin="round"/>
  <polygon points="1248.38,1458.24 1246.62,1452.33 1247.49,1477.36 1249.25,1483.31" fill="#e2f999" stroke="#e2f999" stroke-width="0.5" stroke-linecap="round" stroke-linejoin="round"/>
  <polygon points="1396.91,1458.24 1394.78,1452.33 1395.14,1477.36 1397.27,1483.31" fill="#e2f999" stroke="#e2f999" stroke-width="0.5" stroke-linecap="round" stroke-linejoin="round"/>
  <polygon points="1457.64,1452.33 1455.13,1458.24 1455.29,1483.31 1457.78,1477.36" fill="#e2f999" stroke="#e2f999" stroke-width="0.5" stroke-linecap="round" stroke-linejoin="round"/>
  <polygon points="1425.72,1467.84 1437.87,1466.64 1448.19,1463.27 1455.13,1458.24 1442.68,1460.52 1434.93,1463.06 1425.86,1463.94 1416.81,1463.06 1409.22,1460.52 1404.25,1456.76 1402.65,1452.33 1404.61,1447.92 1409.85,1444.19 1417.56,1441.71 1426.57,1440.84 1435.52,1441.71 1443.07,1444.19 1448.08,1447.92 1449.78,1452.33 1447.89,1456.76 1457.64,1452.33 1455.38,1446.45 1448.67,1441.48 1438.62,1438.18 1426.69,1437.03 1414.70,1438.19 1404.42,1441.48 1397.44,1446.45 1394.78,1452.33 1396.91,1458.24 1403.54,1463.27 1413.67,1466.65" fill="#e2f999" stroke="#e2f999" stroke-width="0.5" stroke-linecap="round" stroke-linejoin="round"/>
  <polygon points="1306.60,1458.24 1309.47,1452.33 1307.59,1446.45 1301.19,1441.48 1295.42,1444.19 1300.20,1447.92 1301.62,1452.33 1299.45,1456.76 1294.00,1460.52 1286.10,1463.06 1276.97,1463.94 1267.98,1463.06 1260.55,1460.52 1255.81,1456.76 1254.49,1452.33 1256.72,1447.92 1262.20,1444.19 1270.07,1441.71 1279.13,1440.84 1279.49,1437.03 1267.43,1438.19 1256.95,1441.48 1249.65,1446.45 1246.62,1452.33 1248.38,1458.24 1254.69,1463.27 1264.61,1466.65 1276.59,1467.84 1288.81,1466.64 1299.34,1463.27" fill="#e2f999" stroke="#e2f999" stroke-width="0.5" stroke-linecap="round" stroke-linejoin="round"/>
  <polygon points="1403.54,1463.27 1396.91,1458.24 1397.27,1483.31 1403.87,1488.37" fill="#e2f999" stroke="#e2f999" stroke-width="0.5" stroke-linecap="round" stroke-linejoin="round"/>
  <polygon points="1306.60,1458.24 1299.34,1463.27 1300.04,1488.37 1307.27,1483.31" fill="#e2f999" stroke="#e2f999" stroke-width="0.5" stroke-linecap="round" stroke-linejoin="round"/>
  <polygon points="1455.13,1458.24 1448.19,1463.27 1448.37,1488.37 1455.29,1483.31" fill="#e2f999" stroke="#e2f999" stroke-width="0.5" stroke-linecap="round" stroke-linejoin="round"/>
  <polygon points="1254.69,1463.27 1248.38,1458.24 1249.25,1483.31 1255.54,1488.37" fill="#e2f999" stroke="#e2f999" stroke-width="0.5" stroke-linecap="round" stroke-linejoin="round"/>
  <polygon points="1455.13,1458.24 1457.64,1452.33 1447.89,1456.76 1442.68,1460.52" fill="#e2f999" stroke="#e2f999" stroke-width="0.5" stroke-linecap="round" stroke-linejoin="round"/>
  <polygon points="1299.34,1463.27 1288.81,1466.64 1289.54,1491.77 1300.04,1488.37" fill="#e2f999" stroke="#e2f999" stroke-width="0.5" stroke-linecap="round" stroke-linejoin="round"/>
  <polygon points="1448.19,1463.27 1437.87,1466.64 1438.09,1491.77 1448.37,1488.37" fill="#e2f999" stroke="#e2f999" stroke-width="0.5" stroke-linecap="round" stroke-linejoin="round"/>
  <polygon points="1413.67,1466.65 1403.54,1463.27 1403.87,1488.37 1413.97,1491.78" fill="#e2f999" stroke="#e2f999" stroke-width="0.5" stroke-linecap="round" stroke-linejoin="round"/>
  <polygon points="1264.61,1466.65 1254.69,1463.27 1255.54,1488.37 1265.42,1491.78" fill="#e2f999" stroke="#e2f999" stroke-width="0.5" stroke-linecap="round" stroke-linejoin="round"/>
  <polygon points="1500.29,1477.35 1347.97,1552.80 1350.29,1662.22 1500.28,1584.58" fill="#e2f999" stroke="#e2f999" stroke-width="0.5" stroke-linecap="round" stroke-linejoin="round"/>
  <polygon points="1350.29,1662.22 1347.97,1552.80 1204.99,1477.35 1209.36,1584.58" fill="#e2f999" stroke="#e2f999" stroke-width="0.5" stroke-linecap="round" stroke-linejoin="round"/>
  <polygon points="1437.87,1466.64 1425.72,1467.84 1425.98,1492.98 1438.09,1491.77" fill="#e2f999" stroke="#e2f999" stroke-width="0.5" stroke-linecap="round" stroke-linejoin="round"/>
  <polygon points="1288.81,1466.64 1276.59,1467.84 1277.36,1492.98 1289.54,1491.77" fill="#e2f999" stroke="#e2f999" stroke-width="0.5" stroke-linecap="round" stroke-linejoin="round"/>
  <polygon points="1425.72,1467.84 1413.67,1466.65 1413.97,1491.78 1425.98,1492.98" fill="#e2f999" stroke="#e2f999" stroke-width="0.5" stroke-linecap="round" stroke-linejoin="round"/>
  <polygon points="1276.59,1467.84 1264.61,1466.65 1265.42,1491.78 1277.36,1492.98" fill="#e2f999" stroke="#e2f999" stroke-width="0.5" stroke-linecap="round" stroke-linejoin="round"/>
  <polygon points="1360.11,1503.46 1359.62,1478.25 1350.56,1477.35 1351.08,1502.56" fill="#e2f999" stroke="#e2f999" stroke-width="0.5" stroke-linecap="round" stroke-linejoin="round"/>
  <polygon points="1351.08,1502.56 1350.56,1477.35 1341.38,1478.25 1341.94,1503.46" fill="#e2f999" stroke="#e2f999" stroke-width="0.5" stroke-linecap="round" stroke-linejoin="round"/>
  <polygon points="1367.67,1506.03 1367.21,1480.80 1359.62,1478.25 1360.11,1503.46" fill="#e2f999" stroke="#e2f999" stroke-width="0.5" stroke-linecap="round" stroke-linejoin="round"/>
  <polygon points="1341.94,1503.46 1341.38,1478.25 1333.47,1480.80 1334.05,1506.03" fill="#e2f999" stroke="#e2f999" stroke-width="0.5" stroke-linecap="round" stroke-linejoin="round"/>
  <polygon points="1372.62,1509.92 1372.18,1484.66 1367.21,1480.80 1367.67,1506.03" fill="#e2f999" stroke="#e2f999" stroke-width="0.5" stroke-linecap="round" stroke-linejoin="round"/>
  <polygon points="1334.05,1506.03 1333.47,1480.80 1328.02,1484.66 1328.62,1509.92" fill="#e2f999" stroke="#e2f999" stroke-width="0.5" stroke-linecap="round" stroke-linejoin="round"/>
  <polygon points="1525.96,1489.40 1526.05,1464.05 1516.89,1463.16 1516.83,1488.50" fill="#f4f4f4" stroke="#f4f4f4" stroke-width="0.5" stroke-linecap="round" stroke-linejoin="round"/>
  <polygon points="1516.83,1488.50 1516.89,1463.16 1507.75,1464.05 1507.72,1489.40" fill="#f4f4f4" stroke="#f4f4f4" stroke-width="0.5" stroke-linecap="round" stroke-linejoin="round"/>
  <polygon points="1328.62,1509.92 1328.02,1484.66 1325.89,1489.20 1326.50,1514.49" fill="#e2f999" stroke="#e2f999" stroke-width="0.5" stroke-linecap="round" stroke-linejoin="round"/>
  <polygon points="1374.20,1514.50 1373.76,1489.21 1372.18,1484.66 1372.62,1509.92" fill="#e2f999" stroke="#e2f999" stroke-width="0.5" stroke-linecap="round" stroke-linejoin="round"/>
  <polygon points="1507.72,1489.40 1507.75,1464.05 1499.99,1466.62 1499.99,1491.99" fill="#f4f4f4" stroke="#f4f4f4" stroke-width="0.5" stroke-linecap="round" stroke-linejoin="round"/>
  <polygon points="1533.73,1491.99 1533.84,1466.62 1526.05,1464.05 1525.96,1489.40" fill="#f4f4f4" stroke="#f4f4f4" stroke-width="0.5" stroke-linecap="round" stroke-linejoin="round"/>
  <polygon points="1499.99,1491.99 1499.99,1466.62 1494.79,1470.45 1494.81,1495.84" fill="#f4f4f4" stroke="#f4f4f4" stroke-width="0.5" stroke-linecap="round" stroke-linejoin="round"/>
  <polygon points="1538.96,1495.84 1539.10,1470.45 1533.84,1466.62 1533.73,1491.99" fill="#f4f4f4" stroke="#f4f4f4" stroke-width="0.5" stroke-linecap="round" stroke-linejoin="round"/>
  <polygon points="1319.86,1495.30 1317.89,1489.21 1318.53,1514.50 1320.49,1520.63" fill="#e2f999" stroke="#e2f999" stroke-width="0.5" stroke-linecap="round" stroke-linejoin="round"/>
  <polygon points="1381.73,1489.21 1379.00,1495.30 1379.42,1520.63 1382.15,1514.50" fill="#e2f999" stroke="#e2f999" stroke-width="0.5" stroke-linecap="round" stroke-linejoin="round"/>
  <polygon points="1319.86,1495.30 1326.43,1500.49 1332.30,1497.66 1327.36,1493.78 1325.89,1489.20 1328.02,1484.66 1333.47,1480.80 1341.38,1478.25 1350.56,1477.35 1359.62,1478.25 1367.21,1480.80 1372.18,1484.66 1373.76,1489.21 1371.69,1493.78 1366.27,1497.66 1358.32,1500.27 1349.08,1501.18 1339.92,1500.27 1336.60,1503.98 1348.81,1505.20 1361.19,1503.97 1371.78,1500.49 1379.00,1495.30 1381.73,1489.21 1379.63,1483.14 1372.98,1478.02 1362.88,1474.61 1350.80,1473.43 1338.60,1474.62 1328.05,1478.02 1320.79,1483.14 1317.89,1489.21" fill="#e2f999" stroke="#e2f999" stroke-width="0.5" stroke-linecap="round" stroke-linejoin="round"/>
  <polygon points="1494.81,1495.84 1494.79,1470.45 1492.95,1474.99 1492.98,1500.41" fill="#f4f4f4" stroke="#f4f4f4" stroke-width="0.5" stroke-linecap="round" stroke-linejoin="round"/>
  <polygon points="1540.86,1500.41 1541.00,1474.99 1539.10,1470.45 1538.96,1495.84" fill="#f4f4f4" stroke="#f4f4f4" stroke-width="0.5" stroke-linecap="round" stroke-linejoin="round"/>
  <polygon points="1326.43,1500.49 1319.86,1495.30 1320.49,1520.63 1327.04,1525.86" fill="#e2f999" stroke="#e2f999" stroke-width="0.5" stroke-linecap="round" stroke-linejoin="round"/>
  <polygon points="1379.00,1495.30 1371.78,1500.49 1372.24,1525.86 1379.42,1520.63" fill="#e2f999" stroke="#e2f999" stroke-width="0.5" stroke-linecap="round" stroke-linejoin="round"/>
  <polygon points="1529.07,1460.44 1516.87,1459.24 1504.70,1460.43 1494.35,1463.84 1487.41,1468.94 1484.95,1474.99 1487.37,1481.07 1494.30,1486.25 1504.76,1489.72 1507.82,1486.02 1499.99,1483.43 1494.77,1479.54 1492.95,1474.99 1494.79,1470.45 1499.99,1466.62 1507.75,1464.05 1516.89,1463.16 1526.05,1464.05 1533.84,1466.62 1539.10,1470.45 1541.00,1474.99 1539.25,1479.54 1534.08,1483.43 1546.69,1481.06 1549.01,1474.99 1546.45,1468.94 1539.44,1463.84" fill="#f4f4f4" stroke="#f4f4f4" stroke-width="0.5" stroke-linecap="round" stroke-linejoin="round"/>
  <polygon points="1549.01,1474.99 1546.69,1481.06 1546.53,1506.53 1548.83,1500.41" fill="#f4f4f4" stroke="#f4f4f4" stroke-width="0.5" stroke-linecap="round" stroke-linejoin="round"/>
  <polygon points="1487.37,1481.07 1484.95,1474.99 1485.00,1500.41 1487.41,1506.54" fill="#f4f4f4" stroke="#f4f4f4" stroke-width="0.5" stroke-linecap="round" stroke-linejoin="round"/>
  <polygon points="1371.78,1500.49 1361.19,1503.97 1361.68,1529.36 1372.24,1525.86" fill="#e2f999" stroke="#e2f999" stroke-width="0.5" stroke-linecap="round" stroke-linejoin="round"/>
  <polygon points="1336.60,1503.98 1326.43,1500.49 1327.04,1525.86 1337.18,1529.37" fill="#e2f999" stroke="#e2f999" stroke-width="0.5" stroke-linecap="round" stroke-linejoin="round"/>
  <polygon points="1361.19,1503.97 1348.81,1505.20 1349.34,1530.61 1361.68,1529.36" fill="#e2f999" stroke="#e2f999" stroke-width="0.5" stroke-linecap="round" stroke-linejoin="round"/>
  <polygon points="1348.81,1505.20 1336.60,1503.98 1337.18,1529.37 1349.34,1530.61" fill="#e2f999" stroke="#e2f999" stroke-width="0.5" stroke-linecap="round" stroke-linejoin="round"/>
  <polygon points="1332.30,1497.66 1326.43,1500.49 1336.60,1503.98 1339.92,1500.27" fill="#e2f999" stroke="#e2f999" stroke-width="0.5" stroke-linecap="round" stroke-linejoin="round"/>
  <polygon points="1546.69,1481.06 1539.81,1486.25 1539.67,1511.76 1546.53,1506.53" fill="#f4f4f4" stroke="#f4f4f4" stroke-width="0.5" stroke-linecap="round" stroke-linejoin="round"/>
  <polygon points="1494.30,1486.25 1487.37,1481.07 1487.41,1506.54 1494.32,1511.76" fill="#f4f4f4" stroke="#f4f4f4" stroke-width="0.5" stroke-linecap="round" stroke-linejoin="round"/>
  <polygon points="1504.76,1489.72 1494.30,1486.25 1494.32,1511.76 1504.74,1515.25" fill="#f4f4f4" stroke="#f4f4f4" stroke-width="0.5" stroke-linecap="round" stroke-linejoin="round"/>
  <polygon points="1539.81,1486.25 1529.41,1489.72 1529.30,1515.25 1539.67,1511.76" fill="#f4f4f4" stroke="#f4f4f4" stroke-width="0.5" stroke-linecap="round" stroke-linejoin="round"/>
  <polygon points="1529.41,1489.72 1517.09,1490.94 1517.03,1516.48 1529.30,1515.25" fill="#f4f4f4" stroke="#f4f4f4" stroke-width="0.5" stroke-linecap="round" stroke-linejoin="round"/>
  <polygon points="1517.09,1490.94 1504.76,1489.72 1504.74,1515.25 1517.03,1516.48" fill="#f4f4f4" stroke="#f4f4f4" stroke-width="0.5" stroke-linecap="round" stroke-linejoin="round"/>
  <polygon points="1517.09,1490.94 1529.41,1489.72 1539.81,1486.25 1546.69,1481.06 1534.08,1483.43 1526.29,1486.02 1517.06,1486.93 1507.82,1486.02 1504.76,1489.72" fill="#f4f4f4" stroke="#f4f4f4" stroke-width="0.5" stroke-linecap="round" stroke-linejoin="round"/>
  <polygon points="1602.44,1527.27 1602.81,1501.65 1593.47,1500.73 1593.14,1526.34" fill="#f4f4f4" stroke="#f4f4f4" stroke-width="0.5" stroke-linecap="round" stroke-linejoin="round"/>
  <polygon points="1441.06,1526.34 1440.85,1500.73 1431.53,1501.65 1431.77,1527.27" fill="#f4f4f4" stroke="#f4f4f4" stroke-width="0.5" stroke-linecap="round" stroke-linejoin="round"/>
  <polygon points="1593.14,1526.34 1593.47,1500.73 1584.22,1501.65 1583.92,1527.27" fill="#f4f4f4" stroke="#f4f4f4" stroke-width="0.5" stroke-linecap="round" stroke-linejoin="round"/>
  <polygon points="1450.30,1527.27 1450.12,1501.65 1440.85,1500.73 1441.06,1526.34" fill="#f4f4f4" stroke="#f4f4f4" stroke-width="0.5" stroke-linecap="round" stroke-linejoin="round"/>
  <polygon points="1610.42,1529.94 1610.81,1504.30 1602.81,1501.65 1602.44,1527.27" fill="#f4f4f4" stroke="#f4f4f4" stroke-width="0.5" stroke-linecap="round" stroke-linejoin="round"/>
  <polygon points="1583.92,1527.27 1584.22,1501.65 1576.42,1504.30 1576.15,1529.94" fill="#f4f4f4" stroke="#f4f4f4" stroke-width="0.5" stroke-linecap="round" stroke-linejoin="round"/>
  <polygon points="1458.11,1529.94 1457.96,1504.30 1450.12,1501.65 1450.30,1527.27" fill="#f4f4f4" stroke="#f4f4f4" stroke-width="0.5" stroke-linecap="round" stroke-linejoin="round"/>
  <polygon points="1431.77,1527.27 1431.53,1501.65 1423.56,1504.30 1423.84,1529.94" fill="#f4f4f4" stroke="#f4f4f4" stroke-width="0.5" stroke-linecap="round" stroke-linejoin="round"/>
  <polygon points="1576.15,1529.94 1576.42,1504.30 1571.26,1508.25 1571.01,1533.91" fill="#f4f4f4" stroke="#f4f4f4" stroke-width="0.5" stroke-linecap="round" stroke-linejoin="round"/>
  <polygon points="1615.86,1533.91 1616.27,1508.25 1610.81,1504.30 1610.42,1529.94" fill="#f4f4f4" stroke="#f4f4f4" stroke-width="0.5" stroke-linecap="round" stroke-linejoin="round"/>
  <polygon points="1463.30,1533.91 1463.17,1508.25 1457.96,1504.30 1458.11,1529.94" fill="#f4f4f4" stroke="#f4f4f4" stroke-width="0.5" stroke-linecap="round" stroke-linejoin="round"/>
  <polygon points="1423.84,1529.94 1423.56,1504.30 1418.16,1508.25 1418.45,1533.91" fill="#f4f4f4" stroke="#f4f4f4" stroke-width="0.5" stroke-linecap="round" stroke-linejoin="round"/>
  <polygon points="1516.66,1463.38 1364.33,1538.64 1517.75,1618.84 1670.04,1538.64" fill="#f4f4f4" stroke="#f4f4f4" stroke-width="0.5" stroke-linecap="round" stroke-linejoin="round"/>
  <polygon points="1617.94,1538.63 1618.36,1512.94 1616.27,1508.25 1615.86,1533.91" fill="#f4f4f4" stroke="#f4f4f4" stroke-width="0.5" stroke-linecap="round" stroke-linejoin="round"/>
  <polygon points="1571.01,1533.91 1571.26,1508.25 1569.54,1512.94 1569.29,1538.63" fill="#f4f4f4" stroke="#f4f4f4" stroke-width="0.5" stroke-linecap="round" stroke-linejoin="round"/>
  <polygon points="1418.45,1533.91 1418.16,1508.25 1416.14,1512.94 1416.44,1538.63" fill="#f4f4f4" stroke="#f4f4f4" stroke-width="0.5" stroke-linecap="round" stroke-linejoin="round"/>
  <polygon points="1465.08,1538.63 1464.96,1512.94 1463.17,1508.25 1463.30,1533.91" fill="#f4f4f4" stroke="#f4f4f4" stroke-width="0.5" stroke-linecap="round" stroke-linejoin="round"/>
  <polygon points="1605.75,1497.93 1593.32,1496.69 1581.00,1497.92 1570.60,1501.43 1576.42,1504.30 1584.22,1501.65 1593.47,1500.73 1602.81,1501.65 1610.81,1504.30 1616.27,1508.25 1618.36,1512.94 1616.73,1517.64 1611.61,1521.65 1603.77,1524.33 1594.43,1525.27 1607.06,1528.15 1617.52,1524.57 1624.34,1519.21 1626.49,1512.94 1623.70,1506.70 1616.40,1501.43" fill="#f4f4f4" stroke="#f4f4f4" stroke-width="0.5" stroke-linecap="round" stroke-linejoin="round"/>
  <polygon points="1440.14,1529.41 1452.70,1528.15 1463.38,1524.57 1470.54,1519.21 1473.09,1512.94 1470.69,1506.70 1463.73,1501.43 1453.30,1497.93 1440.95,1496.69 1428.55,1497.92 1417.93,1501.43 1423.56,1504.30 1431.53,1501.65 1440.85,1500.73 1450.12,1501.65 1457.96,1504.30 1463.17,1508.25 1464.96,1512.94 1463.03,1517.64 1457.65,1521.65 1449.65,1524.33 1440.24,1525.27 1430.89,1524.33" fill="#f4f4f4" stroke="#f4f4f4" stroke-width="0.5" stroke-linecap="round" stroke-linejoin="round"/>
  <polygon points="1626.49,1512.94 1624.34,1519.21 1623.89,1544.95 1626.04,1538.63" fill="#f4f4f4" stroke="#f4f4f4" stroke-width="0.5" stroke-linecap="round" stroke-linejoin="round"/>
  <polygon points="1473.09,1512.94 1470.54,1519.21 1470.64,1544.95 1473.18,1538.63" fill="#f4f4f4" stroke="#f4f4f4" stroke-width="0.5" stroke-linecap="round" stroke-linejoin="round"/>
  <polygon points="1564.07,1519.22 1561.41,1512.94 1561.19,1538.63 1563.84,1544.96" fill="#f4f4f4" stroke="#f4f4f4" stroke-width="0.5" stroke-linecap="round" stroke-linejoin="round"/>
  <polygon points="1410.27,1519.22 1408.01,1512.94 1408.34,1538.63 1410.59,1544.96" fill="#f4f4f4" stroke="#f4f4f4" stroke-width="0.5" stroke-linecap="round" stroke-linejoin="round"/>
  <polygon points="1417.14,1524.57 1427.65,1528.15 1440.14,1529.41 1430.89,1524.33 1423.01,1521.65 1417.84,1517.64 1416.14,1512.94 1418.16,1508.25 1423.56,1504.30 1417.93,1501.43 1410.71,1506.70 1408.01,1512.94 1410.27,1519.22" fill="#f4f4f4" stroke="#f4f4f4" stroke-width="0.5" stroke-linecap="round" stroke-linejoin="round"/>
  <polygon points="1624.34,1519.21 1617.52,1524.57 1617.10,1550.35 1623.89,1544.95" fill="#f4f4f4" stroke="#f4f4f4" stroke-width="0.5" stroke-linecap="round" stroke-linejoin="round"/>
  <polygon points="1470.54,1519.21 1463.38,1524.57 1463.51,1550.35 1470.64,1544.95" fill="#f4f4f4" stroke="#f4f4f4" stroke-width="0.5" stroke-linecap="round" stroke-linejoin="round"/>
  <polygon points="1417.14,1524.57 1410.27,1519.22 1410.59,1544.96 1417.44,1550.35" fill="#f4f4f4" stroke="#f4f4f4" stroke-width="0.5" stroke-linecap="round" stroke-linejoin="round"/>
  <polygon points="1571.28,1524.57 1564.07,1519.22 1563.84,1544.96 1571.02,1550.35" fill="#f4f4f4" stroke="#f4f4f4" stroke-width="0.5" stroke-linecap="round" stroke-linejoin="round"/>
  <polygon points="1561.41,1512.94 1564.07,1519.22 1571.28,1524.57 1582.02,1528.15 1594.59,1529.41 1607.06,1528.15 1594.43,1525.27 1585.01,1524.33 1576.97,1521.65 1571.54,1517.64 1569.54,1512.94 1571.26,1508.25 1576.42,1504.30 1570.60,1501.43 1563.72,1506.70" fill="#f4f4f4" stroke="#f4f4f4" stroke-width="0.5" stroke-linecap="round" stroke-linejoin="round"/>
  <polygon points="1617.52,1524.57 1607.06,1528.15 1606.68,1553.95 1617.10,1550.35" fill="#f4f4f4" stroke="#f4f4f4" stroke-width="0.5" stroke-linecap="round" stroke-linejoin="round"/>
  <polygon points="1463.38,1524.57 1452.70,1528.15 1452.87,1553.95 1463.51,1550.35" fill="#f4f4f4" stroke="#f4f4f4" stroke-width="0.5" stroke-linecap="round" stroke-linejoin="round"/>
  <polygon points="1427.65,1528.15 1417.14,1524.57 1417.44,1550.35 1427.91,1553.95" fill="#f4f4f4" stroke="#f4f4f4" stroke-width="0.5" stroke-linecap="round" stroke-linejoin="round"/>
  <polygon points="1582.02,1528.15 1571.28,1524.57 1571.02,1550.35 1581.72,1553.95" fill="#f4f4f4" stroke="#f4f4f4" stroke-width="0.5" stroke-linecap="round" stroke-linejoin="round"/>
  <polygon points="1517.47,1731.14 1517.75,1618.84 1364.33,1538.64 1366.41,1648.65" fill="#f4f4f4" stroke="#f4f4f4" stroke-width="0.5" stroke-linecap="round" stroke-linejoin="round"/>
  <polygon points="1670.04,1538.64 1517.75,1618.84 1517.47,1731.14 1667.44,1648.65" fill="#f4f4f4" stroke="#f4f4f4" stroke-width="0.5" stroke-linecap="round" stroke-linejoin="round"/>
  <polygon points="1607.06,1528.15 1594.59,1529.41 1594.25,1555.22 1606.68,1553.95" fill="#f4f4f4" stroke="#f4f4f4" stroke-width="0.5" stroke-linecap="round" stroke-linejoin="round"/>
  <polygon points="1594.59,1529.41 1582.02,1528.15 1581.72,1553.95 1594.25,1555.22" fill="#f4f4f4" stroke="#f4f4f4" stroke-width="0.5" stroke-linecap="round" stroke-linejoin="round"/>
  <polygon points="1440.14,1529.41 1427.65,1528.15 1427.91,1553.95 1440.36,1555.22" fill="#f4f4f4" stroke="#f4f4f4" stroke-width="0.5" stroke-linecap="round" stroke-linejoin="round"/>
  <polygon points="1452.70,1528.15 1440.14,1529.41 1440.36,1555.22 1452.87,1553.95" fill="#f4f4f4" stroke="#f4f4f4" stroke-width="0.5" stroke-linecap="round" stroke-linejoin="round"/>
  <polygon points="1517.37,1565.39 1517.44,1539.51 1508.00,1540.47 1507.97,1566.35" fill="#f4f4f4" stroke="#f4f4f4" stroke-width="0.5" stroke-linecap="round" stroke-linejoin="round"/>
  <polygon points="1526.79,1566.35 1526.89,1540.47 1517.44,1539.51 1517.37,1565.39" fill="#f4f4f4" stroke="#f4f4f4" stroke-width="0.5" stroke-linecap="round" stroke-linejoin="round"/>
  <polygon points="1507.97,1566.35 1508.00,1540.47 1499.99,1543.20 1499.99,1569.11" fill="#f4f4f4" stroke="#f4f4f4" stroke-width="0.5" stroke-linecap="round" stroke-linejoin="round"/>
  <polygon points="1534.81,1569.11 1534.94,1543.20 1526.89,1540.47 1526.79,1566.35" fill="#f4f4f4" stroke="#f4f4f4" stroke-width="0.5" stroke-linecap="round" stroke-linejoin="round"/>
  <polygon points="1499.99,1569.11 1499.99,1543.20 1494.62,1547.28 1494.64,1573.21" fill="#f4f4f4" stroke="#f4f4f4" stroke-width="0.5" stroke-linecap="round" stroke-linejoin="round"/>
  <polygon points="1540.22,1573.21 1540.36,1547.28 1534.94,1543.20 1534.81,1569.11" fill="#f4f4f4" stroke="#f4f4f4" stroke-width="0.5" stroke-linecap="round" stroke-linejoin="round"/>
  <polygon points="1542.18,1578.09 1542.33,1552.12 1540.36,1547.28 1540.22,1573.21" fill="#f4f4f4" stroke="#f4f4f4" stroke-width="0.5" stroke-linecap="round" stroke-linejoin="round"/>
  <polygon points="1494.64,1573.21 1494.62,1547.28 1492.72,1552.12 1492.75,1578.09" fill="#f4f4f4" stroke="#f4f4f4" stroke-width="0.5" stroke-linecap="round" stroke-linejoin="round"/>
  <polygon points="1517.65,1569.13 1530.37,1567.83 1541.11,1564.13 1548.21,1558.60 1550.59,1552.12 1547.96,1545.68 1540.71,1540.24 1530.00,1536.62 1517.41,1535.34 1504.85,1536.61 1494.17,1540.24 1487.01,1545.68 1499.99,1543.20 1508.00,1540.47 1517.44,1539.51 1526.89,1540.47 1534.94,1543.20 1540.36,1547.28 1542.33,1552.12 1540.52,1556.98 1535.19,1561.12 1527.15,1563.88 1517.62,1564.86 1508.08,1563.88" fill="#f4f4f4" stroke="#f4f4f4" stroke-width="0.5" stroke-linecap="round" stroke-linejoin="round"/>
  <polygon points="1550.59,1552.12 1548.21,1558.60 1548.03,1584.61 1550.41,1578.09" fill="#f4f4f4" stroke="#f4f4f4" stroke-width="0.5" stroke-linecap="round" stroke-linejoin="round"/>
  <polygon points="1486.96,1558.61 1484.46,1552.12 1484.52,1578.09 1487.01,1584.62" fill="#f4f4f4" stroke="#f4f4f4" stroke-width="0.5" stroke-linecap="round" stroke-linejoin="round"/>
  <polygon points="1484.46,1552.12 1486.96,1558.61 1494.12,1564.13 1504.91,1567.83 1517.65,1569.13 1508.08,1563.88 1499.99,1561.12 1494.60,1556.98 1492.72,1552.12 1494.62,1547.28 1499.99,1543.20 1487.01,1545.68" fill="#f4f4f4" stroke="#f4f4f4" stroke-width="0.5" stroke-linecap="round" stroke-linejoin="round"/>
  <polygon points="1548.21,1558.60 1541.11,1564.13 1540.96,1590.18 1548.03,1584.61" fill="#f4f4f4" stroke="#f4f4f4" stroke-width="0.5" stroke-linecap="round" stroke-linejoin="round"/>
  <polygon points="1494.12,1564.13 1486.96,1558.61 1487.01,1584.62 1494.14,1590.18" fill="#f4f4f4" stroke="#f4f4f4" stroke-width="0.5" stroke-linecap="round" stroke-linejoin="round"/>
  <polygon points="1541.11,1564.13 1530.37,1567.83 1530.26,1593.90 1540.96,1590.18" fill="#f4f4f4" stroke="#f4f4f4" stroke-width="0.5" stroke-linecap="round" stroke-linejoin="round"/>
  <polygon points="1504.91,1567.83 1494.12,1564.13 1494.14,1590.18 1504.89,1593.90" fill="#f4f4f4" stroke="#f4f4f4" stroke-width="0.5" stroke-linecap="round" stroke-linejoin="round"/>
  <polygon points="1517.65,1569.13 1504.91,1567.83 1504.89,1593.90 1517.58,1595.21" fill="#f4f4f4" stroke="#f4f4f4" stroke-width="0.5" stroke-linecap="round" stroke-linejoin="round"/>
  <polygon points="1530.37,1567.83 1517.65,1569.13 1517.58,1595.21 1530.26,1593.90" fill="#f4f4f4" stroke="#f4f4f4" stroke-width="0.5" stroke-linecap="round" stroke-linejoin="round"/>
  <path d="M 1209.36 1584.58 L 1350.29 1662.22 L 1371.32 1651.33 L 1350.29 1662.22 L 1347.97 1552.80 L 1364.45 1544.64 L 1347.97 1552.80 L 1204.99 1477.35 L 1246.81 1457.84 L 1204.99 1477.35 L 1209.36 1584.58 L 1350.29 1662.22 L 1347.97 1552.80 L 1204.99 1477.35 L 1209.36 1584.58" stroke="black" stroke-width="4" fill="none" stroke-linecap="round" stroke-linejoin="round"/>
  <path d="M 1486.72 1470.64 L 1457.66 1456.24 L 1486.72 1470.64" stroke="black" stroke-width="4" fill="none" stroke-linecap="round" stroke-linejoin="round"/>
  <path d="M 1420.14 1437.66 L 1385.38 1420.45 L 1420.14 1437.66" stroke="black" stroke-width="4" fill="none" stroke-linecap="round" stroke-linejoin="round"/>
  <path d="M 1323.55 1422.02 L 1289.35 1437.99 L 1323.55 1422.02" stroke="black" stroke-width="4" fill="none" stroke-linecap="round" stroke-linejoin="round"/>
  <path d="M 1355.07 1405.43 L 1363.86 1406.27" stroke="black" stroke-width="4" fill="none" stroke-linecap="round" stroke-linejoin="round"/>
  <path d="M 1371.22 1408.67 L 1376.05 1412.30" stroke="black" stroke-width="4" fill="none" stroke-linecap="round" stroke-linejoin="round"/>
  <path d="M 1367.02 1402.85 L 1376.82 1406.05 L 1383.27 1410.87 L 1385.32 1416.58 L 1382.68 1422.31" stroke="black" stroke-width="4" fill="none" stroke-linecap="round" stroke-linejoin="round"/>
  <path d="M 1355.30 1401.74 L 1343.46 1402.86" stroke="black" stroke-width="4" fill="none" stroke-linecap="round" stroke-linejoin="round"/>
  <path d="M 1346.17 1406.27 L 1338.50 1408.67" stroke="black" stroke-width="4" fill="none" stroke-linecap="round" stroke-linejoin="round"/>
  <path d="M 1333.24 1406.05 L 1326.22 1410.87 L 1323.42 1416.58 L 1325.34 1422.31 L 1331.72 1427.18 L 1341.59 1430.47 L 1353.43 1431.62 L 1365.42 1430.46 L 1375.69 1427.18 L 1382.68 1422.31 L 1385.32 1416.58 L 1383.27 1410.87 L 1376.82 1406.05 L 1367.02 1402.85 L 1355.30 1401.74 L 1343.46 1402.86 L 1333.24 1406.05 L 1326.22 1410.87 L 1323.42 1416.58 L 1324.02 1441.35 L 1325.93 1447.12 L 1332.29 1452.03 L 1342.13 1455.34 L 1353.93 1456.50 L 1365.88 1455.33 L 1376.11 1452.03 L 1383.08 1447.12 L 1385.71 1441.35 L 1385.32 1416.58" stroke="black" stroke-width="4" fill="none" stroke-linecap="round" stroke-linejoin="round"/>
  <path d="M 1331.17 1416.57 L 1332.61 1420.87" stroke="black" stroke-width="4" fill="none" stroke-linecap="round" stroke-linejoin="round"/>
  <path d="M 1325.34 1422.31 L 1331.72 1427.18 L 1341.59 1430.47 L 1353.43 1431.62 L 1365.42 1430.46 L 1375.69 1427.18" stroke="black" stroke-width="4" fill="none" stroke-linecap="round" stroke-linejoin="round"/>
  <path d="M 1337.40 1424.52 L 1344.79 1426.98" stroke="black" stroke-width="4" fill="none" stroke-linecap="round" stroke-linejoin="round"/>
  <path d="M 1353.68 1427.83 L 1362.64 1426.98" stroke="black" stroke-width="4" fill="none" stroke-linecap="round" stroke-linejoin="round"/>
  <path d="M 1370.34 1424.52 L 1375.59 1420.87 L 1377.59 1416.58 L 1376.05 1412.30 L 1371.22 1408.67 L 1363.86 1406.27 L 1355.07 1405.43 L 1346.17 1406.27 L 1338.50 1408.67 L 1333.23 1412.30 L 1331.17 1416.57 L 1332.61 1420.87 L 1337.40 1424.52 L 1344.79 1426.98 L 1353.68 1427.83 L 1362.64 1426.98 L 1370.34 1424.52 L 1375.59 1420.87" stroke="black" stroke-width="4" fill="none" stroke-linecap="round" stroke-linejoin="round"/>
  <path d="M 1426.57 1440.84 L 1435.52 1441.71" stroke="black" stroke-width="4" fill="none" stroke-linecap="round" stroke-linejoin="round"/>
  <path d="M 1438.62 1438.18 L 1448.67 1441.48 L 1455.38 1446.45 L 1457.64 1452.33 L 1455.13 1458.24" stroke="black" stroke-width="4" fill="none" stroke-linecap="round" stroke-linejoin="round"/>
  <path d="M 1426.69 1437.03 L 1414.70 1438.19" stroke="black" stroke-width="4" fill="none" stroke-linecap="round" stroke-linejoin="round"/>
  <path d="M 1417.56 1441.71 L 1409.85 1444.19" stroke="black" stroke-width="4" fill="none" stroke-linecap="round" stroke-linejoin="round"/>
  <path d="M 1404.42 1441.48 L 1397.44 1446.45 L 1394.78 1452.33 L 1396.91 1458.24 L 1403.54 1463.27 L 1413.67 1466.65 L 1425.72 1467.84 L 1437.87 1466.64 L 1448.19 1463.27 L 1455.13 1458.24 L 1457.64 1452.33 L 1455.38 1446.45 L 1448.67 1441.48 L 1438.62 1438.18 L 1426.69 1437.03 L 1414.70 1438.19 L 1404.42 1441.48 L 1397.44 1446.45 L 1394.78 1452.33 L 1395.14 1477.36 L 1397.27 1483.31 L 1403.87 1488.37 L 1413.97 1491.78 L 1425.98 1492.98 L 1438.09 1491.77 L 1448.37 1488.37 L 1455.29 1483.31 L 1457.78 1477.36 L 1457.64 1452.33" stroke="black" stroke-width="4" fill="none" stroke-linecap="round" stroke-linejoin="round"/>
  <path d="M 1402.65 1452.33 L 1404.25 1456.76" stroke="black" stroke-width="4" fill="none" stroke-linecap="round" stroke-linejoin="round"/>
  <path d="M 1396.91 1458.24 L 1403.54 1463.27 L 1413.67 1466.65 L 1425.72 1467.84 L 1437.87 1466.64 L 1448.19 1463.27" stroke="black" stroke-width="4" fill="none" stroke-linecap="round" stroke-linejoin="round"/>
  <path d="M 1416.81 1463.06 L 1425.86 1463.94" stroke="black" stroke-width="4" fill="none" stroke-linecap="round" stroke-linejoin="round"/>
  <path d="M 1442.68 1460.52 L 1447.89 1456.76 L 1449.78 1452.33 L 1448.08 1447.92 L 1443.07 1444.19 L 1435.52 1441.71 L 1426.57 1440.84 L 1417.56 1441.71 L 1409.85 1444.19 L 1404.61 1447.92 L 1402.65 1452.33 L 1404.25 1456.76 L 1409.22 1460.52 L 1416.81 1463.06 L 1425.86 1463.94 L 1434.93 1463.06 L 1442.68 1460.52 L 1447.89 1456.76" stroke="black" stroke-width="4" fill="none" stroke-linecap="round" stroke-linejoin="round"/>
  <path d="M 1449.78 1452.33 L 1448.08 1447.92" stroke="black" stroke-width="4" fill="none" stroke-linecap="round" stroke-linejoin="round"/>
  <path d="M 1279.13 1440.84 L 1288.02 1441.71" stroke="black" stroke-width="4" fill="none" stroke-linecap="round" stroke-linejoin="round"/>
  <path d="M 1267.43 1438.19 L 1279.49 1437.03 L 1291.34 1438.18 L 1301.19 1441.48" stroke="black" stroke-width="4" fill="none" stroke-linecap="round" stroke-linejoin="round"/>
  <path d="M 1256.95 1441.48 L 1249.65 1446.45 L 1246.62 1452.33 L 1248.38 1458.24 L 1254.69 1463.27 L 1264.61 1466.65 L 1276.59 1467.84 L 1288.81 1466.64 L 1299.34 1463.27 L 1306.60 1458.24 L 1309.47 1452.33 L 1307.59 1446.45 L 1301.19 1441.48 L 1291.34 1438.18 L 1279.49 1437.03 L 1267.43 1438.19 L 1256.95 1441.48 L 1249.65 1446.45 L 1246.62 1452.33 L 1247.49 1477.36 L 1249.25 1483.31 L 1255.54 1488.37 L 1265.42 1491.78 L 1277.36 1492.98 L 1289.54 1491.77 L 1300.04 1488.37 L 1307.27 1483.31 L 1310.13 1477.36 L 1309.47 1452.33" stroke="black" stroke-width="4" fill="none" stroke-linecap="round" stroke-linejoin="round"/>
  <path d="M 1254.49 1452.33 L 1255.81 1456.76" stroke="black" stroke-width="4" fill="none" stroke-linecap="round" stroke-linejoin="round"/>
  <path d="M 1248.38 1458.24 L 1254.69 1463.27 L 1264.61 1466.65 L 1276.59 1467.84 L 1288.81 1466.64 L 1299.34 1463.27" stroke="black" stroke-width="4" fill="none" stroke-linecap="round" stroke-linejoin="round"/>
  <path d="M 1260.55 1460.52 L 1267.98 1463.06" stroke="black" stroke-width="4" fill="none" stroke-linecap="round" stroke-linejoin="round"/>
  <path d="M 1276.97 1463.94 L 1286.10 1463.06" stroke="black" stroke-width="4" fill="none" stroke-linecap="round" stroke-linejoin="round"/>
  <path d="M 1299.45 1456.76 L 1301.62 1452.33 L 1300.20 1447.92 L 1295.42 1444.19 L 1288.02 1441.71 L 1279.13 1440.84 L 1270.07 1441.71 L 1262.20 1444.19 L 1256.72 1447.92 L 1254.49 1452.33 L 1255.81 1456.76 L 1260.55 1460.52 L 1267.98 1463.06 L 1276.97 1463.94 L 1286.10 1463.06 L 1294.00 1460.52 L 1299.45 1456.76" stroke="black" stroke-width="4" fill="none" stroke-linecap="round" stroke-linejoin="round"/>
  <path d="M 1350.56 1477.35 L 1359.62 1478.25" stroke="black" stroke-width="4" fill="none" stroke-linecap="round" stroke-linejoin="round"/>
  <path d="M 1338.60 1474.62 L 1350.80 1473.43 L 1362.88 1474.61 L 1372.98 1478.02 L 1379.63 1483.14" stroke="black" stroke-width="4" fill="none" stroke-linecap="round" stroke-linejoin="round"/>
  <path d="M 1328.05 1478.02 L 1320.79 1483.14 L 1317.89 1489.21 L 1319.86 1495.30 L 1326.43 1500.49 L 1336.60 1503.98 L 1348.81 1505.20 L 1361.19 1503.97 L 1371.78 1500.49 L 1379.00 1495.30 L 1381.73 1489.21 L 1379.63 1483.14 L 1372.98 1478.02 L 1362.88 1474.61 L 1350.80 1473.43 L 1338.60 1474.62 L 1328.05 1478.02 L 1320.79 1483.14 L 1317.89 1489.21 L 1318.53 1514.50 L 1320.49 1520.63 L 1327.04 1525.86 L 1337.18 1529.37 L 1349.34 1530.61 L 1361.68 1529.36 L 1372.24 1525.86 L 1379.42 1520.63 L 1382.15 1514.50 L 1381.73 1489.21" stroke="black" stroke-width="4" fill="none" stroke-linecap="round" stroke-linejoin="round"/>
  <path d="M 1325.89 1489.20 L 1327.36 1493.78" stroke="black" stroke-width="4" fill="none" stroke-linecap="round" stroke-linejoin="round"/>
  <path d="M 1319.86 1495.30 L 1326.43 1500.49 L 1336.60 1503.98 L 1348.81 1505.20 L 1361.19 1503.97 L 1371.78 1500.49" stroke="black" stroke-width="4" fill="none" stroke-linecap="round" stroke-linejoin="round"/>
  <path d="M 1339.92 1500.27 L 1349.08 1501.18" stroke="black" stroke-width="4" fill="none" stroke-linecap="round" stroke-linejoin="round"/>
  <path d="M 1373.76 1489.21 L 1372.18 1484.66" stroke="black" stroke-width="4" fill="none" stroke-linecap="round" stroke-linejoin="round"/>
  <path d="M 1371.69 1493.78 L 1373.76 1489.21 L 1372.18 1484.66 L 1367.21 1480.80 L 1359.62 1478.25 L 1350.56 1477.35 L 1341.38 1478.25 L 1333.47 1480.80 L 1328.02 1484.66 L 1325.89 1489.20 L 1327.36 1493.78 L 1332.30 1497.66 L 1339.92 1500.27 L 1349.08 1501.18 L 1358.32 1500.27 L 1366.27 1497.66 L 1371.69 1493.78" stroke="black" stroke-width="4" fill="none" stroke-linecap="round" stroke-linejoin="round"/>
  <path d="M 1366.41 1648.65 L 1517.47 1731.14 L 1667.44 1648.65 L 1670.04 1538.64 L 1517.75 1618.84 L 1517.47 1731.14 L 1667.44 1648.65 L 1670.04 1538.64 L 1626.41 1517.23 L 1670.04 1538.64 L 1517.75 1618.84 L 1364.33 1538.64 L 1408.06 1517.04 L 1364.33 1538.64 L 1366.41 1648.65 L 1517.47 1731.14 L 1517.75 1618.84 L 1364.33 1538.64 L 1366.41 1648.65" stroke="black" stroke-width="4" fill="none" stroke-linecap="round" stroke-linejoin="round"/>
  <path d="M 1586.03 1497.42 L 1548.98 1479.24 L 1586.03 1497.42" stroke="black" stroke-width="4" fill="none" stroke-linecap="round" stroke-linejoin="round"/>
  <path d="M 1484.96 1479.04 L 1447.84 1497.38 L 1484.96 1479.04" stroke="black" stroke-width="4" fill="none" stroke-linecap="round" stroke-linejoin="round"/>
  <path d="M 1487.41 1468.94 L 1494.35 1463.84 L 1504.70 1460.43 L 1516.87 1459.24 L 1529.07 1460.44 L 1539.44 1463.84" stroke="black" stroke-width="4" fill="none" stroke-linecap="round" stroke-linejoin="round"/>
  <path d="M 1494.79 1470.45 L 1492.95 1474.99 L 1494.77 1479.54" stroke="black" stroke-width="4" fill="none" stroke-linecap="round" stroke-linejoin="round"/>
  <path d="M 1504.76 1489.72 L 1517.09 1490.94" stroke="black" stroke-width="4" fill="none" stroke-linecap="round" stroke-linejoin="round"/>
  <path d="M 1517.06 1486.93 L 1526.29 1486.02" stroke="black" stroke-width="4" fill="none" stroke-linecap="round" stroke-linejoin="round"/>
  <path d="M 1529.41 1489.72 L 1539.81 1486.25" stroke="black" stroke-width="4" fill="none" stroke-linecap="round" stroke-linejoin="round"/>
  <path d="M 1546.69 1481.06 L 1549.01 1474.99 L 1546.45 1468.94" stroke="black" stroke-width="4" fill="none" stroke-linecap="round" stroke-linejoin="round"/>
  <path d="M 1541.00 1474.99 L 1539.10 1470.45" stroke="black" stroke-width="4" fill="none" stroke-linecap="round" stroke-linejoin="round"/>
  <path d="M 1539.25 1479.54 L 1541.00 1474.99 L 1539.10 1470.45 L 1533.85 1466.62 L 1526.05 1464.05 L 1516.89 1463.16 L 1507.75 1464.05 L 1499.99 1466.62 L 1494.79 1470.45 L 1492.95 1474.99 L 1494.77 1479.54 L 1499.99 1483.43 L 1507.82 1486.02 L 1517.06 1486.93 L 1526.29 1486.02 L 1534.08 1483.43 L 1539.25 1479.54" stroke="black" stroke-width="4" fill="none" stroke-linecap="round" stroke-linejoin="round"/>
  <path d="M 1484.95 1474.99 L 1487.37 1481.07 L 1494.30 1486.25 L 1504.76 1489.72 L 1517.09 1490.94 L 1529.41 1489.72 L 1539.81 1486.25 L 1546.69 1481.06 L 1549.01 1474.99 L 1546.45 1468.94 L 1539.44 1463.84 L 1529.07 1460.44 L 1516.87 1459.24 L 1504.70 1460.43 L 1494.35 1463.84 L 1487.41 1468.94 L 1484.95 1474.99 L 1485.00 1500.41 L 1487.41 1506.54 L 1494.32 1511.76 L 1504.74 1515.25 L 1517.03 1516.48 L 1529.30 1515.25 L 1539.67 1511.76 L 1546.53 1506.53 L 1548.83 1500.41 L 1549.01 1474.99" stroke="black" stroke-width="4" fill="none" stroke-linecap="round" stroke-linejoin="round"/>
  <path d="M 1581.00 1497.92 L 1593.32 1496.69 L 1605.75 1497.93 L 1616.40 1501.43" stroke="black" stroke-width="4" fill="none" stroke-linecap="round" stroke-linejoin="round"/>
  <path d="M 1570.60 1501.43 L 1563.72 1506.70" stroke="black" stroke-width="4" fill="none" stroke-linecap="round" stroke-linejoin="round"/>
  <path d="M 1571.26 1508.25 L 1569.54 1512.94 L 1571.54 1517.64" stroke="black" stroke-width="4" fill="none" stroke-linecap="round" stroke-linejoin="round"/>
  <path d="M 1582.02 1528.15 L 1594.59 1529.41" stroke="black" stroke-width="4" fill="none" stroke-linecap="round" stroke-linejoin="round"/>
  <path d="M 1594.43 1525.27 L 1603.77 1524.33" stroke="black" stroke-width="4" fill="none" stroke-linecap="round" stroke-linejoin="round"/>
  <path d="M 1607.06 1528.15 L 1617.52 1524.57" stroke="black" stroke-width="4" fill="none" stroke-linecap="round" stroke-linejoin="round"/>
  <path d="M 1624.34 1519.21 L 1626.49 1512.94 L 1623.70 1506.70" stroke="black" stroke-width="4" fill="none" stroke-linecap="round" stroke-linejoin="round"/>
  <path d="M 1618.36 1512.94 L 1616.27 1508.25" stroke="black" stroke-width="4" fill="none" stroke-linecap="round" stroke-linejoin="round"/>
  <path d="M 1616.73 1517.64 L 1618.36 1512.94 L 1616.27 1508.25 L 1610.81 1504.30 L 1602.81 1501.65 L 1593.47 1500.73 L 1584.22 1501.65 L 1576.42 1504.30 L 1571.26 1508.25 L 1569.54 1512.94 L 1571.54 1517.64 L 1576.97 1521.65 L 1585.01 1524.33 L 1594.43 1525.27 L 1603.77 1524.33 L 1611.61 1521.65 L 1616.73 1517.64" stroke="black" stroke-width="4" fill="none" stroke-linecap="round" stroke-linejoin="round"/>
  <path d="M 1561.41 1512.94 L 1564.07 1519.22 L 1571.28 1524.57 L 1582.02 1528.15 L 1594.59 1529.41 L 1607.06 1528.15 L 1617.52 1524.57 L 1624.34 1519.21 L 1626.49 1512.94 L 1623.70 1506.70 L 1616.40 1501.43 L 1605.75 1497.93 L 1593.32 1496.69 L 1581.00 1497.92 L 1570.60 1501.43 L 1563.72 1506.70 L 1561.41 1512.94 L 1561.19 1538.63 L 1563.84 1544.96 L 1571.02 1550.35 L 1581.72 1553.95 L 1594.25 1555.22 L 1606.68 1553.95 L 1617.10 1550.35 L 1623.89 1544.95 L 1626.04 1538.63 L 1626.49 1512.94" stroke="black" stroke-width="4" fill="none" stroke-linecap="round" stroke-linejoin="round"/>
  <path d="M 1440.85 1500.73 L 1450.12 1501.65 L 1457.96 1504.30" stroke="black" stroke-width="4" fill="none" stroke-linecap="round" stroke-linejoin="round"/>
  <path d="M 1463.73 1501.43 L 1470.69 1506.70 L 1473.09 1512.94 L 1473.18 1538.63 L 1470.64 1544.95 L 1463.51 1550.35 L 1452.87 1553.95 L 1440.36 1555.22 L 1427.91 1553.95 L 1417.44 1550.35 L 1410.59 1544.96 L 1408.34 1538.63 L 1408.01 1512.94 L 1410.71 1506.70 L 1417.93 1501.43 L 1428.55 1497.92 L 1440.95 1496.69 L 1453.30 1497.93" stroke="black" stroke-width="4" fill="none" stroke-linecap="round" stroke-linejoin="round"/>
  <path d="M 1431.53 1501.65 L 1423.56 1504.30" stroke="black" stroke-width="4" fill="none" stroke-linecap="round" stroke-linejoin="round"/>
  <path d="M 1417.93 1501.43 L 1410.71 1506.70" stroke="black" stroke-width="4" fill="none" stroke-linecap="round" stroke-linejoin="round"/>
  <path d="M 1418.16 1508.25 L 1416.14 1512.94 L 1417.84 1517.64" stroke="black" stroke-width="4" fill="none" stroke-linecap="round" stroke-linejoin="round"/>
  <path d="M 1427.65 1528.15 L 1440.14 1529.41" stroke="black" stroke-width="4" fill="none" stroke-linecap="round" stroke-linejoin="round"/>
  <path d="M 1440.24 1525.27 L 1449.65 1524.33" stroke="black" stroke-width="4" fill="none" stroke-linecap="round" stroke-linejoin="round"/>
  <path d="M 1452.70 1528.15 L 1463.38 1524.57 L 1470.54 1519.21" stroke="black" stroke-width="4" fill="none" stroke-linecap="round" stroke-linejoin="round"/>
  <path d="M 1457.65 1521.65 L 1463.03 1517.64 L 1464.96 1512.94 L 1463.17 1508.25 L 1457.96 1504.30 L 1450.12 1501.65 L 1440.85 1500.73 L 1431.53 1501.65 L 1423.56 1504.30 L 1418.16 1508.25 L 1416.14 1512.94 L 1417.84 1517.64 L 1423.01 1521.65 L 1430.89 1524.33 L 1440.24 1525.27 L 1449.65 1524.33 L 1457.65 1521.65 L 1463.03 1517.64" stroke="black" stroke-width="4" fill="none" stroke-linecap="round" stroke-linejoin="round"/>
  <path d="M 1408.01 1512.94 L 1410.27 1519.22 L 1417.14 1524.57 L 1427.65 1528.15 L 1440.14 1529.41 L 1452.70 1528.15 L 1463.38 1524.57 L 1470.54 1519.21 L 1473.09 1512.94 L 1470.69 1506.70" stroke="black" stroke-width="4" fill="none" stroke-linecap="round" stroke-linejoin="round"/>
  <path d="M 1517.44 1539.51 L 1526.89 1540.47 L 1534.94 1543.20" stroke="black" stroke-width="4" fill="none" stroke-linecap="round" stroke-linejoin="round"/>
  <path d="M 1540.71 1540.24 L 1547.96 1545.68 L 1550.59 1552.12 L 1550.41 1578.09 L 1548.03 1584.61 L 1540.96 1590.18 L 1530.26 1593.90 L 1517.58 1595.21 L 1504.89 1593.90 L 1494.14 1590.18 L 1487.01 1584.62 L 1484.52 1578.09 L 1484.46 1552.12 L 1487.01 1545.68 L 1494.17 1540.24 L 1504.85 1536.61 L 1517.41 1535.34 L 1530.00 1536.62" stroke="black" stroke-width="4" fill="none" stroke-linecap="round" stroke-linejoin="round"/>
  <path d="M 1508.00 1540.47 L 1499.99 1543.20" stroke="black" stroke-width="4" fill="none" stroke-linecap="round" stroke-linejoin="round"/>
  <path d="M 1504.85 1536.61 L 1494.17 1540.24 L 1487.01 1545.68" stroke="black" stroke-width="4" fill="none" stroke-linecap="round" stroke-linejoin="round"/>
  <path d="M 1494.62 1547.28 L 1492.72 1552.12 L 1494.60 1556.98" stroke="black" stroke-width="4" fill="none" stroke-linecap="round" stroke-linejoin="round"/>
  <path d="M 1504.91 1567.83 L 1517.65 1569.13" stroke="black" stroke-width="4" fill="none" stroke-linecap="round" stroke-linejoin="round"/>
  <path d="M 1517.62 1564.86 L 1527.15 1563.88" stroke="black" stroke-width="4" fill="none" stroke-linecap="round" stroke-linejoin="round"/>
  <path d="M 1530.37 1567.83 L 1541.11 1564.13 L 1548.21 1558.60" stroke="black" stroke-width="4" fill="none" stroke-linecap="round" stroke-linejoin="round"/>
  <path d="M 1535.19 1561.12 L 1540.52 1556.98 L 1542.33 1552.12 L 1540.36 1547.28 L 1534.94 1543.20 L 1526.89 1540.47 L 1517.44 1539.51 L 1508.00 1540.47 L 1499.99 1543.20 L 1494.62 1547.28 L 1492.72 1552.12 L 1494.60 1556.98 L 1499.99 1561.12 L 1508.08 1563.88 L 1517.62 1564.86 L 1527.15 1563.88 L 1535.19 1561.12 L 1540.52 1556.98" stroke="black" stroke-width="4" fill="none" stroke-linecap="round" stroke-linejoin="round"/>
  <path d="M 1484.46 1552.12 L 1486.96 1558.61 L 1494.12 1564.13 L 1504.91 1567.83 L 1517.65 1569.13 L 1530.37 1567.83 L 1541.11 1564.13 L 1548.21 1558.60 L 1550.59 1552.12 L 1547.96 1545.68" stroke="black" stroke-width="4" fill="none" stroke-linecap="round" stroke-linejoin="round"/>
  <path d="M 1580.75 1494.83 L 1630.00 1469.84 L 1631.89 1364.65 L 1489.01 1433.97 L 1489.06 1467.73 L 1489.01 1433.97 L 1346.78 1364.65 L 1347.57 1402.47 L 1346.78 1364.65 L 1387.52 1346.02 L 1346.78 1364.65 L 1489.01 1433.97 L 1631.89 1364.65 L 1591.06 1345.90 L 1631.89 1364.65 L 1630.00 1469.84 L 1580.75 1494.83" stroke="black" stroke-width="4" fill="none" stroke-linecap="round" stroke-linejoin="round"/>
  <path d="M 1549.93 1327.00 L 1519.32 1312.95 L 1549.93 1327.00" stroke="black" stroke-width="4" fill="none" stroke-linecap="round" stroke-linejoin="round"/>
  <path d="M 1459.58 1313.07 L 1429.04 1327.03 L 1459.58 1313.07" stroke="black" stroke-width="4" fill="none" stroke-linecap="round" stroke-linejoin="round"/>
  <path d="M 1489.49 1296.95 L 1498.03 1297.73 L 1505.29 1299.95" stroke="black" stroke-width="4" fill="none" stroke-linecap="round" stroke-linejoin="round"/>
  <path d="M 1500.87 1294.58 L 1510.55 1297.54" stroke="black" stroke-width="4" fill="none" stroke-linecap="round" stroke-linejoin="round"/>
  <path d="M 1489.50 1293.55 L 1478.13 1294.58" stroke="black" stroke-width="4" fill="none" stroke-linecap="round" stroke-linejoin="round"/>
  <path d="M 1468.46 1297.54 L 1461.91 1301.97" stroke="black" stroke-width="4" fill="none" stroke-linecap="round" stroke-linejoin="round"/>
  <path d="M 1468.78 1303.28 L 1467.01 1307.22 L 1468.67 1311.17" stroke="black" stroke-width="4" fill="none" stroke-linecap="round" stroke-linejoin="round"/>
  <path d="M 1461.72 1312.49 L 1468.18 1316.98 L 1477.88 1319.99 L 1489.37 1321.05" stroke="black" stroke-width="4" fill="none" stroke-linecap="round" stroke-linejoin="round"/>
  <path d="M 1473.51 1314.53 L 1480.78 1316.79 L 1489.39 1317.58 L 1498.01 1316.79 L 1505.33 1314.53" stroke="black" stroke-width="4" fill="none" stroke-linecap="round" stroke-linejoin="round"/>
  <path d="M 1500.88 1319.99 L 1510.64 1316.98" stroke="black" stroke-width="4" fill="none" stroke-linecap="round" stroke-linejoin="round"/>
  <path d="M 1517.10 1312.49 L 1519.33 1307.22 L 1517.02 1301.97" stroke="black" stroke-width="4" fill="none" stroke-linecap="round" stroke-linejoin="round"/>
  <path d="M 1511.86 1307.22 L 1510.14 1303.28" stroke="black" stroke-width="4" fill="none" stroke-linecap="round" stroke-linejoin="round"/>
  <path d="M 1510.17 1311.17 L 1511.86 1307.22 L 1510.14 1303.28 L 1505.29 1299.95 L 1498.03 1297.73 L 1489.49 1296.95 L 1480.94 1297.73 L 1473.69 1299.95 L 1468.78 1303.28 L 1467.01 1307.22 L 1468.67 1311.17 L 1473.51 1314.53 L 1480.78 1316.79 L 1489.39 1317.58 L 1498.01 1316.79 L 1505.33 1314.53 L 1510.17 1311.17" stroke="black" stroke-width="4" fill="none" stroke-linecap="round" stroke-linejoin="round"/>
  <path d="M 1459.54 1307.22 L 1461.72 1312.49 L 1468.18 1316.98 L 1477.88 1319.99 L 1489.37 1321.05 L 1500.88 1319.99 L 1510.64 1316.98 L 1517.10 1312.49 L 1519.33 1307.22 L 1517.02 1301.97 L 1510.55 1297.54 L 1500.87 1294.58 L 1489.50 1293.55 L 1478.13 1294.58 L 1468.46 1297.54 L 1461.91 1301.97 L 1459.54 1307.22 L 1459.68 1331.50 L 1461.85 1336.81 L 1468.28 1341.34 L 1477.95 1344.38 L 1489.41 1345.45 L 1500.87 1344.38 L 1510.61 1341.34 L 1517.05 1336.81 L 1519.27 1331.50 L 1519.33 1307.22" stroke="black" stroke-width="4" fill="none" stroke-linecap="round" stroke-linejoin="round"/>
  <path d="M 1560.51 1329.53 L 1569.20 1330.34 L 1576.65 1332.62" stroke="black" stroke-width="4" fill="none" stroke-linecap="round" stroke-linejoin="round"/>
  <path d="M 1548.91 1327.10 L 1560.41 1326.03 L 1571.98 1327.10 L 1581.90 1330.14" stroke="black" stroke-width="4" fill="none" stroke-linecap="round" stroke-linejoin="round"/>
  <path d="M 1539.18 1330.14 L 1532.68 1334.70" stroke="black" stroke-width="4" fill="none" stroke-linecap="round" stroke-linejoin="round"/>
  <path d="M 1539.70 1336.05 L 1538.04 1340.11 L 1539.84 1344.18 L 1544.87 1347.64" stroke="black" stroke-width="4" fill="none" stroke-linecap="round" stroke-linejoin="round"/>
  <path d="M 1591.14 1340.11 L 1590.83 1364.65 L 1588.75 1370.12 L 1582.36 1374.78 L 1572.58 1377.91 L 1560.98 1379.00 L 1549.32 1377.91 L 1539.40 1374.78 L 1532.73 1370.12 L 1530.35 1364.65 L 1530.46 1340.11 L 1532.68 1334.70 L 1539.18 1330.14 L 1548.91 1327.10 L 1560.41 1326.03 L 1571.98 1327.10 L 1581.90 1330.14 L 1588.62 1334.70 L 1591.14 1340.11 L 1589.04 1345.54 L 1582.64 1350.17 L 1572.82 1353.27 L 1561.18 1354.36 L 1549.48 1353.27 L 1539.54 1350.17 L 1532.84 1345.54 L 1530.46 1340.11 L 1532.84 1345.54 L 1539.54 1350.17" stroke="black" stroke-width="4" fill="none" stroke-linecap="round" stroke-linejoin="round"/>
  <path d="M 1552.32 1349.96 L 1561.08 1350.78 L 1569.81 1349.96 L 1577.16 1347.64" stroke="black" stroke-width="4" fill="none" stroke-linecap="round" stroke-linejoin="round"/>
  <path d="M 1549.48 1353.27 L 1561.18 1354.36" stroke="black" stroke-width="4" fill="none" stroke-linecap="round" stroke-linejoin="round"/>
  <path d="M 1572.82 1353.27 L 1582.64 1350.17" stroke="black" stroke-width="4" fill="none" stroke-linecap="round" stroke-linejoin="round"/>
  <path d="M 1589.04 1345.54 L 1591.14 1340.11 L 1588.62 1334.70" stroke="black" stroke-width="4" fill="none" stroke-linecap="round" stroke-linejoin="round"/>
  <path d="M 1583.56 1340.11 L 1581.67 1336.05" stroke="black" stroke-width="4" fill="none" stroke-linecap="round" stroke-linejoin="round"/>
  <path d="M 1581.97 1344.18 L 1583.56 1340.11 L 1581.67 1336.05 L 1576.65 1332.62 L 1569.20 1330.34 L 1560.51 1329.53 L 1551.86 1330.34 L 1544.57 1332.62 L 1539.70 1336.05 L 1538.04 1340.11 L 1539.84 1344.18 L 1544.87 1347.64 L 1552.32 1349.96 L 1561.08 1350.78 L 1569.81 1349.96 L 1577.16 1347.64 L 1581.97 1344.18" stroke="black" stroke-width="4" fill="none" stroke-linecap="round" stroke-linejoin="round"/>
  <path d="M 1418.15 1329.53 L 1426.79 1330.34 L 1434.10 1332.62" stroke="black" stroke-width="4" fill="none" stroke-linecap="round" stroke-linejoin="round"/>
  <path d="M 1429.78 1327.10 L 1439.51 1330.14" stroke="black" stroke-width="4" fill="none" stroke-linecap="round" stroke-linejoin="round"/>
  <path d="M 1418.28 1326.03 L 1406.71 1327.10" stroke="black" stroke-width="4" fill="none" stroke-linecap="round" stroke-linejoin="round"/>
  <path d="M 1396.79 1330.14 L 1390.00 1334.70" stroke="black" stroke-width="4" fill="none" stroke-linecap="round" stroke-linejoin="round"/>
  <path d="M 1396.93 1336.05 L 1395.01 1340.11 L 1396.56 1344.18 L 1401.37 1347.64 L 1408.66 1349.96 L 1417.38 1350.78 L 1426.15 1349.96 L 1433.65 1347.64" stroke="black" stroke-width="4" fill="none" stroke-linecap="round" stroke-linejoin="round"/>
  <path d="M 1405.61 1353.27 L 1417.25 1354.36" stroke="black" stroke-width="4" fill="none" stroke-linecap="round" stroke-linejoin="round"/>
  <path d="M 1428.96 1353.27 L 1438.97 1350.17" stroke="black" stroke-width="4" fill="none" stroke-linecap="round" stroke-linejoin="round"/>
  <path d="M 1445.67 1345.54 L 1448.11 1340.11 L 1445.93 1334.70" stroke="black" stroke-width="4" fill="none" stroke-linecap="round" stroke-linejoin="round"/>
  <path d="M 1440.53 1340.11 L 1438.90 1336.05" stroke="black" stroke-width="4" fill="none" stroke-linecap="round" stroke-linejoin="round"/>
  <path d="M 1438.68 1344.18 L 1440.53 1340.11 L 1438.90 1336.05 L 1434.10 1332.62 L 1426.79 1330.34 L 1418.15 1329.53 L 1409.46 1330.34 L 1402.02 1332.62 L 1396.93 1336.05 L 1395.01 1340.11 L 1396.56 1344.18 L 1401.37 1347.64 L 1408.66 1349.96 L 1417.38 1350.78 L 1426.15 1349.96 L 1433.65 1347.64 L 1438.68 1344.18" stroke="black" stroke-width="4" fill="none" stroke-linecap="round" stroke-linejoin="round"/>
  <path d="M 1387.43 1340.11 L 1389.47 1345.54 L 1395.87 1350.17 L 1405.61 1353.27 L 1417.25 1354.36 L 1428.96 1353.27 L 1438.97 1350.17 L 1445.67 1345.54 L 1448.11 1340.11 L 1445.93 1334.70 L 1439.51 1330.14 L 1429.78 1327.10 L 1418.28 1326.03 L 1406.71 1327.10 L 1396.79 1330.14 L 1390.00 1334.70 L 1387.43 1340.11 L 1387.80 1364.65 L 1389.84 1370.12 L 1396.22 1374.78 L 1405.93 1377.91 L 1417.52 1379.00 L 1429.19 1377.91 L 1439.17 1374.78 L 1445.85 1370.12 L 1448.28 1364.65 L 1448.11 1340.11" stroke="black" stroke-width="4" fill="none" stroke-linecap="round" stroke-linejoin="round"/>
  <path d="M 1489.17 1363.10 L 1497.97 1363.92 L 1505.45 1366.28" stroke="black" stroke-width="4" fill="none" stroke-linecap="round" stroke-linejoin="round"/>
  <path d="M 1477.48 1360.59 L 1489.19 1359.49 L 1500.89 1360.59 L 1510.87 1363.72" stroke="black" stroke-width="4" fill="none" stroke-linecap="round" stroke-linejoin="round"/>
  <path d="M 1467.51 1363.72 L 1460.76 1368.42" stroke="black" stroke-width="4" fill="none" stroke-linecap="round" stroke-linejoin="round"/>
  <path d="M 1467.84 1369.81 L 1466.02 1373.99 L 1467.72 1378.19" stroke="black" stroke-width="4" fill="none" stroke-linecap="round" stroke-linejoin="round"/>
  <path d="M 1519.92 1373.99 L 1519.85 1398.78 L 1517.56 1404.42 L 1510.93 1409.23 L 1500.90 1412.45 L 1489.09 1413.58 L 1477.28 1412.45 L 1467.32 1409.23 L 1460.70 1404.42 L 1458.46 1398.78 L 1458.32 1373.99 L 1460.76 1368.42 L 1467.51 1363.72 L 1477.48 1360.59 L 1489.19 1359.49 L 1500.89 1360.59 L 1510.87 1363.72 L 1517.53 1368.42 L 1519.92 1373.99 L 1517.62 1379.59 L 1510.97 1384.36 L 1500.90 1387.55 L 1489.05 1388.68 L 1477.21 1387.55 L 1467.21 1384.36 L 1460.57 1379.59 L 1458.32 1373.99 L 1460.57 1379.59" stroke="black" stroke-width="4" fill="none" stroke-linecap="round" stroke-linejoin="round"/>
  <path d="M 1480.19 1384.15 L 1489.07 1384.99 L 1497.95 1384.15 L 1505.49 1381.76" stroke="black" stroke-width="4" fill="none" stroke-linecap="round" stroke-linejoin="round"/>
  <path d="M 1477.21 1387.55 L 1489.05 1388.68" stroke="black" stroke-width="4" fill="none" stroke-linecap="round" stroke-linejoin="round"/>
  <path d="M 1500.90 1387.55 L 1510.97 1384.36" stroke="black" stroke-width="4" fill="none" stroke-linecap="round" stroke-linejoin="round"/>
  <path d="M 1517.62 1379.59 L 1519.92 1373.99 L 1517.53 1368.42" stroke="black" stroke-width="4" fill="none" stroke-linecap="round" stroke-linejoin="round"/>
  <path d="M 1512.22 1373.99 L 1510.44 1369.81" stroke="black" stroke-width="4" fill="none" stroke-linecap="round" stroke-linejoin="round"/>
  <path d="M 1510.48 1378.19 L 1512.22 1373.99 L 1510.44 1369.81 L 1505.45 1366.28 L 1497.97 1363.92 L 1489.17 1363.10 L 1480.37 1363.92 L 1472.90 1366.28 L 1467.84 1369.81 L 1466.02 1373.99 L 1467.72 1378.19 L 1472.71 1381.76 L 1480.19 1384.15 L 1489.07 1384.99 L 1497.95 1384.15 L 1505.49 1381.76 L 1510.48 1378.19" stroke="black" stroke-width="4" fill="none" stroke-linecap="round" stroke-linejoin="round"/>
  <path d="M 1371.32 1651.33 L 1350.29 1662.22 L 1209.36 1584.58 L 1204.99 1477.35 L 1246.81 1457.84" stroke="black" stroke-width="4" fill="none" stroke-linecap="round" stroke-linejoin="round"/>
  <path d="M 1289.35 1437.99 L 1323.55 1422.02" stroke="black" stroke-width="4" fill="none" stroke-linecap="round" stroke-linejoin="round"/>
  <path d="M 1385.38 1420.45 L 1420.14 1437.66" stroke="black" stroke-width="4" fill="none" stroke-linecap="round" stroke-linejoin="round"/>
  <path d="M 1457.66 1456.24 L 1486.72 1470.64" stroke="black" stroke-width="4" fill="none" stroke-linecap="round" stroke-linejoin="round"/>
  <path d="M 1364.45 1544.64 L 1347.97 1552.80 L 1204.99 1477.35" stroke="black" stroke-width="4" fill="none" stroke-linecap="round" stroke-linejoin="round"/>
  <path d="M 1347.97 1552.80 L 1350.29 1662.22" stroke="black" stroke-width="4" fill="none" stroke-linecap="round" stroke-linejoin="round"/>
  <path d="M 1375.59 1420.87 L 1377.59 1416.58 L 1376.05 1412.30 L 1371.22 1408.67 L 1363.86 1406.27 L 1355.07 1405.43 L 1346.17 1406.27 L 1338.50 1408.67 L 1333.23 1412.30 L 1331.17 1416.57 L 1332.61 1420.87 L 1337.40 1424.52 L 1344.79 1426.98 L 1353.68 1427.83 L 1362.64 1426.98 L 1370.34 1424.52 L 1375.59 1420.87" stroke="black" stroke-width="4" fill="none" stroke-linecap="round" stroke-linejoin="round"/>
  <path d="M 1385.71 1441.35 L 1383.08 1447.12 L 1376.11 1452.03 L 1365.88 1455.33 L 1353.93 1456.50" stroke="black" stroke-width="4" fill="none" stroke-linecap="round" stroke-linejoin="round"/>
  <path d="M 1382.68 1422.31 L 1385.32 1416.58 L 1383.27 1410.87 L 1376.82 1406.05 L 1367.02 1402.85 L 1355.30 1401.74 L 1343.46 1402.86 L 1333.24 1406.05 L 1326.22 1410.87 L 1323.42 1416.58 L 1325.34 1422.31 L 1331.72 1427.18 L 1341.59 1430.47 L 1353.43 1431.62 L 1365.42 1430.46 L 1375.69 1427.18 L 1382.68 1422.31" stroke="black" stroke-width="4" fill="none" stroke-linecap="round" stroke-linejoin="round"/>
  <path d="M 1342.13 1455.34 L 1332.29 1452.03 L 1325.93 1447.12 L 1324.02 1441.35" stroke="black" stroke-width="4" fill="none" stroke-linecap="round" stroke-linejoin="round"/>
  <path d="M 1447.89 1456.76 L 1449.78 1452.33 L 1448.08 1447.92 L 1443.07 1444.19 L 1435.52 1441.71 L 1426.57 1440.84 L 1417.56 1441.71 L 1409.85 1444.19 L 1404.61 1447.92 L 1402.65 1452.33 L 1404.25 1456.76 L 1409.22 1460.52 L 1416.81 1463.06 L 1425.86 1463.94 L 1434.93 1463.06 L 1442.68 1460.52 L 1447.89 1456.76" stroke="black" stroke-width="4" fill="none" stroke-linecap="round" stroke-linejoin="round"/>
  <path d="M 1457.78 1477.36 L 1455.29 1483.31 L 1448.37 1488.37 L 1438.09 1491.77 L 1425.98 1492.98 L 1413.97 1491.78 L 1403.87 1488.37 L 1397.27 1483.31 L 1395.14 1477.36" stroke="black" stroke-width="4" fill="none" stroke-linecap="round" stroke-linejoin="round"/>
  <path d="M 1455.13 1458.24 L 1457.64 1452.33 L 1455.38 1446.45 L 1448.67 1441.48 L 1438.62 1438.18 L 1426.69 1437.03 L 1414.70 1438.19 L 1404.42 1441.48 L 1397.44 1446.45 L 1394.78 1452.33 L 1396.91 1458.24 L 1403.54 1463.27 L 1413.67 1466.65 L 1425.72 1467.84 L 1437.87 1466.64 L 1448.19 1463.27 L 1455.13 1458.24" stroke="black" stroke-width="4" fill="none" stroke-linecap="round" stroke-linejoin="round"/>
  <path d="M 1299.45 1456.76 L 1301.62 1452.33 L 1300.20 1447.92 L 1295.42 1444.19 L 1288.02 1441.71 L 1279.13 1440.84 L 1270.07 1441.71 L 1262.20 1444.19 L 1256.72 1447.92 L 1254.49 1452.33 L 1255.81 1456.76 L 1260.55 1460.52 L 1267.98 1463.06 L 1276.97 1463.94 L 1286.10 1463.06 L 1294.00 1460.52 L 1299.45 1456.76" stroke="black" stroke-width="4" fill="none" stroke-linecap="round" stroke-linejoin="round"/>
  <path d="M 1310.13 1477.36 L 1307.27 1483.31 L 1300.04 1488.37 L 1289.54 1491.77 L 1277.36 1492.98 L 1265.42 1491.78 L 1255.54 1488.37 L 1249.25 1483.31 L 1247.49 1477.36" stroke="black" stroke-width="4" fill="none" stroke-linecap="round" stroke-linejoin="round"/>
  <path d="M 1306.60 1458.24 L 1309.47 1452.33 L 1307.59 1446.45 L 1301.19 1441.48 L 1291.34 1438.18 L 1279.49 1437.03 L 1267.43 1438.19 L 1256.95 1441.48 L 1249.65 1446.45 L 1246.62 1452.33 L 1248.38 1458.24 L 1254.69 1463.27 L 1264.61 1466.65 L 1276.59 1467.84 L 1288.81 1466.64 L 1299.34 1463.27 L 1306.60 1458.24" stroke="black" stroke-width="4" fill="none" stroke-linecap="round" stroke-linejoin="round"/>
  <path d="M 1371.69 1493.78 L 1373.76 1489.21 L 1372.18 1484.66 L 1367.21 1480.80 L 1359.62 1478.25 L 1350.56 1477.35 L 1341.38 1478.25 L 1333.47 1480.80 L 1328.02 1484.66 L 1325.89 1489.20 L 1327.36 1493.78 L 1332.30 1497.66 L 1339.92 1500.27 L 1349.08 1501.18 L 1358.32 1500.27 L 1366.27 1497.66 L 1371.69 1493.78" stroke="black" stroke-width="4" fill="none" stroke-linecap="round" stroke-linejoin="round"/>
  <path d="M 1382.15 1514.50 L 1379.42 1520.63 L 1372.24 1525.86 L 1361.68 1529.36 L 1349.34 1530.61" stroke="black" stroke-width="4" fill="none" stroke-linecap="round" stroke-linejoin="round"/>
  <path d="M 1379.00 1495.30 L 1381.73 1489.21 L 1379.63 1483.14 L 1372.98 1478.02 L 1362.88 1474.61 L 1350.80 1473.43 L 1338.60 1474.62 L 1328.05 1478.02 L 1320.79 1483.14 L 1317.89 1489.21 L 1319.86 1495.30 L 1326.43 1500.49 L 1336.60 1503.98 L 1348.81 1505.20 L 1361.19 1503.97 L 1371.78 1500.49 L 1379.00 1495.30" stroke="black" stroke-width="4" fill="none" stroke-linecap="round" stroke-linejoin="round"/>
  <path d="M 1337.18 1529.37 L 1327.04 1525.86 L 1320.49 1520.63 L 1318.53 1514.50" stroke="black" stroke-width="4" fill="none" stroke-linecap="round" stroke-linejoin="round"/>
  <path d="M 1670.04 1538.64 L 1626.41 1517.23" stroke="black" stroke-width="4" fill="none" stroke-linecap="round" stroke-linejoin="round"/>
  <path d="M 1586.03 1497.42 L 1548.98 1479.24" stroke="black" stroke-width="4" fill="none" stroke-linecap="round" stroke-linejoin="round"/>
  <path d="M 1484.96 1479.04 L 1447.84 1497.38" stroke="black" stroke-width="4" fill="none" stroke-linecap="round" stroke-linejoin="round"/>
  <path d="M 1408.06 1517.04 L 1364.33 1538.64 L 1517.75 1618.84 L 1670.04 1538.64 L 1667.44 1648.65 L 1517.47 1731.14 L 1366.41 1648.65 L 1364.33 1538.64" stroke="black" stroke-width="4" fill="none" stroke-linecap="round" stroke-linejoin="round"/>
  <path d="M 1517.75 1618.84 L 1517.47 1731.14" stroke="black" stroke-width="4" fill="none" stroke-linecap="round" stroke-linejoin="round"/>
  <path d="M 1539.25 1479.54 L 1541.00 1474.99 L 1539.10 1470.45 L 1533.85 1466.62 L 1526.05 1464.05 L 1516.89 1463.16 L 1507.75 1464.05 L 1499.99 1466.62 L 1494.79 1470.45 L 1492.95 1474.99 L 1494.77 1479.54 L 1499.99 1483.43 L 1507.82 1486.02 L 1517.06 1486.93 L 1526.29 1486.02 L 1534.08 1483.43 L 1539.25 1479.54" stroke="black" stroke-width="4" fill="none" stroke-linecap="round" stroke-linejoin="round"/>
  <path d="M 1548.83 1500.41 L 1546.53 1506.53 L 1539.67 1511.76 L 1529.30 1515.25 L 1517.03 1516.48" stroke="black" stroke-width="4" fill="none" stroke-linecap="round" stroke-linejoin="round"/>
  <path d="M 1546.69 1481.06 L 1549.01 1474.99 L 1546.45 1468.94 L 1539.44 1463.84 L 1529.07 1460.44 L 1516.87 1459.24 L 1504.70 1460.43 L 1494.35 1463.84 L 1487.41 1468.94 L 1484.95 1474.99 L 1487.37 1481.07 L 1494.30 1486.25 L 1504.76 1489.72 L 1517.09 1490.94 L 1529.41 1489.72 L 1539.81 1486.25 L 1546.69 1481.06" stroke="black" stroke-width="4" fill="none" stroke-linecap="round" stroke-linejoin="round"/>
  <path d="M 1504.74 1515.25 L 1494.32 1511.76 L 1487.41 1506.54 L 1485.00 1500.41" stroke="black" stroke-width="4" fill="none" stroke-linecap="round" stroke-linejoin="round"/>
  <path d="M 1616.73 1517.64 L 1618.36 1512.94 L 1616.27 1508.25 L 1610.81 1504.30 L 1602.81 1501.65 L 1593.47 1500.73 L 1584.22 1501.65 L 1576.42 1504.30 L 1571.26 1508.25 L 1569.54 1512.94 L 1571.54 1517.64 L 1576.97 1521.65 L 1585.01 1524.33 L 1594.43 1525.27 L 1603.77 1524.33 L 1611.61 1521.65 L 1616.73 1517.64" stroke="black" stroke-width="4" fill="none" stroke-linecap="round" stroke-linejoin="round"/>
  <path d="M 1626.04 1538.63 L 1623.89 1544.95 L 1617.10 1550.35 L 1606.68 1553.95 L 1594.25 1555.22 L 1581.72 1553.95 L 1571.02 1550.35 L 1563.84 1544.96 L 1561.19 1538.63" stroke="black" stroke-width="4" fill="none" stroke-linecap="round" stroke-linejoin="round"/>
  <path d="M 1624.34 1519.21 L 1626.49 1512.94 L 1623.70 1506.70 L 1616.40 1501.43 L 1605.75 1497.93 L 1593.32 1496.69 L 1581.00 1497.92 L 1570.60 1501.43 L 1563.72 1506.70 L 1561.41 1512.94 L 1564.07 1519.22 L 1571.28 1524.57 L 1582.02 1528.15 L 1594.59 1529.41 L 1607.06 1528.15 L 1617.52 1524.57 L 1624.34 1519.21" stroke="black" stroke-width="4" fill="none" stroke-linecap="round" stroke-linejoin="round"/>
  <path d="M 1457.96 1504.30 L 1450.12 1501.65 L 1440.85 1500.73 L 1431.53 1501.65 L 1423.56 1504.30 L 1418.16 1508.25 L 1416.14 1512.94 L 1417.84 1517.64 L 1423.01 1521.65 L 1430.89 1524.33 L 1440.24 1525.27 L 1449.65 1524.33 L 1457.65 1521.65 L 1463.03 1517.64 L 1464.96 1512.94 L 1463.17 1508.25" stroke="black" stroke-width="4" fill="none" stroke-linecap="round" stroke-linejoin="round"/>
  <path d="M 1473.18 1538.63 L 1470.64 1544.95 L 1463.51 1550.35 L 1452.87 1553.95 L 1440.36 1555.22 L 1427.91 1553.95 L 1417.44 1550.35 L 1410.59 1544.96 L 1408.34 1538.63" stroke="black" stroke-width="4" fill="none" stroke-linecap="round" stroke-linejoin="round"/>
  <path d="M 1463.73 1501.43 L 1453.30 1497.93 L 1440.95 1496.69 L 1428.55 1497.92 L 1417.93 1501.43 L 1410.71 1506.70 L 1408.01 1512.94 L 1410.27 1519.22 L 1417.14 1524.57 L 1427.65 1528.15 L 1440.14 1529.41 L 1452.70 1528.15 L 1463.38 1524.57 L 1470.54 1519.21 L 1473.09 1512.94 L 1470.69 1506.70" stroke="black" stroke-width="4" fill="none" stroke-linecap="round" stroke-linejoin="round"/>
  <path d="M 1534.94 1543.20 L 1526.89 1540.47 L 1517.44 1539.51 L 1508.00 1540.47 L 1499.99 1543.20 L 1494.62 1547.28 L 1492.72 1552.12 L 1494.60 1556.98 L 1499.99 1561.12 L 1508.08 1563.88 L 1517.62 1564.86 L 1527.15 1563.88 L 1535.19 1561.12 L 1540.52 1556.98 L 1542.33 1552.12 L 1540.36 1547.28" stroke="black" stroke-width="4" fill="none" stroke-linecap="round" stroke-linejoin="round"/>
  <path d="M 1550.41 1578.09 L 1548.03 1584.61 L 1540.96 1590.18 L 1530.26 1593.90 L 1517.58 1595.21" stroke="black" stroke-width="4" fill="none" stroke-linecap="round" stroke-linejoin="round"/>
  <path d="M 1540.71 1540.24 L 1530.00 1536.62 L 1517.41 1535.34 L 1504.85 1536.61 L 1494.17 1540.24 L 1487.01 1545.68 L 1484.46 1552.12 L 1486.96 1558.61 L 1494.12 1564.13 L 1504.91 1567.83 L 1517.65 1569.13 L 1530.37 1567.83 L 1541.11 1564.13 L 1548.21 1558.60 L 1550.59 1552.12 L 1547.96 1545.68 L 1540.71 1540.24" stroke="black" stroke-width="4" fill="none" stroke-linecap="round" stroke-linejoin="round"/>
  <path d="M 1504.89 1593.90 L 1494.14 1590.18 L 1487.01 1584.62 L 1484.52 1578.09" stroke="black" stroke-width="4" fill="none" stroke-linecap="round" stroke-linejoin="round"/>
  <path d="M 1631.89 1364.65 L 1591.06 1345.90" stroke="black" stroke-width="4" fill="none" stroke-linecap="round" stroke-linejoin="round"/>
  <path d="M 1549.93 1327.00 L 1519.32 1312.95" stroke="black" stroke-width="4" fill="none" stroke-linecap="round" stroke-linejoin="round"/>
  <path d="M 1459.58 1313.07 L 1429.04 1327.03" stroke="black" stroke-width="4" fill="none" stroke-linecap="round" stroke-linejoin="round"/>
  <path d="M 1387.52 1346.02 L 1346.78 1364.65 L 1489.01 1433.97 L 1631.89 1364.65 L 1630.00 1469.84 L 1580.75 1494.83" stroke="black" stroke-width="4" fill="none" stroke-linecap="round" stroke-linejoin="round"/>
  <path d="M 1489.06 1467.73 L 1489.01 1433.97" stroke="black" stroke-width="4" fill="none" stroke-linecap="round" stroke-linejoin="round"/>
  <path d="M 1346.78 1364.65 L 1347.57 1402.47" stroke="black" stroke-width="4" fill="none" stroke-linecap="round" stroke-linejoin="round"/>
  <path d="M 1510.17 1311.17 L 1511.86 1307.22 L 1510.14 1303.28 L 1505.29 1299.95 L 1498.03 1297.73 L 1489.49 1296.95 L 1480.94 1297.73 L 1473.69 1299.95 L 1468.78 1303.28 L 1467.01 1307.22 L 1468.67 1311.17 L 1473.51 1314.53 L 1480.78 1316.79 L 1489.39 1317.58 L 1498.01 1316.79 L 1505.33 1314.53 L 1510.17 1311.17" stroke="black" stroke-width="4" fill="none" stroke-linecap="round" stroke-linejoin="round"/>
  <path d="M 1519.27 1331.50 L 1517.05 1336.81 L 1510.61 1341.34 L 1500.87 1344.38" stroke="black" stroke-width="4" fill="none" stroke-linecap="round" stroke-linejoin="round"/>
  <path d="M 1517.10 1312.49 L 1519.33 1307.22 L 1517.02 1301.97 L 1510.55 1297.54 L 1500.87 1294.58 L 1489.50 1293.55 L 1478.13 1294.58 L 1468.46 1297.54 L 1461.91 1301.97 L 1459.54 1307.22 L 1461.72 1312.49 L 1468.18 1316.98 L 1477.88 1319.99 L 1489.37 1321.05 L 1500.88 1319.99 L 1510.64 1316.98 L 1517.10 1312.49" stroke="black" stroke-width="4" fill="none" stroke-linecap="round" stroke-linejoin="round"/>
  <path d="M 1489.41 1345.45 L 1477.95 1344.38 L 1468.28 1341.34 L 1461.85 1336.81 L 1459.68 1331.50" stroke="black" stroke-width="4" fill="none" stroke-linecap="round" stroke-linejoin="round"/>
  <path d="M 1581.97 1344.18 L 1583.56 1340.11 L 1581.67 1336.05 L 1576.65 1332.62 L 1569.20 1330.34 L 1560.51 1329.53 L 1551.86 1330.34 L 1544.57 1332.62 L 1539.70 1336.05 L 1538.04 1340.11 L 1539.84 1344.18 L 1544.87 1347.64 L 1552.32 1349.96 L 1561.08 1350.78 L 1569.81 1349.96 L 1577.16 1347.64 L 1581.97 1344.18" stroke="black" stroke-width="4" fill="none" stroke-linecap="round" stroke-linejoin="round"/>
  <path d="M 1590.83 1364.65 L 1588.75 1370.12 L 1582.36 1374.78 L 1572.58 1377.91 L 1560.98 1379.00 L 1549.32 1377.91 L 1539.40 1374.78 L 1532.73 1370.12 L 1530.35 1364.65" stroke="black" stroke-width="4" fill="none" stroke-linecap="round" stroke-linejoin="round"/>
  <path d="M 1589.16 1335.87 L 1588.62 1334.70 L 1581.90 1330.14 L 1571.98 1327.10 L 1560.41 1326.03 L 1548.91 1327.10 L 1539.18 1330.14 L 1532.68 1334.70 L 1530.46 1340.11 L 1532.84 1345.54 L 1539.54 1350.17 L 1549.48 1353.27 L 1561.18 1354.36 L 1572.82 1353.27 L 1582.64 1350.17 L 1589.04 1345.54 L 1591.14 1340.11" stroke="black" stroke-width="4" fill="none" stroke-linecap="round" stroke-linejoin="round"/>
  <path d="M 1438.68 1344.18 L 1440.53 1340.11 L 1438.90 1336.05 L 1434.10 1332.62 L 1426.79 1330.34 L 1418.15 1329.53 L 1409.46 1330.34 L 1402.02 1332.62 L 1396.93 1336.05 L 1395.01 1340.11 L 1396.56 1344.18 L 1401.37 1347.64 L 1408.66 1349.96 L 1417.38 1350.78 L 1426.15 1349.96 L 1433.65 1347.64 L 1438.68 1344.18" stroke="black" stroke-width="4" fill="none" stroke-linecap="round" stroke-linejoin="round"/>
  <path d="M 1448.28 1364.65 L 1445.85 1370.12 L 1439.17 1374.78 L 1429.19 1377.91 L 1417.52 1379.00 L 1405.93 1377.91 L 1396.22 1374.78 L 1389.84 1370.12 L 1387.80 1364.65" stroke="black" stroke-width="4" fill="none" stroke-linecap="round" stroke-linejoin="round"/>
  <path d="M 1445.67 1345.54 L 1448.11 1340.11 L 1445.93 1334.70 L 1439.51 1330.14 L 1429.78 1327.10 L 1418.28 1326.03 L 1406.71 1327.10 L 1396.79 1330.14 L 1390.00 1334.70 L 1387.43 1340.11 L 1389.47 1345.54 L 1395.87 1350.17 L 1405.61 1353.27 L 1417.25 1354.36 L 1428.96 1353.27 L 1438.97 1350.17 L 1445.67 1345.54" stroke="black" stroke-width="4" fill="none" stroke-linecap="round" stroke-linejoin="round"/>
  <path d="M 1510.48 1378.19 L 1512.22 1373.99 L 1510.44 1369.81 L 1505.45 1366.28 L 1497.97 1363.92 L 1489.17 1363.10 L 1480.37 1363.92 L 1472.90 1366.28 L 1467.84 1369.81 L 1466.02 1373.99 L 1467.72 1378.19 L 1472.71 1381.76 L 1480.19 1384.15 L 1489.07 1384.99 L 1497.95 1384.15 L 1505.49 1381.76 L 1510.48 1378.19" stroke="black" stroke-width="4" fill="none" stroke-linecap="round" stroke-linejoin="round"/>
  <path d="M 1519.85 1398.78 L 1517.56 1404.42 L 1510.93 1409.23 L 1500.90 1412.45" stroke="black" stroke-width="4" fill="none" stroke-linecap="round" stroke-linejoin="round"/>
  <path d="M 1517.62 1379.59 L 1519.92 1373.99 L 1517.53 1368.42 L 1510.87 1363.72 L 1500.89 1360.59 L 1489.19 1359.49 L 1477.48 1360.59 L 1467.51 1363.72 L 1460.76 1368.42 L 1458.32 1373.99 L 1460.57 1379.59 L 1467.21 1384.36 L 1477.21 1387.55 L 1489.05 1388.68 L 1500.90 1387.55 L 1510.97 1384.36 L 1517.62 1379.59" stroke="black" stroke-width="4" fill="none" stroke-linecap="round" stroke-linejoin="round"/>
  <path d="M 1489.11 1413.58 L 1489.09 1413.58 L 1477.28 1412.45 L 1467.32 1409.23 L 1460.70 1404.42 L 1458.46 1398.78" stroke="black" stroke-width="4" fill="none" stroke-linecap="round" stroke-linejoin="round"/>
</svg>
