<?xml version="1.0" ?>
<svg xmlns="http://www.w3.org/2000/svg" version="1.1" width="445.43px" height="3000px" viewBox="1277.29 0 445.43 3000">
  <polygon points="1500.00,1490.95 1305.32,1587.92 1500.00,1693.07 1694.68,1587.92" fill="#e2f999" stroke="#e2f999" stroke-width="0.5" stroke-linecap="round" stroke-linejoin="round"/>
  <polygon points="1694.68,1587.92 1500.00,1693.07 1500.00,1835.24 1690.89,1726.49" fill="#e2f999" stroke="#e2f999" stroke-width="0.5" stroke-linecap="round" stroke-linejoin="round"/>
  <polygon points="1500.00,1835.24 1500.00,1693.07 1305.32,1587.92 1309.11,1726.49" fill="#e2f999" stroke="#e2f999" stroke-width="0.5" stroke-linecap="round" stroke-linejoin="round"/>
  <polygon points="1500.00,1234.21 1500.00,1199.61 1487.91,1200.65 1487.96,1235.26" fill="#60afff" stroke="#60afff" stroke-width="0.5" stroke-linecap="round" stroke-linejoin="round"/>
  <polygon points="1512.04,1235.26 1512.09,1200.65 1500.00,1199.61 1500.00,1234.21" fill="#60afff" stroke="#60afff" stroke-width="0.5" stroke-linecap="round" stroke-linejoin="round"/>
  <polygon points="1487.96,1235.26 1487.91,1200.65 1477.67,1203.65 1477.77,1238.30" fill="#60afff" stroke="#60afff" stroke-width="0.5" stroke-linecap="round" stroke-linejoin="round"/>
  <polygon points="1522.23,1238.30 1522.33,1203.65 1512.09,1200.65 1512.04,1235.26" fill="#60afff" stroke="#60afff" stroke-width="0.5" stroke-linecap="round" stroke-linejoin="round"/>
  <polygon points="1500.00,1195.01 1483.92,1196.41 1470.27,1200.39 1477.67,1203.65 1487.91,1200.65 1500.00,1199.61 1512.09,1200.65 1522.33,1203.65 1529.25,1208.14 1529.73,1200.39 1516.08,1196.41" fill="#60afff" stroke="#60afff" stroke-width="0.5" stroke-linecap="round" stroke-linejoin="round"/>
  <polygon points="1477.77,1238.30 1477.67,1203.65 1470.75,1208.14 1470.89,1242.84" fill="#60afff" stroke="#60afff" stroke-width="0.5" stroke-linecap="round" stroke-linejoin="round"/>
  <polygon points="1529.11,1242.84 1529.25,1208.14 1522.33,1203.65 1522.23,1238.30" fill="#60afff" stroke="#60afff" stroke-width="0.5" stroke-linecap="round" stroke-linejoin="round"/>
  <polygon points="1500.00,1350.61 1301.39,1443.75 1500.00,1544.91 1698.61,1443.75" fill="#f4f4f4" stroke="#f4f4f4" stroke-width="0.5" stroke-linecap="round" stroke-linejoin="round"/>
  <polygon points="1470.89,1242.84 1470.75,1208.14 1468.29,1213.49 1468.43,1248.25" fill="#60afff" stroke="#60afff" stroke-width="0.5" stroke-linecap="round" stroke-linejoin="round"/>
  <polygon points="1531.57,1248.25 1531.71,1213.49 1529.25,1208.14 1529.11,1242.84" fill="#60afff" stroke="#60afff" stroke-width="0.5" stroke-linecap="round" stroke-linejoin="round"/>
  <polygon points="1460.77,1220.65 1457.67,1213.49 1457.86,1248.25 1460.96,1255.49" fill="#60afff" stroke="#60afff" stroke-width="0.5" stroke-linecap="round" stroke-linejoin="round"/>
  <polygon points="1542.33,1213.49 1539.23,1220.65 1539.04,1255.49 1542.14,1248.25" fill="#60afff" stroke="#60afff" stroke-width="0.5" stroke-linecap="round" stroke-linejoin="round"/>
  <polygon points="1461.04,1206.38 1457.67,1213.49 1460.77,1220.65 1469.89,1226.75 1483.66,1230.85 1500.00,1232.30 1516.34,1230.85 1530.11,1226.75 1539.23,1220.65 1542.33,1213.49 1538.96,1206.38 1529.73,1200.39 1529.25,1208.14 1531.71,1213.49 1529.39,1218.86 1522.54,1223.42 1512.24,1226.48 1500.00,1227.55 1487.76,1226.48 1477.46,1223.42 1470.61,1218.86 1468.29,1213.49 1470.75,1208.14 1477.67,1203.65 1470.27,1200.39" fill="#60afff" stroke="#60afff" stroke-width="0.5" stroke-linecap="round" stroke-linejoin="round"/>
  <polygon points="1469.89,1226.75 1460.77,1220.65 1460.96,1255.49 1470.03,1261.66" fill="#60afff" stroke="#60afff" stroke-width="0.5" stroke-linecap="round" stroke-linejoin="round"/>
  <polygon points="1539.23,1220.65 1530.11,1226.75 1529.97,1261.66 1539.04,1255.49" fill="#60afff" stroke="#60afff" stroke-width="0.5" stroke-linecap="round" stroke-linejoin="round"/>
  <polygon points="1483.66,1230.85 1469.89,1226.75 1470.03,1261.66 1483.74,1265.81" fill="#60afff" stroke="#60afff" stroke-width="0.5" stroke-linecap="round" stroke-linejoin="round"/>
  <polygon points="1530.11,1226.75 1516.34,1230.85 1516.26,1265.81 1529.97,1261.66" fill="#60afff" stroke="#60afff" stroke-width="0.5" stroke-linecap="round" stroke-linejoin="round"/>
  <polygon points="1500.00,1232.30 1483.66,1230.85 1483.74,1265.81 1500.00,1267.28" fill="#60afff" stroke="#60afff" stroke-width="0.5" stroke-linecap="round" stroke-linejoin="round"/>
  <polygon points="1516.34,1230.85 1500.00,1232.30 1500.00,1267.28 1516.26,1265.81" fill="#60afff" stroke="#60afff" stroke-width="0.5" stroke-linecap="round" stroke-linejoin="round"/>
  <polygon points="1500.00,1693.07 1500.00,1544.91 1301.39,1443.75 1305.32,1587.92" fill="#f4f4f4" stroke="#f4f4f4" stroke-width="0.5" stroke-linecap="round" stroke-linejoin="round"/>
  <polygon points="1698.61,1443.75 1500.00,1544.91 1500.00,1693.07 1694.68,1587.92" fill="#f4f4f4" stroke="#f4f4f4" stroke-width="0.5" stroke-linecap="round" stroke-linejoin="round"/>
  <polygon points="1600.68,1278.99 1601.16,1243.88 1588.86,1244.96 1588.44,1280.09" fill="#60afff" stroke="#60afff" stroke-width="0.5" stroke-linecap="round" stroke-linejoin="round"/>
  <polygon points="1399.32,1278.99 1398.84,1243.88 1386.44,1244.96 1386.98,1280.09" fill="#60afff" stroke="#60afff" stroke-width="0.5" stroke-linecap="round" stroke-linejoin="round"/>
  <polygon points="1411.56,1280.09 1411.14,1244.96 1398.84,1243.88 1399.32,1278.99" fill="#60afff" stroke="#60afff" stroke-width="0.5" stroke-linecap="round" stroke-linejoin="round"/>
  <polygon points="1613.02,1280.09 1613.56,1244.96 1601.16,1243.88 1600.68,1278.99" fill="#60afff" stroke="#60afff" stroke-width="0.5" stroke-linecap="round" stroke-linejoin="round"/>
  <polygon points="1588.44,1280.09 1588.86,1244.96 1578.55,1248.09 1578.18,1283.25" fill="#60afff" stroke="#60afff" stroke-width="0.5" stroke-linecap="round" stroke-linejoin="round"/>
  <polygon points="1421.82,1283.25 1421.45,1248.09 1411.14,1244.96 1411.56,1280.09" fill="#60afff" stroke="#60afff" stroke-width="0.5" stroke-linecap="round" stroke-linejoin="round"/>
  <polygon points="1623.58,1283.25 1624.16,1248.09 1613.56,1244.96 1613.02,1280.09" fill="#60afff" stroke="#60afff" stroke-width="0.5" stroke-linecap="round" stroke-linejoin="round"/>
  <polygon points="1386.98,1280.09 1386.44,1244.96 1375.84,1248.09 1376.42,1283.25" fill="#60afff" stroke="#60afff" stroke-width="0.5" stroke-linecap="round" stroke-linejoin="round"/>
  <polygon points="1428.63,1287.99 1428.29,1252.77 1421.45,1248.09 1421.82,1283.25" fill="#60afff" stroke="#60afff" stroke-width="0.5" stroke-linecap="round" stroke-linejoin="round"/>
  <polygon points="1630.82,1287.99 1631.44,1252.77 1624.16,1248.09 1623.58,1283.25" fill="#60afff" stroke="#60afff" stroke-width="0.5" stroke-linecap="round" stroke-linejoin="round"/>
  <polygon points="1376.42,1283.25 1375.84,1248.09 1368.56,1252.77 1369.18,1287.99" fill="#60afff" stroke="#60afff" stroke-width="0.5" stroke-linecap="round" stroke-linejoin="round"/>
  <polygon points="1578.18,1283.25 1578.55,1248.09 1571.71,1252.77 1571.37,1287.99" fill="#60afff" stroke="#60afff" stroke-width="0.5" stroke-linecap="round" stroke-linejoin="round"/>
  <polygon points="1500.00,1204.71 1297.29,1293.62 1500.00,1390.36 1702.71,1293.62" fill="#60afff" stroke="#60afff" stroke-width="0.5" stroke-linecap="round" stroke-linejoin="round"/>
  <polygon points="1369.18,1287.99 1368.56,1252.77 1365.78,1258.34 1366.41,1293.62" fill="#60afff" stroke="#60afff" stroke-width="0.5" stroke-linecap="round" stroke-linejoin="round"/>
  <polygon points="1633.59,1293.62 1634.22,1258.34 1631.44,1252.77 1630.82,1287.99" fill="#60afff" stroke="#60afff" stroke-width="0.5" stroke-linecap="round" stroke-linejoin="round"/>
  <polygon points="1571.37,1287.99 1571.71,1252.77 1569.45,1258.34 1569.13,1293.62" fill="#60afff" stroke="#60afff" stroke-width="0.5" stroke-linecap="round" stroke-linejoin="round"/>
  <polygon points="1430.87,1293.62 1430.55,1258.34 1428.29,1252.77 1428.63,1287.99" fill="#60afff" stroke="#60afff" stroke-width="0.5" stroke-linecap="round" stroke-linejoin="round"/>
  <polygon points="1441.39,1258.34 1437.87,1265.81 1438.16,1301.18 1441.67,1293.62" fill="#60afff" stroke="#60afff" stroke-width="0.5" stroke-linecap="round" stroke-linejoin="round"/>
  <polygon points="1645.07,1258.34 1642.25,1265.81 1641.57,1301.18 1644.38,1293.62" fill="#60afff" stroke="#60afff" stroke-width="0.5" stroke-linecap="round" stroke-linejoin="round"/>
  <polygon points="1562.13,1265.81 1558.61,1258.34 1558.33,1293.62 1561.84,1301.18" fill="#60afff" stroke="#60afff" stroke-width="0.5" stroke-linecap="round" stroke-linejoin="round"/>
  <polygon points="1357.75,1265.81 1354.93,1258.34 1355.62,1293.62 1358.43,1301.18" fill="#60afff" stroke="#60afff" stroke-width="0.5" stroke-linecap="round" stroke-linejoin="round"/>
  <polygon points="1619.38,1276.45 1633.24,1272.17 1642.25,1265.81 1625.35,1268.70 1614.98,1271.89 1602.53,1273.01 1589.97,1271.89 1579.30,1268.70 1572.08,1263.95 1569.45,1258.34 1571.71,1252.77 1578.55,1248.09 1588.86,1244.96 1601.16,1243.88 1613.56,1244.96 1624.16,1248.09 1631.44,1252.77 1641.27,1250.93 1631.55,1244.69 1617.41,1240.54 1600.93,1239.07 1584.59,1240.54 1570.84,1244.69 1561.71,1250.93 1558.61,1258.34 1562.13,1265.81 1571.74,1272.17 1586.00,1276.45 1602.76,1277.96" fill="#60afff" stroke="#60afff" stroke-width="0.5" stroke-linecap="round" stroke-linejoin="round"/>
  <polygon points="1368.45,1244.69 1358.73,1250.93 1354.93,1258.34 1357.75,1265.81 1366.76,1272.17 1367.88,1263.95 1365.78,1258.34 1368.56,1252.77 1375.84,1248.09 1386.44,1244.96 1398.84,1243.88 1411.14,1244.96 1421.45,1248.09 1428.29,1252.77 1430.55,1258.34 1427.92,1263.95 1420.70,1268.70 1410.03,1271.89 1397.47,1273.01 1385.02,1271.89 1374.65,1268.70 1380.62,1276.45 1397.24,1277.96 1414.00,1276.45 1428.26,1272.17 1437.87,1265.81 1441.39,1258.34 1438.29,1250.93 1429.16,1244.69 1415.41,1240.54 1399.07,1239.07 1382.59,1240.54" fill="#60afff" stroke="#60afff" stroke-width="0.5" stroke-linecap="round" stroke-linejoin="round"/>
  <polygon points="1642.25,1265.81 1645.07,1258.34 1641.27,1250.93 1631.44,1252.77 1634.22,1258.34 1632.12,1263.95 1625.35,1268.70" fill="#60afff" stroke="#60afff" stroke-width="0.5" stroke-linecap="round" stroke-linejoin="round"/>
  <polygon points="1366.76,1272.17 1357.75,1265.81 1358.43,1301.18 1367.40,1307.61" fill="#60afff" stroke="#60afff" stroke-width="0.5" stroke-linecap="round" stroke-linejoin="round"/>
  <polygon points="1571.74,1272.17 1562.13,1265.81 1561.84,1301.18 1571.40,1307.61" fill="#60afff" stroke="#60afff" stroke-width="0.5" stroke-linecap="round" stroke-linejoin="round"/>
  <polygon points="1437.87,1265.81 1428.26,1272.17 1428.60,1307.61 1438.16,1301.18" fill="#60afff" stroke="#60afff" stroke-width="0.5" stroke-linecap="round" stroke-linejoin="round"/>
  <polygon points="1642.25,1265.81 1633.24,1272.17 1632.60,1307.61 1641.57,1301.18" fill="#60afff" stroke="#60afff" stroke-width="0.5" stroke-linecap="round" stroke-linejoin="round"/>
  <polygon points="1380.62,1276.45 1366.76,1272.17 1367.40,1307.61 1381.19,1311.94" fill="#60afff" stroke="#60afff" stroke-width="0.5" stroke-linecap="round" stroke-linejoin="round"/>
  <polygon points="1633.24,1272.17 1619.38,1276.45 1618.81,1311.94 1632.60,1307.61" fill="#60afff" stroke="#60afff" stroke-width="0.5" stroke-linecap="round" stroke-linejoin="round"/>
  <polygon points="1586.00,1276.45 1571.74,1272.17 1571.40,1307.61 1585.59,1311.94" fill="#60afff" stroke="#60afff" stroke-width="0.5" stroke-linecap="round" stroke-linejoin="round"/>
  <polygon points="1428.26,1272.17 1414.00,1276.45 1414.41,1311.94 1428.60,1307.61" fill="#60afff" stroke="#60afff" stroke-width="0.5" stroke-linecap="round" stroke-linejoin="round"/>
  <polygon points="1366.76,1272.17 1380.62,1276.45 1374.65,1268.70 1367.88,1263.95" fill="#60afff" stroke="#60afff" stroke-width="0.5" stroke-linecap="round" stroke-linejoin="round"/>
  <polygon points="1702.71,1293.62 1500.00,1390.36 1500.00,1544.91 1698.61,1443.75" fill="#60afff" stroke="#60afff" stroke-width="0.5" stroke-linecap="round" stroke-linejoin="round"/>
  <polygon points="1500.00,1544.91 1500.00,1390.36 1297.29,1293.62 1301.39,1443.75" fill="#60afff" stroke="#60afff" stroke-width="0.5" stroke-linecap="round" stroke-linejoin="round"/>
  <polygon points="1414.00,1276.45 1397.24,1277.96 1397.73,1313.47 1414.41,1311.94" fill="#60afff" stroke="#60afff" stroke-width="0.5" stroke-linecap="round" stroke-linejoin="round"/>
  <polygon points="1397.24,1277.96 1380.62,1276.45 1381.19,1311.94 1397.73,1313.47" fill="#60afff" stroke="#60afff" stroke-width="0.5" stroke-linecap="round" stroke-linejoin="round"/>
  <polygon points="1619.38,1276.45 1602.76,1277.96 1602.27,1313.47 1618.81,1311.94" fill="#60afff" stroke="#60afff" stroke-width="0.5" stroke-linecap="round" stroke-linejoin="round"/>
  <polygon points="1602.76,1277.96 1586.00,1276.45 1585.59,1311.94 1602.27,1313.47" fill="#60afff" stroke="#60afff" stroke-width="0.5" stroke-linecap="round" stroke-linejoin="round"/>
  <polygon points="1512.55,1326.83 1512.61,1291.17 1500.00,1290.04 1500.00,1325.68" fill="#60afff" stroke="#60afff" stroke-width="0.5" stroke-linecap="round" stroke-linejoin="round"/>
  <polygon points="1500.00,1325.68 1500.00,1290.04 1487.39,1291.17 1487.45,1326.83" fill="#60afff" stroke="#60afff" stroke-width="0.5" stroke-linecap="round" stroke-linejoin="round"/>
  <polygon points="1487.45,1326.83 1487.39,1291.17 1476.70,1294.43 1476.82,1330.13" fill="#60afff" stroke="#60afff" stroke-width="0.5" stroke-linecap="round" stroke-linejoin="round"/>
  <polygon points="1523.18,1330.13 1523.30,1294.43 1512.61,1291.17 1512.55,1326.83" fill="#60afff" stroke="#60afff" stroke-width="0.5" stroke-linecap="round" stroke-linejoin="round"/>
  <polygon points="1476.82,1330.13 1476.70,1294.43 1469.49,1299.32 1469.64,1335.07" fill="#60afff" stroke="#60afff" stroke-width="0.5" stroke-linecap="round" stroke-linejoin="round"/>
  <polygon points="1530.36,1335.07 1530.51,1299.32 1523.30,1294.43 1523.18,1330.13" fill="#60afff" stroke="#60afff" stroke-width="0.5" stroke-linecap="round" stroke-linejoin="round"/>
  <polygon points="1469.64,1335.07 1469.49,1299.32 1466.92,1305.14 1467.07,1340.95" fill="#60afff" stroke="#60afff" stroke-width="0.5" stroke-linecap="round" stroke-linejoin="round"/>
  <polygon points="1532.93,1340.95 1533.08,1305.14 1530.51,1299.32 1530.36,1335.07" fill="#60afff" stroke="#60afff" stroke-width="0.5" stroke-linecap="round" stroke-linejoin="round"/>
  <polygon points="1544.17,1305.14 1540.93,1312.93 1540.73,1348.84 1543.95,1340.95" fill="#60afff" stroke="#60afff" stroke-width="0.5" stroke-linecap="round" stroke-linejoin="round"/>
  <polygon points="1459.07,1312.93 1455.83,1305.14 1456.05,1340.95 1459.27,1348.84" fill="#60afff" stroke="#60afff" stroke-width="0.5" stroke-linecap="round" stroke-linejoin="round"/>
  <polygon points="1500.00,1285.03 1483.24,1286.56 1468.99,1290.89 1459.36,1297.40 1455.83,1305.14 1459.07,1312.93 1468.58,1319.57 1482.95,1324.04 1500.00,1325.62 1517.05,1324.04 1531.42,1319.57 1512.77,1319.28 1500.00,1320.45 1487.23,1319.28 1476.48,1315.95 1469.33,1310.99 1466.92,1305.14 1469.49,1299.32 1476.70,1294.43 1487.39,1291.17 1500.00,1290.04 1512.61,1291.17 1523.30,1294.43 1530.51,1299.32 1540.64,1297.40 1531.01,1290.89 1516.76,1286.56" fill="#60afff" stroke="#60afff" stroke-width="0.5" stroke-linecap="round" stroke-linejoin="round"/>
  <polygon points="1544.17,1305.14 1540.64,1297.40 1530.51,1299.32 1533.08,1305.14 1530.67,1310.99 1523.52,1315.95 1512.77,1319.28 1531.42,1319.57 1540.93,1312.93" fill="#60afff" stroke="#60afff" stroke-width="0.5" stroke-linecap="round" stroke-linejoin="round"/>
  <polygon points="1468.58,1319.57 1459.07,1312.93 1459.27,1348.84 1468.74,1355.55" fill="#60afff" stroke="#60afff" stroke-width="0.5" stroke-linecap="round" stroke-linejoin="round"/>
  <polygon points="1540.93,1312.93 1531.42,1319.57 1531.26,1355.55 1540.73,1348.84" fill="#60afff" stroke="#60afff" stroke-width="0.5" stroke-linecap="round" stroke-linejoin="round"/>
  <polygon points="1482.95,1324.04 1468.58,1319.57 1468.74,1355.55 1483.03,1360.06" fill="#60afff" stroke="#60afff" stroke-width="0.5" stroke-linecap="round" stroke-linejoin="round"/>
  <polygon points="1531.42,1319.57 1517.05,1324.04 1516.97,1360.06 1531.26,1355.55" fill="#60afff" stroke="#60afff" stroke-width="0.5" stroke-linecap="round" stroke-linejoin="round"/>
  <polygon points="1517.05,1324.04 1500.00,1325.62 1500.00,1361.66 1516.97,1360.06" fill="#60afff" stroke="#60afff" stroke-width="0.5" stroke-linecap="round" stroke-linejoin="round"/>
  <polygon points="1500.00,1325.62 1482.95,1324.04 1483.03,1360.06 1500.00,1361.66" fill="#60afff" stroke="#60afff" stroke-width="0.5" stroke-linecap="round" stroke-linejoin="round"/>
  <path d="M 1309.11 1726.49 L 1500.00 1835.24 L 1690.89 1726.49 L 1694.68 1587.92 L 1500.00 1693.07 L 1500.00 1835.24 L 1690.89 1726.49 L 1694.68 1587.92 L 1500.00 1693.07 L 1305.32 1587.92 L 1309.11 1726.49 L 1500.00 1835.24 L 1500.00 1693.07 L 1305.32 1587.92 L 1309.11 1726.49" stroke="black" stroke-width="4" fill="none" stroke-linecap="round" stroke-linejoin="round"/>
  <path d="M 1305.32 1587.92 L 1500.00 1693.07 L 1694.68 1587.92 L 1698.61 1443.75 L 1500.00 1544.91 L 1500.00 1693.07 L 1694.68 1587.92 L 1698.61 1443.75 L 1500.00 1544.91 L 1301.39 1443.75 L 1305.32 1587.92 L 1500.00 1693.07 L 1500.00 1544.91 L 1301.39 1443.75 L 1305.32 1587.92" stroke="black" stroke-width="4" fill="none" stroke-linecap="round" stroke-linejoin="round"/>
  <path d="M 1301.39 1443.75 L 1500.00 1544.91 L 1698.61 1443.75 L 1702.71 1293.62 L 1500.00 1390.36 L 1500.00 1544.91 L 1698.61 1443.75 L 1702.71 1293.62 L 1644.88 1268.26 L 1702.71 1293.62 L 1500.00 1390.36 L 1297.29 1293.62 L 1355.12 1268.26 L 1297.29 1293.62 L 1301.39 1443.75 L 1500.00 1544.91 L 1500.00 1390.36 L 1297.29 1293.62 L 1301.39 1443.75" stroke="black" stroke-width="4" fill="none" stroke-linecap="round" stroke-linejoin="round"/>
  <path d="M 1582.87 1241.06 L 1542.28 1223.25 L 1582.87 1241.06" stroke="black" stroke-width="4" fill="none" stroke-linecap="round" stroke-linejoin="round"/>
  <path d="M 1457.72 1223.25 L 1417.13 1241.06 L 1457.72 1223.25" stroke="black" stroke-width="4" fill="none" stroke-linecap="round" stroke-linejoin="round"/>
  <path d="M 1500.00 1199.61 L 1512.09 1200.65" stroke="black" stroke-width="4" fill="none" stroke-linecap="round" stroke-linejoin="round"/>
  <path d="M 1522.33 1203.65 L 1529.25 1208.14" stroke="black" stroke-width="4" fill="none" stroke-linecap="round" stroke-linejoin="round"/>
  <path d="M 1500.00 1195.01 L 1516.08 1196.41 L 1529.73 1200.39" stroke="black" stroke-width="4" fill="none" stroke-linecap="round" stroke-linejoin="round"/>
  <path d="M 1487.91 1200.65 L 1477.67 1203.65" stroke="black" stroke-width="4" fill="none" stroke-linecap="round" stroke-linejoin="round"/>
  <path d="M 1470.27 1200.39 L 1461.04 1206.38 L 1457.67 1213.49 L 1460.77 1220.65 L 1469.89 1226.75" stroke="black" stroke-width="4" fill="none" stroke-linecap="round" stroke-linejoin="round"/>
  <path d="M 1470.75 1208.14 L 1468.29 1213.49" stroke="black" stroke-width="4" fill="none" stroke-linecap="round" stroke-linejoin="round"/>
  <path d="M 1477.46 1223.42 L 1487.76 1226.48 L 1500.00 1227.55" stroke="black" stroke-width="4" fill="none" stroke-linecap="round" stroke-linejoin="round"/>
  <path d="M 1500.00 1232.30 L 1516.34 1230.85 L 1530.11 1226.75" stroke="black" stroke-width="4" fill="none" stroke-linecap="round" stroke-linejoin="round"/>
  <path d="M 1522.54 1223.42 L 1529.39 1218.86 L 1531.71 1213.49" stroke="black" stroke-width="4" fill="none" stroke-linecap="round" stroke-linejoin="round"/>
  <path d="M 1529.39 1218.86 L 1531.71 1213.49 L 1529.25 1208.14 L 1522.33 1203.65 L 1512.09 1200.65 L 1500.00 1199.61 L 1487.91 1200.65 L 1477.67 1203.65 L 1470.75 1208.14 L 1468.29 1213.49 L 1470.61 1218.86 L 1477.46 1223.42 L 1487.76 1226.48 L 1500.00 1227.55 L 1512.24 1226.48 L 1522.54 1223.42 L 1529.39 1218.86" stroke="black" stroke-width="4" fill="none" stroke-linecap="round" stroke-linejoin="round"/>
  <path d="M 1457.67 1213.49 L 1460.77 1220.65 L 1469.89 1226.75 L 1483.66 1230.85 L 1500.00 1232.30 L 1516.34 1230.85 L 1530.11 1226.75 L 1539.23 1220.65 L 1542.33 1213.49 L 1538.96 1206.38 L 1529.73 1200.39 L 1516.08 1196.41 L 1500.00 1195.01 L 1483.92 1196.41 L 1470.27 1200.39 L 1461.04 1206.38 L 1457.67 1213.49 L 1457.86 1248.25 L 1460.96 1255.49 L 1470.03 1261.66 L 1483.74 1265.81 L 1500.00 1267.28 L 1516.26 1265.81 L 1529.96 1261.66 L 1539.04 1255.49 L 1542.14 1248.25 L 1542.33 1213.49" stroke="black" stroke-width="4" fill="none" stroke-linecap="round" stroke-linejoin="round"/>
  <path d="M 1578.55 1248.09 L 1588.86 1244.96 L 1601.16 1243.88 L 1613.56 1244.96" stroke="black" stroke-width="4" fill="none" stroke-linecap="round" stroke-linejoin="round"/>
  <path d="M 1624.16 1248.09 L 1631.44 1252.77" stroke="black" stroke-width="4" fill="none" stroke-linecap="round" stroke-linejoin="round"/>
  <path d="M 1600.93 1239.07 L 1617.41 1240.54 L 1631.55 1244.69" stroke="black" stroke-width="4" fill="none" stroke-linecap="round" stroke-linejoin="round"/>
  <path d="M 1570.84 1244.69 L 1561.71 1250.93 L 1558.61 1258.34 L 1562.13 1265.81 L 1571.74 1272.17" stroke="black" stroke-width="4" fill="none" stroke-linecap="round" stroke-linejoin="round"/>
  <path d="M 1579.30 1268.70 L 1589.97 1271.89 L 1602.53 1273.01 L 1614.98 1271.89" stroke="black" stroke-width="4" fill="none" stroke-linecap="round" stroke-linejoin="round"/>
  <path d="M 1602.76 1277.96 L 1619.38 1276.45 L 1633.24 1272.17" stroke="black" stroke-width="4" fill="none" stroke-linecap="round" stroke-linejoin="round"/>
  <path d="M 1625.35 1268.70 L 1632.12 1263.95 L 1634.22 1258.34 L 1631.44 1252.77 L 1624.16 1248.09 L 1613.56 1244.96 L 1601.16 1243.88 L 1588.86 1244.96 L 1578.55 1248.09 L 1571.71 1252.77 L 1569.45 1258.34 L 1572.08 1263.95 L 1579.30 1268.70 L 1589.97 1271.89 L 1602.53 1273.01 L 1614.98 1271.89 L 1625.35 1268.70 L 1632.12 1263.95" stroke="black" stroke-width="4" fill="none" stroke-linecap="round" stroke-linejoin="round"/>
  <path d="M 1558.61 1258.34 L 1562.13 1265.81 L 1571.74 1272.17 L 1586.00 1276.45 L 1602.76 1277.96 L 1619.38 1276.45 L 1633.24 1272.17 L 1642.25 1265.81 L 1645.07 1258.34 L 1641.27 1250.93 L 1631.55 1244.69 L 1617.41 1240.54 L 1600.93 1239.07 L 1584.59 1240.54 L 1570.84 1244.69 L 1561.71 1250.93 L 1558.61 1258.34 L 1558.33 1293.62 L 1561.84 1301.18 L 1571.40 1307.61 L 1585.59 1311.94 L 1602.27 1313.47 L 1618.81 1311.94 L 1632.60 1307.61 L 1641.57 1301.18 L 1644.38 1293.62 L 1645.07 1258.34" stroke="black" stroke-width="4" fill="none" stroke-linecap="round" stroke-linejoin="round"/>
  <path d="M 1421.45 1248.09 L 1428.29 1252.77 L 1430.55 1258.34 L 1427.92 1263.95 L 1420.70 1268.70" stroke="black" stroke-width="4" fill="none" stroke-linecap="round" stroke-linejoin="round"/>
  <path d="M 1399.07 1239.07 L 1415.41 1240.54 L 1429.16 1244.69" stroke="black" stroke-width="4" fill="none" stroke-linecap="round" stroke-linejoin="round"/>
  <path d="M 1386.44 1244.96 L 1375.84 1248.09" stroke="black" stroke-width="4" fill="none" stroke-linecap="round" stroke-linejoin="round"/>
  <path d="M 1368.45 1244.69 L 1358.73 1250.93 L 1354.93 1258.34 L 1357.75 1265.81 L 1366.76 1272.17" stroke="black" stroke-width="4" fill="none" stroke-linecap="round" stroke-linejoin="round"/>
  <path d="M 1368.56 1252.77 L 1365.78 1258.34 L 1367.88 1263.95" stroke="black" stroke-width="4" fill="none" stroke-linecap="round" stroke-linejoin="round"/>
  <path d="M 1374.65 1268.70 L 1385.02 1271.89" stroke="black" stroke-width="4" fill="none" stroke-linecap="round" stroke-linejoin="round"/>
  <path d="M 1397.24 1277.96 L 1414.00 1276.45 L 1428.26 1272.17" stroke="black" stroke-width="4" fill="none" stroke-linecap="round" stroke-linejoin="round"/>
  <path d="M 1427.92 1263.95 L 1430.55 1258.34 L 1428.29 1252.77 L 1421.45 1248.09 L 1411.14 1244.96 L 1398.84 1243.88 L 1386.44 1244.96 L 1375.84 1248.09 L 1368.56 1252.77 L 1365.78 1258.34 L 1367.88 1263.95 L 1374.65 1268.70 L 1385.02 1271.89 L 1397.47 1273.01 L 1410.03 1271.89 L 1420.70 1268.70 L 1427.92 1263.95" stroke="black" stroke-width="4" fill="none" stroke-linecap="round" stroke-linejoin="round"/>
  <path d="M 1354.93 1258.34 L 1357.75 1265.81 L 1366.76 1272.17 L 1380.62 1276.45 L 1397.24 1277.96 L 1414.00 1276.45 L 1428.26 1272.17 L 1437.87 1265.81 L 1441.39 1258.34 L 1438.29 1250.93 L 1429.16 1244.69 L 1415.41 1240.54 L 1399.07 1239.07 L 1382.59 1240.54 L 1368.45 1244.69 L 1358.73 1250.93 L 1354.93 1258.34 L 1355.62 1293.62 L 1358.43 1301.18 L 1367.40 1307.61 L 1381.19 1311.94 L 1397.73 1313.47 L 1414.41 1311.94 L 1428.60 1307.61 L 1438.16 1301.18 L 1441.67 1293.62 L 1441.39 1258.34" stroke="black" stroke-width="4" fill="none" stroke-linecap="round" stroke-linejoin="round"/>
  <path d="M 1523.30 1294.43 L 1530.51 1299.32 L 1533.08 1305.14" stroke="black" stroke-width="4" fill="none" stroke-linecap="round" stroke-linejoin="round"/>
  <path d="M 1500.00 1285.03 L 1516.76 1286.56 L 1531.01 1290.89" stroke="black" stroke-width="4" fill="none" stroke-linecap="round" stroke-linejoin="round"/>
  <path d="M 1500.00 1290.04 L 1487.39 1291.17 L 1476.70 1294.43" stroke="black" stroke-width="4" fill="none" stroke-linecap="round" stroke-linejoin="round"/>
  <path d="M 1468.99 1290.89 L 1459.36 1297.40 L 1455.83 1305.14 L 1459.07 1312.93 L 1468.58 1319.57" stroke="black" stroke-width="4" fill="none" stroke-linecap="round" stroke-linejoin="round"/>
  <path d="M 1466.92 1305.14 L 1469.33 1310.99" stroke="black" stroke-width="4" fill="none" stroke-linecap="round" stroke-linejoin="round"/>
  <path d="M 1476.48 1315.95 L 1487.23 1319.28" stroke="black" stroke-width="4" fill="none" stroke-linecap="round" stroke-linejoin="round"/>
  <path d="M 1500.00 1320.45 L 1512.77 1319.28" stroke="black" stroke-width="4" fill="none" stroke-linecap="round" stroke-linejoin="round"/>
  <path d="M 1500.00 1325.62 L 1517.05 1324.04 L 1531.42 1319.57" stroke="black" stroke-width="4" fill="none" stroke-linecap="round" stroke-linejoin="round"/>
  <path d="M 1523.52 1315.95 L 1530.67 1310.99 L 1533.08 1305.14 L 1530.51 1299.32 L 1523.30 1294.43 L 1512.61 1291.17 L 1500.00 1290.04 L 1487.39 1291.17 L 1476.70 1294.43 L 1469.49 1299.32 L 1466.92 1305.14 L 1469.33 1310.99 L 1476.48 1315.95 L 1487.23 1319.28 L 1500.00 1320.45 L 1512.77 1319.28 L 1523.52 1315.95 L 1530.67 1310.99" stroke="black" stroke-width="4" fill="none" stroke-linecap="round" stroke-linejoin="round"/>
  <path d="M 1455.83 1305.14 L 1459.07 1312.93 L 1468.58 1319.57 L 1482.95 1324.04 L 1500.00 1325.62 L 1517.05 1324.04 L 1531.42 1319.57 L 1540.93 1312.93 L 1544.17 1305.14 L 1540.64 1297.40 L 1531.01 1290.89 L 1516.76 1286.56 L 1500.00 1285.03 L 1483.24 1286.56 L 1468.99 1290.89 L 1459.36 1297.40 L 1455.83 1305.14 L 1456.05 1340.95 L 1459.27 1348.84 L 1468.74 1355.55 L 1483.03 1360.06 L 1500.00 1361.66 L 1516.97 1360.06 L 1531.26 1355.55 L 1540.73 1348.84 L 1543.95 1340.95 L 1544.17 1305.14" stroke="black" stroke-width="4" fill="none" stroke-linecap="round" stroke-linejoin="round"/>
  <path d="M 1297.29 1293.62 L 1500.00 1390.36 L 1702.71 1293.62 L 1644.88 1268.26" stroke="black" stroke-width="4" fill="none" stroke-linecap="round" stroke-linejoin="round"/>
  <path d="M 1582.87 1241.06 L 1542.28 1223.25" stroke="black" stroke-width="4" fill="none" stroke-linecap="round" stroke-linejoin="round"/>
  <path d="M 1457.72 1223.25 L 1417.13 1241.06" stroke="black" stroke-width="4" fill="none" stroke-linecap="round" stroke-linejoin="round"/>
  <path d="M 1355.12 1268.26 L 1297.29 1293.62 L 1301.39 1443.75 L 1500.00 1544.91 L 1500.00 1693.07 L 1305.32 1587.92 L 1301.39 1443.75 L 1500.00 1544.91 L 1698.61 1443.75 L 1694.68 1587.92 L 1500.00 1693.07 L 1694.68 1587.92 L 1500.00 1693.07 L 1305.32 1587.92 L 1500.00 1693.07 L 1500.00 1835.24 L 1309.11 1726.49 L 1305.32 1587.92 L 1500.00 1693.07 L 1694.68 1587.92 L 1690.89 1726.49 L 1500.00 1835.24" stroke="black" stroke-width="4" fill="none" stroke-linecap="round" stroke-linejoin="round"/>
  <path d="M 1500.00 1390.36 L 1500.00 1544.91 L 1301.39 1443.75 L 1500.00 1544.91 L 1698.61 1443.75 L 1500.00 1544.91 L 1698.61 1443.75 L 1702.71 1293.62" stroke="black" stroke-width="4" fill="none" stroke-linecap="round" stroke-linejoin="round"/>
  <path d="M 1529.43 1208.55 L 1529.25 1208.14 L 1522.33 1203.65 L 1512.09 1200.65 L 1500.00 1199.61 L 1487.91 1200.65 L 1477.67 1203.65 L 1470.75 1208.14 L 1468.29 1213.49 L 1470.61 1218.86 L 1477.46 1223.42 L 1487.76 1226.48 L 1500.00 1227.55 L 1512.24 1226.48 L 1522.54 1223.42 L 1529.39 1218.86 L 1531.71 1213.49" stroke="black" stroke-width="4" fill="none" stroke-linecap="round" stroke-linejoin="round"/>
  <path d="M 1542.14 1248.25 L 1539.04 1255.49 L 1529.96 1261.66 L 1516.26 1265.81 L 1500.00 1267.28 L 1483.74 1265.81 L 1470.03 1261.66 L 1460.96 1255.49 L 1457.86 1248.25" stroke="black" stroke-width="4" fill="none" stroke-linecap="round" stroke-linejoin="round"/>
  <path d="M 1539.23 1220.65 L 1542.33 1213.49 L 1538.96 1206.38 L 1529.73 1200.39 L 1516.08 1196.41 L 1500.00 1195.01 L 1483.92 1196.41 L 1470.27 1200.39 L 1461.04 1206.38 L 1457.67 1213.49 L 1460.77 1220.65 L 1469.89 1226.75 L 1483.66 1230.85 L 1500.00 1232.30 L 1516.34 1230.85 L 1530.11 1226.75 L 1539.23 1220.65" stroke="black" stroke-width="4" fill="none" stroke-linecap="round" stroke-linejoin="round"/>
  <path d="M 1632.12 1263.95 L 1634.22 1258.34 L 1631.44 1252.77 L 1624.16 1248.09 L 1613.56 1244.96 L 1601.16 1243.88 L 1588.86 1244.96 L 1578.55 1248.09 L 1571.71 1252.77 L 1569.45 1258.34 L 1572.08 1263.95 L 1579.30 1268.70 L 1589.97 1271.89 L 1602.53 1273.01 L 1614.98 1271.89 L 1625.35 1268.70 L 1632.12 1263.95" stroke="black" stroke-width="4" fill="none" stroke-linecap="round" stroke-linejoin="round"/>
  <path d="M 1644.38 1293.62 L 1641.57 1301.18 L 1632.60 1307.61 L 1618.81 1311.94 L 1602.27 1313.47 L 1585.59 1311.94 L 1571.40 1307.61 L 1561.84 1301.18 L 1558.33 1293.62" stroke="black" stroke-width="4" fill="none" stroke-linecap="round" stroke-linejoin="round"/>
  <path d="M 1642.25 1265.81 L 1645.07 1258.34 L 1641.27 1250.93 L 1631.55 1244.69 L 1617.41 1240.54 L 1600.93 1239.07 L 1584.59 1240.54 L 1570.84 1244.69 L 1561.71 1250.93 L 1558.61 1258.34 L 1562.13 1265.81 L 1571.74 1272.17 L 1586.00 1276.45 L 1602.76 1277.96 L 1619.38 1276.45 L 1633.24 1272.17 L 1642.25 1265.81" stroke="black" stroke-width="4" fill="none" stroke-linecap="round" stroke-linejoin="round"/>
  <path d="M 1427.92 1263.95 L 1430.55 1258.34 L 1428.29 1252.77 L 1421.45 1248.09 L 1411.14 1244.96 L 1398.84 1243.88 L 1386.44 1244.96 L 1375.84 1248.09 L 1368.56 1252.77 L 1365.78 1258.34 L 1367.88 1263.95 L 1374.65 1268.70 L 1385.02 1271.89 L 1397.47 1273.01 L 1410.03 1271.89 L 1420.70 1268.70 L 1427.92 1263.95" stroke="black" stroke-width="4" fill="none" stroke-linecap="round" stroke-linejoin="round"/>
  <path d="M 1441.67 1293.62 L 1438.16 1301.18 L 1428.60 1307.61 L 1414.41 1311.94 L 1397.73 1313.47 L 1381.19 1311.94 L 1367.40 1307.61 L 1358.43 1301.18 L 1355.62 1293.62" stroke="black" stroke-width="4" fill="none" stroke-linecap="round" stroke-linejoin="round"/>
  <path d="M 1437.87 1265.81 L 1441.39 1258.34 L 1438.29 1250.93 L 1429.16 1244.69 L 1415.41 1240.54 L 1399.07 1239.07 L 1382.59 1240.54 L 1368.45 1244.69 L 1358.73 1250.93 L 1354.93 1258.34 L 1357.75 1265.81 L 1366.76 1272.17 L 1380.62 1276.45 L 1397.24 1277.96 L 1414.00 1276.45 L 1428.26 1272.17 L 1437.87 1265.81" stroke="black" stroke-width="4" fill="none" stroke-linecap="round" stroke-linejoin="round"/>
  <path d="M 1530.67 1310.99 L 1533.08 1305.14 L 1530.51 1299.32 L 1523.30 1294.43 L 1512.61 1291.17 L 1500.00 1290.04 L 1487.39 1291.17 L 1476.70 1294.43 L 1469.49 1299.32 L 1466.92 1305.14 L 1469.33 1310.99 L 1476.48 1315.95 L 1487.23 1319.28 L 1500.00 1320.45 L 1512.77 1319.28 L 1523.52 1315.95 L 1530.67 1310.99" stroke="black" stroke-width="4" fill="none" stroke-linecap="round" stroke-linejoin="round"/>
  <path d="M 1543.95 1340.95 L 1540.73 1348.84 L 1531.26 1355.55 L 1516.97 1360.06 L 1500.00 1361.66 L 1483.03 1360.06 L 1468.74 1355.55 L 1459.27 1348.84 L 1456.05 1340.95" stroke="black" stroke-width="4" fill="none" stroke-linecap="round" stroke-linejoin="round"/>
  <path d="M 1540.93 1312.93 L 1544.17 1305.14 L 1540.64 1297.40 L 1531.01 1290.89 L 1516.76 1286.56 L 1500.00 1285.03 L 1483.24 1286.56 L 1468.99 1290.89 L 1459.36 1297.40 L 1455.83 1305.14 L 1459.07 1312.93 L 1468.58 1319.57 L 1482.95 1324.04 L 1500.00 1325.62 L 1517.05 1324.04 L 1531.42 1319.57 L 1540.93 1312.93" stroke="black" stroke-width="4" fill="none" stroke-linecap="round" stroke-linejoin="round"/>
</svg>
