<?xml version="1.0" ?>
<svg xmlns="http://www.w3.org/2000/svg" version="1.1" width="509.05px" height="3000px" viewBox="1245.47 0 509.05 3000">
  <polygon points="1500.00,2026.60 1310.68,2141.98 1500.00,2266.81 1689.32,2141.98" fill="#e2f999" stroke="#e2f999" stroke-width="0.5" stroke-linecap="round" stroke-linejoin="round"/>
  <polygon points="1500.00,2393.70 1500.00,2266.81 1310.68,2141.98 1314.26,2266.33" fill="#e2f999" stroke="#e2f999" stroke-width="0.5" stroke-linecap="round" stroke-linejoin="round"/>
  <polygon points="1689.32,2141.98 1500.00,2266.81 1500.00,2393.70 1685.74,2266.33" fill="#e2f999" stroke="#e2f999" stroke-width="0.5" stroke-linecap="round" stroke-linejoin="round"/>
  <polygon points="1511.70,1806.51 1511.75,1775.44 1500.00,1774.15 1500.00,1805.21" fill="#60afff" stroke="#60afff" stroke-width="0.5" stroke-linecap="round" stroke-linejoin="round"/>
  <polygon points="1500.00,1805.21 1500.00,1774.15 1488.25,1775.44 1488.30,1806.51" fill="#60afff" stroke="#60afff" stroke-width="0.5" stroke-linecap="round" stroke-linejoin="round"/>
  <polygon points="1488.30,1806.51 1488.25,1775.44 1478.29,1779.15 1478.39,1810.25" fill="#60afff" stroke="#60afff" stroke-width="0.5" stroke-linecap="round" stroke-linejoin="round"/>
  <polygon points="1521.61,1810.25 1521.71,1779.15 1511.75,1775.44 1511.70,1806.51" fill="#60afff" stroke="#60afff" stroke-width="0.5" stroke-linecap="round" stroke-linejoin="round"/>
  <polygon points="1500.00,1768.45 1484.37,1770.19 1488.25,1775.44 1500.00,1774.15 1511.75,1775.44 1521.71,1779.15 1528.90,1775.12 1515.63,1770.19" fill="#60afff" stroke="#60afff" stroke-width="0.5" stroke-linecap="round" stroke-linejoin="round"/>
  <polygon points="1528.30,1815.84 1528.42,1784.70 1521.71,1779.15 1521.61,1810.25" fill="#60afff" stroke="#60afff" stroke-width="0.5" stroke-linecap="round" stroke-linejoin="round"/>
  <polygon points="1478.39,1810.25 1478.29,1779.15 1471.58,1784.70 1471.70,1815.84" fill="#60afff" stroke="#60afff" stroke-width="0.5" stroke-linecap="round" stroke-linejoin="round"/>
  <polygon points="1500.00,1900.17 1306.96,2012.74 1500.00,2134.73 1693.04,2012.74" fill="#f4f4f4" stroke="#f4f4f4" stroke-width="0.5" stroke-linecap="round" stroke-linejoin="round"/>
  <polygon points="1471.70,1815.84 1471.58,1784.70 1469.18,1791.32 1469.32,1822.50" fill="#60afff" stroke="#60afff" stroke-width="0.5" stroke-linecap="round" stroke-linejoin="round"/>
  <polygon points="1530.68,1822.50 1530.82,1791.32 1528.42,1784.70 1528.30,1815.84" fill="#60afff" stroke="#60afff" stroke-width="0.5" stroke-linecap="round" stroke-linejoin="round"/>
  <polygon points="1461.88,1800.17 1458.86,1791.32 1459.04,1822.50 1462.06,1831.42" fill="#60afff" stroke="#60afff" stroke-width="0.5" stroke-linecap="round" stroke-linejoin="round"/>
  <polygon points="1541.14,1791.32 1538.12,1800.17 1537.94,1831.42 1540.96,1822.50" fill="#60afff" stroke="#60afff" stroke-width="0.5" stroke-linecap="round" stroke-linejoin="round"/>
  <polygon points="1537.87,1782.52 1528.90,1775.12 1521.71,1779.15 1528.42,1784.70 1530.82,1791.32 1528.56,1797.96 1521.91,1803.59 1511.89,1807.38 1500.00,1808.70 1488.11,1807.38 1478.09,1803.59 1471.44,1797.96 1469.18,1791.32 1471.58,1784.70 1478.29,1779.15 1488.25,1775.44 1484.37,1770.19 1471.10,1775.12 1462.13,1782.52 1458.86,1791.32 1461.88,1800.17 1470.75,1807.71 1484.13,1812.78 1500.00,1814.58 1515.87,1812.78 1529.25,1807.71 1538.12,1800.17 1541.14,1791.32" fill="#60afff" stroke="#60afff" stroke-width="0.5" stroke-linecap="round" stroke-linejoin="round"/>
  <polygon points="1538.12,1800.17 1529.25,1807.71 1529.12,1839.01 1537.94,1831.42" fill="#60afff" stroke="#60afff" stroke-width="0.5" stroke-linecap="round" stroke-linejoin="round"/>
  <polygon points="1470.75,1807.71 1461.88,1800.17 1462.06,1831.42 1470.88,1839.01" fill="#60afff" stroke="#60afff" stroke-width="0.5" stroke-linecap="round" stroke-linejoin="round"/>
  <polygon points="1484.13,1812.78 1470.75,1807.71 1470.88,1839.01 1484.20,1844.11" fill="#60afff" stroke="#60afff" stroke-width="0.5" stroke-linecap="round" stroke-linejoin="round"/>
  <polygon points="1529.25,1807.71 1515.87,1812.78 1515.80,1844.11 1529.12,1839.01" fill="#60afff" stroke="#60afff" stroke-width="0.5" stroke-linecap="round" stroke-linejoin="round"/>
  <polygon points="1500.00,1814.58 1484.13,1812.78 1484.20,1844.11 1500.00,1845.92" fill="#60afff" stroke="#60afff" stroke-width="0.5" stroke-linecap="round" stroke-linejoin="round"/>
  <polygon points="1515.87,1812.78 1500.00,1814.58 1500.00,1845.92 1515.80,1844.11" fill="#60afff" stroke="#60afff" stroke-width="0.5" stroke-linecap="round" stroke-linejoin="round"/>
  <polygon points="1693.04,2012.74 1500.00,2134.73 1500.00,2266.81 1689.32,2141.98" fill="#f4f4f4" stroke="#f4f4f4" stroke-width="0.5" stroke-linecap="round" stroke-linejoin="round"/>
  <polygon points="1500.00,2266.81 1500.00,2134.73 1306.96,2012.74 1310.68,2141.98" fill="#f4f4f4" stroke="#f4f4f4" stroke-width="0.5" stroke-linecap="round" stroke-linejoin="round"/>
  <polygon points="1597.82,1860.33 1598.27,1828.88 1586.32,1830.22 1585.93,1861.68" fill="#60afff" stroke="#60afff" stroke-width="0.5" stroke-linecap="round" stroke-linejoin="round"/>
  <polygon points="1402.18,1860.33 1401.73,1828.88 1389.69,1830.22 1390.19,1861.68" fill="#60afff" stroke="#60afff" stroke-width="0.5" stroke-linecap="round" stroke-linejoin="round"/>
  <polygon points="1414.07,1861.68 1413.68,1830.22 1401.73,1828.88 1402.18,1860.33" fill="#60afff" stroke="#60afff" stroke-width="0.5" stroke-linecap="round" stroke-linejoin="round"/>
  <polygon points="1609.81,1861.68 1610.31,1830.22 1598.27,1828.88 1597.82,1860.33" fill="#60afff" stroke="#60afff" stroke-width="0.5" stroke-linecap="round" stroke-linejoin="round"/>
  <polygon points="1585.93,1861.68 1586.32,1830.22 1576.30,1834.09 1575.95,1865.57" fill="#60afff" stroke="#60afff" stroke-width="0.5" stroke-linecap="round" stroke-linejoin="round"/>
  <polygon points="1424.05,1865.57 1423.70,1834.09 1413.68,1830.22 1414.07,1861.68" fill="#60afff" stroke="#60afff" stroke-width="0.5" stroke-linecap="round" stroke-linejoin="round"/>
  <polygon points="1620.05,1865.57 1620.61,1834.09 1610.31,1830.22 1609.81,1861.68" fill="#60afff" stroke="#60afff" stroke-width="0.5" stroke-linecap="round" stroke-linejoin="round"/>
  <polygon points="1390.19,1861.68 1389.69,1830.22 1379.39,1834.09 1379.95,1865.57" fill="#60afff" stroke="#60afff" stroke-width="0.5" stroke-linecap="round" stroke-linejoin="round"/>
  <polygon points="1430.66,1871.39 1430.34,1839.87 1423.70,1834.09 1424.05,1865.57" fill="#60afff" stroke="#60afff" stroke-width="0.5" stroke-linecap="round" stroke-linejoin="round"/>
  <polygon points="1379.95,1865.57 1379.39,1834.09 1372.33,1839.87 1372.92,1871.39" fill="#60afff" stroke="#60afff" stroke-width="0.5" stroke-linecap="round" stroke-linejoin="round"/>
  <polygon points="1627.08,1871.39 1627.67,1839.87 1620.61,1834.09 1620.05,1865.57" fill="#60afff" stroke="#60afff" stroke-width="0.5" stroke-linecap="round" stroke-linejoin="round"/>
  <polygon points="1575.95,1865.57 1576.30,1834.09 1569.66,1839.87 1569.34,1871.39" fill="#60afff" stroke="#60afff" stroke-width="0.5" stroke-linecap="round" stroke-linejoin="round"/>
  <polygon points="1500.00,1768.87 1303.09,1878.33 1500.00,1997.13 1696.91,1878.33" fill="#60afff" stroke="#60afff" stroke-width="0.5" stroke-linecap="round" stroke-linejoin="round"/>
  <polygon points="1629.76,1878.33 1630.36,1846.76 1627.67,1839.87 1627.08,1871.39" fill="#60afff" stroke="#60afff" stroke-width="0.5" stroke-linecap="round" stroke-linejoin="round"/>
  <polygon points="1372.92,1871.39 1372.33,1839.87 1369.64,1846.76 1370.24,1878.33" fill="#60afff" stroke="#60afff" stroke-width="0.5" stroke-linecap="round" stroke-linejoin="round"/>
  <polygon points="1432.85,1878.33 1432.54,1846.76 1430.34,1839.87 1430.66,1871.39" fill="#60afff" stroke="#60afff" stroke-width="0.5" stroke-linecap="round" stroke-linejoin="round"/>
  <polygon points="1569.34,1871.39 1569.66,1839.87 1567.46,1846.76 1567.15,1878.33" fill="#60afff" stroke="#60afff" stroke-width="0.5" stroke-linecap="round" stroke-linejoin="round"/>
  <polygon points="1559.94,1837.59 1556.92,1846.76 1560.34,1855.98 1570.01,1853.68 1567.46,1846.76 1569.66,1839.87 1576.30,1834.09" fill="#60afff" stroke="#60afff" stroke-width="0.5" stroke-linecap="round" stroke-linejoin="round"/>
  <polygon points="1361.86,1855.98 1359.10,1846.76 1359.75,1878.33 1362.49,1887.61" fill="#60afff" stroke="#60afff" stroke-width="0.5" stroke-linecap="round" stroke-linejoin="round"/>
  <polygon points="1640.90,1846.76 1638.14,1855.98 1637.51,1887.61 1640.25,1878.33" fill="#60afff" stroke="#60afff" stroke-width="0.5" stroke-linecap="round" stroke-linejoin="round"/>
  <polygon points="1560.34,1855.98 1556.92,1846.76 1556.66,1878.33 1560.06,1887.61" fill="#60afff" stroke="#60afff" stroke-width="0.5" stroke-linecap="round" stroke-linejoin="round"/>
  <polygon points="1443.08,1846.76 1439.66,1855.98 1439.94,1887.61 1443.34,1878.33" fill="#60afff" stroke="#60afff" stroke-width="0.5" stroke-linecap="round" stroke-linejoin="round"/>
  <polygon points="1384.08,1869.12 1400.22,1870.99 1416.49,1869.12 1430.33,1863.84 1439.66,1855.98 1443.08,1846.76 1440.06,1837.59 1431.19,1829.89 1417.83,1824.76 1401.95,1822.95 1385.94,1824.76 1372.21,1829.89 1362.78,1837.59 1359.10,1846.76 1361.86,1855.98 1370.62,1863.84 1371.69,1853.68 1369.64,1846.76 1372.33,1839.87 1379.39,1834.09 1389.69,1830.22 1401.73,1828.88 1413.68,1830.22 1423.70,1834.09 1430.34,1839.87 1432.54,1846.76 1429.99,1853.68 1422.99,1859.55 1412.63,1863.50 1400.44,1864.87 1388.35,1863.50 1378.27,1859.55" fill="#60afff" stroke="#60afff" stroke-width="0.5" stroke-linecap="round" stroke-linejoin="round"/>
  <polygon points="1582.17,1824.76 1568.81,1829.89 1559.94,1837.59 1576.30,1834.09 1586.32,1830.22 1598.27,1828.88 1610.31,1830.22 1620.61,1834.09 1627.67,1839.87 1630.36,1846.76 1628.31,1853.68 1621.73,1859.55 1611.65,1863.50 1599.56,1864.87 1587.37,1863.50 1577.01,1859.55 1570.01,1853.68 1560.34,1855.98 1569.67,1863.84 1583.51,1869.12 1599.78,1870.99 1615.92,1869.12 1629.38,1863.84 1638.14,1855.98 1640.90,1846.76 1637.22,1837.59 1627.79,1829.89 1614.06,1824.76 1598.05,1822.95" fill="#60afff" stroke="#60afff" stroke-width="0.5" stroke-linecap="round" stroke-linejoin="round"/>
  <polygon points="1370.62,1863.84 1361.86,1855.98 1362.49,1887.61 1371.22,1895.52" fill="#60afff" stroke="#60afff" stroke-width="0.5" stroke-linecap="round" stroke-linejoin="round"/>
  <polygon points="1638.14,1855.98 1629.38,1863.84 1628.78,1895.52 1637.51,1887.61" fill="#60afff" stroke="#60afff" stroke-width="0.5" stroke-linecap="round" stroke-linejoin="round"/>
  <polygon points="1439.66,1855.98 1430.33,1863.84 1430.66,1895.52 1439.94,1887.61" fill="#60afff" stroke="#60afff" stroke-width="0.5" stroke-linecap="round" stroke-linejoin="round"/>
  <polygon points="1569.67,1863.84 1560.34,1855.98 1560.06,1887.61 1569.34,1895.52" fill="#60afff" stroke="#60afff" stroke-width="0.5" stroke-linecap="round" stroke-linejoin="round"/>
  <polygon points="1583.51,1869.12 1569.67,1863.84 1569.34,1895.52 1583.12,1900.84" fill="#60afff" stroke="#60afff" stroke-width="0.5" stroke-linecap="round" stroke-linejoin="round"/>
  <polygon points="1384.08,1869.12 1370.62,1863.84 1371.22,1895.52 1384.62,1900.84" fill="#60afff" stroke="#60afff" stroke-width="0.5" stroke-linecap="round" stroke-linejoin="round"/>
  <polygon points="1430.33,1863.84 1416.49,1869.12 1416.88,1900.84 1430.66,1895.52" fill="#60afff" stroke="#60afff" stroke-width="0.5" stroke-linecap="round" stroke-linejoin="round"/>
  <polygon points="1629.38,1863.84 1615.92,1869.12 1615.38,1900.84 1628.78,1895.52" fill="#60afff" stroke="#60afff" stroke-width="0.5" stroke-linecap="round" stroke-linejoin="round"/>
  <polygon points="1370.62,1863.84 1384.08,1869.12 1378.27,1859.55 1371.69,1853.68" fill="#60afff" stroke="#60afff" stroke-width="0.5" stroke-linecap="round" stroke-linejoin="round"/>
  <polygon points="1696.91,1878.33 1500.00,1997.13 1500.00,2134.73 1693.04,2012.74" fill="#60afff" stroke="#60afff" stroke-width="0.5" stroke-linecap="round" stroke-linejoin="round"/>
  <polygon points="1500.00,2134.73 1500.00,1997.13 1303.09,1878.33 1306.96,2012.74" fill="#60afff" stroke="#60afff" stroke-width="0.5" stroke-linecap="round" stroke-linejoin="round"/>
  <polygon points="1599.78,1870.99 1583.51,1869.12 1583.12,1900.84 1599.32,1902.72" fill="#60afff" stroke="#60afff" stroke-width="0.5" stroke-linecap="round" stroke-linejoin="round"/>
  <polygon points="1400.22,1870.99 1384.08,1869.12 1384.62,1900.84 1400.68,1902.72" fill="#60afff" stroke="#60afff" stroke-width="0.5" stroke-linecap="round" stroke-linejoin="round"/>
  <polygon points="1416.49,1869.12 1400.22,1870.99 1400.68,1902.72 1416.88,1900.84" fill="#60afff" stroke="#60afff" stroke-width="0.5" stroke-linecap="round" stroke-linejoin="round"/>
  <polygon points="1615.92,1869.12 1599.78,1870.99 1599.32,1902.72 1615.38,1900.84" fill="#60afff" stroke="#60afff" stroke-width="0.5" stroke-linecap="round" stroke-linejoin="round"/>
  <polygon points="1500.00,1917.73 1500.00,1885.90 1487.76,1887.29 1487.81,1919.14" fill="#60afff" stroke="#60afff" stroke-width="0.5" stroke-linecap="round" stroke-linejoin="round"/>
  <polygon points="1512.19,1919.14 1512.24,1887.29 1500.00,1885.90 1500.00,1917.73" fill="#60afff" stroke="#60afff" stroke-width="0.5" stroke-linecap="round" stroke-linejoin="round"/>
  <polygon points="1522.51,1923.19 1522.61,1891.32 1512.24,1887.29 1512.19,1919.14" fill="#60afff" stroke="#60afff" stroke-width="0.5" stroke-linecap="round" stroke-linejoin="round"/>
  <polygon points="1487.81,1919.14 1487.76,1887.29 1477.39,1891.32 1477.49,1923.19" fill="#60afff" stroke="#60afff" stroke-width="0.5" stroke-linecap="round" stroke-linejoin="round"/>
  <polygon points="1477.49,1923.19 1477.39,1891.32 1470.39,1897.35 1470.52,1929.26" fill="#60afff" stroke="#60afff" stroke-width="0.5" stroke-linecap="round" stroke-linejoin="round"/>
  <polygon points="1529.48,1929.26 1529.61,1897.35 1522.61,1891.32 1522.51,1923.19" fill="#60afff" stroke="#60afff" stroke-width="0.5" stroke-linecap="round" stroke-linejoin="round"/>
  <polygon points="1470.52,1929.26 1470.39,1897.35 1467.89,1904.53 1468.04,1936.48" fill="#60afff" stroke="#60afff" stroke-width="0.5" stroke-linecap="round" stroke-linejoin="round"/>
  <polygon points="1531.96,1936.48 1532.11,1904.53 1529.61,1897.35 1529.48,1929.26" fill="#60afff" stroke="#60afff" stroke-width="0.5" stroke-linecap="round" stroke-linejoin="round"/>
  <polygon points="1483.72,1881.60 1469.89,1886.95 1460.55,1894.98 1457.13,1904.53 1460.28,1914.15 1469.51,1922.34 1477.17,1917.86 1470.23,1911.74 1467.89,1904.53 1470.39,1897.35 1477.39,1891.32 1487.76,1887.29 1500.00,1885.90 1512.24,1887.29 1522.61,1891.32 1529.61,1897.35 1532.11,1904.53 1529.77,1911.74 1522.83,1917.86 1512.40,1921.98 1516.55,1927.84 1530.49,1922.34 1539.72,1914.15 1542.87,1904.53 1539.45,1894.98 1530.11,1886.95 1516.28,1881.60 1500.00,1879.71" fill="#60afff" stroke="#60afff" stroke-width="0.5" stroke-linecap="round" stroke-linejoin="round"/>
  <polygon points="1542.87,1904.53 1539.72,1914.15 1539.53,1946.17 1542.67,1936.48" fill="#60afff" stroke="#60afff" stroke-width="0.5" stroke-linecap="round" stroke-linejoin="round"/>
  <polygon points="1460.28,1914.15 1457.13,1904.53 1457.33,1936.48 1460.47,1946.17" fill="#60afff" stroke="#60afff" stroke-width="0.5" stroke-linecap="round" stroke-linejoin="round"/>
  <polygon points="1469.51,1922.34 1460.28,1914.15 1460.47,1946.17 1469.66,1954.41" fill="#60afff" stroke="#60afff" stroke-width="0.5" stroke-linecap="round" stroke-linejoin="round"/>
  <polygon points="1539.72,1914.15 1530.49,1922.34 1530.34,1954.41 1539.53,1946.17" fill="#60afff" stroke="#60afff" stroke-width="0.5" stroke-linecap="round" stroke-linejoin="round"/>
  <polygon points="1483.45,1927.84 1469.51,1922.34 1469.66,1954.41 1483.53,1959.95" fill="#60afff" stroke="#60afff" stroke-width="0.5" stroke-linecap="round" stroke-linejoin="round"/>
  <polygon points="1530.49,1922.34 1516.55,1927.84 1516.47,1959.95 1530.34,1954.41" fill="#60afff" stroke="#60afff" stroke-width="0.5" stroke-linecap="round" stroke-linejoin="round"/>
  <polygon points="1516.55,1927.84 1500.00,1929.79 1500.00,1961.91 1516.47,1959.95" fill="#60afff" stroke="#60afff" stroke-width="0.5" stroke-linecap="round" stroke-linejoin="round"/>
  <polygon points="1500.00,1929.79 1483.45,1927.84 1483.53,1959.95 1500.00,1961.91" fill="#60afff" stroke="#60afff" stroke-width="0.5" stroke-linecap="round" stroke-linejoin="round"/>
  <polygon points="1483.45,1927.84 1500.00,1929.79 1516.55,1927.84 1512.40,1921.98 1500.00,1923.41 1487.60,1921.98 1477.17,1917.86 1469.51,1922.34" fill="#60afff" stroke="#60afff" stroke-width="0.5" stroke-linecap="round" stroke-linejoin="round"/>
  <polygon points="1500.00,1188.86 1285.92,1282.05 1500.00,1383.93 1714.08,1282.05" fill="#ff9ecc" stroke="#ff9ecc" stroke-width="0.5" stroke-linecap="round" stroke-linejoin="round"/>
  <polygon points="1714.08,1282.05 1500.00,1383.93 1500.00,1547.49 1709.51,1440.66" fill="#ff9ecc" stroke="#ff9ecc" stroke-width="0.5" stroke-linecap="round" stroke-linejoin="round"/>
  <polygon points="1500.00,1547.49 1500.00,1383.93 1285.92,1282.05 1290.49,1440.66" fill="#ff9ecc" stroke="#ff9ecc" stroke-width="0.5" stroke-linecap="round" stroke-linejoin="round"/>
  <polygon points="1500.00,1028.40 1281.15,1116.38 1500.00,1212.73 1718.85,1116.38" fill="#7cb538" stroke="#7cb538" stroke-width="0.5" stroke-linecap="round" stroke-linejoin="round"/>
  <polygon points="1500.00,1383.93 1500.00,1212.73 1281.15,1116.38 1285.92,1282.05" fill="#7cb538" stroke="#7cb538" stroke-width="0.5" stroke-linecap="round" stroke-linejoin="round"/>
  <polygon points="1718.85,1116.38 1500.00,1212.73 1500.00,1383.93 1714.08,1282.05" fill="#7cb538" stroke="#7cb538" stroke-width="0.5" stroke-linecap="round" stroke-linejoin="round"/>
  <polygon points="1500.00,860.96 1276.16,943.15 1500.00,1033.36 1723.84,943.15" fill="#f9c60a" stroke="#f9c60a" stroke-width="0.5" stroke-linecap="round" stroke-linejoin="round"/>
  <polygon points="1723.84,943.15 1500.00,1033.36 1500.00,1212.73 1718.85,1116.38" fill="#f9c60a" stroke="#f9c60a" stroke-width="0.5" stroke-linecap="round" stroke-linejoin="round"/>
  <polygon points="1500.00,1212.73 1500.00,1033.36 1276.16,943.15 1281.15,1116.38" fill="#f9c60a" stroke="#f9c60a" stroke-width="0.5" stroke-linecap="round" stroke-linejoin="round"/>
  <polygon points="1513.87,526.69 1513.94,483.01 1500.00,482.22 1500.00,525.88" fill="#f7ad63" stroke="#f7ad63" stroke-width="0.5" stroke-linecap="round" stroke-linejoin="round"/>
  <polygon points="1500.00,525.88 1500.00,482.22 1486.06,483.01 1486.13,526.69" fill="#f7ad63" stroke="#f7ad63" stroke-width="0.5" stroke-linecap="round" stroke-linejoin="round"/>
  <polygon points="1525.62,529.03 1525.76,485.29 1513.94,483.01 1513.87,526.69" fill="#f7ad63" stroke="#f7ad63" stroke-width="0.5" stroke-linecap="round" stroke-linejoin="round"/>
  <polygon points="1486.13,526.69 1486.06,483.01 1474.24,485.29 1474.38,529.03" fill="#f7ad63" stroke="#f7ad63" stroke-width="0.5" stroke-linecap="round" stroke-linejoin="round"/>
  <polygon points="1474.38,529.03 1474.24,485.29 1466.26,488.71 1466.44,532.54" fill="#f7ad63" stroke="#f7ad63" stroke-width="0.5" stroke-linecap="round" stroke-linejoin="round"/>
  <polygon points="1533.56,532.54 1533.74,488.71 1525.76,485.29 1525.62,529.03" fill="#f7ad63" stroke="#f7ad63" stroke-width="0.5" stroke-linecap="round" stroke-linejoin="round"/>
  <polygon points="1500.00,686.06 1270.94,761.84 1500.00,845.19 1729.06,761.84" fill="#77c9d8" stroke="#77c9d8" stroke-width="0.5" stroke-linecap="round" stroke-linejoin="round"/>
  <polygon points="1536.40,536.71 1536.60,492.78 1533.74,488.71 1533.56,532.54" fill="#f7ad63" stroke="#f7ad63" stroke-width="0.5" stroke-linecap="round" stroke-linejoin="round"/>
  <polygon points="1466.44,532.54 1466.26,488.71 1463.40,492.78 1463.60,536.71" fill="#f7ad63" stroke="#f7ad63" stroke-width="0.5" stroke-linecap="round" stroke-linejoin="round"/>
  <polygon points="1454.71,498.23 1451.15,492.78 1451.41,536.71 1454.95,542.31" fill="#f7ad63" stroke="#f7ad63" stroke-width="0.5" stroke-linecap="round" stroke-linejoin="round"/>
  <polygon points="1548.86,492.78 1545.29,498.23 1545.05,542.31 1548.59,536.71" fill="#f7ad63" stroke="#f7ad63" stroke-width="0.5" stroke-linecap="round" stroke-linejoin="round"/>
  <polygon points="1525.76,485.29 1533.74,488.71 1544.94,487.36 1534.28,482.81 1518.53,479.79 1500.00,478.72 1481.47,479.79 1465.72,482.81 1455.06,487.36 1451.15,492.78 1454.71,498.23 1465.22,502.89 1481.12,506.01 1500.00,507.12 1518.88,506.01 1534.78,502.89 1545.29,498.23 1526.04,500.34 1514.14,502.68 1500.00,503.50 1485.86,502.68 1473.97,500.34 1466.07,496.87 1463.40,492.78 1466.26,488.71 1474.24,485.29 1486.06,483.01 1500.00,482.22 1513.94,483.01" fill="#f7ad63" stroke="#f7ad63" stroke-width="0.5" stroke-linecap="round" stroke-linejoin="round"/>
  <polygon points="1545.29,498.23 1548.86,492.78 1544.94,487.36 1533.74,488.71 1536.60,492.78 1533.94,496.87 1526.04,500.34" fill="#f7ad63" stroke="#f7ad63" stroke-width="0.5" stroke-linecap="round" stroke-linejoin="round"/>
  <polygon points="1465.22,502.89 1454.71,498.23 1454.95,542.31 1465.41,547.08" fill="#f7ad63" stroke="#f7ad63" stroke-width="0.5" stroke-linecap="round" stroke-linejoin="round"/>
  <polygon points="1545.29,498.23 1534.78,502.89 1534.59,547.08 1545.05,542.31" fill="#f7ad63" stroke="#f7ad63" stroke-width="0.5" stroke-linecap="round" stroke-linejoin="round"/>
  <polygon points="1481.12,506.01 1465.22,502.89 1465.41,547.08 1481.22,550.29" fill="#f7ad63" stroke="#f7ad63" stroke-width="0.5" stroke-linecap="round" stroke-linejoin="round"/>
  <polygon points="1534.78,502.89 1518.88,506.01 1518.78,550.29 1534.59,547.08" fill="#f7ad63" stroke="#f7ad63" stroke-width="0.5" stroke-linecap="round" stroke-linejoin="round"/>
  <polygon points="1500.00,507.12 1481.12,506.01 1481.22,550.29 1500.00,551.43" fill="#f7ad63" stroke="#f7ad63" stroke-width="0.5" stroke-linecap="round" stroke-linejoin="round"/>
  <polygon points="1518.88,506.01 1500.00,507.12 1500.00,551.43 1518.78,550.29" fill="#f7ad63" stroke="#f7ad63" stroke-width="0.5" stroke-linecap="round" stroke-linejoin="round"/>
  <polygon points="1729.06,761.84 1500.00,845.19 1500.00,1033.36 1723.84,943.15" fill="#77c9d8" stroke="#77c9d8" stroke-width="0.5" stroke-linecap="round" stroke-linejoin="round"/>
  <polygon points="1500.00,1033.36 1500.00,845.19 1270.94,761.84 1276.16,943.15" fill="#77c9d8" stroke="#77c9d8" stroke-width="0.5" stroke-linecap="round" stroke-linejoin="round"/>
  <polygon points="1630.63,561.36 1631.35,516.80 1617.00,515.97 1616.36,560.50" fill="#f7ad63" stroke="#f7ad63" stroke-width="0.5" stroke-linecap="round" stroke-linejoin="round"/>
  <polygon points="1616.36,560.50 1617.00,515.97 1602.78,516.80 1602.23,561.36" fill="#f7ad63" stroke="#f7ad63" stroke-width="0.5" stroke-linecap="round" stroke-linejoin="round"/>
  <polygon points="1397.78,561.36 1397.22,516.80 1383.00,515.97 1383.64,560.50" fill="#f7ad63" stroke="#f7ad63" stroke-width="0.5" stroke-linecap="round" stroke-linejoin="round"/>
  <polygon points="1383.64,560.50 1383.00,515.97 1368.65,516.80 1369.37,561.36" fill="#f7ad63" stroke="#f7ad63" stroke-width="0.5" stroke-linecap="round" stroke-linejoin="round"/>
  <polygon points="1642.86,563.81 1643.65,519.19 1631.35,516.80 1630.63,561.36" fill="#f7ad63" stroke="#f7ad63" stroke-width="0.5" stroke-linecap="round" stroke-linejoin="round"/>
  <polygon points="1409.62,563.81 1409.12,519.19 1397.22,516.80 1397.78,561.36" fill="#f7ad63" stroke="#f7ad63" stroke-width="0.5" stroke-linecap="round" stroke-linejoin="round"/>
  <polygon points="1369.37,561.36 1368.65,516.80 1356.35,519.19 1357.14,563.81" fill="#f7ad63" stroke="#f7ad63" stroke-width="0.5" stroke-linecap="round" stroke-linejoin="round"/>
  <polygon points="1602.23,561.36 1602.78,516.80 1590.88,519.19 1590.38,563.81" fill="#f7ad63" stroke="#f7ad63" stroke-width="0.5" stroke-linecap="round" stroke-linejoin="round"/>
  <polygon points="1635.77,513.42 1616.70,512.30 1597.81,513.42 1602.78,516.80 1617.00,515.97 1631.35,516.80 1643.65,519.19 1652.16,516.59" fill="#f7ad63" stroke="#f7ad63" stroke-width="0.5" stroke-linecap="round" stroke-linejoin="round"/>
  <polygon points="1417.46,567.49 1417.00,522.78 1409.12,519.19 1409.62,563.81" fill="#f7ad63" stroke="#f7ad63" stroke-width="0.5" stroke-linecap="round" stroke-linejoin="round"/>
  <polygon points="1651.29,567.49 1652.12,522.78 1643.65,519.19 1642.86,563.81" fill="#f7ad63" stroke="#f7ad63" stroke-width="0.5" stroke-linecap="round" stroke-linejoin="round"/>
  <polygon points="1590.38,563.81 1590.88,519.19 1583.00,522.78 1582.54,567.49" fill="#f7ad63" stroke="#f7ad63" stroke-width="0.5" stroke-linecap="round" stroke-linejoin="round"/>
  <polygon points="1357.14,563.81 1356.35,519.19 1347.88,522.78 1348.71,567.49" fill="#f7ad63" stroke="#f7ad63" stroke-width="0.5" stroke-linecap="round" stroke-linejoin="round"/>
  <polygon points="1500.00,503.19 1265.47,571.87 1500.00,647.58 1734.53,571.87" fill="#f7ad63" stroke="#f7ad63" stroke-width="0.5" stroke-linecap="round" stroke-linejoin="round"/>
  <polygon points="1348.71,567.49 1347.88,522.78 1344.60,527.05 1345.45,571.87" fill="#f7ad63" stroke="#f7ad63" stroke-width="0.5" stroke-linecap="round" stroke-linejoin="round"/>
  <polygon points="1654.55,571.87 1655.40,527.05 1652.12,522.78 1651.29,567.49" fill="#f7ad63" stroke="#f7ad63" stroke-width="0.5" stroke-linecap="round" stroke-linejoin="round"/>
  <polygon points="1582.54,567.49 1583.00,522.78 1580.41,527.05 1579.97,571.87" fill="#f7ad63" stroke="#f7ad63" stroke-width="0.5" stroke-linecap="round" stroke-linejoin="round"/>
  <polygon points="1420.03,571.87 1419.59,527.05 1417.00,522.78 1417.46,567.49" fill="#f7ad63" stroke="#f7ad63" stroke-width="0.5" stroke-linecap="round" stroke-linejoin="round"/>
  <polygon points="1432.14,527.05 1428.02,532.78 1428.42,577.74 1432.51,571.87" fill="#f7ad63" stroke="#f7ad63" stroke-width="0.5" stroke-linecap="round" stroke-linejoin="round"/>
  <polygon points="1667.96,527.05 1664.79,532.78 1663.88,577.74 1667.04,571.87" fill="#f7ad63" stroke="#f7ad63" stroke-width="0.5" stroke-linecap="round" stroke-linejoin="round"/>
  <polygon points="1571.98,532.78 1567.86,527.05 1567.49,571.87 1571.58,577.74" fill="#f7ad63" stroke="#f7ad63" stroke-width="0.5" stroke-linecap="round" stroke-linejoin="round"/>
  <polygon points="1335.21,532.78 1332.04,527.05 1332.96,571.87 1336.12,577.74" fill="#f7ad63" stroke="#f7ad63" stroke-width="0.5" stroke-linecap="round" stroke-linejoin="round"/>
  <polygon points="1345.58,537.66 1361.60,540.95 1380.85,542.11 1400.29,540.95 1416.85,537.66 1428.02,532.78 1408.11,534.99 1395.72,537.45 1381.17,538.30 1366.75,537.45 1354.76,534.99 1346.97,531.34 1344.60,527.05 1347.88,522.78 1356.35,519.19 1368.65,516.80 1383.00,515.97 1397.22,516.80 1409.12,519.19 1417.00,522.78 1428.60,521.37 1418.07,516.59 1402.19,513.42 1383.31,512.30 1364.24,513.42 1347.84,516.59 1336.52,521.37 1332.04,527.05 1335.21,532.78" fill="#f7ad63" stroke="#f7ad63" stroke-width="0.5" stroke-linecap="round" stroke-linejoin="round"/>
  <polygon points="1428.02,532.78 1432.14,527.05 1428.60,521.37 1417.00,522.78 1419.59,527.05 1416.51,531.34 1408.11,534.99" fill="#f7ad63" stroke="#f7ad63" stroke-width="0.5" stroke-linecap="round" stroke-linejoin="round"/>
  <polygon points="1663.48,521.37 1652.16,516.59 1643.65,519.19 1652.12,522.78 1655.40,527.05 1653.03,531.34 1645.24,534.99 1633.25,537.45 1618.84,538.30 1604.28,537.45 1591.89,534.99 1583.49,531.34 1580.41,527.05 1583.00,522.78 1590.88,519.19 1602.78,516.80 1597.81,513.42 1581.93,516.59 1571.40,521.37 1567.86,527.05 1571.98,532.78 1583.15,537.66 1599.71,540.95 1619.15,542.11 1638.40,540.95 1654.42,537.66 1664.79,532.78 1667.96,527.05" fill="#f7ad63" stroke="#f7ad63" stroke-width="0.5" stroke-linecap="round" stroke-linejoin="round"/>
  <polygon points="1583.15,537.66 1571.98,532.78 1571.58,577.74 1582.69,582.75" fill="#f7ad63" stroke="#f7ad63" stroke-width="0.5" stroke-linecap="round" stroke-linejoin="round"/>
  <polygon points="1345.58,537.66 1335.21,532.78 1336.12,577.74 1346.43,582.75" fill="#f7ad63" stroke="#f7ad63" stroke-width="0.5" stroke-linecap="round" stroke-linejoin="round"/>
  <polygon points="1664.79,532.78 1654.42,537.66 1653.57,582.75 1663.88,577.74" fill="#f7ad63" stroke="#f7ad63" stroke-width="0.5" stroke-linecap="round" stroke-linejoin="round"/>
  <polygon points="1428.02,532.78 1416.85,537.66 1417.31,582.75 1428.42,577.74" fill="#f7ad63" stroke="#f7ad63" stroke-width="0.5" stroke-linecap="round" stroke-linejoin="round"/>
  <polygon points="1361.60,540.95 1345.58,537.66 1346.43,582.75 1362.37,586.12" fill="#f7ad63" stroke="#f7ad63" stroke-width="0.5" stroke-linecap="round" stroke-linejoin="round"/>
  <polygon points="1599.71,540.95 1583.15,537.66 1582.69,582.75 1599.16,586.12" fill="#f7ad63" stroke="#f7ad63" stroke-width="0.5" stroke-linecap="round" stroke-linejoin="round"/>
  <polygon points="1416.85,537.66 1400.29,540.95 1400.84,586.12 1417.31,582.75" fill="#f7ad63" stroke="#f7ad63" stroke-width="0.5" stroke-linecap="round" stroke-linejoin="round"/>
  <polygon points="1654.42,537.66 1638.40,540.95 1637.63,586.12 1653.57,582.75" fill="#f7ad63" stroke="#f7ad63" stroke-width="0.5" stroke-linecap="round" stroke-linejoin="round"/>
  <polygon points="1734.53,571.87 1500.00,647.58 1500.00,845.19 1729.06,761.84" fill="#f7ad63" stroke="#f7ad63" stroke-width="0.5" stroke-linecap="round" stroke-linejoin="round"/>
  <polygon points="1500.00,845.19 1500.00,647.58 1265.47,571.87 1270.94,761.84" fill="#f7ad63" stroke="#f7ad63" stroke-width="0.5" stroke-linecap="round" stroke-linejoin="round"/>
  <polygon points="1380.85,542.11 1361.60,540.95 1362.37,586.12 1381.51,587.31" fill="#f7ad63" stroke="#f7ad63" stroke-width="0.5" stroke-linecap="round" stroke-linejoin="round"/>
  <polygon points="1638.40,540.95 1619.15,542.11 1618.49,587.31 1637.63,586.12" fill="#f7ad63" stroke="#f7ad63" stroke-width="0.5" stroke-linecap="round" stroke-linejoin="round"/>
  <polygon points="1400.29,540.95 1380.85,542.11 1381.51,587.31 1400.84,586.12" fill="#f7ad63" stroke="#f7ad63" stroke-width="0.5" stroke-linecap="round" stroke-linejoin="round"/>
  <polygon points="1619.15,542.11 1599.71,540.95 1599.16,586.12 1618.49,587.31" fill="#f7ad63" stroke="#f7ad63" stroke-width="0.5" stroke-linecap="round" stroke-linejoin="round"/>
  <polygon points="1514.56,597.74 1514.64,552.27 1500.00,551.40 1500.00,596.84" fill="#f7ad63" stroke="#f7ad63" stroke-width="0.5" stroke-linecap="round" stroke-linejoin="round"/>
  <polygon points="1500.00,596.84 1500.00,551.40 1485.36,552.27 1485.44,597.74" fill="#f7ad63" stroke="#f7ad63" stroke-width="0.5" stroke-linecap="round" stroke-linejoin="round"/>
  <polygon points="1485.44,597.74 1485.36,552.27 1472.96,554.79 1473.11,600.31" fill="#f7ad63" stroke="#f7ad63" stroke-width="0.5" stroke-linecap="round" stroke-linejoin="round"/>
  <polygon points="1526.89,600.31 1527.04,554.79 1514.64,552.27 1514.56,597.74" fill="#f7ad63" stroke="#f7ad63" stroke-width="0.5" stroke-linecap="round" stroke-linejoin="round"/>
  <polygon points="1473.11,600.31 1472.96,554.79 1464.57,558.55 1464.77,604.18" fill="#f7ad63" stroke="#f7ad63" stroke-width="0.5" stroke-linecap="round" stroke-linejoin="round"/>
  <polygon points="1535.23,604.18 1535.43,558.55 1527.04,554.79 1526.89,600.31" fill="#f7ad63" stroke="#f7ad63" stroke-width="0.5" stroke-linecap="round" stroke-linejoin="round"/>
  <polygon points="1538.22,608.78 1538.44,563.04 1535.43,558.55 1535.23,604.18" fill="#f7ad63" stroke="#f7ad63" stroke-width="0.5" stroke-linecap="round" stroke-linejoin="round"/>
  <polygon points="1464.77,604.18 1464.57,558.55 1461.56,563.04 1461.78,608.78" fill="#f7ad63" stroke="#f7ad63" stroke-width="0.5" stroke-linecap="round" stroke-linejoin="round"/>
  <polygon points="1480.55,548.72 1464.01,552.05 1452.81,557.07 1448.69,563.04 1452.42,569.06 1463.46,574.19 1464.35,567.56 1461.56,563.04 1464.57,558.55 1472.96,554.79 1485.36,552.27 1500.00,551.40 1514.64,552.27 1527.04,554.79 1535.43,558.55 1547.19,557.07 1535.99,552.05 1519.45,548.72 1500.00,547.54" fill="#f7ad63" stroke="#f7ad63" stroke-width="0.5" stroke-linecap="round" stroke-linejoin="round"/>
  <polygon points="1452.42,569.06 1448.69,563.04 1448.98,608.78 1452.69,614.95" fill="#f7ad63" stroke="#f7ad63" stroke-width="0.5" stroke-linecap="round" stroke-linejoin="round"/>
  <polygon points="1551.31,563.04 1547.58,569.06 1547.31,614.95 1551.02,608.78" fill="#f7ad63" stroke="#f7ad63" stroke-width="0.5" stroke-linecap="round" stroke-linejoin="round"/>
  <polygon points="1463.46,574.19 1452.42,569.06 1452.69,614.95 1463.67,620.21" fill="#f7ad63" stroke="#f7ad63" stroke-width="0.5" stroke-linecap="round" stroke-linejoin="round"/>
  <polygon points="1547.58,569.06 1536.54,574.19 1536.33,620.21 1547.31,614.95" fill="#f7ad63" stroke="#f7ad63" stroke-width="0.5" stroke-linecap="round" stroke-linejoin="round"/>
  <polygon points="1547.58,569.06 1551.31,563.04 1547.19,557.07 1535.43,558.55 1538.44,563.04 1535.65,567.56 1527.35,571.39 1514.86,573.97 1500.00,574.87 1485.14,573.97 1472.65,571.39 1464.35,567.56 1463.46,574.19 1480.16,577.65 1500.00,578.87 1519.84,577.65 1536.54,574.19" fill="#f7ad63" stroke="#f7ad63" stroke-width="0.5" stroke-linecap="round" stroke-linejoin="round"/>
  <polygon points="1536.54,574.19 1519.84,577.65 1519.72,623.76 1536.33,620.21" fill="#f7ad63" stroke="#f7ad63" stroke-width="0.5" stroke-linecap="round" stroke-linejoin="round"/>
  <polygon points="1480.16,577.65 1463.46,574.19 1463.67,620.21 1480.28,623.76" fill="#f7ad63" stroke="#f7ad63" stroke-width="0.5" stroke-linecap="round" stroke-linejoin="round"/>
  <polygon points="1500.00,578.87 1480.16,577.65 1480.28,623.76 1500.00,625.01" fill="#f7ad63" stroke="#f7ad63" stroke-width="0.5" stroke-linecap="round" stroke-linejoin="round"/>
  <polygon points="1519.84,577.65 1500.00,578.87 1500.00,625.01 1519.72,623.76" fill="#f7ad63" stroke="#f7ad63" stroke-width="0.5" stroke-linecap="round" stroke-linejoin="round"/>
  <path d="M 1314.26 2266.33 L 1500.00 2393.70 L 1685.74 2266.33 L 1689.32 2141.98 L 1500.00 2266.81 L 1500.00 2393.70 L 1685.74 2266.33 L 1689.32 2141.98 L 1500.00 2266.81 L 1310.68 2141.98 L 1314.26 2266.33 L 1500.00 2393.70 L 1500.00 2266.81 L 1310.68 2141.98 L 1314.26 2266.33" stroke="black" stroke-width="4" fill="none" stroke-linecap="round" stroke-linejoin="round"/>
  <path d="M 1310.68 2141.98 L 1500.00 2266.81 L 1689.32 2141.98 L 1693.04 2012.74 L 1500.00 2134.73 L 1500.00 2266.81 L 1689.32 2141.98 L 1693.04 2012.74 L 1500.00 2134.73 L 1306.96 2012.74 L 1310.68 2141.98 L 1500.00 2266.81 L 1500.00 2134.73 L 1306.96 2012.74 L 1310.68 2141.98" stroke="black" stroke-width="4" fill="none" stroke-linecap="round" stroke-linejoin="round"/>
  <path d="M 1306.96 2012.74 L 1500.00 2134.73 L 1693.04 2012.74 L 1696.91 1878.33 L 1500.00 1997.13 L 1500.00 2134.73 L 1693.04 2012.74 L 1696.91 1878.33 L 1640.89 1847.18 L 1696.91 1878.33 L 1500.00 1997.13 L 1303.09 1878.33 L 1359.11 1847.18 L 1303.09 1878.33 L 1306.96 2012.74 L 1500.00 2134.73 L 1500.00 1997.13 L 1303.09 1878.33 L 1306.96 2012.74" stroke="black" stroke-width="4" fill="none" stroke-linecap="round" stroke-linejoin="round"/>
  <path d="M 1597.42 1823.02 L 1541.14 1791.74 L 1597.42 1823.02" stroke="black" stroke-width="4" fill="none" stroke-linecap="round" stroke-linejoin="round"/>
  <path d="M 1458.86 1791.74 L 1402.58 1823.02 L 1458.86 1791.74" stroke="black" stroke-width="4" fill="none" stroke-linecap="round" stroke-linejoin="round"/>
  <path d="M 1500.00 1774.15 L 1511.75 1775.44" stroke="black" stroke-width="4" fill="none" stroke-linecap="round" stroke-linejoin="round"/>
  <path d="M 1521.71 1779.15 L 1528.42 1784.70" stroke="black" stroke-width="4" fill="none" stroke-linecap="round" stroke-linejoin="round"/>
  <path d="M 1500.00 1768.45 L 1515.63 1770.19 L 1528.90 1775.12" stroke="black" stroke-width="4" fill="none" stroke-linecap="round" stroke-linejoin="round"/>
  <path d="M 1488.25 1775.44 L 1478.29 1779.15" stroke="black" stroke-width="4" fill="none" stroke-linecap="round" stroke-linejoin="round"/>
  <path d="M 1471.10 1775.12 L 1462.13 1782.52 L 1458.86 1791.32 L 1461.88 1800.17 L 1470.75 1807.71" stroke="black" stroke-width="4" fill="none" stroke-linecap="round" stroke-linejoin="round"/>
  <path d="M 1471.58 1784.70 L 1469.18 1791.32" stroke="black" stroke-width="4" fill="none" stroke-linecap="round" stroke-linejoin="round"/>
  <path d="M 1478.09 1803.59 L 1488.11 1807.38 L 1500.00 1808.70" stroke="black" stroke-width="4" fill="none" stroke-linecap="round" stroke-linejoin="round"/>
  <path d="M 1500.00 1814.58 L 1515.87 1812.78 L 1529.25 1807.71" stroke="black" stroke-width="4" fill="none" stroke-linecap="round" stroke-linejoin="round"/>
  <path d="M 1521.91 1803.59 L 1528.56 1797.96 L 1530.82 1791.32" stroke="black" stroke-width="4" fill="none" stroke-linecap="round" stroke-linejoin="round"/>
  <path d="M 1528.56 1797.96 L 1530.82 1791.32 L 1528.42 1784.70 L 1521.71 1779.15 L 1511.75 1775.44 L 1500.00 1774.15 L 1488.25 1775.44 L 1478.29 1779.15 L 1471.58 1784.70 L 1469.18 1791.32 L 1471.44 1797.96 L 1478.09 1803.59 L 1488.11 1807.38 L 1500.00 1808.70 L 1511.89 1807.38 L 1521.91 1803.59 L 1528.56 1797.96" stroke="black" stroke-width="4" fill="none" stroke-linecap="round" stroke-linejoin="round"/>
  <path d="M 1512.95 1806.98 L 1511.70 1806.51 L 1500.00 1805.21 L 1488.30 1806.51 L 1487.05 1806.98" stroke="black" stroke-width="4" fill="none" stroke-linecap="round" stroke-linejoin="round"/>
  <path d="M 1458.86 1791.32 L 1461.88 1800.17 L 1470.75 1807.71 L 1484.13 1812.78 L 1500.00 1814.58 L 1515.87 1812.78 L 1529.25 1807.71 L 1538.12 1800.17 L 1541.14 1791.32 L 1537.87 1782.52 L 1528.90 1775.12 L 1515.63 1770.19 L 1500.00 1768.45 L 1484.37 1770.19 L 1471.10 1775.12 L 1462.13 1782.52 L 1458.86 1791.32 L 1459.04 1822.50 L 1462.06 1831.42 L 1470.88 1839.01 L 1484.20 1844.11 L 1500.00 1845.92 L 1515.80 1844.11 L 1529.12 1839.01 L 1537.94 1831.42 L 1540.96 1822.50 L 1541.14 1791.32" stroke="black" stroke-width="4" fill="none" stroke-linecap="round" stroke-linejoin="round"/>
  <path d="M 1576.30 1834.09 L 1586.32 1830.22 L 1598.27 1828.88 L 1610.31 1830.22" stroke="black" stroke-width="4" fill="none" stroke-linecap="round" stroke-linejoin="round"/>
  <path d="M 1620.61 1834.09 L 1627.67 1839.87" stroke="black" stroke-width="4" fill="none" stroke-linecap="round" stroke-linejoin="round"/>
  <path d="M 1598.05 1822.95 L 1614.06 1824.76 L 1627.79 1829.89" stroke="black" stroke-width="4" fill="none" stroke-linecap="round" stroke-linejoin="round"/>
  <path d="M 1568.81 1829.89 L 1559.94 1837.59 L 1556.92 1846.76 L 1560.34 1855.98 L 1569.67 1863.84" stroke="black" stroke-width="4" fill="none" stroke-linecap="round" stroke-linejoin="round"/>
  <path d="M 1577.01 1859.55 L 1587.37 1863.50 L 1599.56 1864.87 L 1611.65 1863.50" stroke="black" stroke-width="4" fill="none" stroke-linecap="round" stroke-linejoin="round"/>
  <path d="M 1599.78 1870.99 L 1615.92 1869.12 L 1629.38 1863.84" stroke="black" stroke-width="4" fill="none" stroke-linecap="round" stroke-linejoin="round"/>
  <path d="M 1621.73 1859.55 L 1628.31 1853.68 L 1630.36 1846.76 L 1627.67 1839.87 L 1620.61 1834.09 L 1610.31 1830.22 L 1598.27 1828.88 L 1586.32 1830.22 L 1576.30 1834.09 L 1569.66 1839.87 L 1567.46 1846.76 L 1570.01 1853.68 L 1577.01 1859.55 L 1587.37 1863.50 L 1599.56 1864.87 L 1611.65 1863.50 L 1621.73 1859.55 L 1628.31 1853.68" stroke="black" stroke-width="4" fill="none" stroke-linecap="round" stroke-linejoin="round"/>
  <path d="M 1613.10 1862.93 L 1609.81 1861.68 L 1597.82 1860.33 L 1585.93 1861.68 L 1584.28 1862.32" stroke="black" stroke-width="4" fill="none" stroke-linecap="round" stroke-linejoin="round"/>
  <path d="M 1556.92 1846.76 L 1560.34 1855.98 L 1569.67 1863.84 L 1583.51 1869.12 L 1599.78 1870.99 L 1615.92 1869.12 L 1629.38 1863.84 L 1638.14 1855.98 L 1640.90 1846.76 L 1637.22 1837.59 L 1627.79 1829.89 L 1614.06 1824.76 L 1598.05 1822.95 L 1582.17 1824.76 L 1568.81 1829.89 L 1559.94 1837.59 L 1556.92 1846.76 L 1556.66 1878.33 L 1560.06 1887.61 L 1569.34 1895.52 L 1583.12 1900.84 L 1599.32 1902.72 L 1615.38 1900.84 L 1628.78 1895.52 L 1637.51 1887.61 L 1640.25 1878.33 L 1640.90 1846.76" stroke="black" stroke-width="4" fill="none" stroke-linecap="round" stroke-linejoin="round"/>
  <path d="M 1423.70 1834.09 L 1430.34 1839.87 L 1432.54 1846.76 L 1429.99 1853.68 L 1422.99 1859.55" stroke="black" stroke-width="4" fill="none" stroke-linecap="round" stroke-linejoin="round"/>
  <path d="M 1401.95 1822.95 L 1417.83 1824.76 L 1431.19 1829.89" stroke="black" stroke-width="4" fill="none" stroke-linecap="round" stroke-linejoin="round"/>
  <path d="M 1389.69 1830.22 L 1379.39 1834.09" stroke="black" stroke-width="4" fill="none" stroke-linecap="round" stroke-linejoin="round"/>
  <path d="M 1372.21 1829.89 L 1362.78 1837.59 L 1359.10 1846.76 L 1361.86 1855.98 L 1370.62 1863.84" stroke="black" stroke-width="4" fill="none" stroke-linecap="round" stroke-linejoin="round"/>
  <path d="M 1372.33 1839.87 L 1369.64 1846.76 L 1371.69 1853.68" stroke="black" stroke-width="4" fill="none" stroke-linecap="round" stroke-linejoin="round"/>
  <path d="M 1378.27 1859.55 L 1388.35 1863.50" stroke="black" stroke-width="4" fill="none" stroke-linecap="round" stroke-linejoin="round"/>
  <path d="M 1400.22 1870.99 L 1416.49 1869.12 L 1430.33 1863.84" stroke="black" stroke-width="4" fill="none" stroke-linecap="round" stroke-linejoin="round"/>
  <path d="M 1429.99 1853.68 L 1432.54 1846.76 L 1430.34 1839.87 L 1423.70 1834.09 L 1413.68 1830.22 L 1401.73 1828.88 L 1389.69 1830.22 L 1379.39 1834.09 L 1372.33 1839.87 L 1369.64 1846.76 L 1371.69 1853.68 L 1378.27 1859.55 L 1388.35 1863.50 L 1400.44 1864.87 L 1412.63 1863.50 L 1422.99 1859.55 L 1429.99 1853.68" stroke="black" stroke-width="4" fill="none" stroke-linecap="round" stroke-linejoin="round"/>
  <path d="M 1415.72 1862.32 L 1414.07 1861.68 L 1402.18 1860.33 L 1390.19 1861.68 L 1386.90 1862.93" stroke="black" stroke-width="4" fill="none" stroke-linecap="round" stroke-linejoin="round"/>
  <path d="M 1359.10 1846.76 L 1361.86 1855.98 L 1370.62 1863.84 L 1384.08 1869.12 L 1400.22 1870.99 L 1416.49 1869.12 L 1430.33 1863.84 L 1439.66 1855.98 L 1443.08 1846.76 L 1440.06 1837.59 L 1431.19 1829.89 L 1417.83 1824.76 L 1401.95 1822.95 L 1385.94 1824.76 L 1372.21 1829.89 L 1362.78 1837.59 L 1359.10 1846.76 L 1359.75 1878.33 L 1362.49 1887.61 L 1371.22 1895.52 L 1384.62 1900.84 L 1400.68 1902.72 L 1416.88 1900.84 L 1430.66 1895.52 L 1439.94 1887.61 L 1443.34 1878.33 L 1443.08 1846.76" stroke="black" stroke-width="4" fill="none" stroke-linecap="round" stroke-linejoin="round"/>
  <path d="M 1522.61 1891.32 L 1529.61 1897.35 L 1532.11 1904.53" stroke="black" stroke-width="4" fill="none" stroke-linecap="round" stroke-linejoin="round"/>
  <path d="M 1500.00 1879.71 L 1516.28 1881.60 L 1530.11 1886.95" stroke="black" stroke-width="4" fill="none" stroke-linecap="round" stroke-linejoin="round"/>
  <path d="M 1500.00 1885.90 L 1487.76 1887.29 L 1477.39 1891.32" stroke="black" stroke-width="4" fill="none" stroke-linecap="round" stroke-linejoin="round"/>
  <path d="M 1469.89 1886.95 L 1460.55 1894.98 L 1457.13 1904.53 L 1460.28 1914.15 L 1469.51 1922.34" stroke="black" stroke-width="4" fill="none" stroke-linecap="round" stroke-linejoin="round"/>
  <path d="M 1467.89 1904.53 L 1470.23 1911.74" stroke="black" stroke-width="4" fill="none" stroke-linecap="round" stroke-linejoin="round"/>
  <path d="M 1477.17 1917.86 L 1487.60 1921.98" stroke="black" stroke-width="4" fill="none" stroke-linecap="round" stroke-linejoin="round"/>
  <path d="M 1500.00 1923.41 L 1512.40 1921.98" stroke="black" stroke-width="4" fill="none" stroke-linecap="round" stroke-linejoin="round"/>
  <path d="M 1500.00 1929.79 L 1516.55 1927.84 L 1530.49 1922.34" stroke="black" stroke-width="4" fill="none" stroke-linecap="round" stroke-linejoin="round"/>
  <path d="M 1522.83 1917.86 L 1529.77 1911.74 L 1532.11 1904.53 L 1529.61 1897.35 L 1522.61 1891.32 L 1512.24 1887.29 L 1500.00 1885.90 L 1487.76 1887.29 L 1477.39 1891.32 L 1470.39 1897.35 L 1467.89 1904.53 L 1470.23 1911.74 L 1477.17 1917.86 L 1487.60 1921.98 L 1500.00 1923.41 L 1512.40 1921.98 L 1522.83 1917.86 L 1529.77 1911.74" stroke="black" stroke-width="4" fill="none" stroke-linecap="round" stroke-linejoin="round"/>
  <path d="M 1515.90 1920.59 L 1512.19 1919.14 L 1500.00 1917.73 L 1487.81 1919.14 L 1484.10 1920.59" stroke="black" stroke-width="4" fill="none" stroke-linecap="round" stroke-linejoin="round"/>
  <path d="M 1457.13 1904.53 L 1460.28 1914.15 L 1469.51 1922.34 L 1483.45 1927.84 L 1500.00 1929.79 L 1516.55 1927.84 L 1530.49 1922.34 L 1539.72 1914.15 L 1542.87 1904.53 L 1539.45 1894.98 L 1530.11 1886.95 L 1516.28 1881.60 L 1500.00 1879.71 L 1483.72 1881.60 L 1469.89 1886.95 L 1460.55 1894.98 L 1457.13 1904.53 L 1457.33 1936.48 L 1460.47 1946.17 L 1469.66 1954.41 L 1483.53 1959.95 L 1500.00 1961.91 L 1516.47 1959.95 L 1530.34 1954.41 L 1539.53 1946.17 L 1542.67 1936.48 L 1542.87 1904.53" stroke="black" stroke-width="4" fill="none" stroke-linecap="round" stroke-linejoin="round"/>
  <path d="M 1290.49 1440.66 L 1500.00 1547.49 L 1709.51 1440.66 L 1714.08 1282.05 L 1500.00 1383.93 L 1500.00 1547.49 L 1709.51 1440.66 L 1714.08 1282.05 L 1500.00 1383.93 L 1285.92 1282.05 L 1290.49 1440.66 L 1500.00 1547.49 L 1500.00 1383.93 L 1285.92 1282.05 L 1290.49 1440.66" stroke="black" stroke-width="4" fill="none" stroke-linecap="round" stroke-linejoin="round"/>
  <path d="M 1285.92 1282.05 L 1500.00 1383.93 L 1714.08 1282.05 L 1718.85 1116.38 L 1500.00 1212.73 L 1500.00 1383.93 L 1714.08 1282.05 L 1718.85 1116.38 L 1500.00 1212.73 L 1281.15 1116.38 L 1285.92 1282.05 L 1500.00 1383.93 L 1500.00 1212.73 L 1281.15 1116.38 L 1285.92 1282.05" stroke="black" stroke-width="4" fill="none" stroke-linecap="round" stroke-linejoin="round"/>
  <path d="M 1281.15 1116.38 L 1500.00 1212.73 L 1718.85 1116.38 L 1723.84 943.15 L 1500.00 1033.36 L 1500.00 1212.73 L 1718.85 1116.38 L 1723.84 943.15 L 1500.00 1033.36 L 1276.16 943.15 L 1281.15 1116.38 L 1500.00 1212.73 L 1500.00 1033.36 L 1276.16 943.15 L 1281.15 1116.38" stroke="black" stroke-width="4" fill="none" stroke-linecap="round" stroke-linejoin="round"/>
  <path d="M 1276.16 943.15 L 1500.00 1033.36 L 1723.84 943.15 L 1729.06 761.84 L 1500.00 845.19 L 1500.00 1033.36 L 1723.84 943.15 L 1729.06 761.84 L 1500.00 845.19 L 1270.94 761.84 L 1276.16 943.15 L 1500.00 1033.36 L 1500.00 845.19 L 1270.94 761.84 L 1276.16 943.15" stroke="black" stroke-width="4" fill="none" stroke-linecap="round" stroke-linejoin="round"/>
  <path d="M 1270.94 761.84 L 1500.00 845.19 L 1729.06 761.84 L 1734.53 571.87 L 1500.00 647.58 L 1500.00 845.19 L 1729.06 761.84 L 1734.53 571.87 L 1667.45 552.22 L 1734.53 571.87 L 1500.00 647.58 L 1265.47 571.87 L 1332.56 552.22 L 1265.47 571.87 L 1270.94 761.84 L 1500.00 845.19 L 1500.00 647.58 L 1265.47 571.87 L 1270.94 761.84" stroke="black" stroke-width="4" fill="none" stroke-linecap="round" stroke-linejoin="round"/>
  <path d="M 1569.96 523.68 L 1548.71 517.46 L 1569.96 523.68" stroke="black" stroke-width="4" fill="none" stroke-linecap="round" stroke-linejoin="round"/>
  <path d="M 1451.29 517.46 L 1430.04 523.68 L 1451.29 517.46" stroke="black" stroke-width="4" fill="none" stroke-linecap="round" stroke-linejoin="round"/>
  <path d="M 1500.00 482.22 L 1513.94 483.01" stroke="black" stroke-width="4" fill="none" stroke-linecap="round" stroke-linejoin="round"/>
  <path d="M 1525.76 485.29 L 1533.74 488.71" stroke="black" stroke-width="4" fill="none" stroke-linecap="round" stroke-linejoin="round"/>
  <path d="M 1500.00 478.72 L 1518.53 479.79 L 1534.28 482.81" stroke="black" stroke-width="4" fill="none" stroke-linecap="round" stroke-linejoin="round"/>
  <path d="M 1486.06 483.01 L 1474.24 485.29" stroke="black" stroke-width="4" fill="none" stroke-linecap="round" stroke-linejoin="round"/>
  <path d="M 1465.72 482.81 L 1455.06 487.36 L 1451.15 492.78 L 1454.71 498.23 L 1465.22 502.89" stroke="black" stroke-width="4" fill="none" stroke-linecap="round" stroke-linejoin="round"/>
  <path d="M 1466.26 488.71 L 1463.40 492.78" stroke="black" stroke-width="4" fill="none" stroke-linecap="round" stroke-linejoin="round"/>
  <path d="M 1473.97 500.34 L 1485.86 502.68 L 1500.00 503.50" stroke="black" stroke-width="4" fill="none" stroke-linecap="round" stroke-linejoin="round"/>
  <path d="M 1500.00 507.12 L 1518.88 506.01 L 1534.78 502.89" stroke="black" stroke-width="4" fill="none" stroke-linecap="round" stroke-linejoin="round"/>
  <path d="M 1526.04 500.34 L 1533.94 496.87 L 1536.60 492.78" stroke="black" stroke-width="4" fill="none" stroke-linecap="round" stroke-linejoin="round"/>
  <path d="M 1533.94 496.87 L 1536.60 492.78 L 1533.74 488.71 L 1525.76 485.29 L 1513.94 483.01 L 1500.00 482.22 L 1486.06 483.01 L 1474.24 485.29 L 1466.26 488.71 L 1463.40 492.78 L 1466.07 496.87 L 1473.97 500.34 L 1485.86 502.68 L 1500.00 503.50 L 1514.14 502.68 L 1526.04 500.34 L 1533.94 496.87" stroke="black" stroke-width="4" fill="none" stroke-linecap="round" stroke-linejoin="round"/>
  <path d="M 1523.00 549.44 L 1534.59 547.08 L 1545.05 542.31 L 1548.59 536.71 L 1548.86 492.78" stroke="black" stroke-width="4" fill="none" stroke-linecap="round" stroke-linejoin="round"/>
  <path d="M 1545.29 498.23 L 1548.86 492.78 L 1544.94 487.36 L 1534.28 482.81 L 1518.53 479.79 L 1500.00 478.72 L 1481.47 479.79 L 1465.72 482.81 L 1455.06 487.36 L 1451.15 492.78 L 1454.71 498.23 L 1465.22 502.89 L 1481.12 506.01 L 1500.00 507.12 L 1518.88 506.01 L 1534.78 502.89 L 1545.29 498.23" stroke="black" stroke-width="4" fill="none" stroke-linecap="round" stroke-linejoin="round"/>
  <path d="M 1451.15 492.78 L 1451.41 536.71 L 1454.95 542.31 L 1465.41 547.08 L 1477.00 549.44" stroke="black" stroke-width="4" fill="none" stroke-linecap="round" stroke-linejoin="round"/>
  <path d="M 1590.88 519.19 L 1602.78 516.80 L 1617.00 515.97 L 1631.35 516.80" stroke="black" stroke-width="4" fill="none" stroke-linecap="round" stroke-linejoin="round"/>
  <path d="M 1643.65 519.19 L 1652.12 522.78" stroke="black" stroke-width="4" fill="none" stroke-linecap="round" stroke-linejoin="round"/>
  <path d="M 1616.70 512.30 L 1635.77 513.42 L 1652.16 516.59" stroke="black" stroke-width="4" fill="none" stroke-linecap="round" stroke-linejoin="round"/>
  <path d="M 1581.93 516.59 L 1571.40 521.37 L 1567.86 527.05 L 1571.98 532.78 L 1583.15 537.66" stroke="black" stroke-width="4" fill="none" stroke-linecap="round" stroke-linejoin="round"/>
  <path d="M 1591.89 534.99 L 1604.28 537.45 L 1618.84 538.30 L 1633.25 537.45" stroke="black" stroke-width="4" fill="none" stroke-linecap="round" stroke-linejoin="round"/>
  <path d="M 1619.15 542.11 L 1638.40 540.95 L 1654.42 537.66" stroke="black" stroke-width="4" fill="none" stroke-linecap="round" stroke-linejoin="round"/>
  <path d="M 1645.24 534.99 L 1653.03 531.34 L 1655.40 527.05 L 1652.12 522.78 L 1643.65 519.19 L 1631.35 516.80 L 1617.00 515.97 L 1602.78 516.80 L 1590.88 519.19 L 1583.00 522.78 L 1580.41 527.05 L 1583.49 531.34 L 1591.89 534.99 L 1604.28 537.45 L 1618.84 538.30 L 1633.25 537.45 L 1645.24 534.99 L 1653.03 531.34" stroke="black" stroke-width="4" fill="none" stroke-linecap="round" stroke-linejoin="round"/>
  <path d="M 1567.86 527.05 L 1571.98 532.78 L 1583.15 537.66 L 1599.71 540.95 L 1619.15 542.11 L 1638.40 540.95 L 1654.42 537.66 L 1664.79 532.78 L 1667.96 527.05 L 1663.48 521.37 L 1652.16 516.59 L 1635.77 513.42 L 1616.70 512.30 L 1597.81 513.42 L 1581.93 516.59 L 1571.40 521.37 L 1567.86 527.05 L 1567.49 571.87 L 1571.58 577.74 L 1582.69 582.75 L 1599.16 586.12 L 1618.49 587.31 L 1637.63 586.12 L 1653.57 582.75 L 1663.88 577.74 L 1667.04 571.87 L 1667.96 527.05" stroke="black" stroke-width="4" fill="none" stroke-linecap="round" stroke-linejoin="round"/>
  <path d="M 1409.12 519.19 L 1417.00 522.78 L 1419.59 527.05 L 1416.51 531.34 L 1408.11 534.99" stroke="black" stroke-width="4" fill="none" stroke-linecap="round" stroke-linejoin="round"/>
  <path d="M 1383.31 512.30 L 1402.19 513.42 L 1418.07 516.59" stroke="black" stroke-width="4" fill="none" stroke-linecap="round" stroke-linejoin="round"/>
  <path d="M 1368.65 516.80 L 1356.35 519.19" stroke="black" stroke-width="4" fill="none" stroke-linecap="round" stroke-linejoin="round"/>
  <path d="M 1347.84 516.59 L 1336.52 521.37 L 1332.04 527.05 L 1335.21 532.78 L 1345.58 537.66" stroke="black" stroke-width="4" fill="none" stroke-linecap="round" stroke-linejoin="round"/>
  <path d="M 1347.88 522.78 L 1344.60 527.05 L 1346.97 531.34" stroke="black" stroke-width="4" fill="none" stroke-linecap="round" stroke-linejoin="round"/>
  <path d="M 1354.76 534.99 L 1366.75 537.45" stroke="black" stroke-width="4" fill="none" stroke-linecap="round" stroke-linejoin="round"/>
  <path d="M 1380.85 542.11 L 1400.29 540.95 L 1416.85 537.66" stroke="black" stroke-width="4" fill="none" stroke-linecap="round" stroke-linejoin="round"/>
  <path d="M 1416.51 531.34 L 1419.59 527.05 L 1417.00 522.78 L 1409.12 519.19 L 1397.22 516.80 L 1383.00 515.97 L 1368.65 516.80 L 1356.35 519.19 L 1347.88 522.78 L 1344.60 527.05 L 1346.97 531.34 L 1354.76 534.99 L 1366.75 537.45 L 1381.17 538.30 L 1395.72 537.45 L 1408.11 534.99 L 1416.51 531.34" stroke="black" stroke-width="4" fill="none" stroke-linecap="round" stroke-linejoin="round"/>
  <path d="M 1332.04 527.05 L 1335.21 532.78 L 1345.58 537.66 L 1361.60 540.95 L 1380.85 542.11 L 1400.29 540.95 L 1416.85 537.66 L 1428.02 532.78 L 1432.14 527.05 L 1428.60 521.37 L 1418.07 516.59 L 1402.19 513.42 L 1383.31 512.30 L 1364.24 513.42 L 1347.84 516.59 L 1336.52 521.37 L 1332.04 527.05 L 1332.96 571.87 L 1336.12 577.74 L 1346.43 582.75 L 1362.37 586.12 L 1381.51 587.31 L 1400.84 586.12 L 1417.31 582.75 L 1428.42 577.74 L 1432.51 571.87 L 1432.14 527.05" stroke="black" stroke-width="4" fill="none" stroke-linecap="round" stroke-linejoin="round"/>
  <path d="M 1527.04 554.79 L 1535.43 558.55 L 1538.44 563.04" stroke="black" stroke-width="4" fill="none" stroke-linecap="round" stroke-linejoin="round"/>
  <path d="M 1500.00 547.54 L 1519.45 548.72 L 1535.99 552.05" stroke="black" stroke-width="4" fill="none" stroke-linecap="round" stroke-linejoin="round"/>
  <path d="M 1500.00 551.40 L 1485.36 552.27 L 1472.96 554.79" stroke="black" stroke-width="4" fill="none" stroke-linecap="round" stroke-linejoin="round"/>
  <path d="M 1464.01 552.05 L 1452.81 557.07 L 1448.69 563.04 L 1452.42 569.06 L 1463.46 574.19" stroke="black" stroke-width="4" fill="none" stroke-linecap="round" stroke-linejoin="round"/>
  <path d="M 1461.56 563.04 L 1464.35 567.56" stroke="black" stroke-width="4" fill="none" stroke-linecap="round" stroke-linejoin="round"/>
  <path d="M 1472.65 571.39 L 1485.14 573.97" stroke="black" stroke-width="4" fill="none" stroke-linecap="round" stroke-linejoin="round"/>
  <path d="M 1500.00 574.87 L 1514.86 573.97" stroke="black" stroke-width="4" fill="none" stroke-linecap="round" stroke-linejoin="round"/>
  <path d="M 1500.00 578.87 L 1519.84 577.65 L 1536.54 574.19" stroke="black" stroke-width="4" fill="none" stroke-linecap="round" stroke-linejoin="round"/>
  <path d="M 1527.35 571.39 L 1535.65 567.56 L 1538.44 563.04 L 1535.43 558.55 L 1527.04 554.79 L 1514.64 552.27 L 1500.00 551.40 L 1485.36 552.27 L 1472.96 554.79 L 1464.57 558.55 L 1461.56 563.04 L 1464.35 567.56 L 1472.65 571.39 L 1485.14 573.97 L 1500.00 574.87 L 1514.86 573.97 L 1527.35 571.39 L 1535.65 567.56" stroke="black" stroke-width="4" fill="none" stroke-linecap="round" stroke-linejoin="round"/>
  <path d="M 1448.69 563.04 L 1452.42 569.06 L 1463.46 574.19 L 1480.16 577.65 L 1500.00 578.87 L 1519.84 577.65 L 1536.54 574.19 L 1547.58 569.06 L 1551.31 563.04 L 1547.19 557.07 L 1535.99 552.05 L 1519.45 548.72 L 1500.00 547.54 L 1480.55 548.72 L 1464.01 552.05 L 1452.81 557.07 L 1448.69 563.04 L 1448.98 608.78 L 1452.69 614.95 L 1463.67 620.21 L 1480.28 623.76 L 1500.00 625.01 L 1519.72 623.76 L 1536.33 620.21 L 1547.31 614.95 L 1551.02 608.78 L 1551.31 563.04" stroke="black" stroke-width="4" fill="none" stroke-linecap="round" stroke-linejoin="round"/>
  <path d="M 1533.94 496.87 L 1536.60 492.78 L 1533.74 488.71 L 1525.76 485.29 L 1513.94 483.01 L 1500.00 482.22 L 1486.06 483.01 L 1474.24 485.29 L 1466.26 488.71 L 1463.40 492.78 L 1466.07 496.87 L 1473.97 500.34 L 1485.86 502.68 L 1500.00 503.50 L 1514.14 502.68 L 1526.04 500.34 L 1533.94 496.87" stroke="black" stroke-width="4" fill="none" stroke-linecap="round" stroke-linejoin="round"/>
  <path d="M 1545.29 498.23 L 1548.86 492.78 L 1544.94 487.36 L 1534.28 482.81 L 1518.53 479.79 L 1500.00 478.72 L 1481.47 479.79 L 1465.72 482.81 L 1455.06 487.36 L 1451.15 492.78 L 1454.71 498.23 L 1465.22 502.89 L 1481.12 506.01 L 1500.00 507.12 L 1518.88 506.01 L 1534.78 502.89 L 1545.29 498.23" stroke="black" stroke-width="4" fill="none" stroke-linecap="round" stroke-linejoin="round"/>
  <path d="M 1653.03 531.34 L 1655.40 527.05 L 1652.12 522.78 L 1643.65 519.19 L 1631.35 516.80 L 1617.00 515.97 L 1602.78 516.80 L 1590.88 519.19 L 1583.00 522.78 L 1580.41 527.05 L 1583.49 531.34 L 1591.89 534.99 L 1604.28 537.45 L 1618.84 538.30 L 1633.25 537.45 L 1645.24 534.99 L 1653.03 531.34" stroke="black" stroke-width="4" fill="none" stroke-linecap="round" stroke-linejoin="round"/>
  <path d="M 1664.79 532.78 L 1667.96 527.05 L 1663.48 521.37 L 1652.16 516.59 L 1635.77 513.42 L 1616.70 512.30 L 1597.81 513.42 L 1581.93 516.59 L 1571.40 521.37 L 1567.86 527.05 L 1571.98 532.78 L 1583.15 537.66 L 1599.71 540.95 L 1619.15 542.11 L 1638.40 540.95 L 1654.42 537.66 L 1664.79 532.78" stroke="black" stroke-width="4" fill="none" stroke-linecap="round" stroke-linejoin="round"/>
  <path d="M 1416.51 531.34 L 1419.59 527.05 L 1417.00 522.78 L 1409.12 519.19 L 1397.22 516.80 L 1383.00 515.97 L 1368.65 516.80 L 1356.35 519.19 L 1347.88 522.78 L 1344.60 527.05 L 1346.97 531.34 L 1354.76 534.99 L 1366.75 537.45 L 1381.17 538.30 L 1395.72 537.45 L 1408.11 534.99 L 1416.51 531.34" stroke="black" stroke-width="4" fill="none" stroke-linecap="round" stroke-linejoin="round"/>
  <path d="M 1428.02 532.78 L 1432.14 527.05 L 1428.60 521.37 L 1418.07 516.59 L 1402.19 513.42 L 1383.31 512.30 L 1364.24 513.42 L 1347.84 516.59 L 1336.52 521.37 L 1332.04 527.05 L 1335.21 532.78 L 1345.58 537.66 L 1361.60 540.95 L 1380.85 542.11 L 1400.29 540.95 L 1416.85 537.66 L 1428.02 532.78" stroke="black" stroke-width="4" fill="none" stroke-linecap="round" stroke-linejoin="round"/>
  <path d="M 1535.65 567.56 L 1538.44 563.04 L 1535.43 558.55 L 1527.04 554.79 L 1514.64 552.27 L 1500.00 551.40 L 1485.36 552.27 L 1472.96 554.79 L 1464.57 558.55 L 1461.56 563.04 L 1464.35 567.56 L 1472.65 571.39 L 1485.14 573.97 L 1500.00 574.87 L 1514.86 573.97 L 1527.35 571.39 L 1535.65 567.56" stroke="black" stroke-width="4" fill="none" stroke-linecap="round" stroke-linejoin="round"/>
  <path d="M 1547.58 569.06 L 1551.31 563.04 L 1547.19 557.07 L 1535.99 552.05 L 1519.45 548.72 L 1500.00 547.54 L 1480.55 548.72 L 1464.01 552.05 L 1452.81 557.07 L 1448.69 563.04 L 1452.42 569.06 L 1463.46 574.19 L 1480.16 577.65 L 1500.00 578.87 L 1519.84 577.65 L 1536.54 574.19 L 1547.58 569.06" stroke="black" stroke-width="4" fill="none" stroke-linecap="round" stroke-linejoin="round"/>
  <path d="M 1696.91 1878.33 L 1640.89 1847.18" stroke="black" stroke-width="4" fill="none" stroke-linecap="round" stroke-linejoin="round"/>
  <path d="M 1597.42 1823.02 L 1541.14 1791.74" stroke="black" stroke-width="4" fill="none" stroke-linecap="round" stroke-linejoin="round"/>
  <path d="M 1458.86 1791.74 L 1402.58 1823.02" stroke="black" stroke-width="4" fill="none" stroke-linecap="round" stroke-linejoin="round"/>
  <path d="M 1359.11 1847.18 L 1303.09 1878.33 L 1500.00 1997.13 L 1696.91 1878.33 L 1693.04 2012.74 L 1500.00 2134.73 L 1693.04 2012.74 L 1500.00 2134.73 L 1306.96 2012.74 L 1500.00 2134.73 L 1500.00 2266.81 L 1310.68 2141.98 L 1306.96 2012.74 L 1500.00 2134.73 L 1693.04 2012.74 L 1689.32 2141.98 L 1500.00 2266.81 L 1689.32 2141.98 L 1500.00 2266.81 L 1310.68 2141.98 L 1500.00 2266.81 L 1500.00 2393.70 L 1314.26 2266.33 L 1310.68 2141.98 L 1500.00 2266.81 L 1689.32 2141.98 L 1685.74 2266.33 L 1500.00 2393.70" stroke="black" stroke-width="4" fill="none" stroke-linecap="round" stroke-linejoin="round"/>
  <path d="M 1500.00 1997.13 L 1500.00 2134.73 L 1306.96 2012.74 L 1303.09 1878.33" stroke="black" stroke-width="4" fill="none" stroke-linecap="round" stroke-linejoin="round"/>
  <path d="M 1528.56 1797.96 L 1530.82 1791.32 L 1528.42 1784.70 L 1521.71 1779.15 L 1511.75 1775.44 L 1500.00 1774.15 L 1488.25 1775.44 L 1478.29 1779.15 L 1471.58 1784.70 L 1469.18 1791.32 L 1471.44 1797.96 L 1478.09 1803.59 L 1488.11 1807.38 L 1500.00 1808.70 L 1511.89 1807.38 L 1521.91 1803.59 L 1528.56 1797.96" stroke="black" stroke-width="4" fill="none" stroke-linecap="round" stroke-linejoin="round"/>
  <path d="M 1487.05 1806.98 L 1488.30 1806.51 L 1500.00 1805.21 L 1511.70 1806.51 L 1512.95 1806.98" stroke="black" stroke-width="4" fill="none" stroke-linecap="round" stroke-linejoin="round"/>
  <path d="M 1540.96 1822.50 L 1537.94 1831.42 L 1529.12 1839.01 L 1515.80 1844.11 L 1500.00 1845.92 L 1484.20 1844.11 L 1470.88 1839.01 L 1462.06 1831.42 L 1459.04 1822.50" stroke="black" stroke-width="4" fill="none" stroke-linecap="round" stroke-linejoin="round"/>
  <path d="M 1538.12 1800.17 L 1541.14 1791.32 L 1537.87 1782.52 L 1528.90 1775.12 L 1515.63 1770.19 L 1500.00 1768.45 L 1484.37 1770.19 L 1471.10 1775.12 L 1462.13 1782.52 L 1458.86 1791.32 L 1461.88 1800.17 L 1470.75 1807.71 L 1484.13 1812.78 L 1500.00 1814.58 L 1515.87 1812.78 L 1529.25 1807.71 L 1538.12 1800.17" stroke="black" stroke-width="4" fill="none" stroke-linecap="round" stroke-linejoin="round"/>
  <path d="M 1628.31 1853.68 L 1630.36 1846.76 L 1627.67 1839.87 L 1620.61 1834.09 L 1610.31 1830.22 L 1598.27 1828.88 L 1586.32 1830.22 L 1576.30 1834.09 L 1569.66 1839.87 L 1567.46 1846.76 L 1570.01 1853.68 L 1577.01 1859.55 L 1587.37 1863.50 L 1599.56 1864.87 L 1611.65 1863.50 L 1621.73 1859.55 L 1628.31 1853.68" stroke="black" stroke-width="4" fill="none" stroke-linecap="round" stroke-linejoin="round"/>
  <path d="M 1584.28 1862.32 L 1585.93 1861.68 L 1597.82 1860.33 L 1609.81 1861.68 L 1613.10 1862.93" stroke="black" stroke-width="4" fill="none" stroke-linecap="round" stroke-linejoin="round"/>
  <path d="M 1640.25 1878.33 L 1637.51 1887.61 L 1628.78 1895.52 L 1615.38 1900.84 L 1599.32 1902.72 L 1583.12 1900.84 L 1569.34 1895.52 L 1560.06 1887.61 L 1556.66 1878.33" stroke="black" stroke-width="4" fill="none" stroke-linecap="round" stroke-linejoin="round"/>
  <path d="M 1638.14 1855.98 L 1640.90 1846.76 L 1637.22 1837.59 L 1627.79 1829.89 L 1614.06 1824.76 L 1598.05 1822.95 L 1582.17 1824.76 L 1568.81 1829.89 L 1559.94 1837.59 L 1556.92 1846.76 L 1560.34 1855.98 L 1569.67 1863.84 L 1583.51 1869.12 L 1599.78 1870.99 L 1615.92 1869.12 L 1629.38 1863.84 L 1638.14 1855.98" stroke="black" stroke-width="4" fill="none" stroke-linecap="round" stroke-linejoin="round"/>
  <path d="M 1429.99 1853.68 L 1432.54 1846.76 L 1430.34 1839.87 L 1423.70 1834.09 L 1413.68 1830.22 L 1401.73 1828.88 L 1389.69 1830.22 L 1379.39 1834.09 L 1372.33 1839.87 L 1369.64 1846.76 L 1371.69 1853.68 L 1378.27 1859.55 L 1388.35 1863.50 L 1400.44 1864.87 L 1412.63 1863.50 L 1422.99 1859.55 L 1429.99 1853.68" stroke="black" stroke-width="4" fill="none" stroke-linecap="round" stroke-linejoin="round"/>
  <path d="M 1386.90 1862.93 L 1390.19 1861.68 L 1402.18 1860.33 L 1414.07 1861.68 L 1415.72 1862.32" stroke="black" stroke-width="4" fill="none" stroke-linecap="round" stroke-linejoin="round"/>
  <path d="M 1443.34 1878.33 L 1439.94 1887.61 L 1430.66 1895.52 L 1416.88 1900.84 L 1400.68 1902.72 L 1384.62 1900.84 L 1371.22 1895.52 L 1362.49 1887.61 L 1359.75 1878.33 L 1362.18 1872.18" stroke="black" stroke-width="4" fill="none" stroke-linecap="round" stroke-linejoin="round"/>
  <path d="M 1439.66 1855.98 L 1443.08 1846.76 L 1440.06 1837.59 L 1431.19 1829.89 L 1417.83 1824.76 L 1401.95 1822.95 L 1385.94 1824.76 L 1372.21 1829.89 L 1362.78 1837.59 L 1359.10 1846.76 L 1361.86 1855.98 L 1370.62 1863.84 L 1384.08 1869.12 L 1400.22 1870.99 L 1416.49 1869.12 L 1430.33 1863.84 L 1439.66 1855.98" stroke="black" stroke-width="4" fill="none" stroke-linecap="round" stroke-linejoin="round"/>
  <path d="M 1529.77 1911.74 L 1532.11 1904.53 L 1529.61 1897.35 L 1522.61 1891.32 L 1512.24 1887.29 L 1500.00 1885.90 L 1487.76 1887.29 L 1477.39 1891.32 L 1470.39 1897.35 L 1467.89 1904.53 L 1470.23 1911.74 L 1477.17 1917.86 L 1487.60 1921.98 L 1500.00 1923.41 L 1512.40 1921.98 L 1522.83 1917.86 L 1529.77 1911.74" stroke="black" stroke-width="4" fill="none" stroke-linecap="round" stroke-linejoin="round"/>
  <path d="M 1484.10 1920.59 L 1487.81 1919.14 L 1500.00 1917.73 L 1512.19 1919.14 L 1515.90 1920.59" stroke="black" stroke-width="4" fill="none" stroke-linecap="round" stroke-linejoin="round"/>
  <path d="M 1542.67 1936.48 L 1539.53 1946.17 L 1530.34 1954.41 L 1516.47 1959.95 L 1500.00 1961.91 L 1483.53 1959.95 L 1469.66 1954.41 L 1460.47 1946.17 L 1457.33 1936.48" stroke="black" stroke-width="4" fill="none" stroke-linecap="round" stroke-linejoin="round"/>
  <path d="M 1539.72 1914.15 L 1542.87 1904.53 L 1539.45 1894.98 L 1530.11 1886.95 L 1516.28 1881.60 L 1500.00 1879.71 L 1483.72 1881.60 L 1469.89 1886.95 L 1460.55 1894.98 L 1457.13 1904.53 L 1460.28 1914.15 L 1469.51 1922.34 L 1483.45 1927.84 L 1500.00 1929.79 L 1516.55 1927.84 L 1530.49 1922.34 L 1539.72 1914.15" stroke="black" stroke-width="4" fill="none" stroke-linecap="round" stroke-linejoin="round"/>
  <path d="M 1265.47 571.87 L 1500.00 647.58 L 1734.53 571.87 L 1667.45 552.22" stroke="black" stroke-width="4" fill="none" stroke-linecap="round" stroke-linejoin="round"/>
  <path d="M 1569.96 523.68 L 1548.71 517.46" stroke="black" stroke-width="4" fill="none" stroke-linecap="round" stroke-linejoin="round"/>
  <path d="M 1451.29 517.46 L 1430.04 523.68" stroke="black" stroke-width="4" fill="none" stroke-linecap="round" stroke-linejoin="round"/>
  <path d="M 1332.56 552.22 L 1265.47 571.87 L 1270.94 761.84 L 1500.00 845.19 L 1500.00 1033.36 L 1276.16 943.15 L 1500.00 1033.36 L 1723.84 943.15 L 1500.00 1033.36 L 1723.84 943.15 L 1729.06 761.84 L 1500.00 845.19 L 1270.94 761.84 L 1276.16 943.15 L 1500.00 1033.36 L 1500.00 1212.73 L 1281.15 1116.38 L 1500.00 1212.73 L 1718.85 1116.38 L 1500.00 1212.73 L 1718.85 1116.38 L 1723.84 943.15 L 1500.00 1033.36 L 1276.16 943.15 L 1281.15 1116.38 L 1500.00 1212.73 L 1500.00 1383.93 L 1285.92 1282.05 L 1500.00 1383.93 L 1714.08 1282.05 L 1500.00 1383.93 L 1714.08 1282.05 L 1718.85 1116.38 L 1500.00 1212.73 L 1281.15 1116.38 L 1285.92 1282.05 L 1500.00 1383.93 L 1500.00 1547.49 L 1290.49 1440.66 L 1285.92 1282.05 L 1500.00 1383.93 L 1714.08 1282.05 L 1709.51 1440.66 L 1500.00 1547.49" stroke="black" stroke-width="4" fill="none" stroke-linecap="round" stroke-linejoin="round"/>
  <path d="M 1500.00 647.58 L 1500.00 845.19 L 1270.94 761.84 L 1500.00 845.19 L 1729.06 761.84 L 1500.00 845.19 L 1729.06 761.84 L 1734.53 571.87" stroke="black" stroke-width="4" fill="none" stroke-linecap="round" stroke-linejoin="round"/>
  <path d="M 1548.59 536.71 L 1545.05 542.31 L 1534.59 547.08 L 1523.00 549.44" stroke="black" stroke-width="4" fill="none" stroke-linecap="round" stroke-linejoin="round"/>
  <path d="M 1667.04 571.87 L 1663.88 577.74 L 1653.57 582.75 L 1637.63 586.12 L 1618.49 587.31 L 1599.16 586.12 L 1582.69 582.75 L 1571.58 577.74 L 1567.49 571.87" stroke="black" stroke-width="4" fill="none" stroke-linecap="round" stroke-linejoin="round"/>
  <path d="M 1551.02 608.78 L 1547.31 614.95 L 1536.33 620.21 L 1519.72 623.76 L 1500.00 625.01 L 1480.28 623.76 L 1463.67 620.21 L 1452.69 614.95 L 1448.98 608.78" stroke="black" stroke-width="4" fill="none" stroke-linecap="round" stroke-linejoin="round"/>
  <path d="M 1477.00 549.44 L 1465.41 547.08 L 1454.95 542.31 L 1451.41 536.71" stroke="black" stroke-width="4" fill="none" stroke-linecap="round" stroke-linejoin="round"/>
  <path d="M 1432.51 571.87 L 1428.42 577.74 L 1417.31 582.75 L 1400.84 586.12 L 1381.51 587.31 L 1362.37 586.12 L 1346.43 582.75 L 1336.12 577.74 L 1332.96 571.87" stroke="black" stroke-width="4" fill="none" stroke-linecap="round" stroke-linejoin="round"/>
</svg>
