<?xml version="1.0" ?>
<svg xmlns="http://www.w3.org/2000/svg" version="1.1" width="515.65px" height="3000px" viewBox="1242.18 0 515.65 3000">
  <polygon points="1500.00,2088.94 1312.20,2205.83 1500.00,2332.21 1687.80,2205.83" fill="#e2f999" stroke="#e2f999" stroke-width="0.5" stroke-linecap="round" stroke-linejoin="round"/>
  <polygon points="1500.00,2456.78 1500.00,2332.21 1312.20,2205.83 1315.72,2328.00" fill="#e2f999" stroke="#e2f999" stroke-width="0.5" stroke-linecap="round" stroke-linejoin="round"/>
  <polygon points="1687.80,2205.83 1500.00,2332.21 1500.00,2456.78 1684.27,2328.00" fill="#e2f999" stroke="#e2f999" stroke-width="0.5" stroke-linecap="round" stroke-linejoin="round"/>
  <polygon points="1500.00,1872.61 1500.00,1842.10 1488.34,1843.41 1488.39,1873.93" fill="#d3359e" stroke="#d3359e" stroke-width="0.5" stroke-linecap="round" stroke-linejoin="round"/>
  <polygon points="1511.61,1873.93 1511.66,1843.41 1500.00,1842.10 1500.00,1872.61" fill="#d3359e" stroke="#d3359e" stroke-width="0.5" stroke-linecap="round" stroke-linejoin="round"/>
  <polygon points="1521.43,1877.72 1521.53,1847.18 1511.66,1843.41 1511.61,1873.93" fill="#d3359e" stroke="#d3359e" stroke-width="0.5" stroke-linecap="round" stroke-linejoin="round"/>
  <polygon points="1488.39,1873.93 1488.34,1843.41 1478.47,1847.18 1478.57,1877.72" fill="#d3359e" stroke="#d3359e" stroke-width="0.5" stroke-linecap="round" stroke-linejoin="round"/>
  <polygon points="1528.06,1883.41 1528.19,1852.83 1521.53,1847.18 1521.43,1877.72" fill="#d3359e" stroke="#d3359e" stroke-width="0.5" stroke-linecap="round" stroke-linejoin="round"/>
  <polygon points="1478.57,1877.72 1478.47,1847.18 1471.81,1852.83 1471.93,1883.41" fill="#d3359e" stroke="#d3359e" stroke-width="0.5" stroke-linecap="round" stroke-linejoin="round"/>
  <polygon points="1500.00,1964.67 1308.54,2078.90 1500.00,2202.58 1691.46,2078.90" fill="#afbfd6" stroke="#afbfd6" stroke-width="0.5" stroke-linecap="round" stroke-linejoin="round"/>
  <polygon points="1471.93,1883.41 1471.81,1852.83 1469.43,1859.56 1469.57,1890.18" fill="#d3359e" stroke="#d3359e" stroke-width="0.5" stroke-linecap="round" stroke-linejoin="round"/>
  <polygon points="1530.43,1890.18 1530.57,1859.56 1528.19,1852.83 1528.06,1883.41" fill="#d3359e" stroke="#d3359e" stroke-width="0.5" stroke-linecap="round" stroke-linejoin="round"/>
  <polygon points="1462.44,1850.61 1459.20,1859.56 1462.20,1868.56 1470.99,1876.23 1471.67,1866.31 1469.43,1859.56 1471.81,1852.83 1478.47,1847.18 1488.34,1843.41 1500.00,1842.10 1511.66,1843.41 1521.53,1847.18 1515.50,1838.07 1500.00,1836.30 1484.50,1838.07 1471.34,1843.08" fill="#d3359e" stroke="#d3359e" stroke-width="0.5" stroke-linecap="round" stroke-linejoin="round"/>
  <polygon points="1540.80,1859.56 1537.80,1868.56 1537.63,1899.25 1540.62,1890.18" fill="#d3359e" stroke="#d3359e" stroke-width="0.5" stroke-linecap="round" stroke-linejoin="round"/>
  <polygon points="1462.20,1868.56 1459.20,1859.56 1459.38,1890.18 1462.37,1899.25" fill="#d3359e" stroke="#d3359e" stroke-width="0.5" stroke-linecap="round" stroke-linejoin="round"/>
  <polygon points="1537.56,1850.61 1528.66,1843.08 1515.50,1838.07 1521.53,1847.18 1528.19,1852.83 1530.57,1859.56 1528.33,1866.31 1521.72,1872.04 1511.80,1875.89 1500.00,1877.24 1488.20,1875.89 1478.27,1872.04 1471.67,1866.31 1470.99,1876.23 1484.26,1881.38 1500.00,1883.21 1515.74,1881.38 1529.01,1876.23 1537.80,1868.56 1540.80,1859.56" fill="#d3359e" stroke="#d3359e" stroke-width="0.5" stroke-linecap="round" stroke-linejoin="round"/>
  <polygon points="1470.99,1876.23 1462.20,1868.56 1462.37,1899.25 1471.12,1906.96" fill="#d3359e" stroke="#d3359e" stroke-width="0.5" stroke-linecap="round" stroke-linejoin="round"/>
  <polygon points="1537.80,1868.56 1529.01,1876.23 1528.88,1906.96 1537.63,1899.25" fill="#d3359e" stroke="#d3359e" stroke-width="0.5" stroke-linecap="round" stroke-linejoin="round"/>
  <polygon points="1529.01,1876.23 1515.74,1881.38 1515.67,1912.15 1528.88,1906.96" fill="#d3359e" stroke="#d3359e" stroke-width="0.5" stroke-linecap="round" stroke-linejoin="round"/>
  <polygon points="1484.26,1881.38 1470.99,1876.23 1471.12,1906.96 1484.33,1912.15" fill="#d3359e" stroke="#d3359e" stroke-width="0.5" stroke-linecap="round" stroke-linejoin="round"/>
  <polygon points="1500.00,1883.21 1484.26,1881.38 1484.33,1912.15 1500.00,1913.99" fill="#d3359e" stroke="#d3359e" stroke-width="0.5" stroke-linecap="round" stroke-linejoin="round"/>
  <polygon points="1515.74,1881.38 1500.00,1883.21 1500.00,1913.99 1515.67,1912.15" fill="#d3359e" stroke="#d3359e" stroke-width="0.5" stroke-linecap="round" stroke-linejoin="round"/>
  <polygon points="1691.46,2078.90 1500.00,2202.58 1500.00,2332.21 1687.80,2205.83" fill="#afbfd6" stroke="#afbfd6" stroke-width="0.5" stroke-linecap="round" stroke-linejoin="round"/>
  <polygon points="1500.00,2332.21 1500.00,2202.58 1308.54,2078.90 1312.20,2205.83" fill="#afbfd6" stroke="#afbfd6" stroke-width="0.5" stroke-linecap="round" stroke-linejoin="round"/>
  <polygon points="1414.79,1930.00 1414.40,1899.12 1402.55,1897.75 1402.99,1928.62" fill="#d3359e" stroke="#d3359e" stroke-width="0.5" stroke-linecap="round" stroke-linejoin="round"/>
  <polygon points="1402.99,1928.62 1402.55,1897.75 1390.61,1899.12 1391.10,1930.00" fill="#d3359e" stroke="#d3359e" stroke-width="0.5" stroke-linecap="round" stroke-linejoin="round"/>
  <polygon points="1597.01,1928.62 1597.45,1897.75 1585.60,1899.12 1585.21,1930.00" fill="#d3359e" stroke="#d3359e" stroke-width="0.5" stroke-linecap="round" stroke-linejoin="round"/>
  <polygon points="1608.89,1930.00 1609.39,1899.12 1597.45,1897.75 1597.01,1928.62" fill="#d3359e" stroke="#d3359e" stroke-width="0.5" stroke-linecap="round" stroke-linejoin="round"/>
  <polygon points="1391.10,1930.00 1390.61,1899.12 1380.40,1903.04 1380.94,1933.95" fill="#d3359e" stroke="#d3359e" stroke-width="0.5" stroke-linecap="round" stroke-linejoin="round"/>
  <polygon points="1585.21,1930.00 1585.60,1899.12 1575.66,1903.04 1575.32,1933.95" fill="#d3359e" stroke="#d3359e" stroke-width="0.5" stroke-linecap="round" stroke-linejoin="round"/>
  <polygon points="1424.68,1933.95 1424.33,1903.04 1414.40,1899.12 1414.79,1930.00" fill="#d3359e" stroke="#d3359e" stroke-width="0.5" stroke-linecap="round" stroke-linejoin="round"/>
  <polygon points="1619.06,1933.95 1619.60,1903.04 1609.39,1899.12 1608.89,1930.00" fill="#d3359e" stroke="#d3359e" stroke-width="0.5" stroke-linecap="round" stroke-linejoin="round"/>
  <polygon points="1418.51,1893.56 1402.76,1891.72 1386.89,1893.56 1402.55,1897.75 1414.40,1899.12 1424.33,1903.04" fill="#d3359e" stroke="#d3359e" stroke-width="0.5" stroke-linecap="round" stroke-linejoin="round"/>
  <polygon points="1613.11,1893.56 1597.24,1891.72 1581.49,1893.56 1597.45,1897.75 1609.39,1899.12 1619.60,1903.04" fill="#d3359e" stroke="#d3359e" stroke-width="0.5" stroke-linecap="round" stroke-linejoin="round"/>
  <polygon points="1380.94,1933.95 1380.40,1903.04 1373.40,1908.93 1373.97,1939.87" fill="#d3359e" stroke="#d3359e" stroke-width="0.5" stroke-linecap="round" stroke-linejoin="round"/>
  <polygon points="1626.03,1939.87 1626.60,1908.93 1619.60,1903.04 1619.06,1933.95" fill="#d3359e" stroke="#d3359e" stroke-width="0.5" stroke-linecap="round" stroke-linejoin="round"/>
  <polygon points="1575.32,1933.95 1575.66,1903.04 1569.07,1908.93 1568.76,1939.87" fill="#d3359e" stroke="#d3359e" stroke-width="0.5" stroke-linecap="round" stroke-linejoin="round"/>
  <polygon points="1431.24,1939.87 1430.93,1908.93 1424.33,1903.04 1424.68,1933.95" fill="#d3359e" stroke="#d3359e" stroke-width="0.5" stroke-linecap="round" stroke-linejoin="round"/>
  <polygon points="1500.00,1835.66 1304.73,1946.91 1500.00,2067.58 1695.27,1946.91" fill="#d3359e" stroke="#d3359e" stroke-width="0.5" stroke-linecap="round" stroke-linejoin="round"/>
  <polygon points="1568.76,1939.87 1569.07,1908.93 1566.89,1915.93 1566.59,1946.91" fill="#d3359e" stroke="#d3359e" stroke-width="0.5" stroke-linecap="round" stroke-linejoin="round"/>
  <polygon points="1433.41,1946.91 1433.11,1915.93 1430.93,1908.93 1431.24,1939.87" fill="#d3359e" stroke="#d3359e" stroke-width="0.5" stroke-linecap="round" stroke-linejoin="round"/>
  <polygon points="1628.68,1946.91 1629.27,1915.93 1626.60,1908.93 1626.03,1939.87" fill="#d3359e" stroke="#d3359e" stroke-width="0.5" stroke-linecap="round" stroke-linejoin="round"/>
  <polygon points="1373.97,1939.87 1373.40,1908.93 1370.73,1915.93 1371.32,1946.91" fill="#d3359e" stroke="#d3359e" stroke-width="0.5" stroke-linecap="round" stroke-linejoin="round"/>
  <polygon points="1639.71,1915.93 1636.98,1925.30 1636.35,1956.35 1639.08,1946.91" fill="#d3359e" stroke="#d3359e" stroke-width="0.5" stroke-linecap="round" stroke-linejoin="round"/>
  <polygon points="1559.83,1925.30 1556.44,1915.93 1556.19,1946.91 1559.56,1956.35" fill="#d3359e" stroke="#d3359e" stroke-width="0.5" stroke-linecap="round" stroke-linejoin="round"/>
  <polygon points="1443.55,1915.93 1440.17,1925.30 1440.44,1956.35 1443.81,1946.91" fill="#d3359e" stroke="#d3359e" stroke-width="0.5" stroke-linecap="round" stroke-linejoin="round"/>
  <polygon points="1363.02,1925.30 1360.28,1915.93 1360.92,1946.91 1363.64,1956.35" fill="#d3359e" stroke="#d3359e" stroke-width="0.5" stroke-linecap="round" stroke-linejoin="round"/>
  <polygon points="1440.56,1906.61 1431.76,1898.78 1418.51,1893.56 1424.33,1903.04 1430.93,1908.93 1433.11,1915.93 1430.58,1922.96 1423.64,1928.93 1413.37,1932.94 1401.28,1934.34 1389.29,1932.94 1379.30,1928.93 1372.77,1922.96 1370.73,1915.93 1373.40,1908.93 1380.40,1903.04 1390.61,1899.12 1402.55,1897.75 1386.89,1893.56 1373.27,1898.78 1363.92,1906.61 1360.28,1915.93 1363.02,1925.30 1371.71,1933.29 1385.06,1938.66 1401.06,1940.56 1417.20,1938.66 1430.92,1933.29 1440.17,1925.30 1443.55,1915.93" fill="#d3359e" stroke="#d3359e" stroke-width="0.5" stroke-linecap="round" stroke-linejoin="round"/>
  <polygon points="1636.08,1906.61 1626.73,1898.78 1613.11,1893.56 1619.60,1903.04 1626.60,1908.93 1629.27,1915.93 1627.23,1922.96 1620.70,1928.93 1610.71,1932.94 1598.72,1934.34 1586.63,1932.94 1576.36,1928.93 1569.42,1922.96 1566.89,1915.93 1569.07,1908.93 1575.66,1903.04 1585.60,1899.12 1597.45,1897.75 1581.49,1893.56 1568.24,1898.78 1559.44,1906.61 1556.44,1915.93 1559.83,1925.30 1569.08,1933.29 1582.80,1938.66 1598.94,1940.56 1614.94,1938.66 1628.29,1933.29 1636.98,1925.30 1639.71,1915.93" fill="#d3359e" stroke="#d3359e" stroke-width="0.5" stroke-linecap="round" stroke-linejoin="round"/>
  <polygon points="1371.71,1933.29 1363.02,1925.30 1363.64,1956.35 1372.30,1964.39" fill="#d3359e" stroke="#d3359e" stroke-width="0.5" stroke-linecap="round" stroke-linejoin="round"/>
  <polygon points="1636.98,1925.30 1628.29,1933.29 1627.70,1964.39 1636.35,1956.35" fill="#d3359e" stroke="#d3359e" stroke-width="0.5" stroke-linecap="round" stroke-linejoin="round"/>
  <polygon points="1569.08,1933.29 1559.83,1925.30 1559.56,1956.35 1568.76,1964.39" fill="#d3359e" stroke="#d3359e" stroke-width="0.5" stroke-linecap="round" stroke-linejoin="round"/>
  <polygon points="1440.17,1925.30 1430.92,1933.29 1431.24,1964.39 1440.44,1956.35" fill="#d3359e" stroke="#d3359e" stroke-width="0.5" stroke-linecap="round" stroke-linejoin="round"/>
  <polygon points="1582.80,1938.66 1569.08,1933.29 1568.76,1964.39 1582.42,1969.79" fill="#d3359e" stroke="#d3359e" stroke-width="0.5" stroke-linecap="round" stroke-linejoin="round"/>
  <polygon points="1628.29,1933.29 1614.94,1938.66 1614.41,1969.79 1627.70,1964.39" fill="#d3359e" stroke="#d3359e" stroke-width="0.5" stroke-linecap="round" stroke-linejoin="round"/>
  <polygon points="1385.06,1938.66 1371.71,1933.29 1372.30,1964.39 1385.59,1969.79" fill="#d3359e" stroke="#d3359e" stroke-width="0.5" stroke-linecap="round" stroke-linejoin="round"/>
  <polygon points="1430.92,1933.29 1417.20,1938.66 1417.58,1969.79 1431.24,1964.39" fill="#d3359e" stroke="#d3359e" stroke-width="0.5" stroke-linecap="round" stroke-linejoin="round"/>
  <polygon points="1500.00,2202.58 1500.00,2067.58 1304.73,1946.91 1308.54,2078.90" fill="#d3359e" stroke="#d3359e" stroke-width="0.5" stroke-linecap="round" stroke-linejoin="round"/>
  <polygon points="1695.27,1946.91 1500.00,2067.58 1500.00,2202.58 1691.46,2078.90" fill="#d3359e" stroke="#d3359e" stroke-width="0.5" stroke-linecap="round" stroke-linejoin="round"/>
  <polygon points="1614.94,1938.66 1598.94,1940.56 1598.48,1971.70 1614.41,1969.79" fill="#d3359e" stroke="#d3359e" stroke-width="0.5" stroke-linecap="round" stroke-linejoin="round"/>
  <polygon points="1401.06,1940.56 1385.06,1938.66 1385.59,1969.79 1401.52,1971.70" fill="#d3359e" stroke="#d3359e" stroke-width="0.5" stroke-linecap="round" stroke-linejoin="round"/>
  <polygon points="1417.20,1938.66 1401.06,1940.56 1401.52,1971.70 1417.58,1969.79" fill="#d3359e" stroke="#d3359e" stroke-width="0.5" stroke-linecap="round" stroke-linejoin="round"/>
  <polygon points="1598.94,1940.56 1582.80,1938.66 1582.42,1969.79 1598.48,1971.70" fill="#d3359e" stroke="#d3359e" stroke-width="0.5" stroke-linecap="round" stroke-linejoin="round"/>
  <polygon points="1500.00,1986.95 1500.00,1955.71 1487.86,1957.13 1487.92,1988.38" fill="#d3359e" stroke="#d3359e" stroke-width="0.5" stroke-linecap="round" stroke-linejoin="round"/>
  <polygon points="1512.08,1988.38 1512.14,1957.13 1500.00,1955.71 1500.00,1986.95" fill="#d3359e" stroke="#d3359e" stroke-width="0.5" stroke-linecap="round" stroke-linejoin="round"/>
  <polygon points="1522.32,1992.49 1522.42,1961.22 1512.14,1957.13 1512.08,1988.38" fill="#d3359e" stroke="#d3359e" stroke-width="0.5" stroke-linecap="round" stroke-linejoin="round"/>
  <polygon points="1487.92,1988.38 1487.86,1957.13 1477.58,1961.22 1477.68,1992.49" fill="#d3359e" stroke="#d3359e" stroke-width="0.5" stroke-linecap="round" stroke-linejoin="round"/>
  <polygon points="1529.22,1998.66 1529.36,1967.35 1522.42,1961.22 1522.32,1992.49" fill="#d3359e" stroke="#d3359e" stroke-width="0.5" stroke-linecap="round" stroke-linejoin="round"/>
  <polygon points="1477.68,1992.49 1477.58,1961.22 1470.64,1967.35 1470.77,1998.66" fill="#d3359e" stroke="#d3359e" stroke-width="0.5" stroke-linecap="round" stroke-linejoin="round"/>
  <polygon points="1470.77,1998.66 1470.64,1967.35 1468.16,1974.64 1468.31,2006.00" fill="#d3359e" stroke="#d3359e" stroke-width="0.5" stroke-linecap="round" stroke-linejoin="round"/>
  <polygon points="1531.69,2006.00 1531.84,1974.64 1529.36,1967.35 1529.22,1998.66" fill="#d3359e" stroke="#d3359e" stroke-width="0.5" stroke-linecap="round" stroke-linejoin="round"/>
  <polygon points="1542.50,1974.64 1539.38,1984.42 1539.20,2015.83 1542.30,2006.00" fill="#d3359e" stroke="#d3359e" stroke-width="0.5" stroke-linecap="round" stroke-linejoin="round"/>
  <polygon points="1460.62,1984.42 1457.50,1974.64 1457.70,2006.00 1460.80,2015.83" fill="#d3359e" stroke="#d3359e" stroke-width="0.5" stroke-linecap="round" stroke-linejoin="round"/>
  <polygon points="1470.15,1956.77 1460.88,1964.94 1477.58,1961.22 1487.86,1957.13 1500.00,1955.71 1512.14,1957.13 1522.42,1961.22 1529.36,1967.35 1531.84,1974.64 1529.51,1981.97 1522.63,1988.19 1512.29,1992.37 1500.00,1993.83 1487.71,1992.37 1477.37,1988.19 1470.49,1981.97 1469.77,1992.74 1483.60,1998.33 1500.00,2000.31 1516.40,1998.33 1530.22,1992.74 1539.38,1984.42 1542.50,1974.64 1539.12,1964.94 1529.85,1956.77 1516.14,1951.34 1500.00,1949.42 1483.86,1951.34" fill="#d3359e" stroke="#d3359e" stroke-width="0.5" stroke-linecap="round" stroke-linejoin="round"/>
  <polygon points="1460.88,1964.94 1457.50,1974.64 1460.62,1984.42 1469.77,1992.74 1470.49,1981.97 1468.16,1974.64 1470.64,1967.35 1477.58,1961.22" fill="#d3359e" stroke="#d3359e" stroke-width="0.5" stroke-linecap="round" stroke-linejoin="round"/>
  <polygon points="1469.77,1992.74 1460.62,1984.42 1460.80,2015.83 1469.92,2024.20" fill="#d3359e" stroke="#d3359e" stroke-width="0.5" stroke-linecap="round" stroke-linejoin="round"/>
  <polygon points="1539.38,1984.42 1530.22,1992.74 1530.08,2024.20 1539.20,2015.83" fill="#d3359e" stroke="#d3359e" stroke-width="0.5" stroke-linecap="round" stroke-linejoin="round"/>
  <polygon points="1483.60,1998.33 1469.77,1992.74 1469.92,2024.20 1483.67,2029.83" fill="#d3359e" stroke="#d3359e" stroke-width="0.5" stroke-linecap="round" stroke-linejoin="round"/>
  <polygon points="1530.22,1992.74 1516.40,1998.33 1516.33,2029.83 1530.08,2024.20" fill="#d3359e" stroke="#d3359e" stroke-width="0.5" stroke-linecap="round" stroke-linejoin="round"/>
  <polygon points="1516.40,1998.33 1500.00,2000.31 1500.00,2031.83 1516.33,2029.83" fill="#d3359e" stroke="#d3359e" stroke-width="0.5" stroke-linecap="round" stroke-linejoin="round"/>
  <polygon points="1500.00,2000.31 1483.60,1998.33 1483.67,2029.83 1500.00,2031.83" fill="#d3359e" stroke="#d3359e" stroke-width="0.5" stroke-linecap="round" stroke-linejoin="round"/>
  <polygon points="1500.00,1266.21 1287.86,1361.97 1500.00,1466.57 1712.14,1361.97" fill="#f9c60a" stroke="#f9c60a" stroke-width="0.5" stroke-linecap="round" stroke-linejoin="round"/>
  <polygon points="1712.14,1361.97 1500.00,1466.57 1500.00,1626.78 1707.65,1517.48" fill="#f9c60a" stroke="#f9c60a" stroke-width="0.5" stroke-linecap="round" stroke-linejoin="round"/>
  <polygon points="1500.00,1626.78 1500.00,1466.57 1287.86,1361.97 1292.35,1517.48" fill="#f9c60a" stroke="#f9c60a" stroke-width="0.5" stroke-linecap="round" stroke-linejoin="round"/>
  <polygon points="1500.00,1108.81 1283.18,1199.60 1500.00,1298.95 1716.82,1199.60" fill="#f45b3f" stroke="#f45b3f" stroke-width="0.5" stroke-linecap="round" stroke-linejoin="round"/>
  <polygon points="1500.00,1466.57 1500.00,1298.95 1283.18,1199.60 1287.86,1361.97" fill="#f45b3f" stroke="#f45b3f" stroke-width="0.5" stroke-linecap="round" stroke-linejoin="round"/>
  <polygon points="1716.82,1199.60 1500.00,1298.95 1500.00,1466.57 1712.14,1361.97" fill="#f45b3f" stroke="#f45b3f" stroke-width="0.5" stroke-linecap="round" stroke-linejoin="round"/>
  <polygon points="1500.00,944.62 1278.28,1029.89 1500.00,1123.39 1721.72,1029.89" fill="#7cb538" stroke="#7cb538" stroke-width="0.5" stroke-linecap="round" stroke-linejoin="round"/>
  <polygon points="1721.72,1029.89 1500.00,1123.39 1500.00,1298.95 1716.82,1199.60" fill="#7cb538" stroke="#7cb538" stroke-width="0.5" stroke-linecap="round" stroke-linejoin="round"/>
  <polygon points="1500.00,1298.95 1500.00,1123.39 1278.28,1029.89 1283.18,1199.60" fill="#7cb538" stroke="#7cb538" stroke-width="0.5" stroke-linecap="round" stroke-linejoin="round"/>
  <polygon points="1500.00,773.19 1273.16,852.34 1500.00,939.32 1726.84,852.34" fill="#60afff" stroke="#60afff" stroke-width="0.5" stroke-linecap="round" stroke-linejoin="round"/>
  <polygon points="1726.84,852.34 1500.00,939.32 1500.00,1123.39 1721.72,1029.89" fill="#60afff" stroke="#60afff" stroke-width="0.5" stroke-linecap="round" stroke-linejoin="round"/>
  <polygon points="1500.00,1123.39 1500.00,939.32 1273.16,852.34 1278.28,1029.89" fill="#60afff" stroke="#60afff" stroke-width="0.5" stroke-linecap="round" stroke-linejoin="round"/>
  <polygon points="1514.06,428.77 1514.13,383.96 1500.00,383.21 1500.00,428.00" fill="#f4a8ba" stroke="#f4a8ba" stroke-width="0.5" stroke-linecap="round" stroke-linejoin="round"/>
  <polygon points="1500.00,428.00 1500.00,383.21 1485.87,383.96 1485.94,428.77" fill="#f4a8ba" stroke="#f4a8ba" stroke-width="0.5" stroke-linecap="round" stroke-linejoin="round"/>
  <polygon points="1525.97,430.97 1526.11,386.10 1514.13,383.96 1514.06,428.77" fill="#f4a8ba" stroke="#f4a8ba" stroke-width="0.5" stroke-linecap="round" stroke-linejoin="round"/>
  <polygon points="1485.94,428.77 1485.87,383.96 1473.89,386.10 1474.03,430.97" fill="#f4a8ba" stroke="#f4a8ba" stroke-width="0.5" stroke-linecap="round" stroke-linejoin="round"/>
  <polygon points="1534.02,434.28 1534.20,389.32 1526.11,386.10 1525.97,430.97" fill="#f4a8ba" stroke="#f4a8ba" stroke-width="0.5" stroke-linecap="round" stroke-linejoin="round"/>
  <polygon points="1474.03,430.97 1473.89,386.10 1465.80,389.32 1465.98,434.28" fill="#f4a8ba" stroke="#f4a8ba" stroke-width="0.5" stroke-linecap="round" stroke-linejoin="round"/>
  <polygon points="1500.00,594.02 1267.80,666.39 1500.00,746.11 1732.20,666.39" fill="#ff9ecc" stroke="#ff9ecc" stroke-width="0.5" stroke-linecap="round" stroke-linejoin="round"/>
  <polygon points="1536.90,438.23 1537.10,393.15 1534.20,389.32 1534.02,434.28" fill="#f4a8ba" stroke="#f4a8ba" stroke-width="0.5" stroke-linecap="round" stroke-linejoin="round"/>
  <polygon points="1465.98,434.28 1465.80,389.32 1462.90,393.15 1463.10,438.23" fill="#f4a8ba" stroke="#f4a8ba" stroke-width="0.5" stroke-linecap="round" stroke-linejoin="round"/>
  <polygon points="1454.08,398.29 1450.47,393.15 1450.74,438.23 1454.33,443.52" fill="#f4a8ba" stroke="#f4a8ba" stroke-width="0.5" stroke-linecap="round" stroke-linejoin="round"/>
  <polygon points="1549.53,393.15 1545.92,398.29 1545.67,443.52 1549.26,438.23" fill="#f4a8ba" stroke="#f4a8ba" stroke-width="0.5" stroke-linecap="round" stroke-linejoin="round"/>
  <polygon points="1526.11,386.10 1534.20,389.32 1545.56,388.05 1534.75,383.77 1518.78,380.92 1500.00,379.92 1481.22,380.92 1465.25,383.77 1454.44,388.05 1450.47,393.15 1454.08,398.29 1464.74,402.67 1480.86,405.61 1500.00,406.66 1519.14,405.61 1535.26,402.67 1545.92,398.29 1526.40,400.27 1514.34,402.48 1500.00,403.24 1485.66,402.48 1473.60,400.27 1465.60,397.00 1462.90,393.15 1465.80,389.32 1473.89,386.10 1485.87,383.96 1500.00,383.21 1514.13,383.96" fill="#f4a8ba" stroke="#f4a8ba" stroke-width="0.5" stroke-linecap="round" stroke-linejoin="round"/>
  <polygon points="1545.92,398.29 1549.53,393.15 1545.56,388.05 1534.20,389.32 1537.10,393.15 1534.40,397.00 1526.40,400.27" fill="#f4a8ba" stroke="#f4a8ba" stroke-width="0.5" stroke-linecap="round" stroke-linejoin="round"/>
  <polygon points="1545.92,398.29 1535.26,402.67 1535.07,448.02 1545.67,443.52" fill="#f4a8ba" stroke="#f4a8ba" stroke-width="0.5" stroke-linecap="round" stroke-linejoin="round"/>
  <polygon points="1464.74,402.67 1454.08,398.29 1454.33,443.52 1464.93,448.02" fill="#f4a8ba" stroke="#f4a8ba" stroke-width="0.5" stroke-linecap="round" stroke-linejoin="round"/>
  <polygon points="1535.26,402.67 1519.14,405.61 1519.04,451.05 1535.07,448.02" fill="#f4a8ba" stroke="#f4a8ba" stroke-width="0.5" stroke-linecap="round" stroke-linejoin="round"/>
  <polygon points="1480.86,405.61 1464.74,402.67 1464.93,448.02 1480.96,451.05" fill="#f4a8ba" stroke="#f4a8ba" stroke-width="0.5" stroke-linecap="round" stroke-linejoin="round"/>
  <polygon points="1500.00,406.66 1480.86,405.61 1480.96,451.05 1500.00,452.13" fill="#f4a8ba" stroke="#f4a8ba" stroke-width="0.5" stroke-linecap="round" stroke-linejoin="round"/>
  <polygon points="1519.14,405.61 1500.00,406.66 1500.00,452.13 1519.04,451.05" fill="#f4a8ba" stroke="#f4a8ba" stroke-width="0.5" stroke-linecap="round" stroke-linejoin="round"/>
  <polygon points="1500.00,939.32 1500.00,746.11 1267.80,666.39 1273.16,852.34" fill="#ff9ecc" stroke="#ff9ecc" stroke-width="0.5" stroke-linecap="round" stroke-linejoin="round"/>
  <polygon points="1732.20,666.39 1500.00,746.11 1500.00,939.32 1726.84,852.34" fill="#ff9ecc" stroke="#ff9ecc" stroke-width="0.5" stroke-linecap="round" stroke-linejoin="round"/>
  <polygon points="1632.46,461.51 1633.19,415.77 1618.64,414.99 1617.98,460.70" fill="#f4a8ba" stroke="#f4a8ba" stroke-width="0.5" stroke-linecap="round" stroke-linejoin="round"/>
  <polygon points="1396.35,461.51 1395.77,415.77 1381.36,414.99 1382.02,460.70" fill="#f4a8ba" stroke="#f4a8ba" stroke-width="0.5" stroke-linecap="round" stroke-linejoin="round"/>
  <polygon points="1617.98,460.70 1618.64,414.99 1604.23,415.77 1603.65,461.51" fill="#f4a8ba" stroke="#f4a8ba" stroke-width="0.5" stroke-linecap="round" stroke-linejoin="round"/>
  <polygon points="1382.02,460.70 1381.36,414.99 1366.81,415.77 1367.54,461.51" fill="#f4a8ba" stroke="#f4a8ba" stroke-width="0.5" stroke-linecap="round" stroke-linejoin="round"/>
  <polygon points="1367.54,461.51 1366.81,415.77 1354.33,418.03 1355.14,463.83" fill="#f4a8ba" stroke="#f4a8ba" stroke-width="0.5" stroke-linecap="round" stroke-linejoin="round"/>
  <polygon points="1644.86,463.83 1645.67,418.03 1633.19,415.77 1632.46,461.51" fill="#f4a8ba" stroke="#f4a8ba" stroke-width="0.5" stroke-linecap="round" stroke-linejoin="round"/>
  <polygon points="1603.65,461.51 1604.23,415.77 1592.16,418.03 1591.65,463.83" fill="#f4a8ba" stroke="#f4a8ba" stroke-width="0.5" stroke-linecap="round" stroke-linejoin="round"/>
  <polygon points="1408.35,463.83 1407.84,418.03 1395.77,415.77 1396.35,461.51" fill="#f4a8ba" stroke="#f4a8ba" stroke-width="0.5" stroke-linecap="round" stroke-linejoin="round"/>
  <polygon points="1633.19,415.77 1637.67,412.59 1618.33,411.53 1599.18,412.59 1618.64,414.99" fill="#f4a8ba" stroke="#f4a8ba" stroke-width="0.5" stroke-linecap="round" stroke-linejoin="round"/>
  <polygon points="1355.14,463.83 1354.33,418.03 1345.74,421.40 1346.59,467.30" fill="#f4a8ba" stroke="#f4a8ba" stroke-width="0.5" stroke-linecap="round" stroke-linejoin="round"/>
  <polygon points="1416.30,467.30 1415.84,421.40 1407.84,418.03 1408.35,463.83" fill="#f4a8ba" stroke="#f4a8ba" stroke-width="0.5" stroke-linecap="round" stroke-linejoin="round"/>
  <polygon points="1591.65,463.83 1592.16,418.03 1584.17,421.40 1583.70,467.30" fill="#f4a8ba" stroke="#f4a8ba" stroke-width="0.5" stroke-linecap="round" stroke-linejoin="round"/>
  <polygon points="1653.41,467.30 1654.26,421.40 1645.67,418.03 1644.86,463.83" fill="#f4a8ba" stroke="#f4a8ba" stroke-width="0.5" stroke-linecap="round" stroke-linejoin="round"/>
  <polygon points="1407.84,418.03 1415.84,421.40 1416.92,415.58 1400.82,412.59" fill="#f4a8ba" stroke="#f4a8ba" stroke-width="0.5" stroke-linecap="round" stroke-linejoin="round"/>
  <polygon points="1500.00,406.58 1262.18,471.44 1500.00,543.05 1737.82,471.44" fill="#f4a8ba" stroke="#f4a8ba" stroke-width="0.5" stroke-linecap="round" stroke-linejoin="round"/>
  <polygon points="1346.59,467.30 1345.74,421.40 1342.40,425.43 1343.27,471.44" fill="#f4a8ba" stroke="#f4a8ba" stroke-width="0.5" stroke-linecap="round" stroke-linejoin="round"/>
  <polygon points="1656.73,471.44 1657.60,425.43 1654.26,421.40 1653.41,467.30" fill="#f4a8ba" stroke="#f4a8ba" stroke-width="0.5" stroke-linecap="round" stroke-linejoin="round"/>
  <polygon points="1418.90,471.44 1418.45,425.43 1415.84,421.40 1416.30,467.30" fill="#f4a8ba" stroke="#f4a8ba" stroke-width="0.5" stroke-linecap="round" stroke-linejoin="round"/>
  <polygon points="1583.70,467.30 1584.17,421.40 1581.55,425.43 1581.10,471.44" fill="#f4a8ba" stroke="#f4a8ba" stroke-width="0.5" stroke-linecap="round" stroke-linejoin="round"/>
  <polygon points="1573.00,430.83 1568.82,425.43 1568.43,471.44 1572.59,476.99" fill="#f4a8ba" stroke="#f4a8ba" stroke-width="0.5" stroke-linecap="round" stroke-linejoin="round"/>
  <polygon points="1670.34,425.43 1667.12,430.83 1666.19,476.99 1669.39,471.44" fill="#f4a8ba" stroke="#f4a8ba" stroke-width="0.5" stroke-linecap="round" stroke-linejoin="round"/>
  <polygon points="1431.18,425.43 1427.00,430.83 1427.41,476.99 1431.57,471.44" fill="#f4a8ba" stroke="#f4a8ba" stroke-width="0.5" stroke-linecap="round" stroke-linejoin="round"/>
  <polygon points="1332.88,430.83 1329.66,425.43 1330.61,471.44 1333.81,476.99" fill="#f4a8ba" stroke="#f4a8ba" stroke-width="0.5" stroke-linecap="round" stroke-linejoin="round"/>
  <polygon points="1427.00,430.83 1431.18,425.43 1427.59,420.07 1416.92,415.58 1415.84,421.40 1418.45,425.43 1415.32,429.48 1406.81,432.91 1394.24,435.23 1379.47,436.03 1364.85,435.23 1352.70,432.91 1344.80,429.48 1342.40,425.43 1345.74,421.40 1354.33,418.03 1366.81,415.77 1381.36,414.99 1395.77,415.77 1407.84,418.03 1400.82,412.59 1381.67,411.53 1362.33,412.59 1345.70,415.58 1334.22,420.07 1329.66,425.43 1332.88,430.83 1343.38,435.43 1359.63,438.52 1379.15,439.62 1398.87,438.52 1415.67,435.43" fill="#f4a8ba" stroke="#f4a8ba" stroke-width="0.5" stroke-linecap="round" stroke-linejoin="round"/>
  <polygon points="1573.00,430.83 1584.33,435.43 1601.13,438.52 1620.85,439.62 1640.37,438.52 1656.62,435.43 1667.12,430.83 1670.34,425.43 1665.78,420.07 1654.30,415.58 1637.67,412.59 1633.19,415.77 1645.67,418.03 1654.26,421.40 1657.60,425.43 1655.20,429.48 1647.30,432.91 1635.15,435.23 1620.53,436.03 1605.76,435.23 1593.19,432.91 1584.68,429.48 1581.55,425.43 1584.17,421.40 1592.16,418.03 1604.23,415.77 1618.64,414.99 1599.18,412.59 1583.08,415.58 1572.41,420.07 1568.82,425.43" fill="#f4a8ba" stroke="#f4a8ba" stroke-width="0.5" stroke-linecap="round" stroke-linejoin="round"/>
  <polygon points="1343.38,435.43 1332.88,430.83 1333.81,476.99 1344.26,481.73" fill="#f4a8ba" stroke="#f4a8ba" stroke-width="0.5" stroke-linecap="round" stroke-linejoin="round"/>
  <polygon points="1584.33,435.43 1573.00,430.83 1572.59,476.99 1583.86,481.73" fill="#f4a8ba" stroke="#f4a8ba" stroke-width="0.5" stroke-linecap="round" stroke-linejoin="round"/>
  <polygon points="1427.00,430.83 1415.67,435.43 1416.14,481.73 1427.41,476.99" fill="#f4a8ba" stroke="#f4a8ba" stroke-width="0.5" stroke-linecap="round" stroke-linejoin="round"/>
  <polygon points="1667.12,430.83 1656.62,435.43 1655.74,481.73 1666.19,476.99" fill="#f4a8ba" stroke="#f4a8ba" stroke-width="0.5" stroke-linecap="round" stroke-linejoin="round"/>
  <polygon points="1359.63,438.52 1343.38,435.43 1344.26,481.73 1360.41,484.91" fill="#f4a8ba" stroke="#f4a8ba" stroke-width="0.5" stroke-linecap="round" stroke-linejoin="round"/>
  <polygon points="1656.62,435.43 1640.37,438.52 1639.59,484.91 1655.74,481.73" fill="#f4a8ba" stroke="#f4a8ba" stroke-width="0.5" stroke-linecap="round" stroke-linejoin="round"/>
  <polygon points="1415.67,435.43 1398.87,438.52 1399.44,484.91 1416.14,481.73" fill="#f4a8ba" stroke="#f4a8ba" stroke-width="0.5" stroke-linecap="round" stroke-linejoin="round"/>
  <polygon points="1601.13,438.52 1584.33,435.43 1583.86,481.73 1600.56,484.91" fill="#f4a8ba" stroke="#f4a8ba" stroke-width="0.5" stroke-linecap="round" stroke-linejoin="round"/>
  <polygon points="1500.00,746.11 1500.00,543.05 1262.18,471.44 1267.80,666.39" fill="#f4a8ba" stroke="#f4a8ba" stroke-width="0.5" stroke-linecap="round" stroke-linejoin="round"/>
  <polygon points="1737.82,471.44 1500.00,543.05 1500.00,746.11 1732.20,666.39" fill="#f4a8ba" stroke="#f4a8ba" stroke-width="0.5" stroke-linecap="round" stroke-linejoin="round"/>
  <polygon points="1379.15,439.62 1359.63,438.52 1360.41,484.91 1379.83,486.04" fill="#f4a8ba" stroke="#f4a8ba" stroke-width="0.5" stroke-linecap="round" stroke-linejoin="round"/>
  <polygon points="1640.37,438.52 1620.85,439.62 1620.17,486.04 1639.59,484.91" fill="#f4a8ba" stroke="#f4a8ba" stroke-width="0.5" stroke-linecap="round" stroke-linejoin="round"/>
  <polygon points="1620.85,439.62 1601.13,438.52 1600.56,484.91 1620.17,486.04" fill="#f4a8ba" stroke="#f4a8ba" stroke-width="0.5" stroke-linecap="round" stroke-linejoin="round"/>
  <polygon points="1398.87,438.52 1379.15,439.62 1379.83,486.04 1399.44,484.91" fill="#f4a8ba" stroke="#f4a8ba" stroke-width="0.5" stroke-linecap="round" stroke-linejoin="round"/>
  <polygon points="1514.76,495.90 1514.85,449.20 1500.00,448.38 1500.00,495.05" fill="#f4a8ba" stroke="#f4a8ba" stroke-width="0.5" stroke-linecap="round" stroke-linejoin="round"/>
  <polygon points="1500.00,495.05 1500.00,448.38 1485.15,449.20 1485.24,495.90" fill="#f4a8ba" stroke="#f4a8ba" stroke-width="0.5" stroke-linecap="round" stroke-linejoin="round"/>
  <polygon points="1485.24,495.90 1485.15,449.20 1472.57,451.57 1472.72,498.33" fill="#f4a8ba" stroke="#f4a8ba" stroke-width="0.5" stroke-linecap="round" stroke-linejoin="round"/>
  <polygon points="1527.28,498.33 1527.43,451.57 1514.85,449.20 1514.76,495.90" fill="#f4a8ba" stroke="#f4a8ba" stroke-width="0.5" stroke-linecap="round" stroke-linejoin="round"/>
  <polygon points="1535.74,501.99 1535.94,455.12 1527.43,451.57 1527.28,498.33" fill="#f4a8ba" stroke="#f4a8ba" stroke-width="0.5" stroke-linecap="round" stroke-linejoin="round"/>
  <polygon points="1472.72,498.33 1472.57,451.57 1464.06,455.12 1464.26,501.99" fill="#f4a8ba" stroke="#f4a8ba" stroke-width="0.5" stroke-linecap="round" stroke-linejoin="round"/>
  <polygon points="1464.26,501.99 1464.06,455.12 1461.01,459.35 1461.23,506.34" fill="#f4a8ba" stroke="#f4a8ba" stroke-width="0.5" stroke-linecap="round" stroke-linejoin="round"/>
  <polygon points="1538.77,506.34 1538.99,459.35 1535.94,455.12 1535.74,501.99" fill="#f4a8ba" stroke="#f4a8ba" stroke-width="0.5" stroke-linecap="round" stroke-linejoin="round"/>
  <polygon points="1451.73,465.03 1462.93,469.87 1479.87,473.13 1472.25,467.22 1463.84,463.61 1461.01,459.35 1464.06,455.12 1472.57,451.57 1485.15,449.20 1500.00,448.38 1514.85,449.20 1527.43,451.57 1535.94,455.12 1538.99,459.35 1536.16,463.61 1527.75,467.22 1515.07,469.66 1537.07,469.87 1548.27,465.03 1552.05,459.35 1547.87,453.72 1536.51,448.99 1519.73,445.85 1500.00,444.74 1480.27,445.85 1463.49,448.99 1452.13,453.72 1447.95,459.35" fill="#f4a8ba" stroke="#f4a8ba" stroke-width="0.5" stroke-linecap="round" stroke-linejoin="round"/>
  <polygon points="1451.73,465.03 1447.95,459.35 1448.24,506.34 1452.01,512.18" fill="#f4a8ba" stroke="#f4a8ba" stroke-width="0.5" stroke-linecap="round" stroke-linejoin="round"/>
  <polygon points="1552.05,459.35 1548.27,465.03 1547.99,512.18 1551.76,506.34" fill="#f4a8ba" stroke="#f4a8ba" stroke-width="0.5" stroke-linecap="round" stroke-linejoin="round"/>
  <polygon points="1548.27,465.03 1537.07,469.87 1536.86,517.16 1547.99,512.18" fill="#f4a8ba" stroke="#f4a8ba" stroke-width="0.5" stroke-linecap="round" stroke-linejoin="round"/>
  <polygon points="1462.93,469.87 1451.73,465.03 1452.01,512.18 1463.14,517.16" fill="#f4a8ba" stroke="#f4a8ba" stroke-width="0.5" stroke-linecap="round" stroke-linejoin="round"/>
  <polygon points="1479.87,473.13 1462.93,469.87 1463.14,517.16 1479.99,520.51" fill="#f4a8ba" stroke="#f4a8ba" stroke-width="0.5" stroke-linecap="round" stroke-linejoin="round"/>
  <polygon points="1537.07,469.87 1520.13,473.13 1520.01,520.51 1536.86,517.16" fill="#f4a8ba" stroke="#f4a8ba" stroke-width="0.5" stroke-linecap="round" stroke-linejoin="round"/>
  <polygon points="1500.00,474.28 1479.87,473.13 1479.99,520.51 1500.00,521.69" fill="#f4a8ba" stroke="#f4a8ba" stroke-width="0.5" stroke-linecap="round" stroke-linejoin="round"/>
  <polygon points="1520.13,473.13 1500.00,474.28 1500.00,521.69 1520.01,520.51" fill="#f4a8ba" stroke="#f4a8ba" stroke-width="0.5" stroke-linecap="round" stroke-linejoin="round"/>
  <polygon points="1500.00,474.28 1520.13,473.13 1537.07,469.87 1515.07,469.66 1500.00,470.51 1484.93,469.66 1472.25,467.22 1479.87,473.13" fill="#f4a8ba" stroke="#f4a8ba" stroke-width="0.5" stroke-linecap="round" stroke-linejoin="round"/>
  <path d="M 1315.72 2328.00 L 1500.00 2456.78 L 1684.27 2328.00 L 1687.80 2205.83 L 1500.00 2332.21 L 1500.00 2456.78 L 1684.27 2328.00 L 1687.80 2205.83 L 1500.00 2332.21 L 1312.20 2205.83 L 1315.72 2328.00 L 1500.00 2456.78 L 1500.00 2332.21 L 1312.20 2205.83 L 1315.72 2328.00" stroke="black" stroke-width="4" fill="none" stroke-linecap="round" stroke-linejoin="round"/>
  <path d="M 1312.20 2205.83 L 1500.00 2332.21 L 1687.80 2205.83 L 1691.46 2078.90 L 1500.00 2202.58 L 1500.00 2332.21 L 1687.80 2205.83 L 1691.46 2078.90 L 1500.00 2202.58 L 1308.54 2078.90 L 1312.20 2205.83 L 1500.00 2332.21 L 1500.00 2202.58 L 1308.54 2078.90 L 1312.20 2205.83" stroke="black" stroke-width="4" fill="none" stroke-linecap="round" stroke-linejoin="round"/>
  <path d="M 1308.54 2078.90 L 1500.00 2202.58 L 1691.46 2078.90 L 1695.27 1946.91 L 1500.00 2067.58 L 1500.00 2202.58 L 1691.46 2078.90 L 1695.27 1946.91 L 1639.38 1915.07 L 1695.27 1946.91 L 1500.00 2067.58 L 1304.73 1946.91 L 1360.62 1915.07 L 1304.73 1946.91 L 1308.54 2078.90 L 1500.00 2202.58 L 1500.00 2067.58 L 1304.73 1946.91 L 1308.54 2078.90" stroke="black" stroke-width="4" fill="none" stroke-linecap="round" stroke-linejoin="round"/>
  <path d="M 1598.69 1891.89 L 1540.51 1858.74 L 1598.69 1891.89" stroke="black" stroke-width="4" fill="none" stroke-linecap="round" stroke-linejoin="round"/>
  <path d="M 1501.41 1836.46 L 1500.00 1835.66 L 1498.59 1836.46 L 1500.00 1835.66 L 1501.41 1836.46" stroke="black" stroke-width="4" fill="none" stroke-linecap="round" stroke-linejoin="round"/>
  <path d="M 1459.49 1858.74 L 1401.31 1891.89 L 1459.49 1858.74" stroke="black" stroke-width="4" fill="none" stroke-linecap="round" stroke-linejoin="round"/>
  <path d="M 1500.00 1842.10 L 1511.66 1843.41" stroke="black" stroke-width="4" fill="none" stroke-linecap="round" stroke-linejoin="round"/>
  <path d="M 1521.53 1847.18 L 1528.19 1852.83" stroke="black" stroke-width="4" fill="none" stroke-linecap="round" stroke-linejoin="round"/>
  <path d="M 1500.00 1836.30 L 1515.50 1838.07 L 1528.66 1843.08" stroke="black" stroke-width="4" fill="none" stroke-linecap="round" stroke-linejoin="round"/>
  <path d="M 1488.34 1843.41 L 1478.47 1847.18" stroke="black" stroke-width="4" fill="none" stroke-linecap="round" stroke-linejoin="round"/>
  <path d="M 1471.34 1843.08 L 1462.44 1850.61 L 1459.20 1859.56 L 1462.20 1868.56 L 1470.99 1876.23" stroke="black" stroke-width="4" fill="none" stroke-linecap="round" stroke-linejoin="round"/>
  <path d="M 1471.81 1852.83 L 1469.43 1859.56" stroke="black" stroke-width="4" fill="none" stroke-linecap="round" stroke-linejoin="round"/>
  <path d="M 1478.27 1872.04 L 1488.20 1875.89 L 1500.00 1877.24" stroke="black" stroke-width="4" fill="none" stroke-linecap="round" stroke-linejoin="round"/>
  <path d="M 1500.00 1883.21 L 1515.74 1881.38 L 1529.01 1876.23" stroke="black" stroke-width="4" fill="none" stroke-linecap="round" stroke-linejoin="round"/>
  <path d="M 1521.72 1872.04 L 1528.33 1866.31 L 1530.57 1859.56" stroke="black" stroke-width="4" fill="none" stroke-linecap="round" stroke-linejoin="round"/>
  <path d="M 1528.33 1866.31 L 1530.57 1859.56 L 1528.19 1852.83 L 1521.53 1847.18 L 1511.66 1843.41 L 1500.00 1842.10 L 1488.34 1843.41 L 1478.47 1847.18 L 1471.81 1852.83 L 1469.43 1859.56 L 1471.67 1866.31 L 1478.27 1872.04 L 1488.20 1875.89 L 1500.00 1877.24 L 1511.80 1875.89 L 1521.72 1872.04 L 1528.33 1866.31" stroke="black" stroke-width="4" fill="none" stroke-linecap="round" stroke-linejoin="round"/>
  <path d="M 1514.24 1874.95 L 1511.61 1873.93 L 1500.00 1872.61 L 1488.39 1873.93 L 1485.76 1874.95" stroke="black" stroke-width="4" fill="none" stroke-linecap="round" stroke-linejoin="round"/>
  <path d="M 1459.20 1859.56 L 1462.20 1868.56 L 1470.99 1876.23 L 1484.26 1881.38 L 1500.00 1883.21 L 1515.74 1881.38 L 1529.01 1876.23 L 1537.80 1868.56 L 1540.80 1859.56 L 1537.56 1850.61 L 1528.66 1843.08 L 1515.50 1838.07 L 1500.00 1836.30 L 1484.50 1838.07 L 1471.34 1843.08 L 1462.44 1850.61 L 1459.20 1859.56 L 1459.38 1890.18 L 1462.37 1899.25 L 1471.12 1906.96 L 1484.33 1912.15 L 1500.00 1913.99 L 1515.67 1912.15 L 1528.88 1906.96 L 1537.63 1899.25 L 1540.62 1890.18 L 1540.80 1859.56" stroke="black" stroke-width="4" fill="none" stroke-linecap="round" stroke-linejoin="round"/>
  <path d="M 1575.66 1903.04 L 1585.60 1899.12 L 1597.45 1897.75 L 1609.39 1899.12" stroke="black" stroke-width="4" fill="none" stroke-linecap="round" stroke-linejoin="round"/>
  <path d="M 1619.60 1903.04 L 1626.60 1908.93" stroke="black" stroke-width="4" fill="none" stroke-linecap="round" stroke-linejoin="round"/>
  <path d="M 1597.24 1891.72 L 1613.11 1893.56 L 1626.73 1898.78" stroke="black" stroke-width="4" fill="none" stroke-linecap="round" stroke-linejoin="round"/>
  <path d="M 1568.24 1898.78 L 1559.44 1906.61 L 1556.44 1915.93 L 1559.83 1925.30 L 1569.08 1933.29" stroke="black" stroke-width="4" fill="none" stroke-linecap="round" stroke-linejoin="round"/>
  <path d="M 1576.36 1928.93 L 1586.63 1932.94 L 1598.72 1934.34 L 1610.71 1932.94" stroke="black" stroke-width="4" fill="none" stroke-linecap="round" stroke-linejoin="round"/>
  <path d="M 1598.94 1940.56 L 1614.94 1938.66 L 1628.29 1933.29" stroke="black" stroke-width="4" fill="none" stroke-linecap="round" stroke-linejoin="round"/>
  <path d="M 1620.70 1928.93 L 1627.23 1922.96 L 1629.27 1915.93 L 1626.60 1908.93 L 1619.60 1903.04 L 1609.39 1899.12 L 1597.45 1897.75 L 1585.60 1899.12 L 1575.66 1903.04 L 1569.07 1908.93 L 1566.89 1915.93 L 1569.42 1922.96 L 1576.36 1928.93 L 1586.63 1932.94 L 1598.72 1934.34 L 1610.71 1932.94 L 1620.70 1928.93 L 1627.23 1922.96" stroke="black" stroke-width="4" fill="none" stroke-linecap="round" stroke-linejoin="round"/>
  <path d="M 1613.54 1931.80 L 1608.89 1930.00 L 1597.01 1928.62 L 1585.21 1930.00 L 1582.19 1931.20" stroke="black" stroke-width="4" fill="none" stroke-linecap="round" stroke-linejoin="round"/>
  <path d="M 1556.44 1915.93 L 1559.83 1925.30 L 1569.08 1933.29 L 1582.80 1938.66 L 1598.94 1940.56 L 1614.94 1938.66 L 1628.29 1933.29 L 1636.98 1925.30 L 1639.71 1915.93 L 1636.08 1906.61 L 1626.73 1898.78 L 1613.11 1893.56 L 1597.24 1891.72 L 1581.49 1893.56 L 1568.24 1898.78 L 1559.44 1906.61 L 1556.44 1915.93 L 1556.19 1946.91 L 1559.56 1956.35 L 1568.76 1964.39 L 1582.42 1969.79 L 1598.48 1971.70 L 1614.41 1969.79 L 1627.70 1964.39 L 1636.35 1956.35 L 1639.08 1946.91 L 1639.71 1915.93" stroke="black" stroke-width="4" fill="none" stroke-linecap="round" stroke-linejoin="round"/>
  <path d="M 1424.33 1903.04 L 1430.93 1908.93 L 1433.11 1915.93 L 1430.58 1922.96 L 1423.64 1928.93" stroke="black" stroke-width="4" fill="none" stroke-linecap="round" stroke-linejoin="round"/>
  <path d="M 1402.76 1891.72 L 1418.51 1893.56 L 1431.76 1898.78" stroke="black" stroke-width="4" fill="none" stroke-linecap="round" stroke-linejoin="round"/>
  <path d="M 1390.61 1899.12 L 1380.40 1903.04" stroke="black" stroke-width="4" fill="none" stroke-linecap="round" stroke-linejoin="round"/>
  <path d="M 1373.27 1898.78 L 1363.92 1906.61 L 1360.28 1915.93 L 1363.02 1925.30 L 1371.71 1933.29" stroke="black" stroke-width="4" fill="none" stroke-linecap="round" stroke-linejoin="round"/>
  <path d="M 1373.40 1908.93 L 1370.73 1915.93 L 1372.77 1922.96" stroke="black" stroke-width="4" fill="none" stroke-linecap="round" stroke-linejoin="round"/>
  <path d="M 1379.30 1928.93 L 1389.29 1932.94" stroke="black" stroke-width="4" fill="none" stroke-linecap="round" stroke-linejoin="round"/>
  <path d="M 1401.06 1940.56 L 1417.20 1938.66 L 1430.92 1933.29" stroke="black" stroke-width="4" fill="none" stroke-linecap="round" stroke-linejoin="round"/>
  <path d="M 1430.58 1922.96 L 1433.11 1915.93 L 1430.93 1908.93 L 1424.33 1903.04 L 1414.40 1899.12 L 1402.55 1897.75 L 1390.61 1899.12 L 1380.40 1903.04 L 1373.40 1908.93 L 1370.73 1915.93 L 1372.77 1922.96 L 1379.30 1928.93 L 1389.29 1932.94 L 1401.28 1934.34 L 1413.37 1932.94 L 1423.64 1928.93 L 1430.58 1922.96" stroke="black" stroke-width="4" fill="none" stroke-linecap="round" stroke-linejoin="round"/>
  <path d="M 1417.81 1931.20 L 1414.79 1930.00 L 1402.99 1928.62 L 1391.10 1930.00 L 1386.46 1931.80" stroke="black" stroke-width="4" fill="none" stroke-linecap="round" stroke-linejoin="round"/>
  <path d="M 1360.28 1915.93 L 1363.02 1925.30 L 1371.71 1933.29 L 1385.06 1938.66 L 1401.06 1940.56 L 1417.20 1938.66 L 1430.92 1933.29 L 1440.17 1925.30 L 1443.55 1915.93 L 1440.56 1906.61 L 1431.76 1898.78 L 1418.51 1893.56 L 1402.76 1891.72 L 1386.89 1893.56 L 1373.27 1898.78 L 1363.92 1906.61 L 1360.28 1915.93 L 1360.92 1946.91 L 1363.64 1956.35 L 1372.30 1964.39 L 1385.59 1969.79 L 1401.52 1971.70 L 1417.58 1969.79 L 1431.24 1964.39 L 1440.44 1956.35 L 1443.81 1946.91 L 1443.55 1915.93" stroke="black" stroke-width="4" fill="none" stroke-linecap="round" stroke-linejoin="round"/>
  <path d="M 1522.42 1961.22 L 1529.36 1967.35 L 1531.84 1974.64" stroke="black" stroke-width="4" fill="none" stroke-linecap="round" stroke-linejoin="round"/>
  <path d="M 1500.00 1949.42 L 1516.14 1951.34 L 1529.85 1956.77" stroke="black" stroke-width="4" fill="none" stroke-linecap="round" stroke-linejoin="round"/>
  <path d="M 1500.00 1955.71 L 1487.86 1957.13 L 1477.58 1961.22" stroke="black" stroke-width="4" fill="none" stroke-linecap="round" stroke-linejoin="round"/>
  <path d="M 1470.15 1956.77 L 1460.88 1964.94 L 1457.50 1974.64 L 1460.62 1984.42 L 1469.77 1992.74" stroke="black" stroke-width="4" fill="none" stroke-linecap="round" stroke-linejoin="round"/>
  <path d="M 1468.16 1974.64 L 1470.49 1981.97" stroke="black" stroke-width="4" fill="none" stroke-linecap="round" stroke-linejoin="round"/>
  <path d="M 1477.37 1988.19 L 1487.71 1992.37" stroke="black" stroke-width="4" fill="none" stroke-linecap="round" stroke-linejoin="round"/>
  <path d="M 1500.00 1993.83 L 1512.29 1992.37" stroke="black" stroke-width="4" fill="none" stroke-linecap="round" stroke-linejoin="round"/>
  <path d="M 1500.00 2000.31 L 1516.40 1998.33 L 1530.22 1992.74" stroke="black" stroke-width="4" fill="none" stroke-linecap="round" stroke-linejoin="round"/>
  <path d="M 1522.63 1988.19 L 1529.51 1981.97 L 1531.84 1974.64 L 1529.36 1967.35 L 1522.42 1961.22 L 1512.14 1957.13 L 1500.00 1955.71 L 1487.86 1957.13 L 1477.58 1961.22 L 1470.64 1967.35 L 1468.16 1974.64 L 1470.49 1981.97 L 1477.37 1988.19 L 1487.71 1992.37 L 1500.00 1993.83 L 1512.29 1992.37 L 1522.63 1988.19 L 1529.51 1981.97" stroke="black" stroke-width="4" fill="none" stroke-linecap="round" stroke-linejoin="round"/>
  <path d="M 1517.14 1990.41 L 1512.08 1988.38 L 1500.00 1986.95 L 1487.92 1988.38 L 1482.86 1990.41" stroke="black" stroke-width="4" fill="none" stroke-linecap="round" stroke-linejoin="round"/>
  <path d="M 1457.50 1974.64 L 1460.62 1984.42 L 1469.77 1992.74 L 1483.60 1998.33 L 1500.00 2000.31 L 1516.40 1998.33 L 1530.22 1992.74 L 1539.38 1984.42 L 1542.50 1974.64 L 1539.12 1964.94 L 1529.85 1956.77 L 1516.14 1951.34 L 1500.00 1949.42 L 1483.86 1951.34 L 1470.15 1956.77 L 1460.88 1964.94 L 1457.50 1974.64 L 1457.70 2006.00 L 1460.80 2015.83 L 1469.92 2024.20 L 1483.67 2029.83 L 1500.00 2031.83 L 1516.33 2029.83 L 1530.08 2024.20 L 1539.20 2015.83 L 1542.30 2006.00 L 1542.50 1974.64" stroke="black" stroke-width="4" fill="none" stroke-linecap="round" stroke-linejoin="round"/>
  <path d="M 1292.35 1517.48 L 1500.00 1626.78 L 1707.65 1517.48 L 1712.14 1361.97 L 1500.00 1466.57 L 1500.00 1626.78 L 1707.65 1517.48 L 1712.14 1361.97 L 1500.00 1466.57 L 1287.86 1361.97 L 1292.35 1517.48 L 1500.00 1626.78 L 1500.00 1466.57 L 1287.86 1361.97 L 1292.35 1517.48" stroke="black" stroke-width="4" fill="none" stroke-linecap="round" stroke-linejoin="round"/>
  <path d="M 1287.86 1361.97 L 1500.00 1466.57 L 1712.14 1361.97 L 1716.82 1199.60 L 1500.00 1298.95 L 1500.00 1466.57 L 1712.14 1361.97 L 1716.82 1199.60 L 1500.00 1298.95 L 1283.18 1199.60 L 1287.86 1361.97 L 1500.00 1466.57 L 1500.00 1298.95 L 1283.18 1199.60 L 1287.86 1361.97" stroke="black" stroke-width="4" fill="none" stroke-linecap="round" stroke-linejoin="round"/>
  <path d="M 1283.18 1199.60 L 1500.00 1298.95 L 1716.82 1199.60 L 1721.72 1029.89 L 1500.00 1123.39 L 1500.00 1298.95 L 1716.82 1199.60 L 1721.72 1029.89 L 1500.00 1123.39 L 1278.28 1029.89 L 1283.18 1199.60 L 1500.00 1298.95 L 1500.00 1123.39 L 1278.28 1029.89 L 1283.18 1199.60" stroke="black" stroke-width="4" fill="none" stroke-linecap="round" stroke-linejoin="round"/>
  <path d="M 1278.28 1029.89 L 1500.00 1123.39 L 1721.72 1029.89 L 1726.84 852.34 L 1500.00 939.32 L 1500.00 1123.39 L 1721.72 1029.89 L 1726.84 852.34 L 1500.00 939.32 L 1273.16 852.34 L 1278.28 1029.89 L 1500.00 1123.39 L 1500.00 939.32 L 1273.16 852.34 L 1278.28 1029.89" stroke="black" stroke-width="4" fill="none" stroke-linecap="round" stroke-linejoin="round"/>
  <path d="M 1273.16 852.34 L 1500.00 939.32 L 1726.84 852.34 L 1732.20 666.39 L 1500.00 746.11 L 1500.00 939.32 L 1726.84 852.34 L 1732.20 666.39 L 1500.00 746.11 L 1267.80 666.39 L 1273.16 852.34 L 1500.00 939.32 L 1500.00 746.11 L 1267.80 666.39 L 1273.16 852.34" stroke="black" stroke-width="4" fill="none" stroke-linecap="round" stroke-linejoin="round"/>
  <path d="M 1267.80 666.39 L 1500.00 746.11 L 1732.20 666.39 L 1737.82 471.44 L 1500.00 543.05 L 1500.00 746.11 L 1732.20 666.39 L 1737.82 471.44 L 1669.77 452.88 L 1737.82 471.44 L 1500.00 543.05 L 1262.18 471.44 L 1330.23 452.88 L 1262.18 471.44 L 1267.80 666.39 L 1500.00 746.11 L 1500.00 543.05 L 1262.18 471.44 L 1267.80 666.39" stroke="black" stroke-width="4" fill="none" stroke-linecap="round" stroke-linejoin="round"/>
  <path d="M 1568.86 425.36 L 1549.37 420.04 L 1568.86 425.36 L 1568.82 425.43 L 1573.00 430.83 L 1584.33 435.43 L 1601.13 438.52 L 1620.85 439.62 L 1640.37 438.52 L 1656.62 435.43 L 1667.12 430.83 L 1670.34 425.43 L 1665.78 420.07 L 1654.30 415.58 L 1637.67 412.59 L 1618.33 411.53 L 1599.18 412.59 L 1583.08 415.58 L 1572.41 420.07 L 1568.82 425.43 L 1568.43 471.44 L 1572.59 476.99 L 1583.86 481.73 L 1600.56 484.91 L 1620.17 486.04 L 1639.59 484.91 L 1655.74 481.73 L 1666.19 476.99 L 1669.39 471.44 L 1670.34 425.43" stroke="black" stroke-width="4" fill="none" stroke-linecap="round" stroke-linejoin="round"/>
  <path d="M 1450.63 420.04 L 1431.14 425.36 L 1450.63 420.04" stroke="black" stroke-width="4" fill="none" stroke-linecap="round" stroke-linejoin="round"/>
  <path d="M 1500.00 383.21 L 1514.13 383.96" stroke="black" stroke-width="4" fill="none" stroke-linecap="round" stroke-linejoin="round"/>
  <path d="M 1526.11 386.10 L 1534.20 389.32" stroke="black" stroke-width="4" fill="none" stroke-linecap="round" stroke-linejoin="round"/>
  <path d="M 1500.00 379.92 L 1518.78 380.92 L 1534.75 383.77" stroke="black" stroke-width="4" fill="none" stroke-linecap="round" stroke-linejoin="round"/>
  <path d="M 1485.87 383.96 L 1473.89 386.10" stroke="black" stroke-width="4" fill="none" stroke-linecap="round" stroke-linejoin="round"/>
  <path d="M 1465.25 383.77 L 1454.44 388.05 L 1450.47 393.15 L 1454.08 398.29 L 1464.74 402.67" stroke="black" stroke-width="4" fill="none" stroke-linecap="round" stroke-linejoin="round"/>
  <path d="M 1465.80 389.32 L 1462.90 393.15" stroke="black" stroke-width="4" fill="none" stroke-linecap="round" stroke-linejoin="round"/>
  <path d="M 1473.60 400.27 L 1485.66 402.48 L 1500.00 403.24" stroke="black" stroke-width="4" fill="none" stroke-linecap="round" stroke-linejoin="round"/>
  <path d="M 1500.00 406.66 L 1519.14 405.61 L 1535.26 402.67" stroke="black" stroke-width="4" fill="none" stroke-linecap="round" stroke-linejoin="round"/>
  <path d="M 1526.40 400.27 L 1534.40 397.00 L 1537.10 393.15" stroke="black" stroke-width="4" fill="none" stroke-linecap="round" stroke-linejoin="round"/>
  <path d="M 1534.40 397.00 L 1537.10 393.15 L 1534.20 389.32 L 1526.11 386.10 L 1514.13 383.96 L 1500.00 383.21 L 1485.87 383.96 L 1473.89 386.10 L 1465.80 389.32 L 1462.90 393.15 L 1465.60 397.00 L 1473.60 400.27 L 1485.66 402.48 L 1500.00 403.24 L 1514.34 402.48 L 1526.40 400.27 L 1534.40 397.00" stroke="black" stroke-width="4" fill="none" stroke-linecap="round" stroke-linejoin="round"/>
  <path d="M 1533.20 448.38 L 1535.07 448.02 L 1545.67 443.52 L 1549.26 438.23 L 1549.53 393.15" stroke="black" stroke-width="4" fill="none" stroke-linecap="round" stroke-linejoin="round"/>
  <path d="M 1545.92 398.29 L 1549.53 393.15 L 1545.56 388.05 L 1534.75 383.77 L 1518.78 380.92 L 1500.00 379.92 L 1481.22 380.92 L 1465.25 383.77 L 1454.44 388.05 L 1450.47 393.15 L 1454.08 398.29 L 1464.74 402.67 L 1480.86 405.61 L 1500.00 406.66 L 1519.14 405.61 L 1535.26 402.67 L 1545.92 398.29" stroke="black" stroke-width="4" fill="none" stroke-linecap="round" stroke-linejoin="round"/>
  <path d="M 1450.47 393.15 L 1450.74 438.23 L 1454.33 443.52 L 1464.93 448.02 L 1466.80 448.38" stroke="black" stroke-width="4" fill="none" stroke-linecap="round" stroke-linejoin="round"/>
  <path d="M 1592.16 418.03 L 1604.23 415.77 L 1618.64 414.99 L 1633.19 415.77" stroke="black" stroke-width="4" fill="none" stroke-linecap="round" stroke-linejoin="round"/>
  <path d="M 1645.67 418.03 L 1654.26 421.40" stroke="black" stroke-width="4" fill="none" stroke-linecap="round" stroke-linejoin="round"/>
  <path d="M 1618.33 411.53 L 1637.67 412.59 L 1654.30 415.58" stroke="black" stroke-width="4" fill="none" stroke-linecap="round" stroke-linejoin="round"/>
  <path d="M 1583.08 415.58 L 1572.41 420.07 L 1568.82 425.43 L 1573.00 430.83 L 1584.33 435.43" stroke="black" stroke-width="4" fill="none" stroke-linecap="round" stroke-linejoin="round"/>
  <path d="M 1593.19 432.91 L 1605.76 435.23 L 1620.53 436.03 L 1635.15 435.23" stroke="black" stroke-width="4" fill="none" stroke-linecap="round" stroke-linejoin="round"/>
  <path d="M 1620.85 439.62 L 1640.37 438.52 L 1656.62 435.43" stroke="black" stroke-width="4" fill="none" stroke-linecap="round" stroke-linejoin="round"/>
  <path d="M 1647.30 432.91 L 1655.20 429.48 L 1657.60 425.43 L 1654.26 421.40 L 1645.67 418.03 L 1633.19 415.77 L 1618.64 414.99 L 1604.23 415.77 L 1592.16 418.03 L 1584.17 421.40 L 1581.55 425.43 L 1584.68 429.48 L 1593.19 432.91 L 1605.76 435.23 L 1620.53 436.03 L 1635.15 435.23 L 1647.30 432.91 L 1655.20 429.48" stroke="black" stroke-width="4" fill="none" stroke-linecap="round" stroke-linejoin="round"/>
  <path d="M 1407.84 418.03 L 1415.84 421.40 L 1418.45 425.43 L 1415.32 429.48 L 1406.81 432.91" stroke="black" stroke-width="4" fill="none" stroke-linecap="round" stroke-linejoin="round"/>
  <path d="M 1381.67 411.53 L 1400.82 412.59 L 1416.92 415.58" stroke="black" stroke-width="4" fill="none" stroke-linecap="round" stroke-linejoin="round"/>
  <path d="M 1366.81 415.77 L 1354.33 418.03" stroke="black" stroke-width="4" fill="none" stroke-linecap="round" stroke-linejoin="round"/>
  <path d="M 1345.70 415.58 L 1334.22 420.07 L 1329.66 425.43 L 1332.88 430.83 L 1343.38 435.43" stroke="black" stroke-width="4" fill="none" stroke-linecap="round" stroke-linejoin="round"/>
  <path d="M 1345.74 421.40 L 1342.40 425.43 L 1344.80 429.48" stroke="black" stroke-width="4" fill="none" stroke-linecap="round" stroke-linejoin="round"/>
  <path d="M 1352.70 432.91 L 1364.85 435.23" stroke="black" stroke-width="4" fill="none" stroke-linecap="round" stroke-linejoin="round"/>
  <path d="M 1379.15 439.62 L 1398.87 438.52 L 1415.67 435.43" stroke="black" stroke-width="4" fill="none" stroke-linecap="round" stroke-linejoin="round"/>
  <path d="M 1415.32 429.48 L 1418.45 425.43 L 1415.84 421.40 L 1407.84 418.03 L 1395.77 415.77 L 1381.36 414.99 L 1366.81 415.77 L 1354.33 418.03 L 1345.74 421.40 L 1342.40 425.43 L 1344.80 429.48 L 1352.70 432.91 L 1364.85 435.23 L 1379.47 436.03 L 1394.24 435.23 L 1406.81 432.91 L 1415.32 429.48" stroke="black" stroke-width="4" fill="none" stroke-linecap="round" stroke-linejoin="round"/>
  <path d="M 1329.66 425.43 L 1332.88 430.83 L 1343.38 435.43 L 1359.63 438.52 L 1379.15 439.62 L 1398.87 438.52 L 1415.67 435.43 L 1427.00 430.83 L 1431.18 425.43 L 1427.59 420.07 L 1416.92 415.58 L 1400.82 412.59 L 1381.67 411.53 L 1362.33 412.59 L 1345.70 415.58 L 1334.22 420.07 L 1329.66 425.43 L 1330.61 471.44 L 1333.81 476.99 L 1344.26 481.73 L 1360.41 484.91 L 1379.83 486.04 L 1399.44 484.91 L 1416.14 481.73 L 1427.41 476.99 L 1431.57 471.44 L 1431.18 425.43" stroke="black" stroke-width="4" fill="none" stroke-linecap="round" stroke-linejoin="round"/>
  <path d="M 1527.43 451.57 L 1535.94 455.12 L 1538.99 459.35" stroke="black" stroke-width="4" fill="none" stroke-linecap="round" stroke-linejoin="round"/>
  <path d="M 1500.00 444.74 L 1519.73 445.85 L 1536.51 448.99" stroke="black" stroke-width="4" fill="none" stroke-linecap="round" stroke-linejoin="round"/>
  <path d="M 1500.00 448.38 L 1485.15 449.20 L 1472.57 451.57" stroke="black" stroke-width="4" fill="none" stroke-linecap="round" stroke-linejoin="round"/>
  <path d="M 1463.49 448.99 L 1452.13 453.72 L 1447.95 459.35 L 1451.73 465.03 L 1462.93 469.87" stroke="black" stroke-width="4" fill="none" stroke-linecap="round" stroke-linejoin="round"/>
  <path d="M 1461.01 459.35 L 1463.84 463.61" stroke="black" stroke-width="4" fill="none" stroke-linecap="round" stroke-linejoin="round"/>
  <path d="M 1472.25 467.22 L 1484.93 469.66" stroke="black" stroke-width="4" fill="none" stroke-linecap="round" stroke-linejoin="round"/>
  <path d="M 1500.00 470.51 L 1515.07 469.66" stroke="black" stroke-width="4" fill="none" stroke-linecap="round" stroke-linejoin="round"/>
  <path d="M 1500.00 474.28 L 1520.13 473.13 L 1537.07 469.87" stroke="black" stroke-width="4" fill="none" stroke-linecap="round" stroke-linejoin="round"/>
  <path d="M 1527.75 467.22 L 1536.16 463.61 L 1538.99 459.35 L 1535.94 455.12 L 1527.43 451.57 L 1514.85 449.20 L 1500.00 448.38 L 1485.15 449.20 L 1472.57 451.57 L 1464.06 455.12 L 1461.01 459.35 L 1463.84 463.61 L 1472.25 467.22 L 1484.93 469.66 L 1500.00 470.51 L 1515.07 469.66 L 1527.75 467.22 L 1536.16 463.61" stroke="black" stroke-width="4" fill="none" stroke-linecap="round" stroke-linejoin="round"/>
  <path d="M 1447.95 459.35 L 1451.73 465.03 L 1462.93 469.87 L 1479.87 473.13 L 1500.00 474.28 L 1520.13 473.13 L 1537.07 469.87 L 1548.27 465.03 L 1552.05 459.35 L 1547.87 453.72 L 1536.51 448.99 L 1519.73 445.85 L 1500.00 444.74 L 1480.27 445.85 L 1463.49 448.99 L 1452.13 453.72 L 1447.95 459.35 L 1448.24 506.34 L 1452.01 512.18 L 1463.14 517.16 L 1479.99 520.51 L 1500.00 521.69 L 1520.01 520.51 L 1536.86 517.16 L 1547.99 512.18 L 1551.76 506.34 L 1552.05 459.35" stroke="black" stroke-width="4" fill="none" stroke-linecap="round" stroke-linejoin="round"/>
  <path d="M 1737.82 471.44 L 1669.77 452.88" stroke="black" stroke-width="4" fill="none" stroke-linecap="round" stroke-linejoin="round"/>
  <path d="M 1568.86 425.36 L 1549.37 420.04" stroke="black" stroke-width="4" fill="none" stroke-linecap="round" stroke-linejoin="round"/>
  <path d="M 1450.63 420.04 L 1431.14 425.36" stroke="black" stroke-width="4" fill="none" stroke-linecap="round" stroke-linejoin="round"/>
  <path d="M 1330.23 452.88 L 1262.18 471.44 L 1500.00 543.05 L 1737.82 471.44 L 1732.20 666.39 L 1500.00 746.11 L 1267.80 666.39 L 1262.18 471.44" stroke="black" stroke-width="4" fill="none" stroke-linecap="round" stroke-linejoin="round"/>
  <path d="M 1500.00 543.05 L 1500.00 746.11 L 1267.80 666.39 L 1500.00 746.11 L 1500.00 939.32 L 1273.16 852.34 L 1500.00 939.32 L 1726.84 852.34 L 1500.00 939.32 L 1726.84 852.34 L 1732.20 666.39 L 1500.00 746.11 L 1732.20 666.39 L 1500.00 746.11 L 1267.80 666.39 L 1273.16 852.34 L 1278.28 1029.89 L 1283.18 1199.60 L 1287.86 1361.97 L 1292.35 1517.48 L 1500.00 1626.78 L 1707.65 1517.48 L 1712.14 1361.97 L 1500.00 1466.57 L 1287.86 1361.97 L 1500.00 1466.57 L 1500.00 1626.78" stroke="black" stroke-width="4" fill="none" stroke-linecap="round" stroke-linejoin="round"/>
  <path d="M 1534.43 389.63 L 1534.20 389.32 L 1526.11 386.10 L 1514.13 383.96 L 1500.00 383.21 L 1485.87 383.96 L 1473.89 386.10 L 1465.80 389.32 L 1462.90 393.15 L 1465.60 397.00 L 1473.60 400.27 L 1485.66 402.48 L 1500.00 403.24 L 1514.34 402.48 L 1526.40 400.27 L 1534.40 397.00 L 1537.10 393.15" stroke="black" stroke-width="4" fill="none" stroke-linecap="round" stroke-linejoin="round"/>
  <path d="M 1549.26 438.23 L 1545.67 443.52 L 1535.07 448.02 L 1533.20 448.38" stroke="black" stroke-width="4" fill="none" stroke-linecap="round" stroke-linejoin="round"/>
  <path d="M 1545.97 388.58 L 1545.56 388.05 L 1534.75 383.77 L 1518.78 380.92 L 1500.00 379.92 L 1481.22 380.92 L 1465.25 383.77 L 1454.44 388.05 L 1450.47 393.15 L 1454.08 398.29 L 1464.74 402.67 L 1480.86 405.61 L 1500.00 406.66 L 1519.14 405.61 L 1535.26 402.67 L 1545.92 398.29 L 1549.53 393.15" stroke="black" stroke-width="4" fill="none" stroke-linecap="round" stroke-linejoin="round"/>
  <path d="M 1466.80 448.38 L 1464.93 448.02 L 1454.33 443.52 L 1450.74 438.23" stroke="black" stroke-width="4" fill="none" stroke-linecap="round" stroke-linejoin="round"/>
  <path d="M 1655.33 422.69 L 1654.26 421.40 L 1645.67 418.03 L 1633.19 415.77 L 1618.64 414.99 L 1604.23 415.77 L 1592.16 418.03 L 1584.17 421.40 L 1581.55 425.43 L 1584.68 429.48 L 1593.19 432.91 L 1605.76 435.23 L 1620.53 436.03 L 1635.15 435.23 L 1647.30 432.91 L 1655.20 429.48 L 1657.60 425.43" stroke="black" stroke-width="4" fill="none" stroke-linecap="round" stroke-linejoin="round"/>
  <path d="M 1669.39 471.44 L 1666.19 476.99 L 1655.74 481.73 L 1639.59 484.91 L 1620.17 486.04 L 1600.56 484.91 L 1583.86 481.73 L 1572.59 476.99 L 1568.43 471.44" stroke="black" stroke-width="4" fill="none" stroke-linecap="round" stroke-linejoin="round"/>
  <path d="M 1667.12 430.83 L 1670.34 425.43 L 1665.78 420.07 L 1654.30 415.58 L 1637.67 412.59 L 1618.33 411.53 L 1599.18 412.59 L 1583.08 415.58 L 1572.41 420.07 L 1568.82 425.43 L 1573.00 430.83 L 1584.33 435.43 L 1601.13 438.52 L 1620.85 439.62 L 1640.37 438.52 L 1656.62 435.43 L 1667.12 430.83" stroke="black" stroke-width="4" fill="none" stroke-linecap="round" stroke-linejoin="round"/>
  <path d="M 1415.32 429.48 L 1418.45 425.43 L 1415.84 421.40 L 1407.84 418.03 L 1395.77 415.77 L 1381.36 414.99 L 1366.81 415.77 L 1354.33 418.03 L 1345.74 421.40 L 1342.40 425.43 L 1344.80 429.48 L 1352.70 432.91 L 1364.85 435.23 L 1379.47 436.03 L 1394.24 435.23 L 1406.81 432.91 L 1415.32 429.48" stroke="black" stroke-width="4" fill="none" stroke-linecap="round" stroke-linejoin="round"/>
  <path d="M 1431.57 471.44 L 1427.41 476.99 L 1416.14 481.73 L 1399.44 484.91 L 1379.83 486.04 L 1360.41 484.91 L 1344.26 481.73 L 1333.81 476.99 L 1330.61 471.44" stroke="black" stroke-width="4" fill="none" stroke-linecap="round" stroke-linejoin="round"/>
  <path d="M 1427.00 430.83 L 1431.18 425.43 L 1427.59 420.07 L 1416.92 415.58 L 1400.82 412.59 L 1381.67 411.53 L 1362.33 412.59 L 1345.70 415.58 L 1334.22 420.07 L 1329.66 425.43 L 1332.88 430.83 L 1343.38 435.43 L 1359.63 438.52 L 1379.15 439.62 L 1398.87 438.52 L 1415.67 435.43 L 1427.00 430.83" stroke="black" stroke-width="4" fill="none" stroke-linecap="round" stroke-linejoin="round"/>
  <path d="M 1536.16 463.61 L 1538.99 459.35 L 1535.94 455.12 L 1527.43 451.57 L 1514.85 449.20 L 1500.00 448.38 L 1485.15 449.20 L 1472.57 451.57 L 1464.06 455.12 L 1461.01 459.35 L 1463.84 463.61 L 1472.25 467.22 L 1484.93 469.66 L 1500.00 470.51 L 1515.07 469.66 L 1527.75 467.22 L 1536.16 463.61" stroke="black" stroke-width="4" fill="none" stroke-linecap="round" stroke-linejoin="round"/>
  <path d="M 1551.76 506.34 L 1547.99 512.18 L 1536.86 517.16 L 1520.01 520.51 L 1500.00 521.69 L 1479.99 520.51 L 1463.14 517.16 L 1452.01 512.18 L 1448.24 506.34" stroke="black" stroke-width="4" fill="none" stroke-linecap="round" stroke-linejoin="round"/>
  <path d="M 1548.27 465.03 L 1552.05 459.35 L 1547.87 453.72 L 1536.51 448.99 L 1519.73 445.85 L 1500.00 444.74 L 1480.27 445.85 L 1463.49 448.99 L 1452.13 453.72 L 1447.95 459.35 L 1451.73 465.03 L 1462.93 469.87 L 1479.87 473.13 L 1500.00 474.28 L 1520.13 473.13 L 1537.07 469.87 L 1548.27 465.03" stroke="black" stroke-width="4" fill="none" stroke-linecap="round" stroke-linejoin="round"/>
  <path d="M 1695.27 1946.91 L 1639.38 1915.07" stroke="black" stroke-width="4" fill="none" stroke-linecap="round" stroke-linejoin="round"/>
  <path d="M 1598.69 1891.89 L 1540.51 1858.74" stroke="black" stroke-width="4" fill="none" stroke-linecap="round" stroke-linejoin="round"/>
  <path d="M 1501.41 1836.46 L 1500.00 1835.66 L 1498.59 1836.46" stroke="black" stroke-width="4" fill="none" stroke-linecap="round" stroke-linejoin="round"/>
  <path d="M 1459.49 1858.74 L 1401.31 1891.89" stroke="black" stroke-width="4" fill="none" stroke-linecap="round" stroke-linejoin="round"/>
  <path d="M 1360.62 1915.07 L 1304.73 1946.91 L 1500.00 2067.58 L 1695.27 1946.91 L 1691.46 2078.90 L 1500.00 2202.58 L 1691.46 2078.90 L 1500.00 2202.58 L 1308.54 2078.90 L 1500.00 2202.58 L 1500.00 2332.21 L 1312.20 2205.83 L 1500.00 2332.21 L 1687.80 2205.83 L 1500.00 2332.21 L 1687.80 2205.83 L 1691.46 2078.90 L 1500.00 2202.58 L 1308.54 2078.90 L 1312.20 2205.83 L 1500.00 2332.21 L 1500.00 2456.78 L 1315.72 2328.00 L 1312.20 2205.83 L 1500.00 2332.21 L 1687.80 2205.83 L 1684.27 2328.00 L 1500.00 2456.78" stroke="black" stroke-width="4" fill="none" stroke-linecap="round" stroke-linejoin="round"/>
  <path d="M 1500.00 2067.58 L 1500.00 2202.58 L 1308.54 2078.90 L 1304.73 1946.91" stroke="black" stroke-width="4" fill="none" stroke-linecap="round" stroke-linejoin="round"/>
  <path d="M 1528.38 1853.37 L 1528.19 1852.83 L 1521.53 1847.18 L 1511.66 1843.41 L 1500.00 1842.10 L 1488.34 1843.41 L 1478.47 1847.18 L 1471.81 1852.83 L 1469.43 1859.56 L 1471.67 1866.31 L 1478.27 1872.04 L 1488.20 1875.89 L 1500.00 1877.24 L 1511.80 1875.89 L 1521.72 1872.04 L 1528.33 1866.31 L 1530.57 1859.56" stroke="black" stroke-width="4" fill="none" stroke-linecap="round" stroke-linejoin="round"/>
  <path d="M 1485.76 1874.95 L 1488.39 1873.93 L 1500.00 1872.61 L 1511.61 1873.93 L 1514.24 1874.95" stroke="black" stroke-width="4" fill="none" stroke-linecap="round" stroke-linejoin="round"/>
  <path d="M 1540.62 1890.18 L 1537.63 1899.25 L 1528.88 1906.96 L 1515.67 1912.15 L 1500.00 1913.99 L 1484.33 1912.15 L 1471.12 1906.96 L 1462.37 1899.25 L 1459.38 1890.18" stroke="black" stroke-width="4" fill="none" stroke-linecap="round" stroke-linejoin="round"/>
  <path d="M 1537.90 1851.54 L 1537.56 1850.61 L 1528.66 1843.08 L 1515.50 1838.07 L 1500.00 1836.30 L 1484.50 1838.07 L 1471.34 1843.08 L 1462.44 1850.61 L 1459.20 1859.56 L 1462.20 1868.56 L 1470.99 1876.23 L 1484.26 1881.38 L 1500.00 1883.21 L 1515.74 1881.38 L 1529.01 1876.23 L 1537.80 1868.56 L 1540.80 1859.56" stroke="black" stroke-width="4" fill="none" stroke-linecap="round" stroke-linejoin="round"/>
  <path d="M 1627.23 1922.96 L 1629.27 1915.93 L 1626.60 1908.93 L 1619.60 1903.04 L 1609.39 1899.12 L 1597.45 1897.75 L 1585.60 1899.12 L 1575.66 1903.04 L 1569.07 1908.93 L 1566.89 1915.93 L 1569.42 1922.96 L 1576.36 1928.93 L 1586.63 1932.94 L 1598.72 1934.34 L 1610.71 1932.94 L 1620.70 1928.93 L 1627.23 1922.96" stroke="black" stroke-width="4" fill="none" stroke-linecap="round" stroke-linejoin="round"/>
  <path d="M 1582.19 1931.20 L 1585.21 1930.00 L 1597.01 1928.62 L 1608.89 1930.00 L 1613.54 1931.80" stroke="black" stroke-width="4" fill="none" stroke-linecap="round" stroke-linejoin="round"/>
  <path d="M 1639.08 1946.91 L 1636.35 1956.35 L 1627.70 1964.39 L 1614.41 1969.79 L 1598.48 1971.70 L 1582.42 1969.79 L 1568.76 1964.39 L 1559.56 1956.35 L 1556.19 1946.91" stroke="black" stroke-width="4" fill="none" stroke-linecap="round" stroke-linejoin="round"/>
  <path d="M 1636.98 1925.30 L 1639.71 1915.93 L 1636.08 1906.61 L 1626.73 1898.78 L 1613.11 1893.56 L 1597.24 1891.72 L 1581.49 1893.56 L 1568.24 1898.78 L 1559.44 1906.61 L 1556.44 1915.93 L 1559.83 1925.30 L 1569.08 1933.29 L 1582.80 1938.66 L 1598.94 1940.56 L 1614.94 1938.66 L 1628.29 1933.29 L 1636.98 1925.30" stroke="black" stroke-width="4" fill="none" stroke-linecap="round" stroke-linejoin="round"/>
  <path d="M 1430.58 1922.96 L 1433.11 1915.93 L 1430.93 1908.93 L 1424.33 1903.04 L 1414.40 1899.12 L 1402.55 1897.75 L 1390.61 1899.12 L 1380.40 1903.04 L 1373.40 1908.93 L 1370.73 1915.93 L 1372.77 1922.96 L 1379.30 1928.93 L 1389.29 1932.94 L 1401.28 1934.34 L 1413.37 1932.94 L 1423.64 1928.93 L 1430.58 1922.96" stroke="black" stroke-width="4" fill="none" stroke-linecap="round" stroke-linejoin="round"/>
  <path d="M 1386.46 1931.80 L 1391.10 1930.00 L 1402.99 1928.62 L 1414.79 1930.00 L 1417.81 1931.20" stroke="black" stroke-width="4" fill="none" stroke-linecap="round" stroke-linejoin="round"/>
  <path d="M 1443.81 1946.91 L 1440.44 1956.35 L 1431.24 1964.39 L 1417.58 1969.79 L 1401.52 1971.70 L 1385.59 1969.79 L 1372.30 1964.39 L 1363.64 1956.35 L 1360.92 1946.91" stroke="black" stroke-width="4" fill="none" stroke-linecap="round" stroke-linejoin="round"/>
  <path d="M 1440.17 1925.30 L 1443.55 1915.93 L 1440.56 1906.61 L 1431.76 1898.78 L 1418.51 1893.56 L 1402.76 1891.72 L 1386.89 1893.56 L 1373.27 1898.78 L 1363.92 1906.61 L 1360.28 1915.93 L 1363.02 1925.30 L 1371.71 1933.29 L 1385.06 1938.66 L 1401.06 1940.56 L 1417.20 1938.66 L 1430.92 1933.29 L 1440.17 1925.30" stroke="black" stroke-width="4" fill="none" stroke-linecap="round" stroke-linejoin="round"/>
  <path d="M 1529.51 1981.97 L 1531.84 1974.64 L 1529.36 1967.35 L 1522.42 1961.22 L 1512.14 1957.13 L 1500.00 1955.71 L 1487.86 1957.13 L 1477.58 1961.22 L 1470.64 1967.35 L 1468.16 1974.64 L 1470.49 1981.97 L 1477.37 1988.19 L 1487.71 1992.37 L 1500.00 1993.83 L 1512.29 1992.37 L 1522.63 1988.19 L 1529.51 1981.97" stroke="black" stroke-width="4" fill="none" stroke-linecap="round" stroke-linejoin="round"/>
  <path d="M 1482.86 1990.41 L 1487.92 1988.38 L 1500.00 1986.95 L 1512.08 1988.38 L 1517.14 1990.41" stroke="black" stroke-width="4" fill="none" stroke-linecap="round" stroke-linejoin="round"/>
  <path d="M 1542.30 2006.00 L 1539.20 2015.83 L 1530.08 2024.20 L 1516.33 2029.83 L 1500.00 2031.83 L 1483.67 2029.83 L 1469.92 2024.20 L 1460.80 2015.83 L 1457.70 2006.00" stroke="black" stroke-width="4" fill="none" stroke-linecap="round" stroke-linejoin="round"/>
  <path d="M 1539.38 1984.42 L 1542.50 1974.64 L 1539.12 1964.94 L 1529.85 1956.77 L 1516.14 1951.34 L 1500.00 1949.42 L 1483.86 1951.34 L 1470.15 1956.77 L 1460.88 1964.94 L 1457.50 1974.64 L 1460.62 1984.42 L 1469.77 1992.74 L 1483.60 1998.33 L 1500.00 2000.31 L 1516.40 1998.33 L 1530.22 1992.74 L 1539.38 1984.42" stroke="black" stroke-width="4" fill="none" stroke-linecap="round" stroke-linejoin="round"/>
  <path d="M 1287.86 1361.97 L 1500.00 1466.57 L 1712.14 1361.97 L 1500.00 1466.57 L 1712.14 1361.97 L 1716.82 1199.60 L 1500.00 1298.95 L 1283.18 1199.60 L 1500.00 1298.95 L 1500.00 1466.57 L 1287.86 1361.97" stroke="black" stroke-width="4" fill="none" stroke-linecap="round" stroke-linejoin="round"/>
  <path d="M 1283.18 1199.60 L 1500.00 1298.95 L 1716.82 1199.60 L 1500.00 1298.95 L 1716.82 1199.60 L 1721.72 1029.89 L 1500.00 1123.39 L 1278.28 1029.89 L 1500.00 1123.39 L 1500.00 1298.95 L 1283.18 1199.60" stroke="black" stroke-width="4" fill="none" stroke-linecap="round" stroke-linejoin="round"/>
  <path d="M 1278.28 1029.89 L 1500.00 1123.39 L 1721.72 1029.89 L 1500.00 1123.39 L 1721.72 1029.89 L 1726.84 852.34 L 1500.00 939.32 L 1273.16 852.34 L 1500.00 939.32 L 1500.00 1123.39 L 1278.28 1029.89" stroke="black" stroke-width="4" fill="none" stroke-linecap="round" stroke-linejoin="round"/>
</svg>
