<?xml version="1.0" ?>
<svg xmlns="http://www.w3.org/2000/svg" version="1.1" width="757.53px" height="3000px" viewBox="12135.77 0 757.53 3000">
  <polygon points="12297.32,1299.76 12297.72,1314.34 12299.99,1310.00 12299.60,1295.45" fill="#ff9ecc" stroke="#ff9ecc" stroke-width="0.5" stroke-linecap="round" stroke-linejoin="round"/>
  <polygon points="12250.48,1295.46 12250.97,1310.02 12252.33,1314.34 12251.85,1299.76" fill="#ff9ecc" stroke="#ff9ecc" stroke-width="0.5" stroke-linecap="round" stroke-linejoin="round"/>
  <polygon points="12285.44,1285.12 12276.19,1284.28 12266.72,1285.12 12258.53,1287.55 12252.81,1291.16 12250.48,1295.46 12251.85,1299.76 12256.78,1303.44 12264.51,1305.88 12273.87,1306.75 12283.41,1305.88 12291.64,1303.44 12297.32,1299.76 12299.60,1295.45 12298.11,1291.16 12293.14,1287.55" fill="#ff9ecc" stroke="#ff9ecc" stroke-width="0.5" stroke-linecap="round" stroke-linejoin="round"/>
  <polygon points="12251.85,1299.76 12252.33,1314.34 12257.26,1318.03 12256.78,1303.44" fill="#ff9ecc" stroke="#ff9ecc" stroke-width="0.5" stroke-linecap="round" stroke-linejoin="round"/>
  <polygon points="12291.64,1303.44 12292.05,1318.03 12297.72,1314.34 12297.32,1299.76" fill="#ff9ecc" stroke="#ff9ecc" stroke-width="0.5" stroke-linecap="round" stroke-linejoin="round"/>
  <polygon points="12256.78,1303.44 12257.26,1318.03 12264.97,1320.48 12264.51,1305.88" fill="#ff9ecc" stroke="#ff9ecc" stroke-width="0.5" stroke-linecap="round" stroke-linejoin="round"/>
  <polygon points="12283.41,1305.88 12283.84,1320.48 12292.05,1318.03 12291.64,1303.44" fill="#ff9ecc" stroke="#ff9ecc" stroke-width="0.5" stroke-linecap="round" stroke-linejoin="round"/>
  <polygon points="12273.87,1306.75 12274.31,1321.36 12283.84,1320.48 12283.41,1305.88" fill="#ff9ecc" stroke="#ff9ecc" stroke-width="0.5" stroke-linecap="round" stroke-linejoin="round"/>
  <polygon points="12264.51,1305.88 12264.97,1320.48 12274.31,1321.36 12273.87,1306.75" fill="#ff9ecc" stroke="#ff9ecc" stroke-width="0.5" stroke-linecap="round" stroke-linejoin="round"/>
  <polygon points="12236.13,1326.68 12236.66,1341.37 12239.08,1336.93 12238.56,1322.26" fill="#ff9ecc" stroke="#ff9ecc" stroke-width="0.5" stroke-linecap="round" stroke-linejoin="round"/>
  <polygon points="12353.56,1326.68 12353.85,1341.37 12356.04,1336.93 12355.75,1322.26" fill="#ff9ecc" stroke="#ff9ecc" stroke-width="0.5" stroke-linecap="round" stroke-linejoin="round"/>
  <polygon points="12306.03,1322.27 12306.42,1336.95 12307.91,1341.37 12307.53,1326.68" fill="#ff9ecc" stroke="#ff9ecc" stroke-width="0.5" stroke-linecap="round" stroke-linejoin="round"/>
  <polygon points="12188.84,1322.27 12189.46,1336.95 12190.72,1341.37 12190.11,1326.68" fill="#ff9ecc" stroke="#ff9ecc" stroke-width="0.5" stroke-linecap="round" stroke-linejoin="round"/>
  <polygon points="12330.00,1333.84 12339.64,1332.94 12347.90,1330.44 12353.56,1326.68 12355.75,1322.26 12354.14,1317.86 12349.01,1314.16 12341.16,1311.67 12331.78,1310.81 12322.21,1311.67 12313.98,1314.16 12308.29,1317.86 12306.03,1322.27 12307.53,1326.68 12312.61,1330.44 12320.50,1332.94" fill="#ff9ecc" stroke="#ff9ecc" stroke-width="0.5" stroke-linecap="round" stroke-linejoin="round"/>
  <polygon points="12232.24,1314.16 12224.52,1311.67 12215.19,1310.81 12205.57,1311.67 12197.21,1314.16 12191.33,1317.86 12188.84,1322.27 12190.11,1326.68 12194.99,1330.44 12202.75,1332.94 12212.20,1333.84 12221.88,1332.94 12230.28,1330.44 12236.13,1326.68 12238.56,1322.26 12237.18,1317.86" fill="#ff9ecc" stroke="#ff9ecc" stroke-width="0.5" stroke-linecap="round" stroke-linejoin="round"/>
  <polygon points="12190.11,1326.68 12190.72,1341.37 12195.60,1345.16 12194.99,1330.44" fill="#ff9ecc" stroke="#ff9ecc" stroke-width="0.5" stroke-linecap="round" stroke-linejoin="round"/>
  <polygon points="12307.53,1326.68 12307.91,1341.37 12312.99,1345.16 12312.61,1330.44" fill="#ff9ecc" stroke="#ff9ecc" stroke-width="0.5" stroke-linecap="round" stroke-linejoin="round"/>
  <polygon points="12347.90,1330.44 12348.20,1345.16 12353.85,1341.37 12353.56,1326.68" fill="#ff9ecc" stroke="#ff9ecc" stroke-width="0.5" stroke-linecap="round" stroke-linejoin="round"/>
  <polygon points="12230.28,1330.44 12230.82,1345.16 12236.66,1341.37 12236.13,1326.68" fill="#ff9ecc" stroke="#ff9ecc" stroke-width="0.5" stroke-linecap="round" stroke-linejoin="round"/>
  <polygon points="12312.61,1330.44 12312.99,1345.16 12320.86,1347.67 12320.50,1332.94" fill="#ff9ecc" stroke="#ff9ecc" stroke-width="0.5" stroke-linecap="round" stroke-linejoin="round"/>
  <polygon points="12194.99,1330.44 12195.60,1345.16 12203.34,1347.67 12202.75,1332.94" fill="#ff9ecc" stroke="#ff9ecc" stroke-width="0.5" stroke-linecap="round" stroke-linejoin="round"/>
  <polygon points="12221.88,1332.94 12222.44,1347.67 12230.82,1345.16 12230.28,1330.44" fill="#ff9ecc" stroke="#ff9ecc" stroke-width="0.5" stroke-linecap="round" stroke-linejoin="round"/>
  <polygon points="12339.64,1332.94 12339.95,1347.67 12348.20,1345.16 12347.90,1330.44" fill="#ff9ecc" stroke="#ff9ecc" stroke-width="0.5" stroke-linecap="round" stroke-linejoin="round"/>
  <polygon points="12202.75,1332.94 12203.34,1347.67 12212.77,1348.57 12212.20,1333.84" fill="#ff9ecc" stroke="#ff9ecc" stroke-width="0.5" stroke-linecap="round" stroke-linejoin="round"/>
  <polygon points="12212.20,1333.84 12212.77,1348.57 12222.44,1347.67 12221.88,1332.94" fill="#ff9ecc" stroke="#ff9ecc" stroke-width="0.5" stroke-linecap="round" stroke-linejoin="round"/>
  <polygon points="12320.50,1332.94 12320.86,1347.67 12330.34,1348.57 12330.00,1333.84" fill="#ff9ecc" stroke="#ff9ecc" stroke-width="0.5" stroke-linecap="round" stroke-linejoin="round"/>
  <polygon points="12330.00,1333.84 12330.34,1348.57 12339.95,1347.67 12339.64,1332.94" fill="#ff9ecc" stroke="#ff9ecc" stroke-width="0.5" stroke-linecap="round" stroke-linejoin="round"/>
  <polygon points="12278.13,1283.73 12155.77,1336.95 12384.06,1451.55 12506.82,1392.82" fill="#ff9ecc" stroke="#ff9ecc" stroke-width="0.5" stroke-linecap="round" stroke-linejoin="round"/>
  <polygon points="12292.31,1354.25 12292.73,1369.08 12295.07,1364.53 12294.66,1349.72" fill="#ff9ecc" stroke="#ff9ecc" stroke-width="0.5" stroke-linecap="round" stroke-linejoin="round"/>
  <polygon points="12411.19,1354.25 12411.36,1369.08 12413.47,1364.53 12413.29,1349.72" fill="#ff9ecc" stroke="#ff9ecc" stroke-width="0.5" stroke-linecap="round" stroke-linejoin="round"/>
  <polygon points="12362.96,1349.74 12363.23,1364.54 12364.86,1369.08 12364.59,1354.25" fill="#ff9ecc" stroke="#ff9ecc" stroke-width="0.5" stroke-linecap="round" stroke-linejoin="round"/>
  <polygon points="12244.32,1349.74 12244.84,1364.54 12246.23,1369.08 12245.71,1354.25" fill="#ff9ecc" stroke="#ff9ecc" stroke-width="0.5" stroke-linecap="round" stroke-linejoin="round"/>
  <polygon points="12270.70,1338.00 12260.99,1338.88 12252.59,1341.43 12246.73,1345.22 12244.32,1349.74 12245.71,1354.25 12250.76,1358.11 12258.67,1360.68 12268.26,1361.59 12278.04,1360.68 12286.48,1358.11 12292.31,1354.25 12294.66,1349.72 12293.14,1345.22 12288.05,1341.43 12280.18,1338.88" fill="#ff9ecc" stroke="#ff9ecc" stroke-width="0.5" stroke-linecap="round" stroke-linejoin="round"/>
  <polygon points="12388.72,1338.00 12379.06,1338.88 12370.79,1341.43 12365.13,1345.22 12362.96,1349.74 12364.59,1354.25 12369.83,1358.11 12377.88,1360.68 12387.52,1361.59 12397.25,1360.68 12405.56,1358.11 12411.19,1354.25 12413.29,1349.72 12411.54,1345.22 12406.25,1341.43 12398.24,1338.88" fill="#ff9ecc" stroke="#ff9ecc" stroke-width="0.5" stroke-linecap="round" stroke-linejoin="round"/>
  <polygon points="12364.59,1354.25 12364.86,1369.08 12370.10,1372.95 12369.83,1358.11" fill="#ff9ecc" stroke="#ff9ecc" stroke-width="0.5" stroke-linecap="round" stroke-linejoin="round"/>
  <polygon points="12405.56,1358.11 12405.75,1372.95 12411.36,1369.08 12411.19,1354.25" fill="#ff9ecc" stroke="#ff9ecc" stroke-width="0.5" stroke-linecap="round" stroke-linejoin="round"/>
  <polygon points="12286.48,1358.11 12286.91,1372.95 12292.73,1369.08 12292.31,1354.25" fill="#ff9ecc" stroke="#ff9ecc" stroke-width="0.5" stroke-linecap="round" stroke-linejoin="round"/>
  <polygon points="12245.71,1354.25 12246.23,1369.08 12251.26,1372.95 12250.76,1358.11" fill="#ff9ecc" stroke="#ff9ecc" stroke-width="0.5" stroke-linecap="round" stroke-linejoin="round"/>
  <polygon points="12278.04,1360.68 12278.49,1375.53 12286.91,1372.95 12286.48,1358.11" fill="#ff9ecc" stroke="#ff9ecc" stroke-width="0.5" stroke-linecap="round" stroke-linejoin="round"/>
  <polygon points="12250.76,1358.11 12251.26,1372.95 12259.16,1375.53 12258.67,1360.68" fill="#ff9ecc" stroke="#ff9ecc" stroke-width="0.5" stroke-linecap="round" stroke-linejoin="round"/>
  <polygon points="12397.25,1360.68 12397.46,1375.53 12405.75,1372.95 12405.56,1358.11" fill="#ff9ecc" stroke="#ff9ecc" stroke-width="0.5" stroke-linecap="round" stroke-linejoin="round"/>
  <polygon points="12369.83,1358.11 12370.10,1372.95 12378.13,1375.53 12377.88,1360.68" fill="#ff9ecc" stroke="#ff9ecc" stroke-width="0.5" stroke-linecap="round" stroke-linejoin="round"/>
  <polygon points="12258.67,1360.68 12259.16,1375.53 12268.73,1376.45 12268.26,1361.59" fill="#ff9ecc" stroke="#ff9ecc" stroke-width="0.5" stroke-linecap="round" stroke-linejoin="round"/>
  <polygon points="12387.52,1361.59 12387.75,1376.45 12397.46,1375.53 12397.25,1360.68" fill="#ff9ecc" stroke="#ff9ecc" stroke-width="0.5" stroke-linecap="round" stroke-linejoin="round"/>
  <polygon points="12268.26,1361.59 12268.73,1376.45 12278.49,1375.53 12278.04,1360.68" fill="#ff9ecc" stroke="#ff9ecc" stroke-width="0.5" stroke-linecap="round" stroke-linejoin="round"/>
  <polygon points="12377.88,1360.68 12378.13,1375.53 12387.75,1376.45 12387.52,1361.59" fill="#ff9ecc" stroke="#ff9ecc" stroke-width="0.5" stroke-linecap="round" stroke-linejoin="round"/>
  <polygon points="12385.49,1541.37 12384.06,1451.55 12155.77,1336.95 12159.83,1423.80" fill="#ff9ecc" stroke="#ff9ecc" stroke-width="0.5" stroke-linecap="round" stroke-linejoin="round"/>
  <polygon points="12470.26,1382.52 12470.32,1397.47 12472.32,1392.81 12472.27,1377.88" fill="#ff9ecc" stroke="#ff9ecc" stroke-width="0.5" stroke-linecap="round" stroke-linejoin="round"/>
  <polygon points="12349.89,1382.52 12350.20,1397.47 12352.45,1392.81 12352.15,1377.88" fill="#ff9ecc" stroke="#ff9ecc" stroke-width="0.5" stroke-linecap="round" stroke-linejoin="round"/>
  <polygon points="12421.31,1377.89 12421.47,1392.82 12423.23,1397.47 12423.07,1382.52" fill="#ff9ecc" stroke="#ff9ecc" stroke-width="0.5" stroke-linecap="round" stroke-linejoin="round"/>
  <polygon points="12301.19,1377.89 12301.59,1392.82 12303.12,1397.47 12302.71,1382.52" fill="#ff9ecc" stroke="#ff9ecc" stroke-width="0.5" stroke-linecap="round" stroke-linejoin="round"/>
  <polygon points="12345.25,1369.37 12337.21,1366.76 12327.60,1365.86 12317.79,1366.76 12309.35,1369.37 12303.51,1373.26 12301.19,1377.89 12302.71,1382.52 12307.92,1386.48 12316.00,1389.11 12325.73,1390.04 12335.61,1389.11 12344.09,1386.48 12349.89,1382.52 12352.15,1377.88 12350.50,1373.26" fill="#ff9ecc" stroke="#ff9ecc" stroke-width="0.5" stroke-linecap="round" stroke-linejoin="round"/>
  <polygon points="12472.27,1377.88 12470.38,1373.26 12464.92,1369.37 12456.74,1366.76 12447.08,1365.86 12437.32,1366.76 12429.02,1369.37 12423.39,1373.26 12421.31,1377.89 12423.07,1382.52 12428.49,1386.48 12436.70,1389.11 12446.49,1390.04 12456.32,1389.11 12464.66,1386.48 12470.26,1382.52" fill="#ff9ecc" stroke="#ff9ecc" stroke-width="0.5" stroke-linecap="round" stroke-linejoin="round"/>
  <polygon points="12464.66,1386.48 12464.73,1401.44 12470.32,1397.47 12470.26,1382.52" fill="#ff9ecc" stroke="#ff9ecc" stroke-width="0.5" stroke-linecap="round" stroke-linejoin="round"/>
  <polygon points="12344.09,1386.48 12344.41,1401.44 12350.20,1397.47 12349.89,1382.52" fill="#ff9ecc" stroke="#ff9ecc" stroke-width="0.5" stroke-linecap="round" stroke-linejoin="round"/>
  <polygon points="12423.07,1382.52 12423.23,1397.47 12428.63,1401.44 12428.49,1386.48" fill="#ff9ecc" stroke="#ff9ecc" stroke-width="0.5" stroke-linecap="round" stroke-linejoin="round"/>
  <polygon points="12302.71,1382.52 12303.12,1397.47 12308.31,1401.44 12307.92,1386.48" fill="#ff9ecc" stroke="#ff9ecc" stroke-width="0.5" stroke-linecap="round" stroke-linejoin="round"/>
  <polygon points="12335.61,1389.11 12335.95,1404.09 12344.41,1401.44 12344.09,1386.48" fill="#ff9ecc" stroke="#ff9ecc" stroke-width="0.5" stroke-linecap="round" stroke-linejoin="round"/>
  <polygon points="12456.32,1389.11 12456.41,1404.09 12464.73,1401.44 12464.66,1386.48" fill="#ff9ecc" stroke="#ff9ecc" stroke-width="0.5" stroke-linecap="round" stroke-linejoin="round"/>
  <polygon points="12428.49,1386.48 12428.63,1401.44 12436.83,1404.09 12436.70,1389.11" fill="#ff9ecc" stroke="#ff9ecc" stroke-width="0.5" stroke-linecap="round" stroke-linejoin="round"/>
  <polygon points="12307.92,1386.48 12308.31,1401.44 12316.37,1404.09 12316.00,1389.11" fill="#ff9ecc" stroke="#ff9ecc" stroke-width="0.5" stroke-linecap="round" stroke-linejoin="round"/>
  <polygon points="12436.70,1389.11 12436.83,1404.09 12446.60,1405.03 12446.49,1390.04" fill="#ff9ecc" stroke="#ff9ecc" stroke-width="0.5" stroke-linecap="round" stroke-linejoin="round"/>
  <polygon points="12316.00,1389.11 12316.37,1404.09 12326.09,1405.03 12325.73,1390.04" fill="#ff9ecc" stroke="#ff9ecc" stroke-width="0.5" stroke-linecap="round" stroke-linejoin="round"/>
  <polygon points="12446.49,1390.04 12446.60,1405.03 12456.41,1404.09 12456.32,1389.11" fill="#ff9ecc" stroke="#ff9ecc" stroke-width="0.5" stroke-linecap="round" stroke-linejoin="round"/>
  <polygon points="12325.73,1390.04 12326.09,1405.03 12335.95,1404.09 12335.61,1389.11" fill="#ff9ecc" stroke="#ff9ecc" stroke-width="0.5" stroke-linecap="round" stroke-linejoin="round"/>
  <polygon points="12506.82,1392.82 12384.06,1451.55 12385.49,1541.37 12506.74,1481.14" fill="#ff9ecc" stroke="#ff9ecc" stroke-width="0.5" stroke-linecap="round" stroke-linejoin="round"/>
  <polygon points="12408.94,1411.50 12409.12,1426.58 12411.28,1421.80 12411.10,1406.74" fill="#ff9ecc" stroke="#ff9ecc" stroke-width="0.5" stroke-linecap="round" stroke-linejoin="round"/>
  <polygon points="12359.50,1406.76 12359.78,1421.82 12361.44,1426.58 12361.16,1411.50" fill="#ff9ecc" stroke="#ff9ecc" stroke-width="0.5" stroke-linecap="round" stroke-linejoin="round"/>
  <polygon points="12395.68,1395.34 12385.92,1394.42 12376.01,1395.34 12367.54,1398.02 12361.73,1402.00 12359.50,1406.76 12361.16,1411.50 12366.53,1415.56 12374.78,1418.26 12384.66,1419.22 12394.64,1418.26 12403.16,1415.56 12408.94,1411.50 12411.10,1406.74 12409.31,1402.00 12403.89,1398.02" fill="#ff9ecc" stroke="#ff9ecc" stroke-width="0.5" stroke-linecap="round" stroke-linejoin="round"/>
  <polygon points="12403.16,1415.56 12403.36,1430.66 12409.12,1426.58 12408.94,1411.50" fill="#ff9ecc" stroke="#ff9ecc" stroke-width="0.5" stroke-linecap="round" stroke-linejoin="round"/>
  <polygon points="12361.16,1411.50 12361.44,1426.58 12366.81,1430.66 12366.53,1415.56" fill="#ff9ecc" stroke="#ff9ecc" stroke-width="0.5" stroke-linecap="round" stroke-linejoin="round"/>
  <polygon points="12394.64,1418.26 12394.86,1433.37 12403.36,1430.66 12403.16,1415.56" fill="#ff9ecc" stroke="#ff9ecc" stroke-width="0.5" stroke-linecap="round" stroke-linejoin="round"/>
  <polygon points="12366.53,1415.56 12366.81,1430.66 12375.04,1433.37 12374.78,1418.26" fill="#ff9ecc" stroke="#ff9ecc" stroke-width="0.5" stroke-linecap="round" stroke-linejoin="round"/>
  <polygon points="12374.78,1418.26 12375.04,1433.37 12384.90,1434.33 12384.66,1419.22" fill="#ff9ecc" stroke="#ff9ecc" stroke-width="0.5" stroke-linecap="round" stroke-linejoin="round"/>
  <polygon points="12384.66,1419.22 12384.90,1434.33 12394.86,1433.37 12394.64,1418.26" fill="#ff9ecc" stroke="#ff9ecc" stroke-width="0.5" stroke-linecap="round" stroke-linejoin="round"/>
  <polygon points="12639.57,1493.84 12639.28,1508.83 12640.94,1503.87 12641.23,1488.90" fill="#60afff" stroke="#60afff" stroke-width="0.5" stroke-linecap="round" stroke-linejoin="round"/>
  <polygon points="12589.39,1488.90 12589.21,1503.87 12591.35,1508.83 12591.54,1493.84" fill="#60afff" stroke="#60afff" stroke-width="0.5" stroke-linecap="round" stroke-linejoin="round"/>
  <polygon points="12639.57,1493.84 12641.23,1488.90 12639.02,1483.97 12633.15,1479.81 12624.63,1477.02 12614.70,1476.07 12604.89,1477.04 12596.61,1479.81 12591.19,1483.97 12589.39,1488.90 12591.54,1493.84 12597.34,1498.07 12605.94,1500.89 12615.94,1501.87 12625.87,1500.88 12634.17,1498.07" fill="#60afff" stroke="#60afff" stroke-width="0.5" stroke-linecap="round" stroke-linejoin="round"/>
  <polygon points="12591.54,1493.84 12591.35,1508.83 12597.14,1513.07 12597.34,1498.07" fill="#60afff" stroke="#60afff" stroke-width="0.5" stroke-linecap="round" stroke-linejoin="round"/>
  <polygon points="12634.17,1498.07 12633.89,1513.07 12639.28,1508.83 12639.57,1493.84" fill="#60afff" stroke="#60afff" stroke-width="0.5" stroke-linecap="round" stroke-linejoin="round"/>
  <polygon points="12625.87,1500.88 12625.61,1515.89 12633.89,1513.07 12634.17,1498.07" fill="#60afff" stroke="#60afff" stroke-width="0.5" stroke-linecap="round" stroke-linejoin="round"/>
  <polygon points="12597.34,1498.07 12597.14,1513.07 12605.72,1515.91 12605.94,1500.89" fill="#60afff" stroke="#60afff" stroke-width="0.5" stroke-linecap="round" stroke-linejoin="round"/>
  <polygon points="12615.94,1501.87 12615.70,1516.90 12625.61,1515.89 12625.87,1500.88" fill="#60afff" stroke="#60afff" stroke-width="0.5" stroke-linecap="round" stroke-linejoin="round"/>
  <polygon points="12605.94,1500.89 12605.72,1515.91 12615.70,1516.90 12615.94,1501.87" fill="#60afff" stroke="#60afff" stroke-width="0.5" stroke-linecap="round" stroke-linejoin="round"/>
  <polygon points="12652.46,1519.72 12652.15,1534.82 12654.44,1539.90 12654.77,1524.79" fill="#60afff" stroke="#60afff" stroke-width="0.5" stroke-linecap="round" stroke-linejoin="round"/>
  <polygon points="12703.42,1524.79 12702.99,1539.90 12704.54,1534.82 12704.97,1519.72" fill="#60afff" stroke="#60afff" stroke-width="0.5" stroke-linecap="round" stroke-linejoin="round"/>
  <polygon points="12528.62,1519.72 12528.56,1534.82 12530.60,1539.90 12530.67,1524.79" fill="#60afff" stroke="#60afff" stroke-width="0.5" stroke-linecap="round" stroke-linejoin="round"/>
  <polygon points="12579.32,1524.79 12579.15,1539.90 12580.96,1534.82 12581.13,1519.72" fill="#60afff" stroke="#60afff" stroke-width="0.5" stroke-linecap="round" stroke-linejoin="round"/>
  <polygon points="12704.97,1519.72 12702.60,1514.66 12696.54,1510.39 12687.83,1507.53 12677.75,1506.56 12667.84,1507.55 12659.53,1510.39 12654.15,1514.66 12652.46,1519.72 12654.77,1524.79 12660.76,1529.12 12669.54,1532.02 12679.70,1533.03 12689.74,1532.00 12698.06,1529.12 12703.42,1524.79" fill="#60afff" stroke="#60afff" stroke-width="0.5" stroke-linecap="round" stroke-linejoin="round"/>
  <polygon points="12544.62,1507.55 12536.16,1510.39 12530.57,1514.66 12528.62,1519.72 12530.67,1524.79 12536.44,1529.12 12545.07,1532.02 12555.18,1533.03 12565.27,1532.00 12573.74,1529.12 12579.32,1524.79 12581.13,1519.72 12579.02,1514.66 12573.17,1510.39 12564.61,1507.53 12554.58,1506.56" fill="#60afff" stroke="#60afff" stroke-width="0.5" stroke-linecap="round" stroke-linejoin="round"/>
  <polygon points="12573.74,1529.12 12573.58,1544.26 12579.15,1539.90 12579.32,1524.79" fill="#60afff" stroke="#60afff" stroke-width="0.5" stroke-linecap="round" stroke-linejoin="round"/>
  <polygon points="12654.77,1524.79 12654.44,1539.90 12660.42,1544.26 12660.76,1529.12" fill="#60afff" stroke="#60afff" stroke-width="0.5" stroke-linecap="round" stroke-linejoin="round"/>
  <polygon points="12698.06,1529.12 12697.64,1544.26 12702.99,1539.90 12703.42,1524.79" fill="#60afff" stroke="#60afff" stroke-width="0.5" stroke-linecap="round" stroke-linejoin="round"/>
  <polygon points="12530.67,1524.79 12530.60,1539.90 12536.36,1544.26 12536.44,1529.12" fill="#60afff" stroke="#60afff" stroke-width="0.5" stroke-linecap="round" stroke-linejoin="round"/>
  <polygon points="12565.27,1532.00 12565.13,1547.15 12573.58,1544.26 12573.74,1529.12" fill="#60afff" stroke="#60afff" stroke-width="0.5" stroke-linecap="round" stroke-linejoin="round"/>
  <polygon points="12689.74,1532.00 12689.34,1547.15 12697.64,1544.26 12698.06,1529.12" fill="#60afff" stroke="#60afff" stroke-width="0.5" stroke-linecap="round" stroke-linejoin="round"/>
  <polygon points="12660.76,1529.12 12660.42,1544.26 12669.19,1547.16 12669.54,1532.02" fill="#60afff" stroke="#60afff" stroke-width="0.5" stroke-linecap="round" stroke-linejoin="round"/>
  <polygon points="12536.44,1529.12 12536.36,1544.26 12544.98,1547.16 12545.07,1532.02" fill="#60afff" stroke="#60afff" stroke-width="0.5" stroke-linecap="round" stroke-linejoin="round"/>
  <polygon points="12679.70,1533.03 12679.32,1548.18 12689.34,1547.15 12689.74,1532.00" fill="#60afff" stroke="#60afff" stroke-width="0.5" stroke-linecap="round" stroke-linejoin="round"/>
  <polygon points="12555.18,1533.03 12555.06,1548.18 12565.13,1547.15 12565.27,1532.00" fill="#60afff" stroke="#60afff" stroke-width="0.5" stroke-linecap="round" stroke-linejoin="round"/>
  <polygon points="12669.54,1532.02 12669.19,1547.16 12679.32,1548.18 12679.70,1533.03" fill="#60afff" stroke="#60afff" stroke-width="0.5" stroke-linecap="round" stroke-linejoin="round"/>
  <polygon points="12545.07,1532.02 12544.98,1547.16 12555.06,1548.18 12555.18,1533.03" fill="#60afff" stroke="#60afff" stroke-width="0.5" stroke-linecap="round" stroke-linejoin="round"/>
  <polygon points="12613.63,1473.70 12492.97,1534.82 12753.14,1666.98 12873.31,1599.15" fill="#60afff" stroke="#60afff" stroke-width="0.5" stroke-linecap="round" stroke-linejoin="round"/>
  <polygon points="12643.21,1556.54 12642.91,1571.79 12644.61,1566.57 12644.92,1551.34" fill="#60afff" stroke="#60afff" stroke-width="0.5" stroke-linecap="round" stroke-linejoin="round"/>
  <polygon points="12717.18,1551.34 12716.72,1566.57 12719.18,1571.79 12719.65,1556.54" fill="#60afff" stroke="#60afff" stroke-width="0.5" stroke-linecap="round" stroke-linejoin="round"/>
  <polygon points="12768.93,1556.54 12768.36,1571.79 12769.80,1566.57 12770.37,1551.34" fill="#60afff" stroke="#60afff" stroke-width="0.5" stroke-linecap="round" stroke-linejoin="round"/>
  <polygon points="12591.72,1551.34 12591.53,1566.57 12593.73,1571.79 12593.93,1556.54" fill="#60afff" stroke="#60afff" stroke-width="0.5" stroke-linecap="round" stroke-linejoin="round"/>
  <polygon points="12752.68,1538.83 12742.44,1537.84 12732.43,1538.85 12724.08,1541.77 12718.76,1546.15 12717.18,1551.34 12719.65,1556.54 12725.84,1560.99 12734.82,1563.96 12745.13,1565.00 12755.27,1563.95 12763.63,1560.99 12768.93,1556.54 12770.37,1551.34 12767.83,1546.15 12761.57,1541.77" fill="#60afff" stroke="#60afff" stroke-width="0.5" stroke-linecap="round" stroke-linejoin="round"/>
  <polygon points="12593.56,1546.15 12591.72,1551.34 12593.93,1556.54 12599.89,1560.99 12608.71,1563.96 12618.98,1565.00 12629.17,1563.95 12637.68,1560.99 12643.21,1556.54 12644.92,1551.34 12642.64,1546.15 12636.60,1541.77 12627.86,1538.83 12617.67,1537.84 12607.61,1538.85 12599.12,1541.77" fill="#60afff" stroke="#60afff" stroke-width="0.5" stroke-linecap="round" stroke-linejoin="round"/>
  <polygon points="12719.65,1556.54 12719.18,1571.79 12725.36,1576.25 12725.84,1560.99" fill="#60afff" stroke="#60afff" stroke-width="0.5" stroke-linecap="round" stroke-linejoin="round"/>
  <polygon points="12763.63,1560.99 12763.07,1576.25 12768.36,1571.79 12768.93,1556.54" fill="#60afff" stroke="#60afff" stroke-width="0.5" stroke-linecap="round" stroke-linejoin="round"/>
  <polygon points="12637.68,1560.99 12637.38,1576.25 12642.91,1571.79 12643.21,1556.54" fill="#60afff" stroke="#60afff" stroke-width="0.5" stroke-linecap="round" stroke-linejoin="round"/>
  <polygon points="12593.93,1556.54 12593.73,1571.79 12599.68,1576.25 12599.89,1560.99" fill="#60afff" stroke="#60afff" stroke-width="0.5" stroke-linecap="round" stroke-linejoin="round"/>
  <polygon points="12755.27,1563.95 12754.73,1579.22 12763.07,1576.25 12763.63,1560.99" fill="#60afff" stroke="#60afff" stroke-width="0.5" stroke-linecap="round" stroke-linejoin="round"/>
  <polygon points="12629.17,1563.95 12628.90,1579.22 12637.38,1576.25 12637.68,1560.99" fill="#60afff" stroke="#60afff" stroke-width="0.5" stroke-linecap="round" stroke-linejoin="round"/>
  <polygon points="12599.89,1560.99 12599.68,1576.25 12608.48,1579.24 12608.71,1563.96" fill="#60afff" stroke="#60afff" stroke-width="0.5" stroke-linecap="round" stroke-linejoin="round"/>
  <polygon points="12725.84,1560.99 12725.36,1576.25 12734.31,1579.24 12734.82,1563.96" fill="#60afff" stroke="#60afff" stroke-width="0.5" stroke-linecap="round" stroke-linejoin="round"/>
  <polygon points="12745.13,1565.00 12744.61,1580.28 12754.73,1579.22 12755.27,1563.95" fill="#60afff" stroke="#60afff" stroke-width="0.5" stroke-linecap="round" stroke-linejoin="round"/>
  <polygon points="12618.98,1565.00 12618.73,1580.28 12628.90,1579.22 12629.17,1563.95" fill="#60afff" stroke="#60afff" stroke-width="0.5" stroke-linecap="round" stroke-linejoin="round"/>
  <polygon points="12734.82,1563.96 12734.31,1579.24 12744.61,1580.28 12745.13,1565.00" fill="#60afff" stroke="#60afff" stroke-width="0.5" stroke-linecap="round" stroke-linejoin="round"/>
  <polygon points="12608.71,1563.96 12608.48,1579.24 12618.73,1580.28 12618.98,1565.00" fill="#60afff" stroke="#60afff" stroke-width="0.5" stroke-linecap="round" stroke-linejoin="round"/>
  <polygon points="12749.83,1759.27 12753.14,1666.98 12492.97,1534.82 12493.06,1624.07" fill="#60afff" stroke="#60afff" stroke-width="0.5" stroke-linecap="round" stroke-linejoin="round"/>
  <polygon points="12656.49,1583.80 12656.16,1599.15 12658.52,1604.51 12658.87,1589.14" fill="#60afff" stroke="#60afff" stroke-width="0.5" stroke-linecap="round" stroke-linejoin="round"/>
  <polygon points="12783.61,1583.80 12783.00,1599.15 12785.63,1604.51 12786.25,1589.14" fill="#60afff" stroke="#60afff" stroke-width="0.5" stroke-linecap="round" stroke-linejoin="round"/>
  <polygon points="12708.80,1589.14 12708.35,1604.51 12709.94,1599.15 12710.39,1583.80" fill="#60afff" stroke="#60afff" stroke-width="0.5" stroke-linecap="round" stroke-linejoin="round"/>
  <polygon points="12836.19,1589.14 12835.46,1604.51 12836.78,1599.15 12837.50,1583.80" fill="#60afff" stroke="#60afff" stroke-width="0.5" stroke-linecap="round" stroke-linejoin="round"/>
  <polygon points="12812.30,1597.82 12822.55,1596.74 12830.93,1593.70 12836.19,1589.14 12837.50,1583.80 12834.78,1578.47 12828.32,1573.97 12819.23,1570.96 12808.83,1569.93 12798.71,1570.97 12790.34,1573.97 12785.06,1578.47 12783.61,1583.80 12786.25,1589.14 12792.65,1593.70 12801.82,1596.76" fill="#60afff" stroke="#60afff" stroke-width="0.5" stroke-linecap="round" stroke-linejoin="round"/>
  <polygon points="12684.47,1597.82 12694.78,1596.74 12703.31,1593.70 12708.80,1589.14 12710.39,1583.80 12707.94,1578.47 12701.71,1573.97 12692.77,1570.96 12682.42,1569.93 12672.25,1570.97 12663.73,1573.97 12658.22,1578.47 12656.49,1583.80 12658.87,1589.14 12665.03,1593.70 12674.05,1596.76" fill="#60afff" stroke="#60afff" stroke-width="0.5" stroke-linecap="round" stroke-linejoin="round"/>
  <polygon points="12830.93,1593.70 12830.22,1609.10 12835.46,1604.51 12836.19,1589.14" fill="#60afff" stroke="#60afff" stroke-width="0.5" stroke-linecap="round" stroke-linejoin="round"/>
  <polygon points="12658.87,1589.14 12658.52,1604.51 12664.67,1609.10 12665.03,1593.70" fill="#60afff" stroke="#60afff" stroke-width="0.5" stroke-linecap="round" stroke-linejoin="round"/>
  <polygon points="12786.25,1589.14 12785.63,1604.51 12792.02,1609.10 12792.65,1593.70" fill="#60afff" stroke="#60afff" stroke-width="0.5" stroke-linecap="round" stroke-linejoin="round"/>
  <polygon points="12703.31,1593.70 12702.87,1609.10 12708.35,1604.51 12708.80,1589.14" fill="#60afff" stroke="#60afff" stroke-width="0.5" stroke-linecap="round" stroke-linejoin="round"/>
  <polygon points="12822.55,1596.74 12821.85,1612.15 12830.22,1609.10 12830.93,1593.70" fill="#60afff" stroke="#60afff" stroke-width="0.5" stroke-linecap="round" stroke-linejoin="round"/>
  <polygon points="12694.78,1596.74 12694.35,1612.15 12702.87,1609.10 12703.31,1593.70" fill="#60afff" stroke="#60afff" stroke-width="0.5" stroke-linecap="round" stroke-linejoin="round"/>
  <polygon points="12665.03,1593.70 12664.67,1609.10 12673.67,1612.16 12674.05,1596.76" fill="#60afff" stroke="#60afff" stroke-width="0.5" stroke-linecap="round" stroke-linejoin="round"/>
  <polygon points="12792.65,1593.70 12792.02,1609.10 12801.17,1612.16 12801.82,1596.76" fill="#60afff" stroke="#60afff" stroke-width="0.5" stroke-linecap="round" stroke-linejoin="round"/>
  <polygon points="12812.30,1597.82 12811.63,1613.23 12821.85,1612.15 12822.55,1596.74" fill="#60afff" stroke="#60afff" stroke-width="0.5" stroke-linecap="round" stroke-linejoin="round"/>
  <polygon points="12684.47,1597.82 12684.07,1613.23 12694.35,1612.15 12694.78,1596.74" fill="#60afff" stroke="#60afff" stroke-width="0.5" stroke-linecap="round" stroke-linejoin="round"/>
  <polygon points="12801.82,1596.76 12801.17,1612.16 12811.63,1613.23 12812.30,1597.82" fill="#60afff" stroke="#60afff" stroke-width="0.5" stroke-linecap="round" stroke-linejoin="round"/>
  <polygon points="12674.05,1596.76 12673.67,1612.16 12684.07,1613.23 12684.47,1597.82" fill="#60afff" stroke="#60afff" stroke-width="0.5" stroke-linecap="round" stroke-linejoin="round"/>
  <polygon points="12873.31,1599.15 12753.14,1666.98 12749.83,1759.27 12868.55,1689.91" fill="#60afff" stroke="#60afff" stroke-width="0.5" stroke-linecap="round" stroke-linejoin="round"/>
  <polygon points="12776.15,1622.61 12775.55,1638.12 12777.01,1632.61 12777.61,1617.13" fill="#60afff" stroke="#60afff" stroke-width="0.5" stroke-linecap="round" stroke-linejoin="round"/>
  <polygon points="12722.99,1617.13 12722.51,1632.61 12725.05,1638.12 12725.55,1622.61" fill="#60afff" stroke="#60afff" stroke-width="0.5" stroke-linecap="round" stroke-linejoin="round"/>
  <polygon points="12776.15,1622.61 12777.61,1617.13 12774.99,1611.65 12768.55,1607.03 12759.41,1603.94 12748.89,1602.89 12738.62,1603.96 12730.06,1607.03 12724.60,1611.65 12722.99,1617.13 12725.55,1622.61 12731.91,1627.30 12741.14,1630.43 12751.73,1631.53 12762.14,1630.42 12770.71,1627.30" fill="#60afff" stroke="#60afff" stroke-width="0.5" stroke-linecap="round" stroke-linejoin="round"/>
  <polygon points="12770.71,1627.30 12770.12,1642.82 12775.55,1638.12 12776.15,1622.61" fill="#60afff" stroke="#60afff" stroke-width="0.5" stroke-linecap="round" stroke-linejoin="round"/>
  <polygon points="12725.55,1622.61 12725.05,1638.12 12731.40,1642.82 12731.91,1627.30" fill="#60afff" stroke="#60afff" stroke-width="0.5" stroke-linecap="round" stroke-linejoin="round"/>
  <polygon points="12762.14,1630.42 12761.57,1645.96 12770.12,1642.82 12770.71,1627.30" fill="#60afff" stroke="#60afff" stroke-width="0.5" stroke-linecap="round" stroke-linejoin="round"/>
  <polygon points="12731.91,1627.30 12731.40,1642.82 12740.61,1645.97 12741.14,1630.43" fill="#60afff" stroke="#60afff" stroke-width="0.5" stroke-linecap="round" stroke-linejoin="round"/>
  <polygon points="12751.73,1631.53 12751.18,1647.07 12761.57,1645.96 12762.14,1630.42" fill="#60afff" stroke="#60afff" stroke-width="0.5" stroke-linecap="round" stroke-linejoin="round"/>
  <polygon points="12741.14,1630.43 12740.61,1645.97 12751.18,1647.07 12751.73,1631.53" fill="#60afff" stroke="#60afff" stroke-width="0.5" stroke-linecap="round" stroke-linejoin="round"/>
  <path d="M 12159.83 1423.80 L 12385.49 1541.37 L 12506.74 1481.14 L 12506.82 1392.82 L 12384.06 1451.55 L 12385.49 1541.37 L 12506.74 1481.14 L 12506.82 1392.82 L 12471.49 1375.97 L 12506.82 1392.82 L 12384.06 1451.55 L 12155.77 1336.95 L 12188.85 1322.56 L 12155.77 1336.95 L 12159.83 1423.80 L 12385.49 1541.37 L 12384.06 1451.55 L 12155.77 1336.95 L 12159.83 1423.80" stroke="black" stroke-width="4" fill="none" stroke-linecap="round" stroke-linejoin="round"/>
  <path d="M 12451.07 1366.23 L 12412.57 1347.86 L 12451.07 1366.23" stroke="black" stroke-width="4" fill="none" stroke-linecap="round" stroke-linejoin="round"/>
  <path d="M 12392.65 1338.36 L 12355.08 1320.44 L 12392.65 1338.36" stroke="black" stroke-width="4" fill="none" stroke-linecap="round" stroke-linejoin="round"/>
  <path d="M 12335.65 1311.17 L 12298.98 1293.68 L 12335.65 1311.17" stroke="black" stroke-width="4" fill="none" stroke-linecap="round" stroke-linejoin="round"/>
  <path d="M 12280.01 1284.62 L 12278.13 1283.73 L 12276.74 1284.33 L 12278.13 1283.73 L 12280.01 1284.62" stroke="black" stroke-width="4" fill="none" stroke-linecap="round" stroke-linejoin="round"/>
  <path d="M 12250.49 1295.75 L 12215.74 1310.86 L 12250.49 1295.75" stroke="black" stroke-width="4" fill="none" stroke-linecap="round" stroke-linejoin="round"/>
  <path d="M 12470.26 1382.52 L 12472.27 1377.88 L 12470.38 1373.26 L 12464.92 1369.37 L 12456.74 1366.76 L 12447.08 1365.86 L 12437.32 1366.76 L 12429.02 1369.37 L 12423.39 1373.26 L 12421.31 1377.89 L 12423.07 1382.52 L 12428.49 1386.48 L 12436.70 1389.11 L 12446.49 1390.04 L 12456.32 1389.11 L 12464.66 1386.48 L 12470.26 1382.52" stroke="black" stroke-width="4" fill="none" stroke-linecap="round" stroke-linejoin="round"/>
  <path d="M 12446.49 1390.04 L 12436.70 1389.11 L 12428.49 1386.48 L 12423.07 1382.52 L 12421.31 1377.89 L 12421.47 1392.82 L 12423.23 1397.47 L 12428.63 1401.44 L 12436.83 1404.09 L 12446.60 1405.03 L 12456.41 1404.09 L 12464.73 1401.44 L 12470.32 1397.47 L 12472.32 1392.81 L 12472.27 1377.88" stroke="black" stroke-width="4" fill="none" stroke-linecap="round" stroke-linejoin="round"/>
  <path d="M 12456.74 1366.76 L 12447.08 1365.86 L 12437.32 1366.76 L 12429.02 1369.37" stroke="black" stroke-width="4" fill="none" stroke-linecap="round" stroke-linejoin="round"/>
  <path d="M 12411.19 1354.25 L 12413.29 1349.72 L 12411.54 1345.22 L 12406.25 1341.43 L 12398.24 1338.88 L 12388.72 1338.00 L 12379.06 1338.88 L 12370.79 1341.43 L 12365.13 1345.22 L 12362.96 1349.74 L 12364.59 1354.25 L 12369.83 1358.11 L 12377.88 1360.68 L 12387.52 1361.59 L 12397.25 1360.68 L 12405.56 1358.11 L 12411.19 1354.25 L 12405.56 1358.11" stroke="black" stroke-width="4" fill="none" stroke-linecap="round" stroke-linejoin="round"/>
  <path d="M 12365.13 1345.22 L 12362.96 1349.74 L 12363.23 1364.54 L 12364.86 1369.08 L 12370.10 1372.95 L 12378.13 1375.53 L 12387.75 1376.45 L 12397.46 1375.53 L 12405.75 1372.95 L 12411.36 1369.08 L 12413.47 1364.53 L 12413.29 1349.72" stroke="black" stroke-width="4" fill="none" stroke-linecap="round" stroke-linejoin="round"/>
  <path d="M 12411.54 1345.22 L 12406.25 1341.43" stroke="black" stroke-width="4" fill="none" stroke-linecap="round" stroke-linejoin="round"/>
  <path d="M 12398.24 1338.88 L 12388.72 1338.00 L 12379.06 1338.88 L 12370.79 1341.43" stroke="black" stroke-width="4" fill="none" stroke-linecap="round" stroke-linejoin="round"/>
  <path d="M 12364.59 1354.25 L 12369.83 1358.11 L 12377.88 1360.68" stroke="black" stroke-width="4" fill="none" stroke-linecap="round" stroke-linejoin="round"/>
  <path d="M 12353.56 1326.68 L 12355.75 1322.26 L 12354.14 1317.86 L 12349.01 1314.16 L 12341.16 1311.67 L 12331.78 1310.81 L 12322.21 1311.67 L 12313.98 1314.16 L 12308.29 1317.86 L 12306.03 1322.27 L 12307.53 1326.68 L 12312.61 1330.44 L 12320.50 1332.94 L 12330.00 1333.84 L 12339.64 1332.94 L 12347.90 1330.44 L 12353.56 1326.68 L 12347.90 1330.44" stroke="black" stroke-width="4" fill="none" stroke-linecap="round" stroke-linejoin="round"/>
  <path d="M 12307.53 1326.68 L 12306.03 1322.27 L 12306.42 1336.95 L 12307.91 1341.37 L 12312.99 1345.16 L 12320.86 1347.67 L 12330.34 1348.57 L 12339.95 1347.67 L 12348.20 1345.16 L 12353.85 1341.37 L 12356.04 1336.93 L 12355.75 1322.26" stroke="black" stroke-width="4" fill="none" stroke-linecap="round" stroke-linejoin="round"/>
  <path d="M 12354.14 1317.86 L 12349.01 1314.16 L 12341.16 1311.67 L 12331.78 1310.81 L 12322.21 1311.67 L 12313.98 1314.16" stroke="black" stroke-width="4" fill="none" stroke-linecap="round" stroke-linejoin="round"/>
  <path d="M 12312.61 1330.44 L 12320.50 1332.94" stroke="black" stroke-width="4" fill="none" stroke-linecap="round" stroke-linejoin="round"/>
  <path d="M 12297.32 1299.76 L 12299.60 1295.45 L 12298.11 1291.16 L 12293.14 1287.55 L 12285.44 1285.12 L 12276.19 1284.28 L 12266.72 1285.12 L 12258.53 1287.55 L 12252.81 1291.16 L 12250.48 1295.46 L 12251.85 1299.76 L 12256.78 1303.44 L 12264.51 1305.88 L 12273.87 1306.75 L 12283.41 1305.88 L 12291.64 1303.44 L 12297.32 1299.76 L 12291.64 1303.44" stroke="black" stroke-width="4" fill="none" stroke-linecap="round" stroke-linejoin="round"/>
  <path d="M 12250.48 1295.46 L 12250.97 1310.02 L 12252.33 1314.34 L 12257.26 1318.03 L 12264.97 1320.48 L 12274.31 1321.36 L 12283.84 1320.48 L 12292.05 1318.03 L 12297.72 1314.34 L 12299.99 1310.00 L 12299.60 1295.45" stroke="black" stroke-width="4" fill="none" stroke-linecap="round" stroke-linejoin="round"/>
  <path d="M 12293.14 1287.55 L 12285.44 1285.12 L 12276.19 1284.28 L 12266.72 1285.12 L 12258.53 1287.55 L 12252.81 1291.16 L 12250.48 1295.46 L 12251.85 1299.76 L 12256.78 1303.44 L 12264.51 1305.88 L 12273.87 1306.75" stroke="black" stroke-width="4" fill="none" stroke-linecap="round" stroke-linejoin="round"/>
  <path d="M 12408.94 1411.50 L 12411.10 1406.74 L 12409.31 1402.00 L 12403.89 1398.02 L 12395.68 1395.34 L 12385.92 1394.42 L 12376.01 1395.34 L 12367.54 1398.02 L 12361.73 1402.00 L 12359.50 1406.76 L 12361.16 1411.50 L 12366.53 1415.56 L 12374.78 1418.26 L 12384.66 1419.22 L 12394.64 1418.26 L 12403.16 1415.56 L 12408.94 1411.50 L 12403.16 1415.56" stroke="black" stroke-width="4" fill="none" stroke-linecap="round" stroke-linejoin="round"/>
  <path d="M 12361.16 1411.50 L 12359.50 1406.76 L 12359.78 1421.82 L 12361.44 1426.58 L 12366.81 1430.66 L 12375.04 1433.37 L 12384.90 1434.33 L 12394.86 1433.37 L 12403.36 1430.66 L 12409.12 1426.58 L 12411.28 1421.80 L 12411.10 1406.74" stroke="black" stroke-width="4" fill="none" stroke-linecap="round" stroke-linejoin="round"/>
  <path d="M 12395.68 1395.34 L 12385.92 1394.42 L 12376.01 1395.34 L 12367.54 1398.02" stroke="black" stroke-width="4" fill="none" stroke-linecap="round" stroke-linejoin="round"/>
  <path d="M 12384.66 1419.22 L 12394.64 1418.26" stroke="black" stroke-width="4" fill="none" stroke-linecap="round" stroke-linejoin="round"/>
  <path d="M 12349.89 1382.52 L 12352.15 1377.88 L 12350.50 1373.26 L 12345.25 1369.37 L 12337.21 1366.76 L 12327.60 1365.86 L 12317.79 1366.76 L 12309.35 1369.37 L 12303.51 1373.26 L 12301.19 1377.89 L 12302.71 1382.52 L 12307.92 1386.48 L 12316.00 1389.11 L 12325.73 1390.04 L 12335.61 1389.11 L 12344.09 1386.48 L 12349.89 1382.52 L 12344.09 1386.48" stroke="black" stroke-width="4" fill="none" stroke-linecap="round" stroke-linejoin="round"/>
  <path d="M 12301.19 1377.89 L 12301.59 1392.82 L 12303.12 1397.47 L 12308.31 1401.44 L 12316.37 1404.09 L 12326.09 1405.03 L 12335.95 1404.09 L 12344.41 1401.44 L 12350.20 1397.47 L 12352.45 1392.81 L 12352.15 1377.88" stroke="black" stroke-width="4" fill="none" stroke-linecap="round" stroke-linejoin="round"/>
  <path d="M 12350.50 1373.26 L 12345.25 1369.37" stroke="black" stroke-width="4" fill="none" stroke-linecap="round" stroke-linejoin="round"/>
  <path d="M 12337.21 1366.76 L 12327.60 1365.86 L 12317.79 1366.76" stroke="black" stroke-width="4" fill="none" stroke-linecap="round" stroke-linejoin="round"/>
  <path d="M 12303.51 1373.26 L 12301.19 1377.89 L 12302.71 1382.52" stroke="black" stroke-width="4" fill="none" stroke-linecap="round" stroke-linejoin="round"/>
  <path d="M 12307.92 1386.48 L 12316.00 1389.11" stroke="black" stroke-width="4" fill="none" stroke-linecap="round" stroke-linejoin="round"/>
  <path d="M 12325.73 1390.04 L 12335.61 1389.11" stroke="black" stroke-width="4" fill="none" stroke-linecap="round" stroke-linejoin="round"/>
  <path d="M 12292.31 1354.25 L 12294.66 1349.72 L 12293.14 1345.22 L 12288.05 1341.43 L 12280.18 1338.88 L 12270.70 1338.00 L 12260.99 1338.88 L 12252.59 1341.43 L 12246.73 1345.22 L 12244.32 1349.74 L 12245.71 1354.25 L 12250.76 1358.11 L 12258.67 1360.68 L 12268.26 1361.59 L 12278.04 1360.68 L 12286.48 1358.11 L 12292.31 1354.25 L 12286.48 1358.11" stroke="black" stroke-width="4" fill="none" stroke-linecap="round" stroke-linejoin="round"/>
  <path d="M 12258.67 1360.68 L 12250.76 1358.11 L 12245.71 1354.25 L 12244.32 1349.74 L 12244.84 1364.54 L 12246.23 1369.08 L 12251.26 1372.95 L 12259.16 1375.53 L 12268.73 1376.45 L 12278.49 1375.53 L 12286.91 1372.95 L 12292.73 1369.08 L 12295.07 1364.53 L 12294.66 1349.72" stroke="black" stroke-width="4" fill="none" stroke-linecap="round" stroke-linejoin="round"/>
  <path d="M 12293.14 1345.22 L 12288.05 1341.43 L 12280.18 1338.88 L 12270.70 1338.00 L 12260.99 1338.88 L 12252.59 1341.43" stroke="black" stroke-width="4" fill="none" stroke-linecap="round" stroke-linejoin="round"/>
  <path d="M 12268.26 1361.59 L 12278.04 1360.68" stroke="black" stroke-width="4" fill="none" stroke-linecap="round" stroke-linejoin="round"/>
  <path d="M 12236.13 1326.68 L 12238.56 1322.26 L 12237.18 1317.86 L 12232.24 1314.16 L 12224.52 1311.67 L 12215.19 1310.81 L 12205.57 1311.67 L 12197.21 1314.16 L 12191.33 1317.86 L 12188.84 1322.27 L 12190.11 1326.68 L 12194.99 1330.44 L 12202.75 1332.94 L 12212.20 1333.84 L 12221.88 1332.94 L 12230.28 1330.44 L 12236.13 1326.68" stroke="black" stroke-width="4" fill="none" stroke-linecap="round" stroke-linejoin="round"/>
  <path d="M 12188.84 1322.27 L 12189.46 1336.95 L 12190.72 1341.37 L 12195.60 1345.16 L 12203.34 1347.67 L 12212.77 1348.57 L 12222.44 1347.67 L 12230.82 1345.16 L 12236.66 1341.37 L 12239.08 1336.93 L 12238.56 1322.26" stroke="black" stroke-width="4" fill="none" stroke-linecap="round" stroke-linejoin="round"/>
  <path d="M 12212.20 1333.84 L 12221.88 1332.94 L 12230.28 1330.44" stroke="black" stroke-width="4" fill="none" stroke-linecap="round" stroke-linejoin="round"/>
  <path d="M 12232.24 1314.16 L 12224.52 1311.67 L 12215.19 1310.81 L 12205.57 1311.67 L 12197.21 1314.16" stroke="black" stroke-width="4" fill="none" stroke-linecap="round" stroke-linejoin="round"/>
  <path d="M 12191.33 1317.86 L 12188.84 1322.27 L 12190.11 1326.68" stroke="black" stroke-width="4" fill="none" stroke-linecap="round" stroke-linejoin="round"/>
  <path d="M 12493.06 1624.07 L 12749.83 1759.27 L 12868.55 1689.91 L 12873.31 1599.15 L 12753.14 1666.98 L 12749.83 1759.27 L 12868.55 1689.91 L 12873.31 1599.15 L 12836.19 1581.22 L 12873.31 1599.15 L 12753.14 1666.98 L 12492.97 1534.82 L 12530.04 1516.04 L 12492.97 1534.82 L 12493.06 1624.07 L 12749.83 1759.27 L 12753.14 1666.98 L 12492.97 1534.82 L 12493.06 1624.07" stroke="black" stroke-width="4" fill="none" stroke-linecap="round" stroke-linejoin="round"/>
  <path d="M 12813.85 1570.43 L 12769.14 1548.83 L 12813.85 1570.43" stroke="black" stroke-width="4" fill="none" stroke-linecap="round" stroke-linejoin="round"/>
  <path d="M 12747.38 1538.32 L 12703.83 1517.27 L 12747.38 1538.32" stroke="black" stroke-width="4" fill="none" stroke-linecap="round" stroke-linejoin="round"/>
  <path d="M 12682.62 1507.03 L 12640.16 1486.52 L 12682.62 1507.03" stroke="black" stroke-width="4" fill="none" stroke-linecap="round" stroke-linejoin="round"/>
  <path d="M 12619.49 1476.53 L 12613.63 1473.70 L 12607.57 1476.77 L 12613.63 1473.70 L 12619.49 1476.53" stroke="black" stroke-width="4" fill="none" stroke-linecap="round" stroke-linejoin="round"/>
  <path d="M 12590.70 1485.32 L 12547.34 1507.28 L 12590.70 1485.32" stroke="black" stroke-width="4" fill="none" stroke-linecap="round" stroke-linejoin="round"/>
  <path d="M 12836.19 1589.14 L 12837.50 1583.80 L 12834.78 1578.47 L 12828.32 1573.97 L 12819.23 1570.96 L 12808.83 1569.93 L 12798.71 1570.97 L 12790.34 1573.97 L 12785.06 1578.47 L 12783.61 1583.80 L 12786.25 1589.14 L 12792.65 1593.70 L 12801.82 1596.76 L 12812.30 1597.82 L 12822.55 1596.74 L 12830.93 1593.70 L 12836.19 1589.14 L 12830.93 1593.70" stroke="black" stroke-width="4" fill="none" stroke-linecap="round" stroke-linejoin="round"/>
  <path d="M 12783.61 1583.80 L 12783.00 1599.15 L 12785.63 1604.51 L 12792.02 1609.10 L 12801.17 1612.16 L 12811.63 1613.23 L 12821.85 1612.15 L 12830.22 1609.10 L 12835.46 1604.51 L 12836.78 1599.15 L 12837.50 1583.80 L 12834.78 1578.47" stroke="black" stroke-width="4" fill="none" stroke-linecap="round" stroke-linejoin="round"/>
  <path d="M 12828.32 1573.97 L 12819.23 1570.96" stroke="black" stroke-width="4" fill="none" stroke-linecap="round" stroke-linejoin="round"/>
  <path d="M 12798.71 1570.97 L 12790.34 1573.97" stroke="black" stroke-width="4" fill="none" stroke-linecap="round" stroke-linejoin="round"/>
  <path d="M 12785.06 1578.47 L 12783.61 1583.80 L 12786.25 1589.14 L 12792.65 1593.70" stroke="black" stroke-width="4" fill="none" stroke-linecap="round" stroke-linejoin="round"/>
  <path d="M 12812.30 1597.82 L 12822.55 1596.74" stroke="black" stroke-width="4" fill="none" stroke-linecap="round" stroke-linejoin="round"/>
  <path d="M 12768.93 1556.54 L 12770.37 1551.34 L 12767.83 1546.15 L 12761.57 1541.77 L 12752.68 1538.83 L 12742.44 1537.84 L 12732.43 1538.85 L 12724.08 1541.77 L 12718.76 1546.15 L 12717.18 1551.34 L 12719.65 1556.54 L 12725.84 1560.99 L 12734.82 1563.96 L 12745.13 1565.00 L 12755.27 1563.95 L 12763.63 1560.99 L 12768.93 1556.54 L 12763.63 1560.99" stroke="black" stroke-width="4" fill="none" stroke-linecap="round" stroke-linejoin="round"/>
  <path d="M 12725.84 1560.99 L 12719.65 1556.54 L 12717.18 1551.34 L 12716.72 1566.57 L 12719.18 1571.79 L 12725.36 1576.25 L 12734.31 1579.24 L 12744.61 1580.28 L 12754.73 1579.22 L 12763.06 1576.25 L 12768.36 1571.79 L 12769.80 1566.57 L 12770.37 1551.34" stroke="black" stroke-width="4" fill="none" stroke-linecap="round" stroke-linejoin="round"/>
  <path d="M 12761.57 1541.77 L 12752.68 1538.83 L 12742.44 1537.84" stroke="black" stroke-width="4" fill="none" stroke-linecap="round" stroke-linejoin="round"/>
  <path d="M 12732.43 1538.85 L 12724.08 1541.77" stroke="black" stroke-width="4" fill="none" stroke-linecap="round" stroke-linejoin="round"/>
  <path d="M 12703.42 1524.79 L 12704.97 1519.72 L 12702.60 1514.66 L 12696.54 1510.39 L 12687.83 1507.53 L 12677.75 1506.56 L 12667.84 1507.55 L 12659.53 1510.39 L 12654.15 1514.66 L 12652.46 1519.72 L 12654.77 1524.79 L 12660.76 1529.12 L 12669.54 1532.02 L 12679.70 1533.03 L 12689.74 1532.00 L 12698.06 1529.12 L 12703.42 1524.79 L 12698.06 1529.12" stroke="black" stroke-width="4" fill="none" stroke-linecap="round" stroke-linejoin="round"/>
  <path d="M 12660.76 1529.12 L 12654.77 1524.79 L 12652.46 1519.72 L 12652.15 1534.82 L 12654.44 1539.90 L 12660.42 1544.26 L 12669.19 1547.16 L 12679.32 1548.18 L 12689.34 1547.15 L 12697.64 1544.26 L 12702.99 1539.90 L 12704.54 1534.82 L 12704.97 1519.72" stroke="black" stroke-width="4" fill="none" stroke-linecap="round" stroke-linejoin="round"/>
  <path d="M 12696.54 1510.39 L 12687.83 1507.53 L 12677.75 1506.56" stroke="black" stroke-width="4" fill="none" stroke-linecap="round" stroke-linejoin="round"/>
  <path d="M 12667.84 1507.55 L 12659.53 1510.39" stroke="black" stroke-width="4" fill="none" stroke-linecap="round" stroke-linejoin="round"/>
  <path d="M 12639.57 1493.84 L 12641.23 1488.90 L 12639.02 1483.97 L 12633.15 1479.81 L 12624.63 1477.02 L 12614.70 1476.07 L 12604.89 1477.04 L 12596.61 1479.81 L 12591.19 1483.97 L 12589.39 1488.90 L 12591.54 1493.84 L 12597.34 1498.07 L 12605.94 1500.89 L 12615.94 1501.87 L 12625.87 1500.88 L 12634.17 1498.07 L 12639.57 1493.84 L 12634.17 1498.07" stroke="black" stroke-width="4" fill="none" stroke-linecap="round" stroke-linejoin="round"/>
  <path d="M 12597.34 1498.07 L 12591.54 1493.84 L 12589.39 1488.90 L 12589.21 1503.87 L 12591.35 1508.83 L 12597.14 1513.07 L 12605.72 1515.91 L 12615.70 1516.90 L 12625.61 1515.89 L 12633.89 1513.07 L 12639.28 1508.83 L 12640.94 1503.87 L 12641.23 1488.90" stroke="black" stroke-width="4" fill="none" stroke-linecap="round" stroke-linejoin="round"/>
  <path d="M 12633.15 1479.81 L 12624.63 1477.02 L 12614.70 1476.07" stroke="black" stroke-width="4" fill="none" stroke-linecap="round" stroke-linejoin="round"/>
  <path d="M 12604.89 1477.04 L 12596.61 1479.81" stroke="black" stroke-width="4" fill="none" stroke-linecap="round" stroke-linejoin="round"/>
  <path d="M 12776.15 1622.61 L 12777.61 1617.13 L 12774.99 1611.65 L 12768.55 1607.03 L 12759.41 1603.94 L 12748.89 1602.89 L 12738.62 1603.96 L 12730.06 1607.03 L 12724.60 1611.65 L 12722.99 1617.13 L 12725.55 1622.61 L 12731.91 1627.30 L 12741.14 1630.43 L 12751.73 1631.53 L 12762.14 1630.42 L 12770.71 1627.30 L 12776.15 1622.61 L 12777.61 1617.13 L 12777.01 1632.61 L 12775.55 1638.12 L 12770.12 1642.82 L 12761.57 1645.96 L 12751.18 1647.07 L 12740.61 1645.97 L 12731.40 1642.82 L 12725.05 1638.12 L 12722.51 1632.61 L 12722.99 1617.13" stroke="black" stroke-width="4" fill="none" stroke-linecap="round" stroke-linejoin="round"/>
  <path d="M 12774.99 1611.65 L 12768.55 1607.03" stroke="black" stroke-width="4" fill="none" stroke-linecap="round" stroke-linejoin="round"/>
  <path d="M 12759.41 1603.94 L 12748.89 1602.89 L 12738.62 1603.96" stroke="black" stroke-width="4" fill="none" stroke-linecap="round" stroke-linejoin="round"/>
  <path d="M 12724.60 1611.65 L 12722.99 1617.13 L 12725.55 1622.61 L 12731.91 1627.30" stroke="black" stroke-width="4" fill="none" stroke-linecap="round" stroke-linejoin="round"/>
  <path d="M 12751.73 1631.53 L 12762.14 1630.42" stroke="black" stroke-width="4" fill="none" stroke-linecap="round" stroke-linejoin="round"/>
  <path d="M 12708.80 1589.14 L 12710.39 1583.80 L 12707.94 1578.47 L 12701.71 1573.97 L 12692.77 1570.96 L 12682.42 1569.93 L 12672.25 1570.97 L 12663.73 1573.97 L 12658.22 1578.47 L 12656.49 1583.80 L 12658.87 1589.14 L 12665.03 1593.70 L 12674.05 1596.76 L 12684.47 1597.82 L 12694.78 1596.74 L 12703.31 1593.70 L 12708.80 1589.14 L 12703.31 1593.70" stroke="black" stroke-width="4" fill="none" stroke-linecap="round" stroke-linejoin="round"/>
  <path d="M 12665.03 1593.70 L 12658.87 1589.14 L 12656.49 1583.80 L 12656.16 1599.15 L 12658.52 1604.51 L 12664.67 1609.10 L 12673.67 1612.16 L 12684.07 1613.23 L 12694.35 1612.15 L 12702.87 1609.10 L 12708.35 1604.51 L 12709.94 1599.15 L 12710.39 1583.80" stroke="black" stroke-width="4" fill="none" stroke-linecap="round" stroke-linejoin="round"/>
  <path d="M 12707.94 1578.47 L 12701.71 1573.97" stroke="black" stroke-width="4" fill="none" stroke-linecap="round" stroke-linejoin="round"/>
  <path d="M 12692.77 1570.96 L 12682.42 1569.93" stroke="black" stroke-width="4" fill="none" stroke-linecap="round" stroke-linejoin="round"/>
  <path d="M 12672.25 1570.97 L 12663.73 1573.97" stroke="black" stroke-width="4" fill="none" stroke-linecap="round" stroke-linejoin="round"/>
  <path d="M 12643.21 1556.54 L 12644.92 1551.34 L 12642.64 1546.15 L 12636.60 1541.77 L 12627.86 1538.83 L 12617.67 1537.84 L 12607.61 1538.85 L 12599.12 1541.77 L 12593.56 1546.15 L 12591.72 1551.34 L 12593.93 1556.54 L 12599.89 1560.99 L 12608.71 1563.96 L 12618.98 1565.00 L 12629.17 1563.95 L 12637.68 1560.99 L 12643.21 1556.54 L 12637.68 1560.99" stroke="black" stroke-width="4" fill="none" stroke-linecap="round" stroke-linejoin="round"/>
  <path d="M 12599.89 1560.99 L 12593.93 1556.54 L 12591.72 1551.34 L 12591.53 1566.57 L 12593.73 1571.79 L 12599.68 1576.25 L 12608.48 1579.24 L 12618.73 1580.28 L 12628.90 1579.22 L 12637.38 1576.25 L 12642.91 1571.79 L 12644.61 1566.57 L 12644.92 1551.34" stroke="black" stroke-width="4" fill="none" stroke-linecap="round" stroke-linejoin="round"/>
  <path d="M 12642.64 1546.15 L 12636.60 1541.77" stroke="black" stroke-width="4" fill="none" stroke-linecap="round" stroke-linejoin="round"/>
  <path d="M 12627.86 1538.83 L 12617.67 1537.84" stroke="black" stroke-width="4" fill="none" stroke-linecap="round" stroke-linejoin="round"/>
  <path d="M 12607.61 1538.85 L 12599.12 1541.77" stroke="black" stroke-width="4" fill="none" stroke-linecap="round" stroke-linejoin="round"/>
  <path d="M 12579.32 1524.79 L 12581.13 1519.72 L 12579.02 1514.66 L 12573.17 1510.39 L 12564.61 1507.53 L 12554.58 1506.56 L 12544.62 1507.55 L 12536.16 1510.39 L 12530.57 1514.66 L 12528.62 1519.72 L 12530.67 1524.79 L 12536.44 1529.12 L 12545.07 1532.02 L 12555.18 1533.03 L 12565.27 1532.00 L 12573.74 1529.12 L 12579.32 1524.79 L 12573.74 1529.12" stroke="black" stroke-width="4" fill="none" stroke-linecap="round" stroke-linejoin="round"/>
  <path d="M 12536.44 1529.12 L 12530.67 1524.79 L 12528.62 1519.72 L 12528.56 1534.82 L 12530.60 1539.90 L 12536.36 1544.26 L 12544.98 1547.16 L 12555.06 1548.18 L 12565.13 1547.15 L 12573.58 1544.26 L 12579.15 1539.90 L 12580.96 1534.82 L 12581.13 1519.72" stroke="black" stroke-width="4" fill="none" stroke-linecap="round" stroke-linejoin="round"/>
  <path d="M 12579.02 1514.66 L 12573.17 1510.39" stroke="black" stroke-width="4" fill="none" stroke-linecap="round" stroke-linejoin="round"/>
  <path d="M 12564.61 1507.53 L 12554.58 1506.56" stroke="black" stroke-width="4" fill="none" stroke-linecap="round" stroke-linejoin="round"/>
  <path d="M 12544.62 1507.55 L 12536.16 1510.39" stroke="black" stroke-width="4" fill="none" stroke-linecap="round" stroke-linejoin="round"/>
  <path d="M 12506.82 1392.82 L 12471.49 1375.97" stroke="black" stroke-width="4" fill="none" stroke-linecap="round" stroke-linejoin="round"/>
  <path d="M 12451.07 1366.23 L 12412.57 1347.86" stroke="black" stroke-width="4" fill="none" stroke-linecap="round" stroke-linejoin="round"/>
  <path d="M 12392.65 1338.36 L 12355.08 1320.44" stroke="black" stroke-width="4" fill="none" stroke-linecap="round" stroke-linejoin="round"/>
  <path d="M 12335.65 1311.17 L 12298.98 1293.68" stroke="black" stroke-width="4" fill="none" stroke-linecap="round" stroke-linejoin="round"/>
  <path d="M 12280.01 1284.62 L 12278.13 1283.73 L 12276.74 1284.33" stroke="black" stroke-width="4" fill="none" stroke-linecap="round" stroke-linejoin="round"/>
  <path d="M 12250.49 1295.75 L 12215.74 1310.86" stroke="black" stroke-width="4" fill="none" stroke-linecap="round" stroke-linejoin="round"/>
  <path d="M 12188.85 1322.56 L 12155.77 1336.95 L 12384.06 1451.55 L 12506.82 1392.82 L 12506.74 1481.14 L 12385.49 1541.37 L 12159.83 1423.80 L 12155.77 1336.95" stroke="black" stroke-width="4" fill="none" stroke-linecap="round" stroke-linejoin="round"/>
  <path d="M 12421.47 1392.82 L 12423.23 1397.47 L 12428.63 1401.44 L 12436.83 1404.09 L 12446.60 1405.03 L 12456.41 1404.09 L 12464.73 1401.44 L 12470.32 1397.47 L 12472.32 1392.81" stroke="black" stroke-width="4" fill="none" stroke-linecap="round" stroke-linejoin="round"/>
  <path d="M 12464.66 1386.48 L 12456.32 1389.11 L 12446.49 1390.04 L 12436.70 1389.11 L 12428.49 1386.48 L 12423.07 1382.52 L 12421.31 1377.89 L 12423.39 1373.26 L 12429.02 1369.37 L 12437.32 1366.76 L 12447.08 1365.86 L 12456.74 1366.76 L 12464.92 1369.37 L 12470.38 1373.26 L 12472.27 1377.88 L 12470.26 1382.52 L 12464.66 1386.48" stroke="black" stroke-width="4" fill="none" stroke-linecap="round" stroke-linejoin="round"/>
  <path d="M 12363.23 1364.54 L 12364.86 1369.08 L 12370.10 1372.95 L 12378.13 1375.53 L 12387.75 1376.45 L 12397.46 1375.53 L 12405.75 1372.95 L 12411.36 1369.08 L 12413.47 1364.53" stroke="black" stroke-width="4" fill="none" stroke-linecap="round" stroke-linejoin="round"/>
  <path d="M 12405.56 1358.11 L 12397.25 1360.68 L 12387.52 1361.59 L 12377.88 1360.68 L 12369.83 1358.11 L 12364.59 1354.25 L 12362.96 1349.74 L 12365.13 1345.22 L 12370.79 1341.43 L 12379.06 1338.88 L 12388.72 1338.00 L 12398.24 1338.88 L 12406.25 1341.43 L 12411.54 1345.22 L 12413.29 1349.72 L 12411.19 1354.25 L 12405.56 1358.11" stroke="black" stroke-width="4" fill="none" stroke-linecap="round" stroke-linejoin="round"/>
  <path d="M 12320.86 1347.67 L 12330.34 1348.57 L 12339.95 1347.67 L 12348.20 1345.16 L 12353.85 1341.37 L 12356.04 1336.93" stroke="black" stroke-width="4" fill="none" stroke-linecap="round" stroke-linejoin="round"/>
  <path d="M 12306.42 1336.95 L 12307.91 1341.37 L 12312.99 1345.16" stroke="black" stroke-width="4" fill="none" stroke-linecap="round" stroke-linejoin="round"/>
  <path d="M 12347.90 1330.44 L 12339.64 1332.94 L 12330.00 1333.84 L 12320.50 1332.94 L 12312.61 1330.44 L 12307.53 1326.68 L 12306.03 1322.27 L 12308.29 1317.86 L 12313.98 1314.16 L 12322.21 1311.67 L 12331.78 1310.81 L 12341.16 1311.67 L 12349.01 1314.16 L 12354.14 1317.86 L 12355.75 1322.26 L 12353.56 1326.68 L 12347.90 1330.44" stroke="black" stroke-width="4" fill="none" stroke-linecap="round" stroke-linejoin="round"/>
  <path d="M 12297.72 1314.34 L 12299.99 1310.00" stroke="black" stroke-width="4" fill="none" stroke-linecap="round" stroke-linejoin="round"/>
  <path d="M 12250.97 1310.02 L 12252.33 1314.34 L 12257.26 1318.03 L 12264.97 1320.48 L 12274.31 1321.36 L 12283.84 1320.48 L 12292.05 1318.03" stroke="black" stroke-width="4" fill="none" stroke-linecap="round" stroke-linejoin="round"/>
  <path d="M 12291.64 1303.44 L 12283.41 1305.88 L 12273.87 1306.75 L 12264.51 1305.88 L 12256.78 1303.44 L 12251.85 1299.76 L 12250.48 1295.46 L 12252.81 1291.16 L 12258.53 1287.55 L 12266.72 1285.12 L 12276.19 1284.28 L 12285.44 1285.12 L 12293.14 1287.55 L 12298.11 1291.16 L 12299.60 1295.45 L 12297.32 1299.76 L 12291.64 1303.44" stroke="black" stroke-width="4" fill="none" stroke-linecap="round" stroke-linejoin="round"/>
  <path d="M 12359.78 1421.82 L 12361.44 1426.58 L 12366.81 1430.66 L 12371.93 1432.35 L 12375.04 1433.37 L 12384.90 1434.33 L 12394.86 1433.37 L 12403.36 1430.66 L 12409.12 1426.58 L 12411.28 1421.80" stroke="black" stroke-width="4" fill="none" stroke-linecap="round" stroke-linejoin="round"/>
  <path d="M 12403.16 1415.56 L 12394.64 1418.26 L 12384.66 1419.22 L 12374.78 1418.26 L 12366.53 1415.56 L 12361.16 1411.50 L 12359.50 1406.76 L 12361.73 1402.00 L 12367.54 1398.02 L 12376.01 1395.34 L 12385.92 1394.42 L 12395.68 1395.34 L 12403.89 1398.02 L 12409.31 1402.00 L 12411.10 1406.74 L 12408.94 1411.50 L 12403.16 1415.56" stroke="black" stroke-width="4" fill="none" stroke-linecap="round" stroke-linejoin="round"/>
  <path d="M 12352.45 1392.81 L 12350.20 1397.47 L 12350.00 1397.60" stroke="black" stroke-width="4" fill="none" stroke-linecap="round" stroke-linejoin="round"/>
  <path d="M 12301.59 1392.82 L 12303.12 1397.47 L 12308.31 1401.44 L 12316.37 1404.09 L 12326.09 1405.03 L 12335.95 1404.09 L 12344.41 1401.44" stroke="black" stroke-width="4" fill="none" stroke-linecap="round" stroke-linejoin="round"/>
  <path d="M 12344.09 1386.48 L 12335.61 1389.11 L 12325.73 1390.04 L 12316.00 1389.11 L 12307.92 1386.48 L 12302.71 1382.52 L 12301.19 1377.89 L 12303.51 1373.26 L 12309.35 1369.37 L 12317.79 1366.76 L 12327.60 1365.86 L 12337.21 1366.76 L 12345.25 1369.37 L 12350.50 1373.26 L 12352.15 1377.88 L 12349.89 1382.52 L 12344.09 1386.48" stroke="black" stroke-width="4" fill="none" stroke-linecap="round" stroke-linejoin="round"/>
  <path d="M 12244.84 1364.54 L 12246.23 1369.08 L 12251.26 1372.95 L 12259.16 1375.53 L 12268.73 1376.45 L 12278.49 1375.53 L 12286.91 1372.95 L 12292.73 1369.08 L 12295.07 1364.53" stroke="black" stroke-width="4" fill="none" stroke-linecap="round" stroke-linejoin="round"/>
  <path d="M 12286.48 1358.11 L 12278.04 1360.68 L 12268.26 1361.59 L 12258.67 1360.68 L 12250.76 1358.11 L 12245.71 1354.25 L 12244.32 1349.74 L 12246.73 1345.22 L 12252.59 1341.43 L 12260.99 1338.88 L 12270.70 1338.00 L 12280.18 1338.88 L 12288.05 1341.43 L 12293.14 1345.22 L 12294.66 1349.72 L 12292.31 1354.25 L 12286.48 1358.11" stroke="black" stroke-width="4" fill="none" stroke-linecap="round" stroke-linejoin="round"/>
  <path d="M 12189.46 1336.95 L 12190.72 1341.37 L 12195.60 1345.16 L 12203.34 1347.67 L 12212.77 1348.57 L 12222.44 1347.67 L 12230.82 1345.16 L 12236.66 1341.37 L 12239.08 1336.93" stroke="black" stroke-width="4" fill="none" stroke-linecap="round" stroke-linejoin="round"/>
  <path d="M 12230.28 1330.44 L 12221.88 1332.94 L 12212.20 1333.84 L 12202.75 1332.94 L 12194.99 1330.44 L 12190.11 1326.68 L 12188.84 1322.27 L 12191.33 1317.86 L 12197.21 1314.16 L 12205.57 1311.67 L 12215.19 1310.81 L 12224.52 1311.67 L 12232.24 1314.16 L 12237.18 1317.86 L 12238.56 1322.26 L 12236.13 1326.68 L 12230.28 1330.44" stroke="black" stroke-width="4" fill="none" stroke-linecap="round" stroke-linejoin="round"/>
  <path d="M 12384.06 1451.55 L 12385.49 1541.37" stroke="black" stroke-width="4" fill="none" stroke-linecap="round" stroke-linejoin="round"/>
  <path d="M 12873.31 1599.15 L 12836.19 1581.22" stroke="black" stroke-width="4" fill="none" stroke-linecap="round" stroke-linejoin="round"/>
  <path d="M 12813.85 1570.43 L 12769.14 1548.83" stroke="black" stroke-width="4" fill="none" stroke-linecap="round" stroke-linejoin="round"/>
  <path d="M 12747.38 1538.32 L 12703.83 1517.27" stroke="black" stroke-width="4" fill="none" stroke-linecap="round" stroke-linejoin="round"/>
  <path d="M 12682.62 1507.03 L 12640.16 1486.52" stroke="black" stroke-width="4" fill="none" stroke-linecap="round" stroke-linejoin="round"/>
  <path d="M 12619.49 1476.53 L 12613.63 1473.70 L 12607.57 1476.77" stroke="black" stroke-width="4" fill="none" stroke-linecap="round" stroke-linejoin="round"/>
  <path d="M 12590.70 1485.32 L 12547.34 1507.28" stroke="black" stroke-width="4" fill="none" stroke-linecap="round" stroke-linejoin="round"/>
  <path d="M 12530.04 1516.04 L 12492.97 1534.82 L 12753.14 1666.98 L 12873.31 1599.15 L 12868.55 1689.91 L 12749.83 1759.27 L 12493.06 1624.07 L 12492.97 1534.82" stroke="black" stroke-width="4" fill="none" stroke-linecap="round" stroke-linejoin="round"/>
  <path d="M 12783.00 1599.15 L 12785.63 1604.51 L 12792.02 1609.10 L 12801.17 1612.16 L 12811.63 1613.23 L 12821.85 1612.15 L 12830.22 1609.10 L 12835.46 1604.51 L 12836.78 1599.15" stroke="black" stroke-width="4" fill="none" stroke-linecap="round" stroke-linejoin="round"/>
  <path d="M 12830.93 1593.70 L 12822.55 1596.74 L 12812.30 1597.82 L 12801.82 1596.76 L 12792.65 1593.70 L 12786.25 1589.14 L 12783.61 1583.80 L 12785.06 1578.47 L 12790.34 1573.97 L 12798.71 1570.97 L 12808.83 1569.93 L 12819.23 1570.96 L 12828.32 1573.97 L 12834.78 1578.47 L 12837.50 1583.80 L 12836.19 1589.14 L 12830.93 1593.70" stroke="black" stroke-width="4" fill="none" stroke-linecap="round" stroke-linejoin="round"/>
  <path d="M 12716.72 1566.57 L 12719.18 1571.79 L 12725.36 1576.25 L 12734.31 1579.24 L 12744.61 1580.28 L 12754.73 1579.22 L 12763.06 1576.25 L 12768.36 1571.79 L 12769.80 1566.57" stroke="black" stroke-width="4" fill="none" stroke-linecap="round" stroke-linejoin="round"/>
  <path d="M 12763.63 1560.99 L 12755.27 1563.95 L 12745.13 1565.00 L 12734.82 1563.96 L 12725.84 1560.99 L 12719.65 1556.54 L 12717.18 1551.34 L 12718.76 1546.15 L 12724.08 1541.77 L 12732.43 1538.85 L 12742.44 1537.84 L 12752.68 1538.83 L 12761.57 1541.77 L 12767.83 1546.15 L 12770.37 1551.34 L 12768.93 1556.54 L 12763.63 1560.99" stroke="black" stroke-width="4" fill="none" stroke-linecap="round" stroke-linejoin="round"/>
  <path d="M 12652.15 1534.82 L 12654.44 1539.90 L 12660.42 1544.26 L 12665.86 1546.06 L 12669.19 1547.16 L 12679.32 1548.18 L 12689.34 1547.15 L 12697.64 1544.26 L 12702.99 1539.90 L 12704.54 1534.82" stroke="black" stroke-width="4" fill="none" stroke-linecap="round" stroke-linejoin="round"/>
  <path d="M 12698.06 1529.12 L 12689.74 1532.00 L 12679.70 1533.03 L 12669.54 1532.02 L 12660.76 1529.12 L 12654.77 1524.79 L 12652.46 1519.72 L 12654.15 1514.66 L 12659.53 1510.39 L 12667.84 1507.55 L 12677.75 1506.56 L 12687.83 1507.53 L 12696.54 1510.39 L 12702.60 1514.66 L 12704.97 1519.72 L 12703.42 1524.79 L 12698.06 1529.12" stroke="black" stroke-width="4" fill="none" stroke-linecap="round" stroke-linejoin="round"/>
  <path d="M 12639.28 1508.83 L 12640.94 1503.87" stroke="black" stroke-width="4" fill="none" stroke-linecap="round" stroke-linejoin="round"/>
  <path d="M 12589.21 1503.87 L 12591.35 1508.83 L 12597.14 1513.07 L 12605.72 1515.91 L 12615.70 1516.90 L 12625.61 1515.89 L 12633.89 1513.07" stroke="black" stroke-width="4" fill="none" stroke-linecap="round" stroke-linejoin="round"/>
  <path d="M 12634.17 1498.07 L 12625.87 1500.88 L 12615.94 1501.87 L 12605.94 1500.89 L 12597.34 1498.07 L 12591.54 1493.84 L 12589.39 1488.90 L 12591.19 1483.97 L 12596.61 1479.81 L 12604.89 1477.04 L 12614.70 1476.07 L 12624.63 1477.02 L 12633.15 1479.81 L 12639.02 1483.97 L 12641.23 1488.90 L 12639.57 1493.84 L 12634.17 1498.07" stroke="black" stroke-width="4" fill="none" stroke-linecap="round" stroke-linejoin="round"/>
  <path d="M 12740.61 1645.97 L 12751.18 1647.07 L 12761.57 1645.96 L 12770.12 1642.82 L 12775.55 1638.12 L 12777.01 1632.61" stroke="black" stroke-width="4" fill="none" stroke-linecap="round" stroke-linejoin="round"/>
  <path d="M 12722.51 1632.61 L 12725.05 1638.12 L 12731.40 1642.82" stroke="black" stroke-width="4" fill="none" stroke-linecap="round" stroke-linejoin="round"/>
  <path d="M 12770.71 1627.30 L 12762.14 1630.42 L 12751.73 1631.53 L 12741.14 1630.43 L 12731.91 1627.30 L 12725.55 1622.61 L 12722.99 1617.13 L 12724.60 1611.65 L 12730.06 1607.03 L 12738.62 1603.96 L 12748.89 1602.89 L 12759.41 1603.94 L 12768.55 1607.03 L 12774.99 1611.65 L 12777.61 1617.13 L 12776.15 1622.61 L 12770.71 1627.30" stroke="black" stroke-width="4" fill="none" stroke-linecap="round" stroke-linejoin="round"/>
  <path d="M 12708.35 1604.51 L 12709.94 1599.15" stroke="black" stroke-width="4" fill="none" stroke-linecap="round" stroke-linejoin="round"/>
  <path d="M 12656.16 1599.15 L 12658.52 1604.51 L 12664.67 1609.10 L 12673.67 1612.16 L 12684.07 1613.23 L 12694.35 1612.15 L 12702.87 1609.10" stroke="black" stroke-width="4" fill="none" stroke-linecap="round" stroke-linejoin="round"/>
  <path d="M 12703.31 1593.70 L 12694.78 1596.74 L 12684.47 1597.82 L 12674.05 1596.76 L 12665.03 1593.70 L 12658.87 1589.14 L 12656.49 1583.80 L 12658.22 1578.47 L 12663.73 1573.97 L 12672.25 1570.97 L 12682.42 1569.93 L 12692.77 1570.96 L 12701.71 1573.97 L 12707.94 1578.47 L 12710.39 1583.80 L 12708.80 1589.14 L 12703.31 1593.70" stroke="black" stroke-width="4" fill="none" stroke-linecap="round" stroke-linejoin="round"/>
  <path d="M 12591.53 1566.57 L 12593.73 1571.79 L 12599.68 1576.25 L 12608.48 1579.24 L 12618.73 1580.28 L 12628.90 1579.22 L 12637.38 1576.25 L 12642.91 1571.79 L 12644.61 1566.57" stroke="black" stroke-width="4" fill="none" stroke-linecap="round" stroke-linejoin="round"/>
  <path d="M 12637.68 1560.99 L 12629.17 1563.95 L 12618.98 1565.00 L 12608.71 1563.96 L 12599.89 1560.99 L 12593.93 1556.54 L 12591.72 1551.34 L 12593.56 1546.15 L 12599.12 1541.77 L 12607.61 1538.85 L 12617.67 1537.84 L 12627.86 1538.83 L 12636.60 1541.77 L 12642.64 1546.15 L 12644.92 1551.34 L 12643.21 1556.54 L 12637.68 1560.99" stroke="black" stroke-width="4" fill="none" stroke-linecap="round" stroke-linejoin="round"/>
  <path d="M 12528.56 1534.82 L 12530.60 1539.90 L 12536.36 1544.26 L 12544.98 1547.16 L 12555.06 1548.18 L 12565.13 1547.15 L 12573.58 1544.26 L 12579.15 1539.90 L 12580.96 1534.82" stroke="black" stroke-width="4" fill="none" stroke-linecap="round" stroke-linejoin="round"/>
  <path d="M 12573.74 1529.12 L 12565.27 1532.00 L 12555.18 1533.03 L 12545.07 1532.02 L 12536.44 1529.12 L 12530.67 1524.79 L 12528.62 1519.72 L 12530.57 1514.66 L 12536.16 1510.39 L 12544.62 1507.55 L 12554.58 1506.56 L 12564.61 1507.53 L 12573.17 1510.39 L 12579.02 1514.66 L 12581.13 1519.72 L 12579.32 1524.79 L 12573.74 1529.12" stroke="black" stroke-width="4" fill="none" stroke-linecap="round" stroke-linejoin="round"/>
  <path d="M 12753.14 1666.98 L 12749.83 1759.27" stroke="black" stroke-width="4" fill="none" stroke-linecap="round" stroke-linejoin="round"/>
</svg>
