<?xml version="1.0" ?>
<svg xmlns="http://www.w3.org/2000/svg" version="1.1" width="661.19px" height="3000px" viewBox="12176.09 0 661.19 3000">
  <polygon points="12406.49,1439.90 12208.13,1534.76 12605.85,1749.53 12804.17,1637.62" fill="#afbfd6" stroke="#afbfd6" stroke-width="0.5" stroke-linecap="round" stroke-linejoin="round"/>
  <polygon points="12358.24,1168.79 12358.72,1194.21 12361.43,1201.25 12360.96,1175.77" fill="#f4a8ba" stroke="#f4a8ba" stroke-width="0.5" stroke-linecap="round" stroke-linejoin="round"/>
  <polygon points="12439.27,1175.77 12439.47,1201.25 12442.85,1194.21 12442.66,1168.79" fill="#f4a8ba" stroke="#f4a8ba" stroke-width="0.5" stroke-linecap="round" stroke-linejoin="round"/>
  <polygon points="12439.27,1175.77 12442.66,1168.79 12439.68,1161.86 12430.74,1156.00 12417.25,1152.10 12401.31,1150.75 12385.25,1152.10 12371.38,1156.00 12361.89,1161.86 12358.24,1168.79 12360.96,1175.77 12369.78,1181.75 12383.38,1185.76 12399.57,1187.15 12415.89,1185.76 12429.88,1181.75" fill="#f4a8ba" stroke="#f4a8ba" stroke-width="0.5" stroke-linecap="round" stroke-linejoin="round"/>
  <polygon points="12429.88,1181.75 12430.12,1207.28 12439.47,1201.25 12439.27,1175.77" fill="#f4a8ba" stroke="#f4a8ba" stroke-width="0.5" stroke-linecap="round" stroke-linejoin="round"/>
  <polygon points="12360.96,1175.77 12361.43,1201.25 12370.22,1207.28 12369.78,1181.75" fill="#f4a8ba" stroke="#f4a8ba" stroke-width="0.5" stroke-linecap="round" stroke-linejoin="round"/>
  <polygon points="12415.89,1185.76 12416.18,1211.32 12430.12,1207.28 12429.88,1181.75" fill="#f4a8ba" stroke="#f4a8ba" stroke-width="0.5" stroke-linecap="round" stroke-linejoin="round"/>
  <polygon points="12369.78,1181.75 12370.22,1207.28 12383.77,1211.32 12383.38,1185.76" fill="#f4a8ba" stroke="#f4a8ba" stroke-width="0.5" stroke-linecap="round" stroke-linejoin="round"/>
  <polygon points="12383.38,1185.76 12383.77,1211.32 12399.91,1212.73 12399.57,1187.15" fill="#f4a8ba" stroke="#f4a8ba" stroke-width="0.5" stroke-linecap="round" stroke-linejoin="round"/>
  <polygon points="12399.57,1187.15 12399.91,1212.73 12416.18,1211.32 12415.89,1185.76" fill="#f4a8ba" stroke="#f4a8ba" stroke-width="0.5" stroke-linecap="round" stroke-linejoin="round"/>
  <polygon points="12603.62,1896.55 12605.85,1749.53 12208.13,1534.76 12213.80,1674.30" fill="#afbfd6" stroke="#afbfd6" stroke-width="0.5" stroke-linecap="round" stroke-linejoin="round"/>
  <polygon points="12404.68,1298.64 12202.23,1389.59 12608.18,1596.03 12810.58,1488.37" fill="#a5c916" stroke="#a5c916" stroke-width="0.5" stroke-linecap="round" stroke-linejoin="round"/>
  <polygon points="12539.99,1219.90 12539.85,1245.76 12542.95,1238.42 12543.10,1212.62" fill="#f4a8ba" stroke="#f4a8ba" stroke-width="0.5" stroke-linecap="round" stroke-linejoin="round"/>
  <polygon points="12253.59,1212.62 12254.44,1238.42 12256.85,1245.76 12256.01,1219.90" fill="#f4a8ba" stroke="#f4a8ba" stroke-width="0.5" stroke-linecap="round" stroke-linejoin="round"/>
  <polygon points="12335.98,1219.90 12336.54,1245.76 12340.34,1238.42 12339.79,1212.62" fill="#f4a8ba" stroke="#f4a8ba" stroke-width="0.5" stroke-linecap="round" stroke-linejoin="round"/>
  <polygon points="12456.90,1212.62 12457.05,1238.42 12460.15,1245.76 12460.01,1219.90" fill="#f4a8ba" stroke="#f4a8ba" stroke-width="0.5" stroke-linecap="round" stroke-linejoin="round"/>
  <polygon points="12500.00,1231.77 12516.61,1230.31 12530.69,1226.13 12539.99,1219.90 12543.10,1212.62 12539.71,1205.40 12530.30,1199.28 12516.33,1195.22 12500.00,1193.81 12483.67,1195.22 12469.70,1199.28 12460.29,1205.40 12456.90,1212.62 12460.01,1219.90 12469.31,1226.13 12483.39,1230.31" fill="#f4a8ba" stroke="#f4a8ba" stroke-width="0.5" stroke-linecap="round" stroke-linejoin="round"/>
  <polygon points="12253.59,1212.62 12256.01,1219.90 12264.70,1226.13 12278.39,1230.31 12294.85,1231.77 12311.60,1230.31 12326.09,1226.13 12335.98,1219.90 12339.79,1212.62 12337.10,1205.40 12328.28,1199.28 12314.69,1195.22 12298.50,1193.81 12282.03,1195.22 12267.67,1199.28 12257.67,1205.40" fill="#f4a8ba" stroke="#f4a8ba" stroke-width="0.5" stroke-linecap="round" stroke-linejoin="round"/>
  <polygon points="12256.01,1219.90 12256.85,1245.76 12265.52,1252.05 12264.70,1226.13" fill="#f4a8ba" stroke="#f4a8ba" stroke-width="0.5" stroke-linecap="round" stroke-linejoin="round"/>
  <polygon points="12460.01,1219.90 12460.15,1245.76 12469.42,1252.05 12469.31,1226.13" fill="#f4a8ba" stroke="#f4a8ba" stroke-width="0.5" stroke-linecap="round" stroke-linejoin="round"/>
  <polygon points="12530.69,1226.13 12530.58,1252.05 12539.85,1245.76 12539.99,1219.90" fill="#f4a8ba" stroke="#f4a8ba" stroke-width="0.5" stroke-linecap="round" stroke-linejoin="round"/>
  <polygon points="12326.09,1226.13 12326.69,1252.05 12336.54,1245.76 12335.98,1219.90" fill="#f4a8ba" stroke="#f4a8ba" stroke-width="0.5" stroke-linecap="round" stroke-linejoin="round"/>
  <polygon points="12264.70,1226.13 12265.52,1252.05 12279.16,1256.27 12278.39,1230.31" fill="#f4a8ba" stroke="#f4a8ba" stroke-width="0.5" stroke-linecap="round" stroke-linejoin="round"/>
  <polygon points="12516.61,1230.31 12516.55,1256.27 12530.58,1252.05 12530.69,1226.13" fill="#f4a8ba" stroke="#f4a8ba" stroke-width="0.5" stroke-linecap="round" stroke-linejoin="round"/>
  <polygon points="12469.31,1226.13 12469.42,1252.05 12483.45,1256.27 12483.39,1230.31" fill="#f4a8ba" stroke="#f4a8ba" stroke-width="0.5" stroke-linecap="round" stroke-linejoin="round"/>
  <polygon points="12311.60,1230.31 12312.25,1256.27 12326.69,1252.05 12326.09,1226.13" fill="#f4a8ba" stroke="#f4a8ba" stroke-width="0.5" stroke-linecap="round" stroke-linejoin="round"/>
  <polygon points="12278.39,1230.31 12279.16,1256.27 12295.57,1257.74 12294.85,1231.77" fill="#f4a8ba" stroke="#f4a8ba" stroke-width="0.5" stroke-linecap="round" stroke-linejoin="round"/>
  <polygon points="12500.00,1231.77 12500.00,1257.74 12516.55,1256.27 12516.61,1230.31" fill="#f4a8ba" stroke="#f4a8ba" stroke-width="0.5" stroke-linecap="round" stroke-linejoin="round"/>
  <polygon points="12294.85,1231.77 12295.57,1257.74 12312.25,1256.27 12311.60,1230.31" fill="#f4a8ba" stroke="#f4a8ba" stroke-width="0.5" stroke-linecap="round" stroke-linejoin="round"/>
  <polygon points="12483.39,1230.31 12483.45,1256.27 12500.00,1257.74 12500.00,1231.77" fill="#f4a8ba" stroke="#f4a8ba" stroke-width="0.5" stroke-linecap="round" stroke-linejoin="round"/>
  <polygon points="12605.85,1749.53 12608.18,1596.03 12202.23,1389.59 12208.13,1534.76" fill="#a5c916" stroke="#a5c916" stroke-width="0.5" stroke-linecap="round" stroke-linejoin="round"/>
  <polygon points="12804.17,1637.62 12605.85,1749.53 12603.62,1896.55 12798.02,1780.83" fill="#afbfd6" stroke="#afbfd6" stroke-width="0.5" stroke-linecap="round" stroke-linejoin="round"/>
  <polygon points="12402.79,1151.78 12196.09,1238.42 12610.62,1435.61 12817.27,1332.68" fill="#f4a8ba" stroke="#f4a8ba" stroke-width="0.5" stroke-linecap="round" stroke-linejoin="round"/>
  <polygon points="12352.12,1258.34 12352.64,1284.54 12355.45,1292.20 12354.94,1265.94" fill="#f4a8ba" stroke="#f4a8ba" stroke-width="0.5" stroke-linecap="round" stroke-linejoin="round"/>
  <polygon points="12436.64,1265.94 12436.86,1292.20 12440.39,1284.54 12440.18,1258.34" fill="#f4a8ba" stroke="#f4a8ba" stroke-width="0.5" stroke-linecap="round" stroke-linejoin="round"/>
  <polygon points="12645.06,1265.94 12644.55,1292.20 12647.36,1284.54 12647.88,1258.34" fill="#f4a8ba" stroke="#f4a8ba" stroke-width="0.5" stroke-linecap="round" stroke-linejoin="round"/>
  <polygon points="12559.82,1258.34 12559.61,1284.54 12563.14,1292.20 12563.36,1265.94" fill="#f4a8ba" stroke="#f4a8ba" stroke-width="0.5" stroke-linecap="round" stroke-linejoin="round"/>
  <polygon points="12604.81,1278.33 12621.70,1276.81 12635.88,1272.45 12645.06,1265.94 12647.88,1258.34 12644.05,1250.80 12634.13,1244.42 12619.66,1240.19 12602.91,1238.72 12586.29,1240.19 12572.23,1244.42 12562.92,1250.80 12559.82,1258.34 12563.36,1265.94 12573.17,1272.45 12587.77,1276.81" fill="#f4a8ba" stroke="#f4a8ba" stroke-width="0.5" stroke-linecap="round" stroke-linejoin="round"/>
  <polygon points="12355.95,1250.80 12352.12,1258.34 12354.94,1265.94 12364.12,1272.45 12378.30,1276.81 12395.19,1278.33 12412.23,1276.81 12426.83,1272.45 12436.64,1265.94 12440.18,1258.34 12437.08,1250.80 12427.77,1244.42 12413.71,1240.19 12397.09,1238.72 12380.34,1240.19 12365.87,1244.42" fill="#f4a8ba" stroke="#f4a8ba" stroke-width="0.5" stroke-linecap="round" stroke-linejoin="round"/>
  <polygon points="12354.94,1265.94 12355.45,1292.20 12364.60,1298.76 12364.12,1272.45" fill="#f4a8ba" stroke="#f4a8ba" stroke-width="0.5" stroke-linecap="round" stroke-linejoin="round"/>
  <polygon points="12426.83,1272.45 12427.09,1298.76 12436.86,1292.20 12436.64,1265.94" fill="#f4a8ba" stroke="#f4a8ba" stroke-width="0.5" stroke-linecap="round" stroke-linejoin="round"/>
  <polygon points="12563.36,1265.94 12563.14,1292.20 12572.91,1298.76 12573.17,1272.45" fill="#f4a8ba" stroke="#f4a8ba" stroke-width="0.5" stroke-linecap="round" stroke-linejoin="round"/>
  <polygon points="12635.88,1272.45 12635.40,1298.76 12644.55,1292.20 12645.06,1265.94" fill="#f4a8ba" stroke="#f4a8ba" stroke-width="0.5" stroke-linecap="round" stroke-linejoin="round"/>
  <polygon points="12412.23,1276.81 12412.54,1303.16 12427.09,1298.76 12426.83,1272.45" fill="#f4a8ba" stroke="#f4a8ba" stroke-width="0.5" stroke-linecap="round" stroke-linejoin="round"/>
  <polygon points="12364.12,1272.45 12364.60,1298.76 12378.73,1303.16 12378.30,1276.81" fill="#f4a8ba" stroke="#f4a8ba" stroke-width="0.5" stroke-linecap="round" stroke-linejoin="round"/>
  <polygon points="12573.17,1272.45 12572.91,1298.76 12587.46,1303.16 12587.77,1276.81" fill="#f4a8ba" stroke="#f4a8ba" stroke-width="0.5" stroke-linecap="round" stroke-linejoin="round"/>
  <polygon points="12621.70,1276.81 12621.27,1303.16 12635.40,1298.76 12635.88,1272.45" fill="#f4a8ba" stroke="#f4a8ba" stroke-width="0.5" stroke-linecap="round" stroke-linejoin="round"/>
  <polygon points="12395.19,1278.33 12395.56,1304.70 12412.54,1303.16 12412.23,1276.81" fill="#f4a8ba" stroke="#f4a8ba" stroke-width="0.5" stroke-linecap="round" stroke-linejoin="round"/>
  <polygon points="12604.81,1278.33 12604.44,1304.70 12621.27,1303.16 12621.70,1276.81" fill="#f4a8ba" stroke="#f4a8ba" stroke-width="0.5" stroke-linecap="round" stroke-linejoin="round"/>
  <polygon points="12587.77,1276.81 12587.46,1303.16 12604.44,1304.70 12604.81,1278.33" fill="#f4a8ba" stroke="#f4a8ba" stroke-width="0.5" stroke-linecap="round" stroke-linejoin="round"/>
  <polygon points="12378.30,1276.81 12378.73,1303.16 12395.56,1304.70 12395.19,1278.33" fill="#f4a8ba" stroke="#f4a8ba" stroke-width="0.5" stroke-linecap="round" stroke-linejoin="round"/>
  <polygon points="12608.18,1596.03 12610.62,1435.61 12196.09,1238.42 12202.23,1389.59" fill="#f4a8ba" stroke="#f4a8ba" stroke-width="0.5" stroke-linecap="round" stroke-linejoin="round"/>
  <polygon points="12810.58,1488.37 12608.18,1596.03 12605.85,1749.53 12804.17,1637.62" fill="#a5c916" stroke="#a5c916" stroke-width="0.5" stroke-linecap="round" stroke-linejoin="round"/>
  <polygon points="12541.76,1314.01 12541.61,1340.68 12544.84,1332.68 12545.00,1306.08" fill="#f4a8ba" stroke="#f4a8ba" stroke-width="0.5" stroke-linecap="round" stroke-linejoin="round"/>
  <polygon points="12754.79,1314.01 12753.88,1340.68 12756.36,1332.68 12757.28,1306.08" fill="#f4a8ba" stroke="#f4a8ba" stroke-width="0.5" stroke-linecap="round" stroke-linejoin="round"/>
  <polygon points="12455.00,1306.08 12455.16,1332.68 12458.39,1340.68 12458.24,1314.01" fill="#f4a8ba" stroke="#f4a8ba" stroke-width="0.5" stroke-linecap="round" stroke-linejoin="round"/>
  <polygon points="12667.28,1306.08 12666.68,1332.68 12670.67,1340.68 12671.28,1314.01" fill="#f4a8ba" stroke="#f4a8ba" stroke-width="0.5" stroke-linecap="round" stroke-linejoin="round"/>
  <polygon points="12458.54,1298.21 12455.00,1306.08 12458.24,1314.01 12467.95,1320.82 12482.66,1325.38 12500.00,1326.97 12517.34,1325.38 12532.05,1320.82 12541.76,1314.01 12545.00,1306.08 12541.46,1298.21 12531.63,1291.54 12517.05,1287.12 12500.00,1285.59 12482.95,1287.12 12468.37,1291.54" fill="#f4a8ba" stroke="#f4a8ba" stroke-width="0.5" stroke-linecap="round" stroke-linejoin="round"/>
  <polygon points="12681.64,1320.82 12696.79,1325.38 12714.28,1326.97 12731.47,1325.38 12745.75,1320.82 12754.79,1314.01 12757.28,1306.08 12752.98,1298.21 12742.51,1291.54 12727.50,1287.12 12710.31,1285.59 12693.41,1287.12 12679.25,1291.54 12670.06,1298.21 12667.28,1306.08 12671.28,1314.01" fill="#f4a8ba" stroke="#f4a8ba" stroke-width="0.5" stroke-linecap="round" stroke-linejoin="round"/>
  <polygon points="12458.24,1314.01 12458.39,1340.68 12468.06,1347.54 12467.95,1320.82" fill="#f4a8ba" stroke="#f4a8ba" stroke-width="0.5" stroke-linecap="round" stroke-linejoin="round"/>
  <polygon points="12745.75,1320.82 12744.86,1347.54 12753.88,1340.68 12754.79,1314.01" fill="#f4a8ba" stroke="#f4a8ba" stroke-width="0.5" stroke-linecap="round" stroke-linejoin="round"/>
  <polygon points="12532.05,1320.82 12531.94,1347.54 12541.61,1340.68 12541.76,1314.01" fill="#f4a8ba" stroke="#f4a8ba" stroke-width="0.5" stroke-linecap="round" stroke-linejoin="round"/>
  <polygon points="12671.28,1314.01 12670.67,1340.68 12680.98,1347.54 12681.64,1320.82" fill="#f4a8ba" stroke="#f4a8ba" stroke-width="0.5" stroke-linecap="round" stroke-linejoin="round"/>
  <polygon points="12467.95,1320.82 12468.06,1347.54 12482.72,1352.14 12482.66,1325.38" fill="#f4a8ba" stroke="#f4a8ba" stroke-width="0.5" stroke-linecap="round" stroke-linejoin="round"/>
  <polygon points="12517.34,1325.38 12517.28,1352.14 12531.94,1347.54 12532.05,1320.82" fill="#f4a8ba" stroke="#f4a8ba" stroke-width="0.5" stroke-linecap="round" stroke-linejoin="round"/>
  <polygon points="12731.47,1325.38 12730.64,1352.14 12744.86,1347.54 12745.75,1320.82" fill="#f4a8ba" stroke="#f4a8ba" stroke-width="0.5" stroke-linecap="round" stroke-linejoin="round"/>
  <polygon points="12681.64,1320.82 12680.98,1347.54 12696.07,1352.14 12696.79,1325.38" fill="#f4a8ba" stroke="#f4a8ba" stroke-width="0.5" stroke-linecap="round" stroke-linejoin="round"/>
  <polygon points="12482.66,1325.38 12482.72,1352.14 12500.00,1353.74 12500.00,1326.97" fill="#f4a8ba" stroke="#f4a8ba" stroke-width="0.5" stroke-linecap="round" stroke-linejoin="round"/>
  <polygon points="12696.79,1325.38 12696.07,1352.14 12713.51,1353.74 12714.28,1326.97" fill="#f4a8ba" stroke="#f4a8ba" stroke-width="0.5" stroke-linecap="round" stroke-linejoin="round"/>
  <polygon points="12500.00,1326.97 12500.00,1353.74 12517.28,1352.14 12517.34,1325.38" fill="#f4a8ba" stroke="#f4a8ba" stroke-width="0.5" stroke-linecap="round" stroke-linejoin="round"/>
  <polygon points="12714.28,1326.97 12713.51,1353.74 12730.64,1352.14 12731.47,1325.38" fill="#f4a8ba" stroke="#f4a8ba" stroke-width="0.5" stroke-linecap="round" stroke-linejoin="round"/>
  <polygon points="12817.27,1332.68 12610.62,1435.61 12608.18,1596.03 12810.58,1488.37" fill="#f4a8ba" stroke="#f4a8ba" stroke-width="0.5" stroke-linecap="round" stroke-linejoin="round"/>
  <polygon points="12562.51,1355.97 12562.29,1382.99 12565.99,1391.35 12566.23,1364.27" fill="#f4a8ba" stroke="#f4a8ba" stroke-width="0.5" stroke-linecap="round" stroke-linejoin="round"/>
  <polygon points="12651.63,1364.27 12651.07,1391.35 12653.98,1382.99 12654.55,1355.97" fill="#f4a8ba" stroke="#f4a8ba" stroke-width="0.5" stroke-linecap="round" stroke-linejoin="round"/>
  <polygon points="12566.23,1364.27 12576.49,1371.38 12591.76,1376.15 12609.58,1377.81 12627.24,1376.15 12642.05,1371.38 12651.63,1364.27 12654.55,1355.97 12650.53,1347.74 12640.15,1340.77 12625.01,1336.15 12607.51,1334.55 12590.15,1336.15 12575.46,1340.77 12565.75,1347.74 12562.51,1355.97" fill="#f4a8ba" stroke="#f4a8ba" stroke-width="0.5" stroke-linecap="round" stroke-linejoin="round"/>
  <polygon points="12566.23,1364.27 12565.99,1391.35 12576.21,1398.53 12576.49,1371.38" fill="#f4a8ba" stroke="#f4a8ba" stroke-width="0.5" stroke-linecap="round" stroke-linejoin="round"/>
  <polygon points="12642.05,1371.38 12641.53,1398.53 12651.07,1391.35 12651.63,1364.27" fill="#f4a8ba" stroke="#f4a8ba" stroke-width="0.5" stroke-linecap="round" stroke-linejoin="round"/>
  <polygon points="12627.24,1376.15 12626.77,1403.33 12641.53,1398.53 12642.05,1371.38" fill="#f4a8ba" stroke="#f4a8ba" stroke-width="0.5" stroke-linecap="round" stroke-linejoin="round"/>
  <polygon points="12576.49,1371.38 12576.21,1398.53 12591.42,1403.33 12591.76,1376.15" fill="#f4a8ba" stroke="#f4a8ba" stroke-width="0.5" stroke-linecap="round" stroke-linejoin="round"/>
  <polygon points="12591.76,1376.15 12591.42,1403.33 12609.18,1405.01 12609.58,1377.81" fill="#f4a8ba" stroke="#f4a8ba" stroke-width="0.5" stroke-linecap="round" stroke-linejoin="round"/>
  <polygon points="12609.58,1377.81 12609.18,1405.01 12626.77,1403.33 12627.24,1376.15" fill="#f4a8ba" stroke="#f4a8ba" stroke-width="0.5" stroke-linecap="round" stroke-linejoin="round"/>
  <path d="M 12213.80 1674.30 L 12603.62 1896.55 L 12798.02 1780.83 L 12804.17 1637.62 L 12605.85 1749.53 L 12603.62 1896.55 L 12798.02 1780.83 L 12804.17 1637.62 L 12605.85 1749.53 L 12208.13 1534.76 L 12213.80 1674.30 L 12603.62 1896.55 L 12605.85 1749.53 L 12208.13 1534.76 L 12213.80 1674.30" stroke="black" stroke-width="4" fill="none" stroke-linecap="round" stroke-linejoin="round"/>
  <path d="M 12208.13 1534.76 L 12605.85 1749.53 L 12804.17 1637.62 L 12810.58 1488.37 L 12608.18 1596.03 L 12605.85 1749.53 L 12804.17 1637.62 L 12810.58 1488.37 L 12608.18 1596.03 L 12202.23 1389.59 L 12208.13 1534.76 L 12605.85 1749.53 L 12608.18 1596.03 L 12202.23 1389.59 L 12208.13 1534.76" stroke="black" stroke-width="4" fill="none" stroke-linecap="round" stroke-linejoin="round"/>
  <path d="M 12202.23 1389.59 L 12608.18 1596.03 L 12810.58 1488.37 L 12817.27 1332.68 L 12610.62 1435.61 L 12608.18 1596.03 L 12810.58 1488.37 L 12817.27 1332.68 L 12757.27 1306.49 L 12817.27 1332.68 L 12610.62 1435.61 L 12196.09 1238.42 L 12253.65 1214.30 L 12196.09 1238.42 L 12202.23 1389.59 L 12608.18 1596.03 L 12610.62 1435.61 L 12196.09 1238.42 L 12202.23 1389.59" stroke="black" stroke-width="4" fill="none" stroke-linecap="round" stroke-linejoin="round"/>
  <path d="M 12709.53 1285.66 L 12647.87 1258.75 L 12709.53 1285.66 L 12710.31 1285.59 L 12727.50 1287.12 L 12742.51 1291.54" stroke="black" stroke-width="4" fill="none" stroke-linecap="round" stroke-linejoin="round"/>
  <path d="M 12602.13 1238.79 L 12543.10 1213.02 L 12602.13 1238.79 L 12602.91 1238.72 L 12619.66 1240.19" stroke="black" stroke-width="4" fill="none" stroke-linecap="round" stroke-linejoin="round"/>
  <path d="M 12499.24 1193.88 L 12442.66 1169.19 L 12499.24 1193.88 L 12500.00 1193.81 L 12516.33 1195.22" stroke="black" stroke-width="4" fill="none" stroke-linecap="round" stroke-linejoin="round"/>
  <path d="M 12358.27 1170.44 L 12301.82 1194.10 L 12358.27 1170.44" stroke="black" stroke-width="4" fill="none" stroke-linecap="round" stroke-linejoin="round"/>
  <path d="M 12754.79 1314.01 L 12757.28 1306.08 L 12752.98 1298.21 L 12742.51 1291.54 L 12727.50 1287.12 L 12710.31 1285.59 L 12693.41 1287.12 L 12679.25 1291.54 L 12670.06 1298.21 L 12667.28 1306.08 L 12671.28 1314.01 L 12681.64 1320.82 L 12696.79 1325.38 L 12714.28 1326.97 L 12731.47 1325.38 L 12745.75 1320.82 L 12754.79 1314.01" stroke="black" stroke-width="4" fill="none" stroke-linecap="round" stroke-linejoin="round"/>
  <path d="M 12667.28 1306.08 L 12666.68 1332.68 L 12670.67 1340.68 L 12680.98 1347.54 L 12696.07 1352.14 L 12713.51 1353.74 L 12730.64 1352.14 L 12744.86 1347.54 L 12753.88 1340.68 L 12756.36 1332.68 L 12757.28 1306.08" stroke="black" stroke-width="4" fill="none" stroke-linecap="round" stroke-linejoin="round"/>
  <path d="M 12714.28 1326.97 L 12731.47 1325.38 L 12745.75 1320.82" stroke="black" stroke-width="4" fill="none" stroke-linecap="round" stroke-linejoin="round"/>
  <path d="M 12679.25 1291.54 L 12670.06 1298.21 L 12667.28 1306.08 L 12671.28 1314.01 L 12681.64 1320.82" stroke="black" stroke-width="4" fill="none" stroke-linecap="round" stroke-linejoin="round"/>
  <path d="M 12645.06 1265.94 L 12647.88 1258.34 L 12644.05 1250.80 L 12634.13 1244.42 L 12619.66 1240.19 L 12602.91 1238.72 L 12586.29 1240.19 L 12572.23 1244.42 L 12562.92 1250.80 L 12559.82 1258.34 L 12563.36 1265.94 L 12573.17 1272.45 L 12587.77 1276.81 L 12604.81 1278.33 L 12621.70 1276.81 L 12635.88 1272.45 L 12645.06 1265.94 L 12635.88 1272.45" stroke="black" stroke-width="4" fill="none" stroke-linecap="round" stroke-linejoin="round"/>
  <path d="M 12559.82 1258.34 L 12559.61 1284.54 L 12563.14 1292.20 L 12572.91 1298.76 L 12587.46 1303.16 L 12604.44 1304.70 L 12621.27 1303.16 L 12635.40 1298.76 L 12644.55 1292.20 L 12647.36 1284.54 L 12647.88 1258.34" stroke="black" stroke-width="4" fill="none" stroke-linecap="round" stroke-linejoin="round"/>
  <path d="M 12644.05 1250.80 L 12634.13 1244.42" stroke="black" stroke-width="4" fill="none" stroke-linecap="round" stroke-linejoin="round"/>
  <path d="M 12586.29 1240.19 L 12572.23 1244.42" stroke="black" stroke-width="4" fill="none" stroke-linecap="round" stroke-linejoin="round"/>
  <path d="M 12562.92 1250.80 L 12559.82 1258.34 L 12563.36 1265.94" stroke="black" stroke-width="4" fill="none" stroke-linecap="round" stroke-linejoin="round"/>
  <path d="M 12573.17 1272.45 L 12587.77 1276.81" stroke="black" stroke-width="4" fill="none" stroke-linecap="round" stroke-linejoin="round"/>
  <path d="M 12604.81 1278.33 L 12621.70 1276.81" stroke="black" stroke-width="4" fill="none" stroke-linecap="round" stroke-linejoin="round"/>
  <path d="M 12539.99 1219.90 L 12543.10 1212.62 L 12539.71 1205.40 L 12530.30 1199.28 L 12516.33 1195.22 L 12500.00 1193.81 L 12483.67 1195.22 L 12469.70 1199.28 L 12460.29 1205.40 L 12456.90 1212.62 L 12460.01 1219.90 L 12469.31 1226.13 L 12483.39 1230.31 L 12500.00 1231.77 L 12516.61 1230.31 L 12530.69 1226.13 L 12539.99 1219.90 L 12530.69 1226.13" stroke="black" stroke-width="4" fill="none" stroke-linecap="round" stroke-linejoin="round"/>
  <path d="M 12456.90 1212.62 L 12457.05 1238.42 L 12460.15 1245.76 L 12469.42 1252.05 L 12483.45 1256.27 L 12500.00 1257.74 L 12516.55 1256.27 L 12530.58 1252.05 L 12539.85 1245.76 L 12542.95 1238.42 L 12543.10 1212.62" stroke="black" stroke-width="4" fill="none" stroke-linecap="round" stroke-linejoin="round"/>
  <path d="M 12506.98 1220.06 L 12500.00 1219.45" stroke="black" stroke-width="4" fill="none" stroke-linecap="round" stroke-linejoin="round"/>
  <path d="M 12539.71 1205.40 L 12530.30 1199.28" stroke="black" stroke-width="4" fill="none" stroke-linecap="round" stroke-linejoin="round"/>
  <path d="M 12483.67 1195.22 L 12469.70 1199.28" stroke="black" stroke-width="4" fill="none" stroke-linecap="round" stroke-linejoin="round"/>
  <path d="M 12460.29 1205.40 L 12456.90 1212.62 L 12460.01 1219.90" stroke="black" stroke-width="4" fill="none" stroke-linecap="round" stroke-linejoin="round"/>
  <path d="M 12469.31 1226.13 L 12483.39 1230.31" stroke="black" stroke-width="4" fill="none" stroke-linecap="round" stroke-linejoin="round"/>
  <path d="M 12500.00 1231.77 L 12516.61 1230.31" stroke="black" stroke-width="4" fill="none" stroke-linecap="round" stroke-linejoin="round"/>
  <path d="M 12439.27 1175.77 L 12442.66 1168.79 L 12439.68 1161.86 L 12430.74 1156.00 L 12417.25 1152.10 L 12401.31 1150.75 L 12385.25 1152.10 L 12371.38 1156.00 L 12361.89 1161.86 L 12358.24 1168.79 L 12360.96 1175.77 L 12369.78 1181.75 L 12383.38 1185.76 L 12399.57 1187.15 L 12415.89 1185.76 L 12429.88 1181.75 L 12439.27 1175.77" stroke="black" stroke-width="4" fill="none" stroke-linecap="round" stroke-linejoin="round"/>
  <path d="M 12358.24 1168.79 L 12358.72 1194.21 L 12361.43 1201.25 L 12370.22 1207.28 L 12383.77 1211.32 L 12399.91 1212.73 L 12416.18 1211.32 L 12430.12 1207.28 L 12439.47 1201.25 L 12442.85 1194.21 L 12442.66 1168.79" stroke="black" stroke-width="4" fill="none" stroke-linecap="round" stroke-linejoin="round"/>
  <path d="M 12399.57 1187.15 L 12415.89 1185.76 L 12429.88 1181.75" stroke="black" stroke-width="4" fill="none" stroke-linecap="round" stroke-linejoin="round"/>
  <path d="M 12430.74 1156.00 L 12417.25 1152.10 L 12401.31 1150.75" stroke="black" stroke-width="4" fill="none" stroke-linecap="round" stroke-linejoin="round"/>
  <path d="M 12371.38 1156.00 L 12361.89 1161.86 L 12358.24 1168.79 L 12360.96 1175.77 L 12369.78 1181.75" stroke="black" stroke-width="4" fill="none" stroke-linecap="round" stroke-linejoin="round"/>
  <path d="M 12651.63 1364.27 L 12654.55 1355.97 L 12650.53 1347.74 L 12640.15 1340.77 L 12625.01 1336.15 L 12607.51 1334.55 L 12590.15 1336.15 L 12575.46 1340.77 L 12565.75 1347.74 L 12562.51 1355.97 L 12566.23 1364.27 L 12576.49 1371.38 L 12591.76 1376.15 L 12609.58 1377.81 L 12627.24 1376.15 L 12642.05 1371.38 L 12651.63 1364.27" stroke="black" stroke-width="4" fill="none" stroke-linecap="round" stroke-linejoin="round"/>
  <path d="M 12562.51 1355.97 L 12562.29 1382.99 L 12565.99 1391.35 L 12576.21 1398.53 L 12591.42 1403.33 L 12609.18 1405.01 L 12626.77 1403.33 L 12641.53 1398.53 L 12651.07 1391.35 L 12653.98 1382.99 L 12654.55 1355.97" stroke="black" stroke-width="4" fill="none" stroke-linecap="round" stroke-linejoin="round"/>
  <path d="M 12609.58 1377.81 L 12627.24 1376.15 L 12642.05 1371.38" stroke="black" stroke-width="4" fill="none" stroke-linecap="round" stroke-linejoin="round"/>
  <path d="M 12640.15 1340.77 L 12625.01 1336.15 L 12607.51 1334.55" stroke="black" stroke-width="4" fill="none" stroke-linecap="round" stroke-linejoin="round"/>
  <path d="M 12575.46 1340.77 L 12565.75 1347.74 L 12562.51 1355.97 L 12566.23 1364.27 L 12576.49 1371.38" stroke="black" stroke-width="4" fill="none" stroke-linecap="round" stroke-linejoin="round"/>
  <path d="M 12541.76 1314.01 L 12545.00 1306.08 L 12541.46 1298.21 L 12531.63 1291.54 L 12517.05 1287.12 L 12500.00 1285.59 L 12482.95 1287.12 L 12468.37 1291.54 L 12458.54 1298.21 L 12455.00 1306.08 L 12458.24 1314.01 L 12467.95 1320.82 L 12482.66 1325.38 L 12500.00 1326.97 L 12517.34 1325.38 L 12532.05 1320.82 L 12541.76 1314.01 L 12532.05 1320.82" stroke="black" stroke-width="4" fill="none" stroke-linecap="round" stroke-linejoin="round"/>
  <path d="M 12455.00 1306.08 L 12455.16 1332.68 L 12458.39 1340.68 L 12468.06 1347.54 L 12482.72 1352.14 L 12500.00 1353.74 L 12517.28 1352.14 L 12531.94 1347.54 L 12541.61 1340.68 L 12544.84 1332.68 L 12545.00 1306.08" stroke="black" stroke-width="4" fill="none" stroke-linecap="round" stroke-linejoin="round"/>
  <path d="M 12505.81 1312.54 L 12500.00 1312.01" stroke="black" stroke-width="4" fill="none" stroke-linecap="round" stroke-linejoin="round"/>
  <path d="M 12541.46 1298.21 L 12531.63 1291.54" stroke="black" stroke-width="4" fill="none" stroke-linecap="round" stroke-linejoin="round"/>
  <path d="M 12517.05 1287.12 L 12500.00 1285.59" stroke="black" stroke-width="4" fill="none" stroke-linecap="round" stroke-linejoin="round"/>
  <path d="M 12482.95 1287.12 L 12468.37 1291.54" stroke="black" stroke-width="4" fill="none" stroke-linecap="round" stroke-linejoin="round"/>
  <path d="M 12458.54 1298.21 L 12455.00 1306.08 L 12458.24 1314.01" stroke="black" stroke-width="4" fill="none" stroke-linecap="round" stroke-linejoin="round"/>
  <path d="M 12467.95 1320.82 L 12482.66 1325.38" stroke="black" stroke-width="4" fill="none" stroke-linecap="round" stroke-linejoin="round"/>
  <path d="M 12500.00 1326.97 L 12517.34 1325.38" stroke="black" stroke-width="4" fill="none" stroke-linecap="round" stroke-linejoin="round"/>
  <path d="M 12436.64 1265.94 L 12440.18 1258.34 L 12437.08 1250.80 L 12427.77 1244.42 L 12413.71 1240.19 L 12397.09 1238.72 L 12380.34 1240.19 L 12365.87 1244.42 L 12355.95 1250.80 L 12352.12 1258.34 L 12354.94 1265.94 L 12364.12 1272.45 L 12378.30 1276.81 L 12395.19 1278.33 L 12412.23 1276.81 L 12426.83 1272.45 L 12436.64 1265.94 L 12426.83 1272.45" stroke="black" stroke-width="4" fill="none" stroke-linecap="round" stroke-linejoin="round"/>
  <path d="M 12352.12 1258.34 L 12352.64 1284.54 L 12355.45 1292.20 L 12364.60 1298.76 L 12378.73 1303.16 L 12395.56 1304.70 L 12412.54 1303.16 L 12427.09 1298.76 L 12436.86 1292.20 L 12440.39 1284.54 L 12440.18 1258.34" stroke="black" stroke-width="4" fill="none" stroke-linecap="round" stroke-linejoin="round"/>
  <path d="M 12437.08 1250.80 L 12427.77 1244.42" stroke="black" stroke-width="4" fill="none" stroke-linecap="round" stroke-linejoin="round"/>
  <path d="M 12413.71 1240.19 L 12397.09 1238.72" stroke="black" stroke-width="4" fill="none" stroke-linecap="round" stroke-linejoin="round"/>
  <path d="M 12380.34 1240.19 L 12365.87 1244.42" stroke="black" stroke-width="4" fill="none" stroke-linecap="round" stroke-linejoin="round"/>
  <path d="M 12355.95 1250.80 L 12352.12 1258.34 L 12354.94 1265.94" stroke="black" stroke-width="4" fill="none" stroke-linecap="round" stroke-linejoin="round"/>
  <path d="M 12364.12 1272.45 L 12378.30 1276.81" stroke="black" stroke-width="4" fill="none" stroke-linecap="round" stroke-linejoin="round"/>
  <path d="M 12395.19 1278.33 L 12412.23 1276.81" stroke="black" stroke-width="4" fill="none" stroke-linecap="round" stroke-linejoin="round"/>
  <path d="M 12335.98 1219.90 L 12339.79 1212.62 L 12337.10 1205.40 L 12328.28 1199.28 L 12314.69 1195.22 L 12298.50 1193.81 L 12282.03 1195.22 L 12267.67 1199.28 L 12257.67 1205.40 L 12253.59 1212.62 L 12256.01 1219.90 L 12264.70 1226.13 L 12278.39 1230.31 L 12294.85 1231.77 L 12311.60 1230.31 L 12326.09 1226.13 L 12335.98 1219.90" stroke="black" stroke-width="4" fill="none" stroke-linecap="round" stroke-linejoin="round"/>
  <path d="M 12253.59 1212.62 L 12254.44 1238.42 L 12256.85 1245.76 L 12265.52 1252.05 L 12279.16 1256.27 L 12295.57 1257.74 L 12312.25 1256.27 L 12326.69 1252.05 L 12336.54 1245.76 L 12340.34 1238.42 L 12339.79 1212.62" stroke="black" stroke-width="4" fill="none" stroke-linecap="round" stroke-linejoin="round"/>
  <path d="M 12294.85 1231.77 L 12311.60 1230.31 L 12326.09 1226.13" stroke="black" stroke-width="4" fill="none" stroke-linecap="round" stroke-linejoin="round"/>
  <path d="M 12328.28 1199.28 L 12314.69 1195.22 L 12298.50 1193.81" stroke="black" stroke-width="4" fill="none" stroke-linecap="round" stroke-linejoin="round"/>
  <path d="M 12267.67 1199.28 L 12257.67 1205.40 L 12253.59 1212.62 L 12256.01 1219.90 L 12264.70 1226.13" stroke="black" stroke-width="4" fill="none" stroke-linecap="round" stroke-linejoin="round"/>
  <path d="M 12817.27 1332.68 L 12757.27 1306.49" stroke="black" stroke-width="4" fill="none" stroke-linecap="round" stroke-linejoin="round"/>
  <path d="M 12709.53 1285.66 L 12647.87 1258.75" stroke="black" stroke-width="4" fill="none" stroke-linecap="round" stroke-linejoin="round"/>
  <path d="M 12602.13 1238.79 L 12543.10 1213.02" stroke="black" stroke-width="4" fill="none" stroke-linecap="round" stroke-linejoin="round"/>
  <path d="M 12499.24 1193.88 L 12442.66 1169.19" stroke="black" stroke-width="4" fill="none" stroke-linecap="round" stroke-linejoin="round"/>
  <path d="M 12358.27 1170.44 L 12301.82 1194.10" stroke="black" stroke-width="4" fill="none" stroke-linecap="round" stroke-linejoin="round"/>
  <path d="M 12253.65 1214.30 L 12196.09 1238.42 L 12610.62 1435.61 L 12817.27 1332.68 L 12810.58 1488.37 L 12608.18 1596.03 L 12810.58 1488.37 L 12608.18 1596.03 L 12202.23 1389.59 L 12608.18 1596.03 L 12605.85 1749.53 L 12208.13 1534.76 L 12202.23 1389.59 L 12608.18 1596.03 L 12810.58 1488.37 L 12804.17 1637.62 L 12605.85 1749.53 L 12804.17 1637.62 L 12605.85 1749.53 L 12208.13 1534.76 L 12605.85 1749.53 L 12603.62 1896.55 L 12213.80 1674.30 L 12208.13 1534.76 L 12605.85 1749.53 L 12804.17 1637.62 L 12798.02 1780.83 L 12603.62 1896.55" stroke="black" stroke-width="4" fill="none" stroke-linecap="round" stroke-linejoin="round"/>
  <path d="M 12196.09 1238.42 L 12202.23 1389.59 L 12608.18 1596.03 L 12610.62 1435.61" stroke="black" stroke-width="4" fill="none" stroke-linecap="round" stroke-linejoin="round"/>
  <path d="M 12666.68 1332.68 L 12670.67 1340.68 L 12680.98 1347.54 L 12696.07 1352.14 L 12713.51 1353.74 L 12730.64 1352.14 L 12744.86 1347.54 L 12753.88 1340.68 L 12756.36 1332.68" stroke="black" stroke-width="4" fill="none" stroke-linecap="round" stroke-linejoin="round"/>
  <path d="M 12745.75 1320.82 L 12731.47 1325.38 L 12714.28 1326.97 L 12696.79 1325.38 L 12681.64 1320.82 L 12671.28 1314.01 L 12667.28 1306.08 L 12670.06 1298.21 L 12679.25 1291.54 L 12693.41 1287.12 L 12710.31 1285.59 L 12727.50 1287.12 L 12742.51 1291.54 L 12752.98 1298.21 L 12757.28 1306.08 L 12754.79 1314.01 L 12745.75 1320.82" stroke="black" stroke-width="4" fill="none" stroke-linecap="round" stroke-linejoin="round"/>
  <path d="M 12559.61 1284.54 L 12563.14 1292.20 L 12572.91 1298.76 L 12587.46 1303.16 L 12604.44 1304.70 L 12621.27 1303.16 L 12635.40 1298.76 L 12644.55 1292.20 L 12647.36 1284.54" stroke="black" stroke-width="4" fill="none" stroke-linecap="round" stroke-linejoin="round"/>
  <path d="M 12562.92 1250.80 L 12572.23 1244.42 L 12586.29 1240.19 L 12602.91 1238.72 L 12619.66 1240.19 L 12634.13 1244.42 L 12644.05 1250.80 L 12647.88 1258.34 L 12645.06 1265.94 L 12635.88 1272.45 L 12621.70 1276.81 L 12604.81 1278.33 L 12587.77 1276.81 L 12573.17 1272.45 L 12563.36 1265.94 L 12559.82 1258.34" stroke="black" stroke-width="4" fill="none" stroke-linecap="round" stroke-linejoin="round"/>
  <path d="M 12457.05 1238.42 L 12460.15 1245.76 L 12469.42 1252.05 L 12478.13 1254.67 L 12483.45 1256.27 L 12500.00 1257.74 L 12516.55 1256.27 L 12530.58 1252.05 L 12539.85 1245.76 L 12542.95 1238.42" stroke="black" stroke-width="4" fill="none" stroke-linecap="round" stroke-linejoin="round"/>
  <path d="M 12506.98 1220.06 L 12500.00 1219.45" stroke="black" stroke-width="4" fill="none" stroke-linecap="round" stroke-linejoin="round"/>
  <path d="M 12530.69 1226.13 L 12516.61 1230.31 L 12500.00 1231.77 L 12483.39 1230.31 L 12469.31 1226.13 L 12460.01 1219.90 L 12456.90 1212.62 L 12460.29 1205.40 L 12469.70 1199.28 L 12483.67 1195.22 L 12500.00 1193.81 L 12516.33 1195.22 L 12530.30 1199.28 L 12539.71 1205.40 L 12543.10 1212.62 L 12539.99 1219.90 L 12530.69 1226.13" stroke="black" stroke-width="4" fill="none" stroke-linecap="round" stroke-linejoin="round"/>
  <path d="M 12358.72 1194.21 L 12361.43 1201.25 L 12370.22 1207.28 L 12383.77 1211.32 L 12399.91 1212.73 L 12416.18 1211.32 L 12430.12 1207.28 L 12439.16 1201.45" stroke="black" stroke-width="4" fill="none" stroke-linecap="round" stroke-linejoin="round"/>
  <path d="M 12439.47 1201.25 L 12442.85 1194.21" stroke="black" stroke-width="4" fill="none" stroke-linecap="round" stroke-linejoin="round"/>
  <path d="M 12429.88 1181.75 L 12415.89 1185.76 L 12399.57 1187.15 L 12383.38 1185.76 L 12369.78 1181.75 L 12360.96 1175.77 L 12358.24 1168.79 L 12361.89 1161.86 L 12371.38 1156.00 L 12385.25 1152.10 L 12401.31 1150.75 L 12417.25 1152.10 L 12430.74 1156.00 L 12439.68 1161.86 L 12442.66 1168.79 L 12439.27 1175.77 L 12429.88 1181.75" stroke="black" stroke-width="4" fill="none" stroke-linecap="round" stroke-linejoin="round"/>
  <path d="M 12585.65 1401.51 L 12591.42 1403.33 L 12609.18 1405.01 L 12626.77 1403.33 L 12641.53 1398.53 L 12651.07 1391.35 L 12653.98 1382.99" stroke="black" stroke-width="4" fill="none" stroke-linecap="round" stroke-linejoin="round"/>
  <path d="M 12562.29 1382.99 L 12565.99 1391.35 L 12576.21 1398.53" stroke="black" stroke-width="4" fill="none" stroke-linecap="round" stroke-linejoin="round"/>
  <path d="M 12642.05 1371.38 L 12627.24 1376.15 L 12609.58 1377.81 L 12591.76 1376.15 L 12576.49 1371.38 L 12566.23 1364.27 L 12562.51 1355.97 L 12565.75 1347.74 L 12575.46 1340.77 L 12590.15 1336.15 L 12607.51 1334.55 L 12625.01 1336.15 L 12640.15 1340.77 L 12650.53 1347.74 L 12654.55 1355.97 L 12651.63 1364.27 L 12642.05 1371.38" stroke="black" stroke-width="4" fill="none" stroke-linecap="round" stroke-linejoin="round"/>
  <path d="M 12544.84 1332.68 L 12541.61 1340.68 L 12541.28 1340.91 L 12531.94 1347.54 L 12517.28 1352.14 L 12500.00 1353.74 L 12482.72 1352.14 L 12468.06 1347.54 L 12458.39 1340.68 L 12455.16 1332.68" stroke="black" stroke-width="4" fill="none" stroke-linecap="round" stroke-linejoin="round"/>
  <path d="M 12505.81 1312.54 L 12500.00 1312.01" stroke="black" stroke-width="4" fill="none" stroke-linecap="round" stroke-linejoin="round"/>
  <path d="M 12532.05 1320.82 L 12517.34 1325.38 L 12500.00 1326.97 L 12482.66 1325.38 L 12467.95 1320.82 L 12458.24 1314.01 L 12455.00 1306.08 L 12458.54 1298.21 L 12468.37 1291.54 L 12482.95 1287.12 L 12500.00 1285.59 L 12517.05 1287.12 L 12531.63 1291.54 L 12541.46 1298.21 L 12545.00 1306.08 L 12541.76 1314.01 L 12532.05 1320.82" stroke="black" stroke-width="4" fill="none" stroke-linecap="round" stroke-linejoin="round"/>
  <path d="M 12352.64 1284.54 L 12355.45 1292.20 L 12364.60 1298.76 L 12378.73 1303.16 L 12395.56 1304.70 L 12412.54 1303.16 L 12427.09 1298.76 L 12436.86 1292.20 L 12440.39 1284.54" stroke="black" stroke-width="4" fill="none" stroke-linecap="round" stroke-linejoin="round"/>
  <path d="M 12426.83 1272.45 L 12412.23 1276.81 L 12395.19 1278.33 L 12378.30 1276.81 L 12364.12 1272.45 L 12354.94 1265.94 L 12352.12 1258.34 L 12355.95 1250.80 L 12365.87 1244.42 L 12380.34 1240.19 L 12397.09 1238.72 L 12413.71 1240.19 L 12427.77 1244.42 L 12437.08 1250.80 L 12440.18 1258.34 L 12436.64 1265.94 L 12426.83 1272.45" stroke="black" stroke-width="4" fill="none" stroke-linecap="round" stroke-linejoin="round"/>
  <path d="M 12254.44 1238.42 L 12256.85 1245.76 L 12265.52 1252.05 L 12279.16 1256.27 L 12295.57 1257.74 L 12312.25 1256.27 L 12326.69 1252.05 L 12336.54 1245.76 L 12340.34 1238.42" stroke="black" stroke-width="4" fill="none" stroke-linecap="round" stroke-linejoin="round"/>
  <path d="M 12326.09 1226.13 L 12311.60 1230.31 L 12294.85 1231.77 L 12278.39 1230.31 L 12264.70 1226.13 L 12256.01 1219.90 L 12253.59 1212.62 L 12257.67 1205.40 L 12267.67 1199.28 L 12282.03 1195.22 L 12298.50 1193.81 L 12314.69 1195.22 L 12328.28 1199.28 L 12337.10 1205.40 L 12339.79 1212.62 L 12335.98 1219.90 L 12326.09 1226.13" stroke="black" stroke-width="4" fill="none" stroke-linecap="round" stroke-linejoin="round"/>
</svg>
