<?xml version="1.0" ?>
<svg xmlns="http://www.w3.org/2000/svg" version="1.1" width="688.96px" height="3000px" viewBox="12162.81 0 688.96 3000">
  <polygon points="12406.44,1577.38 12207.96,1677.85 12605.92,1905.35 12804.35,1786.80" fill="#ff9ecc" stroke="#ff9ecc" stroke-width="0.5" stroke-linecap="round" stroke-linejoin="round"/>
  <polygon points="12603.68,2049.17 12605.92,1905.35 12207.96,1677.85 12213.64,1814.68" fill="#ff9ecc" stroke="#ff9ecc" stroke-width="0.5" stroke-linecap="round" stroke-linejoin="round"/>
  <polygon points="12404.62,1438.70 12202.06,1535.49 12608.25,1755.19 12810.77,1640.61" fill="#60afff" stroke="#60afff" stroke-width="0.5" stroke-linecap="round" stroke-linejoin="round"/>
  <polygon points="12605.92,1905.35 12608.25,1755.19 12202.06,1535.49 12207.96,1677.85" fill="#60afff" stroke="#60afff" stroke-width="0.5" stroke-linecap="round" stroke-linejoin="round"/>
  <polygon points="12804.35,1786.80 12605.92,1905.35 12603.68,2049.17 12798.19,1927.08" fill="#ff9ecc" stroke="#ff9ecc" stroke-width="0.5" stroke-linecap="round" stroke-linejoin="round"/>
  <polygon points="12402.73,1294.54 12195.91,1387.24 12610.69,1598.25 12817.47,1488.11" fill="#afbfd6" stroke="#afbfd6" stroke-width="0.5" stroke-linecap="round" stroke-linejoin="round"/>
  <polygon points="12352.16,1002.00 12352.68,1029.09 12355.49,1035.85 12354.97,1008.69" fill="#f4a8ba" stroke="#f4a8ba" stroke-width="0.5" stroke-linecap="round" stroke-linejoin="round"/>
  <polygon points="12436.66,1008.69 12436.88,1035.85 12440.41,1029.09 12440.20,1002.00" fill="#f4a8ba" stroke="#f4a8ba" stroke-width="0.5" stroke-linecap="round" stroke-linejoin="round"/>
  <polygon points="12378.33,1018.28 12395.22,1019.62 12412.26,1018.28 12426.85,1014.43 12436.66,1008.69 12440.20,1002.00 12437.10,995.36 12427.79,989.73 12413.73,986.00 12397.12,984.71 12380.37,986.00 12365.90,989.73 12355.98,995.36 12352.16,1002.00 12354.97,1008.69 12364.15,1014.43" fill="#f4a8ba" stroke="#f4a8ba" stroke-width="0.5" stroke-linecap="round" stroke-linejoin="round"/>
  <polygon points="12426.85,1014.43 12427.11,1041.65 12436.88,1035.85 12436.66,1008.69" fill="#f4a8ba" stroke="#f4a8ba" stroke-width="0.5" stroke-linecap="round" stroke-linejoin="round"/>
  <polygon points="12354.97,1008.69 12355.49,1035.85 12364.63,1041.65 12364.15,1014.43" fill="#f4a8ba" stroke="#f4a8ba" stroke-width="0.5" stroke-linecap="round" stroke-linejoin="round"/>
  <polygon points="12364.15,1014.43 12364.63,1041.65 12378.76,1045.54 12378.33,1018.28" fill="#f4a8ba" stroke="#f4a8ba" stroke-width="0.5" stroke-linecap="round" stroke-linejoin="round"/>
  <polygon points="12412.26,1018.28 12412.57,1045.54 12427.11,1041.65 12426.85,1014.43" fill="#f4a8ba" stroke="#f4a8ba" stroke-width="0.5" stroke-linecap="round" stroke-linejoin="round"/>
  <polygon points="12395.22,1019.62 12395.59,1046.89 12412.57,1045.54 12412.26,1018.28" fill="#f4a8ba" stroke="#f4a8ba" stroke-width="0.5" stroke-linecap="round" stroke-linejoin="round"/>
  <polygon points="12378.33,1018.28 12378.76,1045.54 12395.59,1046.89 12395.22,1019.62" fill="#f4a8ba" stroke="#f4a8ba" stroke-width="0.5" stroke-linecap="round" stroke-linejoin="round"/>
  <polygon points="12608.25,1755.19 12610.69,1598.25 12195.91,1387.24 12202.06,1535.49" fill="#afbfd6" stroke="#afbfd6" stroke-width="0.5" stroke-linecap="round" stroke-linejoin="round"/>
  <polygon points="12810.77,1640.61 12608.25,1755.19 12605.92,1905.35 12804.35,1786.80" fill="#60afff" stroke="#60afff" stroke-width="0.5" stroke-linecap="round" stroke-linejoin="round"/>
  <polygon points="12400.77,1144.54 12189.50,1232.75 12613.25,1434.08 12824.46,1328.89" fill="#a5c916" stroke="#a5c916" stroke-width="0.5" stroke-linecap="round" stroke-linejoin="round"/>
  <polygon points="12242.79,1044.07 12243.71,1071.61 12246.19,1078.67 12245.27,1051.06" fill="#f4a8ba" stroke="#f4a8ba" stroke-width="0.5" stroke-linecap="round" stroke-linejoin="round"/>
  <polygon points="12541.74,1051.06 12541.59,1078.67 12544.83,1071.61 12544.99,1044.07" fill="#f4a8ba" stroke="#f4a8ba" stroke-width="0.5" stroke-linecap="round" stroke-linejoin="round"/>
  <polygon points="12328.76,1051.06 12329.38,1078.67 12333.37,1071.61 12332.77,1044.07" fill="#f4a8ba" stroke="#f4a8ba" stroke-width="0.5" stroke-linecap="round" stroke-linejoin="round"/>
  <polygon points="12455.01,1044.07 12455.17,1071.61 12458.41,1078.67 12458.26,1051.06" fill="#f4a8ba" stroke="#f4a8ba" stroke-width="0.5" stroke-linecap="round" stroke-linejoin="round"/>
  <polygon points="12517.04,1027.36 12500.00,1026.01 12482.96,1027.36 12468.38,1031.26 12458.55,1037.13 12455.01,1044.07 12458.26,1051.06 12467.96,1057.06 12482.66,1061.08 12500.00,1062.48 12517.34,1061.08 12532.04,1057.06 12541.74,1051.06 12544.99,1044.07 12541.45,1037.13 12531.62,1031.26" fill="#f4a8ba" stroke="#f4a8ba" stroke-width="0.5" stroke-linecap="round" stroke-linejoin="round"/>
  <polygon points="12254.32,1057.06 12268.59,1061.08 12285.78,1062.48 12303.27,1061.08 12318.41,1057.06 12328.76,1051.06 12332.77,1044.07 12329.98,1037.13 12320.80,1031.26 12306.64,1027.36 12289.74,1026.01 12272.56,1027.36 12257.55,1031.26 12247.09,1037.13 12242.79,1044.07 12245.27,1051.06" fill="#f4a8ba" stroke="#f4a8ba" stroke-width="0.5" stroke-linecap="round" stroke-linejoin="round"/>
  <polygon points="12532.04,1057.06 12531.93,1084.73 12541.59,1078.67 12541.74,1051.06" fill="#f4a8ba" stroke="#f4a8ba" stroke-width="0.5" stroke-linecap="round" stroke-linejoin="round"/>
  <polygon points="12245.27,1051.06 12246.19,1078.67 12255.21,1084.73 12254.32,1057.06" fill="#f4a8ba" stroke="#f4a8ba" stroke-width="0.5" stroke-linecap="round" stroke-linejoin="round"/>
  <polygon points="12458.26,1051.06 12458.41,1078.67 12468.07,1084.73 12467.96,1057.06" fill="#f4a8ba" stroke="#f4a8ba" stroke-width="0.5" stroke-linecap="round" stroke-linejoin="round"/>
  <polygon points="12318.41,1057.06 12319.07,1084.73 12329.38,1078.67 12328.76,1051.06" fill="#f4a8ba" stroke="#f4a8ba" stroke-width="0.5" stroke-linecap="round" stroke-linejoin="round"/>
  <polygon points="12254.32,1057.06 12255.21,1084.73 12269.43,1088.79 12268.59,1061.08" fill="#f4a8ba" stroke="#f4a8ba" stroke-width="0.5" stroke-linecap="round" stroke-linejoin="round"/>
  <polygon points="12467.96,1057.06 12468.07,1084.73 12482.72,1088.79 12482.66,1061.08" fill="#f4a8ba" stroke="#f4a8ba" stroke-width="0.5" stroke-linecap="round" stroke-linejoin="round"/>
  <polygon points="12517.34,1061.08 12517.28,1088.79 12531.93,1084.73 12532.04,1057.06" fill="#f4a8ba" stroke="#f4a8ba" stroke-width="0.5" stroke-linecap="round" stroke-linejoin="round"/>
  <polygon points="12303.27,1061.08 12303.98,1088.79 12319.07,1084.73 12318.41,1057.06" fill="#f4a8ba" stroke="#f4a8ba" stroke-width="0.5" stroke-linecap="round" stroke-linejoin="round"/>
  <polygon points="12285.78,1062.48 12286.55,1090.20 12303.98,1088.79 12303.27,1061.08" fill="#f4a8ba" stroke="#f4a8ba" stroke-width="0.5" stroke-linecap="round" stroke-linejoin="round"/>
  <polygon points="12268.59,1061.08 12269.43,1088.79 12286.55,1090.20 12285.78,1062.48" fill="#f4a8ba" stroke="#f4a8ba" stroke-width="0.5" stroke-linecap="round" stroke-linejoin="round"/>
  <polygon points="12482.66,1061.08 12482.72,1088.79 12500.00,1090.20 12500.00,1062.48" fill="#f4a8ba" stroke="#f4a8ba" stroke-width="0.5" stroke-linecap="round" stroke-linejoin="round"/>
  <polygon points="12500.00,1062.48 12500.00,1090.20 12517.28,1088.79 12517.34,1061.08" fill="#f4a8ba" stroke="#f4a8ba" stroke-width="0.5" stroke-linecap="round" stroke-linejoin="round"/>
  <polygon points="12610.69,1598.25 12613.25,1434.08 12189.50,1232.75 12195.91,1387.24" fill="#a5c916" stroke="#a5c916" stroke-width="0.5" stroke-linecap="round" stroke-linejoin="round"/>
  <polygon points="12817.47,1488.11 12610.69,1598.25 12608.25,1755.19 12810.77,1640.61" fill="#afbfd6" stroke="#afbfd6" stroke-width="0.5" stroke-linecap="round" stroke-linejoin="round"/>
  <polygon points="12398.72,988.36 12182.81,1071.61 12615.92,1262.16 12831.77,1162.50" fill="#f4a8ba" stroke="#f4a8ba" stroke-width="0.5" stroke-linecap="round" stroke-linejoin="round"/>
  <polygon points="12651.59,1095.35 12651.03,1123.42 12653.94,1116.03 12654.51,1088.04" fill="#f4a8ba" stroke="#f4a8ba" stroke-width="0.5" stroke-linecap="round" stroke-linejoin="round"/>
  <polygon points="12345.49,1088.04 12346.06,1116.03 12348.97,1123.42 12348.41,1095.35" fill="#f4a8ba" stroke="#f4a8ba" stroke-width="0.5" stroke-linecap="round" stroke-linejoin="round"/>
  <polygon points="12433.79,1095.35 12434.03,1123.42 12437.73,1116.03 12437.50,1088.04" fill="#f4a8ba" stroke="#f4a8ba" stroke-width="0.5" stroke-linecap="round" stroke-linejoin="round"/>
  <polygon points="12562.50,1088.04 12562.27,1116.03 12565.97,1123.42 12566.21,1095.35" fill="#f4a8ba" stroke="#f4a8ba" stroke-width="0.5" stroke-linecap="round" stroke-linejoin="round"/>
  <polygon points="12359.89,1074.65 12349.51,1080.79 12345.49,1088.04 12348.41,1095.35 12357.98,1101.62 12372.79,1105.83 12390.45,1107.29 12408.26,1105.83 12423.53,1101.62 12433.79,1095.35 12437.50,1088.04 12434.27,1080.79 12424.56,1074.65 12409.87,1070.57 12392.52,1069.16 12375.02,1070.57" fill="#f4a8ba" stroke="#f4a8ba" stroke-width="0.5" stroke-linecap="round" stroke-linejoin="round"/>
  <polygon points="12651.59,1095.35 12654.51,1088.04 12650.49,1080.79 12640.11,1074.65 12624.98,1070.57 12607.48,1069.16 12590.13,1070.57 12575.44,1074.65 12565.73,1080.79 12562.50,1088.04 12566.21,1095.35 12576.47,1101.62 12591.74,1105.83 12609.55,1107.29 12627.21,1105.83 12642.02,1101.62" fill="#f4a8ba" stroke="#f4a8ba" stroke-width="0.5" stroke-linecap="round" stroke-linejoin="round"/>
  <polygon points="12348.41,1095.35 12348.97,1123.42 12358.51,1129.76 12357.98,1101.62" fill="#f4a8ba" stroke="#f4a8ba" stroke-width="0.5" stroke-linecap="round" stroke-linejoin="round"/>
  <polygon points="12642.02,1101.62 12641.49,1129.76 12651.03,1123.42 12651.59,1095.35" fill="#f4a8ba" stroke="#f4a8ba" stroke-width="0.5" stroke-linecap="round" stroke-linejoin="round"/>
  <polygon points="12423.53,1101.62 12423.81,1129.76 12434.03,1123.42 12433.79,1095.35" fill="#f4a8ba" stroke="#f4a8ba" stroke-width="0.5" stroke-linecap="round" stroke-linejoin="round"/>
  <polygon points="12566.21,1095.35 12565.97,1123.42 12576.19,1129.76 12576.47,1101.62" fill="#f4a8ba" stroke="#f4a8ba" stroke-width="0.5" stroke-linecap="round" stroke-linejoin="round"/>
  <polygon points="12627.21,1105.83 12626.73,1134.00 12641.49,1129.76 12642.02,1101.62" fill="#f4a8ba" stroke="#f4a8ba" stroke-width="0.5" stroke-linecap="round" stroke-linejoin="round"/>
  <polygon points="12408.26,1105.83 12408.60,1134.00 12423.81,1129.76 12423.53,1101.62" fill="#f4a8ba" stroke="#f4a8ba" stroke-width="0.5" stroke-linecap="round" stroke-linejoin="round"/>
  <polygon points="12357.98,1101.62 12358.51,1129.76 12373.26,1134.00 12372.79,1105.83" fill="#f4a8ba" stroke="#f4a8ba" stroke-width="0.5" stroke-linecap="round" stroke-linejoin="round"/>
  <polygon points="12576.47,1101.62 12576.19,1129.76 12591.40,1134.00 12591.74,1105.83" fill="#f4a8ba" stroke="#f4a8ba" stroke-width="0.5" stroke-linecap="round" stroke-linejoin="round"/>
  <polygon points="12390.45,1107.29 12390.85,1135.48 12408.60,1134.00 12408.26,1105.83" fill="#f4a8ba" stroke="#f4a8ba" stroke-width="0.5" stroke-linecap="round" stroke-linejoin="round"/>
  <polygon points="12591.74,1105.83 12591.40,1134.00 12609.15,1135.48 12609.55,1107.29" fill="#f4a8ba" stroke="#f4a8ba" stroke-width="0.5" stroke-linecap="round" stroke-linejoin="round"/>
  <polygon points="12372.79,1105.83 12373.26,1134.00 12390.85,1135.48 12390.45,1107.29" fill="#f4a8ba" stroke="#f4a8ba" stroke-width="0.5" stroke-linecap="round" stroke-linejoin="round"/>
  <polygon points="12609.55,1107.29 12609.15,1135.48 12626.73,1134.00 12627.21,1105.83" fill="#f4a8ba" stroke="#f4a8ba" stroke-width="0.5" stroke-linecap="round" stroke-linejoin="round"/>
  <polygon points="12613.25,1434.08 12615.92,1262.16 12182.81,1071.61 12189.50,1232.75" fill="#f4a8ba" stroke="#f4a8ba" stroke-width="0.5" stroke-linecap="round" stroke-linejoin="round"/>
  <polygon points="12824.46,1328.89 12613.25,1434.08 12610.69,1598.25 12817.47,1488.11" fill="#a5c916" stroke="#a5c916" stroke-width="0.5" stroke-linecap="round" stroke-linejoin="round"/>
  <polygon points="12674.95,1134.04 12674.29,1162.50 12678.49,1170.23 12679.17,1141.69" fill="#f4a8ba" stroke="#f4a8ba" stroke-width="0.5" stroke-linecap="round" stroke-linejoin="round"/>
  <polygon points="12766.53,1141.69 12765.52,1170.23 12768.07,1162.50 12769.08,1134.04" fill="#f4a8ba" stroke="#f4a8ba" stroke-width="0.5" stroke-linecap="round" stroke-linejoin="round"/>
  <polygon points="12452.93,1134.04 12453.11,1162.50 12456.49,1170.23 12456.32,1141.69" fill="#f4a8ba" stroke="#f4a8ba" stroke-width="0.5" stroke-linecap="round" stroke-linejoin="round"/>
  <polygon points="12543.68,1141.69 12543.51,1170.23 12546.89,1162.50 12547.07,1134.04" fill="#f4a8ba" stroke="#f4a8ba" stroke-width="0.5" stroke-linecap="round" stroke-linejoin="round"/>
  <polygon points="12737.85,1115.76 12719.86,1114.28 12702.20,1115.76 12687.41,1120.02 12677.83,1126.45 12674.95,1134.04 12679.17,1141.69 12690.03,1148.26 12705.89,1152.66 12724.21,1154.19 12742.19,1152.66 12757.10,1148.26 12766.53,1141.69 12769.08,1134.04 12764.54,1126.45 12753.56,1120.02" fill="#f4a8ba" stroke="#f4a8ba" stroke-width="0.5" stroke-linecap="round" stroke-linejoin="round"/>
  <polygon points="12500.00,1154.19 12518.15,1152.66 12533.54,1148.26 12543.68,1141.69 12547.07,1134.04 12543.35,1126.45 12533.07,1120.02 12517.82,1115.76 12500.00,1114.28 12482.18,1115.76 12466.93,1120.02 12456.65,1126.45 12452.93,1134.04 12456.32,1141.69 12466.47,1148.26 12481.85,1152.66" fill="#f4a8ba" stroke="#f4a8ba" stroke-width="0.5" stroke-linecap="round" stroke-linejoin="round"/>
  <polygon points="12679.17,1141.69 12678.49,1170.23 12689.31,1176.86 12690.03,1148.26" fill="#f4a8ba" stroke="#f4a8ba" stroke-width="0.5" stroke-linecap="round" stroke-linejoin="round"/>
  <polygon points="12456.32,1141.69 12456.49,1170.23 12466.59,1176.86 12466.47,1148.26" fill="#f4a8ba" stroke="#f4a8ba" stroke-width="0.5" stroke-linecap="round" stroke-linejoin="round"/>
  <polygon points="12757.10,1148.26 12756.12,1176.86 12765.52,1170.23 12766.53,1141.69" fill="#f4a8ba" stroke="#f4a8ba" stroke-width="0.5" stroke-linecap="round" stroke-linejoin="round"/>
  <polygon points="12533.54,1148.26 12533.41,1176.86 12543.51,1170.23 12543.68,1141.69" fill="#f4a8ba" stroke="#f4a8ba" stroke-width="0.5" stroke-linecap="round" stroke-linejoin="round"/>
  <polygon points="12518.15,1152.66 12518.08,1181.31 12533.41,1176.86 12533.54,1148.26" fill="#f4a8ba" stroke="#f4a8ba" stroke-width="0.5" stroke-linecap="round" stroke-linejoin="round"/>
  <polygon points="12742.19,1152.66 12741.27,1181.31 12756.12,1176.86 12757.10,1148.26" fill="#f4a8ba" stroke="#f4a8ba" stroke-width="0.5" stroke-linecap="round" stroke-linejoin="round"/>
  <polygon points="12690.03,1148.26 12689.31,1176.86 12705.11,1181.31 12705.89,1152.66" fill="#f4a8ba" stroke="#f4a8ba" stroke-width="0.5" stroke-linecap="round" stroke-linejoin="round"/>
  <polygon points="12466.47,1148.26 12466.59,1176.86 12481.92,1181.31 12481.85,1152.66" fill="#f4a8ba" stroke="#f4a8ba" stroke-width="0.5" stroke-linecap="round" stroke-linejoin="round"/>
  <polygon points="12481.85,1152.66 12481.92,1181.31 12500.00,1182.86 12500.00,1154.19" fill="#f4a8ba" stroke="#f4a8ba" stroke-width="0.5" stroke-linecap="round" stroke-linejoin="round"/>
  <polygon points="12500.00,1154.19 12500.00,1182.86 12518.08,1181.31 12518.15,1152.66" fill="#f4a8ba" stroke="#f4a8ba" stroke-width="0.5" stroke-linecap="round" stroke-linejoin="round"/>
  <polygon points="12724.21,1154.19 12723.36,1182.86 12741.27,1181.31 12742.19,1152.66" fill="#f4a8ba" stroke="#f4a8ba" stroke-width="0.5" stroke-linecap="round" stroke-linejoin="round"/>
  <polygon points="12705.89,1152.66 12705.11,1181.31 12723.36,1182.86 12724.21,1154.19" fill="#f4a8ba" stroke="#f4a8ba" stroke-width="0.5" stroke-linecap="round" stroke-linejoin="round"/>
  <polygon points="12831.77,1162.50 12615.92,1262.16 12613.25,1434.08 12824.46,1328.89" fill="#f4a8ba" stroke="#f4a8ba" stroke-width="0.5" stroke-linecap="round" stroke-linejoin="round"/>
  <polygon points="12658.78,1190.23 12658.17,1219.26 12661.19,1211.16 12661.81,1182.21" fill="#f4a8ba" stroke="#f4a8ba" stroke-width="0.5" stroke-linecap="round" stroke-linejoin="round"/>
  <polygon points="12565.45,1182.21 12565.20,1211.16 12569.08,1219.26 12569.35,1190.23" fill="#f4a8ba" stroke="#f4a8ba" stroke-width="0.5" stroke-linecap="round" stroke-linejoin="round"/>
  <polygon points="12569.35,1190.23 12580.11,1197.11 12596.11,1201.72 12614.78,1203.33 12633.27,1201.72 12648.77,1197.11 12658.78,1190.23 12661.81,1182.21 12657.57,1174.26 12646.68,1167.52 12630.83,1163.06 12612.50,1161.51 12594.35,1163.06 12578.98,1167.52 12568.82,1174.26 12565.45,1182.21" fill="#f4a8ba" stroke="#f4a8ba" stroke-width="0.5" stroke-linecap="round" stroke-linejoin="round"/>
  <polygon points="12569.35,1190.23 12569.08,1219.26 12579.80,1226.21 12580.11,1197.11" fill="#f4a8ba" stroke="#f4a8ba" stroke-width="0.5" stroke-linecap="round" stroke-linejoin="round"/>
  <polygon points="12648.77,1197.11 12648.20,1226.21 12658.17,1219.26 12658.78,1190.23" fill="#f4a8ba" stroke="#f4a8ba" stroke-width="0.5" stroke-linecap="round" stroke-linejoin="round"/>
  <polygon points="12633.27,1201.72 12632.75,1230.86 12648.20,1226.21 12648.77,1197.11" fill="#f4a8ba" stroke="#f4a8ba" stroke-width="0.5" stroke-linecap="round" stroke-linejoin="round"/>
  <polygon points="12580.11,1197.11 12579.80,1226.21 12595.74,1230.86 12596.11,1201.72" fill="#f4a8ba" stroke="#f4a8ba" stroke-width="0.5" stroke-linecap="round" stroke-linejoin="round"/>
  <polygon points="12614.78,1203.33 12614.33,1232.49 12632.75,1230.86 12633.27,1201.72" fill="#f4a8ba" stroke="#f4a8ba" stroke-width="0.5" stroke-linecap="round" stroke-linejoin="round"/>
  <polygon points="12596.11,1201.72 12595.74,1230.86 12614.33,1232.49 12614.78,1203.33" fill="#f4a8ba" stroke="#f4a8ba" stroke-width="0.5" stroke-linecap="round" stroke-linejoin="round"/>
  <path d="M 12213.64 1814.68 L 12603.68 2049.17 L 12798.19 1927.08 L 12804.35 1786.80 L 12605.92 1905.35 L 12603.68 2049.17 L 12798.19 1927.08 L 12804.35 1786.80 L 12605.92 1905.35 L 12207.96 1677.85 L 12213.64 1814.68 L 12603.68 2049.17 L 12605.92 1905.35 L 12207.96 1677.85 L 12213.64 1814.68" stroke="black" stroke-width="4" fill="none" stroke-linecap="round" stroke-linejoin="round"/>
  <path d="M 12207.96 1677.85 L 12605.92 1905.35 L 12804.35 1786.80 L 12810.77 1640.61 L 12608.25 1755.19 L 12605.92 1905.35 L 12804.35 1786.80 L 12810.77 1640.61 L 12608.25 1755.19 L 12202.06 1535.49 L 12207.96 1677.85 L 12605.92 1905.35 L 12608.25 1755.19 L 12202.06 1535.49 L 12207.96 1677.85" stroke="black" stroke-width="4" fill="none" stroke-linecap="round" stroke-linejoin="round"/>
  <path d="M 12202.06 1535.49 L 12608.25 1755.19 L 12810.77 1640.61 L 12817.47 1488.11 L 12610.69 1598.25 L 12608.25 1755.19 L 12810.77 1640.61 L 12817.47 1488.11 L 12610.69 1598.25 L 12195.91 1387.24 L 12202.06 1535.49 L 12608.25 1755.19 L 12610.69 1598.25 L 12195.91 1387.24 L 12202.06 1535.49" stroke="black" stroke-width="4" fill="none" stroke-linecap="round" stroke-linejoin="round"/>
  <path d="M 12195.91 1387.24 L 12610.69 1598.25 L 12817.47 1488.11 L 12824.46 1328.89 L 12613.25 1434.08 L 12610.69 1598.25 L 12817.47 1488.11 L 12824.46 1328.89 L 12613.25 1434.08 L 12189.50 1232.75 L 12195.91 1387.24 L 12610.69 1598.25 L 12613.25 1434.08 L 12189.50 1232.75 L 12195.91 1387.24" stroke="black" stroke-width="4" fill="none" stroke-linecap="round" stroke-linejoin="round"/>
  <path d="M 12189.50 1232.75 L 12613.25 1434.08 L 12824.46 1328.89 L 12831.77 1162.50 L 12615.92 1262.16 L 12613.25 1434.08 L 12824.46 1328.89 L 12831.77 1162.50 L 12768.97 1137.25 L 12831.77 1162.50 L 12615.92 1262.16 L 12182.81 1071.61 L 12242.93 1048.43 L 12182.81 1071.61 L 12189.50 1232.75 L 12613.25 1434.08 L 12615.92 1262.16 L 12182.81 1071.61 L 12189.50 1232.75" stroke="black" stroke-width="4" fill="none" stroke-linecap="round" stroke-linejoin="round"/>
  <path d="M 12713.23 1114.84 L 12654.45 1091.20 L 12713.23 1114.84" stroke="black" stroke-width="4" fill="none" stroke-linecap="round" stroke-linejoin="round"/>
  <path d="M 12600.96 1069.69 L 12544.97 1047.18 L 12600.96 1069.69" stroke="black" stroke-width="4" fill="none" stroke-linecap="round" stroke-linejoin="round"/>
  <path d="M 12493.60 1026.52 L 12440.22 1005.05 L 12493.60 1026.52" stroke="black" stroke-width="4" fill="none" stroke-linecap="round" stroke-linejoin="round"/>
  <path d="M 12352.24 1006.29 L 12299.13 1026.76 L 12352.24 1006.29" stroke="black" stroke-width="4" fill="none" stroke-linecap="round" stroke-linejoin="round"/>
  <path d="M 12766.53 1141.69 L 12769.08 1134.04 L 12764.54 1126.45 L 12753.56 1120.02 L 12737.85 1115.76 L 12719.86 1114.28 L 12702.20 1115.76 L 12687.41 1120.02 L 12677.83 1126.45 L 12674.95 1134.04 L 12679.17 1141.69 L 12690.03 1148.26 L 12705.89 1152.66 L 12724.21 1154.19 L 12742.19 1152.66 L 12757.10 1148.26 L 12766.53 1141.69" stroke="black" stroke-width="4" fill="none" stroke-linecap="round" stroke-linejoin="round"/>
  <path d="M 12674.95 1134.04 L 12674.29 1162.50 L 12678.49 1170.23 L 12689.31 1176.86 L 12705.11 1181.31 L 12723.36 1182.86 L 12741.27 1181.31 L 12756.12 1176.86 L 12765.52 1170.23 L 12768.07 1162.50 L 12769.08 1134.04" stroke="black" stroke-width="4" fill="none" stroke-linecap="round" stroke-linejoin="round"/>
  <path d="M 12724.21 1154.19 L 12742.19 1152.66 L 12757.10 1148.26" stroke="black" stroke-width="4" fill="none" stroke-linecap="round" stroke-linejoin="round"/>
  <path d="M 12753.56 1120.02 L 12737.85 1115.76 L 12719.86 1114.28" stroke="black" stroke-width="4" fill="none" stroke-linecap="round" stroke-linejoin="round"/>
  <path d="M 12687.41 1120.02 L 12677.83 1126.45 L 12674.95 1134.04 L 12679.17 1141.69 L 12690.03 1148.26" stroke="black" stroke-width="4" fill="none" stroke-linecap="round" stroke-linejoin="round"/>
  <path d="M 12651.59 1095.35 L 12654.51 1088.04 L 12650.49 1080.79 L 12640.11 1074.65 L 12624.98 1070.57 L 12607.48 1069.16 L 12590.13 1070.57 L 12575.44 1074.65 L 12565.73 1080.79 L 12562.50 1088.04 L 12566.21 1095.35 L 12576.47 1101.62 L 12591.74 1105.83 L 12609.55 1107.29 L 12627.21 1105.83 L 12642.02 1101.62 L 12651.59 1095.35 L 12642.02 1101.62" stroke="black" stroke-width="4" fill="none" stroke-linecap="round" stroke-linejoin="round"/>
  <path d="M 12562.50 1088.04 L 12562.27 1116.03 L 12565.97 1123.42 L 12576.19 1129.76 L 12591.40 1134.00 L 12609.15 1135.48 L 12626.73 1134.00 L 12641.49 1129.76 L 12651.03 1123.42 L 12653.94 1116.04 L 12654.51 1088.04" stroke="black" stroke-width="4" fill="none" stroke-linecap="round" stroke-linejoin="round"/>
  <path d="M 12650.49 1080.79 L 12640.11 1074.65" stroke="black" stroke-width="4" fill="none" stroke-linecap="round" stroke-linejoin="round"/>
  <path d="M 12624.98 1070.57 L 12607.48 1069.16" stroke="black" stroke-width="4" fill="none" stroke-linecap="round" stroke-linejoin="round"/>
  <path d="M 12590.13 1070.57 L 12575.44 1074.65" stroke="black" stroke-width="4" fill="none" stroke-linecap="round" stroke-linejoin="round"/>
  <path d="M 12565.73 1080.79 L 12562.50 1088.04 L 12566.21 1095.35" stroke="black" stroke-width="4" fill="none" stroke-linecap="round" stroke-linejoin="round"/>
  <path d="M 12576.47 1101.62 L 12591.74 1105.83" stroke="black" stroke-width="4" fill="none" stroke-linecap="round" stroke-linejoin="round"/>
  <path d="M 12609.55 1107.29 L 12627.21 1105.83" stroke="black" stroke-width="4" fill="none" stroke-linecap="round" stroke-linejoin="round"/>
  <path d="M 12541.74 1051.06 L 12544.99 1044.07 L 12541.45 1037.13 L 12531.62 1031.26 L 12517.04 1027.36 L 12500.00 1026.01 L 12482.96 1027.36 L 12468.38 1031.26 L 12458.55 1037.13 L 12455.01 1044.07 L 12458.26 1051.06 L 12467.96 1057.06 L 12482.66 1061.08 L 12500.00 1062.48 L 12517.34 1061.08 L 12532.04 1057.06 L 12541.74 1051.06 L 12532.04 1057.06" stroke="black" stroke-width="4" fill="none" stroke-linecap="round" stroke-linejoin="round"/>
  <path d="M 12455.01 1044.07 L 12455.17 1071.61 L 12458.41 1078.67 L 12468.07 1084.73 L 12482.72 1088.79 L 12500.00 1090.20 L 12517.28 1088.79 L 12531.93 1084.73 L 12541.59 1078.67 L 12544.83 1071.61 L 12544.99 1044.07" stroke="black" stroke-width="4" fill="none" stroke-linecap="round" stroke-linejoin="round"/>
  <path d="M 12510.31 1054.18 L 12500.00 1053.35" stroke="black" stroke-width="4" fill="none" stroke-linecap="round" stroke-linejoin="round"/>
  <path d="M 12541.45 1037.13 L 12531.62 1031.26" stroke="black" stroke-width="4" fill="none" stroke-linecap="round" stroke-linejoin="round"/>
  <path d="M 12517.04 1027.36 L 12500.00 1026.01" stroke="black" stroke-width="4" fill="none" stroke-linecap="round" stroke-linejoin="round"/>
  <path d="M 12482.96 1027.36 L 12468.38 1031.26" stroke="black" stroke-width="4" fill="none" stroke-linecap="round" stroke-linejoin="round"/>
  <path d="M 12458.55 1037.13 L 12455.01 1044.07 L 12458.26 1051.06" stroke="black" stroke-width="4" fill="none" stroke-linecap="round" stroke-linejoin="round"/>
  <path d="M 12467.96 1057.06 L 12482.66 1061.08" stroke="black" stroke-width="4" fill="none" stroke-linecap="round" stroke-linejoin="round"/>
  <path d="M 12500.00 1062.48 L 12517.34 1061.08" stroke="black" stroke-width="4" fill="none" stroke-linecap="round" stroke-linejoin="round"/>
  <path d="M 12436.66 1008.69 L 12440.20 1002.00 L 12437.10 995.36 L 12427.79 989.73 L 12413.73 986.00 L 12397.12 984.71 L 12380.37 986.00 L 12365.90 989.73 L 12355.98 995.36 L 12352.16 1002.00 L 12354.97 1008.69 L 12364.15 1014.43 L 12378.33 1018.28 L 12395.22 1019.62 L 12412.26 1018.28 L 12426.85 1014.43 L 12436.66 1008.69" stroke="black" stroke-width="4" fill="none" stroke-linecap="round" stroke-linejoin="round"/>
  <path d="M 12352.16 1002.00 L 12352.68 1029.09 L 12355.49 1035.85 L 12364.63 1041.65 L 12378.76 1045.54 L 12395.59 1046.89 L 12412.57 1045.54 L 12427.11 1041.65 L 12436.88 1035.85 L 12440.41 1029.09 L 12440.20 1002.00" stroke="black" stroke-width="4" fill="none" stroke-linecap="round" stroke-linejoin="round"/>
  <path d="M 12395.22 1019.62 L 12412.26 1018.28 L 12426.85 1014.43" stroke="black" stroke-width="4" fill="none" stroke-linecap="round" stroke-linejoin="round"/>
  <path d="M 12427.79 989.73 L 12413.73 986.00 L 12397.12 984.71" stroke="black" stroke-width="4" fill="none" stroke-linecap="round" stroke-linejoin="round"/>
  <path d="M 12365.90 989.73 L 12355.98 995.36 L 12352.16 1002.00 L 12354.97 1008.69 L 12364.15 1014.43" stroke="black" stroke-width="4" fill="none" stroke-linecap="round" stroke-linejoin="round"/>
  <path d="M 12658.78 1190.23 L 12661.81 1182.21 L 12657.57 1174.26 L 12646.68 1167.52 L 12630.83 1163.06 L 12612.50 1161.51 L 12594.35 1163.06 L 12578.98 1167.52 L 12568.82 1174.26 L 12565.45 1182.21 L 12569.35 1190.23 L 12580.11 1197.11 L 12596.11 1201.72 L 12614.78 1203.33 L 12633.27 1201.72 L 12648.77 1197.11 L 12658.78 1190.23" stroke="black" stroke-width="4" fill="none" stroke-linecap="round" stroke-linejoin="round"/>
  <path d="M 12565.45 1182.21 L 12565.20 1211.16 L 12569.08 1219.26 L 12579.80 1226.21 L 12595.74 1230.86 L 12614.33 1232.49 L 12632.75 1230.86 L 12648.20 1226.21 L 12658.17 1219.26 L 12661.19 1211.16 L 12661.81 1182.21" stroke="black" stroke-width="4" fill="none" stroke-linecap="round" stroke-linejoin="round"/>
  <path d="M 12614.78 1203.33 L 12633.27 1201.72 L 12648.77 1197.11" stroke="black" stroke-width="4" fill="none" stroke-linecap="round" stroke-linejoin="round"/>
  <path d="M 12646.68 1167.52 L 12630.83 1163.06 L 12612.50 1161.51" stroke="black" stroke-width="4" fill="none" stroke-linecap="round" stroke-linejoin="round"/>
  <path d="M 12578.98 1167.52 L 12568.82 1174.26 L 12565.45 1182.21 L 12569.35 1190.23 L 12580.11 1197.11" stroke="black" stroke-width="4" fill="none" stroke-linecap="round" stroke-linejoin="round"/>
  <path d="M 12543.68 1141.69 L 12547.07 1134.04 L 12543.35 1126.45 L 12533.07 1120.02 L 12517.82 1115.76 L 12500.00 1114.28 L 12482.18 1115.76 L 12466.93 1120.02 L 12456.65 1126.45 L 12452.93 1134.04 L 12456.32 1141.69 L 12466.47 1148.26 L 12481.85 1152.66 L 12500.00 1154.19 L 12518.15 1152.66 L 12533.54 1148.26 L 12543.68 1141.69 L 12533.54 1148.26" stroke="black" stroke-width="4" fill="none" stroke-linecap="round" stroke-linejoin="round"/>
  <path d="M 12452.93 1134.04 L 12453.11 1162.50 L 12456.49 1170.23 L 12466.59 1176.86 L 12481.92 1181.31 L 12500.00 1182.86 L 12518.08 1181.31 L 12533.41 1176.86 L 12543.51 1170.23 L 12546.89 1162.50 L 12547.07 1134.04" stroke="black" stroke-width="4" fill="none" stroke-linecap="round" stroke-linejoin="round"/>
  <path d="M 12509.03 1143.30 L 12500.00 1142.54" stroke="black" stroke-width="4" fill="none" stroke-linecap="round" stroke-linejoin="round"/>
  <path d="M 12543.35 1126.45 L 12533.07 1120.02" stroke="black" stroke-width="4" fill="none" stroke-linecap="round" stroke-linejoin="round"/>
  <path d="M 12517.82 1115.76 L 12500.00 1114.28" stroke="black" stroke-width="4" fill="none" stroke-linecap="round" stroke-linejoin="round"/>
  <path d="M 12482.18 1115.76 L 12466.93 1120.02" stroke="black" stroke-width="4" fill="none" stroke-linecap="round" stroke-linejoin="round"/>
  <path d="M 12456.65 1126.45 L 12452.93 1134.04 L 12456.32 1141.69" stroke="black" stroke-width="4" fill="none" stroke-linecap="round" stroke-linejoin="round"/>
  <path d="M 12466.47 1148.26 L 12481.85 1152.66" stroke="black" stroke-width="4" fill="none" stroke-linecap="round" stroke-linejoin="round"/>
  <path d="M 12500.00 1154.19 L 12518.15 1152.66" stroke="black" stroke-width="4" fill="none" stroke-linecap="round" stroke-linejoin="round"/>
  <path d="M 12433.79 1095.35 L 12437.50 1088.04 L 12434.27 1080.79 L 12424.56 1074.65 L 12409.87 1070.57 L 12392.52 1069.16 L 12375.02 1070.57 L 12359.89 1074.65 L 12349.51 1080.79 L 12345.49 1088.04 L 12348.41 1095.35 L 12357.98 1101.62 L 12372.79 1105.83 L 12390.45 1107.29 L 12408.26 1105.83 L 12423.53 1101.62 L 12433.79 1095.35 L 12423.53 1101.62" stroke="black" stroke-width="4" fill="none" stroke-linecap="round" stroke-linejoin="round"/>
  <path d="M 12345.49 1088.04 L 12346.06 1116.03 L 12348.97 1123.42 L 12358.51 1129.76 L 12373.26 1134.00 L 12390.85 1135.48 L 12408.60 1134.00 L 12423.81 1129.76 L 12434.03 1123.42 L 12437.73 1116.03 L 12437.50 1088.04" stroke="black" stroke-width="4" fill="none" stroke-linecap="round" stroke-linejoin="round"/>
  <path d="M 12434.27 1080.79 L 12424.56 1074.65" stroke="black" stroke-width="4" fill="none" stroke-linecap="round" stroke-linejoin="round"/>
  <path d="M 12409.87 1070.57 L 12392.52 1069.16" stroke="black" stroke-width="4" fill="none" stroke-linecap="round" stroke-linejoin="round"/>
  <path d="M 12375.02 1070.57 L 12359.89 1074.65" stroke="black" stroke-width="4" fill="none" stroke-linecap="round" stroke-linejoin="round"/>
  <path d="M 12349.51 1080.79 L 12345.49 1088.04 L 12348.41 1095.35" stroke="black" stroke-width="4" fill="none" stroke-linecap="round" stroke-linejoin="round"/>
  <path d="M 12357.98 1101.62 L 12372.79 1105.83" stroke="black" stroke-width="4" fill="none" stroke-linecap="round" stroke-linejoin="round"/>
  <path d="M 12390.45 1107.29 L 12408.26 1105.83" stroke="black" stroke-width="4" fill="none" stroke-linecap="round" stroke-linejoin="round"/>
  <path d="M 12328.76 1051.06 L 12332.77 1044.07 L 12329.98 1037.13 L 12320.80 1031.26 L 12306.64 1027.36 L 12289.74 1026.01 L 12272.56 1027.36 L 12257.55 1031.26 L 12247.09 1037.13 L 12242.79 1044.07 L 12245.27 1051.06 L 12254.32 1057.06 L 12268.59 1061.08 L 12285.78 1062.48 L 12303.27 1061.08 L 12318.41 1057.06 L 12328.76 1051.06" stroke="black" stroke-width="4" fill="none" stroke-linecap="round" stroke-linejoin="round"/>
  <path d="M 12242.79 1044.07 L 12243.71 1071.61 L 12246.19 1078.67 L 12255.21 1084.73 L 12269.43 1088.79 L 12286.55 1090.20 L 12303.98 1088.79 L 12319.07 1084.73 L 12329.38 1078.67 L 12333.37 1071.61 L 12332.77 1044.07" stroke="black" stroke-width="4" fill="none" stroke-linecap="round" stroke-linejoin="round"/>
  <path d="M 12285.78 1062.48 L 12303.27 1061.08 L 12318.41 1057.06" stroke="black" stroke-width="4" fill="none" stroke-linecap="round" stroke-linejoin="round"/>
  <path d="M 12320.80 1031.26 L 12306.64 1027.36 L 12289.74 1026.01" stroke="black" stroke-width="4" fill="none" stroke-linecap="round" stroke-linejoin="round"/>
  <path d="M 12257.55 1031.26 L 12247.09 1037.13 L 12242.79 1044.07 L 12245.27 1051.06 L 12254.32 1057.06" stroke="black" stroke-width="4" fill="none" stroke-linecap="round" stroke-linejoin="round"/>
  <path d="M 12182.81 1071.61 L 12615.92 1262.16 L 12831.77 1162.50 L 12768.97 1137.25" stroke="black" stroke-width="4" fill="none" stroke-linecap="round" stroke-linejoin="round"/>
  <path d="M 12713.23 1114.84 L 12654.45 1091.20" stroke="black" stroke-width="4" fill="none" stroke-linecap="round" stroke-linejoin="round"/>
  <path d="M 12600.96 1069.69 L 12544.97 1047.18" stroke="black" stroke-width="4" fill="none" stroke-linecap="round" stroke-linejoin="round"/>
  <path d="M 12493.60 1026.52 L 12440.22 1005.05" stroke="black" stroke-width="4" fill="none" stroke-linecap="round" stroke-linejoin="round"/>
  <path d="M 12352.24 1006.29 L 12299.13 1026.76" stroke="black" stroke-width="4" fill="none" stroke-linecap="round" stroke-linejoin="round"/>
  <path d="M 12242.93 1048.43 L 12182.81 1071.61 L 12189.50 1232.75 L 12613.25 1434.08 L 12610.69 1598.25 L 12195.91 1387.24 L 12189.50 1232.75 L 12613.25 1434.08 L 12824.46 1328.89 L 12817.47 1488.11 L 12610.69 1598.25 L 12817.47 1488.11 L 12610.69 1598.25 L 12195.91 1387.24 L 12610.69 1598.25 L 12608.25 1755.19 L 12202.06 1535.49 L 12195.91 1387.24 L 12610.69 1598.25 L 12817.47 1488.11 L 12810.77 1640.61 L 12608.25 1755.19 L 12810.77 1640.61 L 12608.25 1755.19 L 12202.06 1535.49 L 12608.25 1755.19 L 12605.92 1905.35 L 12207.96 1677.85 L 12202.06 1535.49 L 12608.25 1755.19 L 12810.77 1640.61 L 12804.35 1786.80 L 12605.92 1905.35 L 12804.35 1786.80 L 12605.92 1905.35 L 12207.96 1677.85 L 12605.92 1905.35 L 12603.68 2049.17 L 12213.64 1814.68 L 12207.96 1677.85 L 12605.92 1905.35 L 12804.35 1786.80 L 12798.19 1927.08 L 12603.68 2049.17" stroke="black" stroke-width="4" fill="none" stroke-linecap="round" stroke-linejoin="round"/>
  <path d="M 12615.92 1262.16 L 12613.25 1434.08 L 12189.50 1232.75 L 12613.25 1434.08 L 12824.46 1328.89 L 12613.25 1434.08 L 12824.46 1328.89 L 12831.77 1162.50" stroke="black" stroke-width="4" fill="none" stroke-linecap="round" stroke-linejoin="round"/>
  <path d="M 12674.29 1162.50 L 12678.49 1170.23 L 12689.31 1176.86 L 12705.11 1181.31 L 12723.36 1182.86 L 12741.27 1181.31 L 12756.12 1176.86 L 12765.52 1170.23 L 12768.07 1162.50" stroke="black" stroke-width="4" fill="none" stroke-linecap="round" stroke-linejoin="round"/>
  <path d="M 12757.10 1148.26 L 12742.19 1152.66 L 12724.21 1154.19 L 12705.89 1152.66 L 12690.03 1148.26 L 12679.17 1141.69 L 12674.95 1134.04 L 12677.83 1126.45 L 12687.41 1120.02 L 12702.20 1115.76 L 12719.86 1114.28 L 12737.85 1115.76 L 12753.56 1120.02 L 12764.54 1126.45 L 12769.08 1134.04 L 12766.53 1141.69 L 12757.10 1148.26" stroke="black" stroke-width="4" fill="none" stroke-linecap="round" stroke-linejoin="round"/>
  <path d="M 12562.27 1116.03 L 12565.97 1123.42 L 12576.19 1129.76 L 12591.40 1134.00 L 12609.15 1135.48 L 12626.73 1134.00 L 12641.49 1129.76 L 12651.03 1123.42 L 12653.94 1116.04" stroke="black" stroke-width="4" fill="none" stroke-linecap="round" stroke-linejoin="round"/>
  <path d="M 12642.02 1101.62 L 12627.21 1105.83 L 12609.55 1107.29 L 12591.74 1105.83 L 12576.47 1101.62 L 12566.21 1095.35 L 12562.50 1088.04 L 12565.73 1080.79 L 12575.44 1074.65 L 12590.13 1070.57 L 12607.48 1069.16 L 12624.98 1070.57 L 12640.11 1074.65 L 12650.49 1080.79 L 12654.51 1088.04 L 12651.59 1095.35 L 12642.02 1101.62" stroke="black" stroke-width="4" fill="none" stroke-linecap="round" stroke-linejoin="round"/>
  <path d="M 12482.72 1088.79 L 12500.00 1090.20 L 12517.28 1088.79 L 12531.93 1084.73 L 12541.59 1078.67 L 12544.83 1071.61" stroke="black" stroke-width="4" fill="none" stroke-linecap="round" stroke-linejoin="round"/>
  <path d="M 12510.31 1054.18 L 12500.00 1053.35" stroke="black" stroke-width="4" fill="none" stroke-linecap="round" stroke-linejoin="round"/>
  <path d="M 12455.17 1071.61 L 12458.41 1078.67 L 12468.07 1084.73 L 12477.16 1087.25" stroke="black" stroke-width="4" fill="none" stroke-linecap="round" stroke-linejoin="round"/>
  <path d="M 12532.04 1057.06 L 12517.34 1061.08 L 12500.00 1062.48 L 12482.66 1061.08 L 12467.96 1057.06 L 12458.26 1051.06 L 12455.01 1044.07 L 12458.55 1037.13 L 12468.38 1031.26 L 12482.96 1027.36 L 12500.00 1026.01 L 12517.04 1027.36 L 12531.62 1031.26 L 12541.45 1037.13 L 12544.99 1044.07 L 12541.74 1051.06 L 12532.04 1057.06" stroke="black" stroke-width="4" fill="none" stroke-linecap="round" stroke-linejoin="round"/>
  <path d="M 12436.88 1035.85 L 12440.41 1029.09" stroke="black" stroke-width="4" fill="none" stroke-linecap="round" stroke-linejoin="round"/>
  <path d="M 12352.68 1029.09 L 12355.49 1035.85 L 12364.63 1041.65 L 12378.76 1045.54 L 12395.59 1046.89 L 12412.57 1045.54 L 12427.11 1041.65" stroke="black" stroke-width="4" fill="none" stroke-linecap="round" stroke-linejoin="round"/>
  <path d="M 12426.85 1014.43 L 12412.26 1018.28 L 12395.22 1019.62 L 12378.33 1018.28 L 12364.15 1014.43 L 12354.97 1008.69 L 12352.16 1002.00 L 12355.98 995.36 L 12365.90 989.73 L 12380.37 986.00 L 12397.12 984.71 L 12413.73 986.00 L 12427.79 989.73 L 12437.10 995.36 L 12440.20 1002.00 L 12436.66 1008.69 L 12426.85 1014.43" stroke="black" stroke-width="4" fill="none" stroke-linecap="round" stroke-linejoin="round"/>
  <path d="M 12595.74 1230.86 L 12614.33 1232.49 L 12632.75 1230.86 L 12648.20 1226.21 L 12658.17 1219.26 L 12661.19 1211.16" stroke="black" stroke-width="4" fill="none" stroke-linecap="round" stroke-linejoin="round"/>
  <path d="M 12565.20 1211.16 L 12569.08 1219.26 L 12579.80 1226.21" stroke="black" stroke-width="4" fill="none" stroke-linecap="round" stroke-linejoin="round"/>
  <path d="M 12648.77 1197.11 L 12633.27 1201.72 L 12614.78 1203.33 L 12596.11 1201.72 L 12580.11 1197.11 L 12569.35 1190.23 L 12565.45 1182.21 L 12568.82 1174.26 L 12578.98 1167.52 L 12594.35 1163.06 L 12612.50 1161.51 L 12630.83 1163.06 L 12646.68 1167.52 L 12657.57 1174.26 L 12661.81 1182.21 L 12658.78 1190.23 L 12648.77 1197.11" stroke="black" stroke-width="4" fill="none" stroke-linecap="round" stroke-linejoin="round"/>
  <path d="M 12546.89 1162.50 L 12543.51 1170.23 L 12543.17 1170.46 L 12533.41 1176.86 L 12518.08 1181.31 L 12500.00 1182.86 L 12481.92 1181.31 L 12466.59 1176.86 L 12456.49 1170.23 L 12453.11 1162.50" stroke="black" stroke-width="4" fill="none" stroke-linecap="round" stroke-linejoin="round"/>
  <path d="M 12500.00 1142.54 L 12509.03 1143.30" stroke="black" stroke-width="4" fill="none" stroke-linecap="round" stroke-linejoin="round"/>
  <path d="M 12533.54 1148.26 L 12518.15 1152.66 L 12500.00 1154.19 L 12481.85 1152.66 L 12466.47 1148.26 L 12456.32 1141.69 L 12452.93 1134.04 L 12456.65 1126.45 L 12466.93 1120.02 L 12482.18 1115.76 L 12500.00 1114.28 L 12517.82 1115.76 L 12533.07 1120.02 L 12543.35 1126.45 L 12547.07 1134.04 L 12543.68 1141.69 L 12533.54 1148.26" stroke="black" stroke-width="4" fill="none" stroke-linecap="round" stroke-linejoin="round"/>
  <path d="M 12346.06 1116.03 L 12348.97 1123.42 L 12358.51 1129.76 L 12373.26 1134.00 L 12390.85 1135.48 L 12408.60 1134.00 L 12423.81 1129.76 L 12434.03 1123.42 L 12437.73 1116.03" stroke="black" stroke-width="4" fill="none" stroke-linecap="round" stroke-linejoin="round"/>
  <path d="M 12423.53 1101.62 L 12408.26 1105.83 L 12390.45 1107.29 L 12372.79 1105.83 L 12357.98 1101.62 L 12348.41 1095.35 L 12345.49 1088.04 L 12349.51 1080.79 L 12359.89 1074.65 L 12375.02 1070.57 L 12392.52 1069.16 L 12409.87 1070.57 L 12424.56 1074.65 L 12434.27 1080.79 L 12437.50 1088.04 L 12433.79 1095.35 L 12423.53 1101.62" stroke="black" stroke-width="4" fill="none" stroke-linecap="round" stroke-linejoin="round"/>
  <path d="M 12243.71 1071.61 L 12246.19 1078.67 L 12255.21 1084.73 L 12269.43 1088.79 L 12286.55 1090.20 L 12303.98 1088.79 L 12319.07 1084.73 L 12329.38 1078.67 L 12333.37 1071.61" stroke="black" stroke-width="4" fill="none" stroke-linecap="round" stroke-linejoin="round"/>
  <path d="M 12318.41 1057.06 L 12303.27 1061.08 L 12285.78 1062.48 L 12268.59 1061.08 L 12254.32 1057.06 L 12245.27 1051.06 L 12242.79 1044.07 L 12247.09 1037.13 L 12257.55 1031.26 L 12272.56 1027.36 L 12289.74 1026.01 L 12306.64 1027.36 L 12320.80 1031.26 L 12329.98 1037.13 L 12332.77 1044.07 L 12328.76 1051.06 L 12318.41 1057.06" stroke="black" stroke-width="4" fill="none" stroke-linecap="round" stroke-linejoin="round"/>
</svg>
