<?xml version="1.0" ?>
<svg xmlns="http://www.w3.org/2000/svg" version="1.1" width="720.12px" height="3000px" viewBox="12147.95 0 720.12 3000">
  <polygon points="12441.52,1682.55 12441.71,1705.44 12444.96,1697.03 12444.78,1674.19" fill="#60afff" stroke="#60afff" stroke-width="0.5" stroke-linecap="round" stroke-linejoin="round"/>
  <polygon points="12363.48,1674.19 12363.92,1697.03 12366.55,1705.44 12366.11,1682.55" fill="#60afff" stroke="#60afff" stroke-width="0.5" stroke-linecap="round" stroke-linejoin="round"/>
  <polygon points="12374.62,1689.71 12387.72,1694.50 12403.31,1696.17 12419.03,1694.50 12432.49,1689.71 12441.52,1682.55 12444.78,1674.19 12441.90,1665.89 12433.29,1658.86 12420.28,1654.20 12404.93,1652.58 12389.46,1654.20 12376.11,1658.86 12366.98,1665.89 12363.48,1674.19 12366.11,1682.55" fill="#60afff" stroke="#60afff" stroke-width="0.5" stroke-linecap="round" stroke-linejoin="round"/>
  <polygon points="12432.49,1689.71 12432.71,1712.64 12441.71,1705.44 12441.52,1682.55" fill="#60afff" stroke="#60afff" stroke-width="0.5" stroke-linecap="round" stroke-linejoin="round"/>
  <polygon points="12366.11,1682.55 12366.55,1705.44 12375.03,1712.64 12374.62,1689.71" fill="#60afff" stroke="#60afff" stroke-width="0.5" stroke-linecap="round" stroke-linejoin="round"/>
  <polygon points="12419.03,1694.50 12419.29,1717.46 12432.71,1712.64 12432.49,1689.71" fill="#60afff" stroke="#60afff" stroke-width="0.5" stroke-linecap="round" stroke-linejoin="round"/>
  <polygon points="12374.62,1689.71 12375.03,1712.64 12388.09,1717.46 12387.72,1694.50" fill="#60afff" stroke="#60afff" stroke-width="0.5" stroke-linecap="round" stroke-linejoin="round"/>
  <polygon points="12403.31,1696.17 12403.63,1719.14 12419.29,1717.46 12419.03,1694.50" fill="#60afff" stroke="#60afff" stroke-width="0.5" stroke-linecap="round" stroke-linejoin="round"/>
  <polygon points="12387.72,1694.50 12388.09,1717.46 12403.63,1719.14 12403.31,1696.17" fill="#60afff" stroke="#60afff" stroke-width="0.5" stroke-linecap="round" stroke-linejoin="round"/>
  <polygon points="12408.05,1778.74 12213.20,1885.42 12603.85,2126.40 12798.67,2000.92" fill="#ff9ecc" stroke="#ff9ecc" stroke-width="0.5" stroke-linecap="round" stroke-linejoin="round"/>
  <polygon points="12262.88,1726.64 12263.66,1749.78 12266.02,1758.52 12265.24,1735.34" fill="#60afff" stroke="#60afff" stroke-width="0.5" stroke-linecap="round" stroke-linejoin="round"/>
  <polygon points="12538.47,1735.34 12538.35,1758.52 12541.34,1749.78 12541.48,1726.64" fill="#60afff" stroke="#60afff" stroke-width="0.5" stroke-linecap="round" stroke-linejoin="round"/>
  <polygon points="12458.52,1726.64 12458.66,1749.78 12461.65,1758.52 12461.53,1735.34" fill="#60afff" stroke="#60afff" stroke-width="0.5" stroke-linecap="round" stroke-linejoin="round"/>
  <polygon points="12342.18,1735.34 12342.71,1758.52 12346.34,1749.78 12345.83,1726.64" fill="#60afff" stroke="#60afff" stroke-width="0.5" stroke-linecap="round" stroke-linejoin="round"/>
  <polygon points="12342.18,1735.34 12345.83,1726.64 12343.22,1718.00 12334.71,1710.69 12321.63,1705.83 12306.03,1704.15 12290.18,1705.83 12276.37,1710.69 12266.78,1718.00 12262.88,1726.64 12265.24,1735.34 12273.63,1742.80 12286.81,1747.79 12302.65,1749.53 12318.76,1747.79 12332.68,1742.80" fill="#60afff" stroke="#60afff" stroke-width="0.5" stroke-linecap="round" stroke-linejoin="round"/>
  <polygon points="12538.47,1735.34 12541.48,1726.64 12538.22,1718.00 12529.17,1710.69 12515.72,1705.83 12500.00,1704.15 12484.28,1705.83 12470.83,1710.69 12461.78,1718.00 12458.52,1726.64 12461.53,1735.34 12470.47,1742.80 12484.03,1747.79 12500.00,1749.53 12515.97,1747.79 12529.53,1742.80" fill="#60afff" stroke="#60afff" stroke-width="0.5" stroke-linecap="round" stroke-linejoin="round"/>
  <polygon points="12461.53,1735.34 12461.65,1758.52 12470.57,1766.02 12470.47,1742.80" fill="#60afff" stroke="#60afff" stroke-width="0.5" stroke-linecap="round" stroke-linejoin="round"/>
  <polygon points="12265.24,1735.34 12266.02,1758.52 12274.38,1766.02 12273.63,1742.80" fill="#60afff" stroke="#60afff" stroke-width="0.5" stroke-linecap="round" stroke-linejoin="round"/>
  <polygon points="12332.68,1742.80 12333.24,1766.02 12342.71,1758.52 12342.18,1735.34" fill="#60afff" stroke="#60afff" stroke-width="0.5" stroke-linecap="round" stroke-linejoin="round"/>
  <polygon points="12529.53,1742.80 12529.43,1766.02 12538.35,1758.52 12538.47,1735.34" fill="#60afff" stroke="#60afff" stroke-width="0.5" stroke-linecap="round" stroke-linejoin="round"/>
  <polygon points="12273.63,1742.80 12274.38,1766.02 12287.52,1771.04 12286.81,1747.79" fill="#60afff" stroke="#60afff" stroke-width="0.5" stroke-linecap="round" stroke-linejoin="round"/>
  <polygon points="12470.47,1742.80 12470.57,1766.02 12484.08,1771.04 12484.03,1747.79" fill="#60afff" stroke="#60afff" stroke-width="0.5" stroke-linecap="round" stroke-linejoin="round"/>
  <polygon points="12515.97,1747.79 12515.92,1771.04 12529.43,1766.02 12529.53,1742.80" fill="#60afff" stroke="#60afff" stroke-width="0.5" stroke-linecap="round" stroke-linejoin="round"/>
  <polygon points="12318.76,1747.79 12319.36,1771.04 12333.24,1766.02 12332.68,1742.80" fill="#60afff" stroke="#60afff" stroke-width="0.5" stroke-linecap="round" stroke-linejoin="round"/>
  <polygon points="12286.81,1747.79 12287.52,1771.04 12303.31,1772.79 12302.65,1749.53" fill="#60afff" stroke="#60afff" stroke-width="0.5" stroke-linecap="round" stroke-linejoin="round"/>
  <polygon points="12500.00,1749.53 12500.00,1772.79 12515.92,1771.04 12515.97,1747.79" fill="#60afff" stroke="#60afff" stroke-width="0.5" stroke-linecap="round" stroke-linejoin="round"/>
  <polygon points="12302.65,1749.53 12303.31,1772.79 12319.36,1771.04 12318.76,1747.79" fill="#60afff" stroke="#60afff" stroke-width="0.5" stroke-linecap="round" stroke-linejoin="round"/>
  <polygon points="12484.03,1747.79 12484.08,1771.04 12500.00,1772.79 12500.00,1749.53" fill="#60afff" stroke="#60afff" stroke-width="0.5" stroke-linecap="round" stroke-linejoin="round"/>
  <polygon points="12601.70,2262.90 12603.85,2126.40 12213.20,1885.42 12218.68,2015.88" fill="#ff9ecc" stroke="#ff9ecc" stroke-width="0.5" stroke-linecap="round" stroke-linejoin="round"/>
  <polygon points="12406.30,1646.35 12207.51,1749.78 12606.10,1984.01 12804.85,1861.94" fill="#60afff" stroke="#60afff" stroke-width="0.5" stroke-linecap="round" stroke-linejoin="round"/>
  <polygon points="12439.09,1790.34 12439.29,1813.81 12442.68,1804.70 12442.49,1781.27" fill="#60afff" stroke="#60afff" stroke-width="0.5" stroke-linecap="round" stroke-linejoin="round"/>
  <polygon points="12557.51,1781.27 12557.32,1804.70 12560.71,1813.81 12560.91,1790.34" fill="#60afff" stroke="#60afff" stroke-width="0.5" stroke-linecap="round" stroke-linejoin="round"/>
  <polygon points="12639.46,1790.34 12638.99,1813.81 12641.71,1804.70 12642.19,1781.27" fill="#60afff" stroke="#60afff" stroke-width="0.5" stroke-linecap="round" stroke-linejoin="round"/>
  <polygon points="12357.81,1781.27 12358.29,1804.70 12361.01,1813.81 12360.54,1790.34" fill="#60afff" stroke="#60afff" stroke-width="0.5" stroke-linecap="round" stroke-linejoin="round"/>
  <polygon points="12361.47,1772.27 12357.81,1781.27 12360.54,1790.34 12369.38,1798.11 12383.02,1803.31 12399.26,1805.13 12415.64,1803.31 12429.67,1798.11 12439.09,1790.34 12442.49,1781.27 12439.49,1772.27 12430.54,1764.65 12417.00,1759.59 12401.02,1757.84 12384.91,1759.59 12371.00,1764.65" fill="#60afff" stroke="#60afff" stroke-width="0.5" stroke-linecap="round" stroke-linejoin="round"/>
  <polygon points="12569.46,1764.65 12560.51,1772.27 12557.51,1781.27 12560.91,1790.34 12570.33,1798.11 12584.36,1803.31 12600.74,1805.13 12616.98,1803.31 12630.62,1798.11 12639.46,1790.34 12642.19,1781.27 12638.53,1772.27 12629.00,1764.65 12615.09,1759.59 12598.98,1757.84 12583.00,1759.59" fill="#60afff" stroke="#60afff" stroke-width="0.5" stroke-linecap="round" stroke-linejoin="round"/>
  <polygon points="12429.67,1798.11 12429.90,1821.62 12439.29,1813.81 12439.09,1790.34" fill="#60afff" stroke="#60afff" stroke-width="0.5" stroke-linecap="round" stroke-linejoin="round"/>
  <polygon points="12360.54,1790.34 12361.01,1813.81 12369.82,1821.62 12369.38,1798.11" fill="#60afff" stroke="#60afff" stroke-width="0.5" stroke-linecap="round" stroke-linejoin="round"/>
  <polygon points="12630.62,1798.11 12630.18,1821.62 12638.99,1813.81 12639.46,1790.34" fill="#60afff" stroke="#60afff" stroke-width="0.5" stroke-linecap="round" stroke-linejoin="round"/>
  <polygon points="12560.91,1790.34 12560.71,1813.81 12570.10,1821.62 12570.33,1798.11" fill="#60afff" stroke="#60afff" stroke-width="0.5" stroke-linecap="round" stroke-linejoin="round"/>
  <polygon points="12415.64,1803.31 12415.93,1826.86 12429.90,1821.62 12429.67,1798.11" fill="#60afff" stroke="#60afff" stroke-width="0.5" stroke-linecap="round" stroke-linejoin="round"/>
  <polygon points="12570.33,1798.11 12570.10,1821.62 12584.08,1826.86 12584.36,1803.31" fill="#60afff" stroke="#60afff" stroke-width="0.5" stroke-linecap="round" stroke-linejoin="round"/>
  <polygon points="12616.98,1803.31 12616.58,1826.86 12630.18,1821.62 12630.62,1798.11" fill="#60afff" stroke="#60afff" stroke-width="0.5" stroke-linecap="round" stroke-linejoin="round"/>
  <polygon points="12369.38,1798.11 12369.82,1821.62 12383.42,1826.86 12383.02,1803.31" fill="#60afff" stroke="#60afff" stroke-width="0.5" stroke-linecap="round" stroke-linejoin="round"/>
  <polygon points="12584.36,1803.31 12584.08,1826.86 12600.40,1828.68 12600.74,1805.13" fill="#60afff" stroke="#60afff" stroke-width="0.5" stroke-linecap="round" stroke-linejoin="round"/>
  <polygon points="12383.02,1803.31 12383.42,1826.86 12399.60,1828.68 12399.26,1805.13" fill="#60afff" stroke="#60afff" stroke-width="0.5" stroke-linecap="round" stroke-linejoin="round"/>
  <polygon points="12600.74,1805.13 12600.40,1828.68 12616.58,1826.86 12616.98,1803.31" fill="#60afff" stroke="#60afff" stroke-width="0.5" stroke-linecap="round" stroke-linejoin="round"/>
  <polygon points="12399.26,1805.13 12399.60,1828.68 12415.93,1826.86 12415.64,1803.31" fill="#60afff" stroke="#60afff" stroke-width="0.5" stroke-linecap="round" stroke-linejoin="round"/>
  <polygon points="12603.85,2126.40 12606.10,1984.01 12207.51,1749.78 12213.20,1885.42" fill="#60afff" stroke="#60afff" stroke-width="0.5" stroke-linecap="round" stroke-linejoin="round"/>
  <polygon points="12798.67,2000.92 12603.85,2126.40 12601.70,2262.90 12792.73,2134.38" fill="#ff9ecc" stroke="#ff9ecc" stroke-width="0.5" stroke-linecap="round" stroke-linejoin="round"/>
  <polygon points="12744.75,1847.67 12743.90,1871.45 12746.32,1861.94 12747.17,1838.22" fill="#60afff" stroke="#60afff" stroke-width="0.5" stroke-linecap="round" stroke-linejoin="round"/>
  <polygon points="12456.77,1838.22 12456.91,1861.94 12460.03,1871.45 12459.89,1847.67" fill="#60afff" stroke="#60afff" stroke-width="0.5" stroke-linecap="round" stroke-linejoin="round"/>
  <polygon points="12660.70,1838.22 12660.15,1861.94 12663.96,1871.45 12664.53,1847.67" fill="#60afff" stroke="#60afff" stroke-width="0.5" stroke-linecap="round" stroke-linejoin="round"/>
  <polygon points="12540.11,1847.67 12539.97,1871.45 12543.09,1861.94 12543.23,1838.22" fill="#60afff" stroke="#60afff" stroke-width="0.5" stroke-linecap="round" stroke-linejoin="round"/>
  <polygon points="12722.30,1861.21 12736.03,1855.78 12744.75,1847.67 12747.17,1838.22 12743.07,1828.83 12733.05,1820.88 12718.64,1815.61 12702.12,1813.78 12685.87,1815.61 12672.25,1820.88 12663.40,1828.83 12660.70,1838.22 12664.53,1847.67 12674.46,1855.78 12688.99,1861.21 12705.79,1863.10" fill="#60afff" stroke="#60afff" stroke-width="0.5" stroke-linecap="round" stroke-linejoin="round"/>
  <polygon points="12456.77,1838.22 12459.89,1847.67 12469.21,1855.78 12483.34,1861.21 12500.00,1863.10 12516.66,1861.21 12530.79,1855.78 12540.11,1847.67 12543.23,1838.22 12539.84,1828.83 12530.40,1820.88 12516.38,1815.61 12500.00,1813.78 12483.62,1815.61 12469.60,1820.88 12460.17,1828.83" fill="#60afff" stroke="#60afff" stroke-width="0.5" stroke-linecap="round" stroke-linejoin="round"/>
  <polygon points="12736.03,1855.78 12735.21,1879.59 12743.90,1871.45 12744.75,1847.67" fill="#60afff" stroke="#60afff" stroke-width="0.5" stroke-linecap="round" stroke-linejoin="round"/>
  <polygon points="12664.53,1847.67 12663.96,1871.45 12673.85,1879.59 12674.46,1855.78" fill="#60afff" stroke="#60afff" stroke-width="0.5" stroke-linecap="round" stroke-linejoin="round"/>
  <polygon points="12530.79,1855.78 12530.68,1879.59 12539.97,1871.45 12540.11,1847.67" fill="#60afff" stroke="#60afff" stroke-width="0.5" stroke-linecap="round" stroke-linejoin="round"/>
  <polygon points="12459.89,1847.67 12460.03,1871.45 12469.32,1879.59 12469.21,1855.78" fill="#60afff" stroke="#60afff" stroke-width="0.5" stroke-linecap="round" stroke-linejoin="round"/>
  <polygon points="12674.46,1855.78 12673.85,1879.59 12688.33,1885.05 12688.99,1861.21" fill="#60afff" stroke="#60afff" stroke-width="0.5" stroke-linecap="round" stroke-linejoin="round"/>
  <polygon points="12516.66,1861.21 12516.60,1885.05 12530.68,1879.59 12530.79,1855.78" fill="#60afff" stroke="#60afff" stroke-width="0.5" stroke-linecap="round" stroke-linejoin="round"/>
  <polygon points="12722.30,1861.21 12721.53,1885.05 12735.21,1879.59 12736.03,1855.78" fill="#60afff" stroke="#60afff" stroke-width="0.5" stroke-linecap="round" stroke-linejoin="round"/>
  <polygon points="12469.21,1855.78 12469.32,1879.59 12483.40,1885.05 12483.34,1861.21" fill="#60afff" stroke="#60afff" stroke-width="0.5" stroke-linecap="round" stroke-linejoin="round"/>
  <polygon points="12688.99,1861.21 12688.33,1885.05 12705.07,1886.95 12705.79,1863.10" fill="#60afff" stroke="#60afff" stroke-width="0.5" stroke-linecap="round" stroke-linejoin="round"/>
  <polygon points="12705.79,1863.10 12705.07,1886.95 12721.53,1885.05 12722.30,1861.21" fill="#60afff" stroke="#60afff" stroke-width="0.5" stroke-linecap="round" stroke-linejoin="round"/>
  <polygon points="12500.00,1863.10 12500.00,1886.95 12516.60,1885.05 12516.66,1861.21" fill="#60afff" stroke="#60afff" stroke-width="0.5" stroke-linecap="round" stroke-linejoin="round"/>
  <polygon points="12483.34,1861.21 12483.40,1885.05 12500.00,1886.95 12500.00,1863.10" fill="#60afff" stroke="#60afff" stroke-width="0.5" stroke-linecap="round" stroke-linejoin="round"/>
  <polygon points="12804.85,1861.94 12606.10,1984.01 12603.85,2126.40 12798.67,2000.92" fill="#60afff" stroke="#60afff" stroke-width="0.5" stroke-linecap="round" stroke-linejoin="round"/>
  <polygon points="12645.52,1907.50 12645.01,1931.57 12647.82,1921.66 12648.35,1897.63" fill="#60afff" stroke="#60afff" stroke-width="0.5" stroke-linecap="round" stroke-linejoin="round"/>
  <polygon points="12560.01,1897.63 12559.79,1921.66 12563.34,1931.57 12563.56,1907.50" fill="#60afff" stroke="#60afff" stroke-width="0.5" stroke-linecap="round" stroke-linejoin="round"/>
  <polygon points="12620.03,1874.04 12603.23,1872.13 12586.57,1874.04 12572.45,1879.54 12563.12,1887.83 12560.01,1897.63 12563.56,1907.50 12573.40,1915.96 12588.05,1921.63 12605.14,1923.61 12622.09,1921.63 12636.31,1915.96 12645.52,1907.50 12648.35,1897.63 12644.51,1887.83 12634.55,1879.54" fill="#60afff" stroke="#60afff" stroke-width="0.5" stroke-linecap="round" stroke-linejoin="round"/>
  <polygon points="12636.31,1915.96 12635.83,1940.08 12645.01,1931.57 12645.52,1907.50" fill="#60afff" stroke="#60afff" stroke-width="0.5" stroke-linecap="round" stroke-linejoin="round"/>
  <polygon points="12563.56,1907.50 12563.34,1931.57 12573.14,1940.08 12573.40,1915.96" fill="#60afff" stroke="#60afff" stroke-width="0.5" stroke-linecap="round" stroke-linejoin="round"/>
  <polygon points="12622.09,1921.63 12621.65,1945.77 12635.83,1940.08 12636.31,1915.96" fill="#60afff" stroke="#60afff" stroke-width="0.5" stroke-linecap="round" stroke-linejoin="round"/>
  <polygon points="12573.40,1915.96 12573.14,1940.08 12587.73,1945.77 12588.05,1921.63" fill="#60afff" stroke="#60afff" stroke-width="0.5" stroke-linecap="round" stroke-linejoin="round"/>
  <polygon points="12605.14,1923.61 12604.77,1947.76 12621.65,1945.77 12622.09,1921.63" fill="#60afff" stroke="#60afff" stroke-width="0.5" stroke-linecap="round" stroke-linejoin="round"/>
  <polygon points="12588.05,1921.63 12587.73,1945.77 12604.77,1947.76 12605.14,1923.61" fill="#60afff" stroke="#60afff" stroke-width="0.5" stroke-linecap="round" stroke-linejoin="round"/>
  <polygon points="12398.56,1062.08 12182.27,1148.71 12616.14,1347.06 12832.36,1243.32" fill="#afbfd6" stroke="#afbfd6" stroke-width="0.5" stroke-linecap="round" stroke-linejoin="round"/>
  <polygon points="12345.36,739.71 12345.93,769.00 12348.84,775.13 12348.28,745.75" fill="#f4a8ba" stroke="#f4a8ba" stroke-width="0.5" stroke-linecap="round" stroke-linejoin="round"/>
  <polygon points="12433.73,745.75 12433.98,775.13 12437.68,769.00 12437.45,739.71" fill="#f4a8ba" stroke="#f4a8ba" stroke-width="0.5" stroke-linecap="round" stroke-linejoin="round"/>
  <polygon points="12374.92,725.28 12359.78,728.64 12349.39,733.71 12345.36,739.71 12348.28,745.75 12357.87,750.93 12372.69,754.40 12390.36,755.61 12408.19,754.40 12423.47,750.93 12433.73,745.75 12437.45,739.71 12434.22,733.71 12424.50,728.64 12409.80,725.28 12392.44,724.11" fill="#f4a8ba" stroke="#f4a8ba" stroke-width="0.5" stroke-linecap="round" stroke-linejoin="round"/>
  <polygon points="12423.47,750.93 12423.75,780.38 12433.98,775.13 12433.73,745.75" fill="#f4a8ba" stroke="#f4a8ba" stroke-width="0.5" stroke-linecap="round" stroke-linejoin="round"/>
  <polygon points="12348.28,745.75 12348.84,775.13 12358.39,780.38 12357.87,750.93" fill="#f4a8ba" stroke="#f4a8ba" stroke-width="0.5" stroke-linecap="round" stroke-linejoin="round"/>
  <polygon points="12357.87,750.93 12358.39,780.38 12373.16,783.90 12372.69,754.40" fill="#f4a8ba" stroke="#f4a8ba" stroke-width="0.5" stroke-linecap="round" stroke-linejoin="round"/>
  <polygon points="12408.19,754.40 12408.53,783.90 12423.75,780.38 12423.47,750.93" fill="#f4a8ba" stroke="#f4a8ba" stroke-width="0.5" stroke-linecap="round" stroke-linejoin="round"/>
  <polygon points="12372.69,754.40 12373.16,783.90 12390.76,785.12 12390.36,755.61" fill="#f4a8ba" stroke="#f4a8ba" stroke-width="0.5" stroke-linecap="round" stroke-linejoin="round"/>
  <polygon points="12390.36,755.61 12390.76,785.12 12408.53,783.90 12408.19,754.40" fill="#f4a8ba" stroke="#f4a8ba" stroke-width="0.5" stroke-linecap="round" stroke-linejoin="round"/>
  <polygon points="12613.45,1517.33 12616.14,1347.06 12182.27,1148.71 12188.98,1308.49" fill="#afbfd6" stroke="#afbfd6" stroke-width="0.5" stroke-linecap="round" stroke-linejoin="round"/>
  <polygon points="12396.42,900.61 12175.27,981.88 12618.95,1168.54 12840.03,1070.81" fill="#a5c916" stroke="#a5c916" stroke-width="0.5" stroke-linecap="round" stroke-linejoin="round"/>
  <polygon points="12320.68,784.02 12321.35,813.94 12325.56,807.53 12324.90,777.70" fill="#f4a8ba" stroke="#f4a8ba" stroke-width="0.5" stroke-linecap="round" stroke-linejoin="round"/>
  <polygon points="12543.72,784.02 12543.55,813.94 12546.93,807.53 12547.11,777.70" fill="#f4a8ba" stroke="#f4a8ba" stroke-width="0.5" stroke-linecap="round" stroke-linejoin="round"/>
  <polygon points="12452.89,777.70 12453.07,807.53 12456.45,813.94 12456.29,784.02" fill="#f4a8ba" stroke="#f4a8ba" stroke-width="0.5" stroke-linecap="round" stroke-linejoin="round"/>
  <polygon points="12230.69,777.70 12231.70,807.53 12234.25,813.94 12233.25,784.02" fill="#f4a8ba" stroke="#f4a8ba" stroke-width="0.5" stroke-linecap="round" stroke-linejoin="round"/>
  <polygon points="12500.00,794.35 12518.16,793.08 12533.56,789.45 12543.72,784.02 12547.11,777.70 12543.39,771.43 12533.10,766.12 12517.84,762.60 12500.00,761.38 12482.16,762.60 12466.90,766.12 12456.61,771.43 12452.89,777.70 12456.29,784.02 12466.44,789.45 12481.84,793.08" fill="#f4a8ba" stroke="#f4a8ba" stroke-width="0.5" stroke-linecap="round" stroke-linejoin="round"/>
  <polygon points="12230.69,777.70 12233.25,784.02 12242.68,789.45 12257.61,793.08 12275.60,794.35 12293.93,793.08 12309.81,789.45 12320.68,784.02 12324.90,777.70 12322.02,771.43 12312.43,766.12 12297.63,762.60 12279.95,761.38 12261.95,762.60 12246.23,766.12 12235.24,771.43" fill="#f4a8ba" stroke="#f4a8ba" stroke-width="0.5" stroke-linecap="round" stroke-linejoin="round"/>
  <polygon points="12233.25,784.02 12234.25,813.94 12243.66,819.43 12242.68,789.45" fill="#f4a8ba" stroke="#f4a8ba" stroke-width="0.5" stroke-linecap="round" stroke-linejoin="round"/>
  <polygon points="12456.29,784.02 12456.45,813.94 12466.56,819.43 12466.44,789.45" fill="#f4a8ba" stroke="#f4a8ba" stroke-width="0.5" stroke-linecap="round" stroke-linejoin="round"/>
  <polygon points="12309.81,789.45 12310.53,819.43 12321.35,813.94 12320.68,784.02" fill="#f4a8ba" stroke="#f4a8ba" stroke-width="0.5" stroke-linecap="round" stroke-linejoin="round"/>
  <polygon points="12533.56,789.45 12533.44,819.43 12543.55,813.94 12543.72,784.02" fill="#f4a8ba" stroke="#f4a8ba" stroke-width="0.5" stroke-linecap="round" stroke-linejoin="round"/>
  <polygon points="12466.44,789.45 12466.56,819.43 12481.91,823.12 12481.84,793.08" fill="#f4a8ba" stroke="#f4a8ba" stroke-width="0.5" stroke-linecap="round" stroke-linejoin="round"/>
  <polygon points="12242.68,789.45 12243.66,819.43 12258.52,823.12 12257.61,793.08" fill="#f4a8ba" stroke="#f4a8ba" stroke-width="0.5" stroke-linecap="round" stroke-linejoin="round"/>
  <polygon points="12518.16,793.08 12518.09,823.12 12533.44,819.43 12533.56,789.45" fill="#f4a8ba" stroke="#f4a8ba" stroke-width="0.5" stroke-linecap="round" stroke-linejoin="round"/>
  <polygon points="12293.93,793.08 12294.71,823.12 12310.53,819.43 12309.81,789.45" fill="#f4a8ba" stroke="#f4a8ba" stroke-width="0.5" stroke-linecap="round" stroke-linejoin="round"/>
  <polygon points="12257.61,793.08 12258.52,823.12 12276.45,824.40 12275.60,794.35" fill="#f4a8ba" stroke="#f4a8ba" stroke-width="0.5" stroke-linecap="round" stroke-linejoin="round"/>
  <polygon points="12275.60,794.35 12276.45,824.40 12294.71,823.12 12293.93,793.08" fill="#f4a8ba" stroke="#f4a8ba" stroke-width="0.5" stroke-linecap="round" stroke-linejoin="round"/>
  <polygon points="12500.00,794.35 12500.00,824.40 12518.09,823.12 12518.16,793.08" fill="#f4a8ba" stroke="#f4a8ba" stroke-width="0.5" stroke-linecap="round" stroke-linejoin="round"/>
  <polygon points="12481.84,793.08 12481.91,823.12 12500.00,824.40 12500.00,794.35" fill="#f4a8ba" stroke="#f4a8ba" stroke-width="0.5" stroke-linecap="round" stroke-linejoin="round"/>
  <polygon points="12616.14,1347.06 12618.95,1168.54 12175.27,981.88 12182.27,1148.71" fill="#a5c916" stroke="#a5c916" stroke-width="0.5" stroke-linecap="round" stroke-linejoin="round"/>
  <polygon points="12832.36,1243.32 12616.14,1347.06 12613.45,1517.33 12825.03,1408.21" fill="#afbfd6" stroke="#afbfd6" stroke-width="0.5" stroke-linecap="round" stroke-linejoin="round"/>
  <polygon points="12394.18,732.17 12167.95,807.53 12621.90,981.15 12848.07,890.15" fill="#f4a8ba" stroke="#f4a8ba" stroke-width="0.5" stroke-linecap="round" stroke-linejoin="round"/>
  <polygon points="12338.05,817.49 12338.67,847.87 12341.70,854.58 12341.08,824.12" fill="#f4a8ba" stroke="#f4a8ba" stroke-width="0.5" stroke-linecap="round" stroke-linejoin="round"/>
  <polygon points="12430.59,824.12 12430.86,854.58 12434.74,847.87 12434.49,817.49" fill="#f4a8ba" stroke="#f4a8ba" stroke-width="0.5" stroke-linecap="round" stroke-linejoin="round"/>
  <polygon points="12565.51,817.49 12565.26,847.87 12569.14,854.58 12569.41,824.12" fill="#f4a8ba" stroke="#f4a8ba" stroke-width="0.5" stroke-linecap="round" stroke-linejoin="round"/>
  <polygon points="12658.92,824.12 12658.30,854.58 12661.33,847.87 12661.95,817.49" fill="#f4a8ba" stroke="#f4a8ba" stroke-width="0.5" stroke-linecap="round" stroke-linejoin="round"/>
  <polygon points="12351.10,829.80 12366.61,833.61 12385.12,834.94 12403.81,833.61 12419.82,829.80 12430.59,824.12 12434.49,817.49 12431.12,810.92 12420.95,805.36 12405.57,801.67 12387.40,800.39 12369.06,801.67 12353.20,805.36 12342.30,810.92 12338.05,817.49 12341.08,824.12" fill="#f4a8ba" stroke="#f4a8ba" stroke-width="0.5" stroke-linecap="round" stroke-linejoin="round"/>
  <polygon points="12594.43,801.67 12579.05,805.36 12568.88,810.92 12565.51,817.49 12569.41,824.12 12580.18,829.80 12596.19,833.61 12614.88,834.94 12633.39,833.61 12648.90,829.80 12658.92,824.12 12661.95,817.49 12657.70,810.92 12646.80,805.36 12630.94,801.67 12612.60,800.39" fill="#f4a8ba" stroke="#f4a8ba" stroke-width="0.5" stroke-linecap="round" stroke-linejoin="round"/>
  <polygon points="12569.41,824.12 12569.14,854.58 12579.87,860.34 12580.18,829.80" fill="#f4a8ba" stroke="#f4a8ba" stroke-width="0.5" stroke-linecap="round" stroke-linejoin="round"/>
  <polygon points="12341.08,824.12 12341.70,854.58 12351.68,860.34 12351.10,829.80" fill="#f4a8ba" stroke="#f4a8ba" stroke-width="0.5" stroke-linecap="round" stroke-linejoin="round"/>
  <polygon points="12419.82,829.80 12420.13,860.34 12430.86,854.58 12430.59,824.12" fill="#f4a8ba" stroke="#f4a8ba" stroke-width="0.5" stroke-linecap="round" stroke-linejoin="round"/>
  <polygon points="12648.90,829.80 12648.32,860.34 12658.30,854.58 12658.92,824.12" fill="#f4a8ba" stroke="#f4a8ba" stroke-width="0.5" stroke-linecap="round" stroke-linejoin="round"/>
  <polygon points="12633.39,833.61 12632.87,864.20 12648.32,860.34 12648.90,829.80" fill="#f4a8ba" stroke="#f4a8ba" stroke-width="0.5" stroke-linecap="round" stroke-linejoin="round"/>
  <polygon points="12351.10,829.80 12351.68,860.34 12367.13,864.20 12366.61,833.61" fill="#f4a8ba" stroke="#f4a8ba" stroke-width="0.5" stroke-linecap="round" stroke-linejoin="round"/>
  <polygon points="12580.18,829.80 12579.87,860.34 12595.82,864.20 12596.19,833.61" fill="#f4a8ba" stroke="#f4a8ba" stroke-width="0.5" stroke-linecap="round" stroke-linejoin="round"/>
  <polygon points="12403.81,833.61 12404.18,864.20 12420.13,860.34 12419.82,829.80" fill="#f4a8ba" stroke="#f4a8ba" stroke-width="0.5" stroke-linecap="round" stroke-linejoin="round"/>
  <polygon points="12385.12,834.94 12385.57,865.55 12404.18,864.20 12403.81,833.61" fill="#f4a8ba" stroke="#f4a8ba" stroke-width="0.5" stroke-linecap="round" stroke-linejoin="round"/>
  <polygon points="12614.88,834.94 12614.43,865.55 12632.87,864.20 12633.39,833.61" fill="#f4a8ba" stroke="#f4a8ba" stroke-width="0.5" stroke-linecap="round" stroke-linejoin="round"/>
  <polygon points="12366.61,833.61 12367.13,864.20 12385.57,865.55 12385.12,834.94" fill="#f4a8ba" stroke="#f4a8ba" stroke-width="0.5" stroke-linecap="round" stroke-linejoin="round"/>
  <polygon points="12596.19,833.61 12595.82,864.20 12614.43,865.55 12614.88,834.94" fill="#f4a8ba" stroke="#f4a8ba" stroke-width="0.5" stroke-linecap="round" stroke-linejoin="round"/>
  <polygon points="12618.95,1168.54 12621.90,981.15 12167.95,807.53 12175.27,981.88" fill="#f4a8ba" stroke="#f4a8ba" stroke-width="0.5" stroke-linecap="round" stroke-linejoin="round"/>
  <polygon points="12840.03,1070.81 12618.95,1168.54 12616.14,1347.06 12832.36,1243.32" fill="#a5c916" stroke="#a5c916" stroke-width="0.5" stroke-linecap="round" stroke-linejoin="round"/>
  <polygon points="12779.72,866.16 12778.61,897.20 12781.24,890.15 12782.35,859.21" fill="#f4a8ba" stroke="#f4a8ba" stroke-width="0.5" stroke-linecap="round" stroke-linejoin="round"/>
  <polygon points="12545.84,866.16 12545.66,897.20 12549.19,890.15 12549.39,859.21" fill="#f4a8ba" stroke="#f4a8ba" stroke-width="0.5" stroke-linecap="round" stroke-linejoin="round"/>
  <polygon points="12450.61,859.21 12450.81,890.15 12454.34,897.20 12454.16,866.16" fill="#f4a8ba" stroke="#f4a8ba" stroke-width="0.5" stroke-linecap="round" stroke-linejoin="round"/>
  <polygon points="12683.57,859.21 12682.85,890.15 12687.30,897.20 12688.04,866.16" fill="#f4a8ba" stroke="#f4a8ba" stroke-width="0.5" stroke-linecap="round" stroke-linejoin="round"/>
  <polygon points="12464.80,872.12 12480.95,876.12 12500.00,877.51 12519.05,876.12 12535.20,872.12 12545.84,866.16 12549.39,859.21 12545.48,852.32 12534.69,846.48 12518.69,842.62 12500.00,841.28 12481.31,842.62 12465.31,846.48 12454.52,852.32 12450.61,859.21 12454.16,866.16" fill="#f4a8ba" stroke="#f4a8ba" stroke-width="0.5" stroke-linecap="round" stroke-linejoin="round"/>
  <polygon points="12699.47,872.12 12716.14,876.12 12735.38,877.51 12754.25,876.12 12769.87,872.12 12779.72,866.16 12782.35,859.21 12777.53,852.32 12765.97,846.48 12749.46,842.62 12730.59,841.28 12712.08,842.62 12696.59,846.48 12686.57,852.32 12683.57,859.21 12688.04,866.16" fill="#f4a8ba" stroke="#f4a8ba" stroke-width="0.5" stroke-linecap="round" stroke-linejoin="round"/>
  <polygon points="12769.87,872.12 12768.80,903.24 12778.61,897.20 12779.72,866.16" fill="#f4a8ba" stroke="#f4a8ba" stroke-width="0.5" stroke-linecap="round" stroke-linejoin="round"/>
  <polygon points="12535.20,872.12 12535.06,903.24 12545.66,897.20 12545.84,866.16" fill="#f4a8ba" stroke="#f4a8ba" stroke-width="0.5" stroke-linecap="round" stroke-linejoin="round"/>
  <polygon points="12688.04,866.16 12687.30,897.20 12698.68,903.24 12699.47,872.12" fill="#f4a8ba" stroke="#f4a8ba" stroke-width="0.5" stroke-linecap="round" stroke-linejoin="round"/>
  <polygon points="12454.16,866.16 12454.34,897.20 12464.94,903.24 12464.80,872.12" fill="#f4a8ba" stroke="#f4a8ba" stroke-width="0.5" stroke-linecap="round" stroke-linejoin="round"/>
  <polygon points="12754.25,876.12 12753.23,907.29 12768.80,903.24 12769.87,872.12" fill="#f4a8ba" stroke="#f4a8ba" stroke-width="0.5" stroke-linecap="round" stroke-linejoin="round"/>
  <polygon points="12519.05,876.12 12518.98,907.29 12535.06,903.24 12535.20,872.12" fill="#f4a8ba" stroke="#f4a8ba" stroke-width="0.5" stroke-linecap="round" stroke-linejoin="round"/>
  <polygon points="12464.80,872.12 12464.94,903.24 12481.02,907.29 12480.95,876.12" fill="#f4a8ba" stroke="#f4a8ba" stroke-width="0.5" stroke-linecap="round" stroke-linejoin="round"/>
  <polygon points="12699.47,872.12 12698.68,903.24 12715.28,907.29 12716.14,876.12" fill="#f4a8ba" stroke="#f4a8ba" stroke-width="0.5" stroke-linecap="round" stroke-linejoin="round"/>
  <polygon points="12500.00,877.51 12500.00,908.70 12518.98,907.29 12519.05,876.12" fill="#f4a8ba" stroke="#f4a8ba" stroke-width="0.5" stroke-linecap="round" stroke-linejoin="round"/>
  <polygon points="12716.14,876.12 12715.28,907.29 12734.44,908.70 12735.38,877.51" fill="#f4a8ba" stroke="#f4a8ba" stroke-width="0.5" stroke-linecap="round" stroke-linejoin="round"/>
  <polygon points="12480.95,876.12 12481.02,907.29 12500.00,908.70 12500.00,877.51" fill="#f4a8ba" stroke="#f4a8ba" stroke-width="0.5" stroke-linecap="round" stroke-linejoin="round"/>
  <polygon points="12735.38,877.51 12734.44,908.70 12753.23,907.29 12754.25,876.12" fill="#f4a8ba" stroke="#f4a8ba" stroke-width="0.5" stroke-linecap="round" stroke-linejoin="round"/>
  <polygon points="12848.07,890.15 12621.90,981.15 12618.95,1168.54 12840.03,1070.81" fill="#f4a8ba" stroke="#f4a8ba" stroke-width="0.5" stroke-linecap="round" stroke-linejoin="round"/>
  <polygon points="12666.83,910.30 12666.16,941.92 12669.30,934.53 12669.98,903.00" fill="#f4a8ba" stroke="#f4a8ba" stroke-width="0.5" stroke-linecap="round" stroke-linejoin="round"/>
  <polygon points="12568.76,903.00 12568.48,934.53 12572.57,941.92 12572.87,910.30" fill="#f4a8ba" stroke="#f4a8ba" stroke-width="0.5" stroke-linecap="round" stroke-linejoin="round"/>
  <polygon points="12620.64,922.23 12640.07,920.76 12656.35,916.56 12666.83,910.30 12669.98,903.00 12665.50,895.76 12654.04,889.63 12637.37,885.58 12618.13,884.17 12599.07,885.58 12582.94,889.63 12572.29,895.76 12568.76,903.00 12572.87,910.30 12584.19,916.56 12601.01,920.76" fill="#f4a8ba" stroke="#f4a8ba" stroke-width="0.5" stroke-linecap="round" stroke-linejoin="round"/>
  <polygon points="12656.35,916.56 12655.71,948.27 12666.16,941.92 12666.83,910.30" fill="#f4a8ba" stroke="#f4a8ba" stroke-width="0.5" stroke-linecap="round" stroke-linejoin="round"/>
  <polygon points="12572.87,910.30 12572.57,941.92 12583.84,948.27 12584.19,916.56" fill="#f4a8ba" stroke="#f4a8ba" stroke-width="0.5" stroke-linecap="round" stroke-linejoin="round"/>
  <polygon points="12640.07,920.76 12639.50,952.53 12655.71,948.27 12656.35,916.56" fill="#f4a8ba" stroke="#f4a8ba" stroke-width="0.5" stroke-linecap="round" stroke-linejoin="round"/>
  <polygon points="12584.19,916.56 12583.84,948.27 12600.60,952.53 12601.01,920.76" fill="#f4a8ba" stroke="#f4a8ba" stroke-width="0.5" stroke-linecap="round" stroke-linejoin="round"/>
  <polygon points="12620.64,922.23 12620.15,954.01 12639.50,952.53 12640.07,920.76" fill="#f4a8ba" stroke="#f4a8ba" stroke-width="0.5" stroke-linecap="round" stroke-linejoin="round"/>
  <polygon points="12601.01,920.76 12600.60,952.53 12620.15,954.01 12620.64,922.23" fill="#f4a8ba" stroke="#f4a8ba" stroke-width="0.5" stroke-linecap="round" stroke-linejoin="round"/>
  <path d="M 12218.68 2015.88 L 12601.70 2262.90 L 12792.73 2134.38 L 12798.67 2000.92 L 12603.85 2126.40 L 12601.70 2262.90 L 12792.73 2134.38 L 12798.67 2000.92 L 12603.85 2126.40 L 12213.20 1885.42 L 12218.68 2015.88 L 12601.70 2262.90 L 12603.85 2126.40 L 12213.20 1885.42 L 12218.68 2015.88" stroke="black" stroke-width="4" fill="none" stroke-linecap="round" stroke-linejoin="round"/>
  <path d="M 12213.20 1885.42 L 12603.85 2126.40 L 12798.67 2000.92 L 12804.85 1861.94 L 12606.10 1984.01 L 12603.85 2126.40 L 12798.67 2000.92 L 12804.85 1861.94 L 12741.86 1827.87 L 12804.85 1861.94 L 12606.10 1984.01 L 12207.51 1749.78 L 12266.23 1719.22 L 12207.51 1749.78 L 12213.20 1885.42 L 12603.85 2126.40 L 12606.10 1984.01 L 12207.51 1749.78 L 12213.20 1885.42" stroke="black" stroke-width="4" fill="none" stroke-linecap="round" stroke-linejoin="round"/>
  <path d="M 12720.37 1816.25 L 12637.38 1771.35 L 12720.37 1816.25" stroke="black" stroke-width="4" fill="none" stroke-linecap="round" stroke-linejoin="round"/>
  <path d="M 12616.77 1760.20 L 12537.12 1717.12 L 12616.77 1760.20" stroke="black" stroke-width="4" fill="none" stroke-linecap="round" stroke-linejoin="round"/>
  <path d="M 12517.34 1706.42 L 12440.86 1665.04 L 12517.34 1706.42" stroke="black" stroke-width="4" fill="none" stroke-linecap="round" stroke-linejoin="round"/>
  <path d="M 12421.85 1654.76 L 12406.30 1646.35 L 12391.65 1653.97 L 12406.30 1646.35 L 12421.85 1654.76" stroke="black" stroke-width="4" fill="none" stroke-linecap="round" stroke-linejoin="round"/>
  <path d="M 12366.48 1667.06 L 12292.43 1705.59 L 12366.48 1667.06" stroke="black" stroke-width="4" fill="none" stroke-linecap="round" stroke-linejoin="round"/>
  <path d="M 12744.75 1847.67 L 12747.17 1838.22 L 12743.07 1828.83 L 12733.05 1820.88 L 12718.64 1815.61 L 12702.12 1813.78 L 12685.87 1815.61 L 12672.25 1820.88 L 12663.40 1828.83 L 12660.70 1838.22 L 12664.53 1847.67 L 12674.46 1855.78 L 12688.99 1861.21 L 12705.79 1863.10 L 12722.30 1861.21 L 12736.03 1855.78 L 12744.75 1847.67" stroke="black" stroke-width="4" fill="none" stroke-linecap="round" stroke-linejoin="round"/>
  <path d="M 12660.70 1838.22 L 12660.15 1861.94 L 12663.96 1871.45 L 12673.85 1879.59 L 12688.33 1885.05 L 12705.07 1886.95 L 12721.53 1885.05 L 12735.21 1879.59 L 12743.90 1871.45 L 12746.32 1861.94 L 12747.17 1838.22" stroke="black" stroke-width="4" fill="none" stroke-linecap="round" stroke-linejoin="round"/>
  <path d="M 12705.79 1863.10 L 12722.30 1861.21 L 12736.03 1855.78" stroke="black" stroke-width="4" fill="none" stroke-linecap="round" stroke-linejoin="round"/>
  <path d="M 12733.05 1820.88 L 12718.64 1815.61 L 12702.12 1813.78" stroke="black" stroke-width="4" fill="none" stroke-linecap="round" stroke-linejoin="round"/>
  <path d="M 12672.25 1820.88 L 12663.40 1828.83 L 12660.70 1838.22 L 12664.53 1847.67 L 12674.46 1855.78" stroke="black" stroke-width="4" fill="none" stroke-linecap="round" stroke-linejoin="round"/>
  <path d="M 12639.46 1790.34 L 12642.19 1781.27 L 12638.53 1772.27 L 12629.00 1764.65 L 12615.09 1759.59 L 12598.98 1757.84 L 12583.00 1759.59 L 12569.46 1764.65 L 12560.51 1772.27 L 12557.51 1781.27 L 12560.91 1790.34 L 12570.33 1798.11 L 12584.36 1803.31 L 12600.74 1805.13 L 12616.98 1803.31 L 12630.62 1798.11 L 12639.46 1790.34 L 12630.62 1798.11" stroke="black" stroke-width="4" fill="none" stroke-linecap="round" stroke-linejoin="round"/>
  <path d="M 12557.51 1781.27 L 12557.32 1804.70 L 12560.71 1813.81 L 12570.10 1821.62 L 12584.08 1826.86 L 12600.40 1828.68 L 12616.58 1826.86 L 12630.18 1821.62 L 12638.99 1813.81 L 12641.71 1804.70 L 12642.19 1781.27" stroke="black" stroke-width="4" fill="none" stroke-linecap="round" stroke-linejoin="round"/>
  <path d="M 12638.53 1772.27 L 12629.00 1764.65" stroke="black" stroke-width="4" fill="none" stroke-linecap="round" stroke-linejoin="round"/>
  <path d="M 12615.09 1759.59 L 12598.98 1757.84" stroke="black" stroke-width="4" fill="none" stroke-linecap="round" stroke-linejoin="round"/>
  <path d="M 12583.00 1759.59 L 12569.46 1764.65" stroke="black" stroke-width="4" fill="none" stroke-linecap="round" stroke-linejoin="round"/>
  <path d="M 12560.51 1772.27 L 12557.51 1781.27 L 12560.91 1790.34" stroke="black" stroke-width="4" fill="none" stroke-linecap="round" stroke-linejoin="round"/>
  <path d="M 12570.33 1798.11 L 12584.36 1803.31" stroke="black" stroke-width="4" fill="none" stroke-linecap="round" stroke-linejoin="round"/>
  <path d="M 12600.74 1805.13 L 12616.98 1803.31" stroke="black" stroke-width="4" fill="none" stroke-linecap="round" stroke-linejoin="round"/>
  <path d="M 12538.47 1735.34 L 12541.48 1726.64 L 12538.22 1718.00 L 12529.17 1710.69 L 12515.72 1705.83 L 12500.00 1704.15 L 12484.28 1705.83 L 12470.83 1710.69 L 12461.78 1718.00 L 12458.52 1726.64 L 12461.53 1735.34 L 12470.47 1742.80 L 12484.03 1747.79 L 12500.00 1749.53 L 12515.97 1747.79 L 12529.53 1742.80 L 12538.47 1735.34 L 12529.53 1742.80" stroke="black" stroke-width="4" fill="none" stroke-linecap="round" stroke-linejoin="round"/>
  <path d="M 12458.52 1726.64 L 12458.66 1749.78 L 12461.65 1758.52 L 12470.57 1766.02 L 12484.08 1771.04 L 12500.00 1772.79 L 12515.92 1771.04 L 12529.43 1766.02 L 12538.35 1758.52 L 12541.34 1749.78 L 12541.48 1726.64" stroke="black" stroke-width="4" fill="none" stroke-linecap="round" stroke-linejoin="round"/>
  <path d="M 12500.42 1727.20 L 12500.00 1727.16" stroke="black" stroke-width="4" fill="none" stroke-linecap="round" stroke-linejoin="round"/>
  <path d="M 12538.22 1718.00 L 12529.17 1710.69" stroke="black" stroke-width="4" fill="none" stroke-linecap="round" stroke-linejoin="round"/>
  <path d="M 12515.72 1705.83 L 12500.00 1704.15" stroke="black" stroke-width="4" fill="none" stroke-linecap="round" stroke-linejoin="round"/>
  <path d="M 12484.28 1705.83 L 12470.83 1710.69" stroke="black" stroke-width="4" fill="none" stroke-linecap="round" stroke-linejoin="round"/>
  <path d="M 12461.78 1718.00 L 12458.52 1726.64 L 12461.53 1735.34" stroke="black" stroke-width="4" fill="none" stroke-linecap="round" stroke-linejoin="round"/>
  <path d="M 12470.47 1742.80 L 12484.03 1747.79" stroke="black" stroke-width="4" fill="none" stroke-linecap="round" stroke-linejoin="round"/>
  <path d="M 12500.00 1749.53 L 12515.97 1747.79" stroke="black" stroke-width="4" fill="none" stroke-linecap="round" stroke-linejoin="round"/>
  <path d="M 12441.52 1682.55 L 12444.78 1674.19 L 12441.90 1665.89 L 12433.29 1658.86 L 12420.28 1654.20 L 12404.93 1652.58 L 12389.46 1654.20 L 12376.11 1658.86 L 12366.98 1665.89 L 12363.48 1674.19 L 12366.11 1682.55 L 12374.62 1689.71 L 12387.72 1694.50 L 12403.31 1696.17 L 12419.03 1694.50 L 12432.49 1689.71 L 12441.52 1682.55" stroke="black" stroke-width="4" fill="none" stroke-linecap="round" stroke-linejoin="round"/>
  <path d="M 12363.48 1674.19 L 12363.92 1697.03 L 12366.55 1705.44 L 12375.03 1712.64 L 12388.09 1717.46 L 12403.63 1719.14 L 12419.29 1717.46 L 12432.71 1712.64 L 12441.71 1705.44 L 12444.96 1697.03 L 12444.78 1674.19" stroke="black" stroke-width="4" fill="none" stroke-linecap="round" stroke-linejoin="round"/>
  <path d="M 12403.31 1696.17 L 12419.03 1694.50 L 12432.49 1689.71" stroke="black" stroke-width="4" fill="none" stroke-linecap="round" stroke-linejoin="round"/>
  <path d="M 12433.29 1658.86 L 12420.28 1654.20 L 12404.93 1652.58" stroke="black" stroke-width="4" fill="none" stroke-linecap="round" stroke-linejoin="round"/>
  <path d="M 12376.11 1658.86 L 12366.98 1665.89 L 12363.48 1674.19 L 12366.11 1682.55 L 12374.62 1689.71" stroke="black" stroke-width="4" fill="none" stroke-linecap="round" stroke-linejoin="round"/>
  <path d="M 12645.52 1907.50 L 12648.35 1897.63 L 12644.51 1887.83 L 12634.55 1879.54 L 12620.03 1874.04 L 12603.23 1872.13 L 12586.57 1874.04 L 12572.45 1879.54 L 12563.12 1887.83 L 12560.01 1897.63 L 12563.56 1907.50 L 12573.40 1915.96 L 12588.05 1921.63 L 12605.14 1923.61 L 12622.09 1921.63 L 12636.31 1915.96 L 12645.52 1907.50" stroke="black" stroke-width="4" fill="none" stroke-linecap="round" stroke-linejoin="round"/>
  <path d="M 12560.01 1897.63 L 12559.79 1921.66 L 12563.34 1931.57 L 12573.14 1940.08 L 12587.73 1945.77 L 12604.77 1947.76 L 12621.65 1945.77 L 12635.83 1940.08 L 12645.01 1931.57 L 12647.82 1921.66 L 12648.35 1897.63" stroke="black" stroke-width="4" fill="none" stroke-linecap="round" stroke-linejoin="round"/>
  <path d="M 12605.14 1923.61 L 12622.09 1921.63 L 12636.31 1915.96" stroke="black" stroke-width="4" fill="none" stroke-linecap="round" stroke-linejoin="round"/>
  <path d="M 12634.55 1879.54 L 12620.03 1874.04 L 12603.23 1872.13" stroke="black" stroke-width="4" fill="none" stroke-linecap="round" stroke-linejoin="round"/>
  <path d="M 12572.45 1879.54 L 12563.12 1887.83 L 12560.01 1897.63 L 12563.56 1907.50 L 12573.40 1915.96" stroke="black" stroke-width="4" fill="none" stroke-linecap="round" stroke-linejoin="round"/>
  <path d="M 12540.11 1847.67 L 12543.23 1838.22 L 12539.84 1828.83 L 12530.40 1820.88 L 12516.38 1815.61 L 12500.00 1813.78 L 12483.62 1815.61 L 12469.60 1820.88 L 12460.17 1828.83 L 12456.77 1838.22 L 12459.89 1847.67 L 12469.21 1855.78 L 12483.34 1861.21 L 12500.00 1863.10 L 12516.66 1861.21 L 12530.79 1855.78 L 12540.11 1847.67 L 12530.79 1855.78" stroke="black" stroke-width="4" fill="none" stroke-linecap="round" stroke-linejoin="round"/>
  <path d="M 12456.77 1838.22 L 12456.91 1861.94 L 12460.03 1871.45 L 12469.32 1879.59 L 12483.40 1885.05 L 12500.00 1886.95 L 12516.60 1885.05 L 12530.68 1879.59 L 12539.97 1871.45 L 12543.09 1861.94 L 12543.23 1838.22" stroke="black" stroke-width="4" fill="none" stroke-linecap="round" stroke-linejoin="round"/>
  <path d="M 12500.56 1837.44 L 12500.00 1837.38" stroke="black" stroke-width="4" fill="none" stroke-linecap="round" stroke-linejoin="round"/>
  <path d="M 12539.84 1828.83 L 12530.40 1820.88" stroke="black" stroke-width="4" fill="none" stroke-linecap="round" stroke-linejoin="round"/>
  <path d="M 12516.38 1815.61 L 12500.00 1813.78" stroke="black" stroke-width="4" fill="none" stroke-linecap="round" stroke-linejoin="round"/>
  <path d="M 12483.62 1815.61 L 12469.60 1820.88" stroke="black" stroke-width="4" fill="none" stroke-linecap="round" stroke-linejoin="round"/>
  <path d="M 12460.17 1828.83 L 12456.77 1838.22 L 12459.89 1847.67" stroke="black" stroke-width="4" fill="none" stroke-linecap="round" stroke-linejoin="round"/>
  <path d="M 12469.21 1855.78 L 12483.34 1861.21" stroke="black" stroke-width="4" fill="none" stroke-linecap="round" stroke-linejoin="round"/>
  <path d="M 12500.00 1863.10 L 12516.66 1861.21" stroke="black" stroke-width="4" fill="none" stroke-linecap="round" stroke-linejoin="round"/>
  <path d="M 12439.09 1790.34 L 12442.49 1781.27 L 12439.49 1772.27 L 12430.54 1764.65 L 12417.00 1759.59 L 12401.02 1757.84 L 12384.91 1759.59 L 12371.00 1764.65 L 12361.47 1772.27 L 12357.81 1781.27 L 12360.54 1790.34 L 12369.38 1798.11 L 12383.02 1803.31 L 12399.26 1805.13 L 12415.64 1803.31 L 12429.67 1798.11 L 12439.09 1790.34 L 12429.67 1798.11" stroke="black" stroke-width="4" fill="none" stroke-linecap="round" stroke-linejoin="round"/>
  <path d="M 12357.81 1781.27 L 12358.29 1804.70 L 12361.01 1813.81 L 12369.82 1821.62 L 12383.42 1826.86 L 12399.60 1828.68 L 12415.93 1826.86 L 12429.90 1821.62 L 12439.29 1813.81 L 12442.68 1804.70 L 12442.49 1781.27" stroke="black" stroke-width="4" fill="none" stroke-linecap="round" stroke-linejoin="round"/>
  <path d="M 12439.49 1772.27 L 12430.54 1764.65" stroke="black" stroke-width="4" fill="none" stroke-linecap="round" stroke-linejoin="round"/>
  <path d="M 12417.00 1759.59 L 12401.02 1757.84" stroke="black" stroke-width="4" fill="none" stroke-linecap="round" stroke-linejoin="round"/>
  <path d="M 12384.91 1759.59 L 12371.00 1764.65" stroke="black" stroke-width="4" fill="none" stroke-linecap="round" stroke-linejoin="round"/>
  <path d="M 12361.47 1772.27 L 12357.81 1781.27 L 12360.54 1790.34" stroke="black" stroke-width="4" fill="none" stroke-linecap="round" stroke-linejoin="round"/>
  <path d="M 12369.38 1798.11 L 12383.02 1803.31" stroke="black" stroke-width="4" fill="none" stroke-linecap="round" stroke-linejoin="round"/>
  <path d="M 12399.26 1805.13 L 12415.64 1803.31" stroke="black" stroke-width="4" fill="none" stroke-linecap="round" stroke-linejoin="round"/>
  <path d="M 12342.18 1735.34 L 12345.83 1726.64 L 12343.22 1718.00 L 12334.71 1710.69 L 12321.63 1705.83 L 12306.03 1704.15 L 12290.18 1705.83 L 12276.37 1710.69 L 12266.78 1718.00 L 12262.88 1726.64 L 12265.24 1735.34 L 12273.63 1742.80 L 12286.81 1747.79 L 12302.65 1749.53 L 12318.76 1747.79 L 12332.68 1742.80 L 12342.18 1735.34" stroke="black" stroke-width="4" fill="none" stroke-linecap="round" stroke-linejoin="round"/>
  <path d="M 12262.88 1726.64 L 12263.66 1749.78 L 12266.02 1758.52 L 12274.38 1766.02 L 12287.52 1771.04 L 12303.31 1772.79 L 12319.36 1771.04 L 12333.24 1766.02 L 12342.71 1758.52 L 12346.34 1749.78 L 12345.83 1726.64" stroke="black" stroke-width="4" fill="none" stroke-linecap="round" stroke-linejoin="round"/>
  <path d="M 12302.65 1749.53 L 12318.76 1747.79 L 12332.68 1742.80" stroke="black" stroke-width="4" fill="none" stroke-linecap="round" stroke-linejoin="round"/>
  <path d="M 12334.71 1710.69 L 12321.63 1705.83 L 12306.03 1704.15" stroke="black" stroke-width="4" fill="none" stroke-linecap="round" stroke-linejoin="round"/>
  <path d="M 12276.37 1710.69 L 12266.78 1718.00 L 12262.88 1726.64 L 12265.24 1735.34 L 12273.63 1742.80" stroke="black" stroke-width="4" fill="none" stroke-linecap="round" stroke-linejoin="round"/>
  <path d="M 12188.98 1308.49 L 12613.45 1517.33 L 12825.03 1408.21 L 12832.36 1243.32 L 12616.14 1347.06 L 12613.45 1517.33 L 12825.03 1408.21 L 12832.36 1243.32 L 12616.14 1347.06 L 12182.27 1148.71 L 12188.98 1308.49 L 12613.45 1517.33 L 12616.14 1347.06 L 12182.27 1148.71 L 12188.98 1308.49" stroke="black" stroke-width="4" fill="none" stroke-linecap="round" stroke-linejoin="round"/>
  <path d="M 12182.27 1148.71 L 12616.14 1347.06 L 12832.36 1243.32 L 12840.03 1070.81 L 12618.95 1168.54 L 12616.14 1347.06 L 12832.36 1243.32 L 12840.03 1070.81 L 12618.95 1168.54 L 12175.27 981.88 L 12182.27 1148.71 L 12616.14 1347.06 L 12618.95 1168.54 L 12175.27 981.88 L 12182.27 1148.71" stroke="black" stroke-width="4" fill="none" stroke-linecap="round" stroke-linejoin="round"/>
  <path d="M 12175.27 981.88 L 12618.95 1168.54 L 12840.03 1070.81 L 12848.07 890.15 L 12621.90 981.15 L 12618.95 1168.54 L 12840.03 1070.81 L 12848.07 890.15 L 12782.06 867.18 L 12848.07 890.15 L 12621.90 981.15 L 12167.95 807.53 L 12230.99 786.53 L 12167.95 807.53 L 12175.27 981.88 L 12618.95 1168.54 L 12621.90 981.15 L 12167.95 807.53 L 12175.27 981.88" stroke="black" stroke-width="4" fill="none" stroke-linecap="round" stroke-linejoin="round"/>
  <path d="M 12711.74 842.70 L 12661.79 825.32 L 12711.74 842.70" stroke="black" stroke-width="4" fill="none" stroke-linecap="round" stroke-linejoin="round"/>
  <path d="M 12594.09 801.75 L 12547.06 785.38 L 12594.09 801.75 L 12594.43 801.67 L 12579.05 805.36" stroke="black" stroke-width="4" fill="none" stroke-linecap="round" stroke-linejoin="round"/>
  <path d="M 12481.83 762.68 L 12437.51 747.25 L 12481.83 762.68 L 12482.16 762.60 L 12466.90 766.12" stroke="black" stroke-width="4" fill="none" stroke-linecap="round" stroke-linejoin="round"/>
  <path d="M 12345.53 748.38 L 12300.66 763.32 L 12345.53 748.38" stroke="black" stroke-width="4" fill="none" stroke-linecap="round" stroke-linejoin="round"/>
  <path d="M 12779.72 866.16 L 12782.35 859.21 L 12777.53 852.32 L 12765.97 846.48 L 12749.46 842.62 L 12730.59 841.28 L 12712.08 842.62 L 12696.59 846.48 L 12686.57 852.32 L 12683.57 859.21 L 12688.04 866.16 L 12699.47 872.12 L 12716.14 876.12 L 12735.38 877.51 L 12754.25 876.12 L 12769.87 872.12 L 12779.72 866.16" stroke="black" stroke-width="4" fill="none" stroke-linecap="round" stroke-linejoin="round"/>
  <path d="M 12683.57 859.21 L 12682.85 890.15 L 12687.30 897.20 L 12698.68 903.24 L 12715.28 907.29 L 12734.44 908.70 L 12753.23 907.29 L 12768.80 903.24 L 12778.61 897.20 L 12781.24 890.15 L 12782.35 859.21" stroke="black" stroke-width="4" fill="none" stroke-linecap="round" stroke-linejoin="round"/>
  <path d="M 12735.38 877.51 L 12754.25 876.12 L 12769.87 872.12" stroke="black" stroke-width="4" fill="none" stroke-linecap="round" stroke-linejoin="round"/>
  <path d="M 12765.97 846.48 L 12749.46 842.62 L 12730.59 841.28" stroke="black" stroke-width="4" fill="none" stroke-linecap="round" stroke-linejoin="round"/>
  <path d="M 12696.59 846.48 L 12686.57 852.32 L 12683.57 859.21 L 12688.04 866.16 L 12699.47 872.12" stroke="black" stroke-width="4" fill="none" stroke-linecap="round" stroke-linejoin="round"/>
  <path d="M 12658.92 824.12 L 12661.95 817.49 L 12657.70 810.92 L 12646.80 805.36 L 12630.94 801.67 L 12612.60 800.39 L 12594.43 801.67 L 12579.05 805.36 L 12568.88 810.92 L 12565.51 817.49 L 12569.41 824.12 L 12580.18 829.80 L 12596.19 833.61 L 12614.88 834.94 L 12633.39 833.61 L 12648.90 829.80 L 12658.92 824.12 L 12648.90 829.80" stroke="black" stroke-width="4" fill="none" stroke-linecap="round" stroke-linejoin="round"/>
  <path d="M 12565.51 817.49 L 12565.26 847.87 L 12569.14 854.58 L 12579.87 860.34 L 12595.82 864.20 L 12614.43 865.55 L 12632.87 864.20 L 12648.32 860.34 L 12658.30 854.58 L 12661.33 847.87 L 12661.95 817.49" stroke="black" stroke-width="4" fill="none" stroke-linecap="round" stroke-linejoin="round"/>
  <path d="M 12657.70 810.92 L 12646.80 805.36" stroke="black" stroke-width="4" fill="none" stroke-linecap="round" stroke-linejoin="round"/>
  <path d="M 12630.94 801.67 L 12612.60 800.39" stroke="black" stroke-width="4" fill="none" stroke-linecap="round" stroke-linejoin="round"/>
  <path d="M 12568.88 810.92 L 12565.51 817.49 L 12569.41 824.12" stroke="black" stroke-width="4" fill="none" stroke-linecap="round" stroke-linejoin="round"/>
  <path d="M 12580.18 829.80 L 12596.19 833.61" stroke="black" stroke-width="4" fill="none" stroke-linecap="round" stroke-linejoin="round"/>
  <path d="M 12614.88 834.94 L 12633.39 833.61" stroke="black" stroke-width="4" fill="none" stroke-linecap="round" stroke-linejoin="round"/>
  <path d="M 12543.72 784.02 L 12547.11 777.70 L 12543.39 771.43 L 12533.10 766.12 L 12517.84 762.60 L 12500.00 761.38 L 12482.16 762.60 L 12466.90 766.12 L 12456.61 771.43 L 12452.89 777.70 L 12456.29 784.02 L 12466.44 789.45 L 12481.84 793.08 L 12500.00 794.35 L 12518.16 793.08 L 12533.56 789.45 L 12543.72 784.02 L 12533.56 789.45" stroke="black" stroke-width="4" fill="none" stroke-linecap="round" stroke-linejoin="round"/>
  <path d="M 12452.89 777.70 L 12453.07 807.53 L 12456.45 813.94 L 12466.56 819.43 L 12481.91 823.12 L 12500.00 824.40 L 12518.09 823.12 L 12533.44 819.43 L 12543.55 813.94 L 12546.93 807.53 L 12547.11 777.70" stroke="black" stroke-width="4" fill="none" stroke-linecap="round" stroke-linejoin="round"/>
  <path d="M 12517.09 792.17 L 12500.00 790.98" stroke="black" stroke-width="4" fill="none" stroke-linecap="round" stroke-linejoin="round"/>
  <path d="M 12543.39 771.43 L 12533.10 766.12" stroke="black" stroke-width="4" fill="none" stroke-linecap="round" stroke-linejoin="round"/>
  <path d="M 12517.84 762.60 L 12500.00 761.38" stroke="black" stroke-width="4" fill="none" stroke-linecap="round" stroke-linejoin="round"/>
  <path d="M 12456.61 771.43 L 12452.89 777.70 L 12456.29 784.02" stroke="black" stroke-width="4" fill="none" stroke-linecap="round" stroke-linejoin="round"/>
  <path d="M 12466.44 789.45 L 12481.84 793.08" stroke="black" stroke-width="4" fill="none" stroke-linecap="round" stroke-linejoin="round"/>
  <path d="M 12500.00 794.35 L 12518.16 793.08" stroke="black" stroke-width="4" fill="none" stroke-linecap="round" stroke-linejoin="round"/>
  <path d="M 12433.73 745.75 L 12437.45 739.71 L 12434.22 733.71 L 12424.50 728.64 L 12409.80 725.28 L 12392.44 724.11 L 12374.92 725.28 L 12359.78 728.64 L 12349.39 733.72 L 12345.36 739.71 L 12348.28 745.75 L 12357.87 750.93 L 12372.69 754.40 L 12390.36 755.61 L 12408.19 754.40 L 12423.47 750.93 L 12433.73 745.75" stroke="black" stroke-width="4" fill="none" stroke-linecap="round" stroke-linejoin="round"/>
  <path d="M 12345.36 739.71 L 12345.93 769.00 L 12348.84 775.13 L 12358.39 780.38 L 12373.16 783.90 L 12390.76 785.12 L 12408.53 783.90 L 12423.75 780.38 L 12433.98 775.13 L 12437.68 769.00 L 12437.45 739.71" stroke="black" stroke-width="4" fill="none" stroke-linecap="round" stroke-linejoin="round"/>
  <path d="M 12390.36 755.61 L 12408.19 754.40 L 12423.47 750.93" stroke="black" stroke-width="4" fill="none" stroke-linecap="round" stroke-linejoin="round"/>
  <path d="M 12424.50 728.64 L 12409.80 725.28 L 12392.44 724.11" stroke="black" stroke-width="4" fill="none" stroke-linecap="round" stroke-linejoin="round"/>
  <path d="M 12359.78 728.64 L 12349.39 733.72 L 12345.36 739.71 L 12348.28 745.75 L 12357.87 750.93" stroke="black" stroke-width="4" fill="none" stroke-linecap="round" stroke-linejoin="round"/>
  <path d="M 12666.83 910.30 L 12669.98 903.00 L 12665.50 895.76 L 12654.04 889.63 L 12637.37 885.58 L 12618.13 884.17 L 12599.07 885.58 L 12582.94 889.63 L 12572.29 895.76 L 12568.76 903.00 L 12572.87 910.30 L 12584.19 916.56 L 12601.01 920.76 L 12620.64 922.23 L 12640.07 920.76 L 12656.35 916.56 L 12666.83 910.30" stroke="black" stroke-width="4" fill="none" stroke-linecap="round" stroke-linejoin="round"/>
  <path d="M 12568.76 903.00 L 12568.48 934.53 L 12572.57 941.92 L 12583.84 948.27 L 12600.60 952.53 L 12620.15 954.01 L 12639.50 952.53 L 12655.71 948.27 L 12666.16 941.92 L 12669.30 934.53 L 12669.98 903.00" stroke="black" stroke-width="4" fill="none" stroke-linecap="round" stroke-linejoin="round"/>
  <path d="M 12620.64 922.23 L 12640.07 920.76 L 12656.35 916.56" stroke="black" stroke-width="4" fill="none" stroke-linecap="round" stroke-linejoin="round"/>
  <path d="M 12654.04 889.63 L 12637.37 885.58 L 12618.13 884.17" stroke="black" stroke-width="4" fill="none" stroke-linecap="round" stroke-linejoin="round"/>
  <path d="M 12582.94 889.63 L 12572.29 895.76 L 12568.76 903.00 L 12572.87 910.30 L 12584.19 916.56" stroke="black" stroke-width="4" fill="none" stroke-linecap="round" stroke-linejoin="round"/>
  <path d="M 12545.84 866.16 L 12549.39 859.21 L 12545.48 852.32 L 12534.69 846.48 L 12518.69 842.62 L 12500.00 841.28 L 12481.31 842.62 L 12465.31 846.48 L 12454.52 852.32 L 12450.61 859.21 L 12454.16 866.16 L 12464.80 872.12 L 12480.95 876.12 L 12500.00 877.51 L 12519.05 876.12 L 12535.20 872.12 L 12545.84 866.16 L 12535.20 872.12" stroke="black" stroke-width="4" fill="none" stroke-linecap="round" stroke-linejoin="round"/>
  <path d="M 12450.61 859.21 L 12450.81 890.15 L 12454.34 897.20 L 12464.94 903.24 L 12481.02 907.29 L 12500.00 908.70 L 12518.98 907.29 L 12535.06 903.24 L 12545.66 897.20 L 12549.19 890.15 L 12549.39 859.21" stroke="black" stroke-width="4" fill="none" stroke-linecap="round" stroke-linejoin="round"/>
  <path d="M 12515.67 873.12 L 12500.00 871.98" stroke="black" stroke-width="4" fill="none" stroke-linecap="round" stroke-linejoin="round"/>
  <path d="M 12545.48 852.32 L 12534.69 846.48" stroke="black" stroke-width="4" fill="none" stroke-linecap="round" stroke-linejoin="round"/>
  <path d="M 12518.69 842.62 L 12500.00 841.28" stroke="black" stroke-width="4" fill="none" stroke-linecap="round" stroke-linejoin="round"/>
  <path d="M 12481.31 842.62 L 12465.31 846.48" stroke="black" stroke-width="4" fill="none" stroke-linecap="round" stroke-linejoin="round"/>
  <path d="M 12454.52 852.32 L 12450.61 859.21 L 12454.16 866.16" stroke="black" stroke-width="4" fill="none" stroke-linecap="round" stroke-linejoin="round"/>
  <path d="M 12464.80 872.12 L 12480.95 876.12" stroke="black" stroke-width="4" fill="none" stroke-linecap="round" stroke-linejoin="round"/>
  <path d="M 12500.00 877.51 L 12519.05 876.12" stroke="black" stroke-width="4" fill="none" stroke-linecap="round" stroke-linejoin="round"/>
  <path d="M 12430.59 824.12 L 12434.49 817.49 L 12431.12 810.92 L 12420.95 805.36 L 12405.57 801.67 L 12387.40 800.39 L 12369.06 801.67 L 12353.20 805.36 L 12342.30 810.92 L 12338.05 817.49 L 12341.08 824.12 L 12351.10 829.80 L 12366.61 833.61 L 12385.12 834.94 L 12403.81 833.61 L 12419.82 829.80 L 12430.59 824.12 L 12419.82 829.80" stroke="black" stroke-width="4" fill="none" stroke-linecap="round" stroke-linejoin="round"/>
  <path d="M 12338.05 817.49 L 12338.67 847.87 L 12341.70 854.58 L 12351.68 860.34 L 12367.13 864.20 L 12385.57 865.55 L 12404.18 864.20 L 12420.13 860.34 L 12430.86 854.58 L 12434.74 847.87 L 12434.49 817.49" stroke="black" stroke-width="4" fill="none" stroke-linecap="round" stroke-linejoin="round"/>
  <path d="M 12431.12 810.92 L 12420.95 805.36" stroke="black" stroke-width="4" fill="none" stroke-linecap="round" stroke-linejoin="round"/>
  <path d="M 12405.57 801.67 L 12387.40 800.39" stroke="black" stroke-width="4" fill="none" stroke-linecap="round" stroke-linejoin="round"/>
  <path d="M 12369.06 801.67 L 12353.20 805.36" stroke="black" stroke-width="4" fill="none" stroke-linecap="round" stroke-linejoin="round"/>
  <path d="M 12342.30 810.92 L 12338.05 817.49 L 12341.08 824.12" stroke="black" stroke-width="4" fill="none" stroke-linecap="round" stroke-linejoin="round"/>
  <path d="M 12351.10 829.80 L 12366.61 833.61" stroke="black" stroke-width="4" fill="none" stroke-linecap="round" stroke-linejoin="round"/>
  <path d="M 12385.12 834.94 L 12403.81 833.61" stroke="black" stroke-width="4" fill="none" stroke-linecap="round" stroke-linejoin="round"/>
  <path d="M 12320.68 784.02 L 12324.90 777.70 L 12322.02 771.43 L 12312.43 766.12 L 12297.63 762.60 L 12279.95 761.38 L 12261.95 762.60 L 12246.23 766.12 L 12235.24 771.43 L 12230.69 777.70 L 12233.25 784.02 L 12242.68 789.45 L 12257.61 793.08 L 12275.60 794.35 L 12293.93 793.08 L 12309.81 789.45 L 12320.68 784.02" stroke="black" stroke-width="4" fill="none" stroke-linecap="round" stroke-linejoin="round"/>
  <path d="M 12230.69 777.70 L 12231.70 807.53 L 12234.25 813.94 L 12243.66 819.43 L 12258.52 823.12 L 12276.45 824.40 L 12294.71 823.12 L 12310.53 819.43 L 12321.35 813.94 L 12325.56 807.53 L 12324.90 777.70" stroke="black" stroke-width="4" fill="none" stroke-linecap="round" stroke-linejoin="round"/>
  <path d="M 12275.60 794.35 L 12293.93 793.08 L 12309.81 789.45" stroke="black" stroke-width="4" fill="none" stroke-linecap="round" stroke-linejoin="round"/>
  <path d="M 12312.43 766.12 L 12297.63 762.60 L 12279.95 761.38" stroke="black" stroke-width="4" fill="none" stroke-linecap="round" stroke-linejoin="round"/>
  <path d="M 12246.23 766.12 L 12235.24 771.43 L 12230.69 777.70 L 12233.25 784.02 L 12242.68 789.45" stroke="black" stroke-width="4" fill="none" stroke-linecap="round" stroke-linejoin="round"/>
  <path d="M 12804.85 1861.94 L 12741.86 1827.87" stroke="black" stroke-width="4" fill="none" stroke-linecap="round" stroke-linejoin="round"/>
  <path d="M 12720.37 1816.25 L 12637.38 1771.35" stroke="black" stroke-width="4" fill="none" stroke-linecap="round" stroke-linejoin="round"/>
  <path d="M 12616.77 1760.20 L 12537.12 1717.12" stroke="black" stroke-width="4" fill="none" stroke-linecap="round" stroke-linejoin="round"/>
  <path d="M 12517.34 1706.42 L 12440.86 1665.04" stroke="black" stroke-width="4" fill="none" stroke-linecap="round" stroke-linejoin="round"/>
  <path d="M 12421.85 1654.76 L 12406.30 1646.35 L 12391.65 1653.97" stroke="black" stroke-width="4" fill="none" stroke-linecap="round" stroke-linejoin="round"/>
  <path d="M 12366.48 1667.06 L 12292.43 1705.59" stroke="black" stroke-width="4" fill="none" stroke-linecap="round" stroke-linejoin="round"/>
  <path d="M 12266.23 1719.22 L 12207.51 1749.78 L 12606.10 1984.01 L 12804.85 1861.94 L 12798.67 2000.92 L 12603.85 2126.40 L 12798.67 2000.92 L 12603.85 2126.40 L 12213.20 1885.42 L 12603.85 2126.40 L 12601.70 2262.90 L 12218.68 2015.88 L 12213.20 1885.42 L 12603.85 2126.40 L 12798.67 2000.92 L 12792.73 2134.38 L 12601.70 2262.90" stroke="black" stroke-width="4" fill="none" stroke-linecap="round" stroke-linejoin="round"/>
  <path d="M 12606.10 1984.01 L 12603.85 2126.40 L 12213.20 1885.42 L 12207.51 1749.78" stroke="black" stroke-width="4" fill="none" stroke-linecap="round" stroke-linejoin="round"/>
  <path d="M 12660.15 1861.94 L 12663.96 1871.45 L 12673.85 1879.59 L 12688.33 1885.05 L 12705.07 1886.95 L 12721.53 1885.05 L 12735.21 1879.59 L 12743.90 1871.45 L 12746.32 1861.94" stroke="black" stroke-width="4" fill="none" stroke-linecap="round" stroke-linejoin="round"/>
  <path d="M 12736.03 1855.78 L 12722.30 1861.21 L 12705.79 1863.10 L 12688.99 1861.21 L 12674.46 1855.78 L 12664.53 1847.67 L 12660.70 1838.22 L 12663.40 1828.83 L 12672.25 1820.88 L 12685.87 1815.61 L 12702.12 1813.78 L 12718.64 1815.61 L 12733.05 1820.88 L 12743.07 1828.83 L 12747.17 1838.22 L 12744.75 1847.67 L 12736.03 1855.78" stroke="black" stroke-width="4" fill="none" stroke-linecap="round" stroke-linejoin="round"/>
  <path d="M 12557.32 1804.70 L 12560.71 1813.81 L 12570.10 1821.62 L 12584.08 1826.86 L 12600.40 1828.68 L 12616.58 1826.86 L 12630.18 1821.62 L 12638.99 1813.81 L 12641.71 1804.70 L 12639.29 1798.71" stroke="black" stroke-width="4" fill="none" stroke-linecap="round" stroke-linejoin="round"/>
  <path d="M 12630.62 1798.11 L 12616.98 1803.31 L 12600.74 1805.13 L 12584.36 1803.31 L 12570.33 1798.11 L 12560.91 1790.34 L 12557.51 1781.27 L 12560.51 1772.27 L 12569.46 1764.65 L 12583.00 1759.59 L 12598.98 1757.84 L 12615.09 1759.59 L 12629.00 1764.65 L 12638.53 1772.27 L 12642.19 1781.27 L 12639.46 1790.34 L 12630.62 1798.11" stroke="black" stroke-width="4" fill="none" stroke-linecap="round" stroke-linejoin="round"/>
  <path d="M 12458.66 1749.78 L 12461.65 1758.52 L 12470.57 1766.02 L 12478.96 1769.13 L 12484.08 1771.04 L 12500.00 1772.79 L 12515.92 1771.04 L 12529.43 1766.02 L 12538.35 1758.52 L 12541.34 1749.78" stroke="black" stroke-width="4" fill="none" stroke-linecap="round" stroke-linejoin="round"/>
  <path d="M 12500.42 1727.20 L 12500.00 1727.16" stroke="black" stroke-width="4" fill="none" stroke-linecap="round" stroke-linejoin="round"/>
  <path d="M 12529.53 1742.80 L 12515.97 1747.79 L 12500.00 1749.53 L 12484.03 1747.79 L 12470.47 1742.80 L 12461.53 1735.34 L 12458.52 1726.64 L 12461.78 1718.00 L 12470.83 1710.69 L 12484.28 1705.83 L 12500.00 1704.15 L 12515.72 1705.83 L 12529.17 1710.69 L 12538.22 1718.00 L 12541.48 1726.64 L 12538.47 1735.34 L 12529.53 1742.80" stroke="black" stroke-width="4" fill="none" stroke-linecap="round" stroke-linejoin="round"/>
  <path d="M 12363.92 1697.03 L 12366.55 1705.44 L 12375.03 1712.64 L 12388.09 1717.46 L 12403.63 1719.14 L 12419.29 1717.46 L 12432.71 1712.64 L 12441.41 1705.68" stroke="black" stroke-width="4" fill="none" stroke-linecap="round" stroke-linejoin="round"/>
  <path d="M 12441.71 1705.44 L 12444.96 1697.03" stroke="black" stroke-width="4" fill="none" stroke-linecap="round" stroke-linejoin="round"/>
  <path d="M 12432.49 1689.71 L 12419.03 1694.50 L 12403.31 1696.17 L 12387.72 1694.50 L 12374.62 1689.71 L 12366.11 1682.55 L 12363.48 1674.19 L 12366.98 1665.89 L 12376.11 1658.86 L 12389.46 1654.20 L 12404.93 1652.58 L 12420.28 1654.20 L 12433.29 1658.86 L 12441.90 1665.89 L 12444.78 1674.19 L 12441.52 1682.55 L 12432.49 1689.71" stroke="black" stroke-width="4" fill="none" stroke-linecap="round" stroke-linejoin="round"/>
  <path d="M 12559.79 1921.66 L 12563.34 1931.57 L 12573.14 1940.08 L 12582.20 1943.61 L 12587.73 1945.77 L 12604.77 1947.76 L 12621.65 1945.77 L 12635.83 1940.08 L 12645.01 1931.57 L 12647.82 1921.66" stroke="black" stroke-width="4" fill="none" stroke-linecap="round" stroke-linejoin="round"/>
  <path d="M 12636.31 1915.96 L 12622.09 1921.63 L 12605.14 1923.61 L 12588.05 1921.63 L 12573.40 1915.96 L 12563.56 1907.50 L 12560.01 1897.63 L 12563.12 1887.83 L 12572.45 1879.54 L 12586.57 1874.04 L 12603.23 1872.13 L 12620.03 1874.04 L 12634.55 1879.54 L 12644.51 1887.83 L 12648.35 1897.63 L 12645.52 1907.50 L 12636.31 1915.96" stroke="black" stroke-width="4" fill="none" stroke-linecap="round" stroke-linejoin="round"/>
  <path d="M 12543.09 1861.94 L 12539.97 1871.45 L 12539.66 1871.72 L 12530.68 1879.59 L 12516.60 1885.05 L 12500.00 1886.95 L 12483.40 1885.05 L 12469.32 1879.59 L 12460.03 1871.45 L 12456.91 1861.94" stroke="black" stroke-width="4" fill="none" stroke-linecap="round" stroke-linejoin="round"/>
  <path d="M 12500.56 1837.44 L 12500.00 1837.38" stroke="black" stroke-width="4" fill="none" stroke-linecap="round" stroke-linejoin="round"/>
  <path d="M 12530.79 1855.78 L 12516.66 1861.21 L 12500.00 1863.10 L 12483.34 1861.21 L 12469.21 1855.78 L 12459.89 1847.67 L 12456.77 1838.22 L 12460.17 1828.83 L 12469.60 1820.88 L 12483.62 1815.61 L 12500.00 1813.78 L 12516.38 1815.61 L 12530.40 1820.88 L 12539.84 1828.83 L 12543.23 1838.22 L 12540.11 1847.67 L 12530.79 1855.78" stroke="black" stroke-width="4" fill="none" stroke-linecap="round" stroke-linejoin="round"/>
  <path d="M 12358.29 1804.70 L 12361.01 1813.81 L 12369.82 1821.62 L 12383.42 1826.86 L 12399.60 1828.68 L 12415.93 1826.86 L 12429.90 1821.62 L 12439.29 1813.81 L 12442.68 1804.70" stroke="black" stroke-width="4" fill="none" stroke-linecap="round" stroke-linejoin="round"/>
  <path d="M 12429.67 1798.11 L 12415.64 1803.31 L 12399.26 1805.13 L 12383.02 1803.31 L 12369.38 1798.11 L 12360.54 1790.34 L 12357.81 1781.27 L 12361.47 1772.27 L 12371.00 1764.65 L 12384.91 1759.59 L 12401.02 1757.84 L 12417.00 1759.59 L 12430.54 1764.65 L 12439.49 1772.27 L 12442.49 1781.27 L 12439.09 1790.34 L 12429.67 1798.11" stroke="black" stroke-width="4" fill="none" stroke-linecap="round" stroke-linejoin="round"/>
  <path d="M 12263.66 1749.78 L 12266.02 1758.52 L 12274.38 1766.02 L 12287.52 1771.04 L 12303.31 1772.79 L 12319.36 1771.04 L 12333.24 1766.02 L 12342.71 1758.52 L 12346.34 1749.78" stroke="black" stroke-width="4" fill="none" stroke-linecap="round" stroke-linejoin="round"/>
  <path d="M 12332.68 1742.80 L 12318.76 1747.79 L 12302.65 1749.53 L 12286.81 1747.79 L 12273.63 1742.80 L 12265.24 1735.34 L 12262.88 1726.64 L 12266.78 1718.00 L 12276.37 1710.69 L 12290.18 1705.83 L 12306.03 1704.15 L 12321.63 1705.83 L 12334.71 1710.69 L 12343.22 1718.00 L 12345.83 1726.64 L 12342.18 1735.34 L 12332.68 1742.80" stroke="black" stroke-width="4" fill="none" stroke-linecap="round" stroke-linejoin="round"/>
  <path d="M 12167.95 807.53 L 12621.90 981.15 L 12848.07 890.15 L 12782.06 867.18" stroke="black" stroke-width="4" fill="none" stroke-linecap="round" stroke-linejoin="round"/>
  <path d="M 12711.74 842.70 L 12661.79 825.32" stroke="black" stroke-width="4" fill="none" stroke-linecap="round" stroke-linejoin="round"/>
  <path d="M 12594.09 801.75 L 12547.06 785.38" stroke="black" stroke-width="4" fill="none" stroke-linecap="round" stroke-linejoin="round"/>
  <path d="M 12481.83 762.68 L 12437.51 747.25" stroke="black" stroke-width="4" fill="none" stroke-linecap="round" stroke-linejoin="round"/>
  <path d="M 12345.53 748.38 L 12300.66 763.32" stroke="black" stroke-width="4" fill="none" stroke-linecap="round" stroke-linejoin="round"/>
  <path d="M 12230.99 786.53 L 12167.95 807.53 L 12175.27 981.88 L 12618.95 1168.54 L 12616.14 1347.06 L 12182.27 1148.71 L 12175.27 981.88 L 12618.95 1168.54 L 12840.03 1070.81 L 12832.36 1243.32 L 12616.14 1347.06 L 12832.36 1243.32 L 12616.14 1347.06 L 12182.27 1148.71 L 12616.14 1347.06 L 12613.45 1517.33 L 12188.98 1308.49 L 12182.27 1148.71 L 12616.14 1347.06 L 12832.36 1243.32 L 12825.03 1408.21 L 12613.45 1517.33" stroke="black" stroke-width="4" fill="none" stroke-linecap="round" stroke-linejoin="round"/>
  <path d="M 12621.90 981.15 L 12618.95 1168.54 L 12175.27 981.88 L 12618.95 1168.54 L 12840.03 1070.81 L 12618.95 1168.54 L 12840.03 1070.81 L 12848.07 890.15" stroke="black" stroke-width="4" fill="none" stroke-linecap="round" stroke-linejoin="round"/>
  <path d="M 12682.85 890.15 L 12687.30 897.20 L 12698.68 903.24 L 12715.28 907.29 L 12734.44 908.70 L 12753.23 907.29 L 12768.80 903.24 L 12778.61 897.20 L 12781.24 890.15" stroke="black" stroke-width="4" fill="none" stroke-linecap="round" stroke-linejoin="round"/>
  <path d="M 12769.87 872.12 L 12754.25 876.12 L 12735.38 877.51 L 12716.14 876.12 L 12699.47 872.12 L 12688.04 866.16 L 12683.57 859.21 L 12686.57 852.32 L 12696.59 846.48 L 12712.08 842.62 L 12730.59 841.28 L 12749.46 842.62 L 12765.97 846.48 L 12777.53 852.32 L 12782.35 859.21 L 12779.72 866.16 L 12769.87 872.12" stroke="black" stroke-width="4" fill="none" stroke-linecap="round" stroke-linejoin="round"/>
  <path d="M 12565.26 847.87 L 12569.14 854.58 L 12579.87 860.34 L 12595.82 864.20 L 12614.43 865.55 L 12632.87 864.20 L 12648.32 860.34 L 12658.30 854.58 L 12661.33 847.87" stroke="black" stroke-width="4" fill="none" stroke-linecap="round" stroke-linejoin="round"/>
  <path d="M 12568.88 810.92 L 12579.05 805.36 L 12594.43 801.67 L 12612.60 800.39 L 12630.94 801.67 L 12646.80 805.36 L 12657.70 810.92 L 12661.95 817.49 L 12658.92 824.12 L 12648.90 829.80 L 12633.39 833.61 L 12614.88 834.94 L 12596.19 833.61 L 12580.18 829.80 L 12569.41 824.12 L 12565.51 817.49" stroke="black" stroke-width="4" fill="none" stroke-linecap="round" stroke-linejoin="round"/>
  <path d="M 12453.07 807.53 L 12456.45 813.94 L 12466.56 819.43 L 12476.09 821.72 L 12481.91 823.12 L 12500.00 824.40 L 12518.09 823.12 L 12533.44 819.43 L 12543.55 813.94 L 12546.93 807.53" stroke="black" stroke-width="4" fill="none" stroke-linecap="round" stroke-linejoin="round"/>
  <path d="M 12517.09 792.17 L 12500.00 790.98" stroke="black" stroke-width="4" fill="none" stroke-linecap="round" stroke-linejoin="round"/>
  <path d="M 12533.56 789.45 L 12518.16 793.08 L 12500.00 794.35 L 12481.84 793.08 L 12466.44 789.45 L 12456.29 784.02 L 12452.89 777.70 L 12456.61 771.43 L 12466.90 766.12 L 12482.16 762.60 L 12500.00 761.38 L 12517.84 762.60 L 12533.10 766.12 L 12543.39 771.43 L 12547.11 777.70 L 12543.72 784.02 L 12533.56 789.45" stroke="black" stroke-width="4" fill="none" stroke-linecap="round" stroke-linejoin="round"/>
  <path d="M 12433.98 775.13 L 12437.68 769.00" stroke="black" stroke-width="4" fill="none" stroke-linecap="round" stroke-linejoin="round"/>
  <path d="M 12345.93 769.00 L 12348.84 775.13 L 12358.39 780.38 L 12373.16 783.90 L 12390.76 785.12 L 12408.53 783.90 L 12423.75 780.38" stroke="black" stroke-width="4" fill="none" stroke-linecap="round" stroke-linejoin="round"/>
  <path d="M 12423.47 750.93 L 12408.19 754.40 L 12390.36 755.61 L 12372.69 754.40 L 12357.87 750.93 L 12348.28 745.75 L 12345.36 739.71 L 12349.39 733.72 L 12359.78 728.64 L 12374.92 725.28 L 12392.44 724.11 L 12409.80 725.28 L 12424.50 728.64 L 12434.22 733.71 L 12437.45 739.71 L 12433.73 745.75 L 12423.47 750.93" stroke="black" stroke-width="4" fill="none" stroke-linecap="round" stroke-linejoin="round"/>
  <path d="M 12600.60 952.53 L 12620.15 954.01 L 12639.50 952.53 L 12655.71 948.27 L 12666.16 941.92 L 12669.30 934.53" stroke="black" stroke-width="4" fill="none" stroke-linecap="round" stroke-linejoin="round"/>
  <path d="M 12568.48 934.53 L 12572.57 941.92 L 12583.84 948.27" stroke="black" stroke-width="4" fill="none" stroke-linecap="round" stroke-linejoin="round"/>
  <path d="M 12656.35 916.56 L 12640.07 920.76 L 12620.64 922.23 L 12601.01 920.76 L 12584.19 916.56 L 12572.87 910.30 L 12568.76 903.00 L 12572.29 895.76 L 12582.94 889.63 L 12599.07 885.58 L 12618.13 884.17 L 12637.37 885.58 L 12654.04 889.63 L 12665.50 895.76 L 12669.98 903.00 L 12666.83 910.30 L 12656.35 916.56" stroke="black" stroke-width="4" fill="none" stroke-linecap="round" stroke-linejoin="round"/>
  <path d="M 12549.19 890.15 L 12545.66 897.20 L 12545.30 897.40 L 12535.06 903.24 L 12518.98 907.29 L 12500.00 908.70 L 12481.02 907.29 L 12464.94 903.24 L 12454.34 897.20 L 12450.81 890.15" stroke="black" stroke-width="4" fill="none" stroke-linecap="round" stroke-linejoin="round"/>
  <path d="M 12515.67 873.12 L 12500.00 871.98" stroke="black" stroke-width="4" fill="none" stroke-linecap="round" stroke-linejoin="round"/>
  <path d="M 12454.08 853.08 L 12454.52 852.32 L 12465.31 846.48 L 12481.31 842.62 L 12500.00 841.28 L 12518.69 842.62 L 12534.69 846.48 L 12545.48 852.32 L 12549.39 859.21 L 12545.84 866.16 L 12535.20 872.12 L 12519.05 876.12 L 12500.00 877.51 L 12480.95 876.12 L 12464.80 872.12 L 12454.16 866.16 L 12450.61 859.21" stroke="black" stroke-width="4" fill="none" stroke-linecap="round" stroke-linejoin="round"/>
  <path d="M 12338.67 847.87 L 12341.70 854.58 L 12351.68 860.34 L 12367.13 864.20 L 12385.57 865.55 L 12404.18 864.20 L 12420.13 860.34 L 12430.86 854.58 L 12434.74 847.87" stroke="black" stroke-width="4" fill="none" stroke-linecap="round" stroke-linejoin="round"/>
  <path d="M 12419.82 829.80 L 12403.81 833.61 L 12385.12 834.94 L 12366.61 833.61 L 12351.10 829.80 L 12341.08 824.12 L 12338.05 817.49 L 12342.30 810.92 L 12353.20 805.36 L 12369.06 801.67 L 12387.40 800.39 L 12405.57 801.67 L 12420.95 805.36 L 12431.12 810.92 L 12434.49 817.49 L 12430.59 824.12 L 12419.82 829.80" stroke="black" stroke-width="4" fill="none" stroke-linecap="round" stroke-linejoin="round"/>
  <path d="M 12231.70 807.53 L 12234.25 813.94 L 12243.66 819.43 L 12258.52 823.12 L 12276.45 824.40 L 12294.71 823.12 L 12310.53 819.43 L 12321.35 813.94 L 12325.56 807.53" stroke="black" stroke-width="4" fill="none" stroke-linecap="round" stroke-linejoin="round"/>
  <path d="M 12309.81 789.45 L 12293.93 793.08 L 12275.60 794.35 L 12257.61 793.08 L 12242.68 789.45 L 12233.25 784.02 L 12230.69 777.70 L 12235.24 771.43 L 12246.23 766.12 L 12261.95 762.60 L 12279.95 761.38 L 12297.63 762.60 L 12312.43 766.12 L 12322.02 771.43 L 12324.90 777.70 L 12320.68 784.02 L 12309.81 789.45" stroke="black" stroke-width="4" fill="none" stroke-linecap="round" stroke-linejoin="round"/>
</svg>
