<svg width="385" height="370" xmlns="http://www.w3.org/2000/svg" viewBox="0 0 385 370"><g fill-rule="evenodd"><path d="m289.63 123.49 88.23 124.41-154.69 108.07 66.47-232.48z" fill="#766730"/><path d="m49.18 186.9 239.53-63.71-65.85 231.26L49.18 186.9z" fill="#68943b"/><path d="m289.93 121.65 34.61-63.71 53.4 189.58-88.01-125.86z" fill="#8c6941"/><path d="m134.94 4.04 188.37 52.99-34.92 64.94L134.94 4.04z" fill="#8f824d"/><path d="m49.18 188.73 2.3 147.69 170.76 18.33L49.18 188.73z" fill="#447f49"/><path d="M377.67 247.23 236.94 364.55l-12.25-8.88 152.98-108.44z" fill="#795650"/><path d="m134.94 6.49-86.07 179.8 237.69-64.02L134.94 6.49z" fill="#629c38"/><path d="m134.33 4.95-85.46 179.8-39.51-42.27L134.33 4.95z" fill="#4c9369"/><path d="m9.06 144.01 38.9 42.58 2.45 148.86L9.06 144.01z" fill="#31785a"/><path d="m223.16 355.67 12.86 9.19-184.7-25.73 171.83 16.54z" fill="#485750"/></g><path d="m136.47 4.96-3.98.61 28.79 70.14L10.9 139.42l1.52 3.68 147.95-63.41-42.28 163.87-59.41-59.11-7.35 2.44 64.32 60.64-65.55 84.54 2.16 5.51 66.46-88.52 117.93 116.09.91-5.21L122.4 246.92l163.55-42.58-51.68 157.72 1.76 1.27 3.37-2.46.61-3.05 49.31-153.16 85.69 46.36 1.84-4.89-86.6-44.21 33.7-141.21-5.21 5.82-31.25 132.01-121.3-120.99L322.1 59.16l-3.98-3.68L163.74 75.1 136.47 4.96zm27.27 75.65L284.73 201.6l-164.17 43.19 43.19-164.17z" opacity=".33"/><g fill="none" stroke-linejoin="round"><g stroke-width="4.53"><path d="m223.61 355.09 11.07 8.83c51.29-34.33 96.12-76.86 143.26-116.52L223.61 355.09z" stroke="#39311e"/><path d="m223.61 355.09 59.64-211.88s4.12-20.77 8.56-16.12c3.44 3.61 86.38 120.06 86.38 120.06L223.61 355.09z" stroke="#39420c"/><path d="m322.97 58.07-33.38 65.62-63.82-49.65c-3.92-3.09-90.13-68.52-90.13-68.52s1.56-1.16 8.68.48c6.66 1.53 178.71 51.36 178.64 52.08z" stroke="#293003"/></g><path d="m9.74 141.9 39.15 44.25 35.24-75.64c2.16-4.71 50.75-104.82 50.75-104.82s-1.22-1.5-6.67 4.56L9.74 141.9z" stroke="#0c411b" stroke-width="4.16"/><g stroke-width="4.53"><path d="m288.65 123.3-236.5 62.38s-2.25 1.29-.96-3.54S134.86 5.5 134.86 5.5s2.64 1.7 8.66 5.83c5.63 3.87 145.45 111.33 145.13 111.97z" stroke="#3c671e"/><path d="m222.85 354.33 11.83 9.59-183.4-27.41 171.58 17.82z" stroke="#333720"/></g><path d="M223.51 354.39 51.37 335.75l172.14 18.64z" stroke="#194428" stroke-width="4.16"/><g stroke-width="4.53"><path d="m290.05 123.18 33.21-64.36 22.54 77.65 32.27 110.77-88.02-124.06z" stroke="#513e2a"/><path d="m49.06 186.48 239.74-63.26s1.11-2.42-.55 3.79c-1.29 4.82-63.98 226.65-63.98 226.65s.64 3.86-3.86-1.29S48.74 187.12 49.06 186.48z" stroke="#274111"/></g><path d="m9.23 142.07 40.89 44.08-.82 41.24c-.54 5.15 2.26 108.9 2.26 108.9s-1.81.66-3.4-7.33L9.23 142.07z" stroke="#194428" stroke-width="4.16"/></g></svg>