<svg width="435.0" height="210.0" xmlns="http://www.w3.org/2000/svg" xmlns:xlink="http://www.w3.org/1999/xlink">
<svg x="0.0" y="0.0" width="210.0" height="210.0" viewBox="0 0 210 210" xmlns="http://www.w3.org/2000/svg" xmlns:xlink="http://www.w3.org/1999/xlink">
<defs>
<clipPath id="clip-4535355104-4535260240">
<circle cx="105.0" cy="105.0" r="100" fill="none" />
</clipPath>
</defs>
<g>
<circle cx="105.0" cy="105.0" r="100" fill="#F5C754" />
<use xlink:href="#clip-4535355104-4535260240" />
<g clip-path="url(#clip-4535355104-4535260240)">
<circle cx="105.0" cy="105.0" r="92" stroke="#DAA05D" stroke-width="16" fill="none" />
<circle cx="105.0" cy="105.0" r="98" stroke="#C37B32" stroke-width="5" fill="none" />
<circle cx="106.04671181435587" cy="62.45437231498156" r="2.0601618655654264" fill="#D2691E" fill-opacity="0.4186801674711601" />
<circle cx="80.52340581256708" cy="160.3957633786115" r="5.532768573449736" fill="#FFFFFF" fill-opacity="0.5358362512888857" />
<circle cx="110.13995513126292" cy="55.89195586276667" r="5.733508800439511" fill="#FFDE75" fill-opacity="0.5089396662994363" />
<circle cx="146.44711269287671" cy="99.8911244353573" r="5.968506977133076" fill="#FFDE75" fill-opacity="0.38579228356693285" />
<circle cx="131.80260259437173" cy="154.2128561172653" r="3.1317058636878445" fill="#FFFFFF" fill-opacity="0.5867442997384147" />
<circle cx="180.14406498448108" cy="83.32128808072561" r="5.331017858191366" fill="#FFFFFF" fill-opacity="0.3410611052128746" />
<circle cx="170.88571645854802" cy="131.1502271629871" r="2.2607142923491153" fill="#8B4513" fill-opacity="0.3080281441908004" />
<circle cx="113.8466357745512" cy="93.07606794746137" r="4.424068308080248" fill="#D2691E" fill-opacity="0.4966295222142125" />
<circle cx="104.12167262604605" cy="109.29840354342628" r="5.550045084219729" fill="#FFFFFF" fill-opacity="0.20746338049773894" />
<circle cx="36.63454041372853" cy="63.859035100866095" r="3.364303658299853" fill="#D2691E" fill-opacity="0.5396783958627521" />
<circle cx="84.93106050863818" cy="179.42230399671956" r="5.619215413927192" fill="#8B4513" fill-opacity="0.5355647574943023" />
<circle cx="145.37574551964093" cy="54.39976610747665" r="4.836141960388945" fill="#FFFFFF" fill-opacity="0.5019109562013944" />
<circle cx="124.43579100349163" cy="115.96141049343434" r="2.517047876673818" fill="#FFFFFF" fill-opacity="0.3818445243843268" />
<circle cx="60.014231726662636" cy="62.57883678656995" r="4.097320167875402" fill="#FFFFFF" fill-opacity="0.2022905571206174" />
<circle cx="54.43841402081828" cy="70.40704227750511" r="2.1134841770921993" fill="#8B4513" fill-opacity="0.37475315075095783" />
<circle cx="109.70987310014726" cy="110.46684094294805" r="4.799730686383937" fill="#D2691E" fill-opacity="0.43678295966141184" />
<circle cx="108.70246784963433" cy="119.93968880319495" r="4.988999027007301" fill="#8B4513" fill-opacity="0.5351607480456788" />
<circle cx="157.83451350821272" cy="41.4159478175386" r="2.339249025995544" fill="#FFFFFF" fill-opacity="0.21348343492059552" />
<circle cx="134.62624548495242" cy="161.17259764876357" r="3.885251920237702" fill="#FFDE75" fill-opacity="0.5495842558942172" />
<circle cx="31.79783571837335" cy="85.05459428412924" r="5.253401659336401" fill="#8B4513" fill-opacity="0.4027161871777555" />
<circle cx="78.02339502557616" cy="42.8761174692462" r="5.567880710502443" fill="#FFDE75" fill-opacity="0.2712769505405489" />
<circle cx="94.02205698447831" cy="72.50494552315652" r="2.3126870073375487" fill="#FFDE75" fill-opacity="0.38798310397613317" />
<circle cx="144.89695477654232" cy="159.81220281360982" r="4.1063887474604535" fill="#8B4513" fill-opacity="0.2545181353860134" />
<circle cx="91.73784821710603" cy="105.92715574412634" r="5.476026069035213" fill="#FFFFFF" fill-opacity="0.40832539451291316" />
<circle cx="92.57350939906728" cy="142.52412153316902" r="5.7199678411202175" fill="#FFFFFF" fill-opacity="0.2853341377773623" />
<circle cx="44.85554993317821" cy="74.12541946153374" r="2.1134048640531997" fill="#8B4513" fill-opacity="0.5871083842356362" />
<circle cx="161.81329686844595" cy="118.35871043331227" r="3.2374446093286613" fill="#D2691E" fill-opacity="0.23439555247708724" />
<circle cx="55.96270816192733" cy="78.2928609073539" r="3.322253499340185" fill="#D2691E" fill-opacity="0.3916928861325783" />
<circle cx="121.72970963325756" cy="71.03715901436505" r="5.820325524037247" fill="#8B4513" fill-opacity="0.30252357636636706" />
<circle cx="89.7320824231336" cy="57.475448681591516" r="3.9930170323134764" fill="#FFDE75" fill-opacity="0.39288928982582416" />
<circle cx="49.34765911743287" cy="87.53266555913689" r="2.8411281398759547" fill="#8B4513" fill-opacity="0.5577483143974893" />
<circle cx="91.4039208977961" cy="152.535834209362" r="4.626601896999952" fill="#FFFFFF" fill-opacity="0.5526697279592332" />
<circle cx="36.29452834557503" cy="75.92476294495594" r="2.816477807539922" fill="#FFDE75" fill-opacity="0.25148884543295885" />
<circle cx="94.53774765856936" cy="100.70551167800784" r="2.236072846313938" fill="#8B4513" fill-opacity="0.47389807393859745" />
<circle cx="32.02989872355633" cy="126.02076392883703" r="4.823332603227136" fill="#FFFFFF" fill-opacity="0.5784130333770745" />
<circle cx="69.15716871868192" cy="156.44299632433086" r="2.203193774551525" fill="#8B4513" fill-opacity="0.5572551995323725" />
<circle cx="159.4685073019955" cy="72.61833343137707" r="2.4850847461773102" fill="#D2691E" fill-opacity="0.35252417814144255" />
<circle cx="165.31242949492741" cy="99.64398003887419" r="3.681185080139954" fill="#D2691E" fill-opacity="0.5772155442837181" />
<circle cx="102.88676158432962" cy="73.24965954978825" r="4.996149346469641" fill="#8B4513" fill-opacity="0.551251099044295" />
<circle cx="177.13889143098194" cy="79.39565191768912" r="4.259525158712043" fill="#D2691E" fill-opacity="0.558393353822562" />
<circle cx="161.9632123490701" cy="86.03603346704944" r="3.47832261083467" fill="#8B4513" fill-opacity="0.4117938972112487" />
<circle cx="101.44591425860598" cy="31.170842447710825" r="4.608158304960039" fill="#8B4513" fill-opacity="0.5624701800801248" />
<circle cx="59.42559655565199" cy="111.89692991924575" r="2.9677336738573956" fill="#FFFFFF" fill-opacity="0.28704362918553855" />
<circle cx="128.00511882323488" cy="58.46819894098021" r="4.242106317491521" fill="#FFDE75" fill-opacity="0.24552920375164713" />
<circle cx="78.82964242477358" cy="25.002637277273664" r="3.4780941228628937" fill="#8B4513" fill-opacity="0.5018634264734823" />
<circle cx="169.07132478575465" cy="159.2787225982627" r="3.5533038043121103" fill="#FFDE75" fill-opacity="0.4159384402939311" />
<circle cx="137.35964147556035" cy="179.1949645426646" r="3.696688830770567" fill="#FFDE75" fill-opacity="0.5481061006607562" />
<circle cx="105.1494950504435" cy="133.5996789172329" r="4.544409924426981" fill="#8B4513" fill-opacity="0.2741598619136084" />
<circle cx="146.48753690189437" cy="173.7328517857435" r="4.284245472813049" fill="#FFDE75" fill-opacity="0.3870033434235298" />
<circle cx="105.57846211208647" cy="49.27309789441319" r="3.2685133371963917" fill="#FFDE75" fill-opacity="0.43754628863332296" />
<circle cx="126.32294606146486" cy="25.294243245794377" r="5.257104323543668" fill="#FFFFFF" fill-opacity="0.23973002162556104" />
<circle cx="70.50492125118949" cy="62.15288399995476" r="4.70563668892921" fill="#D2691E" fill-opacity="0.43885100720500775" />
<circle cx="113.16761556453893" cy="75.7542492232368" r="4.7111847188948595" fill="#FFFFFF" fill-opacity="0.2062744841325298" />
<circle cx="133.76913898399255" cy="80.53316386481032" r="4.606055008750288" fill="#FFFFFF" fill-opacity="0.5497755259112334" />
<circle cx="55.997258797134236" cy="140.33545580616763" r="5.212756066162024" fill="#8B4513" fill-opacity="0.30707213081890716" />
<circle cx="120.60898589854011" cy="113.44578684414034" r="4.020733351886635" fill="#D2691E" fill-opacity="0.5012186189432812" />
<circle cx="167.90932081240413" cy="53.270954354714206" r="4.818599831915779" fill="#FFDE75" fill-opacity="0.5790762457052916" />
<circle cx="145.1892592761896" cy="121.50851469869684" r="5.668733830091311" fill="#8B4513" fill-opacity="0.22769779379818283" />
<circle cx="93.16459855110034" cy="179.83129317588887" r="2.3659273067205513" fill="#FFDE75" fill-opacity="0.20321899239979546" />
<circle cx="79.43064031321869" cy="77.06707132435204" r="3.196054242497642" fill="#FFFFFF" fill-opacity="0.2333203841655502" />
<ellipse cx="91.90440816818948" cy="40.27985217736803" rx="8.379497136539474" ry="4.634430665031189" fill="#FFFDF0" fill-opacity="0.6" />
<ellipse cx="91.8218422746185" cy="39.68649644516183" rx="3.139192819087269" ry="2.865773690918794" fill="#FFFFFF" fill-opacity="0.85" />
<ellipse cx="74.13668412985544" cy="50.729313639814634" rx="7.504800798940942" ry="4.976927417200895" fill="#FFFDF0" fill-opacity="0.6" />
<ellipse cx="74.10279896569195" cy="51.70285981733246" rx="2.5993484041914536" ry="2.1678604140742284" fill="#FFFFFF" fill-opacity="0.85" />
<ellipse cx="153.89900702997113" cy="146.4261372797928" rx="7.189638050001775" ry="5.424659316048619" fill="#FFFDF0" fill-opacity="0.6" />
<ellipse cx="154.71204058407352" cy="145.9019767497407" rx="3.2194402624465943" ry="2.291012457798468" fill="#FFFFFF" fill-opacity="0.85" />
<ellipse cx="129.54737470431974" cy="166.0238911228891" rx="5.42019857795394" ry="5.183830468027512" fill="#FFFDF0" fill-opacity="0.6" />
<ellipse cx="129.54499835786112" cy="165.1336411897967" rx="4.037453945409782" ry="2.80556455414503" fill="#FFFFFF" fill-opacity="0.85" />
<ellipse cx="92.95953766999908" cy="43.70458974007884" rx="6.1215518628891035" ry="5.6049289294392475" fill="#FFFDF0" fill-opacity="0.6" />
<ellipse cx="93.85710107846087" cy="43.90345603142619" rx="4.616223416445193" ry="3.727968930803065" fill="#FFFFFF" fill-opacity="0.85" />
<ellipse cx="134.51100376600525" cy="54.297102450246996" rx="9.835963123555153" ry="4.748899208566824" fill="#FFFDF0" fill-opacity="0.6" />
<ellipse cx="133.67163964093297" cy="55.249200191069974" rx="3.7695695882354445" ry="2.0193055666432445" fill="#FFFFFF" fill-opacity="0.85" />
<ellipse cx="64.66234577935762" cy="76.98860628676292" rx="8.244976161951444" ry="7.861549156725491" fill="#FFFDF0" fill-opacity="0.6" />
<ellipse cx="64.13865191983326" cy="76.8469610711258" rx="4.5643007777498585" ry="3.4089491707207076" fill="#FFFFFF" fill-opacity="0.85" />
<ellipse cx="182.64384396211923" cy="112.15258037620887" rx="7.838368945504738" ry="7.802808469211579" fill="#FFFDF0" fill-opacity="0.6" />
<ellipse cx="181.8739861801049" cy="111.65224133542254" rx="4.521546930597623" ry="3.791878585885767" fill="#FFFFFF" fill-opacity="0.85" />
<ellipse cx="173.9459280422734" cy="140.6224605206086" rx="6.766663460892836" ry="8.05416205412784" fill="#FFFDF0" fill-opacity="0.6" />
<ellipse cx="173.08556386327334" cy="141.4900046063738" rx="2.643825555593003" ry="2.268274673796795" fill="#FFFFFF" fill-opacity="0.85" />
<ellipse cx="67.9744720799904" cy="120.70230414371318" rx="9.871479662733162" ry="7.296186451821155" fill="#FFFDF0" fill-opacity="0.6" />
<ellipse cx="68.26094389065788" cy="121.51980268140635" rx="3.1550633493249127" ry="2.6146225668151883" fill="#FFFFFF" fill-opacity="0.85" />
<ellipse cx="65.26729186128942" cy="59.687904265437254" rx="5.956616882573258" ry="6.221911124125691" fill="#FFFDF0" fill-opacity="0.6" />
<ellipse cx="64.31613821457896" cy="59.89797029071863" rx="3.3055855734335644" ry="2.1375419687686126" fill="#FFFFFF" fill-opacity="0.85" />
<ellipse cx="121.88775549281131" cy="150.73753896323262" rx="9.284161454541666" ry="5.2855833000482955" fill="#FFFDF0" fill-opacity="0.6" />
<ellipse cx="122.05921814104984" cy="150.30081123319314" rx="2.077168584055058" ry="2.196584160331034" fill="#FFFFFF" fill-opacity="0.85" />
</g>
<path d="M105.0,105.0 L105.0,5.0" stroke="lightgray" stroke-width="2" />
<path d="M105.0,105.0 L205.0,105.0" stroke="lightgray" stroke-width="2" />
<path d="M105.0,105.0 L105.0,205.0" stroke="lightgray" stroke-width="2" />
<path d="M105.0,105.0 L5.0,105.00000000000001" stroke="lightgray" stroke-width="2" />
<circle cx="105.0" cy="105.0" r="100" fill="none" stroke="lightgray" stroke-width="2" />
</g>
</svg>
<svg x="225.0" y="0.0" width="210.0" height="210.0" viewBox="0 0 210 210" xmlns="http://www.w3.org/2000/svg" xmlns:xlink="http://www.w3.org/1999/xlink">
<defs>
<clipPath id="clip-4535355104-4471967312">
<circle cx="105.0" cy="105.0" r="100" fill="none" />
</clipPath>
</defs>
<g>
<circle cx="105.0" cy="105.0" r="100" fill="#F5C754" />
<use xlink:href="#clip-4535355104-4471967312" />
<g clip-path="url(#clip-4535355104-4471967312)">
<circle cx="105.0" cy="105.0" r="92" stroke="#DAA05D" stroke-width="16" fill="none" />
<circle cx="105.0" cy="105.0" r="98" stroke="#C37B32" stroke-width="5" fill="none" />
<circle cx="106.04671181435587" cy="62.45437231498156" r="2.0601618655654264" fill="#D2691E" fill-opacity="0.4186801674711601" />
<circle cx="80.52340581256708" cy="160.3957633786115" r="5.532768573449736" fill="#FFFFFF" fill-opacity="0.5358362512888857" />
<circle cx="110.13995513126292" cy="55.89195586276667" r="5.733508800439511" fill="#FFDE75" fill-opacity="0.5089396662994363" />
<circle cx="146.44711269287671" cy="99.8911244353573" r="5.968506977133076" fill="#FFDE75" fill-opacity="0.38579228356693285" />
<circle cx="131.80260259437173" cy="154.2128561172653" r="3.1317058636878445" fill="#FFFFFF" fill-opacity="0.5867442997384147" />
<circle cx="180.14406498448108" cy="83.32128808072561" r="5.331017858191366" fill="#FFFFFF" fill-opacity="0.3410611052128746" />
<circle cx="170.88571645854802" cy="131.1502271629871" r="2.2607142923491153" fill="#8B4513" fill-opacity="0.3080281441908004" />
<circle cx="113.8466357745512" cy="93.07606794746137" r="4.424068308080248" fill="#D2691E" fill-opacity="0.4966295222142125" />
<circle cx="104.12167262604605" cy="109.29840354342628" r="5.550045084219729" fill="#FFFFFF" fill-opacity="0.20746338049773894" />
<circle cx="36.63454041372853" cy="63.859035100866095" r="3.364303658299853" fill="#D2691E" fill-opacity="0.5396783958627521" />
<circle cx="84.93106050863818" cy="179.42230399671956" r="5.619215413927192" fill="#8B4513" fill-opacity="0.5355647574943023" />
<circle cx="145.37574551964093" cy="54.39976610747665" r="4.836141960388945" fill="#FFFFFF" fill-opacity="0.5019109562013944" />
<circle cx="124.43579100349163" cy="115.96141049343434" r="2.517047876673818" fill="#FFFFFF" fill-opacity="0.3818445243843268" />
<circle cx="60.014231726662636" cy="62.57883678656995" r="4.097320167875402" fill="#FFFFFF" fill-opacity="0.2022905571206174" />
<circle cx="54.43841402081828" cy="70.40704227750511" r="2.1134841770921993" fill="#8B4513" fill-opacity="0.37475315075095783" />
<circle cx="109.70987310014726" cy="110.46684094294805" r="4.799730686383937" fill="#D2691E" fill-opacity="0.43678295966141184" />
<circle cx="108.70246784963433" cy="119.93968880319495" r="4.988999027007301" fill="#8B4513" fill-opacity="0.5351607480456788" />
<circle cx="157.83451350821272" cy="41.4159478175386" r="2.339249025995544" fill="#FFFFFF" fill-opacity="0.21348343492059552" />
<circle cx="134.62624548495242" cy="161.17259764876357" r="3.885251920237702" fill="#FFDE75" fill-opacity="0.5495842558942172" />
<circle cx="31.79783571837335" cy="85.05459428412924" r="5.253401659336401" fill="#8B4513" fill-opacity="0.4027161871777555" />
<circle cx="78.02339502557616" cy="42.8761174692462" r="5.567880710502443" fill="#FFDE75" fill-opacity="0.2712769505405489" />
<circle cx="94.02205698447831" cy="72.50494552315652" r="2.3126870073375487" fill="#FFDE75" fill-opacity="0.38798310397613317" />
<circle cx="144.89695477654232" cy="159.81220281360982" r="4.1063887474604535" fill="#8B4513" fill-opacity="0.2545181353860134" />
<circle cx="91.73784821710603" cy="105.92715574412634" r="5.476026069035213" fill="#FFFFFF" fill-opacity="0.40832539451291316" />
<circle cx="92.57350939906728" cy="142.52412153316902" r="5.7199678411202175" fill="#FFFFFF" fill-opacity="0.2853341377773623" />
<circle cx="44.85554993317821" cy="74.12541946153374" r="2.1134048640531997" fill="#8B4513" fill-opacity="0.5871083842356362" />
<circle cx="161.81329686844595" cy="118.35871043331227" r="3.2374446093286613" fill="#D2691E" fill-opacity="0.23439555247708724" />
<circle cx="55.96270816192733" cy="78.2928609073539" r="3.322253499340185" fill="#D2691E" fill-opacity="0.3916928861325783" />
<circle cx="121.72970963325756" cy="71.03715901436505" r="5.820325524037247" fill="#8B4513" fill-opacity="0.30252357636636706" />
<circle cx="89.7320824231336" cy="57.475448681591516" r="3.9930170323134764" fill="#FFDE75" fill-opacity="0.39288928982582416" />
<circle cx="49.34765911743287" cy="87.53266555913689" r="2.8411281398759547" fill="#8B4513" fill-opacity="0.5577483143974893" />
<circle cx="91.4039208977961" cy="152.535834209362" r="4.626601896999952" fill="#FFFFFF" fill-opacity="0.5526697279592332" />
<circle cx="36.29452834557503" cy="75.92476294495594" r="2.816477807539922" fill="#FFDE75" fill-opacity="0.25148884543295885" />
<circle cx="94.53774765856936" cy="100.70551167800784" r="2.236072846313938" fill="#8B4513" fill-opacity="0.47389807393859745" />
<circle cx="32.02989872355633" cy="126.02076392883703" r="4.823332603227136" fill="#FFFFFF" fill-opacity="0.5784130333770745" />
<circle cx="69.15716871868192" cy="156.44299632433086" r="2.203193774551525" fill="#8B4513" fill-opacity="0.5572551995323725" />
<circle cx="159.4685073019955" cy="72.61833343137707" r="2.4850847461773102" fill="#D2691E" fill-opacity="0.35252417814144255" />
<circle cx="165.31242949492741" cy="99.64398003887419" r="3.681185080139954" fill="#D2691E" fill-opacity="0.5772155442837181" />
<circle cx="102.88676158432962" cy="73.24965954978825" r="4.996149346469641" fill="#8B4513" fill-opacity="0.551251099044295" />
<circle cx="177.13889143098194" cy="79.39565191768912" r="4.259525158712043" fill="#D2691E" fill-opacity="0.558393353822562" />
<circle cx="161.9632123490701" cy="86.03603346704944" r="3.47832261083467" fill="#8B4513" fill-opacity="0.4117938972112487" />
<circle cx="101.44591425860598" cy="31.170842447710825" r="4.608158304960039" fill="#8B4513" fill-opacity="0.5624701800801248" />
<circle cx="59.42559655565199" cy="111.89692991924575" r="2.9677336738573956" fill="#FFFFFF" fill-opacity="0.28704362918553855" />
<circle cx="128.00511882323488" cy="58.46819894098021" r="4.242106317491521" fill="#FFDE75" fill-opacity="0.24552920375164713" />
<circle cx="78.82964242477358" cy="25.002637277273664" r="3.4780941228628937" fill="#8B4513" fill-opacity="0.5018634264734823" />
<circle cx="169.07132478575465" cy="159.2787225982627" r="3.5533038043121103" fill="#FFDE75" fill-opacity="0.4159384402939311" />
<circle cx="137.35964147556035" cy="179.1949645426646" r="3.696688830770567" fill="#FFDE75" fill-opacity="0.5481061006607562" />
<circle cx="105.1494950504435" cy="133.5996789172329" r="4.544409924426981" fill="#8B4513" fill-opacity="0.2741598619136084" />
<circle cx="146.48753690189437" cy="173.7328517857435" r="4.284245472813049" fill="#FFDE75" fill-opacity="0.3870033434235298" />
<circle cx="105.57846211208647" cy="49.27309789441319" r="3.2685133371963917" fill="#FFDE75" fill-opacity="0.43754628863332296" />
<circle cx="126.32294606146486" cy="25.294243245794377" r="5.257104323543668" fill="#FFFFFF" fill-opacity="0.23973002162556104" />
<circle cx="70.50492125118949" cy="62.15288399995476" r="4.70563668892921" fill="#D2691E" fill-opacity="0.43885100720500775" />
<circle cx="113.16761556453893" cy="75.7542492232368" r="4.7111847188948595" fill="#FFFFFF" fill-opacity="0.2062744841325298" />
<circle cx="133.76913898399255" cy="80.53316386481032" r="4.606055008750288" fill="#FFFFFF" fill-opacity="0.5497755259112334" />
<circle cx="55.997258797134236" cy="140.33545580616763" r="5.212756066162024" fill="#8B4513" fill-opacity="0.30707213081890716" />
<circle cx="120.60898589854011" cy="113.44578684414034" r="4.020733351886635" fill="#D2691E" fill-opacity="0.5012186189432812" />
<circle cx="167.90932081240413" cy="53.270954354714206" r="4.818599831915779" fill="#FFDE75" fill-opacity="0.5790762457052916" />
<circle cx="145.1892592761896" cy="121.50851469869684" r="5.668733830091311" fill="#8B4513" fill-opacity="0.22769779379818283" />
<circle cx="93.16459855110034" cy="179.83129317588887" r="2.3659273067205513" fill="#FFDE75" fill-opacity="0.20321899239979546" />
<circle cx="79.43064031321869" cy="77.06707132435204" r="3.196054242497642" fill="#FFFFFF" fill-opacity="0.2333203841655502" />
<ellipse cx="91.90440816818948" cy="40.27985217736803" rx="8.379497136539474" ry="4.634430665031189" fill="#FFFDF0" fill-opacity="0.6" />
<ellipse cx="91.8218422746185" cy="39.68649644516183" rx="3.139192819087269" ry="2.865773690918794" fill="#FFFFFF" fill-opacity="0.85" />
<ellipse cx="74.13668412985544" cy="50.729313639814634" rx="7.504800798940942" ry="4.976927417200895" fill="#FFFDF0" fill-opacity="0.6" />
<ellipse cx="74.10279896569195" cy="51.70285981733246" rx="2.5993484041914536" ry="2.1678604140742284" fill="#FFFFFF" fill-opacity="0.85" />
<ellipse cx="153.89900702997113" cy="146.4261372797928" rx="7.189638050001775" ry="5.424659316048619" fill="#FFFDF0" fill-opacity="0.6" />
<ellipse cx="154.71204058407352" cy="145.9019767497407" rx="3.2194402624465943" ry="2.291012457798468" fill="#FFFFFF" fill-opacity="0.85" />
<ellipse cx="129.54737470431974" cy="166.0238911228891" rx="5.42019857795394" ry="5.183830468027512" fill="#FFFDF0" fill-opacity="0.6" />
<ellipse cx="129.54499835786112" cy="165.1336411897967" rx="4.037453945409782" ry="2.80556455414503" fill="#FFFFFF" fill-opacity="0.85" />
<ellipse cx="92.95953766999908" cy="43.70458974007884" rx="6.1215518628891035" ry="5.6049289294392475" fill="#FFFDF0" fill-opacity="0.6" />
<ellipse cx="93.85710107846087" cy="43.90345603142619" rx="4.616223416445193" ry="3.727968930803065" fill="#FFFFFF" fill-opacity="0.85" />
<ellipse cx="134.51100376600525" cy="54.297102450246996" rx="9.835963123555153" ry="4.748899208566824" fill="#FFFDF0" fill-opacity="0.6" />
<ellipse cx="133.67163964093297" cy="55.249200191069974" rx="3.7695695882354445" ry="2.0193055666432445" fill="#FFFFFF" fill-opacity="0.85" />
<ellipse cx="64.66234577935762" cy="76.98860628676292" rx="8.244976161951444" ry="7.861549156725491" fill="#FFFDF0" fill-opacity="0.6" />
<ellipse cx="64.13865191983326" cy="76.8469610711258" rx="4.5643007777498585" ry="3.4089491707207076" fill="#FFFFFF" fill-opacity="0.85" />
<ellipse cx="182.64384396211923" cy="112.15258037620887" rx="7.838368945504738" ry="7.802808469211579" fill="#FFFDF0" fill-opacity="0.6" />
<ellipse cx="181.8739861801049" cy="111.65224133542254" rx="4.521546930597623" ry="3.791878585885767" fill="#FFFFFF" fill-opacity="0.85" />
<ellipse cx="173.9459280422734" cy="140.6224605206086" rx="6.766663460892836" ry="8.05416205412784" fill="#FFFDF0" fill-opacity="0.6" />
<ellipse cx="173.08556386327334" cy="141.4900046063738" rx="2.643825555593003" ry="2.268274673796795" fill="#FFFFFF" fill-opacity="0.85" />
<ellipse cx="67.9744720799904" cy="120.70230414371318" rx="9.871479662733162" ry="7.296186451821155" fill="#FFFDF0" fill-opacity="0.6" />
<ellipse cx="68.26094389065788" cy="121.51980268140635" rx="3.1550633493249127" ry="2.6146225668151883" fill="#FFFFFF" fill-opacity="0.85" />
<ellipse cx="65.26729186128942" cy="59.687904265437254" rx="5.956616882573258" ry="6.221911124125691" fill="#FFFDF0" fill-opacity="0.6" />
<ellipse cx="64.31613821457896" cy="59.89797029071863" rx="3.3055855734335644" ry="2.1375419687686126" fill="#FFFFFF" fill-opacity="0.85" />
<ellipse cx="121.88775549281131" cy="150.73753896323262" rx="9.284161454541666" ry="5.2855833000482955" fill="#FFFDF0" fill-opacity="0.6" />
<ellipse cx="122.05921814104984" cy="150.30081123319314" rx="2.077168584055058" ry="2.196584160331034" fill="#FFFFFF" fill-opacity="0.85" />
</g>
<path d="M105.0,105.0 L105.0,5.0" stroke="lightgray" stroke-width="2" />
<path d="M105.0,105.0 L205.0,105.0" stroke="lightgray" stroke-width="2" />
<path d="M105.0,105.0 L105.0,205.0" stroke="lightgray" stroke-width="2" />
<path d="M105.0,105.0 L5.0,105.00000000000001" stroke="lightgray" stroke-width="2" />
<circle cx="105.0" cy="105.0" r="100" fill="none" stroke="lightgray" stroke-width="2" />
</g>
</svg>
</svg>