<svg width="678.0" height="210.0" xmlns="http://www.w3.org/2000/svg" xmlns:xlink="http://www.w3.org/1999/xlink">
<svg x="0.0" y="0.0" width="284.0" height="210.0" viewBox="0 0 284.0 210" xmlns="http://www.w3.org/2000/svg" xmlns:xlink="http://www.w3.org/1999/xlink">
<defs>
<clipPath id="clip-4535275344-4535003472">
<path d="M105.0,105.0 L105.0,5.0 A100,100,0,0,1,205.0,105.0 Z" fill="none" />
</clipPath>
<clipPath id="clip-4535275344-4535003216">
<path d="M105.0,105.0 L205.0,105.0 A100,100,0,0,1,105.0,205.0 Z" fill="none" />
</clipPath>
</defs>
<g>
<path d="M105.0,105.0 L105.0,5.0 A100,100,0,0,1,205.0,105.0 Z" fill="none" stroke="lightgray" stroke-width="2" />
<path d="M105.0,105.0 L205.0,105.0 A100,100,0,0,1,105.0,205.0 Z" fill="none" stroke="lightgray" stroke-width="2" />
<path d="M105.0,105.0 L105.0,205.0 A100,100,0,0,1,5.0,105.00000000000001 Z" fill="none" stroke="lightgray" stroke-width="2" />
<path d="M105.0,105.0 L5.0,105.00000000000001 A100,100,0,0,1,104.99999999999999,5.0 Z" fill="none" stroke="lightgray" stroke-width="2" />
<path d="M105.0,105.0 L105.0,5.0 A100,100,0,0,1,205.0,105.0 Z" fill="#F5C754" stroke="lightgray" stroke-width="2" />
<use xlink:href="#clip-4535275344-4535003472" />
<g clip-path="url(#clip-4535275344-4535003472)">
<circle cx="105.0" cy="105.0" r="92" stroke="#DAA05D" stroke-width="16" fill="none" />
<circle cx="105.0" cy="105.0" r="98" stroke="#C37B32" stroke-width="5" fill="none" />
<circle cx="35.41873679918905" cy="130.49009042445397" r="2.2321714584350394" fill="#FFFFFF" fill-opacity="0.31788139200059234" />
<circle cx="35.96092167703276" cy="95.44027635656401" r="2.7118089201950326" fill="#D2691E" fill-opacity="0.5031806653707767" />
<circle cx="104.29139308078723" cy="33.74781726711822" r="5.6512451179116" fill="#8B4513" fill-opacity="0.5511673761141986" />
<circle cx="72.60103885649991" cy="100.79422559552039" r="3.0372793074576756" fill="#8B4513" fill-opacity="0.5214626738074912" />
<circle cx="79.90863822057503" cy="91.49660046133764" r="3.851187224950126" fill="#FFDE75" fill-opacity="0.3865641070923269" />
<circle cx="71.68531934229303" cy="42.70642025336034" r="3.4730252130481296" fill="#FFFFFF" fill-opacity="0.4260186521988138" />
<circle cx="172.76454365599557" cy="79.76214469981156" r="2.0871732607838727" fill="#D2691E" fill-opacity="0.2430769972012782" />
<circle cx="40.912901956042106" cy="73.97132642166994" r="4.304275509609695" fill="#FFFFFF" fill-opacity="0.3872680803564963" />
<circle cx="117.79126948626624" cy="78.58416173909528" r="4.490074737610867" fill="#D2691E" fill-opacity="0.43861906904544157" />
<circle cx="148.96674290362577" cy="32.64616639034419" r="3.38763317633343" fill="#8B4513" fill-opacity="0.38255287366657564" />
<circle cx="25.596019859544" cy="108.40692140691718" r="3.2898508166066107" fill="#D2691E" fill-opacity="0.22728720948250572" />
<circle cx="62.84019186526668" cy="99.75954149640289" r="3.50981475932614" fill="#FFFFFF" fill-opacity="0.3364446055106413" />
<circle cx="97.72245886950981" cy="107.91033961960929" r="3.648144101836863" fill="#D2691E" fill-opacity="0.29997408912111195" />
<circle cx="135.62725573344514" cy="118.41241326551992" r="4.337402357621087" fill="#8B4513" fill-opacity="0.5533291220596062" />
<circle cx="54.506191100275146" cy="162.29340883907733" r="5.201253980191404" fill="#FFFFFF" fill-opacity="0.28442027272031484" />
<circle cx="149.6169070967709" cy="93.2688828135087" r="4.170203164225914" fill="#FFDE75" fill-opacity="0.29564916058045687" />
<circle cx="114.09295616429469" cy="188.89973763328453" r="3.777488369517905" fill="#FFFFFF" fill-opacity="0.4561917694823093" />
<circle cx="120.32022061723428" cy="148.49988667829" r="5.985117493911115" fill="#FFDE75" fill-opacity="0.5859098529808958" />
<circle cx="173.23553949907955" cy="80.39898547327664" r="2.193495545034657" fill="#D2691E" fill-opacity="0.3056700929436401" />
<circle cx="70.7494632788987" cy="84.31582243317366" r="4.390813802903212" fill="#FFFFFF" fill-opacity="0.39563854397434367" />
<circle cx="32.8037829676573" cy="147.52801150548026" r="3.683253271074003" fill="#8B4513" fill-opacity="0.2702794788891191" />
<circle cx="115.94770862228299" cy="57.489814845990644" r="2.0033751445251418" fill="#8B4513" fill-opacity="0.5735796601334273" />
<circle cx="137.79262938978752" cy="112.29047227965006" r="5.2985665875006" fill="#D2691E" fill-opacity="0.46569364143525366" />
<circle cx="41.75774903255356" cy="101.71687667576082" r="3.4887063457552414" fill="#FFDE75" fill-opacity="0.5513993702636164" />
<circle cx="102.15819514903077" cy="62.45308734009967" r="5.825868146380062" fill="#FFDE75" fill-opacity="0.5806034911542668" />
<circle cx="138.33857410127752" cy="52.36239249523186" r="4.113021718340757" fill="#8B4513" fill-opacity="0.5518856795437304" />
<circle cx="104.19428772504844" cy="95.67354646211794" r="3.4094802406495606" fill="#FFDE75" fill-opacity="0.42063452800222356" />
<circle cx="62.02437343192051" cy="47.48870038063407" r="4.4058201657227" fill="#FFFFFF" fill-opacity="0.28118030473402045" />
<circle cx="100.98966428077475" cy="148.5916519903233" r="3.4480504732478856" fill="#FFFFFF" fill-opacity="0.224435909341442" />
<circle cx="115.11669854752228" cy="116.3732497853141" r="4.243259353784518" fill="#8B4513" fill-opacity="0.22549738640867473" />
<ellipse cx="75.18696553332141" cy="54.760145469531984" rx="6.0896494854513445" ry="7.09746662500908" fill="#FFFDF0" fill-opacity="0.6" />
<ellipse cx="75.99254643547403" cy="54.37077750434144" rx="2.679426962482928" ry="2.322201223476469" fill="#FFFFFF" fill-opacity="0.85" />
<ellipse cx="50.23137967245338" cy="119.6357672835442" rx="5.66561020787857" ry="4.540397918590415" fill="#FFFDF0" fill-opacity="0.6" />
<ellipse cx="50.65900549034023" cy="119.78365971502078" rx="3.2366709078323668" ry="2.7240674714040347" fill="#FFFFFF" fill-opacity="0.85" />
<ellipse cx="135.1370387980116" cy="147.37459146658813" rx="8.849885049467014" ry="6.788510310823735" fill="#FFFDF0" fill-opacity="0.6" />
<ellipse cx="134.3053495453967" cy="147.66833095627064" rx="3.9301660660106457" ry="3.248031567956786" fill="#FFFFFF" fill-opacity="0.85" />
<ellipse cx="49.96750831879455" cy="160.9669969288371" rx="6.564038175896307" ry="4.826764720626315" fill="#FFFDF0" fill-opacity="0.6" />
<ellipse cx="49.678228488851325" cy="161.62445226863883" rx="4.404524285877579" ry="3.077104883131482" fill="#FFFFFF" fill-opacity="0.85" />
<ellipse cx="38.94826950109382" cy="116.75608040770395" rx="9.43936679078179" ry="8.730337699118666" fill="#FFFDF0" fill-opacity="0.6" />
<ellipse cx="38.27533101515913" cy="115.97040453457738" rx="3.125637407075422" ry="3.499500374455173" fill="#FFFFFF" fill-opacity="0.85" />
<ellipse cx="65.29411310846913" cy="147.70182662094393" rx="8.557471600836724" ry="8.499447327799285" fill="#FFFDF0" fill-opacity="0.6" />
<ellipse cx="66.2071861565181" cy="147.20597394468862" rx="4.802371552659488" ry="2.7603905977805567" fill="#FFFFFF" fill-opacity="0.85" />
</g>
<path d="M105.0,105.0 L205.0,105.0 A100,100,0,0,1,105.0,205.0 Z" fill="#F5C754" stroke="lightgray" stroke-width="2" />
<use xlink:href="#clip-4535275344-4535003216" />
<g clip-path="url(#clip-4535275344-4535003216)">
<circle cx="105.0" cy="105.0" r="92" stroke="#DAA05D" stroke-width="16" fill="none" />
<circle cx="105.0" cy="105.0" r="98" stroke="#C37B32" stroke-width="5" fill="none" />
<circle cx="35.41873679918905" cy="130.49009042445397" r="2.2321714584350394" fill="#FFFFFF" fill-opacity="0.31788139200059234" />
<circle cx="35.96092167703276" cy="95.44027635656401" r="2.7118089201950326" fill="#D2691E" fill-opacity="0.5031806653707767" />
<circle cx="104.29139308078723" cy="33.74781726711822" r="5.6512451179116" fill="#8B4513" fill-opacity="0.5511673761141986" />
<circle cx="72.60103885649991" cy="100.79422559552039" r="3.0372793074576756" fill="#8B4513" fill-opacity="0.5214626738074912" />
<circle cx="79.90863822057503" cy="91.49660046133764" r="3.851187224950126" fill="#FFDE75" fill-opacity="0.3865641070923269" />
<circle cx="71.68531934229303" cy="42.70642025336034" r="3.4730252130481296" fill="#FFFFFF" fill-opacity="0.4260186521988138" />
<circle cx="172.76454365599557" cy="79.76214469981156" r="2.0871732607838727" fill="#D2691E" fill-opacity="0.2430769972012782" />
<circle cx="40.912901956042106" cy="73.97132642166994" r="4.304275509609695" fill="#FFFFFF" fill-opacity="0.3872680803564963" />
<circle cx="117.79126948626624" cy="78.58416173909528" r="4.490074737610867" fill="#D2691E" fill-opacity="0.43861906904544157" />
<circle cx="148.96674290362577" cy="32.64616639034419" r="3.38763317633343" fill="#8B4513" fill-opacity="0.38255287366657564" />
<circle cx="25.596019859544" cy="108.40692140691718" r="3.2898508166066107" fill="#D2691E" fill-opacity="0.22728720948250572" />
<circle cx="62.84019186526668" cy="99.75954149640289" r="3.50981475932614" fill="#FFFFFF" fill-opacity="0.3364446055106413" />
<circle cx="97.72245886950981" cy="107.91033961960929" r="3.648144101836863" fill="#D2691E" fill-opacity="0.29997408912111195" />
<circle cx="135.62725573344514" cy="118.41241326551992" r="4.337402357621087" fill="#8B4513" fill-opacity="0.5533291220596062" />
<circle cx="54.506191100275146" cy="162.29340883907733" r="5.201253980191404" fill="#FFFFFF" fill-opacity="0.28442027272031484" />
<circle cx="149.6169070967709" cy="93.2688828135087" r="4.170203164225914" fill="#FFDE75" fill-opacity="0.29564916058045687" />
<circle cx="114.09295616429469" cy="188.89973763328453" r="3.777488369517905" fill="#FFFFFF" fill-opacity="0.4561917694823093" />
<circle cx="120.32022061723428" cy="148.49988667829" r="5.985117493911115" fill="#FFDE75" fill-opacity="0.5859098529808958" />
<circle cx="173.23553949907955" cy="80.39898547327664" r="2.193495545034657" fill="#D2691E" fill-opacity="0.3056700929436401" />
<circle cx="70.7494632788987" cy="84.31582243317366" r="4.390813802903212" fill="#FFFFFF" fill-opacity="0.39563854397434367" />
<circle cx="32.8037829676573" cy="147.52801150548026" r="3.683253271074003" fill="#8B4513" fill-opacity="0.2702794788891191" />
<circle cx="115.94770862228299" cy="57.489814845990644" r="2.0033751445251418" fill="#8B4513" fill-opacity="0.5735796601334273" />
<circle cx="137.79262938978752" cy="112.29047227965006" r="5.2985665875006" fill="#D2691E" fill-opacity="0.46569364143525366" />
<circle cx="41.75774903255356" cy="101.71687667576082" r="3.4887063457552414" fill="#FFDE75" fill-opacity="0.5513993702636164" />
<circle cx="102.15819514903077" cy="62.45308734009967" r="5.825868146380062" fill="#FFDE75" fill-opacity="0.5806034911542668" />
<circle cx="138.33857410127752" cy="52.36239249523186" r="4.113021718340757" fill="#8B4513" fill-opacity="0.5518856795437304" />
<circle cx="104.19428772504844" cy="95.67354646211794" r="3.4094802406495606" fill="#FFDE75" fill-opacity="0.42063452800222356" />
<circle cx="62.02437343192051" cy="47.48870038063407" r="4.4058201657227" fill="#FFFFFF" fill-opacity="0.28118030473402045" />
<circle cx="100.98966428077475" cy="148.5916519903233" r="3.4480504732478856" fill="#FFFFFF" fill-opacity="0.224435909341442" />
<circle cx="115.11669854752228" cy="116.3732497853141" r="4.243259353784518" fill="#8B4513" fill-opacity="0.22549738640867473" />
<ellipse cx="75.18696553332141" cy="54.760145469531984" rx="6.0896494854513445" ry="7.09746662500908" fill="#FFFDF0" fill-opacity="0.6" />
<ellipse cx="75.99254643547403" cy="54.37077750434144" rx="2.679426962482928" ry="2.322201223476469" fill="#FFFFFF" fill-opacity="0.85" />
<ellipse cx="50.23137967245338" cy="119.6357672835442" rx="5.66561020787857" ry="4.540397918590415" fill="#FFFDF0" fill-opacity="0.6" />
<ellipse cx="50.65900549034023" cy="119.78365971502078" rx="3.2366709078323668" ry="2.7240674714040347" fill="#FFFFFF" fill-opacity="0.85" />
<ellipse cx="135.1370387980116" cy="147.37459146658813" rx="8.849885049467014" ry="6.788510310823735" fill="#FFFDF0" fill-opacity="0.6" />
<ellipse cx="134.3053495453967" cy="147.66833095627064" rx="3.9301660660106457" ry="3.248031567956786" fill="#FFFFFF" fill-opacity="0.85" />
<ellipse cx="49.96750831879455" cy="160.9669969288371" rx="6.564038175896307" ry="4.826764720626315" fill="#FFFDF0" fill-opacity="0.6" />
<ellipse cx="49.678228488851325" cy="161.62445226863883" rx="4.404524285877579" ry="3.077104883131482" fill="#FFFFFF" fill-opacity="0.85" />
<ellipse cx="38.94826950109382" cy="116.75608040770395" rx="9.43936679078179" ry="8.730337699118666" fill="#FFFDF0" fill-opacity="0.6" />
<ellipse cx="38.27533101515913" cy="115.97040453457738" rx="3.125637407075422" ry="3.499500374455173" fill="#FFFFFF" fill-opacity="0.85" />
<ellipse cx="65.29411310846913" cy="147.70182662094393" rx="8.557471600836724" ry="8.499447327799285" fill="#FFFDF0" fill-opacity="0.6" />
<ellipse cx="66.2071861565181" cy="147.20597394468862" rx="4.802371552659488" ry="2.7603905977805567" fill="#FFFFFF" fill-opacity="0.85" />
</g>
<rect x="230.0" y="41.0" width="54.0" height="54.0" fill="none" stroke="black" stroke-width="2" />
<rect x="230.0" y="115.0" width="54.0" height="54.0" fill="none" stroke="black" stroke-width="2" />
<path d="M225.0,105.0 L289.0,105.0" stroke="black" stroke-width="2" />
<text x="257.0" y="68.0" font-size="36" font-family="Comic Sans MS, Comic Sans, cursive" dominant-baseline="middle" fill="black" text-anchor="middle">2</text>
<text x="257.0" y="142.0" font-size="36" font-family="Comic Sans MS, Comic Sans, cursive" dominant-baseline="middle" fill="black" text-anchor="middle">4</text>
</g>
</svg>
<rect x="299.0" y="65.0" width="80" height="80" fill="none" stroke="black" stroke-width="1.5"/>
<svg x="394.0" y="0.0" width="284.0" height="210.0" viewBox="0 0 284.0 210" xmlns="http://www.w3.org/2000/svg" xmlns:xlink="http://www.w3.org/1999/xlink">
<defs>
<clipPath id="clip-4535275104-4471970384">
<path d="M105.0,105.0 L105.0,5.0 A100,100,0,0,1,105.0,205.0 Z" fill="none" />
</clipPath>
</defs>
<g>
<path d="M105.0,105.0 L105.0,5.0 A100,100,0,0,1,105.0,205.0 Z" fill="none" stroke="lightgray" stroke-width="2" />
<path d="M105.0,105.0 L105.0,205.0 A100,100,0,0,1,104.99999999999999,5.0 Z" fill="none" stroke="lightgray" stroke-width="2" />
<path d="M105.0,105.0 L105.0,5.0 A100,100,0,0,1,105.0,205.0 Z" fill="#F5C754" stroke="lightgray" stroke-width="2" />
<use xlink:href="#clip-4535275104-4471970384" />
<g clip-path="url(#clip-4535275104-4471970384)">
<circle cx="105.0" cy="105.0" r="92" stroke="#DAA05D" stroke-width="16" fill="none" />
<circle cx="105.0" cy="105.0" r="98" stroke="#C37B32" stroke-width="5" fill="none" />
<circle cx="49.264235214187934" cy="155.7186708276339" r="4.390497648020066" fill="#D2691E" fill-opacity="0.5313474892741239" />
<circle cx="77.5489623439998" cy="65.62220957655623" r="4.647985517982011" fill="#FFFFFF" fill-opacity="0.3906690817659729" />
<circle cx="127.2109144544239" cy="51.540202597922445" r="3.5816311228076954" fill="#D2691E" fill-opacity="0.5632066200338385" />
<circle cx="136.83661501946537" cy="117.56494354579002" r="2.2295058033769326" fill="#FFFFFF" fill-opacity="0.23473214581009563" />
<circle cx="134.29575056600197" cy="179.18092191886043" r="4.425853836273845" fill="#FFFFFF" fill-opacity="0.4534455573872835" />
<circle cx="71.6159374641639" cy="129.3795118000946" r="5.760581600809491" fill="#FFDE75" fill-opacity="0.24374770564004572" />
<circle cx="129.2578214484474" cy="119.42324086915451" r="3.7208527642631752" fill="#8B4513" fill-opacity="0.3732800498266079" />
<circle cx="46.32525804281014" cy="104.84033510263183" r="2.509308265659018" fill="#FFDE75" fill-opacity="0.5848136307089271" />
<circle cx="62.54688775029829" cy="67.90327883078982" r="3.4535748863224462" fill="#FFDE75" fill-opacity="0.20999053587385497" />
<circle cx="37.303259485919526" cy="118.47772883536527" r="5.441079154320356" fill="#FFDE75" fill-opacity="0.5072538590473146" />
<circle cx="111.42305857477514" cy="45.723131162016195" r="2.612280023762479" fill="#FFDE75" fill-opacity="0.4282036505397876" />
<circle cx="50.46054181360201" cy="134.5401765218288" r="2.3121910500553704" fill="#FFDE75" fill-opacity="0.2001740709553179" />
<circle cx="65.68228775727546" cy="77.68880864589215" r="5.862606880019301" fill="#FFDE75" fill-opacity="0.49799702164651244" />
<circle cx="127.51021931410932" cy="102.23336720318386" r="3.4509347013691345" fill="#8B4513" fill-opacity="0.4419182774198239" />
<circle cx="112.81937573380787" cy="181.99410147325682" r="4.244813460892011" fill="#D2691E" fill-opacity="0.36027847106839084" />
<ellipse cx="108.15228952864037" cy="65.24516551501169" rx="5.442476660221269" ry="4.477586408481978" fill="#FFFDF0" fill-opacity="0.6" />
<ellipse cx="108.34533537623545" cy="66.06770196370123" rx="2.3705238137201436" ry="2.5094737538192105" fill="#FFFFFF" fill-opacity="0.85" />
<ellipse cx="128.98205585281718" cy="173.43826101765825" rx="6.016369397581601" ry="4.105555421698496" fill="#FFFDF0" fill-opacity="0.6" />
<ellipse cx="128.47051017505115" cy="174.159704070229" rx="4.689143571423891" ry="2.1229916363477406" fill="#FFFFFF" fill-opacity="0.85" />
<ellipse cx="91.1220391111796" cy="126.82077277646033" rx="9.869154074620104" ry="6.910556055801086" fill="#FFFDF0" fill-opacity="0.6" />
<ellipse cx="91.1663185045811" cy="127.36779541276118" rx="3.3746261634714783" ry="2.572927205696126" fill="#FFFFFF" fill-opacity="0.85" />
</g>
<rect x="230.0" y="41.0" width="54.0" height="54.0" fill="none" stroke="black" stroke-width="2" />
<rect x="230.0" y="115.0" width="54.0" height="54.0" fill="none" stroke="black" stroke-width="2" />
<path d="M225.0,105.0 L289.0,105.0" stroke="black" stroke-width="2" />
<text x="257.0" y="68.0" font-size="36" font-family="Comic Sans MS, Comic Sans, cursive" dominant-baseline="middle" fill="black" text-anchor="middle">1</text>
<text x="257.0" y="142.0" font-size="36" font-family="Comic Sans MS, Comic Sans, cursive" dominant-baseline="middle" fill="black" text-anchor="middle">2</text>
</g>
</svg>
</svg>