<?xml version="1.0" encoding="UTF-8"?>
<svg xmlns="http://www.w3.org/2000/svg" xmlns:xlink="http://www.w3.org/1999/xlink"
     width="284.0" height="210" viewBox="0 0 284.0 210">
<defs>
<clipPath id="clip-4469928528-4535507792">
<path d="M105.0,105.0 L105.0,5.0 A100,100,0,0,1,163.77852522924732,24.09830056250526 Z" fill="none" />
</clipPath>
<clipPath id="clip-4469928528-4535006160">
<path d="M105.0,105.0 L163.77852522924732,24.09830056250526 A100,100,0,0,1,200.10565162951536,74.09830056250526 Z" fill="none" />
</clipPath>
<clipPath id="clip-4469928528-4471971024">
<path d="M105.0,105.0 L200.10565162951536,74.09830056250526 A100,100,0,0,1,200.10565162951536,135.90169943749473 Z" fill="none" />
</clipPath>
</defs>
<g>
<path d="M105.0,105.0 L105.0,5.0 A100,100,0,0,1,163.77852522924732,24.09830056250526 Z" fill="none" stroke="lightgray" stroke-width="2" />
<path d="M105.0,105.0 L163.77852522924732,24.09830056250526 A100,100,0,0,1,200.10565162951536,74.09830056250526 Z" fill="none" stroke="lightgray" stroke-width="2" />
<path d="M105.0,105.0 L200.10565162951536,74.09830056250526 A100,100,0,0,1,200.10565162951536,135.90169943749473 Z" fill="none" stroke="lightgray" stroke-width="2" />
<path d="M105.0,105.0 L200.10565162951536,135.90169943749473 A100,100,0,0,1,163.77852522924732,185.90169943749476 Z" fill="none" stroke="lightgray" stroke-width="2" />
<path d="M105.0,105.0 L163.77852522924732,185.90169943749476 A100,100,0,0,1,105.0,205.0 Z" fill="none" stroke="lightgray" stroke-width="2" />
<path d="M105.0,105.0 L105.0,205.0 A100,100,0,0,1,46.2214747707527,185.90169943749476 Z" fill="none" stroke="lightgray" stroke-width="2" />
<path d="M105.0,105.0 L46.2214747707527,185.90169943749476 A100,100,0,0,1,9.89434837048465,135.90169943749476 Z" fill="none" stroke="lightgray" stroke-width="2" />
<path d="M105.0,105.0 L9.89434837048465,135.90169943749476 A100,100,0,0,1,9.894348370484636,74.09830056250527 Z" fill="none" stroke="lightgray" stroke-width="2" />
<path d="M105.0,105.0 L9.894348370484636,74.09830056250527 A100,100,0,0,1,46.22147477075268,24.098300562505273 Z" fill="none" stroke="lightgray" stroke-width="2" />
<path d="M105.0,105.0 L46.22147477075268,24.098300562505273 A100,100,0,0,1,104.99999999999999,5.0 Z" fill="none" stroke="lightgray" stroke-width="2" />
<path d="M105.0,105.0 L105.0,5.0 A100,100,0,0,1,163.77852522924732,24.09830056250526 Z" fill="#F5C754" stroke="lightgray" stroke-width="2" />
<use xlink:href="#clip-4469928528-4535507792" />
<g clip-path="url(#clip-4469928528-4535507792)">
<circle cx="105.0" cy="105.0" r="92" stroke="#DAA05D" stroke-width="16" fill="none" />
<circle cx="105.0" cy="105.0" r="98" stroke="#C37B32" stroke-width="5" fill="none" />
<circle cx="38.95362507955498" cy="99.78974913489878" r="4.51794125342192" fill="#D2691E" fill-opacity="0.4627051168578528" />
<circle cx="148.44876147772305" cy="81.33366821229494" r="5.630650872346593" fill="#FFDE75" fill-opacity="0.3333110720724424" />
<circle cx="94.18603848205755" cy="124.60296108938526" r="2.1353942973594124" fill="#8B4513" fill-opacity="0.3617842800332415" />
<circle cx="69.99605362157229" cy="96.69741636363838" r="2.534297732318393" fill="#D2691E" fill-opacity="0.5481924659407188" />
<circle cx="131.58757816722908" cy="175.9839855404697" r="2.243522847053463" fill="#8B4513" fill-opacity="0.38666155274164493" />
<circle cx="166.83394743305774" cy="162.6456215912467" r="5.427593094786349" fill="#FFDE75" fill-opacity="0.4133927491027688" />
<circle cx="119.01739061308274" cy="104.6574403416739" r="5.075572463287257" fill="#FFDE75" fill-opacity="0.3129010356957828" />
<circle cx="33.63572426304735" cy="95.41571943967575" r="2.190197447387204" fill="#FFDE75" fill-opacity="0.20321291411570808" />
<circle cx="125.50474880220878" cy="24.415873032538784" r="4.2153485907141315" fill="#8B4513" fill-opacity="0.3829892480647302" />
<circle cx="59.79722161673376" cy="100.54241605694949" r="3.175035179893451" fill="#8B4513" fill-opacity="0.5727613701978542" />
<circle cx="89.9951866846939" cy="149.43455318127923" r="3.2134176832826147" fill="#FFDE75" fill-opacity="0.5759941986109267" />
<circle cx="122.68067409130262" cy="187.82200544354814" r="2.9066669386589545" fill="#D2691E" fill-opacity="0.5913156857479388" />
<circle cx="47.6874363991349" cy="152.383800339103" r="2.4662362113351914" fill="#8B4513" fill-opacity="0.2869740761653085" />
<circle cx="89.70684681204769" cy="156.92645072150566" r="4.0823692508181395" fill="#FFDE75" fill-opacity="0.4524255461765135" />
<circle cx="179.63985835212043" cy="69.15411058731875" r="2.7599612473389383" fill="#FFDE75" fill-opacity="0.42603355919641184" />
<circle cx="173.17992755700052" cy="155.32042271583055" r="4.499407810767486" fill="#FFDE75" fill-opacity="0.40000368052892177" />
<circle cx="124.705800927257" cy="94.11204857908263" r="4.5370296183299335" fill="#D2691E" fill-opacity="0.2129701384981281" />
<circle cx="99.98657949600491" cy="134.16962046795484" r="4.7153166687929025" fill="#D2691E" fill-opacity="0.20882060048630147" />
<circle cx="131.4934647063393" cy="100.13029384908734" r="2.9016650758964486" fill="#FFDE75" fill-opacity="0.587260866122931" />
<circle cx="98.349845483536" cy="45.22246177427932" r="5.824996301982434" fill="#FFDE75" fill-opacity="0.22369901183289187" />
<circle cx="172.02735546324413" cy="79.9654900453203" r="2.5171629518292233" fill="#FFDE75" fill-opacity="0.5084137817783053" />
<circle cx="80.38091850955506" cy="65.7116574348553" r="3.7717236073158933" fill="#FFFFFF" fill-opacity="0.35360425720707034" />
<circle cx="149.67180783317895" cy="34.01069588166558" r="4.312522635665065" fill="#FFFFFF" fill-opacity="0.5645173951737212" />
<circle cx="107.14163559670124" cy="121.36778976378423" r="2.657760009900181" fill="#FFDE75" fill-opacity="0.3691599387379968" />
<circle cx="89.14255125514981" cy="101.82036967576089" r="3.889052853805512" fill="#FFFFFF" fill-opacity="0.42461871122328854" />
<circle cx="81.46819940344153" cy="93.75078693861636" r="5.838359390435139" fill="#8B4513" fill-opacity="0.49899104426338403" />
<circle cx="88.88427041758672" cy="164.60060872563318" r="3.0102703879341326" fill="#FFDE75" fill-opacity="0.2449733487359066" />
<circle cx="65.35923982349141" cy="111.29335079023691" r="3.367541192933498" fill="#D2691E" fill-opacity="0.41868830515534394" />
<circle cx="106.51831189091547" cy="115.66328019104745" r="5.910423926653495" fill="#FFFFFF" fill-opacity="0.40902149994733195" />
<circle cx="58.06726730355247" cy="99.14418863426725" r="3.042170990096663" fill="#FFFFFF" fill-opacity="0.4863998582828536" />
<circle cx="90.37490962704467" cy="126.57035773704817" r="4.512628103608773" fill="#FFDE75" fill-opacity="0.5440731520239963" />
<circle cx="80.58989835984988" cy="175.35492695237684" r="3.987750109838003" fill="#D2691E" fill-opacity="0.2889978481690648" />
<circle cx="28.054305371684123" cy="123.37696884980508" r="2.091132614930585" fill="#D2691E" fill-opacity="0.299856257866033" />
<circle cx="53.99535081430035" cy="43.31750857547703" r="4.449010246332039" fill="#8B4513" fill-opacity="0.5814535775299465" />
<circle cx="111.19626195339836" cy="147.05402354399868" r="2.1761572829517632" fill="#FFFFFF" fill-opacity="0.5014145704441428" />
<circle cx="116.56718255135617" cy="153.76418847402158" r="2.2931837094787615" fill="#FFFFFF" fill-opacity="0.23409564868420554" />
<circle cx="108.34055695672178" cy="184.30486484126692" r="4.877586523224508" fill="#FFDE75" fill-opacity="0.28955464331594843" />
<circle cx="147.662686259061" cy="63.73662039707549" r="3.5235837941966732" fill="#FFFFFF" fill-opacity="0.4817554476271936" />
<circle cx="54.050024541025564" cy="166.23146319938783" r="3.8582381689908125" fill="#FFFFFF" fill-opacity="0.20800384529543892" />
<circle cx="162.62072177789977" cy="135.62352294971836" r="4.145138671827606" fill="#8B4513" fill-opacity="0.553351737579155" />
<circle cx="84.84642778781594" cy="26.89964467861782" r="2.0631673196547955" fill="#D2691E" fill-opacity="0.5441718916117189" />
<circle cx="106.37549648466279" cy="108.63020591361588" r="5.150147974319781" fill="#8B4513" fill-opacity="0.46442770287202123" />
<circle cx="114.1339743647036" cy="40.15192108689699" r="4.335995984783461" fill="#8B4513" fill-opacity="0.34170631328396567" />
<circle cx="105.3356266936538" cy="61.10478326036256" r="5.8612893739639444" fill="#8B4513" fill-opacity="0.2625117035449541" />
<circle cx="92.03657259617663" cy="22.21244994109817" r="3.862418932431814" fill="#FFDE75" fill-opacity="0.4221144325446209" />
<circle cx="118.930069841808" cy="66.86966967110818" r="11.510844915312727" fill="#C92A2A" stroke="#800000" stroke-width="1" />
<circle cx="116.21607206379976" cy="70.44632089886345" r="1.4271466264559818" fill="#FFA07A" fill-opacity="0.7" />
<circle cx="119.39121892732034" cy="72.7100011645293" r="0.6158735495925204" fill="#FFA07A" fill-opacity="0.7" />
<circle cx="119.14897692059556" cy="66.4738832658361" r="0.6339838471923878" fill="#FFA07A" fill-opacity="0.7" />
<circle cx="114.51037479327849" cy="72.25390715968177" r="0.8848879599987787" fill="#FFA07A" fill-opacity="0.7" />
<circle cx="115.26236177190674" cy="72.73585804451457" r="0.8664065640787924" fill="#FFA07A" fill-opacity="0.7" />
<circle cx="115.54125527995112" cy="66.09378631591018" r="1.1174146744933457" fill="#FFA07A" fill-opacity="0.7" />
<circle cx="106.66842102999328" cy="136.75209618082476" r="11.080051695997241" fill="#C92A2A" stroke="#800000" stroke-width="1" />
<circle cx="108.35866822063284" cy="137.55166830624938" r="0.5612581511065649" fill="#FFA07A" fill-opacity="0.7" />
<circle cx="110.81811523421146" cy="136.04371303001562" r="0.8796665741113583" fill="#FFA07A" fill-opacity="0.7" />
<circle cx="109.09469673831916" cy="142.23014103834691" r="1.3451391063280382" fill="#FFA07A" fill-opacity="0.7" />
<circle cx="108.91658627076845" cy="133.51055843293415" r="1.1539047339421042" fill="#FFA07A" fill-opacity="0.7" />
<circle cx="108.78689662965513" cy="139.23761509553137" r="0.5122792586565895" fill="#FFA07A" fill-opacity="0.7" />
<circle cx="149.96228874864" cy="71.09936353344472" r="10.937345590620229" fill="#C92A2A" stroke="#800000" stroke-width="1" />
<circle cx="150.21980975057008" cy="70.9191979542897" r="0.850957837220498" fill="#FFA07A" fill-opacity="0.7" />
<circle cx="144.88873333834812" cy="68.08502476140784" r="1.2156049352327092" fill="#FFA07A" fill-opacity="0.7" />
<circle cx="151.2014834651467" cy="76.26196837292969" r="1.1617795023116493" fill="#FFA07A" fill-opacity="0.7" />
<circle cx="146.68095087001964" cy="69.2560964946873" r="0.8944655755479566" fill="#FFA07A" fill-opacity="0.7" />
<circle cx="153.21598363892517" cy="72.56139920442381" r="0.9441033899839468" fill="#FFA07A" fill-opacity="0.7" />
<circle cx="151.26229043258718" cy="76.3950877791408" r="1.0855307810412358" fill="#FFA07A" fill-opacity="0.7" />
<circle cx="70.32599483693369" cy="135.26402406972016" r="11.344120081398415" fill="#C92A2A" stroke="#800000" stroke-width="1" />
<circle cx="71.03202559197736" cy="130.9264510313441" r="1.062620185880819" fill="#FFA07A" fill-opacity="0.7" />
<circle cx="72.0214354207045" cy="138.00979594275572" r="1.1437506245385627" fill="#FFA07A" fill-opacity="0.7" />
<circle cx="69.31523449458255" cy="134.51755627137527" r="0.6907131767206814" fill="#FFA07A" fill-opacity="0.7" />
<circle cx="64.86271538292121" cy="138.67174794688435" r="1.2811065968271236" fill="#FFA07A" fill-opacity="0.7" />
<circle cx="70.50066863143249" cy="138.13339030915424" r="1.1169919250236646" fill="#FFA07A" fill-opacity="0.7" />
<circle cx="53.83083524447727" cy="67.81924311739198" r="11.753632823749655" fill="#C92A2A" stroke="#800000" stroke-width="1" />
<circle cx="49.66639486169475" cy="71.54236095050395" r="0.5706040915245391" fill="#FFA07A" fill-opacity="0.7" />
<circle cx="50.59988693992293" cy="69.14816617552005" r="0.9617454461770861" fill="#FFA07A" fill-opacity="0.7" />
<circle cx="47.85246324674918" cy="64.25720006260157" r="1.2234537390824252" fill="#FFA07A" fill-opacity="0.7" />
<circle cx="105.55686240573594" cy="178.46400854652745" r="9.555107923133436" fill="#C92A2A" stroke="#800000" stroke-width="1" />
<circle cx="102.67688360846964" cy="176.83690831597343" r="0.7785419908142941" fill="#FFA07A" fill-opacity="0.7" />
<circle cx="101.40504985301966" cy="180.76039984072813" r="1.2552714900150945" fill="#FFA07A" fill-opacity="0.7" />
<circle cx="102.40205858423772" cy="178.3383103835258" r="1.0529489869993816" fill="#FFA07A" fill-opacity="0.7" />
<circle cx="102.23329556076445" cy="175.28304108719175" r="0.9223928649820585" fill="#FFA07A" fill-opacity="0.7" />
<circle cx="108.48526153433446" cy="180.7600792301959" r="0.9378054936224041" fill="#FFA07A" fill-opacity="0.7" />
<circle cx="92.48190842281623" cy="82.86082166692039" r="10.681461876058453" fill="#C92A2A" stroke="#800000" stroke-width="1" />
<circle cx="90.28283136953034" cy="87.40001169863609" r="1.2419186395280928" fill="#FFA07A" fill-opacity="0.7" />
<circle cx="96.75942900416906" cy="87.88191608980846" r="0.8040765672786959" fill="#FFA07A" fill-opacity="0.7" />
<circle cx="96.29175283167554" cy="78.80005254160743" r="0.5118409587564221" fill="#FFA07A" fill-opacity="0.7" />
<circle cx="92.60184729917631" cy="79.11346325973" r="1.2222225209135615" fill="#FFA07A" fill-opacity="0.7" />
<circle cx="88.58143710004606" cy="82.11607415156674" r="0.6675437011349984" fill="#FFA07A" fill-opacity="0.7" />
<circle cx="95.62180287168367" cy="85.37246781413012" r="1.0428583311391126" fill="#FFA07A" fill-opacity="0.7" />
<circle cx="92.3666585638189" cy="83.92791187528566" r="1.4575197791831709" fill="#FFA07A" fill-opacity="0.7" />
<circle cx="140.7090966307909" cy="136.53436974603312" r="9.583990184544621" fill="#C92A2A" stroke="#800000" stroke-width="1" />
<circle cx="145.82732595076172" cy="140.12842293507313" r="0.917655365925296" fill="#FFA07A" fill-opacity="0.7" />
<circle cx="143.70841218361036" cy="130.71253973593565" r="0.7569482742302235" fill="#FFA07A" fill-opacity="0.7" />
<circle cx="142.0879641335947" cy="136.11465039524813" r="1.2021380036629568" fill="#FFA07A" fill-opacity="0.7" />
<circle cx="138.0391405860708" cy="134.3790962148453" r="1.0735603631272874" fill="#FFA07A" fill-opacity="0.7" />
<circle cx="139.55655069747385" cy="135.42767991444944" r="0.9145656016731034" fill="#FFA07A" fill-opacity="0.7" />
<circle cx="142.1659833204191" cy="136.60446671202777" r="1.2015209992597438" fill="#FFA07A" fill-opacity="0.7" />
<circle cx="146.58194854147135" cy="135.64560538108168" r="1.4745416130410303" fill="#FFA07A" fill-opacity="0.7" />
<circle cx="127.80581360961496" cy="135.2725809479041" r="11.066610262858308" fill="#C92A2A" stroke="#800000" stroke-width="1" />
<circle cx="125.754553364364" cy="139.1344128304478" r="1.452493309172024" fill="#FFA07A" fill-opacity="0.7" />
<circle cx="127.25319543191358" cy="138.9569001715746" r="0.6420254822958162" fill="#FFA07A" fill-opacity="0.7" />
<circle cx="132.88309546624484" cy="133.1300235632422" r="0.8021934400681259" fill="#FFA07A" fill-opacity="0.7" />
<circle cx="132.73651403901124" cy="131.43426925822203" r="1.0937983410755678" fill="#FFA07A" fill-opacity="0.7" />
<circle cx="108.17517700695694" cy="172.26757403735303" r="11.663756534890599" fill="#C92A2A" stroke="#800000" stroke-width="1" />
<circle cx="110.09808988913431" cy="176.53839434324365" r="1.2727515889242036" fill="#FFA07A" fill-opacity="0.7" />
<circle cx="104.2179921488012" cy="174.36970728437646" r="0.6332814908995611" fill="#FFA07A" fill-opacity="0.7" />
<circle cx="113.7883066076632" cy="175.61610072290503" r="1.4768388734106064" fill="#FFA07A" fill-opacity="0.7" />
<circle cx="110.69959087297626" cy="166.46401814772017" r="0.5838260520916535" fill="#FFA07A" fill-opacity="0.7" />
<circle cx="102.24336940022084" cy="169.46562456900983" r="1.4812311006593628" fill="#FFA07A" fill-opacity="0.7" />
<circle cx="112.15026226252195" cy="174.11738526321477" r="0.6753084456550504" fill="#FFA07A" fill-opacity="0.7" />
<circle cx="57.42626488374199" cy="54.287083125975265" r="10.301027640180326" fill="#C92A2A" stroke="#800000" stroke-width="1" />
<circle cx="61.16764383498502" cy="49.78997415728044" r="1.125971302906891" fill="#FFA07A" fill-opacity="0.7" />
<circle cx="52.16802949184337" cy="50.35807111240905" r="1.0927073536318195" fill="#FFA07A" fill-opacity="0.7" />
<circle cx="58.82345557737594" cy="58.94492342347671" r="1.3750280724976562" fill="#FFA07A" fill-opacity="0.7" />
<circle cx="52.556924342175144" cy="55.74082205781468" r="1.4909337960024178" fill="#FFA07A" fill-opacity="0.7" />
<circle cx="53.10525539812437" cy="57.484821921497044" r="1.291886869554717" fill="#FFA07A" fill-opacity="0.7" />
<circle cx="59.811006427934835" cy="56.255966396413314" r="0.7276067505727657" fill="#FFA07A" fill-opacity="0.7" />
<circle cx="142.4646866239246" cy="38.3558382733858" r="9.752844845474185" fill="#C92A2A" stroke="#800000" stroke-width="1" />
<circle cx="138.4379752981039" cy="32.463818793055204" r="1.0733275357933612" fill="#FFA07A" fill-opacity="0.7" />
<circle cx="138.90054974723003" cy="35.43533856945418" r="1.0645853633935274" fill="#FFA07A" fill-opacity="0.7" />
<circle cx="148.08062699835273" cy="40.890427824338595" r="1.3382652478058117" fill="#FFA07A" fill-opacity="0.7" />
</g>
<path d="M105.0,105.0 L163.77852522924732,24.09830056250526 A100,100,0,0,1,200.10565162951536,74.09830056250526 Z" fill="#F5C754" stroke="lightgray" stroke-width="2" />
<use xlink:href="#clip-4469928528-4535006160" />
<g clip-path="url(#clip-4469928528-4535006160)">
<circle cx="105.0" cy="105.0" r="92" stroke="#DAA05D" stroke-width="16" fill="none" />
<circle cx="105.0" cy="105.0" r="98" stroke="#C37B32" stroke-width="5" fill="none" />
<circle cx="38.95362507955498" cy="99.78974913489878" r="4.51794125342192" fill="#D2691E" fill-opacity="0.4627051168578528" />
<circle cx="148.44876147772305" cy="81.33366821229494" r="5.630650872346593" fill="#FFDE75" fill-opacity="0.3333110720724424" />
<circle cx="94.18603848205755" cy="124.60296108938526" r="2.1353942973594124" fill="#8B4513" fill-opacity="0.3617842800332415" />
<circle cx="69.99605362157229" cy="96.69741636363838" r="2.534297732318393" fill="#D2691E" fill-opacity="0.5481924659407188" />
<circle cx="131.58757816722908" cy="175.9839855404697" r="2.243522847053463" fill="#8B4513" fill-opacity="0.38666155274164493" />
<circle cx="166.83394743305774" cy="162.6456215912467" r="5.427593094786349" fill="#FFDE75" fill-opacity="0.4133927491027688" />
<circle cx="119.01739061308274" cy="104.6574403416739" r="5.075572463287257" fill="#FFDE75" fill-opacity="0.3129010356957828" />
<circle cx="33.63572426304735" cy="95.41571943967575" r="2.190197447387204" fill="#FFDE75" fill-opacity="0.20321291411570808" />
<circle cx="125.50474880220878" cy="24.415873032538784" r="4.2153485907141315" fill="#8B4513" fill-opacity="0.3829892480647302" />
<circle cx="59.79722161673376" cy="100.54241605694949" r="3.175035179893451" fill="#8B4513" fill-opacity="0.5727613701978542" />
<circle cx="89.9951866846939" cy="149.43455318127923" r="3.2134176832826147" fill="#FFDE75" fill-opacity="0.5759941986109267" />
<circle cx="122.68067409130262" cy="187.82200544354814" r="2.9066669386589545" fill="#D2691E" fill-opacity="0.5913156857479388" />
<circle cx="47.6874363991349" cy="152.383800339103" r="2.4662362113351914" fill="#8B4513" fill-opacity="0.2869740761653085" />
<circle cx="89.70684681204769" cy="156.92645072150566" r="4.0823692508181395" fill="#FFDE75" fill-opacity="0.4524255461765135" />
<circle cx="179.63985835212043" cy="69.15411058731875" r="2.7599612473389383" fill="#FFDE75" fill-opacity="0.42603355919641184" />
<circle cx="173.17992755700052" cy="155.32042271583055" r="4.499407810767486" fill="#FFDE75" fill-opacity="0.40000368052892177" />
<circle cx="124.705800927257" cy="94.11204857908263" r="4.5370296183299335" fill="#D2691E" fill-opacity="0.2129701384981281" />
<circle cx="99.98657949600491" cy="134.16962046795484" r="4.7153166687929025" fill="#D2691E" fill-opacity="0.20882060048630147" />
<circle cx="131.4934647063393" cy="100.13029384908734" r="2.9016650758964486" fill="#FFDE75" fill-opacity="0.587260866122931" />
<circle cx="98.349845483536" cy="45.22246177427932" r="5.824996301982434" fill="#FFDE75" fill-opacity="0.22369901183289187" />
<circle cx="172.02735546324413" cy="79.9654900453203" r="2.5171629518292233" fill="#FFDE75" fill-opacity="0.5084137817783053" />
<circle cx="80.38091850955506" cy="65.7116574348553" r="3.7717236073158933" fill="#FFFFFF" fill-opacity="0.35360425720707034" />
<circle cx="149.67180783317895" cy="34.01069588166558" r="4.312522635665065" fill="#FFFFFF" fill-opacity="0.5645173951737212" />
<circle cx="107.14163559670124" cy="121.36778976378423" r="2.657760009900181" fill="#FFDE75" fill-opacity="0.3691599387379968" />
<circle cx="89.14255125514981" cy="101.82036967576089" r="3.889052853805512" fill="#FFFFFF" fill-opacity="0.42461871122328854" />
<circle cx="81.46819940344153" cy="93.75078693861636" r="5.838359390435139" fill="#8B4513" fill-opacity="0.49899104426338403" />
<circle cx="88.88427041758672" cy="164.60060872563318" r="3.0102703879341326" fill="#FFDE75" fill-opacity="0.2449733487359066" />
<circle cx="65.35923982349141" cy="111.29335079023691" r="3.367541192933498" fill="#D2691E" fill-opacity="0.41868830515534394" />
<circle cx="106.51831189091547" cy="115.66328019104745" r="5.910423926653495" fill="#FFFFFF" fill-opacity="0.40902149994733195" />
<circle cx="58.06726730355247" cy="99.14418863426725" r="3.042170990096663" fill="#FFFFFF" fill-opacity="0.4863998582828536" />
<circle cx="90.37490962704467" cy="126.57035773704817" r="4.512628103608773" fill="#FFDE75" fill-opacity="0.5440731520239963" />
<circle cx="80.58989835984988" cy="175.35492695237684" r="3.987750109838003" fill="#D2691E" fill-opacity="0.2889978481690648" />
<circle cx="28.054305371684123" cy="123.37696884980508" r="2.091132614930585" fill="#D2691E" fill-opacity="0.299856257866033" />
<circle cx="53.99535081430035" cy="43.31750857547703" r="4.449010246332039" fill="#8B4513" fill-opacity="0.5814535775299465" />
<circle cx="111.19626195339836" cy="147.05402354399868" r="2.1761572829517632" fill="#FFFFFF" fill-opacity="0.5014145704441428" />
<circle cx="116.56718255135617" cy="153.76418847402158" r="2.2931837094787615" fill="#FFFFFF" fill-opacity="0.23409564868420554" />
<circle cx="108.34055695672178" cy="184.30486484126692" r="4.877586523224508" fill="#FFDE75" fill-opacity="0.28955464331594843" />
<circle cx="147.662686259061" cy="63.73662039707549" r="3.5235837941966732" fill="#FFFFFF" fill-opacity="0.4817554476271936" />
<circle cx="54.050024541025564" cy="166.23146319938783" r="3.8582381689908125" fill="#FFFFFF" fill-opacity="0.20800384529543892" />
<circle cx="162.62072177789977" cy="135.62352294971836" r="4.145138671827606" fill="#8B4513" fill-opacity="0.553351737579155" />
<circle cx="84.84642778781594" cy="26.89964467861782" r="2.0631673196547955" fill="#D2691E" fill-opacity="0.5441718916117189" />
<circle cx="106.37549648466279" cy="108.63020591361588" r="5.150147974319781" fill="#8B4513" fill-opacity="0.46442770287202123" />
<circle cx="114.1339743647036" cy="40.15192108689699" r="4.335995984783461" fill="#8B4513" fill-opacity="0.34170631328396567" />
<circle cx="105.3356266936538" cy="61.10478326036256" r="5.8612893739639444" fill="#8B4513" fill-opacity="0.2625117035449541" />
<circle cx="92.03657259617663" cy="22.21244994109817" r="3.862418932431814" fill="#FFDE75" fill-opacity="0.4221144325446209" />
<circle cx="118.930069841808" cy="66.86966967110818" r="11.510844915312727" fill="#C92A2A" stroke="#800000" stroke-width="1" />
<circle cx="116.21607206379976" cy="70.44632089886345" r="1.4271466264559818" fill="#FFA07A" fill-opacity="0.7" />
<circle cx="119.39121892732034" cy="72.7100011645293" r="0.6158735495925204" fill="#FFA07A" fill-opacity="0.7" />
<circle cx="119.14897692059556" cy="66.4738832658361" r="0.6339838471923878" fill="#FFA07A" fill-opacity="0.7" />
<circle cx="114.51037479327849" cy="72.25390715968177" r="0.8848879599987787" fill="#FFA07A" fill-opacity="0.7" />
<circle cx="115.26236177190674" cy="72.73585804451457" r="0.8664065640787924" fill="#FFA07A" fill-opacity="0.7" />
<circle cx="115.54125527995112" cy="66.09378631591018" r="1.1174146744933457" fill="#FFA07A" fill-opacity="0.7" />
<circle cx="106.66842102999328" cy="136.75209618082476" r="11.080051695997241" fill="#C92A2A" stroke="#800000" stroke-width="1" />
<circle cx="108.35866822063284" cy="137.55166830624938" r="0.5612581511065649" fill="#FFA07A" fill-opacity="0.7" />
<circle cx="110.81811523421146" cy="136.04371303001562" r="0.8796665741113583" fill="#FFA07A" fill-opacity="0.7" />
<circle cx="109.09469673831916" cy="142.23014103834691" r="1.3451391063280382" fill="#FFA07A" fill-opacity="0.7" />
<circle cx="108.91658627076845" cy="133.51055843293415" r="1.1539047339421042" fill="#FFA07A" fill-opacity="0.7" />
<circle cx="108.78689662965513" cy="139.23761509553137" r="0.5122792586565895" fill="#FFA07A" fill-opacity="0.7" />
<circle cx="149.96228874864" cy="71.09936353344472" r="10.937345590620229" fill="#C92A2A" stroke="#800000" stroke-width="1" />
<circle cx="150.21980975057008" cy="70.9191979542897" r="0.850957837220498" fill="#FFA07A" fill-opacity="0.7" />
<circle cx="144.88873333834812" cy="68.08502476140784" r="1.2156049352327092" fill="#FFA07A" fill-opacity="0.7" />
<circle cx="151.2014834651467" cy="76.26196837292969" r="1.1617795023116493" fill="#FFA07A" fill-opacity="0.7" />
<circle cx="146.68095087001964" cy="69.2560964946873" r="0.8944655755479566" fill="#FFA07A" fill-opacity="0.7" />
<circle cx="153.21598363892517" cy="72.56139920442381" r="0.9441033899839468" fill="#FFA07A" fill-opacity="0.7" />
<circle cx="151.26229043258718" cy="76.3950877791408" r="1.0855307810412358" fill="#FFA07A" fill-opacity="0.7" />
<circle cx="70.32599483693369" cy="135.26402406972016" r="11.344120081398415" fill="#C92A2A" stroke="#800000" stroke-width="1" />
<circle cx="71.03202559197736" cy="130.9264510313441" r="1.062620185880819" fill="#FFA07A" fill-opacity="0.7" />
<circle cx="72.0214354207045" cy="138.00979594275572" r="1.1437506245385627" fill="#FFA07A" fill-opacity="0.7" />
<circle cx="69.31523449458255" cy="134.51755627137527" r="0.6907131767206814" fill="#FFA07A" fill-opacity="0.7" />
<circle cx="64.86271538292121" cy="138.67174794688435" r="1.2811065968271236" fill="#FFA07A" fill-opacity="0.7" />
<circle cx="70.50066863143249" cy="138.13339030915424" r="1.1169919250236646" fill="#FFA07A" fill-opacity="0.7" />
<circle cx="53.83083524447727" cy="67.81924311739198" r="11.753632823749655" fill="#C92A2A" stroke="#800000" stroke-width="1" />
<circle cx="49.66639486169475" cy="71.54236095050395" r="0.5706040915245391" fill="#FFA07A" fill-opacity="0.7" />
<circle cx="50.59988693992293" cy="69.14816617552005" r="0.9617454461770861" fill="#FFA07A" fill-opacity="0.7" />
<circle cx="47.85246324674918" cy="64.25720006260157" r="1.2234537390824252" fill="#FFA07A" fill-opacity="0.7" />
<circle cx="105.55686240573594" cy="178.46400854652745" r="9.555107923133436" fill="#C92A2A" stroke="#800000" stroke-width="1" />
<circle cx="102.67688360846964" cy="176.83690831597343" r="0.7785419908142941" fill="#FFA07A" fill-opacity="0.7" />
<circle cx="101.40504985301966" cy="180.76039984072813" r="1.2552714900150945" fill="#FFA07A" fill-opacity="0.7" />
<circle cx="102.40205858423772" cy="178.3383103835258" r="1.0529489869993816" fill="#FFA07A" fill-opacity="0.7" />
<circle cx="102.23329556076445" cy="175.28304108719175" r="0.9223928649820585" fill="#FFA07A" fill-opacity="0.7" />
<circle cx="108.48526153433446" cy="180.7600792301959" r="0.9378054936224041" fill="#FFA07A" fill-opacity="0.7" />
<circle cx="92.48190842281623" cy="82.86082166692039" r="10.681461876058453" fill="#C92A2A" stroke="#800000" stroke-width="1" />
<circle cx="90.28283136953034" cy="87.40001169863609" r="1.2419186395280928" fill="#FFA07A" fill-opacity="0.7" />
<circle cx="96.75942900416906" cy="87.88191608980846" r="0.8040765672786959" fill="#FFA07A" fill-opacity="0.7" />
<circle cx="96.29175283167554" cy="78.80005254160743" r="0.5118409587564221" fill="#FFA07A" fill-opacity="0.7" />
<circle cx="92.60184729917631" cy="79.11346325973" r="1.2222225209135615" fill="#FFA07A" fill-opacity="0.7" />
<circle cx="88.58143710004606" cy="82.11607415156674" r="0.6675437011349984" fill="#FFA07A" fill-opacity="0.7" />
<circle cx="95.62180287168367" cy="85.37246781413012" r="1.0428583311391126" fill="#FFA07A" fill-opacity="0.7" />
<circle cx="92.3666585638189" cy="83.92791187528566" r="1.4575197791831709" fill="#FFA07A" fill-opacity="0.7" />
<circle cx="140.7090966307909" cy="136.53436974603312" r="9.583990184544621" fill="#C92A2A" stroke="#800000" stroke-width="1" />
<circle cx="145.82732595076172" cy="140.12842293507313" r="0.917655365925296" fill="#FFA07A" fill-opacity="0.7" />
<circle cx="143.70841218361036" cy="130.71253973593565" r="0.7569482742302235" fill="#FFA07A" fill-opacity="0.7" />
<circle cx="142.0879641335947" cy="136.11465039524813" r="1.2021380036629568" fill="#FFA07A" fill-opacity="0.7" />
<circle cx="138.0391405860708" cy="134.3790962148453" r="1.0735603631272874" fill="#FFA07A" fill-opacity="0.7" />
<circle cx="139.55655069747385" cy="135.42767991444944" r="0.9145656016731034" fill="#FFA07A" fill-opacity="0.7" />
<circle cx="142.1659833204191" cy="136.60446671202777" r="1.2015209992597438" fill="#FFA07A" fill-opacity="0.7" />
<circle cx="146.58194854147135" cy="135.64560538108168" r="1.4745416130410303" fill="#FFA07A" fill-opacity="0.7" />
<circle cx="127.80581360961496" cy="135.2725809479041" r="11.066610262858308" fill="#C92A2A" stroke="#800000" stroke-width="1" />
<circle cx="125.754553364364" cy="139.1344128304478" r="1.452493309172024" fill="#FFA07A" fill-opacity="0.7" />
<circle cx="127.25319543191358" cy="138.9569001715746" r="0.6420254822958162" fill="#FFA07A" fill-opacity="0.7" />
<circle cx="132.88309546624484" cy="133.1300235632422" r="0.8021934400681259" fill="#FFA07A" fill-opacity="0.7" />
<circle cx="132.73651403901124" cy="131.43426925822203" r="1.0937983410755678" fill="#FFA07A" fill-opacity="0.7" />
<circle cx="108.17517700695694" cy="172.26757403735303" r="11.663756534890599" fill="#C92A2A" stroke="#800000" stroke-width="1" />
<circle cx="110.09808988913431" cy="176.53839434324365" r="1.2727515889242036" fill="#FFA07A" fill-opacity="0.7" />
<circle cx="104.2179921488012" cy="174.36970728437646" r="0.6332814908995611" fill="#FFA07A" fill-opacity="0.7" />
<circle cx="113.7883066076632" cy="175.61610072290503" r="1.4768388734106064" fill="#FFA07A" fill-opacity="0.7" />
<circle cx="110.69959087297626" cy="166.46401814772017" r="0.5838260520916535" fill="#FFA07A" fill-opacity="0.7" />
<circle cx="102.24336940022084" cy="169.46562456900983" r="1.4812311006593628" fill="#FFA07A" fill-opacity="0.7" />
<circle cx="112.15026226252195" cy="174.11738526321477" r="0.6753084456550504" fill="#FFA07A" fill-opacity="0.7" />
<circle cx="57.42626488374199" cy="54.287083125975265" r="10.301027640180326" fill="#C92A2A" stroke="#800000" stroke-width="1" />
<circle cx="61.16764383498502" cy="49.78997415728044" r="1.125971302906891" fill="#FFA07A" fill-opacity="0.7" />
<circle cx="52.16802949184337" cy="50.35807111240905" r="1.0927073536318195" fill="#FFA07A" fill-opacity="0.7" />
<circle cx="58.82345557737594" cy="58.94492342347671" r="1.3750280724976562" fill="#FFA07A" fill-opacity="0.7" />
<circle cx="52.556924342175144" cy="55.74082205781468" r="1.4909337960024178" fill="#FFA07A" fill-opacity="0.7" />
<circle cx="53.10525539812437" cy="57.484821921497044" r="1.291886869554717" fill="#FFA07A" fill-opacity="0.7" />
<circle cx="59.811006427934835" cy="56.255966396413314" r="0.7276067505727657" fill="#FFA07A" fill-opacity="0.7" />
<circle cx="142.4646866239246" cy="38.3558382733858" r="9.752844845474185" fill="#C92A2A" stroke="#800000" stroke-width="1" />
<circle cx="138.4379752981039" cy="32.463818793055204" r="1.0733275357933612" fill="#FFA07A" fill-opacity="0.7" />
<circle cx="138.90054974723003" cy="35.43533856945418" r="1.0645853633935274" fill="#FFA07A" fill-opacity="0.7" />
<circle cx="148.08062699835273" cy="40.890427824338595" r="1.3382652478058117" fill="#FFA07A" fill-opacity="0.7" />
</g>
<path d="M105.0,105.0 L200.10565162951536,74.09830056250526 A100,100,0,0,1,200.10565162951536,135.90169943749473 Z" fill="#F5C754" stroke="lightgray" stroke-width="2" />
<use xlink:href="#clip-4469928528-4471971024" />
<g clip-path="url(#clip-4469928528-4471971024)">
<circle cx="105.0" cy="105.0" r="92" stroke="#DAA05D" stroke-width="16" fill="none" />
<circle cx="105.0" cy="105.0" r="98" stroke="#C37B32" stroke-width="5" fill="none" />
<circle cx="38.95362507955498" cy="99.78974913489878" r="4.51794125342192" fill="#D2691E" fill-opacity="0.4627051168578528" />
<circle cx="148.44876147772305" cy="81.33366821229494" r="5.630650872346593" fill="#FFDE75" fill-opacity="0.3333110720724424" />
<circle cx="94.18603848205755" cy="124.60296108938526" r="2.1353942973594124" fill="#8B4513" fill-opacity="0.3617842800332415" />
<circle cx="69.99605362157229" cy="96.69741636363838" r="2.534297732318393" fill="#D2691E" fill-opacity="0.5481924659407188" />
<circle cx="131.58757816722908" cy="175.9839855404697" r="2.243522847053463" fill="#8B4513" fill-opacity="0.38666155274164493" />
<circle cx="166.83394743305774" cy="162.6456215912467" r="5.427593094786349" fill="#FFDE75" fill-opacity="0.4133927491027688" />
<circle cx="119.01739061308274" cy="104.6574403416739" r="5.075572463287257" fill="#FFDE75" fill-opacity="0.3129010356957828" />
<circle cx="33.63572426304735" cy="95.41571943967575" r="2.190197447387204" fill="#FFDE75" fill-opacity="0.20321291411570808" />
<circle cx="125.50474880220878" cy="24.415873032538784" r="4.2153485907141315" fill="#8B4513" fill-opacity="0.3829892480647302" />
<circle cx="59.79722161673376" cy="100.54241605694949" r="3.175035179893451" fill="#8B4513" fill-opacity="0.5727613701978542" />
<circle cx="89.9951866846939" cy="149.43455318127923" r="3.2134176832826147" fill="#FFDE75" fill-opacity="0.5759941986109267" />
<circle cx="122.68067409130262" cy="187.82200544354814" r="2.9066669386589545" fill="#D2691E" fill-opacity="0.5913156857479388" />
<circle cx="47.6874363991349" cy="152.383800339103" r="2.4662362113351914" fill="#8B4513" fill-opacity="0.2869740761653085" />
<circle cx="89.70684681204769" cy="156.92645072150566" r="4.0823692508181395" fill="#FFDE75" fill-opacity="0.4524255461765135" />
<circle cx="179.63985835212043" cy="69.15411058731875" r="2.7599612473389383" fill="#FFDE75" fill-opacity="0.42603355919641184" />
<circle cx="173.17992755700052" cy="155.32042271583055" r="4.499407810767486" fill="#FFDE75" fill-opacity="0.40000368052892177" />
<circle cx="124.705800927257" cy="94.11204857908263" r="4.5370296183299335" fill="#D2691E" fill-opacity="0.2129701384981281" />
<circle cx="99.98657949600491" cy="134.16962046795484" r="4.7153166687929025" fill="#D2691E" fill-opacity="0.20882060048630147" />
<circle cx="131.4934647063393" cy="100.13029384908734" r="2.9016650758964486" fill="#FFDE75" fill-opacity="0.587260866122931" />
<circle cx="98.349845483536" cy="45.22246177427932" r="5.824996301982434" fill="#FFDE75" fill-opacity="0.22369901183289187" />
<circle cx="172.02735546324413" cy="79.9654900453203" r="2.5171629518292233" fill="#FFDE75" fill-opacity="0.5084137817783053" />
<circle cx="80.38091850955506" cy="65.7116574348553" r="3.7717236073158933" fill="#FFFFFF" fill-opacity="0.35360425720707034" />
<circle cx="149.67180783317895" cy="34.01069588166558" r="4.312522635665065" fill="#FFFFFF" fill-opacity="0.5645173951737212" />
<circle cx="107.14163559670124" cy="121.36778976378423" r="2.657760009900181" fill="#FFDE75" fill-opacity="0.3691599387379968" />
<circle cx="89.14255125514981" cy="101.82036967576089" r="3.889052853805512" fill="#FFFFFF" fill-opacity="0.42461871122328854" />
<circle cx="81.46819940344153" cy="93.75078693861636" r="5.838359390435139" fill="#8B4513" fill-opacity="0.49899104426338403" />
<circle cx="88.88427041758672" cy="164.60060872563318" r="3.0102703879341326" fill="#FFDE75" fill-opacity="0.2449733487359066" />
<circle cx="65.35923982349141" cy="111.29335079023691" r="3.367541192933498" fill="#D2691E" fill-opacity="0.41868830515534394" />
<circle cx="106.51831189091547" cy="115.66328019104745" r="5.910423926653495" fill="#FFFFFF" fill-opacity="0.40902149994733195" />
<circle cx="58.06726730355247" cy="99.14418863426725" r="3.042170990096663" fill="#FFFFFF" fill-opacity="0.4863998582828536" />
<circle cx="90.37490962704467" cy="126.57035773704817" r="4.512628103608773" fill="#FFDE75" fill-opacity="0.5440731520239963" />
<circle cx="80.58989835984988" cy="175.35492695237684" r="3.987750109838003" fill="#D2691E" fill-opacity="0.2889978481690648" />
<circle cx="28.054305371684123" cy="123.37696884980508" r="2.091132614930585" fill="#D2691E" fill-opacity="0.299856257866033" />
<circle cx="53.99535081430035" cy="43.31750857547703" r="4.449010246332039" fill="#8B4513" fill-opacity="0.5814535775299465" />
<circle cx="111.19626195339836" cy="147.05402354399868" r="2.1761572829517632" fill="#FFFFFF" fill-opacity="0.5014145704441428" />
<circle cx="116.56718255135617" cy="153.76418847402158" r="2.2931837094787615" fill="#FFFFFF" fill-opacity="0.23409564868420554" />
<circle cx="108.34055695672178" cy="184.30486484126692" r="4.877586523224508" fill="#FFDE75" fill-opacity="0.28955464331594843" />
<circle cx="147.662686259061" cy="63.73662039707549" r="3.5235837941966732" fill="#FFFFFF" fill-opacity="0.4817554476271936" />
<circle cx="54.050024541025564" cy="166.23146319938783" r="3.8582381689908125" fill="#FFFFFF" fill-opacity="0.20800384529543892" />
<circle cx="162.62072177789977" cy="135.62352294971836" r="4.145138671827606" fill="#8B4513" fill-opacity="0.553351737579155" />
<circle cx="84.84642778781594" cy="26.89964467861782" r="2.0631673196547955" fill="#D2691E" fill-opacity="0.5441718916117189" />
<circle cx="106.37549648466279" cy="108.63020591361588" r="5.150147974319781" fill="#8B4513" fill-opacity="0.46442770287202123" />
<circle cx="114.1339743647036" cy="40.15192108689699" r="4.335995984783461" fill="#8B4513" fill-opacity="0.34170631328396567" />
<circle cx="105.3356266936538" cy="61.10478326036256" r="5.8612893739639444" fill="#8B4513" fill-opacity="0.2625117035449541" />
<circle cx="92.03657259617663" cy="22.21244994109817" r="3.862418932431814" fill="#FFDE75" fill-opacity="0.4221144325446209" />
<circle cx="118.930069841808" cy="66.86966967110818" r="11.510844915312727" fill="#C92A2A" stroke="#800000" stroke-width="1" />
<circle cx="116.21607206379976" cy="70.44632089886345" r="1.4271466264559818" fill="#FFA07A" fill-opacity="0.7" />
<circle cx="119.39121892732034" cy="72.7100011645293" r="0.6158735495925204" fill="#FFA07A" fill-opacity="0.7" />
<circle cx="119.14897692059556" cy="66.4738832658361" r="0.6339838471923878" fill="#FFA07A" fill-opacity="0.7" />
<circle cx="114.51037479327849" cy="72.25390715968177" r="0.8848879599987787" fill="#FFA07A" fill-opacity="0.7" />
<circle cx="115.26236177190674" cy="72.73585804451457" r="0.8664065640787924" fill="#FFA07A" fill-opacity="0.7" />
<circle cx="115.54125527995112" cy="66.09378631591018" r="1.1174146744933457" fill="#FFA07A" fill-opacity="0.7" />
<circle cx="106.66842102999328" cy="136.75209618082476" r="11.080051695997241" fill="#C92A2A" stroke="#800000" stroke-width="1" />
<circle cx="108.35866822063284" cy="137.55166830624938" r="0.5612581511065649" fill="#FFA07A" fill-opacity="0.7" />
<circle cx="110.81811523421146" cy="136.04371303001562" r="0.8796665741113583" fill="#FFA07A" fill-opacity="0.7" />
<circle cx="109.09469673831916" cy="142.23014103834691" r="1.3451391063280382" fill="#FFA07A" fill-opacity="0.7" />
<circle cx="108.91658627076845" cy="133.51055843293415" r="1.1539047339421042" fill="#FFA07A" fill-opacity="0.7" />
<circle cx="108.78689662965513" cy="139.23761509553137" r="0.5122792586565895" fill="#FFA07A" fill-opacity="0.7" />
<circle cx="149.96228874864" cy="71.09936353344472" r="10.937345590620229" fill="#C92A2A" stroke="#800000" stroke-width="1" />
<circle cx="150.21980975057008" cy="70.9191979542897" r="0.850957837220498" fill="#FFA07A" fill-opacity="0.7" />
<circle cx="144.88873333834812" cy="68.08502476140784" r="1.2156049352327092" fill="#FFA07A" fill-opacity="0.7" />
<circle cx="151.2014834651467" cy="76.26196837292969" r="1.1617795023116493" fill="#FFA07A" fill-opacity="0.7" />
<circle cx="146.68095087001964" cy="69.2560964946873" r="0.8944655755479566" fill="#FFA07A" fill-opacity="0.7" />
<circle cx="153.21598363892517" cy="72.56139920442381" r="0.9441033899839468" fill="#FFA07A" fill-opacity="0.7" />
<circle cx="151.26229043258718" cy="76.3950877791408" r="1.0855307810412358" fill="#FFA07A" fill-opacity="0.7" />
<circle cx="70.32599483693369" cy="135.26402406972016" r="11.344120081398415" fill="#C92A2A" stroke="#800000" stroke-width="1" />
<circle cx="71.03202559197736" cy="130.9264510313441" r="1.062620185880819" fill="#FFA07A" fill-opacity="0.7" />
<circle cx="72.0214354207045" cy="138.00979594275572" r="1.1437506245385627" fill="#FFA07A" fill-opacity="0.7" />
<circle cx="69.31523449458255" cy="134.51755627137527" r="0.6907131767206814" fill="#FFA07A" fill-opacity="0.7" />
<circle cx="64.86271538292121" cy="138.67174794688435" r="1.2811065968271236" fill="#FFA07A" fill-opacity="0.7" />
<circle cx="70.50066863143249" cy="138.13339030915424" r="1.1169919250236646" fill="#FFA07A" fill-opacity="0.7" />
<circle cx="53.83083524447727" cy="67.81924311739198" r="11.753632823749655" fill="#C92A2A" stroke="#800000" stroke-width="1" />
<circle cx="49.66639486169475" cy="71.54236095050395" r="0.5706040915245391" fill="#FFA07A" fill-opacity="0.7" />
<circle cx="50.59988693992293" cy="69.14816617552005" r="0.9617454461770861" fill="#FFA07A" fill-opacity="0.7" />
<circle cx="47.85246324674918" cy="64.25720006260157" r="1.2234537390824252" fill="#FFA07A" fill-opacity="0.7" />
<circle cx="105.55686240573594" cy="178.46400854652745" r="9.555107923133436" fill="#C92A2A" stroke="#800000" stroke-width="1" />
<circle cx="102.67688360846964" cy="176.83690831597343" r="0.7785419908142941" fill="#FFA07A" fill-opacity="0.7" />
<circle cx="101.40504985301966" cy="180.76039984072813" r="1.2552714900150945" fill="#FFA07A" fill-opacity="0.7" />
<circle cx="102.40205858423772" cy="178.3383103835258" r="1.0529489869993816" fill="#FFA07A" fill-opacity="0.7" />
<circle cx="102.23329556076445" cy="175.28304108719175" r="0.9223928649820585" fill="#FFA07A" fill-opacity="0.7" />
<circle cx="108.48526153433446" cy="180.7600792301959" r="0.9378054936224041" fill="#FFA07A" fill-opacity="0.7" />
<circle cx="92.48190842281623" cy="82.86082166692039" r="10.681461876058453" fill="#C92A2A" stroke="#800000" stroke-width="1" />
<circle cx="90.28283136953034" cy="87.40001169863609" r="1.2419186395280928" fill="#FFA07A" fill-opacity="0.7" />
<circle cx="96.75942900416906" cy="87.88191608980846" r="0.8040765672786959" fill="#FFA07A" fill-opacity="0.7" />
<circle cx="96.29175283167554" cy="78.80005254160743" r="0.5118409587564221" fill="#FFA07A" fill-opacity="0.7" />
<circle cx="92.60184729917631" cy="79.11346325973" r="1.2222225209135615" fill="#FFA07A" fill-opacity="0.7" />
<circle cx="88.58143710004606" cy="82.11607415156674" r="0.6675437011349984" fill="#FFA07A" fill-opacity="0.7" />
<circle cx="95.62180287168367" cy="85.37246781413012" r="1.0428583311391126" fill="#FFA07A" fill-opacity="0.7" />
<circle cx="92.3666585638189" cy="83.92791187528566" r="1.4575197791831709" fill="#FFA07A" fill-opacity="0.7" />
<circle cx="140.7090966307909" cy="136.53436974603312" r="9.583990184544621" fill="#C92A2A" stroke="#800000" stroke-width="1" />
<circle cx="145.82732595076172" cy="140.12842293507313" r="0.917655365925296" fill="#FFA07A" fill-opacity="0.7" />
<circle cx="143.70841218361036" cy="130.71253973593565" r="0.7569482742302235" fill="#FFA07A" fill-opacity="0.7" />
<circle cx="142.0879641335947" cy="136.11465039524813" r="1.2021380036629568" fill="#FFA07A" fill-opacity="0.7" />
<circle cx="138.0391405860708" cy="134.3790962148453" r="1.0735603631272874" fill="#FFA07A" fill-opacity="0.7" />
<circle cx="139.55655069747385" cy="135.42767991444944" r="0.9145656016731034" fill="#FFA07A" fill-opacity="0.7" />
<circle cx="142.1659833204191" cy="136.60446671202777" r="1.2015209992597438" fill="#FFA07A" fill-opacity="0.7" />
<circle cx="146.58194854147135" cy="135.64560538108168" r="1.4745416130410303" fill="#FFA07A" fill-opacity="0.7" />
<circle cx="127.80581360961496" cy="135.2725809479041" r="11.066610262858308" fill="#C92A2A" stroke="#800000" stroke-width="1" />
<circle cx="125.754553364364" cy="139.1344128304478" r="1.452493309172024" fill="#FFA07A" fill-opacity="0.7" />
<circle cx="127.25319543191358" cy="138.9569001715746" r="0.6420254822958162" fill="#FFA07A" fill-opacity="0.7" />
<circle cx="132.88309546624484" cy="133.1300235632422" r="0.8021934400681259" fill="#FFA07A" fill-opacity="0.7" />
<circle cx="132.73651403901124" cy="131.43426925822203" r="1.0937983410755678" fill="#FFA07A" fill-opacity="0.7" />
<circle cx="108.17517700695694" cy="172.26757403735303" r="11.663756534890599" fill="#C92A2A" stroke="#800000" stroke-width="1" />
<circle cx="110.09808988913431" cy="176.53839434324365" r="1.2727515889242036" fill="#FFA07A" fill-opacity="0.7" />
<circle cx="104.2179921488012" cy="174.36970728437646" r="0.6332814908995611" fill="#FFA07A" fill-opacity="0.7" />
<circle cx="113.7883066076632" cy="175.61610072290503" r="1.4768388734106064" fill="#FFA07A" fill-opacity="0.7" />
<circle cx="110.69959087297626" cy="166.46401814772017" r="0.5838260520916535" fill="#FFA07A" fill-opacity="0.7" />
<circle cx="102.24336940022084" cy="169.46562456900983" r="1.4812311006593628" fill="#FFA07A" fill-opacity="0.7" />
<circle cx="112.15026226252195" cy="174.11738526321477" r="0.6753084456550504" fill="#FFA07A" fill-opacity="0.7" />
<circle cx="57.42626488374199" cy="54.287083125975265" r="10.301027640180326" fill="#C92A2A" stroke="#800000" stroke-width="1" />
<circle cx="61.16764383498502" cy="49.78997415728044" r="1.125971302906891" fill="#FFA07A" fill-opacity="0.7" />
<circle cx="52.16802949184337" cy="50.35807111240905" r="1.0927073536318195" fill="#FFA07A" fill-opacity="0.7" />
<circle cx="58.82345557737594" cy="58.94492342347671" r="1.3750280724976562" fill="#FFA07A" fill-opacity="0.7" />
<circle cx="52.556924342175144" cy="55.74082205781468" r="1.4909337960024178" fill="#FFA07A" fill-opacity="0.7" />
<circle cx="53.10525539812437" cy="57.484821921497044" r="1.291886869554717" fill="#FFA07A" fill-opacity="0.7" />
<circle cx="59.811006427934835" cy="56.255966396413314" r="0.7276067505727657" fill="#FFA07A" fill-opacity="0.7" />
<circle cx="142.4646866239246" cy="38.3558382733858" r="9.752844845474185" fill="#C92A2A" stroke="#800000" stroke-width="1" />
<circle cx="138.4379752981039" cy="32.463818793055204" r="1.0733275357933612" fill="#FFA07A" fill-opacity="0.7" />
<circle cx="138.90054974723003" cy="35.43533856945418" r="1.0645853633935274" fill="#FFA07A" fill-opacity="0.7" />
<circle cx="148.08062699835273" cy="40.890427824338595" r="1.3382652478058117" fill="#FFA07A" fill-opacity="0.7" />
</g>
<rect x="230.0" y="41.0" width="54.0" height="54.0" fill="none" stroke="black" stroke-width="2" />
<rect x="230.0" y="115.0" width="54.0" height="54.0" fill="none" stroke="black" stroke-width="2" />
<path d="M225.0,105.0 L289.0,105.0" stroke="black" stroke-width="2" />
</g>
</svg>