<svg width="660.0" height="210.0" xmlns="http://www.w3.org/2000/svg" xmlns:xlink="http://www.w3.org/1999/xlink">
<svg x="0.0" y="0.0" width="210.0" height="210.0" viewBox="0 0 210 210" xmlns="http://www.w3.org/2000/svg" xmlns:xlink="http://www.w3.org/1999/xlink">
<defs>
<clipPath id="clip-4568042192-4554531056">
<path d="M105.0,105.0 L105.0,5.0 A100,100,0,0,1,205.0,105.0 Z" fill="none" />
</clipPath>
</defs>
<g>
<path d="M105.0,105.0 L105.0,5.0 A100,100,0,0,1,205.0,105.0 Z" fill="none" stroke="lightgray" stroke-width="2" />
<path d="M105.0,105.0 L205.0,105.0 A100,100,0,0,1,105.0,205.0 Z" fill="none" stroke="lightgray" stroke-width="2" />
<path d="M105.0,105.0 L105.0,205.0 A100,100,0,0,1,5.0,105.00000000000001 Z" fill="none" stroke="lightgray" stroke-width="2" />
<path d="M105.0,105.0 L5.0,105.00000000000001 A100,100,0,0,1,104.99999999999999,5.0 Z" fill="none" stroke="lightgray" stroke-width="2" />
<path d="M105.0,105.0 L105.0,5.0 A100,100,0,0,1,205.0,105.0 Z" fill="#F5C754" stroke="lightgray" stroke-width="2" />
<use xlink:href="#clip-4568042192-4554531056" />
<g clip-path="url(#clip-4568042192-4554531056)">
<circle cx="105.0" cy="105.0" r="92" stroke="#DAA05D" stroke-width="16" fill="none" />
<circle cx="105.0" cy="105.0" r="98" stroke="#C37B32" stroke-width="5" fill="none" />
<circle cx="71.64396423681191" cy="158.76043042547087" r="3.1467275700307593" fill="#FFDE75" fill-opacity="0.5772710238931881" />
<circle cx="145.25770032652756" cy="129.84421952727675" r="4.3071297685328345" fill="#8B4513" fill-opacity="0.5195741902630375" />
<circle cx="65.23600317182718" cy="169.23675036487174" r="3.556113521997938" fill="#FFFFFF" fill-opacity="0.4019151603437604" />
<circle cx="131.78814670872364" cy="185.31722954404205" r="3.5693167884004984" fill="#FFDE75" fill-opacity="0.2748396180941134" />
<circle cx="32.5678620806065" cy="95.56543771641694" r="4.312438296602976" fill="#FFDE75" fill-opacity="0.33829552138264096" />
<circle cx="52.10224654527924" cy="157.19846802259963" r="2.9373438784161285" fill="#D2691E" fill-opacity="0.5467320950056864" />
<circle cx="37.31005654076412" cy="148.51914180362783" r="5.127367450006826" fill="#8B4513" fill-opacity="0.2147373409860697" />
<circle cx="48.09849066038979" cy="72.12567673095523" r="5.100854597877251" fill="#D2691E" fill-opacity="0.21592511521482202" />
<circle cx="25.083209494716357" cy="82.89449249132254" r="2.3505261199487664" fill="#8B4513" fill-opacity="0.5903440109840274" />
<circle cx="23.462343065408675" cy="123.471634638389" r="2.3652087803781137" fill="#FFDE75" fill-opacity="0.46571971207763" />
<circle cx="31.918089007394045" cy="83.01814379517158" r="2.4267710655865398" fill="#FFDE75" fill-opacity="0.4005230865996212" />
<circle cx="179.30996530551707" cy="134.99238599931442" r="4.558563217199744" fill="#D2691E" fill-opacity="0.4111751275514185" />
<circle cx="79.44627239186356" cy="184.71947003289404" r="5.086508806677976" fill="#FFFFFF" fill-opacity="0.36257365869915714" />
<circle cx="102.31151712624577" cy="136.14013307814272" r="5.52406662793671" fill="#D2691E" fill-opacity="0.3638510703552894" />
<circle cx="189.4348654256686" cy="111.59963892777367" r="4.161183700437555" fill="#FFDE75" fill-opacity="0.5774144994604671" />
<ellipse cx="98.06475378095179" cy="84.09016691161526" rx="6.42626658357879" ry="6.043218165005715" fill="#FFFDF0" fill-opacity="0.6" />
<ellipse cx="98.6183537752461" cy="83.24796098854615" rx="4.409908304950701" ry="2.5850522484026746" fill="#FFFFFF" fill-opacity="0.85" />
<ellipse cx="61.55911261194124" cy="94.26274819230764" rx="5.920086180316234" ry="8.358453087911887" fill="#FFFDF0" fill-opacity="0.6" />
<ellipse cx="61.44254679405915" cy="94.88185115851313" rx="4.204018206518402" ry="2.784729965729065" fill="#FFFFFF" fill-opacity="0.85" />
<ellipse cx="63.09328526931199" cy="98.52655840049904" rx="5.504824798411057" ry="6.955456518815508" fill="#FFFDF0" fill-opacity="0.6" />
<ellipse cx="62.41364637841849" cy="99.4895704422201" rx="2.3773867525649184" ry="2.78342620990614" fill="#FFFFFF" fill-opacity="0.85" />
</g>
</g>
</svg>
<svg x="225.0" y="0.0" width="210.0" height="210.0" viewBox="0 0 210 210" xmlns="http://www.w3.org/2000/svg" xmlns:xlink="http://www.w3.org/1999/xlink">
<defs>
<clipPath id="clip-4557139600-4503958288">
<path d="M105.0,105.0 L105.0,5.0 A100,100,0,0,1,200.10565162951536,74.09830056250526 Z" fill="none" />
</clipPath>
<clipPath id="clip-4557139600-4568172864">
<path d="M105.0,105.0 L200.10565162951536,74.09830056250526 A100,100,0,0,1,163.77852522924732,185.90169943749476 Z" fill="none" />
</clipPath>
</defs>
<g>
<path d="M105.0,105.0 L105.0,5.0 A100,100,0,0,1,200.10565162951536,74.09830056250526 Z" fill="none" stroke="lightgray" stroke-width="2" />
<path d="M105.0,105.0 L200.10565162951536,74.09830056250526 A100,100,0,0,1,163.77852522924732,185.90169943749476 Z" fill="none" stroke="lightgray" stroke-width="2" />
<path d="M105.0,105.0 L163.77852522924732,185.90169943749476 A100,100,0,0,1,46.2214747707527,185.90169943749476 Z" fill="none" stroke="lightgray" stroke-width="2" />
<path d="M105.0,105.0 L46.2214747707527,185.90169943749476 A100,100,0,0,1,9.894348370484636,74.09830056250527 Z" fill="none" stroke="lightgray" stroke-width="2" />
<path d="M105.0,105.0 L9.894348370484636,74.09830056250527 A100,100,0,0,1,104.99999999999999,5.0 Z" fill="none" stroke="lightgray" stroke-width="2" />
<path d="M105.0,105.0 L105.0,5.0 A100,100,0,0,1,200.10565162951536,74.09830056250526 Z" fill="#F5C754" stroke="lightgray" stroke-width="2" />
<use xlink:href="#clip-4557139600-4503958288" />
<g clip-path="url(#clip-4557139600-4503958288)">
<circle cx="105.0" cy="105.0" r="92" stroke="#DAA05D" stroke-width="16" fill="none" />
<circle cx="105.0" cy="105.0" r="98" stroke="#C37B32" stroke-width="5" fill="none" />
<circle cx="177.40989750356655" cy="126.44485295834185" r="5.221417859424863" fill="#FFFFFF" fill-opacity="0.5543536848695934" />
<circle cx="133.1079508786777" cy="175.32713878125148" r="5.709937066113701" fill="#D2691E" fill-opacity="0.4805496177713651" />
<circle cx="85.55321848100817" cy="112.2974175411699" r="2.0549099784256555" fill="#FFFFFF" fill-opacity="0.284152619090317" />
<circle cx="122.53007822335164" cy="148.66169227870964" r="2.7579775520762886" fill="#FFDE75" fill-opacity="0.4962401517725366" />
<circle cx="79.74666038243274" cy="127.12105760692404" r="5.994708111587778" fill="#FFDE75" fill-opacity="0.4992764180188361" />
<circle cx="113.37931532202818" cy="27.168336910559717" r="4.8859567989347585" fill="#FFFFFF" fill-opacity="0.2867227411123018" />
<circle cx="163.75425728592515" cy="86.54597072156403" r="3.4535023023582423" fill="#FFFFFF" fill-opacity="0.24487959330651154" />
<circle cx="116.44740470353558" cy="52.0189790790107" r="5.470873466665163" fill="#FFFFFF" fill-opacity="0.36689913688762177" />
<circle cx="156.64091830934865" cy="155.08818703633503" r="4.758578925724583" fill="#8B4513" fill-opacity="0.5506775850751588" />
<circle cx="123.43713419879447" cy="30.118887452149806" r="5.981818576483233" fill="#FFFFFF" fill-opacity="0.46771905110346024" />
<circle cx="131.35292374916867" cy="158.90841140599036" r="5.720754046259218" fill="#FFDE75" fill-opacity="0.37175640609381444" />
<circle cx="157.3319511126291" cy="106.39509273970495" r="5.190076988654902" fill="#8B4513" fill-opacity="0.43032848509285937" />
<circle cx="111.42073189688253" cy="31.098237358737478" r="3.0645351246831156" fill="#FFFFFF" fill-opacity="0.4492819273239654" />
<circle cx="84.4311753264706" cy="155.94636308104452" r="5.006513129739963" fill="#D2691E" fill-opacity="0.22015951559017424" />
<circle cx="135.621090373798" cy="76.85045302430562" r="3.7902469813925026" fill="#8B4513" fill-opacity="0.5596840322971914" />
<circle cx="35.32053994260268" cy="99.21815543065352" r="2.6487233649739177" fill="#FFDE75" fill-opacity="0.5174913591017931" />
<circle cx="171.06173653372386" cy="141.95476847136598" r="3.407052574983822" fill="#D2691E" fill-opacity="0.28086355906320926" />
<circle cx="137.6056780904031" cy="142.95718174042517" r="3.425929171623258" fill="#D2691E" fill-opacity="0.4094273747546634" />
<circle cx="107.9524879988355" cy="27.048004082212017" r="3.5434099921503326" fill="#FFDE75" fill-opacity="0.5604818382305985" />
<circle cx="78.5277816741007" cy="90.64846513987095" r="4.290543000590221" fill="#8B4513" fill-opacity="0.27859429867212315" />
<circle cx="70.39374025331239" cy="168.65970988759082" r="2.4035743253415727" fill="#FFFFFF" fill-opacity="0.21510049246326954" />
<circle cx="59.423562298611046" cy="150.31715912743118" r="4.620600734634522" fill="#D2691E" fill-opacity="0.37476410093754997" />
<circle cx="58.28521386104002" cy="71.49351046203714" r="5.546454679828824" fill="#FFDE75" fill-opacity="0.4334698658160862" />
<circle cx="163.48697633079277" cy="92.27375173452471" r="2.974404153360764" fill="#FFDE75" fill-opacity="0.5342998244233654" />
<circle cx="141.9056118656083" cy="159.16516017441822" r="2.215666649170447" fill="#FFFFFF" fill-opacity="0.5974824272704118" />
<circle cx="46.391449590102035" cy="65.24434426473033" r="3.0036990237966905" fill="#8B4513" fill-opacity="0.3066673264397807" />
<circle cx="113.64224120784255" cy="29.29440212100829" r="4.255034121791439" fill="#D2691E" fill-opacity="0.23179404427932307" />
<circle cx="173.5566415935323" cy="98.82743151074189" r="5.443026710557418" fill="#FFDE75" fill-opacity="0.2564536210393886" />
<circle cx="133.7313122435399" cy="100.34872434774339" r="5.462023682841995" fill="#FFDE75" fill-opacity="0.38004275838087487" />
<circle cx="121.51411143631252" cy="23.30496149147679" r="2.164286314624527" fill="#FFFFFF" fill-opacity="0.48322665582687624" />
<ellipse cx="32.312822126757894" cy="96.27902237708828" rx="6.394843516094124" ry="8.698635945981" fill="#FFFDF0" fill-opacity="0.6" />
<ellipse cx="32.96349426940177" cy="95.706233364422" rx="3.763637204419046" ry="3.318497433563873" fill="#FFFFFF" fill-opacity="0.85" />
<ellipse cx="92.7316037579986" cy="107.88938770275826" rx="8.012827374709328" ry="8.639769040702792" fill="#FFFDF0" fill-opacity="0.6" />
<ellipse cx="93.21830325195114" cy="107.82653685435916" rx="3.9361567132858863" ry="2.5996747491514163" fill="#FFFFFF" fill-opacity="0.85" />
<ellipse cx="123.70406245509679" cy="117.01184658922523" rx="7.15569846576235" ry="8.321038215140613" fill="#FFFDF0" fill-opacity="0.6" />
<ellipse cx="124.08826369075561" cy="116.57248609537096" rx="3.7544964598634754" ry="2.0545238692219963" fill="#FFFFFF" fill-opacity="0.85" />
<ellipse cx="164.05477835303617" cy="77.58059022538096" rx="6.545233110459501" ry="8.49720772086836" fill="#FFFDF0" fill-opacity="0.6" />
<ellipse cx="163.5743756589807" cy="76.7207337531698" rx="3.062743350795345" ry="3.426373176566072" fill="#FFFFFF" fill-opacity="0.85" />
<ellipse cx="73.73784862711335" cy="134.16758178709117" rx="6.461854008165407" ry="4.185976878147899" fill="#FFFDF0" fill-opacity="0.6" />
<ellipse cx="73.77415322225336" cy="134.11657191534513" rx="2.964483561098189" ry="2.768195478441549" fill="#FFFFFF" fill-opacity="0.85" />
<ellipse cx="34.35517968376564" cy="125.51587711126497" rx="5.620949436528308" ry="6.309983161565679" fill="#FFFDF0" fill-opacity="0.6" />
<ellipse cx="34.444564762747746" cy="125.13086764158787" rx="3.9509339030935258" ry="2.394788827339837" fill="#FFFFFF" fill-opacity="0.85" />
</g>
<path d="M105.0,105.0 L200.10565162951536,74.09830056250526 A100,100,0,0,1,163.77852522924732,185.90169943749476 Z" fill="#F5C754" stroke="lightgray" stroke-width="2" />
<use xlink:href="#clip-4557139600-4568172864" />
<g clip-path="url(#clip-4557139600-4568172864)">
<circle cx="105.0" cy="105.0" r="92" stroke="#DAA05D" stroke-width="16" fill="none" />
<circle cx="105.0" cy="105.0" r="98" stroke="#C37B32" stroke-width="5" fill="none" />
<circle cx="177.40989750356655" cy="126.44485295834185" r="5.221417859424863" fill="#FFFFFF" fill-opacity="0.5543536848695934" />
<circle cx="133.1079508786777" cy="175.32713878125148" r="5.709937066113701" fill="#D2691E" fill-opacity="0.4805496177713651" />
<circle cx="85.55321848100817" cy="112.2974175411699" r="2.0549099784256555" fill="#FFFFFF" fill-opacity="0.284152619090317" />
<circle cx="122.53007822335164" cy="148.66169227870964" r="2.7579775520762886" fill="#FFDE75" fill-opacity="0.4962401517725366" />
<circle cx="79.74666038243274" cy="127.12105760692404" r="5.994708111587778" fill="#FFDE75" fill-opacity="0.4992764180188361" />
<circle cx="113.37931532202818" cy="27.168336910559717" r="4.8859567989347585" fill="#FFFFFF" fill-opacity="0.2867227411123018" />
<circle cx="163.75425728592515" cy="86.54597072156403" r="3.4535023023582423" fill="#FFFFFF" fill-opacity="0.24487959330651154" />
<circle cx="116.44740470353558" cy="52.0189790790107" r="5.470873466665163" fill="#FFFFFF" fill-opacity="0.36689913688762177" />
<circle cx="156.64091830934865" cy="155.08818703633503" r="4.758578925724583" fill="#8B4513" fill-opacity="0.5506775850751588" />
<circle cx="123.43713419879447" cy="30.118887452149806" r="5.981818576483233" fill="#FFFFFF" fill-opacity="0.46771905110346024" />
<circle cx="131.35292374916867" cy="158.90841140599036" r="5.720754046259218" fill="#FFDE75" fill-opacity="0.37175640609381444" />
<circle cx="157.3319511126291" cy="106.39509273970495" r="5.190076988654902" fill="#8B4513" fill-opacity="0.43032848509285937" />
<circle cx="111.42073189688253" cy="31.098237358737478" r="3.0645351246831156" fill="#FFFFFF" fill-opacity="0.4492819273239654" />
<circle cx="84.4311753264706" cy="155.94636308104452" r="5.006513129739963" fill="#D2691E" fill-opacity="0.22015951559017424" />
<circle cx="135.621090373798" cy="76.85045302430562" r="3.7902469813925026" fill="#8B4513" fill-opacity="0.5596840322971914" />
<circle cx="35.32053994260268" cy="99.21815543065352" r="2.6487233649739177" fill="#FFDE75" fill-opacity="0.5174913591017931" />
<circle cx="171.06173653372386" cy="141.95476847136598" r="3.407052574983822" fill="#D2691E" fill-opacity="0.28086355906320926" />
<circle cx="137.6056780904031" cy="142.95718174042517" r="3.425929171623258" fill="#D2691E" fill-opacity="0.4094273747546634" />
<circle cx="107.9524879988355" cy="27.048004082212017" r="3.5434099921503326" fill="#FFDE75" fill-opacity="0.5604818382305985" />
<circle cx="78.5277816741007" cy="90.64846513987095" r="4.290543000590221" fill="#8B4513" fill-opacity="0.27859429867212315" />
<circle cx="70.39374025331239" cy="168.65970988759082" r="2.4035743253415727" fill="#FFFFFF" fill-opacity="0.21510049246326954" />
<circle cx="59.423562298611046" cy="150.31715912743118" r="4.620600734634522" fill="#D2691E" fill-opacity="0.37476410093754997" />
<circle cx="58.28521386104002" cy="71.49351046203714" r="5.546454679828824" fill="#FFDE75" fill-opacity="0.4334698658160862" />
<circle cx="163.48697633079277" cy="92.27375173452471" r="2.974404153360764" fill="#FFDE75" fill-opacity="0.5342998244233654" />
<circle cx="141.9056118656083" cy="159.16516017441822" r="2.215666649170447" fill="#FFFFFF" fill-opacity="0.5974824272704118" />
<circle cx="46.391449590102035" cy="65.24434426473033" r="3.0036990237966905" fill="#8B4513" fill-opacity="0.3066673264397807" />
<circle cx="113.64224120784255" cy="29.29440212100829" r="4.255034121791439" fill="#D2691E" fill-opacity="0.23179404427932307" />
<circle cx="173.5566415935323" cy="98.82743151074189" r="5.443026710557418" fill="#FFDE75" fill-opacity="0.2564536210393886" />
<circle cx="133.7313122435399" cy="100.34872434774339" r="5.462023682841995" fill="#FFDE75" fill-opacity="0.38004275838087487" />
<circle cx="121.51411143631252" cy="23.30496149147679" r="2.164286314624527" fill="#FFFFFF" fill-opacity="0.48322665582687624" />
<ellipse cx="32.312822126757894" cy="96.27902237708828" rx="6.394843516094124" ry="8.698635945981" fill="#FFFDF0" fill-opacity="0.6" />
<ellipse cx="32.96349426940177" cy="95.706233364422" rx="3.763637204419046" ry="3.318497433563873" fill="#FFFFFF" fill-opacity="0.85" />
<ellipse cx="92.7316037579986" cy="107.88938770275826" rx="8.012827374709328" ry="8.639769040702792" fill="#FFFDF0" fill-opacity="0.6" />
<ellipse cx="93.21830325195114" cy="107.82653685435916" rx="3.9361567132858863" ry="2.5996747491514163" fill="#FFFFFF" fill-opacity="0.85" />
<ellipse cx="123.70406245509679" cy="117.01184658922523" rx="7.15569846576235" ry="8.321038215140613" fill="#FFFDF0" fill-opacity="0.6" />
<ellipse cx="124.08826369075561" cy="116.57248609537096" rx="3.7544964598634754" ry="2.0545238692219963" fill="#FFFFFF" fill-opacity="0.85" />
<ellipse cx="164.05477835303617" cy="77.58059022538096" rx="6.545233110459501" ry="8.49720772086836" fill="#FFFDF0" fill-opacity="0.6" />
<ellipse cx="163.5743756589807" cy="76.7207337531698" rx="3.062743350795345" ry="3.426373176566072" fill="#FFFFFF" fill-opacity="0.85" />
<ellipse cx="73.73784862711335" cy="134.16758178709117" rx="6.461854008165407" ry="4.185976878147899" fill="#FFFDF0" fill-opacity="0.6" />
<ellipse cx="73.77415322225336" cy="134.11657191534513" rx="2.964483561098189" ry="2.768195478441549" fill="#FFFFFF" fill-opacity="0.85" />
<ellipse cx="34.35517968376564" cy="125.51587711126497" rx="5.620949436528308" ry="6.309983161565679" fill="#FFFDF0" fill-opacity="0.6" />
<ellipse cx="34.444564762747746" cy="125.13086764158787" rx="3.9509339030935258" ry="2.394788827339837" fill="#FFFFFF" fill-opacity="0.85" />
</g>
</g>
</svg>
<svg x="450.0" y="0.0" width="210.0" height="210.0" viewBox="0 0 210 210" xmlns="http://www.w3.org/2000/svg" xmlns:xlink="http://www.w3.org/1999/xlink">
<defs>
<clipPath id="clip-4567947280-4554218192">
<path d="M105.0,105.0 L105.0,5.0 A100,100,0,0,1,191.60254037844388,55.00000000000001 Z" fill="none" />
</clipPath>
<clipPath id="clip-4567947280-4567684432">
<path d="M105.0,105.0 L191.60254037844388,55.00000000000001 A100,100,0,0,1,191.60254037844388,155.0 Z" fill="none" />
</clipPath>
<clipPath id="clip-4567947280-4568275664">
<path d="M105.0,105.0 L191.60254037844388,155.0 A100,100,0,0,1,105.0,205.0 Z" fill="none" />
</clipPath>
<clipPath id="clip-4567947280-4568311632">
<path d="M105.0,105.0 L105.0,205.0 A100,100,0,0,1,18.397459621556123,155.0 Z" fill="none" />
</clipPath>
</defs>
<g>
<path d="M105.0,105.0 L105.0,5.0 A100,100,0,0,1,191.60254037844388,55.00000000000001 Z" fill="none" stroke="lightgray" stroke-width="2" />
<path d="M105.0,105.0 L191.60254037844388,55.00000000000001 A100,100,0,0,1,191.60254037844388,155.0 Z" fill="none" stroke="lightgray" stroke-width="2" />
<path d="M105.0,105.0 L191.60254037844388,155.0 A100,100,0,0,1,105.0,205.0 Z" fill="none" stroke="lightgray" stroke-width="2" />
<path d="M105.0,105.0 L105.0,205.0 A100,100,0,0,1,18.397459621556123,155.0 Z" fill="none" stroke="lightgray" stroke-width="2" />
<path d="M105.0,105.0 L18.397459621556123,155.0 A100,100,0,0,1,18.397459621556138,54.999999999999986 Z" fill="none" stroke="lightgray" stroke-width="2" />
<path d="M105.0,105.0 L18.397459621556138,54.999999999999986 A100,100,0,0,1,104.99999999999999,5.0 Z" fill="none" stroke="lightgray" stroke-width="2" />
<path d="M105.0,105.0 L105.0,5.0 A100,100,0,0,1,191.60254037844388,55.00000000000001 Z" fill="#F5C754" stroke="lightgray" stroke-width="2" />
<use xlink:href="#clip-4567947280-4554218192" />
<g clip-path="url(#clip-4567947280-4554218192)">
<circle cx="105.0" cy="105.0" r="92" stroke="#DAA05D" stroke-width="16" fill="none" />
<circle cx="105.0" cy="105.0" r="98" stroke="#C37B32" stroke-width="5" fill="none" />
<circle cx="119.57716940591425" cy="67.92925080463687" r="2.714319235224931" fill="#FFFFFF" fill-opacity="0.23259370457578574" />
<circle cx="43.980172013646516" cy="118.15687401090597" r="5.5902029189415225" fill="#FFFFFF" fill-opacity="0.4208646767066805" />
<circle cx="32.04173272924592" cy="108.63336907743532" r="5.7988156702559115" fill="#FFDE75" fill-opacity="0.28395954787858324" />
<circle cx="97.88514523201196" cy="140.0356947898618" r="4.212065278977882" fill="#D2691E" fill-opacity="0.39828280778257996" />
<circle cx="84.51064125569938" cy="34.590068991001374" r="3.901494535650642" fill="#D2691E" fill-opacity="0.3571148385692245" />
<circle cx="26.415470495029936" cy="103.78843221889414" r="2.420251410699813" fill="#D2691E" fill-opacity="0.3443587576168529" />
<circle cx="63.94040932279061" cy="159.2008498442435" r="2.547204441195654" fill="#FFDE75" fill-opacity="0.5272096794598551" />
<circle cx="151.9964340967143" cy="47.15568728787706" r="3.9657279927321" fill="#D2691E" fill-opacity="0.4379446626095404" />
<circle cx="89.74784797997233" cy="56.65789767065709" r="2.2245272834513004" fill="#FFDE75" fill-opacity="0.3370674478019442" />
<circle cx="155.83833746716056" cy="103.66653026445266" r="3.7619809511754285" fill="#D2691E" fill-opacity="0.24539599770620138" />
<circle cx="76.17473485960014" cy="47.14564299335104" r="2.3435789026666365" fill="#8B4513" fill-opacity="0.4133005830192751" />
<circle cx="120.03556899251818" cy="51.13772622301198" r="3.0515959685001395" fill="#8B4513" fill-opacity="0.5530601407800063" />
<circle cx="69.57907016971572" cy="108.2013623076135" r="5.050800896990363" fill="#FFFFFF" fill-opacity="0.4286428854809601" />
<circle cx="33.950250865840985" cy="74.94543426081668" r="3.2335875740556927" fill="#D2691E" fill-opacity="0.36717753679639165" />
<circle cx="122.48757660010935" cy="71.0176854693426" r="3.5610359549708135" fill="#8B4513" fill-opacity="0.5456236940091101" />
<circle cx="173.9318742243659" cy="136.55386956903067" r="3.1713964061305915" fill="#8B4513" fill-opacity="0.23914868912220166" />
<circle cx="35.94894700319526" cy="102.91631319572282" r="4.587685963469465" fill="#D2691E" fill-opacity="0.3427724480008525" />
<circle cx="109.4687632472222" cy="151.94416893962952" r="5.301746642112134" fill="#8B4513" fill-opacity="0.27335503224820246" />
<circle cx="114.72109576789491" cy="53.885648328722304" r="3.7741553535272168" fill="#D2691E" fill-opacity="0.4430874930743036" />
<circle cx="114.43187017207113" cy="141.58735488893683" r="5.660454855902326" fill="#FFFFFF" fill-opacity="0.5171975439968981" />
<circle cx="98.29181108964369" cy="111.51680134030583" r="2.8487122546791825" fill="#FFFFFF" fill-opacity="0.46322827329443234" />
<circle cx="177.02367775341293" cy="116.09408921332043" r="3.020900157230263" fill="#D2691E" fill-opacity="0.33832522688888167" />
<circle cx="161.26505687591208" cy="150.6824316445111" r="4.931824203862187" fill="#8B4513" fill-opacity="0.3792645340425038" />
<circle cx="146.47554507316335" cy="115.61418444670434" r="2.2433421106940816" fill="#D2691E" fill-opacity="0.4138176116246258" />
<circle cx="107.46295634736349" cy="149.86667138105705" r="5.058118635642429" fill="#FFDE75" fill-opacity="0.5912549927527468" />
<circle cx="49.23580256737123" cy="66.11002916868088" r="3.9459190789872904" fill="#D2691E" fill-opacity="0.4772940307702716" />
<circle cx="110.75070876955905" cy="138.31108652566837" r="5.268404359755554" fill="#D2691E" fill-opacity="0.5467752132095678" />
<circle cx="48.43087324548494" cy="165.13514497122563" r="2.0503399536960205" fill="#FFDE75" fill-opacity="0.36178184137203945" />
<circle cx="180.05516159463923" cy="131.70206926340262" r="4.249382843875392" fill="#FFFFFF" fill-opacity="0.3515982208662709" />
<circle cx="120.77113114791962" cy="49.554272501406246" r="3.3715789589944514" fill="#FFDE75" fill-opacity="0.435835409499279" />
<circle cx="91.60651959028047" cy="68.1483626951755" r="3.642586591302926" fill="#FFDE75" fill-opacity="0.5759432096465054" />
<circle cx="109.67409731549239" cy="46.68550819967517" r="5.607780137559391" fill="#D2691E" fill-opacity="0.3407935155747578" />
<circle cx="159.89054982972687" cy="82.14083378808444" r="5.693662230086265" fill="#8B4513" fill-opacity="0.5085025032263422" />
<circle cx="112.02853554415088" cy="173.76165347997545" r="2.682598891161591" fill="#D2691E" fill-opacity="0.31738794742237103" />
<circle cx="93.52112030544089" cy="142.61699160303158" r="2.0991434842927834" fill="#FFDE75" fill-opacity="0.23044664789767602" />
<circle cx="79.74351802640582" cy="35.24528425934223" r="2.7167735295651405" fill="#8B4513" fill-opacity="0.25824421059831065" />
<circle cx="121.58991585626002" cy="102.51812750737025" r="3.4531148355402097" fill="#FFDE75" fill-opacity="0.3801070032942941" />
<circle cx="75.94274549683752" cy="82.06223486373902" r="3.638060808910405" fill="#FFFFFF" fill-opacity="0.4803753726319464" />
<circle cx="142.22906831825287" cy="97.36309224895867" r="2.553471955519537" fill="#FFDE75" fill-opacity="0.47655735282320694" />
<circle cx="112.87097849613325" cy="84.68783460325722" r="4.549012039549504" fill="#FFDE75" fill-opacity="0.41317428966731606" />
<circle cx="41.949362845172956" cy="89.06541857916454" r="4.236780842123851" fill="#D2691E" fill-opacity="0.5436980766200226" />
<circle cx="25.863248972112842" cy="77.66788061100483" r="4.635984970615599" fill="#FFDE75" fill-opacity="0.34388900953068535" />
<circle cx="129.86368301743258" cy="127.39744227375947" r="4.794035043340536" fill="#FFDE75" fill-opacity="0.350216511549045" />
<circle cx="186.42482666365999" cy="123.5771440944617" r="3.6851755494669813" fill="#FFDE75" fill-opacity="0.21974799719686056" />
<circle cx="155.5203079448441" cy="146.58833763565437" r="5.034693612141497" fill="#FFFFFF" fill-opacity="0.5398051575726306" />
<circle cx="97.6810722092565" cy="77.33538620101194" r="2.675178970723652" fill="#FFFFFF" fill-opacity="0.44118644492001224" />
<circle cx="70.73299930879347" cy="64.80842448908066" r="2.9152131772804255" fill="#FFFFFF" fill-opacity="0.26225655479897453" />
<circle cx="29.177831901179616" cy="77.10846069232372" r="2.0090059093379624" fill="#8B4513" fill-opacity="0.3530241652185685" />
<circle cx="71.48498844067501" cy="147.02189981725002" r="3.9802137244057487" fill="#D2691E" fill-opacity="0.5477297624492605" />
<circle cx="150.3327104267002" cy="60.96536993042316" r="2.527708897285233" fill="#8B4513" fill-opacity="0.37980529217742875" />
<circle cx="135.27750727985207" cy="39.30098312122158" r="4.904984356401836" fill="#FFDE75" fill-opacity="0.2664911837071903" />
<circle cx="81.13642251873128" cy="103.26245457119605" r="4.336367617832311" fill="#8B4513" fill-opacity="0.4133389316599063" />
<circle cx="29.100358603546482" cy="137.84134585523117" r="5.289197581689974" fill="#FFFFFF" fill-opacity="0.28417292199741845" />
<circle cx="67.28135477393107" cy="107.71047445990254" r="2.449551447803968" fill="#8B4513" fill-opacity="0.3400958331516152" />
<circle cx="83.23148109950003" cy="100.9892387638047" r="3.792060884286184" fill="#8B4513" fill-opacity="0.3618538547024968" />
<circle cx="133.6914362129163" cy="52.8019869250195" r="4.273636538577115" fill="#FFDE75" fill-opacity="0.3572739871161737" />
<circle cx="148.46478895363384" cy="98.8168697443478" r="3.642943765286305" fill="#FFFFFF" fill-opacity="0.4043775942198442" />
<circle cx="72.36602748105437" cy="86.8217790638477" r="4.815227131565919" fill="#D2691E" fill-opacity="0.5751202125749666" />
<circle cx="130.21711193435272" cy="82.45699766892831" r="2.7324456425855197" fill="#D2691E" fill-opacity="0.3852129788113382" />
<circle cx="76.48270976019694" cy="67.96712646066902" r="2.1789708799958443" fill="#FFFFFF" fill-opacity="0.3745824854688659" />
<ellipse cx="107.0089760106628" cy="101.4899946857496" rx="8.19875035877697" ry="8.003618400632064" fill="#FFFDF0" fill-opacity="0.6" />
<ellipse cx="107.67501938654604" cy="101.10890058280961" rx="3.631921273432492" ry="3.2151180237751804" fill="#FFFFFF" fill-opacity="0.85" />
<ellipse cx="114.28055189486454" cy="61.81165167131635" rx="8.107388945889152" ry="4.4514054996463965" fill="#FFFDF0" fill-opacity="0.6" />
<ellipse cx="113.73245059387428" cy="61.938469100225795" rx="2.1069505537506465" ry="3.1377065391939065" fill="#FFFFFF" fill-opacity="0.85" />
<ellipse cx="37.62670656745645" cy="119.59933945979068" rx="7.772204055156397" ry="6.6642615864722075" fill="#FFFDF0" fill-opacity="0.6" />
<ellipse cx="36.66807581775043" cy="120.30029798956578" rx="4.542137621881421" ry="3.5649051686919524" fill="#FFFFFF" fill-opacity="0.85" />
<ellipse cx="177.8448603806912" cy="121.56110835105711" rx="7.2708249085967775" ry="5.210684358225276" fill="#FFFDF0" fill-opacity="0.6" />
<ellipse cx="177.79870573109108" cy="122.12620091763571" rx="3.9707436733646286" ry="2.348952112152735" fill="#FFFFFF" fill-opacity="0.85" />
<ellipse cx="108.22868118770502" cy="167.04628178139444" rx="8.814247623198245" ry="7.65466901855927" fill="#FFFDF0" fill-opacity="0.6" />
<ellipse cx="108.63690113110312" cy="167.149633888637" rx="4.445042394829336" ry="3.6916315856675954" fill="#FFFFFF" fill-opacity="0.85" />
<ellipse cx="103.6457526304969" cy="77.331072486181" rx="6.557350255418575" ry="8.683431439493416" fill="#FFFDF0" fill-opacity="0.6" />
<ellipse cx="104.36542009474886" cy="77.96440059382424" rx="2.74377826498187" ry="3.3707570846081176" fill="#FFFFFF" fill-opacity="0.85" />
<ellipse cx="115.72557486057237" cy="129.19243722190214" rx="6.707625665285701" ry="7.329577414543446" fill="#FFFDF0" fill-opacity="0.6" />
<ellipse cx="115.81559901910474" cy="130.09136920194936" rx="3.599358911917182" ry="3.5852366328024474" fill="#FFFFFF" fill-opacity="0.85" />
<ellipse cx="111.58127904976891" cy="60.54454410401313" rx="7.955805744857061" ry="5.043856016895871" fill="#FFFDF0" fill-opacity="0.6" />
<ellipse cx="111.75498450969876" cy="59.70778051248324" rx="4.038649134413744" ry="3.5043929537005987" fill="#FFFFFF" fill-opacity="0.85" />
<ellipse cx="143.24445990802133" cy="123.03460799333449" rx="7.735591555028515" ry="7.993565171312209" fill="#FFFDF0" fill-opacity="0.6" />
<ellipse cx="142.52293639545226" cy="123.05186841651233" rx="3.1421809879503235" ry="2.341465118240766" fill="#FFFFFF" fill-opacity="0.85" />
<ellipse cx="40.74909858220644" cy="94.10817027709246" rx="8.740234200866086" ry="4.843966344107972" fill="#FFFDF0" fill-opacity="0.6" />
<ellipse cx="40.07861071026122" cy="94.79496637818539" rx="3.175317340923173" ry="2.4460203613967284" fill="#FFFFFF" fill-opacity="0.85" />
<ellipse cx="95.18745324517732" cy="57.19480090420588" rx="7.239825926562933" ry="8.97027712781157" fill="#FFFDF0" fill-opacity="0.6" />
<ellipse cx="94.88784068475275" cy="57.062882644677586" rx="3.112210464642289" ry="3.2256404400804235" fill="#FFFFFF" fill-opacity="0.85" />
<ellipse cx="150.6355211445479" cy="72.66795272783057" rx="5.5834903627760655" ry="7.937421335355561" fill="#FFFDF0" fill-opacity="0.6" />
<ellipse cx="150.09281118291347" cy="72.98260082281914" rx="4.725960958482708" ry="2.110738412828475" fill="#FFFFFF" fill-opacity="0.85" />
</g>
<path d="M105.0,105.0 L191.60254037844388,55.00000000000001 A100,100,0,0,1,191.60254037844388,155.0 Z" fill="#F5C754" stroke="lightgray" stroke-width="2" />
<use xlink:href="#clip-4567947280-4567684432" />
<g clip-path="url(#clip-4567947280-4567684432)">
<circle cx="105.0" cy="105.0" r="92" stroke="#DAA05D" stroke-width="16" fill="none" />
<circle cx="105.0" cy="105.0" r="98" stroke="#C37B32" stroke-width="5" fill="none" />
<circle cx="119.57716940591425" cy="67.92925080463687" r="2.714319235224931" fill="#FFFFFF" fill-opacity="0.23259370457578574" />
<circle cx="43.980172013646516" cy="118.15687401090597" r="5.5902029189415225" fill="#FFFFFF" fill-opacity="0.4208646767066805" />
<circle cx="32.04173272924592" cy="108.63336907743532" r="5.7988156702559115" fill="#FFDE75" fill-opacity="0.28395954787858324" />
<circle cx="97.88514523201196" cy="140.0356947898618" r="4.212065278977882" fill="#D2691E" fill-opacity="0.39828280778257996" />
<circle cx="84.51064125569938" cy="34.590068991001374" r="3.901494535650642" fill="#D2691E" fill-opacity="0.3571148385692245" />
<circle cx="26.415470495029936" cy="103.78843221889414" r="2.420251410699813" fill="#D2691E" fill-opacity="0.3443587576168529" />
<circle cx="63.94040932279061" cy="159.2008498442435" r="2.547204441195654" fill="#FFDE75" fill-opacity="0.5272096794598551" />
<circle cx="151.9964340967143" cy="47.15568728787706" r="3.9657279927321" fill="#D2691E" fill-opacity="0.4379446626095404" />
<circle cx="89.74784797997233" cy="56.65789767065709" r="2.2245272834513004" fill="#FFDE75" fill-opacity="0.3370674478019442" />
<circle cx="155.83833746716056" cy="103.66653026445266" r="3.7619809511754285" fill="#D2691E" fill-opacity="0.24539599770620138" />
<circle cx="76.17473485960014" cy="47.14564299335104" r="2.3435789026666365" fill="#8B4513" fill-opacity="0.4133005830192751" />
<circle cx="120.03556899251818" cy="51.13772622301198" r="3.0515959685001395" fill="#8B4513" fill-opacity="0.5530601407800063" />
<circle cx="69.57907016971572" cy="108.2013623076135" r="5.050800896990363" fill="#FFFFFF" fill-opacity="0.4286428854809601" />
<circle cx="33.950250865840985" cy="74.94543426081668" r="3.2335875740556927" fill="#D2691E" fill-opacity="0.36717753679639165" />
<circle cx="122.48757660010935" cy="71.0176854693426" r="3.5610359549708135" fill="#8B4513" fill-opacity="0.5456236940091101" />
<circle cx="173.9318742243659" cy="136.55386956903067" r="3.1713964061305915" fill="#8B4513" fill-opacity="0.23914868912220166" />
<circle cx="35.94894700319526" cy="102.91631319572282" r="4.587685963469465" fill="#D2691E" fill-opacity="0.3427724480008525" />
<circle cx="109.4687632472222" cy="151.94416893962952" r="5.301746642112134" fill="#8B4513" fill-opacity="0.27335503224820246" />
<circle cx="114.72109576789491" cy="53.885648328722304" r="3.7741553535272168" fill="#D2691E" fill-opacity="0.4430874930743036" />
<circle cx="114.43187017207113" cy="141.58735488893683" r="5.660454855902326" fill="#FFFFFF" fill-opacity="0.5171975439968981" />
<circle cx="98.29181108964369" cy="111.51680134030583" r="2.8487122546791825" fill="#FFFFFF" fill-opacity="0.46322827329443234" />
<circle cx="177.02367775341293" cy="116.09408921332043" r="3.020900157230263" fill="#D2691E" fill-opacity="0.33832522688888167" />
<circle cx="161.26505687591208" cy="150.6824316445111" r="4.931824203862187" fill="#8B4513" fill-opacity="0.3792645340425038" />
<circle cx="146.47554507316335" cy="115.61418444670434" r="2.2433421106940816" fill="#D2691E" fill-opacity="0.4138176116246258" />
<circle cx="107.46295634736349" cy="149.86667138105705" r="5.058118635642429" fill="#FFDE75" fill-opacity="0.5912549927527468" />
<circle cx="49.23580256737123" cy="66.11002916868088" r="3.9459190789872904" fill="#D2691E" fill-opacity="0.4772940307702716" />
<circle cx="110.75070876955905" cy="138.31108652566837" r="5.268404359755554" fill="#D2691E" fill-opacity="0.5467752132095678" />
<circle cx="48.43087324548494" cy="165.13514497122563" r="2.0503399536960205" fill="#FFDE75" fill-opacity="0.36178184137203945" />
<circle cx="180.05516159463923" cy="131.70206926340262" r="4.249382843875392" fill="#FFFFFF" fill-opacity="0.3515982208662709" />
<circle cx="120.77113114791962" cy="49.554272501406246" r="3.3715789589944514" fill="#FFDE75" fill-opacity="0.435835409499279" />
<circle cx="91.60651959028047" cy="68.1483626951755" r="3.642586591302926" fill="#FFDE75" fill-opacity="0.5759432096465054" />
<circle cx="109.67409731549239" cy="46.68550819967517" r="5.607780137559391" fill="#D2691E" fill-opacity="0.3407935155747578" />
<circle cx="159.89054982972687" cy="82.14083378808444" r="5.693662230086265" fill="#8B4513" fill-opacity="0.5085025032263422" />
<circle cx="112.02853554415088" cy="173.76165347997545" r="2.682598891161591" fill="#D2691E" fill-opacity="0.31738794742237103" />
<circle cx="93.52112030544089" cy="142.61699160303158" r="2.0991434842927834" fill="#FFDE75" fill-opacity="0.23044664789767602" />
<circle cx="79.74351802640582" cy="35.24528425934223" r="2.7167735295651405" fill="#8B4513" fill-opacity="0.25824421059831065" />
<circle cx="121.58991585626002" cy="102.51812750737025" r="3.4531148355402097" fill="#FFDE75" fill-opacity="0.3801070032942941" />
<circle cx="75.94274549683752" cy="82.06223486373902" r="3.638060808910405" fill="#FFFFFF" fill-opacity="0.4803753726319464" />
<circle cx="142.22906831825287" cy="97.36309224895867" r="2.553471955519537" fill="#FFDE75" fill-opacity="0.47655735282320694" />
<circle cx="112.87097849613325" cy="84.68783460325722" r="4.549012039549504" fill="#FFDE75" fill-opacity="0.41317428966731606" />
<circle cx="41.949362845172956" cy="89.06541857916454" r="4.236780842123851" fill="#D2691E" fill-opacity="0.5436980766200226" />
<circle cx="25.863248972112842" cy="77.66788061100483" r="4.635984970615599" fill="#FFDE75" fill-opacity="0.34388900953068535" />
<circle cx="129.86368301743258" cy="127.39744227375947" r="4.794035043340536" fill="#FFDE75" fill-opacity="0.350216511549045" />
<circle cx="186.42482666365999" cy="123.5771440944617" r="3.6851755494669813" fill="#FFDE75" fill-opacity="0.21974799719686056" />
<circle cx="155.5203079448441" cy="146.58833763565437" r="5.034693612141497" fill="#FFFFFF" fill-opacity="0.5398051575726306" />
<circle cx="97.6810722092565" cy="77.33538620101194" r="2.675178970723652" fill="#FFFFFF" fill-opacity="0.44118644492001224" />
<circle cx="70.73299930879347" cy="64.80842448908066" r="2.9152131772804255" fill="#FFFFFF" fill-opacity="0.26225655479897453" />
<circle cx="29.177831901179616" cy="77.10846069232372" r="2.0090059093379624" fill="#8B4513" fill-opacity="0.3530241652185685" />
<circle cx="71.48498844067501" cy="147.02189981725002" r="3.9802137244057487" fill="#D2691E" fill-opacity="0.5477297624492605" />
<circle cx="150.3327104267002" cy="60.96536993042316" r="2.527708897285233" fill="#8B4513" fill-opacity="0.37980529217742875" />
<circle cx="135.27750727985207" cy="39.30098312122158" r="4.904984356401836" fill="#FFDE75" fill-opacity="0.2664911837071903" />
<circle cx="81.13642251873128" cy="103.26245457119605" r="4.336367617832311" fill="#8B4513" fill-opacity="0.4133389316599063" />
<circle cx="29.100358603546482" cy="137.84134585523117" r="5.289197581689974" fill="#FFFFFF" fill-opacity="0.28417292199741845" />
<circle cx="67.28135477393107" cy="107.71047445990254" r="2.449551447803968" fill="#8B4513" fill-opacity="0.3400958331516152" />
<circle cx="83.23148109950003" cy="100.9892387638047" r="3.792060884286184" fill="#8B4513" fill-opacity="0.3618538547024968" />
<circle cx="133.6914362129163" cy="52.8019869250195" r="4.273636538577115" fill="#FFDE75" fill-opacity="0.3572739871161737" />
<circle cx="148.46478895363384" cy="98.8168697443478" r="3.642943765286305" fill="#FFFFFF" fill-opacity="0.4043775942198442" />
<circle cx="72.36602748105437" cy="86.8217790638477" r="4.815227131565919" fill="#D2691E" fill-opacity="0.5751202125749666" />
<circle cx="130.21711193435272" cy="82.45699766892831" r="2.7324456425855197" fill="#D2691E" fill-opacity="0.3852129788113382" />
<circle cx="76.48270976019694" cy="67.96712646066902" r="2.1789708799958443" fill="#FFFFFF" fill-opacity="0.3745824854688659" />
<ellipse cx="107.0089760106628" cy="101.4899946857496" rx="8.19875035877697" ry="8.003618400632064" fill="#FFFDF0" fill-opacity="0.6" />
<ellipse cx="107.67501938654604" cy="101.10890058280961" rx="3.631921273432492" ry="3.2151180237751804" fill="#FFFFFF" fill-opacity="0.85" />
<ellipse cx="114.28055189486454" cy="61.81165167131635" rx="8.107388945889152" ry="4.4514054996463965" fill="#FFFDF0" fill-opacity="0.6" />
<ellipse cx="113.73245059387428" cy="61.938469100225795" rx="2.1069505537506465" ry="3.1377065391939065" fill="#FFFFFF" fill-opacity="0.85" />
<ellipse cx="37.62670656745645" cy="119.59933945979068" rx="7.772204055156397" ry="6.6642615864722075" fill="#FFFDF0" fill-opacity="0.6" />
<ellipse cx="36.66807581775043" cy="120.30029798956578" rx="4.542137621881421" ry="3.5649051686919524" fill="#FFFFFF" fill-opacity="0.85" />
<ellipse cx="177.8448603806912" cy="121.56110835105711" rx="7.2708249085967775" ry="5.210684358225276" fill="#FFFDF0" fill-opacity="0.6" />
<ellipse cx="177.79870573109108" cy="122.12620091763571" rx="3.9707436733646286" ry="2.348952112152735" fill="#FFFFFF" fill-opacity="0.85" />
<ellipse cx="108.22868118770502" cy="167.04628178139444" rx="8.814247623198245" ry="7.65466901855927" fill="#FFFDF0" fill-opacity="0.6" />
<ellipse cx="108.63690113110312" cy="167.149633888637" rx="4.445042394829336" ry="3.6916315856675954" fill="#FFFFFF" fill-opacity="0.85" />
<ellipse cx="103.6457526304969" cy="77.331072486181" rx="6.557350255418575" ry="8.683431439493416" fill="#FFFDF0" fill-opacity="0.6" />
<ellipse cx="104.36542009474886" cy="77.96440059382424" rx="2.74377826498187" ry="3.3707570846081176" fill="#FFFFFF" fill-opacity="0.85" />
<ellipse cx="115.72557486057237" cy="129.19243722190214" rx="6.707625665285701" ry="7.329577414543446" fill="#FFFDF0" fill-opacity="0.6" />
<ellipse cx="115.81559901910474" cy="130.09136920194936" rx="3.599358911917182" ry="3.5852366328024474" fill="#FFFFFF" fill-opacity="0.85" />
<ellipse cx="111.58127904976891" cy="60.54454410401313" rx="7.955805744857061" ry="5.043856016895871" fill="#FFFDF0" fill-opacity="0.6" />
<ellipse cx="111.75498450969876" cy="59.70778051248324" rx="4.038649134413744" ry="3.5043929537005987" fill="#FFFFFF" fill-opacity="0.85" />
<ellipse cx="143.24445990802133" cy="123.03460799333449" rx="7.735591555028515" ry="7.993565171312209" fill="#FFFDF0" fill-opacity="0.6" />
<ellipse cx="142.52293639545226" cy="123.05186841651233" rx="3.1421809879503235" ry="2.341465118240766" fill="#FFFFFF" fill-opacity="0.85" />
<ellipse cx="40.74909858220644" cy="94.10817027709246" rx="8.740234200866086" ry="4.843966344107972" fill="#FFFDF0" fill-opacity="0.6" />
<ellipse cx="40.07861071026122" cy="94.79496637818539" rx="3.175317340923173" ry="2.4460203613967284" fill="#FFFFFF" fill-opacity="0.85" />
<ellipse cx="95.18745324517732" cy="57.19480090420588" rx="7.239825926562933" ry="8.97027712781157" fill="#FFFDF0" fill-opacity="0.6" />
<ellipse cx="94.88784068475275" cy="57.062882644677586" rx="3.112210464642289" ry="3.2256404400804235" fill="#FFFFFF" fill-opacity="0.85" />
<ellipse cx="150.6355211445479" cy="72.66795272783057" rx="5.5834903627760655" ry="7.937421335355561" fill="#FFFDF0" fill-opacity="0.6" />
<ellipse cx="150.09281118291347" cy="72.98260082281914" rx="4.725960958482708" ry="2.110738412828475" fill="#FFFFFF" fill-opacity="0.85" />
</g>
<path d="M105.0,105.0 L191.60254037844388,155.0 A100,100,0,0,1,105.0,205.0 Z" fill="#F5C754" stroke="lightgray" stroke-width="2" />
<use xlink:href="#clip-4567947280-4568275664" />
<g clip-path="url(#clip-4567947280-4568275664)">
<circle cx="105.0" cy="105.0" r="92" stroke="#DAA05D" stroke-width="16" fill="none" />
<circle cx="105.0" cy="105.0" r="98" stroke="#C37B32" stroke-width="5" fill="none" />
<circle cx="119.57716940591425" cy="67.92925080463687" r="2.714319235224931" fill="#FFFFFF" fill-opacity="0.23259370457578574" />
<circle cx="43.980172013646516" cy="118.15687401090597" r="5.5902029189415225" fill="#FFFFFF" fill-opacity="0.4208646767066805" />
<circle cx="32.04173272924592" cy="108.63336907743532" r="5.7988156702559115" fill="#FFDE75" fill-opacity="0.28395954787858324" />
<circle cx="97.88514523201196" cy="140.0356947898618" r="4.212065278977882" fill="#D2691E" fill-opacity="0.39828280778257996" />
<circle cx="84.51064125569938" cy="34.590068991001374" r="3.901494535650642" fill="#D2691E" fill-opacity="0.3571148385692245" />
<circle cx="26.415470495029936" cy="103.78843221889414" r="2.420251410699813" fill="#D2691E" fill-opacity="0.3443587576168529" />
<circle cx="63.94040932279061" cy="159.2008498442435" r="2.547204441195654" fill="#FFDE75" fill-opacity="0.5272096794598551" />
<circle cx="151.9964340967143" cy="47.15568728787706" r="3.9657279927321" fill="#D2691E" fill-opacity="0.4379446626095404" />
<circle cx="89.74784797997233" cy="56.65789767065709" r="2.2245272834513004" fill="#FFDE75" fill-opacity="0.3370674478019442" />
<circle cx="155.83833746716056" cy="103.66653026445266" r="3.7619809511754285" fill="#D2691E" fill-opacity="0.24539599770620138" />
<circle cx="76.17473485960014" cy="47.14564299335104" r="2.3435789026666365" fill="#8B4513" fill-opacity="0.4133005830192751" />
<circle cx="120.03556899251818" cy="51.13772622301198" r="3.0515959685001395" fill="#8B4513" fill-opacity="0.5530601407800063" />
<circle cx="69.57907016971572" cy="108.2013623076135" r="5.050800896990363" fill="#FFFFFF" fill-opacity="0.4286428854809601" />
<circle cx="33.950250865840985" cy="74.94543426081668" r="3.2335875740556927" fill="#D2691E" fill-opacity="0.36717753679639165" />
<circle cx="122.48757660010935" cy="71.0176854693426" r="3.5610359549708135" fill="#8B4513" fill-opacity="0.5456236940091101" />
<circle cx="173.9318742243659" cy="136.55386956903067" r="3.1713964061305915" fill="#8B4513" fill-opacity="0.23914868912220166" />
<circle cx="35.94894700319526" cy="102.91631319572282" r="4.587685963469465" fill="#D2691E" fill-opacity="0.3427724480008525" />
<circle cx="109.4687632472222" cy="151.94416893962952" r="5.301746642112134" fill="#8B4513" fill-opacity="0.27335503224820246" />
<circle cx="114.72109576789491" cy="53.885648328722304" r="3.7741553535272168" fill="#D2691E" fill-opacity="0.4430874930743036" />
<circle cx="114.43187017207113" cy="141.58735488893683" r="5.660454855902326" fill="#FFFFFF" fill-opacity="0.5171975439968981" />
<circle cx="98.29181108964369" cy="111.51680134030583" r="2.8487122546791825" fill="#FFFFFF" fill-opacity="0.46322827329443234" />
<circle cx="177.02367775341293" cy="116.09408921332043" r="3.020900157230263" fill="#D2691E" fill-opacity="0.33832522688888167" />
<circle cx="161.26505687591208" cy="150.6824316445111" r="4.931824203862187" fill="#8B4513" fill-opacity="0.3792645340425038" />
<circle cx="146.47554507316335" cy="115.61418444670434" r="2.2433421106940816" fill="#D2691E" fill-opacity="0.4138176116246258" />
<circle cx="107.46295634736349" cy="149.86667138105705" r="5.058118635642429" fill="#FFDE75" fill-opacity="0.5912549927527468" />
<circle cx="49.23580256737123" cy="66.11002916868088" r="3.9459190789872904" fill="#D2691E" fill-opacity="0.4772940307702716" />
<circle cx="110.75070876955905" cy="138.31108652566837" r="5.268404359755554" fill="#D2691E" fill-opacity="0.5467752132095678" />
<circle cx="48.43087324548494" cy="165.13514497122563" r="2.0503399536960205" fill="#FFDE75" fill-opacity="0.36178184137203945" />
<circle cx="180.05516159463923" cy="131.70206926340262" r="4.249382843875392" fill="#FFFFFF" fill-opacity="0.3515982208662709" />
<circle cx="120.77113114791962" cy="49.554272501406246" r="3.3715789589944514" fill="#FFDE75" fill-opacity="0.435835409499279" />
<circle cx="91.60651959028047" cy="68.1483626951755" r="3.642586591302926" fill="#FFDE75" fill-opacity="0.5759432096465054" />
<circle cx="109.67409731549239" cy="46.68550819967517" r="5.607780137559391" fill="#D2691E" fill-opacity="0.3407935155747578" />
<circle cx="159.89054982972687" cy="82.14083378808444" r="5.693662230086265" fill="#8B4513" fill-opacity="0.5085025032263422" />
<circle cx="112.02853554415088" cy="173.76165347997545" r="2.682598891161591" fill="#D2691E" fill-opacity="0.31738794742237103" />
<circle cx="93.52112030544089" cy="142.61699160303158" r="2.0991434842927834" fill="#FFDE75" fill-opacity="0.23044664789767602" />
<circle cx="79.74351802640582" cy="35.24528425934223" r="2.7167735295651405" fill="#8B4513" fill-opacity="0.25824421059831065" />
<circle cx="121.58991585626002" cy="102.51812750737025" r="3.4531148355402097" fill="#FFDE75" fill-opacity="0.3801070032942941" />
<circle cx="75.94274549683752" cy="82.06223486373902" r="3.638060808910405" fill="#FFFFFF" fill-opacity="0.4803753726319464" />
<circle cx="142.22906831825287" cy="97.36309224895867" r="2.553471955519537" fill="#FFDE75" fill-opacity="0.47655735282320694" />
<circle cx="112.87097849613325" cy="84.68783460325722" r="4.549012039549504" fill="#FFDE75" fill-opacity="0.41317428966731606" />
<circle cx="41.949362845172956" cy="89.06541857916454" r="4.236780842123851" fill="#D2691E" fill-opacity="0.5436980766200226" />
<circle cx="25.863248972112842" cy="77.66788061100483" r="4.635984970615599" fill="#FFDE75" fill-opacity="0.34388900953068535" />
<circle cx="129.86368301743258" cy="127.39744227375947" r="4.794035043340536" fill="#FFDE75" fill-opacity="0.350216511549045" />
<circle cx="186.42482666365999" cy="123.5771440944617" r="3.6851755494669813" fill="#FFDE75" fill-opacity="0.21974799719686056" />
<circle cx="155.5203079448441" cy="146.58833763565437" r="5.034693612141497" fill="#FFFFFF" fill-opacity="0.5398051575726306" />
<circle cx="97.6810722092565" cy="77.33538620101194" r="2.675178970723652" fill="#FFFFFF" fill-opacity="0.44118644492001224" />
<circle cx="70.73299930879347" cy="64.80842448908066" r="2.9152131772804255" fill="#FFFFFF" fill-opacity="0.26225655479897453" />
<circle cx="29.177831901179616" cy="77.10846069232372" r="2.0090059093379624" fill="#8B4513" fill-opacity="0.3530241652185685" />
<circle cx="71.48498844067501" cy="147.02189981725002" r="3.9802137244057487" fill="#D2691E" fill-opacity="0.5477297624492605" />
<circle cx="150.3327104267002" cy="60.96536993042316" r="2.527708897285233" fill="#8B4513" fill-opacity="0.37980529217742875" />
<circle cx="135.27750727985207" cy="39.30098312122158" r="4.904984356401836" fill="#FFDE75" fill-opacity="0.2664911837071903" />
<circle cx="81.13642251873128" cy="103.26245457119605" r="4.336367617832311" fill="#8B4513" fill-opacity="0.4133389316599063" />
<circle cx="29.100358603546482" cy="137.84134585523117" r="5.289197581689974" fill="#FFFFFF" fill-opacity="0.28417292199741845" />
<circle cx="67.28135477393107" cy="107.71047445990254" r="2.449551447803968" fill="#8B4513" fill-opacity="0.3400958331516152" />
<circle cx="83.23148109950003" cy="100.9892387638047" r="3.792060884286184" fill="#8B4513" fill-opacity="0.3618538547024968" />
<circle cx="133.6914362129163" cy="52.8019869250195" r="4.273636538577115" fill="#FFDE75" fill-opacity="0.3572739871161737" />
<circle cx="148.46478895363384" cy="98.8168697443478" r="3.642943765286305" fill="#FFFFFF" fill-opacity="0.4043775942198442" />
<circle cx="72.36602748105437" cy="86.8217790638477" r="4.815227131565919" fill="#D2691E" fill-opacity="0.5751202125749666" />
<circle cx="130.21711193435272" cy="82.45699766892831" r="2.7324456425855197" fill="#D2691E" fill-opacity="0.3852129788113382" />
<circle cx="76.48270976019694" cy="67.96712646066902" r="2.1789708799958443" fill="#FFFFFF" fill-opacity="0.3745824854688659" />
<ellipse cx="107.0089760106628" cy="101.4899946857496" rx="8.19875035877697" ry="8.003618400632064" fill="#FFFDF0" fill-opacity="0.6" />
<ellipse cx="107.67501938654604" cy="101.10890058280961" rx="3.631921273432492" ry="3.2151180237751804" fill="#FFFFFF" fill-opacity="0.85" />
<ellipse cx="114.28055189486454" cy="61.81165167131635" rx="8.107388945889152" ry="4.4514054996463965" fill="#FFFDF0" fill-opacity="0.6" />
<ellipse cx="113.73245059387428" cy="61.938469100225795" rx="2.1069505537506465" ry="3.1377065391939065" fill="#FFFFFF" fill-opacity="0.85" />
<ellipse cx="37.62670656745645" cy="119.59933945979068" rx="7.772204055156397" ry="6.6642615864722075" fill="#FFFDF0" fill-opacity="0.6" />
<ellipse cx="36.66807581775043" cy="120.30029798956578" rx="4.542137621881421" ry="3.5649051686919524" fill="#FFFFFF" fill-opacity="0.85" />
<ellipse cx="177.8448603806912" cy="121.56110835105711" rx="7.2708249085967775" ry="5.210684358225276" fill="#FFFDF0" fill-opacity="0.6" />
<ellipse cx="177.79870573109108" cy="122.12620091763571" rx="3.9707436733646286" ry="2.348952112152735" fill="#FFFFFF" fill-opacity="0.85" />
<ellipse cx="108.22868118770502" cy="167.04628178139444" rx="8.814247623198245" ry="7.65466901855927" fill="#FFFDF0" fill-opacity="0.6" />
<ellipse cx="108.63690113110312" cy="167.149633888637" rx="4.445042394829336" ry="3.6916315856675954" fill="#FFFFFF" fill-opacity="0.85" />
<ellipse cx="103.6457526304969" cy="77.331072486181" rx="6.557350255418575" ry="8.683431439493416" fill="#FFFDF0" fill-opacity="0.6" />
<ellipse cx="104.36542009474886" cy="77.96440059382424" rx="2.74377826498187" ry="3.3707570846081176" fill="#FFFFFF" fill-opacity="0.85" />
<ellipse cx="115.72557486057237" cy="129.19243722190214" rx="6.707625665285701" ry="7.329577414543446" fill="#FFFDF0" fill-opacity="0.6" />
<ellipse cx="115.81559901910474" cy="130.09136920194936" rx="3.599358911917182" ry="3.5852366328024474" fill="#FFFFFF" fill-opacity="0.85" />
<ellipse cx="111.58127904976891" cy="60.54454410401313" rx="7.955805744857061" ry="5.043856016895871" fill="#FFFDF0" fill-opacity="0.6" />
<ellipse cx="111.75498450969876" cy="59.70778051248324" rx="4.038649134413744" ry="3.5043929537005987" fill="#FFFFFF" fill-opacity="0.85" />
<ellipse cx="143.24445990802133" cy="123.03460799333449" rx="7.735591555028515" ry="7.993565171312209" fill="#FFFDF0" fill-opacity="0.6" />
<ellipse cx="142.52293639545226" cy="123.05186841651233" rx="3.1421809879503235" ry="2.341465118240766" fill="#FFFFFF" fill-opacity="0.85" />
<ellipse cx="40.74909858220644" cy="94.10817027709246" rx="8.740234200866086" ry="4.843966344107972" fill="#FFFDF0" fill-opacity="0.6" />
<ellipse cx="40.07861071026122" cy="94.79496637818539" rx="3.175317340923173" ry="2.4460203613967284" fill="#FFFFFF" fill-opacity="0.85" />
<ellipse cx="95.18745324517732" cy="57.19480090420588" rx="7.239825926562933" ry="8.97027712781157" fill="#FFFDF0" fill-opacity="0.6" />
<ellipse cx="94.88784068475275" cy="57.062882644677586" rx="3.112210464642289" ry="3.2256404400804235" fill="#FFFFFF" fill-opacity="0.85" />
<ellipse cx="150.6355211445479" cy="72.66795272783057" rx="5.5834903627760655" ry="7.937421335355561" fill="#FFFDF0" fill-opacity="0.6" />
<ellipse cx="150.09281118291347" cy="72.98260082281914" rx="4.725960958482708" ry="2.110738412828475" fill="#FFFFFF" fill-opacity="0.85" />
</g>
<path d="M105.0,105.0 L105.0,205.0 A100,100,0,0,1,18.397459621556123,155.0 Z" fill="#F5C754" stroke="lightgray" stroke-width="2" />
<use xlink:href="#clip-4567947280-4568311632" />
<g clip-path="url(#clip-4567947280-4568311632)">
<circle cx="105.0" cy="105.0" r="92" stroke="#DAA05D" stroke-width="16" fill="none" />
<circle cx="105.0" cy="105.0" r="98" stroke="#C37B32" stroke-width="5" fill="none" />
<circle cx="119.57716940591425" cy="67.92925080463687" r="2.714319235224931" fill="#FFFFFF" fill-opacity="0.23259370457578574" />
<circle cx="43.980172013646516" cy="118.15687401090597" r="5.5902029189415225" fill="#FFFFFF" fill-opacity="0.4208646767066805" />
<circle cx="32.04173272924592" cy="108.63336907743532" r="5.7988156702559115" fill="#FFDE75" fill-opacity="0.28395954787858324" />
<circle cx="97.88514523201196" cy="140.0356947898618" r="4.212065278977882" fill="#D2691E" fill-opacity="0.39828280778257996" />
<circle cx="84.51064125569938" cy="34.590068991001374" r="3.901494535650642" fill="#D2691E" fill-opacity="0.3571148385692245" />
<circle cx="26.415470495029936" cy="103.78843221889414" r="2.420251410699813" fill="#D2691E" fill-opacity="0.3443587576168529" />
<circle cx="63.94040932279061" cy="159.2008498442435" r="2.547204441195654" fill="#FFDE75" fill-opacity="0.5272096794598551" />
<circle cx="151.9964340967143" cy="47.15568728787706" r="3.9657279927321" fill="#D2691E" fill-opacity="0.4379446626095404" />
<circle cx="89.74784797997233" cy="56.65789767065709" r="2.2245272834513004" fill="#FFDE75" fill-opacity="0.3370674478019442" />
<circle cx="155.83833746716056" cy="103.66653026445266" r="3.7619809511754285" fill="#D2691E" fill-opacity="0.24539599770620138" />
<circle cx="76.17473485960014" cy="47.14564299335104" r="2.3435789026666365" fill="#8B4513" fill-opacity="0.4133005830192751" />
<circle cx="120.03556899251818" cy="51.13772622301198" r="3.0515959685001395" fill="#8B4513" fill-opacity="0.5530601407800063" />
<circle cx="69.57907016971572" cy="108.2013623076135" r="5.050800896990363" fill="#FFFFFF" fill-opacity="0.4286428854809601" />
<circle cx="33.950250865840985" cy="74.94543426081668" r="3.2335875740556927" fill="#D2691E" fill-opacity="0.36717753679639165" />
<circle cx="122.48757660010935" cy="71.0176854693426" r="3.5610359549708135" fill="#8B4513" fill-opacity="0.5456236940091101" />
<circle cx="173.9318742243659" cy="136.55386956903067" r="3.1713964061305915" fill="#8B4513" fill-opacity="0.23914868912220166" />
<circle cx="35.94894700319526" cy="102.91631319572282" r="4.587685963469465" fill="#D2691E" fill-opacity="0.3427724480008525" />
<circle cx="109.4687632472222" cy="151.94416893962952" r="5.301746642112134" fill="#8B4513" fill-opacity="0.27335503224820246" />
<circle cx="114.72109576789491" cy="53.885648328722304" r="3.7741553535272168" fill="#D2691E" fill-opacity="0.4430874930743036" />
<circle cx="114.43187017207113" cy="141.58735488893683" r="5.660454855902326" fill="#FFFFFF" fill-opacity="0.5171975439968981" />
<circle cx="98.29181108964369" cy="111.51680134030583" r="2.8487122546791825" fill="#FFFFFF" fill-opacity="0.46322827329443234" />
<circle cx="177.02367775341293" cy="116.09408921332043" r="3.020900157230263" fill="#D2691E" fill-opacity="0.33832522688888167" />
<circle cx="161.26505687591208" cy="150.6824316445111" r="4.931824203862187" fill="#8B4513" fill-opacity="0.3792645340425038" />
<circle cx="146.47554507316335" cy="115.61418444670434" r="2.2433421106940816" fill="#D2691E" fill-opacity="0.4138176116246258" />
<circle cx="107.46295634736349" cy="149.86667138105705" r="5.058118635642429" fill="#FFDE75" fill-opacity="0.5912549927527468" />
<circle cx="49.23580256737123" cy="66.11002916868088" r="3.9459190789872904" fill="#D2691E" fill-opacity="0.4772940307702716" />
<circle cx="110.75070876955905" cy="138.31108652566837" r="5.268404359755554" fill="#D2691E" fill-opacity="0.5467752132095678" />
<circle cx="48.43087324548494" cy="165.13514497122563" r="2.0503399536960205" fill="#FFDE75" fill-opacity="0.36178184137203945" />
<circle cx="180.05516159463923" cy="131.70206926340262" r="4.249382843875392" fill="#FFFFFF" fill-opacity="0.3515982208662709" />
<circle cx="120.77113114791962" cy="49.554272501406246" r="3.3715789589944514" fill="#FFDE75" fill-opacity="0.435835409499279" />
<circle cx="91.60651959028047" cy="68.1483626951755" r="3.642586591302926" fill="#FFDE75" fill-opacity="0.5759432096465054" />
<circle cx="109.67409731549239" cy="46.68550819967517" r="5.607780137559391" fill="#D2691E" fill-opacity="0.3407935155747578" />
<circle cx="159.89054982972687" cy="82.14083378808444" r="5.693662230086265" fill="#8B4513" fill-opacity="0.5085025032263422" />
<circle cx="112.02853554415088" cy="173.76165347997545" r="2.682598891161591" fill="#D2691E" fill-opacity="0.31738794742237103" />
<circle cx="93.52112030544089" cy="142.61699160303158" r="2.0991434842927834" fill="#FFDE75" fill-opacity="0.23044664789767602" />
<circle cx="79.74351802640582" cy="35.24528425934223" r="2.7167735295651405" fill="#8B4513" fill-opacity="0.25824421059831065" />
<circle cx="121.58991585626002" cy="102.51812750737025" r="3.4531148355402097" fill="#FFDE75" fill-opacity="0.3801070032942941" />
<circle cx="75.94274549683752" cy="82.06223486373902" r="3.638060808910405" fill="#FFFFFF" fill-opacity="0.4803753726319464" />
<circle cx="142.22906831825287" cy="97.36309224895867" r="2.553471955519537" fill="#FFDE75" fill-opacity="0.47655735282320694" />
<circle cx="112.87097849613325" cy="84.68783460325722" r="4.549012039549504" fill="#FFDE75" fill-opacity="0.41317428966731606" />
<circle cx="41.949362845172956" cy="89.06541857916454" r="4.236780842123851" fill="#D2691E" fill-opacity="0.5436980766200226" />
<circle cx="25.863248972112842" cy="77.66788061100483" r="4.635984970615599" fill="#FFDE75" fill-opacity="0.34388900953068535" />
<circle cx="129.86368301743258" cy="127.39744227375947" r="4.794035043340536" fill="#FFDE75" fill-opacity="0.350216511549045" />
<circle cx="186.42482666365999" cy="123.5771440944617" r="3.6851755494669813" fill="#FFDE75" fill-opacity="0.21974799719686056" />
<circle cx="155.5203079448441" cy="146.58833763565437" r="5.034693612141497" fill="#FFFFFF" fill-opacity="0.5398051575726306" />
<circle cx="97.6810722092565" cy="77.33538620101194" r="2.675178970723652" fill="#FFFFFF" fill-opacity="0.44118644492001224" />
<circle cx="70.73299930879347" cy="64.80842448908066" r="2.9152131772804255" fill="#FFFFFF" fill-opacity="0.26225655479897453" />
<circle cx="29.177831901179616" cy="77.10846069232372" r="2.0090059093379624" fill="#8B4513" fill-opacity="0.3530241652185685" />
<circle cx="71.48498844067501" cy="147.02189981725002" r="3.9802137244057487" fill="#D2691E" fill-opacity="0.5477297624492605" />
<circle cx="150.3327104267002" cy="60.96536993042316" r="2.527708897285233" fill="#8B4513" fill-opacity="0.37980529217742875" />
<circle cx="135.27750727985207" cy="39.30098312122158" r="4.904984356401836" fill="#FFDE75" fill-opacity="0.2664911837071903" />
<circle cx="81.13642251873128" cy="103.26245457119605" r="4.336367617832311" fill="#8B4513" fill-opacity="0.4133389316599063" />
<circle cx="29.100358603546482" cy="137.84134585523117" r="5.289197581689974" fill="#FFFFFF" fill-opacity="0.28417292199741845" />
<circle cx="67.28135477393107" cy="107.71047445990254" r="2.449551447803968" fill="#8B4513" fill-opacity="0.3400958331516152" />
<circle cx="83.23148109950003" cy="100.9892387638047" r="3.792060884286184" fill="#8B4513" fill-opacity="0.3618538547024968" />
<circle cx="133.6914362129163" cy="52.8019869250195" r="4.273636538577115" fill="#FFDE75" fill-opacity="0.3572739871161737" />
<circle cx="148.46478895363384" cy="98.8168697443478" r="3.642943765286305" fill="#FFFFFF" fill-opacity="0.4043775942198442" />
<circle cx="72.36602748105437" cy="86.8217790638477" r="4.815227131565919" fill="#D2691E" fill-opacity="0.5751202125749666" />
<circle cx="130.21711193435272" cy="82.45699766892831" r="2.7324456425855197" fill="#D2691E" fill-opacity="0.3852129788113382" />
<circle cx="76.48270976019694" cy="67.96712646066902" r="2.1789708799958443" fill="#FFFFFF" fill-opacity="0.3745824854688659" />
<ellipse cx="107.0089760106628" cy="101.4899946857496" rx="8.19875035877697" ry="8.003618400632064" fill="#FFFDF0" fill-opacity="0.6" />
<ellipse cx="107.67501938654604" cy="101.10890058280961" rx="3.631921273432492" ry="3.2151180237751804" fill="#FFFFFF" fill-opacity="0.85" />
<ellipse cx="114.28055189486454" cy="61.81165167131635" rx="8.107388945889152" ry="4.4514054996463965" fill="#FFFDF0" fill-opacity="0.6" />
<ellipse cx="113.73245059387428" cy="61.938469100225795" rx="2.1069505537506465" ry="3.1377065391939065" fill="#FFFFFF" fill-opacity="0.85" />
<ellipse cx="37.62670656745645" cy="119.59933945979068" rx="7.772204055156397" ry="6.6642615864722075" fill="#FFFDF0" fill-opacity="0.6" />
<ellipse cx="36.66807581775043" cy="120.30029798956578" rx="4.542137621881421" ry="3.5649051686919524" fill="#FFFFFF" fill-opacity="0.85" />
<ellipse cx="177.8448603806912" cy="121.56110835105711" rx="7.2708249085967775" ry="5.210684358225276" fill="#FFFDF0" fill-opacity="0.6" />
<ellipse cx="177.79870573109108" cy="122.12620091763571" rx="3.9707436733646286" ry="2.348952112152735" fill="#FFFFFF" fill-opacity="0.85" />
<ellipse cx="108.22868118770502" cy="167.04628178139444" rx="8.814247623198245" ry="7.65466901855927" fill="#FFFDF0" fill-opacity="0.6" />
<ellipse cx="108.63690113110312" cy="167.149633888637" rx="4.445042394829336" ry="3.6916315856675954" fill="#FFFFFF" fill-opacity="0.85" />
<ellipse cx="103.6457526304969" cy="77.331072486181" rx="6.557350255418575" ry="8.683431439493416" fill="#FFFDF0" fill-opacity="0.6" />
<ellipse cx="104.36542009474886" cy="77.96440059382424" rx="2.74377826498187" ry="3.3707570846081176" fill="#FFFFFF" fill-opacity="0.85" />
<ellipse cx="115.72557486057237" cy="129.19243722190214" rx="6.707625665285701" ry="7.329577414543446" fill="#FFFDF0" fill-opacity="0.6" />
<ellipse cx="115.81559901910474" cy="130.09136920194936" rx="3.599358911917182" ry="3.5852366328024474" fill="#FFFFFF" fill-opacity="0.85" />
<ellipse cx="111.58127904976891" cy="60.54454410401313" rx="7.955805744857061" ry="5.043856016895871" fill="#FFFDF0" fill-opacity="0.6" />
<ellipse cx="111.75498450969876" cy="59.70778051248324" rx="4.038649134413744" ry="3.5043929537005987" fill="#FFFFFF" fill-opacity="0.85" />
<ellipse cx="143.24445990802133" cy="123.03460799333449" rx="7.735591555028515" ry="7.993565171312209" fill="#FFFDF0" fill-opacity="0.6" />
<ellipse cx="142.52293639545226" cy="123.05186841651233" rx="3.1421809879503235" ry="2.341465118240766" fill="#FFFFFF" fill-opacity="0.85" />
<ellipse cx="40.74909858220644" cy="94.10817027709246" rx="8.740234200866086" ry="4.843966344107972" fill="#FFFDF0" fill-opacity="0.6" />
<ellipse cx="40.07861071026122" cy="94.79496637818539" rx="3.175317340923173" ry="2.4460203613967284" fill="#FFFFFF" fill-opacity="0.85" />
<ellipse cx="95.18745324517732" cy="57.19480090420588" rx="7.239825926562933" ry="8.97027712781157" fill="#FFFDF0" fill-opacity="0.6" />
<ellipse cx="94.88784068475275" cy="57.062882644677586" rx="3.112210464642289" ry="3.2256404400804235" fill="#FFFFFF" fill-opacity="0.85" />
<ellipse cx="150.6355211445479" cy="72.66795272783057" rx="5.5834903627760655" ry="7.937421335355561" fill="#FFFDF0" fill-opacity="0.6" />
<ellipse cx="150.09281118291347" cy="72.98260082281914" rx="4.725960958482708" ry="2.110738412828475" fill="#FFFFFF" fill-opacity="0.85" />
</g>
</g>
</svg>
</svg>