<svg width="678.0" height="210.0" xmlns="http://www.w3.org/2000/svg" xmlns:xlink="http://www.w3.org/1999/xlink">
<svg x="0.0" y="0.0" width="284.0" height="210.0" viewBox="0 0 284.0 210" xmlns="http://www.w3.org/2000/svg" xmlns:xlink="http://www.w3.org/1999/xlink">
<defs>
<clipPath id="clip-4535261200-4471967184">
<path d="M105.0,105.0 L105.0,5.0 A100,100,0,0,1,205.0,105.0 Z" fill="none" />
</clipPath>
<clipPath id="clip-4535261200-4535709904">
<path d="M105.0,105.0 L205.0,105.0 A100,100,0,0,1,105.0,205.0 Z" fill="none" />
</clipPath>
<clipPath id="clip-4535261200-4535507920">
<path d="M105.0,105.0 L105.0,205.0 A100,100,0,0,1,5.0,105.00000000000001 Z" fill="none" />
</clipPath>
</defs>
<g>
<path d="M105.0,105.0 L105.0,5.0 A100,100,0,0,1,205.0,105.0 Z" fill="none" stroke="lightgray" stroke-width="2" />
<path d="M105.0,105.0 L205.0,105.0 A100,100,0,0,1,105.0,205.0 Z" fill="none" stroke="lightgray" stroke-width="2" />
<path d="M105.0,105.0 L105.0,205.0 A100,100,0,0,1,5.0,105.00000000000001 Z" fill="none" stroke="lightgray" stroke-width="2" />
<path d="M105.0,105.0 L5.0,105.00000000000001 A100,100,0,0,1,104.99999999999999,5.0 Z" fill="none" stroke="lightgray" stroke-width="2" />
<path d="M105.0,105.0 L105.0,5.0 A100,100,0,0,1,205.0,105.0 Z" fill="#F5C754" stroke="lightgray" stroke-width="2" />
<use xlink:href="#clip-4535261200-4471967184" />
<g clip-path="url(#clip-4535261200-4471967184)">
<circle cx="105.0" cy="105.0" r="92" stroke="#DAA05D" stroke-width="16" fill="none" />
<circle cx="105.0" cy="105.0" r="98" stroke="#C37B32" stroke-width="5" fill="none" />
<circle cx="105.8747248863518" cy="67.71258880787317" r="5.342935807961545" fill="#D2691E" fill-opacity="0.29700150443700984" />
<circle cx="72.62905212562202" cy="80.01452266860534" r="5.221100488420845" fill="#D2691E" fill-opacity="0.33964318735426124" />
<circle cx="104.98009180491576" cy="137.13848804738734" r="5.891883481255324" fill="#D2691E" fill-opacity="0.2001826934021732" />
<circle cx="88.65895300708125" cy="47.813213784450014" r="2.686969003474998" fill="#D2691E" fill-opacity="0.42001310251069957" />
<circle cx="141.33831886878488" cy="40.05876878486335" r="5.693972405769113" fill="#8B4513" fill-opacity="0.30283484843290653" />
<circle cx="139.91004196029508" cy="50.16305349795287" r="2.129110094895111" fill="#FFFFFF" fill-opacity="0.5368229574269936" />
<circle cx="106.2198636304199" cy="120.84308349845476" r="5.514089576688572" fill="#FFFFFF" fill-opacity="0.4153803802031564" />
<circle cx="183.2638060455535" cy="77.88456950057821" r="3.3458079853371805" fill="#FFDE75" fill-opacity="0.5615349671597578" />
<circle cx="93.47020037282194" cy="127.37189826280373" r="5.638673251206223" fill="#FFFFFF" fill-opacity="0.4239701241845199" />
<circle cx="119.87357756514038" cy="160.84119041100328" r="2.7710270953370677" fill="#D2691E" fill-opacity="0.4090513405978172" />
<circle cx="123.68181855584596" cy="165.33804594202795" r="2.071195126931847" fill="#8B4513" fill-opacity="0.519426353016937" />
<circle cx="57.351578764947405" cy="169.46379681816128" r="3.9126277189431438" fill="#FFDE75" fill-opacity="0.33107800087921235" />
<circle cx="45.27371908905603" cy="71.73043078194095" r="2.048923758132349" fill="#8B4513" fill-opacity="0.3725052915676712" />
<circle cx="129.83468745690334" cy="120.16085260496463" r="4.802859808886385" fill="#D2691E" fill-opacity="0.5973820408978432" />
<circle cx="50.27258811013019" cy="105.5104644018956" r="3.6509894508495573" fill="#D2691E" fill-opacity="0.5095709425496248" />
<circle cx="117.38021638581625" cy="184.7787686227677" r="3.8400292593967613" fill="#D2691E" fill-opacity="0.5707256217185024" />
<circle cx="122.80497843338387" cy="159.0032467429036" r="3.7261106908444326" fill="#D2691E" fill-opacity="0.5936429223657584" />
<circle cx="73.15167842323024" cy="29.43885540485141" r="2.5356075323177323" fill="#FFFFFF" fill-opacity="0.2957338890469941" />
<circle cx="179.63813449624078" cy="131.0246840362442" r="4.7184480261497725" fill="#FFFFFF" fill-opacity="0.21179149016848886" />
<circle cx="129.70149488716925" cy="174.2431813028111" r="5.7577040030642355" fill="#D2691E" fill-opacity="0.3040838137769674" />
<circle cx="37.793425741216495" cy="117.51077956223384" r="3.614767723747223" fill="#8B4513" fill-opacity="0.462653873473376" />
<circle cx="39.163251089484945" cy="56.110082961692605" r="2.8520548954484877" fill="#FFFFFF" fill-opacity="0.4053370559560352" />
<circle cx="164.877977125633" cy="69.55049979440048" r="5.498708150376117" fill="#FFFFFF" fill-opacity="0.313734156265948" />
<circle cx="120.41812242150235" cy="165.51092588400957" r="3.836375162613855" fill="#FFFFFF" fill-opacity="0.35383731004024416" />
<circle cx="80.5429632536033" cy="97.53426758145636" r="2.966818356516696" fill="#FFDE75" fill-opacity="0.24483624071667218" />
<circle cx="91.65492405348134" cy="184.60501964969262" r="5.804385869472995" fill="#D2691E" fill-opacity="0.4556364766486557" />
<circle cx="38.58467675859761" cy="146.0956691127721" r="4.648253920356256" fill="#D2691E" fill-opacity="0.3230079197428145" />
<circle cx="163.26091474155626" cy="73.38811189376608" r="4.95357364771193" fill="#FFDE75" fill-opacity="0.31797203861512036" />
<circle cx="92.7794250124115" cy="127.69595608676947" r="4.701297400727138" fill="#8B4513" fill-opacity="0.4966485492529434" />
<circle cx="71.47412073871412" cy="117.65632915868584" r="4.347631367199494" fill="#FFDE75" fill-opacity="0.5329388819314507" />
<circle cx="51.83042626816858" cy="93.27293444222056" r="5.630565002581497" fill="#FFFFFF" fill-opacity="0.459279802394736" />
<circle cx="73.96322927269665" cy="56.94149368525979" r="3.08591782566983" fill="#FFDE75" fill-opacity="0.3304934113926316" />
<circle cx="69.14210036677281" cy="59.871429755926734" r="2.288406476502047" fill="#FFFFFF" fill-opacity="0.2774952514496271" />
<circle cx="87.04248828516002" cy="57.94994990992248" r="3.6962338974889137" fill="#8B4513" fill-opacity="0.5677174223827062" />
<circle cx="38.07273597365675" cy="88.9895151345976" r="3.8465433102311706" fill="#FFDE75" fill-opacity="0.45337209231456616" />
<circle cx="47.98438923791134" cy="42.71004217245035" r="2.11827696241105" fill="#D2691E" fill-opacity="0.273237733191583" />
<circle cx="73.11150556528027" cy="163.2695050235822" r="5.392074249855842" fill="#8B4513" fill-opacity="0.24054328249737475" />
<circle cx="50.776100136753165" cy="46.74821769103972" r="2.317047323734309" fill="#D2691E" fill-opacity="0.35242126456306305" />
<circle cx="141.77904160020918" cy="42.4208749045009" r="4.810112994196102" fill="#D2691E" fill-opacity="0.3368526423332144" />
<circle cx="34.3387137590566" cy="120.10636486324614" r="5.791757885840806" fill="#FFDE75" fill-opacity="0.20534415787965843" />
<circle cx="43.417275007385776" cy="147.68154666327817" r="2.819630837912467" fill="#8B4513" fill-opacity="0.21515793501685254" />
<circle cx="91.60154567401682" cy="171.89254271079795" r="3.505289115005626" fill="#FFDE75" fill-opacity="0.4215272321844751" />
<circle cx="114.54419319586637" cy="136.88361788641944" r="3.4512068097646607" fill="#D2691E" fill-opacity="0.5210359113749687" />
<circle cx="86.87962073265412" cy="65.784217812951" r="2.486747602080724" fill="#8B4513" fill-opacity="0.57430729167538" />
<circle cx="48.10241406111621" cy="49.29578479991384" r="3.377374665995839" fill="#8B4513" fill-opacity="0.28948978132148573" />
<ellipse cx="140.80533220459122" cy="122.99995746126031" rx="8.778685427469332" ry="7.746485100439495" fill="#FFFDF0" fill-opacity="0.6" />
<ellipse cx="141.20693906997366" cy="122.63440200866424" rx="3.524569419651612" ry="2.3471312298132725" fill="#FFFFFF" fill-opacity="0.85" />
<ellipse cx="44.99117508992325" cy="158.697828695646" rx="5.44244640299134" ry="4.457436036792255" fill="#FFFDF0" fill-opacity="0.6" />
<ellipse cx="44.043898896935985" cy="159.41226241356867" rx="2.3309538922775417" ry="3.948839266683895" fill="#FFFFFF" fill-opacity="0.85" />
<ellipse cx="107.03848873713109" cy="120.32624216510783" rx="9.403422706284438" ry="8.713903761346707" fill="#FFFDF0" fill-opacity="0.6" />
<ellipse cx="106.21087005836432" cy="120.15274312868786" rx="3.4189157959285765" ry="2.7933813682173247" fill="#FFFFFF" fill-opacity="0.85" />
<ellipse cx="182.37900539143436" cy="85.20534872952297" rx="6.797628410240599" ry="7.531333797290763" fill="#FFFDF0" fill-opacity="0.6" />
<ellipse cx="181.4228009600653" cy="86.12258077383234" rx="2.342373506950679" ry="2.2610432724553946" fill="#FFFFFF" fill-opacity="0.85" />
<ellipse cx="167.20298843831617" cy="123.55797151379588" rx="6.666796255461158" ry="7.189869051326832" fill="#FFFDF0" fill-opacity="0.6" />
<ellipse cx="167.8637933828158" cy="123.06987738147984" rx="3.868139910406091" ry="3.2249729901740603" fill="#FFFFFF" fill-opacity="0.85" />
<ellipse cx="178.6616843455592" cy="101.56029848163675" rx="8.15576357181708" ry="5.90551612400505" fill="#FFFDF0" fill-opacity="0.6" />
<ellipse cx="178.73673078392173" cy="101.1021709472993" rx="3.524250324323637" ry="2.626258451678314" fill="#FFFFFF" fill-opacity="0.85" />
<ellipse cx="145.49132890052198" cy="43.072100361956196" rx="7.281449834604484" ry="5.241533556099399" fill="#FFFDF0" fill-opacity="0.6" />
<ellipse cx="145.5791255090247" cy="43.84437337974815" rx="4.732726463483239" ry="3.720320201621929" fill="#FFFFFF" fill-opacity="0.85" />
<ellipse cx="93.9029183504955" cy="124.98556186385882" rx="5.466395850428566" ry="4.219925215559625" fill="#FFFDF0" fill-opacity="0.6" />
<ellipse cx="93.32665395215808" cy="124.68871720100789" rx="2.5823757979127877" ry="2.0042045904165544" fill="#FFFFFF" fill-opacity="0.85" />
<ellipse cx="52.735214701456144" cy="128.1969190249937" rx="8.086993656468689" ry="7.430368372726119" fill="#FFFDF0" fill-opacity="0.6" />
<ellipse cx="52.22126282726064" cy="128.21107409472816" rx="3.2048036585928807" ry="3.494697004452463" fill="#FFFFFF" fill-opacity="0.85" />
</g>
<path d="M105.0,105.0 L205.0,105.0 A100,100,0,0,1,105.0,205.0 Z" fill="#F5C754" stroke="lightgray" stroke-width="2" />
<use xlink:href="#clip-4535261200-4535709904" />
<g clip-path="url(#clip-4535261200-4535709904)">
<circle cx="105.0" cy="105.0" r="92" stroke="#DAA05D" stroke-width="16" fill="none" />
<circle cx="105.0" cy="105.0" r="98" stroke="#C37B32" stroke-width="5" fill="none" />
<circle cx="105.8747248863518" cy="67.71258880787317" r="5.342935807961545" fill="#D2691E" fill-opacity="0.29700150443700984" />
<circle cx="72.62905212562202" cy="80.01452266860534" r="5.221100488420845" fill="#D2691E" fill-opacity="0.33964318735426124" />
<circle cx="104.98009180491576" cy="137.13848804738734" r="5.891883481255324" fill="#D2691E" fill-opacity="0.2001826934021732" />
<circle cx="88.65895300708125" cy="47.813213784450014" r="2.686969003474998" fill="#D2691E" fill-opacity="0.42001310251069957" />
<circle cx="141.33831886878488" cy="40.05876878486335" r="5.693972405769113" fill="#8B4513" fill-opacity="0.30283484843290653" />
<circle cx="139.91004196029508" cy="50.16305349795287" r="2.129110094895111" fill="#FFFFFF" fill-opacity="0.5368229574269936" />
<circle cx="106.2198636304199" cy="120.84308349845476" r="5.514089576688572" fill="#FFFFFF" fill-opacity="0.4153803802031564" />
<circle cx="183.2638060455535" cy="77.88456950057821" r="3.3458079853371805" fill="#FFDE75" fill-opacity="0.5615349671597578" />
<circle cx="93.47020037282194" cy="127.37189826280373" r="5.638673251206223" fill="#FFFFFF" fill-opacity="0.4239701241845199" />
<circle cx="119.87357756514038" cy="160.84119041100328" r="2.7710270953370677" fill="#D2691E" fill-opacity="0.4090513405978172" />
<circle cx="123.68181855584596" cy="165.33804594202795" r="2.071195126931847" fill="#8B4513" fill-opacity="0.519426353016937" />
<circle cx="57.351578764947405" cy="169.46379681816128" r="3.9126277189431438" fill="#FFDE75" fill-opacity="0.33107800087921235" />
<circle cx="45.27371908905603" cy="71.73043078194095" r="2.048923758132349" fill="#8B4513" fill-opacity="0.3725052915676712" />
<circle cx="129.83468745690334" cy="120.16085260496463" r="4.802859808886385" fill="#D2691E" fill-opacity="0.5973820408978432" />
<circle cx="50.27258811013019" cy="105.5104644018956" r="3.6509894508495573" fill="#D2691E" fill-opacity="0.5095709425496248" />
<circle cx="117.38021638581625" cy="184.7787686227677" r="3.8400292593967613" fill="#D2691E" fill-opacity="0.5707256217185024" />
<circle cx="122.80497843338387" cy="159.0032467429036" r="3.7261106908444326" fill="#D2691E" fill-opacity="0.5936429223657584" />
<circle cx="73.15167842323024" cy="29.43885540485141" r="2.5356075323177323" fill="#FFFFFF" fill-opacity="0.2957338890469941" />
<circle cx="179.63813449624078" cy="131.0246840362442" r="4.7184480261497725" fill="#FFFFFF" fill-opacity="0.21179149016848886" />
<circle cx="129.70149488716925" cy="174.2431813028111" r="5.7577040030642355" fill="#D2691E" fill-opacity="0.3040838137769674" />
<circle cx="37.793425741216495" cy="117.51077956223384" r="3.614767723747223" fill="#8B4513" fill-opacity="0.462653873473376" />
<circle cx="39.163251089484945" cy="56.110082961692605" r="2.8520548954484877" fill="#FFFFFF" fill-opacity="0.4053370559560352" />
<circle cx="164.877977125633" cy="69.55049979440048" r="5.498708150376117" fill="#FFFFFF" fill-opacity="0.313734156265948" />
<circle cx="120.41812242150235" cy="165.51092588400957" r="3.836375162613855" fill="#FFFFFF" fill-opacity="0.35383731004024416" />
<circle cx="80.5429632536033" cy="97.53426758145636" r="2.966818356516696" fill="#FFDE75" fill-opacity="0.24483624071667218" />
<circle cx="91.65492405348134" cy="184.60501964969262" r="5.804385869472995" fill="#D2691E" fill-opacity="0.4556364766486557" />
<circle cx="38.58467675859761" cy="146.0956691127721" r="4.648253920356256" fill="#D2691E" fill-opacity="0.3230079197428145" />
<circle cx="163.26091474155626" cy="73.38811189376608" r="4.95357364771193" fill="#FFDE75" fill-opacity="0.31797203861512036" />
<circle cx="92.7794250124115" cy="127.69595608676947" r="4.701297400727138" fill="#8B4513" fill-opacity="0.4966485492529434" />
<circle cx="71.47412073871412" cy="117.65632915868584" r="4.347631367199494" fill="#FFDE75" fill-opacity="0.5329388819314507" />
<circle cx="51.83042626816858" cy="93.27293444222056" r="5.630565002581497" fill="#FFFFFF" fill-opacity="0.459279802394736" />
<circle cx="73.96322927269665" cy="56.94149368525979" r="3.08591782566983" fill="#FFDE75" fill-opacity="0.3304934113926316" />
<circle cx="69.14210036677281" cy="59.871429755926734" r="2.288406476502047" fill="#FFFFFF" fill-opacity="0.2774952514496271" />
<circle cx="87.04248828516002" cy="57.94994990992248" r="3.6962338974889137" fill="#8B4513" fill-opacity="0.5677174223827062" />
<circle cx="38.07273597365675" cy="88.9895151345976" r="3.8465433102311706" fill="#FFDE75" fill-opacity="0.45337209231456616" />
<circle cx="47.98438923791134" cy="42.71004217245035" r="2.11827696241105" fill="#D2691E" fill-opacity="0.273237733191583" />
<circle cx="73.11150556528027" cy="163.2695050235822" r="5.392074249855842" fill="#8B4513" fill-opacity="0.24054328249737475" />
<circle cx="50.776100136753165" cy="46.74821769103972" r="2.317047323734309" fill="#D2691E" fill-opacity="0.35242126456306305" />
<circle cx="141.77904160020918" cy="42.4208749045009" r="4.810112994196102" fill="#D2691E" fill-opacity="0.3368526423332144" />
<circle cx="34.3387137590566" cy="120.10636486324614" r="5.791757885840806" fill="#FFDE75" fill-opacity="0.20534415787965843" />
<circle cx="43.417275007385776" cy="147.68154666327817" r="2.819630837912467" fill="#8B4513" fill-opacity="0.21515793501685254" />
<circle cx="91.60154567401682" cy="171.89254271079795" r="3.505289115005626" fill="#FFDE75" fill-opacity="0.4215272321844751" />
<circle cx="114.54419319586637" cy="136.88361788641944" r="3.4512068097646607" fill="#D2691E" fill-opacity="0.5210359113749687" />
<circle cx="86.87962073265412" cy="65.784217812951" r="2.486747602080724" fill="#8B4513" fill-opacity="0.57430729167538" />
<circle cx="48.10241406111621" cy="49.29578479991384" r="3.377374665995839" fill="#8B4513" fill-opacity="0.28948978132148573" />
<ellipse cx="140.80533220459122" cy="122.99995746126031" rx="8.778685427469332" ry="7.746485100439495" fill="#FFFDF0" fill-opacity="0.6" />
<ellipse cx="141.20693906997366" cy="122.63440200866424" rx="3.524569419651612" ry="2.3471312298132725" fill="#FFFFFF" fill-opacity="0.85" />
<ellipse cx="44.99117508992325" cy="158.697828695646" rx="5.44244640299134" ry="4.457436036792255" fill="#FFFDF0" fill-opacity="0.6" />
<ellipse cx="44.043898896935985" cy="159.41226241356867" rx="2.3309538922775417" ry="3.948839266683895" fill="#FFFFFF" fill-opacity="0.85" />
<ellipse cx="107.03848873713109" cy="120.32624216510783" rx="9.403422706284438" ry="8.713903761346707" fill="#FFFDF0" fill-opacity="0.6" />
<ellipse cx="106.21087005836432" cy="120.15274312868786" rx="3.4189157959285765" ry="2.7933813682173247" fill="#FFFFFF" fill-opacity="0.85" />
<ellipse cx="182.37900539143436" cy="85.20534872952297" rx="6.797628410240599" ry="7.531333797290763" fill="#FFFDF0" fill-opacity="0.6" />
<ellipse cx="181.4228009600653" cy="86.12258077383234" rx="2.342373506950679" ry="2.2610432724553946" fill="#FFFFFF" fill-opacity="0.85" />
<ellipse cx="167.20298843831617" cy="123.55797151379588" rx="6.666796255461158" ry="7.189869051326832" fill="#FFFDF0" fill-opacity="0.6" />
<ellipse cx="167.8637933828158" cy="123.06987738147984" rx="3.868139910406091" ry="3.2249729901740603" fill="#FFFFFF" fill-opacity="0.85" />
<ellipse cx="178.6616843455592" cy="101.56029848163675" rx="8.15576357181708" ry="5.90551612400505" fill="#FFFDF0" fill-opacity="0.6" />
<ellipse cx="178.73673078392173" cy="101.1021709472993" rx="3.524250324323637" ry="2.626258451678314" fill="#FFFFFF" fill-opacity="0.85" />
<ellipse cx="145.49132890052198" cy="43.072100361956196" rx="7.281449834604484" ry="5.241533556099399" fill="#FFFDF0" fill-opacity="0.6" />
<ellipse cx="145.5791255090247" cy="43.84437337974815" rx="4.732726463483239" ry="3.720320201621929" fill="#FFFFFF" fill-opacity="0.85" />
<ellipse cx="93.9029183504955" cy="124.98556186385882" rx="5.466395850428566" ry="4.219925215559625" fill="#FFFDF0" fill-opacity="0.6" />
<ellipse cx="93.32665395215808" cy="124.68871720100789" rx="2.5823757979127877" ry="2.0042045904165544" fill="#FFFFFF" fill-opacity="0.85" />
<ellipse cx="52.735214701456144" cy="128.1969190249937" rx="8.086993656468689" ry="7.430368372726119" fill="#FFFDF0" fill-opacity="0.6" />
<ellipse cx="52.22126282726064" cy="128.21107409472816" rx="3.2048036585928807" ry="3.494697004452463" fill="#FFFFFF" fill-opacity="0.85" />
</g>
<path d="M105.0,105.0 L105.0,205.0 A100,100,0,0,1,5.0,105.00000000000001 Z" fill="#F5C754" stroke="lightgray" stroke-width="2" />
<use xlink:href="#clip-4535261200-4535507920" />
<g clip-path="url(#clip-4535261200-4535507920)">
<circle cx="105.0" cy="105.0" r="92" stroke="#DAA05D" stroke-width="16" fill="none" />
<circle cx="105.0" cy="105.0" r="98" stroke="#C37B32" stroke-width="5" fill="none" />
<circle cx="105.8747248863518" cy="67.71258880787317" r="5.342935807961545" fill="#D2691E" fill-opacity="0.29700150443700984" />
<circle cx="72.62905212562202" cy="80.01452266860534" r="5.221100488420845" fill="#D2691E" fill-opacity="0.33964318735426124" />
<circle cx="104.98009180491576" cy="137.13848804738734" r="5.891883481255324" fill="#D2691E" fill-opacity="0.2001826934021732" />
<circle cx="88.65895300708125" cy="47.813213784450014" r="2.686969003474998" fill="#D2691E" fill-opacity="0.42001310251069957" />
<circle cx="141.33831886878488" cy="40.05876878486335" r="5.693972405769113" fill="#8B4513" fill-opacity="0.30283484843290653" />
<circle cx="139.91004196029508" cy="50.16305349795287" r="2.129110094895111" fill="#FFFFFF" fill-opacity="0.5368229574269936" />
<circle cx="106.2198636304199" cy="120.84308349845476" r="5.514089576688572" fill="#FFFFFF" fill-opacity="0.4153803802031564" />
<circle cx="183.2638060455535" cy="77.88456950057821" r="3.3458079853371805" fill="#FFDE75" fill-opacity="0.5615349671597578" />
<circle cx="93.47020037282194" cy="127.37189826280373" r="5.638673251206223" fill="#FFFFFF" fill-opacity="0.4239701241845199" />
<circle cx="119.87357756514038" cy="160.84119041100328" r="2.7710270953370677" fill="#D2691E" fill-opacity="0.4090513405978172" />
<circle cx="123.68181855584596" cy="165.33804594202795" r="2.071195126931847" fill="#8B4513" fill-opacity="0.519426353016937" />
<circle cx="57.351578764947405" cy="169.46379681816128" r="3.9126277189431438" fill="#FFDE75" fill-opacity="0.33107800087921235" />
<circle cx="45.27371908905603" cy="71.73043078194095" r="2.048923758132349" fill="#8B4513" fill-opacity="0.3725052915676712" />
<circle cx="129.83468745690334" cy="120.16085260496463" r="4.802859808886385" fill="#D2691E" fill-opacity="0.5973820408978432" />
<circle cx="50.27258811013019" cy="105.5104644018956" r="3.6509894508495573" fill="#D2691E" fill-opacity="0.5095709425496248" />
<circle cx="117.38021638581625" cy="184.7787686227677" r="3.8400292593967613" fill="#D2691E" fill-opacity="0.5707256217185024" />
<circle cx="122.80497843338387" cy="159.0032467429036" r="3.7261106908444326" fill="#D2691E" fill-opacity="0.5936429223657584" />
<circle cx="73.15167842323024" cy="29.43885540485141" r="2.5356075323177323" fill="#FFFFFF" fill-opacity="0.2957338890469941" />
<circle cx="179.63813449624078" cy="131.0246840362442" r="4.7184480261497725" fill="#FFFFFF" fill-opacity="0.21179149016848886" />
<circle cx="129.70149488716925" cy="174.2431813028111" r="5.7577040030642355" fill="#D2691E" fill-opacity="0.3040838137769674" />
<circle cx="37.793425741216495" cy="117.51077956223384" r="3.614767723747223" fill="#8B4513" fill-opacity="0.462653873473376" />
<circle cx="39.163251089484945" cy="56.110082961692605" r="2.8520548954484877" fill="#FFFFFF" fill-opacity="0.4053370559560352" />
<circle cx="164.877977125633" cy="69.55049979440048" r="5.498708150376117" fill="#FFFFFF" fill-opacity="0.313734156265948" />
<circle cx="120.41812242150235" cy="165.51092588400957" r="3.836375162613855" fill="#FFFFFF" fill-opacity="0.35383731004024416" />
<circle cx="80.5429632536033" cy="97.53426758145636" r="2.966818356516696" fill="#FFDE75" fill-opacity="0.24483624071667218" />
<circle cx="91.65492405348134" cy="184.60501964969262" r="5.804385869472995" fill="#D2691E" fill-opacity="0.4556364766486557" />
<circle cx="38.58467675859761" cy="146.0956691127721" r="4.648253920356256" fill="#D2691E" fill-opacity="0.3230079197428145" />
<circle cx="163.26091474155626" cy="73.38811189376608" r="4.95357364771193" fill="#FFDE75" fill-opacity="0.31797203861512036" />
<circle cx="92.7794250124115" cy="127.69595608676947" r="4.701297400727138" fill="#8B4513" fill-opacity="0.4966485492529434" />
<circle cx="71.47412073871412" cy="117.65632915868584" r="4.347631367199494" fill="#FFDE75" fill-opacity="0.5329388819314507" />
<circle cx="51.83042626816858" cy="93.27293444222056" r="5.630565002581497" fill="#FFFFFF" fill-opacity="0.459279802394736" />
<circle cx="73.96322927269665" cy="56.94149368525979" r="3.08591782566983" fill="#FFDE75" fill-opacity="0.3304934113926316" />
<circle cx="69.14210036677281" cy="59.871429755926734" r="2.288406476502047" fill="#FFFFFF" fill-opacity="0.2774952514496271" />
<circle cx="87.04248828516002" cy="57.94994990992248" r="3.6962338974889137" fill="#8B4513" fill-opacity="0.5677174223827062" />
<circle cx="38.07273597365675" cy="88.9895151345976" r="3.8465433102311706" fill="#FFDE75" fill-opacity="0.45337209231456616" />
<circle cx="47.98438923791134" cy="42.71004217245035" r="2.11827696241105" fill="#D2691E" fill-opacity="0.273237733191583" />
<circle cx="73.11150556528027" cy="163.2695050235822" r="5.392074249855842" fill="#8B4513" fill-opacity="0.24054328249737475" />
<circle cx="50.776100136753165" cy="46.74821769103972" r="2.317047323734309" fill="#D2691E" fill-opacity="0.35242126456306305" />
<circle cx="141.77904160020918" cy="42.4208749045009" r="4.810112994196102" fill="#D2691E" fill-opacity="0.3368526423332144" />
<circle cx="34.3387137590566" cy="120.10636486324614" r="5.791757885840806" fill="#FFDE75" fill-opacity="0.20534415787965843" />
<circle cx="43.417275007385776" cy="147.68154666327817" r="2.819630837912467" fill="#8B4513" fill-opacity="0.21515793501685254" />
<circle cx="91.60154567401682" cy="171.89254271079795" r="3.505289115005626" fill="#FFDE75" fill-opacity="0.4215272321844751" />
<circle cx="114.54419319586637" cy="136.88361788641944" r="3.4512068097646607" fill="#D2691E" fill-opacity="0.5210359113749687" />
<circle cx="86.87962073265412" cy="65.784217812951" r="2.486747602080724" fill="#8B4513" fill-opacity="0.57430729167538" />
<circle cx="48.10241406111621" cy="49.29578479991384" r="3.377374665995839" fill="#8B4513" fill-opacity="0.28948978132148573" />
<ellipse cx="140.80533220459122" cy="122.99995746126031" rx="8.778685427469332" ry="7.746485100439495" fill="#FFFDF0" fill-opacity="0.6" />
<ellipse cx="141.20693906997366" cy="122.63440200866424" rx="3.524569419651612" ry="2.3471312298132725" fill="#FFFFFF" fill-opacity="0.85" />
<ellipse cx="44.99117508992325" cy="158.697828695646" rx="5.44244640299134" ry="4.457436036792255" fill="#FFFDF0" fill-opacity="0.6" />
<ellipse cx="44.043898896935985" cy="159.41226241356867" rx="2.3309538922775417" ry="3.948839266683895" fill="#FFFFFF" fill-opacity="0.85" />
<ellipse cx="107.03848873713109" cy="120.32624216510783" rx="9.403422706284438" ry="8.713903761346707" fill="#FFFDF0" fill-opacity="0.6" />
<ellipse cx="106.21087005836432" cy="120.15274312868786" rx="3.4189157959285765" ry="2.7933813682173247" fill="#FFFFFF" fill-opacity="0.85" />
<ellipse cx="182.37900539143436" cy="85.20534872952297" rx="6.797628410240599" ry="7.531333797290763" fill="#FFFDF0" fill-opacity="0.6" />
<ellipse cx="181.4228009600653" cy="86.12258077383234" rx="2.342373506950679" ry="2.2610432724553946" fill="#FFFFFF" fill-opacity="0.85" />
<ellipse cx="167.20298843831617" cy="123.55797151379588" rx="6.666796255461158" ry="7.189869051326832" fill="#FFFDF0" fill-opacity="0.6" />
<ellipse cx="167.8637933828158" cy="123.06987738147984" rx="3.868139910406091" ry="3.2249729901740603" fill="#FFFFFF" fill-opacity="0.85" />
<ellipse cx="178.6616843455592" cy="101.56029848163675" rx="8.15576357181708" ry="5.90551612400505" fill="#FFFDF0" fill-opacity="0.6" />
<ellipse cx="178.73673078392173" cy="101.1021709472993" rx="3.524250324323637" ry="2.626258451678314" fill="#FFFFFF" fill-opacity="0.85" />
<ellipse cx="145.49132890052198" cy="43.072100361956196" rx="7.281449834604484" ry="5.241533556099399" fill="#FFFDF0" fill-opacity="0.6" />
<ellipse cx="145.5791255090247" cy="43.84437337974815" rx="4.732726463483239" ry="3.720320201621929" fill="#FFFFFF" fill-opacity="0.85" />
<ellipse cx="93.9029183504955" cy="124.98556186385882" rx="5.466395850428566" ry="4.219925215559625" fill="#FFFDF0" fill-opacity="0.6" />
<ellipse cx="93.32665395215808" cy="124.68871720100789" rx="2.5823757979127877" ry="2.0042045904165544" fill="#FFFFFF" fill-opacity="0.85" />
<ellipse cx="52.735214701456144" cy="128.1969190249937" rx="8.086993656468689" ry="7.430368372726119" fill="#FFFDF0" fill-opacity="0.6" />
<ellipse cx="52.22126282726064" cy="128.21107409472816" rx="3.2048036585928807" ry="3.494697004452463" fill="#FFFFFF" fill-opacity="0.85" />
</g>
<rect x="230.0" y="41.0" width="54.0" height="54.0" fill="none" stroke="black" stroke-width="2" />
<rect x="230.0" y="115.0" width="54.0" height="54.0" fill="none" stroke="black" stroke-width="2" />
<path d="M225.0,105.0 L289.0,105.0" stroke="black" stroke-width="2" />
<text x="257.0" y="68.0" font-size="36" font-family="Comic Sans MS, Comic Sans, cursive" dominant-baseline="middle" fill="black" text-anchor="middle">3</text>
<text x="257.0" y="142.0" font-size="36" font-family="Comic Sans MS, Comic Sans, cursive" dominant-baseline="middle" fill="black" text-anchor="middle">4</text>
</g>
</svg>
<rect x="299.0" y="65.0" width="80" height="80" fill="none" stroke="black" stroke-width="1.5"/>
<svg x="394.0" y="0.0" width="284.0" height="210.0" viewBox="0 0 284.0 210" xmlns="http://www.w3.org/2000/svg" xmlns:xlink="http://www.w3.org/1999/xlink">
<defs>
<clipPath id="clip-4524470224-4471971024">
<path d="M105.0,105.0 L105.0,5.0 A100,100,0,0,1,205.0,105.0 Z" fill="none" />
</clipPath>
</defs>
<g>
<path d="M105.0,105.0 L105.0,5.0 A100,100,0,0,1,205.0,105.0 Z" fill="none" stroke="lightgray" stroke-width="2" />
<path d="M105.0,105.0 L205.0,105.0 A100,100,0,0,1,105.0,205.0 Z" fill="none" stroke="lightgray" stroke-width="2" />
<path d="M105.0,105.0 L105.0,205.0 A100,100,0,0,1,5.0,105.00000000000001 Z" fill="none" stroke="lightgray" stroke-width="2" />
<path d="M105.0,105.0 L5.0,105.00000000000001 A100,100,0,0,1,104.99999999999999,5.0 Z" fill="none" stroke="lightgray" stroke-width="2" />
<path d="M105.0,105.0 L105.0,5.0 A100,100,0,0,1,205.0,105.0 Z" fill="#F5C754" stroke="lightgray" stroke-width="2" />
<use xlink:href="#clip-4524470224-4471971024" />
<g clip-path="url(#clip-4524470224-4471971024)">
<circle cx="105.0" cy="105.0" r="92" stroke="#DAA05D" stroke-width="16" fill="none" />
<circle cx="105.0" cy="105.0" r="98" stroke="#C37B32" stroke-width="5" fill="none" />
<circle cx="141.23676851114863" cy="124.76859972893035" r="5.966909519186754" fill="#D2691E" fill-opacity="0.4741346728587509" />
<circle cx="119.51053849622542" cy="164.54287991846255" r="5.37426000012726" fill="#FFFFFF" fill-opacity="0.28883650856805293" />
<circle cx="35.94201548967638" cy="154.22680212262296" r="5.143747910149534" fill="#FFDE75" fill-opacity="0.3643210995045487" />
<circle cx="119.1546998425736" cy="123.82822815717316" r="3.4832027937597365" fill="#FFFFFF" fill-opacity="0.4524323762630907" />
<circle cx="93.54430031457616" cy="118.81771770599667" r="3.8282025686993144" fill="#8B4513" fill-opacity="0.5253704079847477" />
<circle cx="57.49462441554844" cy="141.81427549542641" r="2.907546378214613" fill="#D2691E" fill-opacity="0.5123635221200555" />
<circle cx="53.36718684769681" cy="117.50627605928041" r="3.268596045498265" fill="#FFDE75" fill-opacity="0.36475800855766394" />
<circle cx="142.2605109168025" cy="116.30742593658547" r="3.2877424864171476" fill="#FFFFFF" fill-opacity="0.29348945157510065" />
<circle cx="108.15478877373914" cy="117.93674847309708" r="4.756728934374948" fill="#D2691E" fill-opacity="0.5951446819949722" />
<circle cx="50.68097684902196" cy="170.36467031115856" r="3.4601412251418715" fill="#8B4513" fill-opacity="0.32432807975278766" />
<circle cx="106.05667607338845" cy="118.38704075440141" r="2.575763082725026" fill="#D2691E" fill-opacity="0.4957796538578755" />
<circle cx="44.865730476035644" cy="127.14348219875433" r="2.1986386169641894" fill="#D2691E" fill-opacity="0.21730237970063496" />
<circle cx="99.87280679446913" cy="167.9931432451449" r="2.087946679219846" fill="#FFFFFF" fill-opacity="0.3438931765154658" />
<circle cx="118.0943431200339" cy="34.20721010070706" r="3.075479666180947" fill="#FFFFFF" fill-opacity="0.20562637395019934" />
<circle cx="67.15916513733754" cy="146.96993572200395" r="5.412231759044399" fill="#FFFFFF" fill-opacity="0.22901288167413478" />
<ellipse cx="150.87703826841533" cy="39.057413453608845" rx="6.687063840194911" ry="6.052222348796124" fill="#FFFDF0" fill-opacity="0.6" />
<ellipse cx="150.01921119496484" cy="39.05821080038132" rx="4.743859856540402" ry="2.222969647312688" fill="#FFFFFF" fill-opacity="0.85" />
<ellipse cx="153.99721147599232" cy="135.15795294290567" rx="6.517858782101013" ry="6.095169227859857" fill="#FFFDF0" fill-opacity="0.6" />
<ellipse cx="154.67180315811234" cy="134.22758352918936" rx="2.30368992277437" ry="3.725471938420174" fill="#FFFFFF" fill-opacity="0.85" />
<ellipse cx="39.90143539902445" cy="152.10965729054575" rx="8.856430747438374" ry="6.476527072583101" fill="#FFFDF0" fill-opacity="0.6" />
<ellipse cx="38.95986795683631" cy="151.19729596487764" rx="3.315039024079929" ry="2.019817285827747" fill="#FFFFFF" fill-opacity="0.85" />
</g>
<rect x="230.0" y="41.0" width="54.0" height="54.0" fill="none" stroke="black" stroke-width="2" />
<rect x="230.0" y="115.0" width="54.0" height="54.0" fill="none" stroke="black" stroke-width="2" />
<path d="M225.0,105.0 L289.0,105.0" stroke="black" stroke-width="2" />
<text x="257.0" y="68.0" font-size="36" font-family="Comic Sans MS, Comic Sans, cursive" dominant-baseline="middle" fill="black" text-anchor="middle">1</text>
<text x="257.0" y="142.0" font-size="36" font-family="Comic Sans MS, Comic Sans, cursive" dominant-baseline="middle" fill="black" text-anchor="middle">4</text>
</g>
</svg>
</svg>