<?xml version="1.0" encoding="UTF-8"?>
<svg xmlns="http://www.w3.org/2000/svg" xmlns:xlink="http://www.w3.org/1999/xlink"
     width="284.0" height="210" viewBox="0 0 284.0 210">
<defs>
<clipPath id="clip-4524472048-4472137168">
<path d="M105.0,105.0 L105.0,5.0 A100,100,0,0,1,205.0,105.0 Z" fill="none" />
</clipPath>
<clipPath id="clip-4524472048-4535507792">
<path d="M105.0,105.0 L205.0,105.0 A100,100,0,0,1,105.0,205.0 Z" fill="none" />
</clipPath>
<clipPath id="clip-4524472048-4535001040">
<path d="M105.0,105.0 L105.0,205.0 A100,100,0,0,1,5.0,105.00000000000001 Z" fill="none" />
</clipPath>
</defs>
<g>
<path d="M105.0,105.0 L105.0,5.0 A100,100,0,0,1,205.0,105.0 Z" fill="none" stroke="lightgray" stroke-width="2" />
<path d="M105.0,105.0 L205.0,105.0 A100,100,0,0,1,105.0,205.0 Z" fill="none" stroke="lightgray" stroke-width="2" />
<path d="M105.0,105.0 L105.0,205.0 A100,100,0,0,1,5.0,105.00000000000001 Z" fill="none" stroke="lightgray" stroke-width="2" />
<path d="M105.0,105.0 L5.0,105.00000000000001 A100,100,0,0,1,104.99999999999999,5.0 Z" fill="none" stroke="lightgray" stroke-width="2" />
<path d="M105.0,105.0 L105.0,5.0 A100,100,0,0,1,205.0,105.0 Z" fill="#FEF7E3" stroke="lightgray" stroke-width="2" />
<use xlink:href="#clip-4524472048-4472137168" />
<g clip-path="url(#clip-4524472048-4472137168)">
<circle cx="105.0" cy="105.0" r="92" stroke="#DAA05D" stroke-width="16" fill="none" />
<circle cx="105.0" cy="105.0" r="98" stroke="#C37B32" stroke-width="5" fill="none" />
<circle cx="153.05674394217226" cy="83.22788869843643" r="5.5089566851796885" fill="#FFFFFF" fill-opacity="0.5790791318479573" />
<circle cx="114.37258703969589" cy="22.082986526317782" r="5.69052730899209" fill="#D2691E" fill-opacity="0.3386590582607865" />
<circle cx="124.16435586101437" cy="156.83608703770895" r="2.809410534561828" fill="#FFFFFF" fill-opacity="0.35889725557007257" />
<circle cx="177.57288773566785" cy="148.17667818879664" r="4.607592547610259" fill="#FFFFFF" fill-opacity="0.5470054064716103" />
<circle cx="78.57270159261185" cy="94.56307303193458" r="4.480657848458527" fill="#FFDE75" fill-opacity="0.48075696918280164" />
<circle cx="41.480351343683026" cy="76.25315234789626" r="2.4468763403061766" fill="#D2691E" fill-opacity="0.3346415048995187" />
<circle cx="136.20087398694378" cy="94.01609230654468" r="3.88455469612687" fill="#FFDE75" fill-opacity="0.45021359130099514" />
<circle cx="70.37066058607454" cy="148.12068116691705" r="5.432729343308821" fill="#8B4513" fill-opacity="0.4672991690541528" />
<circle cx="82.92625852386013" cy="41.99503846262939" r="4.52452769753173" fill="#FFDE75" fill-opacity="0.46271745084717614" />
<circle cx="182.66049858700927" cy="87.39396389145963" r="2.466426459364418" fill="#8B4513" fill-opacity="0.5318939629692352" />
<circle cx="70.58996935208835" cy="35.77795470356338" r="3.411819535679063" fill="#D2691E" fill-opacity="0.22088629996868955" />
<circle cx="111.25179747925394" cy="154.65569550915635" r="5.436833806449329" fill="#D2691E" fill-opacity="0.5924570807848619" />
<circle cx="62.46832602342789" cy="90.99354198814488" r="3.602393244260317" fill="#8B4513" fill-opacity="0.2553156665539434" />
<circle cx="125.72525060832879" cy="96.23849445934079" r="3.2272312198189788" fill="#8B4513" fill-opacity="0.40042540851266384" />
<circle cx="38.28680112048713" cy="77.4015131778088" r="5.944046139096184" fill="#FFDE75" fill-opacity="0.25333615592892805" />
<circle cx="99.92957057338293" cy="100.16874689875199" r="4.262409648969708" fill="#8B4513" fill-opacity="0.3803661127200393" />
<circle cx="67.19848294813461" cy="79.56168171366889" r="3.547193864790899" fill="#8B4513" fill-opacity="0.22395531436600946" />
<circle cx="102.46993065889868" cy="160.77713019245067" r="3.7754443535853537" fill="#FFDE75" fill-opacity="0.5930448062128619" />
<circle cx="51.95786557456767" cy="123.07852029836356" r="5.530820723414919" fill="#D2691E" fill-opacity="0.5003086257239393" />
<circle cx="161.3040964130142" cy="113.05267515896047" r="5.627677082195757" fill="#FFDE75" fill-opacity="0.5639173486018618" />
<circle cx="57.26234227939852" cy="148.4518697168355" r="4.757911066681077" fill="#8B4513" fill-opacity="0.5785792023661238" />
<circle cx="138.17571347065797" cy="34.24154115420437" r="3.585544286269288" fill="#8B4513" fill-opacity="0.47974327895745367" />
<circle cx="134.55182658912105" cy="118.47794663149025" r="5.3373485963994876" fill="#D2691E" fill-opacity="0.25939484948895597" />
<circle cx="95.34696216215437" cy="177.1241076668863" r="5.740221790074215" fill="#8B4513" fill-opacity="0.2733461256646853" />
<circle cx="34.75010306453598" cy="112.79211414699823" r="3.906716230946251" fill="#FFDE75" fill-opacity="0.48338877679346326" />
<circle cx="171.24720726571107" cy="136.7270965344646" r="3.885516730019183" fill="#D2691E" fill-opacity="0.4902950256418488" />
<circle cx="145.83180201799868" cy="64.79545105479029" r="4.497300803745851" fill="#FFDE75" fill-opacity="0.4962854292081082" />
<circle cx="189.59086016530233" cy="98.0320177083861" r="3.610548801051092" fill="#D2691E" fill-opacity="0.368239087383051" />
<circle cx="164.6157633419278" cy="69.42520954640517" r="5.90154428830166" fill="#FFFFFF" fill-opacity="0.31777818954730014" />
<circle cx="62.692846961717635" cy="93.62699555187515" r="3.587182159674668" fill="#FFFFFF" fill-opacity="0.4341329972582568" />
<circle cx="182.13624338595437" cy="73.1878353591592" r="2.4545255189370243" fill="#8B4513" fill-opacity="0.43621579006224026" />
<circle cx="53.225488945558425" cy="113.56237089574675" r="4.265023860016258" fill="#D2691E" fill-opacity="0.5323840721495867" />
<circle cx="34.26162714033262" cy="105.06082915099698" r="3.1762558613466494" fill="#FFFFFF" fill-opacity="0.20688852342228814" />
<circle cx="99.29895853242485" cy="85.92529727957927" r="3.5441438105097154" fill="#8B4513" fill-opacity="0.257664783222591" />
<circle cx="112.13782145229014" cy="188.07822715686098" r="4.648323315942066" fill="#8B4513" fill-opacity="0.2151994742904628" />
<circle cx="86.50135114434244" cy="102.96609469015912" r="2.8774711240459974" fill="#FFFFFF" fill-opacity="0.39082481918880174" />
<circle cx="163.7637811609992" cy="101.4482924885451" r="2.6697425835201765" fill="#FFFFFF" fill-opacity="0.26087612860866793" />
<circle cx="116.47337333561502" cy="79.66527412799923" r="3.705075109377624" fill="#FFFFFF" fill-opacity="0.5466573607439265" />
<circle cx="134.19660405623054" cy="32.85272761189562" r="5.057560884904158" fill="#8B4513" fill-opacity="0.44658891090034775" />
<circle cx="60.050871100562425" cy="137.5001352220521" r="3.19107683680418" fill="#D2691E" fill-opacity="0.4160731329884444" />
<circle cx="143.79312659318109" cy="55.95078111320303" r="4.751509387751071" fill="#FFFFFF" fill-opacity="0.5135144578730795" />
<circle cx="130.4244807988947" cy="167.27939482113" r="4.024703436759127" fill="#FFFFFF" fill-opacity="0.5474869409049963" />
<circle cx="124.82273728019852" cy="88.02275989320799" r="4.362215764905011" fill="#FFFFFF" fill-opacity="0.2910270796728929" />
<circle cx="95.38473421414395" cy="104.55606210936008" r="5.885510732858536" fill="#D2691E" fill-opacity="0.32505813342119644" />
<circle cx="151.76408763389395" cy="114.3426158058236" r="3.5975572833790292" fill="#8B4513" fill-opacity="0.5605927881003122" />
<circle cx="118.11478892662754" cy="173.05408964571131" r="10.144594282268327" fill="#FFFFFF" fill-opacity="0.95" stroke="#FAF0E6" stroke-width="1.5" />
<circle cx="152.95818225085927" cy="81.32886259803732" r="7.20879710661273" fill="#FFFFFF" fill-opacity="0.95" stroke="#FAF0E6" stroke-width="1.5" />
<circle cx="68.4323309442625" cy="141.43404595402356" r="10.170201899986475" fill="#FFFFFF" fill-opacity="0.95" stroke="#FAF0E6" stroke-width="1.5" />
<circle cx="37.09093429633282" cy="72.52922548038265" r="10.382603633181809" fill="#FFFFFF" fill-opacity="0.95" stroke="#FAF0E6" stroke-width="1.5" />
<circle cx="40.831273572717194" cy="135.3800741442305" r="5.099378843433634" fill="#FFFFFF" fill-opacity="0.95" stroke="#FAF0E6" stroke-width="1.5" />
<circle cx="110.10021473305636" cy="181.54597559575706" r="8.243263571074486" fill="#FFFFFF" fill-opacity="0.95" stroke="#FAF0E6" stroke-width="1.5" />
<circle cx="72.09260090201411" cy="147.43434269629932" r="8.975729477685356" fill="#FFFFFF" fill-opacity="0.95" stroke="#FAF0E6" stroke-width="1.5" />
<circle cx="118.21172658042893" cy="94.19470161333099" r="6.3271049143927485" fill="#FFFFFF" fill-opacity="0.95" stroke="#FAF0E6" stroke-width="1.5" />
<circle cx="87.09114788167834" cy="123.33094025360747" r="11.623393994121727" fill="#FFFFFF" fill-opacity="0.95" stroke="#FAF0E6" stroke-width="1.5" />
<circle cx="57.08653447345907" cy="167.2374152141124" r="10.61253661428648" fill="#FFFFFF" fill-opacity="0.95" stroke="#FAF0E6" stroke-width="1.5" />
<circle cx="138.2660194857887" cy="145.11120163266793" r="8.72946910253996" fill="#FFFFFF" fill-opacity="0.95" stroke="#FAF0E6" stroke-width="1.5" />
<circle cx="166.05607249833517" cy="132.71579338429999" r="11.19650642185296" fill="#FFFFFF" fill-opacity="0.95" stroke="#FAF0E6" stroke-width="1.5" />
<circle cx="107.91309126729257" cy="115.79834714698363" r="6.179507164289292" fill="#FFFFFF" fill-opacity="0.95" stroke="#FAF0E6" stroke-width="1.5" />
<circle cx="50.51685814662097" cy="143.44522886720173" r="10.767848288603204" fill="#FFFFFF" fill-opacity="0.95" stroke="#FAF0E6" stroke-width="1.5" />
<circle cx="157.0813755118771" cy="145.6936377584919" r="7.461196994870578" fill="#FFFFFF" fill-opacity="0.95" stroke="#FAF0E6" stroke-width="1.5" />
<circle cx="111.03850362878465" cy="119.80208658345092" r="7.340544259032466" fill="#FFFFFF" fill-opacity="0.95" stroke="#FAF0E6" stroke-width="1.5" />
<circle cx="63.899816464302056" cy="79.35509171505535" r="10.03832861104924" fill="#FFFFFF" fill-opacity="0.95" stroke="#FAF0E6" stroke-width="1.5" />
<circle cx="163.82573266167685" cy="148.2109069662971" r="8.172920891337956" fill="#FFFFFF" fill-opacity="0.95" stroke="#FAF0E6" stroke-width="1.5" />
</g>
<path d="M105.0,105.0 L205.0,105.0 A100,100,0,0,1,105.0,205.0 Z" fill="#FEF7E3" stroke="lightgray" stroke-width="2" />
<use xlink:href="#clip-4524472048-4535507792" />
<g clip-path="url(#clip-4524472048-4535507792)">
<circle cx="105.0" cy="105.0" r="92" stroke="#DAA05D" stroke-width="16" fill="none" />
<circle cx="105.0" cy="105.0" r="98" stroke="#C37B32" stroke-width="5" fill="none" />
<circle cx="153.05674394217226" cy="83.22788869843643" r="5.5089566851796885" fill="#FFFFFF" fill-opacity="0.5790791318479573" />
<circle cx="114.37258703969589" cy="22.082986526317782" r="5.69052730899209" fill="#D2691E" fill-opacity="0.3386590582607865" />
<circle cx="124.16435586101437" cy="156.83608703770895" r="2.809410534561828" fill="#FFFFFF" fill-opacity="0.35889725557007257" />
<circle cx="177.57288773566785" cy="148.17667818879664" r="4.607592547610259" fill="#FFFFFF" fill-opacity="0.5470054064716103" />
<circle cx="78.57270159261185" cy="94.56307303193458" r="4.480657848458527" fill="#FFDE75" fill-opacity="0.48075696918280164" />
<circle cx="41.480351343683026" cy="76.25315234789626" r="2.4468763403061766" fill="#D2691E" fill-opacity="0.3346415048995187" />
<circle cx="136.20087398694378" cy="94.01609230654468" r="3.88455469612687" fill="#FFDE75" fill-opacity="0.45021359130099514" />
<circle cx="70.37066058607454" cy="148.12068116691705" r="5.432729343308821" fill="#8B4513" fill-opacity="0.4672991690541528" />
<circle cx="82.92625852386013" cy="41.99503846262939" r="4.52452769753173" fill="#FFDE75" fill-opacity="0.46271745084717614" />
<circle cx="182.66049858700927" cy="87.39396389145963" r="2.466426459364418" fill="#8B4513" fill-opacity="0.5318939629692352" />
<circle cx="70.58996935208835" cy="35.77795470356338" r="3.411819535679063" fill="#D2691E" fill-opacity="0.22088629996868955" />
<circle cx="111.25179747925394" cy="154.65569550915635" r="5.436833806449329" fill="#D2691E" fill-opacity="0.5924570807848619" />
<circle cx="62.46832602342789" cy="90.99354198814488" r="3.602393244260317" fill="#8B4513" fill-opacity="0.2553156665539434" />
<circle cx="125.72525060832879" cy="96.23849445934079" r="3.2272312198189788" fill="#8B4513" fill-opacity="0.40042540851266384" />
<circle cx="38.28680112048713" cy="77.4015131778088" r="5.944046139096184" fill="#FFDE75" fill-opacity="0.25333615592892805" />
<circle cx="99.92957057338293" cy="100.16874689875199" r="4.262409648969708" fill="#8B4513" fill-opacity="0.3803661127200393" />
<circle cx="67.19848294813461" cy="79.56168171366889" r="3.547193864790899" fill="#8B4513" fill-opacity="0.22395531436600946" />
<circle cx="102.46993065889868" cy="160.77713019245067" r="3.7754443535853537" fill="#FFDE75" fill-opacity="0.5930448062128619" />
<circle cx="51.95786557456767" cy="123.07852029836356" r="5.530820723414919" fill="#D2691E" fill-opacity="0.5003086257239393" />
<circle cx="161.3040964130142" cy="113.05267515896047" r="5.627677082195757" fill="#FFDE75" fill-opacity="0.5639173486018618" />
<circle cx="57.26234227939852" cy="148.4518697168355" r="4.757911066681077" fill="#8B4513" fill-opacity="0.5785792023661238" />
<circle cx="138.17571347065797" cy="34.24154115420437" r="3.585544286269288" fill="#8B4513" fill-opacity="0.47974327895745367" />
<circle cx="134.55182658912105" cy="118.47794663149025" r="5.3373485963994876" fill="#D2691E" fill-opacity="0.25939484948895597" />
<circle cx="95.34696216215437" cy="177.1241076668863" r="5.740221790074215" fill="#8B4513" fill-opacity="0.2733461256646853" />
<circle cx="34.75010306453598" cy="112.79211414699823" r="3.906716230946251" fill="#FFDE75" fill-opacity="0.48338877679346326" />
<circle cx="171.24720726571107" cy="136.7270965344646" r="3.885516730019183" fill="#D2691E" fill-opacity="0.4902950256418488" />
<circle cx="145.83180201799868" cy="64.79545105479029" r="4.497300803745851" fill="#FFDE75" fill-opacity="0.4962854292081082" />
<circle cx="189.59086016530233" cy="98.0320177083861" r="3.610548801051092" fill="#D2691E" fill-opacity="0.368239087383051" />
<circle cx="164.6157633419278" cy="69.42520954640517" r="5.90154428830166" fill="#FFFFFF" fill-opacity="0.31777818954730014" />
<circle cx="62.692846961717635" cy="93.62699555187515" r="3.587182159674668" fill="#FFFFFF" fill-opacity="0.4341329972582568" />
<circle cx="182.13624338595437" cy="73.1878353591592" r="2.4545255189370243" fill="#8B4513" fill-opacity="0.43621579006224026" />
<circle cx="53.225488945558425" cy="113.56237089574675" r="4.265023860016258" fill="#D2691E" fill-opacity="0.5323840721495867" />
<circle cx="34.26162714033262" cy="105.06082915099698" r="3.1762558613466494" fill="#FFFFFF" fill-opacity="0.20688852342228814" />
<circle cx="99.29895853242485" cy="85.92529727957927" r="3.5441438105097154" fill="#8B4513" fill-opacity="0.257664783222591" />
<circle cx="112.13782145229014" cy="188.07822715686098" r="4.648323315942066" fill="#8B4513" fill-opacity="0.2151994742904628" />
<circle cx="86.50135114434244" cy="102.96609469015912" r="2.8774711240459974" fill="#FFFFFF" fill-opacity="0.39082481918880174" />
<circle cx="163.7637811609992" cy="101.4482924885451" r="2.6697425835201765" fill="#FFFFFF" fill-opacity="0.26087612860866793" />
<circle cx="116.47337333561502" cy="79.66527412799923" r="3.705075109377624" fill="#FFFFFF" fill-opacity="0.5466573607439265" />
<circle cx="134.19660405623054" cy="32.85272761189562" r="5.057560884904158" fill="#8B4513" fill-opacity="0.44658891090034775" />
<circle cx="60.050871100562425" cy="137.5001352220521" r="3.19107683680418" fill="#D2691E" fill-opacity="0.4160731329884444" />
<circle cx="143.79312659318109" cy="55.95078111320303" r="4.751509387751071" fill="#FFFFFF" fill-opacity="0.5135144578730795" />
<circle cx="130.4244807988947" cy="167.27939482113" r="4.024703436759127" fill="#FFFFFF" fill-opacity="0.5474869409049963" />
<circle cx="124.82273728019852" cy="88.02275989320799" r="4.362215764905011" fill="#FFFFFF" fill-opacity="0.2910270796728929" />
<circle cx="95.38473421414395" cy="104.55606210936008" r="5.885510732858536" fill="#D2691E" fill-opacity="0.32505813342119644" />
<circle cx="151.76408763389395" cy="114.3426158058236" r="3.5975572833790292" fill="#8B4513" fill-opacity="0.5605927881003122" />
<circle cx="118.11478892662754" cy="173.05408964571131" r="10.144594282268327" fill="#FFFFFF" fill-opacity="0.95" stroke="#FAF0E6" stroke-width="1.5" />
<circle cx="152.95818225085927" cy="81.32886259803732" r="7.20879710661273" fill="#FFFFFF" fill-opacity="0.95" stroke="#FAF0E6" stroke-width="1.5" />
<circle cx="68.4323309442625" cy="141.43404595402356" r="10.170201899986475" fill="#FFFFFF" fill-opacity="0.95" stroke="#FAF0E6" stroke-width="1.5" />
<circle cx="37.09093429633282" cy="72.52922548038265" r="10.382603633181809" fill="#FFFFFF" fill-opacity="0.95" stroke="#FAF0E6" stroke-width="1.5" />
<circle cx="40.831273572717194" cy="135.3800741442305" r="5.099378843433634" fill="#FFFFFF" fill-opacity="0.95" stroke="#FAF0E6" stroke-width="1.5" />
<circle cx="110.10021473305636" cy="181.54597559575706" r="8.243263571074486" fill="#FFFFFF" fill-opacity="0.95" stroke="#FAF0E6" stroke-width="1.5" />
<circle cx="72.09260090201411" cy="147.43434269629932" r="8.975729477685356" fill="#FFFFFF" fill-opacity="0.95" stroke="#FAF0E6" stroke-width="1.5" />
<circle cx="118.21172658042893" cy="94.19470161333099" r="6.3271049143927485" fill="#FFFFFF" fill-opacity="0.95" stroke="#FAF0E6" stroke-width="1.5" />
<circle cx="87.09114788167834" cy="123.33094025360747" r="11.623393994121727" fill="#FFFFFF" fill-opacity="0.95" stroke="#FAF0E6" stroke-width="1.5" />
<circle cx="57.08653447345907" cy="167.2374152141124" r="10.61253661428648" fill="#FFFFFF" fill-opacity="0.95" stroke="#FAF0E6" stroke-width="1.5" />
<circle cx="138.2660194857887" cy="145.11120163266793" r="8.72946910253996" fill="#FFFFFF" fill-opacity="0.95" stroke="#FAF0E6" stroke-width="1.5" />
<circle cx="166.05607249833517" cy="132.71579338429999" r="11.19650642185296" fill="#FFFFFF" fill-opacity="0.95" stroke="#FAF0E6" stroke-width="1.5" />
<circle cx="107.91309126729257" cy="115.79834714698363" r="6.179507164289292" fill="#FFFFFF" fill-opacity="0.95" stroke="#FAF0E6" stroke-width="1.5" />
<circle cx="50.51685814662097" cy="143.44522886720173" r="10.767848288603204" fill="#FFFFFF" fill-opacity="0.95" stroke="#FAF0E6" stroke-width="1.5" />
<circle cx="157.0813755118771" cy="145.6936377584919" r="7.461196994870578" fill="#FFFFFF" fill-opacity="0.95" stroke="#FAF0E6" stroke-width="1.5" />
<circle cx="111.03850362878465" cy="119.80208658345092" r="7.340544259032466" fill="#FFFFFF" fill-opacity="0.95" stroke="#FAF0E6" stroke-width="1.5" />
<circle cx="63.899816464302056" cy="79.35509171505535" r="10.03832861104924" fill="#FFFFFF" fill-opacity="0.95" stroke="#FAF0E6" stroke-width="1.5" />
<circle cx="163.82573266167685" cy="148.2109069662971" r="8.172920891337956" fill="#FFFFFF" fill-opacity="0.95" stroke="#FAF0E6" stroke-width="1.5" />
</g>
<path d="M105.0,105.0 L105.0,205.0 A100,100,0,0,1,5.0,105.00000000000001 Z" fill="#FEF7E3" stroke="lightgray" stroke-width="2" />
<use xlink:href="#clip-4524472048-4535001040" />
<g clip-path="url(#clip-4524472048-4535001040)">
<circle cx="105.0" cy="105.0" r="92" stroke="#DAA05D" stroke-width="16" fill="none" />
<circle cx="105.0" cy="105.0" r="98" stroke="#C37B32" stroke-width="5" fill="none" />
<circle cx="153.05674394217226" cy="83.22788869843643" r="5.5089566851796885" fill="#FFFFFF" fill-opacity="0.5790791318479573" />
<circle cx="114.37258703969589" cy="22.082986526317782" r="5.69052730899209" fill="#D2691E" fill-opacity="0.3386590582607865" />
<circle cx="124.16435586101437" cy="156.83608703770895" r="2.809410534561828" fill="#FFFFFF" fill-opacity="0.35889725557007257" />
<circle cx="177.57288773566785" cy="148.17667818879664" r="4.607592547610259" fill="#FFFFFF" fill-opacity="0.5470054064716103" />
<circle cx="78.57270159261185" cy="94.56307303193458" r="4.480657848458527" fill="#FFDE75" fill-opacity="0.48075696918280164" />
<circle cx="41.480351343683026" cy="76.25315234789626" r="2.4468763403061766" fill="#D2691E" fill-opacity="0.3346415048995187" />
<circle cx="136.20087398694378" cy="94.01609230654468" r="3.88455469612687" fill="#FFDE75" fill-opacity="0.45021359130099514" />
<circle cx="70.37066058607454" cy="148.12068116691705" r="5.432729343308821" fill="#8B4513" fill-opacity="0.4672991690541528" />
<circle cx="82.92625852386013" cy="41.99503846262939" r="4.52452769753173" fill="#FFDE75" fill-opacity="0.46271745084717614" />
<circle cx="182.66049858700927" cy="87.39396389145963" r="2.466426459364418" fill="#8B4513" fill-opacity="0.5318939629692352" />
<circle cx="70.58996935208835" cy="35.77795470356338" r="3.411819535679063" fill="#D2691E" fill-opacity="0.22088629996868955" />
<circle cx="111.25179747925394" cy="154.65569550915635" r="5.436833806449329" fill="#D2691E" fill-opacity="0.5924570807848619" />
<circle cx="62.46832602342789" cy="90.99354198814488" r="3.602393244260317" fill="#8B4513" fill-opacity="0.2553156665539434" />
<circle cx="125.72525060832879" cy="96.23849445934079" r="3.2272312198189788" fill="#8B4513" fill-opacity="0.40042540851266384" />
<circle cx="38.28680112048713" cy="77.4015131778088" r="5.944046139096184" fill="#FFDE75" fill-opacity="0.25333615592892805" />
<circle cx="99.92957057338293" cy="100.16874689875199" r="4.262409648969708" fill="#8B4513" fill-opacity="0.3803661127200393" />
<circle cx="67.19848294813461" cy="79.56168171366889" r="3.547193864790899" fill="#8B4513" fill-opacity="0.22395531436600946" />
<circle cx="102.46993065889868" cy="160.77713019245067" r="3.7754443535853537" fill="#FFDE75" fill-opacity="0.5930448062128619" />
<circle cx="51.95786557456767" cy="123.07852029836356" r="5.530820723414919" fill="#D2691E" fill-opacity="0.5003086257239393" />
<circle cx="161.3040964130142" cy="113.05267515896047" r="5.627677082195757" fill="#FFDE75" fill-opacity="0.5639173486018618" />
<circle cx="57.26234227939852" cy="148.4518697168355" r="4.757911066681077" fill="#8B4513" fill-opacity="0.5785792023661238" />
<circle cx="138.17571347065797" cy="34.24154115420437" r="3.585544286269288" fill="#8B4513" fill-opacity="0.47974327895745367" />
<circle cx="134.55182658912105" cy="118.47794663149025" r="5.3373485963994876" fill="#D2691E" fill-opacity="0.25939484948895597" />
<circle cx="95.34696216215437" cy="177.1241076668863" r="5.740221790074215" fill="#8B4513" fill-opacity="0.2733461256646853" />
<circle cx="34.75010306453598" cy="112.79211414699823" r="3.906716230946251" fill="#FFDE75" fill-opacity="0.48338877679346326" />
<circle cx="171.24720726571107" cy="136.7270965344646" r="3.885516730019183" fill="#D2691E" fill-opacity="0.4902950256418488" />
<circle cx="145.83180201799868" cy="64.79545105479029" r="4.497300803745851" fill="#FFDE75" fill-opacity="0.4962854292081082" />
<circle cx="189.59086016530233" cy="98.0320177083861" r="3.610548801051092" fill="#D2691E" fill-opacity="0.368239087383051" />
<circle cx="164.6157633419278" cy="69.42520954640517" r="5.90154428830166" fill="#FFFFFF" fill-opacity="0.31777818954730014" />
<circle cx="62.692846961717635" cy="93.62699555187515" r="3.587182159674668" fill="#FFFFFF" fill-opacity="0.4341329972582568" />
<circle cx="182.13624338595437" cy="73.1878353591592" r="2.4545255189370243" fill="#8B4513" fill-opacity="0.43621579006224026" />
<circle cx="53.225488945558425" cy="113.56237089574675" r="4.265023860016258" fill="#D2691E" fill-opacity="0.5323840721495867" />
<circle cx="34.26162714033262" cy="105.06082915099698" r="3.1762558613466494" fill="#FFFFFF" fill-opacity="0.20688852342228814" />
<circle cx="99.29895853242485" cy="85.92529727957927" r="3.5441438105097154" fill="#8B4513" fill-opacity="0.257664783222591" />
<circle cx="112.13782145229014" cy="188.07822715686098" r="4.648323315942066" fill="#8B4513" fill-opacity="0.2151994742904628" />
<circle cx="86.50135114434244" cy="102.96609469015912" r="2.8774711240459974" fill="#FFFFFF" fill-opacity="0.39082481918880174" />
<circle cx="163.7637811609992" cy="101.4482924885451" r="2.6697425835201765" fill="#FFFFFF" fill-opacity="0.26087612860866793" />
<circle cx="116.47337333561502" cy="79.66527412799923" r="3.705075109377624" fill="#FFFFFF" fill-opacity="0.5466573607439265" />
<circle cx="134.19660405623054" cy="32.85272761189562" r="5.057560884904158" fill="#8B4513" fill-opacity="0.44658891090034775" />
<circle cx="60.050871100562425" cy="137.5001352220521" r="3.19107683680418" fill="#D2691E" fill-opacity="0.4160731329884444" />
<circle cx="143.79312659318109" cy="55.95078111320303" r="4.751509387751071" fill="#FFFFFF" fill-opacity="0.5135144578730795" />
<circle cx="130.4244807988947" cy="167.27939482113" r="4.024703436759127" fill="#FFFFFF" fill-opacity="0.5474869409049963" />
<circle cx="124.82273728019852" cy="88.02275989320799" r="4.362215764905011" fill="#FFFFFF" fill-opacity="0.2910270796728929" />
<circle cx="95.38473421414395" cy="104.55606210936008" r="5.885510732858536" fill="#D2691E" fill-opacity="0.32505813342119644" />
<circle cx="151.76408763389395" cy="114.3426158058236" r="3.5975572833790292" fill="#8B4513" fill-opacity="0.5605927881003122" />
<circle cx="118.11478892662754" cy="173.05408964571131" r="10.144594282268327" fill="#FFFFFF" fill-opacity="0.95" stroke="#FAF0E6" stroke-width="1.5" />
<circle cx="152.95818225085927" cy="81.32886259803732" r="7.20879710661273" fill="#FFFFFF" fill-opacity="0.95" stroke="#FAF0E6" stroke-width="1.5" />
<circle cx="68.4323309442625" cy="141.43404595402356" r="10.170201899986475" fill="#FFFFFF" fill-opacity="0.95" stroke="#FAF0E6" stroke-width="1.5" />
<circle cx="37.09093429633282" cy="72.52922548038265" r="10.382603633181809" fill="#FFFFFF" fill-opacity="0.95" stroke="#FAF0E6" stroke-width="1.5" />
<circle cx="40.831273572717194" cy="135.3800741442305" r="5.099378843433634" fill="#FFFFFF" fill-opacity="0.95" stroke="#FAF0E6" stroke-width="1.5" />
<circle cx="110.10021473305636" cy="181.54597559575706" r="8.243263571074486" fill="#FFFFFF" fill-opacity="0.95" stroke="#FAF0E6" stroke-width="1.5" />
<circle cx="72.09260090201411" cy="147.43434269629932" r="8.975729477685356" fill="#FFFFFF" fill-opacity="0.95" stroke="#FAF0E6" stroke-width="1.5" />
<circle cx="118.21172658042893" cy="94.19470161333099" r="6.3271049143927485" fill="#FFFFFF" fill-opacity="0.95" stroke="#FAF0E6" stroke-width="1.5" />
<circle cx="87.09114788167834" cy="123.33094025360747" r="11.623393994121727" fill="#FFFFFF" fill-opacity="0.95" stroke="#FAF0E6" stroke-width="1.5" />
<circle cx="57.08653447345907" cy="167.2374152141124" r="10.61253661428648" fill="#FFFFFF" fill-opacity="0.95" stroke="#FAF0E6" stroke-width="1.5" />
<circle cx="138.2660194857887" cy="145.11120163266793" r="8.72946910253996" fill="#FFFFFF" fill-opacity="0.95" stroke="#FAF0E6" stroke-width="1.5" />
<circle cx="166.05607249833517" cy="132.71579338429999" r="11.19650642185296" fill="#FFFFFF" fill-opacity="0.95" stroke="#FAF0E6" stroke-width="1.5" />
<circle cx="107.91309126729257" cy="115.79834714698363" r="6.179507164289292" fill="#FFFFFF" fill-opacity="0.95" stroke="#FAF0E6" stroke-width="1.5" />
<circle cx="50.51685814662097" cy="143.44522886720173" r="10.767848288603204" fill="#FFFFFF" fill-opacity="0.95" stroke="#FAF0E6" stroke-width="1.5" />
<circle cx="157.0813755118771" cy="145.6936377584919" r="7.461196994870578" fill="#FFFFFF" fill-opacity="0.95" stroke="#FAF0E6" stroke-width="1.5" />
<circle cx="111.03850362878465" cy="119.80208658345092" r="7.340544259032466" fill="#FFFFFF" fill-opacity="0.95" stroke="#FAF0E6" stroke-width="1.5" />
<circle cx="63.899816464302056" cy="79.35509171505535" r="10.03832861104924" fill="#FFFFFF" fill-opacity="0.95" stroke="#FAF0E6" stroke-width="1.5" />
<circle cx="163.82573266167685" cy="148.2109069662971" r="8.172920891337956" fill="#FFFFFF" fill-opacity="0.95" stroke="#FAF0E6" stroke-width="1.5" />
</g>
<rect x="230.0" y="41.0" width="54.0" height="54.0" fill="none" stroke="black" stroke-width="2" />
<rect x="230.0" y="115.0" width="54.0" height="54.0" fill="none" stroke="black" stroke-width="2" />
<path d="M225.0,105.0 L289.0,105.0" stroke="black" stroke-width="2" />
</g>
</svg>