<svg xmlns="http://www.w3.org/2000/svg" xmlns:xlink="http://www.w3.org/1999/xlink" width="500px" height="1485px" version="1.1" overflow="visible" id="y1loxhfo">
   <desc>Engraved by Verovio 6.1.0-682d606</desc>
   <defs>
      <g id="E050-y1loxhfo">
         <path transform="scale(1,-1)" d="M441 -245c-23 -4 -48 -6 -76 -6c-59 0 -102 7 -130 20c-88 42 -150 93 -187 154c-26 44 -43 103 -48 176c0 6 -1 13 -1 19c0 54 15 111 45 170c29 57 65 106 110 148s96 85 153 127c-3 16 -8 46 -13 92c-4 43 -5 73 -5 89c0 117 16 172 69 257c34 54 64 82 89 82 c21 0 43 -30 69 -92s39 -115 41 -159v-15c0 -109 -21 -162 -67 -241c-13 -20 -63 -90 -98 -118c-13 -9 -25 -19 -37 -29l31 -181c8 1 18 2 28 2c58 0 102 -12 133 -35c59 -43 92 -104 98 -184c1 -7 1 -15 1 -22c0 -123 -87 -209 -181 -248c8 -57 17 -110 25 -162 c5 -31 6 -58 6 -80c0 -30 -5 -53 -14 -70c-35 -64 -88 -99 -158 -103c-5 0 -11 -1 -16 -1c-37 0 -72 10 -108 27c-50 24 -77 59 -80 105v11c0 29 7 55 20 76c18 28 45 42 79 44h6c49 0 93 -42 97 -87v-9c0 -51 -34 -86 -105 -106c17 -24 51 -36 102 -36c62 0 116 43 140 85 c9 16 13 41 13 74c0 20 -1 42 -5 67c-8 53 -18 106 -26 159zM461 939c-95 0 -135 -175 -135 -286c0 -24 2 -48 5 -71c50 39 92 82 127 128c40 53 60 100 60 140v8c-4 53 -22 81 -55 81h-2zM406 119l54 -326c73 25 110 78 110 161c0 7 0 15 -1 23c-7 95 -57 142 -151 142h-12 zM382 117c-72 -2 -128 -47 -128 -120v-7c2 -46 43 -99 75 -115c-3 -2 -7 -5 -10 -10c-70 33 -116 88 -123 172v11c0 68 44 126 88 159c23 17 49 29 78 36l-29 170c-21 -13 -52 -37 -92 -73c-50 -44 -86 -84 -109 -119c-45 -69 -67 -130 -67 -182v-13c5 -68 35 -127 93 -176 s125 -73 203 -73c25 0 50 3 75 9c-19 111 -36 221 -54 331z"/>
      </g>
      <g id="E084-y1loxhfo">
         <path transform="scale(1,-1)" d="M20 -78c84 97 114 180 134 329h170c-13 -32 -82 -132 -99 -151l-84 -97c-33 -36 -59 -63 -80 -81h162v102l127 123v-225h57v-39h-57v-34c0 -43 19 -65 57 -65v-34h-244v36c48 0 60 26 60 70v27h-203v39z"/>
      </g>
      <g id="E0A4-y1loxhfo">
         <path transform="scale(1,-1)" d="M0 -39c0 68 73 172 200 172c66 0 114 -37 114 -95c0 -84 -106 -171 -218 -171c-64 0 -96 30 -96 94z"/>
      </g>
   </defs>
   <style type="text/css">#y1loxhfo g.ending, #y1loxhfo g.fing, #y1loxhfo g.reh, #y1loxhfo g.tempo {font-weight:bold;}#y1loxhfo g.dir, #y1loxhfo g.dynam, #y1loxhfo g.mNum {font-style:italic;}#y1loxhfo g.label {font-weight:normal;}#y1loxhfo ellipse, #y1loxhfo path, #y1loxhfo polygon, #y1loxhfo polyline, #y1loxhfo rect {stroke:currentColor}</style>
   <svg class="definition-scale" color="black" font-family="Times, serif" viewBox="0 0 10000 29700">
      <g class="page-margin" transform="translate(500, 500)">
         <g id="z1wcnl1v" class="mdiv pageMilestone"/>
         <g id="d16aqdh0" class="score pageMilestone"/>
         <g id="mennzvr" class="system">
            <g id="q1exh9rm" class="section systemMilestone"/>
            <g id="abcLine08" class="pb"/>
            <g id="x19iyxsc" class="measure">
               <g id="ga5fpl3" class="staff">
                  <path d="M0 1076 L4056 1076" stroke-width="13"/>
                  <path d="M0 1256 L4056 1256" stroke-width="13"/>
                  <path d="M0 1436 L4056 1436" stroke-width="13"/>
                  <path d="M0 1616 L4056 1616" stroke-width="13"/>
                  <path d="M0 1796 L4056 1796" stroke-width="13"/>
                  <g id="u1gotzl0" class="clef">
                     <use xlink:href="#E050-y1loxhfo" transform="translate(90, 1616) scale(0.72, 0.72)"/>
                  </g>
                  <g id="v1ccwtc2" class="keySig"/>
                  <g id="w73fhse" class="meterSig">
                     <use xlink:href="#E084-y1loxhfo" transform="translate(721, 1256) scale(0.72, 0.72)"/>
                     <use xlink:href="#E084-y1loxhfo" transform="translate(721, 1616) scale(0.72, 0.72)"/>
                  </g>
                  <g class="ledgerLines below">
                     <path d="M1235 1976 L1557 1976" stroke-width="22"/>
                  </g>
                  <g id="sq0kwzo" class="layer">
                     <g id="t17rv8bw" class="note">
                        <g class="notehead">
                           <use xlink:href="#E0A4-y1loxhfo" transform="translate(1283, 1976) scale(0.72, 0.72)"/>
                        </g>
                        <g id="i6hktbr" class="stem">
                           <path d="M1500 1948 L1500 1346" stroke-width="18"/>
                        </g>
                     </g>
                     <g id="u1pj4s57" class="note">
                        <g class="notehead">
                           <use xlink:href="#E0A4-y1loxhfo" transform="translate(1973, 1886) scale(0.72, 0.72)"/>
                        </g>
                        <g id="j1ag8r5r" class="stem">
                           <path d="M2190 1858 L2190 1256" stroke-width="18"/>
                        </g>
                     </g>
                     <g id="v1ddi83o" class="note">
                        <g class="notehead">
                           <use xlink:href="#E0A4-y1loxhfo" transform="translate(2663, 1796) scale(0.72, 0.72)"/>
                        </g>
                        <g id="kafzn4l" class="stem">
                           <path d="M2880 1768 L2880 1166" stroke-width="18"/>
                        </g>
                     </g>
                     <g id="wryvwxx" class="note">
                        <g class="notehead">
                           <use xlink:href="#E0A4-y1loxhfo" transform="translate(3353, 1706) scale(0.72, 0.72)"/>
                        </g>
                        <g id="lnznvga" class="stem">
                           <path d="M3570 1678 L3570 1076" stroke-width="18"/>
                        </g>
                     </g>
                  </g>
               </g>
               <g id="f8ihvy7" class="barLine">
                  <path d="M4043 1076 L4043 1796" stroke-width="27"/>
               </g>
            </g>
            <g id="mkohwbe" class="measure">
               <g id="v1d3joty" class="staff">
                  <path d="M4056 1076 L7171 1076" stroke-width="13"/>
                  <path d="M4056 1256 L7171 1256" stroke-width="13"/>
                  <path d="M4056 1436 L7171 1436" stroke-width="13"/>
                  <path d="M4056 1616 L7171 1616" stroke-width="13"/>
                  <path d="M4056 1796 L7171 1796" stroke-width="13"/>
                  <g id="h1nd78qw" class="layer">
                     <g id="ig35ndu" class="note">
                        <g class="notehead">
                           <use xlink:href="#E0A4-y1loxhfo" transform="translate(4236, 1616) scale(0.72, 0.72)"/>
                        </g>
                        <g id="m1snysw1" class="stem">
                           <path d="M4453 1588 L4453 986" stroke-width="18"/>
                        </g>
                     </g>
                     <g id="j1infvtq" class="note">
                        <g class="notehead">
                           <use xlink:href="#E0A4-y1loxhfo" transform="translate(4926, 1526) scale(0.72, 0.72)"/>
                        </g>
                        <g id="nelmyp9" class="stem">
                           <path d="M5143 1498 L5143 896" stroke-width="18"/>
                        </g>
                     </g>
                     <g id="k1mwsa07" class="note">
                        <g class="notehead">
                           <use xlink:href="#E0A4-y1loxhfo" transform="translate(5616, 1436) scale(0.72, 0.72)"/>
                        </g>
                        <g id="o11uk3e4" class="stem">
                           <path d="M5625 1464 L5625 2036" stroke-width="18"/>
                        </g>
                     </g>
                     <g id="l1kzvh9q" class="note">
                        <g class="notehead">
                           <use xlink:href="#E0A4-y1loxhfo" transform="translate(6306, 1346) scale(0.72, 0.72)"/>
                        </g>
                        <g id="p200mns" class="stem">
                           <path d="M6315 1374 L6315 1976" stroke-width="18"/>
                        </g>
                     </g>
                  </g>
               </g>
               <g id="ugdbuvk" class="barLine">
                  <path d="M6996 1076 L6996 1796" stroke-width="27"/>
                  <path d="M7126 1076 L7126 1796" stroke-width="90"/>
               </g>
            </g>
            <g id="abcLine09" class="sb"/>
            <g id="faa1mlk" class="systemMilestoneEnd q1exh9rm"/>
         </g>
         <g id="g1bpydjm" class="pageMilestoneEnd d16aqdh0"/>
         <g id="h1o3i0mi" class="pageMilestoneEnd z1wcnl1v"/>
         <g id="n14xirp7" class="pgHead">
            <text font-size="0px">
               <tspan id="or5n11w" class="rend" x="4500" y="268" text-anchor="middle">
                  <tspan id="pl9g07b" class="text">
                     <tspan font-size="405px"/>
                  </tspan>
               </tspan>
            </text>
         </g>
      </g>
   </svg>
</svg>