<svg width="678.0" height="210.0" xmlns="http://www.w3.org/2000/svg" xmlns:xlink="http://www.w3.org/1999/xlink">
<svg x="0.0" y="0.0" width="284.0" height="210.0" viewBox="0 0 284.0 210" xmlns="http://www.w3.org/2000/svg" xmlns:xlink="http://www.w3.org/1999/xlink">
<defs>
<clipPath id="clip-4535357792-4535704656">
<path d="M105.0,105.0 L105.0,5.0 A100,100,0,0,1,191.60254037844388,155.0 Z" fill="none" />
</clipPath>
</defs>
<g>
<path d="M105.0,105.0 L105.0,5.0 A100,100,0,0,1,191.60254037844388,155.0 Z" fill="none" stroke="lightgray" stroke-width="2" />
<path d="M105.0,105.0 L191.60254037844388,155.0 A100,100,0,0,1,18.397459621556123,155.0 Z" fill="none" stroke="lightgray" stroke-width="2" />
<path d="M105.0,105.0 L18.397459621556123,155.0 A100,100,0,0,1,104.99999999999999,5.0 Z" fill="none" stroke="lightgray" stroke-width="2" />
<path d="M105.0,105.0 L105.0,5.0 A100,100,0,0,1,191.60254037844388,155.0 Z" fill="#F5C754" stroke="lightgray" stroke-width="2" />
<use xlink:href="#clip-4535357792-4535704656" />
<g clip-path="url(#clip-4535357792-4535704656)">
<circle cx="105.0" cy="105.0" r="92" stroke="#DAA05D" stroke-width="16" fill="none" />
<circle cx="105.0" cy="105.0" r="98" stroke="#C37B32" stroke-width="5" fill="none" />
<circle cx="70.93837600524708" cy="168.2638350928311" r="2.180265403653587" fill="#FFFFFF" fill-opacity="0.35513885729541866" />
<circle cx="48.00992901566362" cy="138.0326528935551" r="5.58295275489048" fill="#FFDE75" fill-opacity="0.29021148655874873" />
<circle cx="187.41396443072506" cy="86.46707781793002" r="3.3392669949797193" fill="#FFDE75" fill-opacity="0.5397600170241073" />
<circle cx="179.02322374334813" cy="110.47430735606376" r="3.190942532485254" fill="#D2691E" fill-opacity="0.48247056055065013" />
<circle cx="173.02765322468412" cy="137.37512742966913" r="5.862775001204595" fill="#8B4513" fill-opacity="0.4002829792802422" />
<circle cx="141.8510939291417" cy="65.54653907888257" r="2.5159618753236153" fill="#FFDE75" fill-opacity="0.43929017892596567" />
<circle cx="171.94340572380162" cy="156.14483360991207" r="5.6697791710079315" fill="#FFDE75" fill-opacity="0.5846524991614412" />
<circle cx="168.65453014345525" cy="51.155432350741336" r="2.805798172435963" fill="#D2691E" fill-opacity="0.27975031770509556" />
<circle cx="70.51653644595073" cy="40.53797297963622" r="2.2073779135627745" fill="#FFDE75" fill-opacity="0.42926193733916634" />
<circle cx="128.59747739240615" cy="48.74438721327334" r="4.099369759080517" fill="#8B4513" fill-opacity="0.5710347843416987" />
<circle cx="134.23949733506367" cy="122.059564192026" r="5.603211303880329" fill="#FFDE75" fill-opacity="0.3934816034246173" />
<circle cx="103.47127810380452" cy="165.66902942434723" r="2.411291651788255" fill="#FFDE75" fill-opacity="0.2765326158003901" />
<circle cx="104.21618437044346" cy="119.04908671811337" r="4.690478875381839" fill="#FFDE75" fill-opacity="0.5763604680512734" />
<circle cx="144.90817933033355" cy="154.53494908398963" r="3.9611497953710764" fill="#FFDE75" fill-opacity="0.4806712844104758" />
<circle cx="78.28903246069675" cy="145.53876312497331" r="4.14075760206828" fill="#D2691E" fill-opacity="0.281838314485129" />
<ellipse cx="47.25618994518511" cy="62.42156412011415" rx="8.90130138458248" ry="6.233351794332535" fill="#FFFDF0" fill-opacity="0.6" />
<ellipse cx="48.06470867960463" cy="61.60006645241702" rx="4.675096427606808" ry="3.8181655713388594" fill="#FFFFFF" fill-opacity="0.85" />
<ellipse cx="177.593215155288" cy="77.78935027270425" rx="6.224822513097697" ry="4.566083080425704" fill="#FFFDF0" fill-opacity="0.6" />
<ellipse cx="177.93495581150904" cy="78.66774222258026" rx="3.3639376018031193" ry="3.829370090003513" fill="#FFFFFF" fill-opacity="0.85" />
<ellipse cx="102.44009585089887" cy="100.94485174958814" rx="8.94716326918827" ry="8.945942760830398" fill="#FFFDF0" fill-opacity="0.6" />
<ellipse cx="102.37420872880858" cy="101.13305380190133" rx="3.6339166386054482" ry="2.2838827651968145" fill="#FFFFFF" fill-opacity="0.85" />
</g>
<rect x="230.0" y="41.0" width="54.0" height="54.0" fill="none" stroke="black" stroke-width="2" />
<rect x="230.0" y="115.0" width="54.0" height="54.0" fill="none" stroke="black" stroke-width="2" />
<path d="M225.0,105.0 L289.0,105.0" stroke="black" stroke-width="2" />
<text x="257.0" y="68.0" font-size="36" font-family="Comic Sans MS, Comic Sans, cursive" dominant-baseline="middle" fill="black" text-anchor="middle">1</text>
<text x="257.0" y="142.0" font-size="36" font-family="Comic Sans MS, Comic Sans, cursive" dominant-baseline="middle" fill="black" text-anchor="middle">3</text>
</g>
</svg>
<rect x="299.0" y="65.0" width="80" height="80" fill="none" stroke="black" stroke-width="1.5"/>
<svg x="394.0" y="0.0" width="284.0" height="210.0" viewBox="0 0 284.0 210" xmlns="http://www.w3.org/2000/svg" xmlns:xlink="http://www.w3.org/1999/xlink">
<defs>
<clipPath id="clip-4524453520-4535704528">
<path d="M105.0,105.0 L105.0,5.0 A100,100,0,0,1,191.60254037844388,155.0 Z" fill="none" />
</clipPath>
<clipPath id="clip-4524453520-4535699920">
<path d="M105.0,105.0 L191.60254037844388,155.0 A100,100,0,0,1,18.397459621556123,155.0 Z" fill="none" />
</clipPath>
</defs>
<g>
<path d="M105.0,105.0 L105.0,5.0 A100,100,0,0,1,191.60254037844388,155.0 Z" fill="none" stroke="lightgray" stroke-width="2" />
<path d="M105.0,105.0 L191.60254037844388,155.0 A100,100,0,0,1,18.397459621556123,155.0 Z" fill="none" stroke="lightgray" stroke-width="2" />
<path d="M105.0,105.0 L18.397459621556123,155.0 A100,100,0,0,1,104.99999999999999,5.0 Z" fill="none" stroke="lightgray" stroke-width="2" />
<path d="M105.0,105.0 L105.0,5.0 A100,100,0,0,1,191.60254037844388,155.0 Z" fill="#F5C754" stroke="lightgray" stroke-width="2" />
<use xlink:href="#clip-4524453520-4535704528" />
<g clip-path="url(#clip-4524453520-4535704528)">
<circle cx="105.0" cy="105.0" r="92" stroke="#DAA05D" stroke-width="16" fill="none" />
<circle cx="105.0" cy="105.0" r="98" stroke="#C37B32" stroke-width="5" fill="none" />
<circle cx="141.23676851114863" cy="124.76859972893035" r="5.966909519186754" fill="#D2691E" fill-opacity="0.4741346728587509" />
<circle cx="119.51053849622542" cy="164.54287991846255" r="5.37426000012726" fill="#FFFFFF" fill-opacity="0.28883650856805293" />
<circle cx="35.94201548967638" cy="154.22680212262296" r="5.143747910149534" fill="#FFDE75" fill-opacity="0.3643210995045487" />
<circle cx="119.1546998425736" cy="123.82822815717316" r="3.4832027937597365" fill="#FFFFFF" fill-opacity="0.4524323762630907" />
<circle cx="93.54430031457616" cy="118.81771770599667" r="3.8282025686993144" fill="#8B4513" fill-opacity="0.5253704079847477" />
<circle cx="57.49462441554844" cy="141.81427549542641" r="2.907546378214613" fill="#D2691E" fill-opacity="0.5123635221200555" />
<circle cx="53.36718684769681" cy="117.50627605928041" r="3.268596045498265" fill="#FFDE75" fill-opacity="0.36475800855766394" />
<circle cx="142.2605109168025" cy="116.30742593658547" r="3.2877424864171476" fill="#FFFFFF" fill-opacity="0.29348945157510065" />
<circle cx="108.15478877373914" cy="117.93674847309708" r="4.756728934374948" fill="#D2691E" fill-opacity="0.5951446819949722" />
<circle cx="50.68097684902196" cy="170.36467031115856" r="3.4601412251418715" fill="#8B4513" fill-opacity="0.32432807975278766" />
<circle cx="106.05667607338845" cy="118.38704075440141" r="2.575763082725026" fill="#D2691E" fill-opacity="0.4957796538578755" />
<circle cx="44.865730476035644" cy="127.14348219875433" r="2.1986386169641894" fill="#D2691E" fill-opacity="0.21730237970063496" />
<circle cx="99.87280679446913" cy="167.9931432451449" r="2.087946679219846" fill="#FFFFFF" fill-opacity="0.3438931765154658" />
<circle cx="118.0943431200339" cy="34.20721010070706" r="3.075479666180947" fill="#FFFFFF" fill-opacity="0.20562637395019934" />
<circle cx="67.15916513733754" cy="146.96993572200395" r="5.412231759044399" fill="#FFFFFF" fill-opacity="0.22901288167413478" />
<circle cx="152.5554664977476" cy="36.64487979947259" r="3.349651072155929" fill="#8B4513" fill-opacity="0.28049914262022513" />
<circle cx="168.73950403918607" cy="119.71688742403981" r="5.860344949706937" fill="#8B4513" fill-opacity="0.40572235014382696" />
<circle cx="76.9050296514323" cy="117.85811220693878" r="4.831091458716864" fill="#8B4513" fill-opacity="0.21392611725674052" />
<circle cx="122.59424707622759" cy="84.46152308870987" r="5.841250995324247" fill="#8B4513" fill-opacity="0.2554628842213337" />
<circle cx="50.14456632715305" cy="143.54326438073787" r="4.301473410243371" fill="#8B4513" fill-opacity="0.20577937665554474" />
<circle cx="58.415300565369236" cy="146.56307151990404" r="3.4979247609589454" fill="#8B4513" fill-opacity="0.467028436566469" />
<circle cx="74.05844906635485" cy="108.53929855522618" r="5.045027410128235" fill="#D2691E" fill-opacity="0.4439768307733729" />
<circle cx="63.78508547171065" cy="37.39756073094013" r="5.41747109119877" fill="#D2691E" fill-opacity="0.547122246688684" />
<circle cx="79.0505475120816" cy="158.78906410746106" r="2.322541890493891" fill="#D2691E" fill-opacity="0.2692011704912489" />
<circle cx="119.38840251507432" cy="40.16453915508974" r="2.453434231665299" fill="#D2691E" fill-opacity="0.5308398419322962" />
<circle cx="76.12602582994819" cy="154.3397240179371" r="4.468718608679564" fill="#FFFFFF" fill-opacity="0.5445689806574907" />
<circle cx="158.58094438208744" cy="163.6554551115823" r="4.578945731730485" fill="#FFDE75" fill-opacity="0.5089521321626789" />
<circle cx="126.96169275979068" cy="83.52233387028727" r="5.063316467240179" fill="#FFDE75" fill-opacity="0.3193098862179605" />
<circle cx="35.45081550407413" cy="106.94177816943414" r="5.283984779378246" fill="#FFDE75" fill-opacity="0.5935971580852382" />
<circle cx="79.00865616286609" cy="98.52118319460689" r="5.059522742039425" fill="#D2691E" fill-opacity="0.42983939671677895" />
<ellipse cx="118.30665140617819" cy="182.92481790753482" rx="5.116208592300674" ry="7.861287958242716" fill="#FFFDF0" fill-opacity="0.6" />
<ellipse cx="117.95767288196116" cy="182.11031360984714" rx="2.904941342793388" ry="3.578416017307436" fill="#FFFFFF" fill-opacity="0.85" />
<ellipse cx="108.66122839956296" cy="30.326352137905744" rx="5.972998168728735" ry="7.2802039387642985" fill="#FFFDF0" fill-opacity="0.6" />
<ellipse cx="108.11625402783343" cy="30.075391527127678" rx="3.6898032079338785" ry="2.777970981070246" fill="#FFFFFF" fill-opacity="0.85" />
<ellipse cx="93.07996793011651" cy="144.36436280099613" rx="9.18297312242751" ry="4.354381447469734" fill="#FFFDF0" fill-opacity="0.6" />
<ellipse cx="93.77453745336899" cy="143.60671017092204" rx="2.1564731797568375" ry="2.130853866413407" fill="#FFFFFF" fill-opacity="0.85" />
<ellipse cx="174.89244013167462" cy="90.84602658906022" rx="5.041275870866597" ry="4.290708885552857" fill="#FFFDF0" fill-opacity="0.6" />
<ellipse cx="174.37491913110716" cy="91.14337257269655" rx="3.095587115099406" ry="3.759821204300005" fill="#FFFFFF" fill-opacity="0.85" />
<ellipse cx="141.0062901072581" cy="115.30225332236591" rx="5.466860504273353" ry="4.576036939076287" fill="#FFFDF0" fill-opacity="0.6" />
<ellipse cx="141.61521050786135" cy="115.39707690385941" rx="4.2872909031835" ry="3.332761129540132" fill="#FFFFFF" fill-opacity="0.85" />
<ellipse cx="82.41100727069883" cy="106.86785131359233" rx="7.699834238254013" ry="7.958336272928352" fill="#FFFDF0" fill-opacity="0.6" />
<ellipse cx="83.23027904702823" cy="107.05765224996782" rx="3.847972384203441" ry="3.5580135497405614" fill="#FFFFFF" fill-opacity="0.85" />
</g>
<path d="M105.0,105.0 L191.60254037844388,155.0 A100,100,0,0,1,18.397459621556123,155.0 Z" fill="#F5C754" stroke="lightgray" stroke-width="2" />
<use xlink:href="#clip-4524453520-4535699920" />
<g clip-path="url(#clip-4524453520-4535699920)">
<circle cx="105.0" cy="105.0" r="92" stroke="#DAA05D" stroke-width="16" fill="none" />
<circle cx="105.0" cy="105.0" r="98" stroke="#C37B32" stroke-width="5" fill="none" />
<circle cx="141.23676851114863" cy="124.76859972893035" r="5.966909519186754" fill="#D2691E" fill-opacity="0.4741346728587509" />
<circle cx="119.51053849622542" cy="164.54287991846255" r="5.37426000012726" fill="#FFFFFF" fill-opacity="0.28883650856805293" />
<circle cx="35.94201548967638" cy="154.22680212262296" r="5.143747910149534" fill="#FFDE75" fill-opacity="0.3643210995045487" />
<circle cx="119.1546998425736" cy="123.82822815717316" r="3.4832027937597365" fill="#FFFFFF" fill-opacity="0.4524323762630907" />
<circle cx="93.54430031457616" cy="118.81771770599667" r="3.8282025686993144" fill="#8B4513" fill-opacity="0.5253704079847477" />
<circle cx="57.49462441554844" cy="141.81427549542641" r="2.907546378214613" fill="#D2691E" fill-opacity="0.5123635221200555" />
<circle cx="53.36718684769681" cy="117.50627605928041" r="3.268596045498265" fill="#FFDE75" fill-opacity="0.36475800855766394" />
<circle cx="142.2605109168025" cy="116.30742593658547" r="3.2877424864171476" fill="#FFFFFF" fill-opacity="0.29348945157510065" />
<circle cx="108.15478877373914" cy="117.93674847309708" r="4.756728934374948" fill="#D2691E" fill-opacity="0.5951446819949722" />
<circle cx="50.68097684902196" cy="170.36467031115856" r="3.4601412251418715" fill="#8B4513" fill-opacity="0.32432807975278766" />
<circle cx="106.05667607338845" cy="118.38704075440141" r="2.575763082725026" fill="#D2691E" fill-opacity="0.4957796538578755" />
<circle cx="44.865730476035644" cy="127.14348219875433" r="2.1986386169641894" fill="#D2691E" fill-opacity="0.21730237970063496" />
<circle cx="99.87280679446913" cy="167.9931432451449" r="2.087946679219846" fill="#FFFFFF" fill-opacity="0.3438931765154658" />
<circle cx="118.0943431200339" cy="34.20721010070706" r="3.075479666180947" fill="#FFFFFF" fill-opacity="0.20562637395019934" />
<circle cx="67.15916513733754" cy="146.96993572200395" r="5.412231759044399" fill="#FFFFFF" fill-opacity="0.22901288167413478" />
<circle cx="152.5554664977476" cy="36.64487979947259" r="3.349651072155929" fill="#8B4513" fill-opacity="0.28049914262022513" />
<circle cx="168.73950403918607" cy="119.71688742403981" r="5.860344949706937" fill="#8B4513" fill-opacity="0.40572235014382696" />
<circle cx="76.9050296514323" cy="117.85811220693878" r="4.831091458716864" fill="#8B4513" fill-opacity="0.21392611725674052" />
<circle cx="122.59424707622759" cy="84.46152308870987" r="5.841250995324247" fill="#8B4513" fill-opacity="0.2554628842213337" />
<circle cx="50.14456632715305" cy="143.54326438073787" r="4.301473410243371" fill="#8B4513" fill-opacity="0.20577937665554474" />
<circle cx="58.415300565369236" cy="146.56307151990404" r="3.4979247609589454" fill="#8B4513" fill-opacity="0.467028436566469" />
<circle cx="74.05844906635485" cy="108.53929855522618" r="5.045027410128235" fill="#D2691E" fill-opacity="0.4439768307733729" />
<circle cx="63.78508547171065" cy="37.39756073094013" r="5.41747109119877" fill="#D2691E" fill-opacity="0.547122246688684" />
<circle cx="79.0505475120816" cy="158.78906410746106" r="2.322541890493891" fill="#D2691E" fill-opacity="0.2692011704912489" />
<circle cx="119.38840251507432" cy="40.16453915508974" r="2.453434231665299" fill="#D2691E" fill-opacity="0.5308398419322962" />
<circle cx="76.12602582994819" cy="154.3397240179371" r="4.468718608679564" fill="#FFFFFF" fill-opacity="0.5445689806574907" />
<circle cx="158.58094438208744" cy="163.6554551115823" r="4.578945731730485" fill="#FFDE75" fill-opacity="0.5089521321626789" />
<circle cx="126.96169275979068" cy="83.52233387028727" r="5.063316467240179" fill="#FFDE75" fill-opacity="0.3193098862179605" />
<circle cx="35.45081550407413" cy="106.94177816943414" r="5.283984779378246" fill="#FFDE75" fill-opacity="0.5935971580852382" />
<circle cx="79.00865616286609" cy="98.52118319460689" r="5.059522742039425" fill="#D2691E" fill-opacity="0.42983939671677895" />
<ellipse cx="118.30665140617819" cy="182.92481790753482" rx="5.116208592300674" ry="7.861287958242716" fill="#FFFDF0" fill-opacity="0.6" />
<ellipse cx="117.95767288196116" cy="182.11031360984714" rx="2.904941342793388" ry="3.578416017307436" fill="#FFFFFF" fill-opacity="0.85" />
<ellipse cx="108.66122839956296" cy="30.326352137905744" rx="5.972998168728735" ry="7.2802039387642985" fill="#FFFDF0" fill-opacity="0.6" />
<ellipse cx="108.11625402783343" cy="30.075391527127678" rx="3.6898032079338785" ry="2.777970981070246" fill="#FFFFFF" fill-opacity="0.85" />
<ellipse cx="93.07996793011651" cy="144.36436280099613" rx="9.18297312242751" ry="4.354381447469734" fill="#FFFDF0" fill-opacity="0.6" />
<ellipse cx="93.77453745336899" cy="143.60671017092204" rx="2.1564731797568375" ry="2.130853866413407" fill="#FFFFFF" fill-opacity="0.85" />
<ellipse cx="174.89244013167462" cy="90.84602658906022" rx="5.041275870866597" ry="4.290708885552857" fill="#FFFDF0" fill-opacity="0.6" />
<ellipse cx="174.37491913110716" cy="91.14337257269655" rx="3.095587115099406" ry="3.759821204300005" fill="#FFFFFF" fill-opacity="0.85" />
<ellipse cx="141.0062901072581" cy="115.30225332236591" rx="5.466860504273353" ry="4.576036939076287" fill="#FFFDF0" fill-opacity="0.6" />
<ellipse cx="141.61521050786135" cy="115.39707690385941" rx="4.2872909031835" ry="3.332761129540132" fill="#FFFFFF" fill-opacity="0.85" />
<ellipse cx="82.41100727069883" cy="106.86785131359233" rx="7.699834238254013" ry="7.958336272928352" fill="#FFFDF0" fill-opacity="0.6" />
<ellipse cx="83.23027904702823" cy="107.05765224996782" rx="3.847972384203441" ry="3.5580135497405614" fill="#FFFFFF" fill-opacity="0.85" />
</g>
<rect x="230.0" y="41.0" width="54.0" height="54.0" fill="none" stroke="black" stroke-width="2" />
<rect x="230.0" y="115.0" width="54.0" height="54.0" fill="none" stroke="black" stroke-width="2" />
<path d="M225.0,105.0 L289.0,105.0" stroke="black" stroke-width="2" />
<text x="257.0" y="68.0" font-size="36" font-family="Comic Sans MS, Comic Sans, cursive" dominant-baseline="middle" fill="black" text-anchor="middle">2</text>
<text x="257.0" y="142.0" font-size="36" font-family="Comic Sans MS, Comic Sans, cursive" dominant-baseline="middle" fill="black" text-anchor="middle">3</text>
</g>
</svg>
</svg>