<?xml version="1.0" encoding="UTF-8"?>
<svg xmlns="http://www.w3.org/2000/svg" xmlns:xlink="http://www.w3.org/1999/xlink"
     width="284.0" height="210" viewBox="0 0 284.0 210">
<defs>
<clipPath id="clip-4524472352-4535615952">
<path d="M105.0,105.0 L105.0,5.0 A100,100,0,0,1,175.71067811865476,34.28932188134526 Z" fill="none" />
</clipPath>
<clipPath id="clip-4524472352-4535628368">
<path d="M105.0,105.0 L175.71067811865476,34.28932188134526 A100,100,0,0,1,205.0,105.0 Z" fill="none" />
</clipPath>
<clipPath id="clip-4524472352-4535001680">
<path d="M105.0,105.0 L205.0,105.0 A100,100,0,0,1,175.71067811865476,175.71067811865476 Z" fill="none" />
</clipPath>
<clipPath id="clip-4524472352-4535514960">
<path d="M105.0,105.0 L175.71067811865476,175.71067811865476 A100,100,0,0,1,105.0,205.0 Z" fill="none" />
</clipPath>
</defs>
<g>
<path d="M105.0,105.0 L105.0,5.0 A100,100,0,0,1,175.71067811865476,34.28932188134526 Z" fill="none" stroke="lightgray" stroke-width="2" />
<path d="M105.0,105.0 L175.71067811865476,34.28932188134526 A100,100,0,0,1,205.0,105.0 Z" fill="none" stroke="lightgray" stroke-width="2" />
<path d="M105.0,105.0 L205.0,105.0 A100,100,0,0,1,175.71067811865476,175.71067811865476 Z" fill="none" stroke="lightgray" stroke-width="2" />
<path d="M105.0,105.0 L175.71067811865476,175.71067811865476 A100,100,0,0,1,105.0,205.0 Z" fill="none" stroke="lightgray" stroke-width="2" />
<path d="M105.0,105.0 L105.0,205.0 A100,100,0,0,1,34.28932188134526,175.71067811865476 Z" fill="none" stroke="lightgray" stroke-width="2" />
<path d="M105.0,105.0 L34.28932188134526,175.71067811865476 A100,100,0,0,1,5.0,105.00000000000001 Z" fill="none" stroke="lightgray" stroke-width="2" />
<path d="M105.0,105.0 L5.0,105.00000000000001 A100,100,0,0,1,34.28932188134523,34.28932188134526 Z" fill="none" stroke="lightgray" stroke-width="2" />
<path d="M105.0,105.0 L34.28932188134523,34.28932188134526 A100,100,0,0,1,104.99999999999999,5.0 Z" fill="none" stroke="lightgray" stroke-width="2" />
<path d="M105.0,105.0 L105.0,5.0 A100,100,0,0,1,175.71067811865476,34.28932188134526 Z" fill="#FEF7E3" stroke="lightgray" stroke-width="2" />
<use xlink:href="#clip-4524472352-4535615952" />
<g clip-path="url(#clip-4524472352-4535615952)">
<circle cx="105.0" cy="105.0" r="92" stroke="#DAA05D" stroke-width="16" fill="none" />
<circle cx="105.0" cy="105.0" r="98" stroke="#C37B32" stroke-width="5" fill="none" />
<circle cx="29.872911012448427" cy="82.46840538098546" r="3.6277834045481314" fill="#D2691E" fill-opacity="0.28699482158066864" />
<circle cx="69.68128981296746" cy="102.28646780957538" r="2.7668529038062752" fill="#FFDE75" fill-opacity="0.26211650311293044" />
<circle cx="83.10847730403006" cy="77.00427604194827" r="4.2804528232717995" fill="#FFDE75" fill-opacity="0.352758762887557" />
<circle cx="32.5998932587716" cy="75.44383856055524" r="3.7309822124815146" fill="#8B4513" fill-opacity="0.33900730347261815" />
<circle cx="91.20427387862917" cy="28.974507928847927" r="4.597164124636926" fill="#FFFFFF" fill-opacity="0.4637883675649254" />
<circle cx="128.56759211841586" cy="117.26527585343501" r="2.2517360490231266" fill="#D2691E" fill-opacity="0.2867443933122005" />
<circle cx="152.16115485686808" cy="137.7263347459999" r="3.213477912883796" fill="#8B4513" fill-opacity="0.4825927876893586" />
<circle cx="145.24206540721028" cy="56.91720408845577" r="2.2696611551953794" fill="#8B4513" fill-opacity="0.4052288695754781" />
<circle cx="143.13193359436167" cy="78.27390754529111" r="4.883258153365387" fill="#FFDE75" fill-opacity="0.469385256684255" />
<circle cx="133.2034364041266" cy="69.59080302415981" r="4.739873877980506" fill="#D2691E" fill-opacity="0.5200243711176704" />
<circle cx="121.39812435229994" cy="115.40440628743087" r="4.782793155552893" fill="#D2691E" fill-opacity="0.22985908551880066" />
<circle cx="50.12091565542776" cy="56.17446495542236" r="3.313467040290049" fill="#D2691E" fill-opacity="0.24843652858601822" />
<circle cx="114.5500232927169" cy="171.71851969274005" r="5.239884218409088" fill="#FFFFFF" fill-opacity="0.4117814942032546" />
<circle cx="77.46406413648167" cy="93.47982984984645" r="4.296185256767567" fill="#D2691E" fill-opacity="0.44295929006126683" />
<circle cx="188.25887127038294" cy="102.1556173138278" r="2.315481159629326" fill="#FFFFFF" fill-opacity="0.43635713027377754" />
<circle cx="50.108148636562944" cy="163.51652807059537" r="4.872548996704639" fill="#FFFFFF" fill-opacity="0.5189841700638131" />
<circle cx="140.53907266403502" cy="40.14413231980326" r="2.296957861862846" fill="#FFDE75" fill-opacity="0.42525901530696264" />
<circle cx="64.03318837382395" cy="80.14279842072045" r="2.028950484568917" fill="#8B4513" fill-opacity="0.32595335557712796" />
<circle cx="70.31093031740467" cy="53.24491234411246" r="3.994730747508953" fill="#FFFFFF" fill-opacity="0.4728238817183465" />
<circle cx="140.2403316714046" cy="175.1940263977988" r="2.7325151635114144" fill="#8B4513" fill-opacity="0.23629241729650352" />
<circle cx="34.93060188285814" cy="148.61525868990583" r="3.65659904293572" fill="#FFDE75" fill-opacity="0.307529945765695" />
<circle cx="54.776413557987695" cy="93.57217377712492" r="4.075562358851762" fill="#8B4513" fill-opacity="0.45445116991633583" />
<circle cx="109.46369944039188" cy="109.9673681121357" r="3.3530744555217673" fill="#FFFFFF" fill-opacity="0.3875105997788008" />
<circle cx="28.272740189919617" cy="110.10890737096649" r="2.0909302214533665" fill="#8B4513" fill-opacity="0.24715284775660976" />
<circle cx="98.8426459333736" cy="80.23459382865781" r="3.5982430199098543" fill="#FFFFFF" fill-opacity="0.37730919319842193" />
<circle cx="161.3360471231422" cy="103.20223618644356" r="4.922900461080907" fill="#FFFFFF" fill-opacity="0.5037669948519927" />
<circle cx="165.33276309527986" cy="117.97667395502461" r="4.245971663007277" fill="#FFDE75" fill-opacity="0.2958315705592813" />
<circle cx="135.00688228321843" cy="177.9809746488034" r="4.1212006156902525" fill="#D2691E" fill-opacity="0.38747450754574675" />
<circle cx="166.2389691192406" cy="57.74958235412053" r="3.113752612835851" fill="#FFDE75" fill-opacity="0.5085318515799464" />
<circle cx="105.75434680426355" cy="148.36268795364117" r="4.767805850005816" fill="#FFDE75" fill-opacity="0.47310398741854454" />
<circle cx="56.52308910643097" cy="152.4824338243171" r="5.188814184428958" fill="#D2691E" fill-opacity="0.5187868815456835" />
<circle cx="79.42910356106725" cy="104.76848488658291" r="5.116521717449898" fill="#D2691E" fill-opacity="0.5185270064691208" />
<circle cx="106.88398998501425" cy="112.37360234780654" r="5.666533850598745" fill="#FFDE75" fill-opacity="0.22129040981809056" />
<circle cx="42.00992091685313" cy="53.34702856020068" r="5.691431096756904" fill="#FFFFFF" fill-opacity="0.25848923705618987" />
<circle cx="145.68497978895027" cy="139.71075444923378" r="4.3805071912349565" fill="#FFFFFF" fill-opacity="0.2789179164385425" />
<circle cx="123.91424468354086" cy="157.03692665265285" r="2.3059080731310706" fill="#8B4513" fill-opacity="0.5662805747221189" />
<circle cx="164.58096492252895" cy="65.4129120576016" r="2.6359451890768937" fill="#D2691E" fill-opacity="0.23855476941426806" />
<circle cx="139.35965719525353" cy="103.90095375724209" r="5.7402287253540845" fill="#FFFFFF" fill-opacity="0.433282420907526" />
<circle cx="159.14464923288807" cy="140.24030392565956" r="2.2941122909235947" fill="#FFFFFF" fill-opacity="0.3181656925374087" />
<circle cx="109.50811630150861" cy="48.31032691454941" r="5.486583997782194" fill="#FFDE75" fill-opacity="0.2726330545832715" />
<circle cx="148.2305887568049" cy="175.77819665411602" r="2.096088538937842" fill="#FFDE75" fill-opacity="0.5629431091142597" />
<circle cx="72.80292431833503" cy="170.70776346092148" r="3.670945378899253" fill="#FFDE75" fill-opacity="0.5923517024518107" />
<circle cx="79.54836737673985" cy="150.77491650472257" r="2.6236065990460737" fill="#8B4513" fill-opacity="0.40933058977403414" />
<circle cx="162.42218332896894" cy="150.6313487807343" r="4.368109319376746" fill="#8B4513" fill-opacity="0.5312833567982358" />
<circle cx="147.99953738298893" cy="150.95967590115433" r="2.6888409801930657" fill="#FFFFFF" fill-opacity="0.3580852251149064" />
<circle cx="149.00738097826766" cy="67.04515313027898" r="2.6295245490268493" fill="#FFDE75" fill-opacity="0.4768358256110268" />
<circle cx="138.66445813132503" cy="37.49492715126428" r="4.023867000662156" fill="#FFFFFF" fill-opacity="0.569053628691087" />
<circle cx="83.80453553299452" cy="22.805500510980153" r="4.018175823567351" fill="#D2691E" fill-opacity="0.45302342166354514" />
<circle cx="62.282092222557516" cy="149.75080364897775" r="3.3457951602726843" fill="#FFFFFF" fill-opacity="0.3527544008378658" />
<circle cx="141.76290624165446" cy="46.02624164663019" r="4.650380861683045" fill="#8B4513" fill-opacity="0.49617457612922605" />
<circle cx="97.7192433739439" cy="66.7623499817696" r="2.010458646125184" fill="#8B4513" fill-opacity="0.2042156972289728" />
<circle cx="145.6963465076932" cy="100.85042949704172" r="5.104481095678912" fill="#FFFFFF" fill-opacity="0.48225317052774647" />
<circle cx="125.10435827765934" cy="157.43059603107943" r="3.80458292236493" fill="#FFFFFF" fill-opacity="0.5917147627302071" />
<circle cx="48.809978401778245" cy="125.49159699733562" r="5.332728900636544" fill="#D2691E" fill-opacity="0.44163805562599934" />
<circle cx="145.11580760979234" cy="132.39929654912925" r="2.395440253798377" fill="#FFFFFF" fill-opacity="0.39264648312758776" />
<circle cx="143.18437681960697" cy="104.93836683052625" r="5.658002686427458" fill="#FFFFFF" fill-opacity="0.2189403961781841" />
<circle cx="85.41539523638704" cy="35.42345726236323" r="5.732736571358794" fill="#D2691E" fill-opacity="0.5129608172794011" />
<circle cx="158.90216821993607" cy="169.71856796196042" r="2.8602003918455803" fill="#FFDE75" fill-opacity="0.5362723428449641" />
<circle cx="180.96263366488057" cy="69.14670326308024" r="4.640772560641285" fill="#8B4513" fill-opacity="0.34989714157449747" />
<circle cx="58.937709499503306" cy="96.13528059899755" r="4.003758396806839" fill="#D2691E" fill-opacity="0.3722755160733561" />
<circle cx="70.19531538365202" cy="83.96904508563958" r="8.990252001544453" fill="#FFFFFF" fill-opacity="0.95" stroke="#FAF0E6" stroke-width="1.5" />
<circle cx="105.74256927261507" cy="140.1442177251555" r="6.561342390312209" fill="#FFFFFF" fill-opacity="0.95" stroke="#FAF0E6" stroke-width="1.5" />
<circle cx="162.50331177450659" cy="64.0676559777973" r="11.77644210497801" fill="#FFFFFF" fill-opacity="0.95" stroke="#FAF0E6" stroke-width="1.5" />
<circle cx="120.71076938701536" cy="85.19160074945863" r="5.760937465594104" fill="#FFFFFF" fill-opacity="0.95" stroke="#FAF0E6" stroke-width="1.5" />
<circle cx="144.8380227401256" cy="149.10069217670969" r="8.000297403233311" fill="#FFFFFF" fill-opacity="0.95" stroke="#FAF0E6" stroke-width="1.5" />
<circle cx="160.411123485769" cy="143.93301391043752" r="6.682453827141458" fill="#FFFFFF" fill-opacity="0.95" stroke="#FAF0E6" stroke-width="1.5" />
<circle cx="87.01147080635256" cy="133.21620199316166" r="11.508143255614733" fill="#FFFFFF" fill-opacity="0.95" stroke="#FAF0E6" stroke-width="1.5" />
<circle cx="70.25496486197119" cy="124.74025126021024" r="10.918883166190255" fill="#FFFFFF" fill-opacity="0.95" stroke="#FAF0E6" stroke-width="1.5" />
<circle cx="95.88828520840707" cy="126.56787131985426" r="9.930511894903116" fill="#FFFFFF" fill-opacity="0.95" stroke="#FAF0E6" stroke-width="1.5" />
<circle cx="63.38039785818889" cy="121.13666893084878" r="8.81558179392825" fill="#FFFFFF" fill-opacity="0.95" stroke="#FAF0E6" stroke-width="1.5" />
<circle cx="70.39842356623916" cy="52.798817287101215" r="6.796945698150118" fill="#FFFFFF" fill-opacity="0.95" stroke="#FAF0E6" stroke-width="1.5" />
<circle cx="50.71628724575138" cy="118.53496288266528" r="11.342398814127133" fill="#FFFFFF" fill-opacity="0.95" stroke="#FAF0E6" stroke-width="1.5" />
<circle cx="42.97661787322567" cy="101.54093813901383" r="6.524554013468747" fill="#FFFFFF" fill-opacity="0.95" stroke="#FAF0E6" stroke-width="1.5" />
<circle cx="46.02964244041766" cy="86.83821140525987" r="8.767797834688924" fill="#FFFFFF" fill-opacity="0.95" stroke="#FAF0E6" stroke-width="1.5" />
<circle cx="88.6013802605904" cy="123.72050709272449" r="9.278886848056368" fill="#FFFFFF" fill-opacity="0.95" stroke="#FAF0E6" stroke-width="1.5" />
<circle cx="109.52013271227925" cy="66.98928768586143" r="5.599076183461001" fill="#FFFFFF" fill-opacity="0.95" stroke="#FAF0E6" stroke-width="1.5" />
<circle cx="106.34972499270373" cy="180.7348942946279" r="11.86048785802397" fill="#FFFFFF" fill-opacity="0.95" stroke="#FAF0E6" stroke-width="1.5" />
<circle cx="120.54479131908833" cy="182.28739607127545" r="10.263426130604742" fill="#FFFFFF" fill-opacity="0.95" stroke="#FAF0E6" stroke-width="1.5" />
<circle cx="119.9666456926147" cy="124.60907536958743" r="5.121334441171549" fill="#FFFFFF" fill-opacity="0.95" stroke="#FAF0E6" stroke-width="1.5" />
<circle cx="159.9319358403634" cy="111.02857014850784" r="8.920896485698202" fill="#FFFFFF" fill-opacity="0.95" stroke="#FAF0E6" stroke-width="1.5" />
<circle cx="84.24659102398448" cy="42.76435453121958" r="11.441214319448292" fill="#FFFFFF" fill-opacity="0.95" stroke="#FAF0E6" stroke-width="1.5" />
<circle cx="46.32390434267895" cy="78.90963724201325" r="8.084012804135067" fill="#FFFFFF" fill-opacity="0.95" stroke="#FAF0E6" stroke-width="1.5" />
<circle cx="59.76379028123098" cy="133.96710025726026" r="7.679233282033132" fill="#FFFFFF" fill-opacity="0.95" stroke="#FAF0E6" stroke-width="1.5" />
<circle cx="153.5506733847518" cy="81.46700857418163" r="7.437458397300263" fill="#FFFFFF" fill-opacity="0.95" stroke="#FAF0E6" stroke-width="1.5" />
</g>
<path d="M105.0,105.0 L175.71067811865476,34.28932188134526 A100,100,0,0,1,205.0,105.0 Z" fill="#FEF7E3" stroke="lightgray" stroke-width="2" />
<use xlink:href="#clip-4524472352-4535628368" />
<g clip-path="url(#clip-4524472352-4535628368)">
<circle cx="105.0" cy="105.0" r="92" stroke="#DAA05D" stroke-width="16" fill="none" />
<circle cx="105.0" cy="105.0" r="98" stroke="#C37B32" stroke-width="5" fill="none" />
<circle cx="29.872911012448427" cy="82.46840538098546" r="3.6277834045481314" fill="#D2691E" fill-opacity="0.28699482158066864" />
<circle cx="69.68128981296746" cy="102.28646780957538" r="2.7668529038062752" fill="#FFDE75" fill-opacity="0.26211650311293044" />
<circle cx="83.10847730403006" cy="77.00427604194827" r="4.2804528232717995" fill="#FFDE75" fill-opacity="0.352758762887557" />
<circle cx="32.5998932587716" cy="75.44383856055524" r="3.7309822124815146" fill="#8B4513" fill-opacity="0.33900730347261815" />
<circle cx="91.20427387862917" cy="28.974507928847927" r="4.597164124636926" fill="#FFFFFF" fill-opacity="0.4637883675649254" />
<circle cx="128.56759211841586" cy="117.26527585343501" r="2.2517360490231266" fill="#D2691E" fill-opacity="0.2867443933122005" />
<circle cx="152.16115485686808" cy="137.7263347459999" r="3.213477912883796" fill="#8B4513" fill-opacity="0.4825927876893586" />
<circle cx="145.24206540721028" cy="56.91720408845577" r="2.2696611551953794" fill="#8B4513" fill-opacity="0.4052288695754781" />
<circle cx="143.13193359436167" cy="78.27390754529111" r="4.883258153365387" fill="#FFDE75" fill-opacity="0.469385256684255" />
<circle cx="133.2034364041266" cy="69.59080302415981" r="4.739873877980506" fill="#D2691E" fill-opacity="0.5200243711176704" />
<circle cx="121.39812435229994" cy="115.40440628743087" r="4.782793155552893" fill="#D2691E" fill-opacity="0.22985908551880066" />
<circle cx="50.12091565542776" cy="56.17446495542236" r="3.313467040290049" fill="#D2691E" fill-opacity="0.24843652858601822" />
<circle cx="114.5500232927169" cy="171.71851969274005" r="5.239884218409088" fill="#FFFFFF" fill-opacity="0.4117814942032546" />
<circle cx="77.46406413648167" cy="93.47982984984645" r="4.296185256767567" fill="#D2691E" fill-opacity="0.44295929006126683" />
<circle cx="188.25887127038294" cy="102.1556173138278" r="2.315481159629326" fill="#FFFFFF" fill-opacity="0.43635713027377754" />
<circle cx="50.108148636562944" cy="163.51652807059537" r="4.872548996704639" fill="#FFFFFF" fill-opacity="0.5189841700638131" />
<circle cx="140.53907266403502" cy="40.14413231980326" r="2.296957861862846" fill="#FFDE75" fill-opacity="0.42525901530696264" />
<circle cx="64.03318837382395" cy="80.14279842072045" r="2.028950484568917" fill="#8B4513" fill-opacity="0.32595335557712796" />
<circle cx="70.31093031740467" cy="53.24491234411246" r="3.994730747508953" fill="#FFFFFF" fill-opacity="0.4728238817183465" />
<circle cx="140.2403316714046" cy="175.1940263977988" r="2.7325151635114144" fill="#8B4513" fill-opacity="0.23629241729650352" />
<circle cx="34.93060188285814" cy="148.61525868990583" r="3.65659904293572" fill="#FFDE75" fill-opacity="0.307529945765695" />
<circle cx="54.776413557987695" cy="93.57217377712492" r="4.075562358851762" fill="#8B4513" fill-opacity="0.45445116991633583" />
<circle cx="109.46369944039188" cy="109.9673681121357" r="3.3530744555217673" fill="#FFFFFF" fill-opacity="0.3875105997788008" />
<circle cx="28.272740189919617" cy="110.10890737096649" r="2.0909302214533665" fill="#8B4513" fill-opacity="0.24715284775660976" />
<circle cx="98.8426459333736" cy="80.23459382865781" r="3.5982430199098543" fill="#FFFFFF" fill-opacity="0.37730919319842193" />
<circle cx="161.3360471231422" cy="103.20223618644356" r="4.922900461080907" fill="#FFFFFF" fill-opacity="0.5037669948519927" />
<circle cx="165.33276309527986" cy="117.97667395502461" r="4.245971663007277" fill="#FFDE75" fill-opacity="0.2958315705592813" />
<circle cx="135.00688228321843" cy="177.9809746488034" r="4.1212006156902525" fill="#D2691E" fill-opacity="0.38747450754574675" />
<circle cx="166.2389691192406" cy="57.74958235412053" r="3.113752612835851" fill="#FFDE75" fill-opacity="0.5085318515799464" />
<circle cx="105.75434680426355" cy="148.36268795364117" r="4.767805850005816" fill="#FFDE75" fill-opacity="0.47310398741854454" />
<circle cx="56.52308910643097" cy="152.4824338243171" r="5.188814184428958" fill="#D2691E" fill-opacity="0.5187868815456835" />
<circle cx="79.42910356106725" cy="104.76848488658291" r="5.116521717449898" fill="#D2691E" fill-opacity="0.5185270064691208" />
<circle cx="106.88398998501425" cy="112.37360234780654" r="5.666533850598745" fill="#FFDE75" fill-opacity="0.22129040981809056" />
<circle cx="42.00992091685313" cy="53.34702856020068" r="5.691431096756904" fill="#FFFFFF" fill-opacity="0.25848923705618987" />
<circle cx="145.68497978895027" cy="139.71075444923378" r="4.3805071912349565" fill="#FFFFFF" fill-opacity="0.2789179164385425" />
<circle cx="123.91424468354086" cy="157.03692665265285" r="2.3059080731310706" fill="#8B4513" fill-opacity="0.5662805747221189" />
<circle cx="164.58096492252895" cy="65.4129120576016" r="2.6359451890768937" fill="#D2691E" fill-opacity="0.23855476941426806" />
<circle cx="139.35965719525353" cy="103.90095375724209" r="5.7402287253540845" fill="#FFFFFF" fill-opacity="0.433282420907526" />
<circle cx="159.14464923288807" cy="140.24030392565956" r="2.2941122909235947" fill="#FFFFFF" fill-opacity="0.3181656925374087" />
<circle cx="109.50811630150861" cy="48.31032691454941" r="5.486583997782194" fill="#FFDE75" fill-opacity="0.2726330545832715" />
<circle cx="148.2305887568049" cy="175.77819665411602" r="2.096088538937842" fill="#FFDE75" fill-opacity="0.5629431091142597" />
<circle cx="72.80292431833503" cy="170.70776346092148" r="3.670945378899253" fill="#FFDE75" fill-opacity="0.5923517024518107" />
<circle cx="79.54836737673985" cy="150.77491650472257" r="2.6236065990460737" fill="#8B4513" fill-opacity="0.40933058977403414" />
<circle cx="162.42218332896894" cy="150.6313487807343" r="4.368109319376746" fill="#8B4513" fill-opacity="0.5312833567982358" />
<circle cx="147.99953738298893" cy="150.95967590115433" r="2.6888409801930657" fill="#FFFFFF" fill-opacity="0.3580852251149064" />
<circle cx="149.00738097826766" cy="67.04515313027898" r="2.6295245490268493" fill="#FFDE75" fill-opacity="0.4768358256110268" />
<circle cx="138.66445813132503" cy="37.49492715126428" r="4.023867000662156" fill="#FFFFFF" fill-opacity="0.569053628691087" />
<circle cx="83.80453553299452" cy="22.805500510980153" r="4.018175823567351" fill="#D2691E" fill-opacity="0.45302342166354514" />
<circle cx="62.282092222557516" cy="149.75080364897775" r="3.3457951602726843" fill="#FFFFFF" fill-opacity="0.3527544008378658" />
<circle cx="141.76290624165446" cy="46.02624164663019" r="4.650380861683045" fill="#8B4513" fill-opacity="0.49617457612922605" />
<circle cx="97.7192433739439" cy="66.7623499817696" r="2.010458646125184" fill="#8B4513" fill-opacity="0.2042156972289728" />
<circle cx="145.6963465076932" cy="100.85042949704172" r="5.104481095678912" fill="#FFFFFF" fill-opacity="0.48225317052774647" />
<circle cx="125.10435827765934" cy="157.43059603107943" r="3.80458292236493" fill="#FFFFFF" fill-opacity="0.5917147627302071" />
<circle cx="48.809978401778245" cy="125.49159699733562" r="5.332728900636544" fill="#D2691E" fill-opacity="0.44163805562599934" />
<circle cx="145.11580760979234" cy="132.39929654912925" r="2.395440253798377" fill="#FFFFFF" fill-opacity="0.39264648312758776" />
<circle cx="143.18437681960697" cy="104.93836683052625" r="5.658002686427458" fill="#FFFFFF" fill-opacity="0.2189403961781841" />
<circle cx="85.41539523638704" cy="35.42345726236323" r="5.732736571358794" fill="#D2691E" fill-opacity="0.5129608172794011" />
<circle cx="158.90216821993607" cy="169.71856796196042" r="2.8602003918455803" fill="#FFDE75" fill-opacity="0.5362723428449641" />
<circle cx="180.96263366488057" cy="69.14670326308024" r="4.640772560641285" fill="#8B4513" fill-opacity="0.34989714157449747" />
<circle cx="58.937709499503306" cy="96.13528059899755" r="4.003758396806839" fill="#D2691E" fill-opacity="0.3722755160733561" />
<circle cx="70.19531538365202" cy="83.96904508563958" r="8.990252001544453" fill="#FFFFFF" fill-opacity="0.95" stroke="#FAF0E6" stroke-width="1.5" />
<circle cx="105.74256927261507" cy="140.1442177251555" r="6.561342390312209" fill="#FFFFFF" fill-opacity="0.95" stroke="#FAF0E6" stroke-width="1.5" />
<circle cx="162.50331177450659" cy="64.0676559777973" r="11.77644210497801" fill="#FFFFFF" fill-opacity="0.95" stroke="#FAF0E6" stroke-width="1.5" />
<circle cx="120.71076938701536" cy="85.19160074945863" r="5.760937465594104" fill="#FFFFFF" fill-opacity="0.95" stroke="#FAF0E6" stroke-width="1.5" />
<circle cx="144.8380227401256" cy="149.10069217670969" r="8.000297403233311" fill="#FFFFFF" fill-opacity="0.95" stroke="#FAF0E6" stroke-width="1.5" />
<circle cx="160.411123485769" cy="143.93301391043752" r="6.682453827141458" fill="#FFFFFF" fill-opacity="0.95" stroke="#FAF0E6" stroke-width="1.5" />
<circle cx="87.01147080635256" cy="133.21620199316166" r="11.508143255614733" fill="#FFFFFF" fill-opacity="0.95" stroke="#FAF0E6" stroke-width="1.5" />
<circle cx="70.25496486197119" cy="124.74025126021024" r="10.918883166190255" fill="#FFFFFF" fill-opacity="0.95" stroke="#FAF0E6" stroke-width="1.5" />
<circle cx="95.88828520840707" cy="126.56787131985426" r="9.930511894903116" fill="#FFFFFF" fill-opacity="0.95" stroke="#FAF0E6" stroke-width="1.5" />
<circle cx="63.38039785818889" cy="121.13666893084878" r="8.81558179392825" fill="#FFFFFF" fill-opacity="0.95" stroke="#FAF0E6" stroke-width="1.5" />
<circle cx="70.39842356623916" cy="52.798817287101215" r="6.796945698150118" fill="#FFFFFF" fill-opacity="0.95" stroke="#FAF0E6" stroke-width="1.5" />
<circle cx="50.71628724575138" cy="118.53496288266528" r="11.342398814127133" fill="#FFFFFF" fill-opacity="0.95" stroke="#FAF0E6" stroke-width="1.5" />
<circle cx="42.97661787322567" cy="101.54093813901383" r="6.524554013468747" fill="#FFFFFF" fill-opacity="0.95" stroke="#FAF0E6" stroke-width="1.5" />
<circle cx="46.02964244041766" cy="86.83821140525987" r="8.767797834688924" fill="#FFFFFF" fill-opacity="0.95" stroke="#FAF0E6" stroke-width="1.5" />
<circle cx="88.6013802605904" cy="123.72050709272449" r="9.278886848056368" fill="#FFFFFF" fill-opacity="0.95" stroke="#FAF0E6" stroke-width="1.5" />
<circle cx="109.52013271227925" cy="66.98928768586143" r="5.599076183461001" fill="#FFFFFF" fill-opacity="0.95" stroke="#FAF0E6" stroke-width="1.5" />
<circle cx="106.34972499270373" cy="180.7348942946279" r="11.86048785802397" fill="#FFFFFF" fill-opacity="0.95" stroke="#FAF0E6" stroke-width="1.5" />
<circle cx="120.54479131908833" cy="182.28739607127545" r="10.263426130604742" fill="#FFFFFF" fill-opacity="0.95" stroke="#FAF0E6" stroke-width="1.5" />
<circle cx="119.9666456926147" cy="124.60907536958743" r="5.121334441171549" fill="#FFFFFF" fill-opacity="0.95" stroke="#FAF0E6" stroke-width="1.5" />
<circle cx="159.9319358403634" cy="111.02857014850784" r="8.920896485698202" fill="#FFFFFF" fill-opacity="0.95" stroke="#FAF0E6" stroke-width="1.5" />
<circle cx="84.24659102398448" cy="42.76435453121958" r="11.441214319448292" fill="#FFFFFF" fill-opacity="0.95" stroke="#FAF0E6" stroke-width="1.5" />
<circle cx="46.32390434267895" cy="78.90963724201325" r="8.084012804135067" fill="#FFFFFF" fill-opacity="0.95" stroke="#FAF0E6" stroke-width="1.5" />
<circle cx="59.76379028123098" cy="133.96710025726026" r="7.679233282033132" fill="#FFFFFF" fill-opacity="0.95" stroke="#FAF0E6" stroke-width="1.5" />
<circle cx="153.5506733847518" cy="81.46700857418163" r="7.437458397300263" fill="#FFFFFF" fill-opacity="0.95" stroke="#FAF0E6" stroke-width="1.5" />
</g>
<path d="M105.0,105.0 L205.0,105.0 A100,100,0,0,1,175.71067811865476,175.71067811865476 Z" fill="#FEF7E3" stroke="lightgray" stroke-width="2" />
<use xlink:href="#clip-4524472352-4535001680" />
<g clip-path="url(#clip-4524472352-4535001680)">
<circle cx="105.0" cy="105.0" r="92" stroke="#DAA05D" stroke-width="16" fill="none" />
<circle cx="105.0" cy="105.0" r="98" stroke="#C37B32" stroke-width="5" fill="none" />
<circle cx="29.872911012448427" cy="82.46840538098546" r="3.6277834045481314" fill="#D2691E" fill-opacity="0.28699482158066864" />
<circle cx="69.68128981296746" cy="102.28646780957538" r="2.7668529038062752" fill="#FFDE75" fill-opacity="0.26211650311293044" />
<circle cx="83.10847730403006" cy="77.00427604194827" r="4.2804528232717995" fill="#FFDE75" fill-opacity="0.352758762887557" />
<circle cx="32.5998932587716" cy="75.44383856055524" r="3.7309822124815146" fill="#8B4513" fill-opacity="0.33900730347261815" />
<circle cx="91.20427387862917" cy="28.974507928847927" r="4.597164124636926" fill="#FFFFFF" fill-opacity="0.4637883675649254" />
<circle cx="128.56759211841586" cy="117.26527585343501" r="2.2517360490231266" fill="#D2691E" fill-opacity="0.2867443933122005" />
<circle cx="152.16115485686808" cy="137.7263347459999" r="3.213477912883796" fill="#8B4513" fill-opacity="0.4825927876893586" />
<circle cx="145.24206540721028" cy="56.91720408845577" r="2.2696611551953794" fill="#8B4513" fill-opacity="0.4052288695754781" />
<circle cx="143.13193359436167" cy="78.27390754529111" r="4.883258153365387" fill="#FFDE75" fill-opacity="0.469385256684255" />
<circle cx="133.2034364041266" cy="69.59080302415981" r="4.739873877980506" fill="#D2691E" fill-opacity="0.5200243711176704" />
<circle cx="121.39812435229994" cy="115.40440628743087" r="4.782793155552893" fill="#D2691E" fill-opacity="0.22985908551880066" />
<circle cx="50.12091565542776" cy="56.17446495542236" r="3.313467040290049" fill="#D2691E" fill-opacity="0.24843652858601822" />
<circle cx="114.5500232927169" cy="171.71851969274005" r="5.239884218409088" fill="#FFFFFF" fill-opacity="0.4117814942032546" />
<circle cx="77.46406413648167" cy="93.47982984984645" r="4.296185256767567" fill="#D2691E" fill-opacity="0.44295929006126683" />
<circle cx="188.25887127038294" cy="102.1556173138278" r="2.315481159629326" fill="#FFFFFF" fill-opacity="0.43635713027377754" />
<circle cx="50.108148636562944" cy="163.51652807059537" r="4.872548996704639" fill="#FFFFFF" fill-opacity="0.5189841700638131" />
<circle cx="140.53907266403502" cy="40.14413231980326" r="2.296957861862846" fill="#FFDE75" fill-opacity="0.42525901530696264" />
<circle cx="64.03318837382395" cy="80.14279842072045" r="2.028950484568917" fill="#8B4513" fill-opacity="0.32595335557712796" />
<circle cx="70.31093031740467" cy="53.24491234411246" r="3.994730747508953" fill="#FFFFFF" fill-opacity="0.4728238817183465" />
<circle cx="140.2403316714046" cy="175.1940263977988" r="2.7325151635114144" fill="#8B4513" fill-opacity="0.23629241729650352" />
<circle cx="34.93060188285814" cy="148.61525868990583" r="3.65659904293572" fill="#FFDE75" fill-opacity="0.307529945765695" />
<circle cx="54.776413557987695" cy="93.57217377712492" r="4.075562358851762" fill="#8B4513" fill-opacity="0.45445116991633583" />
<circle cx="109.46369944039188" cy="109.9673681121357" r="3.3530744555217673" fill="#FFFFFF" fill-opacity="0.3875105997788008" />
<circle cx="28.272740189919617" cy="110.10890737096649" r="2.0909302214533665" fill="#8B4513" fill-opacity="0.24715284775660976" />
<circle cx="98.8426459333736" cy="80.23459382865781" r="3.5982430199098543" fill="#FFFFFF" fill-opacity="0.37730919319842193" />
<circle cx="161.3360471231422" cy="103.20223618644356" r="4.922900461080907" fill="#FFFFFF" fill-opacity="0.5037669948519927" />
<circle cx="165.33276309527986" cy="117.97667395502461" r="4.245971663007277" fill="#FFDE75" fill-opacity="0.2958315705592813" />
<circle cx="135.00688228321843" cy="177.9809746488034" r="4.1212006156902525" fill="#D2691E" fill-opacity="0.38747450754574675" />
<circle cx="166.2389691192406" cy="57.74958235412053" r="3.113752612835851" fill="#FFDE75" fill-opacity="0.5085318515799464" />
<circle cx="105.75434680426355" cy="148.36268795364117" r="4.767805850005816" fill="#FFDE75" fill-opacity="0.47310398741854454" />
<circle cx="56.52308910643097" cy="152.4824338243171" r="5.188814184428958" fill="#D2691E" fill-opacity="0.5187868815456835" />
<circle cx="79.42910356106725" cy="104.76848488658291" r="5.116521717449898" fill="#D2691E" fill-opacity="0.5185270064691208" />
<circle cx="106.88398998501425" cy="112.37360234780654" r="5.666533850598745" fill="#FFDE75" fill-opacity="0.22129040981809056" />
<circle cx="42.00992091685313" cy="53.34702856020068" r="5.691431096756904" fill="#FFFFFF" fill-opacity="0.25848923705618987" />
<circle cx="145.68497978895027" cy="139.71075444923378" r="4.3805071912349565" fill="#FFFFFF" fill-opacity="0.2789179164385425" />
<circle cx="123.91424468354086" cy="157.03692665265285" r="2.3059080731310706" fill="#8B4513" fill-opacity="0.5662805747221189" />
<circle cx="164.58096492252895" cy="65.4129120576016" r="2.6359451890768937" fill="#D2691E" fill-opacity="0.23855476941426806" />
<circle cx="139.35965719525353" cy="103.90095375724209" r="5.7402287253540845" fill="#FFFFFF" fill-opacity="0.433282420907526" />
<circle cx="159.14464923288807" cy="140.24030392565956" r="2.2941122909235947" fill="#FFFFFF" fill-opacity="0.3181656925374087" />
<circle cx="109.50811630150861" cy="48.31032691454941" r="5.486583997782194" fill="#FFDE75" fill-opacity="0.2726330545832715" />
<circle cx="148.2305887568049" cy="175.77819665411602" r="2.096088538937842" fill="#FFDE75" fill-opacity="0.5629431091142597" />
<circle cx="72.80292431833503" cy="170.70776346092148" r="3.670945378899253" fill="#FFDE75" fill-opacity="0.5923517024518107" />
<circle cx="79.54836737673985" cy="150.77491650472257" r="2.6236065990460737" fill="#8B4513" fill-opacity="0.40933058977403414" />
<circle cx="162.42218332896894" cy="150.6313487807343" r="4.368109319376746" fill="#8B4513" fill-opacity="0.5312833567982358" />
<circle cx="147.99953738298893" cy="150.95967590115433" r="2.6888409801930657" fill="#FFFFFF" fill-opacity="0.3580852251149064" />
<circle cx="149.00738097826766" cy="67.04515313027898" r="2.6295245490268493" fill="#FFDE75" fill-opacity="0.4768358256110268" />
<circle cx="138.66445813132503" cy="37.49492715126428" r="4.023867000662156" fill="#FFFFFF" fill-opacity="0.569053628691087" />
<circle cx="83.80453553299452" cy="22.805500510980153" r="4.018175823567351" fill="#D2691E" fill-opacity="0.45302342166354514" />
<circle cx="62.282092222557516" cy="149.75080364897775" r="3.3457951602726843" fill="#FFFFFF" fill-opacity="0.3527544008378658" />
<circle cx="141.76290624165446" cy="46.02624164663019" r="4.650380861683045" fill="#8B4513" fill-opacity="0.49617457612922605" />
<circle cx="97.7192433739439" cy="66.7623499817696" r="2.010458646125184" fill="#8B4513" fill-opacity="0.2042156972289728" />
<circle cx="145.6963465076932" cy="100.85042949704172" r="5.104481095678912" fill="#FFFFFF" fill-opacity="0.48225317052774647" />
<circle cx="125.10435827765934" cy="157.43059603107943" r="3.80458292236493" fill="#FFFFFF" fill-opacity="0.5917147627302071" />
<circle cx="48.809978401778245" cy="125.49159699733562" r="5.332728900636544" fill="#D2691E" fill-opacity="0.44163805562599934" />
<circle cx="145.11580760979234" cy="132.39929654912925" r="2.395440253798377" fill="#FFFFFF" fill-opacity="0.39264648312758776" />
<circle cx="143.18437681960697" cy="104.93836683052625" r="5.658002686427458" fill="#FFFFFF" fill-opacity="0.2189403961781841" />
<circle cx="85.41539523638704" cy="35.42345726236323" r="5.732736571358794" fill="#D2691E" fill-opacity="0.5129608172794011" />
<circle cx="158.90216821993607" cy="169.71856796196042" r="2.8602003918455803" fill="#FFDE75" fill-opacity="0.5362723428449641" />
<circle cx="180.96263366488057" cy="69.14670326308024" r="4.640772560641285" fill="#8B4513" fill-opacity="0.34989714157449747" />
<circle cx="58.937709499503306" cy="96.13528059899755" r="4.003758396806839" fill="#D2691E" fill-opacity="0.3722755160733561" />
<circle cx="70.19531538365202" cy="83.96904508563958" r="8.990252001544453" fill="#FFFFFF" fill-opacity="0.95" stroke="#FAF0E6" stroke-width="1.5" />
<circle cx="105.74256927261507" cy="140.1442177251555" r="6.561342390312209" fill="#FFFFFF" fill-opacity="0.95" stroke="#FAF0E6" stroke-width="1.5" />
<circle cx="162.50331177450659" cy="64.0676559777973" r="11.77644210497801" fill="#FFFFFF" fill-opacity="0.95" stroke="#FAF0E6" stroke-width="1.5" />
<circle cx="120.71076938701536" cy="85.19160074945863" r="5.760937465594104" fill="#FFFFFF" fill-opacity="0.95" stroke="#FAF0E6" stroke-width="1.5" />
<circle cx="144.8380227401256" cy="149.10069217670969" r="8.000297403233311" fill="#FFFFFF" fill-opacity="0.95" stroke="#FAF0E6" stroke-width="1.5" />
<circle cx="160.411123485769" cy="143.93301391043752" r="6.682453827141458" fill="#FFFFFF" fill-opacity="0.95" stroke="#FAF0E6" stroke-width="1.5" />
<circle cx="87.01147080635256" cy="133.21620199316166" r="11.508143255614733" fill="#FFFFFF" fill-opacity="0.95" stroke="#FAF0E6" stroke-width="1.5" />
<circle cx="70.25496486197119" cy="124.74025126021024" r="10.918883166190255" fill="#FFFFFF" fill-opacity="0.95" stroke="#FAF0E6" stroke-width="1.5" />
<circle cx="95.88828520840707" cy="126.56787131985426" r="9.930511894903116" fill="#FFFFFF" fill-opacity="0.95" stroke="#FAF0E6" stroke-width="1.5" />
<circle cx="63.38039785818889" cy="121.13666893084878" r="8.81558179392825" fill="#FFFFFF" fill-opacity="0.95" stroke="#FAF0E6" stroke-width="1.5" />
<circle cx="70.39842356623916" cy="52.798817287101215" r="6.796945698150118" fill="#FFFFFF" fill-opacity="0.95" stroke="#FAF0E6" stroke-width="1.5" />
<circle cx="50.71628724575138" cy="118.53496288266528" r="11.342398814127133" fill="#FFFFFF" fill-opacity="0.95" stroke="#FAF0E6" stroke-width="1.5" />
<circle cx="42.97661787322567" cy="101.54093813901383" r="6.524554013468747" fill="#FFFFFF" fill-opacity="0.95" stroke="#FAF0E6" stroke-width="1.5" />
<circle cx="46.02964244041766" cy="86.83821140525987" r="8.767797834688924" fill="#FFFFFF" fill-opacity="0.95" stroke="#FAF0E6" stroke-width="1.5" />
<circle cx="88.6013802605904" cy="123.72050709272449" r="9.278886848056368" fill="#FFFFFF" fill-opacity="0.95" stroke="#FAF0E6" stroke-width="1.5" />
<circle cx="109.52013271227925" cy="66.98928768586143" r="5.599076183461001" fill="#FFFFFF" fill-opacity="0.95" stroke="#FAF0E6" stroke-width="1.5" />
<circle cx="106.34972499270373" cy="180.7348942946279" r="11.86048785802397" fill="#FFFFFF" fill-opacity="0.95" stroke="#FAF0E6" stroke-width="1.5" />
<circle cx="120.54479131908833" cy="182.28739607127545" r="10.263426130604742" fill="#FFFFFF" fill-opacity="0.95" stroke="#FAF0E6" stroke-width="1.5" />
<circle cx="119.9666456926147" cy="124.60907536958743" r="5.121334441171549" fill="#FFFFFF" fill-opacity="0.95" stroke="#FAF0E6" stroke-width="1.5" />
<circle cx="159.9319358403634" cy="111.02857014850784" r="8.920896485698202" fill="#FFFFFF" fill-opacity="0.95" stroke="#FAF0E6" stroke-width="1.5" />
<circle cx="84.24659102398448" cy="42.76435453121958" r="11.441214319448292" fill="#FFFFFF" fill-opacity="0.95" stroke="#FAF0E6" stroke-width="1.5" />
<circle cx="46.32390434267895" cy="78.90963724201325" r="8.084012804135067" fill="#FFFFFF" fill-opacity="0.95" stroke="#FAF0E6" stroke-width="1.5" />
<circle cx="59.76379028123098" cy="133.96710025726026" r="7.679233282033132" fill="#FFFFFF" fill-opacity="0.95" stroke="#FAF0E6" stroke-width="1.5" />
<circle cx="153.5506733847518" cy="81.46700857418163" r="7.437458397300263" fill="#FFFFFF" fill-opacity="0.95" stroke="#FAF0E6" stroke-width="1.5" />
</g>
<path d="M105.0,105.0 L175.71067811865476,175.71067811865476 A100,100,0,0,1,105.0,205.0 Z" fill="#FEF7E3" stroke="lightgray" stroke-width="2" />
<use xlink:href="#clip-4524472352-4535514960" />
<g clip-path="url(#clip-4524472352-4535514960)">
<circle cx="105.0" cy="105.0" r="92" stroke="#DAA05D" stroke-width="16" fill="none" />
<circle cx="105.0" cy="105.0" r="98" stroke="#C37B32" stroke-width="5" fill="none" />
<circle cx="29.872911012448427" cy="82.46840538098546" r="3.6277834045481314" fill="#D2691E" fill-opacity="0.28699482158066864" />
<circle cx="69.68128981296746" cy="102.28646780957538" r="2.7668529038062752" fill="#FFDE75" fill-opacity="0.26211650311293044" />
<circle cx="83.10847730403006" cy="77.00427604194827" r="4.2804528232717995" fill="#FFDE75" fill-opacity="0.352758762887557" />
<circle cx="32.5998932587716" cy="75.44383856055524" r="3.7309822124815146" fill="#8B4513" fill-opacity="0.33900730347261815" />
<circle cx="91.20427387862917" cy="28.974507928847927" r="4.597164124636926" fill="#FFFFFF" fill-opacity="0.4637883675649254" />
<circle cx="128.56759211841586" cy="117.26527585343501" r="2.2517360490231266" fill="#D2691E" fill-opacity="0.2867443933122005" />
<circle cx="152.16115485686808" cy="137.7263347459999" r="3.213477912883796" fill="#8B4513" fill-opacity="0.4825927876893586" />
<circle cx="145.24206540721028" cy="56.91720408845577" r="2.2696611551953794" fill="#8B4513" fill-opacity="0.4052288695754781" />
<circle cx="143.13193359436167" cy="78.27390754529111" r="4.883258153365387" fill="#FFDE75" fill-opacity="0.469385256684255" />
<circle cx="133.2034364041266" cy="69.59080302415981" r="4.739873877980506" fill="#D2691E" fill-opacity="0.5200243711176704" />
<circle cx="121.39812435229994" cy="115.40440628743087" r="4.782793155552893" fill="#D2691E" fill-opacity="0.22985908551880066" />
<circle cx="50.12091565542776" cy="56.17446495542236" r="3.313467040290049" fill="#D2691E" fill-opacity="0.24843652858601822" />
<circle cx="114.5500232927169" cy="171.71851969274005" r="5.239884218409088" fill="#FFFFFF" fill-opacity="0.4117814942032546" />
<circle cx="77.46406413648167" cy="93.47982984984645" r="4.296185256767567" fill="#D2691E" fill-opacity="0.44295929006126683" />
<circle cx="188.25887127038294" cy="102.1556173138278" r="2.315481159629326" fill="#FFFFFF" fill-opacity="0.43635713027377754" />
<circle cx="50.108148636562944" cy="163.51652807059537" r="4.872548996704639" fill="#FFFFFF" fill-opacity="0.5189841700638131" />
<circle cx="140.53907266403502" cy="40.14413231980326" r="2.296957861862846" fill="#FFDE75" fill-opacity="0.42525901530696264" />
<circle cx="64.03318837382395" cy="80.14279842072045" r="2.028950484568917" fill="#8B4513" fill-opacity="0.32595335557712796" />
<circle cx="70.31093031740467" cy="53.24491234411246" r="3.994730747508953" fill="#FFFFFF" fill-opacity="0.4728238817183465" />
<circle cx="140.2403316714046" cy="175.1940263977988" r="2.7325151635114144" fill="#8B4513" fill-opacity="0.23629241729650352" />
<circle cx="34.93060188285814" cy="148.61525868990583" r="3.65659904293572" fill="#FFDE75" fill-opacity="0.307529945765695" />
<circle cx="54.776413557987695" cy="93.57217377712492" r="4.075562358851762" fill="#8B4513" fill-opacity="0.45445116991633583" />
<circle cx="109.46369944039188" cy="109.9673681121357" r="3.3530744555217673" fill="#FFFFFF" fill-opacity="0.3875105997788008" />
<circle cx="28.272740189919617" cy="110.10890737096649" r="2.0909302214533665" fill="#8B4513" fill-opacity="0.24715284775660976" />
<circle cx="98.8426459333736" cy="80.23459382865781" r="3.5982430199098543" fill="#FFFFFF" fill-opacity="0.37730919319842193" />
<circle cx="161.3360471231422" cy="103.20223618644356" r="4.922900461080907" fill="#FFFFFF" fill-opacity="0.5037669948519927" />
<circle cx="165.33276309527986" cy="117.97667395502461" r="4.245971663007277" fill="#FFDE75" fill-opacity="0.2958315705592813" />
<circle cx="135.00688228321843" cy="177.9809746488034" r="4.1212006156902525" fill="#D2691E" fill-opacity="0.38747450754574675" />
<circle cx="166.2389691192406" cy="57.74958235412053" r="3.113752612835851" fill="#FFDE75" fill-opacity="0.5085318515799464" />
<circle cx="105.75434680426355" cy="148.36268795364117" r="4.767805850005816" fill="#FFDE75" fill-opacity="0.47310398741854454" />
<circle cx="56.52308910643097" cy="152.4824338243171" r="5.188814184428958" fill="#D2691E" fill-opacity="0.5187868815456835" />
<circle cx="79.42910356106725" cy="104.76848488658291" r="5.116521717449898" fill="#D2691E" fill-opacity="0.5185270064691208" />
<circle cx="106.88398998501425" cy="112.37360234780654" r="5.666533850598745" fill="#FFDE75" fill-opacity="0.22129040981809056" />
<circle cx="42.00992091685313" cy="53.34702856020068" r="5.691431096756904" fill="#FFFFFF" fill-opacity="0.25848923705618987" />
<circle cx="145.68497978895027" cy="139.71075444923378" r="4.3805071912349565" fill="#FFFFFF" fill-opacity="0.2789179164385425" />
<circle cx="123.91424468354086" cy="157.03692665265285" r="2.3059080731310706" fill="#8B4513" fill-opacity="0.5662805747221189" />
<circle cx="164.58096492252895" cy="65.4129120576016" r="2.6359451890768937" fill="#D2691E" fill-opacity="0.23855476941426806" />
<circle cx="139.35965719525353" cy="103.90095375724209" r="5.7402287253540845" fill="#FFFFFF" fill-opacity="0.433282420907526" />
<circle cx="159.14464923288807" cy="140.24030392565956" r="2.2941122909235947" fill="#FFFFFF" fill-opacity="0.3181656925374087" />
<circle cx="109.50811630150861" cy="48.31032691454941" r="5.486583997782194" fill="#FFDE75" fill-opacity="0.2726330545832715" />
<circle cx="148.2305887568049" cy="175.77819665411602" r="2.096088538937842" fill="#FFDE75" fill-opacity="0.5629431091142597" />
<circle cx="72.80292431833503" cy="170.70776346092148" r="3.670945378899253" fill="#FFDE75" fill-opacity="0.5923517024518107" />
<circle cx="79.54836737673985" cy="150.77491650472257" r="2.6236065990460737" fill="#8B4513" fill-opacity="0.40933058977403414" />
<circle cx="162.42218332896894" cy="150.6313487807343" r="4.368109319376746" fill="#8B4513" fill-opacity="0.5312833567982358" />
<circle cx="147.99953738298893" cy="150.95967590115433" r="2.6888409801930657" fill="#FFFFFF" fill-opacity="0.3580852251149064" />
<circle cx="149.00738097826766" cy="67.04515313027898" r="2.6295245490268493" fill="#FFDE75" fill-opacity="0.4768358256110268" />
<circle cx="138.66445813132503" cy="37.49492715126428" r="4.023867000662156" fill="#FFFFFF" fill-opacity="0.569053628691087" />
<circle cx="83.80453553299452" cy="22.805500510980153" r="4.018175823567351" fill="#D2691E" fill-opacity="0.45302342166354514" />
<circle cx="62.282092222557516" cy="149.75080364897775" r="3.3457951602726843" fill="#FFFFFF" fill-opacity="0.3527544008378658" />
<circle cx="141.76290624165446" cy="46.02624164663019" r="4.650380861683045" fill="#8B4513" fill-opacity="0.49617457612922605" />
<circle cx="97.7192433739439" cy="66.7623499817696" r="2.010458646125184" fill="#8B4513" fill-opacity="0.2042156972289728" />
<circle cx="145.6963465076932" cy="100.85042949704172" r="5.104481095678912" fill="#FFFFFF" fill-opacity="0.48225317052774647" />
<circle cx="125.10435827765934" cy="157.43059603107943" r="3.80458292236493" fill="#FFFFFF" fill-opacity="0.5917147627302071" />
<circle cx="48.809978401778245" cy="125.49159699733562" r="5.332728900636544" fill="#D2691E" fill-opacity="0.44163805562599934" />
<circle cx="145.11580760979234" cy="132.39929654912925" r="2.395440253798377" fill="#FFFFFF" fill-opacity="0.39264648312758776" />
<circle cx="143.18437681960697" cy="104.93836683052625" r="5.658002686427458" fill="#FFFFFF" fill-opacity="0.2189403961781841" />
<circle cx="85.41539523638704" cy="35.42345726236323" r="5.732736571358794" fill="#D2691E" fill-opacity="0.5129608172794011" />
<circle cx="158.90216821993607" cy="169.71856796196042" r="2.8602003918455803" fill="#FFDE75" fill-opacity="0.5362723428449641" />
<circle cx="180.96263366488057" cy="69.14670326308024" r="4.640772560641285" fill="#8B4513" fill-opacity="0.34989714157449747" />
<circle cx="58.937709499503306" cy="96.13528059899755" r="4.003758396806839" fill="#D2691E" fill-opacity="0.3722755160733561" />
<circle cx="70.19531538365202" cy="83.96904508563958" r="8.990252001544453" fill="#FFFFFF" fill-opacity="0.95" stroke="#FAF0E6" stroke-width="1.5" />
<circle cx="105.74256927261507" cy="140.1442177251555" r="6.561342390312209" fill="#FFFFFF" fill-opacity="0.95" stroke="#FAF0E6" stroke-width="1.5" />
<circle cx="162.50331177450659" cy="64.0676559777973" r="11.77644210497801" fill="#FFFFFF" fill-opacity="0.95" stroke="#FAF0E6" stroke-width="1.5" />
<circle cx="120.71076938701536" cy="85.19160074945863" r="5.760937465594104" fill="#FFFFFF" fill-opacity="0.95" stroke="#FAF0E6" stroke-width="1.5" />
<circle cx="144.8380227401256" cy="149.10069217670969" r="8.000297403233311" fill="#FFFFFF" fill-opacity="0.95" stroke="#FAF0E6" stroke-width="1.5" />
<circle cx="160.411123485769" cy="143.93301391043752" r="6.682453827141458" fill="#FFFFFF" fill-opacity="0.95" stroke="#FAF0E6" stroke-width="1.5" />
<circle cx="87.01147080635256" cy="133.21620199316166" r="11.508143255614733" fill="#FFFFFF" fill-opacity="0.95" stroke="#FAF0E6" stroke-width="1.5" />
<circle cx="70.25496486197119" cy="124.74025126021024" r="10.918883166190255" fill="#FFFFFF" fill-opacity="0.95" stroke="#FAF0E6" stroke-width="1.5" />
<circle cx="95.88828520840707" cy="126.56787131985426" r="9.930511894903116" fill="#FFFFFF" fill-opacity="0.95" stroke="#FAF0E6" stroke-width="1.5" />
<circle cx="63.38039785818889" cy="121.13666893084878" r="8.81558179392825" fill="#FFFFFF" fill-opacity="0.95" stroke="#FAF0E6" stroke-width="1.5" />
<circle cx="70.39842356623916" cy="52.798817287101215" r="6.796945698150118" fill="#FFFFFF" fill-opacity="0.95" stroke="#FAF0E6" stroke-width="1.5" />
<circle cx="50.71628724575138" cy="118.53496288266528" r="11.342398814127133" fill="#FFFFFF" fill-opacity="0.95" stroke="#FAF0E6" stroke-width="1.5" />
<circle cx="42.97661787322567" cy="101.54093813901383" r="6.524554013468747" fill="#FFFFFF" fill-opacity="0.95" stroke="#FAF0E6" stroke-width="1.5" />
<circle cx="46.02964244041766" cy="86.83821140525987" r="8.767797834688924" fill="#FFFFFF" fill-opacity="0.95" stroke="#FAF0E6" stroke-width="1.5" />
<circle cx="88.6013802605904" cy="123.72050709272449" r="9.278886848056368" fill="#FFFFFF" fill-opacity="0.95" stroke="#FAF0E6" stroke-width="1.5" />
<circle cx="109.52013271227925" cy="66.98928768586143" r="5.599076183461001" fill="#FFFFFF" fill-opacity="0.95" stroke="#FAF0E6" stroke-width="1.5" />
<circle cx="106.34972499270373" cy="180.7348942946279" r="11.86048785802397" fill="#FFFFFF" fill-opacity="0.95" stroke="#FAF0E6" stroke-width="1.5" />
<circle cx="120.54479131908833" cy="182.28739607127545" r="10.263426130604742" fill="#FFFFFF" fill-opacity="0.95" stroke="#FAF0E6" stroke-width="1.5" />
<circle cx="119.9666456926147" cy="124.60907536958743" r="5.121334441171549" fill="#FFFFFF" fill-opacity="0.95" stroke="#FAF0E6" stroke-width="1.5" />
<circle cx="159.9319358403634" cy="111.02857014850784" r="8.920896485698202" fill="#FFFFFF" fill-opacity="0.95" stroke="#FAF0E6" stroke-width="1.5" />
<circle cx="84.24659102398448" cy="42.76435453121958" r="11.441214319448292" fill="#FFFFFF" fill-opacity="0.95" stroke="#FAF0E6" stroke-width="1.5" />
<circle cx="46.32390434267895" cy="78.90963724201325" r="8.084012804135067" fill="#FFFFFF" fill-opacity="0.95" stroke="#FAF0E6" stroke-width="1.5" />
<circle cx="59.76379028123098" cy="133.96710025726026" r="7.679233282033132" fill="#FFFFFF" fill-opacity="0.95" stroke="#FAF0E6" stroke-width="1.5" />
<circle cx="153.5506733847518" cy="81.46700857418163" r="7.437458397300263" fill="#FFFFFF" fill-opacity="0.95" stroke="#FAF0E6" stroke-width="1.5" />
</g>
<rect x="230.0" y="41.0" width="54.0" height="54.0" fill="none" stroke="black" stroke-width="2" />
<rect x="230.0" y="115.0" width="54.0" height="54.0" fill="none" stroke="black" stroke-width="2" />
<path d="M225.0,105.0 L289.0,105.0" stroke="black" stroke-width="2" />
</g>
</svg>