<svg width="509.0" height="210.0" xmlns="http://www.w3.org/2000/svg" xmlns:xlink="http://www.w3.org/1999/xlink">
<svg x="0.0" y="0.0" width="210.0" height="210.0" viewBox="0 0 210 210" xmlns="http://www.w3.org/2000/svg" xmlns:xlink="http://www.w3.org/1999/xlink">
<defs>
<clipPath id="clip-4535260880-4471971536">
<circle cx="105.0" cy="105.0" r="100" fill="none" />
</clipPath>
</defs>
<g>
<circle cx="105.0" cy="105.0" r="100" fill="#F5C754" />
<use xlink:href="#clip-4535260880-4471971536" />
<g clip-path="url(#clip-4535260880-4471971536)">
<circle cx="105.0" cy="105.0" r="92" stroke="#DAA05D" stroke-width="16" fill="none" />
<circle cx="105.0" cy="105.0" r="98" stroke="#C37B32" stroke-width="5" fill="none" />
<circle cx="134.00745799173365" cy="31.95188138562034" r="2.1406156965066483" fill="#FFDE75" fill-opacity="0.5183514418123465" />
<circle cx="83.39221817370509" cy="67.58795206627332" r="2.3987426625438504" fill="#D2691E" fill-opacity="0.37661641481878094" />
<circle cx="162.96212377213487" cy="142.07491128128837" r="5.711261340680679" fill="#8B4513" fill-opacity="0.3760948363005322" />
<circle cx="136.84935619260418" cy="134.9128045442495" r="3.5339736849023" fill="#FFDE75" fill-opacity="0.548647784420796" />
<circle cx="109.90298009689867" cy="161.40378805939514" r="3.3481030957573545" fill="#D2691E" fill-opacity="0.4029120314174309" />
<circle cx="170.63580701989298" cy="132.59291146721026" r="4.078464574579323" fill="#FFFFFF" fill-opacity="0.5215729004971892" />
<circle cx="100.76150061005322" cy="50.691983976359516" r="2.4277014234848386" fill="#D2691E" fill-opacity="0.4394913808559483" />
<circle cx="21.411959648839016" cy="110.75584621225372" r="5.869671288139491" fill="#8B4513" fill-opacity="0.32545358636345156" />
<circle cx="177.92725457511776" cy="110.50477519375146" r="4.6393187451449425" fill="#D2691E" fill-opacity="0.291657311056839" />
<circle cx="142.1290788656708" cy="106.28692775780415" r="5.708577195297538" fill="#D2691E" fill-opacity="0.41672253833663275" />
<circle cx="67.05075974883147" cy="161.6749606015277" r="3.707565690954719" fill="#8B4513" fill-opacity="0.3551396443009127" />
<circle cx="42.773225520860315" cy="130.96615517116274" r="5.848861357033819" fill="#FFDE75" fill-opacity="0.4907162855621432" />
<circle cx="161.54795722900494" cy="82.57438923092211" r="5.890952276250408" fill="#D2691E" fill-opacity="0.34882893350884225" />
<circle cx="89.09091880581306" cy="167.56463193867268" r="3.5349062123249655" fill="#FFDE75" fill-opacity="0.3042042305009885" />
<circle cx="115.84414876299364" cy="155.66698087466264" r="3.2405543161533235" fill="#FFFFFF" fill-opacity="0.43395205398808695" />
<circle cx="78.3173712997547" cy="142.32082427859865" r="2.5776814026151054" fill="#FFFFFF" fill-opacity="0.3228332318661928" />
<circle cx="62.5151515870947" cy="129.93923682639527" r="3.804813289450555" fill="#D2691E" fill-opacity="0.284497211761507" />
<circle cx="145.10315684257455" cy="106.43480772735643" r="5.654361581475484" fill="#FFDE75" fill-opacity="0.25324403445356014" />
<circle cx="159.18444221181397" cy="74.41149832456145" r="3.2540989462742895" fill="#D2691E" fill-opacity="0.23975175111513236" />
<circle cx="127.71638549114533" cy="32.596647259685255" r="3.4315094101563637" fill="#8B4513" fill-opacity="0.3657107187850758" />
<circle cx="86.56737249974857" cy="96.48785583795691" r="2.1235859604202454" fill="#8B4513" fill-opacity="0.23082932543925827" />
<circle cx="130.0417087471208" cy="62.28413074977947" r="5.67576388582952" fill="#FFDE75" fill-opacity="0.3075790614986105" />
<circle cx="142.43299953594203" cy="67.91764892824925" r="4.658015901453113" fill="#FFDE75" fill-opacity="0.555587944294142" />
<circle cx="113.15476629300085" cy="136.45222931761893" r="5.787154205837228" fill="#D2691E" fill-opacity="0.35807669534737074" />
<circle cx="64.51045573897156" cy="88.39108093831308" r="2.2256414877041175" fill="#FFDE75" fill-opacity="0.5191114429400476" />
<circle cx="50.05052371094692" cy="65.20901441633698" r="2.482661825232258" fill="#FFDE75" fill-opacity="0.5896551202057927" />
<circle cx="105.05999506591182" cy="48.9375970448469" r="5.256227368453348" fill="#D2691E" fill-opacity="0.45681085031923374" />
<circle cx="102.8441266888658" cy="98.80183519318803" r="3.8086756316380526" fill="#FFDE75" fill-opacity="0.5044972883526906" />
<circle cx="67.98394161591926" cy="31.543586208699082" r="3.596221307086964" fill="#D2691E" fill-opacity="0.553312565669476" />
<circle cx="75.82903332941648" cy="68.69639487529437" r="4.07044240285007" fill="#FFFFFF" fill-opacity="0.4923861739059715" />
<circle cx="105.34285658321171" cy="147.01145449058632" r="2.9324702162083662" fill="#FFDE75" fill-opacity="0.40008092633801995" />
<circle cx="33.32383033354206" cy="89.3112398232843" r="4.293698423752435" fill="#FFFFFF" fill-opacity="0.2189508691440496" />
<circle cx="124.57786715400721" cy="113.66732755399475" r="2.240332438380652" fill="#FFFFFF" fill-opacity="0.32348163609369157" />
<circle cx="58.39735533022044" cy="77.58197544501331" r="3.1174090250706543" fill="#8B4513" fill-opacity="0.2533078769760141" />
<circle cx="156.9106263798913" cy="68.4469726906944" r="2.4516511084139014" fill="#FFFFFF" fill-opacity="0.5556606191407369" />
<circle cx="67.83609937439628" cy="47.431881444062995" r="5.987562269609152" fill="#8B4513" fill-opacity="0.4103001780447541" />
<circle cx="64.06217886881956" cy="108.84584811660956" r="2.8969324592886876" fill="#D2691E" fill-opacity="0.28138400106429884" />
<circle cx="100.82247359370392" cy="144.55729765592102" r="4.472052147832008" fill="#8B4513" fill-opacity="0.20445131532969185" />
<circle cx="20.92789430301616" cy="98.7274641503642" r="5.8128291408064925" fill="#FFDE75" fill-opacity="0.5063917964075685" />
<circle cx="114.52231599005296" cy="23.351376051652053" r="5.911307445113358" fill="#FFDE75" fill-opacity="0.2238426815278392" />
<circle cx="39.75732363898108" cy="154.37713889503675" r="4.367043043341731" fill="#D2691E" fill-opacity="0.48988411340572174" />
<circle cx="28.029801317893074" cy="128.29710052366252" r="3.2876491336318026" fill="#FFFFFF" fill-opacity="0.37981064462188485" />
<circle cx="167.57705771290748" cy="61.00438304857808" r="5.355786545276365" fill="#FFFFFF" fill-opacity="0.5398233580345011" />
<circle cx="88.83331132830635" cy="172.87090662631599" r="4.936984924708448" fill="#FFFFFF" fill-opacity="0.21111833624306173" />
<circle cx="147.56864003821406" cy="122.3235643934036" r="3.4138388122911754" fill="#FFFFFF" fill-opacity="0.4535774126385335" />
<circle cx="148.4457636562342" cy="135.59702712061733" r="3.663365781184851" fill="#D2691E" fill-opacity="0.484248423859034" />
<circle cx="36.96286521402334" cy="70.22875993100288" r="4.04105324970784" fill="#D2691E" fill-opacity="0.5284636819765209" />
<circle cx="165.1074942923679" cy="47.570799396593934" r="2.2688945049183706" fill="#FFDE75" fill-opacity="0.3024947369807497" />
<circle cx="79.34117389098444" cy="52.81956616930624" r="2.143919133888102" fill="#FFFFFF" fill-opacity="0.47621722167177927" />
<circle cx="145.52076134676358" cy="112.28478897451366" r="2.880531100048565" fill="#D2691E" fill-opacity="0.37378122965821875" />
<circle cx="86.31678028584744" cy="89.65278260275343" r="4.184409515083159" fill="#D2691E" fill-opacity="0.3102793227278496" />
<circle cx="103.40711775825201" cy="53.93661302457714" r="3.338336294544129" fill="#D2691E" fill-opacity="0.3582928130229519" />
<circle cx="58.37045135334766" cy="115.25342829105266" r="3.9415969773043225" fill="#D2691E" fill-opacity="0.5724404024288929" />
<circle cx="46.42735049239994" cy="128.8547530763047" r="2.400275077355598" fill="#FFDE75" fill-opacity="0.49083056547760073" />
<circle cx="58.85888792516314" cy="89.80081127183377" r="3.806366024198362" fill="#D2691E" fill-opacity="0.310341076689037" />
<circle cx="38.93382690758327" cy="78.06894086147689" r="5.856418452145023" fill="#FFDE75" fill-opacity="0.4647666417737597" />
<circle cx="110.83929602625139" cy="168.1083428447295" r="2.562828824151748" fill="#FFDE75" fill-opacity="0.5793093672067746" />
<circle cx="131.19819997348424" cy="176.14746256311693" r="4.522487340137937" fill="#FFFFFF" fill-opacity="0.5969081410873223" />
<circle cx="167.77103031227836" cy="114.34810292591392" r="4.466136312886697" fill="#8B4513" fill-opacity="0.410068040875565" />
<circle cx="57.91591477221612" cy="149.95526421384895" r="3.270221692422152" fill="#D2691E" fill-opacity="0.4226404438865681" />
<circle cx="152.2581307044647" cy="130.91401615598122" r="2.0216076856805687" fill="#8B4513" fill-opacity="0.23189310716853037" />
<circle cx="57.36221525349218" cy="171.24346157847788" r="3.00847050729935" fill="#D2691E" fill-opacity="0.5054737312893985" />
<circle cx="91.13259208594019" cy="59.58408570149503" r="2.232536636395344" fill="#FFFFFF" fill-opacity="0.47400551920440037" />
<circle cx="64.21091429149538" cy="170.19733512138447" r="5.468039595992684" fill="#8B4513" fill-opacity="0.3589098316089122" />
<circle cx="71.85285360433325" cy="75.94557808652053" r="5.993611329384196" fill="#FFDE75" fill-opacity="0.5587044339636233" />
<circle cx="70.52972259182837" cy="127.19322561235188" r="3.5571903960896814" fill="#FFDE75" fill-opacity="0.2160082696210587" />
<circle cx="89.02923698132508" cy="100.72772627083535" r="5.105463009488668" fill="#8B4513" fill-opacity="0.5060318145097511" />
<circle cx="24.4032570368651" cy="96.4336742602542" r="3.9855402365215444" fill="#D2691E" fill-opacity="0.3158091271429453" />
<circle cx="43.534968584843206" cy="133.89140751743918" r="4.495915366724499" fill="#D2691E" fill-opacity="0.23303845719608068" />
<circle cx="126.9439658394468" cy="130.81291432130814" r="3.938918642923392" fill="#FFDE75" fill-opacity="0.29628280434380755" />
<circle cx="140.34124149596508" cy="43.74942802106262" r="5.583934256836145" fill="#FFFFFF" fill-opacity="0.2614509140205984" />
<circle cx="105.08972969491543" cy="120.6690140657346" r="2.618600177527678" fill="#FFDE75" fill-opacity="0.3586507377180974" />
<circle cx="63.51548545947359" cy="140.02576620721555" r="3.946273327130357" fill="#FFDE75" fill-opacity="0.2976468555594647" />
<circle cx="164.98753999386582" cy="51.35132884583243" r="4.076196117505266" fill="#8B4513" fill-opacity="0.376124769392285" />
<circle cx="70.69763422875064" cy="105.81989025725613" r="5.726690047525739" fill="#D2691E" fill-opacity="0.4587013103020424" />
<circle cx="89.3924889258237" cy="116.44262221695583" r="10.474248720071774" fill="#C92A2A" stroke="#800000" stroke-width="1" />
<circle cx="89.80448505879669" cy="118.78178529458786" r="1.0496283765759649" fill="#FFA07A" fill-opacity="0.7" />
<circle cx="91.08389677640047" cy="112.02009686262225" r="0.906469173411539" fill="#FFA07A" fill-opacity="0.7" />
<circle cx="87.86511236959937" cy="113.96466813324517" r="1.0255041686014201" fill="#FFA07A" fill-opacity="0.7" />
<circle cx="64.12564372046418" cy="76.09660427859981" r="9.09113549027108" fill="#C92A2A" stroke="#800000" stroke-width="1" />
<circle cx="63.02398961928313" cy="80.04147707720904" r="1.252358658615664" fill="#FFA07A" fill-opacity="0.7" />
<circle cx="65.95150371093567" cy="75.97271983483496" r="0.797285389344778" fill="#FFA07A" fill-opacity="0.7" />
<circle cx="63.600580237308165" cy="72.65397784935004" r="1.2367175573923976" fill="#FFA07A" fill-opacity="0.7" />
<circle cx="62.77947822629414" cy="73.51924221564583" r="0.5865225410978014" fill="#FFA07A" fill-opacity="0.7" />
<circle cx="62.767043561522414" cy="91.27817222230166" r="10.45975875781054" fill="#C92A2A" stroke="#800000" stroke-width="1" />
<circle cx="66.95732484630464" cy="94.54173592636765" r="1.0453858926391923" fill="#FFA07A" fill-opacity="0.7" />
<circle cx="66.84555755599855" cy="90.92400602562338" r="0.5422156327524339" fill="#FFA07A" fill-opacity="0.7" />
<circle cx="65.89450681258919" cy="91.54315008868417" r="0.8968608581036793" fill="#FFA07A" fill-opacity="0.7" />
<circle cx="58.44067606815781" cy="95.50786094397922" r="1.2160427481273768" fill="#FFA07A" fill-opacity="0.7" />
<circle cx="165.8014187906038" cy="80.74093382405975" r="9.374365313614584" fill="#C92A2A" stroke="#800000" stroke-width="1" />
<circle cx="168.00652049750437" cy="76.92393622537084" r="0.5504052090778386" fill="#FFA07A" fill-opacity="0.7" />
<circle cx="160.61432300475138" cy="79.31017515379858" r="1.4882488126220585" fill="#FFA07A" fill-opacity="0.7" />
<circle cx="171.47944522717222" cy="84.24416724946974" r="0.9232913081019749" fill="#FFA07A" fill-opacity="0.7" />
<circle cx="166.4675657967771" cy="80.0854062817969" r="1.0197958436698733" fill="#FFA07A" fill-opacity="0.7" />
<circle cx="82.31493224421243" cy="159.6726834485109" r="9.611143788232244" fill="#C92A2A" stroke="#800000" stroke-width="1" />
<circle cx="77.57685469071836" cy="163.2815091393348" r="1.4253242054839514" fill="#FFA07A" fill-opacity="0.7" />
<circle cx="79.55336948593353" cy="160.9853558228196" r="1.3201085733315794" fill="#FFA07A" fill-opacity="0.7" />
<circle cx="82.6837796707567" cy="159.8056379399323" r="0.9980590396033143" fill="#FFA07A" fill-opacity="0.7" />
<circle cx="81.1104745149739" cy="164.58591788653794" r="0.8416228498215325" fill="#FFA07A" fill-opacity="0.7" />
<circle cx="86.9599293231947" cy="158.97776850005596" r="1.2250907485176636" fill="#FFA07A" fill-opacity="0.7" />
<circle cx="38.64195223622613" cy="74.27877401778314" r="10.23392435602318" fill="#C92A2A" stroke="#800000" stroke-width="1" />
<circle cx="33.23728724382477" cy="77.08519232237518" r="1.4354971003227202" fill="#FFA07A" fill-opacity="0.7" />
<circle cx="34.782621338669756" cy="70.38537369333123" r="0.6984486908245465" fill="#FFA07A" fill-opacity="0.7" />
<circle cx="37.429119023663986" cy="77.06410737264932" r="1.2546708090257215" fill="#FFA07A" fill-opacity="0.7" />
<circle cx="38.16531063719706" cy="71.29956774057862" r="0.820795248587448" fill="#FFA07A" fill-opacity="0.7" />
<circle cx="41.27440664004757" cy="73.59879508964939" r="0.755810024698534" fill="#FFA07A" fill-opacity="0.7" />
<circle cx="37.392009427624856" cy="87.0723122922567" r="11.892473331328508" fill="#C92A2A" stroke="#800000" stroke-width="1" />
<circle cx="35.09976802782" cy="86.02088165106233" r="0.593348545864111" fill="#FFA07A" fill-opacity="0.7" />
<circle cx="41.15537171023795" cy="87.37756510923356" r="1.035360411602414" fill="#FFA07A" fill-opacity="0.7" />
<circle cx="34.5574253405901" cy="88.09106428620171" r="0.6499623692002815" fill="#FFA07A" fill-opacity="0.7" />
<circle cx="31.644995012700754" cy="90.58887277560247" r="1.0485803880077098" fill="#FFA07A" fill-opacity="0.7" />
<circle cx="43.13125364718526" cy="90.96310185740123" r="1.2835924446613927" fill="#FFA07A" fill-opacity="0.7" />
<circle cx="34.30103415331301" cy="85.36789583155151" r="0.8996534175540634" fill="#FFA07A" fill-opacity="0.7" />
<circle cx="119.68820611797754" cy="53.79756156757536" r="11.962589526395917" fill="#C92A2A" stroke="#800000" stroke-width="1" />
<circle cx="123.18110574587006" cy="56.3979329685505" r="0.5924146364350565" fill="#FFA07A" fill-opacity="0.7" />
<circle cx="123.60682244622791" cy="54.06859475534557" r="1.1282676342534899" fill="#FFA07A" fill-opacity="0.7" />
<circle cx="116.18330888686177" cy="55.44292526702105" r="0.9347389771770751" fill="#FFA07A" fill-opacity="0.7" />
<circle cx="121.3859256337625" cy="55.66675595703711" r="0.6522783276946423" fill="#FFA07A" fill-opacity="0.7" />
<circle cx="82.0241893977594" cy="143.46691536226027" r="11.011986365380746" fill="#C92A2A" stroke="#800000" stroke-width="1" />
<circle cx="77.06358372861408" cy="142.03169601694185" r="0.5509406123718358" fill="#FFA07A" fill-opacity="0.7" />
<circle cx="79.47890257171112" cy="139.2715274293186" r="1.1668336197043716" fill="#FFA07A" fill-opacity="0.7" />
<circle cx="78.06352363863896" cy="141.9260439682984" r="1.4245297922234856" fill="#FFA07A" fill-opacity="0.7" />
<circle cx="80.32069665978779" cy="149.43732320334476" r="0.8539975039390972" fill="#FFA07A" fill-opacity="0.7" />
<circle cx="86.30484279801694" cy="139.39203339891634" r="0.9622007073416768" fill="#FFA07A" fill-opacity="0.7" />
<circle cx="81.41367893407998" cy="142.04969694619695" r="1.276132772148756" fill="#FFA07A" fill-opacity="0.7" />
<circle cx="82.6195091506736" cy="146.10873974248167" r="0.6157370560339875" fill="#FFA07A" fill-opacity="0.7" />
<circle cx="61.56173093626863" cy="122.6284801871879" r="9.331844273815728" fill="#C92A2A" stroke="#800000" stroke-width="1" />
<circle cx="62.84104923932934" cy="123.56309448388699" r="1.1845697313509087" fill="#FFA07A" fill-opacity="0.7" />
<circle cx="61.553932157482535" cy="128.53654714545468" r="0.5117809375159356" fill="#FFA07A" fill-opacity="0.7" />
<circle cx="65.88730192668353" cy="119.67044064669257" r="1.2326599453853335" fill="#FFA07A" fill-opacity="0.7" />
<circle cx="62.16611375855298" cy="125.62241564703791" r="0.7883119379906869" fill="#FFA07A" fill-opacity="0.7" />
<circle cx="66.49971489833865" cy="127.95122775655148" r="1.4318505119627811" fill="#FFA07A" fill-opacity="0.7" />
<circle cx="56.08319400402069" cy="121.09369235927969" r="1.4997659960541152" fill="#FFA07A" fill-opacity="0.7" />
<circle cx="132.4080740533006" cy="77.25448207276604" r="9.429118655687738" fill="#C92A2A" stroke="#800000" stroke-width="1" />
<circle cx="134.25337062615876" cy="81.75114112552063" r="1.1019328550200442" fill="#FFA07A" fill-opacity="0.7" />
<circle cx="138.2276372451708" cy="78.35533348840212" r="0.6977733941049058" fill="#FFA07A" fill-opacity="0.7" />
<circle cx="130.76354686426328" cy="82.02560464030844" r="0.5288615770709963" fill="#FFA07A" fill-opacity="0.7" />
<circle cx="135.23075588339293" cy="76.0231530781314" r="0.7878403347226364" fill="#FFA07A" fill-opacity="0.7" />
<circle cx="127.97468085103043" cy="74.48858307632784" r="1.4458407443157522" fill="#FFA07A" fill-opacity="0.7" />
<circle cx="127.96114828816172" cy="78.51303441330602" r="0.6899560234496138" fill="#FFA07A" fill-opacity="0.7" />
<circle cx="135.8999071927188" cy="83.09262001890973" r="1.4353966641835418" fill="#FFA07A" fill-opacity="0.7" />
<circle cx="101.44685931489455" cy="101.70293620383826" r="9.134317408363835" fill="#C92A2A" stroke="#800000" stroke-width="1" />
<circle cx="102.5078981769586" cy="101.02512439652982" r="1.1994613131963958" fill="#FFA07A" fill-opacity="0.7" />
<circle cx="100.30150040682068" cy="107.60532970014063" r="1.2638126162778707" fill="#FFA07A" fill-opacity="0.7" />
<circle cx="97.7241869845678" cy="95.76816454828534" r="0.9462933324617524" fill="#FFA07A" fill-opacity="0.7" />
<circle cx="101.05458076261978" cy="106.23465291165444" r="0.9556376036922378" fill="#FFA07A" fill-opacity="0.7" />
<circle cx="97.24331904490384" cy="101.03072846287654" r="0.8888489119063948" fill="#FFA07A" fill-opacity="0.7" />
<circle cx="105.38806481540293" cy="97.49872454379948" r="0.8102581396321357" fill="#FFA07A" fill-opacity="0.7" />
<circle cx="155.0353449046563" cy="161.30395889770648" r="11.081370600573916" fill="#C92A2A" stroke="#800000" stroke-width="1" />
<circle cx="158.08702154834452" cy="160.61867645026632" r="1.2915115886019364" fill="#FFA07A" fill-opacity="0.7" />
<circle cx="156.7632102198734" cy="165.47136327276215" r="0.8253202658013178" fill="#FFA07A" fill-opacity="0.7" />
<circle cx="149.3414837335408" cy="158.69290486622546" r="1.0374364318789433" fill="#FFA07A" fill-opacity="0.7" />
<circle cx="154.32674471635593" cy="155.90738534963037" r="1.337468918537985" fill="#FFA07A" fill-opacity="0.7" />
<circle cx="125.12927859706218" cy="62.809365554520355" r="11.591625785354484" fill="#C92A2A" stroke="#800000" stroke-width="1" />
<circle cx="120.93547057669691" cy="62.83880354399417" r="1.471318640820335" fill="#FFA07A" fill-opacity="0.7" />
<circle cx="124.8730217332971" cy="67.0422890282262" r="0.7837468173377753" fill="#FFA07A" fill-opacity="0.7" />
<circle cx="119.81202138231343" cy="66.67005683343311" r="0.5780212976774866" fill="#FFA07A" fill-opacity="0.7" />
<circle cx="130.96974519424344" cy="65.69206268016168" r="0.9914568405626658" fill="#FFA07A" fill-opacity="0.7" />
<circle cx="125.4880947090164" cy="62.541359768263604" r="0.7575678854703269" fill="#FFA07A" fill-opacity="0.7" />
<circle cx="129.1470190678588" cy="56.83056807201108" r="0.7654634533420221" fill="#FFA07A" fill-opacity="0.7" />
<circle cx="125.25992832110593" cy="62.588965824098196" r="1.0137802113777172" fill="#FFA07A" fill-opacity="0.7" />
<circle cx="157.58102509887956" cy="75.81006262823877" r="10.56514902598158" fill="#C92A2A" stroke="#800000" stroke-width="1" />
<circle cx="162.47387821847" cy="73.96764304112244" r="0.9538317254300542" fill="#FFA07A" fill-opacity="0.7" />
<circle cx="152.98314961089534" cy="72.15107914273123" r="0.7635019410611077" fill="#FFA07A" fill-opacity="0.7" />
<circle cx="161.1837860436953" cy="81.09978331525217" r="0.6549120592196307" fill="#FFA07A" fill-opacity="0.7" />
<circle cx="160.2780305668661" cy="72.40895568153724" r="0.6757844244724026" fill="#FFA07A" fill-opacity="0.7" />
<circle cx="161.93803045863444" cy="80.07411465714787" r="1.3867042467205062" fill="#FFA07A" fill-opacity="0.7" />
<circle cx="154.21946185648065" cy="73.2217693605243" r="1.468646856408924" fill="#FFA07A" fill-opacity="0.7" />
<circle cx="54.30690278925126" cy="103.25108852674033" r="10.255088136001872" fill="#C92A2A" stroke="#800000" stroke-width="1" />
<circle cx="50.61445108183597" cy="108.21124920980526" r="0.7093203724861566" fill="#FFA07A" fill-opacity="0.7" />
<circle cx="57.820226418605294" cy="98.87788526316548" r="0.6785035942221714" fill="#FFA07A" fill-opacity="0.7" />
<circle cx="54.79655850895867" cy="100.35337115551012" r="1.3638220120755626" fill="#FFA07A" fill-opacity="0.7" />
<circle cx="104.06828412741321" cy="158.92590164951054" r="11.66520143880863" fill="#C92A2A" stroke="#800000" stroke-width="1" />
<circle cx="100.10585930855271" cy="161.06656039242836" r="1.0522967704669388" fill="#FFA07A" fill-opacity="0.7" />
<circle cx="102.23395599231714" cy="160.02032797217237" r="1.000680282454029" fill="#FFA07A" fill-opacity="0.7" />
<circle cx="99.97151605557947" cy="155.39980631896026" r="1.0639437582786586" fill="#FFA07A" fill-opacity="0.7" />
<circle cx="101.31440176174829" cy="154.88591064219824" r="0.6888432955191128" fill="#FFA07A" fill-opacity="0.7" />
<circle cx="106.31486258913678" cy="155.78978315834527" r="0.9756523159448642" fill="#FFA07A" fill-opacity="0.7" />
<circle cx="107.7432201951587" cy="156.58448692464836" r="0.9415633562941568" fill="#FFA07A" fill-opacity="0.7" />
<circle cx="155.14418689582868" cy="71.14456853414737" r="9.334628961560716" fill="#C92A2A" stroke="#800000" stroke-width="1" />
<circle cx="153.7736345424515" cy="76.36743462045361" r="1.487840976715895" fill="#FFA07A" fill-opacity="0.7" />
<circle cx="149.88194982845863" cy="69.82508717455461" r="1.1646635080862513" fill="#FFA07A" fill-opacity="0.7" />
<circle cx="158.77655040079344" cy="68.98191798655333" r="1.2551546492484167" fill="#FFA07A" fill-opacity="0.7" />
<circle cx="159.99016730023547" cy="72.11639253930801" r="1.2636176976513973" fill="#FFA07A" fill-opacity="0.7" />
<circle cx="163.32073877689805" cy="125.58722082434896" r="11.48278359510936" fill="#C92A2A" stroke="#800000" stroke-width="1" />
<circle cx="159.18179612082147" cy="120.24529521191474" r="0.7074971083608407" fill="#FFA07A" fill-opacity="0.7" />
<circle cx="167.3919624632104" cy="120.89725100021818" r="1.2758655156800334" fill="#FFA07A" fill-opacity="0.7" />
<circle cx="163.26062927872496" cy="127.19533155419983" r="0.6045710099402668" fill="#FFA07A" fill-opacity="0.7" />
<circle cx="163.80437807687156" cy="122.40712524471277" r="1.494597933310703" fill="#FFA07A" fill-opacity="0.7" />
<circle cx="153.04374922277847" cy="154.3579414072867" r="11.184248804647936" fill="#C92A2A" stroke="#800000" stroke-width="1" />
<circle cx="154.28793925854674" cy="152.2361190184527" r="1.2915732118338972" fill="#FFA07A" fill-opacity="0.7" />
<circle cx="148.07876345322583" cy="148.86343153045937" r="0.9904401798645338" fill="#FFA07A" fill-opacity="0.7" />
<circle cx="156.066358801207" cy="158.66648246085603" r="0.8860079356566859" fill="#FFA07A" fill-opacity="0.7" />
<circle cx="158.12617964511827" cy="158.83122882285303" r="0.9948870843443811" fill="#FFA07A" fill-opacity="0.7" />
<circle cx="148.9884236867064" cy="149.86842481798254" r="0.7917786963707109" fill="#FFA07A" fill-opacity="0.7" />
<circle cx="149.5336987801713" cy="148.9940483975713" r="0.6955606966712948" fill="#FFA07A" fill-opacity="0.7" />
</g>
<path d="M105.0,105.0 L105.0,5.0" stroke="lightgray" stroke-width="2" />
<path d="M105.0,105.0 L200.10565162951536,74.09830056250526" stroke="lightgray" stroke-width="2" />
<path d="M105.0,105.0 L163.77852522924732,185.90169943749476" stroke="lightgray" stroke-width="2" />
<path d="M105.0,105.0 L46.2214747707527,185.90169943749476" stroke="lightgray" stroke-width="2" />
<path d="M105.0,105.0 L9.894348370484636,74.09830056250527" stroke="lightgray" stroke-width="2" />
<circle cx="105.0" cy="105.0" r="100" fill="none" stroke="lightgray" stroke-width="2" />
</g>
</svg>
<svg x="225.0" y="0.0" width="284.0" height="210.0" viewBox="0 0 284.0 210" xmlns="http://www.w3.org/2000/svg" xmlns:xlink="http://www.w3.org/1999/xlink">
<defs>
<clipPath id="clip-4524471136-4471976016">
<path d="M105.0,105.0 L105.0,5.0 A100,100,0,0,1,200.10565162951536,74.09830056250526 Z" fill="none" />
</clipPath>
<clipPath id="clip-4524471136-4535501136">
<path d="M105.0,105.0 L200.10565162951536,74.09830056250526 A100,100,0,0,1,163.77852522924732,185.90169943749476 Z" fill="none" />
</clipPath>
</defs>
<g>
<path d="M105.0,105.0 L105.0,5.0 A100,100,0,0,1,200.10565162951536,74.09830056250526 Z" fill="none" stroke="lightgray" stroke-width="2" />
<path d="M105.0,105.0 L200.10565162951536,74.09830056250526 A100,100,0,0,1,163.77852522924732,185.90169943749476 Z" fill="none" stroke="lightgray" stroke-width="2" />
<path d="M105.0,105.0 L163.77852522924732,185.90169943749476 A100,100,0,0,1,46.2214747707527,185.90169943749476 Z" fill="none" stroke="lightgray" stroke-width="2" />
<path d="M105.0,105.0 L46.2214747707527,185.90169943749476 A100,100,0,0,1,9.894348370484636,74.09830056250527 Z" fill="none" stroke="lightgray" stroke-width="2" />
<path d="M105.0,105.0 L9.894348370484636,74.09830056250527 A100,100,0,0,1,104.99999999999999,5.0 Z" fill="none" stroke="lightgray" stroke-width="2" />
<path d="M105.0,105.0 L105.0,5.0 A100,100,0,0,1,200.10565162951536,74.09830056250526 Z" fill="#F5C754" stroke="lightgray" stroke-width="2" />
<use xlink:href="#clip-4524471136-4471976016" />
<g clip-path="url(#clip-4524471136-4471976016)">
<circle cx="105.0" cy="105.0" r="92" stroke="#DAA05D" stroke-width="16" fill="none" />
<circle cx="105.0" cy="105.0" r="98" stroke="#C37B32" stroke-width="5" fill="none" />
<circle cx="54.94323998186593" cy="137.6913919267575" r="4.571521339428826" fill="#FFDE75" fill-opacity="0.4577242394091626" />
<circle cx="101.16747806440915" cy="180.58862955606503" r="3.010555575442136" fill="#FFFFFF" fill-opacity="0.277818807286999" />
<circle cx="44.55295542394384" cy="62.812911084766334" r="4.059578819880925" fill="#FFFFFF" fill-opacity="0.3692198292348646" />
<circle cx="80.54217118860788" cy="178.3355317487796" r="2.7003194391880623" fill="#D2691E" fill-opacity="0.3297050248303071" />
<circle cx="154.26798096478782" cy="69.44890562189488" r="2.7048512100586324" fill="#8B4513" fill-opacity="0.4870540237766373" />
<circle cx="146.72476757086315" cy="32.81065951743295" r="3.703280575814828" fill="#FFFFFF" fill-opacity="0.27416068991579856" />
<circle cx="61.16098770627092" cy="43.59515332558171" r="4.861045994612555" fill="#D2691E" fill-opacity="0.4103759578656705" />
<circle cx="111.74734282868566" cy="144.11631623430662" r="5.475531970499118" fill="#D2691E" fill-opacity="0.34681065645554165" />
<circle cx="160.51308470240235" cy="94.65860899903622" r="3.1371416159679018" fill="#D2691E" fill-opacity="0.5001556818207191" />
<circle cx="28.04487946275212" cy="103.05939536280707" r="5.326519029454855" fill="#8B4513" fill-opacity="0.2102487475085246" />
<circle cx="67.90589522388811" cy="172.8535321284699" r="2.0048599482127925" fill="#FFFFFF" fill-opacity="0.5589428410205896" />
<circle cx="42.04356311238641" cy="90.18126460244169" r="5.97136310436014" fill="#FFFFFF" fill-opacity="0.377074237956718" />
<circle cx="128.81757686331323" cy="130.33571431144537" r="3.2510486127531335" fill="#FFFFFF" fill-opacity="0.4754307002408108" />
<circle cx="51.437662184091245" cy="81.59849827621144" r="4.202830046039907" fill="#D2691E" fill-opacity="0.5743389412906028" />
<circle cx="97.06011671771289" cy="140.38128932041545" r="2.641707491686508" fill="#FFDE75" fill-opacity="0.35309147463877844" />
<circle cx="122.97122522866037" cy="96.11659415842406" r="4.582138431946307" fill="#FFFFFF" fill-opacity="0.5599933389734639" />
<circle cx="136.79762385359018" cy="179.91073332547467" r="5.353256617258672" fill="#FFFFFF" fill-opacity="0.3460199467691096" />
<circle cx="70.7568849402972" cy="128.40542951400982" r="2.799222966812126" fill="#D2691E" fill-opacity="0.24060193100270977" />
<circle cx="79.74366198180206" cy="87.36167527139098" r="3.63991854084506" fill="#FFDE75" fill-opacity="0.254666724543547" />
<circle cx="20.735875731938563" cy="93.91887846719605" r="2.898393380816168" fill="#FFDE75" fill-opacity="0.5835242435432046" />
<circle cx="81.10621456723607" cy="94.94534616307337" r="5.8849366928176305" fill="#8B4513" fill-opacity="0.49281878983367255" />
<circle cx="68.21669715027932" cy="134.6815131175152" r="2.6438631232828183" fill="#D2691E" fill-opacity="0.584327741239913" />
<circle cx="63.79967004558624" cy="39.69127447085714" r="5.903423378226215" fill="#D2691E" fill-opacity="0.5306138529870514" />
<circle cx="48.52153731939435" cy="96.1398195682503" r="2.130672801167228" fill="#FFDE75" fill-opacity="0.4149300067909767" />
<circle cx="168.38576240039725" cy="86.54832631443134" r="3.584209295753708" fill="#D2691E" fill-opacity="0.5110798556704974" />
<circle cx="137.6314699904334" cy="143.90427619812218" r="3.4436523532360592" fill="#8B4513" fill-opacity="0.5364005985433629" />
<circle cx="103.6188175422855" cy="176.90665078456425" r="4.337890594937757" fill="#D2691E" fill-opacity="0.38344694482913705" />
<circle cx="91.07856538363944" cy="151.73363635350307" r="2.2053103482198457" fill="#D2691E" fill-opacity="0.22810005791006263" />
<circle cx="55.60372548541173" cy="141.59614152531398" r="5.064915997685724" fill="#FFFFFF" fill-opacity="0.2648514372101587" />
<circle cx="74.081693881498" cy="89.66049153099452" r="3.0358022805628027" fill="#D2691E" fill-opacity="0.49288561564398803" />
<circle cx="148.72067519912463" cy="91.08667319423446" r="10.113525948541485" fill="#C92A2A" stroke="#800000" stroke-width="1" />
<circle cx="146.66040340832762" cy="88.53841771076796" r="1.1391776611683264" fill="#FFA07A" fill-opacity="0.7" />
<circle cx="144.83016188084736" cy="92.70726075581436" r="0.6382358566785302" fill="#FFA07A" fill-opacity="0.7" />
<circle cx="148.88548805195862" cy="92.64223021373292" r="1.3704062884791464" fill="#FFA07A" fill-opacity="0.7" />
<circle cx="143.0660309489261" cy="89.43241216754335" r="1.1760330929732707" fill="#FFA07A" fill-opacity="0.7" />
<circle cx="143.63539824287295" cy="93.85813058364238" r="0.9108516023986393" fill="#FFA07A" fill-opacity="0.7" />
<circle cx="166.48480426305488" cy="114.11184845225904" r="9.895385900223829" fill="#C92A2A" stroke="#800000" stroke-width="1" />
<circle cx="165.892468687792" cy="119.70892192012076" r="1.2779586337253033" fill="#FFA07A" fill-opacity="0.7" />
<circle cx="165.31687775103796" cy="119.72221088960976" r="0.9983636353341973" fill="#FFA07A" fill-opacity="0.7" />
<circle cx="170.30995123700285" cy="113.23360066924559" r="0.6645466965507897" fill="#FFA07A" fill-opacity="0.7" />
<circle cx="163.21029500397955" cy="115.65889493041583" r="0.9530715327928808" fill="#FFA07A" fill-opacity="0.7" />
<circle cx="102.19589680660411" cy="31.96804983525962" r="9.338602729053505" fill="#C92A2A" stroke="#800000" stroke-width="1" />
<circle cx="98.44613320231593" cy="37.776891499525085" r="1.3198524355193126" fill="#FFA07A" fill-opacity="0.7" />
<circle cx="97.30756912130639" cy="35.99085916447372" r="1.258767706716311" fill="#FFA07A" fill-opacity="0.7" />
<circle cx="96.71862160131232" cy="30.484550395224538" r="1.1236395936711718" fill="#FFA07A" fill-opacity="0.7" />
<circle cx="97.92065336344787" cy="35.114810374799106" r="1.461252128203336" fill="#FFA07A" fill-opacity="0.7" />
<circle cx="101.78072956128545" cy="29.302115488512282" r="0.8241153397424829" fill="#FFA07A" fill-opacity="0.7" />
<circle cx="158.582673808676" cy="114.91602023792073" r="10.873174176926362" fill="#C92A2A" stroke="#800000" stroke-width="1" />
<circle cx="156.9276247460648" cy="120.39286731963114" r="1.1265714906971827" fill="#FFA07A" fill-opacity="0.7" />
<circle cx="155.12940152324597" cy="120.23694441297008" r="1.1904519544689698" fill="#FFA07A" fill-opacity="0.7" />
<circle cx="162.9971736714323" cy="114.13220271200058" r="0.5124482470164315" fill="#FFA07A" fill-opacity="0.7" />
<circle cx="162.08175899033463" cy="110.49708202105583" r="0.7528092858940815" fill="#FFA07A" fill-opacity="0.7" />
<circle cx="155.90112899770884" cy="110.15462522747093" r="1.4382893130542411" fill="#FFA07A" fill-opacity="0.7" />
<circle cx="158.84908128566312" cy="111.43976778135884" r="1.0357013509748236" fill="#FFA07A" fill-opacity="0.7" />
<circle cx="163.5667094712936" cy="119.87691690327662" r="1.3044277432129996" fill="#FFA07A" fill-opacity="0.7" />
<circle cx="37.99317973244288" cy="69.41892752190593" r="11.735707857058815" fill="#C92A2A" stroke="#800000" stroke-width="1" />
<circle cx="34.02358863418679" cy="71.77322357900049" r="1.062847650323791" fill="#FFA07A" fill-opacity="0.7" />
<circle cx="43.41429294584874" cy="64.03618510642343" r="0.8395782068803672" fill="#FFA07A" fill-opacity="0.7" />
<circle cx="32.10111010773959" cy="70.54699333467235" r="1.3155812315880087" fill="#FFA07A" fill-opacity="0.7" />
<circle cx="33.36395584518229" cy="72.68832096388375" r="0.9120030711926422" fill="#FFA07A" fill-opacity="0.7" />
<circle cx="39.93132407981259" cy="66.10860163898094" r="1.1343351400574209" fill="#FFA07A" fill-opacity="0.7" />
<circle cx="58.26218348252934" cy="133.1545817707586" r="10.855839846791785" fill="#C92A2A" stroke="#800000" stroke-width="1" />
<circle cx="54.426232247699026" cy="134.8451969018765" r="1.4290043495214122" fill="#FFA07A" fill-opacity="0.7" />
<circle cx="58.320657251198305" cy="135.02626553089397" r="1.488067642276735" fill="#FFA07A" fill-opacity="0.7" />
<circle cx="54.41464225000463" cy="130.09012046185285" r="0.6433699114682903" fill="#FFA07A" fill-opacity="0.7" />
<circle cx="54.003322891802014" cy="137.7039740032095" r="0.6944859890097943" fill="#FFA07A" fill-opacity="0.7" />
<circle cx="63.26426500889242" cy="137.16308959421522" r="0.5406399106366173" fill="#FFA07A" fill-opacity="0.7" />
<circle cx="62.313886703391375" cy="127.7452925187664" r="1.0503729645561153" fill="#FFA07A" fill-opacity="0.7" />
<circle cx="53.68681022193088" cy="103.66579374689218" r="9.09572302036041" fill="#C92A2A" stroke="#800000" stroke-width="1" />
<circle cx="54.375094092361785" cy="100.68310893517733" r="1.3804646688365767" fill="#FFA07A" fill-opacity="0.7" />
<circle cx="48.4843505108976" cy="104.59580291542976" r="1.175164361403712" fill="#FFA07A" fill-opacity="0.7" />
<circle cx="50.715355320172506" cy="107.61887764674069" r="0.7425739232915438" fill="#FFA07A" fill-opacity="0.7" />
<circle cx="57.07608067178588" cy="107.91783150665357" r="0.9615658738284703" fill="#FFA07A" fill-opacity="0.7" />
<circle cx="51.623150495952025" cy="103.06363375192119" r="1.062531106944345" fill="#FFA07A" fill-opacity="0.7" />
<circle cx="55.51730252360041" cy="127.0163139092796" r="9.110847001558524" fill="#C92A2A" stroke="#800000" stroke-width="1" />
<circle cx="61.319860393149156" cy="121.79346234171423" r="1.44169346751943" fill="#FFA07A" fill-opacity="0.7" />
<circle cx="52.0281020547774" cy="128.67066461949875" r="1.1927239448031774" fill="#FFA07A" fill-opacity="0.7" />
<circle cx="50.572834554916504" cy="132.50462062872646" r="1.3923479384708277" fill="#FFA07A" fill-opacity="0.7" />
</g>
<path d="M105.0,105.0 L200.10565162951536,74.09830056250526 A100,100,0,0,1,163.77852522924732,185.90169943749476 Z" fill="#F5C754" stroke="lightgray" stroke-width="2" />
<use xlink:href="#clip-4524471136-4535501136" />
<g clip-path="url(#clip-4524471136-4535501136)">
<circle cx="105.0" cy="105.0" r="92" stroke="#DAA05D" stroke-width="16" fill="none" />
<circle cx="105.0" cy="105.0" r="98" stroke="#C37B32" stroke-width="5" fill="none" />
<circle cx="54.94323998186593" cy="137.6913919267575" r="4.571521339428826" fill="#FFDE75" fill-opacity="0.4577242394091626" />
<circle cx="101.16747806440915" cy="180.58862955606503" r="3.010555575442136" fill="#FFFFFF" fill-opacity="0.277818807286999" />
<circle cx="44.55295542394384" cy="62.812911084766334" r="4.059578819880925" fill="#FFFFFF" fill-opacity="0.3692198292348646" />
<circle cx="80.54217118860788" cy="178.3355317487796" r="2.7003194391880623" fill="#D2691E" fill-opacity="0.3297050248303071" />
<circle cx="154.26798096478782" cy="69.44890562189488" r="2.7048512100586324" fill="#8B4513" fill-opacity="0.4870540237766373" />
<circle cx="146.72476757086315" cy="32.81065951743295" r="3.703280575814828" fill="#FFFFFF" fill-opacity="0.27416068991579856" />
<circle cx="61.16098770627092" cy="43.59515332558171" r="4.861045994612555" fill="#D2691E" fill-opacity="0.4103759578656705" />
<circle cx="111.74734282868566" cy="144.11631623430662" r="5.475531970499118" fill="#D2691E" fill-opacity="0.34681065645554165" />
<circle cx="160.51308470240235" cy="94.65860899903622" r="3.1371416159679018" fill="#D2691E" fill-opacity="0.5001556818207191" />
<circle cx="28.04487946275212" cy="103.05939536280707" r="5.326519029454855" fill="#8B4513" fill-opacity="0.2102487475085246" />
<circle cx="67.90589522388811" cy="172.8535321284699" r="2.0048599482127925" fill="#FFFFFF" fill-opacity="0.5589428410205896" />
<circle cx="42.04356311238641" cy="90.18126460244169" r="5.97136310436014" fill="#FFFFFF" fill-opacity="0.377074237956718" />
<circle cx="128.81757686331323" cy="130.33571431144537" r="3.2510486127531335" fill="#FFFFFF" fill-opacity="0.4754307002408108" />
<circle cx="51.437662184091245" cy="81.59849827621144" r="4.202830046039907" fill="#D2691E" fill-opacity="0.5743389412906028" />
<circle cx="97.06011671771289" cy="140.38128932041545" r="2.641707491686508" fill="#FFDE75" fill-opacity="0.35309147463877844" />
<circle cx="122.97122522866037" cy="96.11659415842406" r="4.582138431946307" fill="#FFFFFF" fill-opacity="0.5599933389734639" />
<circle cx="136.79762385359018" cy="179.91073332547467" r="5.353256617258672" fill="#FFFFFF" fill-opacity="0.3460199467691096" />
<circle cx="70.7568849402972" cy="128.40542951400982" r="2.799222966812126" fill="#D2691E" fill-opacity="0.24060193100270977" />
<circle cx="79.74366198180206" cy="87.36167527139098" r="3.63991854084506" fill="#FFDE75" fill-opacity="0.254666724543547" />
<circle cx="20.735875731938563" cy="93.91887846719605" r="2.898393380816168" fill="#FFDE75" fill-opacity="0.5835242435432046" />
<circle cx="81.10621456723607" cy="94.94534616307337" r="5.8849366928176305" fill="#8B4513" fill-opacity="0.49281878983367255" />
<circle cx="68.21669715027932" cy="134.6815131175152" r="2.6438631232828183" fill="#D2691E" fill-opacity="0.584327741239913" />
<circle cx="63.79967004558624" cy="39.69127447085714" r="5.903423378226215" fill="#D2691E" fill-opacity="0.5306138529870514" />
<circle cx="48.52153731939435" cy="96.1398195682503" r="2.130672801167228" fill="#FFDE75" fill-opacity="0.4149300067909767" />
<circle cx="168.38576240039725" cy="86.54832631443134" r="3.584209295753708" fill="#D2691E" fill-opacity="0.5110798556704974" />
<circle cx="137.6314699904334" cy="143.90427619812218" r="3.4436523532360592" fill="#8B4513" fill-opacity="0.5364005985433629" />
<circle cx="103.6188175422855" cy="176.90665078456425" r="4.337890594937757" fill="#D2691E" fill-opacity="0.38344694482913705" />
<circle cx="91.07856538363944" cy="151.73363635350307" r="2.2053103482198457" fill="#D2691E" fill-opacity="0.22810005791006263" />
<circle cx="55.60372548541173" cy="141.59614152531398" r="5.064915997685724" fill="#FFFFFF" fill-opacity="0.2648514372101587" />
<circle cx="74.081693881498" cy="89.66049153099452" r="3.0358022805628027" fill="#D2691E" fill-opacity="0.49288561564398803" />
<circle cx="148.72067519912463" cy="91.08667319423446" r="10.113525948541485" fill="#C92A2A" stroke="#800000" stroke-width="1" />
<circle cx="146.66040340832762" cy="88.53841771076796" r="1.1391776611683264" fill="#FFA07A" fill-opacity="0.7" />
<circle cx="144.83016188084736" cy="92.70726075581436" r="0.6382358566785302" fill="#FFA07A" fill-opacity="0.7" />
<circle cx="148.88548805195862" cy="92.64223021373292" r="1.3704062884791464" fill="#FFA07A" fill-opacity="0.7" />
<circle cx="143.0660309489261" cy="89.43241216754335" r="1.1760330929732707" fill="#FFA07A" fill-opacity="0.7" />
<circle cx="143.63539824287295" cy="93.85813058364238" r="0.9108516023986393" fill="#FFA07A" fill-opacity="0.7" />
<circle cx="166.48480426305488" cy="114.11184845225904" r="9.895385900223829" fill="#C92A2A" stroke="#800000" stroke-width="1" />
<circle cx="165.892468687792" cy="119.70892192012076" r="1.2779586337253033" fill="#FFA07A" fill-opacity="0.7" />
<circle cx="165.31687775103796" cy="119.72221088960976" r="0.9983636353341973" fill="#FFA07A" fill-opacity="0.7" />
<circle cx="170.30995123700285" cy="113.23360066924559" r="0.6645466965507897" fill="#FFA07A" fill-opacity="0.7" />
<circle cx="163.21029500397955" cy="115.65889493041583" r="0.9530715327928808" fill="#FFA07A" fill-opacity="0.7" />
<circle cx="102.19589680660411" cy="31.96804983525962" r="9.338602729053505" fill="#C92A2A" stroke="#800000" stroke-width="1" />
<circle cx="98.44613320231593" cy="37.776891499525085" r="1.3198524355193126" fill="#FFA07A" fill-opacity="0.7" />
<circle cx="97.30756912130639" cy="35.99085916447372" r="1.258767706716311" fill="#FFA07A" fill-opacity="0.7" />
<circle cx="96.71862160131232" cy="30.484550395224538" r="1.1236395936711718" fill="#FFA07A" fill-opacity="0.7" />
<circle cx="97.92065336344787" cy="35.114810374799106" r="1.461252128203336" fill="#FFA07A" fill-opacity="0.7" />
<circle cx="101.78072956128545" cy="29.302115488512282" r="0.8241153397424829" fill="#FFA07A" fill-opacity="0.7" />
<circle cx="158.582673808676" cy="114.91602023792073" r="10.873174176926362" fill="#C92A2A" stroke="#800000" stroke-width="1" />
<circle cx="156.9276247460648" cy="120.39286731963114" r="1.1265714906971827" fill="#FFA07A" fill-opacity="0.7" />
<circle cx="155.12940152324597" cy="120.23694441297008" r="1.1904519544689698" fill="#FFA07A" fill-opacity="0.7" />
<circle cx="162.9971736714323" cy="114.13220271200058" r="0.5124482470164315" fill="#FFA07A" fill-opacity="0.7" />
<circle cx="162.08175899033463" cy="110.49708202105583" r="0.7528092858940815" fill="#FFA07A" fill-opacity="0.7" />
<circle cx="155.90112899770884" cy="110.15462522747093" r="1.4382893130542411" fill="#FFA07A" fill-opacity="0.7" />
<circle cx="158.84908128566312" cy="111.43976778135884" r="1.0357013509748236" fill="#FFA07A" fill-opacity="0.7" />
<circle cx="163.5667094712936" cy="119.87691690327662" r="1.3044277432129996" fill="#FFA07A" fill-opacity="0.7" />
<circle cx="37.99317973244288" cy="69.41892752190593" r="11.735707857058815" fill="#C92A2A" stroke="#800000" stroke-width="1" />
<circle cx="34.02358863418679" cy="71.77322357900049" r="1.062847650323791" fill="#FFA07A" fill-opacity="0.7" />
<circle cx="43.41429294584874" cy="64.03618510642343" r="0.8395782068803672" fill="#FFA07A" fill-opacity="0.7" />
<circle cx="32.10111010773959" cy="70.54699333467235" r="1.3155812315880087" fill="#FFA07A" fill-opacity="0.7" />
<circle cx="33.36395584518229" cy="72.68832096388375" r="0.9120030711926422" fill="#FFA07A" fill-opacity="0.7" />
<circle cx="39.93132407981259" cy="66.10860163898094" r="1.1343351400574209" fill="#FFA07A" fill-opacity="0.7" />
<circle cx="58.26218348252934" cy="133.1545817707586" r="10.855839846791785" fill="#C92A2A" stroke="#800000" stroke-width="1" />
<circle cx="54.426232247699026" cy="134.8451969018765" r="1.4290043495214122" fill="#FFA07A" fill-opacity="0.7" />
<circle cx="58.320657251198305" cy="135.02626553089397" r="1.488067642276735" fill="#FFA07A" fill-opacity="0.7" />
<circle cx="54.41464225000463" cy="130.09012046185285" r="0.6433699114682903" fill="#FFA07A" fill-opacity="0.7" />
<circle cx="54.003322891802014" cy="137.7039740032095" r="0.6944859890097943" fill="#FFA07A" fill-opacity="0.7" />
<circle cx="63.26426500889242" cy="137.16308959421522" r="0.5406399106366173" fill="#FFA07A" fill-opacity="0.7" />
<circle cx="62.313886703391375" cy="127.7452925187664" r="1.0503729645561153" fill="#FFA07A" fill-opacity="0.7" />
<circle cx="53.68681022193088" cy="103.66579374689218" r="9.09572302036041" fill="#C92A2A" stroke="#800000" stroke-width="1" />
<circle cx="54.375094092361785" cy="100.68310893517733" r="1.3804646688365767" fill="#FFA07A" fill-opacity="0.7" />
<circle cx="48.4843505108976" cy="104.59580291542976" r="1.175164361403712" fill="#FFA07A" fill-opacity="0.7" />
<circle cx="50.715355320172506" cy="107.61887764674069" r="0.7425739232915438" fill="#FFA07A" fill-opacity="0.7" />
<circle cx="57.07608067178588" cy="107.91783150665357" r="0.9615658738284703" fill="#FFA07A" fill-opacity="0.7" />
<circle cx="51.623150495952025" cy="103.06363375192119" r="1.062531106944345" fill="#FFA07A" fill-opacity="0.7" />
<circle cx="55.51730252360041" cy="127.0163139092796" r="9.110847001558524" fill="#C92A2A" stroke="#800000" stroke-width="1" />
<circle cx="61.319860393149156" cy="121.79346234171423" r="1.44169346751943" fill="#FFA07A" fill-opacity="0.7" />
<circle cx="52.0281020547774" cy="128.67066461949875" r="1.1927239448031774" fill="#FFA07A" fill-opacity="0.7" />
<circle cx="50.572834554916504" cy="132.50462062872646" r="1.3923479384708277" fill="#FFA07A" fill-opacity="0.7" />
</g>
<rect x="230.0" y="41.0" width="54.0" height="54.0" fill="none" stroke="black" stroke-width="2" />
<rect x="230.0" y="115.0" width="54.0" height="54.0" fill="none" stroke="black" stroke-width="2" />
<path d="M225.0,105.0 L289.0,105.0" stroke="black" stroke-width="2" />
</g>
</svg>
</svg>