<svg width="660.0" height="210.0" xmlns="http://www.w3.org/2000/svg" xmlns:xlink="http://www.w3.org/1999/xlink">
<svg x="0.0" y="0.0" width="210.0" height="210.0" viewBox="0 0 210 210" xmlns="http://www.w3.org/2000/svg" xmlns:xlink="http://www.w3.org/1999/xlink">
<defs>
<clipPath id="clip-4535356112-4521844976">
<path d="M105.0,105.0 L105.0,5.0 A100,100,0,0,1,205.0,105.0 Z" fill="none" />
</clipPath>
</defs>
<g>
<path d="M105.0,105.0 L105.0,5.0 A100,100,0,0,1,205.0,105.0 Z" fill="none" stroke="lightgray" stroke-width="2" />
<path d="M105.0,105.0 L205.0,105.0 A100,100,0,0,1,105.0,205.0 Z" fill="none" stroke="lightgray" stroke-width="2" />
<path d="M105.0,105.0 L105.0,205.0 A100,100,0,0,1,5.0,105.00000000000001 Z" fill="none" stroke="lightgray" stroke-width="2" />
<path d="M105.0,105.0 L5.0,105.00000000000001 A100,100,0,0,1,104.99999999999999,5.0 Z" fill="none" stroke="lightgray" stroke-width="2" />
<path d="M105.0,105.0 L105.0,5.0 A100,100,0,0,1,205.0,105.0 Z" fill="#F5C754" stroke="lightgray" stroke-width="2" />
<use xlink:href="#clip-4535356112-4521844976" />
<g clip-path="url(#clip-4535356112-4521844976)">
<circle cx="105.0" cy="105.0" r="92" stroke="#DAA05D" stroke-width="16" fill="none" />
<circle cx="105.0" cy="105.0" r="98" stroke="#C37B32" stroke-width="5" fill="none" />
<circle cx="141.23676851114863" cy="124.76859972893035" r="5.966909519186754" fill="#D2691E" fill-opacity="0.4741346728587509" />
<circle cx="119.51053849622542" cy="164.54287991846255" r="5.37426000012726" fill="#FFFFFF" fill-opacity="0.28883650856805293" />
<circle cx="35.94201548967638" cy="154.22680212262296" r="5.143747910149534" fill="#FFDE75" fill-opacity="0.3643210995045487" />
<circle cx="119.1546998425736" cy="123.82822815717316" r="3.4832027937597365" fill="#FFFFFF" fill-opacity="0.4524323762630907" />
<circle cx="93.54430031457616" cy="118.81771770599667" r="3.8282025686993144" fill="#8B4513" fill-opacity="0.5253704079847477" />
<circle cx="57.49462441554844" cy="141.81427549542641" r="2.907546378214613" fill="#D2691E" fill-opacity="0.5123635221200555" />
<circle cx="53.36718684769681" cy="117.50627605928041" r="3.268596045498265" fill="#FFDE75" fill-opacity="0.36475800855766394" />
<circle cx="142.2605109168025" cy="116.30742593658547" r="3.2877424864171476" fill="#FFFFFF" fill-opacity="0.29348945157510065" />
<circle cx="108.15478877373914" cy="117.93674847309708" r="4.756728934374948" fill="#D2691E" fill-opacity="0.5951446819949722" />
<circle cx="50.68097684902196" cy="170.36467031115856" r="3.4601412251418715" fill="#8B4513" fill-opacity="0.32432807975278766" />
<circle cx="106.05667607338845" cy="118.38704075440141" r="2.575763082725026" fill="#D2691E" fill-opacity="0.4957796538578755" />
<circle cx="44.865730476035644" cy="127.14348219875433" r="2.1986386169641894" fill="#D2691E" fill-opacity="0.21730237970063496" />
<circle cx="99.87280679446913" cy="167.9931432451449" r="2.087946679219846" fill="#FFFFFF" fill-opacity="0.3438931765154658" />
<circle cx="118.0943431200339" cy="34.20721010070706" r="3.075479666180947" fill="#FFFFFF" fill-opacity="0.20562637395019934" />
<circle cx="67.15916513733754" cy="146.96993572200395" r="5.412231759044399" fill="#FFFFFF" fill-opacity="0.22901288167413478" />
<ellipse cx="150.87703826841533" cy="39.057413453608845" rx="6.687063840194911" ry="6.052222348796124" fill="#FFFDF0" fill-opacity="0.6" />
<ellipse cx="150.01921119496484" cy="39.05821080038132" rx="4.743859856540402" ry="2.222969647312688" fill="#FFFFFF" fill-opacity="0.85" />
<ellipse cx="153.99721147599232" cy="135.15795294290567" rx="6.517858782101013" ry="6.095169227859857" fill="#FFFDF0" fill-opacity="0.6" />
<ellipse cx="154.67180315811234" cy="134.22758352918936" rx="2.30368992277437" ry="3.725471938420174" fill="#FFFFFF" fill-opacity="0.85" />
<ellipse cx="39.90143539902445" cy="152.10965729054575" rx="8.856430747438374" ry="6.476527072583101" fill="#FFFDF0" fill-opacity="0.6" />
<ellipse cx="38.95986795683631" cy="151.19729596487764" rx="3.315039024079929" ry="2.019817285827747" fill="#FFFFFF" fill-opacity="0.85" />
</g>
</g>
</svg>
<svg x="225.0" y="0.0" width="210.0" height="210.0" viewBox="0 0 210 210" xmlns="http://www.w3.org/2000/svg" xmlns:xlink="http://www.w3.org/1999/xlink">
<defs>
<clipPath id="clip-4524453520-4472730384">
<path d="M105.0,105.0 L105.0,5.0 A100,100,0,0,1,200.10565162951536,74.09830056250526 Z" fill="none" />
</clipPath>
<clipPath id="clip-4524453520-4535519552">
<path d="M105.0,105.0 L200.10565162951536,74.09830056250526 A100,100,0,0,1,163.77852522924732,185.90169943749476 Z" fill="none" />
</clipPath>
</defs>
<g>
<path d="M105.0,105.0 L105.0,5.0 A100,100,0,0,1,200.10565162951536,74.09830056250526 Z" fill="none" stroke="lightgray" stroke-width="2" />
<path d="M105.0,105.0 L200.10565162951536,74.09830056250526 A100,100,0,0,1,163.77852522924732,185.90169943749476 Z" fill="none" stroke="lightgray" stroke-width="2" />
<path d="M105.0,105.0 L163.77852522924732,185.90169943749476 A100,100,0,0,1,46.2214747707527,185.90169943749476 Z" fill="none" stroke="lightgray" stroke-width="2" />
<path d="M105.0,105.0 L46.2214747707527,185.90169943749476 A100,100,0,0,1,9.894348370484636,74.09830056250527 Z" fill="none" stroke="lightgray" stroke-width="2" />
<path d="M105.0,105.0 L9.894348370484636,74.09830056250527 A100,100,0,0,1,104.99999999999999,5.0 Z" fill="none" stroke="lightgray" stroke-width="2" />
<path d="M105.0,105.0 L105.0,5.0 A100,100,0,0,1,200.10565162951536,74.09830056250526 Z" fill="#F5C754" stroke="lightgray" stroke-width="2" />
<use xlink:href="#clip-4524453520-4472730384" />
<g clip-path="url(#clip-4524453520-4472730384)">
<circle cx="105.0" cy="105.0" r="92" stroke="#DAA05D" stroke-width="16" fill="none" />
<circle cx="105.0" cy="105.0" r="98" stroke="#C37B32" stroke-width="5" fill="none" />
<circle cx="105.8747248863518" cy="67.71258880787317" r="5.342935807961545" fill="#D2691E" fill-opacity="0.29700150443700984" />
<circle cx="72.62905212562202" cy="80.01452266860534" r="5.221100488420845" fill="#D2691E" fill-opacity="0.33964318735426124" />
<circle cx="104.98009180491576" cy="137.13848804738734" r="5.891883481255324" fill="#D2691E" fill-opacity="0.2001826934021732" />
<circle cx="88.65895300708125" cy="47.813213784450014" r="2.686969003474998" fill="#D2691E" fill-opacity="0.42001310251069957" />
<circle cx="141.33831886878488" cy="40.05876878486335" r="5.693972405769113" fill="#8B4513" fill-opacity="0.30283484843290653" />
<circle cx="139.91004196029508" cy="50.16305349795287" r="2.129110094895111" fill="#FFFFFF" fill-opacity="0.5368229574269936" />
<circle cx="106.2198636304199" cy="120.84308349845476" r="5.514089576688572" fill="#FFFFFF" fill-opacity="0.4153803802031564" />
<circle cx="183.2638060455535" cy="77.88456950057821" r="3.3458079853371805" fill="#FFDE75" fill-opacity="0.5615349671597578" />
<circle cx="93.47020037282194" cy="127.37189826280373" r="5.638673251206223" fill="#FFFFFF" fill-opacity="0.4239701241845199" />
<circle cx="119.87357756514038" cy="160.84119041100328" r="2.7710270953370677" fill="#D2691E" fill-opacity="0.4090513405978172" />
<circle cx="123.68181855584596" cy="165.33804594202795" r="2.071195126931847" fill="#8B4513" fill-opacity="0.519426353016937" />
<circle cx="57.351578764947405" cy="169.46379681816128" r="3.9126277189431438" fill="#FFDE75" fill-opacity="0.33107800087921235" />
<circle cx="45.27371908905603" cy="71.73043078194095" r="2.048923758132349" fill="#8B4513" fill-opacity="0.3725052915676712" />
<circle cx="129.83468745690334" cy="120.16085260496463" r="4.802859808886385" fill="#D2691E" fill-opacity="0.5973820408978432" />
<circle cx="50.27258811013019" cy="105.5104644018956" r="3.6509894508495573" fill="#D2691E" fill-opacity="0.5095709425496248" />
<circle cx="117.38021638581625" cy="184.7787686227677" r="3.8400292593967613" fill="#D2691E" fill-opacity="0.5707256217185024" />
<circle cx="122.80497843338387" cy="159.0032467429036" r="3.7261106908444326" fill="#D2691E" fill-opacity="0.5936429223657584" />
<circle cx="73.15167842323024" cy="29.43885540485141" r="2.5356075323177323" fill="#FFFFFF" fill-opacity="0.2957338890469941" />
<circle cx="179.63813449624078" cy="131.0246840362442" r="4.7184480261497725" fill="#FFFFFF" fill-opacity="0.21179149016848886" />
<circle cx="129.70149488716925" cy="174.2431813028111" r="5.7577040030642355" fill="#D2691E" fill-opacity="0.3040838137769674" />
<circle cx="37.793425741216495" cy="117.51077956223384" r="3.614767723747223" fill="#8B4513" fill-opacity="0.462653873473376" />
<circle cx="39.163251089484945" cy="56.110082961692605" r="2.8520548954484877" fill="#FFFFFF" fill-opacity="0.4053370559560352" />
<circle cx="164.877977125633" cy="69.55049979440048" r="5.498708150376117" fill="#FFFFFF" fill-opacity="0.313734156265948" />
<circle cx="120.41812242150235" cy="165.51092588400957" r="3.836375162613855" fill="#FFFFFF" fill-opacity="0.35383731004024416" />
<circle cx="80.5429632536033" cy="97.53426758145636" r="2.966818356516696" fill="#FFDE75" fill-opacity="0.24483624071667218" />
<circle cx="91.65492405348134" cy="184.60501964969262" r="5.804385869472995" fill="#D2691E" fill-opacity="0.4556364766486557" />
<circle cx="38.58467675859761" cy="146.0956691127721" r="4.648253920356256" fill="#D2691E" fill-opacity="0.3230079197428145" />
<circle cx="163.26091474155626" cy="73.38811189376608" r="4.95357364771193" fill="#FFDE75" fill-opacity="0.31797203861512036" />
<circle cx="92.7794250124115" cy="127.69595608676947" r="4.701297400727138" fill="#8B4513" fill-opacity="0.4966485492529434" />
<circle cx="71.47412073871412" cy="117.65632915868584" r="4.347631367199494" fill="#FFDE75" fill-opacity="0.5329388819314507" />
<ellipse cx="53.706999458703805" cy="93.6868308736716" rx="9.538206253226871" ry="4.1726639884784635" fill="#FFFDF0" fill-opacity="0.6" />
<ellipse cx="54.67555157803333" cy="92.74786675499327" rx="2.7949531586053844" ry="3.678052354073655" fill="#FFFFFF" fill-opacity="0.85" />
<ellipse cx="59.64700988680305" cy="116.69190032896265" rx="8.215699007333832" ry="4.360508095627559" fill="#FFFDF0" fill-opacity="0.6" />
<ellipse cx="59.74161700203968" cy="116.07937658621078" rx="3.053084888775399" ry="3.3839429488635098" fill="#FFFFFF" fill-opacity="0.85" />
<ellipse cx="62.14052873638675" cy="73.14980526460829" rx="7.911070155264435" ry="8.596467779783826" fill="#FFFDF0" fill-opacity="0.6" />
<ellipse cx="62.45141989089945" cy="73.22454741077614" rx="3.384907482673378" ry="3.9419360854471046" fill="#FFFFFF" fill-opacity="0.85" />
<ellipse cx="60.54584947413672" cy="55.56817506759258" rx="9.934822641336964" ry="7.160157293495942" fill="#FFFDF0" fill-opacity="0.6" />
<ellipse cx="59.604987955342246" cy="55.62853637319338" rx="2.9440766911900265" ry="2.7642223031921187" fill="#FFFFFF" fill-opacity="0.85" />
<ellipse cx="64.32605392739931" cy="116.83991499312528" rx="8.77869437764774" ry="5.9057590552180335" fill="#FFFDF0" fill-opacity="0.6" />
<ellipse cx="63.63835296850079" cy="117.75029728823755" rx="4.599445903582763" ry="3.730049733441028" fill="#FFFFFF" fill-opacity="0.85" />
<ellipse cx="98.41986915632506" cy="54.81132263761867" rx="9.172828216108538" ry="7.512641242745127" fill="#FFFDF0" fill-opacity="0.6" />
<ellipse cx="97.95148212390758" cy="55.43512590632935" rx="3.0701922208028933" ry="2.179805829345278" fill="#FFFFFF" fill-opacity="0.85" />
</g>
<path d="M105.0,105.0 L200.10565162951536,74.09830056250526 A100,100,0,0,1,163.77852522924732,185.90169943749476 Z" fill="#F5C754" stroke="lightgray" stroke-width="2" />
<use xlink:href="#clip-4524453520-4535519552" />
<g clip-path="url(#clip-4524453520-4535519552)">
<circle cx="105.0" cy="105.0" r="92" stroke="#DAA05D" stroke-width="16" fill="none" />
<circle cx="105.0" cy="105.0" r="98" stroke="#C37B32" stroke-width="5" fill="none" />
<circle cx="105.8747248863518" cy="67.71258880787317" r="5.342935807961545" fill="#D2691E" fill-opacity="0.29700150443700984" />
<circle cx="72.62905212562202" cy="80.01452266860534" r="5.221100488420845" fill="#D2691E" fill-opacity="0.33964318735426124" />
<circle cx="104.98009180491576" cy="137.13848804738734" r="5.891883481255324" fill="#D2691E" fill-opacity="0.2001826934021732" />
<circle cx="88.65895300708125" cy="47.813213784450014" r="2.686969003474998" fill="#D2691E" fill-opacity="0.42001310251069957" />
<circle cx="141.33831886878488" cy="40.05876878486335" r="5.693972405769113" fill="#8B4513" fill-opacity="0.30283484843290653" />
<circle cx="139.91004196029508" cy="50.16305349795287" r="2.129110094895111" fill="#FFFFFF" fill-opacity="0.5368229574269936" />
<circle cx="106.2198636304199" cy="120.84308349845476" r="5.514089576688572" fill="#FFFFFF" fill-opacity="0.4153803802031564" />
<circle cx="183.2638060455535" cy="77.88456950057821" r="3.3458079853371805" fill="#FFDE75" fill-opacity="0.5615349671597578" />
<circle cx="93.47020037282194" cy="127.37189826280373" r="5.638673251206223" fill="#FFFFFF" fill-opacity="0.4239701241845199" />
<circle cx="119.87357756514038" cy="160.84119041100328" r="2.7710270953370677" fill="#D2691E" fill-opacity="0.4090513405978172" />
<circle cx="123.68181855584596" cy="165.33804594202795" r="2.071195126931847" fill="#8B4513" fill-opacity="0.519426353016937" />
<circle cx="57.351578764947405" cy="169.46379681816128" r="3.9126277189431438" fill="#FFDE75" fill-opacity="0.33107800087921235" />
<circle cx="45.27371908905603" cy="71.73043078194095" r="2.048923758132349" fill="#8B4513" fill-opacity="0.3725052915676712" />
<circle cx="129.83468745690334" cy="120.16085260496463" r="4.802859808886385" fill="#D2691E" fill-opacity="0.5973820408978432" />
<circle cx="50.27258811013019" cy="105.5104644018956" r="3.6509894508495573" fill="#D2691E" fill-opacity="0.5095709425496248" />
<circle cx="117.38021638581625" cy="184.7787686227677" r="3.8400292593967613" fill="#D2691E" fill-opacity="0.5707256217185024" />
<circle cx="122.80497843338387" cy="159.0032467429036" r="3.7261106908444326" fill="#D2691E" fill-opacity="0.5936429223657584" />
<circle cx="73.15167842323024" cy="29.43885540485141" r="2.5356075323177323" fill="#FFFFFF" fill-opacity="0.2957338890469941" />
<circle cx="179.63813449624078" cy="131.0246840362442" r="4.7184480261497725" fill="#FFFFFF" fill-opacity="0.21179149016848886" />
<circle cx="129.70149488716925" cy="174.2431813028111" r="5.7577040030642355" fill="#D2691E" fill-opacity="0.3040838137769674" />
<circle cx="37.793425741216495" cy="117.51077956223384" r="3.614767723747223" fill="#8B4513" fill-opacity="0.462653873473376" />
<circle cx="39.163251089484945" cy="56.110082961692605" r="2.8520548954484877" fill="#FFFFFF" fill-opacity="0.4053370559560352" />
<circle cx="164.877977125633" cy="69.55049979440048" r="5.498708150376117" fill="#FFFFFF" fill-opacity="0.313734156265948" />
<circle cx="120.41812242150235" cy="165.51092588400957" r="3.836375162613855" fill="#FFFFFF" fill-opacity="0.35383731004024416" />
<circle cx="80.5429632536033" cy="97.53426758145636" r="2.966818356516696" fill="#FFDE75" fill-opacity="0.24483624071667218" />
<circle cx="91.65492405348134" cy="184.60501964969262" r="5.804385869472995" fill="#D2691E" fill-opacity="0.4556364766486557" />
<circle cx="38.58467675859761" cy="146.0956691127721" r="4.648253920356256" fill="#D2691E" fill-opacity="0.3230079197428145" />
<circle cx="163.26091474155626" cy="73.38811189376608" r="4.95357364771193" fill="#FFDE75" fill-opacity="0.31797203861512036" />
<circle cx="92.7794250124115" cy="127.69595608676947" r="4.701297400727138" fill="#8B4513" fill-opacity="0.4966485492529434" />
<circle cx="71.47412073871412" cy="117.65632915868584" r="4.347631367199494" fill="#FFDE75" fill-opacity="0.5329388819314507" />
<ellipse cx="53.706999458703805" cy="93.6868308736716" rx="9.538206253226871" ry="4.1726639884784635" fill="#FFFDF0" fill-opacity="0.6" />
<ellipse cx="54.67555157803333" cy="92.74786675499327" rx="2.7949531586053844" ry="3.678052354073655" fill="#FFFFFF" fill-opacity="0.85" />
<ellipse cx="59.64700988680305" cy="116.69190032896265" rx="8.215699007333832" ry="4.360508095627559" fill="#FFFDF0" fill-opacity="0.6" />
<ellipse cx="59.74161700203968" cy="116.07937658621078" rx="3.053084888775399" ry="3.3839429488635098" fill="#FFFFFF" fill-opacity="0.85" />
<ellipse cx="62.14052873638675" cy="73.14980526460829" rx="7.911070155264435" ry="8.596467779783826" fill="#FFFDF0" fill-opacity="0.6" />
<ellipse cx="62.45141989089945" cy="73.22454741077614" rx="3.384907482673378" ry="3.9419360854471046" fill="#FFFFFF" fill-opacity="0.85" />
<ellipse cx="60.54584947413672" cy="55.56817506759258" rx="9.934822641336964" ry="7.160157293495942" fill="#FFFDF0" fill-opacity="0.6" />
<ellipse cx="59.604987955342246" cy="55.62853637319338" rx="2.9440766911900265" ry="2.7642223031921187" fill="#FFFFFF" fill-opacity="0.85" />
<ellipse cx="64.32605392739931" cy="116.83991499312528" rx="8.77869437764774" ry="5.9057590552180335" fill="#FFFDF0" fill-opacity="0.6" />
<ellipse cx="63.63835296850079" cy="117.75029728823755" rx="4.599445903582763" ry="3.730049733441028" fill="#FFFFFF" fill-opacity="0.85" />
<ellipse cx="98.41986915632506" cy="54.81132263761867" rx="9.172828216108538" ry="7.512641242745127" fill="#FFFDF0" fill-opacity="0.6" />
<ellipse cx="97.95148212390758" cy="55.43512590632935" rx="3.0701922208028933" ry="2.179805829345278" fill="#FFFFFF" fill-opacity="0.85" />
</g>
</g>
</svg>
<svg x="450.0" y="0.0" width="210.0" height="210.0" viewBox="0 0 210 210" xmlns="http://www.w3.org/2000/svg" xmlns:xlink="http://www.w3.org/1999/xlink">
<defs>
<clipPath id="clip-4535261200-4535007056">
<path d="M105.0,105.0 L105.0,5.0 A100,100,0,0,1,191.60254037844388,55.00000000000001 Z" fill="none" />
</clipPath>
<clipPath id="clip-4535261200-4534998224">
<path d="M105.0,105.0 L191.60254037844388,55.00000000000001 A100,100,0,0,1,191.60254037844388,155.0 Z" fill="none" />
</clipPath>
<clipPath id="clip-4535261200-4535589584">
<path d="M105.0,105.0 L191.60254037844388,155.0 A100,100,0,0,1,105.0,205.0 Z" fill="none" />
</clipPath>
<clipPath id="clip-4535261200-4535625552">
<path d="M105.0,105.0 L105.0,205.0 A100,100,0,0,1,18.397459621556123,155.0 Z" fill="none" />
</clipPath>
</defs>
<g>
<path d="M105.0,105.0 L105.0,5.0 A100,100,0,0,1,191.60254037844388,55.00000000000001 Z" fill="none" stroke="lightgray" stroke-width="2" />
<path d="M105.0,105.0 L191.60254037844388,55.00000000000001 A100,100,0,0,1,191.60254037844388,155.0 Z" fill="none" stroke="lightgray" stroke-width="2" />
<path d="M105.0,105.0 L191.60254037844388,155.0 A100,100,0,0,1,105.0,205.0 Z" fill="none" stroke="lightgray" stroke-width="2" />
<path d="M105.0,105.0 L105.0,205.0 A100,100,0,0,1,18.397459621556123,155.0 Z" fill="none" stroke="lightgray" stroke-width="2" />
<path d="M105.0,105.0 L18.397459621556123,155.0 A100,100,0,0,1,18.397459621556138,54.999999999999986 Z" fill="none" stroke="lightgray" stroke-width="2" />
<path d="M105.0,105.0 L18.397459621556138,54.999999999999986 A100,100,0,0,1,104.99999999999999,5.0 Z" fill="none" stroke="lightgray" stroke-width="2" />
<path d="M105.0,105.0 L105.0,5.0 A100,100,0,0,1,191.60254037844388,55.00000000000001 Z" fill="#F5C754" stroke="lightgray" stroke-width="2" />
<use xlink:href="#clip-4535261200-4535007056" />
<g clip-path="url(#clip-4535261200-4535007056)">
<circle cx="105.0" cy="105.0" r="92" stroke="#DAA05D" stroke-width="16" fill="none" />
<circle cx="105.0" cy="105.0" r="98" stroke="#C37B32" stroke-width="5" fill="none" />
<circle cx="30.817107791984284" cy="109.20715237341868" r="4.727469256100733" fill="#FFFFFF" fill-opacity="0.457287539424534" />
<circle cx="87.05291982767724" cy="70.36872651944219" r="2.597979736219222" fill="#FFDE75" fill-opacity="0.37511636217462796" />
<circle cx="160.03481234399675" cy="66.09370168173322" r="2.532497389475224" fill="#FFDE75" fill-opacity="0.32836737665203125" />
<circle cx="169.19490885888425" cy="92.85775254021445" r="3.6734577838157465" fill="#FFDE75" fill-opacity="0.25106782529517424" />
<circle cx="47.44143305983004" cy="114.26243381586505" r="5.576113151927377" fill="#D2691E" fill-opacity="0.3306038970763564" />
<circle cx="100.27651498262595" cy="164.2957337363715" r="2.0042420390514786" fill="#FFFFFF" fill-opacity="0.5714325398621736" />
<circle cx="151.2424674794948" cy="168.55758112192083" r="4.530829840613622" fill="#FFFFFF" fill-opacity="0.35835249269537306" />
<circle cx="129.12751119600486" cy="139.96651132479366" r="5.097389016717269" fill="#FFFFFF" fill-opacity="0.49327375031708803" />
<circle cx="69.21076443975036" cy="171.49163688269385" r="2.162440995785981" fill="#FFDE75" fill-opacity="0.39243285970748787" />
<circle cx="165.60705078132654" cy="119.53140984681723" r="2.120231002140085" fill="#8B4513" fill-opacity="0.26865479757942345" />
<circle cx="136.62217121658253" cy="55.00310528668127" r="5.110144034863232" fill="#FFDE75" fill-opacity="0.46728665451196605" />
<circle cx="81.88957127967672" cy="95.88816244927986" r="5.375302945312676" fill="#FFFFFF" fill-opacity="0.39680044524294056" />
<circle cx="51.48261300491268" cy="170.61212984456597" r="2.695901788485132" fill="#D2691E" fill-opacity="0.42833382282418875" />
<circle cx="67.12733211937146" cy="125.46315732758154" r="5.3424997045519795" fill="#FFDE75" fill-opacity="0.5677371859182756" />
<circle cx="88.917995726052" cy="52.396097422390106" r="3.236745273568939" fill="#8B4513" fill-opacity="0.3252381234523545" />
<circle cx="162.38785149945338" cy="152.0094892938299" r="5.282865487575341" fill="#FFDE75" fill-opacity="0.3944084270673764" />
<circle cx="56.10097730420424" cy="58.96960253392636" r="4.757265080046496" fill="#D2691E" fill-opacity="0.37176912735352907" />
<circle cx="157.0504596682583" cy="58.67634014295964" r="4.223709569604576" fill="#8B4513" fill-opacity="0.2758242452119769" />
<circle cx="138.5448609044745" cy="127.54775460582056" r="3.536136268802275" fill="#FFFFFF" fill-opacity="0.484277138671843" />
<circle cx="70.0739086545893" cy="136.96265316444197" r="3.181109295972556" fill="#8B4513" fill-opacity="0.4143857521724753" />
<circle cx="76.6319921503567" cy="44.46507821410821" r="5.784888082204839" fill="#FFFFFF" fill-opacity="0.3201384672950922" />
<circle cx="128.95771119794216" cy="52.27992655763445" r="4.783583208422136" fill="#FFFFFF" fill-opacity="0.2532880723065183" />
<circle cx="152.10431275511235" cy="86.31332818845878" r="4.651460366543839" fill="#D2691E" fill-opacity="0.5610562530029259" />
<circle cx="170.83753900052682" cy="140.40621018775164" r="3.5470142258665005" fill="#D2691E" fill-opacity="0.2083761148851623" />
<circle cx="37.49614671125808" cy="77.98222683032088" r="4.136898900793396" fill="#8B4513" fill-opacity="0.5710366151442137" />
<circle cx="124.64664651887023" cy="171.6542665923264" r="4.241323983403948" fill="#8B4513" fill-opacity="0.5227736165400947" />
<circle cx="93.09162837885215" cy="88.8190182836475" r="2.7693477563162374" fill="#FFDE75" fill-opacity="0.5243100554976471" />
<circle cx="86.86326363232399" cy="80.64209387023035" r="5.526759129050596" fill="#8B4513" fill-opacity="0.5289003801502412" />
<circle cx="146.90619886989612" cy="132.51108894799148" r="5.985363615314014" fill="#8B4513" fill-opacity="0.5181720465222583" />
<circle cx="161.31747977142797" cy="96.22470963972094" r="4.00693963671886" fill="#D2691E" fill-opacity="0.2540141621712732" />
<circle cx="121.95055571504929" cy="59.158218492796095" r="3.9012410160244197" fill="#8B4513" fill-opacity="0.27061167611743875" />
<circle cx="140.90699723129902" cy="179.3773287231421" r="5.199234446034419" fill="#FFDE75" fill-opacity="0.27580981660834253" />
<circle cx="117.20847339373694" cy="21.333359270079768" r="4.216317590756841" fill="#FFDE75" fill-opacity="0.4458131300922975" />
<circle cx="74.38231036699922" cy="99.49248098473579" r="5.938571893395006" fill="#FFFFFF" fill-opacity="0.42362985116685503" />
<circle cx="135.59684175364842" cy="162.59881734176884" r="3.892561690558672" fill="#D2691E" fill-opacity="0.40716684443528955" />
<circle cx="122.10888080502308" cy="27.3576705974627" r="5.865084079375419" fill="#FFFFFF" fill-opacity="0.2421777139796042" />
<circle cx="114.94976993313543" cy="130.65316598684416" r="3.653321805744303" fill="#D2691E" fill-opacity="0.5904768446527842" />
<circle cx="89.3088653063871" cy="113.79634670921169" r="2.811676589643022" fill="#FFFFFF" fill-opacity="0.5012598308660761" />
<circle cx="116.41379609271794" cy="46.05972664617238" r="4.711927316850192" fill="#D2691E" fill-opacity="0.4829788745132033" />
<circle cx="125.08271214634397" cy="52.152270062608125" r="5.4242187624359035" fill="#FFFFFF" fill-opacity="0.20592050795750594" />
<circle cx="25.14454726296023" cy="131.31136340868966" r="5.243515182461653" fill="#8B4513" fill-opacity="0.3457914704174009" />
<circle cx="181.29655267907503" cy="122.52955366664271" r="3.6972782027496973" fill="#8B4513" fill-opacity="0.4530661520905062" />
<circle cx="69.43475799808579" cy="62.268364985554896" r="4.591676015830421" fill="#FFFFFF" fill-opacity="0.5435756803795506" />
<circle cx="47.43288578721585" cy="48.69029795541566" r="3.3312816740128253" fill="#FFFFFF" fill-opacity="0.35571254947763176" />
<circle cx="45.75453973617737" cy="160.05242459871317" r="2.289184698572803" fill="#FFFFFF" fill-opacity="0.4254107157676356" />
<circle cx="138.08595748061148" cy="160.38388601114144" r="2.0218383934955204" fill="#8B4513" fill-opacity="0.3314042619231225" />
<circle cx="63.193825918847416" cy="164.79136389164313" r="3.998282321486012" fill="#8B4513" fill-opacity="0.42769484593688123" />
<circle cx="136.4234348732563" cy="178.56176936713842" r="4.298674260959759" fill="#FFFFFF" fill-opacity="0.4119375313039521" />
<circle cx="102.40544698219222" cy="102.06776893835467" r="5.019832413072159" fill="#D2691E" fill-opacity="0.49291860800387965" />
<circle cx="151.08732655475512" cy="44.52231284363829" r="3.617732446753556" fill="#8B4513" fill-opacity="0.4631763994693457" />
<circle cx="106.35578819067051" cy="177.2772665516619" r="4.496609760803109" fill="#8B4513" fill-opacity="0.2001705099287693" />
<circle cx="171.36641924710239" cy="60.4544475501485" r="5.340604328112225" fill="#D2691E" fill-opacity="0.550860616685845" />
<circle cx="180.93593606355546" cy="92.65020608755421" r="4.78432870765724" fill="#FFFFFF" fill-opacity="0.470628442660392" />
<circle cx="153.73621304296657" cy="123.95807836978585" r="2.7812683237805986" fill="#FFDE75" fill-opacity="0.415641765665411" />
<circle cx="146.7902740012097" cy="126.59862417411173" r="2.1554981902706105" fill="#FFDE75" fill-opacity="0.5738706390295607" />
<circle cx="125.6299956623802" cy="39.043268122663505" r="4.701940422365795" fill="#8B4513" fill-opacity="0.365598102835225" />
<circle cx="79.88049256258797" cy="138.0646559991758" r="3.4628776894487143" fill="#FFFFFF" fill-opacity="0.2471438491511218" />
<circle cx="80.49486456731717" cy="43.65367309868042" r="4.90778596152124" fill="#FFDE75" fill-opacity="0.4642454927924699" />
<circle cx="93.50142396826504" cy="125.3941513526754" r="2.238449467033877" fill="#FFFFFF" fill-opacity="0.28374361704587175" />
<circle cx="75.12938162526046" cy="65.34587109372185" r="4.859673648769633" fill="#8B4513" fill-opacity="0.5274622212432863" />
<ellipse cx="96.97501429403408" cy="76.44400226480221" rx="5.455327125244744" ry="8.386578558501935" fill="#FFFDF0" fill-opacity="0.6" />
<ellipse cx="97.03505221900149" cy="76.93855455095894" rx="2.2208226067396293" ry="2.9575847615205406" fill="#FFFFFF" fill-opacity="0.85" />
<ellipse cx="82.86315250370308" cy="144.356535953817" rx="9.78347904606877" ry="7.053356538330597" fill="#FFFDF0" fill-opacity="0.6" />
<ellipse cx="83.63016761344059" cy="144.61379747668093" rx="4.881908706776388" ry="3.250939948934935" fill="#FFFFFF" fill-opacity="0.85" />
<ellipse cx="74.67642509193762" cy="40.833694225070516" rx="7.017707864194049" ry="6.660377286076088" fill="#FFFDF0" fill-opacity="0.6" />
<ellipse cx="74.81106020063882" cy="40.11175201396233" rx="4.911096957488571" ry="2.5517873251855754" fill="#FFFFFF" fill-opacity="0.85" />
<ellipse cx="73.73536666614052" cy="51.64601680527036" rx="6.166160672090093" ry="7.291339042119477" fill="#FFFDF0" fill-opacity="0.6" />
<ellipse cx="73.6232424217636" cy="51.79718286891316" rx="4.9248959379680155" ry="2.4063866302556196" fill="#FFFFFF" fill-opacity="0.85" />
<ellipse cx="89.13303268227197" cy="39.635192444356534" rx="8.344713257149728" ry="5.529908326219163" fill="#FFFDF0" fill-opacity="0.6" />
<ellipse cx="89.50676375453614" cy="38.76934458003073" rx="3.027118873042288" ry="3.2764062118125974" fill="#FFFFFF" fill-opacity="0.85" />
<ellipse cx="177.70248133662477" cy="121.14235717543144" rx="7.068002404755294" ry="8.593201728749364" fill="#FFFDF0" fill-opacity="0.6" />
<ellipse cx="177.81141218440075" cy="121.31157140976987" rx="4.505548728347565" ry="2.6749607928806043" fill="#FFFFFF" fill-opacity="0.85" />
<ellipse cx="52.72554540791032" cy="42.40843541042614" rx="5.207697695613334" ry="7.310840493901884" fill="#FFFDF0" fill-opacity="0.6" />
<ellipse cx="52.76591621469975" cy="42.05616264367334" rx="3.63767135141868" ry="2.7588664049382086" fill="#FFFFFF" fill-opacity="0.85" />
<ellipse cx="85.73625310323033" cy="66.05136457540783" rx="9.340155756248176" ry="5.156516571644156" fill="#FFFDF0" fill-opacity="0.6" />
<ellipse cx="85.04478705573602" cy="67.03079752470325" rx="3.5454594426235104" ry="2.3007592467123557" fill="#FFFFFF" fill-opacity="0.85" />
<ellipse cx="40.23379371242159" cy="116.99533594005482" rx="8.739340949581052" ry="6.561438675178851" fill="#FFFDF0" fill-opacity="0.6" />
<ellipse cx="40.15262524377821" cy="116.34935028071344" rx="2.9995589395565667" ry="2.2497800438376565" fill="#FFFFFF" fill-opacity="0.85" />
<ellipse cx="121.58785237087376" cy="35.9117762408616" rx="9.065841666233851" ry="7.679100082780496" fill="#FFFDF0" fill-opacity="0.6" />
<ellipse cx="120.6289625889518" cy="35.01448644882881" rx="4.119807931668569" ry="2.0037336438929625" fill="#FFFFFF" fill-opacity="0.85" />
<ellipse cx="185.35368661028815" cy="112.78278605793544" rx="6.178628245352291" ry="5.31405650444544" fill="#FFFDF0" fill-opacity="0.6" />
<ellipse cx="184.78767414919903" cy="112.75928200273763" rx="3.468286306384635" ry="2.966000262648362" fill="#FFFFFF" fill-opacity="0.85" />
<ellipse cx="33.89541640491535" cy="78.81859709994798" rx="5.349044513705309" ry="6.306962100171669" fill="#FFFDF0" fill-opacity="0.6" />
<ellipse cx="34.864766685836855" cy="79.28216492383326" rx="3.9649737478198115" ry="3.5603606037263766" fill="#FFFFFF" fill-opacity="0.85" />
</g>
<path d="M105.0,105.0 L191.60254037844388,55.00000000000001 A100,100,0,0,1,191.60254037844388,155.0 Z" fill="#F5C754" stroke="lightgray" stroke-width="2" />
<use xlink:href="#clip-4535261200-4534998224" />
<g clip-path="url(#clip-4535261200-4534998224)">
<circle cx="105.0" cy="105.0" r="92" stroke="#DAA05D" stroke-width="16" fill="none" />
<circle cx="105.0" cy="105.0" r="98" stroke="#C37B32" stroke-width="5" fill="none" />
<circle cx="30.817107791984284" cy="109.20715237341868" r="4.727469256100733" fill="#FFFFFF" fill-opacity="0.457287539424534" />
<circle cx="87.05291982767724" cy="70.36872651944219" r="2.597979736219222" fill="#FFDE75" fill-opacity="0.37511636217462796" />
<circle cx="160.03481234399675" cy="66.09370168173322" r="2.532497389475224" fill="#FFDE75" fill-opacity="0.32836737665203125" />
<circle cx="169.19490885888425" cy="92.85775254021445" r="3.6734577838157465" fill="#FFDE75" fill-opacity="0.25106782529517424" />
<circle cx="47.44143305983004" cy="114.26243381586505" r="5.576113151927377" fill="#D2691E" fill-opacity="0.3306038970763564" />
<circle cx="100.27651498262595" cy="164.2957337363715" r="2.0042420390514786" fill="#FFFFFF" fill-opacity="0.5714325398621736" />
<circle cx="151.2424674794948" cy="168.55758112192083" r="4.530829840613622" fill="#FFFFFF" fill-opacity="0.35835249269537306" />
<circle cx="129.12751119600486" cy="139.96651132479366" r="5.097389016717269" fill="#FFFFFF" fill-opacity="0.49327375031708803" />
<circle cx="69.21076443975036" cy="171.49163688269385" r="2.162440995785981" fill="#FFDE75" fill-opacity="0.39243285970748787" />
<circle cx="165.60705078132654" cy="119.53140984681723" r="2.120231002140085" fill="#8B4513" fill-opacity="0.26865479757942345" />
<circle cx="136.62217121658253" cy="55.00310528668127" r="5.110144034863232" fill="#FFDE75" fill-opacity="0.46728665451196605" />
<circle cx="81.88957127967672" cy="95.88816244927986" r="5.375302945312676" fill="#FFFFFF" fill-opacity="0.39680044524294056" />
<circle cx="51.48261300491268" cy="170.61212984456597" r="2.695901788485132" fill="#D2691E" fill-opacity="0.42833382282418875" />
<circle cx="67.12733211937146" cy="125.46315732758154" r="5.3424997045519795" fill="#FFDE75" fill-opacity="0.5677371859182756" />
<circle cx="88.917995726052" cy="52.396097422390106" r="3.236745273568939" fill="#8B4513" fill-opacity="0.3252381234523545" />
<circle cx="162.38785149945338" cy="152.0094892938299" r="5.282865487575341" fill="#FFDE75" fill-opacity="0.3944084270673764" />
<circle cx="56.10097730420424" cy="58.96960253392636" r="4.757265080046496" fill="#D2691E" fill-opacity="0.37176912735352907" />
<circle cx="157.0504596682583" cy="58.67634014295964" r="4.223709569604576" fill="#8B4513" fill-opacity="0.2758242452119769" />
<circle cx="138.5448609044745" cy="127.54775460582056" r="3.536136268802275" fill="#FFFFFF" fill-opacity="0.484277138671843" />
<circle cx="70.0739086545893" cy="136.96265316444197" r="3.181109295972556" fill="#8B4513" fill-opacity="0.4143857521724753" />
<circle cx="76.6319921503567" cy="44.46507821410821" r="5.784888082204839" fill="#FFFFFF" fill-opacity="0.3201384672950922" />
<circle cx="128.95771119794216" cy="52.27992655763445" r="4.783583208422136" fill="#FFFFFF" fill-opacity="0.2532880723065183" />
<circle cx="152.10431275511235" cy="86.31332818845878" r="4.651460366543839" fill="#D2691E" fill-opacity="0.5610562530029259" />
<circle cx="170.83753900052682" cy="140.40621018775164" r="3.5470142258665005" fill="#D2691E" fill-opacity="0.2083761148851623" />
<circle cx="37.49614671125808" cy="77.98222683032088" r="4.136898900793396" fill="#8B4513" fill-opacity="0.5710366151442137" />
<circle cx="124.64664651887023" cy="171.6542665923264" r="4.241323983403948" fill="#8B4513" fill-opacity="0.5227736165400947" />
<circle cx="93.09162837885215" cy="88.8190182836475" r="2.7693477563162374" fill="#FFDE75" fill-opacity="0.5243100554976471" />
<circle cx="86.86326363232399" cy="80.64209387023035" r="5.526759129050596" fill="#8B4513" fill-opacity="0.5289003801502412" />
<circle cx="146.90619886989612" cy="132.51108894799148" r="5.985363615314014" fill="#8B4513" fill-opacity="0.5181720465222583" />
<circle cx="161.31747977142797" cy="96.22470963972094" r="4.00693963671886" fill="#D2691E" fill-opacity="0.2540141621712732" />
<circle cx="121.95055571504929" cy="59.158218492796095" r="3.9012410160244197" fill="#8B4513" fill-opacity="0.27061167611743875" />
<circle cx="140.90699723129902" cy="179.3773287231421" r="5.199234446034419" fill="#FFDE75" fill-opacity="0.27580981660834253" />
<circle cx="117.20847339373694" cy="21.333359270079768" r="4.216317590756841" fill="#FFDE75" fill-opacity="0.4458131300922975" />
<circle cx="74.38231036699922" cy="99.49248098473579" r="5.938571893395006" fill="#FFFFFF" fill-opacity="0.42362985116685503" />
<circle cx="135.59684175364842" cy="162.59881734176884" r="3.892561690558672" fill="#D2691E" fill-opacity="0.40716684443528955" />
<circle cx="122.10888080502308" cy="27.3576705974627" r="5.865084079375419" fill="#FFFFFF" fill-opacity="0.2421777139796042" />
<circle cx="114.94976993313543" cy="130.65316598684416" r="3.653321805744303" fill="#D2691E" fill-opacity="0.5904768446527842" />
<circle cx="89.3088653063871" cy="113.79634670921169" r="2.811676589643022" fill="#FFFFFF" fill-opacity="0.5012598308660761" />
<circle cx="116.41379609271794" cy="46.05972664617238" r="4.711927316850192" fill="#D2691E" fill-opacity="0.4829788745132033" />
<circle cx="125.08271214634397" cy="52.152270062608125" r="5.4242187624359035" fill="#FFFFFF" fill-opacity="0.20592050795750594" />
<circle cx="25.14454726296023" cy="131.31136340868966" r="5.243515182461653" fill="#8B4513" fill-opacity="0.3457914704174009" />
<circle cx="181.29655267907503" cy="122.52955366664271" r="3.6972782027496973" fill="#8B4513" fill-opacity="0.4530661520905062" />
<circle cx="69.43475799808579" cy="62.268364985554896" r="4.591676015830421" fill="#FFFFFF" fill-opacity="0.5435756803795506" />
<circle cx="47.43288578721585" cy="48.69029795541566" r="3.3312816740128253" fill="#FFFFFF" fill-opacity="0.35571254947763176" />
<circle cx="45.75453973617737" cy="160.05242459871317" r="2.289184698572803" fill="#FFFFFF" fill-opacity="0.4254107157676356" />
<circle cx="138.08595748061148" cy="160.38388601114144" r="2.0218383934955204" fill="#8B4513" fill-opacity="0.3314042619231225" />
<circle cx="63.193825918847416" cy="164.79136389164313" r="3.998282321486012" fill="#8B4513" fill-opacity="0.42769484593688123" />
<circle cx="136.4234348732563" cy="178.56176936713842" r="4.298674260959759" fill="#FFFFFF" fill-opacity="0.4119375313039521" />
<circle cx="102.40544698219222" cy="102.06776893835467" r="5.019832413072159" fill="#D2691E" fill-opacity="0.49291860800387965" />
<circle cx="151.08732655475512" cy="44.52231284363829" r="3.617732446753556" fill="#8B4513" fill-opacity="0.4631763994693457" />
<circle cx="106.35578819067051" cy="177.2772665516619" r="4.496609760803109" fill="#8B4513" fill-opacity="0.2001705099287693" />
<circle cx="171.36641924710239" cy="60.4544475501485" r="5.340604328112225" fill="#D2691E" fill-opacity="0.550860616685845" />
<circle cx="180.93593606355546" cy="92.65020608755421" r="4.78432870765724" fill="#FFFFFF" fill-opacity="0.470628442660392" />
<circle cx="153.73621304296657" cy="123.95807836978585" r="2.7812683237805986" fill="#FFDE75" fill-opacity="0.415641765665411" />
<circle cx="146.7902740012097" cy="126.59862417411173" r="2.1554981902706105" fill="#FFDE75" fill-opacity="0.5738706390295607" />
<circle cx="125.6299956623802" cy="39.043268122663505" r="4.701940422365795" fill="#8B4513" fill-opacity="0.365598102835225" />
<circle cx="79.88049256258797" cy="138.0646559991758" r="3.4628776894487143" fill="#FFFFFF" fill-opacity="0.2471438491511218" />
<circle cx="80.49486456731717" cy="43.65367309868042" r="4.90778596152124" fill="#FFDE75" fill-opacity="0.4642454927924699" />
<circle cx="93.50142396826504" cy="125.3941513526754" r="2.238449467033877" fill="#FFFFFF" fill-opacity="0.28374361704587175" />
<circle cx="75.12938162526046" cy="65.34587109372185" r="4.859673648769633" fill="#8B4513" fill-opacity="0.5274622212432863" />
<ellipse cx="96.97501429403408" cy="76.44400226480221" rx="5.455327125244744" ry="8.386578558501935" fill="#FFFDF0" fill-opacity="0.6" />
<ellipse cx="97.03505221900149" cy="76.93855455095894" rx="2.2208226067396293" ry="2.9575847615205406" fill="#FFFFFF" fill-opacity="0.85" />
<ellipse cx="82.86315250370308" cy="144.356535953817" rx="9.78347904606877" ry="7.053356538330597" fill="#FFFDF0" fill-opacity="0.6" />
<ellipse cx="83.63016761344059" cy="144.61379747668093" rx="4.881908706776388" ry="3.250939948934935" fill="#FFFFFF" fill-opacity="0.85" />
<ellipse cx="74.67642509193762" cy="40.833694225070516" rx="7.017707864194049" ry="6.660377286076088" fill="#FFFDF0" fill-opacity="0.6" />
<ellipse cx="74.81106020063882" cy="40.11175201396233" rx="4.911096957488571" ry="2.5517873251855754" fill="#FFFFFF" fill-opacity="0.85" />
<ellipse cx="73.73536666614052" cy="51.64601680527036" rx="6.166160672090093" ry="7.291339042119477" fill="#FFFDF0" fill-opacity="0.6" />
<ellipse cx="73.6232424217636" cy="51.79718286891316" rx="4.9248959379680155" ry="2.4063866302556196" fill="#FFFFFF" fill-opacity="0.85" />
<ellipse cx="89.13303268227197" cy="39.635192444356534" rx="8.344713257149728" ry="5.529908326219163" fill="#FFFDF0" fill-opacity="0.6" />
<ellipse cx="89.50676375453614" cy="38.76934458003073" rx="3.027118873042288" ry="3.2764062118125974" fill="#FFFFFF" fill-opacity="0.85" />
<ellipse cx="177.70248133662477" cy="121.14235717543144" rx="7.068002404755294" ry="8.593201728749364" fill="#FFFDF0" fill-opacity="0.6" />
<ellipse cx="177.81141218440075" cy="121.31157140976987" rx="4.505548728347565" ry="2.6749607928806043" fill="#FFFFFF" fill-opacity="0.85" />
<ellipse cx="52.72554540791032" cy="42.40843541042614" rx="5.207697695613334" ry="7.310840493901884" fill="#FFFDF0" fill-opacity="0.6" />
<ellipse cx="52.76591621469975" cy="42.05616264367334" rx="3.63767135141868" ry="2.7588664049382086" fill="#FFFFFF" fill-opacity="0.85" />
<ellipse cx="85.73625310323033" cy="66.05136457540783" rx="9.340155756248176" ry="5.156516571644156" fill="#FFFDF0" fill-opacity="0.6" />
<ellipse cx="85.04478705573602" cy="67.03079752470325" rx="3.5454594426235104" ry="2.3007592467123557" fill="#FFFFFF" fill-opacity="0.85" />
<ellipse cx="40.23379371242159" cy="116.99533594005482" rx="8.739340949581052" ry="6.561438675178851" fill="#FFFDF0" fill-opacity="0.6" />
<ellipse cx="40.15262524377821" cy="116.34935028071344" rx="2.9995589395565667" ry="2.2497800438376565" fill="#FFFFFF" fill-opacity="0.85" />
<ellipse cx="121.58785237087376" cy="35.9117762408616" rx="9.065841666233851" ry="7.679100082780496" fill="#FFFDF0" fill-opacity="0.6" />
<ellipse cx="120.6289625889518" cy="35.01448644882881" rx="4.119807931668569" ry="2.0037336438929625" fill="#FFFFFF" fill-opacity="0.85" />
<ellipse cx="185.35368661028815" cy="112.78278605793544" rx="6.178628245352291" ry="5.31405650444544" fill="#FFFDF0" fill-opacity="0.6" />
<ellipse cx="184.78767414919903" cy="112.75928200273763" rx="3.468286306384635" ry="2.966000262648362" fill="#FFFFFF" fill-opacity="0.85" />
<ellipse cx="33.89541640491535" cy="78.81859709994798" rx="5.349044513705309" ry="6.306962100171669" fill="#FFFDF0" fill-opacity="0.6" />
<ellipse cx="34.864766685836855" cy="79.28216492383326" rx="3.9649737478198115" ry="3.5603606037263766" fill="#FFFFFF" fill-opacity="0.85" />
</g>
<path d="M105.0,105.0 L191.60254037844388,155.0 A100,100,0,0,1,105.0,205.0 Z" fill="#F5C754" stroke="lightgray" stroke-width="2" />
<use xlink:href="#clip-4535261200-4535589584" />
<g clip-path="url(#clip-4535261200-4535589584)">
<circle cx="105.0" cy="105.0" r="92" stroke="#DAA05D" stroke-width="16" fill="none" />
<circle cx="105.0" cy="105.0" r="98" stroke="#C37B32" stroke-width="5" fill="none" />
<circle cx="30.817107791984284" cy="109.20715237341868" r="4.727469256100733" fill="#FFFFFF" fill-opacity="0.457287539424534" />
<circle cx="87.05291982767724" cy="70.36872651944219" r="2.597979736219222" fill="#FFDE75" fill-opacity="0.37511636217462796" />
<circle cx="160.03481234399675" cy="66.09370168173322" r="2.532497389475224" fill="#FFDE75" fill-opacity="0.32836737665203125" />
<circle cx="169.19490885888425" cy="92.85775254021445" r="3.6734577838157465" fill="#FFDE75" fill-opacity="0.25106782529517424" />
<circle cx="47.44143305983004" cy="114.26243381586505" r="5.576113151927377" fill="#D2691E" fill-opacity="0.3306038970763564" />
<circle cx="100.27651498262595" cy="164.2957337363715" r="2.0042420390514786" fill="#FFFFFF" fill-opacity="0.5714325398621736" />
<circle cx="151.2424674794948" cy="168.55758112192083" r="4.530829840613622" fill="#FFFFFF" fill-opacity="0.35835249269537306" />
<circle cx="129.12751119600486" cy="139.96651132479366" r="5.097389016717269" fill="#FFFFFF" fill-opacity="0.49327375031708803" />
<circle cx="69.21076443975036" cy="171.49163688269385" r="2.162440995785981" fill="#FFDE75" fill-opacity="0.39243285970748787" />
<circle cx="165.60705078132654" cy="119.53140984681723" r="2.120231002140085" fill="#8B4513" fill-opacity="0.26865479757942345" />
<circle cx="136.62217121658253" cy="55.00310528668127" r="5.110144034863232" fill="#FFDE75" fill-opacity="0.46728665451196605" />
<circle cx="81.88957127967672" cy="95.88816244927986" r="5.375302945312676" fill="#FFFFFF" fill-opacity="0.39680044524294056" />
<circle cx="51.48261300491268" cy="170.61212984456597" r="2.695901788485132" fill="#D2691E" fill-opacity="0.42833382282418875" />
<circle cx="67.12733211937146" cy="125.46315732758154" r="5.3424997045519795" fill="#FFDE75" fill-opacity="0.5677371859182756" />
<circle cx="88.917995726052" cy="52.396097422390106" r="3.236745273568939" fill="#8B4513" fill-opacity="0.3252381234523545" />
<circle cx="162.38785149945338" cy="152.0094892938299" r="5.282865487575341" fill="#FFDE75" fill-opacity="0.3944084270673764" />
<circle cx="56.10097730420424" cy="58.96960253392636" r="4.757265080046496" fill="#D2691E" fill-opacity="0.37176912735352907" />
<circle cx="157.0504596682583" cy="58.67634014295964" r="4.223709569604576" fill="#8B4513" fill-opacity="0.2758242452119769" />
<circle cx="138.5448609044745" cy="127.54775460582056" r="3.536136268802275" fill="#FFFFFF" fill-opacity="0.484277138671843" />
<circle cx="70.0739086545893" cy="136.96265316444197" r="3.181109295972556" fill="#8B4513" fill-opacity="0.4143857521724753" />
<circle cx="76.6319921503567" cy="44.46507821410821" r="5.784888082204839" fill="#FFFFFF" fill-opacity="0.3201384672950922" />
<circle cx="128.95771119794216" cy="52.27992655763445" r="4.783583208422136" fill="#FFFFFF" fill-opacity="0.2532880723065183" />
<circle cx="152.10431275511235" cy="86.31332818845878" r="4.651460366543839" fill="#D2691E" fill-opacity="0.5610562530029259" />
<circle cx="170.83753900052682" cy="140.40621018775164" r="3.5470142258665005" fill="#D2691E" fill-opacity="0.2083761148851623" />
<circle cx="37.49614671125808" cy="77.98222683032088" r="4.136898900793396" fill="#8B4513" fill-opacity="0.5710366151442137" />
<circle cx="124.64664651887023" cy="171.6542665923264" r="4.241323983403948" fill="#8B4513" fill-opacity="0.5227736165400947" />
<circle cx="93.09162837885215" cy="88.8190182836475" r="2.7693477563162374" fill="#FFDE75" fill-opacity="0.5243100554976471" />
<circle cx="86.86326363232399" cy="80.64209387023035" r="5.526759129050596" fill="#8B4513" fill-opacity="0.5289003801502412" />
<circle cx="146.90619886989612" cy="132.51108894799148" r="5.985363615314014" fill="#8B4513" fill-opacity="0.5181720465222583" />
<circle cx="161.31747977142797" cy="96.22470963972094" r="4.00693963671886" fill="#D2691E" fill-opacity="0.2540141621712732" />
<circle cx="121.95055571504929" cy="59.158218492796095" r="3.9012410160244197" fill="#8B4513" fill-opacity="0.27061167611743875" />
<circle cx="140.90699723129902" cy="179.3773287231421" r="5.199234446034419" fill="#FFDE75" fill-opacity="0.27580981660834253" />
<circle cx="117.20847339373694" cy="21.333359270079768" r="4.216317590756841" fill="#FFDE75" fill-opacity="0.4458131300922975" />
<circle cx="74.38231036699922" cy="99.49248098473579" r="5.938571893395006" fill="#FFFFFF" fill-opacity="0.42362985116685503" />
<circle cx="135.59684175364842" cy="162.59881734176884" r="3.892561690558672" fill="#D2691E" fill-opacity="0.40716684443528955" />
<circle cx="122.10888080502308" cy="27.3576705974627" r="5.865084079375419" fill="#FFFFFF" fill-opacity="0.2421777139796042" />
<circle cx="114.94976993313543" cy="130.65316598684416" r="3.653321805744303" fill="#D2691E" fill-opacity="0.5904768446527842" />
<circle cx="89.3088653063871" cy="113.79634670921169" r="2.811676589643022" fill="#FFFFFF" fill-opacity="0.5012598308660761" />
<circle cx="116.41379609271794" cy="46.05972664617238" r="4.711927316850192" fill="#D2691E" fill-opacity="0.4829788745132033" />
<circle cx="125.08271214634397" cy="52.152270062608125" r="5.4242187624359035" fill="#FFFFFF" fill-opacity="0.20592050795750594" />
<circle cx="25.14454726296023" cy="131.31136340868966" r="5.243515182461653" fill="#8B4513" fill-opacity="0.3457914704174009" />
<circle cx="181.29655267907503" cy="122.52955366664271" r="3.6972782027496973" fill="#8B4513" fill-opacity="0.4530661520905062" />
<circle cx="69.43475799808579" cy="62.268364985554896" r="4.591676015830421" fill="#FFFFFF" fill-opacity="0.5435756803795506" />
<circle cx="47.43288578721585" cy="48.69029795541566" r="3.3312816740128253" fill="#FFFFFF" fill-opacity="0.35571254947763176" />
<circle cx="45.75453973617737" cy="160.05242459871317" r="2.289184698572803" fill="#FFFFFF" fill-opacity="0.4254107157676356" />
<circle cx="138.08595748061148" cy="160.38388601114144" r="2.0218383934955204" fill="#8B4513" fill-opacity="0.3314042619231225" />
<circle cx="63.193825918847416" cy="164.79136389164313" r="3.998282321486012" fill="#8B4513" fill-opacity="0.42769484593688123" />
<circle cx="136.4234348732563" cy="178.56176936713842" r="4.298674260959759" fill="#FFFFFF" fill-opacity="0.4119375313039521" />
<circle cx="102.40544698219222" cy="102.06776893835467" r="5.019832413072159" fill="#D2691E" fill-opacity="0.49291860800387965" />
<circle cx="151.08732655475512" cy="44.52231284363829" r="3.617732446753556" fill="#8B4513" fill-opacity="0.4631763994693457" />
<circle cx="106.35578819067051" cy="177.2772665516619" r="4.496609760803109" fill="#8B4513" fill-opacity="0.2001705099287693" />
<circle cx="171.36641924710239" cy="60.4544475501485" r="5.340604328112225" fill="#D2691E" fill-opacity="0.550860616685845" />
<circle cx="180.93593606355546" cy="92.65020608755421" r="4.78432870765724" fill="#FFFFFF" fill-opacity="0.470628442660392" />
<circle cx="153.73621304296657" cy="123.95807836978585" r="2.7812683237805986" fill="#FFDE75" fill-opacity="0.415641765665411" />
<circle cx="146.7902740012097" cy="126.59862417411173" r="2.1554981902706105" fill="#FFDE75" fill-opacity="0.5738706390295607" />
<circle cx="125.6299956623802" cy="39.043268122663505" r="4.701940422365795" fill="#8B4513" fill-opacity="0.365598102835225" />
<circle cx="79.88049256258797" cy="138.0646559991758" r="3.4628776894487143" fill="#FFFFFF" fill-opacity="0.2471438491511218" />
<circle cx="80.49486456731717" cy="43.65367309868042" r="4.90778596152124" fill="#FFDE75" fill-opacity="0.4642454927924699" />
<circle cx="93.50142396826504" cy="125.3941513526754" r="2.238449467033877" fill="#FFFFFF" fill-opacity="0.28374361704587175" />
<circle cx="75.12938162526046" cy="65.34587109372185" r="4.859673648769633" fill="#8B4513" fill-opacity="0.5274622212432863" />
<ellipse cx="96.97501429403408" cy="76.44400226480221" rx="5.455327125244744" ry="8.386578558501935" fill="#FFFDF0" fill-opacity="0.6" />
<ellipse cx="97.03505221900149" cy="76.93855455095894" rx="2.2208226067396293" ry="2.9575847615205406" fill="#FFFFFF" fill-opacity="0.85" />
<ellipse cx="82.86315250370308" cy="144.356535953817" rx="9.78347904606877" ry="7.053356538330597" fill="#FFFDF0" fill-opacity="0.6" />
<ellipse cx="83.63016761344059" cy="144.61379747668093" rx="4.881908706776388" ry="3.250939948934935" fill="#FFFFFF" fill-opacity="0.85" />
<ellipse cx="74.67642509193762" cy="40.833694225070516" rx="7.017707864194049" ry="6.660377286076088" fill="#FFFDF0" fill-opacity="0.6" />
<ellipse cx="74.81106020063882" cy="40.11175201396233" rx="4.911096957488571" ry="2.5517873251855754" fill="#FFFFFF" fill-opacity="0.85" />
<ellipse cx="73.73536666614052" cy="51.64601680527036" rx="6.166160672090093" ry="7.291339042119477" fill="#FFFDF0" fill-opacity="0.6" />
<ellipse cx="73.6232424217636" cy="51.79718286891316" rx="4.9248959379680155" ry="2.4063866302556196" fill="#FFFFFF" fill-opacity="0.85" />
<ellipse cx="89.13303268227197" cy="39.635192444356534" rx="8.344713257149728" ry="5.529908326219163" fill="#FFFDF0" fill-opacity="0.6" />
<ellipse cx="89.50676375453614" cy="38.76934458003073" rx="3.027118873042288" ry="3.2764062118125974" fill="#FFFFFF" fill-opacity="0.85" />
<ellipse cx="177.70248133662477" cy="121.14235717543144" rx="7.068002404755294" ry="8.593201728749364" fill="#FFFDF0" fill-opacity="0.6" />
<ellipse cx="177.81141218440075" cy="121.31157140976987" rx="4.505548728347565" ry="2.6749607928806043" fill="#FFFFFF" fill-opacity="0.85" />
<ellipse cx="52.72554540791032" cy="42.40843541042614" rx="5.207697695613334" ry="7.310840493901884" fill="#FFFDF0" fill-opacity="0.6" />
<ellipse cx="52.76591621469975" cy="42.05616264367334" rx="3.63767135141868" ry="2.7588664049382086" fill="#FFFFFF" fill-opacity="0.85" />
<ellipse cx="85.73625310323033" cy="66.05136457540783" rx="9.340155756248176" ry="5.156516571644156" fill="#FFFDF0" fill-opacity="0.6" />
<ellipse cx="85.04478705573602" cy="67.03079752470325" rx="3.5454594426235104" ry="2.3007592467123557" fill="#FFFFFF" fill-opacity="0.85" />
<ellipse cx="40.23379371242159" cy="116.99533594005482" rx="8.739340949581052" ry="6.561438675178851" fill="#FFFDF0" fill-opacity="0.6" />
<ellipse cx="40.15262524377821" cy="116.34935028071344" rx="2.9995589395565667" ry="2.2497800438376565" fill="#FFFFFF" fill-opacity="0.85" />
<ellipse cx="121.58785237087376" cy="35.9117762408616" rx="9.065841666233851" ry="7.679100082780496" fill="#FFFDF0" fill-opacity="0.6" />
<ellipse cx="120.6289625889518" cy="35.01448644882881" rx="4.119807931668569" ry="2.0037336438929625" fill="#FFFFFF" fill-opacity="0.85" />
<ellipse cx="185.35368661028815" cy="112.78278605793544" rx="6.178628245352291" ry="5.31405650444544" fill="#FFFDF0" fill-opacity="0.6" />
<ellipse cx="184.78767414919903" cy="112.75928200273763" rx="3.468286306384635" ry="2.966000262648362" fill="#FFFFFF" fill-opacity="0.85" />
<ellipse cx="33.89541640491535" cy="78.81859709994798" rx="5.349044513705309" ry="6.306962100171669" fill="#FFFDF0" fill-opacity="0.6" />
<ellipse cx="34.864766685836855" cy="79.28216492383326" rx="3.9649737478198115" ry="3.5603606037263766" fill="#FFFFFF" fill-opacity="0.85" />
</g>
<path d="M105.0,105.0 L105.0,205.0 A100,100,0,0,1,18.397459621556123,155.0 Z" fill="#F5C754" stroke="lightgray" stroke-width="2" />
<use xlink:href="#clip-4535261200-4535625552" />
<g clip-path="url(#clip-4535261200-4535625552)">
<circle cx="105.0" cy="105.0" r="92" stroke="#DAA05D" stroke-width="16" fill="none" />
<circle cx="105.0" cy="105.0" r="98" stroke="#C37B32" stroke-width="5" fill="none" />
<circle cx="30.817107791984284" cy="109.20715237341868" r="4.727469256100733" fill="#FFFFFF" fill-opacity="0.457287539424534" />
<circle cx="87.05291982767724" cy="70.36872651944219" r="2.597979736219222" fill="#FFDE75" fill-opacity="0.37511636217462796" />
<circle cx="160.03481234399675" cy="66.09370168173322" r="2.532497389475224" fill="#FFDE75" fill-opacity="0.32836737665203125" />
<circle cx="169.19490885888425" cy="92.85775254021445" r="3.6734577838157465" fill="#FFDE75" fill-opacity="0.25106782529517424" />
<circle cx="47.44143305983004" cy="114.26243381586505" r="5.576113151927377" fill="#D2691E" fill-opacity="0.3306038970763564" />
<circle cx="100.27651498262595" cy="164.2957337363715" r="2.0042420390514786" fill="#FFFFFF" fill-opacity="0.5714325398621736" />
<circle cx="151.2424674794948" cy="168.55758112192083" r="4.530829840613622" fill="#FFFFFF" fill-opacity="0.35835249269537306" />
<circle cx="129.12751119600486" cy="139.96651132479366" r="5.097389016717269" fill="#FFFFFF" fill-opacity="0.49327375031708803" />
<circle cx="69.21076443975036" cy="171.49163688269385" r="2.162440995785981" fill="#FFDE75" fill-opacity="0.39243285970748787" />
<circle cx="165.60705078132654" cy="119.53140984681723" r="2.120231002140085" fill="#8B4513" fill-opacity="0.26865479757942345" />
<circle cx="136.62217121658253" cy="55.00310528668127" r="5.110144034863232" fill="#FFDE75" fill-opacity="0.46728665451196605" />
<circle cx="81.88957127967672" cy="95.88816244927986" r="5.375302945312676" fill="#FFFFFF" fill-opacity="0.39680044524294056" />
<circle cx="51.48261300491268" cy="170.61212984456597" r="2.695901788485132" fill="#D2691E" fill-opacity="0.42833382282418875" />
<circle cx="67.12733211937146" cy="125.46315732758154" r="5.3424997045519795" fill="#FFDE75" fill-opacity="0.5677371859182756" />
<circle cx="88.917995726052" cy="52.396097422390106" r="3.236745273568939" fill="#8B4513" fill-opacity="0.3252381234523545" />
<circle cx="162.38785149945338" cy="152.0094892938299" r="5.282865487575341" fill="#FFDE75" fill-opacity="0.3944084270673764" />
<circle cx="56.10097730420424" cy="58.96960253392636" r="4.757265080046496" fill="#D2691E" fill-opacity="0.37176912735352907" />
<circle cx="157.0504596682583" cy="58.67634014295964" r="4.223709569604576" fill="#8B4513" fill-opacity="0.2758242452119769" />
<circle cx="138.5448609044745" cy="127.54775460582056" r="3.536136268802275" fill="#FFFFFF" fill-opacity="0.484277138671843" />
<circle cx="70.0739086545893" cy="136.96265316444197" r="3.181109295972556" fill="#8B4513" fill-opacity="0.4143857521724753" />
<circle cx="76.6319921503567" cy="44.46507821410821" r="5.784888082204839" fill="#FFFFFF" fill-opacity="0.3201384672950922" />
<circle cx="128.95771119794216" cy="52.27992655763445" r="4.783583208422136" fill="#FFFFFF" fill-opacity="0.2532880723065183" />
<circle cx="152.10431275511235" cy="86.31332818845878" r="4.651460366543839" fill="#D2691E" fill-opacity="0.5610562530029259" />
<circle cx="170.83753900052682" cy="140.40621018775164" r="3.5470142258665005" fill="#D2691E" fill-opacity="0.2083761148851623" />
<circle cx="37.49614671125808" cy="77.98222683032088" r="4.136898900793396" fill="#8B4513" fill-opacity="0.5710366151442137" />
<circle cx="124.64664651887023" cy="171.6542665923264" r="4.241323983403948" fill="#8B4513" fill-opacity="0.5227736165400947" />
<circle cx="93.09162837885215" cy="88.8190182836475" r="2.7693477563162374" fill="#FFDE75" fill-opacity="0.5243100554976471" />
<circle cx="86.86326363232399" cy="80.64209387023035" r="5.526759129050596" fill="#8B4513" fill-opacity="0.5289003801502412" />
<circle cx="146.90619886989612" cy="132.51108894799148" r="5.985363615314014" fill="#8B4513" fill-opacity="0.5181720465222583" />
<circle cx="161.31747977142797" cy="96.22470963972094" r="4.00693963671886" fill="#D2691E" fill-opacity="0.2540141621712732" />
<circle cx="121.95055571504929" cy="59.158218492796095" r="3.9012410160244197" fill="#8B4513" fill-opacity="0.27061167611743875" />
<circle cx="140.90699723129902" cy="179.3773287231421" r="5.199234446034419" fill="#FFDE75" fill-opacity="0.27580981660834253" />
<circle cx="117.20847339373694" cy="21.333359270079768" r="4.216317590756841" fill="#FFDE75" fill-opacity="0.4458131300922975" />
<circle cx="74.38231036699922" cy="99.49248098473579" r="5.938571893395006" fill="#FFFFFF" fill-opacity="0.42362985116685503" />
<circle cx="135.59684175364842" cy="162.59881734176884" r="3.892561690558672" fill="#D2691E" fill-opacity="0.40716684443528955" />
<circle cx="122.10888080502308" cy="27.3576705974627" r="5.865084079375419" fill="#FFFFFF" fill-opacity="0.2421777139796042" />
<circle cx="114.94976993313543" cy="130.65316598684416" r="3.653321805744303" fill="#D2691E" fill-opacity="0.5904768446527842" />
<circle cx="89.3088653063871" cy="113.79634670921169" r="2.811676589643022" fill="#FFFFFF" fill-opacity="0.5012598308660761" />
<circle cx="116.41379609271794" cy="46.05972664617238" r="4.711927316850192" fill="#D2691E" fill-opacity="0.4829788745132033" />
<circle cx="125.08271214634397" cy="52.152270062608125" r="5.4242187624359035" fill="#FFFFFF" fill-opacity="0.20592050795750594" />
<circle cx="25.14454726296023" cy="131.31136340868966" r="5.243515182461653" fill="#8B4513" fill-opacity="0.3457914704174009" />
<circle cx="181.29655267907503" cy="122.52955366664271" r="3.6972782027496973" fill="#8B4513" fill-opacity="0.4530661520905062" />
<circle cx="69.43475799808579" cy="62.268364985554896" r="4.591676015830421" fill="#FFFFFF" fill-opacity="0.5435756803795506" />
<circle cx="47.43288578721585" cy="48.69029795541566" r="3.3312816740128253" fill="#FFFFFF" fill-opacity="0.35571254947763176" />
<circle cx="45.75453973617737" cy="160.05242459871317" r="2.289184698572803" fill="#FFFFFF" fill-opacity="0.4254107157676356" />
<circle cx="138.08595748061148" cy="160.38388601114144" r="2.0218383934955204" fill="#8B4513" fill-opacity="0.3314042619231225" />
<circle cx="63.193825918847416" cy="164.79136389164313" r="3.998282321486012" fill="#8B4513" fill-opacity="0.42769484593688123" />
<circle cx="136.4234348732563" cy="178.56176936713842" r="4.298674260959759" fill="#FFFFFF" fill-opacity="0.4119375313039521" />
<circle cx="102.40544698219222" cy="102.06776893835467" r="5.019832413072159" fill="#D2691E" fill-opacity="0.49291860800387965" />
<circle cx="151.08732655475512" cy="44.52231284363829" r="3.617732446753556" fill="#8B4513" fill-opacity="0.4631763994693457" />
<circle cx="106.35578819067051" cy="177.2772665516619" r="4.496609760803109" fill="#8B4513" fill-opacity="0.2001705099287693" />
<circle cx="171.36641924710239" cy="60.4544475501485" r="5.340604328112225" fill="#D2691E" fill-opacity="0.550860616685845" />
<circle cx="180.93593606355546" cy="92.65020608755421" r="4.78432870765724" fill="#FFFFFF" fill-opacity="0.470628442660392" />
<circle cx="153.73621304296657" cy="123.95807836978585" r="2.7812683237805986" fill="#FFDE75" fill-opacity="0.415641765665411" />
<circle cx="146.7902740012097" cy="126.59862417411173" r="2.1554981902706105" fill="#FFDE75" fill-opacity="0.5738706390295607" />
<circle cx="125.6299956623802" cy="39.043268122663505" r="4.701940422365795" fill="#8B4513" fill-opacity="0.365598102835225" />
<circle cx="79.88049256258797" cy="138.0646559991758" r="3.4628776894487143" fill="#FFFFFF" fill-opacity="0.2471438491511218" />
<circle cx="80.49486456731717" cy="43.65367309868042" r="4.90778596152124" fill="#FFDE75" fill-opacity="0.4642454927924699" />
<circle cx="93.50142396826504" cy="125.3941513526754" r="2.238449467033877" fill="#FFFFFF" fill-opacity="0.28374361704587175" />
<circle cx="75.12938162526046" cy="65.34587109372185" r="4.859673648769633" fill="#8B4513" fill-opacity="0.5274622212432863" />
<ellipse cx="96.97501429403408" cy="76.44400226480221" rx="5.455327125244744" ry="8.386578558501935" fill="#FFFDF0" fill-opacity="0.6" />
<ellipse cx="97.03505221900149" cy="76.93855455095894" rx="2.2208226067396293" ry="2.9575847615205406" fill="#FFFFFF" fill-opacity="0.85" />
<ellipse cx="82.86315250370308" cy="144.356535953817" rx="9.78347904606877" ry="7.053356538330597" fill="#FFFDF0" fill-opacity="0.6" />
<ellipse cx="83.63016761344059" cy="144.61379747668093" rx="4.881908706776388" ry="3.250939948934935" fill="#FFFFFF" fill-opacity="0.85" />
<ellipse cx="74.67642509193762" cy="40.833694225070516" rx="7.017707864194049" ry="6.660377286076088" fill="#FFFDF0" fill-opacity="0.6" />
<ellipse cx="74.81106020063882" cy="40.11175201396233" rx="4.911096957488571" ry="2.5517873251855754" fill="#FFFFFF" fill-opacity="0.85" />
<ellipse cx="73.73536666614052" cy="51.64601680527036" rx="6.166160672090093" ry="7.291339042119477" fill="#FFFDF0" fill-opacity="0.6" />
<ellipse cx="73.6232424217636" cy="51.79718286891316" rx="4.9248959379680155" ry="2.4063866302556196" fill="#FFFFFF" fill-opacity="0.85" />
<ellipse cx="89.13303268227197" cy="39.635192444356534" rx="8.344713257149728" ry="5.529908326219163" fill="#FFFDF0" fill-opacity="0.6" />
<ellipse cx="89.50676375453614" cy="38.76934458003073" rx="3.027118873042288" ry="3.2764062118125974" fill="#FFFFFF" fill-opacity="0.85" />
<ellipse cx="177.70248133662477" cy="121.14235717543144" rx="7.068002404755294" ry="8.593201728749364" fill="#FFFDF0" fill-opacity="0.6" />
<ellipse cx="177.81141218440075" cy="121.31157140976987" rx="4.505548728347565" ry="2.6749607928806043" fill="#FFFFFF" fill-opacity="0.85" />
<ellipse cx="52.72554540791032" cy="42.40843541042614" rx="5.207697695613334" ry="7.310840493901884" fill="#FFFDF0" fill-opacity="0.6" />
<ellipse cx="52.76591621469975" cy="42.05616264367334" rx="3.63767135141868" ry="2.7588664049382086" fill="#FFFFFF" fill-opacity="0.85" />
<ellipse cx="85.73625310323033" cy="66.05136457540783" rx="9.340155756248176" ry="5.156516571644156" fill="#FFFDF0" fill-opacity="0.6" />
<ellipse cx="85.04478705573602" cy="67.03079752470325" rx="3.5454594426235104" ry="2.3007592467123557" fill="#FFFFFF" fill-opacity="0.85" />
<ellipse cx="40.23379371242159" cy="116.99533594005482" rx="8.739340949581052" ry="6.561438675178851" fill="#FFFDF0" fill-opacity="0.6" />
<ellipse cx="40.15262524377821" cy="116.34935028071344" rx="2.9995589395565667" ry="2.2497800438376565" fill="#FFFFFF" fill-opacity="0.85" />
<ellipse cx="121.58785237087376" cy="35.9117762408616" rx="9.065841666233851" ry="7.679100082780496" fill="#FFFDF0" fill-opacity="0.6" />
<ellipse cx="120.6289625889518" cy="35.01448644882881" rx="4.119807931668569" ry="2.0037336438929625" fill="#FFFFFF" fill-opacity="0.85" />
<ellipse cx="185.35368661028815" cy="112.78278605793544" rx="6.178628245352291" ry="5.31405650444544" fill="#FFFDF0" fill-opacity="0.6" />
<ellipse cx="184.78767414919903" cy="112.75928200273763" rx="3.468286306384635" ry="2.966000262648362" fill="#FFFFFF" fill-opacity="0.85" />
<ellipse cx="33.89541640491535" cy="78.81859709994798" rx="5.349044513705309" ry="6.306962100171669" fill="#FFFDF0" fill-opacity="0.6" />
<ellipse cx="34.864766685836855" cy="79.28216492383326" rx="3.9649737478198115" ry="3.5603606037263766" fill="#FFFFFF" fill-opacity="0.85" />
</g>
</g>
</svg>
</svg>