<?xml version="1.0" encoding="UTF-8"?>
<svg xmlns="http://www.w3.org/2000/svg" xmlns:xlink="http://www.w3.org/1999/xlink"
     width="284.0" height="210" viewBox="0 0 284.0 210">
<defs>
<clipPath id="clip-4535357120-4472137424">
<path d="M105.0,105.0 L105.0,5.0 A100,100,0,0,1,205.0,105.0 Z" fill="none" />
</clipPath>
</defs>
<g>
<path d="M105.0,105.0 L105.0,5.0 A100,100,0,0,1,205.0,105.0 Z" fill="none" stroke="lightgray" stroke-width="2" />
<path d="M105.0,105.0 L205.0,105.0 A100,100,0,0,1,105.0,205.0 Z" fill="none" stroke="lightgray" stroke-width="2" />
<path d="M105.0,105.0 L105.0,205.0 A100,100,0,0,1,5.0,105.00000000000001 Z" fill="none" stroke="lightgray" stroke-width="2" />
<path d="M105.0,105.0 L5.0,105.00000000000001 A100,100,0,0,1,104.99999999999999,5.0 Z" fill="none" stroke="lightgray" stroke-width="2" />
<path d="M105.0,105.0 L105.0,5.0 A100,100,0,0,1,205.0,105.0 Z" fill="#F5C754" stroke="lightgray" stroke-width="2" />
<use xlink:href="#clip-4535357120-4472137424" />
<g clip-path="url(#clip-4535357120-4472137424)">
<circle cx="105.0" cy="105.0" r="92" stroke="#DAA05D" stroke-width="16" fill="none" />
<circle cx="105.0" cy="105.0" r="98" stroke="#C37B32" stroke-width="5" fill="none" />
<circle cx="99.63961017742884" cy="185.62840359324792" r="3.130111138004176" fill="#FFFFFF" fill-opacity="0.3172160495916342" />
<circle cx="50.94929039664361" cy="49.98588794763131" r="4.338490413781486" fill="#FFDE75" fill-opacity="0.5440458896997045" />
<circle cx="72.55759745584965" cy="46.69393016708246" r="4.741280061249864" fill="#8B4513" fill-opacity="0.5856613689799699" />
<circle cx="112.80425437997073" cy="112.67187845338589" r="3.8830111003450045" fill="#FFFFFF" fill-opacity="0.5675849627764471" />
<circle cx="92.8860531678192" cy="102.87869217697049" r="2.744257567029276" fill="#8B4513" fill-opacity="0.23060707001734523" />
<circle cx="126.52465422089443" cy="137.12690556984302" r="4.012249275405086" fill="#D2691E" fill-opacity="0.4560892330356445" />
<circle cx="100.12652166423729" cy="117.56668729963988" r="5.068716388354529" fill="#FFDE75" fill-opacity="0.36553758932148583" />
<circle cx="91.43284751015076" cy="115.6088472795687" r="5.483000974210325" fill="#FFFFFF" fill-opacity="0.27993481897768474" />
<circle cx="102.31830736137266" cy="116.59653968069647" r="2.711686217806283" fill="#D2691E" fill-opacity="0.5916894744611505" />
<circle cx="124.81944879915005" cy="129.88663148513075" r="2.6918981376459468" fill="#D2691E" fill-opacity="0.34715308517671817" />
<circle cx="121.84118936272982" cy="103.80317651780035" r="5.867153008904927" fill="#FFDE75" fill-opacity="0.5208426337748768" />
<circle cx="97.62206870224705" cy="102.92142137811082" r="5.782021917638193" fill="#FFDE75" fill-opacity="0.3057120846080319" />
<circle cx="62.966829419010836" cy="124.61622035952558" r="3.113129320432517" fill="#FFDE75" fill-opacity="0.4445837858114844" />
<circle cx="168.60420604917752" cy="155.79656170875455" r="5.053274634423651" fill="#FFDE75" fill-opacity="0.3271377593770459" />
<circle cx="146.38255925814497" cy="46.029210849495676" r="4.674781887133932" fill="#FFDE75" fill-opacity="0.38022067736709786" />
<circle cx="84.13349104341533" cy="118.58815497739428" r="11.923752680159634" fill="#C92A2A" stroke="#800000" stroke-width="1" />
<circle cx="84.19258193420683" cy="116.90981096734198" r="1.499603228631989" fill="#FFA07A" fill-opacity="0.7" />
<circle cx="80.50689814832698" cy="114.73409247376982" r="0.9323697079972545" fill="#FFA07A" fill-opacity="0.7" />
<circle cx="85.06986316600874" cy="113.52173985196842" r="0.9191347761993065" fill="#FFA07A" fill-opacity="0.7" />
<circle cx="54.74180413906483" cy="119.70251951553281" r="9.146521837189582" fill="#C92A2A" stroke="#800000" stroke-width="1" />
<circle cx="59.91335979835661" cy="118.10722537003025" r="1.1879929109376903" fill="#FFA07A" fill-opacity="0.7" />
<circle cx="50.79147915831269" cy="119.95543410561808" r="1.3184614905310517" fill="#FFA07A" fill-opacity="0.7" />
<circle cx="56.19484528760128" cy="119.03509453537089" r="0.6089003465837197" fill="#FFA07A" fill-opacity="0.7" />
<circle cx="52.1244099710582" cy="119.5790978990096" r="0.9417028778319056" fill="#FFA07A" fill-opacity="0.7" />
<circle cx="121.51810823864778" cy="171.97957043265342" r="10.402551175627135" fill="#C92A2A" stroke="#800000" stroke-width="1" />
<circle cx="123.31582603819294" cy="170.93650492327797" r="0.7419434964702554" fill="#FFA07A" fill-opacity="0.7" />
<circle cx="121.20961644099754" cy="167.36506253820585" r="0.5029528422322447" fill="#FFA07A" fill-opacity="0.7" />
<circle cx="122.32657131289336" cy="175.06776127482007" r="0.577292842028537" fill="#FFA07A" fill-opacity="0.7" />
<circle cx="120.75689671173805" cy="169.97216910597902" r="1.0833801957979379" fill="#FFA07A" fill-opacity="0.7" />
<circle cx="125.35707330292799" cy="171.29410014785697" r="0.76409059136007" fill="#FFA07A" fill-opacity="0.7" />
<circle cx="135.96521112739404" cy="36.53568748075756" r="11.90854442769102" fill="#C92A2A" stroke="#800000" stroke-width="1" />
<circle cx="138.93497542422915" cy="34.5393245526268" r="1.2948037568249493" fill="#FFA07A" fill-opacity="0.7" />
<circle cx="136.53161367539738" cy="36.460142829314805" r="1.4332853423072118" fill="#FFA07A" fill-opacity="0.7" />
<circle cx="138.82281042675024" cy="40.125889305145016" r="1.4705929186612927" fill="#FFA07A" fill-opacity="0.7" />
<circle cx="130.52638348287013" cy="40.93695269614339" r="0.9232338583857308" fill="#FFA07A" fill-opacity="0.7" />
</g>
<rect x="230.0" y="41.0" width="54.0" height="54.0" fill="none" stroke="black" stroke-width="2" />
<rect x="230.0" y="115.0" width="54.0" height="54.0" fill="none" stroke="black" stroke-width="2" />
<path d="M225.0,105.0 L289.0,105.0" stroke="black" stroke-width="2" />
</g>
</svg>