<?xml version="1.0" encoding="UTF-8"?>
<svg xmlns="http://www.w3.org/2000/svg" xmlns:xlink="http://www.w3.org/1999/xlink"
     width="284.0" height="210" viewBox="0 0 284.0 210">
<defs>
<clipPath id="clip-4535260560-4471970384">
<path d="M105.0,105.0 L105.0,5.0 A100,100,0,0,1,205.0,105.0 Z" fill="none" />
</clipPath>
<clipPath id="clip-4535260560-4535616592">
<path d="M105.0,105.0 L205.0,105.0 A100,100,0,0,1,105.0,205.0 Z" fill="none" />
</clipPath>
</defs>
<g>
<path d="M105.0,105.0 L105.0,5.0 A100,100,0,0,1,205.0,105.0 Z" fill="none" stroke="lightgray" stroke-width="2" />
<path d="M105.0,105.0 L205.0,105.0 A100,100,0,0,1,105.0,205.0 Z" fill="none" stroke="lightgray" stroke-width="2" />
<path d="M105.0,105.0 L105.0,205.0 A100,100,0,0,1,5.0,105.00000000000001 Z" fill="none" stroke="lightgray" stroke-width="2" />
<path d="M105.0,105.0 L5.0,105.00000000000001 A100,100,0,0,1,104.99999999999999,5.0 Z" fill="none" stroke="lightgray" stroke-width="2" />
<path d="M105.0,105.0 L105.0,5.0 A100,100,0,0,1,205.0,105.0 Z" fill="#F5C754" stroke="lightgray" stroke-width="2" />
<use xlink:href="#clip-4535260560-4471970384" />
<g clip-path="url(#clip-4535260560-4471970384)">
<circle cx="105.0" cy="105.0" r="92" stroke="#DAA05D" stroke-width="16" fill="none" />
<circle cx="105.0" cy="105.0" r="98" stroke="#C37B32" stroke-width="5" fill="none" />
<circle cx="114.65142500158363" cy="127.10682792154445" r="5.221634746081327" fill="#8B4513" fill-opacity="0.5521215130830037" />
<circle cx="126.4567885270546" cy="64.94112770405044" r="3.9752205874879514" fill="#8B4513" fill-opacity="0.3370104560457886" />
<circle cx="56.70008250502399" cy="65.12550167336909" r="5.491891037101066" fill="#8B4513" fill-opacity="0.29864464578114003" />
<circle cx="169.85808266587748" cy="132.94024476200613" r="3.7503744491755224" fill="#FFFFFF" fill-opacity="0.316208213168529" />
<circle cx="24.628168757555216" cy="126.02967721016908" r="4.93835898152589" fill="#FFFFFF" fill-opacity="0.4677202170772625" />
<circle cx="180.20777835395177" cy="85.41062762525623" r="4.364174271785458" fill="#D2691E" fill-opacity="0.34827677318082345" />
<circle cx="44.928161127339244" cy="134.8179317610673" r="3.657348404962136" fill="#FFDE75" fill-opacity="0.4187007311837049" />
<circle cx="68.29657518731796" cy="46.03733364267154" r="3.3745774567845306" fill="#FFFFFF" fill-opacity="0.3759976069740245" />
<circle cx="101.7711672147407" cy="118.01679724905773" r="4.468491042364461" fill="#FFFFFF" fill-opacity="0.4433471923794034" />
<circle cx="136.97107643730897" cy="65.54129143934905" r="5.639504736168491" fill="#8B4513" fill-opacity="0.4036872715950858" />
<circle cx="160.00903470134378" cy="160.37012200818174" r="5.122243162075826" fill="#FFDE75" fill-opacity="0.22716609817317385" />
<circle cx="49.45364118925181" cy="104.85077000620387" r="2.0561161681675024" fill="#FFDE75" fill-opacity="0.4536192166991363" />
<circle cx="154.42213501203713" cy="140.75714382646242" r="4.7081280834366925" fill="#8B4513" fill-opacity="0.581720192395173" />
<circle cx="90.50276993892071" cy="114.03513082800896" r="4.036611875122185" fill="#D2691E" fill-opacity="0.5758570724401126" />
<circle cx="183.50566573475365" cy="124.25907874971217" r="5.211926175679961" fill="#8B4513" fill-opacity="0.5178399628552814" />
<circle cx="103.25790125324542" cy="51.89337277328302" r="4.938227245629756" fill="#FFDE75" fill-opacity="0.3970448523183764" />
<circle cx="152.8215689442514" cy="72.5399835484" r="3.9729482168043764" fill="#8B4513" fill-opacity="0.26155722547252214" />
<circle cx="101.44114814392675" cy="184.99972659112325" r="5.048527678879276" fill="#D2691E" fill-opacity="0.412190887871022" />
<circle cx="133.70388633707464" cy="101.07857750731479" r="3.037350596774677" fill="#D2691E" fill-opacity="0.30017371928273207" />
<circle cx="105.0378611725112" cy="183.1269247904629" r="3.0244504640888743" fill="#FFFFFF" fill-opacity="0.5403265139840079" />
<circle cx="92.33584865621687" cy="172.6585618613708" r="2.079382729956962" fill="#FFDE75" fill-opacity="0.27121355616742243" />
<circle cx="50.218299261339766" cy="121.49509192501586" r="2.0211316085038242" fill="#FFFFFF" fill-opacity="0.3280906397579555" />
<circle cx="171.76201304225827" cy="126.8253097847044" r="2.966744167678918" fill="#8B4513" fill-opacity="0.3230417092014857" />
<circle cx="65.11162131949347" cy="59.942429389425" r="5.260850806060807" fill="#D2691E" fill-opacity="0.2990757960196607" />
<circle cx="166.53849382442934" cy="148.5354699134228" r="3.7256633099342844" fill="#8B4513" fill-opacity="0.3115188317494544" />
<circle cx="84.85273848102784" cy="172.44754279918612" r="3.003930860785521" fill="#8B4513" fill-opacity="0.34816002849539635" />
<circle cx="173.93569690268694" cy="110.6486807061219" r="2.42333161027338" fill="#D2691E" fill-opacity="0.555516177742152" />
<circle cx="83.19195591848634" cy="141.10818757665697" r="4.603843916299026" fill="#D2691E" fill-opacity="0.26726435695825945" />
<circle cx="48.37186165401561" cy="83.61622183640279" r="2.352046621360239" fill="#FFDE75" fill-opacity="0.4750429171472359" />
<circle cx="143.13937832419924" cy="77.99429542645943" r="5.047627887214553" fill="#D2691E" fill-opacity="0.28452431151156043" />
<circle cx="155.59980615572192" cy="152.1325150346973" r="10.844158383961894" fill="#C92A2A" stroke="#800000" stroke-width="1" />
<circle cx="157.74565055315819" cy="147.72729403039276" r="1.0326475432805378" fill="#FFA07A" fill-opacity="0.7" />
<circle cx="155.14502802317267" cy="158.00582562182214" r="1.0601679155563446" fill="#FFA07A" fill-opacity="0.7" />
<circle cx="158.8668818885906" cy="146.25729765146062" r="1.280754718490998" fill="#FFA07A" fill-opacity="0.7" />
<circle cx="156.98656072214553" cy="136.03704440040667" r="10.719369174132401" fill="#C92A2A" stroke="#800000" stroke-width="1" />
<circle cx="162.30481953122919" cy="132.59926096450323" r="1.4506662456791437" fill="#FFA07A" fill-opacity="0.7" />
<circle cx="154.4144519492275" cy="141.51820448465287" r="0.7194298895296294" fill="#FFA07A" fill-opacity="0.7" />
<circle cx="160.8488103984109" cy="140.56088139712585" r="0.526687463717148" fill="#FFA07A" fill-opacity="0.7" />
<circle cx="159.07214722931988" cy="135.57185842120282" r="0.5495411826437306" fill="#FFA07A" fill-opacity="0.7" />
<circle cx="162.38072083537892" cy="133.3670387276569" r="0.7829457186792735" fill="#FFA07A" fill-opacity="0.7" />
<circle cx="73.45163587848893" cy="104.1812406361351" r="10.813308007083283" fill="#C92A2A" stroke="#800000" stroke-width="1" />
<circle cx="72.4206076397478" cy="105.59488498846048" r="0.7392299350695294" fill="#FFA07A" fill-opacity="0.7" />
<circle cx="68.80463540059642" cy="102.16982988731539" r="1.0844318521447365" fill="#FFA07A" fill-opacity="0.7" />
<circle cx="71.68792205669828" cy="99.88573895584916" r="0.7688951001543185" fill="#FFA07A" fill-opacity="0.7" />
<circle cx="77.7718283110963" cy="108.58705903576188" r="0.6459054435461461" fill="#FFA07A" fill-opacity="0.7" />
<circle cx="151.60030506325907" cy="162.8148095390108" r="10.66262192949362" fill="#C92A2A" stroke="#800000" stroke-width="1" />
<circle cx="151.95055078682716" cy="168.1948204793504" r="1.2085708439723657" fill="#FFA07A" fill-opacity="0.7" />
<circle cx="148.19932924921306" cy="163.0250210597889" r="1.1790445160659584" fill="#FFA07A" fill-opacity="0.7" />
<circle cx="154.09349918074417" cy="163.59143292463764" r="0.9599251567046052" fill="#FFA07A" fill-opacity="0.7" />
<circle cx="146.9731405644739" cy="163.42816562239497" r="1.476747526656058" fill="#FFA07A" fill-opacity="0.7" />
<circle cx="152.36445067458058" cy="160.27784815144105" r="0.9932738472480529" fill="#FFA07A" fill-opacity="0.7" />
<circle cx="65.75168552617225" cy="79.08985593902788" r="9.544069499604326" fill="#C92A2A" stroke="#800000" stroke-width="1" />
<circle cx="71.56831681466694" cy="73.41667548382297" r="0.8522305594555719" fill="#FFA07A" fill-opacity="0.7" />
<circle cx="68.48214712554297" cy="79.57853644852767" r="1.182448741117161" fill="#FFA07A" fill-opacity="0.7" />
<circle cx="64.11007460504801" cy="75.69756253559883" r="0.5171383234451938" fill="#FFA07A" fill-opacity="0.7" />
<circle cx="64.69061310481936" cy="73.37438777301243" r="1.2235605114961536" fill="#FFA07A" fill-opacity="0.7" />
<circle cx="71.74124529989999" cy="75.63046831074105" r="0.8483914913966011" fill="#FFA07A" fill-opacity="0.7" />
<circle cx="59.99787147713626" cy="82.15765201501543" r="1.0209849583812987" fill="#FFA07A" fill-opacity="0.7" />
<circle cx="163.7676282467689" cy="68.41901451887679" r="11.71652941375842" fill="#C92A2A" stroke="#800000" stroke-width="1" />
<circle cx="167.91356505542265" cy="64.72329068026515" r="1.2480108733930384" fill="#FFA07A" fill-opacity="0.7" />
<circle cx="168.34606618617508" cy="71.34218416964904" r="0.6978361360912361" fill="#FFA07A" fill-opacity="0.7" />
<circle cx="161.21870346648666" cy="66.08323031915612" r="0.7240857895725205" fill="#FFA07A" fill-opacity="0.7" />
<circle cx="166.09376197680305" cy="65.57979589093198" r="0.7669829124643983" fill="#FFA07A" fill-opacity="0.7" />
<circle cx="159.11655372294513" cy="69.26580313451103" r="0.5956787258484921" fill="#FFA07A" fill-opacity="0.7" />
<circle cx="158.85241520088636" cy="72.31610347973907" r="1.4354885111577667" fill="#FFA07A" fill-opacity="0.7" />
<circle cx="92.26088015458856" cy="108.85150273596838" r="9.925284567116668" fill="#C92A2A" stroke="#800000" stroke-width="1" />
<circle cx="92.32548519748829" cy="114.61876996686416" r="0.5954162233721708" fill="#FFA07A" fill-opacity="0.7" />
<circle cx="91.04472943393475" cy="109.86264930839194" r="0.7241222659633074" fill="#FFA07A" fill-opacity="0.7" />
<circle cx="97.62868011178327" cy="106.61371666349773" r="1.1886201659013544" fill="#FFA07A" fill-opacity="0.7" />
<circle cx="97.21833930070011" cy="107.24989767019052" r="0.922809539732056" fill="#FFA07A" fill-opacity="0.7" />
<circle cx="90.88098777060306" cy="112.8600285370479" r="1.0206058945802827" fill="#FFA07A" fill-opacity="0.7" />
<circle cx="88.9956260372869" cy="114.1858851248948" r="0.5978221603025989" fill="#FFA07A" fill-opacity="0.7" />
<circle cx="94.90912144540216" cy="111.49370914739998" r="0.5171876799385249" fill="#FFA07A" fill-opacity="0.7" />
<circle cx="30.9661269600103" cy="120.7204181724016" r="11.144864623410161" fill="#C92A2A" stroke="#800000" stroke-width="1" />
<circle cx="28.501828483975185" cy="116.46420790994765" r="1.2152864270410684" fill="#FFA07A" fill-opacity="0.7" />
<circle cx="26.9268071251774" cy="117.23896415273109" r="0.6884064918114982" fill="#FFA07A" fill-opacity="0.7" />
<circle cx="35.85448351037819" cy="119.95908929908212" r="1.3310830458407676" fill="#FFA07A" fill-opacity="0.7" />
<circle cx="36.30499278550491" cy="119.7991833783235" r="1.2211128121458048" fill="#FFA07A" fill-opacity="0.7" />
<circle cx="35.5478248751602" cy="120.01270207986454" r="1.147077741570167" fill="#FFA07A" fill-opacity="0.7" />
</g>
<path d="M105.0,105.0 L205.0,105.0 A100,100,0,0,1,105.0,205.0 Z" fill="#F5C754" stroke="lightgray" stroke-width="2" />
<use xlink:href="#clip-4535260560-4535616592" />
<g clip-path="url(#clip-4535260560-4535616592)">
<circle cx="105.0" cy="105.0" r="92" stroke="#DAA05D" stroke-width="16" fill="none" />
<circle cx="105.0" cy="105.0" r="98" stroke="#C37B32" stroke-width="5" fill="none" />
<circle cx="114.65142500158363" cy="127.10682792154445" r="5.221634746081327" fill="#8B4513" fill-opacity="0.5521215130830037" />
<circle cx="126.4567885270546" cy="64.94112770405044" r="3.9752205874879514" fill="#8B4513" fill-opacity="0.3370104560457886" />
<circle cx="56.70008250502399" cy="65.12550167336909" r="5.491891037101066" fill="#8B4513" fill-opacity="0.29864464578114003" />
<circle cx="169.85808266587748" cy="132.94024476200613" r="3.7503744491755224" fill="#FFFFFF" fill-opacity="0.316208213168529" />
<circle cx="24.628168757555216" cy="126.02967721016908" r="4.93835898152589" fill="#FFFFFF" fill-opacity="0.4677202170772625" />
<circle cx="180.20777835395177" cy="85.41062762525623" r="4.364174271785458" fill="#D2691E" fill-opacity="0.34827677318082345" />
<circle cx="44.928161127339244" cy="134.8179317610673" r="3.657348404962136" fill="#FFDE75" fill-opacity="0.4187007311837049" />
<circle cx="68.29657518731796" cy="46.03733364267154" r="3.3745774567845306" fill="#FFFFFF" fill-opacity="0.3759976069740245" />
<circle cx="101.7711672147407" cy="118.01679724905773" r="4.468491042364461" fill="#FFFFFF" fill-opacity="0.4433471923794034" />
<circle cx="136.97107643730897" cy="65.54129143934905" r="5.639504736168491" fill="#8B4513" fill-opacity="0.4036872715950858" />
<circle cx="160.00903470134378" cy="160.37012200818174" r="5.122243162075826" fill="#FFDE75" fill-opacity="0.22716609817317385" />
<circle cx="49.45364118925181" cy="104.85077000620387" r="2.0561161681675024" fill="#FFDE75" fill-opacity="0.4536192166991363" />
<circle cx="154.42213501203713" cy="140.75714382646242" r="4.7081280834366925" fill="#8B4513" fill-opacity="0.581720192395173" />
<circle cx="90.50276993892071" cy="114.03513082800896" r="4.036611875122185" fill="#D2691E" fill-opacity="0.5758570724401126" />
<circle cx="183.50566573475365" cy="124.25907874971217" r="5.211926175679961" fill="#8B4513" fill-opacity="0.5178399628552814" />
<circle cx="103.25790125324542" cy="51.89337277328302" r="4.938227245629756" fill="#FFDE75" fill-opacity="0.3970448523183764" />
<circle cx="152.8215689442514" cy="72.5399835484" r="3.9729482168043764" fill="#8B4513" fill-opacity="0.26155722547252214" />
<circle cx="101.44114814392675" cy="184.99972659112325" r="5.048527678879276" fill="#D2691E" fill-opacity="0.412190887871022" />
<circle cx="133.70388633707464" cy="101.07857750731479" r="3.037350596774677" fill="#D2691E" fill-opacity="0.30017371928273207" />
<circle cx="105.0378611725112" cy="183.1269247904629" r="3.0244504640888743" fill="#FFFFFF" fill-opacity="0.5403265139840079" />
<circle cx="92.33584865621687" cy="172.6585618613708" r="2.079382729956962" fill="#FFDE75" fill-opacity="0.27121355616742243" />
<circle cx="50.218299261339766" cy="121.49509192501586" r="2.0211316085038242" fill="#FFFFFF" fill-opacity="0.3280906397579555" />
<circle cx="171.76201304225827" cy="126.8253097847044" r="2.966744167678918" fill="#8B4513" fill-opacity="0.3230417092014857" />
<circle cx="65.11162131949347" cy="59.942429389425" r="5.260850806060807" fill="#D2691E" fill-opacity="0.2990757960196607" />
<circle cx="166.53849382442934" cy="148.5354699134228" r="3.7256633099342844" fill="#8B4513" fill-opacity="0.3115188317494544" />
<circle cx="84.85273848102784" cy="172.44754279918612" r="3.003930860785521" fill="#8B4513" fill-opacity="0.34816002849539635" />
<circle cx="173.93569690268694" cy="110.6486807061219" r="2.42333161027338" fill="#D2691E" fill-opacity="0.555516177742152" />
<circle cx="83.19195591848634" cy="141.10818757665697" r="4.603843916299026" fill="#D2691E" fill-opacity="0.26726435695825945" />
<circle cx="48.37186165401561" cy="83.61622183640279" r="2.352046621360239" fill="#FFDE75" fill-opacity="0.4750429171472359" />
<circle cx="143.13937832419924" cy="77.99429542645943" r="5.047627887214553" fill="#D2691E" fill-opacity="0.28452431151156043" />
<circle cx="155.59980615572192" cy="152.1325150346973" r="10.844158383961894" fill="#C92A2A" stroke="#800000" stroke-width="1" />
<circle cx="157.74565055315819" cy="147.72729403039276" r="1.0326475432805378" fill="#FFA07A" fill-opacity="0.7" />
<circle cx="155.14502802317267" cy="158.00582562182214" r="1.0601679155563446" fill="#FFA07A" fill-opacity="0.7" />
<circle cx="158.8668818885906" cy="146.25729765146062" r="1.280754718490998" fill="#FFA07A" fill-opacity="0.7" />
<circle cx="156.98656072214553" cy="136.03704440040667" r="10.719369174132401" fill="#C92A2A" stroke="#800000" stroke-width="1" />
<circle cx="162.30481953122919" cy="132.59926096450323" r="1.4506662456791437" fill="#FFA07A" fill-opacity="0.7" />
<circle cx="154.4144519492275" cy="141.51820448465287" r="0.7194298895296294" fill="#FFA07A" fill-opacity="0.7" />
<circle cx="160.8488103984109" cy="140.56088139712585" r="0.526687463717148" fill="#FFA07A" fill-opacity="0.7" />
<circle cx="159.07214722931988" cy="135.57185842120282" r="0.5495411826437306" fill="#FFA07A" fill-opacity="0.7" />
<circle cx="162.38072083537892" cy="133.3670387276569" r="0.7829457186792735" fill="#FFA07A" fill-opacity="0.7" />
<circle cx="73.45163587848893" cy="104.1812406361351" r="10.813308007083283" fill="#C92A2A" stroke="#800000" stroke-width="1" />
<circle cx="72.4206076397478" cy="105.59488498846048" r="0.7392299350695294" fill="#FFA07A" fill-opacity="0.7" />
<circle cx="68.80463540059642" cy="102.16982988731539" r="1.0844318521447365" fill="#FFA07A" fill-opacity="0.7" />
<circle cx="71.68792205669828" cy="99.88573895584916" r="0.7688951001543185" fill="#FFA07A" fill-opacity="0.7" />
<circle cx="77.7718283110963" cy="108.58705903576188" r="0.6459054435461461" fill="#FFA07A" fill-opacity="0.7" />
<circle cx="151.60030506325907" cy="162.8148095390108" r="10.66262192949362" fill="#C92A2A" stroke="#800000" stroke-width="1" />
<circle cx="151.95055078682716" cy="168.1948204793504" r="1.2085708439723657" fill="#FFA07A" fill-opacity="0.7" />
<circle cx="148.19932924921306" cy="163.0250210597889" r="1.1790445160659584" fill="#FFA07A" fill-opacity="0.7" />
<circle cx="154.09349918074417" cy="163.59143292463764" r="0.9599251567046052" fill="#FFA07A" fill-opacity="0.7" />
<circle cx="146.9731405644739" cy="163.42816562239497" r="1.476747526656058" fill="#FFA07A" fill-opacity="0.7" />
<circle cx="152.36445067458058" cy="160.27784815144105" r="0.9932738472480529" fill="#FFA07A" fill-opacity="0.7" />
<circle cx="65.75168552617225" cy="79.08985593902788" r="9.544069499604326" fill="#C92A2A" stroke="#800000" stroke-width="1" />
<circle cx="71.56831681466694" cy="73.41667548382297" r="0.8522305594555719" fill="#FFA07A" fill-opacity="0.7" />
<circle cx="68.48214712554297" cy="79.57853644852767" r="1.182448741117161" fill="#FFA07A" fill-opacity="0.7" />
<circle cx="64.11007460504801" cy="75.69756253559883" r="0.5171383234451938" fill="#FFA07A" fill-opacity="0.7" />
<circle cx="64.69061310481936" cy="73.37438777301243" r="1.2235605114961536" fill="#FFA07A" fill-opacity="0.7" />
<circle cx="71.74124529989999" cy="75.63046831074105" r="0.8483914913966011" fill="#FFA07A" fill-opacity="0.7" />
<circle cx="59.99787147713626" cy="82.15765201501543" r="1.0209849583812987" fill="#FFA07A" fill-opacity="0.7" />
<circle cx="163.7676282467689" cy="68.41901451887679" r="11.71652941375842" fill="#C92A2A" stroke="#800000" stroke-width="1" />
<circle cx="167.91356505542265" cy="64.72329068026515" r="1.2480108733930384" fill="#FFA07A" fill-opacity="0.7" />
<circle cx="168.34606618617508" cy="71.34218416964904" r="0.6978361360912361" fill="#FFA07A" fill-opacity="0.7" />
<circle cx="161.21870346648666" cy="66.08323031915612" r="0.7240857895725205" fill="#FFA07A" fill-opacity="0.7" />
<circle cx="166.09376197680305" cy="65.57979589093198" r="0.7669829124643983" fill="#FFA07A" fill-opacity="0.7" />
<circle cx="159.11655372294513" cy="69.26580313451103" r="0.5956787258484921" fill="#FFA07A" fill-opacity="0.7" />
<circle cx="158.85241520088636" cy="72.31610347973907" r="1.4354885111577667" fill="#FFA07A" fill-opacity="0.7" />
<circle cx="92.26088015458856" cy="108.85150273596838" r="9.925284567116668" fill="#C92A2A" stroke="#800000" stroke-width="1" />
<circle cx="92.32548519748829" cy="114.61876996686416" r="0.5954162233721708" fill="#FFA07A" fill-opacity="0.7" />
<circle cx="91.04472943393475" cy="109.86264930839194" r="0.7241222659633074" fill="#FFA07A" fill-opacity="0.7" />
<circle cx="97.62868011178327" cy="106.61371666349773" r="1.1886201659013544" fill="#FFA07A" fill-opacity="0.7" />
<circle cx="97.21833930070011" cy="107.24989767019052" r="0.922809539732056" fill="#FFA07A" fill-opacity="0.7" />
<circle cx="90.88098777060306" cy="112.8600285370479" r="1.0206058945802827" fill="#FFA07A" fill-opacity="0.7" />
<circle cx="88.9956260372869" cy="114.1858851248948" r="0.5978221603025989" fill="#FFA07A" fill-opacity="0.7" />
<circle cx="94.90912144540216" cy="111.49370914739998" r="0.5171876799385249" fill="#FFA07A" fill-opacity="0.7" />
<circle cx="30.9661269600103" cy="120.7204181724016" r="11.144864623410161" fill="#C92A2A" stroke="#800000" stroke-width="1" />
<circle cx="28.501828483975185" cy="116.46420790994765" r="1.2152864270410684" fill="#FFA07A" fill-opacity="0.7" />
<circle cx="26.9268071251774" cy="117.23896415273109" r="0.6884064918114982" fill="#FFA07A" fill-opacity="0.7" />
<circle cx="35.85448351037819" cy="119.95908929908212" r="1.3310830458407676" fill="#FFA07A" fill-opacity="0.7" />
<circle cx="36.30499278550491" cy="119.7991833783235" r="1.2211128121458048" fill="#FFA07A" fill-opacity="0.7" />
<circle cx="35.5478248751602" cy="120.01270207986454" r="1.147077741570167" fill="#FFA07A" fill-opacity="0.7" />
</g>
<rect x="230.0" y="41.0" width="54.0" height="54.0" fill="none" stroke="black" stroke-width="2" />
<rect x="230.0" y="115.0" width="54.0" height="54.0" fill="none" stroke="black" stroke-width="2" />
<path d="M225.0,105.0 L289.0,105.0" stroke="black" stroke-width="2" />
</g>
</svg>