<?xml version="1.0" encoding="UTF-8"?>
<svg xmlns="http://www.w3.org/2000/svg" xmlns:xlink="http://www.w3.org/1999/xlink"
     width="284.0" height="210" viewBox="0 0 284.0 210">
<defs>
<clipPath id="clip-4524437392-4471971280">
<path d="M105.0,105.0 L105.0,5.0 A100,100,0,0,1,191.60254037844388,155.0 Z" fill="none" />
</clipPath>
</defs>
<g>
<path d="M105.0,105.0 L105.0,5.0 A100,100,0,0,1,191.60254037844388,155.0 Z" fill="none" stroke="lightgray" stroke-width="2" />
<path d="M105.0,105.0 L191.60254037844388,155.0 A100,100,0,0,1,18.397459621556123,155.0 Z" fill="none" stroke="lightgray" stroke-width="2" />
<path d="M105.0,105.0 L18.397459621556123,155.0 A100,100,0,0,1,104.99999999999999,5.0 Z" fill="none" stroke="lightgray" stroke-width="2" />
<path d="M105.0,105.0 L105.0,5.0 A100,100,0,0,1,191.60254037844388,155.0 Z" fill="#FEF7E3" stroke="lightgray" stroke-width="2" />
<use xlink:href="#clip-4524437392-4471971280" />
<g clip-path="url(#clip-4524437392-4471971280)">
<circle cx="105.0" cy="105.0" r="92" stroke="#DAA05D" stroke-width="16" fill="none" />
<circle cx="105.0" cy="105.0" r="98" stroke="#C37B32" stroke-width="5" fill="none" />
<circle cx="77.89335076695338" cy="76.25317611754669" r="5.347390091913411" fill="#8B4513" fill-opacity="0.3678998382127987" />
<circle cx="121.40065207163111" cy="25.026544277930697" r="3.6431189226538105" fill="#FFDE75" fill-opacity="0.5668192891042081" />
<circle cx="156.5268386570059" cy="132.80782063252065" r="2.224640053401935" fill="#8B4513" fill-opacity="0.5821472184682284" />
<circle cx="154.5814528399933" cy="53.22073973301599" r="2.078122922640293" fill="#FFFFFF" fill-opacity="0.5710538968058976" />
<circle cx="101.87340025148714" cy="83.22009179902649" r="5.98051353164868" fill="#8B4513" fill-opacity="0.30621299252727885" />
<circle cx="70.10986587029939" cy="144.47284910476904" r="4.0965924396669635" fill="#FFDE75" fill-opacity="0.4586549323565834" />
<circle cx="152.79597292477894" cy="144.35950132715735" r="4.9824324341122725" fill="#D2691E" fill-opacity="0.28900139946681314" />
<circle cx="112.57473131635946" cy="74.16469880691653" r="5.408214537033563" fill="#FFDE75" fill-opacity="0.5288478633100316" />
<circle cx="103.40756272835635" cy="119.53864498657032" r="5.8612061492317515" fill="#FFFFFF" fill-opacity="0.3317923257478056" />
<circle cx="125.92724578411719" cy="144.5661546504031" r="4.793032422855218" fill="#FFDE75" fill-opacity="0.20207417070665457" />
<circle cx="174.24211416121227" cy="128.8557326208034" r="3.4578161067541107" fill="#D2691E" fill-opacity="0.3063844393390072" />
<circle cx="159.51109422136707" cy="111.79067561449374" r="2.311274896348628" fill="#D2691E" fill-opacity="0.2321836581680965" />
<circle cx="185.1123649016868" cy="119.94874704461179" r="2.037854217440426" fill="#8B4513" fill-opacity="0.4059591915305387" />
<circle cx="133.18202458213884" cy="64.19247255726634" r="5.354522520633772" fill="#FFFFFF" fill-opacity="0.5513845850599981" />
<circle cx="65.52738784866538" cy="80.5901018818331" r="2.258404041529371" fill="#FFDE75" fill-opacity="0.4911135294376156" />
<circle cx="126.48927827207837" cy="102.84342943135395" r="10.942818242182579" fill="#FFFFFF" fill-opacity="0.95" stroke="#FAF0E6" stroke-width="1.5" />
<circle cx="128.82721841970013" cy="65.28253417022258" r="5.5492930754065775" fill="#FFFFFF" fill-opacity="0.95" stroke="#FAF0E6" stroke-width="1.5" />
<circle cx="125.59605809618876" cy="77.23992223696777" r="11.19239768337177" fill="#FFFFFF" fill-opacity="0.95" stroke="#FAF0E6" stroke-width="1.5" />
<circle cx="87.00846745540699" cy="48.627083032295836" r="10.149771741106228" fill="#FFFFFF" fill-opacity="0.95" stroke="#FAF0E6" stroke-width="1.5" />
<circle cx="132.51510931622084" cy="157.9510675353861" r="6.911608879705573" fill="#FFFFFF" fill-opacity="0.95" stroke="#FAF0E6" stroke-width="1.5" />
<circle cx="107.60356387572695" cy="80.19439809626186" r="11.704330019992078" fill="#FFFFFF" fill-opacity="0.95" stroke="#FAF0E6" stroke-width="1.5" />
</g>
<rect x="230.0" y="41.0" width="54.0" height="54.0" fill="none" stroke="black" stroke-width="2" />
<rect x="230.0" y="115.0" width="54.0" height="54.0" fill="none" stroke="black" stroke-width="2" />
<path d="M225.0,105.0 L289.0,105.0" stroke="black" stroke-width="2" />
<text x="257.0" y="68.0" font-size="36" font-family="Comic Sans MS, Comic Sans, cursive" dominant-baseline="middle" fill="black" text-anchor="middle">1</text>
<text x="257.0" y="142.0" font-size="36" font-family="Comic Sans MS, Comic Sans, cursive" dominant-baseline="middle" fill="black" text-anchor="middle">3</text>
</g>
</svg>