<svg width="210.0" height="210.0" xmlns="http://www.w3.org/2000/svg" xmlns:xlink="http://www.w3.org/1999/xlink">
<svg x="0.0" y="0.0" width="210.0" height="210.0" viewBox="0 0 210 210" xmlns="http://www.w3.org/2000/svg" xmlns:xlink="http://www.w3.org/1999/xlink">
<defs>
<clipPath id="clip-4503625680-4503488848">
<circle cx="105.0" cy="105.0" r="100" fill="none" />
</clipPath>
</defs>
<g>
<circle cx="105.0" cy="105.0" r="100" fill="#F5C754" />
<use xlink:href="#clip-4503625680-4503488848" />
<g clip-path="url(#clip-4503625680-4503488848)">
<circle cx="105.0" cy="105.0" r="92" stroke="#DAA05D" stroke-width="16" fill="none" />
<circle cx="105.0" cy="105.0" r="98" stroke="#C37B32" stroke-width="5" fill="none" />
<circle cx="119.70734430941225" cy="63.81446991459512" r="2.4900921029130263" fill="#FFFFFF" fill-opacity="0.22323530973144734" />
<circle cx="34.5710423920051" cy="134.8811717835487" r="5.994560104125489" fill="#FFDE75" fill-opacity="0.27416061188565094" />
<circle cx="86.81610208968893" cy="86.08079056832383" r="3.9551989994878856" fill="#FFDE75" fill-opacity="0.4429885307057092" />
<circle cx="66.79524567256934" cy="81.49868704651414" r="4.178054003890596" fill="#FFFFFF" fill-opacity="0.3580275534284756" />
<circle cx="96.94150021458566" cy="117.38587669705758" r="5.4157783360963485" fill="#FFDE75" fill-opacity="0.23044979147075276" />
<circle cx="139.87711229158595" cy="116.37632146825459" r="3.8875507132193605" fill="#8B4513" fill-opacity="0.38597569850177016" />
<circle cx="127.26696507268068" cy="168.52247261044027" r="3.3820430408644224" fill="#FFFFFF" fill-opacity="0.3939805086298974" />
<circle cx="99.66413377560967" cy="61.19387950918106" r="5.712961315300593" fill="#FFDE75" fill-opacity="0.34835001728424353" />
<circle cx="65.27766084130285" cy="176.97319484784293" r="4.063686961791925" fill="#D2691E" fill-opacity="0.3484840268128961" />
<circle cx="94.40452562450162" cy="84.61909792240968" r="5.179519921849794" fill="#FFFFFF" fill-opacity="0.24888478666555716" />
<circle cx="145.5340237034718" cy="177.36371138704348" r="5.3386990030072" fill="#FFDE75" fill-opacity="0.28511341496057246" />
<circle cx="93.72696249761182" cy="55.274638863292544" r="2.632573605508091" fill="#8B4513" fill-opacity="0.3337877869138517" />
<circle cx="20.7273025619769" cy="95.14953936914975" r="3.2250031858339083" fill="#D2691E" fill-opacity="0.305754010860428" />
<circle cx="85.70004630036867" cy="101.16049873968598" r="3.057135996330535" fill="#D2691E" fill-opacity="0.35036679949392585" />
<circle cx="83.23771929611272" cy="136.25757358410016" r="2.1030385603375694" fill="#D2691E" fill-opacity="0.29703178273805586" />
<circle cx="107.60171282739081" cy="87.30586364011383" r="5.912416486842396" fill="#FFFFFF" fill-opacity="0.39344179685935143" />
<circle cx="74.11467350420939" cy="180.12734644863122" r="2.0001885703832762" fill="#D2691E" fill-opacity="0.3275498980579451" />
<circle cx="122.39936039481367" cy="183.58084939712018" r="5.658706242016354" fill="#FFDE75" fill-opacity="0.4258273312193823" />
<circle cx="140.92378505426973" cy="169.33570373364387" r="5.891072918278796" fill="#FFDE75" fill-opacity="0.5567586950923447" />
<circle cx="41.92144595928773" cy="68.52979541896275" r="3.5939640518377867" fill="#8B4513" fill-opacity="0.5725441371385689" />
<circle cx="66.54606965657155" cy="56.136760571834095" r="5.935482443312065" fill="#8B4513" fill-opacity="0.5121398444440481" />
<circle cx="156.00950519574621" cy="73.56517731094831" r="4.083190061901599" fill="#D2691E" fill-opacity="0.2686777874261883" />
<circle cx="184.56593014405678" cy="91.25010111121418" r="2.4299590567194658" fill="#FFFFFF" fill-opacity="0.4897779645515708" />
<circle cx="90.59956000008685" cy="52.42209375995356" r="4.769552759002338" fill="#8B4513" fill-opacity="0.2550827425116903" />
<circle cx="131.48257995303166" cy="126.89484551781298" r="4.343878149771364" fill="#8B4513" fill-opacity="0.22975084442639335" />
<circle cx="31.136741719294164" cy="75.61174758671181" r="4.573937731364449" fill="#8B4513" fill-opacity="0.20608041337780825" />
<circle cx="125.06160872576305" cy="161.49757050703266" r="2.118141497829377" fill="#D2691E" fill-opacity="0.3297035804198334" />
<circle cx="118.48770381703635" cy="128.5816866279067" r="2.246041502131406" fill="#FFFFFF" fill-opacity="0.264460382213591" />
<circle cx="105.06261133279182" cy="85.82107727755927" r="2.861761308312155" fill="#D2691E" fill-opacity="0.3861616218216909" />
<circle cx="132.6678837354546" cy="95.20275729212976" r="5.328642275032102" fill="#FFFFFF" fill-opacity="0.4373677847501479" />
<circle cx="47.49529042361282" cy="141.1710118249418" r="5.909655278539953" fill="#FFDE75" fill-opacity="0.5081762466173181" />
<circle cx="63.2913797656507" cy="141.86714901285876" r="4.374951722411161" fill="#8B4513" fill-opacity="0.3014799169249308" />
<circle cx="94.86252897507396" cy="114.34500001334122" r="3.328530293720523" fill="#FFFFFF" fill-opacity="0.2263058146235784" />
<circle cx="28.435078342981953" cy="121.38543603179667" r="3.347926439890915" fill="#8B4513" fill-opacity="0.4591394939473701" />
<circle cx="80.85178409285159" cy="87.74245843029257" r="3.927235864346162" fill="#FFDE75" fill-opacity="0.4878392807008061" />
<circle cx="117.86466494155562" cy="84.56341837820382" r="4.528112235504717" fill="#8B4513" fill-opacity="0.4727140521307793" />
<circle cx="53.22040526833747" cy="64.64723529303326" r="4.029816113834569" fill="#8B4513" fill-opacity="0.2999617663120691" />
<circle cx="142.1897697119113" cy="127.34259662282179" r="5.968581746331431" fill="#FFFFFF" fill-opacity="0.4845621403546582" />
<circle cx="144.02021476370965" cy="123.11164927106992" r="5.7564667615943215" fill="#FFFFFF" fill-opacity="0.4910907576339361" />
<circle cx="24.26209390070693" cy="92.04528045648671" r="2.7722668429140995" fill="#FFFFFF" fill-opacity="0.29371940089273635" />
<circle cx="89.4052162760687" cy="51.28461547801084" r="4.28997176266294" fill="#8B4513" fill-opacity="0.27671699044859105" />
<circle cx="68.7757109079475" cy="158.54814474426001" r="5.48590616271065" fill="#FFDE75" fill-opacity="0.44170077763212845" />
<circle cx="70.3716960647013" cy="45.71184123127107" r="4.009851247745814" fill="#FFDE75" fill-opacity="0.37900258351350047" />
<circle cx="88.20853402699328" cy="183.02687179716298" r="4.5760443197407525" fill="#8B4513" fill-opacity="0.374800311730801" />
<circle cx="179.12275638051483" cy="121.63948076611501" r="2.0604397073866636" fill="#D2691E" fill-opacity="0.20146267494998413" />
<circle cx="68.10881795962888" cy="73.60559946819816" r="4.730806646408913" fill="#FFFFFF" fill-opacity="0.498656064635906" />
<circle cx="73.4211705380616" cy="117.13682186830603" r="3.3558297156054464" fill="#FFFFFF" fill-opacity="0.5546664618426285" />
<circle cx="81.48962769178029" cy="172.97205209060593" r="2.5813916646671404" fill="#D2691E" fill-opacity="0.20592713839047058" />
<circle cx="153.42832573545633" cy="161.37348767573224" r="4.959171426015459" fill="#FFFFFF" fill-opacity="0.3324655161560033" />
<circle cx="83.61884426235532" cy="187.05115077809103" r="3.219644320687357" fill="#8B4513" fill-opacity="0.3073147821430732" />
<circle cx="102.34278688293904" cy="185.0513654506669" r="5.556717669105785" fill="#FFDE75" fill-opacity="0.47228858071223273" />
<circle cx="44.75857704438495" cy="101.94828945913055" r="4.080924927777554" fill="#8B4513" fill-opacity="0.22993495336861508" />
<circle cx="100.6755109931845" cy="127.27070696866858" r="3.6817720880599416" fill="#FFFFFF" fill-opacity="0.4804717602527197" />
<circle cx="150.845585117056" cy="174.55077798166553" r="5.2847034505118495" fill="#FFDE75" fill-opacity="0.30716983260571074" />
<circle cx="140.73666243770487" cy="96.63730349277269" r="5.552748540374711" fill="#8B4513" fill-opacity="0.34682074985572087" />
<circle cx="149.03926413994503" cy="161.41531209517063" r="3.444480622821122" fill="#FFFFFF" fill-opacity="0.5019602773107363" />
<circle cx="81.6037869367102" cy="52.3961379082181" r="2.404999982409062" fill="#FFDE75" fill-opacity="0.4318265791862716" />
<circle cx="155.81801037146823" cy="108.95647212832915" r="5.445976536381346" fill="#D2691E" fill-opacity="0.42065245460847217" />
<circle cx="40.412168734580916" cy="82.30486642205568" r="3.074290540168733" fill="#8B4513" fill-opacity="0.2094919548882045" />
<circle cx="179.53139319664425" cy="133.78212750952773" r="3.629184518060513" fill="#8B4513" fill-opacity="0.5599183219184991" />
<ellipse cx="61.44306753298725" cy="145.0503228440699" rx="9.226938863518882" ry="5.391476713400875" fill="#FFFDF0" fill-opacity="0.6" />
<ellipse cx="62.373135181342" cy="145.5571887349826" rx="2.448925562635301" ry="2.38392177809729" fill="#FFFFFF" fill-opacity="0.85" />
<ellipse cx="95.05121079807722" cy="93.68759580369417" rx="6.482442686686507" ry="8.654964083705494" fill="#FFFDF0" fill-opacity="0.6" />
<ellipse cx="95.71410920668293" cy="94.54954689162449" rx="4.060245137568888" ry="2.020595022262786" fill="#FFFFFF" fill-opacity="0.85" />
<ellipse cx="74.40695469070037" cy="81.88567747285512" rx="6.80038573015378" ry="7.143932143337825" fill="#FFFDF0" fill-opacity="0.6" />
<ellipse cx="74.33801119885817" cy="81.09777333157932" rx="2.4173368022147663" ry="3.3067884782196186" fill="#FFFFFF" fill-opacity="0.85" />
<ellipse cx="91.24905602317837" cy="82.46916661368137" rx="8.15030883034636" ry="6.95518766685472" fill="#FFFDF0" fill-opacity="0.6" />
<ellipse cx="91.9524248002983" cy="81.8716501226124" rx="3.9217761977452597" ry="3.829655762190769" fill="#FFFFFF" fill-opacity="0.85" />
<ellipse cx="144.41262912739285" cy="163.22035183193773" rx="8.118741117432442" ry="4.244497468835117" fill="#FFFDF0" fill-opacity="0.6" />
<ellipse cx="144.85706712347553" cy="163.80717237016339" rx="3.8682028397827706" ry="3.6630900715378907" fill="#FFFFFF" fill-opacity="0.85" />
<ellipse cx="136.79599058229493" cy="73.67281465595507" rx="5.652787104568465" ry="8.903503465537195" fill="#FFFDF0" fill-opacity="0.6" />
<ellipse cx="136.94373449052813" cy="74.07355420882024" rx="3.6299665104258203" ry="3.8697654435437343" fill="#FFFFFF" fill-opacity="0.85" />
<ellipse cx="53.83153549599641" cy="138.70433129406135" rx="9.84836784811623" ry="5.856905314537643" fill="#FFFDF0" fill-opacity="0.6" />
<ellipse cx="54.793773658719395" cy="138.03228612867653" rx="3.1763285378155977" ry="3.7820514880746385" fill="#FFFFFF" fill-opacity="0.85" />
<ellipse cx="27.922028578157622" cy="83.62063323151105" rx="8.044836196373009" ry="6.260506777394248" fill="#FFFDF0" fill-opacity="0.6" />
<ellipse cx="28.360372319321137" cy="82.95576615527088" rx="2.2079690200285373" ry="3.6516625113791994" fill="#FFFFFF" fill-opacity="0.85" />
<ellipse cx="51.50664932943307" cy="47.922888133092805" rx="5.9634207676466" ry="6.690508186492476" fill="#FFFDF0" fill-opacity="0.6" />
<ellipse cx="51.6149839568264" cy="47.706488938893635" rx="3.419206886413857" ry="3.3739636289117216" fill="#FFFFFF" fill-opacity="0.85" />
<ellipse cx="120.09067701692982" cy="176.61931341275738" rx="8.773468732438303" ry="5.5068149729033795" fill="#FFFDF0" fill-opacity="0.6" />
<ellipse cx="120.83071346070226" cy="176.54321947515265" rx="4.988013670518951" ry="2.025583151887222" fill="#FFFFFF" fill-opacity="0.85" />
<ellipse cx="76.0058473909243" cy="178.62558251262158" rx="9.342339550694575" ry="6.452562374744918" fill="#FFFDF0" fill-opacity="0.6" />
<ellipse cx="75.62802980874476" cy="179.04195379376006" rx="4.111557620959244" ry="3.5202022117750924" fill="#FFFFFF" fill-opacity="0.85" />
<ellipse cx="98.97862999188534" cy="122.7297014352049" rx="9.596896208221668" ry="5.67184361402575" fill="#FFFDF0" fill-opacity="0.6" />
<ellipse cx="99.61007977840063" cy="122.83295091769492" rx="2.7930176763871466" ry="3.9398968988911216" fill="#FFFFFF" fill-opacity="0.85" />
</g>
<path d="M105.0,105.0 L105.0,5.0" stroke="lightgray" stroke-width="2" />
<path d="M105.0,105.0 L205.0,105.0" stroke="lightgray" stroke-width="2" />
<path d="M105.0,105.0 L105.0,205.0" stroke="lightgray" stroke-width="2" />
<path d="M105.0,105.0 L5.0,105.00000000000001" stroke="lightgray" stroke-width="2" />
<circle cx="105.0" cy="105.0" r="100" fill="none" stroke="lightgray" stroke-width="2" />
</g>
</svg>
</svg>