<?xml version="1.0" encoding="UTF-8"?>
<svg xmlns="http://www.w3.org/2000/svg" xmlns:xlink="http://www.w3.org/1999/xlink"
     width="284.0" height="210" viewBox="0 0 284.0 210">
<defs>
<clipPath id="clip-4535357792-4471968208">
<path d="M105.0,105.0 L105.0,5.0 A100,100,0,0,1,105.0,205.0 Z" fill="none" />
</clipPath>
</defs>
<g>
<path d="M105.0,105.0 L105.0,5.0 A100,100,0,0,1,105.0,205.0 Z" fill="none" stroke="lightgray" stroke-width="2" />
<path d="M105.0,105.0 L105.0,205.0 A100,100,0,0,1,104.99999999999999,5.0 Z" fill="none" stroke="lightgray" stroke-width="2" />
<path d="M105.0,105.0 L105.0,5.0 A100,100,0,0,1,105.0,205.0 Z" fill="#F5C754" stroke="lightgray" stroke-width="2" />
<use xlink:href="#clip-4535357792-4471968208" />
<g clip-path="url(#clip-4535357792-4471968208)">
<circle cx="105.0" cy="105.0" r="92" stroke="#DAA05D" stroke-width="16" fill="none" />
<circle cx="105.0" cy="105.0" r="98" stroke="#C37B32" stroke-width="5" fill="none" />
<circle cx="49.264235214187934" cy="155.7186708276339" r="4.390497648020066" fill="#D2691E" fill-opacity="0.5313474892741239" />
<circle cx="77.5489623439998" cy="65.62220957655623" r="4.647985517982011" fill="#FFFFFF" fill-opacity="0.3906690817659729" />
<circle cx="127.2109144544239" cy="51.540202597922445" r="3.5816311228076954" fill="#D2691E" fill-opacity="0.5632066200338385" />
<circle cx="136.83661501946537" cy="117.56494354579002" r="2.2295058033769326" fill="#FFFFFF" fill-opacity="0.23473214581009563" />
<circle cx="134.29575056600197" cy="179.18092191886043" r="4.425853836273845" fill="#FFFFFF" fill-opacity="0.4534455573872835" />
<circle cx="71.6159374641639" cy="129.3795118000946" r="5.760581600809491" fill="#FFDE75" fill-opacity="0.24374770564004572" />
<circle cx="129.2578214484474" cy="119.42324086915451" r="3.7208527642631752" fill="#8B4513" fill-opacity="0.3732800498266079" />
<circle cx="46.32525804281014" cy="104.84033510263183" r="2.509308265659018" fill="#FFDE75" fill-opacity="0.5848136307089271" />
<circle cx="62.54688775029829" cy="67.90327883078982" r="3.4535748863224462" fill="#FFDE75" fill-opacity="0.20999053587385497" />
<circle cx="37.303259485919526" cy="118.47772883536527" r="5.441079154320356" fill="#FFDE75" fill-opacity="0.5072538590473146" />
<circle cx="111.42305857477514" cy="45.723131162016195" r="2.612280023762479" fill="#FFDE75" fill-opacity="0.4282036505397876" />
<circle cx="50.46054181360201" cy="134.5401765218288" r="2.3121910500553704" fill="#FFDE75" fill-opacity="0.2001740709553179" />
<circle cx="65.68228775727546" cy="77.68880864589215" r="5.862606880019301" fill="#FFDE75" fill-opacity="0.49799702164651244" />
<circle cx="127.51021931410932" cy="102.23336720318386" r="3.4509347013691345" fill="#8B4513" fill-opacity="0.4419182774198239" />
<circle cx="112.81937573380787" cy="181.99410147325682" r="4.244813460892011" fill="#D2691E" fill-opacity="0.36027847106839084" />
<ellipse cx="108.15228952864037" cy="65.24516551501169" rx="5.442476660221269" ry="4.477586408481978" fill="#FFFDF0" fill-opacity="0.6" />
<ellipse cx="108.34533537623545" cy="66.06770196370123" rx="2.3705238137201436" ry="2.5094737538192105" fill="#FFFFFF" fill-opacity="0.85" />
<ellipse cx="128.98205585281718" cy="173.43826101765825" rx="6.016369397581601" ry="4.105555421698496" fill="#FFFDF0" fill-opacity="0.6" />
<ellipse cx="128.47051017505115" cy="174.159704070229" rx="4.689143571423891" ry="2.1229916363477406" fill="#FFFFFF" fill-opacity="0.85" />
<ellipse cx="91.1220391111796" cy="126.82077277646033" rx="9.869154074620104" ry="6.910556055801086" fill="#FFFDF0" fill-opacity="0.6" />
<ellipse cx="91.1663185045811" cy="127.36779541276118" rx="3.3746261634714783" ry="2.572927205696126" fill="#FFFFFF" fill-opacity="0.85" />
</g>
<rect x="230.0" y="41.0" width="54.0" height="54.0" fill="none" stroke="black" stroke-width="2" />
<rect x="230.0" y="115.0" width="54.0" height="54.0" fill="none" stroke="black" stroke-width="2" />
<path d="M225.0,105.0 L289.0,105.0" stroke="black" stroke-width="2" />
</g>
</svg>