<?xml version="1.0" encoding="UTF-8"?>
<svg xmlns="http://www.w3.org/2000/svg" xmlns:xlink="http://www.w3.org/1999/xlink"
     width="284.0" height="210" viewBox="0 0 284.0 210">
<defs>
<clipPath id="clip-4557158432-4503675472">
<path d="M105.0,105.0 L105.0,5.0 A100,100,0,0,1,175.71067811865476,34.28932188134526 Z" fill="none" />
</clipPath>
<clipPath id="clip-4557158432-4567691088">
<path d="M105.0,105.0 L175.71067811865476,34.28932188134526 A100,100,0,0,1,205.0,105.0 Z" fill="none" />
</clipPath>
<clipPath id="clip-4557158432-4568390096">
<path d="M105.0,105.0 L205.0,105.0 A100,100,0,0,1,175.71067811865476,175.71067811865476 Z" fill="none" />
</clipPath>
<clipPath id="clip-4557158432-4568200528">
<path d="M105.0,105.0 L175.71067811865476,175.71067811865476 A100,100,0,0,1,105.0,205.0 Z" fill="none" />
</clipPath>
</defs>
<g>
<path d="M105.0,105.0 L105.0,5.0 A100,100,0,0,1,175.71067811865476,34.28932188134526 Z" fill="none" stroke="lightgray" stroke-width="2" />
<path d="M105.0,105.0 L175.71067811865476,34.28932188134526 A100,100,0,0,1,205.0,105.0 Z" fill="none" stroke="lightgray" stroke-width="2" />
<path d="M105.0,105.0 L205.0,105.0 A100,100,0,0,1,175.71067811865476,175.71067811865476 Z" fill="none" stroke="lightgray" stroke-width="2" />
<path d="M105.0,105.0 L175.71067811865476,175.71067811865476 A100,100,0,0,1,105.0,205.0 Z" fill="none" stroke="lightgray" stroke-width="2" />
<path d="M105.0,105.0 L105.0,205.0 A100,100,0,0,1,34.28932188134526,175.71067811865476 Z" fill="none" stroke="lightgray" stroke-width="2" />
<path d="M105.0,105.0 L34.28932188134526,175.71067811865476 A100,100,0,0,1,5.0,105.00000000000001 Z" fill="none" stroke="lightgray" stroke-width="2" />
<path d="M105.0,105.0 L5.0,105.00000000000001 A100,100,0,0,1,34.28932188134523,34.28932188134526 Z" fill="none" stroke="lightgray" stroke-width="2" />
<path d="M105.0,105.0 L34.28932188134523,34.28932188134526 A100,100,0,0,1,104.99999999999999,5.0 Z" fill="none" stroke="lightgray" stroke-width="2" />
<path d="M105.0,105.0 L105.0,5.0 A100,100,0,0,1,175.71067811865476,34.28932188134526 Z" fill="#FEF7E3" stroke="lightgray" stroke-width="2" />
<use xlink:href="#clip-4557158432-4503675472" />
<g clip-path="url(#clip-4557158432-4503675472)">
<circle cx="105.0" cy="105.0" r="92" stroke="#DAA05D" stroke-width="16" fill="none" />
<circle cx="105.0" cy="105.0" r="98" stroke="#C37B32" stroke-width="5" fill="none" />
<circle cx="38.65607330106522" cy="126.64634190649579" r="4.3249574325812885" fill="#8B4513" fill-opacity="0.563683135358398" />
<circle cx="97.78478329484112" cy="44.24164179892848" r="5.043263320499068" fill="#8B4513" fill-opacity="0.368158493555769" />
<circle cx="95.42761237734668" cy="171.73052916630434" r="2.8036163287824114" fill="#D2691E" fill-opacity="0.47986689024212364" />
<circle cx="90.8768866987993" cy="43.99524800449463" r="2.586308440144714" fill="#D2691E" fill-opacity="0.3332927161530218" />
<circle cx="137.7477183890907" cy="76.52961536996278" r="5.751982508546339" fill="#FFDE75" fill-opacity="0.48633427609296875" />
<circle cx="86.39216912755819" cy="144.29938823884754" r="4.926155907762157" fill="#FFDE75" fill-opacity="0.268141031392176" />
<circle cx="83.71471293949298" cy="30.071959829069556" r="4.148031289875144" fill="#FFFFFF" fill-opacity="0.4138435475918346" />
<circle cx="118.13816424378678" cy="178.29660607746308" r="3.022508445113642" fill="#D2691E" fill-opacity="0.3673687279004547" />
<circle cx="144.11495882418126" cy="77.42104152067594" r="5.974643793118249" fill="#FFDE75" fill-opacity="0.30044368525294185" />
<circle cx="155.52938592394236" cy="92.72701445491332" r="3.727946805347025" fill="#D2691E" fill-opacity="0.4814607860211557" />
<circle cx="86.85181007200606" cy="129.01111672064013" r="3.655726339868805" fill="#D2691E" fill-opacity="0.3948755573012499" />
<circle cx="98.67970077829673" cy="26.398592945168147" r="3.405436920540276" fill="#8B4513" fill-opacity="0.22123555038480047" />
<circle cx="97.11065579195066" cy="172.0338566527492" r="4.6933196812810305" fill="#FFFFFF" fill-opacity="0.4810159102457924" />
<circle cx="172.73085430638065" cy="121.4388423290116" r="5.5271731431815665" fill="#FFDE75" fill-opacity="0.5174077770959219" />
<circle cx="99.21864800414777" cy="183.75406594499248" r="2.660205711588028" fill="#FFFFFF" fill-opacity="0.5331540210409595" />
<circle cx="134.19831678404154" cy="47.22381729797738" r="2.4511890394611293" fill="#FFFFFF" fill-opacity="0.2526667178065856" />
<circle cx="109.84959617114605" cy="129.03899861091477" r="2.8036996817777626" fill="#FFDE75" fill-opacity="0.4829157779923715" />
<circle cx="62.39158131103234" cy="91.76678534842968" r="2.3858089368604" fill="#FFFFFF" fill-opacity="0.37309988959420803" />
<circle cx="74.95189239206496" cy="50.27749411729936" r="5.534313869208292" fill="#D2691E" fill-opacity="0.4619131113703234" />
<circle cx="142.79911270349996" cy="137.39348047792916" r="4.342771536060797" fill="#FFFFFF" fill-opacity="0.2093084807220878" />
<circle cx="150.89615386298624" cy="145.00211957113677" r="4.4694932909725615" fill="#D2691E" fill-opacity="0.5084390676541894" />
<circle cx="60.99219973489517" cy="119.86229183647109" r="3.3727665336712342" fill="#D2691E" fill-opacity="0.35898430721030355" />
<circle cx="95.06912310192415" cy="128.823799544332" r="2.027572811915206" fill="#8B4513" fill-opacity="0.4267697267052188" />
<circle cx="158.4161504621065" cy="152.65808131958988" r="3.0615713024067848" fill="#FFFFFF" fill-opacity="0.3373618314587964" />
<circle cx="181.166119959734" cy="135.08420812453215" r="4.039095553619349" fill="#D2691E" fill-opacity="0.4154359139855347" />
<circle cx="108.31393954733417" cy="172.7246245654295" r="5.021222370768744" fill="#FFDE75" fill-opacity="0.27711489804007716" />
<circle cx="166.58190996126677" cy="108.90671328013474" r="5.986515360215933" fill="#8B4513" fill-opacity="0.5651497190992366" />
<circle cx="132.12385153756534" cy="116.41070477386732" r="3.0861798173418076" fill="#D2691E" fill-opacity="0.5509693503204536" />
<circle cx="83.07340611455157" cy="172.29915826872355" r="3.928427868250405" fill="#FFFFFF" fill-opacity="0.5844278417736422" />
<circle cx="166.30463757692524" cy="89.33912426063239" r="4.01769931042146" fill="#FFDE75" fill-opacity="0.3208755583489964" />
<circle cx="57.130057963319665" cy="145.87027826517735" r="3.3643825407293773" fill="#8B4513" fill-opacity="0.594367205063701" />
<circle cx="25.5566951237641" cy="96.71211069723935" r="3.998159287016587" fill="#8B4513" fill-opacity="0.555236844545965" />
<circle cx="180.40103665949306" cy="93.25014938753476" r="5.851245010838854" fill="#D2691E" fill-opacity="0.21706323615058923" />
<circle cx="159.41063113872582" cy="112.45467074038577" r="4.089710974491972" fill="#D2691E" fill-opacity="0.40245473776224105" />
<circle cx="127.54274085981771" cy="80.0823612049891" r="3.235413162260027" fill="#D2691E" fill-opacity="0.21872047493046806" />
<circle cx="21.477810325635133" cy="102.0152018090432" r="2.6175566168266493" fill="#D2691E" fill-opacity="0.43582821365224045" />
<circle cx="109.85096922625847" cy="113.42930106980016" r="4.330693395057229" fill="#FFFFFF" fill-opacity="0.3076767029444555" />
<circle cx="45.17899848681037" cy="145.8982848401348" r="5.0856285514618245" fill="#8B4513" fill-opacity="0.4406713825690047" />
<circle cx="71.21390805826744" cy="134.6280043014419" r="4.318514528249549" fill="#D2691E" fill-opacity="0.3525643017922447" />
<circle cx="125.52169051726962" cy="162.3122865538075" r="5.630344372522197" fill="#FFDE75" fill-opacity="0.5059310138443234" />
<circle cx="98.51419744087546" cy="167.176935455924" r="4.9423954269063834" fill="#FFDE75" fill-opacity="0.27657377375705877" />
<circle cx="34.014547992597215" cy="130.92456269566227" r="4.773014113786834" fill="#D2691E" fill-opacity="0.32648950260089105" />
<circle cx="36.11922129110572" cy="89.5343868795974" r="5.8873026215852775" fill="#FFDE75" fill-opacity="0.3518028682586156" />
<circle cx="134.06984497954676" cy="139.4776647513737" r="2.1682820903929985" fill="#8B4513" fill-opacity="0.45538697864086825" />
<circle cx="173.6688600124202" cy="133.5057882121938" r="2.384729293584368" fill="#D2691E" fill-opacity="0.2708971727235892" />
<circle cx="81.68309067511372" cy="33.33801834344034" r="3.708876552145068" fill="#8B4513" fill-opacity="0.5991726615862638" />
<circle cx="39.377358088477806" cy="99.31924018819971" r="2.098618591091435" fill="#FFFFFF" fill-opacity="0.5181010481921805" />
<circle cx="104.11596414054898" cy="101.83643638062054" r="4.449164823995574" fill="#FFDE75" fill-opacity="0.3186232791551641" />
<circle cx="66.5077999897192" cy="72.99682912448948" r="3.987191015405232" fill="#8B4513" fill-opacity="0.2312866467850436" />
<circle cx="188.20069567835802" cy="99.3676417050653" r="2.492637332886571" fill="#FFDE75" fill-opacity="0.45349745423253335" />
<circle cx="69.9988152258808" cy="68.53161025157252" r="2.0898388889758546" fill="#D2691E" fill-opacity="0.5037598951349045" />
<circle cx="188.9272203551672" cy="109.45683896652966" r="2.6955211007672166" fill="#8B4513" fill-opacity="0.5148500948635468" />
<circle cx="97.25042835002436" cy="141.6956330201422" r="4.118900122588885" fill="#8B4513" fill-opacity="0.5702484135362891" />
<circle cx="146.4455448949911" cy="97.89757815254379" r="5.433199782152377" fill="#D2691E" fill-opacity="0.5300798228504644" />
<circle cx="49.829016640765424" cy="63.884515529720275" r="2.081577174741517" fill="#FFDE75" fill-opacity="0.2559488211290403" />
<circle cx="131.91251207997536" cy="93.83813858599709" r="5.975555788792873" fill="#D2691E" fill-opacity="0.5112757932048766" />
<circle cx="55.47792552811779" cy="104.1165553685622" r="2.991064223523496" fill="#D2691E" fill-opacity="0.423335220865797" />
<circle cx="157.56507772913216" cy="119.18311683840334" r="5.060974603153044" fill="#FFFFFF" fill-opacity="0.26571347806393314" />
<circle cx="152.86787129424556" cy="52.514772003461964" r="5.733072435104271" fill="#D2691E" fill-opacity="0.5757794304449968" />
<circle cx="55.761330152430034" cy="125.05170314309129" r="2.5858275153259047" fill="#D2691E" fill-opacity="0.5400309429608804" />
<circle cx="135.5568738941888" cy="146.6831015925647" r="11.791368382739183" fill="#FFFFFF" fill-opacity="0.95" stroke="#FAF0E6" stroke-width="1.5" />
<circle cx="87.13828440494254" cy="48.14971228432922" r="5.2655527901060335" fill="#FFFFFF" fill-opacity="0.95" stroke="#FAF0E6" stroke-width="1.5" />
<circle cx="176.730266552471" cy="80.7783872666337" r="10.852097276043914" fill="#FFFFFF" fill-opacity="0.95" stroke="#FAF0E6" stroke-width="1.5" />
<circle cx="80.30556026150097" cy="173.3802156889459" r="7.291653084442984" fill="#FFFFFF" fill-opacity="0.95" stroke="#FAF0E6" stroke-width="1.5" />
<circle cx="61.5346443560329" cy="105.1821311994886" r="6.308619673654742" fill="#FFFFFF" fill-opacity="0.95" stroke="#FAF0E6" stroke-width="1.5" />
<circle cx="142.97876400343506" cy="39.04009166131112" r="9.256383830228874" fill="#FFFFFF" fill-opacity="0.95" stroke="#FAF0E6" stroke-width="1.5" />
<circle cx="76.37272124577507" cy="63.255837859531695" r="6.068278316652346" fill="#FFFFFF" fill-opacity="0.95" stroke="#FAF0E6" stroke-width="1.5" />
<circle cx="75.75163009923311" cy="38.4645503157018" r="11.117660593013056" fill="#FFFFFF" fill-opacity="0.95" stroke="#FAF0E6" stroke-width="1.5" />
<circle cx="80.95389904978626" cy="32.29758557212887" r="6.241535727092015" fill="#FFFFFF" fill-opacity="0.95" stroke="#FAF0E6" stroke-width="1.5" />
<circle cx="95.74137278734722" cy="71.32724438389374" r="7.616612172626001" fill="#FFFFFF" fill-opacity="0.95" stroke="#FAF0E6" stroke-width="1.5" />
<circle cx="70.02604820159064" cy="34.82799356997299" r="11.367736691674805" fill="#FFFFFF" fill-opacity="0.95" stroke="#FAF0E6" stroke-width="1.5" />
<circle cx="56.72467952390575" cy="141.16394473020335" r="10.808160591856144" fill="#FFFFFF" fill-opacity="0.95" stroke="#FAF0E6" stroke-width="1.5" />
<circle cx="88.65075263631884" cy="173.85241724085404" r="11.323641915757936" fill="#FFFFFF" fill-opacity="0.95" stroke="#FAF0E6" stroke-width="1.5" />
<circle cx="90.78917996240058" cy="53.2233549381047" r="11.794008081513539" fill="#FFFFFF" fill-opacity="0.95" stroke="#FAF0E6" stroke-width="1.5" />
<circle cx="98.04662232356671" cy="62.433927048036594" r="7.084578893416771" fill="#FFFFFF" fill-opacity="0.95" stroke="#FAF0E6" stroke-width="1.5" />
<circle cx="99.31955521031752" cy="107.9622012286962" r="6.834742726433502" fill="#FFFFFF" fill-opacity="0.95" stroke="#FAF0E6" stroke-width="1.5" />
<circle cx="49.12146680634897" cy="96.98028468696641" r="6.906359796441658" fill="#FFFFFF" fill-opacity="0.95" stroke="#FAF0E6" stroke-width="1.5" />
<circle cx="101.89666522805837" cy="121.13899589140169" r="9.916306469389847" fill="#FFFFFF" fill-opacity="0.95" stroke="#FAF0E6" stroke-width="1.5" />
<circle cx="107.89903404438684" cy="151.57945665657923" r="5.851818478117695" fill="#FFFFFF" fill-opacity="0.95" stroke="#FAF0E6" stroke-width="1.5" />
<circle cx="139.64412162885924" cy="94.58500900796145" r="5.5916487127016286" fill="#FFFFFF" fill-opacity="0.95" stroke="#FAF0E6" stroke-width="1.5" />
<circle cx="104.62599325081919" cy="167.80457965460312" r="8.360019853251996" fill="#FFFFFF" fill-opacity="0.95" stroke="#FAF0E6" stroke-width="1.5" />
<circle cx="115.45795529342857" cy="114.98233135778814" r="7.498516494855899" fill="#FFFFFF" fill-opacity="0.95" stroke="#FAF0E6" stroke-width="1.5" />
<circle cx="47.613667693477254" cy="100.68800099253367" r="8.655446105704222" fill="#FFFFFF" fill-opacity="0.95" stroke="#FAF0E6" stroke-width="1.5" />
<circle cx="103.7554527639238" cy="81.93570463282262" r="5.5329024565005565" fill="#FFFFFF" fill-opacity="0.95" stroke="#FAF0E6" stroke-width="1.5" />
</g>
<path d="M105.0,105.0 L175.71067811865476,34.28932188134526 A100,100,0,0,1,205.0,105.0 Z" fill="#FEF7E3" stroke="lightgray" stroke-width="2" />
<use xlink:href="#clip-4557158432-4567691088" />
<g clip-path="url(#clip-4557158432-4567691088)">
<circle cx="105.0" cy="105.0" r="92" stroke="#DAA05D" stroke-width="16" fill="none" />
<circle cx="105.0" cy="105.0" r="98" stroke="#C37B32" stroke-width="5" fill="none" />
<circle cx="38.65607330106522" cy="126.64634190649579" r="4.3249574325812885" fill="#8B4513" fill-opacity="0.563683135358398" />
<circle cx="97.78478329484112" cy="44.24164179892848" r="5.043263320499068" fill="#8B4513" fill-opacity="0.368158493555769" />
<circle cx="95.42761237734668" cy="171.73052916630434" r="2.8036163287824114" fill="#D2691E" fill-opacity="0.47986689024212364" />
<circle cx="90.8768866987993" cy="43.99524800449463" r="2.586308440144714" fill="#D2691E" fill-opacity="0.3332927161530218" />
<circle cx="137.7477183890907" cy="76.52961536996278" r="5.751982508546339" fill="#FFDE75" fill-opacity="0.48633427609296875" />
<circle cx="86.39216912755819" cy="144.29938823884754" r="4.926155907762157" fill="#FFDE75" fill-opacity="0.268141031392176" />
<circle cx="83.71471293949298" cy="30.071959829069556" r="4.148031289875144" fill="#FFFFFF" fill-opacity="0.4138435475918346" />
<circle cx="118.13816424378678" cy="178.29660607746308" r="3.022508445113642" fill="#D2691E" fill-opacity="0.3673687279004547" />
<circle cx="144.11495882418126" cy="77.42104152067594" r="5.974643793118249" fill="#FFDE75" fill-opacity="0.30044368525294185" />
<circle cx="155.52938592394236" cy="92.72701445491332" r="3.727946805347025" fill="#D2691E" fill-opacity="0.4814607860211557" />
<circle cx="86.85181007200606" cy="129.01111672064013" r="3.655726339868805" fill="#D2691E" fill-opacity="0.3948755573012499" />
<circle cx="98.67970077829673" cy="26.398592945168147" r="3.405436920540276" fill="#8B4513" fill-opacity="0.22123555038480047" />
<circle cx="97.11065579195066" cy="172.0338566527492" r="4.6933196812810305" fill="#FFFFFF" fill-opacity="0.4810159102457924" />
<circle cx="172.73085430638065" cy="121.4388423290116" r="5.5271731431815665" fill="#FFDE75" fill-opacity="0.5174077770959219" />
<circle cx="99.21864800414777" cy="183.75406594499248" r="2.660205711588028" fill="#FFFFFF" fill-opacity="0.5331540210409595" />
<circle cx="134.19831678404154" cy="47.22381729797738" r="2.4511890394611293" fill="#FFFFFF" fill-opacity="0.2526667178065856" />
<circle cx="109.84959617114605" cy="129.03899861091477" r="2.8036996817777626" fill="#FFDE75" fill-opacity="0.4829157779923715" />
<circle cx="62.39158131103234" cy="91.76678534842968" r="2.3858089368604" fill="#FFFFFF" fill-opacity="0.37309988959420803" />
<circle cx="74.95189239206496" cy="50.27749411729936" r="5.534313869208292" fill="#D2691E" fill-opacity="0.4619131113703234" />
<circle cx="142.79911270349996" cy="137.39348047792916" r="4.342771536060797" fill="#FFFFFF" fill-opacity="0.2093084807220878" />
<circle cx="150.89615386298624" cy="145.00211957113677" r="4.4694932909725615" fill="#D2691E" fill-opacity="0.5084390676541894" />
<circle cx="60.99219973489517" cy="119.86229183647109" r="3.3727665336712342" fill="#D2691E" fill-opacity="0.35898430721030355" />
<circle cx="95.06912310192415" cy="128.823799544332" r="2.027572811915206" fill="#8B4513" fill-opacity="0.4267697267052188" />
<circle cx="158.4161504621065" cy="152.65808131958988" r="3.0615713024067848" fill="#FFFFFF" fill-opacity="0.3373618314587964" />
<circle cx="181.166119959734" cy="135.08420812453215" r="4.039095553619349" fill="#D2691E" fill-opacity="0.4154359139855347" />
<circle cx="108.31393954733417" cy="172.7246245654295" r="5.021222370768744" fill="#FFDE75" fill-opacity="0.27711489804007716" />
<circle cx="166.58190996126677" cy="108.90671328013474" r="5.986515360215933" fill="#8B4513" fill-opacity="0.5651497190992366" />
<circle cx="132.12385153756534" cy="116.41070477386732" r="3.0861798173418076" fill="#D2691E" fill-opacity="0.5509693503204536" />
<circle cx="83.07340611455157" cy="172.29915826872355" r="3.928427868250405" fill="#FFFFFF" fill-opacity="0.5844278417736422" />
<circle cx="166.30463757692524" cy="89.33912426063239" r="4.01769931042146" fill="#FFDE75" fill-opacity="0.3208755583489964" />
<circle cx="57.130057963319665" cy="145.87027826517735" r="3.3643825407293773" fill="#8B4513" fill-opacity="0.594367205063701" />
<circle cx="25.5566951237641" cy="96.71211069723935" r="3.998159287016587" fill="#8B4513" fill-opacity="0.555236844545965" />
<circle cx="180.40103665949306" cy="93.25014938753476" r="5.851245010838854" fill="#D2691E" fill-opacity="0.21706323615058923" />
<circle cx="159.41063113872582" cy="112.45467074038577" r="4.089710974491972" fill="#D2691E" fill-opacity="0.40245473776224105" />
<circle cx="127.54274085981771" cy="80.0823612049891" r="3.235413162260027" fill="#D2691E" fill-opacity="0.21872047493046806" />
<circle cx="21.477810325635133" cy="102.0152018090432" r="2.6175566168266493" fill="#D2691E" fill-opacity="0.43582821365224045" />
<circle cx="109.85096922625847" cy="113.42930106980016" r="4.330693395057229" fill="#FFFFFF" fill-opacity="0.3076767029444555" />
<circle cx="45.17899848681037" cy="145.8982848401348" r="5.0856285514618245" fill="#8B4513" fill-opacity="0.4406713825690047" />
<circle cx="71.21390805826744" cy="134.6280043014419" r="4.318514528249549" fill="#D2691E" fill-opacity="0.3525643017922447" />
<circle cx="125.52169051726962" cy="162.3122865538075" r="5.630344372522197" fill="#FFDE75" fill-opacity="0.5059310138443234" />
<circle cx="98.51419744087546" cy="167.176935455924" r="4.9423954269063834" fill="#FFDE75" fill-opacity="0.27657377375705877" />
<circle cx="34.014547992597215" cy="130.92456269566227" r="4.773014113786834" fill="#D2691E" fill-opacity="0.32648950260089105" />
<circle cx="36.11922129110572" cy="89.5343868795974" r="5.8873026215852775" fill="#FFDE75" fill-opacity="0.3518028682586156" />
<circle cx="134.06984497954676" cy="139.4776647513737" r="2.1682820903929985" fill="#8B4513" fill-opacity="0.45538697864086825" />
<circle cx="173.6688600124202" cy="133.5057882121938" r="2.384729293584368" fill="#D2691E" fill-opacity="0.2708971727235892" />
<circle cx="81.68309067511372" cy="33.33801834344034" r="3.708876552145068" fill="#8B4513" fill-opacity="0.5991726615862638" />
<circle cx="39.377358088477806" cy="99.31924018819971" r="2.098618591091435" fill="#FFFFFF" fill-opacity="0.5181010481921805" />
<circle cx="104.11596414054898" cy="101.83643638062054" r="4.449164823995574" fill="#FFDE75" fill-opacity="0.3186232791551641" />
<circle cx="66.5077999897192" cy="72.99682912448948" r="3.987191015405232" fill="#8B4513" fill-opacity="0.2312866467850436" />
<circle cx="188.20069567835802" cy="99.3676417050653" r="2.492637332886571" fill="#FFDE75" fill-opacity="0.45349745423253335" />
<circle cx="69.9988152258808" cy="68.53161025157252" r="2.0898388889758546" fill="#D2691E" fill-opacity="0.5037598951349045" />
<circle cx="188.9272203551672" cy="109.45683896652966" r="2.6955211007672166" fill="#8B4513" fill-opacity="0.5148500948635468" />
<circle cx="97.25042835002436" cy="141.6956330201422" r="4.118900122588885" fill="#8B4513" fill-opacity="0.5702484135362891" />
<circle cx="146.4455448949911" cy="97.89757815254379" r="5.433199782152377" fill="#D2691E" fill-opacity="0.5300798228504644" />
<circle cx="49.829016640765424" cy="63.884515529720275" r="2.081577174741517" fill="#FFDE75" fill-opacity="0.2559488211290403" />
<circle cx="131.91251207997536" cy="93.83813858599709" r="5.975555788792873" fill="#D2691E" fill-opacity="0.5112757932048766" />
<circle cx="55.47792552811779" cy="104.1165553685622" r="2.991064223523496" fill="#D2691E" fill-opacity="0.423335220865797" />
<circle cx="157.56507772913216" cy="119.18311683840334" r="5.060974603153044" fill="#FFFFFF" fill-opacity="0.26571347806393314" />
<circle cx="152.86787129424556" cy="52.514772003461964" r="5.733072435104271" fill="#D2691E" fill-opacity="0.5757794304449968" />
<circle cx="55.761330152430034" cy="125.05170314309129" r="2.5858275153259047" fill="#D2691E" fill-opacity="0.5400309429608804" />
<circle cx="135.5568738941888" cy="146.6831015925647" r="11.791368382739183" fill="#FFFFFF" fill-opacity="0.95" stroke="#FAF0E6" stroke-width="1.5" />
<circle cx="87.13828440494254" cy="48.14971228432922" r="5.2655527901060335" fill="#FFFFFF" fill-opacity="0.95" stroke="#FAF0E6" stroke-width="1.5" />
<circle cx="176.730266552471" cy="80.7783872666337" r="10.852097276043914" fill="#FFFFFF" fill-opacity="0.95" stroke="#FAF0E6" stroke-width="1.5" />
<circle cx="80.30556026150097" cy="173.3802156889459" r="7.291653084442984" fill="#FFFFFF" fill-opacity="0.95" stroke="#FAF0E6" stroke-width="1.5" />
<circle cx="61.5346443560329" cy="105.1821311994886" r="6.308619673654742" fill="#FFFFFF" fill-opacity="0.95" stroke="#FAF0E6" stroke-width="1.5" />
<circle cx="142.97876400343506" cy="39.04009166131112" r="9.256383830228874" fill="#FFFFFF" fill-opacity="0.95" stroke="#FAF0E6" stroke-width="1.5" />
<circle cx="76.37272124577507" cy="63.255837859531695" r="6.068278316652346" fill="#FFFFFF" fill-opacity="0.95" stroke="#FAF0E6" stroke-width="1.5" />
<circle cx="75.75163009923311" cy="38.4645503157018" r="11.117660593013056" fill="#FFFFFF" fill-opacity="0.95" stroke="#FAF0E6" stroke-width="1.5" />
<circle cx="80.95389904978626" cy="32.29758557212887" r="6.241535727092015" fill="#FFFFFF" fill-opacity="0.95" stroke="#FAF0E6" stroke-width="1.5" />
<circle cx="95.74137278734722" cy="71.32724438389374" r="7.616612172626001" fill="#FFFFFF" fill-opacity="0.95" stroke="#FAF0E6" stroke-width="1.5" />
<circle cx="70.02604820159064" cy="34.82799356997299" r="11.367736691674805" fill="#FFFFFF" fill-opacity="0.95" stroke="#FAF0E6" stroke-width="1.5" />
<circle cx="56.72467952390575" cy="141.16394473020335" r="10.808160591856144" fill="#FFFFFF" fill-opacity="0.95" stroke="#FAF0E6" stroke-width="1.5" />
<circle cx="88.65075263631884" cy="173.85241724085404" r="11.323641915757936" fill="#FFFFFF" fill-opacity="0.95" stroke="#FAF0E6" stroke-width="1.5" />
<circle cx="90.78917996240058" cy="53.2233549381047" r="11.794008081513539" fill="#FFFFFF" fill-opacity="0.95" stroke="#FAF0E6" stroke-width="1.5" />
<circle cx="98.04662232356671" cy="62.433927048036594" r="7.084578893416771" fill="#FFFFFF" fill-opacity="0.95" stroke="#FAF0E6" stroke-width="1.5" />
<circle cx="99.31955521031752" cy="107.9622012286962" r="6.834742726433502" fill="#FFFFFF" fill-opacity="0.95" stroke="#FAF0E6" stroke-width="1.5" />
<circle cx="49.12146680634897" cy="96.98028468696641" r="6.906359796441658" fill="#FFFFFF" fill-opacity="0.95" stroke="#FAF0E6" stroke-width="1.5" />
<circle cx="101.89666522805837" cy="121.13899589140169" r="9.916306469389847" fill="#FFFFFF" fill-opacity="0.95" stroke="#FAF0E6" stroke-width="1.5" />
<circle cx="107.89903404438684" cy="151.57945665657923" r="5.851818478117695" fill="#FFFFFF" fill-opacity="0.95" stroke="#FAF0E6" stroke-width="1.5" />
<circle cx="139.64412162885924" cy="94.58500900796145" r="5.5916487127016286" fill="#FFFFFF" fill-opacity="0.95" stroke="#FAF0E6" stroke-width="1.5" />
<circle cx="104.62599325081919" cy="167.80457965460312" r="8.360019853251996" fill="#FFFFFF" fill-opacity="0.95" stroke="#FAF0E6" stroke-width="1.5" />
<circle cx="115.45795529342857" cy="114.98233135778814" r="7.498516494855899" fill="#FFFFFF" fill-opacity="0.95" stroke="#FAF0E6" stroke-width="1.5" />
<circle cx="47.613667693477254" cy="100.68800099253367" r="8.655446105704222" fill="#FFFFFF" fill-opacity="0.95" stroke="#FAF0E6" stroke-width="1.5" />
<circle cx="103.7554527639238" cy="81.93570463282262" r="5.5329024565005565" fill="#FFFFFF" fill-opacity="0.95" stroke="#FAF0E6" stroke-width="1.5" />
</g>
<path d="M105.0,105.0 L205.0,105.0 A100,100,0,0,1,175.71067811865476,175.71067811865476 Z" fill="#FEF7E3" stroke="lightgray" stroke-width="2" />
<use xlink:href="#clip-4557158432-4568390096" />
<g clip-path="url(#clip-4557158432-4568390096)">
<circle cx="105.0" cy="105.0" r="92" stroke="#DAA05D" stroke-width="16" fill="none" />
<circle cx="105.0" cy="105.0" r="98" stroke="#C37B32" stroke-width="5" fill="none" />
<circle cx="38.65607330106522" cy="126.64634190649579" r="4.3249574325812885" fill="#8B4513" fill-opacity="0.563683135358398" />
<circle cx="97.78478329484112" cy="44.24164179892848" r="5.043263320499068" fill="#8B4513" fill-opacity="0.368158493555769" />
<circle cx="95.42761237734668" cy="171.73052916630434" r="2.8036163287824114" fill="#D2691E" fill-opacity="0.47986689024212364" />
<circle cx="90.8768866987993" cy="43.99524800449463" r="2.586308440144714" fill="#D2691E" fill-opacity="0.3332927161530218" />
<circle cx="137.7477183890907" cy="76.52961536996278" r="5.751982508546339" fill="#FFDE75" fill-opacity="0.48633427609296875" />
<circle cx="86.39216912755819" cy="144.29938823884754" r="4.926155907762157" fill="#FFDE75" fill-opacity="0.268141031392176" />
<circle cx="83.71471293949298" cy="30.071959829069556" r="4.148031289875144" fill="#FFFFFF" fill-opacity="0.4138435475918346" />
<circle cx="118.13816424378678" cy="178.29660607746308" r="3.022508445113642" fill="#D2691E" fill-opacity="0.3673687279004547" />
<circle cx="144.11495882418126" cy="77.42104152067594" r="5.974643793118249" fill="#FFDE75" fill-opacity="0.30044368525294185" />
<circle cx="155.52938592394236" cy="92.72701445491332" r="3.727946805347025" fill="#D2691E" fill-opacity="0.4814607860211557" />
<circle cx="86.85181007200606" cy="129.01111672064013" r="3.655726339868805" fill="#D2691E" fill-opacity="0.3948755573012499" />
<circle cx="98.67970077829673" cy="26.398592945168147" r="3.405436920540276" fill="#8B4513" fill-opacity="0.22123555038480047" />
<circle cx="97.11065579195066" cy="172.0338566527492" r="4.6933196812810305" fill="#FFFFFF" fill-opacity="0.4810159102457924" />
<circle cx="172.73085430638065" cy="121.4388423290116" r="5.5271731431815665" fill="#FFDE75" fill-opacity="0.5174077770959219" />
<circle cx="99.21864800414777" cy="183.75406594499248" r="2.660205711588028" fill="#FFFFFF" fill-opacity="0.5331540210409595" />
<circle cx="134.19831678404154" cy="47.22381729797738" r="2.4511890394611293" fill="#FFFFFF" fill-opacity="0.2526667178065856" />
<circle cx="109.84959617114605" cy="129.03899861091477" r="2.8036996817777626" fill="#FFDE75" fill-opacity="0.4829157779923715" />
<circle cx="62.39158131103234" cy="91.76678534842968" r="2.3858089368604" fill="#FFFFFF" fill-opacity="0.37309988959420803" />
<circle cx="74.95189239206496" cy="50.27749411729936" r="5.534313869208292" fill="#D2691E" fill-opacity="0.4619131113703234" />
<circle cx="142.79911270349996" cy="137.39348047792916" r="4.342771536060797" fill="#FFFFFF" fill-opacity="0.2093084807220878" />
<circle cx="150.89615386298624" cy="145.00211957113677" r="4.4694932909725615" fill="#D2691E" fill-opacity="0.5084390676541894" />
<circle cx="60.99219973489517" cy="119.86229183647109" r="3.3727665336712342" fill="#D2691E" fill-opacity="0.35898430721030355" />
<circle cx="95.06912310192415" cy="128.823799544332" r="2.027572811915206" fill="#8B4513" fill-opacity="0.4267697267052188" />
<circle cx="158.4161504621065" cy="152.65808131958988" r="3.0615713024067848" fill="#FFFFFF" fill-opacity="0.3373618314587964" />
<circle cx="181.166119959734" cy="135.08420812453215" r="4.039095553619349" fill="#D2691E" fill-opacity="0.4154359139855347" />
<circle cx="108.31393954733417" cy="172.7246245654295" r="5.021222370768744" fill="#FFDE75" fill-opacity="0.27711489804007716" />
<circle cx="166.58190996126677" cy="108.90671328013474" r="5.986515360215933" fill="#8B4513" fill-opacity="0.5651497190992366" />
<circle cx="132.12385153756534" cy="116.41070477386732" r="3.0861798173418076" fill="#D2691E" fill-opacity="0.5509693503204536" />
<circle cx="83.07340611455157" cy="172.29915826872355" r="3.928427868250405" fill="#FFFFFF" fill-opacity="0.5844278417736422" />
<circle cx="166.30463757692524" cy="89.33912426063239" r="4.01769931042146" fill="#FFDE75" fill-opacity="0.3208755583489964" />
<circle cx="57.130057963319665" cy="145.87027826517735" r="3.3643825407293773" fill="#8B4513" fill-opacity="0.594367205063701" />
<circle cx="25.5566951237641" cy="96.71211069723935" r="3.998159287016587" fill="#8B4513" fill-opacity="0.555236844545965" />
<circle cx="180.40103665949306" cy="93.25014938753476" r="5.851245010838854" fill="#D2691E" fill-opacity="0.21706323615058923" />
<circle cx="159.41063113872582" cy="112.45467074038577" r="4.089710974491972" fill="#D2691E" fill-opacity="0.40245473776224105" />
<circle cx="127.54274085981771" cy="80.0823612049891" r="3.235413162260027" fill="#D2691E" fill-opacity="0.21872047493046806" />
<circle cx="21.477810325635133" cy="102.0152018090432" r="2.6175566168266493" fill="#D2691E" fill-opacity="0.43582821365224045" />
<circle cx="109.85096922625847" cy="113.42930106980016" r="4.330693395057229" fill="#FFFFFF" fill-opacity="0.3076767029444555" />
<circle cx="45.17899848681037" cy="145.8982848401348" r="5.0856285514618245" fill="#8B4513" fill-opacity="0.4406713825690047" />
<circle cx="71.21390805826744" cy="134.6280043014419" r="4.318514528249549" fill="#D2691E" fill-opacity="0.3525643017922447" />
<circle cx="125.52169051726962" cy="162.3122865538075" r="5.630344372522197" fill="#FFDE75" fill-opacity="0.5059310138443234" />
<circle cx="98.51419744087546" cy="167.176935455924" r="4.9423954269063834" fill="#FFDE75" fill-opacity="0.27657377375705877" />
<circle cx="34.014547992597215" cy="130.92456269566227" r="4.773014113786834" fill="#D2691E" fill-opacity="0.32648950260089105" />
<circle cx="36.11922129110572" cy="89.5343868795974" r="5.8873026215852775" fill="#FFDE75" fill-opacity="0.3518028682586156" />
<circle cx="134.06984497954676" cy="139.4776647513737" r="2.1682820903929985" fill="#8B4513" fill-opacity="0.45538697864086825" />
<circle cx="173.6688600124202" cy="133.5057882121938" r="2.384729293584368" fill="#D2691E" fill-opacity="0.2708971727235892" />
<circle cx="81.68309067511372" cy="33.33801834344034" r="3.708876552145068" fill="#8B4513" fill-opacity="0.5991726615862638" />
<circle cx="39.377358088477806" cy="99.31924018819971" r="2.098618591091435" fill="#FFFFFF" fill-opacity="0.5181010481921805" />
<circle cx="104.11596414054898" cy="101.83643638062054" r="4.449164823995574" fill="#FFDE75" fill-opacity="0.3186232791551641" />
<circle cx="66.5077999897192" cy="72.99682912448948" r="3.987191015405232" fill="#8B4513" fill-opacity="0.2312866467850436" />
<circle cx="188.20069567835802" cy="99.3676417050653" r="2.492637332886571" fill="#FFDE75" fill-opacity="0.45349745423253335" />
<circle cx="69.9988152258808" cy="68.53161025157252" r="2.0898388889758546" fill="#D2691E" fill-opacity="0.5037598951349045" />
<circle cx="188.9272203551672" cy="109.45683896652966" r="2.6955211007672166" fill="#8B4513" fill-opacity="0.5148500948635468" />
<circle cx="97.25042835002436" cy="141.6956330201422" r="4.118900122588885" fill="#8B4513" fill-opacity="0.5702484135362891" />
<circle cx="146.4455448949911" cy="97.89757815254379" r="5.433199782152377" fill="#D2691E" fill-opacity="0.5300798228504644" />
<circle cx="49.829016640765424" cy="63.884515529720275" r="2.081577174741517" fill="#FFDE75" fill-opacity="0.2559488211290403" />
<circle cx="131.91251207997536" cy="93.83813858599709" r="5.975555788792873" fill="#D2691E" fill-opacity="0.5112757932048766" />
<circle cx="55.47792552811779" cy="104.1165553685622" r="2.991064223523496" fill="#D2691E" fill-opacity="0.423335220865797" />
<circle cx="157.56507772913216" cy="119.18311683840334" r="5.060974603153044" fill="#FFFFFF" fill-opacity="0.26571347806393314" />
<circle cx="152.86787129424556" cy="52.514772003461964" r="5.733072435104271" fill="#D2691E" fill-opacity="0.5757794304449968" />
<circle cx="55.761330152430034" cy="125.05170314309129" r="2.5858275153259047" fill="#D2691E" fill-opacity="0.5400309429608804" />
<circle cx="135.5568738941888" cy="146.6831015925647" r="11.791368382739183" fill="#FFFFFF" fill-opacity="0.95" stroke="#FAF0E6" stroke-width="1.5" />
<circle cx="87.13828440494254" cy="48.14971228432922" r="5.2655527901060335" fill="#FFFFFF" fill-opacity="0.95" stroke="#FAF0E6" stroke-width="1.5" />
<circle cx="176.730266552471" cy="80.7783872666337" r="10.852097276043914" fill="#FFFFFF" fill-opacity="0.95" stroke="#FAF0E6" stroke-width="1.5" />
<circle cx="80.30556026150097" cy="173.3802156889459" r="7.291653084442984" fill="#FFFFFF" fill-opacity="0.95" stroke="#FAF0E6" stroke-width="1.5" />
<circle cx="61.5346443560329" cy="105.1821311994886" r="6.308619673654742" fill="#FFFFFF" fill-opacity="0.95" stroke="#FAF0E6" stroke-width="1.5" />
<circle cx="142.97876400343506" cy="39.04009166131112" r="9.256383830228874" fill="#FFFFFF" fill-opacity="0.95" stroke="#FAF0E6" stroke-width="1.5" />
<circle cx="76.37272124577507" cy="63.255837859531695" r="6.068278316652346" fill="#FFFFFF" fill-opacity="0.95" stroke="#FAF0E6" stroke-width="1.5" />
<circle cx="75.75163009923311" cy="38.4645503157018" r="11.117660593013056" fill="#FFFFFF" fill-opacity="0.95" stroke="#FAF0E6" stroke-width="1.5" />
<circle cx="80.95389904978626" cy="32.29758557212887" r="6.241535727092015" fill="#FFFFFF" fill-opacity="0.95" stroke="#FAF0E6" stroke-width="1.5" />
<circle cx="95.74137278734722" cy="71.32724438389374" r="7.616612172626001" fill="#FFFFFF" fill-opacity="0.95" stroke="#FAF0E6" stroke-width="1.5" />
<circle cx="70.02604820159064" cy="34.82799356997299" r="11.367736691674805" fill="#FFFFFF" fill-opacity="0.95" stroke="#FAF0E6" stroke-width="1.5" />
<circle cx="56.72467952390575" cy="141.16394473020335" r="10.808160591856144" fill="#FFFFFF" fill-opacity="0.95" stroke="#FAF0E6" stroke-width="1.5" />
<circle cx="88.65075263631884" cy="173.85241724085404" r="11.323641915757936" fill="#FFFFFF" fill-opacity="0.95" stroke="#FAF0E6" stroke-width="1.5" />
<circle cx="90.78917996240058" cy="53.2233549381047" r="11.794008081513539" fill="#FFFFFF" fill-opacity="0.95" stroke="#FAF0E6" stroke-width="1.5" />
<circle cx="98.04662232356671" cy="62.433927048036594" r="7.084578893416771" fill="#FFFFFF" fill-opacity="0.95" stroke="#FAF0E6" stroke-width="1.5" />
<circle cx="99.31955521031752" cy="107.9622012286962" r="6.834742726433502" fill="#FFFFFF" fill-opacity="0.95" stroke="#FAF0E6" stroke-width="1.5" />
<circle cx="49.12146680634897" cy="96.98028468696641" r="6.906359796441658" fill="#FFFFFF" fill-opacity="0.95" stroke="#FAF0E6" stroke-width="1.5" />
<circle cx="101.89666522805837" cy="121.13899589140169" r="9.916306469389847" fill="#FFFFFF" fill-opacity="0.95" stroke="#FAF0E6" stroke-width="1.5" />
<circle cx="107.89903404438684" cy="151.57945665657923" r="5.851818478117695" fill="#FFFFFF" fill-opacity="0.95" stroke="#FAF0E6" stroke-width="1.5" />
<circle cx="139.64412162885924" cy="94.58500900796145" r="5.5916487127016286" fill="#FFFFFF" fill-opacity="0.95" stroke="#FAF0E6" stroke-width="1.5" />
<circle cx="104.62599325081919" cy="167.80457965460312" r="8.360019853251996" fill="#FFFFFF" fill-opacity="0.95" stroke="#FAF0E6" stroke-width="1.5" />
<circle cx="115.45795529342857" cy="114.98233135778814" r="7.498516494855899" fill="#FFFFFF" fill-opacity="0.95" stroke="#FAF0E6" stroke-width="1.5" />
<circle cx="47.613667693477254" cy="100.68800099253367" r="8.655446105704222" fill="#FFFFFF" fill-opacity="0.95" stroke="#FAF0E6" stroke-width="1.5" />
<circle cx="103.7554527639238" cy="81.93570463282262" r="5.5329024565005565" fill="#FFFFFF" fill-opacity="0.95" stroke="#FAF0E6" stroke-width="1.5" />
</g>
<path d="M105.0,105.0 L175.71067811865476,175.71067811865476 A100,100,0,0,1,105.0,205.0 Z" fill="#FEF7E3" stroke="lightgray" stroke-width="2" />
<use xlink:href="#clip-4557158432-4568200528" />
<g clip-path="url(#clip-4557158432-4568200528)">
<circle cx="105.0" cy="105.0" r="92" stroke="#DAA05D" stroke-width="16" fill="none" />
<circle cx="105.0" cy="105.0" r="98" stroke="#C37B32" stroke-width="5" fill="none" />
<circle cx="38.65607330106522" cy="126.64634190649579" r="4.3249574325812885" fill="#8B4513" fill-opacity="0.563683135358398" />
<circle cx="97.78478329484112" cy="44.24164179892848" r="5.043263320499068" fill="#8B4513" fill-opacity="0.368158493555769" />
<circle cx="95.42761237734668" cy="171.73052916630434" r="2.8036163287824114" fill="#D2691E" fill-opacity="0.47986689024212364" />
<circle cx="90.8768866987993" cy="43.99524800449463" r="2.586308440144714" fill="#D2691E" fill-opacity="0.3332927161530218" />
<circle cx="137.7477183890907" cy="76.52961536996278" r="5.751982508546339" fill="#FFDE75" fill-opacity="0.48633427609296875" />
<circle cx="86.39216912755819" cy="144.29938823884754" r="4.926155907762157" fill="#FFDE75" fill-opacity="0.268141031392176" />
<circle cx="83.71471293949298" cy="30.071959829069556" r="4.148031289875144" fill="#FFFFFF" fill-opacity="0.4138435475918346" />
<circle cx="118.13816424378678" cy="178.29660607746308" r="3.022508445113642" fill="#D2691E" fill-opacity="0.3673687279004547" />
<circle cx="144.11495882418126" cy="77.42104152067594" r="5.974643793118249" fill="#FFDE75" fill-opacity="0.30044368525294185" />
<circle cx="155.52938592394236" cy="92.72701445491332" r="3.727946805347025" fill="#D2691E" fill-opacity="0.4814607860211557" />
<circle cx="86.85181007200606" cy="129.01111672064013" r="3.655726339868805" fill="#D2691E" fill-opacity="0.3948755573012499" />
<circle cx="98.67970077829673" cy="26.398592945168147" r="3.405436920540276" fill="#8B4513" fill-opacity="0.22123555038480047" />
<circle cx="97.11065579195066" cy="172.0338566527492" r="4.6933196812810305" fill="#FFFFFF" fill-opacity="0.4810159102457924" />
<circle cx="172.73085430638065" cy="121.4388423290116" r="5.5271731431815665" fill="#FFDE75" fill-opacity="0.5174077770959219" />
<circle cx="99.21864800414777" cy="183.75406594499248" r="2.660205711588028" fill="#FFFFFF" fill-opacity="0.5331540210409595" />
<circle cx="134.19831678404154" cy="47.22381729797738" r="2.4511890394611293" fill="#FFFFFF" fill-opacity="0.2526667178065856" />
<circle cx="109.84959617114605" cy="129.03899861091477" r="2.8036996817777626" fill="#FFDE75" fill-opacity="0.4829157779923715" />
<circle cx="62.39158131103234" cy="91.76678534842968" r="2.3858089368604" fill="#FFFFFF" fill-opacity="0.37309988959420803" />
<circle cx="74.95189239206496" cy="50.27749411729936" r="5.534313869208292" fill="#D2691E" fill-opacity="0.4619131113703234" />
<circle cx="142.79911270349996" cy="137.39348047792916" r="4.342771536060797" fill="#FFFFFF" fill-opacity="0.2093084807220878" />
<circle cx="150.89615386298624" cy="145.00211957113677" r="4.4694932909725615" fill="#D2691E" fill-opacity="0.5084390676541894" />
<circle cx="60.99219973489517" cy="119.86229183647109" r="3.3727665336712342" fill="#D2691E" fill-opacity="0.35898430721030355" />
<circle cx="95.06912310192415" cy="128.823799544332" r="2.027572811915206" fill="#8B4513" fill-opacity="0.4267697267052188" />
<circle cx="158.4161504621065" cy="152.65808131958988" r="3.0615713024067848" fill="#FFFFFF" fill-opacity="0.3373618314587964" />
<circle cx="181.166119959734" cy="135.08420812453215" r="4.039095553619349" fill="#D2691E" fill-opacity="0.4154359139855347" />
<circle cx="108.31393954733417" cy="172.7246245654295" r="5.021222370768744" fill="#FFDE75" fill-opacity="0.27711489804007716" />
<circle cx="166.58190996126677" cy="108.90671328013474" r="5.986515360215933" fill="#8B4513" fill-opacity="0.5651497190992366" />
<circle cx="132.12385153756534" cy="116.41070477386732" r="3.0861798173418076" fill="#D2691E" fill-opacity="0.5509693503204536" />
<circle cx="83.07340611455157" cy="172.29915826872355" r="3.928427868250405" fill="#FFFFFF" fill-opacity="0.5844278417736422" />
<circle cx="166.30463757692524" cy="89.33912426063239" r="4.01769931042146" fill="#FFDE75" fill-opacity="0.3208755583489964" />
<circle cx="57.130057963319665" cy="145.87027826517735" r="3.3643825407293773" fill="#8B4513" fill-opacity="0.594367205063701" />
<circle cx="25.5566951237641" cy="96.71211069723935" r="3.998159287016587" fill="#8B4513" fill-opacity="0.555236844545965" />
<circle cx="180.40103665949306" cy="93.25014938753476" r="5.851245010838854" fill="#D2691E" fill-opacity="0.21706323615058923" />
<circle cx="159.41063113872582" cy="112.45467074038577" r="4.089710974491972" fill="#D2691E" fill-opacity="0.40245473776224105" />
<circle cx="127.54274085981771" cy="80.0823612049891" r="3.235413162260027" fill="#D2691E" fill-opacity="0.21872047493046806" />
<circle cx="21.477810325635133" cy="102.0152018090432" r="2.6175566168266493" fill="#D2691E" fill-opacity="0.43582821365224045" />
<circle cx="109.85096922625847" cy="113.42930106980016" r="4.330693395057229" fill="#FFFFFF" fill-opacity="0.3076767029444555" />
<circle cx="45.17899848681037" cy="145.8982848401348" r="5.0856285514618245" fill="#8B4513" fill-opacity="0.4406713825690047" />
<circle cx="71.21390805826744" cy="134.6280043014419" r="4.318514528249549" fill="#D2691E" fill-opacity="0.3525643017922447" />
<circle cx="125.52169051726962" cy="162.3122865538075" r="5.630344372522197" fill="#FFDE75" fill-opacity="0.5059310138443234" />
<circle cx="98.51419744087546" cy="167.176935455924" r="4.9423954269063834" fill="#FFDE75" fill-opacity="0.27657377375705877" />
<circle cx="34.014547992597215" cy="130.92456269566227" r="4.773014113786834" fill="#D2691E" fill-opacity="0.32648950260089105" />
<circle cx="36.11922129110572" cy="89.5343868795974" r="5.8873026215852775" fill="#FFDE75" fill-opacity="0.3518028682586156" />
<circle cx="134.06984497954676" cy="139.4776647513737" r="2.1682820903929985" fill="#8B4513" fill-opacity="0.45538697864086825" />
<circle cx="173.6688600124202" cy="133.5057882121938" r="2.384729293584368" fill="#D2691E" fill-opacity="0.2708971727235892" />
<circle cx="81.68309067511372" cy="33.33801834344034" r="3.708876552145068" fill="#8B4513" fill-opacity="0.5991726615862638" />
<circle cx="39.377358088477806" cy="99.31924018819971" r="2.098618591091435" fill="#FFFFFF" fill-opacity="0.5181010481921805" />
<circle cx="104.11596414054898" cy="101.83643638062054" r="4.449164823995574" fill="#FFDE75" fill-opacity="0.3186232791551641" />
<circle cx="66.5077999897192" cy="72.99682912448948" r="3.987191015405232" fill="#8B4513" fill-opacity="0.2312866467850436" />
<circle cx="188.20069567835802" cy="99.3676417050653" r="2.492637332886571" fill="#FFDE75" fill-opacity="0.45349745423253335" />
<circle cx="69.9988152258808" cy="68.53161025157252" r="2.0898388889758546" fill="#D2691E" fill-opacity="0.5037598951349045" />
<circle cx="188.9272203551672" cy="109.45683896652966" r="2.6955211007672166" fill="#8B4513" fill-opacity="0.5148500948635468" />
<circle cx="97.25042835002436" cy="141.6956330201422" r="4.118900122588885" fill="#8B4513" fill-opacity="0.5702484135362891" />
<circle cx="146.4455448949911" cy="97.89757815254379" r="5.433199782152377" fill="#D2691E" fill-opacity="0.5300798228504644" />
<circle cx="49.829016640765424" cy="63.884515529720275" r="2.081577174741517" fill="#FFDE75" fill-opacity="0.2559488211290403" />
<circle cx="131.91251207997536" cy="93.83813858599709" r="5.975555788792873" fill="#D2691E" fill-opacity="0.5112757932048766" />
<circle cx="55.47792552811779" cy="104.1165553685622" r="2.991064223523496" fill="#D2691E" fill-opacity="0.423335220865797" />
<circle cx="157.56507772913216" cy="119.18311683840334" r="5.060974603153044" fill="#FFFFFF" fill-opacity="0.26571347806393314" />
<circle cx="152.86787129424556" cy="52.514772003461964" r="5.733072435104271" fill="#D2691E" fill-opacity="0.5757794304449968" />
<circle cx="55.761330152430034" cy="125.05170314309129" r="2.5858275153259047" fill="#D2691E" fill-opacity="0.5400309429608804" />
<circle cx="135.5568738941888" cy="146.6831015925647" r="11.791368382739183" fill="#FFFFFF" fill-opacity="0.95" stroke="#FAF0E6" stroke-width="1.5" />
<circle cx="87.13828440494254" cy="48.14971228432922" r="5.2655527901060335" fill="#FFFFFF" fill-opacity="0.95" stroke="#FAF0E6" stroke-width="1.5" />
<circle cx="176.730266552471" cy="80.7783872666337" r="10.852097276043914" fill="#FFFFFF" fill-opacity="0.95" stroke="#FAF0E6" stroke-width="1.5" />
<circle cx="80.30556026150097" cy="173.3802156889459" r="7.291653084442984" fill="#FFFFFF" fill-opacity="0.95" stroke="#FAF0E6" stroke-width="1.5" />
<circle cx="61.5346443560329" cy="105.1821311994886" r="6.308619673654742" fill="#FFFFFF" fill-opacity="0.95" stroke="#FAF0E6" stroke-width="1.5" />
<circle cx="142.97876400343506" cy="39.04009166131112" r="9.256383830228874" fill="#FFFFFF" fill-opacity="0.95" stroke="#FAF0E6" stroke-width="1.5" />
<circle cx="76.37272124577507" cy="63.255837859531695" r="6.068278316652346" fill="#FFFFFF" fill-opacity="0.95" stroke="#FAF0E6" stroke-width="1.5" />
<circle cx="75.75163009923311" cy="38.4645503157018" r="11.117660593013056" fill="#FFFFFF" fill-opacity="0.95" stroke="#FAF0E6" stroke-width="1.5" />
<circle cx="80.95389904978626" cy="32.29758557212887" r="6.241535727092015" fill="#FFFFFF" fill-opacity="0.95" stroke="#FAF0E6" stroke-width="1.5" />
<circle cx="95.74137278734722" cy="71.32724438389374" r="7.616612172626001" fill="#FFFFFF" fill-opacity="0.95" stroke="#FAF0E6" stroke-width="1.5" />
<circle cx="70.02604820159064" cy="34.82799356997299" r="11.367736691674805" fill="#FFFFFF" fill-opacity="0.95" stroke="#FAF0E6" stroke-width="1.5" />
<circle cx="56.72467952390575" cy="141.16394473020335" r="10.808160591856144" fill="#FFFFFF" fill-opacity="0.95" stroke="#FAF0E6" stroke-width="1.5" />
<circle cx="88.65075263631884" cy="173.85241724085404" r="11.323641915757936" fill="#FFFFFF" fill-opacity="0.95" stroke="#FAF0E6" stroke-width="1.5" />
<circle cx="90.78917996240058" cy="53.2233549381047" r="11.794008081513539" fill="#FFFFFF" fill-opacity="0.95" stroke="#FAF0E6" stroke-width="1.5" />
<circle cx="98.04662232356671" cy="62.433927048036594" r="7.084578893416771" fill="#FFFFFF" fill-opacity="0.95" stroke="#FAF0E6" stroke-width="1.5" />
<circle cx="99.31955521031752" cy="107.9622012286962" r="6.834742726433502" fill="#FFFFFF" fill-opacity="0.95" stroke="#FAF0E6" stroke-width="1.5" />
<circle cx="49.12146680634897" cy="96.98028468696641" r="6.906359796441658" fill="#FFFFFF" fill-opacity="0.95" stroke="#FAF0E6" stroke-width="1.5" />
<circle cx="101.89666522805837" cy="121.13899589140169" r="9.916306469389847" fill="#FFFFFF" fill-opacity="0.95" stroke="#FAF0E6" stroke-width="1.5" />
<circle cx="107.89903404438684" cy="151.57945665657923" r="5.851818478117695" fill="#FFFFFF" fill-opacity="0.95" stroke="#FAF0E6" stroke-width="1.5" />
<circle cx="139.64412162885924" cy="94.58500900796145" r="5.5916487127016286" fill="#FFFFFF" fill-opacity="0.95" stroke="#FAF0E6" stroke-width="1.5" />
<circle cx="104.62599325081919" cy="167.80457965460312" r="8.360019853251996" fill="#FFFFFF" fill-opacity="0.95" stroke="#FAF0E6" stroke-width="1.5" />
<circle cx="115.45795529342857" cy="114.98233135778814" r="7.498516494855899" fill="#FFFFFF" fill-opacity="0.95" stroke="#FAF0E6" stroke-width="1.5" />
<circle cx="47.613667693477254" cy="100.68800099253367" r="8.655446105704222" fill="#FFFFFF" fill-opacity="0.95" stroke="#FAF0E6" stroke-width="1.5" />
<circle cx="103.7554527639238" cy="81.93570463282262" r="5.5329024565005565" fill="#FFFFFF" fill-opacity="0.95" stroke="#FAF0E6" stroke-width="1.5" />
</g>
<rect x="230.0" y="41.0" width="54.0" height="54.0" fill="none" stroke="black" stroke-width="2" />
<rect x="230.0" y="115.0" width="54.0" height="54.0" fill="none" stroke="black" stroke-width="2" />
<path d="M225.0,105.0 L289.0,105.0" stroke="black" stroke-width="2" />
</g>
</svg>