<?xml version="1.0" encoding="UTF-8"?>
<svg xmlns="http://www.w3.org/2000/svg" xmlns:xlink="http://www.w3.org/1999/xlink"
     width="284.0" height="210" viewBox="0 0 284.0 210">
<defs>
<clipPath id="clip-4472388832-4471968208">
<path d="M105.0,105.0 L105.0,5.0 A100,100,0,0,1,191.60254037844388,55.00000000000001 Z" fill="none" />
</clipPath>
</defs>
<g>
<path d="M105.0,105.0 L105.0,5.0 A100,100,0,0,1,191.60254037844388,55.00000000000001 Z" fill="none" stroke="lightgray" stroke-width="2" />
<path d="M105.0,105.0 L191.60254037844388,55.00000000000001 A100,100,0,0,1,191.60254037844388,155.0 Z" fill="none" stroke="lightgray" stroke-width="2" />
<path d="M105.0,105.0 L191.60254037844388,155.0 A100,100,0,0,1,105.0,205.0 Z" fill="none" stroke="lightgray" stroke-width="2" />
<path d="M105.0,105.0 L105.0,205.0 A100,100,0,0,1,18.397459621556123,155.0 Z" fill="none" stroke="lightgray" stroke-width="2" />
<path d="M105.0,105.0 L18.397459621556123,155.0 A100,100,0,0,1,18.397459621556138,54.999999999999986 Z" fill="none" stroke="lightgray" stroke-width="2" />
<path d="M105.0,105.0 L18.397459621556138,54.999999999999986 A100,100,0,0,1,104.99999999999999,5.0 Z" fill="none" stroke="lightgray" stroke-width="2" />
<path d="M105.0,105.0 L105.0,5.0 A100,100,0,0,1,191.60254037844388,55.00000000000001 Z" fill="#F5C754" stroke="lightgray" stroke-width="2" />
<use xlink:href="#clip-4472388832-4471968208" />
<g clip-path="url(#clip-4472388832-4471968208)">
<circle cx="105.0" cy="105.0" r="92" stroke="#DAA05D" stroke-width="16" fill="none" />
<circle cx="105.0" cy="105.0" r="98" stroke="#C37B32" stroke-width="5" fill="none" />
<circle cx="54.94323998186593" cy="137.6913919267575" r="4.571521339428826" fill="#FFDE75" fill-opacity="0.4577242394091626" />
<circle cx="101.16747806440915" cy="180.58862955606503" r="3.010555575442136" fill="#FFFFFF" fill-opacity="0.277818807286999" />
<circle cx="44.55295542394384" cy="62.812911084766334" r="4.059578819880925" fill="#FFFFFF" fill-opacity="0.3692198292348646" />
<circle cx="80.54217118860788" cy="178.3355317487796" r="2.7003194391880623" fill="#D2691E" fill-opacity="0.3297050248303071" />
<circle cx="154.26798096478782" cy="69.44890562189488" r="2.7048512100586324" fill="#8B4513" fill-opacity="0.4870540237766373" />
<circle cx="146.72476757086315" cy="32.81065951743295" r="3.703280575814828" fill="#FFFFFF" fill-opacity="0.27416068991579856" />
<circle cx="61.16098770627092" cy="43.59515332558171" r="4.861045994612555" fill="#D2691E" fill-opacity="0.4103759578656705" />
<circle cx="111.74734282868566" cy="144.11631623430662" r="5.475531970499118" fill="#D2691E" fill-opacity="0.34681065645554165" />
<circle cx="160.51308470240235" cy="94.65860899903622" r="3.1371416159679018" fill="#D2691E" fill-opacity="0.5001556818207191" />
<circle cx="28.04487946275212" cy="103.05939536280707" r="5.326519029454855" fill="#8B4513" fill-opacity="0.2102487475085246" />
<circle cx="67.90589522388811" cy="172.8535321284699" r="2.0048599482127925" fill="#FFFFFF" fill-opacity="0.5589428410205896" />
<circle cx="42.04356311238641" cy="90.18126460244169" r="5.97136310436014" fill="#FFFFFF" fill-opacity="0.377074237956718" />
<circle cx="128.81757686331323" cy="130.33571431144537" r="3.2510486127531335" fill="#FFFFFF" fill-opacity="0.4754307002408108" />
<circle cx="51.437662184091245" cy="81.59849827621144" r="4.202830046039907" fill="#D2691E" fill-opacity="0.5743389412906028" />
<circle cx="97.06011671771289" cy="140.38128932041545" r="2.641707491686508" fill="#FFDE75" fill-opacity="0.35309147463877844" />
<circle cx="121.4912419745354" cy="96.84816875714208" r="10.936603823959729" fill="#C92A2A" stroke="#800000" stroke-width="1" />
<circle cx="126.29104214373932" cy="101.84782027287045" r="0.6861112837657114" fill="#FFA07A" fill-opacity="0.7" />
<circle cx="125.55101182631141" cy="102.22159033966943" r="0.865049866922774" fill="#FFA07A" fill-opacity="0.7" />
<circle cx="118.34866214294064" cy="95.70307197450583" r="0.6998057417030314" fill="#FFA07A" fill-opacity="0.7" />
<circle cx="81.9538986742181" cy="174.45024645141922" r="9.986973482326013" fill="#C92A2A" stroke="#800000" stroke-width="1" />
<circle cx="76.81172297683001" cy="170.42214401330006" r="0.7240814353277296" fill="#FFA07A" fill-opacity="0.7" />
<circle cx="86.91700029963874" cy="172.0508710592931" r="1.0237049775168177" fill="#FFA07A" fill-opacity="0.7" />
<circle cx="83.22405327166663" cy="179.47140351984177" r="1.4588106088580117" fill="#FFA07A" fill-opacity="0.7" />
<circle cx="77.07003826633556" cy="175.2109685001012" r="1.4712341732044076" fill="#FFA07A" fill-opacity="0.7" />
<circle cx="81.03286964878684" cy="177.06579750373965" r="0.9842606290574482" fill="#FFA07A" fill-opacity="0.7" />
<circle cx="83.41414951329942" cy="173.10025777828972" r="1.4608193530997826" fill="#FFA07A" fill-opacity="0.7" />
<circle cx="85.85733975700312" cy="176.37538047194337" r="1.4758558445565537" fill="#FFA07A" fill-opacity="0.7" />
<circle cx="140.35607563176038" cy="37.23319658986887" r="10.357087699950613" fill="#C92A2A" stroke="#800000" stroke-width="1" />
<circle cx="134.9838707050909" cy="38.685379794674894" r="1.0373250169774417" fill="#FFA07A" fill-opacity="0.7" />
<circle cx="141.59464028816728" cy="42.69218514947836" r="0.896052323938427" fill="#FFA07A" fill-opacity="0.7" />
<circle cx="138.1953542800504" cy="38.87305889093829" r="0.8891671608307982" fill="#FFA07A" fill-opacity="0.7" />
<circle cx="143.77776970432697" cy="39.85278866779252" r="1.3410014963584072" fill="#FFA07A" fill-opacity="0.7" />
<circle cx="142.9470360614375" cy="34.26987664404756" r="1.0844726487344392" fill="#FFA07A" fill-opacity="0.7" />
<circle cx="137.9993265255872" cy="35.53844034983888" r="0.5838355593091128" fill="#FFA07A" fill-opacity="0.7" />
<circle cx="137.2859398939235" cy="32.652066265547546" r="0.7640991216171543" fill="#FFA07A" fill-opacity="0.7" />
<circle cx="154.9134774092183" cy="54.81867549961831" r="9.508103544255249" fill="#C92A2A" stroke="#800000" stroke-width="1" />
<circle cx="149.06769487552455" cy="53.615140255589544" r="1.4825874013699467" fill="#FFA07A" fill-opacity="0.7" />
<circle cx="158.4260970171691" cy="51.08174941722916" r="1.23221403910997" fill="#FFA07A" fill-opacity="0.7" />
<circle cx="153.0655052251382" cy="60.23025064463381" r="0.871175316180495" fill="#FFA07A" fill-opacity="0.7" />
<circle cx="156.6535571408829" cy="52.75840370882129" r="0.7876453763777912" fill="#FFA07A" fill-opacity="0.7" />
<circle cx="156.5836093432382" cy="50.92816218134102" r="1.1350489634649916" fill="#FFA07A" fill-opacity="0.7" />
<circle cx="150.57230768936066" cy="54.983488352452305" r="1.1296297516248706" fill="#FFA07A" fill-opacity="0.7" />
</g>
<rect x="230.0" y="41.0" width="54.0" height="54.0" fill="none" stroke="black" stroke-width="2" />
<rect x="230.0" y="115.0" width="54.0" height="54.0" fill="none" stroke="black" stroke-width="2" />
<path d="M225.0,105.0 L289.0,105.0" stroke="black" stroke-width="2" />
</g>
</svg>