<?xml version="1.0" encoding="UTF-8"?>
<svg xmlns="http://www.w3.org/2000/svg" xmlns:xlink="http://www.w3.org/1999/xlink"
     width="284.0" height="210" viewBox="0 0 284.0 210">
<defs>
<clipPath id="clip-4557158128-4503489744">
<path d="M105.0,105.0 L105.0,5.0 A100,100,0,0,1,205.0,105.0 Z" fill="none" />
</clipPath>
<clipPath id="clip-4557158128-4567683664">
<path d="M105.0,105.0 L205.0,105.0 A100,100,0,0,1,105.0,205.0 Z" fill="none" />
</clipPath>
<clipPath id="clip-4557158128-4568192592">
<path d="M105.0,105.0 L105.0,205.0 A100,100,0,0,1,5.0,105.00000000000001 Z" fill="none" />
</clipPath>
</defs>
<g>
<path d="M105.0,105.0 L105.0,5.0 A100,100,0,0,1,205.0,105.0 Z" fill="none" stroke="lightgray" stroke-width="2" />
<path d="M105.0,105.0 L205.0,105.0 A100,100,0,0,1,105.0,205.0 Z" fill="none" stroke="lightgray" stroke-width="2" />
<path d="M105.0,105.0 L105.0,205.0 A100,100,0,0,1,5.0,105.00000000000001 Z" fill="none" stroke="lightgray" stroke-width="2" />
<path d="M105.0,105.0 L5.0,105.00000000000001 A100,100,0,0,1,104.99999999999999,5.0 Z" fill="none" stroke="lightgray" stroke-width="2" />
<path d="M105.0,105.0 L105.0,5.0 A100,100,0,0,1,205.0,105.0 Z" fill="#F5C754" stroke="lightgray" stroke-width="2" />
<use xlink:href="#clip-4557158128-4503489744" />
<g clip-path="url(#clip-4557158128-4503489744)">
<circle cx="105.0" cy="105.0" r="92" stroke="#DAA05D" stroke-width="16" fill="none" />
<circle cx="105.0" cy="105.0" r="98" stroke="#C37B32" stroke-width="5" fill="none" />
<circle cx="177.40989750356655" cy="126.44485295834185" r="5.221417859424863" fill="#FFFFFF" fill-opacity="0.5543536848695934" />
<circle cx="133.1079508786777" cy="175.32713878125148" r="5.709937066113701" fill="#D2691E" fill-opacity="0.4805496177713651" />
<circle cx="85.55321848100817" cy="112.2974175411699" r="2.0549099784256555" fill="#FFFFFF" fill-opacity="0.284152619090317" />
<circle cx="122.53007822335164" cy="148.66169227870964" r="2.7579775520762886" fill="#FFDE75" fill-opacity="0.4962401517725366" />
<circle cx="79.74666038243274" cy="127.12105760692404" r="5.994708111587778" fill="#FFDE75" fill-opacity="0.4992764180188361" />
<circle cx="113.37931532202818" cy="27.168336910559717" r="4.8859567989347585" fill="#FFFFFF" fill-opacity="0.2867227411123018" />
<circle cx="163.75425728592515" cy="86.54597072156403" r="3.4535023023582423" fill="#FFFFFF" fill-opacity="0.24487959330651154" />
<circle cx="116.44740470353558" cy="52.0189790790107" r="5.470873466665163" fill="#FFFFFF" fill-opacity="0.36689913688762177" />
<circle cx="156.64091830934865" cy="155.08818703633503" r="4.758578925724583" fill="#8B4513" fill-opacity="0.5506775850751588" />
<circle cx="123.43713419879447" cy="30.118887452149806" r="5.981818576483233" fill="#FFFFFF" fill-opacity="0.46771905110346024" />
<circle cx="131.35292374916867" cy="158.90841140599036" r="5.720754046259218" fill="#FFDE75" fill-opacity="0.37175640609381444" />
<circle cx="157.3319511126291" cy="106.39509273970495" r="5.190076988654902" fill="#8B4513" fill-opacity="0.43032848509285937" />
<circle cx="111.42073189688253" cy="31.098237358737478" r="3.0645351246831156" fill="#FFFFFF" fill-opacity="0.4492819273239654" />
<circle cx="84.4311753264706" cy="155.94636308104452" r="5.006513129739963" fill="#D2691E" fill-opacity="0.22015951559017424" />
<circle cx="135.621090373798" cy="76.85045302430562" r="3.7902469813925026" fill="#8B4513" fill-opacity="0.5596840322971914" />
<circle cx="35.32053994260268" cy="99.21815543065352" r="2.6487233649739177" fill="#FFDE75" fill-opacity="0.5174913591017931" />
<circle cx="171.06173653372386" cy="141.95476847136598" r="3.407052574983822" fill="#D2691E" fill-opacity="0.28086355906320926" />
<circle cx="137.6056780904031" cy="142.95718174042517" r="3.425929171623258" fill="#D2691E" fill-opacity="0.4094273747546634" />
<circle cx="107.9524879988355" cy="27.048004082212017" r="3.5434099921503326" fill="#FFDE75" fill-opacity="0.5604818382305985" />
<circle cx="78.5277816741007" cy="90.64846513987095" r="4.290543000590221" fill="#8B4513" fill-opacity="0.27859429867212315" />
<circle cx="70.39374025331239" cy="168.65970988759082" r="2.4035743253415727" fill="#FFFFFF" fill-opacity="0.21510049246326954" />
<circle cx="59.423562298611046" cy="150.31715912743118" r="4.620600734634522" fill="#D2691E" fill-opacity="0.37476410093754997" />
<circle cx="58.28521386104002" cy="71.49351046203714" r="5.546454679828824" fill="#FFDE75" fill-opacity="0.4334698658160862" />
<circle cx="163.48697633079277" cy="92.27375173452471" r="2.974404153360764" fill="#FFDE75" fill-opacity="0.5342998244233654" />
<circle cx="141.9056118656083" cy="159.16516017441822" r="2.215666649170447" fill="#FFFFFF" fill-opacity="0.5974824272704118" />
<circle cx="46.391449590102035" cy="65.24434426473033" r="3.0036990237966905" fill="#8B4513" fill-opacity="0.3066673264397807" />
<circle cx="113.64224120784255" cy="29.29440212100829" r="4.255034121791439" fill="#D2691E" fill-opacity="0.23179404427932307" />
<circle cx="173.5566415935323" cy="98.82743151074189" r="5.443026710557418" fill="#FFDE75" fill-opacity="0.2564536210393886" />
<circle cx="133.7313122435399" cy="100.34872434774339" r="5.462023682841995" fill="#FFDE75" fill-opacity="0.38004275838087487" />
<circle cx="121.51411143631252" cy="23.30496149147679" r="2.164286314624527" fill="#FFFFFF" fill-opacity="0.48322665582687624" />
<circle cx="29.653535131395373" cy="95.95996222015248" r="3.1158748128752993" fill="#D2691E" fill-opacity="0.5301344285287758" />
<circle cx="71.5531398390614" cy="84.3939999728794" r="4.636994867127746" fill="#FFFFFF" fill-opacity="0.47208524484392256" />
<circle cx="179.1280724615052" cy="113.39043611176798" r="5.270294718246154" fill="#FFDE75" fill-opacity="0.3874298303201825" />
<circle cx="83.9649877397882" cy="169.96490599066738" r="2.2939478945908647" fill="#FFFFFF" fill-opacity="0.3099544985030284" />
<circle cx="90.357681400894" cy="121.09786061363411" r="3.8898395979499742" fill="#D2691E" fill-opacity="0.43393286131513004" />
<circle cx="95.42307238980575" cy="94.74086089803049" r="5.723270415524795" fill="#D2691E" fill-opacity="0.3852997806651638" />
<circle cx="162.32970801724576" cy="82.05063321645368" r="5.787444363661044" fill="#D2691E" fill-opacity="0.2801830809727737" />
<circle cx="94.4635127752829" cy="26.626399208924383" r="5.236435220186481" fill="#FFDE75" fill-opacity="0.389798025650796" />
<circle cx="69.02935235935146" cy="137.07663351969956" r="5.219269393906938" fill="#8B4513" fill-opacity="0.595071360838979" />
<circle cx="74.71175302743791" cy="157.9304510959284" r="2.4361572357265726" fill="#D2691E" fill-opacity="0.2789577654679674" />
<circle cx="186.31703255412646" cy="81.61968119271351" r="5.366711475502482" fill="#FFFFFF" fill-opacity="0.5272270239022024" />
<circle cx="92.20569598720671" cy="187.21305661157027" r="3.801443639615961" fill="#8B4513" fill-opacity="0.22182643895694928" />
<circle cx="69.8935000308517" cy="168.93478330936776" r="4.974559680034483" fill="#8B4513" fill-opacity="0.44499007121242995" />
<circle cx="122.949770188917" cy="57.81883542129234" r="5.873762415184799" fill="#FFFFFF" fill-opacity="0.42121198704637663" />
<circle cx="84.90231461068619" cy="105.81276169081116" r="5.628520301509192" fill="#8B4513" fill-opacity="0.4526056299245734" />
<ellipse cx="124.02654360059029" cy="69.83728768874164" rx="5.578128568531536" ry="7.85702542121412" fill="#FFFDF0" fill-opacity="0.6" />
<ellipse cx="123.81334653501888" cy="69.0392328591961" rx="4.448458280186696" ry="2.7633849848620553" fill="#FFFFFF" fill-opacity="0.85" />
<ellipse cx="152.52715520198737" cy="138.55892729809096" rx="9.77686663164206" ry="4.822914095630419" fill="#FFFDF0" fill-opacity="0.6" />
<ellipse cx="152.79814400848105" cy="138.18241463688065" rx="3.3126277119010665" ry="2.3580833408976045" fill="#FFFFFF" fill-opacity="0.85" />
<ellipse cx="149.8764038465866" cy="145.70320902032276" rx="5.986267835483531" ry="6.950916346377243" fill="#FFFDF0" fill-opacity="0.6" />
<ellipse cx="150.36978513587655" cy="146.36741057877632" rx="2.9307018717345104" ry="3.271982203802743" fill="#FFFFFF" fill-opacity="0.85" />
<ellipse cx="72.4865279744124" cy="75.16089570721375" rx="6.2342977157788635" ry="8.64291317640611" fill="#FFFDF0" fill-opacity="0.6" />
<ellipse cx="72.1458220549727" cy="74.44545763653817" rx="3.548866856858532" ry="3.1793260220665553" fill="#FFFFFF" fill-opacity="0.85" />
<ellipse cx="68.20173976473032" cy="35.1964458689834" rx="6.3135443904548545" ry="6.828644705705185" fill="#FFFDF0" fill-opacity="0.6" />
<ellipse cx="67.42424068403517" cy="34.62236964019812" rx="3.715383506895081" ry="3.7960711902167805" fill="#FFFFFF" fill-opacity="0.85" />
<ellipse cx="184.05236039841077" cy="125.27630476309812" rx="9.088994225186894" ry="8.6280592080287" fill="#FFFDF0" fill-opacity="0.6" />
<ellipse cx="184.38110151689384" cy="125.66573560665339" rx="2.7806244828503073" ry="3.622356276967852" fill="#FFFFFF" fill-opacity="0.85" />
<ellipse cx="139.1750413451653" cy="124.13289929797577" rx="9.369593210031638" ry="5.773368560982209" fill="#FFFDF0" fill-opacity="0.6" />
<ellipse cx="139.74223453894825" cy="123.46507265649727" rx="2.5743618821210936" ry="2.3711496763596394" fill="#FFFFFF" fill-opacity="0.85" />
<ellipse cx="116.87372552370192" cy="166.71288223476773" rx="5.1830055963181785" ry="5.1662567539378035" fill="#FFFDF0" fill-opacity="0.6" />
<ellipse cx="116.63205518989076" cy="166.80464565656024" rx="2.8901396295794415" ry="2.7621246563329995" fill="#FFFFFF" fill-opacity="0.85" />
<ellipse cx="98.45812370652877" cy="47.40670636856432" rx="7.8430690595179575" ry="5.418827205599664" fill="#FFFDF0" fill-opacity="0.6" />
<ellipse cx="98.05563976315985" cy="46.49954897768517" rx="4.507875255719621" ry="3.691236417559261" fill="#FFFFFF" fill-opacity="0.85" />
</g>
<path d="M105.0,105.0 L205.0,105.0 A100,100,0,0,1,105.0,205.0 Z" fill="#F5C754" stroke="lightgray" stroke-width="2" />
<use xlink:href="#clip-4557158128-4567683664" />
<g clip-path="url(#clip-4557158128-4567683664)">
<circle cx="105.0" cy="105.0" r="92" stroke="#DAA05D" stroke-width="16" fill="none" />
<circle cx="105.0" cy="105.0" r="98" stroke="#C37B32" stroke-width="5" fill="none" />
<circle cx="177.40989750356655" cy="126.44485295834185" r="5.221417859424863" fill="#FFFFFF" fill-opacity="0.5543536848695934" />
<circle cx="133.1079508786777" cy="175.32713878125148" r="5.709937066113701" fill="#D2691E" fill-opacity="0.4805496177713651" />
<circle cx="85.55321848100817" cy="112.2974175411699" r="2.0549099784256555" fill="#FFFFFF" fill-opacity="0.284152619090317" />
<circle cx="122.53007822335164" cy="148.66169227870964" r="2.7579775520762886" fill="#FFDE75" fill-opacity="0.4962401517725366" />
<circle cx="79.74666038243274" cy="127.12105760692404" r="5.994708111587778" fill="#FFDE75" fill-opacity="0.4992764180188361" />
<circle cx="113.37931532202818" cy="27.168336910559717" r="4.8859567989347585" fill="#FFFFFF" fill-opacity="0.2867227411123018" />
<circle cx="163.75425728592515" cy="86.54597072156403" r="3.4535023023582423" fill="#FFFFFF" fill-opacity="0.24487959330651154" />
<circle cx="116.44740470353558" cy="52.0189790790107" r="5.470873466665163" fill="#FFFFFF" fill-opacity="0.36689913688762177" />
<circle cx="156.64091830934865" cy="155.08818703633503" r="4.758578925724583" fill="#8B4513" fill-opacity="0.5506775850751588" />
<circle cx="123.43713419879447" cy="30.118887452149806" r="5.981818576483233" fill="#FFFFFF" fill-opacity="0.46771905110346024" />
<circle cx="131.35292374916867" cy="158.90841140599036" r="5.720754046259218" fill="#FFDE75" fill-opacity="0.37175640609381444" />
<circle cx="157.3319511126291" cy="106.39509273970495" r="5.190076988654902" fill="#8B4513" fill-opacity="0.43032848509285937" />
<circle cx="111.42073189688253" cy="31.098237358737478" r="3.0645351246831156" fill="#FFFFFF" fill-opacity="0.4492819273239654" />
<circle cx="84.4311753264706" cy="155.94636308104452" r="5.006513129739963" fill="#D2691E" fill-opacity="0.22015951559017424" />
<circle cx="135.621090373798" cy="76.85045302430562" r="3.7902469813925026" fill="#8B4513" fill-opacity="0.5596840322971914" />
<circle cx="35.32053994260268" cy="99.21815543065352" r="2.6487233649739177" fill="#FFDE75" fill-opacity="0.5174913591017931" />
<circle cx="171.06173653372386" cy="141.95476847136598" r="3.407052574983822" fill="#D2691E" fill-opacity="0.28086355906320926" />
<circle cx="137.6056780904031" cy="142.95718174042517" r="3.425929171623258" fill="#D2691E" fill-opacity="0.4094273747546634" />
<circle cx="107.9524879988355" cy="27.048004082212017" r="3.5434099921503326" fill="#FFDE75" fill-opacity="0.5604818382305985" />
<circle cx="78.5277816741007" cy="90.64846513987095" r="4.290543000590221" fill="#8B4513" fill-opacity="0.27859429867212315" />
<circle cx="70.39374025331239" cy="168.65970988759082" r="2.4035743253415727" fill="#FFFFFF" fill-opacity="0.21510049246326954" />
<circle cx="59.423562298611046" cy="150.31715912743118" r="4.620600734634522" fill="#D2691E" fill-opacity="0.37476410093754997" />
<circle cx="58.28521386104002" cy="71.49351046203714" r="5.546454679828824" fill="#FFDE75" fill-opacity="0.4334698658160862" />
<circle cx="163.48697633079277" cy="92.27375173452471" r="2.974404153360764" fill="#FFDE75" fill-opacity="0.5342998244233654" />
<circle cx="141.9056118656083" cy="159.16516017441822" r="2.215666649170447" fill="#FFFFFF" fill-opacity="0.5974824272704118" />
<circle cx="46.391449590102035" cy="65.24434426473033" r="3.0036990237966905" fill="#8B4513" fill-opacity="0.3066673264397807" />
<circle cx="113.64224120784255" cy="29.29440212100829" r="4.255034121791439" fill="#D2691E" fill-opacity="0.23179404427932307" />
<circle cx="173.5566415935323" cy="98.82743151074189" r="5.443026710557418" fill="#FFDE75" fill-opacity="0.2564536210393886" />
<circle cx="133.7313122435399" cy="100.34872434774339" r="5.462023682841995" fill="#FFDE75" fill-opacity="0.38004275838087487" />
<circle cx="121.51411143631252" cy="23.30496149147679" r="2.164286314624527" fill="#FFFFFF" fill-opacity="0.48322665582687624" />
<circle cx="29.653535131395373" cy="95.95996222015248" r="3.1158748128752993" fill="#D2691E" fill-opacity="0.5301344285287758" />
<circle cx="71.5531398390614" cy="84.3939999728794" r="4.636994867127746" fill="#FFFFFF" fill-opacity="0.47208524484392256" />
<circle cx="179.1280724615052" cy="113.39043611176798" r="5.270294718246154" fill="#FFDE75" fill-opacity="0.3874298303201825" />
<circle cx="83.9649877397882" cy="169.96490599066738" r="2.2939478945908647" fill="#FFFFFF" fill-opacity="0.3099544985030284" />
<circle cx="90.357681400894" cy="121.09786061363411" r="3.8898395979499742" fill="#D2691E" fill-opacity="0.43393286131513004" />
<circle cx="95.42307238980575" cy="94.74086089803049" r="5.723270415524795" fill="#D2691E" fill-opacity="0.3852997806651638" />
<circle cx="162.32970801724576" cy="82.05063321645368" r="5.787444363661044" fill="#D2691E" fill-opacity="0.2801830809727737" />
<circle cx="94.4635127752829" cy="26.626399208924383" r="5.236435220186481" fill="#FFDE75" fill-opacity="0.389798025650796" />
<circle cx="69.02935235935146" cy="137.07663351969956" r="5.219269393906938" fill="#8B4513" fill-opacity="0.595071360838979" />
<circle cx="74.71175302743791" cy="157.9304510959284" r="2.4361572357265726" fill="#D2691E" fill-opacity="0.2789577654679674" />
<circle cx="186.31703255412646" cy="81.61968119271351" r="5.366711475502482" fill="#FFFFFF" fill-opacity="0.5272270239022024" />
<circle cx="92.20569598720671" cy="187.21305661157027" r="3.801443639615961" fill="#8B4513" fill-opacity="0.22182643895694928" />
<circle cx="69.8935000308517" cy="168.93478330936776" r="4.974559680034483" fill="#8B4513" fill-opacity="0.44499007121242995" />
<circle cx="122.949770188917" cy="57.81883542129234" r="5.873762415184799" fill="#FFFFFF" fill-opacity="0.42121198704637663" />
<circle cx="84.90231461068619" cy="105.81276169081116" r="5.628520301509192" fill="#8B4513" fill-opacity="0.4526056299245734" />
<ellipse cx="124.02654360059029" cy="69.83728768874164" rx="5.578128568531536" ry="7.85702542121412" fill="#FFFDF0" fill-opacity="0.6" />
<ellipse cx="123.81334653501888" cy="69.0392328591961" rx="4.448458280186696" ry="2.7633849848620553" fill="#FFFFFF" fill-opacity="0.85" />
<ellipse cx="152.52715520198737" cy="138.55892729809096" rx="9.77686663164206" ry="4.822914095630419" fill="#FFFDF0" fill-opacity="0.6" />
<ellipse cx="152.79814400848105" cy="138.18241463688065" rx="3.3126277119010665" ry="2.3580833408976045" fill="#FFFFFF" fill-opacity="0.85" />
<ellipse cx="149.8764038465866" cy="145.70320902032276" rx="5.986267835483531" ry="6.950916346377243" fill="#FFFDF0" fill-opacity="0.6" />
<ellipse cx="150.36978513587655" cy="146.36741057877632" rx="2.9307018717345104" ry="3.271982203802743" fill="#FFFFFF" fill-opacity="0.85" />
<ellipse cx="72.4865279744124" cy="75.16089570721375" rx="6.2342977157788635" ry="8.64291317640611" fill="#FFFDF0" fill-opacity="0.6" />
<ellipse cx="72.1458220549727" cy="74.44545763653817" rx="3.548866856858532" ry="3.1793260220665553" fill="#FFFFFF" fill-opacity="0.85" />
<ellipse cx="68.20173976473032" cy="35.1964458689834" rx="6.3135443904548545" ry="6.828644705705185" fill="#FFFDF0" fill-opacity="0.6" />
<ellipse cx="67.42424068403517" cy="34.62236964019812" rx="3.715383506895081" ry="3.7960711902167805" fill="#FFFFFF" fill-opacity="0.85" />
<ellipse cx="184.05236039841077" cy="125.27630476309812" rx="9.088994225186894" ry="8.6280592080287" fill="#FFFDF0" fill-opacity="0.6" />
<ellipse cx="184.38110151689384" cy="125.66573560665339" rx="2.7806244828503073" ry="3.622356276967852" fill="#FFFFFF" fill-opacity="0.85" />
<ellipse cx="139.1750413451653" cy="124.13289929797577" rx="9.369593210031638" ry="5.773368560982209" fill="#FFFDF0" fill-opacity="0.6" />
<ellipse cx="139.74223453894825" cy="123.46507265649727" rx="2.5743618821210936" ry="2.3711496763596394" fill="#FFFFFF" fill-opacity="0.85" />
<ellipse cx="116.87372552370192" cy="166.71288223476773" rx="5.1830055963181785" ry="5.1662567539378035" fill="#FFFDF0" fill-opacity="0.6" />
<ellipse cx="116.63205518989076" cy="166.80464565656024" rx="2.8901396295794415" ry="2.7621246563329995" fill="#FFFFFF" fill-opacity="0.85" />
<ellipse cx="98.45812370652877" cy="47.40670636856432" rx="7.8430690595179575" ry="5.418827205599664" fill="#FFFDF0" fill-opacity="0.6" />
<ellipse cx="98.05563976315985" cy="46.49954897768517" rx="4.507875255719621" ry="3.691236417559261" fill="#FFFFFF" fill-opacity="0.85" />
</g>
<path d="M105.0,105.0 L105.0,205.0 A100,100,0,0,1,5.0,105.00000000000001 Z" fill="#F5C754" stroke="lightgray" stroke-width="2" />
<use xlink:href="#clip-4557158128-4568192592" />
<g clip-path="url(#clip-4557158128-4568192592)">
<circle cx="105.0" cy="105.0" r="92" stroke="#DAA05D" stroke-width="16" fill="none" />
<circle cx="105.0" cy="105.0" r="98" stroke="#C37B32" stroke-width="5" fill="none" />
<circle cx="177.40989750356655" cy="126.44485295834185" r="5.221417859424863" fill="#FFFFFF" fill-opacity="0.5543536848695934" />
<circle cx="133.1079508786777" cy="175.32713878125148" r="5.709937066113701" fill="#D2691E" fill-opacity="0.4805496177713651" />
<circle cx="85.55321848100817" cy="112.2974175411699" r="2.0549099784256555" fill="#FFFFFF" fill-opacity="0.284152619090317" />
<circle cx="122.53007822335164" cy="148.66169227870964" r="2.7579775520762886" fill="#FFDE75" fill-opacity="0.4962401517725366" />
<circle cx="79.74666038243274" cy="127.12105760692404" r="5.994708111587778" fill="#FFDE75" fill-opacity="0.4992764180188361" />
<circle cx="113.37931532202818" cy="27.168336910559717" r="4.8859567989347585" fill="#FFFFFF" fill-opacity="0.2867227411123018" />
<circle cx="163.75425728592515" cy="86.54597072156403" r="3.4535023023582423" fill="#FFFFFF" fill-opacity="0.24487959330651154" />
<circle cx="116.44740470353558" cy="52.0189790790107" r="5.470873466665163" fill="#FFFFFF" fill-opacity="0.36689913688762177" />
<circle cx="156.64091830934865" cy="155.08818703633503" r="4.758578925724583" fill="#8B4513" fill-opacity="0.5506775850751588" />
<circle cx="123.43713419879447" cy="30.118887452149806" r="5.981818576483233" fill="#FFFFFF" fill-opacity="0.46771905110346024" />
<circle cx="131.35292374916867" cy="158.90841140599036" r="5.720754046259218" fill="#FFDE75" fill-opacity="0.37175640609381444" />
<circle cx="157.3319511126291" cy="106.39509273970495" r="5.190076988654902" fill="#8B4513" fill-opacity="0.43032848509285937" />
<circle cx="111.42073189688253" cy="31.098237358737478" r="3.0645351246831156" fill="#FFFFFF" fill-opacity="0.4492819273239654" />
<circle cx="84.4311753264706" cy="155.94636308104452" r="5.006513129739963" fill="#D2691E" fill-opacity="0.22015951559017424" />
<circle cx="135.621090373798" cy="76.85045302430562" r="3.7902469813925026" fill="#8B4513" fill-opacity="0.5596840322971914" />
<circle cx="35.32053994260268" cy="99.21815543065352" r="2.6487233649739177" fill="#FFDE75" fill-opacity="0.5174913591017931" />
<circle cx="171.06173653372386" cy="141.95476847136598" r="3.407052574983822" fill="#D2691E" fill-opacity="0.28086355906320926" />
<circle cx="137.6056780904031" cy="142.95718174042517" r="3.425929171623258" fill="#D2691E" fill-opacity="0.4094273747546634" />
<circle cx="107.9524879988355" cy="27.048004082212017" r="3.5434099921503326" fill="#FFDE75" fill-opacity="0.5604818382305985" />
<circle cx="78.5277816741007" cy="90.64846513987095" r="4.290543000590221" fill="#8B4513" fill-opacity="0.27859429867212315" />
<circle cx="70.39374025331239" cy="168.65970988759082" r="2.4035743253415727" fill="#FFFFFF" fill-opacity="0.21510049246326954" />
<circle cx="59.423562298611046" cy="150.31715912743118" r="4.620600734634522" fill="#D2691E" fill-opacity="0.37476410093754997" />
<circle cx="58.28521386104002" cy="71.49351046203714" r="5.546454679828824" fill="#FFDE75" fill-opacity="0.4334698658160862" />
<circle cx="163.48697633079277" cy="92.27375173452471" r="2.974404153360764" fill="#FFDE75" fill-opacity="0.5342998244233654" />
<circle cx="141.9056118656083" cy="159.16516017441822" r="2.215666649170447" fill="#FFFFFF" fill-opacity="0.5974824272704118" />
<circle cx="46.391449590102035" cy="65.24434426473033" r="3.0036990237966905" fill="#8B4513" fill-opacity="0.3066673264397807" />
<circle cx="113.64224120784255" cy="29.29440212100829" r="4.255034121791439" fill="#D2691E" fill-opacity="0.23179404427932307" />
<circle cx="173.5566415935323" cy="98.82743151074189" r="5.443026710557418" fill="#FFDE75" fill-opacity="0.2564536210393886" />
<circle cx="133.7313122435399" cy="100.34872434774339" r="5.462023682841995" fill="#FFDE75" fill-opacity="0.38004275838087487" />
<circle cx="121.51411143631252" cy="23.30496149147679" r="2.164286314624527" fill="#FFFFFF" fill-opacity="0.48322665582687624" />
<circle cx="29.653535131395373" cy="95.95996222015248" r="3.1158748128752993" fill="#D2691E" fill-opacity="0.5301344285287758" />
<circle cx="71.5531398390614" cy="84.3939999728794" r="4.636994867127746" fill="#FFFFFF" fill-opacity="0.47208524484392256" />
<circle cx="179.1280724615052" cy="113.39043611176798" r="5.270294718246154" fill="#FFDE75" fill-opacity="0.3874298303201825" />
<circle cx="83.9649877397882" cy="169.96490599066738" r="2.2939478945908647" fill="#FFFFFF" fill-opacity="0.3099544985030284" />
<circle cx="90.357681400894" cy="121.09786061363411" r="3.8898395979499742" fill="#D2691E" fill-opacity="0.43393286131513004" />
<circle cx="95.42307238980575" cy="94.74086089803049" r="5.723270415524795" fill="#D2691E" fill-opacity="0.3852997806651638" />
<circle cx="162.32970801724576" cy="82.05063321645368" r="5.787444363661044" fill="#D2691E" fill-opacity="0.2801830809727737" />
<circle cx="94.4635127752829" cy="26.626399208924383" r="5.236435220186481" fill="#FFDE75" fill-opacity="0.389798025650796" />
<circle cx="69.02935235935146" cy="137.07663351969956" r="5.219269393906938" fill="#8B4513" fill-opacity="0.595071360838979" />
<circle cx="74.71175302743791" cy="157.9304510959284" r="2.4361572357265726" fill="#D2691E" fill-opacity="0.2789577654679674" />
<circle cx="186.31703255412646" cy="81.61968119271351" r="5.366711475502482" fill="#FFFFFF" fill-opacity="0.5272270239022024" />
<circle cx="92.20569598720671" cy="187.21305661157027" r="3.801443639615961" fill="#8B4513" fill-opacity="0.22182643895694928" />
<circle cx="69.8935000308517" cy="168.93478330936776" r="4.974559680034483" fill="#8B4513" fill-opacity="0.44499007121242995" />
<circle cx="122.949770188917" cy="57.81883542129234" r="5.873762415184799" fill="#FFFFFF" fill-opacity="0.42121198704637663" />
<circle cx="84.90231461068619" cy="105.81276169081116" r="5.628520301509192" fill="#8B4513" fill-opacity="0.4526056299245734" />
<ellipse cx="124.02654360059029" cy="69.83728768874164" rx="5.578128568531536" ry="7.85702542121412" fill="#FFFDF0" fill-opacity="0.6" />
<ellipse cx="123.81334653501888" cy="69.0392328591961" rx="4.448458280186696" ry="2.7633849848620553" fill="#FFFFFF" fill-opacity="0.85" />
<ellipse cx="152.52715520198737" cy="138.55892729809096" rx="9.77686663164206" ry="4.822914095630419" fill="#FFFDF0" fill-opacity="0.6" />
<ellipse cx="152.79814400848105" cy="138.18241463688065" rx="3.3126277119010665" ry="2.3580833408976045" fill="#FFFFFF" fill-opacity="0.85" />
<ellipse cx="149.8764038465866" cy="145.70320902032276" rx="5.986267835483531" ry="6.950916346377243" fill="#FFFDF0" fill-opacity="0.6" />
<ellipse cx="150.36978513587655" cy="146.36741057877632" rx="2.9307018717345104" ry="3.271982203802743" fill="#FFFFFF" fill-opacity="0.85" />
<ellipse cx="72.4865279744124" cy="75.16089570721375" rx="6.2342977157788635" ry="8.64291317640611" fill="#FFFDF0" fill-opacity="0.6" />
<ellipse cx="72.1458220549727" cy="74.44545763653817" rx="3.548866856858532" ry="3.1793260220665553" fill="#FFFFFF" fill-opacity="0.85" />
<ellipse cx="68.20173976473032" cy="35.1964458689834" rx="6.3135443904548545" ry="6.828644705705185" fill="#FFFDF0" fill-opacity="0.6" />
<ellipse cx="67.42424068403517" cy="34.62236964019812" rx="3.715383506895081" ry="3.7960711902167805" fill="#FFFFFF" fill-opacity="0.85" />
<ellipse cx="184.05236039841077" cy="125.27630476309812" rx="9.088994225186894" ry="8.6280592080287" fill="#FFFDF0" fill-opacity="0.6" />
<ellipse cx="184.38110151689384" cy="125.66573560665339" rx="2.7806244828503073" ry="3.622356276967852" fill="#FFFFFF" fill-opacity="0.85" />
<ellipse cx="139.1750413451653" cy="124.13289929797577" rx="9.369593210031638" ry="5.773368560982209" fill="#FFFDF0" fill-opacity="0.6" />
<ellipse cx="139.74223453894825" cy="123.46507265649727" rx="2.5743618821210936" ry="2.3711496763596394" fill="#FFFFFF" fill-opacity="0.85" />
<ellipse cx="116.87372552370192" cy="166.71288223476773" rx="5.1830055963181785" ry="5.1662567539378035" fill="#FFFDF0" fill-opacity="0.6" />
<ellipse cx="116.63205518989076" cy="166.80464565656024" rx="2.8901396295794415" ry="2.7621246563329995" fill="#FFFFFF" fill-opacity="0.85" />
<ellipse cx="98.45812370652877" cy="47.40670636856432" rx="7.8430690595179575" ry="5.418827205599664" fill="#FFFDF0" fill-opacity="0.6" />
<ellipse cx="98.05563976315985" cy="46.49954897768517" rx="4.507875255719621" ry="3.691236417559261" fill="#FFFFFF" fill-opacity="0.85" />
</g>
<rect x="230.0" y="41.0" width="54.0" height="54.0" fill="none" stroke="black" stroke-width="2" />
<rect x="230.0" y="115.0" width="54.0" height="54.0" fill="none" stroke="black" stroke-width="2" />
<path d="M225.0,105.0 L289.0,105.0" stroke="black" stroke-width="2" />
</g>
</svg>