<svg width="509.0" height="210.0" xmlns="http://www.w3.org/2000/svg" xmlns:xlink="http://www.w3.org/1999/xlink">
<svg x="0.0" y="0.0" width="210.0" height="210.0" viewBox="0 0 210 210" xmlns="http://www.w3.org/2000/svg" xmlns:xlink="http://www.w3.org/1999/xlink">
<defs>
<clipPath id="clip-4557157824-4503493072">
<circle cx="105.0" cy="105.0" r="100" fill="none" />
</clipPath>
</defs>
<g>
<circle cx="105.0" cy="105.0" r="100" fill="#FEF7E3" />
<use xlink:href="#clip-4557157824-4503493072" />
<g clip-path="url(#clip-4557157824-4503493072)">
<circle cx="105.0" cy="105.0" r="92" stroke="#DAA05D" stroke-width="16" fill="none" />
<circle cx="105.0" cy="105.0" r="98" stroke="#C37B32" stroke-width="5" fill="none" />
<circle cx="71.47715485880437" cy="182.63990532151763" r="4.035965786734026" fill="#FFFFFF" fill-opacity="0.3136981820080951" />
<circle cx="66.47920968628068" cy="38.963862068775114" r="5.9712260239339345" fill="#FFFFFF" fill-opacity="0.4077539052331691" />
<circle cx="43.32265966632567" cy="55.90893292593203" r="5.658146271723853" fill="#D2691E" fill-opacity="0.3345547551002634" />
<circle cx="53.79455589302809" cy="84.24332481501585" r="2.7987039945186285" fill="#D2691E" fill-opacity="0.5406165719183486" />
<circle cx="78.8392015967663" cy="93.11227481215917" r="5.960103931182498" fill="#D2691E" fill-opacity="0.44796827475290424" />
<circle cx="81.42054993922994" cy="165.86273114497868" r="5.4222749799985035" fill="#FFDE75" fill-opacity="0.24794273458525065" />
<circle cx="110.73950434454991" cy="110.57009802440318" r="3.89078661845385" fill="#D2691E" fill-opacity="0.22733269791142524" />
<circle cx="100.74303897379214" cy="145.84547692362815" r="2.22507381417214" fill="#FFFFFF" fill-opacity="0.26519013537066305" />
<circle cx="73.05182800425271" cy="64.97546842149464" r="4.415568199750479" fill="#8B4513" fill-opacity="0.26685790637892176" />
<circle cx="99.71124449419284" cy="186.95184986918764" r="4.522836547997018" fill="#FFFFFF" fill-opacity="0.3498987832874528" />
<circle cx="51.81951002832602" cy="103.045397828595" r="4.8492000300126925" fill="#D2691E" fill-opacity="0.5236780607951428" />
<circle cx="54.49261111118808" cy="63.073134605660485" r="3.0860295970117453" fill="#8B4513" fill-opacity="0.28210852906973705" />
<circle cx="94.1052171390808" cy="21.601728789158287" r="3.807997803197663" fill="#D2691E" fill-opacity="0.34664002748737055" />
<circle cx="27.04774511076161" cy="94.56161085384365" r="3.9700283680387707" fill="#8B4513" fill-opacity="0.2563219323792675" />
<circle cx="164.92846582950776" cy="118.96997871593537" r="4.112647692111249" fill="#D2691E" fill-opacity="0.34586583239620305" />
<circle cx="165.6989570154877" cy="143.6954604252266" r="2.6521680892052912" fill="#8B4513" fill-opacity="0.25973689521313265" />
<circle cx="97.03188279998334" cy="110.65556778080813" r="2.0669812833297785" fill="#FFDE75" fill-opacity="0.42442354699515134" />
<circle cx="145.1548228179468" cy="140.13219924048698" r="4.817662963214987" fill="#FFFFFF" fill-opacity="0.47675809599599434" />
<circle cx="40.73343027895139" cy="121.92326316372665" r="4.166119737828039" fill="#FFDE75" fill-opacity="0.49423069407783476" />
<circle cx="184.3609401209444" cy="121.62257119367572" r="5.328931490315493" fill="#8B4513" fill-opacity="0.3519602122154837" />
<circle cx="166.2322403619645" cy="160.92778341498644" r="3.4923580107771177" fill="#FFFFFF" fill-opacity="0.4920332497254725" />
<circle cx="61.18375747315791" cy="49.25755219053424" r="3.4989487846496647" fill="#FFDE75" fill-opacity="0.31862821838096145" />
<circle cx="104.80787530608073" cy="115.34499740646322" r="3.456770909345229" fill="#D2691E" fill-opacity="0.37953608398874616" />
<circle cx="92.65399657218214" cy="57.68923937085838" r="2.166705214419622" fill="#FFFFFF" fill-opacity="0.26562946151891503" />
<circle cx="119.09248027760405" cy="140.36669922703913" r="3.518871339694981" fill="#8B4513" fill-opacity="0.27686149037153923" />
<circle cx="80.06460800616448" cy="66.54347577147314" r="2.2728555996472357" fill="#D2691E" fill-opacity="0.37911659570795186" />
<circle cx="115.05570898025319" cy="155.18630492432874" r="2.197949885180947" fill="#8B4513" fill-opacity="0.5976269465125542" />
<circle cx="87.2925735626734" cy="122.11859981978037" r="3.005178700105063" fill="#FFDE75" fill-opacity="0.20408402728183841" />
<circle cx="43.429383104378104" cy="109.77208085915223" r="3.248968537880646" fill="#FFDE75" fill-opacity="0.44245409463971347" />
<circle cx="67.5211438914687" cy="84.89588115694303" r="2.866616009035321" fill="#8B4513" fill-opacity="0.33550730396394485" />
<circle cx="118.09162545335107" cy="174.7116853665777" r="8.703202984263564" fill="#FFFFFF" fill-opacity="0.95" stroke="#FAF0E6" stroke-width="1.5" />
<circle cx="92.14620648119279" cy="125.75098458968571" r="10.808284726516586" fill="#FFFFFF" fill-opacity="0.95" stroke="#FAF0E6" stroke-width="1.5" />
<circle cx="70.61489265490607" cy="108.00720016736987" r="5.891505030846623" fill="#FFFFFF" fill-opacity="0.95" stroke="#FAF0E6" stroke-width="1.5" />
<circle cx="31.622428266637527" cy="112.92096255711378" r="8.190733154977936" fill="#FFFFFF" fill-opacity="0.95" stroke="#FAF0E6" stroke-width="1.5" />
<circle cx="147.98181515936358" cy="105.13896895456517" r="5.9010034833964795" fill="#FFFFFF" fill-opacity="0.95" stroke="#FAF0E6" stroke-width="1.5" />
<circle cx="151.66090838173167" cy="136.48640929897292" r="7.564442624072863" fill="#FFFFFF" fill-opacity="0.95" stroke="#FAF0E6" stroke-width="1.5" />
<circle cx="97.91771842382336" cy="48.071713017319894" r="5.154913751807059" fill="#FFFFFF" fill-opacity="0.95" stroke="#FAF0E6" stroke-width="1.5" />
<circle cx="75.73386305969545" cy="69.43032309281327" r="6.887164758797844" fill="#FFFFFF" fill-opacity="0.95" stroke="#FAF0E6" stroke-width="1.5" />
<circle cx="61.47503765323406" cy="64.5238743662882" r="6.52548411531669" fill="#FFFFFF" fill-opacity="0.95" stroke="#FAF0E6" stroke-width="1.5" />
<circle cx="155.89507634592545" cy="84.63135736283469" r="8.166056745300468" fill="#FFFFFF" fill-opacity="0.95" stroke="#FAF0E6" stroke-width="1.5" />
<circle cx="127.82141624136844" cy="97.72201331887443" r="11.933046545835813" fill="#FFFFFF" fill-opacity="0.95" stroke="#FAF0E6" stroke-width="1.5" />
<circle cx="125.63042228322523" cy="146.32064311419393" r="6.121712652906318" fill="#FFFFFF" fill-opacity="0.95" stroke="#FAF0E6" stroke-width="1.5" />
</g>
<path d="M105.0,105.0 L105.0,5.0" stroke="lightgray" stroke-width="2" />
<path d="M105.0,105.0 L105.0,205.0" stroke="lightgray" stroke-width="2" />
<circle cx="105.0" cy="105.0" r="100" fill="none" stroke="lightgray" stroke-width="2" />
</g>
</svg>
<svg x="225.0" y="0.0" width="284.0" height="210.0" viewBox="0 0 284.0 210" xmlns="http://www.w3.org/2000/svg" xmlns:xlink="http://www.w3.org/1999/xlink">
<defs>
<clipPath id="clip-4554530480-4503680208">
<path d="M105.0,105.0 L105.0,5.0 A100,100,0,0,1,105.0,205.0 Z" fill="none" />
</clipPath>
</defs>
<g>
<path d="M105.0,105.0 L105.0,5.0 A100,100,0,0,1,105.0,205.0 Z" fill="none" stroke="lightgray" stroke-width="2" />
<path d="M105.0,105.0 L105.0,205.0 A100,100,0,0,1,104.99999999999999,5.0 Z" fill="none" stroke="lightgray" stroke-width="2" />
<path d="M105.0,105.0 L105.0,5.0 A100,100,0,0,1,105.0,205.0 Z" fill="#FEF7E3" stroke="lightgray" stroke-width="2" />
<use xlink:href="#clip-4554530480-4503680208" />
<g clip-path="url(#clip-4554530480-4503680208)">
<circle cx="105.0" cy="105.0" r="92" stroke="#DAA05D" stroke-width="16" fill="none" />
<circle cx="105.0" cy="105.0" r="98" stroke="#C37B32" stroke-width="5" fill="none" />
<circle cx="114.55114829064524" cy="66.85157681925301" r="3.61075302935706" fill="#8B4513" fill-opacity="0.2696510109765954" />
<circle cx="170.48440623872546" cy="113.77272454551051" r="3.1336071471275564" fill="#FFFFFF" fill-opacity="0.46954062266008895" />
<circle cx="74.37689847120643" cy="161.9139662448843" r="3.3986163401986995" fill="#FFFFFF" fill-opacity="0.3139151512389664" />
<circle cx="109.33324539341643" cy="174.42055333493073" r="4.292096433660377" fill="#FFDE75" fill-opacity="0.5053744893883669" />
<circle cx="85.63895853205867" cy="128.816057051323" r="2.466764638044074" fill="#8B4513" fill-opacity="0.35824595052195274" />
<circle cx="83.94365582789194" cy="153.0835319750615" r="5.257875912864897" fill="#FFFFFF" fill-opacity="0.5274760006688246" />
<circle cx="150.48688020206845" cy="129.20588286535576" r="2.083043527259665" fill="#D2691E" fill-opacity="0.41629056725979685" />
<circle cx="108.15995514926249" cy="128.78813433377573" r="5.5393872077149044" fill="#8B4513" fill-opacity="0.5953066373079671" />
<circle cx="163.2018750225559" cy="96.62322274163385" r="5.206785133816008" fill="#FFDE75" fill-opacity="0.3938915234441297" />
<circle cx="35.71358642247367" cy="75.4146293597629" r="3.109740731862009" fill="#FFDE75" fill-opacity="0.22997377152087284" />
<circle cx="53.300830073287514" cy="75.4732108549983" r="3.994775903704944" fill="#FFFFFF" fill-opacity="0.370148072933486" />
<circle cx="98.1327074890385" cy="156.49834004832366" r="4.902248467029871" fill="#D2691E" fill-opacity="0.28949913819257994" />
<circle cx="123.45778378941716" cy="85.67294680571074" r="4.233026567516285" fill="#D2691E" fill-opacity="0.32478069447602637" />
<circle cx="167.26977257217285" cy="127.03194010254697" r="4.368870816738719" fill="#FFFFFF" fill-opacity="0.3887724492336493" />
<circle cx="120.89449667072071" cy="34.861157315377724" r="5.738848058210689" fill="#D2691E" fill-opacity="0.34060533757646894" />
<circle cx="122.86399751903252" cy="156.1406694852345" r="9.060964578383317" fill="#FFFFFF" fill-opacity="0.95" stroke="#FAF0E6" stroke-width="1.5" />
<circle cx="155.2939000749304" cy="114.84374299429523" r="6.850347158819491" fill="#FFFFFF" fill-opacity="0.95" stroke="#FAF0E6" stroke-width="1.5" />
<circle cx="154.30427474007723" cy="164.74810087024792" r="7.375244834855605" fill="#FFFFFF" fill-opacity="0.95" stroke="#FAF0E6" stroke-width="1.5" />
<circle cx="146.8508818020756" cy="130.84526429698224" r="6.310092034749077" fill="#FFFFFF" fill-opacity="0.95" stroke="#FAF0E6" stroke-width="1.5" />
<circle cx="61.21466170666945" cy="54.42338563388675" r="6.821995303733832" fill="#FFFFFF" fill-opacity="0.95" stroke="#FAF0E6" stroke-width="1.5" />
<circle cx="104.39666850665026" cy="149.81953649597472" r="11.838843923854899" fill="#FFFFFF" fill-opacity="0.95" stroke="#FAF0E6" stroke-width="1.5" />
</g>
<rect x="230.0" y="41.0" width="54.0" height="54.0" fill="none" stroke="black" stroke-width="2" />
<rect x="230.0" y="115.0" width="54.0" height="54.0" fill="none" stroke="black" stroke-width="2" />
<path d="M225.0,105.0 L289.0,105.0" stroke="black" stroke-width="2" />
</g>
</svg>
</svg>