<svg width="959.0" height="210.0" xmlns="http://www.w3.org/2000/svg" xmlns:xlink="http://www.w3.org/1999/xlink">
<svg x="0.0" y="0.0" width="210.0" height="210.0" viewBox="0 0 210 210" xmlns="http://www.w3.org/2000/svg" xmlns:xlink="http://www.w3.org/1999/xlink">
<defs>
<clipPath id="clip-4524472352-4472136912">
<circle cx="105.0" cy="105.0" r="100" fill="none" />
</clipPath>
</defs>
<g>
<circle cx="105.0" cy="105.0" r="100" fill="#F5C754" />
<use xlink:href="#clip-4524472352-4472136912" />
<g clip-path="url(#clip-4524472352-4472136912)">
<circle cx="105.0" cy="105.0" r="92" stroke="#DAA05D" stroke-width="16" fill="none" />
<circle cx="105.0" cy="105.0" r="98" stroke="#C37B32" stroke-width="5" fill="none" />
<circle cx="35.41873679918905" cy="130.49009042445397" r="2.2321714584350394" fill="#FFFFFF" fill-opacity="0.31788139200059234" />
<circle cx="35.96092167703276" cy="95.44027635656401" r="2.7118089201950326" fill="#D2691E" fill-opacity="0.5031806653707767" />
<circle cx="104.29139308078723" cy="33.74781726711822" r="5.6512451179116" fill="#8B4513" fill-opacity="0.5511673761141986" />
<circle cx="72.60103885649991" cy="100.79422559552039" r="3.0372793074576756" fill="#8B4513" fill-opacity="0.5214626738074912" />
<circle cx="79.90863822057503" cy="91.49660046133764" r="3.851187224950126" fill="#FFDE75" fill-opacity="0.3865641070923269" />
<circle cx="71.68531934229303" cy="42.70642025336034" r="3.4730252130481296" fill="#FFFFFF" fill-opacity="0.4260186521988138" />
<circle cx="172.76454365599557" cy="79.76214469981156" r="2.0871732607838727" fill="#D2691E" fill-opacity="0.2430769972012782" />
<circle cx="40.912901956042106" cy="73.97132642166994" r="4.304275509609695" fill="#FFFFFF" fill-opacity="0.3872680803564963" />
<circle cx="117.79126948626624" cy="78.58416173909528" r="4.490074737610867" fill="#D2691E" fill-opacity="0.43861906904544157" />
<circle cx="148.96674290362577" cy="32.64616639034419" r="3.38763317633343" fill="#8B4513" fill-opacity="0.38255287366657564" />
<circle cx="25.596019859544" cy="108.40692140691718" r="3.2898508166066107" fill="#D2691E" fill-opacity="0.22728720948250572" />
<circle cx="62.84019186526668" cy="99.75954149640289" r="3.50981475932614" fill="#FFFFFF" fill-opacity="0.3364446055106413" />
<circle cx="97.72245886950981" cy="107.91033961960929" r="3.648144101836863" fill="#D2691E" fill-opacity="0.29997408912111195" />
<circle cx="135.62725573344514" cy="118.41241326551992" r="4.337402357621087" fill="#8B4513" fill-opacity="0.5533291220596062" />
<circle cx="54.506191100275146" cy="162.29340883907733" r="5.201253980191404" fill="#FFFFFF" fill-opacity="0.28442027272031484" />
<circle cx="149.6169070967709" cy="93.2688828135087" r="4.170203164225914" fill="#FFDE75" fill-opacity="0.29564916058045687" />
<circle cx="114.09295616429469" cy="188.89973763328453" r="3.777488369517905" fill="#FFFFFF" fill-opacity="0.4561917694823093" />
<circle cx="120.32022061723428" cy="148.49988667829" r="5.985117493911115" fill="#FFDE75" fill-opacity="0.5859098529808958" />
<circle cx="173.23553949907955" cy="80.39898547327664" r="2.193495545034657" fill="#D2691E" fill-opacity="0.3056700929436401" />
<circle cx="70.7494632788987" cy="84.31582243317366" r="4.390813802903212" fill="#FFFFFF" fill-opacity="0.39563854397434367" />
<circle cx="32.8037829676573" cy="147.52801150548026" r="3.683253271074003" fill="#8B4513" fill-opacity="0.2702794788891191" />
<circle cx="115.94770862228299" cy="57.489814845990644" r="2.0033751445251418" fill="#8B4513" fill-opacity="0.5735796601334273" />
<circle cx="137.79262938978752" cy="112.29047227965006" r="5.2985665875006" fill="#D2691E" fill-opacity="0.46569364143525366" />
<circle cx="41.75774903255356" cy="101.71687667576082" r="3.4887063457552414" fill="#FFDE75" fill-opacity="0.5513993702636164" />
<circle cx="102.15819514903077" cy="62.45308734009967" r="5.825868146380062" fill="#FFDE75" fill-opacity="0.5806034911542668" />
<circle cx="138.33857410127752" cy="52.36239249523186" r="4.113021718340757" fill="#8B4513" fill-opacity="0.5518856795437304" />
<circle cx="104.19428772504844" cy="95.67354646211794" r="3.4094802406495606" fill="#FFDE75" fill-opacity="0.42063452800222356" />
<circle cx="62.02437343192051" cy="47.48870038063407" r="4.4058201657227" fill="#FFFFFF" fill-opacity="0.28118030473402045" />
<circle cx="100.98966428077475" cy="148.5916519903233" r="3.4480504732478856" fill="#FFFFFF" fill-opacity="0.224435909341442" />
<circle cx="115.11669854752228" cy="116.3732497853141" r="4.243259353784518" fill="#8B4513" fill-opacity="0.22549738640867473" />
<circle cx="74.09624476015024" cy="52.92210201110022" r="2.8717195883610755" fill="#FFDE75" fill-opacity="0.32212640696189065" />
<circle cx="126.43804811942117" cy="139.30301290182007" r="3.9118426273414726" fill="#8B4513" fill-opacity="0.4792658392582" />
<circle cx="145.34767217142794" cy="178.20342071971024" r="5.421828793702907" fill="#FFFFFF" fill-opacity="0.3648894543776489" />
<circle cx="63.22721906503085" cy="134.50810928213048" r="2.6064372936279225" fill="#FFFFFF" fill-opacity="0.22240208878180306" />
<circle cx="162.70226205492781" cy="110.1676863292868" r="5.046874937899476" fill="#8B4513" fill-opacity="0.34946404215906035" />
<circle cx="129.1089377902405" cy="145.97309218006956" r="3.421440340113548" fill="#FFFFFF" fill-opacity="0.46775946034815774" />
<circle cx="149.49264151240504" cy="67.17984421052411" r="5.784270159294932" fill="#FFDE75" fill-opacity="0.46681733163345474" />
<circle cx="159.1466577132517" cy="149.69368543497" r="4.789045140315649" fill="#D2691E" fill-opacity="0.49542608175127" />
<circle cx="73.66543151274239" cy="101.32559831716969" r="2.0143362954876918" fill="#FFDE75" fill-opacity="0.5736495403545984" />
<circle cx="113.70412829580026" cy="156.68316152377395" r="5.914837912348412" fill="#FFDE75" fill-opacity="0.24600331362449263" />
<circle cx="175.00870492719542" cy="152.39689373442036" r="5.269364286380352" fill="#D2691E" fill-opacity="0.21718708046108914" />
<circle cx="154.39894558290837" cy="37.09599954869702" r="3.634539337423216" fill="#FFDE75" fill-opacity="0.5884763778746793" />
<circle cx="92.54859312167467" cy="37.6948964573061" r="5.3752413397334085" fill="#8B4513" fill-opacity="0.21933263601030106" />
<circle cx="136.4345674925475" cy="127.74195763474727" r="2.5289815092446366" fill="#D2691E" fill-opacity="0.4002338599982147" />
<circle cx="146.66662221287336" cy="132.2764628811559" r="3.455283489132937" fill="#FFFFFF" fill-opacity="0.5812968784016328" />
<ellipse cx="76.73619768311306" cy="103.00077616735393" rx="6.919797715820796" ry="8.86216048519646" fill="#FFFDF0" fill-opacity="0.6" />
<ellipse cx="76.94374304768102" cy="103.36067198556577" rx="4.527056057062067" ry="3.64555232348758" fill="#FFFFFF" fill-opacity="0.85" />
<ellipse cx="143.7350246927061" cy="151.03137003353436" rx="8.078564255226684" ry="6.172398987368078" fill="#FFFDF0" fill-opacity="0.6" />
<ellipse cx="144.37343791740813" cy="150.99117260330664" rx="3.61038564759682" ry="3.6959541791367405" fill="#FFFFFF" fill-opacity="0.85" />
<ellipse cx="155.1351555033796" cy="48.78287541509618" rx="9.476844258772378" ry="8.210212920766708" fill="#FFFDF0" fill-opacity="0.6" />
<ellipse cx="154.4720909518214" cy="49.754676699071304" rx="4.262952261631268" ry="2.159708495417159" fill="#FFFFFF" fill-opacity="0.85" />
<ellipse cx="183.04045961644567" cy="85.50460944744783" rx="9.570879624165109" ry="4.589243641871203" fill="#FFFDF0" fill-opacity="0.6" />
<ellipse cx="183.00993711377504" cy="85.11264469899542" rx="4.065321389099452" ry="2.4190279052386945" fill="#FFFFFF" fill-opacity="0.85" />
<ellipse cx="171.1400436925985" cy="63.938270921904866" rx="6.524505394915202" ry="7.657243373827484" fill="#FFFDF0" fill-opacity="0.6" />
<ellipse cx="171.07590756521296" cy="64.42432103771924" rx="3.1062279478037613" ry="2.6361527875956723" fill="#FFFFFF" fill-opacity="0.85" />
<ellipse cx="142.07354926164749" cy="69.03082679861137" rx="8.41559971059411" ry="5.067107389850592" fill="#FFFDF0" fill-opacity="0.6" />
<ellipse cx="142.93089919194463" cy="69.17322547498648" rx="2.062572339316638" ry="3.8754860418966643" fill="#FFFFFF" fill-opacity="0.85" />
<ellipse cx="44.57415516243524" cy="117.21994185572593" rx="6.5846876801433805" ry="6.435137105702129" fill="#FFFDF0" fill-opacity="0.6" />
<ellipse cx="45.230947765603" cy="117.91111131772112" rx="4.294312257693405" ry="3.208080959802493" fill="#FFFFFF" fill-opacity="0.85" />
<ellipse cx="86.30583874421751" cy="162.9323223292056" rx="8.347265482964694" ry="5.6756735180139515" fill="#FFFDF0" fill-opacity="0.6" />
<ellipse cx="86.85878127039649" cy="163.39807501050768" rx="4.545038411771771" ry="3.814414602081938" fill="#FFFFFF" fill-opacity="0.85" />
<ellipse cx="33.724023186097696" cy="110.92594474150995" rx="5.017785445840337" ry="8.974625475862046" fill="#FFFDF0" fill-opacity="0.6" />
<ellipse cx="34.677575718290925" cy="111.08813219722471" rx="2.9489400815202895" ry="3.706469127520288" fill="#FFFFFF" fill-opacity="0.85" />
</g>
<path d="M105.0,105.0 L105.0,5.0" stroke="lightgray" stroke-width="2" />
<path d="M105.0,105.0 L191.60254037844388,155.0" stroke="lightgray" stroke-width="2" />
<path d="M105.0,105.0 L18.397459621556123,155.0" stroke="lightgray" stroke-width="2" />
<circle cx="105.0" cy="105.0" r="100" fill="none" stroke="lightgray" stroke-width="2" />
</g>
</svg>
<svg x="225.0" y="0.0" width="210.0" height="210.0" viewBox="0 0 210 210" xmlns="http://www.w3.org/2000/svg" xmlns:xlink="http://www.w3.org/1999/xlink">
<defs>
<clipPath id="clip-4524470224-4471964752">
<circle cx="105.0" cy="105.0" r="100" fill="none" />
</clipPath>
</defs>
<g>
<circle cx="105.0" cy="105.0" r="100" fill="#F5C754" />
<use xlink:href="#clip-4524470224-4471964752" />
<g clip-path="url(#clip-4524470224-4471964752)">
<circle cx="105.0" cy="105.0" r="92" stroke="#DAA05D" stroke-width="16" fill="none" />
<circle cx="105.0" cy="105.0" r="98" stroke="#C37B32" stroke-width="5" fill="none" />
<circle cx="35.41873679918905" cy="130.49009042445397" r="2.2321714584350394" fill="#FFFFFF" fill-opacity="0.31788139200059234" />
<circle cx="35.96092167703276" cy="95.44027635656401" r="2.7118089201950326" fill="#D2691E" fill-opacity="0.5031806653707767" />
<circle cx="104.29139308078723" cy="33.74781726711822" r="5.6512451179116" fill="#8B4513" fill-opacity="0.5511673761141986" />
<circle cx="72.60103885649991" cy="100.79422559552039" r="3.0372793074576756" fill="#8B4513" fill-opacity="0.5214626738074912" />
<circle cx="79.90863822057503" cy="91.49660046133764" r="3.851187224950126" fill="#FFDE75" fill-opacity="0.3865641070923269" />
<circle cx="71.68531934229303" cy="42.70642025336034" r="3.4730252130481296" fill="#FFFFFF" fill-opacity="0.4260186521988138" />
<circle cx="172.76454365599557" cy="79.76214469981156" r="2.0871732607838727" fill="#D2691E" fill-opacity="0.2430769972012782" />
<circle cx="40.912901956042106" cy="73.97132642166994" r="4.304275509609695" fill="#FFFFFF" fill-opacity="0.3872680803564963" />
<circle cx="117.79126948626624" cy="78.58416173909528" r="4.490074737610867" fill="#D2691E" fill-opacity="0.43861906904544157" />
<circle cx="148.96674290362577" cy="32.64616639034419" r="3.38763317633343" fill="#8B4513" fill-opacity="0.38255287366657564" />
<circle cx="25.596019859544" cy="108.40692140691718" r="3.2898508166066107" fill="#D2691E" fill-opacity="0.22728720948250572" />
<circle cx="62.84019186526668" cy="99.75954149640289" r="3.50981475932614" fill="#FFFFFF" fill-opacity="0.3364446055106413" />
<circle cx="97.72245886950981" cy="107.91033961960929" r="3.648144101836863" fill="#D2691E" fill-opacity="0.29997408912111195" />
<circle cx="135.62725573344514" cy="118.41241326551992" r="4.337402357621087" fill="#8B4513" fill-opacity="0.5533291220596062" />
<circle cx="54.506191100275146" cy="162.29340883907733" r="5.201253980191404" fill="#FFFFFF" fill-opacity="0.28442027272031484" />
<circle cx="149.6169070967709" cy="93.2688828135087" r="4.170203164225914" fill="#FFDE75" fill-opacity="0.29564916058045687" />
<circle cx="114.09295616429469" cy="188.89973763328453" r="3.777488369517905" fill="#FFFFFF" fill-opacity="0.4561917694823093" />
<circle cx="120.32022061723428" cy="148.49988667829" r="5.985117493911115" fill="#FFDE75" fill-opacity="0.5859098529808958" />
<circle cx="173.23553949907955" cy="80.39898547327664" r="2.193495545034657" fill="#D2691E" fill-opacity="0.3056700929436401" />
<circle cx="70.7494632788987" cy="84.31582243317366" r="4.390813802903212" fill="#FFFFFF" fill-opacity="0.39563854397434367" />
<circle cx="32.8037829676573" cy="147.52801150548026" r="3.683253271074003" fill="#8B4513" fill-opacity="0.2702794788891191" />
<circle cx="115.94770862228299" cy="57.489814845990644" r="2.0033751445251418" fill="#8B4513" fill-opacity="0.5735796601334273" />
<circle cx="137.79262938978752" cy="112.29047227965006" r="5.2985665875006" fill="#D2691E" fill-opacity="0.46569364143525366" />
<circle cx="41.75774903255356" cy="101.71687667576082" r="3.4887063457552414" fill="#FFDE75" fill-opacity="0.5513993702636164" />
<circle cx="102.15819514903077" cy="62.45308734009967" r="5.825868146380062" fill="#FFDE75" fill-opacity="0.5806034911542668" />
<circle cx="138.33857410127752" cy="52.36239249523186" r="4.113021718340757" fill="#8B4513" fill-opacity="0.5518856795437304" />
<circle cx="104.19428772504844" cy="95.67354646211794" r="3.4094802406495606" fill="#FFDE75" fill-opacity="0.42063452800222356" />
<circle cx="62.02437343192051" cy="47.48870038063407" r="4.4058201657227" fill="#FFFFFF" fill-opacity="0.28118030473402045" />
<circle cx="100.98966428077475" cy="148.5916519903233" r="3.4480504732478856" fill="#FFFFFF" fill-opacity="0.224435909341442" />
<circle cx="115.11669854752228" cy="116.3732497853141" r="4.243259353784518" fill="#8B4513" fill-opacity="0.22549738640867473" />
<circle cx="74.09624476015024" cy="52.92210201110022" r="2.8717195883610755" fill="#FFDE75" fill-opacity="0.32212640696189065" />
<circle cx="126.43804811942117" cy="139.30301290182007" r="3.9118426273414726" fill="#8B4513" fill-opacity="0.4792658392582" />
<circle cx="145.34767217142794" cy="178.20342071971024" r="5.421828793702907" fill="#FFFFFF" fill-opacity="0.3648894543776489" />
<circle cx="63.22721906503085" cy="134.50810928213048" r="2.6064372936279225" fill="#FFFFFF" fill-opacity="0.22240208878180306" />
<circle cx="162.70226205492781" cy="110.1676863292868" r="5.046874937899476" fill="#8B4513" fill-opacity="0.34946404215906035" />
<circle cx="129.1089377902405" cy="145.97309218006956" r="3.421440340113548" fill="#FFFFFF" fill-opacity="0.46775946034815774" />
<circle cx="149.49264151240504" cy="67.17984421052411" r="5.784270159294932" fill="#FFDE75" fill-opacity="0.46681733163345474" />
<circle cx="159.1466577132517" cy="149.69368543497" r="4.789045140315649" fill="#D2691E" fill-opacity="0.49542608175127" />
<circle cx="73.66543151274239" cy="101.32559831716969" r="2.0143362954876918" fill="#FFDE75" fill-opacity="0.5736495403545984" />
<circle cx="113.70412829580026" cy="156.68316152377395" r="5.914837912348412" fill="#FFDE75" fill-opacity="0.24600331362449263" />
<circle cx="175.00870492719542" cy="152.39689373442036" r="5.269364286380352" fill="#D2691E" fill-opacity="0.21718708046108914" />
<circle cx="154.39894558290837" cy="37.09599954869702" r="3.634539337423216" fill="#FFDE75" fill-opacity="0.5884763778746793" />
<circle cx="92.54859312167467" cy="37.6948964573061" r="5.3752413397334085" fill="#8B4513" fill-opacity="0.21933263601030106" />
<circle cx="136.4345674925475" cy="127.74195763474727" r="2.5289815092446366" fill="#D2691E" fill-opacity="0.4002338599982147" />
<circle cx="146.66662221287336" cy="132.2764628811559" r="3.455283489132937" fill="#FFFFFF" fill-opacity="0.5812968784016328" />
<ellipse cx="76.73619768311306" cy="103.00077616735393" rx="6.919797715820796" ry="8.86216048519646" fill="#FFFDF0" fill-opacity="0.6" />
<ellipse cx="76.94374304768102" cy="103.36067198556577" rx="4.527056057062067" ry="3.64555232348758" fill="#FFFFFF" fill-opacity="0.85" />
<ellipse cx="143.7350246927061" cy="151.03137003353436" rx="8.078564255226684" ry="6.172398987368078" fill="#FFFDF0" fill-opacity="0.6" />
<ellipse cx="144.37343791740813" cy="150.99117260330664" rx="3.61038564759682" ry="3.6959541791367405" fill="#FFFFFF" fill-opacity="0.85" />
<ellipse cx="155.1351555033796" cy="48.78287541509618" rx="9.476844258772378" ry="8.210212920766708" fill="#FFFDF0" fill-opacity="0.6" />
<ellipse cx="154.4720909518214" cy="49.754676699071304" rx="4.262952261631268" ry="2.159708495417159" fill="#FFFFFF" fill-opacity="0.85" />
<ellipse cx="183.04045961644567" cy="85.50460944744783" rx="9.570879624165109" ry="4.589243641871203" fill="#FFFDF0" fill-opacity="0.6" />
<ellipse cx="183.00993711377504" cy="85.11264469899542" rx="4.065321389099452" ry="2.4190279052386945" fill="#FFFFFF" fill-opacity="0.85" />
<ellipse cx="171.1400436925985" cy="63.938270921904866" rx="6.524505394915202" ry="7.657243373827484" fill="#FFFDF0" fill-opacity="0.6" />
<ellipse cx="171.07590756521296" cy="64.42432103771924" rx="3.1062279478037613" ry="2.6361527875956723" fill="#FFFFFF" fill-opacity="0.85" />
<ellipse cx="142.07354926164749" cy="69.03082679861137" rx="8.41559971059411" ry="5.067107389850592" fill="#FFFDF0" fill-opacity="0.6" />
<ellipse cx="142.93089919194463" cy="69.17322547498648" rx="2.062572339316638" ry="3.8754860418966643" fill="#FFFFFF" fill-opacity="0.85" />
<ellipse cx="44.57415516243524" cy="117.21994185572593" rx="6.5846876801433805" ry="6.435137105702129" fill="#FFFDF0" fill-opacity="0.6" />
<ellipse cx="45.230947765603" cy="117.91111131772112" rx="4.294312257693405" ry="3.208080959802493" fill="#FFFFFF" fill-opacity="0.85" />
<ellipse cx="86.30583874421751" cy="162.9323223292056" rx="8.347265482964694" ry="5.6756735180139515" fill="#FFFDF0" fill-opacity="0.6" />
<ellipse cx="86.85878127039649" cy="163.39807501050768" rx="4.545038411771771" ry="3.814414602081938" fill="#FFFFFF" fill-opacity="0.85" />
<ellipse cx="33.724023186097696" cy="110.92594474150995" rx="5.017785445840337" ry="8.974625475862046" fill="#FFFDF0" fill-opacity="0.6" />
<ellipse cx="34.677575718290925" cy="111.08813219722471" rx="2.9489400815202895" ry="3.706469127520288" fill="#FFFFFF" fill-opacity="0.85" />
</g>
<path d="M105.0,105.0 L105.0,5.0" stroke="lightgray" stroke-width="2" />
<path d="M105.0,105.0 L191.60254037844388,155.0" stroke="lightgray" stroke-width="2" />
<path d="M105.0,105.0 L18.397459621556123,155.0" stroke="lightgray" stroke-width="2" />
<circle cx="105.0" cy="105.0" r="100" fill="none" stroke="lightgray" stroke-width="2" />
</g>
</svg>
<svg x="450.0" y="0.0" width="210.0" height="210.0" viewBox="0 0 210 210" xmlns="http://www.w3.org/2000/svg" xmlns:xlink="http://www.w3.org/1999/xlink">
<defs>
<clipPath id="clip-4521844976-4471964752">
<circle cx="105.0" cy="105.0" r="100" fill="none" />
</clipPath>
</defs>
<g>
<circle cx="105.0" cy="105.0" r="100" fill="#F5C754" />
<use xlink:href="#clip-4521844976-4471964752" />
<g clip-path="url(#clip-4521844976-4471964752)">
<circle cx="105.0" cy="105.0" r="92" stroke="#DAA05D" stroke-width="16" fill="none" />
<circle cx="105.0" cy="105.0" r="98" stroke="#C37B32" stroke-width="5" fill="none" />
<circle cx="35.41873679918905" cy="130.49009042445397" r="2.2321714584350394" fill="#FFFFFF" fill-opacity="0.31788139200059234" />
<circle cx="35.96092167703276" cy="95.44027635656401" r="2.7118089201950326" fill="#D2691E" fill-opacity="0.5031806653707767" />
<circle cx="104.29139308078723" cy="33.74781726711822" r="5.6512451179116" fill="#8B4513" fill-opacity="0.5511673761141986" />
<circle cx="72.60103885649991" cy="100.79422559552039" r="3.0372793074576756" fill="#8B4513" fill-opacity="0.5214626738074912" />
<circle cx="79.90863822057503" cy="91.49660046133764" r="3.851187224950126" fill="#FFDE75" fill-opacity="0.3865641070923269" />
<circle cx="71.68531934229303" cy="42.70642025336034" r="3.4730252130481296" fill="#FFFFFF" fill-opacity="0.4260186521988138" />
<circle cx="172.76454365599557" cy="79.76214469981156" r="2.0871732607838727" fill="#D2691E" fill-opacity="0.2430769972012782" />
<circle cx="40.912901956042106" cy="73.97132642166994" r="4.304275509609695" fill="#FFFFFF" fill-opacity="0.3872680803564963" />
<circle cx="117.79126948626624" cy="78.58416173909528" r="4.490074737610867" fill="#D2691E" fill-opacity="0.43861906904544157" />
<circle cx="148.96674290362577" cy="32.64616639034419" r="3.38763317633343" fill="#8B4513" fill-opacity="0.38255287366657564" />
<circle cx="25.596019859544" cy="108.40692140691718" r="3.2898508166066107" fill="#D2691E" fill-opacity="0.22728720948250572" />
<circle cx="62.84019186526668" cy="99.75954149640289" r="3.50981475932614" fill="#FFFFFF" fill-opacity="0.3364446055106413" />
<circle cx="97.72245886950981" cy="107.91033961960929" r="3.648144101836863" fill="#D2691E" fill-opacity="0.29997408912111195" />
<circle cx="135.62725573344514" cy="118.41241326551992" r="4.337402357621087" fill="#8B4513" fill-opacity="0.5533291220596062" />
<circle cx="54.506191100275146" cy="162.29340883907733" r="5.201253980191404" fill="#FFFFFF" fill-opacity="0.28442027272031484" />
<circle cx="149.6169070967709" cy="93.2688828135087" r="4.170203164225914" fill="#FFDE75" fill-opacity="0.29564916058045687" />
<circle cx="114.09295616429469" cy="188.89973763328453" r="3.777488369517905" fill="#FFFFFF" fill-opacity="0.4561917694823093" />
<circle cx="120.32022061723428" cy="148.49988667829" r="5.985117493911115" fill="#FFDE75" fill-opacity="0.5859098529808958" />
<circle cx="173.23553949907955" cy="80.39898547327664" r="2.193495545034657" fill="#D2691E" fill-opacity="0.3056700929436401" />
<circle cx="70.7494632788987" cy="84.31582243317366" r="4.390813802903212" fill="#FFFFFF" fill-opacity="0.39563854397434367" />
<circle cx="32.8037829676573" cy="147.52801150548026" r="3.683253271074003" fill="#8B4513" fill-opacity="0.2702794788891191" />
<circle cx="115.94770862228299" cy="57.489814845990644" r="2.0033751445251418" fill="#8B4513" fill-opacity="0.5735796601334273" />
<circle cx="137.79262938978752" cy="112.29047227965006" r="5.2985665875006" fill="#D2691E" fill-opacity="0.46569364143525366" />
<circle cx="41.75774903255356" cy="101.71687667576082" r="3.4887063457552414" fill="#FFDE75" fill-opacity="0.5513993702636164" />
<circle cx="102.15819514903077" cy="62.45308734009967" r="5.825868146380062" fill="#FFDE75" fill-opacity="0.5806034911542668" />
<circle cx="138.33857410127752" cy="52.36239249523186" r="4.113021718340757" fill="#8B4513" fill-opacity="0.5518856795437304" />
<circle cx="104.19428772504844" cy="95.67354646211794" r="3.4094802406495606" fill="#FFDE75" fill-opacity="0.42063452800222356" />
<circle cx="62.02437343192051" cy="47.48870038063407" r="4.4058201657227" fill="#FFFFFF" fill-opacity="0.28118030473402045" />
<circle cx="100.98966428077475" cy="148.5916519903233" r="3.4480504732478856" fill="#FFFFFF" fill-opacity="0.224435909341442" />
<circle cx="115.11669854752228" cy="116.3732497853141" r="4.243259353784518" fill="#8B4513" fill-opacity="0.22549738640867473" />
<circle cx="74.09624476015024" cy="52.92210201110022" r="2.8717195883610755" fill="#FFDE75" fill-opacity="0.32212640696189065" />
<circle cx="126.43804811942117" cy="139.30301290182007" r="3.9118426273414726" fill="#8B4513" fill-opacity="0.4792658392582" />
<circle cx="145.34767217142794" cy="178.20342071971024" r="5.421828793702907" fill="#FFFFFF" fill-opacity="0.3648894543776489" />
<circle cx="63.22721906503085" cy="134.50810928213048" r="2.6064372936279225" fill="#FFFFFF" fill-opacity="0.22240208878180306" />
<circle cx="162.70226205492781" cy="110.1676863292868" r="5.046874937899476" fill="#8B4513" fill-opacity="0.34946404215906035" />
<circle cx="129.1089377902405" cy="145.97309218006956" r="3.421440340113548" fill="#FFFFFF" fill-opacity="0.46775946034815774" />
<circle cx="149.49264151240504" cy="67.17984421052411" r="5.784270159294932" fill="#FFDE75" fill-opacity="0.46681733163345474" />
<circle cx="159.1466577132517" cy="149.69368543497" r="4.789045140315649" fill="#D2691E" fill-opacity="0.49542608175127" />
<circle cx="73.66543151274239" cy="101.32559831716969" r="2.0143362954876918" fill="#FFDE75" fill-opacity="0.5736495403545984" />
<circle cx="113.70412829580026" cy="156.68316152377395" r="5.914837912348412" fill="#FFDE75" fill-opacity="0.24600331362449263" />
<circle cx="175.00870492719542" cy="152.39689373442036" r="5.269364286380352" fill="#D2691E" fill-opacity="0.21718708046108914" />
<circle cx="154.39894558290837" cy="37.09599954869702" r="3.634539337423216" fill="#FFDE75" fill-opacity="0.5884763778746793" />
<circle cx="92.54859312167467" cy="37.6948964573061" r="5.3752413397334085" fill="#8B4513" fill-opacity="0.21933263601030106" />
<circle cx="136.4345674925475" cy="127.74195763474727" r="2.5289815092446366" fill="#D2691E" fill-opacity="0.4002338599982147" />
<circle cx="146.66662221287336" cy="132.2764628811559" r="3.455283489132937" fill="#FFFFFF" fill-opacity="0.5812968784016328" />
<ellipse cx="76.73619768311306" cy="103.00077616735393" rx="6.919797715820796" ry="8.86216048519646" fill="#FFFDF0" fill-opacity="0.6" />
<ellipse cx="76.94374304768102" cy="103.36067198556577" rx="4.527056057062067" ry="3.64555232348758" fill="#FFFFFF" fill-opacity="0.85" />
<ellipse cx="143.7350246927061" cy="151.03137003353436" rx="8.078564255226684" ry="6.172398987368078" fill="#FFFDF0" fill-opacity="0.6" />
<ellipse cx="144.37343791740813" cy="150.99117260330664" rx="3.61038564759682" ry="3.6959541791367405" fill="#FFFFFF" fill-opacity="0.85" />
<ellipse cx="155.1351555033796" cy="48.78287541509618" rx="9.476844258772378" ry="8.210212920766708" fill="#FFFDF0" fill-opacity="0.6" />
<ellipse cx="154.4720909518214" cy="49.754676699071304" rx="4.262952261631268" ry="2.159708495417159" fill="#FFFFFF" fill-opacity="0.85" />
<ellipse cx="183.04045961644567" cy="85.50460944744783" rx="9.570879624165109" ry="4.589243641871203" fill="#FFFDF0" fill-opacity="0.6" />
<ellipse cx="183.00993711377504" cy="85.11264469899542" rx="4.065321389099452" ry="2.4190279052386945" fill="#FFFFFF" fill-opacity="0.85" />
<ellipse cx="171.1400436925985" cy="63.938270921904866" rx="6.524505394915202" ry="7.657243373827484" fill="#FFFDF0" fill-opacity="0.6" />
<ellipse cx="171.07590756521296" cy="64.42432103771924" rx="3.1062279478037613" ry="2.6361527875956723" fill="#FFFFFF" fill-opacity="0.85" />
<ellipse cx="142.07354926164749" cy="69.03082679861137" rx="8.41559971059411" ry="5.067107389850592" fill="#FFFDF0" fill-opacity="0.6" />
<ellipse cx="142.93089919194463" cy="69.17322547498648" rx="2.062572339316638" ry="3.8754860418966643" fill="#FFFFFF" fill-opacity="0.85" />
<ellipse cx="44.57415516243524" cy="117.21994185572593" rx="6.5846876801433805" ry="6.435137105702129" fill="#FFFDF0" fill-opacity="0.6" />
<ellipse cx="45.230947765603" cy="117.91111131772112" rx="4.294312257693405" ry="3.208080959802493" fill="#FFFFFF" fill-opacity="0.85" />
<ellipse cx="86.30583874421751" cy="162.9323223292056" rx="8.347265482964694" ry="5.6756735180139515" fill="#FFFDF0" fill-opacity="0.6" />
<ellipse cx="86.85878127039649" cy="163.39807501050768" rx="4.545038411771771" ry="3.814414602081938" fill="#FFFFFF" fill-opacity="0.85" />
<ellipse cx="33.724023186097696" cy="110.92594474150995" rx="5.017785445840337" ry="8.974625475862046" fill="#FFFDF0" fill-opacity="0.6" />
<ellipse cx="34.677575718290925" cy="111.08813219722471" rx="2.9489400815202895" ry="3.706469127520288" fill="#FFFFFF" fill-opacity="0.85" />
</g>
<path d="M105.0,105.0 L105.0,5.0" stroke="lightgray" stroke-width="2" />
<path d="M105.0,105.0 L191.60254037844388,155.0" stroke="lightgray" stroke-width="2" />
<path d="M105.0,105.0 L18.397459621556123,155.0" stroke="lightgray" stroke-width="2" />
<circle cx="105.0" cy="105.0" r="100" fill="none" stroke="lightgray" stroke-width="2" />
</g>
</svg>
<svg x="675.0" y="0.0" width="284.0" height="210.0" viewBox="0 0 284.0 210" xmlns="http://www.w3.org/2000/svg" xmlns:xlink="http://www.w3.org/1999/xlink">
<defs>
<clipPath id="clip-4472388832-4535512784">
<path d="M105.0,105.0 L105.0,5.0 A100,100,0,0,1,191.60254037844388,155.0 Z" fill="none" />
</clipPath>
</defs>
<g>
<path d="M105.0,105.0 L105.0,5.0 A100,100,0,0,1,191.60254037844388,155.0 Z" fill="none" stroke="lightgray" stroke-width="2" />
<path d="M105.0,105.0 L191.60254037844388,155.0 A100,100,0,0,1,18.397459621556123,155.0 Z" fill="none" stroke="lightgray" stroke-width="2" />
<path d="M105.0,105.0 L18.397459621556123,155.0 A100,100,0,0,1,104.99999999999999,5.0 Z" fill="none" stroke="lightgray" stroke-width="2" />
<path d="M105.0,105.0 L105.0,5.0 A100,100,0,0,1,191.60254037844388,155.0 Z" fill="#F5C754" stroke="lightgray" stroke-width="2" />
<use xlink:href="#clip-4472388832-4535512784" />
<g clip-path="url(#clip-4472388832-4535512784)">
<circle cx="105.0" cy="105.0" r="92" stroke="#DAA05D" stroke-width="16" fill="none" />
<circle cx="105.0" cy="105.0" r="98" stroke="#C37B32" stroke-width="5" fill="none" />
<circle cx="70.93837600524708" cy="168.2638350928311" r="2.180265403653587" fill="#FFFFFF" fill-opacity="0.35513885729541866" />
<circle cx="48.00992901566362" cy="138.0326528935551" r="5.58295275489048" fill="#FFDE75" fill-opacity="0.29021148655874873" />
<circle cx="187.41396443072506" cy="86.46707781793002" r="3.3392669949797193" fill="#FFDE75" fill-opacity="0.5397600170241073" />
<circle cx="179.02322374334813" cy="110.47430735606376" r="3.190942532485254" fill="#D2691E" fill-opacity="0.48247056055065013" />
<circle cx="173.02765322468412" cy="137.37512742966913" r="5.862775001204595" fill="#8B4513" fill-opacity="0.4002829792802422" />
<circle cx="141.8510939291417" cy="65.54653907888257" r="2.5159618753236153" fill="#FFDE75" fill-opacity="0.43929017892596567" />
<circle cx="171.94340572380162" cy="156.14483360991207" r="5.6697791710079315" fill="#FFDE75" fill-opacity="0.5846524991614412" />
<circle cx="168.65453014345525" cy="51.155432350741336" r="2.805798172435963" fill="#D2691E" fill-opacity="0.27975031770509556" />
<circle cx="70.51653644595073" cy="40.53797297963622" r="2.2073779135627745" fill="#FFDE75" fill-opacity="0.42926193733916634" />
<circle cx="128.59747739240615" cy="48.74438721327334" r="4.099369759080517" fill="#8B4513" fill-opacity="0.5710347843416987" />
<circle cx="134.23949733506367" cy="122.059564192026" r="5.603211303880329" fill="#FFDE75" fill-opacity="0.3934816034246173" />
<circle cx="103.47127810380452" cy="165.66902942434723" r="2.411291651788255" fill="#FFDE75" fill-opacity="0.2765326158003901" />
<circle cx="104.21618437044346" cy="119.04908671811337" r="4.690478875381839" fill="#FFDE75" fill-opacity="0.5763604680512734" />
<circle cx="144.90817933033355" cy="154.53494908398963" r="3.9611497953710764" fill="#FFDE75" fill-opacity="0.4806712844104758" />
<circle cx="78.28903246069675" cy="145.53876312497331" r="4.14075760206828" fill="#D2691E" fill-opacity="0.281838314485129" />
<ellipse cx="47.25618994518511" cy="62.42156412011415" rx="8.90130138458248" ry="6.233351794332535" fill="#FFFDF0" fill-opacity="0.6" />
<ellipse cx="48.06470867960463" cy="61.60006645241702" rx="4.675096427606808" ry="3.8181655713388594" fill="#FFFFFF" fill-opacity="0.85" />
<ellipse cx="177.593215155288" cy="77.78935027270425" rx="6.224822513097697" ry="4.566083080425704" fill="#FFFDF0" fill-opacity="0.6" />
<ellipse cx="177.93495581150904" cy="78.66774222258026" rx="3.3639376018031193" ry="3.829370090003513" fill="#FFFFFF" fill-opacity="0.85" />
<ellipse cx="102.44009585089887" cy="100.94485174958814" rx="8.94716326918827" ry="8.945942760830398" fill="#FFFDF0" fill-opacity="0.6" />
<ellipse cx="102.37420872880858" cy="101.13305380190133" rx="3.6339166386054482" ry="2.2838827651968145" fill="#FFFFFF" fill-opacity="0.85" />
</g>
<rect x="230.0" y="41.0" width="54.0" height="54.0" fill="none" stroke="black" stroke-width="2" />
<rect x="230.0" y="115.0" width="54.0" height="54.0" fill="none" stroke="black" stroke-width="2" />
<path d="M225.0,105.0 L289.0,105.0" stroke="black" stroke-width="2" />
</g>
</svg>
</svg>