<?xml version="1.0" encoding="UTF-8"?>
<svg xmlns="http://www.w3.org/2000/svg" xmlns:xlink="http://www.w3.org/1999/xlink"
     width="284.0" height="210" viewBox="0 0 284.0 210">
<defs>
<clipPath id="clip-4554530480-4503492048">
<path d="M105.0,105.0 L105.0,5.0 A100,100,0,0,1,200.10565162951536,74.09830056250526 Z" fill="none" />
</clipPath>
<clipPath id="clip-4554530480-4568197200">
<path d="M105.0,105.0 L200.10565162951536,74.09830056250526 A100,100,0,0,1,163.77852522924732,185.90169943749476 Z" fill="none" />
</clipPath>
</defs>
<g>
<path d="M105.0,105.0 L105.0,5.0 A100,100,0,0,1,200.10565162951536,74.09830056250526 Z" fill="none" stroke="lightgray" stroke-width="2" />
<path d="M105.0,105.0 L200.10565162951536,74.09830056250526 A100,100,0,0,1,163.77852522924732,185.90169943749476 Z" fill="none" stroke="lightgray" stroke-width="2" />
<path d="M105.0,105.0 L163.77852522924732,185.90169943749476 A100,100,0,0,1,46.2214747707527,185.90169943749476 Z" fill="none" stroke="lightgray" stroke-width="2" />
<path d="M105.0,105.0 L46.2214747707527,185.90169943749476 A100,100,0,0,1,9.894348370484636,74.09830056250527 Z" fill="none" stroke="lightgray" stroke-width="2" />
<path d="M105.0,105.0 L9.894348370484636,74.09830056250527 A100,100,0,0,1,104.99999999999999,5.0 Z" fill="none" stroke="lightgray" stroke-width="2" />
<path d="M105.0,105.0 L105.0,5.0 A100,100,0,0,1,200.10565162951536,74.09830056250526 Z" fill="#F5C754" stroke="lightgray" stroke-width="2" />
<use xlink:href="#clip-4554530480-4503492048" />
<g clip-path="url(#clip-4554530480-4503492048)">
<circle cx="105.0" cy="105.0" r="92" stroke="#DAA05D" stroke-width="16" fill="none" />
<circle cx="105.0" cy="105.0" r="98" stroke="#C37B32" stroke-width="5" fill="none" />
<circle cx="179.37332336013824" cy="112.05863590907713" r="4.859012952471742" fill="#8B4513" fill-opacity="0.3242822972794741" />
<circle cx="46.78714867525614" cy="141.77213685028343" r="4.311282609949494" fill="#FFDE75" fill-opacity="0.5253742258016685" />
<circle cx="36.537707487927506" cy="89.7638936885186" r="4.3590936341408515" fill="#D2691E" fill-opacity="0.27836650999569607" />
<circle cx="93.38847274104418" cy="24.46599915900501" r="3.119607826245298" fill="#FFFFFF" fill-opacity="0.24004581985753332" />
<circle cx="45.22826758620065" cy="143.53337329735962" r="5.979631213068721" fill="#FFDE75" fill-opacity="0.26686892371128584" />
<circle cx="75.40065124078927" cy="56.28713528727615" r="3.809409914046197" fill="#FFDE75" fill-opacity="0.480920666723725" />
<circle cx="106.88750625092796" cy="164.0896087373041" r="5.3203284608737444" fill="#8B4513" fill-opacity="0.23316961281314705" />
<circle cx="57.55896661033747" cy="112.60111523083476" r="5.240071672215103" fill="#FFFFFF" fill-opacity="0.4347186628729177" />
<circle cx="185.47682314788062" cy="82.49920420761163" r="5.496554993676979" fill="#FFDE75" fill-opacity="0.5136079126981163" />
<circle cx="102.69690264365471" cy="86.8524768562559" r="4.895684445561505" fill="#8B4513" fill-opacity="0.20340301560163965" />
<circle cx="44.66289486264198" cy="74.57098643740251" r="5.135105000939737" fill="#D2691E" fill-opacity="0.33227589231728605" />
<circle cx="52.22065801275023" cy="54.001049682026796" r="5.7831935294805525" fill="#FFDE75" fill-opacity="0.2539097219639872" />
<circle cx="105.01377962706107" cy="110.41459620877517" r="2.2727465992741465" fill="#FFFFFF" fill-opacity="0.5076517937269212" />
<circle cx="81.86173755227586" cy="154.84232658405142" r="5.8838655702825715" fill="#8B4513" fill-opacity="0.20235926922080055" />
<circle cx="162.96447537038856" cy="102.78483908487792" r="3.236956267351365" fill="#FFFFFF" fill-opacity="0.4365349453436629" />
<circle cx="50.007739992908576" cy="97.69823529554836" r="2.473798956983789" fill="#8B4513" fill-opacity="0.22839895648424102" />
<circle cx="87.71515017934773" cy="41.92601865767211" r="2.0981797801560225" fill="#D2691E" fill-opacity="0.5058763918373632" />
<circle cx="87.07404892138192" cy="79.8590674349656" r="2.539842083881188" fill="#FFDE75" fill-opacity="0.4918274423606162" />
<circle cx="123.333475026095" cy="136.60541940241148" r="5.063091569810767" fill="#8B4513" fill-opacity="0.22406595322165346" />
<circle cx="51.56426929777452" cy="161.6347431183316" r="3.1531754048832954" fill="#FFFFFF" fill-opacity="0.48411179241944" />
<circle cx="180.56288651948216" cy="121.96527899853982" r="3.1549613304299498" fill="#8B4513" fill-opacity="0.505169236574587" />
<circle cx="108.40995926819646" cy="145.5827774529394" r="5.179764996758289" fill="#FFFFFF" fill-opacity="0.22806994868086525" />
<circle cx="59.21505579152075" cy="49.75739685374163" r="4.073873664989758" fill="#D2691E" fill-opacity="0.2581348029494102" />
<circle cx="136.91174582419853" cy="95.30239674292609" r="2.6690317704420132" fill="#FFFFFF" fill-opacity="0.3506449477954763" />
<circle cx="131.84619688868796" cy="82.64881708144247" r="3.262391736205485" fill="#D2691E" fill-opacity="0.2306435254958649" />
<circle cx="183.6082741413606" cy="110.28293923622527" r="2.1893651966189145" fill="#8B4513" fill-opacity="0.4408900728464087" />
<circle cx="122.53192301246114" cy="28.244540436818994" r="4.753245377489139" fill="#8B4513" fill-opacity="0.2944006792428774" />
<circle cx="169.020221240516" cy="119.91280360997098" r="4.3190648797323865" fill="#D2691E" fill-opacity="0.3554752947199019" />
<circle cx="59.42017208250359" cy="133.91251946053012" r="5.112373459878754" fill="#D2691E" fill-opacity="0.2425978942635586" />
<circle cx="169.09183045713354" cy="103.33657305204154" r="4.149781671729551" fill="#D2691E" fill-opacity="0.21592914883420314" />
<circle cx="135.51861372392796" cy="133.5231355253825" r="11.178876829379508" fill="#C92A2A" stroke="#800000" stroke-width="1" />
<circle cx="130.6229530761753" cy="131.10523829532625" r="1.1550782565069642" fill="#FFA07A" fill-opacity="0.7" />
<circle cx="139.04693864278772" cy="134.7952523728716" r="1.4382346508548618" fill="#FFA07A" fill-opacity="0.7" />
<circle cx="134.25902909229842" cy="128.31830850997127" r="1.2017630321538413" fill="#FFA07A" fill-opacity="0.7" />
<circle cx="138.20714420983933" cy="128.01870066540104" r="1.4695299859478594" fill="#FFA07A" fill-opacity="0.7" />
<circle cx="130.3200115908835" cy="137.69431241763868" r="0.7948073827955496" fill="#FFA07A" fill-opacity="0.7" />
<circle cx="139.23294737502823" cy="137.89959331074667" r="1.090325157753466" fill="#FFA07A" fill-opacity="0.7" />
<circle cx="163.41207420775615" cy="149.94006096413827" r="11.808213370108287" fill="#C92A2A" stroke="#800000" stroke-width="1" />
<circle cx="168.91797029912257" cy="144.37770426441602" r="0.8543762680016763" fill="#FFA07A" fill-opacity="0.7" />
<circle cx="164.6072555465693" cy="144.7385971578755" r="1.0594984366802105" fill="#FFA07A" fill-opacity="0.7" />
<circle cx="163.18742213005234" cy="145.15792330748394" r="0.9779990606582909" fill="#FFA07A" fill-opacity="0.7" />
<circle cx="68.33612143820508" cy="72.76669457424211" r="11.907384656695736" fill="#C92A2A" stroke="#800000" stroke-width="1" />
<circle cx="63.587798919971455" cy="67.57847927910672" r="1.16436408798205" fill="#FFA07A" fill-opacity="0.7" />
<circle cx="68.71042957752678" cy="71.18183469090854" r="0.5158329341438523" fill="#FFA07A" fill-opacity="0.7" />
<circle cx="63.0121502309157" cy="76.95140975007281" r="0.7520325437750793" fill="#FFA07A" fill-opacity="0.7" />
<circle cx="46.02683843416052" cy="131.59417327285635" r="11.877718709995507" fill="#C92A2A" stroke="#800000" stroke-width="1" />
<circle cx="48.176442198664915" cy="127.05461677884745" r="0.9425806035313555" fill="#FFA07A" fill-opacity="0.7" />
<circle cx="48.42090401411403" cy="130.63463178162073" r="0.6342596465967595" fill="#FFA07A" fill-opacity="0.7" />
<circle cx="45.80381581952823" cy="130.42247522392498" r="1.2808638576033877" fill="#FFA07A" fill-opacity="0.7" />
<circle cx="44.480499869866975" cy="136.71757597994446" r="1.0616882566964854" fill="#FFA07A" fill-opacity="0.7" />
<circle cx="45.22507171538618" cy="132.47151432424596" r="1.2231061090229494" fill="#FFA07A" fill-opacity="0.7" />
<circle cx="112.01787568941344" cy="29.00683665069647" r="11.5254606910711" fill="#C92A2A" stroke="#800000" stroke-width="1" />
<circle cx="113.05333734345484" cy="33.47976752495107" r="1.3353782896667696" fill="#FFA07A" fill-opacity="0.7" />
<circle cx="112.18669401673853" cy="30.735184730867278" r="1.2617269022028177" fill="#FFA07A" fill-opacity="0.7" />
<circle cx="108.9558225056301" cy="27.36396738241207" r="1.3064337503888515" fill="#FFA07A" fill-opacity="0.7" />
<circle cx="111.01905704341485" cy="33.69922508797504" r="1.0676914244978035" fill="#FFA07A" fill-opacity="0.7" />
<circle cx="108.6621615430517" cy="23.07738381713279" r="1.168118055072663" fill="#FFA07A" fill-opacity="0.7" />
<circle cx="112.24386127028242" cy="25.686966340219605" r="0.8692650735110411" fill="#FFA07A" fill-opacity="0.7" />
<circle cx="114.79705948703275" cy="25.858353769243717" r="1.174355696587789" fill="#FFA07A" fill-opacity="0.7" />
<circle cx="52.12954724656814" cy="82.6821200446512" r="10.021760478018756" fill="#C92A2A" stroke="#800000" stroke-width="1" />
<circle cx="53.44073867377728" cy="82.77976951189231" r="0.9077671047474809" fill="#FFA07A" fill-opacity="0.7" />
<circle cx="54.3780988849534" cy="88.60762675208518" r="0.8663717325450785" fill="#FFA07A" fill-opacity="0.7" />
<circle cx="48.52144419546127" cy="77.95280843036066" r="1.2354676231730701" fill="#FFA07A" fill-opacity="0.7" />
<circle cx="56.357027160258944" cy="85.53599910925102" r="1.2310329066098338" fill="#FFA07A" fill-opacity="0.7" />
<circle cx="48.29167556907007" cy="84.59086632058627" r="1.461071511263183" fill="#FFA07A" fill-opacity="0.7" />
<circle cx="49.630730444526854" cy="81.63971464875263" r="1.3192027020769554" fill="#FFA07A" fill-opacity="0.7" />
<circle cx="148.02239153402564" cy="69.5664271638745" r="9.884305631410768" fill="#C92A2A" stroke="#800000" stroke-width="1" />
<circle cx="146.31096417009988" cy="71.32906582069899" r="0.7866869818703649" fill="#FFA07A" fill-opacity="0.7" />
<circle cx="147.62295868631546" cy="71.99958205323625" r="1.192865167173375" fill="#FFA07A" fill-opacity="0.7" />
<circle cx="145.09450587147484" cy="67.80608762210251" r="1.2430623960271703" fill="#FFA07A" fill-opacity="0.7" />
<circle cx="148.09083564407243" cy="64.35052472442743" r="1.4480273626399245" fill="#FFA07A" fill-opacity="0.7" />
<circle cx="85.4558142521868" cy="104.55364763128432" r="11.811827225236982" fill="#C92A2A" stroke="#800000" stroke-width="1" />
<circle cx="82.1059253445195" cy="101.507047698155" r="0.858731672702218" fill="#FFA07A" fill-opacity="0.7" />
<circle cx="90.02574623997175" cy="99.27522526030761" r="0.606797859970178" fill="#FFA07A" fill-opacity="0.7" />
<circle cx="85.43221826640162" cy="98.8831974030269" r="0.6686353809754467" fill="#FFA07A" fill-opacity="0.7" />
<circle cx="80.13602835488734" cy="102.25136286282036" r="0.9522904857164426" fill="#FFA07A" fill-opacity="0.7" />
<circle cx="86.17088359348202" cy="109.33990269776318" r="0.8996641472570817" fill="#FFA07A" fill-opacity="0.7" />
</g>
<path d="M105.0,105.0 L200.10565162951536,74.09830056250526 A100,100,0,0,1,163.77852522924732,185.90169943749476 Z" fill="#F5C754" stroke="lightgray" stroke-width="2" />
<use xlink:href="#clip-4554530480-4568197200" />
<g clip-path="url(#clip-4554530480-4568197200)">
<circle cx="105.0" cy="105.0" r="92" stroke="#DAA05D" stroke-width="16" fill="none" />
<circle cx="105.0" cy="105.0" r="98" stroke="#C37B32" stroke-width="5" fill="none" />
<circle cx="179.37332336013824" cy="112.05863590907713" r="4.859012952471742" fill="#8B4513" fill-opacity="0.3242822972794741" />
<circle cx="46.78714867525614" cy="141.77213685028343" r="4.311282609949494" fill="#FFDE75" fill-opacity="0.5253742258016685" />
<circle cx="36.537707487927506" cy="89.7638936885186" r="4.3590936341408515" fill="#D2691E" fill-opacity="0.27836650999569607" />
<circle cx="93.38847274104418" cy="24.46599915900501" r="3.119607826245298" fill="#FFFFFF" fill-opacity="0.24004581985753332" />
<circle cx="45.22826758620065" cy="143.53337329735962" r="5.979631213068721" fill="#FFDE75" fill-opacity="0.26686892371128584" />
<circle cx="75.40065124078927" cy="56.28713528727615" r="3.809409914046197" fill="#FFDE75" fill-opacity="0.480920666723725" />
<circle cx="106.88750625092796" cy="164.0896087373041" r="5.3203284608737444" fill="#8B4513" fill-opacity="0.23316961281314705" />
<circle cx="57.55896661033747" cy="112.60111523083476" r="5.240071672215103" fill="#FFFFFF" fill-opacity="0.4347186628729177" />
<circle cx="185.47682314788062" cy="82.49920420761163" r="5.496554993676979" fill="#FFDE75" fill-opacity="0.5136079126981163" />
<circle cx="102.69690264365471" cy="86.8524768562559" r="4.895684445561505" fill="#8B4513" fill-opacity="0.20340301560163965" />
<circle cx="44.66289486264198" cy="74.57098643740251" r="5.135105000939737" fill="#D2691E" fill-opacity="0.33227589231728605" />
<circle cx="52.22065801275023" cy="54.001049682026796" r="5.7831935294805525" fill="#FFDE75" fill-opacity="0.2539097219639872" />
<circle cx="105.01377962706107" cy="110.41459620877517" r="2.2727465992741465" fill="#FFFFFF" fill-opacity="0.5076517937269212" />
<circle cx="81.86173755227586" cy="154.84232658405142" r="5.8838655702825715" fill="#8B4513" fill-opacity="0.20235926922080055" />
<circle cx="162.96447537038856" cy="102.78483908487792" r="3.236956267351365" fill="#FFFFFF" fill-opacity="0.4365349453436629" />
<circle cx="50.007739992908576" cy="97.69823529554836" r="2.473798956983789" fill="#8B4513" fill-opacity="0.22839895648424102" />
<circle cx="87.71515017934773" cy="41.92601865767211" r="2.0981797801560225" fill="#D2691E" fill-opacity="0.5058763918373632" />
<circle cx="87.07404892138192" cy="79.8590674349656" r="2.539842083881188" fill="#FFDE75" fill-opacity="0.4918274423606162" />
<circle cx="123.333475026095" cy="136.60541940241148" r="5.063091569810767" fill="#8B4513" fill-opacity="0.22406595322165346" />
<circle cx="51.56426929777452" cy="161.6347431183316" r="3.1531754048832954" fill="#FFFFFF" fill-opacity="0.48411179241944" />
<circle cx="180.56288651948216" cy="121.96527899853982" r="3.1549613304299498" fill="#8B4513" fill-opacity="0.505169236574587" />
<circle cx="108.40995926819646" cy="145.5827774529394" r="5.179764996758289" fill="#FFFFFF" fill-opacity="0.22806994868086525" />
<circle cx="59.21505579152075" cy="49.75739685374163" r="4.073873664989758" fill="#D2691E" fill-opacity="0.2581348029494102" />
<circle cx="136.91174582419853" cy="95.30239674292609" r="2.6690317704420132" fill="#FFFFFF" fill-opacity="0.3506449477954763" />
<circle cx="131.84619688868796" cy="82.64881708144247" r="3.262391736205485" fill="#D2691E" fill-opacity="0.2306435254958649" />
<circle cx="183.6082741413606" cy="110.28293923622527" r="2.1893651966189145" fill="#8B4513" fill-opacity="0.4408900728464087" />
<circle cx="122.53192301246114" cy="28.244540436818994" r="4.753245377489139" fill="#8B4513" fill-opacity="0.2944006792428774" />
<circle cx="169.020221240516" cy="119.91280360997098" r="4.3190648797323865" fill="#D2691E" fill-opacity="0.3554752947199019" />
<circle cx="59.42017208250359" cy="133.91251946053012" r="5.112373459878754" fill="#D2691E" fill-opacity="0.2425978942635586" />
<circle cx="169.09183045713354" cy="103.33657305204154" r="4.149781671729551" fill="#D2691E" fill-opacity="0.21592914883420314" />
<circle cx="135.51861372392796" cy="133.5231355253825" r="11.178876829379508" fill="#C92A2A" stroke="#800000" stroke-width="1" />
<circle cx="130.6229530761753" cy="131.10523829532625" r="1.1550782565069642" fill="#FFA07A" fill-opacity="0.7" />
<circle cx="139.04693864278772" cy="134.7952523728716" r="1.4382346508548618" fill="#FFA07A" fill-opacity="0.7" />
<circle cx="134.25902909229842" cy="128.31830850997127" r="1.2017630321538413" fill="#FFA07A" fill-opacity="0.7" />
<circle cx="138.20714420983933" cy="128.01870066540104" r="1.4695299859478594" fill="#FFA07A" fill-opacity="0.7" />
<circle cx="130.3200115908835" cy="137.69431241763868" r="0.7948073827955496" fill="#FFA07A" fill-opacity="0.7" />
<circle cx="139.23294737502823" cy="137.89959331074667" r="1.090325157753466" fill="#FFA07A" fill-opacity="0.7" />
<circle cx="163.41207420775615" cy="149.94006096413827" r="11.808213370108287" fill="#C92A2A" stroke="#800000" stroke-width="1" />
<circle cx="168.91797029912257" cy="144.37770426441602" r="0.8543762680016763" fill="#FFA07A" fill-opacity="0.7" />
<circle cx="164.6072555465693" cy="144.7385971578755" r="1.0594984366802105" fill="#FFA07A" fill-opacity="0.7" />
<circle cx="163.18742213005234" cy="145.15792330748394" r="0.9779990606582909" fill="#FFA07A" fill-opacity="0.7" />
<circle cx="68.33612143820508" cy="72.76669457424211" r="11.907384656695736" fill="#C92A2A" stroke="#800000" stroke-width="1" />
<circle cx="63.587798919971455" cy="67.57847927910672" r="1.16436408798205" fill="#FFA07A" fill-opacity="0.7" />
<circle cx="68.71042957752678" cy="71.18183469090854" r="0.5158329341438523" fill="#FFA07A" fill-opacity="0.7" />
<circle cx="63.0121502309157" cy="76.95140975007281" r="0.7520325437750793" fill="#FFA07A" fill-opacity="0.7" />
<circle cx="46.02683843416052" cy="131.59417327285635" r="11.877718709995507" fill="#C92A2A" stroke="#800000" stroke-width="1" />
<circle cx="48.176442198664915" cy="127.05461677884745" r="0.9425806035313555" fill="#FFA07A" fill-opacity="0.7" />
<circle cx="48.42090401411403" cy="130.63463178162073" r="0.6342596465967595" fill="#FFA07A" fill-opacity="0.7" />
<circle cx="45.80381581952823" cy="130.42247522392498" r="1.2808638576033877" fill="#FFA07A" fill-opacity="0.7" />
<circle cx="44.480499869866975" cy="136.71757597994446" r="1.0616882566964854" fill="#FFA07A" fill-opacity="0.7" />
<circle cx="45.22507171538618" cy="132.47151432424596" r="1.2231061090229494" fill="#FFA07A" fill-opacity="0.7" />
<circle cx="112.01787568941344" cy="29.00683665069647" r="11.5254606910711" fill="#C92A2A" stroke="#800000" stroke-width="1" />
<circle cx="113.05333734345484" cy="33.47976752495107" r="1.3353782896667696" fill="#FFA07A" fill-opacity="0.7" />
<circle cx="112.18669401673853" cy="30.735184730867278" r="1.2617269022028177" fill="#FFA07A" fill-opacity="0.7" />
<circle cx="108.9558225056301" cy="27.36396738241207" r="1.3064337503888515" fill="#FFA07A" fill-opacity="0.7" />
<circle cx="111.01905704341485" cy="33.69922508797504" r="1.0676914244978035" fill="#FFA07A" fill-opacity="0.7" />
<circle cx="108.6621615430517" cy="23.07738381713279" r="1.168118055072663" fill="#FFA07A" fill-opacity="0.7" />
<circle cx="112.24386127028242" cy="25.686966340219605" r="0.8692650735110411" fill="#FFA07A" fill-opacity="0.7" />
<circle cx="114.79705948703275" cy="25.858353769243717" r="1.174355696587789" fill="#FFA07A" fill-opacity="0.7" />
<circle cx="52.12954724656814" cy="82.6821200446512" r="10.021760478018756" fill="#C92A2A" stroke="#800000" stroke-width="1" />
<circle cx="53.44073867377728" cy="82.77976951189231" r="0.9077671047474809" fill="#FFA07A" fill-opacity="0.7" />
<circle cx="54.3780988849534" cy="88.60762675208518" r="0.8663717325450785" fill="#FFA07A" fill-opacity="0.7" />
<circle cx="48.52144419546127" cy="77.95280843036066" r="1.2354676231730701" fill="#FFA07A" fill-opacity="0.7" />
<circle cx="56.357027160258944" cy="85.53599910925102" r="1.2310329066098338" fill="#FFA07A" fill-opacity="0.7" />
<circle cx="48.29167556907007" cy="84.59086632058627" r="1.461071511263183" fill="#FFA07A" fill-opacity="0.7" />
<circle cx="49.630730444526854" cy="81.63971464875263" r="1.3192027020769554" fill="#FFA07A" fill-opacity="0.7" />
<circle cx="148.02239153402564" cy="69.5664271638745" r="9.884305631410768" fill="#C92A2A" stroke="#800000" stroke-width="1" />
<circle cx="146.31096417009988" cy="71.32906582069899" r="0.7866869818703649" fill="#FFA07A" fill-opacity="0.7" />
<circle cx="147.62295868631546" cy="71.99958205323625" r="1.192865167173375" fill="#FFA07A" fill-opacity="0.7" />
<circle cx="145.09450587147484" cy="67.80608762210251" r="1.2430623960271703" fill="#FFA07A" fill-opacity="0.7" />
<circle cx="148.09083564407243" cy="64.35052472442743" r="1.4480273626399245" fill="#FFA07A" fill-opacity="0.7" />
<circle cx="85.4558142521868" cy="104.55364763128432" r="11.811827225236982" fill="#C92A2A" stroke="#800000" stroke-width="1" />
<circle cx="82.1059253445195" cy="101.507047698155" r="0.858731672702218" fill="#FFA07A" fill-opacity="0.7" />
<circle cx="90.02574623997175" cy="99.27522526030761" r="0.606797859970178" fill="#FFA07A" fill-opacity="0.7" />
<circle cx="85.43221826640162" cy="98.8831974030269" r="0.6686353809754467" fill="#FFA07A" fill-opacity="0.7" />
<circle cx="80.13602835488734" cy="102.25136286282036" r="0.9522904857164426" fill="#FFA07A" fill-opacity="0.7" />
<circle cx="86.17088359348202" cy="109.33990269776318" r="0.8996641472570817" fill="#FFA07A" fill-opacity="0.7" />
</g>
<rect x="230.0" y="41.0" width="54.0" height="54.0" fill="none" stroke="black" stroke-width="2" />
<rect x="230.0" y="115.0" width="54.0" height="54.0" fill="none" stroke="black" stroke-width="2" />
<path d="M225.0,105.0 L289.0,105.0" stroke="black" stroke-width="2" />
</g>
</svg>