<?xml version="1.0" encoding="UTF-8"?>
<svg xmlns="http://www.w3.org/2000/svg" xmlns:xlink="http://www.w3.org/1999/xlink"
     width="284.0" height="210" viewBox="0 0 284.0 210">
<defs>
<clipPath id="clip-4494331408-4429356880">
<path d="M105.0,105.0 L105.0,5.0 A100,100,0,0,1,105.0,205.0 Z" fill="none" />
</clipPath>
</defs>
<g>
<path d="M105.0,105.0 L105.0,5.0 A100,100,0,0,1,105.0,205.0 Z" fill="none" stroke="lightgray" stroke-width="2" />
<path d="M105.0,105.0 L105.0,205.0 A100,100,0,0,1,104.99999999999999,5.0 Z" fill="none" stroke="lightgray" stroke-width="2" />
<path d="M105.0,105.0 L105.0,5.0 A100,100,0,0,1,105.0,205.0 Z" fill="#F5C754" stroke="lightgray" stroke-width="2" />
<use xlink:href="#clip-4494331408-4429356880" />
<g clip-path="url(#clip-4494331408-4429356880)">
<circle cx="105.0" cy="105.0" r="92" stroke="#DAA05D" stroke-width="16" fill="none" />
<circle cx="105.0" cy="105.0" r="98" stroke="#C37B32" stroke-width="5" fill="none" />
<circle cx="87.04547843457357" cy="124.60320966819634" r="2.6255362999017122" fill="#FFFFFF" fill-opacity="0.5275261428316276" />
<circle cx="86.59915031604264" cy="92.91571393518547" r="2.8292251154222026" fill="#FFDE75" fill-opacity="0.3951332580680694" />
<circle cx="91.46430421090558" cy="167.5552223592677" r="4.104508823080021" fill="#FFFFFF" fill-opacity="0.5577983343297233" />
<circle cx="83.9642706781461" cy="127.9478849072137" r="2.8898731240214945" fill="#D2691E" fill-opacity="0.5792638813895841" />
<circle cx="108.79431662941285" cy="118.41067413789969" r="3.6219913151349448" fill="#8B4513" fill-opacity="0.51304231255745" />
<circle cx="105.92799755037446" cy="102.63784831541501" r="4.202376847729469" fill="#D2691E" fill-opacity="0.5667761052664491" />
<circle cx="96.5910531227957" cy="120.88420859206224" r="5.156573299551589" fill="#FFFFFF" fill-opacity="0.4344286068299751" />
<circle cx="149.5722521832111" cy="172.88321691795042" r="4.826694697689037" fill="#8B4513" fill-opacity="0.3160002817119727" />
<circle cx="50.73726573922036" cy="120.37854048322868" r="2.795384261105787" fill="#D2691E" fill-opacity="0.397835287430614" />
<circle cx="41.66513442067101" cy="137.17880570396522" r="4.066478190289645" fill="#D2691E" fill-opacity="0.4031533614993018" />
<circle cx="51.04506584525298" cy="169.77018362690183" r="5.786001250041201" fill="#8B4513" fill-opacity="0.3874248214621674" />
<circle cx="84.08484199603856" cy="151.2956069641645" r="2.849507357520933" fill="#8B4513" fill-opacity="0.5508371827302665" />
<circle cx="74.13258985481646" cy="130.84456991034477" r="4.256421683603795" fill="#8B4513" fill-opacity="0.3332730323868828" />
<circle cx="37.648242320706004" cy="97.20705617356155" r="3.325489095791358" fill="#8B4513" fill-opacity="0.284903424922304" />
<circle cx="65.71967191985777" cy="98.37087733725404" r="4.095144977939427" fill="#FFFFFF" fill-opacity="0.44177991434541547" />
<circle cx="120.3232276203523" cy="96.14741636328154" r="9.115833462452263" fill="#C92A2A" stroke="#800000" stroke-width="1" />
<circle cx="118.37984472706874" cy="94.20238156968254" r="1.3173237228450345" fill="#FFA07A" fill-opacity="0.7" />
<circle cx="121.58685827224961" cy="101.14809021595629" r="1.1308634145232657" fill="#FFA07A" fill-opacity="0.7" />
<circle cx="117.86409872400182" cy="96.81297674700734" r="0.9851481245362039" fill="#FFA07A" fill-opacity="0.7" />
<circle cx="125.91972417727594" cy="97.01236608475344" r="1.331326242064408" fill="#FFA07A" fill-opacity="0.7" />
<circle cx="125.01259247040421" cy="101.68172751651522" r="1.0122393810100467" fill="#FFA07A" fill-opacity="0.7" />
<circle cx="123.5160809405374" cy="95.52562238055094" r="1.1716354044933177" fill="#FFA07A" fill-opacity="0.7" />
<circle cx="121.79144297771167" cy="98.33612093404707" r="0.9194343862676768" fill="#FFA07A" fill-opacity="0.7" />
<circle cx="57.294718492327554" cy="84.68086971194279" r="9.09844372318782" fill="#C92A2A" stroke="#800000" stroke-width="1" />
<circle cx="57.85841847076851" cy="80.95812079816288" r="1.066975684522431" fill="#FFA07A" fill-opacity="0.7" />
<circle cx="54.808034038003726" cy="87.50711189077529" r="0.6247843721351286" fill="#FFA07A" fill-opacity="0.7" />
<circle cx="57.798169988865446" cy="85.05992202469997" r="0.7592070458135471" fill="#FFA07A" fill-opacity="0.7" />
<circle cx="62.9958413172796" cy="87.75095261415642" r="1.4115441982515704" fill="#FFA07A" fill-opacity="0.7" />
<circle cx="52.818604039135366" cy="82.05262675412065" r="1.305340138485755" fill="#FFA07A" fill-opacity="0.7" />
<circle cx="31.851838171769685" cy="109.78462344745296" r="9.23196476679962" fill="#C92A2A" stroke="#800000" stroke-width="1" />
<circle cx="33.047556120636735" cy="115.76470692389104" r="1.4201993434607412" fill="#FFA07A" fill-opacity="0.7" />
<circle cx="28.16851131174818" cy="109.9980261134643" r="0.5704967100992969" fill="#FFA07A" fill-opacity="0.7" />
<circle cx="30.493094379749927" cy="114.08893111446844" r="1.1946959243191295" fill="#FFA07A" fill-opacity="0.7" />
<circle cx="168.0239605734398" cy="102.60431109547335" r="9.273063892215971" fill="#C92A2A" stroke="#800000" stroke-width="1" />
<circle cx="163.27761287704533" cy="98.32459345472763" r="0.5876907353350581" fill="#FFA07A" fill-opacity="0.7" />
<circle cx="167.1846815761925" cy="107.20645387467319" r="1.192990294563323" fill="#FFA07A" fill-opacity="0.7" />
<circle cx="164.6278003800733" cy="100.28237192642867" r="0.7841141633228573" fill="#FFA07A" fill-opacity="0.7" />
<circle cx="170.80276307049112" cy="106.77981350086596" r="1.1623150050220357" fill="#FFA07A" fill-opacity="0.7" />
<circle cx="172.3648435290246" cy="104.70128382167877" r="1.0624263783441692" fill="#FFA07A" fill-opacity="0.7" />
<circle cx="168.57162455854927" cy="105.16811554230976" r="1.1168582268656202" fill="#FFA07A" fill-opacity="0.7" />
</g>
<rect x="230.0" y="41.0" width="54.0" height="54.0" fill="none" stroke="black" stroke-width="2" />
<rect x="230.0" y="115.0" width="54.0" height="54.0" fill="none" stroke="black" stroke-width="2" />
<path d="M225.0,105.0 L289.0,105.0" stroke="black" stroke-width="2" />
</g>
</svg>