<svg width="509.0" height="210.0" xmlns="http://www.w3.org/2000/svg" xmlns:xlink="http://www.w3.org/1999/xlink">
<svg x="0.0" y="0.0" width="210.0" height="210.0" viewBox="0 0 210 210" xmlns="http://www.w3.org/2000/svg" xmlns:xlink="http://www.w3.org/1999/xlink">
<defs>
<clipPath id="clip-4535714688-4472136144">
<circle cx="105.0" cy="105.0" r="100" fill="none" />
</clipPath>
</defs>
<g>
<circle cx="105.0" cy="105.0" r="100" fill="#F5C754" />
<use xlink:href="#clip-4535714688-4472136144" />
<g clip-path="url(#clip-4535714688-4472136144)">
<circle cx="105.0" cy="105.0" r="92" stroke="#DAA05D" stroke-width="16" fill="none" />
<circle cx="105.0" cy="105.0" r="98" stroke="#C37B32" stroke-width="5" fill="none" />
<circle cx="30.817107791984284" cy="109.20715237341868" r="4.727469256100733" fill="#FFFFFF" fill-opacity="0.457287539424534" />
<circle cx="87.05291982767724" cy="70.36872651944219" r="2.597979736219222" fill="#FFDE75" fill-opacity="0.37511636217462796" />
<circle cx="160.03481234399675" cy="66.09370168173322" r="2.532497389475224" fill="#FFDE75" fill-opacity="0.32836737665203125" />
<circle cx="169.19490885888425" cy="92.85775254021445" r="3.6734577838157465" fill="#FFDE75" fill-opacity="0.25106782529517424" />
<circle cx="47.44143305983004" cy="114.26243381586505" r="5.576113151927377" fill="#D2691E" fill-opacity="0.3306038970763564" />
<circle cx="100.27651498262595" cy="164.2957337363715" r="2.0042420390514786" fill="#FFFFFF" fill-opacity="0.5714325398621736" />
<circle cx="151.2424674794948" cy="168.55758112192083" r="4.530829840613622" fill="#FFFFFF" fill-opacity="0.35835249269537306" />
<circle cx="129.12751119600486" cy="139.96651132479366" r="5.097389016717269" fill="#FFFFFF" fill-opacity="0.49327375031708803" />
<circle cx="69.21076443975036" cy="171.49163688269385" r="2.162440995785981" fill="#FFDE75" fill-opacity="0.39243285970748787" />
<circle cx="165.60705078132654" cy="119.53140984681723" r="2.120231002140085" fill="#8B4513" fill-opacity="0.26865479757942345" />
<circle cx="136.62217121658253" cy="55.00310528668127" r="5.110144034863232" fill="#FFDE75" fill-opacity="0.46728665451196605" />
<circle cx="81.88957127967672" cy="95.88816244927986" r="5.375302945312676" fill="#FFFFFF" fill-opacity="0.39680044524294056" />
<circle cx="51.48261300491268" cy="170.61212984456597" r="2.695901788485132" fill="#D2691E" fill-opacity="0.42833382282418875" />
<circle cx="67.12733211937146" cy="125.46315732758154" r="5.3424997045519795" fill="#FFDE75" fill-opacity="0.5677371859182756" />
<circle cx="88.917995726052" cy="52.396097422390106" r="3.236745273568939" fill="#8B4513" fill-opacity="0.3252381234523545" />
<circle cx="162.38785149945338" cy="152.0094892938299" r="5.282865487575341" fill="#FFDE75" fill-opacity="0.3944084270673764" />
<circle cx="56.10097730420424" cy="58.96960253392636" r="4.757265080046496" fill="#D2691E" fill-opacity="0.37176912735352907" />
<circle cx="157.0504596682583" cy="58.67634014295964" r="4.223709569604576" fill="#8B4513" fill-opacity="0.2758242452119769" />
<circle cx="138.5448609044745" cy="127.54775460582056" r="3.536136268802275" fill="#FFFFFF" fill-opacity="0.484277138671843" />
<circle cx="70.0739086545893" cy="136.96265316444197" r="3.181109295972556" fill="#8B4513" fill-opacity="0.4143857521724753" />
<circle cx="76.6319921503567" cy="44.46507821410821" r="5.784888082204839" fill="#FFFFFF" fill-opacity="0.3201384672950922" />
<circle cx="128.95771119794216" cy="52.27992655763445" r="4.783583208422136" fill="#FFFFFF" fill-opacity="0.2532880723065183" />
<circle cx="152.10431275511235" cy="86.31332818845878" r="4.651460366543839" fill="#D2691E" fill-opacity="0.5610562530029259" />
<circle cx="170.83753900052682" cy="140.40621018775164" r="3.5470142258665005" fill="#D2691E" fill-opacity="0.2083761148851623" />
<circle cx="37.49614671125808" cy="77.98222683032088" r="4.136898900793396" fill="#8B4513" fill-opacity="0.5710366151442137" />
<circle cx="124.64664651887023" cy="171.6542665923264" r="4.241323983403948" fill="#8B4513" fill-opacity="0.5227736165400947" />
<circle cx="93.09162837885215" cy="88.8190182836475" r="2.7693477563162374" fill="#FFDE75" fill-opacity="0.5243100554976471" />
<circle cx="86.86326363232399" cy="80.64209387023035" r="5.526759129050596" fill="#8B4513" fill-opacity="0.5289003801502412" />
<circle cx="146.90619886989612" cy="132.51108894799148" r="5.985363615314014" fill="#8B4513" fill-opacity="0.5181720465222583" />
<circle cx="161.31747977142797" cy="96.22470963972094" r="4.00693963671886" fill="#D2691E" fill-opacity="0.2540141621712732" />
<circle cx="121.95055571504929" cy="59.158218492796095" r="3.9012410160244197" fill="#8B4513" fill-opacity="0.27061167611743875" />
<circle cx="140.90699723129902" cy="179.3773287231421" r="5.199234446034419" fill="#FFDE75" fill-opacity="0.27580981660834253" />
<circle cx="117.20847339373694" cy="21.333359270079768" r="4.216317590756841" fill="#FFDE75" fill-opacity="0.4458131300922975" />
<circle cx="74.38231036699922" cy="99.49248098473579" r="5.938571893395006" fill="#FFFFFF" fill-opacity="0.42362985116685503" />
<circle cx="135.59684175364842" cy="162.59881734176884" r="3.892561690558672" fill="#D2691E" fill-opacity="0.40716684443528955" />
<circle cx="122.10888080502308" cy="27.3576705974627" r="5.865084079375419" fill="#FFFFFF" fill-opacity="0.2421777139796042" />
<circle cx="114.94976993313543" cy="130.65316598684416" r="3.653321805744303" fill="#D2691E" fill-opacity="0.5904768446527842" />
<circle cx="89.3088653063871" cy="113.79634670921169" r="2.811676589643022" fill="#FFFFFF" fill-opacity="0.5012598308660761" />
<circle cx="116.41379609271794" cy="46.05972664617238" r="4.711927316850192" fill="#D2691E" fill-opacity="0.4829788745132033" />
<circle cx="125.08271214634397" cy="52.152270062608125" r="5.4242187624359035" fill="#FFFFFF" fill-opacity="0.20592050795750594" />
<circle cx="25.14454726296023" cy="131.31136340868966" r="5.243515182461653" fill="#8B4513" fill-opacity="0.3457914704174009" />
<circle cx="181.29655267907503" cy="122.52955366664271" r="3.6972782027496973" fill="#8B4513" fill-opacity="0.4530661520905062" />
<circle cx="69.43475799808579" cy="62.268364985554896" r="4.591676015830421" fill="#FFFFFF" fill-opacity="0.5435756803795506" />
<circle cx="47.43288578721585" cy="48.69029795541566" r="3.3312816740128253" fill="#FFFFFF" fill-opacity="0.35571254947763176" />
<circle cx="45.75453973617737" cy="160.05242459871317" r="2.289184698572803" fill="#FFFFFF" fill-opacity="0.4254107157676356" />
<circle cx="138.08595748061148" cy="160.38388601114144" r="2.0218383934955204" fill="#8B4513" fill-opacity="0.3314042619231225" />
<circle cx="63.193825918847416" cy="164.79136389164313" r="3.998282321486012" fill="#8B4513" fill-opacity="0.42769484593688123" />
<circle cx="136.4234348732563" cy="178.56176936713842" r="4.298674260959759" fill="#FFFFFF" fill-opacity="0.4119375313039521" />
<circle cx="102.40544698219222" cy="102.06776893835467" r="5.019832413072159" fill="#D2691E" fill-opacity="0.49291860800387965" />
<circle cx="151.08732655475512" cy="44.52231284363829" r="3.617732446753556" fill="#8B4513" fill-opacity="0.4631763994693457" />
<circle cx="106.35578819067051" cy="177.2772665516619" r="4.496609760803109" fill="#8B4513" fill-opacity="0.2001705099287693" />
<circle cx="171.36641924710239" cy="60.4544475501485" r="5.340604328112225" fill="#D2691E" fill-opacity="0.550860616685845" />
<circle cx="180.93593606355546" cy="92.65020608755421" r="4.78432870765724" fill="#FFFFFF" fill-opacity="0.470628442660392" />
<circle cx="153.73621304296657" cy="123.95807836978585" r="2.7812683237805986" fill="#FFDE75" fill-opacity="0.415641765665411" />
<circle cx="146.7902740012097" cy="126.59862417411173" r="2.1554981902706105" fill="#FFDE75" fill-opacity="0.5738706390295607" />
<circle cx="125.6299956623802" cy="39.043268122663505" r="4.701940422365795" fill="#8B4513" fill-opacity="0.365598102835225" />
<circle cx="79.88049256258797" cy="138.0646559991758" r="3.4628776894487143" fill="#FFFFFF" fill-opacity="0.2471438491511218" />
<circle cx="80.49486456731717" cy="43.65367309868042" r="4.90778596152124" fill="#FFDE75" fill-opacity="0.4642454927924699" />
<circle cx="93.50142396826504" cy="125.3941513526754" r="2.238449467033877" fill="#FFFFFF" fill-opacity="0.28374361704587175" />
<circle cx="75.12938162526046" cy="65.34587109372185" r="4.859673648769633" fill="#8B4513" fill-opacity="0.5274622212432863" />
<circle cx="96.68141725601095" cy="75.39927064034376" r="2.364261700195795" fill="#FFFFFF" fill-opacity="0.22944301423195057" />
<circle cx="85.69054441285098" cy="160.55555666106562" r="3.3261824671833784" fill="#8B4513" fill-opacity="0.5534030219475021" />
<circle cx="170.34249610520237" cy="88.50104687904341" r="4.50187989786987" fill="#D2691E" fill-opacity="0.4718951325127739" />
<circle cx="52.09668507082105" cy="94.19133989504189" r="4.269270217402399" fill="#FFDE75" fill-opacity="0.3355525671552588" />
<circle cx="69.27550620325042" cy="90.12280218116668" r="2.2507917781364863" fill="#FFDE75" fill-opacity="0.29329285376720743" />
<circle cx="40.270769631657615" cy="128.79310092830912" r="4.302332127285614" fill="#FFDE75" fill-opacity="0.28127732605112393" />
<circle cx="88.55253387796485" cy="37.24379704597932" r="4.675770605719783" fill="#D2691E" fill-opacity="0.5674735119547412" />
<circle cx="40.932735832691165" cy="136.00315816183237" r="4.034208495563361" fill="#FFDE75" fill-opacity="0.21390942357253878" />
<circle cx="152.6765899460257" cy="78.2566597824819" r="4.217861695551962" fill="#FFFFFF" fill-opacity="0.5340731637796752" />
<circle cx="154.2621225995374" cy="101.60306884536547" r="4.557027298943467" fill="#FFFFFF" fill-opacity="0.4252845813696625" />
<circle cx="179.24629826114767" cy="96.75710414004318" r="5.220331118878438" fill="#8B4513" fill-opacity="0.345266864540572" />
<circle cx="152.1613716145861" cy="83.40724701872361" r="5.815801597574452" fill="#D2691E" fill-opacity="0.26170679050113965" />
<circle cx="20.82116416533991" cy="96.96102451483806" r="2.6015184934247118" fill="#8B4513" fill-opacity="0.4203665696020966" />
<circle cx="138.35315539023213" cy="73.18951570082615" r="3.1068931572737446" fill="#FFDE75" fill-opacity="0.3332745252742089" />
<circle cx="105.14987680902176" cy="74.9615588735758" r="5.1500107802224795" fill="#FFDE75" fill-opacity="0.4943280066224397" />
<ellipse cx="116.14964819670588" cy="108.72798850159676" rx="8.533013219447614" ry="4.009334109732406" fill="#FFFDF0" fill-opacity="0.6" />
<ellipse cx="117.08816298275228" cy="107.75872304981215" rx="2.707176947211375" ry="2.525622601778176" fill="#FFFFFF" fill-opacity="0.85" />
<ellipse cx="66.90636293062173" cy="107.81796391830878" rx="7.447143843974391" ry="6.415000656620904" fill="#FFFDF0" fill-opacity="0.6" />
<ellipse cx="67.6140749074347" cy="107.93026503075261" rx="2.2094267082231855" ry="2.922784840068667" fill="#FFFFFF" fill-opacity="0.85" />
<ellipse cx="95.70719757953538" cy="24.163130518108858" rx="8.274956246366353" ry="7.900901509315942" fill="#FFFDF0" fill-opacity="0.6" />
<ellipse cx="95.10833218836743" cy="23.63905415761462" rx="3.740070825372989" ry="3.646520051864405" fill="#FFFFFF" fill-opacity="0.85" />
<ellipse cx="148.0714697178698" cy="144.59567658997517" rx="6.530719609272888" ry="4.818130253503852" fill="#FFFDF0" fill-opacity="0.6" />
<ellipse cx="148.6320711418303" cy="144.9687178799479" rx="4.513235308115412" ry="3.399623401821029" fill="#FFFFFF" fill-opacity="0.85" />
<ellipse cx="158.70001622139486" cy="135.92431846098236" rx="8.302105582983629" ry="5.279581965316976" fill="#FFFDF0" fill-opacity="0.6" />
<ellipse cx="159.22872267194705" cy="135.68644862805056" rx="4.6942157651278125" ry="2.647922622870841" fill="#FFFFFF" fill-opacity="0.85" />
<ellipse cx="170.39195072358396" cy="78.67545146133844" rx="7.459243551799498" ry="6.054553261076022" fill="#FFFDF0" fill-opacity="0.6" />
<ellipse cx="170.33366268612912" cy="78.29526469053454" rx="4.093950239963734" ry="2.651665037415411" fill="#FFFFFF" fill-opacity="0.85" />
<ellipse cx="139.4711907054691" cy="44.38532809567667" rx="5.196396753720244" ry="5.797486927706216" fill="#FFFDF0" fill-opacity="0.6" />
<ellipse cx="138.51925923596906" cy="44.78592101671047" rx="4.860895414113265" ry="3.859961234252051" fill="#FFFFFF" fill-opacity="0.85" />
<ellipse cx="106.29547644899479" cy="128.22431905410664" rx="7.542134602207577" ry="8.456007141974741" fill="#FFFDF0" fill-opacity="0.6" />
<ellipse cx="105.99796780327016" cy="127.90820250683527" rx="4.512652757689446" ry="2.566620059855169" fill="#FFFFFF" fill-opacity="0.85" />
<ellipse cx="174.49128539989823" cy="143.40119934249867" rx="8.448538035609431" ry="7.0782052439840815" fill="#FFFDF0" fill-opacity="0.6" />
<ellipse cx="175.29692192067915" cy="142.40336953765907" rx="2.588713551979933" ry="2.4896515480561456" fill="#FFFFFF" fill-opacity="0.85" />
<ellipse cx="100.57885967244412" cy="89.57237787750161" rx="6.774536129475688" ry="5.265071884163353" fill="#FFFDF0" fill-opacity="0.6" />
<ellipse cx="99.82025154444452" cy="89.00812902206492" rx="4.389543374308916" ry="3.9699996628813254" fill="#FFFFFF" fill-opacity="0.85" />
<ellipse cx="99.14580864117895" cy="170.48172575506317" rx="5.672906463374458" ry="6.561105933493571" fill="#FFFDF0" fill-opacity="0.6" />
<ellipse cx="98.36288741110272" cy="171.38154701087885" rx="4.862374573899099" ry="2.347179707250552" fill="#FFFFFF" fill-opacity="0.85" />
<ellipse cx="119.79181225130576" cy="146.96674115375185" rx="6.57630743338957" ry="6.734918934968895" fill="#FFFDF0" fill-opacity="0.6" />
<ellipse cx="119.48879540517419" cy="147.16612323495946" rx="3.2142955190856615" ry="2.9838535692193697" fill="#FFFFFF" fill-opacity="0.85" />
<ellipse cx="159.20276255056348" cy="156.08938602133824" rx="7.3593936094112316" ry="8.65340181709827" fill="#FFFDF0" fill-opacity="0.6" />
<ellipse cx="159.62758283169077" cy="155.37280911668685" rx="2.3936268015773443" ry="3.2091944925292744" fill="#FFFFFF" fill-opacity="0.85" />
<ellipse cx="91.089227847324" cy="179.72051090829234" rx="8.721975101097307" ry="6.515338549474184" fill="#FFFDF0" fill-opacity="0.6" />
<ellipse cx="90.60737577607999" cy="179.161113163718" rx="2.536375674897076" ry="3.894349961838502" fill="#FFFFFF" fill-opacity="0.85" />
<ellipse cx="97.72704888673734" cy="144.87976010198577" rx="9.803020804554844" ry="6.728490952991232" fill="#FFFDF0" fill-opacity="0.6" />
<ellipse cx="97.07978650928146" cy="145.05491317911353" rx="4.9943109872731775" ry="2.2828894511915667" fill="#FFFFFF" fill-opacity="0.85" />
</g>
<path d="M105.0,105.0 L105.0,5.0" stroke="lightgray" stroke-width="2" />
<path d="M105.0,105.0 L200.10565162951536,74.09830056250526" stroke="lightgray" stroke-width="2" />
<path d="M105.0,105.0 L163.77852522924732,185.90169943749476" stroke="lightgray" stroke-width="2" />
<path d="M105.0,105.0 L46.2214747707527,185.90169943749476" stroke="lightgray" stroke-width="2" />
<path d="M105.0,105.0 L9.894348370484636,74.09830056250527" stroke="lightgray" stroke-width="2" />
<circle cx="105.0" cy="105.0" r="100" fill="none" stroke="lightgray" stroke-width="2" />
</g>
</svg>
<svg x="225.0" y="0.0" width="284.0" height="210.0" viewBox="0 0 284.0 210" xmlns="http://www.w3.org/2000/svg" xmlns:xlink="http://www.w3.org/1999/xlink">
<defs>
<clipPath id="clip-4469928528-4535510736">
<path d="M105.0,105.0 L105.0,5.0 A100,100,0,0,1,200.10565162951536,74.09830056250526 Z" fill="none" />
</clipPath>
<clipPath id="clip-4469928528-4535514192">
<path d="M105.0,105.0 L200.10565162951536,74.09830056250526 A100,100,0,0,1,163.77852522924732,185.90169943749476 Z" fill="none" />
</clipPath>
</defs>
<g>
<path d="M105.0,105.0 L105.0,5.0 A100,100,0,0,1,200.10565162951536,74.09830056250526 Z" fill="none" stroke="lightgray" stroke-width="2" />
<path d="M105.0,105.0 L200.10565162951536,74.09830056250526 A100,100,0,0,1,163.77852522924732,185.90169943749476 Z" fill="none" stroke="lightgray" stroke-width="2" />
<path d="M105.0,105.0 L163.77852522924732,185.90169943749476 A100,100,0,0,1,46.2214747707527,185.90169943749476 Z" fill="none" stroke="lightgray" stroke-width="2" />
<path d="M105.0,105.0 L46.2214747707527,185.90169943749476 A100,100,0,0,1,9.894348370484636,74.09830056250527 Z" fill="none" stroke="lightgray" stroke-width="2" />
<path d="M105.0,105.0 L9.894348370484636,74.09830056250527 A100,100,0,0,1,104.99999999999999,5.0 Z" fill="none" stroke="lightgray" stroke-width="2" />
<path d="M105.0,105.0 L105.0,5.0 A100,100,0,0,1,200.10565162951536,74.09830056250526 Z" fill="#F5C754" stroke="lightgray" stroke-width="2" />
<use xlink:href="#clip-4469928528-4535510736" />
<g clip-path="url(#clip-4469928528-4535510736)">
<circle cx="105.0" cy="105.0" r="92" stroke="#DAA05D" stroke-width="16" fill="none" />
<circle cx="105.0" cy="105.0" r="98" stroke="#C37B32" stroke-width="5" fill="none" />
<circle cx="105.8747248863518" cy="67.71258880787317" r="5.342935807961545" fill="#D2691E" fill-opacity="0.29700150443700984" />
<circle cx="72.62905212562202" cy="80.01452266860534" r="5.221100488420845" fill="#D2691E" fill-opacity="0.33964318735426124" />
<circle cx="104.98009180491576" cy="137.13848804738734" r="5.891883481255324" fill="#D2691E" fill-opacity="0.2001826934021732" />
<circle cx="88.65895300708125" cy="47.813213784450014" r="2.686969003474998" fill="#D2691E" fill-opacity="0.42001310251069957" />
<circle cx="141.33831886878488" cy="40.05876878486335" r="5.693972405769113" fill="#8B4513" fill-opacity="0.30283484843290653" />
<circle cx="139.91004196029508" cy="50.16305349795287" r="2.129110094895111" fill="#FFFFFF" fill-opacity="0.5368229574269936" />
<circle cx="106.2198636304199" cy="120.84308349845476" r="5.514089576688572" fill="#FFFFFF" fill-opacity="0.4153803802031564" />
<circle cx="183.2638060455535" cy="77.88456950057821" r="3.3458079853371805" fill="#FFDE75" fill-opacity="0.5615349671597578" />
<circle cx="93.47020037282194" cy="127.37189826280373" r="5.638673251206223" fill="#FFFFFF" fill-opacity="0.4239701241845199" />
<circle cx="119.87357756514038" cy="160.84119041100328" r="2.7710270953370677" fill="#D2691E" fill-opacity="0.4090513405978172" />
<circle cx="123.68181855584596" cy="165.33804594202795" r="2.071195126931847" fill="#8B4513" fill-opacity="0.519426353016937" />
<circle cx="57.351578764947405" cy="169.46379681816128" r="3.9126277189431438" fill="#FFDE75" fill-opacity="0.33107800087921235" />
<circle cx="45.27371908905603" cy="71.73043078194095" r="2.048923758132349" fill="#8B4513" fill-opacity="0.3725052915676712" />
<circle cx="129.83468745690334" cy="120.16085260496463" r="4.802859808886385" fill="#D2691E" fill-opacity="0.5973820408978432" />
<circle cx="50.27258811013019" cy="105.5104644018956" r="3.6509894508495573" fill="#D2691E" fill-opacity="0.5095709425496248" />
<circle cx="117.38021638581625" cy="184.7787686227677" r="3.8400292593967613" fill="#D2691E" fill-opacity="0.5707256217185024" />
<circle cx="122.80497843338387" cy="159.0032467429036" r="3.7261106908444326" fill="#D2691E" fill-opacity="0.5936429223657584" />
<circle cx="73.15167842323024" cy="29.43885540485141" r="2.5356075323177323" fill="#FFFFFF" fill-opacity="0.2957338890469941" />
<circle cx="179.63813449624078" cy="131.0246840362442" r="4.7184480261497725" fill="#FFFFFF" fill-opacity="0.21179149016848886" />
<circle cx="129.70149488716925" cy="174.2431813028111" r="5.7577040030642355" fill="#D2691E" fill-opacity="0.3040838137769674" />
<circle cx="37.793425741216495" cy="117.51077956223384" r="3.614767723747223" fill="#8B4513" fill-opacity="0.462653873473376" />
<circle cx="39.163251089484945" cy="56.110082961692605" r="2.8520548954484877" fill="#FFFFFF" fill-opacity="0.4053370559560352" />
<circle cx="164.877977125633" cy="69.55049979440048" r="5.498708150376117" fill="#FFFFFF" fill-opacity="0.313734156265948" />
<circle cx="120.41812242150235" cy="165.51092588400957" r="3.836375162613855" fill="#FFFFFF" fill-opacity="0.35383731004024416" />
<circle cx="80.5429632536033" cy="97.53426758145636" r="2.966818356516696" fill="#FFDE75" fill-opacity="0.24483624071667218" />
<circle cx="91.65492405348134" cy="184.60501964969262" r="5.804385869472995" fill="#D2691E" fill-opacity="0.4556364766486557" />
<circle cx="38.58467675859761" cy="146.0956691127721" r="4.648253920356256" fill="#D2691E" fill-opacity="0.3230079197428145" />
<circle cx="163.26091474155626" cy="73.38811189376608" r="4.95357364771193" fill="#FFDE75" fill-opacity="0.31797203861512036" />
<circle cx="92.7794250124115" cy="127.69595608676947" r="4.701297400727138" fill="#8B4513" fill-opacity="0.4966485492529434" />
<circle cx="71.47412073871412" cy="117.65632915868584" r="4.347631367199494" fill="#FFDE75" fill-opacity="0.5329388819314507" />
<ellipse cx="53.706999458703805" cy="93.6868308736716" rx="9.538206253226871" ry="4.1726639884784635" fill="#FFFDF0" fill-opacity="0.6" />
<ellipse cx="54.67555157803333" cy="92.74786675499327" rx="2.7949531586053844" ry="3.678052354073655" fill="#FFFFFF" fill-opacity="0.85" />
<ellipse cx="59.64700988680305" cy="116.69190032896265" rx="8.215699007333832" ry="4.360508095627559" fill="#FFFDF0" fill-opacity="0.6" />
<ellipse cx="59.74161700203968" cy="116.07937658621078" rx="3.053084888775399" ry="3.3839429488635098" fill="#FFFFFF" fill-opacity="0.85" />
<ellipse cx="62.14052873638675" cy="73.14980526460829" rx="7.911070155264435" ry="8.596467779783826" fill="#FFFDF0" fill-opacity="0.6" />
<ellipse cx="62.45141989089945" cy="73.22454741077614" rx="3.384907482673378" ry="3.9419360854471046" fill="#FFFFFF" fill-opacity="0.85" />
<ellipse cx="60.54584947413672" cy="55.56817506759258" rx="9.934822641336964" ry="7.160157293495942" fill="#FFFDF0" fill-opacity="0.6" />
<ellipse cx="59.604987955342246" cy="55.62853637319338" rx="2.9440766911900265" ry="2.7642223031921187" fill="#FFFFFF" fill-opacity="0.85" />
<ellipse cx="64.32605392739931" cy="116.83991499312528" rx="8.77869437764774" ry="5.9057590552180335" fill="#FFFDF0" fill-opacity="0.6" />
<ellipse cx="63.63835296850079" cy="117.75029728823755" rx="4.599445903582763" ry="3.730049733441028" fill="#FFFFFF" fill-opacity="0.85" />
<ellipse cx="98.41986915632506" cy="54.81132263761867" rx="9.172828216108538" ry="7.512641242745127" fill="#FFFDF0" fill-opacity="0.6" />
<ellipse cx="97.95148212390758" cy="55.43512590632935" rx="3.0701922208028933" ry="2.179805829345278" fill="#FFFFFF" fill-opacity="0.85" />
</g>
<path d="M105.0,105.0 L200.10565162951536,74.09830056250526 A100,100,0,0,1,163.77852522924732,185.90169943749476 Z" fill="#F5C754" stroke="lightgray" stroke-width="2" />
<use xlink:href="#clip-4469928528-4535514192" />
<g clip-path="url(#clip-4469928528-4535514192)">
<circle cx="105.0" cy="105.0" r="92" stroke="#DAA05D" stroke-width="16" fill="none" />
<circle cx="105.0" cy="105.0" r="98" stroke="#C37B32" stroke-width="5" fill="none" />
<circle cx="105.8747248863518" cy="67.71258880787317" r="5.342935807961545" fill="#D2691E" fill-opacity="0.29700150443700984" />
<circle cx="72.62905212562202" cy="80.01452266860534" r="5.221100488420845" fill="#D2691E" fill-opacity="0.33964318735426124" />
<circle cx="104.98009180491576" cy="137.13848804738734" r="5.891883481255324" fill="#D2691E" fill-opacity="0.2001826934021732" />
<circle cx="88.65895300708125" cy="47.813213784450014" r="2.686969003474998" fill="#D2691E" fill-opacity="0.42001310251069957" />
<circle cx="141.33831886878488" cy="40.05876878486335" r="5.693972405769113" fill="#8B4513" fill-opacity="0.30283484843290653" />
<circle cx="139.91004196029508" cy="50.16305349795287" r="2.129110094895111" fill="#FFFFFF" fill-opacity="0.5368229574269936" />
<circle cx="106.2198636304199" cy="120.84308349845476" r="5.514089576688572" fill="#FFFFFF" fill-opacity="0.4153803802031564" />
<circle cx="183.2638060455535" cy="77.88456950057821" r="3.3458079853371805" fill="#FFDE75" fill-opacity="0.5615349671597578" />
<circle cx="93.47020037282194" cy="127.37189826280373" r="5.638673251206223" fill="#FFFFFF" fill-opacity="0.4239701241845199" />
<circle cx="119.87357756514038" cy="160.84119041100328" r="2.7710270953370677" fill="#D2691E" fill-opacity="0.4090513405978172" />
<circle cx="123.68181855584596" cy="165.33804594202795" r="2.071195126931847" fill="#8B4513" fill-opacity="0.519426353016937" />
<circle cx="57.351578764947405" cy="169.46379681816128" r="3.9126277189431438" fill="#FFDE75" fill-opacity="0.33107800087921235" />
<circle cx="45.27371908905603" cy="71.73043078194095" r="2.048923758132349" fill="#8B4513" fill-opacity="0.3725052915676712" />
<circle cx="129.83468745690334" cy="120.16085260496463" r="4.802859808886385" fill="#D2691E" fill-opacity="0.5973820408978432" />
<circle cx="50.27258811013019" cy="105.5104644018956" r="3.6509894508495573" fill="#D2691E" fill-opacity="0.5095709425496248" />
<circle cx="117.38021638581625" cy="184.7787686227677" r="3.8400292593967613" fill="#D2691E" fill-opacity="0.5707256217185024" />
<circle cx="122.80497843338387" cy="159.0032467429036" r="3.7261106908444326" fill="#D2691E" fill-opacity="0.5936429223657584" />
<circle cx="73.15167842323024" cy="29.43885540485141" r="2.5356075323177323" fill="#FFFFFF" fill-opacity="0.2957338890469941" />
<circle cx="179.63813449624078" cy="131.0246840362442" r="4.7184480261497725" fill="#FFFFFF" fill-opacity="0.21179149016848886" />
<circle cx="129.70149488716925" cy="174.2431813028111" r="5.7577040030642355" fill="#D2691E" fill-opacity="0.3040838137769674" />
<circle cx="37.793425741216495" cy="117.51077956223384" r="3.614767723747223" fill="#8B4513" fill-opacity="0.462653873473376" />
<circle cx="39.163251089484945" cy="56.110082961692605" r="2.8520548954484877" fill="#FFFFFF" fill-opacity="0.4053370559560352" />
<circle cx="164.877977125633" cy="69.55049979440048" r="5.498708150376117" fill="#FFFFFF" fill-opacity="0.313734156265948" />
<circle cx="120.41812242150235" cy="165.51092588400957" r="3.836375162613855" fill="#FFFFFF" fill-opacity="0.35383731004024416" />
<circle cx="80.5429632536033" cy="97.53426758145636" r="2.966818356516696" fill="#FFDE75" fill-opacity="0.24483624071667218" />
<circle cx="91.65492405348134" cy="184.60501964969262" r="5.804385869472995" fill="#D2691E" fill-opacity="0.4556364766486557" />
<circle cx="38.58467675859761" cy="146.0956691127721" r="4.648253920356256" fill="#D2691E" fill-opacity="0.3230079197428145" />
<circle cx="163.26091474155626" cy="73.38811189376608" r="4.95357364771193" fill="#FFDE75" fill-opacity="0.31797203861512036" />
<circle cx="92.7794250124115" cy="127.69595608676947" r="4.701297400727138" fill="#8B4513" fill-opacity="0.4966485492529434" />
<circle cx="71.47412073871412" cy="117.65632915868584" r="4.347631367199494" fill="#FFDE75" fill-opacity="0.5329388819314507" />
<ellipse cx="53.706999458703805" cy="93.6868308736716" rx="9.538206253226871" ry="4.1726639884784635" fill="#FFFDF0" fill-opacity="0.6" />
<ellipse cx="54.67555157803333" cy="92.74786675499327" rx="2.7949531586053844" ry="3.678052354073655" fill="#FFFFFF" fill-opacity="0.85" />
<ellipse cx="59.64700988680305" cy="116.69190032896265" rx="8.215699007333832" ry="4.360508095627559" fill="#FFFDF0" fill-opacity="0.6" />
<ellipse cx="59.74161700203968" cy="116.07937658621078" rx="3.053084888775399" ry="3.3839429488635098" fill="#FFFFFF" fill-opacity="0.85" />
<ellipse cx="62.14052873638675" cy="73.14980526460829" rx="7.911070155264435" ry="8.596467779783826" fill="#FFFDF0" fill-opacity="0.6" />
<ellipse cx="62.45141989089945" cy="73.22454741077614" rx="3.384907482673378" ry="3.9419360854471046" fill="#FFFFFF" fill-opacity="0.85" />
<ellipse cx="60.54584947413672" cy="55.56817506759258" rx="9.934822641336964" ry="7.160157293495942" fill="#FFFDF0" fill-opacity="0.6" />
<ellipse cx="59.604987955342246" cy="55.62853637319338" rx="2.9440766911900265" ry="2.7642223031921187" fill="#FFFFFF" fill-opacity="0.85" />
<ellipse cx="64.32605392739931" cy="116.83991499312528" rx="8.77869437764774" ry="5.9057590552180335" fill="#FFFDF0" fill-opacity="0.6" />
<ellipse cx="63.63835296850079" cy="117.75029728823755" rx="4.599445903582763" ry="3.730049733441028" fill="#FFFFFF" fill-opacity="0.85" />
<ellipse cx="98.41986915632506" cy="54.81132263761867" rx="9.172828216108538" ry="7.512641242745127" fill="#FFFDF0" fill-opacity="0.6" />
<ellipse cx="97.95148212390758" cy="55.43512590632935" rx="3.0701922208028933" ry="2.179805829345278" fill="#FFFFFF" fill-opacity="0.85" />
</g>
<rect x="230.0" y="41.0" width="54.0" height="54.0" fill="none" stroke="black" stroke-width="2" />
<rect x="230.0" y="115.0" width="54.0" height="54.0" fill="none" stroke="black" stroke-width="2" />
<path d="M225.0,105.0 L289.0,105.0" stroke="black" stroke-width="2" />
</g>
</svg>
</svg>