<svg width="509.0" height="210.0" xmlns="http://www.w3.org/2000/svg" xmlns:xlink="http://www.w3.org/1999/xlink">
<svg x="0.0" y="0.0" width="210.0" height="210.0" viewBox="0 0 210 210" xmlns="http://www.w3.org/2000/svg" xmlns:xlink="http://www.w3.org/1999/xlink">
<defs>
<clipPath id="clip-4524437392-4472137168">
<circle cx="105.0" cy="105.0" r="100" fill="none" />
</clipPath>
</defs>
<g>
<circle cx="105.0" cy="105.0" r="100" fill="#F5C754" />
<use xlink:href="#clip-4524437392-4472137168" />
<g clip-path="url(#clip-4524437392-4472137168)">
<circle cx="105.0" cy="105.0" r="92" stroke="#DAA05D" stroke-width="16" fill="none" />
<circle cx="105.0" cy="105.0" r="98" stroke="#C37B32" stroke-width="5" fill="none" />
<circle cx="154.79281416626816" cy="40.429845201883225" r="3.725956860224884" fill="#8B4513" fill-opacity="0.4206520637020623" />
<circle cx="103.49443214229794" cy="120.56747062414686" r="2.7312479235263507" fill="#8B4513" fill-opacity="0.5691644433546554" />
<circle cx="163.20624149504795" cy="61.28139472512751" r="4.6378831248084715" fill="#FFDE75" fill-opacity="0.23220696678210018" />
<circle cx="74.7186067103783" cy="172.7572031350853" r="3.3712086952566653" fill="#D2691E" fill-opacity="0.26458170057254643" />
<circle cx="189.29292200810428" cy="100.79692100322362" r="4.828786652594012" fill="#D2691E" fill-opacity="0.47406231636020385" />
<circle cx="40.74710286152093" cy="149.08942357827294" r="4.255546855192956" fill="#FFFFFF" fill-opacity="0.5912999457041905" />
<circle cx="107.49568842637046" cy="162.63317153868383" r="3.8515568164093357" fill="#8B4513" fill-opacity="0.5705417054601012" />
<circle cx="178.0606698370109" cy="107.06504833442172" r="5.3552851736328115" fill="#D2691E" fill-opacity="0.36858120620874824" />
<circle cx="170.10239903083317" cy="70.86423628974661" r="5.615457028579453" fill="#FFFFFF" fill-opacity="0.33025980741956723" />
<circle cx="70.73740192339116" cy="134.1267712856811" r="4.917414561849489" fill="#D2691E" fill-opacity="0.43653113263576476" />
<circle cx="162.5842868367428" cy="164.83672185766517" r="4.296763859672988" fill="#D2691E" fill-opacity="0.40180324136273826" />
<circle cx="45.809087979267545" cy="77.29795630870319" r="3.769720949583957" fill="#8B4513" fill-opacity="0.3232126132199164" />
<circle cx="84.10401296525703" cy="44.73868683917696" r="3.1124529807633947" fill="#8B4513" fill-opacity="0.22529451769035302" />
<circle cx="108.83076815473373" cy="136.1913805492979" r="2.2310689831278094" fill="#8B4513" fill-opacity="0.5017192873305107" />
<circle cx="125.54579749821202" cy="111.59283262059273" r="4.969678034785765" fill="#FFDE75" fill-opacity="0.2063842257588506" />
<circle cx="128.38753690175471" cy="141.96544976702293" r="2.7890128364763416" fill="#8B4513" fill-opacity="0.3126382179574219" />
<circle cx="88.36559085063843" cy="162.43940238024533" r="4.702335109535563" fill="#D2691E" fill-opacity="0.480932053466208" />
<circle cx="146.91727286185903" cy="60.84882594187787" r="2.5659554642829643" fill="#FFFFFF" fill-opacity="0.4062266090108026" />
<circle cx="128.004252002361" cy="35.142582886446675" r="4.769531511750107" fill="#8B4513" fill-opacity="0.44113669184516147" />
<circle cx="127.19824216002732" cy="27.835001865294103" r="4.024184752607835" fill="#8B4513" fill-opacity="0.36468388502411087" />
<circle cx="110.64567136443085" cy="103.02497778393935" r="4.834157398269303" fill="#FFFFFF" fill-opacity="0.26318685132465464" />
<circle cx="112.90112545191009" cy="24.62402002306166" r="4.775755243498255" fill="#D2691E" fill-opacity="0.294518927074642" />
<circle cx="49.29790111399845" cy="85.55323031087522" r="4.435988052904286" fill="#8B4513" fill-opacity="0.3278574758407314" />
<circle cx="79.7711035298812" cy="42.871804327665416" r="4.106089149534464" fill="#FFDE75" fill-opacity="0.2233959941735234" />
<circle cx="69.23390370253576" cy="156.85444951875473" r="4.215665263927049" fill="#8B4513" fill-opacity="0.28017532625243075" />
<circle cx="116.09971463774068" cy="43.36429278242027" r="2.4465493106521103" fill="#8B4513" fill-opacity="0.22026754791612185" />
<circle cx="88.63934893300082" cy="64.62194470080206" r="3.388628484310631" fill="#FFFFFF" fill-opacity="0.3327435350967013" />
<circle cx="54.68110791632522" cy="88.88853123130971" r="4.820157788142536" fill="#8B4513" fill-opacity="0.4991200664663424" />
<circle cx="47.230392728883615" cy="102.79107365977079" r="5.333716538803589" fill="#8B4513" fill-opacity="0.49525177849905433" />
<circle cx="35.76850444401819" cy="148.72655648271797" r="4.997029872697437" fill="#D2691E" fill-opacity="0.24991856584376893" />
<circle cx="122.80680721628289" cy="64.293150600381" r="2.6198896178214253" fill="#FFDE75" fill-opacity="0.46616696470403834" />
<circle cx="119.5783392278" cy="125.72948935719884" r="5.856431763271193" fill="#D2691E" fill-opacity="0.33772496374491057" />
<circle cx="125.44256173463906" cy="185.1949922037644" r="5.160104669948863" fill="#D2691E" fill-opacity="0.2632336700047371" />
<circle cx="57.63105917921775" cy="98.90466494211802" r="5.676118933261156" fill="#D2691E" fill-opacity="0.4496286905564971" />
<circle cx="108.07416656081482" cy="187.26624108974016" r="4.525390293876127" fill="#FFDE75" fill-opacity="0.20698338439722114" />
<circle cx="147.42332312641577" cy="105.59897367638968" r="4.52348977170251" fill="#FFFFFF" fill-opacity="0.3156053690726147" />
<circle cx="103.2885272766249" cy="65.4793646398037" r="5.608794408945824" fill="#FFDE75" fill-opacity="0.5863109874776473" />
<circle cx="70.29894625652872" cy="69.23510300261285" r="2.839776359425782" fill="#8B4513" fill-opacity="0.35163719866589455" />
<circle cx="152.92245342857353" cy="67.18417018321391" r="3.99156109019348" fill="#FFFFFF" fill-opacity="0.20142215650438638" />
<circle cx="26.817916763363613" cy="78.10070010101565" r="5.237914238499528" fill="#8B4513" fill-opacity="0.4675967611001777" />
<circle cx="124.132808479979" cy="165.58771882360824" r="3.5318807661518887" fill="#8B4513" fill-opacity="0.43205216780037836" />
<circle cx="116.10782529007412" cy="71.08423625894437" r="3.40290735148647" fill="#FFDE75" fill-opacity="0.4684273355843192" />
<circle cx="90.41845561977293" cy="87.49047690448401" r="3.7646010069070073" fill="#FFDE75" fill-opacity="0.37680767630014467" />
<circle cx="44.83415214726471" cy="140.33136787674275" r="3.6171083952393435" fill="#FFFFFF" fill-opacity="0.5706832417065477" />
<circle cx="181.52672688779649" cy="106.32991330694229" r="2.7262255749710755" fill="#FFFFFF" fill-opacity="0.35888527281211224" />
<circle cx="79.90402532074984" cy="31.521868991475444" r="3.642316908970131" fill="#FFFFFF" fill-opacity="0.48793928395466213" />
<circle cx="44.75220816961454" cy="67.00095195929869" r="3.357252849101994" fill="#8B4513" fill-opacity="0.484047353338002" />
<circle cx="148.185361397152" cy="101.51384968198252" r="2.0567524070199052" fill="#FFFFFF" fill-opacity="0.5638495410743447" />
<circle cx="133.5642869798146" cy="146.54812136862643" r="5.35852993160582" fill="#8B4513" fill-opacity="0.3519298914857537" />
<circle cx="38.3116948241543" cy="77.79643001371453" r="4.349035361059604" fill="#FFDE75" fill-opacity="0.253849792466965" />
<circle cx="80.54184550150319" cy="115.41457060358394" r="4.890058266565014" fill="#FFFFFF" fill-opacity="0.2998044637356367" />
<circle cx="65.23866985874736" cy="176.42646638918552" r="2.0075581986493103" fill="#D2691E" fill-opacity="0.5020214245644838" />
<circle cx="106.38166439805566" cy="79.33624154093954" r="5.193003152215477" fill="#8B4513" fill-opacity="0.5449037358470044" />
<circle cx="140.13671214106154" cy="100.92878541602856" r="5.272576423257982" fill="#FFDE75" fill-opacity="0.25201713752608124" />
<circle cx="117.3283832276251" cy="105.44988857859207" r="2.5909545917414545" fill="#FFFFFF" fill-opacity="0.2915279324937935" />
<circle cx="124.13091717536604" cy="64.24043785183333" r="5.457690439628875" fill="#FFDE75" fill-opacity="0.3940603947106966" />
<circle cx="169.87757041814513" cy="81.92514978451239" r="2.576431002600243" fill="#8B4513" fill-opacity="0.5007870312811307" />
<circle cx="85.25124211783032" cy="54.38906387552443" r="5.972077131459949" fill="#FFFFFF" fill-opacity="0.5977746471109017" />
<circle cx="120.89201875475662" cy="106.01203740213295" r="2.912796893748006" fill="#FFFFFF" fill-opacity="0.5301437617553065" />
<circle cx="143.1952559925792" cy="120.22766356450751" r="3.2211555178469244" fill="#8B4513" fill-opacity="0.37274275037507154" />
<circle cx="164.45373865710164" cy="106.56852294258391" r="9.46483361008493" fill="#C92A2A" stroke="#800000" stroke-width="1" />
<circle cx="161.81629028619332" cy="103.07106854758325" r="1.4061827575141748" fill="#FFA07A" fill-opacity="0.7" />
<circle cx="162.03281151014787" cy="101.07662567992784" r="0.6869446736768746" fill="#FFA07A" fill-opacity="0.7" />
<circle cx="168.1696983921048" cy="107.44804219563163" r="0.5017756017805113" fill="#FFA07A" fill-opacity="0.7" />
<circle cx="165.182713588876" cy="101.720663151578" r="0.8692581138752217" fill="#FFA07A" fill-opacity="0.7" />
<circle cx="163.17920382678074" cy="108.31083600298979" r="0.6683324588100249" fill="#FFA07A" fill-opacity="0.7" />
<circle cx="53.57003047863891" cy="83.8932188080492" r="11.182071819877827" fill="#C92A2A" stroke="#800000" stroke-width="1" />
<circle cx="56.016464530313584" cy="83.14375536575555" r="1.0772616106752322" fill="#FFA07A" fill-opacity="0.7" />
<circle cx="49.979722343893414" cy="87.24917527703143" r="1.2576048747415383" fill="#FFA07A" fill-opacity="0.7" />
<circle cx="57.489493497746224" cy="83.21949997875988" r="0.5047053514554963" fill="#FFA07A" fill-opacity="0.7" />
<circle cx="57.96486819455818" cy="89.32237670911555" r="1.0003783048807742" fill="#FFA07A" fill-opacity="0.7" />
<circle cx="51.97934803455189" cy="84.2731284925869" r="1.2212487688213636" fill="#FFA07A" fill-opacity="0.7" />
<circle cx="49.57380603313962" cy="89.64057677436305" r="0.6889466918007866" fill="#FFA07A" fill-opacity="0.7" />
<circle cx="139.67143966958537" cy="168.36537932777958" r="10.974823318594487" fill="#C92A2A" stroke="#800000" stroke-width="1" />
<circle cx="135.8580548961776" cy="167.38741754985807" r="1.1857393794481141" fill="#FFA07A" fill-opacity="0.7" />
<circle cx="135.52949332408923" cy="172.82795722531233" r="0.8514231300028222" fill="#FFA07A" fill-opacity="0.7" />
<circle cx="137.42053117917058" cy="170.3301954142168" r="1.1046290051636003" fill="#FFA07A" fill-opacity="0.7" />
<circle cx="140.3815514852405" cy="166.15649157089015" r="1.2919099711197113" fill="#FFA07A" fill-opacity="0.7" />
<circle cx="143.95075788663212" cy="164.27426930556" r="0.9371194428311124" fill="#FFA07A" fill-opacity="0.7" />
<circle cx="140.57495365010917" cy="171.44940324049733" r="1.2051233454927472" fill="#FFA07A" fill-opacity="0.7" />
<circle cx="31.67425853333839" cy="121.27637702615479" r="10.155180109922226" fill="#C92A2A" stroke="#800000" stroke-width="1" />
<circle cx="34.26603344969063" cy="118.62324709159813" r="0.6011023498587171" fill="#FFA07A" fill-opacity="0.7" />
<circle cx="29.15121542702866" cy="118.97118410364631" r="0.6446816632740096" fill="#FFA07A" fill-opacity="0.7" />
<circle cx="32.09447956015438" cy="119.90756902079102" r="0.5788146822645274" fill="#FFA07A" fill-opacity="0.7" />
<circle cx="63.455653473050184" cy="154.44426397401983" r="9.368749574643614" fill="#C92A2A" stroke="#800000" stroke-width="1" />
<circle cx="64.00209805553045" cy="150.82724416224542" r="1.3616976748128136" fill="#FFA07A" fill-opacity="0.7" />
<circle cx="59.36505264872989" cy="152.26157038696425" r="0.8172000729240154" fill="#FFA07A" fill-opacity="0.7" />
<circle cx="61.285035464316486" cy="158.2554229656451" r="0.796997031700089" fill="#FFA07A" fill-opacity="0.7" />
<circle cx="161.01654746915247" cy="50.93555265231746" r="10.660528027268567" fill="#C92A2A" stroke="#800000" stroke-width="1" />
<circle cx="163.9973651271435" cy="45.98711144011752" r="0.8727640282927721" fill="#FFA07A" fill-opacity="0.7" />
<circle cx="159.45006207211566" cy="55.373109509217194" r="0.8171965689355002" fill="#FFA07A" fill-opacity="0.7" />
<circle cx="164.75771424760487" cy="51.1573020187662" r="0.9616070399043581" fill="#FFA07A" fill-opacity="0.7" />
<circle cx="162.6445279438897" cy="53.46698208287851" r="0.6299275389324023" fill="#FFA07A" fill-opacity="0.7" />
<circle cx="161.60604008899284" cy="51.081561028465295" r="1.3767130631944484" fill="#FFA07A" fill-opacity="0.7" />
<circle cx="162.27475806732906" cy="52.70255486449206" r="1.420297147960282" fill="#FFA07A" fill-opacity="0.7" />
<circle cx="161.32597072818118" cy="54.75034806705042" r="0.8115694636196925" fill="#FFA07A" fill-opacity="0.7" />
<circle cx="123.15410883670853" cy="69.68595694229913" r="11.239954834914467" fill="#C92A2A" stroke="#800000" stroke-width="1" />
<circle cx="118.95848827407004" cy="73.20656813488321" r="1.3372234189710337" fill="#FFA07A" fill-opacity="0.7" />
<circle cx="125.40489235685234" cy="74.97623679763497" r="0.9708309842898716" fill="#FFA07A" fill-opacity="0.7" />
<circle cx="126.4123879080429" cy="69.62642258222996" r="1.1363356581325093" fill="#FFA07A" fill-opacity="0.7" />
<circle cx="120.88335951520627" cy="72.40633466681578" r="1.4752934399913464" fill="#FFA07A" fill-opacity="0.7" />
<circle cx="117.44054802734412" cy="75.39978980633029" r="0.5863490071308914" fill="#FFA07A" fill-opacity="0.7" />
<circle cx="83.06360981405965" cy="178.51701371454203" r="11.446689076979471" fill="#C92A2A" stroke="#800000" stroke-width="1" />
<circle cx="78.97951325184087" cy="181.62464198409108" r="0.9421244771465244" fill="#FFA07A" fill-opacity="0.7" />
<circle cx="81.23077449211006" cy="175.97314355411692" r="0.7427799138619661" fill="#FFA07A" fill-opacity="0.7" />
<circle cx="79.88391900660662" cy="177.63126178790384" r="1.257082829735194" fill="#FFA07A" fill-opacity="0.7" />
<circle cx="85.15724917837682" cy="174.07917473738226" r="0.9216839240049247" fill="#FFA07A" fill-opacity="0.7" />
<circle cx="81.6105198882407" cy="176.2374082094471" r="0.8243866861940666" fill="#FFA07A" fill-opacity="0.7" />
<circle cx="52.97516491843572" cy="130.2100133246066" r="11.839084809876162" fill="#C92A2A" stroke="#800000" stroke-width="1" />
<circle cx="58.83580315260134" cy="129.93546974229184" r="1.2593670968169448" fill="#FFA07A" fill-opacity="0.7" />
<circle cx="58.94045566565852" cy="127.96112639107443" r="0.6598314744996392" fill="#FFA07A" fill-opacity="0.7" />
<circle cx="55.25693751679063" cy="130.5672464079019" r="0.8429872275265821" fill="#FFA07A" fill-opacity="0.7" />
<circle cx="55.72930932990508" cy="127.70353920823472" r="1.3560777563283548" fill="#FFA07A" fill-opacity="0.7" />
<circle cx="52.02068110669391" cy="134.14043082343042" r="0.7340579043364479" fill="#FFA07A" fill-opacity="0.7" />
<circle cx="53.26484579859941" cy="129.3491847270006" r="1.0129011341236367" fill="#FFA07A" fill-opacity="0.7" />
<circle cx="72.67662770288118" cy="43.149388174735776" r="11.03277669374104" fill="#C92A2A" stroke="#800000" stroke-width="1" />
<circle cx="78.05123215434841" cy="48.33724474825166" r="0.5287694210989449" fill="#FFA07A" fill-opacity="0.7" />
<circle cx="78.11049258533926" cy="46.776749063767355" r="1.107027641567733" fill="#FFA07A" fill-opacity="0.7" />
<circle cx="67.78451853074374" cy="44.793492558079265" r="0.6378491772327007" fill="#FFA07A" fill-opacity="0.7" />
<circle cx="70.66442731146078" cy="39.68089561350336" r="1.1583863173481022" fill="#FFA07A" fill-opacity="0.7" />
<circle cx="75.6221953134431" cy="41.76412471632541" r="0.5948290149724342" fill="#FFA07A" fill-opacity="0.7" />
<circle cx="74.87751279390933" cy="42.85706721201712" r="0.6077754589630799" fill="#FFA07A" fill-opacity="0.7" />
<circle cx="78.66708542638864" cy="45.915460920799504" r="0.91482722612953" fill="#FFA07A" fill-opacity="0.7" />
<circle cx="136.05464383087565" cy="137.29372834337437" r="10.18669009318495" fill="#C92A2A" stroke="#800000" stroke-width="1" />
<circle cx="134.75222672664802" cy="138.80820988501256" r="1.2606954099521634" fill="#FFA07A" fill-opacity="0.7" />
<circle cx="131.52423292544003" cy="138.38916061448901" r="1.3402839834836362" fill="#FFA07A" fill-opacity="0.7" />
<circle cx="138.53805838855618" cy="134.24590019417556" r="0.5747970482246589" fill="#FFA07A" fill-opacity="0.7" />
<circle cx="136.9594347843837" cy="131.57885567687617" r="0.6793904929476985" fill="#FFA07A" fill-opacity="0.7" />
<circle cx="136.49473356729166" cy="135.78309651918508" r="1.0481346347951885" fill="#FFA07A" fill-opacity="0.7" />
<circle cx="73.12654069455466" cy="66.41434294575625" r="10.72342284531548" fill="#C92A2A" stroke="#800000" stroke-width="1" />
<circle cx="74.39321890996331" cy="64.73149410655311" r="0.9342140121572723" fill="#FFA07A" fill-opacity="0.7" />
<circle cx="75.64456960438218" cy="61.07012228404825" r="0.8708556411336931" fill="#FFA07A" fill-opacity="0.7" />
<circle cx="76.22261628854464" cy="64.31797026202402" r="0.6775516939339606" fill="#FFA07A" fill-opacity="0.7" />
<circle cx="148.85071269412586" cy="47.694214638679846" r="9.141135257896236" fill="#C92A2A" stroke="#800000" stroke-width="1" />
<circle cx="145.64847802578987" cy="50.988395326848774" r="0.828948861498201" fill="#FFA07A" fill-opacity="0.7" />
<circle cx="144.86910556376932" cy="48.32168446251373" r="1.2591016887787743" fill="#FFA07A" fill-opacity="0.7" />
<circle cx="151.1394277862037" cy="45.64281001648493" r="0.5825753237099536" fill="#FFA07A" fill-opacity="0.7" />
<circle cx="154.74355303909675" cy="44.97371044214492" r="0.6560056938044607" fill="#FFA07A" fill-opacity="0.7" />
<circle cx="153.53482413579945" cy="51.346727524746484" r="1.0409926393725426" fill="#FFA07A" fill-opacity="0.7" />
<circle cx="77.61889085083978" cy="159.01691544561731" r="9.355166701817694" fill="#C92A2A" stroke="#800000" stroke-width="1" />
<circle cx="74.85231520360799" cy="153.62751569365693" r="0.9508661773134152" fill="#FFA07A" fill-opacity="0.7" />
<circle cx="82.78230244561246" cy="160.72944079175255" r="0.6271706772532336" fill="#FFA07A" fill-opacity="0.7" />
<circle cx="74.89663345147474" cy="163.47368211687478" r="1.3647460550072694" fill="#FFA07A" fill-opacity="0.7" />
<circle cx="78.16868590988784" cy="162.99512821338" r="1.0819425762094739" fill="#FFA07A" fill-opacity="0.7" />
<circle cx="74.6150029670452" cy="162.57798663739723" r="0.5817327465122029" fill="#FFA07A" fill-opacity="0.7" />
<circle cx="82.12526072938061" cy="153.76912841647686" r="1.0012514509348944" fill="#FFA07A" fill-opacity="0.7" />
<circle cx="128.564551285234" cy="133.7996127895577" r="9.216364428215464" fill="#C92A2A" stroke="#800000" stroke-width="1" />
<circle cx="133.81496895563407" cy="132.14580860582893" r="0.6559181335123693" fill="#FFA07A" fill-opacity="0.7" />
<circle cx="130.4737301658267" cy="136.02867941237557" r="1.0260509717227024" fill="#FFA07A" fill-opacity="0.7" />
<circle cx="128.74570039078213" cy="128.50012547299272" r="1.0805687064004263" fill="#FFA07A" fill-opacity="0.7" />
<circle cx="132.3952611638762" cy="135.7073462937142" r="1.1355554000693013" fill="#FFA07A" fill-opacity="0.7" />
<circle cx="125.15494313203406" cy="130.0084368194191" r="1.464539269256684" fill="#FFA07A" fill-opacity="0.7" />
<circle cx="140.82090039631086" cy="133.38569878009724" r="9.241733367208788" fill="#C92A2A" stroke="#800000" stroke-width="1" />
<circle cx="144.03456469759425" cy="138.9289141174321" r="1.396026295134075" fill="#FFA07A" fill-opacity="0.7" />
<circle cx="141.48274453193287" cy="132.9679269035719" r="1.1674587739177589" fill="#FFA07A" fill-opacity="0.7" />
<circle cx="146.59462650977355" cy="132.4662894094648" r="1.2581862923239417" fill="#FFA07A" fill-opacity="0.7" />
<circle cx="142.9912243222195" cy="137.62035348189383" r="1.2660587476714098" fill="#FFA07A" fill-opacity="0.7" />
<circle cx="140.6448172681214" cy="134.73403281669724" r="1.0474406862449765" fill="#FFA07A" fill-opacity="0.7" />
</g>
<path d="M105.0,105.0 L105.0,5.0" stroke="lightgray" stroke-width="2" />
<path d="M105.0,105.0 L205.0,105.0" stroke="lightgray" stroke-width="2" />
<path d="M105.0,105.0 L105.0,205.0" stroke="lightgray" stroke-width="2" />
<path d="M105.0,105.0 L5.0,105.00000000000001" stroke="lightgray" stroke-width="2" />
<circle cx="105.0" cy="105.0" r="100" fill="none" stroke="lightgray" stroke-width="2" />
</g>
</svg>
<svg x="225.0" y="0.0" width="284.0" height="210.0" viewBox="0 0 284.0 210" xmlns="http://www.w3.org/2000/svg" xmlns:xlink="http://www.w3.org/1999/xlink">
<defs>
<clipPath id="clip-4524453840-4472136272">
<path d="M105.0,105.0 L105.0,5.0 A100,100,0,0,1,205.0,105.0 Z" fill="none" />
</clipPath>
<clipPath id="clip-4524453840-4535746000">
<path d="M105.0,105.0 L205.0,105.0 A100,100,0,0,1,105.0,205.0 Z" fill="none" />
</clipPath>
<clipPath id="clip-4524453840-4536256976">
<path d="M105.0,105.0 L105.0,205.0 A100,100,0,0,1,5.0,105.00000000000001 Z" fill="none" />
</clipPath>
</defs>
<g>
<path d="M105.0,105.0 L105.0,5.0 A100,100,0,0,1,205.0,105.0 Z" fill="none" stroke="lightgray" stroke-width="2" />
<path d="M105.0,105.0 L205.0,105.0 A100,100,0,0,1,105.0,205.0 Z" fill="none" stroke="lightgray" stroke-width="2" />
<path d="M105.0,105.0 L105.0,205.0 A100,100,0,0,1,5.0,105.00000000000001 Z" fill="none" stroke="lightgray" stroke-width="2" />
<path d="M105.0,105.0 L5.0,105.00000000000001 A100,100,0,0,1,104.99999999999999,5.0 Z" fill="none" stroke="lightgray" stroke-width="2" />
<path d="M105.0,105.0 L105.0,5.0 A100,100,0,0,1,205.0,105.0 Z" fill="#F5C754" stroke="lightgray" stroke-width="2" />
<use xlink:href="#clip-4524453840-4472136272" />
<g clip-path="url(#clip-4524453840-4472136272)">
<circle cx="105.0" cy="105.0" r="92" stroke="#DAA05D" stroke-width="16" fill="none" />
<circle cx="105.0" cy="105.0" r="98" stroke="#C37B32" stroke-width="5" fill="none" />
<circle cx="54.94323998186593" cy="137.6913919267575" r="4.571521339428826" fill="#FFDE75" fill-opacity="0.4577242394091626" />
<circle cx="101.16747806440915" cy="180.58862955606503" r="3.010555575442136" fill="#FFFFFF" fill-opacity="0.277818807286999" />
<circle cx="44.55295542394384" cy="62.812911084766334" r="4.059578819880925" fill="#FFFFFF" fill-opacity="0.3692198292348646" />
<circle cx="80.54217118860788" cy="178.3355317487796" r="2.7003194391880623" fill="#D2691E" fill-opacity="0.3297050248303071" />
<circle cx="154.26798096478782" cy="69.44890562189488" r="2.7048512100586324" fill="#8B4513" fill-opacity="0.4870540237766373" />
<circle cx="146.72476757086315" cy="32.81065951743295" r="3.703280575814828" fill="#FFFFFF" fill-opacity="0.27416068991579856" />
<circle cx="61.16098770627092" cy="43.59515332558171" r="4.861045994612555" fill="#D2691E" fill-opacity="0.4103759578656705" />
<circle cx="111.74734282868566" cy="144.11631623430662" r="5.475531970499118" fill="#D2691E" fill-opacity="0.34681065645554165" />
<circle cx="160.51308470240235" cy="94.65860899903622" r="3.1371416159679018" fill="#D2691E" fill-opacity="0.5001556818207191" />
<circle cx="28.04487946275212" cy="103.05939536280707" r="5.326519029454855" fill="#8B4513" fill-opacity="0.2102487475085246" />
<circle cx="67.90589522388811" cy="172.8535321284699" r="2.0048599482127925" fill="#FFFFFF" fill-opacity="0.5589428410205896" />
<circle cx="42.04356311238641" cy="90.18126460244169" r="5.97136310436014" fill="#FFFFFF" fill-opacity="0.377074237956718" />
<circle cx="128.81757686331323" cy="130.33571431144537" r="3.2510486127531335" fill="#FFFFFF" fill-opacity="0.4754307002408108" />
<circle cx="51.437662184091245" cy="81.59849827621144" r="4.202830046039907" fill="#D2691E" fill-opacity="0.5743389412906028" />
<circle cx="97.06011671771289" cy="140.38128932041545" r="2.641707491686508" fill="#FFDE75" fill-opacity="0.35309147463877844" />
<circle cx="122.97122522866037" cy="96.11659415842406" r="4.582138431946307" fill="#FFFFFF" fill-opacity="0.5599933389734639" />
<circle cx="136.79762385359018" cy="179.91073332547467" r="5.353256617258672" fill="#FFFFFF" fill-opacity="0.3460199467691096" />
<circle cx="70.7568849402972" cy="128.40542951400982" r="2.799222966812126" fill="#D2691E" fill-opacity="0.24060193100270977" />
<circle cx="79.74366198180206" cy="87.36167527139098" r="3.63991854084506" fill="#FFDE75" fill-opacity="0.254666724543547" />
<circle cx="20.735875731938563" cy="93.91887846719605" r="2.898393380816168" fill="#FFDE75" fill-opacity="0.5835242435432046" />
<circle cx="81.10621456723607" cy="94.94534616307337" r="5.8849366928176305" fill="#8B4513" fill-opacity="0.49281878983367255" />
<circle cx="68.21669715027932" cy="134.6815131175152" r="2.6438631232828183" fill="#D2691E" fill-opacity="0.584327741239913" />
<circle cx="63.79967004558624" cy="39.69127447085714" r="5.903423378226215" fill="#D2691E" fill-opacity="0.5306138529870514" />
<circle cx="48.52153731939435" cy="96.1398195682503" r="2.130672801167228" fill="#FFDE75" fill-opacity="0.4149300067909767" />
<circle cx="168.38576240039725" cy="86.54832631443134" r="3.584209295753708" fill="#D2691E" fill-opacity="0.5110798556704974" />
<circle cx="137.6314699904334" cy="143.90427619812218" r="3.4436523532360592" fill="#8B4513" fill-opacity="0.5364005985433629" />
<circle cx="103.6188175422855" cy="176.90665078456425" r="4.337890594937757" fill="#D2691E" fill-opacity="0.38344694482913705" />
<circle cx="91.07856538363944" cy="151.73363635350307" r="2.2053103482198457" fill="#D2691E" fill-opacity="0.22810005791006263" />
<circle cx="55.60372548541173" cy="141.59614152531398" r="5.064915997685724" fill="#FFFFFF" fill-opacity="0.2648514372101587" />
<circle cx="74.081693881498" cy="89.66049153099452" r="3.0358022805628027" fill="#D2691E" fill-opacity="0.49288561564398803" />
<circle cx="152.64432553750763" cy="89.83804130140936" r="3.48470126472198" fill="#D2691E" fill-opacity="0.33132427364009953" />
<circle cx="75.76020652080578" cy="70.02468982805709" r="2.703162227240906" fill="#FFFFFF" fill-opacity="0.2552943426714121" />
<circle cx="63.191463652245794" cy="60.68547235647227" r="5.4816251539165854" fill="#FFFFFF" fill-opacity="0.46966978121443065" />
<circle cx="122.37488856106528" cy="40.18614189180681" r="2.2270482400344247" fill="#FFDE75" fill-opacity="0.36434064095945573" />
<circle cx="172.0026713123034" cy="114.92957844156433" r="3.1938478669651045" fill="#FFDE75" fill-opacity="0.38025548082457017" />
<circle cx="119.6036803520809" cy="22.725233694552557" r="3.610691162661029" fill="#8B4513" fill-opacity="0.5409505928121872" />
<circle cx="138.11291927496362" cy="43.469091686427625" r="5.043809718701965" fill="#8B4513" fill-opacity="0.5011751856743195" />
<circle cx="183.1272619919724" cy="122.49678083021438" r="4.650881610152096" fill="#D2691E" fill-opacity="0.2750078798570607" />
<circle cx="140.8310673710563" cy="28.67149049616306" r="2.370557438234093" fill="#FFFFFF" fill-opacity="0.5438334208022804" />
<circle cx="63.89758393380168" cy="159.11192519862826" r="4.137557499475182" fill="#8B4513" fill-opacity="0.5864436932737791" />
<circle cx="80.72917553968473" cy="103.44481225314954" r="3.9271933743096517" fill="#FFFFFF" fill-opacity="0.4986979738362522" />
<circle cx="154.24016723255187" cy="91.16423206095257" r="4.506285962788731" fill="#FFDE75" fill-opacity="0.32280722243610127" />
<circle cx="63.03860772130684" cy="64.59926120114447" r="2.6118220816457827" fill="#8B4513" fill-opacity="0.20497929880657262" />
<circle cx="156.1582374746779" cy="160.69628002187187" r="3.011237143576326" fill="#D2691E" fill-opacity="0.5980599138236555" />
<circle cx="120.69249445653152" cy="61.258113322851315" r="2.7611419025156585" fill="#8B4513" fill-opacity="0.41428054038992945" />
<circle cx="168.84978902905414" cy="66.37215354317037" r="11.413283229639" fill="#C92A2A" stroke="#800000" stroke-width="1" />
<circle cx="173.81791165248904" cy="68.55688513858621" r="0.6692007418119922" fill="#FFA07A" fill-opacity="0.7" />
<circle cx="171.2040850861487" cy="67.12632534705587" r="1.4517594344504887" fill="#FFA07A" fill-opacity="0.7" />
<circle cx="163.46704661357163" cy="64.44709202573478" r="0.5089941979413923" fill="#FFA07A" fill-opacity="0.7" />
<circle cx="169.97785484182057" cy="70.15912832222648" r="0.6142313427282842" fill="#FFA07A" fill-opacity="0.7" />
<circle cx="172.11918247103196" cy="65.31619039748207" r="1.1615120289474754" fill="#FFA07A" fill-opacity="0.7" />
<circle cx="165.53946314612915" cy="67.98417522385942" r="0.9893333279926176" fill="#FFA07A" fill-opacity="0.7" />
<circle cx="167.81430540188657" cy="67.79551293033751" r="0.9610056592549189" fill="#FFA07A" fill-opacity="0.7" />
<circle cx="143.09236826841095" cy="158.66477337249748" r="9.284645531435448" fill="#C92A2A" stroke="#800000" stroke-width="1" />
<circle cx="144.96405202854632" cy="164.5215850798183" r="0.6793715639562746" fill="#FFA07A" fill-opacity="0.7" />
<circle cx="140.02790695950523" cy="154.38521231011697" r="0.645094950772723" fill="#FFA07A" fill-opacity="0.7" />
<circle cx="147.64176050086186" cy="154.998605240615" r="1.4168401271969238" fill="#FFA07A" fill-opacity="0.7" />
<circle cx="173.92447697330763" cy="122.99249678195045" r="11.51292580521551" fill="#C92A2A" stroke="#800000" stroke-width="1" />
<circle cx="178.42726580463457" cy="127.25665277479284" r="1.2986039631376958" fill="#FFA07A" fill-opacity="0.7" />
<circle cx="168.27542516088903" cy="122.23278515954188" r="1.0573569892025758" fill="#FFA07A" fill-opacity="0.7" />
<circle cx="170.9417921615928" cy="127.55807280798936" r="0.5664616907472265" fill="#FFA07A" fill-opacity="0.7" />
<circle cx="78.14431155578225" cy="52.157908381332376" r="9.757136274560407" fill="#C92A2A" stroke="#800000" stroke-width="1" />
<circle cx="82.41915913321458" cy="49.514985132415795" r="0.7904486094531854" fill="#FFA07A" fill-opacity="0.7" />
<circle cx="83.03541494218692" cy="54.37192408421956" r="0.9652084750125639" fill="#FFA07A" fill-opacity="0.7" />
<circle cx="73.38505177890325" cy="57.46480933856268" r="0.5411385747563019" fill="#FFA07A" fill-opacity="0.7" />
<circle cx="82.96350146057276" cy="56.95331310267867" r="1.2647497960798657" fill="#FFA07A" fill-opacity="0.7" />
<circle cx="176.03929773523328" cy="135.61560087841" r="11.825080402558289" fill="#C92A2A" stroke="#800000" stroke-width="1" />
<circle cx="174.57733902627905" cy="135.25640085017443" r="0.5026798776385262" fill="#FFA07A" fill-opacity="0.7" />
<circle cx="181.11376923491704" cy="136.06689031394697" r="1.3870383060721276" fill="#FFA07A" fill-opacity="0.7" />
<circle cx="172.87500457903948" cy="132.65000469413587" r="0.8212604387749032" fill="#FFA07A" fill-opacity="0.7" />
<circle cx="179.73547975564387" cy="135.12476580130442" r="1.2856776468085322" fill="#FFA07A" fill-opacity="0.7" />
<circle cx="91.91485551794553" cy="67.7248229342883" r="11.71820609559242" fill="#C92A2A" stroke="#800000" stroke-width="1" />
<circle cx="97.64190732378793" cy="64.32964148071" r="0.8179343634562891" fill="#FFA07A" fill-opacity="0.7" />
<circle cx="91.72636607915422" cy="71.06216381077397" r="0.8936320170739933" fill="#FFA07A" fill-opacity="0.7" />
<circle cx="96.30998620034627" cy="68.22693297476081" r="1.0494337064514598" fill="#FFA07A" fill-opacity="0.7" />
<circle cx="94.54169438877847" cy="72.66574170953305" r="0.8785780729829817" fill="#FFA07A" fill-opacity="0.7" />
<circle cx="93.30236430846091" cy="72.00739342685013" r="0.9330594631864946" fill="#FFA07A" fill-opacity="0.7" />
<circle cx="96.04573239404715" cy="70.61405178642082" r="0.6836013295934726" fill="#FFA07A" fill-opacity="0.7" />
<circle cx="152.64613470388772" cy="82.33893140044083" r="9.729387965815745" fill="#C92A2A" stroke="#800000" stroke-width="1" />
<circle cx="153.5861899300086" cy="83.93231309874034" r="0.6465711570870653" fill="#FFA07A" fill-opacity="0.7" />
<circle cx="151.90552582173285" cy="77.68027324119124" r="1.188032146965892" fill="#FFA07A" fill-opacity="0.7" />
<circle cx="149.132704496454" cy="88.0195969683021" r="0.8424457851396777" fill="#FFA07A" fill-opacity="0.7" />
<circle cx="158.1118697503361" cy="82.82947178587834" r="0.8498625716891205" fill="#FFA07A" fill-opacity="0.7" />
<circle cx="156.365989904766" cy="86.02329609469462" r="1.1807096781431188" fill="#FFA07A" fill-opacity="0.7" />
<circle cx="148.30193749580135" cy="78.74537224027347" r="0.5998825250493648" fill="#FFA07A" fill-opacity="0.7" />
<circle cx="157.17416600605128" cy="81.31251526703522" r="0.6126368590793896" fill="#FFA07A" fill-opacity="0.7" />
<circle cx="77.94115704704895" cy="103.0101865364722" r="11.108482567554635" fill="#C92A2A" stroke="#800000" stroke-width="1" />
<circle cx="74.86994255316323" cy="104.53853837840654" r="0.6495979849433586" fill="#FFA07A" fill-opacity="0.7" />
<circle cx="75.47285104589268" cy="108.151761148854" r="1.0080115568391366" fill="#FFA07A" fill-opacity="0.7" />
<circle cx="78.12056741312169" cy="103.27040151608209" r="1.4803950888622623" fill="#FFA07A" fill-opacity="0.7" />
<circle cx="73.81272926306788" cy="101.66655734514052" r="1.1640711439485196" fill="#FFA07A" fill-opacity="0.7" />
<circle cx="78.98533769652232" cy="104.39018857544589" r="1.3710083045647963" fill="#FFA07A" fill-opacity="0.7" />
<circle cx="76.87942428431063" cy="107.10251245521854" r="1.1628132751174907" fill="#FFA07A" fill-opacity="0.7" />
<circle cx="82.10843128188881" cy="102.46177683279828" r="1.1576099526528756" fill="#FFA07A" fill-opacity="0.7" />
<circle cx="160.61453986746872" cy="97.4342714641685" r="9.374565081234644" fill="#C92A2A" stroke="#800000" stroke-width="1" />
<circle cx="164.13688565111738" cy="102.52272667405063" r="1.3363900981194212" fill="#FFA07A" fill-opacity="0.7" />
<circle cx="157.30313345901885" cy="96.89966268755806" r="0.9028200900900345" fill="#FFA07A" fill-opacity="0.7" />
<circle cx="157.57512227634132" cy="101.24481812469877" r="0.7413614869014307" fill="#FFA07A" fill-opacity="0.7" />
<circle cx="162.70598842073642" cy="100.5375243687813" r="0.9829462029750216" fill="#FFA07A" fill-opacity="0.7" />
<circle cx="109.16570941050004" cy="90.23117714593081" r="11.688629413363035" fill="#C92A2A" stroke="#800000" stroke-width="1" />
<circle cx="108.59595033208764" cy="94.51806931999212" r="0.6736923939794226" fill="#FFA07A" fill-opacity="0.7" />
<circle cx="110.99906381568182" cy="91.6424264681004" r="1.3599795040761329" fill="#FFA07A" fill-opacity="0.7" />
<circle cx="110.28375555048918" cy="94.09885465894786" r="1.3098658552160023" fill="#FFA07A" fill-opacity="0.7" />
<circle cx="120.72290826332836" cy="88.02858925388267" r="11.767798797552762" fill="#C92A2A" stroke="#800000" stroke-width="1" />
<circle cx="116.30714523861207" cy="90.4943911537865" r="1.3249704730222547" fill="#FFA07A" fill-opacity="0.7" />
<circle cx="116.56911489128737" cy="89.62837550193748" r="1.3970177443823881" fill="#FFA07A" fill-opacity="0.7" />
<circle cx="123.45058165627069" cy="92.07484334680927" r="0.8804327781913004" fill="#FFA07A" fill-opacity="0.7" />
<circle cx="82.59872022780871" cy="139.35938523287842" r="10.866451616616857" fill="#C92A2A" stroke="#800000" stroke-width="1" />
<circle cx="76.66762386138507" cy="136.4523834173544" r="0.7100933715254575" fill="#FFA07A" fill-opacity="0.7" />
<circle cx="85.09049225995712" cy="141.70471249402" r="0.7042194302619873" fill="#FFA07A" fill-opacity="0.7" />
<circle cx="87.25576625586116" cy="144.95968082818916" r="1.0935139435708776" fill="#FFA07A" fill-opacity="0.7" />
<circle cx="77.039975422429" cy="139.37028549750337" r="1.3245966977885613" fill="#FFA07A" fill-opacity="0.7" />
</g>
<path d="M105.0,105.0 L205.0,105.0 A100,100,0,0,1,105.0,205.0 Z" fill="#F5C754" stroke="lightgray" stroke-width="2" />
<use xlink:href="#clip-4524453840-4535746000" />
<g clip-path="url(#clip-4524453840-4535746000)">
<circle cx="105.0" cy="105.0" r="92" stroke="#DAA05D" stroke-width="16" fill="none" />
<circle cx="105.0" cy="105.0" r="98" stroke="#C37B32" stroke-width="5" fill="none" />
<circle cx="54.94323998186593" cy="137.6913919267575" r="4.571521339428826" fill="#FFDE75" fill-opacity="0.4577242394091626" />
<circle cx="101.16747806440915" cy="180.58862955606503" r="3.010555575442136" fill="#FFFFFF" fill-opacity="0.277818807286999" />
<circle cx="44.55295542394384" cy="62.812911084766334" r="4.059578819880925" fill="#FFFFFF" fill-opacity="0.3692198292348646" />
<circle cx="80.54217118860788" cy="178.3355317487796" r="2.7003194391880623" fill="#D2691E" fill-opacity="0.3297050248303071" />
<circle cx="154.26798096478782" cy="69.44890562189488" r="2.7048512100586324" fill="#8B4513" fill-opacity="0.4870540237766373" />
<circle cx="146.72476757086315" cy="32.81065951743295" r="3.703280575814828" fill="#FFFFFF" fill-opacity="0.27416068991579856" />
<circle cx="61.16098770627092" cy="43.59515332558171" r="4.861045994612555" fill="#D2691E" fill-opacity="0.4103759578656705" />
<circle cx="111.74734282868566" cy="144.11631623430662" r="5.475531970499118" fill="#D2691E" fill-opacity="0.34681065645554165" />
<circle cx="160.51308470240235" cy="94.65860899903622" r="3.1371416159679018" fill="#D2691E" fill-opacity="0.5001556818207191" />
<circle cx="28.04487946275212" cy="103.05939536280707" r="5.326519029454855" fill="#8B4513" fill-opacity="0.2102487475085246" />
<circle cx="67.90589522388811" cy="172.8535321284699" r="2.0048599482127925" fill="#FFFFFF" fill-opacity="0.5589428410205896" />
<circle cx="42.04356311238641" cy="90.18126460244169" r="5.97136310436014" fill="#FFFFFF" fill-opacity="0.377074237956718" />
<circle cx="128.81757686331323" cy="130.33571431144537" r="3.2510486127531335" fill="#FFFFFF" fill-opacity="0.4754307002408108" />
<circle cx="51.437662184091245" cy="81.59849827621144" r="4.202830046039907" fill="#D2691E" fill-opacity="0.5743389412906028" />
<circle cx="97.06011671771289" cy="140.38128932041545" r="2.641707491686508" fill="#FFDE75" fill-opacity="0.35309147463877844" />
<circle cx="122.97122522866037" cy="96.11659415842406" r="4.582138431946307" fill="#FFFFFF" fill-opacity="0.5599933389734639" />
<circle cx="136.79762385359018" cy="179.91073332547467" r="5.353256617258672" fill="#FFFFFF" fill-opacity="0.3460199467691096" />
<circle cx="70.7568849402972" cy="128.40542951400982" r="2.799222966812126" fill="#D2691E" fill-opacity="0.24060193100270977" />
<circle cx="79.74366198180206" cy="87.36167527139098" r="3.63991854084506" fill="#FFDE75" fill-opacity="0.254666724543547" />
<circle cx="20.735875731938563" cy="93.91887846719605" r="2.898393380816168" fill="#FFDE75" fill-opacity="0.5835242435432046" />
<circle cx="81.10621456723607" cy="94.94534616307337" r="5.8849366928176305" fill="#8B4513" fill-opacity="0.49281878983367255" />
<circle cx="68.21669715027932" cy="134.6815131175152" r="2.6438631232828183" fill="#D2691E" fill-opacity="0.584327741239913" />
<circle cx="63.79967004558624" cy="39.69127447085714" r="5.903423378226215" fill="#D2691E" fill-opacity="0.5306138529870514" />
<circle cx="48.52153731939435" cy="96.1398195682503" r="2.130672801167228" fill="#FFDE75" fill-opacity="0.4149300067909767" />
<circle cx="168.38576240039725" cy="86.54832631443134" r="3.584209295753708" fill="#D2691E" fill-opacity="0.5110798556704974" />
<circle cx="137.6314699904334" cy="143.90427619812218" r="3.4436523532360592" fill="#8B4513" fill-opacity="0.5364005985433629" />
<circle cx="103.6188175422855" cy="176.90665078456425" r="4.337890594937757" fill="#D2691E" fill-opacity="0.38344694482913705" />
<circle cx="91.07856538363944" cy="151.73363635350307" r="2.2053103482198457" fill="#D2691E" fill-opacity="0.22810005791006263" />
<circle cx="55.60372548541173" cy="141.59614152531398" r="5.064915997685724" fill="#FFFFFF" fill-opacity="0.2648514372101587" />
<circle cx="74.081693881498" cy="89.66049153099452" r="3.0358022805628027" fill="#D2691E" fill-opacity="0.49288561564398803" />
<circle cx="152.64432553750763" cy="89.83804130140936" r="3.48470126472198" fill="#D2691E" fill-opacity="0.33132427364009953" />
<circle cx="75.76020652080578" cy="70.02468982805709" r="2.703162227240906" fill="#FFFFFF" fill-opacity="0.2552943426714121" />
<circle cx="63.191463652245794" cy="60.68547235647227" r="5.4816251539165854" fill="#FFFFFF" fill-opacity="0.46966978121443065" />
<circle cx="122.37488856106528" cy="40.18614189180681" r="2.2270482400344247" fill="#FFDE75" fill-opacity="0.36434064095945573" />
<circle cx="172.0026713123034" cy="114.92957844156433" r="3.1938478669651045" fill="#FFDE75" fill-opacity="0.38025548082457017" />
<circle cx="119.6036803520809" cy="22.725233694552557" r="3.610691162661029" fill="#8B4513" fill-opacity="0.5409505928121872" />
<circle cx="138.11291927496362" cy="43.469091686427625" r="5.043809718701965" fill="#8B4513" fill-opacity="0.5011751856743195" />
<circle cx="183.1272619919724" cy="122.49678083021438" r="4.650881610152096" fill="#D2691E" fill-opacity="0.2750078798570607" />
<circle cx="140.8310673710563" cy="28.67149049616306" r="2.370557438234093" fill="#FFFFFF" fill-opacity="0.5438334208022804" />
<circle cx="63.89758393380168" cy="159.11192519862826" r="4.137557499475182" fill="#8B4513" fill-opacity="0.5864436932737791" />
<circle cx="80.72917553968473" cy="103.44481225314954" r="3.9271933743096517" fill="#FFFFFF" fill-opacity="0.4986979738362522" />
<circle cx="154.24016723255187" cy="91.16423206095257" r="4.506285962788731" fill="#FFDE75" fill-opacity="0.32280722243610127" />
<circle cx="63.03860772130684" cy="64.59926120114447" r="2.6118220816457827" fill="#8B4513" fill-opacity="0.20497929880657262" />
<circle cx="156.1582374746779" cy="160.69628002187187" r="3.011237143576326" fill="#D2691E" fill-opacity="0.5980599138236555" />
<circle cx="120.69249445653152" cy="61.258113322851315" r="2.7611419025156585" fill="#8B4513" fill-opacity="0.41428054038992945" />
<circle cx="168.84978902905414" cy="66.37215354317037" r="11.413283229639" fill="#C92A2A" stroke="#800000" stroke-width="1" />
<circle cx="173.81791165248904" cy="68.55688513858621" r="0.6692007418119922" fill="#FFA07A" fill-opacity="0.7" />
<circle cx="171.2040850861487" cy="67.12632534705587" r="1.4517594344504887" fill="#FFA07A" fill-opacity="0.7" />
<circle cx="163.46704661357163" cy="64.44709202573478" r="0.5089941979413923" fill="#FFA07A" fill-opacity="0.7" />
<circle cx="169.97785484182057" cy="70.15912832222648" r="0.6142313427282842" fill="#FFA07A" fill-opacity="0.7" />
<circle cx="172.11918247103196" cy="65.31619039748207" r="1.1615120289474754" fill="#FFA07A" fill-opacity="0.7" />
<circle cx="165.53946314612915" cy="67.98417522385942" r="0.9893333279926176" fill="#FFA07A" fill-opacity="0.7" />
<circle cx="167.81430540188657" cy="67.79551293033751" r="0.9610056592549189" fill="#FFA07A" fill-opacity="0.7" />
<circle cx="143.09236826841095" cy="158.66477337249748" r="9.284645531435448" fill="#C92A2A" stroke="#800000" stroke-width="1" />
<circle cx="144.96405202854632" cy="164.5215850798183" r="0.6793715639562746" fill="#FFA07A" fill-opacity="0.7" />
<circle cx="140.02790695950523" cy="154.38521231011697" r="0.645094950772723" fill="#FFA07A" fill-opacity="0.7" />
<circle cx="147.64176050086186" cy="154.998605240615" r="1.4168401271969238" fill="#FFA07A" fill-opacity="0.7" />
<circle cx="173.92447697330763" cy="122.99249678195045" r="11.51292580521551" fill="#C92A2A" stroke="#800000" stroke-width="1" />
<circle cx="178.42726580463457" cy="127.25665277479284" r="1.2986039631376958" fill="#FFA07A" fill-opacity="0.7" />
<circle cx="168.27542516088903" cy="122.23278515954188" r="1.0573569892025758" fill="#FFA07A" fill-opacity="0.7" />
<circle cx="170.9417921615928" cy="127.55807280798936" r="0.5664616907472265" fill="#FFA07A" fill-opacity="0.7" />
<circle cx="78.14431155578225" cy="52.157908381332376" r="9.757136274560407" fill="#C92A2A" stroke="#800000" stroke-width="1" />
<circle cx="82.41915913321458" cy="49.514985132415795" r="0.7904486094531854" fill="#FFA07A" fill-opacity="0.7" />
<circle cx="83.03541494218692" cy="54.37192408421956" r="0.9652084750125639" fill="#FFA07A" fill-opacity="0.7" />
<circle cx="73.38505177890325" cy="57.46480933856268" r="0.5411385747563019" fill="#FFA07A" fill-opacity="0.7" />
<circle cx="82.96350146057276" cy="56.95331310267867" r="1.2647497960798657" fill="#FFA07A" fill-opacity="0.7" />
<circle cx="176.03929773523328" cy="135.61560087841" r="11.825080402558289" fill="#C92A2A" stroke="#800000" stroke-width="1" />
<circle cx="174.57733902627905" cy="135.25640085017443" r="0.5026798776385262" fill="#FFA07A" fill-opacity="0.7" />
<circle cx="181.11376923491704" cy="136.06689031394697" r="1.3870383060721276" fill="#FFA07A" fill-opacity="0.7" />
<circle cx="172.87500457903948" cy="132.65000469413587" r="0.8212604387749032" fill="#FFA07A" fill-opacity="0.7" />
<circle cx="179.73547975564387" cy="135.12476580130442" r="1.2856776468085322" fill="#FFA07A" fill-opacity="0.7" />
<circle cx="91.91485551794553" cy="67.7248229342883" r="11.71820609559242" fill="#C92A2A" stroke="#800000" stroke-width="1" />
<circle cx="97.64190732378793" cy="64.32964148071" r="0.8179343634562891" fill="#FFA07A" fill-opacity="0.7" />
<circle cx="91.72636607915422" cy="71.06216381077397" r="0.8936320170739933" fill="#FFA07A" fill-opacity="0.7" />
<circle cx="96.30998620034627" cy="68.22693297476081" r="1.0494337064514598" fill="#FFA07A" fill-opacity="0.7" />
<circle cx="94.54169438877847" cy="72.66574170953305" r="0.8785780729829817" fill="#FFA07A" fill-opacity="0.7" />
<circle cx="93.30236430846091" cy="72.00739342685013" r="0.9330594631864946" fill="#FFA07A" fill-opacity="0.7" />
<circle cx="96.04573239404715" cy="70.61405178642082" r="0.6836013295934726" fill="#FFA07A" fill-opacity="0.7" />
<circle cx="152.64613470388772" cy="82.33893140044083" r="9.729387965815745" fill="#C92A2A" stroke="#800000" stroke-width="1" />
<circle cx="153.5861899300086" cy="83.93231309874034" r="0.6465711570870653" fill="#FFA07A" fill-opacity="0.7" />
<circle cx="151.90552582173285" cy="77.68027324119124" r="1.188032146965892" fill="#FFA07A" fill-opacity="0.7" />
<circle cx="149.132704496454" cy="88.0195969683021" r="0.8424457851396777" fill="#FFA07A" fill-opacity="0.7" />
<circle cx="158.1118697503361" cy="82.82947178587834" r="0.8498625716891205" fill="#FFA07A" fill-opacity="0.7" />
<circle cx="156.365989904766" cy="86.02329609469462" r="1.1807096781431188" fill="#FFA07A" fill-opacity="0.7" />
<circle cx="148.30193749580135" cy="78.74537224027347" r="0.5998825250493648" fill="#FFA07A" fill-opacity="0.7" />
<circle cx="157.17416600605128" cy="81.31251526703522" r="0.6126368590793896" fill="#FFA07A" fill-opacity="0.7" />
<circle cx="77.94115704704895" cy="103.0101865364722" r="11.108482567554635" fill="#C92A2A" stroke="#800000" stroke-width="1" />
<circle cx="74.86994255316323" cy="104.53853837840654" r="0.6495979849433586" fill="#FFA07A" fill-opacity="0.7" />
<circle cx="75.47285104589268" cy="108.151761148854" r="1.0080115568391366" fill="#FFA07A" fill-opacity="0.7" />
<circle cx="78.12056741312169" cy="103.27040151608209" r="1.4803950888622623" fill="#FFA07A" fill-opacity="0.7" />
<circle cx="73.81272926306788" cy="101.66655734514052" r="1.1640711439485196" fill="#FFA07A" fill-opacity="0.7" />
<circle cx="78.98533769652232" cy="104.39018857544589" r="1.3710083045647963" fill="#FFA07A" fill-opacity="0.7" />
<circle cx="76.87942428431063" cy="107.10251245521854" r="1.1628132751174907" fill="#FFA07A" fill-opacity="0.7" />
<circle cx="82.10843128188881" cy="102.46177683279828" r="1.1576099526528756" fill="#FFA07A" fill-opacity="0.7" />
<circle cx="160.61453986746872" cy="97.4342714641685" r="9.374565081234644" fill="#C92A2A" stroke="#800000" stroke-width="1" />
<circle cx="164.13688565111738" cy="102.52272667405063" r="1.3363900981194212" fill="#FFA07A" fill-opacity="0.7" />
<circle cx="157.30313345901885" cy="96.89966268755806" r="0.9028200900900345" fill="#FFA07A" fill-opacity="0.7" />
<circle cx="157.57512227634132" cy="101.24481812469877" r="0.7413614869014307" fill="#FFA07A" fill-opacity="0.7" />
<circle cx="162.70598842073642" cy="100.5375243687813" r="0.9829462029750216" fill="#FFA07A" fill-opacity="0.7" />
<circle cx="109.16570941050004" cy="90.23117714593081" r="11.688629413363035" fill="#C92A2A" stroke="#800000" stroke-width="1" />
<circle cx="108.59595033208764" cy="94.51806931999212" r="0.6736923939794226" fill="#FFA07A" fill-opacity="0.7" />
<circle cx="110.99906381568182" cy="91.6424264681004" r="1.3599795040761329" fill="#FFA07A" fill-opacity="0.7" />
<circle cx="110.28375555048918" cy="94.09885465894786" r="1.3098658552160023" fill="#FFA07A" fill-opacity="0.7" />
<circle cx="120.72290826332836" cy="88.02858925388267" r="11.767798797552762" fill="#C92A2A" stroke="#800000" stroke-width="1" />
<circle cx="116.30714523861207" cy="90.4943911537865" r="1.3249704730222547" fill="#FFA07A" fill-opacity="0.7" />
<circle cx="116.56911489128737" cy="89.62837550193748" r="1.3970177443823881" fill="#FFA07A" fill-opacity="0.7" />
<circle cx="123.45058165627069" cy="92.07484334680927" r="0.8804327781913004" fill="#FFA07A" fill-opacity="0.7" />
<circle cx="82.59872022780871" cy="139.35938523287842" r="10.866451616616857" fill="#C92A2A" stroke="#800000" stroke-width="1" />
<circle cx="76.66762386138507" cy="136.4523834173544" r="0.7100933715254575" fill="#FFA07A" fill-opacity="0.7" />
<circle cx="85.09049225995712" cy="141.70471249402" r="0.7042194302619873" fill="#FFA07A" fill-opacity="0.7" />
<circle cx="87.25576625586116" cy="144.95968082818916" r="1.0935139435708776" fill="#FFA07A" fill-opacity="0.7" />
<circle cx="77.039975422429" cy="139.37028549750337" r="1.3245966977885613" fill="#FFA07A" fill-opacity="0.7" />
</g>
<path d="M105.0,105.0 L105.0,205.0 A100,100,0,0,1,5.0,105.00000000000001 Z" fill="#F5C754" stroke="lightgray" stroke-width="2" />
<use xlink:href="#clip-4524453840-4536256976" />
<g clip-path="url(#clip-4524453840-4536256976)">
<circle cx="105.0" cy="105.0" r="92" stroke="#DAA05D" stroke-width="16" fill="none" />
<circle cx="105.0" cy="105.0" r="98" stroke="#C37B32" stroke-width="5" fill="none" />
<circle cx="54.94323998186593" cy="137.6913919267575" r="4.571521339428826" fill="#FFDE75" fill-opacity="0.4577242394091626" />
<circle cx="101.16747806440915" cy="180.58862955606503" r="3.010555575442136" fill="#FFFFFF" fill-opacity="0.277818807286999" />
<circle cx="44.55295542394384" cy="62.812911084766334" r="4.059578819880925" fill="#FFFFFF" fill-opacity="0.3692198292348646" />
<circle cx="80.54217118860788" cy="178.3355317487796" r="2.7003194391880623" fill="#D2691E" fill-opacity="0.3297050248303071" />
<circle cx="154.26798096478782" cy="69.44890562189488" r="2.7048512100586324" fill="#8B4513" fill-opacity="0.4870540237766373" />
<circle cx="146.72476757086315" cy="32.81065951743295" r="3.703280575814828" fill="#FFFFFF" fill-opacity="0.27416068991579856" />
<circle cx="61.16098770627092" cy="43.59515332558171" r="4.861045994612555" fill="#D2691E" fill-opacity="0.4103759578656705" />
<circle cx="111.74734282868566" cy="144.11631623430662" r="5.475531970499118" fill="#D2691E" fill-opacity="0.34681065645554165" />
<circle cx="160.51308470240235" cy="94.65860899903622" r="3.1371416159679018" fill="#D2691E" fill-opacity="0.5001556818207191" />
<circle cx="28.04487946275212" cy="103.05939536280707" r="5.326519029454855" fill="#8B4513" fill-opacity="0.2102487475085246" />
<circle cx="67.90589522388811" cy="172.8535321284699" r="2.0048599482127925" fill="#FFFFFF" fill-opacity="0.5589428410205896" />
<circle cx="42.04356311238641" cy="90.18126460244169" r="5.97136310436014" fill="#FFFFFF" fill-opacity="0.377074237956718" />
<circle cx="128.81757686331323" cy="130.33571431144537" r="3.2510486127531335" fill="#FFFFFF" fill-opacity="0.4754307002408108" />
<circle cx="51.437662184091245" cy="81.59849827621144" r="4.202830046039907" fill="#D2691E" fill-opacity="0.5743389412906028" />
<circle cx="97.06011671771289" cy="140.38128932041545" r="2.641707491686508" fill="#FFDE75" fill-opacity="0.35309147463877844" />
<circle cx="122.97122522866037" cy="96.11659415842406" r="4.582138431946307" fill="#FFFFFF" fill-opacity="0.5599933389734639" />
<circle cx="136.79762385359018" cy="179.91073332547467" r="5.353256617258672" fill="#FFFFFF" fill-opacity="0.3460199467691096" />
<circle cx="70.7568849402972" cy="128.40542951400982" r="2.799222966812126" fill="#D2691E" fill-opacity="0.24060193100270977" />
<circle cx="79.74366198180206" cy="87.36167527139098" r="3.63991854084506" fill="#FFDE75" fill-opacity="0.254666724543547" />
<circle cx="20.735875731938563" cy="93.91887846719605" r="2.898393380816168" fill="#FFDE75" fill-opacity="0.5835242435432046" />
<circle cx="81.10621456723607" cy="94.94534616307337" r="5.8849366928176305" fill="#8B4513" fill-opacity="0.49281878983367255" />
<circle cx="68.21669715027932" cy="134.6815131175152" r="2.6438631232828183" fill="#D2691E" fill-opacity="0.584327741239913" />
<circle cx="63.79967004558624" cy="39.69127447085714" r="5.903423378226215" fill="#D2691E" fill-opacity="0.5306138529870514" />
<circle cx="48.52153731939435" cy="96.1398195682503" r="2.130672801167228" fill="#FFDE75" fill-opacity="0.4149300067909767" />
<circle cx="168.38576240039725" cy="86.54832631443134" r="3.584209295753708" fill="#D2691E" fill-opacity="0.5110798556704974" />
<circle cx="137.6314699904334" cy="143.90427619812218" r="3.4436523532360592" fill="#8B4513" fill-opacity="0.5364005985433629" />
<circle cx="103.6188175422855" cy="176.90665078456425" r="4.337890594937757" fill="#D2691E" fill-opacity="0.38344694482913705" />
<circle cx="91.07856538363944" cy="151.73363635350307" r="2.2053103482198457" fill="#D2691E" fill-opacity="0.22810005791006263" />
<circle cx="55.60372548541173" cy="141.59614152531398" r="5.064915997685724" fill="#FFFFFF" fill-opacity="0.2648514372101587" />
<circle cx="74.081693881498" cy="89.66049153099452" r="3.0358022805628027" fill="#D2691E" fill-opacity="0.49288561564398803" />
<circle cx="152.64432553750763" cy="89.83804130140936" r="3.48470126472198" fill="#D2691E" fill-opacity="0.33132427364009953" />
<circle cx="75.76020652080578" cy="70.02468982805709" r="2.703162227240906" fill="#FFFFFF" fill-opacity="0.2552943426714121" />
<circle cx="63.191463652245794" cy="60.68547235647227" r="5.4816251539165854" fill="#FFFFFF" fill-opacity="0.46966978121443065" />
<circle cx="122.37488856106528" cy="40.18614189180681" r="2.2270482400344247" fill="#FFDE75" fill-opacity="0.36434064095945573" />
<circle cx="172.0026713123034" cy="114.92957844156433" r="3.1938478669651045" fill="#FFDE75" fill-opacity="0.38025548082457017" />
<circle cx="119.6036803520809" cy="22.725233694552557" r="3.610691162661029" fill="#8B4513" fill-opacity="0.5409505928121872" />
<circle cx="138.11291927496362" cy="43.469091686427625" r="5.043809718701965" fill="#8B4513" fill-opacity="0.5011751856743195" />
<circle cx="183.1272619919724" cy="122.49678083021438" r="4.650881610152096" fill="#D2691E" fill-opacity="0.2750078798570607" />
<circle cx="140.8310673710563" cy="28.67149049616306" r="2.370557438234093" fill="#FFFFFF" fill-opacity="0.5438334208022804" />
<circle cx="63.89758393380168" cy="159.11192519862826" r="4.137557499475182" fill="#8B4513" fill-opacity="0.5864436932737791" />
<circle cx="80.72917553968473" cy="103.44481225314954" r="3.9271933743096517" fill="#FFFFFF" fill-opacity="0.4986979738362522" />
<circle cx="154.24016723255187" cy="91.16423206095257" r="4.506285962788731" fill="#FFDE75" fill-opacity="0.32280722243610127" />
<circle cx="63.03860772130684" cy="64.59926120114447" r="2.6118220816457827" fill="#8B4513" fill-opacity="0.20497929880657262" />
<circle cx="156.1582374746779" cy="160.69628002187187" r="3.011237143576326" fill="#D2691E" fill-opacity="0.5980599138236555" />
<circle cx="120.69249445653152" cy="61.258113322851315" r="2.7611419025156585" fill="#8B4513" fill-opacity="0.41428054038992945" />
<circle cx="168.84978902905414" cy="66.37215354317037" r="11.413283229639" fill="#C92A2A" stroke="#800000" stroke-width="1" />
<circle cx="173.81791165248904" cy="68.55688513858621" r="0.6692007418119922" fill="#FFA07A" fill-opacity="0.7" />
<circle cx="171.2040850861487" cy="67.12632534705587" r="1.4517594344504887" fill="#FFA07A" fill-opacity="0.7" />
<circle cx="163.46704661357163" cy="64.44709202573478" r="0.5089941979413923" fill="#FFA07A" fill-opacity="0.7" />
<circle cx="169.97785484182057" cy="70.15912832222648" r="0.6142313427282842" fill="#FFA07A" fill-opacity="0.7" />
<circle cx="172.11918247103196" cy="65.31619039748207" r="1.1615120289474754" fill="#FFA07A" fill-opacity="0.7" />
<circle cx="165.53946314612915" cy="67.98417522385942" r="0.9893333279926176" fill="#FFA07A" fill-opacity="0.7" />
<circle cx="167.81430540188657" cy="67.79551293033751" r="0.9610056592549189" fill="#FFA07A" fill-opacity="0.7" />
<circle cx="143.09236826841095" cy="158.66477337249748" r="9.284645531435448" fill="#C92A2A" stroke="#800000" stroke-width="1" />
<circle cx="144.96405202854632" cy="164.5215850798183" r="0.6793715639562746" fill="#FFA07A" fill-opacity="0.7" />
<circle cx="140.02790695950523" cy="154.38521231011697" r="0.645094950772723" fill="#FFA07A" fill-opacity="0.7" />
<circle cx="147.64176050086186" cy="154.998605240615" r="1.4168401271969238" fill="#FFA07A" fill-opacity="0.7" />
<circle cx="173.92447697330763" cy="122.99249678195045" r="11.51292580521551" fill="#C92A2A" stroke="#800000" stroke-width="1" />
<circle cx="178.42726580463457" cy="127.25665277479284" r="1.2986039631376958" fill="#FFA07A" fill-opacity="0.7" />
<circle cx="168.27542516088903" cy="122.23278515954188" r="1.0573569892025758" fill="#FFA07A" fill-opacity="0.7" />
<circle cx="170.9417921615928" cy="127.55807280798936" r="0.5664616907472265" fill="#FFA07A" fill-opacity="0.7" />
<circle cx="78.14431155578225" cy="52.157908381332376" r="9.757136274560407" fill="#C92A2A" stroke="#800000" stroke-width="1" />
<circle cx="82.41915913321458" cy="49.514985132415795" r="0.7904486094531854" fill="#FFA07A" fill-opacity="0.7" />
<circle cx="83.03541494218692" cy="54.37192408421956" r="0.9652084750125639" fill="#FFA07A" fill-opacity="0.7" />
<circle cx="73.38505177890325" cy="57.46480933856268" r="0.5411385747563019" fill="#FFA07A" fill-opacity="0.7" />
<circle cx="82.96350146057276" cy="56.95331310267867" r="1.2647497960798657" fill="#FFA07A" fill-opacity="0.7" />
<circle cx="176.03929773523328" cy="135.61560087841" r="11.825080402558289" fill="#C92A2A" stroke="#800000" stroke-width="1" />
<circle cx="174.57733902627905" cy="135.25640085017443" r="0.5026798776385262" fill="#FFA07A" fill-opacity="0.7" />
<circle cx="181.11376923491704" cy="136.06689031394697" r="1.3870383060721276" fill="#FFA07A" fill-opacity="0.7" />
<circle cx="172.87500457903948" cy="132.65000469413587" r="0.8212604387749032" fill="#FFA07A" fill-opacity="0.7" />
<circle cx="179.73547975564387" cy="135.12476580130442" r="1.2856776468085322" fill="#FFA07A" fill-opacity="0.7" />
<circle cx="91.91485551794553" cy="67.7248229342883" r="11.71820609559242" fill="#C92A2A" stroke="#800000" stroke-width="1" />
<circle cx="97.64190732378793" cy="64.32964148071" r="0.8179343634562891" fill="#FFA07A" fill-opacity="0.7" />
<circle cx="91.72636607915422" cy="71.06216381077397" r="0.8936320170739933" fill="#FFA07A" fill-opacity="0.7" />
<circle cx="96.30998620034627" cy="68.22693297476081" r="1.0494337064514598" fill="#FFA07A" fill-opacity="0.7" />
<circle cx="94.54169438877847" cy="72.66574170953305" r="0.8785780729829817" fill="#FFA07A" fill-opacity="0.7" />
<circle cx="93.30236430846091" cy="72.00739342685013" r="0.9330594631864946" fill="#FFA07A" fill-opacity="0.7" />
<circle cx="96.04573239404715" cy="70.61405178642082" r="0.6836013295934726" fill="#FFA07A" fill-opacity="0.7" />
<circle cx="152.64613470388772" cy="82.33893140044083" r="9.729387965815745" fill="#C92A2A" stroke="#800000" stroke-width="1" />
<circle cx="153.5861899300086" cy="83.93231309874034" r="0.6465711570870653" fill="#FFA07A" fill-opacity="0.7" />
<circle cx="151.90552582173285" cy="77.68027324119124" r="1.188032146965892" fill="#FFA07A" fill-opacity="0.7" />
<circle cx="149.132704496454" cy="88.0195969683021" r="0.8424457851396777" fill="#FFA07A" fill-opacity="0.7" />
<circle cx="158.1118697503361" cy="82.82947178587834" r="0.8498625716891205" fill="#FFA07A" fill-opacity="0.7" />
<circle cx="156.365989904766" cy="86.02329609469462" r="1.1807096781431188" fill="#FFA07A" fill-opacity="0.7" />
<circle cx="148.30193749580135" cy="78.74537224027347" r="0.5998825250493648" fill="#FFA07A" fill-opacity="0.7" />
<circle cx="157.17416600605128" cy="81.31251526703522" r="0.6126368590793896" fill="#FFA07A" fill-opacity="0.7" />
<circle cx="77.94115704704895" cy="103.0101865364722" r="11.108482567554635" fill="#C92A2A" stroke="#800000" stroke-width="1" />
<circle cx="74.86994255316323" cy="104.53853837840654" r="0.6495979849433586" fill="#FFA07A" fill-opacity="0.7" />
<circle cx="75.47285104589268" cy="108.151761148854" r="1.0080115568391366" fill="#FFA07A" fill-opacity="0.7" />
<circle cx="78.12056741312169" cy="103.27040151608209" r="1.4803950888622623" fill="#FFA07A" fill-opacity="0.7" />
<circle cx="73.81272926306788" cy="101.66655734514052" r="1.1640711439485196" fill="#FFA07A" fill-opacity="0.7" />
<circle cx="78.98533769652232" cy="104.39018857544589" r="1.3710083045647963" fill="#FFA07A" fill-opacity="0.7" />
<circle cx="76.87942428431063" cy="107.10251245521854" r="1.1628132751174907" fill="#FFA07A" fill-opacity="0.7" />
<circle cx="82.10843128188881" cy="102.46177683279828" r="1.1576099526528756" fill="#FFA07A" fill-opacity="0.7" />
<circle cx="160.61453986746872" cy="97.4342714641685" r="9.374565081234644" fill="#C92A2A" stroke="#800000" stroke-width="1" />
<circle cx="164.13688565111738" cy="102.52272667405063" r="1.3363900981194212" fill="#FFA07A" fill-opacity="0.7" />
<circle cx="157.30313345901885" cy="96.89966268755806" r="0.9028200900900345" fill="#FFA07A" fill-opacity="0.7" />
<circle cx="157.57512227634132" cy="101.24481812469877" r="0.7413614869014307" fill="#FFA07A" fill-opacity="0.7" />
<circle cx="162.70598842073642" cy="100.5375243687813" r="0.9829462029750216" fill="#FFA07A" fill-opacity="0.7" />
<circle cx="109.16570941050004" cy="90.23117714593081" r="11.688629413363035" fill="#C92A2A" stroke="#800000" stroke-width="1" />
<circle cx="108.59595033208764" cy="94.51806931999212" r="0.6736923939794226" fill="#FFA07A" fill-opacity="0.7" />
<circle cx="110.99906381568182" cy="91.6424264681004" r="1.3599795040761329" fill="#FFA07A" fill-opacity="0.7" />
<circle cx="110.28375555048918" cy="94.09885465894786" r="1.3098658552160023" fill="#FFA07A" fill-opacity="0.7" />
<circle cx="120.72290826332836" cy="88.02858925388267" r="11.767798797552762" fill="#C92A2A" stroke="#800000" stroke-width="1" />
<circle cx="116.30714523861207" cy="90.4943911537865" r="1.3249704730222547" fill="#FFA07A" fill-opacity="0.7" />
<circle cx="116.56911489128737" cy="89.62837550193748" r="1.3970177443823881" fill="#FFA07A" fill-opacity="0.7" />
<circle cx="123.45058165627069" cy="92.07484334680927" r="0.8804327781913004" fill="#FFA07A" fill-opacity="0.7" />
<circle cx="82.59872022780871" cy="139.35938523287842" r="10.866451616616857" fill="#C92A2A" stroke="#800000" stroke-width="1" />
<circle cx="76.66762386138507" cy="136.4523834173544" r="0.7100933715254575" fill="#FFA07A" fill-opacity="0.7" />
<circle cx="85.09049225995712" cy="141.70471249402" r="0.7042194302619873" fill="#FFA07A" fill-opacity="0.7" />
<circle cx="87.25576625586116" cy="144.95968082818916" r="1.0935139435708776" fill="#FFA07A" fill-opacity="0.7" />
<circle cx="77.039975422429" cy="139.37028549750337" r="1.3245966977885613" fill="#FFA07A" fill-opacity="0.7" />
</g>
<rect x="230.0" y="41.0" width="54.0" height="54.0" fill="none" stroke="black" stroke-width="2" />
<rect x="230.0" y="115.0" width="54.0" height="54.0" fill="none" stroke="black" stroke-width="2" />
<path d="M225.0,105.0 L289.0,105.0" stroke="black" stroke-width="2" />
</g>
</svg>
</svg>