<svg width="678.0" height="210.0" xmlns="http://www.w3.org/2000/svg" xmlns:xlink="http://www.w3.org/1999/xlink">
<svg x="0.0" y="0.0" width="284.0" height="210.0" viewBox="0 0 284.0 210" xmlns="http://www.w3.org/2000/svg" xmlns:xlink="http://www.w3.org/1999/xlink">
<defs>
<clipPath id="clip-4471820896-4471970256">
<circle cx="105.0" cy="105.0" r="100" fill="none" />
</clipPath>
</defs>
<g>
<circle cx="105.0" cy="105.0" r="100" fill="#F5C754" />
<use xlink:href="#clip-4471820896-4471970256" />
<g clip-path="url(#clip-4471820896-4471970256)">
<circle cx="105.0" cy="105.0" r="92" stroke="#DAA05D" stroke-width="16" fill="none" />
<circle cx="105.0" cy="105.0" r="98" stroke="#C37B32" stroke-width="5" fill="none" />
<circle cx="30.817107791984284" cy="109.20715237341868" r="4.727469256100733" fill="#FFFFFF" fill-opacity="0.457287539424534" />
<circle cx="87.05291982767724" cy="70.36872651944219" r="2.597979736219222" fill="#FFDE75" fill-opacity="0.37511636217462796" />
<circle cx="160.03481234399675" cy="66.09370168173322" r="2.532497389475224" fill="#FFDE75" fill-opacity="0.32836737665203125" />
<circle cx="169.19490885888425" cy="92.85775254021445" r="3.6734577838157465" fill="#FFDE75" fill-opacity="0.25106782529517424" />
<circle cx="47.44143305983004" cy="114.26243381586505" r="5.576113151927377" fill="#D2691E" fill-opacity="0.3306038970763564" />
<circle cx="100.27651498262595" cy="164.2957337363715" r="2.0042420390514786" fill="#FFFFFF" fill-opacity="0.5714325398621736" />
<circle cx="151.2424674794948" cy="168.55758112192083" r="4.530829840613622" fill="#FFFFFF" fill-opacity="0.35835249269537306" />
<circle cx="129.12751119600486" cy="139.96651132479366" r="5.097389016717269" fill="#FFFFFF" fill-opacity="0.49327375031708803" />
<circle cx="69.21076443975036" cy="171.49163688269385" r="2.162440995785981" fill="#FFDE75" fill-opacity="0.39243285970748787" />
<circle cx="165.60705078132654" cy="119.53140984681723" r="2.120231002140085" fill="#8B4513" fill-opacity="0.26865479757942345" />
<circle cx="136.62217121658253" cy="55.00310528668127" r="5.110144034863232" fill="#FFDE75" fill-opacity="0.46728665451196605" />
<circle cx="81.88957127967672" cy="95.88816244927986" r="5.375302945312676" fill="#FFFFFF" fill-opacity="0.39680044524294056" />
<circle cx="51.48261300491268" cy="170.61212984456597" r="2.695901788485132" fill="#D2691E" fill-opacity="0.42833382282418875" />
<circle cx="67.12733211937146" cy="125.46315732758154" r="5.3424997045519795" fill="#FFDE75" fill-opacity="0.5677371859182756" />
<circle cx="88.917995726052" cy="52.396097422390106" r="3.236745273568939" fill="#8B4513" fill-opacity="0.3252381234523545" />
<circle cx="162.38785149945338" cy="152.0094892938299" r="5.282865487575341" fill="#FFDE75" fill-opacity="0.3944084270673764" />
<circle cx="56.10097730420424" cy="58.96960253392636" r="4.757265080046496" fill="#D2691E" fill-opacity="0.37176912735352907" />
<circle cx="157.0504596682583" cy="58.67634014295964" r="4.223709569604576" fill="#8B4513" fill-opacity="0.2758242452119769" />
<circle cx="138.5448609044745" cy="127.54775460582056" r="3.536136268802275" fill="#FFFFFF" fill-opacity="0.484277138671843" />
<circle cx="70.0739086545893" cy="136.96265316444197" r="3.181109295972556" fill="#8B4513" fill-opacity="0.4143857521724753" />
<circle cx="76.6319921503567" cy="44.46507821410821" r="5.784888082204839" fill="#FFFFFF" fill-opacity="0.3201384672950922" />
<circle cx="128.95771119794216" cy="52.27992655763445" r="4.783583208422136" fill="#FFFFFF" fill-opacity="0.2532880723065183" />
<circle cx="152.10431275511235" cy="86.31332818845878" r="4.651460366543839" fill="#D2691E" fill-opacity="0.5610562530029259" />
<circle cx="170.83753900052682" cy="140.40621018775164" r="3.5470142258665005" fill="#D2691E" fill-opacity="0.2083761148851623" />
<circle cx="37.49614671125808" cy="77.98222683032088" r="4.136898900793396" fill="#8B4513" fill-opacity="0.5710366151442137" />
<circle cx="124.64664651887023" cy="171.6542665923264" r="4.241323983403948" fill="#8B4513" fill-opacity="0.5227736165400947" />
<circle cx="93.09162837885215" cy="88.8190182836475" r="2.7693477563162374" fill="#FFDE75" fill-opacity="0.5243100554976471" />
<circle cx="86.86326363232399" cy="80.64209387023035" r="5.526759129050596" fill="#8B4513" fill-opacity="0.5289003801502412" />
<circle cx="146.90619886989612" cy="132.51108894799148" r="5.985363615314014" fill="#8B4513" fill-opacity="0.5181720465222583" />
<circle cx="161.31747977142797" cy="96.22470963972094" r="4.00693963671886" fill="#D2691E" fill-opacity="0.2540141621712732" />
<circle cx="121.95055571504929" cy="59.158218492796095" r="3.9012410160244197" fill="#8B4513" fill-opacity="0.27061167611743875" />
<circle cx="140.90699723129902" cy="179.3773287231421" r="5.199234446034419" fill="#FFDE75" fill-opacity="0.27580981660834253" />
<circle cx="117.20847339373694" cy="21.333359270079768" r="4.216317590756841" fill="#FFDE75" fill-opacity="0.4458131300922975" />
<circle cx="74.38231036699922" cy="99.49248098473579" r="5.938571893395006" fill="#FFFFFF" fill-opacity="0.42362985116685503" />
<circle cx="135.59684175364842" cy="162.59881734176884" r="3.892561690558672" fill="#D2691E" fill-opacity="0.40716684443528955" />
<circle cx="122.10888080502308" cy="27.3576705974627" r="5.865084079375419" fill="#FFFFFF" fill-opacity="0.2421777139796042" />
<circle cx="114.94976993313543" cy="130.65316598684416" r="3.653321805744303" fill="#D2691E" fill-opacity="0.5904768446527842" />
<circle cx="89.3088653063871" cy="113.79634670921169" r="2.811676589643022" fill="#FFFFFF" fill-opacity="0.5012598308660761" />
<circle cx="116.41379609271794" cy="46.05972664617238" r="4.711927316850192" fill="#D2691E" fill-opacity="0.4829788745132033" />
<circle cx="125.08271214634397" cy="52.152270062608125" r="5.4242187624359035" fill="#FFFFFF" fill-opacity="0.20592050795750594" />
<circle cx="25.14454726296023" cy="131.31136340868966" r="5.243515182461653" fill="#8B4513" fill-opacity="0.3457914704174009" />
<circle cx="181.29655267907503" cy="122.52955366664271" r="3.6972782027496973" fill="#8B4513" fill-opacity="0.4530661520905062" />
<circle cx="69.43475799808579" cy="62.268364985554896" r="4.591676015830421" fill="#FFFFFF" fill-opacity="0.5435756803795506" />
<circle cx="47.43288578721585" cy="48.69029795541566" r="3.3312816740128253" fill="#FFFFFF" fill-opacity="0.35571254947763176" />
<circle cx="45.75453973617737" cy="160.05242459871317" r="2.289184698572803" fill="#FFFFFF" fill-opacity="0.4254107157676356" />
<circle cx="138.08595748061148" cy="160.38388601114144" r="2.0218383934955204" fill="#8B4513" fill-opacity="0.3314042619231225" />
<circle cx="63.193825918847416" cy="164.79136389164313" r="3.998282321486012" fill="#8B4513" fill-opacity="0.42769484593688123" />
<circle cx="136.4234348732563" cy="178.56176936713842" r="4.298674260959759" fill="#FFFFFF" fill-opacity="0.4119375313039521" />
<circle cx="102.40544698219222" cy="102.06776893835467" r="5.019832413072159" fill="#D2691E" fill-opacity="0.49291860800387965" />
<circle cx="151.08732655475512" cy="44.52231284363829" r="3.617732446753556" fill="#8B4513" fill-opacity="0.4631763994693457" />
<circle cx="106.35578819067051" cy="177.2772665516619" r="4.496609760803109" fill="#8B4513" fill-opacity="0.2001705099287693" />
<circle cx="171.36641924710239" cy="60.4544475501485" r="5.340604328112225" fill="#D2691E" fill-opacity="0.550860616685845" />
<circle cx="180.93593606355546" cy="92.65020608755421" r="4.78432870765724" fill="#FFFFFF" fill-opacity="0.470628442660392" />
<circle cx="153.73621304296657" cy="123.95807836978585" r="2.7812683237805986" fill="#FFDE75" fill-opacity="0.415641765665411" />
<circle cx="146.7902740012097" cy="126.59862417411173" r="2.1554981902706105" fill="#FFDE75" fill-opacity="0.5738706390295607" />
<circle cx="125.6299956623802" cy="39.043268122663505" r="4.701940422365795" fill="#8B4513" fill-opacity="0.365598102835225" />
<circle cx="79.88049256258797" cy="138.0646559991758" r="3.4628776894487143" fill="#FFFFFF" fill-opacity="0.2471438491511218" />
<circle cx="80.49486456731717" cy="43.65367309868042" r="4.90778596152124" fill="#FFDE75" fill-opacity="0.4642454927924699" />
<circle cx="93.50142396826504" cy="125.3941513526754" r="2.238449467033877" fill="#FFFFFF" fill-opacity="0.28374361704587175" />
<circle cx="75.12938162526046" cy="65.34587109372185" r="4.859673648769633" fill="#8B4513" fill-opacity="0.5274622212432863" />
<circle cx="96.68141725601095" cy="75.39927064034376" r="2.364261700195795" fill="#FFFFFF" fill-opacity="0.22944301423195057" />
<circle cx="85.69054441285098" cy="160.55555666106562" r="3.3261824671833784" fill="#8B4513" fill-opacity="0.5534030219475021" />
<circle cx="170.34249610520237" cy="88.50104687904341" r="4.50187989786987" fill="#D2691E" fill-opacity="0.4718951325127739" />
<circle cx="52.09668507082105" cy="94.19133989504189" r="4.269270217402399" fill="#FFDE75" fill-opacity="0.3355525671552588" />
<circle cx="69.27550620325042" cy="90.12280218116668" r="2.2507917781364863" fill="#FFDE75" fill-opacity="0.29329285376720743" />
<circle cx="40.270769631657615" cy="128.79310092830912" r="4.302332127285614" fill="#FFDE75" fill-opacity="0.28127732605112393" />
<circle cx="88.55253387796485" cy="37.24379704597932" r="4.675770605719783" fill="#D2691E" fill-opacity="0.5674735119547412" />
<circle cx="40.932735832691165" cy="136.00315816183237" r="4.034208495563361" fill="#FFDE75" fill-opacity="0.21390942357253878" />
<circle cx="152.6765899460257" cy="78.2566597824819" r="4.217861695551962" fill="#FFFFFF" fill-opacity="0.5340731637796752" />
<circle cx="154.2621225995374" cy="101.60306884536547" r="4.557027298943467" fill="#FFFFFF" fill-opacity="0.4252845813696625" />
<circle cx="179.24629826114767" cy="96.75710414004318" r="5.220331118878438" fill="#8B4513" fill-opacity="0.345266864540572" />
<circle cx="152.1613716145861" cy="83.40724701872361" r="5.815801597574452" fill="#D2691E" fill-opacity="0.26170679050113965" />
<circle cx="20.82116416533991" cy="96.96102451483806" r="2.6015184934247118" fill="#8B4513" fill-opacity="0.4203665696020966" />
<circle cx="138.35315539023213" cy="73.18951570082615" r="3.1068931572737446" fill="#FFDE75" fill-opacity="0.3332745252742089" />
<circle cx="105.14987680902176" cy="74.9615588735758" r="5.1500107802224795" fill="#FFDE75" fill-opacity="0.4943280066224397" />
<ellipse cx="116.14964819670588" cy="108.72798850159676" rx="8.533013219447614" ry="4.009334109732406" fill="#FFFDF0" fill-opacity="0.6" />
<ellipse cx="117.08816298275228" cy="107.75872304981215" rx="2.707176947211375" ry="2.525622601778176" fill="#FFFFFF" fill-opacity="0.85" />
<ellipse cx="66.90636293062173" cy="107.81796391830878" rx="7.447143843974391" ry="6.415000656620904" fill="#FFFDF0" fill-opacity="0.6" />
<ellipse cx="67.6140749074347" cy="107.93026503075261" rx="2.2094267082231855" ry="2.922784840068667" fill="#FFFFFF" fill-opacity="0.85" />
<ellipse cx="95.70719757953538" cy="24.163130518108858" rx="8.274956246366353" ry="7.900901509315942" fill="#FFFDF0" fill-opacity="0.6" />
<ellipse cx="95.10833218836743" cy="23.63905415761462" rx="3.740070825372989" ry="3.646520051864405" fill="#FFFFFF" fill-opacity="0.85" />
<ellipse cx="148.0714697178698" cy="144.59567658997517" rx="6.530719609272888" ry="4.818130253503852" fill="#FFFDF0" fill-opacity="0.6" />
<ellipse cx="148.6320711418303" cy="144.9687178799479" rx="4.513235308115412" ry="3.399623401821029" fill="#FFFFFF" fill-opacity="0.85" />
<ellipse cx="158.70001622139486" cy="135.92431846098236" rx="8.302105582983629" ry="5.279581965316976" fill="#FFFDF0" fill-opacity="0.6" />
<ellipse cx="159.22872267194705" cy="135.68644862805056" rx="4.6942157651278125" ry="2.647922622870841" fill="#FFFFFF" fill-opacity="0.85" />
<ellipse cx="170.39195072358396" cy="78.67545146133844" rx="7.459243551799498" ry="6.054553261076022" fill="#FFFDF0" fill-opacity="0.6" />
<ellipse cx="170.33366268612912" cy="78.29526469053454" rx="4.093950239963734" ry="2.651665037415411" fill="#FFFFFF" fill-opacity="0.85" />
<ellipse cx="139.4711907054691" cy="44.38532809567667" rx="5.196396753720244" ry="5.797486927706216" fill="#FFFDF0" fill-opacity="0.6" />
<ellipse cx="138.51925923596906" cy="44.78592101671047" rx="4.860895414113265" ry="3.859961234252051" fill="#FFFFFF" fill-opacity="0.85" />
<ellipse cx="106.29547644899479" cy="128.22431905410664" rx="7.542134602207577" ry="8.456007141974741" fill="#FFFDF0" fill-opacity="0.6" />
<ellipse cx="105.99796780327016" cy="127.90820250683527" rx="4.512652757689446" ry="2.566620059855169" fill="#FFFFFF" fill-opacity="0.85" />
<ellipse cx="174.49128539989823" cy="143.40119934249867" rx="8.448538035609431" ry="7.0782052439840815" fill="#FFFDF0" fill-opacity="0.6" />
<ellipse cx="175.29692192067915" cy="142.40336953765907" rx="2.588713551979933" ry="2.4896515480561456" fill="#FFFFFF" fill-opacity="0.85" />
<ellipse cx="100.57885967244412" cy="89.57237787750161" rx="6.774536129475688" ry="5.265071884163353" fill="#FFFDF0" fill-opacity="0.6" />
<ellipse cx="99.82025154444452" cy="89.00812902206492" rx="4.389543374308916" ry="3.9699996628813254" fill="#FFFFFF" fill-opacity="0.85" />
<ellipse cx="99.14580864117895" cy="170.48172575506317" rx="5.672906463374458" ry="6.561105933493571" fill="#FFFDF0" fill-opacity="0.6" />
<ellipse cx="98.36288741110272" cy="171.38154701087885" rx="4.862374573899099" ry="2.347179707250552" fill="#FFFFFF" fill-opacity="0.85" />
<ellipse cx="119.79181225130576" cy="146.96674115375185" rx="6.57630743338957" ry="6.734918934968895" fill="#FFFDF0" fill-opacity="0.6" />
<ellipse cx="119.48879540517419" cy="147.16612323495946" rx="3.2142955190856615" ry="2.9838535692193697" fill="#FFFFFF" fill-opacity="0.85" />
<ellipse cx="159.20276255056348" cy="156.08938602133824" rx="7.3593936094112316" ry="8.65340181709827" fill="#FFFDF0" fill-opacity="0.6" />
<ellipse cx="159.62758283169077" cy="155.37280911668685" rx="2.3936268015773443" ry="3.2091944925292744" fill="#FFFFFF" fill-opacity="0.85" />
<ellipse cx="91.089227847324" cy="179.72051090829234" rx="8.721975101097307" ry="6.515338549474184" fill="#FFFDF0" fill-opacity="0.6" />
<ellipse cx="90.60737577607999" cy="179.161113163718" rx="2.536375674897076" ry="3.894349961838502" fill="#FFFFFF" fill-opacity="0.85" />
<ellipse cx="97.72704888673734" cy="144.87976010198577" rx="9.803020804554844" ry="6.728490952991232" fill="#FFFDF0" fill-opacity="0.6" />
<ellipse cx="97.07978650928146" cy="145.05491317911353" rx="4.9943109872731775" ry="2.2828894511915667" fill="#FFFFFF" fill-opacity="0.85" />
</g>
<path d="M105.0,105.0 L105.0,5.0" stroke="lightgray" stroke-width="2" />
<path d="M105.0,105.0 L200.10565162951536,74.09830056250526" stroke="lightgray" stroke-width="2" />
<path d="M105.0,105.0 L163.77852522924732,185.90169943749476" stroke="lightgray" stroke-width="2" />
<path d="M105.0,105.0 L46.2214747707527,185.90169943749476" stroke="lightgray" stroke-width="2" />
<path d="M105.0,105.0 L9.894348370484636,74.09830056250527" stroke="lightgray" stroke-width="2" />
<circle cx="105.0" cy="105.0" r="100" fill="none" stroke="lightgray" stroke-width="2" />
<rect x="230.0" y="41.0" width="54.0" height="54.0" fill="none" stroke="black" stroke-width="2" />
<rect x="230.0" y="115.0" width="54.0" height="54.0" fill="none" stroke="black" stroke-width="2" />
<path d="M225.0,105.0 L289.0,105.0" stroke="black" stroke-width="2" />
<text x="257.0" y="68.0" font-size="36" font-family="Comic Sans MS, Comic Sans, cursive" dominant-baseline="middle" fill="black" text-anchor="middle">5</text>
<text x="257.0" y="142.0" font-size="36" font-family="Comic Sans MS, Comic Sans, cursive" dominant-baseline="middle" fill="black" text-anchor="middle">5</text>
</g>
</svg>
<rect x="299.0" y="65.0" width="80" height="80" fill="none" stroke="black" stroke-width="1.5"/>
<svg x="394.0" y="0.0" width="284.0" height="210.0" viewBox="0 0 284.0 210" xmlns="http://www.w3.org/2000/svg" xmlns:xlink="http://www.w3.org/1999/xlink">
<defs>
<clipPath id="clip-4472389376-4535503312">
<path d="M105.0,105.0 L105.0,5.0 A100,100,0,0,1,200.10565162951536,74.09830056250526 Z" fill="none" />
</clipPath>
<clipPath id="clip-4472389376-4535506640">
<path d="M105.0,105.0 L200.10565162951536,74.09830056250526 A100,100,0,0,1,163.77852522924732,185.90169943749476 Z" fill="none" />
</clipPath>
<clipPath id="clip-4472389376-4535704016">
<path d="M105.0,105.0 L163.77852522924732,185.90169943749476 A100,100,0,0,1,46.2214747707527,185.90169943749476 Z" fill="none" />
</clipPath>
<clipPath id="clip-4472389376-4535577680">
<path d="M105.0,105.0 L46.2214747707527,185.90169943749476 A100,100,0,0,1,9.894348370484636,74.09830056250527 Z" fill="none" />
</clipPath>
</defs>
<g>
<path d="M105.0,105.0 L105.0,5.0 A100,100,0,0,1,200.10565162951536,74.09830056250526 Z" fill="none" stroke="lightgray" stroke-width="2" />
<path d="M105.0,105.0 L200.10565162951536,74.09830056250526 A100,100,0,0,1,163.77852522924732,185.90169943749476 Z" fill="none" stroke="lightgray" stroke-width="2" />
<path d="M105.0,105.0 L163.77852522924732,185.90169943749476 A100,100,0,0,1,46.2214747707527,185.90169943749476 Z" fill="none" stroke="lightgray" stroke-width="2" />
<path d="M105.0,105.0 L46.2214747707527,185.90169943749476 A100,100,0,0,1,9.894348370484636,74.09830056250527 Z" fill="none" stroke="lightgray" stroke-width="2" />
<path d="M105.0,105.0 L9.894348370484636,74.09830056250527 A100,100,0,0,1,104.99999999999999,5.0 Z" fill="none" stroke="lightgray" stroke-width="2" />
<path d="M105.0,105.0 L105.0,5.0 A100,100,0,0,1,200.10565162951536,74.09830056250526 Z" fill="#F5C754" stroke="lightgray" stroke-width="2" />
<use xlink:href="#clip-4472389376-4535503312" />
<g clip-path="url(#clip-4472389376-4535503312)">
<circle cx="105.0" cy="105.0" r="92" stroke="#DAA05D" stroke-width="16" fill="none" />
<circle cx="105.0" cy="105.0" r="98" stroke="#C37B32" stroke-width="5" fill="none" />
<circle cx="86.70267513784648" cy="84.70384383956619" r="4.12382180012157" fill="#FFFFFF" fill-opacity="0.2828286047035241" />
<circle cx="159.01546535104887" cy="130.48796711656377" r="3.6695917370122997" fill="#8B4513" fill-opacity="0.5707018178002583" />
<circle cx="176.31810417343837" cy="107.26068974747149" r="5.369832610636841" fill="#FFFFFF" fill-opacity="0.5500362014131999" />
<circle cx="75.07655873785733" cy="129.68580583494298" r="5.656293419288027" fill="#8B4513" fill-opacity="0.342898767894354" />
<circle cx="113.81977025739906" cy="35.064992931107724" r="5.329507030333899" fill="#FFDE75" fill-opacity="0.3898618508446484" />
<circle cx="186.41396766864062" cy="90.45761642012529" r="3.5904136943243583" fill="#D2691E" fill-opacity="0.40532067748166845" />
<circle cx="106.78149893597508" cy="125.17270229160134" r="5.96781548915463" fill="#FFDE75" fill-opacity="0.20797549536987103" />
<circle cx="78.5412204019844" cy="166.13587210719317" r="2.7527228410917504" fill="#8B4513" fill-opacity="0.32176714784908306" />
<circle cx="137.06727756458696" cy="90.10607211754379" r="5.162275548560344" fill="#D2691E" fill-opacity="0.291159501272093" />
<circle cx="159.13354354596783" cy="49.96761019795297" r="3.263757683178353" fill="#8B4513" fill-opacity="0.2003095146138495" />
<circle cx="33.27941585341463" cy="77.08631475295965" r="2.244071027103104" fill="#FFDE75" fill-opacity="0.3428215949178104" />
<circle cx="170.2799530681108" cy="129.56379137400813" r="3.8043742770948987" fill="#8B4513" fill-opacity="0.39510447140078114" />
<circle cx="143.76318328360637" cy="47.05773121174331" r="4.558374498027327" fill="#FFDE75" fill-opacity="0.5621134709387021" />
<circle cx="51.312644693452164" cy="80.07733047102687" r="5.91111508557542" fill="#8B4513" fill-opacity="0.355440919749665" />
<circle cx="81.45226212288193" cy="100.67379419569932" r="3.138523811641431" fill="#D2691E" fill-opacity="0.5411657445920429" />
<circle cx="73.90536409624005" cy="98.28714103385093" r="5.56427488618401" fill="#D2691E" fill-opacity="0.34773976116756694" />
<circle cx="125.30288190351637" cy="55.613774084035796" r="3.738480285071114" fill="#FFFFFF" fill-opacity="0.35465422438962463" />
<circle cx="183.3001418133751" cy="105.73300145096476" r="5.94944444640572" fill="#FFFFFF" fill-opacity="0.41572088962888987" />
<circle cx="51.25131833145879" cy="89.81165581762572" r="4.833731763528054" fill="#FFFFFF" fill-opacity="0.43290317182052446" />
<circle cx="83.69169163119525" cy="139.23489006761974" r="3.677298110986377" fill="#FFDE75" fill-opacity="0.5015687388989792" />
<circle cx="101.31760454918337" cy="161.44138679402278" r="3.6089731568382017" fill="#8B4513" fill-opacity="0.47870720494368346" />
<circle cx="58.575904103153896" cy="155.35684527700204" r="2.3913336184061125" fill="#FFDE75" fill-opacity="0.3287968824409166" />
<circle cx="140.67132251997103" cy="157.71948603721245" r="4.1713972495523475" fill="#D2691E" fill-opacity="0.2701479218722622" />
<circle cx="144.93780253639434" cy="143.13808846611246" r="5.3341395819415975" fill="#8B4513" fill-opacity="0.30985247813533146" />
<circle cx="64.34565891605894" cy="104.34434058460138" r="5.728584223842911" fill="#FFDE75" fill-opacity="0.31672980557207686" />
<circle cx="104.12412473721417" cy="116.39550230681566" r="4.976817824956134" fill="#D2691E" fill-opacity="0.34427210933011015" />
<circle cx="67.80637061091784" cy="59.075309908820955" r="3.3320352300159057" fill="#8B4513" fill-opacity="0.32141739887856047" />
<circle cx="93.36170940540798" cy="96.10421029595508" r="4.303579323668284" fill="#8B4513" fill-opacity="0.2997062941434497" />
<circle cx="35.810710573661765" cy="84.87679098140813" r="5.717473522597232" fill="#FFDE75" fill-opacity="0.4895348175018233" />
<circle cx="152.535240499432" cy="131.85256582151786" r="4.317952162058898" fill="#FFDE75" fill-opacity="0.2802666868569057" />
<circle cx="121.60402267566595" cy="95.18448641143216" r="5.195893656209268" fill="#FFFFFF" fill-opacity="0.4692797837465824" />
<circle cx="33.380767524334004" cy="146.03999297150744" r="3.1275971476970037" fill="#FFDE75" fill-opacity="0.4642192866895965" />
<circle cx="164.10170117880085" cy="157.39199437732276" r="4.83757880071652" fill="#FFDE75" fill-opacity="0.5361656612836987" />
<circle cx="161.8173064363675" cy="125.18788915496214" r="3.5758797711967545" fill="#D2691E" fill-opacity="0.41074059799272233" />
<circle cx="116.18828705444218" cy="189.1811692757747" r="2.740586885956607" fill="#D2691E" fill-opacity="0.3396775173351674" />
<circle cx="168.6421278995354" cy="85.37551758861457" r="4.71714224636145" fill="#FFDE75" fill-opacity="0.4745917260012312" />
<circle cx="164.17385529916206" cy="68.020527650534" r="5.562748114663259" fill="#FFDE75" fill-opacity="0.5531459464243896" />
<circle cx="152.78025124737363" cy="144.77277878673118" r="4.291396784526366" fill="#FFFFFF" fill-opacity="0.3685397014911247" />
<circle cx="131.13538533150196" cy="159.92605792708923" r="4.448334971953061" fill="#FFFFFF" fill-opacity="0.33340834789689433" />
<circle cx="114.90726633961937" cy="187.25718616427264" r="3.4104697438589286" fill="#FFDE75" fill-opacity="0.38257770972542327" />
<circle cx="75.80102982457544" cy="78.53958322721152" r="4.405122826851425" fill="#8B4513" fill-opacity="0.4880109444126844" />
<circle cx="96.72695626628234" cy="133.2090853438163" r="2.4248191392057272" fill="#FFDE75" fill-opacity="0.4414431477219533" />
<circle cx="137.81355294704724" cy="77.3096103332698" r="5.857132932872682" fill="#FFFFFF" fill-opacity="0.35560911272183404" />
<circle cx="133.22132279371846" cy="164.77381777201154" r="2.4281564735858314" fill="#FFFFFF" fill-opacity="0.4110803963899707" />
<circle cx="136.61831322848448" cy="76.967897291531" r="3.4632300207413986" fill="#D2691E" fill-opacity="0.32265905842247167" />
<circle cx="122.73598214455802" cy="52.10377925644964" r="5.169450850802219" fill="#FFFFFF" fill-opacity="0.40927301160405927" />
<circle cx="156.35695621323885" cy="68.71820549488501" r="3.1504149989366663" fill="#8B4513" fill-opacity="0.2078972491563152" />
<circle cx="155.8096885016901" cy="149.16499434732953" r="2.175562366633406" fill="#8B4513" fill-opacity="0.32613151984270294" />
<circle cx="83.11057269840094" cy="131.2309067498672" r="2.144978976723661" fill="#FFDE75" fill-opacity="0.5776145449560632" />
<circle cx="92.57756897724995" cy="89.45332863134142" r="3.969093704280389" fill="#FFDE75" fill-opacity="0.45377764086230005" />
<circle cx="128.07774362636542" cy="159.16393749533276" r="3.004472048175767" fill="#FFFFFF" fill-opacity="0.2123342978827501" />
<circle cx="83.75937133270219" cy="108.7757662497657" r="3.0180459141833684" fill="#D2691E" fill-opacity="0.4153711768502166" />
<circle cx="175.28243382543002" cy="65.5054183203772" r="4.660007336774547" fill="#FFDE75" fill-opacity="0.4373485314887897" />
<circle cx="140.54678352786226" cy="80.32476005348529" r="4.140505168690531" fill="#D2691E" fill-opacity="0.26503577452007376" />
<circle cx="164.74109339538336" cy="103.32632236010453" r="4.306503991834004" fill="#FFFFFF" fill-opacity="0.26717433023347154" />
<circle cx="44.059490263529305" cy="67.14062581548006" r="3.0695736251223864" fill="#D2691E" fill-opacity="0.5081818209561837" />
<circle cx="86.86798642929085" cy="23.145659315435452" r="3.350368748227352" fill="#8B4513" fill-opacity="0.5822607471446547" />
<circle cx="121.98757633732376" cy="48.42890227363468" r="5.077456318148402" fill="#8B4513" fill-opacity="0.23400962002598813" />
<circle cx="51.30116610634728" cy="130.4600883889122" r="2.6448705927831586" fill="#FFDE75" fill-opacity="0.43637168137290516" />
<circle cx="166.9503907364567" cy="99.92376722103195" r="4.787142524195528" fill="#FFDE75" fill-opacity="0.5315205032219391" />
<ellipse cx="149.12532267567448" cy="37.025996343818164" rx="5.212194936931816" ry="5.883684122579583" fill="#FFFDF0" fill-opacity="0.6" />
<ellipse cx="149.06717249870943" cy="37.86492883770421" rx="2.23363570930448" ry="3.388901684451369" fill="#FFFFFF" fill-opacity="0.85" />
<ellipse cx="96.7672948647205" cy="50.885912193967506" rx="6.773916719290607" ry="5.523936924882937" fill="#FFFDF0" fill-opacity="0.6" />
<ellipse cx="96.81414673716773" cy="51.53042641374112" rx="4.7393657584496065" ry="3.9134294765127002" fill="#FFFFFF" fill-opacity="0.85" />
<ellipse cx="147.255941067651" cy="141.38731919359458" rx="6.605012874682604" ry="7.502178852132005" fill="#FFFDF0" fill-opacity="0.6" />
<ellipse cx="147.3486523153544" cy="142.33534030455357" rx="3.468365983294719" ry="2.37043809743225" fill="#FFFFFF" fill-opacity="0.85" />
<ellipse cx="176.14875869211323" cy="120.36886584792208" rx="7.978841914738354" ry="4.68422743174794" fill="#FFFDF0" fill-opacity="0.6" />
<ellipse cx="175.15925376895328" cy="121.35075526124064" rx="3.9078577495283824" ry="3.5899811487292546" fill="#FFFFFF" fill-opacity="0.85" />
<ellipse cx="172.70173860957203" cy="100.3064003217241" rx="8.167877945790433" ry="5.270780478008531" fill="#FFFDF0" fill-opacity="0.6" />
<ellipse cx="173.0574525756362" cy="99.81649316624743" rx="3.5789864301563075" ry="2.084121257064696" fill="#FFFFFF" fill-opacity="0.85" />
<ellipse cx="132.00478798213337" cy="35.087633363063176" rx="9.201344299126884" ry="8.480200304874067" fill="#FFFDF0" fill-opacity="0.6" />
<ellipse cx="132.3982475502764" cy="34.44369669942098" rx="4.979909587796511" ry="2.9330729374870463" fill="#FFFFFF" fill-opacity="0.85" />
<ellipse cx="108.20025551598872" cy="75.2736309311654" rx="8.821524099350416" ry="5.649464306078098" fill="#FFFDF0" fill-opacity="0.6" />
<ellipse cx="107.44692248765595" cy="74.67998503163288" rx="4.052338440003562" ry="2.5591172851158452" fill="#FFFFFF" fill-opacity="0.85" />
<ellipse cx="136.62785160551547" cy="144.60062969217788" rx="8.82895912926139" ry="5.248901634443258" fill="#FFFDF0" fill-opacity="0.6" />
<ellipse cx="136.35975895638998" cy="145.57957353335348" rx="3.046174146640023" ry="2.761681389887327" fill="#FFFFFF" fill-opacity="0.85" />
<ellipse cx="144.8852297385553" cy="118.17688038320563" rx="7.0474342201877755" ry="4.346001192659476" fill="#FFFDF0" fill-opacity="0.6" />
<ellipse cx="145.20192213612606" cy="117.79066627541222" rx="4.834340814580421" ry="2.007669558527314" fill="#FFFFFF" fill-opacity="0.85" />
<ellipse cx="169.183647896008" cy="147.80807215757574" rx="9.448817276272644" ry="6.916796881377547" fill="#FFFDF0" fill-opacity="0.6" />
<ellipse cx="169.17346864948715" cy="147.99848314975813" rx="3.540524749698318" ry="3.8041921274133452" fill="#FFFFFF" fill-opacity="0.85" />
<ellipse cx="80.01343938815225" cy="115.24422737426326" rx="8.421548844106686" ry="5.963943378443673" fill="#FFFDF0" fill-opacity="0.6" />
<ellipse cx="79.25868026686726" cy="114.91600766555054" rx="2.5151721123694246" ry="2.2999712436251847" fill="#FFFFFF" fill-opacity="0.85" />
<ellipse cx="114.3500292661579" cy="92.4921761074763" rx="5.437453212984227" ry="6.987950561269365" fill="#FFFDF0" fill-opacity="0.6" />
<ellipse cx="113.61509601104108" cy="92.08507903744726" rx="4.399290690665608" ry="3.6426183917043997" fill="#FFFFFF" fill-opacity="0.85" />
</g>
<path d="M105.0,105.0 L200.10565162951536,74.09830056250526 A100,100,0,0,1,163.77852522924732,185.90169943749476 Z" fill="#F5C754" stroke="lightgray" stroke-width="2" />
<use xlink:href="#clip-4472389376-4535506640" />
<g clip-path="url(#clip-4472389376-4535506640)">
<circle cx="105.0" cy="105.0" r="92" stroke="#DAA05D" stroke-width="16" fill="none" />
<circle cx="105.0" cy="105.0" r="98" stroke="#C37B32" stroke-width="5" fill="none" />
<circle cx="86.70267513784648" cy="84.70384383956619" r="4.12382180012157" fill="#FFFFFF" fill-opacity="0.2828286047035241" />
<circle cx="159.01546535104887" cy="130.48796711656377" r="3.6695917370122997" fill="#8B4513" fill-opacity="0.5707018178002583" />
<circle cx="176.31810417343837" cy="107.26068974747149" r="5.369832610636841" fill="#FFFFFF" fill-opacity="0.5500362014131999" />
<circle cx="75.07655873785733" cy="129.68580583494298" r="5.656293419288027" fill="#8B4513" fill-opacity="0.342898767894354" />
<circle cx="113.81977025739906" cy="35.064992931107724" r="5.329507030333899" fill="#FFDE75" fill-opacity="0.3898618508446484" />
<circle cx="186.41396766864062" cy="90.45761642012529" r="3.5904136943243583" fill="#D2691E" fill-opacity="0.40532067748166845" />
<circle cx="106.78149893597508" cy="125.17270229160134" r="5.96781548915463" fill="#FFDE75" fill-opacity="0.20797549536987103" />
<circle cx="78.5412204019844" cy="166.13587210719317" r="2.7527228410917504" fill="#8B4513" fill-opacity="0.32176714784908306" />
<circle cx="137.06727756458696" cy="90.10607211754379" r="5.162275548560344" fill="#D2691E" fill-opacity="0.291159501272093" />
<circle cx="159.13354354596783" cy="49.96761019795297" r="3.263757683178353" fill="#8B4513" fill-opacity="0.2003095146138495" />
<circle cx="33.27941585341463" cy="77.08631475295965" r="2.244071027103104" fill="#FFDE75" fill-opacity="0.3428215949178104" />
<circle cx="170.2799530681108" cy="129.56379137400813" r="3.8043742770948987" fill="#8B4513" fill-opacity="0.39510447140078114" />
<circle cx="143.76318328360637" cy="47.05773121174331" r="4.558374498027327" fill="#FFDE75" fill-opacity="0.5621134709387021" />
<circle cx="51.312644693452164" cy="80.07733047102687" r="5.91111508557542" fill="#8B4513" fill-opacity="0.355440919749665" />
<circle cx="81.45226212288193" cy="100.67379419569932" r="3.138523811641431" fill="#D2691E" fill-opacity="0.5411657445920429" />
<circle cx="73.90536409624005" cy="98.28714103385093" r="5.56427488618401" fill="#D2691E" fill-opacity="0.34773976116756694" />
<circle cx="125.30288190351637" cy="55.613774084035796" r="3.738480285071114" fill="#FFFFFF" fill-opacity="0.35465422438962463" />
<circle cx="183.3001418133751" cy="105.73300145096476" r="5.94944444640572" fill="#FFFFFF" fill-opacity="0.41572088962888987" />
<circle cx="51.25131833145879" cy="89.81165581762572" r="4.833731763528054" fill="#FFFFFF" fill-opacity="0.43290317182052446" />
<circle cx="83.69169163119525" cy="139.23489006761974" r="3.677298110986377" fill="#FFDE75" fill-opacity="0.5015687388989792" />
<circle cx="101.31760454918337" cy="161.44138679402278" r="3.6089731568382017" fill="#8B4513" fill-opacity="0.47870720494368346" />
<circle cx="58.575904103153896" cy="155.35684527700204" r="2.3913336184061125" fill="#FFDE75" fill-opacity="0.3287968824409166" />
<circle cx="140.67132251997103" cy="157.71948603721245" r="4.1713972495523475" fill="#D2691E" fill-opacity="0.2701479218722622" />
<circle cx="144.93780253639434" cy="143.13808846611246" r="5.3341395819415975" fill="#8B4513" fill-opacity="0.30985247813533146" />
<circle cx="64.34565891605894" cy="104.34434058460138" r="5.728584223842911" fill="#FFDE75" fill-opacity="0.31672980557207686" />
<circle cx="104.12412473721417" cy="116.39550230681566" r="4.976817824956134" fill="#D2691E" fill-opacity="0.34427210933011015" />
<circle cx="67.80637061091784" cy="59.075309908820955" r="3.3320352300159057" fill="#8B4513" fill-opacity="0.32141739887856047" />
<circle cx="93.36170940540798" cy="96.10421029595508" r="4.303579323668284" fill="#8B4513" fill-opacity="0.2997062941434497" />
<circle cx="35.810710573661765" cy="84.87679098140813" r="5.717473522597232" fill="#FFDE75" fill-opacity="0.4895348175018233" />
<circle cx="152.535240499432" cy="131.85256582151786" r="4.317952162058898" fill="#FFDE75" fill-opacity="0.2802666868569057" />
<circle cx="121.60402267566595" cy="95.18448641143216" r="5.195893656209268" fill="#FFFFFF" fill-opacity="0.4692797837465824" />
<circle cx="33.380767524334004" cy="146.03999297150744" r="3.1275971476970037" fill="#FFDE75" fill-opacity="0.4642192866895965" />
<circle cx="164.10170117880085" cy="157.39199437732276" r="4.83757880071652" fill="#FFDE75" fill-opacity="0.5361656612836987" />
<circle cx="161.8173064363675" cy="125.18788915496214" r="3.5758797711967545" fill="#D2691E" fill-opacity="0.41074059799272233" />
<circle cx="116.18828705444218" cy="189.1811692757747" r="2.740586885956607" fill="#D2691E" fill-opacity="0.3396775173351674" />
<circle cx="168.6421278995354" cy="85.37551758861457" r="4.71714224636145" fill="#FFDE75" fill-opacity="0.4745917260012312" />
<circle cx="164.17385529916206" cy="68.020527650534" r="5.562748114663259" fill="#FFDE75" fill-opacity="0.5531459464243896" />
<circle cx="152.78025124737363" cy="144.77277878673118" r="4.291396784526366" fill="#FFFFFF" fill-opacity="0.3685397014911247" />
<circle cx="131.13538533150196" cy="159.92605792708923" r="4.448334971953061" fill="#FFFFFF" fill-opacity="0.33340834789689433" />
<circle cx="114.90726633961937" cy="187.25718616427264" r="3.4104697438589286" fill="#FFDE75" fill-opacity="0.38257770972542327" />
<circle cx="75.80102982457544" cy="78.53958322721152" r="4.405122826851425" fill="#8B4513" fill-opacity="0.4880109444126844" />
<circle cx="96.72695626628234" cy="133.2090853438163" r="2.4248191392057272" fill="#FFDE75" fill-opacity="0.4414431477219533" />
<circle cx="137.81355294704724" cy="77.3096103332698" r="5.857132932872682" fill="#FFFFFF" fill-opacity="0.35560911272183404" />
<circle cx="133.22132279371846" cy="164.77381777201154" r="2.4281564735858314" fill="#FFFFFF" fill-opacity="0.4110803963899707" />
<circle cx="136.61831322848448" cy="76.967897291531" r="3.4632300207413986" fill="#D2691E" fill-opacity="0.32265905842247167" />
<circle cx="122.73598214455802" cy="52.10377925644964" r="5.169450850802219" fill="#FFFFFF" fill-opacity="0.40927301160405927" />
<circle cx="156.35695621323885" cy="68.71820549488501" r="3.1504149989366663" fill="#8B4513" fill-opacity="0.2078972491563152" />
<circle cx="155.8096885016901" cy="149.16499434732953" r="2.175562366633406" fill="#8B4513" fill-opacity="0.32613151984270294" />
<circle cx="83.11057269840094" cy="131.2309067498672" r="2.144978976723661" fill="#FFDE75" fill-opacity="0.5776145449560632" />
<circle cx="92.57756897724995" cy="89.45332863134142" r="3.969093704280389" fill="#FFDE75" fill-opacity="0.45377764086230005" />
<circle cx="128.07774362636542" cy="159.16393749533276" r="3.004472048175767" fill="#FFFFFF" fill-opacity="0.2123342978827501" />
<circle cx="83.75937133270219" cy="108.7757662497657" r="3.0180459141833684" fill="#D2691E" fill-opacity="0.4153711768502166" />
<circle cx="175.28243382543002" cy="65.5054183203772" r="4.660007336774547" fill="#FFDE75" fill-opacity="0.4373485314887897" />
<circle cx="140.54678352786226" cy="80.32476005348529" r="4.140505168690531" fill="#D2691E" fill-opacity="0.26503577452007376" />
<circle cx="164.74109339538336" cy="103.32632236010453" r="4.306503991834004" fill="#FFFFFF" fill-opacity="0.26717433023347154" />
<circle cx="44.059490263529305" cy="67.14062581548006" r="3.0695736251223864" fill="#D2691E" fill-opacity="0.5081818209561837" />
<circle cx="86.86798642929085" cy="23.145659315435452" r="3.350368748227352" fill="#8B4513" fill-opacity="0.5822607471446547" />
<circle cx="121.98757633732376" cy="48.42890227363468" r="5.077456318148402" fill="#8B4513" fill-opacity="0.23400962002598813" />
<circle cx="51.30116610634728" cy="130.4600883889122" r="2.6448705927831586" fill="#FFDE75" fill-opacity="0.43637168137290516" />
<circle cx="166.9503907364567" cy="99.92376722103195" r="4.787142524195528" fill="#FFDE75" fill-opacity="0.5315205032219391" />
<ellipse cx="149.12532267567448" cy="37.025996343818164" rx="5.212194936931816" ry="5.883684122579583" fill="#FFFDF0" fill-opacity="0.6" />
<ellipse cx="149.06717249870943" cy="37.86492883770421" rx="2.23363570930448" ry="3.388901684451369" fill="#FFFFFF" fill-opacity="0.85" />
<ellipse cx="96.7672948647205" cy="50.885912193967506" rx="6.773916719290607" ry="5.523936924882937" fill="#FFFDF0" fill-opacity="0.6" />
<ellipse cx="96.81414673716773" cy="51.53042641374112" rx="4.7393657584496065" ry="3.9134294765127002" fill="#FFFFFF" fill-opacity="0.85" />
<ellipse cx="147.255941067651" cy="141.38731919359458" rx="6.605012874682604" ry="7.502178852132005" fill="#FFFDF0" fill-opacity="0.6" />
<ellipse cx="147.3486523153544" cy="142.33534030455357" rx="3.468365983294719" ry="2.37043809743225" fill="#FFFFFF" fill-opacity="0.85" />
<ellipse cx="176.14875869211323" cy="120.36886584792208" rx="7.978841914738354" ry="4.68422743174794" fill="#FFFDF0" fill-opacity="0.6" />
<ellipse cx="175.15925376895328" cy="121.35075526124064" rx="3.9078577495283824" ry="3.5899811487292546" fill="#FFFFFF" fill-opacity="0.85" />
<ellipse cx="172.70173860957203" cy="100.3064003217241" rx="8.167877945790433" ry="5.270780478008531" fill="#FFFDF0" fill-opacity="0.6" />
<ellipse cx="173.0574525756362" cy="99.81649316624743" rx="3.5789864301563075" ry="2.084121257064696" fill="#FFFFFF" fill-opacity="0.85" />
<ellipse cx="132.00478798213337" cy="35.087633363063176" rx="9.201344299126884" ry="8.480200304874067" fill="#FFFDF0" fill-opacity="0.6" />
<ellipse cx="132.3982475502764" cy="34.44369669942098" rx="4.979909587796511" ry="2.9330729374870463" fill="#FFFFFF" fill-opacity="0.85" />
<ellipse cx="108.20025551598872" cy="75.2736309311654" rx="8.821524099350416" ry="5.649464306078098" fill="#FFFDF0" fill-opacity="0.6" />
<ellipse cx="107.44692248765595" cy="74.67998503163288" rx="4.052338440003562" ry="2.5591172851158452" fill="#FFFFFF" fill-opacity="0.85" />
<ellipse cx="136.62785160551547" cy="144.60062969217788" rx="8.82895912926139" ry="5.248901634443258" fill="#FFFDF0" fill-opacity="0.6" />
<ellipse cx="136.35975895638998" cy="145.57957353335348" rx="3.046174146640023" ry="2.761681389887327" fill="#FFFFFF" fill-opacity="0.85" />
<ellipse cx="144.8852297385553" cy="118.17688038320563" rx="7.0474342201877755" ry="4.346001192659476" fill="#FFFDF0" fill-opacity="0.6" />
<ellipse cx="145.20192213612606" cy="117.79066627541222" rx="4.834340814580421" ry="2.007669558527314" fill="#FFFFFF" fill-opacity="0.85" />
<ellipse cx="169.183647896008" cy="147.80807215757574" rx="9.448817276272644" ry="6.916796881377547" fill="#FFFDF0" fill-opacity="0.6" />
<ellipse cx="169.17346864948715" cy="147.99848314975813" rx="3.540524749698318" ry="3.8041921274133452" fill="#FFFFFF" fill-opacity="0.85" />
<ellipse cx="80.01343938815225" cy="115.24422737426326" rx="8.421548844106686" ry="5.963943378443673" fill="#FFFDF0" fill-opacity="0.6" />
<ellipse cx="79.25868026686726" cy="114.91600766555054" rx="2.5151721123694246" ry="2.2999712436251847" fill="#FFFFFF" fill-opacity="0.85" />
<ellipse cx="114.3500292661579" cy="92.4921761074763" rx="5.437453212984227" ry="6.987950561269365" fill="#FFFDF0" fill-opacity="0.6" />
<ellipse cx="113.61509601104108" cy="92.08507903744726" rx="4.399290690665608" ry="3.6426183917043997" fill="#FFFFFF" fill-opacity="0.85" />
</g>
<path d="M105.0,105.0 L163.77852522924732,185.90169943749476 A100,100,0,0,1,46.2214747707527,185.90169943749476 Z" fill="#F5C754" stroke="lightgray" stroke-width="2" />
<use xlink:href="#clip-4472389376-4535704016" />
<g clip-path="url(#clip-4472389376-4535704016)">
<circle cx="105.0" cy="105.0" r="92" stroke="#DAA05D" stroke-width="16" fill="none" />
<circle cx="105.0" cy="105.0" r="98" stroke="#C37B32" stroke-width="5" fill="none" />
<circle cx="86.70267513784648" cy="84.70384383956619" r="4.12382180012157" fill="#FFFFFF" fill-opacity="0.2828286047035241" />
<circle cx="159.01546535104887" cy="130.48796711656377" r="3.6695917370122997" fill="#8B4513" fill-opacity="0.5707018178002583" />
<circle cx="176.31810417343837" cy="107.26068974747149" r="5.369832610636841" fill="#FFFFFF" fill-opacity="0.5500362014131999" />
<circle cx="75.07655873785733" cy="129.68580583494298" r="5.656293419288027" fill="#8B4513" fill-opacity="0.342898767894354" />
<circle cx="113.81977025739906" cy="35.064992931107724" r="5.329507030333899" fill="#FFDE75" fill-opacity="0.3898618508446484" />
<circle cx="186.41396766864062" cy="90.45761642012529" r="3.5904136943243583" fill="#D2691E" fill-opacity="0.40532067748166845" />
<circle cx="106.78149893597508" cy="125.17270229160134" r="5.96781548915463" fill="#FFDE75" fill-opacity="0.20797549536987103" />
<circle cx="78.5412204019844" cy="166.13587210719317" r="2.7527228410917504" fill="#8B4513" fill-opacity="0.32176714784908306" />
<circle cx="137.06727756458696" cy="90.10607211754379" r="5.162275548560344" fill="#D2691E" fill-opacity="0.291159501272093" />
<circle cx="159.13354354596783" cy="49.96761019795297" r="3.263757683178353" fill="#8B4513" fill-opacity="0.2003095146138495" />
<circle cx="33.27941585341463" cy="77.08631475295965" r="2.244071027103104" fill="#FFDE75" fill-opacity="0.3428215949178104" />
<circle cx="170.2799530681108" cy="129.56379137400813" r="3.8043742770948987" fill="#8B4513" fill-opacity="0.39510447140078114" />
<circle cx="143.76318328360637" cy="47.05773121174331" r="4.558374498027327" fill="#FFDE75" fill-opacity="0.5621134709387021" />
<circle cx="51.312644693452164" cy="80.07733047102687" r="5.91111508557542" fill="#8B4513" fill-opacity="0.355440919749665" />
<circle cx="81.45226212288193" cy="100.67379419569932" r="3.138523811641431" fill="#D2691E" fill-opacity="0.5411657445920429" />
<circle cx="73.90536409624005" cy="98.28714103385093" r="5.56427488618401" fill="#D2691E" fill-opacity="0.34773976116756694" />
<circle cx="125.30288190351637" cy="55.613774084035796" r="3.738480285071114" fill="#FFFFFF" fill-opacity="0.35465422438962463" />
<circle cx="183.3001418133751" cy="105.73300145096476" r="5.94944444640572" fill="#FFFFFF" fill-opacity="0.41572088962888987" />
<circle cx="51.25131833145879" cy="89.81165581762572" r="4.833731763528054" fill="#FFFFFF" fill-opacity="0.43290317182052446" />
<circle cx="83.69169163119525" cy="139.23489006761974" r="3.677298110986377" fill="#FFDE75" fill-opacity="0.5015687388989792" />
<circle cx="101.31760454918337" cy="161.44138679402278" r="3.6089731568382017" fill="#8B4513" fill-opacity="0.47870720494368346" />
<circle cx="58.575904103153896" cy="155.35684527700204" r="2.3913336184061125" fill="#FFDE75" fill-opacity="0.3287968824409166" />
<circle cx="140.67132251997103" cy="157.71948603721245" r="4.1713972495523475" fill="#D2691E" fill-opacity="0.2701479218722622" />
<circle cx="144.93780253639434" cy="143.13808846611246" r="5.3341395819415975" fill="#8B4513" fill-opacity="0.30985247813533146" />
<circle cx="64.34565891605894" cy="104.34434058460138" r="5.728584223842911" fill="#FFDE75" fill-opacity="0.31672980557207686" />
<circle cx="104.12412473721417" cy="116.39550230681566" r="4.976817824956134" fill="#D2691E" fill-opacity="0.34427210933011015" />
<circle cx="67.80637061091784" cy="59.075309908820955" r="3.3320352300159057" fill="#8B4513" fill-opacity="0.32141739887856047" />
<circle cx="93.36170940540798" cy="96.10421029595508" r="4.303579323668284" fill="#8B4513" fill-opacity="0.2997062941434497" />
<circle cx="35.810710573661765" cy="84.87679098140813" r="5.717473522597232" fill="#FFDE75" fill-opacity="0.4895348175018233" />
<circle cx="152.535240499432" cy="131.85256582151786" r="4.317952162058898" fill="#FFDE75" fill-opacity="0.2802666868569057" />
<circle cx="121.60402267566595" cy="95.18448641143216" r="5.195893656209268" fill="#FFFFFF" fill-opacity="0.4692797837465824" />
<circle cx="33.380767524334004" cy="146.03999297150744" r="3.1275971476970037" fill="#FFDE75" fill-opacity="0.4642192866895965" />
<circle cx="164.10170117880085" cy="157.39199437732276" r="4.83757880071652" fill="#FFDE75" fill-opacity="0.5361656612836987" />
<circle cx="161.8173064363675" cy="125.18788915496214" r="3.5758797711967545" fill="#D2691E" fill-opacity="0.41074059799272233" />
<circle cx="116.18828705444218" cy="189.1811692757747" r="2.740586885956607" fill="#D2691E" fill-opacity="0.3396775173351674" />
<circle cx="168.6421278995354" cy="85.37551758861457" r="4.71714224636145" fill="#FFDE75" fill-opacity="0.4745917260012312" />
<circle cx="164.17385529916206" cy="68.020527650534" r="5.562748114663259" fill="#FFDE75" fill-opacity="0.5531459464243896" />
<circle cx="152.78025124737363" cy="144.77277878673118" r="4.291396784526366" fill="#FFFFFF" fill-opacity="0.3685397014911247" />
<circle cx="131.13538533150196" cy="159.92605792708923" r="4.448334971953061" fill="#FFFFFF" fill-opacity="0.33340834789689433" />
<circle cx="114.90726633961937" cy="187.25718616427264" r="3.4104697438589286" fill="#FFDE75" fill-opacity="0.38257770972542327" />
<circle cx="75.80102982457544" cy="78.53958322721152" r="4.405122826851425" fill="#8B4513" fill-opacity="0.4880109444126844" />
<circle cx="96.72695626628234" cy="133.2090853438163" r="2.4248191392057272" fill="#FFDE75" fill-opacity="0.4414431477219533" />
<circle cx="137.81355294704724" cy="77.3096103332698" r="5.857132932872682" fill="#FFFFFF" fill-opacity="0.35560911272183404" />
<circle cx="133.22132279371846" cy="164.77381777201154" r="2.4281564735858314" fill="#FFFFFF" fill-opacity="0.4110803963899707" />
<circle cx="136.61831322848448" cy="76.967897291531" r="3.4632300207413986" fill="#D2691E" fill-opacity="0.32265905842247167" />
<circle cx="122.73598214455802" cy="52.10377925644964" r="5.169450850802219" fill="#FFFFFF" fill-opacity="0.40927301160405927" />
<circle cx="156.35695621323885" cy="68.71820549488501" r="3.1504149989366663" fill="#8B4513" fill-opacity="0.2078972491563152" />
<circle cx="155.8096885016901" cy="149.16499434732953" r="2.175562366633406" fill="#8B4513" fill-opacity="0.32613151984270294" />
<circle cx="83.11057269840094" cy="131.2309067498672" r="2.144978976723661" fill="#FFDE75" fill-opacity="0.5776145449560632" />
<circle cx="92.57756897724995" cy="89.45332863134142" r="3.969093704280389" fill="#FFDE75" fill-opacity="0.45377764086230005" />
<circle cx="128.07774362636542" cy="159.16393749533276" r="3.004472048175767" fill="#FFFFFF" fill-opacity="0.2123342978827501" />
<circle cx="83.75937133270219" cy="108.7757662497657" r="3.0180459141833684" fill="#D2691E" fill-opacity="0.4153711768502166" />
<circle cx="175.28243382543002" cy="65.5054183203772" r="4.660007336774547" fill="#FFDE75" fill-opacity="0.4373485314887897" />
<circle cx="140.54678352786226" cy="80.32476005348529" r="4.140505168690531" fill="#D2691E" fill-opacity="0.26503577452007376" />
<circle cx="164.74109339538336" cy="103.32632236010453" r="4.306503991834004" fill="#FFFFFF" fill-opacity="0.26717433023347154" />
<circle cx="44.059490263529305" cy="67.14062581548006" r="3.0695736251223864" fill="#D2691E" fill-opacity="0.5081818209561837" />
<circle cx="86.86798642929085" cy="23.145659315435452" r="3.350368748227352" fill="#8B4513" fill-opacity="0.5822607471446547" />
<circle cx="121.98757633732376" cy="48.42890227363468" r="5.077456318148402" fill="#8B4513" fill-opacity="0.23400962002598813" />
<circle cx="51.30116610634728" cy="130.4600883889122" r="2.6448705927831586" fill="#FFDE75" fill-opacity="0.43637168137290516" />
<circle cx="166.9503907364567" cy="99.92376722103195" r="4.787142524195528" fill="#FFDE75" fill-opacity="0.5315205032219391" />
<ellipse cx="149.12532267567448" cy="37.025996343818164" rx="5.212194936931816" ry="5.883684122579583" fill="#FFFDF0" fill-opacity="0.6" />
<ellipse cx="149.06717249870943" cy="37.86492883770421" rx="2.23363570930448" ry="3.388901684451369" fill="#FFFFFF" fill-opacity="0.85" />
<ellipse cx="96.7672948647205" cy="50.885912193967506" rx="6.773916719290607" ry="5.523936924882937" fill="#FFFDF0" fill-opacity="0.6" />
<ellipse cx="96.81414673716773" cy="51.53042641374112" rx="4.7393657584496065" ry="3.9134294765127002" fill="#FFFFFF" fill-opacity="0.85" />
<ellipse cx="147.255941067651" cy="141.38731919359458" rx="6.605012874682604" ry="7.502178852132005" fill="#FFFDF0" fill-opacity="0.6" />
<ellipse cx="147.3486523153544" cy="142.33534030455357" rx="3.468365983294719" ry="2.37043809743225" fill="#FFFFFF" fill-opacity="0.85" />
<ellipse cx="176.14875869211323" cy="120.36886584792208" rx="7.978841914738354" ry="4.68422743174794" fill="#FFFDF0" fill-opacity="0.6" />
<ellipse cx="175.15925376895328" cy="121.35075526124064" rx="3.9078577495283824" ry="3.5899811487292546" fill="#FFFFFF" fill-opacity="0.85" />
<ellipse cx="172.70173860957203" cy="100.3064003217241" rx="8.167877945790433" ry="5.270780478008531" fill="#FFFDF0" fill-opacity="0.6" />
<ellipse cx="173.0574525756362" cy="99.81649316624743" rx="3.5789864301563075" ry="2.084121257064696" fill="#FFFFFF" fill-opacity="0.85" />
<ellipse cx="132.00478798213337" cy="35.087633363063176" rx="9.201344299126884" ry="8.480200304874067" fill="#FFFDF0" fill-opacity="0.6" />
<ellipse cx="132.3982475502764" cy="34.44369669942098" rx="4.979909587796511" ry="2.9330729374870463" fill="#FFFFFF" fill-opacity="0.85" />
<ellipse cx="108.20025551598872" cy="75.2736309311654" rx="8.821524099350416" ry="5.649464306078098" fill="#FFFDF0" fill-opacity="0.6" />
<ellipse cx="107.44692248765595" cy="74.67998503163288" rx="4.052338440003562" ry="2.5591172851158452" fill="#FFFFFF" fill-opacity="0.85" />
<ellipse cx="136.62785160551547" cy="144.60062969217788" rx="8.82895912926139" ry="5.248901634443258" fill="#FFFDF0" fill-opacity="0.6" />
<ellipse cx="136.35975895638998" cy="145.57957353335348" rx="3.046174146640023" ry="2.761681389887327" fill="#FFFFFF" fill-opacity="0.85" />
<ellipse cx="144.8852297385553" cy="118.17688038320563" rx="7.0474342201877755" ry="4.346001192659476" fill="#FFFDF0" fill-opacity="0.6" />
<ellipse cx="145.20192213612606" cy="117.79066627541222" rx="4.834340814580421" ry="2.007669558527314" fill="#FFFFFF" fill-opacity="0.85" />
<ellipse cx="169.183647896008" cy="147.80807215757574" rx="9.448817276272644" ry="6.916796881377547" fill="#FFFDF0" fill-opacity="0.6" />
<ellipse cx="169.17346864948715" cy="147.99848314975813" rx="3.540524749698318" ry="3.8041921274133452" fill="#FFFFFF" fill-opacity="0.85" />
<ellipse cx="80.01343938815225" cy="115.24422737426326" rx="8.421548844106686" ry="5.963943378443673" fill="#FFFDF0" fill-opacity="0.6" />
<ellipse cx="79.25868026686726" cy="114.91600766555054" rx="2.5151721123694246" ry="2.2999712436251847" fill="#FFFFFF" fill-opacity="0.85" />
<ellipse cx="114.3500292661579" cy="92.4921761074763" rx="5.437453212984227" ry="6.987950561269365" fill="#FFFDF0" fill-opacity="0.6" />
<ellipse cx="113.61509601104108" cy="92.08507903744726" rx="4.399290690665608" ry="3.6426183917043997" fill="#FFFFFF" fill-opacity="0.85" />
</g>
<path d="M105.0,105.0 L46.2214747707527,185.90169943749476 A100,100,0,0,1,9.894348370484636,74.09830056250527 Z" fill="#F5C754" stroke="lightgray" stroke-width="2" />
<use xlink:href="#clip-4472389376-4535577680" />
<g clip-path="url(#clip-4472389376-4535577680)">
<circle cx="105.0" cy="105.0" r="92" stroke="#DAA05D" stroke-width="16" fill="none" />
<circle cx="105.0" cy="105.0" r="98" stroke="#C37B32" stroke-width="5" fill="none" />
<circle cx="86.70267513784648" cy="84.70384383956619" r="4.12382180012157" fill="#FFFFFF" fill-opacity="0.2828286047035241" />
<circle cx="159.01546535104887" cy="130.48796711656377" r="3.6695917370122997" fill="#8B4513" fill-opacity="0.5707018178002583" />
<circle cx="176.31810417343837" cy="107.26068974747149" r="5.369832610636841" fill="#FFFFFF" fill-opacity="0.5500362014131999" />
<circle cx="75.07655873785733" cy="129.68580583494298" r="5.656293419288027" fill="#8B4513" fill-opacity="0.342898767894354" />
<circle cx="113.81977025739906" cy="35.064992931107724" r="5.329507030333899" fill="#FFDE75" fill-opacity="0.3898618508446484" />
<circle cx="186.41396766864062" cy="90.45761642012529" r="3.5904136943243583" fill="#D2691E" fill-opacity="0.40532067748166845" />
<circle cx="106.78149893597508" cy="125.17270229160134" r="5.96781548915463" fill="#FFDE75" fill-opacity="0.20797549536987103" />
<circle cx="78.5412204019844" cy="166.13587210719317" r="2.7527228410917504" fill="#8B4513" fill-opacity="0.32176714784908306" />
<circle cx="137.06727756458696" cy="90.10607211754379" r="5.162275548560344" fill="#D2691E" fill-opacity="0.291159501272093" />
<circle cx="159.13354354596783" cy="49.96761019795297" r="3.263757683178353" fill="#8B4513" fill-opacity="0.2003095146138495" />
<circle cx="33.27941585341463" cy="77.08631475295965" r="2.244071027103104" fill="#FFDE75" fill-opacity="0.3428215949178104" />
<circle cx="170.2799530681108" cy="129.56379137400813" r="3.8043742770948987" fill="#8B4513" fill-opacity="0.39510447140078114" />
<circle cx="143.76318328360637" cy="47.05773121174331" r="4.558374498027327" fill="#FFDE75" fill-opacity="0.5621134709387021" />
<circle cx="51.312644693452164" cy="80.07733047102687" r="5.91111508557542" fill="#8B4513" fill-opacity="0.355440919749665" />
<circle cx="81.45226212288193" cy="100.67379419569932" r="3.138523811641431" fill="#D2691E" fill-opacity="0.5411657445920429" />
<circle cx="73.90536409624005" cy="98.28714103385093" r="5.56427488618401" fill="#D2691E" fill-opacity="0.34773976116756694" />
<circle cx="125.30288190351637" cy="55.613774084035796" r="3.738480285071114" fill="#FFFFFF" fill-opacity="0.35465422438962463" />
<circle cx="183.3001418133751" cy="105.73300145096476" r="5.94944444640572" fill="#FFFFFF" fill-opacity="0.41572088962888987" />
<circle cx="51.25131833145879" cy="89.81165581762572" r="4.833731763528054" fill="#FFFFFF" fill-opacity="0.43290317182052446" />
<circle cx="83.69169163119525" cy="139.23489006761974" r="3.677298110986377" fill="#FFDE75" fill-opacity="0.5015687388989792" />
<circle cx="101.31760454918337" cy="161.44138679402278" r="3.6089731568382017" fill="#8B4513" fill-opacity="0.47870720494368346" />
<circle cx="58.575904103153896" cy="155.35684527700204" r="2.3913336184061125" fill="#FFDE75" fill-opacity="0.3287968824409166" />
<circle cx="140.67132251997103" cy="157.71948603721245" r="4.1713972495523475" fill="#D2691E" fill-opacity="0.2701479218722622" />
<circle cx="144.93780253639434" cy="143.13808846611246" r="5.3341395819415975" fill="#8B4513" fill-opacity="0.30985247813533146" />
<circle cx="64.34565891605894" cy="104.34434058460138" r="5.728584223842911" fill="#FFDE75" fill-opacity="0.31672980557207686" />
<circle cx="104.12412473721417" cy="116.39550230681566" r="4.976817824956134" fill="#D2691E" fill-opacity="0.34427210933011015" />
<circle cx="67.80637061091784" cy="59.075309908820955" r="3.3320352300159057" fill="#8B4513" fill-opacity="0.32141739887856047" />
<circle cx="93.36170940540798" cy="96.10421029595508" r="4.303579323668284" fill="#8B4513" fill-opacity="0.2997062941434497" />
<circle cx="35.810710573661765" cy="84.87679098140813" r="5.717473522597232" fill="#FFDE75" fill-opacity="0.4895348175018233" />
<circle cx="152.535240499432" cy="131.85256582151786" r="4.317952162058898" fill="#FFDE75" fill-opacity="0.2802666868569057" />
<circle cx="121.60402267566595" cy="95.18448641143216" r="5.195893656209268" fill="#FFFFFF" fill-opacity="0.4692797837465824" />
<circle cx="33.380767524334004" cy="146.03999297150744" r="3.1275971476970037" fill="#FFDE75" fill-opacity="0.4642192866895965" />
<circle cx="164.10170117880085" cy="157.39199437732276" r="4.83757880071652" fill="#FFDE75" fill-opacity="0.5361656612836987" />
<circle cx="161.8173064363675" cy="125.18788915496214" r="3.5758797711967545" fill="#D2691E" fill-opacity="0.41074059799272233" />
<circle cx="116.18828705444218" cy="189.1811692757747" r="2.740586885956607" fill="#D2691E" fill-opacity="0.3396775173351674" />
<circle cx="168.6421278995354" cy="85.37551758861457" r="4.71714224636145" fill="#FFDE75" fill-opacity="0.4745917260012312" />
<circle cx="164.17385529916206" cy="68.020527650534" r="5.562748114663259" fill="#FFDE75" fill-opacity="0.5531459464243896" />
<circle cx="152.78025124737363" cy="144.77277878673118" r="4.291396784526366" fill="#FFFFFF" fill-opacity="0.3685397014911247" />
<circle cx="131.13538533150196" cy="159.92605792708923" r="4.448334971953061" fill="#FFFFFF" fill-opacity="0.33340834789689433" />
<circle cx="114.90726633961937" cy="187.25718616427264" r="3.4104697438589286" fill="#FFDE75" fill-opacity="0.38257770972542327" />
<circle cx="75.80102982457544" cy="78.53958322721152" r="4.405122826851425" fill="#8B4513" fill-opacity="0.4880109444126844" />
<circle cx="96.72695626628234" cy="133.2090853438163" r="2.4248191392057272" fill="#FFDE75" fill-opacity="0.4414431477219533" />
<circle cx="137.81355294704724" cy="77.3096103332698" r="5.857132932872682" fill="#FFFFFF" fill-opacity="0.35560911272183404" />
<circle cx="133.22132279371846" cy="164.77381777201154" r="2.4281564735858314" fill="#FFFFFF" fill-opacity="0.4110803963899707" />
<circle cx="136.61831322848448" cy="76.967897291531" r="3.4632300207413986" fill="#D2691E" fill-opacity="0.32265905842247167" />
<circle cx="122.73598214455802" cy="52.10377925644964" r="5.169450850802219" fill="#FFFFFF" fill-opacity="0.40927301160405927" />
<circle cx="156.35695621323885" cy="68.71820549488501" r="3.1504149989366663" fill="#8B4513" fill-opacity="0.2078972491563152" />
<circle cx="155.8096885016901" cy="149.16499434732953" r="2.175562366633406" fill="#8B4513" fill-opacity="0.32613151984270294" />
<circle cx="83.11057269840094" cy="131.2309067498672" r="2.144978976723661" fill="#FFDE75" fill-opacity="0.5776145449560632" />
<circle cx="92.57756897724995" cy="89.45332863134142" r="3.969093704280389" fill="#FFDE75" fill-opacity="0.45377764086230005" />
<circle cx="128.07774362636542" cy="159.16393749533276" r="3.004472048175767" fill="#FFFFFF" fill-opacity="0.2123342978827501" />
<circle cx="83.75937133270219" cy="108.7757662497657" r="3.0180459141833684" fill="#D2691E" fill-opacity="0.4153711768502166" />
<circle cx="175.28243382543002" cy="65.5054183203772" r="4.660007336774547" fill="#FFDE75" fill-opacity="0.4373485314887897" />
<circle cx="140.54678352786226" cy="80.32476005348529" r="4.140505168690531" fill="#D2691E" fill-opacity="0.26503577452007376" />
<circle cx="164.74109339538336" cy="103.32632236010453" r="4.306503991834004" fill="#FFFFFF" fill-opacity="0.26717433023347154" />
<circle cx="44.059490263529305" cy="67.14062581548006" r="3.0695736251223864" fill="#D2691E" fill-opacity="0.5081818209561837" />
<circle cx="86.86798642929085" cy="23.145659315435452" r="3.350368748227352" fill="#8B4513" fill-opacity="0.5822607471446547" />
<circle cx="121.98757633732376" cy="48.42890227363468" r="5.077456318148402" fill="#8B4513" fill-opacity="0.23400962002598813" />
<circle cx="51.30116610634728" cy="130.4600883889122" r="2.6448705927831586" fill="#FFDE75" fill-opacity="0.43637168137290516" />
<circle cx="166.9503907364567" cy="99.92376722103195" r="4.787142524195528" fill="#FFDE75" fill-opacity="0.5315205032219391" />
<ellipse cx="149.12532267567448" cy="37.025996343818164" rx="5.212194936931816" ry="5.883684122579583" fill="#FFFDF0" fill-opacity="0.6" />
<ellipse cx="149.06717249870943" cy="37.86492883770421" rx="2.23363570930448" ry="3.388901684451369" fill="#FFFFFF" fill-opacity="0.85" />
<ellipse cx="96.7672948647205" cy="50.885912193967506" rx="6.773916719290607" ry="5.523936924882937" fill="#FFFDF0" fill-opacity="0.6" />
<ellipse cx="96.81414673716773" cy="51.53042641374112" rx="4.7393657584496065" ry="3.9134294765127002" fill="#FFFFFF" fill-opacity="0.85" />
<ellipse cx="147.255941067651" cy="141.38731919359458" rx="6.605012874682604" ry="7.502178852132005" fill="#FFFDF0" fill-opacity="0.6" />
<ellipse cx="147.3486523153544" cy="142.33534030455357" rx="3.468365983294719" ry="2.37043809743225" fill="#FFFFFF" fill-opacity="0.85" />
<ellipse cx="176.14875869211323" cy="120.36886584792208" rx="7.978841914738354" ry="4.68422743174794" fill="#FFFDF0" fill-opacity="0.6" />
<ellipse cx="175.15925376895328" cy="121.35075526124064" rx="3.9078577495283824" ry="3.5899811487292546" fill="#FFFFFF" fill-opacity="0.85" />
<ellipse cx="172.70173860957203" cy="100.3064003217241" rx="8.167877945790433" ry="5.270780478008531" fill="#FFFDF0" fill-opacity="0.6" />
<ellipse cx="173.0574525756362" cy="99.81649316624743" rx="3.5789864301563075" ry="2.084121257064696" fill="#FFFFFF" fill-opacity="0.85" />
<ellipse cx="132.00478798213337" cy="35.087633363063176" rx="9.201344299126884" ry="8.480200304874067" fill="#FFFDF0" fill-opacity="0.6" />
<ellipse cx="132.3982475502764" cy="34.44369669942098" rx="4.979909587796511" ry="2.9330729374870463" fill="#FFFFFF" fill-opacity="0.85" />
<ellipse cx="108.20025551598872" cy="75.2736309311654" rx="8.821524099350416" ry="5.649464306078098" fill="#FFFDF0" fill-opacity="0.6" />
<ellipse cx="107.44692248765595" cy="74.67998503163288" rx="4.052338440003562" ry="2.5591172851158452" fill="#FFFFFF" fill-opacity="0.85" />
<ellipse cx="136.62785160551547" cy="144.60062969217788" rx="8.82895912926139" ry="5.248901634443258" fill="#FFFDF0" fill-opacity="0.6" />
<ellipse cx="136.35975895638998" cy="145.57957353335348" rx="3.046174146640023" ry="2.761681389887327" fill="#FFFFFF" fill-opacity="0.85" />
<ellipse cx="144.8852297385553" cy="118.17688038320563" rx="7.0474342201877755" ry="4.346001192659476" fill="#FFFDF0" fill-opacity="0.6" />
<ellipse cx="145.20192213612606" cy="117.79066627541222" rx="4.834340814580421" ry="2.007669558527314" fill="#FFFFFF" fill-opacity="0.85" />
<ellipse cx="169.183647896008" cy="147.80807215757574" rx="9.448817276272644" ry="6.916796881377547" fill="#FFFDF0" fill-opacity="0.6" />
<ellipse cx="169.17346864948715" cy="147.99848314975813" rx="3.540524749698318" ry="3.8041921274133452" fill="#FFFFFF" fill-opacity="0.85" />
<ellipse cx="80.01343938815225" cy="115.24422737426326" rx="8.421548844106686" ry="5.963943378443673" fill="#FFFDF0" fill-opacity="0.6" />
<ellipse cx="79.25868026686726" cy="114.91600766555054" rx="2.5151721123694246" ry="2.2999712436251847" fill="#FFFFFF" fill-opacity="0.85" />
<ellipse cx="114.3500292661579" cy="92.4921761074763" rx="5.437453212984227" ry="6.987950561269365" fill="#FFFDF0" fill-opacity="0.6" />
<ellipse cx="113.61509601104108" cy="92.08507903744726" rx="4.399290690665608" ry="3.6426183917043997" fill="#FFFFFF" fill-opacity="0.85" />
</g>
<rect x="230.0" y="41.0" width="54.0" height="54.0" fill="none" stroke="black" stroke-width="2" />
<rect x="230.0" y="115.0" width="54.0" height="54.0" fill="none" stroke="black" stroke-width="2" />
<path d="M225.0,105.0 L289.0,105.0" stroke="black" stroke-width="2" />
<text x="257.0" y="68.0" font-size="36" font-family="Comic Sans MS, Comic Sans, cursive" dominant-baseline="middle" fill="black" text-anchor="middle">4</text>
<text x="257.0" y="142.0" font-size="36" font-family="Comic Sans MS, Comic Sans, cursive" dominant-baseline="middle" fill="black" text-anchor="middle">5</text>
</g>
</svg>
</svg>