<svg width="678.0" height="210.0" xmlns="http://www.w3.org/2000/svg" xmlns:xlink="http://www.w3.org/1999/xlink">
<svg x="0.0" y="0.0" width="284.0" height="210.0" viewBox="0 0 284.0 210" xmlns="http://www.w3.org/2000/svg" xmlns:xlink="http://www.w3.org/1999/xlink">
<defs>
<clipPath id="clip-4501247696-4500856272">
<path d="M105.0,105.0 L105.0,5.0 A100,100,0,0,1,205.0,105.0 Z" fill="none" />
</clipPath>
<clipPath id="clip-4501247696-4565412944">
<path d="M105.0,105.0 L205.0,105.0 A100,100,0,0,1,105.0,205.0 Z" fill="none" />
</clipPath>
</defs>
<g>
<path d="M105.0,105.0 L105.0,5.0 A100,100,0,0,1,205.0,105.0 Z" fill="none" stroke="lightgray" stroke-width="2" />
<path d="M105.0,105.0 L205.0,105.0 A100,100,0,0,1,105.0,205.0 Z" fill="none" stroke="lightgray" stroke-width="2" />
<path d="M105.0,105.0 L105.0,205.0 A100,100,0,0,1,5.0,105.00000000000001 Z" fill="none" stroke="lightgray" stroke-width="2" />
<path d="M105.0,105.0 L5.0,105.00000000000001 A100,100,0,0,1,104.99999999999999,5.0 Z" fill="none" stroke="lightgray" stroke-width="2" />
<path d="M105.0,105.0 L105.0,5.0 A100,100,0,0,1,205.0,105.0 Z" fill="#F5C754" stroke="lightgray" stroke-width="2" />
<use xlink:href="#clip-4501247696-4500856272" />
<g clip-path="url(#clip-4501247696-4500856272)">
<circle cx="105.0" cy="105.0" r="92" stroke="#DAA05D" stroke-width="16" fill="none" />
<circle cx="105.0" cy="105.0" r="98" stroke="#C37B32" stroke-width="5" fill="none" />
<circle cx="44.163634481935375" cy="119.8510215969614" r="3.7798934589681785" fill="#FFDE75" fill-opacity="0.2584778905702549" />
<circle cx="112.65053942378576" cy="147.75355386782243" r="3.7960424492631186" fill="#FFFFFF" fill-opacity="0.49814776084349277" />
<circle cx="109.2486570457857" cy="124.51155121092432" r="5.732090683435683" fill="#FFDE75" fill-opacity="0.4763772202389745" />
<circle cx="80.0593469562759" cy="27.949738472329514" r="2.2789474371305674" fill="#FFFFFF" fill-opacity="0.4625078833860535" />
<circle cx="49.164005370924" cy="45.84461190688716" r="5.132839128504449" fill="#D2691E" fill-opacity="0.5705585665399033" />
<circle cx="77.82104693465706" cy="53.28444651350519" r="5.059870131669183" fill="#FFDE75" fill-opacity="0.2889100978348942" />
<circle cx="54.63201207388582" cy="78.44031066632698" r="3.9626897586261784" fill="#8B4513" fill-opacity="0.5202670600883135" />
<circle cx="107.19763997247638" cy="122.49502882496145" r="3.8002670297486945" fill="#D2691E" fill-opacity="0.43368022644976006" />
<circle cx="117.24059389141553" cy="143.76935597283878" r="2.3599083271981858" fill="#8B4513" fill-opacity="0.4972932718362486" />
<circle cx="118.0318623642482" cy="102.21037218114553" r="4.69252493512489" fill="#D2691E" fill-opacity="0.2295438215545644" />
<circle cx="110.96317278588516" cy="67.6540029856321" r="2.804631667381462" fill="#FFFFFF" fill-opacity="0.32904463784501414" />
<circle cx="74.98698207699286" cy="184.34622607340467" r="2.392355504931536" fill="#FFFFFF" fill-opacity="0.4822979995153969" />
<circle cx="166.57993763625328" cy="105.30889803676013" r="5.35793208970906" fill="#FFDE75" fill-opacity="0.49188439813161805" />
<circle cx="88.42376463406754" cy="106.8926489378915" r="3.723190350962928" fill="#FFDE75" fill-opacity="0.5297317005217095" />
<circle cx="113.05556256891008" cy="59.72604618238261" r="5.643612730931309" fill="#8B4513" fill-opacity="0.4994384082820264" />
<circle cx="83.79498776460098" cy="86.99368822141007" r="2.9666186590807717" fill="#FFDE75" fill-opacity="0.5362946117445742" />
<circle cx="118.41732527996835" cy="131.19690911135456" r="5.085684075768807" fill="#FFDE75" fill-opacity="0.35176423179824867" />
<circle cx="31.99529428054757" cy="129.6458682093823" r="2.3419848472762057" fill="#FFFFFF" fill-opacity="0.2195246690287585" />
<circle cx="39.045298016491984" cy="100.11310475050561" r="2.7211020215543287" fill="#FFFFFF" fill-opacity="0.5499967960365539" />
<circle cx="80.56247432356585" cy="25.95040239602281" r="5.549666672774487" fill="#8B4513" fill-opacity="0.29063600634877224" />
<circle cx="126.61163380862237" cy="106.68014093307482" r="5.957234312138002" fill="#8B4513" fill-opacity="0.4021655994092358" />
<circle cx="159.8385410026302" cy="113.05926914185928" r="3.257624778487921" fill="#FFDE75" fill-opacity="0.528265986234539" />
<circle cx="116.08794909172606" cy="83.99756199875134" r="3.453931424670903" fill="#FFDE75" fill-opacity="0.46696824236993123" />
<circle cx="51.58384357973123" cy="97.51370739578418" r="5.249098913069181" fill="#FFFFFF" fill-opacity="0.5844434447213402" />
<circle cx="50.366363509569965" cy="92.01481700060562" r="4.458620546973164" fill="#FFDE75" fill-opacity="0.5631843779711709" />
<circle cx="90.23062607502092" cy="146.9755544760247" r="4.425526605954942" fill="#D2691E" fill-opacity="0.5828003905906254" />
<circle cx="31.667572976935844" cy="122.87165164625702" r="3.005001269149012" fill="#FFDE75" fill-opacity="0.4307065489375884" />
<circle cx="166.45927880273305" cy="90.75796001599507" r="5.840320267207991" fill="#FFFFFF" fill-opacity="0.319194382746934" />
<circle cx="56.024016984426844" cy="147.57474476228452" r="5.154319441346998" fill="#D2691E" fill-opacity="0.21449002092591304" />
<circle cx="84.82782081957518" cy="112.42777660394823" r="5.866702884403638" fill="#8B4513" fill-opacity="0.38741020262733705" />
<ellipse cx="172.5952088329403" cy="77.26150336481246" rx="5.551191591298034" ry="5.4771505020691675" fill="#FFFDF0" fill-opacity="0.6" />
<ellipse cx="171.87681252514537" cy="78.17791380497599" rx="2.7568617665549753" ry="2.543484267719956" fill="#FFFFFF" fill-opacity="0.85" />
<ellipse cx="145.60704774795693" cy="59.723616813425814" rx="6.770146068576784" ry="4.551483349152166" fill="#FFFDF0" fill-opacity="0.6" />
<ellipse cx="145.47072248449098" cy="60.42690616635112" rx="2.9081787071083536" ry="2.372238809165708" fill="#FFFFFF" fill-opacity="0.85" />
<ellipse cx="152.4825652173149" cy="86.9223922819733" rx="8.784253950345438" ry="6.769107031842731" fill="#FFFDF0" fill-opacity="0.6" />
<ellipse cx="151.5195314958113" cy="87.57581124639563" rx="4.451867359496718" ry="3.610611151115474" fill="#FFFFFF" fill-opacity="0.85" />
<ellipse cx="62.74952857183748" cy="42.793314585254215" rx="8.953226325433771" ry="4.790483353443184" fill="#FFFDF0" fill-opacity="0.6" />
<ellipse cx="63.67650975717751" cy="42.27125968398454" rx="2.431548210955455" ry="3.8974594261425994" fill="#FFFFFF" fill-opacity="0.85" />
<ellipse cx="182.45804303111623" cy="84.03336611286824" rx="5.127700059165666" ry="5.445497541535112" fill="#FFFDF0" fill-opacity="0.6" />
<ellipse cx="182.0434000872808" cy="84.72197570283573" rx="4.869121951173035" ry="3.632657628224506" fill="#FFFFFF" fill-opacity="0.85" />
<ellipse cx="28.105804820822996" cy="101.67397056399292" rx="9.571307216974711" ry="7.048838972204373" fill="#FFFDF0" fill-opacity="0.6" />
<ellipse cx="28.410956260987465" cy="102.60836767551643" rx="2.6623199585435255" ry="2.580667564796718" fill="#FFFFFF" fill-opacity="0.85" />
</g>
<path d="M105.0,105.0 L205.0,105.0 A100,100,0,0,1,105.0,205.0 Z" fill="#F5C754" stroke="lightgray" stroke-width="2" />
<use xlink:href="#clip-4501247696-4565412944" />
<g clip-path="url(#clip-4501247696-4565412944)">
<circle cx="105.0" cy="105.0" r="92" stroke="#DAA05D" stroke-width="16" fill="none" />
<circle cx="105.0" cy="105.0" r="98" stroke="#C37B32" stroke-width="5" fill="none" />
<circle cx="44.163634481935375" cy="119.8510215969614" r="3.7798934589681785" fill="#FFDE75" fill-opacity="0.2584778905702549" />
<circle cx="112.65053942378576" cy="147.75355386782243" r="3.7960424492631186" fill="#FFFFFF" fill-opacity="0.49814776084349277" />
<circle cx="109.2486570457857" cy="124.51155121092432" r="5.732090683435683" fill="#FFDE75" fill-opacity="0.4763772202389745" />
<circle cx="80.0593469562759" cy="27.949738472329514" r="2.2789474371305674" fill="#FFFFFF" fill-opacity="0.4625078833860535" />
<circle cx="49.164005370924" cy="45.84461190688716" r="5.132839128504449" fill="#D2691E" fill-opacity="0.5705585665399033" />
<circle cx="77.82104693465706" cy="53.28444651350519" r="5.059870131669183" fill="#FFDE75" fill-opacity="0.2889100978348942" />
<circle cx="54.63201207388582" cy="78.44031066632698" r="3.9626897586261784" fill="#8B4513" fill-opacity="0.5202670600883135" />
<circle cx="107.19763997247638" cy="122.49502882496145" r="3.8002670297486945" fill="#D2691E" fill-opacity="0.43368022644976006" />
<circle cx="117.24059389141553" cy="143.76935597283878" r="2.3599083271981858" fill="#8B4513" fill-opacity="0.4972932718362486" />
<circle cx="118.0318623642482" cy="102.21037218114553" r="4.69252493512489" fill="#D2691E" fill-opacity="0.2295438215545644" />
<circle cx="110.96317278588516" cy="67.6540029856321" r="2.804631667381462" fill="#FFFFFF" fill-opacity="0.32904463784501414" />
<circle cx="74.98698207699286" cy="184.34622607340467" r="2.392355504931536" fill="#FFFFFF" fill-opacity="0.4822979995153969" />
<circle cx="166.57993763625328" cy="105.30889803676013" r="5.35793208970906" fill="#FFDE75" fill-opacity="0.49188439813161805" />
<circle cx="88.42376463406754" cy="106.8926489378915" r="3.723190350962928" fill="#FFDE75" fill-opacity="0.5297317005217095" />
<circle cx="113.05556256891008" cy="59.72604618238261" r="5.643612730931309" fill="#8B4513" fill-opacity="0.4994384082820264" />
<circle cx="83.79498776460098" cy="86.99368822141007" r="2.9666186590807717" fill="#FFDE75" fill-opacity="0.5362946117445742" />
<circle cx="118.41732527996835" cy="131.19690911135456" r="5.085684075768807" fill="#FFDE75" fill-opacity="0.35176423179824867" />
<circle cx="31.99529428054757" cy="129.6458682093823" r="2.3419848472762057" fill="#FFFFFF" fill-opacity="0.2195246690287585" />
<circle cx="39.045298016491984" cy="100.11310475050561" r="2.7211020215543287" fill="#FFFFFF" fill-opacity="0.5499967960365539" />
<circle cx="80.56247432356585" cy="25.95040239602281" r="5.549666672774487" fill="#8B4513" fill-opacity="0.29063600634877224" />
<circle cx="126.61163380862237" cy="106.68014093307482" r="5.957234312138002" fill="#8B4513" fill-opacity="0.4021655994092358" />
<circle cx="159.8385410026302" cy="113.05926914185928" r="3.257624778487921" fill="#FFDE75" fill-opacity="0.528265986234539" />
<circle cx="116.08794909172606" cy="83.99756199875134" r="3.453931424670903" fill="#FFDE75" fill-opacity="0.46696824236993123" />
<circle cx="51.58384357973123" cy="97.51370739578418" r="5.249098913069181" fill="#FFFFFF" fill-opacity="0.5844434447213402" />
<circle cx="50.366363509569965" cy="92.01481700060562" r="4.458620546973164" fill="#FFDE75" fill-opacity="0.5631843779711709" />
<circle cx="90.23062607502092" cy="146.9755544760247" r="4.425526605954942" fill="#D2691E" fill-opacity="0.5828003905906254" />
<circle cx="31.667572976935844" cy="122.87165164625702" r="3.005001269149012" fill="#FFDE75" fill-opacity="0.4307065489375884" />
<circle cx="166.45927880273305" cy="90.75796001599507" r="5.840320267207991" fill="#FFFFFF" fill-opacity="0.319194382746934" />
<circle cx="56.024016984426844" cy="147.57474476228452" r="5.154319441346998" fill="#D2691E" fill-opacity="0.21449002092591304" />
<circle cx="84.82782081957518" cy="112.42777660394823" r="5.866702884403638" fill="#8B4513" fill-opacity="0.38741020262733705" />
<ellipse cx="172.5952088329403" cy="77.26150336481246" rx="5.551191591298034" ry="5.4771505020691675" fill="#FFFDF0" fill-opacity="0.6" />
<ellipse cx="171.87681252514537" cy="78.17791380497599" rx="2.7568617665549753" ry="2.543484267719956" fill="#FFFFFF" fill-opacity="0.85" />
<ellipse cx="145.60704774795693" cy="59.723616813425814" rx="6.770146068576784" ry="4.551483349152166" fill="#FFFDF0" fill-opacity="0.6" />
<ellipse cx="145.47072248449098" cy="60.42690616635112" rx="2.9081787071083536" ry="2.372238809165708" fill="#FFFFFF" fill-opacity="0.85" />
<ellipse cx="152.4825652173149" cy="86.9223922819733" rx="8.784253950345438" ry="6.769107031842731" fill="#FFFDF0" fill-opacity="0.6" />
<ellipse cx="151.5195314958113" cy="87.57581124639563" rx="4.451867359496718" ry="3.610611151115474" fill="#FFFFFF" fill-opacity="0.85" />
<ellipse cx="62.74952857183748" cy="42.793314585254215" rx="8.953226325433771" ry="4.790483353443184" fill="#FFFDF0" fill-opacity="0.6" />
<ellipse cx="63.67650975717751" cy="42.27125968398454" rx="2.431548210955455" ry="3.8974594261425994" fill="#FFFFFF" fill-opacity="0.85" />
<ellipse cx="182.45804303111623" cy="84.03336611286824" rx="5.127700059165666" ry="5.445497541535112" fill="#FFFDF0" fill-opacity="0.6" />
<ellipse cx="182.0434000872808" cy="84.72197570283573" rx="4.869121951173035" ry="3.632657628224506" fill="#FFFFFF" fill-opacity="0.85" />
<ellipse cx="28.105804820822996" cy="101.67397056399292" rx="9.571307216974711" ry="7.048838972204373" fill="#FFFDF0" fill-opacity="0.6" />
<ellipse cx="28.410956260987465" cy="102.60836767551643" rx="2.6623199585435255" ry="2.580667564796718" fill="#FFFFFF" fill-opacity="0.85" />
</g>
<rect x="230.0" y="41.0" width="54.0" height="54.0" fill="none" stroke="black" stroke-width="2" />
<rect x="230.0" y="115.0" width="54.0" height="54.0" fill="none" stroke="black" stroke-width="2" />
<path d="M225.0,105.0 L289.0,105.0" stroke="black" stroke-width="2" />
<text x="257.0" y="68.0" font-size="36" font-family="Comic Sans MS, Comic Sans, cursive" dominant-baseline="middle" fill="black" text-anchor="middle">2</text>
<text x="257.0" y="142.0" font-size="36" font-family="Comic Sans MS, Comic Sans, cursive" dominant-baseline="middle" fill="black" text-anchor="middle">4</text>
</g>
</svg>
<rect x="299.0" y="65.0" width="80" height="80" fill="none" stroke="black" stroke-width="1.5"/>
<svg x="394.0" y="0.0" width="284.0" height="210.0" viewBox="0 0 284.0 210" xmlns="http://www.w3.org/2000/svg" xmlns:xlink="http://www.w3.org/1999/xlink">
<defs>
<clipPath id="clip-4501248416-4500855120">
<path d="M105.0,105.0 L105.0,5.0 A100,100,0,0,1,105.0,205.0 Z" fill="none" />
</clipPath>
</defs>
<g>
<path d="M105.0,105.0 L105.0,5.0 A100,100,0,0,1,105.0,205.0 Z" fill="none" stroke="lightgray" stroke-width="2" />
<path d="M105.0,105.0 L105.0,205.0 A100,100,0,0,1,104.99999999999999,5.0 Z" fill="none" stroke="lightgray" stroke-width="2" />
<path d="M105.0,105.0 L105.0,5.0 A100,100,0,0,1,105.0,205.0 Z" fill="#F5C754" stroke="lightgray" stroke-width="2" />
<use xlink:href="#clip-4501248416-4500855120" />
<g clip-path="url(#clip-4501248416-4500855120)">
<circle cx="105.0" cy="105.0" r="92" stroke="#DAA05D" stroke-width="16" fill="none" />
<circle cx="105.0" cy="105.0" r="98" stroke="#C37B32" stroke-width="5" fill="none" />
<circle cx="145.5924051776096" cy="106.18662819237566" r="3.2853690030983134" fill="#FFFFFF" fill-opacity="0.21938834874805724" />
<circle cx="161.28601983022367" cy="123.64729114427115" r="5.338938327386378" fill="#FFDE75" fill-opacity="0.3033650801547516" />
<circle cx="69.22439079823752" cy="172.8692995347061" r="3.4910383430761445" fill="#FFFFFF" fill-opacity="0.5634800722163842" />
<circle cx="109.43085556574763" cy="101.13423260554244" r="4.689525952432373" fill="#8B4513" fill-opacity="0.24892294014696664" />
<circle cx="33.32028028562722" cy="135.67428837685455" r="2.9902012302865435" fill="#8B4513" fill-opacity="0.42627508060727004" />
<circle cx="29.730281510118786" cy="136.93150786662102" r="4.425914687314091" fill="#FFFFFF" fill-opacity="0.4247251076175997" />
<circle cx="175.62824298654644" cy="92.38370932606115" r="3.596130584380829" fill="#FFDE75" fill-opacity="0.25280344889608514" />
<circle cx="44.94839669758692" cy="46.471494950215714" r="5.575686422937553" fill="#D2691E" fill-opacity="0.522434407571666" />
<circle cx="30.62251258886674" cy="97.84861452761214" r="2.2966915701456285" fill="#FFDE75" fill-opacity="0.49673282681952174" />
<circle cx="147.91785235874704" cy="163.92554622184008" r="5.784386187083742" fill="#D2691E" fill-opacity="0.4659990403387718" />
<circle cx="97.13973828088301" cy="121.11519984869875" r="5.146437361650316" fill="#FFDE75" fill-opacity="0.5454665655461086" />
<circle cx="41.718575208701495" cy="69.6179368073146" r="3.5471995472007047" fill="#FFFFFF" fill-opacity="0.21368126810346022" />
<circle cx="171.2497990399197" cy="85.17493133023147" r="2.729717335146453" fill="#D2691E" fill-opacity="0.5256090989845872" />
<circle cx="140.4420079444303" cy="78.46787791852319" r="5.188112392284307" fill="#8B4513" fill-opacity="0.2892426007228014" />
<circle cx="74.13779250605428" cy="58.26012886823304" r="2.1441265867616877" fill="#FFDE75" fill-opacity="0.41502326430200154" />
<ellipse cx="46.81276390757913" cy="51.38455214852347" rx="9.483981196960796" ry="4.648298141909539" fill="#FFFDF0" fill-opacity="0.6" />
<ellipse cx="47.43300971003713" cy="50.75668619884472" rx="3.189246354360029" ry="2.783340634678714" fill="#FFFFFF" fill-opacity="0.85" />
<ellipse cx="176.5035090566252" cy="96.75452567996923" rx="9.87582436899633" ry="5.488509879482715" fill="#FFFDF0" fill-opacity="0.6" />
<ellipse cx="177.47079463946912" cy="96.76986961534233" rx="3.611619426213762" ry="2.3025911526428406" fill="#FFFFFF" fill-opacity="0.85" />
<ellipse cx="62.24862423810586" cy="35.81850732829905" rx="9.10036817127147" ry="5.790186209350931" fill="#FFFDF0" fill-opacity="0.6" />
<ellipse cx="61.55235551751367" cy="35.640892309593646" rx="2.4309365715319355" ry="3.009254455747705" fill="#FFFFFF" fill-opacity="0.85" />
</g>
<rect x="230.0" y="41.0" width="54.0" height="54.0" fill="none" stroke="black" stroke-width="2" />
<rect x="230.0" y="115.0" width="54.0" height="54.0" fill="none" stroke="black" stroke-width="2" />
<path d="M225.0,105.0 L289.0,105.0" stroke="black" stroke-width="2" />
<text x="257.0" y="68.0" font-size="36" font-family="Comic Sans MS, Comic Sans, cursive" dominant-baseline="middle" fill="black" text-anchor="middle">1</text>
<text x="257.0" y="142.0" font-size="36" font-family="Comic Sans MS, Comic Sans, cursive" dominant-baseline="middle" fill="black" text-anchor="middle">2</text>
</g>
</svg>
</svg>