<?xml version="1.0" encoding="UTF-8"?>
<svg xmlns="http://www.w3.org/2000/svg" xmlns:xlink="http://www.w3.org/1999/xlink"
     width="284.0" height="210" viewBox="0 0 284.0 210">
<defs>
<clipPath id="clip-4501450320-4503679440">
<path d="M105.0,105.0 L105.0,5.0 A100,100,0,0,1,163.77852522924732,24.09830056250526 Z" fill="none" />
</clipPath>
<clipPath id="clip-4501450320-4567679440">
<path d="M105.0,105.0 L163.77852522924732,24.09830056250526 A100,100,0,0,1,200.10565162951536,74.09830056250526 Z" fill="none" />
</clipPath>
<clipPath id="clip-4501450320-4503676112">
<path d="M105.0,105.0 L200.10565162951536,74.09830056250526 A100,100,0,0,1,200.10565162951536,135.90169943749473 Z" fill="none" />
</clipPath>
</defs>
<g>
<path d="M105.0,105.0 L105.0,5.0 A100,100,0,0,1,163.77852522924732,24.09830056250526 Z" fill="none" stroke="lightgray" stroke-width="2" />
<path d="M105.0,105.0 L163.77852522924732,24.09830056250526 A100,100,0,0,1,200.10565162951536,74.09830056250526 Z" fill="none" stroke="lightgray" stroke-width="2" />
<path d="M105.0,105.0 L200.10565162951536,74.09830056250526 A100,100,0,0,1,200.10565162951536,135.90169943749473 Z" fill="none" stroke="lightgray" stroke-width="2" />
<path d="M105.0,105.0 L200.10565162951536,135.90169943749473 A100,100,0,0,1,163.77852522924732,185.90169943749476 Z" fill="none" stroke="lightgray" stroke-width="2" />
<path d="M105.0,105.0 L163.77852522924732,185.90169943749476 A100,100,0,0,1,105.0,205.0 Z" fill="none" stroke="lightgray" stroke-width="2" />
<path d="M105.0,105.0 L105.0,205.0 A100,100,0,0,1,46.2214747707527,185.90169943749476 Z" fill="none" stroke="lightgray" stroke-width="2" />
<path d="M105.0,105.0 L46.2214747707527,185.90169943749476 A100,100,0,0,1,9.89434837048465,135.90169943749476 Z" fill="none" stroke="lightgray" stroke-width="2" />
<path d="M105.0,105.0 L9.89434837048465,135.90169943749476 A100,100,0,0,1,9.894348370484636,74.09830056250527 Z" fill="none" stroke="lightgray" stroke-width="2" />
<path d="M105.0,105.0 L9.894348370484636,74.09830056250527 A100,100,0,0,1,46.22147477075268,24.098300562505273 Z" fill="none" stroke="lightgray" stroke-width="2" />
<path d="M105.0,105.0 L46.22147477075268,24.098300562505273 A100,100,0,0,1,104.99999999999999,5.0 Z" fill="none" stroke="lightgray" stroke-width="2" />
<path d="M105.0,105.0 L105.0,5.0 A100,100,0,0,1,163.77852522924732,24.09830056250526 Z" fill="#FEF7E3" stroke="lightgray" stroke-width="2" />
<use xlink:href="#clip-4501450320-4503679440" />
<g clip-path="url(#clip-4501450320-4503679440)">
<circle cx="105.0" cy="105.0" r="92" stroke="#DAA05D" stroke-width="16" fill="none" />
<circle cx="105.0" cy="105.0" r="98" stroke="#C37B32" stroke-width="5" fill="none" />
<circle cx="114.64121397809919" cy="148.00899572523178" r="4.9735720728779995" fill="#FFFFFF" fill-opacity="0.3117181197454665" />
<circle cx="141.45355934068064" cy="145.18300223894215" r="3.800537298790312" fill="#FFDE75" fill-opacity="0.2608849223789246" />
<circle cx="125.1754301205143" cy="142.56738517461284" r="5.215577000858939" fill="#8B4513" fill-opacity="0.5330128227140247" />
<circle cx="121.90096017244505" cy="26.678251423196727" r="5.710844455469619" fill="#8B4513" fill-opacity="0.3230250602330912" />
<circle cx="56.91443594871386" cy="80.99212032905571" r="3.8179125766483133" fill="#8B4513" fill-opacity="0.3201210469706578" />
<circle cx="35.39079947390226" cy="141.88479218653058" r="2.322077226763124" fill="#D2691E" fill-opacity="0.4010687127867628" />
<circle cx="38.39436201572684" cy="108.98505822868836" r="3.949824806621373" fill="#FFDE75" fill-opacity="0.3827598279500772" />
<circle cx="107.28651846536246" cy="53.55603464363711" r="4.978660574673446" fill="#FFDE75" fill-opacity="0.38494763500406637" />
<circle cx="37.40455892146956" cy="93.01792629491727" r="4.160860863946777" fill="#8B4513" fill-opacity="0.3613658266451476" />
<circle cx="127.5291941979558" cy="73.15823233949087" r="3.3580392236689542" fill="#8B4513" fill-opacity="0.38356740795371674" />
<circle cx="68.1839350314416" cy="102.55332604612782" r="2.883381727053072" fill="#FFDE75" fill-opacity="0.4919780497710489" />
<circle cx="131.64803413036984" cy="94.15922047232253" r="4.352552734335667" fill="#D2691E" fill-opacity="0.20499376894605925" />
<circle cx="88.82501193846863" cy="81.32194772077021" r="5.659679290299572" fill="#FFFFFF" fill-opacity="0.43488653774264896" />
<circle cx="97.10655882381809" cy="64.21124242571463" r="4.260603613594005" fill="#FFDE75" fill-opacity="0.4206189656580261" />
<circle cx="72.12608653686775" cy="145.59220215994878" r="5.751899696099844" fill="#FFFFFF" fill-opacity="0.43596097016083996" />
<circle cx="146.53985294976" cy="31.08291290116921" r="5.853132343596002" fill="#FFFFFF" fill-opacity="0.43747516321500635" />
<circle cx="85.15072166490945" cy="106.73306191515645" r="4.133148386922258" fill="#D2691E" fill-opacity="0.2211127963765497" />
<circle cx="117.26891372741215" cy="153.818731691427" r="5.018138001740871" fill="#FFDE75" fill-opacity="0.44792916381349024" />
<circle cx="44.63874690845906" cy="60.712486652023266" r="2.26470325324719" fill="#FFFFFF" fill-opacity="0.2261812526593745" />
<circle cx="94.55151047653318" cy="43.94069914541094" r="5.622653000175106" fill="#D2691E" fill-opacity="0.46516591275304753" />
<circle cx="61.9073239598825" cy="116.79910561254974" r="4.345941124092821" fill="#FFDE75" fill-opacity="0.5613722080261924" />
<circle cx="97.96473589442499" cy="145.84259120732543" r="3.3312961045232403" fill="#FFFFFF" fill-opacity="0.4934523434560179" />
<circle cx="55.125583240765" cy="66.80528689266049" r="5.3021222254663485" fill="#D2691E" fill-opacity="0.254431302807211" />
<circle cx="69.00276599268366" cy="121.05908041328094" r="4.846727849563626" fill="#FFDE75" fill-opacity="0.3301577230532297" />
<circle cx="38.346459349096065" cy="157.58864610457653" r="3.5138140095554076" fill="#8B4513" fill-opacity="0.3643088560826377" />
<circle cx="128.66854942880224" cy="26.615610982022204" r="5.301824057967347" fill="#8B4513" fill-opacity="0.26579972266545376" />
<circle cx="123.28282818021295" cy="55.99489277019131" r="4.8380808651598795" fill="#FFDE75" fill-opacity="0.49905708249162073" />
<circle cx="58.53336861015306" cy="98.63674639411086" r="4.16950700190794" fill="#FFFFFF" fill-opacity="0.2878564430697502" />
<circle cx="79.37419745007267" cy="112.99973044402097" r="3.0192090597589485" fill="#D2691E" fill-opacity="0.22354705848637574" />
<circle cx="96.76714709922793" cy="62.199513346949004" r="3.3229107781403195" fill="#FFFFFF" fill-opacity="0.5261968606369019" />
<circle cx="153.79537509670436" cy="140.83208091768233" r="3.604025363564002" fill="#D2691E" fill-opacity="0.22005528112251543" />
<circle cx="93.49832623267487" cy="24.565890996998363" r="3.7922467426799416" fill="#8B4513" fill-opacity="0.2174997658855491" />
<circle cx="55.41355958304786" cy="154.92573284654952" r="2.187888378381457" fill="#D2691E" fill-opacity="0.4790738414834822" />
<circle cx="149.0447864807531" cy="144.97372559064962" r="5.220378542104968" fill="#8B4513" fill-opacity="0.3120836613349543" />
<circle cx="150.65491248899238" cy="41.92350804564515" r="3.0724034913686484" fill="#D2691E" fill-opacity="0.4234230181099846" />
<circle cx="32.85487105520815" cy="99.50577725144787" r="3.3829895166745483" fill="#FFDE75" fill-opacity="0.22245434547505394" />
<circle cx="106.81802831448775" cy="171.259306569596" r="4.292924278577436" fill="#D2691E" fill-opacity="0.31377986417972464" />
<circle cx="116.42271867534987" cy="128.30488994956036" r="2.221008145122041" fill="#D2691E" fill-opacity="0.2604035638281702" />
<circle cx="36.897503461436116" cy="70.85706767257386" r="2.9724338699199846" fill="#FFFFFF" fill-opacity="0.20151812290315851" />
<circle cx="33.84469512567239" cy="133.60172117327966" r="5.240344627991105" fill="#FFDE75" fill-opacity="0.5367542154557137" />
<circle cx="72.75258336758431" cy="76.24077216549924" r="3.6668332653985156" fill="#D2691E" fill-opacity="0.307412707243672" />
<circle cx="155.14226511123064" cy="39.86153038283199" r="5.11221540562535" fill="#8B4513" fill-opacity="0.41079743653460316" />
<circle cx="31.885912873300185" cy="72.55499904930127" r="4.488352598449763" fill="#FFFFFF" fill-opacity="0.23704984930541736" />
<circle cx="170.27546108863822" cy="120.90869477849071" r="5.22172511575007" fill="#8B4513" fill-opacity="0.331398645161098" />
<circle cx="53.900584110597016" cy="59.72264344644871" r="5.367839258089857" fill="#FFDE75" fill-opacity="0.4519750663827711" />
<circle cx="81.86697685690805" cy="163.4325873163498" r="7.692066557899556" fill="#FFFFFF" fill-opacity="0.95" stroke="#FAF0E6" stroke-width="1.5" />
<circle cx="46.511217225197754" cy="55.70884276139822" r="6.0352180500658" fill="#FFFFFF" fill-opacity="0.95" stroke="#FAF0E6" stroke-width="1.5" />
<circle cx="29.097588591057942" cy="121.35938725490419" r="5.291967862175432" fill="#FFFFFF" fill-opacity="0.95" stroke="#FAF0E6" stroke-width="1.5" />
<circle cx="124.189743080929" cy="91.69248458618966" r="5.559119286894986" fill="#FFFFFF" fill-opacity="0.95" stroke="#FAF0E6" stroke-width="1.5" />
<circle cx="130.37193938903764" cy="74.09425349229907" r="10.089070447252292" fill="#FFFFFF" fill-opacity="0.95" stroke="#FAF0E6" stroke-width="1.5" />
<circle cx="145.01825258263287" cy="42.48260687278625" r="6.043848454108238" fill="#FFFFFF" fill-opacity="0.95" stroke="#FAF0E6" stroke-width="1.5" />
<circle cx="167.97871202854606" cy="66.1388576449283" r="11.977342737926602" fill="#FFFFFF" fill-opacity="0.95" stroke="#FAF0E6" stroke-width="1.5" />
<circle cx="137.8065724803159" cy="175.9966579412189" r="5.953910692981921" fill="#FFFFFF" fill-opacity="0.95" stroke="#FAF0E6" stroke-width="1.5" />
<circle cx="157.99656998906767" cy="141.07135607867917" r="10.27293858010071" fill="#FFFFFF" fill-opacity="0.95" stroke="#FAF0E6" stroke-width="1.5" />
<circle cx="79.82758820567864" cy="139.97311378836326" r="5.730042776399183" fill="#FFFFFF" fill-opacity="0.95" stroke="#FAF0E6" stroke-width="1.5" />
<circle cx="167.58716508686027" cy="123.41371486800524" r="8.219568531648441" fill="#FFFFFF" fill-opacity="0.95" stroke="#FAF0E6" stroke-width="1.5" />
<circle cx="127.64928803947379" cy="28.94439391188328" r="8.912739721246739" fill="#FFFFFF" fill-opacity="0.95" stroke="#FAF0E6" stroke-width="1.5" />
<circle cx="77.29932236722993" cy="111.00254490181838" r="7.104873042050001" fill="#FFFFFF" fill-opacity="0.95" stroke="#FAF0E6" stroke-width="1.5" />
<circle cx="105.04109386119114" cy="144.07582629638964" r="7.064171603307812" fill="#FFFFFF" fill-opacity="0.95" stroke="#FAF0E6" stroke-width="1.5" />
<circle cx="77.33904955053274" cy="129.35561670099494" r="9.670650412234895" fill="#FFFFFF" fill-opacity="0.95" stroke="#FAF0E6" stroke-width="1.5" />
<circle cx="153.3276374675709" cy="154.49443203738244" r="10.78098229406406" fill="#FFFFFF" fill-opacity="0.95" stroke="#FAF0E6" stroke-width="1.5" />
<circle cx="61.46621175133702" cy="151.06303783642696" r="6.287110821367749" fill="#FFFFFF" fill-opacity="0.95" stroke="#FAF0E6" stroke-width="1.5" />
<circle cx="42.66810062257743" cy="110.49983598371597" r="11.25573483033496" fill="#FFFFFF" fill-opacity="0.95" stroke="#FAF0E6" stroke-width="1.5" />
</g>
<path d="M105.0,105.0 L163.77852522924732,24.09830056250526 A100,100,0,0,1,200.10565162951536,74.09830056250526 Z" fill="#FEF7E3" stroke="lightgray" stroke-width="2" />
<use xlink:href="#clip-4501450320-4567679440" />
<g clip-path="url(#clip-4501450320-4567679440)">
<circle cx="105.0" cy="105.0" r="92" stroke="#DAA05D" stroke-width="16" fill="none" />
<circle cx="105.0" cy="105.0" r="98" stroke="#C37B32" stroke-width="5" fill="none" />
<circle cx="114.64121397809919" cy="148.00899572523178" r="4.9735720728779995" fill="#FFFFFF" fill-opacity="0.3117181197454665" />
<circle cx="141.45355934068064" cy="145.18300223894215" r="3.800537298790312" fill="#FFDE75" fill-opacity="0.2608849223789246" />
<circle cx="125.1754301205143" cy="142.56738517461284" r="5.215577000858939" fill="#8B4513" fill-opacity="0.5330128227140247" />
<circle cx="121.90096017244505" cy="26.678251423196727" r="5.710844455469619" fill="#8B4513" fill-opacity="0.3230250602330912" />
<circle cx="56.91443594871386" cy="80.99212032905571" r="3.8179125766483133" fill="#8B4513" fill-opacity="0.3201210469706578" />
<circle cx="35.39079947390226" cy="141.88479218653058" r="2.322077226763124" fill="#D2691E" fill-opacity="0.4010687127867628" />
<circle cx="38.39436201572684" cy="108.98505822868836" r="3.949824806621373" fill="#FFDE75" fill-opacity="0.3827598279500772" />
<circle cx="107.28651846536246" cy="53.55603464363711" r="4.978660574673446" fill="#FFDE75" fill-opacity="0.38494763500406637" />
<circle cx="37.40455892146956" cy="93.01792629491727" r="4.160860863946777" fill="#8B4513" fill-opacity="0.3613658266451476" />
<circle cx="127.5291941979558" cy="73.15823233949087" r="3.3580392236689542" fill="#8B4513" fill-opacity="0.38356740795371674" />
<circle cx="68.1839350314416" cy="102.55332604612782" r="2.883381727053072" fill="#FFDE75" fill-opacity="0.4919780497710489" />
<circle cx="131.64803413036984" cy="94.15922047232253" r="4.352552734335667" fill="#D2691E" fill-opacity="0.20499376894605925" />
<circle cx="88.82501193846863" cy="81.32194772077021" r="5.659679290299572" fill="#FFFFFF" fill-opacity="0.43488653774264896" />
<circle cx="97.10655882381809" cy="64.21124242571463" r="4.260603613594005" fill="#FFDE75" fill-opacity="0.4206189656580261" />
<circle cx="72.12608653686775" cy="145.59220215994878" r="5.751899696099844" fill="#FFFFFF" fill-opacity="0.43596097016083996" />
<circle cx="146.53985294976" cy="31.08291290116921" r="5.853132343596002" fill="#FFFFFF" fill-opacity="0.43747516321500635" />
<circle cx="85.15072166490945" cy="106.73306191515645" r="4.133148386922258" fill="#D2691E" fill-opacity="0.2211127963765497" />
<circle cx="117.26891372741215" cy="153.818731691427" r="5.018138001740871" fill="#FFDE75" fill-opacity="0.44792916381349024" />
<circle cx="44.63874690845906" cy="60.712486652023266" r="2.26470325324719" fill="#FFFFFF" fill-opacity="0.2261812526593745" />
<circle cx="94.55151047653318" cy="43.94069914541094" r="5.622653000175106" fill="#D2691E" fill-opacity="0.46516591275304753" />
<circle cx="61.9073239598825" cy="116.79910561254974" r="4.345941124092821" fill="#FFDE75" fill-opacity="0.5613722080261924" />
<circle cx="97.96473589442499" cy="145.84259120732543" r="3.3312961045232403" fill="#FFFFFF" fill-opacity="0.4934523434560179" />
<circle cx="55.125583240765" cy="66.80528689266049" r="5.3021222254663485" fill="#D2691E" fill-opacity="0.254431302807211" />
<circle cx="69.00276599268366" cy="121.05908041328094" r="4.846727849563626" fill="#FFDE75" fill-opacity="0.3301577230532297" />
<circle cx="38.346459349096065" cy="157.58864610457653" r="3.5138140095554076" fill="#8B4513" fill-opacity="0.3643088560826377" />
<circle cx="128.66854942880224" cy="26.615610982022204" r="5.301824057967347" fill="#8B4513" fill-opacity="0.26579972266545376" />
<circle cx="123.28282818021295" cy="55.99489277019131" r="4.8380808651598795" fill="#FFDE75" fill-opacity="0.49905708249162073" />
<circle cx="58.53336861015306" cy="98.63674639411086" r="4.16950700190794" fill="#FFFFFF" fill-opacity="0.2878564430697502" />
<circle cx="79.37419745007267" cy="112.99973044402097" r="3.0192090597589485" fill="#D2691E" fill-opacity="0.22354705848637574" />
<circle cx="96.76714709922793" cy="62.199513346949004" r="3.3229107781403195" fill="#FFFFFF" fill-opacity="0.5261968606369019" />
<circle cx="153.79537509670436" cy="140.83208091768233" r="3.604025363564002" fill="#D2691E" fill-opacity="0.22005528112251543" />
<circle cx="93.49832623267487" cy="24.565890996998363" r="3.7922467426799416" fill="#8B4513" fill-opacity="0.2174997658855491" />
<circle cx="55.41355958304786" cy="154.92573284654952" r="2.187888378381457" fill="#D2691E" fill-opacity="0.4790738414834822" />
<circle cx="149.0447864807531" cy="144.97372559064962" r="5.220378542104968" fill="#8B4513" fill-opacity="0.3120836613349543" />
<circle cx="150.65491248899238" cy="41.92350804564515" r="3.0724034913686484" fill="#D2691E" fill-opacity="0.4234230181099846" />
<circle cx="32.85487105520815" cy="99.50577725144787" r="3.3829895166745483" fill="#FFDE75" fill-opacity="0.22245434547505394" />
<circle cx="106.81802831448775" cy="171.259306569596" r="4.292924278577436" fill="#D2691E" fill-opacity="0.31377986417972464" />
<circle cx="116.42271867534987" cy="128.30488994956036" r="2.221008145122041" fill="#D2691E" fill-opacity="0.2604035638281702" />
<circle cx="36.897503461436116" cy="70.85706767257386" r="2.9724338699199846" fill="#FFFFFF" fill-opacity="0.20151812290315851" />
<circle cx="33.84469512567239" cy="133.60172117327966" r="5.240344627991105" fill="#FFDE75" fill-opacity="0.5367542154557137" />
<circle cx="72.75258336758431" cy="76.24077216549924" r="3.6668332653985156" fill="#D2691E" fill-opacity="0.307412707243672" />
<circle cx="155.14226511123064" cy="39.86153038283199" r="5.11221540562535" fill="#8B4513" fill-opacity="0.41079743653460316" />
<circle cx="31.885912873300185" cy="72.55499904930127" r="4.488352598449763" fill="#FFFFFF" fill-opacity="0.23704984930541736" />
<circle cx="170.27546108863822" cy="120.90869477849071" r="5.22172511575007" fill="#8B4513" fill-opacity="0.331398645161098" />
<circle cx="53.900584110597016" cy="59.72264344644871" r="5.367839258089857" fill="#FFDE75" fill-opacity="0.4519750663827711" />
<circle cx="81.86697685690805" cy="163.4325873163498" r="7.692066557899556" fill="#FFFFFF" fill-opacity="0.95" stroke="#FAF0E6" stroke-width="1.5" />
<circle cx="46.511217225197754" cy="55.70884276139822" r="6.0352180500658" fill="#FFFFFF" fill-opacity="0.95" stroke="#FAF0E6" stroke-width="1.5" />
<circle cx="29.097588591057942" cy="121.35938725490419" r="5.291967862175432" fill="#FFFFFF" fill-opacity="0.95" stroke="#FAF0E6" stroke-width="1.5" />
<circle cx="124.189743080929" cy="91.69248458618966" r="5.559119286894986" fill="#FFFFFF" fill-opacity="0.95" stroke="#FAF0E6" stroke-width="1.5" />
<circle cx="130.37193938903764" cy="74.09425349229907" r="10.089070447252292" fill="#FFFFFF" fill-opacity="0.95" stroke="#FAF0E6" stroke-width="1.5" />
<circle cx="145.01825258263287" cy="42.48260687278625" r="6.043848454108238" fill="#FFFFFF" fill-opacity="0.95" stroke="#FAF0E6" stroke-width="1.5" />
<circle cx="167.97871202854606" cy="66.1388576449283" r="11.977342737926602" fill="#FFFFFF" fill-opacity="0.95" stroke="#FAF0E6" stroke-width="1.5" />
<circle cx="137.8065724803159" cy="175.9966579412189" r="5.953910692981921" fill="#FFFFFF" fill-opacity="0.95" stroke="#FAF0E6" stroke-width="1.5" />
<circle cx="157.99656998906767" cy="141.07135607867917" r="10.27293858010071" fill="#FFFFFF" fill-opacity="0.95" stroke="#FAF0E6" stroke-width="1.5" />
<circle cx="79.82758820567864" cy="139.97311378836326" r="5.730042776399183" fill="#FFFFFF" fill-opacity="0.95" stroke="#FAF0E6" stroke-width="1.5" />
<circle cx="167.58716508686027" cy="123.41371486800524" r="8.219568531648441" fill="#FFFFFF" fill-opacity="0.95" stroke="#FAF0E6" stroke-width="1.5" />
<circle cx="127.64928803947379" cy="28.94439391188328" r="8.912739721246739" fill="#FFFFFF" fill-opacity="0.95" stroke="#FAF0E6" stroke-width="1.5" />
<circle cx="77.29932236722993" cy="111.00254490181838" r="7.104873042050001" fill="#FFFFFF" fill-opacity="0.95" stroke="#FAF0E6" stroke-width="1.5" />
<circle cx="105.04109386119114" cy="144.07582629638964" r="7.064171603307812" fill="#FFFFFF" fill-opacity="0.95" stroke="#FAF0E6" stroke-width="1.5" />
<circle cx="77.33904955053274" cy="129.35561670099494" r="9.670650412234895" fill="#FFFFFF" fill-opacity="0.95" stroke="#FAF0E6" stroke-width="1.5" />
<circle cx="153.3276374675709" cy="154.49443203738244" r="10.78098229406406" fill="#FFFFFF" fill-opacity="0.95" stroke="#FAF0E6" stroke-width="1.5" />
<circle cx="61.46621175133702" cy="151.06303783642696" r="6.287110821367749" fill="#FFFFFF" fill-opacity="0.95" stroke="#FAF0E6" stroke-width="1.5" />
<circle cx="42.66810062257743" cy="110.49983598371597" r="11.25573483033496" fill="#FFFFFF" fill-opacity="0.95" stroke="#FAF0E6" stroke-width="1.5" />
</g>
<path d="M105.0,105.0 L200.10565162951536,74.09830056250526 A100,100,0,0,1,200.10565162951536,135.90169943749473 Z" fill="#FEF7E3" stroke="lightgray" stroke-width="2" />
<use xlink:href="#clip-4501450320-4503676112" />
<g clip-path="url(#clip-4501450320-4503676112)">
<circle cx="105.0" cy="105.0" r="92" stroke="#DAA05D" stroke-width="16" fill="none" />
<circle cx="105.0" cy="105.0" r="98" stroke="#C37B32" stroke-width="5" fill="none" />
<circle cx="114.64121397809919" cy="148.00899572523178" r="4.9735720728779995" fill="#FFFFFF" fill-opacity="0.3117181197454665" />
<circle cx="141.45355934068064" cy="145.18300223894215" r="3.800537298790312" fill="#FFDE75" fill-opacity="0.2608849223789246" />
<circle cx="125.1754301205143" cy="142.56738517461284" r="5.215577000858939" fill="#8B4513" fill-opacity="0.5330128227140247" />
<circle cx="121.90096017244505" cy="26.678251423196727" r="5.710844455469619" fill="#8B4513" fill-opacity="0.3230250602330912" />
<circle cx="56.91443594871386" cy="80.99212032905571" r="3.8179125766483133" fill="#8B4513" fill-opacity="0.3201210469706578" />
<circle cx="35.39079947390226" cy="141.88479218653058" r="2.322077226763124" fill="#D2691E" fill-opacity="0.4010687127867628" />
<circle cx="38.39436201572684" cy="108.98505822868836" r="3.949824806621373" fill="#FFDE75" fill-opacity="0.3827598279500772" />
<circle cx="107.28651846536246" cy="53.55603464363711" r="4.978660574673446" fill="#FFDE75" fill-opacity="0.38494763500406637" />
<circle cx="37.40455892146956" cy="93.01792629491727" r="4.160860863946777" fill="#8B4513" fill-opacity="0.3613658266451476" />
<circle cx="127.5291941979558" cy="73.15823233949087" r="3.3580392236689542" fill="#8B4513" fill-opacity="0.38356740795371674" />
<circle cx="68.1839350314416" cy="102.55332604612782" r="2.883381727053072" fill="#FFDE75" fill-opacity="0.4919780497710489" />
<circle cx="131.64803413036984" cy="94.15922047232253" r="4.352552734335667" fill="#D2691E" fill-opacity="0.20499376894605925" />
<circle cx="88.82501193846863" cy="81.32194772077021" r="5.659679290299572" fill="#FFFFFF" fill-opacity="0.43488653774264896" />
<circle cx="97.10655882381809" cy="64.21124242571463" r="4.260603613594005" fill="#FFDE75" fill-opacity="0.4206189656580261" />
<circle cx="72.12608653686775" cy="145.59220215994878" r="5.751899696099844" fill="#FFFFFF" fill-opacity="0.43596097016083996" />
<circle cx="146.53985294976" cy="31.08291290116921" r="5.853132343596002" fill="#FFFFFF" fill-opacity="0.43747516321500635" />
<circle cx="85.15072166490945" cy="106.73306191515645" r="4.133148386922258" fill="#D2691E" fill-opacity="0.2211127963765497" />
<circle cx="117.26891372741215" cy="153.818731691427" r="5.018138001740871" fill="#FFDE75" fill-opacity="0.44792916381349024" />
<circle cx="44.63874690845906" cy="60.712486652023266" r="2.26470325324719" fill="#FFFFFF" fill-opacity="0.2261812526593745" />
<circle cx="94.55151047653318" cy="43.94069914541094" r="5.622653000175106" fill="#D2691E" fill-opacity="0.46516591275304753" />
<circle cx="61.9073239598825" cy="116.79910561254974" r="4.345941124092821" fill="#FFDE75" fill-opacity="0.5613722080261924" />
<circle cx="97.96473589442499" cy="145.84259120732543" r="3.3312961045232403" fill="#FFFFFF" fill-opacity="0.4934523434560179" />
<circle cx="55.125583240765" cy="66.80528689266049" r="5.3021222254663485" fill="#D2691E" fill-opacity="0.254431302807211" />
<circle cx="69.00276599268366" cy="121.05908041328094" r="4.846727849563626" fill="#FFDE75" fill-opacity="0.3301577230532297" />
<circle cx="38.346459349096065" cy="157.58864610457653" r="3.5138140095554076" fill="#8B4513" fill-opacity="0.3643088560826377" />
<circle cx="128.66854942880224" cy="26.615610982022204" r="5.301824057967347" fill="#8B4513" fill-opacity="0.26579972266545376" />
<circle cx="123.28282818021295" cy="55.99489277019131" r="4.8380808651598795" fill="#FFDE75" fill-opacity="0.49905708249162073" />
<circle cx="58.53336861015306" cy="98.63674639411086" r="4.16950700190794" fill="#FFFFFF" fill-opacity="0.2878564430697502" />
<circle cx="79.37419745007267" cy="112.99973044402097" r="3.0192090597589485" fill="#D2691E" fill-opacity="0.22354705848637574" />
<circle cx="96.76714709922793" cy="62.199513346949004" r="3.3229107781403195" fill="#FFFFFF" fill-opacity="0.5261968606369019" />
<circle cx="153.79537509670436" cy="140.83208091768233" r="3.604025363564002" fill="#D2691E" fill-opacity="0.22005528112251543" />
<circle cx="93.49832623267487" cy="24.565890996998363" r="3.7922467426799416" fill="#8B4513" fill-opacity="0.2174997658855491" />
<circle cx="55.41355958304786" cy="154.92573284654952" r="2.187888378381457" fill="#D2691E" fill-opacity="0.4790738414834822" />
<circle cx="149.0447864807531" cy="144.97372559064962" r="5.220378542104968" fill="#8B4513" fill-opacity="0.3120836613349543" />
<circle cx="150.65491248899238" cy="41.92350804564515" r="3.0724034913686484" fill="#D2691E" fill-opacity="0.4234230181099846" />
<circle cx="32.85487105520815" cy="99.50577725144787" r="3.3829895166745483" fill="#FFDE75" fill-opacity="0.22245434547505394" />
<circle cx="106.81802831448775" cy="171.259306569596" r="4.292924278577436" fill="#D2691E" fill-opacity="0.31377986417972464" />
<circle cx="116.42271867534987" cy="128.30488994956036" r="2.221008145122041" fill="#D2691E" fill-opacity="0.2604035638281702" />
<circle cx="36.897503461436116" cy="70.85706767257386" r="2.9724338699199846" fill="#FFFFFF" fill-opacity="0.20151812290315851" />
<circle cx="33.84469512567239" cy="133.60172117327966" r="5.240344627991105" fill="#FFDE75" fill-opacity="0.5367542154557137" />
<circle cx="72.75258336758431" cy="76.24077216549924" r="3.6668332653985156" fill="#D2691E" fill-opacity="0.307412707243672" />
<circle cx="155.14226511123064" cy="39.86153038283199" r="5.11221540562535" fill="#8B4513" fill-opacity="0.41079743653460316" />
<circle cx="31.885912873300185" cy="72.55499904930127" r="4.488352598449763" fill="#FFFFFF" fill-opacity="0.23704984930541736" />
<circle cx="170.27546108863822" cy="120.90869477849071" r="5.22172511575007" fill="#8B4513" fill-opacity="0.331398645161098" />
<circle cx="53.900584110597016" cy="59.72264344644871" r="5.367839258089857" fill="#FFDE75" fill-opacity="0.4519750663827711" />
<circle cx="81.86697685690805" cy="163.4325873163498" r="7.692066557899556" fill="#FFFFFF" fill-opacity="0.95" stroke="#FAF0E6" stroke-width="1.5" />
<circle cx="46.511217225197754" cy="55.70884276139822" r="6.0352180500658" fill="#FFFFFF" fill-opacity="0.95" stroke="#FAF0E6" stroke-width="1.5" />
<circle cx="29.097588591057942" cy="121.35938725490419" r="5.291967862175432" fill="#FFFFFF" fill-opacity="0.95" stroke="#FAF0E6" stroke-width="1.5" />
<circle cx="124.189743080929" cy="91.69248458618966" r="5.559119286894986" fill="#FFFFFF" fill-opacity="0.95" stroke="#FAF0E6" stroke-width="1.5" />
<circle cx="130.37193938903764" cy="74.09425349229907" r="10.089070447252292" fill="#FFFFFF" fill-opacity="0.95" stroke="#FAF0E6" stroke-width="1.5" />
<circle cx="145.01825258263287" cy="42.48260687278625" r="6.043848454108238" fill="#FFFFFF" fill-opacity="0.95" stroke="#FAF0E6" stroke-width="1.5" />
<circle cx="167.97871202854606" cy="66.1388576449283" r="11.977342737926602" fill="#FFFFFF" fill-opacity="0.95" stroke="#FAF0E6" stroke-width="1.5" />
<circle cx="137.8065724803159" cy="175.9966579412189" r="5.953910692981921" fill="#FFFFFF" fill-opacity="0.95" stroke="#FAF0E6" stroke-width="1.5" />
<circle cx="157.99656998906767" cy="141.07135607867917" r="10.27293858010071" fill="#FFFFFF" fill-opacity="0.95" stroke="#FAF0E6" stroke-width="1.5" />
<circle cx="79.82758820567864" cy="139.97311378836326" r="5.730042776399183" fill="#FFFFFF" fill-opacity="0.95" stroke="#FAF0E6" stroke-width="1.5" />
<circle cx="167.58716508686027" cy="123.41371486800524" r="8.219568531648441" fill="#FFFFFF" fill-opacity="0.95" stroke="#FAF0E6" stroke-width="1.5" />
<circle cx="127.64928803947379" cy="28.94439391188328" r="8.912739721246739" fill="#FFFFFF" fill-opacity="0.95" stroke="#FAF0E6" stroke-width="1.5" />
<circle cx="77.29932236722993" cy="111.00254490181838" r="7.104873042050001" fill="#FFFFFF" fill-opacity="0.95" stroke="#FAF0E6" stroke-width="1.5" />
<circle cx="105.04109386119114" cy="144.07582629638964" r="7.064171603307812" fill="#FFFFFF" fill-opacity="0.95" stroke="#FAF0E6" stroke-width="1.5" />
<circle cx="77.33904955053274" cy="129.35561670099494" r="9.670650412234895" fill="#FFFFFF" fill-opacity="0.95" stroke="#FAF0E6" stroke-width="1.5" />
<circle cx="153.3276374675709" cy="154.49443203738244" r="10.78098229406406" fill="#FFFFFF" fill-opacity="0.95" stroke="#FAF0E6" stroke-width="1.5" />
<circle cx="61.46621175133702" cy="151.06303783642696" r="6.287110821367749" fill="#FFFFFF" fill-opacity="0.95" stroke="#FAF0E6" stroke-width="1.5" />
<circle cx="42.66810062257743" cy="110.49983598371597" r="11.25573483033496" fill="#FFFFFF" fill-opacity="0.95" stroke="#FAF0E6" stroke-width="1.5" />
</g>
<rect x="230.0" y="41.0" width="54.0" height="54.0" fill="none" stroke="black" stroke-width="2" />
<rect x="230.0" y="115.0" width="54.0" height="54.0" fill="none" stroke="black" stroke-width="2" />
<path d="M225.0,105.0 L289.0,105.0" stroke="black" stroke-width="2" />
</g>
</svg>