<?xml version="1.0" encoding="UTF-8"?>
<svg xmlns="http://www.w3.org/2000/svg" xmlns:xlink="http://www.w3.org/1999/xlink"
     width="284.0" height="210" viewBox="0 0 284.0 210">
<defs>
<clipPath id="clip-4521844400-4471968976">
<path d="M105.0,105.0 L105.0,5.0 A100,100,0,0,1,200.10565162951536,74.09830056250526 Z" fill="none" />
</clipPath>
<clipPath id="clip-4521844400-4535007952">
<path d="M105.0,105.0 L200.10565162951536,74.09830056250526 A100,100,0,0,1,163.77852522924732,185.90169943749476 Z" fill="none" />
</clipPath>
</defs>
<g>
<path d="M105.0,105.0 L105.0,5.0 A100,100,0,0,1,200.10565162951536,74.09830056250526 Z" fill="none" stroke="lightgray" stroke-width="2" />
<path d="M105.0,105.0 L200.10565162951536,74.09830056250526 A100,100,0,0,1,163.77852522924732,185.90169943749476 Z" fill="none" stroke="lightgray" stroke-width="2" />
<path d="M105.0,105.0 L163.77852522924732,185.90169943749476 A100,100,0,0,1,46.2214747707527,185.90169943749476 Z" fill="none" stroke="lightgray" stroke-width="2" />
<path d="M105.0,105.0 L46.2214747707527,185.90169943749476 A100,100,0,0,1,9.894348370484636,74.09830056250527 Z" fill="none" stroke="lightgray" stroke-width="2" />
<path d="M105.0,105.0 L9.894348370484636,74.09830056250527 A100,100,0,0,1,104.99999999999999,5.0 Z" fill="none" stroke="lightgray" stroke-width="2" />
<path d="M105.0,105.0 L105.0,5.0 A100,100,0,0,1,200.10565162951536,74.09830056250526 Z" fill="#FEF7E3" stroke="lightgray" stroke-width="2" />
<use xlink:href="#clip-4521844400-4471968976" />
<g clip-path="url(#clip-4521844400-4471968976)">
<circle cx="105.0" cy="105.0" r="92" stroke="#DAA05D" stroke-width="16" fill="none" />
<circle cx="105.0" cy="105.0" r="98" stroke="#C37B32" stroke-width="5" fill="none" />
<circle cx="153.05674394217226" cy="83.22788869843643" r="5.5089566851796885" fill="#FFFFFF" fill-opacity="0.5790791318479573" />
<circle cx="114.37258703969589" cy="22.082986526317782" r="5.69052730899209" fill="#D2691E" fill-opacity="0.3386590582607865" />
<circle cx="124.16435586101437" cy="156.83608703770895" r="2.809410534561828" fill="#FFFFFF" fill-opacity="0.35889725557007257" />
<circle cx="177.57288773566785" cy="148.17667818879664" r="4.607592547610259" fill="#FFFFFF" fill-opacity="0.5470054064716103" />
<circle cx="78.57270159261185" cy="94.56307303193458" r="4.480657848458527" fill="#FFDE75" fill-opacity="0.48075696918280164" />
<circle cx="41.480351343683026" cy="76.25315234789626" r="2.4468763403061766" fill="#D2691E" fill-opacity="0.3346415048995187" />
<circle cx="136.20087398694378" cy="94.01609230654468" r="3.88455469612687" fill="#FFDE75" fill-opacity="0.45021359130099514" />
<circle cx="70.37066058607454" cy="148.12068116691705" r="5.432729343308821" fill="#8B4513" fill-opacity="0.4672991690541528" />
<circle cx="82.92625852386013" cy="41.99503846262939" r="4.52452769753173" fill="#FFDE75" fill-opacity="0.46271745084717614" />
<circle cx="182.66049858700927" cy="87.39396389145963" r="2.466426459364418" fill="#8B4513" fill-opacity="0.5318939629692352" />
<circle cx="70.58996935208835" cy="35.77795470356338" r="3.411819535679063" fill="#D2691E" fill-opacity="0.22088629996868955" />
<circle cx="111.25179747925394" cy="154.65569550915635" r="5.436833806449329" fill="#D2691E" fill-opacity="0.5924570807848619" />
<circle cx="62.46832602342789" cy="90.99354198814488" r="3.602393244260317" fill="#8B4513" fill-opacity="0.2553156665539434" />
<circle cx="125.72525060832879" cy="96.23849445934079" r="3.2272312198189788" fill="#8B4513" fill-opacity="0.40042540851266384" />
<circle cx="38.28680112048713" cy="77.4015131778088" r="5.944046139096184" fill="#FFDE75" fill-opacity="0.25333615592892805" />
<circle cx="99.92957057338293" cy="100.16874689875199" r="4.262409648969708" fill="#8B4513" fill-opacity="0.3803661127200393" />
<circle cx="67.19848294813461" cy="79.56168171366889" r="3.547193864790899" fill="#8B4513" fill-opacity="0.22395531436600946" />
<circle cx="102.46993065889868" cy="160.77713019245067" r="3.7754443535853537" fill="#FFDE75" fill-opacity="0.5930448062128619" />
<circle cx="51.95786557456767" cy="123.07852029836356" r="5.530820723414919" fill="#D2691E" fill-opacity="0.5003086257239393" />
<circle cx="161.3040964130142" cy="113.05267515896047" r="5.627677082195757" fill="#FFDE75" fill-opacity="0.5639173486018618" />
<circle cx="57.26234227939852" cy="148.4518697168355" r="4.757911066681077" fill="#8B4513" fill-opacity="0.5785792023661238" />
<circle cx="138.17571347065797" cy="34.24154115420437" r="3.585544286269288" fill="#8B4513" fill-opacity="0.47974327895745367" />
<circle cx="134.55182658912105" cy="118.47794663149025" r="5.3373485963994876" fill="#D2691E" fill-opacity="0.25939484948895597" />
<circle cx="95.34696216215437" cy="177.1241076668863" r="5.740221790074215" fill="#8B4513" fill-opacity="0.2733461256646853" />
<circle cx="34.75010306453598" cy="112.79211414699823" r="3.906716230946251" fill="#FFDE75" fill-opacity="0.48338877679346326" />
<circle cx="171.24720726571107" cy="136.7270965344646" r="3.885516730019183" fill="#D2691E" fill-opacity="0.4902950256418488" />
<circle cx="145.83180201799868" cy="64.79545105479029" r="4.497300803745851" fill="#FFDE75" fill-opacity="0.4962854292081082" />
<circle cx="189.59086016530233" cy="98.0320177083861" r="3.610548801051092" fill="#D2691E" fill-opacity="0.368239087383051" />
<circle cx="164.6157633419278" cy="69.42520954640517" r="5.90154428830166" fill="#FFFFFF" fill-opacity="0.31777818954730014" />
<circle cx="62.692846961717635" cy="93.62699555187515" r="3.587182159674668" fill="#FFFFFF" fill-opacity="0.4341329972582568" />
<circle cx="177.59881730442766" cy="75.05913916156159" r="5.795419658139792" fill="#FFFFFF" fill-opacity="0.95" stroke="#FAF0E6" stroke-width="1.5" />
<circle cx="45.40826567807732" cy="66.8979788509717" r="7.6681521566754" fill="#FFFFFF" fill-opacity="0.95" stroke="#FAF0E6" stroke-width="1.5" />
<circle cx="54.63048426729435" cy="82.72961322313193" r="9.888984261250762" fill="#FFFFFF" fill-opacity="0.95" stroke="#FAF0E6" stroke-width="1.5" />
<circle cx="79.25873872799605" cy="36.76853641816105" r="8.499041979607206" fill="#FFFFFF" fill-opacity="0.95" stroke="#FAF0E6" stroke-width="1.5" />
<circle cx="148.1818977312545" cy="109.1633023529544" r="11.352750281870389" fill="#FFFFFF" fill-opacity="0.95" stroke="#FAF0E6" stroke-width="1.5" />
<circle cx="57.9643121123336" cy="122.32365994854281" r="8.415783931822933" fill="#FFFFFF" fill-opacity="0.95" stroke="#FAF0E6" stroke-width="1.5" />
<circle cx="134.52873678034422" cy="97.88029244149715" r="6.65451582007409" fill="#FFFFFF" fill-opacity="0.95" stroke="#FAF0E6" stroke-width="1.5" />
<circle cx="49.807471236929445" cy="139.5123466928132" r="6.8560557092394765" fill="#FFFFFF" fill-opacity="0.95" stroke="#FAF0E6" stroke-width="1.5" />
<circle cx="165.770707418654" cy="141.20532335827062" r="6.146354886494752" fill="#FFFFFF" fill-opacity="0.95" stroke="#FAF0E6" stroke-width="1.5" />
<circle cx="50.19333615004905" cy="112.03041283704644" r="11.932746074936773" fill="#FFFFFF" fill-opacity="0.95" stroke="#FAF0E6" stroke-width="1.5" />
<circle cx="130.14557591462335" cy="125.95920193027865" r="6.2475963067218565" fill="#FFFFFF" fill-opacity="0.95" stroke="#FAF0E6" stroke-width="1.5" />
<circle cx="94.87948268883258" cy="38.974262503960134" r="10.687528376106663" fill="#FFFFFF" fill-opacity="0.95" stroke="#FAF0E6" stroke-width="1.5" />
</g>
<path d="M105.0,105.0 L200.10565162951536,74.09830056250526 A100,100,0,0,1,163.77852522924732,185.90169943749476 Z" fill="#FEF7E3" stroke="lightgray" stroke-width="2" />
<use xlink:href="#clip-4521844400-4535007952" />
<g clip-path="url(#clip-4521844400-4535007952)">
<circle cx="105.0" cy="105.0" r="92" stroke="#DAA05D" stroke-width="16" fill="none" />
<circle cx="105.0" cy="105.0" r="98" stroke="#C37B32" stroke-width="5" fill="none" />
<circle cx="153.05674394217226" cy="83.22788869843643" r="5.5089566851796885" fill="#FFFFFF" fill-opacity="0.5790791318479573" />
<circle cx="114.37258703969589" cy="22.082986526317782" r="5.69052730899209" fill="#D2691E" fill-opacity="0.3386590582607865" />
<circle cx="124.16435586101437" cy="156.83608703770895" r="2.809410534561828" fill="#FFFFFF" fill-opacity="0.35889725557007257" />
<circle cx="177.57288773566785" cy="148.17667818879664" r="4.607592547610259" fill="#FFFFFF" fill-opacity="0.5470054064716103" />
<circle cx="78.57270159261185" cy="94.56307303193458" r="4.480657848458527" fill="#FFDE75" fill-opacity="0.48075696918280164" />
<circle cx="41.480351343683026" cy="76.25315234789626" r="2.4468763403061766" fill="#D2691E" fill-opacity="0.3346415048995187" />
<circle cx="136.20087398694378" cy="94.01609230654468" r="3.88455469612687" fill="#FFDE75" fill-opacity="0.45021359130099514" />
<circle cx="70.37066058607454" cy="148.12068116691705" r="5.432729343308821" fill="#8B4513" fill-opacity="0.4672991690541528" />
<circle cx="82.92625852386013" cy="41.99503846262939" r="4.52452769753173" fill="#FFDE75" fill-opacity="0.46271745084717614" />
<circle cx="182.66049858700927" cy="87.39396389145963" r="2.466426459364418" fill="#8B4513" fill-opacity="0.5318939629692352" />
<circle cx="70.58996935208835" cy="35.77795470356338" r="3.411819535679063" fill="#D2691E" fill-opacity="0.22088629996868955" />
<circle cx="111.25179747925394" cy="154.65569550915635" r="5.436833806449329" fill="#D2691E" fill-opacity="0.5924570807848619" />
<circle cx="62.46832602342789" cy="90.99354198814488" r="3.602393244260317" fill="#8B4513" fill-opacity="0.2553156665539434" />
<circle cx="125.72525060832879" cy="96.23849445934079" r="3.2272312198189788" fill="#8B4513" fill-opacity="0.40042540851266384" />
<circle cx="38.28680112048713" cy="77.4015131778088" r="5.944046139096184" fill="#FFDE75" fill-opacity="0.25333615592892805" />
<circle cx="99.92957057338293" cy="100.16874689875199" r="4.262409648969708" fill="#8B4513" fill-opacity="0.3803661127200393" />
<circle cx="67.19848294813461" cy="79.56168171366889" r="3.547193864790899" fill="#8B4513" fill-opacity="0.22395531436600946" />
<circle cx="102.46993065889868" cy="160.77713019245067" r="3.7754443535853537" fill="#FFDE75" fill-opacity="0.5930448062128619" />
<circle cx="51.95786557456767" cy="123.07852029836356" r="5.530820723414919" fill="#D2691E" fill-opacity="0.5003086257239393" />
<circle cx="161.3040964130142" cy="113.05267515896047" r="5.627677082195757" fill="#FFDE75" fill-opacity="0.5639173486018618" />
<circle cx="57.26234227939852" cy="148.4518697168355" r="4.757911066681077" fill="#8B4513" fill-opacity="0.5785792023661238" />
<circle cx="138.17571347065797" cy="34.24154115420437" r="3.585544286269288" fill="#8B4513" fill-opacity="0.47974327895745367" />
<circle cx="134.55182658912105" cy="118.47794663149025" r="5.3373485963994876" fill="#D2691E" fill-opacity="0.25939484948895597" />
<circle cx="95.34696216215437" cy="177.1241076668863" r="5.740221790074215" fill="#8B4513" fill-opacity="0.2733461256646853" />
<circle cx="34.75010306453598" cy="112.79211414699823" r="3.906716230946251" fill="#FFDE75" fill-opacity="0.48338877679346326" />
<circle cx="171.24720726571107" cy="136.7270965344646" r="3.885516730019183" fill="#D2691E" fill-opacity="0.4902950256418488" />
<circle cx="145.83180201799868" cy="64.79545105479029" r="4.497300803745851" fill="#FFDE75" fill-opacity="0.4962854292081082" />
<circle cx="189.59086016530233" cy="98.0320177083861" r="3.610548801051092" fill="#D2691E" fill-opacity="0.368239087383051" />
<circle cx="164.6157633419278" cy="69.42520954640517" r="5.90154428830166" fill="#FFFFFF" fill-opacity="0.31777818954730014" />
<circle cx="62.692846961717635" cy="93.62699555187515" r="3.587182159674668" fill="#FFFFFF" fill-opacity="0.4341329972582568" />
<circle cx="177.59881730442766" cy="75.05913916156159" r="5.795419658139792" fill="#FFFFFF" fill-opacity="0.95" stroke="#FAF0E6" stroke-width="1.5" />
<circle cx="45.40826567807732" cy="66.8979788509717" r="7.6681521566754" fill="#FFFFFF" fill-opacity="0.95" stroke="#FAF0E6" stroke-width="1.5" />
<circle cx="54.63048426729435" cy="82.72961322313193" r="9.888984261250762" fill="#FFFFFF" fill-opacity="0.95" stroke="#FAF0E6" stroke-width="1.5" />
<circle cx="79.25873872799605" cy="36.76853641816105" r="8.499041979607206" fill="#FFFFFF" fill-opacity="0.95" stroke="#FAF0E6" stroke-width="1.5" />
<circle cx="148.1818977312545" cy="109.1633023529544" r="11.352750281870389" fill="#FFFFFF" fill-opacity="0.95" stroke="#FAF0E6" stroke-width="1.5" />
<circle cx="57.9643121123336" cy="122.32365994854281" r="8.415783931822933" fill="#FFFFFF" fill-opacity="0.95" stroke="#FAF0E6" stroke-width="1.5" />
<circle cx="134.52873678034422" cy="97.88029244149715" r="6.65451582007409" fill="#FFFFFF" fill-opacity="0.95" stroke="#FAF0E6" stroke-width="1.5" />
<circle cx="49.807471236929445" cy="139.5123466928132" r="6.8560557092394765" fill="#FFFFFF" fill-opacity="0.95" stroke="#FAF0E6" stroke-width="1.5" />
<circle cx="165.770707418654" cy="141.20532335827062" r="6.146354886494752" fill="#FFFFFF" fill-opacity="0.95" stroke="#FAF0E6" stroke-width="1.5" />
<circle cx="50.19333615004905" cy="112.03041283704644" r="11.932746074936773" fill="#FFFFFF" fill-opacity="0.95" stroke="#FAF0E6" stroke-width="1.5" />
<circle cx="130.14557591462335" cy="125.95920193027865" r="6.2475963067218565" fill="#FFFFFF" fill-opacity="0.95" stroke="#FAF0E6" stroke-width="1.5" />
<circle cx="94.87948268883258" cy="38.974262503960134" r="10.687528376106663" fill="#FFFFFF" fill-opacity="0.95" stroke="#FAF0E6" stroke-width="1.5" />
</g>
<rect x="230.0" y="41.0" width="54.0" height="54.0" fill="none" stroke="black" stroke-width="2" />
<rect x="230.0" y="115.0" width="54.0" height="54.0" fill="none" stroke="black" stroke-width="2" />
<path d="M225.0,105.0 L289.0,105.0" stroke="black" stroke-width="2" />
</g>
</svg>