<?xml version="1.0" encoding="UTF-8"?>
<svg xmlns="http://www.w3.org/2000/svg" xmlns:xlink="http://www.w3.org/1999/xlink"
     width="284.0" height="210" viewBox="0 0 284.0 210">
<defs>
<clipPath id="clip-4535260880-4471967824">
<path d="M105.0,105.0 L105.0,5.0 A100,100,0,0,1,105.0,205.0 Z" fill="none" />
</clipPath>
</defs>
<g>
<path d="M105.0,105.0 L105.0,5.0 A100,100,0,0,1,105.0,205.0 Z" fill="none" stroke="lightgray" stroke-width="2" />
<path d="M105.0,105.0 L105.0,205.0 A100,100,0,0,1,104.99999999999999,5.0 Z" fill="none" stroke="lightgray" stroke-width="2" />
<path d="M105.0,105.0 L105.0,5.0 A100,100,0,0,1,105.0,205.0 Z" fill="#F5C754" stroke="lightgray" stroke-width="2" />
<use xlink:href="#clip-4535260880-4471967824" />
<g clip-path="url(#clip-4535260880-4471967824)">
<circle cx="105.0" cy="105.0" r="92" stroke="#DAA05D" stroke-width="16" fill="none" />
<circle cx="105.0" cy="105.0" r="98" stroke="#C37B32" stroke-width="5" fill="none" />
<circle cx="140.81517543059715" cy="162.91424247600924" r="4.264344390343853" fill="#FFFFFF" fill-opacity="0.485831176973256" />
<circle cx="130.71395706449437" cy="157.98940114629573" r="2.3442837005107116" fill="#8B4513" fill-opacity="0.4943814619200861" />
<circle cx="99.570860789579" cy="66.33028225087892" r="4.479904948785768" fill="#8B4513" fill-opacity="0.3732877619290173" />
<circle cx="42.361886435368326" cy="161.12182989173" r="5.557100217688598" fill="#8B4513" fill-opacity="0.29891017072343684" />
<circle cx="113.34269927641118" cy="63.356195505209826" r="4.84792892568211" fill="#FFFFFF" fill-opacity="0.38025109973513804" />
<circle cx="175.0186931981264" cy="88.62328384815078" r="4.572389093716622" fill="#8B4513" fill-opacity="0.36649335681111556" />
<circle cx="32.33381593833322" cy="137.65212168942293" r="3.021155095241742" fill="#D2691E" fill-opacity="0.314595478292702" />
<circle cx="84.42782721564073" cy="153.2879243238603" r="4.500869127014727" fill="#D2691E" fill-opacity="0.2028285143992896" />
<circle cx="175.6172556126786" cy="120.00740116622582" r="3.308575402777605" fill="#FFDE75" fill-opacity="0.5902386979829508" />
<circle cx="92.71227722992074" cy="92.19273891884093" r="4.7446701985543065" fill="#FFFFFF" fill-opacity="0.4816976853938052" />
<circle cx="122.63312113852943" cy="72.8230693453742" r="5.237639690845162" fill="#FFDE75" fill-opacity="0.3397547390863968" />
<circle cx="57.50818716889122" cy="88.34140232986445" r="3.0220467177792445" fill="#8B4513" fill-opacity="0.5328769599777037" />
<circle cx="125.6915481539251" cy="29.61997847636256" r="3.63393799605664" fill="#FFDE75" fill-opacity="0.31648111998725165" />
<circle cx="62.741945256523564" cy="112.34625636717766" r="5.978314047043128" fill="#8B4513" fill-opacity="0.32578253580289185" />
<circle cx="150.98656679007422" cy="64.9300361317909" r="5.117512144751243" fill="#FFFFFF" fill-opacity="0.4754069230410229" />
<circle cx="75.3691837115035" cy="149.48913058289594" r="9.44533628933585" fill="#C92A2A" stroke="#800000" stroke-width="1" />
<circle cx="80.54524756776036" cy="153.55731998637307" r="1.4560657704805313" fill="#FFA07A" fill-opacity="0.7" />
<circle cx="70.26448019183654" cy="145.35884188339375" r="1.1924880993553946" fill="#FFA07A" fill-opacity="0.7" />
<circle cx="76.01595517542543" cy="146.3496797756853" r="1.3698025602060944" fill="#FFA07A" fill-opacity="0.7" />
<circle cx="77.57920709279406" cy="147.31322927409983" r="1.4134260129960152" fill="#FFA07A" fill-opacity="0.7" />
<circle cx="72.36320369404551" cy="153.51632990031885" r="1.010225469207759" fill="#FFA07A" fill-opacity="0.7" />
<circle cx="71.77350127433908" cy="148.39733328158195" r="1.4829623490850103" fill="#FFA07A" fill-opacity="0.7" />
<circle cx="112.03228269240726" cy="43.26670256391663" r="10.94329917791997" fill="#C92A2A" stroke="#800000" stroke-width="1" />
<circle cx="110.10791228801281" cy="43.66359167460529" r="1.2947712453723823" fill="#FFA07A" fill-opacity="0.7" />
<circle cx="107.21365746625449" cy="44.10718375740699" r="0.6610820291321934" fill="#FFA07A" fill-opacity="0.7" />
<circle cx="107.5511706145918" cy="42.27072347355867" r="0.7736999349832036" fill="#FFA07A" fill-opacity="0.7" />
<circle cx="129.1176284886476" cy="116.94320136014649" r="9.834207315756693" fill="#C92A2A" stroke="#800000" stroke-width="1" />
<circle cx="123.29952194151207" cy="114.79213491070976" r="0.9247921311817914" fill="#FFA07A" fill-opacity="0.7" />
<circle cx="131.0934680182262" cy="122.83051394891469" r="0.6617679589696386" fill="#FFA07A" fill-opacity="0.7" />
<circle cx="124.08255919400453" cy="115.02386279025626" r="0.8714452336995362" fill="#FFA07A" fill-opacity="0.7" />
<circle cx="146.35132625328953" cy="85.13422761059691" r="9.925493714605057" fill="#C92A2A" stroke="#800000" stroke-width="1" />
<circle cx="140.80079142691469" cy="89.0407550948069" r="0.6594880406302411" fill="#FFA07A" fill-opacity="0.7" />
<circle cx="141.62254648263124" cy="82.4241586526951" r="1.2212761397434044" fill="#FFA07A" fill-opacity="0.7" />
<circle cx="146.08876331733128" cy="88.91182823125634" r="0.7857465597037437" fill="#FFA07A" fill-opacity="0.7" />
</g>
<rect x="230.0" y="41.0" width="54.0" height="54.0" fill="none" stroke="black" stroke-width="2" />
<rect x="230.0" y="115.0" width="54.0" height="54.0" fill="none" stroke="black" stroke-width="2" />
<path d="M225.0,105.0 L289.0,105.0" stroke="black" stroke-width="2" />
</g>
</svg>