<svg xmlns="http://www.w3.org/2000/svg" xmlns:xlink="http://www.w3.org/1999/xlink" width="500px" height="383px" version="1.1" overflow="visible" id="ttc3rmw">
   <desc>Engraved by Verovio 6.2.0-43f8060</desc>
   <defs>
      <g id="E050-ttc3rmw">
         <path transform="scale(1,-1)" d="M441 -245c-23 -4 -48 -6 -76 -6c-59 0 -102 7 -130 20c-88 42 -150 93 -187 154c-26 44 -43 103 -48 176c0 6 -1 13 -1 19c0 54 15 111 45 170c29 57 65 106 110 148s96 85 153 127c-3 16 -8 46 -13 92c-4 43 -5 73 -5 89c0 117 16 172 69 257c34 54 64 82 89 82 c21 0 43 -30 69 -92s39 -115 41 -159v-15c0 -109 -21 -162 -67 -241c-13 -20 -63 -90 -98 -118c-13 -9 -25 -19 -37 -29l31 -181c8 1 18 2 28 2c58 0 102 -12 133 -35c59 -43 92 -104 98 -184c1 -7 1 -15 1 -22c0 -123 -87 -209 -181 -248c8 -57 17 -110 25 -162 c5 -31 6 -58 6 -80c0 -30 -5 -53 -14 -70c-35 -64 -88 -99 -158 -103c-5 0 -11 -1 -16 -1c-37 0 -72 10 -108 27c-50 24 -77 59 -80 105v11c0 29 7 55 20 76c18 28 45 42 79 44h6c49 0 93 -42 97 -87v-9c0 -51 -34 -86 -105 -106c17 -24 51 -36 102 -36c62 0 116 43 140 85 c9 16 13 41 13 74c0 20 -1 42 -5 67c-8 53 -18 106 -26 159zM461 939c-95 0 -135 -175 -135 -286c0 -24 2 -48 5 -71c50 39 92 82 127 128c40 53 60 100 60 140v8c-4 53 -22 81 -55 81h-2zM406 119l54 -326c73 25 110 78 110 161c0 7 0 15 -1 23c-7 95 -57 142 -151 142h-12 zM382 117c-72 -2 -128 -47 -128 -120v-7c2 -46 43 -99 75 -115c-3 -2 -7 -5 -10 -10c-70 33 -116 88 -123 172v11c0 68 44 126 88 159c23 17 49 29 78 36l-29 170c-21 -13 -52 -37 -92 -73c-50 -44 -86 -84 -109 -119c-45 -69 -67 -130 -67 -182v-13c5 -68 35 -127 93 -176 s125 -73 203 -73c25 0 50 3 75 9c-19 111 -36 221 -54 331z"/>
      </g>
      <g id="E084-ttc3rmw">
         <path transform="scale(1,-1)" d="M20 -78c84 97 114 180 134 329h170c-13 -32 -82 -132 -99 -151l-84 -97c-33 -36 -59 -63 -80 -81h162v102l127 123v-225h57v-39h-57v-34c0 -43 19 -65 57 -65v-34h-244v36c48 0 60 26 60 70v27h-203v39z"/>
      </g>
      <g id="E0A2-ttc3rmw">
         <path transform="scale(1,-1)" d="M198 133c102 0 207 -45 207 -133c0 -92 -118 -133 -227 -133c-101 0 -178 46 -178 133c0 88 93 133 198 133zM293 -21c0 14 -3 29 -8 44c-7 20 -18 38 -33 54c-20 21 -43 31 -68 31l-20 -2c-15 -5 -27 -14 -36 -28c-4 -9 -6 -17 -8 -24s-3 -16 -3 -27c0 -15 3 -34 9 -57 s18 -41 34 -55c15 -15 36 -23 62 -23c4 0 10 1 18 2c19 5 32 15 40 30s13 34 13 55z"/>
      </g>
      <g id="E0A3-ttc3rmw">
         <path transform="scale(1,-1)" d="M278 64c0 22 -17 39 -43 39c-12 0 -26 -3 -41 -10c-85 -43 -165 -94 -165 -156c5 -25 15 -32 49 -32c67 11 200 95 200 159zM0 -36c0 68 73 174 200 174c66 0 114 -39 114 -97c0 -84 -106 -173 -218 -173c-64 0 -96 32 -96 96z"/>
      </g>
      <g id="E0A4-ttc3rmw">
         <path transform="scale(1,-1)" d="M0 -39c0 68 73 172 200 172c66 0 114 -37 114 -95c0 -84 -106 -171 -218 -171c-64 0 -96 30 -96 94z"/>
      </g>
   </defs>
   <style type="text/css">#ttc3rmw g.ending, #ttc3rmw g.fing, #ttc3rmw g.reh, #ttc3rmw g.tempo {font-weight:bold;}#ttc3rmw g.dir, #ttc3rmw g.dynam, #ttc3rmw g.mNum {font-style:italic;}#ttc3rmw g.label {font-weight:normal;}#ttc3rmw ellipse, #ttc3rmw path, #ttc3rmw polygon, #ttc3rmw polyline, #ttc3rmw rect {stroke:currentColor}</style>
   <svg class="definition-scale" color="black" font-family="Times, serif" viewBox="0 0 10000 7650">
      <g class="page-margin" transform="translate(500, 500)">
         <g id="u1oymk5c" class="mdiv pageMilestone"/>
         <g id="y1pwozcg" class="score pageMilestone"/>
         <g id="m1y3r9oc" class="system">
            <g id="l1i4zx3j" class="section systemMilestone"/>
            <g id="abcLine08" class="pb"/>
            <g id="r15f6zli" class="measure">
               <g id="a1h8fedj" class="staff">
                  <path d="M0 1077 L3104 1077" stroke-width="13"/>
                  <path d="M0 1257 L3104 1257" stroke-width="13"/>
                  <path d="M0 1437 L3104 1437" stroke-width="13"/>
                  <path d="M0 1617 L3104 1617" stroke-width="13"/>
                  <path d="M0 1797 L3104 1797" stroke-width="13"/>
                  <g id="i7gz2d1" class="clef">
                     <use xlink:href="#E050-ttc3rmw" transform="translate(90, 1617) scale(0.72, 0.72)"/>
                  </g>
                  <g id="jycopri" class="keySig"/>
                  <g id="k1u7c2fp" class="meterSig">
                     <use xlink:href="#E084-ttc3rmw" transform="translate(721, 1257) scale(0.72, 0.72)"/>
                     <use xlink:href="#E084-ttc3rmw" transform="translate(721, 1617) scale(0.72, 0.72)"/>
                  </g>
                  <g class="ledgerLines below">
                     <path d="M1246 1977 L1632 1977" stroke-width="22"/>
                  </g>
                  <g id="n1xpnmc1" class="layer">
                     <g id="q1mznux4" class="note">
                        <g class="notehead">
                           <use xlink:href="#E0A2-ttc3rmw" transform="translate(1294, 1977) scale(0.72, 0.72)"/>
                        </g>
                     </g>
                  </g>
               </g>
               <g id="o1xwql41" class="harm" fill="red">
                  <text x="1439" y="899" text-anchor="middle" font-size="0px">
                     <tspan id="p1za4ta" class="text">
                        <tspan font-size="405px" x="1439" y="899">1</tspan>
                     </tspan>
                  </text>
               </g>
               <g id="zdlxzr6" class="barLine">
                  <path d="M3091 1077 L3091 1797" stroke-width="27"/>
               </g>
            </g>
            <g id="gly5e7b" class="measure">
               <g id="p1xx5uzk" class="staff">
                  <path d="M3104 1077 L5681 1077" stroke-width="13"/>
                  <path d="M3104 1257 L5681 1257" stroke-width="13"/>
                  <path d="M3104 1437 L5681 1437" stroke-width="13"/>
                  <path d="M3104 1617 L5681 1617" stroke-width="13"/>
                  <path d="M3104 1797 L5681 1797" stroke-width="13"/>
                  <g class="ledgerLines below">
                     <path d="M3247 1977 L3569 1977" stroke-width="22"/>
                     <path d="M4434 1977 L4756 1977" stroke-width="22"/>
                  </g>
                  <g id="b538r1o" class="layer">
                     <g id="eyqvsl4" class="note">
                        <g class="notehead">
                           <use xlink:href="#E0A3-ttc3rmw" transform="translate(3295, 1977) scale(0.72, 0.72)"/>
                        </g>
                        <g id="a1v9gg2m" class="stem">
                           <path d="M3512 1949 L3512 1347" stroke-width="18"/>
                        </g>
                     </g>
                     <g id="fg4wvfm" class="note">
                        <g class="notehead">
                           <use xlink:href="#E0A3-ttc3rmw" transform="translate(4482, 1977) scale(0.72, 0.72)"/>
                        </g>
                        <g id="b1k264co" class="stem">
                           <path d="M4699 1949 L4699 1347" stroke-width="18"/>
                        </g>
                     </g>
                  </g>
               </g>
               <g id="cn559qj" class="harm" fill="red">
                  <text x="3408" y="899" text-anchor="middle" font-size="0px">
                     <tspan id="d1kweqcn" class="text">
                        <tspan font-size="405px" x="3408" y="899">1/2</tspan>
                     </tspan>
                  </text>
               </g>
               <g id="o1mabr9v" class="barLine">
                  <path d="M5668 1077 L5668 1797" stroke-width="27"/>
               </g>
            </g>
            <g id="xlcvyle" class="measure">
               <g id="g1stj2hx" class="staff">
                  <path d="M5681 1077 L9001 1077" stroke-width="13"/>
                  <path d="M5681 1257 L9001 1257" stroke-width="13"/>
                  <path d="M5681 1437 L9001 1437" stroke-width="13"/>
                  <path d="M5681 1617 L9001 1617" stroke-width="13"/>
                  <path d="M5681 1797 L9001 1797" stroke-width="13"/>
                  <g class="ledgerLines below">
                     <path d="M5824 1977 L6146 1977" stroke-width="22"/>
                     <path d="M6603 1977 L6925 1977" stroke-width="22"/>
                     <path d="M7382 1977 L7704 1977" stroke-width="22"/>
                     <path d="M8161 1977 L8483 1977" stroke-width="22"/>
                  </g>
                  <g id="q13c4bvz" class="layer">
                     <g id="t3n11xl" class="note">
                        <g class="notehead">
                           <use xlink:href="#E0A4-ttc3rmw" transform="translate(5872, 1977) scale(0.72, 0.72)"/>
                        </g>
                        <g id="cvukdnh" class="stem">
                           <path d="M6089 1949 L6089 1347" stroke-width="18"/>
                        </g>
                     </g>
                     <g id="u1ti5v25" class="note">
                        <g class="notehead">
                           <use xlink:href="#E0A4-ttc3rmw" transform="translate(6651, 1977) scale(0.72, 0.72)"/>
                        </g>
                        <g id="dduuqtp" class="stem">
                           <path d="M6868 1949 L6868 1347" stroke-width="18"/>
                        </g>
                     </g>
                     <g id="v13d7v01" class="note">
                        <g class="notehead">
                           <use xlink:href="#E0A4-ttc3rmw" transform="translate(7430, 1977) scale(0.72, 0.72)"/>
                        </g>
                        <g id="e199x9q6" class="stem">
                           <path d="M7647 1949 L7647 1347" stroke-width="18"/>
                        </g>
                     </g>
                     <g id="wt0tbty" class="note">
                        <g class="notehead">
                           <use xlink:href="#E0A4-ttc3rmw" transform="translate(8209, 1977) scale(0.72, 0.72)"/>
                        </g>
                        <g id="fedyxei" class="stem">
                           <path d="M8426 1949 L8426 1347" stroke-width="18"/>
                        </g>
                     </g>
                  </g>
               </g>
               <g id="rfmz8yp" class="harm" fill="red">
                  <text x="5985" y="899" text-anchor="middle" font-size="0px">
                     <tspan id="s7xb9r9" class="text">
                        <tspan font-size="405px" x="5985" y="899">1/4</tspan>
                     </tspan>
                  </text>
               </g>
               <g id="f1dtfitd" class="barLine">
                  <path d="M8988 1077 L8988 1797" stroke-width="27"/>
               </g>
            </g>
         </g>
         <g id="pc04jyc" class="system">
            <g id="wjrxk25" class="measure">
               <g id="f1qqu5a2" class="staff">
                  <path d="M0 3237 L9000 3237" stroke-width="13"/>
                  <path d="M0 3417 L9000 3417" stroke-width="13"/>
                  <path d="M0 3597 L9000 3597" stroke-width="13"/>
                  <path d="M0 3777 L9000 3777" stroke-width="13"/>
                  <path d="M0 3957 L9000 3957" stroke-width="13"/>
                  <g id="ljdt6t1" class="clef">
                     <use xlink:href="#E050-ttc3rmw" transform="translate(90, 3777) scale(0.72, 0.72)"/>
                  </g>
                  <g id="mmc3gjt" class="keySig"/>
                  <g class="ledgerLines below">
                     <path d="M778 4137 L1100 4137" stroke-width="22"/>
                     <path d="M1798 4137 L2120 4137" stroke-width="22"/>
                     <path d="M2819 4137 L3141 4137" stroke-width="22"/>
                     <path d="M3839 4137 L4161 4137" stroke-width="22"/>
                     <path d="M4859 4137 L5181 4137" stroke-width="22"/>
                     <path d="M5879 4137 L6201 4137" stroke-width="22"/>
                     <path d="M6899 4137 L7221 4137" stroke-width="22"/>
                     <path d="M7919 4137 L8241 4137" stroke-width="22"/>
                  </g>
                  <g id="h1ihu5rg" class="layer">
                     <g id="mzzkdii" class="beam">
                        <polygon points="1034,3552 2072,3552 2072,3642 1034,3642"/>
                        <g id="k11ikzeb" class="note">
                           <g class="notehead">
                              <use xlink:href="#E0A4-ttc3rmw" transform="translate(826, 4137) scale(0.72, 0.72)"/>
                           </g>
                           <g id="g16z9u80" class="stem">
                              <path d="M1043 4109 L1043 3570" stroke-width="18"/>
                           </g>
                        </g>
                        <g id="l4wx0pk" class="note">
                           <g class="notehead">
                              <use xlink:href="#E0A4-ttc3rmw" transform="translate(1846, 4137) scale(0.72, 0.72)"/>
                           </g>
                           <g id="h14ompw4" class="stem">
                              <path d="M2063 4109 L2063 3570" stroke-width="18"/>
                           </g>
                        </g>
                     </g>
                     <g id="pd7pbit" class="beam">
                        <polygon points="3075,3552 4113,3552 4113,3642 3075,3642"/>
                        <g id="n1krgk12" class="note">
                           <g class="notehead">
                              <use xlink:href="#E0A4-ttc3rmw" transform="translate(2867, 4137) scale(0.72, 0.72)"/>
                           </g>
                           <g id="i16yttkl" class="stem">
                              <path d="M3084 4109 L3084 3570" stroke-width="18"/>
                           </g>
                        </g>
                        <g id="o1sp8031" class="note">
                           <g class="notehead">
                              <use xlink:href="#E0A4-ttc3rmw" transform="translate(3887, 4137) scale(0.72, 0.72)"/>
                           </g>
                           <g id="j1t8wao1" class="stem">
                              <path d="M4104 4109 L4104 3570" stroke-width="18"/>
                           </g>
                        </g>
                     </g>
                     <g id="s7i3un5" class="beam">
                        <polygon points="5115,3552 6153,3552 6153,3642 5115,3642"/>
                        <g id="qrlk7mz" class="note">
                           <g class="notehead">
                              <use xlink:href="#E0A4-ttc3rmw" transform="translate(4907, 4137) scale(0.72, 0.72)"/>
                           </g>
                           <g id="kdua57n" class="stem">
                              <path d="M5124 4109 L5124 3570" stroke-width="18"/>
                           </g>
                        </g>
                        <g id="r86e82l" class="note">
                           <g class="notehead">
                              <use xlink:href="#E0A4-ttc3rmw" transform="translate(5927, 4137) scale(0.72, 0.72)"/>
                           </g>
                           <g id="lsmez63" class="stem">
                              <path d="M6144 4109 L6144 3570" stroke-width="18"/>
                           </g>
                        </g>
                     </g>
                     <g id="vqb9755" class="beam">
                        <polygon points="7155,3552 8193,3552 8193,3642 7155,3642"/>
                        <g id="t1j5675w" class="note">
                           <g class="notehead">
                              <use xlink:href="#E0A4-ttc3rmw" transform="translate(6947, 4137) scale(0.72, 0.72)"/>
                           </g>
                           <g id="mzqw4wh" class="stem">
                              <path d="M7164 4109 L7164 3570" stroke-width="18"/>
                           </g>
                        </g>
                        <g id="uni1upp" class="note">
                           <g class="notehead">
                              <use xlink:href="#E0A4-ttc3rmw" transform="translate(7967, 4137) scale(0.72, 0.72)"/>
                           </g>
                           <g id="n19y5qty" class="stem">
                              <path d="M8184 4109 L8184 3570" stroke-width="18"/>
                           </g>
                        </g>
                     </g>
                  </g>
               </g>
               <g id="i1pvivyu" class="harm" fill="red">
                  <text x="939" y="3059" text-anchor="middle" font-size="0px">
                     <tspan id="j1679luo" class="text">
                        <tspan font-size="405px" x="939" y="3059">1/8</tspan>
                     </tspan>
                  </text>
               </g>
               <g id="er7bcdt" class="barLine">
                  <path d="M8987 3237 L8987 3957" stroke-width="27"/>
               </g>
            </g>
         </g>
         <g id="s1h3g2qf" class="system">
            <g id="dq007ge" class="measure">
               <g id="m1xtlj3" class="staff">
                  <path d="M0 5397 L9000 5397" stroke-width="13"/>
                  <path d="M0 5577 L9000 5577" stroke-width="13"/>
                  <path d="M0 5757 L9000 5757" stroke-width="13"/>
                  <path d="M0 5937 L9000 5937" stroke-width="13"/>
                  <path d="M0 6117 L9000 6117" stroke-width="13"/>
                  <g id="ndbm0by" class="clef">
                     <use xlink:href="#E050-ttc3rmw" transform="translate(90, 5937) scale(0.72, 0.72)"/>
                  </g>
                  <g id="oqfdfkk" class="keySig"/>
                  <g class="ledgerLines below">
                     <path d="M785 6297 L1107 6297" stroke-width="22"/>
                     <path d="M1285 6297 L1607 6297" stroke-width="22"/>
                     <path d="M1784 6297 L2106 6297" stroke-width="22"/>
                     <path d="M2284 6297 L2606 6297" stroke-width="22"/>
                     <path d="M2783 6297 L3105 6297" stroke-width="22"/>
                     <path d="M3283 6297 L3605 6297" stroke-width="22"/>
                     <path d="M3782 6297 L4104 6297" stroke-width="22"/>
                     <path d="M4282 6297 L4604 6297" stroke-width="22"/>
                     <path d="M4781 6297 L5103 6297" stroke-width="22"/>
                     <path d="M5281 6297 L5603 6297" stroke-width="22"/>
                     <path d="M5780 6297 L6102 6297" stroke-width="22"/>
                     <path d="M6280 6297 L6602 6297" stroke-width="22"/>
                     <path d="M6779 6297 L7101 6297" stroke-width="22"/>
                     <path d="M7279 6297 L7601 6297" stroke-width="22"/>
                     <path d="M7778 6297 L8100 6297" stroke-width="22"/>
                     <path d="M8278 6297 L8600 6297" stroke-width="22"/>
                  </g>
                  <g id="g4udhjf" class="layer">
                     <g id="n1ncw4ia" class="beam">
                        <polygon points="1041,5712 2558,5712 2558,5802 1041,5802"/>
                        <polygon points="1041,5847 1550,5847 1550,5937 1041,5937"/>
                        <polygon points="1550,5847 2049,5847 2049,5937 1550,5937"/>
                        <polygon points="2049,5847 2558,5847 2558,5937 2049,5937"/>
                        <g id="jp54qr6" class="note">
                           <g class="notehead">
                              <use xlink:href="#E0A4-ttc3rmw" transform="translate(833, 6297) scale(0.72, 0.72)"/>
                           </g>
                           <g id="o6zx2ez" class="stem">
                              <path d="M1050 6269 L1050 5730" stroke-width="18"/>
                           </g>
                        </g>
                        <g id="kcauqn2" class="note">
                           <g class="notehead">
                              <use xlink:href="#E0A4-ttc3rmw" transform="translate(1333, 6297) scale(0.72, 0.72)"/>
                           </g>
                           <g id="pe3y8ku" class="stem">
                              <path d="M1550 6269 L1550 5730" stroke-width="18"/>
                           </g>
                        </g>
                        <g id="lmbfy3t" class="note">
                           <g class="notehead">
                              <use xlink:href="#E0A4-ttc3rmw" transform="translate(1832, 6297) scale(0.72, 0.72)"/>
                           </g>
                           <g id="qgdxf5o" class="stem">
                              <path d="M2049 6269 L2049 5730" stroke-width="18"/>
                           </g>
                        </g>
                        <g id="m14y66k1" class="note">
                           <g class="notehead">
                              <use xlink:href="#E0A4-ttc3rmw" transform="translate(2332, 6297) scale(0.72, 0.72)"/>
                           </g>
                           <g id="rgvxnxp" class="stem">
                              <path d="M2549 6269 L2549 5730" stroke-width="18"/>
                           </g>
                        </g>
                     </g>
                     <g id="s1ft7o8f" class="beam">
                        <polygon points="3039,5712 4556,5712 4556,5802 3039,5802"/>
                        <polygon points="3039,5847 3548,5847 3548,5937 3039,5937"/>
                        <polygon points="3548,5847 4047,5847 4047,5937 3548,5937"/>
                        <polygon points="4047,5847 4556,5847 4556,5937 4047,5937"/>
                        <g id="osnpyxu" class="note">
                           <g class="notehead">
                              <use xlink:href="#E0A4-ttc3rmw" transform="translate(2831, 6297) scale(0.72, 0.72)"/>
                           </g>
                           <g id="s11penzm" class="stem">
                              <path d="M3048 6269 L3048 5730" stroke-width="18"/>
                           </g>
                        </g>
                        <g id="p1j5wu99" class="note">
                           <g class="notehead">
                              <use xlink:href="#E0A4-ttc3rmw" transform="translate(3331, 6297) scale(0.72, 0.72)"/>
                           </g>
                           <g id="t1l8yetm" class="stem">
                              <path d="M3548 6269 L3548 5730" stroke-width="18"/>
                           </g>
                        </g>
                        <g id="qfqtt5" class="note">
                           <g class="notehead">
                              <use xlink:href="#E0A4-ttc3rmw" transform="translate(3830, 6297) scale(0.72, 0.72)"/>
                           </g>
                           <g id="u1mzlvuw" class="stem">
                              <path d="M4047 6269 L4047 5730" stroke-width="18"/>
                           </g>
                        </g>
                        <g id="rn8273l" class="note">
                           <g class="notehead">
                              <use xlink:href="#E0A4-ttc3rmw" transform="translate(4330, 6297) scale(0.72, 0.72)"/>
                           </g>
                           <g id="vjb84q6" class="stem">
                              <path d="M4547 6269 L4547 5730" stroke-width="18"/>
                           </g>
                        </g>
                     </g>
                     <g id="xtqz8ao" class="beam">
                        <polygon points="5037,5712 6554,5712 6554,5802 5037,5802"/>
                        <polygon points="5037,5847 5546,5847 5546,5937 5037,5937"/>
                        <polygon points="5546,5847 6045,5847 6045,5937 5546,5937"/>
                        <polygon points="6045,5847 6554,5847 6554,5937 6045,5937"/>
                        <g id="t1b2r58r" class="note">
                           <g class="notehead">
                              <use xlink:href="#E0A4-ttc3rmw" transform="translate(4829, 6297) scale(0.72, 0.72)"/>
                           </g>
                           <g id="w1jcr7t" class="stem">
                              <path d="M5046 6269 L5046 5730" stroke-width="18"/>
                           </g>
                        </g>
                        <g id="u1l82lwk" class="note">
                           <g class="notehead">
                              <use xlink:href="#E0A4-ttc3rmw" transform="translate(5329, 6297) scale(0.72, 0.72)"/>
                           </g>
                           <g id="x1d9kv7x" class="stem">
                              <path d="M5546 6269 L5546 5730" stroke-width="18"/>
                           </g>
                        </g>
                        <g id="vlrm1qc" class="note">
                           <g class="notehead">
                              <use xlink:href="#E0A4-ttc3rmw" transform="translate(5828, 6297) scale(0.72, 0.72)"/>
                           </g>
                           <g id="yk2z85p" class="stem">
                              <path d="M6045 6269 L6045 5730" stroke-width="18"/>
                           </g>
                        </g>
                        <g id="w2i7wjc" class="note">
                           <g class="notehead">
                              <use xlink:href="#E0A4-ttc3rmw" transform="translate(6328, 6297) scale(0.72, 0.72)"/>
                           </g>
                           <g id="z1gk0a4u" class="stem">
                              <path d="M6545 6269 L6545 5730" stroke-width="18"/>
                           </g>
                        </g>
                     </g>
                     <g id="c1uehuw3" class="beam">
                        <polygon points="7035,5712 8552,5712 8552,5802 7035,5802"/>
                        <polygon points="7035,5847 7544,5847 7544,5937 7035,5937"/>
                        <polygon points="7544,5847 8043,5847 8043,5937 7544,5937"/>
                        <polygon points="8043,5847 8552,5847 8552,5937 8043,5937"/>
                        <g id="y1q8t14q" class="note">
                           <g class="notehead">
                              <use xlink:href="#E0A4-ttc3rmw" transform="translate(6827, 6297) scale(0.72, 0.72)"/>
                           </g>
                           <g id="agksh64" class="stem">
                              <path d="M7044 6269 L7044 5730" stroke-width="18"/>
                           </g>
                        </g>
                        <g id="z15pl8vd" class="note">
                           <g class="notehead">
                              <use xlink:href="#E0A4-ttc3rmw" transform="translate(7327, 6297) scale(0.72, 0.72)"/>
                           </g>
                           <g id="b1n1poga" class="stem">
                              <path d="M7544 6269 L7544 5730" stroke-width="18"/>
                           </g>
                        </g>
                        <g id="a189cjjt" class="note">
                           <g class="notehead">
                              <use xlink:href="#E0A4-ttc3rmw" transform="translate(7826, 6297) scale(0.72, 0.72)"/>
                           </g>
                           <g id="cza1sh4" class="stem">
                              <path d="M8043 6269 L8043 5730" stroke-width="18"/>
                           </g>
                        </g>
                        <g id="b1n45due" class="note">
                           <g class="notehead">
                              <use xlink:href="#E0A4-ttc3rmw" transform="translate(8326, 6297) scale(0.72, 0.72)"/>
                           </g>
                           <g id="dfanonu" class="stem">
                              <path d="M8543 6269 L8543 5730" stroke-width="18"/>
                           </g>
                        </g>
                     </g>
                  </g>
               </g>
               <g id="hvi0n8h" class="harm" fill="red">
                  <text x="946" y="5219" text-anchor="middle" font-size="0px">
                     <tspan id="iiy0avi" class="text">
                        <tspan font-size="405px" x="946" y="5219">1/16</tspan>
                     </tspan>
                  </text>
               </g>
               <g id="lk0q72q" class="barLine">
                  <path d="M8825 5397 L8825 6117" stroke-width="27"/>
                  <path d="M8955 5397 L8955 6117" stroke-width="90"/>
               </g>
            </g>
            <g id="abcLine09" class="sb"/>
            <g id="wx8u0j3" class="systemMilestoneEnd l1i4zx3j"/>
         </g>
         <g id="xqlzuj2" class="pageMilestoneEnd y1pwozcg"/>
         <g id="y1ltrkqw" class="pageMilestoneEnd u1oymk5c"/>
         <g id="i1qbvinm" class="pgHead">
            <text font-size="0px">
               <tspan id="jwupvlv" class="rend" x="4500" y="269" text-anchor="middle">
                  <tspan id="k1cq6cf2" class="text">
                     <tspan font-size="405px">Notes</tspan>
                  </tspan>
               </tspan>
            </text>
         </g>
      </g>
   </svg>
</svg>