<svg width="509.0" height="210.0" xmlns="http://www.w3.org/2000/svg" xmlns:xlink="http://www.w3.org/1999/xlink">
<svg x="0.0" y="0.0" width="210.0" height="210.0" viewBox="0 0 210 210" xmlns="http://www.w3.org/2000/svg" xmlns:xlink="http://www.w3.org/1999/xlink">
<defs>
<clipPath id="clip-4567946960-4503490000">
<circle cx="105.0" cy="105.0" r="100" fill="none" />
</clipPath>
</defs>
<g>
<circle cx="105.0" cy="105.0" r="100" fill="#FEF7E3" />
<use xlink:href="#clip-4567946960-4503490000" />
<g clip-path="url(#clip-4567946960-4503490000)">
<circle cx="105.0" cy="105.0" r="92" stroke="#DAA05D" stroke-width="16" fill="none" />
<circle cx="105.0" cy="105.0" r="98" stroke="#C37B32" stroke-width="5" fill="none" />
<circle cx="142.64282764521076" cy="55.96410842906848" r="3.341772636418651" fill="#FFDE75" fill-opacity="0.5113699614985614" />
<circle cx="67.45844382614061" cy="41.03860442943046" r="2.9536351383658936" fill="#FFFFFF" fill-opacity="0.46197900665614583" />
<circle cx="129.3560971836567" cy="82.26507886445849" r="2.485855898721809" fill="#FFDE75" fill-opacity="0.22286571896453708" />
<circle cx="157.61282973609832" cy="103.01654085373829" r="4.557639232251347" fill="#8B4513" fill-opacity="0.4798462312025705" />
<circle cx="95.51870914730709" cy="27.19860849994805" r="5.345963977605608" fill="#8B4513" fill-opacity="0.29644979563168333" />
<circle cx="106.51883220085008" cy="133.9194532486562" r="2.2605636204678303" fill="#FFFFFF" fill-opacity="0.5794903728075527" />
<circle cx="169.6358440988384" cy="131.09017503600433" r="4.98958829693248" fill="#8B4513" fill-opacity="0.5488646493429956" />
<circle cx="66.15628885630758" cy="97.67668185369968" r="2.4954051674127564" fill="#FFFFFF" fill-opacity="0.21496008163294622" />
<circle cx="137.43073551990443" cy="150.5238920658046" r="2.102224361362493" fill="#FFDE75" fill-opacity="0.42129515056025124" />
<circle cx="85.49755035411295" cy="60.71055260112823" r="4.756563825264738" fill="#FFFFFF" fill-opacity="0.2548699933746525" />
<circle cx="53.003800564877416" cy="160.5379038641972" r="4.74214334709809" fill="#8B4513" fill-opacity="0.2928897590295323" />
<circle cx="70.93071826932734" cy="124.341642589747" r="4.87256033445742" fill="#8B4513" fill-opacity="0.32633344980510814" />
<circle cx="27.10815933893994" cy="129.62829358555507" r="3.0593493187223344" fill="#8B4513" fill-opacity="0.22297075602735134" />
<circle cx="149.45417392719136" cy="94.25097679650386" r="3.773724071573172" fill="#FFFFFF" fill-opacity="0.4115691656571982" />
<circle cx="58.241983136627155" cy="57.54719596533605" r="4.64487160761918" fill="#FFDE75" fill-opacity="0.3361548202836505" />
<circle cx="108.31649268419088" cy="28.894168362429667" r="5.682679769221483" fill="#FFDE75" fill-opacity="0.5150613583773674" />
<circle cx="49.18387626068412" cy="168.00139395895377" r="5.517267618858643" fill="#FFDE75" fill-opacity="0.24766621734560765" />
<circle cx="136.88019237625267" cy="156.26403026625863" r="3.8432350167916813" fill="#8B4513" fill-opacity="0.5755819260234913" />
<circle cx="36.45676869343308" cy="83.47573026944619" r="3.7404131292199954" fill="#8B4513" fill-opacity="0.47357432030187524" />
<circle cx="136.04622480636414" cy="125.11686736244894" r="5.685759024851368" fill="#D2691E" fill-opacity="0.5665361709291918" />
<circle cx="145.54825348651252" cy="82.08381026319644" r="2.460519153115299" fill="#FFFFFF" fill-opacity="0.41528427505908455" />
<circle cx="116.79085889985998" cy="180.65108209237945" r="5.161173007546809" fill="#D2691E" fill-opacity="0.4216681054587849" />
<circle cx="140.74082349946286" cy="104.5792363740583" r="5.604703960282395" fill="#8B4513" fill-opacity="0.35694038872093825" />
<circle cx="21.548731325489484" cy="89.04277971044763" r="4.329866456390072" fill="#FFDE75" fill-opacity="0.41579910802997555" />
<circle cx="77.0194116432512" cy="172.14484871918535" r="5.745111533054194" fill="#FFFFFF" fill-opacity="0.43399804236105255" />
<circle cx="74.43092024420689" cy="106.46443040738247" r="4.796170775533396" fill="#FFDE75" fill-opacity="0.4594479057565702" />
<circle cx="77.3599449379427" cy="28.95711107971981" r="3.034528919913577" fill="#FFFFFF" fill-opacity="0.5600230184219415" />
<circle cx="133.36614479371485" cy="114.82960198259646" r="5.607772769083406" fill="#8B4513" fill-opacity="0.3037506027049206" />
<circle cx="93.19731229100158" cy="142.4525450812442" r="5.6798163823032635" fill="#8B4513" fill-opacity="0.4815367071442401" />
<circle cx="55.75014575126223" cy="134.49408116134674" r="3.194781572236195" fill="#FFDE75" fill-opacity="0.4442133624651504" />
<circle cx="167.66015327007005" cy="54.27489998874339" r="3.270953340080574" fill="#8B4513" fill-opacity="0.4010548679663217" />
<circle cx="180.463872711365" cy="143.31758805683035" r="5.4301806773911965" fill="#D2691E" fill-opacity="0.46759829291173294" />
<circle cx="88.94787736048683" cy="143.26519499120934" r="5.596520520961818" fill="#D2691E" fill-opacity="0.43135022334084366" />
<circle cx="114.76983266266093" cy="35.27700427056176" r="2.4216145014068444" fill="#FFDE75" fill-opacity="0.4288887455234305" />
<circle cx="97.87256561888323" cy="160.9192123737804" r="5.604216442988631" fill="#8B4513" fill-opacity="0.4804995500994638" />
<circle cx="185.0877965248956" cy="117.33948443327583" r="3.2008860123686325" fill="#D2691E" fill-opacity="0.5556180060043856" />
<circle cx="56.2197858029826" cy="91.10965153063673" r="3.32036547392508" fill="#D2691E" fill-opacity="0.5045159568765203" />
<circle cx="109.51101604640877" cy="41.61093516500743" r="4.479763284046573" fill="#8B4513" fill-opacity="0.41618260051952016" />
<circle cx="94.04863732860879" cy="182.61211108216025" r="3.423266250183845" fill="#8B4513" fill-opacity="0.5455597987749523" />
<circle cx="47.48560299642816" cy="145.20010875017744" r="5.845104440079616" fill="#FFFFFF" fill-opacity="0.34482754378379116" />
<circle cx="94.43043225563795" cy="76.75117278873856" r="5.91352435263668" fill="#FFFFFF" fill-opacity="0.3878728289405441" />
<circle cx="101.8083150235796" cy="49.43131707909054" r="3.1260342145210323" fill="#FFDE75" fill-opacity="0.317050704300487" />
<circle cx="162.82104326468215" cy="81.46941694329108" r="5.473228948496732" fill="#FFDE75" fill-opacity="0.5867526861520758" />
<circle cx="148.78134659133397" cy="154.07259206326182" r="3.219293021211266" fill="#FFFFFF" fill-opacity="0.2081839579816796" />
<circle cx="116.18220440522268" cy="116.09200728191686" r="4.37991444009175" fill="#8B4513" fill-opacity="0.2632331992038851" />
<circle cx="74.91987230717727" cy="129.7203695277811" r="5.89168999017744" fill="#8B4513" fill-opacity="0.39067257147991963" />
<circle cx="106.97510612254162" cy="21.382918725605975" r="3.109182590034425" fill="#D2691E" fill-opacity="0.4167048662455703" />
<circle cx="106.99634154264444" cy="23.997541843829538" r="4.548335621661594" fill="#FFDE75" fill-opacity="0.4542820735212226" />
<circle cx="175.6293885960003" cy="115.04307950711615" r="5.9170305489783095" fill="#FFFFFF" fill-opacity="0.4625710543348292" />
<circle cx="73.87049363377997" cy="36.43460626349504" r="2.0358665970005116" fill="#FFFFFF" fill-opacity="0.47292626373448726" />
<circle cx="128.32398547876497" cy="158.08413046682676" r="3.3178821365810403" fill="#D2691E" fill-opacity="0.4328020062442083" />
<circle cx="135.0569483201476" cy="82.7927894238312" r="2.852682880250506" fill="#FFFFFF" fill-opacity="0.27396283699976137" />
<circle cx="167.1405548237632" cy="104.77949481422468" r="4.680978636383659" fill="#8B4513" fill-opacity="0.2775130691129455" />
<circle cx="106.59742185068511" cy="107.38865271767659" r="4.17749709315915" fill="#FFDE75" fill-opacity="0.5629608558568779" />
<circle cx="96.75538707039041" cy="46.44335724243995" r="3.372438304598882" fill="#8B4513" fill-opacity="0.27605628581807384" />
<circle cx="39.665569647386604" cy="139.231458320421" r="5.8481661831311555" fill="#FFDE75" fill-opacity="0.23768521644847018" />
<circle cx="37.886524302739886" cy="130.4762099960688" r="5.59508021282327" fill="#D2691E" fill-opacity="0.3582712445741517" />
<circle cx="105.46531692140631" cy="93.11276585735794" r="5.667207751219875" fill="#8B4513" fill-opacity="0.5546765806817571" />
<circle cx="101.19367844293394" cy="172.34374065335973" r="3.3424560540851735" fill="#FFDE75" fill-opacity="0.4725288750054917" />
<circle cx="150.14604501242036" cy="170.33961753602867" r="4.110960279848099" fill="#FFFFFF" fill-opacity="0.4399755885201798" />
<circle cx="91.54892815722452" cy="136.3949488534615" r="3.2859534109952016" fill="#D2691E" fill-opacity="0.44885916984260543" />
<circle cx="81.47216072337653" cy="83.58589028198128" r="4.84047008566885" fill="#D2691E" fill-opacity="0.4101094528814428" />
<circle cx="112.54739727361182" cy="36.328938204624095" r="4.019609668117559" fill="#FFFFFF" fill-opacity="0.481168513679342" />
<circle cx="113.99765012656336" cy="71.43381747651974" r="4.709142184152688" fill="#8B4513" fill-opacity="0.5372269512127894" />
<circle cx="113.1836687004521" cy="99.38127939808165" r="4.188944584258835" fill="#FFDE75" fill-opacity="0.5827607792253201" />
<circle cx="140.61178052459715" cy="46.6883299587109" r="2.778090463492269" fill="#FFFFFF" fill-opacity="0.47556776813860063" />
<circle cx="89.32532585076058" cy="176.46995978972825" r="5.193769483055334" fill="#FFFFFF" fill-opacity="0.23541815806629188" />
<circle cx="153.5193503650445" cy="156.42774602774878" r="5.310736172015139" fill="#FFDE75" fill-opacity="0.5401895630687561" />
<circle cx="166.49442370936882" cy="48.47056828180025" r="4.0662144483008245" fill="#FFDE75" fill-opacity="0.5639409169783784" />
<circle cx="71.34289884946142" cy="28.176850123926044" r="4.223802537075574" fill="#FFFFFF" fill-opacity="0.44339088474291943" />
<circle cx="58.98152558640555" cy="35.04650077464072" r="2.046447873042349" fill="#8B4513" fill-opacity="0.29420799224252125" />
<circle cx="137.82909782864994" cy="141.4855231657881" r="3.916868332794689" fill="#FFFFFF" fill-opacity="0.3186488064827669" />
<circle cx="163.9526810923666" cy="145.30446145765046" r="3.184658376731698" fill="#FFDE75" fill-opacity="0.267708425340778" />
<circle cx="119.36812697703937" cy="119.91835747718733" r="2.3455302698198217" fill="#D2691E" fill-opacity="0.42968659065913484" />
<circle cx="25.039918375839804" cy="123.1244041601006" r="3.5030265779655556" fill="#FFFFFF" fill-opacity="0.5125628842828189" />
<circle cx="56.34575761731794" cy="88.27772713827196" r="9.640741897819717" fill="#FFFFFF" fill-opacity="0.95" stroke="#FAF0E6" stroke-width="1.5" />
<circle cx="43.83046053163973" cy="148.46016296206378" r="6.443771531789595" fill="#FFFFFF" fill-opacity="0.95" stroke="#FAF0E6" stroke-width="1.5" />
<circle cx="81.32178376820798" cy="93.02322367923593" r="6.477665735337125" fill="#FFFFFF" fill-opacity="0.95" stroke="#FAF0E6" stroke-width="1.5" />
<circle cx="101.75466696386756" cy="151.59880693049763" r="7.9789013700137446" fill="#FFFFFF" fill-opacity="0.95" stroke="#FAF0E6" stroke-width="1.5" />
<circle cx="149.34488094584083" cy="53.01320769852561" r="10.499597116969666" fill="#FFFFFF" fill-opacity="0.95" stroke="#FAF0E6" stroke-width="1.5" />
<circle cx="143.9069532028368" cy="134.718529967884" r="8.918304284348736" fill="#FFFFFF" fill-opacity="0.95" stroke="#FAF0E6" stroke-width="1.5" />
<circle cx="165.5979350147466" cy="79.34241019733744" r="11.654746195781268" fill="#FFFFFF" fill-opacity="0.95" stroke="#FAF0E6" stroke-width="1.5" />
<circle cx="164.0134690205335" cy="96.22986734328018" r="10.558146737428725" fill="#FFFFFF" fill-opacity="0.95" stroke="#FAF0E6" stroke-width="1.5" />
<circle cx="49.31582238257925" cy="142.35156622557142" r="8.651054864355618" fill="#FFFFFF" fill-opacity="0.95" stroke="#FAF0E6" stroke-width="1.5" />
<circle cx="121.82223367869696" cy="107.52137720254308" r="5.848940112263794" fill="#FFFFFF" fill-opacity="0.95" stroke="#FAF0E6" stroke-width="1.5" />
<circle cx="132.50787013688318" cy="51.60688670385037" r="10.791245964026754" fill="#FFFFFF" fill-opacity="0.95" stroke="#FAF0E6" stroke-width="1.5" />
<circle cx="167.85146175234036" cy="69.77281102358185" r="11.784809973774653" fill="#FFFFFF" fill-opacity="0.95" stroke="#FAF0E6" stroke-width="1.5" />
<circle cx="60.16354695869013" cy="145.94227517978032" r="7.2654078328617935" fill="#FFFFFF" fill-opacity="0.95" stroke="#FAF0E6" stroke-width="1.5" />
<circle cx="118.8417775892248" cy="32.88919718936285" r="9.486105510601856" fill="#FFFFFF" fill-opacity="0.95" stroke="#FAF0E6" stroke-width="1.5" />
<circle cx="146.7220303824321" cy="154.84636883276653" r="7.050664853290712" fill="#FFFFFF" fill-opacity="0.95" stroke="#FAF0E6" stroke-width="1.5" />
<circle cx="140.92706963972603" cy="166.87671461859674" r="7.205216710943725" fill="#FFFFFF" fill-opacity="0.95" stroke="#FAF0E6" stroke-width="1.5" />
<circle cx="84.98630983665899" cy="107.85476510493208" r="6.058376531004413" fill="#FFFFFF" fill-opacity="0.95" stroke="#FAF0E6" stroke-width="1.5" />
<circle cx="96.49813116156523" cy="157.32924157340446" r="11.32221261827987" fill="#FFFFFF" fill-opacity="0.95" stroke="#FAF0E6" stroke-width="1.5" />
<circle cx="119.07183238409358" cy="50.740718860158616" r="5.542624547163092" fill="#FFFFFF" fill-opacity="0.95" stroke="#FAF0E6" stroke-width="1.5" />
<circle cx="112.39721775565435" cy="53.7834985512325" r="6.011182305574471" fill="#FFFFFF" fill-opacity="0.95" stroke="#FAF0E6" stroke-width="1.5" />
<circle cx="89.63045948821457" cy="55.011338297638346" r="10.3189317420738" fill="#FFFFFF" fill-opacity="0.95" stroke="#FAF0E6" stroke-width="1.5" />
<circle cx="80.20319238246242" cy="80.27042783086208" r="8.755888718058443" fill="#FFFFFF" fill-opacity="0.95" stroke="#FAF0E6" stroke-width="1.5" />
<circle cx="78.55795534185637" cy="107.09434312009493" r="9.916633279280456" fill="#FFFFFF" fill-opacity="0.95" stroke="#FAF0E6" stroke-width="1.5" />
<circle cx="44.171945946948355" cy="113.93542172316388" r="10.5571799702976" fill="#FFFFFF" fill-opacity="0.95" stroke="#FAF0E6" stroke-width="1.5" />
<circle cx="154.1382098723142" cy="151.65064882674685" r="7.264615140842849" fill="#FFFFFF" fill-opacity="0.95" stroke="#FAF0E6" stroke-width="1.5" />
<circle cx="50.40276913098154" cy="76.6798601847391" r="6.518536570731342" fill="#FFFFFF" fill-opacity="0.95" stroke="#FAF0E6" stroke-width="1.5" />
<circle cx="155.43831377603573" cy="122.84023581485542" r="8.529561756535394" fill="#FFFFFF" fill-opacity="0.95" stroke="#FAF0E6" stroke-width="1.5" />
<circle cx="70.01073122747005" cy="53.334795160919434" r="11.204908645704771" fill="#FFFFFF" fill-opacity="0.95" stroke="#FAF0E6" stroke-width="1.5" />
<circle cx="161.77968448674525" cy="93.49197241993915" r="11.586159933556276" fill="#FFFFFF" fill-opacity="0.95" stroke="#FAF0E6" stroke-width="1.5" />
<circle cx="35.80845515338798" cy="89.90532912658423" r="10.764850991817138" fill="#FFFFFF" fill-opacity="0.95" stroke="#FAF0E6" stroke-width="1.5" />
</g>
<path d="M105.0,105.0 L105.0,5.0" stroke="lightgray" stroke-width="2" />
<path d="M105.0,105.0 L200.10565162951536,74.09830056250526" stroke="lightgray" stroke-width="2" />
<path d="M105.0,105.0 L163.77852522924732,185.90169943749476" stroke="lightgray" stroke-width="2" />
<path d="M105.0,105.0 L46.2214747707527,185.90169943749476" stroke="lightgray" stroke-width="2" />
<path d="M105.0,105.0 L9.894348370484636,74.09830056250527" stroke="lightgray" stroke-width="2" />
<circle cx="105.0" cy="105.0" r="100" fill="none" stroke="lightgray" stroke-width="2" />
</g>
</svg>
<svg x="225.0" y="0.0" width="284.0" height="210.0" viewBox="0 0 284.0 210" xmlns="http://www.w3.org/2000/svg" xmlns:xlink="http://www.w3.org/1999/xlink">
<defs>
<clipPath id="clip-4557157216-4503489872">
<path d="M105.0,105.0 L105.0,5.0 A100,100,0,0,1,200.10565162951536,74.09830056250526 Z" fill="none" />
</clipPath>
<clipPath id="clip-4557157216-4568306128">
<path d="M105.0,105.0 L200.10565162951536,74.09830056250526 A100,100,0,0,1,163.77852522924732,185.90169943749476 Z" fill="none" />
</clipPath>
</defs>
<g>
<path d="M105.0,105.0 L105.0,5.0 A100,100,0,0,1,200.10565162951536,74.09830056250526 Z" fill="none" stroke="lightgray" stroke-width="2" />
<path d="M105.0,105.0 L200.10565162951536,74.09830056250526 A100,100,0,0,1,163.77852522924732,185.90169943749476 Z" fill="none" stroke="lightgray" stroke-width="2" />
<path d="M105.0,105.0 L163.77852522924732,185.90169943749476 A100,100,0,0,1,46.2214747707527,185.90169943749476 Z" fill="none" stroke="lightgray" stroke-width="2" />
<path d="M105.0,105.0 L46.2214747707527,185.90169943749476 A100,100,0,0,1,9.894348370484636,74.09830056250527 Z" fill="none" stroke="lightgray" stroke-width="2" />
<path d="M105.0,105.0 L9.894348370484636,74.09830056250527 A100,100,0,0,1,104.99999999999999,5.0 Z" fill="none" stroke="lightgray" stroke-width="2" />
<path d="M105.0,105.0 L105.0,5.0 A100,100,0,0,1,200.10565162951536,74.09830056250526 Z" fill="#FEF7E3" stroke="lightgray" stroke-width="2" />
<use xlink:href="#clip-4557157216-4503489872" />
<g clip-path="url(#clip-4557157216-4503489872)">
<circle cx="105.0" cy="105.0" r="92" stroke="#DAA05D" stroke-width="16" fill="none" />
<circle cx="105.0" cy="105.0" r="98" stroke="#C37B32" stroke-width="5" fill="none" />
<circle cx="153.4915185462135" cy="131.60705309144186" r="3.8653057607367076" fill="#FFDE75" fill-opacity="0.24026157469233023" />
<circle cx="161.18120202830116" cy="144.7923262004073" r="3.1459099533850168" fill="#D2691E" fill-opacity="0.5160831087283373" />
<circle cx="122.45154824815512" cy="66.14498320814778" r="4.556562523149664" fill="#FFFFFF" fill-opacity="0.267512738115606" />
<circle cx="68.19763055750767" cy="159.68202488918746" r="3.1909667320321162" fill="#D2691E" fill-opacity="0.5628154872843711" />
<circle cx="114.03481919900172" cy="45.53965253351339" r="3.387005470856946" fill="#D2691E" fill-opacity="0.3484731108382642" />
<circle cx="112.30423749018792" cy="85.24352565570086" r="2.2044291804366902" fill="#D2691E" fill-opacity="0.34512878479320946" />
<circle cx="75.98145165554294" cy="102.6537423117947" r="3.23198131613976" fill="#FFDE75" fill-opacity="0.3896868150350077" />
<circle cx="139.87133950655038" cy="55.05079034763219" r="5.381265422997804" fill="#FFFFFF" fill-opacity="0.5609344244654364" />
<circle cx="67.02029951638747" cy="167.28117817715668" r="4.8470542473018075" fill="#D2691E" fill-opacity="0.24302830799131725" />
<circle cx="105.22639497660492" cy="171.7401295450503" r="3.837080395805218" fill="#8B4513" fill-opacity="0.5924936912584196" />
<circle cx="52.883913665521554" cy="106.37585104803435" r="2.1657727593760225" fill="#FFDE75" fill-opacity="0.5157944023647925" />
<circle cx="114.19255401084764" cy="39.12298184291403" r="4.259640495040697" fill="#8B4513" fill-opacity="0.27237685959369695" />
<circle cx="137.01493511401458" cy="175.86193119308388" r="5.144795403600522" fill="#D2691E" fill-opacity="0.28210077476444756" />
<circle cx="134.4683734690416" cy="117.4923321825743" r="5.492902983518368" fill="#8B4513" fill-opacity="0.2989623100744308" />
<circle cx="93.3710429390956" cy="59.21436472574651" r="4.017134354269389" fill="#FFDE75" fill-opacity="0.5446744451901604" />
<circle cx="98.59234720983694" cy="131.37846062896364" r="3.620893720274583" fill="#FFFFFF" fill-opacity="0.5164950433247222" />
<circle cx="162.05705012915777" cy="83.3669427095395" r="2.0159250473180728" fill="#FFFFFF" fill-opacity="0.4194702352158909" />
<circle cx="71.0797373811327" cy="158.95200930936414" r="5.291955682649101" fill="#FFFFFF" fill-opacity="0.5983046050164209" />
<circle cx="111.36291944162254" cy="66.65917025174654" r="2.4498733793250738" fill="#FFDE75" fill-opacity="0.4192308742249601" />
<circle cx="89.136362102121" cy="162.21378044137276" r="3.5128692863169486" fill="#8B4513" fill-opacity="0.2799608751261129" />
<circle cx="34.309907657707626" cy="67.88205418114455" r="4.239897479986201" fill="#FFDE75" fill-opacity="0.5123224341930831" />
<circle cx="153.3499463444004" cy="122.4863070137897" r="3.7821824077110993" fill="#D2691E" fill-opacity="0.585621380294747" />
<circle cx="83.63666725454367" cy="56.299378538152496" r="5.126817683730753" fill="#FFDE75" fill-opacity="0.5534214295101256" />
<circle cx="78.68683065474242" cy="108.53622198008476" r="2.0220166662595815" fill="#8B4513" fill-opacity="0.2559806187935983" />
<circle cx="108.54411979234219" cy="152.01772240378475" r="4.950115247872718" fill="#8B4513" fill-opacity="0.565366185921435" />
<circle cx="69.84780438524697" cy="140.00636571143428" r="5.630074052202451" fill="#8B4513" fill-opacity="0.5667233859848788" />
<circle cx="159.80793467292526" cy="110.53892140387116" r="3.3316075943557633" fill="#8B4513" fill-opacity="0.20093396383640594" />
<circle cx="35.124747130879925" cy="100.01673346057521" r="3.924660415351354" fill="#FFDE75" fill-opacity="0.5633368338159923" />
<circle cx="108.08904214436959" cy="136.32309733924666" r="2.889373600362104" fill="#D2691E" fill-opacity="0.53481786057349" />
<circle cx="105.68282378341615" cy="129.02697622172568" r="4.921414645582518" fill="#8B4513" fill-opacity="0.5968396343183849" />
<circle cx="79.38910371913336" cy="46.00848857786987" r="8.50962895969206" fill="#FFFFFF" fill-opacity="0.95" stroke="#FAF0E6" stroke-width="1.5" />
<circle cx="71.03456436202353" cy="128.52850871137716" r="11.578562254564304" fill="#FFFFFF" fill-opacity="0.95" stroke="#FAF0E6" stroke-width="1.5" />
<circle cx="118.30034178347934" cy="125.67505030672137" r="9.137846297359058" fill="#FFFFFF" fill-opacity="0.95" stroke="#FAF0E6" stroke-width="1.5" />
<circle cx="127.93840111179037" cy="43.89924945971616" r="11.53011376803435" fill="#FFFFFF" fill-opacity="0.95" stroke="#FAF0E6" stroke-width="1.5" />
<circle cx="93.71464059867344" cy="178.99619188735903" r="8.832955493771959" fill="#FFFFFF" fill-opacity="0.95" stroke="#FAF0E6" stroke-width="1.5" />
<circle cx="122.5954679125175" cy="97.00016247162833" r="11.35988334022291" fill="#FFFFFF" fill-opacity="0.95" stroke="#FAF0E6" stroke-width="1.5" />
<circle cx="91.82290826730595" cy="84.78376386805935" r="5.669582341375708" fill="#FFFFFF" fill-opacity="0.95" stroke="#FAF0E6" stroke-width="1.5" />
<circle cx="89.87935870419835" cy="92.08285117354684" r="6.901350075291003" fill="#FFFFFF" fill-opacity="0.95" stroke="#FAF0E6" stroke-width="1.5" />
<circle cx="129.07494993873368" cy="73.0419697195118" r="5.097340329850903" fill="#FFFFFF" fill-opacity="0.95" stroke="#FAF0E6" stroke-width="1.5" />
<circle cx="159.40280000107552" cy="134.88813331776177" r="8.722793775559996" fill="#FFFFFF" fill-opacity="0.95" stroke="#FAF0E6" stroke-width="1.5" />
<circle cx="152.40651960614602" cy="114.46310344106631" r="8.618616098022148" fill="#FFFFFF" fill-opacity="0.95" stroke="#FAF0E6" stroke-width="1.5" />
<circle cx="137.02128993445092" cy="127.53225401181327" r="11.434472376546438" fill="#FFFFFF" fill-opacity="0.95" stroke="#FAF0E6" stroke-width="1.5" />
</g>
<path d="M105.0,105.0 L200.10565162951536,74.09830056250526 A100,100,0,0,1,163.77852522924732,185.90169943749476 Z" fill="#FEF7E3" stroke="lightgray" stroke-width="2" />
<use xlink:href="#clip-4557157216-4568306128" />
<g clip-path="url(#clip-4557157216-4568306128)">
<circle cx="105.0" cy="105.0" r="92" stroke="#DAA05D" stroke-width="16" fill="none" />
<circle cx="105.0" cy="105.0" r="98" stroke="#C37B32" stroke-width="5" fill="none" />
<circle cx="153.4915185462135" cy="131.60705309144186" r="3.8653057607367076" fill="#FFDE75" fill-opacity="0.24026157469233023" />
<circle cx="161.18120202830116" cy="144.7923262004073" r="3.1459099533850168" fill="#D2691E" fill-opacity="0.5160831087283373" />
<circle cx="122.45154824815512" cy="66.14498320814778" r="4.556562523149664" fill="#FFFFFF" fill-opacity="0.267512738115606" />
<circle cx="68.19763055750767" cy="159.68202488918746" r="3.1909667320321162" fill="#D2691E" fill-opacity="0.5628154872843711" />
<circle cx="114.03481919900172" cy="45.53965253351339" r="3.387005470856946" fill="#D2691E" fill-opacity="0.3484731108382642" />
<circle cx="112.30423749018792" cy="85.24352565570086" r="2.2044291804366902" fill="#D2691E" fill-opacity="0.34512878479320946" />
<circle cx="75.98145165554294" cy="102.6537423117947" r="3.23198131613976" fill="#FFDE75" fill-opacity="0.3896868150350077" />
<circle cx="139.87133950655038" cy="55.05079034763219" r="5.381265422997804" fill="#FFFFFF" fill-opacity="0.5609344244654364" />
<circle cx="67.02029951638747" cy="167.28117817715668" r="4.8470542473018075" fill="#D2691E" fill-opacity="0.24302830799131725" />
<circle cx="105.22639497660492" cy="171.7401295450503" r="3.837080395805218" fill="#8B4513" fill-opacity="0.5924936912584196" />
<circle cx="52.883913665521554" cy="106.37585104803435" r="2.1657727593760225" fill="#FFDE75" fill-opacity="0.5157944023647925" />
<circle cx="114.19255401084764" cy="39.12298184291403" r="4.259640495040697" fill="#8B4513" fill-opacity="0.27237685959369695" />
<circle cx="137.01493511401458" cy="175.86193119308388" r="5.144795403600522" fill="#D2691E" fill-opacity="0.28210077476444756" />
<circle cx="134.4683734690416" cy="117.4923321825743" r="5.492902983518368" fill="#8B4513" fill-opacity="0.2989623100744308" />
<circle cx="93.3710429390956" cy="59.21436472574651" r="4.017134354269389" fill="#FFDE75" fill-opacity="0.5446744451901604" />
<circle cx="98.59234720983694" cy="131.37846062896364" r="3.620893720274583" fill="#FFFFFF" fill-opacity="0.5164950433247222" />
<circle cx="162.05705012915777" cy="83.3669427095395" r="2.0159250473180728" fill="#FFFFFF" fill-opacity="0.4194702352158909" />
<circle cx="71.0797373811327" cy="158.95200930936414" r="5.291955682649101" fill="#FFFFFF" fill-opacity="0.5983046050164209" />
<circle cx="111.36291944162254" cy="66.65917025174654" r="2.4498733793250738" fill="#FFDE75" fill-opacity="0.4192308742249601" />
<circle cx="89.136362102121" cy="162.21378044137276" r="3.5128692863169486" fill="#8B4513" fill-opacity="0.2799608751261129" />
<circle cx="34.309907657707626" cy="67.88205418114455" r="4.239897479986201" fill="#FFDE75" fill-opacity="0.5123224341930831" />
<circle cx="153.3499463444004" cy="122.4863070137897" r="3.7821824077110993" fill="#D2691E" fill-opacity="0.585621380294747" />
<circle cx="83.63666725454367" cy="56.299378538152496" r="5.126817683730753" fill="#FFDE75" fill-opacity="0.5534214295101256" />
<circle cx="78.68683065474242" cy="108.53622198008476" r="2.0220166662595815" fill="#8B4513" fill-opacity="0.2559806187935983" />
<circle cx="108.54411979234219" cy="152.01772240378475" r="4.950115247872718" fill="#8B4513" fill-opacity="0.565366185921435" />
<circle cx="69.84780438524697" cy="140.00636571143428" r="5.630074052202451" fill="#8B4513" fill-opacity="0.5667233859848788" />
<circle cx="159.80793467292526" cy="110.53892140387116" r="3.3316075943557633" fill="#8B4513" fill-opacity="0.20093396383640594" />
<circle cx="35.124747130879925" cy="100.01673346057521" r="3.924660415351354" fill="#FFDE75" fill-opacity="0.5633368338159923" />
<circle cx="108.08904214436959" cy="136.32309733924666" r="2.889373600362104" fill="#D2691E" fill-opacity="0.53481786057349" />
<circle cx="105.68282378341615" cy="129.02697622172568" r="4.921414645582518" fill="#8B4513" fill-opacity="0.5968396343183849" />
<circle cx="79.38910371913336" cy="46.00848857786987" r="8.50962895969206" fill="#FFFFFF" fill-opacity="0.95" stroke="#FAF0E6" stroke-width="1.5" />
<circle cx="71.03456436202353" cy="128.52850871137716" r="11.578562254564304" fill="#FFFFFF" fill-opacity="0.95" stroke="#FAF0E6" stroke-width="1.5" />
<circle cx="118.30034178347934" cy="125.67505030672137" r="9.137846297359058" fill="#FFFFFF" fill-opacity="0.95" stroke="#FAF0E6" stroke-width="1.5" />
<circle cx="127.93840111179037" cy="43.89924945971616" r="11.53011376803435" fill="#FFFFFF" fill-opacity="0.95" stroke="#FAF0E6" stroke-width="1.5" />
<circle cx="93.71464059867344" cy="178.99619188735903" r="8.832955493771959" fill="#FFFFFF" fill-opacity="0.95" stroke="#FAF0E6" stroke-width="1.5" />
<circle cx="122.5954679125175" cy="97.00016247162833" r="11.35988334022291" fill="#FFFFFF" fill-opacity="0.95" stroke="#FAF0E6" stroke-width="1.5" />
<circle cx="91.82290826730595" cy="84.78376386805935" r="5.669582341375708" fill="#FFFFFF" fill-opacity="0.95" stroke="#FAF0E6" stroke-width="1.5" />
<circle cx="89.87935870419835" cy="92.08285117354684" r="6.901350075291003" fill="#FFFFFF" fill-opacity="0.95" stroke="#FAF0E6" stroke-width="1.5" />
<circle cx="129.07494993873368" cy="73.0419697195118" r="5.097340329850903" fill="#FFFFFF" fill-opacity="0.95" stroke="#FAF0E6" stroke-width="1.5" />
<circle cx="159.40280000107552" cy="134.88813331776177" r="8.722793775559996" fill="#FFFFFF" fill-opacity="0.95" stroke="#FAF0E6" stroke-width="1.5" />
<circle cx="152.40651960614602" cy="114.46310344106631" r="8.618616098022148" fill="#FFFFFF" fill-opacity="0.95" stroke="#FAF0E6" stroke-width="1.5" />
<circle cx="137.02128993445092" cy="127.53225401181327" r="11.434472376546438" fill="#FFFFFF" fill-opacity="0.95" stroke="#FAF0E6" stroke-width="1.5" />
</g>
<rect x="230.0" y="41.0" width="54.0" height="54.0" fill="none" stroke="black" stroke-width="2" />
<rect x="230.0" y="115.0" width="54.0" height="54.0" fill="none" stroke="black" stroke-width="2" />
<path d="M225.0,105.0 L289.0,105.0" stroke="black" stroke-width="2" />
</g>
</svg>
</svg>