<?xml version="1.0" encoding="UTF-8"?>
<svg xmlns="http://www.w3.org/2000/svg" xmlns:xlink="http://www.w3.org/1999/xlink"
     width="284.0" height="210" viewBox="0 0 284.0 210">
<defs>
<clipPath id="clip-4476902032-4476719312">
<path d="M105.0,105.0 L105.0,5.0 A100,100,0,0,1,205.0,105.0 Z" fill="none" />
</clipPath>
</defs>
<g>
<path d="M105.0,105.0 L105.0,5.0 A100,100,0,0,1,205.0,105.0 Z" fill="none" stroke="lightgray" stroke-width="2" />
<path d="M105.0,105.0 L205.0,105.0 A100,100,0,0,1,105.0,205.0 Z" fill="none" stroke="lightgray" stroke-width="2" />
<path d="M105.0,105.0 L105.0,205.0 A100,100,0,0,1,5.0,105.00000000000001 Z" fill="none" stroke="lightgray" stroke-width="2" />
<path d="M105.0,105.0 L5.0,105.00000000000001 A100,100,0,0,1,104.99999999999999,5.0 Z" fill="none" stroke="lightgray" stroke-width="2" />
<path d="M105.0,105.0 L105.0,5.0 A100,100,0,0,1,205.0,105.0 Z" fill="#F5C754" stroke="lightgray" stroke-width="2" />
<use xlink:href="#clip-4476902032-4476719312" />
<g clip-path="url(#clip-4476902032-4476719312)">
<circle cx="105.0" cy="105.0" r="92" stroke="#DAA05D" stroke-width="16" fill="none" />
<circle cx="105.0" cy="105.0" r="98" stroke="#C37B32" stroke-width="5" fill="none" />
<circle cx="127.50492522042296" cy="76.85619456032379" r="4.699005977795271" fill="#FFDE75" fill-opacity="0.4668808889026469" />
<circle cx="161.88186704676968" cy="99.18284612242559" r="2.5426050709972348" fill="#FFFFFF" fill-opacity="0.280018839650898" />
<circle cx="56.14930182592013" cy="137.44920601717203" r="4.753301700252051" fill="#8B4513" fill-opacity="0.29032313744274135" />
<circle cx="80.3415197397774" cy="121.62815414108402" r="3.237450105794944" fill="#FFDE75" fill-opacity="0.5477492111255021" />
<circle cx="80.62423230145731" cy="132.37793474000438" r="2.846736610744151" fill="#FFDE75" fill-opacity="0.5342272158460764" />
<circle cx="75.3818096927549" cy="90.44671306139826" r="5.326349902835724" fill="#FFDE75" fill-opacity="0.3449441898789382" />
<circle cx="131.4930294693802" cy="184.09792274604405" r="4.229380823600897" fill="#D2691E" fill-opacity="0.26252717603234205" />
<circle cx="81.071912903153" cy="185.5321240813892" r="4.159681563498721" fill="#FFDE75" fill-opacity="0.5540780477081244" />
<circle cx="67.22224054567785" cy="119.09175324556105" r="5.353335653332973" fill="#FFDE75" fill-opacity="0.5245405392234901" />
<circle cx="157.11596075991926" cy="103.56369541002078" r="5.41175760648057" fill="#8B4513" fill-opacity="0.4914336701331739" />
<circle cx="65.46100796364348" cy="50.83076452153459" r="2.3273213527847116" fill="#8B4513" fill-opacity="0.5160199301188575" />
<circle cx="126.66818251148953" cy="170.96083701086502" r="3.9197132969719277" fill="#8B4513" fill-opacity="0.4898224045792566" />
<circle cx="142.94677364441768" cy="169.23146806149703" r="5.061627815712617" fill="#8B4513" fill-opacity="0.45364948206560063" />
<circle cx="82.30446879936669" cy="138.19412633887248" r="5.196135838895619" fill="#8B4513" fill-opacity="0.49451235700357943" />
<circle cx="55.28889190552256" cy="88.63246006486263" r="5.588837860862087" fill="#D2691E" fill-opacity="0.2031866818246325" />
<circle cx="179.74105979146046" cy="119.10182680777217" r="11.656998113944418" fill="#C92A2A" stroke="#800000" stroke-width="1" />
<circle cx="182.48267864307783" cy="124.50144206228545" r="0.7840030579207508" fill="#FFA07A" fill-opacity="0.7" />
<circle cx="184.20584078047105" cy="113.57077954035617" r="1.2225184591471647" fill="#FFA07A" fill-opacity="0.7" />
<circle cx="182.6289462279641" cy="115.70678876717922" r="0.910260733062053" fill="#FFA07A" fill-opacity="0.7" />
<circle cx="182.9586200009361" cy="119.10674338746541" r="0.6002978432315873" fill="#FFA07A" fill-opacity="0.7" />
<circle cx="174.66252590496174" cy="121.82523287976682" r="0.9039860573717424" fill="#FFA07A" fill-opacity="0.7" />
<circle cx="180.1668024460596" cy="124.07319602300781" r="0.600575916009733" fill="#FFA07A" fill-opacity="0.7" />
<circle cx="84.4586159111252" cy="36.11716166775511" r="9.485813067423694" fill="#C92A2A" stroke="#800000" stroke-width="1" />
<circle cx="88.31403189014658" cy="41.357928099160716" r="1.4916546213840567" fill="#FFA07A" fill-opacity="0.7" />
<circle cx="78.89663773557454" cy="37.18183002797345" r="0.893980151214046" fill="#FFA07A" fill-opacity="0.7" />
<circle cx="86.48625520067026" cy="37.9177097444839" r="1.2778018161093243" fill="#FFA07A" fill-opacity="0.7" />
<circle cx="87.27859914215136" cy="140.8110846626964" r="10.786559810729056" fill="#C92A2A" stroke="#800000" stroke-width="1" />
<circle cx="82.05527190044089" cy="138.1381330452733" r="1.1155165635796376" fill="#FFA07A" fill-opacity="0.7" />
<circle cx="90.46164169870535" cy="141.5946632692012" r="0.9676748557955823" fill="#FFA07A" fill-opacity="0.7" />
<circle cx="90.5967240971153" cy="135.8953769274892" r="0.8722666424409953" fill="#FFA07A" fill-opacity="0.7" />
<circle cx="58.56056005389834" cy="140.1738724960775" r="11.447502719400731" fill="#C92A2A" stroke="#800000" stroke-width="1" />
<circle cx="60.26622987970663" cy="143.16971975503367" r="1.254068410431212" fill="#FFA07A" fill-opacity="0.7" />
<circle cx="58.547591252587516" cy="140.94328586989403" r="0.8117840337439058" fill="#FFA07A" fill-opacity="0.7" />
<circle cx="52.68842122196204" cy="144.4899136627161" r="1.174201580754904" fill="#FFA07A" fill-opacity="0.7" />
<circle cx="54.496775755747976" cy="137.81384825014945" r="1.0358892125305301" fill="#FFA07A" fill-opacity="0.7" />
<circle cx="56.652424660288574" cy="136.28706482603204" r="0.9469430982164415" fill="#FFA07A" fill-opacity="0.7" />
<circle cx="63.556358823472976" cy="142.28350345354988" r="1.1950438173426188" fill="#FFA07A" fill-opacity="0.7" />
</g>
<rect x="230.0" y="41.0" width="54.0" height="54.0" fill="none" stroke="black" stroke-width="2" />
<rect x="230.0" y="115.0" width="54.0" height="54.0" fill="none" stroke="black" stroke-width="2" />
<path d="M225.0,105.0 L289.0,105.0" stroke="black" stroke-width="2" />
</g>
</svg>