<svg width="509.0" height="210.0" xmlns="http://www.w3.org/2000/svg" xmlns:xlink="http://www.w3.org/1999/xlink">
<svg x="0.0" y="0.0" width="210.0" height="210.0" viewBox="0 0 210 210" xmlns="http://www.w3.org/2000/svg" xmlns:xlink="http://www.w3.org/1999/xlink">
<defs>
<clipPath id="clip-4557123472-4503678160">
<circle cx="105.0" cy="105.0" r="100" fill="none" />
</clipPath>
</defs>
<g>
<circle cx="105.0" cy="105.0" r="100" fill="#F5C754" />
<use xlink:href="#clip-4557123472-4503678160" />
<g clip-path="url(#clip-4557123472-4503678160)">
<circle cx="105.0" cy="105.0" r="92" stroke="#DAA05D" stroke-width="16" fill="none" />
<circle cx="105.0" cy="105.0" r="98" stroke="#C37B32" stroke-width="5" fill="none" />
<circle cx="150.65842914018054" cy="116.2375797803318" r="2.495458123074704" fill="#8B4513" fill-opacity="0.49905423971404655" />
<circle cx="76.3473386056883" cy="123.14958987446929" r="3.2855548411503306" fill="#FFFFFF" fill-opacity="0.3926415162307738" />
<circle cx="43.56196768864344" cy="62.217403158783355" r="5.760360469278666" fill="#FFFFFF" fill-opacity="0.302089690242972" />
<circle cx="181.22833861181516" cy="88.77881893130757" r="5.440620990669849" fill="#8B4513" fill-opacity="0.3218076253437932" />
<circle cx="100.74023505001757" cy="162.52507984786658" r="5.013756431111295" fill="#8B4513" fill-opacity="0.40486094195273514" />
<circle cx="108.67217533254473" cy="76.48775442113063" r="3.8806378020774526" fill="#FFFFFF" fill-opacity="0.39683158922262574" />
<circle cx="66.5237879208332" cy="89.01490247363958" r="3.914300055828706" fill="#8B4513" fill-opacity="0.37364392989990813" />
<circle cx="138.34714020953794" cy="171.3464903157801" r="3.7266694206258006" fill="#D2691E" fill-opacity="0.5740488791318517" />
<circle cx="155.07914593916743" cy="104.8008808803676" r="4.318916103195482" fill="#D2691E" fill-opacity="0.33625918275702793" />
<circle cx="187.35070968729408" cy="123.09779415971141" r="3.2814674308530387" fill="#FFFFFF" fill-opacity="0.5166023532553002" />
<circle cx="91.79825416210889" cy="131.43363350105244" r="3.41098269035866" fill="#D2691E" fill-opacity="0.35512841458021194" />
<circle cx="54.71913760013826" cy="139.41772960893803" r="4.299853349705202" fill="#D2691E" fill-opacity="0.3472849245520403" />
<circle cx="30.799008848870514" cy="82.97043869718021" r="2.3422655364832363" fill="#FFDE75" fill-opacity="0.5618243912250677" />
<circle cx="66.57492054033983" cy="30.732369660424453" r="2.7624266543248917" fill="#FFFFFF" fill-opacity="0.4369975874852926" />
<circle cx="67.66619911725712" cy="173.0753455137785" r="4.4186095341536955" fill="#8B4513" fill-opacity="0.20795162071016726" />
<circle cx="89.16087597423247" cy="60.67724956239122" r="3.221558315803422" fill="#D2691E" fill-opacity="0.32292826664088015" />
<circle cx="84.16245056572659" cy="179.29370512475396" r="3.727523942561907" fill="#D2691E" fill-opacity="0.5922809519781903" />
<circle cx="130.1208762122229" cy="93.15882596177674" r="5.558968390150033" fill="#8B4513" fill-opacity="0.40225453384064014" />
<circle cx="128.8936122639215" cy="47.288164020900375" r="3.193923763439466" fill="#FFDE75" fill-opacity="0.4104707459222623" />
<circle cx="63.11184587576358" cy="176.0063976883959" r="3.49860478030589" fill="#FFFFFF" fill-opacity="0.5892136016823133" />
<circle cx="38.56808176507121" cy="66.58001155833381" r="4.037583033852131" fill="#D2691E" fill-opacity="0.427465475016916" />
<circle cx="173.40513530760308" cy="135.5940070410828" r="5.389386001335785" fill="#FFFFFF" fill-opacity="0.3455154228057678" />
<circle cx="54.887477985379924" cy="116.65276531107784" r="5.710519457359778" fill="#8B4513" fill-opacity="0.5073450961088299" />
<circle cx="140.52741008824722" cy="65.4424781907534" r="3.5874780671718574" fill="#8B4513" fill-opacity="0.47049348855618167" />
<circle cx="84.15751100285583" cy="179.0314910954613" r="5.38105790181632" fill="#8B4513" fill-opacity="0.5433168698480306" />
<circle cx="164.9592984415595" cy="118.92670427811933" r="3.843614045696639" fill="#FFFFFF" fill-opacity="0.5122555665360171" />
<circle cx="136.42788340392633" cy="72.09215919363115" r="4.877001735147386" fill="#D2691E" fill-opacity="0.3210858048038709" />
<circle cx="128.96017928968158" cy="140.11943514118457" r="4.264039610044586" fill="#8B4513" fill-opacity="0.5592001153078652" />
<circle cx="69.6216403378242" cy="135.20848844750384" r="3.4186096850166807" fill="#FFFFFF" fill-opacity="0.3479047307583545" />
<circle cx="99.42149759061374" cy="58.407634918195505" r="3.2894898650408386" fill="#FFDE75" fill-opacity="0.49068590332213613" />
<circle cx="138.04403165345948" cy="163.71843501649752" r="5.116085130296469" fill="#D2691E" fill-opacity="0.5355688536264214" />
<circle cx="181.81354695209083" cy="74.16435861651352" r="3.9815126873216546" fill="#FFDE75" fill-opacity="0.40824691142886893" />
<circle cx="153.9477262558048" cy="120.33043904903816" r="5.074319969323835" fill="#D2691E" fill-opacity="0.38462242400821844" />
<circle cx="179.14319362555787" cy="103.15699768324922" r="5.271853038548848" fill="#D2691E" fill-opacity="0.3394799265190466" />
<circle cx="159.87399767207688" cy="67.9456353244548" r="5.394770975013206" fill="#D2691E" fill-opacity="0.3665384423728326" />
<circle cx="131.1163465599165" cy="83.25683530283051" r="4.373445687994059" fill="#FFFFFF" fill-opacity="0.3773009100104158" />
<circle cx="158.03566419357705" cy="59.48135941978824" r="2.3138789465610694" fill="#FFFFFF" fill-opacity="0.5368854214058822" />
<circle cx="122.25991812509301" cy="73.14327635441765" r="2.617900443274914" fill="#FFDE75" fill-opacity="0.5069992452571911" />
<circle cx="173.44851876456295" cy="139.4811369239417" r="3.0885470295854978" fill="#FFDE75" fill-opacity="0.44871923005950876" />
<circle cx="83.02812744351608" cy="106.30766375235113" r="3.6717350562449447" fill="#FFDE75" fill-opacity="0.40359701166191986" />
<circle cx="82.43157799767357" cy="164.9257435235357" r="4.407859767927781" fill="#FFDE75" fill-opacity="0.32827795148729905" />
<circle cx="101.43050853678214" cy="87.31343652037334" r="4.4662988769375005" fill="#8B4513" fill-opacity="0.4790155252525512" />
<circle cx="62.118910496479295" cy="178.36080461464525" r="3.765850214570397" fill="#8B4513" fill-opacity="0.4650495356603413" />
<circle cx="83.31754285745097" cy="151.31917436216858" r="3.5627837235732636" fill="#D2691E" fill-opacity="0.3140531209371593" />
<circle cx="160.80543813396935" cy="130.66590670405566" r="2.307687049767775" fill="#8B4513" fill-opacity="0.5640728020362091" />
<circle cx="74.49065987162962" cy="43.02808442897606" r="3.380073180743702" fill="#FFDE75" fill-opacity="0.42468961621219015" />
<circle cx="93.56034063899268" cy="75.18507945775353" r="2.404102808053482" fill="#FFDE75" fill-opacity="0.22326410574385447" />
<circle cx="120.29207445890448" cy="133.33439241351564" r="5.830140949795956" fill="#FFFFFF" fill-opacity="0.5987531933313391" />
<circle cx="50.312606235505676" cy="67.62726241425716" r="4.137861983906223" fill="#FFFFFF" fill-opacity="0.24662156719646122" />
<circle cx="123.88894332977263" cy="107.52590070116679" r="5.143279361825277" fill="#FFDE75" fill-opacity="0.30009233855859885" />
<circle cx="74.14226890227692" cy="179.9751436213826" r="2.139978027073932" fill="#D2691E" fill-opacity="0.3462332908248321" />
<circle cx="80.35455374758807" cy="159.97779648708243" r="4.550110406512799" fill="#D2691E" fill-opacity="0.5690387887205588" />
<circle cx="70.19424929767814" cy="142.34667307996395" r="2.7403343854365723" fill="#D2691E" fill-opacity="0.4174096626268653" />
<circle cx="160.09740062568116" cy="62.84924943990754" r="3.3565680755358045" fill="#D2691E" fill-opacity="0.45398145964347775" />
<circle cx="95.49307646927103" cy="56.074961710708806" r="4.205941579189961" fill="#8B4513" fill-opacity="0.37754704925293125" />
<circle cx="41.78775242487188" cy="117.32503565021298" r="5.452570564237526" fill="#FFDE75" fill-opacity="0.5220286563669551" />
<circle cx="108.89527207915981" cy="104.87968991998385" r="5.461453345788666" fill="#D2691E" fill-opacity="0.33156508537608226" />
<circle cx="63.507295355085695" cy="111.66595504446235" r="2.658260149052519" fill="#FFDE75" fill-opacity="0.40777156177491525" />
<circle cx="36.439373240287495" cy="60.16254840795513" r="2.6495994520131414" fill="#FFDE75" fill-opacity="0.3044680068840335" />
<circle cx="136.88617234370835" cy="123.754317314992" r="4.626473457871328" fill="#D2691E" fill-opacity="0.48977793311131373" />
<circle cx="76.61562202208212" cy="104.83965909230554" r="10.565457816539412" fill="#C92A2A" stroke="#800000" stroke-width="1" />
<circle cx="79.80479391984571" cy="109.1163704639166" r="0.9238685091806713" fill="#FFA07A" fill-opacity="0.7" />
<circle cx="76.08218247043563" cy="106.77984185759377" r="0.9460398942427086" fill="#FFA07A" fill-opacity="0.7" />
<circle cx="73.03164723512475" cy="101.48160579641032" r="1.2867207785698913" fill="#FFA07A" fill-opacity="0.7" />
<circle cx="85.59272029529615" cy="94.05159398080592" r="10.14837201035023" fill="#C92A2A" stroke="#800000" stroke-width="1" />
<circle cx="81.06837306252993" cy="98.35174682868335" r="0.8054329905987749" fill="#FFA07A" fill-opacity="0.7" />
<circle cx="87.0717052372569" cy="92.74757714937367" r="1.155626639416813" fill="#FFA07A" fill-opacity="0.7" />
<circle cx="86.30048661612864" cy="96.36309035609088" r="1.2219520444001997" fill="#FFA07A" fill-opacity="0.7" />
<circle cx="155.44189387694558" cy="138.63587557970135" r="9.805664050543182" fill="#C92A2A" stroke="#800000" stroke-width="1" />
<circle cx="157.81141138810926" cy="137.4458843244374" r="0.9197841414578102" fill="#FFA07A" fill-opacity="0.7" />
<circle cx="160.2957565425403" cy="139.7246532872138" r="1.4501604848519718" fill="#FFA07A" fill-opacity="0.7" />
<circle cx="149.45137960949535" cy="140.13221927548076" r="1.3230480826694722" fill="#FFA07A" fill-opacity="0.7" />
<circle cx="109.12517091049907" cy="81.03502667495866" r="10.120341951397652" fill="#C92A2A" stroke="#800000" stroke-width="1" />
<circle cx="106.47101796719657" cy="82.83046060147889" r="0.7075996077280992" fill="#FFA07A" fill-opacity="0.7" />
<circle cx="108.47407385053357" cy="78.62027058901525" r="0.8080890515268438" fill="#FFA07A" fill-opacity="0.7" />
<circle cx="111.8814679974342" cy="83.84929484916749" r="0.6140630123102406" fill="#FFA07A" fill-opacity="0.7" />
<circle cx="110.44606766444096" cy="83.09356634316484" r="1.0092278950762186" fill="#FFA07A" fill-opacity="0.7" />
<circle cx="113.76558628447228" cy="78.13229168656416" r="1.388287754374503" fill="#FFA07A" fill-opacity="0.7" />
<circle cx="111.191350578895" cy="77.03877810419436" r="0.8338649901804911" fill="#FFA07A" fill-opacity="0.7" />
<circle cx="111.5518374914185" cy="81.21792414291713" r="0.5487481230514326" fill="#FFA07A" fill-opacity="0.7" />
<circle cx="30.562154968459623" cy="86.51465949125426" r="11.752422147429986" fill="#C92A2A" stroke="#800000" stroke-width="1" />
<circle cx="35.47852477327935" cy="82.72900587929152" r="1.2632546273986345" fill="#FFA07A" fill-opacity="0.7" />
<circle cx="30.335677786745386" cy="87.23192939050125" r="1.0605497799738903" fill="#FFA07A" fill-opacity="0.7" />
<circle cx="26.37716762671183" cy="91.66119189475371" r="0.5878992450771271" fill="#FFA07A" fill-opacity="0.7" />
<circle cx="26.704054835433208" cy="83.37216008745843" r="0.875464519016454" fill="#FFA07A" fill-opacity="0.7" />
<circle cx="29.871807226607213" cy="80.8908386293964" r="1.3346447449571404" fill="#FFA07A" fill-opacity="0.7" />
<circle cx="124.8608073752645" cy="39.98512287226019" r="11.86505720043226" fill="#C92A2A" stroke="#800000" stroke-width="1" />
<circle cx="128.42681667930086" cy="38.9139830038099" r="1.322741386832217" fill="#FFA07A" fill-opacity="0.7" />
<circle cx="125.31260105868893" cy="45.92504480340479" r="0.9987404347456845" fill="#FFA07A" fill-opacity="0.7" />
<circle cx="130.27685070063188" cy="38.22257772609393" r="0.5997418700459936" fill="#FFA07A" fill-opacity="0.7" />
<circle cx="120.2275894344158" cy="39.22717407857508" r="0.6078312584701333" fill="#FFA07A" fill-opacity="0.7" />
<circle cx="130.64887083915113" cy="45.17294273790031" r="0.6331802932495214" fill="#FFA07A" fill-opacity="0.7" />
<circle cx="84.1431868912441" cy="136.28054706970795" r="9.725582034892781" fill="#C92A2A" stroke="#800000" stroke-width="1" />
<circle cx="80.46176637324973" cy="136.17744185269547" r="1.4715778000935045" fill="#FFA07A" fill-opacity="0.7" />
<circle cx="85.72696124722847" cy="131.9105340569923" r="0.9397805958923726" fill="#FFA07A" fill-opacity="0.7" />
<circle cx="85.65843454346172" cy="136.40822208770737" r="1.1570653820625791" fill="#FFA07A" fill-opacity="0.7" />
<circle cx="85.85666945540069" cy="131.10295526483034" r="1.1133756116253575" fill="#FFA07A" fill-opacity="0.7" />
<circle cx="88.90078357169308" cy="136.51884242060407" r="1.3192619365109732" fill="#FFA07A" fill-opacity="0.7" />
<circle cx="106.54791841627977" cy="83.68253324862853" r="11.888602510264054" fill="#C92A2A" stroke="#800000" stroke-width="1" />
<circle cx="102.01245392416747" cy="87.12038634670358" r="1.0682878893745138" fill="#FFA07A" fill-opacity="0.7" />
<circle cx="100.65719464037406" cy="86.0970166943747" r="1.0991679024730914" fill="#FFA07A" fill-opacity="0.7" />
<circle cx="104.26661350784335" cy="86.2047564422429" r="1.1772585460988436" fill="#FFA07A" fill-opacity="0.7" />
<circle cx="101.03696462909248" cy="88.53366090463307" r="1.305285829368006" fill="#FFA07A" fill-opacity="0.7" />
<circle cx="78.65893301360737" cy="102.58257223700092" r="10.272901624929002" fill="#C92A2A" stroke="#800000" stroke-width="1" />
<circle cx="83.49783697965673" cy="104.02153671049625" r="1.3377589482815813" fill="#FFA07A" fill-opacity="0.7" />
<circle cx="78.33106603691917" cy="101.72517475515463" r="1.0081902454185903" fill="#FFA07A" fill-opacity="0.7" />
<circle cx="77.27436317678843" cy="96.82391748872355" r="1.2858586419341136" fill="#FFA07A" fill-opacity="0.7" />
<circle cx="75.84028692903897" cy="100.46318786691386" r="0.9362065392830651" fill="#FFA07A" fill-opacity="0.7" />
<circle cx="85.94764864985366" cy="141.94023989940018" r="10.866345165625829" fill="#C92A2A" stroke="#800000" stroke-width="1" />
<circle cx="91.44972097889266" cy="143.5006488097921" r="0.7775167088696975" fill="#FFA07A" fill-opacity="0.7" />
<circle cx="86.5099863924582" cy="142.03490716786712" r="1.3477035455410014" fill="#FFA07A" fill-opacity="0.7" />
<circle cx="84.50799953072314" cy="140.45082616199605" r="1.2008821464539272" fill="#FFA07A" fill-opacity="0.7" />
<circle cx="81.7506034552844" cy="139.78381096113887" r="1.486256522798388" fill="#FFA07A" fill-opacity="0.7" />
<circle cx="143.11589545298477" cy="38.41124786047136" r="11.670072700915965" fill="#C92A2A" stroke="#800000" stroke-width="1" />
<circle cx="147.09666953040258" cy="43.9494319883277" r="1.2316605581670854" fill="#FFA07A" fill-opacity="0.7" />
<circle cx="144.0841384404974" cy="43.50725943747351" r="0.8222069461681905" fill="#FFA07A" fill-opacity="0.7" />
<circle cx="146.769197370667" cy="39.07012543439332" r="0.9499347206479555" fill="#FFA07A" fill-opacity="0.7" />
<circle cx="139.2361656985263" cy="36.833502664852595" r="0.9471924513193927" fill="#FFA07A" fill-opacity="0.7" />
<circle cx="141.02580669173787" cy="44.199311047469266" r="1.1807226851578827" fill="#FFA07A" fill-opacity="0.7" />
<circle cx="163.95974174277794" cy="67.79267831339862" r="10.638528420961917" fill="#C92A2A" stroke="#800000" stroke-width="1" />
<circle cx="161.4677469566325" cy="69.6893829333375" r="1.4511502581861828" fill="#FFA07A" fill-opacity="0.7" />
<circle cx="166.26803449534535" cy="68.38379383352546" r="0.6470433387336136" fill="#FFA07A" fill-opacity="0.7" />
<circle cx="166.69397515904603" cy="61.94559270208221" r="0.8076442050830536" fill="#FFA07A" fill-opacity="0.7" />
<circle cx="161.6550107495108" cy="68.83286397579106" r="1.340210452243503" fill="#FFA07A" fill-opacity="0.7" />
<circle cx="162.18057791330745" cy="110.73520651886878" r="11.181052048588686" fill="#C92A2A" stroke="#800000" stroke-width="1" />
<circle cx="166.83823514850081" cy="112.01385172353531" r="0.5407310352581717" fill="#FFA07A" fill-opacity="0.7" />
<circle cx="158.55095885169246" cy="109.93736785782444" r="0.6382520877311803" fill="#FFA07A" fill-opacity="0.7" />
<circle cx="161.53336948793745" cy="109.26931485308822" r="1.1673022081598332" fill="#FFA07A" fill-opacity="0.7" />
<circle cx="163.0315425949262" cy="108.80995825636528" r="0.828085735356108" fill="#FFA07A" fill-opacity="0.7" />
<circle cx="157.0141937230617" cy="105.19086293440344" r="1.1160687875217516" fill="#FFA07A" fill-opacity="0.7" />
<circle cx="163.22719396999128" cy="115.96254613589069" r="0.6180528192783927" fill="#FFA07A" fill-opacity="0.7" />
<circle cx="171.68425815235236" cy="135.8795357064889" r="9.116321725633135" fill="#C92A2A" stroke="#800000" stroke-width="1" />
<circle cx="172.45356884037196" cy="139.9082708956249" r="1.0739818027553873" fill="#FFA07A" fill-opacity="0.7" />
<circle cx="173.76185360603412" cy="141.303836079518" r="0.6634715023775036" fill="#FFA07A" fill-opacity="0.7" />
<circle cx="173.33170090033127" cy="137.63794757281033" r="0.7890673471436918" fill="#FFA07A" fill-opacity="0.7" />
<circle cx="165.9678868381633" cy="141.8346970260516" r="1.1905469991866333" fill="#FFA07A" fill-opacity="0.7" />
<circle cx="175.49981702948122" cy="132.83189527579262" r="0.7136177391262826" fill="#FFA07A" fill-opacity="0.7" />
<circle cx="175.92500577692402" cy="138.2010722308641" r="0.6999764613801165" fill="#FFA07A" fill-opacity="0.7" />
<circle cx="169.0682660897831" cy="138.54208339704502" r="0.9691448427177196" fill="#FFA07A" fill-opacity="0.7" />
<circle cx="38.76177303094579" cy="94.04987226524987" r="9.454412399691158" fill="#C92A2A" stroke="#800000" stroke-width="1" />
<circle cx="36.106000598936504" cy="98.53616438692538" r="1.1438257254348048" fill="#FFA07A" fill-opacity="0.7" />
<circle cx="39.836306841650455" cy="97.03864036132315" r="0.994637271929722" fill="#FFA07A" fill-opacity="0.7" />
<circle cx="37.72875760089404" cy="91.17307628282771" r="1.4499102838411935" fill="#FFA07A" fill-opacity="0.7" />
<circle cx="42.30766482905006" cy="95.8433141759464" r="1.0813577023252527" fill="#FFA07A" fill-opacity="0.7" />
<circle cx="38.38435476747621" cy="89.4823196824491" r="0.9772518715079768" fill="#FFA07A" fill-opacity="0.7" />
<circle cx="44.41108185364186" cy="91.39169307746538" r="1.299959015383811" fill="#FFA07A" fill-opacity="0.7" />
<circle cx="34.78687317370206" cy="96.39681168343877" r="1.4602024712296497" fill="#FFA07A" fill-opacity="0.7" />
<circle cx="75.01364662813663" cy="131.17837671515758" r="11.246445129178884" fill="#C92A2A" stroke="#800000" stroke-width="1" />
<circle cx="80.95922409207701" cy="129.4897921057239" r="0.9058328352325908" fill="#FFA07A" fill-opacity="0.7" />
<circle cx="78.88913229885415" cy="127.6441315616945" r="0.6793992314462085" fill="#FFA07A" fill-opacity="0.7" />
<circle cx="74.75669104570426" cy="128.9743684088128" r="0.6788411352442648" fill="#FFA07A" fill-opacity="0.7" />
<circle cx="76.43931654795043" cy="130.0071241078417" r="0.87103838223284" fill="#FFA07A" fill-opacity="0.7" />
</g>
<path d="M105.0,105.0 L105.0,5.0" stroke="lightgray" stroke-width="2" />
<path d="M105.0,105.0 L205.0,105.0" stroke="lightgray" stroke-width="2" />
<path d="M105.0,105.0 L105.0,205.0" stroke="lightgray" stroke-width="2" />
<path d="M105.0,105.0 L5.0,105.00000000000001" stroke="lightgray" stroke-width="2" />
<circle cx="105.0" cy="105.0" r="100" fill="none" stroke="lightgray" stroke-width="2" />
</g>
</svg>
<svg x="225.0" y="0.0" width="284.0" height="210.0" viewBox="0 0 284.0 210" xmlns="http://www.w3.org/2000/svg" xmlns:xlink="http://www.w3.org/1999/xlink">
<defs>
<clipPath id="clip-4557139920-4568315600">
<path d="M105.0,105.0 L105.0,5.0 A100,100,0,0,1,205.0,105.0 Z" fill="none" />
</clipPath>
<clipPath id="clip-4557139920-4567684048">
<path d="M105.0,105.0 L205.0,105.0 A100,100,0,0,1,105.0,205.0 Z" fill="none" />
</clipPath>
<clipPath id="clip-4557139920-4568952400">
<path d="M105.0,105.0 L105.0,205.0 A100,100,0,0,1,5.0,105.00000000000001 Z" fill="none" />
</clipPath>
</defs>
<g>
<path d="M105.0,105.0 L105.0,5.0 A100,100,0,0,1,205.0,105.0 Z" fill="none" stroke="lightgray" stroke-width="2" />
<path d="M105.0,105.0 L205.0,105.0 A100,100,0,0,1,105.0,205.0 Z" fill="none" stroke="lightgray" stroke-width="2" />
<path d="M105.0,105.0 L105.0,205.0 A100,100,0,0,1,5.0,105.00000000000001 Z" fill="none" stroke="lightgray" stroke-width="2" />
<path d="M105.0,105.0 L5.0,105.00000000000001 A100,100,0,0,1,104.99999999999999,5.0 Z" fill="none" stroke="lightgray" stroke-width="2" />
<path d="M105.0,105.0 L105.0,5.0 A100,100,0,0,1,205.0,105.0 Z" fill="#F5C754" stroke="lightgray" stroke-width="2" />
<use xlink:href="#clip-4557139920-4568315600" />
<g clip-path="url(#clip-4557139920-4568315600)">
<circle cx="105.0" cy="105.0" r="92" stroke="#DAA05D" stroke-width="16" fill="none" />
<circle cx="105.0" cy="105.0" r="98" stroke="#C37B32" stroke-width="5" fill="none" />
<circle cx="179.37332336013824" cy="112.05863590907713" r="4.859012952471742" fill="#8B4513" fill-opacity="0.3242822972794741" />
<circle cx="46.78714867525614" cy="141.77213685028343" r="4.311282609949494" fill="#FFDE75" fill-opacity="0.5253742258016685" />
<circle cx="36.537707487927506" cy="89.7638936885186" r="4.3590936341408515" fill="#D2691E" fill-opacity="0.27836650999569607" />
<circle cx="93.38847274104418" cy="24.46599915900501" r="3.119607826245298" fill="#FFFFFF" fill-opacity="0.24004581985753332" />
<circle cx="45.22826758620065" cy="143.53337329735962" r="5.979631213068721" fill="#FFDE75" fill-opacity="0.26686892371128584" />
<circle cx="75.40065124078927" cy="56.28713528727615" r="3.809409914046197" fill="#FFDE75" fill-opacity="0.480920666723725" />
<circle cx="106.88750625092796" cy="164.0896087373041" r="5.3203284608737444" fill="#8B4513" fill-opacity="0.23316961281314705" />
<circle cx="57.55896661033747" cy="112.60111523083476" r="5.240071672215103" fill="#FFFFFF" fill-opacity="0.4347186628729177" />
<circle cx="185.47682314788062" cy="82.49920420761163" r="5.496554993676979" fill="#FFDE75" fill-opacity="0.5136079126981163" />
<circle cx="102.69690264365471" cy="86.8524768562559" r="4.895684445561505" fill="#8B4513" fill-opacity="0.20340301560163965" />
<circle cx="44.66289486264198" cy="74.57098643740251" r="5.135105000939737" fill="#D2691E" fill-opacity="0.33227589231728605" />
<circle cx="52.22065801275023" cy="54.001049682026796" r="5.7831935294805525" fill="#FFDE75" fill-opacity="0.2539097219639872" />
<circle cx="105.01377962706107" cy="110.41459620877517" r="2.2727465992741465" fill="#FFFFFF" fill-opacity="0.5076517937269212" />
<circle cx="81.86173755227586" cy="154.84232658405142" r="5.8838655702825715" fill="#8B4513" fill-opacity="0.20235926922080055" />
<circle cx="162.96447537038856" cy="102.78483908487792" r="3.236956267351365" fill="#FFFFFF" fill-opacity="0.4365349453436629" />
<circle cx="50.007739992908576" cy="97.69823529554836" r="2.473798956983789" fill="#8B4513" fill-opacity="0.22839895648424102" />
<circle cx="87.71515017934773" cy="41.92601865767211" r="2.0981797801560225" fill="#D2691E" fill-opacity="0.5058763918373632" />
<circle cx="87.07404892138192" cy="79.8590674349656" r="2.539842083881188" fill="#FFDE75" fill-opacity="0.4918274423606162" />
<circle cx="123.333475026095" cy="136.60541940241148" r="5.063091569810767" fill="#8B4513" fill-opacity="0.22406595322165346" />
<circle cx="51.56426929777452" cy="161.6347431183316" r="3.1531754048832954" fill="#FFFFFF" fill-opacity="0.48411179241944" />
<circle cx="180.56288651948216" cy="121.96527899853982" r="3.1549613304299498" fill="#8B4513" fill-opacity="0.505169236574587" />
<circle cx="108.40995926819646" cy="145.5827774529394" r="5.179764996758289" fill="#FFFFFF" fill-opacity="0.22806994868086525" />
<circle cx="59.21505579152075" cy="49.75739685374163" r="4.073873664989758" fill="#D2691E" fill-opacity="0.2581348029494102" />
<circle cx="136.91174582419853" cy="95.30239674292609" r="2.6690317704420132" fill="#FFFFFF" fill-opacity="0.3506449477954763" />
<circle cx="131.84619688868796" cy="82.64881708144247" r="3.262391736205485" fill="#D2691E" fill-opacity="0.2306435254958649" />
<circle cx="183.6082741413606" cy="110.28293923622527" r="2.1893651966189145" fill="#8B4513" fill-opacity="0.4408900728464087" />
<circle cx="122.53192301246114" cy="28.244540436818994" r="4.753245377489139" fill="#8B4513" fill-opacity="0.2944006792428774" />
<circle cx="169.020221240516" cy="119.91280360997098" r="4.3190648797323865" fill="#D2691E" fill-opacity="0.3554752947199019" />
<circle cx="59.42017208250359" cy="133.91251946053012" r="5.112373459878754" fill="#D2691E" fill-opacity="0.2425978942635586" />
<circle cx="169.09183045713354" cy="103.33657305204154" r="4.149781671729551" fill="#D2691E" fill-opacity="0.21592914883420314" />
<circle cx="138.25746367351124" cy="136.0829040981732" r="4.9051691058393425" fill="#8B4513" fill-opacity="0.23681131174157768" />
<circle cx="78.9154300453145" cy="66.57709555031758" r="5.176108306286584" fill="#FFFFFF" fill-opacity="0.5752938603419446" />
<circle cx="153.86002736159782" cy="126.60608276844638" r="4.807052128615365" fill="#8B4513" fill-opacity="0.21651883800061844" />
<circle cx="181.43425678924297" cy="139.09777907062792" r="5.3903922974187335" fill="#D2691E" fill-opacity="0.2465779865072006" />
<circle cx="92.23644878220679" cy="38.18775619865498" r="3.8196472195614737" fill="#FFFFFF" fill-opacity="0.3630496440412733" />
<circle cx="158.5723892730953" cy="90.82243787006819" r="2.145881100092581" fill="#D2691E" fill-opacity="0.4193216431128932" />
<circle cx="159.86962034289132" cy="169.18799261019086" r="5.963078870811432" fill="#FFFFFF" fill-opacity="0.2405954114448553" />
<circle cx="59.31712869132297" cy="141.96780331925342" r="4.459117168032028" fill="#FFFFFF" fill-opacity="0.2417225827255457" />
<circle cx="93.67018870763066" cy="86.01586406672145" r="4.124769379773902" fill="#D2691E" fill-opacity="0.30868745152900495" />
<circle cx="158.94110060884026" cy="123.15955412198743" r="5.7423723117122805" fill="#8B4513" fill-opacity="0.47515344096892265" />
<circle cx="159.0814388953205" cy="90.83847473613697" r="3.227344384167601" fill="#FFFFFF" fill-opacity="0.2486814501997031" />
<circle cx="87.3587691179402" cy="51.27447688965789" r="3.680152836254788" fill="#FFDE75" fill-opacity="0.4913200005335056" />
<circle cx="128.12917490915223" cy="143.66427774673593" r="5.379368912313534" fill="#FFDE75" fill-opacity="0.4246753026785941" />
<circle cx="54.85541048641326" cy="80.19496494825083" r="4.8924244360917974" fill="#FFDE75" fill-opacity="0.5367280921428133" />
<circle cx="46.78068721477937" cy="84.84342489743037" r="5.814501906495639" fill="#FFFFFF" fill-opacity="0.40562727757750267" />
<circle cx="109.60805280688655" cy="42.5737368892263" r="9.734486704054163" fill="#C92A2A" stroke="#800000" stroke-width="1" />
<circle cx="107.01789817155554" cy="45.69026612298879" r="1.054169363461676" fill="#FFA07A" fill-opacity="0.7" />
<circle cx="106.55305299950118" cy="38.98788166333756" r="1.1214888990363399" fill="#FFA07A" fill-opacity="0.7" />
<circle cx="112.00397362009996" cy="41.22531741833484" r="1.4354161711286317" fill="#FFA07A" fill-opacity="0.7" />
<circle cx="105.28119318690536" cy="38.9305959829757" r="1.0842397081675115" fill="#FFA07A" fill-opacity="0.7" />
<circle cx="104.61257107806655" cy="42.09218162475188" r="1.4276245650915174" fill="#FFA07A" fill-opacity="0.7" />
<circle cx="115.4434180825535" cy="103.23073481188526" r="10.827797856802286" fill="#C92A2A" stroke="#800000" stroke-width="1" />
<circle cx="119.07693040734272" cy="101.45887376718446" r="0.8495623468890207" fill="#FFA07A" fill-opacity="0.7" />
<circle cx="116.96396768086336" cy="103.77822402576837" r="1.0075473718784056" fill="#FFA07A" fill-opacity="0.7" />
<circle cx="109.5693297119443" cy="102.02893036938627" r="0.9317680056230966" fill="#FFA07A" fill-opacity="0.7" />
<circle cx="109.4807722893867" cy="107.05163160252478" r="1.4242217291821702" fill="#FFA07A" fill-opacity="0.7" />
<circle cx="117.92788472121437" cy="105.4779848584751" r="0.6784827739978796" fill="#FFA07A" fill-opacity="0.7" />
<circle cx="109.55097098220051" cy="102.56149322054456" r="0.6873704782899234" fill="#FFA07A" fill-opacity="0.7" />
<circle cx="120.1440068418657" cy="100.0529695147482" r="0.6885259401603121" fill="#FFA07A" fill-opacity="0.7" />
<circle cx="60.096764858287315" cy="42.92612670725638" r="10.061452712119682" fill="#C92A2A" stroke="#800000" stroke-width="1" />
<circle cx="62.529919747649075" cy="45.24050871333688" r="0.7560095281207673" fill="#FFA07A" fill-opacity="0.7" />
<circle cx="58.336425316515324" cy="45.84287545958242" r="1.0057036758372324" fill="#FFA07A" fill-opacity="0.7" />
<circle cx="54.880862418840245" cy="48.30245505893547" r="0.5628163094973837" fill="#FFA07A" fill-opacity="0.7" />
<circle cx="60.14037486471733" cy="48.17343560820431" r="0.8714078308704688" fill="#FFA07A" fill-opacity="0.7" />
<circle cx="41.5135140771683" cy="74.70087594191591" r="9.215193984228991" fill="#C92A2A" stroke="#800000" stroke-width="1" />
<circle cx="36.23509170619159" cy="69.98245026155804" r="0.9980336678512355" fill="#FFA07A" fill-opacity="0.7" />
<circle cx="35.84306384891089" cy="70.72450051362127" r="0.5566845085583791" fill="#FFA07A" fill-opacity="0.7" />
<circle cx="39.21122930870433" cy="74.12836177051322" r="1.0595891117746015" fill="#FFA07A" fill-opacity="0.7" />
<circle cx="45.264893565685554" cy="148.59298542180733" r="10.43661854027178" fill="#C92A2A" stroke="#800000" stroke-width="1" />
<circle cx="44.081206904456266" cy="153.76317204075858" r="0.9166706206239665" fill="#FFA07A" fill-opacity="0.7" />
<circle cx="49.474634388691996" cy="151.64103709942498" r="1.1699435159828424" fill="#FFA07A" fill-opacity="0.7" />
<circle cx="43.11119424422147" cy="149.17016528658056" r="0.9362429003622266" fill="#FFA07A" fill-opacity="0.7" />
<circle cx="49.85958431412028" cy="154.2898602925351" r="0.6876617277667648" fill="#FFA07A" fill-opacity="0.7" />
<circle cx="40.18877735388142" cy="148.65110899275376" r="1.466866763265664" fill="#FFA07A" fill-opacity="0.7" />
<circle cx="50.07465826586467" cy="147.6414625940428" r="0.5879566980611952" fill="#FFA07A" fill-opacity="0.7" />
<circle cx="56.41251773535043" cy="93.89361485844752" r="9.676406837179291" fill="#C92A2A" stroke="#800000" stroke-width="1" />
<circle cx="62.072968114937176" cy="91.40678075013447" r="1.1037043392507417" fill="#FFA07A" fill-opacity="0.7" />
<circle cx="51.63730326395918" cy="97.03608218681933" r="0.8206112656173112" fill="#FFA07A" fill-opacity="0.7" />
<circle cx="59.83713917738436" cy="93.39442250070995" r="1.158274202217235" fill="#FFA07A" fill-opacity="0.7" />
<circle cx="57.30059033086838" cy="94.14221466194013" r="0.8845032202733069" fill="#FFA07A" fill-opacity="0.7" />
<circle cx="52.06873110044328" cy="94.78626157127695" r="1.3521469365471732" fill="#FFA07A" fill-opacity="0.7" />
<circle cx="37.19583426110228" cy="68.07211415344081" r="11.67612389788692" fill="#C92A2A" stroke="#800000" stroke-width="1" />
<circle cx="35.10706326283723" cy="68.92740938833616" r="1.3817273703931159" fill="#FFA07A" fill-opacity="0.7" />
<circle cx="39.66920303078162" cy="69.29126740510878" r="1.3137519110332507" fill="#FFA07A" fill-opacity="0.7" />
<circle cx="32.56643142150051" cy="70.26253937218567" r="1.4793829831371075" fill="#FFA07A" fill-opacity="0.7" />
<circle cx="33.65868430682699" cy="67.30985960836497" r="0.6798777233737647" fill="#FFA07A" fill-opacity="0.7" />
<circle cx="42.30651796332721" cy="66.26535002318171" r="1.014064508965269" fill="#FFA07A" fill-opacity="0.7" />
<circle cx="101.80825562827154" cy="116.5526928281393" r="9.596230733250879" fill="#C92A2A" stroke="#800000" stroke-width="1" />
<circle cx="103.29479022847187" cy="112.56086469338682" r="0.751332237908732" fill="#FFA07A" fill-opacity="0.7" />
<circle cx="106.80929924945038" cy="117.91507839022293" r="0.6748601026956442" fill="#FFA07A" fill-opacity="0.7" />
<circle cx="105.32102199244513" cy="122.18695320179701" r="0.6591882945398584" fill="#FFA07A" fill-opacity="0.7" />
<circle cx="104.69830173485661" cy="165.58958132057091" r="9.931559671516442" fill="#C92A2A" stroke="#800000" stroke-width="1" />
<circle cx="103.36232567246952" cy="160.68660323660305" r="0.62700260712987" fill="#FFA07A" fill-opacity="0.7" />
<circle cx="108.77146782724489" cy="160.11611673071766" r="1.4956551070018318" fill="#FFA07A" fill-opacity="0.7" />
<circle cx="102.48713425588666" cy="169.3428087526026" r="1.0025347403888816" fill="#FFA07A" fill-opacity="0.7" />
<circle cx="63.13884386512378" cy="79.96891970127997" r="11.69698298963994" fill="#C92A2A" stroke="#800000" stroke-width="1" />
<circle cx="60.63426215147053" cy="81.32243588097575" r="0.5916745826475854" fill="#FFA07A" fill-opacity="0.7" />
<circle cx="67.05090251540426" cy="79.61429116995612" r="1.4387461157019594" fill="#FFA07A" fill-opacity="0.7" />
<circle cx="60.329870320844165" cy="83.26235767176372" r="0.5681422880379821" fill="#FFA07A" fill-opacity="0.7" />
<circle cx="57.367864249813906" cy="80.82803880323787" r="0.9114600800985116" fill="#FFA07A" fill-opacity="0.7" />
<circle cx="114.61419347145342" cy="179.19221613891148" r="10.585311927139424" fill="#C92A2A" stroke="#800000" stroke-width="1" />
<circle cx="111.58865266296388" cy="182.76562605630969" r="0.8832639610780355" fill="#FFA07A" fill-opacity="0.7" />
<circle cx="112.68003983458885" cy="182.58625196443091" r="0.9646798032501612" fill="#FFA07A" fill-opacity="0.7" />
<circle cx="119.6333710056979" cy="179.2719822642115" r="0.5631502768766484" fill="#FFA07A" fill-opacity="0.7" />
<circle cx="108.75683271865472" cy="174.71569020835915" r="1.025611596125267" fill="#FFA07A" fill-opacity="0.7" />
<circle cx="83.37307926989888" cy="63.67161050161998" r="11.494062210955363" fill="#C92A2A" stroke="#800000" stroke-width="1" />
<circle cx="82.38211750827679" cy="68.43064082806092" r="1.0057134942427723" fill="#FFA07A" fill-opacity="0.7" />
<circle cx="83.13456275483553" cy="59.426695223574086" r="0.6635640715740998" fill="#FFA07A" fill-opacity="0.7" />
<circle cx="80.6869879639576" cy="59.17527101197501" r="1.0085911357563142" fill="#FFA07A" fill-opacity="0.7" />
<circle cx="87.32372876312562" cy="63.23104521320749" r="0.7468387797606001" fill="#FFA07A" fill-opacity="0.7" />
<circle cx="84.11647781910155" cy="67.7247279082886" r="1.1525583795110925" fill="#FFA07A" fill-opacity="0.7" />
</g>
<path d="M105.0,105.0 L205.0,105.0 A100,100,0,0,1,105.0,205.0 Z" fill="#F5C754" stroke="lightgray" stroke-width="2" />
<use xlink:href="#clip-4557139920-4567684048" />
<g clip-path="url(#clip-4557139920-4567684048)">
<circle cx="105.0" cy="105.0" r="92" stroke="#DAA05D" stroke-width="16" fill="none" />
<circle cx="105.0" cy="105.0" r="98" stroke="#C37B32" stroke-width="5" fill="none" />
<circle cx="179.37332336013824" cy="112.05863590907713" r="4.859012952471742" fill="#8B4513" fill-opacity="0.3242822972794741" />
<circle cx="46.78714867525614" cy="141.77213685028343" r="4.311282609949494" fill="#FFDE75" fill-opacity="0.5253742258016685" />
<circle cx="36.537707487927506" cy="89.7638936885186" r="4.3590936341408515" fill="#D2691E" fill-opacity="0.27836650999569607" />
<circle cx="93.38847274104418" cy="24.46599915900501" r="3.119607826245298" fill="#FFFFFF" fill-opacity="0.24004581985753332" />
<circle cx="45.22826758620065" cy="143.53337329735962" r="5.979631213068721" fill="#FFDE75" fill-opacity="0.26686892371128584" />
<circle cx="75.40065124078927" cy="56.28713528727615" r="3.809409914046197" fill="#FFDE75" fill-opacity="0.480920666723725" />
<circle cx="106.88750625092796" cy="164.0896087373041" r="5.3203284608737444" fill="#8B4513" fill-opacity="0.23316961281314705" />
<circle cx="57.55896661033747" cy="112.60111523083476" r="5.240071672215103" fill="#FFFFFF" fill-opacity="0.4347186628729177" />
<circle cx="185.47682314788062" cy="82.49920420761163" r="5.496554993676979" fill="#FFDE75" fill-opacity="0.5136079126981163" />
<circle cx="102.69690264365471" cy="86.8524768562559" r="4.895684445561505" fill="#8B4513" fill-opacity="0.20340301560163965" />
<circle cx="44.66289486264198" cy="74.57098643740251" r="5.135105000939737" fill="#D2691E" fill-opacity="0.33227589231728605" />
<circle cx="52.22065801275023" cy="54.001049682026796" r="5.7831935294805525" fill="#FFDE75" fill-opacity="0.2539097219639872" />
<circle cx="105.01377962706107" cy="110.41459620877517" r="2.2727465992741465" fill="#FFFFFF" fill-opacity="0.5076517937269212" />
<circle cx="81.86173755227586" cy="154.84232658405142" r="5.8838655702825715" fill="#8B4513" fill-opacity="0.20235926922080055" />
<circle cx="162.96447537038856" cy="102.78483908487792" r="3.236956267351365" fill="#FFFFFF" fill-opacity="0.4365349453436629" />
<circle cx="50.007739992908576" cy="97.69823529554836" r="2.473798956983789" fill="#8B4513" fill-opacity="0.22839895648424102" />
<circle cx="87.71515017934773" cy="41.92601865767211" r="2.0981797801560225" fill="#D2691E" fill-opacity="0.5058763918373632" />
<circle cx="87.07404892138192" cy="79.8590674349656" r="2.539842083881188" fill="#FFDE75" fill-opacity="0.4918274423606162" />
<circle cx="123.333475026095" cy="136.60541940241148" r="5.063091569810767" fill="#8B4513" fill-opacity="0.22406595322165346" />
<circle cx="51.56426929777452" cy="161.6347431183316" r="3.1531754048832954" fill="#FFFFFF" fill-opacity="0.48411179241944" />
<circle cx="180.56288651948216" cy="121.96527899853982" r="3.1549613304299498" fill="#8B4513" fill-opacity="0.505169236574587" />
<circle cx="108.40995926819646" cy="145.5827774529394" r="5.179764996758289" fill="#FFFFFF" fill-opacity="0.22806994868086525" />
<circle cx="59.21505579152075" cy="49.75739685374163" r="4.073873664989758" fill="#D2691E" fill-opacity="0.2581348029494102" />
<circle cx="136.91174582419853" cy="95.30239674292609" r="2.6690317704420132" fill="#FFFFFF" fill-opacity="0.3506449477954763" />
<circle cx="131.84619688868796" cy="82.64881708144247" r="3.262391736205485" fill="#D2691E" fill-opacity="0.2306435254958649" />
<circle cx="183.6082741413606" cy="110.28293923622527" r="2.1893651966189145" fill="#8B4513" fill-opacity="0.4408900728464087" />
<circle cx="122.53192301246114" cy="28.244540436818994" r="4.753245377489139" fill="#8B4513" fill-opacity="0.2944006792428774" />
<circle cx="169.020221240516" cy="119.91280360997098" r="4.3190648797323865" fill="#D2691E" fill-opacity="0.3554752947199019" />
<circle cx="59.42017208250359" cy="133.91251946053012" r="5.112373459878754" fill="#D2691E" fill-opacity="0.2425978942635586" />
<circle cx="169.09183045713354" cy="103.33657305204154" r="4.149781671729551" fill="#D2691E" fill-opacity="0.21592914883420314" />
<circle cx="138.25746367351124" cy="136.0829040981732" r="4.9051691058393425" fill="#8B4513" fill-opacity="0.23681131174157768" />
<circle cx="78.9154300453145" cy="66.57709555031758" r="5.176108306286584" fill="#FFFFFF" fill-opacity="0.5752938603419446" />
<circle cx="153.86002736159782" cy="126.60608276844638" r="4.807052128615365" fill="#8B4513" fill-opacity="0.21651883800061844" />
<circle cx="181.43425678924297" cy="139.09777907062792" r="5.3903922974187335" fill="#D2691E" fill-opacity="0.2465779865072006" />
<circle cx="92.23644878220679" cy="38.18775619865498" r="3.8196472195614737" fill="#FFFFFF" fill-opacity="0.3630496440412733" />
<circle cx="158.5723892730953" cy="90.82243787006819" r="2.145881100092581" fill="#D2691E" fill-opacity="0.4193216431128932" />
<circle cx="159.86962034289132" cy="169.18799261019086" r="5.963078870811432" fill="#FFFFFF" fill-opacity="0.2405954114448553" />
<circle cx="59.31712869132297" cy="141.96780331925342" r="4.459117168032028" fill="#FFFFFF" fill-opacity="0.2417225827255457" />
<circle cx="93.67018870763066" cy="86.01586406672145" r="4.124769379773902" fill="#D2691E" fill-opacity="0.30868745152900495" />
<circle cx="158.94110060884026" cy="123.15955412198743" r="5.7423723117122805" fill="#8B4513" fill-opacity="0.47515344096892265" />
<circle cx="159.0814388953205" cy="90.83847473613697" r="3.227344384167601" fill="#FFFFFF" fill-opacity="0.2486814501997031" />
<circle cx="87.3587691179402" cy="51.27447688965789" r="3.680152836254788" fill="#FFDE75" fill-opacity="0.4913200005335056" />
<circle cx="128.12917490915223" cy="143.66427774673593" r="5.379368912313534" fill="#FFDE75" fill-opacity="0.4246753026785941" />
<circle cx="54.85541048641326" cy="80.19496494825083" r="4.8924244360917974" fill="#FFDE75" fill-opacity="0.5367280921428133" />
<circle cx="46.78068721477937" cy="84.84342489743037" r="5.814501906495639" fill="#FFFFFF" fill-opacity="0.40562727757750267" />
<circle cx="109.60805280688655" cy="42.5737368892263" r="9.734486704054163" fill="#C92A2A" stroke="#800000" stroke-width="1" />
<circle cx="107.01789817155554" cy="45.69026612298879" r="1.054169363461676" fill="#FFA07A" fill-opacity="0.7" />
<circle cx="106.55305299950118" cy="38.98788166333756" r="1.1214888990363399" fill="#FFA07A" fill-opacity="0.7" />
<circle cx="112.00397362009996" cy="41.22531741833484" r="1.4354161711286317" fill="#FFA07A" fill-opacity="0.7" />
<circle cx="105.28119318690536" cy="38.9305959829757" r="1.0842397081675115" fill="#FFA07A" fill-opacity="0.7" />
<circle cx="104.61257107806655" cy="42.09218162475188" r="1.4276245650915174" fill="#FFA07A" fill-opacity="0.7" />
<circle cx="115.4434180825535" cy="103.23073481188526" r="10.827797856802286" fill="#C92A2A" stroke="#800000" stroke-width="1" />
<circle cx="119.07693040734272" cy="101.45887376718446" r="0.8495623468890207" fill="#FFA07A" fill-opacity="0.7" />
<circle cx="116.96396768086336" cy="103.77822402576837" r="1.0075473718784056" fill="#FFA07A" fill-opacity="0.7" />
<circle cx="109.5693297119443" cy="102.02893036938627" r="0.9317680056230966" fill="#FFA07A" fill-opacity="0.7" />
<circle cx="109.4807722893867" cy="107.05163160252478" r="1.4242217291821702" fill="#FFA07A" fill-opacity="0.7" />
<circle cx="117.92788472121437" cy="105.4779848584751" r="0.6784827739978796" fill="#FFA07A" fill-opacity="0.7" />
<circle cx="109.55097098220051" cy="102.56149322054456" r="0.6873704782899234" fill="#FFA07A" fill-opacity="0.7" />
<circle cx="120.1440068418657" cy="100.0529695147482" r="0.6885259401603121" fill="#FFA07A" fill-opacity="0.7" />
<circle cx="60.096764858287315" cy="42.92612670725638" r="10.061452712119682" fill="#C92A2A" stroke="#800000" stroke-width="1" />
<circle cx="62.529919747649075" cy="45.24050871333688" r="0.7560095281207673" fill="#FFA07A" fill-opacity="0.7" />
<circle cx="58.336425316515324" cy="45.84287545958242" r="1.0057036758372324" fill="#FFA07A" fill-opacity="0.7" />
<circle cx="54.880862418840245" cy="48.30245505893547" r="0.5628163094973837" fill="#FFA07A" fill-opacity="0.7" />
<circle cx="60.14037486471733" cy="48.17343560820431" r="0.8714078308704688" fill="#FFA07A" fill-opacity="0.7" />
<circle cx="41.5135140771683" cy="74.70087594191591" r="9.215193984228991" fill="#C92A2A" stroke="#800000" stroke-width="1" />
<circle cx="36.23509170619159" cy="69.98245026155804" r="0.9980336678512355" fill="#FFA07A" fill-opacity="0.7" />
<circle cx="35.84306384891089" cy="70.72450051362127" r="0.5566845085583791" fill="#FFA07A" fill-opacity="0.7" />
<circle cx="39.21122930870433" cy="74.12836177051322" r="1.0595891117746015" fill="#FFA07A" fill-opacity="0.7" />
<circle cx="45.264893565685554" cy="148.59298542180733" r="10.43661854027178" fill="#C92A2A" stroke="#800000" stroke-width="1" />
<circle cx="44.081206904456266" cy="153.76317204075858" r="0.9166706206239665" fill="#FFA07A" fill-opacity="0.7" />
<circle cx="49.474634388691996" cy="151.64103709942498" r="1.1699435159828424" fill="#FFA07A" fill-opacity="0.7" />
<circle cx="43.11119424422147" cy="149.17016528658056" r="0.9362429003622266" fill="#FFA07A" fill-opacity="0.7" />
<circle cx="49.85958431412028" cy="154.2898602925351" r="0.6876617277667648" fill="#FFA07A" fill-opacity="0.7" />
<circle cx="40.18877735388142" cy="148.65110899275376" r="1.466866763265664" fill="#FFA07A" fill-opacity="0.7" />
<circle cx="50.07465826586467" cy="147.6414625940428" r="0.5879566980611952" fill="#FFA07A" fill-opacity="0.7" />
<circle cx="56.41251773535043" cy="93.89361485844752" r="9.676406837179291" fill="#C92A2A" stroke="#800000" stroke-width="1" />
<circle cx="62.072968114937176" cy="91.40678075013447" r="1.1037043392507417" fill="#FFA07A" fill-opacity="0.7" />
<circle cx="51.63730326395918" cy="97.03608218681933" r="0.8206112656173112" fill="#FFA07A" fill-opacity="0.7" />
<circle cx="59.83713917738436" cy="93.39442250070995" r="1.158274202217235" fill="#FFA07A" fill-opacity="0.7" />
<circle cx="57.30059033086838" cy="94.14221466194013" r="0.8845032202733069" fill="#FFA07A" fill-opacity="0.7" />
<circle cx="52.06873110044328" cy="94.78626157127695" r="1.3521469365471732" fill="#FFA07A" fill-opacity="0.7" />
<circle cx="37.19583426110228" cy="68.07211415344081" r="11.67612389788692" fill="#C92A2A" stroke="#800000" stroke-width="1" />
<circle cx="35.10706326283723" cy="68.92740938833616" r="1.3817273703931159" fill="#FFA07A" fill-opacity="0.7" />
<circle cx="39.66920303078162" cy="69.29126740510878" r="1.3137519110332507" fill="#FFA07A" fill-opacity="0.7" />
<circle cx="32.56643142150051" cy="70.26253937218567" r="1.4793829831371075" fill="#FFA07A" fill-opacity="0.7" />
<circle cx="33.65868430682699" cy="67.30985960836497" r="0.6798777233737647" fill="#FFA07A" fill-opacity="0.7" />
<circle cx="42.30651796332721" cy="66.26535002318171" r="1.014064508965269" fill="#FFA07A" fill-opacity="0.7" />
<circle cx="101.80825562827154" cy="116.5526928281393" r="9.596230733250879" fill="#C92A2A" stroke="#800000" stroke-width="1" />
<circle cx="103.29479022847187" cy="112.56086469338682" r="0.751332237908732" fill="#FFA07A" fill-opacity="0.7" />
<circle cx="106.80929924945038" cy="117.91507839022293" r="0.6748601026956442" fill="#FFA07A" fill-opacity="0.7" />
<circle cx="105.32102199244513" cy="122.18695320179701" r="0.6591882945398584" fill="#FFA07A" fill-opacity="0.7" />
<circle cx="104.69830173485661" cy="165.58958132057091" r="9.931559671516442" fill="#C92A2A" stroke="#800000" stroke-width="1" />
<circle cx="103.36232567246952" cy="160.68660323660305" r="0.62700260712987" fill="#FFA07A" fill-opacity="0.7" />
<circle cx="108.77146782724489" cy="160.11611673071766" r="1.4956551070018318" fill="#FFA07A" fill-opacity="0.7" />
<circle cx="102.48713425588666" cy="169.3428087526026" r="1.0025347403888816" fill="#FFA07A" fill-opacity="0.7" />
<circle cx="63.13884386512378" cy="79.96891970127997" r="11.69698298963994" fill="#C92A2A" stroke="#800000" stroke-width="1" />
<circle cx="60.63426215147053" cy="81.32243588097575" r="0.5916745826475854" fill="#FFA07A" fill-opacity="0.7" />
<circle cx="67.05090251540426" cy="79.61429116995612" r="1.4387461157019594" fill="#FFA07A" fill-opacity="0.7" />
<circle cx="60.329870320844165" cy="83.26235767176372" r="0.5681422880379821" fill="#FFA07A" fill-opacity="0.7" />
<circle cx="57.367864249813906" cy="80.82803880323787" r="0.9114600800985116" fill="#FFA07A" fill-opacity="0.7" />
<circle cx="114.61419347145342" cy="179.19221613891148" r="10.585311927139424" fill="#C92A2A" stroke="#800000" stroke-width="1" />
<circle cx="111.58865266296388" cy="182.76562605630969" r="0.8832639610780355" fill="#FFA07A" fill-opacity="0.7" />
<circle cx="112.68003983458885" cy="182.58625196443091" r="0.9646798032501612" fill="#FFA07A" fill-opacity="0.7" />
<circle cx="119.6333710056979" cy="179.2719822642115" r="0.5631502768766484" fill="#FFA07A" fill-opacity="0.7" />
<circle cx="108.75683271865472" cy="174.71569020835915" r="1.025611596125267" fill="#FFA07A" fill-opacity="0.7" />
<circle cx="83.37307926989888" cy="63.67161050161998" r="11.494062210955363" fill="#C92A2A" stroke="#800000" stroke-width="1" />
<circle cx="82.38211750827679" cy="68.43064082806092" r="1.0057134942427723" fill="#FFA07A" fill-opacity="0.7" />
<circle cx="83.13456275483553" cy="59.426695223574086" r="0.6635640715740998" fill="#FFA07A" fill-opacity="0.7" />
<circle cx="80.6869879639576" cy="59.17527101197501" r="1.0085911357563142" fill="#FFA07A" fill-opacity="0.7" />
<circle cx="87.32372876312562" cy="63.23104521320749" r="0.7468387797606001" fill="#FFA07A" fill-opacity="0.7" />
<circle cx="84.11647781910155" cy="67.7247279082886" r="1.1525583795110925" fill="#FFA07A" fill-opacity="0.7" />
</g>
<path d="M105.0,105.0 L105.0,205.0 A100,100,0,0,1,5.0,105.00000000000001 Z" fill="#F5C754" stroke="lightgray" stroke-width="2" />
<use xlink:href="#clip-4557139920-4568952400" />
<g clip-path="url(#clip-4557139920-4568952400)">
<circle cx="105.0" cy="105.0" r="92" stroke="#DAA05D" stroke-width="16" fill="none" />
<circle cx="105.0" cy="105.0" r="98" stroke="#C37B32" stroke-width="5" fill="none" />
<circle cx="179.37332336013824" cy="112.05863590907713" r="4.859012952471742" fill="#8B4513" fill-opacity="0.3242822972794741" />
<circle cx="46.78714867525614" cy="141.77213685028343" r="4.311282609949494" fill="#FFDE75" fill-opacity="0.5253742258016685" />
<circle cx="36.537707487927506" cy="89.7638936885186" r="4.3590936341408515" fill="#D2691E" fill-opacity="0.27836650999569607" />
<circle cx="93.38847274104418" cy="24.46599915900501" r="3.119607826245298" fill="#FFFFFF" fill-opacity="0.24004581985753332" />
<circle cx="45.22826758620065" cy="143.53337329735962" r="5.979631213068721" fill="#FFDE75" fill-opacity="0.26686892371128584" />
<circle cx="75.40065124078927" cy="56.28713528727615" r="3.809409914046197" fill="#FFDE75" fill-opacity="0.480920666723725" />
<circle cx="106.88750625092796" cy="164.0896087373041" r="5.3203284608737444" fill="#8B4513" fill-opacity="0.23316961281314705" />
<circle cx="57.55896661033747" cy="112.60111523083476" r="5.240071672215103" fill="#FFFFFF" fill-opacity="0.4347186628729177" />
<circle cx="185.47682314788062" cy="82.49920420761163" r="5.496554993676979" fill="#FFDE75" fill-opacity="0.5136079126981163" />
<circle cx="102.69690264365471" cy="86.8524768562559" r="4.895684445561505" fill="#8B4513" fill-opacity="0.20340301560163965" />
<circle cx="44.66289486264198" cy="74.57098643740251" r="5.135105000939737" fill="#D2691E" fill-opacity="0.33227589231728605" />
<circle cx="52.22065801275023" cy="54.001049682026796" r="5.7831935294805525" fill="#FFDE75" fill-opacity="0.2539097219639872" />
<circle cx="105.01377962706107" cy="110.41459620877517" r="2.2727465992741465" fill="#FFFFFF" fill-opacity="0.5076517937269212" />
<circle cx="81.86173755227586" cy="154.84232658405142" r="5.8838655702825715" fill="#8B4513" fill-opacity="0.20235926922080055" />
<circle cx="162.96447537038856" cy="102.78483908487792" r="3.236956267351365" fill="#FFFFFF" fill-opacity="0.4365349453436629" />
<circle cx="50.007739992908576" cy="97.69823529554836" r="2.473798956983789" fill="#8B4513" fill-opacity="0.22839895648424102" />
<circle cx="87.71515017934773" cy="41.92601865767211" r="2.0981797801560225" fill="#D2691E" fill-opacity="0.5058763918373632" />
<circle cx="87.07404892138192" cy="79.8590674349656" r="2.539842083881188" fill="#FFDE75" fill-opacity="0.4918274423606162" />
<circle cx="123.333475026095" cy="136.60541940241148" r="5.063091569810767" fill="#8B4513" fill-opacity="0.22406595322165346" />
<circle cx="51.56426929777452" cy="161.6347431183316" r="3.1531754048832954" fill="#FFFFFF" fill-opacity="0.48411179241944" />
<circle cx="180.56288651948216" cy="121.96527899853982" r="3.1549613304299498" fill="#8B4513" fill-opacity="0.505169236574587" />
<circle cx="108.40995926819646" cy="145.5827774529394" r="5.179764996758289" fill="#FFFFFF" fill-opacity="0.22806994868086525" />
<circle cx="59.21505579152075" cy="49.75739685374163" r="4.073873664989758" fill="#D2691E" fill-opacity="0.2581348029494102" />
<circle cx="136.91174582419853" cy="95.30239674292609" r="2.6690317704420132" fill="#FFFFFF" fill-opacity="0.3506449477954763" />
<circle cx="131.84619688868796" cy="82.64881708144247" r="3.262391736205485" fill="#D2691E" fill-opacity="0.2306435254958649" />
<circle cx="183.6082741413606" cy="110.28293923622527" r="2.1893651966189145" fill="#8B4513" fill-opacity="0.4408900728464087" />
<circle cx="122.53192301246114" cy="28.244540436818994" r="4.753245377489139" fill="#8B4513" fill-opacity="0.2944006792428774" />
<circle cx="169.020221240516" cy="119.91280360997098" r="4.3190648797323865" fill="#D2691E" fill-opacity="0.3554752947199019" />
<circle cx="59.42017208250359" cy="133.91251946053012" r="5.112373459878754" fill="#D2691E" fill-opacity="0.2425978942635586" />
<circle cx="169.09183045713354" cy="103.33657305204154" r="4.149781671729551" fill="#D2691E" fill-opacity="0.21592914883420314" />
<circle cx="138.25746367351124" cy="136.0829040981732" r="4.9051691058393425" fill="#8B4513" fill-opacity="0.23681131174157768" />
<circle cx="78.9154300453145" cy="66.57709555031758" r="5.176108306286584" fill="#FFFFFF" fill-opacity="0.5752938603419446" />
<circle cx="153.86002736159782" cy="126.60608276844638" r="4.807052128615365" fill="#8B4513" fill-opacity="0.21651883800061844" />
<circle cx="181.43425678924297" cy="139.09777907062792" r="5.3903922974187335" fill="#D2691E" fill-opacity="0.2465779865072006" />
<circle cx="92.23644878220679" cy="38.18775619865498" r="3.8196472195614737" fill="#FFFFFF" fill-opacity="0.3630496440412733" />
<circle cx="158.5723892730953" cy="90.82243787006819" r="2.145881100092581" fill="#D2691E" fill-opacity="0.4193216431128932" />
<circle cx="159.86962034289132" cy="169.18799261019086" r="5.963078870811432" fill="#FFFFFF" fill-opacity="0.2405954114448553" />
<circle cx="59.31712869132297" cy="141.96780331925342" r="4.459117168032028" fill="#FFFFFF" fill-opacity="0.2417225827255457" />
<circle cx="93.67018870763066" cy="86.01586406672145" r="4.124769379773902" fill="#D2691E" fill-opacity="0.30868745152900495" />
<circle cx="158.94110060884026" cy="123.15955412198743" r="5.7423723117122805" fill="#8B4513" fill-opacity="0.47515344096892265" />
<circle cx="159.0814388953205" cy="90.83847473613697" r="3.227344384167601" fill="#FFFFFF" fill-opacity="0.2486814501997031" />
<circle cx="87.3587691179402" cy="51.27447688965789" r="3.680152836254788" fill="#FFDE75" fill-opacity="0.4913200005335056" />
<circle cx="128.12917490915223" cy="143.66427774673593" r="5.379368912313534" fill="#FFDE75" fill-opacity="0.4246753026785941" />
<circle cx="54.85541048641326" cy="80.19496494825083" r="4.8924244360917974" fill="#FFDE75" fill-opacity="0.5367280921428133" />
<circle cx="46.78068721477937" cy="84.84342489743037" r="5.814501906495639" fill="#FFFFFF" fill-opacity="0.40562727757750267" />
<circle cx="109.60805280688655" cy="42.5737368892263" r="9.734486704054163" fill="#C92A2A" stroke="#800000" stroke-width="1" />
<circle cx="107.01789817155554" cy="45.69026612298879" r="1.054169363461676" fill="#FFA07A" fill-opacity="0.7" />
<circle cx="106.55305299950118" cy="38.98788166333756" r="1.1214888990363399" fill="#FFA07A" fill-opacity="0.7" />
<circle cx="112.00397362009996" cy="41.22531741833484" r="1.4354161711286317" fill="#FFA07A" fill-opacity="0.7" />
<circle cx="105.28119318690536" cy="38.9305959829757" r="1.0842397081675115" fill="#FFA07A" fill-opacity="0.7" />
<circle cx="104.61257107806655" cy="42.09218162475188" r="1.4276245650915174" fill="#FFA07A" fill-opacity="0.7" />
<circle cx="115.4434180825535" cy="103.23073481188526" r="10.827797856802286" fill="#C92A2A" stroke="#800000" stroke-width="1" />
<circle cx="119.07693040734272" cy="101.45887376718446" r="0.8495623468890207" fill="#FFA07A" fill-opacity="0.7" />
<circle cx="116.96396768086336" cy="103.77822402576837" r="1.0075473718784056" fill="#FFA07A" fill-opacity="0.7" />
<circle cx="109.5693297119443" cy="102.02893036938627" r="0.9317680056230966" fill="#FFA07A" fill-opacity="0.7" />
<circle cx="109.4807722893867" cy="107.05163160252478" r="1.4242217291821702" fill="#FFA07A" fill-opacity="0.7" />
<circle cx="117.92788472121437" cy="105.4779848584751" r="0.6784827739978796" fill="#FFA07A" fill-opacity="0.7" />
<circle cx="109.55097098220051" cy="102.56149322054456" r="0.6873704782899234" fill="#FFA07A" fill-opacity="0.7" />
<circle cx="120.1440068418657" cy="100.0529695147482" r="0.6885259401603121" fill="#FFA07A" fill-opacity="0.7" />
<circle cx="60.096764858287315" cy="42.92612670725638" r="10.061452712119682" fill="#C92A2A" stroke="#800000" stroke-width="1" />
<circle cx="62.529919747649075" cy="45.24050871333688" r="0.7560095281207673" fill="#FFA07A" fill-opacity="0.7" />
<circle cx="58.336425316515324" cy="45.84287545958242" r="1.0057036758372324" fill="#FFA07A" fill-opacity="0.7" />
<circle cx="54.880862418840245" cy="48.30245505893547" r="0.5628163094973837" fill="#FFA07A" fill-opacity="0.7" />
<circle cx="60.14037486471733" cy="48.17343560820431" r="0.8714078308704688" fill="#FFA07A" fill-opacity="0.7" />
<circle cx="41.5135140771683" cy="74.70087594191591" r="9.215193984228991" fill="#C92A2A" stroke="#800000" stroke-width="1" />
<circle cx="36.23509170619159" cy="69.98245026155804" r="0.9980336678512355" fill="#FFA07A" fill-opacity="0.7" />
<circle cx="35.84306384891089" cy="70.72450051362127" r="0.5566845085583791" fill="#FFA07A" fill-opacity="0.7" />
<circle cx="39.21122930870433" cy="74.12836177051322" r="1.0595891117746015" fill="#FFA07A" fill-opacity="0.7" />
<circle cx="45.264893565685554" cy="148.59298542180733" r="10.43661854027178" fill="#C92A2A" stroke="#800000" stroke-width="1" />
<circle cx="44.081206904456266" cy="153.76317204075858" r="0.9166706206239665" fill="#FFA07A" fill-opacity="0.7" />
<circle cx="49.474634388691996" cy="151.64103709942498" r="1.1699435159828424" fill="#FFA07A" fill-opacity="0.7" />
<circle cx="43.11119424422147" cy="149.17016528658056" r="0.9362429003622266" fill="#FFA07A" fill-opacity="0.7" />
<circle cx="49.85958431412028" cy="154.2898602925351" r="0.6876617277667648" fill="#FFA07A" fill-opacity="0.7" />
<circle cx="40.18877735388142" cy="148.65110899275376" r="1.466866763265664" fill="#FFA07A" fill-opacity="0.7" />
<circle cx="50.07465826586467" cy="147.6414625940428" r="0.5879566980611952" fill="#FFA07A" fill-opacity="0.7" />
<circle cx="56.41251773535043" cy="93.89361485844752" r="9.676406837179291" fill="#C92A2A" stroke="#800000" stroke-width="1" />
<circle cx="62.072968114937176" cy="91.40678075013447" r="1.1037043392507417" fill="#FFA07A" fill-opacity="0.7" />
<circle cx="51.63730326395918" cy="97.03608218681933" r="0.8206112656173112" fill="#FFA07A" fill-opacity="0.7" />
<circle cx="59.83713917738436" cy="93.39442250070995" r="1.158274202217235" fill="#FFA07A" fill-opacity="0.7" />
<circle cx="57.30059033086838" cy="94.14221466194013" r="0.8845032202733069" fill="#FFA07A" fill-opacity="0.7" />
<circle cx="52.06873110044328" cy="94.78626157127695" r="1.3521469365471732" fill="#FFA07A" fill-opacity="0.7" />
<circle cx="37.19583426110228" cy="68.07211415344081" r="11.67612389788692" fill="#C92A2A" stroke="#800000" stroke-width="1" />
<circle cx="35.10706326283723" cy="68.92740938833616" r="1.3817273703931159" fill="#FFA07A" fill-opacity="0.7" />
<circle cx="39.66920303078162" cy="69.29126740510878" r="1.3137519110332507" fill="#FFA07A" fill-opacity="0.7" />
<circle cx="32.56643142150051" cy="70.26253937218567" r="1.4793829831371075" fill="#FFA07A" fill-opacity="0.7" />
<circle cx="33.65868430682699" cy="67.30985960836497" r="0.6798777233737647" fill="#FFA07A" fill-opacity="0.7" />
<circle cx="42.30651796332721" cy="66.26535002318171" r="1.014064508965269" fill="#FFA07A" fill-opacity="0.7" />
<circle cx="101.80825562827154" cy="116.5526928281393" r="9.596230733250879" fill="#C92A2A" stroke="#800000" stroke-width="1" />
<circle cx="103.29479022847187" cy="112.56086469338682" r="0.751332237908732" fill="#FFA07A" fill-opacity="0.7" />
<circle cx="106.80929924945038" cy="117.91507839022293" r="0.6748601026956442" fill="#FFA07A" fill-opacity="0.7" />
<circle cx="105.32102199244513" cy="122.18695320179701" r="0.6591882945398584" fill="#FFA07A" fill-opacity="0.7" />
<circle cx="104.69830173485661" cy="165.58958132057091" r="9.931559671516442" fill="#C92A2A" stroke="#800000" stroke-width="1" />
<circle cx="103.36232567246952" cy="160.68660323660305" r="0.62700260712987" fill="#FFA07A" fill-opacity="0.7" />
<circle cx="108.77146782724489" cy="160.11611673071766" r="1.4956551070018318" fill="#FFA07A" fill-opacity="0.7" />
<circle cx="102.48713425588666" cy="169.3428087526026" r="1.0025347403888816" fill="#FFA07A" fill-opacity="0.7" />
<circle cx="63.13884386512378" cy="79.96891970127997" r="11.69698298963994" fill="#C92A2A" stroke="#800000" stroke-width="1" />
<circle cx="60.63426215147053" cy="81.32243588097575" r="0.5916745826475854" fill="#FFA07A" fill-opacity="0.7" />
<circle cx="67.05090251540426" cy="79.61429116995612" r="1.4387461157019594" fill="#FFA07A" fill-opacity="0.7" />
<circle cx="60.329870320844165" cy="83.26235767176372" r="0.5681422880379821" fill="#FFA07A" fill-opacity="0.7" />
<circle cx="57.367864249813906" cy="80.82803880323787" r="0.9114600800985116" fill="#FFA07A" fill-opacity="0.7" />
<circle cx="114.61419347145342" cy="179.19221613891148" r="10.585311927139424" fill="#C92A2A" stroke="#800000" stroke-width="1" />
<circle cx="111.58865266296388" cy="182.76562605630969" r="0.8832639610780355" fill="#FFA07A" fill-opacity="0.7" />
<circle cx="112.68003983458885" cy="182.58625196443091" r="0.9646798032501612" fill="#FFA07A" fill-opacity="0.7" />
<circle cx="119.6333710056979" cy="179.2719822642115" r="0.5631502768766484" fill="#FFA07A" fill-opacity="0.7" />
<circle cx="108.75683271865472" cy="174.71569020835915" r="1.025611596125267" fill="#FFA07A" fill-opacity="0.7" />
<circle cx="83.37307926989888" cy="63.67161050161998" r="11.494062210955363" fill="#C92A2A" stroke="#800000" stroke-width="1" />
<circle cx="82.38211750827679" cy="68.43064082806092" r="1.0057134942427723" fill="#FFA07A" fill-opacity="0.7" />
<circle cx="83.13456275483553" cy="59.426695223574086" r="0.6635640715740998" fill="#FFA07A" fill-opacity="0.7" />
<circle cx="80.6869879639576" cy="59.17527101197501" r="1.0085911357563142" fill="#FFA07A" fill-opacity="0.7" />
<circle cx="87.32372876312562" cy="63.23104521320749" r="0.7468387797606001" fill="#FFA07A" fill-opacity="0.7" />
<circle cx="84.11647781910155" cy="67.7247279082886" r="1.1525583795110925" fill="#FFA07A" fill-opacity="0.7" />
</g>
<rect x="230.0" y="41.0" width="54.0" height="54.0" fill="none" stroke="black" stroke-width="2" />
<rect x="230.0" y="115.0" width="54.0" height="54.0" fill="none" stroke="black" stroke-width="2" />
<path d="M225.0,105.0 L289.0,105.0" stroke="black" stroke-width="2" />
</g>
</svg>
</svg>