<svg width="678.0" height="210.0" xmlns="http://www.w3.org/2000/svg" xmlns:xlink="http://www.w3.org/1999/xlink">
<svg x="0.0" y="0.0" width="284.0" height="210.0" viewBox="0 0 284.0 210" xmlns="http://www.w3.org/2000/svg" xmlns:xlink="http://www.w3.org/1999/xlink">
<defs>
<clipPath id="clip-4535154992-4471970384">
<path d="M105.0,105.0 L105.0,5.0 A100,100,0,0,1,105.0,205.0 Z" fill="none" />
</clipPath>
</defs>
<g>
<path d="M105.0,105.0 L105.0,5.0 A100,100,0,0,1,105.0,205.0 Z" fill="none" stroke="lightgray" stroke-width="2" />
<path d="M105.0,105.0 L105.0,205.0 A100,100,0,0,1,104.99999999999999,5.0 Z" fill="none" stroke="lightgray" stroke-width="2" />
<path d="M105.0,105.0 L105.0,5.0 A100,100,0,0,1,105.0,205.0 Z" fill="#F5C754" stroke="lightgray" stroke-width="2" />
<use xlink:href="#clip-4535154992-4471970384" />
<g clip-path="url(#clip-4535154992-4471970384)">
<circle cx="105.0" cy="105.0" r="92" stroke="#DAA05D" stroke-width="16" fill="none" />
<circle cx="105.0" cy="105.0" r="98" stroke="#C37B32" stroke-width="5" fill="none" />
<circle cx="49.264235214187934" cy="155.7186708276339" r="4.390497648020066" fill="#D2691E" fill-opacity="0.5313474892741239" />
<circle cx="77.5489623439998" cy="65.62220957655623" r="4.647985517982011" fill="#FFFFFF" fill-opacity="0.3906690817659729" />
<circle cx="127.2109144544239" cy="51.540202597922445" r="3.5816311228076954" fill="#D2691E" fill-opacity="0.5632066200338385" />
<circle cx="136.83661501946537" cy="117.56494354579002" r="2.2295058033769326" fill="#FFFFFF" fill-opacity="0.23473214581009563" />
<circle cx="134.29575056600197" cy="179.18092191886043" r="4.425853836273845" fill="#FFFFFF" fill-opacity="0.4534455573872835" />
<circle cx="71.6159374641639" cy="129.3795118000946" r="5.760581600809491" fill="#FFDE75" fill-opacity="0.24374770564004572" />
<circle cx="129.2578214484474" cy="119.42324086915451" r="3.7208527642631752" fill="#8B4513" fill-opacity="0.3732800498266079" />
<circle cx="46.32525804281014" cy="104.84033510263183" r="2.509308265659018" fill="#FFDE75" fill-opacity="0.5848136307089271" />
<circle cx="62.54688775029829" cy="67.90327883078982" r="3.4535748863224462" fill="#FFDE75" fill-opacity="0.20999053587385497" />
<circle cx="37.303259485919526" cy="118.47772883536527" r="5.441079154320356" fill="#FFDE75" fill-opacity="0.5072538590473146" />
<circle cx="111.42305857477514" cy="45.723131162016195" r="2.612280023762479" fill="#FFDE75" fill-opacity="0.4282036505397876" />
<circle cx="50.46054181360201" cy="134.5401765218288" r="2.3121910500553704" fill="#FFDE75" fill-opacity="0.2001740709553179" />
<circle cx="65.68228775727546" cy="77.68880864589215" r="5.862606880019301" fill="#FFDE75" fill-opacity="0.49799702164651244" />
<circle cx="127.51021931410932" cy="102.23336720318386" r="3.4509347013691345" fill="#8B4513" fill-opacity="0.4419182774198239" />
<circle cx="112.81937573380787" cy="181.99410147325682" r="4.244813460892011" fill="#D2691E" fill-opacity="0.36027847106839084" />
<ellipse cx="108.15228952864037" cy="65.24516551501169" rx="5.442476660221269" ry="4.477586408481978" fill="#FFFDF0" fill-opacity="0.6" />
<ellipse cx="108.34533537623545" cy="66.06770196370123" rx="2.3705238137201436" ry="2.5094737538192105" fill="#FFFFFF" fill-opacity="0.85" />
<ellipse cx="128.98205585281718" cy="173.43826101765825" rx="6.016369397581601" ry="4.105555421698496" fill="#FFFDF0" fill-opacity="0.6" />
<ellipse cx="128.47051017505115" cy="174.159704070229" rx="4.689143571423891" ry="2.1229916363477406" fill="#FFFFFF" fill-opacity="0.85" />
<ellipse cx="91.1220391111796" cy="126.82077277646033" rx="9.869154074620104" ry="6.910556055801086" fill="#FFFDF0" fill-opacity="0.6" />
<ellipse cx="91.1663185045811" cy="127.36779541276118" rx="3.3746261634714783" ry="2.572927205696126" fill="#FFFFFF" fill-opacity="0.85" />
</g>
<rect x="230.0" y="41.0" width="54.0" height="54.0" fill="none" stroke="black" stroke-width="2" />
<rect x="230.0" y="115.0" width="54.0" height="54.0" fill="none" stroke="black" stroke-width="2" />
<path d="M225.0,105.0 L289.0,105.0" stroke="black" stroke-width="2" />
<text x="257.0" y="68.0" font-size="36" font-family="Comic Sans MS, Comic Sans, cursive" dominant-baseline="middle" fill="black" text-anchor="middle">1</text>
<text x="257.0" y="142.0" font-size="36" font-family="Comic Sans MS, Comic Sans, cursive" dominant-baseline="middle" fill="black" text-anchor="middle">2</text>
</g>
</svg>
<rect x="299.0" y="65.0" width="80" height="80" fill="none" stroke="black" stroke-width="1.5"/>
<svg x="394.0" y="0.0" width="284.0" height="210.0" viewBox="0 0 284.0 210" xmlns="http://www.w3.org/2000/svg" xmlns:xlink="http://www.w3.org/1999/xlink">
<defs>
<clipPath id="clip-4535154096-4535002576">
<path d="M105.0,105.0 L105.0,5.0 A100,100,0,0,1,191.60254037844388,155.0 Z" fill="none" />
</clipPath>
</defs>
<g>
<path d="M105.0,105.0 L105.0,5.0 A100,100,0,0,1,191.60254037844388,155.0 Z" fill="none" stroke="lightgray" stroke-width="2" />
<path d="M105.0,105.0 L191.60254037844388,155.0 A100,100,0,0,1,18.397459621556123,155.0 Z" fill="none" stroke="lightgray" stroke-width="2" />
<path d="M105.0,105.0 L18.397459621556123,155.0 A100,100,0,0,1,104.99999999999999,5.0 Z" fill="none" stroke="lightgray" stroke-width="2" />
<path d="M105.0,105.0 L105.0,5.0 A100,100,0,0,1,191.60254037844388,155.0 Z" fill="#F5C754" stroke="lightgray" stroke-width="2" />
<use xlink:href="#clip-4535154096-4535002576" />
<g clip-path="url(#clip-4535154096-4535002576)">
<circle cx="105.0" cy="105.0" r="92" stroke="#DAA05D" stroke-width="16" fill="none" />
<circle cx="105.0" cy="105.0" r="98" stroke="#C37B32" stroke-width="5" fill="none" />
<circle cx="70.93837600524708" cy="168.2638350928311" r="2.180265403653587" fill="#FFFFFF" fill-opacity="0.35513885729541866" />
<circle cx="48.00992901566362" cy="138.0326528935551" r="5.58295275489048" fill="#FFDE75" fill-opacity="0.29021148655874873" />
<circle cx="187.41396443072506" cy="86.46707781793002" r="3.3392669949797193" fill="#FFDE75" fill-opacity="0.5397600170241073" />
<circle cx="179.02322374334813" cy="110.47430735606376" r="3.190942532485254" fill="#D2691E" fill-opacity="0.48247056055065013" />
<circle cx="173.02765322468412" cy="137.37512742966913" r="5.862775001204595" fill="#8B4513" fill-opacity="0.4002829792802422" />
<circle cx="141.8510939291417" cy="65.54653907888257" r="2.5159618753236153" fill="#FFDE75" fill-opacity="0.43929017892596567" />
<circle cx="171.94340572380162" cy="156.14483360991207" r="5.6697791710079315" fill="#FFDE75" fill-opacity="0.5846524991614412" />
<circle cx="168.65453014345525" cy="51.155432350741336" r="2.805798172435963" fill="#D2691E" fill-opacity="0.27975031770509556" />
<circle cx="70.51653644595073" cy="40.53797297963622" r="2.2073779135627745" fill="#FFDE75" fill-opacity="0.42926193733916634" />
<circle cx="128.59747739240615" cy="48.74438721327334" r="4.099369759080517" fill="#8B4513" fill-opacity="0.5710347843416987" />
<circle cx="134.23949733506367" cy="122.059564192026" r="5.603211303880329" fill="#FFDE75" fill-opacity="0.3934816034246173" />
<circle cx="103.47127810380452" cy="165.66902942434723" r="2.411291651788255" fill="#FFDE75" fill-opacity="0.2765326158003901" />
<circle cx="104.21618437044346" cy="119.04908671811337" r="4.690478875381839" fill="#FFDE75" fill-opacity="0.5763604680512734" />
<circle cx="144.90817933033355" cy="154.53494908398963" r="3.9611497953710764" fill="#FFDE75" fill-opacity="0.4806712844104758" />
<circle cx="78.28903246069675" cy="145.53876312497331" r="4.14075760206828" fill="#D2691E" fill-opacity="0.281838314485129" />
<ellipse cx="47.25618994518511" cy="62.42156412011415" rx="8.90130138458248" ry="6.233351794332535" fill="#FFFDF0" fill-opacity="0.6" />
<ellipse cx="48.06470867960463" cy="61.60006645241702" rx="4.675096427606808" ry="3.8181655713388594" fill="#FFFFFF" fill-opacity="0.85" />
<ellipse cx="177.593215155288" cy="77.78935027270425" rx="6.224822513097697" ry="4.566083080425704" fill="#FFFDF0" fill-opacity="0.6" />
<ellipse cx="177.93495581150904" cy="78.66774222258026" rx="3.3639376018031193" ry="3.829370090003513" fill="#FFFFFF" fill-opacity="0.85" />
<ellipse cx="102.44009585089887" cy="100.94485174958814" rx="8.94716326918827" ry="8.945942760830398" fill="#FFFDF0" fill-opacity="0.6" />
<ellipse cx="102.37420872880858" cy="101.13305380190133" rx="3.6339166386054482" ry="2.2838827651968145" fill="#FFFFFF" fill-opacity="0.85" />
</g>
<rect x="230.0" y="41.0" width="54.0" height="54.0" fill="none" stroke="black" stroke-width="2" />
<rect x="230.0" y="115.0" width="54.0" height="54.0" fill="none" stroke="black" stroke-width="2" />
<path d="M225.0,105.0 L289.0,105.0" stroke="black" stroke-width="2" />
<text x="257.0" y="68.0" font-size="36" font-family="Comic Sans MS, Comic Sans, cursive" dominant-baseline="middle" fill="black" text-anchor="middle">1</text>
<text x="257.0" y="142.0" font-size="36" font-family="Comic Sans MS, Comic Sans, cursive" dominant-baseline="middle" fill="black" text-anchor="middle">3</text>
</g>
</svg>
</svg>