<svg width="678.0" height="210.0" xmlns="http://www.w3.org/2000/svg" xmlns:xlink="http://www.w3.org/1999/xlink">
<svg x="0.0" y="0.0" width="284.0" height="210.0" viewBox="0 0 284.0 210" xmlns="http://www.w3.org/2000/svg" xmlns:xlink="http://www.w3.org/1999/xlink">
<defs>
<clipPath id="clip-4504295120-4568448464">
<path d="M105.0,105.0 L105.0,5.0 A100,100,0,0,1,205.0,105.0 Z" fill="none" />
</clipPath>
<clipPath id="clip-4504295120-4568439120">
<path d="M105.0,105.0 L205.0,105.0 A100,100,0,0,1,105.0,205.0 Z" fill="none" />
</clipPath>
</defs>
<g>
<path d="M105.0,105.0 L105.0,5.0 A100,100,0,0,1,205.0,105.0 Z" fill="none" stroke="lightgray" stroke-width="2" />
<path d="M105.0,105.0 L205.0,105.0 A100,100,0,0,1,105.0,205.0 Z" fill="none" stroke="lightgray" stroke-width="2" />
<path d="M105.0,105.0 L105.0,205.0 A100,100,0,0,1,5.0,105.00000000000001 Z" fill="none" stroke="lightgray" stroke-width="2" />
<path d="M105.0,105.0 L5.0,105.00000000000001 A100,100,0,0,1,104.99999999999999,5.0 Z" fill="none" stroke="lightgray" stroke-width="2" />
<path d="M105.0,105.0 L105.0,5.0 A100,100,0,0,1,205.0,105.0 Z" fill="#F5C754" stroke="lightgray" stroke-width="2" />
<use xlink:href="#clip-4504295120-4568448464" />
<g clip-path="url(#clip-4504295120-4568448464)">
<circle cx="105.0" cy="105.0" r="92" stroke="#DAA05D" stroke-width="16" fill="none" />
<circle cx="105.0" cy="105.0" r="98" stroke="#C37B32" stroke-width="5" fill="none" />
<circle cx="112.09224601323687" cy="32.447918236366775" r="4.61968621690529" fill="#FFDE75" fill-opacity="0.21152939125347958" />
<circle cx="165.65890220650306" cy="141.53688434841595" r="3.3506442466403894" fill="#8B4513" fill-opacity="0.22868359518503567" />
<circle cx="88.11276432570115" cy="37.227370597984944" r="4.348937766450863" fill="#FFDE75" fill-opacity="0.2029145510509816" />
<circle cx="63.09231776668627" cy="155.28676856505737" r="3.671402164262553" fill="#FFFFFF" fill-opacity="0.4243288926035138" />
<circle cx="41.97066075837939" cy="88.85146789111049" r="3.577096898736098" fill="#FFDE75" fill-opacity="0.5257651238524886" />
<circle cx="56.59362217295125" cy="138.84878407460977" r="5.29933330491823" fill="#FFFFFF" fill-opacity="0.41613631965207065" />
<circle cx="113.94024517350928" cy="162.82281843713943" r="3.917194936065983" fill="#D2691E" fill-opacity="0.44894583792501586" />
<circle cx="136.6945799333773" cy="121.85783666745307" r="2.407699026569275" fill="#FFDE75" fill-opacity="0.2625279916980531" />
<circle cx="122.53693465998577" cy="174.7303091011761" r="2.9167893668686675" fill="#FFDE75" fill-opacity="0.34307115137683153" />
<circle cx="133.6310933297535" cy="143.89195890650313" r="5.042769448747771" fill="#8B4513" fill-opacity="0.34777473185800895" />
<circle cx="168.8141648303809" cy="142.57179387544852" r="5.595166193747261" fill="#D2691E" fill-opacity="0.21572783880124305" />
<circle cx="52.14584173145478" cy="157.23461337616368" r="4.983146365007215" fill="#8B4513" fill-opacity="0.41395494387885967" />
<circle cx="69.69851904184834" cy="144.1483458762365" r="4.555451724067627" fill="#8B4513" fill-opacity="0.29441234969942587" />
<circle cx="94.1520891655187" cy="65.7869459766915" r="4.786568033698935" fill="#D2691E" fill-opacity="0.5211432832737262" />
<circle cx="74.03153629610676" cy="128.2666069867374" r="3.785243819510722" fill="#D2691E" fill-opacity="0.33749774434510516" />
<circle cx="114.24530936414774" cy="95.19544075406874" r="5.191575732723348" fill="#FFDE75" fill-opacity="0.2137717111346209" />
<circle cx="106.1837630331996" cy="180.831554279424" r="5.580940352288746" fill="#D2691E" fill-opacity="0.5669873964119739" />
<circle cx="57.499996163964475" cy="94.28790678823316" r="3.965630043303273" fill="#D2691E" fill-opacity="0.45321382146756145" />
<circle cx="109.11855620722075" cy="43.31093140765904" r="2.1548843598535248" fill="#8B4513" fill-opacity="0.5370687994545295" />
<circle cx="129.0153596934158" cy="127.91106232127387" r="4.622198411546229" fill="#FFFFFF" fill-opacity="0.26001874807391473" />
<circle cx="72.5539093747688" cy="149.5432410045132" r="4.787745020041628" fill="#FFDE75" fill-opacity="0.2628908727996264" />
<circle cx="28.466400309301818" cy="88.45231923309406" r="5.534489371166279" fill="#D2691E" fill-opacity="0.5643626691225985" />
<circle cx="177.80485117909603" cy="140.91966049335412" r="4.062583711033285" fill="#D2691E" fill-opacity="0.4612921676037363" />
<circle cx="41.961918659514694" cy="124.0421964960057" r="5.917034837937658" fill="#8B4513" fill-opacity="0.5485596368787631" />
<circle cx="59.39815457591233" cy="167.55623842140008" r="4.942931813188036" fill="#8B4513" fill-opacity="0.3418859165910176" />
<circle cx="128.12553156606725" cy="99.02205852651414" r="2.0719757339345315" fill="#FFDE75" fill-opacity="0.44779775130747645" />
<circle cx="107.38375988747708" cy="107.18039852326841" r="2.867714696417891" fill="#FFFFFF" fill-opacity="0.5474462939730411" />
<circle cx="99.96598382545208" cy="146.51753732259132" r="5.625617366372174" fill="#FFDE75" fill-opacity="0.5592840710085178" />
<circle cx="121.72395236252119" cy="132.81320135362006" r="5.696259301505032" fill="#D2691E" fill-opacity="0.5841447459130444" />
<circle cx="77.00012409486283" cy="94.67940617764772" r="4.826381145130982" fill="#FFFFFF" fill-opacity="0.5206298779159249" />
<ellipse cx="37.01934248768812" cy="141.00498687852027" rx="7.098091701341282" ry="6.7395346335541735" fill="#FFFDF0" fill-opacity="0.6" />
<ellipse cx="37.79244884699485" cy="141.21240509608157" rx="3.0951860497921544" ry="3.2996350204784832" fill="#FFFFFF" fill-opacity="0.85" />
<ellipse cx="121.35798117618367" cy="136.36696541113724" rx="8.169138492371744" ry="6.172151486426621" fill="#FFFDF0" fill-opacity="0.6" />
<ellipse cx="122.11271362592801" cy="137.03648394258943" rx="3.363440170313214" ry="2.6329879075571614" fill="#FFFFFF" fill-opacity="0.85" />
<ellipse cx="108.608349248042" cy="94.01182804825982" rx="7.4768687830667275" ry="5.450392702531459" fill="#FFFDF0" fill-opacity="0.6" />
<ellipse cx="108.56174227679037" cy="93.2620741186142" rx="2.565419826830608" ry="2.994520804458071" fill="#FFFFFF" fill-opacity="0.85" />
<ellipse cx="136.01367587764088" cy="134.551315181434" rx="6.0929028710605175" ry="4.316989754419428" fill="#FFFDF0" fill-opacity="0.6" />
<ellipse cx="136.2635886184475" cy="135.18054349256718" rx="4.24417078339771" ry="2.6041284619128193" fill="#FFFFFF" fill-opacity="0.85" />
<ellipse cx="180.37797722949276" cy="105.03931933909949" rx="7.439982962232365" ry="8.63169060937047" fill="#FFFDF0" fill-opacity="0.6" />
<ellipse cx="180.20274644753425" cy="104.23542003743805" rx="4.137361038418518" ry="2.734607563319983" fill="#FFFFFF" fill-opacity="0.85" />
<ellipse cx="62.57723311691769" cy="129.61901764884857" rx="7.863665996441656" ry="7.59667269780394" fill="#FFFDF0" fill-opacity="0.6" />
<ellipse cx="63.183416657715085" cy="129.85729635904124" rx="3.7431467370241327" ry="3.9736259385667516" fill="#FFFFFF" fill-opacity="0.85" />
</g>
<path d="M105.0,105.0 L205.0,105.0 A100,100,0,0,1,105.0,205.0 Z" fill="#F5C754" stroke="lightgray" stroke-width="2" />
<use xlink:href="#clip-4504295120-4568439120" />
<g clip-path="url(#clip-4504295120-4568439120)">
<circle cx="105.0" cy="105.0" r="92" stroke="#DAA05D" stroke-width="16" fill="none" />
<circle cx="105.0" cy="105.0" r="98" stroke="#C37B32" stroke-width="5" fill="none" />
<circle cx="112.09224601323687" cy="32.447918236366775" r="4.61968621690529" fill="#FFDE75" fill-opacity="0.21152939125347958" />
<circle cx="165.65890220650306" cy="141.53688434841595" r="3.3506442466403894" fill="#8B4513" fill-opacity="0.22868359518503567" />
<circle cx="88.11276432570115" cy="37.227370597984944" r="4.348937766450863" fill="#FFDE75" fill-opacity="0.2029145510509816" />
<circle cx="63.09231776668627" cy="155.28676856505737" r="3.671402164262553" fill="#FFFFFF" fill-opacity="0.4243288926035138" />
<circle cx="41.97066075837939" cy="88.85146789111049" r="3.577096898736098" fill="#FFDE75" fill-opacity="0.5257651238524886" />
<circle cx="56.59362217295125" cy="138.84878407460977" r="5.29933330491823" fill="#FFFFFF" fill-opacity="0.41613631965207065" />
<circle cx="113.94024517350928" cy="162.82281843713943" r="3.917194936065983" fill="#D2691E" fill-opacity="0.44894583792501586" />
<circle cx="136.6945799333773" cy="121.85783666745307" r="2.407699026569275" fill="#FFDE75" fill-opacity="0.2625279916980531" />
<circle cx="122.53693465998577" cy="174.7303091011761" r="2.9167893668686675" fill="#FFDE75" fill-opacity="0.34307115137683153" />
<circle cx="133.6310933297535" cy="143.89195890650313" r="5.042769448747771" fill="#8B4513" fill-opacity="0.34777473185800895" />
<circle cx="168.8141648303809" cy="142.57179387544852" r="5.595166193747261" fill="#D2691E" fill-opacity="0.21572783880124305" />
<circle cx="52.14584173145478" cy="157.23461337616368" r="4.983146365007215" fill="#8B4513" fill-opacity="0.41395494387885967" />
<circle cx="69.69851904184834" cy="144.1483458762365" r="4.555451724067627" fill="#8B4513" fill-opacity="0.29441234969942587" />
<circle cx="94.1520891655187" cy="65.7869459766915" r="4.786568033698935" fill="#D2691E" fill-opacity="0.5211432832737262" />
<circle cx="74.03153629610676" cy="128.2666069867374" r="3.785243819510722" fill="#D2691E" fill-opacity="0.33749774434510516" />
<circle cx="114.24530936414774" cy="95.19544075406874" r="5.191575732723348" fill="#FFDE75" fill-opacity="0.2137717111346209" />
<circle cx="106.1837630331996" cy="180.831554279424" r="5.580940352288746" fill="#D2691E" fill-opacity="0.5669873964119739" />
<circle cx="57.499996163964475" cy="94.28790678823316" r="3.965630043303273" fill="#D2691E" fill-opacity="0.45321382146756145" />
<circle cx="109.11855620722075" cy="43.31093140765904" r="2.1548843598535248" fill="#8B4513" fill-opacity="0.5370687994545295" />
<circle cx="129.0153596934158" cy="127.91106232127387" r="4.622198411546229" fill="#FFFFFF" fill-opacity="0.26001874807391473" />
<circle cx="72.5539093747688" cy="149.5432410045132" r="4.787745020041628" fill="#FFDE75" fill-opacity="0.2628908727996264" />
<circle cx="28.466400309301818" cy="88.45231923309406" r="5.534489371166279" fill="#D2691E" fill-opacity="0.5643626691225985" />
<circle cx="177.80485117909603" cy="140.91966049335412" r="4.062583711033285" fill="#D2691E" fill-opacity="0.4612921676037363" />
<circle cx="41.961918659514694" cy="124.0421964960057" r="5.917034837937658" fill="#8B4513" fill-opacity="0.5485596368787631" />
<circle cx="59.39815457591233" cy="167.55623842140008" r="4.942931813188036" fill="#8B4513" fill-opacity="0.3418859165910176" />
<circle cx="128.12553156606725" cy="99.02205852651414" r="2.0719757339345315" fill="#FFDE75" fill-opacity="0.44779775130747645" />
<circle cx="107.38375988747708" cy="107.18039852326841" r="2.867714696417891" fill="#FFFFFF" fill-opacity="0.5474462939730411" />
<circle cx="99.96598382545208" cy="146.51753732259132" r="5.625617366372174" fill="#FFDE75" fill-opacity="0.5592840710085178" />
<circle cx="121.72395236252119" cy="132.81320135362006" r="5.696259301505032" fill="#D2691E" fill-opacity="0.5841447459130444" />
<circle cx="77.00012409486283" cy="94.67940617764772" r="4.826381145130982" fill="#FFFFFF" fill-opacity="0.5206298779159249" />
<ellipse cx="37.01934248768812" cy="141.00498687852027" rx="7.098091701341282" ry="6.7395346335541735" fill="#FFFDF0" fill-opacity="0.6" />
<ellipse cx="37.79244884699485" cy="141.21240509608157" rx="3.0951860497921544" ry="3.2996350204784832" fill="#FFFFFF" fill-opacity="0.85" />
<ellipse cx="121.35798117618367" cy="136.36696541113724" rx="8.169138492371744" ry="6.172151486426621" fill="#FFFDF0" fill-opacity="0.6" />
<ellipse cx="122.11271362592801" cy="137.03648394258943" rx="3.363440170313214" ry="2.6329879075571614" fill="#FFFFFF" fill-opacity="0.85" />
<ellipse cx="108.608349248042" cy="94.01182804825982" rx="7.4768687830667275" ry="5.450392702531459" fill="#FFFDF0" fill-opacity="0.6" />
<ellipse cx="108.56174227679037" cy="93.2620741186142" rx="2.565419826830608" ry="2.994520804458071" fill="#FFFFFF" fill-opacity="0.85" />
<ellipse cx="136.01367587764088" cy="134.551315181434" rx="6.0929028710605175" ry="4.316989754419428" fill="#FFFDF0" fill-opacity="0.6" />
<ellipse cx="136.2635886184475" cy="135.18054349256718" rx="4.24417078339771" ry="2.6041284619128193" fill="#FFFFFF" fill-opacity="0.85" />
<ellipse cx="180.37797722949276" cy="105.03931933909949" rx="7.439982962232365" ry="8.63169060937047" fill="#FFFDF0" fill-opacity="0.6" />
<ellipse cx="180.20274644753425" cy="104.23542003743805" rx="4.137361038418518" ry="2.734607563319983" fill="#FFFFFF" fill-opacity="0.85" />
<ellipse cx="62.57723311691769" cy="129.61901764884857" rx="7.863665996441656" ry="7.59667269780394" fill="#FFFDF0" fill-opacity="0.6" />
<ellipse cx="63.183416657715085" cy="129.85729635904124" rx="3.7431467370241327" ry="3.9736259385667516" fill="#FFFFFF" fill-opacity="0.85" />
</g>
<rect x="230.0" y="41.0" width="54.0" height="54.0" fill="none" stroke="black" stroke-width="2" />
<rect x="230.0" y="115.0" width="54.0" height="54.0" fill="none" stroke="black" stroke-width="2" />
<path d="M225.0,105.0 L289.0,105.0" stroke="black" stroke-width="2" />
<text x="257.0" y="68.0" font-size="36" font-family="Comic Sans MS, Comic Sans, cursive" dominant-baseline="middle" fill="black" text-anchor="middle">2</text>
<text x="257.0" y="142.0" font-size="36" font-family="Comic Sans MS, Comic Sans, cursive" dominant-baseline="middle" fill="black" text-anchor="middle">4</text>
</g>
</svg>
<rect x="299.0" y="65.0" width="80" height="80" fill="none" stroke="black" stroke-width="1.5"/>
<svg x="394.0" y="0.0" width="284.0" height="210.0" viewBox="0 0 284.0 210" xmlns="http://www.w3.org/2000/svg" xmlns:xlink="http://www.w3.org/1999/xlink">
<defs>
<clipPath id="clip-4504295840-4503870416">
<path d="M105.0,105.0 L105.0,5.0 A100,100,0,0,1,105.0,205.0 Z" fill="none" />
</clipPath>
</defs>
<g>
<path d="M105.0,105.0 L105.0,5.0 A100,100,0,0,1,105.0,205.0 Z" fill="none" stroke="lightgray" stroke-width="2" />
<path d="M105.0,105.0 L105.0,205.0 A100,100,0,0,1,104.99999999999999,5.0 Z" fill="none" stroke="lightgray" stroke-width="2" />
<path d="M105.0,105.0 L105.0,5.0 A100,100,0,0,1,105.0,205.0 Z" fill="#F5C754" stroke="lightgray" stroke-width="2" />
<use xlink:href="#clip-4504295840-4503870416" />
<g clip-path="url(#clip-4504295840-4503870416)">
<circle cx="105.0" cy="105.0" r="92" stroke="#DAA05D" stroke-width="16" fill="none" />
<circle cx="105.0" cy="105.0" r="98" stroke="#C37B32" stroke-width="5" fill="none" />
<circle cx="38.66379645942669" cy="85.1049359892026" r="5.791585291536993" fill="#8B4513" fill-opacity="0.35044358008098103" />
<circle cx="136.41505833058545" cy="49.90763823671327" r="2.7880359500062113" fill="#8B4513" fill-opacity="0.5232346365742473" />
<circle cx="139.7101312067402" cy="32.284940668833045" r="3.6361891893869034" fill="#8B4513" fill-opacity="0.24332025763075593" />
<circle cx="35.7681881246931" cy="133.04710925904263" r="2.97635063134778" fill="#8B4513" fill-opacity="0.42800280996935125" />
<circle cx="122.16549900335062" cy="165.61257105981286" r="4.167318752582526" fill="#FFFFFF" fill-opacity="0.27867405210277457" />
<circle cx="97.7821950620068" cy="150.50535544120177" r="2.758776686090089" fill="#FFDE75" fill-opacity="0.27813372458683194" />
<circle cx="181.34519904604338" cy="73.0626445553342" r="2.351424726337583" fill="#D2691E" fill-opacity="0.4459950148887814" />
<circle cx="65.9641609578055" cy="100.8645168685364" r="5.877790432308664" fill="#D2691E" fill-opacity="0.37968046434270475" />
<circle cx="119.7755721898099" cy="188.54340178615973" r="3.9200074810507872" fill="#D2691E" fill-opacity="0.23837472667932175" />
<circle cx="177.86832505147134" cy="133.33136354392698" r="2.446786011368064" fill="#8B4513" fill-opacity="0.21962742991844086" />
<circle cx="121.01021239765947" cy="42.70344143028845" r="4.669688729348286" fill="#8B4513" fill-opacity="0.523238084138033" />
<circle cx="155.75086783370386" cy="127.43040616879284" r="3.769770912588018" fill="#D2691E" fill-opacity="0.4651259095469298" />
<circle cx="54.89919299204828" cy="84.13120170080035" r="4.300438854983987" fill="#FFFFFF" fill-opacity="0.35083168404026727" />
<circle cx="68.62969119669361" cy="35.15155075861851" r="5.960068164667882" fill="#8B4513" fill-opacity="0.5202720292744958" />
<circle cx="163.16200747802986" cy="70.55220889465059" r="4.435004379352472" fill="#FFDE75" fill-opacity="0.3548119056619892" />
<ellipse cx="104.08791016621039" cy="152.60495309740878" rx="7.240347277606449" ry="4.817980734596309" fill="#FFFDF0" fill-opacity="0.6" />
<ellipse cx="104.74612651413341" cy="152.5432302657918" rx="3.3898970683307774" ry="2.3234013082245317" fill="#FFFFFF" fill-opacity="0.85" />
<ellipse cx="71.99185849503749" cy="116.2443217951875" rx="5.473386171680362" ry="8.081579453780424" fill="#FFFDF0" fill-opacity="0.6" />
<ellipse cx="72.56215320807848" cy="116.38655358642356" rx="2.403939228980052" ry="2.5507086366658815" fill="#FFFFFF" fill-opacity="0.85" />
<ellipse cx="108.28623794425106" cy="55.15684714092673" rx="8.988608189131693" ry="5.598444957945402" fill="#FFFDF0" fill-opacity="0.6" />
<ellipse cx="108.00662385584171" cy="55.133947777450565" rx="3.764127742939838" ry="2.5982014665670174" fill="#FFFFFF" fill-opacity="0.85" />
</g>
<rect x="230.0" y="41.0" width="54.0" height="54.0" fill="none" stroke="black" stroke-width="2" />
<rect x="230.0" y="115.0" width="54.0" height="54.0" fill="none" stroke="black" stroke-width="2" />
<path d="M225.0,105.0 L289.0,105.0" stroke="black" stroke-width="2" />
<text x="257.0" y="68.0" font-size="36" font-family="Comic Sans MS, Comic Sans, cursive" dominant-baseline="middle" fill="black" text-anchor="middle">1</text>
<text x="257.0" y="142.0" font-size="36" font-family="Comic Sans MS, Comic Sans, cursive" dominant-baseline="middle" fill="black" text-anchor="middle">2</text>
</g>
</svg>
</svg>