<svg width="734.0" height="210.0" xmlns="http://www.w3.org/2000/svg" xmlns:xlink="http://www.w3.org/1999/xlink">
<svg x="0.0" y="0.0" width="210.0" height="210.0" viewBox="0 0 210 210" xmlns="http://www.w3.org/2000/svg" xmlns:xlink="http://www.w3.org/1999/xlink">
<defs>
<clipPath id="clip-4535276064-4471970256">
<circle cx="105.0" cy="105.0" r="100" fill="none" />
</clipPath>
</defs>
<g>
<circle cx="105.0" cy="105.0" r="100" fill="#F5C754" />
<use xlink:href="#clip-4535276064-4471970256" />
<g clip-path="url(#clip-4535276064-4471970256)">
<circle cx="105.0" cy="105.0" r="92" stroke="#DAA05D" stroke-width="16" fill="none" />
<circle cx="105.0" cy="105.0" r="98" stroke="#C37B32" stroke-width="5" fill="none" />
<circle cx="123.814805008619" cy="122.85281495440115" r="2.0718243673478387" fill="#8B4513" fill-opacity="0.2794850870438883" />
<circle cx="147.31327611301901" cy="161.19533792521605" r="5.601735723978023" fill="#FFFFFF" fill-opacity="0.36463976161926476" />
<circle cx="87.94718024359365" cy="26.554031277473058" r="4.652301249811041" fill="#D2691E" fill-opacity="0.4136685973581108" />
<circle cx="64.62404683235911" cy="174.42716436687527" r="2.7006252772710386" fill="#8B4513" fill-opacity="0.4905816360668241" />
<circle cx="141.73708304500474" cy="103.69134067938883" r="2.811644670392333" fill="#FFDE75" fill-opacity="0.3290368279487722" />
<circle cx="108.33540707702502" cy="78.36006560364564" r="2.080537209859098" fill="#FFDE75" fill-opacity="0.5119302288339134" />
<circle cx="112.35566210894538" cy="66.04792078672635" r="2.037594597582284" fill="#8B4513" fill-opacity="0.4476489673311822" />
<circle cx="93.64492541598011" cy="104.38765110083679" r="5.6556374011489465" fill="#FFFFFF" fill-opacity="0.4043364920526182" />
<circle cx="99.35536269826162" cy="174.02695231522347" r="4.821832275972321" fill="#8B4513" fill-opacity="0.2920600255152017" />
<circle cx="51.28509650009413" cy="54.874102641303715" r="2.820688952470965" fill="#D2691E" fill-opacity="0.5411492528076154" />
<circle cx="84.81371504958544" cy="126.30115463375496" r="3.8555677601945977" fill="#D2691E" fill-opacity="0.356108131364802" />
<circle cx="59.044564418516714" cy="121.81332250324739" r="3.093800454750048" fill="#8B4513" fill-opacity="0.3148953677964882" />
<circle cx="165.11183583264722" cy="110.73172797583675" r="5.639300652116447" fill="#FFFFFF" fill-opacity="0.5805183557276281" />
<circle cx="143.14519562258067" cy="121.1347696178376" r="4.814326440085662" fill="#FFFFFF" fill-opacity="0.2406877786102264" />
<circle cx="164.73846070091142" cy="147.5108236600486" r="4.996516653947052" fill="#D2691E" fill-opacity="0.46167395864647587" />
<circle cx="68.9384735385494" cy="135.24537732667565" r="5.59311771617241" fill="#FFFFFF" fill-opacity="0.43078831706952303" />
<circle cx="70.61779169329532" cy="142.61894849820197" r="3.9778266928078474" fill="#D2691E" fill-opacity="0.5301796929073284" />
<circle cx="62.912553084869074" cy="101.44372969011228" r="3.3991911129940595" fill="#FFFFFF" fill-opacity="0.22439607950222148" />
<circle cx="90.85462440899873" cy="125.05678454673556" r="3.2843668548497695" fill="#D2691E" fill-opacity="0.4236162533172616" />
<circle cx="72.64269826830372" cy="136.98763177354294" r="3.0043665065296645" fill="#8B4513" fill-opacity="0.36650250684699576" />
<circle cx="119.04956676268108" cy="134.38091707024086" r="5.851834665590289" fill="#FFFFFF" fill-opacity="0.3084535449338906" />
<circle cx="99.38227288418024" cy="174.1267902280719" r="5.674508105839172" fill="#FFDE75" fill-opacity="0.2724779348989056" />
<circle cx="106.89342500451383" cy="140.35167669954305" r="4.848809452671415" fill="#D2691E" fill-opacity="0.2872093368330576" />
<circle cx="149.02110922794324" cy="43.489518839717405" r="2.4544194633282848" fill="#FFFFFF" fill-opacity="0.43299497035070234" />
<circle cx="86.848749969293" cy="49.67628924495136" r="3.759895285997367" fill="#FFDE75" fill-opacity="0.2180068320443425" />
<circle cx="103.42471701164229" cy="134.63198065894068" r="3.6421914087825136" fill="#D2691E" fill-opacity="0.30544917571806146" />
<circle cx="143.93844415989219" cy="96.04991691226591" r="2.385755087415573" fill="#FFFFFF" fill-opacity="0.28456798354832646" />
<circle cx="75.88009519172329" cy="120.76679561566976" r="5.163332695378427" fill="#D2691E" fill-opacity="0.2819927309339656" />
<circle cx="25.643870420422544" cy="131.28226518555817" r="5.192785510167079" fill="#8B4513" fill-opacity="0.5204271205106863" />
<circle cx="87.8759039489149" cy="45.20136849325424" r="3.825189549143545" fill="#FFFFFF" fill-opacity="0.4492809582909859" />
<circle cx="183.8785177504151" cy="92.55740924523933" r="3.686675230497572" fill="#8B4513" fill-opacity="0.2288516134241063" />
<circle cx="47.88905295699692" cy="145.7029785079742" r="5.403524179293491" fill="#FFFFFF" fill-opacity="0.4358473748917726" />
<circle cx="86.65883461220297" cy="61.49785111930027" r="5.493354550402797" fill="#FFDE75" fill-opacity="0.5710145753714817" />
<circle cx="76.98139056073332" cy="59.73904581116243" r="5.477439005204333" fill="#FFDE75" fill-opacity="0.5143566699922972" />
<circle cx="131.04470504779843" cy="30.26936249606807" r="5.772114551588229" fill="#FFDE75" fill-opacity="0.3609975363102983" />
<circle cx="74.5549866002522" cy="30.76088278747983" r="4.226754696040809" fill="#FFFFFF" fill-opacity="0.20641361474657507" />
<circle cx="78.39380910532222" cy="72.63078602851952" r="2.635146577003445" fill="#FFFFFF" fill-opacity="0.4412295198362184" />
<circle cx="123.65667200088845" cy="34.76309341154359" r="3.7733017892904557" fill="#FFDE75" fill-opacity="0.3201973783246962" />
<circle cx="131.148218163034" cy="158.67708842511632" r="4.859496799630439" fill="#FFDE75" fill-opacity="0.2654895983966009" />
<circle cx="86.39766071401536" cy="37.47218232448573" r="3.973963437548756" fill="#FFFFFF" fill-opacity="0.26477648541322407" />
<circle cx="183.06808085349766" cy="138.38615762903908" r="2.902969112247546" fill="#D2691E" fill-opacity="0.40514711063336584" />
<circle cx="140.7004241598329" cy="49.08583794508309" r="5.663296069018511" fill="#D2691E" fill-opacity="0.42923888793169573" />
<circle cx="103.13408760793018" cy="36.5826805522767" r="5.716167340882423" fill="#8B4513" fill-opacity="0.20336977992080799" />
<circle cx="37.80585013940774" cy="136.6864634491844" r="3.653773252128609" fill="#8B4513" fill-opacity="0.3228645444576459" />
<circle cx="137.06080305254216" cy="161.78861629387913" r="3.87149707725675" fill="#FFFFFF" fill-opacity="0.5150251682626548" />
<circle cx="157.99669004067906" cy="64.27410826155284" r="4.480486016547701" fill="#FFFFFF" fill-opacity="0.43329540630374563" />
<circle cx="105.99814880261329" cy="159.01229283860704" r="5.233858682241673" fill="#FFFFFF" fill-opacity="0.24652125914986184" />
<circle cx="132.01253745675731" cy="65.28474782739703" r="4.110430300162485" fill="#FFFFFF" fill-opacity="0.577214189854665" />
<circle cx="155.33671730597723" cy="48.67374117866309" r="5.273241651758415" fill="#8B4513" fill-opacity="0.24252511671473012" />
<circle cx="77.94274551697121" cy="174.33556600003112" r="3.5727924888608085" fill="#8B4513" fill-opacity="0.5281095021647426" />
<circle cx="134.12710111763735" cy="57.372878349758764" r="5.781258317999388" fill="#FFDE75" fill-opacity="0.30451547746304103" />
<circle cx="156.0687304787315" cy="73.60013265932717" r="2.543051818324199" fill="#D2691E" fill-opacity="0.2059179507468384" />
<circle cx="128.1970816766738" cy="138.9607787325802" r="4.745675463007618" fill="#FFFFFF" fill-opacity="0.25619016074022294" />
<circle cx="125.04359032134174" cy="55.62360800742141" r="3.2353871639042526" fill="#D2691E" fill-opacity="0.29100669947687974" />
<circle cx="45.034983972996706" cy="84.90709140649189" r="3.4957310182720756" fill="#FFFFFF" fill-opacity="0.23519196006945978" />
<circle cx="140.16673609518753" cy="72.37201426006943" r="3.016797255951738" fill="#D2691E" fill-opacity="0.3655662437679902" />
<circle cx="62.344139131460736" cy="154.7576327513816" r="5.0436484142119475" fill="#FFDE75" fill-opacity="0.2842066218123966" />
<circle cx="180.16042401465444" cy="138.40940235593857" r="5.213733288985254" fill="#8B4513" fill-opacity="0.5348305390711283" />
<circle cx="125.12863432467375" cy="104.21732420064977" r="2.77570124417078" fill="#FFFFFF" fill-opacity="0.416731147983139" />
<circle cx="102.88902775336207" cy="186.99231113750764" r="2.0995176564722984" fill="#8B4513" fill-opacity="0.3865190902014828" />
<circle cx="28.017173129700637" cy="134.03269255880394" r="2.1747309223265794" fill="#D2691E" fill-opacity="0.5855269528963353" />
<circle cx="125.4305535981345" cy="159.74136085313697" r="4.804535422452519" fill="#8B4513" fill-opacity="0.5815291281104856" />
<circle cx="100.29272391437564" cy="153.3999263184914" r="4.36674401625945" fill="#D2691E" fill-opacity="0.4527801196119854" />
<circle cx="168.56619163971655" cy="159.87059093804274" r="3.578459100751435" fill="#FFFFFF" fill-opacity="0.5270204322938095" />
<circle cx="108.79675220437254" cy="52.03275720253235" r="2.184577743123924" fill="#8B4513" fill-opacity="0.4030727111802679" />
<circle cx="128.21558333381313" cy="107.02829072254454" r="3.694082050430531" fill="#D2691E" fill-opacity="0.32734404093201025" />
<circle cx="103.88116254392867" cy="21.859780691638576" r="2.7128320622451523" fill="#FFFFFF" fill-opacity="0.4038042722073144" />
<circle cx="88.08500788666176" cy="104.27946105735398" r="2.997486069983845" fill="#FFFFFF" fill-opacity="0.3480331997497992" />
<circle cx="117.26775967572289" cy="119.63312106366541" r="2.3027820208627503" fill="#FFFFFF" fill-opacity="0.4953903327241603" />
<circle cx="76.19654114371303" cy="26.149234199197025" r="2.149863748693366" fill="#D2691E" fill-opacity="0.42017495287784706" />
<circle cx="159.33193598772877" cy="47.13507715928125" r="4.629034412744033" fill="#8B4513" fill-opacity="0.45758624664774344" />
<circle cx="152.80798241611367" cy="58.46684113853999" r="5.017725223056258" fill="#FFDE75" fill-opacity="0.5825423503506753" />
<circle cx="162.43561504996285" cy="112.26736193223016" r="5.934686298069928" fill="#D2691E" fill-opacity="0.45108337990386566" />
<circle cx="121.54680210188414" cy="112.96607291961949" r="2.9508135724040576" fill="#FFDE75" fill-opacity="0.37637683698511676" />
<circle cx="96.2327177109581" cy="81.25488560303282" r="2.12722833054122" fill="#FFDE75" fill-opacity="0.4328843943690177" />
<circle cx="29.760477125233564" cy="69.01058759330752" r="3.4080096949082157" fill="#FFFFFF" fill-opacity="0.5667817401789563" />
<circle cx="116.28136974548298" cy="40.231291108757446" r="5.847914691572019" fill="#D2691E" fill-opacity="0.5656849598444402" />
<circle cx="27.198025757121343" cy="114.59854150422524" r="4.240707293256618" fill="#FFFFFF" fill-opacity="0.3718840681317386" />
<circle cx="52.22021927810942" cy="63.63649755004787" r="4.28114387432371" fill="#D2691E" fill-opacity="0.21539792873238126" />
<circle cx="128.85326354399984" cy="43.993595255340864" r="3.135110791108338" fill="#FFDE75" fill-opacity="0.2853333410835103" />
<circle cx="125.03633254200366" cy="158.71803245718743" r="3.1570840573414913" fill="#FFFFFF" fill-opacity="0.5800227042209962" />
<circle cx="178.75697766273998" cy="146.9734209600828" r="5.283418002821515" fill="#FFFFFF" fill-opacity="0.21128657770597084" />
<circle cx="97.19190269862311" cy="34.235703207359734" r="4.6227774324099995" fill="#FFDE75" fill-opacity="0.26253734331043976" />
<circle cx="152.49236796386793" cy="37.81443256184103" r="2.6412658910197604" fill="#D2691E" fill-opacity="0.29904507487173937" />
<circle cx="126.49451885229507" cy="167.07094261476269" r="5.47720683187929" fill="#8B4513" fill-opacity="0.3337483870578931" />
<circle cx="173.37853728067597" cy="120.7426944265459" r="2.251919877572809" fill="#D2691E" fill-opacity="0.36484166710725646" />
<circle cx="51.12109267850797" cy="76.05801588395029" r="4.795047197466101" fill="#FFDE75" fill-opacity="0.3445415450899491" />
<circle cx="140.63588392561144" cy="101.58873576423781" r="3.1990208584336086" fill="#D2691E" fill-opacity="0.30283231721357884" />
<circle cx="35.73573740496265" cy="112.28262122957432" r="3.0789089585820175" fill="#8B4513" fill-opacity="0.4426785570532624" />
<circle cx="57.125413229816864" cy="157.1645504133493" r="4.673914005073063" fill="#D2691E" fill-opacity="0.2213902246420989" />
<circle cx="164.03609627457536" cy="145.743336792114" r="5.862743115833412" fill="#FFDE75" fill-opacity="0.5552143453345912" />
<circle cx="84.85067301432585" cy="53.73726519152413" r="4.033848269938269" fill="#FFFFFF" fill-opacity="0.5696641646978218" />
<circle cx="79.65046984980273" cy="119.85255383524465" r="3.9365351730313938" fill="#FFFFFF" fill-opacity="0.20343900266544362" />
<circle cx="141.60021453621803" cy="138.924707809559" r="5.187028694039057" fill="#FFFFFF" fill-opacity="0.5072366736912746" />
<circle cx="108.22241762936189" cy="44.761632600454575" r="5.898128358081542" fill="#FFDE75" fill-opacity="0.41094032126872027" />
<circle cx="90.28700299968666" cy="89.04475430789702" r="4.066260543495752" fill="#FFDE75" fill-opacity="0.425509319474178" />
<circle cx="131.10487870751615" cy="77.36916682956294" r="3.4436789277811846" fill="#FFFFFF" fill-opacity="0.3632857247656598" />
<circle cx="154.16178684524562" cy="146.29275793522544" r="2.4863914111616365" fill="#8B4513" fill-opacity="0.5952302332146502" />
<circle cx="170.99200680955562" cy="139.32259689013097" r="5.832502378474979" fill="#FFDE75" fill-opacity="0.5029827510674809" />
<circle cx="70.63340110766936" cy="100.42814635529619" r="3.2555975846069742" fill="#FFDE75" fill-opacity="0.37015130819141295" />
<circle cx="144.23621560352515" cy="163.43064765560413" r="2.8804226587491413" fill="#FFDE75" fill-opacity="0.2863660473130808" />
<circle cx="107.81231020984536" cy="169.11010391520315" r="2.408625067353877" fill="#8B4513" fill-opacity="0.4618387490074121" />
<circle cx="81.02626003256569" cy="44.19632612807651" r="5.946191846856253" fill="#D2691E" fill-opacity="0.3966754205434383" />
<circle cx="175.89213109332044" cy="97.81094477663378" r="2.633891518550547" fill="#FFDE75" fill-opacity="0.3392726252052246" />
<circle cx="82.32056738697551" cy="26.605905082136942" r="5.344158713856164" fill="#FFFFFF" fill-opacity="0.2810905726533953" />
<circle cx="68.04897408843286" cy="157.24943873178182" r="4.679046564538218" fill="#FFFFFF" fill-opacity="0.46659731688506934" />
<circle cx="93.44772164081459" cy="81.19035563135205" r="2.735084648561917" fill="#D2691E" fill-opacity="0.4832400349423474" />
<circle cx="180.0179297098963" cy="93.35865212726394" r="2.1814043221337687" fill="#FFDE75" fill-opacity="0.33195734903141993" />
<circle cx="130.4125424455534" cy="120.31827231472462" r="4.244204902915904" fill="#FFDE75" fill-opacity="0.3283807988378248" />
<circle cx="153.81282137296301" cy="45.46092656244268" r="2.281187438551135" fill="#D2691E" fill-opacity="0.4024894013049122" />
<circle cx="166.06111461733298" cy="72.38404749481174" r="5.7456094305931895" fill="#8B4513" fill-opacity="0.22206541775325972" />
<circle cx="127.28077493226719" cy="136.96840084771216" r="3.7617100491384434" fill="#FFDE75" fill-opacity="0.5813319989678787" />
<circle cx="148.54709939546734" cy="112.94740485246882" r="3.614635306294604" fill="#FFFFFF" fill-opacity="0.5668370340557642" />
<circle cx="60.63549369231941" cy="142.81644146820025" r="2.390126372846662" fill="#D2691E" fill-opacity="0.3747610172819915" />
<circle cx="33.78553943491927" cy="79.07340135970279" r="5.23090555379287" fill="#FFFFFF" fill-opacity="0.46814256388173714" />
<circle cx="79.17731866325538" cy="124.59931096107071" r="5.187867669243634" fill="#FFDE75" fill-opacity="0.47570690723604714" />
<circle cx="108.5554203224499" cy="46.10360504268984" r="4.606361751477104" fill="#FFFFFF" fill-opacity="0.5216693558537651" />
<circle cx="157.16417685615127" cy="152.7801139965933" r="3.9968894523464007" fill="#8B4513" fill-opacity="0.5695007187311427" />
<circle cx="129.38644428322124" cy="47.08559652712666" r="4.19969329893711" fill="#FFDE75" fill-opacity="0.38377472797427803" />
<circle cx="166.75084439258913" cy="98.03681919689771" r="2.8466472982714164" fill="#FFDE75" fill-opacity="0.2679185454257532" />
<ellipse cx="176.52675312607266" cy="106.06052272718875" rx="6.24828749959633" ry="4.043716363062088" fill="#FFFDF0" fill-opacity="0.6" />
<ellipse cx="177.39185834152985" cy="106.14569345006613" rx="2.5132107333040716" ry="3.7376810036542594" fill="#FFFFFF" fill-opacity="0.85" />
<ellipse cx="102.90532778547772" cy="36.884726957279625" rx="7.846377860175688" ry="4.082277975202806" fill="#FFFDF0" fill-opacity="0.6" />
<ellipse cx="102.76272415065897" cy="37.148027976734795" rx="4.30249305605104" ry="3.8448235646310804" fill="#FFFFFF" fill-opacity="0.85" />
<ellipse cx="169.04437340051942" cy="141.28708955206955" rx="8.911309241063018" ry="8.243710100994292" fill="#FFFDF0" fill-opacity="0.6" />
<ellipse cx="168.2106822281034" cy="142.2632774886158" rx="2.2483560514315912" ry="3.7452100866134326" fill="#FFFFFF" fill-opacity="0.85" />
<ellipse cx="159.044262218469" cy="104.84654379498673" rx="9.624749744055705" ry="4.718401850028833" fill="#FFFDF0" fill-opacity="0.6" />
<ellipse cx="159.5049262218827" cy="104.00620752009749" rx="2.354430625799269" ry="2.0903293406871004" fill="#FFFFFF" fill-opacity="0.85" />
<ellipse cx="105.80192401538764" cy="137.36019025252494" rx="6.002388073778817" ry="7.7934679322265765" fill="#FFFDF0" fill-opacity="0.6" />
<ellipse cx="106.09793607342834" cy="137.3265376188017" rx="4.090990304633991" ry="2.922484917593249" fill="#FFFFFF" fill-opacity="0.85" />
<ellipse cx="131.45690864500517" cy="45.33196596838443" rx="6.36164947165862" ry="8.81660656759719" fill="#FFFDF0" fill-opacity="0.6" />
<ellipse cx="130.56032704145755" cy="44.4024825521519" rx="3.9474419571568085" ry="3.9224231992572314" fill="#FFFFFF" fill-opacity="0.85" />
<ellipse cx="113.11278046052823" cy="146.32453376184748" rx="9.610240367851056" ry="8.09095518470469" fill="#FFFDF0" fill-opacity="0.6" />
<ellipse cx="112.27337813301179" cy="145.73550082080337" rx="2.1358722624611493" ry="3.9191885227383167" fill="#FFFFFF" fill-opacity="0.85" />
<ellipse cx="38.06529826289771" cy="133.0371799743104" rx="8.792380819149898" ry="6.207437765152644" fill="#FFFDF0" fill-opacity="0.6" />
<ellipse cx="37.14407872859967" cy="133.782734043949" rx="3.895784797010651" ry="2.965063803962898" fill="#FFFFFF" fill-opacity="0.85" />
<ellipse cx="30.508255840798995" cy="120.68492973678487" rx="9.10433863281802" ry="5.7037118417385315" fill="#FFFDF0" fill-opacity="0.6" />
<ellipse cx="31.49097994369853" cy="121.05810602148036" rx="4.746399167678061" ry="3.2765165713577886" fill="#FFFFFF" fill-opacity="0.85" />
<ellipse cx="45.13415805530285" cy="144.76599473695114" rx="9.57115486725179" ry="8.423558667596932" fill="#FFFDF0" fill-opacity="0.6" />
<ellipse cx="45.42121587198511" cy="145.19571288565456" rx="4.147674974083384" ry="2.1624052267094616" fill="#FFFFFF" fill-opacity="0.85" />
<ellipse cx="24.176671498631976" cy="97.69675211910807" rx="6.646158112171143" ry="4.391182267012493" fill="#FFFDF0" fill-opacity="0.6" />
<ellipse cx="24.803310210142214" cy="96.84249893888426" rx="4.046498626414429" ry="3.6597409527002616" fill="#FFFFFF" fill-opacity="0.85" />
<ellipse cx="102.899484483542" cy="110.44358462904461" rx="6.443599814862187" ry="8.05347497717516" fill="#FFFDF0" fill-opacity="0.6" />
<ellipse cx="102.95462015949354" cy="109.82949086609582" rx="3.971578568843964" ry="3.274527332755262" fill="#FFFFFF" fill-opacity="0.85" />
<ellipse cx="136.71309943278902" cy="179.24408551460408" rx="5.799626072305683" ry="5.225386631314517" fill="#FFFDF0" fill-opacity="0.6" />
<ellipse cx="136.45482795471074" cy="179.7350206500743" rx="4.996439061760298" ry="3.564011042216058" fill="#FFFFFF" fill-opacity="0.85" />
<ellipse cx="110.10741706231975" cy="153.00642589508683" rx="7.723304666062468" ry="4.011388097346511" fill="#FFFDF0" fill-opacity="0.6" />
<ellipse cx="110.62764662206384" cy="152.4124621512333" rx="4.674641282242056" ry="2.5746116700006363" fill="#FFFFFF" fill-opacity="0.85" />
<ellipse cx="77.63213051104097" cy="88.65262828640496" rx="6.439345813172282" ry="5.003081966949277" fill="#FFFDF0" fill-opacity="0.6" />
<ellipse cx="78.3969816427237" cy="88.79823112827829" rx="4.709220035537172" ry="3.783335245314439" fill="#FFFFFF" fill-opacity="0.85" />
<ellipse cx="54.52527281309712" cy="50.75901009889736" rx="8.080557539099006" ry="7.168187612641396" fill="#FFFDF0" fill-opacity="0.6" />
<ellipse cx="55.1056754482397" cy="50.879032547738554" rx="2.751399391928137" ry="3.096702823791863" fill="#FFFFFF" fill-opacity="0.85" />
<ellipse cx="119.92674271753201" cy="137.17579852923384" rx="5.142431265202708" ry="5.676509789891073" fill="#FFFDF0" fill-opacity="0.6" />
<ellipse cx="120.67895902990944" cy="136.94493024448266" rx="2.8499890786285795" ry="2.1515404139118157" fill="#FFFFFF" fill-opacity="0.85" />
<ellipse cx="134.33581446749648" cy="117.22588923763469" rx="7.493427562698488" ry="8.252691008818509" fill="#FFFDF0" fill-opacity="0.6" />
<ellipse cx="134.66593081189808" cy="118.15423357493253" rx="4.774987729606212" ry="2.318198451946561" fill="#FFFFFF" fill-opacity="0.85" />
<ellipse cx="120.90080628556522" cy="149.2155115474484" rx="6.423971598985146" ry="4.804161616714047" fill="#FFFDF0" fill-opacity="0.6" />
<ellipse cx="121.0934466722885" cy="149.79488491680058" rx="3.041634282633253" ry="3.7445345533335104" fill="#FFFFFF" fill-opacity="0.85" />
<ellipse cx="160.53665127919183" cy="110.20712507084102" rx="5.723387050735227" ry="6.448838240543678" fill="#FFFDF0" fill-opacity="0.6" />
<ellipse cx="159.5567260194653" cy="109.28052015150325" rx="4.9898871764215595" ry="2.9686897037518465" fill="#FFFFFF" fill-opacity="0.85" />
<ellipse cx="78.26948288064364" cy="92.37208036970884" rx="8.761920550681465" ry="6.468371199806419" fill="#FFFDF0" fill-opacity="0.6" />
<ellipse cx="78.29127926198825" cy="92.20248761474663" rx="2.698284867199293" ry="2.3182516332912675" fill="#FFFFFF" fill-opacity="0.85" />
<ellipse cx="58.71936241927937" cy="83.1572288546412" rx="8.563417788897187" ry="7.578854301915619" fill="#FFFDF0" fill-opacity="0.6" />
<ellipse cx="59.48868703638949" cy="83.70761613239198" rx="3.5433465306707443" ry="2.3112026296215182" fill="#FFFFFF" fill-opacity="0.85" />
<ellipse cx="155.41161149179" cy="168.61330786841026" rx="8.963091755726923" ry="7.200808036342247" fill="#FFFDF0" fill-opacity="0.6" />
<ellipse cx="154.59502855180318" cy="168.9512090567403" rx="2.670949214261314" ry="2.6844601084031083" fill="#FFFFFF" fill-opacity="0.85" />
<ellipse cx="147.39219233269998" cy="160.45168591680738" rx="8.936997992267582" ry="7.160155651149395" fill="#FFFDF0" fill-opacity="0.6" />
<ellipse cx="146.64656160312762" cy="160.70290427224958" rx="3.298507107215036" ry="2.7375179063230037" fill="#FFFFFF" fill-opacity="0.85" />
</g>
<path d="M105.0,105.0 L105.0,5.0" stroke="lightgray" stroke-width="2" />
<path d="M105.0,105.0 L175.71067811865476,34.28932188134526" stroke="lightgray" stroke-width="2" />
<path d="M105.0,105.0 L205.0,105.0" stroke="lightgray" stroke-width="2" />
<path d="M105.0,105.0 L175.71067811865476,175.71067811865476" stroke="lightgray" stroke-width="2" />
<path d="M105.0,105.0 L105.0,205.0" stroke="lightgray" stroke-width="2" />
<path d="M105.0,105.0 L34.28932188134526,175.71067811865476" stroke="lightgray" stroke-width="2" />
<path d="M105.0,105.0 L5.0,105.00000000000001" stroke="lightgray" stroke-width="2" />
<path d="M105.0,105.0 L34.28932188134523,34.28932188134526" stroke="lightgray" stroke-width="2" />
<circle cx="105.0" cy="105.0" r="100" fill="none" stroke="lightgray" stroke-width="2" />
</g>
</svg>
<svg x="225.0" y="0.0" width="210.0" height="210.0" viewBox="0 0 210 210" xmlns="http://www.w3.org/2000/svg" xmlns:xlink="http://www.w3.org/1999/xlink">
<defs>
<clipPath id="clip-4535275824-4471970256">
<circle cx="105.0" cy="105.0" r="100" fill="none" />
</clipPath>
</defs>
<g>
<circle cx="105.0" cy="105.0" r="100" fill="#F5C754" />
<use xlink:href="#clip-4535275824-4471970256" />
<g clip-path="url(#clip-4535275824-4471970256)">
<circle cx="105.0" cy="105.0" r="92" stroke="#DAA05D" stroke-width="16" fill="none" />
<circle cx="105.0" cy="105.0" r="98" stroke="#C37B32" stroke-width="5" fill="none" />
<circle cx="123.814805008619" cy="122.85281495440115" r="2.0718243673478387" fill="#8B4513" fill-opacity="0.2794850870438883" />
<circle cx="147.31327611301901" cy="161.19533792521605" r="5.601735723978023" fill="#FFFFFF" fill-opacity="0.36463976161926476" />
<circle cx="87.94718024359365" cy="26.554031277473058" r="4.652301249811041" fill="#D2691E" fill-opacity="0.4136685973581108" />
<circle cx="64.62404683235911" cy="174.42716436687527" r="2.7006252772710386" fill="#8B4513" fill-opacity="0.4905816360668241" />
<circle cx="141.73708304500474" cy="103.69134067938883" r="2.811644670392333" fill="#FFDE75" fill-opacity="0.3290368279487722" />
<circle cx="108.33540707702502" cy="78.36006560364564" r="2.080537209859098" fill="#FFDE75" fill-opacity="0.5119302288339134" />
<circle cx="112.35566210894538" cy="66.04792078672635" r="2.037594597582284" fill="#8B4513" fill-opacity="0.4476489673311822" />
<circle cx="93.64492541598011" cy="104.38765110083679" r="5.6556374011489465" fill="#FFFFFF" fill-opacity="0.4043364920526182" />
<circle cx="99.35536269826162" cy="174.02695231522347" r="4.821832275972321" fill="#8B4513" fill-opacity="0.2920600255152017" />
<circle cx="51.28509650009413" cy="54.874102641303715" r="2.820688952470965" fill="#D2691E" fill-opacity="0.5411492528076154" />
<circle cx="84.81371504958544" cy="126.30115463375496" r="3.8555677601945977" fill="#D2691E" fill-opacity="0.356108131364802" />
<circle cx="59.044564418516714" cy="121.81332250324739" r="3.093800454750048" fill="#8B4513" fill-opacity="0.3148953677964882" />
<circle cx="165.11183583264722" cy="110.73172797583675" r="5.639300652116447" fill="#FFFFFF" fill-opacity="0.5805183557276281" />
<circle cx="143.14519562258067" cy="121.1347696178376" r="4.814326440085662" fill="#FFFFFF" fill-opacity="0.2406877786102264" />
<circle cx="164.73846070091142" cy="147.5108236600486" r="4.996516653947052" fill="#D2691E" fill-opacity="0.46167395864647587" />
<circle cx="68.9384735385494" cy="135.24537732667565" r="5.59311771617241" fill="#FFFFFF" fill-opacity="0.43078831706952303" />
<circle cx="70.61779169329532" cy="142.61894849820197" r="3.9778266928078474" fill="#D2691E" fill-opacity="0.5301796929073284" />
<circle cx="62.912553084869074" cy="101.44372969011228" r="3.3991911129940595" fill="#FFFFFF" fill-opacity="0.22439607950222148" />
<circle cx="90.85462440899873" cy="125.05678454673556" r="3.2843668548497695" fill="#D2691E" fill-opacity="0.4236162533172616" />
<circle cx="72.64269826830372" cy="136.98763177354294" r="3.0043665065296645" fill="#8B4513" fill-opacity="0.36650250684699576" />
<circle cx="119.04956676268108" cy="134.38091707024086" r="5.851834665590289" fill="#FFFFFF" fill-opacity="0.3084535449338906" />
<circle cx="99.38227288418024" cy="174.1267902280719" r="5.674508105839172" fill="#FFDE75" fill-opacity="0.2724779348989056" />
<circle cx="106.89342500451383" cy="140.35167669954305" r="4.848809452671415" fill="#D2691E" fill-opacity="0.2872093368330576" />
<circle cx="149.02110922794324" cy="43.489518839717405" r="2.4544194633282848" fill="#FFFFFF" fill-opacity="0.43299497035070234" />
<circle cx="86.848749969293" cy="49.67628924495136" r="3.759895285997367" fill="#FFDE75" fill-opacity="0.2180068320443425" />
<circle cx="103.42471701164229" cy="134.63198065894068" r="3.6421914087825136" fill="#D2691E" fill-opacity="0.30544917571806146" />
<circle cx="143.93844415989219" cy="96.04991691226591" r="2.385755087415573" fill="#FFFFFF" fill-opacity="0.28456798354832646" />
<circle cx="75.88009519172329" cy="120.76679561566976" r="5.163332695378427" fill="#D2691E" fill-opacity="0.2819927309339656" />
<circle cx="25.643870420422544" cy="131.28226518555817" r="5.192785510167079" fill="#8B4513" fill-opacity="0.5204271205106863" />
<circle cx="87.8759039489149" cy="45.20136849325424" r="3.825189549143545" fill="#FFFFFF" fill-opacity="0.4492809582909859" />
<circle cx="183.8785177504151" cy="92.55740924523933" r="3.686675230497572" fill="#8B4513" fill-opacity="0.2288516134241063" />
<circle cx="47.88905295699692" cy="145.7029785079742" r="5.403524179293491" fill="#FFFFFF" fill-opacity="0.4358473748917726" />
<circle cx="86.65883461220297" cy="61.49785111930027" r="5.493354550402797" fill="#FFDE75" fill-opacity="0.5710145753714817" />
<circle cx="76.98139056073332" cy="59.73904581116243" r="5.477439005204333" fill="#FFDE75" fill-opacity="0.5143566699922972" />
<circle cx="131.04470504779843" cy="30.26936249606807" r="5.772114551588229" fill="#FFDE75" fill-opacity="0.3609975363102983" />
<circle cx="74.5549866002522" cy="30.76088278747983" r="4.226754696040809" fill="#FFFFFF" fill-opacity="0.20641361474657507" />
<circle cx="78.39380910532222" cy="72.63078602851952" r="2.635146577003445" fill="#FFFFFF" fill-opacity="0.4412295198362184" />
<circle cx="123.65667200088845" cy="34.76309341154359" r="3.7733017892904557" fill="#FFDE75" fill-opacity="0.3201973783246962" />
<circle cx="131.148218163034" cy="158.67708842511632" r="4.859496799630439" fill="#FFDE75" fill-opacity="0.2654895983966009" />
<circle cx="86.39766071401536" cy="37.47218232448573" r="3.973963437548756" fill="#FFFFFF" fill-opacity="0.26477648541322407" />
<circle cx="183.06808085349766" cy="138.38615762903908" r="2.902969112247546" fill="#D2691E" fill-opacity="0.40514711063336584" />
<circle cx="140.7004241598329" cy="49.08583794508309" r="5.663296069018511" fill="#D2691E" fill-opacity="0.42923888793169573" />
<circle cx="103.13408760793018" cy="36.5826805522767" r="5.716167340882423" fill="#8B4513" fill-opacity="0.20336977992080799" />
<circle cx="37.80585013940774" cy="136.6864634491844" r="3.653773252128609" fill="#8B4513" fill-opacity="0.3228645444576459" />
<circle cx="137.06080305254216" cy="161.78861629387913" r="3.87149707725675" fill="#FFFFFF" fill-opacity="0.5150251682626548" />
<circle cx="157.99669004067906" cy="64.27410826155284" r="4.480486016547701" fill="#FFFFFF" fill-opacity="0.43329540630374563" />
<circle cx="105.99814880261329" cy="159.01229283860704" r="5.233858682241673" fill="#FFFFFF" fill-opacity="0.24652125914986184" />
<circle cx="132.01253745675731" cy="65.28474782739703" r="4.110430300162485" fill="#FFFFFF" fill-opacity="0.577214189854665" />
<circle cx="155.33671730597723" cy="48.67374117866309" r="5.273241651758415" fill="#8B4513" fill-opacity="0.24252511671473012" />
<circle cx="77.94274551697121" cy="174.33556600003112" r="3.5727924888608085" fill="#8B4513" fill-opacity="0.5281095021647426" />
<circle cx="134.12710111763735" cy="57.372878349758764" r="5.781258317999388" fill="#FFDE75" fill-opacity="0.30451547746304103" />
<circle cx="156.0687304787315" cy="73.60013265932717" r="2.543051818324199" fill="#D2691E" fill-opacity="0.2059179507468384" />
<circle cx="128.1970816766738" cy="138.9607787325802" r="4.745675463007618" fill="#FFFFFF" fill-opacity="0.25619016074022294" />
<circle cx="125.04359032134174" cy="55.62360800742141" r="3.2353871639042526" fill="#D2691E" fill-opacity="0.29100669947687974" />
<circle cx="45.034983972996706" cy="84.90709140649189" r="3.4957310182720756" fill="#FFFFFF" fill-opacity="0.23519196006945978" />
<circle cx="140.16673609518753" cy="72.37201426006943" r="3.016797255951738" fill="#D2691E" fill-opacity="0.3655662437679902" />
<circle cx="62.344139131460736" cy="154.7576327513816" r="5.0436484142119475" fill="#FFDE75" fill-opacity="0.2842066218123966" />
<circle cx="180.16042401465444" cy="138.40940235593857" r="5.213733288985254" fill="#8B4513" fill-opacity="0.5348305390711283" />
<circle cx="125.12863432467375" cy="104.21732420064977" r="2.77570124417078" fill="#FFFFFF" fill-opacity="0.416731147983139" />
<circle cx="102.88902775336207" cy="186.99231113750764" r="2.0995176564722984" fill="#8B4513" fill-opacity="0.3865190902014828" />
<circle cx="28.017173129700637" cy="134.03269255880394" r="2.1747309223265794" fill="#D2691E" fill-opacity="0.5855269528963353" />
<circle cx="125.4305535981345" cy="159.74136085313697" r="4.804535422452519" fill="#8B4513" fill-opacity="0.5815291281104856" />
<circle cx="100.29272391437564" cy="153.3999263184914" r="4.36674401625945" fill="#D2691E" fill-opacity="0.4527801196119854" />
<circle cx="168.56619163971655" cy="159.87059093804274" r="3.578459100751435" fill="#FFFFFF" fill-opacity="0.5270204322938095" />
<circle cx="108.79675220437254" cy="52.03275720253235" r="2.184577743123924" fill="#8B4513" fill-opacity="0.4030727111802679" />
<circle cx="128.21558333381313" cy="107.02829072254454" r="3.694082050430531" fill="#D2691E" fill-opacity="0.32734404093201025" />
<circle cx="103.88116254392867" cy="21.859780691638576" r="2.7128320622451523" fill="#FFFFFF" fill-opacity="0.4038042722073144" />
<circle cx="88.08500788666176" cy="104.27946105735398" r="2.997486069983845" fill="#FFFFFF" fill-opacity="0.3480331997497992" />
<circle cx="117.26775967572289" cy="119.63312106366541" r="2.3027820208627503" fill="#FFFFFF" fill-opacity="0.4953903327241603" />
<circle cx="76.19654114371303" cy="26.149234199197025" r="2.149863748693366" fill="#D2691E" fill-opacity="0.42017495287784706" />
<circle cx="159.33193598772877" cy="47.13507715928125" r="4.629034412744033" fill="#8B4513" fill-opacity="0.45758624664774344" />
<circle cx="152.80798241611367" cy="58.46684113853999" r="5.017725223056258" fill="#FFDE75" fill-opacity="0.5825423503506753" />
<circle cx="162.43561504996285" cy="112.26736193223016" r="5.934686298069928" fill="#D2691E" fill-opacity="0.45108337990386566" />
<circle cx="121.54680210188414" cy="112.96607291961949" r="2.9508135724040576" fill="#FFDE75" fill-opacity="0.37637683698511676" />
<circle cx="96.2327177109581" cy="81.25488560303282" r="2.12722833054122" fill="#FFDE75" fill-opacity="0.4328843943690177" />
<circle cx="29.760477125233564" cy="69.01058759330752" r="3.4080096949082157" fill="#FFFFFF" fill-opacity="0.5667817401789563" />
<circle cx="116.28136974548298" cy="40.231291108757446" r="5.847914691572019" fill="#D2691E" fill-opacity="0.5656849598444402" />
<circle cx="27.198025757121343" cy="114.59854150422524" r="4.240707293256618" fill="#FFFFFF" fill-opacity="0.3718840681317386" />
<circle cx="52.22021927810942" cy="63.63649755004787" r="4.28114387432371" fill="#D2691E" fill-opacity="0.21539792873238126" />
<circle cx="128.85326354399984" cy="43.993595255340864" r="3.135110791108338" fill="#FFDE75" fill-opacity="0.2853333410835103" />
<circle cx="125.03633254200366" cy="158.71803245718743" r="3.1570840573414913" fill="#FFFFFF" fill-opacity="0.5800227042209962" />
<circle cx="178.75697766273998" cy="146.9734209600828" r="5.283418002821515" fill="#FFFFFF" fill-opacity="0.21128657770597084" />
<circle cx="97.19190269862311" cy="34.235703207359734" r="4.6227774324099995" fill="#FFDE75" fill-opacity="0.26253734331043976" />
<circle cx="152.49236796386793" cy="37.81443256184103" r="2.6412658910197604" fill="#D2691E" fill-opacity="0.29904507487173937" />
<circle cx="126.49451885229507" cy="167.07094261476269" r="5.47720683187929" fill="#8B4513" fill-opacity="0.3337483870578931" />
<circle cx="173.37853728067597" cy="120.7426944265459" r="2.251919877572809" fill="#D2691E" fill-opacity="0.36484166710725646" />
<circle cx="51.12109267850797" cy="76.05801588395029" r="4.795047197466101" fill="#FFDE75" fill-opacity="0.3445415450899491" />
<circle cx="140.63588392561144" cy="101.58873576423781" r="3.1990208584336086" fill="#D2691E" fill-opacity="0.30283231721357884" />
<circle cx="35.73573740496265" cy="112.28262122957432" r="3.0789089585820175" fill="#8B4513" fill-opacity="0.4426785570532624" />
<circle cx="57.125413229816864" cy="157.1645504133493" r="4.673914005073063" fill="#D2691E" fill-opacity="0.2213902246420989" />
<circle cx="164.03609627457536" cy="145.743336792114" r="5.862743115833412" fill="#FFDE75" fill-opacity="0.5552143453345912" />
<circle cx="84.85067301432585" cy="53.73726519152413" r="4.033848269938269" fill="#FFFFFF" fill-opacity="0.5696641646978218" />
<circle cx="79.65046984980273" cy="119.85255383524465" r="3.9365351730313938" fill="#FFFFFF" fill-opacity="0.20343900266544362" />
<circle cx="141.60021453621803" cy="138.924707809559" r="5.187028694039057" fill="#FFFFFF" fill-opacity="0.5072366736912746" />
<circle cx="108.22241762936189" cy="44.761632600454575" r="5.898128358081542" fill="#FFDE75" fill-opacity="0.41094032126872027" />
<circle cx="90.28700299968666" cy="89.04475430789702" r="4.066260543495752" fill="#FFDE75" fill-opacity="0.425509319474178" />
<circle cx="131.10487870751615" cy="77.36916682956294" r="3.4436789277811846" fill="#FFFFFF" fill-opacity="0.3632857247656598" />
<circle cx="154.16178684524562" cy="146.29275793522544" r="2.4863914111616365" fill="#8B4513" fill-opacity="0.5952302332146502" />
<circle cx="170.99200680955562" cy="139.32259689013097" r="5.832502378474979" fill="#FFDE75" fill-opacity="0.5029827510674809" />
<circle cx="70.63340110766936" cy="100.42814635529619" r="3.2555975846069742" fill="#FFDE75" fill-opacity="0.37015130819141295" />
<circle cx="144.23621560352515" cy="163.43064765560413" r="2.8804226587491413" fill="#FFDE75" fill-opacity="0.2863660473130808" />
<circle cx="107.81231020984536" cy="169.11010391520315" r="2.408625067353877" fill="#8B4513" fill-opacity="0.4618387490074121" />
<circle cx="81.02626003256569" cy="44.19632612807651" r="5.946191846856253" fill="#D2691E" fill-opacity="0.3966754205434383" />
<circle cx="175.89213109332044" cy="97.81094477663378" r="2.633891518550547" fill="#FFDE75" fill-opacity="0.3392726252052246" />
<circle cx="82.32056738697551" cy="26.605905082136942" r="5.344158713856164" fill="#FFFFFF" fill-opacity="0.2810905726533953" />
<circle cx="68.04897408843286" cy="157.24943873178182" r="4.679046564538218" fill="#FFFFFF" fill-opacity="0.46659731688506934" />
<circle cx="93.44772164081459" cy="81.19035563135205" r="2.735084648561917" fill="#D2691E" fill-opacity="0.4832400349423474" />
<circle cx="180.0179297098963" cy="93.35865212726394" r="2.1814043221337687" fill="#FFDE75" fill-opacity="0.33195734903141993" />
<circle cx="130.4125424455534" cy="120.31827231472462" r="4.244204902915904" fill="#FFDE75" fill-opacity="0.3283807988378248" />
<circle cx="153.81282137296301" cy="45.46092656244268" r="2.281187438551135" fill="#D2691E" fill-opacity="0.4024894013049122" />
<circle cx="166.06111461733298" cy="72.38404749481174" r="5.7456094305931895" fill="#8B4513" fill-opacity="0.22206541775325972" />
<circle cx="127.28077493226719" cy="136.96840084771216" r="3.7617100491384434" fill="#FFDE75" fill-opacity="0.5813319989678787" />
<circle cx="148.54709939546734" cy="112.94740485246882" r="3.614635306294604" fill="#FFFFFF" fill-opacity="0.5668370340557642" />
<circle cx="60.63549369231941" cy="142.81644146820025" r="2.390126372846662" fill="#D2691E" fill-opacity="0.3747610172819915" />
<circle cx="33.78553943491927" cy="79.07340135970279" r="5.23090555379287" fill="#FFFFFF" fill-opacity="0.46814256388173714" />
<circle cx="79.17731866325538" cy="124.59931096107071" r="5.187867669243634" fill="#FFDE75" fill-opacity="0.47570690723604714" />
<circle cx="108.5554203224499" cy="46.10360504268984" r="4.606361751477104" fill="#FFFFFF" fill-opacity="0.5216693558537651" />
<circle cx="157.16417685615127" cy="152.7801139965933" r="3.9968894523464007" fill="#8B4513" fill-opacity="0.5695007187311427" />
<circle cx="129.38644428322124" cy="47.08559652712666" r="4.19969329893711" fill="#FFDE75" fill-opacity="0.38377472797427803" />
<circle cx="166.75084439258913" cy="98.03681919689771" r="2.8466472982714164" fill="#FFDE75" fill-opacity="0.2679185454257532" />
<ellipse cx="176.52675312607266" cy="106.06052272718875" rx="6.24828749959633" ry="4.043716363062088" fill="#FFFDF0" fill-opacity="0.6" />
<ellipse cx="177.39185834152985" cy="106.14569345006613" rx="2.5132107333040716" ry="3.7376810036542594" fill="#FFFFFF" fill-opacity="0.85" />
<ellipse cx="102.90532778547772" cy="36.884726957279625" rx="7.846377860175688" ry="4.082277975202806" fill="#FFFDF0" fill-opacity="0.6" />
<ellipse cx="102.76272415065897" cy="37.148027976734795" rx="4.30249305605104" ry="3.8448235646310804" fill="#FFFFFF" fill-opacity="0.85" />
<ellipse cx="169.04437340051942" cy="141.28708955206955" rx="8.911309241063018" ry="8.243710100994292" fill="#FFFDF0" fill-opacity="0.6" />
<ellipse cx="168.2106822281034" cy="142.2632774886158" rx="2.2483560514315912" ry="3.7452100866134326" fill="#FFFFFF" fill-opacity="0.85" />
<ellipse cx="159.044262218469" cy="104.84654379498673" rx="9.624749744055705" ry="4.718401850028833" fill="#FFFDF0" fill-opacity="0.6" />
<ellipse cx="159.5049262218827" cy="104.00620752009749" rx="2.354430625799269" ry="2.0903293406871004" fill="#FFFFFF" fill-opacity="0.85" />
<ellipse cx="105.80192401538764" cy="137.36019025252494" rx="6.002388073778817" ry="7.7934679322265765" fill="#FFFDF0" fill-opacity="0.6" />
<ellipse cx="106.09793607342834" cy="137.3265376188017" rx="4.090990304633991" ry="2.922484917593249" fill="#FFFFFF" fill-opacity="0.85" />
<ellipse cx="131.45690864500517" cy="45.33196596838443" rx="6.36164947165862" ry="8.81660656759719" fill="#FFFDF0" fill-opacity="0.6" />
<ellipse cx="130.56032704145755" cy="44.4024825521519" rx="3.9474419571568085" ry="3.9224231992572314" fill="#FFFFFF" fill-opacity="0.85" />
<ellipse cx="113.11278046052823" cy="146.32453376184748" rx="9.610240367851056" ry="8.09095518470469" fill="#FFFDF0" fill-opacity="0.6" />
<ellipse cx="112.27337813301179" cy="145.73550082080337" rx="2.1358722624611493" ry="3.9191885227383167" fill="#FFFFFF" fill-opacity="0.85" />
<ellipse cx="38.06529826289771" cy="133.0371799743104" rx="8.792380819149898" ry="6.207437765152644" fill="#FFFDF0" fill-opacity="0.6" />
<ellipse cx="37.14407872859967" cy="133.782734043949" rx="3.895784797010651" ry="2.965063803962898" fill="#FFFFFF" fill-opacity="0.85" />
<ellipse cx="30.508255840798995" cy="120.68492973678487" rx="9.10433863281802" ry="5.7037118417385315" fill="#FFFDF0" fill-opacity="0.6" />
<ellipse cx="31.49097994369853" cy="121.05810602148036" rx="4.746399167678061" ry="3.2765165713577886" fill="#FFFFFF" fill-opacity="0.85" />
<ellipse cx="45.13415805530285" cy="144.76599473695114" rx="9.57115486725179" ry="8.423558667596932" fill="#FFFDF0" fill-opacity="0.6" />
<ellipse cx="45.42121587198511" cy="145.19571288565456" rx="4.147674974083384" ry="2.1624052267094616" fill="#FFFFFF" fill-opacity="0.85" />
<ellipse cx="24.176671498631976" cy="97.69675211910807" rx="6.646158112171143" ry="4.391182267012493" fill="#FFFDF0" fill-opacity="0.6" />
<ellipse cx="24.803310210142214" cy="96.84249893888426" rx="4.046498626414429" ry="3.6597409527002616" fill="#FFFFFF" fill-opacity="0.85" />
<ellipse cx="102.899484483542" cy="110.44358462904461" rx="6.443599814862187" ry="8.05347497717516" fill="#FFFDF0" fill-opacity="0.6" />
<ellipse cx="102.95462015949354" cy="109.82949086609582" rx="3.971578568843964" ry="3.274527332755262" fill="#FFFFFF" fill-opacity="0.85" />
<ellipse cx="136.71309943278902" cy="179.24408551460408" rx="5.799626072305683" ry="5.225386631314517" fill="#FFFDF0" fill-opacity="0.6" />
<ellipse cx="136.45482795471074" cy="179.7350206500743" rx="4.996439061760298" ry="3.564011042216058" fill="#FFFFFF" fill-opacity="0.85" />
<ellipse cx="110.10741706231975" cy="153.00642589508683" rx="7.723304666062468" ry="4.011388097346511" fill="#FFFDF0" fill-opacity="0.6" />
<ellipse cx="110.62764662206384" cy="152.4124621512333" rx="4.674641282242056" ry="2.5746116700006363" fill="#FFFFFF" fill-opacity="0.85" />
<ellipse cx="77.63213051104097" cy="88.65262828640496" rx="6.439345813172282" ry="5.003081966949277" fill="#FFFDF0" fill-opacity="0.6" />
<ellipse cx="78.3969816427237" cy="88.79823112827829" rx="4.709220035537172" ry="3.783335245314439" fill="#FFFFFF" fill-opacity="0.85" />
<ellipse cx="54.52527281309712" cy="50.75901009889736" rx="8.080557539099006" ry="7.168187612641396" fill="#FFFDF0" fill-opacity="0.6" />
<ellipse cx="55.1056754482397" cy="50.879032547738554" rx="2.751399391928137" ry="3.096702823791863" fill="#FFFFFF" fill-opacity="0.85" />
<ellipse cx="119.92674271753201" cy="137.17579852923384" rx="5.142431265202708" ry="5.676509789891073" fill="#FFFDF0" fill-opacity="0.6" />
<ellipse cx="120.67895902990944" cy="136.94493024448266" rx="2.8499890786285795" ry="2.1515404139118157" fill="#FFFFFF" fill-opacity="0.85" />
<ellipse cx="134.33581446749648" cy="117.22588923763469" rx="7.493427562698488" ry="8.252691008818509" fill="#FFFDF0" fill-opacity="0.6" />
<ellipse cx="134.66593081189808" cy="118.15423357493253" rx="4.774987729606212" ry="2.318198451946561" fill="#FFFFFF" fill-opacity="0.85" />
<ellipse cx="120.90080628556522" cy="149.2155115474484" rx="6.423971598985146" ry="4.804161616714047" fill="#FFFDF0" fill-opacity="0.6" />
<ellipse cx="121.0934466722885" cy="149.79488491680058" rx="3.041634282633253" ry="3.7445345533335104" fill="#FFFFFF" fill-opacity="0.85" />
<ellipse cx="160.53665127919183" cy="110.20712507084102" rx="5.723387050735227" ry="6.448838240543678" fill="#FFFDF0" fill-opacity="0.6" />
<ellipse cx="159.5567260194653" cy="109.28052015150325" rx="4.9898871764215595" ry="2.9686897037518465" fill="#FFFFFF" fill-opacity="0.85" />
<ellipse cx="78.26948288064364" cy="92.37208036970884" rx="8.761920550681465" ry="6.468371199806419" fill="#FFFDF0" fill-opacity="0.6" />
<ellipse cx="78.29127926198825" cy="92.20248761474663" rx="2.698284867199293" ry="2.3182516332912675" fill="#FFFFFF" fill-opacity="0.85" />
<ellipse cx="58.71936241927937" cy="83.1572288546412" rx="8.563417788897187" ry="7.578854301915619" fill="#FFFDF0" fill-opacity="0.6" />
<ellipse cx="59.48868703638949" cy="83.70761613239198" rx="3.5433465306707443" ry="2.3112026296215182" fill="#FFFFFF" fill-opacity="0.85" />
<ellipse cx="155.41161149179" cy="168.61330786841026" rx="8.963091755726923" ry="7.200808036342247" fill="#FFFDF0" fill-opacity="0.6" />
<ellipse cx="154.59502855180318" cy="168.9512090567403" rx="2.670949214261314" ry="2.6844601084031083" fill="#FFFFFF" fill-opacity="0.85" />
<ellipse cx="147.39219233269998" cy="160.45168591680738" rx="8.936997992267582" ry="7.160155651149395" fill="#FFFDF0" fill-opacity="0.6" />
<ellipse cx="146.64656160312762" cy="160.70290427224958" rx="3.298507107215036" ry="2.7375179063230037" fill="#FFFFFF" fill-opacity="0.85" />
</g>
<path d="M105.0,105.0 L105.0,5.0" stroke="lightgray" stroke-width="2" />
<path d="M105.0,105.0 L175.71067811865476,34.28932188134526" stroke="lightgray" stroke-width="2" />
<path d="M105.0,105.0 L205.0,105.0" stroke="lightgray" stroke-width="2" />
<path d="M105.0,105.0 L175.71067811865476,175.71067811865476" stroke="lightgray" stroke-width="2" />
<path d="M105.0,105.0 L105.0,205.0" stroke="lightgray" stroke-width="2" />
<path d="M105.0,105.0 L34.28932188134526,175.71067811865476" stroke="lightgray" stroke-width="2" />
<path d="M105.0,105.0 L5.0,105.00000000000001" stroke="lightgray" stroke-width="2" />
<path d="M105.0,105.0 L34.28932188134523,34.28932188134526" stroke="lightgray" stroke-width="2" />
<circle cx="105.0" cy="105.0" r="100" fill="none" stroke="lightgray" stroke-width="2" />
</g>
</svg>
<svg x="450.0" y="0.0" width="284.0" height="210.0" viewBox="0 0 284.0 210" xmlns="http://www.w3.org/2000/svg" xmlns:xlink="http://www.w3.org/1999/xlink">
<defs>
<clipPath id="clip-4535154544-4535505232">
<path d="M105.0,105.0 L105.0,5.0 A100,100,0,0,1,175.71067811865476,34.28932188134526 Z" fill="none" />
</clipPath>
<clipPath id="clip-4535154544-4535507408">
<path d="M105.0,105.0 L175.71067811865476,34.28932188134526 A100,100,0,0,1,205.0,105.0 Z" fill="none" />
</clipPath>
<clipPath id="clip-4535154544-4536260688">
<path d="M105.0,105.0 L205.0,105.0 A100,100,0,0,1,175.71067811865476,175.71067811865476 Z" fill="none" />
</clipPath>
<clipPath id="clip-4535154544-4535813712">
<path d="M105.0,105.0 L175.71067811865476,175.71067811865476 A100,100,0,0,1,105.0,205.0 Z" fill="none" />
</clipPath>
</defs>
<g>
<path d="M105.0,105.0 L105.0,5.0 A100,100,0,0,1,175.71067811865476,34.28932188134526 Z" fill="none" stroke="lightgray" stroke-width="2" />
<path d="M105.0,105.0 L175.71067811865476,34.28932188134526 A100,100,0,0,1,205.0,105.0 Z" fill="none" stroke="lightgray" stroke-width="2" />
<path d="M105.0,105.0 L205.0,105.0 A100,100,0,0,1,175.71067811865476,175.71067811865476 Z" fill="none" stroke="lightgray" stroke-width="2" />
<path d="M105.0,105.0 L175.71067811865476,175.71067811865476 A100,100,0,0,1,105.0,205.0 Z" fill="none" stroke="lightgray" stroke-width="2" />
<path d="M105.0,105.0 L105.0,205.0 A100,100,0,0,1,34.28932188134526,175.71067811865476 Z" fill="none" stroke="lightgray" stroke-width="2" />
<path d="M105.0,105.0 L34.28932188134526,175.71067811865476 A100,100,0,0,1,5.0,105.00000000000001 Z" fill="none" stroke="lightgray" stroke-width="2" />
<path d="M105.0,105.0 L5.0,105.00000000000001 A100,100,0,0,1,34.28932188134523,34.28932188134526 Z" fill="none" stroke="lightgray" stroke-width="2" />
<path d="M105.0,105.0 L34.28932188134523,34.28932188134526 A100,100,0,0,1,104.99999999999999,5.0 Z" fill="none" stroke="lightgray" stroke-width="2" />
<path d="M105.0,105.0 L105.0,5.0 A100,100,0,0,1,175.71067811865476,34.28932188134526 Z" fill="#F5C754" stroke="lightgray" stroke-width="2" />
<use xlink:href="#clip-4535154544-4535505232" />
<g clip-path="url(#clip-4535154544-4535505232)">
<circle cx="105.0" cy="105.0" r="92" stroke="#DAA05D" stroke-width="16" fill="none" />
<circle cx="105.0" cy="105.0" r="98" stroke="#C37B32" stroke-width="5" fill="none" />
<circle cx="172.9605903441696" cy="102.07843917076761" r="5.258782366624722" fill="#FFFFFF" fill-opacity="0.5720284100069768" />
<circle cx="183.04440524295876" cy="87.87433532446755" r="5.228543002690693" fill="#8B4513" fill-opacity="0.201009318467376" />
<circle cx="153.44335525393953" cy="87.97796672895163" r="3.249246507122202" fill="#FFDE75" fill-opacity="0.3658474776955374" />
<circle cx="54.37294047965506" cy="165.72487515470863" r="5.849134119204657" fill="#8B4513" fill-opacity="0.44150371951963896" />
<circle cx="50.22178505635201" cy="78.30456937274506" r="5.33720624319056" fill="#D2691E" fill-opacity="0.5704438563090324" />
<circle cx="123.9970068692524" cy="74.27567048903897" r="5.211516041877383" fill="#FFDE75" fill-opacity="0.4254858244456253" />
<circle cx="137.02294127034486" cy="36.12074010313209" r="2.5595297012396556" fill="#FFFFFF" fill-opacity="0.2619855929442497" />
<circle cx="114.40802744603913" cy="72.50519809816564" r="4.902471773089825" fill="#FFDE75" fill-opacity="0.32321649889819337" />
<circle cx="68.1996700659142" cy="179.6739710409327" r="4.4107542683989625" fill="#8B4513" fill-opacity="0.4596773554020005" />
<circle cx="136.7595299345851" cy="100.35489300490754" r="4.080056719450647" fill="#FFDE75" fill-opacity="0.4255094371725512" />
<circle cx="128.68523022993213" cy="112.52170551129666" r="2.759063930140631" fill="#FFDE75" fill-opacity="0.4510057994209102" />
<circle cx="172.2145169772174" cy="124.18511390544833" r="3.2698379234003365" fill="#FFDE75" fill-opacity="0.32414452630023555" />
<circle cx="151.2868221439466" cy="175.98788531985548" r="3.4218009348125897" fill="#FFFFFF" fill-opacity="0.3414622339142154" />
<circle cx="98.5576597923299" cy="87.0730927665149" r="4.069159496094935" fill="#FFDE75" fill-opacity="0.23206600002144495" />
<circle cx="52.48765895124552" cy="119.31295695636987" r="4.835410865358962" fill="#FFFFFF" fill-opacity="0.3096663952619346" />
<circle cx="54.90295176296056" cy="108.32144580095932" r="5.135694369631702" fill="#8B4513" fill-opacity="0.30824512636501045" />
<circle cx="143.14860816694147" cy="59.431859869126235" r="5.003557900560578" fill="#FFDE75" fill-opacity="0.5627899152405351" />
<circle cx="58.11905393109461" cy="51.44406631959352" r="3.723893613109246" fill="#8B4513" fill-opacity="0.5464817618374331" />
<circle cx="111.75703734436863" cy="114.90803520641289" r="4.4092823298540305" fill="#8B4513" fill-opacity="0.39320675331981514" />
<circle cx="145.94480150645705" cy="85.12846998759656" r="4.577745078269395" fill="#D2691E" fill-opacity="0.2932038181564698" />
<circle cx="121.8334055955091" cy="85.2629135012321" r="3.009972640201704" fill="#FFFFFF" fill-opacity="0.544139267976999" />
<circle cx="51.486837419062354" cy="141.18846128588467" r="3.222438063945429" fill="#FFDE75" fill-opacity="0.24619347331978003" />
<circle cx="137.93014391286664" cy="39.535270157030595" r="4.501085395279256" fill="#FFDE75" fill-opacity="0.5829269151088281" />
<circle cx="127.3800932916208" cy="97.77853105125766" r="4.341636571618956" fill="#FFDE75" fill-opacity="0.5079993963018559" />
<circle cx="129.04810114854763" cy="148.04007287453973" r="3.586757489314592" fill="#D2691E" fill-opacity="0.27472116939027363" />
<circle cx="142.00579103073323" cy="116.9559394229313" r="4.99376631020665" fill="#FFDE75" fill-opacity="0.4116129051887756" />
<circle cx="46.138309510153775" cy="110.63754819498692" r="4.492426822572082" fill="#D2691E" fill-opacity="0.44351690409123234" />
<circle cx="120.00459382831886" cy="185.47379252855512" r="3.1130044669783326" fill="#8B4513" fill-opacity="0.24737765415734547" />
<circle cx="145.64794123057644" cy="173.40578749017618" r="3.096131574898915" fill="#FFFFFF" fill-opacity="0.5198440134898692" />
<circle cx="149.92938821019746" cy="83.52259973443003" r="4.918371664665756" fill="#8B4513" fill-opacity="0.5712543231279256" />
<circle cx="167.21208081331528" cy="142.79181406032225" r="5.938399697311622" fill="#FFDE75" fill-opacity="0.36641888131848793" />
<circle cx="117.08475195550312" cy="131.0919123128766" r="5.992726576662485" fill="#FFFFFF" fill-opacity="0.4071983681446162" />
<circle cx="100.80838062449122" cy="161.82074278128408" r="3.9989216264640555" fill="#FFFFFF" fill-opacity="0.5041187413300645" />
<circle cx="141.52828508136838" cy="101.82111375533326" r="4.546795946717195" fill="#FFFFFF" fill-opacity="0.35876206518023457" />
<circle cx="119.86122456335471" cy="154.16846478285532" r="3.768257461596063" fill="#FFFFFF" fill-opacity="0.373773591705274" />
<circle cx="49.865000420268714" cy="72.26844290169326" r="3.6616922900395314" fill="#D2691E" fill-opacity="0.28785025463828384" />
<circle cx="105.13717754627578" cy="135.07529224634877" r="3.1864505021393033" fill="#FFDE75" fill-opacity="0.4508872160516913" />
<circle cx="107.33750094763094" cy="75.87316883227982" r="5.854759278791677" fill="#8B4513" fill-opacity="0.5306558802167322" />
<circle cx="75.54286667309958" cy="145.98886347588484" r="3.2243818109872495" fill="#8B4513" fill-opacity="0.4955900279769346" />
<circle cx="80.7855179273609" cy="130.08248216750553" r="2.3549612951394674" fill="#D2691E" fill-opacity="0.2747676825886001" />
<circle cx="28.829451537183942" cy="130.97215399024847" r="3.483219121360068" fill="#FFFFFF" fill-opacity="0.3554993000250483" />
<circle cx="128.4594367994116" cy="110.24287171541361" r="4.0112038098208656" fill="#FFFFFF" fill-opacity="0.2637579165299585" />
<circle cx="166.54753329404508" cy="75.12450625544415" r="4.877880234826145" fill="#FFDE75" fill-opacity="0.39691609326107713" />
<circle cx="131.0319059598059" cy="111.02842362585127" r="3.8702384012666933" fill="#D2691E" fill-opacity="0.5885812260443257" />
<circle cx="102.69476728971493" cy="141.90082887990567" r="5.147833824826959" fill="#8B4513" fill-opacity="0.2583494758319465" />
<circle cx="26.588050677574017" cy="111.09558446315798" r="2.2361416265388363" fill="#D2691E" fill-opacity="0.5840772550250719" />
<circle cx="62.12613700886123" cy="149.25975793226067" r="5.90405979086046" fill="#FFFFFF" fill-opacity="0.4893208443753648" />
<circle cx="160.9361179258242" cy="138.15890031720744" r="2.167989274187965" fill="#D2691E" fill-opacity="0.2976683455161645" />
<circle cx="92.8155316368275" cy="184.96943677470955" r="5.810073923899993" fill="#8B4513" fill-opacity="0.557113473913093" />
<circle cx="90.60965406716267" cy="140.7539547883063" r="4.350049306487572" fill="#FFDE75" fill-opacity="0.425359844667884" />
<circle cx="125.00472306124921" cy="73.23262797272025" r="2.7130879397351504" fill="#8B4513" fill-opacity="0.4003122888752881" />
<circle cx="143.37698914811074" cy="123.83174477638588" r="5.097779091882885" fill="#FFFFFF" fill-opacity="0.5101988249708002" />
<circle cx="173.71091731759026" cy="149.40507237969746" r="3.2521107680480155" fill="#D2691E" fill-opacity="0.4225010115264993" />
<circle cx="65.7836443434285" cy="144.5254308502895" r="3.920848190016703" fill="#8B4513" fill-opacity="0.5782770262953993" />
<circle cx="41.605012520178526" cy="68.57431453072411" r="3.406854130146734" fill="#8B4513" fill-opacity="0.5115539090895243" />
<circle cx="110.38885724706866" cy="114.42153742419805" r="4.813740218191558" fill="#D2691E" fill-opacity="0.3864509259008552" />
<circle cx="59.05882527969512" cy="81.62445578063223" r="2.5063024179002524" fill="#D2691E" fill-opacity="0.33577980356413656" />
<circle cx="78.46233894674162" cy="171.00901409966644" r="3.03389254910865" fill="#D2691E" fill-opacity="0.5604540900624035" />
<circle cx="29.903950533646636" cy="71.17177940497393" r="3.3426012390767" fill="#8B4513" fill-opacity="0.34642035417019995" />
<circle cx="132.1434239562465" cy="44.572273572539075" r="4.754675503089453" fill="#8B4513" fill-opacity="0.5420624767702049" />
<ellipse cx="85.79130153757501" cy="137.88053312356897" rx="6.152133185262242" ry="8.741621602697425" fill="#FFFDF0" fill-opacity="0.6" />
<ellipse cx="85.30163591233092" cy="137.2517109188172" rx="2.48536995573951" ry="2.8247497120492993" fill="#FFFFFF" fill-opacity="0.85" />
<ellipse cx="120.70307249875478" cy="157.438156807704" rx="6.199512344558167" ry="5.784991406388534" fill="#FFFDF0" fill-opacity="0.6" />
<ellipse cx="120.30912253265133" cy="156.95974739065585" rx="2.6965023500083105" ry="2.670452871217015" fill="#FFFFFF" fill-opacity="0.85" />
<ellipse cx="142.69204744675397" cy="139.22373882087453" rx="5.698970359751073" ry="6.865466280739066" fill="#FFFDF0" fill-opacity="0.6" />
<ellipse cx="143.03575083414765" cy="138.8181069922489" rx="2.7323290967270286" ry="3.9349939170076587" fill="#FFFFFF" fill-opacity="0.85" />
<ellipse cx="165.02281735387166" cy="112.33175094967135" rx="6.480589826346496" ry="4.405973569987278" fill="#FFFDF0" fill-opacity="0.6" />
<ellipse cx="164.6273986700947" cy="112.10464598210311" rx="4.429023626445806" ry="3.538495378219988" fill="#FFFFFF" fill-opacity="0.85" />
<ellipse cx="95.67079000865519" cy="150.69597431392657" rx="5.4456700771641815" ry="4.609957473970406" fill="#FFFDF0" fill-opacity="0.6" />
<ellipse cx="95.35304319961665" cy="150.41730149583884" rx="4.95606412752436" ry="2.6355593048478676" fill="#FFFFFF" fill-opacity="0.85" />
<ellipse cx="78.16909436309405" cy="122.76608187967241" rx="5.846163502625281" ry="7.318831722704514" fill="#FFFDF0" fill-opacity="0.6" />
<ellipse cx="78.33132986771469" cy="122.22811082117653" rx="2.504632322100325" ry="2.908744379685272" fill="#FFFFFF" fill-opacity="0.85" />
<ellipse cx="61.93094931740383" cy="142.589798580786" rx="9.311841433678282" ry="7.791278299075559" fill="#FFFDF0" fill-opacity="0.6" />
<ellipse cx="62.33205733052211" cy="143.12097079597004" rx="2.8666343950477042" ry="3.6609405426307244" fill="#FFFFFF" fill-opacity="0.85" />
<ellipse cx="99.89721882167002" cy="128.09508481640816" rx="5.4666048044912605" ry="7.262012018913385" fill="#FFFDF0" fill-opacity="0.6" />
<ellipse cx="100.64757963259446" cy="128.3879151925036" rx="4.614187891508784" ry="2.240185413750119" fill="#FFFFFF" fill-opacity="0.85" />
<ellipse cx="149.0612763421307" cy="116.24157959249686" rx="6.184868272594981" ry="8.691833129660036" fill="#FFFDF0" fill-opacity="0.6" />
<ellipse cx="149.8595630297183" cy="115.65096309152874" rx="2.306134119031728" ry="3.934591114386567" fill="#FFFFFF" fill-opacity="0.85" />
<ellipse cx="46.5207365969067" cy="109.14660292931232" rx="7.565010987462528" ry="5.47814515783329" fill="#FFFDF0" fill-opacity="0.6" />
<ellipse cx="46.958280001227564" cy="108.60855379160225" rx="2.5711361911641375" ry="3.3199668456710416" fill="#FFFFFF" fill-opacity="0.85" />
<ellipse cx="48.71396292964542" cy="119.53637532912875" rx="6.6400760658574285" ry="7.633634964879643" fill="#FFFDF0" fill-opacity="0.6" />
<ellipse cx="49.55961979592697" cy="120.52599593720693" rx="3.1782271418690398" ry="2.3790019017131208" fill="#FFFFFF" fill-opacity="0.85" />
<ellipse cx="165.3316094399475" cy="133.24239040069176" rx="9.939848217318605" ry="7.659674189918613" fill="#FFFDF0" fill-opacity="0.6" />
<ellipse cx="164.34665773553277" cy="132.2653417849175" rx="4.398706397531543" ry="3.010877053135081" fill="#FFFFFF" fill-opacity="0.85" />
</g>
<path d="M105.0,105.0 L175.71067811865476,34.28932188134526 A100,100,0,0,1,205.0,105.0 Z" fill="#F5C754" stroke="lightgray" stroke-width="2" />
<use xlink:href="#clip-4535154544-4535507408" />
<g clip-path="url(#clip-4535154544-4535507408)">
<circle cx="105.0" cy="105.0" r="92" stroke="#DAA05D" stroke-width="16" fill="none" />
<circle cx="105.0" cy="105.0" r="98" stroke="#C37B32" stroke-width="5" fill="none" />
<circle cx="172.9605903441696" cy="102.07843917076761" r="5.258782366624722" fill="#FFFFFF" fill-opacity="0.5720284100069768" />
<circle cx="183.04440524295876" cy="87.87433532446755" r="5.228543002690693" fill="#8B4513" fill-opacity="0.201009318467376" />
<circle cx="153.44335525393953" cy="87.97796672895163" r="3.249246507122202" fill="#FFDE75" fill-opacity="0.3658474776955374" />
<circle cx="54.37294047965506" cy="165.72487515470863" r="5.849134119204657" fill="#8B4513" fill-opacity="0.44150371951963896" />
<circle cx="50.22178505635201" cy="78.30456937274506" r="5.33720624319056" fill="#D2691E" fill-opacity="0.5704438563090324" />
<circle cx="123.9970068692524" cy="74.27567048903897" r="5.211516041877383" fill="#FFDE75" fill-opacity="0.4254858244456253" />
<circle cx="137.02294127034486" cy="36.12074010313209" r="2.5595297012396556" fill="#FFFFFF" fill-opacity="0.2619855929442497" />
<circle cx="114.40802744603913" cy="72.50519809816564" r="4.902471773089825" fill="#FFDE75" fill-opacity="0.32321649889819337" />
<circle cx="68.1996700659142" cy="179.6739710409327" r="4.4107542683989625" fill="#8B4513" fill-opacity="0.4596773554020005" />
<circle cx="136.7595299345851" cy="100.35489300490754" r="4.080056719450647" fill="#FFDE75" fill-opacity="0.4255094371725512" />
<circle cx="128.68523022993213" cy="112.52170551129666" r="2.759063930140631" fill="#FFDE75" fill-opacity="0.4510057994209102" />
<circle cx="172.2145169772174" cy="124.18511390544833" r="3.2698379234003365" fill="#FFDE75" fill-opacity="0.32414452630023555" />
<circle cx="151.2868221439466" cy="175.98788531985548" r="3.4218009348125897" fill="#FFFFFF" fill-opacity="0.3414622339142154" />
<circle cx="98.5576597923299" cy="87.0730927665149" r="4.069159496094935" fill="#FFDE75" fill-opacity="0.23206600002144495" />
<circle cx="52.48765895124552" cy="119.31295695636987" r="4.835410865358962" fill="#FFFFFF" fill-opacity="0.3096663952619346" />
<circle cx="54.90295176296056" cy="108.32144580095932" r="5.135694369631702" fill="#8B4513" fill-opacity="0.30824512636501045" />
<circle cx="143.14860816694147" cy="59.431859869126235" r="5.003557900560578" fill="#FFDE75" fill-opacity="0.5627899152405351" />
<circle cx="58.11905393109461" cy="51.44406631959352" r="3.723893613109246" fill="#8B4513" fill-opacity="0.5464817618374331" />
<circle cx="111.75703734436863" cy="114.90803520641289" r="4.4092823298540305" fill="#8B4513" fill-opacity="0.39320675331981514" />
<circle cx="145.94480150645705" cy="85.12846998759656" r="4.577745078269395" fill="#D2691E" fill-opacity="0.2932038181564698" />
<circle cx="121.8334055955091" cy="85.2629135012321" r="3.009972640201704" fill="#FFFFFF" fill-opacity="0.544139267976999" />
<circle cx="51.486837419062354" cy="141.18846128588467" r="3.222438063945429" fill="#FFDE75" fill-opacity="0.24619347331978003" />
<circle cx="137.93014391286664" cy="39.535270157030595" r="4.501085395279256" fill="#FFDE75" fill-opacity="0.5829269151088281" />
<circle cx="127.3800932916208" cy="97.77853105125766" r="4.341636571618956" fill="#FFDE75" fill-opacity="0.5079993963018559" />
<circle cx="129.04810114854763" cy="148.04007287453973" r="3.586757489314592" fill="#D2691E" fill-opacity="0.27472116939027363" />
<circle cx="142.00579103073323" cy="116.9559394229313" r="4.99376631020665" fill="#FFDE75" fill-opacity="0.4116129051887756" />
<circle cx="46.138309510153775" cy="110.63754819498692" r="4.492426822572082" fill="#D2691E" fill-opacity="0.44351690409123234" />
<circle cx="120.00459382831886" cy="185.47379252855512" r="3.1130044669783326" fill="#8B4513" fill-opacity="0.24737765415734547" />
<circle cx="145.64794123057644" cy="173.40578749017618" r="3.096131574898915" fill="#FFFFFF" fill-opacity="0.5198440134898692" />
<circle cx="149.92938821019746" cy="83.52259973443003" r="4.918371664665756" fill="#8B4513" fill-opacity="0.5712543231279256" />
<circle cx="167.21208081331528" cy="142.79181406032225" r="5.938399697311622" fill="#FFDE75" fill-opacity="0.36641888131848793" />
<circle cx="117.08475195550312" cy="131.0919123128766" r="5.992726576662485" fill="#FFFFFF" fill-opacity="0.4071983681446162" />
<circle cx="100.80838062449122" cy="161.82074278128408" r="3.9989216264640555" fill="#FFFFFF" fill-opacity="0.5041187413300645" />
<circle cx="141.52828508136838" cy="101.82111375533326" r="4.546795946717195" fill="#FFFFFF" fill-opacity="0.35876206518023457" />
<circle cx="119.86122456335471" cy="154.16846478285532" r="3.768257461596063" fill="#FFFFFF" fill-opacity="0.373773591705274" />
<circle cx="49.865000420268714" cy="72.26844290169326" r="3.6616922900395314" fill="#D2691E" fill-opacity="0.28785025463828384" />
<circle cx="105.13717754627578" cy="135.07529224634877" r="3.1864505021393033" fill="#FFDE75" fill-opacity="0.4508872160516913" />
<circle cx="107.33750094763094" cy="75.87316883227982" r="5.854759278791677" fill="#8B4513" fill-opacity="0.5306558802167322" />
<circle cx="75.54286667309958" cy="145.98886347588484" r="3.2243818109872495" fill="#8B4513" fill-opacity="0.4955900279769346" />
<circle cx="80.7855179273609" cy="130.08248216750553" r="2.3549612951394674" fill="#D2691E" fill-opacity="0.2747676825886001" />
<circle cx="28.829451537183942" cy="130.97215399024847" r="3.483219121360068" fill="#FFFFFF" fill-opacity="0.3554993000250483" />
<circle cx="128.4594367994116" cy="110.24287171541361" r="4.0112038098208656" fill="#FFFFFF" fill-opacity="0.2637579165299585" />
<circle cx="166.54753329404508" cy="75.12450625544415" r="4.877880234826145" fill="#FFDE75" fill-opacity="0.39691609326107713" />
<circle cx="131.0319059598059" cy="111.02842362585127" r="3.8702384012666933" fill="#D2691E" fill-opacity="0.5885812260443257" />
<circle cx="102.69476728971493" cy="141.90082887990567" r="5.147833824826959" fill="#8B4513" fill-opacity="0.2583494758319465" />
<circle cx="26.588050677574017" cy="111.09558446315798" r="2.2361416265388363" fill="#D2691E" fill-opacity="0.5840772550250719" />
<circle cx="62.12613700886123" cy="149.25975793226067" r="5.90405979086046" fill="#FFFFFF" fill-opacity="0.4893208443753648" />
<circle cx="160.9361179258242" cy="138.15890031720744" r="2.167989274187965" fill="#D2691E" fill-opacity="0.2976683455161645" />
<circle cx="92.8155316368275" cy="184.96943677470955" r="5.810073923899993" fill="#8B4513" fill-opacity="0.557113473913093" />
<circle cx="90.60965406716267" cy="140.7539547883063" r="4.350049306487572" fill="#FFDE75" fill-opacity="0.425359844667884" />
<circle cx="125.00472306124921" cy="73.23262797272025" r="2.7130879397351504" fill="#8B4513" fill-opacity="0.4003122888752881" />
<circle cx="143.37698914811074" cy="123.83174477638588" r="5.097779091882885" fill="#FFFFFF" fill-opacity="0.5101988249708002" />
<circle cx="173.71091731759026" cy="149.40507237969746" r="3.2521107680480155" fill="#D2691E" fill-opacity="0.4225010115264993" />
<circle cx="65.7836443434285" cy="144.5254308502895" r="3.920848190016703" fill="#8B4513" fill-opacity="0.5782770262953993" />
<circle cx="41.605012520178526" cy="68.57431453072411" r="3.406854130146734" fill="#8B4513" fill-opacity="0.5115539090895243" />
<circle cx="110.38885724706866" cy="114.42153742419805" r="4.813740218191558" fill="#D2691E" fill-opacity="0.3864509259008552" />
<circle cx="59.05882527969512" cy="81.62445578063223" r="2.5063024179002524" fill="#D2691E" fill-opacity="0.33577980356413656" />
<circle cx="78.46233894674162" cy="171.00901409966644" r="3.03389254910865" fill="#D2691E" fill-opacity="0.5604540900624035" />
<circle cx="29.903950533646636" cy="71.17177940497393" r="3.3426012390767" fill="#8B4513" fill-opacity="0.34642035417019995" />
<circle cx="132.1434239562465" cy="44.572273572539075" r="4.754675503089453" fill="#8B4513" fill-opacity="0.5420624767702049" />
<ellipse cx="85.79130153757501" cy="137.88053312356897" rx="6.152133185262242" ry="8.741621602697425" fill="#FFFDF0" fill-opacity="0.6" />
<ellipse cx="85.30163591233092" cy="137.2517109188172" rx="2.48536995573951" ry="2.8247497120492993" fill="#FFFFFF" fill-opacity="0.85" />
<ellipse cx="120.70307249875478" cy="157.438156807704" rx="6.199512344558167" ry="5.784991406388534" fill="#FFFDF0" fill-opacity="0.6" />
<ellipse cx="120.30912253265133" cy="156.95974739065585" rx="2.6965023500083105" ry="2.670452871217015" fill="#FFFFFF" fill-opacity="0.85" />
<ellipse cx="142.69204744675397" cy="139.22373882087453" rx="5.698970359751073" ry="6.865466280739066" fill="#FFFDF0" fill-opacity="0.6" />
<ellipse cx="143.03575083414765" cy="138.8181069922489" rx="2.7323290967270286" ry="3.9349939170076587" fill="#FFFFFF" fill-opacity="0.85" />
<ellipse cx="165.02281735387166" cy="112.33175094967135" rx="6.480589826346496" ry="4.405973569987278" fill="#FFFDF0" fill-opacity="0.6" />
<ellipse cx="164.6273986700947" cy="112.10464598210311" rx="4.429023626445806" ry="3.538495378219988" fill="#FFFFFF" fill-opacity="0.85" />
<ellipse cx="95.67079000865519" cy="150.69597431392657" rx="5.4456700771641815" ry="4.609957473970406" fill="#FFFDF0" fill-opacity="0.6" />
<ellipse cx="95.35304319961665" cy="150.41730149583884" rx="4.95606412752436" ry="2.6355593048478676" fill="#FFFFFF" fill-opacity="0.85" />
<ellipse cx="78.16909436309405" cy="122.76608187967241" rx="5.846163502625281" ry="7.318831722704514" fill="#FFFDF0" fill-opacity="0.6" />
<ellipse cx="78.33132986771469" cy="122.22811082117653" rx="2.504632322100325" ry="2.908744379685272" fill="#FFFFFF" fill-opacity="0.85" />
<ellipse cx="61.93094931740383" cy="142.589798580786" rx="9.311841433678282" ry="7.791278299075559" fill="#FFFDF0" fill-opacity="0.6" />
<ellipse cx="62.33205733052211" cy="143.12097079597004" rx="2.8666343950477042" ry="3.6609405426307244" fill="#FFFFFF" fill-opacity="0.85" />
<ellipse cx="99.89721882167002" cy="128.09508481640816" rx="5.4666048044912605" ry="7.262012018913385" fill="#FFFDF0" fill-opacity="0.6" />
<ellipse cx="100.64757963259446" cy="128.3879151925036" rx="4.614187891508784" ry="2.240185413750119" fill="#FFFFFF" fill-opacity="0.85" />
<ellipse cx="149.0612763421307" cy="116.24157959249686" rx="6.184868272594981" ry="8.691833129660036" fill="#FFFDF0" fill-opacity="0.6" />
<ellipse cx="149.8595630297183" cy="115.65096309152874" rx="2.306134119031728" ry="3.934591114386567" fill="#FFFFFF" fill-opacity="0.85" />
<ellipse cx="46.5207365969067" cy="109.14660292931232" rx="7.565010987462528" ry="5.47814515783329" fill="#FFFDF0" fill-opacity="0.6" />
<ellipse cx="46.958280001227564" cy="108.60855379160225" rx="2.5711361911641375" ry="3.3199668456710416" fill="#FFFFFF" fill-opacity="0.85" />
<ellipse cx="48.71396292964542" cy="119.53637532912875" rx="6.6400760658574285" ry="7.633634964879643" fill="#FFFDF0" fill-opacity="0.6" />
<ellipse cx="49.55961979592697" cy="120.52599593720693" rx="3.1782271418690398" ry="2.3790019017131208" fill="#FFFFFF" fill-opacity="0.85" />
<ellipse cx="165.3316094399475" cy="133.24239040069176" rx="9.939848217318605" ry="7.659674189918613" fill="#FFFDF0" fill-opacity="0.6" />
<ellipse cx="164.34665773553277" cy="132.2653417849175" rx="4.398706397531543" ry="3.010877053135081" fill="#FFFFFF" fill-opacity="0.85" />
</g>
<path d="M105.0,105.0 L205.0,105.0 A100,100,0,0,1,175.71067811865476,175.71067811865476 Z" fill="#F5C754" stroke="lightgray" stroke-width="2" />
<use xlink:href="#clip-4535154544-4536260688" />
<g clip-path="url(#clip-4535154544-4536260688)">
<circle cx="105.0" cy="105.0" r="92" stroke="#DAA05D" stroke-width="16" fill="none" />
<circle cx="105.0" cy="105.0" r="98" stroke="#C37B32" stroke-width="5" fill="none" />
<circle cx="172.9605903441696" cy="102.07843917076761" r="5.258782366624722" fill="#FFFFFF" fill-opacity="0.5720284100069768" />
<circle cx="183.04440524295876" cy="87.87433532446755" r="5.228543002690693" fill="#8B4513" fill-opacity="0.201009318467376" />
<circle cx="153.44335525393953" cy="87.97796672895163" r="3.249246507122202" fill="#FFDE75" fill-opacity="0.3658474776955374" />
<circle cx="54.37294047965506" cy="165.72487515470863" r="5.849134119204657" fill="#8B4513" fill-opacity="0.44150371951963896" />
<circle cx="50.22178505635201" cy="78.30456937274506" r="5.33720624319056" fill="#D2691E" fill-opacity="0.5704438563090324" />
<circle cx="123.9970068692524" cy="74.27567048903897" r="5.211516041877383" fill="#FFDE75" fill-opacity="0.4254858244456253" />
<circle cx="137.02294127034486" cy="36.12074010313209" r="2.5595297012396556" fill="#FFFFFF" fill-opacity="0.2619855929442497" />
<circle cx="114.40802744603913" cy="72.50519809816564" r="4.902471773089825" fill="#FFDE75" fill-opacity="0.32321649889819337" />
<circle cx="68.1996700659142" cy="179.6739710409327" r="4.4107542683989625" fill="#8B4513" fill-opacity="0.4596773554020005" />
<circle cx="136.7595299345851" cy="100.35489300490754" r="4.080056719450647" fill="#FFDE75" fill-opacity="0.4255094371725512" />
<circle cx="128.68523022993213" cy="112.52170551129666" r="2.759063930140631" fill="#FFDE75" fill-opacity="0.4510057994209102" />
<circle cx="172.2145169772174" cy="124.18511390544833" r="3.2698379234003365" fill="#FFDE75" fill-opacity="0.32414452630023555" />
<circle cx="151.2868221439466" cy="175.98788531985548" r="3.4218009348125897" fill="#FFFFFF" fill-opacity="0.3414622339142154" />
<circle cx="98.5576597923299" cy="87.0730927665149" r="4.069159496094935" fill="#FFDE75" fill-opacity="0.23206600002144495" />
<circle cx="52.48765895124552" cy="119.31295695636987" r="4.835410865358962" fill="#FFFFFF" fill-opacity="0.3096663952619346" />
<circle cx="54.90295176296056" cy="108.32144580095932" r="5.135694369631702" fill="#8B4513" fill-opacity="0.30824512636501045" />
<circle cx="143.14860816694147" cy="59.431859869126235" r="5.003557900560578" fill="#FFDE75" fill-opacity="0.5627899152405351" />
<circle cx="58.11905393109461" cy="51.44406631959352" r="3.723893613109246" fill="#8B4513" fill-opacity="0.5464817618374331" />
<circle cx="111.75703734436863" cy="114.90803520641289" r="4.4092823298540305" fill="#8B4513" fill-opacity="0.39320675331981514" />
<circle cx="145.94480150645705" cy="85.12846998759656" r="4.577745078269395" fill="#D2691E" fill-opacity="0.2932038181564698" />
<circle cx="121.8334055955091" cy="85.2629135012321" r="3.009972640201704" fill="#FFFFFF" fill-opacity="0.544139267976999" />
<circle cx="51.486837419062354" cy="141.18846128588467" r="3.222438063945429" fill="#FFDE75" fill-opacity="0.24619347331978003" />
<circle cx="137.93014391286664" cy="39.535270157030595" r="4.501085395279256" fill="#FFDE75" fill-opacity="0.5829269151088281" />
<circle cx="127.3800932916208" cy="97.77853105125766" r="4.341636571618956" fill="#FFDE75" fill-opacity="0.5079993963018559" />
<circle cx="129.04810114854763" cy="148.04007287453973" r="3.586757489314592" fill="#D2691E" fill-opacity="0.27472116939027363" />
<circle cx="142.00579103073323" cy="116.9559394229313" r="4.99376631020665" fill="#FFDE75" fill-opacity="0.4116129051887756" />
<circle cx="46.138309510153775" cy="110.63754819498692" r="4.492426822572082" fill="#D2691E" fill-opacity="0.44351690409123234" />
<circle cx="120.00459382831886" cy="185.47379252855512" r="3.1130044669783326" fill="#8B4513" fill-opacity="0.24737765415734547" />
<circle cx="145.64794123057644" cy="173.40578749017618" r="3.096131574898915" fill="#FFFFFF" fill-opacity="0.5198440134898692" />
<circle cx="149.92938821019746" cy="83.52259973443003" r="4.918371664665756" fill="#8B4513" fill-opacity="0.5712543231279256" />
<circle cx="167.21208081331528" cy="142.79181406032225" r="5.938399697311622" fill="#FFDE75" fill-opacity="0.36641888131848793" />
<circle cx="117.08475195550312" cy="131.0919123128766" r="5.992726576662485" fill="#FFFFFF" fill-opacity="0.4071983681446162" />
<circle cx="100.80838062449122" cy="161.82074278128408" r="3.9989216264640555" fill="#FFFFFF" fill-opacity="0.5041187413300645" />
<circle cx="141.52828508136838" cy="101.82111375533326" r="4.546795946717195" fill="#FFFFFF" fill-opacity="0.35876206518023457" />
<circle cx="119.86122456335471" cy="154.16846478285532" r="3.768257461596063" fill="#FFFFFF" fill-opacity="0.373773591705274" />
<circle cx="49.865000420268714" cy="72.26844290169326" r="3.6616922900395314" fill="#D2691E" fill-opacity="0.28785025463828384" />
<circle cx="105.13717754627578" cy="135.07529224634877" r="3.1864505021393033" fill="#FFDE75" fill-opacity="0.4508872160516913" />
<circle cx="107.33750094763094" cy="75.87316883227982" r="5.854759278791677" fill="#8B4513" fill-opacity="0.5306558802167322" />
<circle cx="75.54286667309958" cy="145.98886347588484" r="3.2243818109872495" fill="#8B4513" fill-opacity="0.4955900279769346" />
<circle cx="80.7855179273609" cy="130.08248216750553" r="2.3549612951394674" fill="#D2691E" fill-opacity="0.2747676825886001" />
<circle cx="28.829451537183942" cy="130.97215399024847" r="3.483219121360068" fill="#FFFFFF" fill-opacity="0.3554993000250483" />
<circle cx="128.4594367994116" cy="110.24287171541361" r="4.0112038098208656" fill="#FFFFFF" fill-opacity="0.2637579165299585" />
<circle cx="166.54753329404508" cy="75.12450625544415" r="4.877880234826145" fill="#FFDE75" fill-opacity="0.39691609326107713" />
<circle cx="131.0319059598059" cy="111.02842362585127" r="3.8702384012666933" fill="#D2691E" fill-opacity="0.5885812260443257" />
<circle cx="102.69476728971493" cy="141.90082887990567" r="5.147833824826959" fill="#8B4513" fill-opacity="0.2583494758319465" />
<circle cx="26.588050677574017" cy="111.09558446315798" r="2.2361416265388363" fill="#D2691E" fill-opacity="0.5840772550250719" />
<circle cx="62.12613700886123" cy="149.25975793226067" r="5.90405979086046" fill="#FFFFFF" fill-opacity="0.4893208443753648" />
<circle cx="160.9361179258242" cy="138.15890031720744" r="2.167989274187965" fill="#D2691E" fill-opacity="0.2976683455161645" />
<circle cx="92.8155316368275" cy="184.96943677470955" r="5.810073923899993" fill="#8B4513" fill-opacity="0.557113473913093" />
<circle cx="90.60965406716267" cy="140.7539547883063" r="4.350049306487572" fill="#FFDE75" fill-opacity="0.425359844667884" />
<circle cx="125.00472306124921" cy="73.23262797272025" r="2.7130879397351504" fill="#8B4513" fill-opacity="0.4003122888752881" />
<circle cx="143.37698914811074" cy="123.83174477638588" r="5.097779091882885" fill="#FFFFFF" fill-opacity="0.5101988249708002" />
<circle cx="173.71091731759026" cy="149.40507237969746" r="3.2521107680480155" fill="#D2691E" fill-opacity="0.4225010115264993" />
<circle cx="65.7836443434285" cy="144.5254308502895" r="3.920848190016703" fill="#8B4513" fill-opacity="0.5782770262953993" />
<circle cx="41.605012520178526" cy="68.57431453072411" r="3.406854130146734" fill="#8B4513" fill-opacity="0.5115539090895243" />
<circle cx="110.38885724706866" cy="114.42153742419805" r="4.813740218191558" fill="#D2691E" fill-opacity="0.3864509259008552" />
<circle cx="59.05882527969512" cy="81.62445578063223" r="2.5063024179002524" fill="#D2691E" fill-opacity="0.33577980356413656" />
<circle cx="78.46233894674162" cy="171.00901409966644" r="3.03389254910865" fill="#D2691E" fill-opacity="0.5604540900624035" />
<circle cx="29.903950533646636" cy="71.17177940497393" r="3.3426012390767" fill="#8B4513" fill-opacity="0.34642035417019995" />
<circle cx="132.1434239562465" cy="44.572273572539075" r="4.754675503089453" fill="#8B4513" fill-opacity="0.5420624767702049" />
<ellipse cx="85.79130153757501" cy="137.88053312356897" rx="6.152133185262242" ry="8.741621602697425" fill="#FFFDF0" fill-opacity="0.6" />
<ellipse cx="85.30163591233092" cy="137.2517109188172" rx="2.48536995573951" ry="2.8247497120492993" fill="#FFFFFF" fill-opacity="0.85" />
<ellipse cx="120.70307249875478" cy="157.438156807704" rx="6.199512344558167" ry="5.784991406388534" fill="#FFFDF0" fill-opacity="0.6" />
<ellipse cx="120.30912253265133" cy="156.95974739065585" rx="2.6965023500083105" ry="2.670452871217015" fill="#FFFFFF" fill-opacity="0.85" />
<ellipse cx="142.69204744675397" cy="139.22373882087453" rx="5.698970359751073" ry="6.865466280739066" fill="#FFFDF0" fill-opacity="0.6" />
<ellipse cx="143.03575083414765" cy="138.8181069922489" rx="2.7323290967270286" ry="3.9349939170076587" fill="#FFFFFF" fill-opacity="0.85" />
<ellipse cx="165.02281735387166" cy="112.33175094967135" rx="6.480589826346496" ry="4.405973569987278" fill="#FFFDF0" fill-opacity="0.6" />
<ellipse cx="164.6273986700947" cy="112.10464598210311" rx="4.429023626445806" ry="3.538495378219988" fill="#FFFFFF" fill-opacity="0.85" />
<ellipse cx="95.67079000865519" cy="150.69597431392657" rx="5.4456700771641815" ry="4.609957473970406" fill="#FFFDF0" fill-opacity="0.6" />
<ellipse cx="95.35304319961665" cy="150.41730149583884" rx="4.95606412752436" ry="2.6355593048478676" fill="#FFFFFF" fill-opacity="0.85" />
<ellipse cx="78.16909436309405" cy="122.76608187967241" rx="5.846163502625281" ry="7.318831722704514" fill="#FFFDF0" fill-opacity="0.6" />
<ellipse cx="78.33132986771469" cy="122.22811082117653" rx="2.504632322100325" ry="2.908744379685272" fill="#FFFFFF" fill-opacity="0.85" />
<ellipse cx="61.93094931740383" cy="142.589798580786" rx="9.311841433678282" ry="7.791278299075559" fill="#FFFDF0" fill-opacity="0.6" />
<ellipse cx="62.33205733052211" cy="143.12097079597004" rx="2.8666343950477042" ry="3.6609405426307244" fill="#FFFFFF" fill-opacity="0.85" />
<ellipse cx="99.89721882167002" cy="128.09508481640816" rx="5.4666048044912605" ry="7.262012018913385" fill="#FFFDF0" fill-opacity="0.6" />
<ellipse cx="100.64757963259446" cy="128.3879151925036" rx="4.614187891508784" ry="2.240185413750119" fill="#FFFFFF" fill-opacity="0.85" />
<ellipse cx="149.0612763421307" cy="116.24157959249686" rx="6.184868272594981" ry="8.691833129660036" fill="#FFFDF0" fill-opacity="0.6" />
<ellipse cx="149.8595630297183" cy="115.65096309152874" rx="2.306134119031728" ry="3.934591114386567" fill="#FFFFFF" fill-opacity="0.85" />
<ellipse cx="46.5207365969067" cy="109.14660292931232" rx="7.565010987462528" ry="5.47814515783329" fill="#FFFDF0" fill-opacity="0.6" />
<ellipse cx="46.958280001227564" cy="108.60855379160225" rx="2.5711361911641375" ry="3.3199668456710416" fill="#FFFFFF" fill-opacity="0.85" />
<ellipse cx="48.71396292964542" cy="119.53637532912875" rx="6.6400760658574285" ry="7.633634964879643" fill="#FFFDF0" fill-opacity="0.6" />
<ellipse cx="49.55961979592697" cy="120.52599593720693" rx="3.1782271418690398" ry="2.3790019017131208" fill="#FFFFFF" fill-opacity="0.85" />
<ellipse cx="165.3316094399475" cy="133.24239040069176" rx="9.939848217318605" ry="7.659674189918613" fill="#FFFDF0" fill-opacity="0.6" />
<ellipse cx="164.34665773553277" cy="132.2653417849175" rx="4.398706397531543" ry="3.010877053135081" fill="#FFFFFF" fill-opacity="0.85" />
</g>
<path d="M105.0,105.0 L175.71067811865476,175.71067811865476 A100,100,0,0,1,105.0,205.0 Z" fill="#F5C754" stroke="lightgray" stroke-width="2" />
<use xlink:href="#clip-4535154544-4535813712" />
<g clip-path="url(#clip-4535154544-4535813712)">
<circle cx="105.0" cy="105.0" r="92" stroke="#DAA05D" stroke-width="16" fill="none" />
<circle cx="105.0" cy="105.0" r="98" stroke="#C37B32" stroke-width="5" fill="none" />
<circle cx="172.9605903441696" cy="102.07843917076761" r="5.258782366624722" fill="#FFFFFF" fill-opacity="0.5720284100069768" />
<circle cx="183.04440524295876" cy="87.87433532446755" r="5.228543002690693" fill="#8B4513" fill-opacity="0.201009318467376" />
<circle cx="153.44335525393953" cy="87.97796672895163" r="3.249246507122202" fill="#FFDE75" fill-opacity="0.3658474776955374" />
<circle cx="54.37294047965506" cy="165.72487515470863" r="5.849134119204657" fill="#8B4513" fill-opacity="0.44150371951963896" />
<circle cx="50.22178505635201" cy="78.30456937274506" r="5.33720624319056" fill="#D2691E" fill-opacity="0.5704438563090324" />
<circle cx="123.9970068692524" cy="74.27567048903897" r="5.211516041877383" fill="#FFDE75" fill-opacity="0.4254858244456253" />
<circle cx="137.02294127034486" cy="36.12074010313209" r="2.5595297012396556" fill="#FFFFFF" fill-opacity="0.2619855929442497" />
<circle cx="114.40802744603913" cy="72.50519809816564" r="4.902471773089825" fill="#FFDE75" fill-opacity="0.32321649889819337" />
<circle cx="68.1996700659142" cy="179.6739710409327" r="4.4107542683989625" fill="#8B4513" fill-opacity="0.4596773554020005" />
<circle cx="136.7595299345851" cy="100.35489300490754" r="4.080056719450647" fill="#FFDE75" fill-opacity="0.4255094371725512" />
<circle cx="128.68523022993213" cy="112.52170551129666" r="2.759063930140631" fill="#FFDE75" fill-opacity="0.4510057994209102" />
<circle cx="172.2145169772174" cy="124.18511390544833" r="3.2698379234003365" fill="#FFDE75" fill-opacity="0.32414452630023555" />
<circle cx="151.2868221439466" cy="175.98788531985548" r="3.4218009348125897" fill="#FFFFFF" fill-opacity="0.3414622339142154" />
<circle cx="98.5576597923299" cy="87.0730927665149" r="4.069159496094935" fill="#FFDE75" fill-opacity="0.23206600002144495" />
<circle cx="52.48765895124552" cy="119.31295695636987" r="4.835410865358962" fill="#FFFFFF" fill-opacity="0.3096663952619346" />
<circle cx="54.90295176296056" cy="108.32144580095932" r="5.135694369631702" fill="#8B4513" fill-opacity="0.30824512636501045" />
<circle cx="143.14860816694147" cy="59.431859869126235" r="5.003557900560578" fill="#FFDE75" fill-opacity="0.5627899152405351" />
<circle cx="58.11905393109461" cy="51.44406631959352" r="3.723893613109246" fill="#8B4513" fill-opacity="0.5464817618374331" />
<circle cx="111.75703734436863" cy="114.90803520641289" r="4.4092823298540305" fill="#8B4513" fill-opacity="0.39320675331981514" />
<circle cx="145.94480150645705" cy="85.12846998759656" r="4.577745078269395" fill="#D2691E" fill-opacity="0.2932038181564698" />
<circle cx="121.8334055955091" cy="85.2629135012321" r="3.009972640201704" fill="#FFFFFF" fill-opacity="0.544139267976999" />
<circle cx="51.486837419062354" cy="141.18846128588467" r="3.222438063945429" fill="#FFDE75" fill-opacity="0.24619347331978003" />
<circle cx="137.93014391286664" cy="39.535270157030595" r="4.501085395279256" fill="#FFDE75" fill-opacity="0.5829269151088281" />
<circle cx="127.3800932916208" cy="97.77853105125766" r="4.341636571618956" fill="#FFDE75" fill-opacity="0.5079993963018559" />
<circle cx="129.04810114854763" cy="148.04007287453973" r="3.586757489314592" fill="#D2691E" fill-opacity="0.27472116939027363" />
<circle cx="142.00579103073323" cy="116.9559394229313" r="4.99376631020665" fill="#FFDE75" fill-opacity="0.4116129051887756" />
<circle cx="46.138309510153775" cy="110.63754819498692" r="4.492426822572082" fill="#D2691E" fill-opacity="0.44351690409123234" />
<circle cx="120.00459382831886" cy="185.47379252855512" r="3.1130044669783326" fill="#8B4513" fill-opacity="0.24737765415734547" />
<circle cx="145.64794123057644" cy="173.40578749017618" r="3.096131574898915" fill="#FFFFFF" fill-opacity="0.5198440134898692" />
<circle cx="149.92938821019746" cy="83.52259973443003" r="4.918371664665756" fill="#8B4513" fill-opacity="0.5712543231279256" />
<circle cx="167.21208081331528" cy="142.79181406032225" r="5.938399697311622" fill="#FFDE75" fill-opacity="0.36641888131848793" />
<circle cx="117.08475195550312" cy="131.0919123128766" r="5.992726576662485" fill="#FFFFFF" fill-opacity="0.4071983681446162" />
<circle cx="100.80838062449122" cy="161.82074278128408" r="3.9989216264640555" fill="#FFFFFF" fill-opacity="0.5041187413300645" />
<circle cx="141.52828508136838" cy="101.82111375533326" r="4.546795946717195" fill="#FFFFFF" fill-opacity="0.35876206518023457" />
<circle cx="119.86122456335471" cy="154.16846478285532" r="3.768257461596063" fill="#FFFFFF" fill-opacity="0.373773591705274" />
<circle cx="49.865000420268714" cy="72.26844290169326" r="3.6616922900395314" fill="#D2691E" fill-opacity="0.28785025463828384" />
<circle cx="105.13717754627578" cy="135.07529224634877" r="3.1864505021393033" fill="#FFDE75" fill-opacity="0.4508872160516913" />
<circle cx="107.33750094763094" cy="75.87316883227982" r="5.854759278791677" fill="#8B4513" fill-opacity="0.5306558802167322" />
<circle cx="75.54286667309958" cy="145.98886347588484" r="3.2243818109872495" fill="#8B4513" fill-opacity="0.4955900279769346" />
<circle cx="80.7855179273609" cy="130.08248216750553" r="2.3549612951394674" fill="#D2691E" fill-opacity="0.2747676825886001" />
<circle cx="28.829451537183942" cy="130.97215399024847" r="3.483219121360068" fill="#FFFFFF" fill-opacity="0.3554993000250483" />
<circle cx="128.4594367994116" cy="110.24287171541361" r="4.0112038098208656" fill="#FFFFFF" fill-opacity="0.2637579165299585" />
<circle cx="166.54753329404508" cy="75.12450625544415" r="4.877880234826145" fill="#FFDE75" fill-opacity="0.39691609326107713" />
<circle cx="131.0319059598059" cy="111.02842362585127" r="3.8702384012666933" fill="#D2691E" fill-opacity="0.5885812260443257" />
<circle cx="102.69476728971493" cy="141.90082887990567" r="5.147833824826959" fill="#8B4513" fill-opacity="0.2583494758319465" />
<circle cx="26.588050677574017" cy="111.09558446315798" r="2.2361416265388363" fill="#D2691E" fill-opacity="0.5840772550250719" />
<circle cx="62.12613700886123" cy="149.25975793226067" r="5.90405979086046" fill="#FFFFFF" fill-opacity="0.4893208443753648" />
<circle cx="160.9361179258242" cy="138.15890031720744" r="2.167989274187965" fill="#D2691E" fill-opacity="0.2976683455161645" />
<circle cx="92.8155316368275" cy="184.96943677470955" r="5.810073923899993" fill="#8B4513" fill-opacity="0.557113473913093" />
<circle cx="90.60965406716267" cy="140.7539547883063" r="4.350049306487572" fill="#FFDE75" fill-opacity="0.425359844667884" />
<circle cx="125.00472306124921" cy="73.23262797272025" r="2.7130879397351504" fill="#8B4513" fill-opacity="0.4003122888752881" />
<circle cx="143.37698914811074" cy="123.83174477638588" r="5.097779091882885" fill="#FFFFFF" fill-opacity="0.5101988249708002" />
<circle cx="173.71091731759026" cy="149.40507237969746" r="3.2521107680480155" fill="#D2691E" fill-opacity="0.4225010115264993" />
<circle cx="65.7836443434285" cy="144.5254308502895" r="3.920848190016703" fill="#8B4513" fill-opacity="0.5782770262953993" />
<circle cx="41.605012520178526" cy="68.57431453072411" r="3.406854130146734" fill="#8B4513" fill-opacity="0.5115539090895243" />
<circle cx="110.38885724706866" cy="114.42153742419805" r="4.813740218191558" fill="#D2691E" fill-opacity="0.3864509259008552" />
<circle cx="59.05882527969512" cy="81.62445578063223" r="2.5063024179002524" fill="#D2691E" fill-opacity="0.33577980356413656" />
<circle cx="78.46233894674162" cy="171.00901409966644" r="3.03389254910865" fill="#D2691E" fill-opacity="0.5604540900624035" />
<circle cx="29.903950533646636" cy="71.17177940497393" r="3.3426012390767" fill="#8B4513" fill-opacity="0.34642035417019995" />
<circle cx="132.1434239562465" cy="44.572273572539075" r="4.754675503089453" fill="#8B4513" fill-opacity="0.5420624767702049" />
<ellipse cx="85.79130153757501" cy="137.88053312356897" rx="6.152133185262242" ry="8.741621602697425" fill="#FFFDF0" fill-opacity="0.6" />
<ellipse cx="85.30163591233092" cy="137.2517109188172" rx="2.48536995573951" ry="2.8247497120492993" fill="#FFFFFF" fill-opacity="0.85" />
<ellipse cx="120.70307249875478" cy="157.438156807704" rx="6.199512344558167" ry="5.784991406388534" fill="#FFFDF0" fill-opacity="0.6" />
<ellipse cx="120.30912253265133" cy="156.95974739065585" rx="2.6965023500083105" ry="2.670452871217015" fill="#FFFFFF" fill-opacity="0.85" />
<ellipse cx="142.69204744675397" cy="139.22373882087453" rx="5.698970359751073" ry="6.865466280739066" fill="#FFFDF0" fill-opacity="0.6" />
<ellipse cx="143.03575083414765" cy="138.8181069922489" rx="2.7323290967270286" ry="3.9349939170076587" fill="#FFFFFF" fill-opacity="0.85" />
<ellipse cx="165.02281735387166" cy="112.33175094967135" rx="6.480589826346496" ry="4.405973569987278" fill="#FFFDF0" fill-opacity="0.6" />
<ellipse cx="164.6273986700947" cy="112.10464598210311" rx="4.429023626445806" ry="3.538495378219988" fill="#FFFFFF" fill-opacity="0.85" />
<ellipse cx="95.67079000865519" cy="150.69597431392657" rx="5.4456700771641815" ry="4.609957473970406" fill="#FFFDF0" fill-opacity="0.6" />
<ellipse cx="95.35304319961665" cy="150.41730149583884" rx="4.95606412752436" ry="2.6355593048478676" fill="#FFFFFF" fill-opacity="0.85" />
<ellipse cx="78.16909436309405" cy="122.76608187967241" rx="5.846163502625281" ry="7.318831722704514" fill="#FFFDF0" fill-opacity="0.6" />
<ellipse cx="78.33132986771469" cy="122.22811082117653" rx="2.504632322100325" ry="2.908744379685272" fill="#FFFFFF" fill-opacity="0.85" />
<ellipse cx="61.93094931740383" cy="142.589798580786" rx="9.311841433678282" ry="7.791278299075559" fill="#FFFDF0" fill-opacity="0.6" />
<ellipse cx="62.33205733052211" cy="143.12097079597004" rx="2.8666343950477042" ry="3.6609405426307244" fill="#FFFFFF" fill-opacity="0.85" />
<ellipse cx="99.89721882167002" cy="128.09508481640816" rx="5.4666048044912605" ry="7.262012018913385" fill="#FFFDF0" fill-opacity="0.6" />
<ellipse cx="100.64757963259446" cy="128.3879151925036" rx="4.614187891508784" ry="2.240185413750119" fill="#FFFFFF" fill-opacity="0.85" />
<ellipse cx="149.0612763421307" cy="116.24157959249686" rx="6.184868272594981" ry="8.691833129660036" fill="#FFFDF0" fill-opacity="0.6" />
<ellipse cx="149.8595630297183" cy="115.65096309152874" rx="2.306134119031728" ry="3.934591114386567" fill="#FFFFFF" fill-opacity="0.85" />
<ellipse cx="46.5207365969067" cy="109.14660292931232" rx="7.565010987462528" ry="5.47814515783329" fill="#FFFDF0" fill-opacity="0.6" />
<ellipse cx="46.958280001227564" cy="108.60855379160225" rx="2.5711361911641375" ry="3.3199668456710416" fill="#FFFFFF" fill-opacity="0.85" />
<ellipse cx="48.71396292964542" cy="119.53637532912875" rx="6.6400760658574285" ry="7.633634964879643" fill="#FFFDF0" fill-opacity="0.6" />
<ellipse cx="49.55961979592697" cy="120.52599593720693" rx="3.1782271418690398" ry="2.3790019017131208" fill="#FFFFFF" fill-opacity="0.85" />
<ellipse cx="165.3316094399475" cy="133.24239040069176" rx="9.939848217318605" ry="7.659674189918613" fill="#FFFDF0" fill-opacity="0.6" />
<ellipse cx="164.34665773553277" cy="132.2653417849175" rx="4.398706397531543" ry="3.010877053135081" fill="#FFFFFF" fill-opacity="0.85" />
</g>
<rect x="230.0" y="41.0" width="54.0" height="54.0" fill="none" stroke="black" stroke-width="2" />
<rect x="230.0" y="115.0" width="54.0" height="54.0" fill="none" stroke="black" stroke-width="2" />
<path d="M225.0,105.0 L289.0,105.0" stroke="black" stroke-width="2" />
</g>
</svg>
</svg>