<?xml version="1.0" encoding="UTF-8"?>
<svg xmlns="http://www.w3.org/2000/svg" xmlns:xlink="http://www.w3.org/1999/xlink"
     width="284.0" height="210" viewBox="0 0 284.0 210">
<defs>
<clipPath id="clip-4462549984-4462071504">
<path d="M105.0,105.0 L105.0,5.0 A100,100,0,0,1,105.0,205.0 Z" fill="none" />
</clipPath>
</defs>
<g>
<path d="M105.0,105.0 L105.0,5.0 A100,100,0,0,1,105.0,205.0 Z" fill="none" stroke="lightgray" stroke-width="2" />
<path d="M105.0,105.0 L105.0,205.0 A100,100,0,0,1,104.99999999999999,5.0 Z" fill="none" stroke="lightgray" stroke-width="2" />
<path d="M105.0,105.0 L105.0,5.0 A100,100,0,0,1,105.0,205.0 Z" fill="#F5C754" stroke="lightgray" stroke-width="2" />
<use xlink:href="#clip-4462549984-4462071504" />
<g clip-path="url(#clip-4462549984-4462071504)">
<circle cx="105.0" cy="105.0" r="92" stroke="#DAA05D" stroke-width="16" fill="none" />
<circle cx="105.0" cy="105.0" r="98" stroke="#C37B32" stroke-width="5" fill="none" />
<circle cx="54.30777830743271" cy="84.57481460803437" r="4.875461268288184" fill="#FFFFFF" fill-opacity="0.42372550596851255" />
<circle cx="125.70496246010293" cy="139.8769805172729" r="5.7706465046995215" fill="#FFFFFF" fill-opacity="0.3282178540583285" />
<circle cx="42.719884635475914" cy="123.89252607499708" r="5.152343144749263" fill="#FFDE75" fill-opacity="0.5327938114864853" />
<circle cx="176.70492624595667" cy="140.8958447352125" r="4.919892792846713" fill="#FFDE75" fill-opacity="0.342135987852503" />
<circle cx="125.00744511409337" cy="39.02242627991765" r="4.859226433831731" fill="#FFFFFF" fill-opacity="0.3364274332086349" />
<circle cx="46.2441305665113" cy="141.89211779090817" r="4.732303345560691" fill="#FFDE75" fill-opacity="0.5558211858858181" />
<circle cx="128.1567029461269" cy="157.51004342153198" r="2.9192932015319046" fill="#8B4513" fill-opacity="0.5233042302366868" />
<circle cx="37.65690721412662" cy="127.89505497115353" r="5.270992547852911" fill="#FFFFFF" fill-opacity="0.29151863138681755" />
<circle cx="67.37210070435096" cy="102.94628886602293" r="2.334097551116773" fill="#D2691E" fill-opacity="0.3334009153028096" />
<circle cx="32.43649644804147" cy="66.59783085219911" r="5.82872301311242" fill="#D2691E" fill-opacity="0.45676291436287186" />
<circle cx="148.50895191283615" cy="126.12864845912497" r="2.4843083469002285" fill="#FFDE75" fill-opacity="0.35069064834289565" />
<circle cx="43.62012668054805" cy="64.55591752815403" r="4.938719344059811" fill="#FFDE75" fill-opacity="0.4010459201473945" />
<circle cx="94.35704584467614" cy="97.21452012572708" r="4.816841978115234" fill="#FFDE75" fill-opacity="0.2741748115424063" />
<circle cx="126.40666386212001" cy="57.810426600004135" r="4.660970697307802" fill="#8B4513" fill-opacity="0.5301021411993905" />
<circle cx="40.92480610909607" cy="152.24406327581073" r="5.100937645154351" fill="#8B4513" fill-opacity="0.430848758972143" />
<ellipse cx="125.90888157457601" cy="108.95741375049542" rx="6.7357008654132455" ry="4.070608626841324" fill="#FFFDF0" fill-opacity="0.6" />
<ellipse cx="125.02466261523014" cy="108.96490979462158" rx="2.8512313330800994" ry="2.020809457720782" fill="#FFFFFF" fill-opacity="0.85" />
<ellipse cx="30.757449785194723" cy="72.46387772850693" rx="8.224619079366878" ry="5.942263638919764" fill="#FFFDF0" fill-opacity="0.6" />
<ellipse cx="31.696011362419753" cy="72.87704521244804" rx="4.666638831056005" ry="2.256291581320159" fill="#FFFFFF" fill-opacity="0.85" />
<ellipse cx="116.93380587802766" cy="149.2900086170364" rx="7.12254821980135" ry="4.937498173823743" fill="#FFFDF0" fill-opacity="0.6" />
<ellipse cx="117.57208454808861" cy="149.92812894227305" rx="3.8901064035311332" ry="3.746243292361058" fill="#FFFFFF" fill-opacity="0.85" />
</g>
<rect x="230.0" y="41.0" width="54.0" height="54.0" fill="none" stroke="black" stroke-width="2" />
<rect x="230.0" y="115.0" width="54.0" height="54.0" fill="none" stroke="black" stroke-width="2" />
<path d="M225.0,105.0 L289.0,105.0" stroke="black" stroke-width="2" />
</g>
</svg>