<svg width="678.0" height="210.0" xmlns="http://www.w3.org/2000/svg" xmlns:xlink="http://www.w3.org/1999/xlink">
<svg x="0.0" y="0.0" width="284.0" height="210.0" viewBox="0 0 284.0 210" xmlns="http://www.w3.org/2000/svg" xmlns:xlink="http://www.w3.org/1999/xlink">
<defs>
<clipPath id="clip-4535519760-4534997712">
<path d="M105.0,105.0 L105.0,5.0 A100,100,0,0,1,105.0,205.0 Z" fill="none" />
</clipPath>
</defs>
<g>
<path d="M105.0,105.0 L105.0,5.0 A100,100,0,0,1,105.0,205.0 Z" fill="none" stroke="lightgray" stroke-width="2" />
<path d="M105.0,105.0 L105.0,205.0 A100,100,0,0,1,104.99999999999999,5.0 Z" fill="none" stroke="lightgray" stroke-width="2" />
<path d="M105.0,105.0 L105.0,5.0 A100,100,0,0,1,105.0,205.0 Z" fill="#F5C754" stroke="lightgray" stroke-width="2" />
<use xlink:href="#clip-4535519760-4534997712" />
<g clip-path="url(#clip-4535519760-4534997712)">
<circle cx="105.0" cy="105.0" r="92" stroke="#DAA05D" stroke-width="16" fill="none" />
<circle cx="105.0" cy="105.0" r="98" stroke="#C37B32" stroke-width="5" fill="none" />
<circle cx="49.264235214187934" cy="155.7186708276339" r="4.390497648020066" fill="#D2691E" fill-opacity="0.5313474892741239" />
<circle cx="77.5489623439998" cy="65.62220957655623" r="4.647985517982011" fill="#FFFFFF" fill-opacity="0.3906690817659729" />
<circle cx="127.2109144544239" cy="51.540202597922445" r="3.5816311228076954" fill="#D2691E" fill-opacity="0.5632066200338385" />
<circle cx="136.83661501946537" cy="117.56494354579002" r="2.2295058033769326" fill="#FFFFFF" fill-opacity="0.23473214581009563" />
<circle cx="134.29575056600197" cy="179.18092191886043" r="4.425853836273845" fill="#FFFFFF" fill-opacity="0.4534455573872835" />
<circle cx="71.6159374641639" cy="129.3795118000946" r="5.760581600809491" fill="#FFDE75" fill-opacity="0.24374770564004572" />
<circle cx="129.2578214484474" cy="119.42324086915451" r="3.7208527642631752" fill="#8B4513" fill-opacity="0.3732800498266079" />
<circle cx="46.32525804281014" cy="104.84033510263183" r="2.509308265659018" fill="#FFDE75" fill-opacity="0.5848136307089271" />
<circle cx="62.54688775029829" cy="67.90327883078982" r="3.4535748863224462" fill="#FFDE75" fill-opacity="0.20999053587385497" />
<circle cx="37.303259485919526" cy="118.47772883536527" r="5.441079154320356" fill="#FFDE75" fill-opacity="0.5072538590473146" />
<circle cx="111.42305857477514" cy="45.723131162016195" r="2.612280023762479" fill="#FFDE75" fill-opacity="0.4282036505397876" />
<circle cx="50.46054181360201" cy="134.5401765218288" r="2.3121910500553704" fill="#FFDE75" fill-opacity="0.2001740709553179" />
<circle cx="65.68228775727546" cy="77.68880864589215" r="5.862606880019301" fill="#FFDE75" fill-opacity="0.49799702164651244" />
<circle cx="127.51021931410932" cy="102.23336720318386" r="3.4509347013691345" fill="#8B4513" fill-opacity="0.4419182774198239" />
<circle cx="112.81937573380787" cy="181.99410147325682" r="4.244813460892011" fill="#D2691E" fill-opacity="0.36027847106839084" />
<ellipse cx="108.15228952864037" cy="65.24516551501169" rx="5.442476660221269" ry="4.477586408481978" fill="#FFFDF0" fill-opacity="0.6" />
<ellipse cx="108.34533537623545" cy="66.06770196370123" rx="2.3705238137201436" ry="2.5094737538192105" fill="#FFFFFF" fill-opacity="0.85" />
<ellipse cx="128.98205585281718" cy="173.43826101765825" rx="6.016369397581601" ry="4.105555421698496" fill="#FFFDF0" fill-opacity="0.6" />
<ellipse cx="128.47051017505115" cy="174.159704070229" rx="4.689143571423891" ry="2.1229916363477406" fill="#FFFFFF" fill-opacity="0.85" />
<ellipse cx="91.1220391111796" cy="126.82077277646033" rx="9.869154074620104" ry="6.910556055801086" fill="#FFFDF0" fill-opacity="0.6" />
<ellipse cx="91.1663185045811" cy="127.36779541276118" rx="3.3746261634714783" ry="2.572927205696126" fill="#FFFFFF" fill-opacity="0.85" />
</g>
<rect x="230.0" y="41.0" width="54.0" height="54.0" fill="none" stroke="black" stroke-width="2" />
<rect x="230.0" y="115.0" width="54.0" height="54.0" fill="none" stroke="black" stroke-width="2" />
<path d="M225.0,105.0 L289.0,105.0" stroke="black" stroke-width="2" />
<text x="257.0" y="68.0" font-size="36" font-family="Comic Sans MS, Comic Sans, cursive" dominant-baseline="middle" fill="black" text-anchor="middle">1</text>
<text x="257.0" y="142.0" font-size="36" font-family="Comic Sans MS, Comic Sans, cursive" dominant-baseline="middle" fill="black" text-anchor="middle">2</text>
</g>
</svg>
<rect x="299.0" y="65.0" width="80" height="80" fill="none" stroke="black" stroke-width="1.5"/>
<svg x="394.0" y="0.0" width="284.0" height="210.0" viewBox="0 0 284.0 210" xmlns="http://www.w3.org/2000/svg" xmlns:xlink="http://www.w3.org/1999/xlink">
<defs>
<clipPath id="clip-4523506384-4535001936">
<path d="M105.0,105.0 L105.0,5.0 A100,100,0,0,1,191.60254037844388,155.0 Z" fill="none" />
</clipPath>
<clipPath id="clip-4523506384-4535008080">
<path d="M105.0,105.0 L191.60254037844388,155.0 A100,100,0,0,1,18.397459621556123,155.0 Z" fill="none" />
</clipPath>
</defs>
<g>
<path d="M105.0,105.0 L105.0,5.0 A100,100,0,0,1,191.60254037844388,155.0 Z" fill="none" stroke="lightgray" stroke-width="2" />
<path d="M105.0,105.0 L191.60254037844388,155.0 A100,100,0,0,1,18.397459621556123,155.0 Z" fill="none" stroke="lightgray" stroke-width="2" />
<path d="M105.0,105.0 L18.397459621556123,155.0 A100,100,0,0,1,104.99999999999999,5.0 Z" fill="none" stroke="lightgray" stroke-width="2" />
<path d="M105.0,105.0 L105.0,5.0 A100,100,0,0,1,191.60254037844388,155.0 Z" fill="#F5C754" stroke="lightgray" stroke-width="2" />
<use xlink:href="#clip-4523506384-4535001936" />
<g clip-path="url(#clip-4523506384-4535001936)">
<circle cx="105.0" cy="105.0" r="92" stroke="#DAA05D" stroke-width="16" fill="none" />
<circle cx="105.0" cy="105.0" r="98" stroke="#C37B32" stroke-width="5" fill="none" />
<circle cx="141.23676851114863" cy="124.76859972893035" r="5.966909519186754" fill="#D2691E" fill-opacity="0.4741346728587509" />
<circle cx="119.51053849622542" cy="164.54287991846255" r="5.37426000012726" fill="#FFFFFF" fill-opacity="0.28883650856805293" />
<circle cx="35.94201548967638" cy="154.22680212262296" r="5.143747910149534" fill="#FFDE75" fill-opacity="0.3643210995045487" />
<circle cx="119.1546998425736" cy="123.82822815717316" r="3.4832027937597365" fill="#FFFFFF" fill-opacity="0.4524323762630907" />
<circle cx="93.54430031457616" cy="118.81771770599667" r="3.8282025686993144" fill="#8B4513" fill-opacity="0.5253704079847477" />
<circle cx="57.49462441554844" cy="141.81427549542641" r="2.907546378214613" fill="#D2691E" fill-opacity="0.5123635221200555" />
<circle cx="53.36718684769681" cy="117.50627605928041" r="3.268596045498265" fill="#FFDE75" fill-opacity="0.36475800855766394" />
<circle cx="142.2605109168025" cy="116.30742593658547" r="3.2877424864171476" fill="#FFFFFF" fill-opacity="0.29348945157510065" />
<circle cx="108.15478877373914" cy="117.93674847309708" r="4.756728934374948" fill="#D2691E" fill-opacity="0.5951446819949722" />
<circle cx="50.68097684902196" cy="170.36467031115856" r="3.4601412251418715" fill="#8B4513" fill-opacity="0.32432807975278766" />
<circle cx="106.05667607338845" cy="118.38704075440141" r="2.575763082725026" fill="#D2691E" fill-opacity="0.4957796538578755" />
<circle cx="44.865730476035644" cy="127.14348219875433" r="2.1986386169641894" fill="#D2691E" fill-opacity="0.21730237970063496" />
<circle cx="99.87280679446913" cy="167.9931432451449" r="2.087946679219846" fill="#FFFFFF" fill-opacity="0.3438931765154658" />
<circle cx="118.0943431200339" cy="34.20721010070706" r="3.075479666180947" fill="#FFFFFF" fill-opacity="0.20562637395019934" />
<circle cx="67.15916513733754" cy="146.96993572200395" r="5.412231759044399" fill="#FFFFFF" fill-opacity="0.22901288167413478" />
<circle cx="152.5554664977476" cy="36.64487979947259" r="3.349651072155929" fill="#8B4513" fill-opacity="0.28049914262022513" />
<circle cx="168.73950403918607" cy="119.71688742403981" r="5.860344949706937" fill="#8B4513" fill-opacity="0.40572235014382696" />
<circle cx="76.9050296514323" cy="117.85811220693878" r="4.831091458716864" fill="#8B4513" fill-opacity="0.21392611725674052" />
<circle cx="122.59424707622759" cy="84.46152308870987" r="5.841250995324247" fill="#8B4513" fill-opacity="0.2554628842213337" />
<circle cx="50.14456632715305" cy="143.54326438073787" r="4.301473410243371" fill="#8B4513" fill-opacity="0.20577937665554474" />
<circle cx="58.415300565369236" cy="146.56307151990404" r="3.4979247609589454" fill="#8B4513" fill-opacity="0.467028436566469" />
<circle cx="74.05844906635485" cy="108.53929855522618" r="5.045027410128235" fill="#D2691E" fill-opacity="0.4439768307733729" />
<circle cx="63.78508547171065" cy="37.39756073094013" r="5.41747109119877" fill="#D2691E" fill-opacity="0.547122246688684" />
<circle cx="79.0505475120816" cy="158.78906410746106" r="2.322541890493891" fill="#D2691E" fill-opacity="0.2692011704912489" />
<circle cx="119.38840251507432" cy="40.16453915508974" r="2.453434231665299" fill="#D2691E" fill-opacity="0.5308398419322962" />
<circle cx="76.12602582994819" cy="154.3397240179371" r="4.468718608679564" fill="#FFFFFF" fill-opacity="0.5445689806574907" />
<circle cx="158.58094438208744" cy="163.6554551115823" r="4.578945731730485" fill="#FFDE75" fill-opacity="0.5089521321626789" />
<circle cx="126.96169275979068" cy="83.52233387028727" r="5.063316467240179" fill="#FFDE75" fill-opacity="0.3193098862179605" />
<circle cx="35.45081550407413" cy="106.94177816943414" r="5.283984779378246" fill="#FFDE75" fill-opacity="0.5935971580852382" />
<circle cx="79.00865616286609" cy="98.52118319460689" r="5.059522742039425" fill="#D2691E" fill-opacity="0.42983939671677895" />
<ellipse cx="118.30665140617819" cy="182.92481790753482" rx="5.116208592300674" ry="7.861287958242716" fill="#FFFDF0" fill-opacity="0.6" />
<ellipse cx="117.95767288196116" cy="182.11031360984714" rx="2.904941342793388" ry="3.578416017307436" fill="#FFFFFF" fill-opacity="0.85" />
<ellipse cx="108.66122839956296" cy="30.326352137905744" rx="5.972998168728735" ry="7.2802039387642985" fill="#FFFDF0" fill-opacity="0.6" />
<ellipse cx="108.11625402783343" cy="30.075391527127678" rx="3.6898032079338785" ry="2.777970981070246" fill="#FFFFFF" fill-opacity="0.85" />
<ellipse cx="93.07996793011651" cy="144.36436280099613" rx="9.18297312242751" ry="4.354381447469734" fill="#FFFDF0" fill-opacity="0.6" />
<ellipse cx="93.77453745336899" cy="143.60671017092204" rx="2.1564731797568375" ry="2.130853866413407" fill="#FFFFFF" fill-opacity="0.85" />
<ellipse cx="174.89244013167462" cy="90.84602658906022" rx="5.041275870866597" ry="4.290708885552857" fill="#FFFDF0" fill-opacity="0.6" />
<ellipse cx="174.37491913110716" cy="91.14337257269655" rx="3.095587115099406" ry="3.759821204300005" fill="#FFFFFF" fill-opacity="0.85" />
<ellipse cx="141.0062901072581" cy="115.30225332236591" rx="5.466860504273353" ry="4.576036939076287" fill="#FFFDF0" fill-opacity="0.6" />
<ellipse cx="141.61521050786135" cy="115.39707690385941" rx="4.2872909031835" ry="3.332761129540132" fill="#FFFFFF" fill-opacity="0.85" />
<ellipse cx="82.41100727069883" cy="106.86785131359233" rx="7.699834238254013" ry="7.958336272928352" fill="#FFFDF0" fill-opacity="0.6" />
<ellipse cx="83.23027904702823" cy="107.05765224996782" rx="3.847972384203441" ry="3.5580135497405614" fill="#FFFFFF" fill-opacity="0.85" />
</g>
<path d="M105.0,105.0 L191.60254037844388,155.0 A100,100,0,0,1,18.397459621556123,155.0 Z" fill="#F5C754" stroke="lightgray" stroke-width="2" />
<use xlink:href="#clip-4523506384-4535008080" />
<g clip-path="url(#clip-4523506384-4535008080)">
<circle cx="105.0" cy="105.0" r="92" stroke="#DAA05D" stroke-width="16" fill="none" />
<circle cx="105.0" cy="105.0" r="98" stroke="#C37B32" stroke-width="5" fill="none" />
<circle cx="141.23676851114863" cy="124.76859972893035" r="5.966909519186754" fill="#D2691E" fill-opacity="0.4741346728587509" />
<circle cx="119.51053849622542" cy="164.54287991846255" r="5.37426000012726" fill="#FFFFFF" fill-opacity="0.28883650856805293" />
<circle cx="35.94201548967638" cy="154.22680212262296" r="5.143747910149534" fill="#FFDE75" fill-opacity="0.3643210995045487" />
<circle cx="119.1546998425736" cy="123.82822815717316" r="3.4832027937597365" fill="#FFFFFF" fill-opacity="0.4524323762630907" />
<circle cx="93.54430031457616" cy="118.81771770599667" r="3.8282025686993144" fill="#8B4513" fill-opacity="0.5253704079847477" />
<circle cx="57.49462441554844" cy="141.81427549542641" r="2.907546378214613" fill="#D2691E" fill-opacity="0.5123635221200555" />
<circle cx="53.36718684769681" cy="117.50627605928041" r="3.268596045498265" fill="#FFDE75" fill-opacity="0.36475800855766394" />
<circle cx="142.2605109168025" cy="116.30742593658547" r="3.2877424864171476" fill="#FFFFFF" fill-opacity="0.29348945157510065" />
<circle cx="108.15478877373914" cy="117.93674847309708" r="4.756728934374948" fill="#D2691E" fill-opacity="0.5951446819949722" />
<circle cx="50.68097684902196" cy="170.36467031115856" r="3.4601412251418715" fill="#8B4513" fill-opacity="0.32432807975278766" />
<circle cx="106.05667607338845" cy="118.38704075440141" r="2.575763082725026" fill="#D2691E" fill-opacity="0.4957796538578755" />
<circle cx="44.865730476035644" cy="127.14348219875433" r="2.1986386169641894" fill="#D2691E" fill-opacity="0.21730237970063496" />
<circle cx="99.87280679446913" cy="167.9931432451449" r="2.087946679219846" fill="#FFFFFF" fill-opacity="0.3438931765154658" />
<circle cx="118.0943431200339" cy="34.20721010070706" r="3.075479666180947" fill="#FFFFFF" fill-opacity="0.20562637395019934" />
<circle cx="67.15916513733754" cy="146.96993572200395" r="5.412231759044399" fill="#FFFFFF" fill-opacity="0.22901288167413478" />
<circle cx="152.5554664977476" cy="36.64487979947259" r="3.349651072155929" fill="#8B4513" fill-opacity="0.28049914262022513" />
<circle cx="168.73950403918607" cy="119.71688742403981" r="5.860344949706937" fill="#8B4513" fill-opacity="0.40572235014382696" />
<circle cx="76.9050296514323" cy="117.85811220693878" r="4.831091458716864" fill="#8B4513" fill-opacity="0.21392611725674052" />
<circle cx="122.59424707622759" cy="84.46152308870987" r="5.841250995324247" fill="#8B4513" fill-opacity="0.2554628842213337" />
<circle cx="50.14456632715305" cy="143.54326438073787" r="4.301473410243371" fill="#8B4513" fill-opacity="0.20577937665554474" />
<circle cx="58.415300565369236" cy="146.56307151990404" r="3.4979247609589454" fill="#8B4513" fill-opacity="0.467028436566469" />
<circle cx="74.05844906635485" cy="108.53929855522618" r="5.045027410128235" fill="#D2691E" fill-opacity="0.4439768307733729" />
<circle cx="63.78508547171065" cy="37.39756073094013" r="5.41747109119877" fill="#D2691E" fill-opacity="0.547122246688684" />
<circle cx="79.0505475120816" cy="158.78906410746106" r="2.322541890493891" fill="#D2691E" fill-opacity="0.2692011704912489" />
<circle cx="119.38840251507432" cy="40.16453915508974" r="2.453434231665299" fill="#D2691E" fill-opacity="0.5308398419322962" />
<circle cx="76.12602582994819" cy="154.3397240179371" r="4.468718608679564" fill="#FFFFFF" fill-opacity="0.5445689806574907" />
<circle cx="158.58094438208744" cy="163.6554551115823" r="4.578945731730485" fill="#FFDE75" fill-opacity="0.5089521321626789" />
<circle cx="126.96169275979068" cy="83.52233387028727" r="5.063316467240179" fill="#FFDE75" fill-opacity="0.3193098862179605" />
<circle cx="35.45081550407413" cy="106.94177816943414" r="5.283984779378246" fill="#FFDE75" fill-opacity="0.5935971580852382" />
<circle cx="79.00865616286609" cy="98.52118319460689" r="5.059522742039425" fill="#D2691E" fill-opacity="0.42983939671677895" />
<ellipse cx="118.30665140617819" cy="182.92481790753482" rx="5.116208592300674" ry="7.861287958242716" fill="#FFFDF0" fill-opacity="0.6" />
<ellipse cx="117.95767288196116" cy="182.11031360984714" rx="2.904941342793388" ry="3.578416017307436" fill="#FFFFFF" fill-opacity="0.85" />
<ellipse cx="108.66122839956296" cy="30.326352137905744" rx="5.972998168728735" ry="7.2802039387642985" fill="#FFFDF0" fill-opacity="0.6" />
<ellipse cx="108.11625402783343" cy="30.075391527127678" rx="3.6898032079338785" ry="2.777970981070246" fill="#FFFFFF" fill-opacity="0.85" />
<ellipse cx="93.07996793011651" cy="144.36436280099613" rx="9.18297312242751" ry="4.354381447469734" fill="#FFFDF0" fill-opacity="0.6" />
<ellipse cx="93.77453745336899" cy="143.60671017092204" rx="2.1564731797568375" ry="2.130853866413407" fill="#FFFFFF" fill-opacity="0.85" />
<ellipse cx="174.89244013167462" cy="90.84602658906022" rx="5.041275870866597" ry="4.290708885552857" fill="#FFFDF0" fill-opacity="0.6" />
<ellipse cx="174.37491913110716" cy="91.14337257269655" rx="3.095587115099406" ry="3.759821204300005" fill="#FFFFFF" fill-opacity="0.85" />
<ellipse cx="141.0062901072581" cy="115.30225332236591" rx="5.466860504273353" ry="4.576036939076287" fill="#FFFDF0" fill-opacity="0.6" />
<ellipse cx="141.61521050786135" cy="115.39707690385941" rx="4.2872909031835" ry="3.332761129540132" fill="#FFFFFF" fill-opacity="0.85" />
<ellipse cx="82.41100727069883" cy="106.86785131359233" rx="7.699834238254013" ry="7.958336272928352" fill="#FFFDF0" fill-opacity="0.6" />
<ellipse cx="83.23027904702823" cy="107.05765224996782" rx="3.847972384203441" ry="3.5580135497405614" fill="#FFFFFF" fill-opacity="0.85" />
</g>
<rect x="230.0" y="41.0" width="54.0" height="54.0" fill="none" stroke="black" stroke-width="2" />
<rect x="230.0" y="115.0" width="54.0" height="54.0" fill="none" stroke="black" stroke-width="2" />
<path d="M225.0,105.0 L289.0,105.0" stroke="black" stroke-width="2" />
<text x="257.0" y="68.0" font-size="36" font-family="Comic Sans MS, Comic Sans, cursive" dominant-baseline="middle" fill="black" text-anchor="middle">2</text>
<text x="257.0" y="142.0" font-size="36" font-family="Comic Sans MS, Comic Sans, cursive" dominant-baseline="middle" fill="black" text-anchor="middle">3</text>
</g>
</svg>
</svg>