<?xml version="1.0" ?>
<svg xmlns="http://www.w3.org/2000/svg" version="1.1" width="920.80px" height="3000px" viewBox="1058.51 0 920.80 3000">
  <polygon points="1209.27,1257.97 1209.82,1278.08 1211.89,1284.19 1211.33,1264.05" fill="#60afff" stroke="#60afff" stroke-width="0.5" stroke-linecap="round" stroke-linejoin="round"/>
  <polygon points="1274.47,1264.05 1274.90,1284.19 1277.94,1278.08 1277.51,1257.97" fill="#60afff" stroke="#60afff" stroke-width="0.5" stroke-linecap="round" stroke-linejoin="round"/>
  <polygon points="1275.33,1251.91 1268.32,1246.82 1257.56,1243.39 1244.66,1242.19 1231.56,1243.39 1220.26,1246.82 1212.43,1251.91 1209.27,1257.97 1211.33,1264.05 1218.29,1269.24 1229.09,1272.68 1242.11,1273.91 1255.33,1272.68 1266.69,1269.24 1274.47,1264.05 1277.51,1257.97" fill="#60afff" stroke="#60afff" stroke-width="0.5" stroke-linecap="round" stroke-linejoin="round"/>
  <polygon points="1211.33,1264.05 1211.89,1284.19 1218.83,1289.40 1218.29,1269.24" fill="#60afff" stroke="#60afff" stroke-width="0.5" stroke-linecap="round" stroke-linejoin="round"/>
  <polygon points="1266.69,1269.24 1267.13,1289.40 1274.90,1284.19 1274.47,1264.05" fill="#60afff" stroke="#60afff" stroke-width="0.5" stroke-linecap="round" stroke-linejoin="round"/>
  <polygon points="1218.29,1269.24 1218.83,1289.40 1229.61,1292.86 1229.09,1272.68" fill="#60afff" stroke="#60afff" stroke-width="0.5" stroke-linecap="round" stroke-linejoin="round"/>
  <polygon points="1255.33,1272.68 1255.80,1292.86 1267.13,1289.40 1266.69,1269.24" fill="#60afff" stroke="#60afff" stroke-width="0.5" stroke-linecap="round" stroke-linejoin="round"/>
  <polygon points="1229.09,1272.68 1229.61,1292.86 1242.61,1294.09 1242.11,1273.91" fill="#60afff" stroke="#60afff" stroke-width="0.5" stroke-linecap="round" stroke-linejoin="round"/>
  <polygon points="1242.11,1273.91 1242.61,1294.09 1255.80,1292.86 1255.33,1272.68" fill="#60afff" stroke="#60afff" stroke-width="0.5" stroke-linecap="round" stroke-linejoin="round"/>
  <polygon points="1190.31,1302.00 1190.91,1322.31 1194.14,1316.05 1193.55,1295.77" fill="#60afff" stroke="#60afff" stroke-width="0.5" stroke-linecap="round" stroke-linejoin="round"/>
  <polygon points="1353.28,1302.00 1353.57,1322.31 1356.49,1316.05 1356.21,1295.77" fill="#60afff" stroke="#60afff" stroke-width="0.5" stroke-linecap="round" stroke-linejoin="round"/>
  <polygon points="1124.50,1295.77 1125.23,1316.05 1127.15,1322.31 1126.43,1302.00" fill="#60afff" stroke="#60afff" stroke-width="0.5" stroke-linecap="round" stroke-linejoin="round"/>
  <polygon points="1287.16,1295.77 1287.57,1316.05 1289.81,1322.31 1289.40,1302.00" fill="#60afff" stroke="#60afff" stroke-width="0.5" stroke-linecap="round" stroke-linejoin="round"/>
  <polygon points="1334.13,1310.84 1345.54,1307.31 1353.28,1302.00 1356.21,1295.77 1353.85,1289.57 1346.63,1284.36 1335.66,1280.85 1322.58,1279.62 1309.35,1280.85 1298.00,1284.36 1290.21,1289.57 1287.16,1295.77 1289.40,1302.00 1296.56,1307.31 1307.58,1310.84 1320.79,1312.09" fill="#60afff" stroke="#60afff" stroke-width="0.5" stroke-linecap="round" stroke-linejoin="round"/>
  <polygon points="1126.43,1302.00 1133.33,1307.31 1144.16,1310.84 1157.31,1312.09 1170.72,1310.84 1182.30,1307.31 1190.31,1302.00 1193.55,1295.77 1191.50,1289.57 1184.54,1284.36 1173.76,1280.85 1160.73,1279.62 1147.45,1280.85 1135.92,1284.36 1127.86,1289.57 1124.50,1295.77" fill="#60afff" stroke="#60afff" stroke-width="0.5" stroke-linecap="round" stroke-linejoin="round"/>
  <polygon points="1289.40,1302.00 1289.81,1322.31 1296.96,1327.64 1296.56,1307.31" fill="#60afff" stroke="#60afff" stroke-width="0.5" stroke-linecap="round" stroke-linejoin="round"/>
  <polygon points="1182.30,1307.31 1182.91,1327.64 1190.91,1322.31 1190.31,1302.00" fill="#60afff" stroke="#60afff" stroke-width="0.5" stroke-linecap="round" stroke-linejoin="round"/>
  <polygon points="1126.43,1302.00 1127.15,1322.31 1134.03,1327.64 1133.33,1307.31" fill="#60afff" stroke="#60afff" stroke-width="0.5" stroke-linecap="round" stroke-linejoin="round"/>
  <polygon points="1345.54,1307.31 1345.83,1327.64 1353.57,1322.31 1353.28,1302.00" fill="#60afff" stroke="#60afff" stroke-width="0.5" stroke-linecap="round" stroke-linejoin="round"/>
  <polygon points="1133.33,1307.31 1134.03,1327.64 1144.85,1331.18 1144.16,1310.84" fill="#60afff" stroke="#60afff" stroke-width="0.5" stroke-linecap="round" stroke-linejoin="round"/>
  <polygon points="1170.72,1310.84 1171.35,1331.18 1182.91,1327.64 1182.30,1307.31" fill="#60afff" stroke="#60afff" stroke-width="0.5" stroke-linecap="round" stroke-linejoin="round"/>
  <polygon points="1296.56,1307.31 1296.96,1327.64 1307.95,1331.18 1307.58,1310.84" fill="#60afff" stroke="#60afff" stroke-width="0.5" stroke-linecap="round" stroke-linejoin="round"/>
  <polygon points="1334.13,1310.84 1334.45,1331.18 1345.83,1327.64 1345.54,1307.31" fill="#60afff" stroke="#60afff" stroke-width="0.5" stroke-linecap="round" stroke-linejoin="round"/>
  <polygon points="1157.31,1312.09 1157.97,1332.44 1171.35,1331.18 1170.72,1310.84" fill="#60afff" stroke="#60afff" stroke-width="0.5" stroke-linecap="round" stroke-linejoin="round"/>
  <polygon points="1144.16,1310.84 1144.85,1331.18 1157.97,1332.44 1157.31,1312.09" fill="#60afff" stroke="#60afff" stroke-width="0.5" stroke-linecap="round" stroke-linejoin="round"/>
  <polygon points="1320.79,1312.09 1321.13,1332.44 1334.45,1331.18 1334.13,1310.84" fill="#60afff" stroke="#60afff" stroke-width="0.5" stroke-linecap="round" stroke-linejoin="round"/>
  <polygon points="1307.58,1310.84 1307.95,1331.18 1321.13,1332.44 1320.79,1312.09" fill="#60afff" stroke="#60afff" stroke-width="0.5" stroke-linecap="round" stroke-linejoin="round"/>
  <polygon points="1246.83,1241.01 1078.51,1316.07 1398.41,1477.35 1567.13,1394.76" fill="#60afff" stroke="#60afff" stroke-width="0.5" stroke-linecap="round" stroke-linejoin="round"/>
  <polygon points="1202.31,1334.48 1202.89,1354.93 1204.99,1361.33 1204.41,1340.86" fill="#60afff" stroke="#60afff" stroke-width="0.5" stroke-linecap="round" stroke-linejoin="round"/>
  <polygon points="1269.06,1340.86 1269.51,1361.33 1272.63,1354.93 1272.19,1334.48" fill="#60afff" stroke="#60afff" stroke-width="0.5" stroke-linecap="round" stroke-linejoin="round"/>
  <polygon points="1366.92,1334.48 1367.18,1354.93 1369.59,1361.33 1369.34,1340.86" fill="#60afff" stroke="#60afff" stroke-width="0.5" stroke-linecap="round" stroke-linejoin="round"/>
  <polygon points="1433.99,1340.86 1434.12,1361.33 1436.92,1354.93 1436.79,1334.48" fill="#60afff" stroke="#60afff" stroke-width="0.5" stroke-linecap="round" stroke-linejoin="round"/>
  <polygon points="1402.35,1317.94 1389.00,1319.20 1377.60,1322.79 1369.85,1328.13 1366.92,1334.48 1369.34,1340.86 1376.72,1346.30 1387.95,1349.91 1401.35,1351.19 1414.83,1349.91 1426.28,1346.30 1433.99,1340.86 1436.79,1334.48 1434.24,1328.13 1426.81,1322.79 1415.62,1319.20" fill="#60afff" stroke="#60afff" stroke-width="0.5" stroke-linecap="round" stroke-linejoin="round"/>
  <polygon points="1222.57,1349.91 1235.91,1351.19 1249.45,1349.91 1261.08,1346.30 1269.06,1340.86 1272.19,1334.48 1269.96,1328.13 1262.79,1322.79 1251.79,1319.20 1238.58,1317.94 1225.16,1319.20 1213.59,1322.79 1205.56,1328.13 1202.31,1334.48 1204.41,1340.86 1211.52,1346.30" fill="#60afff" stroke="#60afff" stroke-width="0.5" stroke-linecap="round" stroke-linejoin="round"/>
  <polygon points="1204.41,1340.86 1204.99,1361.33 1212.09,1366.79 1211.52,1346.30" fill="#60afff" stroke="#60afff" stroke-width="0.5" stroke-linecap="round" stroke-linejoin="round"/>
  <polygon points="1369.34,1340.86 1369.59,1361.33 1376.96,1366.79 1376.72,1346.30" fill="#60afff" stroke="#60afff" stroke-width="0.5" stroke-linecap="round" stroke-linejoin="round"/>
  <polygon points="1261.08,1346.30 1261.55,1366.79 1269.51,1361.33 1269.06,1340.86" fill="#60afff" stroke="#60afff" stroke-width="0.5" stroke-linecap="round" stroke-linejoin="round"/>
  <polygon points="1426.28,1346.30 1426.42,1366.79 1434.12,1361.33 1433.99,1340.86" fill="#60afff" stroke="#60afff" stroke-width="0.5" stroke-linecap="round" stroke-linejoin="round"/>
  <polygon points="1211.52,1346.30 1212.09,1366.79 1223.12,1370.42 1222.57,1349.91" fill="#60afff" stroke="#60afff" stroke-width="0.5" stroke-linecap="round" stroke-linejoin="round"/>
  <polygon points="1414.83,1349.91 1415.00,1370.42 1426.42,1366.79 1426.28,1346.30" fill="#60afff" stroke="#60afff" stroke-width="0.5" stroke-linecap="round" stroke-linejoin="round"/>
  <polygon points="1249.45,1349.91 1249.94,1370.42 1261.55,1366.79 1261.08,1346.30" fill="#60afff" stroke="#60afff" stroke-width="0.5" stroke-linecap="round" stroke-linejoin="round"/>
  <polygon points="1376.72,1346.30 1376.96,1366.79 1388.17,1370.42 1387.95,1349.91" fill="#60afff" stroke="#60afff" stroke-width="0.5" stroke-linecap="round" stroke-linejoin="round"/>
  <polygon points="1387.95,1349.91 1388.17,1370.42 1401.55,1371.71 1401.35,1351.19" fill="#60afff" stroke="#60afff" stroke-width="0.5" stroke-linecap="round" stroke-linejoin="round"/>
  <polygon points="1222.57,1349.91 1223.12,1370.42 1236.43,1371.71 1235.91,1351.19" fill="#60afff" stroke="#60afff" stroke-width="0.5" stroke-linecap="round" stroke-linejoin="round"/>
  <polygon points="1401.35,1351.19 1401.55,1371.71 1415.00,1370.42 1414.83,1349.91" fill="#60afff" stroke="#60afff" stroke-width="0.5" stroke-linecap="round" stroke-linejoin="round"/>
  <polygon points="1235.91,1351.19 1236.43,1371.71 1249.94,1370.42 1249.45,1349.91" fill="#60afff" stroke="#60afff" stroke-width="0.5" stroke-linecap="round" stroke-linejoin="round"/>
  <polygon points="1399.62,1601.33 1398.41,1477.35 1078.51,1316.07 1083.33,1436.11" fill="#60afff" stroke="#60afff" stroke-width="0.5" stroke-linecap="round" stroke-linejoin="round"/>
  <polygon points="1516.65,1380.66 1516.62,1401.30 1519.29,1394.74 1519.33,1374.13" fill="#60afff" stroke="#60afff" stroke-width="0.5" stroke-linecap="round" stroke-linejoin="round"/>
  <polygon points="1448.60,1374.13 1448.71,1394.74 1451.31,1401.30 1451.22,1380.66" fill="#60afff" stroke="#60afff" stroke-width="0.5" stroke-linecap="round" stroke-linejoin="round"/>
  <polygon points="1349.72,1380.66 1350.02,1401.30 1353.02,1394.74 1352.73,1374.13" fill="#60afff" stroke="#60afff" stroke-width="0.5" stroke-linecap="round" stroke-linejoin="round"/>
  <polygon points="1282.01,1374.13 1282.44,1394.74 1284.72,1401.30 1284.29,1380.66" fill="#60afff" stroke="#60afff" stroke-width="0.5" stroke-linecap="round" stroke-linejoin="round"/>
  <polygon points="1342.93,1362.15 1331.70,1358.47 1318.30,1357.18 1304.76,1358.47 1293.13,1362.15 1285.14,1367.62 1282.01,1374.13 1284.29,1380.66 1291.62,1386.23 1302.89,1389.93 1316.42,1391.25 1330.10,1389.93 1341.78,1386.23 1349.72,1380.66 1352.73,1374.13 1350.31,1367.62" fill="#60afff" stroke="#60afff" stroke-width="0.5" stroke-linecap="round" stroke-linejoin="round"/>
  <polygon points="1516.59,1367.62 1508.92,1362.15 1497.51,1358.47 1484.05,1357.18 1470.57,1358.47 1459.12,1362.15 1451.41,1367.62 1448.60,1374.13 1451.22,1380.66 1458.83,1386.23 1470.29,1389.93 1483.88,1391.25 1497.49,1389.93 1508.99,1386.23 1516.65,1380.66 1519.33,1374.13" fill="#60afff" stroke="#60afff" stroke-width="0.5" stroke-linecap="round" stroke-linejoin="round"/>
  <polygon points="1451.22,1380.66 1451.31,1401.30 1458.91,1406.89 1458.83,1386.23" fill="#60afff" stroke="#60afff" stroke-width="0.5" stroke-linecap="round" stroke-linejoin="round"/>
  <polygon points="1341.78,1386.23 1342.09,1406.89 1350.02,1401.30 1349.72,1380.66" fill="#60afff" stroke="#60afff" stroke-width="0.5" stroke-linecap="round" stroke-linejoin="round"/>
  <polygon points="1284.29,1380.66 1284.72,1401.30 1292.03,1406.89 1291.62,1386.23" fill="#60afff" stroke="#60afff" stroke-width="0.5" stroke-linecap="round" stroke-linejoin="round"/>
  <polygon points="1508.99,1386.23 1508.97,1406.89 1516.62,1401.30 1516.65,1380.66" fill="#60afff" stroke="#60afff" stroke-width="0.5" stroke-linecap="round" stroke-linejoin="round"/>
  <polygon points="1330.10,1389.93 1330.43,1410.61 1342.09,1406.89 1341.78,1386.23" fill="#60afff" stroke="#60afff" stroke-width="0.5" stroke-linecap="round" stroke-linejoin="round"/>
  <polygon points="1458.83,1386.23 1458.91,1406.89 1470.35,1410.61 1470.29,1389.93" fill="#60afff" stroke="#60afff" stroke-width="0.5" stroke-linecap="round" stroke-linejoin="round"/>
  <polygon points="1497.49,1389.93 1497.49,1410.61 1508.97,1406.89 1508.99,1386.23" fill="#60afff" stroke="#60afff" stroke-width="0.5" stroke-linecap="round" stroke-linejoin="round"/>
  <polygon points="1291.62,1386.23 1292.03,1406.89 1303.29,1410.61 1302.89,1389.93" fill="#60afff" stroke="#60afff" stroke-width="0.5" stroke-linecap="round" stroke-linejoin="round"/>
  <polygon points="1470.29,1389.93 1470.35,1410.61 1483.91,1411.93 1483.88,1391.25" fill="#60afff" stroke="#60afff" stroke-width="0.5" stroke-linecap="round" stroke-linejoin="round"/>
  <polygon points="1483.88,1391.25 1483.91,1411.93 1497.49,1410.61 1497.49,1389.93" fill="#60afff" stroke="#60afff" stroke-width="0.5" stroke-linecap="round" stroke-linejoin="round"/>
  <polygon points="1316.42,1391.25 1316.79,1411.93 1330.43,1410.61 1330.10,1389.93" fill="#60afff" stroke="#60afff" stroke-width="0.5" stroke-linecap="round" stroke-linejoin="round"/>
  <polygon points="1302.89,1389.93 1303.29,1410.61 1316.79,1411.93 1316.42,1391.25" fill="#60afff" stroke="#60afff" stroke-width="0.5" stroke-linecap="round" stroke-linejoin="round"/>
  <polygon points="1567.13,1394.76 1398.41,1477.35 1399.62,1601.33 1566.35,1516.74" fill="#60afff" stroke="#60afff" stroke-width="0.5" stroke-linecap="round" stroke-linejoin="round"/>
  <polygon points="1432.37,1421.44 1432.50,1442.25 1435.37,1435.53 1435.24,1414.74" fill="#60afff" stroke="#60afff" stroke-width="0.5" stroke-linecap="round" stroke-linejoin="round"/>
  <polygon points="1363.65,1414.74 1363.93,1435.53 1366.40,1442.25 1366.13,1421.44" fill="#60afff" stroke="#60afff" stroke-width="0.5" stroke-linecap="round" stroke-linejoin="round"/>
  <polygon points="1398.92,1432.29 1412.73,1430.94 1424.47,1427.14 1432.37,1421.44 1435.24,1414.74 1432.64,1408.08 1425.02,1402.48 1413.57,1398.70 1399.97,1397.38 1386.29,1398.70 1374.61,1402.48 1366.66,1408.08 1363.65,1414.74 1366.13,1421.44 1373.69,1427.14 1385.19,1430.94" fill="#60afff" stroke="#60afff" stroke-width="0.5" stroke-linecap="round" stroke-linejoin="round"/>
  <polygon points="1366.13,1421.44 1366.40,1442.25 1373.94,1447.98 1373.69,1427.14" fill="#60afff" stroke="#60afff" stroke-width="0.5" stroke-linecap="round" stroke-linejoin="round"/>
  <polygon points="1424.47,1427.14 1424.62,1447.98 1432.50,1442.25 1432.37,1421.44" fill="#60afff" stroke="#60afff" stroke-width="0.5" stroke-linecap="round" stroke-linejoin="round"/>
  <polygon points="1412.73,1430.94 1412.91,1451.79 1424.62,1447.98 1424.47,1427.14" fill="#60afff" stroke="#60afff" stroke-width="0.5" stroke-linecap="round" stroke-linejoin="round"/>
  <polygon points="1373.69,1427.14 1373.94,1447.98 1385.42,1451.79 1385.19,1430.94" fill="#60afff" stroke="#60afff" stroke-width="0.5" stroke-linecap="round" stroke-linejoin="round"/>
  <polygon points="1385.19,1430.94 1385.42,1451.79 1399.12,1453.15 1398.92,1432.29" fill="#60afff" stroke="#60afff" stroke-width="0.5" stroke-linecap="round" stroke-linejoin="round"/>
  <polygon points="1398.92,1432.29 1399.12,1453.15 1412.91,1451.79 1412.73,1430.94" fill="#60afff" stroke="#60afff" stroke-width="0.5" stroke-linecap="round" stroke-linejoin="round"/>
  <polygon points="1565.54,1439.92 1565.41,1460.90 1568.27,1467.78 1568.41,1446.76" fill="#afbfd6" stroke="#afbfd6" stroke-width="0.5" stroke-linecap="round" stroke-linejoin="round"/>
  <polygon points="1635.46,1446.76 1635.18,1467.78 1637.68,1460.92 1637.96,1439.94" fill="#afbfd6" stroke="#afbfd6" stroke-width="0.5" stroke-linecap="round" stroke-linejoin="round"/>
  <polygon points="1568.41,1446.76 1576.45,1452.56 1588.29,1456.45 1602.31,1457.81 1616.16,1456.45 1627.85,1452.56 1635.46,1446.76 1637.96,1439.94 1634.91,1433.14 1626.90,1427.41 1615.04,1423.58 1601.20,1422.23 1587.44,1423.58 1575.89,1427.41 1568.14,1433.14 1565.54,1439.92" fill="#afbfd6" stroke="#afbfd6" stroke-width="0.5" stroke-linecap="round" stroke-linejoin="round"/>
  <polygon points="1627.85,1452.56 1627.59,1473.60 1635.18,1467.78 1635.46,1446.76" fill="#afbfd6" stroke="#afbfd6" stroke-width="0.5" stroke-linecap="round" stroke-linejoin="round"/>
  <polygon points="1568.41,1446.76 1568.27,1467.78 1576.30,1473.60 1576.45,1452.56" fill="#afbfd6" stroke="#afbfd6" stroke-width="0.5" stroke-linecap="round" stroke-linejoin="round"/>
  <polygon points="1576.45,1452.56 1576.30,1473.60 1588.11,1477.50 1588.29,1456.45" fill="#afbfd6" stroke="#afbfd6" stroke-width="0.5" stroke-linecap="round" stroke-linejoin="round"/>
  <polygon points="1616.16,1456.45 1615.93,1477.50 1627.59,1473.60 1627.85,1452.56" fill="#afbfd6" stroke="#afbfd6" stroke-width="0.5" stroke-linecap="round" stroke-linejoin="round"/>
  <polygon points="1588.29,1456.45 1588.11,1477.50 1602.10,1478.87 1602.31,1457.81" fill="#afbfd6" stroke="#afbfd6" stroke-width="0.5" stroke-linecap="round" stroke-linejoin="round"/>
  <polygon points="1602.31,1457.81 1602.10,1478.87 1615.93,1477.50 1616.16,1456.45" fill="#afbfd6" stroke="#afbfd6" stroke-width="0.5" stroke-linecap="round" stroke-linejoin="round"/>
  <polygon points="1479.95,1482.37 1479.99,1503.53 1482.72,1510.58 1482.68,1489.39" fill="#afbfd6" stroke="#afbfd6" stroke-width="0.5" stroke-linecap="round" stroke-linejoin="round"/>
  <polygon points="1652.78,1482.37 1652.47,1503.53 1655.55,1510.58 1655.87,1489.39" fill="#afbfd6" stroke="#afbfd6" stroke-width="0.5" stroke-linecap="round" stroke-linejoin="round"/>
  <polygon points="1550.57,1489.39 1550.47,1510.58 1553.17,1503.55 1553.28,1482.39" fill="#afbfd6" stroke="#afbfd6" stroke-width="0.5" stroke-linecap="round" stroke-linejoin="round"/>
  <polygon points="1723.75,1489.39 1723.29,1510.58 1725.64,1503.55 1726.11,1482.39" fill="#afbfd6" stroke="#afbfd6" stroke-width="0.5" stroke-linecap="round" stroke-linejoin="round"/>
  <polygon points="1502.54,1465.62 1490.75,1469.54 1482.75,1475.42 1479.95,1482.37 1482.68,1489.39 1490.68,1495.33 1502.56,1499.32 1516.72,1500.71 1530.79,1499.32 1542.72,1495.33 1550.57,1489.39 1553.28,1482.39 1550.36,1475.42 1542.40,1469.54 1530.48,1465.62 1516.50,1464.24" fill="#afbfd6" stroke="#afbfd6" stroke-width="0.5" stroke-linecap="round" stroke-linejoin="round"/>
  <polygon points="1655.23,1475.42 1652.78,1482.37 1655.87,1489.39 1664.16,1495.33 1676.25,1499.32 1690.48,1500.71 1704.47,1499.32 1716.21,1495.33 1723.75,1489.39 1726.11,1482.39 1722.84,1475.42 1714.58,1469.54 1702.47,1465.62 1688.42,1464.24 1674.52,1465.62 1662.93,1469.54" fill="#afbfd6" stroke="#afbfd6" stroke-width="0.5" stroke-linecap="round" stroke-linejoin="round"/>
  <polygon points="1542.72,1495.33 1542.63,1516.55 1550.47,1510.58 1550.57,1489.39" fill="#afbfd6" stroke="#afbfd6" stroke-width="0.5" stroke-linecap="round" stroke-linejoin="round"/>
  <polygon points="1716.21,1495.33 1715.76,1516.55 1723.29,1510.58 1723.75,1489.39" fill="#afbfd6" stroke="#afbfd6" stroke-width="0.5" stroke-linecap="round" stroke-linejoin="round"/>
  <polygon points="1482.68,1489.39 1482.72,1510.58 1490.69,1516.55 1490.68,1495.33" fill="#afbfd6" stroke="#afbfd6" stroke-width="0.5" stroke-linecap="round" stroke-linejoin="round"/>
  <polygon points="1655.87,1489.39 1655.55,1510.58 1663.82,1516.55 1664.16,1495.33" fill="#afbfd6" stroke="#afbfd6" stroke-width="0.5" stroke-linecap="round" stroke-linejoin="round"/>
  <polygon points="1704.47,1499.32 1704.05,1520.55 1715.76,1516.55 1716.21,1495.33" fill="#afbfd6" stroke="#afbfd6" stroke-width="0.5" stroke-linecap="round" stroke-linejoin="round"/>
  <polygon points="1664.16,1495.33 1663.82,1516.55 1675.89,1520.55 1676.25,1499.32" fill="#afbfd6" stroke="#afbfd6" stroke-width="0.5" stroke-linecap="round" stroke-linejoin="round"/>
  <polygon points="1490.68,1495.33 1490.69,1516.55 1502.56,1520.55 1502.56,1499.32" fill="#afbfd6" stroke="#afbfd6" stroke-width="0.5" stroke-linecap="round" stroke-linejoin="round"/>
  <polygon points="1530.79,1499.32 1530.72,1520.55 1542.63,1516.55 1542.72,1495.33" fill="#afbfd6" stroke="#afbfd6" stroke-width="0.5" stroke-linecap="round" stroke-linejoin="round"/>
  <polygon points="1690.48,1500.71 1690.09,1521.95 1704.05,1520.55 1704.47,1499.32" fill="#afbfd6" stroke="#afbfd6" stroke-width="0.5" stroke-linecap="round" stroke-linejoin="round"/>
  <polygon points="1516.72,1500.71 1516.69,1521.95 1530.72,1520.55 1530.79,1499.32" fill="#afbfd6" stroke="#afbfd6" stroke-width="0.5" stroke-linecap="round" stroke-linejoin="round"/>
  <polygon points="1502.56,1499.32 1502.56,1520.55 1516.69,1521.95 1516.72,1500.71" fill="#afbfd6" stroke="#afbfd6" stroke-width="0.5" stroke-linecap="round" stroke-linejoin="round"/>
  <polygon points="1676.25,1499.32 1675.89,1520.55 1690.09,1521.95 1690.48,1500.71" fill="#afbfd6" stroke="#afbfd6" stroke-width="0.5" stroke-linecap="round" stroke-linejoin="round"/>
  <polygon points="1600.32,1419.33 1430.36,1503.55 1789.85,1685.32 1959.31,1592.10" fill="#afbfd6" stroke="#afbfd6" stroke-width="0.5" stroke-linecap="round" stroke-linejoin="round"/>
  <polygon points="1567.21,1525.90 1567.07,1547.24 1570.01,1554.47 1570.16,1533.10" fill="#afbfd6" stroke="#afbfd6" stroke-width="0.5" stroke-linecap="round" stroke-linejoin="round"/>
  <polygon points="1742.24,1525.90 1741.74,1547.24 1745.04,1554.47 1745.55,1533.10" fill="#afbfd6" stroke="#afbfd6" stroke-width="0.5" stroke-linecap="round" stroke-linejoin="round"/>
  <polygon points="1814.30,1533.10 1813.65,1554.47 1815.84,1547.26 1816.50,1525.92" fill="#afbfd6" stroke="#afbfd6" stroke-width="0.5" stroke-linecap="round" stroke-linejoin="round"/>
  <polygon points="1638.91,1533.10 1638.62,1554.47 1641.17,1547.26 1641.47,1525.92" fill="#afbfd6" stroke="#afbfd6" stroke-width="0.5" stroke-linecap="round" stroke-linejoin="round"/>
  <polygon points="1630.12,1512.75 1617.95,1508.73 1603.76,1507.31 1589.65,1508.73 1577.81,1512.75 1569.87,1518.77 1567.21,1525.90 1570.16,1533.10 1578.41,1539.20 1590.55,1543.29 1604.93,1544.72 1619.13,1543.29 1631.12,1539.20 1638.91,1533.10 1641.47,1525.92 1638.34,1518.77" fill="#afbfd6" stroke="#afbfd6" stroke-width="0.5" stroke-linecap="round" stroke-linejoin="round"/>
  <polygon points="1780.91,1544.72 1795.04,1543.29 1806.82,1539.20 1814.30,1533.10 1816.50,1525.92 1813.01,1518.77 1804.48,1512.75 1792.11,1508.73 1777.85,1507.31 1763.81,1508.73 1752.17,1512.75 1744.54,1518.77 1742.24,1525.90 1745.55,1533.10 1754.11,1539.20 1766.46,1543.29" fill="#afbfd6" stroke="#afbfd6" stroke-width="0.5" stroke-linecap="round" stroke-linejoin="round"/>
  <polygon points="1806.82,1539.20 1806.18,1560.59 1813.65,1554.47 1814.30,1533.10" fill="#afbfd6" stroke="#afbfd6" stroke-width="0.5" stroke-linecap="round" stroke-linejoin="round"/>
  <polygon points="1745.55,1533.10 1745.04,1554.47 1753.58,1560.59 1754.11,1539.20" fill="#afbfd6" stroke="#afbfd6" stroke-width="0.5" stroke-linecap="round" stroke-linejoin="round"/>
  <polygon points="1631.12,1539.20 1630.84,1560.59 1638.62,1554.47 1638.91,1533.10" fill="#afbfd6" stroke="#afbfd6" stroke-width="0.5" stroke-linecap="round" stroke-linejoin="round"/>
  <polygon points="1570.16,1533.10 1570.01,1554.47 1578.24,1560.59 1578.41,1539.20" fill="#afbfd6" stroke="#afbfd6" stroke-width="0.5" stroke-linecap="round" stroke-linejoin="round"/>
  <polygon points="1619.13,1543.29 1618.88,1564.70 1630.84,1560.59 1631.12,1539.20" fill="#afbfd6" stroke="#afbfd6" stroke-width="0.5" stroke-linecap="round" stroke-linejoin="round"/>
  <polygon points="1754.11,1539.20 1753.58,1560.59 1765.90,1564.70 1766.46,1543.29" fill="#afbfd6" stroke="#afbfd6" stroke-width="0.5" stroke-linecap="round" stroke-linejoin="round"/>
  <polygon points="1795.04,1543.29 1794.43,1564.70 1806.18,1560.59 1806.82,1539.20" fill="#afbfd6" stroke="#afbfd6" stroke-width="0.5" stroke-linecap="round" stroke-linejoin="round"/>
  <polygon points="1578.41,1539.20 1578.24,1560.59 1590.36,1564.70 1590.55,1543.29" fill="#afbfd6" stroke="#afbfd6" stroke-width="0.5" stroke-linecap="round" stroke-linejoin="round"/>
  <polygon points="1590.55,1543.29 1590.36,1564.70 1604.71,1566.13 1604.93,1544.72" fill="#afbfd6" stroke="#afbfd6" stroke-width="0.5" stroke-linecap="round" stroke-linejoin="round"/>
  <polygon points="1780.91,1544.72 1780.32,1566.13 1794.43,1564.70 1795.04,1543.29" fill="#afbfd6" stroke="#afbfd6" stroke-width="0.5" stroke-linecap="round" stroke-linejoin="round"/>
  <polygon points="1604.93,1544.72 1604.71,1566.13 1618.88,1564.70 1619.13,1543.29" fill="#afbfd6" stroke="#afbfd6" stroke-width="0.5" stroke-linecap="round" stroke-linejoin="round"/>
  <polygon points="1766.46,1543.29 1765.90,1564.70 1780.32,1566.13 1780.91,1544.72" fill="#afbfd6" stroke="#afbfd6" stroke-width="0.5" stroke-linecap="round" stroke-linejoin="round"/>
  <polygon points="1786.15,1814.69 1789.85,1685.32 1430.36,1503.55 1431.21,1628.71" fill="#afbfd6" stroke="#afbfd6" stroke-width="0.5" stroke-linecap="round" stroke-linejoin="round"/>
  <polygon points="1834.00,1570.56 1833.30,1592.07 1836.84,1599.49 1837.55,1577.94" fill="#afbfd6" stroke="#afbfd6" stroke-width="0.5" stroke-linecap="round" stroke-linejoin="round"/>
  <polygon points="1656.72,1570.56 1656.39,1592.07 1659.56,1599.49 1659.89,1577.94" fill="#afbfd6" stroke="#afbfd6" stroke-width="0.5" stroke-linecap="round" stroke-linejoin="round"/>
  <polygon points="1907.19,1577.94 1906.33,1599.49 1908.36,1592.10 1909.22,1570.58" fill="#afbfd6" stroke="#afbfd6" stroke-width="0.5" stroke-linecap="round" stroke-linejoin="round"/>
  <polygon points="1729.53,1577.94 1729.05,1599.49 1731.45,1592.10 1731.93,1570.58" fill="#afbfd6" stroke="#afbfd6" stroke-width="0.5" stroke-linecap="round" stroke-linejoin="round"/>
  <polygon points="1855.39,1552.94 1843.71,1557.06 1836.14,1563.24 1834.00,1570.56 1837.55,1577.94 1846.38,1584.20 1859.00,1588.40 1873.68,1589.86 1887.95,1588.40 1899.77,1584.20 1907.19,1577.94 1909.22,1570.58 1905.49,1563.24 1896.69,1557.06 1884.05,1552.94 1869.57,1551.48" fill="#afbfd6" stroke="#afbfd6" stroke-width="0.5" stroke-linecap="round" stroke-linejoin="round"/>
  <polygon points="1707.66,1552.94 1693.25,1551.48 1679.00,1552.94 1667.11,1557.06 1659.22,1563.24 1656.72,1570.56 1659.89,1577.94 1668.41,1584.20 1680.81,1588.40 1695.42,1589.86 1709.77,1588.40 1721.80,1584.20 1729.53,1577.94 1731.93,1570.58 1728.57,1563.24 1720.09,1557.06" fill="#afbfd6" stroke="#afbfd6" stroke-width="0.5" stroke-linecap="round" stroke-linejoin="round"/>
  <polygon points="1837.55,1577.94 1836.84,1599.49 1845.65,1605.77 1846.38,1584.20" fill="#afbfd6" stroke="#afbfd6" stroke-width="0.5" stroke-linecap="round" stroke-linejoin="round"/>
  <polygon points="1721.80,1584.20 1721.33,1605.77 1729.05,1599.49 1729.53,1577.94" fill="#afbfd6" stroke="#afbfd6" stroke-width="0.5" stroke-linecap="round" stroke-linejoin="round"/>
  <polygon points="1659.89,1577.94 1659.56,1599.49 1668.05,1605.77 1668.41,1584.20" fill="#afbfd6" stroke="#afbfd6" stroke-width="0.5" stroke-linecap="round" stroke-linejoin="round"/>
  <polygon points="1899.77,1584.20 1898.93,1605.77 1906.33,1599.49 1907.19,1577.94" fill="#afbfd6" stroke="#afbfd6" stroke-width="0.5" stroke-linecap="round" stroke-linejoin="round"/>
  <polygon points="1846.38,1584.20 1845.65,1605.77 1858.24,1609.99 1859.00,1588.40" fill="#afbfd6" stroke="#afbfd6" stroke-width="0.5" stroke-linecap="round" stroke-linejoin="round"/>
  <polygon points="1709.77,1588.40 1709.33,1609.99 1721.33,1605.77 1721.80,1584.20" fill="#afbfd6" stroke="#afbfd6" stroke-width="0.5" stroke-linecap="round" stroke-linejoin="round"/>
  <polygon points="1887.95,1588.40 1887.14,1609.99 1898.93,1605.77 1899.77,1584.20" fill="#afbfd6" stroke="#afbfd6" stroke-width="0.5" stroke-linecap="round" stroke-linejoin="round"/>
  <polygon points="1668.41,1584.20 1668.05,1605.77 1680.43,1609.99 1680.81,1588.40" fill="#afbfd6" stroke="#afbfd6" stroke-width="0.5" stroke-linecap="round" stroke-linejoin="round"/>
  <polygon points="1680.81,1588.40 1680.43,1609.99 1695.00,1611.46 1695.42,1589.86" fill="#afbfd6" stroke="#afbfd6" stroke-width="0.5" stroke-linecap="round" stroke-linejoin="round"/>
  <polygon points="1695.42,1589.86 1695.00,1611.46 1709.33,1609.99 1709.77,1588.40" fill="#afbfd6" stroke="#afbfd6" stroke-width="0.5" stroke-linecap="round" stroke-linejoin="round"/>
  <polygon points="1873.68,1589.86 1872.89,1611.46 1887.14,1609.99 1887.95,1588.40" fill="#afbfd6" stroke="#afbfd6" stroke-width="0.5" stroke-linecap="round" stroke-linejoin="round"/>
  <polygon points="1859.00,1588.40 1858.24,1609.99 1872.89,1611.46 1873.68,1589.86" fill="#afbfd6" stroke="#afbfd6" stroke-width="0.5" stroke-linecap="round" stroke-linejoin="round"/>
  <polygon points="1959.31,1592.10 1789.85,1685.32 1786.15,1814.69 1953.59,1719.34" fill="#afbfd6" stroke="#afbfd6" stroke-width="0.5" stroke-linecap="round" stroke-linejoin="round"/>
  <polygon points="1748.56,1616.38 1748.04,1638.08 1751.44,1645.69 1751.97,1623.96" fill="#afbfd6" stroke="#afbfd6" stroke-width="0.5" stroke-linecap="round" stroke-linejoin="round"/>
  <polygon points="1822.53,1623.96 1821.84,1645.69 1824.07,1638.10 1824.76,1616.40" fill="#afbfd6" stroke="#afbfd6" stroke-width="0.5" stroke-linecap="round" stroke-linejoin="round"/>
  <polygon points="1822.53,1623.96 1824.76,1616.40 1821.16,1608.87 1812.40,1602.53 1799.70,1598.30 1785.06,1596.80 1770.66,1598.30 1758.73,1602.53 1750.91,1608.87 1748.56,1616.38 1751.97,1623.96 1760.77,1630.38 1773.45,1634.69 1788.28,1636.19 1802.78,1634.69 1814.86,1630.38" fill="#afbfd6" stroke="#afbfd6" stroke-width="0.5" stroke-linecap="round" stroke-linejoin="round"/>
  <polygon points="1751.97,1623.96 1751.44,1645.69 1760.21,1652.14 1760.77,1630.38" fill="#afbfd6" stroke="#afbfd6" stroke-width="0.5" stroke-linecap="round" stroke-linejoin="round"/>
  <polygon points="1814.86,1630.38 1814.19,1652.14 1821.84,1645.69 1822.53,1623.96" fill="#afbfd6" stroke="#afbfd6" stroke-width="0.5" stroke-linecap="round" stroke-linejoin="round"/>
  <polygon points="1802.78,1634.69 1802.14,1656.46 1814.19,1652.14 1814.86,1630.38" fill="#afbfd6" stroke="#afbfd6" stroke-width="0.5" stroke-linecap="round" stroke-linejoin="round"/>
  <polygon points="1760.77,1630.38 1760.21,1652.14 1772.86,1656.46 1773.45,1634.69" fill="#afbfd6" stroke="#afbfd6" stroke-width="0.5" stroke-linecap="round" stroke-linejoin="round"/>
  <polygon points="1773.45,1634.69 1772.86,1656.46 1787.67,1657.97 1788.28,1636.19" fill="#afbfd6" stroke="#afbfd6" stroke-width="0.5" stroke-linecap="round" stroke-linejoin="round"/>
  <polygon points="1788.28,1636.19 1787.67,1657.97 1802.14,1656.46 1802.78,1634.69" fill="#afbfd6" stroke="#afbfd6" stroke-width="0.5" stroke-linecap="round" stroke-linejoin="round"/>
  <path d="M 1083.33 1436.11 L 1399.62 1601.33 L 1430.92 1585.45 L 1399.62 1601.33 L 1398.41 1477.35 L 1567.13 1394.76 L 1566.87 1435.91 L 1567.13 1394.76 L 1518.10 1371.23 L 1567.13 1394.76 L 1398.41 1477.35 L 1078.51 1316.07 L 1124.66 1295.49 L 1078.51 1316.07 L 1083.33 1436.11 L 1399.62 1601.33 L 1398.41 1477.35 L 1078.51 1316.07 L 1083.33 1436.11" stroke="black" stroke-width="4" fill="none" stroke-linecap="round" stroke-linejoin="round"/>
  <path d="M 1490.04 1357.76 L 1435.66 1331.65 L 1490.04 1357.76 L 1435.66 1331.65" stroke="black" stroke-width="4" fill="none" stroke-linecap="round" stroke-linejoin="round"/>
  <path d="M 1408.26 1318.50 L 1355.16 1293.01 L 1408.26 1318.50 L 1355.16 1293.01" stroke="black" stroke-width="4" fill="none" stroke-linecap="round" stroke-linejoin="round"/>
  <path d="M 1328.40 1280.17 L 1276.54 1255.27 L 1328.40 1280.17 L 1276.54 1255.27" stroke="black" stroke-width="4" fill="none" stroke-linecap="round" stroke-linejoin="round"/>
  <path d="M 1250.40 1242.73 L 1246.83 1241.01 L 1244.06 1242.25 L 1246.83 1241.01 L 1250.40 1242.73 L 1246.83 1241.01 L 1244.06 1242.25" stroke="black" stroke-width="4" fill="none" stroke-linecap="round" stroke-linejoin="round"/>
  <path d="M 1209.41 1257.70 L 1160.13 1279.67 L 1209.41 1257.70 L 1160.13 1279.67" stroke="black" stroke-width="4" fill="none" stroke-linecap="round" stroke-linejoin="round"/>
  <path d="M 1516.65 1380.66 L 1519.33 1374.13 L 1516.59 1367.62 L 1508.92 1362.15 L 1497.51 1358.47 L 1484.05 1357.18 L 1470.57 1358.47 L 1459.12 1362.15 L 1451.41 1367.62 L 1448.60 1374.13 L 1451.22 1380.66 L 1458.83 1386.23 L 1470.29 1389.93 L 1483.88 1391.25 L 1497.49 1389.93 L 1508.99 1386.23 L 1516.65 1380.66 L 1519.33 1374.13 L 1519.29 1394.74 L 1516.62 1401.30 L 1508.97 1406.89 L 1497.49 1410.61 L 1483.91 1411.93 L 1470.35 1410.61 L 1458.91 1406.89 L 1451.31 1401.30 L 1448.71 1394.74 L 1448.60 1374.13" stroke="black" stroke-width="4" fill="none" stroke-linecap="round" stroke-linejoin="round"/>
  <path d="M 1497.49 1389.93 L 1508.99 1386.23 L 1497.49 1389.93 L 1483.88 1391.25 L 1470.29 1389.93 L 1458.83 1386.23 L 1451.22 1380.66 L 1448.60 1374.13 L 1451.41 1367.62 L 1459.12 1362.15 L 1470.57 1358.47 L 1484.05 1357.18 L 1497.51 1358.47 L 1508.92 1362.15 L 1516.59 1367.62 L 1519.33 1374.13 L 1516.65 1380.66 L 1508.99 1386.23" stroke="black" stroke-width="4" fill="none" stroke-linecap="round" stroke-linejoin="round"/>
  <path d="M 1516.59 1367.62 L 1508.92 1362.15" stroke="black" stroke-width="4" fill="none" stroke-linecap="round" stroke-linejoin="round"/>
  <path d="M 1497.51 1358.47 L 1484.05 1357.18 L 1470.57 1358.47 L 1459.12 1362.15 L 1451.41 1367.62" stroke="black" stroke-width="4" fill="none" stroke-linecap="round" stroke-linejoin="round"/>
  <path d="M 1451.22 1380.66 L 1458.83 1386.23 L 1470.29 1389.93 L 1483.88 1391.25" stroke="black" stroke-width="4" fill="none" stroke-linecap="round" stroke-linejoin="round"/>
  <path d="M 1433.99 1340.86 L 1436.79 1334.48 L 1434.24 1328.13 L 1426.81 1322.79 L 1415.62 1319.20 L 1402.35 1317.94 L 1389.00 1319.20 L 1377.60 1322.79 L 1369.85 1328.13 L 1366.92 1334.48 L 1369.34 1340.86 L 1376.72 1346.30 L 1387.95 1349.91 L 1401.35 1351.19 L 1414.83 1349.91 L 1426.28 1346.30 L 1433.99 1340.86" stroke="black" stroke-width="4" fill="none" stroke-linecap="round" stroke-linejoin="round"/>
  <path d="M 1366.92 1334.48 L 1367.18 1354.93 L 1369.59 1361.33 L 1376.96 1366.79 L 1388.17 1370.42 L 1401.55 1371.71 L 1415.00 1370.42 L 1426.42 1366.79 L 1434.12 1361.33 L 1436.92 1354.93 L 1436.79 1334.48" stroke="black" stroke-width="4" fill="none" stroke-linecap="round" stroke-linejoin="round"/>
  <path d="M 1426.28 1346.30 L 1414.83 1349.91 L 1401.35 1351.19 L 1387.95 1349.91 L 1376.72 1346.30 L 1369.34 1340.86 L 1366.92 1334.48 L 1369.85 1328.13 L 1377.60 1322.79 L 1389.00 1319.20 L 1402.35 1317.94 L 1415.62 1319.20 L 1426.81 1322.79 L 1434.24 1328.13 L 1436.79 1334.48 L 1433.99 1340.86 L 1426.28 1346.30 L 1433.99 1340.86 L 1436.79 1334.48 L 1434.24 1328.13 L 1426.81 1322.79 L 1415.62 1319.20 L 1402.35 1317.94" stroke="black" stroke-width="4" fill="none" stroke-linecap="round" stroke-linejoin="round"/>
  <path d="M 1369.34 1340.86 L 1376.72 1346.30" stroke="black" stroke-width="4" fill="none" stroke-linecap="round" stroke-linejoin="round"/>
  <path d="M 1387.95 1349.91 L 1401.35 1351.19" stroke="black" stroke-width="4" fill="none" stroke-linecap="round" stroke-linejoin="round"/>
  <path d="M 1353.28 1302.00 L 1356.21 1295.77 L 1353.85 1289.57 L 1346.63 1284.36 L 1335.66 1280.85 L 1322.58 1279.62 L 1309.35 1280.85 L 1298.00 1284.36 L 1290.21 1289.57 L 1287.16 1295.77 L 1289.40 1302.00 L 1296.56 1307.31 L 1307.58 1310.84 L 1320.79 1312.09 L 1334.13 1310.84 L 1345.54 1307.31 L 1353.28 1302.00" stroke="black" stroke-width="4" fill="none" stroke-linecap="round" stroke-linejoin="round"/>
  <path d="M 1287.16 1295.77 L 1287.57 1316.05 L 1289.81 1322.31 L 1296.96 1327.64 L 1307.95 1331.18 L 1321.13 1332.44 L 1334.45 1331.18 L 1345.83 1327.64 L 1353.57 1322.31 L 1356.49 1316.05 L 1356.21 1295.77 L 1353.85 1289.57 L 1346.63 1284.36" stroke="black" stroke-width="4" fill="none" stroke-linecap="round" stroke-linejoin="round"/>
  <path d="M 1334.13 1310.84 L 1345.54 1307.31 L 1334.13 1310.84 L 1320.79 1312.09 L 1307.58 1310.84 L 1296.56 1307.31 L 1289.40 1302.00 L 1287.16 1295.77 L 1290.21 1289.57 L 1298.00 1284.36 L 1309.35 1280.85 L 1322.58 1279.62 L 1335.66 1280.85 L 1346.63 1284.36 L 1353.85 1289.57 L 1356.21 1295.77 L 1353.28 1302.00 L 1345.54 1307.31" stroke="black" stroke-width="4" fill="none" stroke-linecap="round" stroke-linejoin="round"/>
  <path d="M 1322.58 1279.62 L 1309.35 1280.85 L 1298.00 1284.36 L 1290.21 1289.57" stroke="black" stroke-width="4" fill="none" stroke-linecap="round" stroke-linejoin="round"/>
  <path d="M 1307.58 1310.84 L 1320.79 1312.09" stroke="black" stroke-width="4" fill="none" stroke-linecap="round" stroke-linejoin="round"/>
  <path d="M 1274.47 1264.05 L 1277.51 1257.97 L 1275.33 1251.91 L 1268.32 1246.82 L 1257.56 1243.39 L 1244.66 1242.19 L 1231.56 1243.39 L 1220.26 1246.82 L 1212.43 1251.91 L 1209.27 1257.97 L 1211.33 1264.05 L 1218.29 1269.24 L 1229.09 1272.68 L 1242.11 1273.91 L 1255.33 1272.68 L 1266.69 1269.24 L 1274.47 1264.05 L 1266.69 1269.24 L 1255.33 1272.68" stroke="black" stroke-width="4" fill="none" stroke-linecap="round" stroke-linejoin="round"/>
  <path d="M 1220.26 1246.82 L 1212.43 1251.91 L 1209.27 1257.97 L 1209.82 1278.08 L 1211.89 1284.19 L 1218.83 1289.40 L 1229.61 1292.86 L 1242.61 1294.09 L 1255.80 1292.86 L 1267.13 1289.40 L 1274.90 1284.19 L 1277.94 1278.08 L 1277.51 1257.97" stroke="black" stroke-width="4" fill="none" stroke-linecap="round" stroke-linejoin="round"/>
  <path d="M 1275.33 1251.91 L 1268.32 1246.82" stroke="black" stroke-width="4" fill="none" stroke-linecap="round" stroke-linejoin="round"/>
  <path d="M 1218.29 1269.24 L 1229.09 1272.68 L 1242.11 1273.91" stroke="black" stroke-width="4" fill="none" stroke-linecap="round" stroke-linejoin="round"/>
  <path d="M 1432.37 1421.44 L 1435.24 1414.74 L 1432.64 1408.08 L 1425.02 1402.48 L 1413.57 1398.70 L 1399.97 1397.38 L 1386.29 1398.70 L 1374.61 1402.48 L 1366.66 1408.08 L 1363.65 1414.74 L 1366.13 1421.44 L 1373.69 1427.14 L 1385.19 1430.94 L 1398.92 1432.29 L 1412.73 1430.94 L 1424.47 1427.14 L 1432.37 1421.44 L 1435.24 1414.74 L 1435.37 1435.53 L 1432.50 1442.25 L 1424.62 1447.98 L 1412.91 1451.79 L 1399.12 1453.15 L 1385.42 1451.79 L 1373.94 1447.98 L 1366.40 1442.25 L 1363.93 1435.53 L 1363.65 1414.74" stroke="black" stroke-width="4" fill="none" stroke-linecap="round" stroke-linejoin="round"/>
  <path d="M 1425.02 1402.48 L 1413.57 1398.70 L 1399.97 1397.38 L 1386.29 1398.70" stroke="black" stroke-width="4" fill="none" stroke-linecap="round" stroke-linejoin="round"/>
  <path d="M 1366.66 1408.08 L 1363.65 1414.74 L 1366.13 1421.44 L 1373.69 1427.14 L 1385.19 1430.94 L 1398.92 1432.29 L 1412.73 1430.94" stroke="black" stroke-width="4" fill="none" stroke-linecap="round" stroke-linejoin="round"/>
  <path d="M 1349.72 1380.66 L 1352.73 1374.13 L 1350.31 1367.62 L 1342.93 1362.15 L 1331.70 1358.47 L 1318.30 1357.18 L 1304.76 1358.47 L 1293.13 1362.15 L 1285.14 1367.62 L 1282.01 1374.13 L 1284.29 1380.66 L 1291.62 1386.23 L 1302.89 1389.93 L 1316.42 1391.25 L 1330.10 1389.93 L 1341.78 1386.23 L 1349.72 1380.66 L 1352.73 1374.13 L 1350.31 1367.62" stroke="black" stroke-width="4" fill="none" stroke-linecap="round" stroke-linejoin="round"/>
  <path d="M 1291.62 1386.23 L 1284.29 1380.66 L 1282.01 1374.13 L 1282.44 1394.74 L 1284.72 1401.30 L 1292.03 1406.89 L 1303.29 1410.61 L 1316.79 1411.93 L 1330.43 1410.61 L 1342.09 1406.89 L 1350.02 1401.30 L 1353.02 1394.74 L 1352.73 1374.13" stroke="black" stroke-width="4" fill="none" stroke-linecap="round" stroke-linejoin="round"/>
  <path d="M 1342.93 1362.15 L 1331.70 1358.47 L 1318.30 1357.18" stroke="black" stroke-width="4" fill="none" stroke-linecap="round" stroke-linejoin="round"/>
  <path d="M 1269.06 1340.86 L 1272.19 1334.48 L 1269.96 1328.13 L 1262.79 1322.79 L 1251.79 1319.20 L 1238.58 1317.94 L 1225.16 1319.20 L 1213.59 1322.79 L 1205.56 1328.13 L 1202.31 1334.48 L 1204.41 1340.86 L 1211.52 1346.30 L 1222.57 1349.91 L 1235.91 1351.19 L 1249.45 1349.91 L 1261.08 1346.30 L 1269.06 1340.86" stroke="black" stroke-width="4" fill="none" stroke-linecap="round" stroke-linejoin="round"/>
  <path d="M 1202.31 1334.48 L 1202.89 1354.93 L 1204.99 1361.33 L 1212.09 1366.79 L 1223.12 1370.42 L 1236.43 1371.71 L 1249.94 1370.42 L 1261.55 1366.79 L 1269.51 1361.33 L 1272.63 1354.93 L 1272.19 1334.48 L 1269.96 1328.13" stroke="black" stroke-width="4" fill="none" stroke-linecap="round" stroke-linejoin="round"/>
  <path d="M 1238.58 1317.94 L 1225.16 1319.20" stroke="black" stroke-width="4" fill="none" stroke-linecap="round" stroke-linejoin="round"/>
  <path d="M 1205.56 1328.13 L 1202.31 1334.48 L 1204.41 1340.86" stroke="black" stroke-width="4" fill="none" stroke-linecap="round" stroke-linejoin="round"/>
  <path d="M 1190.31 1302.00 L 1193.55 1295.77 L 1191.50 1289.57 L 1184.54 1284.36 L 1173.76 1280.85 L 1160.73 1279.62 L 1147.45 1280.85 L 1135.92 1284.36 L 1127.86 1289.57 L 1124.50 1295.77 L 1126.43 1302.00 L 1133.33 1307.31 L 1144.16 1310.84 L 1157.31 1312.09 L 1170.72 1310.84 L 1182.30 1307.31 L 1190.31 1302.00" stroke="black" stroke-width="4" fill="none" stroke-linecap="round" stroke-linejoin="round"/>
  <path d="M 1508.00 1465.08 L 1567.12 1435.78 L 1567.13 1394.76 L 1398.41 1477.35 L 1078.51 1316.07 L 1124.66 1295.49 L 1125.23 1316.05 L 1127.15 1322.31 L 1134.03 1327.64 L 1144.85 1331.18 L 1157.97 1332.44 L 1171.35 1331.18 L 1182.91 1327.64 L 1190.91 1322.31 L 1194.14 1316.05 L 1193.55 1295.77" stroke="black" stroke-width="4" fill="none" stroke-linecap="round" stroke-linejoin="round"/>
  <path d="M 1191.50 1289.57 L 1184.54 1284.36" stroke="black" stroke-width="4" fill="none" stroke-linecap="round" stroke-linejoin="round"/>
  <path d="M 1173.76 1280.85 L 1160.73 1279.62 L 1147.45 1280.85 L 1135.92 1284.36" stroke="black" stroke-width="4" fill="none" stroke-linecap="round" stroke-linejoin="round"/>
  <path d="M 1133.33 1307.31 L 1144.16 1310.84 L 1157.31 1312.09" stroke="black" stroke-width="4" fill="none" stroke-linecap="round" stroke-linejoin="round"/>
  <path d="M 1431.21 1628.71 L 1786.15 1814.69 L 1953.59 1719.34 L 1959.31 1592.10 L 1789.85 1685.32 L 1786.15 1814.69 L 1953.59 1719.34 L 1959.31 1592.10 L 1907.48 1567.15 L 1959.31 1592.10 L 1789.85 1685.32 L 1430.36 1503.55 L 1481.66 1478.13 L 1430.36 1503.55 L 1431.21 1628.71 L 1786.15 1814.69 L 1789.85 1685.32 L 1430.36 1503.55 L 1431.21 1628.71" stroke="black" stroke-width="4" fill="none" stroke-linecap="round" stroke-linejoin="round"/>
  <path d="M 1876.33 1552.16 L 1814.87 1522.58 L 1876.33 1552.16 L 1814.87 1522.58" stroke="black" stroke-width="4" fill="none" stroke-linecap="round" stroke-linejoin="round"/>
  <path d="M 1784.50 1507.97 L 1724.58 1479.13 L 1784.50 1507.97 L 1724.58 1479.13" stroke="black" stroke-width="4" fill="none" stroke-linecap="round" stroke-linejoin="round"/>
  <path d="M 1694.97 1464.88 L 1636.53 1436.76 L 1694.97 1464.88 L 1636.53 1436.76" stroke="black" stroke-width="4" fill="none" stroke-linecap="round" stroke-linejoin="round"/>
  <path d="M 1607.65 1422.86 L 1600.32 1419.33 L 1592.82 1423.05 L 1600.32 1419.33 L 1607.65 1422.86 L 1600.32 1419.33 L 1592.82 1423.05" stroke="black" stroke-width="4" fill="none" stroke-linecap="round" stroke-linejoin="round"/>
  <path d="M 1567.12 1435.78 L 1508.00 1465.08 L 1567.12 1435.78" stroke="black" stroke-width="4" fill="none" stroke-linecap="round" stroke-linejoin="round"/>
  <path d="M 1907.19 1577.94 L 1909.22 1570.58 L 1905.49 1563.24 L 1896.69 1557.06 L 1884.05 1552.94 L 1869.57 1551.48 L 1855.39 1552.94 L 1843.71 1557.06 L 1836.14 1563.24 L 1834.00 1570.56 L 1837.55 1577.94 L 1846.38 1584.20 L 1859.00 1588.40 L 1873.68 1589.86 L 1887.95 1588.40 L 1899.77 1584.20 L 1907.19 1577.94" stroke="black" stroke-width="4" fill="none" stroke-linecap="round" stroke-linejoin="round"/>
  <path d="M 1837.55 1577.94 L 1834.00 1570.56 L 1833.30 1592.07 L 1836.84 1599.49 L 1845.65 1605.77 L 1858.24 1609.99 L 1872.89 1611.46 L 1887.14 1609.99 L 1898.93 1605.77 L 1906.33 1599.49 L 1908.36 1592.10 L 1909.22 1570.58" stroke="black" stroke-width="4" fill="none" stroke-linecap="round" stroke-linejoin="round"/>
  <path d="M 1887.95 1588.40 L 1899.77 1584.20 L 1907.19 1577.94 L 1909.22 1570.58 L 1905.49 1563.24" stroke="black" stroke-width="4" fill="none" stroke-linecap="round" stroke-linejoin="round"/>
  <path d="M 1869.57 1551.48 L 1855.39 1552.94" stroke="black" stroke-width="4" fill="none" stroke-linecap="round" stroke-linejoin="round"/>
  <path d="M 1846.38 1584.20 L 1859.00 1588.40" stroke="black" stroke-width="4" fill="none" stroke-linecap="round" stroke-linejoin="round"/>
  <path d="M 1814.30 1533.10 L 1816.50 1525.92 L 1813.01 1518.77 L 1804.48 1512.75 L 1792.11 1508.73 L 1777.85 1507.31 L 1763.81 1508.73 L 1752.17 1512.75 L 1744.54 1518.77 L 1742.24 1525.90 L 1745.55 1533.10 L 1754.11 1539.20 L 1766.46 1543.29 L 1780.91 1544.72 L 1795.04 1543.29 L 1806.82 1539.20 L 1814.30 1533.10" stroke="black" stroke-width="4" fill="none" stroke-linecap="round" stroke-linejoin="round"/>
  <path d="M 1745.55 1533.10 L 1742.24 1525.90 L 1741.74 1547.24 L 1745.04 1554.47 L 1753.58 1560.59 L 1765.90 1564.70 L 1780.32 1566.13 L 1794.43 1564.70 L 1806.18 1560.59 L 1813.65 1554.47 L 1815.84 1547.26 L 1816.50 1525.92" stroke="black" stroke-width="4" fill="none" stroke-linecap="round" stroke-linejoin="round"/>
  <path d="M 1795.04 1543.29 L 1806.82 1539.20 L 1814.30 1533.10 L 1816.50 1525.92 L 1813.01 1518.77" stroke="black" stroke-width="4" fill="none" stroke-linecap="round" stroke-linejoin="round"/>
  <path d="M 1777.85 1507.31 L 1763.81 1508.73" stroke="black" stroke-width="4" fill="none" stroke-linecap="round" stroke-linejoin="round"/>
  <path d="M 1754.11 1539.20 L 1766.46 1543.29" stroke="black" stroke-width="4" fill="none" stroke-linecap="round" stroke-linejoin="round"/>
  <path d="M 1723.75 1489.39 L 1726.11 1482.39 L 1722.84 1475.42 L 1714.58 1469.54 L 1702.47 1465.62 L 1688.42 1464.24 L 1674.52 1465.62 L 1662.93 1469.54 L 1655.23 1475.42 L 1652.78 1482.37 L 1655.87 1489.39 L 1664.16 1495.33 L 1676.25 1499.32 L 1690.48 1500.71 L 1704.47 1499.32 L 1716.20 1495.33 L 1723.75 1489.39" stroke="black" stroke-width="4" fill="none" stroke-linecap="round" stroke-linejoin="round"/>
  <path d="M 1655.87 1489.39 L 1652.78 1482.37 L 1652.47 1503.53 L 1655.55 1510.58 L 1663.82 1516.55 L 1675.89 1520.55 L 1690.09 1521.95 L 1704.05 1520.55 L 1715.76 1516.55 L 1723.29 1510.58 L 1725.64 1503.55 L 1726.11 1482.39" stroke="black" stroke-width="4" fill="none" stroke-linecap="round" stroke-linejoin="round"/>
  <path d="M 1704.47 1499.32 L 1716.20 1495.33 L 1723.75 1489.39 L 1726.11 1482.39 L 1722.84 1475.42" stroke="black" stroke-width="4" fill="none" stroke-linecap="round" stroke-linejoin="round"/>
  <path d="M 1688.42 1464.24 L 1674.52 1465.62" stroke="black" stroke-width="4" fill="none" stroke-linecap="round" stroke-linejoin="round"/>
  <path d="M 1664.16 1495.33 L 1676.25 1499.32" stroke="black" stroke-width="4" fill="none" stroke-linecap="round" stroke-linejoin="round"/>
  <path d="M 1635.46 1446.76 L 1637.96 1439.94 L 1634.91 1433.14 L 1626.90 1427.41 L 1615.04 1423.58 L 1601.20 1422.23 L 1587.44 1423.58 L 1575.89 1427.41 L 1568.14 1433.14 L 1565.54 1439.92 L 1568.41 1446.76 L 1576.45 1452.56 L 1588.29 1456.45 L 1602.31 1457.81 L 1616.16 1456.45 L 1627.85 1452.56 L 1635.46 1446.76" stroke="black" stroke-width="4" fill="none" stroke-linecap="round" stroke-linejoin="round"/>
  <path d="M 1568.41 1446.76 L 1565.54 1439.92 L 1568.14 1433.14 L 1575.89 1427.41 L 1587.44 1423.58 L 1601.20 1422.23 L 1615.04 1423.58 L 1626.90 1427.41 L 1634.91 1433.14 L 1637.96 1439.94 L 1635.46 1446.76 L 1627.85 1452.56 L 1616.16 1456.45 L 1602.31 1457.81 L 1588.29 1456.45 L 1576.45 1452.56 L 1568.41 1446.76 L 1565.54 1439.92 L 1565.41 1460.90 L 1568.27 1467.78 L 1576.30 1473.60 L 1588.11 1477.50 L 1602.10 1478.87 L 1615.93 1477.50 L 1627.59 1473.60 L 1635.18 1467.78 L 1637.68 1460.92 L 1637.96 1439.94" stroke="black" stroke-width="4" fill="none" stroke-linecap="round" stroke-linejoin="round"/>
  <path d="M 1616.16 1456.45 L 1627.85 1452.56 L 1635.46 1446.76 L 1637.96 1439.94 L 1634.91 1433.14" stroke="black" stroke-width="4" fill="none" stroke-linecap="round" stroke-linejoin="round"/>
  <path d="M 1601.20 1422.23 L 1587.44 1423.58" stroke="black" stroke-width="4" fill="none" stroke-linecap="round" stroke-linejoin="round"/>
  <path d="M 1576.45 1452.56 L 1588.29 1456.45" stroke="black" stroke-width="4" fill="none" stroke-linecap="round" stroke-linejoin="round"/>
  <path d="M 1822.53 1623.96 L 1824.76 1616.40 L 1821.16 1608.87 L 1812.40 1602.53 L 1799.70 1598.30 L 1785.06 1596.80 L 1770.66 1598.30 L 1758.73 1602.53 L 1750.91 1608.87 L 1748.56 1616.38 L 1751.97 1623.96 L 1760.77 1630.38 L 1773.45 1634.69 L 1788.28 1636.19 L 1802.78 1634.69 L 1814.86 1630.38 L 1822.53 1623.96 L 1814.86 1630.38 L 1802.78 1634.69" stroke="black" stroke-width="4" fill="none" stroke-linecap="round" stroke-linejoin="round"/>
  <path d="M 1760.77 1630.38 L 1751.97 1623.96 L 1748.56 1616.38 L 1748.04 1638.08 L 1751.44 1645.69 L 1760.21 1652.14 L 1772.86 1656.46 L 1787.67 1657.97 L 1802.14 1656.46 L 1814.19 1652.14 L 1821.84 1645.69 L 1824.07 1638.10 L 1824.76 1616.40" stroke="black" stroke-width="4" fill="none" stroke-linecap="round" stroke-linejoin="round"/>
  <path d="M 1821.16 1608.87 L 1812.40 1602.53 L 1799.70 1598.30 L 1785.06 1596.80" stroke="black" stroke-width="4" fill="none" stroke-linecap="round" stroke-linejoin="round"/>
  <path d="M 1729.53 1577.94 L 1731.93 1570.58 L 1728.57 1563.24 L 1720.09 1557.06 L 1707.66 1552.94 L 1693.25 1551.48 L 1679.00 1552.94 L 1667.11 1557.06 L 1659.22 1563.24 L 1656.72 1570.56 L 1659.89 1577.94 L 1668.41 1584.20 L 1680.81 1588.40 L 1695.42 1589.86 L 1709.77 1588.40 L 1721.80 1584.20 L 1729.53 1577.94 L 1721.80 1584.20 L 1709.77 1588.40" stroke="black" stroke-width="4" fill="none" stroke-linecap="round" stroke-linejoin="round"/>
  <path d="M 1668.41 1584.20 L 1659.89 1577.94 L 1656.72 1570.56 L 1656.39 1592.07 L 1659.56 1599.49 L 1668.05 1605.77 L 1680.43 1609.99 L 1695.00 1611.46 L 1709.33 1609.99 L 1721.33 1605.77 L 1729.05 1599.49 L 1731.45 1592.10 L 1731.93 1570.58" stroke="black" stroke-width="4" fill="none" stroke-linecap="round" stroke-linejoin="round"/>
  <path d="M 1728.57 1563.24 L 1720.09 1557.06 L 1707.66 1552.94 L 1693.25 1551.48" stroke="black" stroke-width="4" fill="none" stroke-linecap="round" stroke-linejoin="round"/>
  <path d="M 1638.91 1533.10 L 1641.47 1525.92 L 1638.34 1518.77 L 1630.12 1512.75 L 1617.95 1508.73 L 1603.76 1507.31 L 1589.65 1508.73 L 1577.81 1512.75 L 1569.87 1518.77 L 1567.21 1525.90 L 1570.16 1533.10 L 1578.41 1539.20 L 1590.55 1543.29 L 1604.93 1544.72 L 1619.13 1543.29 L 1631.12 1539.20 L 1638.91 1533.10 L 1631.12 1539.20 L 1619.13 1543.29" stroke="black" stroke-width="4" fill="none" stroke-linecap="round" stroke-linejoin="round"/>
  <path d="M 1578.41 1539.20 L 1570.16 1533.10 L 1567.21 1525.90 L 1567.07 1547.24 L 1570.01 1554.47 L 1578.24 1560.59 L 1590.36 1564.70 L 1604.71 1566.13 L 1618.88 1564.70 L 1630.84 1560.59 L 1638.62 1554.47 L 1641.17 1547.26 L 1641.47 1525.92" stroke="black" stroke-width="4" fill="none" stroke-linecap="round" stroke-linejoin="round"/>
  <path d="M 1638.34 1518.77 L 1630.12 1512.75 L 1617.95 1508.73 L 1603.76 1507.31" stroke="black" stroke-width="4" fill="none" stroke-linecap="round" stroke-linejoin="round"/>
  <path d="M 1550.57 1489.39 L 1553.28 1482.39 L 1550.36 1475.42 L 1542.40 1469.54 L 1530.48 1465.62 L 1516.50 1464.24 L 1502.54 1465.62 L 1490.75 1469.54 L 1482.75 1475.42 L 1479.95 1482.37 L 1482.68 1489.39 L 1490.68 1495.33 L 1502.56 1499.32 L 1516.72 1500.71 L 1530.79 1499.32 L 1542.72 1495.33 L 1550.57 1489.39 L 1542.72 1495.33 L 1530.79 1499.32" stroke="black" stroke-width="4" fill="none" stroke-linecap="round" stroke-linejoin="round"/>
  <path d="M 1479.95 1482.37 L 1479.99 1503.53 L 1482.72 1510.58 L 1490.69 1516.55 L 1502.56 1520.55 L 1516.69 1521.95 L 1530.72 1520.55 L 1542.63 1516.55 L 1550.47 1510.58 L 1553.17 1503.55 L 1553.28 1482.39 L 1550.36 1475.42 L 1542.40 1469.54 L 1530.48 1465.62" stroke="black" stroke-width="4" fill="none" stroke-linecap="round" stroke-linejoin="round"/>
  <path d="M 1516.50 1464.24 L 1502.54 1465.62" stroke="black" stroke-width="4" fill="none" stroke-linecap="round" stroke-linejoin="round"/>
  <path d="M 1482.75 1475.42 L 1479.95 1482.37 L 1482.68 1489.39" stroke="black" stroke-width="4" fill="none" stroke-linecap="round" stroke-linejoin="round"/>
  <path d="M 1567.13 1394.76 L 1518.10 1371.23" stroke="black" stroke-width="4" fill="none" stroke-linecap="round" stroke-linejoin="round"/>
  <path d="M 1430.92 1585.45 L 1399.62 1601.33 L 1083.33 1436.11 L 1078.51 1316.07" stroke="black" stroke-width="4" fill="none" stroke-linecap="round" stroke-linejoin="round"/>
  <path d="M 1448.71 1394.74 L 1451.31 1401.30 L 1458.91 1406.89 L 1470.35 1410.61 L 1483.91 1411.93 L 1497.49 1410.61 L 1508.97 1406.89 L 1516.62 1401.30 L 1519.29 1394.74" stroke="black" stroke-width="4" fill="none" stroke-linecap="round" stroke-linejoin="round"/>
  <path d="M 1367.18 1354.93 L 1369.59 1361.33 L 1376.96 1366.79 L 1388.17 1370.42 L 1401.55 1371.71 L 1415.00 1370.42 L 1426.42 1366.79 L 1434.12 1361.33 L 1436.92 1354.93" stroke="black" stroke-width="4" fill="none" stroke-linecap="round" stroke-linejoin="round"/>
  <path d="M 1287.57 1316.05 L 1289.81 1322.31 L 1296.96 1327.64 L 1303.80 1329.84 L 1307.95 1331.18 L 1321.13 1332.44 L 1334.45 1331.18 L 1345.83 1327.64 L 1353.57 1322.31 L 1356.49 1316.05" stroke="black" stroke-width="4" fill="none" stroke-linecap="round" stroke-linejoin="round"/>
  <path d="M 1274.90 1284.19 L 1277.94 1278.08" stroke="black" stroke-width="4" fill="none" stroke-linecap="round" stroke-linejoin="round"/>
  <path d="M 1209.82 1278.08 L 1211.89 1284.19 L 1218.83 1289.40 L 1229.61 1292.86 L 1242.61 1294.09 L 1255.80 1292.86 L 1267.13 1289.40" stroke="black" stroke-width="4" fill="none" stroke-linecap="round" stroke-linejoin="round"/>
  <path d="M 1266.69 1269.24 L 1255.33 1272.68 L 1242.11 1273.91 L 1229.09 1272.68 L 1218.29 1269.24 L 1211.33 1264.05 L 1209.27 1257.97 L 1212.43 1251.91 L 1220.26 1246.82 L 1231.56 1243.39 L 1244.66 1242.19 L 1257.56 1243.39 L 1268.32 1246.82 L 1275.33 1251.91 L 1277.51 1257.97 L 1274.47 1264.05 L 1266.69 1269.24" stroke="black" stroke-width="4" fill="none" stroke-linecap="round" stroke-linejoin="round"/>
  <path d="M 1385.42 1451.79 L 1399.12 1453.15 L 1412.91 1451.79 L 1424.62 1447.98 L 1432.50 1442.25 L 1435.37 1435.53" stroke="black" stroke-width="4" fill="none" stroke-linecap="round" stroke-linejoin="round"/>
  <path d="M 1363.93 1435.53 L 1366.40 1442.25 L 1373.94 1447.98" stroke="black" stroke-width="4" fill="none" stroke-linecap="round" stroke-linejoin="round"/>
  <path d="M 1424.47 1427.14 L 1412.73 1430.94 L 1398.92 1432.29 L 1385.19 1430.94 L 1373.69 1427.14 L 1366.13 1421.44 L 1363.65 1414.74 L 1366.66 1408.08 L 1374.61 1402.48 L 1386.29 1398.70 L 1399.97 1397.38 L 1413.57 1398.70 L 1425.02 1402.48 L 1432.64 1408.08 L 1435.24 1414.74 L 1432.37 1421.44 L 1424.47 1427.14" stroke="black" stroke-width="4" fill="none" stroke-linecap="round" stroke-linejoin="round"/>
  <path d="M 1350.02 1401.30 L 1353.02 1394.74" stroke="black" stroke-width="4" fill="none" stroke-linecap="round" stroke-linejoin="round"/>
  <path d="M 1282.44 1394.74 L 1284.72 1401.30 L 1292.03 1406.89 L 1303.29 1410.61 L 1316.79 1411.93 L 1330.43 1410.61 L 1342.09 1406.89" stroke="black" stroke-width="4" fill="none" stroke-linecap="round" stroke-linejoin="round"/>
  <path d="M 1284.07 1369.85 L 1285.14 1367.62 L 1293.13 1362.15 L 1304.76 1358.47 L 1318.30 1357.18 L 1331.70 1358.47 L 1342.93 1362.15 L 1350.31 1367.62 L 1352.73 1374.13 L 1349.72 1380.66 L 1341.78 1386.23 L 1330.10 1389.93 L 1316.42 1391.25 L 1302.89 1389.93 L 1291.62 1386.23 L 1284.29 1380.66 L 1282.01 1374.13" stroke="black" stroke-width="4" fill="none" stroke-linecap="round" stroke-linejoin="round"/>
  <path d="M 1202.89 1354.93 L 1204.99 1361.33 L 1212.09 1366.79 L 1223.12 1370.42 L 1236.43 1371.71 L 1249.94 1370.42 L 1261.55 1366.79 L 1269.51 1361.33 L 1272.63 1354.93" stroke="black" stroke-width="4" fill="none" stroke-linecap="round" stroke-linejoin="round"/>
  <path d="M 1261.08 1346.30 L 1249.45 1349.91 L 1235.91 1351.19 L 1222.57 1349.91 L 1211.52 1346.30 L 1204.41 1340.86 L 1202.31 1334.48 L 1205.56 1328.13 L 1213.59 1322.79 L 1225.16 1319.20 L 1238.58 1317.94 L 1251.79 1319.20 L 1262.79 1322.79 L 1269.96 1328.13 L 1272.19 1334.48 L 1269.06 1340.86 L 1261.08 1346.30" stroke="black" stroke-width="4" fill="none" stroke-linecap="round" stroke-linejoin="round"/>
  <path d="M 1125.23 1316.05 L 1127.15 1322.31 L 1134.03 1327.64 L 1144.85 1331.18 L 1157.97 1332.44 L 1171.35 1331.18 L 1182.91 1327.64 L 1190.91 1322.31 L 1194.14 1316.05" stroke="black" stroke-width="4" fill="none" stroke-linecap="round" stroke-linejoin="round"/>
  <path d="M 1182.30 1307.31 L 1170.72 1310.84 L 1157.31 1312.09 L 1144.16 1310.84 L 1133.33 1307.31 L 1126.43 1302.00 L 1124.50 1295.77 L 1127.86 1289.57 L 1135.92 1284.36 L 1147.45 1280.85 L 1160.73 1279.62 L 1173.76 1280.85 L 1184.54 1284.36 L 1191.50 1289.57 L 1193.55 1295.77 L 1190.31 1302.00 L 1182.30 1307.31" stroke="black" stroke-width="4" fill="none" stroke-linecap="round" stroke-linejoin="round"/>
  <path d="M 1398.41 1477.35 L 1399.62 1601.33" stroke="black" stroke-width="4" fill="none" stroke-linecap="round" stroke-linejoin="round"/>
  <path d="M 1959.31 1592.10 L 1907.48 1567.15" stroke="black" stroke-width="4" fill="none" stroke-linecap="round" stroke-linejoin="round"/>
  <path d="M 1481.66 1478.13 L 1430.36 1503.55 L 1789.85 1685.32 L 1959.31 1592.10 L 1953.59 1719.34 L 1786.15 1814.69 L 1431.21 1628.71 L 1430.36 1503.55" stroke="black" stroke-width="4" fill="none" stroke-linecap="round" stroke-linejoin="round"/>
  <path d="M 1833.30 1592.07 L 1836.84 1599.49 L 1845.65 1605.77 L 1858.24 1609.99 L 1872.89 1611.46 L 1887.14 1609.99 L 1898.93 1605.77 L 1906.33 1599.49 L 1908.36 1592.10" stroke="black" stroke-width="4" fill="none" stroke-linecap="round" stroke-linejoin="round"/>
  <path d="M 1899.77 1584.20 L 1887.95 1588.40 L 1873.68 1589.86 L 1859.00 1588.40 L 1846.38 1584.20 L 1837.55 1577.94 L 1834.00 1570.56 L 1836.14 1563.24 L 1843.71 1557.06 L 1855.39 1552.94 L 1869.57 1551.48 L 1884.05 1552.94 L 1896.69 1557.06 L 1905.49 1563.24 L 1909.22 1570.58 L 1907.19 1577.94 L 1899.77 1584.20" stroke="black" stroke-width="4" fill="none" stroke-linecap="round" stroke-linejoin="round"/>
  <path d="M 1741.74 1547.24 L 1745.04 1554.47 L 1753.58 1560.59 L 1765.90 1564.70 L 1780.32 1566.13 L 1794.43 1564.70 L 1806.18 1560.59 L 1813.65 1554.47 L 1815.84 1547.26" stroke="black" stroke-width="4" fill="none" stroke-linecap="round" stroke-linejoin="round"/>
  <path d="M 1806.82 1539.20 L 1795.04 1543.29 L 1780.91 1544.72 L 1766.46 1543.29 L 1754.11 1539.20 L 1745.55 1533.10 L 1742.24 1525.90 L 1744.54 1518.77 L 1752.17 1512.75 L 1763.81 1508.73 L 1777.85 1507.31 L 1792.11 1508.73 L 1804.48 1512.75 L 1813.01 1518.77 L 1816.50 1525.92 L 1814.30 1533.10 L 1806.82 1539.20" stroke="black" stroke-width="4" fill="none" stroke-linecap="round" stroke-linejoin="round"/>
  <path d="M 1652.47 1503.53 L 1655.55 1510.58 L 1663.82 1516.55 L 1671.38 1519.06 L 1675.89 1520.55 L 1690.09 1521.95 L 1704.05 1520.55 L 1715.76 1516.55 L 1723.29 1510.58 L 1725.64 1503.55" stroke="black" stroke-width="4" fill="none" stroke-linecap="round" stroke-linejoin="round"/>
  <path d="M 1716.20 1495.33 L 1704.47 1499.32 L 1690.48 1500.71 L 1676.25 1499.32 L 1664.16 1495.33 L 1655.87 1489.39 L 1652.78 1482.37 L 1655.23 1475.42 L 1662.93 1469.54 L 1674.52 1465.62 L 1688.42 1464.24 L 1702.47 1465.62 L 1714.58 1469.54 L 1722.84 1475.42 L 1726.11 1482.39 L 1723.75 1489.39 L 1716.20 1495.33" stroke="black" stroke-width="4" fill="none" stroke-linecap="round" stroke-linejoin="round"/>
  <path d="M 1635.18 1467.78 L 1637.68 1460.92 L 1635.34 1455.67" stroke="black" stroke-width="4" fill="none" stroke-linecap="round" stroke-linejoin="round"/>
  <path d="M 1565.41 1460.90 L 1568.27 1467.78 L 1576.30 1473.60 L 1588.11 1477.50 L 1602.10 1478.87 L 1615.93 1477.50 L 1627.59 1473.60" stroke="black" stroke-width="4" fill="none" stroke-linecap="round" stroke-linejoin="round"/>
  <path d="M 1772.86 1656.46 L 1787.67 1657.97 L 1802.14 1656.46 L 1814.19 1652.14 L 1821.84 1645.69 L 1824.07 1638.10" stroke="black" stroke-width="4" fill="none" stroke-linecap="round" stroke-linejoin="round"/>
  <path d="M 1748.04 1638.08 L 1751.44 1645.69 L 1760.21 1652.14" stroke="black" stroke-width="4" fill="none" stroke-linecap="round" stroke-linejoin="round"/>
  <path d="M 1814.86 1630.38 L 1802.78 1634.69 L 1788.28 1636.19 L 1773.45 1634.69 L 1760.77 1630.38 L 1751.97 1623.96 L 1748.56 1616.38 L 1750.91 1608.87 L 1758.73 1602.53 L 1770.66 1598.30 L 1785.06 1596.80 L 1799.70 1598.30 L 1812.40 1602.53 L 1821.16 1608.87 L 1824.76 1616.40 L 1822.53 1623.96 L 1814.86 1630.38" stroke="black" stroke-width="4" fill="none" stroke-linecap="round" stroke-linejoin="round"/>
  <path d="M 1731.45 1592.10 L 1729.05 1599.49 L 1728.83 1599.67 L 1721.33 1605.77 L 1709.33 1609.99 L 1695.00 1611.46 L 1680.43 1609.99 L 1668.05 1605.77 L 1659.56 1599.49 L 1656.39 1592.07" stroke="black" stroke-width="4" fill="none" stroke-linecap="round" stroke-linejoin="round"/>
  <path d="M 1721.80 1584.20 L 1709.77 1588.40 L 1695.42 1589.86 L 1680.81 1588.40 L 1668.41 1584.20 L 1659.89 1577.94 L 1656.72 1570.56 L 1659.22 1563.24 L 1667.11 1557.06 L 1679.00 1552.94 L 1693.25 1551.48 L 1707.66 1552.94 L 1720.09 1557.06 L 1728.57 1563.24 L 1731.93 1570.58 L 1729.53 1577.94 L 1721.80 1584.20" stroke="black" stroke-width="4" fill="none" stroke-linecap="round" stroke-linejoin="round"/>
  <path d="M 1567.07 1547.24 L 1570.01 1554.47 L 1578.24 1560.59 L 1590.36 1564.70 L 1604.71 1566.13 L 1618.88 1564.70 L 1630.84 1560.59 L 1638.62 1554.47 L 1641.17 1547.26" stroke="black" stroke-width="4" fill="none" stroke-linecap="round" stroke-linejoin="round"/>
  <path d="M 1631.12 1539.20 L 1619.13 1543.29 L 1604.93 1544.72 L 1590.55 1543.29 L 1578.41 1539.20 L 1570.16 1533.10 L 1567.21 1525.90 L 1569.87 1518.77 L 1577.81 1512.75 L 1589.65 1508.73 L 1603.76 1507.31 L 1617.95 1508.73 L 1630.12 1512.75 L 1638.34 1518.77 L 1641.47 1525.92 L 1638.91 1533.10 L 1631.12 1539.20" stroke="black" stroke-width="4" fill="none" stroke-linecap="round" stroke-linejoin="round"/>
  <path d="M 1479.99 1503.53 L 1482.72 1510.58 L 1490.69 1516.55 L 1502.56 1520.55 L 1516.69 1521.95 L 1530.72 1520.55 L 1542.63 1516.55 L 1550.47 1510.58 L 1553.17 1503.55" stroke="black" stroke-width="4" fill="none" stroke-linecap="round" stroke-linejoin="round"/>
  <path d="M 1542.72 1495.33 L 1530.79 1499.32 L 1516.72 1500.71 L 1502.56 1499.32 L 1490.68 1495.33 L 1482.68 1489.39 L 1479.95 1482.37 L 1482.75 1475.42 L 1490.75 1469.54 L 1502.54 1465.62 L 1516.50 1464.24 L 1530.48 1465.62 L 1542.40 1469.54 L 1550.36 1475.42 L 1553.28 1482.39 L 1550.57 1489.39 L 1542.72 1495.33" stroke="black" stroke-width="4" fill="none" stroke-linecap="round" stroke-linejoin="round"/>
  <path d="M 1789.85 1685.32 L 1786.15 1814.69" stroke="black" stroke-width="4" fill="none" stroke-linecap="round" stroke-linejoin="round"/>
</svg>
