<?xml version="1.0" ?>
<svg xmlns="http://www.w3.org/2000/svg" version="1.1" width="634.07px" height="3000px" viewBox="1186.64 0 634.07 3000">
  <polygon points="1441.03,1256.46 1441.15,1280.65 1444.36,1273.25 1444.25,1249.09" fill="#afbfd6" stroke="#afbfd6" stroke-width="0.5" stroke-linecap="round" stroke-linejoin="round"/>
  <polygon points="1362.16,1249.09 1362.44,1273.25 1365.26,1280.65 1365.00,1256.46" fill="#afbfd6" stroke="#afbfd6" stroke-width="0.5" stroke-linecap="round" stroke-linejoin="round"/>
  <polygon points="1374.62,1235.53 1365.53,1241.76 1362.16,1249.09 1365.00,1256.46 1373.71,1262.75 1386.99,1266.96 1402.71,1268.42 1418.50,1266.96 1432.00,1262.75 1441.03,1256.46 1444.25,1249.09 1441.26,1241.76 1432.49,1235.53 1419.27,1231.40 1403.70,1229.96 1388.06,1231.40" fill="#afbfd6" stroke="#afbfd6" stroke-width="0.5" stroke-linecap="round" stroke-linejoin="round"/>
  <polygon points="1432.00,1262.75 1432.13,1286.97 1441.15,1280.65 1441.03,1256.46" fill="#afbfd6" stroke="#afbfd6" stroke-width="0.5" stroke-linecap="round" stroke-linejoin="round"/>
  <polygon points="1365.00,1256.46 1365.26,1280.65 1373.96,1286.97 1373.71,1262.75" fill="#afbfd6" stroke="#afbfd6" stroke-width="0.5" stroke-linecap="round" stroke-linejoin="round"/>
  <polygon points="1373.71,1262.75 1373.96,1286.97 1387.21,1291.20 1386.99,1266.96" fill="#afbfd6" stroke="#afbfd6" stroke-width="0.5" stroke-linecap="round" stroke-linejoin="round"/>
  <polygon points="1418.50,1266.96 1418.66,1291.20 1432.13,1286.97 1432.00,1262.75" fill="#afbfd6" stroke="#afbfd6" stroke-width="0.5" stroke-linecap="round" stroke-linejoin="round"/>
  <polygon points="1386.99,1266.96 1387.21,1291.20 1402.90,1292.67 1402.71,1268.42" fill="#afbfd6" stroke="#afbfd6" stroke-width="0.5" stroke-linecap="round" stroke-linejoin="round"/>
  <polygon points="1402.71,1268.42 1402.90,1292.67 1418.66,1291.20 1418.50,1266.96" fill="#afbfd6" stroke="#afbfd6" stroke-width="0.5" stroke-linecap="round" stroke-linejoin="round"/>
  <polygon points="1405.65,1370.04 1210.12,1463.52 1601.54,1664.74 1797.06,1561.64" fill="#60afff" stroke="#60afff" stroke-width="0.5" stroke-linecap="round" stroke-linejoin="round"/>
  <polygon points="1458.46,1295.01 1458.54,1319.37 1461.59,1326.95 1461.52,1302.55" fill="#afbfd6" stroke="#afbfd6" stroke-width="0.5" stroke-linecap="round" stroke-linejoin="round"/>
  <polygon points="1262.49,1295.01 1262.97,1319.37 1265.63,1326.95 1265.16,1302.55" fill="#afbfd6" stroke="#afbfd6" stroke-width="0.5" stroke-linecap="round" stroke-linejoin="round"/>
  <polygon points="1342.13,1302.55 1342.45,1326.95 1345.89,1319.37 1345.58,1295.01" fill="#afbfd6" stroke="#afbfd6" stroke-width="0.5" stroke-linecap="round" stroke-linejoin="round"/>
  <polygon points="1538.48,1302.55 1538.41,1326.95 1541.46,1319.37 1541.54,1295.01" fill="#afbfd6" stroke="#afbfd6" stroke-width="0.5" stroke-linecap="round" stroke-linejoin="round"/>
  <polygon points="1515.95,1313.32 1529.50,1309.00 1538.48,1302.55 1541.54,1295.01 1538.33,1287.49 1529.29,1281.12 1515.80,1276.88 1500.00,1275.40 1484.20,1276.88 1470.71,1281.12 1461.67,1287.49 1458.46,1295.01 1461.52,1302.55 1470.50,1309.00 1484.05,1313.32 1500.00,1314.82" fill="#afbfd6" stroke="#afbfd6" stroke-width="0.5" stroke-linecap="round" stroke-linejoin="round"/>
  <polygon points="1275.47,1281.12 1266.09,1287.49 1262.49,1295.01 1265.16,1302.55 1273.81,1309.00 1287.14,1313.32 1303.01,1314.82 1319.04,1313.32 1332.82,1309.00 1342.13,1302.55 1345.58,1295.01 1342.76,1287.49 1334.04,1281.12 1320.77,1276.88 1305.05,1275.40 1289.18,1276.88" fill="#afbfd6" stroke="#afbfd6" stroke-width="0.5" stroke-linecap="round" stroke-linejoin="round"/>
  <polygon points="1265.16,1302.55 1265.63,1326.95 1274.27,1333.43 1273.81,1309.00" fill="#afbfd6" stroke="#afbfd6" stroke-width="0.5" stroke-linecap="round" stroke-linejoin="round"/>
  <polygon points="1332.82,1309.00 1333.15,1333.43 1342.45,1326.95 1342.13,1302.55" fill="#afbfd6" stroke="#afbfd6" stroke-width="0.5" stroke-linecap="round" stroke-linejoin="round"/>
  <polygon points="1529.50,1309.00 1529.44,1333.43 1538.41,1326.95 1538.48,1302.55" fill="#afbfd6" stroke="#afbfd6" stroke-width="0.5" stroke-linecap="round" stroke-linejoin="round"/>
  <polygon points="1461.52,1302.55 1461.59,1326.95 1470.56,1333.43 1470.50,1309.00" fill="#afbfd6" stroke="#afbfd6" stroke-width="0.5" stroke-linecap="round" stroke-linejoin="round"/>
  <polygon points="1515.95,1313.32 1515.92,1337.76 1529.44,1333.43 1529.50,1309.00" fill="#afbfd6" stroke="#afbfd6" stroke-width="0.5" stroke-linecap="round" stroke-linejoin="round"/>
  <polygon points="1273.81,1309.00 1274.27,1333.43 1287.57,1337.76 1287.14,1313.32" fill="#afbfd6" stroke="#afbfd6" stroke-width="0.5" stroke-linecap="round" stroke-linejoin="round"/>
  <polygon points="1470.50,1309.00 1470.56,1333.43 1484.08,1337.76 1484.05,1313.32" fill="#afbfd6" stroke="#afbfd6" stroke-width="0.5" stroke-linecap="round" stroke-linejoin="round"/>
  <polygon points="1319.04,1313.32 1319.41,1337.76 1333.15,1333.43 1332.82,1309.00" fill="#afbfd6" stroke="#afbfd6" stroke-width="0.5" stroke-linecap="round" stroke-linejoin="round"/>
  <polygon points="1287.14,1313.32 1287.57,1337.76 1303.41,1339.27 1303.01,1314.82" fill="#afbfd6" stroke="#afbfd6" stroke-width="0.5" stroke-linecap="round" stroke-linejoin="round"/>
  <polygon points="1303.01,1314.82 1303.41,1339.27 1319.41,1337.76 1319.04,1313.32" fill="#afbfd6" stroke="#afbfd6" stroke-width="0.5" stroke-linecap="round" stroke-linejoin="round"/>
  <polygon points="1484.05,1313.32 1484.08,1337.76 1500.00,1339.27 1500.00,1314.82" fill="#afbfd6" stroke="#afbfd6" stroke-width="0.5" stroke-linecap="round" stroke-linejoin="round"/>
  <polygon points="1500.00,1314.82 1500.00,1339.27 1515.92,1337.76 1515.95,1313.32" fill="#afbfd6" stroke="#afbfd6" stroke-width="0.5" stroke-linecap="round" stroke-linejoin="round"/>
  <polygon points="1600.29,1810.11 1601.54,1664.74 1210.12,1463.52 1213.51,1604.30" fill="#60afff" stroke="#60afff" stroke-width="0.5" stroke-linecap="round" stroke-linejoin="round"/>
  <polygon points="1404.55,1228.23 1206.64,1319.37 1602.82,1515.71 1800.71,1415.08" fill="#afbfd6" stroke="#afbfd6" stroke-width="0.5" stroke-linecap="round" stroke-linejoin="round"/>
  <polygon points="1358.74,1342.06 1359.03,1366.63 1361.92,1374.40 1361.64,1349.80" fill="#afbfd6" stroke="#afbfd6" stroke-width="0.5" stroke-linecap="round" stroke-linejoin="round"/>
  <polygon points="1638.36,1349.80 1638.08,1374.40 1640.97,1366.63 1641.26,1342.06" fill="#afbfd6" stroke="#afbfd6" stroke-width="0.5" stroke-linecap="round" stroke-linejoin="round"/>
  <polygon points="1557.14,1342.06 1557.02,1366.63 1560.31,1374.40 1560.43,1349.80" fill="#afbfd6" stroke="#afbfd6" stroke-width="0.5" stroke-linecap="round" stroke-linejoin="round"/>
  <polygon points="1439.57,1349.80 1439.69,1374.40 1442.98,1366.63 1442.86,1342.06" fill="#afbfd6" stroke="#afbfd6" stroke-width="0.5" stroke-linecap="round" stroke-linejoin="round"/>
  <polygon points="1615.83,1360.83 1629.44,1356.41 1638.36,1349.80 1641.26,1342.06 1637.80,1334.36 1628.48,1327.82 1614.71,1323.48 1598.68,1321.97 1582.72,1323.48 1569.18,1327.82 1560.19,1334.36 1557.14,1342.06 1560.43,1349.80 1569.70,1356.41 1583.53,1360.83 1599.72,1362.37" fill="#afbfd6" stroke="#afbfd6" stroke-width="0.5" stroke-linecap="round" stroke-linejoin="round"/>
  <polygon points="1416.47,1360.83 1430.30,1356.41 1439.57,1349.80 1442.86,1342.06 1439.81,1334.36 1430.82,1327.82 1417.28,1323.48 1401.32,1321.97 1385.29,1323.48 1371.52,1327.82 1362.20,1334.36 1358.74,1342.06 1361.64,1349.80 1370.56,1356.41 1384.17,1360.83 1400.28,1362.37" fill="#afbfd6" stroke="#afbfd6" stroke-width="0.5" stroke-linecap="round" stroke-linejoin="round"/>
  <polygon points="1361.64,1349.80 1361.92,1374.40 1370.83,1381.04 1370.56,1356.41" fill="#afbfd6" stroke="#afbfd6" stroke-width="0.5" stroke-linecap="round" stroke-linejoin="round"/>
  <polygon points="1560.43,1349.80 1560.31,1374.40 1569.56,1381.04 1569.70,1356.41" fill="#afbfd6" stroke="#afbfd6" stroke-width="0.5" stroke-linecap="round" stroke-linejoin="round"/>
  <polygon points="1629.44,1356.41 1629.17,1381.04 1638.08,1374.40 1638.36,1349.80" fill="#afbfd6" stroke="#afbfd6" stroke-width="0.5" stroke-linecap="round" stroke-linejoin="round"/>
  <polygon points="1430.30,1356.41 1430.44,1381.04 1439.69,1374.40 1439.57,1349.80" fill="#afbfd6" stroke="#afbfd6" stroke-width="0.5" stroke-linecap="round" stroke-linejoin="round"/>
  <polygon points="1370.56,1356.41 1370.83,1381.04 1384.41,1385.48 1384.17,1360.83" fill="#afbfd6" stroke="#afbfd6" stroke-width="0.5" stroke-linecap="round" stroke-linejoin="round"/>
  <polygon points="1569.70,1356.41 1569.56,1381.04 1583.36,1385.48 1583.53,1360.83" fill="#afbfd6" stroke="#afbfd6" stroke-width="0.5" stroke-linecap="round" stroke-linejoin="round"/>
  <polygon points="1615.83,1360.83 1615.59,1385.48 1629.17,1381.04 1629.44,1356.41" fill="#afbfd6" stroke="#afbfd6" stroke-width="0.5" stroke-linecap="round" stroke-linejoin="round"/>
  <polygon points="1416.47,1360.83 1416.64,1385.48 1430.44,1381.04 1430.30,1356.41" fill="#afbfd6" stroke="#afbfd6" stroke-width="0.5" stroke-linecap="round" stroke-linejoin="round"/>
  <polygon points="1400.28,1362.37 1400.48,1387.02 1416.64,1385.48 1416.47,1360.83" fill="#afbfd6" stroke="#afbfd6" stroke-width="0.5" stroke-linecap="round" stroke-linejoin="round"/>
  <polygon points="1599.72,1362.37 1599.52,1387.02 1615.59,1385.48 1615.83,1360.83" fill="#afbfd6" stroke="#afbfd6" stroke-width="0.5" stroke-linecap="round" stroke-linejoin="round"/>
  <polygon points="1583.53,1360.83 1583.36,1385.48 1599.52,1387.02 1599.72,1362.37" fill="#afbfd6" stroke="#afbfd6" stroke-width="0.5" stroke-linecap="round" stroke-linejoin="round"/>
  <polygon points="1384.17,1360.83 1384.41,1385.48 1400.48,1387.02 1400.28,1362.37" fill="#afbfd6" stroke="#afbfd6" stroke-width="0.5" stroke-linecap="round" stroke-linejoin="round"/>
  <polygon points="1601.54,1664.74 1602.82,1515.71 1206.64,1319.37 1210.12,1463.52" fill="#afbfd6" stroke="#afbfd6" stroke-width="0.5" stroke-linecap="round" stroke-linejoin="round"/>
  <polygon points="1797.06,1561.64 1601.54,1664.74 1600.29,1810.11 1793.50,1704.68" fill="#60afff" stroke="#60afff" stroke-width="0.5" stroke-linecap="round" stroke-linejoin="round"/>
  <polygon points="1740.75,1398.23 1740.26,1423.04 1742.98,1415.08 1743.47,1390.30" fill="#afbfd6" stroke="#afbfd6" stroke-width="0.5" stroke-linecap="round" stroke-linejoin="round"/>
  <polygon points="1457.41,1390.30 1457.50,1415.08 1460.63,1423.04 1460.55,1398.23" fill="#afbfd6" stroke="#afbfd6" stroke-width="0.5" stroke-linecap="round" stroke-linejoin="round"/>
  <polygon points="1658.30,1390.30 1657.97,1415.08 1661.51,1423.04 1661.84,1398.23" fill="#afbfd6" stroke="#afbfd6" stroke-width="0.5" stroke-linecap="round" stroke-linejoin="round"/>
  <polygon points="1539.45,1398.23 1539.37,1423.04 1542.50,1415.08 1542.59,1390.30" fill="#afbfd6" stroke="#afbfd6" stroke-width="0.5" stroke-linecap="round" stroke-linejoin="round"/>
  <polygon points="1730.15,1375.70 1716.09,1371.25 1699.82,1369.70 1683.71,1371.25 1670.11,1375.70 1661.18,1382.40 1658.30,1390.30 1661.84,1398.23 1671.40,1405.01 1685.53,1409.54 1701.96,1411.12 1718.23,1409.54 1731.89,1405.01 1740.75,1398.23 1743.47,1390.30 1739.77,1382.40" fill="#afbfd6" stroke="#afbfd6" stroke-width="0.5" stroke-linecap="round" stroke-linejoin="round"/>
  <polygon points="1539.29,1382.40 1530.02,1375.70 1516.19,1371.25 1500.00,1369.70 1483.81,1371.25 1469.98,1375.70 1460.71,1382.40 1457.41,1390.30 1460.55,1398.23 1469.75,1405.01 1483.65,1409.54 1500.00,1411.12 1516.35,1409.54 1530.25,1405.01 1539.45,1398.23 1542.59,1390.30" fill="#afbfd6" stroke="#afbfd6" stroke-width="0.5" stroke-linecap="round" stroke-linejoin="round"/>
  <polygon points="1530.25,1405.01 1530.18,1429.85 1539.37,1423.04 1539.45,1398.23" fill="#afbfd6" stroke="#afbfd6" stroke-width="0.5" stroke-linecap="round" stroke-linejoin="round"/>
  <polygon points="1460.55,1398.23 1460.63,1423.04 1469.82,1429.85 1469.75,1405.01" fill="#afbfd6" stroke="#afbfd6" stroke-width="0.5" stroke-linecap="round" stroke-linejoin="round"/>
  <polygon points="1731.89,1405.01 1731.42,1429.85 1740.26,1423.04 1740.75,1398.23" fill="#afbfd6" stroke="#afbfd6" stroke-width="0.5" stroke-linecap="round" stroke-linejoin="round"/>
  <polygon points="1661.84,1398.23 1661.51,1423.04 1671.05,1429.85 1671.40,1405.01" fill="#afbfd6" stroke="#afbfd6" stroke-width="0.5" stroke-linecap="round" stroke-linejoin="round"/>
  <polygon points="1718.23,1409.54 1717.78,1434.40 1731.42,1429.85 1731.89,1405.01" fill="#afbfd6" stroke="#afbfd6" stroke-width="0.5" stroke-linecap="round" stroke-linejoin="round"/>
  <polygon points="1671.40,1405.01 1671.05,1429.85 1685.15,1434.40 1685.53,1409.54" fill="#afbfd6" stroke="#afbfd6" stroke-width="0.5" stroke-linecap="round" stroke-linejoin="round"/>
  <polygon points="1469.75,1405.01 1469.82,1429.85 1483.68,1434.40 1483.65,1409.54" fill="#afbfd6" stroke="#afbfd6" stroke-width="0.5" stroke-linecap="round" stroke-linejoin="round"/>
  <polygon points="1516.35,1409.54 1516.32,1434.40 1530.18,1429.85 1530.25,1405.01" fill="#afbfd6" stroke="#afbfd6" stroke-width="0.5" stroke-linecap="round" stroke-linejoin="round"/>
  <polygon points="1483.65,1409.54 1483.68,1434.40 1500.00,1435.99 1500.00,1411.12" fill="#afbfd6" stroke="#afbfd6" stroke-width="0.5" stroke-linecap="round" stroke-linejoin="round"/>
  <polygon points="1500.00,1411.12 1500.00,1435.99 1516.32,1434.40 1516.35,1409.54" fill="#afbfd6" stroke="#afbfd6" stroke-width="0.5" stroke-linecap="round" stroke-linejoin="round"/>
  <polygon points="1701.96,1411.12 1701.55,1435.99 1717.78,1434.40 1718.23,1409.54" fill="#afbfd6" stroke="#afbfd6" stroke-width="0.5" stroke-linecap="round" stroke-linejoin="round"/>
  <polygon points="1685.53,1409.54 1685.15,1434.40 1701.55,1435.99 1701.96,1411.12" fill="#afbfd6" stroke="#afbfd6" stroke-width="0.5" stroke-linecap="round" stroke-linejoin="round"/>
  <polygon points="1800.71,1415.08 1602.82,1515.71 1601.54,1664.74 1797.06,1561.64" fill="#afbfd6" stroke="#afbfd6" stroke-width="0.5" stroke-linecap="round" stroke-linejoin="round"/>
  <polygon points="1641.89,1447.90 1641.59,1472.92 1644.55,1464.75 1644.85,1439.76" fill="#afbfd6" stroke="#afbfd6" stroke-width="0.5" stroke-linecap="round" stroke-linejoin="round"/>
  <polygon points="1558.59,1439.76 1558.47,1464.75 1561.85,1472.92 1561.97,1447.90" fill="#afbfd6" stroke="#afbfd6" stroke-width="0.5" stroke-linecap="round" stroke-linejoin="round"/>
  <polygon points="1618.79,1459.50 1632.74,1454.85 1641.89,1447.90 1644.85,1439.76 1641.30,1431.67 1631.73,1424.79 1617.61,1420.23 1601.18,1418.64 1584.82,1420.23 1570.93,1424.79 1561.72,1431.67 1558.59,1439.76 1561.97,1447.90 1571.48,1454.85 1585.67,1459.50 1602.27,1461.12" fill="#afbfd6" stroke="#afbfd6" stroke-width="0.5" stroke-linecap="round" stroke-linejoin="round"/>
  <polygon points="1561.97,1447.90 1561.85,1472.92 1571.33,1479.90 1571.48,1454.85" fill="#afbfd6" stroke="#afbfd6" stroke-width="0.5" stroke-linecap="round" stroke-linejoin="round"/>
  <polygon points="1632.74,1454.85 1632.47,1479.90 1641.59,1472.92 1641.89,1447.90" fill="#afbfd6" stroke="#afbfd6" stroke-width="0.5" stroke-linecap="round" stroke-linejoin="round"/>
  <polygon points="1571.48,1454.85 1571.33,1479.90 1585.49,1484.57 1585.67,1459.50" fill="#afbfd6" stroke="#afbfd6" stroke-width="0.5" stroke-linecap="round" stroke-linejoin="round"/>
  <polygon points="1618.79,1459.50 1618.54,1484.57 1632.47,1479.90 1632.74,1454.85" fill="#afbfd6" stroke="#afbfd6" stroke-width="0.5" stroke-linecap="round" stroke-linejoin="round"/>
  <polygon points="1585.67,1459.50 1585.49,1484.57 1602.06,1486.20 1602.27,1461.12" fill="#afbfd6" stroke="#afbfd6" stroke-width="0.5" stroke-linecap="round" stroke-linejoin="round"/>
  <polygon points="1602.27,1461.12 1602.06,1486.20 1618.54,1484.57 1618.79,1459.50" fill="#afbfd6" stroke="#afbfd6" stroke-width="0.5" stroke-linecap="round" stroke-linejoin="round"/>
  <path d="M 1213.51 1604.30 L 1600.29 1810.11 L 1793.50 1704.68 L 1797.06 1561.64 L 1601.54 1664.74 L 1600.29 1810.11 L 1793.50 1704.68 L 1797.06 1561.64 L 1601.54 1664.74 L 1210.12 1463.52 L 1213.51 1604.30 L 1600.29 1810.11 L 1601.54 1664.74 L 1210.12 1463.52 L 1213.51 1604.30" stroke="black" stroke-width="4" fill="none" stroke-linecap="round" stroke-linejoin="round"/>
  <path d="M 1210.12 1463.52 L 1601.54 1664.74 L 1797.06 1561.64 L 1800.71 1415.08 L 1602.82 1515.71 L 1601.54 1664.74 L 1797.06 1561.64 L 1800.71 1415.08 L 1742.14 1387.45 L 1800.71 1415.08 L 1602.82 1515.71 L 1206.64 1319.37 L 1263.33 1293.27 L 1206.64 1319.37 L 1210.12 1463.52 L 1601.54 1664.74 L 1602.82 1515.71 L 1206.64 1319.37 L 1210.12 1463.52" stroke="black" stroke-width="4" fill="none" stroke-linecap="round" stroke-linejoin="round"/>
  <path d="M 1705.68 1370.26 L 1640.01 1339.29 L 1705.68 1370.26 L 1640.01 1339.29" stroke="black" stroke-width="4" fill="none" stroke-linecap="round" stroke-linejoin="round"/>
  <path d="M 1604.45 1322.51 L 1540.39 1292.30 L 1604.45 1322.51 L 1540.39 1292.30" stroke="black" stroke-width="4" fill="none" stroke-linecap="round" stroke-linejoin="round"/>
  <path d="M 1505.69 1275.93 L 1443.17 1246.45 L 1505.69 1275.93 L 1443.17 1246.45" stroke="black" stroke-width="4" fill="none" stroke-linecap="round" stroke-linejoin="round"/>
  <path d="M 1409.31 1230.48 L 1404.55 1228.23 L 1400.08 1230.29 L 1404.55 1228.23 L 1409.31 1230.48 L 1404.55 1228.23 L 1400.08 1230.29" stroke="black" stroke-width="4" fill="none" stroke-linecap="round" stroke-linejoin="round"/>
  <path d="M 1301.38 1275.74 L 1362.94 1247.39 L 1301.38 1275.74 L 1362.94 1247.39 L 1362.44 1273.25 L 1365.26 1280.65 L 1373.96 1286.97 L 1387.21 1291.20 L 1402.90 1292.67 L 1418.66 1291.20 L 1432.13 1286.97 L 1441.15 1280.65 L 1444.36 1273.25 L 1444.25 1249.09" stroke="black" stroke-width="4" fill="none" stroke-linecap="round" stroke-linejoin="round"/>
  <path d="M 1740.75 1398.23 L 1743.47 1390.30 L 1739.77 1382.40 L 1730.15 1375.70 L 1716.09 1371.25 L 1699.82 1369.70 L 1683.71 1371.25 L 1670.11 1375.70 L 1661.18 1382.40 L 1658.30 1390.30 L 1661.84 1398.23 L 1671.40 1405.01 L 1685.53 1409.54 L 1701.96 1411.12 L 1718.23 1409.54 L 1731.89 1405.01 L 1740.75 1398.23" stroke="black" stroke-width="4" fill="none" stroke-linecap="round" stroke-linejoin="round"/>
  <path d="M 1658.30 1390.30 L 1657.97 1415.08 L 1661.51 1423.04 L 1671.05 1429.85 L 1685.15 1434.40 L 1701.55 1435.99 L 1717.78 1434.40 L 1731.42 1429.85 L 1740.26 1423.04 L 1742.98 1415.08 L 1743.47 1390.30" stroke="black" stroke-width="4" fill="none" stroke-linecap="round" stroke-linejoin="round"/>
  <path d="M 1701.96 1411.12 L 1718.23 1409.54 L 1731.89 1405.01 L 1718.23 1409.54 L 1701.96 1411.12 L 1685.53 1409.54 L 1671.40 1405.01 L 1661.84 1398.23 L 1658.30 1390.30 L 1661.18 1382.40 L 1670.11 1375.70 L 1683.71 1371.25 L 1699.82 1369.70 L 1716.09 1371.25 L 1730.15 1375.70 L 1739.77 1382.40 L 1743.47 1390.30 L 1740.75 1398.23 L 1731.89 1405.01" stroke="black" stroke-width="4" fill="none" stroke-linecap="round" stroke-linejoin="round"/>
  <path d="M 1730.15 1375.70 L 1716.09 1371.25 L 1699.82 1369.70" stroke="black" stroke-width="4" fill="none" stroke-linecap="round" stroke-linejoin="round"/>
  <path d="M 1670.11 1375.70 L 1661.18 1382.40 L 1658.30 1390.30 L 1661.84 1398.23 L 1671.40 1405.01" stroke="black" stroke-width="4" fill="none" stroke-linecap="round" stroke-linejoin="round"/>
  <path d="M 1638.36 1349.80 L 1641.26 1342.06 L 1637.80 1334.36 L 1628.48 1327.82 L 1614.71 1323.48 L 1598.68 1321.97 L 1582.72 1323.48 L 1569.18 1327.82 L 1560.19 1334.36 L 1557.14 1342.06 L 1560.43 1349.80 L 1569.70 1356.41 L 1583.53 1360.83 L 1599.72 1362.37 L 1615.83 1360.83 L 1629.44 1356.41 L 1638.36 1349.80 L 1629.44 1356.41 L 1615.83 1360.83 L 1599.72 1362.37 L 1583.53 1360.83 L 1569.70 1356.41 L 1560.43 1349.80 L 1557.14 1342.06 L 1560.19 1334.36 L 1569.18 1327.82 L 1582.72 1323.48 L 1598.68 1321.97 L 1614.71 1323.48 L 1628.48 1327.82 L 1637.80 1334.36 L 1641.26 1342.06 L 1638.36 1349.80 L 1629.44 1356.41" stroke="black" stroke-width="4" fill="none" stroke-linecap="round" stroke-linejoin="round"/>
  <path d="M 1557.14 1342.06 L 1557.02 1366.63 L 1560.31 1374.40 L 1569.56 1381.04 L 1583.36 1385.48 L 1599.52 1387.02 L 1615.59 1385.48 L 1629.17 1381.04 L 1638.08 1374.40 L 1640.97 1366.63 L 1641.26 1342.06" stroke="black" stroke-width="4" fill="none" stroke-linecap="round" stroke-linejoin="round"/>
  <path d="M 1637.80 1334.36 L 1628.48 1327.82" stroke="black" stroke-width="4" fill="none" stroke-linecap="round" stroke-linejoin="round"/>
  <path d="M 1614.71 1323.48 L 1598.68 1321.97" stroke="black" stroke-width="4" fill="none" stroke-linecap="round" stroke-linejoin="round"/>
  <path d="M 1582.72 1323.48 L 1569.18 1327.82" stroke="black" stroke-width="4" fill="none" stroke-linecap="round" stroke-linejoin="round"/>
  <path d="M 1560.19 1334.36 L 1557.14 1342.06 L 1560.43 1349.80" stroke="black" stroke-width="4" fill="none" stroke-linecap="round" stroke-linejoin="round"/>
  <path d="M 1569.70 1356.41 L 1583.53 1360.83" stroke="black" stroke-width="4" fill="none" stroke-linecap="round" stroke-linejoin="round"/>
  <path d="M 1599.72 1362.37 L 1615.83 1360.83" stroke="black" stroke-width="4" fill="none" stroke-linecap="round" stroke-linejoin="round"/>
  <path d="M 1538.48 1302.55 L 1541.54 1295.01 L 1538.33 1287.49 L 1529.29 1281.12 L 1515.80 1276.88 L 1500.00 1275.40 L 1484.20 1276.88 L 1470.71 1281.12 L 1461.67 1287.49 L 1458.46 1295.01 L 1461.52 1302.55 L 1470.50 1309.00 L 1484.05 1313.32 L 1500.00 1314.82 L 1515.95 1313.32 L 1529.50 1309.00 L 1538.48 1302.55 L 1529.50 1309.00 L 1515.95 1313.32 L 1500.00 1314.82 L 1484.05 1313.32 L 1470.50 1309.00 L 1461.52 1302.55 L 1458.46 1295.01 L 1461.67 1287.49 L 1470.71 1281.12 L 1484.20 1276.88 L 1500.00 1275.40 L 1515.80 1276.88 L 1529.29 1281.12 L 1538.33 1287.49 L 1541.54 1295.01 L 1538.48 1302.55 L 1529.50 1309.00" stroke="black" stroke-width="4" fill="none" stroke-linecap="round" stroke-linejoin="round"/>
  <path d="M 1458.46 1295.01 L 1458.54 1319.37 L 1461.59 1326.95 L 1470.56 1333.43 L 1484.08 1337.76 L 1500.00 1339.27 L 1515.92 1337.76 L 1529.44 1333.43 L 1538.41 1326.95 L 1541.46 1319.37 L 1541.54 1295.01" stroke="black" stroke-width="4" fill="none" stroke-linecap="round" stroke-linejoin="round"/>
  <path d="M 1504.43 1300.09 L 1500.00 1299.68 L 1504.43 1300.09" stroke="black" stroke-width="4" fill="none" stroke-linecap="round" stroke-linejoin="round"/>
  <path d="M 1538.33 1287.49 L 1529.29 1281.12" stroke="black" stroke-width="4" fill="none" stroke-linecap="round" stroke-linejoin="round"/>
  <path d="M 1515.80 1276.88 L 1500.00 1275.40" stroke="black" stroke-width="4" fill="none" stroke-linecap="round" stroke-linejoin="round"/>
  <path d="M 1484.20 1276.88 L 1470.71 1281.12" stroke="black" stroke-width="4" fill="none" stroke-linecap="round" stroke-linejoin="round"/>
  <path d="M 1461.67 1287.49 L 1458.46 1295.01 L 1461.52 1302.55" stroke="black" stroke-width="4" fill="none" stroke-linecap="round" stroke-linejoin="round"/>
  <path d="M 1470.50 1309.00 L 1484.05 1313.32" stroke="black" stroke-width="4" fill="none" stroke-linecap="round" stroke-linejoin="round"/>
  <path d="M 1500.00 1314.82 L 1515.95 1313.32" stroke="black" stroke-width="4" fill="none" stroke-linecap="round" stroke-linejoin="round"/>
  <path d="M 1441.03 1256.46 L 1444.25 1249.09 L 1441.26 1241.76 L 1432.49 1235.53 L 1419.27 1231.40 L 1403.70 1229.96 L 1388.06 1231.40 L 1374.62 1235.53 L 1365.53 1241.76 L 1362.16 1249.09 L 1365.00 1256.46 L 1373.71 1262.75 L 1386.99 1266.96 L 1402.71 1268.42 L 1418.50 1266.96 L 1432.00 1262.75 L 1441.03 1256.46" stroke="black" stroke-width="4" fill="none" stroke-linecap="round" stroke-linejoin="round"/>
  <path d="M 1402.71 1268.42 L 1418.50 1266.96 L 1432.00 1262.75" stroke="black" stroke-width="4" fill="none" stroke-linecap="round" stroke-linejoin="round"/>
  <path d="M 1432.49 1235.53 L 1419.27 1231.40 L 1403.70 1229.96" stroke="black" stroke-width="4" fill="none" stroke-linecap="round" stroke-linejoin="round"/>
  <path d="M 1374.62 1235.53 L 1365.53 1241.76 L 1362.16 1249.09 L 1365.00 1256.46 L 1373.71 1262.75" stroke="black" stroke-width="4" fill="none" stroke-linecap="round" stroke-linejoin="round"/>
  <path d="M 1641.89 1447.90 L 1644.85 1439.76 L 1641.30 1431.67 L 1631.73 1424.79 L 1617.61 1420.23 L 1601.18 1418.64 L 1584.82 1420.23 L 1570.93 1424.79 L 1561.72 1431.67 L 1558.59 1439.76 L 1561.97 1447.90 L 1571.48 1454.85 L 1585.67 1459.50 L 1602.27 1461.12 L 1618.79 1459.50 L 1632.74 1454.85 L 1641.89 1447.90" stroke="black" stroke-width="4" fill="none" stroke-linecap="round" stroke-linejoin="round"/>
  <path d="M 1558.59 1439.76 L 1558.47 1464.75 L 1561.85 1472.92 L 1571.33 1479.90 L 1585.49 1484.57 L 1602.06 1486.20 L 1618.54 1484.57 L 1632.47 1479.90 L 1641.59 1472.92 L 1644.55 1464.75 L 1644.85 1439.76" stroke="black" stroke-width="4" fill="none" stroke-linecap="round" stroke-linejoin="round"/>
  <path d="M 1602.27 1461.12 L 1618.79 1459.50 L 1632.74 1454.85 L 1618.79 1459.50 L 1602.27 1461.12 L 1585.67 1459.50 L 1571.48 1454.85 L 1561.97 1447.90 L 1558.59 1439.76 L 1561.72 1431.67 L 1570.93 1424.79 L 1584.82 1420.23 L 1601.18 1418.64 L 1617.61 1420.23 L 1631.73 1424.79 L 1641.30 1431.67 L 1644.85 1439.76 L 1641.89 1447.90 L 1632.74 1454.85" stroke="black" stroke-width="4" fill="none" stroke-linecap="round" stroke-linejoin="round"/>
  <path d="M 1631.73 1424.79 L 1617.61 1420.23 L 1601.18 1418.64" stroke="black" stroke-width="4" fill="none" stroke-linecap="round" stroke-linejoin="round"/>
  <path d="M 1570.93 1424.79 L 1561.72 1431.67 L 1558.59 1439.76 L 1561.97 1447.90 L 1571.48 1454.85" stroke="black" stroke-width="4" fill="none" stroke-linecap="round" stroke-linejoin="round"/>
  <path d="M 1539.45 1398.23 L 1542.59 1390.30 L 1539.29 1382.40 L 1530.02 1375.70 L 1516.19 1371.25 L 1500.00 1369.70 L 1483.81 1371.25 L 1469.98 1375.70 L 1460.71 1382.40 L 1457.41 1390.30 L 1460.55 1398.23 L 1469.75 1405.01 L 1483.65 1409.54 L 1500.00 1411.12 L 1516.35 1409.54 L 1530.25 1405.01 L 1539.45 1398.23 L 1530.25 1405.01 L 1516.35 1409.54 L 1500.00 1411.12 L 1483.65 1409.54 L 1469.75 1405.01 L 1460.55 1398.23 L 1457.41 1390.30 L 1460.71 1382.40 L 1469.98 1375.70 L 1483.81 1371.25 L 1500.00 1369.70 L 1516.19 1371.25 L 1530.02 1375.70 L 1539.29 1382.40 L 1542.59 1390.30 L 1539.45 1398.23 L 1530.25 1405.01" stroke="black" stroke-width="4" fill="none" stroke-linecap="round" stroke-linejoin="round"/>
  <path d="M 1457.41 1390.30 L 1457.50 1415.08 L 1460.63 1423.04 L 1469.82 1429.85 L 1483.68 1434.40 L 1500.00 1435.99 L 1516.32 1434.40 L 1530.18 1429.85 L 1539.37 1423.04 L 1542.50 1415.08 L 1542.59 1390.30" stroke="black" stroke-width="4" fill="none" stroke-linecap="round" stroke-linejoin="round"/>
  <path d="M 1539.29 1382.40 L 1530.02 1375.70" stroke="black" stroke-width="4" fill="none" stroke-linecap="round" stroke-linejoin="round"/>
  <path d="M 1516.19 1371.25 L 1500.00 1369.70" stroke="black" stroke-width="4" fill="none" stroke-linecap="round" stroke-linejoin="round"/>
  <path d="M 1483.81 1371.25 L 1469.98 1375.70" stroke="black" stroke-width="4" fill="none" stroke-linecap="round" stroke-linejoin="round"/>
  <path d="M 1460.71 1382.40 L 1457.41 1390.30 L 1460.55 1398.23" stroke="black" stroke-width="4" fill="none" stroke-linecap="round" stroke-linejoin="round"/>
  <path d="M 1469.75 1405.01 L 1483.65 1409.54" stroke="black" stroke-width="4" fill="none" stroke-linecap="round" stroke-linejoin="round"/>
  <path d="M 1500.00 1411.12 L 1516.35 1409.54" stroke="black" stroke-width="4" fill="none" stroke-linecap="round" stroke-linejoin="round"/>
  <path d="M 1439.57 1349.80 L 1442.86 1342.06 L 1439.81 1334.36 L 1430.82 1327.82 L 1417.28 1323.48 L 1401.32 1321.97 L 1385.29 1323.48 L 1371.52 1327.82 L 1362.20 1334.36 L 1358.74 1342.06 L 1361.64 1349.80 L 1370.56 1356.41 L 1384.17 1360.83 L 1400.28 1362.37 L 1416.47 1360.83 L 1430.30 1356.41 L 1439.57 1349.80 L 1430.30 1356.41" stroke="black" stroke-width="4" fill="none" stroke-linecap="round" stroke-linejoin="round"/>
  <path d="M 1361.64 1349.80 L 1358.74 1342.06 L 1362.20 1334.36 L 1362.20 1334.36 L 1371.52 1327.82 L 1385.29 1323.48 L 1401.32 1321.97 L 1417.28 1323.48 L 1430.82 1327.82 L 1439.81 1334.36 L 1442.86 1342.06 L 1439.57 1349.80 L 1430.30 1356.41 L 1416.47 1360.83 L 1400.28 1362.37 L 1384.17 1360.83 L 1370.56 1356.41 L 1361.64 1349.80 L 1358.74 1342.06 L 1359.03 1366.63 L 1361.92 1374.40 L 1370.83 1381.04 L 1384.41 1385.48 L 1400.48 1387.02 L 1416.64 1385.48 L 1430.44 1381.04 L 1439.69 1374.40 L 1442.98 1366.63 L 1442.86 1342.06" stroke="black" stroke-width="4" fill="none" stroke-linecap="round" stroke-linejoin="round"/>
  <path d="M 1439.81 1334.36 L 1430.82 1327.82" stroke="black" stroke-width="4" fill="none" stroke-linecap="round" stroke-linejoin="round"/>
  <path d="M 1417.28 1323.48 L 1401.32 1321.97" stroke="black" stroke-width="4" fill="none" stroke-linecap="round" stroke-linejoin="round"/>
  <path d="M 1385.29 1323.48 L 1371.52 1327.82" stroke="black" stroke-width="4" fill="none" stroke-linecap="round" stroke-linejoin="round"/>
  <path d="M 1370.56 1356.41 L 1384.17 1360.83" stroke="black" stroke-width="4" fill="none" stroke-linecap="round" stroke-linejoin="round"/>
  <path d="M 1400.28 1362.37 L 1416.47 1360.83" stroke="black" stroke-width="4" fill="none" stroke-linecap="round" stroke-linejoin="round"/>
  <path d="M 1342.13 1302.55 L 1345.58 1295.01 L 1342.76 1287.49 L 1334.04 1281.12 L 1320.77 1276.88 L 1305.05 1275.40 L 1289.18 1276.88 L 1275.47 1281.12 L 1266.09 1287.49 L 1262.49 1295.01 L 1265.16 1302.55 L 1273.81 1309.00 L 1287.14 1313.32 L 1303.01 1314.82 L 1319.04 1313.32 L 1332.82 1309.00 L 1342.13 1302.55" stroke="black" stroke-width="4" fill="none" stroke-linecap="round" stroke-linejoin="round"/>
  <path d="M 1600.29 1810.11 L 1793.50 1704.68 L 1797.06 1561.64 L 1601.54 1664.74 L 1210.12 1463.52 L 1213.51 1604.30 L 1600.29 1810.11 L 1601.54 1664.74 L 1210.12 1463.52 L 1206.64 1319.37 L 1263.33 1293.27 L 1262.97 1319.37 L 1265.63 1326.95 L 1274.27 1333.43 L 1287.57 1337.76 L 1303.41 1339.27 L 1319.41 1337.76 L 1333.15 1333.43 L 1342.45 1326.95 L 1345.89 1319.37 L 1345.58 1295.01" stroke="black" stroke-width="4" fill="none" stroke-linecap="round" stroke-linejoin="round"/>
  <path d="M 1303.01 1314.82 L 1319.04 1313.32 L 1332.82 1309.00 L 1319.04 1313.32 L 1303.01 1314.82 L 1287.14 1313.32 L 1273.81 1309.00 L 1265.16 1302.55 L 1262.49 1295.01 L 1266.09 1287.49 L 1275.47 1281.12 L 1289.18 1276.88 L 1305.05 1275.40 L 1320.77 1276.88 L 1334.04 1281.12 L 1342.76 1287.49 L 1345.58 1295.01 L 1342.13 1302.55 L 1332.82 1309.00" stroke="black" stroke-width="4" fill="none" stroke-linecap="round" stroke-linejoin="round"/>
  <path d="M 1334.04 1281.12 L 1320.77 1276.88 L 1305.05 1275.40" stroke="black" stroke-width="4" fill="none" stroke-linecap="round" stroke-linejoin="round"/>
  <path d="M 1275.47 1281.12 L 1266.09 1287.49 L 1262.49 1295.01 L 1265.16 1302.55 L 1273.81 1309.00" stroke="black" stroke-width="4" fill="none" stroke-linecap="round" stroke-linejoin="round"/>
  <path d="M 1206.64 1319.37 L 1602.82 1515.71 L 1800.71 1415.08 L 1742.14 1387.45" stroke="black" stroke-width="4" fill="none" stroke-linecap="round" stroke-linejoin="round"/>
  <path d="M 1602.82 1515.71 L 1601.54 1664.74 L 1210.12 1463.52 L 1601.54 1664.74 L 1797.06 1561.64 L 1601.54 1664.74 L 1797.06 1561.64 L 1800.71 1415.08" stroke="black" stroke-width="4" fill="none" stroke-linecap="round" stroke-linejoin="round"/>
  <path d="M 1657.97 1415.08 L 1661.51 1423.04 L 1671.05 1429.85 L 1685.15 1434.40 L 1701.55 1435.99 L 1717.78 1434.40 L 1731.42 1429.85 L 1740.26 1423.04 L 1742.98 1415.08" stroke="black" stroke-width="4" fill="none" stroke-linecap="round" stroke-linejoin="round"/>
  <path d="M 1557.02 1366.63 L 1560.31 1374.40 L 1569.56 1381.04 L 1583.36 1385.48 L 1599.52 1387.02 L 1615.59 1385.48 L 1629.17 1381.04 L 1638.08 1374.40 L 1640.97 1366.63" stroke="black" stroke-width="4" fill="none" stroke-linecap="round" stroke-linejoin="round"/>
  <path d="M 1458.54 1319.37 L 1461.59 1326.95 L 1470.56 1333.43 L 1478.95 1336.12 L 1484.08 1337.76 L 1500.00 1339.27 L 1515.92 1337.76 L 1529.44 1333.43 L 1538.41 1326.95 L 1541.46 1319.37" stroke="black" stroke-width="4" fill="none" stroke-linecap="round" stroke-linejoin="round"/>
  <path d="M 1362.44 1273.25 L 1365.26 1280.65 L 1373.96 1286.97 L 1387.21 1291.20 L 1402.90 1292.67 L 1418.66 1291.20 L 1432.13 1286.97 L 1440.85 1280.86 L 1444.36 1273.25" stroke="black" stroke-width="4" fill="none" stroke-linecap="round" stroke-linejoin="round"/>
  <path d="M 1364.85 1243.23 L 1365.53 1241.76 L 1374.62 1235.53 L 1388.06 1231.40 L 1403.70 1229.96 L 1419.27 1231.40 L 1432.49 1235.53 L 1441.26 1241.76 L 1444.25 1249.09 L 1441.03 1256.46 L 1432.00 1262.75 L 1418.50 1266.96 L 1402.71 1268.42 L 1386.99 1266.96 L 1373.71 1262.75 L 1365.00 1256.46 L 1362.16 1249.09" stroke="black" stroke-width="4" fill="none" stroke-linecap="round" stroke-linejoin="round"/>
  <path d="M 1558.47 1464.75 L 1561.85 1472.92 L 1571.33 1479.90 L 1580.12 1482.80 L 1585.49 1484.57 L 1602.06 1486.20 L 1618.54 1484.57 L 1632.47 1479.90 L 1641.59 1472.92 L 1644.55 1464.75 L 1641.77 1458.35" stroke="black" stroke-width="4" fill="none" stroke-linecap="round" stroke-linejoin="round"/>
  <path d="M 1542.50 1415.08 L 1539.37 1423.04 L 1539.06 1423.27 L 1530.18 1429.85 L 1516.32 1434.40 L 1500.00 1435.99 L 1483.68 1434.40 L 1469.82 1429.85 L 1460.63 1423.04 L 1457.50 1415.08" stroke="black" stroke-width="4" fill="none" stroke-linecap="round" stroke-linejoin="round"/>
  <path d="M 1359.03 1366.63 L 1361.92 1374.40 L 1370.83 1381.04 L 1384.41 1385.48 L 1400.48 1387.02 L 1416.64 1385.48 L 1430.44 1381.04 L 1439.69 1374.40 L 1442.98 1366.63" stroke="black" stroke-width="4" fill="none" stroke-linecap="round" stroke-linejoin="round"/>
  <path d="M 1262.97 1319.37 L 1265.63 1326.95 L 1274.27 1333.43 L 1287.57 1337.76 L 1303.41 1339.27 L 1319.41 1337.76 L 1333.15 1333.43 L 1342.45 1326.95 L 1345.89 1319.37" stroke="black" stroke-width="4" fill="none" stroke-linecap="round" stroke-linejoin="round"/>
</svg>
