<?xml version="1.0" ?>
<svg xmlns="http://www.w3.org/2000/svg" version="1.1" width="653.42px" height="3000px" viewBox="1177.11 0 653.42 3000">
  <polygon points="1403.73,1438.13 1204.24,1535.23 1603.56,1744.13 1803.04,1637.11" fill="#e2f999" stroke="#e2f999" stroke-width="0.5" stroke-linecap="round" stroke-linejoin="round"/>
  <polygon points="1357.69,1167.52 1357.98,1192.61 1360.89,1200.10 1360.62,1174.97" fill="#f7ad63" stroke="#f7ad63" stroke-width="0.5" stroke-linecap="round" stroke-linejoin="round"/>
  <polygon points="1439.12,1174.97 1439.24,1200.10 1442.55,1192.61 1442.44,1167.52" fill="#f7ad63" stroke="#f7ad63" stroke-width="0.5" stroke-linecap="round" stroke-linejoin="round"/>
  <polygon points="1439.12,1174.97 1442.44,1167.52 1439.36,1160.09 1430.30,1153.79 1416.65,1149.60 1400.58,1148.15 1384.43,1149.60 1370.56,1153.79 1361.17,1160.09 1357.69,1167.52 1360.62,1174.97 1369.61,1181.34 1383.32,1185.60 1399.55,1187.09 1415.85,1185.60 1429.79,1181.34" fill="#f7ad63" stroke="#f7ad63" stroke-width="0.5" stroke-linecap="round" stroke-linejoin="round"/>
  <polygon points="1429.79,1181.34 1429.93,1206.50 1439.24,1200.10 1439.12,1174.97" fill="#f7ad63" stroke="#f7ad63" stroke-width="0.5" stroke-linecap="round" stroke-linejoin="round"/>
  <polygon points="1360.62,1174.97 1360.89,1200.10 1369.87,1206.50 1369.61,1181.34" fill="#f7ad63" stroke="#f7ad63" stroke-width="0.5" stroke-linecap="round" stroke-linejoin="round"/>
  <polygon points="1415.85,1185.60 1416.02,1210.78 1429.93,1206.50 1429.79,1181.34" fill="#f7ad63" stroke="#f7ad63" stroke-width="0.5" stroke-linecap="round" stroke-linejoin="round"/>
  <polygon points="1369.61,1181.34 1369.87,1206.50 1383.55,1210.78 1383.32,1185.60" fill="#f7ad63" stroke="#f7ad63" stroke-width="0.5" stroke-linecap="round" stroke-linejoin="round"/>
  <polygon points="1383.32,1185.60 1383.55,1210.78 1399.75,1212.27 1399.55,1187.09" fill="#f7ad63" stroke="#f7ad63" stroke-width="0.5" stroke-linecap="round" stroke-linejoin="round"/>
  <polygon points="1399.55,1187.09 1399.75,1212.27 1416.02,1210.78 1415.85,1185.60" fill="#f7ad63" stroke="#f7ad63" stroke-width="0.5" stroke-linecap="round" stroke-linejoin="round"/>
  <polygon points="1602.30,1891.50 1603.56,1744.13 1204.24,1535.23 1207.68,1678.02" fill="#e2f999" stroke="#e2f999" stroke-width="0.5" stroke-linecap="round" stroke-linejoin="round"/>
  <polygon points="1402.61,1294.27 1200.72,1389.03 1604.86,1593.08 1806.74,1488.51" fill="#a5c916" stroke="#a5c916" stroke-width="0.5" stroke-linecap="round" stroke-linejoin="round"/>
  <polygon points="1539.74,1221.64 1539.66,1246.98 1542.81,1239.31 1542.89,1214.00" fill="#f7ad63" stroke="#f7ad63" stroke-width="0.5" stroke-linecap="round" stroke-linejoin="round"/>
  <polygon points="1254.77,1214.00 1255.26,1239.31 1258.01,1246.98 1257.52,1221.64" fill="#f7ad63" stroke="#f7ad63" stroke-width="0.5" stroke-linecap="round" stroke-linejoin="round"/>
  <polygon points="1337.00,1221.64 1337.33,1246.98 1340.88,1239.31 1340.56,1214.00" fill="#f7ad63" stroke="#f7ad63" stroke-width="0.5" stroke-linecap="round" stroke-linejoin="round"/>
  <polygon points="1457.11,1214.00 1457.19,1239.31 1460.34,1246.98 1460.26,1221.64" fill="#f7ad63" stroke="#f7ad63" stroke-width="0.5" stroke-linecap="round" stroke-linejoin="round"/>
  <polygon points="1500.00,1234.06 1516.47,1232.54 1530.46,1228.17 1539.74,1221.64 1542.89,1214.00 1539.58,1206.39 1530.24,1199.94 1516.31,1195.64 1500.00,1194.15 1483.69,1195.64 1469.76,1199.94 1460.42,1206.39 1457.11,1214.00 1460.26,1221.64 1469.54,1228.17 1483.53,1232.54" fill="#f7ad63" stroke="#f7ad63" stroke-width="0.5" stroke-linecap="round" stroke-linejoin="round"/>
  <polygon points="1254.77,1214.00 1257.52,1221.64 1266.45,1228.17 1280.22,1232.54 1296.60,1234.06 1313.15,1232.54 1327.38,1228.17 1337.00,1221.64 1340.56,1214.00 1337.65,1206.39 1328.65,1199.94 1314.95,1195.64 1298.72,1194.15 1282.33,1195.64 1268.17,1199.94 1258.49,1206.39" fill="#f7ad63" stroke="#f7ad63" stroke-width="0.5" stroke-linecap="round" stroke-linejoin="round"/>
  <polygon points="1257.52,1221.64 1258.01,1246.98 1266.92,1253.54 1266.45,1228.17" fill="#f7ad63" stroke="#f7ad63" stroke-width="0.5" stroke-linecap="round" stroke-linejoin="round"/>
  <polygon points="1460.26,1221.64 1460.34,1246.98 1469.60,1253.54 1469.54,1228.17" fill="#f7ad63" stroke="#f7ad63" stroke-width="0.5" stroke-linecap="round" stroke-linejoin="round"/>
  <polygon points="1530.46,1228.17 1530.40,1253.54 1539.66,1246.98 1539.74,1221.64" fill="#f7ad63" stroke="#f7ad63" stroke-width="0.5" stroke-linecap="round" stroke-linejoin="round"/>
  <polygon points="1327.38,1228.17 1327.73,1253.54 1337.33,1246.98 1337.00,1221.64" fill="#f7ad63" stroke="#f7ad63" stroke-width="0.5" stroke-linecap="round" stroke-linejoin="round"/>
  <polygon points="1266.45,1228.17 1266.92,1253.54 1280.66,1257.93 1280.22,1232.54" fill="#f7ad63" stroke="#f7ad63" stroke-width="0.5" stroke-linecap="round" stroke-linejoin="round"/>
  <polygon points="1516.47,1232.54 1516.44,1257.93 1530.40,1253.54 1530.46,1228.17" fill="#f7ad63" stroke="#f7ad63" stroke-width="0.5" stroke-linecap="round" stroke-linejoin="round"/>
  <polygon points="1469.54,1228.17 1469.60,1253.54 1483.56,1257.93 1483.53,1232.54" fill="#f7ad63" stroke="#f7ad63" stroke-width="0.5" stroke-linecap="round" stroke-linejoin="round"/>
  <polygon points="1313.15,1232.54 1313.53,1257.93 1327.73,1253.54 1327.38,1228.17" fill="#f7ad63" stroke="#f7ad63" stroke-width="0.5" stroke-linecap="round" stroke-linejoin="round"/>
  <polygon points="1280.22,1232.54 1280.66,1257.93 1297.01,1259.46 1296.60,1234.06" fill="#f7ad63" stroke="#f7ad63" stroke-width="0.5" stroke-linecap="round" stroke-linejoin="round"/>
  <polygon points="1500.00,1234.06 1500.00,1259.46 1516.44,1257.93 1516.47,1232.54" fill="#f7ad63" stroke="#f7ad63" stroke-width="0.5" stroke-linecap="round" stroke-linejoin="round"/>
  <polygon points="1296.60,1234.06 1297.01,1259.46 1313.53,1257.93 1313.15,1232.54" fill="#f7ad63" stroke="#f7ad63" stroke-width="0.5" stroke-linecap="round" stroke-linejoin="round"/>
  <polygon points="1483.53,1232.54 1483.56,1257.93 1500.00,1259.46 1500.00,1234.06" fill="#f7ad63" stroke="#f7ad63" stroke-width="0.5" stroke-linecap="round" stroke-linejoin="round"/>
  <polygon points="1603.56,1744.13 1604.86,1593.08 1200.72,1389.03 1204.24,1535.23" fill="#a5c916" stroke="#a5c916" stroke-width="0.5" stroke-linecap="round" stroke-linejoin="round"/>
  <polygon points="1803.04,1637.11 1603.56,1744.13 1602.30,1891.50 1799.43,1782.16" fill="#e2f999" stroke="#e2f999" stroke-width="0.5" stroke-linecap="round" stroke-linejoin="round"/>
  <polygon points="1401.46,1147.03 1197.11,1239.31 1606.19,1438.19 1810.53,1336.24" fill="#f7ad63" stroke="#f7ad63" stroke-width="0.5" stroke-linecap="round" stroke-linejoin="round"/>
  <polygon points="1354.14,1261.64 1354.44,1287.17 1357.42,1295.03 1357.13,1269.48" fill="#f7ad63" stroke="#f7ad63" stroke-width="0.5" stroke-linecap="round" stroke-linejoin="round"/>
  <polygon points="1437.60,1269.48 1437.72,1295.03 1441.12,1287.17 1441.00,1261.64" fill="#f7ad63" stroke="#f7ad63" stroke-width="0.5" stroke-linecap="round" stroke-linejoin="round"/>
  <polygon points="1642.87,1269.48 1642.58,1295.03 1645.56,1287.17 1645.86,1261.64" fill="#f7ad63" stroke="#f7ad63" stroke-width="0.5" stroke-linecap="round" stroke-linejoin="round"/>
  <polygon points="1559.00,1261.64 1558.88,1287.17 1562.28,1295.03 1562.40,1269.48" fill="#f7ad63" stroke="#f7ad63" stroke-width="0.5" stroke-linecap="round" stroke-linejoin="round"/>
  <polygon points="1602.97,1282.21 1619.61,1280.65 1633.66,1276.17 1642.87,1269.48 1645.86,1261.64 1642.29,1253.85 1632.66,1247.23 1618.44,1242.83 1601.89,1241.30 1585.42,1242.83 1571.43,1247.23 1562.15,1253.85 1559.00,1261.64 1562.40,1269.48 1571.97,1276.17 1586.26,1280.65" fill="#f7ad63" stroke="#f7ad63" stroke-width="0.5" stroke-linecap="round" stroke-linejoin="round"/>
  <polygon points="1357.71,1253.85 1354.14,1261.64 1357.13,1269.48 1366.34,1276.17 1380.39,1280.65 1397.03,1282.21 1413.74,1280.65 1428.03,1276.17 1437.60,1269.48 1441.00,1261.64 1437.85,1253.85 1428.57,1247.23 1414.58,1242.83 1398.11,1241.30 1381.56,1242.83 1367.34,1247.23" fill="#f7ad63" stroke="#f7ad63" stroke-width="0.5" stroke-linecap="round" stroke-linejoin="round"/>
  <polygon points="1357.13,1269.48 1357.42,1295.03 1366.61,1301.76 1366.34,1276.17" fill="#f7ad63" stroke="#f7ad63" stroke-width="0.5" stroke-linecap="round" stroke-linejoin="round"/>
  <polygon points="1428.03,1276.17 1428.18,1301.76 1437.72,1295.03 1437.60,1269.48" fill="#f7ad63" stroke="#f7ad63" stroke-width="0.5" stroke-linecap="round" stroke-linejoin="round"/>
  <polygon points="1562.40,1269.48 1562.28,1295.03 1571.82,1301.76 1571.97,1276.17" fill="#f7ad63" stroke="#f7ad63" stroke-width="0.5" stroke-linecap="round" stroke-linejoin="round"/>
  <polygon points="1633.66,1276.17 1633.39,1301.76 1642.58,1295.03 1642.87,1269.48" fill="#f7ad63" stroke="#f7ad63" stroke-width="0.5" stroke-linecap="round" stroke-linejoin="round"/>
  <polygon points="1413.74,1280.65 1413.92,1306.26 1428.18,1301.76 1428.03,1276.17" fill="#f7ad63" stroke="#f7ad63" stroke-width="0.5" stroke-linecap="round" stroke-linejoin="round"/>
  <polygon points="1366.34,1276.17 1366.61,1301.76 1380.64,1306.26 1380.39,1280.65" fill="#f7ad63" stroke="#f7ad63" stroke-width="0.5" stroke-linecap="round" stroke-linejoin="round"/>
  <polygon points="1571.97,1276.17 1571.82,1301.76 1586.08,1306.26 1586.26,1280.65" fill="#f7ad63" stroke="#f7ad63" stroke-width="0.5" stroke-linecap="round" stroke-linejoin="round"/>
  <polygon points="1619.61,1280.65 1619.36,1306.26 1633.39,1301.76 1633.66,1276.17" fill="#f7ad63" stroke="#f7ad63" stroke-width="0.5" stroke-linecap="round" stroke-linejoin="round"/>
  <polygon points="1397.03,1282.21 1397.24,1307.82 1413.92,1306.26 1413.74,1280.65" fill="#f7ad63" stroke="#f7ad63" stroke-width="0.5" stroke-linecap="round" stroke-linejoin="round"/>
  <polygon points="1602.97,1282.21 1602.76,1307.82 1619.36,1306.26 1619.61,1280.65" fill="#f7ad63" stroke="#f7ad63" stroke-width="0.5" stroke-linecap="round" stroke-linejoin="round"/>
  <polygon points="1586.26,1280.65 1586.08,1306.26 1602.76,1307.82 1602.97,1282.21" fill="#f7ad63" stroke="#f7ad63" stroke-width="0.5" stroke-linecap="round" stroke-linejoin="round"/>
  <polygon points="1380.39,1280.65 1380.64,1306.26 1397.24,1307.82 1397.03,1282.21" fill="#f7ad63" stroke="#f7ad63" stroke-width="0.5" stroke-linecap="round" stroke-linejoin="round"/>
  <polygon points="1604.86,1593.08 1606.19,1438.19 1197.11,1239.31 1200.72,1389.03" fill="#f7ad63" stroke="#f7ad63" stroke-width="0.5" stroke-linecap="round" stroke-linejoin="round"/>
  <polygon points="1806.74,1488.51 1604.86,1593.08 1603.56,1744.13 1803.04,1637.11" fill="#a5c916" stroke="#a5c916" stroke-width="0.5" stroke-linecap="round" stroke-linejoin="round"/>
  <polygon points="1540.74,1318.52 1540.66,1344.31 1543.89,1336.24 1543.98,1310.49" fill="#f7ad63" stroke="#f7ad63" stroke-width="0.5" stroke-linecap="round" stroke-linejoin="round"/>
  <polygon points="1748.62,1318.52 1748.11,1344.31 1750.91,1336.24 1751.43,1310.49" fill="#f7ad63" stroke="#f7ad63" stroke-width="0.5" stroke-linecap="round" stroke-linejoin="round"/>
  <polygon points="1456.02,1310.49 1456.11,1336.24 1459.34,1344.31 1459.26,1318.52" fill="#f7ad63" stroke="#f7ad63" stroke-width="0.5" stroke-linecap="round" stroke-linejoin="round"/>
  <polygon points="1663.47,1310.49 1663.13,1336.24 1666.79,1344.31 1667.13,1318.52" fill="#f7ad63" stroke="#f7ad63" stroke-width="0.5" stroke-linecap="round" stroke-linejoin="round"/>
  <polygon points="1459.42,1302.50 1456.02,1310.49 1459.26,1318.52 1468.76,1325.39 1483.11,1329.98 1500.00,1331.58 1516.89,1329.98 1531.24,1325.39 1540.74,1318.52 1543.98,1310.49 1540.58,1302.50 1531.00,1295.71 1516.72,1291.20 1500.00,1289.63 1483.28,1291.20 1469.00,1295.71" fill="#f7ad63" stroke="#f7ad63" stroke-width="0.5" stroke-linecap="round" stroke-linejoin="round"/>
  <polygon points="1677.00,1325.39 1691.60,1329.98 1708.57,1331.58 1725.37,1329.98 1739.48,1325.39 1748.62,1318.52 1751.43,1310.49 1747.60,1302.50 1737.67,1295.71 1723.15,1291.20 1706.34,1289.63 1689.71,1291.20 1675.67,1295.71 1666.45,1302.50 1663.47,1310.49 1667.13,1318.52" fill="#f7ad63" stroke="#f7ad63" stroke-width="0.5" stroke-linecap="round" stroke-linejoin="round"/>
  <polygon points="1459.26,1318.52 1459.34,1344.31 1468.83,1351.20 1468.76,1325.39" fill="#f7ad63" stroke="#f7ad63" stroke-width="0.5" stroke-linecap="round" stroke-linejoin="round"/>
  <polygon points="1739.48,1325.39 1738.98,1351.20 1748.11,1344.31 1748.62,1318.52" fill="#f7ad63" stroke="#f7ad63" stroke-width="0.5" stroke-linecap="round" stroke-linejoin="round"/>
  <polygon points="1531.24,1325.39 1531.17,1351.20 1540.66,1344.31 1540.74,1318.52" fill="#f7ad63" stroke="#f7ad63" stroke-width="0.5" stroke-linecap="round" stroke-linejoin="round"/>
  <polygon points="1667.13,1318.52 1666.79,1344.31 1676.64,1351.20 1677.00,1325.39" fill="#f7ad63" stroke="#f7ad63" stroke-width="0.5" stroke-linecap="round" stroke-linejoin="round"/>
  <polygon points="1468.76,1325.39 1468.83,1351.20 1483.15,1355.81 1483.11,1329.98" fill="#f7ad63" stroke="#f7ad63" stroke-width="0.5" stroke-linecap="round" stroke-linejoin="round"/>
  <polygon points="1516.89,1329.98 1516.85,1355.81 1531.17,1351.20 1531.24,1325.39" fill="#f7ad63" stroke="#f7ad63" stroke-width="0.5" stroke-linecap="round" stroke-linejoin="round"/>
  <polygon points="1725.37,1329.98 1724.90,1355.81 1738.98,1351.20 1739.48,1325.39" fill="#f7ad63" stroke="#f7ad63" stroke-width="0.5" stroke-linecap="round" stroke-linejoin="round"/>
  <polygon points="1677.00,1325.39 1676.64,1351.20 1691.20,1355.81 1691.60,1329.98" fill="#f7ad63" stroke="#f7ad63" stroke-width="0.5" stroke-linecap="round" stroke-linejoin="round"/>
  <polygon points="1483.11,1329.98 1483.15,1355.81 1500.00,1357.42 1500.00,1331.58" fill="#f7ad63" stroke="#f7ad63" stroke-width="0.5" stroke-linecap="round" stroke-linejoin="round"/>
  <polygon points="1691.60,1329.98 1691.20,1355.81 1708.14,1357.42 1708.57,1331.58" fill="#f7ad63" stroke="#f7ad63" stroke-width="0.5" stroke-linecap="round" stroke-linejoin="round"/>
  <polygon points="1500.00,1331.58 1500.00,1357.42 1516.85,1355.81 1516.89,1329.98" fill="#f7ad63" stroke="#f7ad63" stroke-width="0.5" stroke-linecap="round" stroke-linejoin="round"/>
  <polygon points="1708.57,1331.58 1708.14,1357.42 1724.90,1355.81 1725.37,1329.98" fill="#f7ad63" stroke="#f7ad63" stroke-width="0.5" stroke-linecap="round" stroke-linejoin="round"/>
  <polygon points="1810.53,1336.24 1606.19,1438.19 1604.86,1593.08 1806.74,1488.51" fill="#f7ad63" stroke="#f7ad63" stroke-width="0.5" stroke-linecap="round" stroke-linejoin="round"/>
  <polygon points="1560.51,1360.59 1560.38,1386.56 1563.87,1394.84 1564.01,1368.83" fill="#f7ad63" stroke="#f7ad63" stroke-width="0.5" stroke-linecap="round" stroke-linejoin="round"/>
  <polygon points="1646.54,1368.83 1646.23,1394.84 1649.28,1386.56 1649.60,1360.59" fill="#f7ad63" stroke="#f7ad63" stroke-width="0.5" stroke-linecap="round" stroke-linejoin="round"/>
  <polygon points="1564.01,1368.83 1573.82,1375.87 1588.48,1380.58 1605.63,1382.23 1622.69,1380.58 1637.10,1375.87 1646.54,1368.83 1649.60,1360.59 1645.93,1352.39 1636.05,1345.43 1621.46,1340.80 1604.49,1339.20 1587.59,1340.80 1573.26,1345.43 1563.74,1352.39 1560.51,1360.59" fill="#f7ad63" stroke="#f7ad63" stroke-width="0.5" stroke-linecap="round" stroke-linejoin="round"/>
  <polygon points="1564.01,1368.83 1563.87,1394.84 1573.67,1401.91 1573.82,1375.87" fill="#f7ad63" stroke="#f7ad63" stroke-width="0.5" stroke-linecap="round" stroke-linejoin="round"/>
  <polygon points="1637.10,1375.87 1636.81,1401.91 1646.23,1394.84 1646.54,1368.83" fill="#f7ad63" stroke="#f7ad63" stroke-width="0.5" stroke-linecap="round" stroke-linejoin="round"/>
  <polygon points="1622.69,1380.58 1622.43,1406.64 1636.81,1401.91 1637.10,1375.87" fill="#f7ad63" stroke="#f7ad63" stroke-width="0.5" stroke-linecap="round" stroke-linejoin="round"/>
  <polygon points="1573.82,1375.87 1573.67,1401.91 1588.29,1406.64 1588.48,1380.58" fill="#f7ad63" stroke="#f7ad63" stroke-width="0.5" stroke-linecap="round" stroke-linejoin="round"/>
  <polygon points="1588.48,1380.58 1588.29,1406.64 1605.40,1408.29 1605.63,1382.23" fill="#f7ad63" stroke="#f7ad63" stroke-width="0.5" stroke-linecap="round" stroke-linejoin="round"/>
  <polygon points="1605.63,1382.23 1605.40,1408.29 1622.43,1406.64 1622.69,1380.58" fill="#f7ad63" stroke="#f7ad63" stroke-width="0.5" stroke-linecap="round" stroke-linejoin="round"/>
  <path d="M 1207.68 1678.02 L 1602.30 1891.50 L 1799.43 1782.16 L 1803.04 1637.11 L 1603.56 1744.13 L 1602.30 1891.50 L 1799.43 1782.16 L 1803.04 1637.11 L 1603.56 1744.13 L 1204.24 1535.23 L 1207.68 1678.02 L 1602.30 1891.50 L 1603.56 1744.13 L 1204.24 1535.23 L 1207.68 1678.02" stroke="black" stroke-width="4" fill="none" stroke-linecap="round" stroke-linejoin="round"/>
  <path d="M 1204.24 1535.23 L 1603.56 1744.13 L 1803.04 1637.11 L 1806.74 1488.51 L 1604.86 1593.08 L 1603.56 1744.13 L 1803.04 1637.11 L 1806.74 1488.51 L 1604.86 1593.08 L 1200.72 1389.03 L 1204.24 1535.23 L 1603.56 1744.13 L 1604.86 1593.08 L 1200.72 1389.03 L 1204.24 1535.23" stroke="black" stroke-width="4" fill="none" stroke-linecap="round" stroke-linejoin="round"/>
  <path d="M 1200.72 1389.03 L 1604.86 1593.08 L 1806.74 1488.51 L 1810.53 1336.24 L 1606.19 1438.19 L 1604.86 1593.08 L 1806.74 1488.51 L 1810.53 1336.24 L 1750.45 1308.45 L 1810.53 1336.24 L 1606.19 1438.19 L 1197.11 1239.31 L 1255.23 1213.06 L 1197.11 1239.31 L 1200.72 1389.03 L 1604.86 1593.08 L 1606.19 1438.19 L 1197.11 1239.31 L 1200.72 1389.03" stroke="black" stroke-width="4" fill="none" stroke-linecap="round" stroke-linejoin="round"/>
  <path d="M 1710.63 1290.03 L 1644.95 1259.65 L 1710.63 1290.03 L 1644.95 1259.65" stroke="black" stroke-width="4" fill="none" stroke-linecap="round" stroke-linejoin="round"/>
  <path d="M 1606.12 1241.69 L 1542.05 1212.06 L 1606.12 1241.69 L 1542.05 1212.06" stroke="black" stroke-width="4" fill="none" stroke-linecap="round" stroke-linejoin="round"/>
  <path d="M 1504.16 1194.53 L 1441.65 1165.62 L 1504.16 1194.53 L 1441.65 1165.62" stroke="black" stroke-width="4" fill="none" stroke-linecap="round" stroke-linejoin="round"/>
  <path d="M 1404.68 1148.52 L 1401.46 1147.03 L 1398.59 1148.33 L 1401.46 1147.03 L 1404.68 1148.52 L 1401.46 1147.03 L 1398.59 1148.33 L 1416.65 1149.60 L 1430.30 1153.79" stroke="black" stroke-width="4" fill="none" stroke-linecap="round" stroke-linejoin="round"/>
  <path d="M 1296.70 1194.34 L 1358.12 1166.60 L 1296.70 1194.34 L 1358.12 1166.60 L 1357.98 1192.61 L 1360.89 1200.10 L 1369.87 1206.50 L 1383.55 1210.78 L 1399.75 1212.27 L 1416.02 1210.78 L 1429.93 1206.50 L 1439.24 1200.10 L 1442.55 1192.61 L 1442.44 1167.52" stroke="black" stroke-width="4" fill="none" stroke-linecap="round" stroke-linejoin="round"/>
  <path d="M 1748.62 1318.52 L 1751.43 1310.49 L 1747.60 1302.50 L 1737.67 1295.71 L 1723.15 1291.20 L 1706.34 1289.63 L 1689.71 1291.20 L 1675.67 1295.71 L 1666.45 1302.50 L 1663.47 1310.49 L 1667.13 1318.52 L 1677.00 1325.39 L 1691.60 1329.98 L 1708.57 1331.58 L 1725.37 1329.98 L 1739.48 1325.39 L 1748.62 1318.52" stroke="black" stroke-width="4" fill="none" stroke-linecap="round" stroke-linejoin="round"/>
  <path d="M 1663.47 1310.49 L 1663.13 1336.24 L 1666.79 1344.31 L 1676.64 1351.20 L 1691.20 1355.81 L 1708.14 1357.42 L 1724.90 1355.81 L 1738.98 1351.20 L 1748.11 1344.31 L 1750.91 1336.24 L 1751.43 1310.49" stroke="black" stroke-width="4" fill="none" stroke-linecap="round" stroke-linejoin="round"/>
  <path d="M 1708.57 1331.58 L 1725.37 1329.98 L 1739.48 1325.39 L 1725.37 1329.98 L 1708.57 1331.58 L 1691.60 1329.98 L 1677.00 1325.39 L 1667.13 1318.52 L 1663.47 1310.49 L 1666.45 1302.50 L 1675.67 1295.71 L 1689.71 1291.20 L 1706.34 1289.63 L 1723.15 1291.20 L 1737.67 1295.71 L 1747.60 1302.50 L 1751.43 1310.49 L 1748.62 1318.52 L 1739.48 1325.39" stroke="black" stroke-width="4" fill="none" stroke-linecap="round" stroke-linejoin="round"/>
  <path d="M 1737.67 1295.71 L 1723.15 1291.20 L 1706.34 1289.63" stroke="black" stroke-width="4" fill="none" stroke-linecap="round" stroke-linejoin="round"/>
  <path d="M 1675.67 1295.71 L 1666.45 1302.50 L 1663.47 1310.49 L 1667.13 1318.52 L 1677.00 1325.39" stroke="black" stroke-width="4" fill="none" stroke-linecap="round" stroke-linejoin="round"/>
  <path d="M 1642.87 1269.48 L 1645.86 1261.64 L 1642.29 1253.85 L 1632.66 1247.23 L 1618.44 1242.83 L 1601.89 1241.30 L 1585.42 1242.83 L 1571.43 1247.23 L 1562.15 1253.85 L 1559.00 1261.64 L 1562.40 1269.48 L 1571.97 1276.17 L 1586.26 1280.65 L 1602.97 1282.21 L 1619.61 1280.65 L 1633.66 1276.17 L 1642.87 1269.48 L 1633.66 1276.17 L 1619.61 1280.65 L 1602.97 1282.21 L 1586.26 1280.65 L 1571.97 1276.17 L 1562.40 1269.48 L 1559.00 1261.64 L 1562.15 1253.85 L 1571.43 1247.23 L 1585.42 1242.83 L 1601.89 1241.30 L 1618.44 1242.83 L 1632.66 1247.23 L 1642.29 1253.85 L 1645.86 1261.64 L 1642.87 1269.48 L 1633.66 1276.17" stroke="black" stroke-width="4" fill="none" stroke-linecap="round" stroke-linejoin="round"/>
  <path d="M 1559.00 1261.64 L 1558.88 1287.17 L 1562.28 1295.03 L 1571.82 1301.76 L 1586.08 1306.26 L 1602.76 1307.82 L 1619.36 1306.26 L 1633.39 1301.76 L 1642.58 1295.03 L 1645.56 1287.17 L 1645.86 1261.64" stroke="black" stroke-width="4" fill="none" stroke-linecap="round" stroke-linejoin="round"/>
  <path d="M 1642.29 1253.85 L 1632.66 1247.23" stroke="black" stroke-width="4" fill="none" stroke-linecap="round" stroke-linejoin="round"/>
  <path d="M 1618.44 1242.83 L 1601.89 1241.30" stroke="black" stroke-width="4" fill="none" stroke-linecap="round" stroke-linejoin="round"/>
  <path d="M 1585.42 1242.83 L 1571.43 1247.23" stroke="black" stroke-width="4" fill="none" stroke-linecap="round" stroke-linejoin="round"/>
  <path d="M 1562.15 1253.85 L 1559.00 1261.64 L 1562.40 1269.48" stroke="black" stroke-width="4" fill="none" stroke-linecap="round" stroke-linejoin="round"/>
  <path d="M 1571.97 1276.17 L 1586.26 1280.65" stroke="black" stroke-width="4" fill="none" stroke-linecap="round" stroke-linejoin="round"/>
  <path d="M 1602.97 1282.21 L 1619.61 1280.65" stroke="black" stroke-width="4" fill="none" stroke-linecap="round" stroke-linejoin="round"/>
  <path d="M 1539.74 1221.64 L 1542.89 1214.00 L 1539.58 1206.39 L 1530.24 1199.94 L 1516.31 1195.64 L 1500.00 1194.15 L 1483.69 1195.64 L 1469.76 1199.94 L 1460.42 1206.39 L 1457.11 1214.00 L 1460.26 1221.64 L 1469.54 1228.17 L 1483.53 1232.54 L 1500.00 1234.06 L 1516.47 1232.54 L 1530.46 1228.17 L 1539.74 1221.64 L 1530.46 1228.17 L 1516.47 1232.54 L 1500.00 1234.06 L 1483.53 1232.54 L 1469.54 1228.17 L 1460.26 1221.64 L 1457.11 1214.00 L 1460.42 1206.39 L 1469.76 1199.94 L 1483.69 1195.64 L 1500.00 1194.15 L 1516.31 1195.64 L 1530.24 1199.94 L 1539.58 1206.39 L 1542.89 1214.00 L 1539.74 1221.64 L 1530.46 1228.17" stroke="black" stroke-width="4" fill="none" stroke-linecap="round" stroke-linejoin="round"/>
  <path d="M 1457.11 1214.00 L 1457.19 1239.31 L 1460.34 1246.98 L 1469.60 1253.54 L 1483.56 1257.93 L 1500.00 1259.46 L 1516.44 1257.93 L 1530.40 1253.54 L 1539.66 1246.98 L 1542.81 1239.31 L 1542.89 1214.00" stroke="black" stroke-width="4" fill="none" stroke-linecap="round" stroke-linejoin="round"/>
  <path d="M 1505.19 1219.84 L 1500.00 1219.37 L 1505.19 1219.84" stroke="black" stroke-width="4" fill="none" stroke-linecap="round" stroke-linejoin="round"/>
  <path d="M 1539.58 1206.39 L 1530.24 1199.94" stroke="black" stroke-width="4" fill="none" stroke-linecap="round" stroke-linejoin="round"/>
  <path d="M 1516.31 1195.64 L 1500.00 1194.15" stroke="black" stroke-width="4" fill="none" stroke-linecap="round" stroke-linejoin="round"/>
  <path d="M 1483.69 1195.64 L 1469.76 1199.94" stroke="black" stroke-width="4" fill="none" stroke-linecap="round" stroke-linejoin="round"/>
  <path d="M 1460.42 1206.39 L 1457.11 1214.00 L 1460.26 1221.64" stroke="black" stroke-width="4" fill="none" stroke-linecap="round" stroke-linejoin="round"/>
  <path d="M 1469.54 1228.17 L 1483.53 1232.54" stroke="black" stroke-width="4" fill="none" stroke-linecap="round" stroke-linejoin="round"/>
  <path d="M 1500.00 1234.06 L 1516.47 1232.54" stroke="black" stroke-width="4" fill="none" stroke-linecap="round" stroke-linejoin="round"/>
  <path d="M 1439.12 1174.97 L 1442.44 1167.52 L 1439.36 1160.09 L 1430.30 1153.79 L 1416.65 1149.60 L 1400.58 1148.15 L 1384.43 1149.60 L 1370.56 1153.79 L 1361.17 1160.09 L 1357.69 1167.52 L 1360.62 1174.97 L 1369.61 1181.34 L 1383.32 1185.60 L 1399.55 1187.09 L 1415.85 1185.60 L 1429.79 1181.34 L 1439.12 1174.97" stroke="black" stroke-width="4" fill="none" stroke-linecap="round" stroke-linejoin="round"/>
  <path d="M 1399.55 1187.09 L 1415.85 1185.60 L 1429.79 1181.34 L 1415.85 1185.60 L 1399.55 1187.09 L 1383.32 1185.60 L 1369.61 1181.34 L 1360.62 1174.97 L 1357.69 1167.52 L 1361.17 1160.09 L 1370.56 1153.79 L 1384.43 1149.60 L 1400.58 1148.15 L 1416.65 1149.60 L 1430.30 1153.79 L 1439.36 1160.09 L 1442.44 1167.52 L 1439.12 1174.97 L 1429.79 1181.34" stroke="black" stroke-width="4" fill="none" stroke-linecap="round" stroke-linejoin="round"/>
  <path d="M 1370.56 1153.79 L 1361.17 1160.09 L 1357.69 1167.52 L 1360.62 1174.97 L 1369.61 1181.34" stroke="black" stroke-width="4" fill="none" stroke-linecap="round" stroke-linejoin="round"/>
  <path d="M 1646.54 1368.83 L 1649.60 1360.59 L 1645.93 1352.39 L 1636.05 1345.43 L 1621.46 1340.80 L 1604.49 1339.20 L 1587.59 1340.80 L 1573.26 1345.43 L 1563.74 1352.39 L 1560.51 1360.59 L 1564.01 1368.83 L 1573.82 1375.87 L 1588.48 1380.58 L 1605.63 1382.23 L 1622.69 1380.58 L 1637.10 1375.87 L 1646.54 1368.83" stroke="black" stroke-width="4" fill="none" stroke-linecap="round" stroke-linejoin="round"/>
  <path d="M 1563.74 1352.39 L 1573.26 1345.43 L 1587.59 1340.80 L 1604.49 1339.20 L 1621.46 1340.80 L 1636.05 1345.43 L 1645.93 1352.39 L 1649.60 1360.59 L 1646.54 1368.83 L 1637.10 1375.87 L 1622.69 1380.58 L 1605.63 1382.23 L 1588.48 1380.58 L 1573.82 1375.87 L 1564.01 1368.83 L 1560.51 1360.59 L 1560.38 1386.56 L 1563.87 1394.84 L 1573.67 1401.91 L 1588.29 1406.64 L 1605.40 1408.29 L 1622.43 1406.64 L 1636.81 1401.91 L 1646.23 1394.84 L 1649.28 1386.56 L 1649.60 1360.59" stroke="black" stroke-width="4" fill="none" stroke-linecap="round" stroke-linejoin="round"/>
  <path d="M 1605.63 1382.23 L 1622.69 1380.58 L 1637.10 1375.87" stroke="black" stroke-width="4" fill="none" stroke-linecap="round" stroke-linejoin="round"/>
  <path d="M 1636.05 1345.43 L 1621.46 1340.80 L 1604.49 1339.20" stroke="black" stroke-width="4" fill="none" stroke-linecap="round" stroke-linejoin="round"/>
  <path d="M 1573.26 1345.43 L 1563.74 1352.39 L 1560.51 1360.59 L 1564.01 1368.83 L 1573.82 1375.87" stroke="black" stroke-width="4" fill="none" stroke-linecap="round" stroke-linejoin="round"/>
  <path d="M 1540.74 1318.52 L 1543.98 1310.49 L 1540.58 1302.50 L 1531.00 1295.71 L 1516.72 1291.20 L 1500.00 1289.63 L 1483.28 1291.20 L 1469.00 1295.71 L 1459.42 1302.50 L 1456.02 1310.49 L 1459.26 1318.52 L 1468.76 1325.39 L 1483.11 1329.98 L 1500.00 1331.58 L 1516.89 1329.98 L 1531.24 1325.39 L 1540.74 1318.52 L 1531.24 1325.39" stroke="black" stroke-width="4" fill="none" stroke-linecap="round" stroke-linejoin="round"/>
  <path d="M 1459.26 1318.52 L 1456.02 1310.49 L 1459.42 1302.50 L 1459.42 1302.50 L 1469.00 1295.71 L 1483.28 1291.20 L 1500.00 1289.63 L 1516.72 1291.20 L 1531.00 1295.71 L 1540.58 1302.50 L 1543.98 1310.49 L 1540.74 1318.52 L 1531.24 1325.39 L 1516.89 1329.98 L 1500.00 1331.58 L 1483.11 1329.98 L 1468.76 1325.39 L 1459.26 1318.52 L 1456.02 1310.49 L 1456.11 1336.24 L 1459.34 1344.31 L 1468.83 1351.20 L 1483.15 1355.81 L 1500.00 1357.42 L 1516.85 1355.81 L 1531.17 1351.20 L 1540.66 1344.31 L 1543.89 1336.24 L 1543.98 1310.49" stroke="black" stroke-width="4" fill="none" stroke-linecap="round" stroke-linejoin="round"/>
  <path d="M 1504.52 1315.71 L 1500.00 1315.28 L 1504.52 1315.71" stroke="black" stroke-width="4" fill="none" stroke-linecap="round" stroke-linejoin="round"/>
  <path d="M 1540.58 1302.50 L 1531.00 1295.71" stroke="black" stroke-width="4" fill="none" stroke-linecap="round" stroke-linejoin="round"/>
  <path d="M 1516.72 1291.20 L 1500.00 1289.63" stroke="black" stroke-width="4" fill="none" stroke-linecap="round" stroke-linejoin="round"/>
  <path d="M 1483.28 1291.20 L 1469.00 1295.71" stroke="black" stroke-width="4" fill="none" stroke-linecap="round" stroke-linejoin="round"/>
  <path d="M 1468.76 1325.39 L 1483.11 1329.98" stroke="black" stroke-width="4" fill="none" stroke-linecap="round" stroke-linejoin="round"/>
  <path d="M 1500.00 1331.58 L 1516.89 1329.98" stroke="black" stroke-width="4" fill="none" stroke-linecap="round" stroke-linejoin="round"/>
  <path d="M 1437.60 1269.48 L 1441.00 1261.64 L 1437.85 1253.85 L 1428.57 1247.23 L 1414.58 1242.83 L 1398.11 1241.30 L 1381.56 1242.83 L 1367.34 1247.23 L 1357.71 1253.85 L 1354.14 1261.64 L 1357.13 1269.48 L 1366.34 1276.17 L 1380.39 1280.65 L 1397.03 1282.21 L 1413.74 1280.65 L 1428.03 1276.17 L 1437.60 1269.48 L 1428.03 1276.17" stroke="black" stroke-width="4" fill="none" stroke-linecap="round" stroke-linejoin="round"/>
  <path d="M 1357.13 1269.48 L 1354.14 1261.64 L 1357.71 1253.85 L 1357.71 1253.85 L 1367.34 1247.23 L 1381.56 1242.83 L 1398.11 1241.30 L 1414.58 1242.83 L 1428.57 1247.23 L 1437.85 1253.85 L 1441.00 1261.64 L 1437.60 1269.48 L 1428.03 1276.17 L 1413.74 1280.65 L 1397.03 1282.21 L 1380.39 1280.65 L 1366.34 1276.17 L 1357.13 1269.48 L 1354.14 1261.64 L 1354.44 1287.17 L 1357.42 1295.03 L 1366.61 1301.76 L 1380.64 1306.26 L 1397.24 1307.82 L 1413.92 1306.26 L 1428.18 1301.76 L 1437.72 1295.03 L 1441.12 1287.17 L 1441.00 1261.64" stroke="black" stroke-width="4" fill="none" stroke-linecap="round" stroke-linejoin="round"/>
  <path d="M 1437.85 1253.85 L 1428.57 1247.23" stroke="black" stroke-width="4" fill="none" stroke-linecap="round" stroke-linejoin="round"/>
  <path d="M 1414.58 1242.83 L 1398.11 1241.30" stroke="black" stroke-width="4" fill="none" stroke-linecap="round" stroke-linejoin="round"/>
  <path d="M 1381.56 1242.83 L 1367.34 1247.23" stroke="black" stroke-width="4" fill="none" stroke-linecap="round" stroke-linejoin="round"/>
  <path d="M 1366.34 1276.17 L 1380.39 1280.65" stroke="black" stroke-width="4" fill="none" stroke-linecap="round" stroke-linejoin="round"/>
  <path d="M 1397.03 1282.21 L 1413.74 1280.65" stroke="black" stroke-width="4" fill="none" stroke-linecap="round" stroke-linejoin="round"/>
  <path d="M 1337.00 1221.64 L 1340.56 1214.00 L 1337.65 1206.39 L 1328.65 1199.94 L 1314.95 1195.64 L 1298.72 1194.15 L 1282.33 1195.64 L 1268.17 1199.94 L 1258.49 1206.39 L 1254.77 1214.00 L 1257.52 1221.64 L 1266.45 1228.17 L 1280.22 1232.54 L 1296.60 1234.06 L 1313.15 1232.54 L 1327.38 1228.17 L 1337.00 1221.64" stroke="black" stroke-width="4" fill="none" stroke-linecap="round" stroke-linejoin="round"/>
  <path d="M 1602.30 1891.50 L 1799.43 1782.16 L 1803.04 1637.11 L 1603.56 1744.13 L 1204.24 1535.23 L 1207.68 1678.02 L 1602.30 1891.50 L 1603.56 1744.13 L 1204.24 1535.23 L 1603.56 1744.13 L 1803.04 1637.11 L 1603.56 1744.13 L 1803.04 1637.11 L 1806.74 1488.51 L 1604.86 1593.08 L 1200.72 1389.03 L 1204.24 1535.23 L 1603.56 1744.13 L 1604.86 1593.08 L 1200.72 1389.03 L 1604.86 1593.08 L 1806.74 1488.51 L 1604.86 1593.08 L 1806.74 1488.51 L 1810.53 1336.24 L 1606.19 1438.19 L 1197.11 1239.31 L 1255.23 1213.06 L 1255.26 1239.31 L 1258.01 1246.98 L 1266.92 1253.54 L 1280.66 1257.93 L 1297.01 1259.46 L 1313.53 1257.93 L 1327.73 1253.54 L 1337.33 1246.98 L 1340.88 1239.31 L 1340.56 1214.00" stroke="black" stroke-width="4" fill="none" stroke-linecap="round" stroke-linejoin="round"/>
  <path d="M 1296.60 1234.06 L 1313.15 1232.54 L 1327.38 1228.17 L 1313.15 1232.54 L 1296.60 1234.06 L 1280.22 1232.54 L 1266.45 1228.17 L 1257.52 1221.64 L 1254.77 1214.00 L 1258.49 1206.39 L 1268.17 1199.94 L 1282.33 1195.64 L 1298.72 1194.15 L 1314.95 1195.64 L 1328.65 1199.94 L 1337.65 1206.39 L 1340.56 1214.00 L 1337.00 1221.64 L 1327.38 1228.17" stroke="black" stroke-width="4" fill="none" stroke-linecap="round" stroke-linejoin="round"/>
  <path d="M 1328.65 1199.94 L 1314.95 1195.64 L 1298.72 1194.15" stroke="black" stroke-width="4" fill="none" stroke-linecap="round" stroke-linejoin="round"/>
  <path d="M 1268.17 1199.94 L 1258.49 1206.39 L 1254.77 1214.00 L 1257.52 1221.64 L 1266.45 1228.17" stroke="black" stroke-width="4" fill="none" stroke-linecap="round" stroke-linejoin="round"/>
  <path d="M 1810.53 1336.24 L 1750.45 1308.45" stroke="black" stroke-width="4" fill="none" stroke-linecap="round" stroke-linejoin="round"/>
  <path d="M 1606.19 1438.19 L 1604.86 1593.08 L 1200.72 1389.03 L 1197.11 1239.31" stroke="black" stroke-width="4" fill="none" stroke-linecap="round" stroke-linejoin="round"/>
  <path d="M 1663.13 1336.24 L 1666.79 1344.31 L 1676.64 1351.20 L 1691.20 1355.81 L 1708.14 1357.42 L 1724.90 1355.81 L 1738.98 1351.20 L 1748.11 1344.31 L 1750.91 1336.24" stroke="black" stroke-width="4" fill="none" stroke-linecap="round" stroke-linejoin="round"/>
  <path d="M 1558.88 1287.17 L 1562.28 1295.03 L 1571.82 1301.76 L 1586.08 1306.26 L 1602.76 1307.82 L 1619.36 1306.26 L 1633.39 1301.76 L 1642.58 1295.03 L 1645.56 1287.17" stroke="black" stroke-width="4" fill="none" stroke-linecap="round" stroke-linejoin="round"/>
  <path d="M 1457.19 1239.31 L 1460.34 1246.98 L 1469.60 1253.54 L 1478.27 1256.26 L 1483.56 1257.93 L 1500.00 1259.46 L 1516.44 1257.93 L 1530.40 1253.54 L 1539.66 1246.98 L 1542.81 1239.31 L 1539.70 1232.14" stroke="black" stroke-width="4" fill="none" stroke-linecap="round" stroke-linejoin="round"/>
  <path d="M 1357.98 1192.61 L 1360.89 1200.10 L 1369.87 1206.50 L 1383.55 1210.78 L 1399.75 1212.27 L 1416.02 1210.78 L 1429.93 1206.50 L 1438.93 1200.31 L 1442.55 1192.61" stroke="black" stroke-width="4" fill="none" stroke-linecap="round" stroke-linejoin="round"/>
  <path d="M 1582.75 1404.85 L 1588.29 1406.64 L 1605.40 1408.29 L 1622.43 1406.64 L 1636.81 1401.91 L 1646.23 1394.84 L 1649.28 1386.56" stroke="black" stroke-width="4" fill="none" stroke-linecap="round" stroke-linejoin="round"/>
  <path d="M 1560.38 1386.56 L 1563.87 1394.84 L 1573.67 1401.91" stroke="black" stroke-width="4" fill="none" stroke-linecap="round" stroke-linejoin="round"/>
  <path d="M 1543.89 1336.24 L 1540.66 1344.31 L 1540.34 1344.54 L 1531.17 1351.20 L 1516.85 1355.81 L 1500.00 1357.42 L 1483.15 1355.81 L 1468.83 1351.20 L 1459.34 1344.31 L 1456.11 1336.24" stroke="black" stroke-width="4" fill="none" stroke-linecap="round" stroke-linejoin="round"/>
  <path d="M 1354.44 1287.17 L 1357.42 1295.03 L 1366.61 1301.76 L 1380.64 1306.26 L 1397.24 1307.82 L 1413.92 1306.26 L 1428.18 1301.76 L 1437.72 1295.03 L 1441.12 1287.17" stroke="black" stroke-width="4" fill="none" stroke-linecap="round" stroke-linejoin="round"/>
  <path d="M 1255.26 1239.31 L 1258.01 1246.98 L 1266.92 1253.54 L 1280.66 1257.93 L 1297.01 1259.46 L 1313.53 1257.93 L 1327.73 1253.54 L 1337.33 1246.98 L 1340.88 1239.31" stroke="black" stroke-width="4" fill="none" stroke-linecap="round" stroke-linejoin="round"/>
</svg>
