<?xml version="1.0" ?>
<svg xmlns="http://www.w3.org/2000/svg" version="1.1" width="694.26px" height="3000px" viewBox="1157.07 0 694.26 3000">
  <polygon points="1439.58,1688.61 1439.69,1712.55 1442.98,1704.13 1442.87,1680.22" fill="#afbfd6" stroke="#afbfd6" stroke-width="0.5" stroke-linecap="round" stroke-linejoin="round"/>
  <polygon points="1358.75,1680.22 1359.02,1704.13 1361.93,1712.55 1361.67,1688.61" fill="#afbfd6" stroke="#afbfd6" stroke-width="0.5" stroke-linecap="round" stroke-linejoin="round"/>
  <polygon points="1370.60,1695.79 1384.21,1700.58 1400.32,1702.25 1416.50,1700.58 1430.32,1695.79 1439.58,1688.61 1442.87,1680.22 1439.81,1671.86 1430.81,1664.76 1417.26,1660.05 1401.30,1658.41 1385.27,1660.05 1371.50,1664.76 1362.19,1671.86 1358.75,1680.22 1361.67,1688.61" fill="#afbfd6" stroke="#afbfd6" stroke-width="0.5" stroke-linecap="round" stroke-linejoin="round"/>
  <polygon points="1361.67,1688.61 1361.93,1712.55 1370.85,1719.75 1370.60,1695.79" fill="#afbfd6" stroke="#afbfd6" stroke-width="0.5" stroke-linecap="round" stroke-linejoin="round"/>
  <polygon points="1430.32,1695.79 1430.46,1719.75 1439.69,1712.55 1439.58,1688.61" fill="#afbfd6" stroke="#afbfd6" stroke-width="0.5" stroke-linecap="round" stroke-linejoin="round"/>
  <polygon points="1416.50,1700.58 1416.66,1724.56 1430.46,1719.75 1430.32,1695.79" fill="#afbfd6" stroke="#afbfd6" stroke-width="0.5" stroke-linecap="round" stroke-linejoin="round"/>
  <polygon points="1370.60,1695.79 1370.85,1719.75 1384.43,1724.56 1384.21,1700.58" fill="#afbfd6" stroke="#afbfd6" stroke-width="0.5" stroke-linecap="round" stroke-linejoin="round"/>
  <polygon points="1400.32,1702.25 1400.51,1726.24 1416.66,1724.56 1416.50,1700.58" fill="#afbfd6" stroke="#afbfd6" stroke-width="0.5" stroke-linecap="round" stroke-linejoin="round"/>
  <polygon points="1384.21,1700.58 1384.43,1724.56 1400.51,1726.24 1400.32,1702.25" fill="#afbfd6" stroke="#afbfd6" stroke-width="0.5" stroke-linecap="round" stroke-linejoin="round"/>
  <polygon points="1403.23,1793.35 1202.93,1899.22 1603.87,2126.53 1804.18,2010.16" fill="#60afff" stroke="#60afff" stroke-width="0.5" stroke-linecap="round" stroke-linejoin="round"/>
  <polygon points="1256.72,1732.53 1257.19,1756.62 1259.93,1765.24 1259.47,1741.13" fill="#afbfd6" stroke="#afbfd6" stroke-width="0.5" stroke-linecap="round" stroke-linejoin="round"/>
  <polygon points="1539.42,1741.13 1539.34,1765.24 1542.47,1756.62 1542.55,1732.53" fill="#afbfd6" stroke="#afbfd6" stroke-width="0.5" stroke-linecap="round" stroke-linejoin="round"/>
  <polygon points="1457.45,1732.53 1457.53,1756.62 1460.66,1765.24 1460.58,1741.13" fill="#afbfd6" stroke="#afbfd6" stroke-width="0.5" stroke-linecap="round" stroke-linejoin="round"/>
  <polygon points="1338.31,1741.13 1338.62,1765.24 1342.13,1756.62 1341.83,1732.53" fill="#afbfd6" stroke="#afbfd6" stroke-width="0.5" stroke-linecap="round" stroke-linejoin="round"/>
  <polygon points="1338.31,1741.13 1341.83,1732.53 1338.92,1723.98 1329.98,1716.71 1316.38,1711.88 1300.27,1710.20 1284.02,1711.88 1269.98,1716.71 1260.39,1723.98 1256.72,1732.53 1259.47,1741.13 1268.34,1748.47 1282.00,1753.38 1298.26,1755.09 1314.67,1753.38 1328.77,1748.47" fill="#afbfd6" stroke="#afbfd6" stroke-width="0.5" stroke-linecap="round" stroke-linejoin="round"/>
  <polygon points="1539.42,1741.13 1542.55,1732.53 1539.27,1723.98 1530.00,1716.71 1516.18,1711.88 1500.00,1710.20 1483.82,1711.88 1470.00,1716.71 1460.73,1723.98 1457.45,1732.53 1460.58,1741.13 1469.78,1748.47 1483.67,1753.38 1500.00,1755.09 1516.33,1753.38 1530.22,1748.47" fill="#afbfd6" stroke="#afbfd6" stroke-width="0.5" stroke-linecap="round" stroke-linejoin="round"/>
  <polygon points="1460.58,1741.13 1460.66,1765.24 1469.84,1772.61 1469.78,1748.47" fill="#afbfd6" stroke="#afbfd6" stroke-width="0.5" stroke-linecap="round" stroke-linejoin="round"/>
  <polygon points="1259.47,1741.13 1259.93,1765.24 1268.79,1772.61 1268.34,1748.47" fill="#afbfd6" stroke="#afbfd6" stroke-width="0.5" stroke-linecap="round" stroke-linejoin="round"/>
  <polygon points="1328.77,1748.47 1329.11,1772.61 1338.62,1765.24 1338.31,1741.13" fill="#afbfd6" stroke="#afbfd6" stroke-width="0.5" stroke-linecap="round" stroke-linejoin="round"/>
  <polygon points="1530.22,1748.47 1530.16,1772.61 1539.34,1765.24 1539.42,1741.13" fill="#afbfd6" stroke="#afbfd6" stroke-width="0.5" stroke-linecap="round" stroke-linejoin="round"/>
  <polygon points="1268.34,1748.47 1268.79,1772.61 1282.42,1777.54 1282.00,1753.38" fill="#afbfd6" stroke="#afbfd6" stroke-width="0.5" stroke-linecap="round" stroke-linejoin="round"/>
  <polygon points="1469.78,1748.47 1469.84,1772.61 1483.70,1777.54 1483.67,1753.38" fill="#afbfd6" stroke="#afbfd6" stroke-width="0.5" stroke-linecap="round" stroke-linejoin="round"/>
  <polygon points="1516.33,1753.38 1516.30,1777.54 1530.16,1772.61 1530.22,1748.47" fill="#afbfd6" stroke="#afbfd6" stroke-width="0.5" stroke-linecap="round" stroke-linejoin="round"/>
  <polygon points="1314.67,1753.38 1315.03,1777.54 1329.11,1772.61 1328.77,1748.47" fill="#afbfd6" stroke="#afbfd6" stroke-width="0.5" stroke-linecap="round" stroke-linejoin="round"/>
  <polygon points="1282.00,1753.38 1282.42,1777.54 1298.65,1779.26 1298.26,1755.09" fill="#afbfd6" stroke="#afbfd6" stroke-width="0.5" stroke-linecap="round" stroke-linejoin="round"/>
  <polygon points="1500.00,1755.09 1500.00,1779.26 1516.30,1777.54 1516.33,1753.38" fill="#afbfd6" stroke="#afbfd6" stroke-width="0.5" stroke-linecap="round" stroke-linejoin="round"/>
  <polygon points="1298.26,1755.09 1298.65,1779.26 1315.03,1777.54 1314.67,1753.38" fill="#afbfd6" stroke="#afbfd6" stroke-width="0.5" stroke-linecap="round" stroke-linejoin="round"/>
  <polygon points="1483.67,1753.38 1483.70,1777.54 1500.00,1779.26 1500.00,1755.09" fill="#afbfd6" stroke="#afbfd6" stroke-width="0.5" stroke-linecap="round" stroke-linejoin="round"/>
  <polygon points="1602.64,2269.95 1603.87,2126.53 1202.93,1899.22 1206.29,2038.60" fill="#60afff" stroke="#60afff" stroke-width="0.5" stroke-linecap="round" stroke-linejoin="round"/>
  <polygon points="1402.14,1652.84 1199.49,1756.62 1605.14,1979.62 1807.78,1865.42" fill="#afbfd6" stroke="#afbfd6" stroke-width="0.5" stroke-linecap="round" stroke-linejoin="round"/>
  <polygon points="1438.13,1794.90 1438.25,1819.20 1441.61,1810.37 1441.50,1786.10" fill="#afbfd6" stroke="#afbfd6" stroke-width="0.5" stroke-linecap="round" stroke-linejoin="round"/>
  <polygon points="1558.50,1786.10 1558.39,1810.37 1561.75,1819.20 1561.87,1794.90" fill="#afbfd6" stroke="#afbfd6" stroke-width="0.5" stroke-linecap="round" stroke-linejoin="round"/>
  <polygon points="1641.65,1794.90 1641.38,1819.20 1644.35,1810.37 1644.63,1786.10" fill="#afbfd6" stroke="#afbfd6" stroke-width="0.5" stroke-linecap="round" stroke-linejoin="round"/>
  <polygon points="1355.37,1786.10 1355.65,1810.37 1358.62,1819.20 1358.35,1794.90" fill="#afbfd6" stroke="#afbfd6" stroke-width="0.5" stroke-linecap="round" stroke-linejoin="round"/>
  <polygon points="1358.89,1777.34 1355.37,1786.10 1358.35,1794.90 1367.49,1802.42 1381.42,1807.45 1397.92,1809.20 1414.49,1807.45 1428.65,1802.42 1438.13,1794.90 1441.50,1786.10 1438.37,1777.34 1429.16,1769.90 1415.29,1764.95 1398.95,1763.23 1382.53,1764.95 1368.44,1769.90" fill="#afbfd6" stroke="#afbfd6" stroke-width="0.5" stroke-linecap="round" stroke-linejoin="round"/>
  <polygon points="1570.84,1769.90 1561.63,1777.34 1558.50,1786.10 1561.87,1794.90 1571.35,1802.42 1585.51,1807.45 1602.08,1809.20 1618.58,1807.45 1632.51,1802.42 1641.65,1794.90 1644.63,1786.10 1641.11,1777.34 1631.56,1769.90 1617.47,1764.95 1601.05,1763.23 1584.71,1764.95" fill="#afbfd6" stroke="#afbfd6" stroke-width="0.5" stroke-linecap="round" stroke-linejoin="round"/>
  <polygon points="1428.65,1802.42 1428.79,1826.75 1438.25,1819.20 1438.13,1794.90" fill="#afbfd6" stroke="#afbfd6" stroke-width="0.5" stroke-linecap="round" stroke-linejoin="round"/>
  <polygon points="1358.35,1794.90 1358.62,1819.20 1367.75,1826.75 1367.49,1802.42" fill="#afbfd6" stroke="#afbfd6" stroke-width="0.5" stroke-linecap="round" stroke-linejoin="round"/>
  <polygon points="1632.51,1802.42 1632.25,1826.75 1641.38,1819.20 1641.65,1794.90" fill="#afbfd6" stroke="#afbfd6" stroke-width="0.5" stroke-linecap="round" stroke-linejoin="round"/>
  <polygon points="1561.87,1794.90 1561.75,1819.20 1571.21,1826.75 1571.35,1802.42" fill="#afbfd6" stroke="#afbfd6" stroke-width="0.5" stroke-linecap="round" stroke-linejoin="round"/>
  <polygon points="1414.49,1807.45 1414.65,1831.80 1428.79,1826.75 1428.65,1802.42" fill="#afbfd6" stroke="#afbfd6" stroke-width="0.5" stroke-linecap="round" stroke-linejoin="round"/>
  <polygon points="1571.35,1802.42 1571.21,1826.75 1585.35,1831.80 1585.51,1807.45" fill="#afbfd6" stroke="#afbfd6" stroke-width="0.5" stroke-linecap="round" stroke-linejoin="round"/>
  <polygon points="1618.58,1807.45 1618.34,1831.80 1632.25,1826.75 1632.51,1802.42" fill="#afbfd6" stroke="#afbfd6" stroke-width="0.5" stroke-linecap="round" stroke-linejoin="round"/>
  <polygon points="1367.49,1802.42 1367.75,1826.75 1381.66,1831.80 1381.42,1807.45" fill="#afbfd6" stroke="#afbfd6" stroke-width="0.5" stroke-linecap="round" stroke-linejoin="round"/>
  <polygon points="1585.51,1807.45 1585.35,1831.80 1601.88,1833.55 1602.08,1809.20" fill="#afbfd6" stroke="#afbfd6" stroke-width="0.5" stroke-linecap="round" stroke-linejoin="round"/>
  <polygon points="1381.42,1807.45 1381.66,1831.80 1398.12,1833.55 1397.92,1809.20" fill="#afbfd6" stroke="#afbfd6" stroke-width="0.5" stroke-linecap="round" stroke-linejoin="round"/>
  <polygon points="1602.08,1809.20 1601.88,1833.55 1618.34,1831.80 1618.58,1807.45" fill="#afbfd6" stroke="#afbfd6" stroke-width="0.5" stroke-linecap="round" stroke-linejoin="round"/>
  <polygon points="1397.92,1809.20 1398.12,1833.55 1414.65,1831.80 1414.49,1807.45" fill="#afbfd6" stroke="#afbfd6" stroke-width="0.5" stroke-linecap="round" stroke-linejoin="round"/>
  <polygon points="1603.87,2126.53 1605.14,1979.62 1199.49,1756.62 1202.93,1899.22" fill="#afbfd6" stroke="#afbfd6" stroke-width="0.5" stroke-linecap="round" stroke-linejoin="round"/>
  <polygon points="1804.18,2010.16 1603.87,2126.53 1602.64,2269.95 1800.65,2151.54" fill="#60afff" stroke="#60afff" stroke-width="0.5" stroke-linecap="round" stroke-linejoin="round"/>
  <polygon points="1746.37,1849.98 1745.88,1874.47 1748.69,1865.42 1749.18,1840.97" fill="#afbfd6" stroke="#afbfd6" stroke-width="0.5" stroke-linecap="round" stroke-linejoin="round"/>
  <polygon points="1456.41,1840.97 1456.50,1865.42 1459.70,1874.47 1459.62,1849.98" fill="#afbfd6" stroke="#afbfd6" stroke-width="0.5" stroke-linecap="round" stroke-linejoin="round"/>
  <polygon points="1662.01,1840.97 1661.69,1865.42 1665.29,1874.47 1665.62,1849.98" fill="#afbfd6" stroke="#afbfd6" stroke-width="0.5" stroke-linecap="round" stroke-linejoin="round"/>
  <polygon points="1540.38,1849.98 1540.30,1874.47 1543.50,1865.42 1543.59,1840.97" fill="#afbfd6" stroke="#afbfd6" stroke-width="0.5" stroke-linecap="round" stroke-linejoin="round"/>
  <polygon points="1723.31,1862.84 1737.29,1857.69 1746.37,1849.98 1749.18,1840.97 1745.41,1831.99 1735.57,1824.37 1721.19,1819.30 1704.54,1817.54 1688.05,1819.30 1674.12,1824.37 1664.97,1831.99 1662.01,1840.97 1665.62,1849.98 1675.39,1857.69 1689.84,1862.84 1706.65,1864.63" fill="#afbfd6" stroke="#afbfd6" stroke-width="0.5" stroke-linecap="round" stroke-linejoin="round"/>
  <polygon points="1456.41,1840.97 1459.62,1849.98 1469.05,1857.69 1483.27,1862.84 1500.00,1864.63 1516.73,1862.84 1530.95,1857.69 1540.38,1849.98 1543.59,1840.97 1540.22,1831.99 1530.73,1824.37 1516.57,1819.30 1500.00,1817.54 1483.43,1819.30 1469.27,1824.37 1459.78,1831.99" fill="#afbfd6" stroke="#afbfd6" stroke-width="0.5" stroke-linecap="round" stroke-linejoin="round"/>
  <polygon points="1737.29,1857.69 1736.82,1882.20 1745.88,1874.47 1746.37,1849.98" fill="#afbfd6" stroke="#afbfd6" stroke-width="0.5" stroke-linecap="round" stroke-linejoin="round"/>
  <polygon points="1665.62,1849.98 1665.29,1874.47 1675.04,1882.20 1675.39,1857.69" fill="#afbfd6" stroke="#afbfd6" stroke-width="0.5" stroke-linecap="round" stroke-linejoin="round"/>
  <polygon points="1530.95,1857.69 1530.89,1882.20 1540.30,1874.47 1540.38,1849.98" fill="#afbfd6" stroke="#afbfd6" stroke-width="0.5" stroke-linecap="round" stroke-linejoin="round"/>
  <polygon points="1459.62,1849.98 1459.70,1874.47 1469.11,1882.20 1469.05,1857.69" fill="#afbfd6" stroke="#afbfd6" stroke-width="0.5" stroke-linecap="round" stroke-linejoin="round"/>
  <polygon points="1675.39,1857.69 1675.04,1882.20 1689.46,1887.37 1689.84,1862.84" fill="#afbfd6" stroke="#afbfd6" stroke-width="0.5" stroke-linecap="round" stroke-linejoin="round"/>
  <polygon points="1516.73,1862.84 1516.70,1887.37 1530.89,1882.20 1530.95,1857.69" fill="#afbfd6" stroke="#afbfd6" stroke-width="0.5" stroke-linecap="round" stroke-linejoin="round"/>
  <polygon points="1723.31,1862.84 1722.86,1887.37 1736.82,1882.20 1737.29,1857.69" fill="#afbfd6" stroke="#afbfd6" stroke-width="0.5" stroke-linecap="round" stroke-linejoin="round"/>
  <polygon points="1469.05,1857.69 1469.11,1882.20 1483.30,1887.37 1483.27,1862.84" fill="#afbfd6" stroke="#afbfd6" stroke-width="0.5" stroke-linecap="round" stroke-linejoin="round"/>
  <polygon points="1689.84,1862.84 1689.46,1887.37 1706.24,1889.17 1706.65,1864.63" fill="#afbfd6" stroke="#afbfd6" stroke-width="0.5" stroke-linecap="round" stroke-linejoin="round"/>
  <polygon points="1706.65,1864.63 1706.24,1889.17 1722.86,1887.37 1723.31,1862.84" fill="#afbfd6" stroke="#afbfd6" stroke-width="0.5" stroke-linecap="round" stroke-linejoin="round"/>
  <polygon points="1500.00,1864.63 1500.00,1889.17 1516.70,1887.37 1516.73,1862.84" fill="#afbfd6" stroke="#afbfd6" stroke-width="0.5" stroke-linecap="round" stroke-linejoin="round"/>
  <polygon points="1483.27,1862.84 1483.30,1887.37 1500.00,1889.17 1500.00,1864.63" fill="#afbfd6" stroke="#afbfd6" stroke-width="0.5" stroke-linecap="round" stroke-linejoin="round"/>
  <polygon points="1807.78,1865.42 1605.14,1979.62 1603.87,2126.53 1804.18,2010.16" fill="#afbfd6" stroke="#afbfd6" stroke-width="0.5" stroke-linecap="round" stroke-linejoin="round"/>
  <polygon points="1645.14,1906.41 1644.85,1931.09 1647.88,1921.82 1648.18,1897.18" fill="#afbfd6" stroke="#afbfd6" stroke-width="0.5" stroke-linecap="round" stroke-linejoin="round"/>
  <polygon points="1559.94,1897.18 1559.82,1921.82 1563.27,1931.09 1563.39,1906.41" fill="#afbfd6" stroke="#afbfd6" stroke-width="0.5" stroke-linecap="round" stroke-linejoin="round"/>
  <polygon points="1620.34,1874.98 1603.52,1873.18 1586.78,1874.98 1572.57,1880.17 1563.14,1887.98 1559.94,1897.18 1563.39,1906.41 1573.11,1914.31 1587.62,1919.59 1604.60,1921.43 1621.50,1919.59 1635.77,1914.31 1645.14,1906.41 1648.18,1897.18 1644.56,1887.98 1634.78,1880.17" fill="#afbfd6" stroke="#afbfd6" stroke-width="0.5" stroke-linecap="round" stroke-linejoin="round"/>
  <polygon points="1635.77,1914.31 1635.50,1939.01 1644.85,1931.09 1645.14,1906.41" fill="#afbfd6" stroke="#afbfd6" stroke-width="0.5" stroke-linecap="round" stroke-linejoin="round"/>
  <polygon points="1563.39,1906.41 1563.27,1931.09 1572.96,1939.01 1573.11,1914.31" fill="#afbfd6" stroke="#afbfd6" stroke-width="0.5" stroke-linecap="round" stroke-linejoin="round"/>
  <polygon points="1621.50,1919.59 1621.25,1944.31 1635.50,1939.01 1635.77,1914.31" fill="#afbfd6" stroke="#afbfd6" stroke-width="0.5" stroke-linecap="round" stroke-linejoin="round"/>
  <polygon points="1573.11,1914.31 1572.96,1939.01 1587.45,1944.31 1587.62,1919.59" fill="#afbfd6" stroke="#afbfd6" stroke-width="0.5" stroke-linecap="round" stroke-linejoin="round"/>
  <polygon points="1604.60,1921.43 1604.39,1946.15 1621.25,1944.31 1621.50,1919.59" fill="#afbfd6" stroke="#afbfd6" stroke-width="0.5" stroke-linecap="round" stroke-linejoin="round"/>
  <polygon points="1587.62,1919.59 1587.45,1944.31 1604.39,1946.15 1604.60,1921.43" fill="#afbfd6" stroke="#afbfd6" stroke-width="0.5" stroke-linecap="round" stroke-linejoin="round"/>
  <polygon points="1397.51,1057.55 1184.91,1151.62 1610.50,1354.48 1823.09,1250.47" fill="#e2f999" stroke="#e2f999" stroke-width="0.5" stroke-linecap="round" stroke-linejoin="round"/>
  <polygon points="1348.33,754.29 1348.64,781.85 1351.74,789.02 1351.43,761.41" fill="#f7ad63" stroke="#f7ad63" stroke-width="0.5" stroke-linecap="round" stroke-linejoin="round"/>
  <polygon points="1435.11,761.41 1435.24,789.02 1438.78,781.85 1438.65,754.29" fill="#f7ad63" stroke="#f7ad63" stroke-width="0.5" stroke-linecap="round" stroke-linejoin="round"/>
  <polygon points="1376.84,737.17 1362.05,741.17 1352.04,747.19 1348.33,754.29 1351.43,761.41 1361.01,767.50 1375.62,771.58 1392.92,773.00 1410.30,771.58 1425.16,767.50 1435.11,761.41 1438.65,754.29 1435.37,747.19 1425.72,741.17 1411.18,737.17 1394.05,735.77" fill="#f7ad63" stroke="#f7ad63" stroke-width="0.5" stroke-linecap="round" stroke-linejoin="round"/>
  <polygon points="1425.16,767.50 1425.31,795.14 1435.24,789.02 1435.11,761.41" fill="#f7ad63" stroke="#f7ad63" stroke-width="0.5" stroke-linecap="round" stroke-linejoin="round"/>
  <polygon points="1351.43,761.41 1351.74,789.02 1361.30,795.14 1361.01,767.50" fill="#f7ad63" stroke="#f7ad63" stroke-width="0.5" stroke-linecap="round" stroke-linejoin="round"/>
  <polygon points="1361.01,767.50 1361.30,795.14 1375.88,799.24 1375.62,771.58" fill="#f7ad63" stroke="#f7ad63" stroke-width="0.5" stroke-linecap="round" stroke-linejoin="round"/>
  <polygon points="1410.30,771.58 1410.49,799.24 1425.31,795.14 1425.16,767.50" fill="#f7ad63" stroke="#f7ad63" stroke-width="0.5" stroke-linecap="round" stroke-linejoin="round"/>
  <polygon points="1392.92,773.00 1393.14,800.67 1410.49,799.24 1410.30,771.58" fill="#f7ad63" stroke="#f7ad63" stroke-width="0.5" stroke-linecap="round" stroke-linejoin="round"/>
  <polygon points="1375.62,771.58 1375.88,799.24 1393.14,800.67 1392.92,773.00" fill="#f7ad63" stroke="#f7ad63" stroke-width="0.5" stroke-linecap="round" stroke-linejoin="round"/>
  <polygon points="1609.11,1516.67 1610.50,1354.48 1184.91,1151.62 1188.68,1308.31" fill="#e2f999" stroke="#e2f999" stroke-width="0.5" stroke-linecap="round" stroke-linejoin="round"/>
  <polygon points="1396.28,899.81 1181.04,991.09 1611.93,1188.09 1827.16,1087.06" fill="#a5c916" stroke="#a5c916" stroke-width="0.5" stroke-linecap="round" stroke-linejoin="round"/>
  <polygon points="1326.19,806.05 1326.55,833.91 1330.36,826.56 1330.00,798.74" fill="#f7ad63" stroke="#f7ad63" stroke-width="0.5" stroke-linecap="round" stroke-linejoin="round"/>
  <polygon points="1542.37,806.05 1542.28,833.91 1545.64,826.56 1545.74,798.74" fill="#f7ad63" stroke="#f7ad63" stroke-width="0.5" stroke-linecap="round" stroke-linejoin="round"/>
  <polygon points="1454.27,798.74 1454.36,826.56 1457.72,833.91 1457.63,806.05" fill="#f7ad63" stroke="#f7ad63" stroke-width="0.5" stroke-linecap="round" stroke-linejoin="round"/>
  <polygon points="1238.53,798.74 1239.08,826.56 1241.99,833.91 1241.45,806.05" fill="#f7ad63" stroke="#f7ad63" stroke-width="0.5" stroke-linecap="round" stroke-linejoin="round"/>
  <polygon points="1500.00,817.93 1517.56,816.47 1532.48,812.30 1542.37,806.05 1545.74,798.74 1542.20,791.46 1532.24,785.28 1517.39,781.18 1500.00,779.75 1482.61,781.18 1467.76,785.28 1457.80,791.46 1454.27,798.74 1457.63,806.05 1467.52,812.30 1482.44,816.47" fill="#f7ad63" stroke="#f7ad63" stroke-width="0.5" stroke-linecap="round" stroke-linejoin="round"/>
  <polygon points="1238.53,798.74 1241.45,806.05 1250.96,812.30 1265.63,816.47 1283.10,817.93 1300.75,816.47 1315.93,812.30 1326.19,806.05 1330.00,798.74 1326.91,791.46 1317.33,785.28 1302.73,781.18 1285.43,779.75 1267.95,781.18 1252.85,785.28 1242.52,791.46" fill="#f7ad63" stroke="#f7ad63" stroke-width="0.5" stroke-linecap="round" stroke-linejoin="round"/>
  <polygon points="1241.45,806.05 1241.99,833.91 1251.48,840.19 1250.96,812.30" fill="#f7ad63" stroke="#f7ad63" stroke-width="0.5" stroke-linecap="round" stroke-linejoin="round"/>
  <polygon points="1457.63,806.05 1457.72,833.91 1467.58,840.19 1467.52,812.30" fill="#f7ad63" stroke="#f7ad63" stroke-width="0.5" stroke-linecap="round" stroke-linejoin="round"/>
  <polygon points="1315.93,812.30 1316.31,840.19 1326.55,833.91 1326.19,806.05" fill="#f7ad63" stroke="#f7ad63" stroke-width="0.5" stroke-linecap="round" stroke-linejoin="round"/>
  <polygon points="1532.48,812.30 1532.42,840.19 1542.28,833.91 1542.37,806.05" fill="#f7ad63" stroke="#f7ad63" stroke-width="0.5" stroke-linecap="round" stroke-linejoin="round"/>
  <polygon points="1467.52,812.30 1467.58,840.19 1482.47,844.40 1482.44,816.47" fill="#f7ad63" stroke="#f7ad63" stroke-width="0.5" stroke-linecap="round" stroke-linejoin="round"/>
  <polygon points="1250.96,812.30 1251.48,840.19 1266.11,844.40 1265.63,816.47" fill="#f7ad63" stroke="#f7ad63" stroke-width="0.5" stroke-linecap="round" stroke-linejoin="round"/>
  <polygon points="1517.56,816.47 1517.53,844.40 1532.42,840.19 1532.48,812.30" fill="#f7ad63" stroke="#f7ad63" stroke-width="0.5" stroke-linecap="round" stroke-linejoin="round"/>
  <polygon points="1300.75,816.47 1301.16,844.40 1316.31,840.19 1315.93,812.30" fill="#f7ad63" stroke="#f7ad63" stroke-width="0.5" stroke-linecap="round" stroke-linejoin="round"/>
  <polygon points="1265.63,816.47 1266.11,844.40 1283.55,845.86 1283.10,817.93" fill="#f7ad63" stroke="#f7ad63" stroke-width="0.5" stroke-linecap="round" stroke-linejoin="round"/>
  <polygon points="1283.10,817.93 1283.55,845.86 1301.16,844.40 1300.75,816.47" fill="#f7ad63" stroke="#f7ad63" stroke-width="0.5" stroke-linecap="round" stroke-linejoin="round"/>
  <polygon points="1500.00,817.93 1500.00,845.86 1517.53,844.40 1517.56,816.47" fill="#f7ad63" stroke="#f7ad63" stroke-width="0.5" stroke-linecap="round" stroke-linejoin="round"/>
  <polygon points="1482.44,816.47 1482.47,844.40 1500.00,845.86 1500.00,817.93" fill="#f7ad63" stroke="#f7ad63" stroke-width="0.5" stroke-linecap="round" stroke-linejoin="round"/>
  <polygon points="1610.50,1354.48 1611.93,1188.09 1181.04,991.09 1184.91,1151.62" fill="#a5c916" stroke="#a5c916" stroke-width="0.5" stroke-linecap="round" stroke-linejoin="round"/>
  <polygon points="1823.09,1250.47 1610.50,1354.48 1609.11,1516.67 1819.12,1409.88" fill="#e2f999" stroke="#e2f999" stroke-width="0.5" stroke-linecap="round" stroke-linejoin="round"/>
  <polygon points="1395.02,738.25 1177.07,826.56 1613.40,1017.35 1831.34,919.47" fill="#f7ad63" stroke="#f7ad63" stroke-width="0.5" stroke-linecap="round" stroke-linejoin="round"/>
  <polygon points="1344.42,844.33 1344.75,872.42 1347.92,879.96 1347.60,851.83" fill="#f7ad63" stroke="#f7ad63" stroke-width="0.5" stroke-linecap="round" stroke-linejoin="round"/>
  <polygon points="1433.43,851.83 1433.57,879.96 1437.20,872.42 1437.07,844.33" fill="#f7ad63" stroke="#f7ad63" stroke-width="0.5" stroke-linecap="round" stroke-linejoin="round"/>
  <polygon points="1562.93,844.33 1562.80,872.42 1566.43,879.96 1566.57,851.83" fill="#f7ad63" stroke="#f7ad63" stroke-width="0.5" stroke-linecap="round" stroke-linejoin="round"/>
  <polygon points="1652.40,851.83 1652.08,879.96 1655.25,872.42 1655.58,844.33" fill="#f7ad63" stroke="#f7ad63" stroke-width="0.5" stroke-linecap="round" stroke-linejoin="round"/>
  <polygon points="1357.42,858.24 1372.40,862.53 1390.15,864.02 1407.98,862.53 1423.23,858.24 1433.43,851.83 1437.07,844.33 1433.71,836.87 1423.82,830.53 1408.90,826.32 1391.34,824.86 1373.68,826.32 1358.52,830.53 1348.23,836.87 1344.42,844.33 1347.60,851.83" fill="#f7ad63" stroke="#f7ad63" stroke-width="0.5" stroke-linecap="round" stroke-linejoin="round"/>
  <polygon points="1591.10,826.32 1576.18,830.53 1566.29,836.87 1562.93,844.33 1566.57,851.83 1576.78,858.24 1592.02,862.53 1609.85,864.02 1627.60,862.53 1642.58,858.24 1652.40,851.83 1655.58,844.33 1651.77,836.87 1641.48,830.53 1626.32,826.32 1608.66,824.86" fill="#f7ad63" stroke="#f7ad63" stroke-width="0.5" stroke-linecap="round" stroke-linejoin="round"/>
  <polygon points="1566.57,851.83 1566.43,879.96 1576.61,886.40 1576.78,858.24" fill="#f7ad63" stroke="#f7ad63" stroke-width="0.5" stroke-linecap="round" stroke-linejoin="round"/>
  <polygon points="1347.60,851.83 1347.92,879.96 1357.72,886.40 1357.42,858.24" fill="#f7ad63" stroke="#f7ad63" stroke-width="0.5" stroke-linecap="round" stroke-linejoin="round"/>
  <polygon points="1423.23,858.24 1423.39,886.40 1433.57,879.96 1433.43,851.83" fill="#f7ad63" stroke="#f7ad63" stroke-width="0.5" stroke-linecap="round" stroke-linejoin="round"/>
  <polygon points="1642.58,858.24 1642.28,886.40 1652.08,879.96 1652.40,851.83" fill="#f7ad63" stroke="#f7ad63" stroke-width="0.5" stroke-linecap="round" stroke-linejoin="round"/>
  <polygon points="1627.60,862.53 1627.33,890.72 1642.28,886.40 1642.58,858.24" fill="#f7ad63" stroke="#f7ad63" stroke-width="0.5" stroke-linecap="round" stroke-linejoin="round"/>
  <polygon points="1357.42,858.24 1357.72,886.40 1372.67,890.72 1372.40,862.53" fill="#f7ad63" stroke="#f7ad63" stroke-width="0.5" stroke-linecap="round" stroke-linejoin="round"/>
  <polygon points="1576.78,858.24 1576.61,886.40 1591.83,890.72 1592.02,862.53" fill="#f7ad63" stroke="#f7ad63" stroke-width="0.5" stroke-linecap="round" stroke-linejoin="round"/>
  <polygon points="1407.98,862.53 1408.17,890.72 1423.39,886.40 1423.23,858.24" fill="#f7ad63" stroke="#f7ad63" stroke-width="0.5" stroke-linecap="round" stroke-linejoin="round"/>
  <polygon points="1390.15,864.02 1390.38,892.22 1408.17,890.72 1407.98,862.53" fill="#f7ad63" stroke="#f7ad63" stroke-width="0.5" stroke-linecap="round" stroke-linejoin="round"/>
  <polygon points="1609.85,864.02 1609.62,892.22 1627.33,890.72 1627.60,862.53" fill="#f7ad63" stroke="#f7ad63" stroke-width="0.5" stroke-linecap="round" stroke-linejoin="round"/>
  <polygon points="1372.40,862.53 1372.67,890.72 1390.38,892.22 1390.15,864.02" fill="#f7ad63" stroke="#f7ad63" stroke-width="0.5" stroke-linecap="round" stroke-linejoin="round"/>
  <polygon points="1592.02,862.53 1591.83,890.72 1609.62,892.22 1609.85,864.02" fill="#f7ad63" stroke="#f7ad63" stroke-width="0.5" stroke-linecap="round" stroke-linejoin="round"/>
  <polygon points="1611.93,1188.09 1613.40,1017.35 1177.07,826.56 1181.04,991.09" fill="#f7ad63" stroke="#f7ad63" stroke-width="0.5" stroke-linecap="round" stroke-linejoin="round"/>
  <polygon points="1827.16,1087.06 1611.93,1188.09 1610.50,1354.48 1823.09,1250.47" fill="#a5c916" stroke="#a5c916" stroke-width="0.5" stroke-linecap="round" stroke-linejoin="round"/>
  <polygon points="1765.31,898.82 1764.74,927.21 1767.72,919.47 1768.29,891.12" fill="#f7ad63" stroke="#f7ad63" stroke-width="0.5" stroke-linecap="round" stroke-linejoin="round"/>
  <polygon points="1543.48,898.82 1543.39,927.21 1546.83,919.47 1546.93,891.12" fill="#f7ad63" stroke="#f7ad63" stroke-width="0.5" stroke-linecap="round" stroke-linejoin="round"/>
  <polygon points="1453.07,891.12 1453.17,919.47 1456.61,927.21 1456.52,898.82" fill="#f7ad63" stroke="#f7ad63" stroke-width="0.5" stroke-linecap="round" stroke-linejoin="round"/>
  <polygon points="1674.43,891.12 1674.06,919.47 1677.97,927.21 1678.35,898.82" fill="#f7ad63" stroke="#f7ad63" stroke-width="0.5" stroke-linecap="round" stroke-linejoin="round"/>
  <polygon points="1466.67,905.40 1481.98,909.80 1500.00,911.33 1518.02,909.80 1533.33,905.40 1543.48,898.82 1546.93,891.12 1543.30,883.46 1533.07,876.96 1517.84,872.64 1500.00,871.14 1482.16,872.64 1466.93,876.96 1456.71,883.46 1453.07,891.12 1456.52,898.82" fill="#f7ad63" stroke="#f7ad63" stroke-width="0.5" stroke-linecap="round" stroke-linejoin="round"/>
  <polygon points="1688.90,905.40 1704.48,909.80 1722.59,911.33 1740.52,909.80 1755.56,905.40 1765.31,898.82 1768.29,891.12 1764.19,883.46 1753.57,876.96 1738.07,872.64 1720.14,871.14 1702.40,872.64 1687.42,876.96 1677.60,883.46 1674.43,891.12 1678.35,898.82" fill="#f7ad63" stroke="#f7ad63" stroke-width="0.5" stroke-linecap="round" stroke-linejoin="round"/>
  <polygon points="1755.56,905.40 1755.02,933.82 1764.74,927.21 1765.31,898.82" fill="#f7ad63" stroke="#f7ad63" stroke-width="0.5" stroke-linecap="round" stroke-linejoin="round"/>
  <polygon points="1533.33,905.40 1533.26,933.82 1543.39,927.21 1543.48,898.82" fill="#f7ad63" stroke="#f7ad63" stroke-width="0.5" stroke-linecap="round" stroke-linejoin="round"/>
  <polygon points="1678.35,898.82 1677.97,927.21 1688.49,933.82 1688.90,905.40" fill="#f7ad63" stroke="#f7ad63" stroke-width="0.5" stroke-linecap="round" stroke-linejoin="round"/>
  <polygon points="1456.52,898.82 1456.61,927.21 1466.74,933.82 1466.67,905.40" fill="#f7ad63" stroke="#f7ad63" stroke-width="0.5" stroke-linecap="round" stroke-linejoin="round"/>
  <polygon points="1740.52,909.80 1740.01,938.25 1755.02,933.82 1755.56,905.40" fill="#f7ad63" stroke="#f7ad63" stroke-width="0.5" stroke-linecap="round" stroke-linejoin="round"/>
  <polygon points="1518.02,909.80 1517.98,938.25 1533.26,933.82 1533.33,905.40" fill="#f7ad63" stroke="#f7ad63" stroke-width="0.5" stroke-linecap="round" stroke-linejoin="round"/>
  <polygon points="1466.67,905.40 1466.74,933.82 1482.02,938.25 1481.98,909.80" fill="#f7ad63" stroke="#f7ad63" stroke-width="0.5" stroke-linecap="round" stroke-linejoin="round"/>
  <polygon points="1688.90,905.40 1688.49,933.82 1704.04,938.25 1704.48,909.80" fill="#f7ad63" stroke="#f7ad63" stroke-width="0.5" stroke-linecap="round" stroke-linejoin="round"/>
  <polygon points="1500.00,911.33 1500.00,939.79 1517.98,938.25 1518.02,909.80" fill="#f7ad63" stroke="#f7ad63" stroke-width="0.5" stroke-linecap="round" stroke-linejoin="round"/>
  <polygon points="1704.48,909.80 1704.04,938.25 1722.12,939.79 1722.59,911.33" fill="#f7ad63" stroke="#f7ad63" stroke-width="0.5" stroke-linecap="round" stroke-linejoin="round"/>
  <polygon points="1481.98,909.80 1482.02,938.25 1500.00,939.79 1500.00,911.33" fill="#f7ad63" stroke="#f7ad63" stroke-width="0.5" stroke-linecap="round" stroke-linejoin="round"/>
  <polygon points="1722.59,911.33 1722.12,939.79 1740.01,938.25 1740.52,909.80" fill="#f7ad63" stroke="#f7ad63" stroke-width="0.5" stroke-linecap="round" stroke-linejoin="round"/>
  <polygon points="1831.34,919.47 1613.40,1017.35 1611.93,1188.09 1827.16,1087.06" fill="#f7ad63" stroke="#f7ad63" stroke-width="0.5" stroke-linecap="round" stroke-linejoin="round"/>
  <polygon points="1656.44,947.04 1656.10,975.71 1659.35,967.76 1659.69,939.14" fill="#f7ad63" stroke="#f7ad63" stroke-width="0.5" stroke-linecap="round" stroke-linejoin="round"/>
  <polygon points="1564.59,939.14 1564.46,967.76 1568.18,975.71 1568.33,947.04" fill="#f7ad63" stroke="#f7ad63" stroke-width="0.5" stroke-linecap="round" stroke-linejoin="round"/>
  <polygon points="1612.78,959.89 1630.99,958.32 1646.37,953.80 1656.44,947.04 1659.69,939.14 1655.77,931.28 1645.21,924.60 1629.64,920.17 1611.52,918.63 1593.49,920.17 1578.19,924.60 1568.04,931.28 1564.59,939.14 1568.33,947.04 1578.81,953.80 1594.47,958.32" fill="#f7ad63" stroke="#f7ad63" stroke-width="0.5" stroke-linecap="round" stroke-linejoin="round"/>
  <polygon points="1646.37,953.80 1646.05,982.50 1656.10,975.71 1656.44,947.04" fill="#f7ad63" stroke="#f7ad63" stroke-width="0.5" stroke-linecap="round" stroke-linejoin="round"/>
  <polygon points="1568.33,947.04 1568.18,975.71 1578.64,982.50 1578.81,953.80" fill="#f7ad63" stroke="#f7ad63" stroke-width="0.5" stroke-linecap="round" stroke-linejoin="round"/>
  <polygon points="1630.99,958.32 1630.71,987.04 1646.05,982.50 1646.37,953.80" fill="#f7ad63" stroke="#f7ad63" stroke-width="0.5" stroke-linecap="round" stroke-linejoin="round"/>
  <polygon points="1578.81,953.80 1578.64,982.50 1594.26,987.04 1594.47,958.32" fill="#f7ad63" stroke="#f7ad63" stroke-width="0.5" stroke-linecap="round" stroke-linejoin="round"/>
  <polygon points="1612.78,959.89 1612.53,988.63 1630.71,987.04 1630.99,958.32" fill="#f7ad63" stroke="#f7ad63" stroke-width="0.5" stroke-linecap="round" stroke-linejoin="round"/>
  <polygon points="1594.47,958.32 1594.26,987.04 1612.53,988.63 1612.78,959.89" fill="#f7ad63" stroke="#f7ad63" stroke-width="0.5" stroke-linecap="round" stroke-linejoin="round"/>
  <path d="M 1206.29 2038.60 L 1602.64 2269.95 L 1800.65 2151.54 L 1804.18 2010.16 L 1603.87 2126.53 L 1602.64 2269.95 L 1800.65 2151.54 L 1804.18 2010.16 L 1603.87 2126.53 L 1202.93 1899.22 L 1206.29 2038.60 L 1602.64 2269.95 L 1603.87 2126.53 L 1202.93 1899.22 L 1206.29 2038.60" stroke="black" stroke-width="4" fill="none" stroke-linecap="round" stroke-linejoin="round"/>
  <path d="M 1202.93 1899.22 L 1603.87 2126.53 L 1804.18 2010.16 L 1807.78 1865.42 L 1605.14 1979.62 L 1603.87 2126.53 L 1804.18 2010.16 L 1807.78 1865.42 L 1745.81 1832.95 L 1807.78 1865.42 L 1605.14 1979.62 L 1199.49 1756.62 L 1259.59 1725.85 L 1199.49 1756.62 L 1202.93 1899.22 L 1603.87 2126.53 L 1605.14 1979.62 L 1199.49 1756.62 L 1202.93 1899.22" stroke="black" stroke-width="4" fill="none" stroke-linecap="round" stroke-linejoin="round"/>
  <path d="M 1719.41 1819.11 L 1641.48 1778.27 L 1719.41 1819.11 L 1641.48 1778.27 L 1631.56 1769.90" stroke="black" stroke-width="4" fill="none" stroke-linecap="round" stroke-linejoin="round"/>
  <path d="M 1530.00 1716.71 L 1539.27 1723.98 L 1615.71 1764.77 L 1539.62 1724.89 L 1615.71 1764.77 L 1601.05 1763.23" stroke="black" stroke-width="4" fill="none" stroke-linecap="round" stroke-linejoin="round"/>
  <path d="M 1440.13 1672.75 L 1514.45 1711.70 L 1440.13 1672.75 L 1514.45 1711.70 L 1500.00 1710.20" stroke="black" stroke-width="4" fill="none" stroke-linecap="round" stroke-linejoin="round"/>
  <path d="M 1415.55 1659.87 L 1402.14 1652.84 L 1388.78 1659.69 L 1402.14 1652.84 L 1415.55 1659.87 L 1402.14 1652.84 L 1388.78 1659.69" stroke="black" stroke-width="4" fill="none" stroke-linecap="round" stroke-linejoin="round"/>
  <path d="M 1361.44 1673.69 L 1287.57 1711.51 L 1361.44 1673.69 L 1287.57 1711.51" stroke="black" stroke-width="4" fill="none" stroke-linecap="round" stroke-linejoin="round"/>
  <path d="M 1746.37 1849.98 L 1749.18 1840.97 L 1745.41 1831.99 L 1735.57 1824.37 L 1721.19 1819.30 L 1704.54 1817.54 L 1688.05 1819.30 L 1674.12 1824.37 L 1664.97 1831.99 L 1662.01 1840.97 L 1665.62 1849.98 L 1675.39 1857.69 L 1689.84 1862.84 L 1706.65 1864.63 L 1723.31 1862.84 L 1737.29 1857.69 L 1746.37 1849.98" stroke="black" stroke-width="4" fill="none" stroke-linecap="round" stroke-linejoin="round"/>
  <path d="M 1664.97 1831.99 L 1674.12 1824.37 L 1688.05 1819.30 L 1704.54 1817.54 L 1721.19 1819.30 L 1735.57 1824.37 L 1745.41 1831.99 L 1749.18 1840.97 L 1746.37 1849.98 L 1737.29 1857.69 L 1723.31 1862.84 L 1706.65 1864.63 L 1689.84 1862.84 L 1675.39 1857.69 L 1665.62 1849.98 L 1662.01 1840.97 L 1661.69 1865.42 L 1665.29 1874.47 L 1675.04 1882.20 L 1689.46 1887.37 L 1706.24 1889.17 L 1722.86 1887.37 L 1736.82 1882.20 L 1745.88 1874.47 L 1748.69 1865.42 L 1749.18 1840.97" stroke="black" stroke-width="4" fill="none" stroke-linecap="round" stroke-linejoin="round"/>
  <path d="M 1706.65 1864.63 L 1723.31 1862.84 L 1737.29 1857.69" stroke="black" stroke-width="4" fill="none" stroke-linecap="round" stroke-linejoin="round"/>
  <path d="M 1735.57 1824.37 L 1721.19 1819.30 L 1704.54 1817.54" stroke="black" stroke-width="4" fill="none" stroke-linecap="round" stroke-linejoin="round"/>
  <path d="M 1674.12 1824.37 L 1664.97 1831.99 L 1662.01 1840.97 L 1665.62 1849.98 L 1675.39 1857.69" stroke="black" stroke-width="4" fill="none" stroke-linecap="round" stroke-linejoin="round"/>
  <path d="M 1641.65 1794.90 L 1644.63 1786.10 L 1641.11 1777.34 L 1631.56 1769.90 L 1617.47 1764.95 L 1601.05 1763.23 L 1584.71 1764.95 L 1570.84 1769.90 L 1561.63 1777.34 L 1558.50 1786.10 L 1561.87 1794.90 L 1571.35 1802.42 L 1585.51 1807.45 L 1602.08 1809.20 L 1618.58 1807.45 L 1632.51 1802.42 L 1641.65 1794.90 L 1632.51 1802.42 L 1618.58 1807.45 L 1602.08 1809.20 L 1585.51 1807.45 L 1571.35 1802.42 L 1561.87 1794.90 L 1558.50 1786.10 L 1561.63 1777.34 L 1570.84 1769.90 L 1584.71 1764.95 L 1601.05 1763.23 L 1617.47 1764.95 L 1631.56 1769.90 L 1641.11 1777.34 L 1644.63 1786.10 L 1641.65 1794.90 L 1632.51 1802.42" stroke="black" stroke-width="4" fill="none" stroke-linecap="round" stroke-linejoin="round"/>
  <path d="M 1558.50 1786.10 L 1558.39 1810.37 L 1561.75 1819.20 L 1571.21 1826.75 L 1585.35 1831.80 L 1601.88 1833.55 L 1618.34 1831.80 L 1632.25 1826.75 L 1641.38 1819.20 L 1644.35 1810.37 L 1644.63 1786.10" stroke="black" stroke-width="4" fill="none" stroke-linecap="round" stroke-linejoin="round"/>
  <path d="M 1584.71 1764.95 L 1570.84 1769.90" stroke="black" stroke-width="4" fill="none" stroke-linecap="round" stroke-linejoin="round"/>
  <path d="M 1561.63 1777.34 L 1558.50 1786.10 L 1561.87 1794.90" stroke="black" stroke-width="4" fill="none" stroke-linecap="round" stroke-linejoin="round"/>
  <path d="M 1571.35 1802.42 L 1585.51 1807.45" stroke="black" stroke-width="4" fill="none" stroke-linecap="round" stroke-linejoin="round"/>
  <path d="M 1602.08 1809.20 L 1618.58 1807.45" stroke="black" stroke-width="4" fill="none" stroke-linecap="round" stroke-linejoin="round"/>
  <path d="M 1539.42 1741.13 L 1542.55 1732.53 L 1539.27 1723.98 L 1530.00 1716.71 L 1516.18 1711.88 L 1500.00 1710.20 L 1483.82 1711.88 L 1470.00 1716.71 L 1460.73 1723.98 L 1457.45 1732.53 L 1460.58 1741.13 L 1469.78 1748.47 L 1483.67 1753.38 L 1500.00 1755.09 L 1516.33 1753.38 L 1530.22 1748.47 L 1539.42 1741.13 L 1530.22 1748.47 L 1516.33 1753.38 L 1500.00 1755.09 L 1483.67 1753.38 L 1469.78 1748.47 L 1460.58 1741.13 L 1457.45 1732.53 L 1460.73 1723.98 L 1470.00 1716.71 L 1483.82 1711.88 L 1500.00 1710.20 L 1516.18 1711.88 L 1530.00 1716.71 L 1539.27 1723.98 L 1542.55 1732.53 L 1539.42 1741.13 L 1530.22 1748.47" stroke="black" stroke-width="4" fill="none" stroke-linecap="round" stroke-linejoin="round"/>
  <path d="M 1457.45 1732.53 L 1457.53 1756.62 L 1460.66 1765.24 L 1469.84 1772.61 L 1483.70 1777.54 L 1500.00 1779.26 L 1516.30 1777.54 L 1530.16 1772.61 L 1539.34 1765.24 L 1542.47 1756.62 L 1542.55 1732.53" stroke="black" stroke-width="4" fill="none" stroke-linecap="round" stroke-linejoin="round"/>
  <path d="M 1483.82 1711.88 L 1470.00 1716.71" stroke="black" stroke-width="4" fill="none" stroke-linecap="round" stroke-linejoin="round"/>
  <path d="M 1460.73 1723.98 L 1457.45 1732.53 L 1460.58 1741.13" stroke="black" stroke-width="4" fill="none" stroke-linecap="round" stroke-linejoin="round"/>
  <path d="M 1469.78 1748.47 L 1483.67 1753.38" stroke="black" stroke-width="4" fill="none" stroke-linecap="round" stroke-linejoin="round"/>
  <path d="M 1500.00 1755.09 L 1516.33 1753.38" stroke="black" stroke-width="4" fill="none" stroke-linecap="round" stroke-linejoin="round"/>
  <path d="M 1439.58 1688.61 L 1442.87 1680.22 L 1439.81 1671.86 L 1430.81 1664.76 L 1417.26 1660.05 L 1401.30 1658.41 L 1385.27 1660.05 L 1371.50 1664.76 L 1362.19 1671.86 L 1358.75 1680.22 L 1361.66 1688.61 L 1370.60 1695.79 L 1384.21 1700.58 L 1400.32 1702.25 L 1416.50 1700.58 L 1430.32 1695.79 L 1439.58 1688.61" stroke="black" stroke-width="4" fill="none" stroke-linecap="round" stroke-linejoin="round"/>
  <path d="M 1358.75 1680.22 L 1359.02 1704.13 L 1361.93 1712.55 L 1370.85 1719.75 L 1384.43 1724.56 L 1400.51 1726.24 L 1416.66 1724.56 L 1430.46 1719.75 L 1439.69 1712.55 L 1442.98 1704.13 L 1442.87 1680.22" stroke="black" stroke-width="4" fill="none" stroke-linecap="round" stroke-linejoin="round"/>
  <path d="M 1400.32 1702.25 L 1416.50 1700.58 L 1430.32 1695.79 L 1416.50 1700.58 L 1400.32 1702.25 L 1384.21 1700.58 L 1370.60 1695.79 L 1361.66 1688.61 L 1358.75 1680.22 L 1362.19 1671.86 L 1371.50 1664.76 L 1385.27 1660.05 L 1401.30 1658.41 L 1417.26 1660.05 L 1430.81 1664.76 L 1439.81 1671.86 L 1442.87 1680.22 L 1439.58 1688.61 L 1430.32 1695.79" stroke="black" stroke-width="4" fill="none" stroke-linecap="round" stroke-linejoin="round"/>
  <path d="M 1430.81 1664.76 L 1417.26 1660.05 L 1401.30 1658.41" stroke="black" stroke-width="4" fill="none" stroke-linecap="round" stroke-linejoin="round"/>
  <path d="M 1371.50 1664.76 L 1362.19 1671.86 L 1358.75 1680.22 L 1361.66 1688.61 L 1370.60 1695.79" stroke="black" stroke-width="4" fill="none" stroke-linecap="round" stroke-linejoin="round"/>
  <path d="M 1645.14 1906.41 L 1648.18 1897.18 L 1644.56 1887.98 L 1634.78 1880.17 L 1620.34 1874.98 L 1603.52 1873.18 L 1586.78 1874.98 L 1572.57 1880.17 L 1563.14 1887.98 L 1559.94 1897.18 L 1563.39 1906.41 L 1573.11 1914.31 L 1587.62 1919.59 L 1604.60 1921.43 L 1621.50 1919.59 L 1635.77 1914.31 L 1645.14 1906.41" stroke="black" stroke-width="4" fill="none" stroke-linecap="round" stroke-linejoin="round"/>
  <path d="M 1559.94 1897.18 L 1559.82 1921.82 L 1563.27 1931.09 L 1572.96 1939.01 L 1587.45 1944.31 L 1604.39 1946.15 L 1621.25 1944.31 L 1635.50 1939.01 L 1644.85 1931.09 L 1647.88 1921.82 L 1648.18 1897.18" stroke="black" stroke-width="4" fill="none" stroke-linecap="round" stroke-linejoin="round"/>
  <path d="M 1604.60 1921.43 L 1621.50 1919.59 L 1635.77 1914.31 L 1621.50 1919.59 L 1604.60 1921.43 L 1587.62 1919.59 L 1573.11 1914.31 L 1563.39 1906.41 L 1559.94 1897.18 L 1563.14 1887.98 L 1572.57 1880.17 L 1586.78 1874.98 L 1603.52 1873.18 L 1620.34 1874.98 L 1634.78 1880.17 L 1644.56 1887.98 L 1648.18 1897.18 L 1645.14 1906.41 L 1635.77 1914.31" stroke="black" stroke-width="4" fill="none" stroke-linecap="round" stroke-linejoin="round"/>
  <path d="M 1634.78 1880.17 L 1620.34 1874.98 L 1603.52 1873.18" stroke="black" stroke-width="4" fill="none" stroke-linecap="round" stroke-linejoin="round"/>
  <path d="M 1572.57 1880.17 L 1563.14 1887.98 L 1559.94 1897.18 L 1563.39 1906.41 L 1573.11 1914.31" stroke="black" stroke-width="4" fill="none" stroke-linecap="round" stroke-linejoin="round"/>
  <path d="M 1540.38 1849.98 L 1543.59 1840.97 L 1540.22 1831.99 L 1530.73 1824.37 L 1516.57 1819.30 L 1500.00 1817.54 L 1483.43 1819.30 L 1469.27 1824.37 L 1459.78 1831.99 L 1456.41 1840.97 L 1459.62 1849.98 L 1469.05 1857.69 L 1483.27 1862.84 L 1500.00 1864.63 L 1516.73 1862.84 L 1530.95 1857.69 L 1540.38 1849.98 L 1530.95 1857.69 L 1516.73 1862.84 L 1500.00 1864.63 L 1483.27 1862.84 L 1469.05 1857.69 L 1459.62 1849.98 L 1456.41 1840.97 L 1459.78 1831.99 L 1469.27 1824.37 L 1483.43 1819.30 L 1500.00 1817.54 L 1516.57 1819.30 L 1530.73 1824.37 L 1540.22 1831.99 L 1543.59 1840.97 L 1540.38 1849.98 L 1530.95 1857.69" stroke="black" stroke-width="4" fill="none" stroke-linecap="round" stroke-linejoin="round"/>
  <path d="M 1456.41 1840.97 L 1456.50 1865.42 L 1459.70 1874.47 L 1469.11 1882.20 L 1483.30 1887.37 L 1500.00 1889.17 L 1516.70 1887.37 L 1530.89 1882.20 L 1540.30 1874.47 L 1543.50 1865.42 L 1543.59 1840.97" stroke="black" stroke-width="4" fill="none" stroke-linecap="round" stroke-linejoin="round"/>
  <path d="M 1540.22 1831.99 L 1530.73 1824.37" stroke="black" stroke-width="4" fill="none" stroke-linecap="round" stroke-linejoin="round"/>
  <path d="M 1516.57 1819.30 L 1500.00 1817.54" stroke="black" stroke-width="4" fill="none" stroke-linecap="round" stroke-linejoin="round"/>
  <path d="M 1483.43 1819.30 L 1469.27 1824.37" stroke="black" stroke-width="4" fill="none" stroke-linecap="round" stroke-linejoin="round"/>
  <path d="M 1459.78 1831.99 L 1456.41 1840.97 L 1459.62 1849.98" stroke="black" stroke-width="4" fill="none" stroke-linecap="round" stroke-linejoin="round"/>
  <path d="M 1469.05 1857.69 L 1483.27 1862.84" stroke="black" stroke-width="4" fill="none" stroke-linecap="round" stroke-linejoin="round"/>
  <path d="M 1500.00 1864.63 L 1516.73 1862.84" stroke="black" stroke-width="4" fill="none" stroke-linecap="round" stroke-linejoin="round"/>
  <path d="M 1438.13 1794.90 L 1441.50 1786.10 L 1438.37 1777.34 L 1429.16 1769.90 L 1415.29 1764.95 L 1398.95 1763.23 L 1382.53 1764.95 L 1368.44 1769.90 L 1358.89 1777.34 L 1355.37 1786.10 L 1358.35 1794.90 L 1367.49 1802.42 L 1381.42 1807.45 L 1397.92 1809.20 L 1414.49 1807.45 L 1428.65 1802.42 L 1438.13 1794.90 L 1428.65 1802.42 L 1414.49 1807.45 L 1397.92 1809.20 L 1381.42 1807.45 L 1367.49 1802.42 L 1358.35 1794.90 L 1355.37 1786.10 L 1358.89 1777.34 L 1368.44 1769.90 L 1382.53 1764.95 L 1398.95 1763.23 L 1415.29 1764.95 L 1429.16 1769.90 L 1438.37 1777.34 L 1441.50 1786.10 L 1438.13 1794.90 L 1428.65 1802.42" stroke="black" stroke-width="4" fill="none" stroke-linecap="round" stroke-linejoin="round"/>
  <path d="M 1355.37 1786.10 L 1355.65 1810.37 L 1358.62 1819.20 L 1367.75 1826.75 L 1381.66 1831.80 L 1398.12 1833.55 L 1414.65 1831.80 L 1428.79 1826.75 L 1438.25 1819.20 L 1441.61 1810.37 L 1441.50 1786.10" stroke="black" stroke-width="4" fill="none" stroke-linecap="round" stroke-linejoin="round"/>
  <path d="M 1438.37 1777.34 L 1429.16 1769.90" stroke="black" stroke-width="4" fill="none" stroke-linecap="round" stroke-linejoin="round"/>
  <path d="M 1415.29 1764.95 L 1398.95 1763.23" stroke="black" stroke-width="4" fill="none" stroke-linecap="round" stroke-linejoin="round"/>
  <path d="M 1382.53 1764.95 L 1368.44 1769.90" stroke="black" stroke-width="4" fill="none" stroke-linecap="round" stroke-linejoin="round"/>
  <path d="M 1358.89 1777.34 L 1355.37 1786.10 L 1358.35 1794.90" stroke="black" stroke-width="4" fill="none" stroke-linecap="round" stroke-linejoin="round"/>
  <path d="M 1367.49 1802.42 L 1381.42 1807.45" stroke="black" stroke-width="4" fill="none" stroke-linecap="round" stroke-linejoin="round"/>
  <path d="M 1397.92 1809.20 L 1414.49 1807.45" stroke="black" stroke-width="4" fill="none" stroke-linecap="round" stroke-linejoin="round"/>
  <path d="M 1338.31 1741.13 L 1341.83 1732.53 L 1338.92 1723.98 L 1329.98 1716.71 L 1316.38 1711.88 L 1300.27 1710.20 L 1284.02 1711.88 L 1269.98 1716.71 L 1260.39 1723.98 L 1256.72 1732.53 L 1259.47 1741.13 L 1268.34 1748.47 L 1282.00 1753.38 L 1298.26 1755.09 L 1314.67 1753.38 L 1328.77 1748.47 L 1338.31 1741.13" stroke="black" stroke-width="4" fill="none" stroke-linecap="round" stroke-linejoin="round"/>
  <path d="M 1256.72 1732.53 L 1257.19 1756.62 L 1259.93 1765.24 L 1268.79 1772.61 L 1282.42 1777.54 L 1298.65 1779.26 L 1315.03 1777.54 L 1329.11 1772.61 L 1338.62 1765.24 L 1342.13 1756.62 L 1341.83 1732.53" stroke="black" stroke-width="4" fill="none" stroke-linecap="round" stroke-linejoin="round"/>
  <path d="M 1298.26 1755.09 L 1314.67 1753.38 L 1328.77 1748.47 L 1314.67 1753.38 L 1298.26 1755.09 L 1282.00 1753.38 L 1268.34 1748.47 L 1259.47 1741.13 L 1256.72 1732.53 L 1260.39 1723.98 L 1269.98 1716.71 L 1284.02 1711.88 L 1300.27 1710.20 L 1316.38 1711.88 L 1329.98 1716.71 L 1338.92 1723.98 L 1341.83 1732.53 L 1338.31 1741.13 L 1328.77 1748.47" stroke="black" stroke-width="4" fill="none" stroke-linecap="round" stroke-linejoin="round"/>
  <path d="M 1329.98 1716.71 L 1316.38 1711.88 L 1300.27 1710.20" stroke="black" stroke-width="4" fill="none" stroke-linecap="round" stroke-linejoin="round"/>
  <path d="M 1269.98 1716.71 L 1260.39 1723.98 L 1256.72 1732.53 L 1259.47 1741.13 L 1268.34 1748.47" stroke="black" stroke-width="4" fill="none" stroke-linecap="round" stroke-linejoin="round"/>
  <path d="M 1188.68 1308.31 L 1609.11 1516.67 L 1819.12 1409.88 L 1823.09 1250.47 L 1610.50 1354.48 L 1609.11 1516.67 L 1819.12 1409.88 L 1823.09 1250.47 L 1610.50 1354.48 L 1184.91 1151.62 L 1188.68 1308.31 L 1609.11 1516.67 L 1610.50 1354.48 L 1184.91 1151.62 L 1188.68 1308.31" stroke="black" stroke-width="4" fill="none" stroke-linecap="round" stroke-linejoin="round"/>
  <path d="M 1184.91 1151.62 L 1610.50 1354.48 L 1823.09 1250.47 L 1827.16 1087.06 L 1611.93 1188.09 L 1610.50 1354.48 L 1823.09 1250.47 L 1827.16 1087.06 L 1611.93 1188.09 L 1181.04 991.09 L 1184.91 1151.62 L 1610.50 1354.48 L 1611.93 1188.09 L 1181.04 991.09 L 1184.91 1151.62" stroke="black" stroke-width="4" fill="none" stroke-linecap="round" stroke-linejoin="round"/>
  <path d="M 1181.04 991.09 L 1611.93 1188.09 L 1827.16 1087.06 L 1831.34 919.47 L 1613.40 1017.35 L 1611.93 1188.09 L 1827.16 1087.06 L 1831.34 919.47 L 1768.25 893.26 L 1831.34 919.47 L 1613.40 1017.35 L 1177.07 826.56 L 1238.59 801.63 L 1177.07 826.56 L 1181.04 991.09 L 1611.93 1188.09 L 1613.40 1017.35 L 1177.07 826.56 L 1181.04 991.09" stroke="black" stroke-width="4" fill="none" stroke-linecap="round" stroke-linejoin="round"/>
  <path d="M 1715.84 871.50 L 1655.55 846.46 L 1715.84 871.50 L 1655.55 846.46" stroke="black" stroke-width="4" fill="none" stroke-linecap="round" stroke-linejoin="round"/>
  <path d="M 1604.40 825.21 L 1545.73 800.84 L 1604.40 825.21 L 1545.73 800.84" stroke="black" stroke-width="4" fill="none" stroke-linecap="round" stroke-linejoin="round"/>
  <path d="M 1495.79 780.10 L 1438.66 756.37 L 1495.79 780.10 L 1438.66 756.37" stroke="black" stroke-width="4" fill="none" stroke-linecap="round" stroke-linejoin="round"/>
  <path d="M 1348.36 757.15 L 1291.37 780.24 L 1348.36 757.15 L 1291.37 780.24" stroke="black" stroke-width="4" fill="none" stroke-linecap="round" stroke-linejoin="round"/>
  <path d="M 1765.31 898.82 L 1768.29 891.12 L 1764.19 883.46 L 1753.57 876.96 L 1738.07 872.64 L 1720.14 871.14 L 1702.40 872.64 L 1687.42 876.96 L 1677.60 883.46 L 1674.43 891.12 L 1678.35 898.82 L 1688.90 905.40 L 1704.48 909.80 L 1722.59 911.33 L 1740.52 909.80 L 1755.56 905.40 L 1765.31 898.82" stroke="black" stroke-width="4" fill="none" stroke-linecap="round" stroke-linejoin="round"/>
  <path d="M 1674.43 891.12 L 1674.06 919.47 L 1677.97 927.21 L 1688.49 933.82 L 1704.04 938.25 L 1722.12 939.79 L 1740.01 938.25 L 1755.02 933.82 L 1764.74 927.21 L 1767.72 919.47 L 1768.29 891.12" stroke="black" stroke-width="4" fill="none" stroke-linecap="round" stroke-linejoin="round"/>
  <path d="M 1722.59 911.33 L 1740.52 909.80 L 1755.56 905.40 L 1740.52 909.80 L 1722.59 911.33 L 1704.48 909.80 L 1688.90 905.40 L 1678.35 898.82 L 1674.43 891.12 L 1677.60 883.46 L 1687.42 876.96 L 1702.40 872.64 L 1720.14 871.14 L 1738.07 872.64 L 1753.57 876.96 L 1764.19 883.46 L 1768.29 891.12 L 1765.31 898.82 L 1755.56 905.40" stroke="black" stroke-width="4" fill="none" stroke-linecap="round" stroke-linejoin="round"/>
  <path d="M 1753.57 876.96 L 1738.07 872.64 L 1720.14 871.14" stroke="black" stroke-width="4" fill="none" stroke-linecap="round" stroke-linejoin="round"/>
  <path d="M 1687.42 876.96 L 1677.60 883.46 L 1674.43 891.12 L 1678.35 898.82 L 1688.90 905.40" stroke="black" stroke-width="4" fill="none" stroke-linecap="round" stroke-linejoin="round"/>
  <path d="M 1652.40 851.83 L 1655.58 844.33 L 1651.77 836.87 L 1641.48 830.53 L 1626.32 826.32 L 1608.66 824.86 L 1591.10 826.32 L 1576.18 830.53 L 1566.29 836.87 L 1562.93 844.33 L 1566.57 851.83 L 1576.78 858.24 L 1592.02 862.53 L 1609.85 864.02 L 1627.60 862.53 L 1642.58 858.24 L 1652.40 851.83 L 1642.58 858.24 L 1627.60 862.53 L 1609.85 864.02 L 1592.02 862.53 L 1576.78 858.24 L 1566.57 851.83 L 1562.93 844.33 L 1566.29 836.87 L 1576.18 830.53 L 1591.10 826.32 L 1608.66 824.86 L 1626.32 826.32 L 1641.48 830.53 L 1651.77 836.87 L 1655.58 844.33 L 1652.40 851.83 L 1642.58 858.24" stroke="black" stroke-width="4" fill="none" stroke-linecap="round" stroke-linejoin="round"/>
  <path d="M 1562.93 844.33 L 1562.80 872.42 L 1566.43 879.96 L 1576.61 886.40 L 1591.83 890.72 L 1609.62 892.22 L 1627.33 890.72 L 1642.28 886.40 L 1652.08 879.96 L 1655.25 872.42 L 1655.58 844.33" stroke="black" stroke-width="4" fill="none" stroke-linecap="round" stroke-linejoin="round"/>
  <path d="M 1651.77 836.87 L 1641.48 830.53" stroke="black" stroke-width="4" fill="none" stroke-linecap="round" stroke-linejoin="round"/>
  <path d="M 1626.32 826.32 L 1608.66 824.86" stroke="black" stroke-width="4" fill="none" stroke-linecap="round" stroke-linejoin="round"/>
  <path d="M 1591.10 826.32 L 1576.18 830.53" stroke="black" stroke-width="4" fill="none" stroke-linecap="round" stroke-linejoin="round"/>
  <path d="M 1566.29 836.87 L 1562.93 844.33 L 1566.57 851.83" stroke="black" stroke-width="4" fill="none" stroke-linecap="round" stroke-linejoin="round"/>
  <path d="M 1576.78 858.24 L 1592.02 862.53" stroke="black" stroke-width="4" fill="none" stroke-linecap="round" stroke-linejoin="round"/>
  <path d="M 1609.85 864.02 L 1627.60 862.53" stroke="black" stroke-width="4" fill="none" stroke-linecap="round" stroke-linejoin="round"/>
  <path d="M 1542.37 806.05 L 1545.74 798.74 L 1542.20 791.46 L 1532.24 785.28 L 1517.39 781.18 L 1500.00 779.75 L 1482.61 781.18 L 1467.76 785.28 L 1457.80 791.46 L 1454.27 798.74 L 1457.63 806.05 L 1467.52 812.30 L 1482.44 816.47 L 1500.00 817.93 L 1517.56 816.47 L 1532.48 812.30 L 1542.37 806.05 L 1532.48 812.30 L 1517.56 816.47 L 1500.00 817.93 L 1482.44 816.47 L 1467.52 812.30 L 1457.63 806.05 L 1454.27 798.74 L 1457.80 791.46 L 1467.76 785.28 L 1482.61 781.18 L 1500.00 779.75 L 1517.39 781.18 L 1532.24 785.28 L 1542.20 791.46 L 1545.74 798.74 L 1542.37 806.05 L 1532.48 812.30" stroke="black" stroke-width="4" fill="none" stroke-linecap="round" stroke-linejoin="round"/>
  <path d="M 1454.27 798.74 L 1454.36 826.56 L 1457.72 833.91 L 1467.58 840.19 L 1482.47 844.40 L 1500.00 845.86 L 1517.53 844.40 L 1532.42 840.19 L 1542.28 833.91 L 1545.64 826.56 L 1545.74 798.74" stroke="black" stroke-width="4" fill="none" stroke-linecap="round" stroke-linejoin="round"/>
  <path d="M 1542.20 791.46 L 1532.24 785.28" stroke="black" stroke-width="4" fill="none" stroke-linecap="round" stroke-linejoin="round"/>
  <path d="M 1517.39 781.18 L 1500.00 779.75" stroke="black" stroke-width="4" fill="none" stroke-linecap="round" stroke-linejoin="round"/>
  <path d="M 1482.61 781.18 L 1467.76 785.28" stroke="black" stroke-width="4" fill="none" stroke-linecap="round" stroke-linejoin="round"/>
  <path d="M 1457.80 791.46 L 1454.27 798.74 L 1457.63 806.05" stroke="black" stroke-width="4" fill="none" stroke-linecap="round" stroke-linejoin="round"/>
  <path d="M 1467.52 812.30 L 1482.44 816.47" stroke="black" stroke-width="4" fill="none" stroke-linecap="round" stroke-linejoin="round"/>
  <path d="M 1500.00 817.93 L 1517.56 816.47" stroke="black" stroke-width="4" fill="none" stroke-linecap="round" stroke-linejoin="round"/>
  <path d="M 1435.11 761.41 L 1438.65 754.29 L 1435.37 747.19 L 1425.72 741.17 L 1411.18 737.17 L 1394.05 735.77 L 1376.84 737.17 L 1362.05 741.17 L 1352.04 747.19 L 1348.33 754.29 L 1351.43 761.41 L 1361.01 767.50 L 1375.62 771.58 L 1392.92 773.00 L 1410.30 771.58 L 1425.16 767.50 L 1435.11 761.41" stroke="black" stroke-width="4" fill="none" stroke-linecap="round" stroke-linejoin="round"/>
  <path d="M 1348.33 754.29 L 1348.64 781.85 L 1351.74 789.02 L 1361.30 795.14 L 1375.88 799.24 L 1393.14 800.67 L 1410.49 799.24 L 1425.31 795.14 L 1435.24 789.02 L 1438.78 781.85 L 1438.65 754.29" stroke="black" stroke-width="4" fill="none" stroke-linecap="round" stroke-linejoin="round"/>
  <path d="M 1392.92 773.00 L 1410.30 771.58 L 1425.16 767.50 L 1410.30 771.58 L 1392.92 773.00 L 1375.62 771.58 L 1361.01 767.50 L 1351.43 761.41 L 1348.33 754.29 L 1352.04 747.19 L 1362.05 741.17 L 1376.84 737.17 L 1394.05 735.77 L 1411.18 737.17 L 1425.72 741.17 L 1435.37 747.19 L 1438.65 754.29 L 1435.11 761.41 L 1425.16 767.50" stroke="black" stroke-width="4" fill="none" stroke-linecap="round" stroke-linejoin="round"/>
  <path d="M 1425.72 741.17 L 1411.18 737.17 L 1394.05 735.77" stroke="black" stroke-width="4" fill="none" stroke-linecap="round" stroke-linejoin="round"/>
  <path d="M 1362.05 741.17 L 1352.04 747.19 L 1348.33 754.29 L 1351.43 761.41 L 1361.01 767.50" stroke="black" stroke-width="4" fill="none" stroke-linecap="round" stroke-linejoin="round"/>
  <path d="M 1656.44 947.04 L 1659.69 939.14 L 1655.77 931.28 L 1645.21 924.60 L 1629.64 920.17 L 1611.52 918.63 L 1593.49 920.17 L 1578.19 924.60 L 1568.04 931.28 L 1564.59 939.14 L 1568.33 947.04 L 1578.81 953.80 L 1594.47 958.32 L 1612.78 959.89 L 1630.99 958.32 L 1646.37 953.80 L 1656.44 947.04" stroke="black" stroke-width="4" fill="none" stroke-linecap="round" stroke-linejoin="round"/>
  <path d="M 1564.59 939.14 L 1564.46 967.76 L 1568.18 975.71 L 1578.64 982.50 L 1594.26 987.04 L 1612.53 988.63 L 1630.71 987.04 L 1646.05 982.50 L 1656.10 975.71 L 1659.35 967.76 L 1659.69 939.14" stroke="black" stroke-width="4" fill="none" stroke-linecap="round" stroke-linejoin="round"/>
  <path d="M 1612.78 959.89 L 1630.99 958.32 L 1646.37 953.80 L 1630.99 958.32 L 1612.78 959.89 L 1594.47 958.32 L 1578.81 953.80 L 1568.33 947.04 L 1564.59 939.14 L 1568.04 931.28 L 1578.19 924.60 L 1593.49 920.17 L 1611.52 918.63 L 1629.64 920.17 L 1645.21 924.60 L 1655.77 931.28 L 1659.69 939.14 L 1656.44 947.04 L 1646.37 953.80" stroke="black" stroke-width="4" fill="none" stroke-linecap="round" stroke-linejoin="round"/>
  <path d="M 1645.21 924.60 L 1629.64 920.17 L 1611.52 918.63" stroke="black" stroke-width="4" fill="none" stroke-linecap="round" stroke-linejoin="round"/>
  <path d="M 1578.19 924.60 L 1568.04 931.28 L 1564.59 939.14 L 1568.33 947.04 L 1578.81 953.80" stroke="black" stroke-width="4" fill="none" stroke-linecap="round" stroke-linejoin="round"/>
  <path d="M 1543.48 898.82 L 1546.93 891.12 L 1543.30 883.46 L 1533.07 876.96 L 1517.84 872.64 L 1500.00 871.14 L 1482.16 872.64 L 1466.93 876.96 L 1456.71 883.46 L 1453.07 891.12 L 1456.52 898.82 L 1466.67 905.40 L 1481.98 909.80 L 1500.00 911.33 L 1518.02 909.80 L 1533.33 905.40 L 1543.48 898.82 L 1533.33 905.40 L 1518.02 909.80 L 1500.00 911.33 L 1481.98 909.80 L 1466.67 905.40 L 1456.52 898.82 L 1453.07 891.12 L 1456.71 883.46 L 1466.93 876.96 L 1482.16 872.64 L 1500.00 871.14 L 1517.84 872.64 L 1533.07 876.96 L 1543.30 883.46 L 1546.93 891.12 L 1543.48 898.82 L 1533.33 905.40" stroke="black" stroke-width="4" fill="none" stroke-linecap="round" stroke-linejoin="round"/>
  <path d="M 1453.07 891.12 L 1453.17 919.47 L 1456.61 927.21 L 1466.74 933.82 L 1482.02 938.25 L 1500.00 939.79 L 1517.98 938.25 L 1533.26 933.82 L 1543.39 927.21 L 1546.83 919.47 L 1546.93 891.12" stroke="black" stroke-width="4" fill="none" stroke-linecap="round" stroke-linejoin="round"/>
  <path d="M 1543.30 883.46 L 1533.07 876.96" stroke="black" stroke-width="4" fill="none" stroke-linecap="round" stroke-linejoin="round"/>
  <path d="M 1517.84 872.64 L 1500.00 871.14" stroke="black" stroke-width="4" fill="none" stroke-linecap="round" stroke-linejoin="round"/>
  <path d="M 1482.16 872.64 L 1466.93 876.96" stroke="black" stroke-width="4" fill="none" stroke-linecap="round" stroke-linejoin="round"/>
  <path d="M 1456.71 883.46 L 1453.07 891.12 L 1456.52 898.82" stroke="black" stroke-width="4" fill="none" stroke-linecap="round" stroke-linejoin="round"/>
  <path d="M 1466.67 905.40 L 1481.98 909.80" stroke="black" stroke-width="4" fill="none" stroke-linecap="round" stroke-linejoin="round"/>
  <path d="M 1500.00 911.33 L 1518.02 909.80" stroke="black" stroke-width="4" fill="none" stroke-linecap="round" stroke-linejoin="round"/>
  <path d="M 1433.43 851.83 L 1437.07 844.33 L 1433.71 836.87 L 1423.82 830.53 L 1408.90 826.32 L 1391.34 824.86 L 1373.68 826.32 L 1358.52 830.53 L 1348.23 836.87 L 1344.42 844.33 L 1347.60 851.83 L 1357.42 858.24 L 1372.40 862.53 L 1390.15 864.02 L 1407.98 862.53 L 1423.23 858.24 L 1433.43 851.83 L 1423.23 858.24 L 1407.98 862.53 L 1390.15 864.02 L 1372.40 862.53 L 1357.42 858.24 L 1347.60 851.83 L 1344.42 844.33 L 1348.23 836.87 L 1358.52 830.53 L 1373.68 826.32 L 1391.34 824.86 L 1408.90 826.32 L 1423.82 830.53 L 1433.71 836.87 L 1437.07 844.33 L 1433.43 851.83 L 1423.23 858.24" stroke="black" stroke-width="4" fill="none" stroke-linecap="round" stroke-linejoin="round"/>
  <path d="M 1344.42 844.33 L 1344.75 872.42 L 1347.92 879.96 L 1357.72 886.40 L 1372.67 890.72 L 1390.38 892.22 L 1408.17 890.72 L 1423.39 886.40 L 1433.57 879.96 L 1437.20 872.42 L 1437.07 844.33" stroke="black" stroke-width="4" fill="none" stroke-linecap="round" stroke-linejoin="round"/>
  <path d="M 1433.71 836.87 L 1423.82 830.53" stroke="black" stroke-width="4" fill="none" stroke-linecap="round" stroke-linejoin="round"/>
  <path d="M 1408.90 826.32 L 1391.34 824.86" stroke="black" stroke-width="4" fill="none" stroke-linecap="round" stroke-linejoin="round"/>
  <path d="M 1373.68 826.32 L 1358.52 830.53" stroke="black" stroke-width="4" fill="none" stroke-linecap="round" stroke-linejoin="round"/>
  <path d="M 1348.23 836.87 L 1344.42 844.33 L 1347.60 851.83" stroke="black" stroke-width="4" fill="none" stroke-linecap="round" stroke-linejoin="round"/>
  <path d="M 1357.42 858.24 L 1372.40 862.53" stroke="black" stroke-width="4" fill="none" stroke-linecap="round" stroke-linejoin="round"/>
  <path d="M 1390.15 864.02 L 1407.98 862.53" stroke="black" stroke-width="4" fill="none" stroke-linecap="round" stroke-linejoin="round"/>
  <path d="M 1326.19 806.05 L 1330.00 798.74 L 1326.91 791.46 L 1317.33 785.28 L 1302.73 781.18 L 1285.43 779.75 L 1267.95 781.18 L 1252.85 785.28 L 1242.52 791.46 L 1238.53 798.74 L 1241.45 806.05 L 1250.96 812.30 L 1265.63 816.47 L 1283.10 817.93 L 1300.75 816.47 L 1315.93 812.30 L 1326.19 806.05" stroke="black" stroke-width="4" fill="none" stroke-linecap="round" stroke-linejoin="round"/>
  <path d="M 1238.53 798.74 L 1239.08 826.56 L 1241.99 833.91 L 1251.48 840.19 L 1266.11 844.40 L 1283.55 845.86 L 1301.16 844.40 L 1316.31 840.19 L 1326.55 833.91 L 1330.36 826.56 L 1330.00 798.74" stroke="black" stroke-width="4" fill="none" stroke-linecap="round" stroke-linejoin="round"/>
  <path d="M 1283.10 817.93 L 1300.75 816.47 L 1315.93 812.30 L 1300.75 816.47 L 1283.10 817.93 L 1265.63 816.47 L 1250.96 812.30 L 1241.45 806.05 L 1238.53 798.74 L 1242.52 791.46 L 1252.85 785.28 L 1267.95 781.18 L 1285.43 779.75 L 1302.73 781.18 L 1317.33 785.28 L 1326.91 791.46 L 1330.00 798.74 L 1326.19 806.05 L 1315.93 812.30" stroke="black" stroke-width="4" fill="none" stroke-linecap="round" stroke-linejoin="round"/>
  <path d="M 1317.33 785.28 L 1302.73 781.18 L 1285.43 779.75" stroke="black" stroke-width="4" fill="none" stroke-linecap="round" stroke-linejoin="round"/>
  <path d="M 1252.85 785.28 L 1242.52 791.46 L 1238.53 798.74 L 1241.45 806.05 L 1250.96 812.30" stroke="black" stroke-width="4" fill="none" stroke-linecap="round" stroke-linejoin="round"/>
  <path d="M 1807.78 1865.42 L 1745.81 1832.95" stroke="black" stroke-width="4" fill="none" stroke-linecap="round" stroke-linejoin="round"/>
  <path d="M 1259.59 1725.85 L 1199.49 1756.62 L 1605.14 1979.62 L 1807.78 1865.42 L 1804.18 2010.16 L 1603.87 2126.53 L 1804.18 2010.16 L 1603.87 2126.53 L 1202.93 1899.22 L 1603.87 2126.53 L 1602.64 2269.95 L 1206.29 2038.60 L 1202.93 1899.22 L 1603.87 2126.53 L 1804.18 2010.16 L 1800.65 2151.54 L 1602.64 2269.95" stroke="black" stroke-width="4" fill="none" stroke-linecap="round" stroke-linejoin="round"/>
  <path d="M 1605.14 1979.62 L 1603.87 2126.53 L 1202.93 1899.22 L 1199.49 1756.62" stroke="black" stroke-width="4" fill="none" stroke-linecap="round" stroke-linejoin="round"/>
  <path d="M 1661.69 1865.42 L 1665.29 1874.47 L 1675.04 1882.20 L 1689.46 1887.37 L 1706.24 1889.17 L 1722.86 1887.37 L 1736.82 1882.20 L 1745.88 1874.47 L 1748.69 1865.42" stroke="black" stroke-width="4" fill="none" stroke-linecap="round" stroke-linejoin="round"/>
  <path d="M 1558.39 1810.37 L 1561.75 1819.20 L 1571.21 1826.75 L 1585.35 1831.80 L 1601.88 1833.55 L 1618.34 1831.80 L 1632.25 1826.75 L 1641.38 1819.20 L 1644.35 1810.37" stroke="black" stroke-width="4" fill="none" stroke-linecap="round" stroke-linejoin="round"/>
  <path d="M 1457.53 1756.62 L 1460.66 1765.24 L 1469.84 1772.61 L 1478.44 1775.67 L 1483.70 1777.54 L 1500.00 1779.26 L 1516.30 1777.54 L 1530.16 1772.61 L 1539.34 1765.24 L 1542.47 1756.62" stroke="black" stroke-width="4" fill="none" stroke-linecap="round" stroke-linejoin="round"/>
  <path d="M 1359.02 1704.13 L 1361.93 1712.55 L 1370.85 1719.75 L 1384.43 1724.56 L 1400.51 1726.24 L 1416.66 1724.56 L 1430.46 1719.75 L 1439.38 1712.79 L 1442.98 1704.13" stroke="black" stroke-width="4" fill="none" stroke-linecap="round" stroke-linejoin="round"/>
  <path d="M 1559.82 1921.82 L 1563.27 1931.09 L 1572.96 1939.01 L 1581.95 1942.30 L 1587.45 1944.31 L 1604.39 1946.15 L 1621.25 1944.31 L 1635.50 1939.01 L 1644.85 1931.09 L 1647.88 1921.82" stroke="black" stroke-width="4" fill="none" stroke-linecap="round" stroke-linejoin="round"/>
  <path d="M 1543.50 1865.42 L 1540.30 1874.47 L 1539.98 1874.73 L 1530.89 1882.20 L 1516.70 1887.37 L 1500.00 1889.17 L 1483.30 1887.37 L 1469.11 1882.20 L 1459.70 1874.47 L 1456.50 1865.42" stroke="black" stroke-width="4" fill="none" stroke-linecap="round" stroke-linejoin="round"/>
  <path d="M 1355.65 1810.37 L 1358.62 1819.20 L 1367.75 1826.75 L 1381.66 1831.80 L 1398.12 1833.55 L 1414.65 1831.80 L 1428.79 1826.75 L 1438.25 1819.20 L 1441.61 1810.37" stroke="black" stroke-width="4" fill="none" stroke-linecap="round" stroke-linejoin="round"/>
  <path d="M 1257.19 1756.62 L 1259.93 1765.24 L 1268.79 1772.61 L 1282.42 1777.54 L 1298.65 1779.26 L 1315.03 1777.54 L 1329.11 1772.61 L 1338.62 1765.24 L 1342.13 1756.62" stroke="black" stroke-width="4" fill="none" stroke-linecap="round" stroke-linejoin="round"/>
  <path d="M 1177.07 826.56 L 1613.40 1017.35 L 1831.34 919.47 L 1768.25 893.26" stroke="black" stroke-width="4" fill="none" stroke-linecap="round" stroke-linejoin="round"/>
  <path d="M 1238.59 801.63 L 1177.07 826.56 L 1181.04 991.09 L 1611.93 1188.09 L 1610.50 1354.48 L 1184.91 1151.62 L 1610.50 1354.48 L 1823.09 1250.47 L 1610.50 1354.48 L 1823.09 1250.47 L 1827.16 1087.06 L 1611.93 1188.09 L 1181.04 991.09 L 1184.91 1151.62 L 1610.50 1354.48 L 1609.11 1516.67 L 1188.68 1308.31 L 1184.91 1151.62 L 1610.50 1354.48 L 1823.09 1250.47 L 1819.12 1409.88 L 1609.11 1516.67" stroke="black" stroke-width="4" fill="none" stroke-linecap="round" stroke-linejoin="round"/>
  <path d="M 1613.40 1017.35 L 1611.93 1188.09 L 1181.04 991.09 L 1611.93 1188.09 L 1827.16 1087.06 L 1611.93 1188.09 L 1827.16 1087.06 L 1831.34 919.47" stroke="black" stroke-width="4" fill="none" stroke-linecap="round" stroke-linejoin="round"/>
  <path d="M 1674.06 919.47 L 1677.97 927.21 L 1688.49 933.82 L 1704.04 938.25 L 1722.12 939.79 L 1740.01 938.25 L 1755.02 933.82 L 1764.74 927.21 L 1767.72 919.47" stroke="black" stroke-width="4" fill="none" stroke-linecap="round" stroke-linejoin="round"/>
  <path d="M 1562.80 872.42 L 1566.43 879.96 L 1576.61 886.40 L 1591.83 890.72 L 1609.62 892.22 L 1627.33 890.72 L 1642.28 886.40 L 1652.08 879.96 L 1655.25 872.42" stroke="black" stroke-width="4" fill="none" stroke-linecap="round" stroke-linejoin="round"/>
  <path d="M 1454.36 826.56 L 1457.72 833.91 L 1467.58 840.19 L 1476.83 842.80 L 1482.47 844.40 L 1500.00 845.86 L 1517.53 844.40 L 1532.42 840.19 L 1542.28 833.91 L 1545.64 826.56" stroke="black" stroke-width="4" fill="none" stroke-linecap="round" stroke-linejoin="round"/>
  <path d="M 1435.24 789.02 L 1438.78 781.85" stroke="black" stroke-width="4" fill="none" stroke-linecap="round" stroke-linejoin="round"/>
  <path d="M 1348.64 781.85 L 1351.74 789.02 L 1361.30 795.14 L 1375.88 799.24 L 1393.14 800.67 L 1410.49 799.24 L 1425.31 795.14" stroke="black" stroke-width="4" fill="none" stroke-linecap="round" stroke-linejoin="round"/>
  <path d="M 1594.26 987.04 L 1612.53 988.63 L 1630.71 987.04 L 1646.05 982.50 L 1656.10 975.71 L 1659.35 967.76" stroke="black" stroke-width="4" fill="none" stroke-linecap="round" stroke-linejoin="round"/>
  <path d="M 1564.46 967.76 L 1568.18 975.71 L 1578.64 982.50" stroke="black" stroke-width="4" fill="none" stroke-linecap="round" stroke-linejoin="round"/>
  <path d="M 1546.83 919.47 L 1543.39 927.21 L 1543.04 927.43 L 1533.26 933.82 L 1517.98 938.25 L 1500.00 939.79 L 1482.02 938.25 L 1466.74 933.82 L 1456.61 927.21 L 1453.17 919.47" stroke="black" stroke-width="4" fill="none" stroke-linecap="round" stroke-linejoin="round"/>
  <path d="M 1344.75 872.42 L 1347.92 879.96 L 1357.72 886.40 L 1372.67 890.72 L 1390.38 892.22 L 1408.17 890.72 L 1423.39 886.40 L 1433.57 879.96 L 1437.20 872.42" stroke="black" stroke-width="4" fill="none" stroke-linecap="round" stroke-linejoin="round"/>
  <path d="M 1239.08 826.56 L 1241.99 833.91 L 1251.48 840.19 L 1266.11 844.40 L 1283.55 845.86 L 1301.16 844.40 L 1316.31 840.19 L 1326.55 833.91 L 1330.36 826.56" stroke="black" stroke-width="4" fill="none" stroke-linecap="round" stroke-linejoin="round"/>
</svg>
