<?xml version="1.0" ?>
<svg xmlns="http://www.w3.org/2000/svg" version="1.1" width="674.36px" height="3000px" viewBox="1166.82 0 674.36 3000">
  <polygon points="1402.78,1580.41 1201.40,1681.85 1604.50,1899.92 1805.87,1788.23" fill="#60afff" stroke="#60afff" stroke-width="0.5" stroke-linecap="round" stroke-linejoin="round"/>
  <polygon points="1603.24,2046.82 1604.50,1899.92 1201.40,1681.85 1204.83,1824.36" fill="#60afff" stroke="#60afff" stroke-width="0.5" stroke-linecap="round" stroke-linejoin="round"/>
  <polygon points="1401.66,1436.80 1197.88,1535.98 1605.79,1749.38 1809.56,1640.06" fill="#afbfd6" stroke="#afbfd6" stroke-width="0.5" stroke-linecap="round" stroke-linejoin="round"/>
  <polygon points="1604.50,1899.92 1605.79,1749.38 1197.88,1535.98 1201.40,1681.85" fill="#afbfd6" stroke="#afbfd6" stroke-width="0.5" stroke-linecap="round" stroke-linejoin="round"/>
  <polygon points="1805.87,1788.23 1604.50,1899.92 1603.24,2046.82 1802.27,1932.92" fill="#60afff" stroke="#60afff" stroke-width="0.5" stroke-linecap="round" stroke-linejoin="round"/>
  <polygon points="1400.51,1289.85 1194.28,1386.64 1607.12,1595.08 1813.34,1488.26" fill="#e2f999" stroke="#e2f999" stroke-width="0.5" stroke-linecap="round" stroke-linejoin="round"/>
  <polygon points="1352.88,1004.42 1353.17,1030.67 1356.19,1038.10 1355.90,1011.81" fill="#f7ad63" stroke="#f7ad63" stroke-width="0.5" stroke-linecap="round" stroke-linejoin="round"/>
  <polygon points="1437.06,1011.81 1437.18,1038.10 1440.61,1030.67 1440.49,1004.42" fill="#f7ad63" stroke="#f7ad63" stroke-width="0.5" stroke-linecap="round" stroke-linejoin="round"/>
  <polygon points="1379.36,1022.36 1396.14,1023.83 1413.00,1022.36 1427.41,1018.14 1437.06,1011.81 1440.49,1004.42 1437.31,997.06 1427.94,990.81 1413.84,986.65 1397.22,985.21 1380.52,986.65 1366.18,990.81 1356.47,997.06 1352.88,1004.42 1355.90,1011.81 1365.19,1018.14" fill="#f7ad63" stroke="#f7ad63" stroke-width="0.5" stroke-linecap="round" stroke-linejoin="round"/>
  <polygon points="1427.41,1018.14 1427.56,1044.46 1437.18,1038.10 1437.06,1011.81" fill="#f7ad63" stroke="#f7ad63" stroke-width="0.5" stroke-linecap="round" stroke-linejoin="round"/>
  <polygon points="1355.90,1011.81 1356.19,1038.10 1365.46,1044.46 1365.19,1018.14" fill="#f7ad63" stroke="#f7ad63" stroke-width="0.5" stroke-linecap="round" stroke-linejoin="round"/>
  <polygon points="1365.19,1018.14 1365.46,1044.46 1379.61,1048.71 1379.36,1022.36" fill="#f7ad63" stroke="#f7ad63" stroke-width="0.5" stroke-linecap="round" stroke-linejoin="round"/>
  <polygon points="1413.00,1022.36 1413.18,1048.71 1427.56,1044.46 1427.41,1018.14" fill="#f7ad63" stroke="#f7ad63" stroke-width="0.5" stroke-linecap="round" stroke-linejoin="round"/>
  <polygon points="1396.14,1023.83 1396.35,1050.19 1413.18,1048.71 1413.00,1022.36" fill="#f7ad63" stroke="#f7ad63" stroke-width="0.5" stroke-linecap="round" stroke-linejoin="round"/>
  <polygon points="1379.36,1022.36 1379.61,1048.71 1396.35,1050.19 1396.14,1023.83" fill="#f7ad63" stroke="#f7ad63" stroke-width="0.5" stroke-linecap="round" stroke-linejoin="round"/>
  <polygon points="1605.79,1749.38 1607.12,1595.08 1194.28,1386.64 1197.88,1535.98" fill="#e2f999" stroke="#e2f999" stroke-width="0.5" stroke-linecap="round" stroke-linejoin="round"/>
  <polygon points="1809.56,1640.06 1605.79,1749.38 1604.50,1899.92 1805.87,1788.23" fill="#afbfd6" stroke="#afbfd6" stroke-width="0.5" stroke-linecap="round" stroke-linejoin="round"/>
  <polygon points="1399.34,1139.44 1190.60,1233.70 1608.47,1436.86 1817.21,1332.72" fill="#a5c916" stroke="#a5c916" stroke-width="0.5" stroke-linecap="round" stroke-linejoin="round"/>
  <polygon points="1246.43,1050.54 1246.95,1077.02 1249.79,1084.64 1249.28,1058.12" fill="#f7ad63" stroke="#f7ad63" stroke-width="0.5" stroke-linecap="round" stroke-linejoin="round"/>
  <polygon points="1541.09,1058.12 1541.01,1084.64 1544.26,1077.02 1544.35,1050.54" fill="#f7ad63" stroke="#f7ad63" stroke-width="0.5" stroke-linecap="round" stroke-linejoin="round"/>
  <polygon points="1331.45,1058.12 1331.80,1084.64 1335.48,1077.02 1335.14,1050.54" fill="#f7ad63" stroke="#f7ad63" stroke-width="0.5" stroke-linecap="round" stroke-linejoin="round"/>
  <polygon points="1455.65,1050.54 1455.74,1077.02 1459.00,1084.64 1458.91,1058.12" fill="#f7ad63" stroke="#f7ad63" stroke-width="0.5" stroke-linecap="round" stroke-linejoin="round"/>
  <polygon points="1516.86,1032.32 1500.00,1030.84 1483.14,1032.32 1468.74,1036.58 1459.08,1042.99 1455.65,1050.54 1458.91,1058.12 1468.50,1064.60 1482.97,1068.93 1500.00,1070.44 1517.03,1068.93 1531.50,1064.60 1541.09,1058.12 1544.35,1050.54 1540.92,1042.99 1531.26,1036.58" fill="#f7ad63" stroke="#f7ad63" stroke-width="0.5" stroke-linecap="round" stroke-linejoin="round"/>
  <polygon points="1258.50,1064.60 1272.73,1068.93 1289.67,1070.44 1306.79,1068.93 1321.50,1064.60 1331.45,1058.12 1335.14,1050.54 1332.13,1042.99 1322.83,1036.58 1308.67,1032.32 1291.89,1030.84 1274.94,1032.32 1260.30,1036.58 1250.29,1042.99 1246.43,1050.54 1249.28,1058.12" fill="#f7ad63" stroke="#f7ad63" stroke-width="0.5" stroke-linecap="round" stroke-linejoin="round"/>
  <polygon points="1531.50,1064.60 1531.44,1091.15 1541.01,1084.64 1541.09,1058.12" fill="#f7ad63" stroke="#f7ad63" stroke-width="0.5" stroke-linecap="round" stroke-linejoin="round"/>
  <polygon points="1249.28,1058.12 1249.79,1084.64 1258.99,1091.15 1258.50,1064.60" fill="#f7ad63" stroke="#f7ad63" stroke-width="0.5" stroke-linecap="round" stroke-linejoin="round"/>
  <polygon points="1458.91,1058.12 1459.00,1084.64 1468.56,1091.15 1468.50,1064.60" fill="#f7ad63" stroke="#f7ad63" stroke-width="0.5" stroke-linecap="round" stroke-linejoin="round"/>
  <polygon points="1321.50,1064.60 1321.87,1091.15 1331.80,1084.64 1331.45,1058.12" fill="#f7ad63" stroke="#f7ad63" stroke-width="0.5" stroke-linecap="round" stroke-linejoin="round"/>
  <polygon points="1258.50,1064.60 1258.99,1091.15 1273.19,1095.51 1272.73,1068.93" fill="#f7ad63" stroke="#f7ad63" stroke-width="0.5" stroke-linecap="round" stroke-linejoin="round"/>
  <polygon points="1468.50,1064.60 1468.56,1091.15 1483.01,1095.51 1482.97,1068.93" fill="#f7ad63" stroke="#f7ad63" stroke-width="0.5" stroke-linecap="round" stroke-linejoin="round"/>
  <polygon points="1517.03,1068.93 1516.99,1095.51 1531.44,1091.15 1531.50,1064.60" fill="#f7ad63" stroke="#f7ad63" stroke-width="0.5" stroke-linecap="round" stroke-linejoin="round"/>
  <polygon points="1306.79,1068.93 1307.18,1095.51 1321.87,1091.15 1321.50,1064.60" fill="#f7ad63" stroke="#f7ad63" stroke-width="0.5" stroke-linecap="round" stroke-linejoin="round"/>
  <polygon points="1289.67,1070.44 1290.10,1097.03 1307.18,1095.51 1306.79,1068.93" fill="#f7ad63" stroke="#f7ad63" stroke-width="0.5" stroke-linecap="round" stroke-linejoin="round"/>
  <polygon points="1272.73,1068.93 1273.19,1095.51 1290.10,1097.03 1289.67,1070.44" fill="#f7ad63" stroke="#f7ad63" stroke-width="0.5" stroke-linecap="round" stroke-linejoin="round"/>
  <polygon points="1482.97,1068.93 1483.01,1095.51 1500.00,1097.03 1500.00,1070.44" fill="#f7ad63" stroke="#f7ad63" stroke-width="0.5" stroke-linecap="round" stroke-linejoin="round"/>
  <polygon points="1500.00,1070.44 1500.00,1097.03 1516.99,1095.51 1517.03,1068.93" fill="#f7ad63" stroke="#f7ad63" stroke-width="0.5" stroke-linecap="round" stroke-linejoin="round"/>
  <polygon points="1607.12,1595.08 1608.47,1436.86 1190.60,1233.70 1194.28,1386.64" fill="#a5c916" stroke="#a5c916" stroke-width="0.5" stroke-linecap="round" stroke-linejoin="round"/>
  <polygon points="1813.34,1488.26 1607.12,1595.08 1605.79,1749.38 1809.56,1640.06" fill="#e2f999" stroke="#e2f999" stroke-width="0.5" stroke-linecap="round" stroke-linejoin="round"/>
  <polygon points="1398.14,985.45 1186.82,1077.02 1609.87,1274.58 1821.18,1173.28" fill="#f7ad63" stroke="#f7ad63" stroke-width="0.5" stroke-linecap="round" stroke-linejoin="round"/>
  <polygon points="1647.75,1105.59 1647.45,1132.35 1650.53,1124.54 1650.84,1097.82" fill="#f7ad63" stroke="#f7ad63" stroke-width="0.5" stroke-linecap="round" stroke-linejoin="round"/>
  <polygon points="1349.16,1097.82 1349.47,1124.54 1352.55,1132.35 1352.25,1105.59" fill="#f7ad63" stroke="#f7ad63" stroke-width="0.5" stroke-linecap="round" stroke-linejoin="round"/>
  <polygon points="1435.46,1105.59 1435.60,1132.35 1439.11,1124.54 1438.99,1097.82" fill="#f7ad63" stroke="#f7ad63" stroke-width="0.5" stroke-linecap="round" stroke-linejoin="round"/>
  <polygon points="1561.01,1097.82 1560.89,1124.54 1564.40,1132.35 1564.54,1105.59" fill="#f7ad63" stroke="#f7ad63" stroke-width="0.5" stroke-linecap="round" stroke-linejoin="round"/>
  <polygon points="1362.81,1083.51 1352.85,1090.08 1349.16,1097.82 1352.25,1105.59 1361.77,1112.24 1376.30,1116.68 1393.50,1118.23 1410.79,1116.68 1425.57,1112.24 1435.46,1105.59 1438.99,1097.82 1435.73,1090.08 1426.13,1083.51 1411.67,1079.14 1394.64,1077.63 1377.52,1079.14" fill="#f7ad63" stroke="#f7ad63" stroke-width="0.5" stroke-linecap="round" stroke-linejoin="round"/>
  <polygon points="1647.75,1105.59 1650.84,1097.82 1647.15,1090.08 1637.19,1083.51 1622.48,1079.14 1605.36,1077.63 1588.33,1079.14 1573.87,1083.51 1564.27,1090.08 1561.01,1097.82 1564.54,1105.59 1574.43,1112.24 1589.21,1116.68 1606.50,1118.23 1623.70,1116.68 1638.23,1112.24" fill="#f7ad63" stroke="#f7ad63" stroke-width="0.5" stroke-linecap="round" stroke-linejoin="round"/>
  <polygon points="1352.25,1105.59 1352.55,1132.35 1362.05,1139.03 1361.77,1112.24" fill="#f7ad63" stroke="#f7ad63" stroke-width="0.5" stroke-linecap="round" stroke-linejoin="round"/>
  <polygon points="1638.23,1112.24 1637.95,1139.03 1647.45,1132.35 1647.75,1105.59" fill="#f7ad63" stroke="#f7ad63" stroke-width="0.5" stroke-linecap="round" stroke-linejoin="round"/>
  <polygon points="1425.57,1112.24 1425.72,1139.03 1435.60,1132.35 1435.46,1105.59" fill="#f7ad63" stroke="#f7ad63" stroke-width="0.5" stroke-linecap="round" stroke-linejoin="round"/>
  <polygon points="1564.54,1105.59 1564.40,1132.35 1574.28,1139.03 1574.43,1112.24" fill="#f7ad63" stroke="#f7ad63" stroke-width="0.5" stroke-linecap="round" stroke-linejoin="round"/>
  <polygon points="1623.70,1116.68 1623.45,1143.50 1637.95,1139.03 1638.23,1112.24" fill="#f7ad63" stroke="#f7ad63" stroke-width="0.5" stroke-linecap="round" stroke-linejoin="round"/>
  <polygon points="1410.79,1116.68 1410.97,1143.50 1425.72,1139.03 1425.57,1112.24" fill="#f7ad63" stroke="#f7ad63" stroke-width="0.5" stroke-linecap="round" stroke-linejoin="round"/>
  <polygon points="1361.77,1112.24 1362.05,1139.03 1376.55,1143.50 1376.30,1116.68" fill="#f7ad63" stroke="#f7ad63" stroke-width="0.5" stroke-linecap="round" stroke-linejoin="round"/>
  <polygon points="1574.43,1112.24 1574.28,1139.03 1589.03,1143.50 1589.21,1116.68" fill="#f7ad63" stroke="#f7ad63" stroke-width="0.5" stroke-linecap="round" stroke-linejoin="round"/>
  <polygon points="1393.50,1118.23 1393.72,1145.06 1410.97,1143.50 1410.79,1116.68" fill="#f7ad63" stroke="#f7ad63" stroke-width="0.5" stroke-linecap="round" stroke-linejoin="round"/>
  <polygon points="1589.21,1116.68 1589.03,1143.50 1606.28,1145.06 1606.50,1118.23" fill="#f7ad63" stroke="#f7ad63" stroke-width="0.5" stroke-linecap="round" stroke-linejoin="round"/>
  <polygon points="1376.30,1116.68 1376.55,1143.50 1393.72,1145.06 1393.50,1118.23" fill="#f7ad63" stroke="#f7ad63" stroke-width="0.5" stroke-linecap="round" stroke-linejoin="round"/>
  <polygon points="1606.50,1118.23 1606.28,1145.06 1623.45,1143.50 1623.70,1116.68" fill="#f7ad63" stroke="#f7ad63" stroke-width="0.5" stroke-linecap="round" stroke-linejoin="round"/>
  <polygon points="1608.47,1436.86 1609.87,1274.58 1186.82,1077.02 1190.60,1233.70" fill="#f7ad63" stroke="#f7ad63" stroke-width="0.5" stroke-linecap="round" stroke-linejoin="round"/>
  <polygon points="1817.21,1332.72 1608.47,1436.86 1607.12,1595.08 1813.34,1488.26" fill="#a5c916" stroke="#a5c916" stroke-width="0.5" stroke-linecap="round" stroke-linejoin="round"/>
  <polygon points="1669.08,1146.32 1668.73,1173.28 1672.51,1181.29 1672.87,1154.29" fill="#f7ad63" stroke="#f7ad63" stroke-width="0.5" stroke-linecap="round" stroke-linejoin="round"/>
  <polygon points="1757.16,1154.29 1756.62,1181.29 1759.51,1173.28 1760.06,1146.32" fill="#f7ad63" stroke="#f7ad63" stroke-width="0.5" stroke-linecap="round" stroke-linejoin="round"/>
  <polygon points="1454.51,1146.32 1454.61,1173.28 1457.95,1181.29 1457.86,1154.29" fill="#f7ad63" stroke="#f7ad63" stroke-width="0.5" stroke-linecap="round" stroke-linejoin="round"/>
  <polygon points="1542.14,1154.29 1542.05,1181.29 1545.39,1173.28 1545.49,1146.32" fill="#f7ad63" stroke="#f7ad63" stroke-width="0.5" stroke-linecap="round" stroke-linejoin="round"/>
  <polygon points="1730.79,1127.16 1713.41,1125.60 1696.20,1127.16 1681.69,1131.64 1672.16,1138.38 1669.08,1146.32 1672.87,1154.29 1683.09,1161.11 1698.18,1165.67 1715.74,1167.25 1733.12,1165.67 1747.71,1161.11 1757.16,1154.29 1760.06,1146.32 1756.09,1138.38 1745.81,1131.64" fill="#f7ad63" stroke="#f7ad63" stroke-width="0.5" stroke-linecap="round" stroke-linejoin="round"/>
  <polygon points="1500.00,1167.25 1517.47,1165.67 1532.31,1161.11 1542.14,1154.29 1545.49,1146.32 1541.97,1138.38 1532.06,1131.64 1517.29,1127.16 1500.00,1125.60 1482.71,1127.16 1467.94,1131.64 1458.03,1138.38 1454.51,1146.32 1457.86,1154.29 1467.69,1161.11 1482.53,1165.67" fill="#f7ad63" stroke="#f7ad63" stroke-width="0.5" stroke-linecap="round" stroke-linejoin="round"/>
  <polygon points="1672.87,1154.29 1672.51,1181.29 1682.70,1188.14 1683.09,1161.11" fill="#f7ad63" stroke="#f7ad63" stroke-width="0.5" stroke-linecap="round" stroke-linejoin="round"/>
  <polygon points="1457.86,1154.29 1457.95,1181.29 1467.76,1188.14 1467.69,1161.11" fill="#f7ad63" stroke="#f7ad63" stroke-width="0.5" stroke-linecap="round" stroke-linejoin="round"/>
  <polygon points="1747.71,1161.11 1747.19,1188.14 1756.62,1181.29 1757.16,1154.29" fill="#f7ad63" stroke="#f7ad63" stroke-width="0.5" stroke-linecap="round" stroke-linejoin="round"/>
  <polygon points="1532.31,1161.11 1532.24,1188.14 1542.05,1181.29 1542.14,1154.29" fill="#f7ad63" stroke="#f7ad63" stroke-width="0.5" stroke-linecap="round" stroke-linejoin="round"/>
  <polygon points="1517.47,1165.67 1517.43,1192.72 1532.24,1188.14 1532.31,1161.11" fill="#f7ad63" stroke="#f7ad63" stroke-width="0.5" stroke-linecap="round" stroke-linejoin="round"/>
  <polygon points="1733.12,1165.67 1732.63,1192.72 1747.19,1188.14 1747.71,1161.11" fill="#f7ad63" stroke="#f7ad63" stroke-width="0.5" stroke-linecap="round" stroke-linejoin="round"/>
  <polygon points="1683.09,1161.11 1682.70,1188.14 1697.77,1192.72 1698.18,1165.67" fill="#f7ad63" stroke="#f7ad63" stroke-width="0.5" stroke-linecap="round" stroke-linejoin="round"/>
  <polygon points="1467.69,1161.11 1467.76,1188.14 1482.57,1192.72 1482.53,1165.67" fill="#f7ad63" stroke="#f7ad63" stroke-width="0.5" stroke-linecap="round" stroke-linejoin="round"/>
  <polygon points="1482.53,1165.67 1482.57,1192.72 1500.00,1194.32 1500.00,1167.25" fill="#f7ad63" stroke="#f7ad63" stroke-width="0.5" stroke-linecap="round" stroke-linejoin="round"/>
  <polygon points="1500.00,1167.25 1500.00,1194.32 1517.43,1192.72 1517.47,1165.67" fill="#f7ad63" stroke="#f7ad63" stroke-width="0.5" stroke-linecap="round" stroke-linejoin="round"/>
  <polygon points="1715.74,1167.25 1715.29,1194.32 1732.63,1192.72 1733.12,1165.67" fill="#f7ad63" stroke="#f7ad63" stroke-width="0.5" stroke-linecap="round" stroke-linejoin="round"/>
  <polygon points="1698.18,1165.67 1697.77,1192.72 1715.29,1194.32 1715.74,1167.25" fill="#f7ad63" stroke="#f7ad63" stroke-width="0.5" stroke-linecap="round" stroke-linejoin="round"/>
  <polygon points="1821.18,1173.28 1609.87,1274.58 1608.47,1436.86 1817.21,1332.72" fill="#f7ad63" stroke="#f7ad63" stroke-width="0.5" stroke-linecap="round" stroke-linejoin="round"/>
  <polygon points="1651.59,1204.25 1651.27,1231.49 1654.43,1223.27 1654.75,1196.07" fill="#f7ad63" stroke="#f7ad63" stroke-width="0.5" stroke-linecap="round" stroke-linejoin="round"/>
  <polygon points="1562.60,1196.07 1562.46,1223.27 1566.07,1231.49 1566.21,1204.25" fill="#f7ad63" stroke="#f7ad63" stroke-width="0.5" stroke-linecap="round" stroke-linejoin="round"/>
  <polygon points="1566.21,1204.25 1576.37,1211.24 1591.54,1215.92 1609.28,1217.55 1626.93,1215.92 1641.83,1211.24 1651.59,1204.25 1654.75,1196.07 1650.96,1187.92 1640.73,1181.01 1625.64,1176.41 1608.08,1174.82 1590.61,1176.41 1575.78,1181.01 1565.94,1187.92 1562.60,1196.07" fill="#f7ad63" stroke="#f7ad63" stroke-width="0.5" stroke-linecap="round" stroke-linejoin="round"/>
  <polygon points="1566.21,1204.25 1566.07,1231.49 1576.21,1238.52 1576.37,1211.24" fill="#f7ad63" stroke="#f7ad63" stroke-width="0.5" stroke-linecap="round" stroke-linejoin="round"/>
  <polygon points="1641.83,1211.24 1641.53,1238.52 1651.27,1231.49 1651.59,1204.25" fill="#f7ad63" stroke="#f7ad63" stroke-width="0.5" stroke-linecap="round" stroke-linejoin="round"/>
  <polygon points="1626.93,1215.92 1626.66,1243.23 1641.53,1238.52 1641.83,1211.24" fill="#f7ad63" stroke="#f7ad63" stroke-width="0.5" stroke-linecap="round" stroke-linejoin="round"/>
  <polygon points="1576.37,1211.24 1576.21,1238.52 1591.34,1243.23 1591.54,1215.92" fill="#f7ad63" stroke="#f7ad63" stroke-width="0.5" stroke-linecap="round" stroke-linejoin="round"/>
  <polygon points="1609.28,1217.55 1609.04,1244.86 1626.66,1243.23 1626.93,1215.92" fill="#f7ad63" stroke="#f7ad63" stroke-width="0.5" stroke-linecap="round" stroke-linejoin="round"/>
  <polygon points="1591.54,1215.92 1591.34,1243.23 1609.04,1244.86 1609.28,1217.55" fill="#f7ad63" stroke="#f7ad63" stroke-width="0.5" stroke-linecap="round" stroke-linejoin="round"/>
  <path d="M 1204.83 1824.36 L 1603.24 2046.82 L 1802.27 1932.92 L 1805.87 1788.23 L 1604.50 1899.92 L 1603.24 2046.82 L 1802.27 1932.92 L 1805.87 1788.23 L 1604.50 1899.92 L 1201.40 1681.85 L 1204.83 1824.36 L 1603.24 2046.82 L 1604.50 1899.92 L 1201.40 1681.85 L 1204.83 1824.36" stroke="black" stroke-width="4" fill="none" stroke-linecap="round" stroke-linejoin="round"/>
  <path d="M 1201.40 1681.85 L 1604.50 1899.92 L 1805.87 1788.23 L 1809.56 1640.06 L 1605.79 1749.38 L 1604.50 1899.92 L 1805.87 1788.23 L 1809.56 1640.06 L 1605.79 1749.38 L 1197.88 1535.98 L 1201.40 1681.85 L 1604.50 1899.92 L 1605.79 1749.38 L 1197.88 1535.98 L 1201.40 1681.85" stroke="black" stroke-width="4" fill="none" stroke-linecap="round" stroke-linejoin="round"/>
  <path d="M 1197.88 1535.98 L 1605.79 1749.38 L 1809.56 1640.06 L 1813.34 1488.26 L 1607.12 1595.08 L 1605.79 1749.38 L 1809.56 1640.06 L 1813.34 1488.26 L 1607.12 1595.08 L 1194.28 1386.64 L 1197.88 1535.98 L 1605.79 1749.38 L 1607.12 1595.08 L 1194.28 1386.64 L 1197.88 1535.98" stroke="black" stroke-width="4" fill="none" stroke-linecap="round" stroke-linejoin="round"/>
  <path d="M 1194.28 1386.64 L 1607.12 1595.08 L 1813.34 1488.26 L 1817.21 1332.72 L 1608.47 1436.86 L 1607.12 1595.08 L 1813.34 1488.26 L 1817.21 1332.72 L 1608.47 1436.86 L 1190.60 1233.70 L 1194.28 1386.64 L 1607.12 1595.08 L 1608.47 1436.86 L 1190.60 1233.70 L 1194.28 1386.64" stroke="black" stroke-width="4" fill="none" stroke-linecap="round" stroke-linejoin="round"/>
  <path d="M 1190.60 1233.70 L 1608.47 1436.86 L 1817.21 1332.72 L 1821.18 1173.28 L 1609.87 1274.58 L 1608.47 1436.86 L 1817.21 1332.72 L 1821.18 1173.28 L 1759.94 1146.09 L 1821.18 1173.28 L 1609.87 1274.58 L 1186.82 1077.02 L 1246.45 1051.18 L 1186.82 1077.02 L 1190.60 1233.70 L 1608.47 1436.86 L 1609.87 1274.58 L 1186.82 1077.02 L 1190.60 1233.70" stroke="black" stroke-width="4" fill="none" stroke-linecap="round" stroke-linejoin="round"/>
  <path d="M 1561.01 1097.82 L 1560.89 1124.54 L 1564.40 1132.35 L 1574.28 1139.03 L 1589.03 1143.50 L 1606.28 1145.06 L 1623.45 1143.50 L 1637.95 1139.03 L 1647.45 1132.35 L 1650.53 1124.54 L 1650.84 1097.82 L 1713.91 1125.65 L 1650.74 1097.60 L 1713.91 1125.65 L 1730.79 1127.16 L 1745.81 1131.64" stroke="black" stroke-width="4" fill="none" stroke-linecap="round" stroke-linejoin="round"/>
  <path d="M 1455.65 1050.54 L 1455.74 1077.02 L 1459.00 1084.64 L 1468.56 1091.15 L 1483.01 1095.51 L 1500.00 1097.03 L 1516.99 1095.51 L 1531.44 1091.15 L 1541.01 1084.64 L 1544.26 1077.02 L 1544.35 1050.54 L 1605.85 1077.67 L 1544.25 1050.32 L 1605.85 1077.67 L 1622.48 1079.14" stroke="black" stroke-width="4" fill="none" stroke-linecap="round" stroke-linejoin="round"/>
  <path d="M 1322.83 1036.58 L 1308.67 1032.32 L 1291.89 1030.84 L 1352.88 1005.06 L 1353.17 1030.67 L 1356.19 1038.10 L 1365.46 1044.46 L 1379.61 1048.71 L 1396.35 1050.19 L 1413.18 1048.71 L 1427.56 1044.46 L 1437.18 1038.10 L 1440.61 1030.67 L 1440.49 1004.42 L 1500.48 1030.89 L 1440.40 1004.21 L 1500.48 1030.89 L 1516.86 1032.32" stroke="black" stroke-width="4" fill="none" stroke-linecap="round" stroke-linejoin="round"/>
  <path d="M 1352.88 1005.06 L 1293.13 1030.95 L 1352.88 1005.06" stroke="black" stroke-width="4" fill="none" stroke-linecap="round" stroke-linejoin="round"/>
  <path d="M 1757.16 1154.29 L 1760.06 1146.32 L 1756.09 1138.38 L 1745.81 1131.64 L 1730.79 1127.16 L 1713.41 1125.60 L 1696.20 1127.16 L 1681.69 1131.64 L 1672.16 1138.38 L 1669.08 1146.32 L 1672.87 1154.29 L 1683.09 1161.11 L 1698.18 1165.67 L 1715.74 1167.25 L 1733.12 1165.67 L 1747.71 1161.11 L 1757.16 1154.29" stroke="black" stroke-width="4" fill="none" stroke-linecap="round" stroke-linejoin="round"/>
  <path d="M 1669.08 1146.32 L 1668.73 1173.28 L 1672.51 1181.29 L 1682.70 1188.14 L 1697.77 1192.72 L 1715.29 1194.32 L 1732.63 1192.72 L 1747.19 1188.14 L 1756.62 1181.29 L 1759.51 1173.28 L 1760.06 1146.32 L 1821.18 1173.28" stroke="black" stroke-width="4" fill="none" stroke-linecap="round" stroke-linejoin="round"/>
  <path d="M 1715.74 1167.25 L 1733.12 1165.67 L 1747.71 1161.11 L 1733.12 1165.67 L 1715.74 1167.25 L 1698.18 1165.67 L 1683.09 1161.11 L 1672.87 1154.29 L 1669.08 1146.32 L 1672.16 1138.38 L 1681.69 1131.64 L 1696.20 1127.16 L 1713.41 1125.60 L 1730.79 1127.16 L 1745.81 1131.64 L 1756.09 1138.38 L 1760.06 1146.32 L 1757.16 1154.29 L 1747.71 1161.11" stroke="black" stroke-width="4" fill="none" stroke-linecap="round" stroke-linejoin="round"/>
  <path d="M 1681.69 1131.64 L 1672.16 1138.38 L 1669.08 1146.32 L 1672.87 1154.29 L 1683.09 1161.11" stroke="black" stroke-width="4" fill="none" stroke-linecap="round" stroke-linejoin="round"/>
  <path d="M 1647.75 1105.59 L 1650.84 1097.82 L 1647.15 1090.08 L 1637.19 1083.51 L 1622.48 1079.14 L 1605.36 1077.63 L 1588.33 1079.14 L 1573.87 1083.51 L 1564.27 1090.08 L 1561.01 1097.82 L 1564.54 1105.59 L 1574.43 1112.24 L 1589.21 1116.68 L 1606.50 1118.23 L 1623.70 1116.68 L 1638.23 1112.24 L 1647.75 1105.59 L 1638.23 1112.24 L 1623.70 1116.68 L 1606.50 1118.23 L 1589.21 1116.68 L 1574.43 1112.24 L 1564.54 1105.59 L 1561.01 1097.82 L 1564.27 1090.08 L 1573.87 1083.51 L 1588.33 1079.14 L 1605.36 1077.63 L 1622.48 1079.14 L 1637.19 1083.51 L 1647.15 1090.08 L 1650.84 1097.82 L 1647.75 1105.59 L 1638.23 1112.24" stroke="black" stroke-width="4" fill="none" stroke-linecap="round" stroke-linejoin="round"/>
  <path d="M 1647.15 1090.08 L 1637.19 1083.51" stroke="black" stroke-width="4" fill="none" stroke-linecap="round" stroke-linejoin="round"/>
  <path d="M 1588.33 1079.14 L 1573.87 1083.51" stroke="black" stroke-width="4" fill="none" stroke-linecap="round" stroke-linejoin="round"/>
  <path d="M 1564.27 1090.08 L 1561.01 1097.82 L 1564.54 1105.59" stroke="black" stroke-width="4" fill="none" stroke-linecap="round" stroke-linejoin="round"/>
  <path d="M 1574.43 1112.24 L 1589.21 1116.68" stroke="black" stroke-width="4" fill="none" stroke-linecap="round" stroke-linejoin="round"/>
  <path d="M 1606.50 1118.23 L 1623.70 1116.68" stroke="black" stroke-width="4" fill="none" stroke-linecap="round" stroke-linejoin="round"/>
  <path d="M 1541.09 1058.12 L 1544.35 1050.54 L 1540.92 1042.99 L 1531.26 1036.58 L 1516.86 1032.32 L 1500.00 1030.84 L 1483.14 1032.32 L 1468.74 1036.58 L 1459.08 1042.99 L 1455.65 1050.54 L 1458.91 1058.12 L 1468.50 1064.60 L 1482.97 1068.93 L 1500.00 1070.44 L 1517.03 1068.93 L 1531.50 1064.60 L 1541.09 1058.12 L 1531.50 1064.60 L 1517.03 1068.93 L 1500.00 1070.44 L 1482.97 1068.93 L 1468.50 1064.60 L 1458.91 1058.12 L 1455.65 1050.54 L 1459.08 1042.99 L 1468.74 1036.58 L 1483.14 1032.32 L 1500.00 1030.84 L 1516.86 1032.32 L 1531.26 1036.58 L 1540.92 1042.99 L 1544.35 1050.54 L 1541.09 1058.12 L 1531.50 1064.60" stroke="black" stroke-width="4" fill="none" stroke-linecap="round" stroke-linejoin="round"/>
  <path d="M 1540.92 1042.99 L 1531.26 1036.58" stroke="black" stroke-width="4" fill="none" stroke-linecap="round" stroke-linejoin="round"/>
  <path d="M 1483.14 1032.32 L 1468.74 1036.58" stroke="black" stroke-width="4" fill="none" stroke-linecap="round" stroke-linejoin="round"/>
  <path d="M 1459.08 1042.99 L 1455.65 1050.54 L 1458.91 1058.12" stroke="black" stroke-width="4" fill="none" stroke-linecap="round" stroke-linejoin="round"/>
  <path d="M 1468.50 1064.60 L 1482.97 1068.93" stroke="black" stroke-width="4" fill="none" stroke-linecap="round" stroke-linejoin="round"/>
  <path d="M 1500.00 1070.44 L 1517.03 1068.93" stroke="black" stroke-width="4" fill="none" stroke-linecap="round" stroke-linejoin="round"/>
  <path d="M 1437.06 1011.81 L 1440.49 1004.42 L 1437.31 997.06 L 1427.94 990.81 L 1413.84 986.65 L 1397.22 985.21 L 1380.52 986.65 L 1366.18 990.81 L 1356.47 997.06 L 1352.88 1004.42 L 1355.90 1011.81 L 1365.19 1018.14 L 1379.36 1022.36 L 1396.14 1023.83 L 1413.00 1022.36 L 1427.41 1018.14 L 1437.06 1011.81" stroke="black" stroke-width="4" fill="none" stroke-linecap="round" stroke-linejoin="round"/>
  <path d="M 1396.14 1023.83 L 1413.00 1022.36 L 1427.41 1018.14 L 1413.00 1022.36 L 1396.14 1023.83 L 1379.36 1022.36 L 1365.19 1018.14 L 1355.90 1011.81 L 1352.88 1004.42 L 1356.47 997.06 L 1366.18 990.81 L 1380.52 986.65 L 1397.22 985.21 L 1413.84 986.65 L 1427.94 990.81 L 1437.31 997.06 L 1440.49 1004.42 L 1437.06 1011.81 L 1427.41 1018.14" stroke="black" stroke-width="4" fill="none" stroke-linecap="round" stroke-linejoin="round"/>
  <path d="M 1427.94 990.81 L 1413.84 986.65 L 1397.22 985.21" stroke="black" stroke-width="4" fill="none" stroke-linecap="round" stroke-linejoin="round"/>
  <path d="M 1366.18 990.81 L 1356.47 997.06 L 1352.88 1004.42 L 1355.90 1011.81 L 1365.19 1018.14" stroke="black" stroke-width="4" fill="none" stroke-linecap="round" stroke-linejoin="round"/>
  <path d="M 1651.59 1204.25 L 1654.75 1196.07 L 1650.96 1187.92 L 1640.73 1181.01 L 1625.64 1176.41 L 1608.08 1174.82 L 1590.61 1176.41 L 1575.78 1181.01 L 1565.94 1187.92 L 1562.60 1196.07 L 1566.21 1204.25 L 1576.37 1211.24 L 1591.54 1215.92 L 1609.28 1217.55 L 1626.93 1215.92 L 1641.83 1211.24 L 1651.59 1204.25" stroke="black" stroke-width="4" fill="none" stroke-linecap="round" stroke-linejoin="round"/>
  <path d="M 1562.60 1196.07 L 1562.46 1223.27 L 1566.07 1231.49 L 1576.21 1238.52 L 1591.34 1243.23 L 1609.04 1244.86 L 1626.66 1243.23 L 1641.53 1238.52 L 1651.27 1231.49 L 1654.43 1223.27 L 1654.75 1196.07" stroke="black" stroke-width="4" fill="none" stroke-linecap="round" stroke-linejoin="round"/>
  <path d="M 1609.28 1217.55 L 1626.93 1215.92 L 1641.83 1211.24 L 1626.93 1215.92 L 1609.28 1217.55 L 1591.54 1215.92 L 1576.37 1211.24 L 1566.21 1204.25 L 1562.60 1196.07 L 1565.94 1187.92 L 1575.78 1181.01 L 1590.61 1176.41 L 1608.08 1174.82 L 1625.64 1176.41 L 1640.73 1181.01 L 1650.96 1187.92 L 1654.75 1196.07 L 1651.59 1204.25 L 1641.83 1211.24" stroke="black" stroke-width="4" fill="none" stroke-linecap="round" stroke-linejoin="round"/>
  <path d="M 1640.73 1181.01 L 1625.64 1176.41 L 1608.08 1174.82" stroke="black" stroke-width="4" fill="none" stroke-linecap="round" stroke-linejoin="round"/>
  <path d="M 1575.78 1181.01 L 1565.94 1187.92 L 1562.60 1196.07 L 1566.21 1204.25 L 1576.37 1211.24" stroke="black" stroke-width="4" fill="none" stroke-linecap="round" stroke-linejoin="round"/>
  <path d="M 1542.14 1154.29 L 1545.49 1146.32 L 1541.97 1138.38 L 1532.06 1131.64 L 1517.29 1127.16 L 1500.00 1125.60 L 1482.71 1127.16 L 1467.94 1131.64 L 1458.03 1138.38 L 1454.51 1146.32 L 1457.86 1154.29 L 1467.69 1161.11 L 1482.53 1165.67 L 1500.00 1167.25 L 1517.47 1165.67 L 1532.31 1161.11 L 1542.14 1154.29 L 1532.31 1161.11 L 1517.47 1165.67 L 1500.00 1167.25 L 1482.53 1165.67 L 1467.69 1161.11 L 1457.86 1154.29 L 1454.51 1146.32 L 1458.03 1138.38 L 1467.94 1131.64 L 1482.71 1127.16 L 1500.00 1125.60 L 1517.29 1127.16 L 1532.06 1131.64 L 1541.97 1138.38 L 1545.49 1146.32 L 1542.14 1154.29 L 1532.31 1161.11" stroke="black" stroke-width="4" fill="none" stroke-linecap="round" stroke-linejoin="round"/>
  <path d="M 1454.51 1146.32 L 1454.61 1173.28 L 1457.95 1181.29 L 1467.76 1188.14 L 1482.57 1192.72 L 1500.00 1194.32 L 1517.43 1192.72 L 1532.24 1188.14 L 1542.05 1181.29 L 1545.39 1173.28 L 1545.49 1146.32" stroke="black" stroke-width="4" fill="none" stroke-linecap="round" stroke-linejoin="round"/>
  <path d="M 1541.97 1138.38 L 1532.06 1131.64" stroke="black" stroke-width="4" fill="none" stroke-linecap="round" stroke-linejoin="round"/>
  <path d="M 1517.29 1127.16 L 1500.00 1125.60" stroke="black" stroke-width="4" fill="none" stroke-linecap="round" stroke-linejoin="round"/>
  <path d="M 1482.71 1127.16 L 1467.94 1131.64" stroke="black" stroke-width="4" fill="none" stroke-linecap="round" stroke-linejoin="round"/>
  <path d="M 1458.03 1138.38 L 1454.51 1146.32 L 1457.86 1154.29" stroke="black" stroke-width="4" fill="none" stroke-linecap="round" stroke-linejoin="round"/>
  <path d="M 1467.69 1161.11 L 1482.53 1165.67" stroke="black" stroke-width="4" fill="none" stroke-linecap="round" stroke-linejoin="round"/>
  <path d="M 1500.00 1167.25 L 1517.47 1165.67" stroke="black" stroke-width="4" fill="none" stroke-linecap="round" stroke-linejoin="round"/>
  <path d="M 1435.46 1105.59 L 1438.99 1097.82 L 1435.73 1090.08 L 1426.13 1083.51 L 1411.67 1079.14 L 1394.64 1077.63 L 1377.52 1079.14 L 1362.81 1083.51 L 1352.85 1090.08 L 1349.16 1097.82 L 1352.25 1105.59 L 1361.77 1112.24 L 1376.30 1116.68 L 1393.50 1118.23 L 1410.79 1116.68 L 1425.57 1112.24 L 1435.46 1105.59 L 1425.57 1112.24 L 1410.79 1116.68 L 1393.50 1118.23 L 1376.30 1116.68 L 1361.77 1112.24 L 1352.25 1105.59 L 1349.16 1097.82 L 1352.85 1090.08 L 1362.81 1083.51 L 1377.52 1079.14 L 1394.64 1077.63 L 1411.67 1079.14 L 1426.13 1083.51 L 1435.73 1090.08 L 1438.99 1097.82 L 1435.46 1105.59 L 1425.57 1112.24" stroke="black" stroke-width="4" fill="none" stroke-linecap="round" stroke-linejoin="round"/>
  <path d="M 1349.16 1097.82 L 1349.47 1124.54 L 1352.55 1132.35 L 1362.05 1139.03 L 1376.55 1143.50 L 1393.72 1145.06 L 1410.97 1143.50 L 1425.72 1139.03 L 1435.60 1132.35 L 1439.11 1124.54 L 1438.99 1097.82" stroke="black" stroke-width="4" fill="none" stroke-linecap="round" stroke-linejoin="round"/>
  <path d="M 1435.73 1090.08 L 1426.13 1083.51" stroke="black" stroke-width="4" fill="none" stroke-linecap="round" stroke-linejoin="round"/>
  <path d="M 1411.67 1079.14 L 1394.64 1077.63" stroke="black" stroke-width="4" fill="none" stroke-linecap="round" stroke-linejoin="round"/>
  <path d="M 1377.52 1079.14 L 1362.81 1083.51" stroke="black" stroke-width="4" fill="none" stroke-linecap="round" stroke-linejoin="round"/>
  <path d="M 1352.85 1090.08 L 1349.16 1097.82 L 1352.25 1105.59" stroke="black" stroke-width="4" fill="none" stroke-linecap="round" stroke-linejoin="round"/>
  <path d="M 1361.77 1112.24 L 1376.30 1116.68" stroke="black" stroke-width="4" fill="none" stroke-linecap="round" stroke-linejoin="round"/>
  <path d="M 1393.50 1118.23 L 1410.79 1116.68" stroke="black" stroke-width="4" fill="none" stroke-linecap="round" stroke-linejoin="round"/>
  <path d="M 1331.45 1058.12 L 1335.14 1050.54 L 1332.13 1042.99 L 1322.83 1036.58 L 1308.67 1032.32 L 1291.89 1030.84 L 1274.94 1032.32 L 1260.30 1036.58 L 1250.29 1042.99 L 1246.43 1050.54 L 1249.28 1058.12 L 1258.50 1064.60 L 1272.73 1068.93 L 1289.67 1070.44 L 1306.79 1068.93 L 1321.50 1064.60 L 1331.45 1058.12" stroke="black" stroke-width="4" fill="none" stroke-linecap="round" stroke-linejoin="round"/>
  <path d="M 1603.24 2046.82 L 1802.27 1932.92 L 1805.87 1788.23 L 1604.50 1899.92 L 1201.40 1681.85 L 1204.83 1824.36 L 1603.24 2046.82 L 1604.50 1899.92 L 1201.40 1681.85 L 1604.50 1899.92 L 1805.87 1788.23 L 1604.50 1899.92 L 1805.87 1788.23 L 1809.56 1640.06 L 1605.79 1749.38 L 1197.88 1535.98 L 1201.40 1681.85 L 1604.50 1899.92 L 1605.79 1749.38 L 1197.88 1535.98 L 1605.79 1749.38 L 1809.56 1640.06 L 1605.79 1749.38 L 1809.56 1640.06 L 1813.34 1488.26 L 1607.12 1595.08 L 1194.28 1386.64 L 1197.88 1535.98 L 1605.79 1749.38 L 1607.12 1595.08 L 1194.28 1386.64 L 1607.12 1595.08 L 1813.34 1488.26 L 1607.12 1595.08 L 1813.34 1488.26 L 1817.21 1332.72 L 1608.47 1436.86 L 1190.60 1233.70 L 1194.28 1386.64 L 1607.12 1595.08 L 1608.47 1436.86 L 1190.60 1233.70 L 1608.47 1436.86 L 1817.21 1332.72 L 1608.47 1436.86 L 1817.21 1332.72 L 1821.18 1173.28 L 1609.87 1274.58 L 1186.82 1077.02 L 1246.45 1051.18 L 1246.95 1077.02 L 1249.79 1084.64 L 1258.99 1091.15 L 1273.19 1095.51 L 1290.10 1097.03 L 1307.18 1095.51 L 1321.87 1091.15 L 1331.80 1084.64 L 1335.48 1077.02 L 1335.14 1050.54" stroke="black" stroke-width="4" fill="none" stroke-linecap="round" stroke-linejoin="round"/>
  <path d="M 1289.67 1070.44 L 1306.79 1068.93 L 1321.50 1064.60 L 1306.79 1068.93 L 1289.67 1070.44 L 1272.73 1068.93 L 1258.50 1064.60 L 1249.28 1058.12 L 1246.43 1050.54 L 1250.29 1042.99 L 1260.30 1036.58 L 1274.94 1032.32 L 1291.89 1030.84 L 1308.67 1032.32 L 1322.83 1036.58 L 1332.13 1042.99 L 1335.14 1050.54 L 1331.45 1058.12 L 1321.50 1064.60" stroke="black" stroke-width="4" fill="none" stroke-linecap="round" stroke-linejoin="round"/>
  <path d="M 1260.30 1036.58 L 1250.29 1042.99 L 1246.43 1050.54 L 1249.28 1058.12 L 1258.50 1064.60" stroke="black" stroke-width="4" fill="none" stroke-linecap="round" stroke-linejoin="round"/>
  <path d="M 1609.87 1274.58 L 1608.47 1436.86 L 1190.60 1233.70 L 1186.82 1077.02" stroke="black" stroke-width="4" fill="none" stroke-linecap="round" stroke-linejoin="round"/>
  <path d="M 1668.73 1173.28 L 1672.51 1181.29 L 1682.70 1188.14 L 1697.77 1192.72 L 1715.29 1194.32 L 1732.63 1192.72 L 1747.19 1188.14 L 1756.62 1181.29 L 1759.51 1173.28" stroke="black" stroke-width="4" fill="none" stroke-linecap="round" stroke-linejoin="round"/>
  <path d="M 1560.89 1124.54 L 1564.40 1132.35 L 1574.28 1139.03 L 1589.03 1143.50 L 1606.28 1145.06 L 1623.45 1143.50 L 1637.95 1139.03 L 1647.45 1132.35 L 1650.53 1124.54" stroke="black" stroke-width="4" fill="none" stroke-linecap="round" stroke-linejoin="round"/>
  <path d="M 1483.01 1095.51 L 1500.00 1097.03 L 1516.99 1095.51 L 1531.44 1091.15 L 1541.01 1084.64 L 1544.26 1077.02" stroke="black" stroke-width="4" fill="none" stroke-linecap="round" stroke-linejoin="round"/>
  <path d="M 1455.74 1077.02 L 1459.00 1084.64 L 1468.56 1091.15 L 1477.53 1093.86" stroke="black" stroke-width="4" fill="none" stroke-linecap="round" stroke-linejoin="round"/>
  <path d="M 1437.18 1038.10 L 1440.61 1030.67" stroke="black" stroke-width="4" fill="none" stroke-linecap="round" stroke-linejoin="round"/>
  <path d="M 1353.17 1030.67 L 1356.19 1038.10 L 1365.46 1044.46 L 1379.61 1048.71 L 1396.35 1050.19 L 1413.18 1048.71 L 1427.56 1044.46" stroke="black" stroke-width="4" fill="none" stroke-linecap="round" stroke-linejoin="round"/>
  <path d="M 1591.34 1243.23 L 1609.04 1244.86 L 1626.66 1243.23 L 1641.53 1238.52 L 1651.27 1231.49 L 1654.43 1223.27" stroke="black" stroke-width="4" fill="none" stroke-linecap="round" stroke-linejoin="round"/>
  <path d="M 1562.46 1223.27 L 1566.07 1231.49 L 1576.21 1238.52" stroke="black" stroke-width="4" fill="none" stroke-linecap="round" stroke-linejoin="round"/>
  <path d="M 1545.39 1173.28 L 1542.05 1181.29 L 1541.72 1181.52 L 1532.24 1188.14 L 1517.43 1192.72 L 1500.00 1194.32 L 1482.57 1192.72 L 1467.76 1188.14 L 1457.95 1181.29 L 1454.61 1173.28" stroke="black" stroke-width="4" fill="none" stroke-linecap="round" stroke-linejoin="round"/>
  <path d="M 1349.47 1124.54 L 1352.55 1132.35 L 1362.05 1139.03 L 1376.55 1143.50 L 1393.72 1145.06 L 1410.97 1143.50 L 1425.72 1139.03 L 1435.60 1132.35 L 1439.11 1124.54" stroke="black" stroke-width="4" fill="none" stroke-linecap="round" stroke-linejoin="round"/>
  <path d="M 1246.95 1077.02 L 1249.79 1084.64 L 1258.99 1091.15 L 1273.19 1095.51 L 1290.10 1097.03 L 1307.18 1095.51 L 1321.87 1091.15 L 1331.80 1084.64 L 1335.48 1077.02" stroke="black" stroke-width="4" fill="none" stroke-linecap="round" stroke-linejoin="round"/>
</svg>
