<?xml version="1.0" ?>
<svg xmlns="http://www.w3.org/2000/svg" version="1.1" width="457.35px" height="3000px" viewBox="1271.33 0 457.35 3000">
  <polygon points="1500.00,1560.14 1303.83,1660.67 1500.00,1769.76 1696.17,1660.67" fill="#f4f4f4" stroke="#f4f4f4" stroke-width="0.5" stroke-linecap="round" stroke-linejoin="round"/>
  <polygon points="1500.00,1911.47 1500.00,1769.76 1303.83,1660.67 1307.67,1798.86" fill="#f4f4f4" stroke="#f4f4f4" stroke-width="0.5" stroke-linecap="round" stroke-linejoin="round"/>
  <polygon points="1696.17,1660.67 1500.00,1769.76 1500.00,1911.47 1692.33,1798.86" fill="#f4f4f4" stroke="#f4f4f4" stroke-width="0.5" stroke-linecap="round" stroke-linejoin="round"/>
  <polygon points="1500.00,1420.09 1299.83,1516.85 1500.00,1622.02 1700.17,1516.85" fill="#f4f4f4" stroke="#f4f4f4" stroke-width="0.5" stroke-linecap="round" stroke-linejoin="round"/>
  <polygon points="1500.00,1769.76 1500.00,1622.02 1299.83,1516.85 1303.83,1660.67" fill="#f4f4f4" stroke="#f4f4f4" stroke-width="0.5" stroke-linecap="round" stroke-linejoin="round"/>
  <polygon points="1700.17,1516.85 1500.00,1622.02 1500.00,1769.76 1696.17,1660.67" fill="#f4f4f4" stroke="#f4f4f4" stroke-width="0.5" stroke-linecap="round" stroke-linejoin="round"/>
  <polygon points="1512.38,1153.11 1512.44,1117.11 1500.00,1116.09 1500.00,1152.07" fill="#f4f4f4" stroke="#f4f4f4" stroke-width="0.5" stroke-linecap="round" stroke-linejoin="round"/>
  <polygon points="1500.00,1152.07 1500.00,1116.09 1487.56,1117.11 1487.62,1153.11" fill="#f4f4f4" stroke="#f4f4f4" stroke-width="0.5" stroke-linecap="round" stroke-linejoin="round"/>
  <polygon points="1522.87,1156.11 1522.98,1120.08 1512.44,1117.11 1512.38,1153.11" fill="#f4f4f4" stroke="#f4f4f4" stroke-width="0.5" stroke-linecap="round" stroke-linejoin="round"/>
  <polygon points="1487.62,1153.11 1487.56,1117.11 1477.02,1120.08 1477.13,1156.11" fill="#f4f4f4" stroke="#f4f4f4" stroke-width="0.5" stroke-linecap="round" stroke-linejoin="round"/>
  <polygon points="1483.46,1112.92 1469.41,1116.86 1477.02,1120.08 1487.56,1117.11 1500.00,1116.09 1512.44,1117.11 1522.98,1120.08 1516.54,1112.92 1500.00,1111.54" fill="#f4f4f4" stroke="#f4f4f4" stroke-width="0.5" stroke-linecap="round" stroke-linejoin="round"/>
  <polygon points="1477.13,1156.11 1477.02,1120.08 1469.91,1124.52 1470.05,1160.61" fill="#f4f4f4" stroke="#f4f4f4" stroke-width="0.5" stroke-linecap="round" stroke-linejoin="round"/>
  <polygon points="1529.95,1160.61 1530.09,1124.52 1522.98,1120.08 1522.87,1156.11" fill="#f4f4f4" stroke="#f4f4f4" stroke-width="0.5" stroke-linecap="round" stroke-linejoin="round"/>
  <polygon points="1500.00,1274.46 1295.67,1367.05 1500.00,1467.85 1704.33,1367.05" fill="#f4f4f4" stroke="#f4f4f4" stroke-width="0.5" stroke-linecap="round" stroke-linejoin="round"/>
  <polygon points="1532.48,1165.96 1532.63,1129.80 1530.09,1124.52 1529.95,1160.61" fill="#f4f4f4" stroke="#f4f4f4" stroke-width="0.5" stroke-linecap="round" stroke-linejoin="round"/>
  <polygon points="1470.05,1160.61 1469.91,1124.52 1467.37,1129.80 1467.52,1165.96" fill="#f4f4f4" stroke="#f4f4f4" stroke-width="0.5" stroke-linecap="round" stroke-linejoin="round"/>
  <polygon points="1543.56,1129.80 1540.36,1136.88 1540.17,1173.13 1543.35,1165.96" fill="#f4f4f4" stroke="#f4f4f4" stroke-width="0.5" stroke-linecap="round" stroke-linejoin="round"/>
  <polygon points="1459.64,1136.88 1456.44,1129.80 1456.65,1165.96 1459.83,1173.13" fill="#f4f4f4" stroke="#f4f4f4" stroke-width="0.5" stroke-linecap="round" stroke-linejoin="round"/>
  <polygon points="1540.09,1122.77 1530.59,1116.86 1516.54,1112.92 1522.98,1120.08 1530.09,1124.52 1532.63,1129.80 1530.25,1135.11 1523.20,1139.61 1512.60,1142.64 1500.00,1143.70 1487.40,1142.64 1476.80,1139.61 1469.75,1135.11 1467.37,1129.80 1469.91,1124.52 1477.02,1120.08 1469.41,1116.86 1459.92,1122.77 1456.44,1129.80 1459.64,1136.88 1469.02,1142.91 1483.19,1146.96 1500.00,1148.39 1516.82,1146.96 1530.98,1142.91 1540.36,1136.88 1543.56,1129.80" fill="#f4f4f4" stroke="#f4f4f4" stroke-width="0.5" stroke-linecap="round" stroke-linejoin="round"/>
  <polygon points="1469.02,1142.91 1459.64,1136.88 1459.83,1173.13 1469.17,1179.23" fill="#f4f4f4" stroke="#f4f4f4" stroke-width="0.5" stroke-linecap="round" stroke-linejoin="round"/>
  <polygon points="1540.36,1136.88 1530.98,1142.91 1530.83,1179.23 1540.17,1173.13" fill="#f4f4f4" stroke="#f4f4f4" stroke-width="0.5" stroke-linecap="round" stroke-linejoin="round"/>
  <polygon points="1483.19,1146.96 1469.02,1142.91 1469.17,1179.23 1483.27,1183.34" fill="#f4f4f4" stroke="#f4f4f4" stroke-width="0.5" stroke-linecap="round" stroke-linejoin="round"/>
  <polygon points="1530.98,1142.91 1516.82,1146.96 1516.73,1183.34 1530.83,1179.23" fill="#f4f4f4" stroke="#f4f4f4" stroke-width="0.5" stroke-linecap="round" stroke-linejoin="round"/>
  <polygon points="1516.82,1146.96 1500.00,1148.39 1500.00,1184.79 1516.73,1183.34" fill="#f4f4f4" stroke="#f4f4f4" stroke-width="0.5" stroke-linecap="round" stroke-linejoin="round"/>
  <polygon points="1500.00,1148.39 1483.19,1146.96 1483.27,1183.34 1500.00,1184.79" fill="#f4f4f4" stroke="#f4f4f4" stroke-width="0.5" stroke-linecap="round" stroke-linejoin="round"/>
  <polygon points="1704.33,1367.05 1500.00,1467.85 1500.00,1622.02 1700.17,1516.85" fill="#f4f4f4" stroke="#f4f4f4" stroke-width="0.5" stroke-linecap="round" stroke-linejoin="round"/>
  <polygon points="1500.00,1622.02 1500.00,1467.85 1295.67,1367.05 1299.83,1516.85" fill="#f4f4f4" stroke="#f4f4f4" stroke-width="0.5" stroke-linecap="round" stroke-linejoin="round"/>
  <polygon points="1408.97,1197.47 1408.53,1160.91 1395.87,1159.84 1396.38,1196.39" fill="#f4f4f4" stroke="#f4f4f4" stroke-width="0.5" stroke-linecap="round" stroke-linejoin="round"/>
  <polygon points="1616.33,1197.47 1616.89,1160.91 1604.13,1159.84 1603.62,1196.39" fill="#f4f4f4" stroke="#f4f4f4" stroke-width="0.5" stroke-linecap="round" stroke-linejoin="round"/>
  <polygon points="1396.38,1196.39 1395.87,1159.84 1383.11,1160.91 1383.68,1197.47" fill="#f4f4f4" stroke="#f4f4f4" stroke-width="0.5" stroke-linecap="round" stroke-linejoin="round"/>
  <polygon points="1603.62,1196.39 1604.13,1159.84 1591.47,1160.91 1591.03,1197.47" fill="#f4f4f4" stroke="#f4f4f4" stroke-width="0.5" stroke-linecap="round" stroke-linejoin="round"/>
  <polygon points="1591.03,1197.47 1591.47,1160.91 1580.86,1164.01 1580.47,1200.61" fill="#f4f4f4" stroke="#f4f4f4" stroke-width="0.5" stroke-linecap="round" stroke-linejoin="round"/>
  <polygon points="1419.53,1200.61 1419.14,1164.01 1408.53,1160.91 1408.97,1197.47" fill="#f4f4f4" stroke="#f4f4f4" stroke-width="0.5" stroke-linecap="round" stroke-linejoin="round"/>
  <polygon points="1627.19,1200.61 1627.81,1164.01 1616.89,1160.91 1616.33,1197.47" fill="#f4f4f4" stroke="#f4f4f4" stroke-width="0.5" stroke-linecap="round" stroke-linejoin="round"/>
  <polygon points="1383.68,1197.47 1383.11,1160.91 1372.19,1164.01 1372.81,1200.61" fill="#f4f4f4" stroke="#f4f4f4" stroke-width="0.5" stroke-linecap="round" stroke-linejoin="round"/>
  <polygon points="1412.93,1156.54 1396.11,1155.09 1379.15,1156.54 1395.87,1159.84 1408.53,1160.91 1419.14,1164.01" fill="#f4f4f4" stroke="#f4f4f4" stroke-width="0.5" stroke-linecap="round" stroke-linejoin="round"/>
  <polygon points="1372.81,1200.61 1372.19,1164.01 1364.69,1168.64 1365.34,1205.30" fill="#f4f4f4" stroke="#f4f4f4" stroke-width="0.5" stroke-linecap="round" stroke-linejoin="round"/>
  <polygon points="1426.53,1205.30 1426.17,1168.64 1419.14,1164.01 1419.53,1200.61" fill="#f4f4f4" stroke="#f4f4f4" stroke-width="0.5" stroke-linecap="round" stroke-linejoin="round"/>
  <polygon points="1634.66,1205.30 1635.31,1168.64 1627.81,1164.01 1627.19,1200.61" fill="#f4f4f4" stroke="#f4f4f4" stroke-width="0.5" stroke-linecap="round" stroke-linejoin="round"/>
  <polygon points="1580.47,1200.61 1580.86,1164.01 1573.83,1168.64 1573.47,1205.30" fill="#f4f4f4" stroke="#f4f4f4" stroke-width="0.5" stroke-linecap="round" stroke-linejoin="round"/>
  <polygon points="1572.92,1160.65 1563.52,1166.82 1580.86,1164.01 1591.47,1160.91" fill="#f4f4f4" stroke="#f4f4f4" stroke-width="0.5" stroke-linecap="round" stroke-linejoin="round"/>
  <polygon points="1500.00,1122.90 1291.33,1210.88 1500.00,1306.84 1708.67,1210.88" fill="#f4f4f4" stroke="#f4f4f4" stroke-width="0.5" stroke-linecap="round" stroke-linejoin="round"/>
  <polygon points="1428.84,1210.88 1428.49,1174.15 1426.17,1168.64 1426.53,1205.30" fill="#f4f4f4" stroke="#f4f4f4" stroke-width="0.5" stroke-linecap="round" stroke-linejoin="round"/>
  <polygon points="1365.34,1205.30 1364.69,1168.64 1361.81,1174.15 1362.48,1210.88" fill="#f4f4f4" stroke="#f4f4f4" stroke-width="0.5" stroke-linecap="round" stroke-linejoin="round"/>
  <polygon points="1637.52,1210.88 1638.19,1174.15 1635.31,1168.64 1634.66,1205.30" fill="#f4f4f4" stroke="#f4f4f4" stroke-width="0.5" stroke-linecap="round" stroke-linejoin="round"/>
  <polygon points="1573.47,1205.30 1573.83,1168.64 1571.51,1174.15 1571.16,1210.88" fill="#f4f4f4" stroke="#f4f4f4" stroke-width="0.5" stroke-linecap="round" stroke-linejoin="round"/>
  <polygon points="1563.97,1181.55 1560.34,1174.15 1560.05,1210.88 1563.66,1218.37" fill="#f4f4f4" stroke="#f4f4f4" stroke-width="0.5" stroke-linecap="round" stroke-linejoin="round"/>
  <polygon points="1649.36,1174.15 1646.47,1181.55 1645.75,1218.37 1648.63,1210.88" fill="#f4f4f4" stroke="#f4f4f4" stroke-width="0.5" stroke-linecap="round" stroke-linejoin="round"/>
  <polygon points="1353.53,1181.55 1350.64,1174.15 1351.37,1210.88 1354.25,1218.37" fill="#f4f4f4" stroke="#f4f4f4" stroke-width="0.5" stroke-linecap="round" stroke-linejoin="round"/>
  <polygon points="1439.66,1174.15 1436.03,1181.55 1436.34,1218.37 1439.95,1210.88" fill="#f4f4f4" stroke="#f4f4f4" stroke-width="0.5" stroke-linecap="round" stroke-linejoin="round"/>
  <polygon points="1645.43,1166.82 1635.42,1160.65 1620.85,1156.54 1603.89,1155.09 1587.07,1156.54 1572.92,1160.65 1591.47,1160.91 1604.13,1159.84 1616.89,1160.91 1627.81,1164.01 1635.31,1168.64 1638.19,1174.15 1636.04,1179.70 1629.07,1184.40 1618.40,1187.57 1605.58,1188.67 1592.65,1187.57 1581.66,1184.40 1574.22,1179.70 1571.51,1174.15 1573.83,1168.64 1580.86,1164.01 1563.52,1166.82 1560.34,1174.15 1563.97,1181.55 1573.88,1187.84 1588.57,1192.07 1605.83,1193.57 1622.94,1192.07 1637.20,1187.84 1646.47,1181.55 1649.36,1174.15" fill="#f4f4f4" stroke="#f4f4f4" stroke-width="0.5" stroke-linecap="round" stroke-linejoin="round"/>
  <polygon points="1436.48,1166.82 1427.08,1160.65 1412.93,1156.54 1419.14,1164.01 1426.17,1168.64 1428.49,1174.15 1425.78,1179.70 1418.34,1184.40 1407.35,1187.57 1394.42,1188.67 1381.60,1187.57 1370.93,1184.40 1363.97,1179.70 1361.81,1174.15 1364.69,1168.64 1372.19,1164.01 1383.11,1160.91 1395.87,1159.84 1379.15,1156.54 1364.58,1160.65 1354.57,1166.82 1350.64,1174.15 1353.53,1181.55 1362.80,1187.84 1377.06,1192.07 1394.17,1193.57 1411.43,1192.07 1426.12,1187.84 1436.03,1181.55 1439.66,1174.15" fill="#f4f4f4" stroke="#f4f4f4" stroke-width="0.5" stroke-linecap="round" stroke-linejoin="round"/>
  <polygon points="1362.80,1187.84 1353.53,1181.55 1354.25,1218.37 1363.47,1224.74" fill="#f4f4f4" stroke="#f4f4f4" stroke-width="0.5" stroke-linecap="round" stroke-linejoin="round"/>
  <polygon points="1573.88,1187.84 1563.97,1181.55 1563.66,1218.37 1573.51,1224.74" fill="#f4f4f4" stroke="#f4f4f4" stroke-width="0.5" stroke-linecap="round" stroke-linejoin="round"/>
  <polygon points="1646.47,1181.55 1637.20,1187.84 1636.53,1224.74 1645.75,1218.37" fill="#f4f4f4" stroke="#f4f4f4" stroke-width="0.5" stroke-linecap="round" stroke-linejoin="round"/>
  <polygon points="1436.03,1181.55 1426.12,1187.84 1426.49,1224.74 1436.34,1218.37" fill="#f4f4f4" stroke="#f4f4f4" stroke-width="0.5" stroke-linecap="round" stroke-linejoin="round"/>
  <polygon points="1588.57,1192.07 1573.88,1187.84 1573.51,1224.74 1588.13,1229.03" fill="#f4f4f4" stroke="#f4f4f4" stroke-width="0.5" stroke-linecap="round" stroke-linejoin="round"/>
  <polygon points="1377.06,1192.07 1362.80,1187.84 1363.47,1224.74 1377.67,1229.03" fill="#f4f4f4" stroke="#f4f4f4" stroke-width="0.5" stroke-linecap="round" stroke-linejoin="round"/>
  <polygon points="1637.20,1187.84 1622.94,1192.07 1622.33,1229.03 1636.53,1224.74" fill="#f4f4f4" stroke="#f4f4f4" stroke-width="0.5" stroke-linecap="round" stroke-linejoin="round"/>
  <polygon points="1426.12,1187.84 1411.43,1192.07 1411.87,1229.03 1426.49,1224.74" fill="#f4f4f4" stroke="#f4f4f4" stroke-width="0.5" stroke-linecap="round" stroke-linejoin="round"/>
  <polygon points="1708.67,1210.88 1500.00,1306.84 1500.00,1467.85 1704.33,1367.05" fill="#f4f4f4" stroke="#f4f4f4" stroke-width="0.5" stroke-linecap="round" stroke-linejoin="round"/>
  <polygon points="1500.00,1467.85 1500.00,1306.84 1291.33,1210.88 1295.67,1367.05" fill="#f4f4f4" stroke="#f4f4f4" stroke-width="0.5" stroke-linecap="round" stroke-linejoin="round"/>
  <polygon points="1605.83,1193.57 1588.57,1192.07 1588.13,1229.03 1605.31,1230.55" fill="#f4f4f4" stroke="#f4f4f4" stroke-width="0.5" stroke-linecap="round" stroke-linejoin="round"/>
  <polygon points="1411.43,1192.07 1394.17,1193.57 1394.69,1230.55 1411.87,1229.03" fill="#f4f4f4" stroke="#f4f4f4" stroke-width="0.5" stroke-linecap="round" stroke-linejoin="round"/>
  <polygon points="1622.94,1192.07 1605.83,1193.57 1605.31,1230.55 1622.33,1229.03" fill="#f4f4f4" stroke="#f4f4f4" stroke-width="0.5" stroke-linecap="round" stroke-linejoin="round"/>
  <polygon points="1394.17,1193.57 1377.06,1192.07 1377.67,1229.03 1394.69,1230.55" fill="#f4f4f4" stroke="#f4f4f4" stroke-width="0.5" stroke-linecap="round" stroke-linejoin="round"/>
  <polygon points="1500.00,1242.66 1500.00,1205.53 1487.01,1206.65 1487.07,1243.79" fill="#f4f4f4" stroke="#f4f4f4" stroke-width="0.5" stroke-linecap="round" stroke-linejoin="round"/>
  <polygon points="1512.93,1243.79 1512.99,1206.65 1500.00,1205.53 1500.00,1242.66" fill="#f4f4f4" stroke="#f4f4f4" stroke-width="0.5" stroke-linecap="round" stroke-linejoin="round"/>
  <polygon points="1523.88,1247.06 1524.00,1209.88 1512.99,1206.65 1512.93,1243.79" fill="#f4f4f4" stroke="#f4f4f4" stroke-width="0.5" stroke-linecap="round" stroke-linejoin="round"/>
  <polygon points="1487.07,1243.79 1487.01,1206.65 1476.00,1209.88 1476.12,1247.06" fill="#f4f4f4" stroke="#f4f4f4" stroke-width="0.5" stroke-linecap="round" stroke-linejoin="round"/>
  <polygon points="1531.27,1251.96 1531.43,1214.72 1524.00,1209.88 1523.88,1247.06" fill="#f4f4f4" stroke="#f4f4f4" stroke-width="0.5" stroke-linecap="round" stroke-linejoin="round"/>
  <polygon points="1476.12,1247.06 1476.00,1209.88 1468.57,1214.72 1468.73,1251.96" fill="#f4f4f4" stroke="#f4f4f4" stroke-width="0.5" stroke-linecap="round" stroke-linejoin="round"/>
  <polygon points="1533.91,1257.80 1534.08,1220.49 1531.43,1214.72 1531.27,1251.96" fill="#f4f4f4" stroke="#f4f4f4" stroke-width="0.5" stroke-linecap="round" stroke-linejoin="round"/>
  <polygon points="1468.73,1251.96 1468.57,1214.72 1465.92,1220.49 1466.09,1257.80" fill="#f4f4f4" stroke="#f4f4f4" stroke-width="0.5" stroke-linecap="round" stroke-linejoin="round"/>
  <polygon points="1482.73,1202.08 1468.06,1206.37 1458.14,1212.82 1454.50,1220.49 1457.83,1228.21 1467.63,1234.79 1475.76,1231.20 1468.40,1226.28 1465.92,1220.49 1468.57,1214.72 1476.00,1209.88 1487.01,1206.65 1500.00,1205.53 1512.99,1206.65 1524.00,1209.88 1531.43,1214.72 1534.08,1220.49 1531.60,1226.28 1524.24,1231.20 1513.16,1234.50 1517.57,1239.22 1532.37,1234.79 1542.17,1228.21 1545.50,1220.49 1541.86,1212.82 1531.94,1206.37 1517.27,1202.08 1500.00,1200.57" fill="#f4f4f4" stroke="#f4f4f4" stroke-width="0.5" stroke-linecap="round" stroke-linejoin="round"/>
  <polygon points="1545.50,1220.49 1542.17,1228.21 1541.96,1265.62 1545.27,1257.80" fill="#f4f4f4" stroke="#f4f4f4" stroke-width="0.5" stroke-linecap="round" stroke-linejoin="round"/>
  <polygon points="1457.83,1228.21 1454.50,1220.49 1454.73,1257.80 1458.04,1265.62" fill="#f4f4f4" stroke="#f4f4f4" stroke-width="0.5" stroke-linecap="round" stroke-linejoin="round"/>
  <polygon points="1542.17,1228.21 1532.37,1234.79 1532.21,1272.28 1541.96,1265.62" fill="#f4f4f4" stroke="#f4f4f4" stroke-width="0.5" stroke-linecap="round" stroke-linejoin="round"/>
  <polygon points="1467.63,1234.79 1457.83,1228.21 1458.04,1265.62 1467.79,1272.28" fill="#f4f4f4" stroke="#f4f4f4" stroke-width="0.5" stroke-linecap="round" stroke-linejoin="round"/>
  <polygon points="1482.43,1239.22 1467.63,1234.79 1467.79,1272.28 1482.52,1276.76" fill="#f4f4f4" stroke="#f4f4f4" stroke-width="0.5" stroke-linecap="round" stroke-linejoin="round"/>
  <polygon points="1532.37,1234.79 1517.57,1239.22 1517.48,1276.76 1532.21,1272.28" fill="#f4f4f4" stroke="#f4f4f4" stroke-width="0.5" stroke-linecap="round" stroke-linejoin="round"/>
  <polygon points="1500.00,1240.79 1482.43,1239.22 1482.52,1276.76 1500.00,1278.35" fill="#f4f4f4" stroke="#f4f4f4" stroke-width="0.5" stroke-linecap="round" stroke-linejoin="round"/>
  <polygon points="1517.57,1239.22 1500.00,1240.79 1500.00,1278.35 1517.48,1276.76" fill="#f4f4f4" stroke="#f4f4f4" stroke-width="0.5" stroke-linecap="round" stroke-linejoin="round"/>
  <polygon points="1482.43,1239.22 1500.00,1240.79 1517.57,1239.22 1513.16,1234.50 1500.00,1235.66 1486.84,1234.50 1475.76,1231.20 1467.63,1234.79" fill="#f4f4f4" stroke="#f4f4f4" stroke-width="0.5" stroke-linecap="round" stroke-linejoin="round"/>
  <path d="M 1307.67 1798.86 L 1500.00 1911.47 L 1692.33 1798.86 L 1696.17 1660.67 L 1500.00 1769.76 L 1500.00 1911.47 L 1692.33 1798.86 L 1696.17 1660.67 L 1500.00 1769.76 L 1303.83 1660.67 L 1307.67 1798.86 L 1500.00 1911.47 L 1500.00 1769.76 L 1303.83 1660.67 L 1307.67 1798.86" stroke="black" stroke-width="4" fill="none" stroke-linecap="round" stroke-linejoin="round"/>
  <path d="M 1303.83 1660.67 L 1500.00 1769.76 L 1696.17 1660.67 L 1700.17 1516.85 L 1500.00 1622.02 L 1500.00 1769.76 L 1696.17 1660.67 L 1700.17 1516.85 L 1500.00 1622.02 L 1299.83 1516.85 L 1303.83 1660.67 L 1500.00 1769.76 L 1500.00 1622.02 L 1299.83 1516.85 L 1303.83 1660.67" stroke="black" stroke-width="4" fill="none" stroke-linecap="round" stroke-linejoin="round"/>
  <path d="M 1299.83 1516.85 L 1500.00 1622.02 L 1700.17 1516.85 L 1704.33 1367.05 L 1500.00 1467.85 L 1500.00 1622.02 L 1700.17 1516.85 L 1704.33 1367.05 L 1500.00 1467.85 L 1295.67 1367.05 L 1299.83 1516.85 L 1500.00 1622.02 L 1500.00 1467.85 L 1295.67 1367.05 L 1299.83 1516.85" stroke="black" stroke-width="4" fill="none" stroke-linecap="round" stroke-linejoin="round"/>
  <path d="M 1295.67 1367.05 L 1500.00 1467.85 L 1704.33 1367.05 L 1708.67 1210.88 L 1500.00 1306.84 L 1500.00 1467.85 L 1704.33 1367.05 L 1708.67 1210.88 L 1649.13 1185.78 L 1708.67 1210.88 L 1500.00 1306.84 L 1291.33 1210.88 L 1350.87 1185.78 L 1291.33 1210.88 L 1295.67 1367.05 L 1500.00 1467.85 L 1500.00 1306.84 L 1291.33 1210.88 L 1295.67 1367.05" stroke="black" stroke-width="4" fill="none" stroke-linecap="round" stroke-linejoin="round"/>
  <path d="M 1582.75 1157.79 L 1543.49 1141.24 L 1582.75 1157.79" stroke="black" stroke-width="4" fill="none" stroke-linecap="round" stroke-linejoin="round"/>
  <path d="M 1456.51 1141.24 L 1417.25 1157.79 L 1456.51 1141.24" stroke="black" stroke-width="4" fill="none" stroke-linecap="round" stroke-linejoin="round"/>
  <path d="M 1500.00 1116.09 L 1512.44 1117.11" stroke="black" stroke-width="4" fill="none" stroke-linecap="round" stroke-linejoin="round"/>
  <path d="M 1522.98 1120.08 L 1530.09 1124.52" stroke="black" stroke-width="4" fill="none" stroke-linecap="round" stroke-linejoin="round"/>
  <path d="M 1500.00 1111.54 L 1516.54 1112.92 L 1530.59 1116.86" stroke="black" stroke-width="4" fill="none" stroke-linecap="round" stroke-linejoin="round"/>
  <path d="M 1487.56 1117.11 L 1477.02 1120.08" stroke="black" stroke-width="4" fill="none" stroke-linecap="round" stroke-linejoin="round"/>
  <path d="M 1469.41 1116.86 L 1459.92 1122.77 L 1456.44 1129.80 L 1459.64 1136.88 L 1469.02 1142.91" stroke="black" stroke-width="4" fill="none" stroke-linecap="round" stroke-linejoin="round"/>
  <path d="M 1469.91 1124.52 L 1467.37 1129.80" stroke="black" stroke-width="4" fill="none" stroke-linecap="round" stroke-linejoin="round"/>
  <path d="M 1476.80 1139.61 L 1487.40 1142.64 L 1500.00 1143.70" stroke="black" stroke-width="4" fill="none" stroke-linecap="round" stroke-linejoin="round"/>
  <path d="M 1500.00 1148.39 L 1516.82 1146.96 L 1530.98 1142.91" stroke="black" stroke-width="4" fill="none" stroke-linecap="round" stroke-linejoin="round"/>
  <path d="M 1523.20 1139.61 L 1530.25 1135.11 L 1532.63 1129.80" stroke="black" stroke-width="4" fill="none" stroke-linecap="round" stroke-linejoin="round"/>
  <path d="M 1530.25 1135.11 L 1532.63 1129.80 L 1530.09 1124.52 L 1522.98 1120.08 L 1512.44 1117.11 L 1500.00 1116.09 L 1487.56 1117.11 L 1477.02 1120.08 L 1469.91 1124.52 L 1467.37 1129.80 L 1469.75 1135.11 L 1476.80 1139.61 L 1487.40 1142.64 L 1500.00 1143.70 L 1512.60 1142.64 L 1523.20 1139.61 L 1530.25 1135.11" stroke="black" stroke-width="4" fill="none" stroke-linecap="round" stroke-linejoin="round"/>
  <path d="M 1456.44 1129.80 L 1459.64 1136.88 L 1469.02 1142.91 L 1483.19 1146.96 L 1500.00 1148.39 L 1516.82 1146.96 L 1530.98 1142.91 L 1540.36 1136.88 L 1543.56 1129.80 L 1540.09 1122.77 L 1530.59 1116.86 L 1516.54 1112.92 L 1500.00 1111.54 L 1483.46 1112.92 L 1469.41 1116.86 L 1459.92 1122.77 L 1456.44 1129.80 L 1456.65 1165.96 L 1459.83 1173.13 L 1469.17 1179.23 L 1483.27 1183.34 L 1500.00 1184.79 L 1516.73 1183.34 L 1530.83 1179.23 L 1540.17 1173.13 L 1543.35 1165.96 L 1543.56 1129.80" stroke="black" stroke-width="4" fill="none" stroke-linecap="round" stroke-linejoin="round"/>
  <path d="M 1580.86 1164.01 L 1591.47 1160.91 L 1604.13 1159.84 L 1616.89 1160.91" stroke="black" stroke-width="4" fill="none" stroke-linecap="round" stroke-linejoin="round"/>
  <path d="M 1627.81 1164.01 L 1635.31 1168.64" stroke="black" stroke-width="4" fill="none" stroke-linecap="round" stroke-linejoin="round"/>
  <path d="M 1603.89 1155.09 L 1620.85 1156.54 L 1635.42 1160.65" stroke="black" stroke-width="4" fill="none" stroke-linecap="round" stroke-linejoin="round"/>
  <path d="M 1572.92 1160.65 L 1563.52 1166.82 L 1560.34 1174.15 L 1563.97 1181.55 L 1573.88 1187.84" stroke="black" stroke-width="4" fill="none" stroke-linecap="round" stroke-linejoin="round"/>
  <path d="M 1581.66 1184.40 L 1592.65 1187.57 L 1605.58 1188.67 L 1618.40 1187.57" stroke="black" stroke-width="4" fill="none" stroke-linecap="round" stroke-linejoin="round"/>
  <path d="M 1605.83 1193.57 L 1622.94 1192.07 L 1637.20 1187.84" stroke="black" stroke-width="4" fill="none" stroke-linecap="round" stroke-linejoin="round"/>
  <path d="M 1629.07 1184.40 L 1636.04 1179.70 L 1638.19 1174.15 L 1635.31 1168.64 L 1627.81 1164.01 L 1616.89 1160.91 L 1604.13 1159.84 L 1591.47 1160.91 L 1580.86 1164.01 L 1573.83 1168.64 L 1571.51 1174.15 L 1574.22 1179.70 L 1581.66 1184.40 L 1592.65 1187.57 L 1605.58 1188.67 L 1618.40 1187.57 L 1629.07 1184.40 L 1636.04 1179.70" stroke="black" stroke-width="4" fill="none" stroke-linecap="round" stroke-linejoin="round"/>
  <path d="M 1560.34 1174.15 L 1563.97 1181.55 L 1573.88 1187.84 L 1588.57 1192.07 L 1605.83 1193.57 L 1622.94 1192.07 L 1637.20 1187.84 L 1646.47 1181.55 L 1649.36 1174.15 L 1645.43 1166.82 L 1635.42 1160.65 L 1620.85 1156.54 L 1603.89 1155.09 L 1587.07 1156.54 L 1572.92 1160.65 L 1563.52 1166.82 L 1560.34 1174.15 L 1560.05 1210.88 L 1563.66 1218.37 L 1573.51 1224.74 L 1588.13 1229.03 L 1605.31 1230.55 L 1622.33 1229.03 L 1636.53 1224.74 L 1645.75 1218.37 L 1648.63 1210.88 L 1649.36 1174.15" stroke="black" stroke-width="4" fill="none" stroke-linecap="round" stroke-linejoin="round"/>
  <path d="M 1419.14 1164.01 L 1426.17 1168.64 L 1428.49 1174.15 L 1425.78 1179.70 L 1418.34 1184.40" stroke="black" stroke-width="4" fill="none" stroke-linecap="round" stroke-linejoin="round"/>
  <path d="M 1396.11 1155.09 L 1412.93 1156.54 L 1427.08 1160.65" stroke="black" stroke-width="4" fill="none" stroke-linecap="round" stroke-linejoin="round"/>
  <path d="M 1383.11 1160.91 L 1372.19 1164.01" stroke="black" stroke-width="4" fill="none" stroke-linecap="round" stroke-linejoin="round"/>
  <path d="M 1364.58 1160.65 L 1354.57 1166.82 L 1350.64 1174.15 L 1353.53 1181.55 L 1362.80 1187.84" stroke="black" stroke-width="4" fill="none" stroke-linecap="round" stroke-linejoin="round"/>
  <path d="M 1364.69 1168.64 L 1361.81 1174.15 L 1363.97 1179.70" stroke="black" stroke-width="4" fill="none" stroke-linecap="round" stroke-linejoin="round"/>
  <path d="M 1370.93 1184.40 L 1381.60 1187.57" stroke="black" stroke-width="4" fill="none" stroke-linecap="round" stroke-linejoin="round"/>
  <path d="M 1394.17 1193.57 L 1411.43 1192.07 L 1426.12 1187.84" stroke="black" stroke-width="4" fill="none" stroke-linecap="round" stroke-linejoin="round"/>
  <path d="M 1425.78 1179.70 L 1428.49 1174.15 L 1426.17 1168.64 L 1419.14 1164.01 L 1408.53 1160.91 L 1395.87 1159.84 L 1383.11 1160.91 L 1372.19 1164.01 L 1364.69 1168.64 L 1361.81 1174.15 L 1363.97 1179.70 L 1370.93 1184.40 L 1381.60 1187.57 L 1394.42 1188.67 L 1407.35 1187.57 L 1418.34 1184.40 L 1425.78 1179.70" stroke="black" stroke-width="4" fill="none" stroke-linecap="round" stroke-linejoin="round"/>
  <path d="M 1350.64 1174.15 L 1353.53 1181.55 L 1362.80 1187.84 L 1377.06 1192.07 L 1394.17 1193.57 L 1411.43 1192.07 L 1426.12 1187.84 L 1436.03 1181.55 L 1439.66 1174.15 L 1436.48 1166.82 L 1427.08 1160.65 L 1412.93 1156.54 L 1396.11 1155.09 L 1379.15 1156.54 L 1364.58 1160.65 L 1354.57 1166.82 L 1350.64 1174.15 L 1351.37 1210.88 L 1354.25 1218.37 L 1363.47 1224.74 L 1377.67 1229.03 L 1394.69 1230.55 L 1411.87 1229.03 L 1426.49 1224.74 L 1436.34 1218.37 L 1439.95 1210.88 L 1439.66 1174.15" stroke="black" stroke-width="4" fill="none" stroke-linecap="round" stroke-linejoin="round"/>
  <path d="M 1524.00 1209.88 L 1531.43 1214.72 L 1534.08 1220.49" stroke="black" stroke-width="4" fill="none" stroke-linecap="round" stroke-linejoin="round"/>
  <path d="M 1500.00 1200.57 L 1517.27 1202.08 L 1531.94 1206.37" stroke="black" stroke-width="4" fill="none" stroke-linecap="round" stroke-linejoin="round"/>
  <path d="M 1500.00 1205.53 L 1487.01 1206.65 L 1476.00 1209.88" stroke="black" stroke-width="4" fill="none" stroke-linecap="round" stroke-linejoin="round"/>
  <path d="M 1468.06 1206.37 L 1458.14 1212.82 L 1454.50 1220.49 L 1457.83 1228.21 L 1467.63 1234.79" stroke="black" stroke-width="4" fill="none" stroke-linecap="round" stroke-linejoin="round"/>
  <path d="M 1465.92 1220.49 L 1468.40 1226.28" stroke="black" stroke-width="4" fill="none" stroke-linecap="round" stroke-linejoin="round"/>
  <path d="M 1475.76 1231.20 L 1486.84 1234.50" stroke="black" stroke-width="4" fill="none" stroke-linecap="round" stroke-linejoin="round"/>
  <path d="M 1500.00 1235.66 L 1513.16 1234.50" stroke="black" stroke-width="4" fill="none" stroke-linecap="round" stroke-linejoin="round"/>
  <path d="M 1500.00 1240.79 L 1517.57 1239.22 L 1532.37 1234.79" stroke="black" stroke-width="4" fill="none" stroke-linecap="round" stroke-linejoin="round"/>
  <path d="M 1524.24 1231.20 L 1531.60 1226.28 L 1534.08 1220.49 L 1531.43 1214.72 L 1524.00 1209.88 L 1512.99 1206.65 L 1500.00 1205.53 L 1487.01 1206.65 L 1476.00 1209.88 L 1468.57 1214.72 L 1465.92 1220.49 L 1468.40 1226.28 L 1475.76 1231.20 L 1486.84 1234.50 L 1500.00 1235.66 L 1513.16 1234.50 L 1524.24 1231.20 L 1531.60 1226.28" stroke="black" stroke-width="4" fill="none" stroke-linecap="round" stroke-linejoin="round"/>
  <path d="M 1454.50 1220.49 L 1457.83 1228.21 L 1467.63 1234.79 L 1482.43 1239.22 L 1500.00 1240.79 L 1517.57 1239.22 L 1532.37 1234.79 L 1542.17 1228.21 L 1545.50 1220.49 L 1541.86 1212.82 L 1531.94 1206.37 L 1517.27 1202.08 L 1500.00 1200.57 L 1482.73 1202.08 L 1468.06 1206.37 L 1458.14 1212.82 L 1454.50 1220.49 L 1454.73 1257.80 L 1458.04 1265.62 L 1467.79 1272.28 L 1482.52 1276.76 L 1500.00 1278.35 L 1517.48 1276.76 L 1532.21 1272.28 L 1541.96 1265.62 L 1545.27 1257.80 L 1545.50 1220.49" stroke="black" stroke-width="4" fill="none" stroke-linecap="round" stroke-linejoin="round"/>
  <path d="M 1708.67 1210.88 L 1649.13 1185.78" stroke="black" stroke-width="4" fill="none" stroke-linecap="round" stroke-linejoin="round"/>
  <path d="M 1582.75 1157.79 L 1543.49 1141.24" stroke="black" stroke-width="4" fill="none" stroke-linecap="round" stroke-linejoin="round"/>
  <path d="M 1456.51 1141.24 L 1417.25 1157.79" stroke="black" stroke-width="4" fill="none" stroke-linecap="round" stroke-linejoin="round"/>
  <path d="M 1350.87 1185.78 L 1291.33 1210.88 L 1500.00 1306.84 L 1708.67 1210.88 L 1704.33 1367.05 L 1500.00 1467.85 L 1704.33 1367.05 L 1500.00 1467.85 L 1295.67 1367.05 L 1500.00 1467.85 L 1500.00 1622.02 L 1299.83 1516.85 L 1295.67 1367.05 L 1500.00 1467.85 L 1704.33 1367.05 L 1700.17 1516.85 L 1500.00 1622.02 L 1700.17 1516.85 L 1500.00 1622.02 L 1299.83 1516.85 L 1500.00 1622.02 L 1500.00 1769.76 L 1303.83 1660.67 L 1500.00 1769.76 L 1696.17 1660.67 L 1500.00 1769.76 L 1696.17 1660.67 L 1700.17 1516.85 L 1500.00 1622.02 L 1299.83 1516.85 L 1303.83 1660.67 L 1500.00 1769.76 L 1500.00 1911.47 L 1307.67 1798.86 L 1303.83 1660.67 L 1500.00 1769.76 L 1696.17 1660.67 L 1692.33 1798.86 L 1500.00 1911.47" stroke="black" stroke-width="4" fill="none" stroke-linecap="round" stroke-linejoin="round"/>
  <path d="M 1500.00 1306.84 L 1500.00 1467.85 L 1295.67 1367.05 L 1291.33 1210.88" stroke="black" stroke-width="4" fill="none" stroke-linecap="round" stroke-linejoin="round"/>
  <path d="M 1530.25 1135.11 L 1532.63 1129.80 L 1530.09 1124.52 L 1522.98 1120.08 L 1512.44 1117.11 L 1500.00 1116.09 L 1487.56 1117.11 L 1477.02 1120.08 L 1469.91 1124.52 L 1467.37 1129.80 L 1469.75 1135.11 L 1476.80 1139.61 L 1487.40 1142.64 L 1500.00 1143.70 L 1512.60 1142.64 L 1523.20 1139.61 L 1530.25 1135.11" stroke="black" stroke-width="4" fill="none" stroke-linecap="round" stroke-linejoin="round"/>
  <path d="M 1543.35 1165.96 L 1540.17 1173.13 L 1530.83 1179.23 L 1516.73 1183.34 L 1500.00 1184.79 L 1483.27 1183.34 L 1469.17 1179.23 L 1459.83 1173.13 L 1456.65 1165.96" stroke="black" stroke-width="4" fill="none" stroke-linecap="round" stroke-linejoin="round"/>
  <path d="M 1540.36 1136.88 L 1543.56 1129.80 L 1540.09 1122.77 L 1530.59 1116.86 L 1516.54 1112.92 L 1500.00 1111.54 L 1483.46 1112.92 L 1469.41 1116.86 L 1459.92 1122.77 L 1456.44 1129.80 L 1459.64 1136.88 L 1469.02 1142.91 L 1483.19 1146.96 L 1500.00 1148.39 L 1516.82 1146.96 L 1530.98 1142.91 L 1540.36 1136.88" stroke="black" stroke-width="4" fill="none" stroke-linecap="round" stroke-linejoin="round"/>
  <path d="M 1636.20 1170.35 L 1635.31 1168.64 L 1627.81 1164.01 L 1616.89 1160.91 L 1604.13 1159.84 L 1591.47 1160.91 L 1580.86 1164.01 L 1573.83 1168.64 L 1571.51 1174.15 L 1574.22 1179.70 L 1581.66 1184.40 L 1592.65 1187.57 L 1605.58 1188.67 L 1618.40 1187.57 L 1629.07 1184.40 L 1636.04 1179.70 L 1638.19 1174.15" stroke="black" stroke-width="4" fill="none" stroke-linecap="round" stroke-linejoin="round"/>
  <path d="M 1648.63 1210.88 L 1645.75 1218.37 L 1636.53 1224.74 L 1622.33 1229.03 L 1605.31 1230.55 L 1588.13 1229.03 L 1573.51 1224.74 L 1563.66 1218.37 L 1560.05 1210.88" stroke="black" stroke-width="4" fill="none" stroke-linecap="round" stroke-linejoin="round"/>
  <path d="M 1646.47 1181.55 L 1649.36 1174.15 L 1645.43 1166.82 L 1635.42 1160.65 L 1620.85 1156.54 L 1603.89 1155.09 L 1587.07 1156.54 L 1572.92 1160.65 L 1563.52 1166.82 L 1560.34 1174.15 L 1563.97 1181.55 L 1573.88 1187.84 L 1588.57 1192.07 L 1605.83 1193.57 L 1622.94 1192.07 L 1637.20 1187.84 L 1646.47 1181.55" stroke="black" stroke-width="4" fill="none" stroke-linecap="round" stroke-linejoin="round"/>
  <path d="M 1425.78 1179.70 L 1428.49 1174.15 L 1426.17 1168.64 L 1419.14 1164.01 L 1408.53 1160.91 L 1395.87 1159.84 L 1383.11 1160.91 L 1372.19 1164.01 L 1364.69 1168.64 L 1361.81 1174.15 L 1363.97 1179.70 L 1370.93 1184.40 L 1381.60 1187.57 L 1394.42 1188.67 L 1407.35 1187.57 L 1418.34 1184.40 L 1425.78 1179.70" stroke="black" stroke-width="4" fill="none" stroke-linecap="round" stroke-linejoin="round"/>
  <path d="M 1439.95 1210.88 L 1436.34 1218.37 L 1426.49 1224.74 L 1411.87 1229.03 L 1394.69 1230.55 L 1377.67 1229.03 L 1363.47 1224.74 L 1354.25 1218.37 L 1351.37 1210.88" stroke="black" stroke-width="4" fill="none" stroke-linecap="round" stroke-linejoin="round"/>
  <path d="M 1436.03 1181.55 L 1439.66 1174.15 L 1436.48 1166.82 L 1427.08 1160.65 L 1412.93 1156.54 L 1396.11 1155.09 L 1379.15 1156.54 L 1364.58 1160.65 L 1354.57 1166.82 L 1350.64 1174.15 L 1353.53 1181.55 L 1362.80 1187.84 L 1377.06 1192.07 L 1394.17 1193.57 L 1411.43 1192.07 L 1426.12 1187.84 L 1436.03 1181.55" stroke="black" stroke-width="4" fill="none" stroke-linecap="round" stroke-linejoin="round"/>
  <path d="M 1531.60 1226.28 L 1534.08 1220.49 L 1531.43 1214.72 L 1524.00 1209.88 L 1512.99 1206.65 L 1500.00 1205.53 L 1487.01 1206.65 L 1476.00 1209.88 L 1468.57 1214.72 L 1465.92 1220.49 L 1468.40 1226.28 L 1475.76 1231.20 L 1486.84 1234.50 L 1500.00 1235.66 L 1513.16 1234.50 L 1524.24 1231.20 L 1531.60 1226.28" stroke="black" stroke-width="4" fill="none" stroke-linecap="round" stroke-linejoin="round"/>
  <path d="M 1545.27 1257.80 L 1541.96 1265.62 L 1532.21 1272.28 L 1517.48 1276.76 L 1500.00 1278.35 L 1482.52 1276.76 L 1467.79 1272.28 L 1458.04 1265.62 L 1454.73 1257.80" stroke="black" stroke-width="4" fill="none" stroke-linecap="round" stroke-linejoin="round"/>
  <path d="M 1542.17 1228.21 L 1545.50 1220.49 L 1541.86 1212.82 L 1531.94 1206.37 L 1517.27 1202.08 L 1500.00 1200.57 L 1482.73 1202.08 L 1468.06 1206.37 L 1458.14 1212.82 L 1454.50 1220.49 L 1457.83 1228.21 L 1467.63 1234.79 L 1482.43 1239.22 L 1500.00 1240.79 L 1517.57 1239.22 L 1532.37 1234.79 L 1542.17 1228.21" stroke="black" stroke-width="4" fill="none" stroke-linecap="round" stroke-linejoin="round"/>
</svg>
