<?xml version="1.0" ?>
<svg xmlns="http://www.w3.org/2000/svg" version="1.1" width="466.69px" height="3000px" viewBox="1266.65 0 466.69 3000">
  <polygon points="1500.00,1629.47 1303.71,1732.89 1500.00,1845.12 1696.29,1732.89" fill="#f4f4f4" stroke="#f4f4f4" stroke-width="0.5" stroke-linecap="round" stroke-linejoin="round"/>
  <polygon points="1696.29,1732.89 1500.00,1845.12 1500.00,1985.38 1692.44,1869.75" fill="#f4f4f4" stroke="#f4f4f4" stroke-width="0.5" stroke-linecap="round" stroke-linejoin="round"/>
  <polygon points="1500.00,1985.38 1500.00,1845.12 1303.71,1732.89 1307.56,1869.75" fill="#f4f4f4" stroke="#f4f4f4" stroke-width="0.5" stroke-linecap="round" stroke-linejoin="round"/>
  <polygon points="1500.00,1490.70 1299.71,1590.46 1500.00,1698.88 1700.29,1590.46" fill="#f4f4f4" stroke="#f4f4f4" stroke-width="0.5" stroke-linecap="round" stroke-linejoin="round"/>
  <polygon points="1700.29,1590.46 1500.00,1698.88 1500.00,1845.12 1696.29,1732.89" fill="#f4f4f4" stroke="#f4f4f4" stroke-width="0.5" stroke-linecap="round" stroke-linejoin="round"/>
  <polygon points="1500.00,1845.12 1500.00,1698.88 1299.71,1590.46 1303.71,1732.89" fill="#f4f4f4" stroke="#f4f4f4" stroke-width="0.5" stroke-linecap="round" stroke-linejoin="round"/>
  <polygon points="1500.00,1346.39 1295.54,1442.09 1500.00,1546.29 1704.46,1442.09" fill="#f4f4f4" stroke="#f4f4f4" stroke-width="0.5" stroke-linecap="round" stroke-linejoin="round"/>
  <polygon points="1500.00,1698.88 1500.00,1546.29 1295.54,1442.09 1299.71,1590.46" fill="#f4f4f4" stroke="#f4f4f4" stroke-width="0.5" stroke-linecap="round" stroke-linejoin="round"/>
  <polygon points="1704.46,1442.09 1500.00,1546.29 1500.00,1698.88 1700.29,1590.46" fill="#f4f4f4" stroke="#f4f4f4" stroke-width="0.5" stroke-linecap="round" stroke-linejoin="round"/>
  <polygon points="1512.65,1069.36 1512.71,1032.17 1500.00,1031.16 1500.00,1068.34" fill="#f4f4f4" stroke="#f4f4f4" stroke-width="0.5" stroke-linecap="round" stroke-linejoin="round"/>
  <polygon points="1500.00,1068.34 1500.00,1031.16 1487.29,1032.17 1487.35,1069.36" fill="#f4f4f4" stroke="#f4f4f4" stroke-width="0.5" stroke-linecap="round" stroke-linejoin="round"/>
  <polygon points="1523.37,1072.30 1523.48,1035.07 1512.71,1032.17 1512.65,1069.36" fill="#f4f4f4" stroke="#f4f4f4" stroke-width="0.5" stroke-linecap="round" stroke-linejoin="round"/>
  <polygon points="1487.35,1069.36 1487.29,1032.17 1476.52,1035.07 1476.63,1072.30" fill="#f4f4f4" stroke="#f4f4f4" stroke-width="0.5" stroke-linecap="round" stroke-linejoin="round"/>
  <polygon points="1476.63,1072.30 1476.52,1035.07 1469.25,1039.42 1469.40,1076.71" fill="#f4f4f4" stroke="#f4f4f4" stroke-width="0.5" stroke-linecap="round" stroke-linejoin="round"/>
  <polygon points="1530.60,1076.71 1530.75,1039.42 1523.48,1035.07 1523.37,1072.30" fill="#f4f4f4" stroke="#f4f4f4" stroke-width="0.5" stroke-linecap="round" stroke-linejoin="round"/>
  <polygon points="1500.00,1196.20 1291.19,1287.42 1500.00,1386.91 1708.81,1287.42" fill="#f4f4f4" stroke="#f4f4f4" stroke-width="0.5" stroke-linecap="round" stroke-linejoin="round"/>
  <polygon points="1533.19,1081.95 1533.35,1044.59 1530.75,1039.42 1530.60,1076.71" fill="#f4f4f4" stroke="#f4f4f4" stroke-width="0.5" stroke-linecap="round" stroke-linejoin="round"/>
  <polygon points="1469.40,1076.71 1469.25,1039.42 1466.65,1044.59 1466.81,1081.95" fill="#f4f4f4" stroke="#f4f4f4" stroke-width="0.5" stroke-linecap="round" stroke-linejoin="round"/>
  <polygon points="1516.90,1028.07 1500.00,1026.71 1483.10,1028.07 1468.74,1031.92 1459.04,1037.70 1476.52,1035.07 1487.29,1032.17 1500.00,1031.16 1512.71,1032.17 1523.48,1035.07 1530.75,1039.42 1533.35,1044.59 1530.91,1049.79 1523.71,1054.20 1531.67,1057.42 1541.26,1051.52 1544.52,1044.59 1540.96,1037.70 1531.26,1031.92" fill="#f4f4f4" stroke="#f4f4f4" stroke-width="0.5" stroke-linecap="round" stroke-linejoin="round"/>
  <polygon points="1458.74,1051.52 1455.48,1044.59 1455.70,1081.95 1458.95,1088.98" fill="#f4f4f4" stroke="#f4f4f4" stroke-width="0.5" stroke-linecap="round" stroke-linejoin="round"/>
  <polygon points="1544.52,1044.59 1541.26,1051.52 1541.05,1088.98 1544.30,1081.95" fill="#f4f4f4" stroke="#f4f4f4" stroke-width="0.5" stroke-linecap="round" stroke-linejoin="round"/>
  <polygon points="1541.26,1051.52 1531.67,1057.42 1531.51,1094.97 1541.05,1088.98" fill="#f4f4f4" stroke="#f4f4f4" stroke-width="0.5" stroke-linecap="round" stroke-linejoin="round"/>
  <polygon points="1468.33,1057.42 1458.74,1051.52 1458.95,1088.98 1468.49,1094.97" fill="#f4f4f4" stroke="#f4f4f4" stroke-width="0.5" stroke-linecap="round" stroke-linejoin="round"/>
  <polygon points="1517.19,1061.39 1531.67,1057.42 1523.71,1054.20 1512.88,1057.17 1500.00,1058.20 1487.12,1057.17 1476.29,1054.20 1469.09,1049.79 1466.65,1044.59 1469.25,1039.42 1476.52,1035.07 1459.04,1037.70 1455.48,1044.59 1458.74,1051.52 1468.33,1057.42 1482.81,1061.39 1500.00,1062.80" fill="#f4f4f4" stroke="#f4f4f4" stroke-width="0.5" stroke-linecap="round" stroke-linejoin="round"/>
  <polygon points="1482.81,1061.39 1468.33,1057.42 1468.49,1094.97 1482.90,1099.00" fill="#f4f4f4" stroke="#f4f4f4" stroke-width="0.5" stroke-linecap="round" stroke-linejoin="round"/>
  <polygon points="1531.67,1057.42 1517.19,1061.39 1517.10,1099.00 1531.51,1094.97" fill="#f4f4f4" stroke="#f4f4f4" stroke-width="0.5" stroke-linecap="round" stroke-linejoin="round"/>
  <polygon points="1517.19,1061.39 1500.00,1062.80 1500.00,1100.43 1517.10,1099.00" fill="#f4f4f4" stroke="#f4f4f4" stroke-width="0.5" stroke-linecap="round" stroke-linejoin="round"/>
  <polygon points="1500.00,1062.80 1482.81,1061.39 1482.90,1099.00 1500.00,1100.43" fill="#f4f4f4" stroke="#f4f4f4" stroke-width="0.5" stroke-linecap="round" stroke-linejoin="round"/>
  <polygon points="1708.81,1287.42 1500.00,1386.91 1500.00,1546.29 1704.46,1442.09" fill="#f4f4f4" stroke="#f4f4f4" stroke-width="0.5" stroke-linecap="round" stroke-linejoin="round"/>
  <polygon points="1500.00,1546.29 1500.00,1386.91 1291.19,1287.42 1295.54,1442.09" fill="#f4f4f4" stroke="#f4f4f4" stroke-width="0.5" stroke-linecap="round" stroke-linejoin="round"/>
  <polygon points="1406.95,1112.86 1406.49,1075.07 1393.55,1074.02 1394.07,1111.80" fill="#f4f4f4" stroke="#f4f4f4" stroke-width="0.5" stroke-linecap="round" stroke-linejoin="round"/>
  <polygon points="1605.93,1111.80 1606.45,1074.02 1593.52,1075.07 1593.05,1112.86" fill="#f4f4f4" stroke="#f4f4f4" stroke-width="0.5" stroke-linecap="round" stroke-linejoin="round"/>
  <polygon points="1618.91,1112.86 1619.50,1075.07 1606.45,1074.02 1605.93,1111.80" fill="#f4f4f4" stroke="#f4f4f4" stroke-width="0.5" stroke-linecap="round" stroke-linejoin="round"/>
  <polygon points="1394.07,1111.80 1393.55,1074.02 1380.50,1075.07 1381.09,1112.86" fill="#f4f4f4" stroke="#f4f4f4" stroke-width="0.5" stroke-linecap="round" stroke-linejoin="round"/>
  <polygon points="1630.03,1115.94 1630.67,1078.10 1619.50,1075.07 1618.91,1112.86" fill="#f4f4f4" stroke="#f4f4f4" stroke-width="0.5" stroke-linecap="round" stroke-linejoin="round"/>
  <polygon points="1417.74,1115.94 1417.33,1078.10 1406.49,1075.07 1406.95,1112.86" fill="#f4f4f4" stroke="#f4f4f4" stroke-width="0.5" stroke-linecap="round" stroke-linejoin="round"/>
  <polygon points="1593.05,1112.86 1593.52,1075.07 1582.67,1078.10 1582.26,1115.94" fill="#f4f4f4" stroke="#f4f4f4" stroke-width="0.5" stroke-linecap="round" stroke-linejoin="round"/>
  <polygon points="1381.09,1112.86 1380.50,1075.07 1369.33,1078.10 1369.97,1115.94" fill="#f4f4f4" stroke="#f4f4f4" stroke-width="0.5" stroke-linecap="round" stroke-linejoin="round"/>
  <polygon points="1582.26,1115.94 1582.67,1078.10 1575.48,1082.64 1575.11,1120.54" fill="#f4f4f4" stroke="#f4f4f4" stroke-width="0.5" stroke-linecap="round" stroke-linejoin="round"/>
  <polygon points="1637.66,1120.54 1638.35,1082.64 1630.67,1078.10 1630.03,1115.94" fill="#f4f4f4" stroke="#f4f4f4" stroke-width="0.5" stroke-linecap="round" stroke-linejoin="round"/>
  <polygon points="1369.97,1115.94 1369.33,1078.10 1361.65,1082.64 1362.34,1120.54" fill="#f4f4f4" stroke="#f4f4f4" stroke-width="0.5" stroke-linecap="round" stroke-linejoin="round"/>
  <polygon points="1424.89,1120.54 1424.52,1082.64 1417.33,1078.10 1417.74,1115.94" fill="#f4f4f4" stroke="#f4f4f4" stroke-width="0.5" stroke-linecap="round" stroke-linejoin="round"/>
  <polygon points="1630.67,1078.10 1638.35,1082.64 1638.44,1074.80 1623.55,1070.78" fill="#f4f4f4" stroke="#f4f4f4" stroke-width="0.5" stroke-linecap="round" stroke-linejoin="round"/>
  <polygon points="1500.00,1039.76 1286.65,1126.02 1500.00,1220.29 1713.35,1126.02" fill="#f4f4f4" stroke="#f4f4f4" stroke-width="0.5" stroke-linecap="round" stroke-linejoin="round"/>
  <polygon points="1640.60,1126.02 1641.30,1088.04 1638.35,1082.64 1637.66,1120.54" fill="#f4f4f4" stroke="#f4f4f4" stroke-width="0.5" stroke-linecap="round" stroke-linejoin="round"/>
  <polygon points="1427.25,1126.02 1426.89,1088.04 1424.52,1082.64 1424.89,1120.54" fill="#f4f4f4" stroke="#f4f4f4" stroke-width="0.5" stroke-linecap="round" stroke-linejoin="round"/>
  <polygon points="1575.11,1120.54 1575.48,1082.64 1573.12,1088.04 1572.75,1126.02" fill="#f4f4f4" stroke="#f4f4f4" stroke-width="0.5" stroke-linecap="round" stroke-linejoin="round"/>
  <polygon points="1362.34,1120.54 1361.65,1082.64 1358.70,1088.04 1359.40,1126.02" fill="#f4f4f4" stroke="#f4f4f4" stroke-width="0.5" stroke-linecap="round" stroke-linejoin="round"/>
  <polygon points="1376.45,1070.78 1361.56,1074.80 1369.33,1078.10 1380.50,1075.07 1393.55,1074.02 1406.49,1075.07 1417.33,1078.10 1424.52,1082.64 1426.89,1088.04 1424.11,1093.48 1416.50,1098.09 1434.58,1095.29 1438.30,1088.04 1435.05,1080.85 1425.45,1074.80 1410.99,1070.78 1393.80,1069.36" fill="#f4f4f4" stroke="#f4f4f4" stroke-width="0.5" stroke-linecap="round" stroke-linejoin="round"/>
  <polygon points="1438.30,1088.04 1434.58,1095.29 1434.91,1133.37 1438.61,1126.02" fill="#f4f4f4" stroke="#f4f4f4" stroke-width="0.5" stroke-linecap="round" stroke-linejoin="round"/>
  <polygon points="1652.72,1088.04 1649.77,1095.29 1649.03,1133.37 1651.96,1126.02" fill="#f4f4f4" stroke="#f4f4f4" stroke-width="0.5" stroke-linecap="round" stroke-linejoin="round"/>
  <polygon points="1565.42,1095.29 1561.70,1088.04 1561.39,1126.02 1565.09,1133.37" fill="#f4f4f4" stroke="#f4f4f4" stroke-width="0.5" stroke-linecap="round" stroke-linejoin="round"/>
  <polygon points="1350.23,1095.29 1347.28,1088.04 1348.04,1126.02 1350.97,1133.37" fill="#f4f4f4" stroke="#f4f4f4" stroke-width="0.5" stroke-linecap="round" stroke-linejoin="round"/>
  <polygon points="1649.77,1095.29 1652.72,1088.04 1648.69,1080.85 1638.44,1074.80 1638.35,1082.64 1641.30,1088.04 1639.10,1093.48 1631.99,1098.09 1621.08,1101.19 1607.97,1102.27 1594.75,1101.19 1583.50,1098.09 1575.89,1093.48 1573.12,1088.04 1575.48,1082.64 1582.67,1078.10 1593.52,1075.07 1606.45,1074.02 1619.50,1075.07 1630.67,1078.10 1623.55,1070.78 1606.20,1069.36 1589.01,1070.78 1574.55,1074.80 1564.95,1080.85 1561.70,1088.04 1565.42,1095.29 1575.55,1101.46 1590.58,1105.61 1608.23,1107.08 1625.73,1105.61 1640.31,1101.46" fill="#f4f4f4" stroke="#f4f4f4" stroke-width="0.5" stroke-linecap="round" stroke-linejoin="round"/>
  <polygon points="1359.69,1101.46 1350.23,1095.29 1350.97,1133.37 1360.40,1139.63" fill="#f4f4f4" stroke="#f4f4f4" stroke-width="0.5" stroke-linecap="round" stroke-linejoin="round"/>
  <polygon points="1575.55,1101.46 1565.42,1095.29 1565.09,1133.37 1575.17,1139.63" fill="#f4f4f4" stroke="#f4f4f4" stroke-width="0.5" stroke-linecap="round" stroke-linejoin="round"/>
  <polygon points="1649.77,1095.29 1640.31,1101.46 1639.60,1139.63 1649.03,1133.37" fill="#f4f4f4" stroke="#f4f4f4" stroke-width="0.5" stroke-linecap="round" stroke-linejoin="round"/>
  <polygon points="1434.58,1095.29 1424.45,1101.46 1424.83,1139.63 1434.91,1133.37" fill="#f4f4f4" stroke="#f4f4f4" stroke-width="0.5" stroke-linecap="round" stroke-linejoin="round"/>
  <polygon points="1374.27,1105.61 1391.77,1107.08 1409.42,1105.61 1424.45,1101.46 1434.58,1095.29 1416.50,1098.09 1405.25,1101.19 1392.03,1102.27 1378.92,1101.19 1368.01,1098.09 1360.90,1093.48 1358.70,1088.04 1361.65,1082.64 1369.33,1078.10 1361.56,1074.80 1351.31,1080.85 1347.28,1088.04 1350.23,1095.29 1359.69,1101.46" fill="#f4f4f4" stroke="#f4f4f4" stroke-width="0.5" stroke-linecap="round" stroke-linejoin="round"/>
  <polygon points="1590.58,1105.61 1575.55,1101.46 1575.17,1139.63 1590.12,1143.83" fill="#f4f4f4" stroke="#f4f4f4" stroke-width="0.5" stroke-linecap="round" stroke-linejoin="round"/>
  <polygon points="1640.31,1101.46 1625.73,1105.61 1625.09,1143.83 1639.60,1139.63" fill="#f4f4f4" stroke="#f4f4f4" stroke-width="0.5" stroke-linecap="round" stroke-linejoin="round"/>
  <polygon points="1424.45,1101.46 1409.42,1105.61 1409.88,1143.83 1424.83,1139.63" fill="#f4f4f4" stroke="#f4f4f4" stroke-width="0.5" stroke-linecap="round" stroke-linejoin="round"/>
  <polygon points="1374.27,1105.61 1359.69,1101.46 1360.40,1139.63 1374.91,1143.83" fill="#f4f4f4" stroke="#f4f4f4" stroke-width="0.5" stroke-linecap="round" stroke-linejoin="round"/>
  <polygon points="1500.00,1386.91 1500.00,1220.29 1286.65,1126.02 1291.19,1287.42" fill="#f4f4f4" stroke="#f4f4f4" stroke-width="0.5" stroke-linecap="round" stroke-linejoin="round"/>
  <polygon points="1713.35,1126.02 1500.00,1220.29 1500.00,1386.91 1708.81,1287.42" fill="#f4f4f4" stroke="#f4f4f4" stroke-width="0.5" stroke-linecap="round" stroke-linejoin="round"/>
  <polygon points="1625.73,1105.61 1608.23,1107.08 1607.69,1145.33 1625.09,1143.83" fill="#f4f4f4" stroke="#f4f4f4" stroke-width="0.5" stroke-linecap="round" stroke-linejoin="round"/>
  <polygon points="1409.42,1105.61 1391.77,1107.08 1392.31,1145.33 1409.88,1143.83" fill="#f4f4f4" stroke="#f4f4f4" stroke-width="0.5" stroke-linecap="round" stroke-linejoin="round"/>
  <polygon points="1608.23,1107.08 1590.58,1105.61 1590.12,1143.83 1607.69,1145.33" fill="#f4f4f4" stroke="#f4f4f4" stroke-width="0.5" stroke-linecap="round" stroke-linejoin="round"/>
  <polygon points="1391.77,1107.08 1374.27,1105.61 1374.91,1143.83 1392.31,1145.33" fill="#f4f4f4" stroke="#f4f4f4" stroke-width="0.5" stroke-linecap="round" stroke-linejoin="round"/>
  <polygon points="1500.00,1157.21 1500.00,1118.81 1486.71,1119.91 1486.78,1158.33" fill="#f4f4f4" stroke="#f4f4f4" stroke-width="0.5" stroke-linecap="round" stroke-linejoin="round"/>
  <polygon points="1513.22,1158.33 1513.29,1119.91 1500.00,1118.81 1500.00,1157.21" fill="#f4f4f4" stroke="#f4f4f4" stroke-width="0.5" stroke-linecap="round" stroke-linejoin="round"/>
  <polygon points="1486.78,1158.33 1486.71,1119.91 1475.45,1123.08 1475.58,1161.54" fill="#f4f4f4" stroke="#f4f4f4" stroke-width="0.5" stroke-linecap="round" stroke-linejoin="round"/>
  <polygon points="1524.42,1161.54 1524.55,1123.08 1513.29,1119.91 1513.22,1158.33" fill="#f4f4f4" stroke="#f4f4f4" stroke-width="0.5" stroke-linecap="round" stroke-linejoin="round"/>
  <polygon points="1475.58,1161.54 1475.45,1123.08 1467.85,1127.83 1468.02,1166.36" fill="#f4f4f4" stroke="#f4f4f4" stroke-width="0.5" stroke-linecap="round" stroke-linejoin="round"/>
  <polygon points="1531.98,1166.36 1532.15,1127.83 1524.55,1123.08 1524.42,1161.54" fill="#f4f4f4" stroke="#f4f4f4" stroke-width="0.5" stroke-linecap="round" stroke-linejoin="round"/>
  <polygon points="1524.55,1123.08 1532.15,1127.83 1542.82,1125.96 1532.67,1119.63 1517.66,1115.42" fill="#f4f4f4" stroke="#f4f4f4" stroke-width="0.5" stroke-linecap="round" stroke-linejoin="round"/>
  <polygon points="1468.02,1166.36 1467.85,1127.83 1465.13,1133.48 1465.31,1172.09" fill="#f4f4f4" stroke="#f4f4f4" stroke-width="0.5" stroke-linecap="round" stroke-linejoin="round"/>
  <polygon points="1534.69,1172.09 1534.87,1133.48 1532.15,1127.83 1531.98,1166.36" fill="#f4f4f4" stroke="#f4f4f4" stroke-width="0.5" stroke-linecap="round" stroke-linejoin="round"/>
  <polygon points="1456.86,1141.06 1453.45,1133.48 1453.69,1172.09 1457.08,1179.77" fill="#f4f4f4" stroke="#f4f4f4" stroke-width="0.5" stroke-linecap="round" stroke-linejoin="round"/>
  <polygon points="1546.55,1133.48 1543.14,1141.06 1542.92,1179.77 1546.31,1172.09" fill="#f4f4f4" stroke="#f4f4f4" stroke-width="0.5" stroke-linecap="round" stroke-linejoin="round"/>
  <polygon points="1543.14,1141.06 1546.55,1133.48 1542.82,1125.96 1532.15,1127.83 1534.87,1133.48 1532.33,1139.16 1524.80,1143.99 1513.47,1147.23 1500.00,1148.37 1486.53,1147.23 1475.20,1143.99 1467.67,1139.16 1465.13,1133.48 1467.85,1127.83 1475.45,1123.08 1486.71,1119.91 1500.00,1118.81 1513.29,1119.91 1524.55,1123.08 1517.66,1115.42 1500.00,1113.94 1482.34,1115.42 1467.33,1119.63 1457.18,1125.96 1453.45,1133.48 1456.86,1141.06 1466.88,1147.52 1482.02,1151.86 1500.00,1153.40 1517.98,1151.86 1533.12,1147.52" fill="#f4f4f4" stroke="#f4f4f4" stroke-width="0.5" stroke-linecap="round" stroke-linejoin="round"/>
  <polygon points="1466.88,1147.52 1456.86,1141.06 1457.08,1179.77 1467.05,1186.32" fill="#f4f4f4" stroke="#f4f4f4" stroke-width="0.5" stroke-linecap="round" stroke-linejoin="round"/>
  <polygon points="1543.14,1141.06 1533.12,1147.52 1532.95,1186.32 1542.92,1179.77" fill="#f4f4f4" stroke="#f4f4f4" stroke-width="0.5" stroke-linecap="round" stroke-linejoin="round"/>
  <polygon points="1482.02,1151.86 1466.88,1147.52 1467.05,1186.32 1482.11,1190.72" fill="#f4f4f4" stroke="#f4f4f4" stroke-width="0.5" stroke-linecap="round" stroke-linejoin="round"/>
  <polygon points="1533.12,1147.52 1517.98,1151.86 1517.89,1190.72 1532.95,1186.32" fill="#f4f4f4" stroke="#f4f4f4" stroke-width="0.5" stroke-linecap="round" stroke-linejoin="round"/>
  <polygon points="1517.98,1151.86 1500.00,1153.40 1500.00,1192.28 1517.89,1190.72" fill="#f4f4f4" stroke="#f4f4f4" stroke-width="0.5" stroke-linecap="round" stroke-linejoin="round"/>
  <polygon points="1500.00,1153.40 1482.02,1151.86 1482.11,1190.72 1500.00,1192.28" fill="#f4f4f4" stroke="#f4f4f4" stroke-width="0.5" stroke-linecap="round" stroke-linejoin="round"/>
  <path d="M 1307.56 1869.75 L 1500.00 1985.38 L 1692.44 1869.75 L 1696.29 1732.89 L 1500.00 1845.12 L 1500.00 1985.38 L 1692.44 1869.75 L 1696.29 1732.89 L 1500.00 1845.12 L 1303.71 1732.89 L 1307.56 1869.75 L 1500.00 1985.38 L 1500.00 1845.12 L 1303.71 1732.89 L 1307.56 1869.75" stroke="black" stroke-width="4" fill="none" stroke-linecap="round" stroke-linejoin="round"/>
  <path d="M 1303.71 1732.89 L 1500.00 1845.12 L 1696.29 1732.89 L 1700.29 1590.46 L 1500.00 1698.88 L 1500.00 1845.12 L 1696.29 1732.89 L 1700.29 1590.46 L 1500.00 1698.88 L 1299.71 1590.46 L 1303.71 1732.89 L 1500.00 1845.12 L 1500.00 1698.88 L 1299.71 1590.46 L 1303.71 1732.89" stroke="black" stroke-width="4" fill="none" stroke-linecap="round" stroke-linejoin="round"/>
  <path d="M 1299.71 1590.46 L 1500.00 1698.88 L 1700.29 1590.46 L 1704.46 1442.09 L 1500.00 1546.29 L 1500.00 1698.88 L 1700.29 1590.46 L 1704.46 1442.09 L 1500.00 1546.29 L 1295.54 1442.09 L 1299.71 1590.46 L 1500.00 1698.88 L 1500.00 1546.29 L 1295.54 1442.09 L 1299.71 1590.46" stroke="black" stroke-width="4" fill="none" stroke-linecap="round" stroke-linejoin="round"/>
  <path d="M 1295.54 1442.09 L 1500.00 1546.29 L 1704.46 1442.09 L 1708.81 1287.42 L 1500.00 1386.91 L 1500.00 1546.29 L 1704.46 1442.09 L 1708.81 1287.42 L 1500.00 1386.91 L 1291.19 1287.42 L 1295.54 1442.09 L 1500.00 1546.29 L 1500.00 1386.91 L 1291.19 1287.42 L 1295.54 1442.09" stroke="black" stroke-width="4" fill="none" stroke-linecap="round" stroke-linejoin="round"/>
  <path d="M 1291.19 1287.42 L 1500.00 1386.91 L 1708.81 1287.42 L 1713.35 1126.02 L 1500.00 1220.29 L 1500.00 1386.91 L 1708.81 1287.42 L 1713.35 1126.02 L 1652.45 1101.40 L 1713.35 1126.02 L 1500.00 1220.29 L 1286.65 1126.02 L 1347.55 1101.40 L 1286.65 1126.02 L 1291.19 1287.42 L 1500.00 1386.91 L 1500.00 1220.29 L 1286.65 1126.02 L 1291.19 1287.42" stroke="black" stroke-width="4" fill="none" stroke-linecap="round" stroke-linejoin="round"/>
  <path d="M 1581.73 1072.80 L 1544.44 1057.73 L 1581.73 1072.80" stroke="black" stroke-width="4" fill="none" stroke-linecap="round" stroke-linejoin="round"/>
  <path d="M 1441.08 1063.58 L 1418.27 1072.80 L 1441.08 1063.58" stroke="black" stroke-width="4" fill="none" stroke-linecap="round" stroke-linejoin="round"/>
  <path d="M 1500.00 1031.16 L 1512.71 1032.17" stroke="black" stroke-width="4" fill="none" stroke-linecap="round" stroke-linejoin="round"/>
  <path d="M 1523.48 1035.07 L 1530.75 1039.42" stroke="black" stroke-width="4" fill="none" stroke-linecap="round" stroke-linejoin="round"/>
  <path d="M 1500.00 1026.71 L 1516.90 1028.07 L 1531.26 1031.92" stroke="black" stroke-width="4" fill="none" stroke-linecap="round" stroke-linejoin="round"/>
  <path d="M 1487.29 1032.17 L 1476.52 1035.07" stroke="black" stroke-width="4" fill="none" stroke-linecap="round" stroke-linejoin="round"/>
  <path d="M 1468.74 1031.92 L 1459.04 1037.70 L 1455.48 1044.59 L 1458.74 1051.52 L 1468.33 1057.42" stroke="black" stroke-width="4" fill="none" stroke-linecap="round" stroke-linejoin="round"/>
  <path d="M 1469.25 1039.42 L 1466.65 1044.59" stroke="black" stroke-width="4" fill="none" stroke-linecap="round" stroke-linejoin="round"/>
  <path d="M 1476.29 1054.20 L 1487.12 1057.17 L 1500.00 1058.20" stroke="black" stroke-width="4" fill="none" stroke-linecap="round" stroke-linejoin="round"/>
  <path d="M 1500.00 1062.80 L 1517.19 1061.39 L 1531.67 1057.42" stroke="black" stroke-width="4" fill="none" stroke-linecap="round" stroke-linejoin="round"/>
  <path d="M 1523.71 1054.20 L 1530.91 1049.79 L 1533.35 1044.59" stroke="black" stroke-width="4" fill="none" stroke-linecap="round" stroke-linejoin="round"/>
  <path d="M 1530.91 1049.79 L 1533.35 1044.59 L 1530.75 1039.42 L 1523.48 1035.07 L 1512.71 1032.17 L 1500.00 1031.16 L 1487.29 1032.17 L 1476.52 1035.07 L 1469.25 1039.42 L 1466.65 1044.59 L 1469.09 1049.79 L 1476.29 1054.20 L 1487.12 1057.17 L 1500.00 1058.20 L 1512.88 1057.17 L 1523.71 1054.20 L 1530.91 1049.79" stroke="black" stroke-width="4" fill="none" stroke-linecap="round" stroke-linejoin="round"/>
  <path d="M 1455.48 1044.59 L 1458.74 1051.52 L 1468.33 1057.42 L 1482.81 1061.39 L 1500.00 1062.80 L 1517.19 1061.39 L 1531.67 1057.42 L 1541.26 1051.52 L 1544.52 1044.59 L 1540.96 1037.70 L 1531.26 1031.92 L 1516.90 1028.07 L 1500.00 1026.71 L 1483.10 1028.07 L 1468.74 1031.92 L 1459.04 1037.70 L 1455.48 1044.59 L 1455.70 1081.95 L 1458.95 1088.98 L 1468.49 1094.97 L 1482.90 1099.00 L 1500.00 1100.43 L 1517.10 1099.00 L 1531.51 1094.97 L 1541.05 1088.98 L 1544.30 1081.95 L 1544.52 1044.59" stroke="black" stroke-width="4" fill="none" stroke-linecap="round" stroke-linejoin="round"/>
  <path d="M 1582.67 1078.10 L 1593.52 1075.07 L 1606.45 1074.02 L 1619.50 1075.07" stroke="black" stroke-width="4" fill="none" stroke-linecap="round" stroke-linejoin="round"/>
  <path d="M 1630.67 1078.10 L 1638.35 1082.64" stroke="black" stroke-width="4" fill="none" stroke-linecap="round" stroke-linejoin="round"/>
  <path d="M 1606.20 1069.36 L 1623.55 1070.78 L 1638.44 1074.80" stroke="black" stroke-width="4" fill="none" stroke-linecap="round" stroke-linejoin="round"/>
  <path d="M 1574.55 1074.80 L 1564.95 1080.85 L 1561.70 1088.04 L 1565.42 1095.29 L 1575.55 1101.46" stroke="black" stroke-width="4" fill="none" stroke-linecap="round" stroke-linejoin="round"/>
  <path d="M 1583.50 1098.09 L 1594.75 1101.19 L 1607.97 1102.27 L 1621.08 1101.19" stroke="black" stroke-width="4" fill="none" stroke-linecap="round" stroke-linejoin="round"/>
  <path d="M 1608.23 1107.08 L 1625.73 1105.61 L 1640.31 1101.46" stroke="black" stroke-width="4" fill="none" stroke-linecap="round" stroke-linejoin="round"/>
  <path d="M 1631.99 1098.09 L 1639.10 1093.48 L 1641.30 1088.04 L 1638.35 1082.64 L 1630.67 1078.10 L 1619.50 1075.07 L 1606.45 1074.02 L 1593.52 1075.07 L 1582.67 1078.10 L 1575.48 1082.64 L 1573.12 1088.04 L 1575.89 1093.48 L 1583.50 1098.09 L 1594.75 1101.19 L 1607.97 1102.27 L 1621.08 1101.19 L 1631.99 1098.09 L 1639.10 1093.48" stroke="black" stroke-width="4" fill="none" stroke-linecap="round" stroke-linejoin="round"/>
  <path d="M 1561.70 1088.04 L 1565.42 1095.29 L 1575.55 1101.46 L 1590.58 1105.61 L 1608.23 1107.08 L 1625.73 1105.61 L 1640.31 1101.46 L 1649.77 1095.29 L 1652.72 1088.04 L 1648.69 1080.85 L 1638.44 1074.80 L 1623.55 1070.78 L 1606.20 1069.36 L 1589.01 1070.78 L 1574.55 1074.80 L 1564.95 1080.85 L 1561.70 1088.04 L 1561.39 1126.02 L 1565.09 1133.37 L 1575.17 1139.63 L 1590.12 1143.83 L 1607.69 1145.33 L 1625.09 1143.83 L 1639.60 1139.63 L 1649.03 1133.37 L 1651.96 1126.02 L 1652.72 1088.04" stroke="black" stroke-width="4" fill="none" stroke-linecap="round" stroke-linejoin="round"/>
  <path d="M 1417.33 1078.10 L 1424.52 1082.64 L 1426.88 1088.04 L 1424.11 1093.48 L 1416.50 1098.09" stroke="black" stroke-width="4" fill="none" stroke-linecap="round" stroke-linejoin="round"/>
  <path d="M 1393.80 1069.36 L 1410.99 1070.78 L 1425.45 1074.80" stroke="black" stroke-width="4" fill="none" stroke-linecap="round" stroke-linejoin="round"/>
  <path d="M 1380.50 1075.07 L 1369.33 1078.10" stroke="black" stroke-width="4" fill="none" stroke-linecap="round" stroke-linejoin="round"/>
  <path d="M 1361.56 1074.80 L 1351.31 1080.85 L 1347.28 1088.04 L 1350.23 1095.29 L 1359.69 1101.46" stroke="black" stroke-width="4" fill="none" stroke-linecap="round" stroke-linejoin="round"/>
  <path d="M 1361.65 1082.64 L 1358.70 1088.04 L 1360.90 1093.48" stroke="black" stroke-width="4" fill="none" stroke-linecap="round" stroke-linejoin="round"/>
  <path d="M 1368.01 1098.09 L 1378.92 1101.19" stroke="black" stroke-width="4" fill="none" stroke-linecap="round" stroke-linejoin="round"/>
  <path d="M 1391.77 1107.08 L 1409.42 1105.61 L 1424.45 1101.46" stroke="black" stroke-width="4" fill="none" stroke-linecap="round" stroke-linejoin="round"/>
  <path d="M 1424.11 1093.48 L 1426.88 1088.04 L 1424.52 1082.64 L 1417.33 1078.10 L 1406.49 1075.07 L 1393.55 1074.02 L 1380.50 1075.07 L 1369.33 1078.10 L 1361.65 1082.64 L 1358.70 1088.04 L 1360.90 1093.48 L 1368.01 1098.09 L 1378.92 1101.19 L 1392.03 1102.27 L 1405.25 1101.19 L 1416.50 1098.09 L 1424.11 1093.48" stroke="black" stroke-width="4" fill="none" stroke-linecap="round" stroke-linejoin="round"/>
  <path d="M 1347.28 1088.04 L 1350.23 1095.29 L 1359.69 1101.46 L 1374.27 1105.61 L 1391.77 1107.08 L 1409.42 1105.61 L 1424.45 1101.46 L 1434.58 1095.29 L 1438.30 1088.04 L 1435.05 1080.85 L 1425.45 1074.80 L 1410.99 1070.78 L 1393.80 1069.36 L 1376.45 1070.78 L 1361.56 1074.80 L 1351.31 1080.85 L 1347.28 1088.04 L 1348.04 1126.02 L 1350.97 1133.37 L 1360.40 1139.63 L 1374.91 1143.83 L 1392.31 1145.33 L 1409.88 1143.83 L 1424.83 1139.63 L 1434.91 1133.37 L 1438.61 1126.02 L 1438.30 1088.04" stroke="black" stroke-width="4" fill="none" stroke-linecap="round" stroke-linejoin="round"/>
  <path d="M 1524.55 1123.08 L 1532.15 1127.83 L 1534.87 1133.48" stroke="black" stroke-width="4" fill="none" stroke-linecap="round" stroke-linejoin="round"/>
  <path d="M 1500.00 1113.94 L 1517.66 1115.42 L 1532.67 1119.63" stroke="black" stroke-width="4" fill="none" stroke-linecap="round" stroke-linejoin="round"/>
  <path d="M 1500.00 1118.81 L 1486.71 1119.91 L 1475.45 1123.08" stroke="black" stroke-width="4" fill="none" stroke-linecap="round" stroke-linejoin="round"/>
  <path d="M 1467.33 1119.63 L 1457.18 1125.96 L 1453.45 1133.48 L 1456.86 1141.06 L 1466.88 1147.52" stroke="black" stroke-width="4" fill="none" stroke-linecap="round" stroke-linejoin="round"/>
  <path d="M 1465.13 1133.48 L 1467.67 1139.16" stroke="black" stroke-width="4" fill="none" stroke-linecap="round" stroke-linejoin="round"/>
  <path d="M 1475.20 1143.99 L 1486.53 1147.23" stroke="black" stroke-width="4" fill="none" stroke-linecap="round" stroke-linejoin="round"/>
  <path d="M 1500.00 1148.37 L 1513.47 1147.23" stroke="black" stroke-width="4" fill="none" stroke-linecap="round" stroke-linejoin="round"/>
  <path d="M 1500.00 1153.40 L 1517.98 1151.86 L 1533.12 1147.52" stroke="black" stroke-width="4" fill="none" stroke-linecap="round" stroke-linejoin="round"/>
  <path d="M 1524.80 1143.99 L 1532.33 1139.16 L 1534.87 1133.48 L 1532.15 1127.83 L 1524.55 1123.08 L 1513.29 1119.91 L 1500.00 1118.81 L 1486.71 1119.91 L 1475.45 1123.08 L 1467.85 1127.83 L 1465.13 1133.48 L 1467.67 1139.16 L 1475.20 1143.99 L 1486.53 1147.23 L 1500.00 1148.37 L 1513.47 1147.23 L 1524.80 1143.99 L 1532.33 1139.16" stroke="black" stroke-width="4" fill="none" stroke-linecap="round" stroke-linejoin="round"/>
  <path d="M 1453.45 1133.48 L 1456.86 1141.06 L 1466.88 1147.52 L 1482.02 1151.86 L 1500.00 1153.40 L 1517.98 1151.86 L 1533.12 1147.52 L 1543.14 1141.06 L 1546.55 1133.48 L 1542.82 1125.96 L 1532.67 1119.63 L 1517.66 1115.42 L 1500.00 1113.94 L 1482.34 1115.42 L 1467.33 1119.63 L 1457.18 1125.96 L 1453.45 1133.48 L 1453.69 1172.09 L 1457.08 1179.77 L 1467.05 1186.32 L 1482.11 1190.72 L 1500.00 1192.28 L 1517.89 1190.72 L 1532.95 1186.32 L 1542.92 1179.77 L 1546.31 1172.09 L 1546.55 1133.48" stroke="black" stroke-width="4" fill="none" stroke-linecap="round" stroke-linejoin="round"/>
  <path d="M 1286.65 1126.02 L 1500.00 1220.29 L 1713.35 1126.02 L 1652.45 1101.40" stroke="black" stroke-width="4" fill="none" stroke-linecap="round" stroke-linejoin="round"/>
  <path d="M 1581.73 1072.80 L 1544.44 1057.73" stroke="black" stroke-width="4" fill="none" stroke-linecap="round" stroke-linejoin="round"/>
  <path d="M 1441.08 1063.58 L 1418.27 1072.80" stroke="black" stroke-width="4" fill="none" stroke-linecap="round" stroke-linejoin="round"/>
  <path d="M 1347.55 1101.40 L 1286.65 1126.02 L 1291.19 1287.42 L 1500.00 1386.91 L 1500.00 1546.29 L 1295.54 1442.09 L 1500.00 1546.29 L 1704.46 1442.09 L 1500.00 1546.29 L 1704.46 1442.09 L 1708.81 1287.42 L 1500.00 1386.91 L 1291.19 1287.42 L 1295.54 1442.09 L 1500.00 1546.29 L 1500.00 1698.88 L 1299.71 1590.46 L 1295.54 1442.09 L 1500.00 1546.29 L 1704.46 1442.09 L 1700.29 1590.46 L 1500.00 1698.88 L 1700.29 1590.46 L 1500.00 1698.88 L 1299.71 1590.46 L 1500.00 1698.88 L 1500.00 1845.12 L 1303.71 1732.89 L 1299.71 1590.46 L 1500.00 1698.88 L 1700.29 1590.46 L 1696.29 1732.89 L 1500.00 1845.12 L 1696.29 1732.89 L 1500.00 1845.12 L 1303.71 1732.89 L 1500.00 1845.12 L 1500.00 1985.38 L 1307.56 1869.75 L 1303.71 1732.89 L 1500.00 1845.12 L 1696.29 1732.89 L 1692.44 1869.75 L 1500.00 1985.38" stroke="black" stroke-width="4" fill="none" stroke-linecap="round" stroke-linejoin="round"/>
  <path d="M 1500.00 1220.29 L 1500.00 1386.91 L 1291.19 1287.42 L 1500.00 1386.91 L 1708.81 1287.42 L 1500.00 1386.91 L 1708.81 1287.42 L 1713.35 1126.02" stroke="black" stroke-width="4" fill="none" stroke-linecap="round" stroke-linejoin="round"/>
  <path d="M 1530.91 1049.79 L 1533.35 1044.59 L 1530.75 1039.42 L 1523.48 1035.07 L 1512.71 1032.17 L 1500.00 1031.16 L 1487.29 1032.17 L 1476.52 1035.07 L 1469.25 1039.42 L 1466.65 1044.59 L 1469.09 1049.79 L 1476.29 1054.20 L 1487.12 1057.17 L 1500.00 1058.20 L 1512.88 1057.17 L 1523.71 1054.20 L 1530.91 1049.79" stroke="black" stroke-width="4" fill="none" stroke-linecap="round" stroke-linejoin="round"/>
  <path d="M 1544.30 1081.95 L 1541.05 1088.98 L 1531.51 1094.97 L 1517.10 1099.00 L 1500.00 1100.43 L 1482.90 1099.00 L 1468.49 1094.97 L 1458.95 1088.98 L 1455.70 1081.95" stroke="black" stroke-width="4" fill="none" stroke-linecap="round" stroke-linejoin="round"/>
  <path d="M 1541.26 1051.52 L 1544.52 1044.59 L 1540.96 1037.70 L 1531.26 1031.92 L 1516.90 1028.07 L 1500.00 1026.71 L 1483.10 1028.07 L 1468.74 1031.92 L 1459.04 1037.70 L 1455.48 1044.59 L 1458.74 1051.52 L 1468.33 1057.42 L 1482.81 1061.39 L 1500.00 1062.80 L 1517.19 1061.39 L 1531.67 1057.42 L 1541.26 1051.52" stroke="black" stroke-width="4" fill="none" stroke-linecap="round" stroke-linejoin="round"/>
  <path d="M 1639.10 1093.48 L 1641.30 1088.04 L 1638.35 1082.64 L 1630.67 1078.10 L 1619.50 1075.07 L 1606.45 1074.02 L 1593.52 1075.07 L 1582.67 1078.10 L 1575.48 1082.64 L 1573.12 1088.04 L 1575.89 1093.48 L 1583.50 1098.09 L 1594.75 1101.19 L 1607.97 1102.27 L 1621.08 1101.19 L 1631.99 1098.09 L 1639.10 1093.48" stroke="black" stroke-width="4" fill="none" stroke-linecap="round" stroke-linejoin="round"/>
  <path d="M 1651.96 1126.02 L 1649.03 1133.37 L 1639.60 1139.63 L 1625.09 1143.83 L 1607.69 1145.33 L 1590.12 1143.83 L 1575.17 1139.63 L 1565.09 1133.37 L 1561.39 1126.02" stroke="black" stroke-width="4" fill="none" stroke-linecap="round" stroke-linejoin="round"/>
  <path d="M 1649.77 1095.29 L 1652.72 1088.04 L 1648.69 1080.85 L 1638.44 1074.80 L 1623.55 1070.78 L 1606.20 1069.36 L 1589.01 1070.78 L 1574.55 1074.80 L 1564.95 1080.85 L 1561.70 1088.04 L 1565.42 1095.29 L 1575.55 1101.46 L 1590.58 1105.61 L 1608.23 1107.08 L 1625.73 1105.61 L 1640.31 1101.46 L 1649.77 1095.29" stroke="black" stroke-width="4" fill="none" stroke-linecap="round" stroke-linejoin="round"/>
  <path d="M 1424.11 1093.48 L 1426.88 1088.04 L 1424.52 1082.64 L 1417.33 1078.10 L 1406.49 1075.07 L 1393.55 1074.02 L 1380.50 1075.07 L 1369.33 1078.10 L 1361.65 1082.64 L 1358.70 1088.04 L 1360.90 1093.48 L 1368.01 1098.09 L 1378.92 1101.19 L 1392.03 1102.27 L 1405.25 1101.19 L 1416.50 1098.09 L 1424.11 1093.48" stroke="black" stroke-width="4" fill="none" stroke-linecap="round" stroke-linejoin="round"/>
  <path d="M 1438.61 1126.02 L 1434.91 1133.37 L 1424.83 1139.63 L 1409.88 1143.83 L 1392.31 1145.33 L 1374.91 1143.83 L 1360.40 1139.63 L 1350.97 1133.37 L 1348.04 1126.02" stroke="black" stroke-width="4" fill="none" stroke-linecap="round" stroke-linejoin="round"/>
  <path d="M 1435.05 1080.85 L 1425.45 1074.80 L 1410.99 1070.78 L 1393.80 1069.36 L 1376.45 1070.78 L 1361.56 1074.80 L 1351.31 1080.85 L 1347.28 1088.04 L 1350.23 1095.29 L 1359.69 1101.46 L 1374.27 1105.61 L 1391.77 1107.08 L 1409.42 1105.61 L 1424.45 1101.46 L 1434.58 1095.29 L 1438.30 1088.04" stroke="black" stroke-width="4" fill="none" stroke-linecap="round" stroke-linejoin="round"/>
  <path d="M 1532.33 1139.16 L 1534.87 1133.48 L 1532.15 1127.83 L 1524.55 1123.08 L 1513.29 1119.91 L 1500.00 1118.81 L 1486.71 1119.91 L 1475.45 1123.08 L 1467.85 1127.83 L 1465.13 1133.48 L 1467.67 1139.16 L 1475.20 1143.99 L 1486.53 1147.23 L 1500.00 1148.37 L 1513.47 1147.23 L 1524.80 1143.99 L 1532.33 1139.16" stroke="black" stroke-width="4" fill="none" stroke-linecap="round" stroke-linejoin="round"/>
  <path d="M 1546.31 1172.09 L 1542.92 1179.77 L 1532.95 1186.32 L 1517.89 1190.72 L 1500.00 1192.28 L 1482.11 1190.72 L 1467.05 1186.32 L 1457.08 1179.77 L 1453.69 1172.09" stroke="black" stroke-width="4" fill="none" stroke-linecap="round" stroke-linejoin="round"/>
  <path d="M 1543.14 1141.06 L 1546.55 1133.48 L 1542.82 1125.96 L 1532.67 1119.63 L 1517.66 1115.42 L 1500.00 1113.94 L 1482.34 1115.42 L 1467.33 1119.63 L 1457.18 1125.96 L 1453.45 1133.48 L 1456.86 1141.06 L 1466.88 1147.52 L 1482.02 1151.86 L 1500.00 1153.40 L 1517.98 1151.86 L 1533.12 1147.52 L 1543.14 1141.06" stroke="black" stroke-width="4" fill="none" stroke-linecap="round" stroke-linejoin="round"/>
</svg>
