<?xml version="1.0" ?>
<svg xmlns="http://www.w3.org/2000/svg" version="1.1" width="515.65px" height="3000px" viewBox="1242.18 0 515.65 3000">
  <polygon points="1500.00,2088.94 1312.20,2205.83 1500.00,2332.21 1687.80,2205.83" fill="#f4f4f4" stroke="#f4f4f4" stroke-width="0.5" stroke-linecap="round" stroke-linejoin="round"/>
  <polygon points="1500.00,2456.78 1500.00,2332.21 1312.20,2205.83 1315.72,2328.00" fill="#f4f4f4" stroke="#f4f4f4" stroke-width="0.5" stroke-linecap="round" stroke-linejoin="round"/>
  <polygon points="1687.80,2205.83 1500.00,2332.21 1500.00,2456.78 1684.27,2328.00" fill="#f4f4f4" stroke="#f4f4f4" stroke-width="0.5" stroke-linecap="round" stroke-linejoin="round"/>
  <polygon points="1500.00,1964.67 1308.54,2078.90 1500.00,2202.58 1691.46,2078.90" fill="#f4f4f4" stroke="#f4f4f4" stroke-width="0.5" stroke-linecap="round" stroke-linejoin="round"/>
  <polygon points="1691.46,2078.90 1500.00,2202.58 1500.00,2332.21 1687.80,2205.83" fill="#f4f4f4" stroke="#f4f4f4" stroke-width="0.5" stroke-linecap="round" stroke-linejoin="round"/>
  <polygon points="1500.00,2332.21 1500.00,2202.58 1308.54,2078.90 1312.20,2205.83" fill="#f4f4f4" stroke="#f4f4f4" stroke-width="0.5" stroke-linecap="round" stroke-linejoin="round"/>
  <polygon points="1511.84,1738.73 1511.89,1706.99 1500.00,1705.73 1500.00,1737.45" fill="#f4f4f4" stroke="#f4f4f4" stroke-width="0.5" stroke-linecap="round" stroke-linejoin="round"/>
  <polygon points="1500.00,1737.45 1500.00,1705.73 1488.11,1706.99 1488.16,1738.73" fill="#f4f4f4" stroke="#f4f4f4" stroke-width="0.5" stroke-linecap="round" stroke-linejoin="round"/>
  <polygon points="1521.86,1742.42 1521.96,1710.65 1511.89,1706.99 1511.84,1738.73" fill="#f4f4f4" stroke="#f4f4f4" stroke-width="0.5" stroke-linecap="round" stroke-linejoin="round"/>
  <polygon points="1488.16,1738.73 1488.11,1706.99 1478.04,1710.65 1478.14,1742.42" fill="#f4f4f4" stroke="#f4f4f4" stroke-width="0.5" stroke-linecap="round" stroke-linejoin="round"/>
  <polygon points="1478.14,1742.42 1478.04,1710.65 1471.25,1716.13 1471.38,1747.94" fill="#f4f4f4" stroke="#f4f4f4" stroke-width="0.5" stroke-linecap="round" stroke-linejoin="round"/>
  <polygon points="1528.62,1747.94 1528.75,1716.13 1521.96,1710.65 1521.86,1742.42" fill="#f4f4f4" stroke="#f4f4f4" stroke-width="0.5" stroke-linecap="round" stroke-linejoin="round"/>
  <polygon points="1500.00,1835.66 1304.73,1946.91 1500.00,2067.58 1695.27,1946.91" fill="#f4f4f4" stroke="#f4f4f4" stroke-width="0.5" stroke-linecap="round" stroke-linejoin="round"/>
  <polygon points="1471.38,1747.94 1471.25,1716.13 1468.82,1722.65 1468.97,1754.50" fill="#f4f4f4" stroke="#f4f4f4" stroke-width="0.5" stroke-linecap="round" stroke-linejoin="round"/>
  <polygon points="1531.03,1754.50 1531.18,1722.65 1528.75,1716.13 1528.62,1747.94" fill="#f4f4f4" stroke="#f4f4f4" stroke-width="0.5" stroke-linecap="round" stroke-linejoin="round"/>
  <polygon points="1461.70,1713.97 1458.38,1722.65 1461.44,1731.38 1470.41,1738.81 1471.10,1729.20 1468.82,1722.65 1471.25,1716.13 1478.04,1710.65 1488.11,1706.99 1500.00,1705.73 1511.89,1706.99 1521.96,1710.65 1529.23,1706.68 1515.81,1701.82 1500.00,1700.11 1484.19,1701.82 1470.77,1706.68" fill="#f4f4f4" stroke="#f4f4f4" stroke-width="0.5" stroke-linecap="round" stroke-linejoin="round"/>
  <polygon points="1541.62,1722.65 1538.56,1731.38 1538.38,1763.30 1541.43,1754.50" fill="#f4f4f4" stroke="#f4f4f4" stroke-width="0.5" stroke-linecap="round" stroke-linejoin="round"/>
  <polygon points="1461.44,1731.38 1458.38,1722.65 1458.57,1754.50 1461.62,1763.30" fill="#f4f4f4" stroke="#f4f4f4" stroke-width="0.5" stroke-linecap="round" stroke-linejoin="round"/>
  <polygon points="1470.41,1738.81 1461.44,1731.38 1461.62,1763.30 1470.54,1770.79" fill="#f4f4f4" stroke="#f4f4f4" stroke-width="0.5" stroke-linecap="round" stroke-linejoin="round"/>
  <polygon points="1538.56,1731.38 1529.59,1738.81 1529.46,1770.79 1538.38,1763.30" fill="#f4f4f4" stroke="#f4f4f4" stroke-width="0.5" stroke-linecap="round" stroke-linejoin="round"/>
  <polygon points="1538.30,1713.97 1529.23,1706.68 1521.96,1710.65 1528.75,1716.13 1531.18,1722.65 1528.90,1729.20 1522.16,1734.75 1512.03,1738.49 1500.00,1739.79 1487.97,1738.49 1477.84,1734.75 1471.10,1729.20 1470.41,1738.81 1483.94,1743.81 1500.00,1745.58 1516.06,1743.81 1529.59,1738.81 1538.56,1731.38 1541.62,1722.65" fill="#f4f4f4" stroke="#f4f4f4" stroke-width="0.5" stroke-linecap="round" stroke-linejoin="round"/>
  <polygon points="1483.94,1743.81 1470.41,1738.81 1470.54,1770.79 1484.01,1775.82" fill="#f4f4f4" stroke="#f4f4f4" stroke-width="0.5" stroke-linecap="round" stroke-linejoin="round"/>
  <polygon points="1529.59,1738.81 1516.06,1743.81 1515.99,1775.82 1529.46,1770.79" fill="#f4f4f4" stroke="#f4f4f4" stroke-width="0.5" stroke-linecap="round" stroke-linejoin="round"/>
  <polygon points="1500.00,1745.58 1483.94,1743.81 1484.01,1775.82 1500.00,1777.61" fill="#f4f4f4" stroke="#f4f4f4" stroke-width="0.5" stroke-linecap="round" stroke-linejoin="round"/>
  <polygon points="1516.06,1743.81 1500.00,1745.58 1500.00,1777.61 1515.99,1775.82" fill="#f4f4f4" stroke="#f4f4f4" stroke-width="0.5" stroke-linecap="round" stroke-linejoin="round"/>
  <polygon points="1500.00,2202.58 1500.00,2067.58 1304.73,1946.91 1308.54,2078.90" fill="#f4f4f4" stroke="#f4f4f4" stroke-width="0.5" stroke-linecap="round" stroke-linejoin="round"/>
  <polygon points="1695.27,1946.91 1500.00,2067.58 1500.00,2202.58 1691.46,2078.90" fill="#f4f4f4" stroke="#f4f4f4" stroke-width="0.5" stroke-linecap="round" stroke-linejoin="round"/>
  <polygon points="1611.09,1793.15 1611.61,1761.01 1599.42,1759.69 1598.96,1791.82" fill="#f4f4f4" stroke="#f4f4f4" stroke-width="0.5" stroke-linecap="round" stroke-linejoin="round"/>
  <polygon points="1598.96,1791.82 1599.42,1759.69 1587.34,1761.01 1586.93,1793.15" fill="#f4f4f4" stroke="#f4f4f4" stroke-width="0.5" stroke-linecap="round" stroke-linejoin="round"/>
  <polygon points="1401.04,1791.82 1400.58,1759.69 1388.39,1761.01 1388.91,1793.15" fill="#f4f4f4" stroke="#f4f4f4" stroke-width="0.5" stroke-linecap="round" stroke-linejoin="round"/>
  <polygon points="1413.07,1793.15 1412.66,1761.01 1400.58,1759.69 1401.04,1791.82" fill="#f4f4f4" stroke="#f4f4f4" stroke-width="0.5" stroke-linecap="round" stroke-linejoin="round"/>
  <polygon points="1423.16,1796.99 1422.80,1764.82 1412.66,1761.01 1413.07,1793.15" fill="#f4f4f4" stroke="#f4f4f4" stroke-width="0.5" stroke-linecap="round" stroke-linejoin="round"/>
  <polygon points="1586.93,1793.15 1587.34,1761.01 1577.20,1764.82 1576.84,1796.99" fill="#f4f4f4" stroke="#f4f4f4" stroke-width="0.5" stroke-linecap="round" stroke-linejoin="round"/>
  <polygon points="1621.46,1796.99 1622.03,1764.82 1611.61,1761.01 1611.09,1793.15" fill="#f4f4f4" stroke="#f4f4f4" stroke-width="0.5" stroke-linecap="round" stroke-linejoin="round"/>
  <polygon points="1388.91,1793.15 1388.39,1761.01 1377.97,1764.82 1378.54,1796.99" fill="#f4f4f4" stroke="#f4f4f4" stroke-width="0.5" stroke-linecap="round" stroke-linejoin="round"/>
  <polygon points="1615.40,1755.62 1599.20,1753.83 1583.14,1755.62 1599.42,1759.69 1611.61,1761.01 1622.03,1764.82" fill="#f4f4f4" stroke="#f4f4f4" stroke-width="0.5" stroke-linecap="round" stroke-linejoin="round"/>
  <polygon points="1628.58,1802.74 1629.17,1770.53 1622.03,1764.82 1621.46,1796.99" fill="#f4f4f4" stroke="#f4f4f4" stroke-width="0.5" stroke-linecap="round" stroke-linejoin="round"/>
  <polygon points="1378.54,1796.99 1377.97,1764.82 1370.83,1770.53 1371.42,1802.74" fill="#f4f4f4" stroke="#f4f4f4" stroke-width="0.5" stroke-linecap="round" stroke-linejoin="round"/>
  <polygon points="1429.85,1802.74 1429.52,1770.53 1422.80,1764.82 1423.16,1796.99" fill="#f4f4f4" stroke="#f4f4f4" stroke-width="0.5" stroke-linecap="round" stroke-linejoin="round"/>
  <polygon points="1576.84,1796.99 1577.20,1764.82 1570.48,1770.53 1570.15,1802.74" fill="#f4f4f4" stroke="#f4f4f4" stroke-width="0.5" stroke-linecap="round" stroke-linejoin="round"/>
  <polygon points="1500.00,1701.62 1300.77,1809.58 1500.00,1926.87 1699.23,1809.58" fill="#f4f4f4" stroke="#f4f4f4" stroke-width="0.5" stroke-linecap="round" stroke-linejoin="round"/>
  <polygon points="1570.15,1802.74 1570.48,1770.53 1568.25,1777.32 1567.94,1809.58" fill="#f4f4f4" stroke="#f4f4f4" stroke-width="0.5" stroke-linecap="round" stroke-linejoin="round"/>
  <polygon points="1631.29,1809.58 1631.90,1777.32 1629.17,1770.53 1628.58,1802.74" fill="#f4f4f4" stroke="#f4f4f4" stroke-width="0.5" stroke-linecap="round" stroke-linejoin="round"/>
  <polygon points="1432.06,1809.58 1431.75,1777.32 1429.52,1770.53 1429.85,1802.74" fill="#f4f4f4" stroke="#f4f4f4" stroke-width="0.5" stroke-linecap="round" stroke-linejoin="round"/>
  <polygon points="1371.42,1802.74 1370.83,1770.53 1368.10,1777.32 1368.71,1809.58" fill="#f4f4f4" stroke="#f4f4f4" stroke-width="0.5" stroke-linecap="round" stroke-linejoin="round"/>
  <polygon points="1384.60,1755.62 1370.70,1760.68 1361.16,1768.28 1357.44,1777.32 1360.22,1786.42 1369.08,1794.17 1382.70,1799.37 1387.02,1793.83 1376.83,1789.93 1370.17,1784.14 1368.10,1777.32 1370.83,1770.53 1377.97,1764.82 1388.39,1761.01 1400.58,1759.69 1412.66,1761.01 1422.80,1764.82 1416.86,1755.62 1400.80,1753.83" fill="#f4f4f4" stroke="#f4f4f4" stroke-width="0.5" stroke-linecap="round" stroke-linejoin="round"/>
  <polygon points="1442.40,1777.32 1438.95,1786.42 1439.23,1818.74 1442.67,1809.58" fill="#f4f4f4" stroke="#f4f4f4" stroke-width="0.5" stroke-linecap="round" stroke-linejoin="round"/>
  <polygon points="1642.56,1777.32 1639.78,1786.42 1639.13,1818.74 1641.90,1809.58" fill="#f4f4f4" stroke="#f4f4f4" stroke-width="0.5" stroke-linecap="round" stroke-linejoin="round"/>
  <polygon points="1360.22,1786.42 1357.44,1777.32 1358.10,1809.58 1360.87,1818.74" fill="#f4f4f4" stroke="#f4f4f4" stroke-width="0.5" stroke-linecap="round" stroke-linejoin="round"/>
  <polygon points="1561.05,1786.42 1557.60,1777.32 1557.33,1809.58 1560.77,1818.74" fill="#f4f4f4" stroke="#f4f4f4" stroke-width="0.5" stroke-linecap="round" stroke-linejoin="round"/>
  <polygon points="1638.84,1768.28 1629.30,1760.68 1615.40,1755.62 1622.03,1764.82 1629.17,1770.53 1631.90,1777.32 1629.83,1784.14 1623.17,1789.93 1612.98,1793.83 1600.75,1795.18 1588.41,1793.83 1577.93,1789.93 1570.84,1784.14 1568.25,1777.32 1570.48,1770.53 1577.20,1764.82 1587.34,1761.01 1599.42,1759.69 1583.14,1755.62 1569.62,1760.68 1560.64,1768.28 1557.60,1777.32 1561.05,1786.42 1570.50,1794.17 1584.50,1799.37 1600.97,1801.22 1617.30,1799.37 1630.92,1794.17 1639.78,1786.42 1642.56,1777.32" fill="#f4f4f4" stroke="#f4f4f4" stroke-width="0.5" stroke-linecap="round" stroke-linejoin="round"/>
  <polygon points="1439.36,1768.28 1430.38,1760.68 1416.86,1755.62 1422.80,1764.82 1429.52,1770.53 1431.75,1777.32 1429.16,1784.14 1422.07,1789.93 1411.59,1793.83 1399.25,1795.18 1387.02,1793.83 1382.70,1799.37 1399.03,1801.22 1415.49,1799.37 1429.50,1794.17 1438.95,1786.42 1442.40,1777.32" fill="#f4f4f4" stroke="#f4f4f4" stroke-width="0.5" stroke-linecap="round" stroke-linejoin="round"/>
  <polygon points="1639.78,1786.42 1630.92,1794.17 1630.31,1826.55 1639.13,1818.74" fill="#f4f4f4" stroke="#f4f4f4" stroke-width="0.5" stroke-linecap="round" stroke-linejoin="round"/>
  <polygon points="1570.50,1794.17 1561.05,1786.42 1560.77,1818.74 1570.17,1826.55" fill="#f4f4f4" stroke="#f4f4f4" stroke-width="0.5" stroke-linecap="round" stroke-linejoin="round"/>
  <polygon points="1438.95,1786.42 1429.50,1794.17 1429.83,1826.55 1439.23,1818.74" fill="#f4f4f4" stroke="#f4f4f4" stroke-width="0.5" stroke-linecap="round" stroke-linejoin="round"/>
  <polygon points="1369.08,1794.17 1360.22,1786.42 1360.87,1818.74 1369.69,1826.55" fill="#f4f4f4" stroke="#f4f4f4" stroke-width="0.5" stroke-linecap="round" stroke-linejoin="round"/>
  <polygon points="1630.92,1794.17 1617.30,1799.37 1616.75,1831.80 1630.31,1826.55" fill="#f4f4f4" stroke="#f4f4f4" stroke-width="0.5" stroke-linecap="round" stroke-linejoin="round"/>
  <polygon points="1584.50,1799.37 1570.50,1794.17 1570.17,1826.55 1584.11,1831.80" fill="#f4f4f4" stroke="#f4f4f4" stroke-width="0.5" stroke-linecap="round" stroke-linejoin="round"/>
  <polygon points="1382.70,1799.37 1369.08,1794.17 1369.69,1826.55 1383.25,1831.80" fill="#f4f4f4" stroke="#f4f4f4" stroke-width="0.5" stroke-linecap="round" stroke-linejoin="round"/>
  <polygon points="1429.50,1794.17 1415.49,1799.37 1415.89,1831.80 1429.83,1826.55" fill="#f4f4f4" stroke="#f4f4f4" stroke-width="0.5" stroke-linecap="round" stroke-linejoin="round"/>
  <polygon points="1699.23,1809.58 1500.00,1926.87 1500.00,2067.58 1695.27,1946.91" fill="#f4f4f4" stroke="#f4f4f4" stroke-width="0.5" stroke-linecap="round" stroke-linejoin="round"/>
  <polygon points="1500.00,2067.58 1500.00,1926.87 1300.77,1809.58 1304.73,1946.91" fill="#f4f4f4" stroke="#f4f4f4" stroke-width="0.5" stroke-linecap="round" stroke-linejoin="round"/>
  <polygon points="1600.97,1801.22 1584.50,1799.37 1584.11,1831.80 1600.50,1833.65" fill="#f4f4f4" stroke="#f4f4f4" stroke-width="0.5" stroke-linecap="round" stroke-linejoin="round"/>
  <polygon points="1399.03,1801.22 1382.70,1799.37 1383.25,1831.80 1399.50,1833.65" fill="#f4f4f4" stroke="#f4f4f4" stroke-width="0.5" stroke-linecap="round" stroke-linejoin="round"/>
  <polygon points="1415.49,1799.37 1399.03,1801.22 1399.50,1833.65 1415.89,1831.80" fill="#f4f4f4" stroke="#f4f4f4" stroke-width="0.5" stroke-linecap="round" stroke-linejoin="round"/>
  <polygon points="1617.30,1799.37 1600.97,1801.22 1600.50,1833.65 1616.75,1831.80" fill="#f4f4f4" stroke="#f4f4f4" stroke-width="0.5" stroke-linecap="round" stroke-linejoin="round"/>
  <polygon points="1500.00,1848.47 1500.00,1815.93 1487.61,1817.31 1487.67,1849.86" fill="#f4f4f4" stroke="#f4f4f4" stroke-width="0.5" stroke-linecap="round" stroke-linejoin="round"/>
  <polygon points="1512.33,1849.86 1512.39,1817.31 1500.00,1815.93 1500.00,1848.47" fill="#f4f4f4" stroke="#f4f4f4" stroke-width="0.5" stroke-linecap="round" stroke-linejoin="round"/>
  <polygon points="1487.67,1849.86 1487.61,1817.31 1477.11,1821.28 1477.22,1853.86" fill="#f4f4f4" stroke="#f4f4f4" stroke-width="0.5" stroke-linecap="round" stroke-linejoin="round"/>
  <polygon points="1522.78,1853.86 1522.89,1821.28 1512.39,1817.31 1512.33,1849.86" fill="#f4f4f4" stroke="#f4f4f4" stroke-width="0.5" stroke-linecap="round" stroke-linejoin="round"/>
  <polygon points="1477.22,1853.86 1477.11,1821.28 1470.03,1827.23 1470.17,1859.85" fill="#f4f4f4" stroke="#f4f4f4" stroke-width="0.5" stroke-linecap="round" stroke-linejoin="round"/>
  <polygon points="1529.83,1859.85 1529.97,1827.23 1522.89,1821.28 1522.78,1853.86" fill="#f4f4f4" stroke="#f4f4f4" stroke-width="0.5" stroke-linecap="round" stroke-linejoin="round"/>
  <polygon points="1470.17,1859.85 1470.03,1827.23 1467.50,1834.31 1467.65,1866.98" fill="#f4f4f4" stroke="#f4f4f4" stroke-width="0.5" stroke-linecap="round" stroke-linejoin="round"/>
  <polygon points="1532.35,1866.98 1532.50,1834.31 1529.97,1827.23 1529.83,1859.85" fill="#f4f4f4" stroke="#f4f4f4" stroke-width="0.5" stroke-linecap="round" stroke-linejoin="round"/>
  <polygon points="1459.80,1843.80 1469.14,1851.88 1483.25,1857.32 1476.89,1847.47 1469.87,1841.43 1467.50,1834.31 1470.03,1827.23 1477.11,1821.28 1487.61,1817.31 1500.00,1815.93 1512.39,1817.31 1522.89,1821.28 1529.97,1827.23 1532.50,1834.31 1530.13,1841.43 1523.11,1847.47 1530.86,1851.88 1540.20,1843.80 1543.39,1834.31 1539.93,1824.89 1530.47,1816.96 1516.47,1811.68 1500.00,1809.82 1483.53,1811.68 1469.53,1816.96 1460.07,1824.89 1456.61,1834.31" fill="#f4f4f4" stroke="#f4f4f4" stroke-width="0.5" stroke-linecap="round" stroke-linejoin="round"/>
  <polygon points="1543.39,1834.31 1540.20,1843.80 1540.01,1876.54 1543.18,1866.98" fill="#f4f4f4" stroke="#f4f4f4" stroke-width="0.5" stroke-linecap="round" stroke-linejoin="round"/>
  <polygon points="1459.80,1843.80 1456.61,1834.31 1456.82,1866.98 1459.99,1876.54" fill="#f4f4f4" stroke="#f4f4f4" stroke-width="0.5" stroke-linecap="round" stroke-linejoin="round"/>
  <polygon points="1540.20,1843.80 1530.86,1851.88 1530.71,1884.68 1540.01,1876.54" fill="#f4f4f4" stroke="#f4f4f4" stroke-width="0.5" stroke-linecap="round" stroke-linejoin="round"/>
  <polygon points="1469.14,1851.88 1459.80,1843.80 1459.99,1876.54 1469.29,1884.68" fill="#f4f4f4" stroke="#f4f4f4" stroke-width="0.5" stroke-linecap="round" stroke-linejoin="round"/>
  <polygon points="1483.25,1857.32 1469.14,1851.88 1469.29,1884.68 1483.33,1890.15" fill="#f4f4f4" stroke="#f4f4f4" stroke-width="0.5" stroke-linecap="round" stroke-linejoin="round"/>
  <polygon points="1530.86,1851.88 1516.75,1857.32 1516.67,1890.15 1530.71,1884.68" fill="#f4f4f4" stroke="#f4f4f4" stroke-width="0.5" stroke-linecap="round" stroke-linejoin="round"/>
  <polygon points="1516.75,1857.32 1500.00,1859.24 1500.00,1892.09 1516.67,1890.15" fill="#f4f4f4" stroke="#f4f4f4" stroke-width="0.5" stroke-linecap="round" stroke-linejoin="round"/>
  <polygon points="1500.00,1859.24 1483.25,1857.32 1483.33,1890.15 1500.00,1892.09" fill="#f4f4f4" stroke="#f4f4f4" stroke-width="0.5" stroke-linecap="round" stroke-linejoin="round"/>
  <polygon points="1483.25,1857.32 1500.00,1859.24 1516.75,1857.32 1530.86,1851.88 1523.11,1847.47 1512.55,1851.53 1500.00,1852.95 1487.45,1851.53 1476.89,1847.47" fill="#f4f4f4" stroke="#f4f4f4" stroke-width="0.5" stroke-linecap="round" stroke-linejoin="round"/>
  <polygon points="1500.00,1108.81 1283.18,1199.60 1500.00,1298.95 1716.82,1199.60" fill="#f4f4f4" stroke="#f4f4f4" stroke-width="0.5" stroke-linecap="round" stroke-linejoin="round"/>
  <polygon points="1500.00,1466.57 1500.00,1298.95 1283.18,1199.60 1287.86,1361.97" fill="#f4f4f4" stroke="#f4f4f4" stroke-width="0.5" stroke-linecap="round" stroke-linejoin="round"/>
  <polygon points="1716.82,1199.60 1500.00,1298.95 1500.00,1466.57 1712.14,1361.97" fill="#f4f4f4" stroke="#f4f4f4" stroke-width="0.5" stroke-linecap="round" stroke-linejoin="round"/>
  <polygon points="1500.00,944.62 1278.28,1029.89 1500.00,1123.39 1721.72,1029.89" fill="#f4f4f4" stroke="#f4f4f4" stroke-width="0.5" stroke-linecap="round" stroke-linejoin="round"/>
  <polygon points="1721.72,1029.89 1500.00,1123.39 1500.00,1298.95 1716.82,1199.60" fill="#f4f4f4" stroke="#f4f4f4" stroke-width="0.5" stroke-linecap="round" stroke-linejoin="round"/>
  <polygon points="1500.00,1298.95 1500.00,1123.39 1278.28,1029.89 1283.18,1199.60" fill="#f4f4f4" stroke="#f4f4f4" stroke-width="0.5" stroke-linecap="round" stroke-linejoin="round"/>
  <polygon points="1500.00,773.19 1273.16,852.34 1500.00,939.32 1726.84,852.34" fill="#f4f4f4" stroke="#f4f4f4" stroke-width="0.5" stroke-linecap="round" stroke-linejoin="round"/>
  <polygon points="1726.84,852.34 1500.00,939.32 1500.00,1123.39 1721.72,1029.89" fill="#f4f4f4" stroke="#f4f4f4" stroke-width="0.5" stroke-linecap="round" stroke-linejoin="round"/>
  <polygon points="1500.00,1123.39 1500.00,939.32 1273.16,852.34 1278.28,1029.89" fill="#f4f4f4" stroke="#f4f4f4" stroke-width="0.5" stroke-linecap="round" stroke-linejoin="round"/>
  <polygon points="1514.06,428.77 1514.13,383.96 1500.00,383.21 1500.00,428.00" fill="#f4f4f4" stroke="#f4f4f4" stroke-width="0.5" stroke-linecap="round" stroke-linejoin="round"/>
  <polygon points="1500.00,428.00 1500.00,383.21 1485.87,383.96 1485.94,428.77" fill="#f4f4f4" stroke="#f4f4f4" stroke-width="0.5" stroke-linecap="round" stroke-linejoin="round"/>
  <polygon points="1525.97,430.97 1526.11,386.10 1514.13,383.96 1514.06,428.77" fill="#f4f4f4" stroke="#f4f4f4" stroke-width="0.5" stroke-linecap="round" stroke-linejoin="round"/>
  <polygon points="1485.94,428.77 1485.87,383.96 1473.89,386.10 1474.03,430.97" fill="#f4f4f4" stroke="#f4f4f4" stroke-width="0.5" stroke-linecap="round" stroke-linejoin="round"/>
  <polygon points="1534.02,434.28 1534.20,389.32 1526.11,386.10 1525.97,430.97" fill="#f4f4f4" stroke="#f4f4f4" stroke-width="0.5" stroke-linecap="round" stroke-linejoin="round"/>
  <polygon points="1474.03,430.97 1473.89,386.10 1465.80,389.32 1465.98,434.28" fill="#f4f4f4" stroke="#f4f4f4" stroke-width="0.5" stroke-linecap="round" stroke-linejoin="round"/>
  <polygon points="1500.00,594.02 1267.80,666.39 1500.00,746.11 1732.20,666.39" fill="#f4f4f4" stroke="#f4f4f4" stroke-width="0.5" stroke-linecap="round" stroke-linejoin="round"/>
  <polygon points="1536.90,438.23 1537.10,393.15 1534.20,389.32 1534.02,434.28" fill="#f4f4f4" stroke="#f4f4f4" stroke-width="0.5" stroke-linecap="round" stroke-linejoin="round"/>
  <polygon points="1465.98,434.28 1465.80,389.32 1462.90,393.15 1463.10,438.23" fill="#f4f4f4" stroke="#f4f4f4" stroke-width="0.5" stroke-linecap="round" stroke-linejoin="round"/>
  <polygon points="1518.78,380.92 1500.00,379.92 1481.22,380.92 1465.25,383.77 1454.44,388.05 1473.89,386.10 1485.87,383.96 1500.00,383.21 1514.13,383.96 1526.11,386.10 1534.20,389.32 1537.10,393.15 1534.40,397.00 1526.40,400.27 1535.26,402.67 1545.92,398.29 1549.53,393.15 1545.56,388.05 1534.75,383.77" fill="#f4f4f4" stroke="#f4f4f4" stroke-width="0.5" stroke-linecap="round" stroke-linejoin="round"/>
  <polygon points="1454.08,398.29 1450.47,393.15 1450.74,438.23 1454.33,443.52" fill="#f4f4f4" stroke="#f4f4f4" stroke-width="0.5" stroke-linecap="round" stroke-linejoin="round"/>
  <polygon points="1549.53,393.15 1545.92,398.29 1545.67,443.52 1549.26,438.23" fill="#f4f4f4" stroke="#f4f4f4" stroke-width="0.5" stroke-linecap="round" stroke-linejoin="round"/>
  <polygon points="1545.92,398.29 1535.26,402.67 1535.07,448.02 1545.67,443.52" fill="#f4f4f4" stroke="#f4f4f4" stroke-width="0.5" stroke-linecap="round" stroke-linejoin="round"/>
  <polygon points="1464.74,402.67 1454.08,398.29 1454.33,443.52 1464.93,448.02" fill="#f4f4f4" stroke="#f4f4f4" stroke-width="0.5" stroke-linecap="round" stroke-linejoin="round"/>
  <polygon points="1519.14,405.61 1535.26,402.67 1526.40,400.27 1514.34,402.48 1500.00,403.24 1485.66,402.48 1473.60,400.27 1465.60,397.00 1462.90,393.15 1465.80,389.32 1473.89,386.10 1454.44,388.05 1450.47,393.15 1454.08,398.29 1464.74,402.67 1480.86,405.61 1500.00,406.66" fill="#f4f4f4" stroke="#f4f4f4" stroke-width="0.5" stroke-linecap="round" stroke-linejoin="round"/>
  <polygon points="1535.26,402.67 1519.14,405.61 1519.04,451.05 1535.07,448.02" fill="#f4f4f4" stroke="#f4f4f4" stroke-width="0.5" stroke-linecap="round" stroke-linejoin="round"/>
  <polygon points="1480.86,405.61 1464.74,402.67 1464.93,448.02 1480.96,451.05" fill="#f4f4f4" stroke="#f4f4f4" stroke-width="0.5" stroke-linecap="round" stroke-linejoin="round"/>
  <polygon points="1500.00,406.66 1480.86,405.61 1480.96,451.05 1500.00,452.13" fill="#f4f4f4" stroke="#f4f4f4" stroke-width="0.5" stroke-linecap="round" stroke-linejoin="round"/>
  <polygon points="1519.14,405.61 1500.00,406.66 1500.00,452.13 1519.04,451.05" fill="#f4f4f4" stroke="#f4f4f4" stroke-width="0.5" stroke-linecap="round" stroke-linejoin="round"/>
  <polygon points="1500.00,939.32 1500.00,746.11 1267.80,666.39 1273.16,852.34" fill="#f4f4f4" stroke="#f4f4f4" stroke-width="0.5" stroke-linecap="round" stroke-linejoin="round"/>
  <polygon points="1732.20,666.39 1500.00,746.11 1500.00,939.32 1726.84,852.34" fill="#f4f4f4" stroke="#f4f4f4" stroke-width="0.5" stroke-linecap="round" stroke-linejoin="round"/>
  <polygon points="1632.46,461.51 1633.19,415.77 1618.64,414.99 1617.98,460.70" fill="#f4f4f4" stroke="#f4f4f4" stroke-width="0.5" stroke-linecap="round" stroke-linejoin="round"/>
  <polygon points="1396.35,461.51 1395.77,415.77 1381.36,414.99 1382.02,460.70" fill="#f4f4f4" stroke="#f4f4f4" stroke-width="0.5" stroke-linecap="round" stroke-linejoin="round"/>
  <polygon points="1617.98,460.70 1618.64,414.99 1604.23,415.77 1603.65,461.51" fill="#f4f4f4" stroke="#f4f4f4" stroke-width="0.5" stroke-linecap="round" stroke-linejoin="round"/>
  <polygon points="1382.02,460.70 1381.36,414.99 1366.81,415.77 1367.54,461.51" fill="#f4f4f4" stroke="#f4f4f4" stroke-width="0.5" stroke-linecap="round" stroke-linejoin="round"/>
  <polygon points="1367.54,461.51 1366.81,415.77 1354.33,418.03 1355.14,463.83" fill="#f4f4f4" stroke="#f4f4f4" stroke-width="0.5" stroke-linecap="round" stroke-linejoin="round"/>
  <polygon points="1644.86,463.83 1645.67,418.03 1633.19,415.77 1632.46,461.51" fill="#f4f4f4" stroke="#f4f4f4" stroke-width="0.5" stroke-linecap="round" stroke-linejoin="round"/>
  <polygon points="1603.65,461.51 1604.23,415.77 1592.16,418.03 1591.65,463.83" fill="#f4f4f4" stroke="#f4f4f4" stroke-width="0.5" stroke-linecap="round" stroke-linejoin="round"/>
  <polygon points="1408.35,463.83 1407.84,418.03 1395.77,415.77 1396.35,461.51" fill="#f4f4f4" stroke="#f4f4f4" stroke-width="0.5" stroke-linecap="round" stroke-linejoin="round"/>
  <polygon points="1355.14,463.83 1354.33,418.03 1345.74,421.40 1346.59,467.30" fill="#f4f4f4" stroke="#f4f4f4" stroke-width="0.5" stroke-linecap="round" stroke-linejoin="round"/>
  <polygon points="1416.30,467.30 1415.84,421.40 1407.84,418.03 1408.35,463.83" fill="#f4f4f4" stroke="#f4f4f4" stroke-width="0.5" stroke-linecap="round" stroke-linejoin="round"/>
  <polygon points="1591.65,463.83 1592.16,418.03 1584.17,421.40 1583.70,467.30" fill="#f4f4f4" stroke="#f4f4f4" stroke-width="0.5" stroke-linecap="round" stroke-linejoin="round"/>
  <polygon points="1653.41,467.30 1654.26,421.40 1645.67,418.03 1644.86,463.83" fill="#f4f4f4" stroke="#f4f4f4" stroke-width="0.5" stroke-linecap="round" stroke-linejoin="round"/>
  <polygon points="1500.00,406.58 1262.18,471.44 1500.00,543.05 1737.82,471.44" fill="#f4f4f4" stroke="#f4f4f4" stroke-width="0.5" stroke-linecap="round" stroke-linejoin="round"/>
  <polygon points="1346.59,467.30 1345.74,421.40 1342.40,425.43 1343.27,471.44" fill="#f4f4f4" stroke="#f4f4f4" stroke-width="0.5" stroke-linecap="round" stroke-linejoin="round"/>
  <polygon points="1656.73,471.44 1657.60,425.43 1654.26,421.40 1653.41,467.30" fill="#f4f4f4" stroke="#f4f4f4" stroke-width="0.5" stroke-linecap="round" stroke-linejoin="round"/>
  <polygon points="1418.90,471.44 1418.45,425.43 1415.84,421.40 1416.30,467.30" fill="#f4f4f4" stroke="#f4f4f4" stroke-width="0.5" stroke-linecap="round" stroke-linejoin="round"/>
  <polygon points="1583.70,467.30 1584.17,421.40 1581.55,425.43 1581.10,471.44" fill="#f4f4f4" stroke="#f4f4f4" stroke-width="0.5" stroke-linecap="round" stroke-linejoin="round"/>
  <polygon points="1654.30,415.58 1637.67,412.59 1618.33,411.53 1599.18,412.59 1583.08,415.58 1572.41,420.07 1568.82,425.43 1573.00,430.83 1584.33,435.43 1601.13,438.52 1620.85,439.62 1640.37,438.52 1620.53,436.03 1605.76,435.23 1593.19,432.91 1584.68,429.48 1581.55,425.43 1584.17,421.40 1592.16,418.03 1604.23,415.77 1618.64,414.99 1633.19,415.77 1645.67,418.03 1654.26,421.40" fill="#f4f4f4" stroke="#f4f4f4" stroke-width="0.5" stroke-linecap="round" stroke-linejoin="round"/>
  <polygon points="1573.00,430.83 1568.82,425.43 1568.43,471.44 1572.59,476.99" fill="#f4f4f4" stroke="#f4f4f4" stroke-width="0.5" stroke-linecap="round" stroke-linejoin="round"/>
  <polygon points="1670.34,425.43 1667.12,430.83 1666.19,476.99 1669.39,471.44" fill="#f4f4f4" stroke="#f4f4f4" stroke-width="0.5" stroke-linecap="round" stroke-linejoin="round"/>
  <polygon points="1431.18,425.43 1427.00,430.83 1427.41,476.99 1431.57,471.44" fill="#f4f4f4" stroke="#f4f4f4" stroke-width="0.5" stroke-linecap="round" stroke-linejoin="round"/>
  <polygon points="1332.88,430.83 1329.66,425.43 1330.61,471.44 1333.81,476.99" fill="#f4f4f4" stroke="#f4f4f4" stroke-width="0.5" stroke-linecap="round" stroke-linejoin="round"/>
  <polygon points="1407.84,418.03 1415.84,421.40 1418.45,425.43 1415.32,429.48 1406.81,432.91 1427.00,430.83 1431.18,425.43 1427.59,420.07 1416.92,415.58 1400.82,412.59 1381.67,411.53 1362.33,412.59 1345.70,415.58 1334.22,420.07 1329.66,425.43 1332.88,430.83 1343.38,435.43 1359.63,438.52 1379.15,439.62 1398.87,438.52 1379.47,436.03 1364.85,435.23 1352.70,432.91 1344.80,429.48 1342.40,425.43 1345.74,421.40 1354.33,418.03 1366.81,415.77 1381.36,414.99 1395.77,415.77" fill="#f4f4f4" stroke="#f4f4f4" stroke-width="0.5" stroke-linecap="round" stroke-linejoin="round"/>
  <polygon points="1640.37,438.52 1656.62,435.43 1667.12,430.83 1670.34,425.43 1665.78,420.07 1654.30,415.58 1654.26,421.40 1657.60,425.43 1655.20,429.48 1647.30,432.91 1635.15,435.23 1620.53,436.03" fill="#f4f4f4" stroke="#f4f4f4" stroke-width="0.5" stroke-linecap="round" stroke-linejoin="round"/>
  <polygon points="1343.38,435.43 1332.88,430.83 1333.81,476.99 1344.26,481.73" fill="#f4f4f4" stroke="#f4f4f4" stroke-width="0.5" stroke-linecap="round" stroke-linejoin="round"/>
  <polygon points="1584.33,435.43 1573.00,430.83 1572.59,476.99 1583.86,481.73" fill="#f4f4f4" stroke="#f4f4f4" stroke-width="0.5" stroke-linecap="round" stroke-linejoin="round"/>
  <polygon points="1427.00,430.83 1415.67,435.43 1416.14,481.73 1427.41,476.99" fill="#f4f4f4" stroke="#f4f4f4" stroke-width="0.5" stroke-linecap="round" stroke-linejoin="round"/>
  <polygon points="1667.12,430.83 1656.62,435.43 1655.74,481.73 1666.19,476.99" fill="#f4f4f4" stroke="#f4f4f4" stroke-width="0.5" stroke-linecap="round" stroke-linejoin="round"/>
  <polygon points="1359.63,438.52 1343.38,435.43 1344.26,481.73 1360.41,484.91" fill="#f4f4f4" stroke="#f4f4f4" stroke-width="0.5" stroke-linecap="round" stroke-linejoin="round"/>
  <polygon points="1656.62,435.43 1640.37,438.52 1639.59,484.91 1655.74,481.73" fill="#f4f4f4" stroke="#f4f4f4" stroke-width="0.5" stroke-linecap="round" stroke-linejoin="round"/>
  <polygon points="1415.67,435.43 1398.87,438.52 1399.44,484.91 1416.14,481.73" fill="#f4f4f4" stroke="#f4f4f4" stroke-width="0.5" stroke-linecap="round" stroke-linejoin="round"/>
  <polygon points="1601.13,438.52 1584.33,435.43 1583.86,481.73 1600.56,484.91" fill="#f4f4f4" stroke="#f4f4f4" stroke-width="0.5" stroke-linecap="round" stroke-linejoin="round"/>
  <polygon points="1398.87,438.52 1415.67,435.43 1427.00,430.83 1406.81,432.91 1394.24,435.23 1379.47,436.03" fill="#f4f4f4" stroke="#f4f4f4" stroke-width="0.5" stroke-linecap="round" stroke-linejoin="round"/>
  <polygon points="1500.00,746.11 1500.00,543.05 1262.18,471.44 1267.80,666.39" fill="#f4f4f4" stroke="#f4f4f4" stroke-width="0.5" stroke-linecap="round" stroke-linejoin="round"/>
  <polygon points="1737.82,471.44 1500.00,543.05 1500.00,746.11 1732.20,666.39" fill="#f4f4f4" stroke="#f4f4f4" stroke-width="0.5" stroke-linecap="round" stroke-linejoin="round"/>
  <polygon points="1379.15,439.62 1359.63,438.52 1360.41,484.91 1379.83,486.04" fill="#f4f4f4" stroke="#f4f4f4" stroke-width="0.5" stroke-linecap="round" stroke-linejoin="round"/>
  <polygon points="1640.37,438.52 1620.85,439.62 1620.17,486.04 1639.59,484.91" fill="#f4f4f4" stroke="#f4f4f4" stroke-width="0.5" stroke-linecap="round" stroke-linejoin="round"/>
  <polygon points="1620.85,439.62 1601.13,438.52 1600.56,484.91 1620.17,486.04" fill="#f4f4f4" stroke="#f4f4f4" stroke-width="0.5" stroke-linecap="round" stroke-linejoin="round"/>
  <polygon points="1398.87,438.52 1379.15,439.62 1379.83,486.04 1399.44,484.91" fill="#f4f4f4" stroke="#f4f4f4" stroke-width="0.5" stroke-linecap="round" stroke-linejoin="round"/>
  <polygon points="1514.76,495.90 1514.85,449.20 1500.00,448.38 1500.00,495.05" fill="#f4f4f4" stroke="#f4f4f4" stroke-width="0.5" stroke-linecap="round" stroke-linejoin="round"/>
  <polygon points="1500.00,495.05 1500.00,448.38 1485.15,449.20 1485.24,495.90" fill="#f4f4f4" stroke="#f4f4f4" stroke-width="0.5" stroke-linecap="round" stroke-linejoin="round"/>
  <polygon points="1485.24,495.90 1485.15,449.20 1472.57,451.57 1472.72,498.33" fill="#f4f4f4" stroke="#f4f4f4" stroke-width="0.5" stroke-linecap="round" stroke-linejoin="round"/>
  <polygon points="1527.28,498.33 1527.43,451.57 1514.85,449.20 1514.76,495.90" fill="#f4f4f4" stroke="#f4f4f4" stroke-width="0.5" stroke-linecap="round" stroke-linejoin="round"/>
  <polygon points="1535.74,501.99 1535.94,455.12 1527.43,451.57 1527.28,498.33" fill="#f4f4f4" stroke="#f4f4f4" stroke-width="0.5" stroke-linecap="round" stroke-linejoin="round"/>
  <polygon points="1472.72,498.33 1472.57,451.57 1464.06,455.12 1464.26,501.99" fill="#f4f4f4" stroke="#f4f4f4" stroke-width="0.5" stroke-linecap="round" stroke-linejoin="round"/>
  <polygon points="1464.26,501.99 1464.06,455.12 1461.01,459.35 1461.23,506.34" fill="#f4f4f4" stroke="#f4f4f4" stroke-width="0.5" stroke-linecap="round" stroke-linejoin="round"/>
  <polygon points="1538.77,506.34 1538.99,459.35 1535.94,455.12 1535.74,501.99" fill="#f4f4f4" stroke="#f4f4f4" stroke-width="0.5" stroke-linecap="round" stroke-linejoin="round"/>
  <polygon points="1451.73,465.03 1447.95,459.35 1448.24,506.34 1452.01,512.18" fill="#f4f4f4" stroke="#f4f4f4" stroke-width="0.5" stroke-linecap="round" stroke-linejoin="round"/>
  <polygon points="1552.05,459.35 1548.27,465.03 1547.99,512.18 1551.76,506.34" fill="#f4f4f4" stroke="#f4f4f4" stroke-width="0.5" stroke-linecap="round" stroke-linejoin="round"/>
  <polygon points="1452.13,453.72 1447.95,459.35 1451.73,465.03 1462.93,469.87 1463.84,463.61 1461.01,459.35 1464.06,455.12 1472.57,451.57 1485.15,449.20 1500.00,448.38 1514.85,449.20 1527.43,451.57 1535.94,455.12 1538.99,459.35 1536.16,463.61 1527.75,467.22 1515.07,469.66 1500.00,470.51 1484.93,469.66 1472.25,467.22 1479.87,473.13 1500.00,474.28 1520.13,473.13 1537.07,469.87 1548.27,465.03 1552.05,459.35 1547.87,453.72 1536.51,448.99 1519.73,445.85 1500.00,444.74 1480.27,445.85 1463.49,448.99" fill="#f4f4f4" stroke="#f4f4f4" stroke-width="0.5" stroke-linecap="round" stroke-linejoin="round"/>
  <polygon points="1548.27,465.03 1537.07,469.87 1536.86,517.16 1547.99,512.18" fill="#f4f4f4" stroke="#f4f4f4" stroke-width="0.5" stroke-linecap="round" stroke-linejoin="round"/>
  <polygon points="1462.93,469.87 1451.73,465.03 1452.01,512.18 1463.14,517.16" fill="#f4f4f4" stroke="#f4f4f4" stroke-width="0.5" stroke-linecap="round" stroke-linejoin="round"/>
  <polygon points="1479.87,473.13 1462.93,469.87 1463.14,517.16 1479.99,520.51" fill="#f4f4f4" stroke="#f4f4f4" stroke-width="0.5" stroke-linecap="round" stroke-linejoin="round"/>
  <polygon points="1537.07,469.87 1520.13,473.13 1520.01,520.51 1536.86,517.16" fill="#f4f4f4" stroke="#f4f4f4" stroke-width="0.5" stroke-linecap="round" stroke-linejoin="round"/>
  <polygon points="1462.93,469.87 1479.87,473.13 1472.25,467.22 1463.84,463.61" fill="#f4f4f4" stroke="#f4f4f4" stroke-width="0.5" stroke-linecap="round" stroke-linejoin="round"/>
  <polygon points="1500.00,474.28 1479.87,473.13 1479.99,520.51 1500.00,521.69" fill="#f4f4f4" stroke="#f4f4f4" stroke-width="0.5" stroke-linecap="round" stroke-linejoin="round"/>
  <polygon points="1520.13,473.13 1500.00,474.28 1500.00,521.69 1520.01,520.51" fill="#f4f4f4" stroke="#f4f4f4" stroke-width="0.5" stroke-linecap="round" stroke-linejoin="round"/>
  <path d="M 1315.72 2328.00 L 1500.00 2456.78 L 1684.27 2328.00 L 1687.80 2205.83 L 1500.00 2332.21 L 1500.00 2456.78 L 1684.27 2328.00 L 1687.80 2205.83 L 1500.00 2332.21 L 1312.20 2205.83 L 1315.72 2328.00 L 1500.00 2456.78 L 1500.00 2332.21 L 1312.20 2205.83 L 1315.72 2328.00" stroke="black" stroke-width="4" fill="none" stroke-linecap="round" stroke-linejoin="round"/>
  <path d="M 1312.20 2205.83 L 1500.00 2332.21 L 1687.80 2205.83 L 1691.46 2078.90 L 1500.00 2202.58 L 1500.00 2332.21 L 1687.80 2205.83 L 1691.46 2078.90 L 1500.00 2202.58 L 1308.54 2078.90 L 1312.20 2205.83 L 1500.00 2332.21 L 1500.00 2202.58 L 1308.54 2078.90 L 1312.20 2205.83" stroke="black" stroke-width="4" fill="none" stroke-linecap="round" stroke-linejoin="round"/>
  <path d="M 1308.54 2078.90 L 1500.00 2202.58 L 1691.46 2078.90 L 1695.27 1946.91 L 1500.00 2067.58 L 1500.00 2202.58 L 1691.46 2078.90 L 1695.27 1946.91 L 1500.00 2067.58 L 1304.73 1946.91 L 1308.54 2078.90 L 1500.00 2202.58 L 1500.00 2067.58 L 1304.73 1946.91 L 1308.54 2078.90" stroke="black" stroke-width="4" fill="none" stroke-linecap="round" stroke-linejoin="round"/>
  <path d="M 1304.73 1946.91 L 1500.00 2067.58 L 1695.27 1946.91 L 1699.23 1809.58 L 1500.00 1926.87 L 1500.00 2067.58 L 1695.27 1946.91 L 1699.23 1809.58 L 1642.53 1778.85 L 1699.23 1809.58 L 1500.00 1926.87 L 1300.77 1809.58 L 1357.47 1778.85 L 1300.77 1809.58 L 1304.73 1946.91 L 1500.00 2067.58 L 1500.00 1926.87 L 1300.77 1809.58 L 1304.73 1946.91" stroke="black" stroke-width="4" fill="none" stroke-linecap="round" stroke-linejoin="round"/>
  <path d="M 1596.84 1754.10 L 1541.61 1724.16 L 1596.84 1754.10" stroke="black" stroke-width="4" fill="none" stroke-linecap="round" stroke-linejoin="round"/>
  <path d="M 1458.39 1724.16 L 1403.16 1754.10 L 1458.39 1724.16" stroke="black" stroke-width="4" fill="none" stroke-linecap="round" stroke-linejoin="round"/>
  <path d="M 1500.00 1705.73 L 1511.89 1706.99" stroke="black" stroke-width="4" fill="none" stroke-linecap="round" stroke-linejoin="round"/>
  <path d="M 1521.96 1710.65 L 1528.75 1716.13" stroke="black" stroke-width="4" fill="none" stroke-linecap="round" stroke-linejoin="round"/>
  <path d="M 1500.00 1700.11 L 1515.81 1701.82 L 1529.23 1706.68" stroke="black" stroke-width="4" fill="none" stroke-linecap="round" stroke-linejoin="round"/>
  <path d="M 1488.11 1706.99 L 1478.04 1710.65" stroke="black" stroke-width="4" fill="none" stroke-linecap="round" stroke-linejoin="round"/>
  <path d="M 1470.77 1706.68 L 1461.70 1713.97 L 1458.38 1722.65 L 1461.44 1731.38 L 1470.41 1738.81" stroke="black" stroke-width="4" fill="none" stroke-linecap="round" stroke-linejoin="round"/>
  <path d="M 1471.25 1716.13 L 1468.82 1722.65" stroke="black" stroke-width="4" fill="none" stroke-linecap="round" stroke-linejoin="round"/>
  <path d="M 1477.84 1734.75 L 1487.97 1738.49 L 1500.00 1739.79" stroke="black" stroke-width="4" fill="none" stroke-linecap="round" stroke-linejoin="round"/>
  <path d="M 1500.00 1745.58 L 1516.06 1743.81 L 1529.59 1738.81" stroke="black" stroke-width="4" fill="none" stroke-linecap="round" stroke-linejoin="round"/>
  <path d="M 1522.16 1734.75 L 1528.90 1729.20 L 1531.18 1722.65" stroke="black" stroke-width="4" fill="none" stroke-linecap="round" stroke-linejoin="round"/>
  <path d="M 1528.90 1729.20 L 1531.18 1722.65 L 1528.75 1716.13 L 1521.96 1710.65 L 1511.89 1706.99 L 1500.00 1705.73 L 1488.11 1706.99 L 1478.04 1710.65 L 1471.25 1716.13 L 1468.82 1722.65 L 1471.10 1729.20 L 1477.84 1734.75 L 1487.97 1738.49 L 1500.00 1739.79 L 1512.03 1738.49 L 1522.16 1734.75 L 1528.90 1729.20" stroke="black" stroke-width="4" fill="none" stroke-linecap="round" stroke-linejoin="round"/>
  <path d="M 1510.80 1738.62 L 1500.00 1737.45 L 1489.20 1738.62" stroke="black" stroke-width="4" fill="none" stroke-linecap="round" stroke-linejoin="round"/>
  <path d="M 1458.38 1722.65 L 1461.44 1731.38 L 1470.41 1738.81 L 1483.94 1743.81 L 1500.00 1745.58 L 1516.06 1743.81 L 1529.59 1738.81 L 1538.56 1731.38 L 1541.62 1722.65 L 1538.30 1713.97 L 1529.23 1706.68 L 1515.81 1701.82 L 1500.00 1700.11 L 1484.19 1701.82 L 1470.77 1706.68 L 1461.70 1713.97 L 1458.38 1722.65 L 1458.57 1754.50 L 1461.62 1763.30 L 1470.54 1770.79 L 1484.01 1775.82 L 1500.00 1777.61 L 1515.99 1775.82 L 1529.46 1770.79 L 1538.38 1763.30 L 1541.43 1754.50 L 1541.62 1722.65" stroke="black" stroke-width="4" fill="none" stroke-linecap="round" stroke-linejoin="round"/>
  <path d="M 1577.20 1764.82 L 1587.34 1761.01 L 1599.42 1759.69 L 1611.61 1761.01" stroke="black" stroke-width="4" fill="none" stroke-linecap="round" stroke-linejoin="round"/>
  <path d="M 1622.03 1764.82 L 1629.17 1770.53" stroke="black" stroke-width="4" fill="none" stroke-linecap="round" stroke-linejoin="round"/>
  <path d="M 1599.20 1753.83 L 1615.40 1755.62 L 1629.30 1760.68" stroke="black" stroke-width="4" fill="none" stroke-linecap="round" stroke-linejoin="round"/>
  <path d="M 1569.62 1760.68 L 1560.64 1768.28 L 1557.60 1777.32 L 1561.05 1786.42 L 1570.50 1794.17" stroke="black" stroke-width="4" fill="none" stroke-linecap="round" stroke-linejoin="round"/>
  <path d="M 1577.93 1789.93 L 1588.41 1793.83 L 1600.75 1795.18 L 1612.98 1793.83 L 1612.93 1793.83 L 1611.09 1793.15 L 1598.96 1791.82 L 1586.93 1793.15 L 1586.76 1793.21" stroke="black" stroke-width="4" fill="none" stroke-linecap="round" stroke-linejoin="round"/>
  <path d="M 1600.97 1801.22 L 1617.30 1799.37 L 1630.92 1794.17" stroke="black" stroke-width="4" fill="none" stroke-linecap="round" stroke-linejoin="round"/>
  <path d="M 1623.17 1789.93 L 1629.83 1784.14 L 1631.90 1777.32 L 1629.17 1770.53 L 1622.03 1764.82 L 1611.61 1761.01 L 1599.42 1759.69 L 1587.34 1761.01 L 1577.20 1764.82 L 1570.48 1770.53 L 1568.25 1777.32 L 1570.84 1784.14 L 1577.93 1789.93 L 1588.41 1793.83 L 1600.75 1795.18 L 1612.98 1793.83 L 1623.17 1789.93 L 1629.83 1784.14" stroke="black" stroke-width="4" fill="none" stroke-linecap="round" stroke-linejoin="round"/>
  <path d="M 1557.60 1777.32 L 1561.05 1786.42 L 1570.50 1794.17 L 1584.50 1799.37 L 1600.97 1801.22 L 1617.30 1799.37 L 1630.92 1794.17 L 1639.78 1786.42 L 1642.56 1777.32 L 1638.84 1768.28 L 1629.30 1760.68 L 1615.40 1755.62 L 1599.20 1753.83 L 1583.14 1755.62 L 1569.62 1760.68 L 1560.64 1768.28 L 1557.60 1777.32 L 1557.33 1809.58 L 1560.77 1818.74 L 1570.17 1826.55 L 1584.11 1831.80 L 1600.50 1833.65 L 1616.75 1831.80 L 1630.31 1826.55 L 1639.13 1818.74 L 1641.90 1809.58 L 1642.56 1777.32" stroke="black" stroke-width="4" fill="none" stroke-linecap="round" stroke-linejoin="round"/>
  <path d="M 1422.80 1764.82 L 1429.52 1770.53 L 1431.75 1777.32 L 1429.16 1784.14 L 1422.07 1789.93" stroke="black" stroke-width="4" fill="none" stroke-linecap="round" stroke-linejoin="round"/>
  <path d="M 1400.80 1753.83 L 1416.86 1755.62 L 1430.38 1760.68" stroke="black" stroke-width="4" fill="none" stroke-linecap="round" stroke-linejoin="round"/>
  <path d="M 1388.39 1761.01 L 1377.97 1764.82" stroke="black" stroke-width="4" fill="none" stroke-linecap="round" stroke-linejoin="round"/>
  <path d="M 1370.70 1760.68 L 1361.16 1768.28 L 1357.44 1777.32 L 1360.22 1786.42 L 1369.08 1794.17" stroke="black" stroke-width="4" fill="none" stroke-linecap="round" stroke-linejoin="round"/>
  <path d="M 1370.83 1770.53 L 1368.10 1777.32 L 1370.17 1784.14" stroke="black" stroke-width="4" fill="none" stroke-linecap="round" stroke-linejoin="round"/>
  <path d="M 1376.83 1789.93 L 1387.02 1793.83 L 1387.07 1793.83 L 1388.91 1793.15 L 1401.04 1791.82 L 1413.07 1793.15 L 1413.24 1793.21" stroke="black" stroke-width="4" fill="none" stroke-linecap="round" stroke-linejoin="round"/>
  <path d="M 1399.03 1801.22 L 1415.49 1799.37 L 1429.50 1794.17" stroke="black" stroke-width="4" fill="none" stroke-linecap="round" stroke-linejoin="round"/>
  <path d="M 1429.16 1784.14 L 1431.75 1777.32 L 1429.52 1770.53 L 1422.80 1764.82 L 1412.66 1761.01 L 1400.58 1759.69 L 1388.39 1761.01 L 1377.97 1764.82 L 1370.83 1770.53 L 1368.10 1777.32 L 1370.17 1784.14 L 1376.83 1789.93 L 1387.02 1793.83 L 1399.25 1795.18 L 1411.59 1793.83 L 1422.07 1789.93 L 1429.16 1784.14" stroke="black" stroke-width="4" fill="none" stroke-linecap="round" stroke-linejoin="round"/>
  <path d="M 1357.44 1777.32 L 1360.22 1786.42 L 1369.08 1794.17 L 1382.70 1799.37 L 1399.03 1801.22 L 1415.49 1799.37 L 1429.50 1794.17 L 1438.95 1786.42 L 1442.40 1777.32 L 1439.36 1768.28 L 1430.38 1760.68 L 1416.86 1755.62 L 1400.80 1753.83 L 1384.60 1755.62 L 1370.70 1760.68 L 1361.16 1768.28 L 1357.44 1777.32 L 1358.10 1809.58 L 1360.87 1818.74 L 1369.69 1826.55 L 1383.25 1831.80 L 1399.50 1833.65 L 1415.89 1831.80 L 1429.83 1826.55 L 1439.23 1818.74 L 1442.67 1809.58 L 1442.40 1777.32" stroke="black" stroke-width="4" fill="none" stroke-linecap="round" stroke-linejoin="round"/>
  <path d="M 1522.89 1821.28 L 1529.97 1827.23 L 1532.50 1834.31" stroke="black" stroke-width="4" fill="none" stroke-linecap="round" stroke-linejoin="round"/>
  <path d="M 1500.00 1809.82 L 1516.47 1811.68 L 1530.47 1816.96" stroke="black" stroke-width="4" fill="none" stroke-linecap="round" stroke-linejoin="round"/>
  <path d="M 1500.00 1815.93 L 1487.61 1817.31 L 1477.11 1821.28" stroke="black" stroke-width="4" fill="none" stroke-linecap="round" stroke-linejoin="round"/>
  <path d="M 1469.53 1816.96 L 1460.07 1824.89 L 1456.61 1834.31 L 1459.80 1843.80 L 1469.14 1851.88" stroke="black" stroke-width="4" fill="none" stroke-linecap="round" stroke-linejoin="round"/>
  <path d="M 1467.50 1834.31 L 1469.87 1841.43" stroke="black" stroke-width="4" fill="none" stroke-linecap="round" stroke-linejoin="round"/>
  <path d="M 1476.89 1847.47 L 1487.45 1851.53" stroke="black" stroke-width="4" fill="none" stroke-linecap="round" stroke-linejoin="round"/>
  <path d="M 1500.00 1852.95 L 1512.55 1851.53" stroke="black" stroke-width="4" fill="none" stroke-linecap="round" stroke-linejoin="round"/>
  <path d="M 1500.00 1859.24 L 1516.75 1857.32 L 1530.86 1851.88" stroke="black" stroke-width="4" fill="none" stroke-linecap="round" stroke-linejoin="round"/>
  <path d="M 1523.11 1847.47 L 1530.13 1841.43 L 1532.50 1834.31 L 1529.97 1827.23 L 1522.89 1821.28 L 1512.39 1817.31 L 1500.00 1815.93 L 1487.61 1817.31 L 1477.11 1821.28 L 1470.03 1827.23 L 1467.50 1834.31 L 1469.87 1841.43 L 1476.89 1847.47 L 1487.45 1851.53 L 1500.00 1852.95 L 1512.55 1851.53 L 1523.11 1847.47 L 1530.13 1841.43" stroke="black" stroke-width="4" fill="none" stroke-linecap="round" stroke-linejoin="round"/>
  <path d="M 1514.62 1850.73 L 1512.33 1849.86 L 1500.00 1848.47 L 1487.67 1849.86 L 1485.38 1850.73" stroke="black" stroke-width="4" fill="none" stroke-linecap="round" stroke-linejoin="round"/>
  <path d="M 1456.61 1834.31 L 1459.80 1843.80 L 1469.14 1851.88 L 1483.25 1857.32 L 1500.00 1859.24 L 1516.75 1857.32 L 1530.86 1851.88 L 1540.20 1843.80 L 1543.39 1834.31 L 1539.93 1824.89 L 1530.47 1816.96 L 1516.47 1811.68 L 1500.00 1809.82 L 1483.53 1811.68 L 1469.53 1816.96 L 1460.07 1824.89 L 1456.61 1834.31 L 1456.82 1866.98 L 1459.99 1876.54 L 1469.29 1884.68 L 1483.33 1890.15 L 1500.00 1892.09 L 1516.67 1890.15 L 1530.71 1884.68 L 1540.01 1876.54 L 1543.18 1866.98 L 1543.39 1834.31" stroke="black" stroke-width="4" fill="none" stroke-linecap="round" stroke-linejoin="round"/>
  <path d="M 1287.86 1361.97 L 1500.00 1466.57 L 1712.14 1361.97 L 1716.82 1199.60 L 1500.00 1298.95 L 1500.00 1466.57 L 1712.14 1361.97 L 1716.82 1199.60 L 1500.00 1298.95 L 1283.18 1199.60 L 1287.86 1361.97 L 1500.00 1466.57 L 1500.00 1298.95 L 1283.18 1199.60 L 1287.86 1361.97" stroke="black" stroke-width="4" fill="none" stroke-linecap="round" stroke-linejoin="round"/>
  <path d="M 1283.18 1199.60 L 1500.00 1298.95 L 1716.82 1199.60 L 1721.72 1029.89 L 1500.00 1123.39 L 1500.00 1298.95 L 1716.82 1199.60 L 1721.72 1029.89 L 1500.00 1123.39 L 1278.28 1029.89 L 1283.18 1199.60 L 1500.00 1298.95 L 1500.00 1123.39 L 1278.28 1029.89 L 1283.18 1199.60" stroke="black" stroke-width="4" fill="none" stroke-linecap="round" stroke-linejoin="round"/>
  <path d="M 1278.28 1029.89 L 1500.00 1123.39 L 1721.72 1029.89 L 1726.84 852.34 L 1500.00 939.32 L 1500.00 1123.39 L 1721.72 1029.89 L 1726.84 852.34 L 1500.00 939.32 L 1273.16 852.34 L 1278.28 1029.89 L 1500.00 1123.39 L 1500.00 939.32 L 1273.16 852.34 L 1278.28 1029.89" stroke="black" stroke-width="4" fill="none" stroke-linecap="round" stroke-linejoin="round"/>
  <path d="M 1273.16 852.34 L 1500.00 939.32 L 1726.84 852.34 L 1732.20 666.39 L 1500.00 746.11 L 1500.00 939.32 L 1726.84 852.34 L 1732.20 666.39 L 1500.00 746.11 L 1267.80 666.39 L 1273.16 852.34 L 1500.00 939.32 L 1500.00 746.11 L 1267.80 666.39 L 1273.16 852.34" stroke="black" stroke-width="4" fill="none" stroke-linecap="round" stroke-linejoin="round"/>
  <path d="M 1267.80 666.39 L 1500.00 746.11 L 1732.20 666.39 L 1737.82 471.44 L 1500.00 543.05 L 1500.00 746.11 L 1732.20 666.39 L 1737.82 471.44 L 1669.77 452.88 L 1737.82 471.44 L 1500.00 543.05 L 1262.18 471.44 L 1330.23 452.88 L 1262.18 471.44 L 1267.80 666.39 L 1500.00 746.11 L 1500.00 543.05 L 1262.18 471.44 L 1267.80 666.39" stroke="black" stroke-width="4" fill="none" stroke-linecap="round" stroke-linejoin="round"/>
  <path d="M 1568.86 425.36 L 1549.37 420.04 L 1568.86 425.36 L 1568.82 425.43 L 1573.00 430.83 L 1584.33 435.43 L 1601.13 438.52 L 1620.85 439.62 L 1640.37 438.52 L 1656.62 435.43 L 1667.12 430.83 L 1670.34 425.43 L 1665.78 420.07 L 1654.30 415.58 L 1637.67 412.59 L 1618.33 411.53 L 1599.18 412.59 L 1583.08 415.58 L 1572.41 420.07 L 1568.82 425.43 L 1568.43 471.44 L 1572.59 476.99 L 1583.86 481.73 L 1600.56 484.91 L 1620.17 486.04 L 1639.59 484.91 L 1655.74 481.73 L 1666.19 476.99 L 1669.39 471.44 L 1670.34 425.43" stroke="black" stroke-width="4" fill="none" stroke-linecap="round" stroke-linejoin="round"/>
  <path d="M 1450.63 420.04 L 1431.14 425.36 L 1450.63 420.04" stroke="black" stroke-width="4" fill="none" stroke-linecap="round" stroke-linejoin="round"/>
  <path d="M 1500.00 383.21 L 1514.13 383.96" stroke="black" stroke-width="4" fill="none" stroke-linecap="round" stroke-linejoin="round"/>
  <path d="M 1526.11 386.10 L 1534.20 389.32" stroke="black" stroke-width="4" fill="none" stroke-linecap="round" stroke-linejoin="round"/>
  <path d="M 1500.00 379.92 L 1518.78 380.92 L 1534.75 383.77" stroke="black" stroke-width="4" fill="none" stroke-linecap="round" stroke-linejoin="round"/>
  <path d="M 1485.87 383.96 L 1473.89 386.10" stroke="black" stroke-width="4" fill="none" stroke-linecap="round" stroke-linejoin="round"/>
  <path d="M 1465.25 383.77 L 1454.44 388.05 L 1450.47 393.15 L 1454.08 398.29 L 1464.74 402.67" stroke="black" stroke-width="4" fill="none" stroke-linecap="round" stroke-linejoin="round"/>
  <path d="M 1465.80 389.32 L 1462.90 393.15" stroke="black" stroke-width="4" fill="none" stroke-linecap="round" stroke-linejoin="round"/>
  <path d="M 1473.60 400.27 L 1485.66 402.48 L 1500.00 403.24" stroke="black" stroke-width="4" fill="none" stroke-linecap="round" stroke-linejoin="round"/>
  <path d="M 1500.00 406.66 L 1519.14 405.61 L 1535.26 402.67" stroke="black" stroke-width="4" fill="none" stroke-linecap="round" stroke-linejoin="round"/>
  <path d="M 1526.40 400.27 L 1534.40 397.00 L 1537.10 393.15" stroke="black" stroke-width="4" fill="none" stroke-linecap="round" stroke-linejoin="round"/>
  <path d="M 1534.40 397.00 L 1537.10 393.15 L 1534.20 389.32 L 1526.11 386.10 L 1514.13 383.96 L 1500.00 383.21 L 1485.87 383.96 L 1473.89 386.10 L 1465.80 389.32 L 1462.90 393.15 L 1465.60 397.00 L 1473.60 400.27 L 1485.66 402.48 L 1500.00 403.24 L 1514.34 402.48 L 1526.40 400.27 L 1534.40 397.00" stroke="black" stroke-width="4" fill="none" stroke-linecap="round" stroke-linejoin="round"/>
  <path d="M 1533.20 448.38 L 1535.07 448.02 L 1545.67 443.52 L 1549.26 438.23 L 1549.53 393.15" stroke="black" stroke-width="4" fill="none" stroke-linecap="round" stroke-linejoin="round"/>
  <path d="M 1545.92 398.29 L 1549.53 393.15 L 1545.56 388.05 L 1534.75 383.77 L 1518.78 380.92 L 1500.00 379.92 L 1481.22 380.92 L 1465.25 383.77 L 1454.44 388.05 L 1450.47 393.15 L 1454.08 398.29 L 1464.74 402.67 L 1480.86 405.61 L 1500.00 406.66 L 1519.14 405.61 L 1535.26 402.67 L 1545.92 398.29" stroke="black" stroke-width="4" fill="none" stroke-linecap="round" stroke-linejoin="round"/>
  <path d="M 1450.47 393.15 L 1450.74 438.23 L 1454.33 443.52 L 1464.93 448.02 L 1466.80 448.38" stroke="black" stroke-width="4" fill="none" stroke-linecap="round" stroke-linejoin="round"/>
  <path d="M 1592.16 418.03 L 1604.23 415.77 L 1618.64 414.99 L 1633.19 415.77" stroke="black" stroke-width="4" fill="none" stroke-linecap="round" stroke-linejoin="round"/>
  <path d="M 1645.67 418.03 L 1654.26 421.40" stroke="black" stroke-width="4" fill="none" stroke-linecap="round" stroke-linejoin="round"/>
  <path d="M 1618.33 411.53 L 1637.67 412.59 L 1654.30 415.58" stroke="black" stroke-width="4" fill="none" stroke-linecap="round" stroke-linejoin="round"/>
  <path d="M 1583.08 415.58 L 1572.41 420.07 L 1568.82 425.43 L 1573.00 430.83 L 1584.33 435.43" stroke="black" stroke-width="4" fill="none" stroke-linecap="round" stroke-linejoin="round"/>
  <path d="M 1593.19 432.91 L 1605.76 435.23 L 1620.53 436.03 L 1635.15 435.23" stroke="black" stroke-width="4" fill="none" stroke-linecap="round" stroke-linejoin="round"/>
  <path d="M 1620.85 439.62 L 1640.37 438.52 L 1656.62 435.43" stroke="black" stroke-width="4" fill="none" stroke-linecap="round" stroke-linejoin="round"/>
  <path d="M 1647.30 432.91 L 1655.20 429.48 L 1657.60 425.43 L 1654.26 421.40 L 1645.67 418.03 L 1633.19 415.77 L 1618.64 414.99 L 1604.23 415.77 L 1592.16 418.03 L 1584.17 421.40 L 1581.55 425.43 L 1584.68 429.48 L 1593.19 432.91 L 1605.76 435.23 L 1620.53 436.03 L 1635.15 435.23 L 1647.30 432.91 L 1655.20 429.48" stroke="black" stroke-width="4" fill="none" stroke-linecap="round" stroke-linejoin="round"/>
  <path d="M 1407.84 418.03 L 1415.84 421.40 L 1418.45 425.43 L 1415.32 429.48 L 1406.81 432.91" stroke="black" stroke-width="4" fill="none" stroke-linecap="round" stroke-linejoin="round"/>
  <path d="M 1381.67 411.53 L 1400.82 412.59 L 1416.92 415.58" stroke="black" stroke-width="4" fill="none" stroke-linecap="round" stroke-linejoin="round"/>
  <path d="M 1366.81 415.77 L 1354.33 418.03" stroke="black" stroke-width="4" fill="none" stroke-linecap="round" stroke-linejoin="round"/>
  <path d="M 1345.70 415.58 L 1334.22 420.07 L 1329.66 425.43 L 1332.88 430.83 L 1343.38 435.43" stroke="black" stroke-width="4" fill="none" stroke-linecap="round" stroke-linejoin="round"/>
  <path d="M 1345.74 421.40 L 1342.40 425.43 L 1344.80 429.48" stroke="black" stroke-width="4" fill="none" stroke-linecap="round" stroke-linejoin="round"/>
  <path d="M 1352.70 432.91 L 1364.85 435.23" stroke="black" stroke-width="4" fill="none" stroke-linecap="round" stroke-linejoin="round"/>
  <path d="M 1379.15 439.62 L 1398.87 438.52 L 1415.67 435.43" stroke="black" stroke-width="4" fill="none" stroke-linecap="round" stroke-linejoin="round"/>
  <path d="M 1415.32 429.48 L 1418.45 425.43 L 1415.84 421.40 L 1407.84 418.03 L 1395.77 415.77 L 1381.36 414.99 L 1366.81 415.77 L 1354.33 418.03 L 1345.74 421.40 L 1342.40 425.43 L 1344.80 429.48 L 1352.70 432.91 L 1364.85 435.23 L 1379.47 436.03 L 1394.24 435.23 L 1406.81 432.91 L 1415.32 429.48" stroke="black" stroke-width="4" fill="none" stroke-linecap="round" stroke-linejoin="round"/>
  <path d="M 1329.66 425.43 L 1332.88 430.83 L 1343.38 435.43 L 1359.63 438.52 L 1379.15 439.62 L 1398.87 438.52 L 1415.67 435.43 L 1427.00 430.83 L 1431.18 425.43 L 1427.59 420.07 L 1416.92 415.58 L 1400.82 412.59 L 1381.67 411.53 L 1362.33 412.59 L 1345.70 415.58 L 1334.22 420.07 L 1329.66 425.43 L 1330.61 471.44 L 1333.81 476.99 L 1344.26 481.73 L 1360.41 484.91 L 1379.83 486.04 L 1399.44 484.91 L 1416.14 481.73 L 1427.41 476.99 L 1431.57 471.44 L 1431.18 425.43" stroke="black" stroke-width="4" fill="none" stroke-linecap="round" stroke-linejoin="round"/>
  <path d="M 1527.43 451.57 L 1535.94 455.12 L 1538.99 459.35" stroke="black" stroke-width="4" fill="none" stroke-linecap="round" stroke-linejoin="round"/>
  <path d="M 1500.00 444.74 L 1519.73 445.85 L 1536.51 448.99" stroke="black" stroke-width="4" fill="none" stroke-linecap="round" stroke-linejoin="round"/>
  <path d="M 1500.00 448.38 L 1485.15 449.20 L 1472.57 451.57" stroke="black" stroke-width="4" fill="none" stroke-linecap="round" stroke-linejoin="round"/>
  <path d="M 1463.49 448.99 L 1452.13 453.72 L 1447.95 459.35 L 1451.73 465.03 L 1462.93 469.87" stroke="black" stroke-width="4" fill="none" stroke-linecap="round" stroke-linejoin="round"/>
  <path d="M 1461.01 459.35 L 1463.84 463.61" stroke="black" stroke-width="4" fill="none" stroke-linecap="round" stroke-linejoin="round"/>
  <path d="M 1472.25 467.22 L 1484.93 469.66" stroke="black" stroke-width="4" fill="none" stroke-linecap="round" stroke-linejoin="round"/>
  <path d="M 1500.00 470.51 L 1515.07 469.66" stroke="black" stroke-width="4" fill="none" stroke-linecap="round" stroke-linejoin="round"/>
  <path d="M 1500.00 474.28 L 1520.13 473.13 L 1537.07 469.87" stroke="black" stroke-width="4" fill="none" stroke-linecap="round" stroke-linejoin="round"/>
  <path d="M 1527.75 467.22 L 1536.16 463.61 L 1538.99 459.35 L 1535.94 455.12 L 1527.43 451.57 L 1514.85 449.20 L 1500.00 448.38 L 1485.15 449.20 L 1472.57 451.57 L 1464.06 455.12 L 1461.01 459.35 L 1463.84 463.61 L 1472.25 467.22 L 1484.93 469.66 L 1500.00 470.51 L 1515.07 469.66 L 1527.75 467.22 L 1536.16 463.61" stroke="black" stroke-width="4" fill="none" stroke-linecap="round" stroke-linejoin="round"/>
  <path d="M 1447.95 459.35 L 1451.73 465.03 L 1462.93 469.87 L 1479.87 473.13 L 1500.00 474.28 L 1520.13 473.13 L 1537.07 469.87 L 1548.27 465.03 L 1552.05 459.35 L 1547.87 453.72 L 1536.51 448.99 L 1519.73 445.85 L 1500.00 444.74 L 1480.27 445.85 L 1463.49 448.99 L 1452.13 453.72 L 1447.95 459.35 L 1448.24 506.34 L 1452.01 512.18 L 1463.14 517.16 L 1479.99 520.51 L 1500.00 521.69 L 1520.01 520.51 L 1536.86 517.16 L 1547.99 512.18 L 1551.76 506.34 L 1552.05 459.35" stroke="black" stroke-width="4" fill="none" stroke-linecap="round" stroke-linejoin="round"/>
  <path d="M 1737.82 471.44 L 1669.77 452.88" stroke="black" stroke-width="4" fill="none" stroke-linecap="round" stroke-linejoin="round"/>
  <path d="M 1568.86 425.36 L 1549.37 420.04" stroke="black" stroke-width="4" fill="none" stroke-linecap="round" stroke-linejoin="round"/>
  <path d="M 1450.63 420.04 L 1431.14 425.36" stroke="black" stroke-width="4" fill="none" stroke-linecap="round" stroke-linejoin="round"/>
  <path d="M 1330.23 452.88 L 1262.18 471.44 L 1500.00 543.05 L 1737.82 471.44 L 1732.20 666.39 L 1500.00 746.11 L 1267.80 666.39 L 1262.18 471.44" stroke="black" stroke-width="4" fill="none" stroke-linecap="round" stroke-linejoin="round"/>
  <path d="M 1500.00 543.05 L 1500.00 746.11 L 1267.80 666.39 L 1500.00 746.11 L 1500.00 939.32 L 1273.16 852.34 L 1500.00 939.32 L 1726.84 852.34 L 1500.00 939.32 L 1726.84 852.34 L 1732.20 666.39 L 1500.00 746.11 L 1732.20 666.39 L 1500.00 746.11 L 1267.80 666.39 L 1273.16 852.34 L 1278.28 1029.89 L 1283.18 1199.60 L 1287.86 1361.97 L 1500.00 1466.57 L 1712.14 1361.97 L 1716.82 1199.60 L 1500.00 1298.95 L 1283.18 1199.60 L 1500.00 1298.95 L 1500.00 1466.57" stroke="black" stroke-width="4" fill="none" stroke-linecap="round" stroke-linejoin="round"/>
  <path d="M 1534.43 389.63 L 1534.20 389.32 L 1526.11 386.10 L 1514.13 383.96 L 1500.00 383.21 L 1485.87 383.96 L 1473.89 386.10 L 1465.80 389.32 L 1462.90 393.15 L 1465.60 397.00 L 1473.60 400.27 L 1485.66 402.48 L 1500.00 403.24 L 1514.34 402.48 L 1526.40 400.27 L 1534.40 397.00 L 1537.10 393.15" stroke="black" stroke-width="4" fill="none" stroke-linecap="round" stroke-linejoin="round"/>
  <path d="M 1549.26 438.23 L 1545.67 443.52 L 1535.07 448.02 L 1533.20 448.38" stroke="black" stroke-width="4" fill="none" stroke-linecap="round" stroke-linejoin="round"/>
  <path d="M 1545.97 388.58 L 1545.56 388.05 L 1534.75 383.77 L 1518.78 380.92 L 1500.00 379.92 L 1481.22 380.92 L 1465.25 383.77 L 1454.44 388.05 L 1450.47 393.15 L 1454.08 398.29 L 1464.74 402.67 L 1480.86 405.61 L 1500.00 406.66 L 1519.14 405.61 L 1535.26 402.67 L 1545.92 398.29 L 1549.53 393.15" stroke="black" stroke-width="4" fill="none" stroke-linecap="round" stroke-linejoin="round"/>
  <path d="M 1466.80 448.38 L 1464.93 448.02 L 1454.33 443.52 L 1450.74 438.23" stroke="black" stroke-width="4" fill="none" stroke-linecap="round" stroke-linejoin="round"/>
  <path d="M 1655.33 422.69 L 1654.26 421.40 L 1645.67 418.03 L 1633.19 415.77 L 1618.64 414.99 L 1604.23 415.77 L 1592.16 418.03 L 1584.17 421.40 L 1581.55 425.43 L 1584.68 429.48 L 1593.19 432.91 L 1605.76 435.23 L 1620.53 436.03 L 1635.15 435.23 L 1647.30 432.91 L 1655.20 429.48 L 1657.60 425.43" stroke="black" stroke-width="4" fill="none" stroke-linecap="round" stroke-linejoin="round"/>
  <path d="M 1669.39 471.44 L 1666.19 476.99 L 1655.74 481.73 L 1639.59 484.91 L 1620.17 486.04 L 1600.56 484.91 L 1583.86 481.73 L 1572.59 476.99 L 1568.43 471.44" stroke="black" stroke-width="4" fill="none" stroke-linecap="round" stroke-linejoin="round"/>
  <path d="M 1667.12 430.83 L 1670.34 425.43 L 1665.78 420.07 L 1654.30 415.58 L 1637.67 412.59 L 1618.33 411.53 L 1599.18 412.59 L 1583.08 415.58 L 1572.41 420.07 L 1568.82 425.43 L 1573.00 430.83 L 1584.33 435.43 L 1601.13 438.52 L 1620.85 439.62 L 1640.37 438.52 L 1656.62 435.43 L 1667.12 430.83" stroke="black" stroke-width="4" fill="none" stroke-linecap="round" stroke-linejoin="round"/>
  <path d="M 1415.32 429.48 L 1418.45 425.43 L 1415.84 421.40 L 1407.84 418.03 L 1395.77 415.77 L 1381.36 414.99 L 1366.81 415.77 L 1354.33 418.03 L 1345.74 421.40 L 1342.40 425.43 L 1344.80 429.48 L 1352.70 432.91 L 1364.85 435.23 L 1379.47 436.03 L 1394.24 435.23 L 1406.81 432.91 L 1415.32 429.48" stroke="black" stroke-width="4" fill="none" stroke-linecap="round" stroke-linejoin="round"/>
  <path d="M 1431.57 471.44 L 1427.41 476.99 L 1416.14 481.73 L 1399.44 484.91 L 1379.83 486.04 L 1360.41 484.91 L 1344.26 481.73 L 1333.81 476.99 L 1330.61 471.44" stroke="black" stroke-width="4" fill="none" stroke-linecap="round" stroke-linejoin="round"/>
  <path d="M 1427.00 430.83 L 1431.18 425.43 L 1427.59 420.07 L 1416.92 415.58 L 1400.82 412.59 L 1381.67 411.53 L 1362.33 412.59 L 1345.70 415.58 L 1334.22 420.07 L 1329.66 425.43 L 1332.88 430.83 L 1343.38 435.43 L 1359.63 438.52 L 1379.15 439.62 L 1398.87 438.52 L 1415.67 435.43 L 1427.00 430.83" stroke="black" stroke-width="4" fill="none" stroke-linecap="round" stroke-linejoin="round"/>
  <path d="M 1536.16 463.61 L 1538.99 459.35 L 1535.94 455.12 L 1527.43 451.57 L 1514.85 449.20 L 1500.00 448.38 L 1485.15 449.20 L 1472.57 451.57 L 1464.06 455.12 L 1461.01 459.35 L 1463.84 463.61 L 1472.25 467.22 L 1484.93 469.66 L 1500.00 470.51 L 1515.07 469.66 L 1527.75 467.22 L 1536.16 463.61" stroke="black" stroke-width="4" fill="none" stroke-linecap="round" stroke-linejoin="round"/>
  <path d="M 1551.76 506.34 L 1547.99 512.18 L 1536.86 517.16 L 1520.01 520.51 L 1500.00 521.69 L 1479.99 520.51 L 1463.14 517.16 L 1452.01 512.18 L 1448.24 506.34" stroke="black" stroke-width="4" fill="none" stroke-linecap="round" stroke-linejoin="round"/>
  <path d="M 1548.27 465.03 L 1552.05 459.35 L 1547.87 453.72 L 1536.51 448.99 L 1519.73 445.85 L 1500.00 444.74 L 1480.27 445.85 L 1463.49 448.99 L 1452.13 453.72 L 1447.95 459.35 L 1451.73 465.03 L 1462.93 469.87 L 1479.87 473.13 L 1500.00 474.28 L 1520.13 473.13 L 1537.07 469.87 L 1548.27 465.03" stroke="black" stroke-width="4" fill="none" stroke-linecap="round" stroke-linejoin="round"/>
  <path d="M 1300.77 1809.58 L 1500.00 1926.87 L 1699.23 1809.58 L 1642.53 1778.85" stroke="black" stroke-width="4" fill="none" stroke-linecap="round" stroke-linejoin="round"/>
  <path d="M 1596.84 1754.10 L 1541.61 1724.16" stroke="black" stroke-width="4" fill="none" stroke-linecap="round" stroke-linejoin="round"/>
  <path d="M 1458.39 1724.16 L 1403.16 1754.10" stroke="black" stroke-width="4" fill="none" stroke-linecap="round" stroke-linejoin="round"/>
  <path d="M 1357.47 1778.85 L 1300.77 1809.58 L 1304.73 1946.91 L 1500.00 2067.58 L 1500.00 2202.58 L 1308.54 2078.90 L 1304.73 1946.91 L 1500.00 2067.58 L 1695.27 1946.91 L 1691.46 2078.90 L 1500.00 2202.58 L 1691.46 2078.90 L 1500.00 2202.58 L 1308.54 2078.90 L 1500.00 2202.58 L 1500.00 2332.21 L 1312.20 2205.83 L 1500.00 2332.21 L 1687.80 2205.83 L 1500.00 2332.21 L 1687.80 2205.83 L 1691.46 2078.90 L 1500.00 2202.58 L 1308.54 2078.90 L 1312.20 2205.83 L 1500.00 2332.21 L 1500.00 2456.78 L 1315.72 2328.00 L 1312.20 2205.83 L 1500.00 2332.21 L 1687.80 2205.83 L 1684.27 2328.00 L 1500.00 2456.78" stroke="black" stroke-width="4" fill="none" stroke-linecap="round" stroke-linejoin="round"/>
  <path d="M 1500.00 1926.87 L 1500.00 2067.58 L 1304.73 1946.91 L 1500.00 2067.58 L 1695.27 1946.91 L 1500.00 2067.58 L 1695.27 1946.91 L 1699.23 1809.58" stroke="black" stroke-width="4" fill="none" stroke-linecap="round" stroke-linejoin="round"/>
  <path d="M 1528.95 1716.65 L 1528.75 1716.13 L 1521.96 1710.65 L 1511.89 1706.99 L 1500.00 1705.73 L 1488.11 1706.99 L 1478.04 1710.65 L 1471.25 1716.13 L 1468.82 1722.65 L 1471.10 1729.20 L 1477.84 1734.75 L 1487.97 1738.49 L 1500.00 1739.79 L 1512.03 1738.49 L 1522.16 1734.75 L 1528.90 1729.20 L 1531.18 1722.65" stroke="black" stroke-width="4" fill="none" stroke-linecap="round" stroke-linejoin="round"/>
  <path d="M 1489.20 1738.62 L 1500.00 1737.45 L 1510.80 1738.62" stroke="black" stroke-width="4" fill="none" stroke-linecap="round" stroke-linejoin="round"/>
  <path d="M 1541.43 1754.50 L 1538.38 1763.30 L 1529.46 1770.79 L 1515.99 1775.82 L 1500.00 1777.61 L 1484.01 1775.82 L 1470.54 1770.79 L 1461.62 1763.30 L 1458.57 1754.50" stroke="black" stroke-width="4" fill="none" stroke-linecap="round" stroke-linejoin="round"/>
  <path d="M 1538.56 1731.38 L 1541.62 1722.65 L 1538.30 1713.97 L 1529.23 1706.68 L 1515.81 1701.82 L 1500.00 1700.11 L 1484.19 1701.82 L 1470.77 1706.68 L 1461.70 1713.97 L 1458.38 1722.65 L 1461.44 1731.38 L 1470.41 1738.81 L 1483.94 1743.81 L 1500.00 1745.58 L 1516.06 1743.81 L 1529.59 1738.81 L 1538.56 1731.38" stroke="black" stroke-width="4" fill="none" stroke-linecap="round" stroke-linejoin="round"/>
  <path d="M 1629.83 1784.14 L 1631.90 1777.32 L 1629.17 1770.53 L 1622.03 1764.82 L 1611.61 1761.01 L 1599.42 1759.69 L 1587.34 1761.01 L 1577.20 1764.82 L 1570.48 1770.53 L 1568.25 1777.32 L 1570.84 1784.14 L 1577.93 1789.93 L 1588.41 1793.83 L 1600.75 1795.18 L 1612.98 1793.83 L 1623.17 1789.93 L 1629.83 1784.14" stroke="black" stroke-width="4" fill="none" stroke-linecap="round" stroke-linejoin="round"/>
  <path d="M 1586.76 1793.21 L 1586.93 1793.15 L 1598.96 1791.82 L 1611.09 1793.15 L 1612.93 1793.83" stroke="black" stroke-width="4" fill="none" stroke-linecap="round" stroke-linejoin="round"/>
  <path d="M 1641.90 1809.58 L 1639.13 1818.74 L 1630.31 1826.55 L 1616.75 1831.80 L 1600.50 1833.65 L 1584.11 1831.80 L 1570.17 1826.55 L 1560.77 1818.74 L 1557.33 1809.58" stroke="black" stroke-width="4" fill="none" stroke-linecap="round" stroke-linejoin="round"/>
  <path d="M 1639.78 1786.42 L 1642.56 1777.32 L 1638.84 1768.28 L 1629.30 1760.68 L 1615.40 1755.62 L 1599.20 1753.83 L 1583.14 1755.62 L 1569.62 1760.68 L 1560.64 1768.28 L 1557.60 1777.32 L 1561.05 1786.42 L 1570.50 1794.17 L 1584.50 1799.37 L 1600.97 1801.22 L 1617.30 1799.37 L 1630.92 1794.17 L 1639.78 1786.42" stroke="black" stroke-width="4" fill="none" stroke-linecap="round" stroke-linejoin="round"/>
  <path d="M 1429.16 1784.14 L 1431.75 1777.32 L 1429.52 1770.53 L 1422.80 1764.82 L 1412.66 1761.01 L 1400.58 1759.69 L 1388.39 1761.01 L 1377.97 1764.82 L 1370.83 1770.53 L 1368.10 1777.32 L 1370.17 1784.14 L 1376.83 1789.93 L 1387.02 1793.83 L 1399.25 1795.18 L 1411.59 1793.83 L 1422.07 1789.93 L 1429.16 1784.14" stroke="black" stroke-width="4" fill="none" stroke-linecap="round" stroke-linejoin="round"/>
  <path d="M 1387.07 1793.83 L 1388.91 1793.15 L 1401.04 1791.82 L 1413.07 1793.15 L 1413.24 1793.21" stroke="black" stroke-width="4" fill="none" stroke-linecap="round" stroke-linejoin="round"/>
  <path d="M 1442.67 1809.58 L 1439.23 1818.74 L 1429.83 1826.55 L 1415.89 1831.80 L 1399.50 1833.65 L 1383.25 1831.80 L 1369.69 1826.55 L 1360.87 1818.74 L 1358.10 1809.58" stroke="black" stroke-width="4" fill="none" stroke-linecap="round" stroke-linejoin="round"/>
  <path d="M 1439.36 1768.28 L 1430.38 1760.68 L 1416.86 1755.62 L 1400.80 1753.83 L 1384.60 1755.62 L 1370.70 1760.68 L 1361.16 1768.28 L 1357.44 1777.32 L 1360.22 1786.42 L 1369.08 1794.17 L 1382.70 1799.37 L 1399.03 1801.22 L 1415.49 1799.37 L 1429.50 1794.17 L 1438.95 1786.42 L 1442.40 1777.32" stroke="black" stroke-width="4" fill="none" stroke-linecap="round" stroke-linejoin="round"/>
  <path d="M 1530.13 1841.43 L 1532.50 1834.31 L 1529.97 1827.23 L 1522.89 1821.28 L 1512.39 1817.31 L 1500.00 1815.93 L 1487.61 1817.31 L 1477.11 1821.28 L 1470.03 1827.23 L 1467.50 1834.31 L 1469.87 1841.43 L 1476.89 1847.47 L 1487.45 1851.53 L 1500.00 1852.95 L 1512.55 1851.53 L 1523.11 1847.47 L 1530.13 1841.43" stroke="black" stroke-width="4" fill="none" stroke-linecap="round" stroke-linejoin="round"/>
  <path d="M 1485.38 1850.73 L 1487.67 1849.86 L 1500.00 1848.47 L 1512.33 1849.86 L 1514.62 1850.73" stroke="black" stroke-width="4" fill="none" stroke-linecap="round" stroke-linejoin="round"/>
  <path d="M 1543.18 1866.98 L 1540.01 1876.54 L 1530.71 1884.68 L 1516.67 1890.15 L 1500.00 1892.09 L 1483.33 1890.15 L 1469.29 1884.68 L 1459.99 1876.54 L 1456.82 1866.98" stroke="black" stroke-width="4" fill="none" stroke-linecap="round" stroke-linejoin="round"/>
  <path d="M 1540.20 1843.80 L 1543.39 1834.31 L 1539.93 1824.89 L 1530.47 1816.96 L 1516.47 1811.68 L 1500.00 1809.82 L 1483.53 1811.68 L 1469.53 1816.96 L 1460.07 1824.89 L 1456.61 1834.31 L 1459.80 1843.80 L 1469.14 1851.88 L 1483.25 1857.32 L 1500.00 1859.24 L 1516.75 1857.32 L 1530.86 1851.88 L 1540.20 1843.80" stroke="black" stroke-width="4" fill="none" stroke-linecap="round" stroke-linejoin="round"/>
  <path d="M 1283.18 1199.60 L 1500.00 1298.95 L 1716.82 1199.60 L 1500.00 1298.95 L 1716.82 1199.60 L 1721.72 1029.89 L 1500.00 1123.39 L 1278.28 1029.89 L 1500.00 1123.39 L 1500.00 1298.95 L 1283.18 1199.60" stroke="black" stroke-width="4" fill="none" stroke-linecap="round" stroke-linejoin="round"/>
  <path d="M 1278.28 1029.89 L 1500.00 1123.39 L 1721.72 1029.89 L 1500.00 1123.39 L 1721.72 1029.89 L 1726.84 852.34 L 1500.00 939.32 L 1273.16 852.34 L 1500.00 939.32 L 1500.00 1123.39 L 1278.28 1029.89" stroke="black" stroke-width="4" fill="none" stroke-linecap="round" stroke-linejoin="round"/>
</svg>
