<?xml version="1.0" ?>
<svg xmlns="http://www.w3.org/2000/svg" version="1.1" width="495.84px" height="3000px" viewBox="1252.08 0 495.84 3000">
  <polygon points="1500.00,1898.55 1307.77,2010.59 1500.00,2131.96 1692.23,2010.59" fill="#f4f4f4" stroke="#f4f4f4" stroke-width="0.5" stroke-linecap="round" stroke-linejoin="round"/>
  <polygon points="1692.23,2010.59 1500.00,2131.96 1500.00,2263.53 1688.54,2139.34" fill="#f4f4f4" stroke="#f4f4f4" stroke-width="0.5" stroke-linecap="round" stroke-linejoin="round"/>
  <polygon points="1500.00,2263.53 1500.00,2131.96 1307.77,2010.59 1311.46,2139.34" fill="#f4f4f4" stroke="#f4f4f4" stroke-width="0.5" stroke-linecap="round" stroke-linejoin="round"/>
  <polygon points="1500.00,1767.76 1303.93,1876.71 1500.00,1994.91 1696.07,1876.71" fill="#f4f4f4" stroke="#f4f4f4" stroke-width="0.5" stroke-linecap="round" stroke-linejoin="round"/>
  <polygon points="1500.00,2131.96 1500.00,1994.91 1303.93,1876.71 1307.77,2010.59" fill="#f4f4f4" stroke="#f4f4f4" stroke-width="0.5" stroke-linecap="round" stroke-linejoin="round"/>
  <polygon points="1696.07,1876.71 1500.00,1994.91 1500.00,2131.96 1692.23,2010.59" fill="#f4f4f4" stroke="#f4f4f4" stroke-width="0.5" stroke-linecap="round" stroke-linejoin="round"/>
  <polygon points="1500.00,1631.85 1299.94,1737.37 1500.00,1852.03 1700.06,1737.37" fill="#f4f4f4" stroke="#f4f4f4" stroke-width="0.5" stroke-linecap="round" stroke-linejoin="round"/>
  <polygon points="1500.00,1994.91 1500.00,1852.03 1299.94,1737.37 1303.93,1876.71" fill="#f4f4f4" stroke="#f4f4f4" stroke-width="0.5" stroke-linecap="round" stroke-linejoin="round"/>
  <polygon points="1700.06,1737.37 1500.00,1852.03 1500.00,1994.91 1696.07,1876.71" fill="#f4f4f4" stroke="#f4f4f4" stroke-width="0.5" stroke-linecap="round" stroke-linejoin="round"/>
  <polygon points="1500.00,1490.52 1295.78,1592.23 1500.00,1702.96 1704.22,1592.23" fill="#f4f4f4" stroke="#f4f4f4" stroke-width="0.5" stroke-linecap="round" stroke-linejoin="round"/>
  <polygon points="1704.22,1592.23 1500.00,1702.96 1500.00,1852.03 1700.06,1737.37" fill="#f4f4f4" stroke="#f4f4f4" stroke-width="0.5" stroke-linecap="round" stroke-linejoin="round"/>
  <polygon points="1500.00,1852.03 1500.00,1702.96 1295.78,1592.23 1299.94,1737.37" fill="#f4f4f4" stroke="#f4f4f4" stroke-width="0.5" stroke-linecap="round" stroke-linejoin="round"/>
  <polygon points="1500.00,1343.44 1291.44,1440.93 1500.00,1547.26 1708.56,1440.93" fill="#f4f4f4" stroke="#f4f4f4" stroke-width="0.5" stroke-linecap="round" stroke-linejoin="round"/>
  <polygon points="1500.00,1702.96 1500.00,1547.26 1291.44,1440.93 1295.78,1592.23" fill="#f4f4f4" stroke="#f4f4f4" stroke-width="0.5" stroke-linecap="round" stroke-linejoin="round"/>
  <polygon points="1708.56,1440.93 1500.00,1547.26 1500.00,1702.96 1704.22,1592.23" fill="#f4f4f4" stroke="#f4f4f4" stroke-width="0.5" stroke-linecap="round" stroke-linejoin="round"/>
  <polygon points="1500.00,1190.24 1286.92,1283.07 1500.00,1384.49 1713.08,1283.07" fill="#f4f4f4" stroke="#f4f4f4" stroke-width="0.5" stroke-linecap="round" stroke-linejoin="round"/>
  <polygon points="1500.00,1547.26 1500.00,1384.49 1286.92,1283.07 1291.44,1440.93" fill="#f4f4f4" stroke="#f4f4f4" stroke-width="0.5" stroke-linecap="round" stroke-linejoin="round"/>
  <polygon points="1713.08,1283.07 1500.00,1384.49 1500.00,1547.26 1708.56,1440.93" fill="#f4f4f4" stroke="#f4f4f4" stroke-width="0.5" stroke-linecap="round" stroke-linejoin="round"/>
  <polygon points="1500.00,1030.55 1282.19,1118.20 1500.00,1214.16 1717.81,1118.20" fill="#f4f4f4" stroke="#f4f4f4" stroke-width="0.5" stroke-linecap="round" stroke-linejoin="round"/>
  <polygon points="1717.81,1118.20 1500.00,1214.16 1500.00,1384.49 1713.08,1283.07" fill="#f4f4f4" stroke="#f4f4f4" stroke-width="0.5" stroke-linecap="round" stroke-linejoin="round"/>
  <polygon points="1500.00,1384.49 1500.00,1214.16 1282.19,1118.20 1286.92,1283.07" fill="#f4f4f4" stroke="#f4f4f4" stroke-width="0.5" stroke-linecap="round" stroke-linejoin="round"/>
  <polygon points="1500.00,714.92 1500.00,673.44 1486.44,674.31 1486.51,715.81" fill="#f4f4f4" stroke="#f4f4f4" stroke-width="0.5" stroke-linecap="round" stroke-linejoin="round"/>
  <polygon points="1513.49,715.81 1513.56,674.31 1500.00,673.44 1500.00,714.92" fill="#f4f4f4" stroke="#f4f4f4" stroke-width="0.5" stroke-linecap="round" stroke-linejoin="round"/>
  <polygon points="1524.92,718.39 1525.05,676.83 1513.56,674.31 1513.49,715.81" fill="#f4f4f4" stroke="#f4f4f4" stroke-width="0.5" stroke-linecap="round" stroke-linejoin="round"/>
  <polygon points="1486.51,715.81 1486.44,674.31 1474.95,676.83 1475.08,718.39" fill="#f4f4f4" stroke="#f4f4f4" stroke-width="0.5" stroke-linecap="round" stroke-linejoin="round"/>
  <polygon points="1532.64,722.25 1532.81,680.61 1525.05,676.83 1524.92,718.39" fill="#f4f4f4" stroke="#f4f4f4" stroke-width="0.5" stroke-linecap="round" stroke-linejoin="round"/>
  <polygon points="1475.08,718.39 1474.95,676.83 1467.19,680.61 1467.36,722.25" fill="#f4f4f4" stroke="#f4f4f4" stroke-width="0.5" stroke-linecap="round" stroke-linejoin="round"/>
  <polygon points="1500.00,863.93 1277.25,945.85 1500.00,1035.73 1722.75,945.85" fill="#f4f4f4" stroke="#f4f4f4" stroke-width="0.5" stroke-linecap="round" stroke-linejoin="round"/>
  <polygon points="1467.36,722.25 1467.19,680.61 1464.41,685.11 1464.60,726.84" fill="#f4f4f4" stroke="#f4f4f4" stroke-width="0.5" stroke-linecap="round" stroke-linejoin="round"/>
  <polygon points="1535.40,726.84 1535.59,685.11 1532.81,680.61 1532.64,722.25" fill="#f4f4f4" stroke="#f4f4f4" stroke-width="0.5" stroke-linecap="round" stroke-linejoin="round"/>
  <polygon points="1547.50,685.11 1544.03,691.15 1543.80,733.00 1547.26,726.84" fill="#f4f4f4" stroke="#f4f4f4" stroke-width="0.5" stroke-linecap="round" stroke-linejoin="round"/>
  <polygon points="1455.97,691.15 1452.50,685.11 1452.74,726.84 1456.20,733.00" fill="#f4f4f4" stroke="#f4f4f4" stroke-width="0.5" stroke-linecap="round" stroke-linejoin="round"/>
  <polygon points="1525.05,676.83 1532.81,680.61 1543.70,679.12 1533.34,674.09 1518.02,670.74 1500.00,669.56 1481.98,670.74 1466.66,674.09 1456.30,679.12 1452.50,685.11 1455.97,691.15 1466.19,696.29 1481.65,699.75 1500.00,700.98 1518.35,699.75 1533.81,696.29 1544.03,691.15 1525.31,693.48 1513.75,696.07 1500.00,696.97 1486.25,696.07 1474.69,693.48 1467.01,689.64 1464.41,685.11 1467.19,680.61 1474.95,676.83 1486.44,674.31 1500.00,673.44 1513.56,674.31" fill="#f4f4f4" stroke="#f4f4f4" stroke-width="0.5" stroke-linecap="round" stroke-linejoin="round"/>
  <polygon points="1544.03,691.15 1547.50,685.11 1543.70,679.12 1532.81,680.61 1535.59,685.11 1532.99,689.64 1525.31,693.48" fill="#f4f4f4" stroke="#f4f4f4" stroke-width="0.5" stroke-linecap="round" stroke-linejoin="round"/>
  <polygon points="1544.03,691.15 1533.81,696.29 1533.63,738.25 1543.80,733.00" fill="#f4f4f4" stroke="#f4f4f4" stroke-width="0.5" stroke-linecap="round" stroke-linejoin="round"/>
  <polygon points="1466.19,696.29 1455.97,691.15 1456.20,733.00 1466.37,738.25" fill="#f4f4f4" stroke="#f4f4f4" stroke-width="0.5" stroke-linecap="round" stroke-linejoin="round"/>
  <polygon points="1533.81,696.29 1518.35,699.75 1518.26,741.78 1533.63,738.25" fill="#f4f4f4" stroke="#f4f4f4" stroke-width="0.5" stroke-linecap="round" stroke-linejoin="round"/>
  <polygon points="1481.65,699.75 1466.19,696.29 1466.37,738.25 1481.74,741.78" fill="#f4f4f4" stroke="#f4f4f4" stroke-width="0.5" stroke-linecap="round" stroke-linejoin="round"/>
  <polygon points="1500.00,700.98 1481.65,699.75 1481.74,741.78 1500.00,743.04" fill="#f4f4f4" stroke="#f4f4f4" stroke-width="0.5" stroke-linecap="round" stroke-linejoin="round"/>
  <polygon points="1518.35,699.75 1500.00,700.98 1500.00,743.04 1518.26,741.78" fill="#f4f4f4" stroke="#f4f4f4" stroke-width="0.5" stroke-linecap="round" stroke-linejoin="round"/>
  <polygon points="1722.75,945.85 1500.00,1035.73 1500.00,1214.16 1717.81,1118.20" fill="#f4f4f4" stroke="#f4f4f4" stroke-width="0.5" stroke-linecap="round" stroke-linejoin="round"/>
  <polygon points="1500.00,1214.16 1500.00,1035.73 1277.25,945.85 1282.19,1118.20" fill="#f4f4f4" stroke="#f4f4f4" stroke-width="0.5" stroke-linecap="round" stroke-linejoin="round"/>
  <polygon points="1626.98,753.95 1627.65,711.67 1613.71,710.75 1613.11,753.02" fill="#f4f4f4" stroke="#f4f4f4" stroke-width="0.5" stroke-linecap="round" stroke-linejoin="round"/>
  <polygon points="1613.11,753.02 1613.71,710.75 1599.89,711.67 1599.36,753.95" fill="#f4f4f4" stroke="#f4f4f4" stroke-width="0.5" stroke-linecap="round" stroke-linejoin="round"/>
  <polygon points="1386.89,753.02 1386.29,710.75 1372.35,711.67 1373.02,753.95" fill="#f4f4f4" stroke="#f4f4f4" stroke-width="0.5" stroke-linecap="round" stroke-linejoin="round"/>
  <polygon points="1400.64,753.95 1400.11,711.67 1386.29,710.75 1386.89,753.02" fill="#f4f4f4" stroke="#f4f4f4" stroke-width="0.5" stroke-linecap="round" stroke-linejoin="round"/>
  <polygon points="1638.86,756.65 1639.60,714.31 1627.65,711.67 1626.98,753.95" fill="#f4f4f4" stroke="#f4f4f4" stroke-width="0.5" stroke-linecap="round" stroke-linejoin="round"/>
  <polygon points="1373.02,753.95 1372.35,711.67 1360.40,714.31 1361.14,756.65" fill="#f4f4f4" stroke="#f4f4f4" stroke-width="0.5" stroke-linecap="round" stroke-linejoin="round"/>
  <polygon points="1599.36,753.95 1599.89,711.67 1588.32,714.31 1587.85,756.65" fill="#f4f4f4" stroke="#f4f4f4" stroke-width="0.5" stroke-linecap="round" stroke-linejoin="round"/>
  <polygon points="1412.15,756.65 1411.68,714.31 1400.11,711.67 1400.64,753.95" fill="#f4f4f4" stroke="#f4f4f4" stroke-width="0.5" stroke-linecap="round" stroke-linejoin="round"/>
  <polygon points="1361.14,756.65 1360.40,714.31 1352.18,718.28 1352.96,760.69" fill="#f4f4f4" stroke="#f4f4f4" stroke-width="0.5" stroke-linecap="round" stroke-linejoin="round"/>
  <polygon points="1647.04,760.69 1647.82,718.28 1639.60,714.31 1638.86,756.65" fill="#f4f4f4" stroke="#f4f4f4" stroke-width="0.5" stroke-linecap="round" stroke-linejoin="round"/>
  <polygon points="1419.78,760.69 1419.35,718.28 1411.68,714.31 1412.15,756.65" fill="#f4f4f4" stroke="#f4f4f4" stroke-width="0.5" stroke-linecap="round" stroke-linejoin="round"/>
  <polygon points="1587.85,756.65 1588.32,714.31 1580.65,718.28 1580.22,760.69" fill="#f4f4f4" stroke="#f4f4f4" stroke-width="0.5" stroke-linecap="round" stroke-linejoin="round"/>
  <polygon points="1500.00,689.92 1272.08,765.51 1500.00,848.61 1727.92,765.51" fill="#f4f4f4" stroke="#f4f4f4" stroke-width="0.5" stroke-linecap="round" stroke-linejoin="round"/>
  <polygon points="1580.22,760.69 1580.65,718.28 1578.14,722.99 1577.72,765.51" fill="#f4f4f4" stroke="#f4f4f4" stroke-width="0.5" stroke-linecap="round" stroke-linejoin="round"/>
  <polygon points="1352.96,760.69 1352.18,718.28 1349.00,722.99 1349.80,765.51" fill="#f4f4f4" stroke="#f4f4f4" stroke-width="0.5" stroke-linecap="round" stroke-linejoin="round"/>
  <polygon points="1422.28,765.51 1421.86,722.99 1419.35,718.28 1419.78,760.69" fill="#f4f4f4" stroke="#f4f4f4" stroke-width="0.5" stroke-linecap="round" stroke-linejoin="round"/>
  <polygon points="1650.20,765.51 1651.00,722.99 1647.82,718.28 1647.04,760.69" fill="#f4f4f4" stroke="#f4f4f4" stroke-width="0.5" stroke-linecap="round" stroke-linejoin="round"/>
  <polygon points="1639.60,714.31 1647.82,718.28 1651.00,722.99 1648.68,727.74 1641.10,731.77 1660.10,729.32 1663.20,722.99 1658.86,716.72 1647.88,711.44 1631.95,707.93 1613.42,706.70 1595.06,707.93 1613.71,710.75 1627.65,711.67" fill="#f4f4f4" stroke="#f4f4f4" stroke-width="0.5" stroke-linecap="round" stroke-linejoin="round"/>
  <polygon points="1434.07,722.99 1430.07,729.32 1430.45,771.97 1434.42,765.51" fill="#f4f4f4" stroke="#f4f4f4" stroke-width="0.5" stroke-linecap="round" stroke-linejoin="round"/>
  <polygon points="1663.20,722.99 1660.10,729.32 1659.24,771.97 1662.33,765.51" fill="#f4f4f4" stroke="#f4f4f4" stroke-width="0.5" stroke-linecap="round" stroke-linejoin="round"/>
  <polygon points="1569.93,729.32 1565.93,722.99 1565.58,765.51 1569.55,771.97" fill="#f4f4f4" stroke="#f4f4f4" stroke-width="0.5" stroke-linecap="round" stroke-linejoin="round"/>
  <polygon points="1339.90,729.32 1336.80,722.99 1337.67,765.51 1340.76,771.97" fill="#f4f4f4" stroke="#f4f4f4" stroke-width="0.5" stroke-linecap="round" stroke-linejoin="round"/>
  <polygon points="1411.68,714.31 1419.35,718.28 1421.86,722.99 1418.88,727.74 1410.73,731.77 1430.07,729.32 1434.07,722.99 1430.61,716.72 1420.37,711.44 1404.94,707.93 1386.58,706.70 1368.05,707.93 1352.12,711.44 1341.14,716.72 1336.80,722.99 1339.90,729.32 1349.99,734.71 1365.56,738.34 1384.26,739.63 1403.14,738.34 1384.56,735.42 1370.55,734.48 1358.90,731.77 1351.32,727.74 1349.00,722.99 1352.18,718.28 1360.40,714.31 1372.35,711.67 1386.29,710.75 1400.11,711.67" fill="#f4f4f4" stroke="#f4f4f4" stroke-width="0.5" stroke-linecap="round" stroke-linejoin="round"/>
  <polygon points="1569.93,729.32 1580.77,734.71 1596.85,738.34 1615.74,739.63 1634.44,738.34 1650.01,734.71 1660.10,729.32 1641.10,731.77 1629.45,734.48 1615.44,735.42 1601.30,734.48 1589.27,731.77 1581.12,727.74 1578.14,722.99 1580.65,718.28 1588.32,714.31 1599.89,711.67 1613.71,710.75 1595.06,707.93 1579.63,711.44 1569.39,716.72 1565.93,722.99" fill="#f4f4f4" stroke="#f4f4f4" stroke-width="0.5" stroke-linecap="round" stroke-linejoin="round"/>
  <polygon points="1660.10,729.32 1650.01,734.71 1649.21,777.47 1659.24,771.97" fill="#f4f4f4" stroke="#f4f4f4" stroke-width="0.5" stroke-linecap="round" stroke-linejoin="round"/>
  <polygon points="1349.99,734.71 1339.90,729.32 1340.76,771.97 1350.79,777.47" fill="#f4f4f4" stroke="#f4f4f4" stroke-width="0.5" stroke-linecap="round" stroke-linejoin="round"/>
  <polygon points="1430.07,729.32 1419.22,734.71 1419.66,777.47 1430.45,771.97" fill="#f4f4f4" stroke="#f4f4f4" stroke-width="0.5" stroke-linecap="round" stroke-linejoin="round"/>
  <polygon points="1580.77,734.71 1569.93,729.32 1569.55,771.97 1580.34,777.47" fill="#f4f4f4" stroke="#f4f4f4" stroke-width="0.5" stroke-linecap="round" stroke-linejoin="round"/>
  <polygon points="1365.56,738.34 1349.99,734.71 1350.79,777.47 1366.28,781.17" fill="#f4f4f4" stroke="#f4f4f4" stroke-width="0.5" stroke-linecap="round" stroke-linejoin="round"/>
  <polygon points="1596.85,738.34 1580.77,734.71 1580.34,777.47 1596.34,781.17" fill="#f4f4f4" stroke="#f4f4f4" stroke-width="0.5" stroke-linecap="round" stroke-linejoin="round"/>
  <polygon points="1419.22,734.71 1403.14,738.34 1403.66,781.17 1419.66,777.47" fill="#f4f4f4" stroke="#f4f4f4" stroke-width="0.5" stroke-linecap="round" stroke-linejoin="round"/>
  <polygon points="1650.01,734.71 1634.44,738.34 1633.72,781.17 1649.21,777.47" fill="#f4f4f4" stroke="#f4f4f4" stroke-width="0.5" stroke-linecap="round" stroke-linejoin="round"/>
  <polygon points="1403.14,738.34 1419.22,734.71 1430.07,729.32 1410.73,731.77 1398.70,734.48 1384.56,735.42" fill="#f4f4f4" stroke="#f4f4f4" stroke-width="0.5" stroke-linecap="round" stroke-linejoin="round"/>
  <polygon points="1727.92,765.51 1500.00,848.61 1500.00,1035.73 1722.75,945.85" fill="#f4f4f4" stroke="#f4f4f4" stroke-width="0.5" stroke-linecap="round" stroke-linejoin="round"/>
  <polygon points="1500.00,1035.73 1500.00,848.61 1272.08,765.51 1277.25,945.85" fill="#f4f4f4" stroke="#f4f4f4" stroke-width="0.5" stroke-linecap="round" stroke-linejoin="round"/>
  <polygon points="1634.44,738.34 1615.74,739.63 1615.12,782.48 1633.72,781.17" fill="#f4f4f4" stroke="#f4f4f4" stroke-width="0.5" stroke-linecap="round" stroke-linejoin="round"/>
  <polygon points="1615.74,739.63 1596.85,738.34 1596.34,781.17 1615.12,782.48" fill="#f4f4f4" stroke="#f4f4f4" stroke-width="0.5" stroke-linecap="round" stroke-linejoin="round"/>
  <polygon points="1384.26,739.63 1365.56,738.34 1366.28,781.17 1384.88,782.48" fill="#f4f4f4" stroke="#f4f4f4" stroke-width="0.5" stroke-linecap="round" stroke-linejoin="round"/>
  <polygon points="1403.14,738.34 1384.26,739.63 1384.88,782.48 1403.66,781.17" fill="#f4f4f4" stroke="#f4f4f4" stroke-width="0.5" stroke-linecap="round" stroke-linejoin="round"/>
  <polygon points="1514.14,793.93 1514.22,750.84 1500.00,749.88 1500.00,792.95" fill="#f4f4f4" stroke="#f4f4f4" stroke-width="0.5" stroke-linecap="round" stroke-linejoin="round"/>
  <polygon points="1500.00,792.95 1500.00,749.88 1485.78,750.84 1485.86,793.93" fill="#f4f4f4" stroke="#f4f4f4" stroke-width="0.5" stroke-linecap="round" stroke-linejoin="round"/>
  <polygon points="1526.12,796.76 1526.26,753.62 1514.22,750.84 1514.14,793.93" fill="#f4f4f4" stroke="#f4f4f4" stroke-width="0.5" stroke-linecap="round" stroke-linejoin="round"/>
  <polygon points="1485.86,793.93 1485.78,750.84 1473.74,753.62 1473.88,796.76" fill="#f4f4f4" stroke="#f4f4f4" stroke-width="0.5" stroke-linecap="round" stroke-linejoin="round"/>
  <polygon points="1473.88,796.76 1473.74,753.62 1465.60,757.77 1465.78,801.00" fill="#f4f4f4" stroke="#f4f4f4" stroke-width="0.5" stroke-linecap="round" stroke-linejoin="round"/>
  <polygon points="1534.22,801.00 1534.40,757.77 1526.26,753.62 1526.12,796.76" fill="#f4f4f4" stroke="#f4f4f4" stroke-width="0.5" stroke-linecap="round" stroke-linejoin="round"/>
  <polygon points="1537.12,806.05 1537.32,762.72 1534.40,757.77 1534.22,801.00" fill="#f4f4f4" stroke="#f4f4f4" stroke-width="0.5" stroke-linecap="round" stroke-linejoin="round"/>
  <polygon points="1465.78,801.00 1465.60,757.77 1462.68,762.72 1462.88,806.05" fill="#f4f4f4" stroke="#f4f4f4" stroke-width="0.5" stroke-linecap="round" stroke-linejoin="round"/>
  <polygon points="1549.82,762.72 1546.19,769.36 1545.94,812.83 1549.55,806.05" fill="#f4f4f4" stroke="#f4f4f4" stroke-width="0.5" stroke-linecap="round" stroke-linejoin="round"/>
  <polygon points="1453.81,769.36 1450.18,762.72 1450.45,806.05 1454.06,812.83" fill="#f4f4f4" stroke="#f4f4f4" stroke-width="0.5" stroke-linecap="round" stroke-linejoin="round"/>
  <polygon points="1454.18,756.13 1450.18,762.72 1453.81,769.36 1464.53,775.02 1465.39,767.70 1462.68,762.72 1465.60,757.77 1473.74,753.62 1485.78,750.84 1500.00,749.88 1514.22,750.84 1526.26,753.62 1534.40,757.77 1537.32,762.72 1534.61,767.70 1526.55,771.93 1514.42,774.77 1500.00,775.76 1485.58,774.77 1473.45,771.93 1480.74,778.83 1500.00,780.18 1519.26,778.83 1535.47,775.02 1546.19,769.36 1549.82,762.72 1545.82,756.13 1534.95,750.60 1518.89,746.92 1500.00,745.62 1481.11,746.92 1465.05,750.60" fill="#f4f4f4" stroke="#f4f4f4" stroke-width="0.5" stroke-linecap="round" stroke-linejoin="round"/>
  <polygon points="1464.53,775.02 1453.81,769.36 1454.06,812.83 1464.73,818.60" fill="#f4f4f4" stroke="#f4f4f4" stroke-width="0.5" stroke-linecap="round" stroke-linejoin="round"/>
  <polygon points="1546.19,769.36 1535.47,775.02 1535.27,818.60 1545.94,812.83" fill="#f4f4f4" stroke="#f4f4f4" stroke-width="0.5" stroke-linecap="round" stroke-linejoin="round"/>
  <polygon points="1480.74,778.83 1464.53,775.02 1464.73,818.60 1480.85,822.49" fill="#f4f4f4" stroke="#f4f4f4" stroke-width="0.5" stroke-linecap="round" stroke-linejoin="round"/>
  <polygon points="1535.47,775.02 1519.26,778.83 1519.15,822.49 1535.27,818.60" fill="#f4f4f4" stroke="#f4f4f4" stroke-width="0.5" stroke-linecap="round" stroke-linejoin="round"/>
  <polygon points="1464.53,775.02 1480.74,778.83 1473.45,771.93 1465.39,767.70" fill="#f4f4f4" stroke="#f4f4f4" stroke-width="0.5" stroke-linecap="round" stroke-linejoin="round"/>
  <polygon points="1500.00,780.18 1480.74,778.83 1480.85,822.49 1500.00,823.86" fill="#f4f4f4" stroke="#f4f4f4" stroke-width="0.5" stroke-linecap="round" stroke-linejoin="round"/>
  <polygon points="1519.26,778.83 1500.00,780.18 1500.00,823.86 1519.15,822.49" fill="#f4f4f4" stroke="#f4f4f4" stroke-width="0.5" stroke-linecap="round" stroke-linejoin="round"/>
  <path d="M 1311.46 2139.34 L 1500.00 2263.53 L 1688.54 2139.34 L 1692.23 2010.59 L 1500.00 2131.96 L 1500.00 2263.53 L 1688.54 2139.34 L 1692.23 2010.59 L 1500.00 2131.96 L 1307.77 2010.59 L 1311.46 2139.34 L 1500.00 2263.53 L 1500.00 2131.96 L 1307.77 2010.59 L 1311.46 2139.34" stroke="black" stroke-width="4" fill="none" stroke-linecap="round" stroke-linejoin="round"/>
  <path d="M 1307.77 2010.59 L 1500.00 2131.96 L 1692.23 2010.59 L 1696.07 1876.71 L 1500.00 1994.91 L 1500.00 2131.96 L 1692.23 2010.59 L 1696.07 1876.71 L 1500.00 1994.91 L 1303.93 1876.71 L 1307.77 2010.59 L 1500.00 2131.96 L 1500.00 1994.91 L 1303.93 1876.71 L 1307.77 2010.59" stroke="black" stroke-width="4" fill="none" stroke-linecap="round" stroke-linejoin="round"/>
  <path d="M 1303.93 1876.71 L 1500.00 1994.91 L 1696.07 1876.71 L 1700.06 1737.37 L 1500.00 1852.03 L 1500.00 1994.91 L 1696.07 1876.71 L 1700.06 1737.37 L 1500.00 1852.03 L 1299.94 1737.37 L 1303.93 1876.71 L 1500.00 1994.91 L 1500.00 1852.03 L 1299.94 1737.37 L 1303.93 1876.71" stroke="black" stroke-width="4" fill="none" stroke-linecap="round" stroke-linejoin="round"/>
  <path d="M 1299.94 1737.37 L 1500.00 1852.03 L 1700.06 1737.37 L 1704.22 1592.23 L 1500.00 1702.96 L 1500.00 1852.03 L 1700.06 1737.37 L 1704.22 1592.23 L 1500.00 1702.96 L 1295.78 1592.23 L 1299.94 1737.37 L 1500.00 1852.03 L 1500.00 1702.96 L 1295.78 1592.23 L 1299.94 1737.37" stroke="black" stroke-width="4" fill="none" stroke-linecap="round" stroke-linejoin="round"/>
  <path d="M 1295.78 1592.23 L 1500.00 1702.96 L 1704.22 1592.23 L 1708.56 1440.93 L 1500.00 1547.26 L 1500.00 1702.96 L 1704.22 1592.23 L 1708.56 1440.93 L 1500.00 1547.26 L 1291.44 1440.93 L 1295.78 1592.23 L 1500.00 1702.96 L 1500.00 1547.26 L 1291.44 1440.93 L 1295.78 1592.23" stroke="black" stroke-width="4" fill="none" stroke-linecap="round" stroke-linejoin="round"/>
  <path d="M 1291.44 1440.93 L 1500.00 1547.26 L 1708.56 1440.93 L 1713.08 1283.07 L 1500.00 1384.49 L 1500.00 1547.26 L 1708.56 1440.93 L 1713.08 1283.07 L 1500.00 1384.49 L 1286.92 1283.07 L 1291.44 1440.93 L 1500.00 1547.26 L 1500.00 1384.49 L 1286.92 1283.07 L 1291.44 1440.93" stroke="black" stroke-width="4" fill="none" stroke-linecap="round" stroke-linejoin="round"/>
  <path d="M 1286.92 1283.07 L 1500.00 1384.49 L 1713.08 1283.07 L 1717.81 1118.20 L 1500.00 1214.16 L 1500.00 1384.49 L 1713.08 1283.07 L 1717.81 1118.20 L 1500.00 1214.16 L 1282.19 1118.20 L 1286.92 1283.07 L 1500.00 1384.49 L 1500.00 1214.16 L 1282.19 1118.20 L 1286.92 1283.07" stroke="black" stroke-width="4" fill="none" stroke-linecap="round" stroke-linejoin="round"/>
  <path d="M 1282.19 1118.20 L 1500.00 1214.16 L 1717.81 1118.20 L 1722.75 945.85 L 1500.00 1035.73 L 1500.00 1214.16 L 1717.81 1118.20 L 1722.75 945.85 L 1500.00 1035.73 L 1277.25 945.85 L 1282.19 1118.20 L 1500.00 1214.16 L 1500.00 1035.73 L 1277.25 945.85 L 1282.19 1118.20" stroke="black" stroke-width="4" fill="none" stroke-linecap="round" stroke-linejoin="round"/>
  <path d="M 1277.25 945.85 L 1500.00 1035.73 L 1722.75 945.85 L 1727.92 765.51 L 1500.00 848.61 L 1500.00 1035.73 L 1722.75 945.85 L 1727.92 765.51 L 1662.78 743.91 L 1727.92 765.51 L 1500.00 848.61 L 1272.08 765.51 L 1337.22 743.91 L 1272.08 765.51 L 1277.25 945.85 L 1500.00 1035.73 L 1500.00 848.61 L 1272.08 765.51 L 1277.25 945.85" stroke="black" stroke-width="4" fill="none" stroke-linecap="round" stroke-linejoin="round"/>
  <path d="M 1573.85 714.42 L 1547.38 705.64 L 1573.85 714.42" stroke="black" stroke-width="4" fill="none" stroke-linecap="round" stroke-linejoin="round"/>
  <path d="M 1452.62 705.64 L 1426.15 714.42 L 1452.62 705.64" stroke="black" stroke-width="4" fill="none" stroke-linecap="round" stroke-linejoin="round"/>
  <path d="M 1474.95 676.83 L 1486.44 674.31 L 1500.00 673.44 L 1513.56 674.31" stroke="black" stroke-width="4" fill="none" stroke-linecap="round" stroke-linejoin="round"/>
  <path d="M 1525.05 676.83 L 1532.81 680.61" stroke="black" stroke-width="4" fill="none" stroke-linecap="round" stroke-linejoin="round"/>
  <path d="M 1500.00 669.56 L 1518.02 670.74 L 1533.34 674.09" stroke="black" stroke-width="4" fill="none" stroke-linecap="round" stroke-linejoin="round"/>
  <path d="M 1466.66 674.09 L 1456.30 679.12 L 1452.50 685.11 L 1455.97 691.15 L 1466.19 696.29" stroke="black" stroke-width="4" fill="none" stroke-linecap="round" stroke-linejoin="round"/>
  <path d="M 1467.19 680.61 L 1464.41 685.11" stroke="black" stroke-width="4" fill="none" stroke-linecap="round" stroke-linejoin="round"/>
  <path d="M 1474.69 693.48 L 1486.25 696.07 L 1500.00 696.97" stroke="black" stroke-width="4" fill="none" stroke-linecap="round" stroke-linejoin="round"/>
  <path d="M 1500.00 700.98 L 1518.35 699.75 L 1533.81 696.29" stroke="black" stroke-width="4" fill="none" stroke-linecap="round" stroke-linejoin="round"/>
  <path d="M 1525.31 693.48 L 1532.99 689.64 L 1535.59 685.11" stroke="black" stroke-width="4" fill="none" stroke-linecap="round" stroke-linejoin="round"/>
  <path d="M 1532.99 689.64 L 1535.59 685.11 L 1532.81 680.61 L 1525.05 676.83 L 1513.56 674.31 L 1500.00 673.44 L 1486.44 674.31 L 1474.95 676.83 L 1467.19 680.61 L 1464.41 685.11 L 1467.01 689.64 L 1474.69 693.48 L 1486.25 696.07 L 1500.00 696.97 L 1513.75 696.07 L 1525.31 693.48 L 1532.99 689.64" stroke="black" stroke-width="4" fill="none" stroke-linecap="round" stroke-linejoin="round"/>
  <path d="M 1500.00 738.94 L 1501.79 738.82" stroke="black" stroke-width="4" fill="none" stroke-linecap="round" stroke-linejoin="round"/>
  <path d="M 1452.50 685.11 L 1455.97 691.15 L 1466.19 696.29 L 1481.65 699.75 L 1500.00 700.98 L 1518.35 699.75 L 1533.81 696.29 L 1544.03 691.15 L 1547.50 685.11 L 1543.70 679.12 L 1533.34 674.09 L 1518.02 670.74 L 1500.00 669.56 L 1481.98 670.74 L 1466.66 674.09 L 1456.30 679.12 L 1452.50 685.11 L 1452.74 726.84 L 1456.20 733.00 L 1466.37 738.25 L 1481.74 741.78 L 1500.00 743.04 L 1518.26 741.78 L 1533.63 738.25 L 1543.80 733.00 L 1547.26 726.84 L 1547.50 685.11" stroke="black" stroke-width="4" fill="none" stroke-linecap="round" stroke-linejoin="round"/>
  <path d="M 1588.32 714.31 L 1599.89 711.67 L 1613.71 710.75 L 1627.65 711.67" stroke="black" stroke-width="4" fill="none" stroke-linecap="round" stroke-linejoin="round"/>
  <path d="M 1639.60 714.31 L 1647.82 718.28" stroke="black" stroke-width="4" fill="none" stroke-linecap="round" stroke-linejoin="round"/>
  <path d="M 1613.42 706.70 L 1631.95 707.93 L 1647.88 711.44" stroke="black" stroke-width="4" fill="none" stroke-linecap="round" stroke-linejoin="round"/>
  <path d="M 1579.63 711.44 L 1569.39 716.72 L 1565.93 722.99 L 1569.93 729.32 L 1580.77 734.71" stroke="black" stroke-width="4" fill="none" stroke-linecap="round" stroke-linejoin="round"/>
  <path d="M 1589.27 731.77 L 1601.30 734.48 L 1615.44 735.42 L 1629.45 734.48" stroke="black" stroke-width="4" fill="none" stroke-linecap="round" stroke-linejoin="round"/>
  <path d="M 1615.74 739.63 L 1634.44 738.34 L 1650.01 734.71" stroke="black" stroke-width="4" fill="none" stroke-linecap="round" stroke-linejoin="round"/>
  <path d="M 1641.10 731.77 L 1648.68 727.74 L 1651.00 722.99 L 1647.82 718.28 L 1639.60 714.31 L 1627.65 711.67 L 1613.71 710.75 L 1599.89 711.67 L 1588.32 714.31 L 1580.65 718.28 L 1578.14 722.99 L 1581.12 727.74 L 1589.27 731.77 L 1601.30 734.48 L 1615.44 735.42 L 1629.45 734.48 L 1641.10 731.77 L 1648.68 727.74" stroke="black" stroke-width="4" fill="none" stroke-linecap="round" stroke-linejoin="round"/>
  <path d="M 1565.93 722.99 L 1569.93 729.32 L 1580.77 734.71 L 1596.85 738.34 L 1615.74 739.63 L 1634.44 738.34 L 1650.01 734.71 L 1660.10 729.32 L 1663.20 722.99 L 1658.86 716.72 L 1647.88 711.44 L 1631.95 707.93 L 1613.42 706.70 L 1595.06 707.93 L 1579.63 711.44 L 1569.39 716.72 L 1565.93 722.99 L 1565.58 765.51 L 1569.55 771.97 L 1580.34 777.47 L 1596.34 781.17 L 1615.12 782.48 L 1633.72 781.17 L 1649.21 777.47 L 1659.24 771.97 L 1662.33 765.51 L 1663.20 722.99" stroke="black" stroke-width="4" fill="none" stroke-linecap="round" stroke-linejoin="round"/>
  <path d="M 1411.68 714.31 L 1419.35 718.28 L 1421.86 722.99 L 1418.88 727.74 L 1410.73 731.77" stroke="black" stroke-width="4" fill="none" stroke-linecap="round" stroke-linejoin="round"/>
  <path d="M 1386.58 706.70 L 1404.94 707.93 L 1420.37 711.44" stroke="black" stroke-width="4" fill="none" stroke-linecap="round" stroke-linejoin="round"/>
  <path d="M 1372.35 711.67 L 1360.40 714.31" stroke="black" stroke-width="4" fill="none" stroke-linecap="round" stroke-linejoin="round"/>
  <path d="M 1352.12 711.44 L 1341.14 716.72 L 1336.80 722.99 L 1339.90 729.32 L 1349.99 734.71" stroke="black" stroke-width="4" fill="none" stroke-linecap="round" stroke-linejoin="round"/>
  <path d="M 1352.18 718.28 L 1349.00 722.99 L 1351.32 727.74" stroke="black" stroke-width="4" fill="none" stroke-linecap="round" stroke-linejoin="round"/>
  <path d="M 1358.90 731.77 L 1370.55 734.48" stroke="black" stroke-width="4" fill="none" stroke-linecap="round" stroke-linejoin="round"/>
  <path d="M 1384.26 739.63 L 1403.14 738.34 L 1419.22 734.71" stroke="black" stroke-width="4" fill="none" stroke-linecap="round" stroke-linejoin="round"/>
  <path d="M 1418.88 727.74 L 1421.86 722.99 L 1419.35 718.28 L 1411.68 714.31 L 1400.11 711.67 L 1386.29 710.75 L 1372.35 711.67 L 1360.40 714.31 L 1352.18 718.28 L 1349.00 722.99 L 1351.32 727.74 L 1358.90 731.77 L 1370.55 734.48 L 1384.56 735.42 L 1398.70 734.48 L 1410.73 731.77 L 1418.88 727.74" stroke="black" stroke-width="4" fill="none" stroke-linecap="round" stroke-linejoin="round"/>
  <path d="M 1336.80 722.99 L 1339.90 729.32 L 1349.99 734.71 L 1365.56 738.34 L 1384.26 739.63 L 1403.14 738.34 L 1419.22 734.71 L 1430.07 729.32 L 1434.07 722.99 L 1430.61 716.72 L 1420.37 711.44 L 1404.94 707.93 L 1386.58 706.70 L 1368.05 707.93 L 1352.12 711.44 L 1341.14 716.72 L 1336.80 722.99 L 1337.67 765.51 L 1340.76 771.97 L 1350.79 777.47 L 1366.28 781.17 L 1384.88 782.48 L 1403.66 781.17 L 1419.66 777.47 L 1430.45 771.97 L 1434.42 765.51 L 1434.07 722.99" stroke="black" stroke-width="4" fill="none" stroke-linecap="round" stroke-linejoin="round"/>
  <path d="M 1526.26 753.62 L 1534.40 757.77 L 1537.32 762.72" stroke="black" stroke-width="4" fill="none" stroke-linecap="round" stroke-linejoin="round"/>
  <path d="M 1500.00 745.62 L 1518.89 746.92 L 1534.95 750.60" stroke="black" stroke-width="4" fill="none" stroke-linecap="round" stroke-linejoin="round"/>
  <path d="M 1500.00 749.88 L 1485.78 750.84 L 1473.74 753.62" stroke="black" stroke-width="4" fill="none" stroke-linecap="round" stroke-linejoin="round"/>
  <path d="M 1465.05 750.60 L 1454.18 756.13 L 1450.18 762.72 L 1453.81 769.36 L 1464.53 775.02" stroke="black" stroke-width="4" fill="none" stroke-linecap="round" stroke-linejoin="round"/>
  <path d="M 1462.68 762.72 L 1465.39 767.70" stroke="black" stroke-width="4" fill="none" stroke-linecap="round" stroke-linejoin="round"/>
  <path d="M 1473.45 771.93 L 1485.58 774.77" stroke="black" stroke-width="4" fill="none" stroke-linecap="round" stroke-linejoin="round"/>
  <path d="M 1500.00 775.76 L 1514.42 774.77" stroke="black" stroke-width="4" fill="none" stroke-linecap="round" stroke-linejoin="round"/>
  <path d="M 1500.00 780.18 L 1519.26 778.83 L 1535.47 775.02" stroke="black" stroke-width="4" fill="none" stroke-linecap="round" stroke-linejoin="round"/>
  <path d="M 1526.55 771.93 L 1534.61 767.70 L 1537.32 762.72 L 1534.40 757.77 L 1526.26 753.62 L 1514.22 750.84 L 1500.00 749.88 L 1485.78 750.84 L 1473.74 753.62 L 1465.60 757.77 L 1462.68 762.72 L 1465.39 767.70 L 1473.45 771.93 L 1485.58 774.77 L 1500.00 775.76 L 1514.42 774.77 L 1526.55 771.93 L 1534.61 767.70" stroke="black" stroke-width="4" fill="none" stroke-linecap="round" stroke-linejoin="round"/>
  <path d="M 1500.00 819.36 L 1501.99 819.22" stroke="black" stroke-width="4" fill="none" stroke-linecap="round" stroke-linejoin="round"/>
  <path d="M 1450.18 762.72 L 1453.81 769.36 L 1464.53 775.02 L 1480.74 778.83 L 1500.00 780.18 L 1519.26 778.83 L 1535.47 775.02 L 1546.19 769.36 L 1549.82 762.72 L 1545.82 756.13 L 1534.95 750.60 L 1518.89 746.92 L 1500.00 745.62 L 1481.11 746.92 L 1465.05 750.60 L 1454.18 756.13 L 1450.18 762.72 L 1450.45 806.05 L 1454.06 812.83 L 1464.73 818.60 L 1480.85 822.49 L 1500.00 823.86 L 1519.15 822.49 L 1535.27 818.60 L 1545.94 812.83 L 1549.55 806.05 L 1549.82 762.72" stroke="black" stroke-width="4" fill="none" stroke-linecap="round" stroke-linejoin="round"/>
  <path d="M 1727.92 765.51 L 1662.78 743.91" stroke="black" stroke-width="4" fill="none" stroke-linecap="round" stroke-linejoin="round"/>
  <path d="M 1573.85 714.42 L 1547.38 705.64" stroke="black" stroke-width="4" fill="none" stroke-linecap="round" stroke-linejoin="round"/>
  <path d="M 1452.62 705.64 L 1426.15 714.42" stroke="black" stroke-width="4" fill="none" stroke-linecap="round" stroke-linejoin="round"/>
  <path d="M 1337.22 743.91 L 1272.08 765.51 L 1500.00 848.61 L 1727.92 765.51 L 1722.75 945.85 L 1500.00 1035.73 L 1277.25 945.85 L 1272.08 765.51" stroke="black" stroke-width="4" fill="none" stroke-linecap="round" stroke-linejoin="round"/>
  <path d="M 1500.00 848.61 L 1500.00 1035.73 L 1277.25 945.85 L 1500.00 1035.73 L 1500.00 1214.16 L 1282.19 1118.20 L 1500.00 1214.16 L 1717.81 1118.20 L 1500.00 1214.16 L 1717.81 1118.20 L 1722.75 945.85 L 1500.00 1035.73 L 1722.75 945.85 L 1500.00 1035.73 L 1277.25 945.85 L 1282.19 1118.20 L 1286.92 1283.07 L 1291.44 1440.93 L 1295.78 1592.23 L 1299.94 1737.37 L 1303.93 1876.71 L 1307.77 2010.59 L 1311.46 2139.34 L 1500.00 2263.53 L 1688.54 2139.34 L 1692.23 2010.59 L 1500.00 2131.96 L 1307.77 2010.59 L 1500.00 2131.96 L 1500.00 2263.53" stroke="black" stroke-width="4" fill="none" stroke-linecap="round" stroke-linejoin="round"/>
  <path d="M 1532.99 689.64 L 1535.59 685.11 L 1532.81 680.61 L 1525.05 676.83 L 1513.56 674.31 L 1500.00 673.44 L 1486.44 674.31 L 1474.95 676.83 L 1467.19 680.61 L 1464.41 685.11 L 1467.01 689.64 L 1474.69 693.48 L 1486.25 696.07 L 1500.00 696.97 L 1513.75 696.07 L 1525.31 693.48 L 1532.99 689.64" stroke="black" stroke-width="4" fill="none" stroke-linecap="round" stroke-linejoin="round"/>
  <path d="M 1501.79 738.82 L 1500.00 738.94" stroke="black" stroke-width="4" fill="none" stroke-linecap="round" stroke-linejoin="round"/>
  <path d="M 1547.26 726.84 L 1543.80 733.00 L 1533.63 738.25 L 1518.26 741.78 L 1500.00 743.04 L 1481.74 741.78 L 1466.37 738.25 L 1456.20 733.00 L 1452.74 726.84" stroke="black" stroke-width="4" fill="none" stroke-linecap="round" stroke-linejoin="round"/>
  <path d="M 1544.03 691.15 L 1547.50 685.11 L 1543.70 679.12 L 1533.34 674.09 L 1518.02 670.74 L 1500.00 669.56 L 1481.98 670.74 L 1466.66 674.09 L 1456.30 679.12 L 1452.50 685.11 L 1455.97 691.15 L 1466.19 696.29 L 1481.65 699.75 L 1500.00 700.98 L 1518.35 699.75 L 1533.81 696.29 L 1544.03 691.15" stroke="black" stroke-width="4" fill="none" stroke-linecap="round" stroke-linejoin="round"/>
  <path d="M 1648.83 719.77 L 1647.82 718.28 L 1639.60 714.31 L 1627.65 711.67 L 1613.71 710.75 L 1599.89 711.67 L 1588.32 714.31 L 1580.65 718.28 L 1578.14 722.99 L 1581.12 727.74 L 1589.27 731.77 L 1601.30 734.48 L 1615.44 735.42 L 1629.45 734.48 L 1641.10 731.77 L 1648.68 727.74 L 1651.00 722.99" stroke="black" stroke-width="4" fill="none" stroke-linecap="round" stroke-linejoin="round"/>
  <path d="M 1662.33 765.51 L 1659.24 771.97 L 1649.21 777.47 L 1633.72 781.17 L 1615.12 782.48 L 1596.34 781.17 L 1580.34 777.47 L 1569.55 771.97 L 1565.58 765.51" stroke="black" stroke-width="4" fill="none" stroke-linecap="round" stroke-linejoin="round"/>
  <path d="M 1660.10 729.32 L 1663.20 722.99 L 1658.86 716.72 L 1647.88 711.44 L 1631.95 707.93 L 1613.42 706.70 L 1595.06 707.93 L 1579.63 711.44 L 1569.39 716.72 L 1565.93 722.99 L 1569.93 729.32 L 1580.77 734.71 L 1596.85 738.34 L 1615.74 739.63 L 1634.44 738.34 L 1650.01 734.71 L 1660.10 729.32" stroke="black" stroke-width="4" fill="none" stroke-linecap="round" stroke-linejoin="round"/>
  <path d="M 1419.35 718.28 L 1411.68 714.31 L 1400.11 711.67 L 1386.29 710.75 L 1372.35 711.67 L 1360.40 714.31 L 1352.18 718.28 L 1349.00 722.99 L 1351.32 727.74 L 1358.90 731.77 L 1370.55 734.48 L 1384.56 735.42 L 1398.70 734.48 L 1410.73 731.77 L 1418.88 727.74 L 1421.86 722.99" stroke="black" stroke-width="4" fill="none" stroke-linecap="round" stroke-linejoin="round"/>
  <path d="M 1434.42 765.51 L 1430.45 771.97 L 1419.66 777.47 L 1403.66 781.17 L 1384.88 782.48 L 1366.28 781.17 L 1350.79 777.47 L 1340.76 771.97 L 1337.67 765.51" stroke="black" stroke-width="4" fill="none" stroke-linecap="round" stroke-linejoin="round"/>
  <path d="M 1430.61 716.72 L 1420.37 711.44 L 1404.94 707.93 L 1386.58 706.70 L 1368.05 707.93 L 1352.12 711.44 L 1341.14 716.72 L 1336.80 722.99 L 1339.90 729.32 L 1349.99 734.71 L 1365.56 738.34 L 1384.26 739.63 L 1403.14 738.34 L 1419.22 734.71 L 1430.07 729.32 L 1434.07 722.99" stroke="black" stroke-width="4" fill="none" stroke-linecap="round" stroke-linejoin="round"/>
  <path d="M 1534.61 767.70 L 1537.32 762.72 L 1534.40 757.77 L 1526.26 753.62 L 1514.22 750.84 L 1500.00 749.88 L 1485.78 750.84 L 1473.74 753.62 L 1465.60 757.77 L 1462.68 762.72 L 1465.39 767.70 L 1473.45 771.93 L 1485.58 774.77 L 1500.00 775.76 L 1514.42 774.77 L 1526.55 771.93 L 1534.61 767.70" stroke="black" stroke-width="4" fill="none" stroke-linecap="round" stroke-linejoin="round"/>
  <path d="M 1501.99 819.22 L 1500.00 819.36" stroke="black" stroke-width="4" fill="none" stroke-linecap="round" stroke-linejoin="round"/>
  <path d="M 1549.55 806.05 L 1545.94 812.83 L 1535.27 818.60 L 1519.15 822.49 L 1500.00 823.86 L 1480.85 822.49 L 1464.73 818.60 L 1454.06 812.83 L 1450.45 806.05" stroke="black" stroke-width="4" fill="none" stroke-linecap="round" stroke-linejoin="round"/>
  <path d="M 1546.19 769.36 L 1549.82 762.72 L 1545.82 756.13 L 1534.95 750.60 L 1518.89 746.92 L 1500.00 745.62 L 1481.11 746.92 L 1465.05 750.60 L 1454.18 756.13 L 1450.18 762.72 L 1453.81 769.36 L 1464.53 775.02 L 1480.74 778.83 L 1500.00 780.18 L 1519.26 778.83 L 1535.47 775.02 L 1546.19 769.36" stroke="black" stroke-width="4" fill="none" stroke-linecap="round" stroke-linejoin="round"/>
  <path d="M 1307.77 2010.59 L 1500.00 2131.96 L 1692.23 2010.59 L 1500.00 2131.96 L 1692.23 2010.59 L 1696.07 1876.71 L 1500.00 1994.91 L 1303.93 1876.71 L 1500.00 1994.91 L 1500.00 2131.96 L 1307.77 2010.59" stroke="black" stroke-width="4" fill="none" stroke-linecap="round" stroke-linejoin="round"/>
  <path d="M 1303.93 1876.71 L 1500.00 1994.91 L 1696.07 1876.71 L 1500.00 1994.91 L 1696.07 1876.71 L 1700.06 1737.37 L 1500.00 1852.03 L 1299.94 1737.37 L 1500.00 1852.03 L 1500.00 1994.91 L 1303.93 1876.71" stroke="black" stroke-width="4" fill="none" stroke-linecap="round" stroke-linejoin="round"/>
  <path d="M 1299.94 1737.37 L 1500.00 1852.03 L 1700.06 1737.37 L 1500.00 1852.03 L 1700.06 1737.37 L 1704.22 1592.23 L 1500.00 1702.96 L 1295.78 1592.23 L 1500.00 1702.96 L 1500.00 1852.03 L 1299.94 1737.37" stroke="black" stroke-width="4" fill="none" stroke-linecap="round" stroke-linejoin="round"/>
  <path d="M 1295.78 1592.23 L 1500.00 1702.96 L 1704.22 1592.23 L 1500.00 1702.96 L 1704.22 1592.23 L 1708.56 1440.93 L 1500.00 1547.26 L 1291.44 1440.93 L 1500.00 1547.26 L 1500.00 1702.96 L 1295.78 1592.23" stroke="black" stroke-width="4" fill="none" stroke-linecap="round" stroke-linejoin="round"/>
  <path d="M 1291.44 1440.93 L 1500.00 1547.26 L 1708.56 1440.93 L 1500.00 1547.26 L 1708.56 1440.93 L 1713.08 1283.07 L 1500.00 1384.49 L 1286.92 1283.07 L 1500.00 1384.49 L 1500.00 1547.26 L 1291.44 1440.93" stroke="black" stroke-width="4" fill="none" stroke-linecap="round" stroke-linejoin="round"/>
  <path d="M 1286.92 1283.07 L 1500.00 1384.49 L 1713.08 1283.07 L 1500.00 1384.49 L 1713.08 1283.07 L 1717.81 1118.20 L 1500.00 1214.16 L 1282.19 1118.20 L 1500.00 1214.16 L 1500.00 1384.49 L 1286.92 1283.07" stroke="black" stroke-width="4" fill="none" stroke-linecap="round" stroke-linejoin="round"/>
</svg>
