<?xml version="1.0" encoding="UTF-8"?>
<svg xmlns="http://www.w3.org/2000/svg" xmlns:xlink="http://www.w3.org/1999/xlink"
     width="284.0" height="210" viewBox="0 0 284.0 210">
<defs>
<clipPath id="clip-4498846288-4567297360">
<path d="M105.0,105.0 L105.0,5.0 A100,100,0,0,1,163.77852522924732,24.09830056250526 Z" fill="none" />
</clipPath>
<clipPath id="clip-4498846288-4567286992">
<path d="M105.0,105.0 L163.77852522924732,24.09830056250526 A100,100,0,0,1,200.10565162951536,74.09830056250526 Z" fill="none" />
</clipPath>
<clipPath id="clip-4498846288-4567297744">
<path d="M105.0,105.0 L200.10565162951536,74.09830056250526 A100,100,0,0,1,200.10565162951536,135.90169943749473 Z" fill="none" />
</clipPath>
</defs>
<g>
<path d="M105.0,105.0 L105.0,5.0 A100,100,0,0,1,163.77852522924732,24.09830056250526 Z" fill="none" stroke="lightgray" stroke-width="2" />
<path d="M105.0,105.0 L163.77852522924732,24.09830056250526 A100,100,0,0,1,200.10565162951536,74.09830056250526 Z" fill="none" stroke="lightgray" stroke-width="2" />
<path d="M105.0,105.0 L200.10565162951536,74.09830056250526 A100,100,0,0,1,200.10565162951536,135.90169943749473 Z" fill="none" stroke="lightgray" stroke-width="2" />
<path d="M105.0,105.0 L200.10565162951536,135.90169943749473 A100,100,0,0,1,163.77852522924732,185.90169943749476 Z" fill="none" stroke="lightgray" stroke-width="2" />
<path d="M105.0,105.0 L163.77852522924732,185.90169943749476 A100,100,0,0,1,105.0,205.0 Z" fill="none" stroke="lightgray" stroke-width="2" />
<path d="M105.0,105.0 L105.0,205.0 A100,100,0,0,1,46.2214747707527,185.90169943749476 Z" fill="none" stroke="lightgray" stroke-width="2" />
<path d="M105.0,105.0 L46.2214747707527,185.90169943749476 A100,100,0,0,1,9.89434837048465,135.90169943749476 Z" fill="none" stroke="lightgray" stroke-width="2" />
<path d="M105.0,105.0 L9.89434837048465,135.90169943749476 A100,100,0,0,1,9.894348370484636,74.09830056250527 Z" fill="none" stroke="lightgray" stroke-width="2" />
<path d="M105.0,105.0 L9.894348370484636,74.09830056250527 A100,100,0,0,1,46.22147477075268,24.098300562505273 Z" fill="none" stroke="lightgray" stroke-width="2" />
<path d="M105.0,105.0 L46.22147477075268,24.098300562505273 A100,100,0,0,1,104.99999999999999,5.0 Z" fill="none" stroke="lightgray" stroke-width="2" />
<path d="M105.0,105.0 L105.0,5.0 A100,100,0,0,1,163.77852522924732,24.09830056250526 Z" fill="#FEF7E3" stroke="lightgray" stroke-width="2" />
<use xlink:href="#clip-4498846288-4567297360" />
<g clip-path="url(#clip-4498846288-4567297360)">
<circle cx="105.0" cy="105.0" r="92" stroke="#DAA05D" stroke-width="16" fill="none" />
<circle cx="105.0" cy="105.0" r="98" stroke="#C37B32" stroke-width="5" fill="none" />
<circle cx="117.51957826866406" cy="129.13700865271363" r="3.2105741740214016" fill="#FFFFFF" fill-opacity="0.27965963924115694" />
<circle cx="162.12126773938365" cy="132.10966499940605" r="2.343931884502173" fill="#FFFFFF" fill-opacity="0.5307877294831383" />
<circle cx="93.80650012017708" cy="60.61188192046371" r="3.541107235779221" fill="#FFFFFF" fill-opacity="0.3693332460534553" />
<circle cx="136.56867427100363" cy="113.49450465254114" r="2.474554820156795" fill="#8B4513" fill-opacity="0.35938768954017597" />
<circle cx="151.78062869235583" cy="131.2428343505407" r="2.6877647678559" fill="#FFDE75" fill-opacity="0.4094914740123369" />
<circle cx="183.71223988234576" cy="85.81254645734799" r="3.604686531465841" fill="#FFFFFF" fill-opacity="0.29754140717247124" />
<circle cx="57.09942233617219" cy="140.82230188062317" r="4.991509493123871" fill="#D2691E" fill-opacity="0.45146312841845365" />
<circle cx="26.74620228682423" cy="86.02467865657627" r="5.897837515722734" fill="#FFDE75" fill-opacity="0.5426676363993208" />
<circle cx="67.63524876660045" cy="175.23999219795598" r="5.472332562025986" fill="#D2691E" fill-opacity="0.4085786880466289" />
<circle cx="95.7220901588537" cy="86.45118695327712" r="2.8795029566672445" fill="#FFFFFF" fill-opacity="0.3353552846200861" />
<circle cx="53.631003331042145" cy="91.63196136101067" r="3.292958349625868" fill="#D2691E" fill-opacity="0.45686350161015227" />
<circle cx="147.23323307159063" cy="110.2506414911041" r="4.06334819043762" fill="#FFDE75" fill-opacity="0.3797730214531697" />
<circle cx="74.13967159887139" cy="99.74010713192055" r="4.344347696222962" fill="#8B4513" fill-opacity="0.5733791432003998" />
<circle cx="99.58052374560567" cy="123.09574482253792" r="5.886735337408099" fill="#8B4513" fill-opacity="0.5176070952044992" />
<circle cx="167.48986625314217" cy="80.23655202785591" r="3.8149836049912054" fill="#FFFFFF" fill-opacity="0.2613991991588253" />
<circle cx="79.21938035207292" cy="24.288840388303342" r="2.7178385375315792" fill="#D2691E" fill-opacity="0.40576171060508615" />
<circle cx="48.061663938075675" cy="47.64071689117556" r="3.9747960679155128" fill="#FFDE75" fill-opacity="0.2798899095250561" />
<circle cx="77.19241434128845" cy="129.2900564585747" r="5.767711018347631" fill="#D2691E" fill-opacity="0.5834975271683063" />
<circle cx="79.69899567155076" cy="86.54955689334463" r="4.193534916484633" fill="#FFFFFF" fill-opacity="0.3925652657163421" />
<circle cx="57.96599842220916" cy="74.04361597135446" r="3.733559440734529" fill="#FFDE75" fill-opacity="0.21835569586043568" />
<circle cx="170.93803783732574" cy="129.72717402016417" r="2.40391839512018" fill="#D2691E" fill-opacity="0.40412496070900783" />
<circle cx="131.72106093742656" cy="167.46130364540306" r="4.077758272405334" fill="#8B4513" fill-opacity="0.5698235694697406" />
<circle cx="156.9647800654895" cy="42.87236629603052" r="2.6960405381901418" fill="#8B4513" fill-opacity="0.37804425275736253" />
<circle cx="95.51130686097326" cy="91.40419139691656" r="2.911334758404633" fill="#FFFFFF" fill-opacity="0.20727417607157683" />
<circle cx="34.412975364861325" cy="123.18576008856765" r="3.8621598632946026" fill="#FFDE75" fill-opacity="0.44915890472526526" />
<circle cx="139.2860614621154" cy="70.30994823571041" r="5.280234440460676" fill="#8B4513" fill-opacity="0.29888415579262234" />
<circle cx="78.3072903754842" cy="62.340041393841425" r="3.1495582879431447" fill="#D2691E" fill-opacity="0.33390604691278175" />
<circle cx="182.18640603097532" cy="90.60732843096189" r="4.231829773127325" fill="#8B4513" fill-opacity="0.27964428614798154" />
<circle cx="121.73015973142472" cy="144.50730662932142" r="4.703313548696114" fill="#8B4513" fill-opacity="0.25649297728129705" />
<circle cx="117.77151268814785" cy="169.59645233680283" r="3.272704169812325" fill="#D2691E" fill-opacity="0.4190880556051175" />
<circle cx="83.10937054135749" cy="125.62473398220513" r="4.102827856825543" fill="#FFFFFF" fill-opacity="0.49389852104511145" />
<circle cx="102.33954004117143" cy="180.17909366579045" r="5.150877015561704" fill="#FFFFFF" fill-opacity="0.33154591673473544" />
<circle cx="131.10315481515403" cy="38.989731261861834" r="4.182584614647043" fill="#D2691E" fill-opacity="0.23413412988517157" />
<circle cx="90.91414277777193" cy="119.63593104533109" r="4.340927120857135" fill="#FFDE75" fill-opacity="0.5762119367793479" />
<circle cx="94.91185319296002" cy="174.98434843076518" r="5.230014231192708" fill="#D2691E" fill-opacity="0.5723832467809875" />
<circle cx="115.7861211309704" cy="63.01111539571424" r="4.623445000553621" fill="#FFFFFF" fill-opacity="0.2508106559627521" />
<circle cx="101.58629216996714" cy="74.67659923698156" r="3.8269045393226224" fill="#FFDE75" fill-opacity="0.4881184651583524" />
<circle cx="104.93891408695633" cy="136.7689097983206" r="3.776782719626129" fill="#8B4513" fill-opacity="0.5586505191510841" />
<circle cx="143.51091341167006" cy="162.5365680008464" r="5.1790243839404875" fill="#FFDE75" fill-opacity="0.24561354296134474" />
<circle cx="65.05371729348393" cy="64.21509644513401" r="5.323722952793637" fill="#D2691E" fill-opacity="0.5236900608850016" />
<circle cx="123.21220455675596" cy="99.26921421502426" r="3.731448624092884" fill="#D2691E" fill-opacity="0.5865226865693338" />
<circle cx="55.780027663210966" cy="140.17992468514342" r="5.421541171607769" fill="#D2691E" fill-opacity="0.4227454998299176" />
<circle cx="186.84629028545604" cy="107.80517791397594" r="3.7675737691764737" fill="#8B4513" fill-opacity="0.28997123955747306" />
<circle cx="97.95503992772235" cy="141.73545461513118" r="2.8792496049119554" fill="#8B4513" fill-opacity="0.2502943039566009" />
<circle cx="127.34796550909222" cy="48.48127768818373" r="5.8199454033084255" fill="#FFDE75" fill-opacity="0.4697595574487396" />
<circle cx="118.40016485789282" cy="37.88343460000432" r="6.353928462780145" fill="#FFFFFF" fill-opacity="0.95" stroke="#FAF0E6" stroke-width="1.5" />
<circle cx="44.80429760686133" cy="103.31846470912905" r="11.589981779697483" fill="#FFFFFF" fill-opacity="0.95" stroke="#FAF0E6" stroke-width="1.5" />
<circle cx="170.0105029882559" cy="142.88409699660053" r="6.6194240356523135" fill="#FFFFFF" fill-opacity="0.95" stroke="#FAF0E6" stroke-width="1.5" />
<circle cx="134.07868091555437" cy="126.7038094240954" r="8.928683745778494" fill="#FFFFFF" fill-opacity="0.95" stroke="#FAF0E6" stroke-width="1.5" />
<circle cx="60.31506698040627" cy="114.40043185004708" r="10.177346851374" fill="#FFFFFF" fill-opacity="0.95" stroke="#FAF0E6" stroke-width="1.5" />
<circle cx="107.040632684151" cy="28.81562448646831" r="10.51326995083689" fill="#FFFFFF" fill-opacity="0.95" stroke="#FAF0E6" stroke-width="1.5" />
<circle cx="116.2015442885769" cy="91.7828332218396" r="7.9047165197672395" fill="#FFFFFF" fill-opacity="0.95" stroke="#FAF0E6" stroke-width="1.5" />
<circle cx="83.54870571474727" cy="151.4598258043909" r="10.594000920897681" fill="#FFFFFF" fill-opacity="0.95" stroke="#FAF0E6" stroke-width="1.5" />
<circle cx="54.3908020218603" cy="83.14169209554129" r="5.193929213196959" fill="#FFFFFF" fill-opacity="0.95" stroke="#FAF0E6" stroke-width="1.5" />
<circle cx="158.55000875989782" cy="83.87227155608741" r="9.297075590975343" fill="#FFFFFF" fill-opacity="0.95" stroke="#FAF0E6" stroke-width="1.5" />
<circle cx="82.51045301524631" cy="135.61224277887658" r="7.216052128049746" fill="#FFFFFF" fill-opacity="0.95" stroke="#FAF0E6" stroke-width="1.5" />
<circle cx="145.0284096362803" cy="149.53802698924912" r="7.460618762425745" fill="#FFFFFF" fill-opacity="0.95" stroke="#FAF0E6" stroke-width="1.5" />
<circle cx="74.13213643282245" cy="152.2314142991673" r="10.188476891305559" fill="#FFFFFF" fill-opacity="0.95" stroke="#FAF0E6" stroke-width="1.5" />
<circle cx="69.5329135160099" cy="128.52848551494506" r="5.600270714862463" fill="#FFFFFF" fill-opacity="0.95" stroke="#FAF0E6" stroke-width="1.5" />
<circle cx="124.09035410001127" cy="96.08544499586598" r="6.471503892220686" fill="#FFFFFF" fill-opacity="0.95" stroke="#FAF0E6" stroke-width="1.5" />
<circle cx="53.51529730813052" cy="111.1191961841025" r="11.743121876638844" fill="#FFFFFF" fill-opacity="0.95" stroke="#FAF0E6" stroke-width="1.5" />
<circle cx="166.80787006852879" cy="64.23429518842512" r="10.897828579575716" fill="#FFFFFF" fill-opacity="0.95" stroke="#FAF0E6" stroke-width="1.5" />
<circle cx="62.9060691198176" cy="135.71479979337613" r="7.663540549515778" fill="#FFFFFF" fill-opacity="0.95" stroke="#FAF0E6" stroke-width="1.5" />
</g>
<path d="M105.0,105.0 L163.77852522924732,24.09830056250526 A100,100,0,0,1,200.10565162951536,74.09830056250526 Z" fill="#FEF7E3" stroke="lightgray" stroke-width="2" />
<use xlink:href="#clip-4498846288-4567286992" />
<g clip-path="url(#clip-4498846288-4567286992)">
<circle cx="105.0" cy="105.0" r="92" stroke="#DAA05D" stroke-width="16" fill="none" />
<circle cx="105.0" cy="105.0" r="98" stroke="#C37B32" stroke-width="5" fill="none" />
<circle cx="117.51957826866406" cy="129.13700865271363" r="3.2105741740214016" fill="#FFFFFF" fill-opacity="0.27965963924115694" />
<circle cx="162.12126773938365" cy="132.10966499940605" r="2.343931884502173" fill="#FFFFFF" fill-opacity="0.5307877294831383" />
<circle cx="93.80650012017708" cy="60.61188192046371" r="3.541107235779221" fill="#FFFFFF" fill-opacity="0.3693332460534553" />
<circle cx="136.56867427100363" cy="113.49450465254114" r="2.474554820156795" fill="#8B4513" fill-opacity="0.35938768954017597" />
<circle cx="151.78062869235583" cy="131.2428343505407" r="2.6877647678559" fill="#FFDE75" fill-opacity="0.4094914740123369" />
<circle cx="183.71223988234576" cy="85.81254645734799" r="3.604686531465841" fill="#FFFFFF" fill-opacity="0.29754140717247124" />
<circle cx="57.09942233617219" cy="140.82230188062317" r="4.991509493123871" fill="#D2691E" fill-opacity="0.45146312841845365" />
<circle cx="26.74620228682423" cy="86.02467865657627" r="5.897837515722734" fill="#FFDE75" fill-opacity="0.5426676363993208" />
<circle cx="67.63524876660045" cy="175.23999219795598" r="5.472332562025986" fill="#D2691E" fill-opacity="0.4085786880466289" />
<circle cx="95.7220901588537" cy="86.45118695327712" r="2.8795029566672445" fill="#FFFFFF" fill-opacity="0.3353552846200861" />
<circle cx="53.631003331042145" cy="91.63196136101067" r="3.292958349625868" fill="#D2691E" fill-opacity="0.45686350161015227" />
<circle cx="147.23323307159063" cy="110.2506414911041" r="4.06334819043762" fill="#FFDE75" fill-opacity="0.3797730214531697" />
<circle cx="74.13967159887139" cy="99.74010713192055" r="4.344347696222962" fill="#8B4513" fill-opacity="0.5733791432003998" />
<circle cx="99.58052374560567" cy="123.09574482253792" r="5.886735337408099" fill="#8B4513" fill-opacity="0.5176070952044992" />
<circle cx="167.48986625314217" cy="80.23655202785591" r="3.8149836049912054" fill="#FFFFFF" fill-opacity="0.2613991991588253" />
<circle cx="79.21938035207292" cy="24.288840388303342" r="2.7178385375315792" fill="#D2691E" fill-opacity="0.40576171060508615" />
<circle cx="48.061663938075675" cy="47.64071689117556" r="3.9747960679155128" fill="#FFDE75" fill-opacity="0.2798899095250561" />
<circle cx="77.19241434128845" cy="129.2900564585747" r="5.767711018347631" fill="#D2691E" fill-opacity="0.5834975271683063" />
<circle cx="79.69899567155076" cy="86.54955689334463" r="4.193534916484633" fill="#FFFFFF" fill-opacity="0.3925652657163421" />
<circle cx="57.96599842220916" cy="74.04361597135446" r="3.733559440734529" fill="#FFDE75" fill-opacity="0.21835569586043568" />
<circle cx="170.93803783732574" cy="129.72717402016417" r="2.40391839512018" fill="#D2691E" fill-opacity="0.40412496070900783" />
<circle cx="131.72106093742656" cy="167.46130364540306" r="4.077758272405334" fill="#8B4513" fill-opacity="0.5698235694697406" />
<circle cx="156.9647800654895" cy="42.87236629603052" r="2.6960405381901418" fill="#8B4513" fill-opacity="0.37804425275736253" />
<circle cx="95.51130686097326" cy="91.40419139691656" r="2.911334758404633" fill="#FFFFFF" fill-opacity="0.20727417607157683" />
<circle cx="34.412975364861325" cy="123.18576008856765" r="3.8621598632946026" fill="#FFDE75" fill-opacity="0.44915890472526526" />
<circle cx="139.2860614621154" cy="70.30994823571041" r="5.280234440460676" fill="#8B4513" fill-opacity="0.29888415579262234" />
<circle cx="78.3072903754842" cy="62.340041393841425" r="3.1495582879431447" fill="#D2691E" fill-opacity="0.33390604691278175" />
<circle cx="182.18640603097532" cy="90.60732843096189" r="4.231829773127325" fill="#8B4513" fill-opacity="0.27964428614798154" />
<circle cx="121.73015973142472" cy="144.50730662932142" r="4.703313548696114" fill="#8B4513" fill-opacity="0.25649297728129705" />
<circle cx="117.77151268814785" cy="169.59645233680283" r="3.272704169812325" fill="#D2691E" fill-opacity="0.4190880556051175" />
<circle cx="83.10937054135749" cy="125.62473398220513" r="4.102827856825543" fill="#FFFFFF" fill-opacity="0.49389852104511145" />
<circle cx="102.33954004117143" cy="180.17909366579045" r="5.150877015561704" fill="#FFFFFF" fill-opacity="0.33154591673473544" />
<circle cx="131.10315481515403" cy="38.989731261861834" r="4.182584614647043" fill="#D2691E" fill-opacity="0.23413412988517157" />
<circle cx="90.91414277777193" cy="119.63593104533109" r="4.340927120857135" fill="#FFDE75" fill-opacity="0.5762119367793479" />
<circle cx="94.91185319296002" cy="174.98434843076518" r="5.230014231192708" fill="#D2691E" fill-opacity="0.5723832467809875" />
<circle cx="115.7861211309704" cy="63.01111539571424" r="4.623445000553621" fill="#FFFFFF" fill-opacity="0.2508106559627521" />
<circle cx="101.58629216996714" cy="74.67659923698156" r="3.8269045393226224" fill="#FFDE75" fill-opacity="0.4881184651583524" />
<circle cx="104.93891408695633" cy="136.7689097983206" r="3.776782719626129" fill="#8B4513" fill-opacity="0.5586505191510841" />
<circle cx="143.51091341167006" cy="162.5365680008464" r="5.1790243839404875" fill="#FFDE75" fill-opacity="0.24561354296134474" />
<circle cx="65.05371729348393" cy="64.21509644513401" r="5.323722952793637" fill="#D2691E" fill-opacity="0.5236900608850016" />
<circle cx="123.21220455675596" cy="99.26921421502426" r="3.731448624092884" fill="#D2691E" fill-opacity="0.5865226865693338" />
<circle cx="55.780027663210966" cy="140.17992468514342" r="5.421541171607769" fill="#D2691E" fill-opacity="0.4227454998299176" />
<circle cx="186.84629028545604" cy="107.80517791397594" r="3.7675737691764737" fill="#8B4513" fill-opacity="0.28997123955747306" />
<circle cx="97.95503992772235" cy="141.73545461513118" r="2.8792496049119554" fill="#8B4513" fill-opacity="0.2502943039566009" />
<circle cx="127.34796550909222" cy="48.48127768818373" r="5.8199454033084255" fill="#FFDE75" fill-opacity="0.4697595574487396" />
<circle cx="118.40016485789282" cy="37.88343460000432" r="6.353928462780145" fill="#FFFFFF" fill-opacity="0.95" stroke="#FAF0E6" stroke-width="1.5" />
<circle cx="44.80429760686133" cy="103.31846470912905" r="11.589981779697483" fill="#FFFFFF" fill-opacity="0.95" stroke="#FAF0E6" stroke-width="1.5" />
<circle cx="170.0105029882559" cy="142.88409699660053" r="6.6194240356523135" fill="#FFFFFF" fill-opacity="0.95" stroke="#FAF0E6" stroke-width="1.5" />
<circle cx="134.07868091555437" cy="126.7038094240954" r="8.928683745778494" fill="#FFFFFF" fill-opacity="0.95" stroke="#FAF0E6" stroke-width="1.5" />
<circle cx="60.31506698040627" cy="114.40043185004708" r="10.177346851374" fill="#FFFFFF" fill-opacity="0.95" stroke="#FAF0E6" stroke-width="1.5" />
<circle cx="107.040632684151" cy="28.81562448646831" r="10.51326995083689" fill="#FFFFFF" fill-opacity="0.95" stroke="#FAF0E6" stroke-width="1.5" />
<circle cx="116.2015442885769" cy="91.7828332218396" r="7.9047165197672395" fill="#FFFFFF" fill-opacity="0.95" stroke="#FAF0E6" stroke-width="1.5" />
<circle cx="83.54870571474727" cy="151.4598258043909" r="10.594000920897681" fill="#FFFFFF" fill-opacity="0.95" stroke="#FAF0E6" stroke-width="1.5" />
<circle cx="54.3908020218603" cy="83.14169209554129" r="5.193929213196959" fill="#FFFFFF" fill-opacity="0.95" stroke="#FAF0E6" stroke-width="1.5" />
<circle cx="158.55000875989782" cy="83.87227155608741" r="9.297075590975343" fill="#FFFFFF" fill-opacity="0.95" stroke="#FAF0E6" stroke-width="1.5" />
<circle cx="82.51045301524631" cy="135.61224277887658" r="7.216052128049746" fill="#FFFFFF" fill-opacity="0.95" stroke="#FAF0E6" stroke-width="1.5" />
<circle cx="145.0284096362803" cy="149.53802698924912" r="7.460618762425745" fill="#FFFFFF" fill-opacity="0.95" stroke="#FAF0E6" stroke-width="1.5" />
<circle cx="74.13213643282245" cy="152.2314142991673" r="10.188476891305559" fill="#FFFFFF" fill-opacity="0.95" stroke="#FAF0E6" stroke-width="1.5" />
<circle cx="69.5329135160099" cy="128.52848551494506" r="5.600270714862463" fill="#FFFFFF" fill-opacity="0.95" stroke="#FAF0E6" stroke-width="1.5" />
<circle cx="124.09035410001127" cy="96.08544499586598" r="6.471503892220686" fill="#FFFFFF" fill-opacity="0.95" stroke="#FAF0E6" stroke-width="1.5" />
<circle cx="53.51529730813052" cy="111.1191961841025" r="11.743121876638844" fill="#FFFFFF" fill-opacity="0.95" stroke="#FAF0E6" stroke-width="1.5" />
<circle cx="166.80787006852879" cy="64.23429518842512" r="10.897828579575716" fill="#FFFFFF" fill-opacity="0.95" stroke="#FAF0E6" stroke-width="1.5" />
<circle cx="62.9060691198176" cy="135.71479979337613" r="7.663540549515778" fill="#FFFFFF" fill-opacity="0.95" stroke="#FAF0E6" stroke-width="1.5" />
</g>
<path d="M105.0,105.0 L200.10565162951536,74.09830056250526 A100,100,0,0,1,200.10565162951536,135.90169943749473 Z" fill="#FEF7E3" stroke="lightgray" stroke-width="2" />
<use xlink:href="#clip-4498846288-4567297744" />
<g clip-path="url(#clip-4498846288-4567297744)">
<circle cx="105.0" cy="105.0" r="92" stroke="#DAA05D" stroke-width="16" fill="none" />
<circle cx="105.0" cy="105.0" r="98" stroke="#C37B32" stroke-width="5" fill="none" />
<circle cx="117.51957826866406" cy="129.13700865271363" r="3.2105741740214016" fill="#FFFFFF" fill-opacity="0.27965963924115694" />
<circle cx="162.12126773938365" cy="132.10966499940605" r="2.343931884502173" fill="#FFFFFF" fill-opacity="0.5307877294831383" />
<circle cx="93.80650012017708" cy="60.61188192046371" r="3.541107235779221" fill="#FFFFFF" fill-opacity="0.3693332460534553" />
<circle cx="136.56867427100363" cy="113.49450465254114" r="2.474554820156795" fill="#8B4513" fill-opacity="0.35938768954017597" />
<circle cx="151.78062869235583" cy="131.2428343505407" r="2.6877647678559" fill="#FFDE75" fill-opacity="0.4094914740123369" />
<circle cx="183.71223988234576" cy="85.81254645734799" r="3.604686531465841" fill="#FFFFFF" fill-opacity="0.29754140717247124" />
<circle cx="57.09942233617219" cy="140.82230188062317" r="4.991509493123871" fill="#D2691E" fill-opacity="0.45146312841845365" />
<circle cx="26.74620228682423" cy="86.02467865657627" r="5.897837515722734" fill="#FFDE75" fill-opacity="0.5426676363993208" />
<circle cx="67.63524876660045" cy="175.23999219795598" r="5.472332562025986" fill="#D2691E" fill-opacity="0.4085786880466289" />
<circle cx="95.7220901588537" cy="86.45118695327712" r="2.8795029566672445" fill="#FFFFFF" fill-opacity="0.3353552846200861" />
<circle cx="53.631003331042145" cy="91.63196136101067" r="3.292958349625868" fill="#D2691E" fill-opacity="0.45686350161015227" />
<circle cx="147.23323307159063" cy="110.2506414911041" r="4.06334819043762" fill="#FFDE75" fill-opacity="0.3797730214531697" />
<circle cx="74.13967159887139" cy="99.74010713192055" r="4.344347696222962" fill="#8B4513" fill-opacity="0.5733791432003998" />
<circle cx="99.58052374560567" cy="123.09574482253792" r="5.886735337408099" fill="#8B4513" fill-opacity="0.5176070952044992" />
<circle cx="167.48986625314217" cy="80.23655202785591" r="3.8149836049912054" fill="#FFFFFF" fill-opacity="0.2613991991588253" />
<circle cx="79.21938035207292" cy="24.288840388303342" r="2.7178385375315792" fill="#D2691E" fill-opacity="0.40576171060508615" />
<circle cx="48.061663938075675" cy="47.64071689117556" r="3.9747960679155128" fill="#FFDE75" fill-opacity="0.2798899095250561" />
<circle cx="77.19241434128845" cy="129.2900564585747" r="5.767711018347631" fill="#D2691E" fill-opacity="0.5834975271683063" />
<circle cx="79.69899567155076" cy="86.54955689334463" r="4.193534916484633" fill="#FFFFFF" fill-opacity="0.3925652657163421" />
<circle cx="57.96599842220916" cy="74.04361597135446" r="3.733559440734529" fill="#FFDE75" fill-opacity="0.21835569586043568" />
<circle cx="170.93803783732574" cy="129.72717402016417" r="2.40391839512018" fill="#D2691E" fill-opacity="0.40412496070900783" />
<circle cx="131.72106093742656" cy="167.46130364540306" r="4.077758272405334" fill="#8B4513" fill-opacity="0.5698235694697406" />
<circle cx="156.9647800654895" cy="42.87236629603052" r="2.6960405381901418" fill="#8B4513" fill-opacity="0.37804425275736253" />
<circle cx="95.51130686097326" cy="91.40419139691656" r="2.911334758404633" fill="#FFFFFF" fill-opacity="0.20727417607157683" />
<circle cx="34.412975364861325" cy="123.18576008856765" r="3.8621598632946026" fill="#FFDE75" fill-opacity="0.44915890472526526" />
<circle cx="139.2860614621154" cy="70.30994823571041" r="5.280234440460676" fill="#8B4513" fill-opacity="0.29888415579262234" />
<circle cx="78.3072903754842" cy="62.340041393841425" r="3.1495582879431447" fill="#D2691E" fill-opacity="0.33390604691278175" />
<circle cx="182.18640603097532" cy="90.60732843096189" r="4.231829773127325" fill="#8B4513" fill-opacity="0.27964428614798154" />
<circle cx="121.73015973142472" cy="144.50730662932142" r="4.703313548696114" fill="#8B4513" fill-opacity="0.25649297728129705" />
<circle cx="117.77151268814785" cy="169.59645233680283" r="3.272704169812325" fill="#D2691E" fill-opacity="0.4190880556051175" />
<circle cx="83.10937054135749" cy="125.62473398220513" r="4.102827856825543" fill="#FFFFFF" fill-opacity="0.49389852104511145" />
<circle cx="102.33954004117143" cy="180.17909366579045" r="5.150877015561704" fill="#FFFFFF" fill-opacity="0.33154591673473544" />
<circle cx="131.10315481515403" cy="38.989731261861834" r="4.182584614647043" fill="#D2691E" fill-opacity="0.23413412988517157" />
<circle cx="90.91414277777193" cy="119.63593104533109" r="4.340927120857135" fill="#FFDE75" fill-opacity="0.5762119367793479" />
<circle cx="94.91185319296002" cy="174.98434843076518" r="5.230014231192708" fill="#D2691E" fill-opacity="0.5723832467809875" />
<circle cx="115.7861211309704" cy="63.01111539571424" r="4.623445000553621" fill="#FFFFFF" fill-opacity="0.2508106559627521" />
<circle cx="101.58629216996714" cy="74.67659923698156" r="3.8269045393226224" fill="#FFDE75" fill-opacity="0.4881184651583524" />
<circle cx="104.93891408695633" cy="136.7689097983206" r="3.776782719626129" fill="#8B4513" fill-opacity="0.5586505191510841" />
<circle cx="143.51091341167006" cy="162.5365680008464" r="5.1790243839404875" fill="#FFDE75" fill-opacity="0.24561354296134474" />
<circle cx="65.05371729348393" cy="64.21509644513401" r="5.323722952793637" fill="#D2691E" fill-opacity="0.5236900608850016" />
<circle cx="123.21220455675596" cy="99.26921421502426" r="3.731448624092884" fill="#D2691E" fill-opacity="0.5865226865693338" />
<circle cx="55.780027663210966" cy="140.17992468514342" r="5.421541171607769" fill="#D2691E" fill-opacity="0.4227454998299176" />
<circle cx="186.84629028545604" cy="107.80517791397594" r="3.7675737691764737" fill="#8B4513" fill-opacity="0.28997123955747306" />
<circle cx="97.95503992772235" cy="141.73545461513118" r="2.8792496049119554" fill="#8B4513" fill-opacity="0.2502943039566009" />
<circle cx="127.34796550909222" cy="48.48127768818373" r="5.8199454033084255" fill="#FFDE75" fill-opacity="0.4697595574487396" />
<circle cx="118.40016485789282" cy="37.88343460000432" r="6.353928462780145" fill="#FFFFFF" fill-opacity="0.95" stroke="#FAF0E6" stroke-width="1.5" />
<circle cx="44.80429760686133" cy="103.31846470912905" r="11.589981779697483" fill="#FFFFFF" fill-opacity="0.95" stroke="#FAF0E6" stroke-width="1.5" />
<circle cx="170.0105029882559" cy="142.88409699660053" r="6.6194240356523135" fill="#FFFFFF" fill-opacity="0.95" stroke="#FAF0E6" stroke-width="1.5" />
<circle cx="134.07868091555437" cy="126.7038094240954" r="8.928683745778494" fill="#FFFFFF" fill-opacity="0.95" stroke="#FAF0E6" stroke-width="1.5" />
<circle cx="60.31506698040627" cy="114.40043185004708" r="10.177346851374" fill="#FFFFFF" fill-opacity="0.95" stroke="#FAF0E6" stroke-width="1.5" />
<circle cx="107.040632684151" cy="28.81562448646831" r="10.51326995083689" fill="#FFFFFF" fill-opacity="0.95" stroke="#FAF0E6" stroke-width="1.5" />
<circle cx="116.2015442885769" cy="91.7828332218396" r="7.9047165197672395" fill="#FFFFFF" fill-opacity="0.95" stroke="#FAF0E6" stroke-width="1.5" />
<circle cx="83.54870571474727" cy="151.4598258043909" r="10.594000920897681" fill="#FFFFFF" fill-opacity="0.95" stroke="#FAF0E6" stroke-width="1.5" />
<circle cx="54.3908020218603" cy="83.14169209554129" r="5.193929213196959" fill="#FFFFFF" fill-opacity="0.95" stroke="#FAF0E6" stroke-width="1.5" />
<circle cx="158.55000875989782" cy="83.87227155608741" r="9.297075590975343" fill="#FFFFFF" fill-opacity="0.95" stroke="#FAF0E6" stroke-width="1.5" />
<circle cx="82.51045301524631" cy="135.61224277887658" r="7.216052128049746" fill="#FFFFFF" fill-opacity="0.95" stroke="#FAF0E6" stroke-width="1.5" />
<circle cx="145.0284096362803" cy="149.53802698924912" r="7.460618762425745" fill="#FFFFFF" fill-opacity="0.95" stroke="#FAF0E6" stroke-width="1.5" />
<circle cx="74.13213643282245" cy="152.2314142991673" r="10.188476891305559" fill="#FFFFFF" fill-opacity="0.95" stroke="#FAF0E6" stroke-width="1.5" />
<circle cx="69.5329135160099" cy="128.52848551494506" r="5.600270714862463" fill="#FFFFFF" fill-opacity="0.95" stroke="#FAF0E6" stroke-width="1.5" />
<circle cx="124.09035410001127" cy="96.08544499586598" r="6.471503892220686" fill="#FFFFFF" fill-opacity="0.95" stroke="#FAF0E6" stroke-width="1.5" />
<circle cx="53.51529730813052" cy="111.1191961841025" r="11.743121876638844" fill="#FFFFFF" fill-opacity="0.95" stroke="#FAF0E6" stroke-width="1.5" />
<circle cx="166.80787006852879" cy="64.23429518842512" r="10.897828579575716" fill="#FFFFFF" fill-opacity="0.95" stroke="#FAF0E6" stroke-width="1.5" />
<circle cx="62.9060691198176" cy="135.71479979337613" r="7.663540549515778" fill="#FFFFFF" fill-opacity="0.95" stroke="#FAF0E6" stroke-width="1.5" />
</g>
<rect x="230.0" y="41.0" width="54.0" height="54.0" fill="none" stroke="black" stroke-width="2" />
<rect x="230.0" y="115.0" width="54.0" height="54.0" fill="none" stroke="black" stroke-width="2" />
<path d="M225.0,105.0 L289.0,105.0" stroke="black" stroke-width="2" />
</g>
</svg>