<svg xmlns="http://www.w3.org/2000/svg" xmlns:xlink="http://www.w3.org/1999/xlink" width="500px" height="167px" version="1.1" overflow="visible" id="w1yi85by">
   <desc>Engraved by Verovio 6.2.0-43f8060</desc>
   <defs>
      <g id="E050-w1yi85by">
         <path transform="scale(1,-1)" d="M441 -245c-23 -4 -48 -6 -76 -6c-59 0 -102 7 -130 20c-88 42 -150 93 -187 154c-26 44 -43 103 -48 176c0 6 -1 13 -1 19c0 54 15 111 45 170c29 57 65 106 110 148s96 85 153 127c-3 16 -8 46 -13 92c-4 43 -5 73 -5 89c0 117 16 172 69 257c34 54 64 82 89 82 c21 0 43 -30 69 -92s39 -115 41 -159v-15c0 -109 -21 -162 -67 -241c-13 -20 -63 -90 -98 -118c-13 -9 -25 -19 -37 -29l31 -181c8 1 18 2 28 2c58 0 102 -12 133 -35c59 -43 92 -104 98 -184c1 -7 1 -15 1 -22c0 -123 -87 -209 -181 -248c8 -57 17 -110 25 -162 c5 -31 6 -58 6 -80c0 -30 -5 -53 -14 -70c-35 -64 -88 -99 -158 -103c-5 0 -11 -1 -16 -1c-37 0 -72 10 -108 27c-50 24 -77 59 -80 105v11c0 29 7 55 20 76c18 28 45 42 79 44h6c49 0 93 -42 97 -87v-9c0 -51 -34 -86 -105 -106c17 -24 51 -36 102 -36c62 0 116 43 140 85 c9 16 13 41 13 74c0 20 -1 42 -5 67c-8 53 -18 106 -26 159zM461 939c-95 0 -135 -175 -135 -286c0 -24 2 -48 5 -71c50 39 92 82 127 128c40 53 60 100 60 140v8c-4 53 -22 81 -55 81h-2zM406 119l54 -326c73 25 110 78 110 161c0 7 0 15 -1 23c-7 95 -57 142 -151 142h-12 zM382 117c-72 -2 -128 -47 -128 -120v-7c2 -46 43 -99 75 -115c-3 -2 -7 -5 -10 -10c-70 33 -116 88 -123 172v11c0 68 44 126 88 159c23 17 49 29 78 36l-29 170c-21 -13 -52 -37 -92 -73c-50 -44 -86 -84 -109 -119c-45 -69 -67 -130 -67 -182v-13c5 -68 35 -127 93 -176 s125 -73 203 -73c25 0 50 3 75 9c-19 111 -36 221 -54 331z"/>
      </g>
      <g id="E084-w1yi85by">
         <path transform="scale(1,-1)" d="M20 -78c84 97 114 180 134 329h170c-13 -32 -82 -132 -99 -151l-84 -97c-33 -36 -59 -63 -80 -81h162v102l127 123v-225h57v-39h-57v-34c0 -43 19 -65 57 -65v-34h-244v36c48 0 60 26 60 70v27h-203v39z"/>
      </g>
      <g id="E0A4-w1yi85by">
         <path transform="scale(1,-1)" d="M0 -39c0 68 73 172 200 172c66 0 114 -37 114 -95c0 -84 -106 -171 -218 -171c-64 0 -96 30 -96 94z"/>
      </g>
   </defs>
   <style type="text/css">#w1yi85by g.ending, #w1yi85by g.fing, #w1yi85by g.reh, #w1yi85by g.tempo {font-weight:bold;}#w1yi85by g.dir, #w1yi85by g.dynam, #w1yi85by g.mNum {font-style:italic;}#w1yi85by g.label {font-weight:normal;}#w1yi85by ellipse, #w1yi85by path, #w1yi85by polygon, #w1yi85by polyline, #w1yi85by rect {stroke:currentColor}</style>
   <svg class="definition-scale" color="black" font-family="Times, serif" viewBox="0 0 10000 3340">
      <g class="page-margin" transform="translate(500, 500)">
         <g id="x17tf20y" class="mdiv pageMilestone"/>
         <g id="bu1k5dv" class="score pageMilestone"/>
         <g id="z7166rv" class="system">
            <g id="o1p6jwcx" class="section systemMilestone"/>
            <g id="abcLine07" class="pb"/>
            <g id="x18adtnd" class="measure">
               <g id="gs07rew" class="staff">
                  <path d="M0 1084 L4847 1084" stroke-width="13"/>
                  <path d="M0 1264 L4847 1264" stroke-width="13"/>
                  <path d="M0 1444 L4847 1444" stroke-width="13"/>
                  <path d="M0 1624 L4847 1624" stroke-width="13"/>
                  <path d="M0 1804 L4847 1804" stroke-width="13"/>
                  <g id="hkjh3ek" class="clef">
                     <use xlink:href="#E050-w1yi85by" transform="translate(90, 1624) scale(0.72, 0.72)"/>
                  </g>
                  <g id="i1xcrk8p" class="keySig"/>
                  <g id="j5qy6v6" class="meterSig">
                     <use xlink:href="#E084-w1yi85by" transform="translate(721, 1264) scale(0.72, 0.72)"/>
                     <use xlink:href="#E084-w1yi85by" transform="translate(721, 1624) scale(0.72, 0.72)"/>
                  </g>
                  <g class="ledgerLines below">
                     <path d="M1269 1984 L1591 1984" stroke-width="22"/>
                     <path d="M2086 1984 L2408 1984" stroke-width="22"/>
                     <path d="M2619 1984 L2941 1984" stroke-width="22"/>
                     <path d="M3151 1984 L3473 1984" stroke-width="22"/>
                     <path d="M3969 1984 L4291 1984" stroke-width="22"/>
                  </g>
                  <g id="qm2de7j" class="layer">
                     <g id="ruqf9yx" class="note">
                        <g class="notehead">
                           <use xlink:href="#E0A4-w1yi85by" transform="translate(1317, 1984) scale(0.72, 0.72)"/>
                        </g>
                        <g id="m6e6wug" class="stem">
                           <path d="M1534 1956 L1534 1354" stroke-width="18"/>
                        </g>
                     </g>
                     <g id="umjflom" class="beam">
                        <polygon points="2342,1399 2893,1399 2893,1489 2342,1489"/>
                        <g id="srgkkv1" class="note">
                           <g class="notehead">
                              <use xlink:href="#E0A4-w1yi85by" transform="translate(2134, 1984) scale(0.72, 0.72)"/>
                           </g>
                           <g id="nhnpqjc" class="stem">
                              <path d="M2351 1956 L2351 1417" stroke-width="18"/>
                           </g>
                        </g>
                        <g id="t1i0chzj" class="note">
                           <g class="notehead">
                              <use xlink:href="#E0A4-w1yi85by" transform="translate(2667, 1984) scale(0.72, 0.72)"/>
                           </g>
                           <g id="ok4ugte" class="stem">
                              <path d="M2884 1956 L2884 1417" stroke-width="18"/>
                           </g>
                        </g>
                     </g>
                     <g id="vwr9e6f" class="note">
                        <g class="notehead">
                           <use xlink:href="#E0A4-w1yi85by" transform="translate(3199, 1984) scale(0.72, 0.72)"/>
                        </g>
                        <g id="p145k27q" class="stem">
                           <path d="M3416 1956 L3416 1354" stroke-width="18"/>
                        </g>
                     </g>
                     <g id="w1u4fkhs" class="note">
                        <g class="notehead">
                           <use xlink:href="#E0A4-w1yi85by" transform="translate(4017, 1984) scale(0.72, 0.72)"/>
                        </g>
                        <g id="q1226ik8" class="stem">
                           <path d="M4234 1956 L4234 1354" stroke-width="18"/>
                        </g>
                     </g>
                  </g>
               </g>
               <g id="fpixmrb" class="barLine">
                  <path d="M4834 1084 L4834 1804" stroke-width="27"/>
               </g>
            </g>
            <g id="qlzsbji" class="measure">
               <g id="zab4q7q" class="staff">
                  <path d="M4847 1084 L9001 1084" stroke-width="13"/>
                  <path d="M4847 1264 L9001 1264" stroke-width="13"/>
                  <path d="M4847 1444 L9001 1444" stroke-width="13"/>
                  <path d="M4847 1624 L9001 1624" stroke-width="13"/>
                  <path d="M4847 1804 L9001 1804" stroke-width="13"/>
                  <g class="ledgerLines below">
                     <path d="M5013 1984 L5335 1984" stroke-width="22"/>
                     <path d="M5546 1984 L5868 1984" stroke-width="22"/>
                     <path d="M6078 1984 L6400 1984" stroke-width="22"/>
                     <path d="M6611 1984 L6933 1984" stroke-width="22"/>
                     <path d="M7144 1984 L7466 1984" stroke-width="22"/>
                     <path d="M7961 1984 L8283 1984" stroke-width="22"/>
                  </g>
                  <g id="h1e0yhxw" class="layer">
                     <g id="kmk4m2l" class="beam">
                        <polygon points="5269,1399 5820,1399 5820,1489 5269,1489"/>
                        <g id="i1cnzfoy" class="note">
                           <g class="notehead">
                              <use xlink:href="#E0A4-w1yi85by" transform="translate(5061, 1984) scale(0.72, 0.72)"/>
                           </g>
                           <g id="r1kcdhfn" class="stem">
                              <path d="M5278 1956 L5278 1417" stroke-width="18"/>
                           </g>
                        </g>
                        <g id="jmqzble" class="note">
                           <g class="notehead">
                              <use xlink:href="#E0A4-w1yi85by" transform="translate(5594, 1984) scale(0.72, 0.72)"/>
                           </g>
                           <g id="svwwta9" class="stem">
                              <path d="M5811 1956 L5811 1417" stroke-width="18"/>
                           </g>
                        </g>
                     </g>
                     <g id="n15oioax" class="beam">
                        <polygon points="6334,1399 6885,1399 6885,1489 6334,1489"/>
                        <g id="l228ok8" class="note">
                           <g class="notehead">
                              <use xlink:href="#E0A4-w1yi85by" transform="translate(6126, 1984) scale(0.72, 0.72)"/>
                           </g>
                           <g id="t18l2ljx" class="stem">
                              <path d="M6343 1956 L6343 1417" stroke-width="18"/>
                           </g>
                        </g>
                        <g id="m1uck8qo" class="note">
                           <g class="notehead">
                              <use xlink:href="#E0A4-w1yi85by" transform="translate(6659, 1984) scale(0.72, 0.72)"/>
                           </g>
                           <g id="u1ojcio4" class="stem">
                              <path d="M6876 1956 L6876 1417" stroke-width="18"/>
                           </g>
                        </g>
                     </g>
                     <g id="oko7enj" class="note">
                        <g class="notehead">
                           <use xlink:href="#E0A4-w1yi85by" transform="translate(7192, 1984) scale(0.72, 0.72)"/>
                        </g>
                        <g id="v1khyzld" class="stem">
                           <path d="M7409 1956 L7409 1354" stroke-width="18"/>
                        </g>
                     </g>
                     <g id="p1na8w7b" class="note">
                        <g class="notehead">
                           <use xlink:href="#E0A4-w1yi85by" transform="translate(8009, 1984) scale(0.72, 0.72)"/>
                        </g>
                        <g id="wub6823" class="stem">
                           <path d="M8226 1956 L8226 1354" stroke-width="18"/>
                        </g>
                     </g>
                  </g>
               </g>
               <g id="ydu9es0" class="barLine">
                  <path d="M8826 1084 L8826 1804" stroke-width="27"/>
                  <path d="M8956 1084 L8956 1804" stroke-width="90"/>
               </g>
            </g>
            <g id="abcLine08" class="sb"/>
            <g id="jzl23xt" class="systemMilestoneEnd o1p6jwcx"/>
         </g>
         <g id="k17r3qox" class="pageMilestoneEnd bu1k5dv"/>
         <g id="l2fldts" class="pageMilestoneEnd x17tf20y"/>
         <g id="l1heb20t" class="pgHead">
            <text font-size="0px">
               <tspan id="m1hf791u" class="rend" x="4500" y="276" text-anchor="middle">
                  <tspan id="n1woxipx" class="text">
                     <tspan font-size="405px">Rock</tspan>
                  </tspan>
               </tspan>
            </text>
         </g>
      </g>
   </svg>
</svg>