<svg width="678.0" height="210.0" xmlns="http://www.w3.org/2000/svg" xmlns:xlink="http://www.w3.org/1999/xlink">
<svg x="0.0" y="0.0" width="284.0" height="210.0" viewBox="0 0 284.0 210" xmlns="http://www.w3.org/2000/svg" xmlns:xlink="http://www.w3.org/1999/xlink">
<defs>
<clipPath id="clip-4465300064-4530526800">
<circle cx="105.0" cy="105.0" r="100" fill="none" />
</clipPath>
</defs>
<g>
<circle cx="105.0" cy="105.0" r="100" fill="#F5C754" />
<use xlink:href="#clip-4465300064-4530526800" />
<g clip-path="url(#clip-4465300064-4530526800)">
<circle cx="105.0" cy="105.0" r="92" stroke="#DAA05D" stroke-width="16" fill="none" />
<circle cx="105.0" cy="105.0" r="98" stroke="#C37B32" stroke-width="5" fill="none" />
<circle cx="134.61024763585053" cy="59.31019578520335" r="5.1196490064193885" fill="#FFFFFF" fill-opacity="0.5824826625298041" />
<circle cx="95.98286785030818" cy="147.59687047821865" r="3.2407454817149683" fill="#FFDE75" fill-opacity="0.2746852734516506" />
<circle cx="121.42925220570783" cy="78.30264705689221" r="2.8181118371511307" fill="#8B4513" fill-opacity="0.5569605400124013" />
<circle cx="120.11654661079295" cy="78.12683034382324" r="4.917728591766853" fill="#8B4513" fill-opacity="0.3944742307441921" />
<circle cx="43.133199268990836" cy="94.76887145149287" r="2.604254790236096" fill="#FFDE75" fill-opacity="0.5530429626015262" />
<circle cx="187.06484227141172" cy="127.02627955188606" r="5.916711560289465" fill="#FFDE75" fill-opacity="0.5444060224116537" />
<circle cx="67.29117760817968" cy="43.355600632505244" r="3.804662491369246" fill="#FFDE75" fill-opacity="0.4161084279734465" />
<circle cx="128.32998062923508" cy="89.87724309956721" r="3.017707874775768" fill="#FFDE75" fill-opacity="0.5685907078506417" />
<circle cx="68.30322211012565" cy="29.374219082395612" r="5.196486504152909" fill="#8B4513" fill-opacity="0.48028569264913856" />
<circle cx="54.266022175616776" cy="62.60741300556521" r="5.629178606896131" fill="#8B4513" fill-opacity="0.345302641049959" />
<circle cx="50.08166075111304" cy="151.39323673562834" r="5.966145205948941" fill="#D2691E" fill-opacity="0.3080271584570086" />
<circle cx="69.03105197755255" cy="102.62784549399119" r="3.601563363163549" fill="#FFDE75" fill-opacity="0.562204357336616" />
<circle cx="156.0865759392241" cy="40.46320774664183" r="2.84667678923111" fill="#FFFFFF" fill-opacity="0.3955358358355482" />
<circle cx="53.19301001894895" cy="70.45753079023143" r="5.034564894254681" fill="#8B4513" fill-opacity="0.35936878052340165" />
<circle cx="116.60991099358834" cy="26.875778388999407" r="5.5965751498888165" fill="#8B4513" fill-opacity="0.36854422894911143" />
<circle cx="183.23682312424796" cy="111.95038581255326" r="5.886631196852637" fill="#FFFFFF" fill-opacity="0.24049870781107857" />
<circle cx="32.59870578049414" cy="136.0963897769922" r="5.169771595256714" fill="#8B4513" fill-opacity="0.20505659961482367" />
<circle cx="83.99058380848282" cy="101.7250619973754" r="5.175365989213052" fill="#FFFFFF" fill-opacity="0.2262456642784664" />
<circle cx="99.82421554205287" cy="174.64356975745193" r="5.018578383724848" fill="#D2691E" fill-opacity="0.48436397920229474" />
<circle cx="150.58175229458908" cy="53.14419390043982" r="2.484578737716494" fill="#FFFFFF" fill-opacity="0.5329109455655651" />
<circle cx="103.86722857612682" cy="36.745752139630184" r="2.2618647151232696" fill="#8B4513" fill-opacity="0.31348788386831056" />
<circle cx="129.1451866546508" cy="24.166520259913327" r="5.316040222737154" fill="#D2691E" fill-opacity="0.47133784075433893" />
<circle cx="37.070488237389256" cy="94.2722375293598" r="2.898605966436424" fill="#8B4513" fill-opacity="0.5150733646352444" />
<circle cx="90.49369730267125" cy="84.11528786627379" r="3.089390315477928" fill="#D2691E" fill-opacity="0.481991462101123" />
<circle cx="127.5975750492967" cy="30.304651501339094" r="2.608336947983762" fill="#FFDE75" fill-opacity="0.5101872321307139" />
<circle cx="105.30860849482684" cy="165.18203291488987" r="4.632006945203165" fill="#8B4513" fill-opacity="0.44773505437282596" />
<circle cx="139.04856182253147" cy="88.52199365850767" r="2.9765237189292297" fill="#8B4513" fill-opacity="0.37426570160173" />
<circle cx="35.90880413048177" cy="86.2724990310244" r="3.6517117424293577" fill="#D2691E" fill-opacity="0.5108311741962224" />
<circle cx="42.45354145620582" cy="131.7547032571919" r="5.0601559927154804" fill="#FFDE75" fill-opacity="0.20132367817727292" />
<circle cx="92.19933093522371" cy="74.26681782008642" r="3.2529128495750066" fill="#FFDE75" fill-opacity="0.28645639908301124" />
<circle cx="184.48539046753945" cy="91.58737960428036" r="5.500857982458768" fill="#FFDE75" fill-opacity="0.574686190101696" />
<circle cx="160.03695831210993" cy="151.738270699516" r="4.308418813052123" fill="#D2691E" fill-opacity="0.5419061071510278" />
<circle cx="83.20630070212611" cy="94.63213038090387" r="3.5657458877378105" fill="#D2691E" fill-opacity="0.3506566818569744" />
<circle cx="189.10056434243666" cy="98.3810624426565" r="4.026309300119464" fill="#FFFFFF" fill-opacity="0.3560886297760817" />
<circle cx="38.7169248764547" cy="119.40807358998127" r="5.11186121022542" fill="#FFFFFF" fill-opacity="0.35968993203467303" />
<circle cx="52.63041050379195" cy="97.18136847742278" r="5.464986672711277" fill="#FFDE75" fill-opacity="0.46649519947962403" />
<circle cx="115.23914154144589" cy="125.35819519867637" r="3.3553545115479353" fill="#FFFFFF" fill-opacity="0.5651511877977216" />
<circle cx="168.1018080957337" cy="136.42788218349966" r="5.28771600130634" fill="#FFFFFF" fill-opacity="0.43536112961517703" />
<circle cx="85.95774628379866" cy="174.10549181184382" r="5.735810478186046" fill="#D2691E" fill-opacity="0.22948969439835665" />
<circle cx="61.89273419948762" cy="143.52615762216865" r="3.4890111548817706" fill="#FFFFFF" fill-opacity="0.27306188687179234" />
<circle cx="88.18425585925216" cy="163.0384512904251" r="4.348355108773218" fill="#FFFFFF" fill-opacity="0.4264019058772965" />
<circle cx="162.18736809236293" cy="150.52231430703236" r="4.1821502054529205" fill="#FFFFFF" fill-opacity="0.5295898334942635" />
<circle cx="53.754555124573514" cy="164.56793474246513" r="2.7649298013379413" fill="#FFFFFF" fill-opacity="0.5435888386203593" />
<circle cx="62.808374958336444" cy="109.29774091024458" r="4.012350732336042" fill="#8B4513" fill-opacity="0.328530812323257" />
<circle cx="174.1281019871211" cy="109.57793030411622" r="2.8290972351883625" fill="#FFFFFF" fill-opacity="0.26274145935764" />
<circle cx="81.03241412188123" cy="42.288111790816515" r="2.5403959671995637" fill="#D2691E" fill-opacity="0.5729783187977253" />
<circle cx="71.1722516039954" cy="123.0166039253752" r="2.994577880725789" fill="#8B4513" fill-opacity="0.42870777141585353" />
<circle cx="152.65224242118404" cy="42.865884966659316" r="4.295811596339766" fill="#FFDE75" fill-opacity="0.44057967700990297" />
<circle cx="90.85160716579728" cy="91.1932730504029" r="3.5184155674208597" fill="#8B4513" fill-opacity="0.35110497657717776" />
<circle cx="29.915191628404344" cy="118.30438757788924" r="4.424441218214153" fill="#8B4513" fill-opacity="0.4920925185940841" />
<circle cx="91.19586827903417" cy="169.6905019305779" r="5.048575795718035" fill="#8B4513" fill-opacity="0.5094118113269903" />
<circle cx="153.46221592394204" cy="151.7547305494014" r="3.1820701523973076" fill="#8B4513" fill-opacity="0.27540643687964317" />
<circle cx="101.77479756254505" cy="126.31244743349055" r="4.002728306427693" fill="#8B4513" fill-opacity="0.2762944024686738" />
<circle cx="71.41134342297929" cy="98.49436448396546" r="5.00279983725212" fill="#FFFFFF" fill-opacity="0.30904724093227903" />
<circle cx="59.49403038911716" cy="169.095484392416" r="3.1479716220376592" fill="#D2691E" fill-opacity="0.5711625834545863" />
<circle cx="144.88714474875707" cy="57.262853032102875" r="2.060531626420174" fill="#D2691E" fill-opacity="0.5255153075054395" />
<circle cx="135.34525149705016" cy="36.99099501085021" r="5.081042443335159" fill="#8B4513" fill-opacity="0.42450675717032627" />
<circle cx="41.94701829239285" cy="126.90920075179471" r="3.1404771450632465" fill="#8B4513" fill-opacity="0.4997036530138802" />
<circle cx="65.5576087679802" cy="68.68728861917702" r="2.0399865306251104" fill="#FFDE75" fill-opacity="0.4278167185591404" />
<circle cx="105.92002743119203" cy="150.82198157464578" r="2.4185586900265554" fill="#FFFFFF" fill-opacity="0.43371555894010394" />
<circle cx="129.83676265750222" cy="154.8478695438469" r="5.008410949572914" fill="#FFDE75" fill-opacity="0.2505841945454334" />
<circle cx="173.99621207301226" cy="149.84671837299288" r="5.535156396600621" fill="#D2691E" fill-opacity="0.5903456393542779" />
<circle cx="152.92242140264375" cy="107.43891153260701" r="2.701604121179374" fill="#D2691E" fill-opacity="0.31492433016214666" />
<circle cx="34.89821515237435" cy="128.1923552452936" r="3.2006714323924284" fill="#8B4513" fill-opacity="0.4720778955428676" />
<circle cx="127.67632642319322" cy="136.4580175568327" r="4.677407365224436" fill="#8B4513" fill-opacity="0.4810656983206302" />
<circle cx="99.53728760860058" cy="49.73938121140563" r="2.3099848887251975" fill="#8B4513" fill-opacity="0.2580183678208941" />
<circle cx="148.86667081072545" cy="51.392848429427076" r="2.4467662129528636" fill="#FFDE75" fill-opacity="0.33595809257964626" />
<circle cx="37.332018106983284" cy="64.45374711023601" r="3.6300408651656104" fill="#8B4513" fill-opacity="0.24477280068798063" />
<circle cx="125.27548433261603" cy="125.77036679280948" r="5.131902923953023" fill="#FFFFFF" fill-opacity="0.45948620847174215" />
<circle cx="64.84554197756782" cy="175.6306149518536" r="4.5094961044501485" fill="#FFFFFF" fill-opacity="0.5351337764499393" />
<circle cx="117.78693707107921" cy="181.32551430991646" r="4.431953164564211" fill="#D2691E" fill-opacity="0.5594942061280911" />
<circle cx="161.9683259648366" cy="45.46120313079461" r="3.288025376726499" fill="#FFFFFF" fill-opacity="0.5451609143976143" />
<circle cx="167.92169760059784" cy="124.1760318426332" r="2.5801847443123807" fill="#D2691E" fill-opacity="0.3612224176785713" />
<circle cx="177.1357764259274" cy="106.1914755717425" r="3.5715033923830988" fill="#FFDE75" fill-opacity="0.26584355904174106" />
<circle cx="34.33167930152672" cy="123.93282143124597" r="5.487981804040118" fill="#8B4513" fill-opacity="0.3685993746409626" />
<ellipse cx="137.01221868731764" cy="168.89224449862746" rx="8.96197775599034" ry="4.777223633701641" fill="#FFFDF0" fill-opacity="0.6" />
<ellipse cx="137.20169646708456" cy="168.05971363725746" rx="3.3663774468605103" ry="3.606928562537772" fill="#FFFFFF" fill-opacity="0.85" />
<ellipse cx="55.70180570701314" cy="130.9538574947378" rx="5.016254266942235" ry="7.074179194502491" fill="#FFFDF0" fill-opacity="0.6" />
<ellipse cx="55.16309335299469" cy="130.30054390450385" rx="2.755385637489184" ry="2.7930894608195236" fill="#FFFFFF" fill-opacity="0.85" />
<ellipse cx="75.9440890197491" cy="68.04111407000978" rx="6.852506739258212" ry="6.830919578233412" fill="#FFFDF0" fill-opacity="0.6" />
<ellipse cx="75.52886238965849" cy="67.76243098516728" rx="4.09675290511186" ry="2.3928425726803746" fill="#FFFFFF" fill-opacity="0.85" />
<ellipse cx="138.82384341881794" cy="81.98882210558654" rx="8.753233453402359" ry="6.9549206314397125" fill="#FFFDF0" fill-opacity="0.6" />
<ellipse cx="139.23414947551828" cy="81.62298143906341" rx="2.4879326784976445" ry="3.190166627159042" fill="#FFFFFF" fill-opacity="0.85" />
<ellipse cx="153.33183600095293" cy="68.78797468078567" rx="5.935091569716978" ry="4.314837991347882" fill="#FFFDF0" fill-opacity="0.6" />
<ellipse cx="152.48686498777954" cy="69.06913139404132" rx="3.219750350233085" ry="3.271992935668938" fill="#FFFFFF" fill-opacity="0.85" />
<ellipse cx="165.143248192644" cy="129.80369012228465" rx="8.266644361129842" ry="5.133380768009991" fill="#FFFDF0" fill-opacity="0.6" />
<ellipse cx="166.0341553719053" cy="130.25367526432572" rx="3.675346348222053" ry="3.9849521391495832" fill="#FFFFFF" fill-opacity="0.85" />
<ellipse cx="159.88581536923343" cy="90.94062979844303" rx="6.716854261106377" ry="5.741861994441142" fill="#FFFDF0" fill-opacity="0.6" />
<ellipse cx="160.22496733350158" cy="90.80460046091423" rx="4.771267427905883" ry="3.806243269958834" fill="#FFFFFF" fill-opacity="0.85" />
<ellipse cx="108.2377149007689" cy="31.050341205125747" rx="9.610939972929991" ry="8.606127476536397" fill="#FFFDF0" fill-opacity="0.6" />
<ellipse cx="107.89234442155366" cy="31.463231118693983" rx="2.133284499149994" ry="3.1841452265926593" fill="#FFFFFF" fill-opacity="0.85" />
<ellipse cx="123.66419843643209" cy="139.95194958401837" rx="6.217612738633202" ry="7.564102459576968" fill="#FFFDF0" fill-opacity="0.6" />
<ellipse cx="123.46848124430248" cy="139.02200900159372" rx="3.7998297462667407" ry="3.4118453362223593" fill="#FFFFFF" fill-opacity="0.85" />
<ellipse cx="103.49562819990079" cy="142.85460197078058" rx="5.692269701376406" ry="8.085720526704339" fill="#FFFDF0" fill-opacity="0.6" />
<ellipse cx="102.86321838534512" cy="141.925374138106" rx="4.855952086648241" ry="2.33456520896102" fill="#FFFFFF" fill-opacity="0.85" />
<ellipse cx="72.59485054136302" cy="81.64813548632534" rx="9.530216400906472" ry="5.513924699101734" fill="#FFFDF0" fill-opacity="0.6" />
<ellipse cx="72.16538206578828" cy="82.51740286068568" rx="2.534626390714113" ry="2.193607085484505" fill="#FFFFFF" fill-opacity="0.85" />
<ellipse cx="130.1590823542342" cy="89.40336025732128" rx="5.609612174437387" ry="7.073120910736694" fill="#FFFDF0" fill-opacity="0.6" />
<ellipse cx="130.7750988032156" cy="88.47006693016486" rx="4.271945790401412" ry="2.0792064826436203" fill="#FFFFFF" fill-opacity="0.85" />
<ellipse cx="33.19126044117168" cy="73.81519772959598" rx="9.356214743205546" ry="7.304159540039483" fill="#FFFDF0" fill-opacity="0.6" />
<ellipse cx="33.283254035742516" cy="74.41589282728071" rx="2.696643827301574" ry="3.438363174408586" fill="#FFFFFF" fill-opacity="0.85" />
<ellipse cx="168.8673322241777" cy="115.83845127141903" rx="9.349183095163035" ry="7.846062615529505" fill="#FFFDF0" fill-opacity="0.6" />
<ellipse cx="169.38972649583442" cy="115.23826621988275" rx="3.2421085864814705" ry="3.8457832703770554" fill="#FFFFFF" fill-opacity="0.85" />
<ellipse cx="88.89809204298689" cy="135.07210781661772" rx="9.840954808565465" ry="4.03523554623196" fill="#FFFDF0" fill-opacity="0.6" />
<ellipse cx="89.02228114032792" cy="135.17615652394863" rx="4.796592885484117" ry="3.7056849292218357" fill="#FFFFFF" fill-opacity="0.85" />
</g>
<path d="M105.0,105.0 L105.0,5.0" stroke="lightgray" stroke-width="2" />
<path d="M105.0,105.0 L200.10565162951536,74.09830056250526" stroke="lightgray" stroke-width="2" />
<path d="M105.0,105.0 L163.77852522924732,185.90169943749476" stroke="lightgray" stroke-width="2" />
<path d="M105.0,105.0 L46.2214747707527,185.90169943749476" stroke="lightgray" stroke-width="2" />
<path d="M105.0,105.0 L9.894348370484636,74.09830056250527" stroke="lightgray" stroke-width="2" />
<circle cx="105.0" cy="105.0" r="100" fill="none" stroke="lightgray" stroke-width="2" />
<rect x="230.0" y="41.0" width="54.0" height="54.0" fill="none" stroke="black" stroke-width="2" />
<rect x="230.0" y="115.0" width="54.0" height="54.0" fill="none" stroke="black" stroke-width="2" />
<path d="M225.0,105.0 L289.0,105.0" stroke="black" stroke-width="2" />
<text x="257.0" y="68.0" font-size="36" font-family="Comic Sans MS, Comic Sans, cursive" dominant-baseline="middle" fill="black" text-anchor="middle">5</text>
<text x="257.0" y="142.0" font-size="36" font-family="Comic Sans MS, Comic Sans, cursive" dominant-baseline="middle" fill="black" text-anchor="middle">5</text>
</g>
</svg>
<rect x="299.0" y="65.0" width="80" height="80" fill="none" stroke="black" stroke-width="1.5"/>
<svg x="394.0" y="0.0" width="284.0" height="210.0" viewBox="0 0 284.0 210" xmlns="http://www.w3.org/2000/svg" xmlns:xlink="http://www.w3.org/1999/xlink">
<defs>
<clipPath id="clip-4465917696-4530534608">
<path d="M105.0,105.0 L105.0,5.0 A100,100,0,0,1,200.10565162951536,74.09830056250526 Z" fill="none" />
</clipPath>
<clipPath id="clip-4465917696-4530531024">
<path d="M105.0,105.0 L200.10565162951536,74.09830056250526 A100,100,0,0,1,163.77852522924732,185.90169943749476 Z" fill="none" />
</clipPath>
<clipPath id="clip-4465917696-4530026064">
<path d="M105.0,105.0 L163.77852522924732,185.90169943749476 A100,100,0,0,1,46.2214747707527,185.90169943749476 Z" fill="none" />
</clipPath>
<clipPath id="clip-4465917696-4465617232">
<path d="M105.0,105.0 L46.2214747707527,185.90169943749476 A100,100,0,0,1,9.894348370484636,74.09830056250527 Z" fill="none" />
</clipPath>
</defs>
<g>
<path d="M105.0,105.0 L105.0,5.0 A100,100,0,0,1,200.10565162951536,74.09830056250526 Z" fill="none" stroke="lightgray" stroke-width="2" />
<path d="M105.0,105.0 L200.10565162951536,74.09830056250526 A100,100,0,0,1,163.77852522924732,185.90169943749476 Z" fill="none" stroke="lightgray" stroke-width="2" />
<path d="M105.0,105.0 L163.77852522924732,185.90169943749476 A100,100,0,0,1,46.2214747707527,185.90169943749476 Z" fill="none" stroke="lightgray" stroke-width="2" />
<path d="M105.0,105.0 L46.2214747707527,185.90169943749476 A100,100,0,0,1,9.894348370484636,74.09830056250527 Z" fill="none" stroke="lightgray" stroke-width="2" />
<path d="M105.0,105.0 L9.894348370484636,74.09830056250527 A100,100,0,0,1,104.99999999999999,5.0 Z" fill="none" stroke="lightgray" stroke-width="2" />
<path d="M105.0,105.0 L105.0,5.0 A100,100,0,0,1,200.10565162951536,74.09830056250526 Z" fill="#F5C754" stroke="lightgray" stroke-width="2" />
<use xlink:href="#clip-4465917696-4530534608" />
<g clip-path="url(#clip-4465917696-4530534608)">
<circle cx="105.0" cy="105.0" r="92" stroke="#DAA05D" stroke-width="16" fill="none" />
<circle cx="105.0" cy="105.0" r="98" stroke="#C37B32" stroke-width="5" fill="none" />
<circle cx="88.14928674216443" cy="143.91970973882167" r="3.9435363746543066" fill="#8B4513" fill-opacity="0.4911752860061674" />
<circle cx="39.08158156873132" cy="129.40298858484616" r="5.046535661244572" fill="#FFFFFF" fill-opacity="0.49802169499533494" />
<circle cx="67.65927750520478" cy="80.70834116271172" r="2.1039586319760843" fill="#FFDE75" fill-opacity="0.35385687312934955" />
<circle cx="37.06985854105348" cy="97.25378809197746" r="2.5926843102246306" fill="#FFFFFF" fill-opacity="0.5169527251538388" />
<circle cx="148.85047632272335" cy="151.17783027771532" r="4.379835047498174" fill="#8B4513" fill-opacity="0.2017629926145501" />
<circle cx="102.09933653035378" cy="30.388151889984186" r="4.953924251576435" fill="#FFDE75" fill-opacity="0.5242769613280678" />
<circle cx="26.906577284031783" cy="99.4369048357369" r="5.3761263897454175" fill="#D2691E" fill-opacity="0.27756356864773224" />
<circle cx="180.03756710133774" cy="81.47843107060415" r="2.4237248928722157" fill="#FFDE75" fill-opacity="0.38297700587363814" />
<circle cx="118.76645072001986" cy="58.29884342384339" r="4.4279888107081735" fill="#8B4513" fill-opacity="0.4025301642202922" />
<circle cx="55.52951626566984" cy="91.81157052186643" r="5.776607633546833" fill="#FFFFFF" fill-opacity="0.5472984940106562" />
<circle cx="99.82631475245786" cy="167.7216343045467" r="2.8319546055915583" fill="#FFFFFF" fill-opacity="0.545604550454842" />
<circle cx="150.6931462510395" cy="149.3363142168297" r="2.6843038025680293" fill="#FFFFFF" fill-opacity="0.4052544411148016" />
<circle cx="28.53166034285313" cy="102.64781207736804" r="2.5065191719047193" fill="#D2691E" fill-opacity="0.5325056526042042" />
<circle cx="124.77947165092702" cy="148.5970646981748" r="3.718072130696289" fill="#FFFFFF" fill-opacity="0.2973814647624736" />
<circle cx="70.46553108304167" cy="179.58754878666605" r="3.1220382691178346" fill="#D2691E" fill-opacity="0.54227403232042" />
<circle cx="103.73889550755075" cy="63.86425721628631" r="5.273641180729879" fill="#FFFFFF" fill-opacity="0.4785870596267328" />
<circle cx="51.43388925998581" cy="103.0681325190189" r="2.9588066701236437" fill="#8B4513" fill-opacity="0.28657985882661763" />
<circle cx="68.03593610249962" cy="174.08112661343654" r="5.152279750428956" fill="#D2691E" fill-opacity="0.5929964932682255" />
<circle cx="60.78569428994375" cy="176.9579265486011" r="4.389732084328756" fill="#FFDE75" fill-opacity="0.30342259222024415" />
<circle cx="71.19988931398443" cy="159.15879839531098" r="3.80617702182908" fill="#FFDE75" fill-opacity="0.23722454616862554" />
<circle cx="94.9925628959773" cy="154.38850733613313" r="2.071069351195015" fill="#FFFFFF" fill-opacity="0.41139431958877026" />
<circle cx="36.81510420365288" cy="55.021538118359274" r="5.850795718330099" fill="#8B4513" fill-opacity="0.20821314445688122" />
<circle cx="137.22939520174992" cy="43.5511348566361" r="4.807511617497582" fill="#D2691E" fill-opacity="0.5354265930859361" />
<circle cx="156.70414844101313" cy="67.0721779580083" r="5.415743772023173" fill="#FFDE75" fill-opacity="0.25287183525378626" />
<circle cx="99.82299117017355" cy="163.06655245480798" r="3.7318468220592136" fill="#8B4513" fill-opacity="0.5352635052823727" />
<circle cx="107.0407081785256" cy="102.64270223943178" r="2.414645680036142" fill="#8B4513" fill-opacity="0.3315116528597208" />
<circle cx="162.27499211663675" cy="145.822853514505" r="2.3738575485707747" fill="#D2691E" fill-opacity="0.29918796690996785" />
<circle cx="154.5607239192788" cy="128.0067573847058" r="3.649471692992851" fill="#8B4513" fill-opacity="0.25343573528996366" />
<circle cx="109.13617435917041" cy="36.323576010520014" r="2.877419138480221" fill="#D2691E" fill-opacity="0.43761928001665806" />
<circle cx="50.856764688114914" cy="99.03467035303706" r="2.628568324462329" fill="#FFFFFF" fill-opacity="0.5234518127746066" />
<circle cx="155.24930933480127" cy="165.80684453527158" r="2.472084830858202" fill="#D2691E" fill-opacity="0.42308994836799974" />
<circle cx="163.25498809454734" cy="145.3845277111859" r="2.933204780195376" fill="#FFFFFF" fill-opacity="0.5497497668282167" />
<circle cx="39.081770649803644" cy="117.30838084661099" r="4.416468004479276" fill="#8B4513" fill-opacity="0.3378288121206046" />
<circle cx="116.46790462815846" cy="66.76639790333411" r="4.191384304360042" fill="#FFDE75" fill-opacity="0.5915835790823134" />
<circle cx="115.73196941255604" cy="145.98683224500553" r="2.6994741061482275" fill="#FFFFFF" fill-opacity="0.3069429906418239" />
<circle cx="107.83545770300726" cy="109.68324234794933" r="4.365785655852469" fill="#FFDE75" fill-opacity="0.280638845979885" />
<circle cx="35.55583051339033" cy="112.9450664159563" r="3.0411668983601623" fill="#D2691E" fill-opacity="0.26822669971655744" />
<circle cx="118.57167664792001" cy="165.80991972339223" r="5.660519569644023" fill="#FFFFFF" fill-opacity="0.28515546672951964" />
<circle cx="89.3480440994848" cy="57.1927607631172" r="2.251164172964859" fill="#8B4513" fill-opacity="0.23778624904912557" />
<circle cx="150.28546844820488" cy="147.0122928628336" r="2.5775871053203008" fill="#FFDE75" fill-opacity="0.45433648217349326" />
<circle cx="65.93860298546379" cy="124.06928858700311" r="5.143014317706452" fill="#8B4513" fill-opacity="0.39976364279096777" />
<circle cx="66.43483467765691" cy="81.11922192563243" r="4.248827057084577" fill="#FFFFFF" fill-opacity="0.5918533449024485" />
<circle cx="99.4438573190936" cy="134.3354707723536" r="4.340845220637144" fill="#FFFFFF" fill-opacity="0.4869945605563118" />
<circle cx="110.35101141544581" cy="104.3444433766683" r="2.121937807257609" fill="#8B4513" fill-opacity="0.5394488840060547" />
<circle cx="92.12015638743665" cy="91.36734971388277" r="3.7562271676435173" fill="#FFDE75" fill-opacity="0.4700181376549585" />
<circle cx="131.1040371243222" cy="90.65424544782698" r="5.158083082696502" fill="#FFFFFF" fill-opacity="0.5343605282281192" />
<circle cx="144.4292939711917" cy="133.6563399200085" r="2.137255169933679" fill="#FFDE75" fill-opacity="0.2074776876999155" />
<circle cx="82.42163239135759" cy="68.5397559843906" r="3.0298569759682192" fill="#8B4513" fill-opacity="0.2760825714556771" />
<circle cx="153.9869678988423" cy="113.44285754126321" r="2.698230397975172" fill="#8B4513" fill-opacity="0.49162516950205465" />
<circle cx="166.20734360416782" cy="158.91491454785827" r="4.042321613069718" fill="#8B4513" fill-opacity="0.2619154010770014" />
<circle cx="42.421409040065804" cy="139.7520139197381" r="4.351810023949621" fill="#D2691E" fill-opacity="0.5204068087966303" />
<circle cx="119.27020642641759" cy="71.7150840266686" r="2.293289351106267" fill="#8B4513" fill-opacity="0.27006477858782446" />
<circle cx="130.72291574892455" cy="158.29370099757898" r="3.663500741109912" fill="#D2691E" fill-opacity="0.21071488106275926" />
<circle cx="33.82891699758913" cy="119.17922425067356" r="3.3684897036424637" fill="#D2691E" fill-opacity="0.5975111355080156" />
<circle cx="50.472377296748114" cy="100.87885217073256" r="3.5136669901541056" fill="#FFDE75" fill-opacity="0.271652732526593" />
<circle cx="93.73758460831739" cy="103.28947968363161" r="3.3430718433027438" fill="#FFFFFF" fill-opacity="0.23777263915290875" />
<circle cx="135.64239933720629" cy="35.30114327316241" r="3.6446885131295934" fill="#8B4513" fill-opacity="0.20597005977567068" />
<circle cx="134.57858841034016" cy="67.86275537340617" r="5.174706894041813" fill="#D2691E" fill-opacity="0.4673368287142826" />
<circle cx="122.42615605583342" cy="108.28120476426018" r="4.839834224042271" fill="#FFDE75" fill-opacity="0.3540846515207196" />
<circle cx="93.35894106555907" cy="42.730398414719794" r="3.819153632930632" fill="#FFDE75" fill-opacity="0.2823133428357866" />
<ellipse cx="52.9191558124016" cy="141.26514569434505" rx="7.687241450156305" ry="7.682252604129621" fill="#FFFDF0" fill-opacity="0.6" />
<ellipse cx="52.75157904934691" cy="140.81505888669608" rx="2.0818698418429022" ry="3.0290778201770814" fill="#FFFFFF" fill-opacity="0.85" />
<ellipse cx="140.40885827580865" cy="127.51885988983705" rx="6.833687109187167" ry="5.402389370077866" fill="#FFFDF0" fill-opacity="0.6" />
<ellipse cx="139.71971822236077" cy="127.04494727308908" rx="4.708459880035219" ry="2.481896559886321" fill="#FFFFFF" fill-opacity="0.85" />
<ellipse cx="154.05072818220623" cy="45.64207042865108" rx="9.964970548888562" ry="6.704359951361006" fill="#FFFDF0" fill-opacity="0.6" />
<ellipse cx="153.29028995204712" cy="46.15096034802917" rx="4.071103168028023" ry="3.949730482432743" fill="#FFFFFF" fill-opacity="0.85" />
<ellipse cx="81.16817639732957" cy="58.111563363234964" rx="6.0768500976181805" ry="8.221594350832472" fill="#FFFDF0" fill-opacity="0.6" />
<ellipse cx="81.2863378566886" cy="59.02884197171613" rx="4.138144728149479" ry="2.6328444036269145" fill="#FFFFFF" fill-opacity="0.85" />
<ellipse cx="66.48326026556555" cy="129.27746639794958" rx="6.169234052789599" ry="7.3545174555886215" fill="#FFFDF0" fill-opacity="0.6" />
<ellipse cx="66.65959295169542" cy="128.9096597948488" rx="4.671113214703391" ry="2.3503032658335075" fill="#FFFFFF" fill-opacity="0.85" />
<ellipse cx="171.1581329428941" cy="95.03677737376172" rx="5.187029412279137" ry="4.553110424507503" fill="#FFFDF0" fill-opacity="0.6" />
<ellipse cx="170.790309514541" cy="95.64640865824843" rx="3.723946965645962" ry="2.9248204631664407" fill="#FFFFFF" fill-opacity="0.85" />
<ellipse cx="146.09148222308184" cy="54.90686254595186" rx="5.949274112448825" ry="4.563300787237234" fill="#FFFDF0" fill-opacity="0.6" />
<ellipse cx="146.63701766760997" cy="55.85837836642028" rx="3.6770193136003524" ry="3.967305091691637" fill="#FFFFFF" fill-opacity="0.85" />
<ellipse cx="44.67410513676515" cy="107.08869494507174" rx="7.9004287623109555" ry="7.67577271192381" fill="#FFFDF0" fill-opacity="0.6" />
<ellipse cx="44.39905063828429" cy="106.45758290342003" rx="4.810782353660288" ry="3.223584278791864" fill="#FFFFFF" fill-opacity="0.85" />
<ellipse cx="104.82804862414413" cy="104.877433891824" rx="5.015097451375769" ry="8.377399095944533" fill="#FFFDF0" fill-opacity="0.6" />
<ellipse cx="104.29154187238974" cy="105.09595511248699" rx="4.242659896987616" ry="2.0703632878343434" fill="#FFFFFF" fill-opacity="0.85" />
<ellipse cx="113.42157199267032" cy="140.14768967121296" rx="8.555269531945036" ry="7.2844193966996675" fill="#FFFDF0" fill-opacity="0.6" />
<ellipse cx="114.34504698932415" cy="140.54409491432077" rx="4.531711085452542" ry="3.3978067967446637" fill="#FFFFFF" fill-opacity="0.85" />
<ellipse cx="70.85555342327592" cy="173.5154106299288" rx="5.59417838313723" ry="5.003239467837179" fill="#FFFDF0" fill-opacity="0.6" />
<ellipse cx="70.65732591990259" cy="174.2895000444819" rx="2.911110892904886" ry="3.743769192660127" fill="#FFFFFF" fill-opacity="0.85" />
<ellipse cx="177.86661745203162" cy="108.03646298053252" rx="8.00796331632795" ry="4.658409523629493" fill="#FFFDF0" fill-opacity="0.6" />
<ellipse cx="178.02675907492542" cy="107.74825659726166" rx="2.885964294648881" ry="2.010730997475926" fill="#FFFFFF" fill-opacity="0.85" />
</g>
<path d="M105.0,105.0 L200.10565162951536,74.09830056250526 A100,100,0,0,1,163.77852522924732,185.90169943749476 Z" fill="#F5C754" stroke="lightgray" stroke-width="2" />
<use xlink:href="#clip-4465917696-4530531024" />
<g clip-path="url(#clip-4465917696-4530531024)">
<circle cx="105.0" cy="105.0" r="92" stroke="#DAA05D" stroke-width="16" fill="none" />
<circle cx="105.0" cy="105.0" r="98" stroke="#C37B32" stroke-width="5" fill="none" />
<circle cx="88.14928674216443" cy="143.91970973882167" r="3.9435363746543066" fill="#8B4513" fill-opacity="0.4911752860061674" />
<circle cx="39.08158156873132" cy="129.40298858484616" r="5.046535661244572" fill="#FFFFFF" fill-opacity="0.49802169499533494" />
<circle cx="67.65927750520478" cy="80.70834116271172" r="2.1039586319760843" fill="#FFDE75" fill-opacity="0.35385687312934955" />
<circle cx="37.06985854105348" cy="97.25378809197746" r="2.5926843102246306" fill="#FFFFFF" fill-opacity="0.5169527251538388" />
<circle cx="148.85047632272335" cy="151.17783027771532" r="4.379835047498174" fill="#8B4513" fill-opacity="0.2017629926145501" />
<circle cx="102.09933653035378" cy="30.388151889984186" r="4.953924251576435" fill="#FFDE75" fill-opacity="0.5242769613280678" />
<circle cx="26.906577284031783" cy="99.4369048357369" r="5.3761263897454175" fill="#D2691E" fill-opacity="0.27756356864773224" />
<circle cx="180.03756710133774" cy="81.47843107060415" r="2.4237248928722157" fill="#FFDE75" fill-opacity="0.38297700587363814" />
<circle cx="118.76645072001986" cy="58.29884342384339" r="4.4279888107081735" fill="#8B4513" fill-opacity="0.4025301642202922" />
<circle cx="55.52951626566984" cy="91.81157052186643" r="5.776607633546833" fill="#FFFFFF" fill-opacity="0.5472984940106562" />
<circle cx="99.82631475245786" cy="167.7216343045467" r="2.8319546055915583" fill="#FFFFFF" fill-opacity="0.545604550454842" />
<circle cx="150.6931462510395" cy="149.3363142168297" r="2.6843038025680293" fill="#FFFFFF" fill-opacity="0.4052544411148016" />
<circle cx="28.53166034285313" cy="102.64781207736804" r="2.5065191719047193" fill="#D2691E" fill-opacity="0.5325056526042042" />
<circle cx="124.77947165092702" cy="148.5970646981748" r="3.718072130696289" fill="#FFFFFF" fill-opacity="0.2973814647624736" />
<circle cx="70.46553108304167" cy="179.58754878666605" r="3.1220382691178346" fill="#D2691E" fill-opacity="0.54227403232042" />
<circle cx="103.73889550755075" cy="63.86425721628631" r="5.273641180729879" fill="#FFFFFF" fill-opacity="0.4785870596267328" />
<circle cx="51.43388925998581" cy="103.0681325190189" r="2.9588066701236437" fill="#8B4513" fill-opacity="0.28657985882661763" />
<circle cx="68.03593610249962" cy="174.08112661343654" r="5.152279750428956" fill="#D2691E" fill-opacity="0.5929964932682255" />
<circle cx="60.78569428994375" cy="176.9579265486011" r="4.389732084328756" fill="#FFDE75" fill-opacity="0.30342259222024415" />
<circle cx="71.19988931398443" cy="159.15879839531098" r="3.80617702182908" fill="#FFDE75" fill-opacity="0.23722454616862554" />
<circle cx="94.9925628959773" cy="154.38850733613313" r="2.071069351195015" fill="#FFFFFF" fill-opacity="0.41139431958877026" />
<circle cx="36.81510420365288" cy="55.021538118359274" r="5.850795718330099" fill="#8B4513" fill-opacity="0.20821314445688122" />
<circle cx="137.22939520174992" cy="43.5511348566361" r="4.807511617497582" fill="#D2691E" fill-opacity="0.5354265930859361" />
<circle cx="156.70414844101313" cy="67.0721779580083" r="5.415743772023173" fill="#FFDE75" fill-opacity="0.25287183525378626" />
<circle cx="99.82299117017355" cy="163.06655245480798" r="3.7318468220592136" fill="#8B4513" fill-opacity="0.5352635052823727" />
<circle cx="107.0407081785256" cy="102.64270223943178" r="2.414645680036142" fill="#8B4513" fill-opacity="0.3315116528597208" />
<circle cx="162.27499211663675" cy="145.822853514505" r="2.3738575485707747" fill="#D2691E" fill-opacity="0.29918796690996785" />
<circle cx="154.5607239192788" cy="128.0067573847058" r="3.649471692992851" fill="#8B4513" fill-opacity="0.25343573528996366" />
<circle cx="109.13617435917041" cy="36.323576010520014" r="2.877419138480221" fill="#D2691E" fill-opacity="0.43761928001665806" />
<circle cx="50.856764688114914" cy="99.03467035303706" r="2.628568324462329" fill="#FFFFFF" fill-opacity="0.5234518127746066" />
<circle cx="155.24930933480127" cy="165.80684453527158" r="2.472084830858202" fill="#D2691E" fill-opacity="0.42308994836799974" />
<circle cx="163.25498809454734" cy="145.3845277111859" r="2.933204780195376" fill="#FFFFFF" fill-opacity="0.5497497668282167" />
<circle cx="39.081770649803644" cy="117.30838084661099" r="4.416468004479276" fill="#8B4513" fill-opacity="0.3378288121206046" />
<circle cx="116.46790462815846" cy="66.76639790333411" r="4.191384304360042" fill="#FFDE75" fill-opacity="0.5915835790823134" />
<circle cx="115.73196941255604" cy="145.98683224500553" r="2.6994741061482275" fill="#FFFFFF" fill-opacity="0.3069429906418239" />
<circle cx="107.83545770300726" cy="109.68324234794933" r="4.365785655852469" fill="#FFDE75" fill-opacity="0.280638845979885" />
<circle cx="35.55583051339033" cy="112.9450664159563" r="3.0411668983601623" fill="#D2691E" fill-opacity="0.26822669971655744" />
<circle cx="118.57167664792001" cy="165.80991972339223" r="5.660519569644023" fill="#FFFFFF" fill-opacity="0.28515546672951964" />
<circle cx="89.3480440994848" cy="57.1927607631172" r="2.251164172964859" fill="#8B4513" fill-opacity="0.23778624904912557" />
<circle cx="150.28546844820488" cy="147.0122928628336" r="2.5775871053203008" fill="#FFDE75" fill-opacity="0.45433648217349326" />
<circle cx="65.93860298546379" cy="124.06928858700311" r="5.143014317706452" fill="#8B4513" fill-opacity="0.39976364279096777" />
<circle cx="66.43483467765691" cy="81.11922192563243" r="4.248827057084577" fill="#FFFFFF" fill-opacity="0.5918533449024485" />
<circle cx="99.4438573190936" cy="134.3354707723536" r="4.340845220637144" fill="#FFFFFF" fill-opacity="0.4869945605563118" />
<circle cx="110.35101141544581" cy="104.3444433766683" r="2.121937807257609" fill="#8B4513" fill-opacity="0.5394488840060547" />
<circle cx="92.12015638743665" cy="91.36734971388277" r="3.7562271676435173" fill="#FFDE75" fill-opacity="0.4700181376549585" />
<circle cx="131.1040371243222" cy="90.65424544782698" r="5.158083082696502" fill="#FFFFFF" fill-opacity="0.5343605282281192" />
<circle cx="144.4292939711917" cy="133.6563399200085" r="2.137255169933679" fill="#FFDE75" fill-opacity="0.2074776876999155" />
<circle cx="82.42163239135759" cy="68.5397559843906" r="3.0298569759682192" fill="#8B4513" fill-opacity="0.2760825714556771" />
<circle cx="153.9869678988423" cy="113.44285754126321" r="2.698230397975172" fill="#8B4513" fill-opacity="0.49162516950205465" />
<circle cx="166.20734360416782" cy="158.91491454785827" r="4.042321613069718" fill="#8B4513" fill-opacity="0.2619154010770014" />
<circle cx="42.421409040065804" cy="139.7520139197381" r="4.351810023949621" fill="#D2691E" fill-opacity="0.5204068087966303" />
<circle cx="119.27020642641759" cy="71.7150840266686" r="2.293289351106267" fill="#8B4513" fill-opacity="0.27006477858782446" />
<circle cx="130.72291574892455" cy="158.29370099757898" r="3.663500741109912" fill="#D2691E" fill-opacity="0.21071488106275926" />
<circle cx="33.82891699758913" cy="119.17922425067356" r="3.3684897036424637" fill="#D2691E" fill-opacity="0.5975111355080156" />
<circle cx="50.472377296748114" cy="100.87885217073256" r="3.5136669901541056" fill="#FFDE75" fill-opacity="0.271652732526593" />
<circle cx="93.73758460831739" cy="103.28947968363161" r="3.3430718433027438" fill="#FFFFFF" fill-opacity="0.23777263915290875" />
<circle cx="135.64239933720629" cy="35.30114327316241" r="3.6446885131295934" fill="#8B4513" fill-opacity="0.20597005977567068" />
<circle cx="134.57858841034016" cy="67.86275537340617" r="5.174706894041813" fill="#D2691E" fill-opacity="0.4673368287142826" />
<circle cx="122.42615605583342" cy="108.28120476426018" r="4.839834224042271" fill="#FFDE75" fill-opacity="0.3540846515207196" />
<circle cx="93.35894106555907" cy="42.730398414719794" r="3.819153632930632" fill="#FFDE75" fill-opacity="0.2823133428357866" />
<ellipse cx="52.9191558124016" cy="141.26514569434505" rx="7.687241450156305" ry="7.682252604129621" fill="#FFFDF0" fill-opacity="0.6" />
<ellipse cx="52.75157904934691" cy="140.81505888669608" rx="2.0818698418429022" ry="3.0290778201770814" fill="#FFFFFF" fill-opacity="0.85" />
<ellipse cx="140.40885827580865" cy="127.51885988983705" rx="6.833687109187167" ry="5.402389370077866" fill="#FFFDF0" fill-opacity="0.6" />
<ellipse cx="139.71971822236077" cy="127.04494727308908" rx="4.708459880035219" ry="2.481896559886321" fill="#FFFFFF" fill-opacity="0.85" />
<ellipse cx="154.05072818220623" cy="45.64207042865108" rx="9.964970548888562" ry="6.704359951361006" fill="#FFFDF0" fill-opacity="0.6" />
<ellipse cx="153.29028995204712" cy="46.15096034802917" rx="4.071103168028023" ry="3.949730482432743" fill="#FFFFFF" fill-opacity="0.85" />
<ellipse cx="81.16817639732957" cy="58.111563363234964" rx="6.0768500976181805" ry="8.221594350832472" fill="#FFFDF0" fill-opacity="0.6" />
<ellipse cx="81.2863378566886" cy="59.02884197171613" rx="4.138144728149479" ry="2.6328444036269145" fill="#FFFFFF" fill-opacity="0.85" />
<ellipse cx="66.48326026556555" cy="129.27746639794958" rx="6.169234052789599" ry="7.3545174555886215" fill="#FFFDF0" fill-opacity="0.6" />
<ellipse cx="66.65959295169542" cy="128.9096597948488" rx="4.671113214703391" ry="2.3503032658335075" fill="#FFFFFF" fill-opacity="0.85" />
<ellipse cx="171.1581329428941" cy="95.03677737376172" rx="5.187029412279137" ry="4.553110424507503" fill="#FFFDF0" fill-opacity="0.6" />
<ellipse cx="170.790309514541" cy="95.64640865824843" rx="3.723946965645962" ry="2.9248204631664407" fill="#FFFFFF" fill-opacity="0.85" />
<ellipse cx="146.09148222308184" cy="54.90686254595186" rx="5.949274112448825" ry="4.563300787237234" fill="#FFFDF0" fill-opacity="0.6" />
<ellipse cx="146.63701766760997" cy="55.85837836642028" rx="3.6770193136003524" ry="3.967305091691637" fill="#FFFFFF" fill-opacity="0.85" />
<ellipse cx="44.67410513676515" cy="107.08869494507174" rx="7.9004287623109555" ry="7.67577271192381" fill="#FFFDF0" fill-opacity="0.6" />
<ellipse cx="44.39905063828429" cy="106.45758290342003" rx="4.810782353660288" ry="3.223584278791864" fill="#FFFFFF" fill-opacity="0.85" />
<ellipse cx="104.82804862414413" cy="104.877433891824" rx="5.015097451375769" ry="8.377399095944533" fill="#FFFDF0" fill-opacity="0.6" />
<ellipse cx="104.29154187238974" cy="105.09595511248699" rx="4.242659896987616" ry="2.0703632878343434" fill="#FFFFFF" fill-opacity="0.85" />
<ellipse cx="113.42157199267032" cy="140.14768967121296" rx="8.555269531945036" ry="7.2844193966996675" fill="#FFFDF0" fill-opacity="0.6" />
<ellipse cx="114.34504698932415" cy="140.54409491432077" rx="4.531711085452542" ry="3.3978067967446637" fill="#FFFFFF" fill-opacity="0.85" />
<ellipse cx="70.85555342327592" cy="173.5154106299288" rx="5.59417838313723" ry="5.003239467837179" fill="#FFFDF0" fill-opacity="0.6" />
<ellipse cx="70.65732591990259" cy="174.2895000444819" rx="2.911110892904886" ry="3.743769192660127" fill="#FFFFFF" fill-opacity="0.85" />
<ellipse cx="177.86661745203162" cy="108.03646298053252" rx="8.00796331632795" ry="4.658409523629493" fill="#FFFDF0" fill-opacity="0.6" />
<ellipse cx="178.02675907492542" cy="107.74825659726166" rx="2.885964294648881" ry="2.010730997475926" fill="#FFFFFF" fill-opacity="0.85" />
</g>
<path d="M105.0,105.0 L163.77852522924732,185.90169943749476 A100,100,0,0,1,46.2214747707527,185.90169943749476 Z" fill="#F5C754" stroke="lightgray" stroke-width="2" />
<use xlink:href="#clip-4465917696-4530026064" />
<g clip-path="url(#clip-4465917696-4530026064)">
<circle cx="105.0" cy="105.0" r="92" stroke="#DAA05D" stroke-width="16" fill="none" />
<circle cx="105.0" cy="105.0" r="98" stroke="#C37B32" stroke-width="5" fill="none" />
<circle cx="88.14928674216443" cy="143.91970973882167" r="3.9435363746543066" fill="#8B4513" fill-opacity="0.4911752860061674" />
<circle cx="39.08158156873132" cy="129.40298858484616" r="5.046535661244572" fill="#FFFFFF" fill-opacity="0.49802169499533494" />
<circle cx="67.65927750520478" cy="80.70834116271172" r="2.1039586319760843" fill="#FFDE75" fill-opacity="0.35385687312934955" />
<circle cx="37.06985854105348" cy="97.25378809197746" r="2.5926843102246306" fill="#FFFFFF" fill-opacity="0.5169527251538388" />
<circle cx="148.85047632272335" cy="151.17783027771532" r="4.379835047498174" fill="#8B4513" fill-opacity="0.2017629926145501" />
<circle cx="102.09933653035378" cy="30.388151889984186" r="4.953924251576435" fill="#FFDE75" fill-opacity="0.5242769613280678" />
<circle cx="26.906577284031783" cy="99.4369048357369" r="5.3761263897454175" fill="#D2691E" fill-opacity="0.27756356864773224" />
<circle cx="180.03756710133774" cy="81.47843107060415" r="2.4237248928722157" fill="#FFDE75" fill-opacity="0.38297700587363814" />
<circle cx="118.76645072001986" cy="58.29884342384339" r="4.4279888107081735" fill="#8B4513" fill-opacity="0.4025301642202922" />
<circle cx="55.52951626566984" cy="91.81157052186643" r="5.776607633546833" fill="#FFFFFF" fill-opacity="0.5472984940106562" />
<circle cx="99.82631475245786" cy="167.7216343045467" r="2.8319546055915583" fill="#FFFFFF" fill-opacity="0.545604550454842" />
<circle cx="150.6931462510395" cy="149.3363142168297" r="2.6843038025680293" fill="#FFFFFF" fill-opacity="0.4052544411148016" />
<circle cx="28.53166034285313" cy="102.64781207736804" r="2.5065191719047193" fill="#D2691E" fill-opacity="0.5325056526042042" />
<circle cx="124.77947165092702" cy="148.5970646981748" r="3.718072130696289" fill="#FFFFFF" fill-opacity="0.2973814647624736" />
<circle cx="70.46553108304167" cy="179.58754878666605" r="3.1220382691178346" fill="#D2691E" fill-opacity="0.54227403232042" />
<circle cx="103.73889550755075" cy="63.86425721628631" r="5.273641180729879" fill="#FFFFFF" fill-opacity="0.4785870596267328" />
<circle cx="51.43388925998581" cy="103.0681325190189" r="2.9588066701236437" fill="#8B4513" fill-opacity="0.28657985882661763" />
<circle cx="68.03593610249962" cy="174.08112661343654" r="5.152279750428956" fill="#D2691E" fill-opacity="0.5929964932682255" />
<circle cx="60.78569428994375" cy="176.9579265486011" r="4.389732084328756" fill="#FFDE75" fill-opacity="0.30342259222024415" />
<circle cx="71.19988931398443" cy="159.15879839531098" r="3.80617702182908" fill="#FFDE75" fill-opacity="0.23722454616862554" />
<circle cx="94.9925628959773" cy="154.38850733613313" r="2.071069351195015" fill="#FFFFFF" fill-opacity="0.41139431958877026" />
<circle cx="36.81510420365288" cy="55.021538118359274" r="5.850795718330099" fill="#8B4513" fill-opacity="0.20821314445688122" />
<circle cx="137.22939520174992" cy="43.5511348566361" r="4.807511617497582" fill="#D2691E" fill-opacity="0.5354265930859361" />
<circle cx="156.70414844101313" cy="67.0721779580083" r="5.415743772023173" fill="#FFDE75" fill-opacity="0.25287183525378626" />
<circle cx="99.82299117017355" cy="163.06655245480798" r="3.7318468220592136" fill="#8B4513" fill-opacity="0.5352635052823727" />
<circle cx="107.0407081785256" cy="102.64270223943178" r="2.414645680036142" fill="#8B4513" fill-opacity="0.3315116528597208" />
<circle cx="162.27499211663675" cy="145.822853514505" r="2.3738575485707747" fill="#D2691E" fill-opacity="0.29918796690996785" />
<circle cx="154.5607239192788" cy="128.0067573847058" r="3.649471692992851" fill="#8B4513" fill-opacity="0.25343573528996366" />
<circle cx="109.13617435917041" cy="36.323576010520014" r="2.877419138480221" fill="#D2691E" fill-opacity="0.43761928001665806" />
<circle cx="50.856764688114914" cy="99.03467035303706" r="2.628568324462329" fill="#FFFFFF" fill-opacity="0.5234518127746066" />
<circle cx="155.24930933480127" cy="165.80684453527158" r="2.472084830858202" fill="#D2691E" fill-opacity="0.42308994836799974" />
<circle cx="163.25498809454734" cy="145.3845277111859" r="2.933204780195376" fill="#FFFFFF" fill-opacity="0.5497497668282167" />
<circle cx="39.081770649803644" cy="117.30838084661099" r="4.416468004479276" fill="#8B4513" fill-opacity="0.3378288121206046" />
<circle cx="116.46790462815846" cy="66.76639790333411" r="4.191384304360042" fill="#FFDE75" fill-opacity="0.5915835790823134" />
<circle cx="115.73196941255604" cy="145.98683224500553" r="2.6994741061482275" fill="#FFFFFF" fill-opacity="0.3069429906418239" />
<circle cx="107.83545770300726" cy="109.68324234794933" r="4.365785655852469" fill="#FFDE75" fill-opacity="0.280638845979885" />
<circle cx="35.55583051339033" cy="112.9450664159563" r="3.0411668983601623" fill="#D2691E" fill-opacity="0.26822669971655744" />
<circle cx="118.57167664792001" cy="165.80991972339223" r="5.660519569644023" fill="#FFFFFF" fill-opacity="0.28515546672951964" />
<circle cx="89.3480440994848" cy="57.1927607631172" r="2.251164172964859" fill="#8B4513" fill-opacity="0.23778624904912557" />
<circle cx="150.28546844820488" cy="147.0122928628336" r="2.5775871053203008" fill="#FFDE75" fill-opacity="0.45433648217349326" />
<circle cx="65.93860298546379" cy="124.06928858700311" r="5.143014317706452" fill="#8B4513" fill-opacity="0.39976364279096777" />
<circle cx="66.43483467765691" cy="81.11922192563243" r="4.248827057084577" fill="#FFFFFF" fill-opacity="0.5918533449024485" />
<circle cx="99.4438573190936" cy="134.3354707723536" r="4.340845220637144" fill="#FFFFFF" fill-opacity="0.4869945605563118" />
<circle cx="110.35101141544581" cy="104.3444433766683" r="2.121937807257609" fill="#8B4513" fill-opacity="0.5394488840060547" />
<circle cx="92.12015638743665" cy="91.36734971388277" r="3.7562271676435173" fill="#FFDE75" fill-opacity="0.4700181376549585" />
<circle cx="131.1040371243222" cy="90.65424544782698" r="5.158083082696502" fill="#FFFFFF" fill-opacity="0.5343605282281192" />
<circle cx="144.4292939711917" cy="133.6563399200085" r="2.137255169933679" fill="#FFDE75" fill-opacity="0.2074776876999155" />
<circle cx="82.42163239135759" cy="68.5397559843906" r="3.0298569759682192" fill="#8B4513" fill-opacity="0.2760825714556771" />
<circle cx="153.9869678988423" cy="113.44285754126321" r="2.698230397975172" fill="#8B4513" fill-opacity="0.49162516950205465" />
<circle cx="166.20734360416782" cy="158.91491454785827" r="4.042321613069718" fill="#8B4513" fill-opacity="0.2619154010770014" />
<circle cx="42.421409040065804" cy="139.7520139197381" r="4.351810023949621" fill="#D2691E" fill-opacity="0.5204068087966303" />
<circle cx="119.27020642641759" cy="71.7150840266686" r="2.293289351106267" fill="#8B4513" fill-opacity="0.27006477858782446" />
<circle cx="130.72291574892455" cy="158.29370099757898" r="3.663500741109912" fill="#D2691E" fill-opacity="0.21071488106275926" />
<circle cx="33.82891699758913" cy="119.17922425067356" r="3.3684897036424637" fill="#D2691E" fill-opacity="0.5975111355080156" />
<circle cx="50.472377296748114" cy="100.87885217073256" r="3.5136669901541056" fill="#FFDE75" fill-opacity="0.271652732526593" />
<circle cx="93.73758460831739" cy="103.28947968363161" r="3.3430718433027438" fill="#FFFFFF" fill-opacity="0.23777263915290875" />
<circle cx="135.64239933720629" cy="35.30114327316241" r="3.6446885131295934" fill="#8B4513" fill-opacity="0.20597005977567068" />
<circle cx="134.57858841034016" cy="67.86275537340617" r="5.174706894041813" fill="#D2691E" fill-opacity="0.4673368287142826" />
<circle cx="122.42615605583342" cy="108.28120476426018" r="4.839834224042271" fill="#FFDE75" fill-opacity="0.3540846515207196" />
<circle cx="93.35894106555907" cy="42.730398414719794" r="3.819153632930632" fill="#FFDE75" fill-opacity="0.2823133428357866" />
<ellipse cx="52.9191558124016" cy="141.26514569434505" rx="7.687241450156305" ry="7.682252604129621" fill="#FFFDF0" fill-opacity="0.6" />
<ellipse cx="52.75157904934691" cy="140.81505888669608" rx="2.0818698418429022" ry="3.0290778201770814" fill="#FFFFFF" fill-opacity="0.85" />
<ellipse cx="140.40885827580865" cy="127.51885988983705" rx="6.833687109187167" ry="5.402389370077866" fill="#FFFDF0" fill-opacity="0.6" />
<ellipse cx="139.71971822236077" cy="127.04494727308908" rx="4.708459880035219" ry="2.481896559886321" fill="#FFFFFF" fill-opacity="0.85" />
<ellipse cx="154.05072818220623" cy="45.64207042865108" rx="9.964970548888562" ry="6.704359951361006" fill="#FFFDF0" fill-opacity="0.6" />
<ellipse cx="153.29028995204712" cy="46.15096034802917" rx="4.071103168028023" ry="3.949730482432743" fill="#FFFFFF" fill-opacity="0.85" />
<ellipse cx="81.16817639732957" cy="58.111563363234964" rx="6.0768500976181805" ry="8.221594350832472" fill="#FFFDF0" fill-opacity="0.6" />
<ellipse cx="81.2863378566886" cy="59.02884197171613" rx="4.138144728149479" ry="2.6328444036269145" fill="#FFFFFF" fill-opacity="0.85" />
<ellipse cx="66.48326026556555" cy="129.27746639794958" rx="6.169234052789599" ry="7.3545174555886215" fill="#FFFDF0" fill-opacity="0.6" />
<ellipse cx="66.65959295169542" cy="128.9096597948488" rx="4.671113214703391" ry="2.3503032658335075" fill="#FFFFFF" fill-opacity="0.85" />
<ellipse cx="171.1581329428941" cy="95.03677737376172" rx="5.187029412279137" ry="4.553110424507503" fill="#FFFDF0" fill-opacity="0.6" />
<ellipse cx="170.790309514541" cy="95.64640865824843" rx="3.723946965645962" ry="2.9248204631664407" fill="#FFFFFF" fill-opacity="0.85" />
<ellipse cx="146.09148222308184" cy="54.90686254595186" rx="5.949274112448825" ry="4.563300787237234" fill="#FFFDF0" fill-opacity="0.6" />
<ellipse cx="146.63701766760997" cy="55.85837836642028" rx="3.6770193136003524" ry="3.967305091691637" fill="#FFFFFF" fill-opacity="0.85" />
<ellipse cx="44.67410513676515" cy="107.08869494507174" rx="7.9004287623109555" ry="7.67577271192381" fill="#FFFDF0" fill-opacity="0.6" />
<ellipse cx="44.39905063828429" cy="106.45758290342003" rx="4.810782353660288" ry="3.223584278791864" fill="#FFFFFF" fill-opacity="0.85" />
<ellipse cx="104.82804862414413" cy="104.877433891824" rx="5.015097451375769" ry="8.377399095944533" fill="#FFFDF0" fill-opacity="0.6" />
<ellipse cx="104.29154187238974" cy="105.09595511248699" rx="4.242659896987616" ry="2.0703632878343434" fill="#FFFFFF" fill-opacity="0.85" />
<ellipse cx="113.42157199267032" cy="140.14768967121296" rx="8.555269531945036" ry="7.2844193966996675" fill="#FFFDF0" fill-opacity="0.6" />
<ellipse cx="114.34504698932415" cy="140.54409491432077" rx="4.531711085452542" ry="3.3978067967446637" fill="#FFFFFF" fill-opacity="0.85" />
<ellipse cx="70.85555342327592" cy="173.5154106299288" rx="5.59417838313723" ry="5.003239467837179" fill="#FFFDF0" fill-opacity="0.6" />
<ellipse cx="70.65732591990259" cy="174.2895000444819" rx="2.911110892904886" ry="3.743769192660127" fill="#FFFFFF" fill-opacity="0.85" />
<ellipse cx="177.86661745203162" cy="108.03646298053252" rx="8.00796331632795" ry="4.658409523629493" fill="#FFFDF0" fill-opacity="0.6" />
<ellipse cx="178.02675907492542" cy="107.74825659726166" rx="2.885964294648881" ry="2.010730997475926" fill="#FFFFFF" fill-opacity="0.85" />
</g>
<path d="M105.0,105.0 L46.2214747707527,185.90169943749476 A100,100,0,0,1,9.894348370484636,74.09830056250527 Z" fill="#F5C754" stroke="lightgray" stroke-width="2" />
<use xlink:href="#clip-4465917696-4465617232" />
<g clip-path="url(#clip-4465917696-4465617232)">
<circle cx="105.0" cy="105.0" r="92" stroke="#DAA05D" stroke-width="16" fill="none" />
<circle cx="105.0" cy="105.0" r="98" stroke="#C37B32" stroke-width="5" fill="none" />
<circle cx="88.14928674216443" cy="143.91970973882167" r="3.9435363746543066" fill="#8B4513" fill-opacity="0.4911752860061674" />
<circle cx="39.08158156873132" cy="129.40298858484616" r="5.046535661244572" fill="#FFFFFF" fill-opacity="0.49802169499533494" />
<circle cx="67.65927750520478" cy="80.70834116271172" r="2.1039586319760843" fill="#FFDE75" fill-opacity="0.35385687312934955" />
<circle cx="37.06985854105348" cy="97.25378809197746" r="2.5926843102246306" fill="#FFFFFF" fill-opacity="0.5169527251538388" />
<circle cx="148.85047632272335" cy="151.17783027771532" r="4.379835047498174" fill="#8B4513" fill-opacity="0.2017629926145501" />
<circle cx="102.09933653035378" cy="30.388151889984186" r="4.953924251576435" fill="#FFDE75" fill-opacity="0.5242769613280678" />
<circle cx="26.906577284031783" cy="99.4369048357369" r="5.3761263897454175" fill="#D2691E" fill-opacity="0.27756356864773224" />
<circle cx="180.03756710133774" cy="81.47843107060415" r="2.4237248928722157" fill="#FFDE75" fill-opacity="0.38297700587363814" />
<circle cx="118.76645072001986" cy="58.29884342384339" r="4.4279888107081735" fill="#8B4513" fill-opacity="0.4025301642202922" />
<circle cx="55.52951626566984" cy="91.81157052186643" r="5.776607633546833" fill="#FFFFFF" fill-opacity="0.5472984940106562" />
<circle cx="99.82631475245786" cy="167.7216343045467" r="2.8319546055915583" fill="#FFFFFF" fill-opacity="0.545604550454842" />
<circle cx="150.6931462510395" cy="149.3363142168297" r="2.6843038025680293" fill="#FFFFFF" fill-opacity="0.4052544411148016" />
<circle cx="28.53166034285313" cy="102.64781207736804" r="2.5065191719047193" fill="#D2691E" fill-opacity="0.5325056526042042" />
<circle cx="124.77947165092702" cy="148.5970646981748" r="3.718072130696289" fill="#FFFFFF" fill-opacity="0.2973814647624736" />
<circle cx="70.46553108304167" cy="179.58754878666605" r="3.1220382691178346" fill="#D2691E" fill-opacity="0.54227403232042" />
<circle cx="103.73889550755075" cy="63.86425721628631" r="5.273641180729879" fill="#FFFFFF" fill-opacity="0.4785870596267328" />
<circle cx="51.43388925998581" cy="103.0681325190189" r="2.9588066701236437" fill="#8B4513" fill-opacity="0.28657985882661763" />
<circle cx="68.03593610249962" cy="174.08112661343654" r="5.152279750428956" fill="#D2691E" fill-opacity="0.5929964932682255" />
<circle cx="60.78569428994375" cy="176.9579265486011" r="4.389732084328756" fill="#FFDE75" fill-opacity="0.30342259222024415" />
<circle cx="71.19988931398443" cy="159.15879839531098" r="3.80617702182908" fill="#FFDE75" fill-opacity="0.23722454616862554" />
<circle cx="94.9925628959773" cy="154.38850733613313" r="2.071069351195015" fill="#FFFFFF" fill-opacity="0.41139431958877026" />
<circle cx="36.81510420365288" cy="55.021538118359274" r="5.850795718330099" fill="#8B4513" fill-opacity="0.20821314445688122" />
<circle cx="137.22939520174992" cy="43.5511348566361" r="4.807511617497582" fill="#D2691E" fill-opacity="0.5354265930859361" />
<circle cx="156.70414844101313" cy="67.0721779580083" r="5.415743772023173" fill="#FFDE75" fill-opacity="0.25287183525378626" />
<circle cx="99.82299117017355" cy="163.06655245480798" r="3.7318468220592136" fill="#8B4513" fill-opacity="0.5352635052823727" />
<circle cx="107.0407081785256" cy="102.64270223943178" r="2.414645680036142" fill="#8B4513" fill-opacity="0.3315116528597208" />
<circle cx="162.27499211663675" cy="145.822853514505" r="2.3738575485707747" fill="#D2691E" fill-opacity="0.29918796690996785" />
<circle cx="154.5607239192788" cy="128.0067573847058" r="3.649471692992851" fill="#8B4513" fill-opacity="0.25343573528996366" />
<circle cx="109.13617435917041" cy="36.323576010520014" r="2.877419138480221" fill="#D2691E" fill-opacity="0.43761928001665806" />
<circle cx="50.856764688114914" cy="99.03467035303706" r="2.628568324462329" fill="#FFFFFF" fill-opacity="0.5234518127746066" />
<circle cx="155.24930933480127" cy="165.80684453527158" r="2.472084830858202" fill="#D2691E" fill-opacity="0.42308994836799974" />
<circle cx="163.25498809454734" cy="145.3845277111859" r="2.933204780195376" fill="#FFFFFF" fill-opacity="0.5497497668282167" />
<circle cx="39.081770649803644" cy="117.30838084661099" r="4.416468004479276" fill="#8B4513" fill-opacity="0.3378288121206046" />
<circle cx="116.46790462815846" cy="66.76639790333411" r="4.191384304360042" fill="#FFDE75" fill-opacity="0.5915835790823134" />
<circle cx="115.73196941255604" cy="145.98683224500553" r="2.6994741061482275" fill="#FFFFFF" fill-opacity="0.3069429906418239" />
<circle cx="107.83545770300726" cy="109.68324234794933" r="4.365785655852469" fill="#FFDE75" fill-opacity="0.280638845979885" />
<circle cx="35.55583051339033" cy="112.9450664159563" r="3.0411668983601623" fill="#D2691E" fill-opacity="0.26822669971655744" />
<circle cx="118.57167664792001" cy="165.80991972339223" r="5.660519569644023" fill="#FFFFFF" fill-opacity="0.28515546672951964" />
<circle cx="89.3480440994848" cy="57.1927607631172" r="2.251164172964859" fill="#8B4513" fill-opacity="0.23778624904912557" />
<circle cx="150.28546844820488" cy="147.0122928628336" r="2.5775871053203008" fill="#FFDE75" fill-opacity="0.45433648217349326" />
<circle cx="65.93860298546379" cy="124.06928858700311" r="5.143014317706452" fill="#8B4513" fill-opacity="0.39976364279096777" />
<circle cx="66.43483467765691" cy="81.11922192563243" r="4.248827057084577" fill="#FFFFFF" fill-opacity="0.5918533449024485" />
<circle cx="99.4438573190936" cy="134.3354707723536" r="4.340845220637144" fill="#FFFFFF" fill-opacity="0.4869945605563118" />
<circle cx="110.35101141544581" cy="104.3444433766683" r="2.121937807257609" fill="#8B4513" fill-opacity="0.5394488840060547" />
<circle cx="92.12015638743665" cy="91.36734971388277" r="3.7562271676435173" fill="#FFDE75" fill-opacity="0.4700181376549585" />
<circle cx="131.1040371243222" cy="90.65424544782698" r="5.158083082696502" fill="#FFFFFF" fill-opacity="0.5343605282281192" />
<circle cx="144.4292939711917" cy="133.6563399200085" r="2.137255169933679" fill="#FFDE75" fill-opacity="0.2074776876999155" />
<circle cx="82.42163239135759" cy="68.5397559843906" r="3.0298569759682192" fill="#8B4513" fill-opacity="0.2760825714556771" />
<circle cx="153.9869678988423" cy="113.44285754126321" r="2.698230397975172" fill="#8B4513" fill-opacity="0.49162516950205465" />
<circle cx="166.20734360416782" cy="158.91491454785827" r="4.042321613069718" fill="#8B4513" fill-opacity="0.2619154010770014" />
<circle cx="42.421409040065804" cy="139.7520139197381" r="4.351810023949621" fill="#D2691E" fill-opacity="0.5204068087966303" />
<circle cx="119.27020642641759" cy="71.7150840266686" r="2.293289351106267" fill="#8B4513" fill-opacity="0.27006477858782446" />
<circle cx="130.72291574892455" cy="158.29370099757898" r="3.663500741109912" fill="#D2691E" fill-opacity="0.21071488106275926" />
<circle cx="33.82891699758913" cy="119.17922425067356" r="3.3684897036424637" fill="#D2691E" fill-opacity="0.5975111355080156" />
<circle cx="50.472377296748114" cy="100.87885217073256" r="3.5136669901541056" fill="#FFDE75" fill-opacity="0.271652732526593" />
<circle cx="93.73758460831739" cy="103.28947968363161" r="3.3430718433027438" fill="#FFFFFF" fill-opacity="0.23777263915290875" />
<circle cx="135.64239933720629" cy="35.30114327316241" r="3.6446885131295934" fill="#8B4513" fill-opacity="0.20597005977567068" />
<circle cx="134.57858841034016" cy="67.86275537340617" r="5.174706894041813" fill="#D2691E" fill-opacity="0.4673368287142826" />
<circle cx="122.42615605583342" cy="108.28120476426018" r="4.839834224042271" fill="#FFDE75" fill-opacity="0.3540846515207196" />
<circle cx="93.35894106555907" cy="42.730398414719794" r="3.819153632930632" fill="#FFDE75" fill-opacity="0.2823133428357866" />
<ellipse cx="52.9191558124016" cy="141.26514569434505" rx="7.687241450156305" ry="7.682252604129621" fill="#FFFDF0" fill-opacity="0.6" />
<ellipse cx="52.75157904934691" cy="140.81505888669608" rx="2.0818698418429022" ry="3.0290778201770814" fill="#FFFFFF" fill-opacity="0.85" />
<ellipse cx="140.40885827580865" cy="127.51885988983705" rx="6.833687109187167" ry="5.402389370077866" fill="#FFFDF0" fill-opacity="0.6" />
<ellipse cx="139.71971822236077" cy="127.04494727308908" rx="4.708459880035219" ry="2.481896559886321" fill="#FFFFFF" fill-opacity="0.85" />
<ellipse cx="154.05072818220623" cy="45.64207042865108" rx="9.964970548888562" ry="6.704359951361006" fill="#FFFDF0" fill-opacity="0.6" />
<ellipse cx="153.29028995204712" cy="46.15096034802917" rx="4.071103168028023" ry="3.949730482432743" fill="#FFFFFF" fill-opacity="0.85" />
<ellipse cx="81.16817639732957" cy="58.111563363234964" rx="6.0768500976181805" ry="8.221594350832472" fill="#FFFDF0" fill-opacity="0.6" />
<ellipse cx="81.2863378566886" cy="59.02884197171613" rx="4.138144728149479" ry="2.6328444036269145" fill="#FFFFFF" fill-opacity="0.85" />
<ellipse cx="66.48326026556555" cy="129.27746639794958" rx="6.169234052789599" ry="7.3545174555886215" fill="#FFFDF0" fill-opacity="0.6" />
<ellipse cx="66.65959295169542" cy="128.9096597948488" rx="4.671113214703391" ry="2.3503032658335075" fill="#FFFFFF" fill-opacity="0.85" />
<ellipse cx="171.1581329428941" cy="95.03677737376172" rx="5.187029412279137" ry="4.553110424507503" fill="#FFFDF0" fill-opacity="0.6" />
<ellipse cx="170.790309514541" cy="95.64640865824843" rx="3.723946965645962" ry="2.9248204631664407" fill="#FFFFFF" fill-opacity="0.85" />
<ellipse cx="146.09148222308184" cy="54.90686254595186" rx="5.949274112448825" ry="4.563300787237234" fill="#FFFDF0" fill-opacity="0.6" />
<ellipse cx="146.63701766760997" cy="55.85837836642028" rx="3.6770193136003524" ry="3.967305091691637" fill="#FFFFFF" fill-opacity="0.85" />
<ellipse cx="44.67410513676515" cy="107.08869494507174" rx="7.9004287623109555" ry="7.67577271192381" fill="#FFFDF0" fill-opacity="0.6" />
<ellipse cx="44.39905063828429" cy="106.45758290342003" rx="4.810782353660288" ry="3.223584278791864" fill="#FFFFFF" fill-opacity="0.85" />
<ellipse cx="104.82804862414413" cy="104.877433891824" rx="5.015097451375769" ry="8.377399095944533" fill="#FFFDF0" fill-opacity="0.6" />
<ellipse cx="104.29154187238974" cy="105.09595511248699" rx="4.242659896987616" ry="2.0703632878343434" fill="#FFFFFF" fill-opacity="0.85" />
<ellipse cx="113.42157199267032" cy="140.14768967121296" rx="8.555269531945036" ry="7.2844193966996675" fill="#FFFDF0" fill-opacity="0.6" />
<ellipse cx="114.34504698932415" cy="140.54409491432077" rx="4.531711085452542" ry="3.3978067967446637" fill="#FFFFFF" fill-opacity="0.85" />
<ellipse cx="70.85555342327592" cy="173.5154106299288" rx="5.59417838313723" ry="5.003239467837179" fill="#FFFDF0" fill-opacity="0.6" />
<ellipse cx="70.65732591990259" cy="174.2895000444819" rx="2.911110892904886" ry="3.743769192660127" fill="#FFFFFF" fill-opacity="0.85" />
<ellipse cx="177.86661745203162" cy="108.03646298053252" rx="8.00796331632795" ry="4.658409523629493" fill="#FFFDF0" fill-opacity="0.6" />
<ellipse cx="178.02675907492542" cy="107.74825659726166" rx="2.885964294648881" ry="2.010730997475926" fill="#FFFFFF" fill-opacity="0.85" />
</g>
<rect x="230.0" y="41.0" width="54.0" height="54.0" fill="none" stroke="black" stroke-width="2" />
<rect x="230.0" y="115.0" width="54.0" height="54.0" fill="none" stroke="black" stroke-width="2" />
<path d="M225.0,105.0 L289.0,105.0" stroke="black" stroke-width="2" />
<text x="257.0" y="68.0" font-size="36" font-family="Comic Sans MS, Comic Sans, cursive" dominant-baseline="middle" fill="black" text-anchor="middle">4</text>
<text x="257.0" y="142.0" font-size="36" font-family="Comic Sans MS, Comic Sans, cursive" dominant-baseline="middle" fill="black" text-anchor="middle">5</text>
</g>
</svg>
</svg>