<svg width="509.0" height="210.0" xmlns="http://www.w3.org/2000/svg" xmlns:xlink="http://www.w3.org/1999/xlink">
<svg x="0.0" y="0.0" width="210.0" height="210.0" viewBox="0 0 210 210" xmlns="http://www.w3.org/2000/svg" xmlns:xlink="http://www.w3.org/1999/xlink">
<defs>
<clipPath id="clip-4530280144-4465618128">
<circle cx="105.0" cy="105.0" r="100" fill="none" />
</clipPath>
</defs>
<g>
<circle cx="105.0" cy="105.0" r="100" fill="#FEF7E3" />
<use xlink:href="#clip-4530280144-4465618128" />
<g clip-path="url(#clip-4530280144-4465618128)">
<circle cx="105.0" cy="105.0" r="92" stroke="#DAA05D" stroke-width="16" fill="none" />
<circle cx="105.0" cy="105.0" r="98" stroke="#C37B32" stroke-width="5" fill="none" />
<circle cx="131.084134366348" cy="129.33084712839772" r="4.630626974268674" fill="#FFFFFF" fill-opacity="0.40564216540793385" />
<circle cx="57.06688983737508" cy="70.69616481092257" r="3.1615577615441075" fill="#D2691E" fill-opacity="0.5258072398685625" />
<circle cx="106.13588379165833" cy="114.37942048062153" r="5.302241147788857" fill="#FFDE75" fill-opacity="0.4068804363050661" />
<circle cx="156.95736905550504" cy="74.20058884230525" r="5.370318438858318" fill="#FFDE75" fill-opacity="0.24330333115345476" />
<circle cx="78.57207205209278" cy="99.43849995235286" r="4.326911343778054" fill="#8B4513" fill-opacity="0.5672430989411854" />
<circle cx="31.54931149012036" cy="95.2655750647076" r="5.74110482049678" fill="#FFDE75" fill-opacity="0.4222882235254578" />
<circle cx="180.15528513595837" cy="124.31478573269098" r="3.822650643880346" fill="#8B4513" fill-opacity="0.4531922331738395" />
<circle cx="165.67250609571013" cy="62.92699952336948" r="5.5628662204221655" fill="#FFFFFF" fill-opacity="0.2786456006141499" />
<circle cx="148.7010029084243" cy="34.20806751163758" r="3.2669107833691964" fill="#8B4513" fill-opacity="0.5424837756202008" />
<circle cx="83.3978189642387" cy="112.30522493473545" r="3.351544174760121" fill="#D2691E" fill-opacity="0.34634280147540836" />
<circle cx="115.09957931988448" cy="112.85855772187602" r="5.018125529954152" fill="#FFDE75" fill-opacity="0.5234484209630964" />
<circle cx="125.72948472498821" cy="96.33944190653256" r="4.726779931171717" fill="#FFFFFF" fill-opacity="0.3140307091733238" />
<circle cx="149.6718502515018" cy="114.59296794349981" r="4.330156026674486" fill="#D2691E" fill-opacity="0.39856267184587074" />
<circle cx="98.57461160753682" cy="79.63476237901158" r="5.51572969012721" fill="#FFDE75" fill-opacity="0.29682644023391924" />
<circle cx="28.24137400675319" cy="107.88748229143279" r="3.795112081273797" fill="#FFFFFF" fill-opacity="0.2769758486316853" />
<circle cx="109.53708730661934" cy="131.1766995929045" r="2.9563715470036027" fill="#FFDE75" fill-opacity="0.26197058146796653" />
<circle cx="166.53347421411462" cy="96.98705838666304" r="2.731658505150996" fill="#FFDE75" fill-opacity="0.227040929471097" />
<circle cx="74.0343461248481" cy="157.6658744930064" r="2.669046095076752" fill="#8B4513" fill-opacity="0.566833697793667" />
<circle cx="31.51583945794573" cy="134.88458480998847" r="3.7713880656145684" fill="#FFFFFF" fill-opacity="0.4906845901701982" />
<circle cx="38.74482372817944" cy="123.28974621170988" r="3.908757760519077" fill="#FFFFFF" fill-opacity="0.4355523392580129" />
<circle cx="140.20800097620256" cy="95.11713131675472" r="2.9972161932592374" fill="#8B4513" fill-opacity="0.4878283015480006" />
<circle cx="152.69593412887266" cy="127.00533802914325" r="5.198572263152288" fill="#8B4513" fill-opacity="0.21852542675152115" />
<circle cx="98.72349460373529" cy="189.53589025791888" r="4.312601567615534" fill="#D2691E" fill-opacity="0.4429538261201844" />
<circle cx="73.49100917426733" cy="141.95802433753005" r="3.2333832892440646" fill="#FFDE75" fill-opacity="0.2565654147461804" />
<circle cx="43.80550480922714" cy="95.200322415305" r="2.412581302638795" fill="#FFDE75" fill-opacity="0.5472704590878208" />
<circle cx="95.27395787975975" cy="98.95937165405992" r="3.078706810138685" fill="#D2691E" fill-opacity="0.32588027060098657" />
<circle cx="89.8508088368332" cy="182.90754883059424" r="2.2512100454768644" fill="#FFDE75" fill-opacity="0.4492682072903571" />
<circle cx="134.6314847176927" cy="69.36723558757134" r="5.4790810591535735" fill="#FFFFFF" fill-opacity="0.26437566519807376" />
<circle cx="95.08704170378037" cy="107.95127106286128" r="4.631021290079676" fill="#FFFFFF" fill-opacity="0.5420859691456253" />
<circle cx="59.91778367890573" cy="89.11043115295725" r="5.869271958533412" fill="#8B4513" fill-opacity="0.559033806005309" />
<circle cx="93.24025661371772" cy="71.5856895980698" r="2.383867892573103" fill="#FFDE75" fill-opacity="0.5728493923947278" />
<circle cx="93.26650664067384" cy="175.99946481617513" r="3.1328183599092925" fill="#FFDE75" fill-opacity="0.4782258803214577" />
<circle cx="133.40652740083783" cy="157.2820534571922" r="2.6899513390598595" fill="#D2691E" fill-opacity="0.5240932052230436" />
<circle cx="149.07212479976454" cy="47.496891528118574" r="4.225462152894931" fill="#FFDE75" fill-opacity="0.22654843509247652" />
<circle cx="121.87444805304361" cy="166.25113177337684" r="5.6515500462865464" fill="#8B4513" fill-opacity="0.32935051312741465" />
<circle cx="100.05043030543457" cy="72.4793783274005" r="5.5393882822419656" fill="#FFFFFF" fill-opacity="0.5347964023861682" />
<circle cx="180.16778191787455" cy="75.26376648423822" r="4.609292923048351" fill="#FFFFFF" fill-opacity="0.24923956095877686" />
<circle cx="160.27806195084167" cy="92.19352418712062" r="2.821759609563261" fill="#FFDE75" fill-opacity="0.3530213383925164" />
<circle cx="166.4499793955036" cy="92.43555152506342" r="3.67133076218222" fill="#FFDE75" fill-opacity="0.34169625567253625" />
<circle cx="67.96906289020214" cy="66.12605450952677" r="3.706046912410322" fill="#FFFFFF" fill-opacity="0.5858437538945056" />
<circle cx="118.21321507207914" cy="58.34705178677193" r="4.307761835946922" fill="#8B4513" fill-opacity="0.36499801242457297" />
<circle cx="185.64933206282703" cy="116.51468544193601" r="3.180909385450288" fill="#8B4513" fill-opacity="0.2535439569461139" />
<circle cx="177.02502270935713" cy="132.71567379098104" r="2.3192407206250683" fill="#8B4513" fill-opacity="0.2001445931256549" />
<circle cx="127.12815538682668" cy="33.12636226146928" r="5.991055865110878" fill="#D2691E" fill-opacity="0.23383220903941454" />
<circle cx="85.6317136639338" cy="173.84420735833191" r="2.3929668667355664" fill="#FFDE75" fill-opacity="0.5801419080083974" />
<circle cx="60.245735092845784" cy="102.88057343432638" r="4.948623460533346" fill="#FFDE75" fill-opacity="0.26835842878179517" />
<circle cx="75.60364685542984" cy="176.19041130884722" r="2.696974256024467" fill="#FFDE75" fill-opacity="0.42952677391692173" />
<circle cx="112.9486015940946" cy="106.54561268506629" r="4.196656213182514" fill="#FFFFFF" fill-opacity="0.4988320064736236" />
<circle cx="174.92963238247864" cy="113.38023265680738" r="3.3558896945304024" fill="#FFDE75" fill-opacity="0.2488366347416453" />
<circle cx="93.19737581132372" cy="187.46194190334842" r="5.357248958185904" fill="#D2691E" fill-opacity="0.24851019969057464" />
<circle cx="34.03213365781457" cy="72.69772520004915" r="3.828343387638285" fill="#FFDE75" fill-opacity="0.2791921958725257" />
<circle cx="105.94971755144465" cy="131.99133023866543" r="2.289322875946863" fill="#D2691E" fill-opacity="0.4184273539333489" />
<circle cx="67.23785597518136" cy="96.04096086521385" r="5.401516188558517" fill="#D2691E" fill-opacity="0.44842732187386497" />
<circle cx="123.50457429885566" cy="74.42988088130225" r="5.322267763337682" fill="#8B4513" fill-opacity="0.5093908399243046" />
<circle cx="100.22229094853161" cy="31.94447857605263" r="2.0032237596274594" fill="#FFFFFF" fill-opacity="0.3749164801260376" />
<circle cx="84.58047050072173" cy="74.49212477605418" r="2.391942878348673" fill="#FFDE75" fill-opacity="0.3076542310193452" />
<circle cx="159.29263365010303" cy="138.6334436725885" r="3.121128379208551" fill="#8B4513" fill-opacity="0.3910382727971565" />
<circle cx="87.61984030926573" cy="141.39017009958218" r="4.741757860137179" fill="#FFDE75" fill-opacity="0.5469323358540521" />
<circle cx="145.75299097350245" cy="48.40259097854716" r="4.098039430877015" fill="#FFDE75" fill-opacity="0.5130672553794982" />
<circle cx="109.12589588937502" cy="72.40293817645427" r="3.1564115930382433" fill="#FFDE75" fill-opacity="0.30434740521944276" />
<circle cx="113.71024082304388" cy="161.57778686244097" r="4.248137196318315" fill="#FFDE75" fill-opacity="0.516513720345937" />
<circle cx="80.39156068755628" cy="92.11983444575037" r="5.234089607132968" fill="#FFDE75" fill-opacity="0.4122449701932476" />
<circle cx="157.71492410375595" cy="141.0573667056903" r="5.402262766717289" fill="#FFFFFF" fill-opacity="0.546520119616052" />
<circle cx="97.4885913597608" cy="76.72262342715965" r="5.82908420522089" fill="#8B4513" fill-opacity="0.4361488804430808" />
<circle cx="40.562230646588915" cy="112.36672877268205" r="4.620161166147657" fill="#D2691E" fill-opacity="0.3177134338541754" />
<circle cx="77.84178176177036" cy="149.10294802315738" r="5.598999396086022" fill="#FFDE75" fill-opacity="0.44299829805912594" />
<circle cx="54.52508587732905" cy="75.30132090118406" r="5.654223225281282" fill="#FFFFFF" fill-opacity="0.36566161931054425" />
<circle cx="80.38239948046768" cy="75.56758599741096" r="3.853081106669886" fill="#FFDE75" fill-opacity="0.469736614150353" />
<circle cx="124.59569806549564" cy="88.17916294832523" r="4.79542122540296" fill="#FFDE75" fill-opacity="0.21272216175370484" />
<circle cx="133.0474843000976" cy="58.66541730768552" r="3.3688092131119705" fill="#FFDE75" fill-opacity="0.39816611395454304" />
<circle cx="117.8034203963541" cy="28.12339611646071" r="5.839652639134605" fill="#FFDE75" fill-opacity="0.3898179330385729" />
<circle cx="140.14380016497853" cy="88.89663568338145" r="2.073993192327319" fill="#FFDE75" fill-opacity="0.4396795760226614" />
<circle cx="98.05655609630436" cy="131.4946159990941" r="4.866871993618805" fill="#FFFFFF" fill-opacity="0.452286880199999" />
<circle cx="132.2488416238827" cy="136.24259563757374" r="2.776043692531356" fill="#FFFFFF" fill-opacity="0.5628969397670274" />
<circle cx="24.131886903467176" cy="93.44282430679469" r="4.0005030016244305" fill="#8B4513" fill-opacity="0.355896001740266" />
<circle cx="92.61507874017244" cy="130.50759695823967" r="8.947991363847787" fill="#FFFFFF" fill-opacity="0.95" stroke="#FAF0E6" stroke-width="1.5" />
<circle cx="139.0237981459935" cy="152.14428830483408" r="10.88506773665572" fill="#FFFFFF" fill-opacity="0.95" stroke="#FAF0E6" stroke-width="1.5" />
<circle cx="88.89666526755626" cy="143.87953195472346" r="7.952033212959055" fill="#FFFFFF" fill-opacity="0.95" stroke="#FAF0E6" stroke-width="1.5" />
<circle cx="77.22919812787046" cy="92.69489180581083" r="5.907394833871544" fill="#FFFFFF" fill-opacity="0.95" stroke="#FAF0E6" stroke-width="1.5" />
<circle cx="109.69580782825264" cy="139.87806388698456" r="8.144661566481297" fill="#FFFFFF" fill-opacity="0.95" stroke="#FAF0E6" stroke-width="1.5" />
<circle cx="164.0984120495638" cy="147.48423552895648" r="5.991252774162458" fill="#FFFFFF" fill-opacity="0.95" stroke="#FAF0E6" stroke-width="1.5" />
<circle cx="29.79577977187047" cy="81.17164330521726" r="11.070063976422986" fill="#FFFFFF" fill-opacity="0.95" stroke="#FAF0E6" stroke-width="1.5" />
<circle cx="140.97633986477913" cy="35.125462164961746" r="11.695399730639704" fill="#FFFFFF" fill-opacity="0.95" stroke="#FAF0E6" stroke-width="1.5" />
<circle cx="145.23340526304375" cy="62.03486086385664" r="5.705637490111399" fill="#FFFFFF" fill-opacity="0.95" stroke="#FAF0E6" stroke-width="1.5" />
<circle cx="53.17429129012286" cy="154.39411833797473" r="8.129582099857993" fill="#FFFFFF" fill-opacity="0.95" stroke="#FAF0E6" stroke-width="1.5" />
<circle cx="153.45333763393037" cy="131.50407691737036" r="7.769300048832464" fill="#FFFFFF" fill-opacity="0.95" stroke="#FAF0E6" stroke-width="1.5" />
<circle cx="61.05398441829712" cy="101.50932987359573" r="6.197739002291199" fill="#FFFFFF" fill-opacity="0.95" stroke="#FAF0E6" stroke-width="1.5" />
<circle cx="61.28461837683524" cy="89.38006891962152" r="8.170002066200016" fill="#FFFFFF" fill-opacity="0.95" stroke="#FAF0E6" stroke-width="1.5" />
<circle cx="60.80376758141516" cy="61.65022635651242" r="6.473571766407222" fill="#FFFFFF" fill-opacity="0.95" stroke="#FAF0E6" stroke-width="1.5" />
<circle cx="88.82239842979791" cy="39.60074642164567" r="7.009252219787951" fill="#FFFFFF" fill-opacity="0.95" stroke="#FAF0E6" stroke-width="1.5" />
<circle cx="92.66256763441689" cy="63.24537974709149" r="9.265122934331439" fill="#FFFFFF" fill-opacity="0.95" stroke="#FAF0E6" stroke-width="1.5" />
<circle cx="177.9292791623307" cy="97.73798888577386" r="7.769105977439146" fill="#FFFFFF" fill-opacity="0.95" stroke="#FAF0E6" stroke-width="1.5" />
<circle cx="85.34443876985374" cy="51.79360254890085" r="6.6821561409160015" fill="#FFFFFF" fill-opacity="0.95" stroke="#FAF0E6" stroke-width="1.5" />
<circle cx="132.39494356093914" cy="160.4795017123754" r="6.706582866810422" fill="#FFFFFF" fill-opacity="0.95" stroke="#FAF0E6" stroke-width="1.5" />
<circle cx="87.05802013130496" cy="148.39653664548237" r="5.079619961618894" fill="#FFFFFF" fill-opacity="0.95" stroke="#FAF0E6" stroke-width="1.5" />
<circle cx="155.67483903419276" cy="141.81005127179753" r="7.925739969449558" fill="#FFFFFF" fill-opacity="0.95" stroke="#FAF0E6" stroke-width="1.5" />
<circle cx="120.89589218304035" cy="106.17074242814085" r="5.049067469735244" fill="#FFFFFF" fill-opacity="0.95" stroke="#FAF0E6" stroke-width="1.5" />
<circle cx="180.72445802709552" cy="129.2096363004661" r="5.487967850464342" fill="#FFFFFF" fill-opacity="0.95" stroke="#FAF0E6" stroke-width="1.5" />
<circle cx="140.54027518535148" cy="147.95510220619198" r="11.20738884860631" fill="#FFFFFF" fill-opacity="0.95" stroke="#FAF0E6" stroke-width="1.5" />
<circle cx="150.39457161620817" cy="169.3227934094927" r="7.913971296442176" fill="#FFFFFF" fill-opacity="0.95" stroke="#FAF0E6" stroke-width="1.5" />
<circle cx="131.65770982878482" cy="117.92661349792346" r="8.34391189837503" fill="#FFFFFF" fill-opacity="0.95" stroke="#FAF0E6" stroke-width="1.5" />
<circle cx="179.37762862453008" cy="100.39509731470648" r="9.486329916302932" fill="#FFFFFF" fill-opacity="0.95" stroke="#FAF0E6" stroke-width="1.5" />
<circle cx="159.45476940060047" cy="80.27882702593308" r="8.044523770043211" fill="#FFFFFF" fill-opacity="0.95" stroke="#FAF0E6" stroke-width="1.5" />
<circle cx="147.57647119805824" cy="57.778142722306484" r="8.729714450992608" fill="#FFFFFF" fill-opacity="0.95" stroke="#FAF0E6" stroke-width="1.5" />
<circle cx="45.52850600687166" cy="145.27822839385564" r="8.704155278886468" fill="#FFFFFF" fill-opacity="0.95" stroke="#FAF0E6" stroke-width="1.5" />
</g>
<path d="M105.0,105.0 L105.0,5.0" stroke="lightgray" stroke-width="2" />
<path d="M105.0,105.0 L200.10565162951536,74.09830056250526" stroke="lightgray" stroke-width="2" />
<path d="M105.0,105.0 L163.77852522924732,185.90169943749476" stroke="lightgray" stroke-width="2" />
<path d="M105.0,105.0 L46.2214747707527,185.90169943749476" stroke="lightgray" stroke-width="2" />
<path d="M105.0,105.0 L9.894348370484636,74.09830056250527" stroke="lightgray" stroke-width="2" />
<circle cx="105.0" cy="105.0" r="100" fill="none" stroke="lightgray" stroke-width="2" />
</g>
</svg>
<svg x="225.0" y="0.0" width="284.0" height="210.0" viewBox="0 0 284.0 210" xmlns="http://www.w3.org/2000/svg" xmlns:xlink="http://www.w3.org/1999/xlink">
<defs>
<clipPath id="clip-4519506784-4465615696">
<path d="M105.0,105.0 L105.0,5.0 A100,100,0,0,1,200.10565162951536,74.09830056250526 Z" fill="none" />
</clipPath>
<clipPath id="clip-4519506784-4530526288">
<path d="M105.0,105.0 L200.10565162951536,74.09830056250526 A100,100,0,0,1,163.77852522924732,185.90169943749476 Z" fill="none" />
</clipPath>
</defs>
<g>
<path d="M105.0,105.0 L105.0,5.0 A100,100,0,0,1,200.10565162951536,74.09830056250526 Z" fill="none" stroke="lightgray" stroke-width="2" />
<path d="M105.0,105.0 L200.10565162951536,74.09830056250526 A100,100,0,0,1,163.77852522924732,185.90169943749476 Z" fill="none" stroke="lightgray" stroke-width="2" />
<path d="M105.0,105.0 L163.77852522924732,185.90169943749476 A100,100,0,0,1,46.2214747707527,185.90169943749476 Z" fill="none" stroke="lightgray" stroke-width="2" />
<path d="M105.0,105.0 L46.2214747707527,185.90169943749476 A100,100,0,0,1,9.894348370484636,74.09830056250527 Z" fill="none" stroke="lightgray" stroke-width="2" />
<path d="M105.0,105.0 L9.894348370484636,74.09830056250527 A100,100,0,0,1,104.99999999999999,5.0 Z" fill="none" stroke="lightgray" stroke-width="2" />
<path d="M105.0,105.0 L105.0,5.0 A100,100,0,0,1,200.10565162951536,74.09830056250526 Z" fill="#FEF7E3" stroke="lightgray" stroke-width="2" />
<use xlink:href="#clip-4519506784-4465615696" />
<g clip-path="url(#clip-4519506784-4465615696)">
<circle cx="105.0" cy="105.0" r="92" stroke="#DAA05D" stroke-width="16" fill="none" />
<circle cx="105.0" cy="105.0" r="98" stroke="#C37B32" stroke-width="5" fill="none" />
<circle cx="132.20891237254483" cy="140.67320225349326" r="5.170220379980899" fill="#8B4513" fill-opacity="0.36169837446960196" />
<circle cx="131.84085502584256" cy="162.93645884499819" r="4.059638478570422" fill="#8B4513" fill-opacity="0.484783791435446" />
<circle cx="113.5339298234589" cy="28.85220804366068" r="4.020461958041797" fill="#FFDE75" fill-opacity="0.22344038485936443" />
<circle cx="90.78612898388035" cy="85.76712456344147" r="3.368418257786998" fill="#FFDE75" fill-opacity="0.3914423771226688" />
<circle cx="111.50638610778535" cy="123.42590035376985" r="5.484138400767613" fill="#D2691E" fill-opacity="0.4964704327011487" />
<circle cx="62.36944286958661" cy="96.82503166841897" r="4.6593369606863835" fill="#8B4513" fill-opacity="0.26290656633867804" />
<circle cx="154.8330124538282" cy="39.93652115958868" r="2.03014107081657" fill="#FFFFFF" fill-opacity="0.35537315209550113" />
<circle cx="46.03879168549804" cy="83.69183618067846" r="2.8039333246948575" fill="#8B4513" fill-opacity="0.3756342548756182" />
<circle cx="107.20224680015532" cy="90.89787997534906" r="5.174265216678414" fill="#D2691E" fill-opacity="0.3564970663922177" />
<circle cx="57.740094168080276" cy="144.76669016896471" r="3.7516918725216652" fill="#D2691E" fill-opacity="0.5673652763134582" />
<circle cx="124.71557246425041" cy="128.94418323817894" r="2.022223933543834" fill="#8B4513" fill-opacity="0.402118580550616" />
<circle cx="112.44748975666523" cy="125.01742576448903" r="4.11994459407554" fill="#D2691E" fill-opacity="0.2911599642531814" />
<circle cx="177.22561335107372" cy="71.59828587989438" r="2.6649025776918345" fill="#8B4513" fill-opacity="0.314614812738026" />
<circle cx="96.42616944324236" cy="152.33194387236506" r="5.557181826166164" fill="#FFFFFF" fill-opacity="0.5148529057567355" />
<circle cx="117.5022768399828" cy="103.92064173875701" r="5.6502526381810805" fill="#FFFFFF" fill-opacity="0.2597512473288643" />
<circle cx="140.82554974872323" cy="156.40022210439372" r="2.983201595929885" fill="#8B4513" fill-opacity="0.36838046049774736" />
<circle cx="88.31791855659091" cy="134.41925153729466" r="2.2035667115440982" fill="#FFFFFF" fill-opacity="0.5492995092855717" />
<circle cx="145.34642579683526" cy="69.94654692976422" r="2.1024360426707855" fill="#D2691E" fill-opacity="0.20637410631224135" />
<circle cx="154.6258753271242" cy="88.48150563165032" r="5.598854704093036" fill="#FFDE75" fill-opacity="0.5193200017148718" />
<circle cx="146.29351329457717" cy="152.2026328782665" r="5.503446078156514" fill="#FFDE75" fill-opacity="0.35863980296881637" />
<circle cx="94.43170258047033" cy="126.00796719063752" r="4.448452103982921" fill="#8B4513" fill-opacity="0.2472241835737207" />
<circle cx="62.89008194683079" cy="175.23639891335802" r="5.43541651280092" fill="#FFDE75" fill-opacity="0.5337431486499997" />
<circle cx="37.64768399475287" cy="89.04435045282838" r="2.4477582337904598" fill="#FFFFFF" fill-opacity="0.364211116031265" />
<circle cx="117.04169229915138" cy="60.32611421023015" r="4.657068136543803" fill="#FFFFFF" fill-opacity="0.533295712832289" />
<circle cx="151.27921392286316" cy="126.41173704220583" r="4.1907260994404005" fill="#D2691E" fill-opacity="0.2953298827414047" />
<circle cx="117.3464542324369" cy="56.94131670805612" r="2.195854386612386" fill="#D2691E" fill-opacity="0.5651785827443256" />
<circle cx="80.68273294657901" cy="39.97949869054385" r="2.5952931292299315" fill="#8B4513" fill-opacity="0.5521026087033807" />
<circle cx="98.85005299821" cy="77.7785563431809" r="3.610717946387746" fill="#8B4513" fill-opacity="0.5968240770342168" />
<circle cx="42.58263495007718" cy="62.22539202256358" r="2.9054188301505612" fill="#D2691E" fill-opacity="0.48868288639415886" />
<circle cx="142.47644551554302" cy="68.73135101446263" r="3.011446165250425" fill="#FFFFFF" fill-opacity="0.2648097023241314" />
<circle cx="144.72901304408447" cy="83.16322257591506" r="8.435587332348328" fill="#FFFFFF" fill-opacity="0.95" stroke="#FAF0E6" stroke-width="1.5" />
<circle cx="28.093071800602033" cy="113.82289287862982" r="10.533527747176226" fill="#FFFFFF" fill-opacity="0.95" stroke="#FAF0E6" stroke-width="1.5" />
<circle cx="100.87959836612167" cy="157.8136112526634" r="7.713565958845509" fill="#FFFFFF" fill-opacity="0.95" stroke="#FAF0E6" stroke-width="1.5" />
<circle cx="92.9367699405363" cy="82.21397356298259" r="9.835347290020351" fill="#FFFFFF" fill-opacity="0.95" stroke="#FAF0E6" stroke-width="1.5" />
<circle cx="75.41470842351242" cy="99.73165226514902" r="6.878240536907595" fill="#FFFFFF" fill-opacity="0.95" stroke="#FAF0E6" stroke-width="1.5" />
<circle cx="96.19321043163309" cy="152.40839219426374" r="9.808908812985322" fill="#FFFFFF" fill-opacity="0.95" stroke="#FAF0E6" stroke-width="1.5" />
<circle cx="143.84389962659333" cy="112.92169772486601" r="11.107148523816903" fill="#FFFFFF" fill-opacity="0.95" stroke="#FAF0E6" stroke-width="1.5" />
<circle cx="99.52399529910222" cy="176.86511929223428" r="9.745787174279972" fill="#FFFFFF" fill-opacity="0.95" stroke="#FAF0E6" stroke-width="1.5" />
<circle cx="136.96242167059563" cy="81.90363529080733" r="10.978620495980284" fill="#FFFFFF" fill-opacity="0.95" stroke="#FAF0E6" stroke-width="1.5" />
<circle cx="167.5788949636002" cy="105.84265837145371" r="9.771379889801018" fill="#FFFFFF" fill-opacity="0.95" stroke="#FAF0E6" stroke-width="1.5" />
<circle cx="145.4832750073349" cy="115.83880861395365" r="10.194357521381004" fill="#FFFFFF" fill-opacity="0.95" stroke="#FAF0E6" stroke-width="1.5" />
<circle cx="58.60832163460055" cy="126.71335994265979" r="5.237518319019341" fill="#FFFFFF" fill-opacity="0.95" stroke="#FAF0E6" stroke-width="1.5" />
</g>
<path d="M105.0,105.0 L200.10565162951536,74.09830056250526 A100,100,0,0,1,163.77852522924732,185.90169943749476 Z" fill="#FEF7E3" stroke="lightgray" stroke-width="2" />
<use xlink:href="#clip-4519506784-4530526288" />
<g clip-path="url(#clip-4519506784-4530526288)">
<circle cx="105.0" cy="105.0" r="92" stroke="#DAA05D" stroke-width="16" fill="none" />
<circle cx="105.0" cy="105.0" r="98" stroke="#C37B32" stroke-width="5" fill="none" />
<circle cx="132.20891237254483" cy="140.67320225349326" r="5.170220379980899" fill="#8B4513" fill-opacity="0.36169837446960196" />
<circle cx="131.84085502584256" cy="162.93645884499819" r="4.059638478570422" fill="#8B4513" fill-opacity="0.484783791435446" />
<circle cx="113.5339298234589" cy="28.85220804366068" r="4.020461958041797" fill="#FFDE75" fill-opacity="0.22344038485936443" />
<circle cx="90.78612898388035" cy="85.76712456344147" r="3.368418257786998" fill="#FFDE75" fill-opacity="0.3914423771226688" />
<circle cx="111.50638610778535" cy="123.42590035376985" r="5.484138400767613" fill="#D2691E" fill-opacity="0.4964704327011487" />
<circle cx="62.36944286958661" cy="96.82503166841897" r="4.6593369606863835" fill="#8B4513" fill-opacity="0.26290656633867804" />
<circle cx="154.8330124538282" cy="39.93652115958868" r="2.03014107081657" fill="#FFFFFF" fill-opacity="0.35537315209550113" />
<circle cx="46.03879168549804" cy="83.69183618067846" r="2.8039333246948575" fill="#8B4513" fill-opacity="0.3756342548756182" />
<circle cx="107.20224680015532" cy="90.89787997534906" r="5.174265216678414" fill="#D2691E" fill-opacity="0.3564970663922177" />
<circle cx="57.740094168080276" cy="144.76669016896471" r="3.7516918725216652" fill="#D2691E" fill-opacity="0.5673652763134582" />
<circle cx="124.71557246425041" cy="128.94418323817894" r="2.022223933543834" fill="#8B4513" fill-opacity="0.402118580550616" />
<circle cx="112.44748975666523" cy="125.01742576448903" r="4.11994459407554" fill="#D2691E" fill-opacity="0.2911599642531814" />
<circle cx="177.22561335107372" cy="71.59828587989438" r="2.6649025776918345" fill="#8B4513" fill-opacity="0.314614812738026" />
<circle cx="96.42616944324236" cy="152.33194387236506" r="5.557181826166164" fill="#FFFFFF" fill-opacity="0.5148529057567355" />
<circle cx="117.5022768399828" cy="103.92064173875701" r="5.6502526381810805" fill="#FFFFFF" fill-opacity="0.2597512473288643" />
<circle cx="140.82554974872323" cy="156.40022210439372" r="2.983201595929885" fill="#8B4513" fill-opacity="0.36838046049774736" />
<circle cx="88.31791855659091" cy="134.41925153729466" r="2.2035667115440982" fill="#FFFFFF" fill-opacity="0.5492995092855717" />
<circle cx="145.34642579683526" cy="69.94654692976422" r="2.1024360426707855" fill="#D2691E" fill-opacity="0.20637410631224135" />
<circle cx="154.6258753271242" cy="88.48150563165032" r="5.598854704093036" fill="#FFDE75" fill-opacity="0.5193200017148718" />
<circle cx="146.29351329457717" cy="152.2026328782665" r="5.503446078156514" fill="#FFDE75" fill-opacity="0.35863980296881637" />
<circle cx="94.43170258047033" cy="126.00796719063752" r="4.448452103982921" fill="#8B4513" fill-opacity="0.2472241835737207" />
<circle cx="62.89008194683079" cy="175.23639891335802" r="5.43541651280092" fill="#FFDE75" fill-opacity="0.5337431486499997" />
<circle cx="37.64768399475287" cy="89.04435045282838" r="2.4477582337904598" fill="#FFFFFF" fill-opacity="0.364211116031265" />
<circle cx="117.04169229915138" cy="60.32611421023015" r="4.657068136543803" fill="#FFFFFF" fill-opacity="0.533295712832289" />
<circle cx="151.27921392286316" cy="126.41173704220583" r="4.1907260994404005" fill="#D2691E" fill-opacity="0.2953298827414047" />
<circle cx="117.3464542324369" cy="56.94131670805612" r="2.195854386612386" fill="#D2691E" fill-opacity="0.5651785827443256" />
<circle cx="80.68273294657901" cy="39.97949869054385" r="2.5952931292299315" fill="#8B4513" fill-opacity="0.5521026087033807" />
<circle cx="98.85005299821" cy="77.7785563431809" r="3.610717946387746" fill="#8B4513" fill-opacity="0.5968240770342168" />
<circle cx="42.58263495007718" cy="62.22539202256358" r="2.9054188301505612" fill="#D2691E" fill-opacity="0.48868288639415886" />
<circle cx="142.47644551554302" cy="68.73135101446263" r="3.011446165250425" fill="#FFFFFF" fill-opacity="0.2648097023241314" />
<circle cx="144.72901304408447" cy="83.16322257591506" r="8.435587332348328" fill="#FFFFFF" fill-opacity="0.95" stroke="#FAF0E6" stroke-width="1.5" />
<circle cx="28.093071800602033" cy="113.82289287862982" r="10.533527747176226" fill="#FFFFFF" fill-opacity="0.95" stroke="#FAF0E6" stroke-width="1.5" />
<circle cx="100.87959836612167" cy="157.8136112526634" r="7.713565958845509" fill="#FFFFFF" fill-opacity="0.95" stroke="#FAF0E6" stroke-width="1.5" />
<circle cx="92.9367699405363" cy="82.21397356298259" r="9.835347290020351" fill="#FFFFFF" fill-opacity="0.95" stroke="#FAF0E6" stroke-width="1.5" />
<circle cx="75.41470842351242" cy="99.73165226514902" r="6.878240536907595" fill="#FFFFFF" fill-opacity="0.95" stroke="#FAF0E6" stroke-width="1.5" />
<circle cx="96.19321043163309" cy="152.40839219426374" r="9.808908812985322" fill="#FFFFFF" fill-opacity="0.95" stroke="#FAF0E6" stroke-width="1.5" />
<circle cx="143.84389962659333" cy="112.92169772486601" r="11.107148523816903" fill="#FFFFFF" fill-opacity="0.95" stroke="#FAF0E6" stroke-width="1.5" />
<circle cx="99.52399529910222" cy="176.86511929223428" r="9.745787174279972" fill="#FFFFFF" fill-opacity="0.95" stroke="#FAF0E6" stroke-width="1.5" />
<circle cx="136.96242167059563" cy="81.90363529080733" r="10.978620495980284" fill="#FFFFFF" fill-opacity="0.95" stroke="#FAF0E6" stroke-width="1.5" />
<circle cx="167.5788949636002" cy="105.84265837145371" r="9.771379889801018" fill="#FFFFFF" fill-opacity="0.95" stroke="#FAF0E6" stroke-width="1.5" />
<circle cx="145.4832750073349" cy="115.83880861395365" r="10.194357521381004" fill="#FFFFFF" fill-opacity="0.95" stroke="#FAF0E6" stroke-width="1.5" />
<circle cx="58.60832163460055" cy="126.71335994265979" r="5.237518319019341" fill="#FFFFFF" fill-opacity="0.95" stroke="#FAF0E6" stroke-width="1.5" />
</g>
<rect x="230.0" y="41.0" width="54.0" height="54.0" fill="none" stroke="black" stroke-width="2" />
<rect x="230.0" y="115.0" width="54.0" height="54.0" fill="none" stroke="black" stroke-width="2" />
<path d="M225.0,105.0 L289.0,105.0" stroke="black" stroke-width="2" />
</g>
</svg>
</svg>