<svg width="678.0" height="210.0" xmlns="http://www.w3.org/2000/svg" xmlns:xlink="http://www.w3.org/1999/xlink">
<svg x="0.0" y="0.0" width="284.0" height="210.0" viewBox="0 0 284.0 210" xmlns="http://www.w3.org/2000/svg" xmlns:xlink="http://www.w3.org/1999/xlink">
<defs>
<clipPath id="clip-4530377056-4530026320">
<path d="M105.0,105.0 L105.0,5.0 A100,100,0,0,1,191.60254037844388,155.0 Z" fill="none" />
</clipPath>
</defs>
<g>
<path d="M105.0,105.0 L105.0,5.0 A100,100,0,0,1,191.60254037844388,155.0 Z" fill="none" stroke="lightgray" stroke-width="2" />
<path d="M105.0,105.0 L191.60254037844388,155.0 A100,100,0,0,1,18.397459621556123,155.0 Z" fill="none" stroke="lightgray" stroke-width="2" />
<path d="M105.0,105.0 L18.397459621556123,155.0 A100,100,0,0,1,104.99999999999999,5.0 Z" fill="none" stroke="lightgray" stroke-width="2" />
<path d="M105.0,105.0 L105.0,5.0 A100,100,0,0,1,191.60254037844388,155.0 Z" fill="#F5C754" stroke="lightgray" stroke-width="2" />
<use xlink:href="#clip-4530377056-4530026320" />
<g clip-path="url(#clip-4530377056-4530026320)">
<circle cx="105.0" cy="105.0" r="92" stroke="#DAA05D" stroke-width="16" fill="none" />
<circle cx="105.0" cy="105.0" r="98" stroke="#C37B32" stroke-width="5" fill="none" />
<circle cx="40.273918368770126" cy="51.49628436752046" r="3.625552146470724" fill="#FFDE75" fill-opacity="0.3764440446745717" />
<circle cx="182.80543234230254" cy="136.62610695069478" r="3.281218206962509" fill="#FFDE75" fill-opacity="0.23702769327224665" />
<circle cx="56.30085666515317" cy="173.67137808926162" r="4.8366889251610825" fill="#FFDE75" fill-opacity="0.2711517178060651" />
<circle cx="72.9461755386458" cy="94.1952130721378" r="5.855083426578633" fill="#8B4513" fill-opacity="0.3808303569629159" />
<circle cx="29.71942220728849" cy="82.75581585495225" r="5.003408007605376" fill="#D2691E" fill-opacity="0.4641748354581628" />
<circle cx="146.03472313110416" cy="178.6297248035699" r="3.4806774589412504" fill="#FFFFFF" fill-opacity="0.41663952346981314" />
<circle cx="143.80130469076468" cy="62.549077541850885" r="5.378095489410075" fill="#8B4513" fill-opacity="0.41666567974858126" />
<circle cx="51.157812432305874" cy="94.60856648512791" r="4.319246779594672" fill="#FFDE75" fill-opacity="0.5331445732148079" />
<circle cx="157.08375361423106" cy="58.60754970554343" r="5.999972994818549" fill="#FFDE75" fill-opacity="0.3199590535720009" />
<circle cx="152.39789774405" cy="84.96246908281988" r="5.358521367995437" fill="#FFDE75" fill-opacity="0.26672979152889165" />
<circle cx="87.43360480697345" cy="181.92359872124632" r="3.216509534980169" fill="#8B4513" fill-opacity="0.3791026657356448" />
<circle cx="90.73734034196215" cy="164.77548871696206" r="5.020585483220813" fill="#D2691E" fill-opacity="0.2126875372473679" />
<circle cx="120.21308357959714" cy="176.9145540665027" r="4.062791296232012" fill="#D2691E" fill-opacity="0.32450531842094643" />
<circle cx="108.27676269477584" cy="83.35628672222671" r="4.361233702932328" fill="#8B4513" fill-opacity="0.44893099607952885" />
<circle cx="87.64293511889406" cy="187.18240604692846" r="4.2872129413575815" fill="#8B4513" fill-opacity="0.36213412438779946" />
<ellipse cx="139.69802940333025" cy="71.19796647648582" rx="7.770513758194348" ry="5.581907979227992" fill="#FFFDF0" fill-opacity="0.6" />
<ellipse cx="140.10600952099827" cy="72.12170454442256" rx="3.4272563248310033" ry="3.1614588430985253" fill="#FFFFFF" fill-opacity="0.85" />
<ellipse cx="176.2361217402505" cy="120.3048020027041" rx="8.540294211188456" ry="8.000415056029844" fill="#FFFDF0" fill-opacity="0.6" />
<ellipse cx="175.80326857097089" cy="119.91896968384056" rx="2.9674019333753456" ry="2.424570799265233" fill="#FFFFFF" fill-opacity="0.85" />
<ellipse cx="79.58044515508487" cy="118.04282031445766" rx="9.168935515754747" ry="7.870712486006439" fill="#FFFDF0" fill-opacity="0.6" />
<ellipse cx="79.52013828493682" cy="117.68438449217034" rx="2.451998288482803" ry="2.3917008732113505" fill="#FFFFFF" fill-opacity="0.85" />
</g>
<rect x="230.0" y="41.0" width="54.0" height="54.0" fill="none" stroke="black" stroke-width="2" />
<rect x="230.0" y="115.0" width="54.0" height="54.0" fill="none" stroke="black" stroke-width="2" />
<path d="M225.0,105.0 L289.0,105.0" stroke="black" stroke-width="2" />
<text x="257.0" y="68.0" font-size="36" font-family="Comic Sans MS, Comic Sans, cursive" dominant-baseline="middle" fill="black" text-anchor="middle">1</text>
<text x="257.0" y="142.0" font-size="36" font-family="Comic Sans MS, Comic Sans, cursive" dominant-baseline="middle" fill="black" text-anchor="middle">3</text>
</g>
</svg>
<rect x="299.0" y="65.0" width="80" height="80" fill="none" stroke="black" stroke-width="1.5"/>
<svg x="394.0" y="0.0" width="284.0" height="210.0" viewBox="0 0 284.0 210" xmlns="http://www.w3.org/2000/svg" xmlns:xlink="http://www.w3.org/1999/xlink">
<defs>
<clipPath id="clip-4519489168-4530019408">
<path d="M105.0,105.0 L105.0,5.0 A100,100,0,0,1,191.60254037844388,155.0 Z" fill="none" />
</clipPath>
<clipPath id="clip-4519489168-4530024272">
<path d="M105.0,105.0 L191.60254037844388,155.0 A100,100,0,0,1,18.397459621556123,155.0 Z" fill="none" />
</clipPath>
</defs>
<g>
<path d="M105.0,105.0 L105.0,5.0 A100,100,0,0,1,191.60254037844388,155.0 Z" fill="none" stroke="lightgray" stroke-width="2" />
<path d="M105.0,105.0 L191.60254037844388,155.0 A100,100,0,0,1,18.397459621556123,155.0 Z" fill="none" stroke="lightgray" stroke-width="2" />
<path d="M105.0,105.0 L18.397459621556123,155.0 A100,100,0,0,1,104.99999999999999,5.0 Z" fill="none" stroke="lightgray" stroke-width="2" />
<path d="M105.0,105.0 L105.0,5.0 A100,100,0,0,1,191.60254037844388,155.0 Z" fill="#F5C754" stroke="lightgray" stroke-width="2" />
<use xlink:href="#clip-4519489168-4530019408" />
<g clip-path="url(#clip-4519489168-4530019408)">
<circle cx="105.0" cy="105.0" r="92" stroke="#DAA05D" stroke-width="16" fill="none" />
<circle cx="105.0" cy="105.0" r="98" stroke="#C37B32" stroke-width="5" fill="none" />
<circle cx="150.16930721382764" cy="131.78725905141764" r="4.621985201289717" fill="#8B4513" fill-opacity="0.5291418873772519" />
<circle cx="163.60615884020183" cy="125.66544772062602" r="2.2832999626298514" fill="#FFFFFF" fill-opacity="0.5456106559446565" />
<circle cx="152.01020442266625" cy="144.48453140546448" r="3.0101949726826893" fill="#FFFFFF" fill-opacity="0.5206158634175101" />
<circle cx="111.58803372871098" cy="63.584023176617805" r="4.448139007700835" fill="#FFDE75" fill-opacity="0.5182665766671053" />
<circle cx="87.42663359174486" cy="151.36589292591142" r="2.6890711054981957" fill="#FFFFFF" fill-opacity="0.5166518377603263" />
<circle cx="47.551731799890376" cy="58.71032367063185" r="2.835916467751546" fill="#8B4513" fill-opacity="0.49988771417344685" />
<circle cx="61.85632618523402" cy="143.02797203060737" r="4.989296793332681" fill="#FFDE75" fill-opacity="0.31094585148665616" />
<circle cx="120.86650049349058" cy="128.629227441745" r="4.822069475220841" fill="#D2691E" fill-opacity="0.5778813778741752" />
<circle cx="153.5112773352417" cy="147.9826044464391" r="3.0135148495655506" fill="#D2691E" fill-opacity="0.28626416327368037" />
<circle cx="180.18061370264888" cy="140.06372021496605" r="4.443460845077819" fill="#FFDE75" fill-opacity="0.3023684619007732" />
<circle cx="176.05800942160664" cy="144.5164346306911" r="5.896889989283363" fill="#8B4513" fill-opacity="0.3205377796625759" />
<circle cx="161.79328598924832" cy="166.58507028130256" r="3.993399014373854" fill="#FFFFFF" fill-opacity="0.4953530734112352" />
<circle cx="30.09284802392733" cy="85.57383319865369" r="3.8821753221829507" fill="#FFFFFF" fill-opacity="0.46748551219419193" />
<circle cx="66.4179906328772" cy="160.7160340166694" r="4.167847150997165" fill="#FFFFFF" fill-opacity="0.2565009182130179" />
<circle cx="80.53941521040471" cy="33.282487827173625" r="2.280438244990554" fill="#FFFFFF" fill-opacity="0.5175507924749729" />
<circle cx="68.62178777468674" cy="145.8001574279803" r="2.78948881492709" fill="#FFDE75" fill-opacity="0.329246180081568" />
<circle cx="54.4147314385547" cy="106.7901952597207" r="3.502681192168904" fill="#FFDE75" fill-opacity="0.3883018286397375" />
<circle cx="127.69265669291718" cy="39.92361467886336" r="2.51019278212012" fill="#FFFFFF" fill-opacity="0.27439542328939165" />
<circle cx="135.55358087638774" cy="82.60554726286671" r="3.4506128312464663" fill="#D2691E" fill-opacity="0.43377044663721076" />
<circle cx="143.89882158819063" cy="172.45030834760243" r="5.62196088462897" fill="#FFDE75" fill-opacity="0.4794803713420004" />
<circle cx="81.79783708095698" cy="74.39257273017081" r="4.9775318261769765" fill="#FFFFFF" fill-opacity="0.5169233886455469" />
<circle cx="36.507734388900516" cy="144.4900229237927" r="5.0009271292573345" fill="#FFDE75" fill-opacity="0.3227084109317912" />
<circle cx="99.9872548368867" cy="44.47270595364292" r="4.021049772502223" fill="#D2691E" fill-opacity="0.32873964944239276" />
<circle cx="174.26998181089402" cy="133.47038067228934" r="3.5033375331688723" fill="#D2691E" fill-opacity="0.3635979875454173" />
<circle cx="112.36836114567934" cy="168.14380762792993" r="5.59353802610034" fill="#D2691E" fill-opacity="0.40186394442766515" />
<circle cx="163.8972198969268" cy="127.99137844669282" r="2.9712781494394953" fill="#D2691E" fill-opacity="0.2848602221178866" />
<circle cx="111.10718648337807" cy="130.84723636314925" r="4.948171468016253" fill="#D2691E" fill-opacity="0.4670831936996225" />
<circle cx="126.6328860980041" cy="27.990931676599345" r="5.320546517131987" fill="#FFDE75" fill-opacity="0.22976545222757735" />
<circle cx="91.55124446473428" cy="116.10874136376393" r="3.9763884020781664" fill="#FFDE75" fill-opacity="0.3772227539684085" />
<circle cx="61.98171411057144" cy="65.18905134022768" r="3.193941417562135" fill="#8B4513" fill-opacity="0.4268329475456175" />
<ellipse cx="104.13394447428978" cy="80.36666443578555" rx="8.844277426032654" ry="8.749366939751306" fill="#FFFDF0" fill-opacity="0.6" />
<ellipse cx="104.86504017111135" cy="80.35325084478768" rx="2.5628459565519495" ry="2.3740635989908263" fill="#FFFFFF" fill-opacity="0.85" />
<ellipse cx="79.23746917007335" cy="180.5150885252384" rx="6.790729638471566" ry="5.10649949618172" fill="#FFFDF0" fill-opacity="0.6" />
<ellipse cx="79.8299738269947" cy="181.4462416345831" rx="3.107521302051053" ry="2.708571277185932" fill="#FFFFFF" fill-opacity="0.85" />
<ellipse cx="48.929149182506656" cy="60.31441092618028" rx="5.100531443034331" ry="5.243884325351527" fill="#FFFDF0" fill-opacity="0.6" />
<ellipse cx="49.62126898164906" cy="60.240717379917285" rx="2.2625788803397016" ry="3.013322366512635" fill="#FFFFFF" fill-opacity="0.85" />
<ellipse cx="108.83196130638684" cy="146.06668618256032" rx="5.38546287517365" ry="8.458317108558877" fill="#FFFDF0" fill-opacity="0.6" />
<ellipse cx="108.50063398799028" cy="146.66552782422124" rx="3.2889982063743104" ry="2.4041732448522843" fill="#FFFFFF" fill-opacity="0.85" />
<ellipse cx="140.6388704353098" cy="130.3880705704606" rx="8.81770599978077" ry="6.74604152234582" fill="#FFFDF0" fill-opacity="0.6" />
<ellipse cx="140.16843269199444" cy="130.1715819713153" rx="3.0928255363477777" ry="3.8225484906725624" fill="#FFFFFF" fill-opacity="0.85" />
<ellipse cx="65.63361564185266" cy="67.44343703938915" rx="9.462647647699905" ry="6.716668848958737" fill="#FFFDF0" fill-opacity="0.6" />
<ellipse cx="66.35852021950241" cy="66.77521600017853" rx="3.5070814865791573" ry="3.0625727997812486" fill="#FFFFFF" fill-opacity="0.85" />
</g>
<path d="M105.0,105.0 L191.60254037844388,155.0 A100,100,0,0,1,18.397459621556123,155.0 Z" fill="#F5C754" stroke="lightgray" stroke-width="2" />
<use xlink:href="#clip-4519489168-4530024272" />
<g clip-path="url(#clip-4519489168-4530024272)">
<circle cx="105.0" cy="105.0" r="92" stroke="#DAA05D" stroke-width="16" fill="none" />
<circle cx="105.0" cy="105.0" r="98" stroke="#C37B32" stroke-width="5" fill="none" />
<circle cx="150.16930721382764" cy="131.78725905141764" r="4.621985201289717" fill="#8B4513" fill-opacity="0.5291418873772519" />
<circle cx="163.60615884020183" cy="125.66544772062602" r="2.2832999626298514" fill="#FFFFFF" fill-opacity="0.5456106559446565" />
<circle cx="152.01020442266625" cy="144.48453140546448" r="3.0101949726826893" fill="#FFFFFF" fill-opacity="0.5206158634175101" />
<circle cx="111.58803372871098" cy="63.584023176617805" r="4.448139007700835" fill="#FFDE75" fill-opacity="0.5182665766671053" />
<circle cx="87.42663359174486" cy="151.36589292591142" r="2.6890711054981957" fill="#FFFFFF" fill-opacity="0.5166518377603263" />
<circle cx="47.551731799890376" cy="58.71032367063185" r="2.835916467751546" fill="#8B4513" fill-opacity="0.49988771417344685" />
<circle cx="61.85632618523402" cy="143.02797203060737" r="4.989296793332681" fill="#FFDE75" fill-opacity="0.31094585148665616" />
<circle cx="120.86650049349058" cy="128.629227441745" r="4.822069475220841" fill="#D2691E" fill-opacity="0.5778813778741752" />
<circle cx="153.5112773352417" cy="147.9826044464391" r="3.0135148495655506" fill="#D2691E" fill-opacity="0.28626416327368037" />
<circle cx="180.18061370264888" cy="140.06372021496605" r="4.443460845077819" fill="#FFDE75" fill-opacity="0.3023684619007732" />
<circle cx="176.05800942160664" cy="144.5164346306911" r="5.896889989283363" fill="#8B4513" fill-opacity="0.3205377796625759" />
<circle cx="161.79328598924832" cy="166.58507028130256" r="3.993399014373854" fill="#FFFFFF" fill-opacity="0.4953530734112352" />
<circle cx="30.09284802392733" cy="85.57383319865369" r="3.8821753221829507" fill="#FFFFFF" fill-opacity="0.46748551219419193" />
<circle cx="66.4179906328772" cy="160.7160340166694" r="4.167847150997165" fill="#FFFFFF" fill-opacity="0.2565009182130179" />
<circle cx="80.53941521040471" cy="33.282487827173625" r="2.280438244990554" fill="#FFFFFF" fill-opacity="0.5175507924749729" />
<circle cx="68.62178777468674" cy="145.8001574279803" r="2.78948881492709" fill="#FFDE75" fill-opacity="0.329246180081568" />
<circle cx="54.4147314385547" cy="106.7901952597207" r="3.502681192168904" fill="#FFDE75" fill-opacity="0.3883018286397375" />
<circle cx="127.69265669291718" cy="39.92361467886336" r="2.51019278212012" fill="#FFFFFF" fill-opacity="0.27439542328939165" />
<circle cx="135.55358087638774" cy="82.60554726286671" r="3.4506128312464663" fill="#D2691E" fill-opacity="0.43377044663721076" />
<circle cx="143.89882158819063" cy="172.45030834760243" r="5.62196088462897" fill="#FFDE75" fill-opacity="0.4794803713420004" />
<circle cx="81.79783708095698" cy="74.39257273017081" r="4.9775318261769765" fill="#FFFFFF" fill-opacity="0.5169233886455469" />
<circle cx="36.507734388900516" cy="144.4900229237927" r="5.0009271292573345" fill="#FFDE75" fill-opacity="0.3227084109317912" />
<circle cx="99.9872548368867" cy="44.47270595364292" r="4.021049772502223" fill="#D2691E" fill-opacity="0.32873964944239276" />
<circle cx="174.26998181089402" cy="133.47038067228934" r="3.5033375331688723" fill="#D2691E" fill-opacity="0.3635979875454173" />
<circle cx="112.36836114567934" cy="168.14380762792993" r="5.59353802610034" fill="#D2691E" fill-opacity="0.40186394442766515" />
<circle cx="163.8972198969268" cy="127.99137844669282" r="2.9712781494394953" fill="#D2691E" fill-opacity="0.2848602221178866" />
<circle cx="111.10718648337807" cy="130.84723636314925" r="4.948171468016253" fill="#D2691E" fill-opacity="0.4670831936996225" />
<circle cx="126.6328860980041" cy="27.990931676599345" r="5.320546517131987" fill="#FFDE75" fill-opacity="0.22976545222757735" />
<circle cx="91.55124446473428" cy="116.10874136376393" r="3.9763884020781664" fill="#FFDE75" fill-opacity="0.3772227539684085" />
<circle cx="61.98171411057144" cy="65.18905134022768" r="3.193941417562135" fill="#8B4513" fill-opacity="0.4268329475456175" />
<ellipse cx="104.13394447428978" cy="80.36666443578555" rx="8.844277426032654" ry="8.749366939751306" fill="#FFFDF0" fill-opacity="0.6" />
<ellipse cx="104.86504017111135" cy="80.35325084478768" rx="2.5628459565519495" ry="2.3740635989908263" fill="#FFFFFF" fill-opacity="0.85" />
<ellipse cx="79.23746917007335" cy="180.5150885252384" rx="6.790729638471566" ry="5.10649949618172" fill="#FFFDF0" fill-opacity="0.6" />
<ellipse cx="79.8299738269947" cy="181.4462416345831" rx="3.107521302051053" ry="2.708571277185932" fill="#FFFFFF" fill-opacity="0.85" />
<ellipse cx="48.929149182506656" cy="60.31441092618028" rx="5.100531443034331" ry="5.243884325351527" fill="#FFFDF0" fill-opacity="0.6" />
<ellipse cx="49.62126898164906" cy="60.240717379917285" rx="2.2625788803397016" ry="3.013322366512635" fill="#FFFFFF" fill-opacity="0.85" />
<ellipse cx="108.83196130638684" cy="146.06668618256032" rx="5.38546287517365" ry="8.458317108558877" fill="#FFFDF0" fill-opacity="0.6" />
<ellipse cx="108.50063398799028" cy="146.66552782422124" rx="3.2889982063743104" ry="2.4041732448522843" fill="#FFFFFF" fill-opacity="0.85" />
<ellipse cx="140.6388704353098" cy="130.3880705704606" rx="8.81770599978077" ry="6.74604152234582" fill="#FFFDF0" fill-opacity="0.6" />
<ellipse cx="140.16843269199444" cy="130.1715819713153" rx="3.0928255363477777" ry="3.8225484906725624" fill="#FFFFFF" fill-opacity="0.85" />
<ellipse cx="65.63361564185266" cy="67.44343703938915" rx="9.462647647699905" ry="6.716668848958737" fill="#FFFDF0" fill-opacity="0.6" />
<ellipse cx="66.35852021950241" cy="66.77521600017853" rx="3.5070814865791573" ry="3.0625727997812486" fill="#FFFFFF" fill-opacity="0.85" />
</g>
<rect x="230.0" y="41.0" width="54.0" height="54.0" fill="none" stroke="black" stroke-width="2" />
<rect x="230.0" y="115.0" width="54.0" height="54.0" fill="none" stroke="black" stroke-width="2" />
<path d="M225.0,105.0 L289.0,105.0" stroke="black" stroke-width="2" />
<text x="257.0" y="68.0" font-size="36" font-family="Comic Sans MS, Comic Sans, cursive" dominant-baseline="middle" fill="black" text-anchor="middle">2</text>
<text x="257.0" y="142.0" font-size="36" font-family="Comic Sans MS, Comic Sans, cursive" dominant-baseline="middle" fill="black" text-anchor="middle">3</text>
</g>
</svg>
</svg>