<svg width="509.0" height="210.0" xmlns="http://www.w3.org/2000/svg" xmlns:xlink="http://www.w3.org/1999/xlink">
<svg x="0.0" y="0.0" width="210.0" height="210.0" viewBox="0 0 210 210" xmlns="http://www.w3.org/2000/svg" xmlns:xlink="http://www.w3.org/1999/xlink">
<defs>
<clipPath id="clip-4556256704-4567300176">
<circle cx="105.0" cy="105.0" r="100" fill="none" />
</clipPath>
</defs>
<g>
<circle cx="105.0" cy="105.0" r="100" fill="#F5C754" />
<use xlink:href="#clip-4556256704-4567300176" />
<g clip-path="url(#clip-4556256704-4567300176)">
<circle cx="105.0" cy="105.0" r="92" stroke="#DAA05D" stroke-width="16" fill="none" />
<circle cx="105.0" cy="105.0" r="98" stroke="#C37B32" stroke-width="5" fill="none" />
<circle cx="150.1305313329413" cy="103.03126565768147" r="2.6316294107426788" fill="#FFDE75" fill-opacity="0.23041044222129023" />
<circle cx="47.55038353698318" cy="113.09979695854156" r="2.9333411773448876" fill="#FFFFFF" fill-opacity="0.28499986351792617" />
<circle cx="71.71389205257384" cy="115.20997315674127" r="2.0743013635380403" fill="#8B4513" fill-opacity="0.5511130718809968" />
<circle cx="111.14213975503729" cy="163.2201555442517" r="2.4845612798394927" fill="#FFFFFF" fill-opacity="0.4437805874794731" />
<circle cx="39.63383294436642" cy="58.99058982023199" r="4.153128333452891" fill="#FFFFFF" fill-opacity="0.4190139466194389" />
<circle cx="40.705234406778544" cy="86.44974911446647" r="2.1468860237590754" fill="#8B4513" fill-opacity="0.37175715889059546" />
<circle cx="113.83845827746993" cy="23.591364759217043" r="2.069528802057941" fill="#8B4513" fill-opacity="0.3239059234203069" />
<circle cx="176.98707868172983" cy="97.87785813950613" r="4.89739274881537" fill="#D2691E" fill-opacity="0.2946159139299019" />
<circle cx="72.18958561884497" cy="66.6211474625403" r="4.000388617179784" fill="#FFFFFF" fill-opacity="0.5482150417217811" />
<circle cx="99.33208778440414" cy="146.01275396501418" r="5.506756419893383" fill="#FFDE75" fill-opacity="0.5318297174930481" />
<circle cx="99.57389771273914" cy="75.11109436131014" r="3.9074617755024907" fill="#D2691E" fill-opacity="0.3100249905687552" />
<circle cx="135.0366076237118" cy="182.5985488809347" r="3.5515680936855616" fill="#8B4513" fill-opacity="0.33073220848616564" />
<circle cx="56.50616385760616" cy="66.32933528320325" r="2.17223798697926" fill="#FFFFFF" fill-opacity="0.3352917028814334" />
<circle cx="33.66581647112103" cy="96.9226469596379" r="3.348864257456195" fill="#FFDE75" fill-opacity="0.5072664836556825" />
<circle cx="156.690713800749" cy="55.20446659169723" r="5.87615175909535" fill="#D2691E" fill-opacity="0.4693862571079269" />
<circle cx="179.8025458445528" cy="81.81769651794723" r="4.484020907279042" fill="#FFFFFF" fill-opacity="0.5772228743053438" />
<circle cx="131.04919530988067" cy="172.77520905586107" r="5.214587446331049" fill="#8B4513" fill-opacity="0.5529520920112112" />
<circle cx="153.7393371711889" cy="153.38484388332927" r="5.244163098329571" fill="#D2691E" fill-opacity="0.3056555170712505" />
<circle cx="101.01146573781206" cy="68.68517586959922" r="3.508145060138142" fill="#8B4513" fill-opacity="0.5780152198041241" />
<circle cx="164.4219950537432" cy="118.85552417063982" r="2.3466311295113504" fill="#FFDE75" fill-opacity="0.5737117175401298" />
<circle cx="130.8356895865503" cy="137.5664230035867" r="4.441492738246148" fill="#FFFFFF" fill-opacity="0.4540460006862116" />
<circle cx="139.67758816951897" cy="88.26115859625438" r="4.862785816097383" fill="#D2691E" fill-opacity="0.29110202833030835" />
<circle cx="153.27814287803983" cy="74.58333343418869" r="3.966117887819274" fill="#FFFFFF" fill-opacity="0.547446567052474" />
<circle cx="169.1915460356992" cy="107.14848066266147" r="2.7456260221390227" fill="#8B4513" fill-opacity="0.5935009011784731" />
<circle cx="141.31843170554413" cy="76.80245959375895" r="5.96297523841906" fill="#FFFFFF" fill-opacity="0.3021687116936239" />
<circle cx="43.84814040838856" cy="160.2110737884013" r="3.874892093757853" fill="#8B4513" fill-opacity="0.33076260983562294" />
<circle cx="86.42899767772609" cy="90.1695621477505" r="5.789609872938956" fill="#FFFFFF" fill-opacity="0.4311522250978216" />
<circle cx="87.20837911353942" cy="42.70793806103194" r="2.411236112049627" fill="#FFFFFF" fill-opacity="0.2409838044957301" />
<circle cx="108.82884750434123" cy="32.134671574253005" r="4.4970354354846735" fill="#8B4513" fill-opacity="0.22276004310935105" />
<circle cx="129.07191004197261" cy="57.433044086998414" r="4.202694846120125" fill="#FFDE75" fill-opacity="0.20438449149571333" />
<circle cx="144.47411717881985" cy="154.51552030189302" r="9.042940754623535" fill="#C92A2A" stroke="#800000" stroke-width="1" />
<circle cx="140.28739792265202" cy="158.58011195467242" r="0.8734452755325407" fill="#FFA07A" fill-opacity="0.7" />
<circle cx="144.19588411227087" cy="160.02962075141343" r="0.5950684330485504" fill="#FFA07A" fill-opacity="0.7" />
<circle cx="142.05650820935566" cy="153.50512617503995" r="0.7133805269626673" fill="#FFA07A" fill-opacity="0.7" />
<circle cx="139.0819588878599" cy="151.01168284294758" r="0.5341684185223798" fill="#FFA07A" fill-opacity="0.7" />
<circle cx="142.22748392250998" cy="152.3364311220492" r="1.2464145044646924" fill="#FFA07A" fill-opacity="0.7" />
<circle cx="110.21952672139713" cy="60.71696716130963" r="9.563708256440352" fill="#C92A2A" stroke="#800000" stroke-width="1" />
<circle cx="106.60885872055792" cy="57.70563679299756" r="1.2991245461807441" fill="#FFA07A" fill-opacity="0.7" />
<circle cx="114.14964641677321" cy="66.51197593422425" r="0.6013689079272878" fill="#FFA07A" fill-opacity="0.7" />
<circle cx="110.57326472186888" cy="58.357386090577826" r="0.5479976351656602" fill="#FFA07A" fill-opacity="0.7" />
<circle cx="105.64262678145005" cy="57.40465738421593" r="1.0938430498837919" fill="#FFA07A" fill-opacity="0.7" />
<circle cx="131.0146818802433" cy="144.47390163953906" r="9.224429493285403" fill="#C92A2A" stroke="#800000" stroke-width="1" />
<circle cx="136.65560203087313" cy="142.29184632960252" r="0.96137296934047" fill="#FFA07A" fill-opacity="0.7" />
<circle cx="136.59163130381472" cy="149.38570473393918" r="1.3901101420892479" fill="#FFA07A" fill-opacity="0.7" />
<circle cx="126.18838219131554" cy="139.50993871972295" r="0.9718592011457812" fill="#FFA07A" fill-opacity="0.7" />
<circle cx="127.66844452181297" cy="143.08892893141842" r="1.0796126483775323" fill="#FFA07A" fill-opacity="0.7" />
<circle cx="133.98390990068287" cy="148.783952036973" r="0.5158892334177538" fill="#FFA07A" fill-opacity="0.7" />
<circle cx="134.8720829694741" cy="144.64331311700343" r="1.053181271800852" fill="#FFA07A" fill-opacity="0.7" />
<circle cx="127.02431320921463" cy="140.45251320382886" r="0.6486647626434912" fill="#FFA07A" fill-opacity="0.7" />
<circle cx="122.3066835837943" cy="97.52450726237339" r="10.701829473630287" fill="#C92A2A" stroke="#800000" stroke-width="1" />
<circle cx="126.12054539767237" cy="98.44906256707782" r="1.4936208393919095" fill="#FFA07A" fill-opacity="0.7" />
<circle cx="123.36209163499161" cy="94.77056345322819" r="1.4407521901291007" fill="#FFA07A" fill-opacity="0.7" />
<circle cx="120.65862245626218" cy="102.30192375455053" r="0.8232735447238395" fill="#FFA07A" fill-opacity="0.7" />
<circle cx="121.20251911822263" cy="102.72707374481833" r="0.6773108799494288" fill="#FFA07A" fill-opacity="0.7" />
<circle cx="119.239423524701" cy="95.56937942422469" r="1.012413545842942" fill="#FFA07A" fill-opacity="0.7" />
<circle cx="96.97879364180409" cy="110.34636795324182" r="9.669212716439533" fill="#C92A2A" stroke="#800000" stroke-width="1" />
<circle cx="91.56315515987198" cy="110.86485922120715" r="1.0390431903295059" fill="#FFA07A" fill-opacity="0.7" />
<circle cx="101.4163278422038" cy="110.4418392158664" r="0.7447284237118594" fill="#FFA07A" fill-opacity="0.7" />
<circle cx="100.82000791867685" cy="112.35589253088528" r="0.8344399333378839" fill="#FFA07A" fill-opacity="0.7" />
<circle cx="100.61720743438526" cy="114.17322784523486" r="1.194222938694388" fill="#FFA07A" fill-opacity="0.7" />
<circle cx="94.0062935432645" cy="110.9143614998341" r="0.5823843971497698" fill="#FFA07A" fill-opacity="0.7" />
<circle cx="114.40302183670502" cy="52.400530034235004" r="9.020013970985852" fill="#C92A2A" stroke="#800000" stroke-width="1" />
<circle cx="120.3900397349082" cy="51.40728654840146" r="0.8288590492061702" fill="#FFA07A" fill-opacity="0.7" />
<circle cx="113.23151408180895" cy="58.008526342741604" r="1.4634055083381812" fill="#FFA07A" fill-opacity="0.7" />
<circle cx="120.31027005180634" cy="49.759989020517416" r="0.5455718967018287" fill="#FFA07A" fill-opacity="0.7" />
<circle cx="136.45101050624874" cy="106.54383086014799" r="9.10461485983623" fill="#C92A2A" stroke="#800000" stroke-width="1" />
<circle cx="140.38657739163807" cy="108.18329447853927" r="1.3650067076789412" fill="#FFA07A" fill-opacity="0.7" />
<circle cx="139.06091092837613" cy="111.18499127297653" r="0.7461609470368202" fill="#FFA07A" fill-opacity="0.7" />
<circle cx="140.72732917127396" cy="100.90076142948097" r="0.9848977717792214" fill="#FFA07A" fill-opacity="0.7" />
<circle cx="131.65966262772469" cy="111.37025976748482" r="0.5310476956369155" fill="#FFA07A" fill-opacity="0.7" />
<circle cx="135.58034849583987" cy="106.39132443222465" r="0.9146257072640197" fill="#FFA07A" fill-opacity="0.7" />
<circle cx="131.21819199039248" cy="104.34235340765193" r="0.9082890894699184" fill="#FFA07A" fill-opacity="0.7" />
<circle cx="48.6936241197691" cy="151.18880275324233" r="11.23375602170453" fill="#C92A2A" stroke="#800000" stroke-width="1" />
<circle cx="50.75225336278625" cy="149.673564116077" r="1.383089054071015" fill="#FFA07A" fill-opacity="0.7" />
<circle cx="42.96728589115119" cy="152.05442620334384" r="0.9107419515805322" fill="#FFA07A" fill-opacity="0.7" />
<circle cx="47.89947090986753" cy="150.8113211985121" r="1.2433302797358858" fill="#FFA07A" fill-opacity="0.7" />
<circle cx="54.60538081097815" cy="147.32148255939296" r="1.404112635748086" fill="#FFA07A" fill-opacity="0.7" />
<circle cx="50.64487678417475" cy="150.38311785555652" r="0.8771317374607785" fill="#FFA07A" fill-opacity="0.7" />
<circle cx="50.2417156483234" cy="153.98399612276745" r="0.9354084192233376" fill="#FFA07A" fill-opacity="0.7" />
<circle cx="51.425074680690706" cy="151.44991709171208" r="1.4813935885031562" fill="#FFA07A" fill-opacity="0.7" />
</g>
<path d="M105.0,105.0 L105.0,5.0" stroke="lightgray" stroke-width="2" />
<path d="M105.0,105.0 L105.0,205.0" stroke="lightgray" stroke-width="2" />
<circle cx="105.0" cy="105.0" r="100" fill="none" stroke="lightgray" stroke-width="2" />
</g>
</svg>
<svg x="225.0" y="0.0" width="284.0" height="210.0" viewBox="0 0 284.0 210" xmlns="http://www.w3.org/2000/svg" xmlns:xlink="http://www.w3.org/1999/xlink">
<defs>
<clipPath id="clip-4553630800-4502198480">
<path d="M105.0,105.0 L105.0,5.0 A100,100,0,0,1,105.0,205.0 Z" fill="none" />
</clipPath>
</defs>
<g>
<path d="M105.0,105.0 L105.0,5.0 A100,100,0,0,1,105.0,205.0 Z" fill="none" stroke="lightgray" stroke-width="2" />
<path d="M105.0,105.0 L105.0,205.0 A100,100,0,0,1,104.99999999999999,5.0 Z" fill="none" stroke="lightgray" stroke-width="2" />
<path d="M105.0,105.0 L105.0,5.0 A100,100,0,0,1,105.0,205.0 Z" fill="#F5C754" stroke="lightgray" stroke-width="2" />
<use xlink:href="#clip-4553630800-4502198480" />
<g clip-path="url(#clip-4553630800-4502198480)">
<circle cx="105.0" cy="105.0" r="92" stroke="#DAA05D" stroke-width="16" fill="none" />
<circle cx="105.0" cy="105.0" r="98" stroke="#C37B32" stroke-width="5" fill="none" />
<circle cx="30.026495063817677" cy="94.46655777036133" r="5.451902280358031" fill="#8B4513" fill-opacity="0.42105845210869863" />
<circle cx="80.95949036337309" cy="134.88308347633276" r="2.237562109304758" fill="#FFDE75" fill-opacity="0.40434044030483757" />
<circle cx="164.07468221789694" cy="129.43960441487474" r="5.971795721976857" fill="#FFDE75" fill-opacity="0.2163615200096418" />
<circle cx="119.07974128055378" cy="52.543380447794604" r="2.8993689290325686" fill="#FFDE75" fill-opacity="0.4063772081884146" />
<circle cx="147.46831023481727" cy="39.061717730966166" r="2.774141736849602" fill="#FFFFFF" fill-opacity="0.2177209494973182" />
<circle cx="178.42504171569476" cy="144.6285103893818" r="4.064525781336783" fill="#FFDE75" fill-opacity="0.494390328989481" />
<circle cx="120.1449257063255" cy="81.85138344934144" r="4.11187947380559" fill="#D2691E" fill-opacity="0.5359673463437495" />
<circle cx="91.17451594811926" cy="146.2474939594626" r="3.1005565573648184" fill="#D2691E" fill-opacity="0.36020087803927303" />
<circle cx="178.8752619227095" cy="141.78209381421374" r="5.788493354673301" fill="#FFFFFF" fill-opacity="0.5350491684356398" />
<circle cx="109.62879579089102" cy="169.62089553750457" r="2.608611355096274" fill="#FFDE75" fill-opacity="0.3002332585894575" />
<circle cx="111.51686088945802" cy="186.63008615715106" r="5.0441500883987445" fill="#FFDE75" fill-opacity="0.5299656771394551" />
<circle cx="41.449214426323934" cy="146.98033171780438" r="2.490741781877207" fill="#D2691E" fill-opacity="0.47804619250984054" />
<circle cx="57.14886314040886" cy="139.59988321316038" r="5.566698875165054" fill="#FFFFFF" fill-opacity="0.47416269540086253" />
<circle cx="176.76120511344897" cy="65.33309389793037" r="4.134896380583871" fill="#8B4513" fill-opacity="0.33847566103235105" />
<circle cx="175.19799135366327" cy="69.34371045496131" r="3.659783098695201" fill="#FFDE75" fill-opacity="0.49633286937575627" />
<circle cx="127.78592836445412" cy="125.60869446541543" r="10.369913852292049" fill="#C92A2A" stroke="#800000" stroke-width="1" />
<circle cx="125.45877584562108" cy="128.61771304129257" r="0.9397820403882698" fill="#FFA07A" fill-opacity="0.7" />
<circle cx="133.6845112814578" cy="121.54793379147613" r="1.0313035928507586" fill="#FFA07A" fill-opacity="0.7" />
<circle cx="128.12900035400082" cy="127.8939064612059" r="0.9182794664078131" fill="#FFA07A" fill-opacity="0.7" />
<circle cx="124.27671959125693" cy="128.2421523969287" r="0.6593106365095722" fill="#FFA07A" fill-opacity="0.7" />
<circle cx="129.59585577278045" cy="126.26325298683572" r="1.2579947139152212" fill="#FFA07A" fill-opacity="0.7" />
<circle cx="122.39213137476845" cy="124.39906071483364" r="1.4857569953972507" fill="#FFA07A" fill-opacity="0.7" />
<circle cx="124.52588582461698" cy="122.86610888821369" r="1.4259703851655485" fill="#FFA07A" fill-opacity="0.7" />
<circle cx="92.38688234680092" cy="137.45016147067207" r="11.444603069488917" fill="#C92A2A" stroke="#800000" stroke-width="1" />
<circle cx="94.31107468026826" cy="133.11412060475018" r="0.6443831142702287" fill="#FFA07A" fill-opacity="0.7" />
<circle cx="97.64543359671939" cy="134.0829857096171" r="1.2672944404865705" fill="#FFA07A" fill-opacity="0.7" />
<circle cx="92.04026490657083" cy="137.06410865584775" r="1.1784022802231089" fill="#FFA07A" fill-opacity="0.7" />
<circle cx="151.0755430577751" cy="142.2402456949069" r="11.700833726310195" fill="#C92A2A" stroke="#800000" stroke-width="1" />
<circle cx="148.24300040782146" cy="148.08706421741113" r="0.8766071586413969" fill="#FFA07A" fill-opacity="0.7" />
<circle cx="148.32183950972535" cy="139.11222454358003" r="1.29147334027255" fill="#FFA07A" fill-opacity="0.7" />
<circle cx="146.0096396812022" cy="147.83405410363216" r="0.7314439772860313" fill="#FFA07A" fill-opacity="0.7" />
<circle cx="41.958729076392295" cy="71.31970026014503" r="11.19535360759438" fill="#C92A2A" stroke="#800000" stroke-width="1" />
<circle cx="45.429852798702655" cy="69.74978886896756" r="0.6789561555978503" fill="#FFA07A" fill-opacity="0.7" />
<circle cx="42.87065518439819" cy="70.5383503251139" r="0.8988844436864524" fill="#FFA07A" fill-opacity="0.7" />
<circle cx="42.815709742603104" cy="68.92044529441347" r="0.6975862328091796" fill="#FFA07A" fill-opacity="0.7" />
<circle cx="40.7232465365101" cy="66.067968498508" r="0.6896065048645348" fill="#FFA07A" fill-opacity="0.7" />
</g>
<rect x="230.0" y="41.0" width="54.0" height="54.0" fill="none" stroke="black" stroke-width="2" />
<rect x="230.0" y="115.0" width="54.0" height="54.0" fill="none" stroke="black" stroke-width="2" />
<path d="M225.0,105.0 L289.0,105.0" stroke="black" stroke-width="2" />
</g>
</svg>
</svg>