<?xml version="1.0" encoding="UTF-8"?>
<svg xmlns="http://www.w3.org/2000/svg" xmlns:xlink="http://www.w3.org/1999/xlink"
     width="284.0" height="210" viewBox="0 0 284.0 210">
<defs>
<clipPath id="clip-4556257008-4502198480">
<path d="M105.0,105.0 L105.0,5.0 A100,100,0,0,1,205.0,105.0 Z" fill="none" />
</clipPath>
<clipPath id="clip-4556257008-4566782160">
<path d="M105.0,105.0 L205.0,105.0 A100,100,0,0,1,105.0,205.0 Z" fill="none" />
</clipPath>
<clipPath id="clip-4556257008-4567291216">
<path d="M105.0,105.0 L105.0,205.0 A100,100,0,0,1,5.0,105.00000000000001 Z" fill="none" />
</clipPath>
</defs>
<g>
<path d="M105.0,105.0 L105.0,5.0 A100,100,0,0,1,205.0,105.0 Z" fill="none" stroke="lightgray" stroke-width="2" />
<path d="M105.0,105.0 L205.0,105.0 A100,100,0,0,1,105.0,205.0 Z" fill="none" stroke="lightgray" stroke-width="2" />
<path d="M105.0,105.0 L105.0,205.0 A100,100,0,0,1,5.0,105.00000000000001 Z" fill="none" stroke="lightgray" stroke-width="2" />
<path d="M105.0,105.0 L5.0,105.00000000000001 A100,100,0,0,1,104.99999999999999,5.0 Z" fill="none" stroke="lightgray" stroke-width="2" />
<path d="M105.0,105.0 L105.0,5.0 A100,100,0,0,1,205.0,105.0 Z" fill="#F5C754" stroke="lightgray" stroke-width="2" />
<use xlink:href="#clip-4556257008-4502198480" />
<g clip-path="url(#clip-4556257008-4502198480)">
<circle cx="105.0" cy="105.0" r="92" stroke="#DAA05D" stroke-width="16" fill="none" />
<circle cx="105.0" cy="105.0" r="98" stroke="#C37B32" stroke-width="5" fill="none" />
<circle cx="111.56077281371851" cy="56.73164386630947" r="5.149259191159045" fill="#D2691E" fill-opacity="0.5048539261654791" />
<circle cx="146.76055796962837" cy="42.10460286355844" r="2.9037373027931817" fill="#FFFFFF" fill-opacity="0.20752508797099753" />
<circle cx="125.21648536998993" cy="75.84244935840943" r="4.730642458846542" fill="#8B4513" fill-opacity="0.5601644494575937" />
<circle cx="155.1802099305455" cy="87.86179635797926" r="5.395882515391593" fill="#8B4513" fill-opacity="0.45943163144777355" />
<circle cx="118.61784630004989" cy="141.4189694802336" r="3.3826740475812245" fill="#FFFFFF" fill-opacity="0.3261160803102745" />
<circle cx="107.2680542027463" cy="39.49942622873415" r="5.595088048193578" fill="#8B4513" fill-opacity="0.374827678818088" />
<circle cx="126.54860952362169" cy="48.638251415799886" r="2.7982846766638665" fill="#FFDE75" fill-opacity="0.3044818691540406" />
<circle cx="174.21119813328704" cy="68.73095479262628" r="3.7975641874794395" fill="#FFDE75" fill-opacity="0.2519240648040303" />
<circle cx="135.48938790058992" cy="128.82723178334103" r="2.2184558066729854" fill="#FFDE75" fill-opacity="0.38987608889469055" />
<circle cx="79.86055645790302" cy="61.00348998667916" r="2.556358646377262" fill="#8B4513" fill-opacity="0.4873041670924036" />
<circle cx="51.920235536061845" cy="153.63248179555507" r="2.3355423899037357" fill="#FFDE75" fill-opacity="0.39078585839211955" />
<circle cx="110.00255980281685" cy="110.13268617429043" r="5.679028832981526" fill="#FFDE75" fill-opacity="0.5874758063477421" />
<circle cx="120.71416808442885" cy="107.419911152414" r="5.570860654317828" fill="#8B4513" fill-opacity="0.5653247297309921" />
<circle cx="55.84953326236341" cy="113.08450492136478" r="4.485424128520005" fill="#D2691E" fill-opacity="0.3779419906257342" />
<circle cx="150.62081187428618" cy="40.40489245726337" r="4.392760838382898" fill="#8B4513" fill-opacity="0.2551093874509064" />
<circle cx="181.70711403681014" cy="114.77336948802062" r="5.244115201104821" fill="#FFDE75" fill-opacity="0.3526219707502757" />
<circle cx="52.497575739258494" cy="128.94286380675115" r="4.2090757423410565" fill="#FFDE75" fill-opacity="0.42649409900312557" />
<circle cx="86.49539348410636" cy="146.25607220762288" r="2.277685665000757" fill="#8B4513" fill-opacity="0.20449504842056987" />
<circle cx="130.96711853913848" cy="117.71388856350183" r="4.139941238140489" fill="#D2691E" fill-opacity="0.5821311871190755" />
<circle cx="177.73913077435498" cy="74.79485510815911" r="2.874233258502323" fill="#D2691E" fill-opacity="0.36354363734504747" />
<circle cx="101.31263484908685" cy="38.793264617355405" r="3.722533330259733" fill="#8B4513" fill-opacity="0.5081420286411651" />
<circle cx="111.33469221033148" cy="147.24450398341222" r="3.726639367676455" fill="#FFFFFF" fill-opacity="0.5987458465403961" />
<circle cx="106.04940762135973" cy="131.88428955931843" r="5.973912535498575" fill="#FFFFFF" fill-opacity="0.5076979340182983" />
<circle cx="112.58091909166473" cy="98.49675272201026" r="5.159956465415112" fill="#FFFFFF" fill-opacity="0.2318089147407681" />
<circle cx="64.5404844718656" cy="54.756033246679756" r="2.534276267320614" fill="#FFFFFF" fill-opacity="0.49930396170730423" />
<circle cx="83.23496614812935" cy="113.09259336721885" r="2.8581260402170385" fill="#D2691E" fill-opacity="0.41834590507307357" />
<circle cx="39.32597812820143" cy="98.54919339561279" r="2.6195622933674856" fill="#FFFFFF" fill-opacity="0.4674701105603263" />
<circle cx="145.1820969600475" cy="103.77656777274389" r="3.423658715128275" fill="#FFFFFF" fill-opacity="0.2279845156210037" />
<circle cx="54.873421517722946" cy="65.41193602676523" r="5.6576537622780965" fill="#8B4513" fill-opacity="0.20285970202071424" />
<circle cx="123.16702147483137" cy="62.397243659246605" r="4.7940161654961475" fill="#FFDE75" fill-opacity="0.2297290298515387" />
<circle cx="110.35733558120477" cy="81.90873929597866" r="3.7363365184636175" fill="#FFFFFF" fill-opacity="0.3828686140301704" />
<circle cx="64.81412586430386" cy="122.7937055251143" r="5.322720187782474" fill="#D2691E" fill-opacity="0.4500140551823212" />
<circle cx="113.66403796071631" cy="183.6352021373075" r="3.334461946526399" fill="#FFFFFF" fill-opacity="0.5410233634668556" />
<circle cx="136.18952200651032" cy="113.0935036140541" r="3.1259443086061847" fill="#D2691E" fill-opacity="0.30931762064470475" />
<circle cx="140.9750287501512" cy="177.06892942712742" r="3.561546706614428" fill="#D2691E" fill-opacity="0.48907363718258806" />
<circle cx="121.42114929316321" cy="35.403118049030354" r="5.879895010338535" fill="#FFDE75" fill-opacity="0.33028850883586064" />
<circle cx="127.79907512465239" cy="75.51320438341438" r="2.4862145747027915" fill="#FFFFFF" fill-opacity="0.5610522976429437" />
<circle cx="91.87886099773083" cy="56.21545399579692" r="3.421320272803699" fill="#D2691E" fill-opacity="0.30491218286281707" />
<circle cx="49.050925462471675" cy="60.98649911443026" r="4.032523152496489" fill="#8B4513" fill-opacity="0.3629334836656894" />
<circle cx="75.1935126685862" cy="102.74527388218189" r="4.2495242118041405" fill="#FFDE75" fill-opacity="0.49601263375725774" />
<circle cx="72.96550182818305" cy="75.24490465084715" r="3.122292590667977" fill="#D2691E" fill-opacity="0.303144113079157" />
<circle cx="129.74079366221042" cy="35.67941490881559" r="4.756763076134482" fill="#D2691E" fill-opacity="0.21873281268756686" />
<circle cx="27.72847746710771" cy="107.91469043466913" r="5.6085683068480865" fill="#FFFFFF" fill-opacity="0.35429662706124787" />
<circle cx="177.35996466524682" cy="70.17244787954705" r="2.7051001529998455" fill="#8B4513" fill-opacity="0.37334101305372425" />
<circle cx="124.08076821799506" cy="157.86126022823095" r="3.073115502735822" fill="#FFDE75" fill-opacity="0.22108250739565763" />
<ellipse cx="58.53964127249417" cy="112.51328365390123" rx="7.463521519677032" ry="5.6638162534450744" fill="#FFFDF0" fill-opacity="0.6" />
<ellipse cx="58.362573669485926" cy="111.8332398210788" rx="3.857475259094645" ry="3.4422833248934532" fill="#FFFFFF" fill-opacity="0.85" />
<ellipse cx="62.655404312232044" cy="36.386655393537126" rx="6.41035439361644" ry="8.537092249489955" fill="#FFFDF0" fill-opacity="0.6" />
<ellipse cx="61.84936101840556" cy="37.32352088896951" rx="4.768442587152039" ry="3.2103615849406912" fill="#FFFFFF" fill-opacity="0.85" />
<ellipse cx="84.36677380460728" cy="133.92703638557273" rx="8.198644463580441" ry="8.22451413979764" fill="#FFFDF0" fill-opacity="0.6" />
<ellipse cx="85.32684860097731" cy="134.10127105674644" rx="4.93948131907408" ry="2.0915092945651894" fill="#FFFFFF" fill-opacity="0.85" />
<ellipse cx="135.38347943851798" cy="109.82599862442044" rx="6.4172244896560455" ry="8.100050422848232" fill="#FFFDF0" fill-opacity="0.6" />
<ellipse cx="134.66873555041101" cy="109.7674136074383" rx="4.618470124585686" ry="2.103271069491866" fill="#FFFFFF" fill-opacity="0.85" />
<ellipse cx="24.962908013097532" cy="98.29060450812543" rx="8.615178288739905" ry="8.619739963253426" fill="#FFFDF0" fill-opacity="0.6" />
<ellipse cx="25.241795095762736" cy="98.4154966813341" rx="2.523476697140609" ry="2.455965836492573" fill="#FFFFFF" fill-opacity="0.85" />
<ellipse cx="160.66664002324933" cy="79.52216795331961" rx="5.103674802954649" ry="7.88829878266238" fill="#FFFDF0" fill-opacity="0.6" />
<ellipse cx="161.12669600856336" cy="79.02344038502089" rx="4.916478428008155" ry="3.927796355285418" fill="#FFFFFF" fill-opacity="0.85" />
<ellipse cx="61.74799903776428" cy="74.56145925154868" rx="8.88346605882953" ry="8.571265869779525" fill="#FFFDF0" fill-opacity="0.6" />
<ellipse cx="62.393472493111524" cy="75.3980474144445" rx="2.1983531436549533" ry="2.1099801908154046" fill="#FFFFFF" fill-opacity="0.85" />
<ellipse cx="166.4615871997534" cy="136.2327270843336" rx="7.729486107931877" ry="5.413038420667956" fill="#FFFDF0" fill-opacity="0.6" />
<ellipse cx="166.09952627204842" cy="135.79619154745296" rx="3.142637521079246" ry="2.9520367021594387" fill="#FFFFFF" fill-opacity="0.85" />
<ellipse cx="144.14922771831772" cy="126.45882330711184" rx="9.361521622776653" ry="4.058835948679806" fill="#FFFDF0" fill-opacity="0.6" />
<ellipse cx="144.16638618090818" cy="126.57312048767628" rx="3.76273364136316" ry="2.1480807965382382" fill="#FFFFFF" fill-opacity="0.85" />
</g>
<path d="M105.0,105.0 L205.0,105.0 A100,100,0,0,1,105.0,205.0 Z" fill="#F5C754" stroke="lightgray" stroke-width="2" />
<use xlink:href="#clip-4556257008-4566782160" />
<g clip-path="url(#clip-4556257008-4566782160)">
<circle cx="105.0" cy="105.0" r="92" stroke="#DAA05D" stroke-width="16" fill="none" />
<circle cx="105.0" cy="105.0" r="98" stroke="#C37B32" stroke-width="5" fill="none" />
<circle cx="111.56077281371851" cy="56.73164386630947" r="5.149259191159045" fill="#D2691E" fill-opacity="0.5048539261654791" />
<circle cx="146.76055796962837" cy="42.10460286355844" r="2.9037373027931817" fill="#FFFFFF" fill-opacity="0.20752508797099753" />
<circle cx="125.21648536998993" cy="75.84244935840943" r="4.730642458846542" fill="#8B4513" fill-opacity="0.5601644494575937" />
<circle cx="155.1802099305455" cy="87.86179635797926" r="5.395882515391593" fill="#8B4513" fill-opacity="0.45943163144777355" />
<circle cx="118.61784630004989" cy="141.4189694802336" r="3.3826740475812245" fill="#FFFFFF" fill-opacity="0.3261160803102745" />
<circle cx="107.2680542027463" cy="39.49942622873415" r="5.595088048193578" fill="#8B4513" fill-opacity="0.374827678818088" />
<circle cx="126.54860952362169" cy="48.638251415799886" r="2.7982846766638665" fill="#FFDE75" fill-opacity="0.3044818691540406" />
<circle cx="174.21119813328704" cy="68.73095479262628" r="3.7975641874794395" fill="#FFDE75" fill-opacity="0.2519240648040303" />
<circle cx="135.48938790058992" cy="128.82723178334103" r="2.2184558066729854" fill="#FFDE75" fill-opacity="0.38987608889469055" />
<circle cx="79.86055645790302" cy="61.00348998667916" r="2.556358646377262" fill="#8B4513" fill-opacity="0.4873041670924036" />
<circle cx="51.920235536061845" cy="153.63248179555507" r="2.3355423899037357" fill="#FFDE75" fill-opacity="0.39078585839211955" />
<circle cx="110.00255980281685" cy="110.13268617429043" r="5.679028832981526" fill="#FFDE75" fill-opacity="0.5874758063477421" />
<circle cx="120.71416808442885" cy="107.419911152414" r="5.570860654317828" fill="#8B4513" fill-opacity="0.5653247297309921" />
<circle cx="55.84953326236341" cy="113.08450492136478" r="4.485424128520005" fill="#D2691E" fill-opacity="0.3779419906257342" />
<circle cx="150.62081187428618" cy="40.40489245726337" r="4.392760838382898" fill="#8B4513" fill-opacity="0.2551093874509064" />
<circle cx="181.70711403681014" cy="114.77336948802062" r="5.244115201104821" fill="#FFDE75" fill-opacity="0.3526219707502757" />
<circle cx="52.497575739258494" cy="128.94286380675115" r="4.2090757423410565" fill="#FFDE75" fill-opacity="0.42649409900312557" />
<circle cx="86.49539348410636" cy="146.25607220762288" r="2.277685665000757" fill="#8B4513" fill-opacity="0.20449504842056987" />
<circle cx="130.96711853913848" cy="117.71388856350183" r="4.139941238140489" fill="#D2691E" fill-opacity="0.5821311871190755" />
<circle cx="177.73913077435498" cy="74.79485510815911" r="2.874233258502323" fill="#D2691E" fill-opacity="0.36354363734504747" />
<circle cx="101.31263484908685" cy="38.793264617355405" r="3.722533330259733" fill="#8B4513" fill-opacity="0.5081420286411651" />
<circle cx="111.33469221033148" cy="147.24450398341222" r="3.726639367676455" fill="#FFFFFF" fill-opacity="0.5987458465403961" />
<circle cx="106.04940762135973" cy="131.88428955931843" r="5.973912535498575" fill="#FFFFFF" fill-opacity="0.5076979340182983" />
<circle cx="112.58091909166473" cy="98.49675272201026" r="5.159956465415112" fill="#FFFFFF" fill-opacity="0.2318089147407681" />
<circle cx="64.5404844718656" cy="54.756033246679756" r="2.534276267320614" fill="#FFFFFF" fill-opacity="0.49930396170730423" />
<circle cx="83.23496614812935" cy="113.09259336721885" r="2.8581260402170385" fill="#D2691E" fill-opacity="0.41834590507307357" />
<circle cx="39.32597812820143" cy="98.54919339561279" r="2.6195622933674856" fill="#FFFFFF" fill-opacity="0.4674701105603263" />
<circle cx="145.1820969600475" cy="103.77656777274389" r="3.423658715128275" fill="#FFFFFF" fill-opacity="0.2279845156210037" />
<circle cx="54.873421517722946" cy="65.41193602676523" r="5.6576537622780965" fill="#8B4513" fill-opacity="0.20285970202071424" />
<circle cx="123.16702147483137" cy="62.397243659246605" r="4.7940161654961475" fill="#FFDE75" fill-opacity="0.2297290298515387" />
<circle cx="110.35733558120477" cy="81.90873929597866" r="3.7363365184636175" fill="#FFFFFF" fill-opacity="0.3828686140301704" />
<circle cx="64.81412586430386" cy="122.7937055251143" r="5.322720187782474" fill="#D2691E" fill-opacity="0.4500140551823212" />
<circle cx="113.66403796071631" cy="183.6352021373075" r="3.334461946526399" fill="#FFFFFF" fill-opacity="0.5410233634668556" />
<circle cx="136.18952200651032" cy="113.0935036140541" r="3.1259443086061847" fill="#D2691E" fill-opacity="0.30931762064470475" />
<circle cx="140.9750287501512" cy="177.06892942712742" r="3.561546706614428" fill="#D2691E" fill-opacity="0.48907363718258806" />
<circle cx="121.42114929316321" cy="35.403118049030354" r="5.879895010338535" fill="#FFDE75" fill-opacity="0.33028850883586064" />
<circle cx="127.79907512465239" cy="75.51320438341438" r="2.4862145747027915" fill="#FFFFFF" fill-opacity="0.5610522976429437" />
<circle cx="91.87886099773083" cy="56.21545399579692" r="3.421320272803699" fill="#D2691E" fill-opacity="0.30491218286281707" />
<circle cx="49.050925462471675" cy="60.98649911443026" r="4.032523152496489" fill="#8B4513" fill-opacity="0.3629334836656894" />
<circle cx="75.1935126685862" cy="102.74527388218189" r="4.2495242118041405" fill="#FFDE75" fill-opacity="0.49601263375725774" />
<circle cx="72.96550182818305" cy="75.24490465084715" r="3.122292590667977" fill="#D2691E" fill-opacity="0.303144113079157" />
<circle cx="129.74079366221042" cy="35.67941490881559" r="4.756763076134482" fill="#D2691E" fill-opacity="0.21873281268756686" />
<circle cx="27.72847746710771" cy="107.91469043466913" r="5.6085683068480865" fill="#FFFFFF" fill-opacity="0.35429662706124787" />
<circle cx="177.35996466524682" cy="70.17244787954705" r="2.7051001529998455" fill="#8B4513" fill-opacity="0.37334101305372425" />
<circle cx="124.08076821799506" cy="157.86126022823095" r="3.073115502735822" fill="#FFDE75" fill-opacity="0.22108250739565763" />
<ellipse cx="58.53964127249417" cy="112.51328365390123" rx="7.463521519677032" ry="5.6638162534450744" fill="#FFFDF0" fill-opacity="0.6" />
<ellipse cx="58.362573669485926" cy="111.8332398210788" rx="3.857475259094645" ry="3.4422833248934532" fill="#FFFFFF" fill-opacity="0.85" />
<ellipse cx="62.655404312232044" cy="36.386655393537126" rx="6.41035439361644" ry="8.537092249489955" fill="#FFFDF0" fill-opacity="0.6" />
<ellipse cx="61.84936101840556" cy="37.32352088896951" rx="4.768442587152039" ry="3.2103615849406912" fill="#FFFFFF" fill-opacity="0.85" />
<ellipse cx="84.36677380460728" cy="133.92703638557273" rx="8.198644463580441" ry="8.22451413979764" fill="#FFFDF0" fill-opacity="0.6" />
<ellipse cx="85.32684860097731" cy="134.10127105674644" rx="4.93948131907408" ry="2.0915092945651894" fill="#FFFFFF" fill-opacity="0.85" />
<ellipse cx="135.38347943851798" cy="109.82599862442044" rx="6.4172244896560455" ry="8.100050422848232" fill="#FFFDF0" fill-opacity="0.6" />
<ellipse cx="134.66873555041101" cy="109.7674136074383" rx="4.618470124585686" ry="2.103271069491866" fill="#FFFFFF" fill-opacity="0.85" />
<ellipse cx="24.962908013097532" cy="98.29060450812543" rx="8.615178288739905" ry="8.619739963253426" fill="#FFFDF0" fill-opacity="0.6" />
<ellipse cx="25.241795095762736" cy="98.4154966813341" rx="2.523476697140609" ry="2.455965836492573" fill="#FFFFFF" fill-opacity="0.85" />
<ellipse cx="160.66664002324933" cy="79.52216795331961" rx="5.103674802954649" ry="7.88829878266238" fill="#FFFDF0" fill-opacity="0.6" />
<ellipse cx="161.12669600856336" cy="79.02344038502089" rx="4.916478428008155" ry="3.927796355285418" fill="#FFFFFF" fill-opacity="0.85" />
<ellipse cx="61.74799903776428" cy="74.56145925154868" rx="8.88346605882953" ry="8.571265869779525" fill="#FFFDF0" fill-opacity="0.6" />
<ellipse cx="62.393472493111524" cy="75.3980474144445" rx="2.1983531436549533" ry="2.1099801908154046" fill="#FFFFFF" fill-opacity="0.85" />
<ellipse cx="166.4615871997534" cy="136.2327270843336" rx="7.729486107931877" ry="5.413038420667956" fill="#FFFDF0" fill-opacity="0.6" />
<ellipse cx="166.09952627204842" cy="135.79619154745296" rx="3.142637521079246" ry="2.9520367021594387" fill="#FFFFFF" fill-opacity="0.85" />
<ellipse cx="144.14922771831772" cy="126.45882330711184" rx="9.361521622776653" ry="4.058835948679806" fill="#FFFDF0" fill-opacity="0.6" />
<ellipse cx="144.16638618090818" cy="126.57312048767628" rx="3.76273364136316" ry="2.1480807965382382" fill="#FFFFFF" fill-opacity="0.85" />
</g>
<path d="M105.0,105.0 L105.0,205.0 A100,100,0,0,1,5.0,105.00000000000001 Z" fill="#F5C754" stroke="lightgray" stroke-width="2" />
<use xlink:href="#clip-4556257008-4567291216" />
<g clip-path="url(#clip-4556257008-4567291216)">
<circle cx="105.0" cy="105.0" r="92" stroke="#DAA05D" stroke-width="16" fill="none" />
<circle cx="105.0" cy="105.0" r="98" stroke="#C37B32" stroke-width="5" fill="none" />
<circle cx="111.56077281371851" cy="56.73164386630947" r="5.149259191159045" fill="#D2691E" fill-opacity="0.5048539261654791" />
<circle cx="146.76055796962837" cy="42.10460286355844" r="2.9037373027931817" fill="#FFFFFF" fill-opacity="0.20752508797099753" />
<circle cx="125.21648536998993" cy="75.84244935840943" r="4.730642458846542" fill="#8B4513" fill-opacity="0.5601644494575937" />
<circle cx="155.1802099305455" cy="87.86179635797926" r="5.395882515391593" fill="#8B4513" fill-opacity="0.45943163144777355" />
<circle cx="118.61784630004989" cy="141.4189694802336" r="3.3826740475812245" fill="#FFFFFF" fill-opacity="0.3261160803102745" />
<circle cx="107.2680542027463" cy="39.49942622873415" r="5.595088048193578" fill="#8B4513" fill-opacity="0.374827678818088" />
<circle cx="126.54860952362169" cy="48.638251415799886" r="2.7982846766638665" fill="#FFDE75" fill-opacity="0.3044818691540406" />
<circle cx="174.21119813328704" cy="68.73095479262628" r="3.7975641874794395" fill="#FFDE75" fill-opacity="0.2519240648040303" />
<circle cx="135.48938790058992" cy="128.82723178334103" r="2.2184558066729854" fill="#FFDE75" fill-opacity="0.38987608889469055" />
<circle cx="79.86055645790302" cy="61.00348998667916" r="2.556358646377262" fill="#8B4513" fill-opacity="0.4873041670924036" />
<circle cx="51.920235536061845" cy="153.63248179555507" r="2.3355423899037357" fill="#FFDE75" fill-opacity="0.39078585839211955" />
<circle cx="110.00255980281685" cy="110.13268617429043" r="5.679028832981526" fill="#FFDE75" fill-opacity="0.5874758063477421" />
<circle cx="120.71416808442885" cy="107.419911152414" r="5.570860654317828" fill="#8B4513" fill-opacity="0.5653247297309921" />
<circle cx="55.84953326236341" cy="113.08450492136478" r="4.485424128520005" fill="#D2691E" fill-opacity="0.3779419906257342" />
<circle cx="150.62081187428618" cy="40.40489245726337" r="4.392760838382898" fill="#8B4513" fill-opacity="0.2551093874509064" />
<circle cx="181.70711403681014" cy="114.77336948802062" r="5.244115201104821" fill="#FFDE75" fill-opacity="0.3526219707502757" />
<circle cx="52.497575739258494" cy="128.94286380675115" r="4.2090757423410565" fill="#FFDE75" fill-opacity="0.42649409900312557" />
<circle cx="86.49539348410636" cy="146.25607220762288" r="2.277685665000757" fill="#8B4513" fill-opacity="0.20449504842056987" />
<circle cx="130.96711853913848" cy="117.71388856350183" r="4.139941238140489" fill="#D2691E" fill-opacity="0.5821311871190755" />
<circle cx="177.73913077435498" cy="74.79485510815911" r="2.874233258502323" fill="#D2691E" fill-opacity="0.36354363734504747" />
<circle cx="101.31263484908685" cy="38.793264617355405" r="3.722533330259733" fill="#8B4513" fill-opacity="0.5081420286411651" />
<circle cx="111.33469221033148" cy="147.24450398341222" r="3.726639367676455" fill="#FFFFFF" fill-opacity="0.5987458465403961" />
<circle cx="106.04940762135973" cy="131.88428955931843" r="5.973912535498575" fill="#FFFFFF" fill-opacity="0.5076979340182983" />
<circle cx="112.58091909166473" cy="98.49675272201026" r="5.159956465415112" fill="#FFFFFF" fill-opacity="0.2318089147407681" />
<circle cx="64.5404844718656" cy="54.756033246679756" r="2.534276267320614" fill="#FFFFFF" fill-opacity="0.49930396170730423" />
<circle cx="83.23496614812935" cy="113.09259336721885" r="2.8581260402170385" fill="#D2691E" fill-opacity="0.41834590507307357" />
<circle cx="39.32597812820143" cy="98.54919339561279" r="2.6195622933674856" fill="#FFFFFF" fill-opacity="0.4674701105603263" />
<circle cx="145.1820969600475" cy="103.77656777274389" r="3.423658715128275" fill="#FFFFFF" fill-opacity="0.2279845156210037" />
<circle cx="54.873421517722946" cy="65.41193602676523" r="5.6576537622780965" fill="#8B4513" fill-opacity="0.20285970202071424" />
<circle cx="123.16702147483137" cy="62.397243659246605" r="4.7940161654961475" fill="#FFDE75" fill-opacity="0.2297290298515387" />
<circle cx="110.35733558120477" cy="81.90873929597866" r="3.7363365184636175" fill="#FFFFFF" fill-opacity="0.3828686140301704" />
<circle cx="64.81412586430386" cy="122.7937055251143" r="5.322720187782474" fill="#D2691E" fill-opacity="0.4500140551823212" />
<circle cx="113.66403796071631" cy="183.6352021373075" r="3.334461946526399" fill="#FFFFFF" fill-opacity="0.5410233634668556" />
<circle cx="136.18952200651032" cy="113.0935036140541" r="3.1259443086061847" fill="#D2691E" fill-opacity="0.30931762064470475" />
<circle cx="140.9750287501512" cy="177.06892942712742" r="3.561546706614428" fill="#D2691E" fill-opacity="0.48907363718258806" />
<circle cx="121.42114929316321" cy="35.403118049030354" r="5.879895010338535" fill="#FFDE75" fill-opacity="0.33028850883586064" />
<circle cx="127.79907512465239" cy="75.51320438341438" r="2.4862145747027915" fill="#FFFFFF" fill-opacity="0.5610522976429437" />
<circle cx="91.87886099773083" cy="56.21545399579692" r="3.421320272803699" fill="#D2691E" fill-opacity="0.30491218286281707" />
<circle cx="49.050925462471675" cy="60.98649911443026" r="4.032523152496489" fill="#8B4513" fill-opacity="0.3629334836656894" />
<circle cx="75.1935126685862" cy="102.74527388218189" r="4.2495242118041405" fill="#FFDE75" fill-opacity="0.49601263375725774" />
<circle cx="72.96550182818305" cy="75.24490465084715" r="3.122292590667977" fill="#D2691E" fill-opacity="0.303144113079157" />
<circle cx="129.74079366221042" cy="35.67941490881559" r="4.756763076134482" fill="#D2691E" fill-opacity="0.21873281268756686" />
<circle cx="27.72847746710771" cy="107.91469043466913" r="5.6085683068480865" fill="#FFFFFF" fill-opacity="0.35429662706124787" />
<circle cx="177.35996466524682" cy="70.17244787954705" r="2.7051001529998455" fill="#8B4513" fill-opacity="0.37334101305372425" />
<circle cx="124.08076821799506" cy="157.86126022823095" r="3.073115502735822" fill="#FFDE75" fill-opacity="0.22108250739565763" />
<ellipse cx="58.53964127249417" cy="112.51328365390123" rx="7.463521519677032" ry="5.6638162534450744" fill="#FFFDF0" fill-opacity="0.6" />
<ellipse cx="58.362573669485926" cy="111.8332398210788" rx="3.857475259094645" ry="3.4422833248934532" fill="#FFFFFF" fill-opacity="0.85" />
<ellipse cx="62.655404312232044" cy="36.386655393537126" rx="6.41035439361644" ry="8.537092249489955" fill="#FFFDF0" fill-opacity="0.6" />
<ellipse cx="61.84936101840556" cy="37.32352088896951" rx="4.768442587152039" ry="3.2103615849406912" fill="#FFFFFF" fill-opacity="0.85" />
<ellipse cx="84.36677380460728" cy="133.92703638557273" rx="8.198644463580441" ry="8.22451413979764" fill="#FFFDF0" fill-opacity="0.6" />
<ellipse cx="85.32684860097731" cy="134.10127105674644" rx="4.93948131907408" ry="2.0915092945651894" fill="#FFFFFF" fill-opacity="0.85" />
<ellipse cx="135.38347943851798" cy="109.82599862442044" rx="6.4172244896560455" ry="8.100050422848232" fill="#FFFDF0" fill-opacity="0.6" />
<ellipse cx="134.66873555041101" cy="109.7674136074383" rx="4.618470124585686" ry="2.103271069491866" fill="#FFFFFF" fill-opacity="0.85" />
<ellipse cx="24.962908013097532" cy="98.29060450812543" rx="8.615178288739905" ry="8.619739963253426" fill="#FFFDF0" fill-opacity="0.6" />
<ellipse cx="25.241795095762736" cy="98.4154966813341" rx="2.523476697140609" ry="2.455965836492573" fill="#FFFFFF" fill-opacity="0.85" />
<ellipse cx="160.66664002324933" cy="79.52216795331961" rx="5.103674802954649" ry="7.88829878266238" fill="#FFFDF0" fill-opacity="0.6" />
<ellipse cx="161.12669600856336" cy="79.02344038502089" rx="4.916478428008155" ry="3.927796355285418" fill="#FFFFFF" fill-opacity="0.85" />
<ellipse cx="61.74799903776428" cy="74.56145925154868" rx="8.88346605882953" ry="8.571265869779525" fill="#FFFDF0" fill-opacity="0.6" />
<ellipse cx="62.393472493111524" cy="75.3980474144445" rx="2.1983531436549533" ry="2.1099801908154046" fill="#FFFFFF" fill-opacity="0.85" />
<ellipse cx="166.4615871997534" cy="136.2327270843336" rx="7.729486107931877" ry="5.413038420667956" fill="#FFFDF0" fill-opacity="0.6" />
<ellipse cx="166.09952627204842" cy="135.79619154745296" rx="3.142637521079246" ry="2.9520367021594387" fill="#FFFFFF" fill-opacity="0.85" />
<ellipse cx="144.14922771831772" cy="126.45882330711184" rx="9.361521622776653" ry="4.058835948679806" fill="#FFFDF0" fill-opacity="0.6" />
<ellipse cx="144.16638618090818" cy="126.57312048767628" rx="3.76273364136316" ry="2.1480807965382382" fill="#FFFFFF" fill-opacity="0.85" />
</g>
<rect x="230.0" y="41.0" width="54.0" height="54.0" fill="none" stroke="black" stroke-width="2" />
<rect x="230.0" y="115.0" width="54.0" height="54.0" fill="none" stroke="black" stroke-width="2" />
<path d="M225.0,105.0 L289.0,105.0" stroke="black" stroke-width="2" />
</g>
</svg>