<?xml version="1.0" encoding="UTF-8"?>
<svg xmlns="http://www.w3.org/2000/svg" xmlns:xlink="http://www.w3.org/1999/xlink"
     width="284.0" height="210" viewBox="0 0 284.0 210">
<defs>
<clipPath id="clip-4465883216-4530526544">
<circle cx="105.0" cy="105.0" r="100" fill="none" />
</clipPath>
</defs>
<g>
<circle cx="105.0" cy="105.0" r="100" fill="#F5C754" />
<use xlink:href="#clip-4465883216-4530526544" />
<g clip-path="url(#clip-4465883216-4530526544)">
<circle cx="105.0" cy="105.0" r="92" stroke="#DAA05D" stroke-width="16" fill="none" />
<circle cx="105.0" cy="105.0" r="98" stroke="#C37B32" stroke-width="5" fill="none" />
<circle cx="128.67354629838778" cy="145.22378336008086" r="4.404893017954547" fill="#FFFFFF" fill-opacity="0.41165471361070205" />
<circle cx="45.60149420613335" cy="74.13959292930214" r="4.522692115550163" fill="#D2691E" fill-opacity="0.20872216135918872" />
<circle cx="54.087105445300914" cy="69.14362494947474" r="3.227943740775158" fill="#D2691E" fill-opacity="0.2170332062878031" />
<circle cx="115.18265793939608" cy="45.80882593214415" r="2.9417209398806405" fill="#D2691E" fill-opacity="0.4498253901294541" />
<circle cx="45.27235173227261" cy="112.00492586821257" r="4.642024550720059" fill="#8B4513" fill-opacity="0.4340764935591352" />
<circle cx="164.2522713275353" cy="53.737226531623485" r="5.736323594733203" fill="#FFFFFF" fill-opacity="0.31075558699444755" />
<circle cx="100.33464670032771" cy="118.93395960209035" r="2.9782052514479735" fill="#FFDE75" fill-opacity="0.2181754914850374" />
<circle cx="39.8048999098539" cy="138.72729286227184" r="2.8978718545859907" fill="#FFDE75" fill-opacity="0.34671031848122474" />
<circle cx="109.52278209202196" cy="117.07412084303769" r="5.182143457210378" fill="#D2691E" fill-opacity="0.38795629915672936" />
<circle cx="165.7210175507769" cy="148.50270838969848" r="4.471546465419567" fill="#FFDE75" fill-opacity="0.5982433073679955" />
<circle cx="155.68977344622408" cy="42.526560885026306" r="5.5601947165395735" fill="#D2691E" fill-opacity="0.2966095151013287" />
<circle cx="83.55975514671601" cy="118.02708999646161" r="2.425030392605805" fill="#FFFFFF" fill-opacity="0.23778814486976385" />
<circle cx="73.4819382619256" cy="54.00734678094245" r="5.625919965191694" fill="#D2691E" fill-opacity="0.3827709126366924" />
<circle cx="164.2450985507668" cy="73.3745620005923" r="4.65453113345705" fill="#8B4513" fill-opacity="0.4710118905893699" />
<circle cx="132.20979045712232" cy="117.0599259512814" r="3.5676790437226247" fill="#FFFFFF" fill-opacity="0.24393327910119186" />
<circle cx="81.60378962874074" cy="100.56964925475451" r="2.5560605789118407" fill="#D2691E" fill-opacity="0.2380479917478752" />
<circle cx="85.86245277543036" cy="87.74049206849378" r="3.9256312745242004" fill="#8B4513" fill-opacity="0.5560166864265219" />
<circle cx="135.99061660995952" cy="38.403835430529995" r="5.706036886690582" fill="#FFFFFF" fill-opacity="0.36308723559135925" />
<circle cx="99.57794556446531" cy="128.21416825713072" r="5.933990060477871" fill="#FFFFFF" fill-opacity="0.46016120900120955" />
<circle cx="101.25642560583319" cy="111.02520951360167" r="5.797748213061453" fill="#FFFFFF" fill-opacity="0.5963305425025527" />
<circle cx="106.03301735652144" cy="95.13999496656726" r="2.375470762669245" fill="#D2691E" fill-opacity="0.22452322769058808" />
<circle cx="118.30720638610231" cy="24.899087575848426" r="3.1385686242891953" fill="#FFFFFF" fill-opacity="0.3816622517825483" />
<circle cx="123.85197888189958" cy="124.06239015368755" r="5.601980959525653" fill="#FFDE75" fill-opacity="0.29550016305909077" />
<circle cx="79.63344629694488" cy="170.37461411984052" r="5.952326599454096" fill="#8B4513" fill-opacity="0.38455569431023784" />
<circle cx="165.35764914910297" cy="62.39803745364093" r="4.43564037634845" fill="#FFFFFF" fill-opacity="0.5463234016921934" />
<circle cx="161.97243824204497" cy="62.84874150713304" r="5.275052747203983" fill="#D2691E" fill-opacity="0.29192642219202447" />
<circle cx="69.78777384626495" cy="175.8908525836277" r="2.302945128311353" fill="#FFDE75" fill-opacity="0.20129640742291338" />
<circle cx="141.6781331007898" cy="77.92587382929912" r="4.391528493177116" fill="#FFFFFF" fill-opacity="0.22330530499013054" />
<circle cx="173.7484548286412" cy="70.11495916666973" r="4.610334122715837" fill="#D2691E" fill-opacity="0.4759559182560177" />
<circle cx="47.15504387555726" cy="114.15038526669304" r="5.718326536061942" fill="#8B4513" fill-opacity="0.5742750587166163" />
<circle cx="167.5895628164429" cy="91.84127964777153" r="5.49548059459777" fill="#8B4513" fill-opacity="0.41551314441877896" />
<circle cx="101.61835353032168" cy="56.80848329582109" r="3.1881470254146116" fill="#FFFFFF" fill-opacity="0.37253831035541557" />
<circle cx="125.78129591085731" cy="31.58920577380026" r="3.383772337140624" fill="#8B4513" fill-opacity="0.32774617401698475" />
<circle cx="69.82221663128556" cy="120.32767091805661" r="3.3303509204364614" fill="#8B4513" fill-opacity="0.30477179067595744" />
<circle cx="149.0505640343079" cy="107.37443159592618" r="5.6706837037146824" fill="#FFFFFF" fill-opacity="0.37563128873000695" />
<circle cx="60.10127443208541" cy="103.55016470062506" r="2.796630095716369" fill="#D2691E" fill-opacity="0.46295976538567435" />
<circle cx="99.439393227718" cy="89.92336557972452" r="5.001908331081502" fill="#D2691E" fill-opacity="0.5832538137323113" />
<circle cx="120.25575700102775" cy="23.155710809532493" r="5.36773851475558" fill="#FFDE75" fill-opacity="0.3745375233266157" />
<circle cx="137.23579202598307" cy="154.71135725497197" r="2.862659096511533" fill="#8B4513" fill-opacity="0.2944830624176433" />
<circle cx="116.34320929133901" cy="104.99926916977603" r="2.260420544171349" fill="#FFFFFF" fill-opacity="0.3103218439879897" />
<circle cx="71.41177691035935" cy="66.04184271143808" r="3.5473211837031142" fill="#8B4513" fill-opacity="0.47467813471177156" />
<circle cx="146.24312819464595" cy="129.91318810437915" r="3.652928831928655" fill="#D2691E" fill-opacity="0.3016012563696094" />
<circle cx="124.60899747224552" cy="113.9665857061769" r="5.474258331706714" fill="#D2691E" fill-opacity="0.3105471484059383" />
<circle cx="65.25912828876855" cy="80.3267192547773" r="2.044364928211505" fill="#D2691E" fill-opacity="0.2831534728763524" />
<circle cx="63.99291626863782" cy="88.77020685634002" r="2.161863404224477" fill="#8B4513" fill-opacity="0.20967091557295203" />
<circle cx="181.3511902177866" cy="82.69463494741103" r="5.26331793413552" fill="#D2691E" fill-opacity="0.25941323390330157" />
<circle cx="56.592791674188746" cy="37.86774989636126" r="4.2920226490238536" fill="#8B4513" fill-opacity="0.5839490959621005" />
<circle cx="109.27098596592008" cy="127.70100152836417" r="4.634588072567226" fill="#FFDE75" fill-opacity="0.23915542225170439" />
<circle cx="70.0014026651815" cy="73.16022098763543" r="4.658618166294583" fill="#8B4513" fill-opacity="0.40948428610880994" />
<circle cx="98.2027085717466" cy="171.62521951769594" r="5.418835976613606" fill="#FFDE75" fill-opacity="0.3584577721815428" />
<circle cx="182.51202312868497" cy="103.58249074908116" r="3.1066625399270302" fill="#FFFFFF" fill-opacity="0.38112915072954956" />
<circle cx="157.55086633777964" cy="46.772810193608834" r="5.379523778286424" fill="#8B4513" fill-opacity="0.5191528305671411" />
<circle cx="180.30893168312167" cy="72.71554554901797" r="2.2201787191619373" fill="#FFFFFF" fill-opacity="0.467086317171384" />
<circle cx="152.63938241513495" cy="117.29651451605034" r="5.517585161354543" fill="#FFDE75" fill-opacity="0.2824260405792919" />
<circle cx="150.952087701028" cy="117.87359085728467" r="5.735586556454123" fill="#FFDE75" fill-opacity="0.5773976056624197" />
<circle cx="152.72203479641576" cy="71.78431693398824" r="2.346765340293897" fill="#8B4513" fill-opacity="0.2837124402672078" />
<circle cx="97.34762840360625" cy="164.9118581447911" r="2.3592178057121527" fill="#D2691E" fill-opacity="0.37220789768754975" />
<circle cx="102.16090077610835" cy="34.54343004025091" r="3.13755370698862" fill="#D2691E" fill-opacity="0.3037722372524876" />
<circle cx="163.22533504668536" cy="66.4284746472134" r="3.6601450638073536" fill="#D2691E" fill-opacity="0.4462568146253799" />
<circle cx="170.93842935045163" cy="131.6855542386345" r="5.075728354908912" fill="#FFDE75" fill-opacity="0.5448368224975249" />
<circle cx="161.01613748550216" cy="95.36208726741329" r="5.345168166713684" fill="#D2691E" fill-opacity="0.35389234815802245" />
<circle cx="67.26083577163163" cy="40.69720265104529" r="3.6853411045250795" fill="#FFFFFF" fill-opacity="0.3638694802530615" />
<circle cx="134.25380100335252" cy="181.63042142698276" r="4.381443242221458" fill="#8B4513" fill-opacity="0.4874216682056004" />
<circle cx="121.44958653242497" cy="169.20157263182136" r="3.516586846982599" fill="#8B4513" fill-opacity="0.3550947629749912" />
<circle cx="85.64374571658553" cy="132.61688028688343" r="3.0800330839990537" fill="#D2691E" fill-opacity="0.46153585724771995" />
<circle cx="47.02014545137412" cy="51.51816258589559" r="4.119058406653597" fill="#FFFFFF" fill-opacity="0.5321954111936632" />
<circle cx="147.61474621583636" cy="162.63000992003577" r="2.9692192361187" fill="#D2691E" fill-opacity="0.21709436280588032" />
<circle cx="76.33277887894221" cy="28.47040021964095" r="2.558194939190636" fill="#D2691E" fill-opacity="0.5496837852133944" />
<circle cx="116.36315300184731" cy="108.66452494064261" r="4.960076446878912" fill="#FFDE75" fill-opacity="0.5008833629075591" />
<circle cx="123.64987492323493" cy="74.40845019943697" r="5.727932323513042" fill="#FFDE75" fill-opacity="0.49979140552467377" />
<circle cx="86.61615170414075" cy="78.87346816345973" r="4.147429817571226" fill="#D2691E" fill-opacity="0.40936854476643014" />
<circle cx="77.17935851160735" cy="157.07059655006265" r="4.031565649180842" fill="#D2691E" fill-opacity="0.5229716996808782" />
<circle cx="80.69232358846853" cy="113.02754158395075" r="5.659921352822504" fill="#FFDE75" fill-opacity="0.3993711746213885" />
<circle cx="57.86065390768427" cy="149.2599849502352" r="3.5359039012495916" fill="#D2691E" fill-opacity="0.5724741080044659" />
<circle cx="40.72033186277457" cy="145.55192624568537" r="2.219956729707651" fill="#FFFFFF" fill-opacity="0.4148069674741645" />
<circle cx="98.5643622357284" cy="111.18486819309994" r="3.3577089225902337" fill="#8B4513" fill-opacity="0.3521843805331684" />
<circle cx="142.27907850513714" cy="164.47653154696732" r="3.9529115783972606" fill="#FFDE75" fill-opacity="0.5454745256532907" />
<circle cx="92.36669726855267" cy="60.095865619272644" r="5.257089960347905" fill="#D2691E" fill-opacity="0.41402092777795607" />
<circle cx="138.934543205095" cy="60.38738631890686" r="3.393980200782197" fill="#D2691E" fill-opacity="0.5641182175644279" />
<circle cx="70.8524754973367" cy="126.63306623777599" r="4.54632917985853" fill="#FFDE75" fill-opacity="0.5323065603656595" />
<circle cx="160.79911884148325" cy="124.51703636751306" r="5.724796611506083" fill="#FFFFFF" fill-opacity="0.2013562474334134" />
<circle cx="131.87653249663998" cy="144.31005933641083" r="3.6366583955701195" fill="#8B4513" fill-opacity="0.424777832207902" />
<circle cx="93.177536613405" cy="80.56990867903552" r="3.854348094027985" fill="#FFFFFF" fill-opacity="0.25169519227473763" />
<circle cx="129.69717716194486" cy="77.72160312245416" r="2.290239768700819" fill="#D2691E" fill-opacity="0.22917345917012222" />
<circle cx="140.64642285368257" cy="73.13972036710364" r="4.0236305579720115" fill="#FFFFFF" fill-opacity="0.5593113149590427" />
<circle cx="47.63212517216536" cy="144.0706670507226" r="2.932209672583718" fill="#8B4513" fill-opacity="0.3383742411945411" />
<circle cx="117.99663532971017" cy="143.60411240994694" r="4.436954284110421" fill="#FFDE75" fill-opacity="0.25250208675312474" />
<circle cx="165.97487173136898" cy="91.00619337976639" r="5.750279936518309" fill="#D2691E" fill-opacity="0.27405015302238994" />
<circle cx="55.010854621919066" cy="50.93085941120121" r="3.662736004951612" fill="#8B4513" fill-opacity="0.42985729163146313" />
<circle cx="121.30619654784957" cy="77.14238101518595" r="2.6333578219180245" fill="#8B4513" fill-opacity="0.2663350124282973" />
<ellipse cx="155.70958201570483" cy="78.60902970329407" rx="5.778344798106566" ry="5.891976851623545" fill="#FFFDF0" fill-opacity="0.6" />
<ellipse cx="155.9376371342139" cy="77.66773993591558" rx="2.8748662448273716" ry="3.2498133021780573" fill="#FFFFFF" fill-opacity="0.85" />
<ellipse cx="76.92964240755259" cy="159.20251595308048" rx="6.038130770407763" ry="5.142068709976507" fill="#FFFDF0" fill-opacity="0.6" />
<ellipse cx="77.01419213660184" cy="158.7812857579314" rx="3.9288000713638835" ry="3.0851275219728675" fill="#FFFFFF" fill-opacity="0.85" />
<ellipse cx="127.12678639155808" cy="112.03026205048288" rx="7.457129149774984" ry="7.8013722858255505" fill="#FFFDF0" fill-opacity="0.6" />
<ellipse cx="127.92135806604632" cy="112.22149412342677" rx="3.9512588848391577" ry="2.274972536639944" fill="#FFFFFF" fill-opacity="0.85" />
<ellipse cx="126.68442634510471" cy="166.24301177916203" rx="8.432219959042815" ry="5.056781436950487" fill="#FFFDF0" fill-opacity="0.6" />
<ellipse cx="126.708895951064" cy="165.89222107283476" rx="4.117796211841826" ry="2.5460576359519127" fill="#FFFFFF" fill-opacity="0.85" />
<ellipse cx="115.86900682876725" cy="78.53146970347618" rx="8.565954053318457" ry="7.694111862503335" fill="#FFFDF0" fill-opacity="0.6" />
<ellipse cx="115.45009190532745" cy="78.21338618358295" rx="2.4296020679611416" ry="3.088355039600172" fill="#FFFFFF" fill-opacity="0.85" />
<ellipse cx="117.94839958664889" cy="83.86868122727623" rx="6.088907137705111" ry="5.21459083927884" fill="#FFFDF0" fill-opacity="0.6" />
<ellipse cx="117.75183146078845" cy="84.13264967746991" rx="4.700781487930054" ry="2.222707379918725" fill="#FFFFFF" fill-opacity="0.85" />
<ellipse cx="107.58747826326163" cy="26.454263766253703" rx="5.542245818202815" ry="8.795263028213386" fill="#FFFDF0" fill-opacity="0.6" />
<ellipse cx="108.42287478247438" cy="26.071511144217205" rx="3.569095306958147" ry="3.2839960922123246" fill="#FFFFFF" fill-opacity="0.85" />
<ellipse cx="105.45004295218148" cy="137.84864022205662" rx="9.58032854345444" ry="8.11501019499324" fill="#FFFDF0" fill-opacity="0.6" />
<ellipse cx="105.36511758920639" cy="136.93699747628233" rx="4.739524123869649" ry="2.4955137287883415" fill="#FFFFFF" fill-opacity="0.85" />
<ellipse cx="137.16137544944226" cy="173.42676537615122" rx="9.192241762920474" ry="7.92554682086041" fill="#FFFDF0" fill-opacity="0.6" />
<ellipse cx="138.12562274119264" cy="172.42828057092888" rx="2.711924491263417" ry="2.3221191933412526" fill="#FFFFFF" fill-opacity="0.85" />
<ellipse cx="95.6483427506612" cy="52.605886132896934" rx="9.246775506651812" ry="8.431095661564488" fill="#FFFDF0" fill-opacity="0.6" />
<ellipse cx="95.06455785315202" cy="52.152975993425294" rx="2.449488307604489" ry="3.777733523633332" fill="#FFFFFF" fill-opacity="0.85" />
<ellipse cx="31.35790308237415" cy="111.46415892346016" rx="8.667928688028407" ry="8.557726600185292" fill="#FFFDF0" fill-opacity="0.6" />
<ellipse cx="31.161340803416085" cy="112.21218047104881" rx="2.163189553544052" ry="2.7449731704754923" fill="#FFFFFF" fill-opacity="0.85" />
<ellipse cx="96.14919443204994" cy="139.9674888957186" rx="9.818396115597256" ry="7.122224221548873" fill="#FFFDF0" fill-opacity="0.6" />
<ellipse cx="95.28831167368382" cy="139.10881306524843" rx="4.460787218293687" ry="2.4511731803250334" fill="#FFFFFF" fill-opacity="0.85" />
<ellipse cx="73.42688695144342" cy="94.16696700701746" rx="8.569573891353395" ry="7.529877307438266" fill="#FFFDF0" fill-opacity="0.6" />
<ellipse cx="73.78818816677004" cy="94.96022984575387" rx="4.27617430591641" ry="2.887258287457086" fill="#FFFFFF" fill-opacity="0.85" />
<ellipse cx="67.64196433061284" cy="160.707746618315" rx="8.806521110076318" ry="6.300661276360952" fill="#FFFDF0" fill-opacity="0.6" />
<ellipse cx="67.09155668664131" cy="160.19858578707195" rx="3.483011194277958" ry="2.5385669162783793" fill="#FFFFFF" fill-opacity="0.85" />
<ellipse cx="105.48141890245041" cy="27.04704822167554" rx="6.362585157901041" ry="5.61240088728834" fill="#FFFDF0" fill-opacity="0.6" />
<ellipse cx="104.65367737783954" cy="26.50133242701281" rx="4.5079542627202684" ry="2.2095720396673384" fill="#FFFFFF" fill-opacity="0.85" />
<ellipse cx="30.056000090070995" cy="107.08454245427184" rx="6.277163192719719" ry="6.301858503779854" fill="#FFFDF0" fill-opacity="0.6" />
<ellipse cx="30.17468855333675" cy="107.38973134895329" rx="4.630273295422143" ry="3.783454297941665" fill="#FFFFFF" fill-opacity="0.85" />
<ellipse cx="169.61007656695546" cy="84.41501920206308" rx="7.899513995874716" ry="8.32869820005853" fill="#FFFDF0" fill-opacity="0.6" />
<ellipse cx="169.39299533600817" cy="84.856320129624" rx="4.292089742646979" ry="3.3741283849017094" fill="#FFFFFF" fill-opacity="0.85" />
<ellipse cx="166.0713784715075" cy="58.05924829186813" rx="8.453897432252244" ry="8.768251741085898" fill="#FFFDF0" fill-opacity="0.6" />
<ellipse cx="165.6493776703668" cy="58.34066181430351" rx="2.8965668821385973" ry="2.439416634061652" fill="#FFFFFF" fill-opacity="0.85" />
</g>
<path d="M105.0,105.0 L105.0,5.0" stroke="lightgray" stroke-width="2" />
<path d="M105.0,105.0 L191.60254037844388,55.00000000000001" stroke="lightgray" stroke-width="2" />
<path d="M105.0,105.0 L191.60254037844388,155.0" stroke="lightgray" stroke-width="2" />
<path d="M105.0,105.0 L105.0,205.0" stroke="lightgray" stroke-width="2" />
<path d="M105.0,105.0 L18.397459621556123,155.0" stroke="lightgray" stroke-width="2" />
<path d="M105.0,105.0 L18.397459621556138,54.999999999999986" stroke="lightgray" stroke-width="2" />
<circle cx="105.0" cy="105.0" r="100" fill="none" stroke="lightgray" stroke-width="2" />
<rect x="230.0" y="41.0" width="54.0" height="54.0" fill="none" stroke="black" stroke-width="2" />
<rect x="230.0" y="115.0" width="54.0" height="54.0" fill="none" stroke="black" stroke-width="2" />
<path d="M225.0,105.0 L289.0,105.0" stroke="black" stroke-width="2" />
</g>
</svg>