<?xml version="1.0" encoding="UTF-8"?>
<svg xmlns="http://www.w3.org/2000/svg" xmlns:xlink="http://www.w3.org/1999/xlink"
     width="284.0" height="210" viewBox="0 0 284.0 210">
<defs>
<clipPath id="clip-4502682848-4502200912">
<path d="M105.0,105.0 L105.0,5.0 A100,100,0,0,1,191.60254037844388,55.00000000000001 Z" fill="none" />
</clipPath>
</defs>
<g>
<path d="M105.0,105.0 L105.0,5.0 A100,100,0,0,1,191.60254037844388,55.00000000000001 Z" fill="none" stroke="lightgray" stroke-width="2" />
<path d="M105.0,105.0 L191.60254037844388,55.00000000000001 A100,100,0,0,1,191.60254037844388,155.0 Z" fill="none" stroke="lightgray" stroke-width="2" />
<path d="M105.0,105.0 L191.60254037844388,155.0 A100,100,0,0,1,105.0,205.0 Z" fill="none" stroke="lightgray" stroke-width="2" />
<path d="M105.0,105.0 L105.0,205.0 A100,100,0,0,1,18.397459621556123,155.0 Z" fill="none" stroke="lightgray" stroke-width="2" />
<path d="M105.0,105.0 L18.397459621556123,155.0 A100,100,0,0,1,18.397459621556138,54.999999999999986 Z" fill="none" stroke="lightgray" stroke-width="2" />
<path d="M105.0,105.0 L18.397459621556138,54.999999999999986 A100,100,0,0,1,104.99999999999999,5.0 Z" fill="none" stroke="lightgray" stroke-width="2" />
<path d="M105.0,105.0 L105.0,5.0 A100,100,0,0,1,191.60254037844388,55.00000000000001 Z" fill="#F5C754" stroke="lightgray" stroke-width="2" />
<use xlink:href="#clip-4502682848-4502200912" />
<g clip-path="url(#clip-4502682848-4502200912)">
<circle cx="105.0" cy="105.0" r="92" stroke="#DAA05D" stroke-width="16" fill="none" />
<circle cx="105.0" cy="105.0" r="98" stroke="#C37B32" stroke-width="5" fill="none" />
<circle cx="169.82330570083212" cy="104.35277781628074" r="3.791073590028881" fill="#FFFFFF" fill-opacity="0.5914084288617978" />
<circle cx="139.64095944512803" cy="78.83340165723807" r="2.0595155693822695" fill="#8B4513" fill-opacity="0.2701954228575835" />
<circle cx="77.23137555374113" cy="79.08292578460353" r="4.352000622361897" fill="#FFFFFF" fill-opacity="0.4597084918902718" />
<circle cx="39.45385369056913" cy="132.01433709959386" r="3.8067049410905187" fill="#FFDE75" fill-opacity="0.2635745544226272" />
<circle cx="75.21125187315268" cy="181.0093324121517" r="4.354947344798427" fill="#8B4513" fill-opacity="0.39930422601399734" />
<circle cx="147.96646800008637" cy="172.92134011852528" r="4.787635941802609" fill="#8B4513" fill-opacity="0.2510459577880136" />
<circle cx="22.28998791753321" cy="107.97971489520094" r="5.0649508535533645" fill="#FFDE75" fill-opacity="0.398275251951157" />
<circle cx="146.95900835762703" cy="167.44444495843345" r="5.464968681920245" fill="#FFDE75" fill-opacity="0.5190858580492577" />
<circle cx="108.96479043723564" cy="139.79018967636426" r="2.2443619060334767" fill="#FFFFFF" fill-opacity="0.48379303561236464" />
<circle cx="135.80734053787728" cy="78.3329784759697" r="2.2637229471928912" fill="#FFFFFF" fill-opacity="0.4930442002174436" />
<circle cx="110.4571318577098" cy="98.5669781312667" r="4.05089554593634" fill="#FFDE75" fill-opacity="0.2025194005640823" />
<circle cx="43.97660423138414" cy="68.8368226561995" r="5.541243658496821" fill="#FFDE75" fill-opacity="0.21534373268758153" />
<circle cx="88.42142145317172" cy="62.53890299550154" r="5.5107102722293" fill="#FFFFFF" fill-opacity="0.5731801370784595" />
<circle cx="73.7417154585348" cy="173.07086023565316" r="5.432926207599845" fill="#D2691E" fill-opacity="0.47819256652187175" />
<circle cx="133.57266973605746" cy="87.01544564037856" r="3.3094589343466403" fill="#FFFFFF" fill-opacity="0.21868424096104544" />
<circle cx="84.79657785023997" cy="99.00301493796844" r="11.365659805443986" fill="#C92A2A" stroke="#800000" stroke-width="1" />
<circle cx="85.76802250138803" cy="96.18790868113038" r="1.3134693117650662" fill="#FFA07A" fill-opacity="0.7" />
<circle cx="82.01404400844946" cy="99.47185751691526" r="0.7069648270872222" fill="#FFA07A" fill-opacity="0.7" />
<circle cx="90.01983715094818" cy="94.05798373099495" r="1.3216946358836812" fill="#FFA07A" fill-opacity="0.7" />
<circle cx="88.43679295370082" cy="94.47260867099614" r="1.31488029548794" fill="#FFA07A" fill-opacity="0.7" />
<circle cx="85.8306526108107" cy="93.61640610024276" r="0.7427231178828837" fill="#FFA07A" fill-opacity="0.7" />
<circle cx="84.1468898191662" cy="103.58622113808042" r="0.7582895670463349" fill="#FFA07A" fill-opacity="0.7" />
<circle cx="107.28406866025875" cy="115.27325799230672" r="9.252479226429967" fill="#C92A2A" stroke="#800000" stroke-width="1" />
<circle cx="109.00606341559286" cy="110.65118477587777" r="1.34877397373843" fill="#FFA07A" fill-opacity="0.7" />
<circle cx="102.75313097319307" cy="111.9970396316527" r="0.5933513882131283" fill="#FFA07A" fill-opacity="0.7" />
<circle cx="101.76552673671253" cy="121.26918107509509" r="0.5699760403951006" fill="#FFA07A" fill-opacity="0.7" />
<circle cx="100.34764251728788" cy="167.18002577562078" r="11.172514351492914" fill="#C92A2A" stroke="#800000" stroke-width="1" />
<circle cx="105.97304516985767" cy="172.56392078291222" r="0.8101259482946385" fill="#FFA07A" fill-opacity="0.7" />
<circle cx="98.87952948941327" cy="164.30722119227826" r="0.9214808556128791" fill="#FFA07A" fill-opacity="0.7" />
<circle cx="101.53164897053871" cy="170.4155080157026" r="1.2432771046508861" fill="#FFA07A" fill-opacity="0.7" />
<circle cx="82.33413668242667" cy="38.10506333997577" r="9.422536517474295" fill="#C92A2A" stroke="#800000" stroke-width="1" />
<circle cx="78.5050535724829" cy="41.90199504361954" r="0.6349490832932505" fill="#FFA07A" fill-opacity="0.7" />
<circle cx="82.56449687082001" cy="41.837290016889746" r="0.5994327973978258" fill="#FFA07A" fill-opacity="0.7" />
<circle cx="82.58518085892565" cy="41.828495599492456" r="0.8351097309289738" fill="#FFA07A" fill-opacity="0.7" />
<circle cx="77.11959260579468" cy="40.992481963113484" r="0.8994542254042339" fill="#FFA07A" fill-opacity="0.7" />
</g>
<rect x="230.0" y="41.0" width="54.0" height="54.0" fill="none" stroke="black" stroke-width="2" />
<rect x="230.0" y="115.0" width="54.0" height="54.0" fill="none" stroke="black" stroke-width="2" />
<path d="M225.0,105.0 L289.0,105.0" stroke="black" stroke-width="2" />
</g>
</svg>