<?xml version="1.0" encoding="UTF-8"?>
<svg xmlns="http://www.w3.org/2000/svg" xmlns:xlink="http://www.w3.org/1999/xlink"
     width="284.0" height="210" viewBox="0 0 284.0 210">
<defs>
<clipPath id="clip-4516865104-4530022352">
<path d="M105.0,105.0 L105.0,5.0 A100,100,0,0,1,200.10565162951536,74.09830056250526 Z" fill="none" />
</clipPath>
<clipPath id="clip-4516865104-4530020944">
<path d="M105.0,105.0 L200.10565162951536,74.09830056250526 A100,100,0,0,1,163.77852522924732,185.90169943749476 Z" fill="none" />
</clipPath>
</defs>
<g>
<path d="M105.0,105.0 L105.0,5.0 A100,100,0,0,1,200.10565162951536,74.09830056250526 Z" fill="none" stroke="lightgray" stroke-width="2" />
<path d="M105.0,105.0 L200.10565162951536,74.09830056250526 A100,100,0,0,1,163.77852522924732,185.90169943749476 Z" fill="none" stroke="lightgray" stroke-width="2" />
<path d="M105.0,105.0 L163.77852522924732,185.90169943749476 A100,100,0,0,1,46.2214747707527,185.90169943749476 Z" fill="none" stroke="lightgray" stroke-width="2" />
<path d="M105.0,105.0 L46.2214747707527,185.90169943749476 A100,100,0,0,1,9.894348370484636,74.09830056250527 Z" fill="none" stroke="lightgray" stroke-width="2" />
<path d="M105.0,105.0 L9.894348370484636,74.09830056250527 A100,100,0,0,1,104.99999999999999,5.0 Z" fill="none" stroke="lightgray" stroke-width="2" />
<path d="M105.0,105.0 L105.0,5.0 A100,100,0,0,1,200.10565162951536,74.09830056250526 Z" fill="#FEF7E3" stroke="lightgray" stroke-width="2" />
<use xlink:href="#clip-4516865104-4530022352" />
<g clip-path="url(#clip-4516865104-4530022352)">
<circle cx="105.0" cy="105.0" r="92" stroke="#DAA05D" stroke-width="16" fill="none" />
<circle cx="105.0" cy="105.0" r="98" stroke="#C37B32" stroke-width="5" fill="none" />
<circle cx="132.20891237254483" cy="140.67320225349326" r="5.170220379980899" fill="#8B4513" fill-opacity="0.36169837446960196" />
<circle cx="131.84085502584256" cy="162.93645884499819" r="4.059638478570422" fill="#8B4513" fill-opacity="0.484783791435446" />
<circle cx="113.5339298234589" cy="28.85220804366068" r="4.020461958041797" fill="#FFDE75" fill-opacity="0.22344038485936443" />
<circle cx="90.78612898388035" cy="85.76712456344147" r="3.368418257786998" fill="#FFDE75" fill-opacity="0.3914423771226688" />
<circle cx="111.50638610778535" cy="123.42590035376985" r="5.484138400767613" fill="#D2691E" fill-opacity="0.4964704327011487" />
<circle cx="62.36944286958661" cy="96.82503166841897" r="4.6593369606863835" fill="#8B4513" fill-opacity="0.26290656633867804" />
<circle cx="154.8330124538282" cy="39.93652115958868" r="2.03014107081657" fill="#FFFFFF" fill-opacity="0.35537315209550113" />
<circle cx="46.03879168549804" cy="83.69183618067846" r="2.8039333246948575" fill="#8B4513" fill-opacity="0.3756342548756182" />
<circle cx="107.20224680015532" cy="90.89787997534906" r="5.174265216678414" fill="#D2691E" fill-opacity="0.3564970663922177" />
<circle cx="57.740094168080276" cy="144.76669016896471" r="3.7516918725216652" fill="#D2691E" fill-opacity="0.5673652763134582" />
<circle cx="124.71557246425041" cy="128.94418323817894" r="2.022223933543834" fill="#8B4513" fill-opacity="0.402118580550616" />
<circle cx="112.44748975666523" cy="125.01742576448903" r="4.11994459407554" fill="#D2691E" fill-opacity="0.2911599642531814" />
<circle cx="177.22561335107372" cy="71.59828587989438" r="2.6649025776918345" fill="#8B4513" fill-opacity="0.314614812738026" />
<circle cx="96.42616944324236" cy="152.33194387236506" r="5.557181826166164" fill="#FFFFFF" fill-opacity="0.5148529057567355" />
<circle cx="117.5022768399828" cy="103.92064173875701" r="5.6502526381810805" fill="#FFFFFF" fill-opacity="0.2597512473288643" />
<circle cx="140.82554974872323" cy="156.40022210439372" r="2.983201595929885" fill="#8B4513" fill-opacity="0.36838046049774736" />
<circle cx="88.31791855659091" cy="134.41925153729466" r="2.2035667115440982" fill="#FFFFFF" fill-opacity="0.5492995092855717" />
<circle cx="145.34642579683526" cy="69.94654692976422" r="2.1024360426707855" fill="#D2691E" fill-opacity="0.20637410631224135" />
<circle cx="154.6258753271242" cy="88.48150563165032" r="5.598854704093036" fill="#FFDE75" fill-opacity="0.5193200017148718" />
<circle cx="146.29351329457717" cy="152.2026328782665" r="5.503446078156514" fill="#FFDE75" fill-opacity="0.35863980296881637" />
<circle cx="94.43170258047033" cy="126.00796719063752" r="4.448452103982921" fill="#8B4513" fill-opacity="0.2472241835737207" />
<circle cx="62.89008194683079" cy="175.23639891335802" r="5.43541651280092" fill="#FFDE75" fill-opacity="0.5337431486499997" />
<circle cx="37.64768399475287" cy="89.04435045282838" r="2.4477582337904598" fill="#FFFFFF" fill-opacity="0.364211116031265" />
<circle cx="117.04169229915138" cy="60.32611421023015" r="4.657068136543803" fill="#FFFFFF" fill-opacity="0.533295712832289" />
<circle cx="151.27921392286316" cy="126.41173704220583" r="4.1907260994404005" fill="#D2691E" fill-opacity="0.2953298827414047" />
<circle cx="117.3464542324369" cy="56.94131670805612" r="2.195854386612386" fill="#D2691E" fill-opacity="0.5651785827443256" />
<circle cx="80.68273294657901" cy="39.97949869054385" r="2.5952931292299315" fill="#8B4513" fill-opacity="0.5521026087033807" />
<circle cx="98.85005299821" cy="77.7785563431809" r="3.610717946387746" fill="#8B4513" fill-opacity="0.5968240770342168" />
<circle cx="42.58263495007718" cy="62.22539202256358" r="2.9054188301505612" fill="#D2691E" fill-opacity="0.48868288639415886" />
<circle cx="142.47644551554302" cy="68.73135101446263" r="3.011446165250425" fill="#FFFFFF" fill-opacity="0.2648097023241314" />
<circle cx="144.72901304408447" cy="83.16322257591506" r="8.435587332348328" fill="#FFFFFF" fill-opacity="0.95" stroke="#FAF0E6" stroke-width="1.5" />
<circle cx="28.093071800602033" cy="113.82289287862982" r="10.533527747176226" fill="#FFFFFF" fill-opacity="0.95" stroke="#FAF0E6" stroke-width="1.5" />
<circle cx="100.87959836612167" cy="157.8136112526634" r="7.713565958845509" fill="#FFFFFF" fill-opacity="0.95" stroke="#FAF0E6" stroke-width="1.5" />
<circle cx="92.9367699405363" cy="82.21397356298259" r="9.835347290020351" fill="#FFFFFF" fill-opacity="0.95" stroke="#FAF0E6" stroke-width="1.5" />
<circle cx="75.41470842351242" cy="99.73165226514902" r="6.878240536907595" fill="#FFFFFF" fill-opacity="0.95" stroke="#FAF0E6" stroke-width="1.5" />
<circle cx="96.19321043163309" cy="152.40839219426374" r="9.808908812985322" fill="#FFFFFF" fill-opacity="0.95" stroke="#FAF0E6" stroke-width="1.5" />
<circle cx="143.84389962659333" cy="112.92169772486601" r="11.107148523816903" fill="#FFFFFF" fill-opacity="0.95" stroke="#FAF0E6" stroke-width="1.5" />
<circle cx="99.52399529910222" cy="176.86511929223428" r="9.745787174279972" fill="#FFFFFF" fill-opacity="0.95" stroke="#FAF0E6" stroke-width="1.5" />
<circle cx="136.96242167059563" cy="81.90363529080733" r="10.978620495980284" fill="#FFFFFF" fill-opacity="0.95" stroke="#FAF0E6" stroke-width="1.5" />
<circle cx="167.5788949636002" cy="105.84265837145371" r="9.771379889801018" fill="#FFFFFF" fill-opacity="0.95" stroke="#FAF0E6" stroke-width="1.5" />
<circle cx="145.4832750073349" cy="115.83880861395365" r="10.194357521381004" fill="#FFFFFF" fill-opacity="0.95" stroke="#FAF0E6" stroke-width="1.5" />
<circle cx="58.60832163460055" cy="126.71335994265979" r="5.237518319019341" fill="#FFFFFF" fill-opacity="0.95" stroke="#FAF0E6" stroke-width="1.5" />
</g>
<path d="M105.0,105.0 L200.10565162951536,74.09830056250526 A100,100,0,0,1,163.77852522924732,185.90169943749476 Z" fill="#FEF7E3" stroke="lightgray" stroke-width="2" />
<use xlink:href="#clip-4516865104-4530020944" />
<g clip-path="url(#clip-4516865104-4530020944)">
<circle cx="105.0" cy="105.0" r="92" stroke="#DAA05D" stroke-width="16" fill="none" />
<circle cx="105.0" cy="105.0" r="98" stroke="#C37B32" stroke-width="5" fill="none" />
<circle cx="132.20891237254483" cy="140.67320225349326" r="5.170220379980899" fill="#8B4513" fill-opacity="0.36169837446960196" />
<circle cx="131.84085502584256" cy="162.93645884499819" r="4.059638478570422" fill="#8B4513" fill-opacity="0.484783791435446" />
<circle cx="113.5339298234589" cy="28.85220804366068" r="4.020461958041797" fill="#FFDE75" fill-opacity="0.22344038485936443" />
<circle cx="90.78612898388035" cy="85.76712456344147" r="3.368418257786998" fill="#FFDE75" fill-opacity="0.3914423771226688" />
<circle cx="111.50638610778535" cy="123.42590035376985" r="5.484138400767613" fill="#D2691E" fill-opacity="0.4964704327011487" />
<circle cx="62.36944286958661" cy="96.82503166841897" r="4.6593369606863835" fill="#8B4513" fill-opacity="0.26290656633867804" />
<circle cx="154.8330124538282" cy="39.93652115958868" r="2.03014107081657" fill="#FFFFFF" fill-opacity="0.35537315209550113" />
<circle cx="46.03879168549804" cy="83.69183618067846" r="2.8039333246948575" fill="#8B4513" fill-opacity="0.3756342548756182" />
<circle cx="107.20224680015532" cy="90.89787997534906" r="5.174265216678414" fill="#D2691E" fill-opacity="0.3564970663922177" />
<circle cx="57.740094168080276" cy="144.76669016896471" r="3.7516918725216652" fill="#D2691E" fill-opacity="0.5673652763134582" />
<circle cx="124.71557246425041" cy="128.94418323817894" r="2.022223933543834" fill="#8B4513" fill-opacity="0.402118580550616" />
<circle cx="112.44748975666523" cy="125.01742576448903" r="4.11994459407554" fill="#D2691E" fill-opacity="0.2911599642531814" />
<circle cx="177.22561335107372" cy="71.59828587989438" r="2.6649025776918345" fill="#8B4513" fill-opacity="0.314614812738026" />
<circle cx="96.42616944324236" cy="152.33194387236506" r="5.557181826166164" fill="#FFFFFF" fill-opacity="0.5148529057567355" />
<circle cx="117.5022768399828" cy="103.92064173875701" r="5.6502526381810805" fill="#FFFFFF" fill-opacity="0.2597512473288643" />
<circle cx="140.82554974872323" cy="156.40022210439372" r="2.983201595929885" fill="#8B4513" fill-opacity="0.36838046049774736" />
<circle cx="88.31791855659091" cy="134.41925153729466" r="2.2035667115440982" fill="#FFFFFF" fill-opacity="0.5492995092855717" />
<circle cx="145.34642579683526" cy="69.94654692976422" r="2.1024360426707855" fill="#D2691E" fill-opacity="0.20637410631224135" />
<circle cx="154.6258753271242" cy="88.48150563165032" r="5.598854704093036" fill="#FFDE75" fill-opacity="0.5193200017148718" />
<circle cx="146.29351329457717" cy="152.2026328782665" r="5.503446078156514" fill="#FFDE75" fill-opacity="0.35863980296881637" />
<circle cx="94.43170258047033" cy="126.00796719063752" r="4.448452103982921" fill="#8B4513" fill-opacity="0.2472241835737207" />
<circle cx="62.89008194683079" cy="175.23639891335802" r="5.43541651280092" fill="#FFDE75" fill-opacity="0.5337431486499997" />
<circle cx="37.64768399475287" cy="89.04435045282838" r="2.4477582337904598" fill="#FFFFFF" fill-opacity="0.364211116031265" />
<circle cx="117.04169229915138" cy="60.32611421023015" r="4.657068136543803" fill="#FFFFFF" fill-opacity="0.533295712832289" />
<circle cx="151.27921392286316" cy="126.41173704220583" r="4.1907260994404005" fill="#D2691E" fill-opacity="0.2953298827414047" />
<circle cx="117.3464542324369" cy="56.94131670805612" r="2.195854386612386" fill="#D2691E" fill-opacity="0.5651785827443256" />
<circle cx="80.68273294657901" cy="39.97949869054385" r="2.5952931292299315" fill="#8B4513" fill-opacity="0.5521026087033807" />
<circle cx="98.85005299821" cy="77.7785563431809" r="3.610717946387746" fill="#8B4513" fill-opacity="0.5968240770342168" />
<circle cx="42.58263495007718" cy="62.22539202256358" r="2.9054188301505612" fill="#D2691E" fill-opacity="0.48868288639415886" />
<circle cx="142.47644551554302" cy="68.73135101446263" r="3.011446165250425" fill="#FFFFFF" fill-opacity="0.2648097023241314" />
<circle cx="144.72901304408447" cy="83.16322257591506" r="8.435587332348328" fill="#FFFFFF" fill-opacity="0.95" stroke="#FAF0E6" stroke-width="1.5" />
<circle cx="28.093071800602033" cy="113.82289287862982" r="10.533527747176226" fill="#FFFFFF" fill-opacity="0.95" stroke="#FAF0E6" stroke-width="1.5" />
<circle cx="100.87959836612167" cy="157.8136112526634" r="7.713565958845509" fill="#FFFFFF" fill-opacity="0.95" stroke="#FAF0E6" stroke-width="1.5" />
<circle cx="92.9367699405363" cy="82.21397356298259" r="9.835347290020351" fill="#FFFFFF" fill-opacity="0.95" stroke="#FAF0E6" stroke-width="1.5" />
<circle cx="75.41470842351242" cy="99.73165226514902" r="6.878240536907595" fill="#FFFFFF" fill-opacity="0.95" stroke="#FAF0E6" stroke-width="1.5" />
<circle cx="96.19321043163309" cy="152.40839219426374" r="9.808908812985322" fill="#FFFFFF" fill-opacity="0.95" stroke="#FAF0E6" stroke-width="1.5" />
<circle cx="143.84389962659333" cy="112.92169772486601" r="11.107148523816903" fill="#FFFFFF" fill-opacity="0.95" stroke="#FAF0E6" stroke-width="1.5" />
<circle cx="99.52399529910222" cy="176.86511929223428" r="9.745787174279972" fill="#FFFFFF" fill-opacity="0.95" stroke="#FAF0E6" stroke-width="1.5" />
<circle cx="136.96242167059563" cy="81.90363529080733" r="10.978620495980284" fill="#FFFFFF" fill-opacity="0.95" stroke="#FAF0E6" stroke-width="1.5" />
<circle cx="167.5788949636002" cy="105.84265837145371" r="9.771379889801018" fill="#FFFFFF" fill-opacity="0.95" stroke="#FAF0E6" stroke-width="1.5" />
<circle cx="145.4832750073349" cy="115.83880861395365" r="10.194357521381004" fill="#FFFFFF" fill-opacity="0.95" stroke="#FAF0E6" stroke-width="1.5" />
<circle cx="58.60832163460055" cy="126.71335994265979" r="5.237518319019341" fill="#FFFFFF" fill-opacity="0.95" stroke="#FAF0E6" stroke-width="1.5" />
</g>
<rect x="230.0" y="41.0" width="54.0" height="54.0" fill="none" stroke="black" stroke-width="2" />
<rect x="230.0" y="115.0" width="54.0" height="54.0" fill="none" stroke="black" stroke-width="2" />
<path d="M225.0,105.0 L289.0,105.0" stroke="black" stroke-width="2" />
</g>
</svg>