<?xml version="1.0" encoding="UTF-8"?>
<svg xmlns="http://www.w3.org/2000/svg" xmlns:xlink="http://www.w3.org/1999/xlink"
     width="284.0" height="210" viewBox="0 0 284.0 210">
<defs>
<clipPath id="clip-4462096976-4465618640">
<path d="M105.0,105.0 L105.0,5.0 A100,100,0,0,1,163.77852522924732,24.09830056250526 Z" fill="none" />
</clipPath>
<clipPath id="clip-4462096976-4530527952">
<path d="M105.0,105.0 L163.77852522924732,24.09830056250526 A100,100,0,0,1,200.10565162951536,74.09830056250526 Z" fill="none" />
</clipPath>
<clipPath id="clip-4462096976-4465615440">
<path d="M105.0,105.0 L200.10565162951536,74.09830056250526 A100,100,0,0,1,200.10565162951536,135.90169943749473 Z" fill="none" />
</clipPath>
</defs>
<g>
<path d="M105.0,105.0 L105.0,5.0 A100,100,0,0,1,163.77852522924732,24.09830056250526 Z" fill="none" stroke="lightgray" stroke-width="2" />
<path d="M105.0,105.0 L163.77852522924732,24.09830056250526 A100,100,0,0,1,200.10565162951536,74.09830056250526 Z" fill="none" stroke="lightgray" stroke-width="2" />
<path d="M105.0,105.0 L200.10565162951536,74.09830056250526 A100,100,0,0,1,200.10565162951536,135.90169943749473 Z" fill="none" stroke="lightgray" stroke-width="2" />
<path d="M105.0,105.0 L200.10565162951536,135.90169943749473 A100,100,0,0,1,163.77852522924732,185.90169943749476 Z" fill="none" stroke="lightgray" stroke-width="2" />
<path d="M105.0,105.0 L163.77852522924732,185.90169943749476 A100,100,0,0,1,105.0,205.0 Z" fill="none" stroke="lightgray" stroke-width="2" />
<path d="M105.0,105.0 L105.0,205.0 A100,100,0,0,1,46.2214747707527,185.90169943749476 Z" fill="none" stroke="lightgray" stroke-width="2" />
<path d="M105.0,105.0 L46.2214747707527,185.90169943749476 A100,100,0,0,1,9.89434837048465,135.90169943749476 Z" fill="none" stroke="lightgray" stroke-width="2" />
<path d="M105.0,105.0 L9.89434837048465,135.90169943749476 A100,100,0,0,1,9.894348370484636,74.09830056250527 Z" fill="none" stroke="lightgray" stroke-width="2" />
<path d="M105.0,105.0 L9.894348370484636,74.09830056250527 A100,100,0,0,1,46.22147477075268,24.098300562505273 Z" fill="none" stroke="lightgray" stroke-width="2" />
<path d="M105.0,105.0 L46.22147477075268,24.098300562505273 A100,100,0,0,1,104.99999999999999,5.0 Z" fill="none" stroke="lightgray" stroke-width="2" />
<path d="M105.0,105.0 L105.0,5.0 A100,100,0,0,1,163.77852522924732,24.09830056250526 Z" fill="#FEF7E3" stroke="lightgray" stroke-width="2" />
<use xlink:href="#clip-4462096976-4465618640" />
<g clip-path="url(#clip-4462096976-4465618640)">
<circle cx="105.0" cy="105.0" r="92" stroke="#DAA05D" stroke-width="16" fill="none" />
<circle cx="105.0" cy="105.0" r="98" stroke="#C37B32" stroke-width="5" fill="none" />
<circle cx="48.493230390424884" cy="48.14629198073688" r="5.314230666853236" fill="#D2691E" fill-opacity="0.413027116329782" />
<circle cx="178.32062482271903" cy="97.5270173322494" r="5.597826357153464" fill="#FFDE75" fill-opacity="0.4126929528640028" />
<circle cx="29.463799201379985" cy="74.20918961936695" r="4.26771118082797" fill="#FFDE75" fill-opacity="0.44813182207877816" />
<circle cx="146.3799509860879" cy="106.03423080390156" r="2.8650890739721984" fill="#FFFFFF" fill-opacity="0.5315676263744045" />
<circle cx="50.33355412731162" cy="166.92553021889415" r="4.440867447112652" fill="#FFFFFF" fill-opacity="0.24918205147496197" />
<circle cx="103.09867331600091" cy="26.442233133943162" r="5.538309616562561" fill="#D2691E" fill-opacity="0.5082982583281226" />
<circle cx="88.84058595323019" cy="112.14017226801658" r="4.3862136176037625" fill="#D2691E" fill-opacity="0.4768358921935245" />
<circle cx="143.355989567886" cy="91.01604496838394" r="3.5217830262137597" fill="#D2691E" fill-opacity="0.4081702234128445" />
<circle cx="144.95407246724864" cy="78.90860076912924" r="2.7174697559355234" fill="#8B4513" fill-opacity="0.39108866453350144" />
<circle cx="136.81014660668657" cy="140.81539319593588" r="3.8758726623179007" fill="#FFFFFF" fill-opacity="0.4171235329363747" />
<circle cx="48.534603889832695" cy="51.01484188307571" r="2.714910278491633" fill="#D2691E" fill-opacity="0.28717835278414466" />
<circle cx="127.8902050918707" cy="84.35361209562464" r="3.5041256773829494" fill="#FFDE75" fill-opacity="0.28625497791197113" />
<circle cx="185.69022147901978" cy="104.3826008899941" r="2.2559794001995166" fill="#8B4513" fill-opacity="0.5873639136327498" />
<circle cx="107.25766034350018" cy="51.6592229681928" r="3.965096170897244" fill="#FFFFFF" fill-opacity="0.5867600306601413" />
<circle cx="56.503706371985615" cy="73.93124706822725" r="4.191586741163793" fill="#8B4513" fill-opacity="0.3726588372469124" />
<circle cx="48.86093036785412" cy="124.81285588703538" r="5.147523416740272" fill="#FFFFFF" fill-opacity="0.5735298917173103" />
<circle cx="134.22197850078257" cy="95.30106082842518" r="2.5794568034695553" fill="#FFFFFF" fill-opacity="0.39019764090024267" />
<circle cx="92.27160056182132" cy="165.81876088825754" r="4.302352455683883" fill="#FFFFFF" fill-opacity="0.39043246459066583" />
<circle cx="93.09829415735942" cy="73.72450713022707" r="3.8611049234983517" fill="#8B4513" fill-opacity="0.2604689514334747" />
<circle cx="120.0900054436543" cy="153.8687902277476" r="4.726093207101469" fill="#D2691E" fill-opacity="0.42769792585748545" />
<circle cx="59.816400313444326" cy="113.97115569299581" r="2.90248773307808" fill="#D2691E" fill-opacity="0.23239443464505638" />
<circle cx="135.22329954991778" cy="80.67477098908762" r="2.500506072208036" fill="#FFFFFF" fill-opacity="0.2991520382418745" />
<circle cx="148.0140416966364" cy="177.68714896954594" r="5.563680092871882" fill="#8B4513" fill-opacity="0.5858495889746191" />
<circle cx="116.62486545438927" cy="48.28590308318317" r="4.004550943877042" fill="#FFDE75" fill-opacity="0.59090674109362" />
<circle cx="150.88117470217477" cy="168.81964206313137" r="5.3735777312674475" fill="#8B4513" fill-opacity="0.40744359850678713" />
<circle cx="139.62989729221343" cy="95.42677772991813" r="3.9508000287027896" fill="#8B4513" fill-opacity="0.5855327935785746" />
<circle cx="53.42007766985888" cy="108.68029614029054" r="5.3803183958398275" fill="#FFFFFF" fill-opacity="0.24696206358337053" />
<circle cx="114.98552937640719" cy="62.94794883620291" r="2.509528652626279" fill="#D2691E" fill-opacity="0.5454542633934549" />
<circle cx="61.94886347749058" cy="153.4597509167735" r="2.5919197830541147" fill="#FFFFFF" fill-opacity="0.2368186632267736" />
<circle cx="76.06772051841601" cy="37.31222803009412" r="4.119243720818559" fill="#FFFFFF" fill-opacity="0.2287403047933772" />
<circle cx="58.647238229303696" cy="120.28120239976789" r="4.70679636711041" fill="#D2691E" fill-opacity="0.4076150501930409" />
<circle cx="166.34330935441986" cy="115.98516874796373" r="3.699092659595677" fill="#FFFFFF" fill-opacity="0.48252644747096635" />
<circle cx="126.16608020984269" cy="148.69581330146553" r="5.760414138645718" fill="#FFFFFF" fill-opacity="0.3025733860320831" />
<circle cx="104.05706528608489" cy="99.00011812019255" r="2.8799237729036022" fill="#FFFFFF" fill-opacity="0.38110333559071624" />
<circle cx="147.1415983671519" cy="133.98307655143842" r="2.9945872014530743" fill="#FFDE75" fill-opacity="0.5804793515952007" />
<circle cx="41.727677385466215" cy="152.00196813104492" r="4.672757919966628" fill="#8B4513" fill-opacity="0.3343744308491257" />
<circle cx="115.62504151543168" cy="35.50333022394952" r="2.4500458984215165" fill="#8B4513" fill-opacity="0.24485395546114808" />
<circle cx="99.42513336561268" cy="183.81321356747776" r="3.0858084849956704" fill="#8B4513" fill-opacity="0.42282175051422105" />
<circle cx="28.67152074597736" cy="84.9919774922157" r="5.75293775600226" fill="#FFFFFF" fill-opacity="0.36648438771276093" />
<circle cx="161.36893018646546" cy="99.4707998263265" r="2.392894177463454" fill="#D2691E" fill-opacity="0.4759281549514356" />
<circle cx="164.4662200741556" cy="152.13227830211417" r="2.9731454454283153" fill="#FFDE75" fill-opacity="0.2503066160388151" />
<circle cx="68.1168954567915" cy="109.98503741727116" r="2.660677685010694" fill="#FFFFFF" fill-opacity="0.2970052850477372" />
<circle cx="87.94559044569343" cy="125.52083680456711" r="4.609315938101924" fill="#FFDE75" fill-opacity="0.4218138015793008" />
<circle cx="173.12467164828138" cy="73.57817251829611" r="5.651783083963229" fill="#D2691E" fill-opacity="0.4722771029312921" />
<circle cx="55.135056177264275" cy="56.19498857316386" r="5.37893215149718" fill="#D2691E" fill-opacity="0.5685197557593891" />
<circle cx="113.87200877303712" cy="146.6804685773917" r="11.055697341874476" fill="#FFFFFF" fill-opacity="0.95" stroke="#FAF0E6" stroke-width="1.5" />
<circle cx="74.34975139493093" cy="119.90605856379668" r="11.694422628946393" fill="#FFFFFF" fill-opacity="0.95" stroke="#FAF0E6" stroke-width="1.5" />
<circle cx="165.66509006885576" cy="140.53116560743834" r="9.99661914553919" fill="#FFFFFF" fill-opacity="0.95" stroke="#FAF0E6" stroke-width="1.5" />
<circle cx="72.60278387599016" cy="151.77775663174216" r="7.9437926592628685" fill="#FFFFFF" fill-opacity="0.95" stroke="#FAF0E6" stroke-width="1.5" />
<circle cx="41.37389851620523" cy="130.0333928377641" r="5.491491360725815" fill="#FFFFFF" fill-opacity="0.95" stroke="#FAF0E6" stroke-width="1.5" />
<circle cx="82.18525860964773" cy="82.1948244531115" r="5.73503233647093" fill="#FFFFFF" fill-opacity="0.95" stroke="#FAF0E6" stroke-width="1.5" />
<circle cx="75.870055939514" cy="131.6538791888522" r="5.57050175748941" fill="#FFFFFF" fill-opacity="0.95" stroke="#FAF0E6" stroke-width="1.5" />
<circle cx="118.7402112979751" cy="118.44979928432562" r="6.242008341295126" fill="#FFFFFF" fill-opacity="0.95" stroke="#FAF0E6" stroke-width="1.5" />
<circle cx="50.885624572313056" cy="136.24757501625555" r="9.07457204557318" fill="#FFFFFF" fill-opacity="0.95" stroke="#FAF0E6" stroke-width="1.5" />
<circle cx="56.990987330513924" cy="118.95582838676405" r="11.794054850744534" fill="#FFFFFF" fill-opacity="0.95" stroke="#FAF0E6" stroke-width="1.5" />
<circle cx="75.56791745227258" cy="76.4049288005573" r="10.631107442229702" fill="#FFFFFF" fill-opacity="0.95" stroke="#FAF0E6" stroke-width="1.5" />
<circle cx="127.47818169497324" cy="165.97341485988514" r="9.661425689622167" fill="#FFFFFF" fill-opacity="0.95" stroke="#FAF0E6" stroke-width="1.5" />
<circle cx="171.54876731989202" cy="141.20440596821513" r="11.150817368885086" fill="#FFFFFF" fill-opacity="0.95" stroke="#FAF0E6" stroke-width="1.5" />
<circle cx="81.78730802256831" cy="147.29151816110206" r="6.311550797387476" fill="#FFFFFF" fill-opacity="0.95" stroke="#FAF0E6" stroke-width="1.5" />
<circle cx="148.8787689943572" cy="52.68383181106081" r="7.256536753131472" fill="#FFFFFF" fill-opacity="0.95" stroke="#FAF0E6" stroke-width="1.5" />
<circle cx="135.91344898325187" cy="124.59522635480734" r="9.845283949678551" fill="#FFFFFF" fill-opacity="0.95" stroke="#FAF0E6" stroke-width="1.5" />
<circle cx="92.05335168643306" cy="44.88688751580945" r="9.075628838136389" fill="#FFFFFF" fill-opacity="0.95" stroke="#FAF0E6" stroke-width="1.5" />
<circle cx="77.42032253437688" cy="169.93476442305263" r="10.216130226103974" fill="#FFFFFF" fill-opacity="0.95" stroke="#FAF0E6" stroke-width="1.5" />
</g>
<path d="M105.0,105.0 L163.77852522924732,24.09830056250526 A100,100,0,0,1,200.10565162951536,74.09830056250526 Z" fill="#FEF7E3" stroke="lightgray" stroke-width="2" />
<use xlink:href="#clip-4462096976-4530527952" />
<g clip-path="url(#clip-4462096976-4530527952)">
<circle cx="105.0" cy="105.0" r="92" stroke="#DAA05D" stroke-width="16" fill="none" />
<circle cx="105.0" cy="105.0" r="98" stroke="#C37B32" stroke-width="5" fill="none" />
<circle cx="48.493230390424884" cy="48.14629198073688" r="5.314230666853236" fill="#D2691E" fill-opacity="0.413027116329782" />
<circle cx="178.32062482271903" cy="97.5270173322494" r="5.597826357153464" fill="#FFDE75" fill-opacity="0.4126929528640028" />
<circle cx="29.463799201379985" cy="74.20918961936695" r="4.26771118082797" fill="#FFDE75" fill-opacity="0.44813182207877816" />
<circle cx="146.3799509860879" cy="106.03423080390156" r="2.8650890739721984" fill="#FFFFFF" fill-opacity="0.5315676263744045" />
<circle cx="50.33355412731162" cy="166.92553021889415" r="4.440867447112652" fill="#FFFFFF" fill-opacity="0.24918205147496197" />
<circle cx="103.09867331600091" cy="26.442233133943162" r="5.538309616562561" fill="#D2691E" fill-opacity="0.5082982583281226" />
<circle cx="88.84058595323019" cy="112.14017226801658" r="4.3862136176037625" fill="#D2691E" fill-opacity="0.4768358921935245" />
<circle cx="143.355989567886" cy="91.01604496838394" r="3.5217830262137597" fill="#D2691E" fill-opacity="0.4081702234128445" />
<circle cx="144.95407246724864" cy="78.90860076912924" r="2.7174697559355234" fill="#8B4513" fill-opacity="0.39108866453350144" />
<circle cx="136.81014660668657" cy="140.81539319593588" r="3.8758726623179007" fill="#FFFFFF" fill-opacity="0.4171235329363747" />
<circle cx="48.534603889832695" cy="51.01484188307571" r="2.714910278491633" fill="#D2691E" fill-opacity="0.28717835278414466" />
<circle cx="127.8902050918707" cy="84.35361209562464" r="3.5041256773829494" fill="#FFDE75" fill-opacity="0.28625497791197113" />
<circle cx="185.69022147901978" cy="104.3826008899941" r="2.2559794001995166" fill="#8B4513" fill-opacity="0.5873639136327498" />
<circle cx="107.25766034350018" cy="51.6592229681928" r="3.965096170897244" fill="#FFFFFF" fill-opacity="0.5867600306601413" />
<circle cx="56.503706371985615" cy="73.93124706822725" r="4.191586741163793" fill="#8B4513" fill-opacity="0.3726588372469124" />
<circle cx="48.86093036785412" cy="124.81285588703538" r="5.147523416740272" fill="#FFFFFF" fill-opacity="0.5735298917173103" />
<circle cx="134.22197850078257" cy="95.30106082842518" r="2.5794568034695553" fill="#FFFFFF" fill-opacity="0.39019764090024267" />
<circle cx="92.27160056182132" cy="165.81876088825754" r="4.302352455683883" fill="#FFFFFF" fill-opacity="0.39043246459066583" />
<circle cx="93.09829415735942" cy="73.72450713022707" r="3.8611049234983517" fill="#8B4513" fill-opacity="0.2604689514334747" />
<circle cx="120.0900054436543" cy="153.8687902277476" r="4.726093207101469" fill="#D2691E" fill-opacity="0.42769792585748545" />
<circle cx="59.816400313444326" cy="113.97115569299581" r="2.90248773307808" fill="#D2691E" fill-opacity="0.23239443464505638" />
<circle cx="135.22329954991778" cy="80.67477098908762" r="2.500506072208036" fill="#FFFFFF" fill-opacity="0.2991520382418745" />
<circle cx="148.0140416966364" cy="177.68714896954594" r="5.563680092871882" fill="#8B4513" fill-opacity="0.5858495889746191" />
<circle cx="116.62486545438927" cy="48.28590308318317" r="4.004550943877042" fill="#FFDE75" fill-opacity="0.59090674109362" />
<circle cx="150.88117470217477" cy="168.81964206313137" r="5.3735777312674475" fill="#8B4513" fill-opacity="0.40744359850678713" />
<circle cx="139.62989729221343" cy="95.42677772991813" r="3.9508000287027896" fill="#8B4513" fill-opacity="0.5855327935785746" />
<circle cx="53.42007766985888" cy="108.68029614029054" r="5.3803183958398275" fill="#FFFFFF" fill-opacity="0.24696206358337053" />
<circle cx="114.98552937640719" cy="62.94794883620291" r="2.509528652626279" fill="#D2691E" fill-opacity="0.5454542633934549" />
<circle cx="61.94886347749058" cy="153.4597509167735" r="2.5919197830541147" fill="#FFFFFF" fill-opacity="0.2368186632267736" />
<circle cx="76.06772051841601" cy="37.31222803009412" r="4.119243720818559" fill="#FFFFFF" fill-opacity="0.2287403047933772" />
<circle cx="58.647238229303696" cy="120.28120239976789" r="4.70679636711041" fill="#D2691E" fill-opacity="0.4076150501930409" />
<circle cx="166.34330935441986" cy="115.98516874796373" r="3.699092659595677" fill="#FFFFFF" fill-opacity="0.48252644747096635" />
<circle cx="126.16608020984269" cy="148.69581330146553" r="5.760414138645718" fill="#FFFFFF" fill-opacity="0.3025733860320831" />
<circle cx="104.05706528608489" cy="99.00011812019255" r="2.8799237729036022" fill="#FFFFFF" fill-opacity="0.38110333559071624" />
<circle cx="147.1415983671519" cy="133.98307655143842" r="2.9945872014530743" fill="#FFDE75" fill-opacity="0.5804793515952007" />
<circle cx="41.727677385466215" cy="152.00196813104492" r="4.672757919966628" fill="#8B4513" fill-opacity="0.3343744308491257" />
<circle cx="115.62504151543168" cy="35.50333022394952" r="2.4500458984215165" fill="#8B4513" fill-opacity="0.24485395546114808" />
<circle cx="99.42513336561268" cy="183.81321356747776" r="3.0858084849956704" fill="#8B4513" fill-opacity="0.42282175051422105" />
<circle cx="28.67152074597736" cy="84.9919774922157" r="5.75293775600226" fill="#FFFFFF" fill-opacity="0.36648438771276093" />
<circle cx="161.36893018646546" cy="99.4707998263265" r="2.392894177463454" fill="#D2691E" fill-opacity="0.4759281549514356" />
<circle cx="164.4662200741556" cy="152.13227830211417" r="2.9731454454283153" fill="#FFDE75" fill-opacity="0.2503066160388151" />
<circle cx="68.1168954567915" cy="109.98503741727116" r="2.660677685010694" fill="#FFFFFF" fill-opacity="0.2970052850477372" />
<circle cx="87.94559044569343" cy="125.52083680456711" r="4.609315938101924" fill="#FFDE75" fill-opacity="0.4218138015793008" />
<circle cx="173.12467164828138" cy="73.57817251829611" r="5.651783083963229" fill="#D2691E" fill-opacity="0.4722771029312921" />
<circle cx="55.135056177264275" cy="56.19498857316386" r="5.37893215149718" fill="#D2691E" fill-opacity="0.5685197557593891" />
<circle cx="113.87200877303712" cy="146.6804685773917" r="11.055697341874476" fill="#FFFFFF" fill-opacity="0.95" stroke="#FAF0E6" stroke-width="1.5" />
<circle cx="74.34975139493093" cy="119.90605856379668" r="11.694422628946393" fill="#FFFFFF" fill-opacity="0.95" stroke="#FAF0E6" stroke-width="1.5" />
<circle cx="165.66509006885576" cy="140.53116560743834" r="9.99661914553919" fill="#FFFFFF" fill-opacity="0.95" stroke="#FAF0E6" stroke-width="1.5" />
<circle cx="72.60278387599016" cy="151.77775663174216" r="7.9437926592628685" fill="#FFFFFF" fill-opacity="0.95" stroke="#FAF0E6" stroke-width="1.5" />
<circle cx="41.37389851620523" cy="130.0333928377641" r="5.491491360725815" fill="#FFFFFF" fill-opacity="0.95" stroke="#FAF0E6" stroke-width="1.5" />
<circle cx="82.18525860964773" cy="82.1948244531115" r="5.73503233647093" fill="#FFFFFF" fill-opacity="0.95" stroke="#FAF0E6" stroke-width="1.5" />
<circle cx="75.870055939514" cy="131.6538791888522" r="5.57050175748941" fill="#FFFFFF" fill-opacity="0.95" stroke="#FAF0E6" stroke-width="1.5" />
<circle cx="118.7402112979751" cy="118.44979928432562" r="6.242008341295126" fill="#FFFFFF" fill-opacity="0.95" stroke="#FAF0E6" stroke-width="1.5" />
<circle cx="50.885624572313056" cy="136.24757501625555" r="9.07457204557318" fill="#FFFFFF" fill-opacity="0.95" stroke="#FAF0E6" stroke-width="1.5" />
<circle cx="56.990987330513924" cy="118.95582838676405" r="11.794054850744534" fill="#FFFFFF" fill-opacity="0.95" stroke="#FAF0E6" stroke-width="1.5" />
<circle cx="75.56791745227258" cy="76.4049288005573" r="10.631107442229702" fill="#FFFFFF" fill-opacity="0.95" stroke="#FAF0E6" stroke-width="1.5" />
<circle cx="127.47818169497324" cy="165.97341485988514" r="9.661425689622167" fill="#FFFFFF" fill-opacity="0.95" stroke="#FAF0E6" stroke-width="1.5" />
<circle cx="171.54876731989202" cy="141.20440596821513" r="11.150817368885086" fill="#FFFFFF" fill-opacity="0.95" stroke="#FAF0E6" stroke-width="1.5" />
<circle cx="81.78730802256831" cy="147.29151816110206" r="6.311550797387476" fill="#FFFFFF" fill-opacity="0.95" stroke="#FAF0E6" stroke-width="1.5" />
<circle cx="148.8787689943572" cy="52.68383181106081" r="7.256536753131472" fill="#FFFFFF" fill-opacity="0.95" stroke="#FAF0E6" stroke-width="1.5" />
<circle cx="135.91344898325187" cy="124.59522635480734" r="9.845283949678551" fill="#FFFFFF" fill-opacity="0.95" stroke="#FAF0E6" stroke-width="1.5" />
<circle cx="92.05335168643306" cy="44.88688751580945" r="9.075628838136389" fill="#FFFFFF" fill-opacity="0.95" stroke="#FAF0E6" stroke-width="1.5" />
<circle cx="77.42032253437688" cy="169.93476442305263" r="10.216130226103974" fill="#FFFFFF" fill-opacity="0.95" stroke="#FAF0E6" stroke-width="1.5" />
</g>
<path d="M105.0,105.0 L200.10565162951536,74.09830056250526 A100,100,0,0,1,200.10565162951536,135.90169943749473 Z" fill="#FEF7E3" stroke="lightgray" stroke-width="2" />
<use xlink:href="#clip-4462096976-4465615440" />
<g clip-path="url(#clip-4462096976-4465615440)">
<circle cx="105.0" cy="105.0" r="92" stroke="#DAA05D" stroke-width="16" fill="none" />
<circle cx="105.0" cy="105.0" r="98" stroke="#C37B32" stroke-width="5" fill="none" />
<circle cx="48.493230390424884" cy="48.14629198073688" r="5.314230666853236" fill="#D2691E" fill-opacity="0.413027116329782" />
<circle cx="178.32062482271903" cy="97.5270173322494" r="5.597826357153464" fill="#FFDE75" fill-opacity="0.4126929528640028" />
<circle cx="29.463799201379985" cy="74.20918961936695" r="4.26771118082797" fill="#FFDE75" fill-opacity="0.44813182207877816" />
<circle cx="146.3799509860879" cy="106.03423080390156" r="2.8650890739721984" fill="#FFFFFF" fill-opacity="0.5315676263744045" />
<circle cx="50.33355412731162" cy="166.92553021889415" r="4.440867447112652" fill="#FFFFFF" fill-opacity="0.24918205147496197" />
<circle cx="103.09867331600091" cy="26.442233133943162" r="5.538309616562561" fill="#D2691E" fill-opacity="0.5082982583281226" />
<circle cx="88.84058595323019" cy="112.14017226801658" r="4.3862136176037625" fill="#D2691E" fill-opacity="0.4768358921935245" />
<circle cx="143.355989567886" cy="91.01604496838394" r="3.5217830262137597" fill="#D2691E" fill-opacity="0.4081702234128445" />
<circle cx="144.95407246724864" cy="78.90860076912924" r="2.7174697559355234" fill="#8B4513" fill-opacity="0.39108866453350144" />
<circle cx="136.81014660668657" cy="140.81539319593588" r="3.8758726623179007" fill="#FFFFFF" fill-opacity="0.4171235329363747" />
<circle cx="48.534603889832695" cy="51.01484188307571" r="2.714910278491633" fill="#D2691E" fill-opacity="0.28717835278414466" />
<circle cx="127.8902050918707" cy="84.35361209562464" r="3.5041256773829494" fill="#FFDE75" fill-opacity="0.28625497791197113" />
<circle cx="185.69022147901978" cy="104.3826008899941" r="2.2559794001995166" fill="#8B4513" fill-opacity="0.5873639136327498" />
<circle cx="107.25766034350018" cy="51.6592229681928" r="3.965096170897244" fill="#FFFFFF" fill-opacity="0.5867600306601413" />
<circle cx="56.503706371985615" cy="73.93124706822725" r="4.191586741163793" fill="#8B4513" fill-opacity="0.3726588372469124" />
<circle cx="48.86093036785412" cy="124.81285588703538" r="5.147523416740272" fill="#FFFFFF" fill-opacity="0.5735298917173103" />
<circle cx="134.22197850078257" cy="95.30106082842518" r="2.5794568034695553" fill="#FFFFFF" fill-opacity="0.39019764090024267" />
<circle cx="92.27160056182132" cy="165.81876088825754" r="4.302352455683883" fill="#FFFFFF" fill-opacity="0.39043246459066583" />
<circle cx="93.09829415735942" cy="73.72450713022707" r="3.8611049234983517" fill="#8B4513" fill-opacity="0.2604689514334747" />
<circle cx="120.0900054436543" cy="153.8687902277476" r="4.726093207101469" fill="#D2691E" fill-opacity="0.42769792585748545" />
<circle cx="59.816400313444326" cy="113.97115569299581" r="2.90248773307808" fill="#D2691E" fill-opacity="0.23239443464505638" />
<circle cx="135.22329954991778" cy="80.67477098908762" r="2.500506072208036" fill="#FFFFFF" fill-opacity="0.2991520382418745" />
<circle cx="148.0140416966364" cy="177.68714896954594" r="5.563680092871882" fill="#8B4513" fill-opacity="0.5858495889746191" />
<circle cx="116.62486545438927" cy="48.28590308318317" r="4.004550943877042" fill="#FFDE75" fill-opacity="0.59090674109362" />
<circle cx="150.88117470217477" cy="168.81964206313137" r="5.3735777312674475" fill="#8B4513" fill-opacity="0.40744359850678713" />
<circle cx="139.62989729221343" cy="95.42677772991813" r="3.9508000287027896" fill="#8B4513" fill-opacity="0.5855327935785746" />
<circle cx="53.42007766985888" cy="108.68029614029054" r="5.3803183958398275" fill="#FFFFFF" fill-opacity="0.24696206358337053" />
<circle cx="114.98552937640719" cy="62.94794883620291" r="2.509528652626279" fill="#D2691E" fill-opacity="0.5454542633934549" />
<circle cx="61.94886347749058" cy="153.4597509167735" r="2.5919197830541147" fill="#FFFFFF" fill-opacity="0.2368186632267736" />
<circle cx="76.06772051841601" cy="37.31222803009412" r="4.119243720818559" fill="#FFFFFF" fill-opacity="0.2287403047933772" />
<circle cx="58.647238229303696" cy="120.28120239976789" r="4.70679636711041" fill="#D2691E" fill-opacity="0.4076150501930409" />
<circle cx="166.34330935441986" cy="115.98516874796373" r="3.699092659595677" fill="#FFFFFF" fill-opacity="0.48252644747096635" />
<circle cx="126.16608020984269" cy="148.69581330146553" r="5.760414138645718" fill="#FFFFFF" fill-opacity="0.3025733860320831" />
<circle cx="104.05706528608489" cy="99.00011812019255" r="2.8799237729036022" fill="#FFFFFF" fill-opacity="0.38110333559071624" />
<circle cx="147.1415983671519" cy="133.98307655143842" r="2.9945872014530743" fill="#FFDE75" fill-opacity="0.5804793515952007" />
<circle cx="41.727677385466215" cy="152.00196813104492" r="4.672757919966628" fill="#8B4513" fill-opacity="0.3343744308491257" />
<circle cx="115.62504151543168" cy="35.50333022394952" r="2.4500458984215165" fill="#8B4513" fill-opacity="0.24485395546114808" />
<circle cx="99.42513336561268" cy="183.81321356747776" r="3.0858084849956704" fill="#8B4513" fill-opacity="0.42282175051422105" />
<circle cx="28.67152074597736" cy="84.9919774922157" r="5.75293775600226" fill="#FFFFFF" fill-opacity="0.36648438771276093" />
<circle cx="161.36893018646546" cy="99.4707998263265" r="2.392894177463454" fill="#D2691E" fill-opacity="0.4759281549514356" />
<circle cx="164.4662200741556" cy="152.13227830211417" r="2.9731454454283153" fill="#FFDE75" fill-opacity="0.2503066160388151" />
<circle cx="68.1168954567915" cy="109.98503741727116" r="2.660677685010694" fill="#FFFFFF" fill-opacity="0.2970052850477372" />
<circle cx="87.94559044569343" cy="125.52083680456711" r="4.609315938101924" fill="#FFDE75" fill-opacity="0.4218138015793008" />
<circle cx="173.12467164828138" cy="73.57817251829611" r="5.651783083963229" fill="#D2691E" fill-opacity="0.4722771029312921" />
<circle cx="55.135056177264275" cy="56.19498857316386" r="5.37893215149718" fill="#D2691E" fill-opacity="0.5685197557593891" />
<circle cx="113.87200877303712" cy="146.6804685773917" r="11.055697341874476" fill="#FFFFFF" fill-opacity="0.95" stroke="#FAF0E6" stroke-width="1.5" />
<circle cx="74.34975139493093" cy="119.90605856379668" r="11.694422628946393" fill="#FFFFFF" fill-opacity="0.95" stroke="#FAF0E6" stroke-width="1.5" />
<circle cx="165.66509006885576" cy="140.53116560743834" r="9.99661914553919" fill="#FFFFFF" fill-opacity="0.95" stroke="#FAF0E6" stroke-width="1.5" />
<circle cx="72.60278387599016" cy="151.77775663174216" r="7.9437926592628685" fill="#FFFFFF" fill-opacity="0.95" stroke="#FAF0E6" stroke-width="1.5" />
<circle cx="41.37389851620523" cy="130.0333928377641" r="5.491491360725815" fill="#FFFFFF" fill-opacity="0.95" stroke="#FAF0E6" stroke-width="1.5" />
<circle cx="82.18525860964773" cy="82.1948244531115" r="5.73503233647093" fill="#FFFFFF" fill-opacity="0.95" stroke="#FAF0E6" stroke-width="1.5" />
<circle cx="75.870055939514" cy="131.6538791888522" r="5.57050175748941" fill="#FFFFFF" fill-opacity="0.95" stroke="#FAF0E6" stroke-width="1.5" />
<circle cx="118.7402112979751" cy="118.44979928432562" r="6.242008341295126" fill="#FFFFFF" fill-opacity="0.95" stroke="#FAF0E6" stroke-width="1.5" />
<circle cx="50.885624572313056" cy="136.24757501625555" r="9.07457204557318" fill="#FFFFFF" fill-opacity="0.95" stroke="#FAF0E6" stroke-width="1.5" />
<circle cx="56.990987330513924" cy="118.95582838676405" r="11.794054850744534" fill="#FFFFFF" fill-opacity="0.95" stroke="#FAF0E6" stroke-width="1.5" />
<circle cx="75.56791745227258" cy="76.4049288005573" r="10.631107442229702" fill="#FFFFFF" fill-opacity="0.95" stroke="#FAF0E6" stroke-width="1.5" />
<circle cx="127.47818169497324" cy="165.97341485988514" r="9.661425689622167" fill="#FFFFFF" fill-opacity="0.95" stroke="#FAF0E6" stroke-width="1.5" />
<circle cx="171.54876731989202" cy="141.20440596821513" r="11.150817368885086" fill="#FFFFFF" fill-opacity="0.95" stroke="#FAF0E6" stroke-width="1.5" />
<circle cx="81.78730802256831" cy="147.29151816110206" r="6.311550797387476" fill="#FFFFFF" fill-opacity="0.95" stroke="#FAF0E6" stroke-width="1.5" />
<circle cx="148.8787689943572" cy="52.68383181106081" r="7.256536753131472" fill="#FFFFFF" fill-opacity="0.95" stroke="#FAF0E6" stroke-width="1.5" />
<circle cx="135.91344898325187" cy="124.59522635480734" r="9.845283949678551" fill="#FFFFFF" fill-opacity="0.95" stroke="#FAF0E6" stroke-width="1.5" />
<circle cx="92.05335168643306" cy="44.88688751580945" r="9.075628838136389" fill="#FFFFFF" fill-opacity="0.95" stroke="#FAF0E6" stroke-width="1.5" />
<circle cx="77.42032253437688" cy="169.93476442305263" r="10.216130226103974" fill="#FFFFFF" fill-opacity="0.95" stroke="#FAF0E6" stroke-width="1.5" />
</g>
<rect x="230.0" y="41.0" width="54.0" height="54.0" fill="none" stroke="black" stroke-width="2" />
<rect x="230.0" y="115.0" width="54.0" height="54.0" fill="none" stroke="black" stroke-width="2" />
<path d="M225.0,105.0 L289.0,105.0" stroke="black" stroke-width="2" />
</g>
</svg>