<?xml version="1.0" encoding="UTF-8"?>
<svg xmlns="http://www.w3.org/2000/svg" xmlns:xlink="http://www.w3.org/1999/xlink"
     width="284.0" height="210" viewBox="0 0 284.0 210">
<defs>
<clipPath id="clip-4530376384-4465615696">
<path d="M105.0,105.0 L105.0,5.0 A100,100,0,0,1,205.0,105.0 Z" fill="none" />
</clipPath>
</defs>
<g>
<path d="M105.0,105.0 L105.0,5.0 A100,100,0,0,1,205.0,105.0 Z" fill="none" stroke="lightgray" stroke-width="2" />
<path d="M105.0,105.0 L205.0,105.0 A100,100,0,0,1,105.0,205.0 Z" fill="none" stroke="lightgray" stroke-width="2" />
<path d="M105.0,105.0 L105.0,205.0 A100,100,0,0,1,5.0,105.00000000000001 Z" fill="none" stroke="lightgray" stroke-width="2" />
<path d="M105.0,105.0 L5.0,105.00000000000001 A100,100,0,0,1,104.99999999999999,5.0 Z" fill="none" stroke="lightgray" stroke-width="2" />
<path d="M105.0,105.0 L105.0,5.0 A100,100,0,0,1,205.0,105.0 Z" fill="#F5C754" stroke="lightgray" stroke-width="2" />
<use xlink:href="#clip-4530376384-4465615696" />
<g clip-path="url(#clip-4530376384-4465615696)">
<circle cx="105.0" cy="105.0" r="92" stroke="#DAA05D" stroke-width="16" fill="none" />
<circle cx="105.0" cy="105.0" r="98" stroke="#C37B32" stroke-width="5" fill="none" />
<circle cx="106.27376878138534" cy="33.8227768382484" r="5.3683543082441165" fill="#FFFFFF" fill-opacity="0.29462180708061614" />
<circle cx="101.63598423631976" cy="143.68995916698054" r="4.859110870847723" fill="#D2691E" fill-opacity="0.5694267343994059" />
<circle cx="171.9983079719329" cy="89.08033478563459" r="2.3133234888106693" fill="#D2691E" fill-opacity="0.2553141145390775" />
<circle cx="68.58907523010387" cy="92.84135985784438" r="5.853988433805417" fill="#8B4513" fill-opacity="0.2901162570239734" />
<circle cx="159.55250358288237" cy="120.28302492822112" r="4.367344948984668" fill="#D2691E" fill-opacity="0.20699793520938586" />
<circle cx="91.64485802904923" cy="188.75388553446084" r="4.570585357859142" fill="#FFDE75" fill-opacity="0.35704364600148597" />
<circle cx="108.58350213878437" cy="67.7396164822866" r="2.270901275756894" fill="#D2691E" fill-opacity="0.31959483055925964" />
<circle cx="55.194660806173395" cy="172.6324556090692" r="3.3202523225996514" fill="#D2691E" fill-opacity="0.21748344143436713" />
<circle cx="86.30724344640058" cy="107.79353754140894" r="5.977071128931589" fill="#8B4513" fill-opacity="0.30054565305630354" />
<circle cx="51.850263934138155" cy="40.074901664448376" r="2.808909654731804" fill="#8B4513" fill-opacity="0.36168442004918283" />
<circle cx="181.62338159020962" cy="111.00542384684243" r="5.8165078106284245" fill="#FFDE75" fill-opacity="0.24287701243681614" />
<circle cx="152.52935053133697" cy="35.53614923544028" r="5.072941616608887" fill="#FFFFFF" fill-opacity="0.27157661652377413" />
<circle cx="91.7222957673247" cy="63.480822753350914" r="3.4417003807488644" fill="#D2691E" fill-opacity="0.37611250804128654" />
<circle cx="186.00486867600176" cy="86.26650243999119" r="3.5474459812597" fill="#FFDE75" fill-opacity="0.23672268096976037" />
<circle cx="116.61177243590203" cy="152.1839981346346" r="3.078459873800775" fill="#FFDE75" fill-opacity="0.4870111894341397" />
<circle cx="96.07127443913666" cy="36.04762696117707" r="9.7651208614419" fill="#C92A2A" stroke="#800000" stroke-width="1" />
<circle cx="101.16985385495342" cy="39.558487377360464" r="1.131753116516795" fill="#FFA07A" fill-opacity="0.7" />
<circle cx="95.47578694218498" cy="31.89384453795712" r="0.851892705309491" fill="#FFA07A" fill-opacity="0.7" />
<circle cx="94.13888344820799" cy="32.99177277323434" r="1.3125511215423982" fill="#FFA07A" fill-opacity="0.7" />
<circle cx="64.46318215137042" cy="77.84362239528494" r="11.759170461875327" fill="#C92A2A" stroke="#800000" stroke-width="1" />
<circle cx="60.79663954733314" cy="80.76797972815983" r="0.6444713536953642" fill="#FFA07A" fill-opacity="0.7" />
<circle cx="69.06424589464413" cy="82.12179201157713" r="1.0917295103025393" fill="#FFA07A" fill-opacity="0.7" />
<circle cx="64.3110481465523" cy="82.80500260213553" r="0.6557752135019009" fill="#FFA07A" fill-opacity="0.7" />
<circle cx="65.42085275759374" cy="80.65703274373512" r="1.3940118020312549" fill="#FFA07A" fill-opacity="0.7" />
<circle cx="62.05357576900217" cy="72.59286107190374" r="0.7257954423903189" fill="#FFA07A" fill-opacity="0.7" />
<circle cx="167.20207997323007" cy="111.33017994786904" r="11.190361082715805" fill="#C92A2A" stroke="#800000" stroke-width="1" />
<circle cx="164.38601513770698" cy="109.7797213760971" r="0.696509312798113" fill="#FFA07A" fill-opacity="0.7" />
<circle cx="166.78369809469467" cy="108.62102020121907" r="0.6472790261421112" fill="#FFA07A" fill-opacity="0.7" />
<circle cx="167.43281175015952" cy="115.37795514346791" r="1.0195552856547967" fill="#FFA07A" fill-opacity="0.7" />
<circle cx="163.09047327514517" cy="107.09297645079768" r="1.23599033476097" fill="#FFA07A" fill-opacity="0.7" />
<circle cx="117.80364204737639" cy="142.5334784269815" r="10.657484363745084" fill="#C92A2A" stroke="#800000" stroke-width="1" />
<circle cx="118.63569961977393" cy="141.0692549033905" r="0.7947851254870393" fill="#FFA07A" fill-opacity="0.7" />
<circle cx="122.81715370314865" cy="147.05609957051314" r="1.2149122437901676" fill="#FFA07A" fill-opacity="0.7" />
<circle cx="118.98586975330754" cy="144.57334881123796" r="0.8417618612257642" fill="#FFA07A" fill-opacity="0.7" />
</g>
<rect x="230.0" y="41.0" width="54.0" height="54.0" fill="none" stroke="black" stroke-width="2" />
<rect x="230.0" y="115.0" width="54.0" height="54.0" fill="none" stroke="black" stroke-width="2" />
<path d="M225.0,105.0 L289.0,105.0" stroke="black" stroke-width="2" />
</g>
</svg>