<svg width="678.0" height="210.0" xmlns="http://www.w3.org/2000/svg" xmlns:xlink="http://www.w3.org/1999/xlink">
<svg x="0.0" y="0.0" width="284.0" height="210.0" viewBox="0 0 284.0 210" xmlns="http://www.w3.org/2000/svg" xmlns:xlink="http://www.w3.org/1999/xlink">
<defs>
<clipPath id="clip-4493608784-4494261968">
<path d="M105.0,105.0 L105.0,5.0 A100,100,0,0,1,105.0,205.0 Z" fill="none" />
</clipPath>
</defs>
<g>
<path d="M105.0,105.0 L105.0,5.0 A100,100,0,0,1,105.0,205.0 Z" fill="none" stroke="lightgray" stroke-width="2" />
<path d="M105.0,105.0 L105.0,205.0 A100,100,0,0,1,104.99999999999999,5.0 Z" fill="none" stroke="lightgray" stroke-width="2" />
<path d="M105.0,105.0 L105.0,5.0 A100,100,0,0,1,105.0,205.0 Z" fill="#F5C754" stroke="lightgray" stroke-width="2" />
<use xlink:href="#clip-4493608784-4494261968" />
<g clip-path="url(#clip-4493608784-4494261968)">
<circle cx="105.0" cy="105.0" r="92" stroke="#DAA05D" stroke-width="16" fill="none" />
<circle cx="105.0" cy="105.0" r="98" stroke="#C37B32" stroke-width="5" fill="none" />
<circle cx="87.17818951139569" cy="160.7277440498459" r="5.502809569674406" fill="#FFFFFF" fill-opacity="0.5414666418483548" />
<circle cx="181.54746220893023" cy="102.38457561670525" r="2.169025288556866" fill="#8B4513" fill-opacity="0.3977190548755021" />
<circle cx="159.5275733084187" cy="110.7507398425032" r="3.85922091906567" fill="#D2691E" fill-opacity="0.2198856834349225" />
<circle cx="161.1500049747185" cy="47.2589178020731" r="4.339021843471233" fill="#FFDE75" fill-opacity="0.482742233991757" />
<circle cx="122.58322212006553" cy="155.71904952888795" r="4.586517684298554" fill="#FFDE75" fill-opacity="0.2672808613126256" />
<circle cx="115.40303989365191" cy="108.3512019795042" r="3.6077556188097453" fill="#D2691E" fill-opacity="0.5966262327373733" />
<circle cx="74.32999241288326" cy="35.54334187740258" r="4.66117531585785" fill="#FFFFFF" fill-opacity="0.44711904463870145" />
<circle cx="52.16535725433644" cy="122.1509730672517" r="5.23076141552883" fill="#D2691E" fill-opacity="0.47559963608875266" />
<circle cx="28.713118405495905" cy="75.29578071124094" r="2.834575276294785" fill="#8B4513" fill-opacity="0.34937483099110034" />
<circle cx="134.09706933638802" cy="51.16023148740473" r="4.602942050896709" fill="#8B4513" fill-opacity="0.3317531306464676" />
<circle cx="58.015846359630764" cy="86.67170481636066" r="2.570875717717396" fill="#FFFFFF" fill-opacity="0.5441016011760917" />
<circle cx="35.61511705598974" cy="96.92436908794487" r="5.039659898061936" fill="#D2691E" fill-opacity="0.21868787425812852" />
<circle cx="104.344639862604" cy="37.63990155683571" r="4.278579953942293" fill="#FFDE75" fill-opacity="0.43648023950507103" />
<circle cx="137.96901376662487" cy="46.58975801130841" r="2.969685541298662" fill="#FFDE75" fill-opacity="0.492579086263888" />
<circle cx="24.791997001557178" cy="113.13106698222867" r="4.82873773632819" fill="#8B4513" fill-opacity="0.4190692336142665" />
<ellipse cx="137.26070131664537" cy="114.81682282973125" rx="6.474426936240228" ry="7.337567979268474" fill="#FFFDF0" fill-opacity="0.6" />
<ellipse cx="138.19931767598396" cy="115.73722669837268" rx="2.5323710747861052" ry="3.619355168682847" fill="#FFFFFF" fill-opacity="0.85" />
<ellipse cx="71.51811571335762" cy="125.55480271597057" rx="5.470306439081051" ry="7.680288597083241" fill="#FFFDF0" fill-opacity="0.6" />
<ellipse cx="72.36759072497445" cy="125.5077155966091" rx="3.118813484199999" ry="3.1249968422501437" fill="#FFFFFF" fill-opacity="0.85" />
<ellipse cx="110.7289966022326" cy="154.52676446937227" rx="9.635738788081184" ry="8.729126430729277" fill="#FFFDF0" fill-opacity="0.6" />
<ellipse cx="111.09320666127272" cy="155.43382852492627" rx="2.8691988914297686" ry="2.1191524581718335" fill="#FFFFFF" fill-opacity="0.85" />
</g>
<rect x="230.0" y="41.0" width="54.0" height="54.0" fill="none" stroke="black" stroke-width="2" />
<rect x="230.0" y="115.0" width="54.0" height="54.0" fill="none" stroke="black" stroke-width="2" />
<path d="M225.0,105.0 L289.0,105.0" stroke="black" stroke-width="2" />
<text x="257.0" y="68.0" font-size="36" font-family="Comic Sans MS, Comic Sans, cursive" dominant-baseline="middle" fill="black" text-anchor="middle">1</text>
<text x="257.0" y="142.0" font-size="36" font-family="Comic Sans MS, Comic Sans, cursive" dominant-baseline="middle" fill="black" text-anchor="middle">2</text>
</g>
</svg>
<rect x="299.0" y="65.0" width="80" height="80" fill="none" stroke="black" stroke-width="1.5"/>
<svg x="394.0" y="0.0" width="284.0" height="210.0" viewBox="0 0 284.0 210" xmlns="http://www.w3.org/2000/svg" xmlns:xlink="http://www.w3.org/1999/xlink">
<defs>
<clipPath id="clip-4493610352-4494254672">
<path d="M105.0,105.0 L105.0,5.0 A100,100,0,0,1,191.60254037844388,155.0 Z" fill="none" />
</clipPath>
</defs>
<g>
<path d="M105.0,105.0 L105.0,5.0 A100,100,0,0,1,191.60254037844388,155.0 Z" fill="none" stroke="lightgray" stroke-width="2" />
<path d="M105.0,105.0 L191.60254037844388,155.0 A100,100,0,0,1,18.397459621556123,155.0 Z" fill="none" stroke="lightgray" stroke-width="2" />
<path d="M105.0,105.0 L18.397459621556123,155.0 A100,100,0,0,1,104.99999999999999,5.0 Z" fill="none" stroke="lightgray" stroke-width="2" />
<path d="M105.0,105.0 L105.0,5.0 A100,100,0,0,1,191.60254037844388,155.0 Z" fill="#F5C754" stroke="lightgray" stroke-width="2" />
<use xlink:href="#clip-4493610352-4494254672" />
<g clip-path="url(#clip-4493610352-4494254672)">
<circle cx="105.0" cy="105.0" r="92" stroke="#DAA05D" stroke-width="16" fill="none" />
<circle cx="105.0" cy="105.0" r="98" stroke="#C37B32" stroke-width="5" fill="none" />
<circle cx="177.96924161927643" cy="143.53621884364773" r="2.7075984068749714" fill="#8B4513" fill-opacity="0.20961231083128395" />
<circle cx="64.59044834078404" cy="168.01889137744195" r="5.11434961570192" fill="#D2691E" fill-opacity="0.5186668093139737" />
<circle cx="146.06560070734145" cy="134.21972079059998" r="5.786713078136568" fill="#8B4513" fill-opacity="0.34639539244118234" />
<circle cx="114.70931452908522" cy="149.06877585018628" r="5.331223513532459" fill="#FFDE75" fill-opacity="0.5317610591732305" />
<circle cx="113.15059263571166" cy="180.50787012185418" r="3.702975705825037" fill="#8B4513" fill-opacity="0.5792889718098275" />
<circle cx="53.804654812033775" cy="160.61284101727935" r="4.474501108811772" fill="#D2691E" fill-opacity="0.4766853420665714" />
<circle cx="98.64361208751188" cy="60.560898988958755" r="2.3916214227024075" fill="#8B4513" fill-opacity="0.26488129314616293" />
<circle cx="107.30735007600885" cy="141.98196281699322" r="5.82117192026433" fill="#FFDE75" fill-opacity="0.30514703036310936" />
<circle cx="95.06245286271165" cy="119.53803708591532" r="3.696651169462796" fill="#FFDE75" fill-opacity="0.4765658501754985" />
<circle cx="117.29618968098207" cy="157.05978120227937" r="4.9306377820951965" fill="#8B4513" fill-opacity="0.20989386439342927" />
<circle cx="66.74870082349285" cy="48.53639524604423" r="5.196141562445279" fill="#FFFFFF" fill-opacity="0.4712774309850494" />
<circle cx="76.75332586382748" cy="117.4182738215252" r="4.796119919027619" fill="#8B4513" fill-opacity="0.5821719064688018" />
<circle cx="142.11774983852746" cy="38.06139684979118" r="3.681592979881458" fill="#FFDE75" fill-opacity="0.27544259920154107" />
<circle cx="65.04088642537926" cy="135.99458367415562" r="2.6078931014992697" fill="#FFDE75" fill-opacity="0.5206907554941005" />
<circle cx="135.10422894380713" cy="59.42828675931045" r="5.006326716831372" fill="#FFFFFF" fill-opacity="0.22257377782818205" />
<ellipse cx="88.71695472983966" cy="92.89108382698562" rx="7.2454084909661045" ry="6.202593728610649" fill="#FFFDF0" fill-opacity="0.6" />
<ellipse cx="88.8024015025772" cy="92.86202075591684" rx="4.669278139275654" ry="3.554734394211789" fill="#FFFFFF" fill-opacity="0.85" />
<ellipse cx="132.8124198508306" cy="68.12528383354467" rx="5.704640648453128" ry="8.356928370403466" fill="#FFFDF0" fill-opacity="0.6" />
<ellipse cx="133.5324617726481" cy="67.91052345774642" rx="2.1336286947127627" ry="3.925349630180839" fill="#FFFFFF" fill-opacity="0.85" />
<ellipse cx="103.51835506934343" cy="55.33829728784108" rx="5.260682132842964" ry="5.2227506288064856" fill="#FFFDF0" fill-opacity="0.6" />
<ellipse cx="102.67282599779713" cy="54.95194097551216" rx="3.522856899821971" ry="2.1344891612203356" fill="#FFFFFF" fill-opacity="0.85" />
</g>
<rect x="230.0" y="41.0" width="54.0" height="54.0" fill="none" stroke="black" stroke-width="2" />
<rect x="230.0" y="115.0" width="54.0" height="54.0" fill="none" stroke="black" stroke-width="2" />
<path d="M225.0,105.0 L289.0,105.0" stroke="black" stroke-width="2" />
<text x="257.0" y="68.0" font-size="36" font-family="Comic Sans MS, Comic Sans, cursive" dominant-baseline="middle" fill="black" text-anchor="middle">1</text>
<text x="257.0" y="142.0" font-size="36" font-family="Comic Sans MS, Comic Sans, cursive" dominant-baseline="middle" fill="black" text-anchor="middle">3</text>
</g>
</svg>
</svg>