<?xml version="1.0" encoding="UTF-8"?>
<svg xmlns="http://www.w3.org/2000/svg" xmlns:xlink="http://www.w3.org/1999/xlink"
     width="284.0" height="210" viewBox="0 0 284.0 210">
<defs>
<clipPath id="clip-4556257312-4541983184">
<path d="M105.0,105.0 L105.0,5.0 A100,100,0,0,1,175.71067811865476,34.28932188134526 Z" fill="none" />
</clipPath>
<clipPath id="clip-4556257312-4566785232">
<path d="M105.0,105.0 L175.71067811865476,34.28932188134526 A100,100,0,0,1,205.0,105.0 Z" fill="none" />
</clipPath>
<clipPath id="clip-4556257312-4567488848">
<path d="M105.0,105.0 L205.0,105.0 A100,100,0,0,1,175.71067811865476,175.71067811865476 Z" fill="none" />
</clipPath>
<clipPath id="clip-4556257312-4567299408">
<path d="M105.0,105.0 L175.71067811865476,175.71067811865476 A100,100,0,0,1,105.0,205.0 Z" fill="none" />
</clipPath>
</defs>
<g>
<path d="M105.0,105.0 L105.0,5.0 A100,100,0,0,1,175.71067811865476,34.28932188134526 Z" fill="none" stroke="lightgray" stroke-width="2" />
<path d="M105.0,105.0 L175.71067811865476,34.28932188134526 A100,100,0,0,1,205.0,105.0 Z" fill="none" stroke="lightgray" stroke-width="2" />
<path d="M105.0,105.0 L205.0,105.0 A100,100,0,0,1,175.71067811865476,175.71067811865476 Z" fill="none" stroke="lightgray" stroke-width="2" />
<path d="M105.0,105.0 L175.71067811865476,175.71067811865476 A100,100,0,0,1,105.0,205.0 Z" fill="none" stroke="lightgray" stroke-width="2" />
<path d="M105.0,105.0 L105.0,205.0 A100,100,0,0,1,34.28932188134526,175.71067811865476 Z" fill="none" stroke="lightgray" stroke-width="2" />
<path d="M105.0,105.0 L34.28932188134526,175.71067811865476 A100,100,0,0,1,5.0,105.00000000000001 Z" fill="none" stroke="lightgray" stroke-width="2" />
<path d="M105.0,105.0 L5.0,105.00000000000001 A100,100,0,0,1,34.28932188134523,34.28932188134526 Z" fill="none" stroke="lightgray" stroke-width="2" />
<path d="M105.0,105.0 L34.28932188134523,34.28932188134526 A100,100,0,0,1,104.99999999999999,5.0 Z" fill="none" stroke="lightgray" stroke-width="2" />
<path d="M105.0,105.0 L105.0,5.0 A100,100,0,0,1,175.71067811865476,34.28932188134526 Z" fill="#F5C754" stroke="lightgray" stroke-width="2" />
<use xlink:href="#clip-4556257312-4541983184" />
<g clip-path="url(#clip-4556257312-4541983184)">
<circle cx="105.0" cy="105.0" r="92" stroke="#DAA05D" stroke-width="16" fill="none" />
<circle cx="105.0" cy="105.0" r="98" stroke="#C37B32" stroke-width="5" fill="none" />
<circle cx="131.32940733813464" cy="76.56457445661198" r="2.32997107513473" fill="#8B4513" fill-opacity="0.44927542561723033" />
<circle cx="124.46564506632316" cy="134.17352014120388" r="2.349749289651532" fill="#D2691E" fill-opacity="0.5222537656527833" />
<circle cx="146.50898116780218" cy="71.92179749722447" r="2.5845217984812425" fill="#D2691E" fill-opacity="0.256465090467612" />
<circle cx="134.112677516371" cy="146.96629489138925" r="3.5945666767894062" fill="#8B4513" fill-opacity="0.356495660778139" />
<circle cx="125.6626513956424" cy="31.460073449855386" r="5.70130874260375" fill="#8B4513" fill-opacity="0.5573977344729965" />
<circle cx="130.28552050334835" cy="34.67802592091188" r="3.2698962635855464" fill="#FFDE75" fill-opacity="0.480702986373204" />
<circle cx="64.06352216474113" cy="115.0810599311974" r="2.6622545463816034" fill="#D2691E" fill-opacity="0.41744675087260696" />
<circle cx="184.74833767781402" cy="113.462392741954" r="3.911231450130184" fill="#FFDE75" fill-opacity="0.4954258079477694" />
<circle cx="161.35734332468115" cy="130.59003558456266" r="3.244164820832403" fill="#FFDE75" fill-opacity="0.39021866263327726" />
<circle cx="48.90728555912446" cy="104.593785294337" r="2.0919908350721728" fill="#8B4513" fill-opacity="0.5754579407608997" />
<circle cx="47.19524649081339" cy="112.29533880365736" r="4.511183806539773" fill="#D2691E" fill-opacity="0.5124220164905393" />
<circle cx="79.46924975136614" cy="102.41162420501328" r="5.633982089412394" fill="#FFFFFF" fill-opacity="0.4245622602607808" />
<circle cx="133.33737542949274" cy="85.31381514947498" r="2.9907244334589325" fill="#D2691E" fill-opacity="0.2857070879124403" />
<circle cx="156.8435700496528" cy="128.24482397497164" r="2.1378284364270836" fill="#FFDE75" fill-opacity="0.5885554710581975" />
<circle cx="48.089808232588375" cy="159.79652565982968" r="4.743861693705803" fill="#D2691E" fill-opacity="0.24435378387886955" />
<circle cx="45.21471987288065" cy="101.7876019296697" r="5.148834423053394" fill="#D2691E" fill-opacity="0.32492894037720516" />
<circle cx="104.2087144422549" cy="33.59149819210212" r="5.942628429385109" fill="#8B4513" fill-opacity="0.38162692651041585" />
<circle cx="184.14635125216824" cy="79.17108913446606" r="5.652455775911505" fill="#D2691E" fill-opacity="0.5952957909066525" />
<circle cx="122.23019742193465" cy="67.98147280926369" r="5.770372605234591" fill="#8B4513" fill-opacity="0.48107344266290203" />
<circle cx="101.17695512379532" cy="55.85696435801752" r="3.7152715729847268" fill="#8B4513" fill-opacity="0.2627748847413469" />
<circle cx="150.39526327819573" cy="116.82636640425305" r="5.211120289668189" fill="#8B4513" fill-opacity="0.5390392858431354" />
<circle cx="120.8379174758431" cy="117.45337550133719" r="4.1328433296027685" fill="#FFDE75" fill-opacity="0.20965851013002662" />
<circle cx="119.15049355995768" cy="87.69812661916293" r="4.700552904056522" fill="#FFDE75" fill-opacity="0.4401259803736588" />
<circle cx="62.280475450375064" cy="118.20864565541146" r="2.5590581709618467" fill="#FFFFFF" fill-opacity="0.4617261752199549" />
<circle cx="120.59059819535142" cy="74.85120763804123" r="4.229452091291488" fill="#D2691E" fill-opacity="0.4321830828565947" />
<circle cx="149.23800253234538" cy="72.43101148975987" r="2.014429425532788" fill="#FFFFFF" fill-opacity="0.3881089536188188" />
<circle cx="127.10438967287413" cy="31.809010441474072" r="3.3456742405650757" fill="#FFDE75" fill-opacity="0.2852001599891455" />
<circle cx="35.64683798582209" cy="135.32025264394298" r="4.547357151276929" fill="#D2691E" fill-opacity="0.2785517096391038" />
<circle cx="119.13517339797863" cy="68.76348517748974" r="3.83981228071712" fill="#FFFFFF" fill-opacity="0.4311892756968245" />
<circle cx="29.08124891102092" cy="105.44109329520901" r="5.539256597753539" fill="#D2691E" fill-opacity="0.39173088166743175" />
<circle cx="140.6148222882843" cy="160.97186729325549" r="2.1260106741672335" fill="#FFDE75" fill-opacity="0.4291115258730771" />
<circle cx="98.78796760060924" cy="97.19524057432982" r="3.30165445718023" fill="#FFFFFF" fill-opacity="0.5370230360239359" />
<circle cx="115.78232162980773" cy="155.82359468798802" r="3.85662990700566" fill="#FFFFFF" fill-opacity="0.34350710631245307" />
<circle cx="79.38187037123772" cy="120.8533901465425" r="5.78966743923213" fill="#8B4513" fill-opacity="0.35160582581586025" />
<circle cx="158.4423722805946" cy="50.1641702321931" r="5.821531177339005" fill="#FFDE75" fill-opacity="0.29602813992124777" />
<circle cx="151.50655795753886" cy="104.12862169024017" r="4.913338028934755" fill="#FFFFFF" fill-opacity="0.511052803143946" />
<circle cx="81.28335180077708" cy="85.40306607060515" r="2.929708243044394" fill="#FFDE75" fill-opacity="0.20050650335647915" />
<circle cx="139.59305877615085" cy="111.19249224385051" r="5.605675754964064" fill="#FFDE75" fill-opacity="0.29195505415748907" />
<circle cx="111.91049239878896" cy="166.6336017973479" r="2.542862238191455" fill="#8B4513" fill-opacity="0.2610077608144107" />
<circle cx="129.61202517619986" cy="137.93369941821084" r="4.3228726573057585" fill="#FFDE75" fill-opacity="0.460886284696384" />
<circle cx="129.66841359150123" cy="127.32763479682117" r="2.115900301565547" fill="#FFFFFF" fill-opacity="0.22041895757818986" />
<circle cx="75.783630685513" cy="87.22417556673292" r="5.784080066966284" fill="#FFFFFF" fill-opacity="0.38179165308319285" />
<circle cx="139.96808777963344" cy="159.61489587276853" r="5.765083988471275" fill="#FFDE75" fill-opacity="0.35335545893545334" />
<circle cx="39.536516360827875" cy="90.54352679269641" r="4.688539304087934" fill="#8B4513" fill-opacity="0.5478352985565642" />
<circle cx="140.7732761077618" cy="39.85351707127104" r="2.9510689954193396" fill="#FFDE75" fill-opacity="0.5768969685205656" />
<circle cx="137.17298663880644" cy="116.51950355471615" r="3.5950879624807803" fill="#FFDE75" fill-opacity="0.4865228147502853" />
<circle cx="89.03149320462883" cy="142.13694795911232" r="3.811078255603052" fill="#D2691E" fill-opacity="0.36982930049489937" />
<circle cx="143.64513924715962" cy="46.206976584091606" r="5.101721032254794" fill="#FFDE75" fill-opacity="0.5974326699466574" />
<circle cx="161.89870250667246" cy="159.5072626040079" r="2.070659160927877" fill="#8B4513" fill-opacity="0.2725202828523083" />
<circle cx="77.95652267237358" cy="147.4308838380618" r="3.6217804129088798" fill="#FFDE75" fill-opacity="0.35933622769564133" />
<circle cx="85.8879261054613" cy="153.2647056047794" r="4.416008965874637" fill="#FFFFFF" fill-opacity="0.310816052853277" />
<circle cx="71.79170383961416" cy="89.86129444691491" r="5.337883169012615" fill="#8B4513" fill-opacity="0.25636942239728916" />
<circle cx="127.84601700805904" cy="111.81420857832198" r="2.007861758633368" fill="#FFDE75" fill-opacity="0.38367068333936105" />
<circle cx="114.9756171957262" cy="46.13577390056583" r="4.033144378156221" fill="#8B4513" fill-opacity="0.3312582395702802" />
<circle cx="179.29786820711536" cy="93.2208579808284" r="4.965661047334537" fill="#FFDE75" fill-opacity="0.3806764574471697" />
<circle cx="77.3735511808696" cy="64.70469319513077" r="4.151359201182457" fill="#FFDE75" fill-opacity="0.5765442914328864" />
<circle cx="174.3479738079522" cy="146.16006450881738" r="3.01594046061074" fill="#D2691E" fill-opacity="0.2799545753241892" />
<circle cx="142.4122273286123" cy="143.5435942127774" r="5.772507635650149" fill="#D2691E" fill-opacity="0.2737350014013521" />
<circle cx="163.22317799976082" cy="97.35883903899342" r="2.1391127129245855" fill="#FFDE75" fill-opacity="0.3768028428053243" />
<circle cx="45.64827321786256" cy="73.8329542557179" r="4.469307212383298" fill="#D2691E" fill-opacity="0.5317248033053348" />
<ellipse cx="89.35211633362441" cy="133.95883520542824" rx="7.3281527375701225" ry="5.5718461905708665" fill="#FFFDF0" fill-opacity="0.6" />
<ellipse cx="89.32522838587012" cy="134.22452990006923" rx="3.3746714614047755" ry="3.196337406935464" fill="#FFFFFF" fill-opacity="0.85" />
<ellipse cx="130.6426447800355" cy="56.910800525320695" rx="7.2198622811279245" ry="6.077445488710792" fill="#FFFDF0" fill-opacity="0.6" />
<ellipse cx="130.36910897815912" cy="57.22452940738869" rx="2.919106951048726" ry="2.126756134215869" fill="#FFFFFF" fill-opacity="0.85" />
<ellipse cx="71.79814141117825" cy="72.13096257762885" rx="6.473749587897899" ry="8.5102737775611" fill="#FFFDF0" fill-opacity="0.6" />
<ellipse cx="72.55823171812287" cy="72.44181830889347" rx="4.9255478683130525" ry="3.2046890975167353" fill="#FFFFFF" fill-opacity="0.85" />
<ellipse cx="154.72795943432482" cy="60.727516564706875" rx="8.05607362387493" ry="5.558584642182006" fill="#FFFDF0" fill-opacity="0.6" />
<ellipse cx="154.1367334764089" cy="60.49981593464296" rx="2.3582920369415747" ry="2.24153561205007" fill="#FFFFFF" fill-opacity="0.85" />
<ellipse cx="168.9796974284314" cy="150.00342745495306" rx="5.368608302434599" ry="6.376527688711658" fill="#FFFDF0" fill-opacity="0.6" />
<ellipse cx="168.16365557741835" cy="150.2424344156831" rx="4.609574519281333" ry="3.004876416240367" fill="#FFFFFF" fill-opacity="0.85" />
<ellipse cx="52.44024686508403" cy="50.80982548603762" rx="5.341792777010584" ry="7.4131669434593075" fill="#FFFDF0" fill-opacity="0.6" />
<ellipse cx="51.90843619621489" cy="51.5938399912316" rx="2.5182949211741654" ry="3.472126593140117" fill="#FFFFFF" fill-opacity="0.85" />
<ellipse cx="64.04749710242055" cy="130.61478421511495" rx="5.764836710240957" ry="8.767377007900361" fill="#FFFDF0" fill-opacity="0.6" />
<ellipse cx="64.62563388825819" cy="129.72075245394583" rx="3.0079686865128394" ry="2.2660665826059416" fill="#FFFFFF" fill-opacity="0.85" />
<ellipse cx="172.12297790936515" cy="112.89013291254912" rx="7.3526087412566605" ry="7.608135086213687" fill="#FFFDF0" fill-opacity="0.6" />
<ellipse cx="172.35479408328277" cy="113.43076410967666" rx="4.2706287517384185" ry="2.445094020801915" fill="#FFFFFF" fill-opacity="0.85" />
<ellipse cx="118.52751733791926" cy="165.3204119021359" rx="6.365687026304387" ry="6.2817631384036545" fill="#FFFDF0" fill-opacity="0.6" />
<ellipse cx="118.73760123228352" cy="164.38344610183108" rx="2.000121023206785" ry="3.0806829114077887" fill="#FFFFFF" fill-opacity="0.85" />
<ellipse cx="131.78890086063268" cy="176.26934957494447" rx="5.661421818377354" ry="8.324517260639105" fill="#FFFDF0" fill-opacity="0.6" />
<ellipse cx="131.5759070457522" cy="175.3778371016338" rx="3.1233216967678374" ry="2.7653644599513942" fill="#FFFFFF" fill-opacity="0.85" />
<ellipse cx="115.50702801117616" cy="87.4650313051005" rx="5.047446619274875" ry="5.243247929313904" fill="#FFFDF0" fill-opacity="0.6" />
<ellipse cx="116.08789907397369" cy="87.38022409145263" rx="3.7844221949404973" ry="3.784237093308838" fill="#FFFFFF" fill-opacity="0.85" />
<ellipse cx="141.05722191890067" cy="91.21567912172122" rx="5.62052670700941" ry="6.21843793638215" fill="#FFFDF0" fill-opacity="0.6" />
<ellipse cx="140.28288075688837" cy="91.9846066020507" rx="2.9971916468927007" ry="2.487286216239137" fill="#FFFFFF" fill-opacity="0.85" />
</g>
<path d="M105.0,105.0 L175.71067811865476,34.28932188134526 A100,100,0,0,1,205.0,105.0 Z" fill="#F5C754" stroke="lightgray" stroke-width="2" />
<use xlink:href="#clip-4556257312-4566785232" />
<g clip-path="url(#clip-4556257312-4566785232)">
<circle cx="105.0" cy="105.0" r="92" stroke="#DAA05D" stroke-width="16" fill="none" />
<circle cx="105.0" cy="105.0" r="98" stroke="#C37B32" stroke-width="5" fill="none" />
<circle cx="131.32940733813464" cy="76.56457445661198" r="2.32997107513473" fill="#8B4513" fill-opacity="0.44927542561723033" />
<circle cx="124.46564506632316" cy="134.17352014120388" r="2.349749289651532" fill="#D2691E" fill-opacity="0.5222537656527833" />
<circle cx="146.50898116780218" cy="71.92179749722447" r="2.5845217984812425" fill="#D2691E" fill-opacity="0.256465090467612" />
<circle cx="134.112677516371" cy="146.96629489138925" r="3.5945666767894062" fill="#8B4513" fill-opacity="0.356495660778139" />
<circle cx="125.6626513956424" cy="31.460073449855386" r="5.70130874260375" fill="#8B4513" fill-opacity="0.5573977344729965" />
<circle cx="130.28552050334835" cy="34.67802592091188" r="3.2698962635855464" fill="#FFDE75" fill-opacity="0.480702986373204" />
<circle cx="64.06352216474113" cy="115.0810599311974" r="2.6622545463816034" fill="#D2691E" fill-opacity="0.41744675087260696" />
<circle cx="184.74833767781402" cy="113.462392741954" r="3.911231450130184" fill="#FFDE75" fill-opacity="0.4954258079477694" />
<circle cx="161.35734332468115" cy="130.59003558456266" r="3.244164820832403" fill="#FFDE75" fill-opacity="0.39021866263327726" />
<circle cx="48.90728555912446" cy="104.593785294337" r="2.0919908350721728" fill="#8B4513" fill-opacity="0.5754579407608997" />
<circle cx="47.19524649081339" cy="112.29533880365736" r="4.511183806539773" fill="#D2691E" fill-opacity="0.5124220164905393" />
<circle cx="79.46924975136614" cy="102.41162420501328" r="5.633982089412394" fill="#FFFFFF" fill-opacity="0.4245622602607808" />
<circle cx="133.33737542949274" cy="85.31381514947498" r="2.9907244334589325" fill="#D2691E" fill-opacity="0.2857070879124403" />
<circle cx="156.8435700496528" cy="128.24482397497164" r="2.1378284364270836" fill="#FFDE75" fill-opacity="0.5885554710581975" />
<circle cx="48.089808232588375" cy="159.79652565982968" r="4.743861693705803" fill="#D2691E" fill-opacity="0.24435378387886955" />
<circle cx="45.21471987288065" cy="101.7876019296697" r="5.148834423053394" fill="#D2691E" fill-opacity="0.32492894037720516" />
<circle cx="104.2087144422549" cy="33.59149819210212" r="5.942628429385109" fill="#8B4513" fill-opacity="0.38162692651041585" />
<circle cx="184.14635125216824" cy="79.17108913446606" r="5.652455775911505" fill="#D2691E" fill-opacity="0.5952957909066525" />
<circle cx="122.23019742193465" cy="67.98147280926369" r="5.770372605234591" fill="#8B4513" fill-opacity="0.48107344266290203" />
<circle cx="101.17695512379532" cy="55.85696435801752" r="3.7152715729847268" fill="#8B4513" fill-opacity="0.2627748847413469" />
<circle cx="150.39526327819573" cy="116.82636640425305" r="5.211120289668189" fill="#8B4513" fill-opacity="0.5390392858431354" />
<circle cx="120.8379174758431" cy="117.45337550133719" r="4.1328433296027685" fill="#FFDE75" fill-opacity="0.20965851013002662" />
<circle cx="119.15049355995768" cy="87.69812661916293" r="4.700552904056522" fill="#FFDE75" fill-opacity="0.4401259803736588" />
<circle cx="62.280475450375064" cy="118.20864565541146" r="2.5590581709618467" fill="#FFFFFF" fill-opacity="0.4617261752199549" />
<circle cx="120.59059819535142" cy="74.85120763804123" r="4.229452091291488" fill="#D2691E" fill-opacity="0.4321830828565947" />
<circle cx="149.23800253234538" cy="72.43101148975987" r="2.014429425532788" fill="#FFFFFF" fill-opacity="0.3881089536188188" />
<circle cx="127.10438967287413" cy="31.809010441474072" r="3.3456742405650757" fill="#FFDE75" fill-opacity="0.2852001599891455" />
<circle cx="35.64683798582209" cy="135.32025264394298" r="4.547357151276929" fill="#D2691E" fill-opacity="0.2785517096391038" />
<circle cx="119.13517339797863" cy="68.76348517748974" r="3.83981228071712" fill="#FFFFFF" fill-opacity="0.4311892756968245" />
<circle cx="29.08124891102092" cy="105.44109329520901" r="5.539256597753539" fill="#D2691E" fill-opacity="0.39173088166743175" />
<circle cx="140.6148222882843" cy="160.97186729325549" r="2.1260106741672335" fill="#FFDE75" fill-opacity="0.4291115258730771" />
<circle cx="98.78796760060924" cy="97.19524057432982" r="3.30165445718023" fill="#FFFFFF" fill-opacity="0.5370230360239359" />
<circle cx="115.78232162980773" cy="155.82359468798802" r="3.85662990700566" fill="#FFFFFF" fill-opacity="0.34350710631245307" />
<circle cx="79.38187037123772" cy="120.8533901465425" r="5.78966743923213" fill="#8B4513" fill-opacity="0.35160582581586025" />
<circle cx="158.4423722805946" cy="50.1641702321931" r="5.821531177339005" fill="#FFDE75" fill-opacity="0.29602813992124777" />
<circle cx="151.50655795753886" cy="104.12862169024017" r="4.913338028934755" fill="#FFFFFF" fill-opacity="0.511052803143946" />
<circle cx="81.28335180077708" cy="85.40306607060515" r="2.929708243044394" fill="#FFDE75" fill-opacity="0.20050650335647915" />
<circle cx="139.59305877615085" cy="111.19249224385051" r="5.605675754964064" fill="#FFDE75" fill-opacity="0.29195505415748907" />
<circle cx="111.91049239878896" cy="166.6336017973479" r="2.542862238191455" fill="#8B4513" fill-opacity="0.2610077608144107" />
<circle cx="129.61202517619986" cy="137.93369941821084" r="4.3228726573057585" fill="#FFDE75" fill-opacity="0.460886284696384" />
<circle cx="129.66841359150123" cy="127.32763479682117" r="2.115900301565547" fill="#FFFFFF" fill-opacity="0.22041895757818986" />
<circle cx="75.783630685513" cy="87.22417556673292" r="5.784080066966284" fill="#FFFFFF" fill-opacity="0.38179165308319285" />
<circle cx="139.96808777963344" cy="159.61489587276853" r="5.765083988471275" fill="#FFDE75" fill-opacity="0.35335545893545334" />
<circle cx="39.536516360827875" cy="90.54352679269641" r="4.688539304087934" fill="#8B4513" fill-opacity="0.5478352985565642" />
<circle cx="140.7732761077618" cy="39.85351707127104" r="2.9510689954193396" fill="#FFDE75" fill-opacity="0.5768969685205656" />
<circle cx="137.17298663880644" cy="116.51950355471615" r="3.5950879624807803" fill="#FFDE75" fill-opacity="0.4865228147502853" />
<circle cx="89.03149320462883" cy="142.13694795911232" r="3.811078255603052" fill="#D2691E" fill-opacity="0.36982930049489937" />
<circle cx="143.64513924715962" cy="46.206976584091606" r="5.101721032254794" fill="#FFDE75" fill-opacity="0.5974326699466574" />
<circle cx="161.89870250667246" cy="159.5072626040079" r="2.070659160927877" fill="#8B4513" fill-opacity="0.2725202828523083" />
<circle cx="77.95652267237358" cy="147.4308838380618" r="3.6217804129088798" fill="#FFDE75" fill-opacity="0.35933622769564133" />
<circle cx="85.8879261054613" cy="153.2647056047794" r="4.416008965874637" fill="#FFFFFF" fill-opacity="0.310816052853277" />
<circle cx="71.79170383961416" cy="89.86129444691491" r="5.337883169012615" fill="#8B4513" fill-opacity="0.25636942239728916" />
<circle cx="127.84601700805904" cy="111.81420857832198" r="2.007861758633368" fill="#FFDE75" fill-opacity="0.38367068333936105" />
<circle cx="114.9756171957262" cy="46.13577390056583" r="4.033144378156221" fill="#8B4513" fill-opacity="0.3312582395702802" />
<circle cx="179.29786820711536" cy="93.2208579808284" r="4.965661047334537" fill="#FFDE75" fill-opacity="0.3806764574471697" />
<circle cx="77.3735511808696" cy="64.70469319513077" r="4.151359201182457" fill="#FFDE75" fill-opacity="0.5765442914328864" />
<circle cx="174.3479738079522" cy="146.16006450881738" r="3.01594046061074" fill="#D2691E" fill-opacity="0.2799545753241892" />
<circle cx="142.4122273286123" cy="143.5435942127774" r="5.772507635650149" fill="#D2691E" fill-opacity="0.2737350014013521" />
<circle cx="163.22317799976082" cy="97.35883903899342" r="2.1391127129245855" fill="#FFDE75" fill-opacity="0.3768028428053243" />
<circle cx="45.64827321786256" cy="73.8329542557179" r="4.469307212383298" fill="#D2691E" fill-opacity="0.5317248033053348" />
<ellipse cx="89.35211633362441" cy="133.95883520542824" rx="7.3281527375701225" ry="5.5718461905708665" fill="#FFFDF0" fill-opacity="0.6" />
<ellipse cx="89.32522838587012" cy="134.22452990006923" rx="3.3746714614047755" ry="3.196337406935464" fill="#FFFFFF" fill-opacity="0.85" />
<ellipse cx="130.6426447800355" cy="56.910800525320695" rx="7.2198622811279245" ry="6.077445488710792" fill="#FFFDF0" fill-opacity="0.6" />
<ellipse cx="130.36910897815912" cy="57.22452940738869" rx="2.919106951048726" ry="2.126756134215869" fill="#FFFFFF" fill-opacity="0.85" />
<ellipse cx="71.79814141117825" cy="72.13096257762885" rx="6.473749587897899" ry="8.5102737775611" fill="#FFFDF0" fill-opacity="0.6" />
<ellipse cx="72.55823171812287" cy="72.44181830889347" rx="4.9255478683130525" ry="3.2046890975167353" fill="#FFFFFF" fill-opacity="0.85" />
<ellipse cx="154.72795943432482" cy="60.727516564706875" rx="8.05607362387493" ry="5.558584642182006" fill="#FFFDF0" fill-opacity="0.6" />
<ellipse cx="154.1367334764089" cy="60.49981593464296" rx="2.3582920369415747" ry="2.24153561205007" fill="#FFFFFF" fill-opacity="0.85" />
<ellipse cx="168.9796974284314" cy="150.00342745495306" rx="5.368608302434599" ry="6.376527688711658" fill="#FFFDF0" fill-opacity="0.6" />
<ellipse cx="168.16365557741835" cy="150.2424344156831" rx="4.609574519281333" ry="3.004876416240367" fill="#FFFFFF" fill-opacity="0.85" />
<ellipse cx="52.44024686508403" cy="50.80982548603762" rx="5.341792777010584" ry="7.4131669434593075" fill="#FFFDF0" fill-opacity="0.6" />
<ellipse cx="51.90843619621489" cy="51.5938399912316" rx="2.5182949211741654" ry="3.472126593140117" fill="#FFFFFF" fill-opacity="0.85" />
<ellipse cx="64.04749710242055" cy="130.61478421511495" rx="5.764836710240957" ry="8.767377007900361" fill="#FFFDF0" fill-opacity="0.6" />
<ellipse cx="64.62563388825819" cy="129.72075245394583" rx="3.0079686865128394" ry="2.2660665826059416" fill="#FFFFFF" fill-opacity="0.85" />
<ellipse cx="172.12297790936515" cy="112.89013291254912" rx="7.3526087412566605" ry="7.608135086213687" fill="#FFFDF0" fill-opacity="0.6" />
<ellipse cx="172.35479408328277" cy="113.43076410967666" rx="4.2706287517384185" ry="2.445094020801915" fill="#FFFFFF" fill-opacity="0.85" />
<ellipse cx="118.52751733791926" cy="165.3204119021359" rx="6.365687026304387" ry="6.2817631384036545" fill="#FFFDF0" fill-opacity="0.6" />
<ellipse cx="118.73760123228352" cy="164.38344610183108" rx="2.000121023206785" ry="3.0806829114077887" fill="#FFFFFF" fill-opacity="0.85" />
<ellipse cx="131.78890086063268" cy="176.26934957494447" rx="5.661421818377354" ry="8.324517260639105" fill="#FFFDF0" fill-opacity="0.6" />
<ellipse cx="131.5759070457522" cy="175.3778371016338" rx="3.1233216967678374" ry="2.7653644599513942" fill="#FFFFFF" fill-opacity="0.85" />
<ellipse cx="115.50702801117616" cy="87.4650313051005" rx="5.047446619274875" ry="5.243247929313904" fill="#FFFDF0" fill-opacity="0.6" />
<ellipse cx="116.08789907397369" cy="87.38022409145263" rx="3.7844221949404973" ry="3.784237093308838" fill="#FFFFFF" fill-opacity="0.85" />
<ellipse cx="141.05722191890067" cy="91.21567912172122" rx="5.62052670700941" ry="6.21843793638215" fill="#FFFDF0" fill-opacity="0.6" />
<ellipse cx="140.28288075688837" cy="91.9846066020507" rx="2.9971916468927007" ry="2.487286216239137" fill="#FFFFFF" fill-opacity="0.85" />
</g>
<path d="M105.0,105.0 L205.0,105.0 A100,100,0,0,1,175.71067811865476,175.71067811865476 Z" fill="#F5C754" stroke="lightgray" stroke-width="2" />
<use xlink:href="#clip-4556257312-4567488848" />
<g clip-path="url(#clip-4556257312-4567488848)">
<circle cx="105.0" cy="105.0" r="92" stroke="#DAA05D" stroke-width="16" fill="none" />
<circle cx="105.0" cy="105.0" r="98" stroke="#C37B32" stroke-width="5" fill="none" />
<circle cx="131.32940733813464" cy="76.56457445661198" r="2.32997107513473" fill="#8B4513" fill-opacity="0.44927542561723033" />
<circle cx="124.46564506632316" cy="134.17352014120388" r="2.349749289651532" fill="#D2691E" fill-opacity="0.5222537656527833" />
<circle cx="146.50898116780218" cy="71.92179749722447" r="2.5845217984812425" fill="#D2691E" fill-opacity="0.256465090467612" />
<circle cx="134.112677516371" cy="146.96629489138925" r="3.5945666767894062" fill="#8B4513" fill-opacity="0.356495660778139" />
<circle cx="125.6626513956424" cy="31.460073449855386" r="5.70130874260375" fill="#8B4513" fill-opacity="0.5573977344729965" />
<circle cx="130.28552050334835" cy="34.67802592091188" r="3.2698962635855464" fill="#FFDE75" fill-opacity="0.480702986373204" />
<circle cx="64.06352216474113" cy="115.0810599311974" r="2.6622545463816034" fill="#D2691E" fill-opacity="0.41744675087260696" />
<circle cx="184.74833767781402" cy="113.462392741954" r="3.911231450130184" fill="#FFDE75" fill-opacity="0.4954258079477694" />
<circle cx="161.35734332468115" cy="130.59003558456266" r="3.244164820832403" fill="#FFDE75" fill-opacity="0.39021866263327726" />
<circle cx="48.90728555912446" cy="104.593785294337" r="2.0919908350721728" fill="#8B4513" fill-opacity="0.5754579407608997" />
<circle cx="47.19524649081339" cy="112.29533880365736" r="4.511183806539773" fill="#D2691E" fill-opacity="0.5124220164905393" />
<circle cx="79.46924975136614" cy="102.41162420501328" r="5.633982089412394" fill="#FFFFFF" fill-opacity="0.4245622602607808" />
<circle cx="133.33737542949274" cy="85.31381514947498" r="2.9907244334589325" fill="#D2691E" fill-opacity="0.2857070879124403" />
<circle cx="156.8435700496528" cy="128.24482397497164" r="2.1378284364270836" fill="#FFDE75" fill-opacity="0.5885554710581975" />
<circle cx="48.089808232588375" cy="159.79652565982968" r="4.743861693705803" fill="#D2691E" fill-opacity="0.24435378387886955" />
<circle cx="45.21471987288065" cy="101.7876019296697" r="5.148834423053394" fill="#D2691E" fill-opacity="0.32492894037720516" />
<circle cx="104.2087144422549" cy="33.59149819210212" r="5.942628429385109" fill="#8B4513" fill-opacity="0.38162692651041585" />
<circle cx="184.14635125216824" cy="79.17108913446606" r="5.652455775911505" fill="#D2691E" fill-opacity="0.5952957909066525" />
<circle cx="122.23019742193465" cy="67.98147280926369" r="5.770372605234591" fill="#8B4513" fill-opacity="0.48107344266290203" />
<circle cx="101.17695512379532" cy="55.85696435801752" r="3.7152715729847268" fill="#8B4513" fill-opacity="0.2627748847413469" />
<circle cx="150.39526327819573" cy="116.82636640425305" r="5.211120289668189" fill="#8B4513" fill-opacity="0.5390392858431354" />
<circle cx="120.8379174758431" cy="117.45337550133719" r="4.1328433296027685" fill="#FFDE75" fill-opacity="0.20965851013002662" />
<circle cx="119.15049355995768" cy="87.69812661916293" r="4.700552904056522" fill="#FFDE75" fill-opacity="0.4401259803736588" />
<circle cx="62.280475450375064" cy="118.20864565541146" r="2.5590581709618467" fill="#FFFFFF" fill-opacity="0.4617261752199549" />
<circle cx="120.59059819535142" cy="74.85120763804123" r="4.229452091291488" fill="#D2691E" fill-opacity="0.4321830828565947" />
<circle cx="149.23800253234538" cy="72.43101148975987" r="2.014429425532788" fill="#FFFFFF" fill-opacity="0.3881089536188188" />
<circle cx="127.10438967287413" cy="31.809010441474072" r="3.3456742405650757" fill="#FFDE75" fill-opacity="0.2852001599891455" />
<circle cx="35.64683798582209" cy="135.32025264394298" r="4.547357151276929" fill="#D2691E" fill-opacity="0.2785517096391038" />
<circle cx="119.13517339797863" cy="68.76348517748974" r="3.83981228071712" fill="#FFFFFF" fill-opacity="0.4311892756968245" />
<circle cx="29.08124891102092" cy="105.44109329520901" r="5.539256597753539" fill="#D2691E" fill-opacity="0.39173088166743175" />
<circle cx="140.6148222882843" cy="160.97186729325549" r="2.1260106741672335" fill="#FFDE75" fill-opacity="0.4291115258730771" />
<circle cx="98.78796760060924" cy="97.19524057432982" r="3.30165445718023" fill="#FFFFFF" fill-opacity="0.5370230360239359" />
<circle cx="115.78232162980773" cy="155.82359468798802" r="3.85662990700566" fill="#FFFFFF" fill-opacity="0.34350710631245307" />
<circle cx="79.38187037123772" cy="120.8533901465425" r="5.78966743923213" fill="#8B4513" fill-opacity="0.35160582581586025" />
<circle cx="158.4423722805946" cy="50.1641702321931" r="5.821531177339005" fill="#FFDE75" fill-opacity="0.29602813992124777" />
<circle cx="151.50655795753886" cy="104.12862169024017" r="4.913338028934755" fill="#FFFFFF" fill-opacity="0.511052803143946" />
<circle cx="81.28335180077708" cy="85.40306607060515" r="2.929708243044394" fill="#FFDE75" fill-opacity="0.20050650335647915" />
<circle cx="139.59305877615085" cy="111.19249224385051" r="5.605675754964064" fill="#FFDE75" fill-opacity="0.29195505415748907" />
<circle cx="111.91049239878896" cy="166.6336017973479" r="2.542862238191455" fill="#8B4513" fill-opacity="0.2610077608144107" />
<circle cx="129.61202517619986" cy="137.93369941821084" r="4.3228726573057585" fill="#FFDE75" fill-opacity="0.460886284696384" />
<circle cx="129.66841359150123" cy="127.32763479682117" r="2.115900301565547" fill="#FFFFFF" fill-opacity="0.22041895757818986" />
<circle cx="75.783630685513" cy="87.22417556673292" r="5.784080066966284" fill="#FFFFFF" fill-opacity="0.38179165308319285" />
<circle cx="139.96808777963344" cy="159.61489587276853" r="5.765083988471275" fill="#FFDE75" fill-opacity="0.35335545893545334" />
<circle cx="39.536516360827875" cy="90.54352679269641" r="4.688539304087934" fill="#8B4513" fill-opacity="0.5478352985565642" />
<circle cx="140.7732761077618" cy="39.85351707127104" r="2.9510689954193396" fill="#FFDE75" fill-opacity="0.5768969685205656" />
<circle cx="137.17298663880644" cy="116.51950355471615" r="3.5950879624807803" fill="#FFDE75" fill-opacity="0.4865228147502853" />
<circle cx="89.03149320462883" cy="142.13694795911232" r="3.811078255603052" fill="#D2691E" fill-opacity="0.36982930049489937" />
<circle cx="143.64513924715962" cy="46.206976584091606" r="5.101721032254794" fill="#FFDE75" fill-opacity="0.5974326699466574" />
<circle cx="161.89870250667246" cy="159.5072626040079" r="2.070659160927877" fill="#8B4513" fill-opacity="0.2725202828523083" />
<circle cx="77.95652267237358" cy="147.4308838380618" r="3.6217804129088798" fill="#FFDE75" fill-opacity="0.35933622769564133" />
<circle cx="85.8879261054613" cy="153.2647056047794" r="4.416008965874637" fill="#FFFFFF" fill-opacity="0.310816052853277" />
<circle cx="71.79170383961416" cy="89.86129444691491" r="5.337883169012615" fill="#8B4513" fill-opacity="0.25636942239728916" />
<circle cx="127.84601700805904" cy="111.81420857832198" r="2.007861758633368" fill="#FFDE75" fill-opacity="0.38367068333936105" />
<circle cx="114.9756171957262" cy="46.13577390056583" r="4.033144378156221" fill="#8B4513" fill-opacity="0.3312582395702802" />
<circle cx="179.29786820711536" cy="93.2208579808284" r="4.965661047334537" fill="#FFDE75" fill-opacity="0.3806764574471697" />
<circle cx="77.3735511808696" cy="64.70469319513077" r="4.151359201182457" fill="#FFDE75" fill-opacity="0.5765442914328864" />
<circle cx="174.3479738079522" cy="146.16006450881738" r="3.01594046061074" fill="#D2691E" fill-opacity="0.2799545753241892" />
<circle cx="142.4122273286123" cy="143.5435942127774" r="5.772507635650149" fill="#D2691E" fill-opacity="0.2737350014013521" />
<circle cx="163.22317799976082" cy="97.35883903899342" r="2.1391127129245855" fill="#FFDE75" fill-opacity="0.3768028428053243" />
<circle cx="45.64827321786256" cy="73.8329542557179" r="4.469307212383298" fill="#D2691E" fill-opacity="0.5317248033053348" />
<ellipse cx="89.35211633362441" cy="133.95883520542824" rx="7.3281527375701225" ry="5.5718461905708665" fill="#FFFDF0" fill-opacity="0.6" />
<ellipse cx="89.32522838587012" cy="134.22452990006923" rx="3.3746714614047755" ry="3.196337406935464" fill="#FFFFFF" fill-opacity="0.85" />
<ellipse cx="130.6426447800355" cy="56.910800525320695" rx="7.2198622811279245" ry="6.077445488710792" fill="#FFFDF0" fill-opacity="0.6" />
<ellipse cx="130.36910897815912" cy="57.22452940738869" rx="2.919106951048726" ry="2.126756134215869" fill="#FFFFFF" fill-opacity="0.85" />
<ellipse cx="71.79814141117825" cy="72.13096257762885" rx="6.473749587897899" ry="8.5102737775611" fill="#FFFDF0" fill-opacity="0.6" />
<ellipse cx="72.55823171812287" cy="72.44181830889347" rx="4.9255478683130525" ry="3.2046890975167353" fill="#FFFFFF" fill-opacity="0.85" />
<ellipse cx="154.72795943432482" cy="60.727516564706875" rx="8.05607362387493" ry="5.558584642182006" fill="#FFFDF0" fill-opacity="0.6" />
<ellipse cx="154.1367334764089" cy="60.49981593464296" rx="2.3582920369415747" ry="2.24153561205007" fill="#FFFFFF" fill-opacity="0.85" />
<ellipse cx="168.9796974284314" cy="150.00342745495306" rx="5.368608302434599" ry="6.376527688711658" fill="#FFFDF0" fill-opacity="0.6" />
<ellipse cx="168.16365557741835" cy="150.2424344156831" rx="4.609574519281333" ry="3.004876416240367" fill="#FFFFFF" fill-opacity="0.85" />
<ellipse cx="52.44024686508403" cy="50.80982548603762" rx="5.341792777010584" ry="7.4131669434593075" fill="#FFFDF0" fill-opacity="0.6" />
<ellipse cx="51.90843619621489" cy="51.5938399912316" rx="2.5182949211741654" ry="3.472126593140117" fill="#FFFFFF" fill-opacity="0.85" />
<ellipse cx="64.04749710242055" cy="130.61478421511495" rx="5.764836710240957" ry="8.767377007900361" fill="#FFFDF0" fill-opacity="0.6" />
<ellipse cx="64.62563388825819" cy="129.72075245394583" rx="3.0079686865128394" ry="2.2660665826059416" fill="#FFFFFF" fill-opacity="0.85" />
<ellipse cx="172.12297790936515" cy="112.89013291254912" rx="7.3526087412566605" ry="7.608135086213687" fill="#FFFDF0" fill-opacity="0.6" />
<ellipse cx="172.35479408328277" cy="113.43076410967666" rx="4.2706287517384185" ry="2.445094020801915" fill="#FFFFFF" fill-opacity="0.85" />
<ellipse cx="118.52751733791926" cy="165.3204119021359" rx="6.365687026304387" ry="6.2817631384036545" fill="#FFFDF0" fill-opacity="0.6" />
<ellipse cx="118.73760123228352" cy="164.38344610183108" rx="2.000121023206785" ry="3.0806829114077887" fill="#FFFFFF" fill-opacity="0.85" />
<ellipse cx="131.78890086063268" cy="176.26934957494447" rx="5.661421818377354" ry="8.324517260639105" fill="#FFFDF0" fill-opacity="0.6" />
<ellipse cx="131.5759070457522" cy="175.3778371016338" rx="3.1233216967678374" ry="2.7653644599513942" fill="#FFFFFF" fill-opacity="0.85" />
<ellipse cx="115.50702801117616" cy="87.4650313051005" rx="5.047446619274875" ry="5.243247929313904" fill="#FFFDF0" fill-opacity="0.6" />
<ellipse cx="116.08789907397369" cy="87.38022409145263" rx="3.7844221949404973" ry="3.784237093308838" fill="#FFFFFF" fill-opacity="0.85" />
<ellipse cx="141.05722191890067" cy="91.21567912172122" rx="5.62052670700941" ry="6.21843793638215" fill="#FFFDF0" fill-opacity="0.6" />
<ellipse cx="140.28288075688837" cy="91.9846066020507" rx="2.9971916468927007" ry="2.487286216239137" fill="#FFFFFF" fill-opacity="0.85" />
</g>
<path d="M105.0,105.0 L175.71067811865476,175.71067811865476 A100,100,0,0,1,105.0,205.0 Z" fill="#F5C754" stroke="lightgray" stroke-width="2" />
<use xlink:href="#clip-4556257312-4567299408" />
<g clip-path="url(#clip-4556257312-4567299408)">
<circle cx="105.0" cy="105.0" r="92" stroke="#DAA05D" stroke-width="16" fill="none" />
<circle cx="105.0" cy="105.0" r="98" stroke="#C37B32" stroke-width="5" fill="none" />
<circle cx="131.32940733813464" cy="76.56457445661198" r="2.32997107513473" fill="#8B4513" fill-opacity="0.44927542561723033" />
<circle cx="124.46564506632316" cy="134.17352014120388" r="2.349749289651532" fill="#D2691E" fill-opacity="0.5222537656527833" />
<circle cx="146.50898116780218" cy="71.92179749722447" r="2.5845217984812425" fill="#D2691E" fill-opacity="0.256465090467612" />
<circle cx="134.112677516371" cy="146.96629489138925" r="3.5945666767894062" fill="#8B4513" fill-opacity="0.356495660778139" />
<circle cx="125.6626513956424" cy="31.460073449855386" r="5.70130874260375" fill="#8B4513" fill-opacity="0.5573977344729965" />
<circle cx="130.28552050334835" cy="34.67802592091188" r="3.2698962635855464" fill="#FFDE75" fill-opacity="0.480702986373204" />
<circle cx="64.06352216474113" cy="115.0810599311974" r="2.6622545463816034" fill="#D2691E" fill-opacity="0.41744675087260696" />
<circle cx="184.74833767781402" cy="113.462392741954" r="3.911231450130184" fill="#FFDE75" fill-opacity="0.4954258079477694" />
<circle cx="161.35734332468115" cy="130.59003558456266" r="3.244164820832403" fill="#FFDE75" fill-opacity="0.39021866263327726" />
<circle cx="48.90728555912446" cy="104.593785294337" r="2.0919908350721728" fill="#8B4513" fill-opacity="0.5754579407608997" />
<circle cx="47.19524649081339" cy="112.29533880365736" r="4.511183806539773" fill="#D2691E" fill-opacity="0.5124220164905393" />
<circle cx="79.46924975136614" cy="102.41162420501328" r="5.633982089412394" fill="#FFFFFF" fill-opacity="0.4245622602607808" />
<circle cx="133.33737542949274" cy="85.31381514947498" r="2.9907244334589325" fill="#D2691E" fill-opacity="0.2857070879124403" />
<circle cx="156.8435700496528" cy="128.24482397497164" r="2.1378284364270836" fill="#FFDE75" fill-opacity="0.5885554710581975" />
<circle cx="48.089808232588375" cy="159.79652565982968" r="4.743861693705803" fill="#D2691E" fill-opacity="0.24435378387886955" />
<circle cx="45.21471987288065" cy="101.7876019296697" r="5.148834423053394" fill="#D2691E" fill-opacity="0.32492894037720516" />
<circle cx="104.2087144422549" cy="33.59149819210212" r="5.942628429385109" fill="#8B4513" fill-opacity="0.38162692651041585" />
<circle cx="184.14635125216824" cy="79.17108913446606" r="5.652455775911505" fill="#D2691E" fill-opacity="0.5952957909066525" />
<circle cx="122.23019742193465" cy="67.98147280926369" r="5.770372605234591" fill="#8B4513" fill-opacity="0.48107344266290203" />
<circle cx="101.17695512379532" cy="55.85696435801752" r="3.7152715729847268" fill="#8B4513" fill-opacity="0.2627748847413469" />
<circle cx="150.39526327819573" cy="116.82636640425305" r="5.211120289668189" fill="#8B4513" fill-opacity="0.5390392858431354" />
<circle cx="120.8379174758431" cy="117.45337550133719" r="4.1328433296027685" fill="#FFDE75" fill-opacity="0.20965851013002662" />
<circle cx="119.15049355995768" cy="87.69812661916293" r="4.700552904056522" fill="#FFDE75" fill-opacity="0.4401259803736588" />
<circle cx="62.280475450375064" cy="118.20864565541146" r="2.5590581709618467" fill="#FFFFFF" fill-opacity="0.4617261752199549" />
<circle cx="120.59059819535142" cy="74.85120763804123" r="4.229452091291488" fill="#D2691E" fill-opacity="0.4321830828565947" />
<circle cx="149.23800253234538" cy="72.43101148975987" r="2.014429425532788" fill="#FFFFFF" fill-opacity="0.3881089536188188" />
<circle cx="127.10438967287413" cy="31.809010441474072" r="3.3456742405650757" fill="#FFDE75" fill-opacity="0.2852001599891455" />
<circle cx="35.64683798582209" cy="135.32025264394298" r="4.547357151276929" fill="#D2691E" fill-opacity="0.2785517096391038" />
<circle cx="119.13517339797863" cy="68.76348517748974" r="3.83981228071712" fill="#FFFFFF" fill-opacity="0.4311892756968245" />
<circle cx="29.08124891102092" cy="105.44109329520901" r="5.539256597753539" fill="#D2691E" fill-opacity="0.39173088166743175" />
<circle cx="140.6148222882843" cy="160.97186729325549" r="2.1260106741672335" fill="#FFDE75" fill-opacity="0.4291115258730771" />
<circle cx="98.78796760060924" cy="97.19524057432982" r="3.30165445718023" fill="#FFFFFF" fill-opacity="0.5370230360239359" />
<circle cx="115.78232162980773" cy="155.82359468798802" r="3.85662990700566" fill="#FFFFFF" fill-opacity="0.34350710631245307" />
<circle cx="79.38187037123772" cy="120.8533901465425" r="5.78966743923213" fill="#8B4513" fill-opacity="0.35160582581586025" />
<circle cx="158.4423722805946" cy="50.1641702321931" r="5.821531177339005" fill="#FFDE75" fill-opacity="0.29602813992124777" />
<circle cx="151.50655795753886" cy="104.12862169024017" r="4.913338028934755" fill="#FFFFFF" fill-opacity="0.511052803143946" />
<circle cx="81.28335180077708" cy="85.40306607060515" r="2.929708243044394" fill="#FFDE75" fill-opacity="0.20050650335647915" />
<circle cx="139.59305877615085" cy="111.19249224385051" r="5.605675754964064" fill="#FFDE75" fill-opacity="0.29195505415748907" />
<circle cx="111.91049239878896" cy="166.6336017973479" r="2.542862238191455" fill="#8B4513" fill-opacity="0.2610077608144107" />
<circle cx="129.61202517619986" cy="137.93369941821084" r="4.3228726573057585" fill="#FFDE75" fill-opacity="0.460886284696384" />
<circle cx="129.66841359150123" cy="127.32763479682117" r="2.115900301565547" fill="#FFFFFF" fill-opacity="0.22041895757818986" />
<circle cx="75.783630685513" cy="87.22417556673292" r="5.784080066966284" fill="#FFFFFF" fill-opacity="0.38179165308319285" />
<circle cx="139.96808777963344" cy="159.61489587276853" r="5.765083988471275" fill="#FFDE75" fill-opacity="0.35335545893545334" />
<circle cx="39.536516360827875" cy="90.54352679269641" r="4.688539304087934" fill="#8B4513" fill-opacity="0.5478352985565642" />
<circle cx="140.7732761077618" cy="39.85351707127104" r="2.9510689954193396" fill="#FFDE75" fill-opacity="0.5768969685205656" />
<circle cx="137.17298663880644" cy="116.51950355471615" r="3.5950879624807803" fill="#FFDE75" fill-opacity="0.4865228147502853" />
<circle cx="89.03149320462883" cy="142.13694795911232" r="3.811078255603052" fill="#D2691E" fill-opacity="0.36982930049489937" />
<circle cx="143.64513924715962" cy="46.206976584091606" r="5.101721032254794" fill="#FFDE75" fill-opacity="0.5974326699466574" />
<circle cx="161.89870250667246" cy="159.5072626040079" r="2.070659160927877" fill="#8B4513" fill-opacity="0.2725202828523083" />
<circle cx="77.95652267237358" cy="147.4308838380618" r="3.6217804129088798" fill="#FFDE75" fill-opacity="0.35933622769564133" />
<circle cx="85.8879261054613" cy="153.2647056047794" r="4.416008965874637" fill="#FFFFFF" fill-opacity="0.310816052853277" />
<circle cx="71.79170383961416" cy="89.86129444691491" r="5.337883169012615" fill="#8B4513" fill-opacity="0.25636942239728916" />
<circle cx="127.84601700805904" cy="111.81420857832198" r="2.007861758633368" fill="#FFDE75" fill-opacity="0.38367068333936105" />
<circle cx="114.9756171957262" cy="46.13577390056583" r="4.033144378156221" fill="#8B4513" fill-opacity="0.3312582395702802" />
<circle cx="179.29786820711536" cy="93.2208579808284" r="4.965661047334537" fill="#FFDE75" fill-opacity="0.3806764574471697" />
<circle cx="77.3735511808696" cy="64.70469319513077" r="4.151359201182457" fill="#FFDE75" fill-opacity="0.5765442914328864" />
<circle cx="174.3479738079522" cy="146.16006450881738" r="3.01594046061074" fill="#D2691E" fill-opacity="0.2799545753241892" />
<circle cx="142.4122273286123" cy="143.5435942127774" r="5.772507635650149" fill="#D2691E" fill-opacity="0.2737350014013521" />
<circle cx="163.22317799976082" cy="97.35883903899342" r="2.1391127129245855" fill="#FFDE75" fill-opacity="0.3768028428053243" />
<circle cx="45.64827321786256" cy="73.8329542557179" r="4.469307212383298" fill="#D2691E" fill-opacity="0.5317248033053348" />
<ellipse cx="89.35211633362441" cy="133.95883520542824" rx="7.3281527375701225" ry="5.5718461905708665" fill="#FFFDF0" fill-opacity="0.6" />
<ellipse cx="89.32522838587012" cy="134.22452990006923" rx="3.3746714614047755" ry="3.196337406935464" fill="#FFFFFF" fill-opacity="0.85" />
<ellipse cx="130.6426447800355" cy="56.910800525320695" rx="7.2198622811279245" ry="6.077445488710792" fill="#FFFDF0" fill-opacity="0.6" />
<ellipse cx="130.36910897815912" cy="57.22452940738869" rx="2.919106951048726" ry="2.126756134215869" fill="#FFFFFF" fill-opacity="0.85" />
<ellipse cx="71.79814141117825" cy="72.13096257762885" rx="6.473749587897899" ry="8.5102737775611" fill="#FFFDF0" fill-opacity="0.6" />
<ellipse cx="72.55823171812287" cy="72.44181830889347" rx="4.9255478683130525" ry="3.2046890975167353" fill="#FFFFFF" fill-opacity="0.85" />
<ellipse cx="154.72795943432482" cy="60.727516564706875" rx="8.05607362387493" ry="5.558584642182006" fill="#FFFDF0" fill-opacity="0.6" />
<ellipse cx="154.1367334764089" cy="60.49981593464296" rx="2.3582920369415747" ry="2.24153561205007" fill="#FFFFFF" fill-opacity="0.85" />
<ellipse cx="168.9796974284314" cy="150.00342745495306" rx="5.368608302434599" ry="6.376527688711658" fill="#FFFDF0" fill-opacity="0.6" />
<ellipse cx="168.16365557741835" cy="150.2424344156831" rx="4.609574519281333" ry="3.004876416240367" fill="#FFFFFF" fill-opacity="0.85" />
<ellipse cx="52.44024686508403" cy="50.80982548603762" rx="5.341792777010584" ry="7.4131669434593075" fill="#FFFDF0" fill-opacity="0.6" />
<ellipse cx="51.90843619621489" cy="51.5938399912316" rx="2.5182949211741654" ry="3.472126593140117" fill="#FFFFFF" fill-opacity="0.85" />
<ellipse cx="64.04749710242055" cy="130.61478421511495" rx="5.764836710240957" ry="8.767377007900361" fill="#FFFDF0" fill-opacity="0.6" />
<ellipse cx="64.62563388825819" cy="129.72075245394583" rx="3.0079686865128394" ry="2.2660665826059416" fill="#FFFFFF" fill-opacity="0.85" />
<ellipse cx="172.12297790936515" cy="112.89013291254912" rx="7.3526087412566605" ry="7.608135086213687" fill="#FFFDF0" fill-opacity="0.6" />
<ellipse cx="172.35479408328277" cy="113.43076410967666" rx="4.2706287517384185" ry="2.445094020801915" fill="#FFFFFF" fill-opacity="0.85" />
<ellipse cx="118.52751733791926" cy="165.3204119021359" rx="6.365687026304387" ry="6.2817631384036545" fill="#FFFDF0" fill-opacity="0.6" />
<ellipse cx="118.73760123228352" cy="164.38344610183108" rx="2.000121023206785" ry="3.0806829114077887" fill="#FFFFFF" fill-opacity="0.85" />
<ellipse cx="131.78890086063268" cy="176.26934957494447" rx="5.661421818377354" ry="8.324517260639105" fill="#FFFDF0" fill-opacity="0.6" />
<ellipse cx="131.5759070457522" cy="175.3778371016338" rx="3.1233216967678374" ry="2.7653644599513942" fill="#FFFFFF" fill-opacity="0.85" />
<ellipse cx="115.50702801117616" cy="87.4650313051005" rx="5.047446619274875" ry="5.243247929313904" fill="#FFFDF0" fill-opacity="0.6" />
<ellipse cx="116.08789907397369" cy="87.38022409145263" rx="3.7844221949404973" ry="3.784237093308838" fill="#FFFFFF" fill-opacity="0.85" />
<ellipse cx="141.05722191890067" cy="91.21567912172122" rx="5.62052670700941" ry="6.21843793638215" fill="#FFFDF0" fill-opacity="0.6" />
<ellipse cx="140.28288075688837" cy="91.9846066020507" rx="2.9971916468927007" ry="2.487286216239137" fill="#FFFFFF" fill-opacity="0.85" />
</g>
<rect x="230.0" y="41.0" width="54.0" height="54.0" fill="none" stroke="black" stroke-width="2" />
<rect x="230.0" y="115.0" width="54.0" height="54.0" fill="none" stroke="black" stroke-width="2" />
<path d="M225.0,105.0 L289.0,105.0" stroke="black" stroke-width="2" />
</g>
</svg>