<?xml version="1.0" encoding="UTF-8"?>
<svg xmlns="http://www.w3.org/2000/svg" xmlns:xlink="http://www.w3.org/1999/xlink"
     width="284.0" height="210" viewBox="0 0 284.0 210">
<defs>
<clipPath id="clip-4519507696-4465450960">
<path d="M105.0,105.0 L105.0,5.0 A100,100,0,0,1,205.0,105.0 Z" fill="none" />
</clipPath>
<clipPath id="clip-4519507696-4530525776">
<path d="M105.0,105.0 L205.0,105.0 A100,100,0,0,1,105.0,205.0 Z" fill="none" />
</clipPath>
<clipPath id="clip-4519507696-4530762448">
<path d="M105.0,105.0 L105.0,205.0 A100,100,0,0,1,5.0,105.00000000000001 Z" fill="none" />
</clipPath>
</defs>
<g>
<path d="M105.0,105.0 L105.0,5.0 A100,100,0,0,1,205.0,105.0 Z" fill="none" stroke="lightgray" stroke-width="2" />
<path d="M105.0,105.0 L205.0,105.0 A100,100,0,0,1,105.0,205.0 Z" fill="none" stroke="lightgray" stroke-width="2" />
<path d="M105.0,105.0 L105.0,205.0 A100,100,0,0,1,5.0,105.00000000000001 Z" fill="none" stroke="lightgray" stroke-width="2" />
<path d="M105.0,105.0 L5.0,105.00000000000001 A100,100,0,0,1,104.99999999999999,5.0 Z" fill="none" stroke="lightgray" stroke-width="2" />
<path d="M105.0,105.0 L105.0,5.0 A100,100,0,0,1,205.0,105.0 Z" fill="#F5C754" stroke="lightgray" stroke-width="2" />
<use xlink:href="#clip-4519507696-4465450960" />
<g clip-path="url(#clip-4519507696-4465450960)">
<circle cx="105.0" cy="105.0" r="92" stroke="#DAA05D" stroke-width="16" fill="none" />
<circle cx="105.0" cy="105.0" r="98" stroke="#C37B32" stroke-width="5" fill="none" />
<circle cx="88.46485042118333" cy="66.74496172929841" r="2.1031838188358076" fill="#FFDE75" fill-opacity="0.426591941494917" />
<circle cx="87.95171317734788" cy="168.38731849548896" r="3.967523869404409" fill="#D2691E" fill-opacity="0.31510965741254876" />
<circle cx="90.7483777109255" cy="172.01679852789698" r="4.172069586866879" fill="#D2691E" fill-opacity="0.3368239442274685" />
<circle cx="97.3876828726693" cy="129.85574589210344" r="3.873276182071255" fill="#FFDE75" fill-opacity="0.4901799907350058" />
<circle cx="106.38764286097225" cy="137.04552110287202" r="3.0248639798581265" fill="#8B4513" fill-opacity="0.5551027548057124" />
<circle cx="135.69209702004372" cy="102.51388322974117" r="5.695777744117036" fill="#FFDE75" fill-opacity="0.5285060736323364" />
<circle cx="176.32442436162478" cy="111.81948360012277" r="3.1936751410772524" fill="#D2691E" fill-opacity="0.4181701433812911" />
<circle cx="174.74198021190122" cy="88.10393396837216" r="2.731044855133058" fill="#FFDE75" fill-opacity="0.4144913109291287" />
<circle cx="144.15055609291903" cy="145.83911985160347" r="2.673531839483981" fill="#FFDE75" fill-opacity="0.4880505174112872" />
<circle cx="75.49099547886047" cy="34.80532372454964" r="5.561775967555427" fill="#FFDE75" fill-opacity="0.2743898333249698" />
<circle cx="69.84974704903645" cy="182.07886185527892" r="3.7781758488351795" fill="#FFDE75" fill-opacity="0.5273548175817402" />
<circle cx="53.70148628389122" cy="37.27863867428361" r="4.44825764167695" fill="#FFFFFF" fill-opacity="0.44514304875390054" />
<circle cx="186.44215449987905" cy="90.69912123162487" r="4.071456996510511" fill="#8B4513" fill-opacity="0.2526897897268644" />
<circle cx="120.85731265725003" cy="89.55337293929097" r="3.0304783464394025" fill="#D2691E" fill-opacity="0.25905514593652934" />
<circle cx="132.78629598001436" cy="152.79958002462334" r="5.255553018326879" fill="#FFFFFF" fill-opacity="0.25737605622916726" />
<circle cx="43.62693663899779" cy="82.21329630814787" r="4.0321423488724175" fill="#D2691E" fill-opacity="0.42445948348523505" />
<circle cx="65.42298670295618" cy="83.5748456762108" r="3.1463630551425377" fill="#D2691E" fill-opacity="0.30236548034301625" />
<circle cx="154.8383513644019" cy="117.49006546480263" r="4.416662183891386" fill="#8B4513" fill-opacity="0.5179926710638263" />
<circle cx="77.91447780093412" cy="51.81222633023485" r="2.768584628809947" fill="#FFFFFF" fill-opacity="0.33967697715562245" />
<circle cx="160.01212172768123" cy="69.20215010372226" r="5.843719846220859" fill="#FFDE75" fill-opacity="0.5750486008322577" />
<circle cx="49.28047078626597" cy="90.38447928871699" r="2.2058574042402643" fill="#D2691E" fill-opacity="0.2577523961780123" />
<circle cx="157.71369278916973" cy="94.96918100804902" r="2.756618971018478" fill="#FFDE75" fill-opacity="0.26740823441585493" />
<circle cx="172.06044825722233" cy="94.86254631161233" r="4.270607211795346" fill="#FFFFFF" fill-opacity="0.5463175230967781" />
<circle cx="50.49098865171976" cy="40.58500151338728" r="2.333518425285615" fill="#8B4513" fill-opacity="0.26285121564900743" />
<circle cx="118.95865239249092" cy="49.25933490512714" r="5.283147764965365" fill="#D2691E" fill-opacity="0.4500377898719411" />
<circle cx="134.77820356636164" cy="142.71264330139883" r="3.709102479078163" fill="#FFFFFF" fill-opacity="0.386762415884377" />
<circle cx="72.74076938739708" cy="103.44279200042085" r="2.317838192778952" fill="#D2691E" fill-opacity="0.3871464416629141" />
<circle cx="118.71096672165123" cy="78.22605019390063" r="3.748598230969812" fill="#8B4513" fill-opacity="0.531442553862767" />
<circle cx="141.24023685155606" cy="109.46001820944339" r="5.23803297729488" fill="#D2691E" fill-opacity="0.2916456360090717" />
<circle cx="173.1593396984178" cy="115.67762764724986" r="4.593146562056903" fill="#D2691E" fill-opacity="0.3785215802866604" />
<circle cx="79.48518385335508" cy="180.55289529169755" r="4.783042961358662" fill="#8B4513" fill-opacity="0.28144607326430526" />
<circle cx="126.18623547214384" cy="105.33427268805127" r="5.423356565247411" fill="#D2691E" fill-opacity="0.5541962233664639" />
<circle cx="132.22993249183833" cy="52.382810970627006" r="2.36252117932859" fill="#FFFFFF" fill-opacity="0.4808915378098653" />
<circle cx="94.1200196153961" cy="168.27828222292052" r="2.8300591887673705" fill="#D2691E" fill-opacity="0.5349511195858427" />
<circle cx="74.36515105623096" cy="83.96785496417039" r="5.98284239789367" fill="#8B4513" fill-opacity="0.3684975310010604" />
<circle cx="67.54819641660495" cy="71.70777797030229" r="3.278923983155559" fill="#8B4513" fill-opacity="0.3379301285746896" />
<circle cx="111.30701828509146" cy="165.8801406185862" r="2.290021897825052" fill="#8B4513" fill-opacity="0.5101812398386198" />
<circle cx="100.96432464006104" cy="177.99442522619168" r="2.6346417201023256" fill="#8B4513" fill-opacity="0.3309751321476352" />
<circle cx="84.2516656873171" cy="36.13111593918188" r="2.895321101696111" fill="#8B4513" fill-opacity="0.382172141566247" />
<circle cx="89.19194121161338" cy="69.73239214549315" r="2.985270430324434" fill="#8B4513" fill-opacity="0.421373405057623" />
<circle cx="101.81832673079744" cy="50.18876807855981" r="3.7762627092630816" fill="#D2691E" fill-opacity="0.2525664004475816" />
<circle cx="122.50871106929745" cy="144.3068729590383" r="4.889071192379371" fill="#FFDE75" fill-opacity="0.22217274661422792" />
<circle cx="58.993686782901605" cy="63.64904319497468" r="5.217098365590075" fill="#8B4513" fill-opacity="0.5413248096312161" />
<circle cx="106.45451638228792" cy="107.61848788542521" r="4.095668443768954" fill="#FFFFFF" fill-opacity="0.5780063954624275" />
<circle cx="45.85409690655795" cy="44.440271720076446" r="5.508566730956443" fill="#FFDE75" fill-opacity="0.43205332592118384" />
<circle cx="176.4531303212287" cy="79.9028491205255" r="9.219684682888836" fill="#C92A2A" stroke="#800000" stroke-width="1" />
<circle cx="171.6106033298542" cy="84.71106444639322" r="1.4091566380079206" fill="#FFA07A" fill-opacity="0.7" />
<circle cx="181.2855360863683" cy="83.74682538943736" r="1.3340692897158761" fill="#FFA07A" fill-opacity="0.7" />
<circle cx="180.7966479938914" cy="74.92241320017132" r="0.5261639315290532" fill="#FFA07A" fill-opacity="0.7" />
<circle cx="181.55034433166009" cy="81.5944544818203" r="0.816907521285435" fill="#FFA07A" fill-opacity="0.7" />
<circle cx="173.10843925450538" cy="73.94545364901337" r="0.7976253335136814" fill="#FFA07A" fill-opacity="0.7" />
<circle cx="175.72329853537403" cy="82.75072417244132" r="0.5281068263703017" fill="#FFA07A" fill-opacity="0.7" />
<circle cx="101.73895417093054" cy="125.87668944934701" r="9.577022506746601" fill="#C92A2A" stroke="#800000" stroke-width="1" />
<circle cx="106.56691181695402" cy="128.77070212187792" r="0.5369690744150264" fill="#FFA07A" fill-opacity="0.7" />
<circle cx="101.57630879668042" cy="129.03192032392255" r="1.0793236541008278" fill="#FFA07A" fill-opacity="0.7" />
<circle cx="102.53501972105401" cy="123.47993185381067" r="0.7981250405725522" fill="#FFA07A" fill-opacity="0.7" />
<circle cx="99.72761978208855" cy="123.15045235903573" r="0.9109850096489165" fill="#FFA07A" fill-opacity="0.7" />
<circle cx="96.92481584718851" cy="131.41492709545537" r="0.8930490967585563" fill="#FFA07A" fill-opacity="0.7" />
<circle cx="44.430995232225996" cy="101.56557816841001" r="10.972953938572276" fill="#C92A2A" stroke="#800000" stroke-width="1" />
<circle cx="43.07058541381482" cy="106.82784449251243" r="1.3424124182238892" fill="#FFA07A" fill-opacity="0.7" />
<circle cx="45.161615142804564" cy="101.54326880720862" r="1.2176798136088025" fill="#FFA07A" fill-opacity="0.7" />
<circle cx="47.348743417352765" cy="102.2033452627532" r="1.204767606654841" fill="#FFA07A" fill-opacity="0.7" />
<circle cx="106.40417570088394" cy="144.9349320590902" r="10.937738792068455" fill="#C92A2A" stroke="#800000" stroke-width="1" />
<circle cx="105.6226051688712" cy="148.70002016609536" r="1.262105812801787" fill="#FFA07A" fill-opacity="0.7" />
<circle cx="109.53007223714502" cy="149.42530369322873" r="1.038163003422209" fill="#FFA07A" fill-opacity="0.7" />
<circle cx="104.93864835676459" cy="150.81676834109322" r="0.5161968221139438" fill="#FFA07A" fill-opacity="0.7" />
<circle cx="102.3108792668404" cy="147.59185487969253" r="0.8345614974332417" fill="#FFA07A" fill-opacity="0.7" />
<circle cx="111.45936767058845" cy="145.45140066665607" r="0.9321570933291811" fill="#FFA07A" fill-opacity="0.7" />
<circle cx="49.367384085410436" cy="135.2487278205621" r="10.616562779217512" fill="#C92A2A" stroke="#800000" stroke-width="1" />
<circle cx="53.74753580650387" cy="139.53024803944402" r="0.6147527124323349" fill="#FFA07A" fill-opacity="0.7" />
<circle cx="46.35639631866724" cy="130.03048001909448" r="0.542434205884925" fill="#FFA07A" fill-opacity="0.7" />
<circle cx="44.343031685439925" cy="132.47302083181984" r="1.4866413792504813" fill="#FFA07A" fill-opacity="0.7" />
<circle cx="55.040086535176584" cy="134.6038823415217" r="1.0909577493947975" fill="#FFA07A" fill-opacity="0.7" />
<circle cx="43.99055090110967" cy="133.9987885782649" r="0.8971500452822541" fill="#FFA07A" fill-opacity="0.7" />
<circle cx="43.4445262369047" cy="129.56922344190744" r="1.353245654597604" fill="#FFA07A" fill-opacity="0.7" />
<circle cx="33.51134184713254" cy="125.86990882746413" r="10.667403712515032" fill="#C92A2A" stroke="#800000" stroke-width="1" />
<circle cx="32.6072286813356" cy="125.06006030765593" r="0.6681860806232224" fill="#FFA07A" fill-opacity="0.7" />
<circle cx="33.746160609916714" cy="127.83625804614896" r="0.7699906431150099" fill="#FFA07A" fill-opacity="0.7" />
<circle cx="28.846676552078033" cy="120.3859373324272" r="1.2330857716102108" fill="#FFA07A" fill-opacity="0.7" />
<circle cx="37.355422544587114" cy="128.71371944482007" r="1.4591088933673197" fill="#FFA07A" fill-opacity="0.7" />
<circle cx="37.13930575115205" cy="122.78883888196175" r="0.5275619590409643" fill="#FFA07A" fill-opacity="0.7" />
<circle cx="31.933374322518617" cy="130.32773333606346" r="0.5803299912200632" fill="#FFA07A" fill-opacity="0.7" />
<circle cx="85.55148631576091" cy="69.00994167180953" r="10.371957793390518" fill="#C92A2A" stroke="#800000" stroke-width="1" />
<circle cx="84.3606072690048" cy="66.56974775974386" r="1.0039810738934078" fill="#FFA07A" fill-opacity="0.7" />
<circle cx="86.83008318543139" cy="64.74357080160655" r="1.0667059417021396" fill="#FFA07A" fill-opacity="0.7" />
<circle cx="90.1965074938665" cy="72.12572435212921" r="0.5957460385421852" fill="#FFA07A" fill-opacity="0.7" />
<circle cx="82.29590947332916" cy="71.1093286594493" r="0.7860456265528987" fill="#FFA07A" fill-opacity="0.7" />
<circle cx="86.80709007450409" cy="68.027630848357" r="0.8467420483128875" fill="#FFA07A" fill-opacity="0.7" />
<circle cx="85.1079043717647" cy="66.22810210776596" r="0.5368319150828245" fill="#FFA07A" fill-opacity="0.7" />
<circle cx="87.60612647234339" cy="66.35994258717383" r="1.2136166886489226" fill="#FFA07A" fill-opacity="0.7" />
<circle cx="117.76752944019067" cy="40.45568083821898" r="11.175074534188884" fill="#C92A2A" stroke="#800000" stroke-width="1" />
<circle cx="112.51360323372057" cy="43.053108675550945" r="1.473440528893598" fill="#FFA07A" fill-opacity="0.7" />
<circle cx="117.28374805195597" cy="37.54346559451592" r="1.0590559708743084" fill="#FFA07A" fill-opacity="0.7" />
<circle cx="114.01916842106" cy="43.58415013125743" r="1.2933521842930311" fill="#FFA07A" fill-opacity="0.7" />
<circle cx="115.13311463191619" cy="35.44861046979611" r="1.1126195192061927" fill="#FFA07A" fill-opacity="0.7" />
<circle cx="119.6041688209191" cy="37.80098249043409" r="0.597697138656306" fill="#FFA07A" fill-opacity="0.7" />
<circle cx="112.69576400721579" cy="131.52041909113882" r="9.5123568427775" fill="#C92A2A" stroke="#800000" stroke-width="1" />
<circle cx="109.58650253999109" cy="131.52428746587694" r="0.9844783888977002" fill="#FFA07A" fill-opacity="0.7" />
<circle cx="116.42671151126052" cy="131.115988253796" r="0.5205840968283498" fill="#FFA07A" fill-opacity="0.7" />
<circle cx="116.43102781007345" cy="136.73124942173155" r="1.2197013663292786" fill="#FFA07A" fill-opacity="0.7" />
<circle cx="108.97967415931559" cy="136.485974590659" r="1.055773600468973" fill="#FFA07A" fill-opacity="0.7" />
<circle cx="115.94865129519329" cy="135.4344958170446" r="1.4316665840999834" fill="#FFA07A" fill-opacity="0.7" />
<circle cx="110.84223219282808" cy="129.35501390682867" r="1.245613783996851" fill="#FFA07A" fill-opacity="0.7" />
<circle cx="92.64320417098037" cy="55.735788531585506" r="9.721723765702873" fill="#C92A2A" stroke="#800000" stroke-width="1" />
<circle cx="89.00635011410088" cy="54.82130432981744" r="1.2821216071700072" fill="#FFA07A" fill-opacity="0.7" />
<circle cx="92.96666514943509" cy="51.489527498603806" r="1.172818935074375" fill="#FFA07A" fill-opacity="0.7" />
<circle cx="87.64125026901043" cy="54.09782043738961" r="1.190040071903975" fill="#FFA07A" fill-opacity="0.7" />
<circle cx="94.72714406192443" cy="60.20525655806313" r="1.4371820419669157" fill="#FFA07A" fill-opacity="0.7" />
<circle cx="96.05498715565578" cy="59.81505979996405" r="1.2619879497160267" fill="#FFA07A" fill-opacity="0.7" />
<circle cx="87.12227394963408" cy="53.78391241442609" r="0.940477511334228" fill="#FFA07A" fill-opacity="0.7" />
<circle cx="155.22699502646296" cy="163.11048211973593" r="9.235966188941592" fill="#C92A2A" stroke="#800000" stroke-width="1" />
<circle cx="154.7065190593144" cy="161.62312079696179" r="1.2658892521822445" fill="#FFA07A" fill-opacity="0.7" />
<circle cx="159.44792376357003" cy="162.51562491524544" r="0.6822270601312254" fill="#FFA07A" fill-opacity="0.7" />
<circle cx="153.83128800102347" cy="166.99581728263698" r="1.3618072377893176" fill="#FFA07A" fill-opacity="0.7" />
<circle cx="109.29380501860543" cy="146.8373382154138" r="9.754798763838242" fill="#C92A2A" stroke="#800000" stroke-width="1" />
<circle cx="108.70781709335377" cy="147.7905807026345" r="0.5329106788031356" fill="#FFA07A" fill-opacity="0.7" />
<circle cx="114.5799281415235" cy="147.40690304725433" r="0.9734903447416546" fill="#FFA07A" fill-opacity="0.7" />
<circle cx="109.04504150667931" cy="147.52483058287714" r="0.8282386738901181" fill="#FFA07A" fill-opacity="0.7" />
<circle cx="110.36773104639317" cy="152.836362302344" r="1.0439245143336449" fill="#FFA07A" fill-opacity="0.7" />
</g>
<path d="M105.0,105.0 L205.0,105.0 A100,100,0,0,1,105.0,205.0 Z" fill="#F5C754" stroke="lightgray" stroke-width="2" />
<use xlink:href="#clip-4519507696-4530525776" />
<g clip-path="url(#clip-4519507696-4530525776)">
<circle cx="105.0" cy="105.0" r="92" stroke="#DAA05D" stroke-width="16" fill="none" />
<circle cx="105.0" cy="105.0" r="98" stroke="#C37B32" stroke-width="5" fill="none" />
<circle cx="88.46485042118333" cy="66.74496172929841" r="2.1031838188358076" fill="#FFDE75" fill-opacity="0.426591941494917" />
<circle cx="87.95171317734788" cy="168.38731849548896" r="3.967523869404409" fill="#D2691E" fill-opacity="0.31510965741254876" />
<circle cx="90.7483777109255" cy="172.01679852789698" r="4.172069586866879" fill="#D2691E" fill-opacity="0.3368239442274685" />
<circle cx="97.3876828726693" cy="129.85574589210344" r="3.873276182071255" fill="#FFDE75" fill-opacity="0.4901799907350058" />
<circle cx="106.38764286097225" cy="137.04552110287202" r="3.0248639798581265" fill="#8B4513" fill-opacity="0.5551027548057124" />
<circle cx="135.69209702004372" cy="102.51388322974117" r="5.695777744117036" fill="#FFDE75" fill-opacity="0.5285060736323364" />
<circle cx="176.32442436162478" cy="111.81948360012277" r="3.1936751410772524" fill="#D2691E" fill-opacity="0.4181701433812911" />
<circle cx="174.74198021190122" cy="88.10393396837216" r="2.731044855133058" fill="#FFDE75" fill-opacity="0.4144913109291287" />
<circle cx="144.15055609291903" cy="145.83911985160347" r="2.673531839483981" fill="#FFDE75" fill-opacity="0.4880505174112872" />
<circle cx="75.49099547886047" cy="34.80532372454964" r="5.561775967555427" fill="#FFDE75" fill-opacity="0.2743898333249698" />
<circle cx="69.84974704903645" cy="182.07886185527892" r="3.7781758488351795" fill="#FFDE75" fill-opacity="0.5273548175817402" />
<circle cx="53.70148628389122" cy="37.27863867428361" r="4.44825764167695" fill="#FFFFFF" fill-opacity="0.44514304875390054" />
<circle cx="186.44215449987905" cy="90.69912123162487" r="4.071456996510511" fill="#8B4513" fill-opacity="0.2526897897268644" />
<circle cx="120.85731265725003" cy="89.55337293929097" r="3.0304783464394025" fill="#D2691E" fill-opacity="0.25905514593652934" />
<circle cx="132.78629598001436" cy="152.79958002462334" r="5.255553018326879" fill="#FFFFFF" fill-opacity="0.25737605622916726" />
<circle cx="43.62693663899779" cy="82.21329630814787" r="4.0321423488724175" fill="#D2691E" fill-opacity="0.42445948348523505" />
<circle cx="65.42298670295618" cy="83.5748456762108" r="3.1463630551425377" fill="#D2691E" fill-opacity="0.30236548034301625" />
<circle cx="154.8383513644019" cy="117.49006546480263" r="4.416662183891386" fill="#8B4513" fill-opacity="0.5179926710638263" />
<circle cx="77.91447780093412" cy="51.81222633023485" r="2.768584628809947" fill="#FFFFFF" fill-opacity="0.33967697715562245" />
<circle cx="160.01212172768123" cy="69.20215010372226" r="5.843719846220859" fill="#FFDE75" fill-opacity="0.5750486008322577" />
<circle cx="49.28047078626597" cy="90.38447928871699" r="2.2058574042402643" fill="#D2691E" fill-opacity="0.2577523961780123" />
<circle cx="157.71369278916973" cy="94.96918100804902" r="2.756618971018478" fill="#FFDE75" fill-opacity="0.26740823441585493" />
<circle cx="172.06044825722233" cy="94.86254631161233" r="4.270607211795346" fill="#FFFFFF" fill-opacity="0.5463175230967781" />
<circle cx="50.49098865171976" cy="40.58500151338728" r="2.333518425285615" fill="#8B4513" fill-opacity="0.26285121564900743" />
<circle cx="118.95865239249092" cy="49.25933490512714" r="5.283147764965365" fill="#D2691E" fill-opacity="0.4500377898719411" />
<circle cx="134.77820356636164" cy="142.71264330139883" r="3.709102479078163" fill="#FFFFFF" fill-opacity="0.386762415884377" />
<circle cx="72.74076938739708" cy="103.44279200042085" r="2.317838192778952" fill="#D2691E" fill-opacity="0.3871464416629141" />
<circle cx="118.71096672165123" cy="78.22605019390063" r="3.748598230969812" fill="#8B4513" fill-opacity="0.531442553862767" />
<circle cx="141.24023685155606" cy="109.46001820944339" r="5.23803297729488" fill="#D2691E" fill-opacity="0.2916456360090717" />
<circle cx="173.1593396984178" cy="115.67762764724986" r="4.593146562056903" fill="#D2691E" fill-opacity="0.3785215802866604" />
<circle cx="79.48518385335508" cy="180.55289529169755" r="4.783042961358662" fill="#8B4513" fill-opacity="0.28144607326430526" />
<circle cx="126.18623547214384" cy="105.33427268805127" r="5.423356565247411" fill="#D2691E" fill-opacity="0.5541962233664639" />
<circle cx="132.22993249183833" cy="52.382810970627006" r="2.36252117932859" fill="#FFFFFF" fill-opacity="0.4808915378098653" />
<circle cx="94.1200196153961" cy="168.27828222292052" r="2.8300591887673705" fill="#D2691E" fill-opacity="0.5349511195858427" />
<circle cx="74.36515105623096" cy="83.96785496417039" r="5.98284239789367" fill="#8B4513" fill-opacity="0.3684975310010604" />
<circle cx="67.54819641660495" cy="71.70777797030229" r="3.278923983155559" fill="#8B4513" fill-opacity="0.3379301285746896" />
<circle cx="111.30701828509146" cy="165.8801406185862" r="2.290021897825052" fill="#8B4513" fill-opacity="0.5101812398386198" />
<circle cx="100.96432464006104" cy="177.99442522619168" r="2.6346417201023256" fill="#8B4513" fill-opacity="0.3309751321476352" />
<circle cx="84.2516656873171" cy="36.13111593918188" r="2.895321101696111" fill="#8B4513" fill-opacity="0.382172141566247" />
<circle cx="89.19194121161338" cy="69.73239214549315" r="2.985270430324434" fill="#8B4513" fill-opacity="0.421373405057623" />
<circle cx="101.81832673079744" cy="50.18876807855981" r="3.7762627092630816" fill="#D2691E" fill-opacity="0.2525664004475816" />
<circle cx="122.50871106929745" cy="144.3068729590383" r="4.889071192379371" fill="#FFDE75" fill-opacity="0.22217274661422792" />
<circle cx="58.993686782901605" cy="63.64904319497468" r="5.217098365590075" fill="#8B4513" fill-opacity="0.5413248096312161" />
<circle cx="106.45451638228792" cy="107.61848788542521" r="4.095668443768954" fill="#FFFFFF" fill-opacity="0.5780063954624275" />
<circle cx="45.85409690655795" cy="44.440271720076446" r="5.508566730956443" fill="#FFDE75" fill-opacity="0.43205332592118384" />
<circle cx="176.4531303212287" cy="79.9028491205255" r="9.219684682888836" fill="#C92A2A" stroke="#800000" stroke-width="1" />
<circle cx="171.6106033298542" cy="84.71106444639322" r="1.4091566380079206" fill="#FFA07A" fill-opacity="0.7" />
<circle cx="181.2855360863683" cy="83.74682538943736" r="1.3340692897158761" fill="#FFA07A" fill-opacity="0.7" />
<circle cx="180.7966479938914" cy="74.92241320017132" r="0.5261639315290532" fill="#FFA07A" fill-opacity="0.7" />
<circle cx="181.55034433166009" cy="81.5944544818203" r="0.816907521285435" fill="#FFA07A" fill-opacity="0.7" />
<circle cx="173.10843925450538" cy="73.94545364901337" r="0.7976253335136814" fill="#FFA07A" fill-opacity="0.7" />
<circle cx="175.72329853537403" cy="82.75072417244132" r="0.5281068263703017" fill="#FFA07A" fill-opacity="0.7" />
<circle cx="101.73895417093054" cy="125.87668944934701" r="9.577022506746601" fill="#C92A2A" stroke="#800000" stroke-width="1" />
<circle cx="106.56691181695402" cy="128.77070212187792" r="0.5369690744150264" fill="#FFA07A" fill-opacity="0.7" />
<circle cx="101.57630879668042" cy="129.03192032392255" r="1.0793236541008278" fill="#FFA07A" fill-opacity="0.7" />
<circle cx="102.53501972105401" cy="123.47993185381067" r="0.7981250405725522" fill="#FFA07A" fill-opacity="0.7" />
<circle cx="99.72761978208855" cy="123.15045235903573" r="0.9109850096489165" fill="#FFA07A" fill-opacity="0.7" />
<circle cx="96.92481584718851" cy="131.41492709545537" r="0.8930490967585563" fill="#FFA07A" fill-opacity="0.7" />
<circle cx="44.430995232225996" cy="101.56557816841001" r="10.972953938572276" fill="#C92A2A" stroke="#800000" stroke-width="1" />
<circle cx="43.07058541381482" cy="106.82784449251243" r="1.3424124182238892" fill="#FFA07A" fill-opacity="0.7" />
<circle cx="45.161615142804564" cy="101.54326880720862" r="1.2176798136088025" fill="#FFA07A" fill-opacity="0.7" />
<circle cx="47.348743417352765" cy="102.2033452627532" r="1.204767606654841" fill="#FFA07A" fill-opacity="0.7" />
<circle cx="106.40417570088394" cy="144.9349320590902" r="10.937738792068455" fill="#C92A2A" stroke="#800000" stroke-width="1" />
<circle cx="105.6226051688712" cy="148.70002016609536" r="1.262105812801787" fill="#FFA07A" fill-opacity="0.7" />
<circle cx="109.53007223714502" cy="149.42530369322873" r="1.038163003422209" fill="#FFA07A" fill-opacity="0.7" />
<circle cx="104.93864835676459" cy="150.81676834109322" r="0.5161968221139438" fill="#FFA07A" fill-opacity="0.7" />
<circle cx="102.3108792668404" cy="147.59185487969253" r="0.8345614974332417" fill="#FFA07A" fill-opacity="0.7" />
<circle cx="111.45936767058845" cy="145.45140066665607" r="0.9321570933291811" fill="#FFA07A" fill-opacity="0.7" />
<circle cx="49.367384085410436" cy="135.2487278205621" r="10.616562779217512" fill="#C92A2A" stroke="#800000" stroke-width="1" />
<circle cx="53.74753580650387" cy="139.53024803944402" r="0.6147527124323349" fill="#FFA07A" fill-opacity="0.7" />
<circle cx="46.35639631866724" cy="130.03048001909448" r="0.542434205884925" fill="#FFA07A" fill-opacity="0.7" />
<circle cx="44.343031685439925" cy="132.47302083181984" r="1.4866413792504813" fill="#FFA07A" fill-opacity="0.7" />
<circle cx="55.040086535176584" cy="134.6038823415217" r="1.0909577493947975" fill="#FFA07A" fill-opacity="0.7" />
<circle cx="43.99055090110967" cy="133.9987885782649" r="0.8971500452822541" fill="#FFA07A" fill-opacity="0.7" />
<circle cx="43.4445262369047" cy="129.56922344190744" r="1.353245654597604" fill="#FFA07A" fill-opacity="0.7" />
<circle cx="33.51134184713254" cy="125.86990882746413" r="10.667403712515032" fill="#C92A2A" stroke="#800000" stroke-width="1" />
<circle cx="32.6072286813356" cy="125.06006030765593" r="0.6681860806232224" fill="#FFA07A" fill-opacity="0.7" />
<circle cx="33.746160609916714" cy="127.83625804614896" r="0.7699906431150099" fill="#FFA07A" fill-opacity="0.7" />
<circle cx="28.846676552078033" cy="120.3859373324272" r="1.2330857716102108" fill="#FFA07A" fill-opacity="0.7" />
<circle cx="37.355422544587114" cy="128.71371944482007" r="1.4591088933673197" fill="#FFA07A" fill-opacity="0.7" />
<circle cx="37.13930575115205" cy="122.78883888196175" r="0.5275619590409643" fill="#FFA07A" fill-opacity="0.7" />
<circle cx="31.933374322518617" cy="130.32773333606346" r="0.5803299912200632" fill="#FFA07A" fill-opacity="0.7" />
<circle cx="85.55148631576091" cy="69.00994167180953" r="10.371957793390518" fill="#C92A2A" stroke="#800000" stroke-width="1" />
<circle cx="84.3606072690048" cy="66.56974775974386" r="1.0039810738934078" fill="#FFA07A" fill-opacity="0.7" />
<circle cx="86.83008318543139" cy="64.74357080160655" r="1.0667059417021396" fill="#FFA07A" fill-opacity="0.7" />
<circle cx="90.1965074938665" cy="72.12572435212921" r="0.5957460385421852" fill="#FFA07A" fill-opacity="0.7" />
<circle cx="82.29590947332916" cy="71.1093286594493" r="0.7860456265528987" fill="#FFA07A" fill-opacity="0.7" />
<circle cx="86.80709007450409" cy="68.027630848357" r="0.8467420483128875" fill="#FFA07A" fill-opacity="0.7" />
<circle cx="85.1079043717647" cy="66.22810210776596" r="0.5368319150828245" fill="#FFA07A" fill-opacity="0.7" />
<circle cx="87.60612647234339" cy="66.35994258717383" r="1.2136166886489226" fill="#FFA07A" fill-opacity="0.7" />
<circle cx="117.76752944019067" cy="40.45568083821898" r="11.175074534188884" fill="#C92A2A" stroke="#800000" stroke-width="1" />
<circle cx="112.51360323372057" cy="43.053108675550945" r="1.473440528893598" fill="#FFA07A" fill-opacity="0.7" />
<circle cx="117.28374805195597" cy="37.54346559451592" r="1.0590559708743084" fill="#FFA07A" fill-opacity="0.7" />
<circle cx="114.01916842106" cy="43.58415013125743" r="1.2933521842930311" fill="#FFA07A" fill-opacity="0.7" />
<circle cx="115.13311463191619" cy="35.44861046979611" r="1.1126195192061927" fill="#FFA07A" fill-opacity="0.7" />
<circle cx="119.6041688209191" cy="37.80098249043409" r="0.597697138656306" fill="#FFA07A" fill-opacity="0.7" />
<circle cx="112.69576400721579" cy="131.52041909113882" r="9.5123568427775" fill="#C92A2A" stroke="#800000" stroke-width="1" />
<circle cx="109.58650253999109" cy="131.52428746587694" r="0.9844783888977002" fill="#FFA07A" fill-opacity="0.7" />
<circle cx="116.42671151126052" cy="131.115988253796" r="0.5205840968283498" fill="#FFA07A" fill-opacity="0.7" />
<circle cx="116.43102781007345" cy="136.73124942173155" r="1.2197013663292786" fill="#FFA07A" fill-opacity="0.7" />
<circle cx="108.97967415931559" cy="136.485974590659" r="1.055773600468973" fill="#FFA07A" fill-opacity="0.7" />
<circle cx="115.94865129519329" cy="135.4344958170446" r="1.4316665840999834" fill="#FFA07A" fill-opacity="0.7" />
<circle cx="110.84223219282808" cy="129.35501390682867" r="1.245613783996851" fill="#FFA07A" fill-opacity="0.7" />
<circle cx="92.64320417098037" cy="55.735788531585506" r="9.721723765702873" fill="#C92A2A" stroke="#800000" stroke-width="1" />
<circle cx="89.00635011410088" cy="54.82130432981744" r="1.2821216071700072" fill="#FFA07A" fill-opacity="0.7" />
<circle cx="92.96666514943509" cy="51.489527498603806" r="1.172818935074375" fill="#FFA07A" fill-opacity="0.7" />
<circle cx="87.64125026901043" cy="54.09782043738961" r="1.190040071903975" fill="#FFA07A" fill-opacity="0.7" />
<circle cx="94.72714406192443" cy="60.20525655806313" r="1.4371820419669157" fill="#FFA07A" fill-opacity="0.7" />
<circle cx="96.05498715565578" cy="59.81505979996405" r="1.2619879497160267" fill="#FFA07A" fill-opacity="0.7" />
<circle cx="87.12227394963408" cy="53.78391241442609" r="0.940477511334228" fill="#FFA07A" fill-opacity="0.7" />
<circle cx="155.22699502646296" cy="163.11048211973593" r="9.235966188941592" fill="#C92A2A" stroke="#800000" stroke-width="1" />
<circle cx="154.7065190593144" cy="161.62312079696179" r="1.2658892521822445" fill="#FFA07A" fill-opacity="0.7" />
<circle cx="159.44792376357003" cy="162.51562491524544" r="0.6822270601312254" fill="#FFA07A" fill-opacity="0.7" />
<circle cx="153.83128800102347" cy="166.99581728263698" r="1.3618072377893176" fill="#FFA07A" fill-opacity="0.7" />
<circle cx="109.29380501860543" cy="146.8373382154138" r="9.754798763838242" fill="#C92A2A" stroke="#800000" stroke-width="1" />
<circle cx="108.70781709335377" cy="147.7905807026345" r="0.5329106788031356" fill="#FFA07A" fill-opacity="0.7" />
<circle cx="114.5799281415235" cy="147.40690304725433" r="0.9734903447416546" fill="#FFA07A" fill-opacity="0.7" />
<circle cx="109.04504150667931" cy="147.52483058287714" r="0.8282386738901181" fill="#FFA07A" fill-opacity="0.7" />
<circle cx="110.36773104639317" cy="152.836362302344" r="1.0439245143336449" fill="#FFA07A" fill-opacity="0.7" />
</g>
<path d="M105.0,105.0 L105.0,205.0 A100,100,0,0,1,5.0,105.00000000000001 Z" fill="#F5C754" stroke="lightgray" stroke-width="2" />
<use xlink:href="#clip-4519507696-4530762448" />
<g clip-path="url(#clip-4519507696-4530762448)">
<circle cx="105.0" cy="105.0" r="92" stroke="#DAA05D" stroke-width="16" fill="none" />
<circle cx="105.0" cy="105.0" r="98" stroke="#C37B32" stroke-width="5" fill="none" />
<circle cx="88.46485042118333" cy="66.74496172929841" r="2.1031838188358076" fill="#FFDE75" fill-opacity="0.426591941494917" />
<circle cx="87.95171317734788" cy="168.38731849548896" r="3.967523869404409" fill="#D2691E" fill-opacity="0.31510965741254876" />
<circle cx="90.7483777109255" cy="172.01679852789698" r="4.172069586866879" fill="#D2691E" fill-opacity="0.3368239442274685" />
<circle cx="97.3876828726693" cy="129.85574589210344" r="3.873276182071255" fill="#FFDE75" fill-opacity="0.4901799907350058" />
<circle cx="106.38764286097225" cy="137.04552110287202" r="3.0248639798581265" fill="#8B4513" fill-opacity="0.5551027548057124" />
<circle cx="135.69209702004372" cy="102.51388322974117" r="5.695777744117036" fill="#FFDE75" fill-opacity="0.5285060736323364" />
<circle cx="176.32442436162478" cy="111.81948360012277" r="3.1936751410772524" fill="#D2691E" fill-opacity="0.4181701433812911" />
<circle cx="174.74198021190122" cy="88.10393396837216" r="2.731044855133058" fill="#FFDE75" fill-opacity="0.4144913109291287" />
<circle cx="144.15055609291903" cy="145.83911985160347" r="2.673531839483981" fill="#FFDE75" fill-opacity="0.4880505174112872" />
<circle cx="75.49099547886047" cy="34.80532372454964" r="5.561775967555427" fill="#FFDE75" fill-opacity="0.2743898333249698" />
<circle cx="69.84974704903645" cy="182.07886185527892" r="3.7781758488351795" fill="#FFDE75" fill-opacity="0.5273548175817402" />
<circle cx="53.70148628389122" cy="37.27863867428361" r="4.44825764167695" fill="#FFFFFF" fill-opacity="0.44514304875390054" />
<circle cx="186.44215449987905" cy="90.69912123162487" r="4.071456996510511" fill="#8B4513" fill-opacity="0.2526897897268644" />
<circle cx="120.85731265725003" cy="89.55337293929097" r="3.0304783464394025" fill="#D2691E" fill-opacity="0.25905514593652934" />
<circle cx="132.78629598001436" cy="152.79958002462334" r="5.255553018326879" fill="#FFFFFF" fill-opacity="0.25737605622916726" />
<circle cx="43.62693663899779" cy="82.21329630814787" r="4.0321423488724175" fill="#D2691E" fill-opacity="0.42445948348523505" />
<circle cx="65.42298670295618" cy="83.5748456762108" r="3.1463630551425377" fill="#D2691E" fill-opacity="0.30236548034301625" />
<circle cx="154.8383513644019" cy="117.49006546480263" r="4.416662183891386" fill="#8B4513" fill-opacity="0.5179926710638263" />
<circle cx="77.91447780093412" cy="51.81222633023485" r="2.768584628809947" fill="#FFFFFF" fill-opacity="0.33967697715562245" />
<circle cx="160.01212172768123" cy="69.20215010372226" r="5.843719846220859" fill="#FFDE75" fill-opacity="0.5750486008322577" />
<circle cx="49.28047078626597" cy="90.38447928871699" r="2.2058574042402643" fill="#D2691E" fill-opacity="0.2577523961780123" />
<circle cx="157.71369278916973" cy="94.96918100804902" r="2.756618971018478" fill="#FFDE75" fill-opacity="0.26740823441585493" />
<circle cx="172.06044825722233" cy="94.86254631161233" r="4.270607211795346" fill="#FFFFFF" fill-opacity="0.5463175230967781" />
<circle cx="50.49098865171976" cy="40.58500151338728" r="2.333518425285615" fill="#8B4513" fill-opacity="0.26285121564900743" />
<circle cx="118.95865239249092" cy="49.25933490512714" r="5.283147764965365" fill="#D2691E" fill-opacity="0.4500377898719411" />
<circle cx="134.77820356636164" cy="142.71264330139883" r="3.709102479078163" fill="#FFFFFF" fill-opacity="0.386762415884377" />
<circle cx="72.74076938739708" cy="103.44279200042085" r="2.317838192778952" fill="#D2691E" fill-opacity="0.3871464416629141" />
<circle cx="118.71096672165123" cy="78.22605019390063" r="3.748598230969812" fill="#8B4513" fill-opacity="0.531442553862767" />
<circle cx="141.24023685155606" cy="109.46001820944339" r="5.23803297729488" fill="#D2691E" fill-opacity="0.2916456360090717" />
<circle cx="173.1593396984178" cy="115.67762764724986" r="4.593146562056903" fill="#D2691E" fill-opacity="0.3785215802866604" />
<circle cx="79.48518385335508" cy="180.55289529169755" r="4.783042961358662" fill="#8B4513" fill-opacity="0.28144607326430526" />
<circle cx="126.18623547214384" cy="105.33427268805127" r="5.423356565247411" fill="#D2691E" fill-opacity="0.5541962233664639" />
<circle cx="132.22993249183833" cy="52.382810970627006" r="2.36252117932859" fill="#FFFFFF" fill-opacity="0.4808915378098653" />
<circle cx="94.1200196153961" cy="168.27828222292052" r="2.8300591887673705" fill="#D2691E" fill-opacity="0.5349511195858427" />
<circle cx="74.36515105623096" cy="83.96785496417039" r="5.98284239789367" fill="#8B4513" fill-opacity="0.3684975310010604" />
<circle cx="67.54819641660495" cy="71.70777797030229" r="3.278923983155559" fill="#8B4513" fill-opacity="0.3379301285746896" />
<circle cx="111.30701828509146" cy="165.8801406185862" r="2.290021897825052" fill="#8B4513" fill-opacity="0.5101812398386198" />
<circle cx="100.96432464006104" cy="177.99442522619168" r="2.6346417201023256" fill="#8B4513" fill-opacity="0.3309751321476352" />
<circle cx="84.2516656873171" cy="36.13111593918188" r="2.895321101696111" fill="#8B4513" fill-opacity="0.382172141566247" />
<circle cx="89.19194121161338" cy="69.73239214549315" r="2.985270430324434" fill="#8B4513" fill-opacity="0.421373405057623" />
<circle cx="101.81832673079744" cy="50.18876807855981" r="3.7762627092630816" fill="#D2691E" fill-opacity="0.2525664004475816" />
<circle cx="122.50871106929745" cy="144.3068729590383" r="4.889071192379371" fill="#FFDE75" fill-opacity="0.22217274661422792" />
<circle cx="58.993686782901605" cy="63.64904319497468" r="5.217098365590075" fill="#8B4513" fill-opacity="0.5413248096312161" />
<circle cx="106.45451638228792" cy="107.61848788542521" r="4.095668443768954" fill="#FFFFFF" fill-opacity="0.5780063954624275" />
<circle cx="45.85409690655795" cy="44.440271720076446" r="5.508566730956443" fill="#FFDE75" fill-opacity="0.43205332592118384" />
<circle cx="176.4531303212287" cy="79.9028491205255" r="9.219684682888836" fill="#C92A2A" stroke="#800000" stroke-width="1" />
<circle cx="171.6106033298542" cy="84.71106444639322" r="1.4091566380079206" fill="#FFA07A" fill-opacity="0.7" />
<circle cx="181.2855360863683" cy="83.74682538943736" r="1.3340692897158761" fill="#FFA07A" fill-opacity="0.7" />
<circle cx="180.7966479938914" cy="74.92241320017132" r="0.5261639315290532" fill="#FFA07A" fill-opacity="0.7" />
<circle cx="181.55034433166009" cy="81.5944544818203" r="0.816907521285435" fill="#FFA07A" fill-opacity="0.7" />
<circle cx="173.10843925450538" cy="73.94545364901337" r="0.7976253335136814" fill="#FFA07A" fill-opacity="0.7" />
<circle cx="175.72329853537403" cy="82.75072417244132" r="0.5281068263703017" fill="#FFA07A" fill-opacity="0.7" />
<circle cx="101.73895417093054" cy="125.87668944934701" r="9.577022506746601" fill="#C92A2A" stroke="#800000" stroke-width="1" />
<circle cx="106.56691181695402" cy="128.77070212187792" r="0.5369690744150264" fill="#FFA07A" fill-opacity="0.7" />
<circle cx="101.57630879668042" cy="129.03192032392255" r="1.0793236541008278" fill="#FFA07A" fill-opacity="0.7" />
<circle cx="102.53501972105401" cy="123.47993185381067" r="0.7981250405725522" fill="#FFA07A" fill-opacity="0.7" />
<circle cx="99.72761978208855" cy="123.15045235903573" r="0.9109850096489165" fill="#FFA07A" fill-opacity="0.7" />
<circle cx="96.92481584718851" cy="131.41492709545537" r="0.8930490967585563" fill="#FFA07A" fill-opacity="0.7" />
<circle cx="44.430995232225996" cy="101.56557816841001" r="10.972953938572276" fill="#C92A2A" stroke="#800000" stroke-width="1" />
<circle cx="43.07058541381482" cy="106.82784449251243" r="1.3424124182238892" fill="#FFA07A" fill-opacity="0.7" />
<circle cx="45.161615142804564" cy="101.54326880720862" r="1.2176798136088025" fill="#FFA07A" fill-opacity="0.7" />
<circle cx="47.348743417352765" cy="102.2033452627532" r="1.204767606654841" fill="#FFA07A" fill-opacity="0.7" />
<circle cx="106.40417570088394" cy="144.9349320590902" r="10.937738792068455" fill="#C92A2A" stroke="#800000" stroke-width="1" />
<circle cx="105.6226051688712" cy="148.70002016609536" r="1.262105812801787" fill="#FFA07A" fill-opacity="0.7" />
<circle cx="109.53007223714502" cy="149.42530369322873" r="1.038163003422209" fill="#FFA07A" fill-opacity="0.7" />
<circle cx="104.93864835676459" cy="150.81676834109322" r="0.5161968221139438" fill="#FFA07A" fill-opacity="0.7" />
<circle cx="102.3108792668404" cy="147.59185487969253" r="0.8345614974332417" fill="#FFA07A" fill-opacity="0.7" />
<circle cx="111.45936767058845" cy="145.45140066665607" r="0.9321570933291811" fill="#FFA07A" fill-opacity="0.7" />
<circle cx="49.367384085410436" cy="135.2487278205621" r="10.616562779217512" fill="#C92A2A" stroke="#800000" stroke-width="1" />
<circle cx="53.74753580650387" cy="139.53024803944402" r="0.6147527124323349" fill="#FFA07A" fill-opacity="0.7" />
<circle cx="46.35639631866724" cy="130.03048001909448" r="0.542434205884925" fill="#FFA07A" fill-opacity="0.7" />
<circle cx="44.343031685439925" cy="132.47302083181984" r="1.4866413792504813" fill="#FFA07A" fill-opacity="0.7" />
<circle cx="55.040086535176584" cy="134.6038823415217" r="1.0909577493947975" fill="#FFA07A" fill-opacity="0.7" />
<circle cx="43.99055090110967" cy="133.9987885782649" r="0.8971500452822541" fill="#FFA07A" fill-opacity="0.7" />
<circle cx="43.4445262369047" cy="129.56922344190744" r="1.353245654597604" fill="#FFA07A" fill-opacity="0.7" />
<circle cx="33.51134184713254" cy="125.86990882746413" r="10.667403712515032" fill="#C92A2A" stroke="#800000" stroke-width="1" />
<circle cx="32.6072286813356" cy="125.06006030765593" r="0.6681860806232224" fill="#FFA07A" fill-opacity="0.7" />
<circle cx="33.746160609916714" cy="127.83625804614896" r="0.7699906431150099" fill="#FFA07A" fill-opacity="0.7" />
<circle cx="28.846676552078033" cy="120.3859373324272" r="1.2330857716102108" fill="#FFA07A" fill-opacity="0.7" />
<circle cx="37.355422544587114" cy="128.71371944482007" r="1.4591088933673197" fill="#FFA07A" fill-opacity="0.7" />
<circle cx="37.13930575115205" cy="122.78883888196175" r="0.5275619590409643" fill="#FFA07A" fill-opacity="0.7" />
<circle cx="31.933374322518617" cy="130.32773333606346" r="0.5803299912200632" fill="#FFA07A" fill-opacity="0.7" />
<circle cx="85.55148631576091" cy="69.00994167180953" r="10.371957793390518" fill="#C92A2A" stroke="#800000" stroke-width="1" />
<circle cx="84.3606072690048" cy="66.56974775974386" r="1.0039810738934078" fill="#FFA07A" fill-opacity="0.7" />
<circle cx="86.83008318543139" cy="64.74357080160655" r="1.0667059417021396" fill="#FFA07A" fill-opacity="0.7" />
<circle cx="90.1965074938665" cy="72.12572435212921" r="0.5957460385421852" fill="#FFA07A" fill-opacity="0.7" />
<circle cx="82.29590947332916" cy="71.1093286594493" r="0.7860456265528987" fill="#FFA07A" fill-opacity="0.7" />
<circle cx="86.80709007450409" cy="68.027630848357" r="0.8467420483128875" fill="#FFA07A" fill-opacity="0.7" />
<circle cx="85.1079043717647" cy="66.22810210776596" r="0.5368319150828245" fill="#FFA07A" fill-opacity="0.7" />
<circle cx="87.60612647234339" cy="66.35994258717383" r="1.2136166886489226" fill="#FFA07A" fill-opacity="0.7" />
<circle cx="117.76752944019067" cy="40.45568083821898" r="11.175074534188884" fill="#C92A2A" stroke="#800000" stroke-width="1" />
<circle cx="112.51360323372057" cy="43.053108675550945" r="1.473440528893598" fill="#FFA07A" fill-opacity="0.7" />
<circle cx="117.28374805195597" cy="37.54346559451592" r="1.0590559708743084" fill="#FFA07A" fill-opacity="0.7" />
<circle cx="114.01916842106" cy="43.58415013125743" r="1.2933521842930311" fill="#FFA07A" fill-opacity="0.7" />
<circle cx="115.13311463191619" cy="35.44861046979611" r="1.1126195192061927" fill="#FFA07A" fill-opacity="0.7" />
<circle cx="119.6041688209191" cy="37.80098249043409" r="0.597697138656306" fill="#FFA07A" fill-opacity="0.7" />
<circle cx="112.69576400721579" cy="131.52041909113882" r="9.5123568427775" fill="#C92A2A" stroke="#800000" stroke-width="1" />
<circle cx="109.58650253999109" cy="131.52428746587694" r="0.9844783888977002" fill="#FFA07A" fill-opacity="0.7" />
<circle cx="116.42671151126052" cy="131.115988253796" r="0.5205840968283498" fill="#FFA07A" fill-opacity="0.7" />
<circle cx="116.43102781007345" cy="136.73124942173155" r="1.2197013663292786" fill="#FFA07A" fill-opacity="0.7" />
<circle cx="108.97967415931559" cy="136.485974590659" r="1.055773600468973" fill="#FFA07A" fill-opacity="0.7" />
<circle cx="115.94865129519329" cy="135.4344958170446" r="1.4316665840999834" fill="#FFA07A" fill-opacity="0.7" />
<circle cx="110.84223219282808" cy="129.35501390682867" r="1.245613783996851" fill="#FFA07A" fill-opacity="0.7" />
<circle cx="92.64320417098037" cy="55.735788531585506" r="9.721723765702873" fill="#C92A2A" stroke="#800000" stroke-width="1" />
<circle cx="89.00635011410088" cy="54.82130432981744" r="1.2821216071700072" fill="#FFA07A" fill-opacity="0.7" />
<circle cx="92.96666514943509" cy="51.489527498603806" r="1.172818935074375" fill="#FFA07A" fill-opacity="0.7" />
<circle cx="87.64125026901043" cy="54.09782043738961" r="1.190040071903975" fill="#FFA07A" fill-opacity="0.7" />
<circle cx="94.72714406192443" cy="60.20525655806313" r="1.4371820419669157" fill="#FFA07A" fill-opacity="0.7" />
<circle cx="96.05498715565578" cy="59.81505979996405" r="1.2619879497160267" fill="#FFA07A" fill-opacity="0.7" />
<circle cx="87.12227394963408" cy="53.78391241442609" r="0.940477511334228" fill="#FFA07A" fill-opacity="0.7" />
<circle cx="155.22699502646296" cy="163.11048211973593" r="9.235966188941592" fill="#C92A2A" stroke="#800000" stroke-width="1" />
<circle cx="154.7065190593144" cy="161.62312079696179" r="1.2658892521822445" fill="#FFA07A" fill-opacity="0.7" />
<circle cx="159.44792376357003" cy="162.51562491524544" r="0.6822270601312254" fill="#FFA07A" fill-opacity="0.7" />
<circle cx="153.83128800102347" cy="166.99581728263698" r="1.3618072377893176" fill="#FFA07A" fill-opacity="0.7" />
<circle cx="109.29380501860543" cy="146.8373382154138" r="9.754798763838242" fill="#C92A2A" stroke="#800000" stroke-width="1" />
<circle cx="108.70781709335377" cy="147.7905807026345" r="0.5329106788031356" fill="#FFA07A" fill-opacity="0.7" />
<circle cx="114.5799281415235" cy="147.40690304725433" r="0.9734903447416546" fill="#FFA07A" fill-opacity="0.7" />
<circle cx="109.04504150667931" cy="147.52483058287714" r="0.8282386738901181" fill="#FFA07A" fill-opacity="0.7" />
<circle cx="110.36773104639317" cy="152.836362302344" r="1.0439245143336449" fill="#FFA07A" fill-opacity="0.7" />
</g>
<rect x="230.0" y="41.0" width="54.0" height="54.0" fill="none" stroke="black" stroke-width="2" />
<rect x="230.0" y="115.0" width="54.0" height="54.0" fill="none" stroke="black" stroke-width="2" />
<path d="M225.0,105.0 L289.0,105.0" stroke="black" stroke-width="2" />
</g>
</svg>