<?xml version="1.0" encoding="UTF-8"?>
<svg xmlns="http://www.w3.org/2000/svg" xmlns:xlink="http://www.w3.org/1999/xlink"
     width="284.0" height="210" viewBox="0 0 284.0 210">
<defs>
<clipPath id="clip-4556222352-4502395984">
<path d="M105.0,105.0 L105.0,5.0 A100,100,0,0,1,191.60254037844388,155.0 Z" fill="none" />
</clipPath>
</defs>
<g>
<path d="M105.0,105.0 L105.0,5.0 A100,100,0,0,1,191.60254037844388,155.0 Z" fill="none" stroke="lightgray" stroke-width="2" />
<path d="M105.0,105.0 L191.60254037844388,155.0 A100,100,0,0,1,18.397459621556123,155.0 Z" fill="none" stroke="lightgray" stroke-width="2" />
<path d="M105.0,105.0 L18.397459621556123,155.0 A100,100,0,0,1,104.99999999999999,5.0 Z" fill="none" stroke="lightgray" stroke-width="2" />
<path d="M105.0,105.0 L105.0,5.0 A100,100,0,0,1,191.60254037844388,155.0 Z" fill="#FEF7E3" stroke="lightgray" stroke-width="2" />
<use xlink:href="#clip-4556222352-4502395984" />
<g clip-path="url(#clip-4556222352-4502395984)">
<circle cx="105.0" cy="105.0" r="92" stroke="#DAA05D" stroke-width="16" fill="none" />
<circle cx="105.0" cy="105.0" r="98" stroke="#C37B32" stroke-width="5" fill="none" />
<circle cx="60.63633618234925" cy="52.7989548819803" r="4.280686737505796" fill="#8B4513" fill-opacity="0.3371283350178593" />
<circle cx="157.19616205753147" cy="81.10902987025725" r="2.328904824321028" fill="#FFFFFF" fill-opacity="0.2513190943128484" />
<circle cx="41.74566322302081" cy="107.38777066153432" r="2.678168259034084" fill="#8B4513" fill-opacity="0.2954768619793505" />
<circle cx="153.23897494984132" cy="126.14786431238427" r="4.746806279396019" fill="#FFFFFF" fill-opacity="0.4353109888813984" />
<circle cx="155.47337085215338" cy="172.28213089439691" r="4.559130123418713" fill="#8B4513" fill-opacity="0.4831986795251083" />
<circle cx="56.53335932834128" cy="172.53880518240902" r="2.748838074764735" fill="#8B4513" fill-opacity="0.2517090799819451" />
<circle cx="39.745408780108065" cy="114.5300349882662" r="4.416198601634206" fill="#FFFFFF" fill-opacity="0.36747591196073415" />
<circle cx="88.34297270889786" cy="87.87086869753321" r="4.066062408697942" fill="#FFFFFF" fill-opacity="0.4168696289511197" />
<circle cx="122.82820070338089" cy="105.40362703621713" r="3.216938704463953" fill="#8B4513" fill-opacity="0.36558956608010884" />
<circle cx="140.75619319670392" cy="120.34278905591833" r="5.750067979179337" fill="#8B4513" fill-opacity="0.4367490323216793" />
<circle cx="166.9585896424542" cy="85.23373518505292" r="5.711446120262727" fill="#D2691E" fill-opacity="0.4953336531765303" />
<circle cx="47.23405444254807" cy="123.29528541267929" r="3.905121785039074" fill="#FFFFFF" fill-opacity="0.31864950292337124" />
<circle cx="186.92235773001545" cy="101.66921072851645" r="2.4256533067820674" fill="#D2691E" fill-opacity="0.3209340792010766" />
<circle cx="82.40867121526827" cy="66.87262002571524" r="4.23029992511715" fill="#FFDE75" fill-opacity="0.30817183559722666" />
<circle cx="109.65703272860327" cy="34.19765765359847" r="4.825309451968802" fill="#FFDE75" fill-opacity="0.41369315943590945" />
<circle cx="61.15244879286003" cy="38.627381393560185" r="7.164602131600349" fill="#FFFFFF" fill-opacity="0.95" stroke="#FAF0E6" stroke-width="1.5" />
<circle cx="166.81086734585276" cy="151.80373226395272" r="7.310030457504945" fill="#FFFFFF" fill-opacity="0.95" stroke="#FAF0E6" stroke-width="1.5" />
<circle cx="119.67769710477025" cy="181.95688644543748" r="5.551658515171102" fill="#FFFFFF" fill-opacity="0.95" stroke="#FAF0E6" stroke-width="1.5" />
<circle cx="105.04573060725315" cy="132.92260277032727" r="10.706308775558895" fill="#FFFFFF" fill-opacity="0.95" stroke="#FAF0E6" stroke-width="1.5" />
<circle cx="94.50188906187662" cy="176.19461877541167" r="5.565860295445182" fill="#FFFFFF" fill-opacity="0.95" stroke="#FAF0E6" stroke-width="1.5" />
<circle cx="169.88330709125893" cy="58.36992069158207" r="6.057502575219627" fill="#FFFFFF" fill-opacity="0.95" stroke="#FAF0E6" stroke-width="1.5" />
</g>
<rect x="230.0" y="41.0" width="54.0" height="54.0" fill="none" stroke="black" stroke-width="2" />
<rect x="230.0" y="115.0" width="54.0" height="54.0" fill="none" stroke="black" stroke-width="2" />
<path d="M225.0,105.0 L289.0,105.0" stroke="black" stroke-width="2" />
<text x="257.0" y="68.0" font-size="36" font-family="Comic Sans MS, Comic Sans, cursive" dominant-baseline="middle" fill="black" text-anchor="middle">1</text>
<text x="257.0" y="142.0" font-size="36" font-family="Comic Sans MS, Comic Sans, cursive" dominant-baseline="middle" fill="black" text-anchor="middle">3</text>
</g>
</svg>