<?xml version="1.0" encoding="UTF-8"?>
<svg xmlns="http://www.w3.org/2000/svg" xmlns:xlink="http://www.w3.org/1999/xlink"
     width="284.0" height="210" viewBox="0 0 284.0 210">
<defs>
<clipPath id="clip-4553630800-4502400592">
<path d="M105.0,105.0 L105.0,5.0 A100,100,0,0,1,200.10565162951536,74.09830056250526 Z" fill="none" />
</clipPath>
<clipPath id="clip-4553630800-4567295952">
<path d="M105.0,105.0 L200.10565162951536,74.09830056250526 A100,100,0,0,1,163.77852522924732,185.90169943749476 Z" fill="none" />
</clipPath>
</defs>
<g>
<path d="M105.0,105.0 L105.0,5.0 A100,100,0,0,1,200.10565162951536,74.09830056250526 Z" fill="none" stroke="lightgray" stroke-width="2" />
<path d="M105.0,105.0 L200.10565162951536,74.09830056250526 A100,100,0,0,1,163.77852522924732,185.90169943749476 Z" fill="none" stroke="lightgray" stroke-width="2" />
<path d="M105.0,105.0 L163.77852522924732,185.90169943749476 A100,100,0,0,1,46.2214747707527,185.90169943749476 Z" fill="none" stroke="lightgray" stroke-width="2" />
<path d="M105.0,105.0 L46.2214747707527,185.90169943749476 A100,100,0,0,1,9.894348370484636,74.09830056250527 Z" fill="none" stroke="lightgray" stroke-width="2" />
<path d="M105.0,105.0 L9.894348370484636,74.09830056250527 A100,100,0,0,1,104.99999999999999,5.0 Z" fill="none" stroke="lightgray" stroke-width="2" />
<path d="M105.0,105.0 L105.0,5.0 A100,100,0,0,1,200.10565162951536,74.09830056250526 Z" fill="#F5C754" stroke="lightgray" stroke-width="2" />
<use xlink:href="#clip-4553630800-4502400592" />
<g clip-path="url(#clip-4553630800-4502400592)">
<circle cx="105.0" cy="105.0" r="92" stroke="#DAA05D" stroke-width="16" fill="none" />
<circle cx="105.0" cy="105.0" r="98" stroke="#C37B32" stroke-width="5" fill="none" />
<circle cx="169.82330570083212" cy="104.35277781628074" r="3.791073590028881" fill="#FFFFFF" fill-opacity="0.5914084288617978" />
<circle cx="139.64095944512803" cy="78.83340165723807" r="2.0595155693822695" fill="#8B4513" fill-opacity="0.2701954228575835" />
<circle cx="77.23137555374113" cy="79.08292578460353" r="4.352000622361897" fill="#FFFFFF" fill-opacity="0.4597084918902718" />
<circle cx="39.45385369056913" cy="132.01433709959386" r="3.8067049410905187" fill="#FFDE75" fill-opacity="0.2635745544226272" />
<circle cx="75.21125187315268" cy="181.0093324121517" r="4.354947344798427" fill="#8B4513" fill-opacity="0.39930422601399734" />
<circle cx="147.96646800008637" cy="172.92134011852528" r="4.787635941802609" fill="#8B4513" fill-opacity="0.2510459577880136" />
<circle cx="22.28998791753321" cy="107.97971489520094" r="5.0649508535533645" fill="#FFDE75" fill-opacity="0.398275251951157" />
<circle cx="146.95900835762703" cy="167.44444495843345" r="5.464968681920245" fill="#FFDE75" fill-opacity="0.5190858580492577" />
<circle cx="108.96479043723564" cy="139.79018967636426" r="2.2443619060334767" fill="#FFFFFF" fill-opacity="0.48379303561236464" />
<circle cx="135.80734053787728" cy="78.3329784759697" r="2.2637229471928912" fill="#FFFFFF" fill-opacity="0.4930442002174436" />
<circle cx="110.4571318577098" cy="98.5669781312667" r="4.05089554593634" fill="#FFDE75" fill-opacity="0.2025194005640823" />
<circle cx="43.97660423138414" cy="68.8368226561995" r="5.541243658496821" fill="#FFDE75" fill-opacity="0.21534373268758153" />
<circle cx="88.42142145317172" cy="62.53890299550154" r="5.5107102722293" fill="#FFFFFF" fill-opacity="0.5731801370784595" />
<circle cx="73.7417154585348" cy="173.07086023565316" r="5.432926207599845" fill="#D2691E" fill-opacity="0.47819256652187175" />
<circle cx="133.57266973605746" cy="87.01544564037856" r="3.3094589343466403" fill="#FFFFFF" fill-opacity="0.21868424096104544" />
<circle cx="82.98345022141535" cy="98.46482397086305" r="5.154213073925315" fill="#8B4513" fill-opacity="0.43238148837160206" />
<circle cx="122.0038237310235" cy="64.64604827628776" r="3.072488719403165" fill="#8B4513" fill-opacity="0.2827859308348889" />
<circle cx="174.97762039359813" cy="148.1331660637636" r="5.286778543534725" fill="#FFFFFF" fill-opacity="0.46433385257387244" />
<circle cx="38.17635695191244" cy="146.14488373826538" r="2.0585793329096767" fill="#8B4513" fill-opacity="0.37834373229754104" />
<circle cx="100.8442226748233" cy="184.71638213780756" r="2.072818408560993" fill="#FFDE75" fill-opacity="0.5593903365259163" />
<circle cx="72.51587150837224" cy="63.9271772599218" r="2.4593089278570126" fill="#D2691E" fill-opacity="0.24896874376447695" />
<circle cx="138.7276161780423" cy="127.41409011394879" r="2.16048602548459" fill="#8B4513" fill-opacity="0.22799041615804028" />
<circle cx="99.93012325601885" cy="172.76028449907392" r="4.896685801990551" fill="#FFFFFF" fill-opacity="0.5875134217523263" />
<circle cx="74.46235326554806" cy="181.95131957431622" r="3.5106289907084616" fill="#D2691E" fill-opacity="0.46119274324620024" />
<circle cx="182.6199647043188" cy="108.76903122320581" r="3.082712136008653" fill="#D2691E" fill-opacity="0.5279864504062832" />
<circle cx="149.97517792868922" cy="159.95750499616713" r="5.852142340800686" fill="#FFDE75" fill-opacity="0.35533904378536635" />
<circle cx="80.53114671211856" cy="136.42141221307003" r="2.3692682031100656" fill="#FFFFFF" fill-opacity="0.26216820335662466" />
<circle cx="144.08676648970408" cy="53.18111099180492" r="4.863912763162096" fill="#8B4513" fill-opacity="0.4295024667500606" />
<circle cx="156.6807529049359" cy="118.45374919544368" r="4.221315061758219" fill="#FFDE75" fill-opacity="0.42246668675417864" />
<circle cx="90.49533840831843" cy="100.20216773024026" r="2.8149885006338278" fill="#D2691E" fill-opacity="0.2858493197655494" />
<circle cx="105.92212404787533" cy="39.310953432696294" r="9.807628641859168" fill="#C92A2A" stroke="#800000" stroke-width="1" />
<circle cx="106.22522952753896" cy="43.28266724894971" r="0.7495829636709318" fill="#FFA07A" fill-opacity="0.7" />
<circle cx="103.35187803938277" cy="39.786415022161044" r="1.2835386494110408" fill="#FFA07A" fill-opacity="0.7" />
<circle cx="104.51690637585453" cy="44.61168955003163" r="0.572874908817611" fill="#FFA07A" fill-opacity="0.7" />
<circle cx="62.75151049492038" cy="96.50042591142794" r="11.343284214824845" fill="#C92A2A" stroke="#800000" stroke-width="1" />
<circle cx="57.267190480860094" cy="91.44790279356687" r="0.7900256937601524" fill="#FFA07A" fill-opacity="0.7" />
<circle cx="66.23767004495006" cy="99.49701217854322" r="0.5717218244025376" fill="#FFA07A" fill-opacity="0.7" />
<circle cx="60.79531474006268" cy="97.22173771682414" r="1.1782002268561076" fill="#FFA07A" fill-opacity="0.7" />
<circle cx="61.67943613121473" cy="95.45776958271871" r="0.6050503537370583" fill="#FFA07A" fill-opacity="0.7" />
<circle cx="61.11228935545195" cy="93.15044470579649" r="1.4786958033363689" fill="#FFA07A" fill-opacity="0.7" />
<circle cx="60.99586498293846" cy="100.62335554536706" r="0.7516954426568521" fill="#FFA07A" fill-opacity="0.7" />
<circle cx="139.49048338563878" cy="169.23109578270254" r="10.930966499010609" fill="#C92A2A" stroke="#800000" stroke-width="1" />
<circle cx="136.89246974246805" cy="166.74521407104024" r="0.7314439462914831" fill="#FFA07A" fill-opacity="0.7" />
<circle cx="137.77139089406515" cy="170.38356507891663" r="0.7895754108983717" fill="#FFA07A" fill-opacity="0.7" />
<circle cx="142.48791332253788" cy="174.10313674408874" r="1.4229487462595571" fill="#FFA07A" fill-opacity="0.7" />
<circle cx="139.3077624182832" cy="171.25955912784872" r="0.5577953954097149" fill="#FFA07A" fill-opacity="0.7" />
<circle cx="144.53253824912196" cy="170.11398634523138" r="0.6272936650136883" fill="#FFA07A" fill-opacity="0.7" />
<circle cx="137.63923936980828" cy="171.20010645049555" r="0.5706392212975527" fill="#FFA07A" fill-opacity="0.7" />
<circle cx="142.16019955868808" cy="169.49899484644064" r="1.3397313776608777" fill="#FFA07A" fill-opacity="0.7" />
<circle cx="89.28140674752906" cy="36.52921901899269" r="11.148059099487678" fill="#C92A2A" stroke="#800000" stroke-width="1" />
<circle cx="91.32725188670797" cy="39.876924234391424" r="1.2237261511952737" fill="#FFA07A" fill-opacity="0.7" />
<circle cx="95.0554371997814" cy="38.59187160965698" r="0.540869060069214" fill="#FFA07A" fill-opacity="0.7" />
<circle cx="90.05080183145299" cy="32.45403476072621" r="1.4561748486709907" fill="#FFA07A" fill-opacity="0.7" />
<circle cx="143.72616029296555" cy="128.82627705102803" r="9.999620567652764" fill="#C92A2A" stroke="#800000" stroke-width="1" />
<circle cx="147.3165828903627" cy="130.81378463458" r="1.3035672097027864" fill="#FFA07A" fill-opacity="0.7" />
<circle cx="137.87752524552715" cy="125.92107196018407" r="0.9130088662273572" fill="#FFA07A" fill-opacity="0.7" />
<circle cx="143.14880623534023" cy="130.19827445218547" r="0.7227781770576659" fill="#FFA07A" fill-opacity="0.7" />
<circle cx="144.66866063083654" cy="133.71343056808539" r="1.3503745682932369" fill="#FFA07A" fill-opacity="0.7" />
<circle cx="100.82520824520998" cy="68.9659719684631" r="10.699165597327113" fill="#C92A2A" stroke="#800000" stroke-width="1" />
<circle cx="101.34466654980415" cy="73.19142296671515" r="1.4174700639075097" fill="#FFA07A" fill-opacity="0.7" />
<circle cx="101.5158204582642" cy="63.31837096531799" r="1.124449852923281" fill="#FFA07A" fill-opacity="0.7" />
<circle cx="97.45238823105879" cy="67.43297174266067" r="1.0753355271209672" fill="#FFA07A" fill-opacity="0.7" />
<circle cx="101.50946996320184" cy="73.44171807799697" r="1.3932881445055836" fill="#FFA07A" fill-opacity="0.7" />
<circle cx="95.55872871149235" cy="69.76206386896972" r="1.4090484466543898" fill="#FFA07A" fill-opacity="0.7" />
<circle cx="106.325142341632" cy="66.50096050945494" r="1.1847338489846795" fill="#FFA07A" fill-opacity="0.7" />
<circle cx="102.46399455805846" cy="68.02648467916696" r="1.2404423409496126" fill="#FFA07A" fill-opacity="0.7" />
<circle cx="167.12869362418232" cy="131.02828730642045" r="9.387534684638961" fill="#C92A2A" stroke="#800000" stroke-width="1" />
<circle cx="166.7461112245249" cy="131.1023117767969" r="1.3981837281752343" fill="#FFA07A" fill-opacity="0.7" />
<circle cx="172.0725446835258" cy="131.30621030652676" r="1.349253122688717" fill="#FFA07A" fill-opacity="0.7" />
<circle cx="164.71215072788002" cy="126.30161703821152" r="0.5330564403802689" fill="#FFA07A" fill-opacity="0.7" />
<circle cx="162.0000889054768" cy="128.5601412312024" r="1.1226699224142453" fill="#FFA07A" fill-opacity="0.7" />
<circle cx="167.36416666892717" cy="125.60076547415522" r="0.7708088485541907" fill="#FFA07A" fill-opacity="0.7" />
<circle cx="119.35022915561409" cy="176.99424364037066" r="9.82458774298672" fill="#C92A2A" stroke="#800000" stroke-width="1" />
<circle cx="122.20123059120513" cy="178.1252800500703" r="0.7678749425851537" fill="#FFA07A" fill-opacity="0.7" />
<circle cx="124.05437850746812" cy="174.52629419791253" r="1.1946640451485164" fill="#FFA07A" fill-opacity="0.7" />
<circle cx="116.07397914335878" cy="173.66190641508086" r="0.609233357878508" fill="#FFA07A" fill-opacity="0.7" />
<circle cx="117.84930520537071" cy="175.7396693507861" r="1.197372998011762" fill="#FFA07A" fill-opacity="0.7" />
</g>
<path d="M105.0,105.0 L200.10565162951536,74.09830056250526 A100,100,0,0,1,163.77852522924732,185.90169943749476 Z" fill="#F5C754" stroke="lightgray" stroke-width="2" />
<use xlink:href="#clip-4553630800-4567295952" />
<g clip-path="url(#clip-4553630800-4567295952)">
<circle cx="105.0" cy="105.0" r="92" stroke="#DAA05D" stroke-width="16" fill="none" />
<circle cx="105.0" cy="105.0" r="98" stroke="#C37B32" stroke-width="5" fill="none" />
<circle cx="169.82330570083212" cy="104.35277781628074" r="3.791073590028881" fill="#FFFFFF" fill-opacity="0.5914084288617978" />
<circle cx="139.64095944512803" cy="78.83340165723807" r="2.0595155693822695" fill="#8B4513" fill-opacity="0.2701954228575835" />
<circle cx="77.23137555374113" cy="79.08292578460353" r="4.352000622361897" fill="#FFFFFF" fill-opacity="0.4597084918902718" />
<circle cx="39.45385369056913" cy="132.01433709959386" r="3.8067049410905187" fill="#FFDE75" fill-opacity="0.2635745544226272" />
<circle cx="75.21125187315268" cy="181.0093324121517" r="4.354947344798427" fill="#8B4513" fill-opacity="0.39930422601399734" />
<circle cx="147.96646800008637" cy="172.92134011852528" r="4.787635941802609" fill="#8B4513" fill-opacity="0.2510459577880136" />
<circle cx="22.28998791753321" cy="107.97971489520094" r="5.0649508535533645" fill="#FFDE75" fill-opacity="0.398275251951157" />
<circle cx="146.95900835762703" cy="167.44444495843345" r="5.464968681920245" fill="#FFDE75" fill-opacity="0.5190858580492577" />
<circle cx="108.96479043723564" cy="139.79018967636426" r="2.2443619060334767" fill="#FFFFFF" fill-opacity="0.48379303561236464" />
<circle cx="135.80734053787728" cy="78.3329784759697" r="2.2637229471928912" fill="#FFFFFF" fill-opacity="0.4930442002174436" />
<circle cx="110.4571318577098" cy="98.5669781312667" r="4.05089554593634" fill="#FFDE75" fill-opacity="0.2025194005640823" />
<circle cx="43.97660423138414" cy="68.8368226561995" r="5.541243658496821" fill="#FFDE75" fill-opacity="0.21534373268758153" />
<circle cx="88.42142145317172" cy="62.53890299550154" r="5.5107102722293" fill="#FFFFFF" fill-opacity="0.5731801370784595" />
<circle cx="73.7417154585348" cy="173.07086023565316" r="5.432926207599845" fill="#D2691E" fill-opacity="0.47819256652187175" />
<circle cx="133.57266973605746" cy="87.01544564037856" r="3.3094589343466403" fill="#FFFFFF" fill-opacity="0.21868424096104544" />
<circle cx="82.98345022141535" cy="98.46482397086305" r="5.154213073925315" fill="#8B4513" fill-opacity="0.43238148837160206" />
<circle cx="122.0038237310235" cy="64.64604827628776" r="3.072488719403165" fill="#8B4513" fill-opacity="0.2827859308348889" />
<circle cx="174.97762039359813" cy="148.1331660637636" r="5.286778543534725" fill="#FFFFFF" fill-opacity="0.46433385257387244" />
<circle cx="38.17635695191244" cy="146.14488373826538" r="2.0585793329096767" fill="#8B4513" fill-opacity="0.37834373229754104" />
<circle cx="100.8442226748233" cy="184.71638213780756" r="2.072818408560993" fill="#FFDE75" fill-opacity="0.5593903365259163" />
<circle cx="72.51587150837224" cy="63.9271772599218" r="2.4593089278570126" fill="#D2691E" fill-opacity="0.24896874376447695" />
<circle cx="138.7276161780423" cy="127.41409011394879" r="2.16048602548459" fill="#8B4513" fill-opacity="0.22799041615804028" />
<circle cx="99.93012325601885" cy="172.76028449907392" r="4.896685801990551" fill="#FFFFFF" fill-opacity="0.5875134217523263" />
<circle cx="74.46235326554806" cy="181.95131957431622" r="3.5106289907084616" fill="#D2691E" fill-opacity="0.46119274324620024" />
<circle cx="182.6199647043188" cy="108.76903122320581" r="3.082712136008653" fill="#D2691E" fill-opacity="0.5279864504062832" />
<circle cx="149.97517792868922" cy="159.95750499616713" r="5.852142340800686" fill="#FFDE75" fill-opacity="0.35533904378536635" />
<circle cx="80.53114671211856" cy="136.42141221307003" r="2.3692682031100656" fill="#FFFFFF" fill-opacity="0.26216820335662466" />
<circle cx="144.08676648970408" cy="53.18111099180492" r="4.863912763162096" fill="#8B4513" fill-opacity="0.4295024667500606" />
<circle cx="156.6807529049359" cy="118.45374919544368" r="4.221315061758219" fill="#FFDE75" fill-opacity="0.42246668675417864" />
<circle cx="90.49533840831843" cy="100.20216773024026" r="2.8149885006338278" fill="#D2691E" fill-opacity="0.2858493197655494" />
<circle cx="105.92212404787533" cy="39.310953432696294" r="9.807628641859168" fill="#C92A2A" stroke="#800000" stroke-width="1" />
<circle cx="106.22522952753896" cy="43.28266724894971" r="0.7495829636709318" fill="#FFA07A" fill-opacity="0.7" />
<circle cx="103.35187803938277" cy="39.786415022161044" r="1.2835386494110408" fill="#FFA07A" fill-opacity="0.7" />
<circle cx="104.51690637585453" cy="44.61168955003163" r="0.572874908817611" fill="#FFA07A" fill-opacity="0.7" />
<circle cx="62.75151049492038" cy="96.50042591142794" r="11.343284214824845" fill="#C92A2A" stroke="#800000" stroke-width="1" />
<circle cx="57.267190480860094" cy="91.44790279356687" r="0.7900256937601524" fill="#FFA07A" fill-opacity="0.7" />
<circle cx="66.23767004495006" cy="99.49701217854322" r="0.5717218244025376" fill="#FFA07A" fill-opacity="0.7" />
<circle cx="60.79531474006268" cy="97.22173771682414" r="1.1782002268561076" fill="#FFA07A" fill-opacity="0.7" />
<circle cx="61.67943613121473" cy="95.45776958271871" r="0.6050503537370583" fill="#FFA07A" fill-opacity="0.7" />
<circle cx="61.11228935545195" cy="93.15044470579649" r="1.4786958033363689" fill="#FFA07A" fill-opacity="0.7" />
<circle cx="60.99586498293846" cy="100.62335554536706" r="0.7516954426568521" fill="#FFA07A" fill-opacity="0.7" />
<circle cx="139.49048338563878" cy="169.23109578270254" r="10.930966499010609" fill="#C92A2A" stroke="#800000" stroke-width="1" />
<circle cx="136.89246974246805" cy="166.74521407104024" r="0.7314439462914831" fill="#FFA07A" fill-opacity="0.7" />
<circle cx="137.77139089406515" cy="170.38356507891663" r="0.7895754108983717" fill="#FFA07A" fill-opacity="0.7" />
<circle cx="142.48791332253788" cy="174.10313674408874" r="1.4229487462595571" fill="#FFA07A" fill-opacity="0.7" />
<circle cx="139.3077624182832" cy="171.25955912784872" r="0.5577953954097149" fill="#FFA07A" fill-opacity="0.7" />
<circle cx="144.53253824912196" cy="170.11398634523138" r="0.6272936650136883" fill="#FFA07A" fill-opacity="0.7" />
<circle cx="137.63923936980828" cy="171.20010645049555" r="0.5706392212975527" fill="#FFA07A" fill-opacity="0.7" />
<circle cx="142.16019955868808" cy="169.49899484644064" r="1.3397313776608777" fill="#FFA07A" fill-opacity="0.7" />
<circle cx="89.28140674752906" cy="36.52921901899269" r="11.148059099487678" fill="#C92A2A" stroke="#800000" stroke-width="1" />
<circle cx="91.32725188670797" cy="39.876924234391424" r="1.2237261511952737" fill="#FFA07A" fill-opacity="0.7" />
<circle cx="95.0554371997814" cy="38.59187160965698" r="0.540869060069214" fill="#FFA07A" fill-opacity="0.7" />
<circle cx="90.05080183145299" cy="32.45403476072621" r="1.4561748486709907" fill="#FFA07A" fill-opacity="0.7" />
<circle cx="143.72616029296555" cy="128.82627705102803" r="9.999620567652764" fill="#C92A2A" stroke="#800000" stroke-width="1" />
<circle cx="147.3165828903627" cy="130.81378463458" r="1.3035672097027864" fill="#FFA07A" fill-opacity="0.7" />
<circle cx="137.87752524552715" cy="125.92107196018407" r="0.9130088662273572" fill="#FFA07A" fill-opacity="0.7" />
<circle cx="143.14880623534023" cy="130.19827445218547" r="0.7227781770576659" fill="#FFA07A" fill-opacity="0.7" />
<circle cx="144.66866063083654" cy="133.71343056808539" r="1.3503745682932369" fill="#FFA07A" fill-opacity="0.7" />
<circle cx="100.82520824520998" cy="68.9659719684631" r="10.699165597327113" fill="#C92A2A" stroke="#800000" stroke-width="1" />
<circle cx="101.34466654980415" cy="73.19142296671515" r="1.4174700639075097" fill="#FFA07A" fill-opacity="0.7" />
<circle cx="101.5158204582642" cy="63.31837096531799" r="1.124449852923281" fill="#FFA07A" fill-opacity="0.7" />
<circle cx="97.45238823105879" cy="67.43297174266067" r="1.0753355271209672" fill="#FFA07A" fill-opacity="0.7" />
<circle cx="101.50946996320184" cy="73.44171807799697" r="1.3932881445055836" fill="#FFA07A" fill-opacity="0.7" />
<circle cx="95.55872871149235" cy="69.76206386896972" r="1.4090484466543898" fill="#FFA07A" fill-opacity="0.7" />
<circle cx="106.325142341632" cy="66.50096050945494" r="1.1847338489846795" fill="#FFA07A" fill-opacity="0.7" />
<circle cx="102.46399455805846" cy="68.02648467916696" r="1.2404423409496126" fill="#FFA07A" fill-opacity="0.7" />
<circle cx="167.12869362418232" cy="131.02828730642045" r="9.387534684638961" fill="#C92A2A" stroke="#800000" stroke-width="1" />
<circle cx="166.7461112245249" cy="131.1023117767969" r="1.3981837281752343" fill="#FFA07A" fill-opacity="0.7" />
<circle cx="172.0725446835258" cy="131.30621030652676" r="1.349253122688717" fill="#FFA07A" fill-opacity="0.7" />
<circle cx="164.71215072788002" cy="126.30161703821152" r="0.5330564403802689" fill="#FFA07A" fill-opacity="0.7" />
<circle cx="162.0000889054768" cy="128.5601412312024" r="1.1226699224142453" fill="#FFA07A" fill-opacity="0.7" />
<circle cx="167.36416666892717" cy="125.60076547415522" r="0.7708088485541907" fill="#FFA07A" fill-opacity="0.7" />
<circle cx="119.35022915561409" cy="176.99424364037066" r="9.82458774298672" fill="#C92A2A" stroke="#800000" stroke-width="1" />
<circle cx="122.20123059120513" cy="178.1252800500703" r="0.7678749425851537" fill="#FFA07A" fill-opacity="0.7" />
<circle cx="124.05437850746812" cy="174.52629419791253" r="1.1946640451485164" fill="#FFA07A" fill-opacity="0.7" />
<circle cx="116.07397914335878" cy="173.66190641508086" r="0.609233357878508" fill="#FFA07A" fill-opacity="0.7" />
<circle cx="117.84930520537071" cy="175.7396693507861" r="1.197372998011762" fill="#FFA07A" fill-opacity="0.7" />
</g>
<rect x="230.0" y="41.0" width="54.0" height="54.0" fill="none" stroke="black" stroke-width="2" />
<rect x="230.0" y="115.0" width="54.0" height="54.0" fill="none" stroke="black" stroke-width="2" />
<path d="M225.0,105.0 L289.0,105.0" stroke="black" stroke-width="2" />
</g>
</svg>