<svg width="660.0" height="210.0" xmlns="http://www.w3.org/2000/svg" xmlns:xlink="http://www.w3.org/1999/xlink">
<svg x="0.0" y="0.0" width="210.0" height="210.0" viewBox="0 0 210 210" xmlns="http://www.w3.org/2000/svg" xmlns:xlink="http://www.w3.org/1999/xlink">
<defs>
<clipPath id="clip-4530375376-4516863088">
<path d="M105.0,105.0 L105.0,5.0 A100,100,0,0,1,205.0,105.0 Z" fill="none" />
</clipPath>
</defs>
<g>
<path d="M105.0,105.0 L105.0,5.0 A100,100,0,0,1,205.0,105.0 Z" fill="none" stroke="lightgray" stroke-width="2" />
<path d="M105.0,105.0 L205.0,105.0 A100,100,0,0,1,105.0,205.0 Z" fill="none" stroke="lightgray" stroke-width="2" />
<path d="M105.0,105.0 L105.0,205.0 A100,100,0,0,1,5.0,105.00000000000001 Z" fill="none" stroke="lightgray" stroke-width="2" />
<path d="M105.0,105.0 L5.0,105.00000000000001 A100,100,0,0,1,104.99999999999999,5.0 Z" fill="none" stroke="lightgray" stroke-width="2" />
<path d="M105.0,105.0 L105.0,5.0 A100,100,0,0,1,205.0,105.0 Z" fill="#F5C754" stroke="lightgray" stroke-width="2" />
<use xlink:href="#clip-4530375376-4516863088" />
<g clip-path="url(#clip-4530375376-4516863088)">
<circle cx="105.0" cy="105.0" r="92" stroke="#DAA05D" stroke-width="16" fill="none" />
<circle cx="105.0" cy="105.0" r="98" stroke="#C37B32" stroke-width="5" fill="none" />
<circle cx="150.16930721382764" cy="131.78725905141764" r="4.621985201289717" fill="#8B4513" fill-opacity="0.5291418873772519" />
<circle cx="163.60615884020183" cy="125.66544772062602" r="2.2832999626298514" fill="#FFFFFF" fill-opacity="0.5456106559446565" />
<circle cx="152.01020442266625" cy="144.48453140546448" r="3.0101949726826893" fill="#FFFFFF" fill-opacity="0.5206158634175101" />
<circle cx="111.58803372871098" cy="63.584023176617805" r="4.448139007700835" fill="#FFDE75" fill-opacity="0.5182665766671053" />
<circle cx="87.42663359174486" cy="151.36589292591142" r="2.6890711054981957" fill="#FFFFFF" fill-opacity="0.5166518377603263" />
<circle cx="47.551731799890376" cy="58.71032367063185" r="2.835916467751546" fill="#8B4513" fill-opacity="0.49988771417344685" />
<circle cx="61.85632618523402" cy="143.02797203060737" r="4.989296793332681" fill="#FFDE75" fill-opacity="0.31094585148665616" />
<circle cx="120.86650049349058" cy="128.629227441745" r="4.822069475220841" fill="#D2691E" fill-opacity="0.5778813778741752" />
<circle cx="153.5112773352417" cy="147.9826044464391" r="3.0135148495655506" fill="#D2691E" fill-opacity="0.28626416327368037" />
<circle cx="180.18061370264888" cy="140.06372021496605" r="4.443460845077819" fill="#FFDE75" fill-opacity="0.3023684619007732" />
<circle cx="176.05800942160664" cy="144.5164346306911" r="5.896889989283363" fill="#8B4513" fill-opacity="0.3205377796625759" />
<circle cx="161.79328598924832" cy="166.58507028130256" r="3.993399014373854" fill="#FFFFFF" fill-opacity="0.4953530734112352" />
<circle cx="30.09284802392733" cy="85.57383319865369" r="3.8821753221829507" fill="#FFFFFF" fill-opacity="0.46748551219419193" />
<circle cx="66.4179906328772" cy="160.7160340166694" r="4.167847150997165" fill="#FFFFFF" fill-opacity="0.2565009182130179" />
<circle cx="80.53941521040471" cy="33.282487827173625" r="2.280438244990554" fill="#FFFFFF" fill-opacity="0.5175507924749729" />
<ellipse cx="69.90572467675662" cy="144.36015187169866" rx="5.986861018658863" ry="8.466774471527657" fill="#FFFDF0" fill-opacity="0.6" />
<ellipse cx="69.55195557716446" cy="144.0693765622181" rx="3.4831097328033342" ry="2.751340596084452" fill="#FFFFFF" fill-opacity="0.85" />
<ellipse cx="133.857679926521" cy="113.51726062258754" rx="7.642868638165302" ry="7.543045898063041" fill="#FFFDF0" fill-opacity="0.6" />
<ellipse cx="132.88676072798614" cy="114.51530004850981" rx="2.5579656746704376" ry="2.39724091841264" fill="#FFFFFF" fill-opacity="0.85" />
<ellipse cx="54.43991894519775" cy="164.0829857784991" rx="8.404992720517967" ry="6.922130582965135" fill="#FFFDF0" fill-opacity="0.6" />
<ellipse cx="55.11816459700025" cy="163.41647358573957" rx="4.7164706634717275" ry="3.819460112437846" fill="#FFFFFF" fill-opacity="0.85" />
</g>
</g>
</svg>
<svg x="225.0" y="0.0" width="210.0" height="210.0" viewBox="0 0 210 210" xmlns="http://www.w3.org/2000/svg" xmlns:xlink="http://www.w3.org/1999/xlink">
<defs>
<clipPath id="clip-4519489168-4466225936">
<path d="M105.0,105.0 L105.0,5.0 A100,100,0,0,1,200.10565162951536,74.09830056250526 Z" fill="none" />
</clipPath>
<clipPath id="clip-4519489168-4530506048">
<path d="M105.0,105.0 L200.10565162951536,74.09830056250526 A100,100,0,0,1,163.77852522924732,185.90169943749476 Z" fill="none" />
</clipPath>
</defs>
<g>
<path d="M105.0,105.0 L105.0,5.0 A100,100,0,0,1,200.10565162951536,74.09830056250526 Z" fill="none" stroke="lightgray" stroke-width="2" />
<path d="M105.0,105.0 L200.10565162951536,74.09830056250526 A100,100,0,0,1,163.77852522924732,185.90169943749476 Z" fill="none" stroke="lightgray" stroke-width="2" />
<path d="M105.0,105.0 L163.77852522924732,185.90169943749476 A100,100,0,0,1,46.2214747707527,185.90169943749476 Z" fill="none" stroke="lightgray" stroke-width="2" />
<path d="M105.0,105.0 L46.2214747707527,185.90169943749476 A100,100,0,0,1,9.894348370484636,74.09830056250527 Z" fill="none" stroke="lightgray" stroke-width="2" />
<path d="M105.0,105.0 L9.894348370484636,74.09830056250527 A100,100,0,0,1,104.99999999999999,5.0 Z" fill="none" stroke="lightgray" stroke-width="2" />
<path d="M105.0,105.0 L105.0,5.0 A100,100,0,0,1,200.10565162951536,74.09830056250526 Z" fill="#F5C754" stroke="lightgray" stroke-width="2" />
<use xlink:href="#clip-4519489168-4466225936" />
<g clip-path="url(#clip-4519489168-4466225936)">
<circle cx="105.0" cy="105.0" r="92" stroke="#DAA05D" stroke-width="16" fill="none" />
<circle cx="105.0" cy="105.0" r="98" stroke="#C37B32" stroke-width="5" fill="none" />
<circle cx="147.64180788034912" cy="132.03693942088526" r="2.7613336933937416" fill="#8B4513" fill-opacity="0.5131056766633996" />
<circle cx="164.1227053641515" cy="70.94227275853675" r="4.787171847184391" fill="#8B4513" fill-opacity="0.25357006226572965" />
<circle cx="44.90723798761529" cy="67.44330670507318" r="4.751882763003607" fill="#FFFFFF" fill-opacity="0.34704874948884834" />
<circle cx="92.43111863478518" cy="141.17410320488773" r="4.681270234023448" fill="#FFDE75" fill-opacity="0.4186038140298307" />
<circle cx="61.13949140089139" cy="145.359800421215" r="4.987463686371338" fill="#D2691E" fill-opacity="0.3629713150735522" />
<circle cx="151.98033412670998" cy="106.74360701922384" r="5.857345682749712" fill="#FFDE75" fill-opacity="0.4286097735359464" />
<circle cx="61.196298406203674" cy="42.643502828484365" r="2.1909798646970735" fill="#8B4513" fill-opacity="0.37775470424908514" />
<circle cx="149.8907987404049" cy="73.11672913082676" r="5.466104417410189" fill="#D2691E" fill-opacity="0.3583741907975385" />
<circle cx="179.5784946967505" cy="80.23996148030768" r="4.168937127139289" fill="#FFFFFF" fill-opacity="0.22336377841446123" />
<circle cx="99.10216410184972" cy="61.27381011981856" r="5.5822029032425515" fill="#D2691E" fill-opacity="0.5895503751448259" />
<circle cx="161.67737342622746" cy="71.97830416804157" r="2.5666677791537227" fill="#FFDE75" fill-opacity="0.5795715649140487" />
<circle cx="166.38514010053157" cy="80.0680771282254" r="2.7002459461728523" fill="#FFDE75" fill-opacity="0.22456279068011994" />
<circle cx="71.76550398481756" cy="35.38687617314663" r="4.199133029745982" fill="#8B4513" fill-opacity="0.5343180786313815" />
<circle cx="118.55019668780949" cy="134.0021664176359" r="2.8748965352826477" fill="#FFDE75" fill-opacity="0.3909503223668296" />
<circle cx="71.5906540905612" cy="145.14604180092374" r="3.151387349181662" fill="#FFFFFF" fill-opacity="0.5537376717620017" />
<circle cx="72.20762608004767" cy="88.12660952847239" r="2.6247079452054276" fill="#D2691E" fill-opacity="0.5974595477533018" />
<circle cx="58.30236482623623" cy="74.15362403147431" r="3.35803660190789" fill="#FFDE75" fill-opacity="0.5546107463513019" />
<circle cx="167.2697268974377" cy="129.45226788092822" r="4.966319083091475" fill="#FFFFFF" fill-opacity="0.4482714477184554" />
<circle cx="182.25757279539243" cy="112.54687404221102" r="4.169633530634913" fill="#8B4513" fill-opacity="0.2787208519865666" />
<circle cx="31.762730173224213" cy="118.83295877876071" r="3.1084471618773297" fill="#D2691E" fill-opacity="0.4727051104157088" />
<circle cx="52.29837336422321" cy="41.186664321554765" r="4.360458945063719" fill="#FFDE75" fill-opacity="0.5941314654967189" />
<circle cx="152.08937468352508" cy="133.0888404076376" r="5.556150711254121" fill="#8B4513" fill-opacity="0.5532854028074894" />
<circle cx="100.7285114163592" cy="66.23709936625221" r="4.450477807199647" fill="#FFDE75" fill-opacity="0.2157884802670986" />
<circle cx="142.0624394523456" cy="165.2157373094997" r="4.819441884184643" fill="#8B4513" fill-opacity="0.4520241814590775" />
<circle cx="115.39343168446975" cy="88.67708178418619" r="2.2313285342506846" fill="#FFFFFF" fill-opacity="0.35327828345189427" />
<circle cx="108.07291714602988" cy="92.65653558956402" r="2.8298006823080684" fill="#8B4513" fill-opacity="0.5782421151482553" />
<circle cx="101.09270744403253" cy="32.868094948425906" r="3.513407051871684" fill="#FFDE75" fill-opacity="0.41957773728861836" />
<circle cx="135.99433926138926" cy="150.34702847009117" r="2.8794550816667" fill="#D2691E" fill-opacity="0.38795682920785546" />
<circle cx="130.82535340318577" cy="145.33458061390363" r="4.880121667370024" fill="#FFDE75" fill-opacity="0.38453087354419946" />
<circle cx="153.28438910871995" cy="162.64891225141338" r="4.96678019230755" fill="#D2691E" fill-opacity="0.34000896482375526" />
<ellipse cx="167.92253222922645" cy="66.19120911500042" rx="8.32000767713282" ry="5.848696082472333" fill="#FFFDF0" fill-opacity="0.6" />
<ellipse cx="167.61491171931584" cy="66.13578601333576" rx="4.074958702432273" ry="2.5811926912739453" fill="#FFFFFF" fill-opacity="0.85" />
<ellipse cx="70.13290089437396" cy="43.71838892233478" rx="9.252432583296041" ry="7.923202026246833" fill="#FFFDF0" fill-opacity="0.6" />
<ellipse cx="71.12471565524179" cy="43.02723163440721" rx="2.9166861984498738" ry="3.40665863486505" fill="#FFFFFF" fill-opacity="0.85" />
<ellipse cx="90.3386834126699" cy="177.87193214327374" rx="6.614831507561538" ry="8.347281757490425" fill="#FFFDF0" fill-opacity="0.6" />
<ellipse cx="90.20731770643772" cy="177.35261766988222" rx="2.992242091537466" ry="3.120226071720956" fill="#FFFFFF" fill-opacity="0.85" />
<ellipse cx="85.74311089106557" cy="33.12903638140803" rx="7.997058766921055" ry="5.8781827384122955" fill="#FFFDF0" fill-opacity="0.6" />
<ellipse cx="85.12835245725812" cy="32.30511634334811" rx="2.023420883641352" ry="2.1204400590196006" fill="#FFFFFF" fill-opacity="0.85" />
<ellipse cx="77.14330859580025" cy="35.096138466398116" rx="5.927063954787865" ry="6.2877199365112215" fill="#FFFDF0" fill-opacity="0.6" />
<ellipse cx="76.79210108809494" cy="35.04352485732571" rx="4.54424431244631" ry="2.3906421116772094" fill="#FFFFFF" fill-opacity="0.85" />
<ellipse cx="121.04488511385742" cy="162.09484952747496" rx="8.432214659584096" ry="7.740437467365769" fill="#FFFDF0" fill-opacity="0.6" />
<ellipse cx="121.78391562346651" cy="163.00634696297627" rx="2.5905861665335093" ry="2.4114749657297816" fill="#FFFFFF" fill-opacity="0.85" />
</g>
<path d="M105.0,105.0 L200.10565162951536,74.09830056250526 A100,100,0,0,1,163.77852522924732,185.90169943749476 Z" fill="#F5C754" stroke="lightgray" stroke-width="2" />
<use xlink:href="#clip-4519489168-4530506048" />
<g clip-path="url(#clip-4519489168-4530506048)">
<circle cx="105.0" cy="105.0" r="92" stroke="#DAA05D" stroke-width="16" fill="none" />
<circle cx="105.0" cy="105.0" r="98" stroke="#C37B32" stroke-width="5" fill="none" />
<circle cx="147.64180788034912" cy="132.03693942088526" r="2.7613336933937416" fill="#8B4513" fill-opacity="0.5131056766633996" />
<circle cx="164.1227053641515" cy="70.94227275853675" r="4.787171847184391" fill="#8B4513" fill-opacity="0.25357006226572965" />
<circle cx="44.90723798761529" cy="67.44330670507318" r="4.751882763003607" fill="#FFFFFF" fill-opacity="0.34704874948884834" />
<circle cx="92.43111863478518" cy="141.17410320488773" r="4.681270234023448" fill="#FFDE75" fill-opacity="0.4186038140298307" />
<circle cx="61.13949140089139" cy="145.359800421215" r="4.987463686371338" fill="#D2691E" fill-opacity="0.3629713150735522" />
<circle cx="151.98033412670998" cy="106.74360701922384" r="5.857345682749712" fill="#FFDE75" fill-opacity="0.4286097735359464" />
<circle cx="61.196298406203674" cy="42.643502828484365" r="2.1909798646970735" fill="#8B4513" fill-opacity="0.37775470424908514" />
<circle cx="149.8907987404049" cy="73.11672913082676" r="5.466104417410189" fill="#D2691E" fill-opacity="0.3583741907975385" />
<circle cx="179.5784946967505" cy="80.23996148030768" r="4.168937127139289" fill="#FFFFFF" fill-opacity="0.22336377841446123" />
<circle cx="99.10216410184972" cy="61.27381011981856" r="5.5822029032425515" fill="#D2691E" fill-opacity="0.5895503751448259" />
<circle cx="161.67737342622746" cy="71.97830416804157" r="2.5666677791537227" fill="#FFDE75" fill-opacity="0.5795715649140487" />
<circle cx="166.38514010053157" cy="80.0680771282254" r="2.7002459461728523" fill="#FFDE75" fill-opacity="0.22456279068011994" />
<circle cx="71.76550398481756" cy="35.38687617314663" r="4.199133029745982" fill="#8B4513" fill-opacity="0.5343180786313815" />
<circle cx="118.55019668780949" cy="134.0021664176359" r="2.8748965352826477" fill="#FFDE75" fill-opacity="0.3909503223668296" />
<circle cx="71.5906540905612" cy="145.14604180092374" r="3.151387349181662" fill="#FFFFFF" fill-opacity="0.5537376717620017" />
<circle cx="72.20762608004767" cy="88.12660952847239" r="2.6247079452054276" fill="#D2691E" fill-opacity="0.5974595477533018" />
<circle cx="58.30236482623623" cy="74.15362403147431" r="3.35803660190789" fill="#FFDE75" fill-opacity="0.5546107463513019" />
<circle cx="167.2697268974377" cy="129.45226788092822" r="4.966319083091475" fill="#FFFFFF" fill-opacity="0.4482714477184554" />
<circle cx="182.25757279539243" cy="112.54687404221102" r="4.169633530634913" fill="#8B4513" fill-opacity="0.2787208519865666" />
<circle cx="31.762730173224213" cy="118.83295877876071" r="3.1084471618773297" fill="#D2691E" fill-opacity="0.4727051104157088" />
<circle cx="52.29837336422321" cy="41.186664321554765" r="4.360458945063719" fill="#FFDE75" fill-opacity="0.5941314654967189" />
<circle cx="152.08937468352508" cy="133.0888404076376" r="5.556150711254121" fill="#8B4513" fill-opacity="0.5532854028074894" />
<circle cx="100.7285114163592" cy="66.23709936625221" r="4.450477807199647" fill="#FFDE75" fill-opacity="0.2157884802670986" />
<circle cx="142.0624394523456" cy="165.2157373094997" r="4.819441884184643" fill="#8B4513" fill-opacity="0.4520241814590775" />
<circle cx="115.39343168446975" cy="88.67708178418619" r="2.2313285342506846" fill="#FFFFFF" fill-opacity="0.35327828345189427" />
<circle cx="108.07291714602988" cy="92.65653558956402" r="2.8298006823080684" fill="#8B4513" fill-opacity="0.5782421151482553" />
<circle cx="101.09270744403253" cy="32.868094948425906" r="3.513407051871684" fill="#FFDE75" fill-opacity="0.41957773728861836" />
<circle cx="135.99433926138926" cy="150.34702847009117" r="2.8794550816667" fill="#D2691E" fill-opacity="0.38795682920785546" />
<circle cx="130.82535340318577" cy="145.33458061390363" r="4.880121667370024" fill="#FFDE75" fill-opacity="0.38453087354419946" />
<circle cx="153.28438910871995" cy="162.64891225141338" r="4.96678019230755" fill="#D2691E" fill-opacity="0.34000896482375526" />
<ellipse cx="167.92253222922645" cy="66.19120911500042" rx="8.32000767713282" ry="5.848696082472333" fill="#FFFDF0" fill-opacity="0.6" />
<ellipse cx="167.61491171931584" cy="66.13578601333576" rx="4.074958702432273" ry="2.5811926912739453" fill="#FFFFFF" fill-opacity="0.85" />
<ellipse cx="70.13290089437396" cy="43.71838892233478" rx="9.252432583296041" ry="7.923202026246833" fill="#FFFDF0" fill-opacity="0.6" />
<ellipse cx="71.12471565524179" cy="43.02723163440721" rx="2.9166861984498738" ry="3.40665863486505" fill="#FFFFFF" fill-opacity="0.85" />
<ellipse cx="90.3386834126699" cy="177.87193214327374" rx="6.614831507561538" ry="8.347281757490425" fill="#FFFDF0" fill-opacity="0.6" />
<ellipse cx="90.20731770643772" cy="177.35261766988222" rx="2.992242091537466" ry="3.120226071720956" fill="#FFFFFF" fill-opacity="0.85" />
<ellipse cx="85.74311089106557" cy="33.12903638140803" rx="7.997058766921055" ry="5.8781827384122955" fill="#FFFDF0" fill-opacity="0.6" />
<ellipse cx="85.12835245725812" cy="32.30511634334811" rx="2.023420883641352" ry="2.1204400590196006" fill="#FFFFFF" fill-opacity="0.85" />
<ellipse cx="77.14330859580025" cy="35.096138466398116" rx="5.927063954787865" ry="6.2877199365112215" fill="#FFFDF0" fill-opacity="0.6" />
<ellipse cx="76.79210108809494" cy="35.04352485732571" rx="4.54424431244631" ry="2.3906421116772094" fill="#FFFFFF" fill-opacity="0.85" />
<ellipse cx="121.04488511385742" cy="162.09484952747496" rx="8.432214659584096" ry="7.740437467365769" fill="#FFFDF0" fill-opacity="0.6" />
<ellipse cx="121.78391562346651" cy="163.00634696297627" rx="2.5905861665335093" ry="2.4114749657297816" fill="#FFFFFF" fill-opacity="0.85" />
</g>
</g>
</svg>
<svg x="450.0" y="0.0" width="210.0" height="210.0" viewBox="0 0 210 210" xmlns="http://www.w3.org/2000/svg" xmlns:xlink="http://www.w3.org/1999/xlink">
<defs>
<clipPath id="clip-4530280464-4516551376">
<path d="M105.0,105.0 L105.0,5.0 A100,100,0,0,1,191.60254037844388,55.00000000000001 Z" fill="none" />
</clipPath>
<clipPath id="clip-4530280464-4530017616">
<path d="M105.0,105.0 L191.60254037844388,55.00000000000001 A100,100,0,0,1,191.60254037844388,155.0 Z" fill="none" />
</clipPath>
<clipPath id="clip-4530280464-4530608848">
<path d="M105.0,105.0 L191.60254037844388,155.0 A100,100,0,0,1,105.0,205.0 Z" fill="none" />
</clipPath>
<clipPath id="clip-4530280464-4530661200">
<path d="M105.0,105.0 L105.0,205.0 A100,100,0,0,1,18.397459621556123,155.0 Z" fill="none" />
</clipPath>
</defs>
<g>
<path d="M105.0,105.0 L105.0,5.0 A100,100,0,0,1,191.60254037844388,55.00000000000001 Z" fill="none" stroke="lightgray" stroke-width="2" />
<path d="M105.0,105.0 L191.60254037844388,55.00000000000001 A100,100,0,0,1,191.60254037844388,155.0 Z" fill="none" stroke="lightgray" stroke-width="2" />
<path d="M105.0,105.0 L191.60254037844388,155.0 A100,100,0,0,1,105.0,205.0 Z" fill="none" stroke="lightgray" stroke-width="2" />
<path d="M105.0,105.0 L105.0,205.0 A100,100,0,0,1,18.397459621556123,155.0 Z" fill="none" stroke="lightgray" stroke-width="2" />
<path d="M105.0,105.0 L18.397459621556123,155.0 A100,100,0,0,1,18.397459621556138,54.999999999999986 Z" fill="none" stroke="lightgray" stroke-width="2" />
<path d="M105.0,105.0 L18.397459621556138,54.999999999999986 A100,100,0,0,1,104.99999999999999,5.0 Z" fill="none" stroke="lightgray" stroke-width="2" />
<path d="M105.0,105.0 L105.0,5.0 A100,100,0,0,1,191.60254037844388,55.00000000000001 Z" fill="#F5C754" stroke="lightgray" stroke-width="2" />
<use xlink:href="#clip-4530280464-4516551376" />
<g clip-path="url(#clip-4530280464-4516551376)">
<circle cx="105.0" cy="105.0" r="92" stroke="#DAA05D" stroke-width="16" fill="none" />
<circle cx="105.0" cy="105.0" r="98" stroke="#C37B32" stroke-width="5" fill="none" />
<circle cx="134.61024763585053" cy="59.31019578520335" r="5.1196490064193885" fill="#FFFFFF" fill-opacity="0.5824826625298041" />
<circle cx="95.98286785030818" cy="147.59687047821865" r="3.2407454817149683" fill="#FFDE75" fill-opacity="0.2746852734516506" />
<circle cx="121.42925220570783" cy="78.30264705689221" r="2.8181118371511307" fill="#8B4513" fill-opacity="0.5569605400124013" />
<circle cx="120.11654661079295" cy="78.12683034382324" r="4.917728591766853" fill="#8B4513" fill-opacity="0.3944742307441921" />
<circle cx="43.133199268990836" cy="94.76887145149287" r="2.604254790236096" fill="#FFDE75" fill-opacity="0.5530429626015262" />
<circle cx="187.06484227141172" cy="127.02627955188606" r="5.916711560289465" fill="#FFDE75" fill-opacity="0.5444060224116537" />
<circle cx="67.29117760817968" cy="43.355600632505244" r="3.804662491369246" fill="#FFDE75" fill-opacity="0.4161084279734465" />
<circle cx="128.32998062923508" cy="89.87724309956721" r="3.017707874775768" fill="#FFDE75" fill-opacity="0.5685907078506417" />
<circle cx="68.30322211012565" cy="29.374219082395612" r="5.196486504152909" fill="#8B4513" fill-opacity="0.48028569264913856" />
<circle cx="54.266022175616776" cy="62.60741300556521" r="5.629178606896131" fill="#8B4513" fill-opacity="0.345302641049959" />
<circle cx="50.08166075111304" cy="151.39323673562834" r="5.966145205948941" fill="#D2691E" fill-opacity="0.3080271584570086" />
<circle cx="69.03105197755255" cy="102.62784549399119" r="3.601563363163549" fill="#FFDE75" fill-opacity="0.562204357336616" />
<circle cx="156.0865759392241" cy="40.46320774664183" r="2.84667678923111" fill="#FFFFFF" fill-opacity="0.3955358358355482" />
<circle cx="53.19301001894895" cy="70.45753079023143" r="5.034564894254681" fill="#8B4513" fill-opacity="0.35936878052340165" />
<circle cx="116.60991099358834" cy="26.875778388999407" r="5.5965751498888165" fill="#8B4513" fill-opacity="0.36854422894911143" />
<circle cx="183.23682312424796" cy="111.95038581255326" r="5.886631196852637" fill="#FFFFFF" fill-opacity="0.24049870781107857" />
<circle cx="32.59870578049414" cy="136.0963897769922" r="5.169771595256714" fill="#8B4513" fill-opacity="0.20505659961482367" />
<circle cx="83.99058380848282" cy="101.7250619973754" r="5.175365989213052" fill="#FFFFFF" fill-opacity="0.2262456642784664" />
<circle cx="99.82421554205287" cy="174.64356975745193" r="5.018578383724848" fill="#D2691E" fill-opacity="0.48436397920229474" />
<circle cx="150.58175229458908" cy="53.14419390043982" r="2.484578737716494" fill="#FFFFFF" fill-opacity="0.5329109455655651" />
<circle cx="103.86722857612682" cy="36.745752139630184" r="2.2618647151232696" fill="#8B4513" fill-opacity="0.31348788386831056" />
<circle cx="129.1451866546508" cy="24.166520259913327" r="5.316040222737154" fill="#D2691E" fill-opacity="0.47133784075433893" />
<circle cx="37.070488237389256" cy="94.2722375293598" r="2.898605966436424" fill="#8B4513" fill-opacity="0.5150733646352444" />
<circle cx="90.49369730267125" cy="84.11528786627379" r="3.089390315477928" fill="#D2691E" fill-opacity="0.481991462101123" />
<circle cx="127.5975750492967" cy="30.304651501339094" r="2.608336947983762" fill="#FFDE75" fill-opacity="0.5101872321307139" />
<circle cx="105.30860849482684" cy="165.18203291488987" r="4.632006945203165" fill="#8B4513" fill-opacity="0.44773505437282596" />
<circle cx="139.04856182253147" cy="88.52199365850767" r="2.9765237189292297" fill="#8B4513" fill-opacity="0.37426570160173" />
<circle cx="35.90880413048177" cy="86.2724990310244" r="3.6517117424293577" fill="#D2691E" fill-opacity="0.5108311741962224" />
<circle cx="42.45354145620582" cy="131.7547032571919" r="5.0601559927154804" fill="#FFDE75" fill-opacity="0.20132367817727292" />
<circle cx="92.19933093522371" cy="74.26681782008642" r="3.2529128495750066" fill="#FFDE75" fill-opacity="0.28645639908301124" />
<circle cx="184.48539046753945" cy="91.58737960428036" r="5.500857982458768" fill="#FFDE75" fill-opacity="0.574686190101696" />
<circle cx="160.03695831210993" cy="151.738270699516" r="4.308418813052123" fill="#D2691E" fill-opacity="0.5419061071510278" />
<circle cx="83.20630070212611" cy="94.63213038090387" r="3.5657458877378105" fill="#D2691E" fill-opacity="0.3506566818569744" />
<circle cx="189.10056434243666" cy="98.3810624426565" r="4.026309300119464" fill="#FFFFFF" fill-opacity="0.3560886297760817" />
<circle cx="38.7169248764547" cy="119.40807358998127" r="5.11186121022542" fill="#FFFFFF" fill-opacity="0.35968993203467303" />
<circle cx="52.63041050379195" cy="97.18136847742278" r="5.464986672711277" fill="#FFDE75" fill-opacity="0.46649519947962403" />
<circle cx="115.23914154144589" cy="125.35819519867637" r="3.3553545115479353" fill="#FFFFFF" fill-opacity="0.5651511877977216" />
<circle cx="168.1018080957337" cy="136.42788218349966" r="5.28771600130634" fill="#FFFFFF" fill-opacity="0.43536112961517703" />
<circle cx="85.95774628379866" cy="174.10549181184382" r="5.735810478186046" fill="#D2691E" fill-opacity="0.22948969439835665" />
<circle cx="61.89273419948762" cy="143.52615762216865" r="3.4890111548817706" fill="#FFFFFF" fill-opacity="0.27306188687179234" />
<circle cx="88.18425585925216" cy="163.0384512904251" r="4.348355108773218" fill="#FFFFFF" fill-opacity="0.4264019058772965" />
<circle cx="162.18736809236293" cy="150.52231430703236" r="4.1821502054529205" fill="#FFFFFF" fill-opacity="0.5295898334942635" />
<circle cx="53.754555124573514" cy="164.56793474246513" r="2.7649298013379413" fill="#FFFFFF" fill-opacity="0.5435888386203593" />
<circle cx="62.808374958336444" cy="109.29774091024458" r="4.012350732336042" fill="#8B4513" fill-opacity="0.328530812323257" />
<circle cx="174.1281019871211" cy="109.57793030411622" r="2.8290972351883625" fill="#FFFFFF" fill-opacity="0.26274145935764" />
<circle cx="81.03241412188123" cy="42.288111790816515" r="2.5403959671995637" fill="#D2691E" fill-opacity="0.5729783187977253" />
<circle cx="71.1722516039954" cy="123.0166039253752" r="2.994577880725789" fill="#8B4513" fill-opacity="0.42870777141585353" />
<circle cx="152.65224242118404" cy="42.865884966659316" r="4.295811596339766" fill="#FFDE75" fill-opacity="0.44057967700990297" />
<circle cx="90.85160716579728" cy="91.1932730504029" r="3.5184155674208597" fill="#8B4513" fill-opacity="0.35110497657717776" />
<circle cx="29.915191628404344" cy="118.30438757788924" r="4.424441218214153" fill="#8B4513" fill-opacity="0.4920925185940841" />
<circle cx="91.19586827903417" cy="169.6905019305779" r="5.048575795718035" fill="#8B4513" fill-opacity="0.5094118113269903" />
<circle cx="153.46221592394204" cy="151.7547305494014" r="3.1820701523973076" fill="#8B4513" fill-opacity="0.27540643687964317" />
<circle cx="101.77479756254505" cy="126.31244743349055" r="4.002728306427693" fill="#8B4513" fill-opacity="0.2762944024686738" />
<circle cx="71.41134342297929" cy="98.49436448396546" r="5.00279983725212" fill="#FFFFFF" fill-opacity="0.30904724093227903" />
<circle cx="59.49403038911716" cy="169.095484392416" r="3.1479716220376592" fill="#D2691E" fill-opacity="0.5711625834545863" />
<circle cx="144.88714474875707" cy="57.262853032102875" r="2.060531626420174" fill="#D2691E" fill-opacity="0.5255153075054395" />
<circle cx="135.34525149705016" cy="36.99099501085021" r="5.081042443335159" fill="#8B4513" fill-opacity="0.42450675717032627" />
<circle cx="41.94701829239285" cy="126.90920075179471" r="3.1404771450632465" fill="#8B4513" fill-opacity="0.4997036530138802" />
<circle cx="65.5576087679802" cy="68.68728861917702" r="2.0399865306251104" fill="#FFDE75" fill-opacity="0.4278167185591404" />
<circle cx="105.92002743119203" cy="150.82198157464578" r="2.4185586900265554" fill="#FFFFFF" fill-opacity="0.43371555894010394" />
<ellipse cx="128.96017103429625" cy="153.08853297171115" rx="8.760513686966142" ry="5.088532735648024" fill="#FFFDF0" fill-opacity="0.6" />
<ellipse cx="128.283161376336" cy="153.25788469984846" rx="4.538124856735522" ry="3.838201180022031" fill="#FFFFFF" fill-opacity="0.85" />
<ellipse cx="83.2599743703635" cy="172.4441322386719" rx="5.610482034038233" ry="6.647032663527611" fill="#FFFDF0" fill-opacity="0.6" />
<ellipse cx="83.14694054185763" cy="172.9941984017941" rx="2.8619324762161" ry="3.5092444513900887" fill="#FFFFFF" fill-opacity="0.85" />
<ellipse cx="87.96277546262837" cy="157.24762168046115" rx="7.5967846227311515" ry="7.400973694285845" fill="#FFFDF0" fill-opacity="0.6" />
<ellipse cx="87.37905854876185" cy="156.5488120908847" rx="4.008055523918327" ry="3.994232350054837" fill="#FFFFFF" fill-opacity="0.85" />
<ellipse cx="82.99131132250957" cy="33.19605845789208" rx="7.133963470982351" ry="7.671589533928154" fill="#FFFDF0" fill-opacity="0.6" />
<ellipse cx="82.14630376687218" cy="33.347266001363074" rx="2.4351377586567056" ry="3.328169275439981" fill="#FFFFFF" fill-opacity="0.85" />
<ellipse cx="163.04541811121453" cy="154.067741621442" rx="9.617738022388574" ry="5.699476157245578" fill="#FFFDF0" fill-opacity="0.6" />
<ellipse cx="163.7680352452974" cy="154.2395737929201" rx="3.2225306488742076" ry="3.3272588819124262" fill="#FFFFFF" fill-opacity="0.85" />
<ellipse cx="40.67015437302183" cy="121.82894388251503" rx="9.806719948225076" ry="7.857474294562593" fill="#FFFDF0" fill-opacity="0.6" />
<ellipse cx="40.20292863936876" cy="122.2137096380328" rx="2.300318888918657" ry="2.7420579331165866" fill="#FFFFFF" fill-opacity="0.85" />
<ellipse cx="40.14581992079516" cy="97.95072285695598" rx="6.955186971751891" ry="4.538949364343078" fill="#FFFDF0" fill-opacity="0.6" />
<ellipse cx="39.40167372021188" cy="98.19089873332877" rx="4.554514511108136" ry="2.1751093017062892" fill="#FFFFFF" fill-opacity="0.85" />
<ellipse cx="177.24743317389283" cy="76.30494807815984" rx="9.357445846196502" ry="5.610031720908124" fill="#FFFDF0" fill-opacity="0.6" />
<ellipse cx="176.41267143307275" cy="75.92919949744885" rx="3.372403697231731" ry="2.6335302314914193" fill="#FFFFFF" fill-opacity="0.85" />
<ellipse cx="55.10296094850637" cy="139.80842883147704" rx="8.602069103535946" ry="4.013142714644692" fill="#FFFDF0" fill-opacity="0.6" />
<ellipse cx="54.88871264469792" cy="139.1348986874503" rx="2.7351226078158324" ry="3.248428172742411" fill="#FFFFFF" fill-opacity="0.85" />
<ellipse cx="100.67075839220148" cy="168.1055959959536" rx="7.107492183012033" ry="7.797591502347591" fill="#FFFDF0" fill-opacity="0.6" />
<ellipse cx="100.02291145066705" cy="168.69038709834973" rx="2.4663341802209846" ry="3.189477779766912" fill="#FFFFFF" fill-opacity="0.85" />
<ellipse cx="82.19487985617836" cy="111.55421538400256" rx="9.01732140634443" ry="6.308086465947531" fill="#FFFDF0" fill-opacity="0.6" />
<ellipse cx="82.04062812864237" cy="110.56071709077945" rx="3.844507516701495" ry="2.4612876459815487" fill="#FFFFFF" fill-opacity="0.85" />
<ellipse cx="104.61491749786468" cy="139.13812269443028" rx="6.982723652048809" ry="5.643519640153402" fill="#FFFDF0" fill-opacity="0.6" />
<ellipse cx="104.90284353653507" cy="138.87912539013357" rx="3.698551746940047" ry="2.5847733699093838" fill="#FFFFFF" fill-opacity="0.85" />
</g>
<path d="M105.0,105.0 L191.60254037844388,55.00000000000001 A100,100,0,0,1,191.60254037844388,155.0 Z" fill="#F5C754" stroke="lightgray" stroke-width="2" />
<use xlink:href="#clip-4530280464-4530017616" />
<g clip-path="url(#clip-4530280464-4530017616)">
<circle cx="105.0" cy="105.0" r="92" stroke="#DAA05D" stroke-width="16" fill="none" />
<circle cx="105.0" cy="105.0" r="98" stroke="#C37B32" stroke-width="5" fill="none" />
<circle cx="134.61024763585053" cy="59.31019578520335" r="5.1196490064193885" fill="#FFFFFF" fill-opacity="0.5824826625298041" />
<circle cx="95.98286785030818" cy="147.59687047821865" r="3.2407454817149683" fill="#FFDE75" fill-opacity="0.2746852734516506" />
<circle cx="121.42925220570783" cy="78.30264705689221" r="2.8181118371511307" fill="#8B4513" fill-opacity="0.5569605400124013" />
<circle cx="120.11654661079295" cy="78.12683034382324" r="4.917728591766853" fill="#8B4513" fill-opacity="0.3944742307441921" />
<circle cx="43.133199268990836" cy="94.76887145149287" r="2.604254790236096" fill="#FFDE75" fill-opacity="0.5530429626015262" />
<circle cx="187.06484227141172" cy="127.02627955188606" r="5.916711560289465" fill="#FFDE75" fill-opacity="0.5444060224116537" />
<circle cx="67.29117760817968" cy="43.355600632505244" r="3.804662491369246" fill="#FFDE75" fill-opacity="0.4161084279734465" />
<circle cx="128.32998062923508" cy="89.87724309956721" r="3.017707874775768" fill="#FFDE75" fill-opacity="0.5685907078506417" />
<circle cx="68.30322211012565" cy="29.374219082395612" r="5.196486504152909" fill="#8B4513" fill-opacity="0.48028569264913856" />
<circle cx="54.266022175616776" cy="62.60741300556521" r="5.629178606896131" fill="#8B4513" fill-opacity="0.345302641049959" />
<circle cx="50.08166075111304" cy="151.39323673562834" r="5.966145205948941" fill="#D2691E" fill-opacity="0.3080271584570086" />
<circle cx="69.03105197755255" cy="102.62784549399119" r="3.601563363163549" fill="#FFDE75" fill-opacity="0.562204357336616" />
<circle cx="156.0865759392241" cy="40.46320774664183" r="2.84667678923111" fill="#FFFFFF" fill-opacity="0.3955358358355482" />
<circle cx="53.19301001894895" cy="70.45753079023143" r="5.034564894254681" fill="#8B4513" fill-opacity="0.35936878052340165" />
<circle cx="116.60991099358834" cy="26.875778388999407" r="5.5965751498888165" fill="#8B4513" fill-opacity="0.36854422894911143" />
<circle cx="183.23682312424796" cy="111.95038581255326" r="5.886631196852637" fill="#FFFFFF" fill-opacity="0.24049870781107857" />
<circle cx="32.59870578049414" cy="136.0963897769922" r="5.169771595256714" fill="#8B4513" fill-opacity="0.20505659961482367" />
<circle cx="83.99058380848282" cy="101.7250619973754" r="5.175365989213052" fill="#FFFFFF" fill-opacity="0.2262456642784664" />
<circle cx="99.82421554205287" cy="174.64356975745193" r="5.018578383724848" fill="#D2691E" fill-opacity="0.48436397920229474" />
<circle cx="150.58175229458908" cy="53.14419390043982" r="2.484578737716494" fill="#FFFFFF" fill-opacity="0.5329109455655651" />
<circle cx="103.86722857612682" cy="36.745752139630184" r="2.2618647151232696" fill="#8B4513" fill-opacity="0.31348788386831056" />
<circle cx="129.1451866546508" cy="24.166520259913327" r="5.316040222737154" fill="#D2691E" fill-opacity="0.47133784075433893" />
<circle cx="37.070488237389256" cy="94.2722375293598" r="2.898605966436424" fill="#8B4513" fill-opacity="0.5150733646352444" />
<circle cx="90.49369730267125" cy="84.11528786627379" r="3.089390315477928" fill="#D2691E" fill-opacity="0.481991462101123" />
<circle cx="127.5975750492967" cy="30.304651501339094" r="2.608336947983762" fill="#FFDE75" fill-opacity="0.5101872321307139" />
<circle cx="105.30860849482684" cy="165.18203291488987" r="4.632006945203165" fill="#8B4513" fill-opacity="0.44773505437282596" />
<circle cx="139.04856182253147" cy="88.52199365850767" r="2.9765237189292297" fill="#8B4513" fill-opacity="0.37426570160173" />
<circle cx="35.90880413048177" cy="86.2724990310244" r="3.6517117424293577" fill="#D2691E" fill-opacity="0.5108311741962224" />
<circle cx="42.45354145620582" cy="131.7547032571919" r="5.0601559927154804" fill="#FFDE75" fill-opacity="0.20132367817727292" />
<circle cx="92.19933093522371" cy="74.26681782008642" r="3.2529128495750066" fill="#FFDE75" fill-opacity="0.28645639908301124" />
<circle cx="184.48539046753945" cy="91.58737960428036" r="5.500857982458768" fill="#FFDE75" fill-opacity="0.574686190101696" />
<circle cx="160.03695831210993" cy="151.738270699516" r="4.308418813052123" fill="#D2691E" fill-opacity="0.5419061071510278" />
<circle cx="83.20630070212611" cy="94.63213038090387" r="3.5657458877378105" fill="#D2691E" fill-opacity="0.3506566818569744" />
<circle cx="189.10056434243666" cy="98.3810624426565" r="4.026309300119464" fill="#FFFFFF" fill-opacity="0.3560886297760817" />
<circle cx="38.7169248764547" cy="119.40807358998127" r="5.11186121022542" fill="#FFFFFF" fill-opacity="0.35968993203467303" />
<circle cx="52.63041050379195" cy="97.18136847742278" r="5.464986672711277" fill="#FFDE75" fill-opacity="0.46649519947962403" />
<circle cx="115.23914154144589" cy="125.35819519867637" r="3.3553545115479353" fill="#FFFFFF" fill-opacity="0.5651511877977216" />
<circle cx="168.1018080957337" cy="136.42788218349966" r="5.28771600130634" fill="#FFFFFF" fill-opacity="0.43536112961517703" />
<circle cx="85.95774628379866" cy="174.10549181184382" r="5.735810478186046" fill="#D2691E" fill-opacity="0.22948969439835665" />
<circle cx="61.89273419948762" cy="143.52615762216865" r="3.4890111548817706" fill="#FFFFFF" fill-opacity="0.27306188687179234" />
<circle cx="88.18425585925216" cy="163.0384512904251" r="4.348355108773218" fill="#FFFFFF" fill-opacity="0.4264019058772965" />
<circle cx="162.18736809236293" cy="150.52231430703236" r="4.1821502054529205" fill="#FFFFFF" fill-opacity="0.5295898334942635" />
<circle cx="53.754555124573514" cy="164.56793474246513" r="2.7649298013379413" fill="#FFFFFF" fill-opacity="0.5435888386203593" />
<circle cx="62.808374958336444" cy="109.29774091024458" r="4.012350732336042" fill="#8B4513" fill-opacity="0.328530812323257" />
<circle cx="174.1281019871211" cy="109.57793030411622" r="2.8290972351883625" fill="#FFFFFF" fill-opacity="0.26274145935764" />
<circle cx="81.03241412188123" cy="42.288111790816515" r="2.5403959671995637" fill="#D2691E" fill-opacity="0.5729783187977253" />
<circle cx="71.1722516039954" cy="123.0166039253752" r="2.994577880725789" fill="#8B4513" fill-opacity="0.42870777141585353" />
<circle cx="152.65224242118404" cy="42.865884966659316" r="4.295811596339766" fill="#FFDE75" fill-opacity="0.44057967700990297" />
<circle cx="90.85160716579728" cy="91.1932730504029" r="3.5184155674208597" fill="#8B4513" fill-opacity="0.35110497657717776" />
<circle cx="29.915191628404344" cy="118.30438757788924" r="4.424441218214153" fill="#8B4513" fill-opacity="0.4920925185940841" />
<circle cx="91.19586827903417" cy="169.6905019305779" r="5.048575795718035" fill="#8B4513" fill-opacity="0.5094118113269903" />
<circle cx="153.46221592394204" cy="151.7547305494014" r="3.1820701523973076" fill="#8B4513" fill-opacity="0.27540643687964317" />
<circle cx="101.77479756254505" cy="126.31244743349055" r="4.002728306427693" fill="#8B4513" fill-opacity="0.2762944024686738" />
<circle cx="71.41134342297929" cy="98.49436448396546" r="5.00279983725212" fill="#FFFFFF" fill-opacity="0.30904724093227903" />
<circle cx="59.49403038911716" cy="169.095484392416" r="3.1479716220376592" fill="#D2691E" fill-opacity="0.5711625834545863" />
<circle cx="144.88714474875707" cy="57.262853032102875" r="2.060531626420174" fill="#D2691E" fill-opacity="0.5255153075054395" />
<circle cx="135.34525149705016" cy="36.99099501085021" r="5.081042443335159" fill="#8B4513" fill-opacity="0.42450675717032627" />
<circle cx="41.94701829239285" cy="126.90920075179471" r="3.1404771450632465" fill="#8B4513" fill-opacity="0.4997036530138802" />
<circle cx="65.5576087679802" cy="68.68728861917702" r="2.0399865306251104" fill="#FFDE75" fill-opacity="0.4278167185591404" />
<circle cx="105.92002743119203" cy="150.82198157464578" r="2.4185586900265554" fill="#FFFFFF" fill-opacity="0.43371555894010394" />
<ellipse cx="128.96017103429625" cy="153.08853297171115" rx="8.760513686966142" ry="5.088532735648024" fill="#FFFDF0" fill-opacity="0.6" />
<ellipse cx="128.283161376336" cy="153.25788469984846" rx="4.538124856735522" ry="3.838201180022031" fill="#FFFFFF" fill-opacity="0.85" />
<ellipse cx="83.2599743703635" cy="172.4441322386719" rx="5.610482034038233" ry="6.647032663527611" fill="#FFFDF0" fill-opacity="0.6" />
<ellipse cx="83.14694054185763" cy="172.9941984017941" rx="2.8619324762161" ry="3.5092444513900887" fill="#FFFFFF" fill-opacity="0.85" />
<ellipse cx="87.96277546262837" cy="157.24762168046115" rx="7.5967846227311515" ry="7.400973694285845" fill="#FFFDF0" fill-opacity="0.6" />
<ellipse cx="87.37905854876185" cy="156.5488120908847" rx="4.008055523918327" ry="3.994232350054837" fill="#FFFFFF" fill-opacity="0.85" />
<ellipse cx="82.99131132250957" cy="33.19605845789208" rx="7.133963470982351" ry="7.671589533928154" fill="#FFFDF0" fill-opacity="0.6" />
<ellipse cx="82.14630376687218" cy="33.347266001363074" rx="2.4351377586567056" ry="3.328169275439981" fill="#FFFFFF" fill-opacity="0.85" />
<ellipse cx="163.04541811121453" cy="154.067741621442" rx="9.617738022388574" ry="5.699476157245578" fill="#FFFDF0" fill-opacity="0.6" />
<ellipse cx="163.7680352452974" cy="154.2395737929201" rx="3.2225306488742076" ry="3.3272588819124262" fill="#FFFFFF" fill-opacity="0.85" />
<ellipse cx="40.67015437302183" cy="121.82894388251503" rx="9.806719948225076" ry="7.857474294562593" fill="#FFFDF0" fill-opacity="0.6" />
<ellipse cx="40.20292863936876" cy="122.2137096380328" rx="2.300318888918657" ry="2.7420579331165866" fill="#FFFFFF" fill-opacity="0.85" />
<ellipse cx="40.14581992079516" cy="97.95072285695598" rx="6.955186971751891" ry="4.538949364343078" fill="#FFFDF0" fill-opacity="0.6" />
<ellipse cx="39.40167372021188" cy="98.19089873332877" rx="4.554514511108136" ry="2.1751093017062892" fill="#FFFFFF" fill-opacity="0.85" />
<ellipse cx="177.24743317389283" cy="76.30494807815984" rx="9.357445846196502" ry="5.610031720908124" fill="#FFFDF0" fill-opacity="0.6" />
<ellipse cx="176.41267143307275" cy="75.92919949744885" rx="3.372403697231731" ry="2.6335302314914193" fill="#FFFFFF" fill-opacity="0.85" />
<ellipse cx="55.10296094850637" cy="139.80842883147704" rx="8.602069103535946" ry="4.013142714644692" fill="#FFFDF0" fill-opacity="0.6" />
<ellipse cx="54.88871264469792" cy="139.1348986874503" rx="2.7351226078158324" ry="3.248428172742411" fill="#FFFFFF" fill-opacity="0.85" />
<ellipse cx="100.67075839220148" cy="168.1055959959536" rx="7.107492183012033" ry="7.797591502347591" fill="#FFFDF0" fill-opacity="0.6" />
<ellipse cx="100.02291145066705" cy="168.69038709834973" rx="2.4663341802209846" ry="3.189477779766912" fill="#FFFFFF" fill-opacity="0.85" />
<ellipse cx="82.19487985617836" cy="111.55421538400256" rx="9.01732140634443" ry="6.308086465947531" fill="#FFFDF0" fill-opacity="0.6" />
<ellipse cx="82.04062812864237" cy="110.56071709077945" rx="3.844507516701495" ry="2.4612876459815487" fill="#FFFFFF" fill-opacity="0.85" />
<ellipse cx="104.61491749786468" cy="139.13812269443028" rx="6.982723652048809" ry="5.643519640153402" fill="#FFFDF0" fill-opacity="0.6" />
<ellipse cx="104.90284353653507" cy="138.87912539013357" rx="3.698551746940047" ry="2.5847733699093838" fill="#FFFFFF" fill-opacity="0.85" />
</g>
<path d="M105.0,105.0 L191.60254037844388,155.0 A100,100,0,0,1,105.0,205.0 Z" fill="#F5C754" stroke="lightgray" stroke-width="2" />
<use xlink:href="#clip-4530280464-4530608848" />
<g clip-path="url(#clip-4530280464-4530608848)">
<circle cx="105.0" cy="105.0" r="92" stroke="#DAA05D" stroke-width="16" fill="none" />
<circle cx="105.0" cy="105.0" r="98" stroke="#C37B32" stroke-width="5" fill="none" />
<circle cx="134.61024763585053" cy="59.31019578520335" r="5.1196490064193885" fill="#FFFFFF" fill-opacity="0.5824826625298041" />
<circle cx="95.98286785030818" cy="147.59687047821865" r="3.2407454817149683" fill="#FFDE75" fill-opacity="0.2746852734516506" />
<circle cx="121.42925220570783" cy="78.30264705689221" r="2.8181118371511307" fill="#8B4513" fill-opacity="0.5569605400124013" />
<circle cx="120.11654661079295" cy="78.12683034382324" r="4.917728591766853" fill="#8B4513" fill-opacity="0.3944742307441921" />
<circle cx="43.133199268990836" cy="94.76887145149287" r="2.604254790236096" fill="#FFDE75" fill-opacity="0.5530429626015262" />
<circle cx="187.06484227141172" cy="127.02627955188606" r="5.916711560289465" fill="#FFDE75" fill-opacity="0.5444060224116537" />
<circle cx="67.29117760817968" cy="43.355600632505244" r="3.804662491369246" fill="#FFDE75" fill-opacity="0.4161084279734465" />
<circle cx="128.32998062923508" cy="89.87724309956721" r="3.017707874775768" fill="#FFDE75" fill-opacity="0.5685907078506417" />
<circle cx="68.30322211012565" cy="29.374219082395612" r="5.196486504152909" fill="#8B4513" fill-opacity="0.48028569264913856" />
<circle cx="54.266022175616776" cy="62.60741300556521" r="5.629178606896131" fill="#8B4513" fill-opacity="0.345302641049959" />
<circle cx="50.08166075111304" cy="151.39323673562834" r="5.966145205948941" fill="#D2691E" fill-opacity="0.3080271584570086" />
<circle cx="69.03105197755255" cy="102.62784549399119" r="3.601563363163549" fill="#FFDE75" fill-opacity="0.562204357336616" />
<circle cx="156.0865759392241" cy="40.46320774664183" r="2.84667678923111" fill="#FFFFFF" fill-opacity="0.3955358358355482" />
<circle cx="53.19301001894895" cy="70.45753079023143" r="5.034564894254681" fill="#8B4513" fill-opacity="0.35936878052340165" />
<circle cx="116.60991099358834" cy="26.875778388999407" r="5.5965751498888165" fill="#8B4513" fill-opacity="0.36854422894911143" />
<circle cx="183.23682312424796" cy="111.95038581255326" r="5.886631196852637" fill="#FFFFFF" fill-opacity="0.24049870781107857" />
<circle cx="32.59870578049414" cy="136.0963897769922" r="5.169771595256714" fill="#8B4513" fill-opacity="0.20505659961482367" />
<circle cx="83.99058380848282" cy="101.7250619973754" r="5.175365989213052" fill="#FFFFFF" fill-opacity="0.2262456642784664" />
<circle cx="99.82421554205287" cy="174.64356975745193" r="5.018578383724848" fill="#D2691E" fill-opacity="0.48436397920229474" />
<circle cx="150.58175229458908" cy="53.14419390043982" r="2.484578737716494" fill="#FFFFFF" fill-opacity="0.5329109455655651" />
<circle cx="103.86722857612682" cy="36.745752139630184" r="2.2618647151232696" fill="#8B4513" fill-opacity="0.31348788386831056" />
<circle cx="129.1451866546508" cy="24.166520259913327" r="5.316040222737154" fill="#D2691E" fill-opacity="0.47133784075433893" />
<circle cx="37.070488237389256" cy="94.2722375293598" r="2.898605966436424" fill="#8B4513" fill-opacity="0.5150733646352444" />
<circle cx="90.49369730267125" cy="84.11528786627379" r="3.089390315477928" fill="#D2691E" fill-opacity="0.481991462101123" />
<circle cx="127.5975750492967" cy="30.304651501339094" r="2.608336947983762" fill="#FFDE75" fill-opacity="0.5101872321307139" />
<circle cx="105.30860849482684" cy="165.18203291488987" r="4.632006945203165" fill="#8B4513" fill-opacity="0.44773505437282596" />
<circle cx="139.04856182253147" cy="88.52199365850767" r="2.9765237189292297" fill="#8B4513" fill-opacity="0.37426570160173" />
<circle cx="35.90880413048177" cy="86.2724990310244" r="3.6517117424293577" fill="#D2691E" fill-opacity="0.5108311741962224" />
<circle cx="42.45354145620582" cy="131.7547032571919" r="5.0601559927154804" fill="#FFDE75" fill-opacity="0.20132367817727292" />
<circle cx="92.19933093522371" cy="74.26681782008642" r="3.2529128495750066" fill="#FFDE75" fill-opacity="0.28645639908301124" />
<circle cx="184.48539046753945" cy="91.58737960428036" r="5.500857982458768" fill="#FFDE75" fill-opacity="0.574686190101696" />
<circle cx="160.03695831210993" cy="151.738270699516" r="4.308418813052123" fill="#D2691E" fill-opacity="0.5419061071510278" />
<circle cx="83.20630070212611" cy="94.63213038090387" r="3.5657458877378105" fill="#D2691E" fill-opacity="0.3506566818569744" />
<circle cx="189.10056434243666" cy="98.3810624426565" r="4.026309300119464" fill="#FFFFFF" fill-opacity="0.3560886297760817" />
<circle cx="38.7169248764547" cy="119.40807358998127" r="5.11186121022542" fill="#FFFFFF" fill-opacity="0.35968993203467303" />
<circle cx="52.63041050379195" cy="97.18136847742278" r="5.464986672711277" fill="#FFDE75" fill-opacity="0.46649519947962403" />
<circle cx="115.23914154144589" cy="125.35819519867637" r="3.3553545115479353" fill="#FFFFFF" fill-opacity="0.5651511877977216" />
<circle cx="168.1018080957337" cy="136.42788218349966" r="5.28771600130634" fill="#FFFFFF" fill-opacity="0.43536112961517703" />
<circle cx="85.95774628379866" cy="174.10549181184382" r="5.735810478186046" fill="#D2691E" fill-opacity="0.22948969439835665" />
<circle cx="61.89273419948762" cy="143.52615762216865" r="3.4890111548817706" fill="#FFFFFF" fill-opacity="0.27306188687179234" />
<circle cx="88.18425585925216" cy="163.0384512904251" r="4.348355108773218" fill="#FFFFFF" fill-opacity="0.4264019058772965" />
<circle cx="162.18736809236293" cy="150.52231430703236" r="4.1821502054529205" fill="#FFFFFF" fill-opacity="0.5295898334942635" />
<circle cx="53.754555124573514" cy="164.56793474246513" r="2.7649298013379413" fill="#FFFFFF" fill-opacity="0.5435888386203593" />
<circle cx="62.808374958336444" cy="109.29774091024458" r="4.012350732336042" fill="#8B4513" fill-opacity="0.328530812323257" />
<circle cx="174.1281019871211" cy="109.57793030411622" r="2.8290972351883625" fill="#FFFFFF" fill-opacity="0.26274145935764" />
<circle cx="81.03241412188123" cy="42.288111790816515" r="2.5403959671995637" fill="#D2691E" fill-opacity="0.5729783187977253" />
<circle cx="71.1722516039954" cy="123.0166039253752" r="2.994577880725789" fill="#8B4513" fill-opacity="0.42870777141585353" />
<circle cx="152.65224242118404" cy="42.865884966659316" r="4.295811596339766" fill="#FFDE75" fill-opacity="0.44057967700990297" />
<circle cx="90.85160716579728" cy="91.1932730504029" r="3.5184155674208597" fill="#8B4513" fill-opacity="0.35110497657717776" />
<circle cx="29.915191628404344" cy="118.30438757788924" r="4.424441218214153" fill="#8B4513" fill-opacity="0.4920925185940841" />
<circle cx="91.19586827903417" cy="169.6905019305779" r="5.048575795718035" fill="#8B4513" fill-opacity="0.5094118113269903" />
<circle cx="153.46221592394204" cy="151.7547305494014" r="3.1820701523973076" fill="#8B4513" fill-opacity="0.27540643687964317" />
<circle cx="101.77479756254505" cy="126.31244743349055" r="4.002728306427693" fill="#8B4513" fill-opacity="0.2762944024686738" />
<circle cx="71.41134342297929" cy="98.49436448396546" r="5.00279983725212" fill="#FFFFFF" fill-opacity="0.30904724093227903" />
<circle cx="59.49403038911716" cy="169.095484392416" r="3.1479716220376592" fill="#D2691E" fill-opacity="0.5711625834545863" />
<circle cx="144.88714474875707" cy="57.262853032102875" r="2.060531626420174" fill="#D2691E" fill-opacity="0.5255153075054395" />
<circle cx="135.34525149705016" cy="36.99099501085021" r="5.081042443335159" fill="#8B4513" fill-opacity="0.42450675717032627" />
<circle cx="41.94701829239285" cy="126.90920075179471" r="3.1404771450632465" fill="#8B4513" fill-opacity="0.4997036530138802" />
<circle cx="65.5576087679802" cy="68.68728861917702" r="2.0399865306251104" fill="#FFDE75" fill-opacity="0.4278167185591404" />
<circle cx="105.92002743119203" cy="150.82198157464578" r="2.4185586900265554" fill="#FFFFFF" fill-opacity="0.43371555894010394" />
<ellipse cx="128.96017103429625" cy="153.08853297171115" rx="8.760513686966142" ry="5.088532735648024" fill="#FFFDF0" fill-opacity="0.6" />
<ellipse cx="128.283161376336" cy="153.25788469984846" rx="4.538124856735522" ry="3.838201180022031" fill="#FFFFFF" fill-opacity="0.85" />
<ellipse cx="83.2599743703635" cy="172.4441322386719" rx="5.610482034038233" ry="6.647032663527611" fill="#FFFDF0" fill-opacity="0.6" />
<ellipse cx="83.14694054185763" cy="172.9941984017941" rx="2.8619324762161" ry="3.5092444513900887" fill="#FFFFFF" fill-opacity="0.85" />
<ellipse cx="87.96277546262837" cy="157.24762168046115" rx="7.5967846227311515" ry="7.400973694285845" fill="#FFFDF0" fill-opacity="0.6" />
<ellipse cx="87.37905854876185" cy="156.5488120908847" rx="4.008055523918327" ry="3.994232350054837" fill="#FFFFFF" fill-opacity="0.85" />
<ellipse cx="82.99131132250957" cy="33.19605845789208" rx="7.133963470982351" ry="7.671589533928154" fill="#FFFDF0" fill-opacity="0.6" />
<ellipse cx="82.14630376687218" cy="33.347266001363074" rx="2.4351377586567056" ry="3.328169275439981" fill="#FFFFFF" fill-opacity="0.85" />
<ellipse cx="163.04541811121453" cy="154.067741621442" rx="9.617738022388574" ry="5.699476157245578" fill="#FFFDF0" fill-opacity="0.6" />
<ellipse cx="163.7680352452974" cy="154.2395737929201" rx="3.2225306488742076" ry="3.3272588819124262" fill="#FFFFFF" fill-opacity="0.85" />
<ellipse cx="40.67015437302183" cy="121.82894388251503" rx="9.806719948225076" ry="7.857474294562593" fill="#FFFDF0" fill-opacity="0.6" />
<ellipse cx="40.20292863936876" cy="122.2137096380328" rx="2.300318888918657" ry="2.7420579331165866" fill="#FFFFFF" fill-opacity="0.85" />
<ellipse cx="40.14581992079516" cy="97.95072285695598" rx="6.955186971751891" ry="4.538949364343078" fill="#FFFDF0" fill-opacity="0.6" />
<ellipse cx="39.40167372021188" cy="98.19089873332877" rx="4.554514511108136" ry="2.1751093017062892" fill="#FFFFFF" fill-opacity="0.85" />
<ellipse cx="177.24743317389283" cy="76.30494807815984" rx="9.357445846196502" ry="5.610031720908124" fill="#FFFDF0" fill-opacity="0.6" />
<ellipse cx="176.41267143307275" cy="75.92919949744885" rx="3.372403697231731" ry="2.6335302314914193" fill="#FFFFFF" fill-opacity="0.85" />
<ellipse cx="55.10296094850637" cy="139.80842883147704" rx="8.602069103535946" ry="4.013142714644692" fill="#FFFDF0" fill-opacity="0.6" />
<ellipse cx="54.88871264469792" cy="139.1348986874503" rx="2.7351226078158324" ry="3.248428172742411" fill="#FFFFFF" fill-opacity="0.85" />
<ellipse cx="100.67075839220148" cy="168.1055959959536" rx="7.107492183012033" ry="7.797591502347591" fill="#FFFDF0" fill-opacity="0.6" />
<ellipse cx="100.02291145066705" cy="168.69038709834973" rx="2.4663341802209846" ry="3.189477779766912" fill="#FFFFFF" fill-opacity="0.85" />
<ellipse cx="82.19487985617836" cy="111.55421538400256" rx="9.01732140634443" ry="6.308086465947531" fill="#FFFDF0" fill-opacity="0.6" />
<ellipse cx="82.04062812864237" cy="110.56071709077945" rx="3.844507516701495" ry="2.4612876459815487" fill="#FFFFFF" fill-opacity="0.85" />
<ellipse cx="104.61491749786468" cy="139.13812269443028" rx="6.982723652048809" ry="5.643519640153402" fill="#FFFDF0" fill-opacity="0.6" />
<ellipse cx="104.90284353653507" cy="138.87912539013357" rx="3.698551746940047" ry="2.5847733699093838" fill="#FFFFFF" fill-opacity="0.85" />
</g>
<path d="M105.0,105.0 L105.0,205.0 A100,100,0,0,1,18.397459621556123,155.0 Z" fill="#F5C754" stroke="lightgray" stroke-width="2" />
<use xlink:href="#clip-4530280464-4530661200" />
<g clip-path="url(#clip-4530280464-4530661200)">
<circle cx="105.0" cy="105.0" r="92" stroke="#DAA05D" stroke-width="16" fill="none" />
<circle cx="105.0" cy="105.0" r="98" stroke="#C37B32" stroke-width="5" fill="none" />
<circle cx="134.61024763585053" cy="59.31019578520335" r="5.1196490064193885" fill="#FFFFFF" fill-opacity="0.5824826625298041" />
<circle cx="95.98286785030818" cy="147.59687047821865" r="3.2407454817149683" fill="#FFDE75" fill-opacity="0.2746852734516506" />
<circle cx="121.42925220570783" cy="78.30264705689221" r="2.8181118371511307" fill="#8B4513" fill-opacity="0.5569605400124013" />
<circle cx="120.11654661079295" cy="78.12683034382324" r="4.917728591766853" fill="#8B4513" fill-opacity="0.3944742307441921" />
<circle cx="43.133199268990836" cy="94.76887145149287" r="2.604254790236096" fill="#FFDE75" fill-opacity="0.5530429626015262" />
<circle cx="187.06484227141172" cy="127.02627955188606" r="5.916711560289465" fill="#FFDE75" fill-opacity="0.5444060224116537" />
<circle cx="67.29117760817968" cy="43.355600632505244" r="3.804662491369246" fill="#FFDE75" fill-opacity="0.4161084279734465" />
<circle cx="128.32998062923508" cy="89.87724309956721" r="3.017707874775768" fill="#FFDE75" fill-opacity="0.5685907078506417" />
<circle cx="68.30322211012565" cy="29.374219082395612" r="5.196486504152909" fill="#8B4513" fill-opacity="0.48028569264913856" />
<circle cx="54.266022175616776" cy="62.60741300556521" r="5.629178606896131" fill="#8B4513" fill-opacity="0.345302641049959" />
<circle cx="50.08166075111304" cy="151.39323673562834" r="5.966145205948941" fill="#D2691E" fill-opacity="0.3080271584570086" />
<circle cx="69.03105197755255" cy="102.62784549399119" r="3.601563363163549" fill="#FFDE75" fill-opacity="0.562204357336616" />
<circle cx="156.0865759392241" cy="40.46320774664183" r="2.84667678923111" fill="#FFFFFF" fill-opacity="0.3955358358355482" />
<circle cx="53.19301001894895" cy="70.45753079023143" r="5.034564894254681" fill="#8B4513" fill-opacity="0.35936878052340165" />
<circle cx="116.60991099358834" cy="26.875778388999407" r="5.5965751498888165" fill="#8B4513" fill-opacity="0.36854422894911143" />
<circle cx="183.23682312424796" cy="111.95038581255326" r="5.886631196852637" fill="#FFFFFF" fill-opacity="0.24049870781107857" />
<circle cx="32.59870578049414" cy="136.0963897769922" r="5.169771595256714" fill="#8B4513" fill-opacity="0.20505659961482367" />
<circle cx="83.99058380848282" cy="101.7250619973754" r="5.175365989213052" fill="#FFFFFF" fill-opacity="0.2262456642784664" />
<circle cx="99.82421554205287" cy="174.64356975745193" r="5.018578383724848" fill="#D2691E" fill-opacity="0.48436397920229474" />
<circle cx="150.58175229458908" cy="53.14419390043982" r="2.484578737716494" fill="#FFFFFF" fill-opacity="0.5329109455655651" />
<circle cx="103.86722857612682" cy="36.745752139630184" r="2.2618647151232696" fill="#8B4513" fill-opacity="0.31348788386831056" />
<circle cx="129.1451866546508" cy="24.166520259913327" r="5.316040222737154" fill="#D2691E" fill-opacity="0.47133784075433893" />
<circle cx="37.070488237389256" cy="94.2722375293598" r="2.898605966436424" fill="#8B4513" fill-opacity="0.5150733646352444" />
<circle cx="90.49369730267125" cy="84.11528786627379" r="3.089390315477928" fill="#D2691E" fill-opacity="0.481991462101123" />
<circle cx="127.5975750492967" cy="30.304651501339094" r="2.608336947983762" fill="#FFDE75" fill-opacity="0.5101872321307139" />
<circle cx="105.30860849482684" cy="165.18203291488987" r="4.632006945203165" fill="#8B4513" fill-opacity="0.44773505437282596" />
<circle cx="139.04856182253147" cy="88.52199365850767" r="2.9765237189292297" fill="#8B4513" fill-opacity="0.37426570160173" />
<circle cx="35.90880413048177" cy="86.2724990310244" r="3.6517117424293577" fill="#D2691E" fill-opacity="0.5108311741962224" />
<circle cx="42.45354145620582" cy="131.7547032571919" r="5.0601559927154804" fill="#FFDE75" fill-opacity="0.20132367817727292" />
<circle cx="92.19933093522371" cy="74.26681782008642" r="3.2529128495750066" fill="#FFDE75" fill-opacity="0.28645639908301124" />
<circle cx="184.48539046753945" cy="91.58737960428036" r="5.500857982458768" fill="#FFDE75" fill-opacity="0.574686190101696" />
<circle cx="160.03695831210993" cy="151.738270699516" r="4.308418813052123" fill="#D2691E" fill-opacity="0.5419061071510278" />
<circle cx="83.20630070212611" cy="94.63213038090387" r="3.5657458877378105" fill="#D2691E" fill-opacity="0.3506566818569744" />
<circle cx="189.10056434243666" cy="98.3810624426565" r="4.026309300119464" fill="#FFFFFF" fill-opacity="0.3560886297760817" />
<circle cx="38.7169248764547" cy="119.40807358998127" r="5.11186121022542" fill="#FFFFFF" fill-opacity="0.35968993203467303" />
<circle cx="52.63041050379195" cy="97.18136847742278" r="5.464986672711277" fill="#FFDE75" fill-opacity="0.46649519947962403" />
<circle cx="115.23914154144589" cy="125.35819519867637" r="3.3553545115479353" fill="#FFFFFF" fill-opacity="0.5651511877977216" />
<circle cx="168.1018080957337" cy="136.42788218349966" r="5.28771600130634" fill="#FFFFFF" fill-opacity="0.43536112961517703" />
<circle cx="85.95774628379866" cy="174.10549181184382" r="5.735810478186046" fill="#D2691E" fill-opacity="0.22948969439835665" />
<circle cx="61.89273419948762" cy="143.52615762216865" r="3.4890111548817706" fill="#FFFFFF" fill-opacity="0.27306188687179234" />
<circle cx="88.18425585925216" cy="163.0384512904251" r="4.348355108773218" fill="#FFFFFF" fill-opacity="0.4264019058772965" />
<circle cx="162.18736809236293" cy="150.52231430703236" r="4.1821502054529205" fill="#FFFFFF" fill-opacity="0.5295898334942635" />
<circle cx="53.754555124573514" cy="164.56793474246513" r="2.7649298013379413" fill="#FFFFFF" fill-opacity="0.5435888386203593" />
<circle cx="62.808374958336444" cy="109.29774091024458" r="4.012350732336042" fill="#8B4513" fill-opacity="0.328530812323257" />
<circle cx="174.1281019871211" cy="109.57793030411622" r="2.8290972351883625" fill="#FFFFFF" fill-opacity="0.26274145935764" />
<circle cx="81.03241412188123" cy="42.288111790816515" r="2.5403959671995637" fill="#D2691E" fill-opacity="0.5729783187977253" />
<circle cx="71.1722516039954" cy="123.0166039253752" r="2.994577880725789" fill="#8B4513" fill-opacity="0.42870777141585353" />
<circle cx="152.65224242118404" cy="42.865884966659316" r="4.295811596339766" fill="#FFDE75" fill-opacity="0.44057967700990297" />
<circle cx="90.85160716579728" cy="91.1932730504029" r="3.5184155674208597" fill="#8B4513" fill-opacity="0.35110497657717776" />
<circle cx="29.915191628404344" cy="118.30438757788924" r="4.424441218214153" fill="#8B4513" fill-opacity="0.4920925185940841" />
<circle cx="91.19586827903417" cy="169.6905019305779" r="5.048575795718035" fill="#8B4513" fill-opacity="0.5094118113269903" />
<circle cx="153.46221592394204" cy="151.7547305494014" r="3.1820701523973076" fill="#8B4513" fill-opacity="0.27540643687964317" />
<circle cx="101.77479756254505" cy="126.31244743349055" r="4.002728306427693" fill="#8B4513" fill-opacity="0.2762944024686738" />
<circle cx="71.41134342297929" cy="98.49436448396546" r="5.00279983725212" fill="#FFFFFF" fill-opacity="0.30904724093227903" />
<circle cx="59.49403038911716" cy="169.095484392416" r="3.1479716220376592" fill="#D2691E" fill-opacity="0.5711625834545863" />
<circle cx="144.88714474875707" cy="57.262853032102875" r="2.060531626420174" fill="#D2691E" fill-opacity="0.5255153075054395" />
<circle cx="135.34525149705016" cy="36.99099501085021" r="5.081042443335159" fill="#8B4513" fill-opacity="0.42450675717032627" />
<circle cx="41.94701829239285" cy="126.90920075179471" r="3.1404771450632465" fill="#8B4513" fill-opacity="0.4997036530138802" />
<circle cx="65.5576087679802" cy="68.68728861917702" r="2.0399865306251104" fill="#FFDE75" fill-opacity="0.4278167185591404" />
<circle cx="105.92002743119203" cy="150.82198157464578" r="2.4185586900265554" fill="#FFFFFF" fill-opacity="0.43371555894010394" />
<ellipse cx="128.96017103429625" cy="153.08853297171115" rx="8.760513686966142" ry="5.088532735648024" fill="#FFFDF0" fill-opacity="0.6" />
<ellipse cx="128.283161376336" cy="153.25788469984846" rx="4.538124856735522" ry="3.838201180022031" fill="#FFFFFF" fill-opacity="0.85" />
<ellipse cx="83.2599743703635" cy="172.4441322386719" rx="5.610482034038233" ry="6.647032663527611" fill="#FFFDF0" fill-opacity="0.6" />
<ellipse cx="83.14694054185763" cy="172.9941984017941" rx="2.8619324762161" ry="3.5092444513900887" fill="#FFFFFF" fill-opacity="0.85" />
<ellipse cx="87.96277546262837" cy="157.24762168046115" rx="7.5967846227311515" ry="7.400973694285845" fill="#FFFDF0" fill-opacity="0.6" />
<ellipse cx="87.37905854876185" cy="156.5488120908847" rx="4.008055523918327" ry="3.994232350054837" fill="#FFFFFF" fill-opacity="0.85" />
<ellipse cx="82.99131132250957" cy="33.19605845789208" rx="7.133963470982351" ry="7.671589533928154" fill="#FFFDF0" fill-opacity="0.6" />
<ellipse cx="82.14630376687218" cy="33.347266001363074" rx="2.4351377586567056" ry="3.328169275439981" fill="#FFFFFF" fill-opacity="0.85" />
<ellipse cx="163.04541811121453" cy="154.067741621442" rx="9.617738022388574" ry="5.699476157245578" fill="#FFFDF0" fill-opacity="0.6" />
<ellipse cx="163.7680352452974" cy="154.2395737929201" rx="3.2225306488742076" ry="3.3272588819124262" fill="#FFFFFF" fill-opacity="0.85" />
<ellipse cx="40.67015437302183" cy="121.82894388251503" rx="9.806719948225076" ry="7.857474294562593" fill="#FFFDF0" fill-opacity="0.6" />
<ellipse cx="40.20292863936876" cy="122.2137096380328" rx="2.300318888918657" ry="2.7420579331165866" fill="#FFFFFF" fill-opacity="0.85" />
<ellipse cx="40.14581992079516" cy="97.95072285695598" rx="6.955186971751891" ry="4.538949364343078" fill="#FFFDF0" fill-opacity="0.6" />
<ellipse cx="39.40167372021188" cy="98.19089873332877" rx="4.554514511108136" ry="2.1751093017062892" fill="#FFFFFF" fill-opacity="0.85" />
<ellipse cx="177.24743317389283" cy="76.30494807815984" rx="9.357445846196502" ry="5.610031720908124" fill="#FFFDF0" fill-opacity="0.6" />
<ellipse cx="176.41267143307275" cy="75.92919949744885" rx="3.372403697231731" ry="2.6335302314914193" fill="#FFFFFF" fill-opacity="0.85" />
<ellipse cx="55.10296094850637" cy="139.80842883147704" rx="8.602069103535946" ry="4.013142714644692" fill="#FFFDF0" fill-opacity="0.6" />
<ellipse cx="54.88871264469792" cy="139.1348986874503" rx="2.7351226078158324" ry="3.248428172742411" fill="#FFFFFF" fill-opacity="0.85" />
<ellipse cx="100.67075839220148" cy="168.1055959959536" rx="7.107492183012033" ry="7.797591502347591" fill="#FFFDF0" fill-opacity="0.6" />
<ellipse cx="100.02291145066705" cy="168.69038709834973" rx="2.4663341802209846" ry="3.189477779766912" fill="#FFFFFF" fill-opacity="0.85" />
<ellipse cx="82.19487985617836" cy="111.55421538400256" rx="9.01732140634443" ry="6.308086465947531" fill="#FFFDF0" fill-opacity="0.6" />
<ellipse cx="82.04062812864237" cy="110.56071709077945" rx="3.844507516701495" ry="2.4612876459815487" fill="#FFFFFF" fill-opacity="0.85" />
<ellipse cx="104.61491749786468" cy="139.13812269443028" rx="6.982723652048809" ry="5.643519640153402" fill="#FFFDF0" fill-opacity="0.6" />
<ellipse cx="104.90284353653507" cy="138.87912539013357" rx="3.698551746940047" ry="2.5847733699093838" fill="#FFFFFF" fill-opacity="0.85" />
</g>
</g>
</svg>
</svg>