<?xml version="1.0" encoding="UTF-8"?>
<svg xmlns="http://www.w3.org/2000/svg" xmlns:xlink="http://www.w3.org/1999/xlink"
     width="284.0" height="210" viewBox="0 0 284.0 210">
<defs>
<clipPath id="clip-4567045840-4541978960">
<path d="M105.0,105.0 L105.0,5.0 A100,100,0,0,1,105.0,205.0 Z" fill="none" />
</clipPath>
</defs>
<g>
<path d="M105.0,105.0 L105.0,5.0 A100,100,0,0,1,105.0,205.0 Z" fill="none" stroke="lightgray" stroke-width="2" />
<path d="M105.0,105.0 L105.0,205.0 A100,100,0,0,1,104.99999999999999,5.0 Z" fill="none" stroke="lightgray" stroke-width="2" />
<path d="M105.0,105.0 L105.0,5.0 A100,100,0,0,1,105.0,205.0 Z" fill="#F5C754" stroke="lightgray" stroke-width="2" />
<use xlink:href="#clip-4567045840-4541978960" />
<g clip-path="url(#clip-4567045840-4541978960)">
<circle cx="105.0" cy="105.0" r="92" stroke="#DAA05D" stroke-width="16" fill="none" />
<circle cx="105.0" cy="105.0" r="98" stroke="#C37B32" stroke-width="5" fill="none" />
<circle cx="30.026495063817677" cy="94.46655777036133" r="5.451902280358031" fill="#8B4513" fill-opacity="0.42105845210869863" />
<circle cx="80.95949036337309" cy="134.88308347633276" r="2.237562109304758" fill="#FFDE75" fill-opacity="0.40434044030483757" />
<circle cx="164.07468221789694" cy="129.43960441487474" r="5.971795721976857" fill="#FFDE75" fill-opacity="0.2163615200096418" />
<circle cx="119.07974128055378" cy="52.543380447794604" r="2.8993689290325686" fill="#FFDE75" fill-opacity="0.4063772081884146" />
<circle cx="147.46831023481727" cy="39.061717730966166" r="2.774141736849602" fill="#FFFFFF" fill-opacity="0.2177209494973182" />
<circle cx="178.42504171569476" cy="144.6285103893818" r="4.064525781336783" fill="#FFDE75" fill-opacity="0.494390328989481" />
<circle cx="120.1449257063255" cy="81.85138344934144" r="4.11187947380559" fill="#D2691E" fill-opacity="0.5359673463437495" />
<circle cx="91.17451594811926" cy="146.2474939594626" r="3.1005565573648184" fill="#D2691E" fill-opacity="0.36020087803927303" />
<circle cx="178.8752619227095" cy="141.78209381421374" r="5.788493354673301" fill="#FFFFFF" fill-opacity="0.5350491684356398" />
<circle cx="109.62879579089102" cy="169.62089553750457" r="2.608611355096274" fill="#FFDE75" fill-opacity="0.3002332585894575" />
<circle cx="111.51686088945802" cy="186.63008615715106" r="5.0441500883987445" fill="#FFDE75" fill-opacity="0.5299656771394551" />
<circle cx="41.449214426323934" cy="146.98033171780438" r="2.490741781877207" fill="#D2691E" fill-opacity="0.47804619250984054" />
<circle cx="57.14886314040886" cy="139.59988321316038" r="5.566698875165054" fill="#FFFFFF" fill-opacity="0.47416269540086253" />
<circle cx="176.76120511344897" cy="65.33309389793037" r="4.134896380583871" fill="#8B4513" fill-opacity="0.33847566103235105" />
<circle cx="175.19799135366327" cy="69.34371045496131" r="3.659783098695201" fill="#FFDE75" fill-opacity="0.49633286937575627" />
<circle cx="127.78592836445412" cy="125.60869446541543" r="10.369913852292049" fill="#C92A2A" stroke="#800000" stroke-width="1" />
<circle cx="125.45877584562108" cy="128.61771304129257" r="0.9397820403882698" fill="#FFA07A" fill-opacity="0.7" />
<circle cx="133.6845112814578" cy="121.54793379147613" r="1.0313035928507586" fill="#FFA07A" fill-opacity="0.7" />
<circle cx="128.12900035400082" cy="127.8939064612059" r="0.9182794664078131" fill="#FFA07A" fill-opacity="0.7" />
<circle cx="124.27671959125693" cy="128.2421523969287" r="0.6593106365095722" fill="#FFA07A" fill-opacity="0.7" />
<circle cx="129.59585577278045" cy="126.26325298683572" r="1.2579947139152212" fill="#FFA07A" fill-opacity="0.7" />
<circle cx="122.39213137476845" cy="124.39906071483364" r="1.4857569953972507" fill="#FFA07A" fill-opacity="0.7" />
<circle cx="124.52588582461698" cy="122.86610888821369" r="1.4259703851655485" fill="#FFA07A" fill-opacity="0.7" />
<circle cx="92.38688234680092" cy="137.45016147067207" r="11.444603069488917" fill="#C92A2A" stroke="#800000" stroke-width="1" />
<circle cx="94.31107468026826" cy="133.11412060475018" r="0.6443831142702287" fill="#FFA07A" fill-opacity="0.7" />
<circle cx="97.64543359671939" cy="134.0829857096171" r="1.2672944404865705" fill="#FFA07A" fill-opacity="0.7" />
<circle cx="92.04026490657083" cy="137.06410865584775" r="1.1784022802231089" fill="#FFA07A" fill-opacity="0.7" />
<circle cx="151.0755430577751" cy="142.2402456949069" r="11.700833726310195" fill="#C92A2A" stroke="#800000" stroke-width="1" />
<circle cx="148.24300040782146" cy="148.08706421741113" r="0.8766071586413969" fill="#FFA07A" fill-opacity="0.7" />
<circle cx="148.32183950972535" cy="139.11222454358003" r="1.29147334027255" fill="#FFA07A" fill-opacity="0.7" />
<circle cx="146.0096396812022" cy="147.83405410363216" r="0.7314439772860313" fill="#FFA07A" fill-opacity="0.7" />
<circle cx="41.958729076392295" cy="71.31970026014503" r="11.19535360759438" fill="#C92A2A" stroke="#800000" stroke-width="1" />
<circle cx="45.429852798702655" cy="69.74978886896756" r="0.6789561555978503" fill="#FFA07A" fill-opacity="0.7" />
<circle cx="42.87065518439819" cy="70.5383503251139" r="0.8988844436864524" fill="#FFA07A" fill-opacity="0.7" />
<circle cx="42.815709742603104" cy="68.92044529441347" r="0.6975862328091796" fill="#FFA07A" fill-opacity="0.7" />
<circle cx="40.7232465365101" cy="66.067968498508" r="0.6896065048645348" fill="#FFA07A" fill-opacity="0.7" />
</g>
<rect x="230.0" y="41.0" width="54.0" height="54.0" fill="none" stroke="black" stroke-width="2" />
<rect x="230.0" y="115.0" width="54.0" height="54.0" fill="none" stroke="black" stroke-width="2" />
<path d="M225.0,105.0 L289.0,105.0" stroke="black" stroke-width="2" />
</g>
</svg>