<svg width="435.0" height="210.0" xmlns="http://www.w3.org/2000/svg" xmlns:xlink="http://www.w3.org/1999/xlink">
<svg x="0.0" y="0.0" width="210.0" height="210.0" viewBox="0 0 210 210" xmlns="http://www.w3.org/2000/svg" xmlns:xlink="http://www.w3.org/1999/xlink">
<defs>
<clipPath id="clip-4530374368-4530279504">
<circle cx="105.0" cy="105.0" r="100" fill="none" />
</clipPath>
</defs>
<g>
<circle cx="105.0" cy="105.0" r="100" fill="#F5C754" />
<use xlink:href="#clip-4530374368-4530279504" />
<g clip-path="url(#clip-4530374368-4530279504)">
<circle cx="105.0" cy="105.0" r="92" stroke="#DAA05D" stroke-width="16" fill="none" />
<circle cx="105.0" cy="105.0" r="98" stroke="#C37B32" stroke-width="5" fill="none" />
<circle cx="154.03204700862017" cy="62.07346624644393" r="3.427357833437919" fill="#D2691E" fill-opacity="0.3878373481115617" />
<circle cx="128.05720892979554" cy="97.84620771673893" r="3.224249576233936" fill="#D2691E" fill-opacity="0.33677566709731127" />
<circle cx="52.34369022733159" cy="157.6889337422072" r="4.090580353834306" fill="#FFDE75" fill-opacity="0.4013931787074147" />
<circle cx="160.84429194349215" cy="41.40018868184746" r="3.287787121886752" fill="#FFFFFF" fill-opacity="0.4500197056689506" />
<circle cx="186.32220575633585" cy="115.19865221611636" r="2.114138932861141" fill="#D2691E" fill-opacity="0.5434218643248989" />
<circle cx="162.3885334083706" cy="108.34648000720281" r="2.3860065377365722" fill="#FFDE75" fill-opacity="0.5480710500423827" />
<circle cx="102.28748371740149" cy="85.32260856209174" r="4.737078478158779" fill="#FFFFFF" fill-opacity="0.41698070870196496" />
<circle cx="73.06986055919809" cy="117.59727284284521" r="5.7060920284605094" fill="#FFFFFF" fill-opacity="0.32236381801922565" />
<circle cx="174.20725043959493" cy="110.52985534262955" r="5.447429382169771" fill="#FFDE75" fill-opacity="0.2630827207232935" />
<circle cx="106.1255751645418" cy="167.97891074539052" r="2.5667307845489202" fill="#D2691E" fill-opacity="0.5519365663719125" />
<circle cx="143.32339110218135" cy="78.16353261303897" r="3.3317746542189446" fill="#FFFFFF" fill-opacity="0.5258930935368162" />
<circle cx="27.6807764114904" cy="116.32760331917066" r="4.844874817121681" fill="#8B4513" fill-opacity="0.2463730822768042" />
<circle cx="81.12428645346122" cy="80.13210757854755" r="5.3237190039237605" fill="#8B4513" fill-opacity="0.3705511802033092" />
<circle cx="109.73599958353944" cy="71.09030480301197" r="2.7119684327514766" fill="#8B4513" fill-opacity="0.5189177911770717" />
<circle cx="110.07419302959639" cy="82.49427553174596" r="2.802549383116576" fill="#8B4513" fill-opacity="0.3238079527164615" />
<circle cx="121.39571246083042" cy="85.67995620399505" r="3.355095970223367" fill="#8B4513" fill-opacity="0.3767743062096609" />
<circle cx="145.00014215027818" cy="71.55778142528854" r="4.281257789280332" fill="#D2691E" fill-opacity="0.3786887880771366" />
<circle cx="77.7416282672753" cy="166.35491348661017" r="4.690843883982353" fill="#FFDE75" fill-opacity="0.58080602754413" />
<circle cx="184.52068812073838" cy="114.8743994488831" r="4.326314280084841" fill="#FFDE75" fill-opacity="0.2990414944071512" />
<circle cx="51.12512893036677" cy="66.58768791484685" r="2.554974716578198" fill="#FFDE75" fill-opacity="0.22738060096932503" />
<circle cx="55.81384711937229" cy="78.90623603339668" r="4.736479248061144" fill="#FFFFFF" fill-opacity="0.3597541308856534" />
<circle cx="179.27649469733785" cy="85.27207529490363" r="3.9340517981972685" fill="#FFDE75" fill-opacity="0.5955023485858363" />
<circle cx="84.04905716679747" cy="83.91508278983957" r="5.889551103768176" fill="#FFDE75" fill-opacity="0.3163703658892501" />
<circle cx="69.96270905929595" cy="172.58720064503768" r="3.8332599412450845" fill="#FFDE75" fill-opacity="0.3836319707277002" />
<circle cx="150.01469941602122" cy="95.4134965246942" r="2.8386044609085546" fill="#8B4513" fill-opacity="0.5910936019860196" />
<circle cx="76.14041774901865" cy="77.67673522927342" r="4.132651546118581" fill="#D2691E" fill-opacity="0.39727000377692057" />
<circle cx="104.70687790811465" cy="171.56992778495234" r="5.712608568314556" fill="#FFFFFF" fill-opacity="0.37238372050796825" />
<circle cx="72.86425619726836" cy="131.25012750151066" r="2.8445241697398775" fill="#FFFFFF" fill-opacity="0.5130673924416598" />
<circle cx="139.3671437442668" cy="68.27342377049145" r="5.9807386016809785" fill="#D2691E" fill-opacity="0.5717499532410943" />
<circle cx="137.7259104634552" cy="126.55261754129934" r="3.2848692683343255" fill="#D2691E" fill-opacity="0.46497980421808977" />
<circle cx="106.15573127469834" cy="184.401208603088" r="4.927180400958758" fill="#D2691E" fill-opacity="0.20619711954524603" />
<circle cx="49.523711474241566" cy="59.24464174217631" r="5.718010110033804" fill="#8B4513" fill-opacity="0.48634908543897787" />
<circle cx="131.39575175346425" cy="155.77947816909713" r="4.344705189525531" fill="#8B4513" fill-opacity="0.4033398834760761" />
<circle cx="115.47946808506441" cy="146.98467050197848" r="4.5703225705532695" fill="#FFFFFF" fill-opacity="0.37377996537672237" />
<circle cx="74.25000081900971" cy="80.44530113820394" r="2.25887196401048" fill="#D2691E" fill-opacity="0.29888536490888673" />
<circle cx="122.70253355117453" cy="97.22209285997516" r="2.8532315114218503" fill="#D2691E" fill-opacity="0.39954444578043213" />
<circle cx="162.29939345660094" cy="161.70582613262067" r="2.9322563448692964" fill="#FFFFFF" fill-opacity="0.4485122535925812" />
<circle cx="52.32576500233211" cy="99.79712422104359" r="2.6456019390207537" fill="#FFFFFF" fill-opacity="0.3792315238925664" />
<circle cx="90.24458987564763" cy="112.62586621573041" r="2.0333929179598687" fill="#FFDE75" fill-opacity="0.2107072734659565" />
<circle cx="101.12451275630677" cy="125.46260851328982" r="3.7298848018732826" fill="#D2691E" fill-opacity="0.5613685689454428" />
<circle cx="63.17739780964291" cy="148.34376424899375" r="5.364546171161596" fill="#FFFFFF" fill-opacity="0.26824393421270776" />
<circle cx="81.20700511809935" cy="42.94098612278138" r="5.042077097164567" fill="#D2691E" fill-opacity="0.39120145063943695" />
<circle cx="37.37029974997694" cy="133.8844196029279" r="3.730134549235689" fill="#FFFFFF" fill-opacity="0.41994235513582634" />
<circle cx="165.86502625006005" cy="101.48316381810878" r="3.09689100384197" fill="#FFFFFF" fill-opacity="0.31136853787646435" />
<circle cx="76.84579986846765" cy="152.45063642645874" r="3.9588616548114075" fill="#8B4513" fill-opacity="0.4354748700184007" />
<circle cx="102.75527130059834" cy="162.79011159440216" r="3.3161305193301813" fill="#8B4513" fill-opacity="0.5030875665505572" />
<circle cx="172.99744083148832" cy="139.12537377802383" r="4.032351647154483" fill="#FFFFFF" fill-opacity="0.5348873326455708" />
<circle cx="80.44365004787775" cy="93.85928639567527" r="5.644803846832502" fill="#8B4513" fill-opacity="0.4635770669529928" />
<circle cx="133.61083688647477" cy="146.0020780294874" r="3.8933385479058833" fill="#FFDE75" fill-opacity="0.5157071037409896" />
<circle cx="84.64020320692029" cy="32.79303500968349" r="3.1598040513545156" fill="#FFFFFF" fill-opacity="0.467091809113158" />
<circle cx="116.19058752138722" cy="39.40093909129823" r="5.257956133870226" fill="#FFDE75" fill-opacity="0.3596099049328822" />
<circle cx="97.95801365637837" cy="185.77940174801583" r="3.479838573174622" fill="#8B4513" fill-opacity="0.37344036184184803" />
<circle cx="81.56469162096558" cy="58.22752478726909" r="2.012428682153617" fill="#FFFFFF" fill-opacity="0.2940142735304127" />
<circle cx="155.10783206000946" cy="95.13712697055065" r="5.773999421689834" fill="#FFDE75" fill-opacity="0.2904532024789282" />
<circle cx="46.385914286088905" cy="47.788809451517025" r="5.587444974216989" fill="#FFDE75" fill-opacity="0.2511462723949445" />
<circle cx="147.7452604977234" cy="35.08289302241667" r="4.658556056095506" fill="#8B4513" fill-opacity="0.20883666247513186" />
<circle cx="61.609141243578975" cy="45.003873543696905" r="3.677543795831292" fill="#8B4513" fill-opacity="0.3776147752388145" />
<circle cx="161.71435151697358" cy="121.71670934359692" r="4.129592540209677" fill="#FFFFFF" fill-opacity="0.2555379090857428" />
<circle cx="129.62259023043788" cy="95.30962595850286" r="4.531902317790024" fill="#FFDE75" fill-opacity="0.5082060962126554" />
<circle cx="87.81181961096965" cy="59.0037966819698" r="5.5623489568333095" fill="#8B4513" fill-opacity="0.5610266462356484" />
<ellipse cx="63.523873951719615" cy="72.5391548668623" rx="6.11819915397119" ry="4.0609554059974435" fill="#FFFDF0" fill-opacity="0.6" />
<ellipse cx="64.44889568421674" cy="73.38520683252533" rx="4.792327822190079" ry="2.5796189156458467" fill="#FFFFFF" fill-opacity="0.85" />
<ellipse cx="50.81866640484266" cy="116.60737397225326" rx="7.2705748282995435" ry="7.774636280321746" fill="#FFFDF0" fill-opacity="0.6" />
<ellipse cx="51.695597941017304" cy="115.80435138868296" rx="4.830394676244126" ry="2.789660235430894" fill="#FFFFFF" fill-opacity="0.85" />
<ellipse cx="107.20419721188563" cy="173.89574190437781" rx="6.875483576018846" ry="7.064408446320154" fill="#FFFDF0" fill-opacity="0.6" />
<ellipse cx="107.81857388882364" cy="174.4944227378638" rx="2.7938869930992403" ry="2.441780899937162" fill="#FFFFFF" fill-opacity="0.85" />
<ellipse cx="148.68747569073963" cy="57.936189273094136" rx="5.8793875708462515" ry="6.583703744418619" fill="#FFFDF0" fill-opacity="0.6" />
<ellipse cx="149.5815738845214" cy="58.53380147187645" rx="2.277242749412318" ry="2.9722054937549895" fill="#FFFFFF" fill-opacity="0.85" />
<ellipse cx="94.28224424561256" cy="44.95758220733284" rx="5.184563378936917" ry="8.662939673696691" fill="#FFFDF0" fill-opacity="0.6" />
<ellipse cx="93.60036457964846" cy="45.626347106390135" rx="4.54537930855202" ry="3.915022059421493" fill="#FFFFFF" fill-opacity="0.85" />
<ellipse cx="140.69077266311572" cy="153.16063070867466" rx="7.250572713500457" ry="4.927181426047988" fill="#FFFDF0" fill-opacity="0.6" />
<ellipse cx="140.37130227487637" cy="154.07658981660254" rx="2.9419567111076037" ry="3.67429591636578" fill="#FFFFFF" fill-opacity="0.85" />
<ellipse cx="159.64947574080512" cy="142.16452759512663" rx="6.93263261693786" ry="6.930481380125675" fill="#FFFDF0" fill-opacity="0.6" />
<ellipse cx="160.061703246672" cy="141.55043541102043" rx="4.178662402311229" ry="2.3950625863126245" fill="#FFFFFF" fill-opacity="0.85" />
<ellipse cx="148.8026881991297" cy="54.4702138834021" rx="6.14072933591805" ry="6.090915671538185" fill="#FFFDF0" fill-opacity="0.6" />
<ellipse cx="149.77340929115203" cy="55.17719321154924" rx="4.360608868186174" ry="3.0175549545933373" fill="#FFFFFF" fill-opacity="0.85" />
<ellipse cx="94.2382571594336" cy="113.0861641214771" rx="9.773146826667785" ry="5.2111956718158225" fill="#FFFDF0" fill-opacity="0.6" />
<ellipse cx="94.13987737394129" cy="113.9537869684673" rx="3.355026988675668" ry="3.142724770190627" fill="#FFFFFF" fill-opacity="0.85" />
<ellipse cx="150.34215017544034" cy="102.24190100253935" rx="6.273219510360914" ry="4.4329179286636435" fill="#FFFDF0" fill-opacity="0.6" />
<ellipse cx="150.9828237545099" cy="101.99850242487389" rx="2.3128760556652055" ry="3.685190700524675" fill="#FFFFFF" fill-opacity="0.85" />
<ellipse cx="51.52302770742813" cy="105.16785086273441" rx="6.865939092959856" ry="5.426444165347091" fill="#FFFDF0" fill-opacity="0.6" />
<ellipse cx="51.63429049900991" cy="105.23407804813847" rx="4.134368672314558" ry="2.870789315185962" fill="#FFFFFF" fill-opacity="0.85" />
<ellipse cx="38.93256304554656" cy="134.2409091223346" rx="5.092139025842649" ry="8.754477177679846" fill="#FFFDF0" fill-opacity="0.6" />
<ellipse cx="38.053655202336344" cy="135.20598771522012" rx="2.1419070128049036" ry="2.2154484518238933" fill="#FFFFFF" fill-opacity="0.85" />
</g>
<path d="M105.0,105.0 L105.0,5.0" stroke="lightgray" stroke-width="2" />
<path d="M105.0,105.0 L205.0,105.0" stroke="lightgray" stroke-width="2" />
<path d="M105.0,105.0 L105.0,205.0" stroke="lightgray" stroke-width="2" />
<path d="M105.0,105.0 L5.0,105.00000000000001" stroke="lightgray" stroke-width="2" />
<circle cx="105.0" cy="105.0" r="100" fill="none" stroke="lightgray" stroke-width="2" />
</g>
</svg>
<svg x="225.0" y="0.0" width="210.0" height="210.0" viewBox="0 0 210 210" xmlns="http://www.w3.org/2000/svg" xmlns:xlink="http://www.w3.org/1999/xlink">
<defs>
<clipPath id="clip-4530374368-4465445200">
<circle cx="105.0" cy="105.0" r="100" fill="none" />
</clipPath>
</defs>
<g>
<circle cx="105.0" cy="105.0" r="100" fill="#F5C754" />
<use xlink:href="#clip-4530374368-4465445200" />
<g clip-path="url(#clip-4530374368-4465445200)">
<circle cx="105.0" cy="105.0" r="92" stroke="#DAA05D" stroke-width="16" fill="none" />
<circle cx="105.0" cy="105.0" r="98" stroke="#C37B32" stroke-width="5" fill="none" />
<circle cx="154.03204700862017" cy="62.07346624644393" r="3.427357833437919" fill="#D2691E" fill-opacity="0.3878373481115617" />
<circle cx="128.05720892979554" cy="97.84620771673893" r="3.224249576233936" fill="#D2691E" fill-opacity="0.33677566709731127" />
<circle cx="52.34369022733159" cy="157.6889337422072" r="4.090580353834306" fill="#FFDE75" fill-opacity="0.4013931787074147" />
<circle cx="160.84429194349215" cy="41.40018868184746" r="3.287787121886752" fill="#FFFFFF" fill-opacity="0.4500197056689506" />
<circle cx="186.32220575633585" cy="115.19865221611636" r="2.114138932861141" fill="#D2691E" fill-opacity="0.5434218643248989" />
<circle cx="162.3885334083706" cy="108.34648000720281" r="2.3860065377365722" fill="#FFDE75" fill-opacity="0.5480710500423827" />
<circle cx="102.28748371740149" cy="85.32260856209174" r="4.737078478158779" fill="#FFFFFF" fill-opacity="0.41698070870196496" />
<circle cx="73.06986055919809" cy="117.59727284284521" r="5.7060920284605094" fill="#FFFFFF" fill-opacity="0.32236381801922565" />
<circle cx="174.20725043959493" cy="110.52985534262955" r="5.447429382169771" fill="#FFDE75" fill-opacity="0.2630827207232935" />
<circle cx="106.1255751645418" cy="167.97891074539052" r="2.5667307845489202" fill="#D2691E" fill-opacity="0.5519365663719125" />
<circle cx="143.32339110218135" cy="78.16353261303897" r="3.3317746542189446" fill="#FFFFFF" fill-opacity="0.5258930935368162" />
<circle cx="27.6807764114904" cy="116.32760331917066" r="4.844874817121681" fill="#8B4513" fill-opacity="0.2463730822768042" />
<circle cx="81.12428645346122" cy="80.13210757854755" r="5.3237190039237605" fill="#8B4513" fill-opacity="0.3705511802033092" />
<circle cx="109.73599958353944" cy="71.09030480301197" r="2.7119684327514766" fill="#8B4513" fill-opacity="0.5189177911770717" />
<circle cx="110.07419302959639" cy="82.49427553174596" r="2.802549383116576" fill="#8B4513" fill-opacity="0.3238079527164615" />
<circle cx="121.39571246083042" cy="85.67995620399505" r="3.355095970223367" fill="#8B4513" fill-opacity="0.3767743062096609" />
<circle cx="145.00014215027818" cy="71.55778142528854" r="4.281257789280332" fill="#D2691E" fill-opacity="0.3786887880771366" />
<circle cx="77.7416282672753" cy="166.35491348661017" r="4.690843883982353" fill="#FFDE75" fill-opacity="0.58080602754413" />
<circle cx="184.52068812073838" cy="114.8743994488831" r="4.326314280084841" fill="#FFDE75" fill-opacity="0.2990414944071512" />
<circle cx="51.12512893036677" cy="66.58768791484685" r="2.554974716578198" fill="#FFDE75" fill-opacity="0.22738060096932503" />
<circle cx="55.81384711937229" cy="78.90623603339668" r="4.736479248061144" fill="#FFFFFF" fill-opacity="0.3597541308856534" />
<circle cx="179.27649469733785" cy="85.27207529490363" r="3.9340517981972685" fill="#FFDE75" fill-opacity="0.5955023485858363" />
<circle cx="84.04905716679747" cy="83.91508278983957" r="5.889551103768176" fill="#FFDE75" fill-opacity="0.3163703658892501" />
<circle cx="69.96270905929595" cy="172.58720064503768" r="3.8332599412450845" fill="#FFDE75" fill-opacity="0.3836319707277002" />
<circle cx="150.01469941602122" cy="95.4134965246942" r="2.8386044609085546" fill="#8B4513" fill-opacity="0.5910936019860196" />
<circle cx="76.14041774901865" cy="77.67673522927342" r="4.132651546118581" fill="#D2691E" fill-opacity="0.39727000377692057" />
<circle cx="104.70687790811465" cy="171.56992778495234" r="5.712608568314556" fill="#FFFFFF" fill-opacity="0.37238372050796825" />
<circle cx="72.86425619726836" cy="131.25012750151066" r="2.8445241697398775" fill="#FFFFFF" fill-opacity="0.5130673924416598" />
<circle cx="139.3671437442668" cy="68.27342377049145" r="5.9807386016809785" fill="#D2691E" fill-opacity="0.5717499532410943" />
<circle cx="137.7259104634552" cy="126.55261754129934" r="3.2848692683343255" fill="#D2691E" fill-opacity="0.46497980421808977" />
<circle cx="106.15573127469834" cy="184.401208603088" r="4.927180400958758" fill="#D2691E" fill-opacity="0.20619711954524603" />
<circle cx="49.523711474241566" cy="59.24464174217631" r="5.718010110033804" fill="#8B4513" fill-opacity="0.48634908543897787" />
<circle cx="131.39575175346425" cy="155.77947816909713" r="4.344705189525531" fill="#8B4513" fill-opacity="0.4033398834760761" />
<circle cx="115.47946808506441" cy="146.98467050197848" r="4.5703225705532695" fill="#FFFFFF" fill-opacity="0.37377996537672237" />
<circle cx="74.25000081900971" cy="80.44530113820394" r="2.25887196401048" fill="#D2691E" fill-opacity="0.29888536490888673" />
<circle cx="122.70253355117453" cy="97.22209285997516" r="2.8532315114218503" fill="#D2691E" fill-opacity="0.39954444578043213" />
<circle cx="162.29939345660094" cy="161.70582613262067" r="2.9322563448692964" fill="#FFFFFF" fill-opacity="0.4485122535925812" />
<circle cx="52.32576500233211" cy="99.79712422104359" r="2.6456019390207537" fill="#FFFFFF" fill-opacity="0.3792315238925664" />
<circle cx="90.24458987564763" cy="112.62586621573041" r="2.0333929179598687" fill="#FFDE75" fill-opacity="0.2107072734659565" />
<circle cx="101.12451275630677" cy="125.46260851328982" r="3.7298848018732826" fill="#D2691E" fill-opacity="0.5613685689454428" />
<circle cx="63.17739780964291" cy="148.34376424899375" r="5.364546171161596" fill="#FFFFFF" fill-opacity="0.26824393421270776" />
<circle cx="81.20700511809935" cy="42.94098612278138" r="5.042077097164567" fill="#D2691E" fill-opacity="0.39120145063943695" />
<circle cx="37.37029974997694" cy="133.8844196029279" r="3.730134549235689" fill="#FFFFFF" fill-opacity="0.41994235513582634" />
<circle cx="165.86502625006005" cy="101.48316381810878" r="3.09689100384197" fill="#FFFFFF" fill-opacity="0.31136853787646435" />
<circle cx="76.84579986846765" cy="152.45063642645874" r="3.9588616548114075" fill="#8B4513" fill-opacity="0.4354748700184007" />
<circle cx="102.75527130059834" cy="162.79011159440216" r="3.3161305193301813" fill="#8B4513" fill-opacity="0.5030875665505572" />
<circle cx="172.99744083148832" cy="139.12537377802383" r="4.032351647154483" fill="#FFFFFF" fill-opacity="0.5348873326455708" />
<circle cx="80.44365004787775" cy="93.85928639567527" r="5.644803846832502" fill="#8B4513" fill-opacity="0.4635770669529928" />
<circle cx="133.61083688647477" cy="146.0020780294874" r="3.8933385479058833" fill="#FFDE75" fill-opacity="0.5157071037409896" />
<circle cx="84.64020320692029" cy="32.79303500968349" r="3.1598040513545156" fill="#FFFFFF" fill-opacity="0.467091809113158" />
<circle cx="116.19058752138722" cy="39.40093909129823" r="5.257956133870226" fill="#FFDE75" fill-opacity="0.3596099049328822" />
<circle cx="97.95801365637837" cy="185.77940174801583" r="3.479838573174622" fill="#8B4513" fill-opacity="0.37344036184184803" />
<circle cx="81.56469162096558" cy="58.22752478726909" r="2.012428682153617" fill="#FFFFFF" fill-opacity="0.2940142735304127" />
<circle cx="155.10783206000946" cy="95.13712697055065" r="5.773999421689834" fill="#FFDE75" fill-opacity="0.2904532024789282" />
<circle cx="46.385914286088905" cy="47.788809451517025" r="5.587444974216989" fill="#FFDE75" fill-opacity="0.2511462723949445" />
<circle cx="147.7452604977234" cy="35.08289302241667" r="4.658556056095506" fill="#8B4513" fill-opacity="0.20883666247513186" />
<circle cx="61.609141243578975" cy="45.003873543696905" r="3.677543795831292" fill="#8B4513" fill-opacity="0.3776147752388145" />
<circle cx="161.71435151697358" cy="121.71670934359692" r="4.129592540209677" fill="#FFFFFF" fill-opacity="0.2555379090857428" />
<circle cx="129.62259023043788" cy="95.30962595850286" r="4.531902317790024" fill="#FFDE75" fill-opacity="0.5082060962126554" />
<circle cx="87.81181961096965" cy="59.0037966819698" r="5.5623489568333095" fill="#8B4513" fill-opacity="0.5610266462356484" />
<ellipse cx="63.523873951719615" cy="72.5391548668623" rx="6.11819915397119" ry="4.0609554059974435" fill="#FFFDF0" fill-opacity="0.6" />
<ellipse cx="64.44889568421674" cy="73.38520683252533" rx="4.792327822190079" ry="2.5796189156458467" fill="#FFFFFF" fill-opacity="0.85" />
<ellipse cx="50.81866640484266" cy="116.60737397225326" rx="7.2705748282995435" ry="7.774636280321746" fill="#FFFDF0" fill-opacity="0.6" />
<ellipse cx="51.695597941017304" cy="115.80435138868296" rx="4.830394676244126" ry="2.789660235430894" fill="#FFFFFF" fill-opacity="0.85" />
<ellipse cx="107.20419721188563" cy="173.89574190437781" rx="6.875483576018846" ry="7.064408446320154" fill="#FFFDF0" fill-opacity="0.6" />
<ellipse cx="107.81857388882364" cy="174.4944227378638" rx="2.7938869930992403" ry="2.441780899937162" fill="#FFFFFF" fill-opacity="0.85" />
<ellipse cx="148.68747569073963" cy="57.936189273094136" rx="5.8793875708462515" ry="6.583703744418619" fill="#FFFDF0" fill-opacity="0.6" />
<ellipse cx="149.5815738845214" cy="58.53380147187645" rx="2.277242749412318" ry="2.9722054937549895" fill="#FFFFFF" fill-opacity="0.85" />
<ellipse cx="94.28224424561256" cy="44.95758220733284" rx="5.184563378936917" ry="8.662939673696691" fill="#FFFDF0" fill-opacity="0.6" />
<ellipse cx="93.60036457964846" cy="45.626347106390135" rx="4.54537930855202" ry="3.915022059421493" fill="#FFFFFF" fill-opacity="0.85" />
<ellipse cx="140.69077266311572" cy="153.16063070867466" rx="7.250572713500457" ry="4.927181426047988" fill="#FFFDF0" fill-opacity="0.6" />
<ellipse cx="140.37130227487637" cy="154.07658981660254" rx="2.9419567111076037" ry="3.67429591636578" fill="#FFFFFF" fill-opacity="0.85" />
<ellipse cx="159.64947574080512" cy="142.16452759512663" rx="6.93263261693786" ry="6.930481380125675" fill="#FFFDF0" fill-opacity="0.6" />
<ellipse cx="160.061703246672" cy="141.55043541102043" rx="4.178662402311229" ry="2.3950625863126245" fill="#FFFFFF" fill-opacity="0.85" />
<ellipse cx="148.8026881991297" cy="54.4702138834021" rx="6.14072933591805" ry="6.090915671538185" fill="#FFFDF0" fill-opacity="0.6" />
<ellipse cx="149.77340929115203" cy="55.17719321154924" rx="4.360608868186174" ry="3.0175549545933373" fill="#FFFFFF" fill-opacity="0.85" />
<ellipse cx="94.2382571594336" cy="113.0861641214771" rx="9.773146826667785" ry="5.2111956718158225" fill="#FFFDF0" fill-opacity="0.6" />
<ellipse cx="94.13987737394129" cy="113.9537869684673" rx="3.355026988675668" ry="3.142724770190627" fill="#FFFFFF" fill-opacity="0.85" />
<ellipse cx="150.34215017544034" cy="102.24190100253935" rx="6.273219510360914" ry="4.4329179286636435" fill="#FFFDF0" fill-opacity="0.6" />
<ellipse cx="150.9828237545099" cy="101.99850242487389" rx="2.3128760556652055" ry="3.685190700524675" fill="#FFFFFF" fill-opacity="0.85" />
<ellipse cx="51.52302770742813" cy="105.16785086273441" rx="6.865939092959856" ry="5.426444165347091" fill="#FFFDF0" fill-opacity="0.6" />
<ellipse cx="51.63429049900991" cy="105.23407804813847" rx="4.134368672314558" ry="2.870789315185962" fill="#FFFFFF" fill-opacity="0.85" />
<ellipse cx="38.93256304554656" cy="134.2409091223346" rx="5.092139025842649" ry="8.754477177679846" fill="#FFFDF0" fill-opacity="0.6" />
<ellipse cx="38.053655202336344" cy="135.20598771522012" rx="2.1419070128049036" ry="2.2154484518238933" fill="#FFFFFF" fill-opacity="0.85" />
</g>
<path d="M105.0,105.0 L105.0,5.0" stroke="lightgray" stroke-width="2" />
<path d="M105.0,105.0 L205.0,105.0" stroke="lightgray" stroke-width="2" />
<path d="M105.0,105.0 L105.0,205.0" stroke="lightgray" stroke-width="2" />
<path d="M105.0,105.0 L5.0,105.00000000000001" stroke="lightgray" stroke-width="2" />
<circle cx="105.0" cy="105.0" r="100" fill="none" stroke="lightgray" stroke-width="2" />
</g>
</svg>
</svg>