<?xml version="1.0" encoding="UTF-8"?>
<svg xmlns="http://www.w3.org/2000/svg" xmlns:xlink="http://www.w3.org/1999/xlink"
     width="284.0" height="210" viewBox="0 0 284.0 210">
<defs>
<clipPath id="clip-4530280464-4465445072">
<circle cx="105.0" cy="105.0" r="100" fill="none" />
</clipPath>
</defs>
<g>
<circle cx="105.0" cy="105.0" r="100" fill="#F5C754" />
<use xlink:href="#clip-4530280464-4465445072" />
<g clip-path="url(#clip-4530280464-4465445072)">
<circle cx="105.0" cy="105.0" r="92" stroke="#DAA05D" stroke-width="16" fill="none" />
<circle cx="105.0" cy="105.0" r="98" stroke="#C37B32" stroke-width="5" fill="none" />
<circle cx="134.61024763585053" cy="59.31019578520335" r="5.1196490064193885" fill="#FFFFFF" fill-opacity="0.5824826625298041" />
<circle cx="95.98286785030818" cy="147.59687047821865" r="3.2407454817149683" fill="#FFDE75" fill-opacity="0.2746852734516506" />
<circle cx="121.42925220570783" cy="78.30264705689221" r="2.8181118371511307" fill="#8B4513" fill-opacity="0.5569605400124013" />
<circle cx="120.11654661079295" cy="78.12683034382324" r="4.917728591766853" fill="#8B4513" fill-opacity="0.3944742307441921" />
<circle cx="43.133199268990836" cy="94.76887145149287" r="2.604254790236096" fill="#FFDE75" fill-opacity="0.5530429626015262" />
<circle cx="187.06484227141172" cy="127.02627955188606" r="5.916711560289465" fill="#FFDE75" fill-opacity="0.5444060224116537" />
<circle cx="67.29117760817968" cy="43.355600632505244" r="3.804662491369246" fill="#FFDE75" fill-opacity="0.4161084279734465" />
<circle cx="128.32998062923508" cy="89.87724309956721" r="3.017707874775768" fill="#FFDE75" fill-opacity="0.5685907078506417" />
<circle cx="68.30322211012565" cy="29.374219082395612" r="5.196486504152909" fill="#8B4513" fill-opacity="0.48028569264913856" />
<circle cx="54.266022175616776" cy="62.60741300556521" r="5.629178606896131" fill="#8B4513" fill-opacity="0.345302641049959" />
<circle cx="50.08166075111304" cy="151.39323673562834" r="5.966145205948941" fill="#D2691E" fill-opacity="0.3080271584570086" />
<circle cx="69.03105197755255" cy="102.62784549399119" r="3.601563363163549" fill="#FFDE75" fill-opacity="0.562204357336616" />
<circle cx="156.0865759392241" cy="40.46320774664183" r="2.84667678923111" fill="#FFFFFF" fill-opacity="0.3955358358355482" />
<circle cx="53.19301001894895" cy="70.45753079023143" r="5.034564894254681" fill="#8B4513" fill-opacity="0.35936878052340165" />
<circle cx="116.60991099358834" cy="26.875778388999407" r="5.5965751498888165" fill="#8B4513" fill-opacity="0.36854422894911143" />
<circle cx="183.23682312424796" cy="111.95038581255326" r="5.886631196852637" fill="#FFFFFF" fill-opacity="0.24049870781107857" />
<circle cx="32.59870578049414" cy="136.0963897769922" r="5.169771595256714" fill="#8B4513" fill-opacity="0.20505659961482367" />
<circle cx="83.99058380848282" cy="101.7250619973754" r="5.175365989213052" fill="#FFFFFF" fill-opacity="0.2262456642784664" />
<circle cx="99.82421554205287" cy="174.64356975745193" r="5.018578383724848" fill="#D2691E" fill-opacity="0.48436397920229474" />
<circle cx="150.58175229458908" cy="53.14419390043982" r="2.484578737716494" fill="#FFFFFF" fill-opacity="0.5329109455655651" />
<circle cx="103.86722857612682" cy="36.745752139630184" r="2.2618647151232696" fill="#8B4513" fill-opacity="0.31348788386831056" />
<circle cx="129.1451866546508" cy="24.166520259913327" r="5.316040222737154" fill="#D2691E" fill-opacity="0.47133784075433893" />
<circle cx="37.070488237389256" cy="94.2722375293598" r="2.898605966436424" fill="#8B4513" fill-opacity="0.5150733646352444" />
<circle cx="90.49369730267125" cy="84.11528786627379" r="3.089390315477928" fill="#D2691E" fill-opacity="0.481991462101123" />
<circle cx="127.5975750492967" cy="30.304651501339094" r="2.608336947983762" fill="#FFDE75" fill-opacity="0.5101872321307139" />
<circle cx="105.30860849482684" cy="165.18203291488987" r="4.632006945203165" fill="#8B4513" fill-opacity="0.44773505437282596" />
<circle cx="139.04856182253147" cy="88.52199365850767" r="2.9765237189292297" fill="#8B4513" fill-opacity="0.37426570160173" />
<circle cx="35.90880413048177" cy="86.2724990310244" r="3.6517117424293577" fill="#D2691E" fill-opacity="0.5108311741962224" />
<circle cx="42.45354145620582" cy="131.7547032571919" r="5.0601559927154804" fill="#FFDE75" fill-opacity="0.20132367817727292" />
<circle cx="92.19933093522371" cy="74.26681782008642" r="3.2529128495750066" fill="#FFDE75" fill-opacity="0.28645639908301124" />
<circle cx="184.48539046753945" cy="91.58737960428036" r="5.500857982458768" fill="#FFDE75" fill-opacity="0.574686190101696" />
<circle cx="160.03695831210993" cy="151.738270699516" r="4.308418813052123" fill="#D2691E" fill-opacity="0.5419061071510278" />
<circle cx="83.20630070212611" cy="94.63213038090387" r="3.5657458877378105" fill="#D2691E" fill-opacity="0.3506566818569744" />
<circle cx="189.10056434243666" cy="98.3810624426565" r="4.026309300119464" fill="#FFFFFF" fill-opacity="0.3560886297760817" />
<circle cx="38.7169248764547" cy="119.40807358998127" r="5.11186121022542" fill="#FFFFFF" fill-opacity="0.35968993203467303" />
<circle cx="52.63041050379195" cy="97.18136847742278" r="5.464986672711277" fill="#FFDE75" fill-opacity="0.46649519947962403" />
<circle cx="115.23914154144589" cy="125.35819519867637" r="3.3553545115479353" fill="#FFFFFF" fill-opacity="0.5651511877977216" />
<circle cx="168.1018080957337" cy="136.42788218349966" r="5.28771600130634" fill="#FFFFFF" fill-opacity="0.43536112961517703" />
<circle cx="85.95774628379866" cy="174.10549181184382" r="5.735810478186046" fill="#D2691E" fill-opacity="0.22948969439835665" />
<circle cx="61.89273419948762" cy="143.52615762216865" r="3.4890111548817706" fill="#FFFFFF" fill-opacity="0.27306188687179234" />
<circle cx="88.18425585925216" cy="163.0384512904251" r="4.348355108773218" fill="#FFFFFF" fill-opacity="0.4264019058772965" />
<circle cx="162.18736809236293" cy="150.52231430703236" r="4.1821502054529205" fill="#FFFFFF" fill-opacity="0.5295898334942635" />
<circle cx="53.754555124573514" cy="164.56793474246513" r="2.7649298013379413" fill="#FFFFFF" fill-opacity="0.5435888386203593" />
<circle cx="62.808374958336444" cy="109.29774091024458" r="4.012350732336042" fill="#8B4513" fill-opacity="0.328530812323257" />
<circle cx="174.1281019871211" cy="109.57793030411622" r="2.8290972351883625" fill="#FFFFFF" fill-opacity="0.26274145935764" />
<circle cx="81.03241412188123" cy="42.288111790816515" r="2.5403959671995637" fill="#D2691E" fill-opacity="0.5729783187977253" />
<circle cx="71.1722516039954" cy="123.0166039253752" r="2.994577880725789" fill="#8B4513" fill-opacity="0.42870777141585353" />
<circle cx="152.65224242118404" cy="42.865884966659316" r="4.295811596339766" fill="#FFDE75" fill-opacity="0.44057967700990297" />
<circle cx="90.85160716579728" cy="91.1932730504029" r="3.5184155674208597" fill="#8B4513" fill-opacity="0.35110497657717776" />
<circle cx="29.915191628404344" cy="118.30438757788924" r="4.424441218214153" fill="#8B4513" fill-opacity="0.4920925185940841" />
<circle cx="91.19586827903417" cy="169.6905019305779" r="5.048575795718035" fill="#8B4513" fill-opacity="0.5094118113269903" />
<circle cx="153.46221592394204" cy="151.7547305494014" r="3.1820701523973076" fill="#8B4513" fill-opacity="0.27540643687964317" />
<circle cx="101.77479756254505" cy="126.31244743349055" r="4.002728306427693" fill="#8B4513" fill-opacity="0.2762944024686738" />
<circle cx="71.41134342297929" cy="98.49436448396546" r="5.00279983725212" fill="#FFFFFF" fill-opacity="0.30904724093227903" />
<circle cx="59.49403038911716" cy="169.095484392416" r="3.1479716220376592" fill="#D2691E" fill-opacity="0.5711625834545863" />
<circle cx="144.88714474875707" cy="57.262853032102875" r="2.060531626420174" fill="#D2691E" fill-opacity="0.5255153075054395" />
<circle cx="135.34525149705016" cy="36.99099501085021" r="5.081042443335159" fill="#8B4513" fill-opacity="0.42450675717032627" />
<circle cx="41.94701829239285" cy="126.90920075179471" r="3.1404771450632465" fill="#8B4513" fill-opacity="0.4997036530138802" />
<circle cx="65.5576087679802" cy="68.68728861917702" r="2.0399865306251104" fill="#FFDE75" fill-opacity="0.4278167185591404" />
<circle cx="105.92002743119203" cy="150.82198157464578" r="2.4185586900265554" fill="#FFFFFF" fill-opacity="0.43371555894010394" />
<circle cx="129.83676265750222" cy="154.8478695438469" r="5.008410949572914" fill="#FFDE75" fill-opacity="0.2505841945454334" />
<circle cx="173.99621207301226" cy="149.84671837299288" r="5.535156396600621" fill="#D2691E" fill-opacity="0.5903456393542779" />
<circle cx="152.92242140264375" cy="107.43891153260701" r="2.701604121179374" fill="#D2691E" fill-opacity="0.31492433016214666" />
<circle cx="34.89821515237435" cy="128.1923552452936" r="3.2006714323924284" fill="#8B4513" fill-opacity="0.4720778955428676" />
<circle cx="127.67632642319322" cy="136.4580175568327" r="4.677407365224436" fill="#8B4513" fill-opacity="0.4810656983206302" />
<circle cx="99.53728760860058" cy="49.73938121140563" r="2.3099848887251975" fill="#8B4513" fill-opacity="0.2580183678208941" />
<circle cx="148.86667081072545" cy="51.392848429427076" r="2.4467662129528636" fill="#FFDE75" fill-opacity="0.33595809257964626" />
<circle cx="37.332018106983284" cy="64.45374711023601" r="3.6300408651656104" fill="#8B4513" fill-opacity="0.24477280068798063" />
<circle cx="125.27548433261603" cy="125.77036679280948" r="5.131902923953023" fill="#FFFFFF" fill-opacity="0.45948620847174215" />
<circle cx="64.84554197756782" cy="175.6306149518536" r="4.5094961044501485" fill="#FFFFFF" fill-opacity="0.5351337764499393" />
<circle cx="117.78693707107921" cy="181.32551430991646" r="4.431953164564211" fill="#D2691E" fill-opacity="0.5594942061280911" />
<circle cx="161.9683259648366" cy="45.46120313079461" r="3.288025376726499" fill="#FFFFFF" fill-opacity="0.5451609143976143" />
<circle cx="167.92169760059784" cy="124.1760318426332" r="2.5801847443123807" fill="#D2691E" fill-opacity="0.3612224176785713" />
<circle cx="177.1357764259274" cy="106.1914755717425" r="3.5715033923830988" fill="#FFDE75" fill-opacity="0.26584355904174106" />
<circle cx="34.33167930152672" cy="123.93282143124597" r="5.487981804040118" fill="#8B4513" fill-opacity="0.3685993746409626" />
<ellipse cx="137.01221868731764" cy="168.89224449862746" rx="8.96197775599034" ry="4.777223633701641" fill="#FFFDF0" fill-opacity="0.6" />
<ellipse cx="137.20169646708456" cy="168.05971363725746" rx="3.3663774468605103" ry="3.606928562537772" fill="#FFFFFF" fill-opacity="0.85" />
<ellipse cx="55.70180570701314" cy="130.9538574947378" rx="5.016254266942235" ry="7.074179194502491" fill="#FFFDF0" fill-opacity="0.6" />
<ellipse cx="55.16309335299469" cy="130.30054390450385" rx="2.755385637489184" ry="2.7930894608195236" fill="#FFFFFF" fill-opacity="0.85" />
<ellipse cx="75.9440890197491" cy="68.04111407000978" rx="6.852506739258212" ry="6.830919578233412" fill="#FFFDF0" fill-opacity="0.6" />
<ellipse cx="75.52886238965849" cy="67.76243098516728" rx="4.09675290511186" ry="2.3928425726803746" fill="#FFFFFF" fill-opacity="0.85" />
<ellipse cx="138.82384341881794" cy="81.98882210558654" rx="8.753233453402359" ry="6.9549206314397125" fill="#FFFDF0" fill-opacity="0.6" />
<ellipse cx="139.23414947551828" cy="81.62298143906341" rx="2.4879326784976445" ry="3.190166627159042" fill="#FFFFFF" fill-opacity="0.85" />
<ellipse cx="153.33183600095293" cy="68.78797468078567" rx="5.935091569716978" ry="4.314837991347882" fill="#FFFDF0" fill-opacity="0.6" />
<ellipse cx="152.48686498777954" cy="69.06913139404132" rx="3.219750350233085" ry="3.271992935668938" fill="#FFFFFF" fill-opacity="0.85" />
<ellipse cx="165.143248192644" cy="129.80369012228465" rx="8.266644361129842" ry="5.133380768009991" fill="#FFFDF0" fill-opacity="0.6" />
<ellipse cx="166.0341553719053" cy="130.25367526432572" rx="3.675346348222053" ry="3.9849521391495832" fill="#FFFFFF" fill-opacity="0.85" />
<ellipse cx="159.88581536923343" cy="90.94062979844303" rx="6.716854261106377" ry="5.741861994441142" fill="#FFFDF0" fill-opacity="0.6" />
<ellipse cx="160.22496733350158" cy="90.80460046091423" rx="4.771267427905883" ry="3.806243269958834" fill="#FFFFFF" fill-opacity="0.85" />
<ellipse cx="108.2377149007689" cy="31.050341205125747" rx="9.610939972929991" ry="8.606127476536397" fill="#FFFDF0" fill-opacity="0.6" />
<ellipse cx="107.89234442155366" cy="31.463231118693983" rx="2.133284499149994" ry="3.1841452265926593" fill="#FFFFFF" fill-opacity="0.85" />
<ellipse cx="123.66419843643209" cy="139.95194958401837" rx="6.217612738633202" ry="7.564102459576968" fill="#FFFDF0" fill-opacity="0.6" />
<ellipse cx="123.46848124430248" cy="139.02200900159372" rx="3.7998297462667407" ry="3.4118453362223593" fill="#FFFFFF" fill-opacity="0.85" />
<ellipse cx="103.49562819990079" cy="142.85460197078058" rx="5.692269701376406" ry="8.085720526704339" fill="#FFFDF0" fill-opacity="0.6" />
<ellipse cx="102.86321838534512" cy="141.925374138106" rx="4.855952086648241" ry="2.33456520896102" fill="#FFFFFF" fill-opacity="0.85" />
<ellipse cx="72.59485054136302" cy="81.64813548632534" rx="9.530216400906472" ry="5.513924699101734" fill="#FFFDF0" fill-opacity="0.6" />
<ellipse cx="72.16538206578828" cy="82.51740286068568" rx="2.534626390714113" ry="2.193607085484505" fill="#FFFFFF" fill-opacity="0.85" />
<ellipse cx="130.1590823542342" cy="89.40336025732128" rx="5.609612174437387" ry="7.073120910736694" fill="#FFFDF0" fill-opacity="0.6" />
<ellipse cx="130.7750988032156" cy="88.47006693016486" rx="4.271945790401412" ry="2.0792064826436203" fill="#FFFFFF" fill-opacity="0.85" />
<ellipse cx="33.19126044117168" cy="73.81519772959598" rx="9.356214743205546" ry="7.304159540039483" fill="#FFFDF0" fill-opacity="0.6" />
<ellipse cx="33.283254035742516" cy="74.41589282728071" rx="2.696643827301574" ry="3.438363174408586" fill="#FFFFFF" fill-opacity="0.85" />
<ellipse cx="168.8673322241777" cy="115.83845127141903" rx="9.349183095163035" ry="7.846062615529505" fill="#FFFDF0" fill-opacity="0.6" />
<ellipse cx="169.38972649583442" cy="115.23826621988275" rx="3.2421085864814705" ry="3.8457832703770554" fill="#FFFFFF" fill-opacity="0.85" />
<ellipse cx="88.89809204298689" cy="135.07210781661772" rx="9.840954808565465" ry="4.03523554623196" fill="#FFFDF0" fill-opacity="0.6" />
<ellipse cx="89.02228114032792" cy="135.17615652394863" rx="4.796592885484117" ry="3.7056849292218357" fill="#FFFFFF" fill-opacity="0.85" />
</g>
<path d="M105.0,105.0 L105.0,5.0" stroke="lightgray" stroke-width="2" />
<path d="M105.0,105.0 L200.10565162951536,74.09830056250526" stroke="lightgray" stroke-width="2" />
<path d="M105.0,105.0 L163.77852522924732,185.90169943749476" stroke="lightgray" stroke-width="2" />
<path d="M105.0,105.0 L46.2214747707527,185.90169943749476" stroke="lightgray" stroke-width="2" />
<path d="M105.0,105.0 L9.894348370484636,74.09830056250527" stroke="lightgray" stroke-width="2" />
<circle cx="105.0" cy="105.0" r="100" fill="none" stroke="lightgray" stroke-width="2" />
<rect x="230.0" y="41.0" width="54.0" height="54.0" fill="none" stroke="black" stroke-width="2" />
<rect x="230.0" y="115.0" width="54.0" height="54.0" fill="none" stroke="black" stroke-width="2" />
<path d="M225.0,105.0 L289.0,105.0" stroke="black" stroke-width="2" />
</g>
</svg>