<svg xmlns="http://www.w3.org/2000/svg" xmlns:xlink="http://www.w3.org/1999/xlink" width="500px" height="383px" version="1.1" overflow="visible" id="i13dwgih">
   <desc>Engraved by Verovio 6.2.0-43f8060</desc>
   <defs>
      <g id="E050-i13dwgih">
         <path transform="scale(1,-1)" d="M441 -245c-23 -4 -48 -6 -76 -6c-59 0 -102 7 -130 20c-88 42 -150 93 -187 154c-26 44 -43 103 -48 176c0 6 -1 13 -1 19c0 54 15 111 45 170c29 57 65 106 110 148s96 85 153 127c-3 16 -8 46 -13 92c-4 43 -5 73 -5 89c0 117 16 172 69 257c34 54 64 82 89 82 c21 0 43 -30 69 -92s39 -115 41 -159v-15c0 -109 -21 -162 -67 -241c-13 -20 -63 -90 -98 -118c-13 -9 -25 -19 -37 -29l31 -181c8 1 18 2 28 2c58 0 102 -12 133 -35c59 -43 92 -104 98 -184c1 -7 1 -15 1 -22c0 -123 -87 -209 -181 -248c8 -57 17 -110 25 -162 c5 -31 6 -58 6 -80c0 -30 -5 -53 -14 -70c-35 -64 -88 -99 -158 -103c-5 0 -11 -1 -16 -1c-37 0 -72 10 -108 27c-50 24 -77 59 -80 105v11c0 29 7 55 20 76c18 28 45 42 79 44h6c49 0 93 -42 97 -87v-9c0 -51 -34 -86 -105 -106c17 -24 51 -36 102 -36c62 0 116 43 140 85 c9 16 13 41 13 74c0 20 -1 42 -5 67c-8 53 -18 106 -26 159zM461 939c-95 0 -135 -175 -135 -286c0 -24 2 -48 5 -71c50 39 92 82 127 128c40 53 60 100 60 140v8c-4 53 -22 81 -55 81h-2zM406 119l54 -326c73 25 110 78 110 161c0 7 0 15 -1 23c-7 95 -57 142 -151 142h-12 zM382 117c-72 -2 -128 -47 -128 -120v-7c2 -46 43 -99 75 -115c-3 -2 -7 -5 -10 -10c-70 33 -116 88 -123 172v11c0 68 44 126 88 159c23 17 49 29 78 36l-29 170c-21 -13 -52 -37 -92 -73c-50 -44 -86 -84 -109 -119c-45 -69 -67 -130 -67 -182v-13c5 -68 35 -127 93 -176 s125 -73 203 -73c25 0 50 3 75 9c-19 111 -36 221 -54 331z"/>
      </g>
      <g id="E084-i13dwgih">
         <path transform="scale(1,-1)" d="M20 -78c84 97 114 180 134 329h170c-13 -32 -82 -132 -99 -151l-84 -97c-33 -36 -59 -63 -80 -81h162v102l127 123v-225h57v-39h-57v-34c0 -43 19 -65 57 -65v-34h-244v36c48 0 60 26 60 70v27h-203v39z"/>
      </g>
      <g id="E4E3-i13dwgih">
         <path transform="scale(1,-1)" d="M0 -115v105c0 9 1 10 10 10h280c9 0 10 -1 10 -10v-105c0 -9 -1 -10 -10 -10h-280c-9 0 -10 1 -10 10z"/>
      </g>
      <g id="E4E4-i13dwgih">
         <path transform="scale(1,-1)" d="M0 10v105c0 9 1 10 10 10h280c9 0 10 -1 10 -10v-105c0 -9 -1 -10 -10 -10h-280c-9 0 -10 1 -10 10z"/>
      </g>
      <g id="E4E5-i13dwgih">
         <path transform="scale(1,-1)" d="M107 292c-13 24 -30 49 -52 71c-1 1 0 2 0 3l-2 2c3 3 4 4 6 4c12 0 26 -7 40 -20s44 -40 89 -81c26 -24 28 -29 46 -47c4 -4 8 -9 10 -14c6 -8 8 -16 8 -27c0 -19 -12 -40 -36 -61c-28 -23 -49 -38 -61 -73c-4 -11 -7 -27 -10 -50c13 -43 34 -83 59 -121 c31 -47 59 -79 101 -129c-8 0 -26 7 -54 20l-62 29l-21 6l-23 1c-25 0 -45 -10 -60 -30l-4 -14l-1 -12c0 -33 20 -56 39 -78c8 -9 17 -18 26 -26c17 -15 27 -24 28 -30l-3 -3c-11 5 -19 10 -25 15c-9 3 -37 21 -45 26c-24 14 -45 32 -63 51c-19 21 -37 44 -37 71 c0 63 27 95 80 95c41 0 86 -18 136 -52c-19 26 -37 48 -55 66c-23 23 -48 44 -73 65c-28 23 -47 40 -58 53s-17 26 -18 39c75 64 113 125 113 183c0 27 -7 48 -18 68z"/>
      </g>
      <g id="E4E6-i13dwgih">
         <path transform="scale(1,-1)" d="M0 123c7 34 33 56 69 60c29 -3 43 -9 53 -29c4 -8 7 -15 10 -22c0 -21 -1 -25 -11 -35c-5 -8 -18 -14 -40 -20l12 -3l15 -1c44 0 97 26 122 56c10 11 18 26 24 42c7 1 15 2 22 3l-140 -424h-36l111 330c-10 -6 -27 -12 -53 -16l-52 -8h-10l-20 1c-1 0 -8 3 -21 6 c-37 9 -55 28 -55 60z"/>
      </g>
      <g id="E4E7-i13dwgih">
         <path transform="scale(1,-1)" d="M133 -111c0 -33 -21 -50 -52 -55c10 -3 18 -4 25 -4c40 0 69 24 90 47l66 197c-36 -18 -64 -25 -112 -25c-23 0 -38 3 -45 8c-37 7 -55 27 -55 59c8 35 30 54 68 58c45 -6 49 -13 64 -48c0 -3 1 -5 1 -7c0 -27 -25 -46 -52 -49c6 -4 15 -6 26 -6c32 2 62 14 88 29 c32 19 44 36 59 71l7 1l10 2h4c-72 -220 -143 -439 -215 -659h-37l108 324c-20 -13 -51 -20 -82 -20c-21 0 -35 4 -43 10c-37 6 -55 26 -55 58c8 35 31 56 68 60c43 -8 48 -13 64 -51z"/>
      </g>
   </defs>
   <style type="text/css">#i13dwgih g.ending, #i13dwgih g.fing, #i13dwgih g.reh, #i13dwgih g.tempo {font-weight:bold;}#i13dwgih g.dir, #i13dwgih g.dynam, #i13dwgih g.mNum {font-style:italic;}#i13dwgih g.label {font-weight:normal;}#i13dwgih ellipse, #i13dwgih path, #i13dwgih polygon, #i13dwgih polyline, #i13dwgih rect {stroke:currentColor}</style>
   <svg class="definition-scale" color="black" font-family="Times, serif" viewBox="0 0 10000 7660">
      <g class="page-margin" transform="translate(500, 500)">
         <g id="j10t1hzb" class="mdiv pageMilestone"/>
         <g id="n1xp9q93" class="score pageMilestone"/>
         <g id="o1tvl0rm" class="system">
            <g id="a1te1h2" class="section systemMilestone"/>
            <g id="abcLine08" class="pb"/>
            <g id="g1sq3o0" class="measure">
               <g id="pmmde2z" class="staff">
                  <path d="M0 1086 L3104 1086" stroke-width="13"/>
                  <path d="M0 1266 L3104 1266" stroke-width="13"/>
                  <path d="M0 1446 L3104 1446" stroke-width="13"/>
                  <path d="M0 1626 L3104 1626" stroke-width="13"/>
                  <path d="M0 1806 L3104 1806" stroke-width="13"/>
                  <g id="k1xs671m" class="clef">
                     <use xlink:href="#E050-i13dwgih" transform="translate(90, 1626) scale(0.72, 0.72)"/>
                  </g>
                  <g id="lv3gl1m" class="keySig"/>
                  <g id="mt3rabu" class="meterSig">
                     <use xlink:href="#E084-i13dwgih" transform="translate(721, 1266) scale(0.72, 0.72)"/>
                     <use xlink:href="#E084-i13dwgih" transform="translate(721, 1626) scale(0.72, 0.72)"/>
                  </g>
                  <g id="c1tb9ir1" class="layer">
                     <g id="f1i5p79o" class="rest">
                        <use xlink:href="#E4E3-i13dwgih" transform="translate(1294, 1266) scale(0.72, 0.72)"/>
                        <g class="ledgerLines"/>
                     </g>
                  </g>
               </g>
               <g id="d1ycnb1k" class="harm" fill="red">
                  <text x="1407" y="908" text-anchor="middle" font-size="0px">
                     <tspan id="e162s1fx" class="text">
                        <tspan font-size="405px" x="1407" y="908">1</tspan>
                     </tspan>
                  </text>
               </g>
               <g id="o1lo41r" class="barLine">
                  <path d="M3091 1086 L3091 1806" stroke-width="27"/>
               </g>
            </g>
            <g id="vswj4td" class="measure">
               <g id="e1ivjgbx" class="staff">
                  <path d="M3104 1086 L5681 1086" stroke-width="13"/>
                  <path d="M3104 1266 L5681 1266" stroke-width="13"/>
                  <path d="M3104 1446 L5681 1446" stroke-width="13"/>
                  <path d="M3104 1626 L5681 1626" stroke-width="13"/>
                  <path d="M3104 1806 L5681 1806" stroke-width="13"/>
                  <g id="qra3odl" class="layer">
                     <g id="t1bgdve6" class="rest">
                        <use xlink:href="#E4E4-i13dwgih" transform="translate(3295, 1446) scale(0.72, 0.72)"/>
                        <g class="ledgerLines"/>
                     </g>
                     <g id="uvglzcv" class="rest">
                        <use xlink:href="#E4E4-i13dwgih" transform="translate(4482, 1446) scale(0.72, 0.72)"/>
                        <g class="ledgerLines"/>
                     </g>
                  </g>
               </g>
               <g id="ru19oqz" class="harm" fill="red">
                  <text x="3408" y="908" text-anchor="middle" font-size="0px">
                     <tspan id="s15li9r4" class="text">
                        <tspan font-size="405px" x="3408" y="908">1/2</tspan>
                     </tspan>
                  </text>
               </g>
               <g id="dahxyw1" class="barLine">
                  <path d="M5668 1086 L5668 1806" stroke-width="27"/>
               </g>
            </g>
            <g id="mgyhpg0" class="measure">
               <g id="v1jl46xq" class="staff">
                  <path d="M5681 1086 L9001 1086" stroke-width="13"/>
                  <path d="M5681 1266 L9001 1266" stroke-width="13"/>
                  <path d="M5681 1446 L9001 1446" stroke-width="13"/>
                  <path d="M5681 1626 L9001 1626" stroke-width="13"/>
                  <path d="M5681 1806 L9001 1806" stroke-width="13"/>
                  <g id="fww3b58" class="layer">
                     <g id="i1042poy" class="rest">
                        <use xlink:href="#E4E5-i13dwgih" transform="translate(5872, 1446) scale(0.72, 0.72)"/>
                     </g>
                     <g id="jyousji" class="rest">
                        <use xlink:href="#E4E5-i13dwgih" transform="translate(6651, 1446) scale(0.72, 0.72)"/>
                     </g>
                     <g id="k1g3pov6" class="rest">
                        <use xlink:href="#E4E5-i13dwgih" transform="translate(7430, 1446) scale(0.72, 0.72)"/>
                     </g>
                     <g id="lm49tcf" class="rest">
                        <use xlink:href="#E4E5-i13dwgih" transform="translate(8209, 1446) scale(0.72, 0.72)"/>
                     </g>
                  </g>
               </g>
               <g id="ghiy4j7" class="harm" fill="red">
                  <text x="5985" y="908" text-anchor="middle" font-size="0px">
                     <tspan id="hexl0nn" class="text">
                        <tspan font-size="405px" x="5985" y="908">1/4</tspan>
                     </tspan>
                  </text>
               </g>
               <g id="u1xe2384" class="barLine">
                  <path d="M8988 1086 L8988 1806" stroke-width="27"/>
               </g>
            </g>
         </g>
         <g id="r1o66gdq" class="system">
            <g id="h1f0pkqr" class="measure">
               <g id="qb705hy" class="staff">
                  <path d="M0 3246 L9000 3246" stroke-width="13"/>
                  <path d="M0 3426 L9000 3426" stroke-width="13"/>
                  <path d="M0 3606 L9000 3606" stroke-width="13"/>
                  <path d="M0 3786 L9000 3786" stroke-width="13"/>
                  <path d="M0 3966 L9000 3966" stroke-width="13"/>
                  <g id="n1i6nhqu" class="clef">
                     <use xlink:href="#E050-i13dwgih" transform="translate(90, 3786) scale(0.72, 0.72)"/>
                  </g>
                  <g id="ouyf18h" class="keySig"/>
                  <g id="w1vhl0ss" class="layer">
                     <g id="zdgg25x" class="rest">
                        <use xlink:href="#E4E6-i13dwgih" transform="translate(826, 3606) scale(0.72, 0.72)"/>
                     </g>
                     <g id="a256kd6" class="rest">
                        <use xlink:href="#E4E6-i13dwgih" transform="translate(1846, 3606) scale(0.72, 0.72)"/>
                     </g>
                     <g id="bk9ql9k" class="rest">
                        <use xlink:href="#E4E6-i13dwgih" transform="translate(2867, 3606) scale(0.72, 0.72)"/>
                     </g>
                     <g id="cy79g02" class="rest">
                        <use xlink:href="#E4E6-i13dwgih" transform="translate(3887, 3606) scale(0.72, 0.72)"/>
                     </g>
                     <g id="d13jkko5" class="rest">
                        <use xlink:href="#E4E6-i13dwgih" transform="translate(4907, 3606) scale(0.72, 0.72)"/>
                     </g>
                     <g id="e1it2u21" class="rest">
                        <use xlink:href="#E4E6-i13dwgih" transform="translate(5927, 3606) scale(0.72, 0.72)"/>
                     </g>
                     <g id="fouj3qo" class="rest">
                        <use xlink:href="#E4E6-i13dwgih" transform="translate(6947, 3606) scale(0.72, 0.72)"/>
                     </g>
                     <g id="g1ar6ui0" class="rest">
                        <use xlink:href="#E4E6-i13dwgih" transform="translate(7967, 3606) scale(0.72, 0.72)"/>
                     </g>
                  </g>
               </g>
               <g id="x4ymvne" class="harm" fill="red">
                  <text x="939" y="3068" text-anchor="middle" font-size="0px">
                     <tspan id="y1v7fn8w" class="text">
                        <tspan font-size="405px" x="939" y="3068">1/8</tspan>
                     </tspan>
                  </text>
               </g>
               <g id="pve2sgu" class="barLine">
                  <path d="M8987 3246 L8987 3966" stroke-width="27"/>
               </g>
            </g>
         </g>
         <g id="uy3udgs" class="system">
            <g id="k8a1ozp" class="measure">
               <g id="tkr3qm3" class="staff">
                  <path d="M0 5406 L9000 5406" stroke-width="13"/>
                  <path d="M0 5586 L9000 5586" stroke-width="13"/>
                  <path d="M0 5766 L9000 5766" stroke-width="13"/>
                  <path d="M0 5946 L9000 5946" stroke-width="13"/>
                  <path d="M0 6126 L9000 6126" stroke-width="13"/>
                  <g id="p4n1jfx" class="clef">
                     <use xlink:href="#E050-i13dwgih" transform="translate(90, 5946) scale(0.72, 0.72)"/>
                  </g>
                  <g id="q4wjnny" class="keySig"/>
                  <g id="r3lg1ie" class="layer">
                     <g id="u1j7b1n5" class="rest">
                        <use xlink:href="#E4E7-i13dwgih" transform="translate(837, 5766) scale(0.72, 0.72)"/>
                     </g>
                     <g id="v145ulfd" class="rest">
                        <use xlink:href="#E4E7-i13dwgih" transform="translate(1336, 5766) scale(0.72, 0.72)"/>
                     </g>
                     <g id="w15b3fn" class="rest">
                        <use xlink:href="#E4E7-i13dwgih" transform="translate(1836, 5766) scale(0.72, 0.72)"/>
                     </g>
                     <g id="x151li41" class="rest">
                        <use xlink:href="#E4E7-i13dwgih" transform="translate(2335, 5766) scale(0.72, 0.72)"/>
                     </g>
                     <g id="y129kcon" class="rest">
                        <use xlink:href="#E4E7-i13dwgih" transform="translate(2834, 5766) scale(0.72, 0.72)"/>
                     </g>
                     <g id="zb9xayv" class="rest">
                        <use xlink:href="#E4E7-i13dwgih" transform="translate(3333, 5766) scale(0.72, 0.72)"/>
                     </g>
                     <g id="a3r9duh" class="rest">
                        <use xlink:href="#E4E7-i13dwgih" transform="translate(3833, 5766) scale(0.72, 0.72)"/>
                     </g>
                     <g id="b43scq" class="rest">
                        <use xlink:href="#E4E7-i13dwgih" transform="translate(4332, 5766) scale(0.72, 0.72)"/>
                     </g>
                     <g id="c1qchesv" class="rest">
                        <use xlink:href="#E4E7-i13dwgih" transform="translate(4831, 5766) scale(0.72, 0.72)"/>
                     </g>
                     <g id="d19a5cg1" class="rest">
                        <use xlink:href="#E4E7-i13dwgih" transform="translate(5331, 5766) scale(0.72, 0.72)"/>
                     </g>
                     <g id="e1itlfeh" class="rest">
                        <use xlink:href="#E4E7-i13dwgih" transform="translate(5830, 5766) scale(0.72, 0.72)"/>
                     </g>
                     <g id="fvfayw7" class="rest">
                        <use xlink:href="#E4E7-i13dwgih" transform="translate(6329, 5766) scale(0.72, 0.72)"/>
                     </g>
                     <g id="g1wttzil" class="rest">
                        <use xlink:href="#E4E7-i13dwgih" transform="translate(6828, 5766) scale(0.72, 0.72)"/>
                     </g>
                     <g id="hwj7zeo" class="rest">
                        <use xlink:href="#E4E7-i13dwgih" transform="translate(7328, 5766) scale(0.72, 0.72)"/>
                     </g>
                     <g id="i12tdeo3" class="rest">
                        <use xlink:href="#E4E7-i13dwgih" transform="translate(7827, 5766) scale(0.72, 0.72)"/>
                     </g>
                     <g id="j1qrlajm" class="rest">
                        <use xlink:href="#E4E7-i13dwgih" transform="translate(8326, 5766) scale(0.72, 0.72)"/>
                     </g>
                  </g>
               </g>
               <g id="s90aq37" class="harm" fill="red">
                  <text x="950" y="5228" text-anchor="middle" font-size="0px">
                     <tspan id="t1j0ikh0" class="text">
                        <tspan font-size="405px" x="950" y="5228">1/16</tspan>
                     </tspan>
                  </text>
               </g>
               <g id="snnrt27" class="barLine">
                  <path d="M8825 5406 L8825 6126" stroke-width="27"/>
                  <path d="M8955 5406 L8955 6126" stroke-width="90"/>
               </g>
            </g>
            <g id="abcLine09" class="sb"/>
            <g id="d10wints" class="systemMilestoneEnd a1te1h2"/>
         </g>
         <g id="e1uyxwxr" class="pageMilestoneEnd n1xp9q93"/>
         <g id="f1kb2qbj" class="pageMilestoneEnd j10t1hzb"/>
         <g id="x1bf49v0" class="pgHead">
            <text font-size="0px">
               <tspan id="y6k8m7u" class="rend" x="4500" y="278" text-anchor="middle">
                  <tspan id="znhzymg" class="text">
                     <tspan font-size="405px">Silences</tspan>
                  </tspan>
               </tspan>
            </text>
         </g>
      </g>
   </svg>
</svg>