<?xml version="1.0" encoding="UTF-8"?>
<svg xmlns="http://www.w3.org/2000/svg" xmlns:xlink="http://www.w3.org/1999/xlink"
     width="284.0" height="210" viewBox="0 0 284.0 210">
<defs>
<clipPath id="clip-4567045520-4502198864">
<path d="M105.0,105.0 L105.0,5.0 A100,100,0,0,1,205.0,105.0 Z" fill="none" />
</clipPath>
<clipPath id="clip-4567045520-4566784976">
<path d="M105.0,105.0 L205.0,105.0 A100,100,0,0,1,105.0,205.0 Z" fill="none" />
</clipPath>
</defs>
<g>
<path d="M105.0,105.0 L105.0,5.0 A100,100,0,0,1,205.0,105.0 Z" fill="none" stroke="lightgray" stroke-width="2" />
<path d="M105.0,105.0 L205.0,105.0 A100,100,0,0,1,105.0,205.0 Z" fill="none" stroke="lightgray" stroke-width="2" />
<path d="M105.0,105.0 L105.0,205.0 A100,100,0,0,1,5.0,105.00000000000001 Z" fill="none" stroke="lightgray" stroke-width="2" />
<path d="M105.0,105.0 L5.0,105.00000000000001 A100,100,0,0,1,104.99999999999999,5.0 Z" fill="none" stroke="lightgray" stroke-width="2" />
<path d="M105.0,105.0 L105.0,5.0 A100,100,0,0,1,205.0,105.0 Z" fill="#FEF7E3" stroke="lightgray" stroke-width="2" />
<use xlink:href="#clip-4567045520-4502198864" />
<g clip-path="url(#clip-4567045520-4502198864)">
<circle cx="105.0" cy="105.0" r="92" stroke="#DAA05D" stroke-width="16" fill="none" />
<circle cx="105.0" cy="105.0" r="98" stroke="#C37B32" stroke-width="5" fill="none" />
<circle cx="76.32456596375498" cy="167.98606257802663" r="5.00514031914514" fill="#FFDE75" fill-opacity="0.252602187834765" />
<circle cx="114.87622291813987" cy="65.38819724833374" r="3.9105855760039008" fill="#D2691E" fill-opacity="0.29159076246284743" />
<circle cx="44.53027277141099" cy="142.58920674694647" r="2.7997801736555643" fill="#8B4513" fill-opacity="0.3228086205145597" />
<circle cx="100.49422153603236" cy="24.506677638769986" r="3.795567103393523" fill="#8B4513" fill-opacity="0.31326169525439407" />
<circle cx="50.859164559763805" cy="148.40303557797068" r="4.478980634575301" fill="#FFFFFF" fill-opacity="0.5262464670669691" />
<circle cx="101.06458321394062" cy="177.7452508360104" r="4.924033312540899" fill="#8B4513" fill-opacity="0.25614756201202343" />
<circle cx="25.679025501084254" cy="87.31500070078849" r="5.624271904241448" fill="#D2691E" fill-opacity="0.4654660195661134" />
<circle cx="78.98195905138344" cy="115.43777995331588" r="4.872158528355728" fill="#8B4513" fill-opacity="0.32383056882202566" />
<circle cx="62.105171441455965" cy="66.30127230588369" r="2.088980612042232" fill="#D2691E" fill-opacity="0.37368781331508616" />
<circle cx="73.92163672047272" cy="116.16922568941817" r="2.2145199816530354" fill="#FFFFFF" fill-opacity="0.46602478134740755" />
<circle cx="47.10321914482251" cy="44.13666470501667" r="5.208285743170647" fill="#D2691E" fill-opacity="0.42877750323883634" />
<circle cx="144.77490122943215" cy="40.846575049792975" r="3.0351294893736376" fill="#8B4513" fill-opacity="0.2254471655479222" />
<circle cx="153.48343523601352" cy="50.55872500998583" r="5.510664569112068" fill="#FFDE75" fill-opacity="0.41266569872748915" />
<circle cx="167.21207425076898" cy="98.75437464731272" r="3.1866311411754205" fill="#FFDE75" fill-opacity="0.22817437682227992" />
<circle cx="99.55273790410988" cy="57.713148902120196" r="2.404988679700743" fill="#FFFFFF" fill-opacity="0.5160174072524131" />
<circle cx="39.69645022199589" cy="107.6014790701267" r="4.554921829313087" fill="#FFDE75" fill-opacity="0.25458414768867343" />
<circle cx="44.35134127651689" cy="133.06439458603936" r="3.578751452912329" fill="#8B4513" fill-opacity="0.48242367961983257" />
<circle cx="155.913078144136" cy="95.53742375593718" r="3.9605749763102374" fill="#FFDE75" fill-opacity="0.4659415823654457" />
<circle cx="68.29549679416974" cy="93.29808526782618" r="4.148231601185044" fill="#FFFFFF" fill-opacity="0.4299681004893333" />
<circle cx="157.40193735758368" cy="87.20995827019829" r="2.8841386486558838" fill="#FFFFFF" fill-opacity="0.3510527873392356" />
<circle cx="141.28165886076994" cy="117.50918866318762" r="3.0775181535930662" fill="#D2691E" fill-opacity="0.5137827400825168" />
<circle cx="82.86831087152123" cy="23.111730278690814" r="2.3144172090571544" fill="#D2691E" fill-opacity="0.36533592511365703" />
<circle cx="71.80735246609375" cy="74.48979384823264" r="5.119919734722813" fill="#FFFFFF" fill-opacity="0.27943649401960563" />
<circle cx="105.21368260641904" cy="167.07707370201095" r="5.114371879485444" fill="#8B4513" fill-opacity="0.3489403771917568" />
<circle cx="72.61581970713716" cy="107.37462980393487" r="2.734240950836019" fill="#FFDE75" fill-opacity="0.4990377421832841" />
<circle cx="66.78923979194425" cy="129.8184970319166" r="2.5645577851706047" fill="#FFFFFF" fill-opacity="0.4062418273175012" />
<circle cx="132.6739468774666" cy="122.04522783010034" r="3.8579948461226548" fill="#FFFFFF" fill-opacity="0.2139719070577651" />
<circle cx="155.87433153789485" cy="146.9641607331498" r="2.1017576184403106" fill="#8B4513" fill-opacity="0.5056166045821817" />
<circle cx="110.29297566914774" cy="181.1761089315989" r="4.157886958215852" fill="#FFDE75" fill-opacity="0.46284909974696636" />
<circle cx="63.34944091499171" cy="95.69815799663365" r="5.224217135584408" fill="#FFFFFF" fill-opacity="0.5703577145498624" />
<circle cx="54.06292351108095" cy="144.1677657010818" r="9.37225907324417" fill="#FFFFFF" fill-opacity="0.95" stroke="#FAF0E6" stroke-width="1.5" />
<circle cx="101.89902499495076" cy="148.13059333310986" r="7.614372040703477" fill="#FFFFFF" fill-opacity="0.95" stroke="#FAF0E6" stroke-width="1.5" />
<circle cx="109.02044777952409" cy="180.45652672731373" r="7.656171980585923" fill="#FFFFFF" fill-opacity="0.95" stroke="#FAF0E6" stroke-width="1.5" />
<circle cx="59.72126928662515" cy="47.4315154415506" r="9.614969065004335" fill="#FFFFFF" fill-opacity="0.95" stroke="#FAF0E6" stroke-width="1.5" />
<circle cx="155.94478194068353" cy="112.19753975007028" r="5.087950677244592" fill="#FFFFFF" fill-opacity="0.95" stroke="#FAF0E6" stroke-width="1.5" />
<circle cx="94.97367164272761" cy="33.4922595431465" r="5.322504970952032" fill="#FFFFFF" fill-opacity="0.95" stroke="#FAF0E6" stroke-width="1.5" />
<circle cx="105.29332342959162" cy="92.18674598902246" r="5.884219031532381" fill="#FFFFFF" fill-opacity="0.95" stroke="#FAF0E6" stroke-width="1.5" />
<circle cx="137.52075095790383" cy="132.73334036950217" r="6.2799762781329" fill="#FFFFFF" fill-opacity="0.95" stroke="#FAF0E6" stroke-width="1.5" />
<circle cx="57.67627951428611" cy="59.186127357994025" r="10.608438818512088" fill="#FFFFFF" fill-opacity="0.95" stroke="#FAF0E6" stroke-width="1.5" />
<circle cx="95.69657182903913" cy="162.8170280186639" r="9.779165679362876" fill="#FFFFFF" fill-opacity="0.95" stroke="#FAF0E6" stroke-width="1.5" />
<circle cx="68.47788182890628" cy="42.801797773540066" r="9.103858365376116" fill="#FFFFFF" fill-opacity="0.95" stroke="#FAF0E6" stroke-width="1.5" />
<circle cx="141.61285322098342" cy="171.74212702083864" r="7.151506471860798" fill="#FFFFFF" fill-opacity="0.95" stroke="#FAF0E6" stroke-width="1.5" />
</g>
<path d="M105.0,105.0 L205.0,105.0 A100,100,0,0,1,105.0,205.0 Z" fill="#FEF7E3" stroke="lightgray" stroke-width="2" />
<use xlink:href="#clip-4567045520-4566784976" />
<g clip-path="url(#clip-4567045520-4566784976)">
<circle cx="105.0" cy="105.0" r="92" stroke="#DAA05D" stroke-width="16" fill="none" />
<circle cx="105.0" cy="105.0" r="98" stroke="#C37B32" stroke-width="5" fill="none" />
<circle cx="76.32456596375498" cy="167.98606257802663" r="5.00514031914514" fill="#FFDE75" fill-opacity="0.252602187834765" />
<circle cx="114.87622291813987" cy="65.38819724833374" r="3.9105855760039008" fill="#D2691E" fill-opacity="0.29159076246284743" />
<circle cx="44.53027277141099" cy="142.58920674694647" r="2.7997801736555643" fill="#8B4513" fill-opacity="0.3228086205145597" />
<circle cx="100.49422153603236" cy="24.506677638769986" r="3.795567103393523" fill="#8B4513" fill-opacity="0.31326169525439407" />
<circle cx="50.859164559763805" cy="148.40303557797068" r="4.478980634575301" fill="#FFFFFF" fill-opacity="0.5262464670669691" />
<circle cx="101.06458321394062" cy="177.7452508360104" r="4.924033312540899" fill="#8B4513" fill-opacity="0.25614756201202343" />
<circle cx="25.679025501084254" cy="87.31500070078849" r="5.624271904241448" fill="#D2691E" fill-opacity="0.4654660195661134" />
<circle cx="78.98195905138344" cy="115.43777995331588" r="4.872158528355728" fill="#8B4513" fill-opacity="0.32383056882202566" />
<circle cx="62.105171441455965" cy="66.30127230588369" r="2.088980612042232" fill="#D2691E" fill-opacity="0.37368781331508616" />
<circle cx="73.92163672047272" cy="116.16922568941817" r="2.2145199816530354" fill="#FFFFFF" fill-opacity="0.46602478134740755" />
<circle cx="47.10321914482251" cy="44.13666470501667" r="5.208285743170647" fill="#D2691E" fill-opacity="0.42877750323883634" />
<circle cx="144.77490122943215" cy="40.846575049792975" r="3.0351294893736376" fill="#8B4513" fill-opacity="0.2254471655479222" />
<circle cx="153.48343523601352" cy="50.55872500998583" r="5.510664569112068" fill="#FFDE75" fill-opacity="0.41266569872748915" />
<circle cx="167.21207425076898" cy="98.75437464731272" r="3.1866311411754205" fill="#FFDE75" fill-opacity="0.22817437682227992" />
<circle cx="99.55273790410988" cy="57.713148902120196" r="2.404988679700743" fill="#FFFFFF" fill-opacity="0.5160174072524131" />
<circle cx="39.69645022199589" cy="107.6014790701267" r="4.554921829313087" fill="#FFDE75" fill-opacity="0.25458414768867343" />
<circle cx="44.35134127651689" cy="133.06439458603936" r="3.578751452912329" fill="#8B4513" fill-opacity="0.48242367961983257" />
<circle cx="155.913078144136" cy="95.53742375593718" r="3.9605749763102374" fill="#FFDE75" fill-opacity="0.4659415823654457" />
<circle cx="68.29549679416974" cy="93.29808526782618" r="4.148231601185044" fill="#FFFFFF" fill-opacity="0.4299681004893333" />
<circle cx="157.40193735758368" cy="87.20995827019829" r="2.8841386486558838" fill="#FFFFFF" fill-opacity="0.3510527873392356" />
<circle cx="141.28165886076994" cy="117.50918866318762" r="3.0775181535930662" fill="#D2691E" fill-opacity="0.5137827400825168" />
<circle cx="82.86831087152123" cy="23.111730278690814" r="2.3144172090571544" fill="#D2691E" fill-opacity="0.36533592511365703" />
<circle cx="71.80735246609375" cy="74.48979384823264" r="5.119919734722813" fill="#FFFFFF" fill-opacity="0.27943649401960563" />
<circle cx="105.21368260641904" cy="167.07707370201095" r="5.114371879485444" fill="#8B4513" fill-opacity="0.3489403771917568" />
<circle cx="72.61581970713716" cy="107.37462980393487" r="2.734240950836019" fill="#FFDE75" fill-opacity="0.4990377421832841" />
<circle cx="66.78923979194425" cy="129.8184970319166" r="2.5645577851706047" fill="#FFFFFF" fill-opacity="0.4062418273175012" />
<circle cx="132.6739468774666" cy="122.04522783010034" r="3.8579948461226548" fill="#FFFFFF" fill-opacity="0.2139719070577651" />
<circle cx="155.87433153789485" cy="146.9641607331498" r="2.1017576184403106" fill="#8B4513" fill-opacity="0.5056166045821817" />
<circle cx="110.29297566914774" cy="181.1761089315989" r="4.157886958215852" fill="#FFDE75" fill-opacity="0.46284909974696636" />
<circle cx="63.34944091499171" cy="95.69815799663365" r="5.224217135584408" fill="#FFFFFF" fill-opacity="0.5703577145498624" />
<circle cx="54.06292351108095" cy="144.1677657010818" r="9.37225907324417" fill="#FFFFFF" fill-opacity="0.95" stroke="#FAF0E6" stroke-width="1.5" />
<circle cx="101.89902499495076" cy="148.13059333310986" r="7.614372040703477" fill="#FFFFFF" fill-opacity="0.95" stroke="#FAF0E6" stroke-width="1.5" />
<circle cx="109.02044777952409" cy="180.45652672731373" r="7.656171980585923" fill="#FFFFFF" fill-opacity="0.95" stroke="#FAF0E6" stroke-width="1.5" />
<circle cx="59.72126928662515" cy="47.4315154415506" r="9.614969065004335" fill="#FFFFFF" fill-opacity="0.95" stroke="#FAF0E6" stroke-width="1.5" />
<circle cx="155.94478194068353" cy="112.19753975007028" r="5.087950677244592" fill="#FFFFFF" fill-opacity="0.95" stroke="#FAF0E6" stroke-width="1.5" />
<circle cx="94.97367164272761" cy="33.4922595431465" r="5.322504970952032" fill="#FFFFFF" fill-opacity="0.95" stroke="#FAF0E6" stroke-width="1.5" />
<circle cx="105.29332342959162" cy="92.18674598902246" r="5.884219031532381" fill="#FFFFFF" fill-opacity="0.95" stroke="#FAF0E6" stroke-width="1.5" />
<circle cx="137.52075095790383" cy="132.73334036950217" r="6.2799762781329" fill="#FFFFFF" fill-opacity="0.95" stroke="#FAF0E6" stroke-width="1.5" />
<circle cx="57.67627951428611" cy="59.186127357994025" r="10.608438818512088" fill="#FFFFFF" fill-opacity="0.95" stroke="#FAF0E6" stroke-width="1.5" />
<circle cx="95.69657182903913" cy="162.8170280186639" r="9.779165679362876" fill="#FFFFFF" fill-opacity="0.95" stroke="#FAF0E6" stroke-width="1.5" />
<circle cx="68.47788182890628" cy="42.801797773540066" r="9.103858365376116" fill="#FFFFFF" fill-opacity="0.95" stroke="#FAF0E6" stroke-width="1.5" />
<circle cx="141.61285322098342" cy="171.74212702083864" r="7.151506471860798" fill="#FFFFFF" fill-opacity="0.95" stroke="#FAF0E6" stroke-width="1.5" />
</g>
<rect x="230.0" y="41.0" width="54.0" height="54.0" fill="none" stroke="black" stroke-width="2" />
<rect x="230.0" y="115.0" width="54.0" height="54.0" fill="none" stroke="black" stroke-width="2" />
<path d="M225.0,105.0 L289.0,105.0" stroke="black" stroke-width="2" />
</g>
</svg>