<?xml version="1.0" encoding="UTF-8"?>
<svg xmlns="http://www.w3.org/2000/svg" xmlns:xlink="http://www.w3.org/1999/xlink"
     width="284.0" height="210" viewBox="0 0 284.0 210">
<defs>
<clipPath id="clip-4530279824-4465615312">
<path d="M105.0,105.0 L105.0,5.0 A100,100,0,0,1,205.0,105.0 Z" fill="none" />
</clipPath>
<clipPath id="clip-4530279824-4530020560">
<path d="M105.0,105.0 L205.0,105.0 A100,100,0,0,1,105.0,205.0 Z" fill="none" />
</clipPath>
</defs>
<g>
<path d="M105.0,105.0 L105.0,5.0 A100,100,0,0,1,205.0,105.0 Z" fill="none" stroke="lightgray" stroke-width="2" />
<path d="M105.0,105.0 L205.0,105.0 A100,100,0,0,1,105.0,205.0 Z" fill="none" stroke="lightgray" stroke-width="2" />
<path d="M105.0,105.0 L105.0,205.0 A100,100,0,0,1,5.0,105.00000000000001 Z" fill="none" stroke="lightgray" stroke-width="2" />
<path d="M105.0,105.0 L5.0,105.00000000000001 A100,100,0,0,1,104.99999999999999,5.0 Z" fill="none" stroke="lightgray" stroke-width="2" />
<path d="M105.0,105.0 L105.0,5.0 A100,100,0,0,1,205.0,105.0 Z" fill="#FEF7E3" stroke="lightgray" stroke-width="2" />
<use xlink:href="#clip-4530279824-4465615312" />
<g clip-path="url(#clip-4530279824-4465615312)">
<circle cx="105.0" cy="105.0" r="92" stroke="#DAA05D" stroke-width="16" fill="none" />
<circle cx="105.0" cy="105.0" r="98" stroke="#C37B32" stroke-width="5" fill="none" />
<circle cx="184.91183986396862" cy="88.13781070809765" r="5.326901483666515" fill="#FFDE75" fill-opacity="0.4894850845112992" />
<circle cx="57.95560936574578" cy="63.405740284499466" r="3.9848496441745915" fill="#D2691E" fill-opacity="0.4839109410662849" />
<circle cx="140.20937915094137" cy="81.44231116544289" r="4.2648381829532465" fill="#FFDE75" fill-opacity="0.43824383058296323" />
<circle cx="107.05425584870676" cy="99.45198429661096" r="4.326759950792298" fill="#FFFFFF" fill-opacity="0.42674167416815123" />
<circle cx="134.76220013706086" cy="124.28297809190222" r="3.7828186539551814" fill="#FFFFFF" fill-opacity="0.5639062004762039" />
<circle cx="119.76043254285574" cy="104.37646532831099" r="5.730245378938914" fill="#FFFFFF" fill-opacity="0.5430746902738833" />
<circle cx="125.79290063898046" cy="148.1037838772566" r="3.625590049239207" fill="#FFFFFF" fill-opacity="0.43449833587392517" />
<circle cx="161.1249994376475" cy="91.99748788919435" r="3.6808163892814094" fill="#D2691E" fill-opacity="0.2868901821906349" />
<circle cx="115.05117424685614" cy="156.61240346795495" r="3.418726033490347" fill="#FFFFFF" fill-opacity="0.33306104667886827" />
<circle cx="85.5905470708653" cy="25.04265097050387" r="4.163374872137325" fill="#D2691E" fill-opacity="0.282703324639487" />
<circle cx="80.60475192784673" cy="152.43098608230892" r="2.8478209161198085" fill="#FFFFFF" fill-opacity="0.5451824898404509" />
<circle cx="47.3966039542759" cy="80.61745452682432" r="3.1037802976129" fill="#FFDE75" fill-opacity="0.5554157326593169" />
<circle cx="83.80256100061334" cy="84.52514869797402" r="5.79638436187531" fill="#FFFFFF" fill-opacity="0.29627489470115026" />
<circle cx="33.638205047275065" cy="61.680428472788876" r="5.33941085040577" fill="#8B4513" fill-opacity="0.5045449248518533" />
<circle cx="163.47159992611762" cy="68.49230458404607" r="3.75737611931551" fill="#8B4513" fill-opacity="0.38530508717119594" />
<circle cx="163.05700737975505" cy="110.70600025401204" r="2.8214057030770467" fill="#8B4513" fill-opacity="0.46870423079356055" />
<circle cx="103.1725837234251" cy="189.3876068785003" r="4.146173667968704" fill="#8B4513" fill-opacity="0.49851542746436006" />
<circle cx="173.31574560348264" cy="115.42296502149405" r="5.225765685439155" fill="#FFDE75" fill-opacity="0.3856232339013116" />
<circle cx="119.91921334625488" cy="99.75541707215172" r="5.135036955056514" fill="#8B4513" fill-opacity="0.3855654240120271" />
<circle cx="43.88833912357722" cy="163.06747086853022" r="3.2463536824094588" fill="#D2691E" fill-opacity="0.2667992386900105" />
<circle cx="82.9153301428276" cy="116.75384857332607" r="2.5239611523765992" fill="#FFDE75" fill-opacity="0.3297336194619779" />
<circle cx="161.64494543510014" cy="58.98709921280452" r="3.8699783995196237" fill="#8B4513" fill-opacity="0.214261117850241" />
<circle cx="61.47377635450822" cy="56.596700431517995" r="3.8452887499176054" fill="#8B4513" fill-opacity="0.2771906778462813" />
<circle cx="70.61530075536238" cy="137.55408125183143" r="4.6576785785221055" fill="#8B4513" fill-opacity="0.5937389782747979" />
<circle cx="76.32776139160687" cy="40.68858844632699" r="5.957092546684678" fill="#FFDE75" fill-opacity="0.4307295552544634" />
<circle cx="105.96491839587424" cy="94.90852780532649" r="5.888508989805445" fill="#FFDE75" fill-opacity="0.40206618325220356" />
<circle cx="83.50404765339529" cy="109.71407803236812" r="5.467872867116216" fill="#FFFFFF" fill-opacity="0.5925645852121824" />
<circle cx="146.06400017624944" cy="105.83095811901013" r="2.606949175801412" fill="#FFDE75" fill-opacity="0.27147959367079466" />
<circle cx="130.93441557662965" cy="58.99179783770007" r="3.9789535168317776" fill="#D2691E" fill-opacity="0.5154775731446719" />
<circle cx="63.42911041676886" cy="175.52445291959887" r="4.089415211657162" fill="#FFFFFF" fill-opacity="0.5538947334219195" />
<circle cx="118.30899057386509" cy="87.42880333527913" r="11.274195804501712" fill="#FFFFFF" fill-opacity="0.95" stroke="#FAF0E6" stroke-width="1.5" />
<circle cx="161.01201308515903" cy="70.0459894496395" r="6.0642498813703245" fill="#FFFFFF" fill-opacity="0.95" stroke="#FAF0E6" stroke-width="1.5" />
<circle cx="104.39514886436599" cy="56.82346060703977" r="10.031108897573258" fill="#FFFFFF" fill-opacity="0.95" stroke="#FAF0E6" stroke-width="1.5" />
<circle cx="79.78105211111838" cy="35.803692447158824" r="7.243958900890799" fill="#FFFFFF" fill-opacity="0.95" stroke="#FAF0E6" stroke-width="1.5" />
<circle cx="39.12068496670241" cy="120.75418593624096" r="5.689871738764953" fill="#FFFFFF" fill-opacity="0.95" stroke="#FAF0E6" stroke-width="1.5" />
<circle cx="49.31233722438394" cy="122.64272120801762" r="5.674096048443078" fill="#FFFFFF" fill-opacity="0.95" stroke="#FAF0E6" stroke-width="1.5" />
<circle cx="86.35795137791533" cy="117.0577801525728" r="6.346872601333581" fill="#FFFFFF" fill-opacity="0.95" stroke="#FAF0E6" stroke-width="1.5" />
<circle cx="81.42261132714867" cy="140.4672666393095" r="5.4888555574671765" fill="#FFFFFF" fill-opacity="0.95" stroke="#FAF0E6" stroke-width="1.5" />
<circle cx="87.40730450828242" cy="163.5451421478719" r="8.801284220723225" fill="#FFFFFF" fill-opacity="0.95" stroke="#FAF0E6" stroke-width="1.5" />
<circle cx="127.9178216922441" cy="152.08501023622122" r="9.694656470752932" fill="#FFFFFF" fill-opacity="0.95" stroke="#FAF0E6" stroke-width="1.5" />
<circle cx="117.4513421321829" cy="154.2118694898881" r="10.551686243868426" fill="#FFFFFF" fill-opacity="0.95" stroke="#FAF0E6" stroke-width="1.5" />
<circle cx="64.75352562825343" cy="49.214972494892756" r="5.086221207318934" fill="#FFFFFF" fill-opacity="0.95" stroke="#FAF0E6" stroke-width="1.5" />
</g>
<path d="M105.0,105.0 L205.0,105.0 A100,100,0,0,1,105.0,205.0 Z" fill="#FEF7E3" stroke="lightgray" stroke-width="2" />
<use xlink:href="#clip-4530279824-4530020560" />
<g clip-path="url(#clip-4530279824-4530020560)">
<circle cx="105.0" cy="105.0" r="92" stroke="#DAA05D" stroke-width="16" fill="none" />
<circle cx="105.0" cy="105.0" r="98" stroke="#C37B32" stroke-width="5" fill="none" />
<circle cx="184.91183986396862" cy="88.13781070809765" r="5.326901483666515" fill="#FFDE75" fill-opacity="0.4894850845112992" />
<circle cx="57.95560936574578" cy="63.405740284499466" r="3.9848496441745915" fill="#D2691E" fill-opacity="0.4839109410662849" />
<circle cx="140.20937915094137" cy="81.44231116544289" r="4.2648381829532465" fill="#FFDE75" fill-opacity="0.43824383058296323" />
<circle cx="107.05425584870676" cy="99.45198429661096" r="4.326759950792298" fill="#FFFFFF" fill-opacity="0.42674167416815123" />
<circle cx="134.76220013706086" cy="124.28297809190222" r="3.7828186539551814" fill="#FFFFFF" fill-opacity="0.5639062004762039" />
<circle cx="119.76043254285574" cy="104.37646532831099" r="5.730245378938914" fill="#FFFFFF" fill-opacity="0.5430746902738833" />
<circle cx="125.79290063898046" cy="148.1037838772566" r="3.625590049239207" fill="#FFFFFF" fill-opacity="0.43449833587392517" />
<circle cx="161.1249994376475" cy="91.99748788919435" r="3.6808163892814094" fill="#D2691E" fill-opacity="0.2868901821906349" />
<circle cx="115.05117424685614" cy="156.61240346795495" r="3.418726033490347" fill="#FFFFFF" fill-opacity="0.33306104667886827" />
<circle cx="85.5905470708653" cy="25.04265097050387" r="4.163374872137325" fill="#D2691E" fill-opacity="0.282703324639487" />
<circle cx="80.60475192784673" cy="152.43098608230892" r="2.8478209161198085" fill="#FFFFFF" fill-opacity="0.5451824898404509" />
<circle cx="47.3966039542759" cy="80.61745452682432" r="3.1037802976129" fill="#FFDE75" fill-opacity="0.5554157326593169" />
<circle cx="83.80256100061334" cy="84.52514869797402" r="5.79638436187531" fill="#FFFFFF" fill-opacity="0.29627489470115026" />
<circle cx="33.638205047275065" cy="61.680428472788876" r="5.33941085040577" fill="#8B4513" fill-opacity="0.5045449248518533" />
<circle cx="163.47159992611762" cy="68.49230458404607" r="3.75737611931551" fill="#8B4513" fill-opacity="0.38530508717119594" />
<circle cx="163.05700737975505" cy="110.70600025401204" r="2.8214057030770467" fill="#8B4513" fill-opacity="0.46870423079356055" />
<circle cx="103.1725837234251" cy="189.3876068785003" r="4.146173667968704" fill="#8B4513" fill-opacity="0.49851542746436006" />
<circle cx="173.31574560348264" cy="115.42296502149405" r="5.225765685439155" fill="#FFDE75" fill-opacity="0.3856232339013116" />
<circle cx="119.91921334625488" cy="99.75541707215172" r="5.135036955056514" fill="#8B4513" fill-opacity="0.3855654240120271" />
<circle cx="43.88833912357722" cy="163.06747086853022" r="3.2463536824094588" fill="#D2691E" fill-opacity="0.2667992386900105" />
<circle cx="82.9153301428276" cy="116.75384857332607" r="2.5239611523765992" fill="#FFDE75" fill-opacity="0.3297336194619779" />
<circle cx="161.64494543510014" cy="58.98709921280452" r="3.8699783995196237" fill="#8B4513" fill-opacity="0.214261117850241" />
<circle cx="61.47377635450822" cy="56.596700431517995" r="3.8452887499176054" fill="#8B4513" fill-opacity="0.2771906778462813" />
<circle cx="70.61530075536238" cy="137.55408125183143" r="4.6576785785221055" fill="#8B4513" fill-opacity="0.5937389782747979" />
<circle cx="76.32776139160687" cy="40.68858844632699" r="5.957092546684678" fill="#FFDE75" fill-opacity="0.4307295552544634" />
<circle cx="105.96491839587424" cy="94.90852780532649" r="5.888508989805445" fill="#FFDE75" fill-opacity="0.40206618325220356" />
<circle cx="83.50404765339529" cy="109.71407803236812" r="5.467872867116216" fill="#FFFFFF" fill-opacity="0.5925645852121824" />
<circle cx="146.06400017624944" cy="105.83095811901013" r="2.606949175801412" fill="#FFDE75" fill-opacity="0.27147959367079466" />
<circle cx="130.93441557662965" cy="58.99179783770007" r="3.9789535168317776" fill="#D2691E" fill-opacity="0.5154775731446719" />
<circle cx="63.42911041676886" cy="175.52445291959887" r="4.089415211657162" fill="#FFFFFF" fill-opacity="0.5538947334219195" />
<circle cx="118.30899057386509" cy="87.42880333527913" r="11.274195804501712" fill="#FFFFFF" fill-opacity="0.95" stroke="#FAF0E6" stroke-width="1.5" />
<circle cx="161.01201308515903" cy="70.0459894496395" r="6.0642498813703245" fill="#FFFFFF" fill-opacity="0.95" stroke="#FAF0E6" stroke-width="1.5" />
<circle cx="104.39514886436599" cy="56.82346060703977" r="10.031108897573258" fill="#FFFFFF" fill-opacity="0.95" stroke="#FAF0E6" stroke-width="1.5" />
<circle cx="79.78105211111838" cy="35.803692447158824" r="7.243958900890799" fill="#FFFFFF" fill-opacity="0.95" stroke="#FAF0E6" stroke-width="1.5" />
<circle cx="39.12068496670241" cy="120.75418593624096" r="5.689871738764953" fill="#FFFFFF" fill-opacity="0.95" stroke="#FAF0E6" stroke-width="1.5" />
<circle cx="49.31233722438394" cy="122.64272120801762" r="5.674096048443078" fill="#FFFFFF" fill-opacity="0.95" stroke="#FAF0E6" stroke-width="1.5" />
<circle cx="86.35795137791533" cy="117.0577801525728" r="6.346872601333581" fill="#FFFFFF" fill-opacity="0.95" stroke="#FAF0E6" stroke-width="1.5" />
<circle cx="81.42261132714867" cy="140.4672666393095" r="5.4888555574671765" fill="#FFFFFF" fill-opacity="0.95" stroke="#FAF0E6" stroke-width="1.5" />
<circle cx="87.40730450828242" cy="163.5451421478719" r="8.801284220723225" fill="#FFFFFF" fill-opacity="0.95" stroke="#FAF0E6" stroke-width="1.5" />
<circle cx="127.9178216922441" cy="152.08501023622122" r="9.694656470752932" fill="#FFFFFF" fill-opacity="0.95" stroke="#FAF0E6" stroke-width="1.5" />
<circle cx="117.4513421321829" cy="154.2118694898881" r="10.551686243868426" fill="#FFFFFF" fill-opacity="0.95" stroke="#FAF0E6" stroke-width="1.5" />
<circle cx="64.75352562825343" cy="49.214972494892756" r="5.086221207318934" fill="#FFFFFF" fill-opacity="0.95" stroke="#FAF0E6" stroke-width="1.5" />
</g>
<rect x="230.0" y="41.0" width="54.0" height="54.0" fill="none" stroke="black" stroke-width="2" />
<rect x="230.0" y="115.0" width="54.0" height="54.0" fill="none" stroke="black" stroke-width="2" />
<path d="M225.0,105.0 L289.0,105.0" stroke="black" stroke-width="2" />
</g>
</svg>