<svg width="509.0" height="210.0" xmlns="http://www.w3.org/2000/svg" xmlns:xlink="http://www.w3.org/1999/xlink">
<svg x="0.0" y="0.0" width="210.0" height="210.0" viewBox="0 0 210 210" xmlns="http://www.w3.org/2000/svg" xmlns:xlink="http://www.w3.org/1999/xlink">
<defs>
<clipPath id="clip-4519507392-4465449424">
<circle cx="105.0" cy="105.0" r="100" fill="none" />
</clipPath>
</defs>
<g>
<circle cx="105.0" cy="105.0" r="100" fill="#F5C754" />
<use xlink:href="#clip-4519507392-4465449424" />
<g clip-path="url(#clip-4519507392-4465449424)">
<circle cx="105.0" cy="105.0" r="92" stroke="#DAA05D" stroke-width="16" fill="none" />
<circle cx="105.0" cy="105.0" r="98" stroke="#C37B32" stroke-width="5" fill="none" />
<circle cx="40.273918368770126" cy="51.49628436752046" r="3.625552146470724" fill="#FFDE75" fill-opacity="0.3764440446745717" />
<circle cx="182.80543234230254" cy="136.62610695069478" r="3.281218206962509" fill="#FFDE75" fill-opacity="0.23702769327224665" />
<circle cx="56.30085666515317" cy="173.67137808926162" r="4.8366889251610825" fill="#FFDE75" fill-opacity="0.2711517178060651" />
<circle cx="72.9461755386458" cy="94.1952130721378" r="5.855083426578633" fill="#8B4513" fill-opacity="0.3808303569629159" />
<circle cx="29.71942220728849" cy="82.75581585495225" r="5.003408007605376" fill="#D2691E" fill-opacity="0.4641748354581628" />
<circle cx="146.03472313110416" cy="178.6297248035699" r="3.4806774589412504" fill="#FFFFFF" fill-opacity="0.41663952346981314" />
<circle cx="143.80130469076468" cy="62.549077541850885" r="5.378095489410075" fill="#8B4513" fill-opacity="0.41666567974858126" />
<circle cx="51.157812432305874" cy="94.60856648512791" r="4.319246779594672" fill="#FFDE75" fill-opacity="0.5331445732148079" />
<circle cx="157.08375361423106" cy="58.60754970554343" r="5.999972994818549" fill="#FFDE75" fill-opacity="0.3199590535720009" />
<circle cx="152.39789774405" cy="84.96246908281988" r="5.358521367995437" fill="#FFDE75" fill-opacity="0.26672979152889165" />
<circle cx="87.43360480697345" cy="181.92359872124632" r="3.216509534980169" fill="#8B4513" fill-opacity="0.3791026657356448" />
<circle cx="90.73734034196215" cy="164.77548871696206" r="5.020585483220813" fill="#D2691E" fill-opacity="0.2126875372473679" />
<circle cx="120.21308357959714" cy="176.9145540665027" r="4.062791296232012" fill="#D2691E" fill-opacity="0.32450531842094643" />
<circle cx="108.27676269477584" cy="83.35628672222671" r="4.361233702932328" fill="#8B4513" fill-opacity="0.44893099607952885" />
<circle cx="87.64293511889406" cy="187.18240604692846" r="4.2872129413575815" fill="#8B4513" fill-opacity="0.36213412438779946" />
<circle cx="140.9674695034521" cy="69.96130671343042" r="4.216411006555479" fill="#D2691E" fill-opacity="0.5901641807079019" />
<circle cx="76.49879181194956" cy="134.30420536536556" r="2.2565963739374104" fill="#FFFFFF" fill-opacity="0.5100482991577948" />
<circle cx="130.94974192871825" cy="100.96743028372461" r="4.123383054348345" fill="#8B4513" fill-opacity="0.32898692445004607" />
<circle cx="133.3124950149821" cy="132.05854095054403" r="3.6981950814918125" fill="#FFFFFF" fill-opacity="0.38793862597038953" />
<circle cx="133.1338966085801" cy="144.06577086919924" r="2.7834017464227006" fill="#FFDE75" fill-opacity="0.2964186762637504" />
<circle cx="189.27414012881002" cy="112.61642608162883" r="3.840520259658717" fill="#FFFFFF" fill-opacity="0.5594380653340547" />
<circle cx="61.367230480139106" cy="96.00440749820459" r="3.839764260327786" fill="#8B4513" fill-opacity="0.5099440810013343" />
<circle cx="75.42861684468036" cy="94.47515576557547" r="4.525794792388009" fill="#D2691E" fill-opacity="0.2596751189731491" />
<circle cx="107.9664349435533" cy="61.980869387775144" r="3.8844668994966383" fill="#D2691E" fill-opacity="0.5548969373405976" />
<circle cx="42.55055737132115" cy="60.571318354772" r="4.502518920698123" fill="#8B4513" fill-opacity="0.3746451766938405" />
<circle cx="104.55371843869665" cy="89.67051132782909" r="5.5927509859420415" fill="#FFDE75" fill-opacity="0.524399097494171" />
<circle cx="67.27055325380795" cy="43.68054091257727" r="5.109847674930918" fill="#FFFFFF" fill-opacity="0.2728345661359686" />
<circle cx="142.06563725076222" cy="101.9292841700222" r="5.660650817539941" fill="#FFDE75" fill-opacity="0.5493880378030087" />
<circle cx="75.69407265921556" cy="48.87244850893519" r="4.776176817657916" fill="#FFDE75" fill-opacity="0.5462193854402114" />
<circle cx="23.13452361157259" cy="104.43428306639859" r="2.9711684972038723" fill="#FFFFFF" fill-opacity="0.226245479109806" />
<ellipse cx="169.7431151927014" cy="58.00391807545684" rx="5.109938481414471" ry="5.025021255253035" fill="#FFFDF0" fill-opacity="0.6" />
<ellipse cx="169.37174682483217" cy="58.45641104449991" rx="2.660273832434444" ry="2.6223012792960168" fill="#FFFFFF" fill-opacity="0.85" />
<ellipse cx="37.81347603365576" cy="141.1265900192925" rx="8.987771202168542" ry="4.81637101311251" fill="#FFFDF0" fill-opacity="0.6" />
<ellipse cx="37.378003918661996" cy="140.83920719764564" rx="3.143227478630561" ry="3.434174639497402" fill="#FFFFFF" fill-opacity="0.85" />
<ellipse cx="158.19096586270814" cy="68.62987808637361" rx="6.009111447710163" ry="5.09552465509338" fill="#FFFDF0" fill-opacity="0.6" />
<ellipse cx="158.17849081394732" cy="67.86554172761471" rx="3.72035357840981" ry="2.534892127530198" fill="#FFFFFF" fill-opacity="0.85" />
<ellipse cx="80.00832477269539" cy="30.96582613111228" rx="7.958331355897077" ry="5.0860679936227315" fill="#FFFDF0" fill-opacity="0.6" />
<ellipse cx="80.00965037058195" cy="30.4863320266732" rx="2.083124320368439" ry="3.5218343617558743" fill="#FFFFFF" fill-opacity="0.85" />
<ellipse cx="117.6991319265928" cy="107.71018735728518" rx="6.3375078777441125" ry="7.388624670304926" fill="#FFFDF0" fill-opacity="0.6" />
<ellipse cx="116.78906157640631" cy="107.4344374487686" rx="4.675789097861426" ry="2.44006607645421" fill="#FFFFFF" fill-opacity="0.85" />
<ellipse cx="122.25294659713028" cy="153.71516390978198" rx="5.175835988741776" ry="8.617589761235372" fill="#FFFDF0" fill-opacity="0.6" />
<ellipse cx="122.18110452552015" cy="153.33610557174586" rx="3.6546512191428295" ry="3.9209272229091363" fill="#FFFFFF" fill-opacity="0.85" />
</g>
<path d="M105.0,105.0 L105.0,5.0" stroke="lightgray" stroke-width="2" />
<path d="M105.0,105.0 L105.0,205.0" stroke="lightgray" stroke-width="2" />
<circle cx="105.0" cy="105.0" r="100" fill="none" stroke="lightgray" stroke-width="2" />
</g>
</svg>
<svg x="225.0" y="0.0" width="284.0" height="210.0" viewBox="0 0 284.0 210" xmlns="http://www.w3.org/2000/svg" xmlns:xlink="http://www.w3.org/1999/xlink">
<defs>
<clipPath id="clip-4516865104-4465616208">
<path d="M105.0,105.0 L105.0,5.0 A100,100,0,0,1,105.0,205.0 Z" fill="none" />
</clipPath>
</defs>
<g>
<path d="M105.0,105.0 L105.0,5.0 A100,100,0,0,1,105.0,205.0 Z" fill="none" stroke="lightgray" stroke-width="2" />
<path d="M105.0,105.0 L105.0,205.0 A100,100,0,0,1,104.99999999999999,5.0 Z" fill="none" stroke="lightgray" stroke-width="2" />
<path d="M105.0,105.0 L105.0,5.0 A100,100,0,0,1,105.0,205.0 Z" fill="#F5C754" stroke="lightgray" stroke-width="2" />
<use xlink:href="#clip-4516865104-4465616208" />
<g clip-path="url(#clip-4516865104-4465616208)">
<circle cx="105.0" cy="105.0" r="92" stroke="#DAA05D" stroke-width="16" fill="none" />
<circle cx="105.0" cy="105.0" r="98" stroke="#C37B32" stroke-width="5" fill="none" />
<circle cx="42.89106923909537" cy="76.29003156210267" r="4.43551224211254" fill="#D2691E" fill-opacity="0.3921506968977059" />
<circle cx="139.25805062850407" cy="143.75389476930278" r="4.02467425563457" fill="#D2691E" fill-opacity="0.5273803718060418" />
<circle cx="163.0854672435682" cy="137.27819329972687" r="3.822551462695181" fill="#FFDE75" fill-opacity="0.5455146843010604" />
<circle cx="137.36608070116412" cy="45.89924832074671" r="5.47439862755668" fill="#FFFFFF" fill-opacity="0.5700954409952281" />
<circle cx="85.6272171076453" cy="135.1833112963768" r="4.880772286242753" fill="#FFFFFF" fill-opacity="0.5582048719918691" />
<circle cx="106.21080242207047" cy="110.34808260900441" r="2.6636225365448127" fill="#FFFFFF" fill-opacity="0.39730114696286734" />
<circle cx="109.94264193612528" cy="154.60042034308128" r="3.8964404417812033" fill="#FFDE75" fill-opacity="0.5684852561922691" />
<circle cx="182.7458174897698" cy="81.77772513126547" r="4.360709295961032" fill="#FFFFFF" fill-opacity="0.42554879458949524" />
<circle cx="120.04684502945018" cy="65.2297033194454" r="3.9303926996098304" fill="#FFDE75" fill-opacity="0.2762137928810876" />
<circle cx="118.53418942379366" cy="87.82183731536759" r="4.1995305677685995" fill="#D2691E" fill-opacity="0.3917926269459008" />
<circle cx="175.04738886857916" cy="109.61647344643828" r="3.7805163656929754" fill="#FFFFFF" fill-opacity="0.26224206833260894" />
<circle cx="168.2953101074687" cy="146.5673987029024" r="4.796040199675165" fill="#8B4513" fill-opacity="0.3143709625901724" />
<circle cx="106.94107791550344" cy="121.01930445576363" r="5.425950037282929" fill="#FFDE75" fill-opacity="0.46591085278350414" />
<circle cx="55.56174321996065" cy="167.27069225345446" r="2.7331936771064425" fill="#8B4513" fill-opacity="0.40955719419347103" />
<circle cx="74.98204364636362" cy="106.7784441871158" r="4.648871508098649" fill="#D2691E" fill-opacity="0.3952406590369506" />
<ellipse cx="42.79950329831338" cy="99.2640632217985" rx="9.864258475596909" ry="6.877059346345137" fill="#FFFDF0" fill-opacity="0.6" />
<ellipse cx="42.24964413427703" cy="98.9769826889601" rx="3.683867276162153" ry="3.142055732916491" fill="#FFFFFF" fill-opacity="0.85" />
<ellipse cx="169.48760956524436" cy="121.44019309561219" rx="7.718062185352563" ry="4.6400089140449685" fill="#FFFDF0" fill-opacity="0.6" />
<ellipse cx="169.2428950001751" cy="121.61471526153144" rx="3.6287376682211416" ry="2.257023032504441" fill="#FFFFFF" fill-opacity="0.85" />
<ellipse cx="138.7630770254215" cy="60.33162008080462" rx="9.089694392092333" ry="4.651913085719919" fill="#FFFDF0" fill-opacity="0.6" />
<ellipse cx="138.90983176461071" cy="59.97541449530327" rx="3.860509990561325" ry="2.3729745082578493" fill="#FFFFFF" fill-opacity="0.85" />
</g>
<rect x="230.0" y="41.0" width="54.0" height="54.0" fill="none" stroke="black" stroke-width="2" />
<rect x="230.0" y="115.0" width="54.0" height="54.0" fill="none" stroke="black" stroke-width="2" />
<path d="M225.0,105.0 L289.0,105.0" stroke="black" stroke-width="2" />
</g>
</svg>
</svg>