<svg width="509.0" height="210.0" xmlns="http://www.w3.org/2000/svg" xmlns:xlink="http://www.w3.org/1999/xlink">
<svg x="0.0" y="0.0" width="210.0" height="210.0" viewBox="0 0 210 210" xmlns="http://www.w3.org/2000/svg" xmlns:xlink="http://www.w3.org/1999/xlink">
<defs>
<clipPath id="clip-4556222352-4566794064">
<circle cx="105.0" cy="105.0" r="100" fill="none" />
</clipPath>
</defs>
<g>
<circle cx="105.0" cy="105.0" r="100" fill="#F5C754" />
<use xlink:href="#clip-4556222352-4566794064" />
<g clip-path="url(#clip-4556222352-4566794064)">
<circle cx="105.0" cy="105.0" r="92" stroke="#DAA05D" stroke-width="16" fill="none" />
<circle cx="105.0" cy="105.0" r="98" stroke="#C37B32" stroke-width="5" fill="none" />
<circle cx="160.6646064230284" cy="105.05311658048196" r="5.475164837137436" fill="#FFDE75" fill-opacity="0.57945954832975" />
<circle cx="59.482568000298315" cy="125.17134823528441" r="2.418750505991569" fill="#FFFFFF" fill-opacity="0.5371405221521596" />
<circle cx="79.77376441083204" cy="41.36789348587063" r="3.7593421240514404" fill="#D2691E" fill-opacity="0.4382972887622909" />
<circle cx="69.84714195678534" cy="152.045389753419" r="3.1800002507886522" fill="#FFFFFF" fill-opacity="0.5211785627748089" />
<circle cx="131.01922526556535" cy="102.02552921284523" r="4.173981549686753" fill="#8B4513" fill-opacity="0.43769500145021584" />
<circle cx="82.63596879661938" cy="99.43327114554016" r="4.658279787898893" fill="#8B4513" fill-opacity="0.4003272577688399" />
<circle cx="184.08391354184752" cy="103.80110623496212" r="2.4496693038558424" fill="#D2691E" fill-opacity="0.32162150522082716" />
<circle cx="127.11595795077297" cy="25.407880267651635" r="5.6886093923864" fill="#FFDE75" fill-opacity="0.3587855241338476" />
<circle cx="84.2974690285019" cy="46.452795799750064" r="2.063097499441091" fill="#FFDE75" fill-opacity="0.5740823523335769" />
<circle cx="22.918831872347198" cy="109.14161443481652" r="4.983579567253235" fill="#FFDE75" fill-opacity="0.31298974269579627" />
<circle cx="90.9444936986011" cy="120.45654305878146" r="4.1416151926355615" fill="#D2691E" fill-opacity="0.30747952773955894" />
<circle cx="58.57104293429636" cy="76.64048112961282" r="4.910994364915601" fill="#8B4513" fill-opacity="0.2713511432264385" />
<circle cx="72.42106359501824" cy="118.46907267365677" r="2.5207710037427113" fill="#8B4513" fill-opacity="0.29776614775562305" />
<circle cx="180.87932640938342" cy="129.83153691040621" r="4.961861636259483" fill="#D2691E" fill-opacity="0.3827452334947228" />
<circle cx="41.130907153253055" cy="140.487245335639" r="4.641227979551914" fill="#8B4513" fill-opacity="0.21836183284560612" />
<circle cx="115.24198592140245" cy="109.98311401685986" r="4.369942653376679" fill="#D2691E" fill-opacity="0.4322276587503474" />
<circle cx="29.42600632932387" cy="135.46202788464447" r="5.813591439440195" fill="#8B4513" fill-opacity="0.5305677473671288" />
<circle cx="45.70625774595828" cy="107.46094037116745" r="2.3606366920011057" fill="#D2691E" fill-opacity="0.22820806767995472" />
<circle cx="45.92024633037023" cy="75.8021166504825" r="2.7151699757056087" fill="#FFFFFF" fill-opacity="0.37099128997553316" />
<circle cx="102.02783219904995" cy="66.13816005040479" r="2.369502645011199" fill="#FFDE75" fill-opacity="0.3099583337736256" />
<circle cx="172.6477981457587" cy="132.99660955086873" r="2.806422950512115" fill="#D2691E" fill-opacity="0.4232792131979458" />
<circle cx="47.52816544804513" cy="71.12955551680946" r="5.909124799872826" fill="#D2691E" fill-opacity="0.2712351532117556" />
<circle cx="171.8145848815994" cy="154.0048497055673" r="4.955290160343062" fill="#D2691E" fill-opacity="0.2559959680990521" />
<circle cx="124.5005600715252" cy="185.1347024627448" r="3.334324397676335" fill="#FFFFFF" fill-opacity="0.2924321897210277" />
<circle cx="102.5239351268236" cy="147.40017807382827" r="4.9516358259319855" fill="#FFFFFF" fill-opacity="0.5786349116959484" />
<circle cx="128.64988118999767" cy="163.34703988786436" r="3.557588634061096" fill="#D2691E" fill-opacity="0.29864366673982534" />
<circle cx="104.4235133360736" cy="42.662636405545214" r="4.054955222590738" fill="#D2691E" fill-opacity="0.38465684179966697" />
<circle cx="76.59695773132603" cy="104.2718492406992" r="3.6975977190300693" fill="#FFDE75" fill-opacity="0.5398874481177294" />
<circle cx="107.23170995976601" cy="158.91100582758935" r="2.368096075413944" fill="#D2691E" fill-opacity="0.5449634620834446" />
<circle cx="172.79508162541032" cy="140.42773942589554" r="3.0687592267285497" fill="#FFDE75" fill-opacity="0.2320418921272201" />
<circle cx="56.65247691283939" cy="90.9729908931614" r="5.61406067810348" fill="#8B4513" fill-opacity="0.2874698692775756" />
<circle cx="37.92454565304078" cy="84.45578872147432" r="2.126966485843383" fill="#8B4513" fill-opacity="0.5355072251836179" />
<circle cx="163.63193851363678" cy="45.98899918937044" r="4.19598085159131" fill="#8B4513" fill-opacity="0.5285831943833423" />
<circle cx="127.91418099729519" cy="50.35756491901133" r="2.808111510101364" fill="#8B4513" fill-opacity="0.4807662216000671" />
<circle cx="141.57509216000216" cy="101.66303431712153" r="4.567887107149911" fill="#8B4513" fill-opacity="0.286736624260283" />
<circle cx="158.6435169504434" cy="113.96875024289554" r="2.056290025790804" fill="#FFFFFF" fill-opacity="0.5861062257308118" />
<circle cx="90.77859286665787" cy="46.83928061826896" r="3.2604902471733634" fill="#8B4513" fill-opacity="0.5070791830572166" />
<circle cx="184.66842368456247" cy="92.14982116926141" r="3.967626910513203" fill="#FFFFFF" fill-opacity="0.428840680444068" />
<circle cx="66.10599260020885" cy="41.737161442384554" r="5.218482287480379" fill="#D2691E" fill-opacity="0.580283537089259" />
<circle cx="125.09909083021286" cy="122.29551595645684" r="2.307969029936843" fill="#FFDE75" fill-opacity="0.25824805539281986" />
<circle cx="105.72186681339642" cy="40.40347908367171" r="3.60345755198354" fill="#FFFFFF" fill-opacity="0.3873727621469152" />
<circle cx="160.89500038936876" cy="65.46642119987797" r="2.023328863061441" fill="#FFFFFF" fill-opacity="0.5051352416091772" />
<circle cx="145.5967875164402" cy="36.44778042334559" r="4.904327370322578" fill="#FFDE75" fill-opacity="0.20881714289126846" />
<circle cx="161.9061722237659" cy="108.98475169960882" r="3.372928557776796" fill="#FFDE75" fill-opacity="0.4956159867554815" />
<circle cx="41.730255663891946" cy="133.96566206152022" r="3.5977159331785873" fill="#FFDE75" fill-opacity="0.478524354621235" />
<circle cx="51.3980328637904" cy="126.18226792479982" r="5.712983532692714" fill="#FFDE75" fill-opacity="0.5065477953329232" />
<circle cx="118.97814025630835" cy="45.915376571276234" r="2.949057676214197" fill="#FFFFFF" fill-opacity="0.3735196882283667" />
<circle cx="160.59736661360887" cy="60.05086098613479" r="4.662726341694926" fill="#D2691E" fill-opacity="0.33314192283220934" />
<circle cx="180.9182105914507" cy="91.62601588874453" r="5.789273966551635" fill="#8B4513" fill-opacity="0.2579145384106416" />
<circle cx="81.54747274931754" cy="39.23681947604868" r="3.0123150200216324" fill="#D2691E" fill-opacity="0.588121397425387" />
<circle cx="82.96362991293843" cy="115.36661537342661" r="2.609437819580967" fill="#FFDE75" fill-opacity="0.29006520782612216" />
<circle cx="65.47573315068291" cy="170.47610996638213" r="5.6949393409153295" fill="#FFFFFF" fill-opacity="0.32590452488261956" />
<circle cx="78.44015172011477" cy="103.09250962324606" r="2.3320560274801228" fill="#8B4513" fill-opacity="0.5455135873394135" />
<circle cx="66.2920255446549" cy="127.6537599166393" r="3.8455876237119058" fill="#FFFFFF" fill-opacity="0.366304062515955" />
<circle cx="76.97412050918743" cy="89.08568254277378" r="2.8638918492001024" fill="#8B4513" fill-opacity="0.4889247814008024" />
<circle cx="65.7794671258707" cy="92.90833063707396" r="4.556187548962566" fill="#FFDE75" fill-opacity="0.5673656866528002" />
<circle cx="71.98650998615037" cy="91.65760831373655" r="3.4467406708931647" fill="#8B4513" fill-opacity="0.5397779736508632" />
<circle cx="53.40800692445704" cy="98.95333068685261" r="3.854332541365169" fill="#FFFFFF" fill-opacity="0.30496640487899096" />
<circle cx="167.2362315055438" cy="119.61188851312886" r="5.076146443314339" fill="#FFFFFF" fill-opacity="0.2625243028812757" />
<circle cx="175.28805677713635" cy="78.74951181162237" r="5.489659501306818" fill="#8B4513" fill-opacity="0.5233979577611547" />
<circle cx="178.31978093675232" cy="122.16641597467755" r="10.572949752239273" fill="#C92A2A" stroke="#800000" stroke-width="1" />
<circle cx="179.95346555688295" cy="118.72652743985999" r="0.9476954303362366" fill="#FFA07A" fill-opacity="0.7" />
<circle cx="172.37585277316307" cy="124.8149903425153" r="0.8864277283254374" fill="#FFA07A" fill-opacity="0.7" />
<circle cx="183.57853078072586" cy="123.98085415927451" r="0.8812637629224113" fill="#FFA07A" fill-opacity="0.7" />
<circle cx="178.71384562438203" cy="123.67207779341695" r="1.355517499510317" fill="#FFA07A" fill-opacity="0.7" />
<circle cx="173.1582689884071" cy="127.34596417737984" r="1.1987696208998804" fill="#FFA07A" fill-opacity="0.7" />
<circle cx="176.98266988800847" cy="124.51881552395298" r="1.205931239274201" fill="#FFA07A" fill-opacity="0.7" />
<circle cx="156.36833218968226" cy="91.02802557474615" r="10.91396898237475" fill="#C92A2A" stroke="#800000" stroke-width="1" />
<circle cx="157.18366573034655" cy="95.90074312032736" r="1.2349215261684794" fill="#FFA07A" fill-opacity="0.7" />
<circle cx="157.39367172909112" cy="95.9801044011673" r="0.8410528628877626" fill="#FFA07A" fill-opacity="0.7" />
<circle cx="156.67650376444746" cy="91.07572244633924" r="1.200486705254579" fill="#FFA07A" fill-opacity="0.7" />
<circle cx="76.65078537316643" cy="101.0212557949856" r="9.88439632041186" fill="#C92A2A" stroke="#800000" stroke-width="1" />
<circle cx="73.22194702020887" cy="103.47633836989436" r="0.9628127544055795" fill="#FFA07A" fill-opacity="0.7" />
<circle cx="77.46647025578521" cy="101.32466804983352" r="0.5409594925894384" fill="#FFA07A" fill-opacity="0.7" />
<circle cx="78.58668204033691" cy="104.41879706693884" r="0.5210494902608397" fill="#FFA07A" fill-opacity="0.7" />
<circle cx="81.75946293652521" cy="102.90612804382535" r="1.403888477225826" fill="#FFA07A" fill-opacity="0.7" />
<circle cx="75.30380048538176" cy="95.31021509348146" r="0.578111682028137" fill="#FFA07A" fill-opacity="0.7" />
<circle cx="153.0269560174849" cy="124.35760687746932" r="10.109637057333353" fill="#C92A2A" stroke="#800000" stroke-width="1" />
<circle cx="149.27575561329945" cy="122.7450859362632" r="1.0483402121688377" fill="#FFA07A" fill-opacity="0.7" />
<circle cx="147.46370422595052" cy="118.82647557681864" r="0.5371525251661593" fill="#FFA07A" fill-opacity="0.7" />
<circle cx="158.68352507294625" cy="124.09771627606156" r="0.9284874892923485" fill="#FFA07A" fill-opacity="0.7" />
<circle cx="148.06695933630056" cy="119.47789392056211" r="1.3424428236881174" fill="#FFA07A" fill-opacity="0.7" />
<circle cx="148.9224652790212" cy="119.13751200177535" r="0.5744237719486895" fill="#FFA07A" fill-opacity="0.7" />
<circle cx="152.56820327794352" cy="120.11856824843916" r="1.3255378208599122" fill="#FFA07A" fill-opacity="0.7" />
<circle cx="150.01289028161975" cy="128.06702089888608" r="1.0103048110099047" fill="#FFA07A" fill-opacity="0.7" />
<circle cx="78.9871531248576" cy="98.88536863691942" r="9.295934553036242" fill="#C92A2A" stroke="#800000" stroke-width="1" />
<circle cx="75.5153194098688" cy="96.75329800294735" r="0.6005545859955761" fill="#FFA07A" fill-opacity="0.7" />
<circle cx="81.66705189292104" cy="99.01244647307227" r="0.6321666957365454" fill="#FFA07A" fill-opacity="0.7" />
<circle cx="73.67595913645853" cy="102.07605497397049" r="1.4390918609740564" fill="#FFA07A" fill-opacity="0.7" />
<circle cx="79.60097628074026" cy="96.8479845726422" r="1.4073543110465092" fill="#FFA07A" fill-opacity="0.7" />
<circle cx="74.15995673311603" cy="104.56434330734824" r="1.1224410834153935" fill="#FFA07A" fill-opacity="0.7" />
<circle cx="73.66085185347116" cy="97.30330045585323" r="0.7453859562720964" fill="#FFA07A" fill-opacity="0.7" />
<circle cx="73.58800231395998" cy="93.15169752543406" r="1.205023685863258" fill="#FFA07A" fill-opacity="0.7" />
<circle cx="136.4986467553305" cy="82.46071747786087" r="11.537370442076558" fill="#C92A2A" stroke="#800000" stroke-width="1" />
<circle cx="137.60003215743757" cy="83.56644080154649" r="1.4924782197010613" fill="#FFA07A" fill-opacity="0.7" />
<circle cx="132.74605607235137" cy="88.36112238086326" r="0.6379442395655806" fill="#FFA07A" fill-opacity="0.7" />
<circle cx="131.91120068236955" cy="79.33764055774893" r="1.4631321153469439" fill="#FFA07A" fill-opacity="0.7" />
<circle cx="139.55186809999756" cy="77.8168831318709" r="1.483291642025554" fill="#FFA07A" fill-opacity="0.7" />
<circle cx="136.7053820767159" cy="82.29036742725934" r="0.5784265282263065" fill="#FFA07A" fill-opacity="0.7" />
<circle cx="138.42982975079204" cy="82.66029360792783" r="0.736584727459511" fill="#FFA07A" fill-opacity="0.7" />
<circle cx="112.66773630987674" cy="54.1277618201768" r="9.254933876540838" fill="#C92A2A" stroke="#800000" stroke-width="1" />
<circle cx="106.79030365813824" cy="56.17416798644803" r="0.7872107712572124" fill="#FFA07A" fill-opacity="0.7" />
<circle cx="117.84541718132141" cy="60.01143400369436" r="0.7852350595523011" fill="#FFA07A" fill-opacity="0.7" />
<circle cx="113.61059286867635" cy="48.87875147720711" r="0.8260175782700959" fill="#FFA07A" fill-opacity="0.7" />
<circle cx="118.2041126057868" cy="55.381744695006994" r="1.1416345312737741" fill="#FFA07A" fill-opacity="0.7" />
<circle cx="159.5842092505054" cy="119.69620243596815" r="10.903017558221974" fill="#C92A2A" stroke="#800000" stroke-width="1" />
<circle cx="164.0452474784447" cy="115.61188281629292" r="1.3160317610731544" fill="#FFA07A" fill-opacity="0.7" />
<circle cx="158.50002587273846" cy="118.48375599298492" r="0.7293126396647734" fill="#FFA07A" fill-opacity="0.7" />
<circle cx="165.36826988120396" cy="123.1742835753598" r="1.4539572889723746" fill="#FFA07A" fill-opacity="0.7" />
<circle cx="161.58322128399828" cy="124.74500789344279" r="0.9050856521290843" fill="#FFA07A" fill-opacity="0.7" />
<circle cx="158.57451820038926" cy="122.51631356267674" r="1.1765925651226157" fill="#FFA07A" fill-opacity="0.7" />
<circle cx="157.8389055277214" cy="114.04022168339064" r="0.9627610316167476" fill="#FFA07A" fill-opacity="0.7" />
<circle cx="104.61529947800425" cy="92.62726878637545" r="10.427403519732934" fill="#C92A2A" stroke="#800000" stroke-width="1" />
<circle cx="98.86739374078499" cy="94.01229773189048" r="1.2323750020478577" fill="#FFA07A" fill-opacity="0.7" />
<circle cx="104.02680102548187" cy="93.45380729050342" r="0.7375277033765342" fill="#FFA07A" fill-opacity="0.7" />
<circle cx="108.56813779694006" cy="95.27472352661059" r="0.7179436233092028" fill="#FFA07A" fill-opacity="0.7" />
<circle cx="99.70896690900523" cy="88.81077426869595" r="1.192170568175578" fill="#FFA07A" fill-opacity="0.7" />
<circle cx="105.84559628319968" cy="91.99777834553583" r="0.51021801093471" fill="#FFA07A" fill-opacity="0.7" />
<circle cx="103.12120244966577" cy="98.54276579617971" r="0.9865098756274305" fill="#FFA07A" fill-opacity="0.7" />
<circle cx="104.28859491022092" cy="97.77543490404096" r="1.1825054209224561" fill="#FFA07A" fill-opacity="0.7" />
<circle cx="129.00682077894518" cy="59.36856554425935" r="10.341538817144917" fill="#C92A2A" stroke="#800000" stroke-width="1" />
<circle cx="123.20775628186504" cy="54.80002799257274" r="0.9123971337223795" fill="#FFA07A" fill-opacity="0.7" />
<circle cx="124.4502359794317" cy="55.44748005842614" r="1.0318686761613454" fill="#FFA07A" fill-opacity="0.7" />
<circle cx="127.49157705488847" cy="57.64208363871589" r="1.3234742072896335" fill="#FFA07A" fill-opacity="0.7" />
<circle cx="124.93007280686835" cy="58.25245765749416" r="1.2640162654434255" fill="#FFA07A" fill-opacity="0.7" />
<circle cx="123.28248174434638" cy="65.08398656416752" r="1.486421936453465" fill="#FFA07A" fill-opacity="0.7" />
<circle cx="124.5678674520907" cy="65.18221182796297" r="1.0651590698024251" fill="#FFA07A" fill-opacity="0.7" />
<circle cx="123.90414385855638" cy="53.41899845340644" r="0.9112661471367379" fill="#FFA07A" fill-opacity="0.7" />
<circle cx="87.66910942097653" cy="52.33344186871634" r="9.726306354695675" fill="#C92A2A" stroke="#800000" stroke-width="1" />
<circle cx="92.86900677218598" cy="55.039042850422234" r="0.8414733164135682" fill="#FFA07A" fill-opacity="0.7" />
<circle cx="92.56319522810782" cy="53.98190180550474" r="1.0661097417408234" fill="#FFA07A" fill-opacity="0.7" />
<circle cx="89.51325006060924" cy="53.98611909704737" r="0.5785249615524672" fill="#FFA07A" fill-opacity="0.7" />
<circle cx="91.69878497814436" cy="47.02991332714896" r="0.8297919917882811" fill="#FFA07A" fill-opacity="0.7" />
<circle cx="89.57623908921886" cy="52.35848716410611" r="0.7447062899409338" fill="#FFA07A" fill-opacity="0.7" />
<circle cx="32.72072538331747" cy="110.95850295492671" r="11.119496983159305" fill="#C92A2A" stroke="#800000" stroke-width="1" />
<circle cx="33.77891880967633" cy="115.81681955760388" r="1.0242037825720247" fill="#FFA07A" fill-opacity="0.7" />
<circle cx="37.871473882501405" cy="109.31191525005536" r="1.4716217750863665" fill="#FFA07A" fill-opacity="0.7" />
<circle cx="33.88238882407231" cy="113.57252695136573" r="0.8712414148160692" fill="#FFA07A" fill-opacity="0.7" />
<circle cx="170.37615114952263" cy="114.07552327467431" r="11.741418014524825" fill="#C92A2A" stroke="#800000" stroke-width="1" />
<circle cx="173.3683283533698" cy="111.91284781675463" r="1.4777571187970253" fill="#FFA07A" fill-opacity="0.7" />
<circle cx="169.97930074244604" cy="117.42728684482152" r="1.0095893960615063" fill="#FFA07A" fill-opacity="0.7" />
<circle cx="166.08824650872643" cy="111.14004435022736" r="1.0821654932270854" fill="#FFA07A" fill-opacity="0.7" />
<circle cx="173.31688555618274" cy="119.56707002379778" r="1.3837270751697188" fill="#FFA07A" fill-opacity="0.7" />
<circle cx="170.81667367263844" cy="111.77035865571622" r="0.5232206273971213" fill="#FFA07A" fill-opacity="0.7" />
<circle cx="168.94641132326848" cy="114.14700783428208" r="1.3421585402278287" fill="#FFA07A" fill-opacity="0.7" />
<circle cx="93.6633994203946" cy="153.74439487886272" r="11.520953757670409" fill="#C92A2A" stroke="#800000" stroke-width="1" />
<circle cx="88.638223424198" cy="159.31276750213732" r="1.0244002159512817" fill="#FFA07A" fill-opacity="0.7" />
<circle cx="92.99188537744253" cy="155.01954425840464" r="0.5849477701831051" fill="#FFA07A" fill-opacity="0.7" />
<circle cx="89.58782006982548" cy="154.70945494241695" r="1.291927099785312" fill="#FFA07A" fill-opacity="0.7" />
<circle cx="89.18158779504869" cy="157.8752181156353" r="1.2897243818055004" fill="#FFA07A" fill-opacity="0.7" />
<circle cx="95.01799165465569" cy="159.48652509562422" r="1.285201652283555" fill="#FFA07A" fill-opacity="0.7" />
<circle cx="111.3059780525723" cy="97.70837053200415" r="9.323572924104523" fill="#C92A2A" stroke="#800000" stroke-width="1" />
<circle cx="108.23488514916966" cy="96.56745736136246" r="1.0885167260623063" fill="#FFA07A" fill-opacity="0.7" />
<circle cx="114.57237400286458" cy="96.60707478112933" r="0.7345173852890781" fill="#FFA07A" fill-opacity="0.7" />
<circle cx="108.78429201264247" cy="94.30911472093956" r="1.168114527551864" fill="#FFA07A" fill-opacity="0.7" />
<circle cx="115.4896166754058" cy="102.91696436235699" r="1.3582087193466807" fill="#FFA07A" fill-opacity="0.7" />
<circle cx="105.7257738095912" cy="93.41590946344282" r="1.2558405326489193" fill="#FFA07A" fill-opacity="0.7" />
<circle cx="107.76036915315956" cy="94.91828790290911" r="0.7344639807164819" fill="#FFA07A" fill-opacity="0.7" />
<circle cx="70.09742049726776" cy="96.83156704913613" r="10.639732295920547" fill="#C92A2A" stroke="#800000" stroke-width="1" />
<circle cx="68.75927462798566" cy="90.98077929444563" r="1.4058297870347771" fill="#FFA07A" fill-opacity="0.7" />
<circle cx="69.19748305582159" cy="95.2540388445978" r="1.0524863047382622" fill="#FFA07A" fill-opacity="0.7" />
<circle cx="67.37404229350481" cy="94.01594396674955" r="0.5049402355114191" fill="#FFA07A" fill-opacity="0.7" />
<circle cx="74.19317931513872" cy="96.60697398812042" r="0.6789271558207318" fill="#FFA07A" fill-opacity="0.7" />
<circle cx="68.80200417637802" cy="91.88770676313052" r="1.0105054825250868" fill="#FFA07A" fill-opacity="0.7" />
<circle cx="73.24076809168274" cy="93.47083938978818" r="1.1807933553105885" fill="#FFA07A" fill-opacity="0.7" />
<circle cx="71.83815897090096" cy="101.6238222845425" r="0.837974374952158" fill="#FFA07A" fill-opacity="0.7" />
</g>
<path d="M105.0,105.0 L105.0,5.0" stroke="lightgray" stroke-width="2" />
<path d="M105.0,105.0 L205.0,105.0" stroke="lightgray" stroke-width="2" />
<path d="M105.0,105.0 L105.0,205.0" stroke="lightgray" stroke-width="2" />
<path d="M105.0,105.0 L5.0,105.00000000000001" stroke="lightgray" stroke-width="2" />
<circle cx="105.0" cy="105.0" r="100" fill="none" stroke="lightgray" stroke-width="2" />
</g>
</svg>
<svg x="225.0" y="0.0" width="284.0" height="210.0" viewBox="0 0 284.0 210" xmlns="http://www.w3.org/2000/svg" xmlns:xlink="http://www.w3.org/1999/xlink">
<defs>
<clipPath id="clip-4556238800-4502392272">
<path d="M105.0,105.0 L105.0,5.0 A100,100,0,0,1,205.0,105.0 Z" fill="none" />
</clipPath>
<clipPath id="clip-4556238800-4567855440">
<path d="M105.0,105.0 L205.0,105.0 A100,100,0,0,1,105.0,205.0 Z" fill="none" />
</clipPath>
<clipPath id="clip-4556238800-4567999184">
<path d="M105.0,105.0 L105.0,205.0 A100,100,0,0,1,5.0,105.00000000000001 Z" fill="none" />
</clipPath>
</defs>
<g>
<path d="M105.0,105.0 L105.0,5.0 A100,100,0,0,1,205.0,105.0 Z" fill="none" stroke="lightgray" stroke-width="2" />
<path d="M105.0,105.0 L205.0,105.0 A100,100,0,0,1,105.0,205.0 Z" fill="none" stroke="lightgray" stroke-width="2" />
<path d="M105.0,105.0 L105.0,205.0 A100,100,0,0,1,5.0,105.00000000000001 Z" fill="none" stroke="lightgray" stroke-width="2" />
<path d="M105.0,105.0 L5.0,105.00000000000001 A100,100,0,0,1,104.99999999999999,5.0 Z" fill="none" stroke="lightgray" stroke-width="2" />
<path d="M105.0,105.0 L105.0,5.0 A100,100,0,0,1,205.0,105.0 Z" fill="#F5C754" stroke="lightgray" stroke-width="2" />
<use xlink:href="#clip-4556238800-4502392272" />
<g clip-path="url(#clip-4556238800-4502392272)">
<circle cx="105.0" cy="105.0" r="92" stroke="#DAA05D" stroke-width="16" fill="none" />
<circle cx="105.0" cy="105.0" r="98" stroke="#C37B32" stroke-width="5" fill="none" />
<circle cx="169.82330570083212" cy="104.35277781628074" r="3.791073590028881" fill="#FFFFFF" fill-opacity="0.5914084288617978" />
<circle cx="139.64095944512803" cy="78.83340165723807" r="2.0595155693822695" fill="#8B4513" fill-opacity="0.2701954228575835" />
<circle cx="77.23137555374113" cy="79.08292578460353" r="4.352000622361897" fill="#FFFFFF" fill-opacity="0.4597084918902718" />
<circle cx="39.45385369056913" cy="132.01433709959386" r="3.8067049410905187" fill="#FFDE75" fill-opacity="0.2635745544226272" />
<circle cx="75.21125187315268" cy="181.0093324121517" r="4.354947344798427" fill="#8B4513" fill-opacity="0.39930422601399734" />
<circle cx="147.96646800008637" cy="172.92134011852528" r="4.787635941802609" fill="#8B4513" fill-opacity="0.2510459577880136" />
<circle cx="22.28998791753321" cy="107.97971489520094" r="5.0649508535533645" fill="#FFDE75" fill-opacity="0.398275251951157" />
<circle cx="146.95900835762703" cy="167.44444495843345" r="5.464968681920245" fill="#FFDE75" fill-opacity="0.5190858580492577" />
<circle cx="108.96479043723564" cy="139.79018967636426" r="2.2443619060334767" fill="#FFFFFF" fill-opacity="0.48379303561236464" />
<circle cx="135.80734053787728" cy="78.3329784759697" r="2.2637229471928912" fill="#FFFFFF" fill-opacity="0.4930442002174436" />
<circle cx="110.4571318577098" cy="98.5669781312667" r="4.05089554593634" fill="#FFDE75" fill-opacity="0.2025194005640823" />
<circle cx="43.97660423138414" cy="68.8368226561995" r="5.541243658496821" fill="#FFDE75" fill-opacity="0.21534373268758153" />
<circle cx="88.42142145317172" cy="62.53890299550154" r="5.5107102722293" fill="#FFFFFF" fill-opacity="0.5731801370784595" />
<circle cx="73.7417154585348" cy="173.07086023565316" r="5.432926207599845" fill="#D2691E" fill-opacity="0.47819256652187175" />
<circle cx="133.57266973605746" cy="87.01544564037856" r="3.3094589343466403" fill="#FFFFFF" fill-opacity="0.21868424096104544" />
<circle cx="82.98345022141535" cy="98.46482397086305" r="5.154213073925315" fill="#8B4513" fill-opacity="0.43238148837160206" />
<circle cx="122.0038237310235" cy="64.64604827628776" r="3.072488719403165" fill="#8B4513" fill-opacity="0.2827859308348889" />
<circle cx="174.97762039359813" cy="148.1331660637636" r="5.286778543534725" fill="#FFFFFF" fill-opacity="0.46433385257387244" />
<circle cx="38.17635695191244" cy="146.14488373826538" r="2.0585793329096767" fill="#8B4513" fill-opacity="0.37834373229754104" />
<circle cx="100.8442226748233" cy="184.71638213780756" r="2.072818408560993" fill="#FFDE75" fill-opacity="0.5593903365259163" />
<circle cx="72.51587150837224" cy="63.9271772599218" r="2.4593089278570126" fill="#D2691E" fill-opacity="0.24896874376447695" />
<circle cx="138.7276161780423" cy="127.41409011394879" r="2.16048602548459" fill="#8B4513" fill-opacity="0.22799041615804028" />
<circle cx="99.93012325601885" cy="172.76028449907392" r="4.896685801990551" fill="#FFFFFF" fill-opacity="0.5875134217523263" />
<circle cx="74.46235326554806" cy="181.95131957431622" r="3.5106289907084616" fill="#D2691E" fill-opacity="0.46119274324620024" />
<circle cx="182.6199647043188" cy="108.76903122320581" r="3.082712136008653" fill="#D2691E" fill-opacity="0.5279864504062832" />
<circle cx="149.97517792868922" cy="159.95750499616713" r="5.852142340800686" fill="#FFDE75" fill-opacity="0.35533904378536635" />
<circle cx="80.53114671211856" cy="136.42141221307003" r="2.3692682031100656" fill="#FFFFFF" fill-opacity="0.26216820335662466" />
<circle cx="144.08676648970408" cy="53.18111099180492" r="4.863912763162096" fill="#8B4513" fill-opacity="0.4295024667500606" />
<circle cx="156.6807529049359" cy="118.45374919544368" r="4.221315061758219" fill="#FFDE75" fill-opacity="0.42246668675417864" />
<circle cx="90.49533840831843" cy="100.20216773024026" r="2.8149885006338278" fill="#D2691E" fill-opacity="0.2858493197655494" />
<circle cx="106.00487877012056" cy="33.41578258691264" r="3.076838189145556" fill="#FFFFFF" fill-opacity="0.41010351598878747" />
<circle cx="105.20303292256416" cy="182.48394331194214" r="3.143251330502481" fill="#D2691E" fill-opacity="0.3531594109326402" />
<circle cx="178.98925734734615" cy="141.4633331969779" r="3.221024079650196" fill="#FFFFFF" fill-opacity="0.5124378953099794" />
<circle cx="164.41693074216568" cy="107.73655211175613" r="4.151070424617102" fill="#FFFFFF" fill-opacity="0.22868872976101506" />
<circle cx="59.13475690927295" cy="86.80421434806199" r="4.71280090742443" fill="#8B4513" fill-opacity="0.28854607168767443" />
<circle cx="122.33388494018757" cy="56.067832338849" r="5.656992054606524" fill="#8B4513" fill-opacity="0.5914783213345476" />
<circle cx="133.03933287390305" cy="62.93753561688668" r="3.0067817706274083" fill="#FFDE75" fill-opacity="0.2958638538231119" />
<circle cx="38.99450895977077" cy="69.19567783035879" r="3.16687453665862" fill="#FFDE75" fill-opacity="0.4522387604616352" />
<circle cx="164.83635836312558" cy="46.86939290001493" r="4.94178359954911" fill="#D2691E" fill-opacity="0.5624013653795401" />
<circle cx="23.713751376209316" cy="112.80067153497627" r="4.6761544483820545" fill="#FFFFFF" fill-opacity="0.46430143094113835" />
<circle cx="107.28764261162735" cy="93.5074801318188" r="4.027721385530521" fill="#FFDE75" fill-opacity="0.4656336889264336" />
<circle cx="101.11258496880164" cy="82.7456436118671" r="4.089299687912703" fill="#8B4513" fill-opacity="0.4864078799316904" />
<circle cx="184.30577949980363" cy="116.73853640935205" r="4.14014577206896" fill="#FFFFFF" fill-opacity="0.48949046047810946" />
<circle cx="65.31626605251454" cy="30.74268546839683" r="2.163476240276856" fill="#D2691E" fill-opacity="0.2641605247244507" />
<circle cx="60.54751536763553" cy="175.2306193312953" r="2.351132389090756" fill="#D2691E" fill-opacity="0.260323246324623" />
<circle cx="132.65711274970633" cy="98.85599352288176" r="9.061778935869794" fill="#C92A2A" stroke="#800000" stroke-width="1" />
<circle cx="126.80847770226795" cy="95.9507884320378" r="0.9130088662273572" fill="#FFA07A" fill-opacity="0.7" />
<circle cx="132.07975869208101" cy="100.2279909240392" r="0.7227781770576659" fill="#FFA07A" fill-opacity="0.7" />
<circle cx="133.59961308757732" cy="103.7431470399391" r="1.3503745682932369" fill="#FFA07A" fill-opacity="0.7" />
<circle cx="129.25253693584725" cy="101.63570521866284" r="1.066388532442371" fill="#FFA07A" fill-opacity="0.7" />
<circle cx="118.0066378480181" cy="48.66588281656186" r="10.190180828812794" fill="#C92A2A" stroke="#800000" stroke-width="1" />
<circle cx="118.69725006107232" cy="43.018281813416756" r="1.124449852923281" fill="#FFA07A" fill-opacity="0.7" />
<circle cx="114.63381783386691" cy="47.132882590759436" r="1.0753355271209672" fill="#FFA07A" fill-opacity="0.7" />
<circle cx="118.69089956600996" cy="53.14162892609573" r="1.3932881445055836" fill="#FFA07A" fill-opacity="0.7" />
<circle cx="112.74015831430047" cy="49.461974717068486" r="1.4090484466543898" fill="#FFA07A" fill-opacity="0.7" />
<circle cx="123.50657194444013" cy="46.200871357553716" r="1.1847338489846795" fill="#FFA07A" fill-opacity="0.7" />
<circle cx="119.64542416086658" cy="47.72639552726572" r="1.2404423409496126" fill="#FFA07A" fill-opacity="0.7" />
<circle cx="167.12869362418232" cy="131.02828730642045" r="9.387534684638961" fill="#C92A2A" stroke="#800000" stroke-width="1" />
<circle cx="166.7461112245249" cy="131.1023117767969" r="1.3981837281752343" fill="#FFA07A" fill-opacity="0.7" />
<circle cx="172.0725446835258" cy="131.30621030652676" r="1.349253122688717" fill="#FFA07A" fill-opacity="0.7" />
<circle cx="164.71215072788002" cy="126.30161703821152" r="0.5330564403802689" fill="#FFA07A" fill-opacity="0.7" />
<circle cx="162.0000889054768" cy="128.5601412312024" r="1.1226699224142453" fill="#FFA07A" fill-opacity="0.7" />
<circle cx="167.36416666892717" cy="125.60076547415522" r="0.7708088485541907" fill="#FFA07A" fill-opacity="0.7" />
<circle cx="119.35022915561409" cy="176.99424364037066" r="9.82458774298672" fill="#C92A2A" stroke="#800000" stroke-width="1" />
<circle cx="122.20123059120513" cy="178.1252800500703" r="0.7678749425851537" fill="#FFA07A" fill-opacity="0.7" />
<circle cx="124.05437850746812" cy="174.52629419791253" r="1.1946640451485164" fill="#FFA07A" fill-opacity="0.7" />
<circle cx="116.07397914335878" cy="173.66190641508086" r="0.609233357878508" fill="#FFA07A" fill-opacity="0.7" />
<circle cx="117.84930520537071" cy="175.7396693507861" r="1.197372998011762" fill="#FFA07A" fill-opacity="0.7" />
<circle cx="110.61473703943311" cy="165.70821918373082" r="11.976481219198849" fill="#C92A2A" stroke="#800000" stroke-width="1" />
<circle cx="113.2915508774776" cy="171.3206725712541" r="0.5838625154521729" fill="#FFA07A" fill-opacity="0.7" />
<circle cx="106.77281907398067" cy="167.16859972705703" r="1.0569789481123362" fill="#FFA07A" fill-opacity="0.7" />
<circle cx="116.46072386635483" cy="166.24576758245075" r="1.2839311323141074" fill="#FFA07A" fill-opacity="0.7" />
<circle cx="111.71164082656527" cy="168.85686067876003" r="1.383422923658803" fill="#FFA07A" fill-opacity="0.7" />
<circle cx="115.50528230841455" cy="170.80376177608534" r="0.9527355929729692" fill="#FFA07A" fill-opacity="0.7" />
<circle cx="110.13819795857498" cy="162.87568820358607" r="1.4154920703417948" fill="#FFA07A" fill-opacity="0.7" />
<circle cx="165.40662134313794" cy="84.79620506197662" r="9.601464504315123" fill="#C92A2A" stroke="#800000" stroke-width="1" />
<circle cx="159.59702339182343" cy="90.42505280833473" r="0.8684978463199982" fill="#FFA07A" fill-opacity="0.7" />
<circle cx="168.84731392544526" cy="80.2843904967936" r="0.5429571797184586" fill="#FFA07A" fill-opacity="0.7" />
<circle cx="163.69001784380282" cy="84.15553999366259" r="1.1304659866889062" fill="#FFA07A" fill-opacity="0.7" />
<circle cx="167.411596993436" cy="87.80590341766211" r="1.2752328938847304" fill="#FFA07A" fill-opacity="0.7" />
<circle cx="47.584567684717335" cy="61.70299249881583" r="9.238063780063198" fill="#C92A2A" stroke="#800000" stroke-width="1" />
<circle cx="42.25024619880631" cy="55.78142966162285" r="1.149271191329757" fill="#FFA07A" fill-opacity="0.7" />
<circle cx="44.41741195907753" cy="60.477003638967055" r="1.416324356817692" fill="#FFA07A" fill-opacity="0.7" />
<circle cx="49.08923039651375" cy="59.59632019546371" r="0.6315389141972118" fill="#FFA07A" fill-opacity="0.7" />
<circle cx="45.6246403526135" cy="60.1089446982715" r="1.2375875084858374" fill="#FFA07A" fill-opacity="0.7" />
<circle cx="50.338581235987576" cy="60.3128662329302" r="1.1469948553336247" fill="#FFA07A" fill-opacity="0.7" />
<circle cx="174.458833136033" cy="94.35933749833325" r="10.904935203720258" fill="#C92A2A" stroke="#800000" stroke-width="1" />
<circle cx="173.1934013939148" cy="90.61032883548334" r="1.3443257784770235" fill="#FFA07A" fill-opacity="0.7" />
<circle cx="177.78423377255646" cy="99.02353077293695" r="1.2690440158525338" fill="#FFA07A" fill-opacity="0.7" />
<circle cx="168.85587201815127" cy="97.02043685887591" r="0.9959032145903187" fill="#FFA07A" fill-opacity="0.7" />
<circle cx="174.06096064245742" cy="93.62605953526352" r="0.5233094886224184" fill="#FFA07A" fill-opacity="0.7" />
<circle cx="174.16241804586213" cy="94.34695082237683" r="1.1568453322074348" fill="#FFA07A" fill-opacity="0.7" />
<circle cx="172.05146392586903" cy="91.902009850592" r="1.190553103376096" fill="#FFA07A" fill-opacity="0.7" />
<circle cx="176.36979237720792" cy="97.95281967913651" r="1.0104349153053054" fill="#FFA07A" fill-opacity="0.7" />
<circle cx="149.43692401102226" cy="95.21988574338263" r="10.979723740841035" fill="#C92A2A" stroke="#800000" stroke-width="1" />
<circle cx="145.10569277521313" cy="90.03653640681422" r="0.8413371205452812" fill="#FFA07A" fill-opacity="0.7" />
<circle cx="150.28888038964203" cy="92.00802656486485" r="1.1944365740702887" fill="#FFA07A" fill-opacity="0.7" />
<circle cx="148.40990907375036" cy="100.27893519786285" r="0.9456180312397579" fill="#FFA07A" fill-opacity="0.7" />
<circle cx="154.44248110791128" cy="90.8469535260576" r="1.1365644599932543" fill="#FFA07A" fill-opacity="0.7" />
<circle cx="143.83741445828264" cy="98.07173367194633" r="0.715554088117054" fill="#FFA07A" fill-opacity="0.7" />
<circle cx="147.30788796861262" cy="99.6073337888218" r="0.8677509923117133" fill="#FFA07A" fill-opacity="0.7" />
<circle cx="145.4093463073551" cy="92.88762199793538" r="0.864505107314299" fill="#FFA07A" fill-opacity="0.7" />
<circle cx="104.12296631355885" cy="135.0759523951035" r="11.345326770931125" fill="#C92A2A" stroke="#800000" stroke-width="1" />
<circle cx="108.12063344308542" cy="129.36004038138944" r="0.5820764403255262" fill="#FFA07A" fill-opacity="0.7" />
<circle cx="98.73370839021872" cy="129.46291871472792" r="1.4652913883932839" fill="#FFA07A" fill-opacity="0.7" />
<circle cx="99.96202051033721" cy="135.29249942343336" r="1.1044379250060226" fill="#FFA07A" fill-opacity="0.7" />
<circle cx="103.25502082706663" cy="135.7665068830536" r="0.9282726399709607" fill="#FFA07A" fill-opacity="0.7" />
<circle cx="105.47983934911494" cy="35.275803724214654" r="9.7328382709857" fill="#C92A2A" stroke="#800000" stroke-width="1" />
<circle cx="102.64467710335677" cy="39.21266600525995" r="1.2245331085453013" fill="#FFA07A" fill-opacity="0.7" />
<circle cx="102.01770234077907" cy="38.88550305793251" r="1.1051766995531882" fill="#FFA07A" fill-opacity="0.7" />
<circle cx="100.39955901194762" cy="37.999464043877126" r="1.0335719769538207" fill="#FFA07A" fill-opacity="0.7" />
<circle cx="102.30726609161675" cy="38.70042398563966" r="1.3005493568826403" fill="#FFA07A" fill-opacity="0.7" />
<circle cx="100.56343805126286" cy="40.14557437628403" r="1.4748692238504342" fill="#FFA07A" fill-opacity="0.7" />
<circle cx="75.23110456696222" cy="107.5056853245612" r="10.332632356497676" fill="#C92A2A" stroke="#800000" stroke-width="1" />
<circle cx="70.6874006088466" cy="102.81442458058292" r="0.7331311601761156" fill="#FFA07A" fill-opacity="0.7" />
<circle cx="76.29316889523693" cy="101.9607228450453" r="0.9184751516604059" fill="#FFA07A" fill-opacity="0.7" />
<circle cx="74.31377424034822" cy="112.82945535571018" r="1.0007599686244015" fill="#FFA07A" fill-opacity="0.7" />
<circle cx="69.44674679473886" cy="112.68838467807512" r="1.432337996397879" fill="#FFA07A" fill-opacity="0.7" />
<circle cx="70.25368381256555" cy="107.57648795140224" r="0.5491263269941852" fill="#FFA07A" fill-opacity="0.7" />
<circle cx="74.87039047027284" cy="108.6311941616852" r="0.9473484751851013" fill="#FFA07A" fill-opacity="0.7" />
</g>
<path d="M105.0,105.0 L205.0,105.0 A100,100,0,0,1,105.0,205.0 Z" fill="#F5C754" stroke="lightgray" stroke-width="2" />
<use xlink:href="#clip-4556238800-4567855440" />
<g clip-path="url(#clip-4556238800-4567855440)">
<circle cx="105.0" cy="105.0" r="92" stroke="#DAA05D" stroke-width="16" fill="none" />
<circle cx="105.0" cy="105.0" r="98" stroke="#C37B32" stroke-width="5" fill="none" />
<circle cx="169.82330570083212" cy="104.35277781628074" r="3.791073590028881" fill="#FFFFFF" fill-opacity="0.5914084288617978" />
<circle cx="139.64095944512803" cy="78.83340165723807" r="2.0595155693822695" fill="#8B4513" fill-opacity="0.2701954228575835" />
<circle cx="77.23137555374113" cy="79.08292578460353" r="4.352000622361897" fill="#FFFFFF" fill-opacity="0.4597084918902718" />
<circle cx="39.45385369056913" cy="132.01433709959386" r="3.8067049410905187" fill="#FFDE75" fill-opacity="0.2635745544226272" />
<circle cx="75.21125187315268" cy="181.0093324121517" r="4.354947344798427" fill="#8B4513" fill-opacity="0.39930422601399734" />
<circle cx="147.96646800008637" cy="172.92134011852528" r="4.787635941802609" fill="#8B4513" fill-opacity="0.2510459577880136" />
<circle cx="22.28998791753321" cy="107.97971489520094" r="5.0649508535533645" fill="#FFDE75" fill-opacity="0.398275251951157" />
<circle cx="146.95900835762703" cy="167.44444495843345" r="5.464968681920245" fill="#FFDE75" fill-opacity="0.5190858580492577" />
<circle cx="108.96479043723564" cy="139.79018967636426" r="2.2443619060334767" fill="#FFFFFF" fill-opacity="0.48379303561236464" />
<circle cx="135.80734053787728" cy="78.3329784759697" r="2.2637229471928912" fill="#FFFFFF" fill-opacity="0.4930442002174436" />
<circle cx="110.4571318577098" cy="98.5669781312667" r="4.05089554593634" fill="#FFDE75" fill-opacity="0.2025194005640823" />
<circle cx="43.97660423138414" cy="68.8368226561995" r="5.541243658496821" fill="#FFDE75" fill-opacity="0.21534373268758153" />
<circle cx="88.42142145317172" cy="62.53890299550154" r="5.5107102722293" fill="#FFFFFF" fill-opacity="0.5731801370784595" />
<circle cx="73.7417154585348" cy="173.07086023565316" r="5.432926207599845" fill="#D2691E" fill-opacity="0.47819256652187175" />
<circle cx="133.57266973605746" cy="87.01544564037856" r="3.3094589343466403" fill="#FFFFFF" fill-opacity="0.21868424096104544" />
<circle cx="82.98345022141535" cy="98.46482397086305" r="5.154213073925315" fill="#8B4513" fill-opacity="0.43238148837160206" />
<circle cx="122.0038237310235" cy="64.64604827628776" r="3.072488719403165" fill="#8B4513" fill-opacity="0.2827859308348889" />
<circle cx="174.97762039359813" cy="148.1331660637636" r="5.286778543534725" fill="#FFFFFF" fill-opacity="0.46433385257387244" />
<circle cx="38.17635695191244" cy="146.14488373826538" r="2.0585793329096767" fill="#8B4513" fill-opacity="0.37834373229754104" />
<circle cx="100.8442226748233" cy="184.71638213780756" r="2.072818408560993" fill="#FFDE75" fill-opacity="0.5593903365259163" />
<circle cx="72.51587150837224" cy="63.9271772599218" r="2.4593089278570126" fill="#D2691E" fill-opacity="0.24896874376447695" />
<circle cx="138.7276161780423" cy="127.41409011394879" r="2.16048602548459" fill="#8B4513" fill-opacity="0.22799041615804028" />
<circle cx="99.93012325601885" cy="172.76028449907392" r="4.896685801990551" fill="#FFFFFF" fill-opacity="0.5875134217523263" />
<circle cx="74.46235326554806" cy="181.95131957431622" r="3.5106289907084616" fill="#D2691E" fill-opacity="0.46119274324620024" />
<circle cx="182.6199647043188" cy="108.76903122320581" r="3.082712136008653" fill="#D2691E" fill-opacity="0.5279864504062832" />
<circle cx="149.97517792868922" cy="159.95750499616713" r="5.852142340800686" fill="#FFDE75" fill-opacity="0.35533904378536635" />
<circle cx="80.53114671211856" cy="136.42141221307003" r="2.3692682031100656" fill="#FFFFFF" fill-opacity="0.26216820335662466" />
<circle cx="144.08676648970408" cy="53.18111099180492" r="4.863912763162096" fill="#8B4513" fill-opacity="0.4295024667500606" />
<circle cx="156.6807529049359" cy="118.45374919544368" r="4.221315061758219" fill="#FFDE75" fill-opacity="0.42246668675417864" />
<circle cx="90.49533840831843" cy="100.20216773024026" r="2.8149885006338278" fill="#D2691E" fill-opacity="0.2858493197655494" />
<circle cx="106.00487877012056" cy="33.41578258691264" r="3.076838189145556" fill="#FFFFFF" fill-opacity="0.41010351598878747" />
<circle cx="105.20303292256416" cy="182.48394331194214" r="3.143251330502481" fill="#D2691E" fill-opacity="0.3531594109326402" />
<circle cx="178.98925734734615" cy="141.4633331969779" r="3.221024079650196" fill="#FFFFFF" fill-opacity="0.5124378953099794" />
<circle cx="164.41693074216568" cy="107.73655211175613" r="4.151070424617102" fill="#FFFFFF" fill-opacity="0.22868872976101506" />
<circle cx="59.13475690927295" cy="86.80421434806199" r="4.71280090742443" fill="#8B4513" fill-opacity="0.28854607168767443" />
<circle cx="122.33388494018757" cy="56.067832338849" r="5.656992054606524" fill="#8B4513" fill-opacity="0.5914783213345476" />
<circle cx="133.03933287390305" cy="62.93753561688668" r="3.0067817706274083" fill="#FFDE75" fill-opacity="0.2958638538231119" />
<circle cx="38.99450895977077" cy="69.19567783035879" r="3.16687453665862" fill="#FFDE75" fill-opacity="0.4522387604616352" />
<circle cx="164.83635836312558" cy="46.86939290001493" r="4.94178359954911" fill="#D2691E" fill-opacity="0.5624013653795401" />
<circle cx="23.713751376209316" cy="112.80067153497627" r="4.6761544483820545" fill="#FFFFFF" fill-opacity="0.46430143094113835" />
<circle cx="107.28764261162735" cy="93.5074801318188" r="4.027721385530521" fill="#FFDE75" fill-opacity="0.4656336889264336" />
<circle cx="101.11258496880164" cy="82.7456436118671" r="4.089299687912703" fill="#8B4513" fill-opacity="0.4864078799316904" />
<circle cx="184.30577949980363" cy="116.73853640935205" r="4.14014577206896" fill="#FFFFFF" fill-opacity="0.48949046047810946" />
<circle cx="65.31626605251454" cy="30.74268546839683" r="2.163476240276856" fill="#D2691E" fill-opacity="0.2641605247244507" />
<circle cx="60.54751536763553" cy="175.2306193312953" r="2.351132389090756" fill="#D2691E" fill-opacity="0.260323246324623" />
<circle cx="132.65711274970633" cy="98.85599352288176" r="9.061778935869794" fill="#C92A2A" stroke="#800000" stroke-width="1" />
<circle cx="126.80847770226795" cy="95.9507884320378" r="0.9130088662273572" fill="#FFA07A" fill-opacity="0.7" />
<circle cx="132.07975869208101" cy="100.2279909240392" r="0.7227781770576659" fill="#FFA07A" fill-opacity="0.7" />
<circle cx="133.59961308757732" cy="103.7431470399391" r="1.3503745682932369" fill="#FFA07A" fill-opacity="0.7" />
<circle cx="129.25253693584725" cy="101.63570521866284" r="1.066388532442371" fill="#FFA07A" fill-opacity="0.7" />
<circle cx="118.0066378480181" cy="48.66588281656186" r="10.190180828812794" fill="#C92A2A" stroke="#800000" stroke-width="1" />
<circle cx="118.69725006107232" cy="43.018281813416756" r="1.124449852923281" fill="#FFA07A" fill-opacity="0.7" />
<circle cx="114.63381783386691" cy="47.132882590759436" r="1.0753355271209672" fill="#FFA07A" fill-opacity="0.7" />
<circle cx="118.69089956600996" cy="53.14162892609573" r="1.3932881445055836" fill="#FFA07A" fill-opacity="0.7" />
<circle cx="112.74015831430047" cy="49.461974717068486" r="1.4090484466543898" fill="#FFA07A" fill-opacity="0.7" />
<circle cx="123.50657194444013" cy="46.200871357553716" r="1.1847338489846795" fill="#FFA07A" fill-opacity="0.7" />
<circle cx="119.64542416086658" cy="47.72639552726572" r="1.2404423409496126" fill="#FFA07A" fill-opacity="0.7" />
<circle cx="167.12869362418232" cy="131.02828730642045" r="9.387534684638961" fill="#C92A2A" stroke="#800000" stroke-width="1" />
<circle cx="166.7461112245249" cy="131.1023117767969" r="1.3981837281752343" fill="#FFA07A" fill-opacity="0.7" />
<circle cx="172.0725446835258" cy="131.30621030652676" r="1.349253122688717" fill="#FFA07A" fill-opacity="0.7" />
<circle cx="164.71215072788002" cy="126.30161703821152" r="0.5330564403802689" fill="#FFA07A" fill-opacity="0.7" />
<circle cx="162.0000889054768" cy="128.5601412312024" r="1.1226699224142453" fill="#FFA07A" fill-opacity="0.7" />
<circle cx="167.36416666892717" cy="125.60076547415522" r="0.7708088485541907" fill="#FFA07A" fill-opacity="0.7" />
<circle cx="119.35022915561409" cy="176.99424364037066" r="9.82458774298672" fill="#C92A2A" stroke="#800000" stroke-width="1" />
<circle cx="122.20123059120513" cy="178.1252800500703" r="0.7678749425851537" fill="#FFA07A" fill-opacity="0.7" />
<circle cx="124.05437850746812" cy="174.52629419791253" r="1.1946640451485164" fill="#FFA07A" fill-opacity="0.7" />
<circle cx="116.07397914335878" cy="173.66190641508086" r="0.609233357878508" fill="#FFA07A" fill-opacity="0.7" />
<circle cx="117.84930520537071" cy="175.7396693507861" r="1.197372998011762" fill="#FFA07A" fill-opacity="0.7" />
<circle cx="110.61473703943311" cy="165.70821918373082" r="11.976481219198849" fill="#C92A2A" stroke="#800000" stroke-width="1" />
<circle cx="113.2915508774776" cy="171.3206725712541" r="0.5838625154521729" fill="#FFA07A" fill-opacity="0.7" />
<circle cx="106.77281907398067" cy="167.16859972705703" r="1.0569789481123362" fill="#FFA07A" fill-opacity="0.7" />
<circle cx="116.46072386635483" cy="166.24576758245075" r="1.2839311323141074" fill="#FFA07A" fill-opacity="0.7" />
<circle cx="111.71164082656527" cy="168.85686067876003" r="1.383422923658803" fill="#FFA07A" fill-opacity="0.7" />
<circle cx="115.50528230841455" cy="170.80376177608534" r="0.9527355929729692" fill="#FFA07A" fill-opacity="0.7" />
<circle cx="110.13819795857498" cy="162.87568820358607" r="1.4154920703417948" fill="#FFA07A" fill-opacity="0.7" />
<circle cx="165.40662134313794" cy="84.79620506197662" r="9.601464504315123" fill="#C92A2A" stroke="#800000" stroke-width="1" />
<circle cx="159.59702339182343" cy="90.42505280833473" r="0.8684978463199982" fill="#FFA07A" fill-opacity="0.7" />
<circle cx="168.84731392544526" cy="80.2843904967936" r="0.5429571797184586" fill="#FFA07A" fill-opacity="0.7" />
<circle cx="163.69001784380282" cy="84.15553999366259" r="1.1304659866889062" fill="#FFA07A" fill-opacity="0.7" />
<circle cx="167.411596993436" cy="87.80590341766211" r="1.2752328938847304" fill="#FFA07A" fill-opacity="0.7" />
<circle cx="47.584567684717335" cy="61.70299249881583" r="9.238063780063198" fill="#C92A2A" stroke="#800000" stroke-width="1" />
<circle cx="42.25024619880631" cy="55.78142966162285" r="1.149271191329757" fill="#FFA07A" fill-opacity="0.7" />
<circle cx="44.41741195907753" cy="60.477003638967055" r="1.416324356817692" fill="#FFA07A" fill-opacity="0.7" />
<circle cx="49.08923039651375" cy="59.59632019546371" r="0.6315389141972118" fill="#FFA07A" fill-opacity="0.7" />
<circle cx="45.6246403526135" cy="60.1089446982715" r="1.2375875084858374" fill="#FFA07A" fill-opacity="0.7" />
<circle cx="50.338581235987576" cy="60.3128662329302" r="1.1469948553336247" fill="#FFA07A" fill-opacity="0.7" />
<circle cx="174.458833136033" cy="94.35933749833325" r="10.904935203720258" fill="#C92A2A" stroke="#800000" stroke-width="1" />
<circle cx="173.1934013939148" cy="90.61032883548334" r="1.3443257784770235" fill="#FFA07A" fill-opacity="0.7" />
<circle cx="177.78423377255646" cy="99.02353077293695" r="1.2690440158525338" fill="#FFA07A" fill-opacity="0.7" />
<circle cx="168.85587201815127" cy="97.02043685887591" r="0.9959032145903187" fill="#FFA07A" fill-opacity="0.7" />
<circle cx="174.06096064245742" cy="93.62605953526352" r="0.5233094886224184" fill="#FFA07A" fill-opacity="0.7" />
<circle cx="174.16241804586213" cy="94.34695082237683" r="1.1568453322074348" fill="#FFA07A" fill-opacity="0.7" />
<circle cx="172.05146392586903" cy="91.902009850592" r="1.190553103376096" fill="#FFA07A" fill-opacity="0.7" />
<circle cx="176.36979237720792" cy="97.95281967913651" r="1.0104349153053054" fill="#FFA07A" fill-opacity="0.7" />
<circle cx="149.43692401102226" cy="95.21988574338263" r="10.979723740841035" fill="#C92A2A" stroke="#800000" stroke-width="1" />
<circle cx="145.10569277521313" cy="90.03653640681422" r="0.8413371205452812" fill="#FFA07A" fill-opacity="0.7" />
<circle cx="150.28888038964203" cy="92.00802656486485" r="1.1944365740702887" fill="#FFA07A" fill-opacity="0.7" />
<circle cx="148.40990907375036" cy="100.27893519786285" r="0.9456180312397579" fill="#FFA07A" fill-opacity="0.7" />
<circle cx="154.44248110791128" cy="90.8469535260576" r="1.1365644599932543" fill="#FFA07A" fill-opacity="0.7" />
<circle cx="143.83741445828264" cy="98.07173367194633" r="0.715554088117054" fill="#FFA07A" fill-opacity="0.7" />
<circle cx="147.30788796861262" cy="99.6073337888218" r="0.8677509923117133" fill="#FFA07A" fill-opacity="0.7" />
<circle cx="145.4093463073551" cy="92.88762199793538" r="0.864505107314299" fill="#FFA07A" fill-opacity="0.7" />
<circle cx="104.12296631355885" cy="135.0759523951035" r="11.345326770931125" fill="#C92A2A" stroke="#800000" stroke-width="1" />
<circle cx="108.12063344308542" cy="129.36004038138944" r="0.5820764403255262" fill="#FFA07A" fill-opacity="0.7" />
<circle cx="98.73370839021872" cy="129.46291871472792" r="1.4652913883932839" fill="#FFA07A" fill-opacity="0.7" />
<circle cx="99.96202051033721" cy="135.29249942343336" r="1.1044379250060226" fill="#FFA07A" fill-opacity="0.7" />
<circle cx="103.25502082706663" cy="135.7665068830536" r="0.9282726399709607" fill="#FFA07A" fill-opacity="0.7" />
<circle cx="105.47983934911494" cy="35.275803724214654" r="9.7328382709857" fill="#C92A2A" stroke="#800000" stroke-width="1" />
<circle cx="102.64467710335677" cy="39.21266600525995" r="1.2245331085453013" fill="#FFA07A" fill-opacity="0.7" />
<circle cx="102.01770234077907" cy="38.88550305793251" r="1.1051766995531882" fill="#FFA07A" fill-opacity="0.7" />
<circle cx="100.39955901194762" cy="37.999464043877126" r="1.0335719769538207" fill="#FFA07A" fill-opacity="0.7" />
<circle cx="102.30726609161675" cy="38.70042398563966" r="1.3005493568826403" fill="#FFA07A" fill-opacity="0.7" />
<circle cx="100.56343805126286" cy="40.14557437628403" r="1.4748692238504342" fill="#FFA07A" fill-opacity="0.7" />
<circle cx="75.23110456696222" cy="107.5056853245612" r="10.332632356497676" fill="#C92A2A" stroke="#800000" stroke-width="1" />
<circle cx="70.6874006088466" cy="102.81442458058292" r="0.7331311601761156" fill="#FFA07A" fill-opacity="0.7" />
<circle cx="76.29316889523693" cy="101.9607228450453" r="0.9184751516604059" fill="#FFA07A" fill-opacity="0.7" />
<circle cx="74.31377424034822" cy="112.82945535571018" r="1.0007599686244015" fill="#FFA07A" fill-opacity="0.7" />
<circle cx="69.44674679473886" cy="112.68838467807512" r="1.432337996397879" fill="#FFA07A" fill-opacity="0.7" />
<circle cx="70.25368381256555" cy="107.57648795140224" r="0.5491263269941852" fill="#FFA07A" fill-opacity="0.7" />
<circle cx="74.87039047027284" cy="108.6311941616852" r="0.9473484751851013" fill="#FFA07A" fill-opacity="0.7" />
</g>
<path d="M105.0,105.0 L105.0,205.0 A100,100,0,0,1,5.0,105.00000000000001 Z" fill="#F5C754" stroke="lightgray" stroke-width="2" />
<use xlink:href="#clip-4556238800-4567999184" />
<g clip-path="url(#clip-4556238800-4567999184)">
<circle cx="105.0" cy="105.0" r="92" stroke="#DAA05D" stroke-width="16" fill="none" />
<circle cx="105.0" cy="105.0" r="98" stroke="#C37B32" stroke-width="5" fill="none" />
<circle cx="169.82330570083212" cy="104.35277781628074" r="3.791073590028881" fill="#FFFFFF" fill-opacity="0.5914084288617978" />
<circle cx="139.64095944512803" cy="78.83340165723807" r="2.0595155693822695" fill="#8B4513" fill-opacity="0.2701954228575835" />
<circle cx="77.23137555374113" cy="79.08292578460353" r="4.352000622361897" fill="#FFFFFF" fill-opacity="0.4597084918902718" />
<circle cx="39.45385369056913" cy="132.01433709959386" r="3.8067049410905187" fill="#FFDE75" fill-opacity="0.2635745544226272" />
<circle cx="75.21125187315268" cy="181.0093324121517" r="4.354947344798427" fill="#8B4513" fill-opacity="0.39930422601399734" />
<circle cx="147.96646800008637" cy="172.92134011852528" r="4.787635941802609" fill="#8B4513" fill-opacity="0.2510459577880136" />
<circle cx="22.28998791753321" cy="107.97971489520094" r="5.0649508535533645" fill="#FFDE75" fill-opacity="0.398275251951157" />
<circle cx="146.95900835762703" cy="167.44444495843345" r="5.464968681920245" fill="#FFDE75" fill-opacity="0.5190858580492577" />
<circle cx="108.96479043723564" cy="139.79018967636426" r="2.2443619060334767" fill="#FFFFFF" fill-opacity="0.48379303561236464" />
<circle cx="135.80734053787728" cy="78.3329784759697" r="2.2637229471928912" fill="#FFFFFF" fill-opacity="0.4930442002174436" />
<circle cx="110.4571318577098" cy="98.5669781312667" r="4.05089554593634" fill="#FFDE75" fill-opacity="0.2025194005640823" />
<circle cx="43.97660423138414" cy="68.8368226561995" r="5.541243658496821" fill="#FFDE75" fill-opacity="0.21534373268758153" />
<circle cx="88.42142145317172" cy="62.53890299550154" r="5.5107102722293" fill="#FFFFFF" fill-opacity="0.5731801370784595" />
<circle cx="73.7417154585348" cy="173.07086023565316" r="5.432926207599845" fill="#D2691E" fill-opacity="0.47819256652187175" />
<circle cx="133.57266973605746" cy="87.01544564037856" r="3.3094589343466403" fill="#FFFFFF" fill-opacity="0.21868424096104544" />
<circle cx="82.98345022141535" cy="98.46482397086305" r="5.154213073925315" fill="#8B4513" fill-opacity="0.43238148837160206" />
<circle cx="122.0038237310235" cy="64.64604827628776" r="3.072488719403165" fill="#8B4513" fill-opacity="0.2827859308348889" />
<circle cx="174.97762039359813" cy="148.1331660637636" r="5.286778543534725" fill="#FFFFFF" fill-opacity="0.46433385257387244" />
<circle cx="38.17635695191244" cy="146.14488373826538" r="2.0585793329096767" fill="#8B4513" fill-opacity="0.37834373229754104" />
<circle cx="100.8442226748233" cy="184.71638213780756" r="2.072818408560993" fill="#FFDE75" fill-opacity="0.5593903365259163" />
<circle cx="72.51587150837224" cy="63.9271772599218" r="2.4593089278570126" fill="#D2691E" fill-opacity="0.24896874376447695" />
<circle cx="138.7276161780423" cy="127.41409011394879" r="2.16048602548459" fill="#8B4513" fill-opacity="0.22799041615804028" />
<circle cx="99.93012325601885" cy="172.76028449907392" r="4.896685801990551" fill="#FFFFFF" fill-opacity="0.5875134217523263" />
<circle cx="74.46235326554806" cy="181.95131957431622" r="3.5106289907084616" fill="#D2691E" fill-opacity="0.46119274324620024" />
<circle cx="182.6199647043188" cy="108.76903122320581" r="3.082712136008653" fill="#D2691E" fill-opacity="0.5279864504062832" />
<circle cx="149.97517792868922" cy="159.95750499616713" r="5.852142340800686" fill="#FFDE75" fill-opacity="0.35533904378536635" />
<circle cx="80.53114671211856" cy="136.42141221307003" r="2.3692682031100656" fill="#FFFFFF" fill-opacity="0.26216820335662466" />
<circle cx="144.08676648970408" cy="53.18111099180492" r="4.863912763162096" fill="#8B4513" fill-opacity="0.4295024667500606" />
<circle cx="156.6807529049359" cy="118.45374919544368" r="4.221315061758219" fill="#FFDE75" fill-opacity="0.42246668675417864" />
<circle cx="90.49533840831843" cy="100.20216773024026" r="2.8149885006338278" fill="#D2691E" fill-opacity="0.2858493197655494" />
<circle cx="106.00487877012056" cy="33.41578258691264" r="3.076838189145556" fill="#FFFFFF" fill-opacity="0.41010351598878747" />
<circle cx="105.20303292256416" cy="182.48394331194214" r="3.143251330502481" fill="#D2691E" fill-opacity="0.3531594109326402" />
<circle cx="178.98925734734615" cy="141.4633331969779" r="3.221024079650196" fill="#FFFFFF" fill-opacity="0.5124378953099794" />
<circle cx="164.41693074216568" cy="107.73655211175613" r="4.151070424617102" fill="#FFFFFF" fill-opacity="0.22868872976101506" />
<circle cx="59.13475690927295" cy="86.80421434806199" r="4.71280090742443" fill="#8B4513" fill-opacity="0.28854607168767443" />
<circle cx="122.33388494018757" cy="56.067832338849" r="5.656992054606524" fill="#8B4513" fill-opacity="0.5914783213345476" />
<circle cx="133.03933287390305" cy="62.93753561688668" r="3.0067817706274083" fill="#FFDE75" fill-opacity="0.2958638538231119" />
<circle cx="38.99450895977077" cy="69.19567783035879" r="3.16687453665862" fill="#FFDE75" fill-opacity="0.4522387604616352" />
<circle cx="164.83635836312558" cy="46.86939290001493" r="4.94178359954911" fill="#D2691E" fill-opacity="0.5624013653795401" />
<circle cx="23.713751376209316" cy="112.80067153497627" r="4.6761544483820545" fill="#FFFFFF" fill-opacity="0.46430143094113835" />
<circle cx="107.28764261162735" cy="93.5074801318188" r="4.027721385530521" fill="#FFDE75" fill-opacity="0.4656336889264336" />
<circle cx="101.11258496880164" cy="82.7456436118671" r="4.089299687912703" fill="#8B4513" fill-opacity="0.4864078799316904" />
<circle cx="184.30577949980363" cy="116.73853640935205" r="4.14014577206896" fill="#FFFFFF" fill-opacity="0.48949046047810946" />
<circle cx="65.31626605251454" cy="30.74268546839683" r="2.163476240276856" fill="#D2691E" fill-opacity="0.2641605247244507" />
<circle cx="60.54751536763553" cy="175.2306193312953" r="2.351132389090756" fill="#D2691E" fill-opacity="0.260323246324623" />
<circle cx="132.65711274970633" cy="98.85599352288176" r="9.061778935869794" fill="#C92A2A" stroke="#800000" stroke-width="1" />
<circle cx="126.80847770226795" cy="95.9507884320378" r="0.9130088662273572" fill="#FFA07A" fill-opacity="0.7" />
<circle cx="132.07975869208101" cy="100.2279909240392" r="0.7227781770576659" fill="#FFA07A" fill-opacity="0.7" />
<circle cx="133.59961308757732" cy="103.7431470399391" r="1.3503745682932369" fill="#FFA07A" fill-opacity="0.7" />
<circle cx="129.25253693584725" cy="101.63570521866284" r="1.066388532442371" fill="#FFA07A" fill-opacity="0.7" />
<circle cx="118.0066378480181" cy="48.66588281656186" r="10.190180828812794" fill="#C92A2A" stroke="#800000" stroke-width="1" />
<circle cx="118.69725006107232" cy="43.018281813416756" r="1.124449852923281" fill="#FFA07A" fill-opacity="0.7" />
<circle cx="114.63381783386691" cy="47.132882590759436" r="1.0753355271209672" fill="#FFA07A" fill-opacity="0.7" />
<circle cx="118.69089956600996" cy="53.14162892609573" r="1.3932881445055836" fill="#FFA07A" fill-opacity="0.7" />
<circle cx="112.74015831430047" cy="49.461974717068486" r="1.4090484466543898" fill="#FFA07A" fill-opacity="0.7" />
<circle cx="123.50657194444013" cy="46.200871357553716" r="1.1847338489846795" fill="#FFA07A" fill-opacity="0.7" />
<circle cx="119.64542416086658" cy="47.72639552726572" r="1.2404423409496126" fill="#FFA07A" fill-opacity="0.7" />
<circle cx="167.12869362418232" cy="131.02828730642045" r="9.387534684638961" fill="#C92A2A" stroke="#800000" stroke-width="1" />
<circle cx="166.7461112245249" cy="131.1023117767969" r="1.3981837281752343" fill="#FFA07A" fill-opacity="0.7" />
<circle cx="172.0725446835258" cy="131.30621030652676" r="1.349253122688717" fill="#FFA07A" fill-opacity="0.7" />
<circle cx="164.71215072788002" cy="126.30161703821152" r="0.5330564403802689" fill="#FFA07A" fill-opacity="0.7" />
<circle cx="162.0000889054768" cy="128.5601412312024" r="1.1226699224142453" fill="#FFA07A" fill-opacity="0.7" />
<circle cx="167.36416666892717" cy="125.60076547415522" r="0.7708088485541907" fill="#FFA07A" fill-opacity="0.7" />
<circle cx="119.35022915561409" cy="176.99424364037066" r="9.82458774298672" fill="#C92A2A" stroke="#800000" stroke-width="1" />
<circle cx="122.20123059120513" cy="178.1252800500703" r="0.7678749425851537" fill="#FFA07A" fill-opacity="0.7" />
<circle cx="124.05437850746812" cy="174.52629419791253" r="1.1946640451485164" fill="#FFA07A" fill-opacity="0.7" />
<circle cx="116.07397914335878" cy="173.66190641508086" r="0.609233357878508" fill="#FFA07A" fill-opacity="0.7" />
<circle cx="117.84930520537071" cy="175.7396693507861" r="1.197372998011762" fill="#FFA07A" fill-opacity="0.7" />
<circle cx="110.61473703943311" cy="165.70821918373082" r="11.976481219198849" fill="#C92A2A" stroke="#800000" stroke-width="1" />
<circle cx="113.2915508774776" cy="171.3206725712541" r="0.5838625154521729" fill="#FFA07A" fill-opacity="0.7" />
<circle cx="106.77281907398067" cy="167.16859972705703" r="1.0569789481123362" fill="#FFA07A" fill-opacity="0.7" />
<circle cx="116.46072386635483" cy="166.24576758245075" r="1.2839311323141074" fill="#FFA07A" fill-opacity="0.7" />
<circle cx="111.71164082656527" cy="168.85686067876003" r="1.383422923658803" fill="#FFA07A" fill-opacity="0.7" />
<circle cx="115.50528230841455" cy="170.80376177608534" r="0.9527355929729692" fill="#FFA07A" fill-opacity="0.7" />
<circle cx="110.13819795857498" cy="162.87568820358607" r="1.4154920703417948" fill="#FFA07A" fill-opacity="0.7" />
<circle cx="165.40662134313794" cy="84.79620506197662" r="9.601464504315123" fill="#C92A2A" stroke="#800000" stroke-width="1" />
<circle cx="159.59702339182343" cy="90.42505280833473" r="0.8684978463199982" fill="#FFA07A" fill-opacity="0.7" />
<circle cx="168.84731392544526" cy="80.2843904967936" r="0.5429571797184586" fill="#FFA07A" fill-opacity="0.7" />
<circle cx="163.69001784380282" cy="84.15553999366259" r="1.1304659866889062" fill="#FFA07A" fill-opacity="0.7" />
<circle cx="167.411596993436" cy="87.80590341766211" r="1.2752328938847304" fill="#FFA07A" fill-opacity="0.7" />
<circle cx="47.584567684717335" cy="61.70299249881583" r="9.238063780063198" fill="#C92A2A" stroke="#800000" stroke-width="1" />
<circle cx="42.25024619880631" cy="55.78142966162285" r="1.149271191329757" fill="#FFA07A" fill-opacity="0.7" />
<circle cx="44.41741195907753" cy="60.477003638967055" r="1.416324356817692" fill="#FFA07A" fill-opacity="0.7" />
<circle cx="49.08923039651375" cy="59.59632019546371" r="0.6315389141972118" fill="#FFA07A" fill-opacity="0.7" />
<circle cx="45.6246403526135" cy="60.1089446982715" r="1.2375875084858374" fill="#FFA07A" fill-opacity="0.7" />
<circle cx="50.338581235987576" cy="60.3128662329302" r="1.1469948553336247" fill="#FFA07A" fill-opacity="0.7" />
<circle cx="174.458833136033" cy="94.35933749833325" r="10.904935203720258" fill="#C92A2A" stroke="#800000" stroke-width="1" />
<circle cx="173.1934013939148" cy="90.61032883548334" r="1.3443257784770235" fill="#FFA07A" fill-opacity="0.7" />
<circle cx="177.78423377255646" cy="99.02353077293695" r="1.2690440158525338" fill="#FFA07A" fill-opacity="0.7" />
<circle cx="168.85587201815127" cy="97.02043685887591" r="0.9959032145903187" fill="#FFA07A" fill-opacity="0.7" />
<circle cx="174.06096064245742" cy="93.62605953526352" r="0.5233094886224184" fill="#FFA07A" fill-opacity="0.7" />
<circle cx="174.16241804586213" cy="94.34695082237683" r="1.1568453322074348" fill="#FFA07A" fill-opacity="0.7" />
<circle cx="172.05146392586903" cy="91.902009850592" r="1.190553103376096" fill="#FFA07A" fill-opacity="0.7" />
<circle cx="176.36979237720792" cy="97.95281967913651" r="1.0104349153053054" fill="#FFA07A" fill-opacity="0.7" />
<circle cx="149.43692401102226" cy="95.21988574338263" r="10.979723740841035" fill="#C92A2A" stroke="#800000" stroke-width="1" />
<circle cx="145.10569277521313" cy="90.03653640681422" r="0.8413371205452812" fill="#FFA07A" fill-opacity="0.7" />
<circle cx="150.28888038964203" cy="92.00802656486485" r="1.1944365740702887" fill="#FFA07A" fill-opacity="0.7" />
<circle cx="148.40990907375036" cy="100.27893519786285" r="0.9456180312397579" fill="#FFA07A" fill-opacity="0.7" />
<circle cx="154.44248110791128" cy="90.8469535260576" r="1.1365644599932543" fill="#FFA07A" fill-opacity="0.7" />
<circle cx="143.83741445828264" cy="98.07173367194633" r="0.715554088117054" fill="#FFA07A" fill-opacity="0.7" />
<circle cx="147.30788796861262" cy="99.6073337888218" r="0.8677509923117133" fill="#FFA07A" fill-opacity="0.7" />
<circle cx="145.4093463073551" cy="92.88762199793538" r="0.864505107314299" fill="#FFA07A" fill-opacity="0.7" />
<circle cx="104.12296631355885" cy="135.0759523951035" r="11.345326770931125" fill="#C92A2A" stroke="#800000" stroke-width="1" />
<circle cx="108.12063344308542" cy="129.36004038138944" r="0.5820764403255262" fill="#FFA07A" fill-opacity="0.7" />
<circle cx="98.73370839021872" cy="129.46291871472792" r="1.4652913883932839" fill="#FFA07A" fill-opacity="0.7" />
<circle cx="99.96202051033721" cy="135.29249942343336" r="1.1044379250060226" fill="#FFA07A" fill-opacity="0.7" />
<circle cx="103.25502082706663" cy="135.7665068830536" r="0.9282726399709607" fill="#FFA07A" fill-opacity="0.7" />
<circle cx="105.47983934911494" cy="35.275803724214654" r="9.7328382709857" fill="#C92A2A" stroke="#800000" stroke-width="1" />
<circle cx="102.64467710335677" cy="39.21266600525995" r="1.2245331085453013" fill="#FFA07A" fill-opacity="0.7" />
<circle cx="102.01770234077907" cy="38.88550305793251" r="1.1051766995531882" fill="#FFA07A" fill-opacity="0.7" />
<circle cx="100.39955901194762" cy="37.999464043877126" r="1.0335719769538207" fill="#FFA07A" fill-opacity="0.7" />
<circle cx="102.30726609161675" cy="38.70042398563966" r="1.3005493568826403" fill="#FFA07A" fill-opacity="0.7" />
<circle cx="100.56343805126286" cy="40.14557437628403" r="1.4748692238504342" fill="#FFA07A" fill-opacity="0.7" />
<circle cx="75.23110456696222" cy="107.5056853245612" r="10.332632356497676" fill="#C92A2A" stroke="#800000" stroke-width="1" />
<circle cx="70.6874006088466" cy="102.81442458058292" r="0.7331311601761156" fill="#FFA07A" fill-opacity="0.7" />
<circle cx="76.29316889523693" cy="101.9607228450453" r="0.9184751516604059" fill="#FFA07A" fill-opacity="0.7" />
<circle cx="74.31377424034822" cy="112.82945535571018" r="1.0007599686244015" fill="#FFA07A" fill-opacity="0.7" />
<circle cx="69.44674679473886" cy="112.68838467807512" r="1.432337996397879" fill="#FFA07A" fill-opacity="0.7" />
<circle cx="70.25368381256555" cy="107.57648795140224" r="0.5491263269941852" fill="#FFA07A" fill-opacity="0.7" />
<circle cx="74.87039047027284" cy="108.6311941616852" r="0.9473484751851013" fill="#FFA07A" fill-opacity="0.7" />
</g>
<rect x="230.0" y="41.0" width="54.0" height="54.0" fill="none" stroke="black" stroke-width="2" />
<rect x="230.0" y="115.0" width="54.0" height="54.0" fill="none" stroke="black" stroke-width="2" />
<path d="M225.0,105.0 L289.0,105.0" stroke="black" stroke-width="2" />
</g>
</svg>
</svg>