<svg width="678.0" height="210.0" xmlns="http://www.w3.org/2000/svg" xmlns:xlink="http://www.w3.org/1999/xlink">
<svg x="0.0" y="0.0" width="284.0" height="210.0" viewBox="0 0 284.0 210" xmlns="http://www.w3.org/2000/svg" xmlns:xlink="http://www.w3.org/1999/xlink">
<defs>
<clipPath id="clip-4530514160-4530922320">
<path d="M105.0,105.0 L105.0,5.0 A100,100,0,0,1,105.0,205.0 Z" fill="none" />
</clipPath>
</defs>
<g>
<path d="M105.0,105.0 L105.0,5.0 A100,100,0,0,1,105.0,205.0 Z" fill="none" stroke="lightgray" stroke-width="2" />
<path d="M105.0,105.0 L105.0,205.0 A100,100,0,0,1,104.99999999999999,5.0 Z" fill="none" stroke="lightgray" stroke-width="2" />
<path d="M105.0,105.0 L105.0,5.0 A100,100,0,0,1,105.0,205.0 Z" fill="#F5C754" stroke="lightgray" stroke-width="2" />
<use xlink:href="#clip-4530514160-4530922320" />
<g clip-path="url(#clip-4530514160-4530922320)">
<circle cx="105.0" cy="105.0" r="92" stroke="#DAA05D" stroke-width="16" fill="none" />
<circle cx="105.0" cy="105.0" r="98" stroke="#C37B32" stroke-width="5" fill="none" />
<circle cx="42.89106923909537" cy="76.29003156210267" r="4.43551224211254" fill="#D2691E" fill-opacity="0.3921506968977059" />
<circle cx="139.25805062850407" cy="143.75389476930278" r="4.02467425563457" fill="#D2691E" fill-opacity="0.5273803718060418" />
<circle cx="163.0854672435682" cy="137.27819329972687" r="3.822551462695181" fill="#FFDE75" fill-opacity="0.5455146843010604" />
<circle cx="137.36608070116412" cy="45.89924832074671" r="5.47439862755668" fill="#FFFFFF" fill-opacity="0.5700954409952281" />
<circle cx="85.6272171076453" cy="135.1833112963768" r="4.880772286242753" fill="#FFFFFF" fill-opacity="0.5582048719918691" />
<circle cx="106.21080242207047" cy="110.34808260900441" r="2.6636225365448127" fill="#FFFFFF" fill-opacity="0.39730114696286734" />
<circle cx="109.94264193612528" cy="154.60042034308128" r="3.8964404417812033" fill="#FFDE75" fill-opacity="0.5684852561922691" />
<circle cx="182.7458174897698" cy="81.77772513126547" r="4.360709295961032" fill="#FFFFFF" fill-opacity="0.42554879458949524" />
<circle cx="120.04684502945018" cy="65.2297033194454" r="3.9303926996098304" fill="#FFDE75" fill-opacity="0.2762137928810876" />
<circle cx="118.53418942379366" cy="87.82183731536759" r="4.1995305677685995" fill="#D2691E" fill-opacity="0.3917926269459008" />
<circle cx="175.04738886857916" cy="109.61647344643828" r="3.7805163656929754" fill="#FFFFFF" fill-opacity="0.26224206833260894" />
<circle cx="168.2953101074687" cy="146.5673987029024" r="4.796040199675165" fill="#8B4513" fill-opacity="0.3143709625901724" />
<circle cx="106.94107791550344" cy="121.01930445576363" r="5.425950037282929" fill="#FFDE75" fill-opacity="0.46591085278350414" />
<circle cx="55.56174321996065" cy="167.27069225345446" r="2.7331936771064425" fill="#8B4513" fill-opacity="0.40955719419347103" />
<circle cx="74.98204364636362" cy="106.7784441871158" r="4.648871508098649" fill="#D2691E" fill-opacity="0.3952406590369506" />
<ellipse cx="42.79950329831338" cy="99.2640632217985" rx="9.864258475596909" ry="6.877059346345137" fill="#FFFDF0" fill-opacity="0.6" />
<ellipse cx="42.24964413427703" cy="98.9769826889601" rx="3.683867276162153" ry="3.142055732916491" fill="#FFFFFF" fill-opacity="0.85" />
<ellipse cx="169.48760956524436" cy="121.44019309561219" rx="7.718062185352563" ry="4.6400089140449685" fill="#FFFDF0" fill-opacity="0.6" />
<ellipse cx="169.2428950001751" cy="121.61471526153144" rx="3.6287376682211416" ry="2.257023032504441" fill="#FFFFFF" fill-opacity="0.85" />
<ellipse cx="138.7630770254215" cy="60.33162008080462" rx="9.089694392092333" ry="4.651913085719919" fill="#FFFDF0" fill-opacity="0.6" />
<ellipse cx="138.90983176461071" cy="59.97541449530327" rx="3.860509990561325" ry="2.3729745082578493" fill="#FFFFFF" fill-opacity="0.85" />
</g>
<rect x="230.0" y="41.0" width="54.0" height="54.0" fill="none" stroke="black" stroke-width="2" />
<rect x="230.0" y="115.0" width="54.0" height="54.0" fill="none" stroke="black" stroke-width="2" />
<path d="M225.0,105.0 L289.0,105.0" stroke="black" stroke-width="2" />
<text x="257.0" y="68.0" font-size="36" font-family="Comic Sans MS, Comic Sans, cursive" dominant-baseline="middle" fill="black" text-anchor="middle">1</text>
<text x="257.0" y="142.0" font-size="36" font-family="Comic Sans MS, Comic Sans, cursive" dominant-baseline="middle" fill="black" text-anchor="middle">2</text>
</g>
</svg>
<rect x="299.0" y="65.0" width="80" height="80" fill="none" stroke="black" stroke-width="1.5"/>
<svg x="394.0" y="0.0" width="284.0" height="210.0" viewBox="0 0 284.0 210" xmlns="http://www.w3.org/2000/svg" xmlns:xlink="http://www.w3.org/1999/xlink">
<defs>
<clipPath id="clip-4518542032-4530914128">
<path d="M105.0,105.0 L105.0,5.0 A100,100,0,0,1,191.60254037844388,155.0 Z" fill="none" />
</clipPath>
<clipPath id="clip-4518542032-4530928080">
<path d="M105.0,105.0 L191.60254037844388,155.0 A100,100,0,0,1,18.397459621556123,155.0 Z" fill="none" />
</clipPath>
</defs>
<g>
<path d="M105.0,105.0 L105.0,5.0 A100,100,0,0,1,191.60254037844388,155.0 Z" fill="none" stroke="lightgray" stroke-width="2" />
<path d="M105.0,105.0 L191.60254037844388,155.0 A100,100,0,0,1,18.397459621556123,155.0 Z" fill="none" stroke="lightgray" stroke-width="2" />
<path d="M105.0,105.0 L18.397459621556123,155.0 A100,100,0,0,1,104.99999999999999,5.0 Z" fill="none" stroke="lightgray" stroke-width="2" />
<path d="M105.0,105.0 L105.0,5.0 A100,100,0,0,1,191.60254037844388,155.0 Z" fill="#F5C754" stroke="lightgray" stroke-width="2" />
<use xlink:href="#clip-4518542032-4530914128" />
<g clip-path="url(#clip-4518542032-4530914128)">
<circle cx="105.0" cy="105.0" r="92" stroke="#DAA05D" stroke-width="16" fill="none" />
<circle cx="105.0" cy="105.0" r="98" stroke="#C37B32" stroke-width="5" fill="none" />
<circle cx="150.16930721382764" cy="131.78725905141764" r="4.621985201289717" fill="#8B4513" fill-opacity="0.5291418873772519" />
<circle cx="163.60615884020183" cy="125.66544772062602" r="2.2832999626298514" fill="#FFFFFF" fill-opacity="0.5456106559446565" />
<circle cx="152.01020442266625" cy="144.48453140546448" r="3.0101949726826893" fill="#FFFFFF" fill-opacity="0.5206158634175101" />
<circle cx="111.58803372871098" cy="63.584023176617805" r="4.448139007700835" fill="#FFDE75" fill-opacity="0.5182665766671053" />
<circle cx="87.42663359174486" cy="151.36589292591142" r="2.6890711054981957" fill="#FFFFFF" fill-opacity="0.5166518377603263" />
<circle cx="47.551731799890376" cy="58.71032367063185" r="2.835916467751546" fill="#8B4513" fill-opacity="0.49988771417344685" />
<circle cx="61.85632618523402" cy="143.02797203060737" r="4.989296793332681" fill="#FFDE75" fill-opacity="0.31094585148665616" />
<circle cx="120.86650049349058" cy="128.629227441745" r="4.822069475220841" fill="#D2691E" fill-opacity="0.5778813778741752" />
<circle cx="153.5112773352417" cy="147.9826044464391" r="3.0135148495655506" fill="#D2691E" fill-opacity="0.28626416327368037" />
<circle cx="180.18061370264888" cy="140.06372021496605" r="4.443460845077819" fill="#FFDE75" fill-opacity="0.3023684619007732" />
<circle cx="176.05800942160664" cy="144.5164346306911" r="5.896889989283363" fill="#8B4513" fill-opacity="0.3205377796625759" />
<circle cx="161.79328598924832" cy="166.58507028130256" r="3.993399014373854" fill="#FFFFFF" fill-opacity="0.4953530734112352" />
<circle cx="30.09284802392733" cy="85.57383319865369" r="3.8821753221829507" fill="#FFFFFF" fill-opacity="0.46748551219419193" />
<circle cx="66.4179906328772" cy="160.7160340166694" r="4.167847150997165" fill="#FFFFFF" fill-opacity="0.2565009182130179" />
<circle cx="80.53941521040471" cy="33.282487827173625" r="2.280438244990554" fill="#FFFFFF" fill-opacity="0.5175507924749729" />
<circle cx="68.62178777468674" cy="145.8001574279803" r="2.78948881492709" fill="#FFDE75" fill-opacity="0.329246180081568" />
<circle cx="54.4147314385547" cy="106.7901952597207" r="3.502681192168904" fill="#FFDE75" fill-opacity="0.3883018286397375" />
<circle cx="127.69265669291718" cy="39.92361467886336" r="2.51019278212012" fill="#FFFFFF" fill-opacity="0.27439542328939165" />
<circle cx="135.55358087638774" cy="82.60554726286671" r="3.4506128312464663" fill="#D2691E" fill-opacity="0.43377044663721076" />
<circle cx="143.89882158819063" cy="172.45030834760243" r="5.62196088462897" fill="#FFDE75" fill-opacity="0.4794803713420004" />
<circle cx="81.79783708095698" cy="74.39257273017081" r="4.9775318261769765" fill="#FFFFFF" fill-opacity="0.5169233886455469" />
<circle cx="36.507734388900516" cy="144.4900229237927" r="5.0009271292573345" fill="#FFDE75" fill-opacity="0.3227084109317912" />
<circle cx="99.9872548368867" cy="44.47270595364292" r="4.021049772502223" fill="#D2691E" fill-opacity="0.32873964944239276" />
<circle cx="174.26998181089402" cy="133.47038067228934" r="3.5033375331688723" fill="#D2691E" fill-opacity="0.3635979875454173" />
<circle cx="112.36836114567934" cy="168.14380762792993" r="5.59353802610034" fill="#D2691E" fill-opacity="0.40186394442766515" />
<circle cx="163.8972198969268" cy="127.99137844669282" r="2.9712781494394953" fill="#D2691E" fill-opacity="0.2848602221178866" />
<circle cx="111.10718648337807" cy="130.84723636314925" r="4.948171468016253" fill="#D2691E" fill-opacity="0.4670831936996225" />
<circle cx="126.6328860980041" cy="27.990931676599345" r="5.320546517131987" fill="#FFDE75" fill-opacity="0.22976545222757735" />
<circle cx="91.55124446473428" cy="116.10874136376393" r="3.9763884020781664" fill="#FFDE75" fill-opacity="0.3772227539684085" />
<circle cx="61.98171411057144" cy="65.18905134022768" r="3.193941417562135" fill="#8B4513" fill-opacity="0.4268329475456175" />
<ellipse cx="104.13394447428978" cy="80.36666443578555" rx="8.844277426032654" ry="8.749366939751306" fill="#FFFDF0" fill-opacity="0.6" />
<ellipse cx="104.86504017111135" cy="80.35325084478768" rx="2.5628459565519495" ry="2.3740635989908263" fill="#FFFFFF" fill-opacity="0.85" />
<ellipse cx="79.23746917007335" cy="180.5150885252384" rx="6.790729638471566" ry="5.10649949618172" fill="#FFFDF0" fill-opacity="0.6" />
<ellipse cx="79.8299738269947" cy="181.4462416345831" rx="3.107521302051053" ry="2.708571277185932" fill="#FFFFFF" fill-opacity="0.85" />
<ellipse cx="48.929149182506656" cy="60.31441092618028" rx="5.100531443034331" ry="5.243884325351527" fill="#FFFDF0" fill-opacity="0.6" />
<ellipse cx="49.62126898164906" cy="60.240717379917285" rx="2.2625788803397016" ry="3.013322366512635" fill="#FFFFFF" fill-opacity="0.85" />
<ellipse cx="108.83196130638684" cy="146.06668618256032" rx="5.38546287517365" ry="8.458317108558877" fill="#FFFDF0" fill-opacity="0.6" />
<ellipse cx="108.50063398799028" cy="146.66552782422124" rx="3.2889982063743104" ry="2.4041732448522843" fill="#FFFFFF" fill-opacity="0.85" />
<ellipse cx="140.6388704353098" cy="130.3880705704606" rx="8.81770599978077" ry="6.74604152234582" fill="#FFFDF0" fill-opacity="0.6" />
<ellipse cx="140.16843269199444" cy="130.1715819713153" rx="3.0928255363477777" ry="3.8225484906725624" fill="#FFFFFF" fill-opacity="0.85" />
<ellipse cx="65.63361564185266" cy="67.44343703938915" rx="9.462647647699905" ry="6.716668848958737" fill="#FFFDF0" fill-opacity="0.6" />
<ellipse cx="66.35852021950241" cy="66.77521600017853" rx="3.5070814865791573" ry="3.0625727997812486" fill="#FFFFFF" fill-opacity="0.85" />
</g>
<path d="M105.0,105.0 L191.60254037844388,155.0 A100,100,0,0,1,18.397459621556123,155.0 Z" fill="#F5C754" stroke="lightgray" stroke-width="2" />
<use xlink:href="#clip-4518542032-4530928080" />
<g clip-path="url(#clip-4518542032-4530928080)">
<circle cx="105.0" cy="105.0" r="92" stroke="#DAA05D" stroke-width="16" fill="none" />
<circle cx="105.0" cy="105.0" r="98" stroke="#C37B32" stroke-width="5" fill="none" />
<circle cx="150.16930721382764" cy="131.78725905141764" r="4.621985201289717" fill="#8B4513" fill-opacity="0.5291418873772519" />
<circle cx="163.60615884020183" cy="125.66544772062602" r="2.2832999626298514" fill="#FFFFFF" fill-opacity="0.5456106559446565" />
<circle cx="152.01020442266625" cy="144.48453140546448" r="3.0101949726826893" fill="#FFFFFF" fill-opacity="0.5206158634175101" />
<circle cx="111.58803372871098" cy="63.584023176617805" r="4.448139007700835" fill="#FFDE75" fill-opacity="0.5182665766671053" />
<circle cx="87.42663359174486" cy="151.36589292591142" r="2.6890711054981957" fill="#FFFFFF" fill-opacity="0.5166518377603263" />
<circle cx="47.551731799890376" cy="58.71032367063185" r="2.835916467751546" fill="#8B4513" fill-opacity="0.49988771417344685" />
<circle cx="61.85632618523402" cy="143.02797203060737" r="4.989296793332681" fill="#FFDE75" fill-opacity="0.31094585148665616" />
<circle cx="120.86650049349058" cy="128.629227441745" r="4.822069475220841" fill="#D2691E" fill-opacity="0.5778813778741752" />
<circle cx="153.5112773352417" cy="147.9826044464391" r="3.0135148495655506" fill="#D2691E" fill-opacity="0.28626416327368037" />
<circle cx="180.18061370264888" cy="140.06372021496605" r="4.443460845077819" fill="#FFDE75" fill-opacity="0.3023684619007732" />
<circle cx="176.05800942160664" cy="144.5164346306911" r="5.896889989283363" fill="#8B4513" fill-opacity="0.3205377796625759" />
<circle cx="161.79328598924832" cy="166.58507028130256" r="3.993399014373854" fill="#FFFFFF" fill-opacity="0.4953530734112352" />
<circle cx="30.09284802392733" cy="85.57383319865369" r="3.8821753221829507" fill="#FFFFFF" fill-opacity="0.46748551219419193" />
<circle cx="66.4179906328772" cy="160.7160340166694" r="4.167847150997165" fill="#FFFFFF" fill-opacity="0.2565009182130179" />
<circle cx="80.53941521040471" cy="33.282487827173625" r="2.280438244990554" fill="#FFFFFF" fill-opacity="0.5175507924749729" />
<circle cx="68.62178777468674" cy="145.8001574279803" r="2.78948881492709" fill="#FFDE75" fill-opacity="0.329246180081568" />
<circle cx="54.4147314385547" cy="106.7901952597207" r="3.502681192168904" fill="#FFDE75" fill-opacity="0.3883018286397375" />
<circle cx="127.69265669291718" cy="39.92361467886336" r="2.51019278212012" fill="#FFFFFF" fill-opacity="0.27439542328939165" />
<circle cx="135.55358087638774" cy="82.60554726286671" r="3.4506128312464663" fill="#D2691E" fill-opacity="0.43377044663721076" />
<circle cx="143.89882158819063" cy="172.45030834760243" r="5.62196088462897" fill="#FFDE75" fill-opacity="0.4794803713420004" />
<circle cx="81.79783708095698" cy="74.39257273017081" r="4.9775318261769765" fill="#FFFFFF" fill-opacity="0.5169233886455469" />
<circle cx="36.507734388900516" cy="144.4900229237927" r="5.0009271292573345" fill="#FFDE75" fill-opacity="0.3227084109317912" />
<circle cx="99.9872548368867" cy="44.47270595364292" r="4.021049772502223" fill="#D2691E" fill-opacity="0.32873964944239276" />
<circle cx="174.26998181089402" cy="133.47038067228934" r="3.5033375331688723" fill="#D2691E" fill-opacity="0.3635979875454173" />
<circle cx="112.36836114567934" cy="168.14380762792993" r="5.59353802610034" fill="#D2691E" fill-opacity="0.40186394442766515" />
<circle cx="163.8972198969268" cy="127.99137844669282" r="2.9712781494394953" fill="#D2691E" fill-opacity="0.2848602221178866" />
<circle cx="111.10718648337807" cy="130.84723636314925" r="4.948171468016253" fill="#D2691E" fill-opacity="0.4670831936996225" />
<circle cx="126.6328860980041" cy="27.990931676599345" r="5.320546517131987" fill="#FFDE75" fill-opacity="0.22976545222757735" />
<circle cx="91.55124446473428" cy="116.10874136376393" r="3.9763884020781664" fill="#FFDE75" fill-opacity="0.3772227539684085" />
<circle cx="61.98171411057144" cy="65.18905134022768" r="3.193941417562135" fill="#8B4513" fill-opacity="0.4268329475456175" />
<ellipse cx="104.13394447428978" cy="80.36666443578555" rx="8.844277426032654" ry="8.749366939751306" fill="#FFFDF0" fill-opacity="0.6" />
<ellipse cx="104.86504017111135" cy="80.35325084478768" rx="2.5628459565519495" ry="2.3740635989908263" fill="#FFFFFF" fill-opacity="0.85" />
<ellipse cx="79.23746917007335" cy="180.5150885252384" rx="6.790729638471566" ry="5.10649949618172" fill="#FFFDF0" fill-opacity="0.6" />
<ellipse cx="79.8299738269947" cy="181.4462416345831" rx="3.107521302051053" ry="2.708571277185932" fill="#FFFFFF" fill-opacity="0.85" />
<ellipse cx="48.929149182506656" cy="60.31441092618028" rx="5.100531443034331" ry="5.243884325351527" fill="#FFFDF0" fill-opacity="0.6" />
<ellipse cx="49.62126898164906" cy="60.240717379917285" rx="2.2625788803397016" ry="3.013322366512635" fill="#FFFFFF" fill-opacity="0.85" />
<ellipse cx="108.83196130638684" cy="146.06668618256032" rx="5.38546287517365" ry="8.458317108558877" fill="#FFFDF0" fill-opacity="0.6" />
<ellipse cx="108.50063398799028" cy="146.66552782422124" rx="3.2889982063743104" ry="2.4041732448522843" fill="#FFFFFF" fill-opacity="0.85" />
<ellipse cx="140.6388704353098" cy="130.3880705704606" rx="8.81770599978077" ry="6.74604152234582" fill="#FFFDF0" fill-opacity="0.6" />
<ellipse cx="140.16843269199444" cy="130.1715819713153" rx="3.0928255363477777" ry="3.8225484906725624" fill="#FFFFFF" fill-opacity="0.85" />
<ellipse cx="65.63361564185266" cy="67.44343703938915" rx="9.462647647699905" ry="6.716668848958737" fill="#FFFDF0" fill-opacity="0.6" />
<ellipse cx="66.35852021950241" cy="66.77521600017853" rx="3.5070814865791573" ry="3.0625727997812486" fill="#FFFFFF" fill-opacity="0.85" />
</g>
<rect x="230.0" y="41.0" width="54.0" height="54.0" fill="none" stroke="black" stroke-width="2" />
<rect x="230.0" y="115.0" width="54.0" height="54.0" fill="none" stroke="black" stroke-width="2" />
<path d="M225.0,105.0 L289.0,105.0" stroke="black" stroke-width="2" />
<text x="257.0" y="68.0" font-size="36" font-family="Comic Sans MS, Comic Sans, cursive" dominant-baseline="middle" fill="black" text-anchor="middle">2</text>
<text x="257.0" y="142.0" font-size="36" font-family="Comic Sans MS, Comic Sans, cursive" dominant-baseline="middle" fill="black" text-anchor="middle">3</text>
</g>
</svg>
</svg>