<svg width="678.0" height="210.0" xmlns="http://www.w3.org/2000/svg" xmlns:xlink="http://www.w3.org/1999/xlink">
<svg x="0.0" y="0.0" width="284.0" height="210.0" viewBox="0 0 284.0 210" xmlns="http://www.w3.org/2000/svg" xmlns:xlink="http://www.w3.org/1999/xlink">
<defs>
<clipPath id="clip-4519011664-4530924624">
<circle cx="105.0" cy="105.0" r="100" fill="none" />
</clipPath>
</defs>
<g>
<circle cx="105.0" cy="105.0" r="100" fill="#F5C754" />
<use xlink:href="#clip-4519011664-4530924624" />
<g clip-path="url(#clip-4519011664-4530924624)">
<circle cx="105.0" cy="105.0" r="92" stroke="#DAA05D" stroke-width="16" fill="none" />
<circle cx="105.0" cy="105.0" r="98" stroke="#C37B32" stroke-width="5" fill="none" />
<circle cx="40.273918368770126" cy="51.49628436752046" r="3.625552146470724" fill="#FFDE75" fill-opacity="0.3764440446745717" />
<circle cx="182.80543234230254" cy="136.62610695069478" r="3.281218206962509" fill="#FFDE75" fill-opacity="0.23702769327224665" />
<circle cx="56.30085666515317" cy="173.67137808926162" r="4.8366889251610825" fill="#FFDE75" fill-opacity="0.2711517178060651" />
<circle cx="72.9461755386458" cy="94.1952130721378" r="5.855083426578633" fill="#8B4513" fill-opacity="0.3808303569629159" />
<circle cx="29.71942220728849" cy="82.75581585495225" r="5.003408007605376" fill="#D2691E" fill-opacity="0.4641748354581628" />
<circle cx="146.03472313110416" cy="178.6297248035699" r="3.4806774589412504" fill="#FFFFFF" fill-opacity="0.41663952346981314" />
<circle cx="143.80130469076468" cy="62.549077541850885" r="5.378095489410075" fill="#8B4513" fill-opacity="0.41666567974858126" />
<circle cx="51.157812432305874" cy="94.60856648512791" r="4.319246779594672" fill="#FFDE75" fill-opacity="0.5331445732148079" />
<circle cx="157.08375361423106" cy="58.60754970554343" r="5.999972994818549" fill="#FFDE75" fill-opacity="0.3199590535720009" />
<circle cx="152.39789774405" cy="84.96246908281988" r="5.358521367995437" fill="#FFDE75" fill-opacity="0.26672979152889165" />
<circle cx="87.43360480697345" cy="181.92359872124632" r="3.216509534980169" fill="#8B4513" fill-opacity="0.3791026657356448" />
<circle cx="90.73734034196215" cy="164.77548871696206" r="5.020585483220813" fill="#D2691E" fill-opacity="0.2126875372473679" />
<circle cx="120.21308357959714" cy="176.9145540665027" r="4.062791296232012" fill="#D2691E" fill-opacity="0.32450531842094643" />
<circle cx="108.27676269477584" cy="83.35628672222671" r="4.361233702932328" fill="#8B4513" fill-opacity="0.44893099607952885" />
<circle cx="87.64293511889406" cy="187.18240604692846" r="4.2872129413575815" fill="#8B4513" fill-opacity="0.36213412438779946" />
<circle cx="140.9674695034521" cy="69.96130671343042" r="4.216411006555479" fill="#D2691E" fill-opacity="0.5901641807079019" />
<circle cx="76.49879181194956" cy="134.30420536536556" r="2.2565963739374104" fill="#FFFFFF" fill-opacity="0.5100482991577948" />
<circle cx="130.94974192871825" cy="100.96743028372461" r="4.123383054348345" fill="#8B4513" fill-opacity="0.32898692445004607" />
<circle cx="133.3124950149821" cy="132.05854095054403" r="3.6981950814918125" fill="#FFFFFF" fill-opacity="0.38793862597038953" />
<circle cx="133.1338966085801" cy="144.06577086919924" r="2.7834017464227006" fill="#FFDE75" fill-opacity="0.2964186762637504" />
<circle cx="189.27414012881002" cy="112.61642608162883" r="3.840520259658717" fill="#FFFFFF" fill-opacity="0.5594380653340547" />
<circle cx="61.367230480139106" cy="96.00440749820459" r="3.839764260327786" fill="#8B4513" fill-opacity="0.5099440810013343" />
<circle cx="75.42861684468036" cy="94.47515576557547" r="4.525794792388009" fill="#D2691E" fill-opacity="0.2596751189731491" />
<circle cx="107.9664349435533" cy="61.980869387775144" r="3.8844668994966383" fill="#D2691E" fill-opacity="0.5548969373405976" />
<circle cx="42.55055737132115" cy="60.571318354772" r="4.502518920698123" fill="#8B4513" fill-opacity="0.3746451766938405" />
<circle cx="104.55371843869665" cy="89.67051132782909" r="5.5927509859420415" fill="#FFDE75" fill-opacity="0.524399097494171" />
<circle cx="67.27055325380795" cy="43.68054091257727" r="5.109847674930918" fill="#FFFFFF" fill-opacity="0.2728345661359686" />
<circle cx="142.06563725076222" cy="101.9292841700222" r="5.660650817539941" fill="#FFDE75" fill-opacity="0.5493880378030087" />
<circle cx="75.69407265921556" cy="48.87244850893519" r="4.776176817657916" fill="#FFDE75" fill-opacity="0.5462193854402114" />
<circle cx="23.13452361157259" cy="104.43428306639859" r="2.9711684972038723" fill="#FFFFFF" fill-opacity="0.226245479109806" />
<ellipse cx="169.7431151927014" cy="58.00391807545684" rx="5.109938481414471" ry="5.025021255253035" fill="#FFFDF0" fill-opacity="0.6" />
<ellipse cx="169.37174682483217" cy="58.45641104449991" rx="2.660273832434444" ry="2.6223012792960168" fill="#FFFFFF" fill-opacity="0.85" />
<ellipse cx="37.81347603365576" cy="141.1265900192925" rx="8.987771202168542" ry="4.81637101311251" fill="#FFFDF0" fill-opacity="0.6" />
<ellipse cx="37.378003918661996" cy="140.83920719764564" rx="3.143227478630561" ry="3.434174639497402" fill="#FFFFFF" fill-opacity="0.85" />
<ellipse cx="158.19096586270814" cy="68.62987808637361" rx="6.009111447710163" ry="5.09552465509338" fill="#FFFDF0" fill-opacity="0.6" />
<ellipse cx="158.17849081394732" cy="67.86554172761471" rx="3.72035357840981" ry="2.534892127530198" fill="#FFFFFF" fill-opacity="0.85" />
<ellipse cx="80.00832477269539" cy="30.96582613111228" rx="7.958331355897077" ry="5.0860679936227315" fill="#FFFDF0" fill-opacity="0.6" />
<ellipse cx="80.00965037058195" cy="30.4863320266732" rx="2.083124320368439" ry="3.5218343617558743" fill="#FFFFFF" fill-opacity="0.85" />
<ellipse cx="117.6991319265928" cy="107.71018735728518" rx="6.3375078777441125" ry="7.388624670304926" fill="#FFFDF0" fill-opacity="0.6" />
<ellipse cx="116.78906157640631" cy="107.4344374487686" rx="4.675789097861426" ry="2.44006607645421" fill="#FFFFFF" fill-opacity="0.85" />
<ellipse cx="122.25294659713028" cy="153.71516390978198" rx="5.175835988741776" ry="8.617589761235372" fill="#FFFDF0" fill-opacity="0.6" />
<ellipse cx="122.18110452552015" cy="153.33610557174586" rx="3.6546512191428295" ry="3.9209272229091363" fill="#FFFFFF" fill-opacity="0.85" />
</g>
<path d="M105.0,105.0 L105.0,5.0" stroke="lightgray" stroke-width="2" />
<path d="M105.0,105.0 L105.0,205.0" stroke="lightgray" stroke-width="2" />
<circle cx="105.0" cy="105.0" r="100" fill="none" stroke="lightgray" stroke-width="2" />
<rect x="230.0" y="41.0" width="54.0" height="54.0" fill="none" stroke="black" stroke-width="2" />
<rect x="230.0" y="115.0" width="54.0" height="54.0" fill="none" stroke="black" stroke-width="2" />
<path d="M225.0,105.0 L289.0,105.0" stroke="black" stroke-width="2" />
<text x="257.0" y="68.0" font-size="36" font-family="Comic Sans MS, Comic Sans, cursive" dominant-baseline="middle" fill="black" text-anchor="middle">2</text>
<text x="257.0" y="142.0" font-size="36" font-family="Comic Sans MS, Comic Sans, cursive" dominant-baseline="middle" fill="black" text-anchor="middle">2</text>
</g>
</svg>
<rect x="299.0" y="65.0" width="80" height="80" fill="none" stroke="black" stroke-width="1.5"/>
<svg x="394.0" y="0.0" width="284.0" height="210.0" viewBox="0 0 284.0 210" xmlns="http://www.w3.org/2000/svg" xmlns:xlink="http://www.w3.org/1999/xlink">
<defs>
<clipPath id="clip-4519011920-4530924752">
<circle cx="105.0" cy="105.0" r="100" fill="none" />
</clipPath>
</defs>
<g>
<circle cx="105.0" cy="105.0" r="100" fill="#F5C754" />
<use xlink:href="#clip-4519011920-4530924752" />
<g clip-path="url(#clip-4519011920-4530924752)">
<circle cx="105.0" cy="105.0" r="92" stroke="#DAA05D" stroke-width="16" fill="none" />
<circle cx="105.0" cy="105.0" r="98" stroke="#C37B32" stroke-width="5" fill="none" />
<circle cx="67.40325783618216" cy="138.48634538394595" r="3.829341766270852" fill="#8B4513" fill-opacity="0.36794148918601993" />
<circle cx="88.58018583720357" cy="81.8779409915258" r="5.623731313546086" fill="#D2691E" fill-opacity="0.3304487471261093" />
<circle cx="114.8465606266" cy="172.98445748808606" r="4.394508279722784" fill="#FFFFFF" fill-opacity="0.5984294587898251" />
<circle cx="93.08653608575489" cy="141.963533457352" r="4.05117265102999" fill="#FFFFFF" fill-opacity="0.3699190555125846" />
<circle cx="92.8266414989225" cy="50.06316859139773" r="4.801305541802661" fill="#FFFFFF" fill-opacity="0.4098441961870818" />
<circle cx="104.6542039788171" cy="53.46418090791304" r="3.7451894706247626" fill="#FFFFFF" fill-opacity="0.5795409498182074" />
<circle cx="171.94724297881385" cy="103.10854255717855" r="4.816966602808272" fill="#FFDE75" fill-opacity="0.2404514987689396" />
<circle cx="92.76095379063719" cy="98.02620748301051" r="3.934944387186407" fill="#FFFFFF" fill-opacity="0.5880841191328268" />
<circle cx="39.184255146424604" cy="142.79817576982455" r="3.5587693637512867" fill="#D2691E" fill-opacity="0.5381836748751768" />
<circle cx="143.6643535786057" cy="56.08854359967623" r="3.5174305247644906" fill="#8B4513" fill-opacity="0.5597804929099446" />
<circle cx="71.10017329350973" cy="98.48319873923519" r="2.02378189995868" fill="#8B4513" fill-opacity="0.3801484822917427" />
<circle cx="106.90310501492398" cy="177.47047085703167" r="4.530201259381943" fill="#8B4513" fill-opacity="0.32243724233805304" />
<circle cx="28.126478039866626" cy="140.77552821793446" r="5.043944466966677" fill="#FFFFFF" fill-opacity="0.24990541122976803" />
<circle cx="41.22142647445888" cy="57.46865986327789" r="3.3324775372707705" fill="#D2691E" fill-opacity="0.5318067178238655" />
<circle cx="87.3118950377592" cy="152.35608447118562" r="5.859753846233788" fill="#D2691E" fill-opacity="0.2303905414008368" />
<circle cx="166.97657601753644" cy="104.14060213018062" r="2.2191895455136605" fill="#FFFFFF" fill-opacity="0.3327142220249065" />
<circle cx="74.10982179042823" cy="57.65914753550818" r="5.080305533967452" fill="#D2691E" fill-opacity="0.3595217797680881" />
<circle cx="84.01599757368624" cy="39.6846925118856" r="4.265397041453086" fill="#FFDE75" fill-opacity="0.2730988708412885" />
<circle cx="171.5811127511284" cy="78.1632505384091" r="4.577722854991838" fill="#FFFFFF" fill-opacity="0.2694462053985433" />
<circle cx="102.9709243690695" cy="57.53188000572488" r="3.1120421994074317" fill="#D2691E" fill-opacity="0.42219978493513655" />
<circle cx="97.56975202340348" cy="60.261725246438054" r="2.4375968382547324" fill="#D2691E" fill-opacity="0.2744103705152432" />
<circle cx="127.95625224205162" cy="62.522497662490395" r="3.8425288668509126" fill="#FFDE75" fill-opacity="0.5081433089182694" />
<circle cx="117.42793023708627" cy="141.40559409549007" r="5.7470146775269475" fill="#FFFFFF" fill-opacity="0.39633664196160495" />
<circle cx="113.8786584899923" cy="187.61837663998784" r="5.887045702241787" fill="#FFDE75" fill-opacity="0.42148705697740063" />
<circle cx="161.7814727963646" cy="151.223822392133" r="2.309421826649971" fill="#FFDE75" fill-opacity="0.2400309901879469" />
<circle cx="137.35383125679152" cy="145.1050164886277" r="5.860558520654855" fill="#8B4513" fill-opacity="0.529469618925313" />
<circle cx="115.13084406564103" cy="23.057028733910983" r="3.8269470569622905" fill="#FFDE75" fill-opacity="0.5420051968856922" />
<circle cx="116.77332406458841" cy="96.91325809527345" r="5.578273935445356" fill="#8B4513" fill-opacity="0.2980082421666474" />
<circle cx="24.044132243089578" cy="79.66624577458478" r="4.735989625589069" fill="#D2691E" fill-opacity="0.21454986478487068" />
<circle cx="141.99630298477365" cy="178.65963852610673" r="3.640198328145117" fill="#8B4513" fill-opacity="0.32581267428888167" />
<circle cx="165.5147420723174" cy="50.704512405257134" r="2.969070785015233" fill="#D2691E" fill-opacity="0.37329048004905585" />
<circle cx="120.54675670233198" cy="30.342588065303588" r="4.346988197931177" fill="#8B4513" fill-opacity="0.35143251513117185" />
<circle cx="69.96436427898571" cy="112.06883596935546" r="2.940118232751391" fill="#FFDE75" fill-opacity="0.27592309352893635" />
<circle cx="91.99024718457656" cy="138.30225101971428" r="4.8980566573351885" fill="#FFDE75" fill-opacity="0.2707967161903734" />
<circle cx="107.08549373722067" cy="44.272310000965724" r="2.530914894549094" fill="#FFDE75" fill-opacity="0.2044187485397405" />
<circle cx="175.35048417843603" cy="106.87640079212937" r="5.689549857300269" fill="#FFFFFF" fill-opacity="0.5321391702630516" />
<circle cx="57.45126649339728" cy="156.51176061528508" r="3.312817670530044" fill="#8B4513" fill-opacity="0.5798475273825112" />
<circle cx="90.56319161394855" cy="135.43537066175702" r="5.269929595486399" fill="#D2691E" fill-opacity="0.3247127461018007" />
<circle cx="92.38677059093203" cy="45.44162012172159" r="3.278009905940749" fill="#8B4513" fill-opacity="0.5480806839769554" />
<circle cx="127.13113542782418" cy="40.61753019949363" r="5.417633175831721" fill="#FFDE75" fill-opacity="0.5601779389878746" />
<circle cx="78.90773902594908" cy="144.65854878790475" r="4.661857033229781" fill="#D2691E" fill-opacity="0.28727405904696124" />
<circle cx="119.45482998071961" cy="50.169858312746996" r="4.109985436546948" fill="#8B4513" fill-opacity="0.5847780734790357" />
<circle cx="49.59107382105809" cy="139.52334508690384" r="2.590540200913225" fill="#8B4513" fill-opacity="0.5847945076220528" />
<circle cx="117.54115346938069" cy="188.25074542770653" r="4.3105988558268455" fill="#8B4513" fill-opacity="0.4966800209127714" />
<circle cx="161.45283396372437" cy="60.86139053257772" r="2.071189922348752" fill="#FFDE75" fill-opacity="0.47649385740065303" />
<ellipse cx="108.46438363039604" cy="45.4522581676265" rx="5.004341181743504" ry="6.691804197369109" fill="#FFFDF0" fill-opacity="0.6" />
<ellipse cx="108.44123646160016" cy="46.09181360891726" rx="4.754954545908251" ry="2.597090103943298" fill="#FFFFFF" fill-opacity="0.85" />
<ellipse cx="41.764029145702445" cy="94.88608214151351" rx="5.801636889719367" ry="8.072991210584295" fill="#FFFDF0" fill-opacity="0.6" />
<ellipse cx="40.783666368972774" cy="94.97776877190181" rx="3.96873052076749" ry="2.1692632454181577" fill="#FFFFFF" fill-opacity="0.85" />
<ellipse cx="137.63885858855025" cy="37.792176123533906" rx="9.497893041635852" ry="8.902475164344047" fill="#FFFDF0" fill-opacity="0.6" />
<ellipse cx="138.0195506490363" cy="38.789455148634666" rx="3.871083882430858" ry="3.797213408306914" fill="#FFFFFF" fill-opacity="0.85" />
<ellipse cx="120.63594283127337" cy="87.75320165469307" rx="6.978250851284327" ry="8.4946341731588" fill="#FFFDF0" fill-opacity="0.6" />
<ellipse cx="121.41585887849855" cy="87.79476506233091" rx="2.967276012481045" ry="3.6511469209248943" fill="#FFFFFF" fill-opacity="0.85" />
<ellipse cx="110.75981664197809" cy="121.68476668074088" rx="7.1413838459166294" ry="8.5689414130801" fill="#FFFDF0" fill-opacity="0.6" />
<ellipse cx="110.97690405282601" cy="121.32066349565812" rx="2.1881719232966295" ry="3.273821564126131" fill="#FFFFFF" fill-opacity="0.85" />
<ellipse cx="150.33248680280224" cy="57.09359601494173" rx="9.898797068746415" ry="8.637442820807786" fill="#FFFDF0" fill-opacity="0.6" />
<ellipse cx="150.79675242940942" cy="57.641768077699396" rx="4.532001707275719" ry="2.110936313830728" fill="#FFFFFF" fill-opacity="0.85" />
<ellipse cx="120.52806370473141" cy="160.2000624955922" rx="7.273274328559598" ry="5.121561551715111" fill="#FFFDF0" fill-opacity="0.6" />
<ellipse cx="121.17437448712602" cy="159.99852914030978" rx="4.209309122249563" ry="3.6431078723114476" fill="#FFFFFF" fill-opacity="0.85" />
<ellipse cx="109.19402795936502" cy="112.51636618814646" rx="8.935807705042432" ry="8.081214810748307" fill="#FFFDF0" fill-opacity="0.6" />
<ellipse cx="109.85998454104421" cy="113.22605559449362" rx="3.3981932024320773" ry="3.5884188170755595" fill="#FFFFFF" fill-opacity="0.85" />
<ellipse cx="157.9832540482813" cy="74.69342474703731" rx="6.241808574175477" ry="5.064457263238452" fill="#FFFDF0" fill-opacity="0.6" />
<ellipse cx="157.51503972573246" cy="74.71443459917428" rx="3.9582133409555462" ry="2.5902931462486984" fill="#FFFFFF" fill-opacity="0.85" />
</g>
<path d="M105.0,105.0 L105.0,5.0" stroke="lightgray" stroke-width="2" />
<path d="M105.0,105.0 L191.60254037844388,155.0" stroke="lightgray" stroke-width="2" />
<path d="M105.0,105.0 L18.397459621556123,155.0" stroke="lightgray" stroke-width="2" />
<circle cx="105.0" cy="105.0" r="100" fill="none" stroke="lightgray" stroke-width="2" />
<rect x="230.0" y="41.0" width="54.0" height="54.0" fill="none" stroke="black" stroke-width="2" />
<rect x="230.0" y="115.0" width="54.0" height="54.0" fill="none" stroke="black" stroke-width="2" />
<path d="M225.0,105.0 L289.0,105.0" stroke="black" stroke-width="2" />
<text x="257.0" y="68.0" font-size="36" font-family="Comic Sans MS, Comic Sans, cursive" dominant-baseline="middle" fill="black" text-anchor="middle">3</text>
<text x="257.0" y="142.0" font-size="36" font-family="Comic Sans MS, Comic Sans, cursive" dominant-baseline="middle" fill="black" text-anchor="middle">3</text>
</g>
</svg>
</svg>