<svg xmlns="http://www.w3.org/2000/svg" xmlns:xlink="http://www.w3.org/1999/xlink" width="500px" height="167px" version="1.1" overflow="visible" id="h1mk1yt8">
   <desc>Engraved by Verovio 6.2.0-43f8060</desc>
   <defs>
      <g id="E050-h1mk1yt8">
         <path transform="scale(1,-1)" d="M441 -245c-23 -4 -48 -6 -76 -6c-59 0 -102 7 -130 20c-88 42 -150 93 -187 154c-26 44 -43 103 -48 176c0 6 -1 13 -1 19c0 54 15 111 45 170c29 57 65 106 110 148s96 85 153 127c-3 16 -8 46 -13 92c-4 43 -5 73 -5 89c0 117 16 172 69 257c34 54 64 82 89 82 c21 0 43 -30 69 -92s39 -115 41 -159v-15c0 -109 -21 -162 -67 -241c-13 -20 -63 -90 -98 -118c-13 -9 -25 -19 -37 -29l31 -181c8 1 18 2 28 2c58 0 102 -12 133 -35c59 -43 92 -104 98 -184c1 -7 1 -15 1 -22c0 -123 -87 -209 -181 -248c8 -57 17 -110 25 -162 c5 -31 6 -58 6 -80c0 -30 -5 -53 -14 -70c-35 -64 -88 -99 -158 -103c-5 0 -11 -1 -16 -1c-37 0 -72 10 -108 27c-50 24 -77 59 -80 105v11c0 29 7 55 20 76c18 28 45 42 79 44h6c49 0 93 -42 97 -87v-9c0 -51 -34 -86 -105 -106c17 -24 51 -36 102 -36c62 0 116 43 140 85 c9 16 13 41 13 74c0 20 -1 42 -5 67c-8 53 -18 106 -26 159zM461 939c-95 0 -135 -175 -135 -286c0 -24 2 -48 5 -71c50 39 92 82 127 128c40 53 60 100 60 140v8c-4 53 -22 81 -55 81h-2zM406 119l54 -326c73 25 110 78 110 161c0 7 0 15 -1 23c-7 95 -57 142 -151 142h-12 zM382 117c-72 -2 -128 -47 -128 -120v-7c2 -46 43 -99 75 -115c-3 -2 -7 -5 -10 -10c-70 33 -116 88 -123 172v11c0 68 44 126 88 159c23 17 49 29 78 36l-29 170c-21 -13 -52 -37 -92 -73c-50 -44 -86 -84 -109 -119c-45 -69 -67 -130 -67 -182v-13c5 -68 35 -127 93 -176 s125 -73 203 -73c25 0 50 3 75 9c-19 111 -36 221 -54 331z"/>
      </g>
      <g id="E082-h1mk1yt8">
         <path transform="scale(1,-1)" d="M124 -185c-18 0 -55 -14 -65 -65h-36l-3 30c0 25 6 45 18 63c11 19 22 30 39 43l121 82l37 29c15 11 27 29 38 54c12 24 18 47 18 70c0 40 -19 88 -94 88c-25 0 -32 0 -50 -8c-14 -5 -23 -12 -26 -22c3 -9 7 -15 10 -18l24 -17c12 -7 17 -11 27 -21c5 -7 7 -16 7 -27 c0 -12 0 -57 -79 -74c-30 0 -76 26 -76 94c0 66 81 135 197 135c72 0 181 -32 181 -150c0 -53 -32 -95 -113 -133l-91 -41c-26 -11 -45 -23 -57 -37l49 7c84 0 115 -41 148 -41c20 0 33 20 39 61h35c0 -152 -68 -168 -114 -168c-17 0 -65 0 -79 7h10l-28 17 c-49 37 -69 40 -87 42z"/>
      </g>
      <g id="E084-h1mk1yt8">
         <path transform="scale(1,-1)" d="M20 -78c84 97 114 180 134 329h170c-13 -32 -82 -132 -99 -151l-84 -97c-33 -36 -59 -63 -80 -81h162v102l127 123v-225h57v-39h-57v-34c0 -43 19 -65 57 -65v-34h-244v36c48 0 60 26 60 70v27h-203v39z"/>
      </g>
      <g id="E0A4-h1mk1yt8">
         <path transform="scale(1,-1)" d="M0 -39c0 68 73 172 200 172c66 0 114 -37 114 -95c0 -84 -106 -171 -218 -171c-64 0 -96 30 -96 94z"/>
      </g>
      <g id="E240-h1mk1yt8">
         <path transform="scale(1,-1)" d="M179 -646c15 29 29 55 46 102c18 49 30 108 30 138c0 105 -80 173 -168 200c-18 5 -47 9 -87 16v190h22c8 0 33 -61 71 -95c4 -3 -2 3 61 -56c62 -58 122 -137 122 -241c0 -38 -13 -106 -35 -163c-20 -51 -43 -99 -66 -132c-6 -5 -10 -7 -13 -7s-5 2 -5 5l4 10 c1 3 14 25 18 33z"/>
      </g>
      <g id="E4E6-h1mk1yt8">
         <path transform="scale(1,-1)" d="M0 123c7 34 33 56 69 60c29 -3 43 -9 53 -29c4 -8 7 -15 10 -22c0 -21 -1 -25 -11 -35c-5 -8 -18 -14 -40 -20l12 -3l15 -1c44 0 97 26 122 56c10 11 18 26 24 42c7 1 15 2 22 3l-140 -424h-36l111 330c-10 -6 -27 -12 -53 -16l-52 -8h-10l-20 1c-1 0 -8 3 -21 6 c-37 9 -55 28 -55 60z"/>
      </g>
      <g id="E4E5-h1mk1yt8">
         <path transform="scale(1,-1)" d="M107 292c-13 24 -30 49 -52 71c-1 1 0 2 0 3l-2 2c3 3 4 4 6 4c12 0 26 -7 40 -20s44 -40 89 -81c26 -24 28 -29 46 -47c4 -4 8 -9 10 -14c6 -8 8 -16 8 -27c0 -19 -12 -40 -36 -61c-28 -23 -49 -38 -61 -73c-4 -11 -7 -27 -10 -50c13 -43 34 -83 59 -121 c31 -47 59 -79 101 -129c-8 0 -26 7 -54 20l-62 29l-21 6l-23 1c-25 0 -45 -10 -60 -30l-4 -14l-1 -12c0 -33 20 -56 39 -78c8 -9 17 -18 26 -26c17 -15 27 -24 28 -30l-3 -3c-11 5 -19 10 -25 15c-9 3 -37 21 -45 26c-24 14 -45 32 -63 51c-19 21 -37 44 -37 71 c0 63 27 95 80 95c41 0 86 -18 136 -52c-19 26 -37 48 -55 66c-23 23 -48 44 -73 65c-28 23 -47 40 -58 53s-17 26 -18 39c75 64 113 125 113 183c0 27 -7 48 -18 68z"/>
      </g>
   </defs>
   <style type="text/css">#h1mk1yt8 g.ending, #h1mk1yt8 g.fing, #h1mk1yt8 g.reh, #h1mk1yt8 g.tempo {font-weight:bold;}#h1mk1yt8 g.dir, #h1mk1yt8 g.dynam, #h1mk1yt8 g.mNum {font-style:italic;}#h1mk1yt8 g.label {font-weight:normal;}#h1mk1yt8 ellipse, #h1mk1yt8 path, #h1mk1yt8 polygon, #h1mk1yt8 polyline, #h1mk1yt8 rect {stroke:currentColor}</style>
   <svg class="definition-scale" color="black" font-family="Times, serif" viewBox="0 0 10000 3340">
      <g class="page-margin" transform="translate(500, 500)">
         <g id="i5tr5zb" class="mdiv pageMilestone"/>
         <g id="m1ezdteg" class="score pageMilestone"/>
         <g id="l12l1von" class="system">
            <g id="z1ps8vgh" class="section systemMilestone"/>
            <g id="abcLine08" class="pb"/>
            <g id="f1s9bz2i" class="measure">
               <g id="o1tbxiah" class="staff">
                  <path d="M0 1083 L2943 1083" stroke-width="13"/>
                  <path d="M0 1263 L2943 1263" stroke-width="13"/>
                  <path d="M0 1443 L2943 1443" stroke-width="13"/>
                  <path d="M0 1623 L2943 1623" stroke-width="13"/>
                  <path d="M0 1803 L2943 1803" stroke-width="13"/>
                  <g id="t147vu0z" class="clef">
                     <use xlink:href="#E050-h1mk1yt8" transform="translate(90, 1623) scale(0.72, 0.72)"/>
                  </g>
                  <g id="upq1ltu" class="keySig"/>
                  <g id="vpdmkuw" class="meterSig">
                     <use xlink:href="#E082-h1mk1yt8" transform="translate(721, 1263) scale(0.72, 0.72)"/>
                     <use xlink:href="#E084-h1mk1yt8" transform="translate(726, 1623) scale(0.72, 0.72)"/>
                  </g>
                  <g class="ledgerLines below">
                     <path d="M1246 1983 L1568 1983" stroke-width="22"/>
                     <path d="M2192 1983 L2514 1983" stroke-width="22"/>
                  </g>
                  <g id="b1j5tjn9" class="layer">
                     <g id="c1yrfj03" class="note">
                        <g class="notehead">
                           <use xlink:href="#E0A4-h1mk1yt8" transform="translate(1294, 1983) scale(0.72, 0.72)"/>
                        </g>
                        <g id="c1p405ad" class="stem">
                           <path d="M1511 1955 L1511 1353" stroke-width="18"/>
                           <g id="d1cldffu" class="flag">
                              <use xlink:href="#E240-h1mk1yt8" transform="translate(1502, 1353) scale(0.72, 0.72)"/>
                           </g>
                        </g>
                     </g>
                     <g id="d4llllr" class="rest">
                        <use xlink:href="#E4E6-h1mk1yt8" transform="translate(1790, 1443) scale(0.72, 0.72)"/>
                     </g>
                     <g id="e18q653q" class="note">
                        <g class="notehead">
                           <use xlink:href="#E0A4-h1mk1yt8" transform="translate(2240, 1983) scale(0.72, 0.72)"/>
                        </g>
                        <g id="e1ibxdn2" class="stem">
                           <path d="M2457 1955 L2457 1353" stroke-width="18"/>
                        </g>
                     </g>
                  </g>
               </g>
               <g id="n17ofxrk" class="barLine">
                  <path d="M2930 1083 L2930 1803" stroke-width="27"/>
               </g>
            </g>
            <g id="t1hhu3gk" class="measure">
               <g id="c14rih2n" class="staff">
                  <path d="M2943 1083 L4726 1083" stroke-width="13"/>
                  <path d="M2943 1263 L4726 1263" stroke-width="13"/>
                  <path d="M2943 1443 L4726 1443" stroke-width="13"/>
                  <path d="M2943 1623 L4726 1623" stroke-width="13"/>
                  <path d="M2943 1803 L4726 1803" stroke-width="13"/>
                  <g class="ledgerLines below">
                     <path d="M3525 1983 L3847 1983" stroke-width="22"/>
                     <path d="M3975 1983 L4297 1983" stroke-width="22"/>
                  </g>
                  <g id="pihxm41" class="layer">
                     <g id="qlthflr" class="rest">
                        <use xlink:href="#E4E6-h1mk1yt8" transform="translate(3123, 1443) scale(0.72, 0.72)"/>
                     </g>
                     <g id="rdsx056" class="note">
                        <g class="notehead">
                           <use xlink:href="#E0A4-h1mk1yt8" transform="translate(3573, 1983) scale(0.72, 0.72)"/>
                        </g>
                        <g id="f1b59hv0" class="stem">
                           <path d="M3790 1955 L3790 1353" stroke-width="18"/>
                           <g id="g7j2esj" class="flag">
                              <use xlink:href="#E240-h1mk1yt8" transform="translate(3781, 1353) scale(0.72, 0.72)"/>
                           </g>
                        </g>
                     </g>
                     <g id="s18ijyz1" class="note">
                        <g class="notehead">
                           <use xlink:href="#E0A4-h1mk1yt8" transform="translate(4023, 1983) scale(0.72, 0.72)"/>
                        </g>
                        <g id="hiyt0d0" class="stem">
                           <path d="M4240 1955 L4240 1353" stroke-width="18"/>
                        </g>
                     </g>
                  </g>
               </g>
               <g id="b1oj7054" class="barLine">
                  <path d="M4713 1083 L4713 1803" stroke-width="27"/>
               </g>
            </g>
            <g id="g110swtj" class="measure">
               <g id="p1ccxflb" class="staff">
                  <path d="M4726 1083 L6461 1083" stroke-width="13"/>
                  <path d="M4726 1263 L6461 1263" stroke-width="13"/>
                  <path d="M4726 1443 L6461 1443" stroke-width="13"/>
                  <path d="M4726 1623 L6461 1623" stroke-width="13"/>
                  <path d="M4726 1803 L6461 1803" stroke-width="13"/>
                  <g class="ledgerLines below">
                     <path d="M4858 1983 L5180 1983" stroke-width="22"/>
                  </g>
                  <g id="d3lvjew" class="layer">
                     <g id="ec97xf5" class="note">
                        <g class="notehead">
                           <use xlink:href="#E0A4-h1mk1yt8" transform="translate(4906, 1983) scale(0.72, 0.72)"/>
                        </g>
                        <g id="id5z4jn" class="stem">
                           <path d="M5123 1955 L5123 1353" stroke-width="18"/>
                        </g>
                     </g>
                     <g id="f1bu6wow" class="rest">
                        <use xlink:href="#E4E5-h1mk1yt8" transform="translate(5596, 1443) scale(0.72, 0.72)"/>
                     </g>
                  </g>
               </g>
               <g id="on8kfyk" class="barLine">
                  <path d="M6286 1083 L6286 1803" stroke-width="27"/>
                  <path d="M6416 1083 L6416 1803" stroke-width="90"/>
               </g>
            </g>
            <g id="abcLine09" class="sb"/>
            <g id="z1nwyxpu" class="systemMilestoneEnd z1ps8vgh"/>
         </g>
         <g id="a1ff7mgh" class="pageMilestoneEnd m1ezdteg"/>
         <g id="b4k8wgc" class="pageMilestoneEnd i5tr5zb"/>
         <g id="w1qdvmpq" class="pgHead">
            <text font-size="0px">
               <tspan id="xn53nzi" class="rend" x="4500" y="275" text-anchor="middle">
                  <tspan id="yp93mpx" class="text">
                     <tspan font-size="405px">2/4</tspan>
                  </tspan>
               </tspan>
            </text>
         </g>
      </g>
   </svg>
</svg>