<?xml version="1.0" encoding="UTF-8"?>
<svg xmlns="http://www.w3.org/2000/svg" xmlns:xlink="http://www.w3.org/1999/xlink"
     width="284.0" height="210" viewBox="0 0 284.0 210">
<defs>
<clipPath id="clip-4465916880-4530027472">
<path d="M105.0,105.0 L105.0,5.0 A100,100,0,0,1,175.71067811865476,34.28932188134526 Z" fill="none" />
</clipPath>
<clipPath id="clip-4465916880-4530663760">
<path d="M105.0,105.0 L175.71067811865476,34.28932188134526 A100,100,0,0,1,205.0,105.0 Z" fill="none" />
</clipPath>
<clipPath id="clip-4465916880-4530757200">
<path d="M105.0,105.0 L205.0,105.0 A100,100,0,0,1,175.71067811865476,175.71067811865476 Z" fill="none" />
</clipPath>
<clipPath id="clip-4465916880-4530607952">
<path d="M105.0,105.0 L175.71067811865476,175.71067811865476 A100,100,0,0,1,105.0,205.0 Z" fill="none" />
</clipPath>
<clipPath id="clip-4465916880-4530589392">
<path d="M105.0,105.0 L105.0,205.0 A100,100,0,0,1,34.28932188134526,175.71067811865476 Z" fill="none" />
</clipPath>
</defs>
<g>
<path d="M105.0,105.0 L105.0,5.0 A100,100,0,0,1,175.71067811865476,34.28932188134526 Z" fill="none" stroke="lightgray" stroke-width="2" />
<path d="M105.0,105.0 L175.71067811865476,34.28932188134526 A100,100,0,0,1,205.0,105.0 Z" fill="none" stroke="lightgray" stroke-width="2" />
<path d="M105.0,105.0 L205.0,105.0 A100,100,0,0,1,175.71067811865476,175.71067811865476 Z" fill="none" stroke="lightgray" stroke-width="2" />
<path d="M105.0,105.0 L175.71067811865476,175.71067811865476 A100,100,0,0,1,105.0,205.0 Z" fill="none" stroke="lightgray" stroke-width="2" />
<path d="M105.0,105.0 L105.0,205.0 A100,100,0,0,1,34.28932188134526,175.71067811865476 Z" fill="none" stroke="lightgray" stroke-width="2" />
<path d="M105.0,105.0 L34.28932188134526,175.71067811865476 A100,100,0,0,1,5.0,105.00000000000001 Z" fill="none" stroke="lightgray" stroke-width="2" />
<path d="M105.0,105.0 L5.0,105.00000000000001 A100,100,0,0,1,34.28932188134523,34.28932188134526 Z" fill="none" stroke="lightgray" stroke-width="2" />
<path d="M105.0,105.0 L34.28932188134523,34.28932188134526 A100,100,0,0,1,104.99999999999999,5.0 Z" fill="none" stroke="lightgray" stroke-width="2" />
<path d="M105.0,105.0 L105.0,5.0 A100,100,0,0,1,175.71067811865476,34.28932188134526 Z" fill="#FEF7E3" stroke="lightgray" stroke-width="2" />
<use xlink:href="#clip-4465916880-4530027472" />
<g clip-path="url(#clip-4465916880-4530027472)">
<circle cx="105.0" cy="105.0" r="92" stroke="#DAA05D" stroke-width="16" fill="none" />
<circle cx="105.0" cy="105.0" r="98" stroke="#C37B32" stroke-width="5" fill="none" />
<circle cx="48.493230390424884" cy="48.14629198073688" r="5.314230666853236" fill="#D2691E" fill-opacity="0.413027116329782" />
<circle cx="178.32062482271903" cy="97.5270173322494" r="5.597826357153464" fill="#FFDE75" fill-opacity="0.4126929528640028" />
<circle cx="29.463799201379985" cy="74.20918961936695" r="4.26771118082797" fill="#FFDE75" fill-opacity="0.44813182207877816" />
<circle cx="146.3799509860879" cy="106.03423080390156" r="2.8650890739721984" fill="#FFFFFF" fill-opacity="0.5315676263744045" />
<circle cx="50.33355412731162" cy="166.92553021889415" r="4.440867447112652" fill="#FFFFFF" fill-opacity="0.24918205147496197" />
<circle cx="103.09867331600091" cy="26.442233133943162" r="5.538309616562561" fill="#D2691E" fill-opacity="0.5082982583281226" />
<circle cx="88.84058595323019" cy="112.14017226801658" r="4.3862136176037625" fill="#D2691E" fill-opacity="0.4768358921935245" />
<circle cx="143.355989567886" cy="91.01604496838394" r="3.5217830262137597" fill="#D2691E" fill-opacity="0.4081702234128445" />
<circle cx="144.95407246724864" cy="78.90860076912924" r="2.7174697559355234" fill="#8B4513" fill-opacity="0.39108866453350144" />
<circle cx="136.81014660668657" cy="140.81539319593588" r="3.8758726623179007" fill="#FFFFFF" fill-opacity="0.4171235329363747" />
<circle cx="48.534603889832695" cy="51.01484188307571" r="2.714910278491633" fill="#D2691E" fill-opacity="0.28717835278414466" />
<circle cx="127.8902050918707" cy="84.35361209562464" r="3.5041256773829494" fill="#FFDE75" fill-opacity="0.28625497791197113" />
<circle cx="185.69022147901978" cy="104.3826008899941" r="2.2559794001995166" fill="#8B4513" fill-opacity="0.5873639136327498" />
<circle cx="107.25766034350018" cy="51.6592229681928" r="3.965096170897244" fill="#FFFFFF" fill-opacity="0.5867600306601413" />
<circle cx="56.503706371985615" cy="73.93124706822725" r="4.191586741163793" fill="#8B4513" fill-opacity="0.3726588372469124" />
<circle cx="48.86093036785412" cy="124.81285588703538" r="5.147523416740272" fill="#FFFFFF" fill-opacity="0.5735298917173103" />
<circle cx="134.22197850078257" cy="95.30106082842518" r="2.5794568034695553" fill="#FFFFFF" fill-opacity="0.39019764090024267" />
<circle cx="92.27160056182132" cy="165.81876088825754" r="4.302352455683883" fill="#FFFFFF" fill-opacity="0.39043246459066583" />
<circle cx="93.09829415735942" cy="73.72450713022707" r="3.8611049234983517" fill="#8B4513" fill-opacity="0.2604689514334747" />
<circle cx="120.0900054436543" cy="153.8687902277476" r="4.726093207101469" fill="#D2691E" fill-opacity="0.42769792585748545" />
<circle cx="59.816400313444326" cy="113.97115569299581" r="2.90248773307808" fill="#D2691E" fill-opacity="0.23239443464505638" />
<circle cx="135.22329954991778" cy="80.67477098908762" r="2.500506072208036" fill="#FFFFFF" fill-opacity="0.2991520382418745" />
<circle cx="148.0140416966364" cy="177.68714896954594" r="5.563680092871882" fill="#8B4513" fill-opacity="0.5858495889746191" />
<circle cx="116.62486545438927" cy="48.28590308318317" r="4.004550943877042" fill="#FFDE75" fill-opacity="0.59090674109362" />
<circle cx="150.88117470217477" cy="168.81964206313137" r="5.3735777312674475" fill="#8B4513" fill-opacity="0.40744359850678713" />
<circle cx="139.62989729221343" cy="95.42677772991813" r="3.9508000287027896" fill="#8B4513" fill-opacity="0.5855327935785746" />
<circle cx="53.42007766985888" cy="108.68029614029054" r="5.3803183958398275" fill="#FFFFFF" fill-opacity="0.24696206358337053" />
<circle cx="114.98552937640719" cy="62.94794883620291" r="2.509528652626279" fill="#D2691E" fill-opacity="0.5454542633934549" />
<circle cx="61.94886347749058" cy="153.4597509167735" r="2.5919197830541147" fill="#FFFFFF" fill-opacity="0.2368186632267736" />
<circle cx="76.06772051841601" cy="37.31222803009412" r="4.119243720818559" fill="#FFFFFF" fill-opacity="0.2287403047933772" />
<circle cx="58.647238229303696" cy="120.28120239976789" r="4.70679636711041" fill="#D2691E" fill-opacity="0.4076150501930409" />
<circle cx="166.34330935441986" cy="115.98516874796373" r="3.699092659595677" fill="#FFFFFF" fill-opacity="0.48252644747096635" />
<circle cx="126.16608020984269" cy="148.69581330146553" r="5.760414138645718" fill="#FFFFFF" fill-opacity="0.3025733860320831" />
<circle cx="104.05706528608489" cy="99.00011812019255" r="2.8799237729036022" fill="#FFFFFF" fill-opacity="0.38110333559071624" />
<circle cx="147.1415983671519" cy="133.98307655143842" r="2.9945872014530743" fill="#FFDE75" fill-opacity="0.5804793515952007" />
<circle cx="41.727677385466215" cy="152.00196813104492" r="4.672757919966628" fill="#8B4513" fill-opacity="0.3343744308491257" />
<circle cx="115.62504151543168" cy="35.50333022394952" r="2.4500458984215165" fill="#8B4513" fill-opacity="0.24485395546114808" />
<circle cx="99.42513336561268" cy="183.81321356747776" r="3.0858084849956704" fill="#8B4513" fill-opacity="0.42282175051422105" />
<circle cx="28.67152074597736" cy="84.9919774922157" r="5.75293775600226" fill="#FFFFFF" fill-opacity="0.36648438771276093" />
<circle cx="161.36893018646546" cy="99.4707998263265" r="2.392894177463454" fill="#D2691E" fill-opacity="0.4759281549514356" />
<circle cx="164.4662200741556" cy="152.13227830211417" r="2.9731454454283153" fill="#FFDE75" fill-opacity="0.2503066160388151" />
<circle cx="68.1168954567915" cy="109.98503741727116" r="2.660677685010694" fill="#FFFFFF" fill-opacity="0.2970052850477372" />
<circle cx="87.94559044569343" cy="125.52083680456711" r="4.609315938101924" fill="#FFDE75" fill-opacity="0.4218138015793008" />
<circle cx="173.12467164828138" cy="73.57817251829611" r="5.651783083963229" fill="#D2691E" fill-opacity="0.4722771029312921" />
<circle cx="55.135056177264275" cy="56.19498857316386" r="5.37893215149718" fill="#D2691E" fill-opacity="0.5685197557593891" />
<circle cx="114.42650932135194" cy="149.28549786347867" r="5.460398481071129" fill="#FFDE75" fill-opacity="0.4304248762963966" />
<circle cx="57.79814186468338" cy="161.1306762281469" r="5.821536901126077" fill="#D2691E" fill-opacity="0.4023586330052688" />
<circle cx="61.07858837908997" cy="128.95165269710444" r="4.9218447168724815" fill="#8B4513" fill-opacity="0.5190526129907758" />
<circle cx="74.95439803955847" cy="74.62985537348344" r="5.268760147839922" fill="#8B4513" fill-opacity="0.29743643229881067" />
<circle cx="150.79993698539076" cy="130.74388115156904" r="2.2310565670635305" fill="#FFFFFF" fill-opacity="0.5721506481690102" />
<circle cx="174.39587769271736" cy="97.13937390843682" r="5.497350084247641" fill="#FFFFFF" fill-opacity="0.35622690271623025" />
<circle cx="161.35729295371857" cy="94.46170846971056" r="3.052453487498399" fill="#FFDE75" fill-opacity="0.5217775681274115" />
<circle cx="128.88306805090906" cy="169.78425328862795" r="4.663671822641238" fill="#8B4513" fill-opacity="0.23171937489538377" />
<circle cx="52.81464221717171" cy="165.20972218805838" r="3.3195690532097015" fill="#FFDE75" fill-opacity="0.21039630987789845" />
<circle cx="95.26651869946086" cy="70.82953501468819" r="2.087887561598859" fill="#8B4513" fill-opacity="0.23596615638899585" />
<circle cx="45.4851761768177" cy="66.80299796076636" r="4.864953100889501" fill="#8B4513" fill-opacity="0.3255692655722519" />
<circle cx="49.170165345205994" cy="152.61114488455974" r="5.557750263217544" fill="#FFFFFF" fill-opacity="0.4395267981589489" />
<circle cx="188.64809976017355" cy="108.00310333709578" r="5.141273770440117" fill="#D2691E" fill-opacity="0.3278463505190795" />
<circle cx="166.59695136392082" cy="60.79849832146368" r="2.908682692738466" fill="#FFDE75" fill-opacity="0.23295444840434737" />
<circle cx="66.05668288975474" cy="63.332515379825566" r="3.9245369299339914" fill="#8B4513" fill-opacity="0.35394960194992126" />
<circle cx="71.59704393489969" cy="167.95264836763943" r="2.564300495244344" fill="#FFDE75" fill-opacity="0.41615435001775264" />
<circle cx="115.784900719253" cy="23.58029123404178" r="3.5251539957836857" fill="#8B4513" fill-opacity="0.3529837849651468" />
<circle cx="139.0982964328636" cy="128.82209605849224" r="4.209661934035999" fill="#8B4513" fill-opacity="0.5737329395899585" />
<circle cx="138.02068645611783" cy="67.62660736266676" r="4.598486348749109" fill="#D2691E" fill-opacity="0.42575474876898944" />
<circle cx="131.5703732003952" cy="36.73506868686279" r="5.306001409263722" fill="#FFFFFF" fill-opacity="0.49797191999815665" />
<circle cx="180.19252832010346" cy="127.3268512313126" r="2.7987997818518173" fill="#D2691E" fill-opacity="0.2802492580593323" />
<circle cx="104.80538852535211" cy="154.90532855742177" r="2.886576644593901" fill="#D2691E" fill-opacity="0.5887359548312707" />
<circle cx="82.14918583271967" cy="65.17726120681246" r="4.254867673405373" fill="#8B4513" fill-opacity="0.2584347408847832" />
<circle cx="102.8172041728253" cy="29.982471226555177" r="2.130173611853068" fill="#FFDE75" fill-opacity="0.3897103785493179" />
<circle cx="46.109771926210925" cy="85.95604816818005" r="4.88901491497071" fill="#D2691E" fill-opacity="0.4436013005026218" />
<circle cx="97.26602611512075" cy="169.21785557786842" r="3.0324385560556664" fill="#D2691E" fill-opacity="0.20283291724516972" />
<circle cx="145.19297679754155" cy="38.305758539097525" r="5.5531801373111715" fill="#FFFFFF" fill-opacity="0.5305021799585276" />
<circle cx="177.26688325446128" cy="110.59806514881734" r="2.9609719598824755" fill="#D2691E" fill-opacity="0.5952391654596422" />
<circle cx="88.66259415246077" cy="107.72377304857152" r="5.95026702438343" fill="#8B4513" fill-opacity="0.3452241378419381" />
<circle cx="130.13873292448702" cy="134.40953358400276" r="5.427474424042382" fill="#FFDE75" fill-opacity="0.2840372907830029" />
<circle cx="39.80347266323163" cy="78.07089853273314" r="6.7819583377758175" fill="#FFFFFF" fill-opacity="0.95" stroke="#FAF0E6" stroke-width="1.5" />
<circle cx="174.4402287097554" cy="85.89233803605484" r="5.855365945653781" fill="#FFFFFF" fill-opacity="0.95" stroke="#FAF0E6" stroke-width="1.5" />
<circle cx="164.2834903779638" cy="102.1295105360883" r="10.141968893148615" fill="#FFFFFF" fill-opacity="0.95" stroke="#FAF0E6" stroke-width="1.5" />
<circle cx="73.16119834492571" cy="35.8719358452726" r="8.607576828190517" fill="#FFFFFF" fill-opacity="0.95" stroke="#FAF0E6" stroke-width="1.5" />
<circle cx="129.39531255030906" cy="101.40419549432498" r="7.30927186955654" fill="#FFFFFF" fill-opacity="0.95" stroke="#FAF0E6" stroke-width="1.5" />
<circle cx="127.55686212733885" cy="181.5030825263858" r="8.297901806750495" fill="#FFFFFF" fill-opacity="0.95" stroke="#FAF0E6" stroke-width="1.5" />
<circle cx="131.72684139112624" cy="62.197928514838" r="9.901128797096266" fill="#FFFFFF" fill-opacity="0.95" stroke="#FAF0E6" stroke-width="1.5" />
<circle cx="69.15002110057777" cy="110.51947157832196" r="10.675490928928177" fill="#FFFFFF" fill-opacity="0.95" stroke="#FAF0E6" stroke-width="1.5" />
<circle cx="147.89165472744043" cy="97.39353561317341" r="10.314506143409192" fill="#FFFFFF" fill-opacity="0.95" stroke="#FAF0E6" stroke-width="1.5" />
<circle cx="45.9117833318377" cy="67.0953310069757" r="8.341152447222516" fill="#FFFFFF" fill-opacity="0.95" stroke="#FAF0E6" stroke-width="1.5" />
<circle cx="63.171195971918216" cy="120.95980460740685" r="5.363957215648622" fill="#FFFFFF" fill-opacity="0.95" stroke="#FAF0E6" stroke-width="1.5" />
<circle cx="58.37041109709099" cy="122.29415748041943" r="5.088027768507175" fill="#FFFFFF" fill-opacity="0.95" stroke="#FAF0E6" stroke-width="1.5" />
<circle cx="33.66911761810174" cy="103.14664461353017" r="6.7348344308046" fill="#FFFFFF" fill-opacity="0.95" stroke="#FAF0E6" stroke-width="1.5" />
<circle cx="117.84128502479194" cy="34.1964604000821" r="8.359439447779875" fill="#FFFFFF" fill-opacity="0.95" stroke="#FAF0E6" stroke-width="1.5" />
<circle cx="125.08438341851968" cy="79.39194890253796" r="9.963960945756728" fill="#FFFFFF" fill-opacity="0.95" stroke="#FAF0E6" stroke-width="1.5" />
<circle cx="88.54667951263089" cy="45.15258474886419" r="5.945458011586232" fill="#FFFFFF" fill-opacity="0.95" stroke="#FAF0E6" stroke-width="1.5" />
<circle cx="119.46819701331115" cy="129.72415456604716" r="5.5346867743237125" fill="#FFFFFF" fill-opacity="0.95" stroke="#FAF0E6" stroke-width="1.5" />
<circle cx="59.47110792006503" cy="76.87951031765955" r="7.228551042299058" fill="#FFFFFF" fill-opacity="0.95" stroke="#FAF0E6" stroke-width="1.5" />
<circle cx="138.55318524477178" cy="143.0607112758443" r="8.052310461633795" fill="#FFFFFF" fill-opacity="0.95" stroke="#FAF0E6" stroke-width="1.5" />
<circle cx="169.682675525351" cy="92.31930283750216" r="6.988602037749384" fill="#FFFFFF" fill-opacity="0.95" stroke="#FAF0E6" stroke-width="1.5" />
<circle cx="61.569123486904225" cy="112.17921894706936" r="8.479644617049935" fill="#FFFFFF" fill-opacity="0.95" stroke="#FAF0E6" stroke-width="1.5" />
<circle cx="139.9607093244926" cy="134.378622843616" r="9.934877334634901" fill="#FFFFFF" fill-opacity="0.95" stroke="#FAF0E6" stroke-width="1.5" />
<circle cx="181.14038287239464" cy="96.88965347871219" r="8.952866280833327" fill="#FFFFFF" fill-opacity="0.95" stroke="#FAF0E6" stroke-width="1.5" />
<circle cx="174.92190929747989" cy="128.19181555783837" r="9.926051916231431" fill="#FFFFFF" fill-opacity="0.95" stroke="#FAF0E6" stroke-width="1.5" />
<circle cx="142.0125597196566" cy="158.96953326451143" r="6.300720173617578" fill="#FFFFFF" fill-opacity="0.95" stroke="#FAF0E6" stroke-width="1.5" />
<circle cx="150.73888011418137" cy="151.6620588866044" r="5.246824598343743" fill="#FFFFFF" fill-opacity="0.95" stroke="#FAF0E6" stroke-width="1.5" />
<circle cx="153.49652161278124" cy="112.49793504454645" r="11.227854101342366" fill="#FFFFFF" fill-opacity="0.95" stroke="#FAF0E6" stroke-width="1.5" />
<circle cx="146.17567774571356" cy="86.89703224850331" r="8.177617282062464" fill="#FFFFFF" fill-opacity="0.95" stroke="#FAF0E6" stroke-width="1.5" />
<circle cx="56.4291940355113" cy="59.99588619854966" r="10.675419935320145" fill="#FFFFFF" fill-opacity="0.95" stroke="#FAF0E6" stroke-width="1.5" />
<circle cx="153.39814637887451" cy="118.87096085069864" r="9.380655156243218" fill="#FFFFFF" fill-opacity="0.95" stroke="#FAF0E6" stroke-width="1.5" />
</g>
<path d="M105.0,105.0 L175.71067811865476,34.28932188134526 A100,100,0,0,1,205.0,105.0 Z" fill="#FEF7E3" stroke="lightgray" stroke-width="2" />
<use xlink:href="#clip-4465916880-4530663760" />
<g clip-path="url(#clip-4465916880-4530663760)">
<circle cx="105.0" cy="105.0" r="92" stroke="#DAA05D" stroke-width="16" fill="none" />
<circle cx="105.0" cy="105.0" r="98" stroke="#C37B32" stroke-width="5" fill="none" />
<circle cx="48.493230390424884" cy="48.14629198073688" r="5.314230666853236" fill="#D2691E" fill-opacity="0.413027116329782" />
<circle cx="178.32062482271903" cy="97.5270173322494" r="5.597826357153464" fill="#FFDE75" fill-opacity="0.4126929528640028" />
<circle cx="29.463799201379985" cy="74.20918961936695" r="4.26771118082797" fill="#FFDE75" fill-opacity="0.44813182207877816" />
<circle cx="146.3799509860879" cy="106.03423080390156" r="2.8650890739721984" fill="#FFFFFF" fill-opacity="0.5315676263744045" />
<circle cx="50.33355412731162" cy="166.92553021889415" r="4.440867447112652" fill="#FFFFFF" fill-opacity="0.24918205147496197" />
<circle cx="103.09867331600091" cy="26.442233133943162" r="5.538309616562561" fill="#D2691E" fill-opacity="0.5082982583281226" />
<circle cx="88.84058595323019" cy="112.14017226801658" r="4.3862136176037625" fill="#D2691E" fill-opacity="0.4768358921935245" />
<circle cx="143.355989567886" cy="91.01604496838394" r="3.5217830262137597" fill="#D2691E" fill-opacity="0.4081702234128445" />
<circle cx="144.95407246724864" cy="78.90860076912924" r="2.7174697559355234" fill="#8B4513" fill-opacity="0.39108866453350144" />
<circle cx="136.81014660668657" cy="140.81539319593588" r="3.8758726623179007" fill="#FFFFFF" fill-opacity="0.4171235329363747" />
<circle cx="48.534603889832695" cy="51.01484188307571" r="2.714910278491633" fill="#D2691E" fill-opacity="0.28717835278414466" />
<circle cx="127.8902050918707" cy="84.35361209562464" r="3.5041256773829494" fill="#FFDE75" fill-opacity="0.28625497791197113" />
<circle cx="185.69022147901978" cy="104.3826008899941" r="2.2559794001995166" fill="#8B4513" fill-opacity="0.5873639136327498" />
<circle cx="107.25766034350018" cy="51.6592229681928" r="3.965096170897244" fill="#FFFFFF" fill-opacity="0.5867600306601413" />
<circle cx="56.503706371985615" cy="73.93124706822725" r="4.191586741163793" fill="#8B4513" fill-opacity="0.3726588372469124" />
<circle cx="48.86093036785412" cy="124.81285588703538" r="5.147523416740272" fill="#FFFFFF" fill-opacity="0.5735298917173103" />
<circle cx="134.22197850078257" cy="95.30106082842518" r="2.5794568034695553" fill="#FFFFFF" fill-opacity="0.39019764090024267" />
<circle cx="92.27160056182132" cy="165.81876088825754" r="4.302352455683883" fill="#FFFFFF" fill-opacity="0.39043246459066583" />
<circle cx="93.09829415735942" cy="73.72450713022707" r="3.8611049234983517" fill="#8B4513" fill-opacity="0.2604689514334747" />
<circle cx="120.0900054436543" cy="153.8687902277476" r="4.726093207101469" fill="#D2691E" fill-opacity="0.42769792585748545" />
<circle cx="59.816400313444326" cy="113.97115569299581" r="2.90248773307808" fill="#D2691E" fill-opacity="0.23239443464505638" />
<circle cx="135.22329954991778" cy="80.67477098908762" r="2.500506072208036" fill="#FFFFFF" fill-opacity="0.2991520382418745" />
<circle cx="148.0140416966364" cy="177.68714896954594" r="5.563680092871882" fill="#8B4513" fill-opacity="0.5858495889746191" />
<circle cx="116.62486545438927" cy="48.28590308318317" r="4.004550943877042" fill="#FFDE75" fill-opacity="0.59090674109362" />
<circle cx="150.88117470217477" cy="168.81964206313137" r="5.3735777312674475" fill="#8B4513" fill-opacity="0.40744359850678713" />
<circle cx="139.62989729221343" cy="95.42677772991813" r="3.9508000287027896" fill="#8B4513" fill-opacity="0.5855327935785746" />
<circle cx="53.42007766985888" cy="108.68029614029054" r="5.3803183958398275" fill="#FFFFFF" fill-opacity="0.24696206358337053" />
<circle cx="114.98552937640719" cy="62.94794883620291" r="2.509528652626279" fill="#D2691E" fill-opacity="0.5454542633934549" />
<circle cx="61.94886347749058" cy="153.4597509167735" r="2.5919197830541147" fill="#FFFFFF" fill-opacity="0.2368186632267736" />
<circle cx="76.06772051841601" cy="37.31222803009412" r="4.119243720818559" fill="#FFFFFF" fill-opacity="0.2287403047933772" />
<circle cx="58.647238229303696" cy="120.28120239976789" r="4.70679636711041" fill="#D2691E" fill-opacity="0.4076150501930409" />
<circle cx="166.34330935441986" cy="115.98516874796373" r="3.699092659595677" fill="#FFFFFF" fill-opacity="0.48252644747096635" />
<circle cx="126.16608020984269" cy="148.69581330146553" r="5.760414138645718" fill="#FFFFFF" fill-opacity="0.3025733860320831" />
<circle cx="104.05706528608489" cy="99.00011812019255" r="2.8799237729036022" fill="#FFFFFF" fill-opacity="0.38110333559071624" />
<circle cx="147.1415983671519" cy="133.98307655143842" r="2.9945872014530743" fill="#FFDE75" fill-opacity="0.5804793515952007" />
<circle cx="41.727677385466215" cy="152.00196813104492" r="4.672757919966628" fill="#8B4513" fill-opacity="0.3343744308491257" />
<circle cx="115.62504151543168" cy="35.50333022394952" r="2.4500458984215165" fill="#8B4513" fill-opacity="0.24485395546114808" />
<circle cx="99.42513336561268" cy="183.81321356747776" r="3.0858084849956704" fill="#8B4513" fill-opacity="0.42282175051422105" />
<circle cx="28.67152074597736" cy="84.9919774922157" r="5.75293775600226" fill="#FFFFFF" fill-opacity="0.36648438771276093" />
<circle cx="161.36893018646546" cy="99.4707998263265" r="2.392894177463454" fill="#D2691E" fill-opacity="0.4759281549514356" />
<circle cx="164.4662200741556" cy="152.13227830211417" r="2.9731454454283153" fill="#FFDE75" fill-opacity="0.2503066160388151" />
<circle cx="68.1168954567915" cy="109.98503741727116" r="2.660677685010694" fill="#FFFFFF" fill-opacity="0.2970052850477372" />
<circle cx="87.94559044569343" cy="125.52083680456711" r="4.609315938101924" fill="#FFDE75" fill-opacity="0.4218138015793008" />
<circle cx="173.12467164828138" cy="73.57817251829611" r="5.651783083963229" fill="#D2691E" fill-opacity="0.4722771029312921" />
<circle cx="55.135056177264275" cy="56.19498857316386" r="5.37893215149718" fill="#D2691E" fill-opacity="0.5685197557593891" />
<circle cx="114.42650932135194" cy="149.28549786347867" r="5.460398481071129" fill="#FFDE75" fill-opacity="0.4304248762963966" />
<circle cx="57.79814186468338" cy="161.1306762281469" r="5.821536901126077" fill="#D2691E" fill-opacity="0.4023586330052688" />
<circle cx="61.07858837908997" cy="128.95165269710444" r="4.9218447168724815" fill="#8B4513" fill-opacity="0.5190526129907758" />
<circle cx="74.95439803955847" cy="74.62985537348344" r="5.268760147839922" fill="#8B4513" fill-opacity="0.29743643229881067" />
<circle cx="150.79993698539076" cy="130.74388115156904" r="2.2310565670635305" fill="#FFFFFF" fill-opacity="0.5721506481690102" />
<circle cx="174.39587769271736" cy="97.13937390843682" r="5.497350084247641" fill="#FFFFFF" fill-opacity="0.35622690271623025" />
<circle cx="161.35729295371857" cy="94.46170846971056" r="3.052453487498399" fill="#FFDE75" fill-opacity="0.5217775681274115" />
<circle cx="128.88306805090906" cy="169.78425328862795" r="4.663671822641238" fill="#8B4513" fill-opacity="0.23171937489538377" />
<circle cx="52.81464221717171" cy="165.20972218805838" r="3.3195690532097015" fill="#FFDE75" fill-opacity="0.21039630987789845" />
<circle cx="95.26651869946086" cy="70.82953501468819" r="2.087887561598859" fill="#8B4513" fill-opacity="0.23596615638899585" />
<circle cx="45.4851761768177" cy="66.80299796076636" r="4.864953100889501" fill="#8B4513" fill-opacity="0.3255692655722519" />
<circle cx="49.170165345205994" cy="152.61114488455974" r="5.557750263217544" fill="#FFFFFF" fill-opacity="0.4395267981589489" />
<circle cx="188.64809976017355" cy="108.00310333709578" r="5.141273770440117" fill="#D2691E" fill-opacity="0.3278463505190795" />
<circle cx="166.59695136392082" cy="60.79849832146368" r="2.908682692738466" fill="#FFDE75" fill-opacity="0.23295444840434737" />
<circle cx="66.05668288975474" cy="63.332515379825566" r="3.9245369299339914" fill="#8B4513" fill-opacity="0.35394960194992126" />
<circle cx="71.59704393489969" cy="167.95264836763943" r="2.564300495244344" fill="#FFDE75" fill-opacity="0.41615435001775264" />
<circle cx="115.784900719253" cy="23.58029123404178" r="3.5251539957836857" fill="#8B4513" fill-opacity="0.3529837849651468" />
<circle cx="139.0982964328636" cy="128.82209605849224" r="4.209661934035999" fill="#8B4513" fill-opacity="0.5737329395899585" />
<circle cx="138.02068645611783" cy="67.62660736266676" r="4.598486348749109" fill="#D2691E" fill-opacity="0.42575474876898944" />
<circle cx="131.5703732003952" cy="36.73506868686279" r="5.306001409263722" fill="#FFFFFF" fill-opacity="0.49797191999815665" />
<circle cx="180.19252832010346" cy="127.3268512313126" r="2.7987997818518173" fill="#D2691E" fill-opacity="0.2802492580593323" />
<circle cx="104.80538852535211" cy="154.90532855742177" r="2.886576644593901" fill="#D2691E" fill-opacity="0.5887359548312707" />
<circle cx="82.14918583271967" cy="65.17726120681246" r="4.254867673405373" fill="#8B4513" fill-opacity="0.2584347408847832" />
<circle cx="102.8172041728253" cy="29.982471226555177" r="2.130173611853068" fill="#FFDE75" fill-opacity="0.3897103785493179" />
<circle cx="46.109771926210925" cy="85.95604816818005" r="4.88901491497071" fill="#D2691E" fill-opacity="0.4436013005026218" />
<circle cx="97.26602611512075" cy="169.21785557786842" r="3.0324385560556664" fill="#D2691E" fill-opacity="0.20283291724516972" />
<circle cx="145.19297679754155" cy="38.305758539097525" r="5.5531801373111715" fill="#FFFFFF" fill-opacity="0.5305021799585276" />
<circle cx="177.26688325446128" cy="110.59806514881734" r="2.9609719598824755" fill="#D2691E" fill-opacity="0.5952391654596422" />
<circle cx="88.66259415246077" cy="107.72377304857152" r="5.95026702438343" fill="#8B4513" fill-opacity="0.3452241378419381" />
<circle cx="130.13873292448702" cy="134.40953358400276" r="5.427474424042382" fill="#FFDE75" fill-opacity="0.2840372907830029" />
<circle cx="39.80347266323163" cy="78.07089853273314" r="6.7819583377758175" fill="#FFFFFF" fill-opacity="0.95" stroke="#FAF0E6" stroke-width="1.5" />
<circle cx="174.4402287097554" cy="85.89233803605484" r="5.855365945653781" fill="#FFFFFF" fill-opacity="0.95" stroke="#FAF0E6" stroke-width="1.5" />
<circle cx="164.2834903779638" cy="102.1295105360883" r="10.141968893148615" fill="#FFFFFF" fill-opacity="0.95" stroke="#FAF0E6" stroke-width="1.5" />
<circle cx="73.16119834492571" cy="35.8719358452726" r="8.607576828190517" fill="#FFFFFF" fill-opacity="0.95" stroke="#FAF0E6" stroke-width="1.5" />
<circle cx="129.39531255030906" cy="101.40419549432498" r="7.30927186955654" fill="#FFFFFF" fill-opacity="0.95" stroke="#FAF0E6" stroke-width="1.5" />
<circle cx="127.55686212733885" cy="181.5030825263858" r="8.297901806750495" fill="#FFFFFF" fill-opacity="0.95" stroke="#FAF0E6" stroke-width="1.5" />
<circle cx="131.72684139112624" cy="62.197928514838" r="9.901128797096266" fill="#FFFFFF" fill-opacity="0.95" stroke="#FAF0E6" stroke-width="1.5" />
<circle cx="69.15002110057777" cy="110.51947157832196" r="10.675490928928177" fill="#FFFFFF" fill-opacity="0.95" stroke="#FAF0E6" stroke-width="1.5" />
<circle cx="147.89165472744043" cy="97.39353561317341" r="10.314506143409192" fill="#FFFFFF" fill-opacity="0.95" stroke="#FAF0E6" stroke-width="1.5" />
<circle cx="45.9117833318377" cy="67.0953310069757" r="8.341152447222516" fill="#FFFFFF" fill-opacity="0.95" stroke="#FAF0E6" stroke-width="1.5" />
<circle cx="63.171195971918216" cy="120.95980460740685" r="5.363957215648622" fill="#FFFFFF" fill-opacity="0.95" stroke="#FAF0E6" stroke-width="1.5" />
<circle cx="58.37041109709099" cy="122.29415748041943" r="5.088027768507175" fill="#FFFFFF" fill-opacity="0.95" stroke="#FAF0E6" stroke-width="1.5" />
<circle cx="33.66911761810174" cy="103.14664461353017" r="6.7348344308046" fill="#FFFFFF" fill-opacity="0.95" stroke="#FAF0E6" stroke-width="1.5" />
<circle cx="117.84128502479194" cy="34.1964604000821" r="8.359439447779875" fill="#FFFFFF" fill-opacity="0.95" stroke="#FAF0E6" stroke-width="1.5" />
<circle cx="125.08438341851968" cy="79.39194890253796" r="9.963960945756728" fill="#FFFFFF" fill-opacity="0.95" stroke="#FAF0E6" stroke-width="1.5" />
<circle cx="88.54667951263089" cy="45.15258474886419" r="5.945458011586232" fill="#FFFFFF" fill-opacity="0.95" stroke="#FAF0E6" stroke-width="1.5" />
<circle cx="119.46819701331115" cy="129.72415456604716" r="5.5346867743237125" fill="#FFFFFF" fill-opacity="0.95" stroke="#FAF0E6" stroke-width="1.5" />
<circle cx="59.47110792006503" cy="76.87951031765955" r="7.228551042299058" fill="#FFFFFF" fill-opacity="0.95" stroke="#FAF0E6" stroke-width="1.5" />
<circle cx="138.55318524477178" cy="143.0607112758443" r="8.052310461633795" fill="#FFFFFF" fill-opacity="0.95" stroke="#FAF0E6" stroke-width="1.5" />
<circle cx="169.682675525351" cy="92.31930283750216" r="6.988602037749384" fill="#FFFFFF" fill-opacity="0.95" stroke="#FAF0E6" stroke-width="1.5" />
<circle cx="61.569123486904225" cy="112.17921894706936" r="8.479644617049935" fill="#FFFFFF" fill-opacity="0.95" stroke="#FAF0E6" stroke-width="1.5" />
<circle cx="139.9607093244926" cy="134.378622843616" r="9.934877334634901" fill="#FFFFFF" fill-opacity="0.95" stroke="#FAF0E6" stroke-width="1.5" />
<circle cx="181.14038287239464" cy="96.88965347871219" r="8.952866280833327" fill="#FFFFFF" fill-opacity="0.95" stroke="#FAF0E6" stroke-width="1.5" />
<circle cx="174.92190929747989" cy="128.19181555783837" r="9.926051916231431" fill="#FFFFFF" fill-opacity="0.95" stroke="#FAF0E6" stroke-width="1.5" />
<circle cx="142.0125597196566" cy="158.96953326451143" r="6.300720173617578" fill="#FFFFFF" fill-opacity="0.95" stroke="#FAF0E6" stroke-width="1.5" />
<circle cx="150.73888011418137" cy="151.6620588866044" r="5.246824598343743" fill="#FFFFFF" fill-opacity="0.95" stroke="#FAF0E6" stroke-width="1.5" />
<circle cx="153.49652161278124" cy="112.49793504454645" r="11.227854101342366" fill="#FFFFFF" fill-opacity="0.95" stroke="#FAF0E6" stroke-width="1.5" />
<circle cx="146.17567774571356" cy="86.89703224850331" r="8.177617282062464" fill="#FFFFFF" fill-opacity="0.95" stroke="#FAF0E6" stroke-width="1.5" />
<circle cx="56.4291940355113" cy="59.99588619854966" r="10.675419935320145" fill="#FFFFFF" fill-opacity="0.95" stroke="#FAF0E6" stroke-width="1.5" />
<circle cx="153.39814637887451" cy="118.87096085069864" r="9.380655156243218" fill="#FFFFFF" fill-opacity="0.95" stroke="#FAF0E6" stroke-width="1.5" />
</g>
<path d="M105.0,105.0 L205.0,105.0 A100,100,0,0,1,175.71067811865476,175.71067811865476 Z" fill="#FEF7E3" stroke="lightgray" stroke-width="2" />
<use xlink:href="#clip-4465916880-4530757200" />
<g clip-path="url(#clip-4465916880-4530757200)">
<circle cx="105.0" cy="105.0" r="92" stroke="#DAA05D" stroke-width="16" fill="none" />
<circle cx="105.0" cy="105.0" r="98" stroke="#C37B32" stroke-width="5" fill="none" />
<circle cx="48.493230390424884" cy="48.14629198073688" r="5.314230666853236" fill="#D2691E" fill-opacity="0.413027116329782" />
<circle cx="178.32062482271903" cy="97.5270173322494" r="5.597826357153464" fill="#FFDE75" fill-opacity="0.4126929528640028" />
<circle cx="29.463799201379985" cy="74.20918961936695" r="4.26771118082797" fill="#FFDE75" fill-opacity="0.44813182207877816" />
<circle cx="146.3799509860879" cy="106.03423080390156" r="2.8650890739721984" fill="#FFFFFF" fill-opacity="0.5315676263744045" />
<circle cx="50.33355412731162" cy="166.92553021889415" r="4.440867447112652" fill="#FFFFFF" fill-opacity="0.24918205147496197" />
<circle cx="103.09867331600091" cy="26.442233133943162" r="5.538309616562561" fill="#D2691E" fill-opacity="0.5082982583281226" />
<circle cx="88.84058595323019" cy="112.14017226801658" r="4.3862136176037625" fill="#D2691E" fill-opacity="0.4768358921935245" />
<circle cx="143.355989567886" cy="91.01604496838394" r="3.5217830262137597" fill="#D2691E" fill-opacity="0.4081702234128445" />
<circle cx="144.95407246724864" cy="78.90860076912924" r="2.7174697559355234" fill="#8B4513" fill-opacity="0.39108866453350144" />
<circle cx="136.81014660668657" cy="140.81539319593588" r="3.8758726623179007" fill="#FFFFFF" fill-opacity="0.4171235329363747" />
<circle cx="48.534603889832695" cy="51.01484188307571" r="2.714910278491633" fill="#D2691E" fill-opacity="0.28717835278414466" />
<circle cx="127.8902050918707" cy="84.35361209562464" r="3.5041256773829494" fill="#FFDE75" fill-opacity="0.28625497791197113" />
<circle cx="185.69022147901978" cy="104.3826008899941" r="2.2559794001995166" fill="#8B4513" fill-opacity="0.5873639136327498" />
<circle cx="107.25766034350018" cy="51.6592229681928" r="3.965096170897244" fill="#FFFFFF" fill-opacity="0.5867600306601413" />
<circle cx="56.503706371985615" cy="73.93124706822725" r="4.191586741163793" fill="#8B4513" fill-opacity="0.3726588372469124" />
<circle cx="48.86093036785412" cy="124.81285588703538" r="5.147523416740272" fill="#FFFFFF" fill-opacity="0.5735298917173103" />
<circle cx="134.22197850078257" cy="95.30106082842518" r="2.5794568034695553" fill="#FFFFFF" fill-opacity="0.39019764090024267" />
<circle cx="92.27160056182132" cy="165.81876088825754" r="4.302352455683883" fill="#FFFFFF" fill-opacity="0.39043246459066583" />
<circle cx="93.09829415735942" cy="73.72450713022707" r="3.8611049234983517" fill="#8B4513" fill-opacity="0.2604689514334747" />
<circle cx="120.0900054436543" cy="153.8687902277476" r="4.726093207101469" fill="#D2691E" fill-opacity="0.42769792585748545" />
<circle cx="59.816400313444326" cy="113.97115569299581" r="2.90248773307808" fill="#D2691E" fill-opacity="0.23239443464505638" />
<circle cx="135.22329954991778" cy="80.67477098908762" r="2.500506072208036" fill="#FFFFFF" fill-opacity="0.2991520382418745" />
<circle cx="148.0140416966364" cy="177.68714896954594" r="5.563680092871882" fill="#8B4513" fill-opacity="0.5858495889746191" />
<circle cx="116.62486545438927" cy="48.28590308318317" r="4.004550943877042" fill="#FFDE75" fill-opacity="0.59090674109362" />
<circle cx="150.88117470217477" cy="168.81964206313137" r="5.3735777312674475" fill="#8B4513" fill-opacity="0.40744359850678713" />
<circle cx="139.62989729221343" cy="95.42677772991813" r="3.9508000287027896" fill="#8B4513" fill-opacity="0.5855327935785746" />
<circle cx="53.42007766985888" cy="108.68029614029054" r="5.3803183958398275" fill="#FFFFFF" fill-opacity="0.24696206358337053" />
<circle cx="114.98552937640719" cy="62.94794883620291" r="2.509528652626279" fill="#D2691E" fill-opacity="0.5454542633934549" />
<circle cx="61.94886347749058" cy="153.4597509167735" r="2.5919197830541147" fill="#FFFFFF" fill-opacity="0.2368186632267736" />
<circle cx="76.06772051841601" cy="37.31222803009412" r="4.119243720818559" fill="#FFFFFF" fill-opacity="0.2287403047933772" />
<circle cx="58.647238229303696" cy="120.28120239976789" r="4.70679636711041" fill="#D2691E" fill-opacity="0.4076150501930409" />
<circle cx="166.34330935441986" cy="115.98516874796373" r="3.699092659595677" fill="#FFFFFF" fill-opacity="0.48252644747096635" />
<circle cx="126.16608020984269" cy="148.69581330146553" r="5.760414138645718" fill="#FFFFFF" fill-opacity="0.3025733860320831" />
<circle cx="104.05706528608489" cy="99.00011812019255" r="2.8799237729036022" fill="#FFFFFF" fill-opacity="0.38110333559071624" />
<circle cx="147.1415983671519" cy="133.98307655143842" r="2.9945872014530743" fill="#FFDE75" fill-opacity="0.5804793515952007" />
<circle cx="41.727677385466215" cy="152.00196813104492" r="4.672757919966628" fill="#8B4513" fill-opacity="0.3343744308491257" />
<circle cx="115.62504151543168" cy="35.50333022394952" r="2.4500458984215165" fill="#8B4513" fill-opacity="0.24485395546114808" />
<circle cx="99.42513336561268" cy="183.81321356747776" r="3.0858084849956704" fill="#8B4513" fill-opacity="0.42282175051422105" />
<circle cx="28.67152074597736" cy="84.9919774922157" r="5.75293775600226" fill="#FFFFFF" fill-opacity="0.36648438771276093" />
<circle cx="161.36893018646546" cy="99.4707998263265" r="2.392894177463454" fill="#D2691E" fill-opacity="0.4759281549514356" />
<circle cx="164.4662200741556" cy="152.13227830211417" r="2.9731454454283153" fill="#FFDE75" fill-opacity="0.2503066160388151" />
<circle cx="68.1168954567915" cy="109.98503741727116" r="2.660677685010694" fill="#FFFFFF" fill-opacity="0.2970052850477372" />
<circle cx="87.94559044569343" cy="125.52083680456711" r="4.609315938101924" fill="#FFDE75" fill-opacity="0.4218138015793008" />
<circle cx="173.12467164828138" cy="73.57817251829611" r="5.651783083963229" fill="#D2691E" fill-opacity="0.4722771029312921" />
<circle cx="55.135056177264275" cy="56.19498857316386" r="5.37893215149718" fill="#D2691E" fill-opacity="0.5685197557593891" />
<circle cx="114.42650932135194" cy="149.28549786347867" r="5.460398481071129" fill="#FFDE75" fill-opacity="0.4304248762963966" />
<circle cx="57.79814186468338" cy="161.1306762281469" r="5.821536901126077" fill="#D2691E" fill-opacity="0.4023586330052688" />
<circle cx="61.07858837908997" cy="128.95165269710444" r="4.9218447168724815" fill="#8B4513" fill-opacity="0.5190526129907758" />
<circle cx="74.95439803955847" cy="74.62985537348344" r="5.268760147839922" fill="#8B4513" fill-opacity="0.29743643229881067" />
<circle cx="150.79993698539076" cy="130.74388115156904" r="2.2310565670635305" fill="#FFFFFF" fill-opacity="0.5721506481690102" />
<circle cx="174.39587769271736" cy="97.13937390843682" r="5.497350084247641" fill="#FFFFFF" fill-opacity="0.35622690271623025" />
<circle cx="161.35729295371857" cy="94.46170846971056" r="3.052453487498399" fill="#FFDE75" fill-opacity="0.5217775681274115" />
<circle cx="128.88306805090906" cy="169.78425328862795" r="4.663671822641238" fill="#8B4513" fill-opacity="0.23171937489538377" />
<circle cx="52.81464221717171" cy="165.20972218805838" r="3.3195690532097015" fill="#FFDE75" fill-opacity="0.21039630987789845" />
<circle cx="95.26651869946086" cy="70.82953501468819" r="2.087887561598859" fill="#8B4513" fill-opacity="0.23596615638899585" />
<circle cx="45.4851761768177" cy="66.80299796076636" r="4.864953100889501" fill="#8B4513" fill-opacity="0.3255692655722519" />
<circle cx="49.170165345205994" cy="152.61114488455974" r="5.557750263217544" fill="#FFFFFF" fill-opacity="0.4395267981589489" />
<circle cx="188.64809976017355" cy="108.00310333709578" r="5.141273770440117" fill="#D2691E" fill-opacity="0.3278463505190795" />
<circle cx="166.59695136392082" cy="60.79849832146368" r="2.908682692738466" fill="#FFDE75" fill-opacity="0.23295444840434737" />
<circle cx="66.05668288975474" cy="63.332515379825566" r="3.9245369299339914" fill="#8B4513" fill-opacity="0.35394960194992126" />
<circle cx="71.59704393489969" cy="167.95264836763943" r="2.564300495244344" fill="#FFDE75" fill-opacity="0.41615435001775264" />
<circle cx="115.784900719253" cy="23.58029123404178" r="3.5251539957836857" fill="#8B4513" fill-opacity="0.3529837849651468" />
<circle cx="139.0982964328636" cy="128.82209605849224" r="4.209661934035999" fill="#8B4513" fill-opacity="0.5737329395899585" />
<circle cx="138.02068645611783" cy="67.62660736266676" r="4.598486348749109" fill="#D2691E" fill-opacity="0.42575474876898944" />
<circle cx="131.5703732003952" cy="36.73506868686279" r="5.306001409263722" fill="#FFFFFF" fill-opacity="0.49797191999815665" />
<circle cx="180.19252832010346" cy="127.3268512313126" r="2.7987997818518173" fill="#D2691E" fill-opacity="0.2802492580593323" />
<circle cx="104.80538852535211" cy="154.90532855742177" r="2.886576644593901" fill="#D2691E" fill-opacity="0.5887359548312707" />
<circle cx="82.14918583271967" cy="65.17726120681246" r="4.254867673405373" fill="#8B4513" fill-opacity="0.2584347408847832" />
<circle cx="102.8172041728253" cy="29.982471226555177" r="2.130173611853068" fill="#FFDE75" fill-opacity="0.3897103785493179" />
<circle cx="46.109771926210925" cy="85.95604816818005" r="4.88901491497071" fill="#D2691E" fill-opacity="0.4436013005026218" />
<circle cx="97.26602611512075" cy="169.21785557786842" r="3.0324385560556664" fill="#D2691E" fill-opacity="0.20283291724516972" />
<circle cx="145.19297679754155" cy="38.305758539097525" r="5.5531801373111715" fill="#FFFFFF" fill-opacity="0.5305021799585276" />
<circle cx="177.26688325446128" cy="110.59806514881734" r="2.9609719598824755" fill="#D2691E" fill-opacity="0.5952391654596422" />
<circle cx="88.66259415246077" cy="107.72377304857152" r="5.95026702438343" fill="#8B4513" fill-opacity="0.3452241378419381" />
<circle cx="130.13873292448702" cy="134.40953358400276" r="5.427474424042382" fill="#FFDE75" fill-opacity="0.2840372907830029" />
<circle cx="39.80347266323163" cy="78.07089853273314" r="6.7819583377758175" fill="#FFFFFF" fill-opacity="0.95" stroke="#FAF0E6" stroke-width="1.5" />
<circle cx="174.4402287097554" cy="85.89233803605484" r="5.855365945653781" fill="#FFFFFF" fill-opacity="0.95" stroke="#FAF0E6" stroke-width="1.5" />
<circle cx="164.2834903779638" cy="102.1295105360883" r="10.141968893148615" fill="#FFFFFF" fill-opacity="0.95" stroke="#FAF0E6" stroke-width="1.5" />
<circle cx="73.16119834492571" cy="35.8719358452726" r="8.607576828190517" fill="#FFFFFF" fill-opacity="0.95" stroke="#FAF0E6" stroke-width="1.5" />
<circle cx="129.39531255030906" cy="101.40419549432498" r="7.30927186955654" fill="#FFFFFF" fill-opacity="0.95" stroke="#FAF0E6" stroke-width="1.5" />
<circle cx="127.55686212733885" cy="181.5030825263858" r="8.297901806750495" fill="#FFFFFF" fill-opacity="0.95" stroke="#FAF0E6" stroke-width="1.5" />
<circle cx="131.72684139112624" cy="62.197928514838" r="9.901128797096266" fill="#FFFFFF" fill-opacity="0.95" stroke="#FAF0E6" stroke-width="1.5" />
<circle cx="69.15002110057777" cy="110.51947157832196" r="10.675490928928177" fill="#FFFFFF" fill-opacity="0.95" stroke="#FAF0E6" stroke-width="1.5" />
<circle cx="147.89165472744043" cy="97.39353561317341" r="10.314506143409192" fill="#FFFFFF" fill-opacity="0.95" stroke="#FAF0E6" stroke-width="1.5" />
<circle cx="45.9117833318377" cy="67.0953310069757" r="8.341152447222516" fill="#FFFFFF" fill-opacity="0.95" stroke="#FAF0E6" stroke-width="1.5" />
<circle cx="63.171195971918216" cy="120.95980460740685" r="5.363957215648622" fill="#FFFFFF" fill-opacity="0.95" stroke="#FAF0E6" stroke-width="1.5" />
<circle cx="58.37041109709099" cy="122.29415748041943" r="5.088027768507175" fill="#FFFFFF" fill-opacity="0.95" stroke="#FAF0E6" stroke-width="1.5" />
<circle cx="33.66911761810174" cy="103.14664461353017" r="6.7348344308046" fill="#FFFFFF" fill-opacity="0.95" stroke="#FAF0E6" stroke-width="1.5" />
<circle cx="117.84128502479194" cy="34.1964604000821" r="8.359439447779875" fill="#FFFFFF" fill-opacity="0.95" stroke="#FAF0E6" stroke-width="1.5" />
<circle cx="125.08438341851968" cy="79.39194890253796" r="9.963960945756728" fill="#FFFFFF" fill-opacity="0.95" stroke="#FAF0E6" stroke-width="1.5" />
<circle cx="88.54667951263089" cy="45.15258474886419" r="5.945458011586232" fill="#FFFFFF" fill-opacity="0.95" stroke="#FAF0E6" stroke-width="1.5" />
<circle cx="119.46819701331115" cy="129.72415456604716" r="5.5346867743237125" fill="#FFFFFF" fill-opacity="0.95" stroke="#FAF0E6" stroke-width="1.5" />
<circle cx="59.47110792006503" cy="76.87951031765955" r="7.228551042299058" fill="#FFFFFF" fill-opacity="0.95" stroke="#FAF0E6" stroke-width="1.5" />
<circle cx="138.55318524477178" cy="143.0607112758443" r="8.052310461633795" fill="#FFFFFF" fill-opacity="0.95" stroke="#FAF0E6" stroke-width="1.5" />
<circle cx="169.682675525351" cy="92.31930283750216" r="6.988602037749384" fill="#FFFFFF" fill-opacity="0.95" stroke="#FAF0E6" stroke-width="1.5" />
<circle cx="61.569123486904225" cy="112.17921894706936" r="8.479644617049935" fill="#FFFFFF" fill-opacity="0.95" stroke="#FAF0E6" stroke-width="1.5" />
<circle cx="139.9607093244926" cy="134.378622843616" r="9.934877334634901" fill="#FFFFFF" fill-opacity="0.95" stroke="#FAF0E6" stroke-width="1.5" />
<circle cx="181.14038287239464" cy="96.88965347871219" r="8.952866280833327" fill="#FFFFFF" fill-opacity="0.95" stroke="#FAF0E6" stroke-width="1.5" />
<circle cx="174.92190929747989" cy="128.19181555783837" r="9.926051916231431" fill="#FFFFFF" fill-opacity="0.95" stroke="#FAF0E6" stroke-width="1.5" />
<circle cx="142.0125597196566" cy="158.96953326451143" r="6.300720173617578" fill="#FFFFFF" fill-opacity="0.95" stroke="#FAF0E6" stroke-width="1.5" />
<circle cx="150.73888011418137" cy="151.6620588866044" r="5.246824598343743" fill="#FFFFFF" fill-opacity="0.95" stroke="#FAF0E6" stroke-width="1.5" />
<circle cx="153.49652161278124" cy="112.49793504454645" r="11.227854101342366" fill="#FFFFFF" fill-opacity="0.95" stroke="#FAF0E6" stroke-width="1.5" />
<circle cx="146.17567774571356" cy="86.89703224850331" r="8.177617282062464" fill="#FFFFFF" fill-opacity="0.95" stroke="#FAF0E6" stroke-width="1.5" />
<circle cx="56.4291940355113" cy="59.99588619854966" r="10.675419935320145" fill="#FFFFFF" fill-opacity="0.95" stroke="#FAF0E6" stroke-width="1.5" />
<circle cx="153.39814637887451" cy="118.87096085069864" r="9.380655156243218" fill="#FFFFFF" fill-opacity="0.95" stroke="#FAF0E6" stroke-width="1.5" />
</g>
<path d="M105.0,105.0 L175.71067811865476,175.71067811865476 A100,100,0,0,1,105.0,205.0 Z" fill="#FEF7E3" stroke="lightgray" stroke-width="2" />
<use xlink:href="#clip-4465916880-4530607952" />
<g clip-path="url(#clip-4465916880-4530607952)">
<circle cx="105.0" cy="105.0" r="92" stroke="#DAA05D" stroke-width="16" fill="none" />
<circle cx="105.0" cy="105.0" r="98" stroke="#C37B32" stroke-width="5" fill="none" />
<circle cx="48.493230390424884" cy="48.14629198073688" r="5.314230666853236" fill="#D2691E" fill-opacity="0.413027116329782" />
<circle cx="178.32062482271903" cy="97.5270173322494" r="5.597826357153464" fill="#FFDE75" fill-opacity="0.4126929528640028" />
<circle cx="29.463799201379985" cy="74.20918961936695" r="4.26771118082797" fill="#FFDE75" fill-opacity="0.44813182207877816" />
<circle cx="146.3799509860879" cy="106.03423080390156" r="2.8650890739721984" fill="#FFFFFF" fill-opacity="0.5315676263744045" />
<circle cx="50.33355412731162" cy="166.92553021889415" r="4.440867447112652" fill="#FFFFFF" fill-opacity="0.24918205147496197" />
<circle cx="103.09867331600091" cy="26.442233133943162" r="5.538309616562561" fill="#D2691E" fill-opacity="0.5082982583281226" />
<circle cx="88.84058595323019" cy="112.14017226801658" r="4.3862136176037625" fill="#D2691E" fill-opacity="0.4768358921935245" />
<circle cx="143.355989567886" cy="91.01604496838394" r="3.5217830262137597" fill="#D2691E" fill-opacity="0.4081702234128445" />
<circle cx="144.95407246724864" cy="78.90860076912924" r="2.7174697559355234" fill="#8B4513" fill-opacity="0.39108866453350144" />
<circle cx="136.81014660668657" cy="140.81539319593588" r="3.8758726623179007" fill="#FFFFFF" fill-opacity="0.4171235329363747" />
<circle cx="48.534603889832695" cy="51.01484188307571" r="2.714910278491633" fill="#D2691E" fill-opacity="0.28717835278414466" />
<circle cx="127.8902050918707" cy="84.35361209562464" r="3.5041256773829494" fill="#FFDE75" fill-opacity="0.28625497791197113" />
<circle cx="185.69022147901978" cy="104.3826008899941" r="2.2559794001995166" fill="#8B4513" fill-opacity="0.5873639136327498" />
<circle cx="107.25766034350018" cy="51.6592229681928" r="3.965096170897244" fill="#FFFFFF" fill-opacity="0.5867600306601413" />
<circle cx="56.503706371985615" cy="73.93124706822725" r="4.191586741163793" fill="#8B4513" fill-opacity="0.3726588372469124" />
<circle cx="48.86093036785412" cy="124.81285588703538" r="5.147523416740272" fill="#FFFFFF" fill-opacity="0.5735298917173103" />
<circle cx="134.22197850078257" cy="95.30106082842518" r="2.5794568034695553" fill="#FFFFFF" fill-opacity="0.39019764090024267" />
<circle cx="92.27160056182132" cy="165.81876088825754" r="4.302352455683883" fill="#FFFFFF" fill-opacity="0.39043246459066583" />
<circle cx="93.09829415735942" cy="73.72450713022707" r="3.8611049234983517" fill="#8B4513" fill-opacity="0.2604689514334747" />
<circle cx="120.0900054436543" cy="153.8687902277476" r="4.726093207101469" fill="#D2691E" fill-opacity="0.42769792585748545" />
<circle cx="59.816400313444326" cy="113.97115569299581" r="2.90248773307808" fill="#D2691E" fill-opacity="0.23239443464505638" />
<circle cx="135.22329954991778" cy="80.67477098908762" r="2.500506072208036" fill="#FFFFFF" fill-opacity="0.2991520382418745" />
<circle cx="148.0140416966364" cy="177.68714896954594" r="5.563680092871882" fill="#8B4513" fill-opacity="0.5858495889746191" />
<circle cx="116.62486545438927" cy="48.28590308318317" r="4.004550943877042" fill="#FFDE75" fill-opacity="0.59090674109362" />
<circle cx="150.88117470217477" cy="168.81964206313137" r="5.3735777312674475" fill="#8B4513" fill-opacity="0.40744359850678713" />
<circle cx="139.62989729221343" cy="95.42677772991813" r="3.9508000287027896" fill="#8B4513" fill-opacity="0.5855327935785746" />
<circle cx="53.42007766985888" cy="108.68029614029054" r="5.3803183958398275" fill="#FFFFFF" fill-opacity="0.24696206358337053" />
<circle cx="114.98552937640719" cy="62.94794883620291" r="2.509528652626279" fill="#D2691E" fill-opacity="0.5454542633934549" />
<circle cx="61.94886347749058" cy="153.4597509167735" r="2.5919197830541147" fill="#FFFFFF" fill-opacity="0.2368186632267736" />
<circle cx="76.06772051841601" cy="37.31222803009412" r="4.119243720818559" fill="#FFFFFF" fill-opacity="0.2287403047933772" />
<circle cx="58.647238229303696" cy="120.28120239976789" r="4.70679636711041" fill="#D2691E" fill-opacity="0.4076150501930409" />
<circle cx="166.34330935441986" cy="115.98516874796373" r="3.699092659595677" fill="#FFFFFF" fill-opacity="0.48252644747096635" />
<circle cx="126.16608020984269" cy="148.69581330146553" r="5.760414138645718" fill="#FFFFFF" fill-opacity="0.3025733860320831" />
<circle cx="104.05706528608489" cy="99.00011812019255" r="2.8799237729036022" fill="#FFFFFF" fill-opacity="0.38110333559071624" />
<circle cx="147.1415983671519" cy="133.98307655143842" r="2.9945872014530743" fill="#FFDE75" fill-opacity="0.5804793515952007" />
<circle cx="41.727677385466215" cy="152.00196813104492" r="4.672757919966628" fill="#8B4513" fill-opacity="0.3343744308491257" />
<circle cx="115.62504151543168" cy="35.50333022394952" r="2.4500458984215165" fill="#8B4513" fill-opacity="0.24485395546114808" />
<circle cx="99.42513336561268" cy="183.81321356747776" r="3.0858084849956704" fill="#8B4513" fill-opacity="0.42282175051422105" />
<circle cx="28.67152074597736" cy="84.9919774922157" r="5.75293775600226" fill="#FFFFFF" fill-opacity="0.36648438771276093" />
<circle cx="161.36893018646546" cy="99.4707998263265" r="2.392894177463454" fill="#D2691E" fill-opacity="0.4759281549514356" />
<circle cx="164.4662200741556" cy="152.13227830211417" r="2.9731454454283153" fill="#FFDE75" fill-opacity="0.2503066160388151" />
<circle cx="68.1168954567915" cy="109.98503741727116" r="2.660677685010694" fill="#FFFFFF" fill-opacity="0.2970052850477372" />
<circle cx="87.94559044569343" cy="125.52083680456711" r="4.609315938101924" fill="#FFDE75" fill-opacity="0.4218138015793008" />
<circle cx="173.12467164828138" cy="73.57817251829611" r="5.651783083963229" fill="#D2691E" fill-opacity="0.4722771029312921" />
<circle cx="55.135056177264275" cy="56.19498857316386" r="5.37893215149718" fill="#D2691E" fill-opacity="0.5685197557593891" />
<circle cx="114.42650932135194" cy="149.28549786347867" r="5.460398481071129" fill="#FFDE75" fill-opacity="0.4304248762963966" />
<circle cx="57.79814186468338" cy="161.1306762281469" r="5.821536901126077" fill="#D2691E" fill-opacity="0.4023586330052688" />
<circle cx="61.07858837908997" cy="128.95165269710444" r="4.9218447168724815" fill="#8B4513" fill-opacity="0.5190526129907758" />
<circle cx="74.95439803955847" cy="74.62985537348344" r="5.268760147839922" fill="#8B4513" fill-opacity="0.29743643229881067" />
<circle cx="150.79993698539076" cy="130.74388115156904" r="2.2310565670635305" fill="#FFFFFF" fill-opacity="0.5721506481690102" />
<circle cx="174.39587769271736" cy="97.13937390843682" r="5.497350084247641" fill="#FFFFFF" fill-opacity="0.35622690271623025" />
<circle cx="161.35729295371857" cy="94.46170846971056" r="3.052453487498399" fill="#FFDE75" fill-opacity="0.5217775681274115" />
<circle cx="128.88306805090906" cy="169.78425328862795" r="4.663671822641238" fill="#8B4513" fill-opacity="0.23171937489538377" />
<circle cx="52.81464221717171" cy="165.20972218805838" r="3.3195690532097015" fill="#FFDE75" fill-opacity="0.21039630987789845" />
<circle cx="95.26651869946086" cy="70.82953501468819" r="2.087887561598859" fill="#8B4513" fill-opacity="0.23596615638899585" />
<circle cx="45.4851761768177" cy="66.80299796076636" r="4.864953100889501" fill="#8B4513" fill-opacity="0.3255692655722519" />
<circle cx="49.170165345205994" cy="152.61114488455974" r="5.557750263217544" fill="#FFFFFF" fill-opacity="0.4395267981589489" />
<circle cx="188.64809976017355" cy="108.00310333709578" r="5.141273770440117" fill="#D2691E" fill-opacity="0.3278463505190795" />
<circle cx="166.59695136392082" cy="60.79849832146368" r="2.908682692738466" fill="#FFDE75" fill-opacity="0.23295444840434737" />
<circle cx="66.05668288975474" cy="63.332515379825566" r="3.9245369299339914" fill="#8B4513" fill-opacity="0.35394960194992126" />
<circle cx="71.59704393489969" cy="167.95264836763943" r="2.564300495244344" fill="#FFDE75" fill-opacity="0.41615435001775264" />
<circle cx="115.784900719253" cy="23.58029123404178" r="3.5251539957836857" fill="#8B4513" fill-opacity="0.3529837849651468" />
<circle cx="139.0982964328636" cy="128.82209605849224" r="4.209661934035999" fill="#8B4513" fill-opacity="0.5737329395899585" />
<circle cx="138.02068645611783" cy="67.62660736266676" r="4.598486348749109" fill="#D2691E" fill-opacity="0.42575474876898944" />
<circle cx="131.5703732003952" cy="36.73506868686279" r="5.306001409263722" fill="#FFFFFF" fill-opacity="0.49797191999815665" />
<circle cx="180.19252832010346" cy="127.3268512313126" r="2.7987997818518173" fill="#D2691E" fill-opacity="0.2802492580593323" />
<circle cx="104.80538852535211" cy="154.90532855742177" r="2.886576644593901" fill="#D2691E" fill-opacity="0.5887359548312707" />
<circle cx="82.14918583271967" cy="65.17726120681246" r="4.254867673405373" fill="#8B4513" fill-opacity="0.2584347408847832" />
<circle cx="102.8172041728253" cy="29.982471226555177" r="2.130173611853068" fill="#FFDE75" fill-opacity="0.3897103785493179" />
<circle cx="46.109771926210925" cy="85.95604816818005" r="4.88901491497071" fill="#D2691E" fill-opacity="0.4436013005026218" />
<circle cx="97.26602611512075" cy="169.21785557786842" r="3.0324385560556664" fill="#D2691E" fill-opacity="0.20283291724516972" />
<circle cx="145.19297679754155" cy="38.305758539097525" r="5.5531801373111715" fill="#FFFFFF" fill-opacity="0.5305021799585276" />
<circle cx="177.26688325446128" cy="110.59806514881734" r="2.9609719598824755" fill="#D2691E" fill-opacity="0.5952391654596422" />
<circle cx="88.66259415246077" cy="107.72377304857152" r="5.95026702438343" fill="#8B4513" fill-opacity="0.3452241378419381" />
<circle cx="130.13873292448702" cy="134.40953358400276" r="5.427474424042382" fill="#FFDE75" fill-opacity="0.2840372907830029" />
<circle cx="39.80347266323163" cy="78.07089853273314" r="6.7819583377758175" fill="#FFFFFF" fill-opacity="0.95" stroke="#FAF0E6" stroke-width="1.5" />
<circle cx="174.4402287097554" cy="85.89233803605484" r="5.855365945653781" fill="#FFFFFF" fill-opacity="0.95" stroke="#FAF0E6" stroke-width="1.5" />
<circle cx="164.2834903779638" cy="102.1295105360883" r="10.141968893148615" fill="#FFFFFF" fill-opacity="0.95" stroke="#FAF0E6" stroke-width="1.5" />
<circle cx="73.16119834492571" cy="35.8719358452726" r="8.607576828190517" fill="#FFFFFF" fill-opacity="0.95" stroke="#FAF0E6" stroke-width="1.5" />
<circle cx="129.39531255030906" cy="101.40419549432498" r="7.30927186955654" fill="#FFFFFF" fill-opacity="0.95" stroke="#FAF0E6" stroke-width="1.5" />
<circle cx="127.55686212733885" cy="181.5030825263858" r="8.297901806750495" fill="#FFFFFF" fill-opacity="0.95" stroke="#FAF0E6" stroke-width="1.5" />
<circle cx="131.72684139112624" cy="62.197928514838" r="9.901128797096266" fill="#FFFFFF" fill-opacity="0.95" stroke="#FAF0E6" stroke-width="1.5" />
<circle cx="69.15002110057777" cy="110.51947157832196" r="10.675490928928177" fill="#FFFFFF" fill-opacity="0.95" stroke="#FAF0E6" stroke-width="1.5" />
<circle cx="147.89165472744043" cy="97.39353561317341" r="10.314506143409192" fill="#FFFFFF" fill-opacity="0.95" stroke="#FAF0E6" stroke-width="1.5" />
<circle cx="45.9117833318377" cy="67.0953310069757" r="8.341152447222516" fill="#FFFFFF" fill-opacity="0.95" stroke="#FAF0E6" stroke-width="1.5" />
<circle cx="63.171195971918216" cy="120.95980460740685" r="5.363957215648622" fill="#FFFFFF" fill-opacity="0.95" stroke="#FAF0E6" stroke-width="1.5" />
<circle cx="58.37041109709099" cy="122.29415748041943" r="5.088027768507175" fill="#FFFFFF" fill-opacity="0.95" stroke="#FAF0E6" stroke-width="1.5" />
<circle cx="33.66911761810174" cy="103.14664461353017" r="6.7348344308046" fill="#FFFFFF" fill-opacity="0.95" stroke="#FAF0E6" stroke-width="1.5" />
<circle cx="117.84128502479194" cy="34.1964604000821" r="8.359439447779875" fill="#FFFFFF" fill-opacity="0.95" stroke="#FAF0E6" stroke-width="1.5" />
<circle cx="125.08438341851968" cy="79.39194890253796" r="9.963960945756728" fill="#FFFFFF" fill-opacity="0.95" stroke="#FAF0E6" stroke-width="1.5" />
<circle cx="88.54667951263089" cy="45.15258474886419" r="5.945458011586232" fill="#FFFFFF" fill-opacity="0.95" stroke="#FAF0E6" stroke-width="1.5" />
<circle cx="119.46819701331115" cy="129.72415456604716" r="5.5346867743237125" fill="#FFFFFF" fill-opacity="0.95" stroke="#FAF0E6" stroke-width="1.5" />
<circle cx="59.47110792006503" cy="76.87951031765955" r="7.228551042299058" fill="#FFFFFF" fill-opacity="0.95" stroke="#FAF0E6" stroke-width="1.5" />
<circle cx="138.55318524477178" cy="143.0607112758443" r="8.052310461633795" fill="#FFFFFF" fill-opacity="0.95" stroke="#FAF0E6" stroke-width="1.5" />
<circle cx="169.682675525351" cy="92.31930283750216" r="6.988602037749384" fill="#FFFFFF" fill-opacity="0.95" stroke="#FAF0E6" stroke-width="1.5" />
<circle cx="61.569123486904225" cy="112.17921894706936" r="8.479644617049935" fill="#FFFFFF" fill-opacity="0.95" stroke="#FAF0E6" stroke-width="1.5" />
<circle cx="139.9607093244926" cy="134.378622843616" r="9.934877334634901" fill="#FFFFFF" fill-opacity="0.95" stroke="#FAF0E6" stroke-width="1.5" />
<circle cx="181.14038287239464" cy="96.88965347871219" r="8.952866280833327" fill="#FFFFFF" fill-opacity="0.95" stroke="#FAF0E6" stroke-width="1.5" />
<circle cx="174.92190929747989" cy="128.19181555783837" r="9.926051916231431" fill="#FFFFFF" fill-opacity="0.95" stroke="#FAF0E6" stroke-width="1.5" />
<circle cx="142.0125597196566" cy="158.96953326451143" r="6.300720173617578" fill="#FFFFFF" fill-opacity="0.95" stroke="#FAF0E6" stroke-width="1.5" />
<circle cx="150.73888011418137" cy="151.6620588866044" r="5.246824598343743" fill="#FFFFFF" fill-opacity="0.95" stroke="#FAF0E6" stroke-width="1.5" />
<circle cx="153.49652161278124" cy="112.49793504454645" r="11.227854101342366" fill="#FFFFFF" fill-opacity="0.95" stroke="#FAF0E6" stroke-width="1.5" />
<circle cx="146.17567774571356" cy="86.89703224850331" r="8.177617282062464" fill="#FFFFFF" fill-opacity="0.95" stroke="#FAF0E6" stroke-width="1.5" />
<circle cx="56.4291940355113" cy="59.99588619854966" r="10.675419935320145" fill="#FFFFFF" fill-opacity="0.95" stroke="#FAF0E6" stroke-width="1.5" />
<circle cx="153.39814637887451" cy="118.87096085069864" r="9.380655156243218" fill="#FFFFFF" fill-opacity="0.95" stroke="#FAF0E6" stroke-width="1.5" />
</g>
<path d="M105.0,105.0 L105.0,205.0 A100,100,0,0,1,34.28932188134526,175.71067811865476 Z" fill="#FEF7E3" stroke="lightgray" stroke-width="2" />
<use xlink:href="#clip-4465916880-4530589392" />
<g clip-path="url(#clip-4465916880-4530589392)">
<circle cx="105.0" cy="105.0" r="92" stroke="#DAA05D" stroke-width="16" fill="none" />
<circle cx="105.0" cy="105.0" r="98" stroke="#C37B32" stroke-width="5" fill="none" />
<circle cx="48.493230390424884" cy="48.14629198073688" r="5.314230666853236" fill="#D2691E" fill-opacity="0.413027116329782" />
<circle cx="178.32062482271903" cy="97.5270173322494" r="5.597826357153464" fill="#FFDE75" fill-opacity="0.4126929528640028" />
<circle cx="29.463799201379985" cy="74.20918961936695" r="4.26771118082797" fill="#FFDE75" fill-opacity="0.44813182207877816" />
<circle cx="146.3799509860879" cy="106.03423080390156" r="2.8650890739721984" fill="#FFFFFF" fill-opacity="0.5315676263744045" />
<circle cx="50.33355412731162" cy="166.92553021889415" r="4.440867447112652" fill="#FFFFFF" fill-opacity="0.24918205147496197" />
<circle cx="103.09867331600091" cy="26.442233133943162" r="5.538309616562561" fill="#D2691E" fill-opacity="0.5082982583281226" />
<circle cx="88.84058595323019" cy="112.14017226801658" r="4.3862136176037625" fill="#D2691E" fill-opacity="0.4768358921935245" />
<circle cx="143.355989567886" cy="91.01604496838394" r="3.5217830262137597" fill="#D2691E" fill-opacity="0.4081702234128445" />
<circle cx="144.95407246724864" cy="78.90860076912924" r="2.7174697559355234" fill="#8B4513" fill-opacity="0.39108866453350144" />
<circle cx="136.81014660668657" cy="140.81539319593588" r="3.8758726623179007" fill="#FFFFFF" fill-opacity="0.4171235329363747" />
<circle cx="48.534603889832695" cy="51.01484188307571" r="2.714910278491633" fill="#D2691E" fill-opacity="0.28717835278414466" />
<circle cx="127.8902050918707" cy="84.35361209562464" r="3.5041256773829494" fill="#FFDE75" fill-opacity="0.28625497791197113" />
<circle cx="185.69022147901978" cy="104.3826008899941" r="2.2559794001995166" fill="#8B4513" fill-opacity="0.5873639136327498" />
<circle cx="107.25766034350018" cy="51.6592229681928" r="3.965096170897244" fill="#FFFFFF" fill-opacity="0.5867600306601413" />
<circle cx="56.503706371985615" cy="73.93124706822725" r="4.191586741163793" fill="#8B4513" fill-opacity="0.3726588372469124" />
<circle cx="48.86093036785412" cy="124.81285588703538" r="5.147523416740272" fill="#FFFFFF" fill-opacity="0.5735298917173103" />
<circle cx="134.22197850078257" cy="95.30106082842518" r="2.5794568034695553" fill="#FFFFFF" fill-opacity="0.39019764090024267" />
<circle cx="92.27160056182132" cy="165.81876088825754" r="4.302352455683883" fill="#FFFFFF" fill-opacity="0.39043246459066583" />
<circle cx="93.09829415735942" cy="73.72450713022707" r="3.8611049234983517" fill="#8B4513" fill-opacity="0.2604689514334747" />
<circle cx="120.0900054436543" cy="153.8687902277476" r="4.726093207101469" fill="#D2691E" fill-opacity="0.42769792585748545" />
<circle cx="59.816400313444326" cy="113.97115569299581" r="2.90248773307808" fill="#D2691E" fill-opacity="0.23239443464505638" />
<circle cx="135.22329954991778" cy="80.67477098908762" r="2.500506072208036" fill="#FFFFFF" fill-opacity="0.2991520382418745" />
<circle cx="148.0140416966364" cy="177.68714896954594" r="5.563680092871882" fill="#8B4513" fill-opacity="0.5858495889746191" />
<circle cx="116.62486545438927" cy="48.28590308318317" r="4.004550943877042" fill="#FFDE75" fill-opacity="0.59090674109362" />
<circle cx="150.88117470217477" cy="168.81964206313137" r="5.3735777312674475" fill="#8B4513" fill-opacity="0.40744359850678713" />
<circle cx="139.62989729221343" cy="95.42677772991813" r="3.9508000287027896" fill="#8B4513" fill-opacity="0.5855327935785746" />
<circle cx="53.42007766985888" cy="108.68029614029054" r="5.3803183958398275" fill="#FFFFFF" fill-opacity="0.24696206358337053" />
<circle cx="114.98552937640719" cy="62.94794883620291" r="2.509528652626279" fill="#D2691E" fill-opacity="0.5454542633934549" />
<circle cx="61.94886347749058" cy="153.4597509167735" r="2.5919197830541147" fill="#FFFFFF" fill-opacity="0.2368186632267736" />
<circle cx="76.06772051841601" cy="37.31222803009412" r="4.119243720818559" fill="#FFFFFF" fill-opacity="0.2287403047933772" />
<circle cx="58.647238229303696" cy="120.28120239976789" r="4.70679636711041" fill="#D2691E" fill-opacity="0.4076150501930409" />
<circle cx="166.34330935441986" cy="115.98516874796373" r="3.699092659595677" fill="#FFFFFF" fill-opacity="0.48252644747096635" />
<circle cx="126.16608020984269" cy="148.69581330146553" r="5.760414138645718" fill="#FFFFFF" fill-opacity="0.3025733860320831" />
<circle cx="104.05706528608489" cy="99.00011812019255" r="2.8799237729036022" fill="#FFFFFF" fill-opacity="0.38110333559071624" />
<circle cx="147.1415983671519" cy="133.98307655143842" r="2.9945872014530743" fill="#FFDE75" fill-opacity="0.5804793515952007" />
<circle cx="41.727677385466215" cy="152.00196813104492" r="4.672757919966628" fill="#8B4513" fill-opacity="0.3343744308491257" />
<circle cx="115.62504151543168" cy="35.50333022394952" r="2.4500458984215165" fill="#8B4513" fill-opacity="0.24485395546114808" />
<circle cx="99.42513336561268" cy="183.81321356747776" r="3.0858084849956704" fill="#8B4513" fill-opacity="0.42282175051422105" />
<circle cx="28.67152074597736" cy="84.9919774922157" r="5.75293775600226" fill="#FFFFFF" fill-opacity="0.36648438771276093" />
<circle cx="161.36893018646546" cy="99.4707998263265" r="2.392894177463454" fill="#D2691E" fill-opacity="0.4759281549514356" />
<circle cx="164.4662200741556" cy="152.13227830211417" r="2.9731454454283153" fill="#FFDE75" fill-opacity="0.2503066160388151" />
<circle cx="68.1168954567915" cy="109.98503741727116" r="2.660677685010694" fill="#FFFFFF" fill-opacity="0.2970052850477372" />
<circle cx="87.94559044569343" cy="125.52083680456711" r="4.609315938101924" fill="#FFDE75" fill-opacity="0.4218138015793008" />
<circle cx="173.12467164828138" cy="73.57817251829611" r="5.651783083963229" fill="#D2691E" fill-opacity="0.4722771029312921" />
<circle cx="55.135056177264275" cy="56.19498857316386" r="5.37893215149718" fill="#D2691E" fill-opacity="0.5685197557593891" />
<circle cx="114.42650932135194" cy="149.28549786347867" r="5.460398481071129" fill="#FFDE75" fill-opacity="0.4304248762963966" />
<circle cx="57.79814186468338" cy="161.1306762281469" r="5.821536901126077" fill="#D2691E" fill-opacity="0.4023586330052688" />
<circle cx="61.07858837908997" cy="128.95165269710444" r="4.9218447168724815" fill="#8B4513" fill-opacity="0.5190526129907758" />
<circle cx="74.95439803955847" cy="74.62985537348344" r="5.268760147839922" fill="#8B4513" fill-opacity="0.29743643229881067" />
<circle cx="150.79993698539076" cy="130.74388115156904" r="2.2310565670635305" fill="#FFFFFF" fill-opacity="0.5721506481690102" />
<circle cx="174.39587769271736" cy="97.13937390843682" r="5.497350084247641" fill="#FFFFFF" fill-opacity="0.35622690271623025" />
<circle cx="161.35729295371857" cy="94.46170846971056" r="3.052453487498399" fill="#FFDE75" fill-opacity="0.5217775681274115" />
<circle cx="128.88306805090906" cy="169.78425328862795" r="4.663671822641238" fill="#8B4513" fill-opacity="0.23171937489538377" />
<circle cx="52.81464221717171" cy="165.20972218805838" r="3.3195690532097015" fill="#FFDE75" fill-opacity="0.21039630987789845" />
<circle cx="95.26651869946086" cy="70.82953501468819" r="2.087887561598859" fill="#8B4513" fill-opacity="0.23596615638899585" />
<circle cx="45.4851761768177" cy="66.80299796076636" r="4.864953100889501" fill="#8B4513" fill-opacity="0.3255692655722519" />
<circle cx="49.170165345205994" cy="152.61114488455974" r="5.557750263217544" fill="#FFFFFF" fill-opacity="0.4395267981589489" />
<circle cx="188.64809976017355" cy="108.00310333709578" r="5.141273770440117" fill="#D2691E" fill-opacity="0.3278463505190795" />
<circle cx="166.59695136392082" cy="60.79849832146368" r="2.908682692738466" fill="#FFDE75" fill-opacity="0.23295444840434737" />
<circle cx="66.05668288975474" cy="63.332515379825566" r="3.9245369299339914" fill="#8B4513" fill-opacity="0.35394960194992126" />
<circle cx="71.59704393489969" cy="167.95264836763943" r="2.564300495244344" fill="#FFDE75" fill-opacity="0.41615435001775264" />
<circle cx="115.784900719253" cy="23.58029123404178" r="3.5251539957836857" fill="#8B4513" fill-opacity="0.3529837849651468" />
<circle cx="139.0982964328636" cy="128.82209605849224" r="4.209661934035999" fill="#8B4513" fill-opacity="0.5737329395899585" />
<circle cx="138.02068645611783" cy="67.62660736266676" r="4.598486348749109" fill="#D2691E" fill-opacity="0.42575474876898944" />
<circle cx="131.5703732003952" cy="36.73506868686279" r="5.306001409263722" fill="#FFFFFF" fill-opacity="0.49797191999815665" />
<circle cx="180.19252832010346" cy="127.3268512313126" r="2.7987997818518173" fill="#D2691E" fill-opacity="0.2802492580593323" />
<circle cx="104.80538852535211" cy="154.90532855742177" r="2.886576644593901" fill="#D2691E" fill-opacity="0.5887359548312707" />
<circle cx="82.14918583271967" cy="65.17726120681246" r="4.254867673405373" fill="#8B4513" fill-opacity="0.2584347408847832" />
<circle cx="102.8172041728253" cy="29.982471226555177" r="2.130173611853068" fill="#FFDE75" fill-opacity="0.3897103785493179" />
<circle cx="46.109771926210925" cy="85.95604816818005" r="4.88901491497071" fill="#D2691E" fill-opacity="0.4436013005026218" />
<circle cx="97.26602611512075" cy="169.21785557786842" r="3.0324385560556664" fill="#D2691E" fill-opacity="0.20283291724516972" />
<circle cx="145.19297679754155" cy="38.305758539097525" r="5.5531801373111715" fill="#FFFFFF" fill-opacity="0.5305021799585276" />
<circle cx="177.26688325446128" cy="110.59806514881734" r="2.9609719598824755" fill="#D2691E" fill-opacity="0.5952391654596422" />
<circle cx="88.66259415246077" cy="107.72377304857152" r="5.95026702438343" fill="#8B4513" fill-opacity="0.3452241378419381" />
<circle cx="130.13873292448702" cy="134.40953358400276" r="5.427474424042382" fill="#FFDE75" fill-opacity="0.2840372907830029" />
<circle cx="39.80347266323163" cy="78.07089853273314" r="6.7819583377758175" fill="#FFFFFF" fill-opacity="0.95" stroke="#FAF0E6" stroke-width="1.5" />
<circle cx="174.4402287097554" cy="85.89233803605484" r="5.855365945653781" fill="#FFFFFF" fill-opacity="0.95" stroke="#FAF0E6" stroke-width="1.5" />
<circle cx="164.2834903779638" cy="102.1295105360883" r="10.141968893148615" fill="#FFFFFF" fill-opacity="0.95" stroke="#FAF0E6" stroke-width="1.5" />
<circle cx="73.16119834492571" cy="35.8719358452726" r="8.607576828190517" fill="#FFFFFF" fill-opacity="0.95" stroke="#FAF0E6" stroke-width="1.5" />
<circle cx="129.39531255030906" cy="101.40419549432498" r="7.30927186955654" fill="#FFFFFF" fill-opacity="0.95" stroke="#FAF0E6" stroke-width="1.5" />
<circle cx="127.55686212733885" cy="181.5030825263858" r="8.297901806750495" fill="#FFFFFF" fill-opacity="0.95" stroke="#FAF0E6" stroke-width="1.5" />
<circle cx="131.72684139112624" cy="62.197928514838" r="9.901128797096266" fill="#FFFFFF" fill-opacity="0.95" stroke="#FAF0E6" stroke-width="1.5" />
<circle cx="69.15002110057777" cy="110.51947157832196" r="10.675490928928177" fill="#FFFFFF" fill-opacity="0.95" stroke="#FAF0E6" stroke-width="1.5" />
<circle cx="147.89165472744043" cy="97.39353561317341" r="10.314506143409192" fill="#FFFFFF" fill-opacity="0.95" stroke="#FAF0E6" stroke-width="1.5" />
<circle cx="45.9117833318377" cy="67.0953310069757" r="8.341152447222516" fill="#FFFFFF" fill-opacity="0.95" stroke="#FAF0E6" stroke-width="1.5" />
<circle cx="63.171195971918216" cy="120.95980460740685" r="5.363957215648622" fill="#FFFFFF" fill-opacity="0.95" stroke="#FAF0E6" stroke-width="1.5" />
<circle cx="58.37041109709099" cy="122.29415748041943" r="5.088027768507175" fill="#FFFFFF" fill-opacity="0.95" stroke="#FAF0E6" stroke-width="1.5" />
<circle cx="33.66911761810174" cy="103.14664461353017" r="6.7348344308046" fill="#FFFFFF" fill-opacity="0.95" stroke="#FAF0E6" stroke-width="1.5" />
<circle cx="117.84128502479194" cy="34.1964604000821" r="8.359439447779875" fill="#FFFFFF" fill-opacity="0.95" stroke="#FAF0E6" stroke-width="1.5" />
<circle cx="125.08438341851968" cy="79.39194890253796" r="9.963960945756728" fill="#FFFFFF" fill-opacity="0.95" stroke="#FAF0E6" stroke-width="1.5" />
<circle cx="88.54667951263089" cy="45.15258474886419" r="5.945458011586232" fill="#FFFFFF" fill-opacity="0.95" stroke="#FAF0E6" stroke-width="1.5" />
<circle cx="119.46819701331115" cy="129.72415456604716" r="5.5346867743237125" fill="#FFFFFF" fill-opacity="0.95" stroke="#FAF0E6" stroke-width="1.5" />
<circle cx="59.47110792006503" cy="76.87951031765955" r="7.228551042299058" fill="#FFFFFF" fill-opacity="0.95" stroke="#FAF0E6" stroke-width="1.5" />
<circle cx="138.55318524477178" cy="143.0607112758443" r="8.052310461633795" fill="#FFFFFF" fill-opacity="0.95" stroke="#FAF0E6" stroke-width="1.5" />
<circle cx="169.682675525351" cy="92.31930283750216" r="6.988602037749384" fill="#FFFFFF" fill-opacity="0.95" stroke="#FAF0E6" stroke-width="1.5" />
<circle cx="61.569123486904225" cy="112.17921894706936" r="8.479644617049935" fill="#FFFFFF" fill-opacity="0.95" stroke="#FAF0E6" stroke-width="1.5" />
<circle cx="139.9607093244926" cy="134.378622843616" r="9.934877334634901" fill="#FFFFFF" fill-opacity="0.95" stroke="#FAF0E6" stroke-width="1.5" />
<circle cx="181.14038287239464" cy="96.88965347871219" r="8.952866280833327" fill="#FFFFFF" fill-opacity="0.95" stroke="#FAF0E6" stroke-width="1.5" />
<circle cx="174.92190929747989" cy="128.19181555783837" r="9.926051916231431" fill="#FFFFFF" fill-opacity="0.95" stroke="#FAF0E6" stroke-width="1.5" />
<circle cx="142.0125597196566" cy="158.96953326451143" r="6.300720173617578" fill="#FFFFFF" fill-opacity="0.95" stroke="#FAF0E6" stroke-width="1.5" />
<circle cx="150.73888011418137" cy="151.6620588866044" r="5.246824598343743" fill="#FFFFFF" fill-opacity="0.95" stroke="#FAF0E6" stroke-width="1.5" />
<circle cx="153.49652161278124" cy="112.49793504454645" r="11.227854101342366" fill="#FFFFFF" fill-opacity="0.95" stroke="#FAF0E6" stroke-width="1.5" />
<circle cx="146.17567774571356" cy="86.89703224850331" r="8.177617282062464" fill="#FFFFFF" fill-opacity="0.95" stroke="#FAF0E6" stroke-width="1.5" />
<circle cx="56.4291940355113" cy="59.99588619854966" r="10.675419935320145" fill="#FFFFFF" fill-opacity="0.95" stroke="#FAF0E6" stroke-width="1.5" />
<circle cx="153.39814637887451" cy="118.87096085069864" r="9.380655156243218" fill="#FFFFFF" fill-opacity="0.95" stroke="#FAF0E6" stroke-width="1.5" />
</g>
<rect x="230.0" y="41.0" width="54.0" height="54.0" fill="none" stroke="black" stroke-width="2" />
<rect x="230.0" y="115.0" width="54.0" height="54.0" fill="none" stroke="black" stroke-width="2" />
<path d="M225.0,105.0 L289.0,105.0" stroke="black" stroke-width="2" />
</g>
</svg>