<?xml version="1.0" encoding="UTF-8"?>
<svg xmlns="http://www.w3.org/2000/svg" xmlns:xlink="http://www.w3.org/1999/xlink"
     width="284.0" height="210" viewBox="0 0 284.0 210">
<defs>
<clipPath id="clip-4567142080-4541975248">
<path d="M105.0,105.0 L105.0,5.0 A100,100,0,0,1,205.0,105.0 Z" fill="none" />
</clipPath>
</defs>
<g>
<path d="M105.0,105.0 L105.0,5.0 A100,100,0,0,1,205.0,105.0 Z" fill="none" stroke="lightgray" stroke-width="2" />
<path d="M105.0,105.0 L205.0,105.0 A100,100,0,0,1,105.0,205.0 Z" fill="none" stroke="lightgray" stroke-width="2" />
<path d="M105.0,105.0 L105.0,205.0 A100,100,0,0,1,5.0,105.00000000000001 Z" fill="none" stroke="lightgray" stroke-width="2" />
<path d="M105.0,105.0 L5.0,105.00000000000001 A100,100,0,0,1,104.99999999999999,5.0 Z" fill="none" stroke="lightgray" stroke-width="2" />
<path d="M105.0,105.0 L105.0,5.0 A100,100,0,0,1,205.0,105.0 Z" fill="#F5C754" stroke="lightgray" stroke-width="2" />
<use xlink:href="#clip-4567142080-4541975248" />
<g clip-path="url(#clip-4567142080-4541975248)">
<circle cx="105.0" cy="105.0" r="92" stroke="#DAA05D" stroke-width="16" fill="none" />
<circle cx="105.0" cy="105.0" r="98" stroke="#C37B32" stroke-width="5" fill="none" />
<circle cx="39.70444009789816" cy="128.8746418143632" r="5.776934066974949" fill="#FFDE75" fill-opacity="0.5353462012776742" />
<circle cx="58.51543037010476" cy="101.19076104166241" r="2.1161118433775234" fill="#8B4513" fill-opacity="0.5651596429629073" />
<circle cx="120.5207167522842" cy="69.58961890997024" r="3.110170313727345" fill="#D2691E" fill-opacity="0.4730011433737827" />
<circle cx="82.2456327806732" cy="145.045572667158" r="2.8781357090399053" fill="#D2691E" fill-opacity="0.40622104870812026" />
<circle cx="178.77616989446142" cy="83.76877829817472" r="5.196742195958198" fill="#8B4513" fill-opacity="0.523516549282065" />
<circle cx="142.55115910528266" cy="93.34794316799164" r="3.5440839075680923" fill="#FFFFFF" fill-opacity="0.24282434912440684" />
<circle cx="87.613760520136" cy="187.0952739898903" r="2.1108455813416986" fill="#FFDE75" fill-opacity="0.45384739675619273" />
<circle cx="41.506626341761155" cy="138.91971125628356" r="3.0114642326018126" fill="#FFDE75" fill-opacity="0.20384042294057003" />
<circle cx="143.27659263719895" cy="113.78150895875491" r="5.6582880466900995" fill="#D2691E" fill-opacity="0.263728710272664" />
<circle cx="71.46823137233258" cy="104.03456367067626" r="2.6217355527053527" fill="#D2691E" fill-opacity="0.22037821752637737" />
<circle cx="26.48693717765994" cy="103.74957160522858" r="3.9957590665677527" fill="#FFFFFF" fill-opacity="0.39341409005221356" />
<circle cx="140.57489680264146" cy="88.29974180943552" r="5.730180949275432" fill="#8B4513" fill-opacity="0.37696833884730657" />
<circle cx="152.12465640822245" cy="59.098610495866716" r="4.415334727645211" fill="#8B4513" fill-opacity="0.3711643637182023" />
<circle cx="72.24242536113456" cy="49.36877602193312" r="4.678854667749858" fill="#FFDE75" fill-opacity="0.3078327146545184" />
<circle cx="104.14456364038273" cy="142.1418067810065" r="5.986891981225051" fill="#FFDE75" fill-opacity="0.49807063807438884" />
<circle cx="101.21602090100663" cy="160.68149768738755" r="11.259196085807485" fill="#C92A2A" stroke="#800000" stroke-width="1" />
<circle cx="106.32939629117075" cy="155.9547385637852" r="1.3002971397899987" fill="#FFA07A" fill-opacity="0.7" />
<circle cx="99.41281584477912" cy="158.77029976799443" r="0.7599503649328601" fill="#FFA07A" fill-opacity="0.7" />
<circle cx="102.3521853218949" cy="154.7391573422791" r="0.7770485388194925" fill="#FFA07A" fill-opacity="0.7" />
<circle cx="104.8439233976341" cy="166.4749532909811" r="0.6393362064562264" fill="#FFA07A" fill-opacity="0.7" />
<circle cx="99.76265046951693" cy="159.05759830505812" r="0.7283024766764071" fill="#FFA07A" fill-opacity="0.7" />
<circle cx="103.85604295061371" cy="162.40584982959768" r="1.3936015316703085" fill="#FFA07A" fill-opacity="0.7" />
<circle cx="98.0818113965021" cy="131.55010810484455" r="11.77577393082855" fill="#C92A2A" stroke="#800000" stroke-width="1" />
<circle cx="103.06360894427259" cy="127.1706660485964" r="0.8758682085810288" fill="#FFA07A" fill-opacity="0.7" />
<circle cx="96.87501266005225" cy="131.2058810101622" r="0.9982671215330877" fill="#FFA07A" fill-opacity="0.7" />
<circle cx="93.11164729821914" cy="136.18418364178592" r="0.6560835810137753" fill="#FFA07A" fill-opacity="0.7" />
<circle cx="88.70483783175857" cy="85.9050925719765" r="9.626349158140439" fill="#C92A2A" stroke="#800000" stroke-width="1" />
<circle cx="84.79961759248972" cy="91.33901681254419" r="0.6784782176746683" fill="#FFA07A" fill-opacity="0.7" />
<circle cx="84.46377728118954" cy="88.53002416937383" r="1.0414632826211454" fill="#FFA07A" fill-opacity="0.7" />
<circle cx="84.299182076055" cy="86.7731192861877" r="1.4759004077688558" fill="#FFA07A" fill-opacity="0.7" />
<circle cx="88.03355285942408" cy="80.06448909161284" r="1.2653581792077884" fill="#FFA07A" fill-opacity="0.7" />
<circle cx="92.9275414620923" cy="85.21042839884163" r="0.6856511079768821" fill="#FFA07A" fill-opacity="0.7" />
<circle cx="84.06160947456603" cy="85.68824744992817" r="1.2859396775861553" fill="#FFA07A" fill-opacity="0.7" />
<circle cx="89.02384515433573" cy="81.16291309134701" r="1.2123301239741289" fill="#FFA07A" fill-opacity="0.7" />
<circle cx="124.1379110621191" cy="130.38203515820567" r="11.428604976987465" fill="#C92A2A" stroke="#800000" stroke-width="1" />
<circle cx="124.77998182913322" cy="124.44634441017257" r="0.7993571349479959" fill="#FFA07A" fill-opacity="0.7" />
<circle cx="121.89215098921628" cy="134.60406565742284" r="1.3964930213205253" fill="#FFA07A" fill-opacity="0.7" />
<circle cx="118.87470577489584" cy="134.31771807719022" r="1.4158423284216393" fill="#FFA07A" fill-opacity="0.7" />
</g>
<rect x="230.0" y="41.0" width="54.0" height="54.0" fill="none" stroke="black" stroke-width="2" />
<rect x="230.0" y="115.0" width="54.0" height="54.0" fill="none" stroke="black" stroke-width="2" />
<path d="M225.0,105.0 L289.0,105.0" stroke="black" stroke-width="2" />
</g>
</svg>