<svg width="734.0" height="210.0" xmlns="http://www.w3.org/2000/svg" xmlns:xlink="http://www.w3.org/1999/xlink">
<svg x="0.0" y="0.0" width="210.0" height="210.0" viewBox="0 0 210 210" xmlns="http://www.w3.org/2000/svg" xmlns:xlink="http://www.w3.org/1999/xlink">
<defs>
<clipPath id="clip-4530295328-4465619280">
<circle cx="105.0" cy="105.0" r="100" fill="none" />
</clipPath>
</defs>
<g>
<circle cx="105.0" cy="105.0" r="100" fill="#F5C754" />
<use xlink:href="#clip-4530295328-4465619280" />
<g clip-path="url(#clip-4530295328-4465619280)">
<circle cx="105.0" cy="105.0" r="92" stroke="#DAA05D" stroke-width="16" fill="none" />
<circle cx="105.0" cy="105.0" r="98" stroke="#C37B32" stroke-width="5" fill="none" />
<circle cx="119.39489111026691" cy="28.788620836031342" r="5.228797255367905" fill="#FFDE75" fill-opacity="0.35526063661984136" />
<circle cx="49.11721534273756" cy="150.42273677249085" r="4.6813425969134626" fill="#D2691E" fill-opacity="0.2258446353054153" />
<circle cx="148.96387251497174" cy="66.9539757851272" r="3.4452712773760155" fill="#FFFFFF" fill-opacity="0.4296572435347493" />
<circle cx="156.0821827167952" cy="127.02223100374268" r="3.492806305274817" fill="#8B4513" fill-opacity="0.5773879405948658" />
<circle cx="27.976459320741924" cy="124.85834862469474" r="5.893234223713991" fill="#FFDE75" fill-opacity="0.5137571120562765" />
<circle cx="25.601140251642363" cy="111.2571972121611" r="5.680031353278219" fill="#D2691E" fill-opacity="0.4975214409612054" />
<circle cx="165.86616115345984" cy="113.6399264112442" r="5.556404172948547" fill="#8B4513" fill-opacity="0.38603703548960355" />
<circle cx="66.09195229257634" cy="99.98674631312382" r="3.0021608423891726" fill="#FFFFFF" fill-opacity="0.36262909556353223" />
<circle cx="63.794449968406546" cy="106.18786326495746" r="3.086605325822314" fill="#FFDE75" fill-opacity="0.37579804402339223" />
<circle cx="45.221855179929236" cy="129.6218852298603" r="4.392061357688924" fill="#D2691E" fill-opacity="0.45452491827864416" />
<circle cx="99.33314755051106" cy="20.321912373898968" r="4.858964736728973" fill="#FFDE75" fill-opacity="0.2074695765415534" />
<circle cx="81.17394007269854" cy="55.275826255004766" r="2.2729423984797488" fill="#8B4513" fill-opacity="0.21790808982803178" />
<circle cx="131.1077705885768" cy="121.4019453195329" r="4.663261290720423" fill="#FFFFFF" fill-opacity="0.29171276985932293" />
<circle cx="128.54625682299945" cy="141.55781423840088" r="5.209557912193537" fill="#D2691E" fill-opacity="0.3687406190452386" />
<circle cx="135.211472691007" cy="97.10747887689763" r="2.554596532844857" fill="#FFDE75" fill-opacity="0.3447797019915138" />
<circle cx="64.46276985211678" cy="103.30047073303066" r="5.9111737168419864" fill="#D2691E" fill-opacity="0.21388361198099082" />
<circle cx="84.73777526782754" cy="82.42033793936214" r="2.6589402419674038" fill="#FFFFFF" fill-opacity="0.42781530780346294" />
<circle cx="105.75687214418737" cy="27.96504720253229" r="4.480774351941537" fill="#D2691E" fill-opacity="0.4811305175783623" />
<circle cx="60.71051415818261" cy="154.01229477998893" r="5.957895269989144" fill="#FFDE75" fill-opacity="0.5921045402411522" />
<circle cx="103.71500975949162" cy="138.669487198466" r="5.232433048141635" fill="#FFFFFF" fill-opacity="0.5802136077155176" />
<circle cx="128.33681752071365" cy="91.66495990085522" r="5.3819609444301" fill="#FFDE75" fill-opacity="0.29200329089562926" />
<circle cx="89.83414238719449" cy="80.74330433309741" r="4.3873160503558575" fill="#FFDE75" fill-opacity="0.5849153408000485" />
<circle cx="119.10320482831364" cy="30.458647061580606" r="2.688503894653868" fill="#D2691E" fill-opacity="0.5539830428583554" />
<circle cx="73.67657100177878" cy="121.30339423245388" r="2.6849261035834937" fill="#FFFFFF" fill-opacity="0.25013750330410145" />
<circle cx="24.11400813349985" cy="83.00485099306799" r="5.7469812661225195" fill="#8B4513" fill-opacity="0.4776859719471042" />
<circle cx="120.57046379886687" cy="132.71426441446582" r="3.352671538471326" fill="#FFFFFF" fill-opacity="0.24232803021480726" />
<circle cx="169.39249146968328" cy="108.50276038408118" r="4.299742301800991" fill="#8B4513" fill-opacity="0.5657017864024756" />
<circle cx="139.302419096031" cy="180.92425983266975" r="2.6396161876145063" fill="#8B4513" fill-opacity="0.46510183359807955" />
<circle cx="51.371810424197754" cy="80.11852797916475" r="2.1991903872583456" fill="#D2691E" fill-opacity="0.447626279717355" />
<circle cx="152.5579935067356" cy="118.33698177213721" r="2.579851140251471" fill="#FFDE75" fill-opacity="0.51392938572052" />
<circle cx="140.6267274021201" cy="140.76654799452425" r="4.015684831831596" fill="#FFFFFF" fill-opacity="0.43024519339672507" />
<circle cx="145.13969042210277" cy="109.56688354490939" r="3.5481231587592683" fill="#D2691E" fill-opacity="0.201258149192188" />
<circle cx="125.33916457867903" cy="143.7432490626825" r="3.208958832073817" fill="#8B4513" fill-opacity="0.34316626909060005" />
<circle cx="187.05759604621193" cy="93.7991275392052" r="4.246738009025446" fill="#8B4513" fill-opacity="0.453974048742994" />
<circle cx="102.26651612077816" cy="136.9113766402403" r="4.048054561215827" fill="#D2691E" fill-opacity="0.32248112349941255" />
<circle cx="110.7173579707948" cy="91.82532497137733" r="5.142239741373589" fill="#8B4513" fill-opacity="0.5915881278861624" />
<circle cx="42.60251207553081" cy="82.20096616971935" r="2.4049161442623923" fill="#FFFFFF" fill-opacity="0.40691829178157807" />
<circle cx="73.19507108930559" cy="108.34863630273769" r="4.219941623196498" fill="#FFDE75" fill-opacity="0.4143311324832061" />
<circle cx="117.02423939447431" cy="64.39280581828388" r="3.797989293432749" fill="#FFFFFF" fill-opacity="0.29526380831863097" />
<circle cx="167.08043371433422" cy="61.846032048065034" r="3.932355200440259" fill="#FFFFFF" fill-opacity="0.4041101826481177" />
<circle cx="128.06024658478717" cy="61.908567784818125" r="2.148044731107367" fill="#8B4513" fill-opacity="0.3674225387074787" />
<circle cx="70.69499827072673" cy="92.27076886428468" r="3.529626949595578" fill="#FFDE75" fill-opacity="0.3270840937003892" />
<circle cx="96.01122423639727" cy="67.85552320274263" r="5.586764028772327" fill="#D2691E" fill-opacity="0.40149765711537755" />
<circle cx="73.16611775331101" cy="125.80348028456434" r="3.1272365755903935" fill="#D2691E" fill-opacity="0.538148495648537" />
<circle cx="88.2101239151212" cy="158.07486878923714" r="4.950577674636474" fill="#FFDE75" fill-opacity="0.23827861158359853" />
<circle cx="113.82229023797687" cy="154.4450524513697" r="4.7319826508149685" fill="#D2691E" fill-opacity="0.5687088086478753" />
<circle cx="97.75348267549623" cy="53.331353673170156" r="3.532820894899571" fill="#FFDE75" fill-opacity="0.2595523764474518" />
<circle cx="114.39997197782425" cy="183.12536447656998" r="5.922695903319595" fill="#8B4513" fill-opacity="0.5511925433283418" />
<circle cx="180.5662899966688" cy="126.82897606614137" r="3.2643048072213903" fill="#8B4513" fill-opacity="0.22451682874960835" />
<circle cx="83.93427984632218" cy="126.23928930571823" r="3.4455638713186736" fill="#8B4513" fill-opacity="0.23568415054837133" />
<circle cx="144.50781819869343" cy="160.34401524639938" r="2.400490902636145" fill="#FFDE75" fill-opacity="0.31510661851938787" />
<circle cx="100.5277217217158" cy="168.48606533793117" r="2.7218752366711016" fill="#FFDE75" fill-opacity="0.2876200702360344" />
<circle cx="153.18135066488367" cy="91.42123956178891" r="3.4601423369710256" fill="#FFDE75" fill-opacity="0.27402776994355793" />
<circle cx="29.559962782283378" cy="81.18197372871823" r="4.736745234698188" fill="#D2691E" fill-opacity="0.547055052736003" />
<circle cx="49.00084906323902" cy="89.14434187732827" r="2.369205665694804" fill="#FFFFFF" fill-opacity="0.26802560879334136" />
<circle cx="94.81478483732407" cy="86.10404644291052" r="4.157602078268941" fill="#D2691E" fill-opacity="0.49493187498072405" />
<circle cx="47.04788239698462" cy="134.3753007430714" r="3.292783195488892" fill="#8B4513" fill-opacity="0.29766763660049816" />
<circle cx="90.25356597789123" cy="80.86091586089795" r="3.8887344916356668" fill="#FFDE75" fill-opacity="0.26814757889017593" />
<circle cx="101.71696838897583" cy="188.26683974162088" r="5.517624136015112" fill="#FFDE75" fill-opacity="0.29030810203631796" />
<circle cx="42.300526133427184" cy="95.62530820003771" r="3.9623523431511383" fill="#FFDE75" fill-opacity="0.40141774676744013" />
<circle cx="133.290940553935" cy="154.53070739909546" r="4.86961068066895" fill="#FFDE75" fill-opacity="0.5317058520728146" />
<circle cx="53.89349445565349" cy="155.2031806492723" r="4.505317968123238" fill="#FFDE75" fill-opacity="0.24858147920617435" />
<circle cx="85.1002025578288" cy="88.0205485983533" r="3.1639538002730254" fill="#D2691E" fill-opacity="0.5172918990673223" />
<circle cx="174.85623084447496" cy="89.48309601639812" r="4.227811910671804" fill="#FFDE75" fill-opacity="0.5208205362344336" />
<circle cx="88.25066016599303" cy="134.380077726763" r="4.639120765161294" fill="#D2691E" fill-opacity="0.21577083093693547" />
<circle cx="142.936017006301" cy="74.55478716650444" r="2.3253522445296566" fill="#8B4513" fill-opacity="0.49318549822750635" />
<circle cx="58.023734578507295" cy="168.12848282612043" r="3.2730505976126385" fill="#D2691E" fill-opacity="0.5603570381320917" />
<circle cx="101.4034260431075" cy="85.97534841947304" r="4.147633403443523" fill="#FFDE75" fill-opacity="0.4926059632164284" />
<circle cx="21.358968824408763" cy="101.41587399154703" r="2.640964578725832" fill="#D2691E" fill-opacity="0.4723890739351002" />
<circle cx="169.2820624788083" cy="89.06449690155823" r="3.6106324610538163" fill="#FFDE75" fill-opacity="0.22658928445810292" />
<circle cx="98.47474926085667" cy="53.341429785342505" r="5.861140841630428" fill="#FFFFFF" fill-opacity="0.4571564018474657" />
<circle cx="173.09808970339972" cy="116.86769588165026" r="5.285829350703962" fill="#D2691E" fill-opacity="0.4608727373668274" />
<circle cx="70.25277893019071" cy="85.68358386551346" r="4.90296879420953" fill="#D2691E" fill-opacity="0.5940692469453908" />
<circle cx="158.32923626194378" cy="76.69189816050068" r="2.632828534355694" fill="#FFFFFF" fill-opacity="0.21412738326856867" />
<circle cx="154.33646688437415" cy="93.8665935337552" r="3.615886443226804" fill="#D2691E" fill-opacity="0.258679507869754" />
<circle cx="126.2070440777371" cy="104.0471108112427" r="2.261197909227223" fill="#8B4513" fill-opacity="0.3041370337191869" />
<circle cx="168.6934993422529" cy="89.30734542709668" r="3.02555812804393" fill="#FFFFFF" fill-opacity="0.2510466681599793" />
<circle cx="29.914658139757663" cy="128.9816311919307" r="3.3772855019388333" fill="#D2691E" fill-opacity="0.5424101757168382" />
<circle cx="99.88786905792546" cy="68.00846581833653" r="3.23399377428305" fill="#FFFFFF" fill-opacity="0.38865058993967583" />
<circle cx="100.60839876320625" cy="163.99481070617168" r="5.243211713434894" fill="#FFDE75" fill-opacity="0.23555483221695256" />
<circle cx="165.1789406513431" cy="155.7216330313911" r="5.174383647125159" fill="#FFFFFF" fill-opacity="0.3430296588469164" />
<circle cx="45.686568306952125" cy="105.85160562700713" r="4.3263231570122125" fill="#FFFFFF" fill-opacity="0.5423877575146074" />
<circle cx="65.95796026474974" cy="62.386165543916796" r="2.0186843246580506" fill="#8B4513" fill-opacity="0.5953882774110677" />
<circle cx="58.3892147686029" cy="147.23477838654276" r="3.596987410278308" fill="#D2691E" fill-opacity="0.5207650088108958" />
<circle cx="103.74707972490859" cy="163.1197657442357" r="3.862060816524902" fill="#8B4513" fill-opacity="0.38472339007812695" />
<circle cx="158.32867370078804" cy="83.96111061214486" r="5.825627985542973" fill="#FFDE75" fill-opacity="0.36335423937826344" />
<circle cx="93.71445608641885" cy="48.78651421153067" r="5.355918932741277" fill="#8B4513" fill-opacity="0.561298720236752" />
<circle cx="112.20647390915492" cy="147.56357201445348" r="4.392087808071416" fill="#D2691E" fill-opacity="0.5905247530412177" />
<circle cx="98.20797901748944" cy="145.2904966342256" r="2.8538825735291455" fill="#8B4513" fill-opacity="0.2446246575097756" />
<circle cx="113.2303203841162" cy="154.6073420940173" r="3.499789715102593" fill="#FFFFFF" fill-opacity="0.5613484448237" />
<circle cx="98.54235455650887" cy="125.39268993289932" r="4.745405614265058" fill="#FFDE75" fill-opacity="0.4097331584323223" />
<circle cx="127.19678332136111" cy="185.81408178737826" r="4.873089827321117" fill="#FFDE75" fill-opacity="0.4578609992225033" />
<circle cx="128.93942690821208" cy="59.30484637176387" r="4.8391853659930995" fill="#FFFFFF" fill-opacity="0.5366475817604017" />
<circle cx="119.28256917374529" cy="53.18491490600213" r="3.0287240099619126" fill="#FFDE75" fill-opacity="0.5633144894827921" />
<circle cx="40.28584176502338" cy="85.10436307983458" r="5.965629552892477" fill="#FFDE75" fill-opacity="0.37709701569526055" />
<circle cx="159.44135118401283" cy="128.17330361373766" r="2.173334102349579" fill="#FFDE75" fill-opacity="0.46409225542911425" />
<circle cx="61.500513314039814" cy="99.78357805412753" r="4.703665103400736" fill="#8B4513" fill-opacity="0.2709937668215457" />
<circle cx="68.84832780800747" cy="131.568098462293" r="5.2200985361062" fill="#FFDE75" fill-opacity="0.4240218681765453" />
<circle cx="25.67075623588373" cy="93.8144652379346" r="2.7943100729094876" fill="#8B4513" fill-opacity="0.2487503032356606" />
<circle cx="77.4736341441822" cy="131.48046625984412" r="2.81815833600827" fill="#8B4513" fill-opacity="0.4933771805882648" />
<circle cx="115.90925548688932" cy="121.79997469376903" r="2.4540831405379344" fill="#8B4513" fill-opacity="0.5275004513016128" />
<circle cx="118.81266127832235" cy="172.58901607917227" r="5.2913760238325125" fill="#FFFFFF" fill-opacity="0.4375655998511605" />
<circle cx="34.24289264867623" cy="69.31907856595234" r="4.745855473529049" fill="#FFFFFF" fill-opacity="0.3669107528780404" />
<circle cx="78.07834266772966" cy="155.30728798423849" r="2.217526170330179" fill="#FFDE75" fill-opacity="0.4413752726247818" />
<circle cx="157.58506310646573" cy="129.91375101052802" r="5.879986951487464" fill="#FFDE75" fill-opacity="0.2890106632049738" />
<circle cx="140.1636450674041" cy="149.18936035709692" r="5.51443819118183" fill="#FFDE75" fill-opacity="0.22096529522357877" />
<circle cx="103.04710036726848" cy="56.4192070176757" r="4.083071932867453" fill="#FFFFFF" fill-opacity="0.3336498502344125" />
<circle cx="145.97016075713105" cy="132.01532993343025" r="3.535353905038852" fill="#FFDE75" fill-opacity="0.4227851723756402" />
<circle cx="120.0955972828519" cy="42.325307518500495" r="4.752791358466223" fill="#FFFFFF" fill-opacity="0.3643959629552715" />
<circle cx="34.658906883049994" cy="86.84687737528392" r="2.528554023403018" fill="#8B4513" fill-opacity="0.21642303536753352" />
<circle cx="63.52465908373778" cy="165.14898527912356" r="2.481890881271555" fill="#D2691E" fill-opacity="0.46789077114088595" />
<circle cx="122.61320562521075" cy="76.29178656604034" r="3.3565503580320146" fill="#FFDE75" fill-opacity="0.2531666947623922" />
<circle cx="129.37109306156628" cy="98.97963757283426" r="3.5738574477475016" fill="#FFFFFF" fill-opacity="0.49071816944109026" />
<circle cx="161.7205820513656" cy="115.88765967844947" r="4.68225172647084" fill="#D2691E" fill-opacity="0.42270233232283094" />
<circle cx="148.91194306366026" cy="118.58614712700076" r="2.3705826010312516" fill="#D2691E" fill-opacity="0.49453486347868364" />
<circle cx="129.62548890161037" cy="136.80254261262658" r="2.1398144611893293" fill="#FFFFFF" fill-opacity="0.21564938398721858" />
<circle cx="104.69799054067923" cy="77.22004859284014" r="3.4749225478517713" fill="#FFDE75" fill-opacity="0.3182340746069242" />
<circle cx="39.53468629946187" cy="107.41511264824945" r="2.836280798306958" fill="#D2691E" fill-opacity="0.3913856272201942" />
<circle cx="141.17449744264025" cy="30.316299006437646" r="5.674392275993407" fill="#D2691E" fill-opacity="0.43182514273541994" />
<circle cx="131.79619876512012" cy="116.26192455218248" r="4.339010156372558" fill="#FFDE75" fill-opacity="0.3812230266047234" />
<ellipse cx="148.7151552786336" cy="164.89243570196848" rx="9.397519104793469" ry="5.07289050018025" fill="#FFFDF0" fill-opacity="0.6" />
<ellipse cx="147.87847575264826" cy="165.35021181961417" rx="4.2064092147846806" ry="2.303600424739951" fill="#FFFFFF" fill-opacity="0.85" />
<ellipse cx="133.47730232362142" cy="165.55959356487162" rx="7.8471367558924765" ry="8.456588552501655" fill="#FFFDF0" fill-opacity="0.6" />
<ellipse cx="134.36365066437622" cy="166.03653420203398" rx="2.499502730176357" ry="3.978265955330382" fill="#FFFFFF" fill-opacity="0.85" />
<ellipse cx="121.4571791138195" cy="51.57080341506981" rx="5.867384135975744" ry="8.047580355475255" fill="#FFFDF0" fill-opacity="0.6" />
<ellipse cx="120.84103609586926" cy="50.632833153744784" rx="2.5294116935827287" ry="3.100835255792452" fill="#FFFFFF" fill-opacity="0.85" />
<ellipse cx="141.05445629237795" cy="159.33774989833108" rx="9.773950710896552" ry="6.021141207893589" fill="#FFFDF0" fill-opacity="0.6" />
<ellipse cx="141.93835903048299" cy="158.37779351005378" rx="4.819397397888292" ry="3.96605011677262" fill="#FFFFFF" fill-opacity="0.85" />
<ellipse cx="66.96228895990885" cy="90.23302005176964" rx="6.382179999632482" ry="5.298243310860242" fill="#FFFDF0" fill-opacity="0.6" />
<ellipse cx="66.40899211041445" cy="89.80596330018383" rx="3.3582614398539516" ry="3.4631077201711324" fill="#FFFFFF" fill-opacity="0.85" />
<ellipse cx="67.31410461801772" cy="150.7338889933355" rx="6.196778383609538" ry="4.91544381318289" fill="#FFFDF0" fill-opacity="0.6" />
<ellipse cx="68.11765602682642" cy="151.26685593288474" rx="2.2681072654037098" ry="2.9521813974005715" fill="#FFFFFF" fill-opacity="0.85" />
<ellipse cx="76.3808300984789" cy="100.6544696597576" rx="7.666584247168348" ry="4.265717574994697" fill="#FFFDF0" fill-opacity="0.6" />
<ellipse cx="76.05673728052949" cy="100.86335054819655" rx="3.173425732645317" ry="2.4844642372626673" fill="#FFFFFF" fill-opacity="0.85" />
<ellipse cx="154.9441799417953" cy="80.91047807775442" rx="7.449299708664283" ry="5.777041927000106" fill="#FFFDF0" fill-opacity="0.6" />
<ellipse cx="155.80189975357328" cy="80.32573752193633" rx="4.389272815312979" ry="2.742266125197775" fill="#FFFFFF" fill-opacity="0.85" />
<ellipse cx="147.51466695128045" cy="167.2402744319681" rx="5.397907255052647" ry="5.750602397780465" fill="#FFFDF0" fill-opacity="0.6" />
<ellipse cx="147.25435760997533" cy="166.4029305429801" rx="3.3802670471447995" ry="2.3815110308817813" fill="#FFFFFF" fill-opacity="0.85" />
<ellipse cx="120.33554587751928" cy="39.697254551093266" rx="6.157162102066711" ry="4.339425433575788" fill="#FFFDF0" fill-opacity="0.6" />
<ellipse cx="119.55128144278231" cy="38.88988159177799" rx="2.7751778065026755" ry="3.699928918182948" fill="#FFFFFF" fill-opacity="0.85" />
<ellipse cx="63.920702877895756" cy="122.43572239468351" rx="8.978953996230324" ry="5.721103659062834" fill="#FFFDF0" fill-opacity="0.6" />
<ellipse cx="63.22402471954749" cy="122.91706292177477" rx="4.138042384897472" ry="2.3305184586743133" fill="#FFFFFF" fill-opacity="0.85" />
<ellipse cx="99.90706272554239" cy="69.90974777485644" rx="8.229274152294941" ry="8.687012150503936" fill="#FFFDF0" fill-opacity="0.6" />
<ellipse cx="100.7420390510506" cy="69.8122456623723" rx="4.525726027895919" ry="2.8920587158291804" fill="#FFFFFF" fill-opacity="0.85" />
<ellipse cx="42.83536157948169" cy="52.23872117939518" rx="6.758185560978623" ry="6.084282972280889" fill="#FFFDF0" fill-opacity="0.6" />
<ellipse cx="43.51073817730208" cy="51.69503755355355" rx="2.6614898849358952" ry="3.9964802214130386" fill="#FFFFFF" fill-opacity="0.85" />
<ellipse cx="143.96182922316783" cy="51.348389905277145" rx="5.845132848396236" ry="7.6891797573533465" fill="#FFFDF0" fill-opacity="0.6" />
<ellipse cx="143.28677016156473" cy="51.00151375049607" rx="3.8508975239077925" ry="2.302555047945024" fill="#FFFFFF" fill-opacity="0.85" />
<ellipse cx="46.901554360050255" cy="54.42302751592404" rx="9.715091527539373" ry="8.982886424043967" fill="#FFFDF0" fill-opacity="0.6" />
<ellipse cx="46.27474106140284" cy="55.158914803400855" rx="2.3829744354807953" ry="3.510427020343898" fill="#FFFFFF" fill-opacity="0.85" />
<ellipse cx="95.78056513939488" cy="54.79701760529246" rx="8.714026542845438" ry="5.883003602860732" fill="#FFFDF0" fill-opacity="0.6" />
<ellipse cx="96.14199455989909" cy="54.09269629782847" rx="2.8775537944227665" ry="3.6882028244222433" fill="#FFFFFF" fill-opacity="0.85" />
<ellipse cx="108.65509147697784" cy="72.96788101459764" rx="8.670035282612032" ry="5.985980806027366" fill="#FFFDF0" fill-opacity="0.6" />
<ellipse cx="109.58096897719861" cy="72.09135729031715" rx="3.3219257762365384" ry="3.6766952464472684" fill="#FFFFFF" fill-opacity="0.85" />
<ellipse cx="102.80470685840251" cy="60.13635643231961" rx="8.179490839017976" ry="6.826373269225215" fill="#FFFDF0" fill-opacity="0.6" />
<ellipse cx="102.23879345347909" cy="60.24094558660013" rx="3.4271200857901656" ry="2.8454173238415295" fill="#FFFFFF" fill-opacity="0.85" />
<ellipse cx="122.32652022795688" cy="133.51146713636973" rx="5.193318363868403" ry="4.696512540628593" fill="#FFFDF0" fill-opacity="0.6" />
<ellipse cx="121.69877332786062" cy="134.30558893484329" rx="2.9197786837295667" ry="2.5612462988856795" fill="#FFFFFF" fill-opacity="0.85" />
<ellipse cx="44.398372205343655" cy="132.2893230610727" rx="9.803833698885136" ry="6.0466781731145725" fill="#FFFDF0" fill-opacity="0.6" />
<ellipse cx="44.70146777891669" cy="132.542292778081" rx="2.174211162881681" ry="2.505447526821631" fill="#FFFFFF" fill-opacity="0.85" />
<ellipse cx="67.61877716602623" cy="65.32257778101146" rx="9.863307570428704" ry="6.171914182161682" fill="#FFFDF0" fill-opacity="0.6" />
<ellipse cx="66.63424826575911" cy="66.09227856090149" rx="2.6282749535082397" ry="2.564723876823102" fill="#FFFFFF" fill-opacity="0.85" />
<ellipse cx="143.14122640604805" cy="73.76566006197706" rx="8.609569104637231" ry="4.452169993851564" fill="#FFFDF0" fill-opacity="0.6" />
<ellipse cx="143.63563553434793" cy="73.4742598913921" rx="2.057490352379252" ry="2.9049974070271" fill="#FFFFFF" fill-opacity="0.85" />
<ellipse cx="35.79791636990578" cy="107.7526140713709" rx="6.379611765235547" ry="4.910026544637724" fill="#FFFDF0" fill-opacity="0.6" />
<ellipse cx="35.94097910105846" cy="108.28464207865363" rx="2.9912302217290345" ry="3.2081415554577966" fill="#FFFFFF" fill-opacity="0.85" />
<ellipse cx="152.33744455597838" cy="95.03298990472342" rx="5.971716859210955" ry="4.44570796850238" fill="#FFFDF0" fill-opacity="0.6" />
<ellipse cx="152.07095349547998" cy="95.31256938256269" rx="3.818971809199024" ry="3.2617733213166114" fill="#FFFFFF" fill-opacity="0.85" />
</g>
<path d="M105.0,105.0 L105.0,5.0" stroke="lightgray" stroke-width="2" />
<path d="M105.0,105.0 L175.71067811865476,34.28932188134526" stroke="lightgray" stroke-width="2" />
<path d="M105.0,105.0 L205.0,105.0" stroke="lightgray" stroke-width="2" />
<path d="M105.0,105.0 L175.71067811865476,175.71067811865476" stroke="lightgray" stroke-width="2" />
<path d="M105.0,105.0 L105.0,205.0" stroke="lightgray" stroke-width="2" />
<path d="M105.0,105.0 L34.28932188134526,175.71067811865476" stroke="lightgray" stroke-width="2" />
<path d="M105.0,105.0 L5.0,105.00000000000001" stroke="lightgray" stroke-width="2" />
<path d="M105.0,105.0 L34.28932188134523,34.28932188134526" stroke="lightgray" stroke-width="2" />
<circle cx="105.0" cy="105.0" r="100" fill="none" stroke="lightgray" stroke-width="2" />
</g>
</svg>
<svg x="225.0" y="0.0" width="210.0" height="210.0" viewBox="0 0 210 210" xmlns="http://www.w3.org/2000/svg" xmlns:xlink="http://www.w3.org/1999/xlink">
<defs>
<clipPath id="clip-4530295088-4530525136">
<circle cx="105.0" cy="105.0" r="100" fill="none" />
</clipPath>
</defs>
<g>
<circle cx="105.0" cy="105.0" r="100" fill="#F5C754" />
<use xlink:href="#clip-4530295088-4530525136" />
<g clip-path="url(#clip-4530295088-4530525136)">
<circle cx="105.0" cy="105.0" r="92" stroke="#DAA05D" stroke-width="16" fill="none" />
<circle cx="105.0" cy="105.0" r="98" stroke="#C37B32" stroke-width="5" fill="none" />
<circle cx="119.39489111026691" cy="28.788620836031342" r="5.228797255367905" fill="#FFDE75" fill-opacity="0.35526063661984136" />
<circle cx="49.11721534273756" cy="150.42273677249085" r="4.6813425969134626" fill="#D2691E" fill-opacity="0.2258446353054153" />
<circle cx="148.96387251497174" cy="66.9539757851272" r="3.4452712773760155" fill="#FFFFFF" fill-opacity="0.4296572435347493" />
<circle cx="156.0821827167952" cy="127.02223100374268" r="3.492806305274817" fill="#8B4513" fill-opacity="0.5773879405948658" />
<circle cx="27.976459320741924" cy="124.85834862469474" r="5.893234223713991" fill="#FFDE75" fill-opacity="0.5137571120562765" />
<circle cx="25.601140251642363" cy="111.2571972121611" r="5.680031353278219" fill="#D2691E" fill-opacity="0.4975214409612054" />
<circle cx="165.86616115345984" cy="113.6399264112442" r="5.556404172948547" fill="#8B4513" fill-opacity="0.38603703548960355" />
<circle cx="66.09195229257634" cy="99.98674631312382" r="3.0021608423891726" fill="#FFFFFF" fill-opacity="0.36262909556353223" />
<circle cx="63.794449968406546" cy="106.18786326495746" r="3.086605325822314" fill="#FFDE75" fill-opacity="0.37579804402339223" />
<circle cx="45.221855179929236" cy="129.6218852298603" r="4.392061357688924" fill="#D2691E" fill-opacity="0.45452491827864416" />
<circle cx="99.33314755051106" cy="20.321912373898968" r="4.858964736728973" fill="#FFDE75" fill-opacity="0.2074695765415534" />
<circle cx="81.17394007269854" cy="55.275826255004766" r="2.2729423984797488" fill="#8B4513" fill-opacity="0.21790808982803178" />
<circle cx="131.1077705885768" cy="121.4019453195329" r="4.663261290720423" fill="#FFFFFF" fill-opacity="0.29171276985932293" />
<circle cx="128.54625682299945" cy="141.55781423840088" r="5.209557912193537" fill="#D2691E" fill-opacity="0.3687406190452386" />
<circle cx="135.211472691007" cy="97.10747887689763" r="2.554596532844857" fill="#FFDE75" fill-opacity="0.3447797019915138" />
<circle cx="64.46276985211678" cy="103.30047073303066" r="5.9111737168419864" fill="#D2691E" fill-opacity="0.21388361198099082" />
<circle cx="84.73777526782754" cy="82.42033793936214" r="2.6589402419674038" fill="#FFFFFF" fill-opacity="0.42781530780346294" />
<circle cx="105.75687214418737" cy="27.96504720253229" r="4.480774351941537" fill="#D2691E" fill-opacity="0.4811305175783623" />
<circle cx="60.71051415818261" cy="154.01229477998893" r="5.957895269989144" fill="#FFDE75" fill-opacity="0.5921045402411522" />
<circle cx="103.71500975949162" cy="138.669487198466" r="5.232433048141635" fill="#FFFFFF" fill-opacity="0.5802136077155176" />
<circle cx="128.33681752071365" cy="91.66495990085522" r="5.3819609444301" fill="#FFDE75" fill-opacity="0.29200329089562926" />
<circle cx="89.83414238719449" cy="80.74330433309741" r="4.3873160503558575" fill="#FFDE75" fill-opacity="0.5849153408000485" />
<circle cx="119.10320482831364" cy="30.458647061580606" r="2.688503894653868" fill="#D2691E" fill-opacity="0.5539830428583554" />
<circle cx="73.67657100177878" cy="121.30339423245388" r="2.6849261035834937" fill="#FFFFFF" fill-opacity="0.25013750330410145" />
<circle cx="24.11400813349985" cy="83.00485099306799" r="5.7469812661225195" fill="#8B4513" fill-opacity="0.4776859719471042" />
<circle cx="120.57046379886687" cy="132.71426441446582" r="3.352671538471326" fill="#FFFFFF" fill-opacity="0.24232803021480726" />
<circle cx="169.39249146968328" cy="108.50276038408118" r="4.299742301800991" fill="#8B4513" fill-opacity="0.5657017864024756" />
<circle cx="139.302419096031" cy="180.92425983266975" r="2.6396161876145063" fill="#8B4513" fill-opacity="0.46510183359807955" />
<circle cx="51.371810424197754" cy="80.11852797916475" r="2.1991903872583456" fill="#D2691E" fill-opacity="0.447626279717355" />
<circle cx="152.5579935067356" cy="118.33698177213721" r="2.579851140251471" fill="#FFDE75" fill-opacity="0.51392938572052" />
<circle cx="140.6267274021201" cy="140.76654799452425" r="4.015684831831596" fill="#FFFFFF" fill-opacity="0.43024519339672507" />
<circle cx="145.13969042210277" cy="109.56688354490939" r="3.5481231587592683" fill="#D2691E" fill-opacity="0.201258149192188" />
<circle cx="125.33916457867903" cy="143.7432490626825" r="3.208958832073817" fill="#8B4513" fill-opacity="0.34316626909060005" />
<circle cx="187.05759604621193" cy="93.7991275392052" r="4.246738009025446" fill="#8B4513" fill-opacity="0.453974048742994" />
<circle cx="102.26651612077816" cy="136.9113766402403" r="4.048054561215827" fill="#D2691E" fill-opacity="0.32248112349941255" />
<circle cx="110.7173579707948" cy="91.82532497137733" r="5.142239741373589" fill="#8B4513" fill-opacity="0.5915881278861624" />
<circle cx="42.60251207553081" cy="82.20096616971935" r="2.4049161442623923" fill="#FFFFFF" fill-opacity="0.40691829178157807" />
<circle cx="73.19507108930559" cy="108.34863630273769" r="4.219941623196498" fill="#FFDE75" fill-opacity="0.4143311324832061" />
<circle cx="117.02423939447431" cy="64.39280581828388" r="3.797989293432749" fill="#FFFFFF" fill-opacity="0.29526380831863097" />
<circle cx="167.08043371433422" cy="61.846032048065034" r="3.932355200440259" fill="#FFFFFF" fill-opacity="0.4041101826481177" />
<circle cx="128.06024658478717" cy="61.908567784818125" r="2.148044731107367" fill="#8B4513" fill-opacity="0.3674225387074787" />
<circle cx="70.69499827072673" cy="92.27076886428468" r="3.529626949595578" fill="#FFDE75" fill-opacity="0.3270840937003892" />
<circle cx="96.01122423639727" cy="67.85552320274263" r="5.586764028772327" fill="#D2691E" fill-opacity="0.40149765711537755" />
<circle cx="73.16611775331101" cy="125.80348028456434" r="3.1272365755903935" fill="#D2691E" fill-opacity="0.538148495648537" />
<circle cx="88.2101239151212" cy="158.07486878923714" r="4.950577674636474" fill="#FFDE75" fill-opacity="0.23827861158359853" />
<circle cx="113.82229023797687" cy="154.4450524513697" r="4.7319826508149685" fill="#D2691E" fill-opacity="0.5687088086478753" />
<circle cx="97.75348267549623" cy="53.331353673170156" r="3.532820894899571" fill="#FFDE75" fill-opacity="0.2595523764474518" />
<circle cx="114.39997197782425" cy="183.12536447656998" r="5.922695903319595" fill="#8B4513" fill-opacity="0.5511925433283418" />
<circle cx="180.5662899966688" cy="126.82897606614137" r="3.2643048072213903" fill="#8B4513" fill-opacity="0.22451682874960835" />
<circle cx="83.93427984632218" cy="126.23928930571823" r="3.4455638713186736" fill="#8B4513" fill-opacity="0.23568415054837133" />
<circle cx="144.50781819869343" cy="160.34401524639938" r="2.400490902636145" fill="#FFDE75" fill-opacity="0.31510661851938787" />
<circle cx="100.5277217217158" cy="168.48606533793117" r="2.7218752366711016" fill="#FFDE75" fill-opacity="0.2876200702360344" />
<circle cx="153.18135066488367" cy="91.42123956178891" r="3.4601423369710256" fill="#FFDE75" fill-opacity="0.27402776994355793" />
<circle cx="29.559962782283378" cy="81.18197372871823" r="4.736745234698188" fill="#D2691E" fill-opacity="0.547055052736003" />
<circle cx="49.00084906323902" cy="89.14434187732827" r="2.369205665694804" fill="#FFFFFF" fill-opacity="0.26802560879334136" />
<circle cx="94.81478483732407" cy="86.10404644291052" r="4.157602078268941" fill="#D2691E" fill-opacity="0.49493187498072405" />
<circle cx="47.04788239698462" cy="134.3753007430714" r="3.292783195488892" fill="#8B4513" fill-opacity="0.29766763660049816" />
<circle cx="90.25356597789123" cy="80.86091586089795" r="3.8887344916356668" fill="#FFDE75" fill-opacity="0.26814757889017593" />
<circle cx="101.71696838897583" cy="188.26683974162088" r="5.517624136015112" fill="#FFDE75" fill-opacity="0.29030810203631796" />
<circle cx="42.300526133427184" cy="95.62530820003771" r="3.9623523431511383" fill="#FFDE75" fill-opacity="0.40141774676744013" />
<circle cx="133.290940553935" cy="154.53070739909546" r="4.86961068066895" fill="#FFDE75" fill-opacity="0.5317058520728146" />
<circle cx="53.89349445565349" cy="155.2031806492723" r="4.505317968123238" fill="#FFDE75" fill-opacity="0.24858147920617435" />
<circle cx="85.1002025578288" cy="88.0205485983533" r="3.1639538002730254" fill="#D2691E" fill-opacity="0.5172918990673223" />
<circle cx="174.85623084447496" cy="89.48309601639812" r="4.227811910671804" fill="#FFDE75" fill-opacity="0.5208205362344336" />
<circle cx="88.25066016599303" cy="134.380077726763" r="4.639120765161294" fill="#D2691E" fill-opacity="0.21577083093693547" />
<circle cx="142.936017006301" cy="74.55478716650444" r="2.3253522445296566" fill="#8B4513" fill-opacity="0.49318549822750635" />
<circle cx="58.023734578507295" cy="168.12848282612043" r="3.2730505976126385" fill="#D2691E" fill-opacity="0.5603570381320917" />
<circle cx="101.4034260431075" cy="85.97534841947304" r="4.147633403443523" fill="#FFDE75" fill-opacity="0.4926059632164284" />
<circle cx="21.358968824408763" cy="101.41587399154703" r="2.640964578725832" fill="#D2691E" fill-opacity="0.4723890739351002" />
<circle cx="169.2820624788083" cy="89.06449690155823" r="3.6106324610538163" fill="#FFDE75" fill-opacity="0.22658928445810292" />
<circle cx="98.47474926085667" cy="53.341429785342505" r="5.861140841630428" fill="#FFFFFF" fill-opacity="0.4571564018474657" />
<circle cx="173.09808970339972" cy="116.86769588165026" r="5.285829350703962" fill="#D2691E" fill-opacity="0.4608727373668274" />
<circle cx="70.25277893019071" cy="85.68358386551346" r="4.90296879420953" fill="#D2691E" fill-opacity="0.5940692469453908" />
<circle cx="158.32923626194378" cy="76.69189816050068" r="2.632828534355694" fill="#FFFFFF" fill-opacity="0.21412738326856867" />
<circle cx="154.33646688437415" cy="93.8665935337552" r="3.615886443226804" fill="#D2691E" fill-opacity="0.258679507869754" />
<circle cx="126.2070440777371" cy="104.0471108112427" r="2.261197909227223" fill="#8B4513" fill-opacity="0.3041370337191869" />
<circle cx="168.6934993422529" cy="89.30734542709668" r="3.02555812804393" fill="#FFFFFF" fill-opacity="0.2510466681599793" />
<circle cx="29.914658139757663" cy="128.9816311919307" r="3.3772855019388333" fill="#D2691E" fill-opacity="0.5424101757168382" />
<circle cx="99.88786905792546" cy="68.00846581833653" r="3.23399377428305" fill="#FFFFFF" fill-opacity="0.38865058993967583" />
<circle cx="100.60839876320625" cy="163.99481070617168" r="5.243211713434894" fill="#FFDE75" fill-opacity="0.23555483221695256" />
<circle cx="165.1789406513431" cy="155.7216330313911" r="5.174383647125159" fill="#FFFFFF" fill-opacity="0.3430296588469164" />
<circle cx="45.686568306952125" cy="105.85160562700713" r="4.3263231570122125" fill="#FFFFFF" fill-opacity="0.5423877575146074" />
<circle cx="65.95796026474974" cy="62.386165543916796" r="2.0186843246580506" fill="#8B4513" fill-opacity="0.5953882774110677" />
<circle cx="58.3892147686029" cy="147.23477838654276" r="3.596987410278308" fill="#D2691E" fill-opacity="0.5207650088108958" />
<circle cx="103.74707972490859" cy="163.1197657442357" r="3.862060816524902" fill="#8B4513" fill-opacity="0.38472339007812695" />
<circle cx="158.32867370078804" cy="83.96111061214486" r="5.825627985542973" fill="#FFDE75" fill-opacity="0.36335423937826344" />
<circle cx="93.71445608641885" cy="48.78651421153067" r="5.355918932741277" fill="#8B4513" fill-opacity="0.561298720236752" />
<circle cx="112.20647390915492" cy="147.56357201445348" r="4.392087808071416" fill="#D2691E" fill-opacity="0.5905247530412177" />
<circle cx="98.20797901748944" cy="145.2904966342256" r="2.8538825735291455" fill="#8B4513" fill-opacity="0.2446246575097756" />
<circle cx="113.2303203841162" cy="154.6073420940173" r="3.499789715102593" fill="#FFFFFF" fill-opacity="0.5613484448237" />
<circle cx="98.54235455650887" cy="125.39268993289932" r="4.745405614265058" fill="#FFDE75" fill-opacity="0.4097331584323223" />
<circle cx="127.19678332136111" cy="185.81408178737826" r="4.873089827321117" fill="#FFDE75" fill-opacity="0.4578609992225033" />
<circle cx="128.93942690821208" cy="59.30484637176387" r="4.8391853659930995" fill="#FFFFFF" fill-opacity="0.5366475817604017" />
<circle cx="119.28256917374529" cy="53.18491490600213" r="3.0287240099619126" fill="#FFDE75" fill-opacity="0.5633144894827921" />
<circle cx="40.28584176502338" cy="85.10436307983458" r="5.965629552892477" fill="#FFDE75" fill-opacity="0.37709701569526055" />
<circle cx="159.44135118401283" cy="128.17330361373766" r="2.173334102349579" fill="#FFDE75" fill-opacity="0.46409225542911425" />
<circle cx="61.500513314039814" cy="99.78357805412753" r="4.703665103400736" fill="#8B4513" fill-opacity="0.2709937668215457" />
<circle cx="68.84832780800747" cy="131.568098462293" r="5.2200985361062" fill="#FFDE75" fill-opacity="0.4240218681765453" />
<circle cx="25.67075623588373" cy="93.8144652379346" r="2.7943100729094876" fill="#8B4513" fill-opacity="0.2487503032356606" />
<circle cx="77.4736341441822" cy="131.48046625984412" r="2.81815833600827" fill="#8B4513" fill-opacity="0.4933771805882648" />
<circle cx="115.90925548688932" cy="121.79997469376903" r="2.4540831405379344" fill="#8B4513" fill-opacity="0.5275004513016128" />
<circle cx="118.81266127832235" cy="172.58901607917227" r="5.2913760238325125" fill="#FFFFFF" fill-opacity="0.4375655998511605" />
<circle cx="34.24289264867623" cy="69.31907856595234" r="4.745855473529049" fill="#FFFFFF" fill-opacity="0.3669107528780404" />
<circle cx="78.07834266772966" cy="155.30728798423849" r="2.217526170330179" fill="#FFDE75" fill-opacity="0.4413752726247818" />
<circle cx="157.58506310646573" cy="129.91375101052802" r="5.879986951487464" fill="#FFDE75" fill-opacity="0.2890106632049738" />
<circle cx="140.1636450674041" cy="149.18936035709692" r="5.51443819118183" fill="#FFDE75" fill-opacity="0.22096529522357877" />
<circle cx="103.04710036726848" cy="56.4192070176757" r="4.083071932867453" fill="#FFFFFF" fill-opacity="0.3336498502344125" />
<circle cx="145.97016075713105" cy="132.01532993343025" r="3.535353905038852" fill="#FFDE75" fill-opacity="0.4227851723756402" />
<circle cx="120.0955972828519" cy="42.325307518500495" r="4.752791358466223" fill="#FFFFFF" fill-opacity="0.3643959629552715" />
<circle cx="34.658906883049994" cy="86.84687737528392" r="2.528554023403018" fill="#8B4513" fill-opacity="0.21642303536753352" />
<circle cx="63.52465908373778" cy="165.14898527912356" r="2.481890881271555" fill="#D2691E" fill-opacity="0.46789077114088595" />
<circle cx="122.61320562521075" cy="76.29178656604034" r="3.3565503580320146" fill="#FFDE75" fill-opacity="0.2531666947623922" />
<circle cx="129.37109306156628" cy="98.97963757283426" r="3.5738574477475016" fill="#FFFFFF" fill-opacity="0.49071816944109026" />
<circle cx="161.7205820513656" cy="115.88765967844947" r="4.68225172647084" fill="#D2691E" fill-opacity="0.42270233232283094" />
<circle cx="148.91194306366026" cy="118.58614712700076" r="2.3705826010312516" fill="#D2691E" fill-opacity="0.49453486347868364" />
<circle cx="129.62548890161037" cy="136.80254261262658" r="2.1398144611893293" fill="#FFFFFF" fill-opacity="0.21564938398721858" />
<circle cx="104.69799054067923" cy="77.22004859284014" r="3.4749225478517713" fill="#FFDE75" fill-opacity="0.3182340746069242" />
<circle cx="39.53468629946187" cy="107.41511264824945" r="2.836280798306958" fill="#D2691E" fill-opacity="0.3913856272201942" />
<circle cx="141.17449744264025" cy="30.316299006437646" r="5.674392275993407" fill="#D2691E" fill-opacity="0.43182514273541994" />
<circle cx="131.79619876512012" cy="116.26192455218248" r="4.339010156372558" fill="#FFDE75" fill-opacity="0.3812230266047234" />
<ellipse cx="148.7151552786336" cy="164.89243570196848" rx="9.397519104793469" ry="5.07289050018025" fill="#FFFDF0" fill-opacity="0.6" />
<ellipse cx="147.87847575264826" cy="165.35021181961417" rx="4.2064092147846806" ry="2.303600424739951" fill="#FFFFFF" fill-opacity="0.85" />
<ellipse cx="133.47730232362142" cy="165.55959356487162" rx="7.8471367558924765" ry="8.456588552501655" fill="#FFFDF0" fill-opacity="0.6" />
<ellipse cx="134.36365066437622" cy="166.03653420203398" rx="2.499502730176357" ry="3.978265955330382" fill="#FFFFFF" fill-opacity="0.85" />
<ellipse cx="121.4571791138195" cy="51.57080341506981" rx="5.867384135975744" ry="8.047580355475255" fill="#FFFDF0" fill-opacity="0.6" />
<ellipse cx="120.84103609586926" cy="50.632833153744784" rx="2.5294116935827287" ry="3.100835255792452" fill="#FFFFFF" fill-opacity="0.85" />
<ellipse cx="141.05445629237795" cy="159.33774989833108" rx="9.773950710896552" ry="6.021141207893589" fill="#FFFDF0" fill-opacity="0.6" />
<ellipse cx="141.93835903048299" cy="158.37779351005378" rx="4.819397397888292" ry="3.96605011677262" fill="#FFFFFF" fill-opacity="0.85" />
<ellipse cx="66.96228895990885" cy="90.23302005176964" rx="6.382179999632482" ry="5.298243310860242" fill="#FFFDF0" fill-opacity="0.6" />
<ellipse cx="66.40899211041445" cy="89.80596330018383" rx="3.3582614398539516" ry="3.4631077201711324" fill="#FFFFFF" fill-opacity="0.85" />
<ellipse cx="67.31410461801772" cy="150.7338889933355" rx="6.196778383609538" ry="4.91544381318289" fill="#FFFDF0" fill-opacity="0.6" />
<ellipse cx="68.11765602682642" cy="151.26685593288474" rx="2.2681072654037098" ry="2.9521813974005715" fill="#FFFFFF" fill-opacity="0.85" />
<ellipse cx="76.3808300984789" cy="100.6544696597576" rx="7.666584247168348" ry="4.265717574994697" fill="#FFFDF0" fill-opacity="0.6" />
<ellipse cx="76.05673728052949" cy="100.86335054819655" rx="3.173425732645317" ry="2.4844642372626673" fill="#FFFFFF" fill-opacity="0.85" />
<ellipse cx="154.9441799417953" cy="80.91047807775442" rx="7.449299708664283" ry="5.777041927000106" fill="#FFFDF0" fill-opacity="0.6" />
<ellipse cx="155.80189975357328" cy="80.32573752193633" rx="4.389272815312979" ry="2.742266125197775" fill="#FFFFFF" fill-opacity="0.85" />
<ellipse cx="147.51466695128045" cy="167.2402744319681" rx="5.397907255052647" ry="5.750602397780465" fill="#FFFDF0" fill-opacity="0.6" />
<ellipse cx="147.25435760997533" cy="166.4029305429801" rx="3.3802670471447995" ry="2.3815110308817813" fill="#FFFFFF" fill-opacity="0.85" />
<ellipse cx="120.33554587751928" cy="39.697254551093266" rx="6.157162102066711" ry="4.339425433575788" fill="#FFFDF0" fill-opacity="0.6" />
<ellipse cx="119.55128144278231" cy="38.88988159177799" rx="2.7751778065026755" ry="3.699928918182948" fill="#FFFFFF" fill-opacity="0.85" />
<ellipse cx="63.920702877895756" cy="122.43572239468351" rx="8.978953996230324" ry="5.721103659062834" fill="#FFFDF0" fill-opacity="0.6" />
<ellipse cx="63.22402471954749" cy="122.91706292177477" rx="4.138042384897472" ry="2.3305184586743133" fill="#FFFFFF" fill-opacity="0.85" />
<ellipse cx="99.90706272554239" cy="69.90974777485644" rx="8.229274152294941" ry="8.687012150503936" fill="#FFFDF0" fill-opacity="0.6" />
<ellipse cx="100.7420390510506" cy="69.8122456623723" rx="4.525726027895919" ry="2.8920587158291804" fill="#FFFFFF" fill-opacity="0.85" />
<ellipse cx="42.83536157948169" cy="52.23872117939518" rx="6.758185560978623" ry="6.084282972280889" fill="#FFFDF0" fill-opacity="0.6" />
<ellipse cx="43.51073817730208" cy="51.69503755355355" rx="2.6614898849358952" ry="3.9964802214130386" fill="#FFFFFF" fill-opacity="0.85" />
<ellipse cx="143.96182922316783" cy="51.348389905277145" rx="5.845132848396236" ry="7.6891797573533465" fill="#FFFDF0" fill-opacity="0.6" />
<ellipse cx="143.28677016156473" cy="51.00151375049607" rx="3.8508975239077925" ry="2.302555047945024" fill="#FFFFFF" fill-opacity="0.85" />
<ellipse cx="46.901554360050255" cy="54.42302751592404" rx="9.715091527539373" ry="8.982886424043967" fill="#FFFDF0" fill-opacity="0.6" />
<ellipse cx="46.27474106140284" cy="55.158914803400855" rx="2.3829744354807953" ry="3.510427020343898" fill="#FFFFFF" fill-opacity="0.85" />
<ellipse cx="95.78056513939488" cy="54.79701760529246" rx="8.714026542845438" ry="5.883003602860732" fill="#FFFDF0" fill-opacity="0.6" />
<ellipse cx="96.14199455989909" cy="54.09269629782847" rx="2.8775537944227665" ry="3.6882028244222433" fill="#FFFFFF" fill-opacity="0.85" />
<ellipse cx="108.65509147697784" cy="72.96788101459764" rx="8.670035282612032" ry="5.985980806027366" fill="#FFFDF0" fill-opacity="0.6" />
<ellipse cx="109.58096897719861" cy="72.09135729031715" rx="3.3219257762365384" ry="3.6766952464472684" fill="#FFFFFF" fill-opacity="0.85" />
<ellipse cx="102.80470685840251" cy="60.13635643231961" rx="8.179490839017976" ry="6.826373269225215" fill="#FFFDF0" fill-opacity="0.6" />
<ellipse cx="102.23879345347909" cy="60.24094558660013" rx="3.4271200857901656" ry="2.8454173238415295" fill="#FFFFFF" fill-opacity="0.85" />
<ellipse cx="122.32652022795688" cy="133.51146713636973" rx="5.193318363868403" ry="4.696512540628593" fill="#FFFDF0" fill-opacity="0.6" />
<ellipse cx="121.69877332786062" cy="134.30558893484329" rx="2.9197786837295667" ry="2.5612462988856795" fill="#FFFFFF" fill-opacity="0.85" />
<ellipse cx="44.398372205343655" cy="132.2893230610727" rx="9.803833698885136" ry="6.0466781731145725" fill="#FFFDF0" fill-opacity="0.6" />
<ellipse cx="44.70146777891669" cy="132.542292778081" rx="2.174211162881681" ry="2.505447526821631" fill="#FFFFFF" fill-opacity="0.85" />
<ellipse cx="67.61877716602623" cy="65.32257778101146" rx="9.863307570428704" ry="6.171914182161682" fill="#FFFDF0" fill-opacity="0.6" />
<ellipse cx="66.63424826575911" cy="66.09227856090149" rx="2.6282749535082397" ry="2.564723876823102" fill="#FFFFFF" fill-opacity="0.85" />
<ellipse cx="143.14122640604805" cy="73.76566006197706" rx="8.609569104637231" ry="4.452169993851564" fill="#FFFDF0" fill-opacity="0.6" />
<ellipse cx="143.63563553434793" cy="73.4742598913921" rx="2.057490352379252" ry="2.9049974070271" fill="#FFFFFF" fill-opacity="0.85" />
<ellipse cx="35.79791636990578" cy="107.7526140713709" rx="6.379611765235547" ry="4.910026544637724" fill="#FFFDF0" fill-opacity="0.6" />
<ellipse cx="35.94097910105846" cy="108.28464207865363" rx="2.9912302217290345" ry="3.2081415554577966" fill="#FFFFFF" fill-opacity="0.85" />
<ellipse cx="152.33744455597838" cy="95.03298990472342" rx="5.971716859210955" ry="4.44570796850238" fill="#FFFDF0" fill-opacity="0.6" />
<ellipse cx="152.07095349547998" cy="95.31256938256269" rx="3.818971809199024" ry="3.2617733213166114" fill="#FFFFFF" fill-opacity="0.85" />
</g>
<path d="M105.0,105.0 L105.0,5.0" stroke="lightgray" stroke-width="2" />
<path d="M105.0,105.0 L175.71067811865476,34.28932188134526" stroke="lightgray" stroke-width="2" />
<path d="M105.0,105.0 L205.0,105.0" stroke="lightgray" stroke-width="2" />
<path d="M105.0,105.0 L175.71067811865476,175.71067811865476" stroke="lightgray" stroke-width="2" />
<path d="M105.0,105.0 L105.0,205.0" stroke="lightgray" stroke-width="2" />
<path d="M105.0,105.0 L34.28932188134526,175.71067811865476" stroke="lightgray" stroke-width="2" />
<path d="M105.0,105.0 L5.0,105.00000000000001" stroke="lightgray" stroke-width="2" />
<path d="M105.0,105.0 L34.28932188134523,34.28932188134526" stroke="lightgray" stroke-width="2" />
<circle cx="105.0" cy="105.0" r="100" fill="none" stroke="lightgray" stroke-width="2" />
</g>
</svg>
<svg x="450.0" y="0.0" width="284.0" height="210.0" viewBox="0 0 284.0 210" xmlns="http://www.w3.org/2000/svg" xmlns:xlink="http://www.w3.org/1999/xlink">
<defs>
<clipPath id="clip-4530157424-4530531792">
<path d="M105.0,105.0 L105.0,5.0 A100,100,0,0,1,175.71067811865476,34.28932188134526 Z" fill="none" />
</clipPath>
<clipPath id="clip-4530157424-4530523216">
<path d="M105.0,105.0 L175.71067811865476,34.28932188134526 A100,100,0,0,1,205.0,105.0 Z" fill="none" />
</clipPath>
<clipPath id="clip-4530157424-4530597712">
<path d="M105.0,105.0 L205.0,105.0 A100,100,0,0,1,175.71067811865476,175.71067811865476 Z" fill="none" />
</clipPath>
<clipPath id="clip-4530157424-4530865744">
<path d="M105.0,105.0 L175.71067811865476,175.71067811865476 A100,100,0,0,1,105.0,205.0 Z" fill="none" />
</clipPath>
</defs>
<g>
<path d="M105.0,105.0 L105.0,5.0 A100,100,0,0,1,175.71067811865476,34.28932188134526 Z" fill="none" stroke="lightgray" stroke-width="2" />
<path d="M105.0,105.0 L175.71067811865476,34.28932188134526 A100,100,0,0,1,205.0,105.0 Z" fill="none" stroke="lightgray" stroke-width="2" />
<path d="M105.0,105.0 L205.0,105.0 A100,100,0,0,1,175.71067811865476,175.71067811865476 Z" fill="none" stroke="lightgray" stroke-width="2" />
<path d="M105.0,105.0 L175.71067811865476,175.71067811865476 A100,100,0,0,1,105.0,205.0 Z" fill="none" stroke="lightgray" stroke-width="2" />
<path d="M105.0,105.0 L105.0,205.0 A100,100,0,0,1,34.28932188134526,175.71067811865476 Z" fill="none" stroke="lightgray" stroke-width="2" />
<path d="M105.0,105.0 L34.28932188134526,175.71067811865476 A100,100,0,0,1,5.0,105.00000000000001 Z" fill="none" stroke="lightgray" stroke-width="2" />
<path d="M105.0,105.0 L5.0,105.00000000000001 A100,100,0,0,1,34.28932188134523,34.28932188134526 Z" fill="none" stroke="lightgray" stroke-width="2" />
<path d="M105.0,105.0 L34.28932188134523,34.28932188134526 A100,100,0,0,1,104.99999999999999,5.0 Z" fill="none" stroke="lightgray" stroke-width="2" />
<path d="M105.0,105.0 L105.0,5.0 A100,100,0,0,1,175.71067811865476,34.28932188134526 Z" fill="#F5C754" stroke="lightgray" stroke-width="2" />
<use xlink:href="#clip-4530157424-4530531792" />
<g clip-path="url(#clip-4530157424-4530531792)">
<circle cx="105.0" cy="105.0" r="92" stroke="#DAA05D" stroke-width="16" fill="none" />
<circle cx="105.0" cy="105.0" r="98" stroke="#C37B32" stroke-width="5" fill="none" />
<circle cx="128.67354629838778" cy="145.22378336008086" r="4.404893017954547" fill="#FFFFFF" fill-opacity="0.41165471361070205" />
<circle cx="45.60149420613335" cy="74.13959292930214" r="4.522692115550163" fill="#D2691E" fill-opacity="0.20872216135918872" />
<circle cx="54.087105445300914" cy="69.14362494947474" r="3.227943740775158" fill="#D2691E" fill-opacity="0.2170332062878031" />
<circle cx="115.18265793939608" cy="45.80882593214415" r="2.9417209398806405" fill="#D2691E" fill-opacity="0.4498253901294541" />
<circle cx="45.27235173227261" cy="112.00492586821257" r="4.642024550720059" fill="#8B4513" fill-opacity="0.4340764935591352" />
<circle cx="164.2522713275353" cy="53.737226531623485" r="5.736323594733203" fill="#FFFFFF" fill-opacity="0.31075558699444755" />
<circle cx="100.33464670032771" cy="118.93395960209035" r="2.9782052514479735" fill="#FFDE75" fill-opacity="0.2181754914850374" />
<circle cx="39.8048999098539" cy="138.72729286227184" r="2.8978718545859907" fill="#FFDE75" fill-opacity="0.34671031848122474" />
<circle cx="109.52278209202196" cy="117.07412084303769" r="5.182143457210378" fill="#D2691E" fill-opacity="0.38795629915672936" />
<circle cx="165.7210175507769" cy="148.50270838969848" r="4.471546465419567" fill="#FFDE75" fill-opacity="0.5982433073679955" />
<circle cx="155.68977344622408" cy="42.526560885026306" r="5.5601947165395735" fill="#D2691E" fill-opacity="0.2966095151013287" />
<circle cx="83.55975514671601" cy="118.02708999646161" r="2.425030392605805" fill="#FFFFFF" fill-opacity="0.23778814486976385" />
<circle cx="73.4819382619256" cy="54.00734678094245" r="5.625919965191694" fill="#D2691E" fill-opacity="0.3827709126366924" />
<circle cx="164.2450985507668" cy="73.3745620005923" r="4.65453113345705" fill="#8B4513" fill-opacity="0.4710118905893699" />
<circle cx="132.20979045712232" cy="117.0599259512814" r="3.5676790437226247" fill="#FFFFFF" fill-opacity="0.24393327910119186" />
<circle cx="81.60378962874074" cy="100.56964925475451" r="2.5560605789118407" fill="#D2691E" fill-opacity="0.2380479917478752" />
<circle cx="85.86245277543036" cy="87.74049206849378" r="3.9256312745242004" fill="#8B4513" fill-opacity="0.5560166864265219" />
<circle cx="135.99061660995952" cy="38.403835430529995" r="5.706036886690582" fill="#FFFFFF" fill-opacity="0.36308723559135925" />
<circle cx="99.57794556446531" cy="128.21416825713072" r="5.933990060477871" fill="#FFFFFF" fill-opacity="0.46016120900120955" />
<circle cx="101.25642560583319" cy="111.02520951360167" r="5.797748213061453" fill="#FFFFFF" fill-opacity="0.5963305425025527" />
<circle cx="106.03301735652144" cy="95.13999496656726" r="2.375470762669245" fill="#D2691E" fill-opacity="0.22452322769058808" />
<circle cx="118.30720638610231" cy="24.899087575848426" r="3.1385686242891953" fill="#FFFFFF" fill-opacity="0.3816622517825483" />
<circle cx="123.85197888189958" cy="124.06239015368755" r="5.601980959525653" fill="#FFDE75" fill-opacity="0.29550016305909077" />
<circle cx="79.63344629694488" cy="170.37461411984052" r="5.952326599454096" fill="#8B4513" fill-opacity="0.38455569431023784" />
<circle cx="165.35764914910297" cy="62.39803745364093" r="4.43564037634845" fill="#FFFFFF" fill-opacity="0.5463234016921934" />
<circle cx="161.97243824204497" cy="62.84874150713304" r="5.275052747203983" fill="#D2691E" fill-opacity="0.29192642219202447" />
<circle cx="69.78777384626495" cy="175.8908525836277" r="2.302945128311353" fill="#FFDE75" fill-opacity="0.20129640742291338" />
<circle cx="141.6781331007898" cy="77.92587382929912" r="4.391528493177116" fill="#FFFFFF" fill-opacity="0.22330530499013054" />
<circle cx="173.7484548286412" cy="70.11495916666973" r="4.610334122715837" fill="#D2691E" fill-opacity="0.4759559182560177" />
<circle cx="47.15504387555726" cy="114.15038526669304" r="5.718326536061942" fill="#8B4513" fill-opacity="0.5742750587166163" />
<circle cx="167.5895628164429" cy="91.84127964777153" r="5.49548059459777" fill="#8B4513" fill-opacity="0.41551314441877896" />
<circle cx="101.61835353032168" cy="56.80848329582109" r="3.1881470254146116" fill="#FFFFFF" fill-opacity="0.37253831035541557" />
<circle cx="125.78129591085731" cy="31.58920577380026" r="3.383772337140624" fill="#8B4513" fill-opacity="0.32774617401698475" />
<circle cx="69.82221663128556" cy="120.32767091805661" r="3.3303509204364614" fill="#8B4513" fill-opacity="0.30477179067595744" />
<circle cx="149.0505640343079" cy="107.37443159592618" r="5.6706837037146824" fill="#FFFFFF" fill-opacity="0.37563128873000695" />
<circle cx="60.10127443208541" cy="103.55016470062506" r="2.796630095716369" fill="#D2691E" fill-opacity="0.46295976538567435" />
<circle cx="99.439393227718" cy="89.92336557972452" r="5.001908331081502" fill="#D2691E" fill-opacity="0.5832538137323113" />
<circle cx="120.25575700102775" cy="23.155710809532493" r="5.36773851475558" fill="#FFDE75" fill-opacity="0.3745375233266157" />
<circle cx="137.23579202598307" cy="154.71135725497197" r="2.862659096511533" fill="#8B4513" fill-opacity="0.2944830624176433" />
<circle cx="116.34320929133901" cy="104.99926916977603" r="2.260420544171349" fill="#FFFFFF" fill-opacity="0.3103218439879897" />
<circle cx="71.41177691035935" cy="66.04184271143808" r="3.5473211837031142" fill="#8B4513" fill-opacity="0.47467813471177156" />
<circle cx="146.24312819464595" cy="129.91318810437915" r="3.652928831928655" fill="#D2691E" fill-opacity="0.3016012563696094" />
<circle cx="124.60899747224552" cy="113.9665857061769" r="5.474258331706714" fill="#D2691E" fill-opacity="0.3105471484059383" />
<circle cx="65.25912828876855" cy="80.3267192547773" r="2.044364928211505" fill="#D2691E" fill-opacity="0.2831534728763524" />
<circle cx="63.99291626863782" cy="88.77020685634002" r="2.161863404224477" fill="#8B4513" fill-opacity="0.20967091557295203" />
<circle cx="181.3511902177866" cy="82.69463494741103" r="5.26331793413552" fill="#D2691E" fill-opacity="0.25941323390330157" />
<circle cx="56.592791674188746" cy="37.86774989636126" r="4.2920226490238536" fill="#8B4513" fill-opacity="0.5839490959621005" />
<circle cx="109.27098596592008" cy="127.70100152836417" r="4.634588072567226" fill="#FFDE75" fill-opacity="0.23915542225170439" />
<circle cx="70.0014026651815" cy="73.16022098763543" r="4.658618166294583" fill="#8B4513" fill-opacity="0.40948428610880994" />
<circle cx="98.2027085717466" cy="171.62521951769594" r="5.418835976613606" fill="#FFDE75" fill-opacity="0.3584577721815428" />
<circle cx="182.51202312868497" cy="103.58249074908116" r="3.1066625399270302" fill="#FFFFFF" fill-opacity="0.38112915072954956" />
<circle cx="157.55086633777964" cy="46.772810193608834" r="5.379523778286424" fill="#8B4513" fill-opacity="0.5191528305671411" />
<circle cx="180.30893168312167" cy="72.71554554901797" r="2.2201787191619373" fill="#FFFFFF" fill-opacity="0.467086317171384" />
<circle cx="152.63938241513495" cy="117.29651451605034" r="5.517585161354543" fill="#FFDE75" fill-opacity="0.2824260405792919" />
<circle cx="150.952087701028" cy="117.87359085728467" r="5.735586556454123" fill="#FFDE75" fill-opacity="0.5773976056624197" />
<circle cx="152.72203479641576" cy="71.78431693398824" r="2.346765340293897" fill="#8B4513" fill-opacity="0.2837124402672078" />
<circle cx="97.34762840360625" cy="164.9118581447911" r="2.3592178057121527" fill="#D2691E" fill-opacity="0.37220789768754975" />
<circle cx="102.16090077610835" cy="34.54343004025091" r="3.13755370698862" fill="#D2691E" fill-opacity="0.3037722372524876" />
<circle cx="163.22533504668536" cy="66.4284746472134" r="3.6601450638073536" fill="#D2691E" fill-opacity="0.4462568146253799" />
<circle cx="170.93842935045163" cy="131.6855542386345" r="5.075728354908912" fill="#FFDE75" fill-opacity="0.5448368224975249" />
<ellipse cx="159.039097338955" cy="95.70224889326929" rx="9.181460208392105" ry="7.380773312308274" fill="#FFFDF0" fill-opacity="0.6" />
<ellipse cx="159.44135618674767" cy="95.47171063405939" rx="4.308274434694738" ry="3.331063473384842" fill="#FFFFFF" fill-opacity="0.85" />
<ellipse cx="56.63437364649429" cy="82.77783574582051" rx="7.048368503163269" ry="8.65605976555068" fill="#FFFDF0" fill-opacity="0.6" />
<ellipse cx="56.0182933923081" cy="82.96855736693124" rx="3.6624638721399934" ry="3.91243966554355" fill="#FFFFFF" fill-opacity="0.85" />
<ellipse cx="50.87553898929408" cy="61.386917526541225" rx="6.05040210933757" ry="5.8957335587282484" fill="#FFFDF0" fill-opacity="0.6" />
<ellipse cx="50.820840870543876" cy="61.94292673208253" rx="4.764630601122108" ry="3.512506086677436" fill="#FFFFFF" fill-opacity="0.85" />
<ellipse cx="81.61851592377383" cy="168.17149833226787" rx="6.879016379310652" ry="7.265984342194379" fill="#FFFDF0" fill-opacity="0.6" />
<ellipse cx="81.25547217637504" cy="167.59167129064895" rx="2.0307179726024387" ry="2.7121962414836274" fill="#FFFFFF" fill-opacity="0.85" />
<ellipse cx="43.979109506672295" cy="58.773326576863255" rx="9.757184335455776" ry="5.730004997653362" fill="#FFFDF0" fill-opacity="0.6" />
<ellipse cx="43.66617433203385" cy="59.18472495328275" rx="4.153685587783502" ry="2.2596326656758148" fill="#FFFFFF" fill-opacity="0.85" />
<ellipse cx="181.08094430754778" cy="114.48020794650485" rx="5.248251272600457" ry="7.700095558598639" fill="#FFFDF0" fill-opacity="0.6" />
<ellipse cx="181.43920345180413" cy="114.98462476104264" rx="2.5330079254751428" ry="3.674267855018334" fill="#FFFFFF" fill-opacity="0.85" />
<ellipse cx="110.10081000141268" cy="183.99769599902842" rx="6.5431045420935074" ry="8.232490645811374" fill="#FFFDF0" fill-opacity="0.6" />
<ellipse cx="110.35678829567881" cy="184.57462823165773" rx="3.958036957796925" ry="3.922101493004547" fill="#FFFFFF" fill-opacity="0.85" />
<ellipse cx="34.92905674106258" cy="94.61321875570978" rx="7.411996621387592" ry="5.640486244161712" fill="#FFFDF0" fill-opacity="0.6" />
<ellipse cx="34.944839565653005" cy="94.94946882691427" rx="4.422287747606586" ry="2.1813991851653376" fill="#FFFFFF" fill-opacity="0.85" />
<ellipse cx="152.30331415659552" cy="77.0170097486434" rx="9.540753333984606" ry="6.492139682767356" fill="#FFFDF0" fill-opacity="0.6" />
<ellipse cx="152.46070217536538" cy="76.77703417755275" rx="3.1519279259371937" ry="2.6945330639360137" fill="#FFFFFF" fill-opacity="0.85" />
<ellipse cx="122.71129905809185" cy="145.28134846832543" rx="7.94483050908853" ry="4.649588817639779" fill="#FFFDF0" fill-opacity="0.6" />
<ellipse cx="122.78533389546267" cy="144.30340245531477" rx="3.1344859823358475" ry="2.678854461295117" fill="#FFFFFF" fill-opacity="0.85" />
<ellipse cx="53.94648546859445" cy="111.24654452475545" rx="5.278502596947993" ry="4.2910620528544445" fill="#FFFDF0" fill-opacity="0.6" />
<ellipse cx="54.46517257903745" cy="110.60307280488975" rx="4.3629679896199836" ry="2.422563965713258" fill="#FFFFFF" fill-opacity="0.85" />
<ellipse cx="60.034339157393084" cy="75.51301769181809" rx="7.675261597224451" ry="6.174282714184717" fill="#FFFDF0" fill-opacity="0.6" />
<ellipse cx="60.74133026751882" cy="75.2100077922092" rx="4.512146017450605" ry="3.8205910878221396" fill="#FFFFFF" fill-opacity="0.85" />
</g>
<path d="M105.0,105.0 L175.71067811865476,34.28932188134526 A100,100,0,0,1,205.0,105.0 Z" fill="#F5C754" stroke="lightgray" stroke-width="2" />
<use xlink:href="#clip-4530157424-4530523216" />
<g clip-path="url(#clip-4530157424-4530523216)">
<circle cx="105.0" cy="105.0" r="92" stroke="#DAA05D" stroke-width="16" fill="none" />
<circle cx="105.0" cy="105.0" r="98" stroke="#C37B32" stroke-width="5" fill="none" />
<circle cx="128.67354629838778" cy="145.22378336008086" r="4.404893017954547" fill="#FFFFFF" fill-opacity="0.41165471361070205" />
<circle cx="45.60149420613335" cy="74.13959292930214" r="4.522692115550163" fill="#D2691E" fill-opacity="0.20872216135918872" />
<circle cx="54.087105445300914" cy="69.14362494947474" r="3.227943740775158" fill="#D2691E" fill-opacity="0.2170332062878031" />
<circle cx="115.18265793939608" cy="45.80882593214415" r="2.9417209398806405" fill="#D2691E" fill-opacity="0.4498253901294541" />
<circle cx="45.27235173227261" cy="112.00492586821257" r="4.642024550720059" fill="#8B4513" fill-opacity="0.4340764935591352" />
<circle cx="164.2522713275353" cy="53.737226531623485" r="5.736323594733203" fill="#FFFFFF" fill-opacity="0.31075558699444755" />
<circle cx="100.33464670032771" cy="118.93395960209035" r="2.9782052514479735" fill="#FFDE75" fill-opacity="0.2181754914850374" />
<circle cx="39.8048999098539" cy="138.72729286227184" r="2.8978718545859907" fill="#FFDE75" fill-opacity="0.34671031848122474" />
<circle cx="109.52278209202196" cy="117.07412084303769" r="5.182143457210378" fill="#D2691E" fill-opacity="0.38795629915672936" />
<circle cx="165.7210175507769" cy="148.50270838969848" r="4.471546465419567" fill="#FFDE75" fill-opacity="0.5982433073679955" />
<circle cx="155.68977344622408" cy="42.526560885026306" r="5.5601947165395735" fill="#D2691E" fill-opacity="0.2966095151013287" />
<circle cx="83.55975514671601" cy="118.02708999646161" r="2.425030392605805" fill="#FFFFFF" fill-opacity="0.23778814486976385" />
<circle cx="73.4819382619256" cy="54.00734678094245" r="5.625919965191694" fill="#D2691E" fill-opacity="0.3827709126366924" />
<circle cx="164.2450985507668" cy="73.3745620005923" r="4.65453113345705" fill="#8B4513" fill-opacity="0.4710118905893699" />
<circle cx="132.20979045712232" cy="117.0599259512814" r="3.5676790437226247" fill="#FFFFFF" fill-opacity="0.24393327910119186" />
<circle cx="81.60378962874074" cy="100.56964925475451" r="2.5560605789118407" fill="#D2691E" fill-opacity="0.2380479917478752" />
<circle cx="85.86245277543036" cy="87.74049206849378" r="3.9256312745242004" fill="#8B4513" fill-opacity="0.5560166864265219" />
<circle cx="135.99061660995952" cy="38.403835430529995" r="5.706036886690582" fill="#FFFFFF" fill-opacity="0.36308723559135925" />
<circle cx="99.57794556446531" cy="128.21416825713072" r="5.933990060477871" fill="#FFFFFF" fill-opacity="0.46016120900120955" />
<circle cx="101.25642560583319" cy="111.02520951360167" r="5.797748213061453" fill="#FFFFFF" fill-opacity="0.5963305425025527" />
<circle cx="106.03301735652144" cy="95.13999496656726" r="2.375470762669245" fill="#D2691E" fill-opacity="0.22452322769058808" />
<circle cx="118.30720638610231" cy="24.899087575848426" r="3.1385686242891953" fill="#FFFFFF" fill-opacity="0.3816622517825483" />
<circle cx="123.85197888189958" cy="124.06239015368755" r="5.601980959525653" fill="#FFDE75" fill-opacity="0.29550016305909077" />
<circle cx="79.63344629694488" cy="170.37461411984052" r="5.952326599454096" fill="#8B4513" fill-opacity="0.38455569431023784" />
<circle cx="165.35764914910297" cy="62.39803745364093" r="4.43564037634845" fill="#FFFFFF" fill-opacity="0.5463234016921934" />
<circle cx="161.97243824204497" cy="62.84874150713304" r="5.275052747203983" fill="#D2691E" fill-opacity="0.29192642219202447" />
<circle cx="69.78777384626495" cy="175.8908525836277" r="2.302945128311353" fill="#FFDE75" fill-opacity="0.20129640742291338" />
<circle cx="141.6781331007898" cy="77.92587382929912" r="4.391528493177116" fill="#FFFFFF" fill-opacity="0.22330530499013054" />
<circle cx="173.7484548286412" cy="70.11495916666973" r="4.610334122715837" fill="#D2691E" fill-opacity="0.4759559182560177" />
<circle cx="47.15504387555726" cy="114.15038526669304" r="5.718326536061942" fill="#8B4513" fill-opacity="0.5742750587166163" />
<circle cx="167.5895628164429" cy="91.84127964777153" r="5.49548059459777" fill="#8B4513" fill-opacity="0.41551314441877896" />
<circle cx="101.61835353032168" cy="56.80848329582109" r="3.1881470254146116" fill="#FFFFFF" fill-opacity="0.37253831035541557" />
<circle cx="125.78129591085731" cy="31.58920577380026" r="3.383772337140624" fill="#8B4513" fill-opacity="0.32774617401698475" />
<circle cx="69.82221663128556" cy="120.32767091805661" r="3.3303509204364614" fill="#8B4513" fill-opacity="0.30477179067595744" />
<circle cx="149.0505640343079" cy="107.37443159592618" r="5.6706837037146824" fill="#FFFFFF" fill-opacity="0.37563128873000695" />
<circle cx="60.10127443208541" cy="103.55016470062506" r="2.796630095716369" fill="#D2691E" fill-opacity="0.46295976538567435" />
<circle cx="99.439393227718" cy="89.92336557972452" r="5.001908331081502" fill="#D2691E" fill-opacity="0.5832538137323113" />
<circle cx="120.25575700102775" cy="23.155710809532493" r="5.36773851475558" fill="#FFDE75" fill-opacity="0.3745375233266157" />
<circle cx="137.23579202598307" cy="154.71135725497197" r="2.862659096511533" fill="#8B4513" fill-opacity="0.2944830624176433" />
<circle cx="116.34320929133901" cy="104.99926916977603" r="2.260420544171349" fill="#FFFFFF" fill-opacity="0.3103218439879897" />
<circle cx="71.41177691035935" cy="66.04184271143808" r="3.5473211837031142" fill="#8B4513" fill-opacity="0.47467813471177156" />
<circle cx="146.24312819464595" cy="129.91318810437915" r="3.652928831928655" fill="#D2691E" fill-opacity="0.3016012563696094" />
<circle cx="124.60899747224552" cy="113.9665857061769" r="5.474258331706714" fill="#D2691E" fill-opacity="0.3105471484059383" />
<circle cx="65.25912828876855" cy="80.3267192547773" r="2.044364928211505" fill="#D2691E" fill-opacity="0.2831534728763524" />
<circle cx="63.99291626863782" cy="88.77020685634002" r="2.161863404224477" fill="#8B4513" fill-opacity="0.20967091557295203" />
<circle cx="181.3511902177866" cy="82.69463494741103" r="5.26331793413552" fill="#D2691E" fill-opacity="0.25941323390330157" />
<circle cx="56.592791674188746" cy="37.86774989636126" r="4.2920226490238536" fill="#8B4513" fill-opacity="0.5839490959621005" />
<circle cx="109.27098596592008" cy="127.70100152836417" r="4.634588072567226" fill="#FFDE75" fill-opacity="0.23915542225170439" />
<circle cx="70.0014026651815" cy="73.16022098763543" r="4.658618166294583" fill="#8B4513" fill-opacity="0.40948428610880994" />
<circle cx="98.2027085717466" cy="171.62521951769594" r="5.418835976613606" fill="#FFDE75" fill-opacity="0.3584577721815428" />
<circle cx="182.51202312868497" cy="103.58249074908116" r="3.1066625399270302" fill="#FFFFFF" fill-opacity="0.38112915072954956" />
<circle cx="157.55086633777964" cy="46.772810193608834" r="5.379523778286424" fill="#8B4513" fill-opacity="0.5191528305671411" />
<circle cx="180.30893168312167" cy="72.71554554901797" r="2.2201787191619373" fill="#FFFFFF" fill-opacity="0.467086317171384" />
<circle cx="152.63938241513495" cy="117.29651451605034" r="5.517585161354543" fill="#FFDE75" fill-opacity="0.2824260405792919" />
<circle cx="150.952087701028" cy="117.87359085728467" r="5.735586556454123" fill="#FFDE75" fill-opacity="0.5773976056624197" />
<circle cx="152.72203479641576" cy="71.78431693398824" r="2.346765340293897" fill="#8B4513" fill-opacity="0.2837124402672078" />
<circle cx="97.34762840360625" cy="164.9118581447911" r="2.3592178057121527" fill="#D2691E" fill-opacity="0.37220789768754975" />
<circle cx="102.16090077610835" cy="34.54343004025091" r="3.13755370698862" fill="#D2691E" fill-opacity="0.3037722372524876" />
<circle cx="163.22533504668536" cy="66.4284746472134" r="3.6601450638073536" fill="#D2691E" fill-opacity="0.4462568146253799" />
<circle cx="170.93842935045163" cy="131.6855542386345" r="5.075728354908912" fill="#FFDE75" fill-opacity="0.5448368224975249" />
<ellipse cx="159.039097338955" cy="95.70224889326929" rx="9.181460208392105" ry="7.380773312308274" fill="#FFFDF0" fill-opacity="0.6" />
<ellipse cx="159.44135618674767" cy="95.47171063405939" rx="4.308274434694738" ry="3.331063473384842" fill="#FFFFFF" fill-opacity="0.85" />
<ellipse cx="56.63437364649429" cy="82.77783574582051" rx="7.048368503163269" ry="8.65605976555068" fill="#FFFDF0" fill-opacity="0.6" />
<ellipse cx="56.0182933923081" cy="82.96855736693124" rx="3.6624638721399934" ry="3.91243966554355" fill="#FFFFFF" fill-opacity="0.85" />
<ellipse cx="50.87553898929408" cy="61.386917526541225" rx="6.05040210933757" ry="5.8957335587282484" fill="#FFFDF0" fill-opacity="0.6" />
<ellipse cx="50.820840870543876" cy="61.94292673208253" rx="4.764630601122108" ry="3.512506086677436" fill="#FFFFFF" fill-opacity="0.85" />
<ellipse cx="81.61851592377383" cy="168.17149833226787" rx="6.879016379310652" ry="7.265984342194379" fill="#FFFDF0" fill-opacity="0.6" />
<ellipse cx="81.25547217637504" cy="167.59167129064895" rx="2.0307179726024387" ry="2.7121962414836274" fill="#FFFFFF" fill-opacity="0.85" />
<ellipse cx="43.979109506672295" cy="58.773326576863255" rx="9.757184335455776" ry="5.730004997653362" fill="#FFFDF0" fill-opacity="0.6" />
<ellipse cx="43.66617433203385" cy="59.18472495328275" rx="4.153685587783502" ry="2.2596326656758148" fill="#FFFFFF" fill-opacity="0.85" />
<ellipse cx="181.08094430754778" cy="114.48020794650485" rx="5.248251272600457" ry="7.700095558598639" fill="#FFFDF0" fill-opacity="0.6" />
<ellipse cx="181.43920345180413" cy="114.98462476104264" rx="2.5330079254751428" ry="3.674267855018334" fill="#FFFFFF" fill-opacity="0.85" />
<ellipse cx="110.10081000141268" cy="183.99769599902842" rx="6.5431045420935074" ry="8.232490645811374" fill="#FFFDF0" fill-opacity="0.6" />
<ellipse cx="110.35678829567881" cy="184.57462823165773" rx="3.958036957796925" ry="3.922101493004547" fill="#FFFFFF" fill-opacity="0.85" />
<ellipse cx="34.92905674106258" cy="94.61321875570978" rx="7.411996621387592" ry="5.640486244161712" fill="#FFFDF0" fill-opacity="0.6" />
<ellipse cx="34.944839565653005" cy="94.94946882691427" rx="4.422287747606586" ry="2.1813991851653376" fill="#FFFFFF" fill-opacity="0.85" />
<ellipse cx="152.30331415659552" cy="77.0170097486434" rx="9.540753333984606" ry="6.492139682767356" fill="#FFFDF0" fill-opacity="0.6" />
<ellipse cx="152.46070217536538" cy="76.77703417755275" rx="3.1519279259371937" ry="2.6945330639360137" fill="#FFFFFF" fill-opacity="0.85" />
<ellipse cx="122.71129905809185" cy="145.28134846832543" rx="7.94483050908853" ry="4.649588817639779" fill="#FFFDF0" fill-opacity="0.6" />
<ellipse cx="122.78533389546267" cy="144.30340245531477" rx="3.1344859823358475" ry="2.678854461295117" fill="#FFFFFF" fill-opacity="0.85" />
<ellipse cx="53.94648546859445" cy="111.24654452475545" rx="5.278502596947993" ry="4.2910620528544445" fill="#FFFDF0" fill-opacity="0.6" />
<ellipse cx="54.46517257903745" cy="110.60307280488975" rx="4.3629679896199836" ry="2.422563965713258" fill="#FFFFFF" fill-opacity="0.85" />
<ellipse cx="60.034339157393084" cy="75.51301769181809" rx="7.675261597224451" ry="6.174282714184717" fill="#FFFDF0" fill-opacity="0.6" />
<ellipse cx="60.74133026751882" cy="75.2100077922092" rx="4.512146017450605" ry="3.8205910878221396" fill="#FFFFFF" fill-opacity="0.85" />
</g>
<path d="M105.0,105.0 L205.0,105.0 A100,100,0,0,1,175.71067811865476,175.71067811865476 Z" fill="#F5C754" stroke="lightgray" stroke-width="2" />
<use xlink:href="#clip-4530157424-4530597712" />
<g clip-path="url(#clip-4530157424-4530597712)">
<circle cx="105.0" cy="105.0" r="92" stroke="#DAA05D" stroke-width="16" fill="none" />
<circle cx="105.0" cy="105.0" r="98" stroke="#C37B32" stroke-width="5" fill="none" />
<circle cx="128.67354629838778" cy="145.22378336008086" r="4.404893017954547" fill="#FFFFFF" fill-opacity="0.41165471361070205" />
<circle cx="45.60149420613335" cy="74.13959292930214" r="4.522692115550163" fill="#D2691E" fill-opacity="0.20872216135918872" />
<circle cx="54.087105445300914" cy="69.14362494947474" r="3.227943740775158" fill="#D2691E" fill-opacity="0.2170332062878031" />
<circle cx="115.18265793939608" cy="45.80882593214415" r="2.9417209398806405" fill="#D2691E" fill-opacity="0.4498253901294541" />
<circle cx="45.27235173227261" cy="112.00492586821257" r="4.642024550720059" fill="#8B4513" fill-opacity="0.4340764935591352" />
<circle cx="164.2522713275353" cy="53.737226531623485" r="5.736323594733203" fill="#FFFFFF" fill-opacity="0.31075558699444755" />
<circle cx="100.33464670032771" cy="118.93395960209035" r="2.9782052514479735" fill="#FFDE75" fill-opacity="0.2181754914850374" />
<circle cx="39.8048999098539" cy="138.72729286227184" r="2.8978718545859907" fill="#FFDE75" fill-opacity="0.34671031848122474" />
<circle cx="109.52278209202196" cy="117.07412084303769" r="5.182143457210378" fill="#D2691E" fill-opacity="0.38795629915672936" />
<circle cx="165.7210175507769" cy="148.50270838969848" r="4.471546465419567" fill="#FFDE75" fill-opacity="0.5982433073679955" />
<circle cx="155.68977344622408" cy="42.526560885026306" r="5.5601947165395735" fill="#D2691E" fill-opacity="0.2966095151013287" />
<circle cx="83.55975514671601" cy="118.02708999646161" r="2.425030392605805" fill="#FFFFFF" fill-opacity="0.23778814486976385" />
<circle cx="73.4819382619256" cy="54.00734678094245" r="5.625919965191694" fill="#D2691E" fill-opacity="0.3827709126366924" />
<circle cx="164.2450985507668" cy="73.3745620005923" r="4.65453113345705" fill="#8B4513" fill-opacity="0.4710118905893699" />
<circle cx="132.20979045712232" cy="117.0599259512814" r="3.5676790437226247" fill="#FFFFFF" fill-opacity="0.24393327910119186" />
<circle cx="81.60378962874074" cy="100.56964925475451" r="2.5560605789118407" fill="#D2691E" fill-opacity="0.2380479917478752" />
<circle cx="85.86245277543036" cy="87.74049206849378" r="3.9256312745242004" fill="#8B4513" fill-opacity="0.5560166864265219" />
<circle cx="135.99061660995952" cy="38.403835430529995" r="5.706036886690582" fill="#FFFFFF" fill-opacity="0.36308723559135925" />
<circle cx="99.57794556446531" cy="128.21416825713072" r="5.933990060477871" fill="#FFFFFF" fill-opacity="0.46016120900120955" />
<circle cx="101.25642560583319" cy="111.02520951360167" r="5.797748213061453" fill="#FFFFFF" fill-opacity="0.5963305425025527" />
<circle cx="106.03301735652144" cy="95.13999496656726" r="2.375470762669245" fill="#D2691E" fill-opacity="0.22452322769058808" />
<circle cx="118.30720638610231" cy="24.899087575848426" r="3.1385686242891953" fill="#FFFFFF" fill-opacity="0.3816622517825483" />
<circle cx="123.85197888189958" cy="124.06239015368755" r="5.601980959525653" fill="#FFDE75" fill-opacity="0.29550016305909077" />
<circle cx="79.63344629694488" cy="170.37461411984052" r="5.952326599454096" fill="#8B4513" fill-opacity="0.38455569431023784" />
<circle cx="165.35764914910297" cy="62.39803745364093" r="4.43564037634845" fill="#FFFFFF" fill-opacity="0.5463234016921934" />
<circle cx="161.97243824204497" cy="62.84874150713304" r="5.275052747203983" fill="#D2691E" fill-opacity="0.29192642219202447" />
<circle cx="69.78777384626495" cy="175.8908525836277" r="2.302945128311353" fill="#FFDE75" fill-opacity="0.20129640742291338" />
<circle cx="141.6781331007898" cy="77.92587382929912" r="4.391528493177116" fill="#FFFFFF" fill-opacity="0.22330530499013054" />
<circle cx="173.7484548286412" cy="70.11495916666973" r="4.610334122715837" fill="#D2691E" fill-opacity="0.4759559182560177" />
<circle cx="47.15504387555726" cy="114.15038526669304" r="5.718326536061942" fill="#8B4513" fill-opacity="0.5742750587166163" />
<circle cx="167.5895628164429" cy="91.84127964777153" r="5.49548059459777" fill="#8B4513" fill-opacity="0.41551314441877896" />
<circle cx="101.61835353032168" cy="56.80848329582109" r="3.1881470254146116" fill="#FFFFFF" fill-opacity="0.37253831035541557" />
<circle cx="125.78129591085731" cy="31.58920577380026" r="3.383772337140624" fill="#8B4513" fill-opacity="0.32774617401698475" />
<circle cx="69.82221663128556" cy="120.32767091805661" r="3.3303509204364614" fill="#8B4513" fill-opacity="0.30477179067595744" />
<circle cx="149.0505640343079" cy="107.37443159592618" r="5.6706837037146824" fill="#FFFFFF" fill-opacity="0.37563128873000695" />
<circle cx="60.10127443208541" cy="103.55016470062506" r="2.796630095716369" fill="#D2691E" fill-opacity="0.46295976538567435" />
<circle cx="99.439393227718" cy="89.92336557972452" r="5.001908331081502" fill="#D2691E" fill-opacity="0.5832538137323113" />
<circle cx="120.25575700102775" cy="23.155710809532493" r="5.36773851475558" fill="#FFDE75" fill-opacity="0.3745375233266157" />
<circle cx="137.23579202598307" cy="154.71135725497197" r="2.862659096511533" fill="#8B4513" fill-opacity="0.2944830624176433" />
<circle cx="116.34320929133901" cy="104.99926916977603" r="2.260420544171349" fill="#FFFFFF" fill-opacity="0.3103218439879897" />
<circle cx="71.41177691035935" cy="66.04184271143808" r="3.5473211837031142" fill="#8B4513" fill-opacity="0.47467813471177156" />
<circle cx="146.24312819464595" cy="129.91318810437915" r="3.652928831928655" fill="#D2691E" fill-opacity="0.3016012563696094" />
<circle cx="124.60899747224552" cy="113.9665857061769" r="5.474258331706714" fill="#D2691E" fill-opacity="0.3105471484059383" />
<circle cx="65.25912828876855" cy="80.3267192547773" r="2.044364928211505" fill="#D2691E" fill-opacity="0.2831534728763524" />
<circle cx="63.99291626863782" cy="88.77020685634002" r="2.161863404224477" fill="#8B4513" fill-opacity="0.20967091557295203" />
<circle cx="181.3511902177866" cy="82.69463494741103" r="5.26331793413552" fill="#D2691E" fill-opacity="0.25941323390330157" />
<circle cx="56.592791674188746" cy="37.86774989636126" r="4.2920226490238536" fill="#8B4513" fill-opacity="0.5839490959621005" />
<circle cx="109.27098596592008" cy="127.70100152836417" r="4.634588072567226" fill="#FFDE75" fill-opacity="0.23915542225170439" />
<circle cx="70.0014026651815" cy="73.16022098763543" r="4.658618166294583" fill="#8B4513" fill-opacity="0.40948428610880994" />
<circle cx="98.2027085717466" cy="171.62521951769594" r="5.418835976613606" fill="#FFDE75" fill-opacity="0.3584577721815428" />
<circle cx="182.51202312868497" cy="103.58249074908116" r="3.1066625399270302" fill="#FFFFFF" fill-opacity="0.38112915072954956" />
<circle cx="157.55086633777964" cy="46.772810193608834" r="5.379523778286424" fill="#8B4513" fill-opacity="0.5191528305671411" />
<circle cx="180.30893168312167" cy="72.71554554901797" r="2.2201787191619373" fill="#FFFFFF" fill-opacity="0.467086317171384" />
<circle cx="152.63938241513495" cy="117.29651451605034" r="5.517585161354543" fill="#FFDE75" fill-opacity="0.2824260405792919" />
<circle cx="150.952087701028" cy="117.87359085728467" r="5.735586556454123" fill="#FFDE75" fill-opacity="0.5773976056624197" />
<circle cx="152.72203479641576" cy="71.78431693398824" r="2.346765340293897" fill="#8B4513" fill-opacity="0.2837124402672078" />
<circle cx="97.34762840360625" cy="164.9118581447911" r="2.3592178057121527" fill="#D2691E" fill-opacity="0.37220789768754975" />
<circle cx="102.16090077610835" cy="34.54343004025091" r="3.13755370698862" fill="#D2691E" fill-opacity="0.3037722372524876" />
<circle cx="163.22533504668536" cy="66.4284746472134" r="3.6601450638073536" fill="#D2691E" fill-opacity="0.4462568146253799" />
<circle cx="170.93842935045163" cy="131.6855542386345" r="5.075728354908912" fill="#FFDE75" fill-opacity="0.5448368224975249" />
<ellipse cx="159.039097338955" cy="95.70224889326929" rx="9.181460208392105" ry="7.380773312308274" fill="#FFFDF0" fill-opacity="0.6" />
<ellipse cx="159.44135618674767" cy="95.47171063405939" rx="4.308274434694738" ry="3.331063473384842" fill="#FFFFFF" fill-opacity="0.85" />
<ellipse cx="56.63437364649429" cy="82.77783574582051" rx="7.048368503163269" ry="8.65605976555068" fill="#FFFDF0" fill-opacity="0.6" />
<ellipse cx="56.0182933923081" cy="82.96855736693124" rx="3.6624638721399934" ry="3.91243966554355" fill="#FFFFFF" fill-opacity="0.85" />
<ellipse cx="50.87553898929408" cy="61.386917526541225" rx="6.05040210933757" ry="5.8957335587282484" fill="#FFFDF0" fill-opacity="0.6" />
<ellipse cx="50.820840870543876" cy="61.94292673208253" rx="4.764630601122108" ry="3.512506086677436" fill="#FFFFFF" fill-opacity="0.85" />
<ellipse cx="81.61851592377383" cy="168.17149833226787" rx="6.879016379310652" ry="7.265984342194379" fill="#FFFDF0" fill-opacity="0.6" />
<ellipse cx="81.25547217637504" cy="167.59167129064895" rx="2.0307179726024387" ry="2.7121962414836274" fill="#FFFFFF" fill-opacity="0.85" />
<ellipse cx="43.979109506672295" cy="58.773326576863255" rx="9.757184335455776" ry="5.730004997653362" fill="#FFFDF0" fill-opacity="0.6" />
<ellipse cx="43.66617433203385" cy="59.18472495328275" rx="4.153685587783502" ry="2.2596326656758148" fill="#FFFFFF" fill-opacity="0.85" />
<ellipse cx="181.08094430754778" cy="114.48020794650485" rx="5.248251272600457" ry="7.700095558598639" fill="#FFFDF0" fill-opacity="0.6" />
<ellipse cx="181.43920345180413" cy="114.98462476104264" rx="2.5330079254751428" ry="3.674267855018334" fill="#FFFFFF" fill-opacity="0.85" />
<ellipse cx="110.10081000141268" cy="183.99769599902842" rx="6.5431045420935074" ry="8.232490645811374" fill="#FFFDF0" fill-opacity="0.6" />
<ellipse cx="110.35678829567881" cy="184.57462823165773" rx="3.958036957796925" ry="3.922101493004547" fill="#FFFFFF" fill-opacity="0.85" />
<ellipse cx="34.92905674106258" cy="94.61321875570978" rx="7.411996621387592" ry="5.640486244161712" fill="#FFFDF0" fill-opacity="0.6" />
<ellipse cx="34.944839565653005" cy="94.94946882691427" rx="4.422287747606586" ry="2.1813991851653376" fill="#FFFFFF" fill-opacity="0.85" />
<ellipse cx="152.30331415659552" cy="77.0170097486434" rx="9.540753333984606" ry="6.492139682767356" fill="#FFFDF0" fill-opacity="0.6" />
<ellipse cx="152.46070217536538" cy="76.77703417755275" rx="3.1519279259371937" ry="2.6945330639360137" fill="#FFFFFF" fill-opacity="0.85" />
<ellipse cx="122.71129905809185" cy="145.28134846832543" rx="7.94483050908853" ry="4.649588817639779" fill="#FFFDF0" fill-opacity="0.6" />
<ellipse cx="122.78533389546267" cy="144.30340245531477" rx="3.1344859823358475" ry="2.678854461295117" fill="#FFFFFF" fill-opacity="0.85" />
<ellipse cx="53.94648546859445" cy="111.24654452475545" rx="5.278502596947993" ry="4.2910620528544445" fill="#FFFDF0" fill-opacity="0.6" />
<ellipse cx="54.46517257903745" cy="110.60307280488975" rx="4.3629679896199836" ry="2.422563965713258" fill="#FFFFFF" fill-opacity="0.85" />
<ellipse cx="60.034339157393084" cy="75.51301769181809" rx="7.675261597224451" ry="6.174282714184717" fill="#FFFDF0" fill-opacity="0.6" />
<ellipse cx="60.74133026751882" cy="75.2100077922092" rx="4.512146017450605" ry="3.8205910878221396" fill="#FFFFFF" fill-opacity="0.85" />
</g>
<path d="M105.0,105.0 L175.71067811865476,175.71067811865476 A100,100,0,0,1,105.0,205.0 Z" fill="#F5C754" stroke="lightgray" stroke-width="2" />
<use xlink:href="#clip-4530157424-4530865744" />
<g clip-path="url(#clip-4530157424-4530865744)">
<circle cx="105.0" cy="105.0" r="92" stroke="#DAA05D" stroke-width="16" fill="none" />
<circle cx="105.0" cy="105.0" r="98" stroke="#C37B32" stroke-width="5" fill="none" />
<circle cx="128.67354629838778" cy="145.22378336008086" r="4.404893017954547" fill="#FFFFFF" fill-opacity="0.41165471361070205" />
<circle cx="45.60149420613335" cy="74.13959292930214" r="4.522692115550163" fill="#D2691E" fill-opacity="0.20872216135918872" />
<circle cx="54.087105445300914" cy="69.14362494947474" r="3.227943740775158" fill="#D2691E" fill-opacity="0.2170332062878031" />
<circle cx="115.18265793939608" cy="45.80882593214415" r="2.9417209398806405" fill="#D2691E" fill-opacity="0.4498253901294541" />
<circle cx="45.27235173227261" cy="112.00492586821257" r="4.642024550720059" fill="#8B4513" fill-opacity="0.4340764935591352" />
<circle cx="164.2522713275353" cy="53.737226531623485" r="5.736323594733203" fill="#FFFFFF" fill-opacity="0.31075558699444755" />
<circle cx="100.33464670032771" cy="118.93395960209035" r="2.9782052514479735" fill="#FFDE75" fill-opacity="0.2181754914850374" />
<circle cx="39.8048999098539" cy="138.72729286227184" r="2.8978718545859907" fill="#FFDE75" fill-opacity="0.34671031848122474" />
<circle cx="109.52278209202196" cy="117.07412084303769" r="5.182143457210378" fill="#D2691E" fill-opacity="0.38795629915672936" />
<circle cx="165.7210175507769" cy="148.50270838969848" r="4.471546465419567" fill="#FFDE75" fill-opacity="0.5982433073679955" />
<circle cx="155.68977344622408" cy="42.526560885026306" r="5.5601947165395735" fill="#D2691E" fill-opacity="0.2966095151013287" />
<circle cx="83.55975514671601" cy="118.02708999646161" r="2.425030392605805" fill="#FFFFFF" fill-opacity="0.23778814486976385" />
<circle cx="73.4819382619256" cy="54.00734678094245" r="5.625919965191694" fill="#D2691E" fill-opacity="0.3827709126366924" />
<circle cx="164.2450985507668" cy="73.3745620005923" r="4.65453113345705" fill="#8B4513" fill-opacity="0.4710118905893699" />
<circle cx="132.20979045712232" cy="117.0599259512814" r="3.5676790437226247" fill="#FFFFFF" fill-opacity="0.24393327910119186" />
<circle cx="81.60378962874074" cy="100.56964925475451" r="2.5560605789118407" fill="#D2691E" fill-opacity="0.2380479917478752" />
<circle cx="85.86245277543036" cy="87.74049206849378" r="3.9256312745242004" fill="#8B4513" fill-opacity="0.5560166864265219" />
<circle cx="135.99061660995952" cy="38.403835430529995" r="5.706036886690582" fill="#FFFFFF" fill-opacity="0.36308723559135925" />
<circle cx="99.57794556446531" cy="128.21416825713072" r="5.933990060477871" fill="#FFFFFF" fill-opacity="0.46016120900120955" />
<circle cx="101.25642560583319" cy="111.02520951360167" r="5.797748213061453" fill="#FFFFFF" fill-opacity="0.5963305425025527" />
<circle cx="106.03301735652144" cy="95.13999496656726" r="2.375470762669245" fill="#D2691E" fill-opacity="0.22452322769058808" />
<circle cx="118.30720638610231" cy="24.899087575848426" r="3.1385686242891953" fill="#FFFFFF" fill-opacity="0.3816622517825483" />
<circle cx="123.85197888189958" cy="124.06239015368755" r="5.601980959525653" fill="#FFDE75" fill-opacity="0.29550016305909077" />
<circle cx="79.63344629694488" cy="170.37461411984052" r="5.952326599454096" fill="#8B4513" fill-opacity="0.38455569431023784" />
<circle cx="165.35764914910297" cy="62.39803745364093" r="4.43564037634845" fill="#FFFFFF" fill-opacity="0.5463234016921934" />
<circle cx="161.97243824204497" cy="62.84874150713304" r="5.275052747203983" fill="#D2691E" fill-opacity="0.29192642219202447" />
<circle cx="69.78777384626495" cy="175.8908525836277" r="2.302945128311353" fill="#FFDE75" fill-opacity="0.20129640742291338" />
<circle cx="141.6781331007898" cy="77.92587382929912" r="4.391528493177116" fill="#FFFFFF" fill-opacity="0.22330530499013054" />
<circle cx="173.7484548286412" cy="70.11495916666973" r="4.610334122715837" fill="#D2691E" fill-opacity="0.4759559182560177" />
<circle cx="47.15504387555726" cy="114.15038526669304" r="5.718326536061942" fill="#8B4513" fill-opacity="0.5742750587166163" />
<circle cx="167.5895628164429" cy="91.84127964777153" r="5.49548059459777" fill="#8B4513" fill-opacity="0.41551314441877896" />
<circle cx="101.61835353032168" cy="56.80848329582109" r="3.1881470254146116" fill="#FFFFFF" fill-opacity="0.37253831035541557" />
<circle cx="125.78129591085731" cy="31.58920577380026" r="3.383772337140624" fill="#8B4513" fill-opacity="0.32774617401698475" />
<circle cx="69.82221663128556" cy="120.32767091805661" r="3.3303509204364614" fill="#8B4513" fill-opacity="0.30477179067595744" />
<circle cx="149.0505640343079" cy="107.37443159592618" r="5.6706837037146824" fill="#FFFFFF" fill-opacity="0.37563128873000695" />
<circle cx="60.10127443208541" cy="103.55016470062506" r="2.796630095716369" fill="#D2691E" fill-opacity="0.46295976538567435" />
<circle cx="99.439393227718" cy="89.92336557972452" r="5.001908331081502" fill="#D2691E" fill-opacity="0.5832538137323113" />
<circle cx="120.25575700102775" cy="23.155710809532493" r="5.36773851475558" fill="#FFDE75" fill-opacity="0.3745375233266157" />
<circle cx="137.23579202598307" cy="154.71135725497197" r="2.862659096511533" fill="#8B4513" fill-opacity="0.2944830624176433" />
<circle cx="116.34320929133901" cy="104.99926916977603" r="2.260420544171349" fill="#FFFFFF" fill-opacity="0.3103218439879897" />
<circle cx="71.41177691035935" cy="66.04184271143808" r="3.5473211837031142" fill="#8B4513" fill-opacity="0.47467813471177156" />
<circle cx="146.24312819464595" cy="129.91318810437915" r="3.652928831928655" fill="#D2691E" fill-opacity="0.3016012563696094" />
<circle cx="124.60899747224552" cy="113.9665857061769" r="5.474258331706714" fill="#D2691E" fill-opacity="0.3105471484059383" />
<circle cx="65.25912828876855" cy="80.3267192547773" r="2.044364928211505" fill="#D2691E" fill-opacity="0.2831534728763524" />
<circle cx="63.99291626863782" cy="88.77020685634002" r="2.161863404224477" fill="#8B4513" fill-opacity="0.20967091557295203" />
<circle cx="181.3511902177866" cy="82.69463494741103" r="5.26331793413552" fill="#D2691E" fill-opacity="0.25941323390330157" />
<circle cx="56.592791674188746" cy="37.86774989636126" r="4.2920226490238536" fill="#8B4513" fill-opacity="0.5839490959621005" />
<circle cx="109.27098596592008" cy="127.70100152836417" r="4.634588072567226" fill="#FFDE75" fill-opacity="0.23915542225170439" />
<circle cx="70.0014026651815" cy="73.16022098763543" r="4.658618166294583" fill="#8B4513" fill-opacity="0.40948428610880994" />
<circle cx="98.2027085717466" cy="171.62521951769594" r="5.418835976613606" fill="#FFDE75" fill-opacity="0.3584577721815428" />
<circle cx="182.51202312868497" cy="103.58249074908116" r="3.1066625399270302" fill="#FFFFFF" fill-opacity="0.38112915072954956" />
<circle cx="157.55086633777964" cy="46.772810193608834" r="5.379523778286424" fill="#8B4513" fill-opacity="0.5191528305671411" />
<circle cx="180.30893168312167" cy="72.71554554901797" r="2.2201787191619373" fill="#FFFFFF" fill-opacity="0.467086317171384" />
<circle cx="152.63938241513495" cy="117.29651451605034" r="5.517585161354543" fill="#FFDE75" fill-opacity="0.2824260405792919" />
<circle cx="150.952087701028" cy="117.87359085728467" r="5.735586556454123" fill="#FFDE75" fill-opacity="0.5773976056624197" />
<circle cx="152.72203479641576" cy="71.78431693398824" r="2.346765340293897" fill="#8B4513" fill-opacity="0.2837124402672078" />
<circle cx="97.34762840360625" cy="164.9118581447911" r="2.3592178057121527" fill="#D2691E" fill-opacity="0.37220789768754975" />
<circle cx="102.16090077610835" cy="34.54343004025091" r="3.13755370698862" fill="#D2691E" fill-opacity="0.3037722372524876" />
<circle cx="163.22533504668536" cy="66.4284746472134" r="3.6601450638073536" fill="#D2691E" fill-opacity="0.4462568146253799" />
<circle cx="170.93842935045163" cy="131.6855542386345" r="5.075728354908912" fill="#FFDE75" fill-opacity="0.5448368224975249" />
<ellipse cx="159.039097338955" cy="95.70224889326929" rx="9.181460208392105" ry="7.380773312308274" fill="#FFFDF0" fill-opacity="0.6" />
<ellipse cx="159.44135618674767" cy="95.47171063405939" rx="4.308274434694738" ry="3.331063473384842" fill="#FFFFFF" fill-opacity="0.85" />
<ellipse cx="56.63437364649429" cy="82.77783574582051" rx="7.048368503163269" ry="8.65605976555068" fill="#FFFDF0" fill-opacity="0.6" />
<ellipse cx="56.0182933923081" cy="82.96855736693124" rx="3.6624638721399934" ry="3.91243966554355" fill="#FFFFFF" fill-opacity="0.85" />
<ellipse cx="50.87553898929408" cy="61.386917526541225" rx="6.05040210933757" ry="5.8957335587282484" fill="#FFFDF0" fill-opacity="0.6" />
<ellipse cx="50.820840870543876" cy="61.94292673208253" rx="4.764630601122108" ry="3.512506086677436" fill="#FFFFFF" fill-opacity="0.85" />
<ellipse cx="81.61851592377383" cy="168.17149833226787" rx="6.879016379310652" ry="7.265984342194379" fill="#FFFDF0" fill-opacity="0.6" />
<ellipse cx="81.25547217637504" cy="167.59167129064895" rx="2.0307179726024387" ry="2.7121962414836274" fill="#FFFFFF" fill-opacity="0.85" />
<ellipse cx="43.979109506672295" cy="58.773326576863255" rx="9.757184335455776" ry="5.730004997653362" fill="#FFFDF0" fill-opacity="0.6" />
<ellipse cx="43.66617433203385" cy="59.18472495328275" rx="4.153685587783502" ry="2.2596326656758148" fill="#FFFFFF" fill-opacity="0.85" />
<ellipse cx="181.08094430754778" cy="114.48020794650485" rx="5.248251272600457" ry="7.700095558598639" fill="#FFFDF0" fill-opacity="0.6" />
<ellipse cx="181.43920345180413" cy="114.98462476104264" rx="2.5330079254751428" ry="3.674267855018334" fill="#FFFFFF" fill-opacity="0.85" />
<ellipse cx="110.10081000141268" cy="183.99769599902842" rx="6.5431045420935074" ry="8.232490645811374" fill="#FFFDF0" fill-opacity="0.6" />
<ellipse cx="110.35678829567881" cy="184.57462823165773" rx="3.958036957796925" ry="3.922101493004547" fill="#FFFFFF" fill-opacity="0.85" />
<ellipse cx="34.92905674106258" cy="94.61321875570978" rx="7.411996621387592" ry="5.640486244161712" fill="#FFFDF0" fill-opacity="0.6" />
<ellipse cx="34.944839565653005" cy="94.94946882691427" rx="4.422287747606586" ry="2.1813991851653376" fill="#FFFFFF" fill-opacity="0.85" />
<ellipse cx="152.30331415659552" cy="77.0170097486434" rx="9.540753333984606" ry="6.492139682767356" fill="#FFFDF0" fill-opacity="0.6" />
<ellipse cx="152.46070217536538" cy="76.77703417755275" rx="3.1519279259371937" ry="2.6945330639360137" fill="#FFFFFF" fill-opacity="0.85" />
<ellipse cx="122.71129905809185" cy="145.28134846832543" rx="7.94483050908853" ry="4.649588817639779" fill="#FFFDF0" fill-opacity="0.6" />
<ellipse cx="122.78533389546267" cy="144.30340245531477" rx="3.1344859823358475" ry="2.678854461295117" fill="#FFFFFF" fill-opacity="0.85" />
<ellipse cx="53.94648546859445" cy="111.24654452475545" rx="5.278502596947993" ry="4.2910620528544445" fill="#FFFDF0" fill-opacity="0.6" />
<ellipse cx="54.46517257903745" cy="110.60307280488975" rx="4.3629679896199836" ry="2.422563965713258" fill="#FFFFFF" fill-opacity="0.85" />
<ellipse cx="60.034339157393084" cy="75.51301769181809" rx="7.675261597224451" ry="6.174282714184717" fill="#FFFDF0" fill-opacity="0.6" />
<ellipse cx="60.74133026751882" cy="75.2100077922092" rx="4.512146017450605" ry="3.8205910878221396" fill="#FFFFFF" fill-opacity="0.85" />
</g>
<rect x="230.0" y="41.0" width="54.0" height="54.0" fill="none" stroke="black" stroke-width="2" />
<rect x="230.0" y="115.0" width="54.0" height="54.0" fill="none" stroke="black" stroke-width="2" />
<path d="M225.0,105.0 L289.0,105.0" stroke="black" stroke-width="2" />
</g>
</svg>
</svg>