<svg width="678.0" height="210.0" xmlns="http://www.w3.org/2000/svg" xmlns:xlink="http://www.w3.org/1999/xlink">
<svg x="0.0" y="0.0" width="284.0" height="210.0" viewBox="0 0 284.0 210" xmlns="http://www.w3.org/2000/svg" xmlns:xlink="http://www.w3.org/1999/xlink">
<defs>
<clipPath id="clip-4530280464-4530021840">
<path d="M105.0,105.0 L105.0,5.0 A100,100,0,0,1,205.0,105.0 Z" fill="none" />
</clipPath>
<clipPath id="clip-4530280464-4530022992">
<path d="M105.0,105.0 L205.0,105.0 A100,100,0,0,1,105.0,205.0 Z" fill="none" />
</clipPath>
<clipPath id="clip-4530280464-4530865872">
<path d="M105.0,105.0 L105.0,205.0 A100,100,0,0,1,5.0,105.00000000000001 Z" fill="none" />
</clipPath>
</defs>
<g>
<path d="M105.0,105.0 L105.0,5.0 A100,100,0,0,1,205.0,105.0 Z" fill="none" stroke="lightgray" stroke-width="2" />
<path d="M105.0,105.0 L205.0,105.0 A100,100,0,0,1,105.0,205.0 Z" fill="none" stroke="lightgray" stroke-width="2" />
<path d="M105.0,105.0 L105.0,205.0 A100,100,0,0,1,5.0,105.00000000000001 Z" fill="none" stroke="lightgray" stroke-width="2" />
<path d="M105.0,105.0 L5.0,105.00000000000001 A100,100,0,0,1,104.99999999999999,5.0 Z" fill="none" stroke="lightgray" stroke-width="2" />
<path d="M105.0,105.0 L105.0,5.0 A100,100,0,0,1,205.0,105.0 Z" fill="#F5C754" stroke="lightgray" stroke-width="2" />
<use xlink:href="#clip-4530280464-4530021840" />
<g clip-path="url(#clip-4530280464-4530021840)">
<circle cx="105.0" cy="105.0" r="92" stroke="#DAA05D" stroke-width="16" fill="none" />
<circle cx="105.0" cy="105.0" r="98" stroke="#C37B32" stroke-width="5" fill="none" />
<circle cx="147.64180788034912" cy="132.03693942088526" r="2.7613336933937416" fill="#8B4513" fill-opacity="0.5131056766633996" />
<circle cx="164.1227053641515" cy="70.94227275853675" r="4.787171847184391" fill="#8B4513" fill-opacity="0.25357006226572965" />
<circle cx="44.90723798761529" cy="67.44330670507318" r="4.751882763003607" fill="#FFFFFF" fill-opacity="0.34704874948884834" />
<circle cx="92.43111863478518" cy="141.17410320488773" r="4.681270234023448" fill="#FFDE75" fill-opacity="0.4186038140298307" />
<circle cx="61.13949140089139" cy="145.359800421215" r="4.987463686371338" fill="#D2691E" fill-opacity="0.3629713150735522" />
<circle cx="151.98033412670998" cy="106.74360701922384" r="5.857345682749712" fill="#FFDE75" fill-opacity="0.4286097735359464" />
<circle cx="61.196298406203674" cy="42.643502828484365" r="2.1909798646970735" fill="#8B4513" fill-opacity="0.37775470424908514" />
<circle cx="149.8907987404049" cy="73.11672913082676" r="5.466104417410189" fill="#D2691E" fill-opacity="0.3583741907975385" />
<circle cx="179.5784946967505" cy="80.23996148030768" r="4.168937127139289" fill="#FFFFFF" fill-opacity="0.22336377841446123" />
<circle cx="99.10216410184972" cy="61.27381011981856" r="5.5822029032425515" fill="#D2691E" fill-opacity="0.5895503751448259" />
<circle cx="161.67737342622746" cy="71.97830416804157" r="2.5666677791537227" fill="#FFDE75" fill-opacity="0.5795715649140487" />
<circle cx="166.38514010053157" cy="80.0680771282254" r="2.7002459461728523" fill="#FFDE75" fill-opacity="0.22456279068011994" />
<circle cx="71.76550398481756" cy="35.38687617314663" r="4.199133029745982" fill="#8B4513" fill-opacity="0.5343180786313815" />
<circle cx="118.55019668780949" cy="134.0021664176359" r="2.8748965352826477" fill="#FFDE75" fill-opacity="0.3909503223668296" />
<circle cx="71.5906540905612" cy="145.14604180092374" r="3.151387349181662" fill="#FFFFFF" fill-opacity="0.5537376717620017" />
<circle cx="72.20762608004767" cy="88.12660952847239" r="2.6247079452054276" fill="#D2691E" fill-opacity="0.5974595477533018" />
<circle cx="58.30236482623623" cy="74.15362403147431" r="3.35803660190789" fill="#FFDE75" fill-opacity="0.5546107463513019" />
<circle cx="167.2697268974377" cy="129.45226788092822" r="4.966319083091475" fill="#FFFFFF" fill-opacity="0.4482714477184554" />
<circle cx="182.25757279539243" cy="112.54687404221102" r="4.169633530634913" fill="#8B4513" fill-opacity="0.2787208519865666" />
<circle cx="31.762730173224213" cy="118.83295877876071" r="3.1084471618773297" fill="#D2691E" fill-opacity="0.4727051104157088" />
<circle cx="52.29837336422321" cy="41.186664321554765" r="4.360458945063719" fill="#FFDE75" fill-opacity="0.5941314654967189" />
<circle cx="152.08937468352508" cy="133.0888404076376" r="5.556150711254121" fill="#8B4513" fill-opacity="0.5532854028074894" />
<circle cx="100.7285114163592" cy="66.23709936625221" r="4.450477807199647" fill="#FFDE75" fill-opacity="0.2157884802670986" />
<circle cx="142.0624394523456" cy="165.2157373094997" r="4.819441884184643" fill="#8B4513" fill-opacity="0.4520241814590775" />
<circle cx="115.39343168446975" cy="88.67708178418619" r="2.2313285342506846" fill="#FFFFFF" fill-opacity="0.35327828345189427" />
<circle cx="108.07291714602988" cy="92.65653558956402" r="2.8298006823080684" fill="#8B4513" fill-opacity="0.5782421151482553" />
<circle cx="101.09270744403253" cy="32.868094948425906" r="3.513407051871684" fill="#FFDE75" fill-opacity="0.41957773728861836" />
<circle cx="135.99433926138926" cy="150.34702847009117" r="2.8794550816667" fill="#D2691E" fill-opacity="0.38795682920785546" />
<circle cx="130.82535340318577" cy="145.33458061390363" r="4.880121667370024" fill="#FFDE75" fill-opacity="0.38453087354419946" />
<circle cx="153.28438910871995" cy="162.64891225141338" r="4.96678019230755" fill="#D2691E" fill-opacity="0.34000896482375526" />
<circle cx="170.22457609127133" cy="64.77137530213457" r="4.656006141706255" fill="#D2691E" fill-opacity="0.43615497751888554" />
<circle cx="92.30215611284208" cy="94.77090016616816" r="5.6457169738589625" fill="#D2691E" fill-opacity="0.49572578562259184" />
<circle cx="145.99589191840403" cy="48.93520447388443" r="5.138561620997466" fill="#FFDE75" fill-opacity="0.4247439155148329" />
<circle cx="149.694552749609" cy="111.09883375750357" r="5.000212409543961" fill="#FFFFFF" fill-opacity="0.32918652060492304" />
<circle cx="32.39637412165318" cy="136.78892336790776" r="2.961371053216964" fill="#D2691E" fill-opacity="0.4869502322677166" />
<circle cx="125.01915781289881" cy="87.8084611191163" r="2.0821227013889474" fill="#8B4513" fill-opacity="0.5934813296574972" />
<circle cx="120.38807179827644" cy="182.90326150273063" r="4.386792810565829" fill="#FFDE75" fill-opacity="0.4177857591436624" />
<circle cx="143.5066541354393" cy="145.81252195965223" r="3.8568428113484807" fill="#FFDE75" fill-opacity="0.3380874708983017" />
<circle cx="124.17247585740408" cy="170.20395401147306" r="4.894136659744008" fill="#8B4513" fill-opacity="0.2787448222044679" />
<circle cx="66.44823579677049" cy="105.46345497885774" r="2.8219023069346036" fill="#8B4513" fill-opacity="0.5927999104039843" />
<circle cx="145.71610148349225" cy="32.54560087207068" r="2.79253670444321" fill="#D2691E" fill-opacity="0.44192016519340227" />
<circle cx="97.4769416601899" cy="87.36753314075108" r="2.85642343772987" fill="#D2691E" fill-opacity="0.4038110503034771" />
<circle cx="184.3952840994845" cy="83.07017978160025" r="4.637189721399169" fill="#FFFFFF" fill-opacity="0.24067067397471376" />
<circle cx="39.96278795797666" cy="129.90051448113334" r="3.530602608655795" fill="#FFFFFF" fill-opacity="0.48940179325515604" />
<circle cx="38.08623843616394" cy="77.1138434819711" r="3.8943592613080287" fill="#FFDE75" fill-opacity="0.5388136690255163" />
<ellipse cx="137.77068045828565" cy="161.2003069030161" rx="8.564548076981508" ry="4.995980968670182" fill="#FFFDF0" fill-opacity="0.6" />
<ellipse cx="137.7524787194649" cy="160.89586050463535" rx="2.324903792909681" ry="2.0866850835526787" fill="#FFFFFF" fill-opacity="0.85" />
<ellipse cx="176.24298806824248" cy="108.85625131303493" rx="6.803281455750296" ry="4.0285266269764275" fill="#FFFDF0" fill-opacity="0.6" />
<ellipse cx="175.87792646413556" cy="108.68001877569372" rx="4.511553957365323" ry="3.0234129521970665" fill="#FFFFFF" fill-opacity="0.85" />
<ellipse cx="170.45478085093762" cy="69.65921547209314" rx="9.686895033537509" ry="5.287149433532685" fill="#FFFDF0" fill-opacity="0.6" />
<ellipse cx="170.22889505453736" cy="68.96470789101215" rx="2.8789177404858153" ry="2.4032116399272327" fill="#FFFFFF" fill-opacity="0.85" />
<ellipse cx="94.33133840467059" cy="179.51529632820868" rx="8.177585684254915" ry="8.775534670047842" fill="#FFFDF0" fill-opacity="0.6" />
<ellipse cx="95.05519745796589" cy="180.20033996613816" rx="4.593085248533583" ry="3.967180069348884" fill="#FFFFFF" fill-opacity="0.85" />
<ellipse cx="104.81124343426757" cy="145.14964372960696" rx="6.99693367059972" ry="6.182889315012614" fill="#FFFDF0" fill-opacity="0.6" />
<ellipse cx="103.92603866727575" cy="144.53804210852007" rx="2.0610581441214615" ry="2.9277784229743" fill="#FFFFFF" fill-opacity="0.85" />
<ellipse cx="123.5147097854962" cy="78.84208404732505" rx="6.624185188987406" ry="7.88277870005469" fill="#FFFDF0" fill-opacity="0.6" />
<ellipse cx="123.53693372061556" cy="79.78979834410903" rx="2.8829828874558907" ry="3.5860681603613873" fill="#FFFFFF" fill-opacity="0.85" />
<ellipse cx="141.05400146201688" cy="132.0341828672481" rx="8.400639920949452" ry="7.154319773858781" fill="#FFFDF0" fill-opacity="0.6" />
<ellipse cx="141.95031198418545" cy="131.2851635716059" rx="3.1704300055258803" ry="2.9769402711735102" fill="#FFFFFF" fill-opacity="0.85" />
<ellipse cx="57.55314456032939" cy="166.54089535769873" rx="8.174393023683672" ry="4.187910046235354" fill="#FFFDF0" fill-opacity="0.6" />
<ellipse cx="57.7374526119968" cy="166.7745422241361" rx="4.28070710824543" ry="3.6648434325661716" fill="#FFFFFF" fill-opacity="0.85" />
<ellipse cx="112.3626705946357" cy="129.58783057404307" rx="5.161067296223874" ry="5.988238407258629" fill="#FFFDF0" fill-opacity="0.6" />
<ellipse cx="112.73843773865278" cy="129.69067587695636" rx="3.5922171571725547" ry="3.1869640990048906" fill="#FFFFFF" fill-opacity="0.85" />
</g>
<path d="M105.0,105.0 L205.0,105.0 A100,100,0,0,1,105.0,205.0 Z" fill="#F5C754" stroke="lightgray" stroke-width="2" />
<use xlink:href="#clip-4530280464-4530022992" />
<g clip-path="url(#clip-4530280464-4530022992)">
<circle cx="105.0" cy="105.0" r="92" stroke="#DAA05D" stroke-width="16" fill="none" />
<circle cx="105.0" cy="105.0" r="98" stroke="#C37B32" stroke-width="5" fill="none" />
<circle cx="147.64180788034912" cy="132.03693942088526" r="2.7613336933937416" fill="#8B4513" fill-opacity="0.5131056766633996" />
<circle cx="164.1227053641515" cy="70.94227275853675" r="4.787171847184391" fill="#8B4513" fill-opacity="0.25357006226572965" />
<circle cx="44.90723798761529" cy="67.44330670507318" r="4.751882763003607" fill="#FFFFFF" fill-opacity="0.34704874948884834" />
<circle cx="92.43111863478518" cy="141.17410320488773" r="4.681270234023448" fill="#FFDE75" fill-opacity="0.4186038140298307" />
<circle cx="61.13949140089139" cy="145.359800421215" r="4.987463686371338" fill="#D2691E" fill-opacity="0.3629713150735522" />
<circle cx="151.98033412670998" cy="106.74360701922384" r="5.857345682749712" fill="#FFDE75" fill-opacity="0.4286097735359464" />
<circle cx="61.196298406203674" cy="42.643502828484365" r="2.1909798646970735" fill="#8B4513" fill-opacity="0.37775470424908514" />
<circle cx="149.8907987404049" cy="73.11672913082676" r="5.466104417410189" fill="#D2691E" fill-opacity="0.3583741907975385" />
<circle cx="179.5784946967505" cy="80.23996148030768" r="4.168937127139289" fill="#FFFFFF" fill-opacity="0.22336377841446123" />
<circle cx="99.10216410184972" cy="61.27381011981856" r="5.5822029032425515" fill="#D2691E" fill-opacity="0.5895503751448259" />
<circle cx="161.67737342622746" cy="71.97830416804157" r="2.5666677791537227" fill="#FFDE75" fill-opacity="0.5795715649140487" />
<circle cx="166.38514010053157" cy="80.0680771282254" r="2.7002459461728523" fill="#FFDE75" fill-opacity="0.22456279068011994" />
<circle cx="71.76550398481756" cy="35.38687617314663" r="4.199133029745982" fill="#8B4513" fill-opacity="0.5343180786313815" />
<circle cx="118.55019668780949" cy="134.0021664176359" r="2.8748965352826477" fill="#FFDE75" fill-opacity="0.3909503223668296" />
<circle cx="71.5906540905612" cy="145.14604180092374" r="3.151387349181662" fill="#FFFFFF" fill-opacity="0.5537376717620017" />
<circle cx="72.20762608004767" cy="88.12660952847239" r="2.6247079452054276" fill="#D2691E" fill-opacity="0.5974595477533018" />
<circle cx="58.30236482623623" cy="74.15362403147431" r="3.35803660190789" fill="#FFDE75" fill-opacity="0.5546107463513019" />
<circle cx="167.2697268974377" cy="129.45226788092822" r="4.966319083091475" fill="#FFFFFF" fill-opacity="0.4482714477184554" />
<circle cx="182.25757279539243" cy="112.54687404221102" r="4.169633530634913" fill="#8B4513" fill-opacity="0.2787208519865666" />
<circle cx="31.762730173224213" cy="118.83295877876071" r="3.1084471618773297" fill="#D2691E" fill-opacity="0.4727051104157088" />
<circle cx="52.29837336422321" cy="41.186664321554765" r="4.360458945063719" fill="#FFDE75" fill-opacity="0.5941314654967189" />
<circle cx="152.08937468352508" cy="133.0888404076376" r="5.556150711254121" fill="#8B4513" fill-opacity="0.5532854028074894" />
<circle cx="100.7285114163592" cy="66.23709936625221" r="4.450477807199647" fill="#FFDE75" fill-opacity="0.2157884802670986" />
<circle cx="142.0624394523456" cy="165.2157373094997" r="4.819441884184643" fill="#8B4513" fill-opacity="0.4520241814590775" />
<circle cx="115.39343168446975" cy="88.67708178418619" r="2.2313285342506846" fill="#FFFFFF" fill-opacity="0.35327828345189427" />
<circle cx="108.07291714602988" cy="92.65653558956402" r="2.8298006823080684" fill="#8B4513" fill-opacity="0.5782421151482553" />
<circle cx="101.09270744403253" cy="32.868094948425906" r="3.513407051871684" fill="#FFDE75" fill-opacity="0.41957773728861836" />
<circle cx="135.99433926138926" cy="150.34702847009117" r="2.8794550816667" fill="#D2691E" fill-opacity="0.38795682920785546" />
<circle cx="130.82535340318577" cy="145.33458061390363" r="4.880121667370024" fill="#FFDE75" fill-opacity="0.38453087354419946" />
<circle cx="153.28438910871995" cy="162.64891225141338" r="4.96678019230755" fill="#D2691E" fill-opacity="0.34000896482375526" />
<circle cx="170.22457609127133" cy="64.77137530213457" r="4.656006141706255" fill="#D2691E" fill-opacity="0.43615497751888554" />
<circle cx="92.30215611284208" cy="94.77090016616816" r="5.6457169738589625" fill="#D2691E" fill-opacity="0.49572578562259184" />
<circle cx="145.99589191840403" cy="48.93520447388443" r="5.138561620997466" fill="#FFDE75" fill-opacity="0.4247439155148329" />
<circle cx="149.694552749609" cy="111.09883375750357" r="5.000212409543961" fill="#FFFFFF" fill-opacity="0.32918652060492304" />
<circle cx="32.39637412165318" cy="136.78892336790776" r="2.961371053216964" fill="#D2691E" fill-opacity="0.4869502322677166" />
<circle cx="125.01915781289881" cy="87.8084611191163" r="2.0821227013889474" fill="#8B4513" fill-opacity="0.5934813296574972" />
<circle cx="120.38807179827644" cy="182.90326150273063" r="4.386792810565829" fill="#FFDE75" fill-opacity="0.4177857591436624" />
<circle cx="143.5066541354393" cy="145.81252195965223" r="3.8568428113484807" fill="#FFDE75" fill-opacity="0.3380874708983017" />
<circle cx="124.17247585740408" cy="170.20395401147306" r="4.894136659744008" fill="#8B4513" fill-opacity="0.2787448222044679" />
<circle cx="66.44823579677049" cy="105.46345497885774" r="2.8219023069346036" fill="#8B4513" fill-opacity="0.5927999104039843" />
<circle cx="145.71610148349225" cy="32.54560087207068" r="2.79253670444321" fill="#D2691E" fill-opacity="0.44192016519340227" />
<circle cx="97.4769416601899" cy="87.36753314075108" r="2.85642343772987" fill="#D2691E" fill-opacity="0.4038110503034771" />
<circle cx="184.3952840994845" cy="83.07017978160025" r="4.637189721399169" fill="#FFFFFF" fill-opacity="0.24067067397471376" />
<circle cx="39.96278795797666" cy="129.90051448113334" r="3.530602608655795" fill="#FFFFFF" fill-opacity="0.48940179325515604" />
<circle cx="38.08623843616394" cy="77.1138434819711" r="3.8943592613080287" fill="#FFDE75" fill-opacity="0.5388136690255163" />
<ellipse cx="137.77068045828565" cy="161.2003069030161" rx="8.564548076981508" ry="4.995980968670182" fill="#FFFDF0" fill-opacity="0.6" />
<ellipse cx="137.7524787194649" cy="160.89586050463535" rx="2.324903792909681" ry="2.0866850835526787" fill="#FFFFFF" fill-opacity="0.85" />
<ellipse cx="176.24298806824248" cy="108.85625131303493" rx="6.803281455750296" ry="4.0285266269764275" fill="#FFFDF0" fill-opacity="0.6" />
<ellipse cx="175.87792646413556" cy="108.68001877569372" rx="4.511553957365323" ry="3.0234129521970665" fill="#FFFFFF" fill-opacity="0.85" />
<ellipse cx="170.45478085093762" cy="69.65921547209314" rx="9.686895033537509" ry="5.287149433532685" fill="#FFFDF0" fill-opacity="0.6" />
<ellipse cx="170.22889505453736" cy="68.96470789101215" rx="2.8789177404858153" ry="2.4032116399272327" fill="#FFFFFF" fill-opacity="0.85" />
<ellipse cx="94.33133840467059" cy="179.51529632820868" rx="8.177585684254915" ry="8.775534670047842" fill="#FFFDF0" fill-opacity="0.6" />
<ellipse cx="95.05519745796589" cy="180.20033996613816" rx="4.593085248533583" ry="3.967180069348884" fill="#FFFFFF" fill-opacity="0.85" />
<ellipse cx="104.81124343426757" cy="145.14964372960696" rx="6.99693367059972" ry="6.182889315012614" fill="#FFFDF0" fill-opacity="0.6" />
<ellipse cx="103.92603866727575" cy="144.53804210852007" rx="2.0610581441214615" ry="2.9277784229743" fill="#FFFFFF" fill-opacity="0.85" />
<ellipse cx="123.5147097854962" cy="78.84208404732505" rx="6.624185188987406" ry="7.88277870005469" fill="#FFFDF0" fill-opacity="0.6" />
<ellipse cx="123.53693372061556" cy="79.78979834410903" rx="2.8829828874558907" ry="3.5860681603613873" fill="#FFFFFF" fill-opacity="0.85" />
<ellipse cx="141.05400146201688" cy="132.0341828672481" rx="8.400639920949452" ry="7.154319773858781" fill="#FFFDF0" fill-opacity="0.6" />
<ellipse cx="141.95031198418545" cy="131.2851635716059" rx="3.1704300055258803" ry="2.9769402711735102" fill="#FFFFFF" fill-opacity="0.85" />
<ellipse cx="57.55314456032939" cy="166.54089535769873" rx="8.174393023683672" ry="4.187910046235354" fill="#FFFDF0" fill-opacity="0.6" />
<ellipse cx="57.7374526119968" cy="166.7745422241361" rx="4.28070710824543" ry="3.6648434325661716" fill="#FFFFFF" fill-opacity="0.85" />
<ellipse cx="112.3626705946357" cy="129.58783057404307" rx="5.161067296223874" ry="5.988238407258629" fill="#FFFDF0" fill-opacity="0.6" />
<ellipse cx="112.73843773865278" cy="129.69067587695636" rx="3.5922171571725547" ry="3.1869640990048906" fill="#FFFFFF" fill-opacity="0.85" />
</g>
<path d="M105.0,105.0 L105.0,205.0 A100,100,0,0,1,5.0,105.00000000000001 Z" fill="#F5C754" stroke="lightgray" stroke-width="2" />
<use xlink:href="#clip-4530280464-4530865872" />
<g clip-path="url(#clip-4530280464-4530865872)">
<circle cx="105.0" cy="105.0" r="92" stroke="#DAA05D" stroke-width="16" fill="none" />
<circle cx="105.0" cy="105.0" r="98" stroke="#C37B32" stroke-width="5" fill="none" />
<circle cx="147.64180788034912" cy="132.03693942088526" r="2.7613336933937416" fill="#8B4513" fill-opacity="0.5131056766633996" />
<circle cx="164.1227053641515" cy="70.94227275853675" r="4.787171847184391" fill="#8B4513" fill-opacity="0.25357006226572965" />
<circle cx="44.90723798761529" cy="67.44330670507318" r="4.751882763003607" fill="#FFFFFF" fill-opacity="0.34704874948884834" />
<circle cx="92.43111863478518" cy="141.17410320488773" r="4.681270234023448" fill="#FFDE75" fill-opacity="0.4186038140298307" />
<circle cx="61.13949140089139" cy="145.359800421215" r="4.987463686371338" fill="#D2691E" fill-opacity="0.3629713150735522" />
<circle cx="151.98033412670998" cy="106.74360701922384" r="5.857345682749712" fill="#FFDE75" fill-opacity="0.4286097735359464" />
<circle cx="61.196298406203674" cy="42.643502828484365" r="2.1909798646970735" fill="#8B4513" fill-opacity="0.37775470424908514" />
<circle cx="149.8907987404049" cy="73.11672913082676" r="5.466104417410189" fill="#D2691E" fill-opacity="0.3583741907975385" />
<circle cx="179.5784946967505" cy="80.23996148030768" r="4.168937127139289" fill="#FFFFFF" fill-opacity="0.22336377841446123" />
<circle cx="99.10216410184972" cy="61.27381011981856" r="5.5822029032425515" fill="#D2691E" fill-opacity="0.5895503751448259" />
<circle cx="161.67737342622746" cy="71.97830416804157" r="2.5666677791537227" fill="#FFDE75" fill-opacity="0.5795715649140487" />
<circle cx="166.38514010053157" cy="80.0680771282254" r="2.7002459461728523" fill="#FFDE75" fill-opacity="0.22456279068011994" />
<circle cx="71.76550398481756" cy="35.38687617314663" r="4.199133029745982" fill="#8B4513" fill-opacity="0.5343180786313815" />
<circle cx="118.55019668780949" cy="134.0021664176359" r="2.8748965352826477" fill="#FFDE75" fill-opacity="0.3909503223668296" />
<circle cx="71.5906540905612" cy="145.14604180092374" r="3.151387349181662" fill="#FFFFFF" fill-opacity="0.5537376717620017" />
<circle cx="72.20762608004767" cy="88.12660952847239" r="2.6247079452054276" fill="#D2691E" fill-opacity="0.5974595477533018" />
<circle cx="58.30236482623623" cy="74.15362403147431" r="3.35803660190789" fill="#FFDE75" fill-opacity="0.5546107463513019" />
<circle cx="167.2697268974377" cy="129.45226788092822" r="4.966319083091475" fill="#FFFFFF" fill-opacity="0.4482714477184554" />
<circle cx="182.25757279539243" cy="112.54687404221102" r="4.169633530634913" fill="#8B4513" fill-opacity="0.2787208519865666" />
<circle cx="31.762730173224213" cy="118.83295877876071" r="3.1084471618773297" fill="#D2691E" fill-opacity="0.4727051104157088" />
<circle cx="52.29837336422321" cy="41.186664321554765" r="4.360458945063719" fill="#FFDE75" fill-opacity="0.5941314654967189" />
<circle cx="152.08937468352508" cy="133.0888404076376" r="5.556150711254121" fill="#8B4513" fill-opacity="0.5532854028074894" />
<circle cx="100.7285114163592" cy="66.23709936625221" r="4.450477807199647" fill="#FFDE75" fill-opacity="0.2157884802670986" />
<circle cx="142.0624394523456" cy="165.2157373094997" r="4.819441884184643" fill="#8B4513" fill-opacity="0.4520241814590775" />
<circle cx="115.39343168446975" cy="88.67708178418619" r="2.2313285342506846" fill="#FFFFFF" fill-opacity="0.35327828345189427" />
<circle cx="108.07291714602988" cy="92.65653558956402" r="2.8298006823080684" fill="#8B4513" fill-opacity="0.5782421151482553" />
<circle cx="101.09270744403253" cy="32.868094948425906" r="3.513407051871684" fill="#FFDE75" fill-opacity="0.41957773728861836" />
<circle cx="135.99433926138926" cy="150.34702847009117" r="2.8794550816667" fill="#D2691E" fill-opacity="0.38795682920785546" />
<circle cx="130.82535340318577" cy="145.33458061390363" r="4.880121667370024" fill="#FFDE75" fill-opacity="0.38453087354419946" />
<circle cx="153.28438910871995" cy="162.64891225141338" r="4.96678019230755" fill="#D2691E" fill-opacity="0.34000896482375526" />
<circle cx="170.22457609127133" cy="64.77137530213457" r="4.656006141706255" fill="#D2691E" fill-opacity="0.43615497751888554" />
<circle cx="92.30215611284208" cy="94.77090016616816" r="5.6457169738589625" fill="#D2691E" fill-opacity="0.49572578562259184" />
<circle cx="145.99589191840403" cy="48.93520447388443" r="5.138561620997466" fill="#FFDE75" fill-opacity="0.4247439155148329" />
<circle cx="149.694552749609" cy="111.09883375750357" r="5.000212409543961" fill="#FFFFFF" fill-opacity="0.32918652060492304" />
<circle cx="32.39637412165318" cy="136.78892336790776" r="2.961371053216964" fill="#D2691E" fill-opacity="0.4869502322677166" />
<circle cx="125.01915781289881" cy="87.8084611191163" r="2.0821227013889474" fill="#8B4513" fill-opacity="0.5934813296574972" />
<circle cx="120.38807179827644" cy="182.90326150273063" r="4.386792810565829" fill="#FFDE75" fill-opacity="0.4177857591436624" />
<circle cx="143.5066541354393" cy="145.81252195965223" r="3.8568428113484807" fill="#FFDE75" fill-opacity="0.3380874708983017" />
<circle cx="124.17247585740408" cy="170.20395401147306" r="4.894136659744008" fill="#8B4513" fill-opacity="0.2787448222044679" />
<circle cx="66.44823579677049" cy="105.46345497885774" r="2.8219023069346036" fill="#8B4513" fill-opacity="0.5927999104039843" />
<circle cx="145.71610148349225" cy="32.54560087207068" r="2.79253670444321" fill="#D2691E" fill-opacity="0.44192016519340227" />
<circle cx="97.4769416601899" cy="87.36753314075108" r="2.85642343772987" fill="#D2691E" fill-opacity="0.4038110503034771" />
<circle cx="184.3952840994845" cy="83.07017978160025" r="4.637189721399169" fill="#FFFFFF" fill-opacity="0.24067067397471376" />
<circle cx="39.96278795797666" cy="129.90051448113334" r="3.530602608655795" fill="#FFFFFF" fill-opacity="0.48940179325515604" />
<circle cx="38.08623843616394" cy="77.1138434819711" r="3.8943592613080287" fill="#FFDE75" fill-opacity="0.5388136690255163" />
<ellipse cx="137.77068045828565" cy="161.2003069030161" rx="8.564548076981508" ry="4.995980968670182" fill="#FFFDF0" fill-opacity="0.6" />
<ellipse cx="137.7524787194649" cy="160.89586050463535" rx="2.324903792909681" ry="2.0866850835526787" fill="#FFFFFF" fill-opacity="0.85" />
<ellipse cx="176.24298806824248" cy="108.85625131303493" rx="6.803281455750296" ry="4.0285266269764275" fill="#FFFDF0" fill-opacity="0.6" />
<ellipse cx="175.87792646413556" cy="108.68001877569372" rx="4.511553957365323" ry="3.0234129521970665" fill="#FFFFFF" fill-opacity="0.85" />
<ellipse cx="170.45478085093762" cy="69.65921547209314" rx="9.686895033537509" ry="5.287149433532685" fill="#FFFDF0" fill-opacity="0.6" />
<ellipse cx="170.22889505453736" cy="68.96470789101215" rx="2.8789177404858153" ry="2.4032116399272327" fill="#FFFFFF" fill-opacity="0.85" />
<ellipse cx="94.33133840467059" cy="179.51529632820868" rx="8.177585684254915" ry="8.775534670047842" fill="#FFFDF0" fill-opacity="0.6" />
<ellipse cx="95.05519745796589" cy="180.20033996613816" rx="4.593085248533583" ry="3.967180069348884" fill="#FFFFFF" fill-opacity="0.85" />
<ellipse cx="104.81124343426757" cy="145.14964372960696" rx="6.99693367059972" ry="6.182889315012614" fill="#FFFDF0" fill-opacity="0.6" />
<ellipse cx="103.92603866727575" cy="144.53804210852007" rx="2.0610581441214615" ry="2.9277784229743" fill="#FFFFFF" fill-opacity="0.85" />
<ellipse cx="123.5147097854962" cy="78.84208404732505" rx="6.624185188987406" ry="7.88277870005469" fill="#FFFDF0" fill-opacity="0.6" />
<ellipse cx="123.53693372061556" cy="79.78979834410903" rx="2.8829828874558907" ry="3.5860681603613873" fill="#FFFFFF" fill-opacity="0.85" />
<ellipse cx="141.05400146201688" cy="132.0341828672481" rx="8.400639920949452" ry="7.154319773858781" fill="#FFFDF0" fill-opacity="0.6" />
<ellipse cx="141.95031198418545" cy="131.2851635716059" rx="3.1704300055258803" ry="2.9769402711735102" fill="#FFFFFF" fill-opacity="0.85" />
<ellipse cx="57.55314456032939" cy="166.54089535769873" rx="8.174393023683672" ry="4.187910046235354" fill="#FFFDF0" fill-opacity="0.6" />
<ellipse cx="57.7374526119968" cy="166.7745422241361" rx="4.28070710824543" ry="3.6648434325661716" fill="#FFFFFF" fill-opacity="0.85" />
<ellipse cx="112.3626705946357" cy="129.58783057404307" rx="5.161067296223874" ry="5.988238407258629" fill="#FFFDF0" fill-opacity="0.6" />
<ellipse cx="112.73843773865278" cy="129.69067587695636" rx="3.5922171571725547" ry="3.1869640990048906" fill="#FFFFFF" fill-opacity="0.85" />
</g>
<rect x="230.0" y="41.0" width="54.0" height="54.0" fill="none" stroke="black" stroke-width="2" />
<rect x="230.0" y="115.0" width="54.0" height="54.0" fill="none" stroke="black" stroke-width="2" />
<path d="M225.0,105.0 L289.0,105.0" stroke="black" stroke-width="2" />
<text x="257.0" y="68.0" font-size="36" font-family="Comic Sans MS, Comic Sans, cursive" dominant-baseline="middle" fill="black" text-anchor="middle">3</text>
<text x="257.0" y="142.0" font-size="36" font-family="Comic Sans MS, Comic Sans, cursive" dominant-baseline="middle" fill="black" text-anchor="middle">4</text>
</g>
</svg>
<rect x="299.0" y="65.0" width="80" height="80" fill="none" stroke="black" stroke-width="1.5"/>
<svg x="394.0" y="0.0" width="284.0" height="210.0" viewBox="0 0 284.0 210" xmlns="http://www.w3.org/2000/svg" xmlns:xlink="http://www.w3.org/1999/xlink">
<defs>
<clipPath id="clip-4519505872-4530866640">
<path d="M105.0,105.0 L105.0,5.0 A100,100,0,0,1,205.0,105.0 Z" fill="none" />
</clipPath>
</defs>
<g>
<path d="M105.0,105.0 L105.0,5.0 A100,100,0,0,1,205.0,105.0 Z" fill="none" stroke="lightgray" stroke-width="2" />
<path d="M105.0,105.0 L205.0,105.0 A100,100,0,0,1,105.0,205.0 Z" fill="none" stroke="lightgray" stroke-width="2" />
<path d="M105.0,105.0 L105.0,205.0 A100,100,0,0,1,5.0,105.00000000000001 Z" fill="none" stroke="lightgray" stroke-width="2" />
<path d="M105.0,105.0 L5.0,105.00000000000001 A100,100,0,0,1,104.99999999999999,5.0 Z" fill="none" stroke="lightgray" stroke-width="2" />
<path d="M105.0,105.0 L105.0,5.0 A100,100,0,0,1,205.0,105.0 Z" fill="#F5C754" stroke="lightgray" stroke-width="2" />
<use xlink:href="#clip-4519505872-4530866640" />
<g clip-path="url(#clip-4519505872-4530866640)">
<circle cx="105.0" cy="105.0" r="92" stroke="#DAA05D" stroke-width="16" fill="none" />
<circle cx="105.0" cy="105.0" r="98" stroke="#C37B32" stroke-width="5" fill="none" />
<circle cx="150.16930721382764" cy="131.78725905141764" r="4.621985201289717" fill="#8B4513" fill-opacity="0.5291418873772519" />
<circle cx="163.60615884020183" cy="125.66544772062602" r="2.2832999626298514" fill="#FFFFFF" fill-opacity="0.5456106559446565" />
<circle cx="152.01020442266625" cy="144.48453140546448" r="3.0101949726826893" fill="#FFFFFF" fill-opacity="0.5206158634175101" />
<circle cx="111.58803372871098" cy="63.584023176617805" r="4.448139007700835" fill="#FFDE75" fill-opacity="0.5182665766671053" />
<circle cx="87.42663359174486" cy="151.36589292591142" r="2.6890711054981957" fill="#FFFFFF" fill-opacity="0.5166518377603263" />
<circle cx="47.551731799890376" cy="58.71032367063185" r="2.835916467751546" fill="#8B4513" fill-opacity="0.49988771417344685" />
<circle cx="61.85632618523402" cy="143.02797203060737" r="4.989296793332681" fill="#FFDE75" fill-opacity="0.31094585148665616" />
<circle cx="120.86650049349058" cy="128.629227441745" r="4.822069475220841" fill="#D2691E" fill-opacity="0.5778813778741752" />
<circle cx="153.5112773352417" cy="147.9826044464391" r="3.0135148495655506" fill="#D2691E" fill-opacity="0.28626416327368037" />
<circle cx="180.18061370264888" cy="140.06372021496605" r="4.443460845077819" fill="#FFDE75" fill-opacity="0.3023684619007732" />
<circle cx="176.05800942160664" cy="144.5164346306911" r="5.896889989283363" fill="#8B4513" fill-opacity="0.3205377796625759" />
<circle cx="161.79328598924832" cy="166.58507028130256" r="3.993399014373854" fill="#FFFFFF" fill-opacity="0.4953530734112352" />
<circle cx="30.09284802392733" cy="85.57383319865369" r="3.8821753221829507" fill="#FFFFFF" fill-opacity="0.46748551219419193" />
<circle cx="66.4179906328772" cy="160.7160340166694" r="4.167847150997165" fill="#FFFFFF" fill-opacity="0.2565009182130179" />
<circle cx="80.53941521040471" cy="33.282487827173625" r="2.280438244990554" fill="#FFFFFF" fill-opacity="0.5175507924749729" />
<ellipse cx="69.90572467675662" cy="144.36015187169866" rx="5.986861018658863" ry="8.466774471527657" fill="#FFFDF0" fill-opacity="0.6" />
<ellipse cx="69.55195557716446" cy="144.0693765622181" rx="3.4831097328033342" ry="2.751340596084452" fill="#FFFFFF" fill-opacity="0.85" />
<ellipse cx="133.857679926521" cy="113.51726062258754" rx="7.642868638165302" ry="7.543045898063041" fill="#FFFDF0" fill-opacity="0.6" />
<ellipse cx="132.88676072798614" cy="114.51530004850981" rx="2.5579656746704376" ry="2.39724091841264" fill="#FFFFFF" fill-opacity="0.85" />
<ellipse cx="54.43991894519775" cy="164.0829857784991" rx="8.404992720517967" ry="6.922130582965135" fill="#FFFDF0" fill-opacity="0.6" />
<ellipse cx="55.11816459700025" cy="163.41647358573957" rx="4.7164706634717275" ry="3.819460112437846" fill="#FFFFFF" fill-opacity="0.85" />
</g>
<rect x="230.0" y="41.0" width="54.0" height="54.0" fill="none" stroke="black" stroke-width="2" />
<rect x="230.0" y="115.0" width="54.0" height="54.0" fill="none" stroke="black" stroke-width="2" />
<path d="M225.0,105.0 L289.0,105.0" stroke="black" stroke-width="2" />
<text x="257.0" y="68.0" font-size="36" font-family="Comic Sans MS, Comic Sans, cursive" dominant-baseline="middle" fill="black" text-anchor="middle">1</text>
<text x="257.0" y="142.0" font-size="36" font-family="Comic Sans MS, Comic Sans, cursive" dominant-baseline="middle" fill="black" text-anchor="middle">4</text>
</g>
</svg>
</svg>