<svg width="210.0" height="210.0" xmlns="http://www.w3.org/2000/svg" xmlns:xlink="http://www.w3.org/1999/xlink">
<svg x="0.0" y="0.0" width="210.0" height="210.0" viewBox="0 0 210 210" xmlns="http://www.w3.org/2000/svg" xmlns:xlink="http://www.w3.org/1999/xlink">
<defs>
<clipPath id="clip-4502331344-4541974992">
<circle cx="105.0" cy="105.0" r="100" fill="none" />
</clipPath>
</defs>
<g>
<circle cx="105.0" cy="105.0" r="100" fill="#F5C754" />
<use xlink:href="#clip-4502331344-4541974992" />
<g clip-path="url(#clip-4502331344-4541974992)">
<circle cx="105.0" cy="105.0" r="92" stroke="#DAA05D" stroke-width="16" fill="none" />
<circle cx="105.0" cy="105.0" r="98" stroke="#C37B32" stroke-width="5" fill="none" />
<circle cx="166.3955444438232" cy="138.45575047183493" r="3.489387959282886" fill="#D2691E" fill-opacity="0.44207037880785527" />
<circle cx="123.58962298095526" cy="120.47137832783412" r="4.683044185852472" fill="#D2691E" fill-opacity="0.4311436555430245" />
<circle cx="65.20644114970197" cy="82.5823399844555" r="4.754906309609698" fill="#FFFFFF" fill-opacity="0.33184210336887476" />
<circle cx="102.25096520411475" cy="138.3018892833966" r="3.4091875566877037" fill="#8B4513" fill-opacity="0.302287190704843" />
<circle cx="40.95827104643509" cy="51.296893131006954" r="5.053419151141652" fill="#FFFFFF" fill-opacity="0.24280583586160948" />
<circle cx="187.57607254075998" cy="87.99890315976333" r="3.752847131950927" fill="#8B4513" fill-opacity="0.4767683494868254" />
<circle cx="182.4787978241249" cy="103.58036230009331" r="5.568546445446749" fill="#FFDE75" fill-opacity="0.5831480381980407" />
<circle cx="126.13457896297649" cy="182.6705541995376" r="2.2713558883466094" fill="#FFDE75" fill-opacity="0.20274893957027113" />
<circle cx="171.19920133269545" cy="108.50059256732047" r="4.244378594790902" fill="#FFFFFF" fill-opacity="0.23204925248627176" />
<circle cx="148.587817077717" cy="163.53221765574233" r="4.535240913745774" fill="#FFDE75" fill-opacity="0.3649853824473986" />
<circle cx="137.9947755335829" cy="132.70473850844374" r="2.9362270141635944" fill="#FFFFFF" fill-opacity="0.4557729257598176" />
<circle cx="47.920497630442725" cy="106.64966904860044" r="3.3117312747224164" fill="#FFFFFF" fill-opacity="0.5818788228675482" />
<circle cx="136.78089795141588" cy="43.49183047690319" r="3.247247172389001" fill="#FFDE75" fill-opacity="0.529334132679799" />
<circle cx="175.06568642995794" cy="152.98932137438152" r="2.282062522172" fill="#FFFFFF" fill-opacity="0.35543965806823097" />
<circle cx="175.00582812259358" cy="92.44449492766567" r="5.320388613468372" fill="#FFFFFF" fill-opacity="0.5703324542597725" />
<circle cx="118.72709742451781" cy="41.26119210522008" r="3.2126600522836943" fill="#8B4513" fill-opacity="0.4795208702617168" />
<circle cx="105.32591989809477" cy="30.89978431697253" r="3.414134793704061" fill="#FFDE75" fill-opacity="0.5439385029762731" />
<circle cx="78.18226888002356" cy="56.79158193182333" r="3.330100953821271" fill="#FFDE75" fill-opacity="0.5415923073631196" />
<circle cx="103.3423776630823" cy="173.0570986001586" r="3.9682879602896346" fill="#FFFFFF" fill-opacity="0.47956000698749307" />
<circle cx="81.23130723552575" cy="122.70350923187377" r="2.3037479968245465" fill="#FFFFFF" fill-opacity="0.5088500913529469" />
<circle cx="61.87049950697983" cy="84.58763059226234" r="4.324899528732065" fill="#FFFFFF" fill-opacity="0.5538343699485034" />
<circle cx="46.33404938587315" cy="151.1682227315904" r="2.947287222755144" fill="#FFFFFF" fill-opacity="0.46835987572641186" />
<circle cx="173.99594035553537" cy="138.9478966721686" r="5.7595772764284945" fill="#FFFFFF" fill-opacity="0.5137613966609971" />
<circle cx="173.49253603016558" cy="100.56723572663046" r="2.3762845377562614" fill="#8B4513" fill-opacity="0.36699789750601797" />
<circle cx="110.96416795712472" cy="43.101810306888815" r="2.4601302556844185" fill="#FFDE75" fill-opacity="0.24333011483111266" />
<circle cx="59.16709591510152" cy="119.62568622673273" r="2.570218805449637" fill="#FFFFFF" fill-opacity="0.5226460642939874" />
<circle cx="160.76394970903362" cy="138.61794065687866" r="3.041468070057645" fill="#D2691E" fill-opacity="0.21148862105072508" />
<circle cx="144.85502400762493" cy="95.4154815535609" r="3.2634700843432007" fill="#FFDE75" fill-opacity="0.4244592744870299" />
<circle cx="113.6165180436672" cy="80.62359504505045" r="2.1012475779240525" fill="#D2691E" fill-opacity="0.43995390288545566" />
<circle cx="68.3587564697695" cy="39.03533647360389" r="3.944731049740285" fill="#8B4513" fill-opacity="0.543746402269502" />
<circle cx="91.29410489239218" cy="27.035924030811415" r="4.56592350449232" fill="#FFFFFF" fill-opacity="0.423520809569883" />
<circle cx="106.89316974273922" cy="95.21030086049934" r="4.026835153678089" fill="#8B4513" fill-opacity="0.5185477729189518" />
<circle cx="169.51657925108486" cy="73.97371060096734" r="2.5741728726665465" fill="#FFFFFF" fill-opacity="0.3699266107777732" />
<circle cx="153.51668462135535" cy="78.00298404644681" r="4.353018831265286" fill="#D2691E" fill-opacity="0.5724931582200625" />
<circle cx="56.28361818675153" cy="131.3454011811979" r="3.3734015750582493" fill="#8B4513" fill-opacity="0.28521353086738727" />
<circle cx="150.42465512225766" cy="162.38878623794386" r="2.720153903891566" fill="#FFDE75" fill-opacity="0.4759638769526686" />
<circle cx="104.7443151509815" cy="157.05253679832722" r="2.2808015030034876" fill="#D2691E" fill-opacity="0.2195790276536232" />
<circle cx="85.45836821265137" cy="162.43184571963337" r="3.8775495263708" fill="#FFFFFF" fill-opacity="0.3898190821151064" />
<circle cx="51.30385384389955" cy="106.04164257327163" r="4.05075297520864" fill="#FFDE75" fill-opacity="0.4109897395189662" />
<circle cx="140.0994974800109" cy="165.09230061450452" r="2.178730112279588" fill="#8B4513" fill-opacity="0.5629135531244515" />
<circle cx="138.89806559972948" cy="130.05104384206572" r="2.850941102045547" fill="#FFFFFF" fill-opacity="0.5328965460862727" />
<circle cx="33.178437359441446" cy="116.94478739030859" r="2.245141295777021" fill="#FFFFFF" fill-opacity="0.27026222075958206" />
<circle cx="141.21442499768543" cy="130.22912418217444" r="4.365898986740219" fill="#FFDE75" fill-opacity="0.464280957438763" />
<circle cx="79.34714865639151" cy="69.23569220262766" r="5.711321488795841" fill="#FFDE75" fill-opacity="0.391192334803216" />
<circle cx="110.18784155965776" cy="107.86077839199723" r="4.186730410391011" fill="#FFFFFF" fill-opacity="0.4802864734354274" />
<circle cx="117.805980037927" cy="88.7039915702733" r="3.0348466263959946" fill="#FFFFFF" fill-opacity="0.4925629210007856" />
<circle cx="106.02010621089924" cy="31.540204823742314" r="4.643027207648254" fill="#FFFFFF" fill-opacity="0.5559493295436302" />
<circle cx="141.19993428511697" cy="42.349325107496036" r="3.3724399390790754" fill="#8B4513" fill-opacity="0.3899967977687739" />
<circle cx="169.1845095809249" cy="95.95459373049603" r="4.796046614171877" fill="#8B4513" fill-opacity="0.5244947427763353" />
<circle cx="153.61952382272347" cy="167.4749970850066" r="2.9263680805476944" fill="#D2691E" fill-opacity="0.5780337794636021" />
<circle cx="134.17476605216396" cy="52.94404837844672" r="3.4102034094285982" fill="#FFFFFF" fill-opacity="0.3254394299063276" />
<circle cx="98.72987968351391" cy="180.81168848218198" r="4.201151550567599" fill="#8B4513" fill-opacity="0.5108275581283162" />
<circle cx="27.048596684076117" cy="108.07617758164221" r="2.4384679263231197" fill="#D2691E" fill-opacity="0.4616302974977043" />
<circle cx="97.38346348604755" cy="92.5048442952939" r="2.9319963755509004" fill="#8B4513" fill-opacity="0.20679274627319702" />
<circle cx="63.588471957520156" cy="67.15638387963992" r="2.5583125176981802" fill="#FFDE75" fill-opacity="0.4301684292897343" />
<circle cx="60.75876782283019" cy="84.94939084905388" r="2.9373377007649726" fill="#FFDE75" fill-opacity="0.47553726692684267" />
<circle cx="125.87215248164605" cy="60.221191454226215" r="4.8131563307975345" fill="#FFDE75" fill-opacity="0.4718034249261843" />
<circle cx="75.18986809686712" cy="142.03652281588964" r="5.7991699403107075" fill="#FFFFFF" fill-opacity="0.2511017966111086" />
<circle cx="56.422858408950106" cy="121.83980051575334" r="3.90425675021353" fill="#D2691E" fill-opacity="0.20741338037429102" />
<circle cx="57.52795116124477" cy="134.01579985874753" r="4.146073270461618" fill="#FFDE75" fill-opacity="0.5659665653377299" />
<ellipse cx="130.86240228218543" cy="138.88824411958237" rx="8.865172465340322" ry="7.349543226006002" fill="#FFFDF0" fill-opacity="0.6" />
<ellipse cx="131.77427089968754" cy="138.37730030759386" rx="4.479146013658962" ry="2.8740117749063465" fill="#FFFFFF" fill-opacity="0.85" />
<ellipse cx="168.72482782272567" cy="105.02307064395289" rx="5.049777833900317" ry="8.231791029554884" fill="#FFFDF0" fill-opacity="0.6" />
<ellipse cx="169.1573107069177" cy="105.6754911871898" rx="2.0995445692305053" ry="2.0230648948113696" fill="#FFFFFF" fill-opacity="0.85" />
<ellipse cx="91.0592404503473" cy="95.59154884626952" rx="9.142310244458473" ry="8.88929809853095" fill="#FFFDF0" fill-opacity="0.6" />
<ellipse cx="90.29008786496223" cy="95.61778608822718" rx="2.908894689770221" ry="3.155584905397852" fill="#FFFFFF" fill-opacity="0.85" />
<ellipse cx="72.42810649989715" cy="35.53553929098973" rx="6.596998834659633" ry="6.979349366418604" fill="#FFFDF0" fill-opacity="0.6" />
<ellipse cx="72.35246371787044" cy="34.79312558899978" rx="4.0645075162391695" ry="3.0896843299196974" fill="#FFFFFF" fill-opacity="0.85" />
<ellipse cx="65.75937423796472" cy="89.92758064265655" rx="6.240042418755877" ry="6.838054765950437" fill="#FFFDF0" fill-opacity="0.6" />
<ellipse cx="65.31753751587526" cy="90.24271197097674" rx="4.041861443539137" ry="3.050951705837781" fill="#FFFFFF" fill-opacity="0.85" />
<ellipse cx="36.58213415221678" cy="132.6595425897596" rx="6.365176716755649" ry="8.444519641662776" fill="#FFFDF0" fill-opacity="0.6" />
<ellipse cx="36.23470330324473" cy="132.25416982974718" rx="4.932965283836448" ry="3.9064078286614" fill="#FFFFFF" fill-opacity="0.85" />
<ellipse cx="133.9709648483627" cy="141.83888756663498" rx="7.37428952083174" ry="6.871038340496532" fill="#FFFDF0" fill-opacity="0.6" />
<ellipse cx="134.8796631631118" cy="142.14167795070145" rx="3.1687243448837723" ry="2.5890969935712107" fill="#FFFFFF" fill-opacity="0.85" />
<ellipse cx="139.79541419641865" cy="130.11737004238321" rx="6.017800376587551" ry="7.047377548355691" fill="#FFFDF0" fill-opacity="0.6" />
<ellipse cx="140.1222368771531" cy="130.7136213270089" rx="2.7353858359351255" ry="2.918610597488323" fill="#FFFFFF" fill-opacity="0.85" />
<ellipse cx="148.9135481411835" cy="81.11966130182428" rx="8.5338768994714" ry="8.452543479294782" fill="#FFFDF0" fill-opacity="0.6" />
<ellipse cx="149.7338541545317" cy="81.68549397665916" rx="2.426809115228294" ry="2.194084232032461" fill="#FFFFFF" fill-opacity="0.85" />
<ellipse cx="123.69034452887155" cy="103.34042660885196" rx="7.028891763845147" ry="5.479988389663452" fill="#FFFDF0" fill-opacity="0.6" />
<ellipse cx="123.62376260562394" cy="102.67640295812835" rx="4.04378301529532" ry="3.6374172001172167" fill="#FFFFFF" fill-opacity="0.85" />
<ellipse cx="100.77060074492766" cy="135.73656061630916" rx="8.140201071079243" ry="7.112718384540845" fill="#FFFDF0" fill-opacity="0.6" />
<ellipse cx="100.31027953771816" cy="135.44019581083975" rx="4.154183022818614" ry="2.730426763676533" fill="#FFFFFF" fill-opacity="0.85" />
<ellipse cx="97.28019780869704" cy="109.3990534437393" rx="8.506095233202734" ry="4.065680368039175" fill="#FFFDF0" fill-opacity="0.6" />
<ellipse cx="97.91465707585759" cy="109.27142059863753" rx="3.57800121746273" ry="2.331347190652135" fill="#FFFFFF" fill-opacity="0.85" />
</g>
<path d="M105.0,105.0 L105.0,5.0" stroke="lightgray" stroke-width="2" />
<path d="M105.0,105.0 L205.0,105.0" stroke="lightgray" stroke-width="2" />
<path d="M105.0,105.0 L105.0,205.0" stroke="lightgray" stroke-width="2" />
<path d="M105.0,105.0 L5.0,105.00000000000001" stroke="lightgray" stroke-width="2" />
<circle cx="105.0" cy="105.0" r="100" fill="none" stroke="lightgray" stroke-width="2" />
</g>
</svg>
</svg>