<svg xmlns="http://www.w3.org/2000/svg" xmlns:xlink="http://www.w3.org/1999/xlink" width="500px" height="167px" version="1.1" overflow="visible" id="q1rwophk">
   <desc>Engraved by Verovio 6.2.0-43f8060</desc>
   <defs>
      <g id="E050-q1rwophk">
         <path transform="scale(1,-1)" d="M441 -245c-23 -4 -48 -6 -76 -6c-59 0 -102 7 -130 20c-88 42 -150 93 -187 154c-26 44 -43 103 -48 176c0 6 -1 13 -1 19c0 54 15 111 45 170c29 57 65 106 110 148s96 85 153 127c-3 16 -8 46 -13 92c-4 43 -5 73 -5 89c0 117 16 172 69 257c34 54 64 82 89 82 c21 0 43 -30 69 -92s39 -115 41 -159v-15c0 -109 -21 -162 -67 -241c-13 -20 -63 -90 -98 -118c-13 -9 -25 -19 -37 -29l31 -181c8 1 18 2 28 2c58 0 102 -12 133 -35c59 -43 92 -104 98 -184c1 -7 1 -15 1 -22c0 -123 -87 -209 -181 -248c8 -57 17 -110 25 -162 c5 -31 6 -58 6 -80c0 -30 -5 -53 -14 -70c-35 -64 -88 -99 -158 -103c-5 0 -11 -1 -16 -1c-37 0 -72 10 -108 27c-50 24 -77 59 -80 105v11c0 29 7 55 20 76c18 28 45 42 79 44h6c49 0 93 -42 97 -87v-9c0 -51 -34 -86 -105 -106c17 -24 51 -36 102 -36c62 0 116 43 140 85 c9 16 13 41 13 74c0 20 -1 42 -5 67c-8 53 -18 106 -26 159zM461 939c-95 0 -135 -175 -135 -286c0 -24 2 -48 5 -71c50 39 92 82 127 128c40 53 60 100 60 140v8c-4 53 -22 81 -55 81h-2zM406 119l54 -326c73 25 110 78 110 161c0 7 0 15 -1 23c-7 95 -57 142 -151 142h-12 zM382 117c-72 -2 -128 -47 -128 -120v-7c2 -46 43 -99 75 -115c-3 -2 -7 -5 -10 -10c-70 33 -116 88 -123 172v11c0 68 44 126 88 159c23 17 49 29 78 36l-29 170c-21 -13 -52 -37 -92 -73c-50 -44 -86 -84 -109 -119c-45 -69 -67 -130 -67 -182v-13c5 -68 35 -127 93 -176 s125 -73 203 -73c25 0 50 3 75 9c-19 111 -36 221 -54 331z"/>
      </g>
      <g id="E083-q1rwophk">
         <path transform="scale(1,-1)" d="M208 250c97 0 177 -52 177 -116c0 -69 -40 -111 -118 -125c56 -5 125 -44 125 -116c0 -31 -10 -57 -31 -78c-19 -21 -45 -38 -78 -49l-50 -11c-15 -3 -36 -7 -55 -7c-50 0 -86 16 -113 38c-16 10 -23 18 -34 34c-7 13 -11 25 -11 38c0 43 27 83 68 83l3 -2 c61 0 75 -42 75 -70c0 -19 -24 -42 -26 -57c7 -17 20 -25 37 -25c44 0 94 29 94 78c0 75 -34 125 -138 125v36c84 0 131 22 131 98c0 54 -37 88 -87 88c-26 0 -43 -7 -51 -22c15 -22 44 -16 44 -70c0 -37 -37 -62 -71 -62c-22 0 -69 15 -69 76c0 79 101 116 178 116z"/>
      </g>
      <g id="E084-q1rwophk">
         <path transform="scale(1,-1)" d="M20 -78c84 97 114 180 134 329h170c-13 -32 -82 -132 -99 -151l-84 -97c-33 -36 -59 -63 -80 -81h162v102l127 123v-225h57v-39h-57v-34c0 -43 19 -65 57 -65v-34h-244v36c48 0 60 26 60 70v27h-203v39z"/>
      </g>
      <g id="E0A4-q1rwophk">
         <path transform="scale(1,-1)" d="M0 -39c0 68 73 172 200 172c66 0 114 -37 114 -95c0 -84 -106 -171 -218 -171c-64 0 -96 30 -96 94z"/>
      </g>
   </defs>
   <style type="text/css">#q1rwophk g.ending, #q1rwophk g.fing, #q1rwophk g.reh, #q1rwophk g.tempo {font-weight:bold;}#q1rwophk g.dir, #q1rwophk g.dynam, #q1rwophk g.mNum {font-style:italic;}#q1rwophk g.label {font-weight:normal;}#q1rwophk ellipse, #q1rwophk path, #q1rwophk polygon, #q1rwophk polyline, #q1rwophk rect {stroke:currentColor}</style>
   <svg class="definition-scale" color="black" font-family="Times, serif" viewBox="0 0 10000 3340">
      <g class="page-margin" transform="translate(500, 500)">
         <g id="rysfk4n" class="mdiv pageMilestone"/>
         <g id="v10kpiny" class="score pageMilestone"/>
         <g id="e19cycyr" class="system">
            <g id="i1xjiz7e" class="section systemMilestone"/>
            <g id="abcLine07" class="pb"/>
            <g id="s1mn0pcg" class="measure">
               <g id="b1ckqsrd" class="staff">
                  <path d="M0 1086 L3366 1086" stroke-width="13"/>
                  <path d="M0 1266 L3366 1266" stroke-width="13"/>
                  <path d="M0 1446 L3366 1446" stroke-width="13"/>
                  <path d="M0 1626 L3366 1626" stroke-width="13"/>
                  <path d="M0 1806 L3366 1806" stroke-width="13"/>
                  <g id="ma5cr6b" class="clef">
                     <use xlink:href="#E050-q1rwophk" transform="translate(90, 1626) scale(0.72, 0.72)"/>
                  </g>
                  <g id="nkv1utj" class="keySig"/>
                  <g id="oqasbsp" class="meterSig">
                     <use xlink:href="#E083-q1rwophk" transform="translate(727, 1266) scale(0.72, 0.72)"/>
                     <use xlink:href="#E084-q1rwophk" transform="translate(721, 1626) scale(0.72, 0.72)"/>
                  </g>
                  <g class="ledgerLines below">
                     <path d="M1235 1986 L1557 1986" stroke-width="22"/>
                  </g>
                  <g id="kcvbzre" class="layer">
                     <g id="l1yj2ae0" class="note">
                        <g class="notehead">
                           <use xlink:href="#E0A4-q1rwophk" transform="translate(1283, 1986) scale(0.72, 0.72)"/>
                        </g>
                        <g id="g1tugszd" class="stem">
                           <path d="M1500 1958 L1500 1356" stroke-width="18"/>
                        </g>
                     </g>
                     <g id="m17wjosq" class="chord">
                        <g id="hs5v7z0" class="stem">
                           <path d="M2190 1778 L2190 996" stroke-width="18"/>
                        </g>
                        <g id="n6ahjhl" class="note">
                           <g class="notehead">
                              <use xlink:href="#E0A4-q1rwophk" transform="translate(1973, 1806) scale(0.72, 0.72)"/>
                           </g>
                        </g>
                        <g id="obcguqx" class="note">
                           <g class="notehead">
                              <use xlink:href="#E0A4-q1rwophk" transform="translate(1973, 1626) scale(0.72, 0.72)"/>
                           </g>
                        </g>
                     </g>
                     <g id="pcct2tz" class="chord">
                        <g id="i13901pv" class="stem">
                           <path d="M2880 1778 L2880 996" stroke-width="18"/>
                        </g>
                        <g id="qamjbek" class="note">
                           <g class="notehead">
                              <use xlink:href="#E0A4-q1rwophk" transform="translate(2663, 1806) scale(0.72, 0.72)"/>
                           </g>
                        </g>
                        <g id="r1uo7mru" class="note">
                           <g class="notehead">
                              <use xlink:href="#E0A4-q1rwophk" transform="translate(2663, 1626) scale(0.72, 0.72)"/>
                           </g>
                        </g>
                     </g>
                  </g>
               </g>
               <g id="a11xdgwb" class="barLine">
                  <path d="M3353 1086 L3353 1806" stroke-width="27"/>
               </g>
            </g>
            <g id="k1p4eapr" class="measure">
               <g id="twmkjof" class="staff">
                  <path d="M3366 1086 L5791 1086" stroke-width="13"/>
                  <path d="M3366 1266 L5791 1266" stroke-width="13"/>
                  <path d="M3366 1446 L5791 1446" stroke-width="13"/>
                  <path d="M3366 1626 L5791 1626" stroke-width="13"/>
                  <path d="M3366 1806 L5791 1806" stroke-width="13"/>
                  <g class="ledgerLines below">
                     <path d="M3498 1986 L3820 1986" stroke-width="22"/>
                  </g>
                  <g id="cri6l8u" class="layer">
                     <g id="dr80b7r" class="note">
                        <g class="notehead">
                           <use xlink:href="#E0A4-q1rwophk" transform="translate(3546, 1986) scale(0.72, 0.72)"/>
                        </g>
                        <g id="j1p5dnxi" class="stem">
                           <path d="M3763 1958 L3763 1356" stroke-width="18"/>
                        </g>
                     </g>
                     <g id="e7bp6u1" class="chord">
                        <g id="k1yzsdi4" class="stem">
                           <path d="M4453 1778 L4453 996" stroke-width="18"/>
                        </g>
                        <g id="f490bkj" class="note">
                           <g class="notehead">
                              <use xlink:href="#E0A4-q1rwophk" transform="translate(4236, 1806) scale(0.72, 0.72)"/>
                           </g>
                        </g>
                        <g id="gffxfs2" class="note">
                           <g class="notehead">
                              <use xlink:href="#E0A4-q1rwophk" transform="translate(4236, 1626) scale(0.72, 0.72)"/>
                           </g>
                        </g>
                     </g>
                     <g id="he0fq3y" class="chord">
                        <g id="l10n9tpk" class="stem">
                           <path d="M5143 1778 L5143 996" stroke-width="18"/>
                        </g>
                        <g id="inxkebs" class="note">
                           <g class="notehead">
                              <use xlink:href="#E0A4-q1rwophk" transform="translate(4926, 1806) scale(0.72, 0.72)"/>
                           </g>
                        </g>
                        <g id="j1twurlt" class="note">
                           <g class="notehead">
                              <use xlink:href="#E0A4-q1rwophk" transform="translate(4926, 1626) scale(0.72, 0.72)"/>
                           </g>
                        </g>
                     </g>
                  </g>
               </g>
               <g id="s1h37vkr" class="barLine">
                  <path d="M5616 1086 L5616 1806" stroke-width="27"/>
                  <path d="M5746 1086 L5746 1806" stroke-width="90"/>
               </g>
            </g>
            <g id="abcLine08" class="sb"/>
            <g id="dzcscke" class="systemMilestoneEnd i1xjiz7e"/>
         </g>
         <g id="e1kiivd7" class="pageMilestoneEnd v10kpiny"/>
         <g id="f1enb953" class="pageMilestoneEnd rysfk4n"/>
         <g id="fk42vx9" class="pgHead">
            <text font-size="0px">
               <tspan id="g1yjjuiz" class="rend" x="4500" y="278" text-anchor="middle">
                  <tspan id="h1dysswi" class="text">
                     <tspan font-size="405px">Waltz</tspan>
                  </tspan>
               </tspan>
            </text>
         </g>
      </g>
   </svg>
</svg>