<?xml version="1.0" encoding="UTF-8"?>
<svg xmlns="http://www.w3.org/2000/svg" xmlns:xlink="http://www.w3.org/1999/xlink"
     width="284.0" height="210" viewBox="0 0 284.0 210">
<defs>
<clipPath id="clip-4465917152-4530021328">
<path d="M105.0,105.0 L105.0,5.0 A100,100,0,0,1,191.60254037844388,55.00000000000001 Z" fill="none" />
</clipPath>
</defs>
<g>
<path d="M105.0,105.0 L105.0,5.0 A100,100,0,0,1,191.60254037844388,55.00000000000001 Z" fill="none" stroke="lightgray" stroke-width="2" />
<path d="M105.0,105.0 L191.60254037844388,55.00000000000001 A100,100,0,0,1,191.60254037844388,155.0 Z" fill="none" stroke="lightgray" stroke-width="2" />
<path d="M105.0,105.0 L191.60254037844388,155.0 A100,100,0,0,1,105.0,205.0 Z" fill="none" stroke="lightgray" stroke-width="2" />
<path d="M105.0,105.0 L105.0,205.0 A100,100,0,0,1,18.397459621556123,155.0 Z" fill="none" stroke="lightgray" stroke-width="2" />
<path d="M105.0,105.0 L18.397459621556123,155.0 A100,100,0,0,1,18.397459621556138,54.999999999999986 Z" fill="none" stroke="lightgray" stroke-width="2" />
<path d="M105.0,105.0 L18.397459621556138,54.999999999999986 A100,100,0,0,1,104.99999999999999,5.0 Z" fill="none" stroke="lightgray" stroke-width="2" />
<path d="M105.0,105.0 L105.0,5.0 A100,100,0,0,1,191.60254037844388,55.00000000000001 Z" fill="#FEF7E3" stroke="lightgray" stroke-width="2" />
<use xlink:href="#clip-4465917152-4530021328" />
<g clip-path="url(#clip-4465917152-4530021328)">
<circle cx="105.0" cy="105.0" r="92" stroke="#DAA05D" stroke-width="16" fill="none" />
<circle cx="105.0" cy="105.0" r="98" stroke="#C37B32" stroke-width="5" fill="none" />
<circle cx="132.20891237254483" cy="140.67320225349326" r="5.170220379980899" fill="#8B4513" fill-opacity="0.36169837446960196" />
<circle cx="131.84085502584256" cy="162.93645884499819" r="4.059638478570422" fill="#8B4513" fill-opacity="0.484783791435446" />
<circle cx="113.5339298234589" cy="28.85220804366068" r="4.020461958041797" fill="#FFDE75" fill-opacity="0.22344038485936443" />
<circle cx="90.78612898388035" cy="85.76712456344147" r="3.368418257786998" fill="#FFDE75" fill-opacity="0.3914423771226688" />
<circle cx="111.50638610778535" cy="123.42590035376985" r="5.484138400767613" fill="#D2691E" fill-opacity="0.4964704327011487" />
<circle cx="62.36944286958661" cy="96.82503166841897" r="4.6593369606863835" fill="#8B4513" fill-opacity="0.26290656633867804" />
<circle cx="154.8330124538282" cy="39.93652115958868" r="2.03014107081657" fill="#FFFFFF" fill-opacity="0.35537315209550113" />
<circle cx="46.03879168549804" cy="83.69183618067846" r="2.8039333246948575" fill="#8B4513" fill-opacity="0.3756342548756182" />
<circle cx="107.20224680015532" cy="90.89787997534906" r="5.174265216678414" fill="#D2691E" fill-opacity="0.3564970663922177" />
<circle cx="57.740094168080276" cy="144.76669016896471" r="3.7516918725216652" fill="#D2691E" fill-opacity="0.5673652763134582" />
<circle cx="124.71557246425041" cy="128.94418323817894" r="2.022223933543834" fill="#8B4513" fill-opacity="0.402118580550616" />
<circle cx="112.44748975666523" cy="125.01742576448903" r="4.11994459407554" fill="#D2691E" fill-opacity="0.2911599642531814" />
<circle cx="177.22561335107372" cy="71.59828587989438" r="2.6649025776918345" fill="#8B4513" fill-opacity="0.314614812738026" />
<circle cx="96.42616944324236" cy="152.33194387236506" r="5.557181826166164" fill="#FFFFFF" fill-opacity="0.5148529057567355" />
<circle cx="117.5022768399828" cy="103.92064173875701" r="5.6502526381810805" fill="#FFFFFF" fill-opacity="0.2597512473288643" />
<circle cx="138.71816446938658" cy="153.37667962766469" r="6.720602792877299" fill="#FFFFFF" fill-opacity="0.95" stroke="#FAF0E6" stroke-width="1.5" />
<circle cx="142.1312229565586" cy="139.43359271356138" r="8.22618513051186" fill="#FFFFFF" fill-opacity="0.95" stroke="#FAF0E6" stroke-width="1.5" />
<circle cx="57.39950270299915" cy="149.71669239541228" r="11.112741412497504" fill="#FFFFFF" fill-opacity="0.95" stroke="#FAF0E6" stroke-width="1.5" />
<circle cx="142.97310663231553" cy="72.00851475742513" r="5.179263074673875" fill="#FFFFFF" fill-opacity="0.95" stroke="#FAF0E6" stroke-width="1.5" />
<circle cx="174.82220531957046" cy="112.01434936468782" r="7.65039683145513" fill="#FFFFFF" fill-opacity="0.95" stroke="#FAF0E6" stroke-width="1.5" />
<circle cx="167.96219632007694" cy="59.08199785107272" r="6.2703679024286565" fill="#FFFFFF" fill-opacity="0.95" stroke="#FAF0E6" stroke-width="1.5" />
</g>
<rect x="230.0" y="41.0" width="54.0" height="54.0" fill="none" stroke="black" stroke-width="2" />
<rect x="230.0" y="115.0" width="54.0" height="54.0" fill="none" stroke="black" stroke-width="2" />
<path d="M225.0,105.0 L289.0,105.0" stroke="black" stroke-width="2" />
</g>
</svg>