<?xml version='1.0' encoding='ascii'?>
<svg xmlns="http://www.w3.org/2000/svg" version="1.1" width="1920" height="1080">
    <g id="ViewLayer_LineSet" xmlns:inkscape="http://www.inkscape.org/namespaces/inkscape" inkscape:groupmode="lineset" inkscape:label="ViewLayer_LineSet">
        <g xmlns:inkscape="http://www.inkscape.org/namespaces/inkscape" inkscape:groupmode="layer" id="strokes" inkscape:label="strokes">
            <path fill="none" stroke-width="2.0" stroke-linecap="butt" stroke-opacity="1.0" stroke="rgb(0, 0, 0)" stroke-linejoin="round" d=" M 847.677, 498.352 856.604, 502.859 864.456, 506.823 873.383, 511.330 882.310, 515.837 891.236, 520.344 900.163, 524.852 901.748, 525.652 " />
            <path fill="none" stroke-width="2.0" stroke-linecap="butt" stroke-opacity="1.0" stroke="rgb(0, 0, 0)" stroke-linejoin="round" d=" M 1054.137, 478.630 1054.138, 478.473 1054.138, 478.298 1054.140, 469.515 " />
            <path fill="none" stroke-width="2.0" stroke-linecap="butt" stroke-opacity="1.0" stroke="rgb(0, 0, 0)" stroke-linejoin="round" d=" M 1021.550, 468.345 1021.521, 469.247 1021.503, 469.777 1021.230, 478.214 1021.234, 478.517 1021.234, 478.558 " />
            <path fill="none" stroke-width="2.0" stroke-linecap="butt" stroke-opacity="1.0" stroke="rgb(0, 0, 0)" stroke-linejoin="round" d=" M 938.326, 424.357 938.417, 419.673 938.288, 415.459 " />
            <path fill="none" stroke-width="2.0" stroke-linecap="butt" stroke-opacity="1.0" stroke="rgb(0, 0, 0)" stroke-linejoin="round" d=" M 906.660, 415.070 906.655, 415.380 906.621, 417.902 906.822, 424.363 906.842, 425.005 " />
            <path fill="none" stroke-width="2.0" stroke-linecap="butt" stroke-opacity="1.0" stroke="rgb(0, 0, 0)" stroke-linejoin="round" d=" M 922.494, 415.216 922.494, 415.216 922.494, 415.216 922.494, 415.216 922.494, 415.216 922.494, 415.216 922.494, 415.216 922.494, 415.216 922.494, 415.216 922.494, 415.216 922.494, 415.216 922.494, 415.216 922.494, 415.216 922.494, 415.216 922.494, 415.216 " />
            <path fill="none" stroke-width="2.0" stroke-linecap="butt" stroke-opacity="1.0" stroke="rgb(0, 0, 0)" stroke-linejoin="round" d=" M 999.427, 487.680 999.427, 487.680 999.427, 487.680 999.427, 487.680 999.427, 487.680 999.427, 487.680 999.427, 487.680 999.427, 487.680 999.427, 487.680 999.427, 487.680 999.427, 487.680 999.427, 487.680 999.427, 487.680 999.427, 487.680 999.427, 487.680 " />
            <path fill="none" stroke-width="2.0" stroke-linecap="butt" stroke-opacity="1.0" stroke="rgb(0, 0, 0)" stroke-linejoin="round" d=" M 943.612, 468.599 943.605, 468.950 943.602, 469.143 943.537, 472.444 " />
            <path fill="none" stroke-width="2.0" stroke-linecap="butt" stroke-opacity="1.0" stroke="rgb(0, 0, 0)" stroke-linejoin="round" d=" M 921.557, 450.543 921.557, 450.543 921.557, 450.543 921.557, 450.543 921.557, 450.543 921.557, 450.543 " />
            <path fill="none" stroke-width="2.0" stroke-linecap="butt" stroke-opacity="1.0" stroke="rgb(0, 0, 0)" stroke-linejoin="round" d=" M 867.978, 432.633 867.977, 432.700 867.974, 433.181 868.299, 441.851 868.329, 442.663 " />
            <path fill="none" stroke-width="2.0" stroke-linecap="butt" stroke-opacity="1.0" stroke="rgb(0, 0, 0)" stroke-linejoin="round" d=" M 868.136, 432.309 859.022, 436.425 849.908, 440.540 846.323, 442.159 846.564, 452.156 846.805, 462.153 847.046, 472.151 847.286, 482.148 847.527, 492.145 847.677, 498.352 847.918, 508.349 848.159, 518.346 848.400, 528.343 848.641, 538.340 848.882, 548.337 848.999, 553.221 849.240, 563.218 849.481, 573.215 849.722, 583.212 849.963, 593.209 850.204, 603.207 850.291, 606.813 859.087, 611.572 867.882, 616.330 876.677, 621.088 885.473, 625.846 894.268, 630.604 903.064, 635.362 911.859, 640.120 920.655, 644.878 929.450, 649.636 938.246, 654.395 947.041, 659.153 955.837, 663.911 964.632, 668.669 973.428, 673.427 982.223, 678.185 991.019, 682.943 998.394, 686.933 1007.139, 682.083 1015.884, 677.232 1024.629, 672.382 1033.374, 667.532 1042.119, 662.681 1050.864, 657.831 1059.609, 652.981 1068.354, 648.131 1072.378, 645.898 1072.627, 635.902 1072.876, 625.905 1073.125, 615.908 1073.374, 605.911 1073.623, 595.914 1073.734, 591.458 1073.983, 581.461 1074.232, 571.464 1074.481, 561.467 1074.730, 551.470 1074.979, 541.473 1075.123, 535.688 1075.372, 525.691 1075.620, 515.694 1075.870, 505.697 1076.118, 495.700 1076.367, 485.703 1076.546, 478.539 1067.470, 474.341 1058.393, 470.143 1053.996, 468.109 " />
            <path fill="none" stroke-width="2.0" stroke-linecap="butt" stroke-opacity="1.0" stroke="rgb(0, 0, 0)" stroke-linejoin="round" d=" M 998.868, 631.625 1007.680, 626.898 1013.521, 623.764 1014.083, 623.463 1018.849, 620.905 1027.661, 616.178 1036.472, 611.450 1045.284, 606.722 1054.096, 601.994 1057.485, 600.176 1066.297, 595.448 1073.734, 591.458 " />
            <path fill="none" stroke-width="2.0" stroke-linecap="butt" stroke-opacity="1.0" stroke="rgb(0, 0, 0)" stroke-linejoin="round" d=" M 848.999, 553.221 857.860, 557.857 865.149, 561.670 874.009, 566.305 882.870, 570.941 891.731, 575.576 900.591, 580.212 902.454, 581.186 907.702, 583.931 908.898, 584.557 917.758, 589.193 926.619, 593.828 935.480, 598.464 938.825, 600.214 938.949, 600.278 943.996, 602.919 944.233, 603.043 953.094, 607.678 961.954, 612.314 970.815, 616.949 975.679, 619.494 " />
            <path fill="none" stroke-width="2.0" stroke-linecap="butt" stroke-opacity="1.0" stroke="rgb(0, 0, 0)" stroke-linejoin="round" d=" M 998.868, 631.625 998.817, 637.617 998.731, 647.616 998.649, 657.206 998.563, 667.206 998.477, 677.206 998.394, 686.933 " />
            <path fill="none" stroke-width="2.0" stroke-linecap="butt" stroke-opacity="1.0" stroke="rgb(0, 0, 0)" stroke-linejoin="round" d=" M 999.355, 574.933 1003.301, 572.889 1011.515, 568.634 1012.237, 568.260 1013.296, 567.712 1014.181, 567.253 1019.565, 564.465 1019.573, 564.461 1028.452, 559.862 1037.332, 555.262 1046.211, 550.663 1055.091, 546.064 1058.242, 544.432 1067.121, 539.832 1075.123, 535.688 " />
            <path fill="none" stroke-width="2.0" stroke-linecap="butt" stroke-opacity="1.0" stroke="rgb(0, 0, 0)" stroke-linejoin="round" d=" M 847.677, 498.352 856.604, 502.859 864.456, 506.823 873.383, 511.330 882.310, 515.837 891.236, 520.344 900.163, 524.852 901.748, 525.652 " />
            <path fill="none" stroke-width="2.0" stroke-linecap="butt" stroke-opacity="1.0" stroke="rgb(0, 0, 0)" stroke-linejoin="round" d=" M 999.355, 574.933 999.311, 580.085 999.283, 583.354 999.228, 589.741 999.204, 592.488 999.194, 593.673 999.118, 602.525 999.115, 602.918 999.064, 608.896 999.039, 611.730 999.006, 615.653 998.970, 619.811 998.884, 629.811 998.868, 631.625 990.008, 626.990 981.740, 622.665 980.907, 622.229 976.431, 619.887 " />
            <path fill="none" stroke-width="2.0" stroke-linecap="butt" stroke-opacity="1.0" stroke="rgb(0, 0, 0)" stroke-linejoin="round" d=" M 999.854, 516.802 1000.609, 516.426 1009.557, 511.961 1009.898, 511.791 1010.092, 511.694 1013.913, 509.788 1014.858, 509.316 1017.506, 507.995 1020.315, 506.594 1029.263, 502.129 1038.211, 497.665 1047.159, 493.201 1056.108, 488.736 1058.972, 487.307 1067.920, 482.843 1076.546, 478.539 " />
            <path fill="none" stroke-width="2.0" stroke-linecap="butt" stroke-opacity="1.0" stroke="rgb(0, 0, 0)" stroke-linejoin="round" d=" M 923.018, 407.527 921.940, 408.014 " />
            <path fill="none" stroke-width="2.0" stroke-linecap="butt" stroke-opacity="1.0" stroke="rgb(0, 0, 0)" stroke-linejoin="round" d=" M 863.792, 450.653 872.786, 455.025 881.779, 459.397 890.773, 463.770 899.766, 468.142 901.025, 468.754 905.796, 471.074 906.403, 471.369 907.278, 471.794 913.035, 474.593 913.220, 474.683 922.213, 479.055 922.590, 479.239 931.584, 483.611 934.777, 485.163 938.320, 486.886 938.444, 486.946 943.629, 489.467 943.855, 489.577 944.189, 489.739 949.949, 492.540 958.943, 496.912 967.936, 501.284 972.033, 503.276 976.097, 505.252 976.861, 505.624 981.468, 507.863 982.004, 508.124 982.302, 508.269 987.579, 510.834 996.572, 515.207 999.854, 516.802 999.787, 524.580 999.760, 527.773 999.703, 534.447 999.680, 537.130 999.677, 537.408 999.599, 546.498 999.596, 546.882 999.542, 553.162 999.531, 554.482 999.525, 555.165 999.518, 555.931 999.467, 561.866 999.454, 563.387 999.447, 564.263 999.390, 570.919 999.355, 574.933 990.428, 570.426 984.666, 567.516 982.017, 566.179 981.679, 566.008 981.184, 565.758 976.643, 563.466 975.886, 563.083 968.948, 559.581 960.021, 555.073 951.095, 550.566 947.477, 548.740 944.329, 547.150 944.046, 547.008 943.815, 546.891 938.699, 544.308 938.576, 544.246 932.133, 540.993 923.206, 536.486 919.821, 534.777 911.169, 530.408 " />
            <path fill="none" stroke-width="2.0" stroke-linecap="butt" stroke-opacity="1.0" stroke="rgb(0, 0, 0)" stroke-linejoin="round" d=" M 1054.363, 468.877 1053.309, 471.890 1050.509, 473.993 1049.877, 474.467 1044.583, 476.190 1038.277, 476.791 1036.044, 476.580 1031.907, 476.190 1026.431, 474.467 1025.057, 473.512 1022.726, 471.890 1021.833, 469.932 1021.521, 469.247 1021.352, 468.877 1022.470, 465.875 1025.929, 463.328 1031.198, 461.635 1037.443, 461.047 1039.052, 461.197 1043.749, 461.635 1049.198, 463.328 1052.927, 465.875 1053.996, 468.109 1054.363, 468.877 " />
            <path fill="none" stroke-width="2.0" stroke-linecap="butt" stroke-opacity="1.0" stroke="rgb(0, 0, 0)" stroke-linejoin="round" d=" M 1021.225, 478.539 1021.234, 478.558 1022.596, 481.566 1026.294, 484.155 1031.759, 485.886 1038.115, 486.489 1044.408, 485.886 1049.691, 484.155 1050.664, 483.420 1053.116, 481.566 " />
            <path fill="none" stroke-width="2.0" stroke-linecap="butt" stroke-opacity="1.0" stroke="rgb(0, 0, 0)" stroke-linejoin="round" d=" M 1014.743, 450.543 1013.621, 453.482 1010.854, 455.493 1010.164, 455.995 1004.890, 457.675 998.647, 458.260 996.448, 458.055 992.373, 457.675 987.011, 455.995 985.959, 455.258 983.421, 453.482 982.590, 451.572 982.284, 450.866 982.143, 450.543 982.302, 450.149 983.326, 447.616 986.810, 445.132 992.058, 443.481 998.240, 442.907 999.826, 443.054 1004.453, 443.481 1009.789, 445.132 1013.404, 447.616 1014.400, 449.795 1014.743, 450.543 " />
            <path fill="none" stroke-width="2.0" stroke-linecap="butt" stroke-opacity="1.0" stroke="rgb(0, 0, 0)" stroke-linejoin="round" d=" M 982.098, 460.123 982.162, 460.270 983.373, 463.075 986.956, 465.599 992.307, 467.287 998.568, 467.875 1004.798, 467.287 1010.061, 465.599 1011.041, 464.883 1013.511, 463.075 1014.631, 460.123 " />
            <path fill="none" stroke-width="2.0" stroke-linecap="butt" stroke-opacity="1.0" stroke="rgb(0, 0, 0)" stroke-linejoin="round" d=" M 976.099, 432.662 975.948, 433.027 974.914, 435.529 972.182, 437.452 971.433, 437.980 966.181, 439.619 960.000, 440.189 957.833, 439.989 953.819, 439.619 948.567, 437.980 947.818, 437.452 945.086, 435.529 944.316, 433.666 944.007, 432.917 943.901, 432.662 944.017, 432.396 945.146, 429.807 948.651, 427.383 953.879, 425.772 960.000, 425.213 961.562, 425.355 966.121, 425.772 971.349, 427.383 974.854, 429.807 975.781, 431.932 976.099, 432.662 " />
            <path fill="none" stroke-width="2.0" stroke-linecap="butt" stroke-opacity="1.0" stroke="rgb(0, 0, 0)" stroke-linejoin="round" d=" M 972.396, 446.803 974.884, 445.039 976.066, 442.159 " />
            <path fill="none" stroke-width="2.0" stroke-linecap="butt" stroke-opacity="1.0" stroke="rgb(0, 0, 0)" stroke-linejoin="round" d=" M 943.934, 442.159 945.117, 445.039 948.590, 447.502 953.832, 449.148 960.000, 449.721 " />
            <path fill="none" stroke-width="2.0" stroke-linecap="butt" stroke-opacity="1.0" stroke="rgb(0, 0, 0)" stroke-linejoin="round" d=" M 966.168, 449.148 971.410, 447.502 " />
            <path fill="none" stroke-width="2.0" stroke-linecap="butt" stroke-opacity="1.0" stroke="rgb(0, 0, 0)" stroke-linejoin="round" d=" M 938.396, 415.216 938.288, 415.459 937.151, 418.013 934.458, 419.853 933.649, 420.405 928.419, 422.004 922.299, 422.561 916.209, 422.004 911.063, 420.405 910.599, 420.076 907.688, 418.013 906.655, 415.380 906.591, 415.216 906.752, 414.872 907.894, 412.430 911.419, 410.065 916.625, 408.493 921.940, 408.014 922.686, 407.947 923.021, 407.977 924.226, 408.086 928.719, 408.493 933.841, 410.065 937.241, 412.430 938.101, 414.504 938.396, 415.216 " />
            <path fill="none" stroke-width="2.0" stroke-linecap="butt" stroke-opacity="1.0" stroke="rgb(0, 0, 0)" stroke-linejoin="round" d=" M 923.208, 431.935 928.482, 431.452 933.702, 429.846 934.694, 429.164 937.197, 427.443 938.439, 424.633 " />
            <path fill="none" stroke-width="2.0" stroke-linecap="butt" stroke-opacity="1.0" stroke="rgb(0, 0, 0)" stroke-linejoin="round" d=" M 906.697, 424.633 907.792, 427.443 910.454, 429.342 " />
            <path fill="none" stroke-width="2.0" stroke-linecap="butt" stroke-opacity="1.0" stroke="rgb(0, 0, 0)" stroke-linejoin="round" d=" M 911.161, 429.846 916.296, 431.452 922.374, 432.012 " />
            <path fill="none" stroke-width="2.0" stroke-linecap="butt" stroke-opacity="1.0" stroke="rgb(0, 0, 0)" stroke-linejoin="round" d=" M 1016.144, 487.680 1014.999, 490.766 1014.997, 490.771 1012.381, 492.722 1011.453, 493.415 1010.843, 493.614 1006.046, 495.182 999.642, 495.798 993.207, 495.182 987.706, 493.415 986.396, 492.475 984.022, 490.771 982.854, 488.019 982.710, 487.680 982.874, 487.263 983.789, 484.939 983.922, 484.601 987.493, 481.988 992.875, 480.252 999.214, 479.649 1005.586, 480.252 1011.059, 481.988 1014.769, 484.601 1016.144, 487.680 " />
            <path fill="none" stroke-width="2.0" stroke-linecap="butt" stroke-opacity="1.0" stroke="rgb(0, 0, 0)" stroke-linejoin="round" d=" M 1009.063, 503.938 1011.117, 503.262 1011.345, 503.187 1014.882, 500.531 1014.926, 500.413 1016.027, 497.426 " />
            <path fill="none" stroke-width="2.0" stroke-linecap="butt" stroke-opacity="1.0" stroke="rgb(0, 0, 0)" stroke-linejoin="round" d=" M 982.663, 497.426 983.203, 498.708 983.971, 500.531 986.170, 502.120 987.647, 503.187 993.137, 504.962 996.904, 505.325 999.559, 505.581 1005.949, 504.962 1009.063, 503.938 " />
            <path fill="none" stroke-width="2.0" stroke-linecap="butt" stroke-opacity="1.0" stroke="rgb(0, 0, 0)" stroke-linejoin="round" d=" M 976.506, 468.877 976.211, 469.609 975.291, 471.890 972.713, 473.752 971.723, 474.467 966.338, 476.190 960.000, 476.791 953.662, 476.190 948.277, 474.467 947.287, 473.752 944.709, 471.890 943.882, 469.840 943.789, 469.609 943.607, 469.158 943.602, 469.143 943.494, 468.877 943.602, 468.623 944.771, 465.875 948.366, 463.328 953.725, 461.635 960.000, 461.047 966.275, 461.635 971.635, 463.328 975.229, 465.875 976.506, 468.877 " />
            <path fill="none" stroke-width="2.0" stroke-linecap="butt" stroke-opacity="1.0" stroke="rgb(0, 0, 0)" stroke-linejoin="round" d=" M 969.426, 484.887 971.699, 484.155 971.801, 484.080 975.260, 481.566 976.092, 479.487 976.472, 478.539 " />
            <path fill="none" stroke-width="2.0" stroke-linecap="butt" stroke-opacity="1.0" stroke="rgb(0, 0, 0)" stroke-linejoin="round" d=" M 943.528, 478.539 943.660, 478.868 943.869, 479.390 944.029, 479.789 " />
            <path fill="none" stroke-width="2.0" stroke-linecap="butt" stroke-opacity="1.0" stroke="rgb(0, 0, 0)" stroke-linejoin="round" d=" M 944.740, 481.566 948.199, 484.080 948.301, 484.155 953.675, 485.886 957.385, 486.239 960.000, 486.489 966.325, 485.886 969.426, 484.887 " />
            <path fill="none" stroke-width="2.0" stroke-linecap="butt" stroke-opacity="1.0" stroke="rgb(0, 0, 0)" stroke-linejoin="round" d=" M 937.857, 450.543 937.819, 450.631 936.579, 453.482 934.041, 455.258 932.989, 455.995 927.627, 457.675 921.353, 458.260 915.110, 457.675 909.837, 455.995 909.146, 455.493 907.047, 453.967 906.379, 453.482 906.227, 453.084 905.321, 450.710 905.258, 450.543 905.325, 450.395 906.596, 447.616 910.211, 445.132 915.547, 443.481 921.760, 442.907 923.064, 443.028 923.294, 443.050 927.942, 443.481 933.190, 445.132 936.674, 447.616 937.857, 450.543 " />
            <path fill="none" stroke-width="2.0" stroke-linecap="butt" stroke-opacity="1.0" stroke="rgb(0, 0, 0)" stroke-linejoin="round" d=" M 930.781, 466.313 933.044, 465.599 933.125, 465.542 936.627, 463.075 937.902, 460.123 " />
            <path fill="none" stroke-width="2.0" stroke-linecap="butt" stroke-opacity="1.0" stroke="rgb(0, 0, 0)" stroke-linejoin="round" d=" M 905.369, 460.123 905.519, 460.520 906.286, 462.542 " />
            <path fill="none" stroke-width="2.0" stroke-linecap="butt" stroke-opacity="1.0" stroke="rgb(0, 0, 0)" stroke-linejoin="round" d=" M 906.489, 463.075 909.939, 465.599 911.609, 466.135 914.407, 467.032 915.202, 467.287 921.432, 467.875 923.257, 467.703 923.486, 467.682 927.693, 467.287 930.781, 466.313 " />
            <path fill="none" stroke-width="2.0" stroke-linecap="butt" stroke-opacity="1.0" stroke="rgb(0, 0, 0)" stroke-linejoin="round" d=" M 900.161, 432.662 899.343, 434.416 898.824, 435.529 896.328, 437.223 895.214, 437.980 889.875, 439.619 887.468, 439.840 883.663, 440.189 877.513, 439.619 872.348, 437.980 871.939, 437.681 868.997, 435.529 867.977, 432.700 867.964, 432.662 868.136, 432.309 869.360, 429.807 872.994, 427.383 878.306, 425.772 883.700, 425.282 884.457, 425.213 890.549, 425.772 895.691, 427.383 899.068, 429.807 900.161, 432.662 " />
            <path fill="none" stroke-width="2.0" stroke-linecap="butt" stroke-opacity="1.0" stroke="rgb(0, 0, 0)" stroke-linejoin="round" d=" M 898.947, 445.039 900.282, 442.159 " />
            <path fill="none" stroke-width="2.0" stroke-linecap="butt" stroke-opacity="1.0" stroke="rgb(0, 0, 0)" stroke-linejoin="round" d=" M 868.149, 442.159 868.329, 442.663 " />
            <path fill="none" stroke-width="2.0" stroke-linecap="butt" stroke-opacity="1.0" stroke="rgb(0, 0, 0)" stroke-linejoin="round" d=" M 900.128, 441.756 900.191, 435.000 900.152, 434.047 900.101, 432.791 " />
            <path fill="none" stroke-width="2.0" stroke-linecap="butt" stroke-opacity="1.0" stroke="rgb(0, 0, 0)" stroke-linejoin="round" d=" M 905.325, 450.395 905.321, 450.710 905.288, 453.178 905.433, 457.791 905.498, 459.838 905.519, 460.520 " />
            <path fill="none" stroke-width="2.0" stroke-linecap="butt" stroke-opacity="1.0" stroke="rgb(0, 0, 0)" stroke-linejoin="round" d=" M 906.752, 414.872 897.638, 418.988 888.524, 423.103 883.700, 425.282 " />
            <path fill="none" stroke-width="2.0" stroke-linecap="butt" stroke-opacity="1.0" stroke="rgb(0, 0, 0)" stroke-linejoin="round" d=" M 937.785, 459.831 937.814, 458.351 937.878, 455.037 937.802, 452.576 937.747, 450.796 " />
            <path fill="none" stroke-width="2.0" stroke-linecap="butt" stroke-opacity="1.0" stroke="rgb(0, 0, 0)" stroke-linejoin="round" d=" M 943.537, 472.444 943.511, 473.730 943.576, 476.259 943.627, 478.304 943.641, 478.820 " />
            <path fill="none" stroke-width="2.0" stroke-linecap="butt" stroke-opacity="1.0" stroke="rgb(0, 0, 0)" stroke-linejoin="round" d=" M 944.017, 432.396 944.007, 432.917 943.995, 433.515 943.918, 437.462 944.030, 441.936 944.043, 442.424 " />
            <path fill="none" stroke-width="2.0" stroke-linecap="butt" stroke-opacity="1.0" stroke="rgb(0, 0, 0)" stroke-linejoin="round" d=" M 975.996, 441.996 976.076, 439.272 975.948, 433.027 " />
            <path fill="none" stroke-width="2.0" stroke-linecap="butt" stroke-opacity="1.0" stroke="rgb(0, 0, 0)" stroke-linejoin="round" d=" M 976.400, 478.369 976.464, 476.231 976.482, 475.633 976.351, 469.262 " />
            <path fill="none" stroke-width="2.0" stroke-linecap="butt" stroke-opacity="1.0" stroke="rgb(0, 0, 0)" stroke-linejoin="round" d=" M 982.302, 450.149 982.284, 450.866 982.269, 451.422 982.110, 457.559 982.156, 459.978 982.162, 460.270 " />
            <path fill="none" stroke-width="2.0" stroke-linecap="butt" stroke-opacity="1.0" stroke="rgb(0, 0, 0)" stroke-linejoin="round" d=" M 982.768, 491.300 982.675, 494.860 982.682, 495.191 982.721, 497.276 982.727, 497.579 " />
            <path fill="none" stroke-width="2.0" stroke-linecap="butt" stroke-opacity="1.0" stroke="rgb(0, 0, 0)" stroke-linejoin="round" d=" M 982.874, 487.263 982.854, 488.019 982.820, 489.317 982.768, 491.300 " />
            <path fill="none" stroke-width="2.0" stroke-linecap="butt" stroke-opacity="1.0" stroke="rgb(0, 0, 0)" stroke-linejoin="round" d=" M 980.907, 622.229 981.740, 622.665 990.600, 627.300 998.868, 631.625 " />
            <path fill="none" stroke-width="2.0" stroke-linecap="butt" stroke-opacity="1.0" stroke="rgb(0, 0, 0)" stroke-linejoin="round" d=" M 944.233, 603.043 953.094, 607.678 961.954, 612.314 970.815, 616.949 975.679, 619.494 " />
            <path fill="none" stroke-width="2.0" stroke-linecap="butt" stroke-opacity="1.0" stroke="rgb(0, 0, 0)" stroke-linejoin="round" d=" M 938.949, 600.278 943.996, 602.919 " />
            <path fill="none" stroke-width="2.0" stroke-linecap="butt" stroke-opacity="1.0" stroke="rgb(0, 0, 0)" stroke-linejoin="round" d=" M 907.702, 583.931 908.898, 584.557 " />
            <path fill="none" stroke-width="2.0" stroke-linecap="butt" stroke-opacity="1.0" stroke="rgb(0, 0, 0)" stroke-linejoin="round" d=" M 903.658, 526.616 907.060, 528.334 907.877, 528.746 910.815, 530.230 " />
            <path fill="none" stroke-width="2.0" stroke-linecap="butt" stroke-opacity="1.0" stroke="rgb(0, 0, 0)" stroke-linejoin="round" d=" M 976.643, 563.466 981.184, 565.758 " />
            <path fill="none" stroke-width="2.0" stroke-linecap="butt" stroke-opacity="1.0" stroke="rgb(0, 0, 0)" stroke-linejoin="round" d=" M 947.477, 548.740 956.404, 553.247 965.331, 557.754 968.948, 559.581 975.886, 563.083 " />
            <path fill="none" stroke-width="2.0" stroke-linecap="butt" stroke-opacity="1.0" stroke="rgb(0, 0, 0)" stroke-linejoin="round" d=" M 943.815, 546.891 944.046, 547.008 944.329, 547.150 " />
            <path fill="none" stroke-width="2.0" stroke-linecap="butt" stroke-opacity="1.0" stroke="rgb(0, 0, 0)" stroke-linejoin="round" d=" M 932.133, 540.993 938.576, 544.246 " />
            <path fill="none" stroke-width="2.0" stroke-linecap="butt" stroke-opacity="1.0" stroke="rgb(0, 0, 0)" stroke-linejoin="round" d=" M 911.169, 530.408 919.821, 534.777 " />
            <path fill="none" stroke-width="2.0" stroke-linecap="butt" stroke-opacity="1.0" stroke="rgb(0, 0, 0)" stroke-linejoin="round" d=" M 907.060, 528.334 907.877, 528.746 910.815, 530.230 " />
            <path fill="none" stroke-width="2.0" stroke-linecap="butt" stroke-opacity="1.0" stroke="rgb(0, 0, 0)" stroke-linejoin="round" d=" M 1014.612, 460.081 1014.639, 459.411 1014.553, 451.040 " />
            <path fill="none" stroke-width="2.0" stroke-linecap="butt" stroke-opacity="1.0" stroke="rgb(0, 0, 0)" stroke-linejoin="round" d=" M 1016.011, 497.389 1016.035, 496.809 1016.012, 494.600 1015.948, 488.208 " />
            <path fill="none" stroke-width="2.0" stroke-linecap="butt" stroke-opacity="1.0" stroke="rgb(0, 0, 0)" stroke-linejoin="round" d=" M 961.562, 425.355 952.486, 421.157 943.410, 416.959 938.101, 414.504 " />
            <path fill="none" stroke-width="2.0" stroke-linecap="butt" stroke-opacity="1.0" stroke="rgb(0, 0, 0)" stroke-linejoin="round" d=" M 999.826, 443.054 990.750, 438.856 981.674, 434.658 975.781, 431.932 " />
            <path fill="none" stroke-width="2.0" stroke-linecap="butt" stroke-opacity="1.0" stroke="rgb(0, 0, 0)" stroke-linejoin="round" d=" M 1039.052, 461.197 1029.976, 456.999 1020.900, 452.801 1014.400, 449.795 " />
        </g>
    </g>
</svg>
